<?xml version="1.0" encoding="UTF-8"?>
<!--Generator: Apple Native CoreSVG 360-->
<!DOCTYPE svg
PUBLIC "-//W3C//DTD SVG 1.1//EN"
       "http://www.w3.org/Graphics/SVG/1.1/DTD/svg11.dtd">
<svg version="1.1" xmlns="http://www.w3.org/2000/svg" xmlns:xlink="http://www.w3.org/1999/xlink" viewBox="0 0 24.2578 23.918">
 <g>
  <rect height="23.918" opacity="0" width="24.2578" x="0" y="0"/>
  <path d="M11.9531 23.9062C18.5508 23.9062 23.9062 18.5508 23.9062 11.9531C23.9062 5.35547 18.5508 0 11.9531 0C5.35547 0 0 5.35547 0 11.9531C0 18.5508 5.35547 23.9062 11.9531 23.9062ZM11.9531 21.9141C6.44531 21.9141 1.99219 17.4609 1.99219 11.9531C1.99219 6.44531 6.44531 1.99219 11.9531 1.99219C17.4609 1.99219 21.9141 6.44531 21.9141 11.9531C21.9141 17.4609 17.4609 21.9141 11.9531 21.9141Z" fill="black" fill-opacity="0.85"/>
  <path d="M11.9414 17.5312C14.4258 17.5312 16.0898 15.293 16.0898 11.9531C16.0898 8.61328 14.4258 6.375 11.9414 6.375C9.46875 6.375 7.80469 8.61328 7.80469 11.9531C7.80469 15.293 9.46875 17.5312 11.9414 17.5312ZM11.9414 16.0312C10.5352 16.0312 9.59766 14.4023 9.59766 11.9531C9.59766 9.50391 10.5352 7.875 11.9414 7.875C13.3477 7.875 14.2852 9.50391 14.2852 11.9531C14.2852 14.4023 13.3477 16.0312 11.9414 16.0312Z" fill="black" fill-opacity="0.85"/>
 </g>
</svg>
