<?xml version="1.0" encoding="UTF-8"?>
<!--Generator: Apple Native CoreSVG 360-->
<!DOCTYPE svg
PUBLIC "-//W3C//DTD SVG 1.1//EN"
       "http://www.w3.org/Graphics/SVG/1.1/DTD/svg11.dtd">
<svg version="1.1" xmlns="http://www.w3.org/2000/svg" xmlns:xlink="http://www.w3.org/1999/xlink" viewBox="0 0 21.9258 21.5742">
 <g>
  <rect height="21.5742" opacity="0" width="21.9258" x="0" y="0"/>
  <path d="M3.67969 21.5742L17.8945 21.5742C20.3555 21.5742 21.5742 20.3672 21.5742 17.9531L21.5742 3.63281C21.5742 1.21875 20.3555 0 17.8945 0L3.67969 0C1.23047 0 0 1.21875 0 3.63281L0 17.9531C0 20.3672 1.23047 21.5742 3.67969 21.5742ZM3.70312 19.6875C2.53125 19.6875 1.88672 19.0664 1.88672 17.8477L1.88672 3.73828C1.88672 2.51953 2.53125 1.88672 3.70312 1.88672L17.8711 1.88672C19.0312 1.88672 19.6875 2.51953 19.6875 3.73828L19.6875 17.8477C19.6875 19.0664 19.0312 19.6875 17.8711 19.6875Z" fill="black" fill-opacity="0.85"/>
  <path d="M10.793 16.3711C13.2773 16.3711 14.9414 14.1328 14.9414 10.793C14.9414 7.45312 13.2773 5.21484 10.793 5.21484C8.32031 5.21484 6.65625 7.45312 6.65625 10.793C6.65625 14.1328 8.32031 16.3711 10.793 16.3711ZM10.793 14.8711C9.39844 14.8711 8.44922 13.2422 8.44922 10.793C8.44922 8.34375 9.39844 6.71484 10.793 6.71484C12.1992 6.71484 13.1367 8.34375 13.1367 10.793C13.1367 13.2422 12.1992 14.8711 10.793 14.8711Z" fill="black" fill-opacity="0.85"/>
 </g>
</svg>
