<?xml version="1.0" encoding="UTF-8"?>
<!--Generator: Apple Native CoreSVG 360-->
<!DOCTYPE svg
PUBLIC "-//W3C//DTD SVG 1.1//EN"
       "http://www.w3.org/Graphics/SVG/1.1/DTD/svg11.dtd">
<svg version="1.1" xmlns="http://www.w3.org/2000/svg" xmlns:xlink="http://www.w3.org/1999/xlink" viewBox="0 0 24.2578 23.918">
 <g>
  <rect height="23.918" opacity="0" width="24.2578" x="0" y="0"/>
  <path d="M11.9531 23.9062C18.5508 23.9062 23.9062 18.5508 23.9062 11.9531C23.9062 5.35547 18.5508 0 11.9531 0C5.35547 0 0 5.35547 0 11.9531C0 18.5508 5.35547 23.9062 11.9531 23.9062ZM11.9531 21.9141C6.44531 21.9141 1.99219 17.4609 1.99219 11.9531C1.99219 6.44531 6.44531 1.99219 11.9531 1.99219C17.4609 1.99219 21.9141 6.44531 21.9141 11.9531C21.9141 17.4609 17.4609 21.9141 11.9531 21.9141Z" fill="black" fill-opacity="0.85"/>
  <path d="M8.22656 16.9336C10.5586 16.9336 11.2617 14.3086 11.2617 11.9531C11.2617 9.59766 10.5586 6.97266 8.22656 6.97266C5.89453 6.97266 5.19141 9.59766 5.19141 11.9531C5.19141 14.3086 5.89453 16.9336 8.22656 16.9336ZM8.22656 15.5391C7.26562 15.5391 6.90234 13.9805 6.90234 11.9531C6.90234 9.91406 7.26562 8.35547 8.22656 8.35547C9.1875 8.35547 9.55078 9.91406 9.55078 11.9531C9.55078 13.9805 9.1875 15.5391 8.22656 15.5391ZM15.6562 16.9336C17.9883 16.9336 18.6914 14.3086 18.6914 11.9531C18.6914 9.59766 17.9883 6.97266 15.6562 6.97266C13.3242 6.97266 12.6211 9.59766 12.6211 11.9531C12.6211 14.3086 13.3242 16.9336 15.6562 16.9336ZM15.6562 15.5391C14.6953 15.5391 14.332 13.9805 14.332 11.9531C14.332 9.91406 14.6953 8.35547 15.6562 8.35547C16.6172 8.35547 16.9805 9.91406 16.9805 11.9531C16.9805 13.9805 16.6172 15.5391 15.6562 15.5391Z" fill="black" fill-opacity="0.85"/>
 </g>
</svg>
