<?xml version="1.0" encoding="UTF-8"?>
<!--Generator: Apple Native CoreSVG 360-->
<!DOCTYPE svg
PUBLIC "-//W3C//DTD SVG 1.1//EN"
       "http://www.w3.org/Graphics/SVG/1.1/DTD/svg11.dtd">
<svg version="1.1" xmlns="http://www.w3.org/2000/svg" xmlns:xlink="http://www.w3.org/1999/xlink" viewBox="0 0 24.2578 23.918">
 <g>
  <rect height="23.918" opacity="0" width="24.2578" x="0" y="0"/>
  <path d="M11.9531 23.9062C18.5508 23.9062 23.9062 18.5508 23.9062 11.9531C23.9062 5.35547 18.5508 0 11.9531 0C5.35547 0 0 5.35547 0 11.9531C0 18.5508 5.35547 23.9062 11.9531 23.9062ZM11.9531 21.9141C6.44531 21.9141 1.99219 17.4609 1.99219 11.9531C1.99219 6.44531 6.44531 1.99219 11.9531 1.99219C17.4609 1.99219 21.9141 6.44531 21.9141 11.9531C21.9141 17.4609 17.4609 21.9141 11.9531 21.9141Z" fill="black" fill-opacity="0.85"/>
  <path d="M9.05859 16.9336C11.3906 16.9336 12.0938 14.3086 12.0938 11.9531C12.0938 9.59766 11.3906 6.97266 9.05859 6.97266C6.72656 6.97266 6.02344 9.59766 6.02344 11.9531C6.02344 14.3086 6.72656 16.9336 9.05859 16.9336ZM9.05859 15.5391C8.09766 15.5391 7.73438 13.9805 7.73438 11.9531C7.73438 9.91406 8.09766 8.35547 9.05859 8.35547C10.0195 8.35547 10.3828 9.91406 10.3828 11.9531C10.3828 13.9805 10.0195 15.5391 9.05859 15.5391ZM16.1016 16.8164C16.5586 16.8164 16.9453 16.4297 16.9453 15.9609L16.9453 8.01562C16.9453 7.41797 16.5703 7.06641 15.9609 7.06641C15.4688 7.06641 15.0703 7.33594 14.8008 7.54688L13.5117 8.54297C13.3008 8.70703 13.1367 8.92969 13.1367 9.23438C13.1367 9.59766 13.3828 9.85547 13.7461 9.85547C13.9219 9.85547 14.0391 9.79688 14.1562 9.71484L15.2344 8.84766L15.2344 15.9609C15.2344 16.4297 15.6211 16.8164 16.1016 16.8164Z" fill="black" fill-opacity="0.85"/>
 </g>
</svg>
