<?xml version="1.0" encoding="UTF-8"?>
<!--Generator: Apple Native CoreSVG 360-->
<!DOCTYPE svg
PUBLIC "-//W3C//DTD SVG 1.1//EN"
       "http://www.w3.org/Graphics/SVG/1.1/DTD/svg11.dtd">
<svg version="1.1" xmlns="http://www.w3.org/2000/svg" xmlns:xlink="http://www.w3.org/1999/xlink" viewBox="0 0 24.2578 23.918">
 <g>
  <rect height="23.918" opacity="0" width="24.2578" x="0" y="0"/>
  <path d="M11.9531 23.9062C18.5508 23.9062 23.9062 18.5508 23.9062 11.9531C23.9062 5.35547 18.5508 0 11.9531 0C5.35547 0 0 5.35547 0 11.9531C0 18.5508 5.35547 23.9062 11.9531 23.9062ZM11.9531 21.9141C6.44531 21.9141 1.99219 17.4609 1.99219 11.9531C1.99219 6.44531 6.44531 1.99219 11.9531 1.99219C17.4609 1.99219 21.9141 6.44531 21.9141 11.9531C21.9141 17.4609 17.4609 21.9141 11.9531 21.9141Z" fill="black" fill-opacity="0.85"/>
  <path d="M8.37891 16.9336C10.7227 16.9336 11.4141 14.3086 11.4141 11.9531C11.4141 9.59766 10.7227 6.97266 8.37891 6.97266C6.04688 6.97266 5.35547 9.59766 5.35547 11.9531C5.35547 14.3086 6.04688 16.9336 8.37891 16.9336ZM8.37891 15.5391C7.41797 15.5391 7.05469 13.9805 7.05469 11.9531C7.05469 9.91406 7.41797 8.35547 8.37891 8.35547C9.33984 8.35547 9.70312 9.91406 9.70312 11.9531C9.70312 13.9805 9.33984 15.5391 8.37891 15.5391ZM13.4648 16.6875L17.5312 16.6875C17.9531 16.6875 18.1992 16.418 18.1992 16.0078C18.1992 15.5625 17.9414 15.3164 17.5312 15.3164L14.7539 15.3164L14.7539 15.2227L16.4648 13.0547C17.6367 11.6016 18.0234 10.7344 18.0234 9.70312C18.0234 8.12109 16.9453 6.97266 15.3281 6.97266C13.8281 6.97266 12.6914 8.21484 12.6914 9.43359C12.6914 9.86719 12.9492 10.1719 13.3945 10.1719C13.7812 10.1719 14.0156 9.99609 14.1445 9.60938C14.3555 8.82422 14.6484 8.33203 15.3281 8.33203C16.0312 8.33203 16.4297 8.95312 16.4297 9.78516C16.4297 10.7227 15.7734 11.6719 15.1523 12.4688L13.1133 15.0703C12.9023 15.3516 12.6797 15.6445 12.6797 16.0078C12.6797 16.4062 12.9375 16.6875 13.4648 16.6875Z" fill="black" fill-opacity="0.85"/>
 </g>
</svg>
