<?xml version="1.0" encoding="UTF-8"?>
<!--Generator: Apple Native CoreSVG 360-->
<!DOCTYPE svg
PUBLIC "-//W3C//DTD SVG 1.1//EN"
       "http://www.w3.org/Graphics/SVG/1.1/DTD/svg11.dtd">
<svg version="1.1" xmlns="http://www.w3.org/2000/svg" xmlns:xlink="http://www.w3.org/1999/xlink" viewBox="0 0 21.9258 21.5742">
 <g>
  <rect height="21.5742" opacity="0" width="21.9258" x="0" y="0"/>
  <path d="M3.67969 21.5742L17.8945 21.5742C20.3555 21.5742 21.5742 20.3672 21.5742 17.9531L21.5742 3.63281C21.5742 1.21875 20.3555 0 17.8945 0L3.67969 0C1.23047 0 0 1.21875 0 3.63281L0 17.9531C0 20.3672 1.23047 21.5742 3.67969 21.5742ZM3.70312 19.6875C2.53125 19.6875 1.88672 19.0664 1.88672 17.8477L1.88672 3.73828C1.88672 2.51953 2.53125 1.88672 3.70312 1.88672L17.8711 1.88672C19.0312 1.88672 19.6875 2.51953 19.6875 3.73828L19.6875 17.8477C19.6875 19.0664 19.0312 19.6875 17.8711 19.6875Z" fill="black" fill-opacity="0.85"/>
  <path d="M7.23047 15.7734C9.57422 15.7734 10.2656 13.1484 10.2656 10.793C10.2656 8.4375 9.57422 5.8125 7.23047 5.8125C4.89844 5.8125 4.20703 8.4375 4.20703 10.793C4.20703 13.1484 4.89844 15.7734 7.23047 15.7734ZM7.23047 14.3789C6.28125 14.3789 5.91797 12.8203 5.91797 10.793C5.91797 8.75391 6.28125 7.19531 7.23047 7.19531C8.19141 7.19531 8.55469 8.75391 8.55469 10.793C8.55469 12.8203 8.19141 14.3789 7.23047 14.3789ZM12.3281 15.5273L16.3945 15.5273C16.8047 15.5273 17.0508 15.2578 17.0508 14.8477C17.0508 14.4023 16.793 14.1562 16.3945 14.1562L13.6055 14.1562L13.6055 14.0625L15.3164 11.8945C16.4883 10.4414 16.875 9.57422 16.875 8.54297C16.875 6.96094 15.7969 5.8125 14.1797 5.8125C12.6914 5.8125 11.543 7.05469 11.543 8.27344C11.543 8.70703 11.8008 9.01172 12.2461 9.01172C12.6328 9.01172 12.8789 8.83594 12.9961 8.44922C13.2188 7.66406 13.5 7.17188 14.1797 7.17188C14.8828 7.17188 15.2812 7.79297 15.2812 8.625C15.2812 9.5625 14.625 10.5117 14.0039 11.3086L11.9648 13.9102C11.7539 14.1914 11.5312 14.4844 11.5312 14.8477C11.5312 15.2461 11.7891 15.5273 12.3281 15.5273Z" fill="black" fill-opacity="0.85"/>
 </g>
</svg>
