<?xml version="1.0" encoding="UTF-8"?>
<!--Generator: Apple Native CoreSVG 360-->
<!DOCTYPE svg
PUBLIC "-//W3C//DTD SVG 1.1//EN"
       "http://www.w3.org/Graphics/SVG/1.1/DTD/svg11.dtd">
<svg version="1.1" xmlns="http://www.w3.org/2000/svg" xmlns:xlink="http://www.w3.org/1999/xlink" viewBox="0 0 24.2578 23.918">
 <g>
  <rect height="23.918" opacity="0" width="24.2578" x="0" y="0"/>
  <path d="M11.9531 23.9062C18.5508 23.9062 23.9062 18.5508 23.9062 11.9531C23.9062 5.35547 18.5508 0 11.9531 0C5.35547 0 0 5.35547 0 11.9531C0 18.5508 5.35547 23.9062 11.9531 23.9062ZM11.9531 21.9141C6.44531 21.9141 1.99219 17.4609 1.99219 11.9531C1.99219 6.44531 6.44531 1.99219 11.9531 1.99219C17.4609 1.99219 21.9141 6.44531 21.9141 11.9531C21.9141 17.4609 17.4609 21.9141 11.9531 21.9141Z" fill="black" fill-opacity="0.85"/>
  <path d="M8.21484 16.9336C10.5469 16.9336 11.2383 14.3086 11.2383 11.9531C11.2383 9.59766 10.5469 6.97266 8.21484 6.97266C5.87109 6.97266 5.17969 9.59766 5.17969 11.9531C5.17969 14.3086 5.87109 16.9336 8.21484 16.9336ZM8.21484 15.5391C7.25391 15.5391 6.89062 13.9805 6.89062 11.9531C6.89062 9.91406 7.25391 8.35547 8.21484 8.35547C9.16406 8.35547 9.52734 9.91406 9.52734 11.9531C9.52734 13.9805 9.16406 15.5391 8.21484 15.5391ZM15.4453 16.8984C17.1211 16.8984 18.4102 15.8438 18.4102 14.0859C18.4102 12.6328 17.543 11.918 16.5586 11.8125L16.5586 11.7773C17.6133 11.4961 18.1406 10.5469 18.1406 9.5625C18.1406 7.94531 16.9219 7.01953 15.3984 7.01953C14.1914 7.01953 13.1367 7.69922 12.7969 8.74219C12.7383 8.96484 12.7148 9.17578 12.7148 9.375C12.7148 9.76172 12.9727 10.0664 13.4297 10.0664C13.8281 10.0664 14.0625 9.91406 14.1797 9.50391C14.3672 8.8125 14.7422 8.37891 15.3984 8.37891C16.1719 8.37891 16.5352 8.97656 16.5352 9.75C16.5352 10.6055 16.0664 11.2266 15.1875 11.2266L14.9062 11.2266C14.5078 11.2266 14.2617 11.4727 14.2617 11.8594C14.2617 12.2461 14.5195 12.4688 14.9062 12.4688L15.1992 12.4688C16.1953 12.4688 16.7461 13.0195 16.7461 14.0391C16.7461 14.8477 16.3125 15.5391 15.4453 15.5391C14.5898 15.5391 14.2148 14.9648 14.0625 14.4258C13.957 14.0508 13.6992 13.8516 13.3242 13.8516C12.8672 13.8516 12.5625 14.1328 12.5625 14.5898C12.5625 14.8008 12.5977 15.0117 12.6562 15.1992C12.9844 16.2891 14.1797 16.8984 15.4453 16.8984Z" fill="black" fill-opacity="0.85"/>
 </g>
</svg>
