<?xml version="1.0" encoding="UTF-8"?>
<!--Generator: Apple Native CoreSVG 360-->
<!DOCTYPE svg
PUBLIC "-//W3C//DTD SVG 1.1//EN"
       "http://www.w3.org/Graphics/SVG/1.1/DTD/svg11.dtd">
<svg version="1.1" xmlns="http://www.w3.org/2000/svg" xmlns:xlink="http://www.w3.org/1999/xlink" viewBox="0 0 21.9258 21.5742">
 <g>
  <rect height="21.5742" opacity="0" width="21.9258" x="0" y="0"/>
  <path d="M3.67969 21.5742L17.8945 21.5742C20.3555 21.5742 21.5742 20.3672 21.5742 17.9531L21.5742 3.63281C21.5742 1.21875 20.3555 0 17.8945 0L3.67969 0C1.23047 0 0 1.21875 0 3.63281L0 17.9531C0 20.3672 1.23047 21.5742 3.67969 21.5742ZM3.70312 19.6875C2.53125 19.6875 1.88672 19.0664 1.88672 17.8477L1.88672 3.73828C1.88672 2.51953 2.53125 1.88672 3.70312 1.88672L17.8711 1.88672C19.0312 1.88672 19.6875 2.51953 19.6875 3.73828L19.6875 17.8477C19.6875 19.0664 19.0312 19.6875 17.8711 19.6875Z" fill="black" fill-opacity="0.85"/>
  <path d="M7.06641 15.7734C9.39844 15.7734 10.1016 13.1484 10.1016 10.793C10.1016 8.4375 9.39844 5.8125 7.06641 5.8125C4.72266 5.8125 4.03125 8.4375 4.03125 10.793C4.03125 13.1484 4.72266 15.7734 7.06641 15.7734ZM7.06641 14.3789C6.10547 14.3789 5.74219 12.8203 5.74219 10.793C5.74219 8.75391 6.10547 7.19531 7.06641 7.19531C8.02734 7.19531 8.39062 8.75391 8.39062 10.793C8.39062 12.8203 8.02734 14.3789 7.06641 14.3789ZM14.2969 15.7383C15.9727 15.7383 17.2734 14.6836 17.2734 12.9258C17.2734 11.4727 16.3945 10.7578 15.4102 10.6523L15.4102 10.6172C16.4766 10.3359 16.9922 9.38672 16.9922 8.40234C16.9922 6.78516 15.7734 5.85938 14.25 5.85938C13.043 5.85938 11.9883 6.53906 11.6602 7.58203C11.5898 7.80469 11.5664 8.01562 11.5664 8.21484C11.5664 8.60156 11.8242 8.90625 12.2812 8.90625C12.6914 8.90625 12.9141 8.75391 13.0312 8.34375C13.2188 7.65234 13.5938 7.21875 14.25 7.21875C15.0234 7.21875 15.3984 7.81641 15.3984 8.58984C15.3984 9.44531 14.918 10.0664 14.0391 10.0664L13.7578 10.0664C13.3594 10.0664 13.1133 10.3125 13.1133 10.6992C13.1133 11.0859 13.3711 11.3086 13.7578 11.3086L14.0508 11.3086C15.0469 11.3086 15.5977 11.8594 15.5977 12.8789C15.5977 13.6875 15.1641 14.3789 14.2969 14.3789C13.4414 14.3789 13.0664 13.8047 12.9141 13.2656C12.8086 12.8906 12.5625 12.6914 12.1758 12.6914C11.7188 12.6914 11.4141 12.9727 11.4141 13.4297C11.4141 13.6406 11.4492 13.8516 11.5078 14.0391C11.8477 15.1289 13.0312 15.7383 14.2969 15.7383Z" fill="black" fill-opacity="0.85"/>
 </g>
</svg>
