<?xml version="1.0" encoding="UTF-8"?>
<!--Generator: Apple Native CoreSVG 360-->
<!DOCTYPE svg
PUBLIC "-//W3C//DTD SVG 1.1//EN"
       "http://www.w3.org/Graphics/SVG/1.1/DTD/svg11.dtd">
<svg version="1.1" xmlns="http://www.w3.org/2000/svg" xmlns:xlink="http://www.w3.org/1999/xlink" viewBox="0 0 24.2578 23.918">
 <g>
  <rect height="23.918" opacity="0" width="24.2578" x="0" y="0"/>
  <path d="M11.9531 23.9062C18.5508 23.9062 23.9062 18.5508 23.9062 11.9531C23.9062 5.35547 18.5508 0 11.9531 0C5.35547 0 0 5.35547 0 11.9531C0 18.5508 5.35547 23.9062 11.9531 23.9062ZM11.9531 21.9141C6.44531 21.9141 1.99219 17.4609 1.99219 11.9531C1.99219 6.44531 6.44531 1.99219 11.9531 1.99219C17.4609 1.99219 21.9141 6.44531 21.9141 11.9531C21.9141 17.4609 17.4609 21.9141 11.9531 21.9141Z" fill="black" fill-opacity="0.85"/>
  <path d="M8.20312 16.9336C10.5352 16.9336 11.2266 14.3086 11.2266 11.9531C11.2266 9.59766 10.5352 6.97266 8.20312 6.97266C5.85938 6.97266 5.16797 9.59766 5.16797 11.9531C5.16797 14.3086 5.85938 16.9336 8.20312 16.9336ZM8.20312 15.5391C7.24219 15.5391 6.87891 13.9805 6.87891 11.9531C6.87891 9.91406 7.24219 8.35547 8.20312 8.35547C9.15234 8.35547 9.51562 9.91406 9.51562 11.9531C9.51562 13.9805 9.15234 15.5391 8.20312 15.5391ZM16.8984 16.8398C17.332 16.8398 17.6953 16.5703 17.6953 16.0078L17.6953 14.8359L18.1172 14.8359C18.5625 14.8359 18.7852 14.543 18.7852 14.1445C18.7852 13.7695 18.5859 13.4766 18.1172 13.4766L17.6953 13.4766L17.6953 8.33203C17.6953 7.52344 17.168 7.06641 16.4062 7.06641C15.5742 7.06641 15.1875 7.48828 14.8594 8.21484L12.7617 12.7617C12.5742 13.2188 12.5039 13.5234 12.5039 13.8867C12.5039 14.4492 12.8906 14.8359 13.4648 14.8359L16.0898 14.8359L16.0898 16.0078C16.0898 16.6289 16.5234 16.8398 16.8984 16.8398ZM16.125 13.5117L13.9453 13.5117L13.9453 13.4297L16.0781 8.54297L16.125 8.54297Z" fill="black" fill-opacity="0.85"/>
 </g>
</svg>
