<?xml version="1.0" encoding="UTF-8"?>
<!--Generator: Apple Native CoreSVG 360-->
<!DOCTYPE svg
PUBLIC "-//W3C//DTD SVG 1.1//EN"
       "http://www.w3.org/Graphics/SVG/1.1/DTD/svg11.dtd">
<svg version="1.1" xmlns="http://www.w3.org/2000/svg" xmlns:xlink="http://www.w3.org/1999/xlink" viewBox="0 0 21.9258 21.5742">
 <g>
  <rect height="21.5742" opacity="0" width="21.9258" x="0" y="0"/>
  <path d="M3.67969 21.5742L17.8945 21.5742C20.3555 21.5742 21.5742 20.3672 21.5742 17.9531L21.5742 3.63281C21.5742 1.21875 20.3555 0 17.8945 0L3.67969 0C1.23047 0 0 1.21875 0 3.63281L0 17.9531C0 20.3672 1.23047 21.5742 3.67969 21.5742ZM3.70312 19.6875C2.53125 19.6875 1.88672 19.0664 1.88672 17.8477L1.88672 3.73828C1.88672 2.51953 2.53125 1.88672 3.70312 1.88672L17.8711 1.88672C19.0312 1.88672 19.6875 2.51953 19.6875 3.73828L19.6875 17.8477C19.6875 19.0664 19.0312 19.6875 17.8711 19.6875Z" fill="black" fill-opacity="0.85"/>
  <path d="M7.05469 15.7734C9.38672 15.7734 10.0781 13.1484 10.0781 10.793C10.0781 8.4375 9.38672 5.8125 7.05469 5.8125C4.71094 5.8125 4.01953 8.4375 4.01953 10.793C4.01953 13.1484 4.71094 15.7734 7.05469 15.7734ZM7.05469 14.3789C6.09375 14.3789 5.73047 12.8203 5.73047 10.793C5.73047 8.75391 6.09375 7.19531 7.05469 7.19531C8.01562 7.19531 8.37891 8.75391 8.37891 10.793C8.37891 12.8203 8.01562 14.3789 7.05469 14.3789ZM15.75 15.6797C16.1953 15.6797 16.5469 15.4102 16.5469 14.8477L16.5469 13.6758L16.9688 13.6758C17.4258 13.6758 17.6367 13.3828 17.6367 12.9844C17.6367 12.6094 17.4375 12.3164 16.9688 12.3164L16.5469 12.3164L16.5469 7.17188C16.5469 6.36328 16.0195 5.90625 15.2578 5.90625C14.4258 5.90625 14.0391 6.32812 13.7109 7.05469L11.6133 11.6016C11.4258 12.0586 11.3555 12.3633 11.3555 12.7266C11.3555 13.2891 11.7422 13.6758 12.3164 13.6758L14.9414 13.6758L14.9414 14.8477C14.9414 15.4688 15.375 15.6797 15.75 15.6797ZM14.9766 12.3516L12.7969 12.3516L12.7969 12.2695L14.9297 7.38281L14.9766 7.38281Z" fill="black" fill-opacity="0.85"/>
 </g>
</svg>
