<?xml version="1.0" encoding="UTF-8"?>
<!--Generator: Apple Native CoreSVG 360-->
<!DOCTYPE svg
PUBLIC "-//W3C//DTD SVG 1.1//EN"
       "http://www.w3.org/Graphics/SVG/1.1/DTD/svg11.dtd">
<svg version="1.1" xmlns="http://www.w3.org/2000/svg" xmlns:xlink="http://www.w3.org/1999/xlink" viewBox="0 0 21.9258 21.5742">
 <g>
  <rect height="21.5742" opacity="0" width="21.9258" x="0" y="0"/>
  <path d="M3.67969 21.5742L17.8945 21.5742C20.3555 21.5742 21.5742 20.3672 21.5742 17.9531L21.5742 3.63281C21.5742 1.21875 20.3555 0 17.8945 0L3.67969 0C1.23047 0 0 1.21875 0 3.63281L0 17.9531C0 20.3672 1.23047 21.5742 3.67969 21.5742ZM3.70312 19.6875C2.53125 19.6875 1.88672 19.0664 1.88672 17.8477L1.88672 3.73828C1.88672 2.51953 2.53125 1.88672 3.70312 1.88672L17.8711 1.88672C19.0312 1.88672 19.6875 2.51953 19.6875 3.73828L19.6875 17.8477C19.6875 19.0664 19.0312 19.6875 17.8711 19.6875Z" fill="black" fill-opacity="0.85"/>
  <path d="M7.125 15.7734C9.45703 15.7734 10.1602 13.1484 10.1602 10.793C10.1602 8.4375 9.45703 5.8125 7.125 5.8125C4.79297 5.8125 4.08984 8.4375 4.08984 10.793C4.08984 13.1484 4.79297 15.7734 7.125 15.7734ZM7.125 14.3789C6.16406 14.3789 5.80078 12.8203 5.80078 10.793C5.80078 8.75391 6.16406 7.19531 7.125 7.19531C8.08594 7.19531 8.44922 8.75391 8.44922 10.793C8.44922 12.8203 8.08594 14.3789 7.125 14.3789ZM14.3672 15.7734C16.1953 15.7734 17.1914 14.2383 17.1914 12.3867C17.1914 10.7695 16.418 9.29297 14.9062 9.29297C14.2266 9.29297 13.582 9.60938 13.2773 10.2891L13.2305 10.2891L13.418 7.44141L16.1719 7.44141C16.582 7.44141 16.8281 7.16016 16.8281 6.75C16.8281 6.36328 16.5586 6.05859 16.1719 6.05859L12.9492 6.05859C12.3398 6.05859 12.0586 6.45703 12.0234 7.06641L11.8359 10.2773C11.8125 10.4531 11.8125 10.6406 11.8125 10.793C11.8125 11.2383 12.0352 11.6367 12.5859 11.6367C12.9023 11.6367 13.0781 11.5078 13.3242 11.1914C13.5938 10.8047 13.8867 10.5234 14.3672 10.5234C15.2227 10.5234 15.5625 11.5664 15.5625 12.4336C15.5625 13.4062 15.2109 14.4023 14.3438 14.4023C13.6875 14.4023 13.3125 13.9336 13.1016 13.2891C12.9609 12.9141 12.7031 12.7383 12.3867 12.7383C11.9648 12.7383 11.6836 13.0078 11.6836 13.4414C11.6836 13.7109 11.7539 13.9688 11.8594 14.2031C12.2695 15.1523 13.3008 15.7734 14.3672 15.7734Z" fill="black" fill-opacity="0.85"/>
 </g>
</svg>
