<?xml version="1.0" encoding="UTF-8"?>
<!--Generator: Apple Native CoreSVG 360-->
<!DOCTYPE svg
PUBLIC "-//W3C//DTD SVG 1.1//EN"
       "http://www.w3.org/Graphics/SVG/1.1/DTD/svg11.dtd">
<svg version="1.1" xmlns="http://www.w3.org/2000/svg" xmlns:xlink="http://www.w3.org/1999/xlink" viewBox="0 0 21.9258 21.5742">
 <g>
  <rect height="21.5742" opacity="0" width="21.9258" x="0" y="0"/>
  <path d="M3.67969 21.5742L17.8945 21.5742C20.3555 21.5742 21.5742 20.3672 21.5742 17.9531L21.5742 3.63281C21.5742 1.21875 20.3555 0 17.8945 0L3.67969 0C1.23047 0 0 1.21875 0 3.63281L0 17.9531C0 20.3672 1.23047 21.5742 3.67969 21.5742ZM3.70312 19.6875C2.53125 19.6875 1.88672 19.0664 1.88672 17.8477L1.88672 3.73828C1.88672 2.51953 2.53125 1.88672 3.70312 1.88672L17.8711 1.88672C19.0312 1.88672 19.6875 2.51953 19.6875 3.73828L19.6875 17.8477C19.6875 19.0664 19.0312 19.6875 17.8711 19.6875Z" fill="black" fill-opacity="0.85"/>
  <path d="M6.9375 15.7734C9.26953 15.7734 9.97266 13.1484 9.97266 10.793C9.97266 8.4375 9.26953 5.8125 6.9375 5.8125C4.60547 5.8125 3.90234 8.4375 3.90234 10.793C3.90234 13.1484 4.60547 15.7734 6.9375 15.7734ZM6.9375 14.3789C5.97656 14.3789 5.61328 12.8203 5.61328 10.793C5.61328 8.75391 5.97656 7.19531 6.9375 7.19531C7.89844 7.19531 8.26172 8.75391 8.26172 10.793C8.26172 12.8203 7.89844 14.3789 6.9375 14.3789ZM14.4258 15.7734C16.207 15.7734 17.2383 14.2734 17.2383 12.4336C17.2383 10.8516 16.4766 9.35156 14.918 9.35156C13.9688 9.35156 13.2539 9.98438 12.9844 10.9922L12.9375 10.9922C12.9375 10.9453 12.9375 10.8984 12.9375 10.8633C12.9375 9.5625 13.1016 7.20703 14.4023 7.20703C14.9297 7.20703 15.293 7.58203 15.4922 8.07422C15.6562 8.4375 15.8789 8.60156 16.2539 8.60156C16.7344 8.60156 16.9336 8.28516 16.9336 7.89844C16.9336 7.76953 16.9102 7.62891 16.875 7.47656C16.6289 6.46875 15.6094 5.83594 14.4375 5.83594C12.0352 5.83594 11.332 8.53125 11.332 10.9102C11.332 13.125 12.0469 15.7734 14.4258 15.7734ZM14.4023 14.4023C13.5117 14.4023 13.1602 13.3008 13.1602 12.457C13.1602 11.6016 13.5469 10.6289 14.3906 10.6289C15.2578 10.6289 15.6211 11.6367 15.5977 12.5039C15.5977 13.3594 15.2109 14.4023 14.4023 14.4023Z" fill="black" fill-opacity="0.85"/>
 </g>
</svg>
