<?xml version="1.0" encoding="UTF-8"?>
<!--Generator: Apple Native CoreSVG 360-->
<!DOCTYPE svg
PUBLIC "-//W3C//DTD SVG 1.1//EN"
       "http://www.w3.org/Graphics/SVG/1.1/DTD/svg11.dtd">
<svg version="1.1" xmlns="http://www.w3.org/2000/svg" xmlns:xlink="http://www.w3.org/1999/xlink" viewBox="0 0 21.9258 21.5742">
 <g>
  <rect height="21.5742" opacity="0" width="21.9258" x="0" y="0"/>
  <path d="M3.67969 21.5742L17.8945 21.5742C20.3555 21.5742 21.5742 20.3672 21.5742 17.9531L21.5742 3.63281C21.5742 1.21875 20.3555 0 17.8945 0L3.67969 0C1.23047 0 0 1.21875 0 3.63281L0 17.9531C0 20.3672 1.23047 21.5742 3.67969 21.5742ZM3.70312 19.6875C2.53125 19.6875 1.88672 19.0664 1.88672 17.8477L1.88672 3.73828C1.88672 2.51953 2.53125 1.88672 3.70312 1.88672L17.8711 1.88672C19.0312 1.88672 19.6875 2.51953 19.6875 3.73828L19.6875 17.8477C19.6875 19.0664 19.0312 19.6875 17.8711 19.6875Z" fill="black" fill-opacity="0.85"/>
  <path d="M7.53516 15.7734C9.86719 15.7734 10.5703 13.1484 10.5703 10.793C10.5703 8.4375 9.86719 5.8125 7.53516 5.8125C5.20312 5.8125 4.5 8.4375 4.5 10.793C4.5 13.1484 5.20312 15.7734 7.53516 15.7734ZM7.53516 14.3789C6.57422 14.3789 6.21094 12.8203 6.21094 10.793C6.21094 8.75391 6.57422 7.19531 7.53516 7.19531C8.49609 7.19531 8.85938 8.75391 8.85938 10.793C8.85938 12.8203 8.49609 14.3789 7.53516 14.3789ZM13.2422 15.6914C13.6641 15.6914 13.8633 15.5156 14.0156 15.0938L16.6992 7.94531C16.8281 7.58203 16.9102 7.30078 16.9102 6.96094C16.9102 6.42188 16.5 6.05859 15.9844 6.05859L12.1992 6.05859C11.7891 6.05859 11.5195 6.35156 11.5195 6.75C11.5195 7.14844 11.7891 7.44141 12.1992 7.44141L15.2109 7.44141L15.2109 7.54688L12.6094 14.2734C12.5039 14.5312 12.4688 14.6836 12.4688 14.9648C12.4688 15.3047 12.6797 15.6914 13.2422 15.6914Z" fill="black" fill-opacity="0.85"/>
 </g>
</svg>
