<?xml version="1.0" encoding="UTF-8"?>
<!--Generator: Apple Native CoreSVG 360-->
<!DOCTYPE svg
PUBLIC "-//W3C//DTD SVG 1.1//EN"
       "http://www.w3.org/Graphics/SVG/1.1/DTD/svg11.dtd">
<svg version="1.1" xmlns="http://www.w3.org/2000/svg" xmlns:xlink="http://www.w3.org/1999/xlink" viewBox="0 0 24.2578 23.918">
 <g>
  <rect height="23.918" opacity="0" width="24.2578" x="0" y="0"/>
  <path d="M11.9531 23.9062C18.5508 23.9062 23.9062 18.5508 23.9062 11.9531C23.9062 5.35547 18.5508 0 11.9531 0C5.35547 0 0 5.35547 0 11.9531C0 18.5508 5.35547 23.9062 11.9531 23.9062ZM11.9531 21.9141C6.44531 21.9141 1.99219 17.4609 1.99219 11.9531C1.99219 6.44531 6.44531 1.99219 11.9531 1.99219C17.4609 1.99219 21.9141 6.44531 21.9141 11.9531C21.9141 17.4609 17.4609 21.9141 11.9531 21.9141Z" fill="black" fill-opacity="0.85"/>
  <path d="M8.22656 16.9336C10.5586 16.9336 11.2617 14.3086 11.2617 11.9531C11.2617 9.59766 10.5586 6.97266 8.22656 6.97266C5.89453 6.97266 5.19141 9.59766 5.19141 11.9531C5.19141 14.3086 5.89453 16.9336 8.22656 16.9336ZM8.22656 15.5391C7.26562 15.5391 6.90234 13.9805 6.90234 11.9531C6.90234 9.91406 7.26562 8.35547 8.22656 8.35547C9.1875 8.35547 9.55078 9.91406 9.55078 11.9531C9.55078 13.9805 9.1875 15.5391 8.22656 15.5391ZM15.6328 16.8984C17.4961 16.8984 18.6797 15.7383 18.6797 14.1328C18.6797 12.8555 17.8711 11.9297 16.9336 11.7188L16.9336 11.6836C17.7188 11.4375 18.4219 10.6758 18.4219 9.5625C18.4219 8.05078 17.2969 7.01953 15.6328 7.01953C14.1914 7.01953 12.8789 7.91016 12.8789 9.55078C12.8789 10.7461 13.6172 11.4492 14.3789 11.6836L14.3789 11.7188C13.3711 11.9414 12.6094 12.8672 12.6094 14.1328C12.6094 15.8672 13.9219 16.8984 15.6328 16.8984ZM15.6445 11.1445C14.8945 11.1445 14.5078 10.418 14.5078 9.72656C14.5078 8.97656 14.918 8.27344 15.6445 8.27344C16.4062 8.27344 16.7695 8.97656 16.7695 9.72656C16.7695 10.5 16.3828 11.1445 15.6445 11.1445ZM15.6445 15.6328C14.7891 15.6328 14.3672 14.8711 14.3672 14.0039C14.3672 13.1602 14.7891 12.4102 15.6445 12.4102C16.4766 12.4102 16.9219 13.1133 16.9219 14.0039C16.9219 14.8711 16.5 15.6328 15.6445 15.6328Z" fill="black" fill-opacity="0.85"/>
 </g>
</svg>
