<?xml version="1.0" encoding="UTF-8"?>
<!--Generator: Apple Native CoreSVG 360-->
<!DOCTYPE svg
PUBLIC "-//W3C//DTD SVG 1.1//EN"
       "http://www.w3.org/Graphics/SVG/1.1/DTD/svg11.dtd">
<svg version="1.1" xmlns="http://www.w3.org/2000/svg" xmlns:xlink="http://www.w3.org/1999/xlink" viewBox="0 0 21.9258 21.5742">
 <g>
  <rect height="21.5742" opacity="0" width="21.9258" x="0" y="0"/>
  <path d="M3.67969 21.5742L17.8945 21.5742C20.3555 21.5742 21.5742 20.3672 21.5742 17.9531L21.5742 3.63281C21.5742 1.21875 20.3555 0 17.8945 0L3.67969 0C1.23047 0 0 1.21875 0 3.63281L0 17.9531C0 20.3672 1.23047 21.5742 3.67969 21.5742ZM3.70312 19.6875C2.53125 19.6875 1.88672 19.0664 1.88672 17.8477L1.88672 3.73828C1.88672 2.51953 2.53125 1.88672 3.70312 1.88672L17.8711 1.88672C19.0312 1.88672 19.6875 2.51953 19.6875 3.73828L19.6875 17.8477C19.6875 19.0664 19.0312 19.6875 17.8711 19.6875Z" fill="black" fill-opacity="0.85"/>
  <path d="M7.07812 15.7734C9.41016 15.7734 10.1133 13.1484 10.1133 10.793C10.1133 8.4375 9.41016 5.8125 7.07812 5.8125C4.74609 5.8125 4.04297 8.4375 4.04297 10.793C4.04297 13.1484 4.74609 15.7734 7.07812 15.7734ZM7.07812 14.3789C6.11719 14.3789 5.75391 12.8203 5.75391 10.793C5.75391 8.75391 6.11719 7.19531 7.07812 7.19531C8.03906 7.19531 8.40234 8.75391 8.40234 10.793C8.40234 12.8203 8.03906 14.3789 7.07812 14.3789ZM14.4961 15.7383C16.3477 15.7383 17.5312 14.5781 17.5312 12.9727C17.5312 11.6953 16.7227 10.7695 15.7852 10.5586L15.7852 10.5234C16.5703 10.2773 17.2734 9.51562 17.2734 8.40234C17.2734 6.89062 16.1484 5.85938 14.4961 5.85938C13.043 5.85938 11.7305 6.75 11.7305 8.39062C11.7305 9.58594 12.4805 10.2891 13.2305 10.5234L13.2305 10.5586C12.2227 10.7812 11.4609 11.707 11.4609 12.9727C11.4609 14.707 12.7734 15.7383 14.4961 15.7383ZM14.4961 9.98438C13.7461 9.98438 13.3594 9.25781 13.3594 8.56641C13.3594 7.81641 13.7695 7.11328 14.4961 7.11328C15.2578 7.11328 15.6211 7.81641 15.6211 8.56641C15.6211 9.33984 15.2344 9.98438 14.4961 9.98438ZM14.4961 14.4727C13.6406 14.4727 13.2188 13.7109 13.2188 12.8438C13.2188 12 13.6523 11.25 14.4961 11.25C15.3281 11.25 15.7734 11.9531 15.7734 12.8438C15.7734 13.7109 15.3516 14.4727 14.4961 14.4727Z" fill="black" fill-opacity="0.85"/>
 </g>
</svg>
