<?xml version="1.0" encoding="UTF-8"?>
<!--Generator: Apple Native CoreSVG 360-->
<!DOCTYPE svg
PUBLIC "-//W3C//DTD SVG 1.1//EN"
       "http://www.w3.org/Graphics/SVG/1.1/DTD/svg11.dtd">
<svg version="1.1" xmlns="http://www.w3.org/2000/svg" xmlns:xlink="http://www.w3.org/1999/xlink" viewBox="0 0 21.9258 21.5742">
 <g>
  <rect height="21.5742" opacity="0" width="21.9258" x="0" y="0"/>
  <path d="M3.67969 21.5742L17.8945 21.5742C20.3555 21.5742 21.5742 20.3672 21.5742 17.9531L21.5742 3.63281C21.5742 1.21875 20.3555 0 17.8945 0L3.67969 0C1.23047 0 0 1.21875 0 3.63281L0 17.9531C0 20.3672 1.23047 21.5742 3.67969 21.5742ZM3.70312 19.6875C2.53125 19.6875 1.88672 19.0664 1.88672 17.8477L1.88672 3.73828C1.88672 2.51953 2.53125 1.88672 3.70312 1.88672L17.8711 1.88672C19.0312 1.88672 19.6875 2.51953 19.6875 3.73828L19.6875 17.8477C19.6875 19.0664 19.0312 19.6875 17.8711 19.6875Z" fill="black" fill-opacity="0.85"/>
  <path d="M7.14844 15.7734C9.48047 15.7734 10.1836 13.1484 10.1836 10.793C10.1836 8.4375 9.48047 5.8125 7.14844 5.8125C4.81641 5.8125 4.11328 8.4375 4.11328 10.793C4.11328 13.1484 4.81641 15.7734 7.14844 15.7734ZM7.14844 14.3789C6.1875 14.3789 5.82422 12.8203 5.82422 10.793C5.82422 8.75391 6.1875 7.19531 7.14844 7.19531C8.10938 7.19531 8.47266 8.75391 8.47266 10.793C8.47266 12.8203 8.10938 14.3789 7.14844 14.3789ZM13.8047 12.2578C14.7656 12.2578 15.4805 11.625 15.75 10.6172L15.7969 10.6172C15.7969 10.6641 15.7969 10.7109 15.7969 10.7461C15.7969 12.0469 15.6328 14.3906 14.3203 14.3906C13.793 14.3906 13.4414 14.0273 13.2305 13.5234C13.0547 13.1367 12.832 12.9844 12.4805 12.9844C11.9883 12.9844 11.7773 13.3125 11.7773 13.6992C11.7773 13.8398 11.8125 13.9805 11.8477 14.1211C12.0938 15.1406 13.1133 15.7617 14.2852 15.7617C16.6875 15.7617 17.3906 13.1016 17.3906 10.6992C17.3906 8.48438 16.6875 5.83594 14.3086 5.83594C12.5273 5.83594 11.4961 7.33594 11.4961 9.17578C11.4961 10.7578 12.2578 12.2578 13.8047 12.2578ZM14.332 10.9688C13.4648 10.9688 13.1133 9.97266 13.1133 9.10547C13.1133 8.22656 13.5117 7.19531 14.332 7.19531C15.2109 7.19531 15.5742 8.22656 15.5742 9.10547C15.5742 10.0078 15.1758 10.9688 14.332 10.9688Z" fill="black" fill-opacity="0.85"/>
 </g>
</svg>
