<?xml version="1.0" encoding="UTF-8"?>
<!--Generator: Apple Native CoreSVG 360-->
<!DOCTYPE svg
PUBLIC "-//W3C//DTD SVG 1.1//EN"
       "http://www.w3.org/Graphics/SVG/1.1/DTD/svg11.dtd">
<svg version="1.1" xmlns="http://www.w3.org/2000/svg" xmlns:xlink="http://www.w3.org/1999/xlink" viewBox="0 0 23.707 21.5977">
 <g>
  <rect height="21.5977" opacity="0" width="23.707" x="0" y="0"/>
  <path d="M3.67969 21.5977L19.6875 21.5977C22.1367 21.5977 23.3555 20.3789 23.3555 17.9648L23.3555 3.65625C23.3555 1.24219 22.1367 0.0234375 19.6875 0.0234375L3.67969 0.0234375C1.23047 0.0234375 0 1.23047 0 3.65625L0 17.9648C0 20.3906 1.23047 21.5977 3.67969 21.5977ZM3.50391 19.7109C2.46094 19.7109 1.88672 19.1602 1.88672 18.0703L1.88672 7.01953C1.88672 5.94141 2.46094 5.37891 3.50391 5.37891L19.8398 5.37891C20.8828 5.37891 21.4688 5.94141 21.4688 7.01953L21.4688 18.0703C21.4688 19.1602 20.8828 19.7109 19.8398 19.7109Z" fill="black" fill-opacity="0.85"/>
  <path d="M12.2578 17.6953C12.8086 17.6953 13.125 17.332 13.125 16.7227L13.125 8.37891C13.125 7.75781 12.7969 7.40625 12.2109 7.40625C11.8125 7.40625 11.5312 7.51172 11.0742 7.82812L9.12891 9.15234C8.89453 9.31641 8.78906 9.48047 8.78906 9.76172C8.78906 10.0898 9.05859 10.3945 9.41016 10.3945C9.5625 10.3945 9.67969 10.3711 9.92578 10.207L11.332 9.28125L11.4023 9.28125L11.4023 16.7227C11.4023 17.332 11.7188 17.6953 12.2578 17.6953Z" fill="black" fill-opacity="0.85"/>
 </g>
</svg>
