<?xml version="1.0" encoding="UTF-8"?>
<!--Generator: Apple Native CoreSVG 360-->
<!DOCTYPE svg
PUBLIC "-//W3C//DTD SVG 1.1//EN"
       "http://www.w3.org/Graphics/SVG/1.1/DTD/svg11.dtd">
<svg version="1.1" xmlns="http://www.w3.org/2000/svg" xmlns:xlink="http://www.w3.org/1999/xlink" viewBox="0 0 24.2578 23.918">
 <g>
  <rect height="23.918" opacity="0" width="24.2578" x="0" y="0"/>
  <path d="M11.9531 23.9062C18.5508 23.9062 23.9062 18.5508 23.9062 11.9531C23.9062 5.35547 18.5508 0 11.9531 0C5.35547 0 0 5.35547 0 11.9531C0 18.5508 5.35547 23.9062 11.9531 23.9062ZM11.9531 21.9141C6.44531 21.9141 1.99219 17.4609 1.99219 11.9531C1.99219 6.44531 6.44531 1.99219 11.9531 1.99219C17.4609 1.99219 21.9141 6.44531 21.9141 11.9531C21.9141 17.4609 17.4609 21.9141 11.9531 21.9141Z" fill="black" fill-opacity="0.85"/>
  <path d="M12.5508 17.5312C13.1484 17.5312 13.4883 17.1328 13.4883 16.4766L13.4883 7.42969C13.4883 6.75 13.125 6.375 12.5039 6.375C12.0703 6.375 11.7656 6.49219 11.2617 6.83203L9.15234 8.26172C8.89453 8.4375 8.78906 8.625 8.78906 8.91797C8.78906 9.28125 9.08203 9.62109 9.45703 9.62109C9.63281 9.62109 9.76172 9.58594 10.0312 9.41016L11.543 8.41406L11.625 8.41406L11.625 16.4766C11.625 17.1328 11.9648 17.5312 12.5508 17.5312Z" fill="black" fill-opacity="0.85"/>
 </g>
</svg>
