<?xml version="1.0" encoding="UTF-8"?>
<!--Generator: Apple Native CoreSVG 360-->
<!DOCTYPE svg
PUBLIC "-//W3C//DTD SVG 1.1//EN"
       "http://www.w3.org/Graphics/SVG/1.1/DTD/svg11.dtd">
<svg version="1.1" xmlns="http://www.w3.org/2000/svg" xmlns:xlink="http://www.w3.org/1999/xlink" viewBox="0 0 21.9258 17.6836">
 <g>
  <rect height="17.6836" opacity="0" width="21.9258" x="0" y="0"/>
  <path d="M0 16.7344C0 17.25 0.421875 17.6836 0.9375 17.6836C1.46484 17.6836 1.88672 17.25 1.88672 16.7344L1.88672 0.960938C1.88672 0.445312 1.46484 0.0234375 0.9375 0.0234375C0.421875 0.0234375 0 0.445312 0 0.960938ZM19.6875 16.7344C19.6875 17.25 20.1211 17.6836 20.6367 17.6836C21.1523 17.6836 21.5742 17.25 21.5742 16.7344L21.5742 0.960938C21.5742 0.445312 21.1523 0.0234375 20.6367 0.0234375C20.1211 0.0234375 19.6875 0.445312 19.6875 0.960938Z" fill="black" fill-opacity="0.85"/>
  <path d="M11.3672 14.3203C11.9414 14.3203 12.293 13.9102 12.293 13.3359L12.293 4.91016C12.293 4.24219 11.8828 3.86719 11.2266 3.86719C10.6992 3.86719 10.3125 4.08984 9.89062 4.41797L8.37891 5.53125C8.12109 5.73047 7.95703 5.95312 7.95703 6.28125C7.95703 6.65625 8.23828 6.96094 8.625 6.96094C8.8125 6.96094 8.94141 6.90234 9.09375 6.78516L10.418 5.78906L10.4414 5.78906L10.4414 13.3359C10.4414 13.9219 10.793 14.3203 11.3672 14.3203Z" fill="black" fill-opacity="0.85"/>
 </g>
</svg>
