<?xml version="1.0" encoding="UTF-8"?>
<!--Generator: Apple Native CoreSVG 360-->
<!DOCTYPE svg
PUBLIC "-//W3C//DTD SVG 1.1//EN"
       "http://www.w3.org/Graphics/SVG/1.1/DTD/svg11.dtd">
<svg version="1.1" xmlns="http://www.w3.org/2000/svg" xmlns:xlink="http://www.w3.org/1999/xlink" viewBox="0 0 21.9258 21.5742">
 <g>
  <rect height="21.5742" opacity="0" width="21.9258" x="0" y="0"/>
  <path d="M3.67969 21.5742L17.8945 21.5742C20.3555 21.5742 21.5742 20.3672 21.5742 17.9531L21.5742 3.63281C21.5742 1.21875 20.3555 0 17.8945 0L3.67969 0C1.23047 0 0 1.21875 0 3.63281L0 17.9531C0 20.3672 1.23047 21.5742 3.67969 21.5742ZM3.70312 19.6875C2.53125 19.6875 1.88672 19.0664 1.88672 17.8477L1.88672 3.73828C1.88672 2.51953 2.53125 1.88672 3.70312 1.88672L17.8711 1.88672C19.0312 1.88672 19.6875 2.51953 19.6875 3.73828L19.6875 17.8477C19.6875 19.0664 19.0312 19.6875 17.8711 19.6875Z" fill="black" fill-opacity="0.85"/>
  <path d="M11.4023 16.3711C12 16.3711 12.3516 15.9727 12.3516 15.3164L12.3516 6.26953C12.3516 5.58984 11.9883 5.21484 11.3555 5.21484C10.9219 5.21484 10.6172 5.33203 10.1133 5.67188L8.00391 7.10156C7.74609 7.27734 7.64062 7.46484 7.64062 7.75781C7.64062 8.12109 7.93359 8.46094 8.30859 8.46094C8.48438 8.46094 8.61328 8.42578 8.88281 8.25L10.3945 7.25391L10.4766 7.25391L10.4766 15.3164C10.4766 15.9727 10.8164 16.3711 11.4023 16.3711Z" fill="black" fill-opacity="0.85"/>
 </g>
</svg>
