<?xml version="1.0" encoding="UTF-8"?>
<!--Generator: Apple Native CoreSVG 360-->
<!DOCTYPE svg
PUBLIC "-//W3C//DTD SVG 1.1//EN"
       "http://www.w3.org/Graphics/SVG/1.1/DTD/svg11.dtd">
<svg version="1.1" xmlns="http://www.w3.org/2000/svg" xmlns:xlink="http://www.w3.org/1999/xlink" viewBox="0 0 24.2578 23.918">
 <g>
  <rect height="23.918" opacity="0" width="24.2578" x="0" y="0"/>
  <path d="M11.9531 23.9062C18.5508 23.9062 23.9062 18.5508 23.9062 11.9531C23.9062 5.35547 18.5508 0 11.9531 0C5.35547 0 0 5.35547 0 11.9531C0 18.5508 5.35547 23.9062 11.9531 23.9062ZM11.9531 21.9141C6.44531 21.9141 1.99219 17.4609 1.99219 11.9531C1.99219 6.44531 6.44531 1.99219 11.9531 1.99219C17.4609 1.99219 21.9141 6.44531 21.9141 11.9531C21.9141 17.4609 17.4609 21.9141 11.9531 21.9141Z" fill="black" fill-opacity="0.85"/>
  <path d="M8.84766 16.8164C9.30469 16.8164 9.69141 16.4297 9.69141 15.9609L9.69141 8.01562C9.69141 7.41797 9.31641 7.06641 8.71875 7.06641C8.22656 7.06641 7.82812 7.33594 7.54688 7.54688L6.25781 8.54297C6.05859 8.70703 5.89453 8.92969 5.89453 9.23438C5.89453 9.59766 6.14062 9.85547 6.49219 9.85547C6.67969 9.85547 6.79688 9.79688 6.91406 9.71484L7.99219 8.84766L7.99219 15.9609C7.99219 16.4297 8.37891 16.8164 8.84766 16.8164ZM14.5898 16.9336C16.9219 16.9336 17.625 14.3086 17.625 11.9531C17.625 9.59766 16.9219 6.97266 14.5898 6.97266C12.2578 6.97266 11.5547 9.59766 11.5547 11.9531C11.5547 14.3086 12.2578 16.9336 14.5898 16.9336ZM14.5898 15.5391C13.6289 15.5391 13.2656 13.9805 13.2656 11.9531C13.2656 9.91406 13.6289 8.35547 14.5898 8.35547C15.5508 8.35547 15.9141 9.91406 15.9141 11.9531C15.9141 13.9805 15.5508 15.5391 14.5898 15.5391Z" fill="black" fill-opacity="0.85"/>
 </g>
</svg>
