<?xml version="1.0" encoding="UTF-8"?>
<!--Generator: Apple Native CoreSVG 360-->
<!DOCTYPE svg
PUBLIC "-//W3C//DTD SVG 1.1//EN"
       "http://www.w3.org/Graphics/SVG/1.1/DTD/svg11.dtd">
<svg version="1.1" xmlns="http://www.w3.org/2000/svg" xmlns:xlink="http://www.w3.org/1999/xlink" viewBox="0 0 23.707 21.5977">
 <g>
  <rect height="21.5977" opacity="0" width="23.707" x="0" y="0"/>
  <path d="M3.67969 21.5977L19.6875 21.5977C22.1367 21.5977 23.3555 20.3789 23.3555 17.9648L23.3555 3.65625C23.3555 1.24219 22.1367 0.0234375 19.6875 0.0234375L3.67969 0.0234375C1.23047 0.0234375 0 1.23047 0 3.65625L0 17.9648C0 20.3906 1.23047 21.5977 3.67969 21.5977ZM3.50391 19.7109C2.46094 19.7109 1.88672 19.1602 1.88672 18.0703L1.88672 7.01953C1.88672 5.94141 2.46094 5.37891 3.50391 5.37891L19.8398 5.37891C20.8828 5.37891 21.4688 5.94141 21.4688 7.01953L21.4688 18.0703C21.4688 19.1602 20.8828 19.7109 19.8398 19.7109Z" fill="black" fill-opacity="0.85"/>
  <path d="M8.58984 17.4141C9.05859 17.4141 9.44531 17.0273 9.44531 16.5469L9.44531 8.61328C9.44531 8.00391 9.07031 7.65234 8.46094 7.65234C7.96875 7.65234 7.57031 7.92188 7.30078 8.13281L6.01172 9.14062C5.80078 9.29297 5.63672 9.52734 5.63672 9.83203C5.63672 10.1953 5.88281 10.4531 6.23438 10.4531C6.42188 10.4531 6.53906 10.3945 6.65625 10.3008L7.73438 9.44531L7.73438 16.5469C7.73438 17.0273 8.12109 17.4141 8.58984 17.4141ZM14.332 17.5195C16.6641 17.5195 17.3672 14.9062 17.3672 12.5508C17.3672 10.1836 16.6641 7.57031 14.332 7.57031C12 7.57031 11.2969 10.1836 11.2969 12.5508C11.2969 14.9062 12 17.5195 14.332 17.5195ZM14.332 16.1367C13.3711 16.1367 13.0078 14.5781 13.0078 12.5508C13.0078 10.5117 13.3711 8.95312 14.332 8.95312C15.293 8.95312 15.6562 10.5117 15.6562 12.5508C15.6562 14.5781 15.293 16.1367 14.332 16.1367Z" fill="black" fill-opacity="0.85"/>
 </g>
</svg>
