<?xml version="1.0" encoding="UTF-8"?>
<!--Generator: Apple Native CoreSVG 360-->
<!DOCTYPE svg
PUBLIC "-//W3C//DTD SVG 1.1//EN"
       "http://www.w3.org/Graphics/SVG/1.1/DTD/svg11.dtd">
<svg version="1.1" xmlns="http://www.w3.org/2000/svg" xmlns:xlink="http://www.w3.org/1999/xlink" viewBox="0 0 21.9258 17.6836">
 <g>
  <rect height="17.6836" opacity="0" width="21.9258" x="0" y="0"/>
  <path d="M0 16.7344C0 17.25 0.421875 17.6836 0.9375 17.6836C1.46484 17.6836 1.88672 17.25 1.88672 16.7344L1.88672 0.960938C1.88672 0.445312 1.46484 0.0234375 0.9375 0.0234375C0.421875 0.0234375 0 0.445312 0 0.960938ZM19.6875 16.7344C19.6875 17.25 20.1211 17.6836 20.6367 17.6836C21.1523 17.6836 21.5742 17.25 21.5742 16.7344L21.5742 0.960938C21.5742 0.445312 21.1523 0.0234375 20.6367 0.0234375C20.1211 0.0234375 19.6875 0.445312 19.6875 0.960938Z" fill="black" fill-opacity="0.85"/>
  <path d="M7.48828 13.9336C8.02734 13.9336 8.35547 13.5586 8.35547 13.0195L8.35547 5.16797C8.35547 4.55859 7.96875 4.19531 7.34766 4.19531C6.85547 4.19531 6.50391 4.41797 6.10547 4.71094L4.69922 5.75391C4.46484 5.94141 4.3125 6.14062 4.3125 6.44531C4.3125 6.80859 4.57031 7.07812 4.92188 7.07812C5.09766 7.07812 5.22656 7.03125 5.36719 6.92578L6.59766 6L6.62109 6L6.62109 13.0195C6.62109 13.5586 6.94922 13.9336 7.48828 13.9336ZM13.7578 14.0273C16.207 14.0273 17.0742 11.5078 17.0742 9.04688C17.0742 6.60938 16.207 4.11328 13.7578 4.11328C11.3086 4.11328 10.4531 6.62109 10.4531 9.05859C10.4531 11.5195 11.3203 14.0273 13.7578 14.0273ZM13.7578 12.6211C12.7266 12.6211 12.1992 11.0859 12.1992 9.05859C12.1992 7.04297 12.7266 5.51953 13.7578 5.51953C14.8008 5.51953 15.3164 7.05469 15.3164 9.05859C15.3164 11.0859 14.8008 12.6211 13.7578 12.6211Z" fill="black" fill-opacity="0.85"/>
 </g>
</svg>
