<?xml version="1.0" encoding="UTF-8"?>
<!--Generator: Apple Native CoreSVG 360-->
<!DOCTYPE svg
PUBLIC "-//W3C//DTD SVG 1.1//EN"
       "http://www.w3.org/Graphics/SVG/1.1/DTD/svg11.dtd">
<svg version="1.1" xmlns="http://www.w3.org/2000/svg" xmlns:xlink="http://www.w3.org/1999/xlink" viewBox="0 0 21.9258 21.5742">
 <g>
  <rect height="21.5742" opacity="0" width="21.9258" x="0" y="0"/>
  <path d="M3.67969 21.5742L17.8945 21.5742C20.3555 21.5742 21.5742 20.3672 21.5742 17.9531L21.5742 3.63281C21.5742 1.21875 20.3555 0 17.8945 0L3.67969 0C1.23047 0 0 1.21875 0 3.63281L0 17.9531C0 20.3672 1.23047 21.5742 3.67969 21.5742ZM3.70312 19.6875C2.53125 19.6875 1.88672 19.0664 1.88672 17.8477L1.88672 3.73828C1.88672 2.51953 2.53125 1.88672 3.70312 1.88672L17.8711 1.88672C19.0312 1.88672 19.6875 2.51953 19.6875 3.73828L19.6875 17.8477C19.6875 19.0664 19.0312 19.6875 17.8711 19.6875Z" fill="black" fill-opacity="0.85"/>
  <path d="M7.69922 15.6562C8.16797 15.6562 8.55469 15.2695 8.55469 14.8008L8.55469 6.85547C8.55469 6.25781 8.17969 5.90625 7.57031 5.90625C7.07812 5.90625 6.67969 6.17578 6.39844 6.38672L5.10938 7.38281C4.91016 7.54688 4.74609 7.76953 4.74609 8.07422C4.74609 8.4375 4.99219 8.69531 5.34375 8.69531C5.53125 8.69531 5.64844 8.63672 5.76562 8.55469L6.84375 7.6875L6.84375 14.8008C6.84375 15.2695 7.23047 15.6562 7.69922 15.6562ZM13.4414 15.7734C15.7734 15.7734 16.4766 13.1484 16.4766 10.793C16.4766 8.4375 15.7734 5.8125 13.4414 5.8125C11.1094 5.8125 10.4062 8.4375 10.4062 10.793C10.4062 13.1484 11.1094 15.7734 13.4414 15.7734ZM13.4414 14.3789C12.4805 14.3789 12.1172 12.8203 12.1172 10.793C12.1172 8.75391 12.4805 7.19531 13.4414 7.19531C14.4023 7.19531 14.7656 8.75391 14.7656 10.793C14.7656 12.8203 14.4023 14.3789 13.4414 14.3789Z" fill="black" fill-opacity="0.85"/>
 </g>
</svg>
