<?xml version="1.0" encoding="UTF-8"?>
<!--Generator: Apple Native CoreSVG 360-->
<!DOCTYPE svg
PUBLIC "-//W3C//DTD SVG 1.1//EN"
       "http://www.w3.org/Graphics/SVG/1.1/DTD/svg11.dtd">
<svg version="1.1" xmlns="http://www.w3.org/2000/svg" xmlns:xlink="http://www.w3.org/1999/xlink" viewBox="0 0 23.707 21.5977">
 <g>
  <rect height="21.5977" opacity="0" width="23.707" x="0" y="0"/>
  <path d="M3.67969 21.5977L19.6875 21.5977C22.1367 21.5977 23.3555 20.3789 23.3555 17.9648L23.3555 3.65625C23.3555 1.24219 22.1367 0.0234375 19.6875 0.0234375L3.67969 0.0234375C1.23047 0.0234375 0 1.23047 0 3.65625L0 17.9648C0 20.3906 1.23047 21.5977 3.67969 21.5977ZM3.50391 19.7109C2.46094 19.7109 1.88672 19.1602 1.88672 18.0703L1.88672 7.01953C1.88672 5.94141 2.46094 5.37891 3.50391 5.37891L19.8398 5.37891C20.8828 5.37891 21.4688 5.94141 21.4688 7.01953L21.4688 18.0703C21.4688 19.1602 20.8828 19.7109 19.8398 19.7109Z" fill="black" fill-opacity="0.85"/>
  <path d="M9.35156 17.4141C9.80859 17.4141 10.1953 17.0273 10.1953 16.5469L10.1953 8.61328C10.1953 8.00391 9.82031 7.65234 9.22266 7.65234C8.73047 7.65234 8.33203 7.92188 8.05078 8.13281L6.76172 9.14062C6.5625 9.29297 6.39844 9.52734 6.39844 9.83203C6.39844 10.1953 6.64453 10.4531 6.99609 10.4531C7.18359 10.4531 7.28906 10.3945 7.41797 10.3008L8.48438 9.44531L8.48438 16.5469C8.48438 17.0273 8.87109 17.4141 9.35156 17.4141ZM14.7539 17.4141C15.2109 17.4141 15.5977 17.0273 15.5977 16.5469L15.5977 8.61328C15.5977 8.00391 15.2227 7.65234 14.6133 7.65234C14.1211 7.65234 13.7227 7.92188 13.4531 8.13281L12.1641 9.14062C11.9531 9.29297 11.7891 9.52734 11.7891 9.83203C11.7891 10.1953 12.0352 10.4531 12.3984 10.4531C12.5742 10.4531 12.6914 10.3945 12.8086 10.3008L13.8867 9.44531L13.8867 16.5469C13.8867 17.0273 14.2734 17.4141 14.7539 17.4141Z" fill="black" fill-opacity="0.85"/>
 </g>
</svg>
