<?xml version="1.0" encoding="UTF-8"?>
<!--Generator: Apple Native CoreSVG 360-->
<!DOCTYPE svg
PUBLIC "-//W3C//DTD SVG 1.1//EN"
       "http://www.w3.org/Graphics/SVG/1.1/DTD/svg11.dtd">
<svg version="1.1" xmlns="http://www.w3.org/2000/svg" xmlns:xlink="http://www.w3.org/1999/xlink" viewBox="0 0 21.9258 17.6836">
 <g>
  <rect height="17.6836" opacity="0" width="21.9258" x="0" y="0"/>
  <path d="M0 16.7344C0 17.25 0.421875 17.6836 0.9375 17.6836C1.46484 17.6836 1.88672 17.25 1.88672 16.7344L1.88672 0.960938C1.88672 0.445312 1.46484 0.0234375 0.9375 0.0234375C0.421875 0.0234375 0 0.445312 0 0.960938ZM19.6875 16.7344C19.6875 17.25 20.1211 17.6836 20.6367 17.6836C21.1523 17.6836 21.5742 17.25 21.5742 16.7344L21.5742 0.960938C21.5742 0.445312 21.1523 0.0234375 20.6367 0.0234375C20.1211 0.0234375 19.6875 0.445312 19.6875 0.960938Z" fill="black" fill-opacity="0.85"/>
  <path d="M8.57812 13.9336C9.10547 13.9336 9.44531 13.5586 9.44531 13.0195L9.44531 5.16797C9.44531 4.55859 9.05859 4.19531 8.4375 4.19531C7.94531 4.19531 7.59375 4.41797 7.19531 4.71094L5.78906 5.75391C5.55469 5.94141 5.40234 6.14062 5.40234 6.44531C5.40234 6.80859 5.66016 7.07812 6.01172 7.07812C6.1875 7.07812 6.31641 7.03125 6.45703 6.92578L7.6875 6L7.71094 6L7.71094 13.0195C7.71094 13.5586 8.03906 13.9336 8.57812 13.9336ZM14.4844 13.9336C15.0117 13.9336 15.3398 13.5586 15.3398 13.0195L15.3398 5.16797C15.3398 4.55859 14.9648 4.19531 14.3438 4.19531C13.8516 4.19531 13.5 4.41797 13.1016 4.71094L11.6953 5.75391C11.4609 5.94141 11.3086 6.14062 11.3086 6.44531C11.3086 6.80859 11.5664 7.07812 11.918 7.07812C12.0938 7.07812 12.2227 7.03125 12.3633 6.92578L13.5938 6L13.6172 6L13.6172 13.0195C13.6172 13.5586 13.9453 13.9336 14.4844 13.9336Z" fill="black" fill-opacity="0.85"/>
 </g>
</svg>
