<?xml version="1.0" encoding="UTF-8"?>
<!--Generator: Apple Native CoreSVG 360-->
<!DOCTYPE svg
PUBLIC "-//W3C//DTD SVG 1.1//EN"
       "http://www.w3.org/Graphics/SVG/1.1/DTD/svg11.dtd">
<svg version="1.1" xmlns="http://www.w3.org/2000/svg" xmlns:xlink="http://www.w3.org/1999/xlink" viewBox="0 0 21.9258 21.5742">
 <g>
  <rect height="21.5742" opacity="0" width="21.9258" x="0" y="0"/>
  <path d="M3.67969 21.5742L17.8945 21.5742C20.3555 21.5742 21.5742 20.3672 21.5742 17.9531L21.5742 3.63281C21.5742 1.21875 20.3555 0 17.8945 0L3.67969 0C1.23047 0 0 1.21875 0 3.63281L0 17.9531C0 20.3672 1.23047 21.5742 3.67969 21.5742ZM3.70312 19.6875C2.53125 19.6875 1.88672 19.0664 1.88672 17.8477L1.88672 3.73828C1.88672 2.51953 2.53125 1.88672 3.70312 1.88672L17.8711 1.88672C19.0312 1.88672 19.6875 2.51953 19.6875 3.73828L19.6875 17.8477C19.6875 19.0664 19.0312 19.6875 17.8711 19.6875Z" fill="black" fill-opacity="0.85"/>
  <path d="M8.46094 15.6562C8.91797 15.6562 9.30469 15.2695 9.30469 14.8008L9.30469 6.85547C9.30469 6.25781 8.92969 5.90625 8.32031 5.90625C7.83984 5.90625 7.42969 6.17578 7.16016 6.38672L5.87109 7.38281C5.66016 7.54688 5.50781 7.76953 5.50781 8.07422C5.50781 8.4375 5.74219 8.69531 6.10547 8.69531C6.28125 8.69531 6.39844 8.63672 6.51562 8.55469L7.59375 7.6875L7.59375 14.8008C7.59375 15.2695 7.98047 15.6562 8.46094 15.6562ZM13.8633 15.6562C14.3203 15.6562 14.707 15.2695 14.707 14.8008L14.707 6.85547C14.707 6.25781 14.332 5.90625 13.7227 5.90625C13.2305 5.90625 12.832 6.17578 12.5625 6.38672L11.2734 7.38281C11.0625 7.54688 10.8984 7.76953 10.8984 8.07422C10.8984 8.4375 11.1445 8.69531 11.5078 8.69531C11.6836 8.69531 11.8008 8.63672 11.918 8.55469L12.9961 7.6875L12.9961 14.8008C12.9961 15.2695 13.3828 15.6562 13.8633 15.6562Z" fill="black" fill-opacity="0.85"/>
 </g>
</svg>
