<?xml version="1.0" encoding="UTF-8"?>
<!--Generator: Apple Native CoreSVG 360-->
<!DOCTYPE svg
PUBLIC "-//W3C//DTD SVG 1.1//EN"
       "http://www.w3.org/Graphics/SVG/1.1/DTD/svg11.dtd">
<svg version="1.1" xmlns="http://www.w3.org/2000/svg" xmlns:xlink="http://www.w3.org/1999/xlink" viewBox="0 0 23.707 21.5977">
 <g>
  <rect height="21.5977" opacity="0" width="23.707" x="0" y="0"/>
  <path d="M3.67969 21.5977L19.6875 21.5977C22.1367 21.5977 23.3555 20.3789 23.3555 17.9648L23.3555 3.65625C23.3555 1.24219 22.1367 0.0234375 19.6875 0.0234375L3.67969 0.0234375C1.23047 0.0234375 0 1.23047 0 3.65625L0 17.9648C0 20.3906 1.23047 21.5977 3.67969 21.5977ZM3.50391 19.7109C2.46094 19.7109 1.88672 19.1602 1.88672 18.0703L1.88672 7.01953C1.88672 5.94141 2.46094 5.37891 3.50391 5.37891L19.8398 5.37891C20.8828 5.37891 21.4688 5.94141 21.4688 7.01953L21.4688 18.0703C21.4688 19.1602 20.8828 19.7109 19.8398 19.7109Z" fill="black" fill-opacity="0.85"/>
  <path d="M8.63672 17.4141C9.09375 17.4141 9.48047 17.0273 9.48047 16.5469L9.48047 8.61328C9.48047 8.00391 9.10547 7.65234 8.49609 7.65234C8.00391 7.65234 7.60547 7.92188 7.33594 8.13281L6.04688 9.14062C5.83594 9.29297 5.67188 9.52734 5.67188 9.83203C5.67188 10.1953 5.91797 10.4531 6.26953 10.4531C6.45703 10.4531 6.57422 10.3945 6.69141 10.3008L7.76953 9.44531L7.76953 16.5469C7.76953 17.0273 8.15625 17.4141 8.63672 17.4141ZM12.0586 17.2852L16.125 17.2852C16.5352 17.2852 16.793 17.0156 16.793 16.5938C16.793 16.1602 16.5234 15.9141 16.125 15.9141L13.3359 15.9141L13.3359 15.8203L15.0469 13.6523C16.2305 12.1992 16.6055 11.332 16.6055 10.3008C16.6055 8.70703 15.5391 7.57031 13.9219 7.57031C12.4219 7.57031 11.2852 8.8125 11.2852 10.0312C11.2852 10.4531 11.5312 10.7695 11.9766 10.7695C12.3633 10.7695 12.6094 10.5938 12.7266 10.207C12.9492 9.42188 13.2422 8.91797 13.9102 8.91797C14.6133 8.91797 15.0117 9.55078 15.0117 10.3711C15.0117 11.3203 14.3555 12.2578 13.7344 13.0547L11.707 15.668C11.4844 15.9492 11.2617 16.2305 11.2617 16.6055C11.2617 16.9922 11.5195 17.2852 12.0586 17.2852Z" fill="black" fill-opacity="0.85"/>
 </g>
</svg>
