<?xml version="1.0" encoding="UTF-8"?>
<!--Generator: Apple Native CoreSVG 360-->
<!DOCTYPE svg
PUBLIC "-//W3C//DTD SVG 1.1//EN"
       "http://www.w3.org/Graphics/SVG/1.1/DTD/svg11.dtd">
<svg version="1.1" xmlns="http://www.w3.org/2000/svg" xmlns:xlink="http://www.w3.org/1999/xlink" viewBox="0 0 21.9258 17.6836">
 <g>
  <rect height="17.6836" opacity="0" width="21.9258" x="0" y="0"/>
  <path d="M0 16.7344C0 17.25 0.421875 17.6836 0.9375 17.6836C1.46484 17.6836 1.88672 17.25 1.88672 16.7344L1.88672 0.960938C1.88672 0.445312 1.46484 0.0234375 0.9375 0.0234375C0.421875 0.0234375 0 0.445312 0 0.960938ZM19.6875 16.7344C19.6875 17.25 20.1211 17.6836 20.6367 17.6836C21.1523 17.6836 21.5742 17.25 21.5742 16.7344L21.5742 0.960938C21.5742 0.445312 21.1523 0.0234375 20.6367 0.0234375C20.1211 0.0234375 19.6875 0.445312 19.6875 0.960938Z" fill="black" fill-opacity="0.85"/>
  <path d="M7.81641 13.9336C8.35547 13.9336 8.68359 13.5586 8.68359 13.0195L8.68359 5.16797C8.68359 4.55859 8.30859 4.19531 7.6875 4.19531C7.19531 4.19531 6.84375 4.41797 6.44531 4.71094L5.03906 5.75391C4.79297 5.94141 4.65234 6.14062 4.65234 6.44531C4.65234 6.80859 4.89844 7.07812 5.26172 7.07812C5.4375 7.07812 5.55469 7.03125 5.69531 6.92578L6.9375 6L6.94922 6L6.94922 13.0195C6.94922 13.5586 7.27734 13.9336 7.81641 13.9336ZM11.5664 13.9102L16.125 13.9102C16.5586 13.9102 16.8281 13.6406 16.8281 13.207C16.8281 12.7734 16.5586 12.5156 16.125 12.5156L12.9375 12.5156L12.9375 12.4219L14.7891 10.3594C15.2227 9.86719 15.5859 9.43359 15.8555 9.07031C16.3242 8.40234 16.6055 7.76953 16.6055 6.96094C16.6055 5.25 15.3281 4.21875 13.6641 4.21875C12.2227 4.21875 11.0273 5.21484 10.8047 6.32812C10.7812 6.45703 10.7695 6.57422 10.7695 6.67969C10.7695 7.13672 11.0508 7.41797 11.4961 7.41797C11.8828 7.41797 12.1172 7.21875 12.2578 6.85547C12.4688 6.09375 12.9141 5.58984 13.6523 5.58984C14.4727 5.58984 14.9297 6.22266 14.9297 7.03125C14.9297 7.62891 14.7305 8.07422 14.3906 8.56641C14.1797 8.85938 13.8867 9.23438 13.5117 9.66797L11.2148 12.2578C10.957 12.5273 10.7461 12.7969 10.7461 13.1953C10.7461 13.5352 10.9336 13.9102 11.5664 13.9102Z" fill="black" fill-opacity="0.85"/>
 </g>
</svg>
