<?xml version="1.0" encoding="UTF-8"?>
<!--Generator: Apple Native CoreSVG 360-->
<!DOCTYPE svg
PUBLIC "-//W3C//DTD SVG 1.1//EN"
       "http://www.w3.org/Graphics/SVG/1.1/DTD/svg11.dtd">
<svg version="1.1" xmlns="http://www.w3.org/2000/svg" xmlns:xlink="http://www.w3.org/1999/xlink" viewBox="0 0 21.9258 21.5742">
 <g>
  <rect height="21.5742" opacity="0" width="21.9258" x="0" y="0"/>
  <path d="M3.67969 21.5742L17.8945 21.5742C20.3555 21.5742 21.5742 20.3672 21.5742 17.9531L21.5742 3.63281C21.5742 1.21875 20.3555 0 17.8945 0L3.67969 0C1.23047 0 0 1.21875 0 3.63281L0 17.9531C0 20.3672 1.23047 21.5742 3.67969 21.5742ZM3.70312 19.6875C2.53125 19.6875 1.88672 19.0664 1.88672 17.8477L1.88672 3.73828C1.88672 2.51953 2.53125 1.88672 3.70312 1.88672L17.8711 1.88672C19.0312 1.88672 19.6875 2.51953 19.6875 3.73828L19.6875 17.8477C19.6875 19.0664 19.0312 19.6875 17.8711 19.6875Z" fill="black" fill-opacity="0.85"/>
  <path d="M7.73438 15.6562C8.20312 15.6562 8.58984 15.2695 8.58984 14.8008L8.58984 6.85547C8.58984 6.25781 8.21484 5.90625 7.60547 5.90625C7.11328 5.90625 6.71484 6.17578 6.44531 6.38672L5.15625 7.38281C4.94531 7.54688 4.78125 7.76953 4.78125 8.07422C4.78125 8.4375 5.02734 8.69531 5.37891 8.69531C5.56641 8.69531 5.68359 8.63672 5.80078 8.55469L6.87891 7.6875L6.87891 14.8008C6.87891 15.2695 7.26562 15.6562 7.73438 15.6562ZM11.168 15.5273L15.2344 15.5273C15.6445 15.5273 15.8906 15.2578 15.8906 14.8477C15.8906 14.4023 15.6328 14.1562 15.2344 14.1562L12.4453 14.1562L12.4453 14.0625L14.1562 11.8945C15.3281 10.4414 15.7148 9.57422 15.7148 8.54297C15.7148 6.96094 14.6367 5.8125 13.0195 5.8125C11.5312 5.8125 10.3828 7.05469 10.3828 8.27344C10.3828 8.70703 10.6406 9.01172 11.0859 9.01172C11.4727 9.01172 11.7188 8.83594 11.8359 8.44922C12.0586 7.66406 12.3398 7.17188 13.0195 7.17188C13.7227 7.17188 14.1211 7.79297 14.1211 8.625C14.1211 9.5625 13.4648 10.5117 12.8438 11.3086L10.8047 13.9102C10.5938 14.1914 10.3711 14.4844 10.3711 14.8477C10.3711 15.2461 10.6289 15.5273 11.168 15.5273Z" fill="black" fill-opacity="0.85"/>
 </g>
</svg>
