<?xml version="1.0" encoding="UTF-8"?>
<!--Generator: Apple Native CoreSVG 360-->
<!DOCTYPE svg
PUBLIC "-//W3C//DTD SVG 1.1//EN"
       "http://www.w3.org/Graphics/SVG/1.1/DTD/svg11.dtd">
<svg version="1.1" xmlns="http://www.w3.org/2000/svg" xmlns:xlink="http://www.w3.org/1999/xlink" viewBox="0 0 24.2578 23.918">
 <g>
  <rect height="23.918" opacity="0" width="24.2578" x="0" y="0"/>
  <path d="M11.9531 23.9062C18.5508 23.9062 23.9062 18.5508 23.9062 11.9531C23.9062 5.35547 18.5508 0 11.9531 0C5.35547 0 0 5.35547 0 11.9531C0 18.5508 5.35547 23.9062 11.9531 23.9062ZM11.9531 21.9141C6.44531 21.9141 1.99219 17.4609 1.99219 11.9531C1.99219 6.44531 6.44531 1.99219 11.9531 1.99219C17.4609 1.99219 21.9141 6.44531 21.9141 11.9531C21.9141 17.4609 17.4609 21.9141 11.9531 21.9141Z" fill="black" fill-opacity="0.85"/>
  <path d="M8.78906 16.8164C9.24609 16.8164 9.63281 16.4297 9.63281 15.9609L9.63281 8.01562C9.63281 7.41797 9.25781 7.06641 8.64844 7.06641C8.15625 7.06641 7.75781 7.33594 7.48828 7.54688L6.19922 8.54297C5.98828 8.70703 5.82422 8.92969 5.82422 9.23438C5.82422 9.59766 6.07031 9.85547 6.43359 9.85547C6.60938 9.85547 6.72656 9.79688 6.84375 9.71484L7.92188 8.84766L7.92188 15.9609C7.92188 16.4297 8.30859 16.8164 8.78906 16.8164ZM14.3672 16.8984C16.043 16.8984 17.3438 15.8438 17.3438 14.0859C17.3438 12.6328 16.4648 11.918 15.4805 11.8125L15.4805 11.7773C16.5469 11.4961 17.0625 10.5469 17.0625 9.5625C17.0625 7.94531 15.8438 7.01953 14.3203 7.01953C13.1133 7.01953 12.0586 7.69922 11.7305 8.74219C11.6602 8.96484 11.6367 9.17578 11.6367 9.375C11.6367 9.76172 11.8945 10.0664 12.3633 10.0664C12.7617 10.0664 12.9844 9.91406 13.1016 9.50391C13.2891 8.8125 13.6641 8.37891 14.3203 8.37891C15.0938 8.37891 15.4688 8.97656 15.4688 9.75C15.4688 10.6055 14.9883 11.2266 14.1094 11.2266L13.8281 11.2266C13.4297 11.2266 13.1836 11.4727 13.1836 11.8594C13.1836 12.2461 13.4414 12.4688 13.8281 12.4688L14.1211 12.4688C15.1172 12.4688 15.668 13.0195 15.668 14.0391C15.668 14.8477 15.2461 15.5391 14.3672 15.5391C13.5117 15.5391 13.1367 14.9648 12.9961 14.4258C12.8789 14.0508 12.6328 13.8516 12.2461 13.8516C11.7891 13.8516 11.4844 14.1328 11.4844 14.5898C11.4844 14.8008 11.5195 15.0117 11.5781 15.1992C11.918 16.2891 13.1016 16.8984 14.3672 16.8984Z" fill="black" fill-opacity="0.85"/>
 </g>
</svg>
