<?xml version="1.0" encoding="UTF-8"?>
<!--Generator: Apple Native CoreSVG 360-->
<!DOCTYPE svg
PUBLIC "-//W3C//DTD SVG 1.1//EN"
       "http://www.w3.org/Graphics/SVG/1.1/DTD/svg11.dtd">
<svg version="1.1" xmlns="http://www.w3.org/2000/svg" xmlns:xlink="http://www.w3.org/1999/xlink" viewBox="0 0 23.707 21.5977">
 <g>
  <rect height="21.5977" opacity="0" width="23.707" x="0" y="0"/>
  <path d="M3.67969 21.5977L19.6875 21.5977C22.1367 21.5977 23.3555 20.3789 23.3555 17.9648L23.3555 3.65625C23.3555 1.24219 22.1367 0.0234375 19.6875 0.0234375L3.67969 0.0234375C1.23047 0.0234375 0 1.23047 0 3.65625L0 17.9648C0 20.3906 1.23047 21.5977 3.67969 21.5977ZM3.50391 19.7109C2.46094 19.7109 1.88672 19.1602 1.88672 18.0703L1.88672 7.01953C1.88672 5.94141 2.46094 5.37891 3.50391 5.37891L19.8398 5.37891C20.8828 5.37891 21.4688 5.94141 21.4688 7.01953L21.4688 18.0703C21.4688 19.1602 20.8828 19.7109 19.8398 19.7109Z" fill="black" fill-opacity="0.85"/>
  <path d="M8.53125 17.4141C8.98828 17.4141 9.375 17.0273 9.375 16.5469L9.375 8.61328C9.375 8.00391 9 7.65234 8.40234 7.65234C7.91016 7.65234 7.51172 7.92188 7.23047 8.13281L5.94141 9.14062C5.74219 9.29297 5.57812 9.52734 5.57812 9.83203C5.57812 10.1953 5.82422 10.4531 6.17578 10.4531C6.36328 10.4531 6.46875 10.3945 6.59766 10.3008L7.66406 9.44531L7.66406 16.5469C7.66406 17.0273 8.0625 17.4141 8.53125 17.4141ZM14.1094 17.4961C15.7969 17.4961 17.0859 16.4414 17.0859 14.6836C17.0859 13.2305 16.2188 12.5156 15.2227 12.4102L15.2227 12.3633C16.2891 12.082 16.8047 11.1445 16.8047 10.1602C16.8047 8.54297 15.5977 7.61719 14.0625 7.61719C12.8555 7.61719 11.8125 8.29688 11.4727 9.33984C11.4141 9.5625 11.3789 9.76172 11.3789 9.97266C11.3789 10.3477 11.6367 10.6641 12.1055 10.6641C12.5039 10.6641 12.7383 10.5 12.8555 10.1016C13.0312 9.41016 13.4062 8.96484 14.0625 8.96484C14.8359 8.96484 15.2109 9.57422 15.2109 10.3477C15.2109 11.2031 14.7305 11.8242 13.8516 11.8242L13.5703 11.8242C13.1719 11.8242 12.9258 12.0586 12.9258 12.4453C12.9258 12.832 13.1836 13.0664 13.5703 13.0664L13.875 13.0664C14.8594 13.0664 15.4102 13.6055 15.4102 14.6367C15.4102 15.4453 14.9883 16.125 14.1094 16.125C13.2656 16.125 12.8789 15.5508 12.7383 15.0234C12.6211 14.6484 12.375 14.4492 12 14.4492C11.5312 14.4492 11.2266 14.7188 11.2266 15.1875C11.2266 15.3984 11.2617 15.6094 11.3203 15.7969C11.6602 16.8867 12.8555 17.4961 14.1094 17.4961Z" fill="black" fill-opacity="0.85"/>
 </g>
</svg>
