<?xml version="1.0" encoding="UTF-8"?>
<!--Generator: Apple Native CoreSVG 360-->
<!DOCTYPE svg
PUBLIC "-//W3C//DTD SVG 1.1//EN"
       "http://www.w3.org/Graphics/SVG/1.1/DTD/svg11.dtd">
<svg version="1.1" xmlns="http://www.w3.org/2000/svg" xmlns:xlink="http://www.w3.org/1999/xlink" viewBox="0 0 24.2578 23.918">
 <g>
  <rect height="23.918" opacity="0" width="24.2578" x="0" y="0"/>
  <path d="M11.9531 23.9062C18.5508 23.9062 23.9062 18.5508 23.9062 11.9531C23.9062 5.35547 18.5508 0 11.9531 0C5.35547 0 0 5.35547 0 11.9531C0 18.5508 5.35547 23.9062 11.9531 23.9062ZM11.9531 21.9141C6.44531 21.9141 1.99219 17.4609 1.99219 11.9531C1.99219 6.44531 6.44531 1.99219 11.9531 1.99219C17.4609 1.99219 21.9141 6.44531 21.9141 11.9531C21.9141 17.4609 17.4609 21.9141 11.9531 21.9141Z" fill="black" fill-opacity="0.85"/>
  <path d="M8.50781 16.8164C8.97656 16.8164 9.36328 16.4297 9.36328 15.9609L9.36328 8.01562C9.36328 7.41797 8.98828 7.06641 8.37891 7.06641C7.88672 7.06641 7.48828 7.33594 7.20703 7.54688L5.91797 8.54297C5.71875 8.70703 5.55469 8.92969 5.55469 9.23438C5.55469 9.59766 5.80078 9.85547 6.15234 9.85547C6.33984 9.85547 6.45703 9.79688 6.57422 9.71484L7.65234 8.84766L7.65234 15.9609C7.65234 16.4297 8.03906 16.8164 8.50781 16.8164ZM15.5039 16.8398C15.9492 16.8398 16.3125 16.5703 16.3125 16.0078L16.3125 14.8359L16.7227 14.8359C17.1797 14.8359 17.3906 14.543 17.3906 14.1445C17.3906 13.7695 17.1914 13.4766 16.7227 13.4766L16.3125 13.4766L16.3125 8.33203C16.3125 7.52344 15.7734 7.06641 15.0117 7.06641C14.1914 7.06641 13.8047 7.48828 13.4648 8.21484L11.3789 12.7617C11.1797 13.2188 11.1094 13.5234 11.1094 13.8867C11.1094 14.4492 11.5078 14.8359 12.0703 14.8359L14.6953 14.8359L14.6953 16.0078C14.6953 16.6289 15.1406 16.8398 15.5039 16.8398ZM14.7305 13.5117L12.5508 13.5117L12.5508 13.4297L14.6836 8.54297L14.7305 8.54297Z" fill="black" fill-opacity="0.85"/>
 </g>
</svg>
