<?xml version="1.0" encoding="UTF-8"?>
<!--Generator: Apple Native CoreSVG 360-->
<!DOCTYPE svg
PUBLIC "-//W3C//DTD SVG 1.1//EN"
       "http://www.w3.org/Graphics/SVG/1.1/DTD/svg11.dtd">
<svg version="1.1" xmlns="http://www.w3.org/2000/svg" xmlns:xlink="http://www.w3.org/1999/xlink" viewBox="0 0 23.707 21.5977">
 <g>
  <rect height="21.5977" opacity="0" width="23.707" x="0" y="0"/>
  <path d="M3.67969 21.5977L19.6875 21.5977C22.1367 21.5977 23.3555 20.3789 23.3555 17.9648L23.3555 3.65625C23.3555 1.24219 22.1367 0.0234375 19.6875 0.0234375L3.67969 0.0234375C1.23047 0.0234375 0 1.23047 0 3.65625L0 17.9648C0 20.3906 1.23047 21.5977 3.67969 21.5977ZM3.50391 19.7109C2.46094 19.7109 1.88672 19.1602 1.88672 18.0703L1.88672 7.01953C1.88672 5.94141 2.46094 5.37891 3.50391 5.37891L19.8398 5.37891C20.8828 5.37891 21.4688 5.94141 21.4688 7.01953L21.4688 18.0703C21.4688 19.1602 20.8828 19.7109 19.8398 19.7109Z" fill="black" fill-opacity="0.85"/>
  <path d="M8.26172 17.4141C8.71875 17.4141 9.10547 17.0273 9.10547 16.5469L9.10547 8.61328C9.10547 8.00391 8.73047 7.65234 8.12109 7.65234C7.62891 7.65234 7.23047 7.92188 6.96094 8.13281L5.67188 9.14062C5.46094 9.29297 5.29688 9.52734 5.29688 9.83203C5.29688 10.1953 5.54297 10.4531 5.90625 10.4531C6.08203 10.4531 6.19922 10.3945 6.31641 10.3008L7.39453 9.44531L7.39453 16.5469C7.39453 17.0273 7.78125 17.4141 8.26172 17.4141ZM15.2578 17.4375C15.6914 17.4375 16.0547 17.168 16.0547 16.5938L16.0547 15.4336L16.4648 15.4336C16.9219 15.4336 17.1328 15.1406 17.1328 14.7422C17.1328 14.3672 16.9336 14.0742 16.4648 14.0742L16.0547 14.0742L16.0547 8.91797C16.0547 8.10938 15.5273 7.66406 14.7539 7.66406C13.9336 7.66406 13.5469 8.08594 13.2188 8.8125L11.1211 13.3594C10.9219 13.8047 10.8516 14.1094 10.8516 14.4727C10.8516 15.0352 11.25 15.4336 11.8242 15.4336L14.4375 15.4336L14.4375 16.5938C14.4375 17.2148 14.8828 17.4375 15.2578 17.4375ZM14.4727 14.1094L12.3047 14.1094L12.3047 14.0273L14.4375 9.14062L14.4727 9.14062Z" fill="black" fill-opacity="0.85"/>
 </g>
</svg>
