<?xml version="1.0" encoding="UTF-8"?>
<!--Generator: Apple Native CoreSVG 360-->
<!DOCTYPE svg
PUBLIC "-//W3C//DTD SVG 1.1//EN"
       "http://www.w3.org/Graphics/SVG/1.1/DTD/svg11.dtd">
<svg version="1.1" xmlns="http://www.w3.org/2000/svg" xmlns:xlink="http://www.w3.org/1999/xlink" viewBox="0 0 21.9258 21.5742">
 <g>
  <rect height="21.5742" opacity="0" width="21.9258" x="0" y="0"/>
  <path d="M3.67969 21.5742L17.8945 21.5742C20.3555 21.5742 21.5742 20.3672 21.5742 17.9531L21.5742 3.63281C21.5742 1.21875 20.3555 0 17.8945 0L3.67969 0C1.23047 0 0 1.21875 0 3.63281L0 17.9531C0 20.3672 1.23047 21.5742 3.67969 21.5742ZM3.70312 19.6875C2.53125 19.6875 1.88672 19.0664 1.88672 17.8477L1.88672 3.73828C1.88672 2.51953 2.53125 1.88672 3.70312 1.88672L17.8711 1.88672C19.0312 1.88672 19.6875 2.51953 19.6875 3.73828L19.6875 17.8477C19.6875 19.0664 19.0312 19.6875 17.8711 19.6875Z" fill="black" fill-opacity="0.85"/>
  <path d="M7.37109 15.6562C7.82812 15.6562 8.21484 15.2695 8.21484 14.8008L8.21484 6.85547C8.21484 6.25781 7.83984 5.90625 7.23047 5.90625C6.73828 5.90625 6.33984 6.17578 6.07031 6.38672L4.78125 7.38281C4.57031 7.54688 4.40625 7.76953 4.40625 8.07422C4.40625 8.4375 4.65234 8.69531 5.00391 8.69531C5.19141 8.69531 5.30859 8.63672 5.42578 8.55469L6.50391 7.6875L6.50391 14.8008C6.50391 15.2695 6.89062 15.6562 7.37109 15.6562ZM14.3672 15.6797C14.8008 15.6797 15.1641 15.4102 15.1641 14.8477L15.1641 13.6758L15.5742 13.6758C16.0312 13.6758 16.2422 13.3828 16.2422 12.9844C16.2422 12.6094 16.043 12.3164 15.5742 12.3164L15.1641 12.3164L15.1641 7.17188C15.1641 6.36328 14.625 5.90625 13.8633 5.90625C13.043 5.90625 12.6562 6.32812 12.3281 7.05469L10.2305 11.6016C10.0312 12.0586 9.96094 12.3633 9.96094 12.7266C9.96094 13.2891 10.3594 13.6758 10.9219 13.6758L13.5469 13.6758L13.5469 14.8477C13.5469 15.4688 13.9922 15.6797 14.3672 15.6797ZM13.582 12.3516L11.4023 12.3516L11.4023 12.2695L13.5352 7.38281L13.582 7.38281Z" fill="black" fill-opacity="0.85"/>
 </g>
</svg>
