<?xml version="1.0" encoding="UTF-8"?>
<!--Generator: Apple Native CoreSVG 360-->
<!DOCTYPE svg
PUBLIC "-//W3C//DTD SVG 1.1//EN"
       "http://www.w3.org/Graphics/SVG/1.1/DTD/svg11.dtd">
<svg version="1.1" xmlns="http://www.w3.org/2000/svg" xmlns:xlink="http://www.w3.org/1999/xlink" viewBox="0 0 24.2578 28.468">
 <g>
  <rect height="28.468" opacity="0" width="24.2578" x="0" y="0"/>
  <path d="M14.2148 0.833612C14.2148-0.0101376 13.6406-0.221075 12.9844 0.235956L9.25781 2.86096C8.71875 3.24767 8.73047 3.81017 9.25781 4.18517L12.9961 6.81017C13.6406 7.25549 14.2148 7.04455 14.2148 6.21252ZM11.9531 26.1813C18.5508 26.1813 23.9062 20.8258 23.9062 14.2281C23.9062 7.63049 18.5625 2.28674 11.9414 2.27502C11.3906 2.28674 10.957 2.73205 10.957 3.25939C10.957 3.81017 11.4023 4.26721 11.9531 4.26721C17.4609 4.26721 21.9141 8.72033 21.9141 14.2281C21.9141 19.736 17.4609 24.1891 11.9531 24.1891C6.44531 24.1891 1.99219 19.736 1.99219 14.2281C1.99219 10.8883 3.63281 7.94689 6.11719 6.16564C6.59766 5.80236 6.75 5.25158 6.45703 4.75939C6.16406 4.29064 5.49609 4.15002 4.98047 4.54846C1.95703 6.72814 0 10.2086 0 14.2281C0 20.8258 5.35547 26.1813 11.9531 26.1813Z" fill="black" fill-opacity="0.85"/>
  <path d="M8.82422 19.0445C9.33984 19.0445 9.64453 18.6813 9.64453 18.1774L9.64453 10.7711C9.64453 10.1969 9.28125 9.85705 8.70703 9.85705C8.23828 9.85705 7.89844 10.068 7.53516 10.3492L6.21094 11.3336C5.97656 11.4977 5.83594 11.6969 5.83594 11.9781C5.83594 12.318 6.08203 12.5758 6.41016 12.5758C6.58594 12.5758 6.70312 12.5289 6.83203 12.4235L7.99219 11.5563L8.01562 11.5563L8.01562 18.1774C8.01562 18.6813 8.32031 19.0445 8.82422 19.0445ZM14.5898 19.1149C16.418 19.1149 17.5547 17.7672 17.5547 15.9391C17.5547 14.3688 16.6758 13.0211 15.1172 13.0211C14.3438 13.0211 13.6875 13.3844 13.3711 13.982L13.3242 13.982L13.5352 11.3102L16.5117 11.3102C16.8984 11.3102 17.1562 11.0524 17.1562 10.6539C17.1562 10.2555 16.9102 9.99767 16.5117 9.99767L13.1133 9.99767C12.5039 9.99767 12.2227 10.3141 12.1875 10.9352L11.9297 14.3453C11.8945 14.8727 12.1641 15.2594 12.6797 15.2594C13.0547 15.2594 13.2188 15.107 13.4531 14.8258C13.7344 14.4508 14.1328 14.2164 14.6016 14.2164C15.5273 14.2164 15.9844 15.0485 15.9844 15.986C15.9844 16.982 15.4805 17.8141 14.5898 17.8141C13.8867 17.8141 13.418 17.357 13.1836 16.7477C13.0312 16.4195 12.7969 16.2438 12.4805 16.2438C12.0703 16.2438 11.8125 16.5133 11.8125 16.9235C11.8125 17.0641 11.8359 17.2047 11.8711 17.3336C12.1641 18.4586 13.4531 19.1149 14.5898 19.1149Z" fill="black" fill-opacity="0.85"/>
 </g>
</svg>
