<?xml version="1.0" encoding="UTF-8"?>
<!--Generator: Apple Native CoreSVG 360-->
<!DOCTYPE svg
PUBLIC "-//W3C//DTD SVG 1.1//EN"
       "http://www.w3.org/Graphics/SVG/1.1/DTD/svg11.dtd">
<svg version="1.1" xmlns="http://www.w3.org/2000/svg" xmlns:xlink="http://www.w3.org/1999/xlink" viewBox="0 0 23.707 21.5977">
 <g>
  <rect height="21.5977" opacity="0" width="23.707" x="0" y="0"/>
  <path d="M3.67969 21.5977L19.6875 21.5977C22.1367 21.5977 23.3555 20.3789 23.3555 17.9648L23.3555 3.65625C23.3555 1.24219 22.1367 0.0234375 19.6875 0.0234375L3.67969 0.0234375C1.23047 0.0234375 0 1.23047 0 3.65625L0 17.9648C0 20.3906 1.23047 21.5977 3.67969 21.5977ZM3.50391 19.7109C2.46094 19.7109 1.88672 19.1602 1.88672 18.0703L1.88672 7.01953C1.88672 5.94141 2.46094 5.37891 3.50391 5.37891L19.8398 5.37891C20.8828 5.37891 21.4688 5.94141 21.4688 7.01953L21.4688 18.0703C21.4688 19.1602 20.8828 19.7109 19.8398 19.7109Z" fill="black" fill-opacity="0.85"/>
  <path d="M8.49609 17.4141C8.96484 17.4141 9.35156 17.0273 9.35156 16.5469L9.35156 8.61328C9.35156 8.00391 8.97656 7.65234 8.36719 7.65234C7.875 7.65234 7.47656 7.92188 7.19531 8.13281L5.91797 9.14062C5.70703 9.29297 5.54297 9.52734 5.54297 9.83203C5.54297 10.1953 5.78906 10.4531 6.14062 10.4531C6.32812 10.4531 6.44531 10.3945 6.5625 10.3008L7.64062 9.44531L7.64062 16.5469C7.64062 17.0273 8.02734 17.4141 8.49609 17.4141ZM14.0742 17.5195C15.9023 17.5195 16.8984 15.9961 16.8984 14.1445C16.8984 12.5273 16.125 11.0391 14.6133 11.0391C13.9219 11.0391 13.2891 11.3672 12.9844 12.0469L12.9375 12.0469L13.125 9.19922L15.8789 9.19922C16.2773 9.19922 16.5352 8.90625 16.5352 8.50781C16.5352 8.10938 16.2656 7.81641 15.8789 7.81641L12.6562 7.81641C12.0469 7.81641 11.7656 8.21484 11.7305 8.82422L11.5312 12.0234C11.5195 12.2109 11.5195 12.3867 11.5195 12.5508C11.5195 12.9961 11.7422 13.3945 12.2812 13.3945C12.6094 13.3945 12.7852 13.2656 13.0312 12.9375C13.3008 12.5508 13.5938 12.2812 14.0742 12.2812C14.9297 12.2812 15.2578 13.3242 15.2578 14.1797C15.2578 15.1641 14.918 16.1602 14.0508 16.1602C13.3945 16.1602 13.0195 15.6797 12.8086 15.0469C12.668 14.6719 12.4102 14.4844 12.0938 14.4844C11.6719 14.4844 11.3906 14.7656 11.3906 15.1875C11.3906 15.457 11.4609 15.7266 11.5664 15.9492C11.9766 16.8984 13.0078 17.5195 14.0742 17.5195Z" fill="black" fill-opacity="0.85"/>
 </g>
</svg>
