<?xml version="1.0" encoding="UTF-8"?>
<!--Generator: Apple Native CoreSVG 360-->
<!DOCTYPE svg
PUBLIC "-//W3C//DTD SVG 1.1//EN"
       "http://www.w3.org/Graphics/SVG/1.1/DTD/svg11.dtd">
<svg version="1.1" xmlns="http://www.w3.org/2000/svg" xmlns:xlink="http://www.w3.org/1999/xlink" viewBox="0 0 21.9258 21.5742">
 <g>
  <rect height="21.5742" opacity="0" width="21.9258" x="0" y="0"/>
  <path d="M3.67969 21.5742L17.8945 21.5742C20.3555 21.5742 21.5742 20.3672 21.5742 17.9531L21.5742 3.63281C21.5742 1.21875 20.3555 0 17.8945 0L3.67969 0C1.23047 0 0 1.21875 0 3.63281L0 17.9531C0 20.3672 1.23047 21.5742 3.67969 21.5742ZM3.70312 19.6875C2.53125 19.6875 1.88672 19.0664 1.88672 17.8477L1.88672 3.73828C1.88672 2.51953 2.53125 1.88672 3.70312 1.88672L17.8711 1.88672C19.0312 1.88672 19.6875 2.51953 19.6875 3.73828L19.6875 17.8477C19.6875 19.0664 19.0312 19.6875 17.8711 19.6875Z" fill="black" fill-opacity="0.85"/>
  <path d="M7.60547 15.6562C8.07422 15.6562 8.46094 15.2695 8.46094 14.8008L8.46094 6.85547C8.46094 6.25781 8.08594 5.90625 7.47656 5.90625C6.98438 5.90625 6.58594 6.17578 6.30469 6.38672L5.01562 7.38281C4.81641 7.54688 4.65234 7.76953 4.65234 8.07422C4.65234 8.4375 4.89844 8.69531 5.25 8.69531C5.4375 8.69531 5.55469 8.63672 5.67188 8.55469L6.75 7.6875L6.75 14.8008C6.75 15.2695 7.13672 15.6562 7.60547 15.6562ZM13.1836 15.7734C15 15.7734 16.0078 14.2383 16.0078 12.3867C16.0078 10.7695 15.2344 9.29297 13.7227 9.29297C13.0312 9.29297 12.3984 9.60938 12.0938 10.2891L12.0469 10.2891L12.2344 7.44141L14.9883 7.44141C15.3867 7.44141 15.6328 7.16016 15.6328 6.75C15.6328 6.36328 15.375 6.05859 14.9883 6.05859L11.7656 6.05859C11.1562 6.05859 10.875 6.45703 10.8398 7.06641L10.6406 10.2773C10.6289 10.4531 10.6289 10.6406 10.6289 10.793C10.6289 11.2383 10.8516 11.6367 11.3906 11.6367C11.7188 11.6367 11.8945 11.5078 12.1406 11.1914C12.4102 10.8047 12.7031 10.5234 13.1719 10.5234C14.0391 10.5234 14.3672 11.5664 14.3672 12.4336C14.3672 13.4062 14.0273 14.4023 13.1602 14.4023C12.5039 14.4023 12.1289 13.9336 11.918 13.2891C11.7773 12.9141 11.5195 12.7383 11.2031 12.7383C10.7695 12.7383 10.5 13.0078 10.5 13.4414C10.5 13.7109 10.5703 13.9688 10.6758 14.2031C11.0859 15.1523 12.1172 15.7734 13.1836 15.7734Z" fill="black" fill-opacity="0.85"/>
 </g>
</svg>
