<?xml version="1.0" encoding="UTF-8"?>
<!--Generator: Apple Native CoreSVG 360-->
<!DOCTYPE svg
PUBLIC "-//W3C//DTD SVG 1.1//EN"
       "http://www.w3.org/Graphics/SVG/1.1/DTD/svg11.dtd">
<svg version="1.1" xmlns="http://www.w3.org/2000/svg" xmlns:xlink="http://www.w3.org/1999/xlink" viewBox="0 0 23.707 21.5977">
 <g>
  <rect height="21.5977" opacity="0" width="23.707" x="0" y="0"/>
  <path d="M3.67969 21.5977L19.6875 21.5977C22.1367 21.5977 23.3555 20.3789 23.3555 17.9648L23.3555 3.65625C23.3555 1.24219 22.1367 0.0234375 19.6875 0.0234375L3.67969 0.0234375C1.23047 0.0234375 0 1.23047 0 3.65625L0 17.9648C0 20.3906 1.23047 21.5977 3.67969 21.5977ZM3.50391 19.7109C2.46094 19.7109 1.88672 19.1602 1.88672 18.0703L1.88672 7.01953C1.88672 5.94141 2.46094 5.37891 3.50391 5.37891L19.8398 5.37891C20.8828 5.37891 21.4688 5.94141 21.4688 7.01953L21.4688 18.0703C21.4688 19.1602 20.8828 19.7109 19.8398 19.7109Z" fill="black" fill-opacity="0.85"/>
  <path d="M8.35547 17.4141C8.8125 17.4141 9.19922 17.0273 9.19922 16.5469L9.19922 8.61328C9.19922 8.00391 8.82422 7.65234 8.21484 7.65234C7.72266 7.65234 7.32422 7.92188 7.05469 8.13281L5.76562 9.14062C5.55469 9.29297 5.39062 9.52734 5.39062 9.83203C5.39062 10.1953 5.63672 10.4531 6 10.4531C6.17578 10.4531 6.29297 10.3945 6.41016 10.3008L7.48828 9.44531L7.48828 16.5469C7.48828 17.0273 7.875 17.4141 8.35547 17.4141ZM14.168 17.5195C15.9609 17.5195 16.9805 16.0195 16.9805 14.1797C16.9805 12.6094 16.2188 11.0977 14.6602 11.0977C13.7109 11.0977 12.9961 11.7422 12.7266 12.7383L12.6797 12.7383C12.6797 12.7031 12.6797 12.6562 12.6797 12.6094C12.6797 11.3203 12.8438 8.95312 14.1445 8.95312C14.6836 8.95312 15.0352 9.33984 15.2344 9.83203C15.3984 10.1953 15.6328 10.3594 16.0078 10.3594C16.4766 10.3594 16.6758 10.043 16.6758 9.65625C16.6758 9.51562 16.6641 9.375 16.6289 9.23438C16.3711 8.21484 15.3633 7.59375 14.1914 7.59375C11.7891 7.59375 11.0859 10.2773 11.0859 12.668C11.0859 14.8828 11.7891 17.5195 14.168 17.5195ZM14.1445 16.1602C13.2656 16.1602 12.9023 15.0586 12.9023 14.2148C12.9023 13.3594 13.3008 12.3867 14.1445 12.3867C15.0117 12.3867 15.375 13.3945 15.3516 14.2617C15.3516 15.1172 14.9648 16.1602 14.1445 16.1602Z" fill="black" fill-opacity="0.85"/>
 </g>
</svg>
