<?xml version="1.0" encoding="UTF-8"?>
<!--Generator: Apple Native CoreSVG 360-->
<!DOCTYPE svg
PUBLIC "-//W3C//DTD SVG 1.1//EN"
       "http://www.w3.org/Graphics/SVG/1.1/DTD/svg11.dtd">
<svg version="1.1" xmlns="http://www.w3.org/2000/svg" xmlns:xlink="http://www.w3.org/1999/xlink" viewBox="0 0 24.2578 23.918">
 <g>
  <rect height="23.918" opacity="0" width="24.2578" x="0" y="0"/>
  <path d="M11.9531 23.9062C18.5508 23.9062 23.9062 18.5508 23.9062 11.9531C23.9062 5.35547 18.5508 0 11.9531 0C5.35547 0 0 5.35547 0 11.9531C0 18.5508 5.35547 23.9062 11.9531 23.9062ZM11.9531 21.9141C6.44531 21.9141 1.99219 17.4609 1.99219 11.9531C1.99219 6.44531 6.44531 1.99219 11.9531 1.99219C17.4609 1.99219 21.9141 6.44531 21.9141 11.9531C21.9141 17.4609 17.4609 21.9141 11.9531 21.9141Z" fill="black" fill-opacity="0.85"/>
  <path d="M8.60156 16.8164C9.07031 16.8164 9.45703 16.4297 9.45703 15.9609L9.45703 8.01562C9.45703 7.41797 9.08203 7.06641 8.47266 7.06641C7.98047 7.06641 7.58203 7.33594 7.3125 7.54688L6.02344 8.54297C5.8125 8.70703 5.64844 8.92969 5.64844 9.23438C5.64844 9.59766 5.89453 9.85547 6.24609 9.85547C6.43359 9.85547 6.55078 9.79688 6.66797 9.71484L7.74609 8.84766L7.74609 15.9609C7.74609 16.4297 8.13281 16.8164 8.60156 16.8164ZM14.4258 16.9336C16.207 16.9336 17.2383 15.4336 17.2383 13.5938C17.2383 12.0117 16.4766 10.5117 14.918 10.5117C13.9688 10.5117 13.2539 11.1445 12.9844 12.1523L12.9375 12.1523C12.9375 12.1055 12.9375 12.0586 12.9375 12.0234C12.9375 10.7227 13.1016 8.36719 14.4023 8.36719C14.9414 8.36719 15.293 8.74219 15.4922 9.23438C15.6562 9.59766 15.8789 9.76172 16.2539 9.76172C16.7344 9.76172 16.9336 9.44531 16.9336 9.05859C16.9336 8.92969 16.9102 8.78906 16.875 8.63672C16.6289 7.62891 15.6094 6.99609 14.4375 6.99609C12.0352 6.99609 11.3438 9.69141 11.3438 12.0703C11.3438 14.2852 12.0469 16.9336 14.4258 16.9336ZM14.4023 15.5625C13.5117 15.5625 13.1602 14.4609 13.1602 13.6172C13.1602 12.7617 13.5469 11.7891 14.4023 11.7891C15.2695 11.7891 15.6211 12.7969 15.5977 13.6641C15.5977 14.5195 15.2227 15.5625 14.4023 15.5625Z" fill="black" fill-opacity="0.85"/>
 </g>
</svg>
