<?xml version="1.0" encoding="UTF-8"?>
<!--Generator: Apple Native CoreSVG 360-->
<!DOCTYPE svg
PUBLIC "-//W3C//DTD SVG 1.1//EN"
       "http://www.w3.org/Graphics/SVG/1.1/DTD/svg11.dtd">
<svg version="1.1" xmlns="http://www.w3.org/2000/svg" xmlns:xlink="http://www.w3.org/1999/xlink" viewBox="0 0 21.9258 21.5742">
 <g>
  <rect height="21.5742" opacity="0" width="21.9258" x="0" y="0"/>
  <path d="M3.67969 21.5742L17.8945 21.5742C20.3555 21.5742 21.5742 20.3672 21.5742 17.9531L21.5742 3.63281C21.5742 1.21875 20.3555 0 17.8945 0L3.67969 0C1.23047 0 0 1.21875 0 3.63281L0 17.9531C0 20.3672 1.23047 21.5742 3.67969 21.5742ZM3.70312 19.6875C2.53125 19.6875 1.88672 19.0664 1.88672 17.8477L1.88672 3.73828C1.88672 2.51953 2.53125 1.88672 3.70312 1.88672L17.8711 1.88672C19.0312 1.88672 19.6875 2.51953 19.6875 3.73828L19.6875 17.8477C19.6875 19.0664 19.0312 19.6875 17.8711 19.6875Z" fill="black" fill-opacity="0.85"/>
  <path d="M7.46484 15.6562C7.92188 15.6562 8.30859 15.2695 8.30859 14.8008L8.30859 6.85547C8.30859 6.25781 7.93359 5.90625 7.32422 5.90625C6.83203 5.90625 6.43359 6.17578 6.16406 6.38672L4.875 7.38281C4.66406 7.54688 4.5 7.76953 4.5 8.07422C4.5 8.4375 4.74609 8.69531 5.09766 8.69531C5.28516 8.69531 5.40234 8.63672 5.51953 8.55469L6.59766 7.6875L6.59766 14.8008C6.59766 15.2695 6.98438 15.6562 7.46484 15.6562ZM13.2773 15.7734C15.0586 15.7734 16.0898 14.2734 16.0898 12.4336C16.0898 10.8516 15.3281 9.35156 13.7695 9.35156C12.8203 9.35156 12.1055 9.98438 11.8359 10.9922L11.7891 10.9922C11.7891 10.9453 11.7891 10.8984 11.7891 10.8633C11.7891 9.5625 11.9531 7.20703 13.2539 7.20703C13.793 7.20703 14.1445 7.58203 14.3438 8.07422C14.5078 8.4375 14.7305 8.60156 15.1172 8.60156C15.5859 8.60156 15.7852 8.28516 15.7852 7.89844C15.7852 7.76953 15.7734 7.62891 15.7266 7.47656C15.4805 6.46875 14.4727 5.83594 13.2891 5.83594C10.8867 5.83594 10.1953 8.53125 10.1953 10.9102C10.1953 13.125 10.8984 15.7734 13.2773 15.7734ZM13.2539 14.4023C12.375 14.4023 12.0117 13.3008 12.0117 12.457C12.0117 11.6016 12.4102 10.6289 13.2539 10.6289C14.1211 10.6289 14.4844 11.6367 14.4609 12.5039C14.4609 13.3594 14.0742 14.4023 13.2539 14.4023Z" fill="black" fill-opacity="0.85"/>
 </g>
</svg>
