<?xml version="1.0" encoding="UTF-8"?>
<!--Generator: Apple Native CoreSVG 360-->
<!DOCTYPE svg
PUBLIC "-//W3C//DTD SVG 1.1//EN"
       "http://www.w3.org/Graphics/SVG/1.1/DTD/svg11.dtd">
<svg version="1.1" xmlns="http://www.w3.org/2000/svg" xmlns:xlink="http://www.w3.org/1999/xlink" viewBox="0 0 23.707 21.5977">
 <g>
  <rect height="21.5977" opacity="0" width="23.707" x="0" y="0"/>
  <path d="M3.67969 21.5977L19.6875 21.5977C22.1367 21.5977 23.3555 20.3789 23.3555 17.9648L23.3555 3.65625C23.3555 1.24219 22.1367 0.0234375 19.6875 0.0234375L3.67969 0.0234375C1.23047 0.0234375 0 1.23047 0 3.65625L0 17.9648C0 20.3906 1.23047 21.5977 3.67969 21.5977ZM3.50391 19.7109C2.46094 19.7109 1.88672 19.1602 1.88672 18.0703L1.88672 7.01953C1.88672 5.94141 2.46094 5.37891 3.50391 5.37891L19.8398 5.37891C20.8828 5.37891 21.4688 5.94141 21.4688 7.01953L21.4688 18.0703C21.4688 19.1602 20.8828 19.7109 19.8398 19.7109Z" fill="black" fill-opacity="0.85"/>
  <path d="M9.05859 17.4141C9.52734 17.4141 9.91406 17.0273 9.91406 16.5469L9.91406 8.61328C9.91406 8.00391 9.53906 7.65234 8.92969 7.65234C8.4375 7.65234 8.03906 7.92188 7.75781 8.13281L6.46875 9.14062C6.26953 9.29297 6.10547 9.52734 6.10547 9.83203C6.10547 10.1953 6.35156 10.4531 6.70312 10.4531C6.89062 10.4531 7.00781 10.3945 7.125 10.3008L8.20312 9.44531L8.20312 16.5469C8.20312 17.0273 8.58984 17.4141 9.05859 17.4141ZM13.3008 17.4375C13.7344 17.4375 13.9219 17.2617 14.0859 16.8516L16.7578 9.69141C16.8867 9.33984 16.9805 9.05859 16.9805 8.70703C16.9805 8.16797 16.5703 7.81641 16.043 7.81641L12.2578 7.81641C11.8594 7.81641 11.5781 8.09766 11.5781 8.50781C11.5781 8.90625 11.8594 9.1875 12.2578 9.1875L15.2695 9.1875L15.2695 9.30469L12.668 16.0312C12.5742 16.2891 12.5273 16.4414 12.5273 16.7109C12.5273 17.0625 12.75 17.4375 13.3008 17.4375Z" fill="black" fill-opacity="0.85"/>
 </g>
</svg>
