<?xml version="1.0" encoding="UTF-8"?>
<!--Generator: Apple Native CoreSVG 360-->
<!DOCTYPE svg
PUBLIC "-//W3C//DTD SVG 1.1//EN"
       "http://www.w3.org/Graphics/SVG/1.1/DTD/svg11.dtd">
<svg version="1.1" xmlns="http://www.w3.org/2000/svg" xmlns:xlink="http://www.w3.org/1999/xlink" viewBox="0 0 24.2578 23.918">
 <g>
  <rect height="23.918" opacity="0" width="24.2578" x="0" y="0"/>
  <path d="M11.9531 23.9062C18.5508 23.9062 23.9062 18.5508 23.9062 11.9531C23.9062 5.35547 18.5508 0 11.9531 0C5.35547 0 0 5.35547 0 11.9531C0 18.5508 5.35547 23.9062 11.9531 23.9062ZM11.9531 21.9141C6.44531 21.9141 1.99219 17.4609 1.99219 11.9531C1.99219 6.44531 6.44531 1.99219 11.9531 1.99219C17.4609 1.99219 21.9141 6.44531 21.9141 11.9531C21.9141 17.4609 17.4609 21.9141 11.9531 21.9141Z" fill="black" fill-opacity="0.85"/>
  <path d="M9.31641 16.8164C9.77344 16.8164 10.1602 16.4297 10.1602 15.9609L10.1602 8.01562C10.1602 7.41797 9.78516 7.06641 9.17578 7.06641C8.69531 7.06641 8.29688 7.33594 8.01562 7.54688L6.72656 8.54297C6.51562 8.70703 6.36328 8.92969 6.36328 9.23438C6.36328 9.59766 6.60938 9.85547 6.96094 9.85547C7.13672 9.85547 7.25391 9.79688 7.37109 9.71484L8.44922 8.84766L8.44922 15.9609C8.44922 16.4297 8.83594 16.8164 9.31641 16.8164ZM13.5586 16.8516C13.9805 16.8516 14.1797 16.6758 14.332 16.2539L17.0156 9.10547C17.1445 8.74219 17.2383 8.46094 17.2383 8.12109C17.2383 7.58203 16.8164 7.21875 16.3008 7.21875L12.5156 7.21875C12.1055 7.21875 11.8359 7.51172 11.8359 7.91016C11.8359 8.30859 12.1055 8.60156 12.5156 8.60156L15.5273 8.60156L15.5273 8.70703L12.9258 15.4336C12.8203 15.6914 12.7852 15.8438 12.7852 16.125C12.7852 16.4648 12.9961 16.8516 13.5586 16.8516Z" fill="black" fill-opacity="0.85"/>
 </g>
</svg>
