<?xml version="1.0" encoding="UTF-8"?>
<!--Generator: Apple Native CoreSVG 360-->
<!DOCTYPE svg
PUBLIC "-//W3C//DTD SVG 1.1//EN"
       "http://www.w3.org/Graphics/SVG/1.1/DTD/svg11.dtd">
<svg version="1.1" xmlns="http://www.w3.org/2000/svg" xmlns:xlink="http://www.w3.org/1999/xlink" viewBox="0 0 21.9258 21.5742">
 <g>
  <rect height="21.5742" opacity="0" width="21.9258" x="0" y="0"/>
  <path d="M3.67969 21.5742L17.8945 21.5742C20.3555 21.5742 21.5742 20.3672 21.5742 17.9531L21.5742 3.63281C21.5742 1.21875 20.3555 0 17.8945 0L3.67969 0C1.23047 0 0 1.21875 0 3.63281L0 17.9531C0 20.3672 1.23047 21.5742 3.67969 21.5742ZM3.70312 19.6875C2.53125 19.6875 1.88672 19.0664 1.88672 17.8477L1.88672 3.73828C1.88672 2.51953 2.53125 1.88672 3.70312 1.88672L17.8711 1.88672C19.0312 1.88672 19.6875 2.51953 19.6875 3.73828L19.6875 17.8477C19.6875 19.0664 19.0312 19.6875 17.8711 19.6875Z" fill="black" fill-opacity="0.85"/>
  <path d="M8.16797 15.6562C8.625 15.6562 9.01172 15.2695 9.01172 14.8008L9.01172 6.85547C9.01172 6.25781 8.63672 5.90625 8.03906 5.90625C7.54688 5.90625 7.14844 6.17578 6.86719 6.38672L5.57812 7.38281C5.37891 7.54688 5.21484 7.76953 5.21484 8.07422C5.21484 8.4375 5.46094 8.69531 5.8125 8.69531C6 8.69531 6.10547 8.63672 6.23438 8.55469L7.30078 7.6875L7.30078 14.8008C7.30078 15.2695 7.6875 15.6562 8.16797 15.6562ZM12.4102 15.6914C12.8438 15.6914 13.0312 15.5156 13.1953 15.0938L15.8672 7.94531C15.9961 7.58203 16.0898 7.30078 16.0898 6.96094C16.0898 6.42188 15.668 6.05859 15.1523 6.05859L11.3672 6.05859C10.9688 6.05859 10.6875 6.35156 10.6875 6.75C10.6875 7.14844 10.9688 7.44141 11.3672 7.44141L14.3789 7.44141L14.3789 7.54688L11.7773 14.2734C11.6719 14.5312 11.6367 14.6836 11.6367 14.9648C11.6367 15.3047 11.8477 15.6914 12.4102 15.6914Z" fill="black" fill-opacity="0.85"/>
 </g>
</svg>
