<?xml version="1.0" encoding="UTF-8"?>
<!--Generator: Apple Native CoreSVG 360-->
<!DOCTYPE svg
PUBLIC "-//W3C//DTD SVG 1.1//EN"
       "http://www.w3.org/Graphics/SVG/1.1/DTD/svg11.dtd">
<svg version="1.1" xmlns="http://www.w3.org/2000/svg" xmlns:xlink="http://www.w3.org/1999/xlink" viewBox="0 0 23.707 21.5977">
 <g>
  <rect height="21.5977" opacity="0" width="23.707" x="0" y="0"/>
  <path d="M3.67969 21.5977L19.6875 21.5977C22.1367 21.5977 23.3555 20.3789 23.3555 17.9648L23.3555 3.65625C23.3555 1.24219 22.1367 0.0234375 19.6875 0.0234375L3.67969 0.0234375C1.23047 0.0234375 0 1.23047 0 3.65625L0 17.9648C0 20.3906 1.23047 21.5977 3.67969 21.5977ZM3.50391 19.7109C2.46094 19.7109 1.88672 19.1602 1.88672 18.0703L1.88672 7.01953C1.88672 5.94141 2.46094 5.37891 3.50391 5.37891L19.8398 5.37891C20.8828 5.37891 21.4688 5.94141 21.4688 7.01953L21.4688 18.0703C21.4688 19.1602 20.8828 19.7109 19.8398 19.7109Z" fill="black" fill-opacity="0.85"/>
  <path d="M8.50781 17.4141C8.97656 17.4141 9.36328 17.0273 9.36328 16.5469L9.36328 8.61328C9.36328 8.00391 8.98828 7.65234 8.37891 7.65234C7.88672 7.65234 7.48828 7.92188 7.20703 8.13281L5.91797 9.14062C5.71875 9.29297 5.55469 9.52734 5.55469 9.83203C5.55469 10.1953 5.80078 10.4531 6.15234 10.4531C6.33984 10.4531 6.45703 10.3945 6.57422 10.3008L7.65234 9.44531L7.65234 16.5469C7.65234 17.0273 8.03906 17.4141 8.50781 17.4141ZM14.2266 17.4961C16.0781 17.4961 17.2617 16.3242 17.2617 14.7305C17.2617 13.4531 16.4531 12.5273 15.5156 12.3164L15.5156 12.2695C16.3008 12.0234 17.0039 11.2617 17.0039 10.1602C17.0039 8.64844 15.8789 7.60547 14.2266 7.60547C12.7734 7.60547 11.4609 8.49609 11.4609 10.1484C11.4609 11.3438 12.2109 12.0352 12.9609 12.2695L12.9609 12.3164C11.9648 12.5391 11.1914 13.4531 11.1914 14.7305C11.1914 16.4531 12.5039 17.4961 14.2266 17.4961ZM14.2266 11.7305C13.4766 11.7305 13.1016 11.0156 13.1016 10.3242C13.1016 9.57422 13.5 8.87109 14.2266 8.87109C14.9883 8.87109 15.3516 9.57422 15.3516 10.3242C15.3516 11.0859 14.9648 11.7305 14.2266 11.7305ZM14.2266 16.2305C13.3711 16.2305 12.9492 15.4688 12.9492 14.6016C12.9492 13.7461 13.3828 13.0078 14.2266 13.0078C15.0586 13.0078 15.5156 13.7109 15.5156 14.6016C15.5156 15.457 15.0938 16.2305 14.2266 16.2305Z" fill="black" fill-opacity="0.85"/>
 </g>
</svg>
