<?xml version="1.0" encoding="UTF-8"?>
<!--Generator: Apple Native CoreSVG 360-->
<!DOCTYPE svg
PUBLIC "-//W3C//DTD SVG 1.1//EN"
       "http://www.w3.org/Graphics/SVG/1.1/DTD/svg11.dtd">
<svg version="1.1" xmlns="http://www.w3.org/2000/svg" xmlns:xlink="http://www.w3.org/1999/xlink" viewBox="0 0 21.9258 21.5742">
 <g>
  <rect height="21.5742" opacity="0" width="21.9258" x="0" y="0"/>
  <path d="M3.67969 21.5742L17.8945 21.5742C20.3555 21.5742 21.5742 20.3672 21.5742 17.9531L21.5742 3.63281C21.5742 1.21875 20.3555 0 17.8945 0L3.67969 0C1.23047 0 0 1.21875 0 3.63281L0 17.9531C0 20.3672 1.23047 21.5742 3.67969 21.5742ZM3.70312 19.6875C2.53125 19.6875 1.88672 19.0664 1.88672 17.8477L1.88672 3.73828C1.88672 2.51953 2.53125 1.88672 3.70312 1.88672L17.8711 1.88672C19.0312 1.88672 19.6875 2.51953 19.6875 3.73828L19.6875 17.8477C19.6875 19.0664 19.0312 19.6875 17.8711 19.6875Z" fill="black" fill-opacity="0.85"/>
  <path d="M7.61719 15.6562C8.07422 15.6562 8.47266 15.2695 8.47266 14.8008L8.47266 6.85547C8.47266 6.25781 8.08594 5.90625 7.48828 5.90625C6.99609 5.90625 6.59766 6.17578 6.31641 6.38672L5.02734 7.38281C4.82812 7.54688 4.66406 7.76953 4.66406 8.07422C4.66406 8.4375 4.91016 8.69531 5.26172 8.69531C5.44922 8.69531 5.56641 8.63672 5.68359 8.55469L6.76172 7.6875L6.76172 14.8008C6.76172 15.2695 7.14844 15.6562 7.61719 15.6562ZM13.3359 15.7383C15.1875 15.7383 16.3711 14.5781 16.3711 12.9727C16.3711 11.6953 15.5625 10.7695 14.625 10.5586L14.625 10.5234C15.4102 10.2773 16.1133 9.51562 16.1133 8.40234C16.1133 6.89062 14.9883 5.85938 13.3359 5.85938C11.8828 5.85938 10.5703 6.75 10.5703 8.39062C10.5703 9.58594 11.3203 10.2891 12.0703 10.5234L12.0703 10.5586C11.0625 10.7812 10.3008 11.707 10.3008 12.9727C10.3008 14.707 11.6133 15.7383 13.3359 15.7383ZM13.3359 9.98438C12.5859 9.98438 12.1992 9.25781 12.1992 8.56641C12.1992 7.81641 12.6094 7.11328 13.3359 7.11328C14.0977 7.11328 14.4609 7.81641 14.4609 8.56641C14.4609 9.33984 14.0742 9.98438 13.3359 9.98438ZM13.3359 14.4727C12.4805 14.4727 12.0586 13.7109 12.0586 12.8438C12.0586 12 12.4922 11.25 13.3359 11.25C14.168 11.25 14.6133 11.9531 14.6133 12.8438C14.6133 13.7109 14.1914 14.4727 13.3359 14.4727Z" fill="black" fill-opacity="0.85"/>
 </g>
</svg>
