<?xml version="1.0" encoding="UTF-8"?>
<!--Generator: Apple Native CoreSVG 360-->
<!DOCTYPE svg
PUBLIC "-//W3C//DTD SVG 1.1//EN"
       "http://www.w3.org/Graphics/SVG/1.1/DTD/svg11.dtd">
<svg version="1.1" xmlns="http://www.w3.org/2000/svg" xmlns:xlink="http://www.w3.org/1999/xlink" viewBox="0 0 21.9258 21.5742">
 <g>
  <rect height="21.5742" opacity="0" width="21.9258" x="0" y="0"/>
  <path d="M3.67969 21.5742L17.8945 21.5742C20.3555 21.5742 21.5742 20.3672 21.5742 17.9531L21.5742 3.63281C21.5742 1.21875 20.3555 0 17.8945 0L3.67969 0C1.23047 0 0 1.21875 0 3.63281L0 17.9531C0 20.3672 1.23047 21.5742 3.67969 21.5742ZM3.70312 19.6875C2.53125 19.6875 1.88672 19.0664 1.88672 17.8477L1.88672 3.73828C1.88672 2.51953 2.53125 1.88672 3.70312 1.88672L17.8711 1.88672C19.0312 1.88672 19.6875 2.51953 19.6875 3.73828L19.6875 17.8477C19.6875 19.0664 19.0312 19.6875 17.8711 19.6875Z" fill="black" fill-opacity="0.85"/>
  <path d="M7.62891 15.6562C8.08594 15.6562 8.47266 15.2695 8.47266 14.8008L8.47266 6.85547C8.47266 6.25781 8.09766 5.90625 7.48828 5.90625C6.99609 5.90625 6.59766 6.17578 6.32812 6.38672L5.03906 7.38281C4.82812 7.54688 4.66406 7.76953 4.66406 8.07422C4.66406 8.4375 4.91016 8.69531 5.26172 8.69531C5.44922 8.69531 5.56641 8.63672 5.68359 8.55469L6.76172 7.6875L6.76172 14.8008C6.76172 15.2695 7.14844 15.6562 7.62891 15.6562ZM12.5859 12.2578C13.5352 12.2578 14.2617 11.625 14.5195 10.6172L14.5664 10.6172C14.5664 10.6641 14.5664 10.7109 14.5664 10.7461C14.5664 12.0469 14.4141 14.3906 13.1016 14.3906C12.5742 14.3906 12.2227 14.0273 12.0117 13.5234C11.8359 13.1367 11.6016 12.9844 11.25 12.9844C10.7695 12.9844 10.5586 13.3125 10.5586 13.6992C10.5586 13.8398 10.582 13.9805 10.6172 14.1211C10.875 15.1406 11.8945 15.7617 13.0664 15.7617C15.4688 15.7617 16.1719 13.1016 16.1719 10.6992C16.1719 8.48438 15.457 5.83594 13.0781 5.83594C11.2969 5.83594 10.2656 7.33594 10.2656 9.17578C10.2656 10.7578 11.0273 12.2578 12.5859 12.2578ZM13.1016 10.9688C12.2461 10.9688 11.8945 9.97266 11.8945 9.10547C11.8945 8.22656 12.293 7.19531 13.1016 7.19531C13.9922 7.19531 14.3438 8.22656 14.3438 9.10547C14.3438 10.0078 13.957 10.9688 13.1016 10.9688Z" fill="black" fill-opacity="0.85"/>
 </g>
</svg>
