<?xml version="1.0" encoding="UTF-8"?>
<!--Generator: Apple Native CoreSVG 360-->
<!DOCTYPE svg
PUBLIC "-//W3C//DTD SVG 1.1//EN"
       "http://www.w3.org/Graphics/SVG/1.1/DTD/svg11.dtd">
<svg version="1.1" xmlns="http://www.w3.org/2000/svg" xmlns:xlink="http://www.w3.org/1999/xlink" viewBox="0 0 33.7969 22.8633">
 <g>
  <rect height="22.8633" opacity="0" width="33.7969" x="0" y="0"/>
  <path d="M0 11.4258C0 15.1406 1.20703 18.5508 3.24609 21.3281C3.60938 21.832 4.23047 21.8789 4.69922 21.5039C5.12109 21.1406 5.17969 20.5781 4.83984 20.1094C3.05859 17.6836 2.00391 14.6719 2.00391 11.4258C2.00391 8.16797 3.05859 5.16797 4.83984 2.71875C5.17969 2.27344 5.13281 1.69922 4.69922 1.33594C4.23047 0.960938 3.60938 1.01953 3.24609 1.51172C1.20703 4.28906 0 7.71094 0 11.4258ZM33.4453 11.4258C33.4453 7.71094 32.25 4.28906 30.1992 1.51172C29.8359 1.01953 29.2148 0.960938 28.7461 1.33594C28.3125 1.69922 28.2773 2.27344 28.6055 2.71875C30.3984 5.16797 31.4414 8.16797 31.4414 11.4258C31.4414 14.6719 30.3984 17.6836 28.6055 20.1094C28.2773 20.5781 28.3242 21.1406 28.7461 21.5039C29.2148 21.8789 29.8359 21.832 30.1992 21.3281C32.25 18.5508 33.4453 15.1406 33.4453 11.4258Z" fill="black" fill-opacity="0.85"/>
  <path d="M16.7227 22.8516C23.0391 22.8516 28.1602 17.7305 28.1602 11.4258C28.1602 5.10938 23.0391 0 16.7227 0C10.418 0 5.29688 5.10938 5.29688 11.4258C5.29688 17.7305 10.418 22.8516 16.7227 22.8516ZM16.7227 20.8594C11.5195 20.8594 7.28906 16.6289 7.28906 11.4258C7.28906 6.21094 11.5195 1.98047 16.7227 1.98047C21.9375 1.98047 26.168 6.21094 26.168 11.4258C26.168 16.6289 21.9375 20.8594 16.7227 20.8594Z" fill="black" fill-opacity="0.85"/>
  <path d="M14.0625 16.7344L20.0859 16.7344C20.543 16.7344 20.8711 16.4414 20.8711 15.9727C20.8711 15.4805 20.543 15.1992 20.0859 15.1992L15.8086 15.1992L15.8086 15.1172L18.5977 12.1523C19.6289 11.0391 20.3555 10.1133 20.3555 8.8125C20.3555 7.03125 18.9258 5.84766 16.7578 5.84766C15.0938 5.84766 13.6289 6.85547 13.2422 8.16797C13.1953 8.34375 13.1836 8.48438 13.1836 8.63672C13.1836 9.09375 13.4883 9.38672 13.9453 9.38672C14.3555 9.38672 14.5664 9.12891 14.7773 8.80078C15.082 8.08594 15.7031 7.33594 16.8398 7.33594C17.9531 7.33594 18.7031 7.98047 18.7031 8.95312C18.7031 9.80859 17.9766 10.5234 17.2852 11.25L13.5469 15.2695C13.3359 15.4922 13.2305 15.7266 13.2305 15.9727C13.2305 16.4414 13.5469 16.7344 14.0625 16.7344Z" fill="black" fill-opacity="0.85"/>
 </g>
</svg>
