<?xml version="1.0" encoding="UTF-8"?>
<!--Generator: Apple Native CoreSVG 360-->
<!DOCTYPE svg
PUBLIC "-//W3C//DTD SVG 1.1//EN"
       "http://www.w3.org/Graphics/SVG/1.1/DTD/svg11.dtd">
<svg version="1.1" xmlns="http://www.w3.org/2000/svg" xmlns:xlink="http://www.w3.org/1999/xlink" viewBox="0 0 23.707 21.5977">
 <g>
  <rect height="21.5977" opacity="0" width="23.707" x="0" y="0"/>
  <path d="M3.67969 21.5977L19.6875 21.5977C22.1367 21.5977 23.3555 20.3789 23.3555 17.9648L23.3555 3.65625C23.3555 1.24219 22.1367 0.0234375 19.6875 0.0234375L3.67969 0.0234375C1.23047 0.0234375 0 1.23047 0 3.65625L0 17.9648C0 20.3906 1.23047 21.5977 3.67969 21.5977ZM3.50391 19.7109C2.46094 19.7109 1.88672 19.1602 1.88672 18.0703L1.88672 7.01953C1.88672 5.94141 2.46094 5.37891 3.50391 5.37891L19.8398 5.37891C20.8828 5.37891 21.4688 5.94141 21.4688 7.01953L21.4688 18.0703C21.4688 19.1602 20.8828 19.7109 19.8398 19.7109Z" fill="black" fill-opacity="0.85"/>
  <path d="M9.24609 17.4492L14.8008 17.4492C15.2227 17.4492 15.5273 17.168 15.5273 16.7344C15.5273 16.2891 15.2227 16.0312 14.8008 16.0312L10.8633 16.0312L10.8633 15.9492L13.4297 13.2188C14.3789 12.1992 15.0469 11.3438 15.0469 10.1367C15.0469 8.49609 13.7344 7.40625 11.7305 7.40625C10.207 7.40625 8.84766 8.33203 8.49609 9.55078C8.44922 9.70312 8.4375 9.84375 8.4375 9.98438C8.4375 10.3945 8.71875 10.6758 9.14062 10.6758C9.52734 10.6758 9.71484 10.4414 9.90234 10.125C10.1953 9.46875 10.7578 8.77734 11.8125 8.77734C12.8438 8.77734 13.5234 9.375 13.5234 10.2656C13.5234 11.0508 12.8555 11.7188 12.2227 12.3867L8.76562 16.0898C8.57812 16.3008 8.48438 16.5117 8.48438 16.7344C8.48438 17.168 8.76562 17.4492 9.24609 17.4492Z" fill="black" fill-opacity="0.85"/>
 </g>
</svg>
