<?xml version="1.0" encoding="UTF-8"?>
<!--Generator: Apple Native CoreSVG 360-->
<!DOCTYPE svg
PUBLIC "-//W3C//DTD SVG 1.1//EN"
       "http://www.w3.org/Graphics/SVG/1.1/DTD/svg11.dtd">
<svg version="1.1" xmlns="http://www.w3.org/2000/svg" xmlns:xlink="http://www.w3.org/1999/xlink" viewBox="0 0 24.2578 23.918">
 <g>
  <rect height="23.918" opacity="0" width="24.2578" x="0" y="0"/>
  <path d="M11.9531 23.9062C18.5508 23.9062 23.9062 18.5508 23.9062 11.9531C23.9062 5.35547 18.5508 0 11.9531 0C5.35547 0 0 5.35547 0 11.9531C0 18.5508 5.35547 23.9062 11.9531 23.9062ZM11.9531 21.9141C6.44531 21.9141 1.99219 17.4609 1.99219 11.9531C1.99219 6.44531 6.44531 1.99219 11.9531 1.99219C17.4609 1.99219 21.9141 6.44531 21.9141 11.9531C21.9141 17.4609 17.4609 21.9141 11.9531 21.9141Z" fill="black" fill-opacity="0.85"/>
  <path d="M9.28125 17.2617L15.3047 17.2617C15.7617 17.2617 16.0898 16.9688 16.0898 16.5C16.0898 16.0078 15.7617 15.7266 15.3047 15.7266L11.0273 15.7266L11.0273 15.6445L13.8164 12.6797C14.8477 11.5664 15.5742 10.6406 15.5742 9.33984C15.5742 7.55859 14.1445 6.375 11.9766 6.375C10.3125 6.375 8.84766 7.38281 8.46094 8.69531C8.41406 8.87109 8.40234 9.01172 8.40234 9.16406C8.40234 9.62109 8.70703 9.91406 9.16406 9.91406C9.57422 9.91406 9.78516 9.65625 9.99609 9.32812C10.3008 8.61328 10.9219 7.86328 12.0586 7.86328C13.1719 7.86328 13.9102 8.50781 13.9102 9.48047C13.9102 10.3359 13.1953 11.0508 12.5039 11.7773L8.75391 15.7969C8.55469 16.0195 8.44922 16.2539 8.44922 16.5C8.44922 16.9688 8.76562 17.2617 9.28125 17.2617Z" fill="black" fill-opacity="0.85"/>
 </g>
</svg>
