<?xml version="1.0" encoding="UTF-8"?>
<!--Generator: Apple Native CoreSVG 360-->
<!DOCTYPE svg
PUBLIC "-//W3C//DTD SVG 1.1//EN"
       "http://www.w3.org/Graphics/SVG/1.1/DTD/svg11.dtd">
<svg version="1.1" xmlns="http://www.w3.org/2000/svg" xmlns:xlink="http://www.w3.org/1999/xlink" viewBox="0 0 21.9258 17.6836">
 <g>
  <rect height="17.6836" opacity="0" width="21.9258" x="0" y="0"/>
  <path d="M0 16.7344C0 17.25 0.421875 17.6836 0.9375 17.6836C1.46484 17.6836 1.88672 17.25 1.88672 16.7344L1.88672 0.960938C1.88672 0.445312 1.46484 0.0234375 0.9375 0.0234375C0.421875 0.0234375 0 0.445312 0 0.960938ZM19.6875 16.7344C19.6875 17.25 20.1211 17.6836 20.6367 17.6836C21.1523 17.6836 21.5742 17.25 21.5742 16.7344L21.5742 0.960938C21.5742 0.445312 21.1523 0.0234375 20.6367 0.0234375C20.1211 0.0234375 19.6875 0.445312 19.6875 0.960938Z" fill="black" fill-opacity="0.85"/>
  <path d="M8.4375 14.2852L13.3359 14.2852C13.8047 14.2852 14.0977 13.9922 14.0977 13.5234C14.0977 13.0664 13.8047 12.7852 13.3359 12.7852L9.91406 12.7852L9.91406 12.6797L11.8945 10.4766C12.375 9.9375 12.75 9.46875 13.043 9.08203C13.5586 8.36719 13.8516 7.6875 13.8516 6.82031C13.8516 4.98047 12.4805 3.87891 10.6875 3.87891C9.1875 3.87891 7.95703 4.875 7.65234 6.02344C7.61719 6.19922 7.58203 6.36328 7.58203 6.52734C7.58203 7.00781 7.88672 7.3125 8.36719 7.3125C8.77734 7.3125 9.03516 7.10156 9.1875 6.71484C9.41016 5.88281 9.89062 5.34375 10.6875 5.34375C11.5664 5.34375 12.0586 6.02344 12.0586 6.89062C12.0586 7.53516 11.8359 8.01562 11.4727 8.54297C11.25 8.85938 10.9336 9.25781 10.5352 9.72656L8.0625 12.5156C7.79297 12.7969 7.55859 13.0898 7.55859 13.5117C7.55859 13.8867 7.76953 14.2852 8.4375 14.2852Z" fill="black" fill-opacity="0.85"/>
 </g>
</svg>
