<?xml version="1.0" encoding="UTF-8"?>
<!--Generator: Apple Native CoreSVG 360-->
<!DOCTYPE svg
PUBLIC "-//W3C//DTD SVG 1.1//EN"
       "http://www.w3.org/Graphics/SVG/1.1/DTD/svg11.dtd">
<svg version="1.1" xmlns="http://www.w3.org/2000/svg" xmlns:xlink="http://www.w3.org/1999/xlink" viewBox="0 0 21.9258 21.5742">
 <g>
  <rect height="21.5742" opacity="0" width="21.9258" x="0" y="0"/>
  <path d="M3.67969 21.5742L17.8945 21.5742C20.3555 21.5742 21.5742 20.3672 21.5742 17.9531L21.5742 3.63281C21.5742 1.21875 20.3555 0 17.8945 0L3.67969 0C1.23047 0 0 1.21875 0 3.63281L0 17.9531C0 20.3672 1.23047 21.5742 3.67969 21.5742ZM3.70312 19.6875C2.53125 19.6875 1.88672 19.0664 1.88672 17.8477L1.88672 3.73828C1.88672 2.51953 2.53125 1.88672 3.70312 1.88672L17.8711 1.88672C19.0312 1.88672 19.6875 2.51953 19.6875 3.73828L19.6875 17.8477C19.6875 19.0664 19.0312 19.6875 17.8711 19.6875Z" fill="black" fill-opacity="0.85"/>
  <path d="M8.13281 16.1016L14.1562 16.1016C14.6133 16.1016 14.9414 15.8086 14.9414 15.3398C14.9414 14.8477 14.6133 14.5664 14.1562 14.5664L9.87891 14.5664L9.87891 14.4844L12.668 11.5195C13.6992 10.4062 14.4258 9.48047 14.4258 8.17969C14.4258 6.39844 12.9961 5.21484 10.8281 5.21484C9.16406 5.21484 7.69922 6.22266 7.3125 7.53516C7.26562 7.71094 7.25391 7.85156 7.25391 8.00391C7.25391 8.46094 7.55859 8.75391 8.01562 8.75391C8.4375 8.75391 8.63672 8.49609 8.84766 8.16797C9.15234 7.45312 9.77344 6.70312 10.9102 6.70312C12.0234 6.70312 12.7734 7.34766 12.7734 8.32031C12.7734 9.17578 12.0469 9.89062 11.3555 10.6172L7.61719 14.6367C7.40625 14.8594 7.30078 15.0938 7.30078 15.3398C7.30078 15.8086 7.61719 16.1016 8.13281 16.1016Z" fill="black" fill-opacity="0.85"/>
 </g>
</svg>
