<?xml version="1.0" encoding="UTF-8"?>
<!--Generator: Apple Native CoreSVG 360-->
<!DOCTYPE svg
PUBLIC "-//W3C//DTD SVG 1.1//EN"
       "http://www.w3.org/Graphics/SVG/1.1/DTD/svg11.dtd">
<svg version="1.1" xmlns="http://www.w3.org/2000/svg" xmlns:xlink="http://www.w3.org/1999/xlink" viewBox="0 0 24.2578 23.918">
 <g>
  <rect height="23.918" opacity="0" width="24.2578" x="0" y="0"/>
  <path d="M11.9531 23.9062C18.5508 23.9062 23.9062 18.5508 23.9062 11.9531C23.9062 5.35547 18.5508 0 11.9531 0C5.35547 0 0 5.35547 0 11.9531C0 18.5508 5.35547 23.9062 11.9531 23.9062ZM11.9531 21.9141C6.44531 21.9141 1.99219 17.4609 1.99219 11.9531C1.99219 6.44531 6.44531 1.99219 11.9531 1.99219C17.4609 1.99219 21.9141 6.44531 21.9141 11.9531C21.9141 17.4609 17.4609 21.9141 11.9531 21.9141Z" fill="black" fill-opacity="0.85"/>
  <path d="M6.45703 16.6875L10.5234 16.6875C10.9453 16.6875 11.1914 16.418 11.1914 16.0078C11.1914 15.5625 10.9336 15.3164 10.5234 15.3164L7.74609 15.3164L7.74609 15.2227L9.45703 13.0547C10.6289 11.6016 11.0156 10.7344 11.0156 9.70312C11.0156 8.12109 9.9375 6.97266 8.32031 6.97266C6.82031 6.97266 5.68359 8.21484 5.68359 9.43359C5.68359 9.86719 5.94141 10.1719 6.38672 10.1719C6.77344 10.1719 7.00781 9.99609 7.125 9.60938C7.34766 8.82422 7.64062 8.33203 8.30859 8.33203C9.02344 8.33203 9.41016 8.95312 9.41016 9.78516C9.41016 10.7227 8.76562 11.6719 8.14453 12.4688L6.10547 15.0703C5.88281 15.3516 5.67188 15.6445 5.67188 16.0078C5.67188 16.4062 5.92969 16.6875 6.45703 16.6875ZM15.457 16.9336C17.7891 16.9336 18.4805 14.3086 18.4805 11.9531C18.4805 9.59766 17.7891 6.97266 15.457 6.97266C13.1133 6.97266 12.4219 9.59766 12.4219 11.9531C12.4219 14.3086 13.1133 16.9336 15.457 16.9336ZM15.457 15.5391C14.4961 15.5391 14.1328 13.9805 14.1328 11.9531C14.1328 9.91406 14.4961 8.35547 15.457 8.35547C16.4062 8.35547 16.7695 9.91406 16.7695 11.9531C16.7695 13.9805 16.4062 15.5391 15.457 15.5391Z" fill="black" fill-opacity="0.85"/>
 </g>
</svg>
