<?xml version="1.0" encoding="UTF-8"?>
<!--Generator: Apple Native CoreSVG 360-->
<!DOCTYPE svg
PUBLIC "-//W3C//DTD SVG 1.1//EN"
       "http://www.w3.org/Graphics/SVG/1.1/DTD/svg11.dtd">
<svg version="1.1" xmlns="http://www.w3.org/2000/svg" xmlns:xlink="http://www.w3.org/1999/xlink" viewBox="0 0 23.707 21.5977">
 <g>
  <rect height="21.5977" opacity="0" width="23.707" x="0" y="0"/>
  <path d="M3.67969 21.5977L19.6875 21.5977C22.1367 21.5977 23.3555 20.3789 23.3555 17.9648L23.3555 3.65625C23.3555 1.24219 22.1367 0.0234375 19.6875 0.0234375L3.67969 0.0234375C1.23047 0.0234375 0 1.23047 0 3.65625L0 17.9648C0 20.3906 1.23047 21.5977 3.67969 21.5977ZM3.50391 19.7109C2.46094 19.7109 1.88672 19.1602 1.88672 18.0703L1.88672 7.01953C1.88672 5.94141 2.46094 5.37891 3.50391 5.37891L19.8398 5.37891C20.8828 5.37891 21.4688 5.94141 21.4688 7.01953L21.4688 18.0703C21.4688 19.1602 20.8828 19.7109 19.8398 19.7109Z" fill="black" fill-opacity="0.85"/>
  <path d="M6.19922 17.2852L10.2656 17.2852C10.6875 17.2852 10.9336 17.0156 10.9336 16.5938C10.9336 16.1602 10.6758 15.9141 10.2656 15.9141L7.48828 15.9141L7.48828 15.8203L9.19922 13.6523C10.3711 12.1992 10.7578 11.332 10.7578 10.3008C10.7578 8.70703 9.67969 7.57031 8.0625 7.57031C6.5625 7.57031 5.42578 8.8125 5.42578 10.0312C5.42578 10.4531 5.68359 10.7695 6.12891 10.7695C6.51562 10.7695 6.75 10.5938 6.87891 10.207C7.08984 9.42188 7.38281 8.91797 8.0625 8.91797C8.76562 8.91797 9.16406 9.55078 9.16406 10.3711C9.16406 11.3203 8.50781 12.2578 7.88672 13.0547L5.84766 15.668C5.63672 15.9492 5.41406 16.2305 5.41406 16.6055C5.41406 16.9922 5.67188 17.2852 6.19922 17.2852ZM15.1992 17.5195C17.5312 17.5195 18.2344 14.9062 18.2344 12.5508C18.2344 10.1836 17.5312 7.57031 15.1992 7.57031C12.8672 7.57031 12.1641 10.1836 12.1641 12.5508C12.1641 14.9062 12.8672 17.5195 15.1992 17.5195ZM15.1992 16.1367C14.2383 16.1367 13.875 14.5781 13.875 12.5508C13.875 10.5117 14.2383 8.95312 15.1992 8.95312C16.1602 8.95312 16.5234 10.5117 16.5234 12.5508C16.5234 14.5781 16.1602 16.1367 15.1992 16.1367Z" fill="black" fill-opacity="0.85"/>
 </g>
</svg>
