<?xml version="1.0" encoding="UTF-8"?>
<!--Generator: Apple Native CoreSVG 360-->
<!DOCTYPE svg
PUBLIC "-//W3C//DTD SVG 1.1//EN"
       "http://www.w3.org/Graphics/SVG/1.1/DTD/svg11.dtd">
<svg version="1.1" xmlns="http://www.w3.org/2000/svg" xmlns:xlink="http://www.w3.org/1999/xlink" viewBox="0 0 21.9258 21.5742">
 <g>
  <rect height="21.5742" opacity="0" width="21.9258" x="0" y="0"/>
  <path d="M3.67969 21.5742L17.8945 21.5742C20.3555 21.5742 21.5742 20.3672 21.5742 17.9531L21.5742 3.63281C21.5742 1.21875 20.3555 0 17.8945 0L3.67969 0C1.23047 0 0 1.21875 0 3.63281L0 17.9531C0 20.3672 1.23047 21.5742 3.67969 21.5742ZM3.70312 19.6875C2.53125 19.6875 1.88672 19.0664 1.88672 17.8477L1.88672 3.73828C1.88672 2.51953 2.53125 1.88672 3.70312 1.88672L17.8711 1.88672C19.0312 1.88672 19.6875 2.51953 19.6875 3.73828L19.6875 17.8477C19.6875 19.0664 19.0312 19.6875 17.8711 19.6875Z" fill="black" fill-opacity="0.85"/>
  <path d="M5.30859 15.5273L9.375 15.5273C9.79688 15.5273 10.043 15.2578 10.043 14.8477C10.043 14.4023 9.78516 14.1562 9.375 14.1562L6.59766 14.1562L6.59766 14.0625L8.30859 11.8945C9.48047 10.4414 9.86719 9.57422 9.86719 8.54297C9.86719 6.96094 8.78906 5.8125 7.17188 5.8125C5.67188 5.8125 4.53516 7.05469 4.53516 8.27344C4.53516 8.70703 4.79297 9.01172 5.23828 9.01172C5.625 9.01172 5.85938 8.83594 5.98828 8.44922C6.19922 7.66406 6.49219 7.17188 7.16016 7.17188C7.875 7.17188 8.26172 7.79297 8.26172 8.625C8.26172 9.5625 7.61719 10.5117 6.99609 11.3086L4.95703 13.9102C4.73438 14.1914 4.52344 14.4844 4.52344 14.8477C4.52344 15.2461 4.78125 15.5273 5.30859 15.5273ZM14.3086 15.7734C16.6406 15.7734 17.332 13.1484 17.332 10.793C17.332 8.4375 16.6406 5.8125 14.3086 5.8125C11.9648 5.8125 11.2734 8.4375 11.2734 10.793C11.2734 13.1484 11.9648 15.7734 14.3086 15.7734ZM14.3086 14.3789C13.3477 14.3789 12.9844 12.8203 12.9844 10.793C12.9844 8.75391 13.3477 7.19531 14.3086 7.19531C15.2695 7.19531 15.6211 8.75391 15.6211 10.793C15.6211 12.8203 15.2695 14.3789 14.3086 14.3789Z" fill="black" fill-opacity="0.85"/>
 </g>
</svg>
