<?xml version="1.0" encoding="UTF-8"?>
<!--Generator: Apple Native CoreSVG 360-->
<!DOCTYPE svg
PUBLIC "-//W3C//DTD SVG 1.1//EN"
       "http://www.w3.org/Graphics/SVG/1.1/DTD/svg11.dtd">
<svg version="1.1" xmlns="http://www.w3.org/2000/svg" xmlns:xlink="http://www.w3.org/1999/xlink" viewBox="0 0 23.707 21.5977">
 <g>
  <rect height="21.5977" opacity="0" width="23.707" x="0" y="0"/>
  <path d="M3.67969 21.5977L19.6875 21.5977C22.1367 21.5977 23.3555 20.3789 23.3555 17.9648L23.3555 3.65625C23.3555 1.24219 22.1367 0.0234375 19.6875 0.0234375L3.67969 0.0234375C1.23047 0.0234375 0 1.23047 0 3.65625L0 17.9648C0 20.3906 1.23047 21.5977 3.67969 21.5977ZM3.50391 19.7109C2.46094 19.7109 1.88672 19.1602 1.88672 18.0703L1.88672 7.01953C1.88672 5.94141 2.46094 5.37891 3.50391 5.37891L19.8398 5.37891C20.8828 5.37891 21.4688 5.94141 21.4688 7.01953L21.4688 18.0703C21.4688 19.1602 20.8828 19.7109 19.8398 19.7109Z" fill="black" fill-opacity="0.85"/>
  <path d="M7.05469 17.2852L11.1211 17.2852C11.543 17.2852 11.7891 17.0156 11.7891 16.5938C11.7891 16.1602 11.5312 15.9141 11.1211 15.9141L8.34375 15.9141L8.34375 15.8203L10.0547 13.6523C11.2266 12.1992 11.6133 11.332 11.6133 10.3008C11.6133 8.70703 10.5352 7.57031 8.91797 7.57031C7.41797 7.57031 6.28125 8.8125 6.28125 10.0312C6.28125 10.4531 6.53906 10.7695 6.98438 10.7695C7.37109 10.7695 7.60547 10.5938 7.73438 10.207C7.94531 9.42188 8.23828 8.91797 8.90625 8.91797C9.62109 8.91797 10.0195 9.55078 10.0195 10.3711C10.0195 11.3203 9.36328 12.2578 8.74219 13.0547L6.70312 15.668C6.49219 15.9492 6.26953 16.2305 6.26953 16.6055C6.26953 16.9922 6.52734 17.2852 7.05469 17.2852ZM15.7148 17.4141C16.1719 17.4141 16.5586 17.0273 16.5586 16.5469L16.5586 8.61328C16.5586 8.00391 16.1836 7.65234 15.5742 7.65234C15.082 7.65234 14.6836 7.92188 14.4141 8.13281L13.125 9.14062C12.9141 9.29297 12.75 9.52734 12.75 9.83203C12.75 10.1953 12.9961 10.4531 13.3477 10.4531C13.5352 10.4531 13.6523 10.3945 13.7695 10.3008L14.8477 9.44531L14.8477 16.5469C14.8477 17.0273 15.2344 17.4141 15.7148 17.4141Z" fill="black" fill-opacity="0.85"/>
 </g>
</svg>
