<?xml version="1.0" encoding="UTF-8"?>
<!--Generator: Apple Native CoreSVG 360-->
<!DOCTYPE svg
PUBLIC "-//W3C//DTD SVG 1.1//EN"
       "http://www.w3.org/Graphics/SVG/1.1/DTD/svg11.dtd">
<svg version="1.1" xmlns="http://www.w3.org/2000/svg" xmlns:xlink="http://www.w3.org/1999/xlink" viewBox="0 0 24.2578 23.918">
 <g>
  <rect height="23.918" opacity="0" width="24.2578" x="0" y="0"/>
  <path d="M11.9531 23.9062C18.5508 23.9062 23.9062 18.5508 23.9062 11.9531C23.9062 5.35547 18.5508 0 11.9531 0C5.35547 0 0 5.35547 0 11.9531C0 18.5508 5.35547 23.9062 11.9531 23.9062ZM11.9531 21.9141C6.44531 21.9141 1.99219 17.4609 1.99219 11.9531C1.99219 6.44531 6.44531 1.99219 11.9531 1.99219C17.4609 1.99219 21.9141 6.44531 21.9141 11.9531C21.9141 17.4609 17.4609 21.9141 11.9531 21.9141Z" fill="black" fill-opacity="0.85"/>
  <path d="M7.3125 16.6875L11.3789 16.6875C11.7891 16.6875 12.0469 16.418 12.0469 16.0078C12.0469 15.5625 11.7773 15.3164 11.3789 15.3164L8.60156 15.3164L8.60156 15.2227L10.3125 13.0547C11.4844 11.6016 11.8711 10.7344 11.8711 9.70312C11.8711 8.12109 10.793 6.97266 9.17578 6.97266C7.67578 6.97266 6.53906 8.21484 6.53906 9.43359C6.53906 9.86719 6.79688 10.1719 7.24219 10.1719C7.62891 10.1719 7.86328 9.99609 7.98047 9.60938C8.20312 8.82422 8.49609 8.33203 9.16406 8.33203C9.87891 8.33203 10.2656 8.95312 10.2656 9.78516C10.2656 10.7227 9.62109 11.6719 9 12.4688L6.96094 15.0703C6.73828 15.3516 6.52734 15.6445 6.52734 16.0078C6.52734 16.4062 6.78516 16.6875 7.3125 16.6875ZM15.9609 16.8164C16.4297 16.8164 16.8164 16.4297 16.8164 15.9609L16.8164 8.01562C16.8164 7.41797 16.4414 7.06641 15.832 7.06641C15.3398 7.06641 14.9414 7.33594 14.6602 7.54688L13.3711 8.54297C13.1719 8.70703 13.0078 8.92969 13.0078 9.23438C13.0078 9.59766 13.2539 9.85547 13.6055 9.85547C13.793 9.85547 13.9102 9.79688 14.0273 9.71484L15.1055 8.84766L15.1055 15.9609C15.1055 16.4297 15.4922 16.8164 15.9609 16.8164Z" fill="black" fill-opacity="0.85"/>
 </g>
</svg>
