<?xml version="1.0" encoding="UTF-8"?>
<!--Generator: Apple Native CoreSVG 360-->
<!DOCTYPE svg
PUBLIC "-//W3C//DTD SVG 1.1//EN"
       "http://www.w3.org/Graphics/SVG/1.1/DTD/svg11.dtd">
<svg version="1.1" xmlns="http://www.w3.org/2000/svg" xmlns:xlink="http://www.w3.org/1999/xlink" viewBox="0 0 21.9258 21.5742">
 <g>
  <rect height="21.5742" opacity="0" width="21.9258" x="0" y="0"/>
  <path d="M3.67969 21.5742L17.8945 21.5742C20.3555 21.5742 21.5742 20.3672 21.5742 17.9531L21.5742 3.63281C21.5742 1.21875 20.3555 0 17.8945 0L3.67969 0C1.23047 0 0 1.21875 0 3.63281L0 17.9531C0 20.3672 1.23047 21.5742 3.67969 21.5742ZM3.70312 19.6875C2.53125 19.6875 1.88672 19.0664 1.88672 17.8477L1.88672 3.73828C1.88672 2.51953 2.53125 1.88672 3.70312 1.88672L17.8711 1.88672C19.0312 1.88672 19.6875 2.51953 19.6875 3.73828L19.6875 17.8477C19.6875 19.0664 19.0312 19.6875 17.8711 19.6875Z" fill="black" fill-opacity="0.85"/>
  <path d="M6.16406 15.5273L10.2305 15.5273C10.6523 15.5273 10.8984 15.2578 10.8984 14.8477C10.8984 14.4023 10.6406 14.1562 10.2305 14.1562L7.45312 14.1562L7.45312 14.0625L9.16406 11.8945C10.3359 10.4414 10.7227 9.57422 10.7227 8.54297C10.7227 6.96094 9.64453 5.8125 8.02734 5.8125C6.52734 5.8125 5.39062 7.05469 5.39062 8.27344C5.39062 8.70703 5.64844 9.01172 6.09375 9.01172C6.48047 9.01172 6.71484 8.83594 6.83203 8.44922C7.05469 7.66406 7.34766 7.17188 8.01562 7.17188C8.73047 7.17188 9.11719 7.79297 9.11719 8.625C9.11719 9.5625 8.47266 10.5117 7.85156 11.3086L5.8125 13.9102C5.58984 14.1914 5.37891 14.4844 5.37891 14.8477C5.37891 15.2461 5.63672 15.5273 6.16406 15.5273ZM14.8125 15.6562C15.2812 15.6562 15.668 15.2695 15.668 14.8008L15.668 6.85547C15.668 6.25781 15.293 5.90625 14.6836 5.90625C14.1914 5.90625 13.793 6.17578 13.5234 6.38672L12.2344 7.38281C12.0234 7.54688 11.8594 7.76953 11.8594 8.07422C11.8594 8.4375 12.1055 8.69531 12.457 8.69531C12.6445 8.69531 12.7617 8.63672 12.8789 8.55469L13.957 7.6875L13.957 14.8008C13.957 15.2695 14.3438 15.6562 14.8125 15.6562Z" fill="black" fill-opacity="0.85"/>
 </g>
</svg>
