<?xml version="1.0" encoding="UTF-8"?>
<!--Generator: Apple Native CoreSVG 360-->
<!DOCTYPE svg
PUBLIC "-//W3C//DTD SVG 1.1//EN"
       "http://www.w3.org/Graphics/SVG/1.1/DTD/svg11.dtd">
<svg version="1.1" xmlns="http://www.w3.org/2000/svg" xmlns:xlink="http://www.w3.org/1999/xlink" viewBox="0 0 23.707 21.5977">
 <g>
  <rect height="21.5977" opacity="0" width="23.707" x="0" y="0"/>
  <path d="M3.67969 21.5977L19.6875 21.5977C22.1367 21.5977 23.3555 20.3789 23.3555 17.9648L23.3555 3.65625C23.3555 1.24219 22.1367 0.0234375 19.6875 0.0234375L3.67969 0.0234375C1.23047 0.0234375 0 1.23047 0 3.65625L0 17.9648C0 20.3906 1.23047 21.5977 3.67969 21.5977ZM3.50391 19.7109C2.46094 19.7109 1.88672 19.1602 1.88672 18.0703L1.88672 7.01953C1.88672 5.94141 2.46094 5.37891 3.50391 5.37891L19.8398 5.37891C20.8828 5.37891 21.4688 5.94141 21.4688 7.01953L21.4688 18.0703C21.4688 19.1602 20.8828 19.7109 19.8398 19.7109Z" fill="black" fill-opacity="0.85"/>
  <path d="M6.43359 17.2852L10.5 17.2852C10.9102 17.2852 11.168 17.0156 11.168 16.5938C11.168 16.1602 10.8984 15.9141 10.5 15.9141L7.71094 15.9141L7.71094 15.8203L9.42188 13.6523C10.6055 12.1992 10.9805 11.332 10.9805 10.3008C10.9805 8.70703 9.91406 7.57031 8.28516 7.57031C6.79688 7.57031 5.66016 8.8125 5.66016 10.0312C5.66016 10.4531 5.90625 10.7695 6.35156 10.7695C6.73828 10.7695 6.98438 10.5938 7.10156 10.207C7.32422 9.42188 7.61719 8.91797 8.28516 8.91797C8.98828 8.91797 9.38672 9.55078 9.38672 10.3711C9.38672 11.3203 8.73047 12.2578 8.10938 13.0547L6.08203 15.668C5.85938 15.9492 5.63672 16.2305 5.63672 16.6055C5.63672 16.9922 5.89453 17.2852 6.43359 17.2852ZM13.1484 17.2852L17.2148 17.2852C17.625 17.2852 17.8828 17.0156 17.8828 16.5938C17.8828 16.1602 17.6133 15.9141 17.2148 15.9141L14.4375 15.9141L14.4375 15.8203L16.1367 13.6523C17.3203 12.1992 17.707 11.332 17.707 10.3008C17.707 8.70703 16.6289 7.57031 15.0117 7.57031C13.5117 7.57031 12.375 8.8125 12.375 10.0312C12.375 10.4531 12.6211 10.7695 13.0781 10.7695C13.4648 10.7695 13.6992 10.5938 13.8164 10.207C14.0391 9.42188 14.332 8.91797 15 8.91797C15.7031 8.91797 16.1016 9.55078 16.1016 10.3711C16.1016 11.3203 15.4453 12.2578 14.8242 13.0547L12.7969 15.668C12.5742 15.9492 12.3633 16.2305 12.3633 16.6055C12.3633 16.9922 12.6094 17.2852 13.1484 17.2852Z" fill="black" fill-opacity="0.85"/>
 </g>
</svg>
