<?xml version="1.0" encoding="UTF-8"?>
<!--Generator: Apple Native CoreSVG 360-->
<!DOCTYPE svg
PUBLIC "-//W3C//DTD SVG 1.1//EN"
       "http://www.w3.org/Graphics/SVG/1.1/DTD/svg11.dtd">
<svg version="1.1" xmlns="http://www.w3.org/2000/svg" xmlns:xlink="http://www.w3.org/1999/xlink" viewBox="0 0 24.2578 23.918">
 <g>
  <rect height="23.918" opacity="0" width="24.2578" x="0" y="0"/>
  <path d="M11.9531 23.9062C18.5508 23.9062 23.9062 18.5508 23.9062 11.9531C23.9062 5.35547 18.5508 0 11.9531 0C5.35547 0 0 5.35547 0 11.9531C0 18.5508 5.35547 23.9062 11.9531 23.9062ZM11.9531 21.9141C6.44531 21.9141 1.99219 17.4609 1.99219 11.9531C1.99219 6.44531 6.44531 1.99219 11.9531 1.99219C17.4609 1.99219 21.9141 6.44531 21.9141 11.9531C21.9141 17.4609 17.4609 21.9141 11.9531 21.9141Z" fill="black" fill-opacity="0.85"/>
  <path d="M6.67969 16.6875L10.7461 16.6875C11.168 16.6875 11.4141 16.418 11.4141 16.0078C11.4141 15.5625 11.1562 15.3164 10.7461 15.3164L7.96875 15.3164L7.96875 15.2227L9.67969 13.0547C10.8516 11.6016 11.2383 10.7344 11.2383 9.70312C11.2383 8.12109 10.1602 6.97266 8.54297 6.97266C7.04297 6.97266 5.90625 8.21484 5.90625 9.43359C5.90625 9.86719 6.16406 10.1719 6.60938 10.1719C6.99609 10.1719 7.23047 9.99609 7.35938 9.60938C7.57031 8.82422 7.86328 8.33203 8.54297 8.33203C9.24609 8.33203 9.64453 8.95312 9.64453 9.78516C9.64453 10.7227 8.98828 11.6719 8.36719 12.4688L6.32812 15.0703C6.11719 15.3516 5.89453 15.6445 5.89453 16.0078C5.89453 16.4062 6.15234 16.6875 6.67969 16.6875ZM13.4062 16.6875L17.4727 16.6875C17.8828 16.6875 18.1289 16.418 18.1289 16.0078C18.1289 15.5625 17.8711 15.3164 17.4727 15.3164L14.6836 15.3164L14.6836 15.2227L16.3945 13.0547C17.5664 11.6016 17.9531 10.7344 17.9531 9.70312C17.9531 8.12109 16.875 6.97266 15.2578 6.97266C13.7695 6.97266 12.6328 8.21484 12.6328 9.43359C12.6328 9.86719 12.8789 10.1719 13.3242 10.1719C13.7109 10.1719 13.957 9.99609 14.0742 9.60938C14.2969 8.82422 14.5781 8.33203 15.2578 8.33203C15.9609 8.33203 16.3594 8.95312 16.3594 9.78516C16.3594 10.7227 15.7031 11.6719 15.082 12.4688L13.043 15.0703C12.832 15.3516 12.6094 15.6445 12.6094 16.0078C12.6094 16.4062 12.8672 16.6875 13.4062 16.6875Z" fill="black" fill-opacity="0.85"/>
 </g>
</svg>
