<?xml version="1.0" encoding="UTF-8"?>
<!--Generator: Apple Native CoreSVG 360-->
<!DOCTYPE svg
PUBLIC "-//W3C//DTD SVG 1.1//EN"
       "http://www.w3.org/Graphics/SVG/1.1/DTD/svg11.dtd">
<svg version="1.1" xmlns="http://www.w3.org/2000/svg" xmlns:xlink="http://www.w3.org/1999/xlink" viewBox="0 0 23.707 21.5977">
 <g>
  <rect height="21.5977" opacity="0" width="23.707" x="0" y="0"/>
  <path d="M3.67969 21.5977L19.6875 21.5977C22.1367 21.5977 23.3555 20.3789 23.3555 17.9648L23.3555 3.65625C23.3555 1.24219 22.1367 0.0234375 19.6875 0.0234375L3.67969 0.0234375C1.23047 0.0234375 0 1.23047 0 3.65625L0 17.9648C0 20.3906 1.23047 21.5977 3.67969 21.5977ZM3.50391 19.7109C2.46094 19.7109 1.88672 19.1602 1.88672 18.0703L1.88672 7.01953C1.88672 5.94141 2.46094 5.37891 3.50391 5.37891L19.8398 5.37891C20.8828 5.37891 21.4688 5.94141 21.4688 7.01953L21.4688 18.0703C21.4688 19.1602 20.8828 19.7109 19.8398 19.7109Z" fill="black" fill-opacity="0.85"/>
  <path d="M6.22266 17.2852L10.2891 17.2852C10.6992 17.2852 10.9453 17.0156 10.9453 16.5938C10.9453 16.1602 10.6875 15.9141 10.2891 15.9141L7.5 15.9141L7.5 15.8203L9.21094 13.6523C10.3945 12.1992 10.7695 11.332 10.7695 10.3008C10.7695 8.70703 9.70312 7.57031 8.07422 7.57031C6.58594 7.57031 5.44922 8.8125 5.44922 10.0312C5.44922 10.4531 5.69531 10.7695 6.14062 10.7695C6.52734 10.7695 6.77344 10.5938 6.89062 10.207C7.11328 9.42188 7.39453 8.91797 8.07422 8.91797C8.77734 8.91797 9.17578 9.55078 9.17578 10.3711C9.17578 11.3203 8.51953 12.2578 7.89844 13.0547L5.85938 15.668C5.64844 15.9492 5.42578 16.2305 5.42578 16.6055C5.42578 16.9922 5.68359 17.2852 6.22266 17.2852ZM15.0703 17.4961C16.7461 17.4961 18.0352 16.4414 18.0352 14.6836C18.0352 13.2305 17.168 12.5156 16.1836 12.4102L16.1836 12.3633C17.2383 12.082 17.7539 11.1445 17.7539 10.1602C17.7539 8.54297 16.5469 7.61719 15.0234 7.61719C13.8047 7.61719 12.7617 8.29688 12.4219 9.33984C12.3633 9.5625 12.3398 9.76172 12.3398 9.97266C12.3398 10.3477 12.5977 10.6641 13.0547 10.6641C13.4531 10.6641 13.6875 10.5 13.8047 10.1016C13.9922 9.41016 14.3672 8.96484 15.0234 8.96484C15.7969 8.96484 16.1602 9.57422 16.1602 10.3477C16.1602 11.2031 15.6914 11.8242 14.8125 11.8242L14.5312 11.8242C14.1328 11.8242 13.8867 12.0586 13.8867 12.4453C13.8867 12.832 14.1445 13.0664 14.5312 13.0664L14.8242 13.0664C15.8203 13.0664 16.3711 13.6055 16.3711 14.6367C16.3711 15.4453 15.9375 16.125 15.0703 16.125C14.2148 16.125 13.8398 15.5508 13.6875 15.0234C13.582 14.6484 13.3242 14.4492 12.9492 14.4492C12.4922 14.4492 12.1875 14.7188 12.1875 15.1875C12.1875 15.3984 12.2227 15.6094 12.2812 15.7969C12.6094 16.8867 13.8047 17.4961 15.0703 17.4961Z" fill="black" fill-opacity="0.85"/>
 </g>
</svg>
