<?xml version="1.0" encoding="UTF-8"?>
<!--Generator: Apple Native CoreSVG 360-->
<!DOCTYPE svg
PUBLIC "-//W3C//DTD SVG 1.1//EN"
       "http://www.w3.org/Graphics/SVG/1.1/DTD/svg11.dtd">
<svg version="1.1" xmlns="http://www.w3.org/2000/svg" xmlns:xlink="http://www.w3.org/1999/xlink" viewBox="0 0 21.9258 21.5742">
 <g>
  <rect height="21.5742" opacity="0" width="21.9258" x="0" y="0"/>
  <path d="M3.67969 21.5742L17.8945 21.5742C20.3555 21.5742 21.5742 20.3672 21.5742 17.9531L21.5742 3.63281C21.5742 1.21875 20.3555 0 17.8945 0L3.67969 0C1.23047 0 0 1.21875 0 3.63281L0 17.9531C0 20.3672 1.23047 21.5742 3.67969 21.5742ZM3.70312 19.6875C2.53125 19.6875 1.88672 19.0664 1.88672 17.8477L1.88672 3.73828C1.88672 2.51953 2.53125 1.88672 3.70312 1.88672L17.8711 1.88672C19.0312 1.88672 19.6875 2.51953 19.6875 3.73828L19.6875 17.8477C19.6875 19.0664 19.0312 19.6875 17.8711 19.6875Z" fill="black" fill-opacity="0.85"/>
  <path d="M5.32031 15.5273L9.39844 15.5273C9.80859 15.5273 10.0547 15.2578 10.0547 14.8477C10.0547 14.4023 9.79688 14.1562 9.39844 14.1562L6.60938 14.1562L6.60938 14.0625L8.32031 11.8945C9.49219 10.4414 9.87891 9.57422 9.87891 8.54297C9.87891 6.96094 8.80078 5.8125 7.18359 5.8125C5.68359 5.8125 4.54688 7.05469 4.54688 8.27344C4.54688 8.70703 4.80469 9.01172 5.25 9.01172C5.63672 9.01172 5.87109 8.83594 6 8.44922C6.21094 7.66406 6.50391 7.17188 7.18359 7.17188C7.88672 7.17188 8.28516 7.79297 8.28516 8.625C8.28516 9.5625 7.62891 10.5117 7.00781 11.3086L4.96875 13.9102C4.75781 14.1914 4.53516 14.4844 4.53516 14.8477C4.53516 15.2461 4.79297 15.5273 5.32031 15.5273ZM14.168 15.7383C15.8555 15.7383 17.1445 14.6836 17.1445 12.9258C17.1445 11.4727 16.2773 10.7578 15.293 10.6523L15.293 10.6172C16.3477 10.3359 16.8633 9.38672 16.8633 8.40234C16.8633 6.78516 15.6562 5.85938 14.1328 5.85938C12.9141 5.85938 11.8711 6.53906 11.5312 7.58203C11.4727 7.80469 11.4492 8.01562 11.4492 8.21484C11.4492 8.60156 11.707 8.90625 12.1641 8.90625C12.5625 8.90625 12.7969 8.75391 12.9141 8.34375C13.1016 7.65234 13.4648 7.21875 14.1328 7.21875C14.9062 7.21875 15.2695 7.81641 15.2695 8.58984C15.2695 9.44531 14.8008 10.0664 13.9219 10.0664L13.6406 10.0664C13.2422 10.0664 12.9844 10.3125 12.9844 10.6992C12.9844 11.0859 13.2539 11.3086 13.6406 11.3086L13.9336 11.3086C14.9297 11.3086 15.4805 11.8594 15.4805 12.8789C15.4805 13.6875 15.0469 14.3789 14.1797 14.3789C13.3242 14.3789 12.9375 13.8047 12.7969 13.2656C12.6914 12.8906 12.4336 12.6914 12.0586 12.6914C11.6016 12.6914 11.2969 12.9727 11.2969 13.4297C11.2969 13.6406 11.3203 13.8516 11.3906 14.0391C11.7188 15.1289 12.9141 15.7383 14.168 15.7383Z" fill="black" fill-opacity="0.85"/>
 </g>
</svg>
