<?xml version="1.0" encoding="UTF-8"?>
<!--Generator: Apple Native CoreSVG 360-->
<!DOCTYPE svg
PUBLIC "-//W3C//DTD SVG 1.1//EN"
       "http://www.w3.org/Graphics/SVG/1.1/DTD/svg11.dtd">
<svg version="1.1" xmlns="http://www.w3.org/2000/svg" xmlns:xlink="http://www.w3.org/1999/xlink" viewBox="0 0 24.2578 23.918">
 <g>
  <rect height="23.918" opacity="0" width="24.2578" x="0" y="0"/>
  <path d="M11.9531 23.9062C18.5508 23.9062 23.9062 18.5508 23.9062 11.9531C23.9062 5.35547 18.5508 0 11.9531 0C5.35547 0 0 5.35547 0 11.9531C0 18.5508 5.35547 23.9062 11.9531 23.9062ZM11.9531 21.9141C6.44531 21.9141 1.99219 17.4609 1.99219 11.9531C1.99219 6.44531 6.44531 1.99219 11.9531 1.99219C17.4609 1.99219 21.9141 6.44531 21.9141 11.9531C21.9141 17.4609 17.4609 21.9141 11.9531 21.9141Z" fill="black" fill-opacity="0.85"/>
  <path d="M6.44531 16.6875L10.5117 16.6875C10.9336 16.6875 11.1797 16.418 11.1797 16.0078C11.1797 15.5625 10.9219 15.3164 10.5117 15.3164L7.73438 15.3164L7.73438 15.2227L9.44531 13.0547C10.6172 11.6016 11.0039 10.7344 11.0039 9.70312C11.0039 8.12109 9.92578 6.97266 8.30859 6.97266C6.80859 6.97266 5.67188 8.21484 5.67188 9.43359C5.67188 9.86719 5.92969 10.1719 6.375 10.1719C6.76172 10.1719 6.99609 9.99609 7.125 9.60938C7.33594 8.82422 7.62891 8.33203 8.30859 8.33203C9.01172 8.33203 9.41016 8.95312 9.41016 9.78516C9.41016 10.7227 8.75391 11.6719 8.13281 12.4688L6.09375 15.0703C5.88281 15.3516 5.66016 15.6445 5.66016 16.0078C5.66016 16.4062 5.91797 16.6875 6.44531 16.6875ZM16.5938 16.8398C17.0273 16.8398 17.3906 16.5703 17.3906 16.0078L17.3906 14.8359L17.8008 14.8359C18.2578 14.8359 18.4688 14.543 18.4688 14.1445C18.4688 13.7695 18.2695 13.4766 17.8008 13.4766L17.3906 13.4766L17.3906 8.33203C17.3906 7.52344 16.8516 7.06641 16.0898 7.06641C15.2695 7.06641 14.8828 7.48828 14.5547 8.21484L12.457 12.7617C12.2578 13.2188 12.1875 13.5234 12.1875 13.8867C12.1875 14.4492 12.5859 14.8359 13.1484 14.8359L15.7734 14.8359L15.7734 16.0078C15.7734 16.6289 16.2188 16.8398 16.5938 16.8398ZM15.8086 13.5117L13.6289 13.5117L13.6289 13.4297L15.7617 8.54297L15.8086 8.54297Z" fill="black" fill-opacity="0.85"/>
 </g>
</svg>
