<?xml version="1.0" encoding="UTF-8"?>
<!--Generator: Apple Native CoreSVG 360-->
<!DOCTYPE svg
PUBLIC "-//W3C//DTD SVG 1.1//EN"
       "http://www.w3.org/Graphics/SVG/1.1/DTD/svg11.dtd">
<svg version="1.1" xmlns="http://www.w3.org/2000/svg" xmlns:xlink="http://www.w3.org/1999/xlink" viewBox="0 0 23.707 21.5977">
 <g>
  <rect height="21.5977" opacity="0" width="23.707" x="0" y="0"/>
  <path d="M3.67969 21.5977L19.6875 21.5977C22.1367 21.5977 23.3555 20.3789 23.3555 17.9648L23.3555 3.65625C23.3555 1.24219 22.1367 0.0234375 19.6875 0.0234375L3.67969 0.0234375C1.23047 0.0234375 0 1.23047 0 3.65625L0 17.9648C0 20.3906 1.23047 21.5977 3.67969 21.5977ZM3.50391 19.7109C2.46094 19.7109 1.88672 19.1602 1.88672 18.0703L1.88672 7.01953C1.88672 5.94141 2.46094 5.37891 3.50391 5.37891L19.8398 5.37891C20.8828 5.37891 21.4688 5.94141 21.4688 7.01953L21.4688 18.0703C21.4688 19.1602 20.8828 19.7109 19.8398 19.7109Z" fill="black" fill-opacity="0.85"/>
  <path d="M6.19922 17.2852L10.2656 17.2852C10.6758 17.2852 10.9336 17.0156 10.9336 16.5938C10.9336 16.1602 10.6641 15.9141 10.2656 15.9141L7.47656 15.9141L7.47656 15.8203L9.1875 13.6523C10.3711 12.1992 10.7461 11.332 10.7461 10.3008C10.7461 8.70703 9.67969 7.57031 8.0625 7.57031C6.5625 7.57031 5.42578 8.8125 5.42578 10.0312C5.42578 10.4531 5.67188 10.7695 6.11719 10.7695C6.50391 10.7695 6.75 10.5938 6.86719 10.207C7.08984 9.42188 7.38281 8.91797 8.05078 8.91797C8.75391 8.91797 9.15234 9.55078 9.15234 10.3711C9.15234 11.3203 8.49609 12.2578 7.875 13.0547L5.84766 15.668C5.625 15.9492 5.40234 16.2305 5.40234 16.6055C5.40234 16.9922 5.66016 17.2852 6.19922 17.2852ZM16.3359 17.4375C16.7695 17.4375 17.1328 17.168 17.1328 16.5938L17.1328 15.4336L17.5547 15.4336C18 15.4336 18.2109 15.1406 18.2109 14.7422C18.2109 14.3672 18.0234 14.0742 17.5547 14.0742L17.1328 14.0742L17.1328 8.91797C17.1328 8.10938 16.6055 7.66406 15.832 7.66406C15.0117 7.66406 14.625 8.08594 14.2969 8.8125L12.1992 13.3594C12 13.8047 11.9414 14.1094 11.9414 14.4727C11.9414 15.0352 12.3281 15.4336 12.9023 15.4336L15.5156 15.4336L15.5156 16.5938C15.5156 17.2148 15.9609 17.4375 16.3359 17.4375ZM15.5508 14.1094L13.3828 14.1094L13.3828 14.0273L15.5156 9.14062L15.5508 9.14062Z" fill="black" fill-opacity="0.85"/>
 </g>
</svg>
