<?xml version="1.0" encoding="UTF-8"?>
<!--Generator: Apple Native CoreSVG 360-->
<!DOCTYPE svg
PUBLIC "-//W3C//DTD SVG 1.1//EN"
       "http://www.w3.org/Graphics/SVG/1.1/DTD/svg11.dtd">
<svg version="1.1" xmlns="http://www.w3.org/2000/svg" xmlns:xlink="http://www.w3.org/1999/xlink" viewBox="0 0 21.9258 21.5742">
 <g>
  <rect height="21.5742" opacity="0" width="21.9258" x="0" y="0"/>
  <path d="M3.67969 21.5742L17.8945 21.5742C20.3555 21.5742 21.5742 20.3672 21.5742 17.9531L21.5742 3.63281C21.5742 1.21875 20.3555 0 17.8945 0L3.67969 0C1.23047 0 0 1.21875 0 3.63281L0 17.9531C0 20.3672 1.23047 21.5742 3.67969 21.5742ZM3.70312 19.6875C2.53125 19.6875 1.88672 19.0664 1.88672 17.8477L1.88672 3.73828C1.88672 2.51953 2.53125 1.88672 3.70312 1.88672L17.8711 1.88672C19.0312 1.88672 19.6875 2.51953 19.6875 3.73828L19.6875 17.8477C19.6875 19.0664 19.0312 19.6875 17.8711 19.6875Z" fill="black" fill-opacity="0.85"/>
  <path d="M5.30859 15.5273L9.375 15.5273C9.78516 15.5273 10.0312 15.2578 10.0312 14.8477C10.0312 14.4023 9.77344 14.1562 9.375 14.1562L6.58594 14.1562L6.58594 14.0625L8.29688 11.8945C9.46875 10.4414 9.85547 9.57422 9.85547 8.54297C9.85547 6.96094 8.77734 5.8125 7.16016 5.8125C5.67188 5.8125 4.52344 7.05469 4.52344 8.27344C4.52344 8.70703 4.78125 9.01172 5.22656 9.01172C5.61328 9.01172 5.85938 8.83594 5.97656 8.44922C6.19922 7.66406 6.48047 7.17188 7.16016 7.17188C7.86328 7.17188 8.26172 7.79297 8.26172 8.625C8.26172 9.5625 7.60547 10.5117 6.98438 11.3086L4.94531 13.9102C4.73438 14.1914 4.51172 14.4844 4.51172 14.8477C4.51172 15.2461 4.76953 15.5273 5.30859 15.5273ZM15.4453 15.6797C15.8789 15.6797 16.2422 15.4102 16.2422 14.8477L16.2422 13.6758L16.6523 13.6758C17.1094 13.6758 17.3203 13.3828 17.3203 12.9844C17.3203 12.6094 17.1211 12.3164 16.6523 12.3164L16.2422 12.3164L16.2422 7.17188C16.2422 6.36328 15.7148 5.90625 14.9414 5.90625C14.1211 5.90625 13.7344 6.32812 13.4062 7.05469L11.3086 11.6016C11.1094 12.0586 11.0391 12.3633 11.0391 12.7266C11.0391 13.2891 11.4375 13.6758 12.0117 13.6758L14.625 13.6758L14.625 14.8477C14.625 15.4688 15.0703 15.6797 15.4453 15.6797ZM14.6602 12.3516L12.4922 12.3516L12.4922 12.2695L14.625 7.38281L14.6602 7.38281Z" fill="black" fill-opacity="0.85"/>
 </g>
</svg>
