<?xml version="1.0" encoding="UTF-8"?>
<!--Generator: Apple Native CoreSVG 360-->
<!DOCTYPE svg
PUBLIC "-//W3C//DTD SVG 1.1//EN"
       "http://www.w3.org/Graphics/SVG/1.1/DTD/svg11.dtd">
<svg version="1.1" xmlns="http://www.w3.org/2000/svg" xmlns:xlink="http://www.w3.org/1999/xlink" viewBox="0 0 24.2578 23.918">
 <g>
  <rect height="23.918" opacity="0" width="24.2578" x="0" y="0"/>
  <path d="M11.9531 23.9062C18.5508 23.9062 23.9062 18.5508 23.9062 11.9531C23.9062 5.35547 18.5508 0 11.9531 0C5.35547 0 0 5.35547 0 11.9531C0 18.5508 5.35547 23.9062 11.9531 23.9062ZM11.9531 21.9141C6.44531 21.9141 1.99219 17.4609 1.99219 11.9531C1.99219 6.44531 6.44531 1.99219 11.9531 1.99219C17.4609 1.99219 21.9141 6.44531 21.9141 11.9531C21.9141 17.4609 17.4609 21.9141 11.9531 21.9141Z" fill="black" fill-opacity="0.85"/>
  <path d="M6.41016 16.6875L10.4766 16.6875C10.8984 16.6875 11.1445 16.418 11.1445 16.0078C11.1445 15.5625 10.8867 15.3164 10.4766 15.3164L7.69922 15.3164L7.69922 15.2227L9.41016 13.0547C10.582 11.6016 10.9688 10.7344 10.9688 9.70312C10.9688 8.12109 9.89062 6.97266 8.27344 6.97266C6.77344 6.97266 5.63672 8.21484 5.63672 9.43359C5.63672 9.86719 5.89453 10.1719 6.33984 10.1719C6.72656 10.1719 6.96094 9.99609 7.07812 9.60938C7.30078 8.82422 7.59375 8.33203 8.26172 8.33203C8.97656 8.33203 9.36328 8.95312 9.36328 9.78516C9.36328 10.7227 8.71875 11.6719 8.09766 12.4688L6.05859 15.0703C5.83594 15.3516 5.625 15.6445 5.625 16.0078C5.625 16.4062 5.88281 16.6875 6.41016 16.6875ZM15.2695 16.9336C17.0977 16.9336 18.0938 15.3984 18.0938 13.5469C18.0938 11.9297 17.3203 10.4531 15.8086 10.4531C15.1172 10.4531 14.4844 10.7695 14.1797 11.4492L14.1328 11.4492L14.3203 8.60156L17.0742 8.60156C17.4727 8.60156 17.7305 8.32031 17.7305 7.91016C17.7305 7.52344 17.4609 7.21875 17.0742 7.21875L13.8516 7.21875C13.2422 7.21875 12.9609 7.61719 12.9258 8.22656L12.7266 11.4375C12.7148 11.6133 12.7148 11.8008 12.7148 11.9531C12.7148 12.3984 12.9375 12.7969 13.4766 12.7969C13.8047 12.7969 13.9805 12.668 14.2266 12.3516C14.4961 11.9648 14.7891 11.6836 15.2695 11.6836C16.125 11.6836 16.4531 12.7266 16.4531 13.5938C16.4531 14.5664 16.1133 15.5625 15.2461 15.5625C14.5898 15.5625 14.2148 15.0938 14.0039 14.4492C13.8633 14.0742 13.6055 13.8984 13.2891 13.8984C12.8672 13.8984 12.5859 14.168 12.5859 14.6016C12.5859 14.8711 12.6562 15.1289 12.7617 15.3633C13.1719 16.3125 14.2031 16.9336 15.2695 16.9336Z" fill="black" fill-opacity="0.85"/>
 </g>
</svg>
