<?xml version="1.0" encoding="UTF-8"?>
<!--Generator: Apple Native CoreSVG 360-->
<!DOCTYPE svg
PUBLIC "-//W3C//DTD SVG 1.1//EN"
       "http://www.w3.org/Graphics/SVG/1.1/DTD/svg11.dtd">
<svg version="1.1" xmlns="http://www.w3.org/2000/svg" xmlns:xlink="http://www.w3.org/1999/xlink" viewBox="0 0 23.707 21.5977">
 <g>
  <rect height="21.5977" opacity="0" width="23.707" x="0" y="0"/>
  <path d="M3.67969 21.5977L19.6875 21.5977C22.1367 21.5977 23.3555 20.3789 23.3555 17.9648L23.3555 3.65625C23.3555 1.24219 22.1367 0.0234375 19.6875 0.0234375L3.67969 0.0234375C1.23047 0.0234375 0 1.23047 0 3.65625L0 17.9648C0 20.3906 1.23047 21.5977 3.67969 21.5977ZM3.50391 19.7109C2.46094 19.7109 1.88672 19.1602 1.88672 18.0703L1.88672 7.01953C1.88672 5.94141 2.46094 5.37891 3.50391 5.37891L19.8398 5.37891C20.8828 5.37891 21.4688 5.94141 21.4688 7.01953L21.4688 18.0703C21.4688 19.1602 20.8828 19.7109 19.8398 19.7109Z" fill="black" fill-opacity="0.85"/>
  <path d="M6.16406 17.2852L10.2305 17.2852C10.6406 17.2852 10.8867 17.0156 10.8867 16.5938C10.8867 16.1602 10.6289 15.9141 10.2305 15.9141L7.44141 15.9141L7.44141 15.8203L9.15234 13.6523C10.3242 12.1992 10.7109 11.332 10.7109 10.3008C10.7109 8.70703 9.63281 7.57031 8.01562 7.57031C6.51562 7.57031 5.37891 8.8125 5.37891 10.0312C5.37891 10.4531 5.63672 10.7695 6.08203 10.7695C6.46875 10.7695 6.70312 10.5938 6.83203 10.207C7.05469 9.42188 7.33594 8.91797 8.01562 8.91797C8.71875 8.91797 9.11719 9.55078 9.11719 10.3711C9.11719 11.3203 8.46094 12.2578 7.83984 13.0547L5.80078 15.668C5.58984 15.9492 5.36719 16.2305 5.36719 16.6055C5.36719 16.9922 5.625 17.2852 6.16406 17.2852ZM15.0117 17.5195C16.8398 17.5195 17.8359 15.9961 17.8359 14.1445C17.8359 12.5273 17.0625 11.0391 15.5508 11.0391C14.8711 11.0391 14.2266 11.3672 13.9336 12.0469L13.875 12.0469L14.0625 9.19922L16.8164 9.19922C17.2266 9.19922 17.4727 8.90625 17.4727 8.50781C17.4727 8.10938 17.2031 7.81641 16.8164 7.81641L13.5938 7.81641C12.9844 7.81641 12.7031 8.21484 12.668 8.82422L12.4805 12.0234C12.457 12.2109 12.457 12.3867 12.457 12.5508C12.457 12.9961 12.6914 13.3945 13.2305 13.3945C13.5469 13.3945 13.7344 13.2656 13.9688 12.9375C14.2383 12.5508 14.5312 12.2812 15.0117 12.2812C15.8672 12.2812 16.207 13.3242 16.207 14.1797C16.207 15.1641 15.8555 16.1602 14.9883 16.1602C14.332 16.1602 13.957 15.6797 13.7461 15.0469C13.6055 14.6719 13.3477 14.4844 13.0312 14.4844C12.6094 14.4844 12.3398 14.7656 12.3398 15.1875C12.3398 15.457 12.3984 15.7266 12.5039 15.9492C12.9141 16.8984 13.9453 17.5195 15.0117 17.5195Z" fill="black" fill-opacity="0.85"/>
 </g>
</svg>
