<?xml version="1.0" encoding="UTF-8"?>
<!--Generator: Apple Native CoreSVG 360-->
<!DOCTYPE svg
PUBLIC "-//W3C//DTD SVG 1.1//EN"
       "http://www.w3.org/Graphics/SVG/1.1/DTD/svg11.dtd">
<svg version="1.1" xmlns="http://www.w3.org/2000/svg" xmlns:xlink="http://www.w3.org/1999/xlink" viewBox="0 0 23.707 21.5977">
 <g>
  <rect height="21.5977" opacity="0" width="23.707" x="0" y="0"/>
  <path d="M3.67969 21.5977L19.6875 21.5977C22.1367 21.5977 23.3555 20.3789 23.3555 17.9648L23.3555 3.65625C23.3555 1.24219 22.1367 0.0234375 19.6875 0.0234375L3.67969 0.0234375C1.23047 0.0234375 0 1.23047 0 3.65625L0 17.9648C0 20.3906 1.23047 21.5977 3.67969 21.5977ZM3.50391 19.7109C2.46094 19.7109 1.88672 19.1602 1.88672 18.0703L1.88672 7.01953C1.88672 5.94141 2.46094 5.37891 3.50391 5.37891L19.8398 5.37891C20.8828 5.37891 21.4688 5.94141 21.4688 7.01953L21.4688 18.0703C21.4688 19.1602 20.8828 19.7109 19.8398 19.7109Z" fill="black" fill-opacity="0.85"/>
  <path d="M6.12891 17.2852L10.1953 17.2852C10.6055 17.2852 10.8633 17.0156 10.8633 16.5938C10.8633 16.1602 10.5938 15.9141 10.1953 15.9141L7.41797 15.9141L7.41797 15.8203L9.11719 13.6523C10.3008 12.1992 10.6875 11.332 10.6875 10.3008C10.6875 8.70703 9.60938 7.57031 7.99219 7.57031C6.49219 7.57031 5.35547 8.8125 5.35547 10.0312C5.35547 10.4531 5.60156 10.7695 6.05859 10.7695C6.44531 10.7695 6.67969 10.5938 6.79688 10.207C7.01953 9.42188 7.3125 8.91797 7.98047 8.91797C8.68359 8.91797 9.08203 9.55078 9.08203 10.3711C9.08203 11.3203 8.42578 12.2578 7.80469 13.0547L5.77734 15.668C5.55469 15.9492 5.33203 16.2305 5.33203 16.6055C5.33203 16.9922 5.58984 17.2852 6.12891 17.2852ZM15.1758 17.5195C16.9688 17.5195 17.9883 16.0195 17.9883 14.1797C17.9883 12.6094 17.2266 11.0977 15.668 11.0977C14.7188 11.0977 14.0039 11.7422 13.7344 12.7383L13.6875 12.7383C13.6875 12.7031 13.6875 12.6562 13.6875 12.6094C13.6875 11.3203 13.8516 8.95312 15.1641 8.95312C15.6914 8.95312 16.043 9.33984 16.2539 9.83203C16.418 10.1953 16.6406 10.3594 17.0156 10.3594C17.4844 10.3594 17.6836 10.043 17.6836 9.65625C17.6836 9.51562 17.6719 9.375 17.6367 9.23438C17.3906 8.21484 16.3711 7.59375 15.1992 7.59375C12.7969 7.59375 12.0938 10.2773 12.0938 12.668C12.0938 14.8828 12.7969 17.5195 15.1758 17.5195ZM15.1523 16.1602C14.2734 16.1602 13.9219 15.0586 13.9219 14.2148C13.9219 13.3594 14.3086 12.3867 15.1523 12.3867C16.0195 12.3867 16.3828 13.3945 16.3594 14.2617C16.3594 15.1172 15.9727 16.1602 15.1523 16.1602Z" fill="black" fill-opacity="0.85"/>
 </g>
</svg>
