<?xml version="1.0" encoding="UTF-8"?>
<!--Generator: Apple Native CoreSVG 360-->
<!DOCTYPE svg
PUBLIC "-//W3C//DTD SVG 1.1//EN"
       "http://www.w3.org/Graphics/SVG/1.1/DTD/svg11.dtd">
<svg version="1.1" xmlns="http://www.w3.org/2000/svg" xmlns:xlink="http://www.w3.org/1999/xlink" viewBox="0 0 21.9258 21.5742">
 <g>
  <rect height="21.5742" opacity="0" width="21.9258" x="0" y="0"/>
  <path d="M3.67969 21.5742L17.8945 21.5742C20.3555 21.5742 21.5742 20.3672 21.5742 17.9531L21.5742 3.63281C21.5742 1.21875 20.3555 0 17.8945 0L3.67969 0C1.23047 0 0 1.21875 0 3.63281L0 17.9531C0 20.3672 1.23047 21.5742 3.67969 21.5742ZM3.70312 19.6875C2.53125 19.6875 1.88672 19.0664 1.88672 17.8477L1.88672 3.73828C1.88672 2.51953 2.53125 1.88672 3.70312 1.88672L17.8711 1.88672C19.0312 1.88672 19.6875 2.51953 19.6875 3.73828L19.6875 17.8477C19.6875 19.0664 19.0312 19.6875 17.8711 19.6875Z" fill="black" fill-opacity="0.85"/>
  <path d="M5.23828 15.5273L9.30469 15.5273C9.71484 15.5273 9.97266 15.2578 9.97266 14.8477C9.97266 14.4023 9.70312 14.1562 9.30469 14.1562L6.51562 14.1562L6.51562 14.0625L8.22656 11.8945C9.41016 10.4414 9.78516 9.57422 9.78516 8.54297C9.78516 6.96094 8.71875 5.8125 7.08984 5.8125C5.60156 5.8125 4.46484 7.05469 4.46484 8.27344C4.46484 8.70703 4.71094 9.01172 5.15625 9.01172C5.54297 9.01172 5.78906 8.83594 5.90625 8.44922C6.12891 7.66406 6.42188 7.17188 7.08984 7.17188C7.79297 7.17188 8.19141 7.79297 8.19141 8.625C8.19141 9.5625 7.53516 10.5117 6.91406 11.3086L4.88672 13.9102C4.66406 14.1914 4.44141 14.4844 4.44141 14.8477C4.44141 15.2461 4.69922 15.5273 5.23828 15.5273ZM14.2852 15.7734C16.0781 15.7734 17.0977 14.2734 17.0977 12.4336C17.0977 10.8516 16.3359 9.35156 14.7773 9.35156C13.8281 9.35156 13.1133 9.98438 12.8438 10.9922L12.7969 10.9922C12.7969 10.9453 12.7969 10.8984 12.7969 10.8633C12.7969 9.5625 12.9609 7.20703 14.2617 7.20703C14.8008 7.20703 15.1523 7.58203 15.3516 8.07422C15.5273 8.4375 15.75 8.60156 16.125 8.60156C16.5938 8.60156 16.793 8.28516 16.793 7.89844C16.793 7.76953 16.7812 7.62891 16.7461 7.47656C16.4883 6.46875 15.4805 5.83594 14.3086 5.83594C11.9062 5.83594 11.2031 8.53125 11.2031 10.9102C11.2031 13.125 11.9062 15.7734 14.2852 15.7734ZM14.2617 14.4023C13.3828 14.4023 13.0195 13.3008 13.0195 12.457C13.0195 11.6016 13.418 10.6289 14.2617 10.6289C15.1289 10.6289 15.4922 11.6367 15.4688 12.5039C15.4688 13.3594 15.082 14.4023 14.2617 14.4023Z" fill="black" fill-opacity="0.85"/>
 </g>
</svg>
