<?xml version="1.0" encoding="UTF-8"?>
<!--Generator: Apple Native CoreSVG 360-->
<!DOCTYPE svg
PUBLIC "-//W3C//DTD SVG 1.1//EN"
       "http://www.w3.org/Graphics/SVG/1.1/DTD/svg11.dtd">
<svg version="1.1" xmlns="http://www.w3.org/2000/svg" xmlns:xlink="http://www.w3.org/1999/xlink" viewBox="0 0 23.707 21.5977">
 <g>
  <rect height="21.5977" opacity="0" width="23.707" x="0" y="0"/>
  <path d="M3.67969 21.5977L19.6875 21.5977C22.1367 21.5977 23.3555 20.3789 23.3555 17.9648L23.3555 3.65625C23.3555 1.24219 22.1367 0.0234375 19.6875 0.0234375L3.67969 0.0234375C1.23047 0.0234375 0 1.23047 0 3.65625L0 17.9648C0 20.3906 1.23047 21.5977 3.67969 21.5977ZM3.50391 19.7109C2.46094 19.7109 1.88672 19.1602 1.88672 18.0703L1.88672 7.01953C1.88672 5.94141 2.46094 5.37891 3.50391 5.37891L19.8398 5.37891C20.8828 5.37891 21.4688 5.94141 21.4688 7.01953L21.4688 18.0703C21.4688 19.1602 20.8828 19.7109 19.8398 19.7109Z" fill="black" fill-opacity="0.85"/>
  <path d="M6.72656 17.2852L10.793 17.2852C11.2031 17.2852 11.4492 17.0156 11.4492 16.5938C11.4492 16.1602 11.1914 15.9141 10.793 15.9141L8.00391 15.9141L8.00391 15.8203L9.71484 13.6523C10.8984 12.1992 11.2734 11.332 11.2734 10.3008C11.2734 8.70703 10.207 7.57031 8.57812 7.57031C7.08984 7.57031 5.95312 8.8125 5.95312 10.0312C5.95312 10.4531 6.19922 10.7695 6.64453 10.7695C7.03125 10.7695 7.27734 10.5938 7.39453 10.207C7.61719 9.42188 7.89844 8.91797 8.57812 8.91797C9.28125 8.91797 9.67969 9.55078 9.67969 10.3711C9.67969 11.3203 9.02344 12.2578 8.40234 13.0547L6.36328 15.668C6.15234 15.9492 5.92969 16.2305 5.92969 16.6055C5.92969 16.9922 6.1875 17.2852 6.72656 17.2852ZM14.1797 17.4375C14.6133 17.4375 14.8125 17.2617 14.9648 16.8516L17.6484 9.69141C17.7656 9.33984 17.8594 9.05859 17.8594 8.70703C17.8594 8.16797 17.4492 7.81641 16.9219 7.81641L13.1367 7.81641C12.7383 7.81641 12.4688 8.09766 12.4688 8.50781C12.4688 8.90625 12.7383 9.1875 13.1367 9.1875L16.1484 9.1875L16.1484 9.30469L13.5586 16.0312C13.4531 16.2891 13.4062 16.4414 13.4062 16.7109C13.4062 17.0625 13.6289 17.4375 14.1797 17.4375Z" fill="black" fill-opacity="0.85"/>
 </g>
</svg>
