<?xml version="1.0" encoding="UTF-8"?>
<!--Generator: Apple Native CoreSVG 360-->
<!DOCTYPE svg
PUBLIC "-//W3C//DTD SVG 1.1//EN"
       "http://www.w3.org/Graphics/SVG/1.1/DTD/svg11.dtd">
<svg version="1.1" xmlns="http://www.w3.org/2000/svg" xmlns:xlink="http://www.w3.org/1999/xlink" viewBox="0 0 24.2578 23.918">
 <g>
  <rect height="23.918" opacity="0" width="24.2578" x="0" y="0"/>
  <path d="M11.9531 23.9062C18.5508 23.9062 23.9062 18.5508 23.9062 11.9531C23.9062 5.35547 18.5508 0 11.9531 0C5.35547 0 0 5.35547 0 11.9531C0 18.5508 5.35547 23.9062 11.9531 23.9062ZM11.9531 21.9141C6.44531 21.9141 1.99219 17.4609 1.99219 11.9531C1.99219 6.44531 6.44531 1.99219 11.9531 1.99219C17.4609 1.99219 21.9141 6.44531 21.9141 11.9531C21.9141 17.4609 17.4609 21.9141 11.9531 21.9141Z" fill="black" fill-opacity="0.85"/>
  <path d="M6.97266 16.6875L11.0391 16.6875C11.4609 16.6875 11.707 16.418 11.707 16.0078C11.707 15.5625 11.4492 15.3164 11.0391 15.3164L8.26172 15.3164L8.26172 15.2227L9.97266 13.0547C11.1445 11.6016 11.5312 10.7344 11.5312 9.70312C11.5312 8.12109 10.4531 6.97266 8.83594 6.97266C7.33594 6.97266 6.19922 8.21484 6.19922 9.43359C6.19922 9.86719 6.45703 10.1719 6.90234 10.1719C7.28906 10.1719 7.52344 9.99609 7.65234 9.60938C7.86328 8.82422 8.15625 8.33203 8.82422 8.33203C9.53906 8.33203 9.9375 8.95312 9.9375 9.78516C9.9375 10.7227 9.28125 11.6719 8.66016 12.4688L6.62109 15.0703C6.41016 15.3516 6.1875 15.6445 6.1875 16.0078C6.1875 16.4062 6.44531 16.6875 6.97266 16.6875ZM14.4375 16.8516C14.8711 16.8516 15.0586 16.6758 15.2227 16.2539L17.8945 9.10547C18.0234 8.74219 18.1172 8.46094 18.1172 8.12109C18.1172 7.58203 17.707 7.21875 17.1797 7.21875L13.3945 7.21875C12.9961 7.21875 12.7148 7.51172 12.7148 7.91016C12.7148 8.30859 12.9961 8.60156 13.3945 8.60156L16.4062 8.60156L16.4062 8.70703L13.8164 15.4336C13.7109 15.6914 13.6641 15.8438 13.6641 16.125C13.6641 16.4648 13.8867 16.8516 14.4375 16.8516Z" fill="black" fill-opacity="0.85"/>
 </g>
</svg>
