<?xml version="1.0" encoding="UTF-8"?>
<!--Generator: Apple Native CoreSVG 360-->
<!DOCTYPE svg
PUBLIC "-//W3C//DTD SVG 1.1//EN"
       "http://www.w3.org/Graphics/SVG/1.1/DTD/svg11.dtd">
<svg version="1.1" xmlns="http://www.w3.org/2000/svg" xmlns:xlink="http://www.w3.org/1999/xlink" viewBox="0 0 21.9258 21.5742">
 <g>
  <rect height="21.5742" opacity="0" width="21.9258" x="0" y="0"/>
  <path d="M3.67969 21.5742L17.8945 21.5742C20.3555 21.5742 21.5742 20.3672 21.5742 17.9531L21.5742 3.63281C21.5742 1.21875 20.3555 0 17.8945 0L3.67969 0C1.23047 0 0 1.21875 0 3.63281L0 17.9531C0 20.3672 1.23047 21.5742 3.67969 21.5742ZM3.70312 19.6875C2.53125 19.6875 1.88672 19.0664 1.88672 17.8477L1.88672 3.73828C1.88672 2.51953 2.53125 1.88672 3.70312 1.88672L17.8711 1.88672C19.0312 1.88672 19.6875 2.51953 19.6875 3.73828L19.6875 17.8477C19.6875 19.0664 19.0312 19.6875 17.8711 19.6875Z" fill="black" fill-opacity="0.85"/>
  <path d="M5.83594 15.5273L9.90234 15.5273C10.3125 15.5273 10.5586 15.2578 10.5586 14.8477C10.5586 14.4023 10.3008 14.1562 9.90234 14.1562L7.11328 14.1562L7.11328 14.0625L8.82422 11.8945C9.99609 10.4414 10.3828 9.57422 10.3828 8.54297C10.3828 6.96094 9.30469 5.8125 7.6875 5.8125C6.1875 5.8125 5.05078 7.05469 5.05078 8.27344C5.05078 8.70703 5.30859 9.01172 5.75391 9.01172C6.14062 9.01172 6.375 8.83594 6.50391 8.44922C6.72656 7.66406 7.00781 7.17188 7.6875 7.17188C8.39062 7.17188 8.78906 7.79297 8.78906 8.625C8.78906 9.5625 8.13281 10.5117 7.51172 11.3086L5.47266 13.9102C5.26172 14.1914 5.03906 14.4844 5.03906 14.8477C5.03906 15.2461 5.29688 15.5273 5.83594 15.5273ZM13.2891 15.6914C13.7227 15.6914 13.9219 15.5156 14.0742 15.0938L16.7461 7.94531C16.875 7.58203 16.9688 7.30078 16.9688 6.96094C16.9688 6.42188 16.5586 6.05859 16.0312 6.05859L12.2461 6.05859C11.8477 6.05859 11.5664 6.35156 11.5664 6.75C11.5664 7.14844 11.8477 7.44141 12.2461 7.44141L15.2578 7.44141L15.2578 7.54688L12.668 14.2734C12.5625 14.5312 12.5156 14.6836 12.5156 14.9648C12.5156 15.3047 12.7383 15.6914 13.2891 15.6914Z" fill="black" fill-opacity="0.85"/>
 </g>
</svg>
