<?xml version="1.0" encoding="UTF-8"?>
<!--Generator: Apple Native CoreSVG 360-->
<!DOCTYPE svg
PUBLIC "-//W3C//DTD SVG 1.1//EN"
       "http://www.w3.org/Graphics/SVG/1.1/DTD/svg11.dtd">
<svg version="1.1" xmlns="http://www.w3.org/2000/svg" xmlns:xlink="http://www.w3.org/1999/xlink" viewBox="0 0 23.707 21.5977">
 <g>
  <rect height="21.5977" opacity="0" width="23.707" x="0" y="0"/>
  <path d="M3.67969 21.5977L19.6875 21.5977C22.1367 21.5977 23.3555 20.3789 23.3555 17.9648L23.3555 3.65625C23.3555 1.24219 22.1367 0.0234375 19.6875 0.0234375L3.67969 0.0234375C1.23047 0.0234375 0 1.23047 0 3.65625L0 17.9648C0 20.3906 1.23047 21.5977 3.67969 21.5977ZM3.50391 19.7109C2.46094 19.7109 1.88672 19.1602 1.88672 18.0703L1.88672 7.01953C1.88672 5.94141 2.46094 5.37891 3.50391 5.37891L19.8398 5.37891C20.8828 5.37891 21.4688 5.94141 21.4688 7.01953L21.4688 18.0703C21.4688 19.1602 20.8828 19.7109 19.8398 19.7109Z" fill="black" fill-opacity="0.85"/>
  <path d="M6.10547 17.2852L10.1719 17.2852C10.582 17.2852 10.8398 17.0156 10.8398 16.5938C10.8398 16.1602 10.5703 15.9141 10.1719 15.9141L7.39453 15.9141L7.39453 15.8203L9.10547 13.6523C10.2773 12.1992 10.6641 11.332 10.6641 10.3008C10.6641 8.70703 9.58594 7.57031 7.96875 7.57031C6.46875 7.57031 5.33203 8.8125 5.33203 10.0312C5.33203 10.4531 5.58984 10.7695 6.03516 10.7695C6.42188 10.7695 6.65625 10.5938 6.77344 10.207C6.99609 9.42188 7.28906 8.91797 7.95703 8.91797C8.67188 8.91797 9.05859 9.55078 9.05859 10.3711C9.05859 11.3203 8.41406 12.2578 7.79297 13.0547L5.75391 15.668C5.53125 15.9492 5.32031 16.2305 5.32031 16.6055C5.32031 16.9922 5.56641 17.2852 6.10547 17.2852ZM15.082 17.4961C16.9453 17.4961 18.1289 16.3242 18.1289 14.7305C18.1289 13.4531 17.3203 12.5273 16.3828 12.3164L16.3828 12.2695C17.168 12.0234 17.8594 11.2617 17.8594 10.1602C17.8594 8.64844 16.7344 7.60547 15.082 7.60547C13.6406 7.60547 12.3281 8.49609 12.3281 10.1484C12.3281 11.3438 13.0664 12.0352 13.8281 12.2695L13.8281 12.3164C12.8203 12.5391 12.0586 13.4531 12.0586 14.7305C12.0586 16.4531 13.3711 17.4961 15.082 17.4961ZM15.0938 11.7305C14.3438 11.7305 13.957 11.0156 13.957 10.3242C13.957 9.57422 14.3672 8.87109 15.0938 8.87109C15.8555 8.87109 16.2188 9.57422 16.2188 10.3242C16.2188 11.0859 15.832 11.7305 15.0938 11.7305ZM15.0938 16.2305C14.2383 16.2305 13.8164 15.4688 13.8164 14.6016C13.8164 13.7461 14.2383 13.0078 15.0938 13.0078C15.9258 13.0078 16.3711 13.7109 16.3711 14.6016C16.3711 15.457 15.9492 16.2305 15.0938 16.2305Z" fill="black" fill-opacity="0.85"/>
 </g>
</svg>
