<?xml version="1.0" encoding="UTF-8"?>
<!--Generator: Apple Native CoreSVG 360-->
<!DOCTYPE svg
PUBLIC "-//W3C//DTD SVG 1.1//EN"
       "http://www.w3.org/Graphics/SVG/1.1/DTD/svg11.dtd">
<svg version="1.1" xmlns="http://www.w3.org/2000/svg" xmlns:xlink="http://www.w3.org/1999/xlink" viewBox="0 0 24.2578 23.918">
 <g>
  <rect height="23.918" opacity="0" width="24.2578" x="0" y="0"/>
  <path d="M11.9531 23.9062C18.5508 23.9062 23.9062 18.5508 23.9062 11.9531C23.9062 5.35547 18.5508 0 11.9531 0C5.35547 0 0 5.35547 0 11.9531C0 18.5508 5.35547 23.9062 11.9531 23.9062ZM11.9531 21.9141C6.44531 21.9141 1.99219 17.4609 1.99219 11.9531C1.99219 6.44531 6.44531 1.99219 11.9531 1.99219C17.4609 1.99219 21.9141 6.44531 21.9141 11.9531C21.9141 17.4609 17.4609 21.9141 11.9531 21.9141Z" fill="black" fill-opacity="0.85"/>
  <path d="M6.36328 16.6875L10.4297 16.6875C10.8398 16.6875 11.0977 16.418 11.0977 16.0078C11.0977 15.5625 10.8281 15.3164 10.4297 15.3164L7.65234 15.3164L7.65234 15.2227L9.35156 13.0547C10.5352 11.6016 10.9102 10.7344 10.9102 9.70312C10.9102 8.12109 9.84375 6.97266 8.22656 6.97266C6.72656 6.97266 5.58984 8.21484 5.58984 9.43359C5.58984 9.86719 5.83594 10.1719 6.28125 10.1719C6.67969 10.1719 6.91406 9.99609 7.03125 9.60938C7.25391 8.82422 7.54688 8.33203 8.21484 8.33203C8.91797 8.33203 9.31641 8.95312 9.31641 9.78516C9.31641 10.7227 8.66016 11.6719 8.03906 12.4688L6.01172 15.0703C5.78906 15.3516 5.56641 15.6445 5.56641 16.0078C5.56641 16.4062 5.82422 16.6875 6.36328 16.6875ZM15.3398 16.8984C17.2031 16.8984 18.3867 15.7383 18.3867 14.1328C18.3867 12.8555 17.5664 11.9297 16.6406 11.7188L16.6406 11.6836C17.4258 11.4375 18.1172 10.6758 18.1172 9.5625C18.1172 8.05078 16.9922 7.01953 15.3398 7.01953C13.8867 7.01953 12.5859 7.91016 12.5859 9.55078C12.5859 10.7461 13.3242 11.4492 14.0742 11.6836L14.0742 11.7188C13.0781 11.9414 12.3164 12.8672 12.3164 14.1328C12.3164 15.8672 13.6289 16.8984 15.3398 16.8984ZM15.3398 11.1445C14.6016 11.1445 14.2148 10.418 14.2148 9.72656C14.2148 8.97656 14.6133 8.27344 15.3398 8.27344C16.1016 8.27344 16.4766 8.97656 16.4766 9.72656C16.4766 10.5 16.0898 11.1445 15.3398 11.1445ZM15.3398 15.6328C14.4961 15.6328 14.0742 14.8711 14.0742 14.0039C14.0742 13.1602 14.4961 12.4102 15.3398 12.4102C16.1719 12.4102 16.6289 13.1133 16.6289 14.0039C16.6289 14.8711 16.207 15.6328 15.3398 15.6328Z" fill="black" fill-opacity="0.85"/>
 </g>
</svg>
