<?xml version="1.0" encoding="UTF-8"?>
<!--Generator: Apple Native CoreSVG 360-->
<!DOCTYPE svg
PUBLIC "-//W3C//DTD SVG 1.1//EN"
       "http://www.w3.org/Graphics/SVG/1.1/DTD/svg11.dtd">
<svg version="1.1" xmlns="http://www.w3.org/2000/svg" xmlns:xlink="http://www.w3.org/1999/xlink" viewBox="0 0 21.9258 21.5742">
 <g>
  <rect height="21.5742" opacity="0" width="21.9258" x="0" y="0"/>
  <path d="M3.67969 21.5742L17.8945 21.5742C20.3555 21.5742 21.5742 20.3672 21.5742 17.9531L21.5742 3.63281C21.5742 1.21875 20.3555 0 17.8945 0L3.67969 0C1.23047 0 0 1.21875 0 3.63281L0 17.9531C0 20.3672 1.23047 21.5742 3.67969 21.5742ZM3.70312 19.6875C2.53125 19.6875 1.88672 19.0664 1.88672 17.8477L1.88672 3.73828C1.88672 2.51953 2.53125 1.88672 3.70312 1.88672L17.8711 1.88672C19.0312 1.88672 19.6875 2.51953 19.6875 3.73828L19.6875 17.8477C19.6875 19.0664 19.0312 19.6875 17.8711 19.6875Z" fill="black" fill-opacity="0.85"/>
  <path d="M5.21484 15.5273L9.28125 15.5273C9.69141 15.5273 9.94922 15.2578 9.94922 14.8477C9.94922 14.4023 9.67969 14.1562 9.28125 14.1562L6.50391 14.1562L6.50391 14.0625L8.21484 11.8945C9.38672 10.4414 9.77344 9.57422 9.77344 8.54297C9.77344 6.96094 8.69531 5.8125 7.07812 5.8125C5.57812 5.8125 4.44141 7.05469 4.44141 8.27344C4.44141 8.70703 4.6875 9.01172 5.14453 9.01172C5.53125 9.01172 5.76562 8.83594 5.88281 8.44922C6.10547 7.66406 6.39844 7.17188 7.06641 7.17188C7.76953 7.17188 8.16797 7.79297 8.16797 8.625C8.16797 9.5625 7.52344 10.5117 6.89062 11.3086L4.86328 13.9102C4.64062 14.1914 4.42969 14.4844 4.42969 14.8477C4.42969 15.2461 4.67578 15.5273 5.21484 15.5273ZM14.1914 15.7383C16.0547 15.7383 17.2383 14.5781 17.2383 12.9727C17.2383 11.6953 16.4297 10.7695 15.4922 10.5586L15.4922 10.5234C16.2773 10.2773 16.9688 9.51562 16.9688 8.40234C16.9688 6.89062 15.8438 5.85938 14.1914 5.85938C12.75 5.85938 11.4375 6.75 11.4375 8.39062C11.4375 9.58594 12.1758 10.2891 12.9258 10.5234L12.9258 10.5586C11.9297 10.7812 11.168 11.707 11.168 12.9727C11.168 14.707 12.4805 15.7383 14.1914 15.7383ZM14.2031 9.98438C13.4531 9.98438 13.0664 9.25781 13.0664 8.56641C13.0664 7.81641 13.4766 7.11328 14.2031 7.11328C14.9531 7.11328 15.3281 7.81641 15.3281 8.56641C15.3281 9.33984 14.9414 9.98438 14.2031 9.98438ZM14.2031 14.4727C13.3477 14.4727 12.9258 13.7109 12.9258 12.8438C12.9258 12 13.3477 11.25 14.2031 11.25C15.0352 11.25 15.4805 11.9531 15.4805 12.8438C15.4805 13.7109 15.0586 14.4727 14.2031 14.4727Z" fill="black" fill-opacity="0.85"/>
 </g>
</svg>
