<?xml version="1.0" encoding="UTF-8"?>
<!--Generator: Apple Native CoreSVG 360-->
<!DOCTYPE svg
PUBLIC "-//W3C//DTD SVG 1.1//EN"
       "http://www.w3.org/Graphics/SVG/1.1/DTD/svg11.dtd">
<svg version="1.1" xmlns="http://www.w3.org/2000/svg" xmlns:xlink="http://www.w3.org/1999/xlink" viewBox="0 0 23.707 21.5977">
 <g>
  <rect height="21.5977" opacity="0" width="23.707" x="0" y="0"/>
  <path d="M3.67969 21.5977L19.6875 21.5977C22.1367 21.5977 23.3555 20.3789 23.3555 17.9648L23.3555 3.65625C23.3555 1.24219 22.1367 0.0234375 19.6875 0.0234375L3.67969 0.0234375C1.23047 0.0234375 0 1.23047 0 3.65625L0 17.9648C0 20.3906 1.23047 21.5977 3.67969 21.5977ZM3.50391 19.7109C2.46094 19.7109 1.88672 19.1602 1.88672 18.0703L1.88672 7.01953C1.88672 5.94141 2.46094 5.37891 3.50391 5.37891L19.8398 5.37891C20.8828 5.37891 21.4688 5.94141 21.4688 7.01953L21.4688 18.0703C21.4688 19.1602 20.8828 19.7109 19.8398 19.7109Z" fill="black" fill-opacity="0.85"/>
  <path d="M6.21094 17.2852L10.2773 17.2852C10.6875 17.2852 10.9453 17.0156 10.9453 16.5938C10.9453 16.1602 10.6758 15.9141 10.2773 15.9141L7.5 15.9141L7.5 15.8203L9.21094 13.6523C10.3828 12.1992 10.7695 11.332 10.7695 10.3008C10.7695 8.70703 9.69141 7.57031 8.07422 7.57031C6.57422 7.57031 5.4375 8.8125 5.4375 10.0312C5.4375 10.4531 5.68359 10.7695 6.14062 10.7695C6.52734 10.7695 6.76172 10.5938 6.87891 10.207C7.10156 9.42188 7.39453 8.91797 8.0625 8.91797C8.76562 8.91797 9.16406 9.55078 9.16406 10.3711C9.16406 11.3203 8.51953 12.2578 7.88672 13.0547L5.85938 15.668C5.63672 15.9492 5.42578 16.2305 5.42578 16.6055C5.42578 16.9922 5.67188 17.2852 6.21094 17.2852ZM14.4609 14.0156C15.4102 14.0156 16.125 13.3828 16.3945 12.375L16.4414 12.375C16.4414 12.4102 16.4414 12.4688 16.4414 12.5039C16.4414 13.8047 16.2773 16.1367 14.9648 16.1367C14.4375 16.1367 14.0859 15.7734 13.8867 15.2695C13.7109 14.8945 13.4766 14.7305 13.125 14.7305C12.6328 14.7305 12.4219 15.0703 12.4219 15.4453C12.4219 15.5859 12.457 15.7266 12.4922 15.8672C12.75 16.8984 13.7695 17.5078 14.9414 17.5078C17.3438 17.5078 18.0352 14.8477 18.0352 12.457C18.0352 10.2422 17.332 7.59375 14.9531 7.59375C13.1719 7.59375 12.1406 9.09375 12.1406 10.9336C12.1406 12.5039 12.9023 14.0156 14.4609 14.0156ZM14.9766 12.7148C14.1094 12.7148 13.7578 11.7188 13.7578 10.8633C13.7578 9.97266 14.1562 8.95312 14.9766 8.95312C15.8672 8.95312 16.2188 9.98438 16.2188 10.8633C16.2188 11.7656 15.8203 12.7148 14.9766 12.7148Z" fill="black" fill-opacity="0.85"/>
 </g>
</svg>
