<?xml version="1.0" encoding="UTF-8"?>
<!--Generator: Apple Native CoreSVG 360-->
<!DOCTYPE svg
PUBLIC "-//W3C//DTD SVG 1.1//EN"
       "http://www.w3.org/Graphics/SVG/1.1/DTD/svg11.dtd">
<svg version="1.1" xmlns="http://www.w3.org/2000/svg" xmlns:xlink="http://www.w3.org/1999/xlink" viewBox="0 0 21.9258 21.5742">
 <g>
  <rect height="21.5742" opacity="0" width="21.9258" x="0" y="0"/>
  <path d="M3.67969 21.5742L17.8945 21.5742C20.3555 21.5742 21.5742 20.3672 21.5742 17.9531L21.5742 3.63281C21.5742 1.21875 20.3555 0 17.8945 0L3.67969 0C1.23047 0 0 1.21875 0 3.63281L0 17.9531C0 20.3672 1.23047 21.5742 3.67969 21.5742ZM3.70312 19.6875C2.53125 19.6875 1.88672 19.0664 1.88672 17.8477L1.88672 3.73828C1.88672 2.51953 2.53125 1.88672 3.70312 1.88672L17.8711 1.88672C19.0312 1.88672 19.6875 2.51953 19.6875 3.73828L19.6875 17.8477C19.6875 19.0664 19.0312 19.6875 17.8711 19.6875Z" fill="black" fill-opacity="0.85"/>
  <path d="M5.32031 15.5273L9.38672 15.5273C9.79688 15.5273 10.0547 15.2578 10.0547 14.8477C10.0547 14.4023 9.78516 14.1562 9.38672 14.1562L6.60938 14.1562L6.60938 14.0625L8.30859 11.8945C9.49219 10.4414 9.86719 9.57422 9.86719 8.54297C9.86719 6.96094 8.80078 5.8125 7.18359 5.8125C5.68359 5.8125 4.54688 7.05469 4.54688 8.27344C4.54688 8.70703 4.79297 9.01172 5.23828 9.01172C5.63672 9.01172 5.87109 8.83594 5.98828 8.44922C6.21094 7.66406 6.50391 7.17188 7.17188 7.17188C7.875 7.17188 8.27344 7.79297 8.27344 8.625C8.27344 9.5625 7.61719 10.5117 6.99609 11.3086L4.96875 13.9102C4.74609 14.1914 4.52344 14.4844 4.52344 14.8477C4.52344 15.2461 4.78125 15.5273 5.32031 15.5273ZM13.5703 12.2578C14.5195 12.2578 15.2344 11.625 15.5039 10.6172L15.5508 10.6172C15.5508 10.6641 15.5508 10.7109 15.5508 10.7461C15.5508 12.0469 15.3867 14.3906 14.0742 14.3906C13.5469 14.3906 13.1953 14.0273 12.9844 13.5234C12.8203 13.1367 12.5859 12.9844 12.2344 12.9844C11.7422 12.9844 11.5312 13.3125 11.5312 13.6992C11.5312 13.8398 11.5664 13.9805 11.6016 14.1211C11.8477 15.1406 12.8672 15.7617 14.0391 15.7617C16.4531 15.7617 17.1445 13.1016 17.1445 10.6992C17.1445 8.48438 16.4414 5.83594 14.0625 5.83594C12.2812 5.83594 11.25 7.33594 11.25 9.17578C11.25 10.7578 12.0117 12.2578 13.5703 12.2578ZM14.0859 10.9688C13.2188 10.9688 12.8672 9.97266 12.8672 9.10547C12.8672 8.22656 13.2656 7.19531 14.0859 7.19531C14.9648 7.19531 15.3281 8.22656 15.3281 9.10547C15.3281 10.0078 14.9297 10.9688 14.0859 10.9688Z" fill="black" fill-opacity="0.85"/>
 </g>
</svg>
