<?xml version="1.0" encoding="UTF-8"?>
<!--Generator: Apple Native CoreSVG 360-->
<!DOCTYPE svg
PUBLIC "-//W3C//DTD SVG 1.1//EN"
       "http://www.w3.org/Graphics/SVG/1.1/DTD/svg11.dtd">
<svg version="1.1" xmlns="http://www.w3.org/2000/svg" xmlns:xlink="http://www.w3.org/1999/xlink" viewBox="0 0 28.7344 17.332">
 <g>
  <rect height="17.332" opacity="0" width="28.7344" x="0" y="0"/>
  <path d="M1.03125 17.0625L10.7695 17.0625C11.3555 17.0625 11.7305 16.6875 11.7305 16.1133C11.7305 15.5508 11.3555 15.1758 10.7695 15.1758L2.96484 15.1758L2.96484 15.1172L7.53516 10.6641C10.3242 7.95703 11.1562 6.55078 11.1562 4.74609C11.1562 2.0625 8.76562 0.0117188 5.58984 0.0117188C3.10547 0.0117188 0.960938 1.35938 0.257812 3.42188C0.117188 3.82031 0.0585938 4.14844 0.0585938 4.44141C0.0585938 5.02734 0.398438 5.41406 0.972656 5.41406C1.52344 5.41406 1.75781 5.15625 1.93359 4.57031C2.02734 4.20703 2.15625 3.87891 2.34375 3.57422C2.97656 2.53125 4.125 1.86328 5.58984 1.86328C7.48828 1.86328 9 3.19922 9 4.86328C9 6.21094 8.46094 7.125 6.14062 9.41016L0.65625 14.8594C0.164062 15.3516 0 15.6445 0 16.0781C0 16.6875 0.410156 17.0625 1.03125 17.0625ZM15.9727 17.3086C16.5586 17.3086 17.0156 16.8398 17.0156 16.2656L17.0156 9.36328L26.2969 9.36328L26.2969 16.2656C26.2969 16.8398 26.7656 17.3086 27.3398 17.3086C27.9141 17.3086 28.3828 16.8398 28.3828 16.2656L28.3828 1.04297C28.3828 0.457031 27.9141 0 27.3398 0C26.7656 0 26.2969 0.457031 26.2969 1.04297L26.2969 7.54688L17.0156 7.54688L17.0156 1.04297C17.0156 0.457031 16.5586 0 15.9727 0C15.3984 0 14.9297 0.457031 14.9297 1.04297L14.9297 16.2656C14.9297 16.8398 15.3984 17.3086 15.9727 17.3086Z" fill="black" fill-opacity="0.85"/>
 </g>
</svg>
