<?xml version="1.0" encoding="UTF-8"?>
<!--Generator: Apple Native CoreSVG 360-->
<!DOCTYPE svg
PUBLIC "-//W3C//DTD SVG 1.1//EN"
       "http://www.w3.org/Graphics/SVG/1.1/DTD/svg11.dtd">
<svg version="1.1" xmlns="http://www.w3.org/2000/svg" xmlns:xlink="http://www.w3.org/1999/xlink" viewBox="0 0 23.707 21.5977">
 <g>
  <rect height="21.5977" opacity="0" width="23.707" x="0" y="0"/>
  <path d="M3.67969 21.5977L19.6875 21.5977C22.1367 21.5977 23.3555 20.3789 23.3555 17.9648L23.3555 3.65625C23.3555 1.24219 22.1367 0.0234375 19.6875 0.0234375L3.67969 0.0234375C1.23047 0.0234375 0 1.23047 0 3.65625L0 17.9648C0 20.3906 1.23047 21.5977 3.67969 21.5977ZM3.50391 19.7109C2.46094 19.7109 1.88672 19.1602 1.88672 18.0703L1.88672 7.01953C1.88672 5.94141 2.46094 5.37891 3.50391 5.37891L19.8398 5.37891C20.8828 5.37891 21.4688 5.94141 21.4688 7.01953L21.4688 18.0703C21.4688 19.1602 20.8828 19.7109 19.8398 19.7109Z" fill="black" fill-opacity="0.85"/>
  <path d="M11.7422 17.6953C14.0625 17.6953 15.4922 16.4648 15.4922 14.7656C15.4922 13.5 14.5312 12.4805 13.2188 12.3633L13.2188 12.2812C14.3086 12.1172 15.1523 11.1211 15.1523 9.99609C15.1523 8.48438 13.7695 7.40625 11.8359 7.40625C10.0781 7.40625 8.74219 8.22656 8.46094 9.50391C8.42578 9.65625 8.41406 9.77344 8.41406 9.92578C8.41406 10.3594 8.71875 10.6406 9.15234 10.6406C9.52734 10.6406 9.76172 10.4648 9.87891 10.0898C10.125 9.28125 10.8047 8.77734 11.8008 8.77734C12.8906 8.77734 13.5469 9.30469 13.5469 10.1836C13.5469 11.0742 12.7969 11.7305 11.7656 11.7305L11.0859 11.7305C10.6992 11.7305 10.4062 12 10.4062 12.3984C10.4062 12.7734 10.6992 13.0547 11.0859 13.0547L11.8242 13.0547C13.043 13.0547 13.875 13.7227 13.875 14.707C13.875 15.6797 13.043 16.3242 11.7773 16.3242C10.6055 16.3242 9.94922 15.75 9.69141 15.0117C9.53906 14.6133 9.31641 14.4492 8.94141 14.4492C8.50781 14.4492 8.20312 14.7539 8.20312 15.1875C8.20312 15.3516 8.21484 15.4453 8.25 15.5977C8.56641 16.8398 9.98438 17.6953 11.7422 17.6953Z" fill="black" fill-opacity="0.85"/>
 </g>
</svg>
