<?xml version="1.0" encoding="UTF-8"?>
<!--Generator: Apple Native CoreSVG 360-->
<!DOCTYPE svg
PUBLIC "-//W3C//DTD SVG 1.1//EN"
       "http://www.w3.org/Graphics/SVG/1.1/DTD/svg11.dtd">
<svg version="1.1" xmlns="http://www.w3.org/2000/svg" xmlns:xlink="http://www.w3.org/1999/xlink" viewBox="0 0 24.2578 23.918">
 <g>
  <rect height="23.918" opacity="0" width="24.2578" x="0" y="0"/>
  <path d="M11.9531 23.9062C18.5508 23.9062 23.9062 18.5508 23.9062 11.9531C23.9062 5.35547 18.5508 0 11.9531 0C5.35547 0 0 5.35547 0 11.9531C0 18.5508 5.35547 23.9062 11.9531 23.9062ZM11.9531 21.9141C6.44531 21.9141 1.99219 17.4609 1.99219 11.9531C1.99219 6.44531 6.44531 1.99219 11.9531 1.99219C17.4609 1.99219 21.9141 6.44531 21.9141 11.9531C21.9141 17.4609 17.4609 21.9141 11.9531 21.9141Z" fill="black" fill-opacity="0.85"/>
  <path d="M11.9766 17.5312C14.4961 17.5312 16.0547 16.207 16.0547 14.3672C16.0547 12.9844 15.0117 11.8828 13.5938 11.7539L13.5938 11.6602C14.7656 11.4844 15.6797 10.4062 15.6797 9.17578C15.6797 7.54688 14.1797 6.375 12.082 6.375C10.1719 6.375 8.73047 7.26562 8.41406 8.64844C8.37891 8.8125 8.36719 8.94141 8.36719 9.11719C8.36719 9.57422 8.69531 9.89062 9.16406 9.89062C9.58594 9.89062 9.83203 9.69141 9.96094 9.28125C10.2305 8.40234 10.957 7.85156 12.0469 7.85156C13.2188 7.85156 13.9453 8.4375 13.9453 9.38672C13.9453 10.3477 13.125 11.0625 12.0117 11.0625L11.2734 11.0625C10.8398 11.0625 10.5352 11.3555 10.5352 11.7891C10.5352 12.1992 10.8398 12.5039 11.2734 12.5039L12.0703 12.5039C13.3945 12.5039 14.2969 13.2305 14.2969 14.2969C14.2969 15.3516 13.3828 16.043 12.0117 16.043C10.7461 16.043 10.0312 15.4219 9.75 14.6133C9.58594 14.2031 9.35156 14.0156 8.94141 14.0156C8.47266 14.0156 8.13281 14.3438 8.13281 14.8125C8.13281 14.9883 8.15625 15.0938 8.19141 15.2578C8.54297 16.6055 10.0664 17.5312 11.9766 17.5312Z" fill="black" fill-opacity="0.85"/>
 </g>
</svg>
