<?xml version="1.0" encoding="UTF-8"?>
<!--Generator: Apple Native CoreSVG 360-->
<!DOCTYPE svg
PUBLIC "-//W3C//DTD SVG 1.1//EN"
       "http://www.w3.org/Graphics/SVG/1.1/DTD/svg11.dtd">
<svg version="1.1" xmlns="http://www.w3.org/2000/svg" xmlns:xlink="http://www.w3.org/1999/xlink" viewBox="0 0 21.9258 21.5742">
 <g>
  <rect height="21.5742" opacity="0" width="21.9258" x="0" y="0"/>
  <path d="M3.67969 21.5742L17.8945 21.5742C20.3555 21.5742 21.5742 20.3672 21.5742 17.9531L21.5742 3.63281C21.5742 1.21875 20.3555 0 17.8945 0L3.67969 0C1.23047 0 0 1.21875 0 3.63281L0 17.9531C0 20.3672 1.23047 21.5742 3.67969 21.5742ZM3.70312 19.6875C2.53125 19.6875 1.88672 19.0664 1.88672 17.8477L1.88672 3.73828C1.88672 2.51953 2.53125 1.88672 3.70312 1.88672L17.8711 1.88672C19.0312 1.88672 19.6875 2.51953 19.6875 3.73828L19.6875 17.8477C19.6875 19.0664 19.0312 19.6875 17.8711 19.6875Z" fill="black" fill-opacity="0.85"/>
  <path d="M10.8398 16.3711C13.3477 16.3711 14.9062 15.0469 14.9062 13.207C14.9062 11.8242 13.8633 10.7227 12.4453 10.5938L12.4453 10.5C13.6172 10.3242 14.5312 9.24609 14.5312 8.01562C14.5312 6.38672 13.0312 5.21484 10.9336 5.21484C9.02344 5.21484 7.58203 6.10547 7.27734 7.48828C7.23047 7.65234 7.21875 7.78125 7.21875 7.95703C7.21875 8.41406 7.54688 8.73047 8.01562 8.73047C8.4375 8.73047 8.68359 8.53125 8.82422 8.12109C9.08203 7.24219 9.82031 6.69141 10.8984 6.69141C12.0703 6.69141 12.7969 7.27734 12.7969 8.22656C12.7969 9.1875 11.9766 9.90234 10.8633 9.90234L10.125 9.90234C9.70312 9.90234 9.38672 10.1953 9.38672 10.6289C9.38672 11.0391 9.70312 11.3438 10.125 11.3438L10.9219 11.3438C12.2461 11.3438 13.1602 12.0703 13.1602 13.1367C13.1602 14.1914 12.2461 14.8828 10.875 14.8828C9.59766 14.8828 8.89453 14.2617 8.60156 13.4531C8.44922 13.043 8.20312 12.8555 7.79297 12.8555C7.32422 12.8555 6.99609 13.1836 6.99609 13.6523C6.99609 13.8281 7.00781 13.9336 7.04297 14.0977C7.39453 15.4453 8.91797 16.3711 10.8398 16.3711Z" fill="black" fill-opacity="0.85"/>
 </g>
</svg>
