<?xml version="1.0" encoding="UTF-8"?>
<!--Generator: Apple Native CoreSVG 360-->
<!DOCTYPE svg
PUBLIC "-//W3C//DTD SVG 1.1//EN"
       "http://www.w3.org/Graphics/SVG/1.1/DTD/svg11.dtd">
<svg version="1.1" xmlns="http://www.w3.org/2000/svg" xmlns:xlink="http://www.w3.org/1999/xlink" viewBox="0 0 24.2578 28.468">
 <g>
  <rect height="28.468" opacity="0" width="24.2578" x="0" y="0"/>
  <path d="M14.2148 0.833612C14.2148-0.0101376 13.6406-0.221075 12.9844 0.235956L9.25781 2.86096C8.71875 3.24767 8.73047 3.81017 9.25781 4.18517L12.9961 6.81017C13.6406 7.25549 14.2148 7.04455 14.2148 6.21252ZM11.9531 26.1813C18.5508 26.1813 23.9062 20.8258 23.9062 14.2281C23.9062 7.63049 18.5625 2.28674 11.9414 2.27502C11.3906 2.28674 10.957 2.73205 10.957 3.25939C10.957 3.81017 11.4023 4.26721 11.9531 4.26721C17.4609 4.26721 21.9141 8.72033 21.9141 14.2281C21.9141 19.736 17.4609 24.1891 11.9531 24.1891C6.44531 24.1891 1.99219 19.736 1.99219 14.2281C1.99219 10.8883 3.63281 7.94689 6.11719 6.16564C6.59766 5.80236 6.75 5.25158 6.45703 4.75939C6.16406 4.29064 5.49609 4.15002 4.98047 4.54846C1.95703 6.72814 0 10.2086 0 14.2281C0 20.8258 5.35547 26.1813 11.9531 26.1813Z" fill="black" fill-opacity="0.85"/>
  <path d="M8.20312 19.1149C9.92578 19.1149 11.2969 18.1188 11.2969 16.4547C11.2969 15.107 10.4062 14.4039 9.32812 14.2985L9.32812 14.275C10.3711 14.0406 10.9922 13.2086 10.9922 12.1891C10.9922 10.6656 9.73828 9.81017 8.16797 9.81017C6.85547 9.81017 5.73047 10.5485 5.47266 11.6031C5.4375 11.732 5.41406 11.8844 5.41406 12.025C5.41406 12.3883 5.61328 12.693 6.09375 12.693C6.49219 12.693 6.70312 12.5289 6.83203 12.1539C7.05469 11.4508 7.51172 11.0992 8.17969 11.0992C8.96484 11.0992 9.44531 11.6031 9.44531 12.3883C9.44531 13.2438 8.85938 13.7477 7.99219 13.7477L7.65234 13.7477C7.25391 13.7477 7.01953 13.982 7.01953 14.3453C7.01953 14.732 7.26562 14.943 7.65234 14.943L8.01562 14.943C8.96484 14.943 9.65625 15.3531 9.65625 16.3844C9.65625 17.2164 9.07031 17.7906 8.21484 17.7906C7.39453 17.7906 6.91406 17.3688 6.70312 16.7242C6.55078 16.4078 6.29297 16.2086 5.97656 16.2086C5.53125 16.2086 5.25 16.4781 5.25 16.9117C5.25 17.0524 5.27344 17.193 5.30859 17.3336C5.60156 18.5172 6.96094 19.1149 8.20312 19.1149ZM15.7148 19.1149C18.0117 19.1149 18.832 16.7594 18.832 14.4391C18.832 12.1305 18.0117 9.77502 15.7148 9.77502C13.3945 9.77502 12.5859 12.1422 12.5859 14.4391C12.5859 16.7711 13.4062 19.1149 15.7148 19.1149ZM15.7148 17.7906C14.7305 17.7906 14.2383 16.3492 14.2383 14.4391C14.2383 12.5406 14.7305 11.111 15.7148 11.111C16.6875 11.111 17.1797 12.5406 17.1797 14.4391C17.1797 16.3492 16.6875 17.7906 15.7148 17.7906Z" fill="black" fill-opacity="0.85"/>
 </g>
</svg>
