<?xml version="1.0" encoding="UTF-8"?>
<!--Generator: Apple Native CoreSVG 360-->
<!DOCTYPE svg
PUBLIC "-//W3C//DTD SVG 1.1//EN"
       "http://www.w3.org/Graphics/SVG/1.1/DTD/svg11.dtd">
<svg version="1.1" xmlns="http://www.w3.org/2000/svg" xmlns:xlink="http://www.w3.org/1999/xlink" viewBox="0 0 23.707 21.5977">
 <g>
  <rect height="21.5977" opacity="0" width="23.707" x="0" y="0"/>
  <path d="M3.67969 21.5977L19.6875 21.5977C22.1367 21.5977 23.3555 20.3789 23.3555 17.9648L23.3555 3.65625C23.3555 1.24219 22.1367 0.0234375 19.6875 0.0234375L3.67969 0.0234375C1.23047 0.0234375 0 1.23047 0 3.65625L0 17.9648C0 20.3906 1.23047 21.5977 3.67969 21.5977ZM3.50391 19.7109C2.46094 19.7109 1.88672 19.1602 1.88672 18.0703L1.88672 7.01953C1.88672 5.94141 2.46094 5.37891 3.50391 5.37891L19.8398 5.37891C20.8828 5.37891 21.4688 5.94141 21.4688 7.01953L21.4688 18.0703C21.4688 19.1602 20.8828 19.7109 19.8398 19.7109Z" fill="black" fill-opacity="0.85"/>
  <path d="M8.05078 17.4844C9.73828 17.4844 11.0273 16.4297 11.0273 14.6719C11.0273 13.2188 10.1602 12.5039 9.16406 12.3984L9.16406 12.3516C10.2305 12.0703 10.7461 11.1328 10.7461 10.1367C10.7461 8.51953 9.53906 7.60547 8.00391 7.60547C6.79688 7.60547 5.75391 8.28516 5.41406 9.32812C5.35547 9.53906 5.32031 9.75 5.32031 9.94922C5.32031 10.3359 5.57812 10.6406 6.04688 10.6406C6.44531 10.6406 6.67969 10.4883 6.79688 10.0898C6.97266 9.39844 7.34766 8.95312 8.00391 8.95312C8.77734 8.95312 9.15234 9.5625 9.15234 10.3359C9.15234 11.1914 8.67188 11.8008 7.79297 11.8008L7.51172 11.8008C7.11328 11.8008 6.86719 12.0469 6.86719 12.4336C6.86719 12.8203 7.125 13.043 7.51172 13.043L7.81641 13.043C8.80078 13.043 9.35156 13.5938 9.35156 14.6133C9.35156 15.4336 8.92969 16.1133 8.05078 16.1133C7.20703 16.1133 6.82031 15.5391 6.67969 15.0117C6.5625 14.6367 6.31641 14.4258 5.94141 14.4258C5.47266 14.4258 5.16797 14.707 5.16797 15.1641C5.16797 15.375 5.20312 15.5859 5.26172 15.7852C5.60156 16.8633 6.79688 17.4844 8.05078 17.4844ZM15.293 17.5078C17.625 17.5078 18.3281 14.8828 18.3281 12.5273C18.3281 10.1719 17.625 7.54688 15.293 7.54688C12.9609 7.54688 12.2578 10.1719 12.2578 12.5273C12.2578 14.8828 12.9609 17.5078 15.293 17.5078ZM15.293 16.125C14.332 16.125 13.9688 14.5664 13.9688 12.5273C13.9688 10.5 14.332 8.94141 15.293 8.94141C16.2539 8.94141 16.6172 10.5 16.6172 12.5273C16.6172 14.5664 16.2539 16.125 15.293 16.125Z" fill="black" fill-opacity="0.85"/>
 </g>
</svg>
