<?xml version="1.0" encoding="UTF-8"?>
<!--Generator: Apple Native CoreSVG 360-->
<!DOCTYPE svg
PUBLIC "-//W3C//DTD SVG 1.1//EN"
       "http://www.w3.org/Graphics/SVG/1.1/DTD/svg11.dtd">
<svg version="1.1" xmlns="http://www.w3.org/2000/svg" xmlns:xlink="http://www.w3.org/1999/xlink" viewBox="0 0 24.2578 23.918">
 <g>
  <rect height="23.918" opacity="0" width="24.2578" x="0" y="0"/>
  <path d="M11.9531 23.9062C18.5508 23.9062 23.9062 18.5508 23.9062 11.9531C23.9062 5.35547 18.5508 0 11.9531 0C5.35547 0 0 5.35547 0 11.9531C0 18.5508 5.35547 23.9062 11.9531 23.9062ZM11.9531 21.9141C6.44531 21.9141 1.99219 17.4609 1.99219 11.9531C1.99219 6.44531 6.44531 1.99219 11.9531 1.99219C17.4609 1.99219 21.9141 6.44531 21.9141 11.9531C21.9141 17.4609 17.4609 21.9141 11.9531 21.9141Z" fill="black" fill-opacity="0.85"/>
  <path d="M8.30859 16.8867C9.98438 16.8867 11.2852 15.832 11.2852 14.0742C11.2852 12.6211 10.4062 11.9062 9.42188 11.8008L9.42188 11.7539C10.4883 11.4727 11.0039 10.5352 11.0039 9.55078C11.0039 7.93359 9.78516 7.00781 8.26172 7.00781C7.05469 7.00781 6 7.6875 5.67188 8.73047C5.60156 8.95312 5.57812 9.16406 5.57812 9.36328C5.57812 9.73828 5.83594 10.0547 6.30469 10.0547C6.70312 10.0547 6.92578 9.89062 7.04297 9.49219C7.23047 8.80078 7.60547 8.35547 8.26172 8.35547C9.03516 8.35547 9.41016 8.96484 9.41016 9.73828C9.41016 10.5938 8.92969 11.2148 8.05078 11.2148L7.76953 11.2148C7.37109 11.2148 7.125 11.4609 7.125 11.8359C7.125 12.2227 7.38281 12.457 7.76953 12.457L8.0625 12.457C9.05859 12.457 9.60938 12.9961 9.60938 14.0273C9.60938 14.8359 9.1875 15.5156 8.30859 15.5156C7.45312 15.5156 7.07812 14.9414 6.9375 14.4141C6.82031 14.0391 6.57422 13.8398 6.1875 13.8398C5.73047 13.8398 5.42578 14.1094 5.42578 14.5781C5.42578 14.7891 5.46094 15 5.51953 15.1875C5.85938 16.2773 7.04297 16.8867 8.30859 16.8867ZM15.5391 16.9219C17.8828 16.9219 18.5742 14.2969 18.5742 11.9414C18.5742 9.58594 17.8828 6.96094 15.5391 6.96094C13.207 6.96094 12.5156 9.58594 12.5156 11.9414C12.5156 14.2969 13.207 16.9219 15.5391 16.9219ZM15.5391 15.5273C14.5898 15.5273 14.2266 13.9688 14.2266 11.9414C14.2266 9.90234 14.5898 8.34375 15.5391 8.34375C16.5 8.34375 16.8633 9.90234 16.8633 11.9414C16.8633 13.9688 16.5 15.5273 15.5391 15.5273Z" fill="black" fill-opacity="0.85"/>
 </g>
</svg>
