<?xml version="1.0" encoding="UTF-8"?>
<!--Generator: Apple Native CoreSVG 360-->
<!DOCTYPE svg
PUBLIC "-//W3C//DTD SVG 1.1//EN"
       "http://www.w3.org/Graphics/SVG/1.1/DTD/svg11.dtd">
<svg version="1.1" xmlns="http://www.w3.org/2000/svg" xmlns:xlink="http://www.w3.org/1999/xlink" viewBox="0 0 24.2578 23.918">
 <g>
  <rect height="23.918" opacity="0" width="24.2578" x="0" y="0"/>
  <path d="M11.9531 23.9062C18.5508 23.9062 23.9062 18.5508 23.9062 11.9531C23.9062 5.35547 18.5508 0 11.9531 0C5.35547 0 0 5.35547 0 11.9531C0 18.5508 5.35547 23.9062 11.9531 23.9062ZM11.9531 21.9141C6.44531 21.9141 1.99219 17.4609 1.99219 11.9531C1.99219 6.44531 6.44531 1.99219 11.9531 1.99219C17.4609 1.99219 21.9141 6.44531 21.9141 11.9531C21.9141 17.4609 17.4609 21.9141 11.9531 21.9141Z" fill="black" fill-opacity="0.85"/>
  <path d="M9.1875 16.8984C10.8633 16.8984 12.1641 15.8438 12.1641 14.0859C12.1641 12.6328 11.2852 11.918 10.3008 11.8125L10.3008 11.7773C11.3555 11.4961 11.8828 10.5469 11.8828 9.5625C11.8828 7.94531 10.6641 7.01953 9.14062 7.01953C7.93359 7.01953 6.87891 7.69922 6.55078 8.74219C6.48047 8.96484 6.45703 9.17578 6.45703 9.375C6.45703 9.76172 6.71484 10.0664 7.17188 10.0664C7.57031 10.0664 7.80469 9.91406 7.92188 9.50391C8.10938 8.8125 8.48438 8.37891 9.14062 8.37891C9.91406 8.37891 10.2773 8.97656 10.2773 9.75C10.2773 10.6055 9.80859 11.2266 8.92969 11.2266L8.64844 11.2266C8.25 11.2266 8.00391 11.4727 8.00391 11.8594C8.00391 12.2461 8.26172 12.4688 8.64844 12.4688L8.94141 12.4688C9.9375 12.4688 10.4883 13.0195 10.4883 14.0391C10.4883 14.8477 10.0547 15.5391 9.1875 15.5391C8.33203 15.5391 7.95703 14.9648 7.80469 14.4258C7.69922 14.0508 7.44141 13.8516 7.06641 13.8516C6.60938 13.8516 6.30469 14.1328 6.30469 14.5898C6.30469 14.8008 6.33984 15.0117 6.39844 15.1992C6.73828 16.2891 7.92188 16.8984 9.1875 16.8984ZM16.1016 16.8164C16.5586 16.8164 16.9453 16.4297 16.9453 15.9609L16.9453 8.01562C16.9453 7.41797 16.5703 7.06641 15.9609 7.06641C15.4688 7.06641 15.0703 7.33594 14.8008 7.54688L13.5117 8.54297C13.3008 8.70703 13.1367 8.92969 13.1367 9.23438C13.1367 9.59766 13.3828 9.85547 13.7344 9.85547C13.9219 9.85547 14.0391 9.79688 14.1562 9.71484L15.2344 8.84766L15.2344 15.9609C15.2344 16.4297 15.6211 16.8164 16.1016 16.8164Z" fill="black" fill-opacity="0.85"/>
 </g>
</svg>
