<?xml version="1.0" encoding="UTF-8"?>
<!--Generator: Apple Native CoreSVG 360-->
<!DOCTYPE svg
PUBLIC "-//W3C//DTD SVG 1.1//EN"
       "http://www.w3.org/Graphics/SVG/1.1/DTD/svg11.dtd">
<svg version="1.1" xmlns="http://www.w3.org/2000/svg" xmlns:xlink="http://www.w3.org/1999/xlink" viewBox="0 0 23.707 21.5977">
 <g>
  <rect height="21.5977" opacity="0" width="23.707" x="0" y="0"/>
  <path d="M3.67969 21.5977L19.6875 21.5977C22.1367 21.5977 23.3555 20.3789 23.3555 17.9648L23.3555 3.65625C23.3555 1.24219 22.1367 0.0234375 19.6875 0.0234375L3.67969 0.0234375C1.23047 0.0234375 0 1.23047 0 3.65625L0 17.9648C0 20.3906 1.23047 21.5977 3.67969 21.5977ZM3.50391 19.7109C2.46094 19.7109 1.88672 19.1602 1.88672 18.0703L1.88672 7.01953C1.88672 5.94141 2.46094 5.37891 3.50391 5.37891L19.8398 5.37891C20.8828 5.37891 21.4688 5.94141 21.4688 7.01953L21.4688 18.0703C21.4688 19.1602 20.8828 19.7109 19.8398 19.7109Z" fill="black" fill-opacity="0.85"/>
  <path d="M8.92969 17.4961C10.6055 17.4961 11.9062 16.4414 11.9062 14.6836C11.9062 13.2305 11.0273 12.5156 10.043 12.4102L10.043 12.3633C11.1094 12.082 11.625 11.1445 11.625 10.1602C11.625 8.54297 10.418 7.61719 8.88281 7.61719C7.67578 7.61719 6.63281 8.29688 6.29297 9.33984C6.22266 9.5625 6.19922 9.76172 6.19922 9.97266C6.19922 10.3477 6.45703 10.6641 6.92578 10.6641C7.32422 10.6641 7.55859 10.5 7.66406 10.1016C7.85156 9.41016 8.22656 8.96484 8.88281 8.96484C9.65625 8.96484 10.0312 9.57422 10.0312 10.3477C10.0312 11.2031 9.55078 11.8242 8.67188 11.8242L8.39062 11.8242C7.99219 11.8242 7.74609 12.0586 7.74609 12.4453C7.74609 12.832 8.00391 13.0664 8.39062 13.0664L8.68359 13.0664C9.67969 13.0664 10.2305 13.6055 10.2305 14.6367C10.2305 15.4453 9.80859 16.125 8.92969 16.125C8.07422 16.125 7.69922 15.5508 7.55859 15.0234C7.44141 14.6484 7.19531 14.4492 6.82031 14.4492C6.35156 14.4492 6.04688 14.7188 6.04688 15.1875C6.04688 15.3984 6.08203 15.6094 6.14062 15.7969C6.48047 16.8867 7.67578 17.4961 8.92969 17.4961ZM15.8438 17.4141C16.3008 17.4141 16.6875 17.0273 16.6875 16.5469L16.6875 8.61328C16.6875 8.00391 16.3125 7.65234 15.7031 7.65234C15.2109 7.65234 14.8125 7.92188 14.543 8.13281L13.2539 9.14062C13.043 9.29297 12.8789 9.52734 12.8789 9.83203C12.8789 10.1953 13.125 10.4531 13.4883 10.4531C13.6641 10.4531 13.7812 10.3945 13.8984 10.3008L14.9766 9.44531L14.9766 16.5469C14.9766 17.0273 15.3633 17.4141 15.8438 17.4141Z" fill="black" fill-opacity="0.85"/>
 </g>
</svg>
