<?xml version="1.0" encoding="UTF-8"?>
<!--Generator: Apple Native CoreSVG 360-->
<!DOCTYPE svg
PUBLIC "-//W3C//DTD SVG 1.1//EN"
       "http://www.w3.org/Graphics/SVG/1.1/DTD/svg11.dtd">
<svg version="1.1" xmlns="http://www.w3.org/2000/svg" xmlns:xlink="http://www.w3.org/1999/xlink" viewBox="0 0 21.9258 21.5742">
 <g>
  <rect height="21.5742" opacity="0" width="21.9258" x="0" y="0"/>
  <path d="M3.67969 21.5742L17.8945 21.5742C20.3555 21.5742 21.5742 20.3672 21.5742 17.9531L21.5742 3.63281C21.5742 1.21875 20.3555 0 17.8945 0L3.67969 0C1.23047 0 0 1.21875 0 3.63281L0 17.9531C0 20.3672 1.23047 21.5742 3.67969 21.5742ZM3.70312 19.6875C2.53125 19.6875 1.88672 19.0664 1.88672 17.8477L1.88672 3.73828C1.88672 2.51953 2.53125 1.88672 3.70312 1.88672L17.8711 1.88672C19.0312 1.88672 19.6875 2.51953 19.6875 3.73828L19.6875 17.8477C19.6875 19.0664 19.0312 19.6875 17.8711 19.6875Z" fill="black" fill-opacity="0.85"/>
  <path d="M7.30078 15.7383C8.97656 15.7383 10.2773 14.6836 10.2773 12.9258C10.2773 11.4727 9.39844 10.7578 8.41406 10.6523L8.41406 10.6172C9.48047 10.3359 9.99609 9.38672 9.99609 8.40234C9.99609 6.78516 8.77734 5.85938 7.25391 5.85938C6.04688 5.85938 4.99219 6.53906 4.66406 7.58203C4.59375 7.80469 4.57031 8.01562 4.57031 8.21484C4.57031 8.60156 4.82812 8.90625 5.28516 8.90625C5.69531 8.90625 5.91797 8.75391 6.03516 8.34375C6.22266 7.65234 6.59766 7.21875 7.25391 7.21875C8.02734 7.21875 8.40234 7.81641 8.40234 8.58984C8.40234 9.44531 7.92188 10.0664 7.04297 10.0664L6.76172 10.0664C6.36328 10.0664 6.11719 10.3125 6.11719 10.6992C6.11719 11.0859 6.375 11.3086 6.76172 11.3086L7.05469 11.3086C8.05078 11.3086 8.60156 11.8594 8.60156 12.8789C8.60156 13.6875 8.16797 14.3789 7.30078 14.3789C6.44531 14.3789 6.07031 13.8047 5.91797 13.2656C5.8125 12.8906 5.56641 12.6914 5.17969 12.6914C4.72266 12.6914 4.41797 12.9727 4.41797 13.4297C4.41797 13.6406 4.45312 13.8516 4.51172 14.0391C4.85156 15.1289 6.03516 15.7383 7.30078 15.7383ZM12.2695 15.5273L16.3477 15.5273C16.7578 15.5273 17.0039 15.2578 17.0039 14.8477C17.0039 14.4023 16.7461 14.1562 16.3477 14.1562L13.5586 14.1562L13.5586 14.0625L15.2695 11.8945C16.4414 10.4414 16.8281 9.57422 16.8281 8.54297C16.8281 6.96094 15.75 5.8125 14.1328 5.8125C12.6328 5.8125 11.4961 7.05469 11.4961 8.27344C11.4961 8.70703 11.7539 9.01172 12.1992 9.01172C12.5859 9.01172 12.8203 8.83594 12.9492 8.44922C13.1602 7.66406 13.4531 7.17188 14.1328 7.17188C14.8359 7.17188 15.2344 7.79297 15.2344 8.625C15.2344 9.5625 14.5781 10.5117 13.957 11.3086L11.918 13.9102C11.707 14.1914 11.4844 14.4844 11.4844 14.8477C11.4844 15.2461 11.7422 15.5273 12.2695 15.5273Z" fill="black" fill-opacity="0.85"/>
 </g>
</svg>
