<?xml version="1.0" encoding="UTF-8"?>
<!--Generator: Apple Native CoreSVG 360-->
<!DOCTYPE svg
PUBLIC "-//W3C//DTD SVG 1.1//EN"
       "http://www.w3.org/Graphics/SVG/1.1/DTD/svg11.dtd">
<svg version="1.1" xmlns="http://www.w3.org/2000/svg" xmlns:xlink="http://www.w3.org/1999/xlink" viewBox="0 0 24.2578 23.918">
 <g>
  <rect height="23.918" opacity="0" width="24.2578" x="0" y="0"/>
  <path d="M11.9531 23.9062C18.5508 23.9062 23.9062 18.5508 23.9062 11.9531C23.9062 5.35547 18.5508 0 11.9531 0C5.35547 0 0 5.35547 0 11.9531C0 18.5508 5.35547 23.9062 11.9531 23.9062ZM11.9531 21.9141C6.44531 21.9141 1.99219 17.4609 1.99219 11.9531C1.99219 6.44531 6.44531 1.99219 11.9531 1.99219C17.4609 1.99219 21.9141 6.44531 21.9141 11.9531C21.9141 17.4609 17.4609 21.9141 11.9531 21.9141Z" fill="black" fill-opacity="0.85"/>
  <path d="M8.14453 16.8984C9.83203 16.8984 11.1211 15.8438 11.1211 14.0859C11.1211 12.6328 10.2539 11.918 9.25781 11.8125L9.25781 11.7773C10.3242 11.4961 10.8398 10.5469 10.8398 9.5625C10.8398 7.94531 9.63281 7.01953 8.09766 7.01953C6.89062 7.01953 5.84766 7.69922 5.50781 8.74219C5.44922 8.96484 5.41406 9.17578 5.41406 9.375C5.41406 9.76172 5.67188 10.0664 6.14062 10.0664C6.53906 10.0664 6.77344 9.91406 6.89062 9.50391C7.06641 8.8125 7.44141 8.37891 8.09766 8.37891C8.87109 8.37891 9.24609 8.97656 9.24609 9.75C9.24609 10.6055 8.76562 11.2266 7.88672 11.2266L7.60547 11.2266C7.20703 11.2266 6.96094 11.4727 6.96094 11.8594C6.96094 12.2461 7.21875 12.4688 7.60547 12.4688L7.91016 12.4688C8.89453 12.4688 9.44531 13.0195 9.44531 14.0391C9.44531 14.8477 9.02344 15.5391 8.14453 15.5391C7.30078 15.5391 6.91406 14.9648 6.77344 14.4258C6.65625 14.0508 6.41016 13.8516 6.03516 13.8516C5.56641 13.8516 5.26172 14.1328 5.26172 14.5898C5.26172 14.8008 5.29688 15.0117 5.35547 15.1992C5.69531 16.2891 6.89062 16.8984 8.14453 16.8984ZM16.6992 16.8398C17.1328 16.8398 17.4961 16.5703 17.4961 16.0078L17.4961 14.8359L17.918 14.8359C18.3633 14.8359 18.5742 14.543 18.5742 14.1445C18.5742 13.7695 18.3867 13.4766 17.918 13.4766L17.4961 13.4766L17.4961 8.33203C17.4961 7.52344 16.9688 7.06641 16.1953 7.06641C15.375 7.06641 14.9883 7.48828 14.6602 8.21484L12.5625 12.7617C12.3633 13.2188 12.3047 13.5234 12.3047 13.8867C12.3047 14.4492 12.6914 14.8359 13.2656 14.8359L15.8906 14.8359L15.8906 16.0078C15.8906 16.6289 16.3242 16.8398 16.6992 16.8398ZM15.9258 13.5117L13.7461 13.5117L13.7461 13.4297L15.8789 8.54297L15.9258 8.54297Z" fill="black" fill-opacity="0.85"/>
 </g>
</svg>
