<?xml version="1.0" encoding="UTF-8"?>
<!--Generator: Apple Native CoreSVG 360-->
<!DOCTYPE svg
PUBLIC "-//W3C//DTD SVG 1.1//EN"
       "http://www.w3.org/Graphics/SVG/1.1/DTD/svg11.dtd">
<svg version="1.1" xmlns="http://www.w3.org/2000/svg" xmlns:xlink="http://www.w3.org/1999/xlink" viewBox="0 0 21.9258 21.5742">
 <g>
  <rect height="21.5742" opacity="0" width="21.9258" x="0" y="0"/>
  <path d="M3.67969 21.5742L17.8945 21.5742C20.3555 21.5742 21.5742 20.3672 21.5742 17.9531L21.5742 3.63281C21.5742 1.21875 20.3555 0 17.8945 0L3.67969 0C1.23047 0 0 1.21875 0 3.63281L0 17.9531C0 20.3672 1.23047 21.5742 3.67969 21.5742ZM3.70312 19.6875C2.53125 19.6875 1.88672 19.0664 1.88672 17.8477L1.88672 3.73828C1.88672 2.51953 2.53125 1.88672 3.70312 1.88672L17.8711 1.88672C19.0312 1.88672 19.6875 2.51953 19.6875 3.73828L19.6875 17.8477C19.6875 19.0664 19.0312 19.6875 17.8711 19.6875Z" fill="black" fill-opacity="0.85"/>
  <path d="M6.99609 15.7383C8.68359 15.7383 9.97266 14.6836 9.97266 12.9258C9.97266 11.4727 9.10547 10.7578 8.10938 10.6523L8.10938 10.6172C9.17578 10.3359 9.69141 9.38672 9.69141 8.40234C9.69141 6.78516 8.48438 5.85938 6.94922 5.85938C5.74219 5.85938 4.69922 6.53906 4.35938 7.58203C4.30078 7.80469 4.26562 8.01562 4.26562 8.21484C4.26562 8.60156 4.52344 8.90625 4.99219 8.90625C5.39062 8.90625 5.625 8.75391 5.74219 8.34375C5.91797 7.65234 6.29297 7.21875 6.94922 7.21875C7.72266 7.21875 8.09766 7.81641 8.09766 8.58984C8.09766 9.44531 7.61719 10.0664 6.73828 10.0664L6.45703 10.0664C6.07031 10.0664 5.8125 10.3125 5.8125 10.6992C5.8125 11.0859 6.07031 11.3086 6.45703 11.3086L6.76172 11.3086C7.75781 11.3086 8.29688 11.8594 8.29688 12.8789C8.29688 13.6875 7.875 14.3789 7.00781 14.3789C6.15234 14.3789 5.76562 13.8047 5.625 13.2656C5.50781 12.8906 5.26172 12.6914 4.88672 12.6914C4.42969 12.6914 4.11328 12.9727 4.11328 13.4297C4.11328 13.6406 4.14844 13.8516 4.20703 14.0391C4.54688 15.1289 5.74219 15.7383 6.99609 15.7383ZM15.5508 15.6797C15.9844 15.6797 16.3477 15.4102 16.3477 14.8477L16.3477 13.6758L16.7695 13.6758C17.2148 13.6758 17.4375 13.3828 17.4375 12.9844C17.4375 12.6094 17.2383 12.3164 16.7695 12.3164L16.3477 12.3164L16.3477 7.17188C16.3477 6.36328 15.8203 5.90625 15.0469 5.90625C14.2266 5.90625 13.8398 6.32812 13.5117 7.05469L11.4141 11.6016C11.2266 12.0586 11.1562 12.3633 11.1562 12.7266C11.1562 13.2891 11.543 13.6758 12.1172 13.6758L14.7422 13.6758L14.7422 14.8477C14.7422 15.4688 15.1758 15.6797 15.5508 15.6797ZM14.7773 12.3516L12.5977 12.3516L12.5977 12.2695L14.7305 7.38281L14.7773 7.38281Z" fill="black" fill-opacity="0.85"/>
 </g>
</svg>
