<?xml version="1.0" encoding="UTF-8"?>
<!--Generator: Apple Native CoreSVG 360-->
<!DOCTYPE svg
PUBLIC "-//W3C//DTD SVG 1.1//EN"
       "http://www.w3.org/Graphics/SVG/1.1/DTD/svg11.dtd">
<svg version="1.1" xmlns="http://www.w3.org/2000/svg" xmlns:xlink="http://www.w3.org/1999/xlink" viewBox="0 0 21.9258 21.5742">
 <g>
  <rect height="21.5742" opacity="0" width="21.9258" x="0" y="0"/>
  <path d="M3.67969 21.5742L17.8945 21.5742C20.3555 21.5742 21.5742 20.3672 21.5742 17.9531L21.5742 3.63281C21.5742 1.21875 20.3555 0 17.8945 0L3.67969 0C1.23047 0 0 1.21875 0 3.63281L0 17.9531C0 20.3672 1.23047 21.5742 3.67969 21.5742ZM3.70312 19.6875C2.53125 19.6875 1.88672 19.0664 1.88672 17.8477L1.88672 3.73828C1.88672 2.51953 2.53125 1.88672 3.70312 1.88672L17.8711 1.88672C19.0312 1.88672 19.6875 2.51953 19.6875 3.73828L19.6875 17.8477C19.6875 19.0664 19.0312 19.6875 17.8711 19.6875Z" fill="black" fill-opacity="0.85"/>
  <path d="M7.23047 15.7383C8.91797 15.7383 10.207 14.6836 10.207 12.9258C10.207 11.4727 9.33984 10.7578 8.34375 10.6523L8.34375 10.6172C9.41016 10.3359 9.92578 9.38672 9.92578 8.40234C9.92578 6.78516 8.71875 5.85938 7.18359 5.85938C5.97656 5.85938 4.93359 6.53906 4.59375 7.58203C4.53516 7.80469 4.5 8.01562 4.5 8.21484C4.5 8.60156 4.75781 8.90625 5.22656 8.90625C5.625 8.90625 5.85938 8.75391 5.97656 8.34375C6.15234 7.65234 6.52734 7.21875 7.18359 7.21875C7.96875 7.21875 8.33203 7.81641 8.33203 8.58984C8.33203 9.44531 7.85156 10.0664 6.97266 10.0664L6.69141 10.0664C6.30469 10.0664 6.04688 10.3125 6.04688 10.6992C6.04688 11.0859 6.30469 11.3086 6.69141 11.3086L6.99609 11.3086C7.99219 11.3086 8.53125 11.8594 8.53125 12.8789C8.53125 13.6875 8.10938 14.3789 7.24219 14.3789C6.38672 14.3789 6 13.8047 5.85938 13.2656C5.74219 12.8906 5.49609 12.6914 5.12109 12.6914C4.66406 12.6914 4.34766 12.9727 4.34766 13.4297C4.34766 13.6406 4.38281 13.8516 4.44141 14.0391C4.78125 15.1289 5.97656 15.7383 7.23047 15.7383ZM14.3438 15.7734C16.1719 15.7734 17.1797 14.2383 17.1797 12.3867C17.1797 10.7695 16.4062 9.29297 14.8945 9.29297C14.2031 9.29297 13.5703 9.60938 13.2656 10.2891L13.207 10.2891L13.4062 7.44141L16.1484 7.44141C16.5586 7.44141 16.8047 7.16016 16.8047 6.75C16.8047 6.36328 16.5469 6.05859 16.1484 6.05859L12.9375 6.05859C12.3164 6.05859 12.0469 6.45703 12 7.06641L11.8125 10.2773C11.8008 10.4531 11.8008 10.6406 11.8008 10.793C11.8008 11.2383 12.0234 11.6367 12.5625 11.6367C12.8789 11.6367 13.0664 11.5078 13.3125 11.1914C13.582 10.8047 13.875 10.5234 14.3438 10.5234C15.2109 10.5234 15.5391 11.5664 15.5391 12.4336C15.5391 13.4062 15.1992 14.4023 14.3203 14.4023C13.6758 14.4023 13.3008 13.9336 13.0898 13.2891C12.9492 12.9141 12.6914 12.7383 12.375 12.7383C11.9414 12.7383 11.6719 13.0078 11.6719 13.4414C11.6719 13.7109 11.7422 13.9688 11.8359 14.2031C12.2461 15.1523 13.2891 15.7734 14.3438 15.7734Z" fill="black" fill-opacity="0.85"/>
 </g>
</svg>
