<?xml version="1.0" encoding="UTF-8"?>
<!--Generator: Apple Native CoreSVG 360-->
<!DOCTYPE svg
PUBLIC "-//W3C//DTD SVG 1.1//EN"
       "http://www.w3.org/Graphics/SVG/1.1/DTD/svg11.dtd">
<svg version="1.1" xmlns="http://www.w3.org/2000/svg" xmlns:xlink="http://www.w3.org/1999/xlink" viewBox="0 0 21.9258 21.5742">
 <g>
  <rect height="21.5742" opacity="0" width="21.9258" x="0" y="0"/>
  <path d="M3.67969 21.5742L17.8945 21.5742C20.3555 21.5742 21.5742 20.3672 21.5742 17.9531L21.5742 3.63281C21.5742 1.21875 20.3555 0 17.8945 0L3.67969 0C1.23047 0 0 1.21875 0 3.63281L0 17.9531C0 20.3672 1.23047 21.5742 3.67969 21.5742ZM3.70312 19.6875C2.53125 19.6875 1.88672 19.0664 1.88672 17.8477L1.88672 3.73828C1.88672 2.51953 2.53125 1.88672 3.70312 1.88672L17.8711 1.88672C19.0312 1.88672 19.6875 2.51953 19.6875 3.73828L19.6875 17.8477C19.6875 19.0664 19.0312 19.6875 17.8711 19.6875Z" fill="black" fill-opacity="0.85"/>
  <path d="M7.11328 15.7383C8.80078 15.7383 10.0898 14.6836 10.0898 12.9258C10.0898 11.4727 9.22266 10.7578 8.23828 10.6523L8.23828 10.6172C9.29297 10.3359 9.80859 9.38672 9.80859 8.40234C9.80859 6.78516 8.60156 5.85938 7.07812 5.85938C5.85938 5.85938 4.81641 6.53906 4.47656 7.58203C4.41797 7.80469 4.39453 8.01562 4.39453 8.21484C4.39453 8.60156 4.65234 8.90625 5.10938 8.90625C5.50781 8.90625 5.74219 8.75391 5.85938 8.34375C6.04688 7.65234 6.41016 7.21875 7.07812 7.21875C7.85156 7.21875 8.21484 7.81641 8.21484 8.58984C8.21484 9.44531 7.74609 10.0664 6.86719 10.0664L6.58594 10.0664C6.1875 10.0664 5.92969 10.3125 5.92969 10.6992C5.92969 11.0859 6.19922 11.3086 6.58594 11.3086L6.87891 11.3086C7.875 11.3086 8.42578 11.8594 8.42578 12.8789C8.42578 13.6875 7.99219 14.3789 7.125 14.3789C6.26953 14.3789 5.88281 13.8047 5.74219 13.2656C5.63672 12.8906 5.37891 12.6914 5.00391 12.6914C4.54688 12.6914 4.24219 12.9727 4.24219 13.4297C4.24219 13.6406 4.26562 13.8516 4.33594 14.0391C4.66406 15.1289 5.85938 15.7383 7.11328 15.7383ZM14.4375 15.7734C16.2188 15.7734 17.25 14.2734 17.25 12.4336C17.25 10.8516 16.4766 9.35156 14.9297 9.35156C13.9805 9.35156 13.2539 9.98438 12.9961 10.9922L12.9492 10.9922C12.9492 10.9453 12.9492 10.8984 12.9492 10.8633C12.9492 9.5625 13.1016 7.20703 14.4141 7.20703C14.9414 7.20703 15.293 7.58203 15.5039 8.07422C15.668 8.4375 15.8906 8.60156 16.2656 8.60156C16.7344 8.60156 16.9453 8.28516 16.9453 7.89844C16.9453 7.76953 16.9219 7.62891 16.8867 7.47656C16.6406 6.46875 15.6211 5.83594 14.4492 5.83594C12.0469 5.83594 11.3438 8.53125 11.3438 10.9102C11.3438 13.125 12.0586 15.7734 14.4375 15.7734ZM14.4141 14.4023C13.5234 14.4023 13.1719 13.3008 13.1719 12.457C13.1719 11.6016 13.5586 10.6289 14.4023 10.6289C15.2695 10.6289 15.6328 11.6367 15.6094 12.5039C15.6094 13.3594 15.2227 14.4023 14.4141 14.4023Z" fill="black" fill-opacity="0.85"/>
 </g>
</svg>
