<?xml version="1.0" encoding="UTF-8"?>
<!--Generator: Apple Native CoreSVG 360-->
<!DOCTYPE svg
PUBLIC "-//W3C//DTD SVG 1.1//EN"
       "http://www.w3.org/Graphics/SVG/1.1/DTD/svg11.dtd">
<svg version="1.1" xmlns="http://www.w3.org/2000/svg" xmlns:xlink="http://www.w3.org/1999/xlink" viewBox="0 0 24.2578 23.918">
 <g>
  <rect height="23.918" opacity="0" width="24.2578" x="0" y="0"/>
  <path d="M11.9531 23.9062C18.5508 23.9062 23.9062 18.5508 23.9062 11.9531C23.9062 5.35547 18.5508 0 11.9531 0C5.35547 0 0 5.35547 0 11.9531C0 18.5508 5.35547 23.9062 11.9531 23.9062ZM11.9531 21.9141C6.44531 21.9141 1.99219 17.4609 1.99219 11.9531C1.99219 6.44531 6.44531 1.99219 11.9531 1.99219C17.4609 1.99219 21.9141 6.44531 21.9141 11.9531C21.9141 17.4609 17.4609 21.9141 11.9531 21.9141Z" fill="black" fill-opacity="0.85"/>
  <path d="M8.78906 16.8984C10.4766 16.8984 11.7656 15.8438 11.7656 14.0859C11.7656 12.6328 10.8984 11.918 9.90234 11.8125L9.90234 11.7773C10.9688 11.4961 11.4844 10.5469 11.4844 9.5625C11.4844 7.94531 10.2773 7.01953 8.74219 7.01953C7.53516 7.01953 6.49219 7.69922 6.15234 8.74219C6.09375 8.96484 6.05859 9.17578 6.05859 9.375C6.05859 9.76172 6.31641 10.0664 6.78516 10.0664C7.18359 10.0664 7.41797 9.91406 7.53516 9.50391C7.72266 8.8125 8.08594 8.37891 8.74219 8.37891C9.52734 8.37891 9.89062 8.97656 9.89062 9.75C9.89062 10.6055 9.41016 11.2266 8.53125 11.2266L8.25 11.2266C7.86328 11.2266 7.60547 11.4727 7.60547 11.8594C7.60547 12.2461 7.86328 12.4688 8.25 12.4688L8.55469 12.4688C9.55078 12.4688 10.1016 13.0195 10.1016 14.0391C10.1016 14.8477 9.66797 15.5391 8.80078 15.5391C7.94531 15.5391 7.55859 14.9648 7.41797 14.4258C7.30078 14.0508 7.05469 13.8516 6.67969 13.8516C6.22266 13.8516 5.90625 14.1328 5.90625 14.5898C5.90625 14.8008 5.94141 15.0117 6 15.1992C6.33984 16.2891 7.53516 16.8984 8.78906 16.8984ZM14.5195 16.8516C14.9414 16.8516 15.1406 16.6758 15.293 16.2539L17.9766 9.10547C18.1055 8.74219 18.1992 8.46094 18.1992 8.12109C18.1992 7.58203 17.7773 7.21875 17.2617 7.21875L13.4766 7.21875C13.0664 7.21875 12.7969 7.51172 12.7969 7.91016C12.7969 8.30859 13.0664 8.60156 13.4766 8.60156L16.4883 8.60156L16.4883 8.70703L13.8867 15.4336C13.7812 15.6914 13.7461 15.8438 13.7461 16.125C13.7461 16.4648 13.957 16.8516 14.5195 16.8516Z" fill="black" fill-opacity="0.85"/>
 </g>
</svg>
