<?xml version="1.0" encoding="UTF-8"?>
<!--Generator: Apple Native CoreSVG 360-->
<!DOCTYPE svg
PUBLIC "-//W3C//DTD SVG 1.1//EN"
       "http://www.w3.org/Graphics/SVG/1.1/DTD/svg11.dtd">
<svg version="1.1" xmlns="http://www.w3.org/2000/svg" xmlns:xlink="http://www.w3.org/1999/xlink" viewBox="0 0 21.9258 21.5742">
 <g>
  <rect height="21.5742" opacity="0" width="21.9258" x="0" y="0"/>
  <path d="M3.67969 21.5742L17.8945 21.5742C20.3555 21.5742 21.5742 20.3672 21.5742 17.9531L21.5742 3.63281C21.5742 1.21875 20.3555 0 17.8945 0L3.67969 0C1.23047 0 0 1.21875 0 3.63281L0 17.9531C0 20.3672 1.23047 21.5742 3.67969 21.5742ZM3.70312 19.6875C2.53125 19.6875 1.88672 19.0664 1.88672 17.8477L1.88672 3.73828C1.88672 2.51953 2.53125 1.88672 3.70312 1.88672L17.8711 1.88672C19.0312 1.88672 19.6875 2.51953 19.6875 3.73828L19.6875 17.8477C19.6875 19.0664 19.0312 19.6875 17.8711 19.6875Z" fill="black" fill-opacity="0.85"/>
  <path d="M7.64062 15.7383C9.32812 15.7383 10.6172 14.6836 10.6172 12.9258C10.6172 11.4727 9.75 10.7578 8.76562 10.6523L8.76562 10.6172C9.82031 10.3359 10.3359 9.38672 10.3359 8.40234C10.3359 6.78516 9.12891 5.85938 7.60547 5.85938C6.38672 5.85938 5.34375 6.53906 5.00391 7.58203C4.94531 7.80469 4.92188 8.01562 4.92188 8.21484C4.92188 8.60156 5.17969 8.90625 5.63672 8.90625C6.03516 8.90625 6.26953 8.75391 6.38672 8.34375C6.57422 7.65234 6.9375 7.21875 7.60547 7.21875C8.37891 7.21875 8.74219 7.81641 8.74219 8.58984C8.74219 9.44531 8.26172 10.0664 7.39453 10.0664L7.11328 10.0664C6.71484 10.0664 6.45703 10.3125 6.45703 10.6992C6.45703 11.0859 6.72656 11.3086 7.11328 11.3086L7.40625 11.3086C8.40234 11.3086 8.95312 11.8594 8.95312 12.8789C8.95312 13.6875 8.51953 14.3789 7.65234 14.3789C6.79688 14.3789 6.41016 13.8047 6.26953 13.2656C6.16406 12.8906 5.90625 12.6914 5.53125 12.6914C5.07422 12.6914 4.76953 12.9727 4.76953 13.4297C4.76953 13.6406 4.79297 13.8516 4.86328 14.0391C5.19141 15.1289 6.38672 15.7383 7.64062 15.7383ZM13.3711 15.6914C13.8047 15.6914 13.9922 15.5156 14.1562 15.0938L16.8281 7.94531C16.957 7.58203 17.0508 7.30078 17.0508 6.96094C17.0508 6.42188 16.6289 6.05859 16.1133 6.05859L12.3281 6.05859C11.9297 6.05859 11.6484 6.35156 11.6484 6.75C11.6484 7.14844 11.9297 7.44141 12.3281 7.44141L15.3398 7.44141L15.3398 7.54688L12.7383 14.2734C12.6445 14.5312 12.5977 14.6836 12.5977 14.9648C12.5977 15.3047 12.8086 15.6914 13.3711 15.6914Z" fill="black" fill-opacity="0.85"/>
 </g>
</svg>
