<?xml version="1.0" encoding="UTF-8"?>
<!--Generator: Apple Native CoreSVG 360-->
<!DOCTYPE svg
PUBLIC "-//W3C//DTD SVG 1.1//EN"
       "http://www.w3.org/Graphics/SVG/1.1/DTD/svg11.dtd">
<svg version="1.1" xmlns="http://www.w3.org/2000/svg" xmlns:xlink="http://www.w3.org/1999/xlink" viewBox="0 0 21.9258 21.5742">
 <g>
  <rect height="21.5742" opacity="0" width="21.9258" x="0" y="0"/>
  <path d="M3.67969 21.5742L17.8945 21.5742C20.3555 21.5742 21.5742 20.3672 21.5742 17.9531L21.5742 3.63281C21.5742 1.21875 20.3555 0 17.8945 0L3.67969 0C1.23047 0 0 1.21875 0 3.63281L0 17.9531C0 20.3672 1.23047 21.5742 3.67969 21.5742ZM3.70312 19.6875C2.53125 19.6875 1.88672 19.0664 1.88672 17.8477L1.88672 3.73828C1.88672 2.51953 2.53125 1.88672 3.70312 1.88672L17.8711 1.88672C19.0312 1.88672 19.6875 2.51953 19.6875 3.73828L19.6875 17.8477C19.6875 19.0664 19.0312 19.6875 17.8711 19.6875Z" fill="black" fill-opacity="0.85"/>
  <path d="M7.11328 15.7383C8.80078 15.7383 10.0898 14.6836 10.0898 12.9258C10.0898 11.4727 9.22266 10.7578 8.23828 10.6523L8.23828 10.6172C9.29297 10.3359 9.80859 9.38672 9.80859 8.40234C9.80859 6.78516 8.60156 5.85938 7.07812 5.85938C5.85938 5.85938 4.81641 6.53906 4.47656 7.58203C4.41797 7.80469 4.39453 8.01562 4.39453 8.21484C4.39453 8.60156 4.64062 8.90625 5.10938 8.90625C5.50781 8.90625 5.74219 8.75391 5.85938 8.34375C6.04688 7.65234 6.41016 7.21875 7.07812 7.21875C7.85156 7.21875 8.21484 7.81641 8.21484 8.58984C8.21484 9.44531 7.73438 10.0664 6.86719 10.0664L6.58594 10.0664C6.1875 10.0664 5.92969 10.3125 5.92969 10.6992C5.92969 11.0859 6.19922 11.3086 6.58594 11.3086L6.87891 11.3086C7.875 11.3086 8.42578 11.8594 8.42578 12.8789C8.42578 13.6875 7.99219 14.3789 7.125 14.3789C6.26953 14.3789 5.88281 13.8047 5.74219 13.2656C5.63672 12.8906 5.37891 12.6914 5.00391 12.6914C4.54688 12.6914 4.24219 12.9727 4.24219 13.4297C4.24219 13.6406 4.26562 13.8516 4.32422 14.0391C4.66406 15.1289 5.85938 15.7383 7.11328 15.7383ZM14.3555 15.7383C16.2188 15.7383 17.4023 14.5781 17.4023 12.9727C17.4023 11.6953 16.5938 10.7695 15.6562 10.5586L15.6562 10.5234C16.4414 10.2773 17.1328 9.51562 17.1328 8.40234C17.1328 6.89062 16.0078 5.85938 14.3555 5.85938C12.9141 5.85938 11.6016 6.75 11.6016 8.39062C11.6016 9.58594 12.3398 10.2891 13.0898 10.5234L13.0898 10.5586C12.0938 10.7812 11.332 11.707 11.332 12.9727C11.332 14.707 12.6445 15.7383 14.3555 15.7383ZM14.3672 9.98438C13.6172 9.98438 13.2305 9.25781 13.2305 8.56641C13.2305 7.81641 13.6406 7.11328 14.3672 7.11328C15.1289 7.11328 15.4922 7.81641 15.4922 8.56641C15.4922 9.33984 15.1055 9.98438 14.3672 9.98438ZM14.3672 14.4727C13.5117 14.4727 13.0898 13.7109 13.0898 12.8438C13.0898 12 13.5117 11.25 14.3672 11.25C15.1992 11.25 15.6445 11.9531 15.6445 12.8438C15.6445 13.7109 15.2227 14.4727 14.3672 14.4727Z" fill="black" fill-opacity="0.85"/>
 </g>
</svg>
