<?xml version="1.0" encoding="UTF-8"?>
<!--Generator: Apple Native CoreSVG 360-->
<!DOCTYPE svg
PUBLIC "-//W3C//DTD SVG 1.1//EN"
       "http://www.w3.org/Graphics/SVG/1.1/DTD/svg11.dtd">
<svg version="1.1" xmlns="http://www.w3.org/2000/svg" xmlns:xlink="http://www.w3.org/1999/xlink" viewBox="0 0 24.2578 23.918">
 <g>
  <rect height="23.918" opacity="0" width="24.2578" x="0" y="0"/>
  <path d="M11.9531 23.9062C18.5508 23.9062 23.9062 18.5508 23.9062 11.9531C23.9062 5.35547 18.5508 0 11.9531 0C5.35547 0 0 5.35547 0 11.9531C0 18.5508 5.35547 23.9062 11.9531 23.9062ZM11.9531 21.9141C6.44531 21.9141 1.99219 17.4609 1.99219 11.9531C1.99219 6.44531 6.44531 1.99219 11.9531 1.99219C17.4609 1.99219 21.9141 6.44531 21.9141 11.9531C21.9141 17.4609 17.4609 21.9141 11.9531 21.9141Z" fill="black" fill-opacity="0.85"/>
  <path d="M8.27344 16.8984C9.94922 16.8984 11.2383 15.8438 11.2383 14.0859C11.2383 12.6328 10.3711 11.918 9.38672 11.8125L9.38672 11.7773C10.4414 11.4961 10.957 10.5469 10.957 9.5625C10.957 7.94531 9.75 7.01953 8.22656 7.01953C7.00781 7.01953 5.96484 7.69922 5.625 8.74219C5.56641 8.96484 5.54297 9.17578 5.54297 9.375C5.54297 9.76172 5.80078 10.0664 6.25781 10.0664C6.65625 10.0664 6.89062 9.91406 7.00781 9.50391C7.19531 8.8125 7.55859 8.37891 8.22656 8.37891C9 8.37891 9.36328 8.97656 9.36328 9.75C9.36328 10.6055 8.89453 11.2266 8.01562 11.2266L7.73438 11.2266C7.33594 11.2266 7.08984 11.4727 7.08984 11.8594C7.08984 12.2461 7.34766 12.4688 7.73438 12.4688L8.02734 12.4688C9.02344 12.4688 9.57422 13.0195 9.57422 14.0391C9.57422 14.8477 9.14062 15.5391 8.27344 15.5391C7.41797 15.5391 7.03125 14.9648 6.89062 14.4258C6.78516 14.0508 6.52734 13.8516 6.15234 13.8516C5.69531 13.8516 5.39062 14.1328 5.39062 14.5898C5.39062 14.8008 5.42578 15.0117 5.48438 15.1992C5.8125 16.2891 7.00781 16.8984 8.27344 16.8984ZM14.7656 13.418C15.7148 13.418 16.4297 12.7852 16.6992 11.7773L16.7461 11.7773C16.7461 11.8242 16.7461 11.8711 16.7461 11.9062C16.7461 13.207 16.582 15.5508 15.2695 15.5508C14.7422 15.5508 14.3906 15.1875 14.1797 14.6836C14.0156 14.2969 13.7812 14.1445 13.4297 14.1445C12.9375 14.1445 12.7266 14.4727 12.7266 14.8594C12.7266 15 12.7617 15.1406 12.7969 15.2812C13.0547 16.3008 14.0625 16.9219 15.2461 16.9219C17.6484 16.9219 18.3398 14.2617 18.3398 11.8594C18.3398 9.64453 17.6367 6.99609 15.2578 6.99609C13.4766 6.99609 12.4453 8.49609 12.4453 10.3359C12.4453 11.918 13.207 13.418 14.7656 13.418ZM15.2812 12.1289C14.4141 12.1289 14.0625 11.1328 14.0625 10.2656C14.0625 9.38672 14.4609 8.35547 15.2812 8.35547C16.1602 8.35547 16.5234 9.38672 16.5234 10.2656C16.5234 11.168 16.125 12.1289 15.2812 12.1289Z" fill="black" fill-opacity="0.85"/>
 </g>
</svg>
