<?xml version="1.0" encoding="UTF-8"?>
<!--Generator: Apple Native CoreSVG 360-->
<!DOCTYPE svg
PUBLIC "-//W3C//DTD SVG 1.1//EN"
       "http://www.w3.org/Graphics/SVG/1.1/DTD/svg11.dtd">
<svg version="1.1" xmlns="http://www.w3.org/2000/svg" xmlns:xlink="http://www.w3.org/1999/xlink" viewBox="0 0 21.9258 21.5742">
 <g>
  <rect height="21.5742" opacity="0" width="21.9258" x="0" y="0"/>
  <path d="M3.67969 21.5742L17.8945 21.5742C20.3555 21.5742 21.5742 20.3672 21.5742 17.9531L21.5742 3.63281C21.5742 1.21875 20.3555 0 17.8945 0L3.67969 0C1.23047 0 0 1.21875 0 3.63281L0 17.9531C0 20.3672 1.23047 21.5742 3.67969 21.5742ZM3.70312 19.6875C2.53125 19.6875 1.88672 19.0664 1.88672 17.8477L1.88672 3.73828C1.88672 2.51953 2.53125 1.88672 3.70312 1.88672L17.8711 1.88672C19.0312 1.88672 19.6875 2.51953 19.6875 3.73828L19.6875 17.8477C19.6875 19.0664 19.0312 19.6875 17.8711 19.6875Z" fill="black" fill-opacity="0.85"/>
  <path d="M6.32812 12.9609C6.32812 13.5469 6.72656 13.9336 7.37109 13.9336L11.7656 13.9336L11.7656 15.3867C11.7656 16.0078 12.082 16.3711 12.6211 16.3711C13.1719 16.3711 13.5 16.0195 13.5 15.3867L13.5 13.9336L14.2734 13.9336C14.8008 13.9336 15.1172 13.6172 15.1172 13.125C15.1172 12.6797 14.8008 12.3867 14.2734 12.3867L13.5 12.3867L13.5 9.85547C13.5 9.22266 13.1719 8.87109 12.6211 8.87109C12.082 8.87109 11.7656 9.23438 11.7656 9.85547L11.7656 12.3867L8.50781 12.3867C9.57422 10.418 10.6055 8.63672 11.6836 6.63281C11.7891 6.44531 11.8477 6.26953 11.8477 6.08203C11.8477 5.625 11.5547 5.22656 11.0156 5.22656C10.6641 5.22656 10.3945 5.40234 10.1836 5.78906C8.94141 7.98047 7.78125 10.0195 6.52734 12.2227C6.38672 12.457 6.32812 12.7148 6.32812 12.9609Z" fill="black" fill-opacity="0.85"/>
 </g>
</svg>
