<?xml version="1.0" encoding="UTF-8"?>
<!--Generator: Apple Native CoreSVG 360-->
<!DOCTYPE svg
PUBLIC "-//W3C//DTD SVG 1.1//EN"
       "http://www.w3.org/Graphics/SVG/1.1/DTD/svg11.dtd">
<svg version="1.1" xmlns="http://www.w3.org/2000/svg" xmlns:xlink="http://www.w3.org/1999/xlink" viewBox="0 0 24.2578 23.918">
 <g>
  <rect height="23.918" opacity="0" width="24.2578" x="0" y="0"/>
  <path d="M11.9531 23.9062C18.5508 23.9062 23.9062 18.5508 23.9062 11.9531C23.9062 5.35547 18.5508 0 11.9531 0C5.35547 0 0 5.35547 0 11.9531C0 18.5508 5.35547 23.9062 11.9531 23.9062ZM11.9531 21.9141C6.44531 21.9141 1.99219 17.4609 1.99219 11.9531C1.99219 6.44531 6.44531 1.99219 11.9531 1.99219C17.4609 1.99219 21.9141 6.44531 21.9141 11.9531C21.9141 17.4609 17.4609 21.9141 11.9531 21.9141Z" fill="black" fill-opacity="0.85"/>
  <path d="M7.47656 14.1211C7.47656 14.707 7.875 15.0938 8.50781 15.0938L12.9141 15.0938L12.9141 16.5469C12.9141 17.168 13.2305 17.5312 13.7695 17.5312C14.3203 17.5312 14.6367 17.1797 14.6367 16.5469L14.6367 15.0938L15.4219 15.0938C15.9492 15.0938 16.2656 14.7773 16.2656 14.2852C16.2656 13.8398 15.9492 13.5469 15.4219 13.5469L14.6367 13.5469L14.6367 11.0156C14.6367 10.3828 14.3203 10.0312 13.7695 10.0312C13.2305 10.0312 12.9141 10.3945 12.9141 11.0156L12.9141 13.5469L9.65625 13.5469C10.7227 11.5781 11.7422 9.79688 12.832 7.79297C12.9375 7.60547 12.9961 7.42969 12.9961 7.24219C12.9961 6.78516 12.7031 6.38672 12.1641 6.38672C11.8125 6.38672 11.543 6.5625 11.332 6.94922C10.0898 9.14062 8.92969 11.1797 7.67578 13.3828C7.53516 13.6172 7.47656 13.875 7.47656 14.1211Z" fill="black" fill-opacity="0.85"/>
 </g>
</svg>
