<?xml version="1.0" encoding="UTF-8"?>
<!--Generator: Apple Native CoreSVG 360-->
<!DOCTYPE svg
PUBLIC "-//W3C//DTD SVG 1.1//EN"
       "http://www.w3.org/Graphics/SVG/1.1/DTD/svg11.dtd">
<svg version="1.1" xmlns="http://www.w3.org/2000/svg" xmlns:xlink="http://www.w3.org/1999/xlink" viewBox="0 0 23.707 21.5977">
 <g>
  <rect height="21.5977" opacity="0" width="23.707" x="0" y="0"/>
  <path d="M3.67969 21.5977L19.6875 21.5977C22.1367 21.5977 23.3555 20.3789 23.3555 17.9648L23.3555 3.65625C23.3555 1.24219 22.1367 0.0234375 19.6875 0.0234375L3.67969 0.0234375C1.23047 0.0234375 0 1.23047 0 3.65625L0 17.9648C0 20.3906 1.23047 21.5977 3.67969 21.5977ZM3.50391 19.7109C2.46094 19.7109 1.88672 19.1602 1.88672 18.0703L1.88672 7.01953C1.88672 5.94141 2.46094 5.37891 3.50391 5.37891L19.8398 5.37891C20.8828 5.37891 21.4688 5.94141 21.4688 7.01953L21.4688 18.0703C21.4688 19.1602 20.8828 19.7109 19.8398 19.7109Z" fill="black" fill-opacity="0.85"/>
  <path d="M13.1133 17.6953C13.6289 17.6953 13.9219 17.3555 13.9219 16.7812L13.9219 15.457L14.7422 15.457C15.1641 15.457 15.457 15.1758 15.457 14.7539C15.457 14.332 15.1758 14.0391 14.7422 14.0391L13.9219 14.0391L13.9219 8.54297C13.9219 7.86328 13.3945 7.40625 12.6211 7.40625C11.8711 7.40625 11.4023 7.67578 10.9688 8.33203C9.85547 10.0078 8.51953 12 7.61719 13.4531C7.40625 13.8047 7.32422 14.0742 7.32422 14.3906C7.32422 15.0352 7.75781 15.457 8.44922 15.457L12.3281 15.457L12.3281 16.7812C12.3281 17.3555 12.6211 17.6953 13.1133 17.6953ZM12.3281 14.0391L8.91797 14.0391L8.91797 13.9805C9.73828 12.5508 11.1211 10.5117 12.2461 8.80078L12.3281 8.80078Z" fill="black" fill-opacity="0.85"/>
 </g>
</svg>
