<?xml version="1.0" encoding="UTF-8"?>
<!--Generator: Apple Native CoreSVG 360-->
<!DOCTYPE svg
PUBLIC "-//W3C//DTD SVG 1.1//EN"
       "http://www.w3.org/Graphics/SVG/1.1/DTD/svg11.dtd">
<svg version="1.1" xmlns="http://www.w3.org/2000/svg" xmlns:xlink="http://www.w3.org/1999/xlink" viewBox="0 0 21.9258 17.6836">
 <g>
  <rect height="17.6836" opacity="0" width="21.9258" x="0" y="0"/>
  <path d="M0 16.7344C0 17.25 0.421875 17.6836 0.9375 17.6836C1.46484 17.6836 1.88672 17.25 1.88672 16.7344L1.88672 0.960938C1.88672 0.445312 1.46484 0.0234375 0.9375 0.0234375C0.421875 0.0234375 0 0.445312 0 0.960938ZM19.6875 16.7344C19.6875 17.25 20.1211 17.6836 20.6367 17.6836C21.1523 17.6836 21.5742 17.25 21.5742 16.7344L21.5742 0.960938C21.5742 0.445312 21.1523 0.0234375 20.6367 0.0234375C20.1211 0.0234375 19.6875 0.445312 19.6875 0.960938Z" fill="black" fill-opacity="0.85"/>
  <path d="M12.293 14.3203C12.7617 14.3203 13.1719 14.0508 13.1719 13.418L13.1719 12.1875L13.7109 12.1875C14.2266 12.1875 14.4492 11.8477 14.4492 11.4492C14.4492 11.0039 14.2031 10.6992 13.7109 10.6992L13.1719 10.6992L13.1719 5.22656C13.1719 4.34766 12.5859 3.87891 11.7188 3.87891C10.8398 3.87891 10.418 4.34766 10.0078 5.12109C9.22266 6.49219 8.0625 8.625 7.44141 9.89062C7.26562 10.3242 7.11328 10.7344 7.11328 11.1914C7.11328 11.7773 7.54688 12.1875 8.16797 12.1875L11.4141 12.1875L11.4141 13.418C11.4141 14.0391 11.8359 14.3203 12.293 14.3203ZM11.4609 10.7461L8.69531 10.7461L8.69531 10.6523C9.42188 9.04688 10.5234 6.98438 11.4023 5.4375L11.4609 5.4375Z" fill="black" fill-opacity="0.85"/>
 </g>
</svg>
