<?xml version="1.0" encoding="UTF-8"?>
<!--Generator: Apple Native CoreSVG 360-->
<!DOCTYPE svg
PUBLIC "-//W3C//DTD SVG 1.1//EN"
       "http://www.w3.org/Graphics/SVG/1.1/DTD/svg11.dtd">
<svg version="1.1" xmlns="http://www.w3.org/2000/svg" xmlns:xlink="http://www.w3.org/1999/xlink" viewBox="0 0 24.2578 23.918">
 <g>
  <rect height="23.918" opacity="0" width="24.2578" x="0" y="0"/>
  <path d="M11.9531 23.9062C18.5508 23.9062 23.9062 18.5508 23.9062 11.9531C23.9062 5.35547 18.5508 0 11.9531 0C5.35547 0 0 5.35547 0 11.9531C0 18.5508 5.35547 23.9062 11.9531 23.9062ZM11.9531 21.9141C6.44531 21.9141 1.99219 17.4609 1.99219 11.9531C1.99219 6.44531 6.44531 1.99219 11.9531 1.99219C17.4609 1.99219 21.9141 6.44531 21.9141 11.9531C21.9141 17.4609 17.4609 21.9141 11.9531 21.9141Z" fill="black" fill-opacity="0.85"/>
  <path d="M9.28125 16.8398C9.71484 16.8398 10.0781 16.5703 10.0781 16.0078L10.0781 14.8359L10.5 14.8359C10.9453 14.8359 11.168 14.543 11.168 14.1445C11.168 13.7695 10.9688 13.4766 10.5 13.4766L10.0781 13.4766L10.0781 8.33203C10.0781 7.52344 9.55078 7.06641 8.78906 7.06641C7.95703 7.06641 7.57031 7.48828 7.24219 8.21484L5.14453 12.7617C4.95703 13.2188 4.88672 13.5234 4.88672 13.8867C4.88672 14.4492 5.27344 14.8359 5.84766 14.8359L8.47266 14.8359L8.47266 16.0078C8.47266 16.6289 8.90625 16.8398 9.28125 16.8398ZM8.50781 13.5117L6.32812 13.5117L6.32812 13.4297L8.46094 8.54297L8.50781 8.54297ZM15.3984 16.9336C17.7305 16.9336 18.4336 14.3086 18.4336 11.9531C18.4336 9.59766 17.7305 6.97266 15.3984 6.97266C13.0664 6.97266 12.3633 9.59766 12.3633 11.9531C12.3633 14.3086 13.0664 16.9336 15.3984 16.9336ZM15.3984 15.5391C14.4375 15.5391 14.0742 13.9805 14.0742 11.9531C14.0742 9.91406 14.4375 8.35547 15.3984 8.35547C16.3594 8.35547 16.7227 9.91406 16.7227 11.9531C16.7227 13.9805 16.3594 15.5391 15.3984 15.5391Z" fill="black" fill-opacity="0.85"/>
 </g>
</svg>
