<?xml version="1.0" encoding="UTF-8"?>
<!--Generator: Apple Native CoreSVG 360-->
<!DOCTYPE svg
PUBLIC "-//W3C//DTD SVG 1.1//EN"
       "http://www.w3.org/Graphics/SVG/1.1/DTD/svg11.dtd">
<svg version="1.1" xmlns="http://www.w3.org/2000/svg" xmlns:xlink="http://www.w3.org/1999/xlink" viewBox="0 0 21.9258 21.5742">
 <g>
  <rect height="21.5742" opacity="0" width="21.9258" x="0" y="0"/>
  <path d="M3.67969 21.5742L17.8945 21.5742C20.3555 21.5742 21.5742 20.3672 21.5742 17.9531L21.5742 3.63281C21.5742 1.21875 20.3555 0 17.8945 0L3.67969 0C1.23047 0 0 1.21875 0 3.63281L0 17.9531C0 20.3672 1.23047 21.5742 3.67969 21.5742ZM3.70312 19.6875C2.53125 19.6875 1.88672 19.0664 1.88672 17.8477L1.88672 3.73828C1.88672 2.51953 2.53125 1.88672 3.70312 1.88672L17.8711 1.88672C19.0312 1.88672 19.6875 2.51953 19.6875 3.73828L19.6875 17.8477C19.6875 19.0664 19.0312 19.6875 17.8711 19.6875Z" fill="black" fill-opacity="0.85"/>
  <path d="M8.13281 15.6797C8.57812 15.6797 8.92969 15.4102 8.92969 14.8477L8.92969 13.6758L9.35156 13.6758C9.80859 13.6758 10.0195 13.3828 10.0195 12.9844C10.0195 12.6094 9.82031 12.3164 9.35156 12.3164L8.92969 12.3164L8.92969 7.17188C8.92969 6.36328 8.40234 5.90625 7.64062 5.90625C6.80859 5.90625 6.42188 6.32812 6.09375 7.05469L4.00781 11.6016C3.80859 12.0586 3.73828 12.3633 3.73828 12.7266C3.73828 13.2891 4.125 13.6758 4.69922 13.6758L7.32422 13.6758L7.32422 14.8477C7.32422 15.4688 7.75781 15.6797 8.13281 15.6797ZM7.35938 12.3516L5.17969 12.3516L5.17969 12.2695L7.3125 7.38281L7.35938 7.38281ZM14.25 15.7734C16.582 15.7734 17.2852 13.1484 17.2852 10.793C17.2852 8.4375 16.582 5.8125 14.25 5.8125C11.918 5.8125 11.2148 8.4375 11.2148 10.793C11.2148 13.1484 11.918 15.7734 14.25 15.7734ZM14.25 14.3789C13.2891 14.3789 12.9258 12.8203 12.9258 10.793C12.9258 8.75391 13.2891 7.19531 14.25 7.19531C15.2109 7.19531 15.5742 8.75391 15.5742 10.793C15.5742 12.8203 15.2109 14.3789 14.25 14.3789Z" fill="black" fill-opacity="0.85"/>
 </g>
</svg>
