<?xml version="1.0" encoding="UTF-8"?>
<!--Generator: Apple Native CoreSVG 360-->
<!DOCTYPE svg
PUBLIC "-//W3C//DTD SVG 1.1//EN"
       "http://www.w3.org/Graphics/SVG/1.1/DTD/svg11.dtd">
<svg version="1.1" xmlns="http://www.w3.org/2000/svg" xmlns:xlink="http://www.w3.org/1999/xlink" viewBox="0 0 24.2578 23.918">
 <g>
  <rect height="23.918" opacity="0" width="24.2578" x="0" y="0"/>
  <path d="M11.9531 23.9062C18.5508 23.9062 23.9062 18.5508 23.9062 11.9531C23.9062 5.35547 18.5508 0 11.9531 0C5.35547 0 0 5.35547 0 11.9531C0 18.5508 5.35547 23.9062 11.9531 23.9062ZM11.9531 21.9141C6.44531 21.9141 1.99219 17.4609 1.99219 11.9531C1.99219 6.44531 6.44531 1.99219 11.9531 1.99219C17.4609 1.99219 21.9141 6.44531 21.9141 11.9531C21.9141 17.4609 17.4609 21.9141 11.9531 21.9141Z" fill="black" fill-opacity="0.85"/>
  <path d="M10.1484 16.8398C10.582 16.8398 10.9453 16.5703 10.9453 16.0078L10.9453 14.8359L11.3555 14.8359C11.8125 14.8359 12.0234 14.543 12.0234 14.1445C12.0234 13.7695 11.8242 13.4766 11.3555 13.4766L10.9453 13.4766L10.9453 8.33203C10.9453 7.52344 10.418 7.06641 9.64453 7.06641C8.82422 7.06641 8.4375 7.48828 8.10938 8.21484L6.01172 12.7617C5.8125 13.2188 5.75391 13.5234 5.75391 13.8867C5.75391 14.4492 6.14062 14.8359 6.71484 14.8359L9.32812 14.8359L9.32812 16.0078C9.32812 16.6289 9.77344 16.8398 10.1484 16.8398ZM9.36328 13.5117L7.19531 13.5117L7.19531 13.4297L9.32812 8.54297L9.36328 8.54297ZM15.8438 16.8164C16.3008 16.8164 16.6875 16.4297 16.6875 15.9609L16.6875 8.01562C16.6875 7.41797 16.3125 7.06641 15.7031 7.06641C15.2109 7.06641 14.8125 7.33594 14.543 7.54688L13.2539 8.54297C13.043 8.70703 12.8789 8.92969 12.8789 9.23438C12.8789 9.59766 13.125 9.85547 13.4883 9.85547C13.6641 9.85547 13.7812 9.79688 13.8984 9.71484L14.9766 8.84766L14.9766 15.9609C14.9766 16.4297 15.3633 16.8164 15.8438 16.8164Z" fill="black" fill-opacity="0.85"/>
 </g>
</svg>
