<?xml version="1.0" encoding="UTF-8"?>
<!--Generator: Apple Native CoreSVG 360-->
<!DOCTYPE svg
PUBLIC "-//W3C//DTD SVG 1.1//EN"
       "http://www.w3.org/Graphics/SVG/1.1/DTD/svg11.dtd">
<svg version="1.1" xmlns="http://www.w3.org/2000/svg" xmlns:xlink="http://www.w3.org/1999/xlink" viewBox="0 0 21.9258 21.5742">
 <g>
  <rect height="21.5742" opacity="0" width="21.9258" x="0" y="0"/>
  <path d="M3.67969 21.5742L17.8945 21.5742C20.3555 21.5742 21.5742 20.3672 21.5742 17.9531L21.5742 3.63281C21.5742 1.21875 20.3555 0 17.8945 0L3.67969 0C1.23047 0 0 1.21875 0 3.63281L0 17.9531C0 20.3672 1.23047 21.5742 3.67969 21.5742ZM3.70312 19.6875C2.53125 19.6875 1.88672 19.0664 1.88672 17.8477L1.88672 3.73828C1.88672 2.51953 2.53125 1.88672 3.70312 1.88672L17.8711 1.88672C19.0312 1.88672 19.6875 2.51953 19.6875 3.73828L19.6875 17.8477C19.6875 19.0664 19.0312 19.6875 17.8711 19.6875Z" fill="black" fill-opacity="0.85"/>
  <path d="M9 15.6797C9.43359 15.6797 9.79688 15.4102 9.79688 14.8477L9.79688 13.6758L10.2188 13.6758C10.6641 13.6758 10.875 13.3828 10.875 12.9844C10.875 12.6094 10.6875 12.3164 10.2188 12.3164L9.79688 12.3164L9.79688 7.17188C9.79688 6.36328 9.26953 5.90625 8.49609 5.90625C7.67578 5.90625 7.28906 6.32812 6.96094 7.05469L4.86328 11.6016C4.66406 12.0586 4.60547 12.3633 4.60547 12.7266C4.60547 13.2891 4.99219 13.6758 5.56641 13.6758L8.19141 13.6758L8.19141 14.8477C8.19141 15.4688 8.625 15.6797 9 15.6797ZM8.22656 12.3516L6.04688 12.3516L6.04688 12.2695L8.17969 7.38281L8.22656 7.38281ZM14.6953 15.6562C15.1523 15.6562 15.5391 15.2695 15.5391 14.8008L15.5391 6.85547C15.5391 6.25781 15.1641 5.90625 14.5547 5.90625C14.0625 5.90625 13.6641 6.17578 13.3945 6.38672L12.1055 7.38281C11.8945 7.54688 11.7305 7.76953 11.7305 8.07422C11.7305 8.4375 11.9766 8.69531 12.3398 8.69531C12.5156 8.69531 12.6328 8.63672 12.75 8.55469L13.8281 7.6875L13.8281 14.8008C13.8281 15.2695 14.2148 15.6562 14.6953 15.6562Z" fill="black" fill-opacity="0.85"/>
 </g>
</svg>
