<?xml version="1.0" encoding="UTF-8"?>
<!--Generator: Apple Native CoreSVG 360-->
<!DOCTYPE svg
PUBLIC "-//W3C//DTD SVG 1.1//EN"
       "http://www.w3.org/Graphics/SVG/1.1/DTD/svg11.dtd">
<svg version="1.1" xmlns="http://www.w3.org/2000/svg" xmlns:xlink="http://www.w3.org/1999/xlink" viewBox="0 0 24.2578 23.918">
 <g>
  <rect height="23.918" opacity="0" width="24.2578" x="0" y="0"/>
  <path d="M11.9531 23.9062C18.5508 23.9062 23.9062 18.5508 23.9062 11.9531C23.9062 5.35547 18.5508 0 11.9531 0C5.35547 0 0 5.35547 0 11.9531C0 18.5508 5.35547 23.9062 11.9531 23.9062ZM11.9531 21.9141C6.44531 21.9141 1.99219 17.4609 1.99219 11.9531C1.99219 6.44531 6.44531 1.99219 11.9531 1.99219C17.4609 1.99219 21.9141 6.44531 21.9141 11.9531C21.9141 17.4609 17.4609 21.9141 11.9531 21.9141Z" fill="black" fill-opacity="0.85"/>
  <path d="M9.49219 16.8398C9.9375 16.8398 10.2891 16.5703 10.2891 16.0078L10.2891 14.8359L10.7109 14.8359C11.168 14.8359 11.3789 14.543 11.3789 14.1445C11.3789 13.7695 11.1797 13.4766 10.7109 13.4766L10.2891 13.4766L10.2891 8.33203C10.2891 7.52344 9.76172 7.06641 9 7.06641C8.16797 7.06641 7.78125 7.48828 7.45312 8.21484L5.36719 12.7617C5.16797 13.2188 5.09766 13.5234 5.09766 13.8867C5.09766 14.4492 5.48438 14.8359 6.05859 14.8359L8.68359 14.8359L8.68359 16.0078C8.68359 16.6289 9.12891 16.8398 9.49219 16.8398ZM8.71875 13.5117L6.53906 13.5117L6.53906 13.4297L8.67188 8.54297L8.71875 8.54297ZM13.3242 16.6875L17.3906 16.6875C17.8008 16.6875 18.0586 16.418 18.0586 16.0078C18.0586 15.5625 17.7891 15.3164 17.3906 15.3164L14.6133 15.3164L14.6133 15.2227L16.3125 13.0547C17.4961 11.6016 17.8828 10.7344 17.8828 9.70312C17.8828 8.12109 16.8047 6.97266 15.1875 6.97266C13.6875 6.97266 12.5508 8.21484 12.5508 9.43359C12.5508 9.86719 12.7969 10.1719 13.2539 10.1719C13.6406 10.1719 13.875 9.99609 13.9922 9.60938C14.2148 8.82422 14.5078 8.33203 15.1758 8.33203C15.8789 8.33203 16.2773 8.95312 16.2773 9.78516C16.2773 10.7227 15.6211 11.6719 15 12.4688L12.9727 15.0703C12.75 15.3516 12.5273 15.6445 12.5273 16.0078C12.5273 16.4062 12.7852 16.6875 13.3242 16.6875Z" fill="black" fill-opacity="0.85"/>
 </g>
</svg>
