<?xml version="1.0" encoding="UTF-8"?>
<!--Generator: Apple Native CoreSVG 360-->
<!DOCTYPE svg
PUBLIC "-//W3C//DTD SVG 1.1//EN"
       "http://www.w3.org/Graphics/SVG/1.1/DTD/svg11.dtd">
<svg version="1.1" xmlns="http://www.w3.org/2000/svg" xmlns:xlink="http://www.w3.org/1999/xlink" viewBox="0 0 21.9258 21.5742">
 <g>
  <rect height="21.5742" opacity="0" width="21.9258" x="0" y="0"/>
  <path d="M3.67969 21.5742L17.8945 21.5742C20.3555 21.5742 21.5742 20.3672 21.5742 17.9531L21.5742 3.63281C21.5742 1.21875 20.3555 0 17.8945 0L3.67969 0C1.23047 0 0 1.21875 0 3.63281L0 17.9531C0 20.3672 1.23047 21.5742 3.67969 21.5742ZM3.70312 19.6875C2.53125 19.6875 1.88672 19.0664 1.88672 17.8477L1.88672 3.73828C1.88672 2.51953 2.53125 1.88672 3.70312 1.88672L17.8711 1.88672C19.0312 1.88672 19.6875 2.51953 19.6875 3.73828L19.6875 17.8477C19.6875 19.0664 19.0312 19.6875 17.8711 19.6875Z" fill="black" fill-opacity="0.85"/>
  <path d="M8.34375 15.6797C8.78906 15.6797 9.15234 15.4102 9.15234 14.8477L9.15234 13.6758L9.5625 13.6758C10.0195 13.6758 10.2305 13.3828 10.2305 12.9844C10.2305 12.6094 10.0312 12.3164 9.5625 12.3164L9.15234 12.3164L9.15234 7.17188C9.15234 6.36328 8.61328 5.90625 7.85156 5.90625C7.03125 5.90625 6.64453 6.32812 6.31641 7.05469L4.21875 11.6016C4.01953 12.0586 3.94922 12.3633 3.94922 12.7266C3.94922 13.2891 4.34766 13.6758 4.91016 13.6758L7.53516 13.6758L7.53516 14.8477C7.53516 15.4688 7.98047 15.6797 8.34375 15.6797ZM7.57031 12.3516L5.39062 12.3516L5.39062 12.2695L7.52344 7.38281L7.57031 7.38281ZM12.1758 15.5273L16.2422 15.5273C16.6523 15.5273 16.9102 15.2578 16.9102 14.8477C16.9102 14.4023 16.6406 14.1562 16.2422 14.1562L13.4648 14.1562L13.4648 14.0625L15.1758 11.8945C16.3477 10.4414 16.7344 9.57422 16.7344 8.54297C16.7344 6.96094 15.6562 5.8125 14.0391 5.8125C12.5391 5.8125 11.4023 7.05469 11.4023 8.27344C11.4023 8.70703 11.6602 9.01172 12.1055 9.01172C12.4922 9.01172 12.7266 8.83594 12.8438 8.44922C13.0664 7.66406 13.3594 7.17188 14.0273 7.17188C14.7422 7.17188 15.1289 7.79297 15.1289 8.625C15.1289 9.5625 14.4844 10.5117 13.8516 11.3086L11.8242 13.9102C11.6016 14.1914 11.3906 14.4844 11.3906 14.8477C11.3906 15.2461 11.6367 15.5273 12.1758 15.5273Z" fill="black" fill-opacity="0.85"/>
 </g>
</svg>
