<?xml version="1.0" encoding="UTF-8"?>
<!--Generator: Apple Native CoreSVG 360-->
<!DOCTYPE svg
PUBLIC "-//W3C//DTD SVG 1.1//EN"
       "http://www.w3.org/Graphics/SVG/1.1/DTD/svg11.dtd">
<svg version="1.1" xmlns="http://www.w3.org/2000/svg" xmlns:xlink="http://www.w3.org/1999/xlink" viewBox="0 0 21.9258 21.5742">
 <g>
  <rect height="21.5742" opacity="0" width="21.9258" x="0" y="0"/>
  <path d="M3.67969 21.5742L17.8945 21.5742C20.3555 21.5742 21.5742 20.3672 21.5742 17.9531L21.5742 3.63281C21.5742 1.21875 20.3555 0 17.8945 0L3.67969 0C1.23047 0 0 1.21875 0 3.63281L0 17.9531C0 20.3672 1.23047 21.5742 3.67969 21.5742ZM3.70312 19.6875C2.53125 19.6875 1.88672 19.0664 1.88672 17.8477L1.88672 3.73828C1.88672 2.51953 2.53125 1.88672 3.70312 1.88672L17.8711 1.88672C19.0312 1.88672 19.6875 2.51953 19.6875 3.73828L19.6875 17.8477C19.6875 19.0664 19.0312 19.6875 17.8711 19.6875Z" fill="black" fill-opacity="0.85"/>
  <path d="M8.27344 15.6797C8.70703 15.6797 9.07031 15.4102 9.07031 14.8477L9.07031 13.6758L9.49219 13.6758C9.9375 13.6758 10.1602 13.3828 10.1602 12.9844C10.1602 12.6094 9.96094 12.3164 9.49219 12.3164L9.07031 12.3164L9.07031 7.17188C9.07031 6.36328 8.54297 5.90625 7.78125 5.90625C6.94922 5.90625 6.5625 6.32812 6.23438 7.05469L4.13672 11.6016C3.94922 12.0586 3.87891 12.3633 3.87891 12.7266C3.87891 13.2891 4.26562 13.6758 4.83984 13.6758L7.46484 13.6758L7.46484 14.8477C7.46484 15.4688 7.89844 15.6797 8.27344 15.6797ZM7.5 12.3516L5.32031 12.3516L5.32031 12.2695L7.45312 7.38281L7.5 7.38281ZM14.2266 15.7383C15.9141 15.7383 17.2031 14.6836 17.2031 12.9258C17.2031 11.4727 16.3359 10.7578 15.3516 10.6523L15.3516 10.6172C16.4062 10.3359 16.9219 9.38672 16.9219 8.40234C16.9219 6.78516 15.7148 5.85938 14.1914 5.85938C12.9727 5.85938 11.9297 6.53906 11.5898 7.58203C11.5312 7.80469 11.5078 8.01562 11.5078 8.21484C11.5078 8.60156 11.7656 8.90625 12.2227 8.90625C12.6211 8.90625 12.8555 8.75391 12.9727 8.34375C13.1602 7.65234 13.5234 7.21875 14.1914 7.21875C14.9648 7.21875 15.3281 7.81641 15.3281 8.58984C15.3281 9.44531 14.8594 10.0664 13.9805 10.0664L13.6992 10.0664C13.3008 10.0664 13.043 10.3125 13.043 10.6992C13.043 11.0859 13.3125 11.3086 13.6992 11.3086L13.9922 11.3086C14.9883 11.3086 15.5391 11.8594 15.5391 12.8789C15.5391 13.6875 15.1055 14.3789 14.2383 14.3789C13.3828 14.3789 12.9961 13.8047 12.8555 13.2656C12.75 12.8906 12.4922 12.6914 12.1172 12.6914C11.6602 12.6914 11.3555 12.9727 11.3555 13.4297C11.3555 13.6406 11.3789 13.8516 11.4492 14.0391C11.7773 15.1289 12.9727 15.7383 14.2266 15.7383Z" fill="black" fill-opacity="0.85"/>
 </g>
</svg>
