<?xml version="1.0" encoding="UTF-8"?>
<!--Generator: Apple Native CoreSVG 360-->
<!DOCTYPE svg
PUBLIC "-//W3C//DTD SVG 1.1//EN"
       "http://www.w3.org/Graphics/SVG/1.1/DTD/svg11.dtd">
<svg version="1.1" xmlns="http://www.w3.org/2000/svg" xmlns:xlink="http://www.w3.org/1999/xlink" viewBox="0 0 24.2578 23.918">
 <g>
  <rect height="23.918" opacity="0" width="24.2578" x="0" y="0"/>
  <path d="M11.9531 23.9062C18.5508 23.9062 23.9062 18.5508 23.9062 11.9531C23.9062 5.35547 18.5508 0 11.9531 0C5.35547 0 0 5.35547 0 11.9531C0 18.5508 5.35547 23.9062 11.9531 23.9062ZM11.9531 21.9141C6.44531 21.9141 1.99219 17.4609 1.99219 11.9531C1.99219 6.44531 6.44531 1.99219 11.9531 1.99219C17.4609 1.99219 21.9141 6.44531 21.9141 11.9531C21.9141 17.4609 17.4609 21.9141 11.9531 21.9141Z" fill="black" fill-opacity="0.85"/>
  <path d="M9.28125 16.8398C9.71484 16.8398 10.0781 16.5703 10.0781 16.0078L10.0781 14.8359L10.4883 14.8359C10.9453 14.8359 11.1562 14.543 11.1562 14.1445C11.1562 13.7695 10.9688 13.4766 10.4883 13.4766L10.0781 13.4766L10.0781 8.33203C10.0781 7.52344 9.55078 7.06641 8.77734 7.06641C7.95703 7.06641 7.57031 7.48828 7.24219 8.21484L5.14453 12.7617C4.94531 13.2188 4.88672 13.5234 4.88672 13.8867C4.88672 14.4492 5.27344 14.8359 5.84766 14.8359L8.46094 14.8359L8.46094 16.0078C8.46094 16.6289 8.90625 16.8398 9.28125 16.8398ZM8.49609 13.5117L6.32812 13.5117L6.32812 13.4297L8.46094 8.54297L8.49609 8.54297ZM16.6758 16.8398C17.1094 16.8398 17.4727 16.5703 17.4727 16.0078L17.4727 14.8359L17.8945 14.8359C18.3398 14.8359 18.5508 14.543 18.5508 14.1445C18.5508 13.7695 18.3633 13.4766 17.8945 13.4766L17.4727 13.4766L17.4727 8.33203C17.4727 7.52344 16.9453 7.06641 16.1719 7.06641C15.3516 7.06641 14.9648 7.48828 14.6367 8.21484L12.5391 12.7617C12.3398 13.2188 12.2812 13.5234 12.2812 13.8867C12.2812 14.4492 12.668 14.8359 13.2422 14.8359L15.8672 14.8359L15.8672 16.0078C15.8672 16.6289 16.3008 16.8398 16.6758 16.8398ZM15.9023 13.5117L13.7227 13.5117L13.7227 13.4297L15.8555 8.54297L15.9023 8.54297Z" fill="black" fill-opacity="0.85"/>
 </g>
</svg>
