<?xml version="1.0" encoding="UTF-8"?>
<!--Generator: Apple Native CoreSVG 360-->
<!DOCTYPE svg
PUBLIC "-//W3C//DTD SVG 1.1//EN"
       "http://www.w3.org/Graphics/SVG/1.1/DTD/svg11.dtd">
<svg version="1.1" xmlns="http://www.w3.org/2000/svg" xmlns:xlink="http://www.w3.org/1999/xlink" viewBox="0 0 24.2578 28.468">
 <g>
  <rect height="28.468" opacity="0" width="24.2578" x="0" y="0"/>
  <path d="M14.2148 0.833612C14.2148-0.0101376 13.6406-0.221075 12.9844 0.235956L9.25781 2.86096C8.71875 3.24767 8.73047 3.81017 9.25781 4.18517L12.9961 6.81017C13.6406 7.25549 14.2148 7.04455 14.2148 6.21252ZM11.9531 26.1813C18.5508 26.1813 23.9062 20.8258 23.9062 14.2281C23.9062 7.63049 18.5625 2.28674 11.9414 2.27502C11.3906 2.28674 10.957 2.73205 10.957 3.25939C10.957 3.81017 11.4023 4.26721 11.9531 4.26721C17.4609 4.26721 21.9141 8.72033 21.9141 14.2281C21.9141 19.736 17.4609 24.1891 11.9531 24.1891C6.44531 24.1891 1.99219 19.736 1.99219 14.2281C1.99219 10.8883 3.63281 7.94689 6.11719 6.16564C6.59766 5.80236 6.75 5.25158 6.45703 4.75939C6.16406 4.29064 5.49609 4.15002 4.98047 4.54846C1.95703 6.72814 0 10.2086 0 14.2281C0 20.8258 5.35547 26.1813 11.9531 26.1813Z" fill="black" fill-opacity="0.85"/>
  <path d="M9.25781 19.0445C9.66797 19.0445 10.0312 18.8102 10.0312 18.2477L10.0312 17.1695L10.5 17.1695C10.957 17.1695 11.1562 16.8766 11.1562 16.525C11.1562 16.1383 10.9336 15.8688 10.5 15.8688L10.0312 15.8688L10.0312 11.0641C10.0312 10.2906 9.51562 9.88049 8.75391 9.88049C7.99219 9.88049 7.60547 10.2906 7.25391 10.9703C6.5625 12.1774 5.54297 14.0524 5.00391 15.1656C4.85156 15.5289 4.71094 15.9039 4.71094 16.3024C4.71094 16.818 5.08594 17.1695 5.63672 17.1695L8.49609 17.1695L8.49609 18.2477C8.49609 18.7985 8.85938 19.0445 9.25781 19.0445ZM8.51953 15.9156L6.10547 15.9156L6.10547 15.8336C6.73828 14.4156 7.71094 12.611 8.47266 11.2516L8.51953 11.2516ZM15.3867 19.1383C17.2148 19.1383 18.3516 17.7789 18.3516 15.9508C18.3516 14.3805 17.4609 13.0328 15.9141 13.0328C15.1289 13.0328 14.4844 13.3844 14.1562 13.9938L14.1094 13.9938L14.3203 11.3219L17.3086 11.3219C17.6953 11.3219 17.9531 11.0641 17.9531 10.6656C17.9531 10.2672 17.6953 10.0094 17.3086 10.0094L13.8984 10.0094C13.2891 10.0094 13.0078 10.3258 12.9727 10.9469L12.7148 14.357C12.6797 14.8727 12.9492 15.2594 13.4648 15.2594C13.8516 15.2594 14.0156 15.1188 14.25 14.8375C14.5312 14.4625 14.9297 14.2281 15.3984 14.2281C16.3125 14.2281 16.7812 15.0602 16.7812 15.986C16.7812 16.9938 16.2773 17.8141 15.375 17.8141C14.6836 17.8141 14.2148 17.3688 13.9805 16.7594C13.8164 16.4313 13.582 16.2672 13.2773 16.2672C12.8672 16.2672 12.6094 16.525 12.6094 16.9469C12.6094 17.0758 12.6211 17.2164 12.668 17.357C12.9609 18.4703 14.25 19.1383 15.3867 19.1383Z" fill="black" fill-opacity="0.85"/>
 </g>
</svg>
