<?xml version="1.0" encoding="UTF-8"?>
<!--Generator: Apple Native CoreSVG 360-->
<!DOCTYPE svg
PUBLIC "-//W3C//DTD SVG 1.1//EN"
       "http://www.w3.org/Graphics/SVG/1.1/DTD/svg11.dtd">
<svg version="1.1" xmlns="http://www.w3.org/2000/svg" xmlns:xlink="http://www.w3.org/1999/xlink" viewBox="0 0 24.2578 23.918">
 <g>
  <rect height="23.918" opacity="0" width="24.2578" x="0" y="0"/>
  <path d="M11.9531 23.9062C18.5508 23.9062 23.9062 18.5508 23.9062 11.9531C23.9062 5.35547 18.5508 0 11.9531 0C5.35547 0 0 5.35547 0 11.9531C0 18.5508 5.35547 23.9062 11.9531 23.9062ZM11.9531 21.9141C6.44531 21.9141 1.99219 17.4609 1.99219 11.9531C1.99219 6.44531 6.44531 1.99219 11.9531 1.99219C17.4609 1.99219 21.9141 6.44531 21.9141 11.9531C21.9141 17.4609 17.4609 21.9141 11.9531 21.9141Z" fill="black" fill-opacity="0.85"/>
  <path d="M9.49219 16.8398C9.9375 16.8398 10.3008 16.5703 10.3008 16.0078L10.3008 14.8359L10.7109 14.8359C11.168 14.8359 11.3789 14.543 11.3789 14.1445C11.3789 13.7695 11.1797 13.4766 10.7109 13.4766L10.3008 13.4766L10.3008 8.33203C10.3008 7.52344 9.76172 7.06641 9 7.06641C8.17969 7.06641 7.79297 7.48828 7.46484 8.21484L5.36719 12.7617C5.16797 13.2188 5.09766 13.5234 5.09766 13.8867C5.09766 14.4492 5.49609 14.8359 6.05859 14.8359L8.68359 14.8359L8.68359 16.0078C8.68359 16.6289 9.12891 16.8398 9.49219 16.8398ZM8.71875 13.5117L6.53906 13.5117L6.53906 13.4297L8.67188 8.54297L8.71875 8.54297ZM15.457 16.9336C17.2852 16.9336 18.2812 15.3984 18.2812 13.5469C18.2812 11.9297 17.5078 10.4531 15.9961 10.4531C15.3164 10.4531 14.6719 10.7695 14.3789 11.4492L14.3203 11.4492L14.5078 8.60156L17.2617 8.60156C17.6719 8.60156 17.918 8.32031 17.918 7.91016C17.918 7.52344 17.6602 7.21875 17.2617 7.21875L14.0391 7.21875C13.4297 7.21875 13.1602 7.61719 13.1133 8.22656L12.9258 11.4375C12.9141 11.6133 12.9023 11.8008 12.9023 11.9531C12.9023 12.3984 13.1367 12.7969 13.6758 12.7969C13.9922 12.7969 14.1797 12.668 14.4258 12.3516C14.6836 11.9648 14.9883 11.6836 15.457 11.6836C16.3242 11.6836 16.6523 12.7266 16.6523 13.5938C16.6523 14.5664 16.3008 15.5625 15.4336 15.5625C14.7773 15.5625 14.4023 15.0938 14.1914 14.4492C14.0625 14.0742 13.793 13.8984 13.4883 13.8984C13.0547 13.8984 12.7852 14.168 12.7852 14.6016C12.7852 14.8711 12.8555 15.1289 12.9492 15.3633C13.3594 16.3125 14.4023 16.9336 15.457 16.9336Z" fill="black" fill-opacity="0.85"/>
 </g>
</svg>
