<?xml version="1.0" encoding="UTF-8"?>
<!--Generator: Apple Native CoreSVG 360-->
<!DOCTYPE svg
PUBLIC "-//W3C//DTD SVG 1.1//EN"
       "http://www.w3.org/Graphics/SVG/1.1/DTD/svg11.dtd">
<svg version="1.1" xmlns="http://www.w3.org/2000/svg" xmlns:xlink="http://www.w3.org/1999/xlink" viewBox="0 0 24.2578 23.918">
 <g>
  <rect height="23.918" opacity="0" width="24.2578" x="0" y="0"/>
  <path d="M11.9531 23.9062C18.5508 23.9062 23.9062 18.5508 23.9062 11.9531C23.9062 5.35547 18.5508 0 11.9531 0C5.35547 0 0 5.35547 0 11.9531C0 18.5508 5.35547 23.9062 11.9531 23.9062ZM11.9531 21.9141C6.44531 21.9141 1.99219 17.4609 1.99219 11.9531C1.99219 6.44531 6.44531 1.99219 11.9531 1.99219C17.4609 1.99219 21.9141 6.44531 21.9141 11.9531C21.9141 17.4609 17.4609 21.9141 11.9531 21.9141Z" fill="black" fill-opacity="0.85"/>
  <path d="M9.26953 16.8398C9.71484 16.8398 10.0781 16.5703 10.0781 16.0078L10.0781 14.8359L10.4883 14.8359C10.9453 14.8359 11.1562 14.543 11.1562 14.1445C11.1562 13.7695 10.957 13.4766 10.4883 13.4766L10.0781 13.4766L10.0781 8.33203C10.0781 7.52344 9.53906 7.06641 8.77734 7.06641C7.95703 7.06641 7.57031 7.48828 7.24219 8.21484L5.14453 12.7617C4.94531 13.2188 4.875 13.5234 4.875 13.8867C4.875 14.4492 5.27344 14.8359 5.83594 14.8359L8.46094 14.8359L8.46094 16.0078C8.46094 16.6289 8.90625 16.8398 9.26953 16.8398ZM8.49609 13.5117L6.31641 13.5117L6.31641 13.4297L8.44922 8.54297L8.49609 8.54297ZM15.457 16.9336C17.2383 16.9336 18.2695 15.4336 18.2695 13.5938C18.2695 12.0117 17.5078 10.5117 15.9492 10.5117C15 10.5117 14.2852 11.1445 14.0156 12.1523L13.9688 12.1523C13.9688 12.1055 13.9688 12.0586 13.9688 12.0234C13.9688 10.7227 14.1328 8.36719 15.4336 8.36719C15.9727 8.36719 16.3242 8.74219 16.5234 9.23438C16.6875 9.59766 16.9102 9.76172 17.2969 9.76172C17.7656 9.76172 17.9648 9.44531 17.9648 9.05859C17.9648 8.92969 17.9531 8.78906 17.9062 8.63672C17.6602 7.62891 16.6523 6.99609 15.4688 6.99609C13.0664 6.99609 12.375 9.69141 12.375 12.0703C12.375 14.2852 13.0781 16.9336 15.457 16.9336ZM15.4336 15.5625C14.543 15.5625 14.1914 14.4609 14.1914 13.6172C14.1914 12.7617 14.5898 11.7891 15.4336 11.7891C16.3008 11.7891 16.6641 12.7969 16.6406 13.6641C16.6406 14.5195 16.2539 15.5625 15.4336 15.5625Z" fill="black" fill-opacity="0.85"/>
 </g>
</svg>
