<?xml version="1.0" encoding="UTF-8"?>
<!--Generator: Apple Native CoreSVG 360-->
<!DOCTYPE svg
PUBLIC "-//W3C//DTD SVG 1.1//EN"
       "http://www.w3.org/Graphics/SVG/1.1/DTD/svg11.dtd">
<svg version="1.1" xmlns="http://www.w3.org/2000/svg" xmlns:xlink="http://www.w3.org/1999/xlink" viewBox="0 0 21.9258 21.5742">
 <g>
  <rect height="21.5742" opacity="0" width="21.9258" x="0" y="0"/>
  <path d="M3.67969 21.5742L17.8945 21.5742C20.3555 21.5742 21.5742 20.3672 21.5742 17.9531L21.5742 3.63281C21.5742 1.21875 20.3555 0 17.8945 0L3.67969 0C1.23047 0 0 1.21875 0 3.63281L0 17.9531C0 20.3672 1.23047 21.5742 3.67969 21.5742ZM3.70312 19.6875C2.53125 19.6875 1.88672 19.0664 1.88672 17.8477L1.88672 3.73828C1.88672 2.51953 2.53125 1.88672 3.70312 1.88672L17.8711 1.88672C19.0312 1.88672 19.6875 2.51953 19.6875 3.73828L19.6875 17.8477C19.6875 19.0664 19.0312 19.6875 17.8711 19.6875Z" fill="black" fill-opacity="0.85"/>
  <path d="M8.13281 15.6797C8.56641 15.6797 8.92969 15.4102 8.92969 14.8477L8.92969 13.6758L9.33984 13.6758C9.79688 13.6758 10.0078 13.3828 10.0078 12.9844C10.0078 12.6094 9.80859 12.3164 9.33984 12.3164L8.92969 12.3164L8.92969 7.17188C8.92969 6.36328 8.39062 5.90625 7.62891 5.90625C6.80859 5.90625 6.42188 6.32812 6.09375 7.05469L3.99609 11.6016C3.79688 12.0586 3.72656 12.3633 3.72656 12.7266C3.72656 13.2891 4.125 13.6758 4.69922 13.6758L7.3125 13.6758L7.3125 14.8477C7.3125 15.4688 7.75781 15.6797 8.13281 15.6797ZM7.34766 12.3516L5.17969 12.3516L5.17969 12.2695L7.30078 7.38281L7.34766 7.38281ZM14.3086 15.7734C16.1016 15.7734 17.1211 14.2734 17.1211 12.4336C17.1211 10.8516 16.3594 9.35156 14.8008 9.35156C13.8516 9.35156 13.1367 9.98438 12.8672 10.9922L12.8203 10.9922C12.8203 10.9453 12.8203 10.8984 12.8203 10.8633C12.8203 9.5625 12.9844 7.20703 14.2852 7.20703C14.8242 7.20703 15.1758 7.58203 15.375 8.07422C15.5391 8.4375 15.7734 8.60156 16.1484 8.60156C16.6172 8.60156 16.8164 8.28516 16.8164 7.89844C16.8164 7.76953 16.8047 7.62891 16.7695 7.47656C16.5117 6.46875 15.5039 5.83594 14.332 5.83594C11.9297 5.83594 11.2266 8.53125 11.2266 10.9102C11.2266 13.125 11.9297 15.7734 14.3086 15.7734ZM14.2852 14.4023C13.4062 14.4023 13.043 13.3008 13.043 12.457C13.043 11.6016 13.4414 10.6289 14.2852 10.6289C15.1523 10.6289 15.5156 11.6367 15.4922 12.5039C15.4922 13.3594 15.1055 14.4023 14.2852 14.4023Z" fill="black" fill-opacity="0.85"/>
 </g>
</svg>
