<?xml version="1.0" encoding="UTF-8"?>
<!--Generator: Apple Native CoreSVG 360-->
<!DOCTYPE svg
PUBLIC "-//W3C//DTD SVG 1.1//EN"
       "http://www.w3.org/Graphics/SVG/1.1/DTD/svg11.dtd">
<svg version="1.1" xmlns="http://www.w3.org/2000/svg" xmlns:xlink="http://www.w3.org/1999/xlink" viewBox="0 0 21.9258 21.5742">
 <g>
  <rect height="21.5742" opacity="0" width="21.9258" x="0" y="0"/>
  <path d="M3.67969 21.5742L17.8945 21.5742C20.3555 21.5742 21.5742 20.3672 21.5742 17.9531L21.5742 3.63281C21.5742 1.21875 20.3555 0 17.8945 0L3.67969 0C1.23047 0 0 1.21875 0 3.63281L0 17.9531C0 20.3672 1.23047 21.5742 3.67969 21.5742ZM3.70312 19.6875C2.53125 19.6875 1.88672 19.0664 1.88672 17.8477L1.88672 3.73828C1.88672 2.51953 2.53125 1.88672 3.70312 1.88672L17.8711 1.88672C19.0312 1.88672 19.6875 2.51953 19.6875 3.73828L19.6875 17.8477C19.6875 19.0664 19.0312 19.6875 17.8711 19.6875Z" fill="black" fill-opacity="0.85"/>
  <path d="M8.71875 15.6797C9.15234 15.6797 9.51562 15.4102 9.51562 14.8477L9.51562 13.6758L9.9375 13.6758C10.3828 13.6758 10.6055 13.3828 10.6055 12.9844C10.6055 12.6094 10.4062 12.3164 9.9375 12.3164L9.51562 12.3164L9.51562 7.17188C9.51562 6.36328 8.98828 5.90625 8.22656 5.90625C7.39453 5.90625 7.00781 6.32812 6.67969 7.05469L4.58203 11.6016C4.39453 12.0586 4.32422 12.3633 4.32422 12.7266C4.32422 13.2891 4.71094 13.6758 5.28516 13.6758L7.91016 13.6758L7.91016 14.8477C7.91016 15.4688 8.34375 15.6797 8.71875 15.6797ZM7.94531 12.3516L5.76562 12.3516L5.76562 12.2695L7.89844 7.38281L7.94531 7.38281ZM13.207 15.6914C13.6406 15.6914 13.8281 15.5156 13.9922 15.0938L16.6641 7.94531C16.793 7.58203 16.8867 7.30078 16.8867 6.96094C16.8867 6.42188 16.4766 6.05859 15.9492 6.05859L12.1641 6.05859C11.7656 6.05859 11.4844 6.35156 11.4844 6.75C11.4844 7.14844 11.7656 7.44141 12.1641 7.44141L15.1758 7.44141L15.1758 7.54688L12.5742 14.2734C12.4805 14.5312 12.4336 14.6836 12.4336 14.9648C12.4336 15.3047 12.6562 15.6914 13.207 15.6914Z" fill="black" fill-opacity="0.85"/>
 </g>
</svg>
