<?xml version="1.0" encoding="UTF-8"?>
<!--Generator: Apple Native CoreSVG 360-->
<!DOCTYPE svg
PUBLIC "-//W3C//DTD SVG 1.1//EN"
       "http://www.w3.org/Graphics/SVG/1.1/DTD/svg11.dtd">
<svg version="1.1" xmlns="http://www.w3.org/2000/svg" xmlns:xlink="http://www.w3.org/1999/xlink" viewBox="0 0 24.2578 23.918">
 <g>
  <rect height="23.918" opacity="0" width="24.2578" x="0" y="0"/>
  <path d="M11.9531 23.9062C18.5508 23.9062 23.9062 18.5508 23.9062 11.9531C23.9062 5.35547 18.5508 0 11.9531 0C5.35547 0 0 5.35547 0 11.9531C0 18.5508 5.35547 23.9062 11.9531 23.9062ZM11.9531 21.9141C6.44531 21.9141 1.99219 17.4609 1.99219 11.9531C1.99219 6.44531 6.44531 1.99219 11.9531 1.99219C17.4609 1.99219 21.9141 6.44531 21.9141 11.9531C21.9141 17.4609 17.4609 21.9141 11.9531 21.9141Z" fill="black" fill-opacity="0.85"/>
  <path d="M9.28125 16.8398C9.71484 16.8398 10.0781 16.5703 10.0781 16.0078L10.0781 14.8359L10.5 14.8359C10.9453 14.8359 11.1562 14.543 11.1562 14.1445C11.1562 13.7695 10.9688 13.4766 10.5 13.4766L10.0781 13.4766L10.0781 8.33203C10.0781 7.52344 9.55078 7.06641 8.77734 7.06641C7.95703 7.06641 7.57031 7.48828 7.24219 8.21484L5.14453 12.7617C4.94531 13.2188 4.88672 13.5234 4.88672 13.8867C4.88672 14.4492 5.27344 14.8359 5.84766 14.8359L8.46094 14.8359L8.46094 16.0078C8.46094 16.6289 8.90625 16.8398 9.28125 16.8398ZM8.49609 13.5117L6.32812 13.5117L6.32812 13.4297L8.46094 8.54297L8.49609 8.54297ZM15.375 16.8984C17.2266 16.8984 18.4102 15.7383 18.4102 14.1328C18.4102 12.8555 17.6016 11.9297 16.6641 11.7188L16.6641 11.6836C17.4492 11.4375 18.1523 10.6758 18.1523 9.5625C18.1523 8.05078 17.0273 7.01953 15.375 7.01953C13.9219 7.01953 12.6094 7.91016 12.6094 9.55078C12.6094 10.7461 13.3594 11.4492 14.1094 11.6836L14.1094 11.7188C13.1016 11.9414 12.3398 12.8672 12.3398 14.1328C12.3398 15.8672 13.6523 16.8984 15.375 16.8984ZM15.375 11.1445C14.625 11.1445 14.2383 10.418 14.2383 9.72656C14.2383 8.97656 14.6484 8.27344 15.375 8.27344C16.1367 8.27344 16.5 8.97656 16.5 9.72656C16.5 10.5 16.1133 11.1445 15.375 11.1445ZM15.375 15.6328C14.5195 15.6328 14.0977 14.8711 14.0977 14.0039C14.0977 13.1602 14.5312 12.4102 15.375 12.4102C16.207 12.4102 16.6523 13.1133 16.6523 14.0039C16.6523 14.8711 16.2305 15.6328 15.375 15.6328Z" fill="black" fill-opacity="0.85"/>
 </g>
</svg>
