<?xml version="1.0" encoding="UTF-8"?>
<!--Generator: Apple Native CoreSVG 360-->
<!DOCTYPE svg
PUBLIC "-//W3C//DTD SVG 1.1//EN"
       "http://www.w3.org/Graphics/SVG/1.1/DTD/svg11.dtd">
<svg version="1.1" xmlns="http://www.w3.org/2000/svg" xmlns:xlink="http://www.w3.org/1999/xlink" viewBox="0 0 21.9258 21.5742">
 <g>
  <rect height="21.5742" opacity="0" width="21.9258" x="0" y="0"/>
  <path d="M3.67969 21.5742L17.8945 21.5742C20.3555 21.5742 21.5742 20.3672 21.5742 17.9531L21.5742 3.63281C21.5742 1.21875 20.3555 0 17.8945 0L3.67969 0C1.23047 0 0 1.21875 0 3.63281L0 17.9531C0 20.3672 1.23047 21.5742 3.67969 21.5742ZM3.70312 19.6875C2.53125 19.6875 1.88672 19.0664 1.88672 17.8477L1.88672 3.73828C1.88672 2.51953 2.53125 1.88672 3.70312 1.88672L17.8711 1.88672C19.0312 1.88672 19.6875 2.51953 19.6875 3.73828L19.6875 17.8477C19.6875 19.0664 19.0312 19.6875 17.8711 19.6875Z" fill="black" fill-opacity="0.85"/>
  <path d="M8.13281 15.6797C8.56641 15.6797 8.92969 15.4102 8.92969 14.8477L8.92969 13.6758L9.35156 13.6758C9.79688 13.6758 10.0078 13.3828 10.0078 12.9844C10.0078 12.6094 9.82031 12.3164 9.35156 12.3164L8.92969 12.3164L8.92969 7.17188C8.92969 6.36328 8.40234 5.90625 7.62891 5.90625C6.80859 5.90625 6.42188 6.32812 6.09375 7.05469L3.99609 11.6016C3.80859 12.0586 3.73828 12.3633 3.73828 12.7266C3.73828 13.2891 4.125 13.6758 4.69922 13.6758L7.32422 13.6758L7.32422 14.8477C7.32422 15.4688 7.75781 15.6797 8.13281 15.6797ZM7.35938 12.3516L5.17969 12.3516L5.17969 12.2695L7.3125 7.38281L7.35938 7.38281ZM14.2266 15.7383C16.0781 15.7383 17.2734 14.5781 17.2734 12.9727C17.2734 11.6953 16.4531 10.7695 15.5156 10.5586L15.5156 10.5234C16.3008 10.2773 17.0039 9.51562 17.0039 8.40234C17.0039 6.89062 15.8789 5.85938 14.2266 5.85938C12.7734 5.85938 11.4609 6.75 11.4609 8.39062C11.4609 9.58594 12.2109 10.2891 12.9609 10.5234L12.9609 10.5586C11.9648 10.7812 11.1914 11.707 11.1914 12.9727C11.1914 14.707 12.5039 15.7383 14.2266 15.7383ZM14.2266 9.98438C13.4766 9.98438 13.1016 9.25781 13.1016 8.56641C13.1016 7.81641 13.5 7.11328 14.2266 7.11328C14.9883 7.11328 15.3516 7.81641 15.3516 8.56641C15.3516 9.33984 14.9648 9.98438 14.2266 9.98438ZM14.2266 14.4727C13.3711 14.4727 12.9492 13.7109 12.9492 12.8438C12.9492 12 13.3828 11.25 14.2266 11.25C15.0586 11.25 15.5156 11.9531 15.5156 12.8438C15.5156 13.7109 15.0938 14.4727 14.2266 14.4727Z" fill="black" fill-opacity="0.85"/>
 </g>
</svg>
