<?xml version="1.0" encoding="UTF-8"?>
<!--Generator: Apple Native CoreSVG 360-->
<!DOCTYPE svg
PUBLIC "-//W3C//DTD SVG 1.1//EN"
       "http://www.w3.org/Graphics/SVG/1.1/DTD/svg11.dtd">
<svg version="1.1" xmlns="http://www.w3.org/2000/svg" xmlns:xlink="http://www.w3.org/1999/xlink" viewBox="0 0 24.2578 23.918">
 <g>
  <rect height="23.918" opacity="0" width="24.2578" x="0" y="0"/>
  <path d="M11.9531 23.9062C18.5508 23.9062 23.9062 18.5508 23.9062 11.9531C23.9062 5.35547 18.5508 0 11.9531 0C5.35547 0 0 5.35547 0 11.9531C0 18.5508 5.35547 23.9062 11.9531 23.9062ZM11.9531 21.9141C6.44531 21.9141 1.99219 17.4609 1.99219 11.9531C1.99219 6.44531 6.44531 1.99219 11.9531 1.99219C17.4609 1.99219 21.9141 6.44531 21.9141 11.9531C21.9141 17.4609 17.4609 21.9141 11.9531 21.9141Z" fill="black" fill-opacity="0.85"/>
  <path d="M9.45703 16.8398C9.90234 16.8398 10.2539 16.5703 10.2539 16.0078L10.2539 14.8359L10.6758 14.8359C11.1328 14.8359 11.3438 14.543 11.3438 14.1445C11.3438 13.7695 11.1445 13.4766 10.6758 13.4766L10.2539 13.4766L10.2539 8.33203C10.2539 7.52344 9.72656 7.06641 8.96484 7.06641C8.13281 7.06641 7.74609 7.48828 7.41797 8.21484L5.33203 12.7617C5.13281 13.2188 5.0625 13.5234 5.0625 13.8867C5.0625 14.4492 5.44922 14.8359 6.02344 14.8359L8.64844 14.8359L8.64844 16.0078C8.64844 16.6289 9.09375 16.8398 9.45703 16.8398ZM8.68359 13.5117L6.50391 13.5117L6.50391 13.4297L8.63672 8.54297L8.68359 8.54297ZM14.8125 13.418C15.7734 13.418 16.4883 12.7852 16.7578 11.7773L16.8047 11.7773C16.8047 11.8242 16.8047 11.8711 16.8047 11.9062C16.8047 13.207 16.6406 15.5508 15.3281 15.5508C14.8008 15.5508 14.4492 15.1875 14.2383 14.6836C14.0742 14.2969 13.8398 14.1445 13.4883 14.1445C12.9961 14.1445 12.7852 14.4727 12.7852 14.8594C12.7852 15 12.8203 15.1406 12.8555 15.2812C13.1016 16.3008 14.1211 16.9219 15.293 16.9219C17.6953 16.9219 18.3984 14.2617 18.3984 11.8594C18.3984 9.64453 17.6953 6.99609 15.3164 6.99609C13.5352 6.99609 12.5039 8.49609 12.5039 10.3359C12.5039 11.918 13.2656 13.418 14.8125 13.418ZM15.3398 12.1289C14.4727 12.1289 14.1211 11.1328 14.1211 10.2656C14.1211 9.38672 14.5195 8.35547 15.3398 8.35547C16.2188 8.35547 16.582 9.38672 16.582 10.2656C16.582 11.168 16.1836 12.1289 15.3398 12.1289Z" fill="black" fill-opacity="0.85"/>
 </g>
</svg>
