<?xml version="1.0" encoding="UTF-8"?>
<!--Generator: Apple Native CoreSVG 360-->
<!DOCTYPE svg
PUBLIC "-//W3C//DTD SVG 1.1//EN"
       "http://www.w3.org/Graphics/SVG/1.1/DTD/svg11.dtd">
<svg version="1.1" xmlns="http://www.w3.org/2000/svg" xmlns:xlink="http://www.w3.org/1999/xlink" viewBox="0 0 21.9258 21.5742">
 <g>
  <rect height="21.5742" opacity="0" width="21.9258" x="0" y="0"/>
  <path d="M3.67969 21.5742L17.8945 21.5742C20.3555 21.5742 21.5742 20.3672 21.5742 17.9531L21.5742 3.63281C21.5742 1.21875 20.3555 0 17.8945 0L3.67969 0C1.23047 0 0 1.21875 0 3.63281L0 17.9531C0 20.3672 1.23047 21.5742 3.67969 21.5742ZM3.70312 19.6875C2.53125 19.6875 1.88672 19.0664 1.88672 17.8477L1.88672 3.73828C1.88672 2.51953 2.53125 1.88672 3.70312 1.88672L17.8711 1.88672C19.0312 1.88672 19.6875 2.51953 19.6875 3.73828L19.6875 17.8477C19.6875 19.0664 19.0312 19.6875 17.8711 19.6875Z" fill="black" fill-opacity="0.85"/>
  <path d="M8.30859 15.6797C8.75391 15.6797 9.11719 15.4102 9.11719 14.8477L9.11719 13.6758L9.52734 13.6758C9.98438 13.6758 10.1953 13.3828 10.1953 12.9844C10.1953 12.6094 9.99609 12.3164 9.52734 12.3164L9.11719 12.3164L9.11719 7.17188C9.11719 6.36328 8.57812 5.90625 7.81641 5.90625C6.99609 5.90625 6.60938 6.32812 6.28125 7.05469L4.18359 11.6016C3.98438 12.0586 3.91406 12.3633 3.91406 12.7266C3.91406 13.2891 4.3125 13.6758 4.875 13.6758L7.5 13.6758L7.5 14.8477C7.5 15.4688 7.94531 15.6797 8.30859 15.6797ZM7.53516 12.3516L5.35547 12.3516L5.35547 12.2695L7.48828 7.38281L7.53516 7.38281ZM13.6758 12.2578C14.625 12.2578 15.3398 11.625 15.6094 10.6172L15.6562 10.6172C15.6562 10.6641 15.6562 10.7109 15.6562 10.7461C15.6562 12.0469 15.4922 14.3906 14.1797 14.3906C13.6523 14.3906 13.3008 14.0273 13.0898 13.5234C12.9258 13.1367 12.6914 12.9844 12.3398 12.9844C11.8477 12.9844 11.6367 13.3125 11.6367 13.6992C11.6367 13.8398 11.6719 13.9805 11.707 14.1211C11.9648 15.1406 12.9727 15.7617 14.1562 15.7617C16.5586 15.7617 17.25 13.1016 17.25 10.6992C17.25 8.48438 16.5469 5.83594 14.168 5.83594C12.3867 5.83594 11.3555 7.33594 11.3555 9.17578C11.3555 10.7578 12.1172 12.2578 13.6758 12.2578ZM14.1914 10.9688C13.3242 10.9688 12.9727 9.97266 12.9727 9.10547C12.9727 8.22656 13.3711 7.19531 14.1914 7.19531C15.082 7.19531 15.4336 8.22656 15.4336 9.10547C15.4336 10.0078 15.0352 10.9688 14.1914 10.9688Z" fill="black" fill-opacity="0.85"/>
 </g>
</svg>
