<?xml version="1.0" encoding="UTF-8"?>
<!--Generator: Apple Native CoreSVG 360-->
<!DOCTYPE svg
PUBLIC "-//W3C//DTD SVG 1.1//EN"
       "http://www.w3.org/Graphics/SVG/1.1/DTD/svg11.dtd">
<svg version="1.1" xmlns="http://www.w3.org/2000/svg" xmlns:xlink="http://www.w3.org/1999/xlink" viewBox="0 0 29.6484 23.4492">
 <g>
  <rect height="23.4492" opacity="0" width="29.6484" x="0" y="0"/>
  <path d="M3.01172 19.4648L26.2852 19.4648C28.1602 19.4648 29.2969 18.3164 29.2969 16.4531L29.2969 3.01172C29.2969 1.14844 28.1602 0 26.2852 0L3.01172 0C1.14844 0 0 1.14844 0 3.01172L0 16.4531C0 18.3164 1.14844 19.4648 3.01172 19.4648ZM3.04688 17.5781C2.32031 17.5781 1.88672 17.1445 1.88672 16.4297L1.88672 3.03516C1.88672 2.32031 2.32031 1.88672 3.04688 1.88672L26.25 1.88672C26.9766 1.88672 27.4102 2.32031 27.4102 3.03516L27.4102 16.4297C27.4102 17.1445 26.9766 17.5781 26.25 17.5781ZM8.75391 23.4375L20.543 23.4375C21.0586 23.4375 21.4922 23.0156 21.4922 22.4883C21.4922 21.9609 21.0586 21.5391 20.543 21.5391L8.75391 21.5391C8.23828 21.5391 7.80469 21.9609 7.80469 22.4883C7.80469 23.0156 8.23828 23.4375 8.75391 23.4375Z" fill="black" fill-opacity="0.85"/>
  <path d="M11.4961 14.6367C11.9297 14.6367 12.293 14.3555 12.293 13.793L12.293 12.6211L12.7148 12.6211C13.1602 12.6211 13.3828 12.3281 13.3828 11.9414C13.3828 11.5547 13.1836 11.2617 12.7148 11.2617L12.293 11.2617L12.293 6.11719C12.293 5.30859 11.7656 4.86328 11.0039 4.86328C10.1719 4.86328 9.78516 5.28516 9.45703 6.01172L7.35938 10.5586C7.17188 11.0039 7.10156 11.3086 7.10156 11.6719C7.10156 12.2344 7.48828 12.6211 8.0625 12.6211L10.6875 12.6211L10.6875 13.793C10.6875 14.4141 11.1211 14.6367 11.4961 14.6367ZM10.7227 11.2969L8.54297 11.2969L8.54297 11.2266L10.6758 6.33984L10.7227 6.33984ZM15.668 14.6484C16.2656 14.6484 16.5352 14.2383 16.5352 13.7578L16.5352 11.6602L17.2969 10.4766L19.3711 14.0039C19.6055 14.4141 19.8281 14.625 20.2852 14.625C20.7539 14.625 21.0469 14.2852 21.0469 13.8281C21.0469 13.5703 21 13.418 20.8477 13.1484L18.5508 9.31641L20.5664 6.31641C20.707 6.12891 20.7891 5.95312 20.7891 5.67188C20.7891 5.28516 20.5078 4.89844 20.0156 4.89844C19.5703 4.89844 19.4062 5.13281 19.2539 5.37891L16.6055 9.44531L16.5234 9.44531L16.5234 5.76562C16.5234 5.26172 16.2305 4.875 15.668 4.875C15.1172 4.875 14.8125 5.22656 14.8125 5.76562L14.8125 13.7578C14.8125 14.2852 15.1289 14.6484 15.668 14.6484Z" fill="black" fill-opacity="0.85"/>
 </g>
</svg>
