<?xml version="1.0" encoding="UTF-8"?>
<!--Generator: Apple Native CoreSVG 360-->
<!DOCTYPE svg
PUBLIC "-//W3C//DTD SVG 1.1//EN"
       "http://www.w3.org/Graphics/SVG/1.1/DTD/svg11.dtd">
<svg version="1.1" xmlns="http://www.w3.org/2000/svg" xmlns:xlink="http://www.w3.org/1999/xlink" viewBox="0 0 27.1172 17.332">
 <g>
  <rect height="17.332" opacity="0" width="27.1172" x="0" y="0"/>
  <path d="M9.31641 17.3086C9.89062 17.3086 10.3125 16.8633 10.3125 16.2539L10.3125 13.4648L11.8594 13.4648C12.4102 13.4648 12.7852 13.1367 12.7852 12.5859C12.7852 12.0703 12.3984 11.707 11.8594 11.707L10.3125 11.707L10.3125 1.64062C10.3125 0.691406 9.60938 0.0117188 8.625 0.0117188C7.57031 0.0117188 6.96094 0.785156 6.41016 1.65234L0.433594 10.8164C0.152344 11.2617 0 11.7305 0 12.1523C0 12.9023 0.492188 13.4648 1.42969 13.4648L8.32031 13.4648L8.32031 16.2539C8.32031 16.9805 8.83594 17.3086 9.31641 17.3086ZM8.33203 11.7305L1.95703 11.7305L1.95703 11.625L8.22656 2.09766L8.33203 2.09766ZM17.332 17.0625L25.7812 17.0625C26.3555 17.0625 26.7656 16.6758 26.7656 16.1367C26.7656 15.6094 26.3555 15.2461 25.7812 15.2461L18.3867 15.2461L18.3867 1.04297C18.3867 0.457031 17.918 0 17.3438 0C16.7695 0 16.3008 0.457031 16.3008 1.04297L16.3008 15.9727C16.3008 16.7578 16.8047 17.0625 17.332 17.0625Z" fill="black" fill-opacity="0.85"/>
 </g>
</svg>
