<?xml version="1.0" encoding="UTF-8"?>
<!--Generator: Apple Native CoreSVG 360-->
<!DOCTYPE svg
PUBLIC "-//W3C//DTD SVG 1.1//EN"
       "http://www.w3.org/Graphics/SVG/1.1/DTD/svg11.dtd">
<svg version="1.1" xmlns="http://www.w3.org/2000/svg" xmlns:xlink="http://www.w3.org/1999/xlink" viewBox="0 0 24.2578 28.468">
 <g>
  <rect height="28.468" opacity="0" width="24.2578" x="0" y="0"/>
  <path d="M14.2148 0.833612C14.2148-0.0101376 13.6406-0.221075 12.9844 0.235956L9.25781 2.86096C8.71875 3.24767 8.73047 3.81017 9.25781 4.18517L12.9961 6.81017C13.6406 7.25549 14.2148 7.04455 14.2148 6.21252ZM11.9531 26.1813C18.5508 26.1813 23.9062 20.8258 23.9062 14.2281C23.9062 7.63049 18.5625 2.28674 11.9414 2.27502C11.3906 2.28674 10.957 2.73205 10.957 3.25939C10.957 3.81017 11.4023 4.26721 11.9531 4.26721C17.4609 4.26721 21.9141 8.72033 21.9141 14.2281C21.9141 19.736 17.4609 24.1891 11.9531 24.1891C6.44531 24.1891 1.99219 19.736 1.99219 14.2281C1.99219 10.8883 3.63281 7.94689 6.11719 6.16564C6.59766 5.80236 6.75 5.25158 6.45703 4.75939C6.16406 4.29064 5.49609 4.15002 4.98047 4.54846C1.95703 6.72814 0 10.2086 0 14.2281C0 20.8258 5.35547 26.1813 11.9531 26.1813Z" fill="black" fill-opacity="0.85"/>
  <path d="M11.9883 19.1383C13.8164 19.1383 14.9531 17.7789 14.9531 15.9508C14.9531 14.3805 14.0625 13.0328 12.5156 13.0328C11.7422 13.0328 11.0859 13.3961 10.7695 13.9938L10.7227 13.9938L10.9219 11.3219L13.9102 11.3219C14.2969 11.3219 14.5547 11.0641 14.5547 10.6656C14.5547 10.2672 14.3086 10.0094 13.9102 10.0094L10.5117 10.0094C9.90234 10.0094 9.62109 10.3375 9.57422 10.9469L9.32812 14.3688C9.29297 14.8844 9.5625 15.2711 10.0781 15.2711C10.4531 15.2711 10.6172 15.1188 10.8516 14.8492C11.1328 14.4625 11.5312 14.2281 12 14.2281C12.9258 14.2281 13.3828 15.0602 13.3828 15.9977C13.3828 16.9938 12.8789 17.8258 11.9766 17.8258C11.2852 17.8258 10.8047 17.3688 10.582 16.7594C10.4297 16.4313 10.1953 16.2672 9.87891 16.2672C9.46875 16.2672 9.21094 16.525 9.21094 16.9352C9.21094 17.0758 9.23438 17.2164 9.26953 17.3453C9.5625 18.4703 10.8516 19.1383 11.9883 19.1383Z" fill="black" fill-opacity="0.85"/>
 </g>
</svg>
