<?xml version="1.0" encoding="UTF-8"?>
<!--Generator: Apple Native CoreSVG 360-->
<!DOCTYPE svg
PUBLIC "-//W3C//DTD SVG 1.1//EN"
       "http://www.w3.org/Graphics/SVG/1.1/DTD/svg11.dtd">
<svg version="1.1" xmlns="http://www.w3.org/2000/svg" xmlns:xlink="http://www.w3.org/1999/xlink" viewBox="0 0 23.707 21.5977">
 <g>
  <rect height="21.5977" opacity="0" width="23.707" x="0" y="0"/>
  <path d="M3.67969 21.5977L19.6875 21.5977C22.1367 21.5977 23.3555 20.3789 23.3555 17.9648L23.3555 3.65625C23.3555 1.24219 22.1367 0.0234375 19.6875 0.0234375L3.67969 0.0234375C1.23047 0.0234375 0 1.23047 0 3.65625L0 17.9648C0 20.3906 1.23047 21.5977 3.67969 21.5977ZM3.50391 19.7109C2.46094 19.7109 1.88672 19.1602 1.88672 18.0703L1.88672 7.01953C1.88672 5.94141 2.46094 5.37891 3.50391 5.37891L19.8398 5.37891C20.8828 5.37891 21.4688 5.94141 21.4688 7.01953L21.4688 18.0703C21.4688 19.1602 20.8828 19.7109 19.8398 19.7109Z" fill="black" fill-opacity="0.85"/>
  <path d="M11.625 17.6953C13.8281 17.6953 15.3281 16.3242 15.3281 14.2383C15.3281 12.3164 13.957 10.9922 11.9883 10.9922C11.1094 10.9922 10.1953 11.3789 9.80859 11.9297L9.72656 11.9297L9.98438 8.97656L14.2969 8.97656C14.6719 8.97656 14.9414 8.70703 14.9414 8.32031C14.9414 7.92188 14.6836 7.65234 14.2969 7.65234L9.83203 7.65234C9.12891 7.65234 8.66016 8.03906 8.61328 8.67188L8.32031 12.2695C8.27344 12.8906 8.63672 13.3008 9.23438 13.3008C9.63281 13.3008 9.87891 13.207 10.3008 12.8789C10.8164 12.4453 11.2266 12.2812 11.7891 12.2812C12.9258 12.2812 13.6992 13.0781 13.6992 14.2617C13.6992 15.457 12.7969 16.3359 11.6016 16.3359C10.7227 16.3359 9.96094 15.9023 9.59766 15.1758C9.41016 14.8359 9.15234 14.6719 8.83594 14.6719C8.40234 14.6719 8.10938 14.9648 8.10938 15.375C8.10938 15.5625 8.15625 15.7383 8.22656 15.9023C8.64844 17.0039 9.90234 17.6953 11.625 17.6953Z" fill="black" fill-opacity="0.85"/>
 </g>
</svg>
