<?xml version="1.0" encoding="UTF-8"?>
<!--Generator: Apple Native CoreSVG 360-->
<!DOCTYPE svg
PUBLIC "-//W3C//DTD SVG 1.1//EN"
       "http://www.w3.org/Graphics/SVG/1.1/DTD/svg11.dtd">
<svg version="1.1" xmlns="http://www.w3.org/2000/svg" xmlns:xlink="http://www.w3.org/1999/xlink" viewBox="0 0 24.2578 23.918">
 <g>
  <rect height="23.918" opacity="0" width="24.2578" x="0" y="0"/>
  <path d="M11.9531 23.9062C18.5508 23.9062 23.9062 18.5508 23.9062 11.9531C23.9062 5.35547 18.5508 0 11.9531 0C5.35547 0 0 5.35547 0 11.9531C0 18.5508 5.35547 23.9062 11.9531 23.9062ZM11.9531 21.9141C6.44531 21.9141 1.99219 17.4609 1.99219 11.9531C1.99219 6.44531 6.44531 1.99219 11.9531 1.99219C17.4609 1.99219 21.9141 6.44531 21.9141 11.9531C21.9141 17.4609 17.4609 21.9141 11.9531 21.9141Z" fill="black" fill-opacity="0.85"/>
  <path d="M11.8711 17.5312C14.25 17.5312 15.8789 16.043 15.8789 13.7812C15.8789 11.707 14.3906 10.2656 12.2461 10.2656C11.2969 10.2656 10.3125 10.6875 9.89062 11.2734L9.80859 11.2734L10.0898 8.08594L14.7656 8.08594C15.1641 8.08594 15.457 7.78125 15.457 7.35938C15.457 6.9375 15.1758 6.64453 14.7656 6.64453L9.91406 6.64453C9.15234 6.64453 8.64844 7.06641 8.60156 7.74609L8.27344 11.6484C8.22656 12.3164 8.625 12.7617 9.26953 12.7617C9.70312 12.7617 9.96094 12.668 10.4297 12.3164C10.9922 11.8359 11.4375 11.6602 12.0352 11.6602C13.2773 11.6602 14.1094 12.5273 14.1094 13.8164C14.1094 15.1055 13.1367 16.0664 11.8359 16.0664C10.875 16.0664 10.0547 15.5859 9.66797 14.8125C9.45703 14.4375 9.17578 14.25 8.83594 14.25C8.36719 14.25 8.05078 14.5781 8.05078 15.0234C8.05078 15.2227 8.09766 15.4102 8.16797 15.5859C8.63672 16.7812 9.99609 17.5312 11.8711 17.5312Z" fill="black" fill-opacity="0.85"/>
 </g>
</svg>
