<?xml version="1.0" encoding="UTF-8"?>
<!--Generator: Apple Native CoreSVG 360-->
<!DOCTYPE svg
PUBLIC "-//W3C//DTD SVG 1.1//EN"
       "http://www.w3.org/Graphics/SVG/1.1/DTD/svg11.dtd">
<svg version="1.1" xmlns="http://www.w3.org/2000/svg" xmlns:xlink="http://www.w3.org/1999/xlink" viewBox="0 0 21.9258 17.6836">
 <g>
  <rect height="17.6836" opacity="0" width="21.9258" x="0" y="0"/>
  <path d="M0 16.7344C0 17.25 0.421875 17.6836 0.9375 17.6836C1.46484 17.6836 1.88672 17.25 1.88672 16.7344L1.88672 0.960938C1.88672 0.445312 1.46484 0.0234375 0.9375 0.0234375C0.421875 0.0234375 0 0.445312 0 0.960938ZM19.6875 16.7344C19.6875 17.25 20.1211 17.6836 20.6367 17.6836C21.1523 17.6836 21.5742 17.25 21.5742 16.7344L21.5742 0.960938C21.5742 0.445312 21.1523 0.0234375 20.6367 0.0234375C20.1211 0.0234375 19.6875 0.445312 19.6875 0.960938Z" fill="black" fill-opacity="0.85"/>
  <path d="M10.8398 14.4258C12.9141 14.4258 14.2148 12.8789 14.2148 10.8047C14.2148 9.01172 13.1953 7.47656 11.4258 7.47656C10.5469 7.47656 9.80859 7.88672 9.43359 8.56641L9.38672 8.56641L9.62109 5.51953L13.0195 5.51953C13.4648 5.51953 13.7578 5.22656 13.7578 4.78125C13.7578 4.32422 13.4766 4.01953 13.0195 4.01953L9.15234 4.01953C8.44922 4.01953 8.13281 4.39453 8.08594 5.09766L7.80469 8.98828C7.75781 9.57422 8.07422 10.0195 8.64844 10.0195C9.08203 10.0195 9.26953 9.85547 9.53906 9.53906C9.85547 9.10547 10.3125 8.83594 10.8516 8.83594C11.8945 8.83594 12.4219 9.78516 12.4219 10.8516C12.4219 11.9766 11.8477 12.9258 10.8164 12.9258C10.0312 12.9258 9.49219 12.4102 9.23438 11.7188C9.04688 11.3438 8.77734 11.1562 8.42578 11.1562C7.95703 11.1562 7.66406 11.4492 7.66406 11.918C7.66406 12.0703 7.6875 12.2344 7.73438 12.3867C8.0625 13.6641 9.53906 14.4258 10.8398 14.4258Z" fill="black" fill-opacity="0.85"/>
 </g>
</svg>
