<?xml version="1.0" encoding="UTF-8"?>
<!--Generator: Apple Native CoreSVG 360-->
<!DOCTYPE svg
PUBLIC "-//W3C//DTD SVG 1.1//EN"
       "http://www.w3.org/Graphics/SVG/1.1/DTD/svg11.dtd">
<svg version="1.1" xmlns="http://www.w3.org/2000/svg" xmlns:xlink="http://www.w3.org/1999/xlink" viewBox="0 0 21.9258 21.5742">
 <g>
  <rect height="21.5742" opacity="0" width="21.9258" x="0" y="0"/>
  <path d="M3.67969 21.5742L17.8945 21.5742C20.3555 21.5742 21.5742 20.3672 21.5742 17.9531L21.5742 3.63281C21.5742 1.21875 20.3555 0 17.8945 0L3.67969 0C1.23047 0 0 1.21875 0 3.63281L0 17.9531C0 20.3672 1.23047 21.5742 3.67969 21.5742ZM3.70312 19.6875C2.53125 19.6875 1.88672 19.0664 1.88672 17.8477L1.88672 3.73828C1.88672 2.51953 2.53125 1.88672 3.70312 1.88672L17.8711 1.88672C19.0312 1.88672 19.6875 2.51953 19.6875 3.73828L19.6875 17.8477C19.6875 19.0664 19.0312 19.6875 17.8711 19.6875Z" fill="black" fill-opacity="0.85"/>
  <path d="M10.7227 16.3711C13.1016 16.3711 14.7422 14.8828 14.7422 12.6211C14.7422 10.5469 13.2422 9.10547 11.1094 9.10547C10.1484 9.10547 9.16406 9.52734 8.74219 10.1133L8.66016 10.1133L8.94141 6.92578L13.6172 6.92578C14.0156 6.92578 14.3086 6.62109 14.3086 6.19922C14.3086 5.77734 14.0273 5.48438 13.6172 5.48438L8.76562 5.48438C8.00391 5.48438 7.5 5.90625 7.45312 6.58594L7.13672 10.4883C7.07812 11.1562 7.47656 11.6016 8.12109 11.6016C8.55469 11.6016 8.82422 11.5078 9.28125 11.1562C9.84375 10.6758 10.2891 10.5 10.8867 10.5C12.1289 10.5 12.9609 11.3672 12.9609 12.6562C12.9609 13.9453 11.9883 14.9062 10.6875 14.9062C9.72656 14.9062 8.90625 14.4258 8.51953 13.6523C8.30859 13.2773 8.02734 13.0898 7.6875 13.0898C7.21875 13.0898 6.90234 13.418 6.90234 13.8633C6.90234 14.0625 6.94922 14.25 7.03125 14.4258C7.48828 15.6211 8.84766 16.3711 10.7227 16.3711Z" fill="black" fill-opacity="0.85"/>
 </g>
</svg>
