<?xml version="1.0" encoding="UTF-8"?>
<!--Generator: Apple Native CoreSVG 360-->
<!DOCTYPE svg
PUBLIC "-//W3C//DTD SVG 1.1//EN"
       "http://www.w3.org/Graphics/SVG/1.1/DTD/svg11.dtd">
<svg version="1.1" xmlns="http://www.w3.org/2000/svg" xmlns:xlink="http://www.w3.org/1999/xlink" viewBox="0 0 21.9258 21.5742">
 <g>
  <rect height="21.5742" opacity="0" width="21.9258" x="0" y="0"/>
  <path d="M3.67969 21.5742L17.8945 21.5742C20.3555 21.5742 21.5742 20.3672 21.5742 17.9531L21.5742 3.63281C21.5742 1.21875 20.3555 0 17.8945 0L3.67969 0C1.23047 0 0 1.21875 0 3.63281L0 17.9531C0 20.3672 1.23047 21.5742 3.67969 21.5742ZM3.70312 19.6875C2.53125 19.6875 1.88672 19.0664 1.88672 17.8477L1.88672 3.73828C1.88672 2.51953 2.53125 1.88672 3.70312 1.88672L17.8711 1.88672C19.0312 1.88672 19.6875 2.51953 19.6875 3.73828L19.6875 17.8477C19.6875 19.0664 19.0312 19.6875 17.8711 19.6875Z" fill="black" fill-opacity="0.85"/>
  <path d="M7.25391 15.7852C9.08203 15.7852 10.0898 14.2617 10.0898 12.4102C10.0898 10.793 9.31641 9.30469 7.80469 9.30469C7.11328 9.30469 6.48047 9.62109 6.17578 10.3125L6.11719 10.3125L6.31641 7.45312L9.07031 7.45312C9.46875 7.45312 9.71484 7.17188 9.71484 6.76172C9.71484 6.375 9.45703 6.08203 9.07031 6.08203L5.84766 6.08203C5.22656 6.08203 4.95703 6.48047 4.91016 7.07812L4.72266 10.2891C4.71094 10.4648 4.71094 10.6523 4.71094 10.8047C4.71094 11.2617 4.93359 11.6484 5.47266 11.6484C5.78906 11.6484 5.97656 11.5312 6.22266 11.2031C6.49219 10.8164 6.78516 10.5352 7.25391 10.5352C8.12109 10.5352 8.44922 11.5781 8.44922 12.4453C8.44922 13.418 8.10938 14.4141 7.23047 14.4141C6.58594 14.4141 6.21094 13.9453 6 13.3008C5.85938 12.9258 5.60156 12.75 5.28516 12.75C4.85156 12.75 4.58203 13.0195 4.58203 13.4531C4.58203 13.7227 4.65234 13.9805 4.74609 14.2148C5.15625 15.1641 6.19922 15.7852 7.25391 15.7852ZM14.4375 15.7852C16.7695 15.7852 17.4609 13.1602 17.4609 10.8047C17.4609 8.44922 16.7695 5.82422 14.4375 5.82422C12.0938 5.82422 11.4023 8.44922 11.4023 10.8047C11.4023 13.1602 12.0938 15.7852 14.4375 15.7852ZM14.4375 14.3906C13.4766 14.3906 13.1133 12.8438 13.1133 10.8047C13.1133 8.77734 13.4766 7.21875 14.4375 7.21875C15.3867 7.21875 15.75 8.77734 15.75 10.8047C15.75 12.8438 15.3867 14.3906 14.4375 14.3906Z" fill="black" fill-opacity="0.85"/>
 </g>
</svg>
