<?xml version="1.0" encoding="UTF-8"?>
<!--Generator: Apple Native CoreSVG 360-->
<!DOCTYPE svg
PUBLIC "-//W3C//DTD SVG 1.1//EN"
       "http://www.w3.org/Graphics/SVG/1.1/DTD/svg11.dtd">
<svg version="1.1" xmlns="http://www.w3.org/2000/svg" xmlns:xlink="http://www.w3.org/1999/xlink" viewBox="0 0 24.2578 23.918">
 <g>
  <rect height="23.918" opacity="0" width="24.2578" x="0" y="0"/>
  <path d="M11.9531 23.9062C18.5508 23.9062 23.9062 18.5508 23.9062 11.9531C23.9062 5.35547 18.5508 0 11.9531 0C5.35547 0 0 5.35547 0 11.9531C0 18.5508 5.35547 23.9062 11.9531 23.9062ZM11.9531 21.9141C6.44531 21.9141 1.99219 17.4609 1.99219 11.9531C1.99219 6.44531 6.44531 1.99219 11.9531 1.99219C17.4609 1.99219 21.9141 6.44531 21.9141 11.9531C21.9141 17.4609 17.4609 21.9141 11.9531 21.9141Z" fill="black" fill-opacity="0.85"/>
  <path d="M11.9766 17.5312C14.3789 17.5312 16.043 15.9844 16.043 13.8047C16.043 11.8711 14.5898 10.4297 12.5391 10.4297C11.7422 10.4297 10.9219 10.7344 10.5352 11.1328L10.4297 11.0977C10.5352 10.8984 10.6992 10.6875 11.0625 10.2188C11.6484 9.44531 12.4336 8.48438 12.9961 7.74609C13.1836 7.51172 13.2773 7.32422 13.2773 7.10156C13.2773 6.75 13.043 6.38672 12.4805 6.38672C12.1055 6.38672 11.8828 6.63281 11.6953 6.86719C10.9219 7.875 10.2188 8.77734 9.60938 9.58594C8.40234 11.1797 7.88672 12.4688 7.88672 13.7344C7.88672 15.9844 9.53906 17.5312 11.9766 17.5312ZM11.9766 16.0547C10.582 16.0547 9.53906 15.1172 9.53906 13.875C9.53906 12.6562 10.5703 11.7539 11.9648 11.7539C13.3711 11.7539 14.4023 12.6562 14.4023 13.8984C14.4023 15.1172 13.3711 16.0547 11.9766 16.0547Z" fill="black" fill-opacity="0.85"/>
 </g>
</svg>
