<?xml version="1.0" encoding="UTF-8"?>
<!--Generator: Apple Native CoreSVG 360-->
<!DOCTYPE svg
PUBLIC "-//W3C//DTD SVG 1.1//EN"
       "http://www.w3.org/Graphics/SVG/1.1/DTD/svg11.dtd">
<svg version="1.1" xmlns="http://www.w3.org/2000/svg" xmlns:xlink="http://www.w3.org/1999/xlink" viewBox="0 0 21.9258 21.5742">
 <g>
  <rect height="21.5742" opacity="0" width="21.9258" x="0" y="0"/>
  <path d="M3.67969 21.5742L17.8945 21.5742C20.3555 21.5742 21.5742 20.3672 21.5742 17.9531L21.5742 3.63281C21.5742 1.21875 20.3555 0 17.8945 0L3.67969 0C1.23047 0 0 1.21875 0 3.63281L0 17.9531C0 20.3672 1.23047 21.5742 3.67969 21.5742ZM3.70312 19.6875C2.53125 19.6875 1.88672 19.0664 1.88672 17.8477L1.88672 3.73828C1.88672 2.51953 2.53125 1.88672 3.70312 1.88672L17.8711 1.88672C19.0312 1.88672 19.6875 2.51953 19.6875 3.73828L19.6875 17.8477C19.6875 19.0664 19.0312 19.6875 17.8711 19.6875Z" fill="black" fill-opacity="0.85"/>
  <path d="M10.8281 16.3711C13.2305 16.3711 14.8945 14.8242 14.8945 12.6445C14.8945 10.7109 13.4414 9.26953 11.3906 9.26953C10.5938 9.26953 9.78516 9.57422 9.38672 9.97266L9.28125 9.9375C9.38672 9.73828 9.55078 9.52734 9.91406 9.05859C10.5 8.28516 11.2852 7.32422 11.8594 6.58594C12.0352 6.35156 12.1289 6.16406 12.1289 5.94141C12.1289 5.58984 11.8945 5.22656 11.332 5.22656C10.957 5.22656 10.7344 5.47266 10.5469 5.70703C9.77344 6.71484 9.07031 7.61719 8.46094 8.42578C7.25391 10.0195 6.73828 11.3086 6.73828 12.5742C6.73828 14.8242 8.39062 16.3711 10.8281 16.3711ZM10.8281 14.8945C9.43359 14.8945 8.39062 13.957 8.39062 12.7148C8.39062 11.4961 9.42188 10.5938 10.8164 10.5938C12.2227 10.5938 13.2539 11.4961 13.2539 12.7383C13.2539 13.957 12.2227 14.8945 10.8281 14.8945Z" fill="black" fill-opacity="0.85"/>
 </g>
</svg>
