<?xml version="1.0" encoding="UTF-8"?>
<!--Generator: Apple Native CoreSVG 360-->
<!DOCTYPE svg
PUBLIC "-//W3C//DTD SVG 1.1//EN"
       "http://www.w3.org/Graphics/SVG/1.1/DTD/svg11.dtd">
<svg version="1.1" xmlns="http://www.w3.org/2000/svg" xmlns:xlink="http://www.w3.org/1999/xlink" viewBox="0 0 23.707 21.5977">
 <g>
  <rect height="21.5977" opacity="0" width="23.707" x="0" y="0"/>
  <path d="M3.67969 21.5977L19.6875 21.5977C22.1367 21.5977 23.3555 20.3789 23.3555 17.9648L23.3555 3.65625C23.3555 1.24219 22.1367 0.0234375 19.6875 0.0234375L3.67969 0.0234375C1.23047 0.0234375 0 1.23047 0 3.65625L0 17.9648C0 20.3906 1.23047 21.5977 3.67969 21.5977ZM3.50391 19.7109C2.46094 19.7109 1.88672 19.1602 1.88672 18.0703L1.88672 7.01953C1.88672 5.94141 2.46094 5.37891 3.50391 5.37891L19.8398 5.37891C20.8828 5.37891 21.4688 5.94141 21.4688 7.01953L21.4688 18.0703C21.4688 19.1602 20.8828 19.7109 19.8398 19.7109Z" fill="black" fill-opacity="0.85"/>
  <path d="M11.7773 17.6953C13.9453 17.6953 15.4805 16.418 15.4805 14.2148C15.4805 12.1641 13.9336 11.0156 12.2227 11.0156C10.7695 11.0156 9.9375 11.7422 9.58594 12.5273C9.5625 12.5273 9.52734 12.5273 9.50391 12.5273C9.50391 12.4922 9.50391 12.457 9.50391 12.4102C9.50391 10.207 10.5117 8.77734 11.9883 8.77734C12.7383 8.77734 13.1719 9.10547 13.4766 9.49219C13.8281 9.83203 14.0273 10.0195 14.4023 10.0195C14.7656 10.0195 15.0586 9.76172 15.0586 9.375C15.0586 9.21094 15.0234 9.07031 14.9531 8.91797C14.6133 8.10938 13.4531 7.40625 12.0469 7.40625C9.50391 7.40625 7.91016 9.19922 7.91016 12.7852C7.91016 14.2734 8.17969 15.3516 8.63672 16.0898C9.32812 17.2266 10.5117 17.6953 11.7773 17.6953ZM11.707 16.3945C10.5 16.3945 9.63281 15.5039 9.63281 14.2734C9.63281 13.0898 10.5 12.2461 11.7188 12.2461C12.9492 12.2461 13.793 13.0781 13.793 14.2852C13.793 15.5625 12.9844 16.3945 11.707 16.3945Z" fill="black" fill-opacity="0.85"/>
 </g>
</svg>
