<?xml version="1.0" encoding="UTF-8"?>
<!--Generator: Apple Native CoreSVG 360-->
<!DOCTYPE svg
PUBLIC "-//W3C//DTD SVG 1.1//EN"
       "http://www.w3.org/Graphics/SVG/1.1/DTD/svg11.dtd">
<svg version="1.1" xmlns="http://www.w3.org/2000/svg" xmlns:xlink="http://www.w3.org/1999/xlink" viewBox="0 0 24.2578 23.918">
 <g>
  <rect height="23.918" opacity="0" width="24.2578" x="0" y="0"/>
  <path d="M11.9531 23.9062C18.5508 23.9062 23.9062 18.5508 23.9062 11.9531C23.9062 5.35547 18.5508 0 11.9531 0C5.35547 0 0 5.35547 0 11.9531C0 18.5508 5.35547 23.9062 11.9531 23.9062ZM11.9531 21.9141C6.44531 21.9141 1.99219 17.4609 1.99219 11.9531C1.99219 6.44531 6.44531 1.99219 11.9531 1.99219C17.4609 1.99219 21.9141 6.44531 21.9141 11.9531C21.9141 17.4609 17.4609 21.9141 11.9531 21.9141Z" fill="black" fill-opacity="0.85"/>
  <path d="M12.0352 17.5312C14.3906 17.5312 16.0547 16.1602 16.0547 13.7578C16.0547 11.5312 14.3672 10.2891 12.5156 10.2891C10.9453 10.2891 10.0312 11.0859 9.65625 11.9297C9.63281 11.9297 9.58594 11.9297 9.5625 11.9297C9.5625 11.8828 9.5625 11.8477 9.5625 11.8125C9.5625 9.41016 10.6523 7.86328 12.2695 7.86328C13.0781 7.86328 13.5469 8.22656 13.875 8.63672C14.25 9.01172 14.4844 9.21094 14.8828 9.21094C15.2812 9.21094 15.5859 8.92969 15.5859 8.51953C15.5859 8.33203 15.5508 8.16797 15.4805 8.00391C15.1172 7.13672 13.8398 6.375 12.3281 6.375C9.5625 6.375 7.83984 8.30859 7.83984 12.2109C7.83984 13.8281 8.13281 15 8.625 15.7852C9.375 17.0273 10.6523 17.5312 12.0352 17.5312ZM11.9531 16.125C10.6523 16.125 9.71484 15.1641 9.71484 13.8281C9.71484 12.5391 10.6406 11.625 11.9648 11.625C13.3008 11.625 14.2148 12.5273 14.2148 13.8398C14.2148 15.2227 13.3359 16.125 11.9531 16.125Z" fill="black" fill-opacity="0.85"/>
 </g>
</svg>
