<?xml version="1.0" encoding="UTF-8"?>
<!--Generator: Apple Native CoreSVG 360-->
<!DOCTYPE svg
PUBLIC "-//W3C//DTD SVG 1.1//EN"
       "http://www.w3.org/Graphics/SVG/1.1/DTD/svg11.dtd">
<svg version="1.1" xmlns="http://www.w3.org/2000/svg" xmlns:xlink="http://www.w3.org/1999/xlink" viewBox="0 0 21.9258 17.6836">
 <g>
  <rect height="17.6836" opacity="0" width="21.9258" x="0" y="0"/>
  <path d="M0 16.7344C0 17.25 0.421875 17.6836 0.9375 17.6836C1.46484 17.6836 1.88672 17.25 1.88672 16.7344L1.88672 0.960938C1.88672 0.445312 1.46484 0.0234375 0.9375 0.0234375C0.421875 0.0234375 0 0.445312 0 0.960938ZM19.6875 16.7344C19.6875 17.25 20.1211 17.6836 20.6367 17.6836C21.1523 17.6836 21.5742 17.25 21.5742 16.7344L21.5742 0.960938C21.5742 0.445312 21.1523 0.0234375 20.6367 0.0234375C20.1211 0.0234375 19.6875 0.445312 19.6875 0.960938Z" fill="black" fill-opacity="0.85"/>
  <path d="M10.957 14.4141C12.9375 14.4141 14.3086 12.9375 14.3086 10.8281C14.3086 8.95312 13.2305 7.52344 11.4961 7.52344C10.3008 7.52344 9.45703 8.23828 9.12891 9.26953L9.08203 9.26953C9.08203 8.34375 9.14062 7.66406 9.28125 7.08984C9.51562 6.15234 9.99609 5.27344 10.957 5.27344C11.6133 5.27344 12.0586 5.61328 12.3516 6.19922C12.5508 6.53906 12.8086 6.76172 13.207 6.76172C13.7578 6.76172 13.9688 6.375 13.9688 6C13.9688 5.75391 13.9102 5.51953 13.8047 5.30859C13.3828 4.38281 12.2695 3.77344 10.9805 3.77344C8.44922 3.77344 7.51172 6.15234 7.40625 8.57812C7.30078 9.66797 7.40625 10.8633 7.69922 11.7891C8.21484 13.3125 9.29297 14.4141 10.957 14.4141ZM10.9336 12.9141C9.91406 12.9141 9.33984 11.8711 9.33984 10.8516C9.33984 9.79688 9.96094 8.91797 10.9453 8.91797C11.9648 8.91797 12.5156 9.85547 12.5156 10.8984C12.5156 11.9297 11.9297 12.9141 10.9336 12.9141Z" fill="black" fill-opacity="0.85"/>
 </g>
</svg>
