<?xml version="1.0" encoding="UTF-8"?>
<!--Generator: Apple Native CoreSVG 360-->
<!DOCTYPE svg
PUBLIC "-//W3C//DTD SVG 1.1//EN"
       "http://www.w3.org/Graphics/SVG/1.1/DTD/svg11.dtd">
<svg version="1.1" xmlns="http://www.w3.org/2000/svg" xmlns:xlink="http://www.w3.org/1999/xlink" viewBox="0 0 21.9258 21.5742">
 <g>
  <rect height="21.5742" opacity="0" width="21.9258" x="0" y="0"/>
  <path d="M3.67969 21.5742L17.8945 21.5742C20.3555 21.5742 21.5742 20.3672 21.5742 17.9531L21.5742 3.63281C21.5742 1.21875 20.3555 0 17.8945 0L3.67969 0C1.23047 0 0 1.21875 0 3.63281L0 17.9531C0 20.3672 1.23047 21.5742 3.67969 21.5742ZM3.70312 19.6875C2.53125 19.6875 1.88672 19.0664 1.88672 17.8477L1.88672 3.73828C1.88672 2.51953 2.53125 1.88672 3.70312 1.88672L17.8711 1.88672C19.0312 1.88672 19.6875 2.51953 19.6875 3.73828L19.6875 17.8477C19.6875 19.0664 19.0312 19.6875 17.8711 19.6875Z" fill="black" fill-opacity="0.85"/>
  <path d="M10.8867 16.3711C13.2422 16.3711 14.9062 15 14.9062 12.5977C14.9062 10.3711 13.2188 9.12891 11.3672 9.12891C9.79688 9.12891 8.89453 9.92578 8.50781 10.7695C8.48438 10.7695 8.4375 10.7695 8.41406 10.7695C8.41406 10.7227 8.41406 10.6875 8.41406 10.6523C8.41406 8.25 9.51562 6.70312 11.1211 6.70312C11.9297 6.70312 12.3984 7.06641 12.7383 7.47656C13.1016 7.85156 13.3359 8.05078 13.7344 8.05078C14.1328 8.05078 14.4492 7.76953 14.4492 7.35938C14.4492 7.17188 14.4023 7.00781 14.332 6.84375C13.9688 5.97656 12.7031 5.21484 11.1797 5.21484C8.41406 5.21484 6.69141 7.14844 6.69141 11.0508C6.69141 12.668 6.98438 13.8398 7.47656 14.625C8.22656 15.8672 9.50391 16.3711 10.8867 16.3711ZM10.8164 14.9648C9.50391 14.9648 8.56641 14.0039 8.56641 12.668C8.56641 11.3789 9.49219 10.4648 10.8164 10.4648C12.1523 10.4648 13.0664 11.3672 13.0664 12.6797C13.0664 14.0625 12.1875 14.9648 10.8164 14.9648Z" fill="black" fill-opacity="0.85"/>
 </g>
</svg>
