<?xml version="1.0" encoding="UTF-8"?>
<!--Generator: Apple Native CoreSVG 360-->
<!DOCTYPE svg
PUBLIC "-//W3C//DTD SVG 1.1//EN"
       "http://www.w3.org/Graphics/SVG/1.1/DTD/svg11.dtd">
<svg version="1.1" xmlns="http://www.w3.org/2000/svg" xmlns:xlink="http://www.w3.org/1999/xlink" viewBox="0 0 24.2578 28.468">
 <g>
  <rect height="28.468" opacity="0" width="24.2578" x="0" y="0"/>
  <path d="M9.69141 0.833612L9.69141 6.21252C9.69141 7.04455 10.2656 7.25549 10.9102 6.81017L14.6484 4.18517C15.1758 3.81017 15.1875 3.24767 14.6484 2.86096L10.9219 0.235956C10.2656-0.221075 9.69141-0.0101376 9.69141 0.833612ZM11.9531 26.1813C18.5508 26.1813 23.9062 20.8258 23.9062 14.2281C23.9062 10.2086 21.9492 6.72814 18.9258 4.54846C18.4102 4.15002 17.7422 4.29064 17.4492 4.75939C17.1562 5.25158 17.3086 5.80236 17.7891 6.16564C20.2734 7.94689 21.9141 10.8883 21.9141 14.2281C21.9141 19.736 17.4609 24.1891 11.9531 24.1891C6.44531 24.1891 1.99219 19.736 1.99219 14.2281C1.99219 8.72033 6.44531 4.26721 11.9531 4.26721C12.5039 4.26721 12.9492 3.81017 12.9492 3.25939C12.9492 2.73205 12.5156 2.28674 11.9648 2.27502C5.34375 2.28674 0 7.63049 0 14.2281C0 20.8258 5.35547 26.1813 11.9531 26.1813Z" fill="black" fill-opacity="0.85"/>
  <path d="M8.40234 19.1266C10.1367 19.1266 11.3438 17.8258 11.3438 15.9742C11.3438 14.3453 10.4062 13.0797 8.88281 13.0797C7.82812 13.0797 7.08984 13.7008 6.79688 14.6149L6.75 14.6149C6.75 13.8063 6.80859 13.1969 6.9375 12.693C7.13672 11.8727 7.55859 11.0992 8.40234 11.0992C8.98828 11.0992 9.375 11.4039 9.63281 11.9195C9.80859 12.2125 10.0195 12.4117 10.3711 12.4117C10.8633 12.4117 11.0508 12.0719 11.0508 11.7438C11.0508 11.5211 11.0039 11.3219 10.9102 11.1344C10.5352 10.3258 9.5625 9.78674 8.42578 9.78674C6.19922 9.78674 5.37891 11.8727 5.28516 13.9938C5.19141 14.9664 5.28516 16.0211 5.55469 16.8297C6 18.1656 6.94922 19.1266 8.40234 19.1266ZM8.37891 17.8141C7.48828 17.8141 6.98438 16.9 6.98438 15.9977C6.98438 15.0719 7.52344 14.2985 8.39062 14.2985C9.29297 14.2985 9.77344 15.1188 9.77344 16.0445C9.77344 16.9586 9.26953 17.8141 8.37891 17.8141ZM15.8086 19.1149C18.1289 19.1149 18.9258 16.7477 18.9258 14.4391C18.9258 12.1305 18.1172 9.77502 15.8086 9.77502C13.5 9.77502 12.6914 12.1422 12.6914 14.4391C12.6914 16.7711 13.5117 19.1149 15.8086 19.1149ZM15.8086 17.7906C14.8359 17.7906 14.3438 16.3492 14.3438 14.4391C14.3438 12.5406 14.8359 11.111 15.8086 11.111C16.793 11.111 17.2852 12.5406 17.2852 14.4391C17.2852 16.3492 16.793 17.7906 15.8086 17.7906Z" fill="black" fill-opacity="0.85"/>
 </g>
</svg>
