<?xml version="1.0" encoding="UTF-8"?>
<!--Generator: Apple Native CoreSVG 360-->
<!DOCTYPE svg
PUBLIC "-//W3C//DTD SVG 1.1//EN"
       "http://www.w3.org/Graphics/SVG/1.1/DTD/svg11.dtd">
<svg version="1.1" xmlns="http://www.w3.org/2000/svg" xmlns:xlink="http://www.w3.org/1999/xlink" viewBox="0 0 23.707 21.5977">
 <g>
  <rect height="21.5977" opacity="0" width="23.707" x="0" y="0"/>
  <path d="M3.67969 21.5977L19.6875 21.5977C22.1367 21.5977 23.3555 20.3789 23.3555 17.9648L23.3555 3.65625C23.3555 1.24219 22.1367 0.0234375 19.6875 0.0234375L3.67969 0.0234375C1.23047 0.0234375 0 1.23047 0 3.65625L0 17.9648C0 20.3906 1.23047 21.5977 3.67969 21.5977ZM3.50391 19.7109C2.46094 19.7109 1.88672 19.1602 1.88672 18.0703L1.88672 7.01953C1.88672 5.94141 2.46094 5.37891 3.50391 5.37891L19.8398 5.37891C20.8828 5.37891 21.4688 5.94141 21.4688 7.01953L21.4688 18.0703C21.4688 19.1602 20.8828 19.7109 19.8398 19.7109Z" fill="black" fill-opacity="0.85"/>
  <path d="M10.2539 17.6719C10.6172 17.6719 10.875 17.5078 11.0977 17.0859L15.1172 9.53906C15.3281 9.14062 15.375 8.91797 15.375 8.69531C15.375 8.09766 14.918 7.65234 14.2031 7.65234L8.92969 7.65234C8.54297 7.65234 8.28516 7.92188 8.28516 8.32031C8.28516 8.70703 8.55469 8.97656 8.92969 8.97656L13.5117 8.97656L13.5117 9.07031L9.53906 16.3477C9.43359 16.5352 9.38672 16.6875 9.38672 16.8984C9.38672 17.3555 9.77344 17.6719 10.2539 17.6719Z" fill="black" fill-opacity="0.85"/>
 </g>
</svg>
