<?xml version="1.0" encoding="UTF-8"?>
<!--Generator: Apple Native CoreSVG 360-->
<!DOCTYPE svg
PUBLIC "-//W3C//DTD SVG 1.1//EN"
       "http://www.w3.org/Graphics/SVG/1.1/DTD/svg11.dtd">
<svg version="1.1" xmlns="http://www.w3.org/2000/svg" xmlns:xlink="http://www.w3.org/1999/xlink" viewBox="0 0 24.2578 23.918">
 <g>
  <rect height="23.918" opacity="0" width="24.2578" x="0" y="0"/>
  <path d="M11.9531 23.9062C18.5508 23.9062 23.9062 18.5508 23.9062 11.9531C23.9062 5.35547 18.5508 0 11.9531 0C5.35547 0 0 5.35547 0 11.9531C0 18.5508 5.35547 23.9062 11.9531 23.9062ZM11.9531 21.9141C6.44531 21.9141 1.99219 17.4609 1.99219 11.9531C1.99219 6.44531 6.44531 1.99219 11.9531 1.99219C17.4609 1.99219 21.9141 6.44531 21.9141 11.9531C21.9141 17.4609 17.4609 21.9141 11.9531 21.9141Z" fill="black" fill-opacity="0.85"/>
  <path d="M10.3711 17.5195C10.7695 17.5195 11.0391 17.332 11.2852 16.875L15.6562 8.68359C15.8789 8.26172 15.9375 8.01562 15.9375 7.76953C15.9375 7.125 15.4219 6.64453 14.6602 6.64453L8.92969 6.64453C8.51953 6.64453 8.23828 6.9375 8.23828 7.35938C8.23828 7.78125 8.53125 8.08594 8.92969 8.08594L13.9102 8.08594L13.9102 8.17969L9.59766 16.0781C9.48047 16.2773 9.43359 16.4414 9.43359 16.6758C9.43359 17.168 9.84375 17.5195 10.3711 17.5195Z" fill="black" fill-opacity="0.85"/>
 </g>
</svg>
