<?xml version="1.0" encoding="UTF-8"?>
<!--Generator: Apple Native CoreSVG 360-->
<!DOCTYPE svg
PUBLIC "-//W3C//DTD SVG 1.1//EN"
       "http://www.w3.org/Graphics/SVG/1.1/DTD/svg11.dtd">
<svg version="1.1" xmlns="http://www.w3.org/2000/svg" xmlns:xlink="http://www.w3.org/1999/xlink" viewBox="0 0 21.9258 17.6836">
 <g>
  <rect height="17.6836" opacity="0" width="21.9258" x="0" y="0"/>
  <path d="M0 16.7344C0 17.25 0.421875 17.6836 0.9375 17.6836C1.46484 17.6836 1.88672 17.25 1.88672 16.7344L1.88672 0.960938C1.88672 0.445312 1.46484 0.0234375 0.9375 0.0234375C0.421875 0.0234375 0 0.445312 0 0.960938ZM19.6875 16.7344C19.6875 17.25 20.1211 17.6836 20.6367 17.6836C21.1523 17.6836 21.5742 17.25 21.5742 16.7344L21.5742 0.960938C21.5742 0.445312 21.1523 0.0234375 20.6367 0.0234375C20.1211 0.0234375 19.6875 0.445312 19.6875 0.960938Z" fill="black" fill-opacity="0.85"/>
  <path d="M9.57422 14.3203C10.0195 14.3203 10.2422 14.1328 10.4062 13.7227L13.6758 6.08203C13.8281 5.73047 13.9453 5.39062 13.9453 5.00391C13.9453 4.35938 13.4766 4.03125 12.9141 4.03125L8.33203 4.03125C7.88672 4.03125 7.59375 4.32422 7.59375 4.76953C7.59375 5.20312 7.88672 5.50781 8.33203 5.50781L12.082 5.50781L12.082 5.60156L8.87109 12.8555C8.77734 13.0898 8.70703 13.2891 8.70703 13.5469C8.70703 14.0039 9.07031 14.3203 9.57422 14.3203Z" fill="black" fill-opacity="0.85"/>
 </g>
</svg>
