<?xml version="1.0" encoding="UTF-8"?>
<!--Generator: Apple Native CoreSVG 360-->
<!DOCTYPE svg
PUBLIC "-//W3C//DTD SVG 1.1//EN"
       "http://www.w3.org/Graphics/SVG/1.1/DTD/svg11.dtd">
<svg version="1.1" xmlns="http://www.w3.org/2000/svg" xmlns:xlink="http://www.w3.org/1999/xlink" viewBox="0 0 21.9258 21.5742">
 <g>
  <rect height="21.5742" opacity="0" width="21.9258" x="0" y="0"/>
  <path d="M3.67969 21.5742L17.8945 21.5742C20.3555 21.5742 21.5742 20.3672 21.5742 17.9531L21.5742 3.63281C21.5742 1.21875 20.3555 0 17.8945 0L3.67969 0C1.23047 0 0 1.21875 0 3.63281L0 17.9531C0 20.3672 1.23047 21.5742 3.67969 21.5742ZM3.70312 19.6875C2.53125 19.6875 1.88672 19.0664 1.88672 17.8477L1.88672 3.73828C1.88672 2.51953 2.53125 1.88672 3.70312 1.88672L17.8711 1.88672C19.0312 1.88672 19.6875 2.51953 19.6875 3.73828L19.6875 17.8477C19.6875 19.0664 19.0312 19.6875 17.8711 19.6875Z" fill="black" fill-opacity="0.85"/>
  <path d="M9.22266 16.3594C9.62109 16.3594 9.90234 16.1719 10.1367 15.7148L14.5078 7.52344C14.7305 7.10156 14.7891 6.85547 14.7891 6.60938C14.7891 5.96484 14.2852 5.48438 13.5117 5.48438L7.79297 5.48438C7.37109 5.48438 7.08984 5.77734 7.08984 6.19922C7.08984 6.62109 7.38281 6.92578 7.79297 6.92578L12.7617 6.92578L12.7617 7.01953L8.44922 14.918C8.33203 15.1172 8.28516 15.2812 8.28516 15.5156C8.28516 16.0078 8.70703 16.3594 9.22266 16.3594Z" fill="black" fill-opacity="0.85"/>
 </g>
</svg>
