<?xml version="1.0" encoding="UTF-8"?>
<!--Generator: Apple Native CoreSVG 360-->
<!DOCTYPE svg
PUBLIC "-//W3C//DTD SVG 1.1//EN"
       "http://www.w3.org/Graphics/SVG/1.1/DTD/svg11.dtd">
<svg version="1.1" xmlns="http://www.w3.org/2000/svg" xmlns:xlink="http://www.w3.org/1999/xlink" viewBox="0 0 24.2578 28.468">
 <g>
  <rect height="28.468" opacity="0" width="24.2578" x="0" y="0"/>
  <path d="M14.2148 0.833612C14.2148-0.0101376 13.6406-0.221075 12.9844 0.235956L9.25781 2.86096C8.71875 3.24767 8.73047 3.81017 9.25781 4.18517L12.9961 6.81017C13.6406 7.25549 14.2148 7.04455 14.2148 6.21252ZM11.9531 26.1813C18.5508 26.1813 23.9062 20.8258 23.9062 14.2281C23.9062 7.63049 18.5625 2.28674 11.9414 2.27502C11.3906 2.28674 10.957 2.73205 10.957 3.25939C10.957 3.81017 11.4023 4.26721 11.9531 4.26721C17.4609 4.26721 21.9141 8.72033 21.9141 14.2281C21.9141 19.736 17.4609 24.1891 11.9531 24.1891C6.44531 24.1891 1.99219 19.736 1.99219 14.2281C1.99219 10.8883 3.63281 7.94689 6.11719 6.16564C6.59766 5.80236 6.75 5.25158 6.45703 4.75939C6.16406 4.29064 5.49609 4.15002 4.98047 4.54846C1.95703 6.72814 0 10.2086 0 14.2281C0 20.8258 5.35547 26.1813 11.9531 26.1813Z" fill="black" fill-opacity="0.85"/>
  <path d="M7.05469 19.0445C7.42969 19.0445 7.62891 18.8688 7.78125 18.5172L10.6523 11.8141C10.7812 11.5094 10.8867 11.2047 10.8867 10.8766C10.8867 10.2906 10.4766 10.0094 9.98438 10.0094L5.96484 10.0094C5.57812 10.0094 5.30859 10.2789 5.30859 10.6656C5.30859 11.0524 5.57812 11.3102 5.96484 11.3102L9.26953 11.3102L9.26953 11.3805L6.43359 17.7555C6.35156 17.9664 6.29297 18.1422 6.29297 18.3649C6.29297 18.775 6.60938 19.0445 7.05469 19.0445ZM15.0586 19.1383C16.8867 19.1383 18.0234 17.7789 18.0234 15.9508C18.0234 14.3805 17.1328 13.0328 15.5977 13.0328C14.8008 13.0328 14.1562 13.3844 13.8281 13.9938L13.7812 13.9938L13.9922 11.3219L16.9805 11.3219C17.3672 11.3219 17.625 11.0641 17.625 10.6656C17.625 10.2672 17.3789 10.0094 16.9805 10.0094L13.582 10.0094C12.9727 10.0094 12.6914 10.3258 12.6445 10.9469L12.3984 14.357C12.3516 14.8727 12.6328 15.2594 13.1484 15.2594C13.5234 15.2594 13.6875 15.1188 13.9219 14.8375C14.2031 14.4625 14.6016 14.2281 15.082 14.2281C15.9844 14.2281 16.4648 15.0602 16.4648 15.986C16.4648 16.9938 15.9492 17.8141 15.0586 17.8141C14.3555 17.8141 13.8867 17.3688 13.6641 16.7594C13.5 16.4313 13.2656 16.2672 12.9609 16.2672C12.5391 16.2672 12.2812 16.525 12.2812 16.9469C12.2812 17.0758 12.3047 17.2164 12.3398 17.357C12.6328 18.4703 13.9336 19.1383 15.0586 19.1383Z" fill="black" fill-opacity="0.85"/>
 </g>
</svg>
