<?xml version="1.0" encoding="UTF-8"?>
<!--Generator: Apple Native CoreSVG 360-->
<!DOCTYPE svg
PUBLIC "-//W3C//DTD SVG 1.1//EN"
       "http://www.w3.org/Graphics/SVG/1.1/DTD/svg11.dtd">
<svg version="1.1" xmlns="http://www.w3.org/2000/svg" xmlns:xlink="http://www.w3.org/1999/xlink" viewBox="0 0 23.707 21.5977">
 <g>
  <rect height="21.5977" opacity="0" width="23.707" x="0" y="0"/>
  <path d="M3.67969 21.5977L19.6875 21.5977C22.1367 21.5977 23.3555 20.3789 23.3555 17.9648L23.3555 3.65625C23.3555 1.24219 22.1367 0.0234375 19.6875 0.0234375L3.67969 0.0234375C1.23047 0.0234375 0 1.23047 0 3.65625L0 17.9648C0 20.3906 1.23047 21.5977 3.67969 21.5977ZM3.50391 19.7109C2.46094 19.7109 1.88672 19.1602 1.88672 18.0703L1.88672 7.01953C1.88672 5.94141 2.46094 5.37891 3.50391 5.37891L19.8398 5.37891C20.8828 5.37891 21.4688 5.94141 21.4688 7.01953L21.4688 18.0703C21.4688 19.1602 20.8828 19.7109 19.8398 19.7109Z" fill="black" fill-opacity="0.85"/>
  <path d="M11.6836 17.6953C13.9805 17.6953 15.5391 16.5117 15.5391 14.7656C15.5391 13.5586 14.6602 12.5625 13.3711 12.3047L13.3711 12.2461C14.4492 11.9414 15.1289 11.0625 15.1289 10.0312C15.1289 8.48438 13.7109 7.40625 11.6953 7.40625C9.69141 7.40625 8.27344 8.48438 8.27344 10.0312C8.27344 11.0625 8.92969 11.9062 10.0312 12.2461L10.0312 12.3047C8.73047 12.5625 7.86328 13.5703 7.86328 14.7773C7.86328 16.5234 9.38672 17.6953 11.6836 17.6953ZM11.707 16.5C10.4297 16.5 9.50391 15.7383 9.50391 14.6836C9.50391 13.6641 10.4414 12.8906 11.707 12.8906C12.9961 12.8906 13.9102 13.6523 13.9102 14.6836C13.9102 15.7383 12.9844 16.5 11.707 16.5ZM11.6953 11.7539C10.6289 11.7539 9.86719 11.0859 9.86719 10.1602C9.86719 9.24609 10.6172 8.60156 11.6953 8.60156C12.7852 8.60156 13.5352 9.24609 13.5352 10.1602C13.5352 11.0859 12.7734 11.7539 11.6953 11.7539Z" fill="black" fill-opacity="0.85"/>
 </g>
</svg>
