<?xml version="1.0" encoding="UTF-8"?>
<!--Generator: Apple Native CoreSVG 360-->
<!DOCTYPE svg
PUBLIC "-//W3C//DTD SVG 1.1//EN"
       "http://www.w3.org/Graphics/SVG/1.1/DTD/svg11.dtd">
<svg version="1.1" xmlns="http://www.w3.org/2000/svg" xmlns:xlink="http://www.w3.org/1999/xlink" viewBox="0 0 24.2578 23.918">
 <g>
  <rect height="23.918" opacity="0" width="24.2578" x="0" y="0"/>
  <path d="M11.9531 23.9062C18.5508 23.9062 23.9062 18.5508 23.9062 11.9531C23.9062 5.35547 18.5508 0 11.9531 0C5.35547 0 0 5.35547 0 11.9531C0 18.5508 5.35547 23.9062 11.9531 23.9062ZM11.9531 21.9141C6.44531 21.9141 1.99219 17.4609 1.99219 11.9531C1.99219 6.44531 6.44531 1.99219 11.9531 1.99219C17.4609 1.99219 21.9141 6.44531 21.9141 11.9531C21.9141 17.4609 17.4609 21.9141 11.9531 21.9141Z" fill="black" fill-opacity="0.85"/>
  <path d="M11.918 17.5312C14.4141 17.5312 16.1133 16.2422 16.1133 14.3555C16.1133 13.0547 15.1523 11.9766 13.7578 11.6953L13.7578 11.625C14.918 11.2852 15.6562 10.3477 15.6562 9.21094C15.6562 7.53516 14.1211 6.375 11.9414 6.375C9.76172 6.375 8.22656 7.53516 8.22656 9.21094C8.22656 10.3477 8.94141 11.2617 10.125 11.625L10.125 11.6953C8.71875 11.9766 7.78125 13.0664 7.78125 14.3672C7.78125 16.2656 9.43359 17.5312 11.918 17.5312ZM11.9531 16.2422C10.5703 16.2422 9.5625 15.4219 9.5625 14.2734C9.5625 13.1602 10.582 12.3281 11.9531 12.3281C13.3477 12.3281 14.3438 13.1484 14.3438 14.2734C14.3438 15.4219 13.3242 16.2422 11.9531 16.2422ZM11.9414 11.0977C10.7812 11.0977 9.94922 10.3711 9.94922 9.36328C9.94922 8.37891 10.7695 7.66406 11.9414 7.66406C13.1133 7.66406 13.9336 8.37891 13.9336 9.36328C13.9336 10.3711 13.1016 11.0977 11.9414 11.0977Z" fill="black" fill-opacity="0.85"/>
 </g>
</svg>
