<?xml version="1.0" encoding="UTF-8"?>
<!--Generator: Apple Native CoreSVG 360-->
<!DOCTYPE svg
PUBLIC "-//W3C//DTD SVG 1.1//EN"
       "http://www.w3.org/Graphics/SVG/1.1/DTD/svg11.dtd">
<svg version="1.1" xmlns="http://www.w3.org/2000/svg" xmlns:xlink="http://www.w3.org/1999/xlink" viewBox="0 0 21.9258 17.6836">
 <g>
  <rect height="17.6836" opacity="0" width="21.9258" x="0" y="0"/>
  <path d="M0 16.7344C0 17.25 0.421875 17.6836 0.9375 17.6836C1.46484 17.6836 1.88672 17.25 1.88672 16.7344L1.88672 0.960938C1.88672 0.445312 1.46484 0.0234375 0.9375 0.0234375C0.421875 0.0234375 0 0.445312 0 0.960938ZM19.6875 16.7344C19.6875 17.25 20.1211 17.6836 20.6367 17.6836C21.1523 17.6836 21.5742 17.25 21.5742 16.7344L21.5742 0.960938C21.5742 0.445312 21.1523 0.0234375 20.6367 0.0234375C20.1211 0.0234375 19.6875 0.445312 19.6875 0.960938Z" fill="black" fill-opacity="0.85"/>
  <path d="M10.7812 14.3906C12.6797 14.3906 14.3672 13.3594 14.3672 11.4258C14.3672 10.0898 13.5 9.08203 12.293 8.82422L12.293 8.80078C13.3125 8.49609 14.0508 7.64062 14.0508 6.53906C14.0508 4.83984 12.6094 3.80859 10.7812 3.80859C9 3.80859 7.51172 4.83984 7.51172 6.52734C7.51172 7.64062 8.26172 8.49609 9.30469 8.80078L9.30469 8.82422C8.10938 9.07031 7.20703 10.0898 7.20703 11.4141C7.20703 13.3125 8.83594 14.3906 10.7812 14.3906ZM10.7812 8.21484C9.91406 8.21484 9.35156 7.57031 9.35156 6.71484C9.35156 5.82422 9.90234 5.17969 10.793 5.17969C11.7305 5.17969 12.2344 5.87109 12.2344 6.71484C12.2344 7.58203 11.6602 8.21484 10.7812 8.21484ZM10.7812 13.0078C9.78516 13.0078 9.14062 12.2578 9.14062 11.2852C9.14062 10.3242 9.78516 9.59766 10.7812 9.59766C11.8008 9.59766 12.4336 10.3008 12.4336 11.2852C12.4336 12.2812 11.7891 13.0078 10.7812 13.0078Z" fill="black" fill-opacity="0.85"/>
 </g>
</svg>
