<?xml version="1.0" encoding="UTF-8"?>
<!--Generator: Apple Native CoreSVG 360-->
<!DOCTYPE svg
PUBLIC "-//W3C//DTD SVG 1.1//EN"
       "http://www.w3.org/Graphics/SVG/1.1/DTD/svg11.dtd">
<svg version="1.1" xmlns="http://www.w3.org/2000/svg" xmlns:xlink="http://www.w3.org/1999/xlink" viewBox="0 0 24.2578 23.918">
 <g>
  <rect height="23.918" opacity="0" width="24.2578" x="0" y="0"/>
  <path d="M11.9531 23.9062C18.5508 23.9062 23.9062 18.5508 23.9062 11.9531C23.9062 5.35547 18.5508 0 11.9531 0C5.35547 0 0 5.35547 0 11.9531C0 18.5508 5.35547 23.9062 11.9531 23.9062ZM11.9531 21.9141C6.44531 21.9141 1.99219 17.4609 1.99219 11.9531C1.99219 6.44531 6.44531 1.99219 11.9531 1.99219C17.4609 1.99219 21.9141 6.44531 21.9141 11.9531C21.9141 17.4609 17.4609 21.9141 11.9531 21.9141Z" fill="black" fill-opacity="0.85"/>
  <path d="M7.875 10.1016C7.875 12.0703 9.36328 13.5 11.4023 13.5C12.1758 13.5 13.0078 13.2188 13.4062 12.8086L13.5469 12.8086C13.4531 12.9844 13.2773 13.2305 13.0195 13.5469C12.375 14.3672 11.6016 15.3047 10.8984 16.1602C10.7109 16.3828 10.6172 16.6055 10.6172 16.8281C10.6172 17.1797 10.9219 17.5195 11.3906 17.5195C11.8477 17.5195 12.0234 17.25 12.3516 16.8281C12.9727 16.0664 13.8516 14.9297 14.4844 14.0977C15.5625 12.6562 16.0781 11.4609 16.0781 10.1953C16.0781 7.92188 14.4023 6.375 11.9766 6.375C9.55078 6.375 7.875 7.91016 7.875 10.1016ZM9.52734 10.0312C9.52734 8.78906 10.582 7.86328 11.9766 7.86328C13.3594 7.86328 14.4141 8.80078 14.4141 10.0312C14.4141 11.2852 13.3711 12.1875 11.9883 12.1875C10.582 12.1875 9.52734 11.2734 9.52734 10.0312Z" fill="black" fill-opacity="0.85"/>
 </g>
</svg>
