<?xml version="1.0" encoding="UTF-8"?>
<!--Generator: Apple Native CoreSVG 360-->
<!DOCTYPE svg
PUBLIC "-//W3C//DTD SVG 1.1//EN"
       "http://www.w3.org/Graphics/SVG/1.1/DTD/svg11.dtd">
<svg version="1.1" xmlns="http://www.w3.org/2000/svg" xmlns:xlink="http://www.w3.org/1999/xlink" viewBox="0 0 23.707 21.5977">
 <g>
  <rect height="21.5977" opacity="0" width="23.707" x="0" y="0"/>
  <path d="M3.67969 21.5977L19.6875 21.5977C22.1367 21.5977 23.3555 20.3789 23.3555 17.9648L23.3555 3.65625C23.3555 1.24219 22.1367 0.0234375 19.6875 0.0234375L3.67969 0.0234375C1.23047 0.0234375 0 1.23047 0 3.65625L0 17.9648C0 20.3906 1.23047 21.5977 3.67969 21.5977ZM3.50391 19.7109C2.46094 19.7109 1.88672 19.1602 1.88672 18.0703L1.88672 7.01953C1.88672 5.94141 2.46094 5.37891 3.50391 5.37891L19.8398 5.37891C20.8828 5.37891 21.4688 5.94141 21.4688 7.01953L21.4688 18.0703C21.4688 19.1602 20.8828 19.7109 19.8398 19.7109Z" fill="black" fill-opacity="0.85"/>
  <path d="M11.4258 17.6953C14.0391 17.6953 15.457 15.8203 15.457 12.1992C15.457 9.09375 14.0508 7.40625 11.625 7.40625C9.38672 7.40625 7.94531 8.75391 7.94531 10.8516C7.94531 12.8789 9.49219 14.0391 11.1797 14.0391C12.6094 14.0391 13.4648 13.3242 13.8047 12.5273L13.8984 12.5273C13.9102 14.8945 12.9141 16.3125 11.4141 16.3125C10.6758 16.3125 10.1719 16.0078 9.71484 15.3984C9.53906 15.1523 9.32812 14.9648 8.98828 14.9648C8.56641 14.9648 8.27344 15.2578 8.27344 15.668C8.27344 15.7969 8.29688 15.9141 8.34375 16.043C8.58984 16.7812 9.60938 17.6953 11.4258 17.6953ZM11.6836 12.8203C10.4648 12.8203 9.62109 11.9648 9.62109 10.7812C9.62109 9.52734 10.4414 8.69531 11.6953 8.69531C12.8789 8.69531 13.7578 9.57422 13.7578 10.793C13.7578 11.9648 12.8906 12.8203 11.6836 12.8203Z" fill="black" fill-opacity="0.85"/>
 </g>
</svg>
