<?xml version="1.0" encoding="UTF-8"?>
<!--Generator: Apple Native CoreSVG 360-->
<!DOCTYPE svg
PUBLIC "-//W3C//DTD SVG 1.1//EN"
       "http://www.w3.org/Graphics/SVG/1.1/DTD/svg11.dtd">
<svg version="1.1" xmlns="http://www.w3.org/2000/svg" xmlns:xlink="http://www.w3.org/1999/xlink" viewBox="0 0 24.2578 23.918">
 <g>
  <rect height="23.918" opacity="0" width="24.2578" x="0" y="0"/>
  <path d="M11.9531 23.9062C18.5508 23.9062 23.9062 18.5508 23.9062 11.9531C23.9062 5.35547 18.5508 0 11.9531 0C5.35547 0 0 5.35547 0 11.9531C0 18.5508 5.35547 23.9062 11.9531 23.9062ZM11.9531 21.9141C6.44531 21.9141 1.99219 17.4609 1.99219 11.9531C1.99219 6.44531 6.44531 1.99219 11.9531 1.99219C17.4609 1.99219 21.9141 6.44531 21.9141 11.9531C21.9141 17.4609 17.4609 21.9141 11.9531 21.9141Z" fill="black" fill-opacity="0.85"/>
  <path d="M11.6484 17.5312C14.4844 17.5312 16.0195 15.5039 16.0195 11.5781C16.0195 8.20312 14.4961 6.375 11.8594 6.375C9.44531 6.375 7.875 7.83984 7.875 10.1133C7.875 12.3164 9.55078 13.5703 11.3789 13.5703C12.9375 13.5703 13.8633 12.7969 14.2383 11.9297L14.3203 11.9297C14.3438 14.5078 13.2539 16.043 11.6367 16.043C10.8281 16.043 10.2773 15.7031 9.79688 15.0469C9.59766 14.7773 9.375 14.5781 9 14.5781C8.54297 14.5781 8.22656 14.8828 8.22656 15.3398C8.22656 15.4688 8.25 15.5977 8.29688 15.7383C8.57812 16.5469 9.67969 17.5312 11.6484 17.5312ZM11.9297 12.2461C10.6055 12.2461 9.69141 11.3203 9.69141 10.0312C9.69141 8.67188 10.582 7.76953 11.9414 7.76953C13.2188 7.76953 14.1797 8.73047 14.1797 10.0547C14.1797 11.3203 13.2422 12.2461 11.9297 12.2461Z" fill="black" fill-opacity="0.85"/>
 </g>
</svg>
