<?xml version="1.0" encoding="UTF-8"?>
<!--Generator: Apple Native CoreSVG 360-->
<!DOCTYPE svg
PUBLIC "-//W3C//DTD SVG 1.1//EN"
       "http://www.w3.org/Graphics/SVG/1.1/DTD/svg11.dtd">
<svg version="1.1" xmlns="http://www.w3.org/2000/svg" xmlns:xlink="http://www.w3.org/1999/xlink" viewBox="0 0 21.9258 17.6836">
 <g>
  <rect height="17.6836" opacity="0" width="21.9258" x="0" y="0"/>
  <path d="M0 16.7344C0 17.25 0.421875 17.6836 0.9375 17.6836C1.46484 17.6836 1.88672 17.25 1.88672 16.7344L1.88672 0.960938C1.88672 0.445312 1.46484 0.0234375 0.9375 0.0234375C0.421875 0.0234375 0 0.445312 0 0.960938ZM19.6875 16.7344C19.6875 17.25 20.1211 17.6836 20.6367 17.6836C21.1523 17.6836 21.5742 17.25 21.5742 16.7344L21.5742 0.960938C21.5742 0.445312 21.1523 0.0234375 20.6367 0.0234375C20.1211 0.0234375 19.6875 0.445312 19.6875 0.960938Z" fill="black" fill-opacity="0.85"/>
  <path d="M10.582 14.4023C13.3945 14.4023 14.2852 11.6836 14.2852 8.96484C14.2852 6.29297 13.2422 3.76172 10.6406 3.76172C8.64844 3.76172 7.28906 5.26172 7.28906 7.34766C7.28906 9.14062 8.36719 10.6641 10.125 10.6641C11.3555 10.6641 12.1875 9.89062 12.4922 8.89453L12.5156 8.89453C12.5156 8.94141 12.5156 8.97656 12.5156 9.02344C12.5273 10.6641 12.2109 12.9023 10.6523 12.9023C9.94922 12.9023 9.52734 12.5391 9.22266 11.9648C9.01172 11.6016 8.77734 11.4141 8.36719 11.4141C7.875 11.4141 7.60547 11.7539 7.60547 12.1875C7.60547 12.5742 7.86328 13.043 8.16797 13.3594C8.73047 14.0156 9.59766 14.4023 10.582 14.4023ZM10.6523 9.25781C9.62109 9.25781 9.08203 8.28516 9.08203 7.27734C9.08203 6.24609 9.64453 5.26172 10.6641 5.26172C11.6719 5.26172 12.2578 6.28125 12.2578 7.3125C12.2578 8.34375 11.6484 9.25781 10.6523 9.25781Z" fill="black" fill-opacity="0.85"/>
 </g>
</svg>
