<?xml version="1.0" encoding="UTF-8"?>
<!--Generator: Apple Native CoreSVG 360-->
<!DOCTYPE svg
PUBLIC "-//W3C//DTD SVG 1.1//EN"
       "http://www.w3.org/Graphics/SVG/1.1/DTD/svg11.dtd">
<svg version="1.1" xmlns="http://www.w3.org/2000/svg" xmlns:xlink="http://www.w3.org/1999/xlink" viewBox="0 0 21.9258 21.5742">
 <g>
  <rect height="21.5742" opacity="0" width="21.9258" x="0" y="0"/>
  <path d="M3.67969 21.5742L17.8945 21.5742C20.3555 21.5742 21.5742 20.3672 21.5742 17.9531L21.5742 3.63281C21.5742 1.21875 20.3555 0 17.8945 0L3.67969 0C1.23047 0 0 1.21875 0 3.63281L0 17.9531C0 20.3672 1.23047 21.5742 3.67969 21.5742ZM3.70312 19.6875C2.53125 19.6875 1.88672 19.0664 1.88672 17.8477L1.88672 3.73828C1.88672 2.51953 2.53125 1.88672 3.70312 1.88672L17.8711 1.88672C19.0312 1.88672 19.6875 2.51953 19.6875 3.73828L19.6875 17.8477C19.6875 19.0664 19.0312 19.6875 17.8711 19.6875Z" fill="black" fill-opacity="0.85"/>
  <path d="M10.5117 16.3711C13.3359 16.3711 14.8828 14.3438 14.8828 10.418C14.8828 7.04297 13.3477 5.21484 10.7109 5.21484C8.29688 5.21484 6.72656 6.67969 6.72656 8.95312C6.72656 11.1562 8.40234 12.4102 10.2305 12.4102C11.7891 12.4102 12.7148 11.6367 13.0898 10.7695L13.1836 10.7695C13.207 13.3477 12.1055 14.8828 10.4883 14.8828C9.67969 14.8828 9.14062 14.543 8.64844 13.8867C8.44922 13.6172 8.22656 13.418 7.85156 13.418C7.39453 13.418 7.07812 13.7227 7.07812 14.1797C7.07812 14.3086 7.10156 14.4375 7.14844 14.5781C7.42969 15.3867 8.53125 16.3711 10.5117 16.3711ZM10.7812 11.0859C9.45703 11.0859 8.54297 10.1602 8.54297 8.87109C8.54297 7.51172 9.43359 6.60938 10.793 6.60938C12.0703 6.60938 13.0312 7.57031 13.0312 8.89453C13.0312 10.1602 12.0938 11.0859 10.7812 11.0859Z" fill="black" fill-opacity="0.85"/>
 </g>
</svg>
