<?xml version="1.0" encoding="UTF-8"?>
<!--Generator: Apple Native CoreSVG 360-->
<!DOCTYPE svg
PUBLIC "-//W3C//DTD SVG 1.1//EN"
       "http://www.w3.org/Graphics/SVG/1.1/DTD/svg11.dtd">
<svg version="1.1" xmlns="http://www.w3.org/2000/svg" xmlns:xlink="http://www.w3.org/1999/xlink" viewBox="0 0 24.2578 28.468">
 <g>
  <rect height="28.468" opacity="0" width="24.2578" x="0" y="0"/>
  <path d="M14.2148 0.833612C14.2148-0.0101376 13.6406-0.221075 12.9844 0.235956L9.25781 2.86096C8.71875 3.24767 8.73047 3.81017 9.25781 4.18517L12.9961 6.81017C13.6406 7.25549 14.2148 7.04455 14.2148 6.21252ZM11.9531 26.1813C18.5508 26.1813 23.9062 20.8258 23.9062 14.2281C23.9062 7.63049 18.5625 2.28674 11.9414 2.27502C11.3906 2.28674 10.957 2.73205 10.957 3.25939C10.957 3.81017 11.4023 4.26721 11.9531 4.26721C17.4609 4.26721 21.9141 8.72033 21.9141 14.2281C21.9141 19.736 17.4609 24.1891 11.9531 24.1891C6.44531 24.1891 1.99219 19.736 1.99219 14.2281C1.99219 10.8883 3.63281 7.94689 6.11719 6.16564C6.59766 5.80236 6.75 5.25158 6.45703 4.75939C6.16406 4.29064 5.49609 4.15002 4.98047 4.54846C1.95703 6.72814 0 10.2086 0 14.2281C0 20.8258 5.35547 26.1813 11.9531 26.1813Z" fill="black" fill-opacity="0.85"/>
  <path d="M8.13281 19.1149C10.6055 19.1149 11.3789 16.7242 11.3789 14.3453C11.3789 12.0016 10.4648 9.77502 8.17969 9.77502C6.44531 9.77502 5.23828 11.0992 5.23828 12.9156C5.23828 14.4977 6.1875 15.8336 7.73438 15.8336C8.8125 15.8336 9.5625 15.1656 9.82031 14.2867L9.83203 14.2867C9.83203 14.3102 9.83203 14.357 9.83203 14.3922C9.84375 15.8336 9.5625 17.8024 8.19141 17.8024C7.58203 17.8024 7.21875 17.486 6.9375 16.982C6.76172 16.6539 6.5625 16.4899 6.19922 16.4899C5.75391 16.4899 5.51953 16.7945 5.51953 17.1695C5.51953 17.5211 5.74219 17.9195 6.02344 18.2008C6.50391 18.775 7.27734 19.1149 8.13281 19.1149ZM8.19141 14.5914C7.30078 14.5914 6.82031 13.7477 6.82031 12.857C6.82031 11.9664 7.3125 11.0992 8.21484 11.0992C9.09375 11.0992 9.62109 11.9781 9.62109 12.8922C9.62109 13.8063 9.07031 14.5914 8.19141 14.5914ZM15.9023 19.1149C18.2109 19.1149 19.0195 16.7477 19.0195 14.4391C19.0195 12.1305 18.2109 9.77502 15.9023 9.77502C13.5938 9.77502 12.7852 12.1422 12.7852 14.4391C12.7852 16.7711 13.6055 19.1149 15.9023 19.1149ZM15.9023 17.7906C14.9297 17.7906 14.4258 16.3492 14.4258 14.4391C14.4258 12.5406 14.9297 11.111 15.9023 11.111C16.875 11.111 17.3789 12.5406 17.3789 14.4391C17.3789 16.3492 16.8867 17.7906 15.9023 17.7906Z" fill="black" fill-opacity="0.85"/>
 </g>
</svg>
