<?xml version="1.0" encoding="UTF-8"?>
<!--Generator: Apple Native CoreSVG 360-->
<!DOCTYPE svg
PUBLIC "-//W3C//DTD SVG 1.1//EN"
       "http://www.w3.org/Graphics/SVG/1.1/DTD/svg11.dtd">
<svg version="1.1" xmlns="http://www.w3.org/2000/svg" xmlns:xlink="http://www.w3.org/1999/xlink" viewBox="0 0 24.2578 23.918">
 <g>
  <rect height="23.918" opacity="0" width="24.2578" x="0" y="0"/>
  <path d="M11.9531 23.9062C18.5508 23.9062 23.9062 18.5508 23.9062 11.9531C23.9062 5.35547 18.5508 0 11.9531 0C5.35547 0 0 5.35547 0 11.9531C0 18.5508 5.35547 23.9062 11.9531 23.9062ZM11.9531 21.9141C6.44531 21.9141 1.99219 17.4609 1.99219 11.9531C1.99219 6.44531 6.44531 1.99219 11.9531 1.99219C17.4609 1.99219 21.9141 6.44531 21.9141 11.9531C21.9141 17.4609 17.4609 21.9141 11.9531 21.9141Z" fill="black" fill-opacity="0.85"/>
  <path d="M8.08594 17.4727C8.50781 17.4727 8.8125 17.2734 8.98828 16.7227L9.84375 14.2266L14.0391 14.2266L14.8945 16.7227C15.0703 17.2617 15.3633 17.4727 15.7969 17.4727C16.3125 17.4727 16.6641 17.1328 16.6641 16.6641C16.6641 16.4766 16.6172 16.3125 16.5352 16.0547L13.2422 7.20703C13.0195 6.59766 12.5742 6.28125 11.9297 6.28125C11.2969 6.28125 10.8633 6.59766 10.6289 7.20703L7.34766 16.0547C7.25391 16.3125 7.21875 16.4766 7.21875 16.6523C7.21875 17.1445 7.55859 17.4727 8.08594 17.4727ZM10.3125 12.8203L11.8711 8.28516L12 8.28516L13.5586 12.8203Z" fill="black" fill-opacity="0.85"/>
 </g>
</svg>
