<?xml version="1.0" encoding="UTF-8"?>
<!--Generator: Apple Native CoreSVG 360-->
<!DOCTYPE svg
PUBLIC "-//W3C//DTD SVG 1.1//EN"
       "http://www.w3.org/Graphics/SVG/1.1/DTD/svg11.dtd">
<svg version="1.1" xmlns="http://www.w3.org/2000/svg" xmlns:xlink="http://www.w3.org/1999/xlink" viewBox="0 0 33.7969 22.8633">
 <g>
  <rect height="22.8633" opacity="0" width="33.7969" x="0" y="0"/>
  <path d="M0 11.4258C0 15.1406 1.20703 18.5508 3.24609 21.3281C3.60938 21.832 4.23047 21.8789 4.69922 21.5039C5.12109 21.1406 5.17969 20.5781 4.83984 20.1094C3.05859 17.6836 2.00391 14.6719 2.00391 11.4258C2.00391 8.16797 3.05859 5.16797 4.83984 2.71875C5.17969 2.27344 5.13281 1.69922 4.69922 1.33594C4.23047 0.960938 3.60938 1.01953 3.24609 1.51172C1.20703 4.28906 0 7.71094 0 11.4258ZM33.4453 11.4258C33.4453 7.71094 32.25 4.28906 30.1992 1.51172C29.8359 1.01953 29.2148 0.960938 28.7461 1.33594C28.3125 1.69922 28.2773 2.27344 28.6055 2.71875C30.3984 5.16797 31.4414 8.16797 31.4414 11.4258C31.4414 14.6719 30.3984 17.6836 28.6055 20.1094C28.2773 20.5781 28.3242 21.1406 28.7461 21.5039C29.2148 21.8789 29.8359 21.832 30.1992 21.3281C32.25 18.5508 33.4453 15.1406 33.4453 11.4258Z" fill="black" fill-opacity="0.85"/>
  <path d="M16.7227 22.8516C23.0391 22.8516 28.1602 17.7305 28.1602 11.4258C28.1602 5.10938 23.0391 0 16.7227 0C10.418 0 5.29688 5.10938 5.29688 11.4258C5.29688 17.7305 10.418 22.8516 16.7227 22.8516ZM16.7227 20.8594C11.5195 20.8594 7.28906 16.6289 7.28906 11.4258C7.28906 6.21094 11.5195 1.98047 16.7227 1.98047C21.9375 1.98047 26.168 6.21094 26.168 11.4258C26.168 16.6289 21.9375 20.8594 16.7227 20.8594Z" fill="black" fill-opacity="0.85"/>
  <path d="M9.77344 15.2461C10.1602 15.2461 10.3711 15.0117 10.4297 14.6367L10.6758 13.4531L12.4219 13.4531L12.668 14.6484C12.7617 15.082 12.9961 15.2461 13.3477 15.2461C13.6992 15.2461 13.9688 14.9648 13.9688 14.6133C13.9688 14.543 13.9336 14.2852 13.9102 14.1797L12.5742 8.44922C12.4453 7.875 12.1055 7.59375 11.5312 7.59375C10.9922 7.59375 10.6641 7.86328 10.5234 8.44922L9.21094 14.1797C9.17578 14.332 9.14062 14.4727 9.14062 14.6133C9.14062 15.0469 9.43359 15.2461 9.77344 15.2461ZM10.8633 12.4336L11.5078 9.17578L11.5547 9.17578L12.2227 12.4336ZM15.6094 15.1289L17.3672 15.1289C18.6211 15.1289 19.2422 14.1797 19.2422 13.0312C19.2422 12.1875 18.7383 11.2852 17.9414 11.2266L17.9414 11.1797C18.6914 11.0039 19.0312 10.2188 19.0312 9.55078C19.0312 8.44922 18.4219 7.71094 17.3203 7.71094L15.6094 7.71094C15.2227 7.71094 14.9531 7.92188 14.9531 8.41406L14.9531 14.4258C14.9531 14.8711 15.1758 15.1289 15.6094 15.1289ZM16.2773 14.1094L16.2773 11.7656L16.9102 11.7656C17.5898 11.7656 17.9062 12.2461 17.9062 12.9258C17.9062 13.6055 17.6367 14.1094 16.9336 14.1094ZM16.2773 10.8516L16.2773 8.73047L16.9219 8.73047C17.543 8.73047 17.7656 9.14062 17.7656 9.75C17.7656 10.4062 17.4844 10.8516 16.8398 10.8516ZM22.1484 15.293C23.5195 15.293 24.2578 14.4141 24.2578 13.1133C24.2578 11.918 23.625 11.3789 22.7695 10.957L22.3477 10.7578C21.7969 10.4766 21.4219 10.1719 21.4219 9.53906C21.4219 9.04688 21.6562 8.63672 22.125 8.63672C22.6172 8.63672 22.8164 9.03516 22.9336 9.51562C23.0039 9.78516 23.25 9.94922 23.5547 9.94922C23.8945 9.94922 24.1055 9.71484 24.1055 9.39844C24.1055 9.24609 24.0703 9.08203 24.0117 8.91797C23.7422 8.09766 23.0742 7.52344 22.125 7.52344C21.0234 7.52344 20.1211 8.27344 20.1211 9.65625C20.1211 10.8281 20.8008 11.3906 21.5859 11.8008L21.9961 12C22.582 12.3047 22.9453 12.5859 22.9453 13.2422C22.9453 13.793 22.6641 14.2031 22.1602 14.2031C21.6562 14.2031 21.4219 13.8281 21.3047 13.3242C21.2109 13.0078 21.0117 12.8438 20.6836 12.8438C20.3203 12.8438 20.1094 13.1016 20.1094 13.4531C20.1094 13.5703 20.1328 13.6992 20.1562 13.8164C20.4023 14.7305 21.1055 15.293 22.1484 15.293Z" fill="black" fill-opacity="0.85"/>
 </g>
</svg>
