<?xml version="1.0" encoding="UTF-8"?>
<!--Generator: Apple Native CoreSVG 360-->
<!DOCTYPE svg
PUBLIC "-//W3C//DTD SVG 1.1//EN"
       "http://www.w3.org/Graphics/SVG/1.1/DTD/svg11.dtd">
<svg version="1.1" xmlns="http://www.w3.org/2000/svg" xmlns:xlink="http://www.w3.org/1999/xlink" viewBox="0 0 24.2578 23.918">
 <g>
  <rect height="23.918" opacity="0" width="24.2578" x="0" y="0"/>
  <path d="M11.9531 23.9062C18.5508 23.9062 23.9062 18.5508 23.9062 11.9531C23.9062 5.35547 18.5508 0 11.9531 0C5.35547 0 0 5.35547 0 11.9531C0 18.5508 5.35547 23.9062 11.9531 23.9062ZM11.9531 21.9141C6.44531 21.9141 1.99219 17.4609 1.99219 11.9531C1.99219 6.44531 6.44531 1.99219 11.9531 1.99219C17.4609 1.99219 21.9141 6.44531 21.9141 11.9531C21.9141 17.4609 17.4609 21.9141 11.9531 21.9141Z" fill="black" fill-opacity="0.85"/>
  <path d="M11.9414 7.99219C10.2773 7.99219 7.91016 7.71094 6.77344 7.53516C6.66797 7.52344 6.57422 7.48828 6.45703 7.48828C6.16406 7.48828 5.85938 7.73438 5.85938 8.15625C5.85938 8.47266 6.05859 8.74219 6.35156 8.82422C6.73828 8.94141 9.39844 9.24609 9.73828 9.30469C10.0664 9.375 10.2656 9.65625 10.2773 10.0547C10.2891 10.6641 10.2773 12.6094 10.125 13.5C9.98438 14.3789 8.96484 18.6094 8.91797 18.7969C8.78906 19.2539 9.07031 19.6523 9.52734 19.6523C9.85547 19.6523 10.0781 19.4766 10.207 19.0312C10.4062 18.1758 11.1445 15.2461 11.3789 14.543C11.5195 14.0273 11.6484 13.8516 11.9414 13.8516C12.2227 13.8516 12.3516 14.0273 12.5156 14.543C12.7148 15.2461 13.4766 18.1758 13.6758 19.0312C13.793 19.4766 14.0273 19.6523 14.3555 19.6523C14.8125 19.6523 15.082 19.2539 14.9531 18.7969C14.918 18.6094 13.8867 14.3789 13.7461 13.5C13.6172 12.6094 13.6172 10.6641 13.6172 10.0547C13.6172 9.65625 13.8047 9.375 14.1445 9.30469C14.4727 9.24609 17.1445 8.94141 17.5195 8.82422C17.8242 8.74219 18.0234 8.47266 18.0234 8.15625C18.0234 7.73438 17.707 7.48828 17.4141 7.48828C17.3086 7.48828 17.2031 7.52344 17.0977 7.53516C15.9727 7.71094 13.6172 7.99219 11.9414 7.99219ZM11.9414 7.21875C12.7852 7.21875 13.4648 6.52734 13.4648 5.69531C13.4648 4.85156 12.7852 4.17188 11.9414 4.17188C11.0977 4.17188 10.418 4.85156 10.418 5.69531C10.418 6.52734 11.0977 7.21875 11.9414 7.21875Z" fill="black" fill-opacity="0.85"/>
 </g>
</svg>
