<?xml version="1.0" encoding="UTF-8"?>
<!--Generator: Apple Native CoreSVG 360-->
<!DOCTYPE svg
PUBLIC "-//W3C//DTD SVG 1.1//EN"
       "http://www.w3.org/Graphics/SVG/1.1/DTD/svg11.dtd">
<svg version="1.1" xmlns="http://www.w3.org/2000/svg" xmlns:xlink="http://www.w3.org/1999/xlink" viewBox="0 0 28.5117 27.7852">
 <g>
  <rect height="27.7852" opacity="0" width="28.5117" x="0" y="0"/>
  <path d="M15.4922 17.2148C15.4922 20.3438 18.0352 21.9727 18.0352 24.7031C18.0352 25.3359 17.9062 25.8633 17.5312 26.5312C17.2969 26.9531 17.4609 27.3281 17.7305 27.5273C18.0703 27.75 18.5859 27.7383 18.8789 27.2109C19.3359 26.4375 19.5586 25.5938 19.5586 24.7031C19.5586 21.5156 17.0039 19.8984 17.0039 17.2148C17.0039 16.582 17.1445 16.0547 17.5312 15.3633C17.7539 14.9648 17.6016 14.5781 17.2969 14.3789C16.9688 14.1797 16.4531 14.1914 16.1719 14.6836C15.6914 15.457 15.4922 16.3242 15.4922 17.2148ZM12.0469 17.2266C12.0469 20.3438 14.5898 21.9844 14.5898 24.7031C14.5898 25.3477 14.4609 25.875 14.0742 26.543C13.8516 26.9531 14.0156 27.3398 14.2852 27.5391C14.625 27.75 15.1406 27.75 15.4336 27.2344C15.8906 26.4492 16.1133 25.5938 16.1133 24.7031C16.1133 21.5273 13.5586 19.9102 13.5586 17.2266C13.5586 16.582 13.6992 16.0547 14.0742 15.375C14.3086 14.9766 14.1562 14.5781 13.8516 14.3789C13.5234 14.1797 12.9961 14.1914 12.7266 14.6953C12.2461 15.4688 12.0469 16.3359 12.0469 17.2266ZM8.60156 17.2148C8.60156 20.3438 11.1445 21.9727 11.1445 24.7031C11.1445 25.3359 11.0156 25.8633 10.6289 26.5312C10.3945 26.9531 10.5703 27.3281 10.8398 27.5273C11.1797 27.75 11.6953 27.7383 11.9883 27.2109C12.4453 26.4375 12.668 25.5938 12.668 24.7031C12.668 21.5156 10.1133 19.8984 10.1133 17.2148C10.1133 16.582 10.2539 16.0547 10.6289 15.3633C10.8633 14.9648 10.6992 14.5781 10.4062 14.3789C10.0781 14.1797 9.55078 14.1914 9.26953 14.6836C8.80078 15.457 8.60156 16.3242 8.60156 17.2148ZM19.1367 17.7539C19.1367 18.0117 19.3594 18.1992 19.6289 18.1758L20.6016 18.1172L20.0508 18.9258C19.9219 19.125 19.9688 19.4297 20.1914 19.5703C20.4141 19.7227 20.7188 19.6172 20.8242 19.3594L21.2578 18.4805L21.7031 19.3828C21.8203 19.6055 22.1016 19.7109 22.3359 19.582C22.5469 19.4648 22.6172 19.1367 22.4648 18.9141L21.9141 18.1172L22.8867 18.1875C23.1445 18.2109 23.3789 18.0234 23.3789 17.7539C23.3789 17.4727 23.168 17.2852 22.8984 17.3086L21.9023 17.3672L22.4648 16.5469C22.6055 16.3242 22.5703 16.043 22.3359 15.9141C22.1016 15.7852 21.8203 15.8672 21.7031 16.1016L21.2578 16.9805L20.8359 16.1133C20.7305 15.8672 20.4375 15.7617 20.1914 15.9023C19.9688 16.0195 19.9102 16.3242 20.0508 16.5469L20.6016 17.3672L19.6289 17.3203C19.3477 17.3086 19.1367 17.4844 19.1367 17.7539ZM4.875 24.1523C4.875 24.4219 5.08594 24.6211 5.35547 24.5977L6.33984 24.5391L5.77734 25.3594C5.63672 25.5703 5.68359 25.8633 5.90625 25.9805C6.15234 26.1211 6.43359 26.0273 6.53906 25.793L6.98438 24.9141L7.42969 25.7812C7.52344 26.0391 7.81641 26.1328 8.0625 26.0039C8.28516 25.8867 8.34375 25.5703 8.20312 25.3594L7.65234 24.5391L8.625 24.5859C8.89453 24.5977 9.10547 24.4102 9.10547 24.1523C9.10547 23.8945 8.88281 23.707 8.625 23.7305L7.64062 23.7891L8.19141 22.9805C8.32031 22.7812 8.27344 22.4766 8.0625 22.3359C7.83984 22.1836 7.52344 22.2891 7.41797 22.5469L6.98438 23.4141L6.53906 22.5234C6.42188 22.3008 6.15234 22.1953 5.90625 22.3242C5.69531 22.4414 5.625 22.7695 5.77734 22.9922L6.32812 23.7891L5.36719 23.7188C5.10938 23.6953 4.875 23.8828 4.875 24.1523Z" fill="black" fill-opacity="0.85"/>
  <path d="M0 2.66016L0 9.92578C0 11.543 1.03125 12.5859 2.61328 12.5859L25.5469 12.5859C27.1289 12.5859 28.1602 11.543 28.1602 9.92578L28.1602 2.66016C28.1602 1.04297 27.1289 0 25.5469 0L2.61328 0C1.03125 0 0 1.04297 0 2.66016ZM1.88672 2.69531C1.88672 2.19141 2.20312 1.88672 2.71875 1.88672L25.4414 1.88672C25.957 1.88672 26.2734 2.19141 26.2734 2.69531L26.2734 9.89062C26.2734 10.3945 25.957 10.6992 25.4414 10.6992L2.71875 10.6992C2.20312 10.6992 1.88672 10.3945 1.88672 9.89062ZM18.8672 8.92969C18.8672 9.25781 19.1367 9.51562 19.4648 9.51562L24.0938 9.51562C24.4219 9.51562 24.6914 9.25781 24.6914 8.92969C24.6914 8.58984 24.4219 8.33203 24.0938 8.33203L19.4648 8.33203C19.1367 8.33203 18.8672 8.58984 18.8672 8.92969ZM18.8672 6.51562C18.8672 6.83203 19.1367 7.10156 19.4648 7.10156L24.0938 7.10156C24.4219 7.10156 24.6914 6.83203 24.6914 6.51562C24.6914 6.17578 24.4219 5.90625 24.0938 5.90625L19.4648 5.90625C19.1367 5.90625 18.8672 6.17578 18.8672 6.51562ZM11.2148 8.92969C11.2148 9.25781 11.4727 9.51562 11.8125 9.51562L16.4414 9.51562C16.7578 9.51562 17.0273 9.25781 17.0273 8.92969C17.0273 8.58984 16.7578 8.33203 16.4414 8.33203L11.8125 8.33203C11.4727 8.33203 11.2148 8.58984 11.2148 8.92969ZM11.2148 6.51562C11.2148 6.83203 11.4727 7.10156 11.8125 7.10156L16.4414 7.10156C16.7578 7.10156 17.0273 6.83203 17.0273 6.51562C17.0273 6.17578 16.7578 5.90625 16.4414 5.90625L11.8125 5.90625C11.4727 5.90625 11.2148 6.17578 11.2148 6.51562ZM3.53906 8.92969C3.53906 9.25781 3.80859 9.51562 4.125 9.51562L8.75391 9.51562C9.09375 9.51562 9.35156 9.25781 9.35156 8.92969C9.35156 8.58984 9.09375 8.33203 8.75391 8.33203L4.125 8.33203C3.80859 8.33203 3.53906 8.58984 3.53906 8.92969ZM3.53906 6.51562C3.53906 6.83203 3.80859 7.10156 4.125 7.10156L8.75391 7.10156C9.09375 7.10156 9.35156 6.83203 9.35156 6.51562C9.35156 6.17578 9.09375 5.90625 8.75391 5.90625L4.125 5.90625C3.80859 5.90625 3.53906 6.17578 3.53906 6.51562Z" fill="black" fill-opacity="0.85"/>
 </g>
</svg>
