<?xml version="1.0" encoding="UTF-8"?>
<!--Generator: Apple Native CoreSVG 360-->
<!DOCTYPE svg
PUBLIC "-//W3C//DTD SVG 1.1//EN"
       "http://www.w3.org/Graphics/SVG/1.1/DTD/svg11.dtd">
<svg version="1.1" xmlns="http://www.w3.org/2000/svg" xmlns:xlink="http://www.w3.org/1999/xlink" viewBox="0 0 27.7234 27.5742">
 <g>
  <rect height="27.5742" opacity="0" width="27.7234" x="0" y="0"/>
  <path d="M22.4894 2.52775C21.8474 2.77793 21.2616 3.10656 20.6887 3.42827C20.6035 2.4222 19.9646 1.88672 18.9418 1.88672L8.43005 1.88672C7.32849 1.88672 6.67224 2.50781 6.67224 3.66797L6.67224 21.8203C6.67224 22.9688 7.32849 23.6016 8.43005 23.6016L18.9418 23.6016C20.0433 23.6016 20.6996 22.9688 20.6996 21.8203L20.6996 11.6023C21.3385 11.2584 21.9489 10.8885 22.5863 10.6021L22.5863 21.9141C22.5863 23.8514 21.7618 25.0198 20.1371 25.3716L20.1371 26.6016C20.1371 27.1641 19.7621 27.5508 19.1879 27.5508C18.6254 27.5508 18.2504 27.1641 18.2504 26.6016L18.2504 25.4883L9.12146 25.4883L9.12146 26.6016C9.12146 27.1641 8.74646 27.5508 8.18396 27.5508C7.62146 27.5508 7.23474 27.1641 7.23474 26.6016L7.23474 25.3696C5.61436 25.0148 4.78552 23.8473 4.78552 21.9141L4.78552 3.5625C4.78552 1.19531 6.03943 0 8.40661 0L18.9769 0C20.9685 0 22.1638 0.846094 22.4894 2.52775ZM12.9535 21.1992C12.9535 21.6094 12.6254 21.9375 12.2035 21.9375L8.79333 21.9375C8.38318 21.9375 8.05505 21.6094 8.05505 21.1992C8.05505 20.7773 8.38318 20.4492 8.79333 20.4492L12.2035 20.4492C12.6254 20.4492 12.9535 20.7773 12.9535 21.1992ZM19.3168 21.1992C19.3168 21.6094 18.9886 21.9375 18.5785 21.9375L15.1683 21.9375C14.7465 21.9375 14.4183 21.6094 14.4183 21.1992C14.4183 20.7773 14.7465 20.4492 15.1683 20.4492L18.5785 20.4492C18.9886 20.4492 19.3168 20.7773 19.3168 21.1992ZM12.9535 18.2695C12.9535 18.6914 12.6254 19.0078 12.2035 19.0078L8.79333 19.0078C8.38318 19.0078 8.05505 18.6914 8.05505 18.2695C8.05505 17.8477 8.38318 17.5312 8.79333 17.5312L12.2035 17.5312C12.6254 17.5312 12.9535 17.8477 12.9535 18.2695ZM19.3168 18.2695C19.3168 18.6914 18.9886 19.0078 18.5785 19.0078L15.1683 19.0078C14.7465 19.0078 14.4183 18.6914 14.4183 18.2695C14.4183 17.8477 14.7465 17.5312 15.1683 17.5312L18.5785 17.5312C18.9886 17.5312 19.3168 17.8477 19.3168 18.2695ZM12.9535 15.3398C12.9535 15.7617 12.6254 16.0781 12.2035 16.0781L8.79333 16.0781C8.38318 16.0781 8.05505 15.7617 8.05505 15.3398C8.05505 14.9297 8.38318 14.6016 8.79333 14.6016L12.2035 14.6016C12.6254 14.6016 12.9535 14.9297 12.9535 15.3398ZM19.3168 15.3398C19.3168 15.7617 18.9886 16.0781 18.5785 16.0781L15.1683 16.0781C14.7465 16.0781 14.4183 15.7617 14.4183 15.3398C14.4183 14.9297 14.7465 14.6016 15.1683 14.6016L18.5785 14.6016C18.9886 14.6016 19.3168 14.9297 19.3168 15.3398ZM22.5863 8.95862C21.9112 9.21471 21.2983 9.55938 20.6996 9.8971L20.6996 8.3663C21.3388 8.02102 21.9495 7.64913 22.5863 7.36087ZM11.4301 5.13281C11.4301 6.04688 10.6801 6.79688 9.77771 6.79688C8.86364 6.79688 8.12536 6.04688 8.12536 5.13281C8.12536 4.23047 8.86364 3.49219 9.77771 3.49219C10.6801 3.49219 11.4301 4.23047 11.4301 5.13281ZM22.5863 5.72708C21.9116 5.98422 21.2988 6.33018 20.6996 6.66858L20.6996 5.12181C21.3385 4.77797 21.9489 4.40804 22.5863 4.12168Z" fill="black" fill-opacity="0.85"/>
  <path d="M17.266 6.14062C20.3949 6.14062 22.0238 3.59766 24.7543 3.59766C25.3871 3.59766 25.9144 3.72656 26.5941 4.11328C27.016 4.33594 27.391 4.17188 27.5785 3.90234C27.8011 3.5625 27.7894 3.04688 27.2738 2.75391C26.4886 2.29688 25.6449 2.07422 24.7543 2.07422C21.5785 2.07422 19.9496 4.62891 17.266 4.62891C16.6332 4.62891 16.1058 4.48828 15.4261 4.11328C15.0277 3.87891 14.6293 4.03125 14.4418 4.33594C14.2308 4.66406 14.2543 5.19141 14.7465 5.46094C15.5199 5.94141 16.3754 6.14062 17.266 6.14062ZM17.2777 9.38672C20.3949 9.38672 22.0355 6.83203 24.7543 6.83203C25.3988 6.83203 25.9261 6.96094 26.6058 7.34766C27.016 7.58203 27.4027 7.41797 27.5902 7.13672C27.8011 6.80859 27.8011 6.28125 27.2972 5.98828C26.5004 5.53125 25.6449 5.30859 24.7543 5.30859C21.5902 5.30859 19.9613 7.875 17.2777 7.875C16.6332 7.875 16.1058 7.72266 15.4379 7.34766C15.0394 7.11328 14.6293 7.27734 14.4418 7.58203C14.2308 7.91016 14.2543 8.42578 14.7582 8.70703C15.5316 9.17578 16.3871 9.38672 17.2777 9.38672ZM17.266 12.6211C20.3949 12.6211 22.0238 10.0781 24.7543 10.0781C25.3871 10.0781 25.9144 10.207 26.5941 10.582C27.016 10.8164 27.391 10.6523 27.5785 10.3828C27.8011 10.043 27.7894 9.51562 27.2738 9.23438C26.4886 8.77734 25.6449 8.54297 24.7543 8.54297C21.5785 8.54297 19.9496 11.1094 17.266 11.1094C16.6332 11.1094 16.1058 10.9688 15.4261 10.582C15.0277 10.3594 14.6293 10.5117 14.4418 10.8164C14.2308 11.1445 14.2543 11.6602 14.7465 11.9414C15.5199 12.4102 16.3754 12.6211 17.266 12.6211Z" fill="black" fill-opacity="0.85"/>
 </g>
</svg>
