<?xml version="1.0" encoding="UTF-8"?>
<!--Generator: Apple Native CoreSVG 360-->
<!DOCTYPE svg
PUBLIC "-//W3C//DTD SVG 1.1//EN"
       "http://www.w3.org/Graphics/SVG/1.1/DTD/svg11.dtd">
<svg version="1.1" xmlns="http://www.w3.org/2000/svg" xmlns:xlink="http://www.w3.org/1999/xlink" viewBox="0 0 36.8438 17.337">
 <g>
  <rect height="17.337" opacity="0" width="36.8438" x="0" y="0"/>
  <path d="M15.8203 17.2642C16.4648 17.4634 16.9102 17.0767 17.0977 16.5142L22.043 1.40874C22.2305 0.822804 22.0781 0.272023 21.4336 0.0493666C20.8242-0.126415 20.3438 0.178273 20.1562 0.787648L15.2109 15.9048C15.0234 16.5025 15.2109 17.065 15.8203 17.2642ZM0.984375 17.3111C1.60547 17.3111 1.91016 17.0767 2.13281 16.4205L3.64453 12.2837L10.5586 12.2837L12.0703 16.4205C12.293 17.0767 12.5977 17.3111 13.207 17.3111C13.8281 17.3111 14.2266 16.9361 14.2266 16.3501C14.2266 16.1509 14.1914 15.9634 14.0977 15.7173L8.60156 1.08062C8.33203 0.365773 7.85156 0.00249157 7.10156 0.00249157C6.375 0.00249157 5.88281 0.354054 5.625 1.0689L0.128906 15.7291C0.0351562 15.9751 0 16.1626 0 16.3619C0 16.9478 0.375 17.3111 0.984375 17.3111ZM4.21875 10.5025L7.06641 2.61577L7.125 2.61577L9.97266 10.5025ZM29.6484 17.2994C32.6133 17.2994 34.9336 16.022 36.0938 13.7955C36.3164 13.3384 36.457 12.9048 36.457 12.5064C36.457 11.9556 36.082 11.6041 35.5195 11.6041C35.0977 11.6041 34.8398 11.7916 34.5938 12.3658C33.8086 14.3697 32.0508 15.483 29.6484 15.483C26.1797 15.483 23.9766 12.8697 23.9766 8.65093C23.9766 4.45562 26.1914 1.80718 29.6484 1.80718C31.9336 1.80718 33.7852 3.16655 34.5586 5.22905C34.793 5.7564 35.1094 6.00249 35.5898 6.00249C36.1289 6.00249 36.4922 5.65093 36.4922 5.11187C36.4922 4.83062 36.4336 4.47905 36.3047 4.12749C35.3906 1.5728 32.707 0.00249157 29.6484 0.00249157C24.8789 0.00249157 21.8789 3.33062 21.8789 8.66265C21.8789 13.983 24.8555 17.2994 29.6484 17.2994Z" fill="black" fill-opacity="0.85"/>
 </g>
</svg>
