<?xml version="1.0" encoding="UTF-8"?>
<!--Generator: Apple Native CoreSVG 360-->
<!DOCTYPE svg
PUBLIC "-//W3C//DTD SVG 1.1//EN"
       "http://www.w3.org/Graphics/SVG/1.1/DTD/svg11.dtd">
<svg version="1.1" xmlns="http://www.w3.org/2000/svg" xmlns:xlink="http://www.w3.org/1999/xlink" viewBox="0 0 44.7891 19.0664">
 <g>
  <rect height="19.0664" opacity="0" width="44.7891" x="0" y="0"/>
  <path d="M2.98828 16.3711L6.12891 16.3711L6.12891 14.4844L3.09375 14.4844C2.33203 14.4844 1.88672 13.9688 1.88672 13.0781L1.88672 10.7109C1.88672 9.03516 2.95312 8.14453 5.40234 7.76953L10.1719 7.04297L15.3281 3.83203C17.6367 2.40234 19.6523 1.88672 23.0156 1.88672L27.6445 1.88672C28.8984 1.88672 29.6016 2.51953 29.7422 3.75L30.1289 7.30078L41.3555 7.30078C42.1055 7.30078 42.5508 7.82812 42.5508 8.70703L42.5508 13.0781C42.5508 13.9688 42.1055 14.4844 41.3555 14.4844L36.6797 14.4844L36.6797 16.3711L41.4609 16.3711C43.3242 16.3711 44.4375 15.2227 44.4375 13.3125L44.4375 8.47266C44.4375 6.5625 43.3242 5.41406 41.4609 5.41406L31.8516 5.41406L31.6289 3.49219C31.3594 1.17188 30.0586 0 27.75 0L23.0156 0C19.2422 0 16.9219 0.585938 14.3203 2.22656L9.52734 5.22656L5.15625 5.89453C1.60547 6.43359 0 7.95703 0 10.7109L0 13.3125C0 15.2227 1.125 16.3711 2.98828 16.3711ZM11.625 16.3711L30.7969 16.3711L30.7969 14.4844L11.625 14.4844ZM8.8125 19.043C11.0625 19.043 12.8203 17.2852 12.8203 15.0352C12.8203 12.7852 11.0625 11.0273 8.8125 11.0273C6.5625 11.0273 4.80469 12.7852 4.80469 15.0352C4.80469 17.2852 6.5625 19.043 8.8125 19.043ZM8.8125 17.1562C7.61719 17.1562 6.69141 16.2305 6.69141 15.0352C6.69141 13.8398 7.61719 12.9141 8.8125 12.9141C10.0078 12.9141 10.9336 13.8398 10.9336 15.0352C10.9336 16.2305 10.0078 17.1562 8.8125 17.1562ZM33.5508 19.043C35.8008 19.043 37.5586 17.2852 37.5586 15.0352C37.5586 12.7852 35.8008 11.0273 33.5508 11.0273C31.3008 11.0273 29.543 12.7852 29.543 15.0352C29.543 17.2852 31.3008 19.043 33.5508 19.043ZM33.5508 17.1562C32.3555 17.1562 31.4297 16.2305 31.4297 15.0352C31.4297 13.8398 32.3555 12.9141 33.5508 12.9141C34.7461 12.9141 35.6719 13.8398 35.6719 15.0352C35.6719 16.2305 34.7461 17.1562 33.5508 17.1562Z" fill="black" fill-opacity="0.85"/>
  <path d="M15.9375 11.9531C16.3828 11.9531 16.5938 11.707 16.6641 11.2617L16.8281 10.5352L18.2461 10.5352L18.4219 11.2852C18.5156 11.7305 18.75 11.9531 19.1367 11.9531C19.5703 11.9531 19.8516 11.6484 19.8516 11.25C19.8516 11.0859 19.8164 10.9453 19.7812 10.7695L18.6797 6.11719C18.5391 5.49609 18.1523 5.21484 17.5195 5.21484C16.9336 5.21484 16.5469 5.50781 16.4062 6.11719L15.3164 10.7695C15.2812 10.9453 15.2578 11.0859 15.2578 11.25C15.2578 11.7422 15.5742 11.9531 15.9375 11.9531ZM17.0039 9.45703L17.4961 6.89062L17.543 6.89062L18.0586 9.45703ZM21.4336 11.9531C21.8906 11.9531 22.1836 11.6484 22.1836 11.1797L22.1836 5.98828C22.1836 5.51953 21.8906 5.21484 21.4336 5.21484C20.9766 5.21484 20.6953 5.51953 20.6953 5.98828L20.6953 11.1797C20.6953 11.6484 20.9766 11.9531 21.4336 11.9531ZM23.9766 11.9414C24.4219 11.9414 24.7148 11.6484 24.7148 11.1797L24.7148 9.46875L25.1836 9.46875L25.8281 11.332C25.957 11.7188 26.1797 11.9414 26.5664 11.9414C26.9883 11.9414 27.2812 11.6719 27.2812 11.2852C27.2812 11.1445 27.2344 10.9688 27.1758 10.793L26.5547 9.15234C27.1172 8.80078 27.3281 8.07422 27.3281 7.41797C27.3281 6.17578 26.6953 5.32031 25.2422 5.32031L23.9766 5.32031C23.5078 5.32031 23.2383 5.60156 23.2383 6.09375L23.2383 11.1797C23.2383 11.6484 23.5195 11.9414 23.9766 11.9414ZM24.7148 8.4375L24.7148 6.43359L25.1133 6.43359C25.5938 6.43359 25.8281 6.94922 25.8281 7.44141C25.8281 7.94531 25.5938 8.4375 25.1133 8.4375Z" fill="black" fill-opacity="0.85"/>
 </g>
</svg>
