<?xml version="1.0" encoding="UTF-8"?>
<!--Generator: Apple Native CoreSVG 360-->
<!DOCTYPE svg
PUBLIC "-//W3C//DTD SVG 1.1//EN"
       "http://www.w3.org/Graphics/SVG/1.1/DTD/svg11.dtd">
<svg version="1.1" xmlns="http://www.w3.org/2000/svg" xmlns:xlink="http://www.w3.org/1999/xlink" viewBox="0 0 41.918 19.0664">
 <g>
  <rect height="19.0664" opacity="0" width="41.918" x="0" y="0"/>
  <path d="M2.98828 16.3711L6.63281 16.3711L6.63281 14.4844L3.09375 14.4844C2.33203 14.4844 1.88672 13.9688 1.88672 13.0781L1.88672 11.2969C1.88672 9.19922 3.29297 8.01562 6.22266 7.64062L10.9922 7.04297L16.0781 3.87891C18.668 2.26172 20.2031 1.88672 24.7031 1.88672L33.8555 1.88672C35.8828 1.88672 37.0547 2.44922 38.0156 3.82031L38.543 4.58203C39.2578 5.61328 39.6797 6.87891 39.6797 7.99219L39.6797 13.1133C39.6797 14.0508 39.3164 14.4844 38.4844 14.4844L35.6016 14.4844L35.6016 16.3711L38.5898 16.3711C40.6406 16.3711 41.5664 15.3164 41.5664 12.9961L41.5664 7.99219C41.5664 6.52734 41.0273 4.85156 40.1016 3.51562L39.5742 2.74219C38.2266 0.785156 36.5742 0 33.8555 0L24.7031 0C19.875 0 17.9414 0.46875 15.0703 2.26172L10.3477 5.22656L5.97656 5.76562C1.98047 6.25781 0 8.08594 0 11.2969L0 13.3125C0 15.2227 1.125 16.3711 2.98828 16.3711ZM12.1289 16.3711L30.2109 16.3711L30.2109 14.4844L12.1289 14.4844ZM9.31641 19.043C11.5664 19.043 13.3242 17.2852 13.3242 15.0352C13.3242 12.7852 11.5664 11.0273 9.31641 11.0273C7.06641 11.0273 5.30859 12.7852 5.30859 15.0352C5.30859 17.2852 7.06641 19.043 9.31641 19.043ZM9.31641 17.1562C8.12109 17.1562 7.19531 16.2305 7.19531 15.0352C7.19531 13.8398 8.12109 12.9141 9.31641 12.9141C10.5117 12.9141 11.4375 13.8398 11.4375 15.0352C11.4375 16.2305 10.5117 17.1562 9.31641 17.1562ZM32.9883 19.043C35.2383 19.043 36.9961 17.2852 36.9961 15.0352C36.9961 12.7852 35.2383 11.0273 32.9883 11.0273C30.7383 11.0273 28.9805 12.7852 28.9805 15.0352C28.9805 17.2852 30.7383 19.043 32.9883 19.043ZM32.9883 17.1562C31.793 17.1562 30.8672 16.2305 30.8672 15.0352C30.8672 13.8398 31.793 12.9141 32.9883 12.9141C34.1836 12.9141 35.1094 13.8398 35.1094 15.0352C35.1094 16.2305 34.1836 17.1562 32.9883 17.1562Z" fill="black" fill-opacity="0.85"/>
  <path d="M16.2891 11.9531C16.7344 11.9531 16.9336 11.707 17.0156 11.2617L17.1797 10.5352L18.5977 10.5352L18.7734 11.2852C18.8672 11.7305 19.1016 11.9531 19.4883 11.9531C19.9219 11.9531 20.2031 11.6484 20.2031 11.25C20.2031 11.0859 20.168 10.9453 20.1328 10.7695L19.0312 6.11719C18.8906 5.49609 18.5039 5.21484 17.8711 5.21484C17.2852 5.21484 16.8984 5.50781 16.7578 6.11719L15.668 10.7695C15.6328 10.9453 15.6094 11.0859 15.6094 11.25C15.6094 11.7422 15.9258 11.9531 16.2891 11.9531ZM17.3555 9.45703L17.8477 6.89062L17.8945 6.89062L18.4102 9.45703ZM21.7852 11.9531C22.2422 11.9531 22.5234 11.6484 22.5234 11.1797L22.5234 5.98828C22.5234 5.51953 22.2422 5.21484 21.7852 5.21484C21.3281 5.21484 21.0352 5.51953 21.0352 5.98828L21.0352 11.1797C21.0352 11.6484 21.3281 11.9531 21.7852 11.9531ZM24.3281 11.9414C24.7734 11.9414 25.0664 11.6484 25.0664 11.1797L25.0664 9.46875L25.5352 9.46875L26.1797 11.332C26.3086 11.7188 26.5312 11.9414 26.918 11.9414C27.3398 11.9414 27.6328 11.6719 27.6328 11.2852C27.6328 11.1445 27.5859 10.9688 27.5273 10.793L26.9062 9.15234C27.4688 8.80078 27.6797 8.07422 27.6797 7.41797C27.6797 6.17578 27.0469 5.32031 25.5938 5.32031L24.3281 5.32031C23.8594 5.32031 23.5898 5.60156 23.5898 6.09375L23.5898 11.1797C23.5898 11.6484 23.8711 11.9414 24.3281 11.9414ZM25.0664 8.4375L25.0664 6.43359L25.4648 6.43359C25.9453 6.43359 26.1797 6.94922 26.1797 7.44141C26.1797 7.94531 25.9453 8.4375 25.4648 8.4375Z" fill="black" fill-opacity="0.85"/>
 </g>
</svg>
