<?xml version="1.0" encoding="UTF-8"?>
<!--Generator: Apple Native CoreSVG 360-->
<!DOCTYPE svg
PUBLIC "-//W3C//DTD SVG 1.1//EN"
       "http://www.w3.org/Graphics/SVG/1.1/DTD/svg11.dtd">
<svg version="1.1" xmlns="http://www.w3.org/2000/svg" xmlns:xlink="http://www.w3.org/1999/xlink" viewBox="0 0 43.5469 19.4883">
 <g>
  <rect height="19.4883" opacity="0" width="43.5469" x="0" y="0"/>
  <path d="M2.55469 17.1328L5.51953 17.4727L5.70703 15.5859L3 15.2812C2.23828 15.1992 1.88672 14.8477 1.88672 14.168L1.88672 12.75C1.88672 10.7344 3.24609 9.53906 5.96484 9.02344L13.5234 7.59375C14.1562 7.47656 14.6836 7.40625 15.0703 7.07812C17.2148 5.26172 19.6523 3.62109 22.3359 2.19141C23.4609 1.60547 22.5469 0 21.3398 0.632812C18.5625 2.10938 15.9375 3.82031 13.6992 5.68359L5.71875 7.18359C1.91016 7.89844 0 9.65625 0 12.75L0 14.3086C0 16.0664 0.785156 16.9453 2.55469 17.1328ZM8.625 19.4883C10.957 19.4883 12.7852 17.6602 12.7852 15.3281C12.7852 12.9844 10.957 11.1562 8.625 11.1562C6.28125 11.1562 4.45312 12.9844 4.45312 15.3281C4.45312 17.6602 6.28125 19.4883 8.625 19.4883ZM8.625 17.7188C7.27734 17.7188 6.22266 16.6641 6.22266 15.3281C6.22266 13.9805 7.27734 12.9258 8.625 12.9258C9.96094 12.9258 11.0156 13.9805 11.0156 15.3281C11.0156 16.6641 9.96094 17.7188 8.625 17.7188ZM11.543 16.9336L31.7695 16.9336L31.7695 15.0469L11.543 15.0469ZM34.582 19.4883C36.9141 19.4883 38.7422 17.6602 38.7422 15.3281C38.7422 12.9844 36.9141 11.1562 34.582 11.1562C32.2383 11.1562 30.4102 12.9844 30.4102 15.3281C30.4102 17.6602 32.2383 19.4883 34.582 19.4883ZM34.582 17.7188C33.2344 17.7188 32.1797 16.6641 32.1797 15.3281C32.1797 13.9805 33.2344 12.9258 34.582 12.9258C35.918 12.9258 36.9727 13.9805 36.9727 15.3281C36.9727 16.6641 35.918 17.7188 34.582 17.7188ZM37.793 16.6523L39.8438 16.4297C42.1055 16.1953 43.1953 14.9414 43.1953 12.6094L43.1953 10.5703C43.1953 7.79297 42.1641 6.60938 39.5156 6.11719L34.0312 5.09766C32.4375 4.79297 31.0547 4.64062 29.1445 4.74609L13.793 5.68359L13.2422 7.60547L29.0508 6.64453C30.5977 6.55078 31.9453 6.66797 33.9258 7.05469L39.1758 8.0625C40.7344 8.35547 41.3086 9.03516 41.3086 10.5703L41.3086 12.6094C41.3086 13.8164 40.7578 14.4609 39.6094 14.5781L37.793 14.7656Z" fill="black" fill-opacity="0.85"/>
  <path d="M17.0273 14.0977C17.4141 14.0977 17.6016 13.8984 17.6602 13.5117L17.8125 12.832L19.0898 12.832L19.2539 13.5234C19.3359 13.9102 19.5469 14.0977 19.875 14.0977C20.2617 14.0977 20.5078 13.8281 20.5078 13.4883C20.5078 13.3477 20.4727 13.2188 20.4375 13.0664L19.4414 8.89453C19.3242 8.35547 18.9844 8.12109 18.4336 8.12109C17.9297 8.12109 17.5898 8.36719 17.4727 8.89453L16.4883 13.0664C16.4531 13.2305 16.4414 13.3477 16.4414 13.4883C16.4414 13.9102 16.7109 14.0977 17.0273 14.0977ZM17.9648 11.8945L18.4219 9.58594L18.457 9.58594L18.9258 11.8945ZM21.9023 14.0977C22.3008 14.0977 22.5586 13.8398 22.5586 13.418L22.5586 8.80078C22.5586 8.37891 22.3008 8.12109 21.9023 8.12109C21.5039 8.12109 21.2578 8.37891 21.2578 8.80078L21.2578 13.418C21.2578 13.8398 21.5039 14.0977 21.9023 14.0977ZM24.1406 14.0977C24.5391 14.0977 24.7852 13.8398 24.7852 13.418L24.7852 11.8828L25.2188 11.8828L25.8047 13.5703C25.9336 13.8984 26.1094 14.0977 26.4492 14.0977C26.8125 14.0977 27.0703 13.8633 27.0703 13.5234C27.0703 13.4062 27.0352 13.2539 26.9766 13.0898L26.4141 11.6133C26.918 11.2969 27.1172 10.6523 27.1172 10.0664C27.1172 8.96484 26.543 8.20312 25.2656 8.20312L24.1406 8.20312C23.7305 8.20312 23.4961 8.46094 23.4961 8.88281L23.4961 13.418C23.4961 13.8398 23.7422 14.0977 24.1406 14.0977ZM24.7852 10.9922L24.7852 9.1875L25.1602 9.1875C25.5938 9.1875 25.8164 9.63281 25.8164 10.0781C25.8164 10.5469 25.6055 10.9805 25.1602 10.9922Z" fill="black" fill-opacity="0.85"/>
 </g>
</svg>
