<?xml version="1.0" encoding="UTF-8"?>
<!--Generator: Apple Native CoreSVG 360-->
<!DOCTYPE svg
PUBLIC "-//W3C//DTD SVG 1.1//EN"
       "http://www.w3.org/Graphics/SVG/1.1/DTD/svg11.dtd">
<svg version="1.1" xmlns="http://www.w3.org/2000/svg" xmlns:xlink="http://www.w3.org/1999/xlink" viewBox="0 0 36.5977 23.1213">
 <g>
  <rect height="23.1213" opacity="0" width="36.5977" x="0" y="0"/>
  <path d="M12.1523 20.8243C12.1523 21.5509 11.6719 21.9259 10.9453 21.9259L10.0312 21.9259C9.29297 21.9259 8.82422 21.5509 8.82422 20.8243L8.82422 13.7418C10.2428 13.6479 11.2856 13.4158 12.1523 13.0907ZM27.4219 13.7418L27.4219 20.8243C27.4219 21.5509 26.9531 21.9259 26.2148 21.9259L25.3008 21.9259C24.5742 21.9259 24.0938 21.5509 24.0938 20.8243L24.0938 13.0907C24.9604 13.4158 26.0033 13.6479 27.4219 13.7418Z" fill="black" fill-opacity="0.85"/>
  <path d="M16.418 5.90634C16.418 8.49618 14.8828 10.3009 12.9609 11.4142C12.082 11.9091 11.1223 12.2859 9.58584 12.4669C9.82579 11.9075 9.96094 11.2588 9.96094 10.5235C9.96094 8.14831 8.00363 5.73472 5.31052 5.30395C5.54827 4.84466 5.80027 4.46264 5.97656 4.24228C7.47656 2.15634 9.71484 1.17197 11.7188 1.1954C14.3086 1.21884 16.418 2.91806 16.418 5.90634ZM30.2695 4.24228C30.4458 4.46264 30.6978 4.84466 30.9356 5.30395C28.2425 5.73472 26.2852 8.14831 26.2852 10.5235C26.2852 11.2588 26.4203 11.9075 26.6603 12.4669C25.1238 12.2859 24.1641 11.9091 23.2852 11.4142C21.3516 10.3009 19.8281 8.49618 19.8281 5.90634C19.8281 2.91806 21.9375 1.21884 24.5273 1.1954C26.5312 1.17197 28.7695 2.15634 30.2695 4.24228ZM13.1719 3.90243L11.4492 5.35556C11.2031 5.55478 11.1797 5.90634 11.3789 6.15243C11.5781 6.39853 11.9414 6.42197 12.1641 6.22275L13.9102 4.76962C14.1562 4.5704 14.168 4.21884 13.957 3.98447C13.7695 3.73837 13.418 3.70322 13.1719 3.90243ZM22.2891 3.98447C22.0781 4.21884 22.0898 4.5704 22.3359 4.76962L24.082 6.22275C24.3047 6.42197 24.668 6.39853 24.8672 6.15243C25.0664 5.90634 25.043 5.55478 24.7852 5.35556L23.0742 3.90243C22.8281 3.70322 22.4766 3.73837 22.2891 3.98447Z" fill="black" fill-opacity="0.85"/>
  <path d="M5.39062 13.922C7.21875 13.922 8.82422 12.797 8.82422 10.5235C8.82422 8.49618 6.91406 6.35165 4.44141 6.35165C2.33203 6.35165 1.13672 8.01572 1.13672 9.71493C1.13672 12.2579 3.29297 13.922 5.39062 13.922ZM4.81641 12.1407C4.47656 12.4337 3.92578 12.1407 3.22266 11.3087C2.55469 10.4767 2.37891 9.90243 2.69531 9.62118C3.04688 9.3165 3.58594 9.59775 4.28906 10.4415C4.95703 11.297 5.14453 11.8595 4.81641 12.1407ZM30.8555 13.922C32.9531 13.922 35.1094 12.2579 35.1094 9.71493C35.1094 8.01572 33.9141 6.35165 31.8047 6.35165C29.332 6.35165 27.4219 8.49618 27.4219 10.5235C27.4219 12.797 29.0273 13.922 30.8555 13.922ZM31.4297 12.1407C31.1016 11.8595 31.2891 11.297 31.957 10.4415C32.6602 9.59775 33.1992 9.3165 33.5508 9.62118C33.8672 9.90243 33.6914 10.4767 33.0234 11.3087C32.3203 12.1407 31.7695 12.4337 31.4297 12.1407Z" fill="black" fill-opacity="0.425"/>
 </g>
</svg>
