<?xml version="1.0" encoding="UTF-8"?>
<!--Generator: Apple Native CoreSVG 360-->
<!DOCTYPE svg
PUBLIC "-//W3C//DTD SVG 1.1//EN"
       "http://www.w3.org/Graphics/SVG/1.1/DTD/svg11.dtd">
<svg version="1.1" xmlns="http://www.w3.org/2000/svg" xmlns:xlink="http://www.w3.org/1999/xlink" viewBox="0 0 19.4062 23.2852">
 <g>
  <rect height="23.2852" opacity="0" width="19.4062" x="0" y="0"/>
  <path d="M9.52734 12.6094C10.1484 12.5977 10.6641 12.082 10.6641 11.4961C10.6641 10.8633 10.1484 10.3594 9.52734 10.3594C8.90625 10.3594 8.39062 10.8633 8.39062 11.4961C8.39062 12.1055 8.90625 12.6211 9.52734 12.6094ZM5.90625 23.2734L13.1484 23.2734C17.1328 23.2734 19.0547 21.3516 19.0547 17.3672L19.0547 5.90625C19.0547 1.92188 17.1328 0 13.1484 0L5.90625 0C1.92188 0 0 1.92188 0 5.90625L0 17.3672C0 21.3516 1.92188 23.2734 5.90625 23.2734ZM5.90625 21.3867C3.10547 21.3867 1.88672 20.168 1.88672 17.3672L1.88672 5.90625C1.88672 3.10547 3.10547 1.88672 5.90625 1.88672L13.1484 1.88672C15.9492 1.88672 17.168 3.10547 17.168 5.90625L17.168 17.3672C17.168 20.168 15.9492 21.3867 13.1484 21.3867ZM0.949219 7.80469L18.1055 7.80469L18.1055 6.62109L0.949219 6.62109ZM6.28125 8.60156L12.7734 8.60156C13.582 8.60156 14.1797 8.02734 14.1797 7.20703C14.1797 6.38672 13.582 5.8125 12.7734 5.8125L6.28125 5.8125C5.50781 5.8125 4.875 6.38672 4.875 7.20703C4.875 8.02734 5.50781 8.60156 6.28125 8.60156Z" fill="black" fill-opacity="0.85"/>
 </g>
</svg>
