<?xml version="1.0" encoding="UTF-8"?>
<!--Generator: Apple Native CoreSVG 360-->
<!DOCTYPE svg
PUBLIC "-//W3C//DTD SVG 1.1//EN"
       "http://www.w3.org/Graphics/SVG/1.1/DTD/svg11.dtd">
<svg version="1.1" xmlns="http://www.w3.org/2000/svg" xmlns:xlink="http://www.w3.org/1999/xlink" viewBox="0 0 23.6236 23.7057">
 <g>
  <rect height="23.7057" opacity="0" width="23.6236" x="0" y="0"/>
  <path d="M22.886 0.819637C21.9134-0.141301 19.886 0.479793 18.304 2.05011L14.9524 5.40167C14.4954 5.8587 14.2493 5.96417 13.6517 5.92901L2.01495 5.41339C1.63995 5.40167 1.32354 5.50714 1.08917 5.74151L0.12823 6.71417C-0.0944259 6.93682-0.0241134 7.25323 0.31573 7.37042L9.51495 10.8392L5.78839 15.5384L1.53448 14.2845C1.21807 14.1907 0.960262 14.2728 0.69073 14.554L0.327449 14.9056C0.104793 15.1282 0.104793 15.386 0.327449 15.6087L8.09698 23.3782C8.31964 23.6009 8.57745 23.6009 8.80011 23.3782L9.16339 23.0149C9.43292 22.7454 9.52667 22.4876 9.4212 22.1712L8.17901 17.9173L12.8665 14.1907L16.3353 23.3899C16.4524 23.7298 16.7806 23.8001 16.9915 23.5774L17.9642 22.6282C18.1985 22.3821 18.304 22.0657 18.2923 21.6907L17.7884 10.054C17.7415 9.45636 17.847 9.21026 18.304 8.75323L21.6556 5.40167C23.2259 3.81964 23.847 1.79229 22.886 0.819637Z" fill="black" fill-opacity="0.85"/>
 </g>
</svg>
