<?xml version="1.0" encoding="UTF-8"?>
<!--Generator: Apple Native CoreSVG 360-->
<!DOCTYPE svg
PUBLIC "-//W3C//DTD SVG 1.1//EN"
       "http://www.w3.org/Graphics/SVG/1.1/DTD/svg11.dtd">
<svg version="1.1" xmlns="http://www.w3.org/2000/svg" xmlns:xlink="http://www.w3.org/1999/xlink" viewBox="0 0 27.7617 20.707">
 <g>
  <rect height="20.707" opacity="0" width="27.7617" x="0" y="0"/>
  <path d="M4.75781 11.8008C8.23828 11.8008 12.3398 8.55469 12.3398 5.41406C12.3398 2.33203 9.80859 0.105469 7.40625 0.105469C4.30078 0.105469 0 3.375 0 6.28125C0 9.01172 1.64062 11.8008 4.75781 11.8008ZM2.77734 9.77344C2.00391 9.36328 1.3125 7.51172 1.32422 6.28125C1.32422 5.84766 1.48828 5.56641 1.75781 5.56641C2.61328 5.56641 3.45703 8.00391 3.45703 9.17578C3.45703 9.62109 3.28125 10.0312 2.77734 9.77344ZM5.56641 6.51562C5.21484 6.01172 5.29688 5.32031 5.83594 4.94531L6.49219 4.46484C7.01953 4.08984 7.69922 4.23047 8.05078 4.74609C8.42578 5.25 8.35547 5.92969 7.81641 6.31641L7.16016 6.77344C6.62109 7.16016 5.92969 7.03125 5.56641 6.51562ZM5.66016 12.8672L5.66016 18.9023C5.66016 20.4258 6.31641 20.707 7.83984 20.707C9.33984 20.707 9.98438 20.4258 9.98438 18.9023L9.98438 11.1094C8.68359 12.0352 7.16016 12.6797 5.66016 12.8672ZM22.6641 11.8008C25.7812 11.8008 27.4102 9.01172 27.4102 6.28125C27.4102 3.375 23.1094 0.105469 20.0156 0.105469C17.6016 0.105469 15.082 2.33203 15.082 5.41406C15.082 8.55469 19.1719 11.8008 22.6641 11.8008ZM24.6445 9.77344C24.1289 10.0312 23.9531 9.62109 23.9531 9.17578C23.9531 8.00391 24.8086 5.56641 25.6641 5.56641C25.9219 5.56641 26.0859 5.84766 26.0859 6.28125C26.0977 7.51172 25.418 9.36328 24.6445 9.77344ZM21.8438 6.51562C21.4922 7.03125 20.8008 7.16016 20.25 6.77344L19.6055 6.31641C19.0547 5.92969 18.9844 5.25 19.3711 4.74609C19.7109 4.23047 20.3906 4.08984 20.9297 4.46484L21.5859 4.94531C22.1133 5.32031 22.207 6.01172 21.8438 6.51562ZM21.75 12.8672C20.2617 12.6797 18.7383 12.0352 17.4258 11.1094L17.4258 18.9023C17.4258 20.4258 18.0703 20.707 19.5703 20.707C21.0938 20.707 21.75 20.4258 21.75 18.9023Z" fill="black" fill-opacity="0.85"/>
 </g>
</svg>
