<?xml version="1.0" encoding="UTF-8"?>
<!--Generator: Apple Native CoreSVG 360-->
<!DOCTYPE svg
PUBLIC "-//W3C//DTD SVG 1.1//EN"
       "http://www.w3.org/Graphics/SVG/1.1/DTD/svg11.dtd">
<svg version="1.1" xmlns="http://www.w3.org/2000/svg" xmlns:xlink="http://www.w3.org/1999/xlink" viewBox="0 0 18.0117 23.1213">
 <g>
  <rect height="23.1213" opacity="0" width="18.0117" x="0" y="0"/>
  <path d="M8.77734 13.7418L8.77734 20.8243C8.77734 21.5509 8.29688 21.9259 7.57031 21.9259L6.65625 21.9259C5.92969 21.9259 5.44922 21.5509 5.44922 20.8243L5.44922 13.0907C6.31591 13.4158 7.35877 13.6479 8.77734 13.7418Z" fill="black" fill-opacity="0.85"/>
  <path d="M11.625 4.24228C11.8013 4.46264 12.0533 4.84466 12.291 5.30395C9.59793 5.73472 7.64062 8.14831 7.64062 10.5235C7.64062 11.2588 7.77577 11.9075 8.01572 12.4669C6.47923 12.2859 5.51954 11.9091 4.64062 11.4142C2.70703 10.3009 1.18359 8.49618 1.18359 5.90634C1.18359 2.91806 3.29297 1.21884 5.88281 1.1954C7.88672 1.17197 10.125 2.15634 11.625 4.24228ZM3.64453 3.98447C3.43359 4.21884 3.44531 4.5704 3.69141 4.76962L5.4375 6.22275C5.66016 6.42197 6.02344 6.39853 6.22266 6.15243C6.42188 5.90634 6.39844 5.55478 6.14062 5.35556L4.42969 3.90243C4.18359 3.70322 3.83203 3.73837 3.64453 3.98447Z" fill="black" fill-opacity="0.85"/>
  <path d="M12.2109 13.922C14.3086 13.922 16.4648 12.2579 16.4648 9.71493C16.4648 8.01572 15.2695 6.35165 13.1602 6.35165C10.6875 6.35165 8.77734 8.49618 8.77734 10.5235C8.77734 12.797 10.3828 13.922 12.2109 13.922ZM12.7852 12.1407C12.457 11.8595 12.6445 11.297 13.3125 10.4415C14.0039 9.59775 14.5547 9.3165 14.9062 9.62118C15.2227 9.90243 15.0469 10.4767 14.3789 11.3087C13.6758 12.1407 13.125 12.4337 12.7852 12.1407Z" fill="black" fill-opacity="0.425"/>
 </g>
</svg>
