<?xml version="1.0" encoding="UTF-8"?>
<!--Generator: Apple Native CoreSVG 360-->
<!DOCTYPE svg
PUBLIC "-//W3C//DTD SVG 1.1//EN"
       "http://www.w3.org/Graphics/SVG/1.1/DTD/svg11.dtd">
<svg version="1.1" xmlns="http://www.w3.org/2000/svg" xmlns:xlink="http://www.w3.org/1999/xlink" viewBox="0 0 19.6523 24.8086">
 <g>
  <rect height="24.8086" opacity="0" width="19.6523" x="0" y="0"/>
  <path d="M3.67969 24.8086L15.6211 24.8086C18.0703 24.8086 19.3008 23.6016 19.3008 21.1875L19.3008 3.66797C19.3008 1.25391 18.0703 0.0351562 15.6211 0.0351562L3.67969 0.0351562C1.23047 0.0351562 0 1.25391 0 3.66797L0 21.1875C0 23.6016 1.23047 24.8086 3.67969 24.8086ZM3.70312 22.9219C2.53125 22.9219 1.88672 22.3008 1.88672 21.082L1.88672 3.77344C1.88672 2.55469 2.53125 1.92188 3.70312 1.92188L15.5977 1.92188C16.7578 1.92188 17.4141 2.55469 17.4141 3.77344L17.4141 21.082C17.4141 22.3008 16.7578 22.9219 15.5977 22.9219ZM0.234375 8.64844L4.54688 8.64844C6.35156 8.64844 7.24219 7.76953 7.24219 6L7.24219 0.398438L5.82422 0.398438L5.82422 5.90625C5.82422 6.75 5.34375 7.23047 4.51172 7.23047L0.234375 7.23047Z" fill="black" fill-opacity="0.85"/>
 </g>
</svg>
