<?xml version="1.0" encoding="UTF-8"?>
<!--Generator: Apple Native CoreSVG 360-->
<!DOCTYPE svg
PUBLIC "-//W3C//DTD SVG 1.1//EN"
       "http://www.w3.org/Graphics/SVG/1.1/DTD/svg11.dtd">
<svg version="1.1" xmlns="http://www.w3.org/2000/svg" xmlns:xlink="http://www.w3.org/1999/xlink" viewBox="0 0 16.0664 23.1686">
 <g>
  <rect height="23.1686" opacity="0" width="16.0664" x="0" y="0"/>
  <path d="M10.6758 20.637C10.6758 21.5745 10.0664 22.055 9.15234 22.055L8.10938 22.055C7.19531 22.055 6.57422 21.6449 6.57422 20.637L6.57422 14.0652C8.08222 13.894 9.46788 13.4673 10.6758 12.8538Z" fill="black" fill-opacity="0.85"/>
  <path d="M14.5898 5.87142C14.5898 8.31788 12.741 10.7359 9.41851 11.9676C9.81744 11.2401 10.043 10.3262 10.043 9.23471C10.043 6.60971 7.60547 3.6683 4.39453 3.6683C4.35567 3.6683 4.31703 3.66879 4.28087 3.67463C6.01975 1.82086 8.09645 1.11528 9.78516 1.12533C12.4805 1.14877 14.5898 3.14096 14.5898 5.87142ZM11.332 3.38705L10.875 3.70346C10.4766 3.99642 10.3945 4.51205 10.6992 4.92221C10.9453 5.30892 11.4844 5.37924 11.8945 5.09799L12.3398 4.78158C12.7383 4.50033 12.8203 3.99642 12.5391 3.60971C12.2461 3.21127 11.7422 3.09408 11.332 3.38705Z" fill="black" fill-opacity="0.85"/>
  <path d="M5.56641 13.0081C7.48828 13.0081 8.91797 11.7894 8.91797 9.23471C8.91797 7.18392 6.9375 4.80502 4.39453 4.80502C2.37891 4.80502 1.13672 6.62142 1.13672 8.36752C1.13672 10.723 3.19922 13.0081 5.56641 13.0081ZM4.75781 10.6058C3.9375 10.6058 3.04688 9.41049 3.04688 8.63705C3.04688 8.10971 3.28125 7.94564 3.57422 7.94564C4.3125 7.94564 5.17969 9.14096 5.19141 9.96127C5.20312 10.4417 5.0625 10.6058 4.75781 10.6058Z" fill="black" fill-opacity="0.425"/>
 </g>
</svg>
