<?xml version="1.0" encoding="UTF-8"?>
<!--Generator: Apple Native CoreSVG 360-->
<!DOCTYPE svg
PUBLIC "-//W3C//DTD SVG 1.1//EN"
       "http://www.w3.org/Graphics/SVG/1.1/DTD/svg11.dtd">
<svg version="1.1" xmlns="http://www.w3.org/2000/svg" xmlns:xlink="http://www.w3.org/1999/xlink" viewBox="0 0 13.2891 20.6133">
 <g>
  <rect height="20.6133" opacity="0" width="13.2891" x="0" y="0"/>
  <path d="M5.03906 0.0820312C2.33203 0.105469 0 2.33203 0 5.36719C0 8.50781 4.46484 12.2695 7.71094 12.2812C10.0547 12.293 12.9375 10.0195 12.9375 7.13672C12.9375 3.65625 8.63672 0.0585938 5.03906 0.0820312ZM8.82422 10.6641C8.19141 10.6641 8.15625 9.84375 8.78906 8.82422C9.41016 7.78125 10.4297 6.97266 11.0742 6.97266C11.7188 6.97266 11.7539 7.78125 11.1211 8.82422C10.5 9.84375 9.48047 10.6641 8.82422 10.6641ZM5.56641 5.4375C5.20312 5.95312 4.5 6.07031 3.96094 5.68359L2.33203 4.52344C1.80469 4.13672 1.69922 3.45703 2.09766 2.94141C2.44922 2.41406 3.15234 2.28516 3.66797 2.66016L5.29688 3.84375C5.8125 4.20703 5.92969 4.91016 5.56641 5.4375ZM4.47656 20.6133C5.20312 20.6133 5.68359 20.2383 5.68359 19.5234L5.68359 13.0547C4.3125 12.6211 2.95312 11.8008 1.80469 10.7695L1.80469 19.5234C1.80469 20.2383 2.27344 20.6133 3 20.6133Z" fill="black" fill-opacity="0.85"/>
 </g>
</svg>
