<?xml version="1.0" encoding="UTF-8"?>
<!--Generator: Apple Native CoreSVG 360-->
<!DOCTYPE svg
PUBLIC "-//W3C//DTD SVG 1.1//EN"
       "http://www.w3.org/Graphics/SVG/1.1/DTD/svg11.dtd">
<svg version="1.1" xmlns="http://www.w3.org/2000/svg" xmlns:xlink="http://www.w3.org/1999/xlink" viewBox="0 0 12.6914 20.7305">
 <g>
  <rect height="20.7305" opacity="0" width="12.6914" x="0" y="0"/>
  <path d="M4.75781 11.8242C8.23828 11.8242 12.3398 8.57812 12.3398 5.42578C12.3398 2.35547 9.80859 0.117188 7.40625 0.117188C4.30078 0.117188 0 3.38672 0 6.29297C0 9.03516 1.64062 11.8242 4.75781 11.8242ZM2.77734 9.78516C2.00391 9.375 1.3125 7.52344 1.32422 6.30469C1.32422 5.85938 1.48828 5.58984 1.75781 5.58984C2.61328 5.58984 3.45703 8.02734 3.45703 9.1875C3.45703 9.64453 3.28125 10.0547 2.77734 9.78516ZM5.56641 6.53906C5.21484 6.03516 5.29688 5.33203 5.83594 4.95703L6.49219 4.48828C7.01953 4.11328 7.69922 4.25391 8.05078 4.75781C8.42578 5.26172 8.35547 5.94141 7.81641 6.32812L7.16016 6.79688C6.62109 7.17188 5.92969 7.04297 5.56641 6.53906ZM5.66016 12.8789L5.66016 18.9141C5.66016 20.4375 6.31641 20.7305 7.83984 20.7305C9.33984 20.7305 9.98438 20.4375 9.98438 18.9141L9.98438 11.1328C8.68359 12.0586 7.16016 12.6914 5.66016 12.8789Z" fill="black" fill-opacity="0.85"/>
 </g>
</svg>
