<?xml version="1.0" encoding="UTF-8"?>
<!--Generator: Apple Native CoreSVG 360-->
<!DOCTYPE svg
PUBLIC "-//W3C//DTD SVG 1.1//EN"
       "http://www.w3.org/Graphics/SVG/1.1/DTD/svg11.dtd">
<svg version="1.1" xmlns="http://www.w3.org/2000/svg" xmlns:xlink="http://www.w3.org/1999/xlink" viewBox="0 0 22.1016 25.1836">
 <g>
  <rect height="25.1836" opacity="0" width="22.1016" x="0" y="0"/>
  <path d="M8.01562 20.625L18.8789 20.625C20.4609 20.625 21.75 19.3477 21.75 17.7656C21.75 16.1836 20.4609 14.9062 18.8789 14.9062L10.5703 14.9062C9.57422 14.9062 8.58984 15.2578 8.00391 15.7617L3.99609 1.93359C3.69141 0.820312 2.80078 0.316406 1.99219 0.316406C0.972656 0.316406 0 1.08984 0 2.33203C0 2.625 0.0703125 2.94141 0.164062 3.29297L4.37109 17.6484C4.91016 19.5117 6.09375 20.625 8.01562 20.625ZM4.47656 11.3906L15.1406 11.3906C15.6914 11.3906 16.1367 10.9453 16.1367 10.3945C16.1367 9.84375 15.6914 9.38672 15.1406 9.38672L4.47656 9.38672ZM7.35938 25.1836L18.2461 25.1836C18.7969 25.1836 19.2422 24.7383 19.2422 24.1875C19.2422 23.6367 18.7969 23.1797 18.2461 23.1797L7.35938 23.1797C6.80859 23.1797 6.36328 23.6367 6.36328 24.1875C6.36328 24.7383 6.80859 25.1836 7.35938 25.1836Z" fill="black" fill-opacity="0.85"/>
 </g>
</svg>
