<?xml version="1.0" encoding="UTF-8"?>
<!--Generator: Apple Native CoreSVG 360-->
<!DOCTYPE svg
PUBLIC "-//W3C//DTD SVG 1.1//EN"
       "http://www.w3.org/Graphics/SVG/1.1/DTD/svg11.dtd">
<svg version="1.1" xmlns="http://www.w3.org/2000/svg" xmlns:xlink="http://www.w3.org/1999/xlink" viewBox="0 0 16.0664 23.1686">
 <g>
  <rect height="23.1686" opacity="0" width="16.0664" x="0" y="0"/>
  <path d="M9.15234 14.0661L9.15234 20.637C9.15234 21.6449 8.53125 22.055 7.60547 22.055L6.5625 22.055C5.66016 22.055 5.03906 21.5745 5.03906 20.637L5.03906 12.8538C6.25005 13.4689 7.6397 13.8962 9.15234 14.0661Z" fill="black" fill-opacity="0.85"/>
  <path d="M11.4463 3.67529C11.4062 3.6689 11.3634 3.6683 11.3203 3.6683C8.12109 3.6683 5.67188 6.60971 5.67188 9.23471C5.67188 10.3258 5.89726 11.2396 6.29595 11.9669C2.97775 10.735 1.13672 8.31742 1.13672 5.87142C1.13672 3.14096 3.24609 1.14877 5.92969 1.12533C7.62865 1.11528 9.70708 1.82103 11.4463 3.67529ZM3.17578 3.60971C2.89453 3.99642 2.97656 4.50033 3.375 4.78158L3.82031 5.09799C4.23047 5.37924 4.76953 5.30892 5.02734 4.92221C5.32031 4.51205 5.23828 3.99642 4.83984 3.70346L4.39453 3.38705C3.97266 3.09408 3.46875 3.21127 3.17578 3.60971Z" fill="black" fill-opacity="0.85"/>
  <path d="M10.1484 13.0081C12.5156 13.0081 14.5898 10.723 14.5898 8.36752C14.5898 6.62142 13.3477 4.80502 11.3203 4.80502C8.78906 4.80502 6.79688 7.18392 6.79688 9.23471C6.79688 11.7894 8.22656 13.0081 10.1484 13.0081ZM10.9688 10.6058C10.6523 10.6058 10.5117 10.4417 10.5234 9.96127C10.5352 9.14096 11.4023 7.94564 12.1406 7.94564C12.4336 7.94564 12.668 8.10971 12.668 8.63705C12.668 9.41049 11.7773 10.6058 10.9688 10.6058Z" fill="black" fill-opacity="0.425"/>
 </g>
</svg>
