<?xml version="1.0" encoding="UTF-8"?>
<!--Generator: Apple Native CoreSVG 360-->
<!DOCTYPE svg
PUBLIC "-//W3C//DTD SVG 1.1//EN"
       "http://www.w3.org/Graphics/SVG/1.1/DTD/svg11.dtd">
<svg version="1.1" xmlns="http://www.w3.org/2000/svg" xmlns:xlink="http://www.w3.org/1999/xlink" viewBox="0 0 12.6914 20.7305">
 <g>
  <rect height="20.7305" opacity="0" width="12.6914" x="0" y="0"/>
  <path d="M7.58203 11.8242C10.6992 11.8242 12.3398 9.03516 12.3398 6.29297C12.3398 3.38672 8.03906 0.117188 4.93359 0.117188C2.53125 0.117188 0 2.35547 0 5.42578C0 8.57812 4.08984 11.8242 7.58203 11.8242ZM9.5625 9.78516C9.05859 10.0547 8.88281 9.64453 8.88281 9.1875C8.88281 8.02734 9.72656 5.58984 10.582 5.58984C10.8516 5.58984 11.0039 5.85938 11.0039 6.30469C11.0273 7.52344 10.3359 9.375 9.5625 9.78516ZM6.77344 6.53906C6.41016 7.04297 5.71875 7.17188 5.17969 6.79688L4.52344 6.32812C3.98438 5.94141 3.90234 5.26172 4.28906 4.75781C4.64062 4.25391 5.30859 4.11328 5.84766 4.48828L6.50391 4.95703C7.04297 5.33203 7.125 6.03516 6.77344 6.53906ZM6.67969 12.8789C5.17969 12.6914 3.65625 12.0586 2.35547 11.1328L2.35547 18.9141C2.35547 20.4375 3 20.7305 4.5 20.7305C6.02344 20.7305 6.67969 20.4375 6.67969 18.9141Z" fill="black" fill-opacity="0.85"/>
 </g>
</svg>
