<?xml version="1.0" encoding="UTF-8"?>
<!--Generator: Apple Native CoreSVG 360-->
<!DOCTYPE svg
PUBLIC "-//W3C//DTD SVG 1.1//EN"
       "http://www.w3.org/Graphics/SVG/1.1/DTD/svg11.dtd">
<svg version="1.1" xmlns="http://www.w3.org/2000/svg" xmlns:xlink="http://www.w3.org/1999/xlink" viewBox="0 0 48.5742 20.4492">
 <g>
  <rect height="20.4492" opacity="0" width="48.5742" x="0" y="0"/>
  <path d="M4.52344 18.2344C4.89844 17.8125 4.78125 17.2617 4.35938 16.7812C2.78906 15.0352 1.91016 12.7383 1.91016 10.2188C1.91016 7.69922 2.78906 5.40234 4.35938 3.65625C4.78125 3.17578 4.89844 2.625 4.52344 2.20312C4.14844 1.75781 3.49219 1.76953 3.04688 2.26172C1.10156 4.37109 0 7.18359 0 10.2188C0 13.2539 1.10156 16.0547 3.04688 18.1758C3.49219 18.668 4.14844 18.668 4.52344 18.2344ZM43.6992 18.2344C44.0742 18.668 44.7305 18.668 45.1875 18.1758C47.1328 16.0547 48.2227 13.2539 48.2227 10.2188C48.2227 7.18359 47.1328 4.37109 45.1875 2.26172C44.7305 1.76953 44.0742 1.75781 43.6992 2.20312C43.3242 2.625 43.4414 3.17578 43.8633 3.65625C45.4336 5.40234 46.3125 7.69922 46.3125 10.2188C46.3125 12.7383 45.4336 15.0352 43.8633 16.7812C43.4414 17.2617 43.3242 17.8125 43.6992 18.2344Z" fill="black" fill-opacity="0.85"/>
  <path d="M7.80469 14.8945C8.17969 14.4727 8.02734 13.9453 7.65234 13.4414C6.94922 12.5625 6.60938 11.4375 6.60938 10.2188C6.60938 9 6.94922 7.86328 7.65234 6.99609C8.02734 6.49219 8.17969 5.96484 7.80469 5.54297C7.41797 5.09766 6.71484 5.09766 6.30469 5.625C5.28516 6.89062 4.69922 8.49609 4.69922 10.2188C4.69922 11.9414 5.28516 13.5469 6.30469 14.8125C6.71484 15.3398 7.41797 15.3281 7.80469 14.8945ZM40.418 14.8945C40.8047 15.3281 41.5078 15.3398 41.918 14.8125C42.9375 13.5469 43.5352 11.9414 43.5352 10.2188C43.5352 8.49609 42.9375 6.89062 41.918 5.625C41.5078 5.09766 40.8047 5.09766 40.418 5.54297C40.043 5.96484 40.1953 6.49219 40.5703 6.99609C41.2734 7.86328 41.625 9 41.625 10.2188C41.625 11.4375 41.2734 12.5625 40.5703 13.4414C40.1953 13.9453 40.043 14.4727 40.418 14.8945Z" fill="black" fill-opacity="0.85"/>
  <path d="M17.9531 20.4375L30.2695 20.4375C35.0625 20.4375 37.3828 18.1406 37.3828 13.3711L37.3828 7.06641C37.3828 2.29688 35.0625 0 30.2695 0L17.9531 0C13.1602 0 10.8398 2.29688 10.8398 7.06641L10.8398 13.3711C10.8398 18.1406 13.1602 20.4375 17.9531 20.4375ZM17.9531 18.5508C14.3438 18.5508 12.7266 16.9453 12.7266 13.3711L12.7266 7.06641C12.7266 3.49219 14.3438 1.88672 17.9531 1.88672L30.2695 1.88672C33.8789 1.88672 35.4961 3.49219 35.4961 7.06641L35.4961 13.3711C35.4961 16.9453 33.8789 18.5508 30.2695 18.5508ZM11.8008 7.86328L36.4219 7.86328L36.4219 6.67969L11.8008 6.67969ZM19.418 8.67188L28.8047 8.67188C29.625 8.67188 30.2109 8.09766 30.2109 7.26562C30.2109 6.44531 29.625 5.87109 28.8047 5.87109L19.418 5.87109C18.6211 5.87109 18.0117 6.44531 18.0117 7.26562C18.0117 8.09766 18.6211 8.67188 19.418 8.67188Z" fill="black" fill-opacity="0.85"/>
 </g>
</svg>
