<?xml version="1.0" encoding="UTF-8"?>
<!--Generator: Apple Native CoreSVG 360-->
<!DOCTYPE svg
PUBLIC "-//W3C//DTD SVG 1.1//EN"
       "http://www.w3.org/Graphics/SVG/1.1/DTD/svg11.dtd">
<svg version="1.1" xmlns="http://www.w3.org/2000/svg" xmlns:xlink="http://www.w3.org/1999/xlink" viewBox="0 0 17.8945 23.1213">
 <g>
  <rect height="23.1213" opacity="0" width="17.8945" x="0" y="0"/>
  <path d="M12.1406 20.8243C12.1406 21.5509 11.6719 21.9259 10.9453 21.9259L10.0312 21.9259C9.29297 21.9259 8.8125 21.5509 8.8125 20.8243L8.8125 13.7419C10.2291 13.6485 11.2734 13.4177 12.1406 13.0942Z" fill="black" fill-opacity="0.85"/>
  <path d="M16.4062 5.90634C16.4062 8.49618 14.8828 10.3009 12.9609 11.4142C12.0797 11.9104 11.1172 12.2879 9.57375 12.4683C9.81384 11.9086 9.94922 11.2594 9.94922 10.5235C9.94922 8.14979 8.00393 5.73773 5.30652 5.30476C5.54592 4.84511 5.80017 4.46277 5.97656 4.24228C7.47656 2.15634 9.70312 1.17197 11.7188 1.1954C14.2969 1.21884 16.4062 2.91806 16.4062 5.90634ZM13.1719 3.90243L11.4492 5.35556C11.2031 5.55478 11.1797 5.90634 11.3789 6.15243C11.5781 6.39853 11.9297 6.42197 12.1641 6.22275L13.8984 4.76962C14.1445 4.5704 14.1562 4.21884 13.957 3.98447C13.7695 3.73837 13.4062 3.70322 13.1719 3.90243Z" fill="black" fill-opacity="0.85"/>
  <path d="M5.39062 13.922C7.21875 13.922 8.82422 12.797 8.82422 10.5235C8.82422 8.49618 6.91406 6.35165 4.42969 6.35165C2.33203 6.35165 1.125 8.01572 1.125 9.71493C1.125 12.2579 3.29297 13.922 5.39062 13.922ZM4.81641 12.1407C4.47656 12.4337 3.92578 12.1407 3.22266 11.3087C2.54297 10.4767 2.36719 9.90243 2.69531 9.62118C3.04688 9.3165 3.58594 9.59775 4.28906 10.4415C4.95703 11.297 5.14453 11.8595 4.81641 12.1407Z" fill="black" fill-opacity="0.425"/>
 </g>
</svg>
