<?xml version="1.0" encoding="UTF-8"?>
<!--Generator: Apple Native CoreSVG 360-->
<!DOCTYPE svg
PUBLIC "-//W3C//DTD SVG 1.1//EN"
       "http://www.w3.org/Graphics/SVG/1.1/DTD/svg11.dtd">
<svg version="1.1" xmlns="http://www.w3.org/2000/svg" xmlns:xlink="http://www.w3.org/1999/xlink" viewBox="0 0 10.5703 22.8633">
 <g>
  <rect height="22.8633" opacity="0" width="10.5703" x="0" y="0"/>
  <path d="M5.15625 9.50391C7.89844 9.52734 10.2539 7.37109 10.2188 4.73438C10.1836 2.13281 7.89844 0 5.15625 0C2.63672 0 1.08984 1.55859 0.351562 2.64844C0.105469 3.02344 0 3.43359 0 3.89062L0 5.61328C0 6.07031 0.117188 6.48047 0.351562 6.85547C1.06641 7.94531 2.63672 9.46875 5.15625 9.50391ZM2.13281 6.60938C1.82812 6.60938 1.58203 6.36328 1.58203 6.04688L1.58203 3.44531C1.58203 3.12891 1.82812 2.88281 2.13281 2.88281C2.46094 2.88281 2.69531 3.12891 2.69531 3.44531L2.69531 6.04688C2.69531 6.36328 2.46094 6.60938 2.13281 6.60938ZM5.75391 18.9609L9.05859 18.9609L9.05859 9.32812C8.13281 10.043 6.98438 10.5117 5.75391 10.6055ZM6.90234 22.8281L7.89844 22.8281C8.61328 22.8281 9.05859 22.4766 9.05859 21.7852L9.05859 20.1328L5.75391 20.1328L5.75391 21.7852C5.75391 22.4766 6.21094 22.8281 6.90234 22.8281Z" fill="black" fill-opacity="0.85"/>
 </g>
</svg>
