<?xml version="1.0" encoding="UTF-8"?>
<!--Generator: Apple Native CoreSVG 360-->
<!DOCTYPE svg
PUBLIC "-//W3C//DTD SVG 1.1//EN"
       "http://www.w3.org/Graphics/SVG/1.1/DTD/svg11.dtd">
<svg version="1.1" xmlns="http://www.w3.org/2000/svg" xmlns:xlink="http://www.w3.org/1999/xlink" viewBox="0 0 35.5195 21.4805">
 <g>
  <rect height="21.4805" opacity="0" width="35.5195" x="0" y="0"/>
  <path d="M7.32422 12.4102C8.23828 12.4102 8.98828 11.6602 8.98828 10.7461C8.98828 9.83203 8.23828 9.08203 7.32422 9.08203C6.41016 9.08203 5.66016 9.83203 5.66016 10.7461C5.66016 11.6602 6.41016 12.4102 7.32422 12.4102ZM1.66406 12.4102C2.57812 12.4102 3.32812 11.6602 3.32812 10.7461C3.32812 9.83203 2.57812 9.08203 1.66406 9.08203C0.75 9.08203 0 9.83203 0 10.7461C0 11.6602 0.75 12.4102 1.66406 12.4102Z" fill="black" fill-opacity="0.85"/>
  <path d="M35.168 10.7344C35.1562 9.50391 33.4688 8.61328 31.4648 8.61328L27.2109 8.61328C26.625 8.61328 26.4023 8.50781 26.0508 8.10938L18.9609 0.375C18.7383 0.128906 18.4688 0 18.1523 0L16.9336 0C16.6523 0 16.5 0.246094 16.6289 0.539062L20.2734 8.61328L14.9297 9.21094L13.0195 5.71875C12.8672 5.46094 12.6562 5.34375 12.3047 5.34375L11.8477 5.34375C11.5664 5.34375 11.3906 5.51953 11.3906 5.78906L11.3906 15.6797C11.3906 15.9609 11.5664 16.125 11.8477 16.125L12.3047 16.125C12.6562 16.125 12.8672 16.0195 13.0195 15.7617L14.9297 12.2578L20.2734 12.8672L16.6289 20.9414C16.5 21.2227 16.6523 21.4688 16.9336 21.4688L18.1523 21.4688C18.4688 21.4688 18.7383 21.3398 18.9609 21.0938L26.0508 13.3594C26.4023 12.9609 26.625 12.8672 27.2109 12.8672L31.4648 12.8672C33.4688 12.8672 35.1562 11.9648 35.168 10.7344Z" fill="black" fill-opacity="0.85"/>
 </g>
</svg>
