<?xml version="1.0" encoding="UTF-8"?>
<!--Generator: Apple Native CoreSVG 360-->
<!DOCTYPE svg
PUBLIC "-//W3C//DTD SVG 1.1//EN"
       "http://www.w3.org/Graphics/SVG/1.1/DTD/svg11.dtd">
<svg version="1.1" xmlns="http://www.w3.org/2000/svg" xmlns:xlink="http://www.w3.org/1999/xlink" viewBox="0 0 24.3516 24.0117">
 <g>
  <rect height="24.0117" opacity="0" width="24.3516" x="0" y="0"/>
  <path d="M0 12C0 15.3867 1.41797 18.4453 3.67969 20.6133C3.82031 20.7539 3.98438 20.7539 4.11328 20.6016L4.66406 19.9922C4.79297 19.8398 4.78125 19.6992 4.64062 19.5586C2.67188 17.6484 1.42969 14.9531 1.42969 12C1.42969 6.23438 6.21094 1.44141 12 1.44141C17.7891 1.44141 22.5703 6.23438 22.5703 12C22.5703 14.9531 21.3164 17.6484 19.3477 19.5586C19.207 19.6992 19.1953 19.8398 19.3242 20.0039L19.875 20.6133C20.0039 20.7656 20.1562 20.7656 20.2969 20.625C22.5703 18.457 24 15.3867 24 12C24 5.42578 18.6211 0 12 0C5.37891 0 0 5.42578 0 12Z" fill="black" fill-opacity="0.85"/>
  <path d="M3.41016 12C3.41016 14.3672 4.38281 16.4883 5.94141 18.0469C6.08203 18.1992 6.25781 18.1875 6.38672 18.0469L6.92578 17.4492C7.07812 17.2969 7.05469 17.1445 6.91406 16.9922C5.63672 15.7148 4.85156 13.9453 4.85156 12C4.85156 8.08594 8.07422 4.85156 12 4.85156C15.9258 4.85156 19.1484 8.08594 19.1484 12C19.1484 13.9453 18.3516 15.7266 17.0742 16.9922C16.9336 17.1445 16.9102 17.2969 17.0625 17.4492L17.6133 18.0586C17.7422 18.1992 17.9062 18.2109 18.0469 18.0586C19.6172 16.5 20.5898 14.3672 20.5898 12C20.5898 7.28906 16.7344 3.41016 12 3.41016C7.26562 3.41016 3.41016 7.28906 3.41016 12Z" fill="black" fill-opacity="0.85"/>
  <path d="M6.82031 12C6.82031 13.3359 7.34766 14.5547 8.20312 15.4688C8.33203 15.6094 8.49609 15.6094 8.63672 15.457L9.19922 14.8711C9.33984 14.7305 9.32812 14.5781 9.22266 14.4258C8.625 13.793 8.26172 12.9258 8.26172 12C8.26172 9.96094 9.96094 8.26172 12 8.26172C14.0391 8.26172 15.7383 9.96094 15.7383 12C15.7383 12.9375 15.375 13.8047 14.7656 14.4375C14.6484 14.5898 14.6367 14.7422 14.7891 14.8828L15.3516 15.4688C15.4922 15.6211 15.6445 15.6211 15.7734 15.4688C16.6523 14.5664 17.1797 13.3477 17.1797 12C17.1797 9.16406 14.8477 6.82031 12 6.82031C9.15234 6.82031 6.82031 9.16406 6.82031 12Z" fill="black" fill-opacity="0.85"/>
  <path d="M4.82812 23.6016L19.1484 23.6016C19.6992 23.6016 19.9102 23.0273 19.5703 22.6406L12.4922 14.6367C12.2227 14.332 11.7539 14.332 11.4844 14.6367L4.41797 22.6406C4.06641 23.0391 4.27734 23.6016 4.82812 23.6016Z" fill="black" fill-opacity="0.85"/>
 </g>
</svg>
