<?xml version="1.0" encoding="UTF-8"?>
<!--Generator: Apple Native CoreSVG 360-->
<!DOCTYPE svg
PUBLIC "-//W3C//DTD SVG 1.1//EN"
       "http://www.w3.org/Graphics/SVG/1.1/DTD/svg11.dtd">
<svg version="1.1" xmlns="http://www.w3.org/2000/svg" xmlns:xlink="http://www.w3.org/1999/xlink" viewBox="0 0 13.2891 20.6133">
 <g>
  <rect height="20.6133" opacity="0" width="13.2891" x="0" y="0"/>
  <path d="M7.88672 0.0820312C4.30078 0.0820312 0 3.65625 0 7.13672C0 10.0195 2.88281 12.293 5.21484 12.2812C8.46094 12.2695 12.9375 8.50781 12.9375 5.36719C12.9375 2.33203 10.5938 0.0820312 7.88672 0.0820312ZM4.10156 10.6641C3.44531 10.6641 2.4375 9.84375 1.80469 8.82422C1.18359 7.78125 1.20703 6.97266 1.86328 6.97266C2.50781 6.97266 3.52734 7.78125 4.14844 8.82422C4.76953 9.84375 4.74609 10.6641 4.10156 10.6641ZM7.37109 5.4375C6.99609 4.91016 7.125 4.20703 7.64062 3.84375L9.26953 2.66016C9.77344 2.28516 10.4883 2.41406 10.8398 2.94141C11.2383 3.45703 11.1211 4.13672 10.6055 4.52344L8.97656 5.68359C8.4375 6.07031 7.72266 5.95312 7.37109 5.4375ZM8.46094 20.6133L9.92578 20.6133C10.6523 20.6133 11.1328 20.2383 11.1328 19.5234L11.1328 10.7695C9.98438 11.8008 8.625 12.6211 7.25391 13.0547L7.25391 19.5234C7.25391 20.2383 7.72266 20.6133 8.46094 20.6133Z" fill="black" fill-opacity="0.85"/>
 </g>
</svg>
