<?xml version="1.0" encoding="UTF-8"?>
<!--Generator: Apple Native CoreSVG 360-->
<!DOCTYPE svg
PUBLIC "-//W3C//DTD SVG 1.1//EN"
       "http://www.w3.org/Graphics/SVG/1.1/DTD/svg11.dtd">
<svg version="1.1" xmlns="http://www.w3.org/2000/svg" xmlns:xlink="http://www.w3.org/1999/xlink" viewBox="0 0 31.1367 23.1686">
 <g>
  <rect height="23.1686" opacity="0" width="31.1367" x="0" y="0"/>
  <path d="M10.6758 20.637C10.6758 21.5745 10.0664 22.055 9.15234 22.055L8.10938 22.055C7.19531 22.055 6.57422 21.6449 6.57422 20.637L6.57422 14.0652C8.08222 13.894 9.46788 13.4673 10.6758 12.8538ZM24.2109 14.0652L24.2109 20.637C24.2109 21.6449 23.5898 22.055 22.6758 22.055L21.6328 22.055C20.7188 22.055 20.1094 21.5745 20.1094 20.637L20.1094 12.8538C21.3173 13.4673 22.7029 13.894 24.2109 14.0652Z" fill="black" fill-opacity="0.85"/>
  <path d="M14.5898 5.87142C14.5898 8.31788 12.741 10.7359 9.41851 11.9676C9.81744 11.2401 10.043 10.3262 10.043 9.23471C10.043 6.60971 7.60547 3.6683 4.39453 3.6683C4.35567 3.6683 4.31703 3.66879 4.28087 3.67463C6.01975 1.82086 8.09645 1.11528 9.78516 1.12533C12.4805 1.14877 14.5898 3.14096 14.5898 5.87142ZM26.5043 3.67463C26.4681 3.66879 26.4295 3.6683 26.3906 3.6683C23.1797 3.6683 20.7422 6.60971 20.7422 9.23471C20.7422 10.3262 20.9677 11.2401 21.3666 11.9676C18.0441 10.7359 16.1953 8.31788 16.1953 5.87142C16.1953 3.14096 18.3047 1.14877 21 1.12533C22.6887 1.11528 24.7654 1.82086 26.5043 3.67463ZM11.332 3.38705L10.875 3.70346C10.4766 3.99642 10.3945 4.51205 10.6992 4.92221C10.9453 5.30892 11.4844 5.37924 11.8945 5.09799L12.3398 4.78158C12.7383 4.50033 12.8203 3.99642 12.5391 3.60971C12.2461 3.21127 11.7422 3.09408 11.332 3.38705ZM18.2461 3.60971C17.9648 3.99642 18.0469 4.50033 18.4453 4.78158L18.8906 5.09799C19.3008 5.37924 19.8398 5.30892 20.0859 4.92221C20.3906 4.51205 20.3086 3.99642 19.9102 3.70346L19.4531 3.38705C19.043 3.09408 18.5391 3.21127 18.2461 3.60971Z" fill="black" fill-opacity="0.85"/>
  <path d="M5.56641 13.0081C7.48828 13.0081 8.91797 11.7894 8.91797 9.23471C8.91797 7.18392 6.9375 4.80502 4.39453 4.80502C2.37891 4.80502 1.13672 6.62142 1.13672 8.36752C1.13672 10.723 3.19922 13.0081 5.56641 13.0081ZM4.75781 10.6058C3.9375 10.6058 3.04688 9.41049 3.04688 8.63705C3.04688 8.10971 3.28125 7.94564 3.57422 7.94564C4.3125 7.94564 5.17969 9.14096 5.19141 9.96127C5.20312 10.4417 5.0625 10.6058 4.75781 10.6058ZM25.2188 13.0081C27.5859 13.0081 29.6484 10.723 29.6484 8.36752C29.6484 6.62142 28.4062 4.80502 26.3906 4.80502C23.8477 4.80502 21.8672 7.18392 21.8672 9.23471C21.8672 11.7894 23.2969 13.0081 25.2188 13.0081ZM26.0273 10.6058C25.7227 10.6058 25.582 10.4417 25.5938 9.96127C25.6055 9.14096 26.4727 7.94564 27.2109 7.94564C27.5039 7.94564 27.7383 8.10971 27.7383 8.63705C27.7383 9.41049 26.8477 10.6058 26.0273 10.6058Z" fill="black" fill-opacity="0.425"/>
 </g>
</svg>
