<?xml version="1.0" encoding="UTF-8"?>
<!--Generator: Apple Native CoreSVG 360-->
<!DOCTYPE svg
PUBLIC "-//W3C//DTD SVG 1.1//EN"
       "http://www.w3.org/Graphics/SVG/1.1/DTD/svg11.dtd">
<svg version="1.1" xmlns="http://www.w3.org/2000/svg" xmlns:xlink="http://www.w3.org/1999/xlink" viewBox="0 0 48.5742 20.4492">
 <g>
  <rect height="20.4492" opacity="0" width="48.5742" x="0" y="0"/>
  <path d="M4.52344 18.2344C4.89844 17.8125 4.78125 17.2617 4.35938 16.7812C2.78906 15.0352 1.91016 12.7383 1.91016 10.2188C1.91016 7.69922 2.78906 5.40234 4.35938 3.65625C4.78125 3.17578 4.89844 2.625 4.52344 2.20312C4.14844 1.75781 3.49219 1.76953 3.04688 2.26172C1.10156 4.37109 0 7.18359 0 10.2188C0 13.2539 1.10156 16.0547 3.04688 18.1758C3.49219 18.668 4.14844 18.668 4.52344 18.2344ZM43.6992 18.2344C44.0742 18.668 44.7305 18.668 45.1875 18.1758C47.1328 16.0547 48.2227 13.2539 48.2227 10.2188C48.2227 7.18359 47.1328 4.37109 45.1875 2.26172C44.7305 1.76953 44.0742 1.75781 43.6992 2.20312C43.3242 2.625 43.4414 3.17578 43.8633 3.65625C45.4336 5.40234 46.3125 7.69922 46.3125 10.2188C46.3125 12.7383 45.4336 15.0352 43.8633 16.7812C43.4414 17.2617 43.3242 17.8125 43.6992 18.2344Z" fill="black" fill-opacity="0.85"/>
  <path d="M7.80469 14.8945C8.17969 14.4727 8.02734 13.9453 7.65234 13.4414C6.94922 12.5625 6.60938 11.4375 6.60938 10.2188C6.60938 9 6.94922 7.86328 7.65234 6.99609C8.02734 6.49219 8.17969 5.96484 7.80469 5.54297C7.41797 5.09766 6.71484 5.09766 6.30469 5.625C5.28516 6.89062 4.69922 8.49609 4.69922 10.2188C4.69922 11.9414 5.28516 13.5469 6.30469 14.8125C6.71484 15.3398 7.41797 15.3281 7.80469 14.8945ZM40.418 14.8945C40.8047 15.3281 41.5078 15.3398 41.918 14.8125C42.9375 13.5469 43.5352 11.9414 43.5352 10.2188C43.5352 8.49609 42.9375 6.89062 41.918 5.625C41.5078 5.09766 40.8047 5.09766 40.418 5.54297C40.043 5.96484 40.1953 6.49219 40.5703 6.99609C41.2734 7.86328 41.625 9 41.625 10.2188C41.625 11.4375 41.2734 12.5625 40.5703 13.4414C40.1953 13.9453 40.043 14.4727 40.418 14.8945Z" fill="black" fill-opacity="0.85"/>
  <path d="M17.9531 20.4375L30.2695 20.4375C35.0625 20.4375 37.3828 18.1406 37.3828 13.3711L37.3828 7.80469L30.1289 7.80469C29.918 8.33203 29.4258 8.67188 28.8047 8.67188L19.418 8.67188C18.8086 8.67188 18.3047 8.33203 18.1172 7.80469L10.8398 7.80469L10.8398 13.3711C10.8398 18.1406 13.1602 20.4375 17.9531 20.4375ZM24.1172 13.1367C23.5195 13.1484 23.0391 12.6562 23.0391 12.082C23.0391 11.4961 23.5195 11.0039 24.1172 11.0039C24.7031 11.0039 25.1836 11.4961 25.1836 12.082C25.1836 12.6328 24.7031 13.125 24.1172 13.1367ZM10.8398 6.73828L18.0938 6.73828C18.2812 6.19922 18.7852 5.87109 19.3945 5.87109L28.793 5.87109C29.4023 5.87109 29.9062 6.19922 30.1055 6.73828L37.3477 6.73828L37.3477 6.36328C37.3477 2.08594 34.8047 0 30.2344 0L17.9531 0C13.3828 0 10.8398 2.08594 10.8398 6.36328Z" fill="black" fill-opacity="0.85"/>
 </g>
</svg>
