<?xml version="1.0" encoding="UTF-8"?>
<!--Generator: Apple Native CoreSVG 360-->
<!DOCTYPE svg
PUBLIC "-//W3C//DTD SVG 1.1//EN"
       "http://www.w3.org/Graphics/SVG/1.1/DTD/svg11.dtd">
<svg version="1.1" xmlns="http://www.w3.org/2000/svg" xmlns:xlink="http://www.w3.org/1999/xlink" viewBox="0 0 28.875 23.8711">
 <g>
  <rect height="23.8711" opacity="0" width="28.875" x="0" y="0"/>
  <path d="M28.875 11.9297C28.8633 10.5586 27 9.5625 24.7617 9.5625L20.0391 9.5625C19.3828 9.5625 19.1367 9.45703 18.75 9.01172L10.875 0.421875C10.6289 0.140625 10.3242 0 9.97266 0L8.61328 0C8.30859 0 8.13281 0.269531 8.28516 0.597656L12.3398 9.5625L6.38672 10.2422L4.26562 6.35156C4.11328 6.05859 3.85547 5.92969 3.46875 5.92969L2.96484 5.92969C2.66016 5.92969 2.46094 6.12891 2.46094 6.43359L2.46094 17.4258C2.46094 17.7305 2.66016 17.918 2.96484 17.918L3.46875 17.918C3.85547 17.918 4.11328 17.7891 4.26562 17.5078L6.38672 13.6172L12.3398 14.2969L8.28516 23.2617C8.13281 23.5781 8.30859 23.8594 8.61328 23.8594L9.97266 23.8594C10.3242 23.8594 10.6289 23.707 10.875 23.4375L18.75 14.8359C19.1367 14.4023 19.3828 14.2969 20.0391 14.2969L24.7617 14.2969C27 14.2969 28.8633 13.2891 28.875 11.9297Z" fill="black" fill-opacity="0.85"/>
 </g>
</svg>
