<?xml version="1.0" encoding="UTF-8"?>
<!--Generator: Apple Native CoreSVG 360-->
<!DOCTYPE svg
PUBLIC "-//W3C//DTD SVG 1.1//EN"
       "http://www.w3.org/Graphics/SVG/1.1/DTD/svg11.dtd">
<svg version="1.1" xmlns="http://www.w3.org/2000/svg" xmlns:xlink="http://www.w3.org/1999/xlink" viewBox="0 0 30.3697 15.1289">
 <g>
  <rect height="15.1289" opacity="0" width="30.3697" x="0" y="0"/>
  <path d="M3.44854 15.1289L28.7259 15.1289C29.2415 15.1289 29.6751 14.6953 29.6751 14.1797C29.6751 13.6641 29.2415 13.2422 28.7259 13.2422L3.44854 13.2422C2.93291 13.2422 2.49932 13.6641 2.49932 14.1797C2.49932 14.6953 2.93291 15.1289 3.44854 15.1289Z" fill="black" fill-opacity="0.85"/>
  <path d="M5.28838 8.19141L25.5384 8.19141C27.9993 8.19141 30.1556 6.9375 30.0032 5.14453C29.8392 3.50391 27.6829 2.44922 25.3978 2.625L6.929 4.03125L1.59697 0.375C1.31572 0.175781 1.08135 0.152344 0.682911 0.363281L0.249317 0.574219C0.00322331 0.703125-0.0553704 0.925781 0.0500983 1.16016L3.0501 7.13672C3.41338 7.86328 4.18682 8.19141 5.28838 8.19141ZM12.6712 5.77734L12.6712 8.4375C12.6712 9.59766 13.3274 10.2539 14.4759 10.2539L21.5892 10.2539C22.7376 10.2539 23.4173 9.59766 23.4173 8.4375L23.4173 5.77734Z" fill="black" fill-opacity="0.85"/>
 </g>
</svg>
