<?xml version="1.0" encoding="UTF-8"?>
<!--Generator: Apple Native CoreSVG 360-->
<!DOCTYPE svg
PUBLIC "-//W3C//DTD SVG 1.1//EN"
       "http://www.w3.org/Graphics/SVG/1.1/DTD/svg11.dtd">
<svg version="1.1" xmlns="http://www.w3.org/2000/svg" xmlns:xlink="http://www.w3.org/1999/xlink" viewBox="0 0 33.1406 20.0508">
 <g>
  <rect height="20.0508" opacity="0" width="33.1406" x="0" y="0"/>
  <path d="M0 16.7578C0 18.9141 1.13672 20.0391 3.32812 20.0391L29.4609 20.0391C31.6523 20.0391 32.7891 18.9141 32.7891 16.7578L32.7891 12.8672C32.7891 12.4688 32.543 12.2344 32.1445 12.2344L31.8398 12.2344C30.6211 12.2344 29.6367 11.2383 29.6367 10.0195C29.6367 8.80078 30.6211 7.80469 31.8398 7.80469L32.1445 7.80469C32.543 7.80469 32.7891 7.57031 32.7891 7.17188L32.7891 3.26953C32.7891 1.125 31.6523 0 29.4609 0L3.32812 0C1.13672 0 0 1.125 0 3.26953L0 7.17188C0 7.57031 0.246094 7.80469 0.644531 7.80469L0.9375 7.80469C2.16797 7.80469 3.15234 8.80078 3.15234 10.0195C3.15234 11.2383 2.16797 12.2344 0.9375 12.2344L0.644531 12.2344C0.246094 12.2344 0 12.4688 0 12.8672ZM1.88672 16.6641L1.88672 12.8906L1.24219 13.9805C3.28125 13.8164 4.89844 12.1055 4.89844 10.0195C4.89844 7.93359 3.28125 6.22266 1.24219 6.05859L1.88672 7.14844L1.88672 3.375C1.88672 2.39062 2.37891 1.88672 3.35156 1.88672L29.4375 1.88672C30.3984 1.88672 30.9023 2.39062 30.9023 3.375L30.9023 7.14844L31.5469 6.05859C29.5078 6.22266 27.8906 7.93359 27.8906 10.0195C27.8906 12.1055 29.5078 13.8164 31.5469 13.9805L30.9023 12.8906L30.9023 16.6641C30.9023 17.6484 30.3984 18.1523 29.4375 18.1523L3.35156 18.1523C2.37891 18.1523 1.88672 17.6484 1.88672 16.6641ZM23.9883 5.83594L25.5234 5.83594L25.5234 0.820312L23.9883 0.820312ZM23.9883 12.5391L25.5234 12.5391L25.5234 7.52344L23.9883 7.52344ZM23.9883 19.2422L25.5234 19.2422L25.5234 14.2266L23.9883 14.2266Z" fill="black" fill-opacity="0.85"/>
  <path d="M21.4336 10.0312C21.4336 9.24609 20.4023 8.66016 19.125 8.66016L16.6172 8.66016C16.3125 8.66016 16.2188 8.61328 16.0195 8.40234L11.8477 3.85547C11.6953 3.67969 11.5078 3.59766 11.2969 3.59766L10.5703 3.59766C10.3359 3.59766 10.1836 3.83203 10.2891 4.07812L12.375 8.68359L9.46875 9.01172L8.37891 7.01953C8.27344 6.83203 8.09766 6.73828 7.85156 6.73828L7.57031 6.73828C7.35938 6.73828 7.19531 6.89062 7.19531 7.11328L7.19531 12.9375C7.19531 13.1602 7.35938 13.3242 7.57031 13.3242L7.85156 13.3242C8.09766 13.3242 8.27344 13.2305 8.37891 13.043L9.46875 11.0508L12.375 11.3789L10.2891 15.9844C10.1836 16.2305 10.3359 16.4648 10.5703 16.4648L11.2969 16.4648C11.5078 16.4648 11.6953 16.3711 11.8477 16.207L16.0195 11.6602C16.2188 11.4492 16.3125 11.4023 16.6172 11.4023L19.125 11.4023C20.4023 11.4023 21.4336 10.8164 21.4336 10.0312Z" fill="black" fill-opacity="0.85"/>
 </g>
</svg>
