<?xml version="1.0" encoding="UTF-8"?>
<!--Generator: Apple Native CoreSVG 360-->
<!DOCTYPE svg
PUBLIC "-//W3C//DTD SVG 1.1//EN"
       "http://www.w3.org/Graphics/SVG/1.1/DTD/svg11.dtd">
<svg version="1.1" xmlns="http://www.w3.org/2000/svg" xmlns:xlink="http://www.w3.org/1999/xlink" viewBox="0 0 22.5469 20.4492">
 <g>
  <rect height="20.4492" opacity="0" width="22.5469" x="0" y="0"/>
  <path d="M7.17188 20.4375L15.0234 20.4375C19.8164 20.4375 22.1953 18.0703 22.1953 13.3008L22.1953 7.13672C22.1953 2.36719 19.8164 0 15.0234 0L7.17188 0C2.37891 0 0 2.36719 0 7.13672L0 13.3008C0 18.0703 2.37891 20.4375 7.17188 20.4375ZM7.17188 18.5508C3.5625 18.5508 1.88672 16.8867 1.88672 13.3008L1.88672 7.13672C1.88672 3.55078 3.5625 1.88672 7.17188 1.88672L15.0234 1.88672C18.6328 1.88672 20.3086 3.55078 20.3086 7.13672L20.3086 13.3008C20.3086 16.8867 18.6328 18.5508 15.0234 18.5508ZM0.726562 6.84375L21.1289 6.84375L21.1289 5.66016L0.726562 5.66016ZM7.48828 7.65234L14.6484 7.65234C15.4688 7.65234 16.0547 7.07812 16.0547 6.25781C16.0547 5.4375 15.4688 4.86328 14.6484 4.86328L7.48828 4.86328C6.69141 4.86328 6.08203 5.4375 6.08203 6.25781C6.08203 7.07812 6.69141 7.65234 7.48828 7.65234ZM11.0977 11.6602C11.7188 11.6367 12.2344 11.1211 12.2344 10.5352C12.2344 9.91406 11.7188 9.41016 11.0977 9.41016C10.4766 9.41016 9.96094 9.91406 9.96094 10.5352C9.96094 11.1445 10.4766 11.6719 11.0977 11.6602Z" fill="black" fill-opacity="0.85"/>
 </g>
</svg>
