<?xml version="1.0" encoding="UTF-8"?>
<!--Generator: Apple Native CoreSVG 360-->
<!DOCTYPE svg
PUBLIC "-//W3C//DTD SVG 1.1//EN"
       "http://www.w3.org/Graphics/SVG/1.1/DTD/svg11.dtd">
<svg version="1.1" xmlns="http://www.w3.org/2000/svg" xmlns:xlink="http://www.w3.org/1999/xlink" viewBox="0 0 31.6055 20.5898">
 <g>
  <rect height="20.5898" opacity="0" width="31.6055" x="0" y="0"/>
  <path d="M26.7188 18.3047C27.1055 18.7383 27.75 18.7383 28.207 18.2461C30.1523 16.125 31.2539 13.3242 31.2539 10.2891C31.2539 7.25391 30.1523 4.44141 28.207 2.33203C27.75 1.83984 27.1055 1.82812 26.7188 2.27344C26.3438 2.69531 26.4609 3.24609 26.8945 3.72656C28.4648 5.47266 29.3438 7.76953 29.3438 10.2891C29.3438 12.8086 28.4648 15.1055 26.8945 16.8516C26.4609 17.332 26.3438 17.8828 26.7188 18.3047Z" fill="black" fill-opacity="0.85"/>
  <path d="M23.4375 14.9648C23.8242 15.3984 24.5273 15.4102 24.9492 14.8828C25.9688 13.6172 26.5547 12.0117 26.5547 10.2891C26.5547 8.56641 25.9688 6.96094 24.9492 5.69531C24.5273 5.16797 23.8242 5.16797 23.4375 5.61328C23.0625 6.03516 23.2266 6.5625 23.5898 7.06641C24.293 7.93359 24.6445 9.07031 24.6445 10.2891C24.6445 11.5078 24.293 12.6328 23.5898 13.5117C23.2266 14.0156 23.0625 14.543 23.4375 14.9648Z" fill="black" fill-opacity="0.85"/>
  <path d="M10.2891 20.5664C15.9609 20.5664 20.5664 15.9727 20.5664 10.2891C20.5664 4.60547 15.9609 0 10.2891 0C4.60547 0 0 4.60547 0 10.2891C0 15.9727 4.60547 20.5664 10.2891 20.5664ZM10.2891 18.6797C5.64844 18.6797 1.88672 14.9297 1.88672 10.2891C1.88672 5.64844 5.64844 1.88672 10.2891 1.88672C14.918 1.88672 18.6797 5.64844 18.6797 10.2891C18.6797 14.9297 14.918 18.6797 10.2891 18.6797ZM10.2773 13.6641C10.9688 13.6641 11.1211 14.0156 11.7188 14.0156C12.3281 14.0156 12.7266 13.4648 13.1133 12.9258C13.5352 12.3047 13.7109 11.6953 13.7109 11.6719C13.6758 11.6602 12.5273 11.1914 12.5273 9.87891C12.5273 8.73047 13.4297 8.22656 13.4766 8.17969C12.8906 7.32422 11.9766 7.3125 11.7188 7.3125C11.0625 7.3125 10.5234 7.71094 10.1602 7.71094C9.79688 7.71094 9.31641 7.32422 8.73047 7.32422C7.61719 7.32422 6.50391 8.25 6.50391 9.96094C6.50391 11.0391 6.92578 12.1758 7.42969 12.9023C7.86328 13.5234 8.25 14.0273 8.8125 14.0273C9.35156 14.0273 9.59766 13.6641 10.2773 13.6641ZM11.4141 6.57422C11.6836 6.24609 11.8828 5.80078 11.8828 5.33203C11.8828 5.27344 11.8828 5.21484 11.8711 5.16797C11.4141 5.17969 10.8867 5.46094 10.5703 5.83594C10.3242 6.12891 10.0781 6.57422 10.0781 7.04297C10.0781 7.10156 10.0898 7.17188 10.0898 7.19531C10.125 7.19531 10.1602 7.20703 10.207 7.20703C10.6172 7.20703 11.1211 6.9375 11.4141 6.57422Z" fill="black" fill-opacity="0.85"/>
 </g>
</svg>
