<?xml version="1.0" encoding="UTF-8"?>
<!--Generator: Apple Native CoreSVG 360-->
<!DOCTYPE svg
PUBLIC "-//W3C//DTD SVG 1.1//EN"
       "http://www.w3.org/Graphics/SVG/1.1/DTD/svg11.dtd">
<svg version="1.1" xmlns="http://www.w3.org/2000/svg" xmlns:xlink="http://www.w3.org/1999/xlink" viewBox="0 0 24.2578 23.918">
 <g>
  <rect height="23.918" opacity="0" width="24.2578" x="0" y="0"/>
  <path d="M11.9531 23.9062C18.5508 23.9062 23.9062 18.5508 23.9062 11.9531C23.9062 5.35547 18.5508 0 11.9531 0C5.35547 0 0 5.35547 0 11.9531C0 18.5508 5.35547 23.9062 11.9531 23.9062ZM11.9648 21.8438C6.49219 21.8438 2.07422 17.4258 2.07422 11.9531C2.07422 6.48047 6.49219 2.05078 11.9648 2.05078C17.4375 2.05078 21.8672 6.48047 21.8672 11.9531C21.8672 17.4258 17.4375 21.8438 11.9648 21.8438ZM11.9531 20.7188C16.793 20.7188 20.7188 16.7812 20.7188 11.9531C20.7188 7.11328 16.793 3.1875 11.9531 3.1875C7.11328 3.1875 3.1875 7.11328 3.1875 11.9531C3.1875 16.7812 7.11328 20.7188 11.9531 20.7188ZM11.9531 19.6523C7.71094 19.6523 4.25391 16.1953 4.25391 11.9531C4.25391 7.69922 7.71094 4.25391 11.9531 4.25391C16.207 4.25391 19.6523 7.69922 19.6523 11.9531C19.6523 16.1953 16.207 19.6523 11.9531 19.6523ZM12.0469 15.1172C12.7148 15.1172 12.8555 15.457 13.4414 15.457C14.0156 15.457 14.4023 14.9297 14.7656 14.4141C15.1758 13.8281 15.3398 13.2422 15.3398 13.2188C15.3047 13.207 14.2148 12.7617 14.2148 11.4961C14.2148 10.4062 15.0703 9.92578 15.1172 9.87891C14.5547 9.05859 13.6875 9.04688 13.4414 9.04688C12.7969 9.04688 12.2812 9.43359 11.9414 9.43359C11.5898 9.43359 11.1328 9.05859 10.5703 9.05859C9.51562 9.05859 8.4375 9.9375 8.4375 11.5781C8.4375 12.6211 8.84766 13.6992 9.32812 14.3906C9.75 14.9883 10.1133 15.4688 10.6523 15.4688C11.168 15.4688 11.4023 15.1172 12.0469 15.1172ZM13.1484 8.34375C13.4062 8.02734 13.5938 7.59375 13.5938 7.14844C13.5938 7.08984 13.5938 7.03125 13.582 6.98438C13.1484 6.99609 12.6328 7.26562 12.3281 7.62891C12.0938 7.92188 11.8594 8.34375 11.8594 8.78906C11.8594 8.84766 11.8711 8.91797 11.8711 8.94141C11.9062 8.94141 11.9414 8.95312 11.9883 8.95312C12.375 8.95312 12.8555 8.69531 13.1484 8.34375Z" fill="black" fill-opacity="0.85"/>
 </g>
</svg>
