<?xml version="1.0" encoding="UTF-8"?>
<!--Generator: Apple Native CoreSVG 360-->
<!DOCTYPE svg
PUBLIC "-//W3C//DTD SVG 1.1//EN"
       "http://www.w3.org/Graphics/SVG/1.1/DTD/svg11.dtd">
<svg version="1.1" xmlns="http://www.w3.org/2000/svg" xmlns:xlink="http://www.w3.org/1999/xlink" viewBox="0 0 29.0596 28.6231">
 <g>
  <rect height="28.6231" opacity="0" width="29.0596" x="0" y="0"/>
  <path d="M10.3323 13.919L9.02198 13.919C8.56495 13.919 8.21339 14.2823 8.21339 14.7393C8.21339 15.1963 8.56495 15.5479 9.02198 15.5479L11.9628 15.5479L20.216 23.7928C18.5164 24.8552 16.5061 25.4619 14.354 25.4619C11.8612 25.4619 9.55858 24.6478 7.70543 23.261L5.8462 25.1104C5.48292 25.4854 4.9087 25.4854 4.55714 25.1221C4.21729 24.7823 4.20557 24.208 4.56885 23.8565L6.3518 22.0923C4.3702 20.0755 3.15089 17.3096 3.15089 14.2588C3.15089 12.1116 3.7549 10.1041 4.81299 8.40514ZM25.5571 14.2588C25.5571 16.4796 24.911 18.5494 23.7883 20.285L15.1626 11.6636L15.1626 7.63772C15.1626 7.18069 14.7993 6.81741 14.3423 6.81741C13.8853 6.81741 13.5337 7.18069 13.5337 7.63772L13.5337 10.0355L8.31796 4.82231C10.0557 3.69402 12.1291 3.04397 14.354 3.04397C20.5415 3.04397 25.5571 8.07131 25.5571 14.2588ZM24.8423 4.45022C24.8423 4.88381 24.772 5.32913 24.6548 5.58694C24.5142 5.86819 24.2681 6.05569 23.9751 6.05569C23.7993 6.05569 23.6821 6.03225 23.5064 5.90335L19.5923 2.9385C19.3931 2.79788 19.2876 2.61038 19.2876 2.41116C19.2876 2.16506 19.4048 1.96585 19.604 1.77835C20.0493 1.37991 20.8462 1.15725 21.5493 1.15725C23.3892 1.15725 24.8423 2.6221 24.8423 4.45022ZM9.10401 1.77835C9.30323 1.96585 9.42042 2.16506 9.42042 2.41116C9.42042 2.61038 9.31495 2.79788 9.12745 2.9385L7.59279 4.09751L5.25491 1.76079C5.78992 1.37941 6.44676 1.15725 7.1587 1.15725C7.86182 1.15725 8.6587 1.37991 9.10401 1.77835Z" fill="black" fill-opacity="0.85"/>
  <path d="M25.4399 26.751C25.8032 27.1026 26.3774 27.1143 26.7173 26.751C27.0689 26.3994 27.0806 25.8252 26.7173 25.4737L3.15089 1.91897C2.79932 1.56741 2.2251 1.55569 1.86182 1.91897C1.52198 2.25881 1.52198 2.84475 1.86182 3.19631Z" fill="black" fill-opacity="0.85"/>
 </g>
</svg>
