<?xml version="1.0" encoding="UTF-8"?>
<!--Generator: Apple Native CoreSVG 360-->
<!DOCTYPE svg
PUBLIC "-//W3C//DTD SVG 1.1//EN"
       "http://www.w3.org/Graphics/SVG/1.1/DTD/svg11.dtd">
<svg version="1.1" xmlns="http://www.w3.org/2000/svg" xmlns:xlink="http://www.w3.org/1999/xlink" viewBox="0 0 42.3867 26.2383">
 <g>
  <rect height="26.2383" opacity="0" width="42.3867" x="0" y="0"/>
  <path d="M4.52344 21.1289C4.89844 20.707 4.78125 20.1562 4.35938 19.6758C2.78906 17.9297 1.91016 15.6328 1.91016 13.1133C1.91016 10.5938 2.78906 8.29688 4.35938 6.55078C4.78125 6.07031 4.89844 5.51953 4.52344 5.09766C4.14844 4.65234 3.49219 4.66406 3.04688 5.15625C1.10156 7.26562 0 10.0781 0 13.1133C0 16.1484 1.10156 18.9492 3.04688 21.0703C3.49219 21.5625 4.14844 21.5625 4.52344 21.1289ZM37.5 21.1289C37.8867 21.5625 38.5312 21.5625 38.9883 21.0703C40.9336 18.9492 42.0352 16.1484 42.0352 13.1133C42.0352 10.0781 40.9336 7.26562 38.9883 5.15625C38.5312 4.66406 37.8867 4.65234 37.5 5.09766C37.1367 5.51953 37.2422 6.07031 37.6758 6.55078C39.2461 8.29688 40.125 10.5938 40.125 13.1133C40.125 15.6328 39.2461 17.9297 37.6758 19.6758C37.2422 20.1562 37.1367 20.707 37.5 21.1289Z" fill="black" fill-opacity="0.85"/>
  <path d="M7.80469 17.7891C8.17969 17.3672 8.02734 16.8398 7.65234 16.3359C6.94922 15.457 6.60938 14.332 6.60938 13.1133C6.60938 11.8945 6.94922 10.7578 7.65234 9.89062C8.02734 9.38672 8.17969 8.85938 7.80469 8.4375C7.41797 7.99219 6.71484 7.99219 6.30469 8.51953C5.28516 9.78516 4.69922 11.3906 4.69922 13.1133C4.69922 14.8359 5.28516 16.4414 6.30469 17.707C6.71484 18.2344 7.41797 18.2227 7.80469 17.7891ZM34.2188 17.7891C34.6055 18.2227 35.3086 18.2344 35.7305 17.707C36.75 16.4414 37.3359 14.8359 37.3359 13.1133C37.3359 11.3906 36.75 9.78516 35.7305 8.51953C35.3086 7.99219 34.6055 7.99219 34.2188 8.4375C33.8438 8.85938 34.0078 9.38672 34.3711 9.89062C35.0742 10.7578 35.4258 11.8945 35.4258 13.1133C35.4258 14.332 35.0742 15.457 34.3711 16.3359C34.0078 16.8398 33.8438 17.3672 34.2188 17.7891Z" fill="black" fill-opacity="0.85"/>
  <path d="M21.0117 24.293C27.2109 24.293 32.2148 19.2773 32.2148 13.0898C32.2148 6.90234 27.2109 1.88672 21.0117 1.88672C14.8242 1.88672 9.80859 6.90234 9.80859 13.0898C9.80859 19.2773 14.8242 24.293 21.0117 24.293ZM21.0117 22.3008C15.9258 22.3008 11.8125 18.1758 11.8125 13.0898C11.8125 8.01562 15.9258 3.90234 21.0117 3.90234C26.0859 3.90234 30.2109 8.01562 30.2109 13.0898C30.2109 18.1758 26.0859 22.3008 21.0117 22.3008ZM11.3906 4.89844C11.5664 4.89844 11.6953 4.86328 11.8594 4.73438L15.7852 1.78125C15.9727 1.62891 16.0781 1.45312 16.0781 1.25391C16.0781 1.00781 15.9609 0.808594 15.7617 0.621094C15.3164 0.210938 14.5195 0 13.8281 0C11.9883 0 10.5234 1.46484 10.5234 3.28125C10.5234 3.72656 10.6055 4.16016 10.7227 4.42969C10.8516 4.71094 11.0977 4.89844 11.3906 4.89844ZM30.6445 4.89844C30.9258 4.89844 31.1719 4.69922 31.3125 4.42969C31.4414 4.17188 31.5 3.72656 31.5 3.28125C31.5 1.46484 30.0469 0 28.207 0C27.5039 0 26.7188 0.210938 26.2734 0.621094C26.0625 0.808594 25.9453 1.00781 25.9453 1.25391C25.9453 1.45312 26.0508 1.62891 26.25 1.78125L30.1758 4.73438C30.3398 4.86328 30.4688 4.89844 30.6445 4.89844ZM11.2148 23.9648C11.5664 24.3164 12.1406 24.3164 12.5039 23.9531L14.7188 21.75L13.4531 20.4844L11.2266 22.6992C10.8633 23.0508 10.875 23.625 11.2148 23.9648ZM30.8203 23.9648C31.1602 23.625 31.1719 23.0508 30.8086 22.6992L28.582 20.4844L27.3164 21.75L29.5195 23.9531C29.8828 24.3164 30.457 24.3164 30.8203 23.9648ZM15.6797 14.3906L21 14.3906C21.4688 14.3906 21.8203 14.0273 21.8203 13.5703L21.8203 6.46875C21.8203 6.01172 21.4688 5.66016 21 5.66016C20.5547 5.66016 20.1914 6.01172 20.1914 6.46875L20.1914 12.7617L15.6797 12.7617C15.2227 12.7617 14.8711 13.1133 14.8711 13.5703C14.8711 14.0273 15.2227 14.3906 15.6797 14.3906Z" fill="black" fill-opacity="0.85"/>
 </g>
</svg>
