<?xml version="1.0" encoding="UTF-8"?>
<!--Generator: Apple Native CoreSVG 360-->
<!DOCTYPE svg
PUBLIC "-//W3C//DTD SVG 1.1//EN"
       "http://www.w3.org/Graphics/SVG/1.1/DTD/svg11.dtd">
<svg version="1.1" xmlns="http://www.w3.org/2000/svg" xmlns:xlink="http://www.w3.org/1999/xlink" viewBox="0 0 27.5156 26.4492">
 <g>
  <rect height="26.4492" opacity="0" width="27.5156" x="0" y="0"/>
  <path d="M5.74219 26.4492L9.82031 26.4492C11.5312 26.4492 12.457 25.5117 12.457 23.7656L12.457 6.62109C12.457 4.88672 11.5312 3.9375 9.82031 3.9375L5.74219 3.9375C4.03125 3.9375 3.10547 4.88672 3.10547 6.62109L3.10547 23.7656C3.10547 25.5117 4.03125 26.4492 5.74219 26.4492ZM5.84766 24.6797C5.21484 24.6797 4.875 24.3398 4.875 23.7305L4.875 6.65625C4.875 6.05859 5.21484 5.70703 5.84766 5.70703L9.71484 5.70703C10.3477 5.70703 10.6875 6.05859 10.6875 6.65625L10.6875 23.7305C10.6875 24.3398 10.3477 24.6797 9.71484 24.6797ZM17.3672 18.1523L21.4453 18.1523C23.1445 18.1523 24.082 17.2148 24.082 15.4688L24.082 6.62109C24.082 4.88672 23.1445 3.9375 21.4453 3.9375L17.3672 3.9375C15.6562 3.9375 14.7188 4.88672 14.7188 6.62109L14.7188 15.4688C14.7188 17.2148 15.6562 18.1523 17.3672 18.1523ZM17.4609 16.3828C16.8398 16.3828 16.4883 16.043 16.4883 15.4336L16.4883 6.65625C16.4883 6.05859 16.8398 5.70703 17.4609 5.70703L21.3398 5.70703C21.9609 5.70703 22.3125 6.05859 22.3125 6.65625L22.3125 15.4336C22.3125 16.043 21.9609 16.3828 21.3398 16.3828Z" fill="black" fill-opacity="0.85"/>
  <path d="M0.820312 1.74609L26.3555 1.74609C26.8125 1.74609 27.1641 1.34766 27.1641 0.890625C27.1641 0.433594 26.8125 0.0234375 26.3555 0.0234375L0.820312 0.0234375C0.351562 0.0234375 0 0.433594 0 0.890625C0 1.34766 0.351562 1.74609 0.820312 1.74609Z" fill="black" fill-opacity="0.85"/>
 </g>
</svg>
