<?xml version="1.0" encoding="UTF-8"?>
<!--Generator: Apple Native CoreSVG 360-->
<!DOCTYPE svg
PUBLIC "-//W3C//DTD SVG 1.1//EN"
       "http://www.w3.org/Graphics/SVG/1.1/DTD/svg11.dtd">
<svg version="1.1" xmlns="http://www.w3.org/2000/svg" xmlns:xlink="http://www.w3.org/1999/xlink" viewBox="0 0 27.5156 22.582">
 <g>
  <rect height="22.582" opacity="0" width="27.5156" x="0" y="0"/>
  <path d="M3.10547 12.1758L0.820312 12.1758C0.351562 12.1758 0 11.7656 0 11.3086C0 10.8516 0.351562 10.4531 0.820312 10.4531L3.10547 10.4531ZM27.1641 11.3086C27.1641 11.7656 26.8125 12.1758 26.3555 12.1758L24.082 12.1758L24.082 10.4531L26.3555 10.4531C26.8125 10.4531 27.1641 10.8516 27.1641 11.3086ZM14.7187 12.1758L12.457 12.1758L12.457 10.4531L14.7187 10.4531Z" fill="black" fill-opacity="0.85"/>
  <path d="M5.74219 22.582L9.82031 22.582C11.5312 22.582 12.457 21.6211 12.457 19.875L12.457 2.74219C12.457 0.996094 11.5312 0.0585938 9.82031 0.0585938L5.74219 0.0585938C4.03125 0.0585938 3.10547 0.996094 3.10547 2.74219L3.10547 19.875C3.10547 21.6211 4.03125 22.582 5.74219 22.582ZM5.84766 20.8008C5.21484 20.8008 4.875 20.4492 4.875 19.8516L4.875 2.76562C4.875 2.16797 5.21484 1.82812 5.84766 1.82812L9.71484 1.82812C10.3477 1.82812 10.6875 2.16797 10.6875 2.76562L10.6875 19.8516C10.6875 20.4492 10.3477 20.8008 9.71484 20.8008ZM17.3672 18.4102L21.4453 18.4102C23.1445 18.4102 24.082 17.4727 24.082 15.7266L24.082 6.89062C24.082 5.14453 23.1445 4.20703 21.4453 4.20703L17.3672 4.20703C15.6562 4.20703 14.7188 5.14453 14.7188 6.89062L14.7188 15.7266C14.7188 17.4727 15.6562 18.4102 17.3672 18.4102ZM17.4609 16.6406C16.8398 16.6406 16.4883 16.3008 16.4883 15.7031L16.4883 6.92578C16.4883 6.31641 16.8398 5.97656 17.4609 5.97656L21.3398 5.97656C21.9609 5.97656 22.3125 6.31641 22.3125 6.92578L22.3125 15.7031C22.3125 16.3008 21.9609 16.6406 21.3398 16.6406Z" fill="black" fill-opacity="0.85"/>
 </g>
</svg>
