<?xml version="1.0" encoding="UTF-8"?>
<!--Generator: Apple Native CoreSVG 360-->
<!DOCTYPE svg
PUBLIC "-//W3C//DTD SVG 1.1//EN"
       "http://www.w3.org/Graphics/SVG/1.1/DTD/svg11.dtd">
<svg version="1.1" xmlns="http://www.w3.org/2000/svg" xmlns:xlink="http://www.w3.org/1999/xlink" viewBox="0 0 22.8633 27.1992">
 <g>
  <rect height="27.1992" opacity="0" width="22.8633" x="0" y="0"/>
  <path d="M12.1172 26.3555C12.1172 26.8125 11.707 27.1641 11.25 27.1641C10.793 27.1641 10.3945 26.8125 10.3945 26.3555L10.3945 24.0703L12.1172 24.0703ZM12.1172 14.7187L10.3945 14.7187L10.3945 12.457L12.1172 12.457ZM12.1172 0.808594L12.1172 3.10547L10.3945 3.10547L10.3945 0.808594C10.3945 0.351562 10.793 0 11.25 0C11.707 0 12.1172 0.351562 12.1172 0.808594Z" fill="black" fill-opacity="0.85"/>
  <path d="M6.83203 12.457L15.6797 12.457C17.4141 12.457 18.3633 11.5312 18.3633 9.82031L18.3633 5.74219C18.3633 4.03125 17.4141 3.10547 15.6797 3.10547L6.83203 3.10547C5.08594 3.10547 4.14844 4.03125 4.14844 5.74219L4.14844 9.82031C4.14844 11.5312 5.08594 12.457 6.83203 12.457ZM6.86719 10.6875C6.25781 10.6875 5.91797 10.3477 5.91797 9.71484L5.91797 5.83594C5.91797 5.21484 6.25781 4.875 6.86719 4.875L15.6445 4.875C16.2539 4.875 16.5938 5.21484 16.5938 5.83594L16.5938 9.71484C16.5938 10.3477 16.2539 10.6875 15.6445 10.6875ZM2.68359 24.0703L19.8281 24.0703C21.5625 24.0703 22.5117 23.1445 22.5117 21.4336L22.5117 17.3555C22.5117 15.6562 21.5625 14.7188 19.8281 14.7188L2.68359 14.7188C0.9375 14.7188 0 15.6562 0 17.3555L0 21.4336C0 23.1445 0.9375 24.0703 2.68359 24.0703ZM2.71875 22.3008C2.10938 22.3008 1.76953 21.9609 1.76953 21.3398L1.76953 17.4609C1.76953 16.8281 2.10938 16.4883 2.71875 16.4883L19.793 16.4883C20.4023 16.4883 20.7422 16.8281 20.7422 17.4609L20.7422 21.3398C20.7422 21.9609 20.4023 22.3008 19.793 22.3008Z" fill="black" fill-opacity="0.85"/>
 </g>
</svg>
