<?xml version="1.0" encoding="UTF-8"?>
<!--Generator: Apple Native CoreSVG 360-->
<!DOCTYPE svg
PUBLIC "-//W3C//DTD SVG 1.1//EN"
       "http://www.w3.org/Graphics/SVG/1.1/DTD/svg11.dtd">
<svg version="1.1" xmlns="http://www.w3.org/2000/svg" xmlns:xlink="http://www.w3.org/1999/xlink" viewBox="0 0 26.7422 27.1992">
 <g>
  <rect height="27.1992" opacity="0" width="26.7422" x="0" y="0"/>
  <path d="M19.8281 12.457C21.5625 12.457 22.5117 11.5312 22.5117 9.82031L22.5117 5.74219C22.5117 4.03125 21.5625 3.10547 19.8281 3.10547L10.9805 3.10547C9.23438 3.10547 8.29688 4.03125 8.29688 5.74219L8.29688 9.82031C8.29688 11.5312 9.23438 12.457 10.9805 12.457ZM19.793 10.6875L11.0156 10.6875C10.4062 10.6875 10.0664 10.3477 10.0664 9.71484L10.0664 5.83594C10.0664 5.21484 10.4062 4.875 11.0156 4.875L19.793 4.875C20.4023 4.875 20.7422 5.21484 20.7422 5.83594L20.7422 9.71484C20.7422 10.3477 20.4023 10.6875 19.793 10.6875ZM19.8281 24.0703C21.5625 24.0703 22.5117 23.1445 22.5117 21.4336L22.5117 17.3555C22.5117 15.6562 21.5625 14.7188 19.8281 14.7188L2.68359 14.7188C0.9375 14.7188 0 15.6562 0 17.3555L0 21.4336C0 23.1445 0.9375 24.0703 2.68359 24.0703ZM19.793 22.3008L2.71875 22.3008C2.10938 22.3008 1.76953 21.9609 1.76953 21.3398L1.76953 17.4609C1.76953 16.8281 2.10938 16.4883 2.71875 16.4883L19.793 16.4883C20.4023 16.4883 20.7422 16.8281 20.7422 17.4609L20.7422 21.3398C20.7422 21.9609 20.4023 22.3008 19.793 22.3008Z" fill="black" fill-opacity="0.85"/>
  <path d="M25.5352 27.1641C25.9922 27.1641 26.3906 26.8125 26.3906 26.3555L26.3906 0.808594C26.3906 0.351562 25.9922 0 25.5352 0C25.0781 0 24.668 0.351562 24.668 0.808594L24.668 26.3555C24.668 26.8125 25.0781 27.1641 25.5352 27.1641Z" fill="black" fill-opacity="0.85"/>
 </g>
</svg>
