<?xml version="1.0" encoding="UTF-8"?>
<!--Generator: Apple Native CoreSVG 360-->
<!DOCTYPE svg
PUBLIC "-//W3C//DTD SVG 1.1//EN"
       "http://www.w3.org/Graphics/SVG/1.1/DTD/svg11.dtd">
<svg version="1.1" xmlns="http://www.w3.org/2000/svg" xmlns:xlink="http://www.w3.org/1999/xlink" viewBox="0 0 27.5156 26.4492">
 <g>
  <rect height="26.4492" opacity="0" width="27.5156" x="0" y="0"/>
  <path d="M5.74219 22.5352L9.82031 22.5352C11.5312 22.5352 12.457 21.5977 12.457 19.8516L12.457 2.70703C12.457 0.960938 11.5312 0.0234375 9.82031 0.0234375L5.74219 0.0234375C4.03125 0.0234375 3.10547 0.960938 3.10547 2.70703L3.10547 19.8516C3.10547 21.5977 4.03125 22.5352 5.74219 22.5352ZM5.84766 20.7656C5.21484 20.7656 4.875 20.4258 4.875 19.8164L4.875 2.74219C4.875 2.13281 5.21484 1.79297 5.84766 1.79297L9.71484 1.79297C10.3477 1.79297 10.6875 2.13281 10.6875 2.74219L10.6875 19.8164C10.6875 20.4258 10.3477 20.7656 9.71484 20.7656ZM17.3672 22.5352L21.4453 22.5352C23.1445 22.5352 24.082 21.5977 24.082 19.8516L24.082 11.0039C24.082 9.26953 23.1445 8.32031 21.4453 8.32031L17.3672 8.32031C15.6562 8.32031 14.7188 9.26953 14.7188 11.0039L14.7188 19.8516C14.7188 21.5977 15.6562 22.5352 17.3672 22.5352ZM17.4609 20.7656C16.8398 20.7656 16.4883 20.4258 16.4883 19.8164L16.4883 11.0391C16.4883 10.4297 16.8398 10.0898 17.4609 10.0898L21.3398 10.0898C21.9609 10.0898 22.3125 10.4297 22.3125 11.0391L22.3125 19.8164C22.3125 20.4258 21.9609 20.7656 21.3398 20.7656Z" fill="black" fill-opacity="0.85"/>
  <path d="M0.820312 26.4492L26.3555 26.4492C26.8125 26.4492 27.1641 26.0508 27.1641 25.5938C27.1641 25.1367 26.8125 24.7266 26.3555 24.7266L0.820312 24.7266C0.351562 24.7266 0 25.1367 0 25.5938C0 26.0508 0.351562 26.4492 0.820312 26.4492Z" fill="black" fill-opacity="0.85"/>
 </g>
</svg>
