<?xml version="1.0" encoding="UTF-8"?>
<!--Generator: Apple Native CoreSVG 360-->
<!DOCTYPE svg
PUBLIC "-//W3C//DTD SVG 1.1//EN"
       "http://www.w3.org/Graphics/SVG/1.1/DTD/svg11.dtd">
<svg version="1.1" xmlns="http://www.w3.org/2000/svg" xmlns:xlink="http://www.w3.org/1999/xlink" viewBox="0 0 26.7422 27.1992">
 <g>
  <rect height="27.1992" opacity="0" width="26.7422" x="0" y="0"/>
  <path d="M6.5625 12.457L15.4102 12.457C17.1562 12.457 18.0938 11.5312 18.0938 9.82031L18.0938 5.74219C18.0938 4.03125 17.1562 3.10547 15.4102 3.10547L6.5625 3.10547C4.82812 3.10547 3.87891 4.03125 3.87891 5.74219L3.87891 9.82031C3.87891 11.5312 4.82812 12.457 6.5625 12.457ZM6.59766 10.6875C5.98828 10.6875 5.64844 10.3477 5.64844 9.71484L5.64844 5.83594C5.64844 5.21484 5.98828 4.875 6.59766 4.875L15.375 4.875C15.9844 4.875 16.3242 5.21484 16.3242 5.83594L16.3242 9.71484C16.3242 10.3477 15.9844 10.6875 15.375 10.6875ZM6.5625 24.0703L23.707 24.0703C25.4531 24.0703 26.3906 23.1445 26.3906 21.4336L26.3906 17.3555C26.3906 15.6562 25.4531 14.7188 23.707 14.7188L6.5625 14.7188C4.82812 14.7188 3.87891 15.6562 3.87891 17.3555L3.87891 21.4336C3.87891 23.1445 4.82812 24.0703 6.5625 24.0703ZM6.59766 22.3008C5.98828 22.3008 5.64844 21.9609 5.64844 21.3398L5.64844 17.4609C5.64844 16.8281 5.98828 16.4883 6.59766 16.4883L23.6719 16.4883C24.2812 16.4883 24.6211 16.8281 24.6211 17.4609L24.6211 21.3398C24.6211 21.9609 24.2812 22.3008 23.6719 22.3008Z" fill="black" fill-opacity="0.85"/>
  <path d="M0.855469 27.1641C1.32422 27.1641 1.72266 26.8125 1.72266 26.3555L1.72266 0.808594C1.72266 0.351562 1.32422 0 0.855469 0C0.398438 0 0 0.351562 0 0.808594L0 26.3555C0 26.8125 0.398438 27.1641 0.855469 27.1641Z" fill="black" fill-opacity="0.85"/>
 </g>
</svg>
