<?xml version="1.0" encoding="UTF-8"?>
<!--Generator: Apple Native CoreSVG 360-->
<!DOCTYPE svg
PUBLIC "-//W3C//DTD SVG 1.1//EN"
       "http://www.w3.org/Graphics/SVG/1.1/DTD/svg11.dtd">
<svg version="1.1" xmlns="http://www.w3.org/2000/svg" xmlns:xlink="http://www.w3.org/1999/xlink" viewBox="0 0 24.1797 23.8281">
 <g>
  <rect height="23.8281" opacity="0" width="24.1797" x="0" y="0"/>
  <path d="M18.6348 18.6348C23.1699 14.0762 24.7637 7.64257 23.2871 2.67382C22.8769 1.36132 22.4668 0.93944 21.1426 0.541003C16.1855-0.947279 9.74022 0.646471 5.18163 5.18163C0.646471 9.74022-0.947279 16.1855 0.541003 21.1426C0.93944 22.4551 1.36132 22.8769 2.67382 23.2754C7.64257 24.7637 14.0762 23.1699 18.6348 18.6348ZM17.2519 17.2519C13.3144 21.2129 8.14647 22.7012 3.33007 21.4238C2.69725 21.2598 2.55663 21.1191 2.38085 20.4512C1.13866 15.6582 2.6035 10.5019 6.56444 6.56444C10.5137 2.6035 15.6582 1.12694 20.4512 2.36913C21.1191 2.55663 21.2598 2.69725 21.4238 3.33007C22.7129 8.13475 21.2129 13.3144 17.2519 17.2519ZM6.89257 14.416L9.4121 16.9238C9.63475 17.1348 9.9746 17.1348 10.209 16.9238C10.4199 16.7012 10.4199 16.3379 10.209 16.1152L7.70116 13.6074C7.4785 13.3965 7.11522 13.3965 6.89257 13.6074C6.68163 13.8418 6.68163 14.1816 6.89257 14.416ZM8.59178 12.7051L11.1113 15.2246C11.3223 15.4473 11.6855 15.4473 11.8965 15.2246C12.1191 15.0137 12.1191 14.6387 11.8965 14.4277L9.38866 11.9199C9.17772 11.6973 8.80272 11.6973 8.59178 11.9199C8.36913 12.1308 8.36913 12.4941 8.59178 12.7051ZM10.2793 11.0176L12.7988 13.5371C13.0098 13.7598 13.373 13.7598 13.584 13.5371C13.8066 13.3144 13.8066 12.9512 13.584 12.7519L11.0644 10.2324C10.8652 10.0098 10.4902 10.0098 10.2793 10.2324C10.0566 10.4433 10.0566 10.8066 10.2793 11.0176ZM11.9668 9.34178L14.4746 11.8496C14.6973 12.0605 15.0605 12.0605 15.2715 11.8496C15.4941 11.6152 15.4941 11.2754 15.2715 11.0644L12.7637 8.54491C12.541 8.32225 12.2012 8.32225 11.9668 8.54491C11.7558 8.75585 11.7558 9.13085 11.9668 9.34178ZM13.666 7.65428L16.1621 10.1504C16.3965 10.373 16.748 10.373 16.9707 10.1504C17.1933 9.92772 17.1933 9.58788 16.9707 9.3535L14.4629 6.83397C14.2285 6.63475 13.8887 6.63475 13.666 6.83397C13.4433 7.06835 13.4433 7.41991 13.666 7.65428ZM8.77928 15.834L15.834 8.77928L15.0488 7.99413L7.98241 15.0488Z" fill="black" fill-opacity="0.85"/>
 </g>
</svg>
