<?xml version="1.0" encoding="UTF-8"?>
<!--Generator: Apple Native CoreSVG 360-->
<!DOCTYPE svg
PUBLIC "-//W3C//DTD SVG 1.1//EN"
       "http://www.w3.org/Graphics/SVG/1.1/DTD/svg11.dtd">
<svg version="1.1" xmlns="http://www.w3.org/2000/svg" xmlns:xlink="http://www.w3.org/1999/xlink" viewBox="0 0 26.4492 22.5117">
 <g>
  <rect height="22.5117" opacity="0" width="26.4492" x="0" y="0"/>
  <path d="M0 18.9375C0 21.3398 1.20703 22.5117 3.62109 22.5117L22.4766 22.5117C24.9023 22.5117 26.0977 21.3398 26.0977 18.9375L26.0977 7.53516C26.0977 5.14453 24.9023 3.96094 22.4766 3.96094L3.62109 3.96094C1.20703 3.96094 0 5.14453 0 7.53516ZM4.46484 10.8398C3.42188 10.8398 2.57812 9.99609 2.57812 8.94141C2.57812 7.89844 3.42188 7.05469 4.46484 7.05469C5.53125 7.05469 6.36328 7.89844 6.36328 8.94141C6.36328 9.99609 5.53125 10.8398 4.46484 10.8398ZM10.1953 10.8398C9.14062 10.8398 8.29688 9.99609 8.29688 8.94141C8.29688 7.89844 9.14062 7.05469 10.1953 7.05469C11.2383 7.05469 12.082 7.89844 12.082 8.94141C12.082 9.99609 11.2383 10.8398 10.1953 10.8398ZM15.9023 10.8398C14.8594 10.8398 14.0156 9.99609 14.0156 8.94141C14.0156 7.89844 14.8594 7.05469 15.9023 7.05469C16.9688 7.05469 17.8008 7.89844 17.8008 8.94141C17.8008 9.99609 16.9688 10.8398 15.9023 10.8398ZM21.6328 10.8398C20.5781 10.8398 19.7344 9.99609 19.7344 8.94141C19.7344 7.89844 20.5781 7.05469 21.6328 7.05469C22.6758 7.05469 23.5312 7.89844 23.5312 8.94141C23.5312 9.99609 22.6758 10.8398 21.6328 10.8398ZM1.88672 18.8438L1.88672 13.1953L24.2109 13.1953L24.2109 18.8438C24.2109 20.0508 23.6016 20.6367 22.4531 20.6367L3.64453 20.6367C2.49609 20.6367 1.88672 20.0508 1.88672 18.8438ZM6.22266 5.40234L8.08594 5.40234L8.08594 2.89453C8.08594 2.22656 8.55469 1.79297 9.24609 1.79297L16.8633 1.79297C17.5664 1.79297 18.0234 2.22656 18.0234 2.89453L18.0234 5.40234L19.8867 5.40234L19.8867 2.77734C19.8867 1.07812 18.7852 0.046875 16.9805 0.046875L9.12891 0.046875C7.32422 0.046875 6.22266 1.07812 6.22266 2.77734Z" fill="black" fill-opacity="0.85"/>
 </g>
</svg>
