<?xml version="1.0" encoding="UTF-8"?>
<!--Generator: Apple Native CoreSVG 360-->
<!DOCTYPE svg
PUBLIC "-//W3C//DTD SVG 1.1//EN"
       "http://www.w3.org/Graphics/SVG/1.1/DTD/svg11.dtd">
<svg version="1.1" xmlns="http://www.w3.org/2000/svg" xmlns:xlink="http://www.w3.org/1999/xlink" viewBox="0 0 26.8652 26.5108">
 <g>
  <rect height="26.5108" opacity="0" width="26.8652" x="0" y="0"/>
  <path d="M4.43977 7.65309C4.3713 8.01753 4.33887 8.41566 4.33887 8.84327L4.33887 17.6675C4.33887 19.1441 4.72559 20.2691 5.4873 21.0191C6.2373 21.7573 7.3623 22.1675 8.82715 22.1675L17.6748 22.1675C18.0956 22.1675 18.4909 22.1321 18.8546 22.0603L20.4161 23.6209C19.6223 23.904 18.7031 24.0542 17.6748 24.0542L8.82715 24.0542C6.77637 24.0542 5.15918 23.4683 4.10449 22.4019C3.01465 21.3237 2.45215 19.7183 2.45215 17.6675L2.45215 8.84327C2.45215 7.8091 2.59519 6.88817 2.87761 6.09177ZM22.3975 4.10889C23.4873 5.18702 24.0498 6.79249 24.0498 8.84327L24.0498 17.6675C24.0498 18.6975 23.9079 19.6153 23.6281 20.4098L22.0644 18.8461C22.1313 18.4848 22.1631 18.0906 22.1631 17.6675L22.1631 8.84327C22.1631 7.36671 21.7764 6.24171 21.0146 5.49171C20.2646 4.75343 19.1279 4.34327 17.6748 4.34327L8.82715 4.34327C8.41151 4.34327 8.02228 4.37723 7.66431 4.44606L6.10242 2.88416C6.89229 2.60474 7.80596 2.45655 8.82715 2.45655L17.6748 2.45655C19.7256 2.45655 21.3311 3.04249 22.3975 4.10889Z" fill="black" fill-opacity="0.85"/>
  <path d="M23.6045 24.8628C23.9561 25.2144 24.542 25.2144 24.8818 24.8628C25.2334 24.5112 25.2334 23.937 24.8818 23.5855L2.9209 1.63624C2.56934 1.28468 1.9834 1.27296 1.63184 1.63624C1.28027 1.97608 1.28027 2.56202 1.63184 2.91358Z" fill="black" fill-opacity="0.85"/>
 </g>
</svg>
