<?xml version="1.0" encoding="UTF-8"?>
<!--Generator: Apple Native CoreSVG 360-->
<!DOCTYPE svg
PUBLIC "-//W3C//DTD SVG 1.1//EN"
       "http://www.w3.org/Graphics/SVG/1.1/DTD/svg11.dtd">
<svg version="1.1" xmlns="http://www.w3.org/2000/svg" xmlns:xlink="http://www.w3.org/1999/xlink" viewBox="0 0 21.9609 21.5977">
 <g>
  <rect height="21.5977" opacity="0" width="21.9609" x="0" y="0"/>
  <path d="M6.375 21.5977L15.2227 21.5977C17.2852 21.5977 18.8906 21 19.9453 19.9453C21.0352 18.8672 21.6094 17.2617 21.6094 15.2109L21.6094 6.38672C21.6094 4.33594 21.0352 2.73047 19.9453 1.65234C18.8789 0.585938 17.2852 0 15.2227 0L6.375 0C4.32422 0 2.70703 0.597656 1.65234 1.65234C0.574219 2.73047 0 4.33594 0 6.38672L0 15.2109C0 17.2617 0.5625 18.8672 1.65234 19.9453C2.71875 21.0117 4.32422 21.5977 6.375 21.5977ZM6.375 19.7109C4.92188 19.7109 3.78516 19.3008 3.04688 18.5625C2.28516 17.8125 1.88672 16.6875 1.88672 15.2109L1.88672 6.38672C1.88672 4.91016 2.28516 3.78516 3.04688 3.03516C3.77344 2.30859 4.92188 1.88672 6.375 1.88672L15.2227 1.88672C16.6875 1.88672 17.8125 2.29688 18.5625 3.03516C19.3242 3.78516 19.7227 4.91016 19.7227 6.38672L19.7227 15.2109C19.7227 16.6875 19.3242 17.8125 18.5625 18.5625C17.8242 19.2891 16.6875 19.7109 15.2227 19.7109Z" fill="black" fill-opacity="0.85"/>
 </g>
</svg>
