<?xml version="1.0" encoding="UTF-8"?>
<!--Generator: Apple Native CoreSVG 360-->
<!DOCTYPE svg
PUBLIC "-//W3C//DTD SVG 1.1//EN"
       "http://www.w3.org/Graphics/SVG/1.1/DTD/svg11.dtd">
<svg version="1.1" xmlns="http://www.w3.org/2000/svg" xmlns:xlink="http://www.w3.org/1999/xlink" viewBox="0 0 21.0352 25.5117">
 <g>
  <rect height="25.5117" opacity="0" width="21.0352" x="0" y="0"/>
  <path d="M4.75781 8.08594C4.75781 9.49219 5.76562 10.5117 7.6875 11.0508L13.582 12.7148C16.3711 13.4883 17.8242 15.1289 17.8242 17.4609L17.8242 17.8594L15.9375 17.8594L15.9375 17.4609C15.9375 16.0547 14.9414 15.0586 13.0078 14.5078L7.11328 12.8438C4.32422 12.0703 2.87109 10.4297 2.87109 8.08594L2.87109 7.67578L4.75781 7.67578Z" fill="black" fill-opacity="0.85"/>
  <path d="M2.35547 7.67578L5.30859 7.67578C6.03516 7.67578 6.62109 7.47656 7.03125 7.05469C7.46484 6.64453 7.66406 6.04688 7.66406 5.33203L7.66406 2.39062C7.66406 1.65234 7.46484 1.05469 7.03125 0.644531C6.62109 0.222656 6.03516 0.0117188 5.30859 0.0117188L2.35547 0.0117188C1.61719 0.0117188 1.01953 0.234375 0.621094 0.644531C0.210938 1.04297 0 1.64062 0 2.39062L0 5.33203C0 6.05859 0.210938 6.65625 0.621094 7.05469C1.01953 7.46484 1.61719 7.67578 2.35547 7.67578ZM15.3867 25.5117L18.3398 25.5117C19.0664 25.5117 19.6523 25.3125 20.0508 24.8906C20.4961 24.4922 20.6836 23.8828 20.6836 23.168L20.6836 20.2383C20.6836 19.5 20.4961 18.9023 20.0508 18.4922C19.6523 18.0703 19.0664 17.8594 18.3398 17.8594L15.3867 17.8594C14.6484 17.8594 14.0508 18.082 13.6523 18.4922C13.2422 18.8906 13.0312 19.4883 13.0312 20.2383L13.0312 23.168C13.0312 23.8945 13.2422 24.5039 13.6523 24.8906C14.0508 25.3125 14.6484 25.5117 15.3867 25.5117Z" fill="black" fill-opacity="0.85"/>
 </g>
</svg>
