<?xml version="1.0" encoding="UTF-8"?>
<!--Generator: Apple Native CoreSVG 360-->
<!DOCTYPE svg
PUBLIC "-//W3C//DTD SVG 1.1//EN"
       "http://www.w3.org/Graphics/SVG/1.1/DTD/svg11.dtd">
<svg version="1.1" xmlns="http://www.w3.org/2000/svg" xmlns:xlink="http://www.w3.org/1999/xlink" viewBox="0 0 23.3438 23.1914">
 <g>
  <rect height="23.1914" opacity="0" width="23.3438" x="0" y="0"/>
  <path d="M10.6641 19.3711C11.1445 19.3711 11.543 18.9727 11.543 18.4922L11.543 13.0664C18.5625 12.7031 23.0391 8.01562 22.9922 0.960938C22.9922 0.386719 22.6641 0.046875 22.0781 0.046875C16.4883-0.0117188 12.3164 3.16406 10.6055 8.42578C8.95312 4.67578 5.33203 2.80078 1.52344 2.8125C1.06641 2.8125 0.867188 3.03516 0.890625 3.51562C1.18359 6.75 2.8125 12.6094 9.77344 13.0664L9.77344 18.4922C9.77344 18.9727 10.1836 19.3711 10.6641 19.3711ZM9.71484 11.2734C5.61328 10.9336 3.24609 8.07422 2.73047 4.69922C5.91797 5.07422 8.95312 7.23047 9.71484 11.2734ZM11.7539 11.2734C12.6797 5.75391 16.2773 2.10938 21.1641 1.875C20.9648 7.10156 17.2031 10.8281 11.7539 11.2734Z" fill="black" fill-opacity="0.85"/>
  <path d="M1.00781 23.1914C1.55859 23.1914 2.01562 22.7344 2.01562 22.1836C2.01562 21.6211 1.55859 21.1641 1.00781 21.1641C0.457031 21.1641 0 21.6211 0 22.1836C0 22.7344 0.457031 23.1914 1.00781 23.1914ZM3.92578 21.1172C4.47656 21.1172 4.93359 20.6602 4.93359 20.0977C4.93359 19.5469 4.47656 19.0898 3.92578 19.0898C3.375 19.0898 2.91797 19.5469 2.91797 20.0977C2.91797 20.6602 3.375 21.1172 3.92578 21.1172ZM7.25391 19.9102C7.80469 19.9102 8.26172 19.4531 8.26172 18.9023C8.26172 18.3516 7.80469 17.8945 7.25391 17.8945C6.70312 17.8945 6.24609 18.3516 6.24609 18.9023C6.24609 19.4531 6.70312 19.9102 7.25391 19.9102ZM14.0625 19.9102C14.6133 19.9102 15.0703 19.4531 15.0703 18.9023C15.0703 18.3516 14.6133 17.8945 14.0625 17.8945C13.5117 17.8945 13.0547 18.3516 13.0547 18.9023C13.0547 19.4531 13.5117 19.9102 14.0625 19.9102ZM17.3906 21.1172C17.9414 21.1172 18.3984 20.6602 18.3984 20.0977C18.3984 19.5469 17.9414 19.0898 17.3906 19.0898C16.8398 19.0898 16.3828 19.5469 16.3828 20.0977C16.3828 20.6602 16.8398 21.1172 17.3906 21.1172ZM20.3086 23.1914C20.8594 23.1914 21.3164 22.7344 21.3164 22.1836C21.3164 21.6211 20.8594 21.1641 20.3086 21.1641C19.7578 21.1641 19.3008 21.6211 19.3008 22.1836C19.3008 22.7344 19.7578 23.1914 20.3086 23.1914Z" fill="black" fill-opacity="0.85"/>
 </g>
</svg>
