<?xml version="1.0" encoding="UTF-8"?>
<!--Generator: Apple Native CoreSVG 360-->
<!DOCTYPE svg
PUBLIC "-//W3C//DTD SVG 1.1//EN"
       "http://www.w3.org/Graphics/SVG/1.1/DTD/svg11.dtd">
<svg version="1.1" xmlns="http://www.w3.org/2000/svg" xmlns:xlink="http://www.w3.org/1999/xlink" viewBox="0 0 28.4883 25.6055">
 <g>
  <rect height="25.6055" opacity="0" width="28.4883" x="0" y="0"/>
  <path d="M23.543 6.94922L23.543 18.7383C23.543 20.9062 22.3008 22.1836 20.1914 22.1836L19.5376 22.1836C19.8972 21.3617 20.0859 20.4066 20.0859 19.3477L20.0859 14.6367C20.918 14.168 21.4336 13.2539 21.4336 12.1523L21.4336 10.2891C21.4336 9.15234 20.8945 8.23828 20.0391 7.76953C20.0391 6.06339 18.8035 4.35127 16.7453 3.51562L20.1914 3.51562C22.3008 3.51562 23.543 4.79297 23.543 6.94922Z" fill="black" fill-opacity="0.2125"/>
  <path d="M25.3707 6.96094L25.6875 6.96094C26.4375 6.96094 26.918 7.47656 26.918 8.30859L26.918 10.2656C26.918 11.0742 26.4375 11.5898 25.6875 11.5898L25.3711 11.5898L25.3711 18.6562C25.3711 22.0078 23.4023 24.0117 20.1094 24.0117L18.2818 24.0117C18.8165 23.5116 19.2407 22.8972 19.5376 22.1836L20.1914 22.1836C22.3008 22.1836 23.543 20.9062 23.543 18.7383L23.543 6.94922C23.543 4.79297 22.3008 3.51562 20.1914 3.51562L16.7453 3.51562C15.926 3.1735 14.9704 2.97656 13.9102 2.97656L7.38841 2.97656C8.28637 2.1014 9.576 1.62891 11.1797 1.62891L20.1094 1.62891C23.3984 1.62891 25.3664 3.61633 25.3707 6.96094Z" fill="black" fill-opacity="0.85"/>
  <path d="M3.42188 19.418L3.42188 9.19922C3.42188 7.44141 4.38281 6.45703 6.09375 6.45703L13.9805 6.45703C15.6914 6.45703 16.6523 7.44141 16.6523 9.19922L16.6523 19.418C16.6523 21.1992 15.6914 22.1836 13.9805 22.1836L6.09375 22.1836C4.38281 22.1836 3.42188 21.1992 3.42188 19.418Z" fill="black" fill-opacity="0.2125"/>
  <path d="M6.16406 24.0117L13.9102 24.0117C16.7578 24.0117 18.4805 22.2656 18.4805 19.3477L18.4805 13.4062L18.668 13.4062C19.3828 13.4062 19.8398 12.9141 19.8398 12.1523L19.8398 10.2891C19.8398 9.50391 19.3828 9.01172 18.668 9.01172L18.4805 9.01172C18.3984 6.23438 16.6992 4.58203 13.9102 4.58203L6.16406 4.58203C3.30469 4.58203 1.59375 6.31641 1.59375 9.21094L1.59375 19.3477C1.59375 22.2656 3.30469 24.0117 6.16406 24.0117ZM3.42188 19.418L3.42188 9.19922C3.42188 7.44141 4.38281 6.45703 6.09375 6.45703L13.9805 6.45703C15.6914 6.45703 16.6523 7.44141 16.6523 9.19922L16.6523 19.418C16.6523 21.1992 15.6914 22.1836 13.9805 22.1836L6.09375 22.1836C4.38281 22.1836 3.42188 21.1992 3.42188 19.418Z" fill="black" fill-opacity="0.85"/>
 </g>
</svg>
