<?xml version="1.0" encoding="UTF-8"?>
<!--Generator: Apple Native CoreSVG 360-->
<!DOCTYPE svg
PUBLIC "-//W3C//DTD SVG 1.1//EN"
       "http://www.w3.org/Graphics/SVG/1.1/DTD/svg11.dtd">
<svg version="1.1" xmlns="http://www.w3.org/2000/svg" xmlns:xlink="http://www.w3.org/1999/xlink" viewBox="0 0 23.9418 18.8826">
 <g>
  <rect height="18.8826" opacity="0" width="23.9418" x="0" y="0"/>
  <path d="M2.50802 18.2245C2.33224 18.5644 2.69552 18.869 2.97677 18.7167L4.73458 17.8026L3.45724 16.5253ZM3.9963 15.5292L5.7424 17.287L6.4338 16.9237L20.6955 2.73233C21.2697 2.15811 21.2697 1.23233 20.6955 0.669826C20.133 0.0956074 19.2072 0.0956074 18.6447 0.658107L4.3713 14.8612Z" fill="black" fill-opacity="0.85"/>
  <path d="M7.01974 6.99795C8.64865 5.38076 9.56271 3.29483 9.66818 1.04483C9.71505 0.482326 9.3049 0.0604511 8.76583 0.0956074C8.28537 0.142482 7.98068 0.505764 7.92208 1.0917C7.85177 2.83779 7.11349 4.47842 5.81271 5.79092C4.50021 7.10342 2.83615 7.82998 1.11349 7.90029C0.515835 7.94717 0.152554 8.27529 0.105679 8.75576C0.0822412 9.27139 0.515835 9.66983 1.07833 9.65811C3.3049 9.55264 5.39083 8.62686 7.01974 6.99795Z" fill="black" fill-opacity="0.85"/>
  <path d="M4.39474 4.38467C5.32052 3.44717 5.88302 2.28701 6.02365 0.997951C6.10568 0.435451 5.6838-0.0332989 5.1213 0.00185736C4.64083 0.0370136 4.40646 0.35342 4.28927 0.997951C4.19552 1.77139 3.82052 2.53311 3.18771 3.17764C2.56662 3.79873 1.81662 4.17373 0.984585 4.2792C0.37521 4.38467 0.047085 4.64248 0.000209981 5.09951C-0.0115088 5.66201 0.46896 6.08389 1.01974 6.01358C2.27365 5.88467 3.48068 5.29873 4.39474 4.38467Z" fill="black" fill-opacity="0.85"/>
 </g>
</svg>
