<?xml version="1.0" encoding="UTF-8"?>
<!--Generator: Apple Native CoreSVG 360-->
<!DOCTYPE svg
PUBLIC "-//W3C//DTD SVG 1.1//EN"
       "http://www.w3.org/Graphics/SVG/1.1/DTD/svg11.dtd">
<svg version="1.1" xmlns="http://www.w3.org/2000/svg" xmlns:xlink="http://www.w3.org/1999/xlink" viewBox="0 0 11.168 25.957">
 <g>
  <rect height="25.957" opacity="0" width="11.168" x="0" y="0"/>
  <path d="M3.05859 25.8867L7.76953 25.8867C9.63281 25.8867 10.8164 24.7383 10.8164 22.9688L10.8164 2.91797C10.8164 1.14844 9.63281 0 7.76953 0L3.05859 0C1.18359 0 0 1.14844 0 2.91797L0 22.9688C0 24.7383 1.18359 25.8867 3.05859 25.8867ZM3.25781 24.1758C2.32031 24.1758 1.73438 23.6133 1.73438 22.7227L1.73438 3.17578C1.73438 2.27344 2.32031 1.71094 3.25781 1.71094L7.55859 1.71094C8.49609 1.71094 9.08203 2.27344 9.08203 3.17578L9.08203 22.7227C9.08203 23.6133 8.49609 24.1758 7.55859 24.1758ZM5.41406 10.0078C7.23047 10.0078 8.70703 8.55469 8.70703 6.72656C8.70703 4.91016 7.23047 3.45703 5.41406 3.45703C3.59766 3.45703 2.12109 4.91016 2.12109 6.72656C2.12109 8.55469 3.59766 10.0078 5.41406 10.0078ZM3.78516 13.2422C4.44141 13.2422 4.98047 12.7031 4.98047 12.0469C4.98047 11.4023 4.45312 10.8633 3.78516 10.8633C3.11719 10.8633 2.60156 11.4023 2.60156 12.0469C2.60156 12.7031 3.11719 13.2422 3.78516 13.2422ZM7.05469 13.2422C7.69922 13.2422 8.22656 12.7031 8.22656 12.0469C8.22656 11.4023 7.69922 10.8633 7.05469 10.8633C6.38672 10.8633 5.83594 11.4023 5.83594 12.0469C5.83594 12.7031 6.38672 13.2422 7.05469 13.2422ZM3.78516 16.3828C4.45312 16.3828 4.98047 15.8555 4.98047 15.1875C4.98047 14.5312 4.45312 13.9922 3.78516 13.9922C3.11719 13.9922 2.60156 14.543 2.60156 15.1875C2.60156 15.8555 3.11719 16.3828 3.78516 16.3828ZM3.78516 19.5234C4.45312 19.5234 4.98047 18.9961 4.98047 18.3398C4.98047 17.6719 4.44141 17.1328 3.78516 17.1328C3.11719 17.1328 2.60156 17.6719 2.60156 18.3398C2.60156 18.9961 3.11719 19.5234 3.78516 19.5234ZM7.03125 19.5234C7.65234 19.5234 8.16797 19.0195 8.16797 18.4219L8.16797 15.1289C8.16797 14.5078 7.65234 13.9922 7.03125 13.9922C6.41016 13.9922 5.92969 14.4961 5.92969 15.1289L5.92969 18.4219C5.92969 19.0195 6.42188 19.5234 7.03125 19.5234Z" fill="black" fill-opacity="0.85"/>
 </g>
</svg>
