<?xml version="1.0" encoding="UTF-8"?>
<!--Generator: Apple Native CoreSVG 360-->
<!DOCTYPE svg
PUBLIC "-//W3C//DTD SVG 1.1//EN"
       "http://www.w3.org/Graphics/SVG/1.1/DTD/svg11.dtd">
<svg version="1.1" xmlns="http://www.w3.org/2000/svg" xmlns:xlink="http://www.w3.org/1999/xlink" viewBox="0 0 23.1562 24.6211">
 <g>
  <rect height="24.6211" opacity="0" width="23.1562" x="0" y="0"/>
  <path d="M11.5898 24.6094C17.7891 24.6094 22.8047 19.1016 22.8047 12.3047C22.8047 5.50781 17.7891 0 11.5898 0C8.26172 0 5.23828 1.59375 3.17578 4.18359C2.96484 4.44141 2.88281 4.6875 2.88281 4.92188C2.88281 5.42578 3.33984 5.77734 3.83203 5.77734C4.11328 5.77734 4.40625 5.66016 4.61719 5.39062C6.32812 3.21094 8.85938 1.88672 11.5898 1.88672C16.7344 1.88672 20.9062 6.55078 20.9062 12.3047C20.9062 18.0586 16.7344 22.7227 11.5898 22.7227C8.85938 22.7227 6.32812 21.3867 4.61719 19.2188C4.40625 18.9492 4.11328 18.832 3.83203 18.832C3.33984 18.832 2.88281 19.1836 2.88281 19.6875C2.88281 19.9102 2.96484 20.168 3.17578 20.4258C5.23828 23.0156 8.26172 24.6094 11.5898 24.6094Z" fill="black" fill-opacity="0.425"/>
  <path d="M0 18.3047C0 19.793 1.18359 20.9648 2.58984 21.0352C2.21484 20.5664 2.02734 20.1211 2.02734 19.7109C2.02734 18.7383 2.92969 17.9766 3.86719 17.9766C4.60547 17.9766 4.98047 18.3516 5.47266 18.9492C5.51953 18.7383 5.54297 18.5273 5.54297 18.3047L5.54297 6.29297C5.54297 6.07031 5.51953 5.87109 5.47266 5.66016C5.00391 6.22266 4.62891 6.62109 3.87891 6.62109C2.92969 6.62109 2.02734 5.87109 2.02734 4.89844C2.02734 4.48828 2.21484 4.05469 2.58984 3.57422C1.19531 3.64453 0 4.80469 0 6.29297ZM2.77734 11.4844C1.78125 11.4844 0.984375 10.6758 0.984375 9.69141C0.984375 8.70703 1.78125 7.91016 2.77734 7.91016C3.76172 7.91016 4.55859 8.70703 4.55859 9.69141C4.55859 10.6758 3.76172 11.4844 2.77734 11.4844ZM2.77734 10.6641C3.30469 10.6641 3.73828 10.2188 3.73828 9.69141C3.73828 9.16406 3.30469 8.73047 2.77734 8.73047C2.25 8.73047 1.80469 9.16406 1.80469 9.69141C1.80469 10.2188 2.25 10.6641 2.77734 10.6641Z" fill="black" fill-opacity="0.85"/>
 </g>
</svg>
