<?xml version="1.0" encoding="UTF-8"?>
<!--Generator: Apple Native CoreSVG 360-->
<!DOCTYPE svg
PUBLIC "-//W3C//DTD SVG 1.1//EN"
       "http://www.w3.org/Graphics/SVG/1.1/DTD/svg11.dtd">
<svg version="1.1" xmlns="http://www.w3.org/2000/svg" xmlns:xlink="http://www.w3.org/1999/xlink" viewBox="0 0 17.7539 25.0898">
 <g>
  <rect height="25.0898" opacity="0" width="17.7539" x="0" y="0"/>
  <path d="M2.47266 17.0391L2.47266 8.0625C2.47266 6.31641 3.49219 5.26172 5.20312 5.26172L12.1406 5.26172C13.8516 5.26172 14.8711 6.31641 14.8711 8.0625L14.8711 17.0391C14.8711 18.7734 13.8516 19.8281 12.1406 19.8281L5.20312 19.8281C3.49219 19.8281 2.47266 18.7734 2.47266 17.0391Z" fill="black" fill-opacity="0.2125"/>
  <path d="M0.761719 17.2852C0.761719 19.1016 1.47656 20.4375 2.80078 21.1641C3.44531 21.5039 3.82031 21.9375 4.05469 22.7227L4.42969 23.9766C4.65234 24.7266 5.17969 25.0898 5.96484 25.0898L11.3789 25.0898C12.1875 25.0898 12.6797 24.7383 12.9023 23.9766L13.2891 22.7227C13.5234 21.9375 13.8984 21.5039 14.543 21.1641C15.8672 20.4375 16.582 19.1016 16.582 17.2852L16.582 7.80469C16.582 5.98828 15.8672 4.66406 14.543 3.92578C13.8984 3.58594 13.5234 3.15234 13.2891 2.37891L12.9023 1.11328C12.7031 0.375 12.1758 0 11.3789 0L5.96484 0C5.17969 0 4.65234 0.363281 4.42969 1.11328L4.05469 2.37891C3.83203 3.14062 3.45703 3.59766 2.80078 3.92578C1.48828 4.62891 0.761719 5.96484 0.761719 7.80469ZM2.47266 17.0391L2.47266 8.0625C2.47266 6.31641 3.49219 5.26172 5.20312 5.26172L12.1406 5.26172C13.8516 5.26172 14.8711 6.31641 14.8711 8.0625L14.8711 17.0391C14.8711 18.7734 13.8516 19.8281 12.1406 19.8281L5.20312 19.8281C3.49219 19.8281 2.47266 18.7734 2.47266 17.0391ZM16.3242 11.7188L16.7461 11.7188C17.3555 11.7188 17.7539 11.3086 17.7539 10.6406L17.7539 9.05859C17.7539 8.39062 17.3555 7.98047 16.7461 7.98047L16.3242 7.98047Z" fill="black" fill-opacity="0.85"/>
 </g>
</svg>
