<?xml version="1.0" encoding="UTF-8"?>
<!--Generator: Apple Native CoreSVG 360-->
<!DOCTYPE svg
PUBLIC "-//W3C//DTD SVG 1.1//EN"
       "http://www.w3.org/Graphics/SVG/1.1/DTD/svg11.dtd">
<svg version="1.1" xmlns="http://www.w3.org/2000/svg" xmlns:xlink="http://www.w3.org/1999/xlink" viewBox="0 0 23.5547 22.418">
 <g>
  <rect height="22.418" opacity="0" width="23.5547" x="0" y="0"/>
  <path d="M3.33984 22.418C5.16797 22.418 6.65625 21.8438 6.65625 21.1172C6.65625 20.4023 5.16797 19.8281 3.33984 19.8281C1.48828 19.8281 0 20.4023 0 21.1172C0 21.8438 1.48828 22.418 3.33984 22.418Z" fill="black" fill-opacity="0.85"/>
  <path d="M4.93359 17.7773C4.75781 18.1172 5.12109 18.4219 5.40234 18.2695L7.14844 17.3555L5.88281 16.0781ZM6.42188 15.082L8.16797 16.8281L8.85938 16.4648L22.7812 2.625C23.3438 2.05078 23.3438 1.125 22.7812 0.5625C22.207 0 21.2812 0 20.7188 0.550781L6.79688 14.4141Z" fill="black" fill-opacity="0.85"/>
 </g>
</svg>
