<?xml version="1.0" encoding="UTF-8"?>
<!--Generator: Apple Native CoreSVG 360-->
<!DOCTYPE svg
PUBLIC "-//W3C//DTD SVG 1.1//EN"
       "http://www.w3.org/Graphics/SVG/1.1/DTD/svg11.dtd">
<svg version="1.1" xmlns="http://www.w3.org/2000/svg" xmlns:xlink="http://www.w3.org/1999/xlink" viewBox="0 0 12.9844 25.957">
 <g>
  <rect height="25.957" opacity="0" width="12.9844" x="0" y="0"/>
  <path d="M0 23.3555C0 24.9023 1.03125 25.8867 2.67188 25.8867L9.96094 25.8867C11.6016 25.8867 12.6328 24.9023 12.6328 23.3555L12.6328 2.53125C12.6328 0.996094 11.6016 0 9.96094 0L2.67188 0C1.03125 0 0 0.996094 0 2.53125ZM1.73438 23.1094L1.73438 2.77734C1.73438 2.12109 2.16797 1.71094 2.87109 1.71094L9.76172 1.71094C10.4766 1.71094 10.8984 2.12109 10.8984 2.77734L10.8984 23.1094C10.8984 23.7656 10.4766 24.1758 9.76172 24.1758L2.87109 24.1758C2.16797 24.1758 1.73438 23.7656 1.73438 23.1094ZM6.32812 11.2148C8.36719 11.2148 10.0195 9.55078 10.0195 7.52344C10.0195 5.48438 8.36719 3.82031 6.32812 3.82031C4.28906 3.82031 2.625 5.48438 2.625 7.52344C2.625 9.55078 4.28906 11.2148 6.32812 11.2148ZM6.32812 9.01172C5.49609 9.01172 4.82812 8.34375 4.82812 7.52344C4.82812 6.69141 5.49609 6.02344 6.32812 6.02344C7.16016 6.02344 7.81641 6.69141 7.81641 7.52344C7.81641 8.34375 7.16016 9.01172 6.32812 9.01172ZM6.32812 15.2109C7.07812 15.2109 7.6875 14.6016 7.6875 13.8516C7.6875 13.0898 7.07812 12.4805 6.32812 12.4805C5.56641 12.4805 4.94531 13.0898 4.94531 13.8516C4.94531 14.6016 5.56641 15.2109 6.32812 15.2109Z" fill="black" fill-opacity="0.85"/>
 </g>
</svg>
