<?xml version="1.0" encoding="UTF-8"?>
<!--Generator: Apple Native CoreSVG 360-->
<!DOCTYPE svg
PUBLIC "-//W3C//DTD SVG 1.1//EN"
       "http://www.w3.org/Graphics/SVG/1.1/DTD/svg11.dtd">
<svg version="1.1" xmlns="http://www.w3.org/2000/svg" xmlns:xlink="http://www.w3.org/1999/xlink" viewBox="0 0 11.9783 23.168">
 <g>
  <rect height="23.168" opacity="0" width="11.9783" x="0" y="0"/>
  <path d="M0.950104 23.1562C1.46573 23.1562 1.86417 22.793 1.8876 22.207L2.18057 16.5117L3.59854 10.5L2.40323 11.4375L9.22354 11.4375L8.02823 10.5L9.45792 16.5117L9.73917 22.207C9.77432 22.793 10.161 23.1562 10.6884 23.1562C11.204 23.1562 11.661 22.7695 11.6259 22.1367L11.3564 16.418C11.3446 16.2656 11.3329 16.1484 11.286 16.0078L9.78604 10.1484C9.71573 9.85547 9.46964 9.66797 9.17667 9.66797L2.4501 9.66797C2.15714 9.66797 1.92276 9.85547 1.84073 10.1484L0.340729 16.0078C0.293854 16.1484 0.282135 16.2656 0.282135 16.418L0.000885044 22.1367C-0.0225525 22.7695 0.42276 23.1562 0.950104 23.1562Z" fill="black" fill-opacity="0.85"/>
  <path d="M2.3212 8.0625L9.2587 8.0625L6.80948 0.773438C6.64542 0.28125 6.31729 0 5.81339 0C5.28604 0 4.91104 0.28125 4.74698 0.773438Z" fill="black" fill-opacity="0.85"/>
 </g>
</svg>
