<?xml version="1.0" encoding="UTF-8"?>
<!--Generator: Apple Native CoreSVG 360-->
<!DOCTYPE svg
PUBLIC "-//W3C//DTD SVG 1.1//EN"
       "http://www.w3.org/Graphics/SVG/1.1/DTD/svg11.dtd">
<svg version="1.1" xmlns="http://www.w3.org/2000/svg" xmlns:xlink="http://www.w3.org/1999/xlink" viewBox="0 0 19.6547 18.6314">
 <g>
  <rect height="18.6314" opacity="0" width="19.6547" x="0" y="0"/>
  <path d="M0.364455 18.0989C0.188674 18.4387 0.551955 18.7434 0.833205 18.5911L2.59102 17.677L1.31367 16.3997ZM1.85274 15.4036L3.59883 17.1614L4.29024 16.7981L18.552 2.60671C19.1262 2.03249 19.1262 1.10671 18.552 0.544213C17.9895-0.0300056 17.0637-0.0300056 16.5012 0.532494L2.22774 14.7356Z" fill="black" fill-opacity="0.85"/>
  <path d="M5.25117 7.23562C6.38789 6.0989 7.18477 4.75124 7.59492 3.26296C7.73555 2.74734 7.41914 2.27859 6.92696 2.19656C6.43477 2.11453 6.05977 2.40749 5.91914 2.88796C5.59102 4.04812 4.96992 5.11453 4.05586 6.02859C3.09492 6.98953 1.95821 7.62234 0.762893 7.92703C0.247268 8.04421-0.0691385 8.44265 0.0128928 8.93484C0.094924 9.42703 0.540237 9.76687 1.05586 9.62624C2.61446 9.25124 4.05586 8.44265 5.25117 7.23562ZM12.3293 13.5169C11.2043 14.6536 10.4074 16.0012 9.99727 17.4895C9.85664 18.0052 10.173 18.4739 10.6535 18.5559C11.1457 18.638 11.5324 18.345 11.673 17.8645C12.0012 16.7044 12.6223 15.638 13.5363 14.7239C14.4973 13.763 15.6223 13.1302 16.8293 12.8255C17.3449 12.7083 17.6496 12.3098 17.5793 11.8177C17.4973 11.3255 17.052 10.9856 16.5363 11.1262C14.9777 11.5012 13.5363 12.3098 12.3293 13.5169Z" fill="black" fill-opacity="0.85"/>
 </g>
</svg>
