<?xml version="1.0" encoding="UTF-8"?>
<!--Generator: Apple Native CoreSVG 360-->
<!DOCTYPE svg
PUBLIC "-//W3C//DTD SVG 1.1//EN"
       "http://www.w3.org/Graphics/SVG/1.1/DTD/svg11.dtd">
<svg version="1.1" xmlns="http://www.w3.org/2000/svg" xmlns:xlink="http://www.w3.org/1999/xlink" viewBox="0 0 12.8438 24.5977">
 <g>
  <rect height="24.5977" opacity="0" width="12.8438" x="0" y="0"/>
  <path d="M3.1875 0C1.23047 0 0 1.18359 0 3.04688L0 21.5742L1.88672 20.4023L1.88672 3.35156C1.88672 2.42578 2.44922 1.88672 3.43359 1.88672L9.07031 1.88672C10.043 1.88672 10.6055 2.42578 10.6055 3.35156L10.6055 20.4023L12.4922 21.5742L12.4922 3.04688C12.4922 1.18359 11.2617 0 9.30469 0ZM2.98828 24.5508L9.51562 24.5508C11.2617 24.5508 12.4922 23.3203 12.4922 21.5742C12.4922 19.8164 11.2617 18.5859 9.51562 18.5859L2.98828 18.5859C1.24219 18.5859 0 19.8164 0 21.5742C0 23.3203 1.24219 24.5508 2.98828 24.5508ZM2.98828 22.7812C2.27344 22.7812 1.76953 22.2773 1.76953 21.5742C1.76953 20.8594 2.27344 20.3555 2.98828 20.3555L9.51562 20.3555C10.2305 20.3555 10.7227 20.8594 10.7227 21.5742C10.7227 22.2773 10.2305 22.7812 9.51562 22.7812ZM6.25781 5.87109C7.03125 5.87109 7.67578 5.23828 7.67578 4.46484C7.67578 3.67969 7.03125 3.04688 6.25781 3.04688C5.47266 3.04688 4.83984 3.67969 4.83984 4.46484C4.83984 5.23828 5.47266 5.87109 6.25781 5.87109Z" fill="black" fill-opacity="0.85"/>
 </g>
</svg>
