<?xml version="1.0" encoding="UTF-8"?>
<!--Generator: Apple Native CoreSVG 360-->
<!DOCTYPE svg
PUBLIC "-//W3C//DTD SVG 1.1//EN"
       "http://www.w3.org/Graphics/SVG/1.1/DTD/svg11.dtd">
<svg version="1.1" xmlns="http://www.w3.org/2000/svg" xmlns:xlink="http://www.w3.org/1999/xlink" viewBox="0 0 23.7539 23.332">
 <g>
  <rect height="23.332" opacity="0" width="23.7539" x="0" y="0"/>
  <path d="M6.24609 23.332L17.1445 23.332C19.1484 23.332 20.8359 23.1445 22.0312 21.9492C23.2266 20.7539 23.4023 19.0781 23.4023 17.0742L23.4023 6.26953C23.4023 4.26562 23.2266 2.60156 22.0312 1.40625C20.8359 0.210938 19.1484 0.0234375 17.1445 0.0234375L6.22266 0.0234375C4.25391 0.0234375 2.56641 0.210938 1.37109 1.40625C0.175781 2.60156 0 4.27734 0 6.24609L0 17.0742C0 19.0781 0.175781 20.7539 1.37109 21.9492C2.56641 23.1445 4.25391 23.332 6.24609 23.332ZM5.92969 21.4453C4.72266 21.4453 3.45703 21.2812 2.74219 20.5664C2.03906 19.8633 1.88672 18.6094 1.88672 17.4023L1.88672 5.98828C1.88672 4.74609 2.03906 3.49219 2.74219 2.77734C3.45703 2.07422 4.73438 1.91016 5.96484 1.91016L17.4727 1.91016C18.6797 1.91016 19.9453 2.07422 20.6484 2.78906C21.3633 3.49219 21.5156 4.74609 21.5156 5.95312L21.5156 17.4023C21.5156 18.6094 21.3633 19.8633 20.6484 20.5664C19.9453 21.2812 18.6797 21.4453 17.4727 21.4453Z" fill="black" fill-opacity="0.85"/>
  <path d="M5.82422 15.1289C6.32812 15.1289 6.52734 14.7891 7.14844 14.7891C7.76953 14.7891 7.92188 15.1289 8.46094 15.1289C9 15.1289 9.36328 14.625 9.71484 14.1211C10.0781 13.5703 10.2539 13.0195 10.2539 12.9844C10.2422 12.9844 9.17578 12.5508 9.17578 11.3555C9.17578 10.3477 10.0078 9.87891 10.043 9.83203C9.52734 9.08203 8.68359 9.05859 8.46094 9.05859C7.85156 9.05859 7.35938 9.39844 7.04297 9.39844C6.71484 9.39844 6.28125 9.08203 5.74219 9.08203C4.75781 9.08203 3.73828 9.89062 3.73828 11.4492C3.73828 12.4219 4.08984 13.4414 4.55859 14.0977C4.98047 14.6602 5.32031 15.1289 5.82422 15.1289ZM7.08984 8.95312C7.82812 8.95312 8.61328 8.14453 8.60156 7.26562C8.61328 7.21875 8.60156 7.16016 8.57812 7.11328C7.79297 7.13672 6.98438 7.93359 6.98438 8.80078C6.98438 8.84766 6.98438 8.91797 6.99609 8.94141C7.00781 8.95312 7.04297 8.95312 7.08984 8.95312ZM13.2188 15.0938C13.4766 15.0938 13.7461 15.082 13.875 15.0586L13.9102 15.0352L13.9102 14.0625L13.8633 14.0625C13.7812 14.0859 13.6055 14.0977 13.4883 14.0977C13.043 14.0977 12.8438 13.8867 12.8438 13.418L12.8438 10.3242L13.9219 10.3242L13.9219 9.33984L12.8438 9.33984L12.8438 7.99219L11.6367 7.99219L11.6367 9.33984L10.8047 9.33984L10.8047 10.3242L11.6367 10.3242L11.6367 13.5586C11.6367 14.6484 12.0938 15.0938 13.2188 15.0938ZM16.4297 15.0586L17.6953 15.0586L19.6992 9.33984L18.4336 9.33984L17.0742 13.793L15.7031 9.33984L14.4023 9.33984Z" fill="black" fill-opacity="0.85"/>
 </g>
</svg>
