<?xml version="1.0" encoding="UTF-8"?>
<!--Generator: Apple Native CoreSVG 360-->
<!DOCTYPE svg
PUBLIC "-//W3C//DTD SVG 1.1//EN"
       "http://www.w3.org/Graphics/SVG/1.1/DTD/svg11.dtd">
<svg version="1.1" xmlns="http://www.w3.org/2000/svg" xmlns:xlink="http://www.w3.org/1999/xlink" viewBox="0 0 28.3242 24.668">
 <g>
  <rect height="24.668" opacity="0" width="28.3242" x="0" y="0"/>
  <path d="M3.375 22.0664C3.375 23.7188 4.34766 24.668 6.02344 24.668L21.9727 24.668C23.6367 24.668 24.6094 23.7188 24.6094 22.0664L24.6094 8.95312L22.9453 8.84766L22.9453 21.832C22.9453 22.5938 22.5352 23.0156 21.7969 23.0156L6.19922 23.0156C5.44922 23.0156 5.03906 22.5938 5.03906 21.832L5.03906 8.84766L3.375 8.95312ZM0 11.5664C0 12.0234 0.339844 12.3516 0.855469 12.3516C1.06641 12.3516 1.23047 12.2695 1.38281 12.1523L13.582 1.92188C13.8281 1.69922 14.1445 1.6875 14.4023 1.92188L26.6016 12.1523C26.7422 12.2695 26.9062 12.3516 27.1289 12.3516C27.6328 12.3516 27.9727 12.0234 27.9727 11.5664C27.9727 11.25 27.8555 11.0391 27.5977 10.8281L15.3984 0.574219C14.5312-0.164062 13.4648-0.164062 12.5859 0.574219L0.375 10.8281C0.117188 11.0391 0 11.25 0 11.5664ZM21.668 6.30469L24.6094 8.80078L24.6094 3.375C24.6094 2.87109 24.2812 2.54297 23.7656 2.54297L22.5117 2.54297C22.0078 2.54297 21.668 2.87109 21.668 3.375Z" fill="black" fill-opacity="0.85"/>
  <path d="M7.23047 19.3359C7.23047 20.2852 7.82812 20.8359 8.85938 20.8359L19.1367 20.8359C20.1562 20.8359 20.7656 20.2852 20.7656 19.3359L20.7656 10.1953L14.7539 5.16797C14.2852 4.78125 13.6992 4.78125 13.2422 5.16797L7.23047 10.1953ZM8.89453 18.6211L8.89453 11.0039L13.6172 7.04297C13.8281 6.86719 14.1562 6.85547 14.3672 7.04297L19.1016 11.0156L19.1016 18.6211C19.1016 18.9844 18.9023 19.1836 18.5391 19.1836L9.44531 19.1836C9.09375 19.1836 8.89453 18.9844 8.89453 18.6211Z" fill="black" fill-opacity="0.85"/>
  <path d="M11.0742 15.9141C11.0742 16.5938 11.5195 17.0156 12.2344 17.0156L15.75 17.0156C16.4766 17.0156 16.9102 16.5938 16.9102 15.9141L16.9102 12.082L14.6602 10.1836C14.25 9.84375 13.7344 9.84375 13.3359 10.1836L11.0742 12.082ZM12.7031 15.1406L12.7031 12.832L13.7109 11.9883C13.8867 11.8359 14.1094 11.8359 14.2734 11.9883L15.2812 12.832L15.2812 15.1406C15.2812 15.3164 15.1992 15.4102 15.0117 15.4102L12.9727 15.4102C12.7969 15.4102 12.7031 15.3164 12.7031 15.1406Z" fill="black" fill-opacity="0.85"/>
 </g>
</svg>
