<?xml version="1.0" encoding="UTF-8"?>
<!--Generator: Apple Native CoreSVG 360-->
<!DOCTYPE svg
PUBLIC "-//W3C//DTD SVG 1.1//EN"
       "http://www.w3.org/Graphics/SVG/1.1/DTD/svg11.dtd">
<svg version="1.1" xmlns="http://www.w3.org/2000/svg" xmlns:xlink="http://www.w3.org/1999/xlink" viewBox="0 0 29.8983 22.1338">
 <g>
  <rect height="22.1338" opacity="0" width="29.8983" x="0" y="0"/>
  <path d="M0.201105 15.0923C-0.619207 17.0962 1.23236 18.0454 2.82611 16.897C4.11517 15.9478 5.41595 14.9985 6.70501 14.0142L6.23626 13.7681C5.06439 15.3618 4.5722 16.7564 4.5722 17.8579C4.5722 20.4829 7.24407 21.7134 10.0097 20.3306C10.7363 19.9673 10.4784 18.2212 9.13079 18.8189C7.37298 19.5923 6.23626 19.2056 6.23626 17.7759C6.23626 16.44 7.22064 14.1782 9.43548 11.2485C10.1386 10.3228 9.01361 9.12745 8.04095 10.1587C6.16595 12.0571 3.57611 13.9556 1.34954 15.8306L1.70111 16.1235L6.98626 3.24464C7.33782 2.37745 5.75579 1.56886 5.25189 2.77589Z" fill="black" fill-opacity="0.85"/>
  <path d="M11.3925 17.5415C11.2167 17.8814 11.58 18.186 11.873 18.0337L13.6191 17.1196L12.3417 15.8423ZM12.8808 14.8579L14.6269 16.604L15.3183 16.2407L29.123 2.48292C29.6972 1.92042 29.6972 0.99464 29.123 0.43214C28.5488-0.142079 27.623-0.142079 27.0605 0.420421L13.2558 14.1782Z" fill="black" fill-opacity="0.85"/>
 </g>
</svg>
