<?xml version="1.0" encoding="UTF-8"?>
<!--Generator: Apple Native CoreSVG 360-->
<!DOCTYPE svg
PUBLIC "-//W3C//DTD SVG 1.1//EN"
       "http://www.w3.org/Graphics/SVG/1.1/DTD/svg11.dtd">
<svg version="1.1" xmlns="http://www.w3.org/2000/svg" xmlns:xlink="http://www.w3.org/1999/xlink" viewBox="0 0 25.793 31.418">
 <g>
  <rect height="31.418" opacity="0" width="25.793" x="0" y="0"/>
  <path d="M2.82422 21.082C2.82422 21.8203 3.30469 22.2773 4.07812 22.2773L5.89453 22.2773L5.89453 24.0469L3.87891 24.0469C2.16797 24.0469 1.05469 22.9805 1.05469 21.3398L1.05469 19.4062L2.82422 19.4062ZM2.82422 18.0352L1.05469 18.0352L1.05469 13.4883L2.82422 13.4883ZM2.82422 12.1172L1.05469 12.1172L1.05469 7.57031L2.82422 7.57031ZM8.71875 3.375L4.07812 3.375C3.30469 3.375 2.82422 3.83203 2.82422 4.57031L2.82422 6.19922L1.05469 6.19922L1.05469 4.3125C1.05469 2.67188 2.16797 1.59375 3.87891 1.59375L8.71875 1.59375ZM17.7656 4.3125L17.7656 5.75391L15.9961 5.75391L15.9961 4.57031C15.9961 3.83203 15.5156 3.375 14.7422 3.375L10.0898 3.375L10.0898 1.59375L14.9414 1.59375C16.6406 1.59375 17.7656 2.67188 17.7656 4.3125Z" fill="black" fill-opacity="0.85"/>
  <path d="M10.3125 29.8125L21.3516 29.8125C23.0625 29.8125 24.1875 28.7461 24.1875 27.1055L24.1875 10.0781C24.1875 8.4375 23.0625 7.35938 21.3516 7.35938L10.3125 7.35938C8.60156 7.35938 7.48828 8.4375 7.48828 10.0781L7.48828 27.1055C7.48828 28.7461 8.60156 29.8125 10.3125 29.8125ZM10.5117 28.043C9.73828 28.043 9.25781 27.5859 9.25781 26.8594L9.25781 10.3477C9.25781 9.59766 9.73828 9.14062 10.5117 9.14062L21.1523 9.14062C21.9258 9.14062 22.4062 9.59766 22.4062 10.3477L22.4062 26.8594C22.4062 27.5859 21.9258 28.043 21.1523 28.043ZM11.4141 12.6328L12.2578 12.6328C12.5273 12.6328 12.7148 12.4453 12.7148 12.2109L12.7148 11.332C12.7148 11.0859 12.5273 10.9102 12.2578 10.9102L11.4141 10.9102C11.1914 10.9102 11.0039 11.0859 11.0039 11.332L11.0039 12.2109C11.0039 12.4336 11.1914 12.6328 11.4141 12.6328ZM14.0859 12.6328L14.9531 12.6328C15.2109 12.6328 15.3867 12.4453 15.3867 12.2109L15.3867 11.332C15.3867 11.0859 15.2109 10.9102 14.9531 10.9102L14.0859 10.9102C13.8633 10.9102 13.6875 11.0859 13.6875 11.332L13.6875 12.2109C13.6875 12.4336 13.8633 12.6328 14.0859 12.6328ZM16.7695 12.6328L17.625 12.6328C17.8594 12.6328 18.0586 12.4453 18.0586 12.2109L18.0586 11.332C18.0586 11.0859 17.8594 10.9102 17.625 10.9102L16.7695 10.9102C16.5234 10.9102 16.3594 11.0859 16.3594 11.332L16.3594 12.2109C16.3594 12.4336 16.5234 12.6328 16.7695 12.6328ZM19.4297 12.6328L20.2852 12.6328C20.5547 12.6328 20.7305 12.4453 20.7305 12.2109L20.7305 11.332C20.7305 11.0859 20.5547 10.9102 20.2852 10.9102L19.4297 10.9102C19.207 10.9102 19.0312 11.0859 19.0312 11.332L19.0312 12.2109C19.0312 12.4336 19.207 12.6328 19.4297 12.6328ZM11.4141 15.2461L12.2578 15.2461C12.5273 15.2461 12.7148 15.0703 12.7148 14.8359L12.7148 13.9453C12.7148 13.7109 12.5273 13.5469 12.2578 13.5469L11.4141 13.5469C11.1914 13.5469 11.0039 13.7227 11.0039 13.9453L11.0039 14.8359C11.0039 15.0703 11.1914 15.2461 11.4141 15.2461ZM14.0859 15.2461L14.9531 15.2461C15.2109 15.2461 15.3867 15.0703 15.3867 14.8359L15.3867 13.9453C15.3867 13.7109 15.2109 13.5469 14.9531 13.5469L14.0859 13.5469C13.8633 13.5469 13.6641 13.7227 13.6641 13.9453L13.6641 14.8359C13.6641 15.0703 13.8633 15.2461 14.0859 15.2461ZM16.7695 15.2461L17.625 15.2461C17.8594 15.2461 18.0586 15.0703 18.0586 14.8477L18.0586 13.9453C18.0586 13.7109 17.8594 13.5469 17.625 13.5469L16.7695 13.5469C16.5234 13.5469 16.3594 13.7227 16.3594 13.9453L16.3594 14.8477C16.3594 15.0703 16.5234 15.2461 16.7695 15.2461ZM19.4297 15.2461L20.2852 15.2461C20.5547 15.2461 20.7305 15.0703 20.7305 14.8477L20.7305 13.9453C20.7305 13.7109 20.5547 13.5469 20.2852 13.5469L19.4297 13.5469C19.207 13.5469 19.0312 13.7227 19.0312 13.9453L19.0312 14.8477C19.0312 15.0703 19.207 15.2461 19.4297 15.2461ZM11.4141 17.8828L12.2578 17.8828C12.5273 17.8828 12.7148 17.707 12.7148 17.4727L12.7148 16.5938C12.7148 16.3594 12.5273 16.1602 12.2578 16.1602L11.4141 16.1602C11.1914 16.1602 11.0039 16.3594 11.0039 16.5938L11.0039 17.4727C11.0039 17.707 11.1914 17.8828 11.4141 17.8828ZM14.0859 17.8828L14.9531 17.8828C15.2109 17.8828 15.3867 17.707 15.3867 17.4727L15.3867 16.5938C15.3867 16.3594 15.2109 16.1602 14.9531 16.1602L14.0859 16.1602C13.8633 16.1602 13.6641 16.3594 13.6641 16.5938L13.6641 17.4727C13.6641 17.707 13.8633 17.8828 14.0859 17.8828ZM11.4141 26.2734L12.2578 26.2734C12.5273 26.2734 12.7148 26.0977 12.7148 25.8516L12.7148 24.9727C12.7148 24.7383 12.5273 24.5625 12.2578 24.5625L11.4141 24.5625C11.1914 24.5625 11.0039 24.75 11.0039 24.9727L11.0039 25.8516C11.0039 26.0977 11.1914 26.2734 11.4141 26.2734ZM14.0859 26.2734L14.9531 26.2734C15.2109 26.2734 15.3867 26.0977 15.3867 25.8516L15.3867 24.9727C15.3867 24.7383 15.2109 24.5625 14.9531 24.5625L14.0859 24.5625C13.8633 24.5625 13.6641 24.75 13.6641 24.9727L13.6641 25.8516C13.6641 26.0977 13.8633 26.2734 14.0859 26.2734ZM16.7695 26.2734L17.625 26.2734C17.8594 26.2734 18.0586 26.0977 18.0586 25.8516L18.0586 24.9727C18.0586 24.7383 17.8594 24.5625 17.625 24.5625L16.7695 24.5625C16.5234 24.5625 16.3594 24.75 16.3594 24.9727L16.3594 25.8516C16.3594 26.0977 16.5234 26.2734 16.7695 26.2734ZM19.4297 26.2734L20.2852 26.2734C20.5547 26.2734 20.7305 26.0977 20.7305 25.8516L20.7305 24.9727C20.7305 24.7383 20.5547 24.5625 20.2852 24.5625L19.4297 24.5625C19.207 24.5625 19.043 24.75 19.043 24.9727L19.043 25.8516C19.043 26.0977 19.207 26.2734 19.4297 26.2734Z" fill="black" fill-opacity="0.85"/>
 </g>
</svg>
