<?xml version="1.0" encoding="UTF-8"?>
<!--Generator: Apple Native CoreSVG 360-->
<!DOCTYPE svg
PUBLIC "-//W3C//DTD SVG 1.1//EN"
       "http://www.w3.org/Graphics/SVG/1.1/DTD/svg11.dtd">
<svg version="1.1" xmlns="http://www.w3.org/2000/svg" xmlns:xlink="http://www.w3.org/1999/xlink" viewBox="0 0 27.9844 21.5977">
 <g>
  <rect height="21.5977" opacity="0" width="27.9844" x="0" y="0"/>
  <path d="M3.67969 21.5977L23.9531 21.5977C26.4141 21.5977 27.6328 20.3789 27.6328 17.9648L27.6328 3.65625C27.6328 1.24219 26.4141 0.0234375 23.9531 0.0234375L3.67969 0.0234375C1.23047 0.0234375 0 1.23047 0 3.65625L0 17.9648C0 20.3906 1.23047 21.5977 3.67969 21.5977ZM3.70312 19.7109C2.53125 19.7109 1.88672 19.0898 1.88672 17.8711L1.88672 3.75C1.88672 2.53125 2.53125 1.91016 3.70312 1.91016L23.9297 1.91016C25.0898 1.91016 25.7461 2.53125 25.7461 3.75L25.7461 17.8711C25.7461 19.0898 25.0898 19.7109 23.9297 19.7109Z" fill="black" fill-opacity="0.85"/>
  <path d="M4.78125 6.45703L5.94141 6.45703C6.28125 6.45703 6.55078 6.22266 6.55078 5.89453L6.55078 4.69922C6.55078 4.35938 6.28125 4.13672 5.94141 4.13672L4.78125 4.13672C4.46484 4.13672 4.21875 4.37109 4.21875 4.69922L4.21875 5.89453C4.21875 6.21094 4.46484 6.45703 4.78125 6.45703ZM9 6.45703L10.1602 6.45703C10.5117 6.45703 10.7695 6.22266 10.7695 5.89453L10.7695 4.69922C10.7695 4.35938 10.5117 4.13672 10.1602 4.13672L9 4.13672C8.68359 4.13672 8.4375 4.37109 8.4375 4.69922L8.4375 5.89453C8.4375 6.21094 8.68359 6.45703 9 6.45703ZM13.2188 6.45703L14.3789 6.45703C14.7188 6.45703 14.9766 6.22266 14.9766 5.89453L14.9766 4.69922C14.9766 4.35938 14.7188 4.13672 14.3789 4.13672L13.2188 4.13672C12.8906 4.13672 12.6562 4.37109 12.6562 4.69922L12.6562 5.89453C12.6562 6.21094 12.8906 6.45703 13.2188 6.45703ZM17.4258 6.45703L18.5859 6.45703C18.9375 6.45703 19.1953 6.22266 19.1953 5.89453L19.1953 4.69922C19.1953 4.35938 18.9375 4.13672 18.5859 4.13672L17.4258 4.13672C17.1094 4.13672 16.8633 4.37109 16.8633 4.69922L16.8633 5.89453C16.8633 6.21094 17.1094 6.45703 17.4258 6.45703ZM21.6445 6.45703L22.8047 6.45703C23.1445 6.45703 23.4023 6.22266 23.4023 5.89453L23.4023 4.69922C23.4023 4.35938 23.1445 4.13672 22.8047 4.13672L21.6445 4.13672C21.3164 4.13672 21.082 4.37109 21.082 4.69922L21.082 5.89453C21.082 6.21094 21.3164 6.45703 21.6445 6.45703ZM4.78125 10.3242L5.94141 10.3242C6.28125 10.3242 6.55078 10.0898 6.55078 9.76172L6.55078 8.56641C6.55078 8.22656 6.28125 8.00391 5.94141 8.00391L4.78125 8.00391C4.46484 8.00391 4.21875 8.23828 4.21875 8.56641L4.21875 9.76172C4.21875 10.0781 4.46484 10.3242 4.78125 10.3242ZM9 10.3242L10.1602 10.3242C10.5117 10.3242 10.7695 10.0898 10.7695 9.76172L10.7695 8.56641C10.7695 8.22656 10.5117 8.00391 10.1602 8.00391L9 8.00391C8.68359 8.00391 8.4375 8.23828 8.4375 8.56641L8.4375 9.76172C8.4375 10.0781 8.68359 10.3242 9 10.3242ZM13.2188 10.3242L14.3789 10.3242C14.7188 10.3242 14.9766 10.0898 14.9766 9.76172L14.9766 8.56641C14.9766 8.22656 14.7188 8.00391 14.3789 8.00391L13.2188 8.00391C12.8906 8.00391 12.6562 8.23828 12.6562 8.56641L12.6562 9.76172C12.6562 10.0781 12.8906 10.3242 13.2188 10.3242ZM17.4258 10.3242L18.5859 10.3242C18.9375 10.3242 19.1953 10.0898 19.1953 9.76172L19.1953 8.56641C19.1953 8.22656 18.9375 8.00391 18.5859 8.00391L17.4258 8.00391C17.1094 8.00391 16.8633 8.23828 16.8633 8.56641L16.8633 9.76172C16.8633 10.0781 17.1094 10.3242 17.4258 10.3242ZM4.78125 17.4844L5.94141 17.4844C6.28125 17.4844 6.55078 17.25 6.55078 16.9219L6.55078 15.7266C6.55078 15.3867 6.28125 15.1523 5.94141 15.1523L4.78125 15.1523C4.46484 15.1523 4.21875 15.3984 4.21875 15.7266L4.21875 16.9219C4.21875 17.2383 4.46484 17.4844 4.78125 17.4844ZM9 17.4844L10.1602 17.4844C10.5117 17.4844 10.7695 17.25 10.7695 16.9219L10.7695 15.7266C10.7695 15.3867 10.5117 15.1523 10.1602 15.1523L9 15.1523C8.68359 15.1523 8.4375 15.3984 8.4375 15.7266L8.4375 16.9219C8.4375 17.2383 8.68359 17.4844 9 17.4844ZM13.2188 17.4844L14.3789 17.4844C14.7188 17.4844 14.9766 17.25 14.9766 16.9219L14.9766 15.7266C14.9766 15.3867 14.7188 15.1523 14.3789 15.1523L13.2188 15.1523C12.8906 15.1523 12.6562 15.3984 12.6562 15.7266L12.6562 16.9219C12.6562 17.2383 12.8906 17.4844 13.2188 17.4844ZM17.4258 17.4844L18.5859 17.4844C18.9375 17.4844 19.1953 17.25 19.1953 16.9219L19.1953 15.7266C19.1953 15.3867 18.9375 15.1523 18.5859 15.1523L17.4258 15.1523C17.1094 15.1523 16.8633 15.3984 16.8633 15.7266L16.8633 16.9219C16.8633 17.2383 17.1094 17.4844 17.4258 17.4844ZM21.6445 17.4844L22.8047 17.4844C23.1445 17.4844 23.4023 17.25 23.4023 16.9219L23.4023 15.7266C23.4023 15.3867 23.1445 15.1523 22.8047 15.1523L21.6445 15.1523C21.3164 15.1523 21.082 15.3984 21.082 15.7266L21.082 16.9219C21.082 17.2383 21.3164 17.4844 21.6445 17.4844Z" fill="black" fill-opacity="0.85"/>
 </g>
</svg>
