<?xml version="1.0" encoding="UTF-8"?>
<!--Generator: Apple Native CoreSVG 360-->
<!DOCTYPE svg
PUBLIC "-//W3C//DTD SVG 1.1//EN"
       "http://www.w3.org/Graphics/SVG/1.1/DTD/svg11.dtd">
<svg version="1.1" xmlns="http://www.w3.org/2000/svg" xmlns:xlink="http://www.w3.org/1999/xlink" viewBox="0 0 25.1719 15.1055">
 <g>
  <rect height="15.1055" opacity="0" width="25.1719" x="0" y="0"/>
  <path d="M3.04688 15.082L21.7617 15.082C23.5898 15.082 24.8203 13.793 24.8203 11.8828L24.8203 3.1875C24.8203 1.27734 23.6016 0 21.7734 0L3.05859 0C1.23047 0 0 1.27734 0 3.1875L0 11.8828C0 13.793 1.21875 15.082 3.04688 15.082ZM3.35156 13.1953C2.41406 13.1953 1.88672 12.6328 1.88672 11.6484L1.88672 3.43359C1.88672 2.44922 2.41406 1.88672 3.35156 1.88672L21.4688 1.88672C22.4062 1.88672 22.9336 2.44922 22.9336 3.43359L22.9336 11.6484C22.9336 12.6328 22.4062 13.1953 21.457 13.1953Z" fill="black" fill-opacity="0.85"/>
  <path d="M3.98438 5.56641L5.12109 5.56641C5.36719 5.56641 5.54297 5.39062 5.54297 5.13281L5.54297 4.03125C5.54297 3.76172 5.36719 3.57422 5.12109 3.57422L3.98438 3.57422C3.73828 3.57422 3.5625 3.76172 3.5625 4.03125L3.5625 5.13281C3.5625 5.39062 3.73828 5.56641 3.98438 5.56641ZM7.17188 5.56641L8.29688 5.56641C8.54297 5.56641 8.73047 5.39062 8.73047 5.13281L8.73047 4.03125C8.73047 3.76172 8.55469 3.57422 8.29688 3.57422L7.17188 3.57422C6.91406 3.57422 6.73828 3.76172 6.73828 4.03125L6.73828 5.13281C6.73828 5.39062 6.91406 5.56641 7.17188 5.56641ZM10.3477 5.56641L11.4727 5.56641C11.7305 5.56641 11.9062 5.39062 11.9062 5.13281L11.9062 4.03125C11.9062 3.76172 11.7305 3.57422 11.4727 3.57422L10.3477 3.57422C10.0898 3.57422 9.91406 3.76172 9.91406 4.03125L9.91406 5.13281C9.91406 5.39062 10.0898 5.56641 10.3477 5.56641ZM13.5234 5.56641L14.6602 5.56641C14.9062 5.56641 15.082 5.39062 15.082 5.13281L15.082 4.03125C15.082 3.76172 14.9062 3.57422 14.6602 3.57422L13.5234 3.57422C13.2773 3.57422 13.1016 3.76172 13.1016 4.03125L13.1016 5.13281C13.1016 5.39062 13.2773 5.56641 13.5234 5.56641ZM3.98438 8.54297L5.12109 8.54297C5.36719 8.54297 5.54297 8.36719 5.54297 8.10938L5.54297 7.00781C5.54297 6.73828 5.36719 6.55078 5.12109 6.55078L3.98438 6.55078C3.73828 6.55078 3.5625 6.73828 3.5625 7.00781L3.5625 8.10938C3.5625 8.36719 3.73828 8.54297 3.98438 8.54297ZM7.17188 8.54297L8.29688 8.54297C8.54297 8.54297 8.73047 8.36719 8.73047 8.10938L8.73047 7.00781C8.73047 6.73828 8.55469 6.55078 8.29688 6.55078L7.17188 6.55078C6.91406 6.55078 6.73828 6.73828 6.73828 7.00781L6.73828 8.10938C6.73828 8.36719 6.91406 8.54297 7.17188 8.54297ZM10.3594 8.54297L11.4727 8.54297C11.7422 8.54297 11.918 8.36719 11.918 8.10938L11.918 7.00781C11.918 6.73828 11.7422 6.55078 11.4727 6.55078L10.3594 6.55078C10.0898 6.55078 9.91406 6.73828 9.91406 7.00781L9.91406 8.10938C9.91406 8.36719 10.0898 8.54297 10.3594 8.54297ZM19.7812 5.56641L20.9062 5.56641C21.1641 5.56641 21.3398 5.39062 21.3398 5.13281L21.3398 4.03125C21.3398 3.76172 21.1641 3.57422 20.918 3.57422L19.7812 3.57422C19.5352 3.57422 19.3594 3.76172 19.3594 4.03125L19.3594 5.13281C19.3594 5.39062 19.5234 5.56641 19.7812 5.56641ZM19.7812 8.54297L20.918 8.54297C21.1641 8.54297 21.3398 8.36719 21.3398 8.10938L21.3398 7.00781C21.3398 6.73828 21.1641 6.55078 20.918 6.55078L19.7812 6.55078C19.5352 6.55078 19.3594 6.73828 19.3594 7.00781L19.3594 8.10938C19.3594 8.36719 19.5352 8.54297 19.7812 8.54297ZM19.7812 11.5078L20.9062 11.5078C21.1641 11.5078 21.3398 11.332 21.3398 11.0859L21.3398 9.98438C21.3398 9.71484 21.1641 9.52734 20.918 9.52734L19.7812 9.52734C19.5352 9.52734 19.3594 9.71484 19.3594 9.98438L19.3594 11.0859C19.3594 11.332 19.5352 11.5078 19.7812 11.5078Z" fill="black" fill-opacity="0.85"/>
 </g>
</svg>
