<?xml version="1.0" encoding="UTF-8"?>
<!--Generator: Apple Native CoreSVG 360-->
<!DOCTYPE svg
PUBLIC "-//W3C//DTD SVG 1.1//EN"
       "http://www.w3.org/Graphics/SVG/1.1/DTD/svg11.dtd">
<svg version="1.1" xmlns="http://www.w3.org/2000/svg" xmlns:xlink="http://www.w3.org/1999/xlink" viewBox="0 0 19.9336 26.4258">
 <g>
  <rect height="26.4258" opacity="0" width="19.9336" x="0" y="0"/>
  <path d="M0 23.3086C0 25.1602 1.30078 26.4023 3.24609 26.4023L16.3359 26.4023C18.2812 26.4023 19.582 25.1602 19.582 23.3086L19.582 3.10547C19.582 1.25391 18.2812 0 16.3359 0L3.24609 0C1.30078 0 0 1.25391 0 3.10547ZM1.88672 22.9922L1.88672 3.42188C1.88672 2.46094 2.47266 1.88672 3.48047 1.88672L16.1016 1.88672C17.0977 1.88672 17.6953 2.46094 17.6953 3.42188L17.6953 22.9922C17.6953 23.9531 17.0977 24.5156 16.1016 24.5156L3.48047 24.5156C2.47266 24.5156 1.88672 23.9531 1.88672 22.9922Z" fill="black" fill-opacity="0.85"/>
  <path d="M4.45312 6.08203L5.47266 6.08203C5.77734 6.08203 6.02344 5.87109 6.02344 5.58984L6.02344 4.52344C6.02344 4.23047 5.77734 4.01953 5.47266 4.01953L4.45312 4.01953C4.17188 4.01953 3.96094 4.24219 3.96094 4.52344L3.96094 5.58984C3.96094 5.85938 4.17188 6.08203 4.45312 6.08203ZM7.67578 6.08203L8.69531 6.08203C9 6.08203 9.22266 5.87109 9.22266 5.58984L9.22266 4.52344C9.22266 4.23047 9 4.01953 8.69531 4.01953L7.67578 4.01953C7.39453 4.01953 7.17188 4.24219 7.17188 4.52344L7.17188 5.58984C7.17188 5.85938 7.39453 6.08203 7.67578 6.08203ZM10.875 6.08203L11.9062 6.08203C12.2109 6.08203 12.4453 5.87109 12.4453 5.58984L12.4453 4.52344C12.4453 4.23047 12.2109 4.01953 11.9062 4.01953L10.875 4.01953C10.5938 4.01953 10.3828 4.24219 10.3828 4.52344L10.3828 5.58984C10.3828 5.85938 10.5938 6.08203 10.875 6.08203ZM14.0859 6.08203L15.1172 6.08203C15.4336 6.08203 15.6445 5.87109 15.6445 5.58984L15.6445 4.52344C15.6445 4.23047 15.4336 4.01953 15.1172 4.01953L14.0859 4.01953C13.8047 4.01953 13.5938 4.24219 13.5938 4.52344L13.5938 5.58984C13.5938 5.85938 13.8047 6.08203 14.0859 6.08203ZM4.45312 9.24609L5.47266 9.24609C5.77734 9.24609 6.02344 9.02344 6.02344 8.73047L6.02344 7.67578C6.02344 7.38281 5.77734 7.18359 5.47266 7.18359L4.45312 7.18359C4.17188 7.18359 3.96094 7.39453 3.96094 7.67578L3.96094 8.73047C3.96094 9.02344 4.17188 9.24609 4.45312 9.24609ZM7.67578 9.24609L8.69531 9.24609C9 9.24609 9.22266 9.02344 9.22266 8.73047L9.22266 7.67578C9.22266 7.38281 9 7.18359 8.69531 7.18359L7.67578 7.18359C7.39453 7.18359 7.16016 7.39453 7.16016 7.67578L7.16016 8.73047C7.16016 9.02344 7.39453 9.24609 7.67578 9.24609ZM10.875 9.24609L11.9062 9.24609C12.2109 9.24609 12.4453 9.02344 12.4453 8.74219L12.4453 7.67578C12.4453 7.38281 12.2109 7.18359 11.9062 7.18359L10.875 7.18359C10.5938 7.18359 10.3828 7.39453 10.3828 7.67578L10.3828 8.74219C10.3828 9.02344 10.5938 9.24609 10.875 9.24609ZM14.0859 9.24609L15.1172 9.24609C15.4336 9.24609 15.6445 9.02344 15.6445 8.74219L15.6445 7.67578C15.6445 7.38281 15.4336 7.18359 15.1172 7.18359L14.0859 7.18359C13.8047 7.18359 13.5938 7.39453 13.5938 7.67578L13.5938 8.74219C13.5938 9.02344 13.8047 9.24609 14.0859 9.24609ZM4.45312 12.3984L5.47266 12.3984C5.77734 12.3984 6.02344 12.1992 6.02344 11.9062L6.02344 10.8516C6.02344 10.5586 5.77734 10.3359 5.47266 10.3359L4.45312 10.3359C4.17188 10.3359 3.96094 10.5586 3.96094 10.8516L3.96094 11.9062C3.96094 12.1875 4.17188 12.3984 4.45312 12.3984ZM7.67578 12.3984L8.69531 12.3984C9 12.3984 9.22266 12.1992 9.22266 11.9062L9.22266 10.8516C9.22266 10.5586 9 10.3359 8.69531 10.3359L7.67578 10.3359C7.39453 10.3359 7.16016 10.5586 7.16016 10.8516L7.16016 11.9062C7.16016 12.1875 7.39453 12.3984 7.67578 12.3984ZM4.45312 22.3828L5.47266 22.3828C5.77734 22.3828 6.02344 22.1836 6.02344 21.8906L6.02344 20.8242C6.02344 20.5312 5.77734 20.332 5.47266 20.332L4.45312 20.332C4.17188 20.332 3.96094 20.543 3.96094 20.8242L3.96094 21.8906C3.96094 22.1719 4.17188 22.3828 4.45312 22.3828ZM7.67578 22.3828L8.69531 22.3828C9 22.3828 9.22266 22.1836 9.22266 21.8906L9.22266 20.8242C9.22266 20.5312 9 20.332 8.69531 20.332L7.67578 20.332C7.39453 20.332 7.16016 20.543 7.16016 20.8242L7.16016 21.8906C7.16016 22.1719 7.39453 22.3828 7.67578 22.3828ZM10.875 22.3828L11.918 22.3828C12.2109 22.3828 12.4453 22.1836 12.4453 21.8906L12.4453 20.8242C12.4453 20.5312 12.2109 20.332 11.918 20.332L10.875 20.332C10.5938 20.332 10.3828 20.543 10.3828 20.8242L10.3828 21.8906C10.3828 22.1719 10.5938 22.3828 10.875 22.3828ZM14.0859 22.3828L15.1172 22.3828C15.4336 22.3828 15.6445 22.1836 15.6445 21.8906L15.6445 20.8242C15.6445 20.5312 15.4336 20.332 15.1172 20.332L14.0859 20.332C13.8047 20.332 13.6055 20.543 13.6055 20.8242L13.6055 21.8906C13.6055 22.1719 13.8047 22.3828 14.0859 22.3828Z" fill="black" fill-opacity="0.85"/>
 </g>
</svg>
