<?xml version="1.0" encoding="UTF-8"?>
<!--Generator: Apple Native CoreSVG 360-->
<!DOCTYPE svg
PUBLIC "-//W3C//DTD SVG 1.1//EN"
       "http://www.w3.org/Graphics/SVG/1.1/DTD/svg11.dtd">
<svg version="1.1" xmlns="http://www.w3.org/2000/svg" xmlns:xlink="http://www.w3.org/1999/xlink" viewBox="0 0 26.4492 22.6055">
 <g>
  <rect height="22.6055" opacity="0" width="26.4492" x="0" y="0"/>
  <path d="M13.043 0C5.83594 0 0 5.83594 0 13.043C0 16.5938 1.41797 19.8516 3.77344 22.2188C4.17188 22.6172 4.79297 22.6406 5.23828 22.2305C5.60156 21.8672 5.53125 21.2344 5.0625 20.7305C3.17578 18.7617 2.02734 16.0195 2.02734 13.043C2.02734 6.87891 6.89062 1.99219 13.043 1.99219C19.207 1.99219 24.0703 6.87891 24.0703 13.043C24.0703 16.0195 22.9219 18.7617 21.0352 20.7305C20.5664 21.2344 20.4961 21.8672 20.8594 22.2305C21.3047 22.6406 21.9258 22.6172 22.3242 22.2188C24.6797 19.8516 26.0977 16.5938 26.0977 13.043C26.0977 5.83594 20.2617 0 13.043 0Z" fill="black" fill-opacity="0.85"/>
  <path d="M13.0547 7.57031C13.5117 7.57031 13.875 7.20703 13.875 6.76172C13.875 6.31641 13.5 5.95312 13.0547 5.95312C12.6211 5.95312 12.2344 6.31641 12.2344 6.76172C12.2344 7.20703 12.5977 7.57031 13.0547 7.57031ZM10.3477 9.14062C10.8164 9.14062 11.1562 8.77734 11.1562 8.32031C11.1562 7.875 10.793 7.5 10.3477 7.5C9.91406 7.5 9.53906 7.88672 9.53906 8.32031C9.53906 8.77734 9.90234 9.14062 10.3477 9.14062ZM15.7617 9.14062C16.2188 9.14062 16.582 8.77734 16.582 8.32031C16.582 7.875 16.207 7.5 15.7617 7.5C15.3164 7.5 14.9531 7.88672 14.9531 8.32031C14.9531 8.77734 15.3164 9.14062 15.7617 9.14062ZM7.64062 10.7227C8.08594 10.7227 8.44922 10.3594 8.44922 9.91406C8.44922 9.46875 8.08594 9.09375 7.64062 9.09375C7.19531 9.09375 6.82031 9.46875 6.82031 9.91406C6.82031 10.3594 7.19531 10.7227 7.64062 10.7227ZM13.0547 10.9219C13.6289 10.9219 14.0742 10.4766 14.0742 9.91406C14.0742 9.35156 13.6172 8.88281 13.0547 8.88281C12.5039 8.88281 12.0352 9.36328 12.0352 9.91406C12.0352 10.4531 12.5039 10.9219 13.0547 10.9219ZM18.457 10.7227C18.9023 10.7227 19.2656 10.3594 19.2656 9.91406C19.2656 9.45703 18.9023 9.09375 18.457 9.09375C18.0117 9.09375 17.6367 9.46875 17.6367 9.91406C17.6367 10.3594 18.0117 10.7227 18.457 10.7227ZM10.3477 12.4922C10.9102 12.4922 11.3672 12.0352 11.3672 11.4727C11.3672 10.9102 10.9102 10.4531 10.3477 10.4531C9.79688 10.4531 9.31641 10.9336 9.31641 11.4727C9.31641 12.0352 9.78516 12.4922 10.3477 12.4922ZM15.7617 12.4922C16.3359 12.4922 16.793 12.0352 16.793 11.4727C16.793 10.9102 16.3242 10.4531 15.7617 10.4531C15.2227 10.4531 14.7422 10.9336 14.7422 11.4727C14.7422 12.0352 15.1992 12.4922 15.7617 12.4922ZM7.64062 13.875C8.08594 13.875 8.44922 13.5 8.44922 13.043C8.44922 12.5977 8.08594 12.2344 7.64062 12.2344C7.19531 12.2344 6.82031 12.6094 6.82031 13.043C6.82031 13.5 7.19531 13.875 7.64062 13.875ZM18.457 13.875C18.9023 13.875 19.2656 13.5117 19.2656 13.043C19.2656 12.5977 18.9023 12.2344 18.457 12.2344C18.0117 12.2344 17.6367 12.6094 17.6367 13.043C17.6367 13.5 18.0117 13.875 18.457 13.875ZM10.3477 15.6562C10.9102 15.6562 11.3672 15.1992 11.3672 14.625C11.3672 14.0625 10.9102 13.6055 10.3477 13.6055C9.79688 13.6055 9.31641 14.0742 9.31641 14.625C9.31641 15.1875 9.78516 15.6562 10.3477 15.6562ZM15.7617 15.6562C16.3242 15.6562 16.793 15.1992 16.793 14.625C16.793 14.0625 16.3242 13.6055 15.7617 13.6055C15.2227 13.6055 14.7422 14.0742 14.7422 14.625C14.7422 15.1875 15.2109 15.6562 15.7617 15.6562ZM7.64062 17.0039C8.08594 17.0039 8.44922 16.6641 8.44922 16.1953C8.44922 15.75 8.08594 15.3867 7.64062 15.3867C7.19531 15.3867 6.82031 15.7617 6.82031 16.1953C6.82031 16.6406 7.19531 17.0039 7.64062 17.0039ZM13.0547 17.2266C13.6289 17.2266 14.0742 16.7578 14.0742 16.1953C14.0742 15.6328 13.6172 15.1875 13.0547 15.1875C12.5039 15.1875 12.0352 15.6562 12.0352 16.1953C12.0352 16.7578 12.5039 17.2266 13.0547 17.2266ZM18.457 17.0039C18.9023 17.0039 19.2656 16.6758 19.2656 16.1953C19.2656 15.75 18.9023 15.3867 18.457 15.3867C18.0117 15.3867 17.6367 15.7617 17.6367 16.1953C17.6367 16.6523 18.0117 17.0039 18.457 17.0039ZM10.3477 18.5977C10.8047 18.5977 11.1562 18.2461 11.1562 17.7773C11.1562 17.332 10.793 16.9688 10.3477 16.9688C9.91406 16.9688 9.53906 17.3438 9.53906 17.7773C9.53906 18.2227 9.89062 18.5977 10.3477 18.5977ZM15.7617 18.5977C16.2188 18.5977 16.582 18.2578 16.582 17.7773C16.582 17.332 16.207 16.9688 15.7617 16.9688C15.3164 16.9688 14.9531 17.3438 14.9531 17.7773C14.9531 18.2227 15.3164 18.5977 15.7617 18.5977ZM13.0547 20.1562C13.5117 20.1562 13.875 19.793 13.875 19.3477C13.875 18.9023 13.5 18.5391 13.0547 18.5391C12.6211 18.5391 12.2344 18.9023 12.2344 19.3477C12.2344 19.793 12.5977 20.1562 13.0547 20.1562ZM13.0547 14.2148C13.6992 14.2148 14.2148 13.6992 14.2148 13.043C14.2148 12.4102 13.6875 11.8945 13.0547 11.8945C12.4336 11.8945 11.8945 12.4219 11.8945 13.043C11.8945 13.6758 12.4336 14.2148 13.0547 14.2148Z" fill="black" fill-opacity="0.85"/>
 </g>
</svg>
