<?xml version="1.0" encoding="UTF-8"?>
<!--Generator: Apple Native CoreSVG 360-->
<!DOCTYPE svg
PUBLIC "-//W3C//DTD SVG 1.1//EN"
       "http://www.w3.org/Graphics/SVG/1.1/DTD/svg11.dtd">
<svg version="1.1" xmlns="http://www.w3.org/2000/svg" xmlns:xlink="http://www.w3.org/1999/xlink" viewBox="0 0 33.5442 21.082">
 <g>
  <rect height="21.082" opacity="0" width="33.5442" x="0" y="0"/>
  <path d="M4.86 21.082L28.3327 21.082C31.778 21.082 33.5709 18.8672 33.1256 15.1875L31.86 4.62891C31.5084 1.64062 29.7858 0 27.0553 0L6.13735 0C3.40688 0 1.68422 1.64062 1.33266 4.62891L0.0670355 15.1875C-0.378277 18.8672 1.41469 21.082 4.86 21.082ZM4.86 19.1953C2.73891 19.1953 1.64907 17.6719 1.96547 15.0352L3.19594 4.85156C3.43032 2.94141 4.46157 1.88672 6.13735 1.88672L27.0553 1.88672C28.7311 1.88672 29.7623 2.94141 29.985 4.85156L31.2155 15.0352C31.5436 17.6836 30.4538 19.1953 28.3327 19.1953Z" fill="black" fill-opacity="0.85"/>
  <path d="M8.89125 13.8516C9.32485 13.8516 9.68813 13.6406 9.68813 13.3477L9.68813 10.043C10.9186 9.71484 11.8327 8.56641 11.8327 7.21875C11.8327 5.60156 10.5084 4.27734 8.89125 4.27734C7.26235 4.27734 5.94985 5.61328 5.94985 7.21875C5.94985 8.57812 6.86391 9.71484 8.1061 10.0664L8.1061 13.3477C8.1061 13.6406 8.45766 13.8516 8.89125 13.8516ZM8.89125 16.3359C11.2702 16.3359 12.9342 15.0586 12.9342 13.2539C12.9342 11.9883 12.1139 10.9922 10.8248 10.5L10.8248 12.0352C11.2584 12.3281 11.5163 12.75 11.5163 13.2539C11.5163 14.3203 10.4381 15.0703 8.89125 15.0703C7.34438 15.0703 6.25454 14.3203 6.25454 13.2539C6.25454 12.7383 6.52407 12.3164 6.96938 12.0234L6.96938 10.5C5.65688 10.9805 4.83657 11.9883 4.83657 13.2539C4.83657 15.0586 6.51235 16.3359 8.89125 16.3359ZM15.735 9.79688C16.6842 9.79688 17.4459 9.03516 17.4459 8.09766C17.4459 7.14844 16.6842 6.38672 15.735 6.38672C14.7975 6.38672 14.0358 7.14844 14.0358 8.09766C14.0358 9.03516 14.7975 9.79688 15.735 9.79688ZM20.692 9.79688C21.6295 9.79688 22.403 9.03516 22.403 8.09766C22.403 7.14844 21.6295 6.38672 20.692 6.38672C19.7428 6.38672 18.9811 7.14844 18.9811 8.09766C18.9811 9.03516 19.7428 9.79688 20.692 9.79688ZM25.6256 9.79688C26.5631 9.79688 27.3366 9.03516 27.3366 8.09766C27.3366 7.14844 26.5631 6.38672 25.6256 6.38672C24.6881 6.38672 23.9147 7.14844 23.9147 8.09766C23.9147 9.03516 24.6881 9.79688 25.6256 9.79688ZM17.3873 14.7305C18.3248 14.7305 19.0866 13.9688 19.0866 13.0312C19.0866 12.082 18.3248 11.3203 17.3873 11.3203C16.4381 11.3203 15.6764 12.082 15.6764 13.0312C15.6764 13.9688 16.4381 14.7305 17.3873 14.7305ZM22.3327 14.7305C23.2819 14.7305 24.0436 13.9688 24.0436 13.0312C24.0436 12.082 23.2819 11.3203 22.3327 11.3203C21.3952 11.3203 20.6334 12.082 20.6334 13.0312C20.6334 13.9688 21.3952 14.7305 22.3327 14.7305ZM27.278 14.7305C28.2272 14.7305 28.9889 13.9688 28.9889 13.0312C28.9889 12.082 28.2272 11.3203 27.278 11.3203C26.3405 11.3203 25.5788 12.082 25.5788 13.0312C25.5788 13.9688 26.3405 14.7305 27.278 14.7305Z" fill="black" fill-opacity="0.85"/>
 </g>
</svg>
