<?xml version="1.0" encoding="UTF-8"?>
<!--Generator: Apple Native CoreSVG 360-->
<!DOCTYPE svg
PUBLIC "-//W3C//DTD SVG 1.1//EN"
       "http://www.w3.org/Graphics/SVG/1.1/DTD/svg11.dtd">
<svg version="1.1" xmlns="http://www.w3.org/2000/svg" xmlns:xlink="http://www.w3.org/1999/xlink" viewBox="0 0 13.9922 24.668">
 <g>
  <rect height="24.668" opacity="0" width="13.9922" x="0" y="0"/>
  <path d="M13.6406 18.9023C13.6406 22.1367 10.6641 24.6562 6.83203 24.6562C2.97656 24.6562 0 22.1367 0 18.9023C0 16.4841 1.65196 14.4691 4.08984 13.6003L4.08984 15.6503C2.74905 16.3322 1.88672 17.5165 1.88672 18.9023C1.88672 21.082 4.04297 22.7695 6.83203 22.7695C9.62109 22.7695 11.7539 21.082 11.7539 18.9023C11.7539 17.4912 10.8696 16.2891 9.49219 15.615L9.49219 13.575C11.9573 14.431 13.6406 16.4612 13.6406 18.9023Z" fill="black" fill-opacity="0.85"/>
  <path d="M6.78516 20.0273C7.52344 20.0273 8.13281 19.6758 8.13281 19.1836L8.13281 7.08984L5.46094 7.08984L5.46094 19.1836C5.46094 19.6758 6.04688 20.0273 6.78516 20.0273ZM6.78516 10.0664C9.5625 10.0664 11.8008 7.80469 11.8008 5.01562C11.8008 2.25 9.53906 0 6.78516 0C4.00781 0 1.73438 2.27344 1.73438 5.01562C1.73438 7.82812 4.00781 10.0664 6.78516 10.0664Z" fill="black" fill-opacity="0.85"/>
 </g>
</svg>
