<?xml version="1.0" encoding="UTF-8"?>
<!--Generator: Apple Native CoreSVG 360-->
<!DOCTYPE svg
PUBLIC "-//W3C//DTD SVG 1.1//EN"
       "http://www.w3.org/Graphics/SVG/1.1/DTD/svg11.dtd">
<svg version="1.1" xmlns="http://www.w3.org/2000/svg" xmlns:xlink="http://www.w3.org/1999/xlink" viewBox="0 0 22.7227 24.668">
 <g>
  <rect height="24.668" opacity="0" width="22.7227" x="0" y="0"/>
  <path d="M22.3711 18.9023C22.3711 22.1367 19.3945 24.6562 15.5625 24.6562C11.707 24.6562 8.73047 22.1367 8.73047 18.9023C8.73047 16.4841 10.3824 14.4691 12.8203 13.6003L12.8203 15.6503C11.4795 16.3322 10.6172 17.5165 10.6172 18.9023C10.6172 21.082 12.7734 22.7695 15.5625 22.7695C18.3516 22.7695 20.4844 21.082 20.4844 18.9023C20.4844 17.4912 19.6 16.2891 18.2227 15.615L18.2227 13.575C20.6878 14.431 22.3711 16.4612 22.3711 18.9023Z" fill="black" fill-opacity="0.85"/>
  <path d="M15.5156 20.0273C16.2539 20.0273 16.8633 19.6758 16.8633 19.1836L16.8633 7.08984L14.1914 7.08984L14.1914 19.1836C14.1914 19.6758 14.7773 20.0273 15.5156 20.0273ZM15.5156 10.0664C18.3047 10.0664 20.5312 7.80469 20.5312 5.01562C20.5312 2.25 18.2812 0 15.5156 0C12.7383 0 10.4766 2.27344 10.4766 5.01562C10.4766 7.82812 12.7383 10.0664 15.5156 10.0664Z" fill="black" fill-opacity="0.85"/>
  <path d="M5.01562 12.8906L5.01562 7.93359C5.01562 7.10156 4.20703 6.85547 3.58594 7.32422L0.316406 9.79688C-0.105469 10.1133-0.105469 10.7109 0.316406 11.0391L3.58594 13.5C4.23047 13.9922 5.01562 13.6992 5.01562 12.8906ZM9.1875 10.3945C9.1875 9.89062 8.78906 9.49219 8.27344 9.49219L2.73047 9.49219C2.21484 9.49219 1.80469 9.89062 1.80469 10.3945C1.80469 10.9102 2.21484 11.3203 2.73047 11.3203L8.27344 11.3203C8.78906 11.3203 9.1875 10.9102 9.1875 10.3945Z" fill="black" fill-opacity="0.85"/>
 </g>
</svg>
