<?xml version="1.0" encoding="UTF-8"?>
<!--Generator: Apple Native CoreSVG 360-->
<!DOCTYPE svg
PUBLIC "-//W3C//DTD SVG 1.1//EN"
       "http://www.w3.org/Graphics/SVG/1.1/DTD/svg11.dtd">
<svg version="1.1" xmlns="http://www.w3.org/2000/svg" xmlns:xlink="http://www.w3.org/1999/xlink" viewBox="0 0 23.2734 24.668">
 <g>
  <rect height="24.668" opacity="0" width="23.2734" x="0" y="0"/>
  <path d="M13.6406 18.9023C13.6406 22.1367 10.6641 24.6562 6.83203 24.6562C2.97656 24.6562 0 22.1367 0 18.9023C0 16.4841 1.65196 14.4691 4.08984 13.6003L4.08984 15.6503C2.74905 16.3322 1.88672 17.5165 1.88672 18.9023C1.88672 21.082 4.04297 22.7695 6.83203 22.7695C9.62109 22.7695 11.7539 21.082 11.7539 18.9023C11.7539 17.4912 10.8696 16.2891 9.49219 15.615L9.49219 13.575C11.9573 14.431 13.6406 16.4612 13.6406 18.9023Z" fill="black" fill-opacity="0.85"/>
  <path d="M6.78516 20.0273C7.52344 20.0273 8.13281 19.6758 8.13281 19.1836L8.13281 7.08984L5.46094 7.08984L5.46094 19.1836C5.46094 19.6758 6.04688 20.0273 6.78516 20.0273ZM6.78516 10.0664C9.5625 10.0664 11.8008 7.80469 11.8008 5.01562C11.8008 2.25 9.53906 0 6.78516 0C4.00781 0 1.73438 2.27344 1.73438 5.01562C1.73438 7.82812 4.00781 10.0664 6.78516 10.0664Z" fill="black" fill-opacity="0.85"/>
  <path d="M17.1211 6.31641L22.0664 6.31641C22.9102 6.31641 23.1562 5.50781 22.6875 4.88672L20.2148 1.61719C19.8867 1.19531 19.3008 1.18359 18.9727 1.61719L16.5117 4.88672C16.0195 5.53125 16.3125 6.31641 17.1211 6.31641ZM19.6055 10.4883C20.1094 10.4883 20.5195 10.0898 20.5195 9.57422L20.5195 4.01953C20.5195 3.50391 20.1094 3.10547 19.6055 3.10547C19.0898 3.10547 18.6914 3.50391 18.6914 4.01953L18.6914 9.57422C18.6914 10.0898 19.0898 10.4883 19.6055 10.4883ZM17.1211 18.3398C16.3125 18.3398 16.0195 19.125 16.5117 19.7695L18.9727 23.0391C19.3008 23.4609 19.8867 23.4609 20.2148 23.0391L22.6875 19.7695C23.1562 19.1484 22.9102 18.3398 22.0664 18.3398ZM19.6055 14.168C19.0898 14.168 18.6914 14.5664 18.6914 15.082L18.6914 20.625C18.6914 21.1523 19.0898 21.5508 19.6055 21.5508C20.1094 21.5508 20.5195 21.1523 20.5195 20.625L20.5195 15.082C20.5195 14.5664 20.1094 14.168 19.6055 14.168Z" fill="black" fill-opacity="0.85"/>
 </g>
</svg>
