<?xml version="1.0" encoding="UTF-8"?>
<!--Generator: Apple Native CoreSVG 360-->
<!DOCTYPE svg
PUBLIC "-//W3C//DTD SVG 1.1//EN"
       "http://www.w3.org/Graphics/SVG/1.1/DTD/svg11.dtd">
<svg version="1.1" xmlns="http://www.w3.org/2000/svg" xmlns:xlink="http://www.w3.org/1999/xlink" viewBox="0 0 28.7961 23.918">
 <g>
  <rect height="23.918" opacity="0" width="28.7961" x="0" y="0"/>
  <path d="M0.833612 9.69141C-0.0101376 9.69141-0.221075 10.2656 0.235956 10.9219L2.86096 14.6484C3.24767 15.1875 3.81017 15.1758 4.18517 14.6484L6.79846 10.9102C7.25549 10.2656 7.03283 9.69141 6.21252 9.69141ZM26.1813 11.9531C26.1813 5.35547 20.8258 0 14.2281 0C7.63049 0 2.28674 5.34375 2.27502 11.9648C2.28674 12.5156 2.72033 12.9492 3.25939 12.9492C3.81017 12.9492 4.26721 12.5039 4.26721 11.9531C4.26721 6.44531 8.72033 1.99219 14.2281 1.99219C19.736 1.99219 24.1891 6.44531 24.1891 11.9531C24.1891 17.4609 19.736 21.9141 14.2281 21.9141C10.8883 21.9141 7.94689 20.2734 6.16564 17.7891C5.80236 17.3086 5.25158 17.1562 4.75939 17.4492C4.29064 17.7422 4.15002 18.4102 4.54846 18.9258C6.72814 21.9492 10.2086 23.9062 14.2281 23.9062C20.8258 23.9062 26.1813 18.5508 26.1813 11.9531Z" fill="black" fill-opacity="0.85"/>
 </g>
</svg>
