<?xml version="1.0" encoding="UTF-8"?>
<!--Generator: Apple Native CoreSVG 360-->
<!DOCTYPE svg
PUBLIC "-//W3C//DTD SVG 1.1//EN"
       "http://www.w3.org/Graphics/SVG/1.1/DTD/svg11.dtd">
<svg version="1.1" xmlns="http://www.w3.org/2000/svg" xmlns:xlink="http://www.w3.org/1999/xlink" viewBox="0 0 21.9609 21.5977">
 <g>
  <rect height="21.5977" opacity="0" width="21.9609" x="0" y="0"/>
  <path d="M0 6.22266L1.88672 6.22266C1.92188 4.82812 2.30859 3.76172 3.04688 3.03516C3.73828 2.34375 4.81641 1.93359 6.17578 1.88672L6.17578 0C4.21875 0.046875 2.67188 0.632812 1.65234 1.65234C0.597656 2.69531 0.0351562 4.24219 0 6.22266ZM13.8281 1.88672L13.8281 0L7.78125 0L7.78125 1.88672ZM19.7227 6.22266L21.6094 6.22266C21.5742 4.24219 21.0117 2.69531 19.9453 1.65234C18.9141 0.621094 17.3906 0.046875 15.4219 0L15.4219 1.88672C16.793 1.93359 17.8594 2.33203 18.5625 3.03516C19.3008 3.76172 19.6875 4.82812 19.7227 6.22266ZM19.7227 13.7812L21.6094 13.7812L21.6094 7.82812L19.7227 7.82812ZM15.4219 21.5977C17.3906 21.5508 18.9258 20.9766 19.9453 19.9453C21.0117 18.9023 21.5625 17.3672 21.6094 15.375L19.7227 15.375C19.6875 16.7812 19.3008 17.8359 18.5625 18.5625C17.8594 19.2656 16.793 19.6641 15.4219 19.7109ZM13.8281 21.5977L13.8281 19.7109L7.78125 19.7109L7.78125 21.5977ZM6.17578 21.5977L6.17578 19.7109C4.81641 19.6641 3.75 19.2656 3.04688 18.5625C2.30859 17.8359 1.91016 16.7812 1.88672 15.375L0 15.375C0.0351562 17.3672 0.597656 18.8906 1.65234 19.9453C2.68359 20.9648 4.21875 21.5508 6.17578 21.5977ZM0 13.7812L1.88672 13.7812L1.88672 7.82812L0 7.82812Z" fill="black" fill-opacity="0.85"/>
  <path d="M10.8164 4.88672C10.3125 4.88672 9.89062 5.29688 9.89062 5.78906L9.89062 12.375L9.97266 14.8242C9.99609 15.3516 10.4062 15.6328 10.8164 15.6328C11.2383 15.6328 11.6602 15.3516 11.6719 14.8242L11.7539 12.375L11.7539 5.78906C11.7539 5.29688 11.3203 4.88672 10.8164 4.88672ZM10.8164 16.6992C11.0625 16.6992 11.2617 16.6289 11.4961 16.3945L15.3633 12.668C15.5391 12.4922 15.6328 12.3047 15.6328 12.0469C15.6328 11.5664 15.2695 11.2266 14.7891 11.2266C14.5547 11.2266 14.3203 11.3203 14.1445 11.5078L12.3633 13.4062L10.8164 15.0469L10.8164 15.0469L9.28125 13.4062L7.48828 11.5078C7.32422 11.3203 7.06641 11.2266 6.84375 11.2266C6.35156 11.2266 6 11.5664 6 12.0469C6 12.3047 6.10547 12.4922 6.28125 12.668L10.1484 16.3945C10.3828 16.6289 10.582 16.6992 10.8164 16.6992Z" fill="black" fill-opacity="0.85"/>
 </g>
</svg>
