<?xml version="1.0" encoding="UTF-8"?>
<!--Generator: Apple Native CoreSVG 360-->
<!DOCTYPE svg
PUBLIC "-//W3C//DTD SVG 1.1//EN"
       "http://www.w3.org/Graphics/SVG/1.1/DTD/svg11.dtd">
<svg version="1.1" xmlns="http://www.w3.org/2000/svg" xmlns:xlink="http://www.w3.org/1999/xlink" viewBox="0 0 15.1172 26.0977">
 <g>
  <rect height="26.0977" opacity="0" width="15.1172" x="0" y="0"/>
  <path d="M1.45312 12.9141C0.46875 12.9141 0 13.5 0 14.168C0 14.4609 0.09375 14.7891 0.246094 15.0703L6.05859 25.0312C6.49219 25.7812 6.84375 26.0977 7.38281 26.0977C7.92188 26.0977 8.27344 25.7812 8.70703 25.0312L14.5078 15.0703C14.6719 14.7891 14.7656 14.4609 14.7656 14.168C14.7656 13.5 14.2969 12.9141 13.3125 12.9141ZM2.51953 14.6953L12.2461 14.6953C12.4805 14.6953 12.5625 14.8711 12.4453 15.0586L7.58203 23.3672C7.46484 23.5547 7.3125 23.5547 7.19531 23.3672L2.32031 15.0586C2.20312 14.8711 2.27344 14.6953 2.51953 14.6953Z" fill="black" fill-opacity="0.85"/>
  <path d="M1.45312 0.046875C0.46875 0.046875 0 0.621094 0 1.30078C0 1.59375 0.09375 1.92188 0.246094 2.19141L6.05859 12.1523C6.50391 12.9141 6.84375 13.2305 7.38281 13.2305C7.92188 13.2305 8.26172 12.9141 8.70703 12.1523L14.5078 2.19141C14.6719 1.92188 14.7656 1.59375 14.7656 1.30078C14.7656 0.621094 14.2969 0.046875 13.3125 0.046875ZM2.51953 1.82812L12.2461 1.82812C12.4805 1.82812 12.5625 2.00391 12.4453 2.19141L7.58203 10.5C7.46484 10.6758 7.3125 10.6758 7.19531 10.5L2.32031 2.19141C2.20312 2.00391 2.28516 1.82812 2.51953 1.82812Z" fill="black" fill-opacity="0.85"/>
 </g>
</svg>
