<?xml version="1.0" encoding="UTF-8"?>
<!--Generator: Apple Native CoreSVG 360-->
<!DOCTYPE svg
PUBLIC "-//W3C//DTD SVG 1.1//EN"
       "http://www.w3.org/Graphics/SVG/1.1/DTD/svg11.dtd">
<svg version="1.1" xmlns="http://www.w3.org/2000/svg" xmlns:xlink="http://www.w3.org/1999/xlink" viewBox="0 0 22.3477 19.6992">
 <g>
  <rect height="19.6992" opacity="0" width="22.3477" x="0" y="0"/>
  <path d="M2.13281 9.55078L7.05469 5.0625L9.65625 2.41406C9.84375 2.22656 9.9375 1.95703 9.9375 1.67578C9.9375 1.08984 9.49219 0.667969 8.91797 0.667969C8.63672 0.667969 8.39062 0.761719 8.14453 0.984375L0.363281 8.76562C0.128906 8.98828 0 9.26953 0 9.55078C0 9.84375 0.128906 10.1133 0.363281 10.3477L8.12109 18.0938C8.37891 18.3398 8.63672 18.4453 8.91797 18.4453C9.49219 18.4453 9.9375 18.0234 9.9375 17.4375C9.9375 17.1562 9.84375 16.8867 9.65625 16.6875L7.05469 14.0391ZM2.14453 8.69531C1.66406 8.71875 1.28906 9.09375 1.28906 9.55078C1.28906 10.0312 1.67578 10.4062 2.15625 10.4297L5.92969 10.6055L14.168 10.6055C19.7344 10.6055 21.9961 8.16797 21.9961 2.49609C21.9961 1.80469 21.9727 1.23047 21.9023 0.867188C21.7969 0.398438 21.5156 0 20.8945 0C20.2852 0 19.8516 0.421875 19.8516 1.03125C19.8633 1.41797 19.8633 1.86328 19.875 2.39062C19.875 6.73828 18.3633 8.50781 14.0625 8.50781L5.92969 8.50781Z" fill="black" fill-opacity="0.85"/>
 </g>
</svg>
