<?xml version="1.0" encoding="UTF-8"?>
<!--Generator: Apple Native CoreSVG 360-->
<!DOCTYPE svg
PUBLIC "-//W3C//DTD SVG 1.1//EN"
       "http://www.w3.org/Graphics/SVG/1.1/DTD/svg11.dtd">
<svg version="1.1" xmlns="http://www.w3.org/2000/svg" xmlns:xlink="http://www.w3.org/1999/xlink" viewBox="0 0 23.0391 28.1836">
 <g>
  <rect height="28.1836" opacity="0" width="23.0391" x="0" y="0"/>
  <path d="M6.19922 5.35547L8.0625 5.35547L8.0625 2.84766C8.0625 2.17969 8.53125 1.74609 9.23438 1.74609L13.4297 1.74609C14.1328 1.74609 14.6016 2.17969 14.6016 2.84766L14.6016 5.35547L16.4648 5.35547L16.4648 2.73047C16.4648 1.03125 15.3633 0 13.5586 0L9.10547 0C7.30078 0 6.19922 1.03125 6.19922 2.73047ZM0.878906 6.29297L21.8203 6.29297C22.3008 6.29297 22.6875 5.88281 22.6875 5.40234C22.6875 4.92188 22.3008 4.52344 21.8203 4.52344L0.878906 4.52344C0.410156 4.52344 0 4.92188 0 5.40234C0 5.89453 0.410156 6.29297 0.878906 6.29297ZM5.97656 26.0977L16.7227 26.0977C18.3984 26.0977 19.5234 25.0078 19.6055 23.332L20.4258 6.07031L18.5391 6.07031L17.7539 23.1328C17.7305 23.8359 17.2266 24.3281 16.5352 24.3281L6.14062 24.3281C5.47266 24.3281 4.96875 23.8242 4.93359 23.1328L4.10156 6.07031L2.26172 6.07031L3.09375 23.3438C3.17578 25.0195 4.27734 26.0977 5.97656 26.0977Z" fill="black" fill-opacity="0.85"/>
  <path d="M11.3438 20.2852C11.7891 20.2852 12.1758 19.8984 12.1758 19.4648L12.1758 13.9688L12.0703 12.0703C12.0469 11.0742 10.6289 11.0742 10.582 12.0703L10.5 13.9688L10.5 19.4648C10.5 19.8984 10.8984 20.2852 11.3438 20.2852ZM8.03906 15.0117C8.23828 15.0117 8.47266 14.918 8.625 14.7539L10.1016 13.1602L11.3438 11.8828L11.3438 11.8828L12.5742 13.1602L14.0508 14.7539C14.2148 14.918 14.4258 15.0117 14.625 15.0117C15.0586 15.0117 15.3984 14.6953 15.3984 14.2617C15.3984 14.0391 15.3047 13.8633 15.1523 13.7109L11.9414 10.6055C11.7305 10.4062 11.543 10.3359 11.3438 10.3359C11.1328 10.3359 10.9453 10.4062 10.7344 10.6055L7.52344 13.7109C7.37109 13.8516 7.27734 14.0391 7.27734 14.2617C7.27734 14.6953 7.60547 15.0117 8.03906 15.0117Z" fill="black" fill-opacity="0.85"/>
 </g>
</svg>
