<?xml version="1.0" encoding="UTF-8"?>
<!--Generator: Apple Native CoreSVG 360-->
<!DOCTYPE svg
PUBLIC "-//W3C//DTD SVG 1.1//EN"
       "http://www.w3.org/Graphics/SVG/1.1/DTD/svg11.dtd">
<svg version="1.1" xmlns="http://www.w3.org/2000/svg" xmlns:xlink="http://www.w3.org/1999/xlink" viewBox="0 0 24.3164 29.5195">
 <g>
  <rect height="29.5195" opacity="0" width="24.3164" x="0" y="0"/>
  <path d="M23.9648 3.67969L23.9648 19.957C23.9648 22.3945 22.7461 23.6367 20.332 23.6367L18.2812 23.6367L18.2812 9.52734C18.2812 7.07812 17.0742 5.84766 14.6484 5.84766L5.68359 5.84766L5.68359 3.67969C5.68359 1.23047 6.89062 0 9.31641 0L20.332 0C22.7461 0 23.9648 1.23047 23.9648 3.67969ZM11.9648 2.39062C11.4492 2.39062 11.2148 2.71875 11.2148 3.08203L11.2148 3.32812C11.2148 3.67969 11.4492 4.01953 11.9648 4.01953L17.6836 4.01953C18.1875 4.01953 18.4336 3.67969 18.4336 3.32812L18.4336 3.08203C18.4336 2.71875 18.1875 2.39062 17.6836 2.39062Z" fill="black" fill-opacity="0.85"/>
  <path d="M0 25.8047C0 28.2539 1.20703 29.4844 3.63281 29.4844L14.6484 29.4844C17.0742 29.4844 18.2812 28.2422 18.2812 25.8047L18.2812 9.52734C18.2812 7.07812 17.0742 5.84766 14.6484 5.84766L3.63281 5.84766C1.20703 5.84766 0 7.06641 0 9.52734ZM1.88672 25.7695L1.88672 9.55078C1.88672 8.39062 2.50781 7.73438 3.71484 7.73438L14.5547 7.73438C15.7617 7.73438 16.3945 8.39062 16.3945 9.55078L16.3945 25.7695C16.3945 26.9414 15.7617 27.5977 14.5547 27.5977L3.71484 27.5977C2.50781 27.5977 1.88672 26.9414 1.88672 25.7695Z" fill="black" fill-opacity="0.85"/>
  <path d="M4.14844 17.6719C4.14844 18.1172 4.53516 18.5156 4.96875 18.5156L10.4648 18.5156L12.3633 18.3984C13.3711 18.375 13.3711 16.9688 12.3633 16.9219L10.4648 16.8398L4.96875 16.8398C4.53516 16.8398 4.14844 17.2266 4.14844 17.6719ZM9.42188 14.3672C9.42188 14.5781 9.51562 14.8008 9.67969 14.9531L11.2734 16.4414L12.5508 17.6719L12.5508 17.6719L11.2734 18.9023L9.67969 20.3906C9.51562 20.543 9.42188 20.7539 9.42188 20.9648C9.42188 21.3984 9.75 21.7383 10.1719 21.7383C10.4062 21.7383 10.582 21.6445 10.7227 21.4805L13.8281 18.2812C14.0273 18.0703 14.0977 17.8828 14.0977 17.6719C14.0977 17.4609 14.0273 17.2734 13.8281 17.0625L10.7227 13.8633C10.582 13.6992 10.4062 13.6055 10.1719 13.6055C9.75 13.6055 9.42188 13.9336 9.42188 14.3672Z" fill="black" fill-opacity="0.85"/>
 </g>
</svg>
