<?xml version="1.0" encoding="UTF-8"?>
<!--Generator: Apple Native CoreSVG 360-->
<!DOCTYPE svg
PUBLIC "-//W3C//DTD SVG 1.1//EN"
       "http://www.w3.org/Graphics/SVG/1.1/DTD/svg11.dtd">
<svg version="1.1" xmlns="http://www.w3.org/2000/svg" xmlns:xlink="http://www.w3.org/1999/xlink" viewBox="0 0 24.2578 28.6086">
 <g>
  <rect height="28.6086" opacity="0" width="24.2578" x="0" y="0"/>
  <path d="M10.0078 0.833612L10.0078 6.21252C10.0078 7.03283 10.582 7.25549 11.2148 6.81017L14.9531 4.18517C15.4922 3.81017 15.5039 3.24767 14.9531 2.86096L11.2266 0.235956C10.582-0.221075 10.0078-0.0101376 10.0078 0.833612ZM1.99219 14.2985C1.99219 8.79064 6.44531 4.33752 11.9531 4.33752C12.4922 4.33752 12.9492 3.88049 12.9492 3.32971C12.9492 2.79064 12.5039 2.35705 11.9648 2.34533C5.34375 2.35705 0 7.7008 0 14.2985C0 17.8141 1.52344 21.0016 3.97266 23.193C4.5 23.6735 5.19141 23.5094 5.50781 23.0641C5.77734 22.6891 5.80078 22.1735 5.28516 21.693C3.24609 19.8649 1.99219 17.2164 1.99219 14.2985ZM13.8984 27.7516L13.8984 22.3844C13.8984 21.5524 13.3242 21.3414 12.6914 21.7867L8.95312 24.4117C8.41406 24.7867 8.40234 25.3492 8.95312 25.736L12.6797 28.3492C13.3242 28.818 13.8984 28.5953 13.8984 27.7516ZM21.9141 14.2985C21.9141 19.8063 17.4609 24.2594 11.9531 24.2594C11.4141 24.2594 10.9688 24.7047 10.9688 25.2555C10.9688 25.7945 11.4023 26.2399 11.9414 26.2516C18.5625 26.2399 23.9062 20.8961 23.9062 14.2985C23.9062 10.7828 22.3828 7.59533 19.9336 5.40392C19.4062 4.92346 18.7148 5.08752 18.3984 5.52111C18.1289 5.90783 18.1055 6.41174 18.6328 6.89221C20.6602 8.73205 21.9141 11.3688 21.9141 14.2985Z" fill="black" fill-opacity="0.85"/>
 </g>
</svg>
