<?xml version="1.0" encoding="UTF-8"?>
<!--Generator: Apple Native CoreSVG 360-->
<!DOCTYPE svg
PUBLIC "-//W3C//DTD SVG 1.1//EN"
       "http://www.w3.org/Graphics/SVG/1.1/DTD/svg11.dtd">
<svg version="1.1" xmlns="http://www.w3.org/2000/svg" xmlns:xlink="http://www.w3.org/1999/xlink" viewBox="0 0 36.0352 22.2773">
 <g>
  <rect height="22.2773" opacity="0" width="36.0352" x="0" y="0"/>
  <path d="M35.6836 11.1445C35.6836 10.8633 35.5547 10.582 35.3203 10.3594L29.9531 5.00391C29.707 4.76953 29.4492 4.66406 29.168 4.66406C28.5938 4.66406 28.1484 5.09766 28.1484 5.68359C28.1484 5.96484 28.2305 6.23438 28.4414 6.43359L33.4453 11.1445L28.4414 15.8555C28.2305 16.043 28.1484 16.3242 28.1484 16.6055C28.1484 17.2031 28.5938 17.625 29.168 17.625C29.4492 17.625 29.707 17.5312 29.9531 17.2969L35.3203 11.9297C35.5547 11.707 35.6836 11.4375 35.6836 11.1445ZM33.082 10.1836L29.9766 10.1016L21.9844 10.1016C21.375 10.1016 20.9531 10.5352 20.9531 11.1445C20.9531 11.7656 21.375 12.1992 21.9844 12.1992L29.9766 12.1992L33.082 12.1055C33.6211 12.0938 34.043 11.6836 34.043 11.1445C34.043 10.6172 33.6211 10.1953 33.082 10.1836Z" fill="black" fill-opacity="0.85"/>
  <path d="M17.8359 22.2773C18.4453 22.2773 18.8789 21.8438 18.8789 21.2344L18.8789 1.01953C18.8789 0.421875 18.4453 0 17.8359 0C17.2266 0 16.7812 0.421875 16.7812 1.01953L16.7812 21.2344C16.7812 21.8438 17.2266 22.2773 17.8359 22.2773Z" fill="black" fill-opacity="0.85"/>
  <path d="M0 11.1328C0 11.4258 0.128906 11.6953 0.363281 11.918L5.73047 17.2734C5.97656 17.5078 6.22266 17.6133 6.50391 17.6133C7.08984 17.6133 7.53516 17.1914 7.53516 16.5938C7.53516 16.3125 7.45312 16.0312 7.24219 15.8438L2.22656 11.1328L7.24219 6.42188C7.45312 6.22266 7.53516 5.95312 7.53516 5.67188C7.53516 5.08594 7.08984 4.65234 6.50391 4.65234C6.22266 4.65234 5.97656 4.75781 5.73047 4.99219L0.363281 10.3477C0.128906 10.5703 0 10.8398 0 11.1328ZM2.60156 10.1719C2.0625 10.1836 1.64062 10.5938 1.64062 11.1328C1.64062 11.6719 2.0625 12.082 2.60156 12.0938L5.70703 12.1875L13.6992 12.1875C14.3086 12.1875 14.7305 11.7422 14.7305 11.1328C14.7305 10.5234 14.3086 10.0898 13.6992 10.0898L5.70703 10.0898Z" fill="black" fill-opacity="0.85"/>
 </g>
</svg>
