<?xml version="1.0" encoding="UTF-8"?>
<!--Generator: Apple Native CoreSVG 360-->
<!DOCTYPE svg
PUBLIC "-//W3C//DTD SVG 1.1//EN"
       "http://www.w3.org/Graphics/SVG/1.1/DTD/svg11.dtd">
<svg version="1.1" xmlns="http://www.w3.org/2000/svg" xmlns:xlink="http://www.w3.org/1999/xlink" viewBox="0 0 17.6719 17.3029">
 <g>
  <rect height="17.3029" opacity="0" width="17.6719" x="0" y="0"/>
  <path d="M16.9922 16.9776C17.4141 16.544 17.4375 15.9463 16.9922 15.501L5.10938 3.6065L2.53125 1.21588C2.13281 0.817442 1.59375 0.829161 1.21875 1.21588C0.832031 1.59088 0.832031 2.11822 1.21875 2.51666L3.62109 5.09479L15.5039 16.9776C15.9609 17.4229 16.5586 17.3995 16.9922 16.9776ZM2.12109 8.65729L1.85156 1.88385L8.90625 2.11822L12.9844 2.11822C13.5352 2.11822 14.0391 1.63775 14.0391 1.07525C14.0391 0.512755 13.5938 0.0205672 12.9375 0.0205672L1.14844 0.0205672C0.445312 0.0205672 0.0117188 0.477598 0.0117188 1.15729L0 12.9346C0 13.5792 0.492188 14.0479 1.06641 14.0479C1.64062 14.0479 2.12109 13.544 2.12109 12.9815Z" fill="black" fill-opacity="0.85"/>
 </g>
</svg>
