<?xml version="1.0" encoding="UTF-8"?>
<!--Generator: Apple Native CoreSVG 360-->
<!DOCTYPE svg
PUBLIC "-//W3C//DTD SVG 1.1//EN"
       "http://www.w3.org/Graphics/SVG/1.1/DTD/svg11.dtd">
<svg version="1.1" xmlns="http://www.w3.org/2000/svg" xmlns:xlink="http://www.w3.org/1999/xlink" viewBox="0 0 23.625 22.2305">
 <g>
  <rect height="22.2305" opacity="0" width="23.625" x="0" y="0"/>
  <path d="M0 7.79297C0 12.7852 4.18359 17.6953 10.793 21.9141C11.0391 22.0664 11.3906 22.2305 11.6367 22.2305C11.8828 22.2305 12.2344 22.0664 12.4922 21.9141C19.0898 17.6953 23.2734 12.7852 23.2734 7.79297C23.2734 3.64453 20.4258 0.714844 16.6289 0.714844C14.4609 0.714844 12.7031 1.74609 11.6367 3.32812C10.5938 1.75781 8.8125 0.714844 6.64453 0.714844C2.84766 0.714844 0 3.64453 0 7.79297ZM1.88672 7.79297C1.88672 4.67578 3.90234 2.60156 6.62109 2.60156C8.82422 2.60156 10.0898 3.97266 10.8398 5.14453C11.1562 5.61328 11.3555 5.74219 11.6367 5.74219C11.918 5.74219 12.0938 5.60156 12.4336 5.14453C13.2422 3.99609 14.4609 2.60156 16.6523 2.60156C19.3711 2.60156 21.3867 4.67578 21.3867 7.79297C21.3867 12.1523 16.7812 16.8516 11.8828 20.1094C11.7656 20.1914 11.6836 20.25 11.6367 20.25C11.5898 20.25 11.5078 20.1914 11.4023 20.1094C6.49219 16.8516 1.88672 12.1523 1.88672 7.79297Z" fill="black" fill-opacity="0.85"/>
  <path d="M11.6367 7.34766C11.4141 7.34766 11.2266 7.42969 10.9805 7.65234L7.64062 10.7344C7.45312 10.8984 7.34766 11.0977 7.34766 11.3555C7.34766 11.8359 7.6875 12.1641 8.16797 12.1641C8.39062 12.1641 8.63672 12.0703 8.78906 11.9062L9.82031 10.8516L11.6367 8.97656L13.4531 10.8516L14.4844 11.9062C14.6484 12.0703 14.8711 12.1641 15.1055 12.1641C15.5742 12.1641 15.9258 11.8359 15.9258 11.3555C15.9258 11.0977 15.8203 10.8984 15.6328 10.7344L12.293 7.65234C12.0469 7.42969 11.8594 7.34766 11.6367 7.34766ZM11.6367 16.8281C12.1172 16.8281 12.5391 16.4297 12.5391 15.9492L12.5391 11.7305L12.4453 9.25781C12.4219 8.82422 12.082 8.44922 11.6367 8.44922C11.1914 8.44922 10.8516 8.82422 10.8281 9.25781L10.7461 11.7305L10.7461 15.9492C10.7461 16.4297 11.1562 16.8281 11.6367 16.8281Z" fill="black" fill-opacity="0.85"/>
 </g>
</svg>
