<?xml version="1.0" encoding="UTF-8"?>
<!--Generator: Apple Native CoreSVG 360-->
<!DOCTYPE svg
PUBLIC "-//W3C//DTD SVG 1.1//EN"
       "http://www.w3.org/Graphics/SVG/1.1/DTD/svg11.dtd">
<svg version="1.1" xmlns="http://www.w3.org/2000/svg" xmlns:xlink="http://www.w3.org/1999/xlink" viewBox="0 0 22.6875 22.3711">
 <g>
  <rect height="22.3711" opacity="0" width="22.6875" x="0" y="0"/>
  <path d="M20.1797 7.40625L20.1797 8.39062C20.1797 9.02344 20.6367 9.48047 21.2461 9.48047C21.8789 9.48047 22.3359 9.01172 22.3359 8.39062L22.3359 1.89844C22.3359 0.703125 21.6328 0.0117188 20.4375 0.0117188L13.9336 0.0117188C13.3125 0.0117188 12.832 0.457031 12.832 1.08984C12.832 1.71094 13.3125 2.14453 13.9336 2.14453L14.918 2.14453L20.5195 1.81641ZM19.8398 1.14844L15.7617 4.99219L12.1523 8.61328C11.9414 8.82422 11.8242 9.10547 11.8242 9.41016C11.8242 10.0781 12.3281 10.5117 12.9844 10.5117C13.2656 10.5117 13.5352 10.418 13.7344 10.207L17.332 6.57422L21.1875 2.49609C22.125 1.5 20.8711 0.1875 19.8398 1.14844ZM2.14453 14.9648L2.14453 13.9805C2.14453 13.3594 1.69922 12.8906 1.07812 12.8906C0.457031 12.8906 0 13.3711 0 13.9805L0 20.4844C0 21.6797 0.691406 22.3711 1.88672 22.3711L8.39062 22.3711C9.02344 22.3711 9.49219 21.9258 9.49219 21.293C9.49219 20.6602 9.01172 20.2266 8.39062 20.2266L7.41797 20.2266L1.80469 20.5664ZM2.49609 21.2227L6.5625 17.3789L10.1836 13.7695C10.3945 13.5586 10.5 13.2773 10.5 12.9609C10.5 12.3047 10.0078 11.8711 9.33984 11.8711C9.05859 11.8711 8.80078 11.9648 8.60156 12.1758L4.99219 15.8086L1.13672 19.875C0.210938 20.8828 1.46484 22.1836 2.49609 21.2227Z" fill="black" fill-opacity="0.85"/>
 </g>
</svg>
