<?xml version="1.0" encoding="UTF-8"?>
<!--Generator: Apple Native CoreSVG 360-->
<!DOCTYPE svg
PUBLIC "-//W3C//DTD SVG 1.1//EN"
       "http://www.w3.org/Graphics/SVG/1.1/DTD/svg11.dtd">
<svg version="1.1" xmlns="http://www.w3.org/2000/svg" xmlns:xlink="http://www.w3.org/1999/xlink" viewBox="0 0 17.6719 17.3555">
 <g>
  <rect height="17.3555" opacity="0" width="17.6719" x="0" y="0"/>
  <path d="M16.9922 0.398438C16.5586-0.0234375 15.9609-0.046875 15.5039 0.398438L3.62109 12.2812L1.21875 14.8594C0.832031 15.2461 0.832031 15.7734 1.21875 16.1602C1.59375 16.5469 2.13281 16.5469 2.53125 16.1602L5.10938 13.7695L16.9922 1.86328C17.4375 1.42969 17.4141 0.820312 16.9922 0.398438ZM2.12109 8.71875L2.12109 4.38281C2.12109 3.83203 1.64062 3.31641 1.06641 3.31641C0.492188 3.31641 0 3.79688 0 4.42969L0.0117188 16.2188C0.0117188 16.8867 0.445312 17.3555 1.14844 17.3555L12.9375 17.3555C13.5938 17.3555 14.0391 16.8516 14.0391 16.2891C14.0391 15.7266 13.5352 15.2461 12.9844 15.2461L8.90625 15.2461L1.85156 15.4805Z" fill="black" fill-opacity="0.85"/>
 </g>
</svg>
