<?xml version="1.0" encoding="UTF-8"?>
<!--Generator: Apple Native CoreSVG 360-->
<!DOCTYPE svg
PUBLIC "-//W3C//DTD SVG 1.1//EN"
       "http://www.w3.org/Graphics/SVG/1.1/DTD/svg11.dtd">
<svg version="1.1" xmlns="http://www.w3.org/2000/svg" xmlns:xlink="http://www.w3.org/1999/xlink" viewBox="0 0 22.6875 22.3711">
 <g>
  <rect height="22.3711" opacity="0" width="22.6875" x="0" y="0"/>
  <path d="M2.14453 7.40625L1.80469 1.81641L7.41797 2.14453L8.39062 2.14453C9.01172 2.14453 9.49219 1.71094 9.49219 1.08984C9.49219 0.457031 9.02344 0.0117188 8.39062 0.0117188L1.88672 0.0117188C0.691406 0.0117188 0 0.703125 0 1.89844L0 8.39062C0 9.01172 0.457031 9.48047 1.07812 9.48047C1.69922 9.48047 2.14453 9.02344 2.14453 8.39062ZM2.49609 1.14844C1.46484 0.1875 0.210938 1.5 1.13672 2.49609L4.99219 6.57422L8.60156 10.207C8.80078 10.418 9.05859 10.5117 9.33984 10.5117C10.0078 10.5117 10.5 10.0781 10.5 9.41016C10.5 9.10547 10.3945 8.82422 10.1836 8.61328L6.5625 4.99219ZM20.1797 14.9648L20.5195 20.5664L14.918 20.2266L13.9336 20.2266C13.3125 20.2266 12.832 20.6602 12.832 21.293C12.832 21.9258 13.3125 22.3711 13.9336 22.3711L20.4375 22.3711C21.6328 22.3711 22.3359 21.6797 22.3359 20.4844L22.3359 13.9805C22.3359 13.3711 21.8789 12.8906 21.2461 12.8906C20.6367 12.8906 20.1797 13.3594 20.1797 13.9805ZM19.8398 21.2227C20.8711 22.1836 22.125 20.8828 21.1875 19.875L17.332 15.8086L13.7344 12.1758C13.5352 11.9648 13.2656 11.8711 12.9844 11.8711C12.3281 11.8711 11.8242 12.3047 11.8242 12.9609C11.8242 13.2773 11.9414 13.5586 12.1523 13.7695L15.7617 17.3789Z" fill="black" fill-opacity="0.85"/>
 </g>
</svg>
