<?xml version="1.0" encoding="UTF-8"?>
<!--Generator: Apple Native CoreSVG 360-->
<!DOCTYPE svg
PUBLIC "-//W3C//DTD SVG 1.1//EN"
       "http://www.w3.org/Graphics/SVG/1.1/DTD/svg11.dtd">
<svg version="1.1" xmlns="http://www.w3.org/2000/svg" xmlns:xlink="http://www.w3.org/1999/xlink" viewBox="0 0 14.8242 23.0742">
 <g>
  <rect height="23.0742" opacity="0" width="14.8242" x="0" y="0"/>
  <path d="M7.24219 0C6.94922 0 6.67969 0.105469 6.45703 0.339844L0.328125 6.59766C0.128906 6.79688 0 7.11328 0 7.35938C0 7.99219 0.421875 8.40234 1.03125 8.40234C1.33594 8.40234 1.57031 8.29688 1.74609 8.10938L4.41797 5.36719L7.24219 2.05078L10.0664 5.36719L12.7266 8.10938C12.9141 8.29688 13.1484 8.40234 13.4414 8.40234C14.0508 8.40234 14.4727 7.99219 14.4727 7.35938C14.4727 7.11328 14.3555 6.79688 14.1562 6.59766L8.02734 0.339844C7.79297 0.105469 7.52344 0 7.24219 0ZM7.24219 22.1953C7.74609 22.1953 8.14453 21.7852 8.15625 21.2695L8.28516 17.168L8.28516 5.89453L8.15625 1.79297C8.14453 1.27734 7.74609 0.867188 7.24219 0.867188C6.72656 0.867188 6.32812 1.27734 6.31641 1.79297L6.19922 5.89453L6.19922 17.168L6.31641 21.2695C6.32812 21.7852 6.72656 22.1953 7.24219 22.1953ZM7.24219 23.0742C7.52344 23.0742 7.79297 22.957 8.02734 22.7227L14.1562 16.4648C14.3555 16.2656 14.4727 15.9609 14.4727 15.7031C14.4727 15.082 14.0508 14.6719 13.4414 14.6719C13.1484 14.6719 12.9141 14.7656 12.7266 14.9531L10.0664 17.6953L7.24219 21.0117L4.41797 17.6953L1.74609 14.9531C1.57031 14.7656 1.33594 14.6719 1.03125 14.6719C0.421875 14.6719 0 15.082 0 15.7031C0 15.9609 0.128906 16.2656 0.328125 16.4648L6.45703 22.7227C6.67969 22.957 6.94922 23.0742 7.24219 23.0742Z" fill="black" fill-opacity="0.85"/>
 </g>
</svg>
