<?xml version="1.0" encoding="UTF-8"?>
<!--Generator: Apple Native CoreSVG 360-->
<!DOCTYPE svg
PUBLIC "-//W3C//DTD SVG 1.1//EN"
       "http://www.w3.org/Graphics/SVG/1.1/DTD/svg11.dtd">
<svg version="1.1" xmlns="http://www.w3.org/2000/svg" xmlns:xlink="http://www.w3.org/1999/xlink" viewBox="0 0 21 17.7773">
 <g>
  <rect height="17.7773" opacity="0" width="21" x="0" y="0"/>
  <path d="M19.6055 17.7656C20.2148 17.7656 20.6484 17.3555 20.6484 16.7578L20.6484 1.03125C20.6484 0.421875 20.2148 0 19.6055 0C18.9961 0 18.5508 0.421875 18.5508 1.03125L18.5508 16.7578C18.5508 17.3555 18.9961 17.7656 19.6055 17.7656ZM8.625 1.00781C8.625 1.28906 8.73047 1.57031 8.91797 1.74609L11.5312 4.41797L16.4297 8.88281L11.5312 13.3477L8.91797 16.0195C8.73047 16.1953 8.625 16.4766 8.625 16.7578C8.625 17.3438 9.07031 17.7656 9.65625 17.7656C9.92578 17.7656 10.1719 17.6602 10.418 17.4375L18.1992 9.66797C18.4336 9.44531 18.5625 9.17578 18.5625 8.88281C18.5625 8.58984 18.4336 8.32031 18.1992 8.09766L10.418 0.316406C10.1719 0.09375 9.92578 0 9.65625 0C9.07031 0 8.625 0.421875 8.625 1.00781ZM16.5938 9.79688C17.0859 9.77344 17.4961 9.375 17.4961 8.88281C17.4961 8.37891 17.0859 7.99219 16.5938 7.96875L12.8789 7.83984L1.03125 7.83984C0.421875 7.83984 0 8.27344 0 8.88281C0 9.49219 0.421875 9.92578 1.03125 9.92578L12.8789 9.92578Z" fill="black" fill-opacity="0.85"/>
 </g>
</svg>
