<?xml version="1.0" encoding="UTF-8"?>
<!--Generator: Apple Native CoreSVG 360-->
<!DOCTYPE svg
PUBLIC "-//W3C//DTD SVG 1.1//EN"
       "http://www.w3.org/Graphics/SVG/1.1/DTD/svg11.dtd">
<svg version="1.1" xmlns="http://www.w3.org/2000/svg" xmlns:xlink="http://www.w3.org/1999/xlink" viewBox="0 0 18.1172 20.6602">
 <g>
  <rect height="20.6602" opacity="0" width="18.1172" x="0" y="0"/>
  <path d="M17.7656 1.05469C17.7656 0.445312 17.3555 0 16.7578 0L1.03125 0C0.421875 0 0 0.445312 0 1.05469C0 1.66406 0.421875 2.09766 1.03125 2.09766L16.7578 2.09766C17.3555 2.09766 17.7656 1.66406 17.7656 1.05469ZM1.00781 12.0234C1.28906 12.0234 1.57031 11.9297 1.74609 11.7422L4.41797 9.11719L8.88281 4.21875L13.3477 9.11719L16.0195 11.7422C16.1953 11.9297 16.4766 12.0234 16.7578 12.0234C17.3438 12.0234 17.7656 11.5781 17.7656 11.0039C17.7656 10.7227 17.6719 10.4766 17.4492 10.2422L9.66797 2.44922C9.44531 2.21484 9.17578 2.09766 8.88281 2.09766C8.58984 2.09766 8.32031 2.21484 8.09766 2.44922L0.328125 10.2422C0.105469 10.4766 0 10.7227 0 11.0039C0 11.5781 0.421875 12.0234 1.00781 12.0234ZM9.79688 4.06641C9.77344 3.5625 9.38672 3.15234 8.88281 3.15234C8.39062 3.15234 7.99219 3.5625 7.96875 4.06641L7.83984 7.76953L7.83984 19.6172C7.83984 20.2266 8.27344 20.6602 8.88281 20.6602C9.49219 20.6602 9.92578 20.2266 9.92578 19.6172L9.92578 7.76953Z" fill="black" fill-opacity="0.85"/>
 </g>
</svg>
