<?xml version="1.0" encoding="UTF-8"?>
<!--Generator: Apple Native CoreSVG 360-->
<!DOCTYPE svg
PUBLIC "-//W3C//DTD SVG 1.1//EN"
       "http://www.w3.org/Graphics/SVG/1.1/DTD/svg11.dtd">
<svg version="1.1" xmlns="http://www.w3.org/2000/svg" xmlns:xlink="http://www.w3.org/1999/xlink" viewBox="0 0 19.3711 18.6445">
 <g>
  <rect height="18.6445" opacity="0" width="19.3711" x="0" y="0"/>
  <path d="M1.66406 18.6445C2.13281 18.6445 2.50781 18.4453 3 18.1992L18.0586 10.8984C19.0547 10.4062 19.3711 9.94922 19.3711 9.32812C19.3711 8.70703 19.0547 8.26172 18.0586 7.76953L3 0.457031C2.49609 0.210938 2.12109 0.0117188 1.65234 0.0117188C0.785156 0.0117188 0.246094 0.667969 0.246094 1.6875L0.257812 16.9688C0.257812 17.9883 0.796875 18.6445 1.66406 18.6445ZM2.25 16.418C2.17969 16.418 2.13281 16.3711 2.13281 16.2773L2.13281 2.37891C2.13281 2.28516 2.17969 2.23828 2.25 2.23828C2.29688 2.23828 2.34375 2.26172 2.39062 2.29688L16.7461 9.19922C16.8047 9.22266 16.8516 9.26953 16.8516 9.32812C16.8516 9.38672 16.8047 9.43359 16.7461 9.45703L2.39062 16.3711C2.34375 16.3945 2.29688 16.418 2.25 16.418Z" fill="black" fill-opacity="0.85"/>
 </g>
</svg>
