<?xml version="1.0" encoding="UTF-8"?>
<!--Generator: Apple Native CoreSVG 360-->
<!DOCTYPE svg
PUBLIC "-//W3C//DTD SVG 1.1//EN"
       "http://www.w3.org/Graphics/SVG/1.1/DTD/svg11.dtd">
<svg version="1.1" xmlns="http://www.w3.org/2000/svg" xmlns:xlink="http://www.w3.org/1999/xlink" viewBox="0 0 24.3164 29.5195">
 <g>
  <rect height="29.5195" opacity="0" width="24.3164" x="0" y="0"/>
  <path d="M23.9648 3.67969L23.9648 19.957C23.9648 22.4062 22.7461 23.6367 20.332 23.6367L18.2812 23.6367L18.2812 9.52734C18.2812 7.07812 17.0742 5.84766 14.6484 5.84766L5.68359 5.84766L5.68359 3.67969C5.68359 1.23047 6.89062 0 9.31641 0L20.332 0C22.7461 0 23.9648 1.24219 23.9648 3.67969ZM11.9648 2.39062C11.4492 2.39062 11.2148 2.71875 11.2148 3.08203L11.2148 3.32812C11.2148 3.67969 11.4492 4.01953 11.9648 4.01953L17.6836 4.01953C18.1875 4.01953 18.4336 3.67969 18.4336 3.32812L18.4336 3.08203C18.4336 2.71875 18.1875 2.39062 17.6836 2.39062Z" fill="black" fill-opacity="0.85"/>
  <path d="M0 25.8047C0 28.2539 1.20703 29.4844 3.63281 29.4844L14.6484 29.4844C17.0742 29.4844 18.2812 28.2422 18.2812 25.8047L18.2812 9.52734C18.2812 7.07812 17.0742 5.84766 14.6484 5.84766L3.63281 5.84766C1.20703 5.84766 0 7.06641 0 9.52734ZM1.88672 25.7695L1.88672 9.55078C1.88672 8.39062 2.50781 7.73438 3.71484 7.73438L14.5547 7.73438C15.7617 7.73438 16.3945 8.39062 16.3945 9.55078L16.3945 25.7695C16.3945 26.9414 15.7617 27.5977 14.5547 27.5977L3.71484 27.5977C2.50781 27.5977 1.88672 26.9414 1.88672 25.7695Z" fill="black" fill-opacity="0.85"/>
  <path d="M9.12891 22.6289C9.57422 22.6289 9.97266 22.2422 9.97266 21.8086L9.97266 16.3125L9.85547 14.4141C9.83203 13.4062 8.42578 13.4062 8.37891 14.4141L8.29688 16.3125L8.29688 21.8086C8.29688 22.2422 8.68359 22.6289 9.12891 22.6289ZM5.82422 17.3555C6.03516 17.3555 6.25781 17.2617 6.41016 17.0977L7.89844 15.5039L9.12891 14.2266L9.12891 14.2266L10.3594 15.5039L11.8477 17.0977C12 17.2617 12.2109 17.3555 12.4219 17.3555C12.8555 17.3555 13.1953 17.0391 13.1953 16.6055C13.1953 16.3711 13.1016 16.207 12.9375 16.0547L9.73828 12.9492C9.52734 12.75 9.33984 12.6797 9.12891 12.6797C8.92969 12.6797 8.73047 12.75 8.51953 12.9492L5.32031 16.0547C5.16797 16.1953 5.0625 16.3711 5.0625 16.6055C5.0625 17.0391 5.40234 17.3555 5.82422 17.3555Z" fill="black" fill-opacity="0.85"/>
 </g>
</svg>
