<?xml version="1.0" encoding="UTF-8"?>
<!--Generator: Apple Native CoreSVG 360-->
<!DOCTYPE svg
PUBLIC "-//W3C//DTD SVG 1.1//EN"
       "http://www.w3.org/Graphics/SVG/1.1/DTD/svg11.dtd">
<svg version="1.1" xmlns="http://www.w3.org/2000/svg" xmlns:xlink="http://www.w3.org/1999/xlink" viewBox="0 0 30.2839 25.1367">
 <g>
  <rect height="25.1367" opacity="0" width="30.2839" x="0" y="0"/>
  <path d="M10.2201 21.457C10.2201 23.9062 11.4388 25.125 13.8529 25.125L26.2982 25.125C28.724 25.125 29.931 23.9062 29.931 21.457L29.931 3.67969C29.931 1.24219 28.724 0 26.2982 0L13.8529 0C11.4388 0 10.2201 1.24219 10.2201 3.67969ZM12.1068 21.4219L12.1068 3.71484C12.1068 2.54297 12.7396 1.88672 13.9583 1.88672L26.2044 1.88672C27.4232 1.88672 28.0443 2.54297 28.0443 3.71484L28.0443 21.4219C28.0443 22.5938 27.4232 23.2383 26.2044 23.2383L13.9583 23.2383C12.7396 23.2383 12.1068 22.5938 12.1068 21.4219Z" fill="black" fill-opacity="0.85"/>
  <path d="M14.7318 18.5039L25.4427 18.5039C25.8998 18.5039 26.1341 18.1875 26.1341 17.7656C26.1341 16.4766 24.2005 13.1484 20.0873 13.1484C15.974 13.1484 14.0404 16.4766 14.0404 17.7656C14.0404 18.1875 14.263 18.5039 14.7318 18.5039ZM20.0873 12.1992C21.7513 12.2109 23.0873 10.7812 23.0873 8.90625C23.0873 7.14844 21.7513 5.69531 20.0873 5.69531C18.4115 5.69531 17.0755 7.14844 17.0755 8.90625C17.0755 10.7812 18.4115 12.1875 20.0873 12.1992Z" fill="black" fill-opacity="0.85"/>
  <path d="M4.78257 17.2617L4.78257 10.1602C4.78257 9.64453 4.38413 9.24609 3.8685 9.24609C3.35288 9.24609 2.94272 9.64453 2.94272 10.1602L2.94272 17.2617C2.94272 17.7773 3.35288 18.1758 3.8685 18.1758C4.38413 18.1758 4.78257 17.7773 4.78257 17.2617ZM0.950535 12.1289L6.7396 12.1289C7.66538 12.1289 7.98178 11.2031 7.41928 10.582L4.51303 7.30078C4.12632 6.85547 3.57553 6.85547 3.1771 7.30078L0.282566 10.582C-0.303371 11.2383 0.0716287 12.1289 0.950535 12.1289Z" fill="black" fill-opacity="0.85"/>
 </g>
</svg>
