<?xml version="1.0" encoding="UTF-8"?>
<!--Generator: Apple Native CoreSVG 360-->
<!DOCTYPE svg
PUBLIC "-//W3C//DTD SVG 1.1//EN"
       "http://www.w3.org/Graphics/SVG/1.1/DTD/svg11.dtd">
<svg version="1.1" xmlns="http://www.w3.org/2000/svg" xmlns:xlink="http://www.w3.org/1999/xlink" viewBox="0 0 17.9062 22.957">
 <g>
  <rect height="22.957" opacity="0" width="17.9062" x="0" y="0"/>
  <path d="M13.3008 4.18359L5.80078 4.18359C2.0625 4.18359 0 6.25781 0 9.99609L0 21.9609C0 22.5117 0.445312 22.957 0.996094 22.957C1.55859 22.957 2.00391 22.5117 2.00391 21.9609L2.00391 9.97266C2.00391 7.52344 3.33984 6.1875 5.80078 6.1875L13.3008 6.1875C13.8516 6.1875 14.3086 5.73047 14.3086 5.17969C14.3086 4.62891 13.8516 4.18359 13.3008 4.18359ZM12.1992 2.50781L12.1992 7.88672C12.1992 8.70703 12.7734 8.92969 13.4062 8.48438L17.1562 5.85938C17.6836 5.48438 17.6953 4.92188 17.1562 4.53516L13.418 1.91016C12.7734 1.45312 12.1992 1.66406 12.1992 2.50781Z" fill="black" fill-opacity="0.85"/>
 </g>
</svg>
