<?xml version="1.0" encoding="UTF-8"?>
<!--Generator: Apple Native CoreSVG 360-->
<!DOCTYPE svg
PUBLIC "-//W3C//DTD SVG 1.1//EN"
       "http://www.w3.org/Graphics/SVG/1.1/DTD/svg11.dtd">
<svg version="1.1" xmlns="http://www.w3.org/2000/svg" xmlns:xlink="http://www.w3.org/1999/xlink" viewBox="0 0 22.2188 22.2773">
 <g>
  <rect height="22.2773" opacity="0" width="22.2188" x="0" y="0"/>
  <path d="M7.875 22.207C8.15625 22.207 8.42578 22.1016 8.64844 21.8672L15.4102 14.9766C15.6211 14.7773 15.7383 14.4727 15.7383 14.2148C15.7383 13.5938 15.3164 13.1719 14.707 13.1719C14.4023 13.1719 14.1797 13.2773 13.9922 13.4648L10.6992 16.8398L7.875 20.1562L5.05078 16.8398L1.74609 13.4648C1.57031 13.2773 1.33594 13.1719 1.03125 13.1719C0.421875 13.1719 0 13.5938 0 14.2148C0 14.4727 0.128906 14.7773 0.328125 14.9766L7.08984 21.8672C7.3125 22.1016 7.58203 22.207 7.875 22.207ZM20.8242 11.9648C21.3984 11.9648 21.8672 11.543 21.8672 10.8984L21.8672 8.19141C21.8672 2.94141 18.8789 0 14.3906 0C9.91406 0 6.82031 3.02344 6.82031 8.37891L6.82031 16.3125L6.99609 20.1914C7.01953 20.6836 7.38281 21.0703 7.875 21.0703C8.35547 21.0703 8.71875 20.6836 8.74219 20.1914L8.91797 16.3125L8.91797 8.20312C8.91797 4.20703 11.1211 2.08594 14.2734 2.08594C17.4375 2.08594 19.7812 4.20703 19.7812 8.20312L19.7812 10.8984C19.7812 11.543 20.25 11.9648 20.8242 11.9648Z" fill="black" fill-opacity="0.85"/>
 </g>
</svg>
