<?xml version="1.0" encoding="UTF-8"?>
<!--Generator: Apple Native CoreSVG 360-->
<!DOCTYPE svg
PUBLIC "-//W3C//DTD SVG 1.1//EN"
       "http://www.w3.org/Graphics/SVG/1.1/DTD/svg11.dtd">
<svg version="1.1" xmlns="http://www.w3.org/2000/svg" xmlns:xlink="http://www.w3.org/1999/xlink" viewBox="0 0 12.4368 22.96">
 <g>
  <rect height="22.96" opacity="0" width="12.4368" x="0" y="0"/>
  <path d="M0.833612 5.35695L6.21252 5.35695C7.04455 5.35695 7.25549 4.78273 6.81017 4.1382L4.18517 0.399914C3.81017-0.127429 3.24767-0.139148 2.86096 0.399914L0.235956 4.12648C-0.221075 4.78273-0.0101376 5.35695 0.833612 5.35695ZM10.736 18.9624C11.3922 19.1851 11.8844 18.7749 12.0367 18.271C12.1774 17.7905 12.0016 17.228 11.3805 17.0171C6.71642 15.4234 4.5133 12.564 4.5133 8.22804L4.5133 3.77491C4.5133 3.22413 4.06799 2.7671 3.51721 2.7671C2.96642 2.7671 2.50939 3.22413 2.50939 3.77491L2.50939 8.22804C2.50939 13.4898 5.2633 17.0991 10.736 18.9624ZM4.5133 3.77491C4.5133 3.22413 4.06799 2.7671 3.51721 2.7671C2.96642 2.7671 2.50939 3.22413 2.50939 3.77491L2.50939 21.9624C2.50939 22.5132 2.96642 22.9585 3.51721 22.9585C4.06799 22.9585 4.5133 22.5132 4.5133 21.9624Z" fill="black" fill-opacity="0.85"/>
 </g>
</svg>
