<?xml version="1.0" encoding="UTF-8"?>
<!--Generator: Apple Native CoreSVG 360-->
<!DOCTYPE svg
PUBLIC "-//W3C//DTD SVG 1.1//EN"
       "http://www.w3.org/Graphics/SVG/1.1/DTD/svg11.dtd">
<svg version="1.1" xmlns="http://www.w3.org/2000/svg" xmlns:xlink="http://www.w3.org/1999/xlink" viewBox="0 0 20.0625 25.1367">
 <g>
  <rect height="25.1367" opacity="0" width="20.0625" x="0" y="0"/>
  <path d="M9.01172 8.60156C9.01172 10.1016 9.72656 10.8164 11.2266 10.8164L19.7109 10.8164L19.7109 21.457C19.7109 23.8945 18.5039 25.125 16.0781 25.125L3.63281 25.125C1.20703 25.125 0 23.9062 0 21.457L0 3.67969C0 1.24219 1.21875 0 3.63281 0L9.01172 0ZM8.96484 13.7578L8.96484 18.0938L9.05977 20.0635L8.03906 19.0078L6.97266 17.9297C6.79688 17.7539 6.5625 17.6484 6.32812 17.6484C5.82422 17.6484 5.46094 18 5.46094 18.4922C5.46094 18.7617 5.58984 18.9727 5.77734 19.1484L9.22266 22.3125C9.48047 22.5352 9.65625 22.6172 9.90234 22.6172C10.1484 22.6172 10.3242 22.5352 10.582 22.3125L14.0273 19.1484C14.2148 18.9727 14.332 18.7617 14.332 18.4922C14.332 18 13.9453 17.6484 13.4648 17.6484C13.2305 17.6484 12.9961 17.7539 12.8203 17.9297L11.7656 19.0078L10.7413 20.0601L10.8281 18.0938L10.8281 13.7578C10.8281 13.2656 10.4062 12.8672 9.90234 12.8672C9.39844 12.8672 8.96484 13.2656 8.96484 13.7578ZM12.1406 1.11328L18.5977 7.6875C19.1602 8.26172 19.5 8.73047 19.5703 9.21094L11.2617 9.21094C10.8281 9.21094 10.6172 9 10.6172 8.57812L10.6172 0.128906C11.1094 0.210938 11.5898 0.550781 12.1406 1.11328Z" fill="black" fill-opacity="0.85"/>
 </g>
</svg>
