<?xml version="1.0" encoding="UTF-8"?>
<!--Generator: Apple Native CoreSVG 360-->
<!DOCTYPE svg
PUBLIC "-//W3C//DTD SVG 1.1//EN"
       "http://www.w3.org/Graphics/SVG/1.1/DTD/svg11.dtd">
<svg version="1.1" xmlns="http://www.w3.org/2000/svg" xmlns:xlink="http://www.w3.org/1999/xlink" viewBox="0 0 26.602 26.2705">
 <g>
  <rect height="26.2705" opacity="0" width="26.602" x="0" y="0"/>
  <path d="M2.40256 10.9028C2.01584 10.5513 1.54709 10.6216 1.26584 10.9028C0.996309 11.1724 0.925996 11.6411 1.26584 12.0396L3.7385 14.8755L14.8127 25.9497C15.2346 26.3716 15.8674 26.3716 16.301 25.9497C16.7346 25.5161 16.7229 24.8833 16.301 24.4614L5.22678 13.3872ZM2.1799 19.27L2.12131 15.7544L1.78146 11.4185L6.10568 11.77L9.60959 11.8286C9.90256 11.8286 10.1369 11.7349 10.3479 11.5239C10.7815 11.0903 10.7815 10.4927 10.3479 10.0474C10.1604 9.85988 9.85568 9.74269 9.56271 9.74269L1.1135 9.64894C0.457246 9.63722-0.0115038 10.1177 0.000214902 10.7622L0.0939649 19.2114C0.0939649 19.5044 0.211152 19.8091 0.398652 19.9966C0.843965 20.4302 1.44162 20.4302 1.87521 19.9966C2.08615 19.7739 2.1799 19.5513 2.1799 19.27Z" fill="black" fill-opacity="0.85"/>
  <path d="M24.9963 14.2075L22.5119 11.395L11.4377 0.320816C11.0158-0.101059 10.383-0.112778 9.94943 0.320816C9.51584 0.75441 9.52756 1.3755 9.94943 1.79738L21.0237 12.8833L23.8596 15.356C24.258 15.6958 24.7268 15.6255 24.9963 15.356C25.2776 15.0747 25.3479 14.606 24.9963 14.2075ZM16.6408 14.4419C16.3479 14.4419 16.1135 14.5239 15.9026 14.7466C15.469 15.1802 15.469 15.7661 15.9026 16.2232C16.0901 16.3989 16.3947 16.5161 16.6877 16.5161L25.1369 16.6216C25.7697 16.6333 26.2619 16.1528 26.2502 15.5083L26.1447 7.04738C26.1447 6.76613 26.0276 6.46144 25.8518 6.27394C25.4065 5.84035 24.8088 5.84035 24.3752 6.27394C24.1643 6.48488 24.0705 6.71925 24.0705 6.98878L24.1291 10.5044L24.469 14.8403L20.133 14.5005Z" fill="black" fill-opacity="0.85"/>
 </g>
</svg>
