<?xml version="1.0" encoding="UTF-8"?>
<!--Generator: Apple Native CoreSVG 360-->
<!DOCTYPE svg
PUBLIC "-//W3C//DTD SVG 1.1//EN"
       "http://www.w3.org/Graphics/SVG/1.1/DTD/svg11.dtd">
<svg version="1.1" xmlns="http://www.w3.org/2000/svg" xmlns:xlink="http://www.w3.org/1999/xlink" viewBox="0 0 27.6094 24.5508">
 <g>
  <rect height="24.5508" opacity="0" width="27.6094" x="0" y="0"/>
  <path d="M13.6289 22.8164C21.5039 22.8164 27.2578 18.0117 27.2578 11.4023C27.2578 4.76953 21.4922 0 13.6289 0C5.75391 0 0 4.76953 0 11.4023C0 13.5938 0.644531 15.6328 1.76953 17.2852C2.32031 18.1055 2.51953 18.6797 2.51953 19.1602C2.51953 19.7812 2.33203 20.2852 1.79297 20.7539C0.867188 21.5391 1.34766 22.8164 2.56641 22.8164C4.03125 22.8164 5.66016 22.3125 6.86719 21.4805C8.84766 22.3477 11.1562 22.8164 13.6289 22.8164ZM13.6289 20.9297C11.3906 20.9297 9.38672 20.5078 7.6875 19.7461C6.9375 19.418 6.39844 19.5117 5.68359 19.9336C5.17969 20.25 4.59375 20.5195 3.99609 20.6484C4.24219 20.2383 4.40625 19.7695 4.40625 19.1602C4.40625 18.293 4.08984 17.3438 3.33984 16.2188C2.40234 14.8594 1.88672 13.207 1.88672 11.4023C1.88672 5.90625 6.73828 1.88672 13.6289 1.88672C20.5195 1.88672 25.3711 5.90625 25.3711 11.4023C25.3711 16.8984 20.5195 20.9297 13.6289 20.9297Z" fill="black" fill-opacity="0.85"/>
  <path d="M13.6406 17.3086C14.1445 17.3086 14.5664 16.8984 14.5664 16.4062L14.5664 9.80859L14.4844 7.37109C14.4727 6.84375 14.0508 6.5625 13.6406 6.5625C13.2188 6.5625 12.8086 6.84375 12.7852 7.37109L12.7031 9.80859L12.7031 16.4062C12.7031 16.8984 13.1367 17.3086 13.6406 17.3086ZM13.6406 5.48438C13.3945 5.48438 13.1953 5.56641 12.9609 5.80078L9.09375 9.52734C8.91797 9.70312 8.8125 9.89062 8.8125 10.1484C8.8125 10.6172 9.17578 10.9688 9.65625 10.9688C9.89062 10.9688 10.1367 10.875 10.3008 10.6875L12.0938 8.77734L13.6406 7.14844L13.6406 7.14844L15.1758 8.77734L16.9688 10.6875C17.1328 10.875 17.3672 10.9688 17.6016 10.9688C18.082 10.9688 18.457 10.6172 18.457 10.1484C18.457 9.89062 18.3516 9.70312 18.1758 9.52734L14.3086 5.80078C14.0742 5.56641 13.875 5.48438 13.6406 5.48438Z" fill="black" fill-opacity="0.85"/>
 </g>
</svg>
