<?xml version="1.0" encoding="UTF-8"?>
<!--Generator: Apple Native CoreSVG 360-->
<!DOCTYPE svg
PUBLIC "-//W3C//DTD SVG 1.1//EN"
       "http://www.w3.org/Graphics/SVG/1.1/DTD/svg11.dtd">
<svg version="1.1" xmlns="http://www.w3.org/2000/svg" xmlns:xlink="http://www.w3.org/1999/xlink" viewBox="0 0 21.0469 27.9258">
 <g>
  <rect height="27.9258" opacity="0" width="21.0469" x="0" y="0"/>
  <path d="M10.3477 25.1719C16.0664 25.1719 20.6953 20.543 20.6953 14.8242C20.6953 9.10547 16.0664 4.47656 10.3477 4.47656C9.10547 4.47656 7.89844 4.69922 6.82031 5.10938C6.50391 5.22656 6.05859 5.44922 6.07031 6.04688C6.08203 6.77344 6.79688 7.11328 7.39453 6.87891C8.32031 6.53906 9.31641 6.35156 10.3477 6.35156C15.0234 6.35156 18.8086 10.1367 18.8086 14.8125C18.8086 19.4883 15.0234 23.2734 10.3477 23.2734C5.67188 23.2734 1.88672 19.4883 1.88672 14.8125C1.88672 14.2969 1.46484 13.875 0.9375 13.875C0.421875 13.875 0 14.2969 0 14.8125C0 20.543 4.62891 25.1719 10.3477 25.1719ZM7.17188 5.88281L11.4492 1.64062C11.625 1.46484 11.707 1.20703 11.707 0.960938C11.707 0.433594 11.3086 0 10.7812 0C10.5 0 10.2773 0.117188 10.1016 0.292969L5.27344 5.19141C5.08594 5.37891 4.98047 5.63672 4.98047 5.89453C4.98047 6.15234 5.0625 6.38672 5.27344 6.59766L10.1016 11.4492C10.2773 11.6133 10.4883 11.7188 10.7812 11.7188C11.3086 11.7188 11.707 11.3086 11.707 10.7695C11.707 10.5234 11.625 10.2891 11.4375 10.1133Z" fill="black" fill-opacity="0.85"/>
 </g>
</svg>
