<?xml version="1.0" encoding="UTF-8"?>
<!--Generator: Apple Native CoreSVG 360-->
<!DOCTYPE svg
PUBLIC "-//W3C//DTD SVG 1.1//EN"
       "http://www.w3.org/Graphics/SVG/1.1/DTD/svg11.dtd">
<svg version="1.1" xmlns="http://www.w3.org/2000/svg" xmlns:xlink="http://www.w3.org/1999/xlink" viewBox="0 0 24.2578 28.468">
 <g>
  <rect height="28.468" opacity="0" width="24.2578" x="0" y="0"/>
  <path d="M9.69141 0.833612L9.69141 6.21252C9.69141 7.04455 10.2656 7.25549 10.9102 6.81017L14.6484 4.18517C15.1758 3.81017 15.1875 3.24767 14.6484 2.86096L10.9219 0.235956C10.2656-0.221075 9.69141-0.0101376 9.69141 0.833612ZM11.9531 26.1813C18.5508 26.1813 23.9062 20.8258 23.9062 14.2281C23.9062 10.2086 21.9492 6.72814 18.9258 4.54846C18.4102 4.15002 17.7422 4.29064 17.4492 4.75939C17.1562 5.25158 17.3086 5.80236 17.7891 6.16564C20.2734 7.94689 21.9141 10.8883 21.9141 14.2281C21.9141 19.736 17.4609 24.1891 11.9531 24.1891C6.44531 24.1891 1.99219 19.736 1.99219 14.2281C1.99219 8.72033 6.44531 4.26721 11.9531 4.26721C12.5039 4.26721 12.9492 3.81017 12.9492 3.25939C12.9492 2.73205 12.5156 2.28674 11.9648 2.27502C5.34375 2.28674 0 7.63049 0 14.2281C0 20.8258 5.35547 26.1813 11.9531 26.1813Z" fill="black" fill-opacity="0.85"/>
 </g>
</svg>
