<?xml version="1.0" encoding="UTF-8"?>
<!--Generator: Apple Native CoreSVG 360-->
<!DOCTYPE svg
PUBLIC "-//W3C//DTD SVG 1.1//EN"
       "http://www.w3.org/Graphics/SVG/1.1/DTD/svg11.dtd">
<svg version="1.1" xmlns="http://www.w3.org/2000/svg" xmlns:xlink="http://www.w3.org/1999/xlink" viewBox="0 0 42.4805 27.5039">
 <g>
  <rect height="27.5039" opacity="0" width="42.4805" x="0" y="0"/>
  <path d="M27.4922 16.9336L27.4922 25.207C27.4922 26.4961 26.4961 27.4922 25.2188 27.4922L16.8984 27.4922C15.6211 27.4922 14.6484 26.4961 14.6484 25.207L14.6484 16.9336C14.6484 15.6445 15.6211 14.6367 16.8984 14.6367L25.2188 14.6367C26.4961 14.6367 27.4922 15.6445 27.4922 16.9336ZM42.1289 16.9336L42.1289 25.207C42.1289 26.4961 41.1562 27.4922 39.8789 27.4922L31.5586 27.4922C30.2812 27.4922 29.2852 26.4961 29.2852 25.207L29.2852 16.9336C29.2852 15.6445 30.2812 14.6367 31.5586 14.6367L39.8789 14.6367C41.1562 14.6367 42.1289 15.6445 42.1289 16.9336ZM16.8984 16.2891C16.5586 16.2891 16.3008 16.5586 16.3008 16.9336L16.3008 25.207C16.3008 25.5703 16.5586 25.8398 16.8984 25.8398L25.2188 25.8398C25.5703 25.8398 25.8398 25.5703 25.8398 25.207L25.8398 16.9336C25.8398 16.5586 25.5703 16.2891 25.2188 16.2891ZM31.5586 16.2891C31.207 16.2891 30.9375 16.5586 30.9375 16.9336L30.9375 25.207C30.9375 25.5703 31.207 25.8398 31.5586 25.8398L39.8789 25.8398C40.2188 25.8398 40.4766 25.5703 40.4766 25.207L40.4766 16.9336C40.4766 16.5586 40.2188 16.2891 39.8789 16.2891ZM27.4922 2.28516L27.4922 10.5703C27.4922 11.8594 26.4961 12.8438 25.2188 12.8438L16.8984 12.8438C15.6211 12.8438 14.6484 11.8594 14.6484 10.5703L14.6484 2.28516C14.6484 0.996094 15.6211 0 16.8984 0L25.2188 0C26.4961 0 27.4922 0.996094 27.4922 2.28516ZM16.8984 1.65234C16.5586 1.65234 16.3008 1.92188 16.3008 2.28516L16.3008 10.5703C16.3008 10.9219 16.5586 11.1914 16.8984 11.1914L25.2188 11.1914C25.5703 11.1914 25.8398 10.9219 25.8398 10.5703L25.8398 2.28516C25.8398 1.92188 25.5703 1.65234 25.2188 1.65234Z" fill="black" fill-opacity="0.85"/>
  <path d="M12.8438 16.9336L12.8438 25.207C12.8438 26.4961 11.8477 27.4922 10.5703 27.4922L2.25 27.4922C0.972656 27.4922 0 26.4961 0 25.207L0 16.9336C0 15.6445 0.972656 14.6367 2.25 14.6367L10.5703 14.6367C11.8477 14.6367 12.8438 15.6445 12.8438 16.9336ZM7.81641 17.8125L3.31641 20.4727C2.85938 20.7422 2.87109 21.4219 3.32812 21.6797L7.81641 24.3164C8.29688 24.5977 8.89453 24.2812 8.89453 23.7773L8.89453 18.3398C8.89453 17.8477 8.29688 17.5312 7.81641 17.8125Z" fill="black" fill-opacity="0.85"/>
 </g>
</svg>
