<?xml version="1.0" encoding="UTF-8"?>
<!--Generator: Apple Native CoreSVG 360-->
<!DOCTYPE svg
PUBLIC "-//W3C//DTD SVG 1.1//EN"
       "http://www.w3.org/Graphics/SVG/1.1/DTD/svg11.dtd">
<svg version="1.1" xmlns="http://www.w3.org/2000/svg" xmlns:xlink="http://www.w3.org/1999/xlink" viewBox="0 0 20.0625 25.1367">
 <g>
  <rect height="25.1367" opacity="0" width="20.0625" x="0" y="0"/>
  <path d="M3.63281 25.125L16.0781 25.125C18.5039 25.125 19.7109 23.8945 19.7109 21.457L19.7109 10.8164C19.7109 9.30469 19.5352 8.64844 18.5977 7.6875L12.1406 1.11328C11.25 0.199219 10.5117 0 9.19922 0L3.63281 0C1.21875 0 0 1.24219 0 3.67969L0 21.457C0 23.9062 1.20703 25.125 3.63281 25.125ZM3.71484 23.2383C2.50781 23.2383 1.88672 22.5938 1.88672 21.4219L1.88672 3.71484C1.88672 2.55469 2.50781 1.88672 3.72656 1.88672L8.94141 1.88672L8.94141 8.69531C8.94141 10.1719 9.67969 10.8984 11.1445 10.8984L17.8242 10.8984L17.8242 21.4219C17.8242 22.5938 17.2031 23.2383 15.9844 23.2383ZM11.3555 9.12891C10.8867 9.12891 10.7109 8.94141 10.7109 8.47266L10.7109 2.25L17.4609 9.12891Z" fill="black" fill-opacity="0.85"/>
  <path d="M6.43359 17.0039C5.95312 17.0039 5.60156 17.3438 5.60156 17.8125C5.60156 18.082 5.71875 18.2812 5.90625 18.4453L9.24609 21.5156C9.49219 21.7383 9.66797 21.8203 9.90234 21.8203C10.1367 21.8203 10.3125 21.7383 10.5586 21.5156L13.8984 18.4453C14.0859 18.2812 14.1914 18.082 14.1914 17.8125C14.1914 17.3438 13.8281 17.0039 13.3594 17.0039C13.1367 17.0039 12.9023 17.0977 12.7383 17.2734L11.7188 18.3164L10.043 20.0391L9.75 20.0391L8.08594 18.3164L7.05469 17.2734C6.89062 17.0977 6.65625 17.0039 6.43359 17.0039ZM9.90234 12.3516C9.42188 12.3516 9 12.7383 9 13.2188L9 17.4375L9.12891 20.2617C9.17578 21.2695 10.6289 21.2695 10.6758 20.2617L10.793 17.4375L10.793 13.2188C10.793 12.7383 10.3828 12.3516 9.90234 12.3516Z" fill="black" fill-opacity="0.85"/>
 </g>
</svg>
