<?xml version="1.0" encoding="UTF-8"?>
<!--Generator: Apple Native CoreSVG 360-->
<!DOCTYPE svg
PUBLIC "-//W3C//DTD SVG 1.1//EN"
       "http://www.w3.org/Graphics/SVG/1.1/DTD/svg11.dtd">
<svg version="1.1" xmlns="http://www.w3.org/2000/svg" xmlns:xlink="http://www.w3.org/1999/xlink" viewBox="0 0 26.602 26.2705">
 <g>
  <rect height="26.2705" opacity="0" width="26.602" x="0" y="0"/>
  <path d="M23.8479 10.9028L21.0236 13.3872L9.94942 24.4614C9.52755 24.8833 9.51583 25.5161 9.94942 25.9497C10.383 26.3716 11.0158 26.3716 11.4377 25.9497L22.5119 14.8755L24.9846 12.0396C25.3244 11.6411 25.2541 11.1724 24.9846 10.9028C24.7033 10.6216 24.2346 10.5513 23.8479 10.9028ZM24.0705 19.27C24.0705 19.5513 24.1643 19.7739 24.3752 19.9966C24.8088 20.4302 25.4065 20.4302 25.8518 19.9966C26.0275 19.8091 26.1447 19.5044 26.1447 19.2114L26.2502 10.7622C26.2619 10.1177 25.7932 9.63722 25.1369 9.64894L16.6877 9.74269C16.3947 9.74269 16.09 9.85988 15.9025 10.0474C15.469 10.4927 15.469 11.0903 15.9025 11.5239C16.1135 11.7349 16.3479 11.8286 16.6408 11.8286L20.133 11.77L24.469 11.4185L24.1291 15.7544Z" fill="black" fill-opacity="0.85"/>
  <path d="M1.25411 14.2075C0.902549 14.606 0.972861 15.0747 1.25411 15.356C1.52364 15.6255 1.99239 15.6958 2.39083 15.356L5.22677 12.8833L16.301 1.79738C16.7229 1.3755 16.7346 0.75441 16.301 0.320816C15.8674-0.112778 15.2346-0.101059 14.8127 0.320816L3.73849 11.395ZM9.60958 14.4419L6.10567 14.5005L1.78145 14.8403L2.1213 10.5044L2.17989 6.98878C2.17989 6.71925 2.08614 6.48488 1.8752 6.27394C1.44161 5.84035 0.843955 5.84035 0.398642 6.27394C0.211142 6.46144 0.093955 6.76613 0.093955 7.04738L0.000204972 15.5083C-0.0115138 16.1528 0.480674 16.6333 1.11349 16.6216L9.5627 16.5161C9.85567 16.5161 10.1604 16.3989 10.3479 16.2232C10.7815 15.7661 10.7815 15.1802 10.3479 14.7466C10.1369 14.5239 9.90255 14.4419 9.60958 14.4419Z" fill="black" fill-opacity="0.85"/>
 </g>
</svg>
