<?xml version="1.0" encoding="UTF-8"?>
<!--Generator: Apple Native CoreSVG 360-->
<!DOCTYPE svg
PUBLIC "-//W3C//DTD SVG 1.1//EN"
       "http://www.w3.org/Graphics/SVG/1.1/DTD/svg11.dtd">
<svg version="1.1" xmlns="http://www.w3.org/2000/svg" xmlns:xlink="http://www.w3.org/1999/xlink" viewBox="0 0 25.9805 21.5039">
 <g>
  <rect height="21.5039" opacity="0" width="25.9805" x="0" y="0"/>
  <path d="M25.9805 10.7461C25.9805 10.3477 25.8398 9.91406 25.3828 9.48047L16.1367 0.832031C15.5156 0.246094 15.1289 0 14.5547 0C13.7344 0 13.1484 0.644531 13.1484 1.42969L13.1484 5.85938L3.64453 5.85938C1.79297 5.85938 0.714844 6.91406 0.714844 8.73047L0.714844 12.7734C0.714844 14.5898 1.79297 15.6445 3.64453 15.6445L13.1484 15.6445L13.1484 20.1211C13.1484 20.9062 13.7344 21.4922 14.5312 21.4922C15.1055 21.4922 15.5742 21.2578 16.1367 20.7305L25.3828 12C25.8281 11.5781 25.9805 11.1328 25.9805 10.7461ZM23.8711 10.7461C23.8711 10.8164 23.8477 10.875 23.7539 10.9688L15.3984 18.8672C15.3398 18.9375 15.2695 18.9727 15.1992 18.9727C15.1055 18.9727 15.0352 18.9023 15.0352 18.7969L15.0352 14.2617C15.0352 13.9922 14.918 13.875 14.6484 13.875L3.66797 13.875C2.91797 13.875 2.48438 13.4414 2.48438 12.6797L2.48438 8.82422C2.48438 8.0625 2.91797 7.62891 3.66797 7.62891L14.6484 7.62891C14.918 7.62891 15.0352 7.51172 15.0352 7.24219L15.0352 2.58984C15.0352 2.49609 15.1055 2.42578 15.2109 2.42578C15.2812 2.42578 15.3516 2.47266 15.4102 2.51953L23.7539 10.5234C23.8359 10.6055 23.8711 10.6758 23.8711 10.7461Z" fill="black" fill-opacity="0.85"/>
 </g>
</svg>
