<?xml version="1.0" encoding="UTF-8"?>
<!--Generator: Apple Native CoreSVG 360-->
<!DOCTYPE svg
PUBLIC "-//W3C//DTD SVG 1.1//EN"
       "http://www.w3.org/Graphics/SVG/1.1/DTD/svg11.dtd">
<svg version="1.1" xmlns="http://www.w3.org/2000/svg" xmlns:xlink="http://www.w3.org/1999/xlink" viewBox="0 0 27.9844 21.5742">
 <g>
  <rect height="21.5742" opacity="0" width="27.9844" x="0" y="0"/>
  <path d="M3.67969 21.5742L23.9531 21.5742C26.4141 21.5742 27.6328 20.3672 27.6328 17.9531L27.6328 3.63281C27.6328 1.21875 26.4141 0 23.9531 0L3.67969 0C1.23047 0 0 1.21875 0 3.63281L0 17.9531C0 20.3672 1.23047 21.5742 3.67969 21.5742ZM3.70312 19.6875C2.53125 19.6875 1.88672 19.0664 1.88672 17.8477L1.88672 3.73828C1.88672 2.51953 2.53125 1.88672 3.70312 1.88672L23.9297 1.88672C25.0898 1.88672 25.7461 2.51953 25.7461 3.73828L25.7461 17.8477C25.7461 19.0664 25.0898 19.6875 23.9297 19.6875Z" fill="black" fill-opacity="0.85"/>
  <path d="M23.6719 5.17969C23.8359 5.01562 23.9531 4.79297 23.9531 4.55859C23.9531 4.03125 23.6133 3.67969 23.0977 3.67969C22.8047 3.67969 22.5938 3.78516 22.4297 3.94922L18.8906 7.48828L16.8164 9.69141C16.043 10.5117 17.0508 11.6133 17.918 10.8047L20.1328 8.71875ZM16.6289 11.9531L22.0312 11.9531C22.5703 11.9414 22.9102 11.6133 22.9102 11.0977C22.9102 10.582 22.5586 10.2422 21.9961 10.2305L20.0273 10.2305L17.0273 10.5938L17.3906 7.46484L17.3906 5.625C17.3789 5.05078 17.0391 4.69922 16.5234 4.69922C16.0078 4.69922 15.6797 5.03906 15.668 5.58984L15.668 10.9805C15.668 11.6367 15.9844 11.9531 16.6289 11.9531Z" fill="black" fill-opacity="0.85"/>
 </g>
</svg>
