<?xml version="1.0" encoding="UTF-8"?>
<!--Generator: Apple Native CoreSVG 360-->
<!DOCTYPE svg
PUBLIC "-//W3C//DTD SVG 1.1//EN"
       "http://www.w3.org/Graphics/SVG/1.1/DTD/svg11.dtd">
<svg version="1.1" xmlns="http://www.w3.org/2000/svg" xmlns:xlink="http://www.w3.org/1999/xlink" viewBox="0 0 42.4805 27.5039">
 <g>
  <rect height="27.5039" opacity="0" width="42.4805" x="0" y="0"/>
  <path d="M16.8984 12.8438L25.2188 12.8438C26.4961 12.8438 27.4922 11.8594 27.4922 10.5703L27.4922 2.28516C27.4922 0.996094 26.4961 0 25.2188 0L16.8984 0C15.6211 0 14.6484 0.996094 14.6484 2.28516L14.6484 10.5703C14.6484 11.8594 15.6211 12.8438 16.8984 12.8438ZM16.8984 11.1914C16.5586 11.1914 16.3008 10.9219 16.3008 10.5703L16.3008 2.28516C16.3008 1.92188 16.5586 1.65234 16.8984 1.65234L25.2188 1.65234C25.5703 1.65234 25.8398 1.92188 25.8398 2.28516L25.8398 10.5703C25.8398 10.9219 25.5703 11.1914 25.2188 11.1914ZM2.25 27.4922L10.5703 27.4922C11.8477 27.4922 12.8438 26.4961 12.8438 25.207L12.8438 16.9336C12.8438 15.6445 11.8477 14.6367 10.5703 14.6367L2.25 14.6367C0.972656 14.6367 0 15.6445 0 16.9336L0 25.207C0 26.4961 0.972656 27.4922 2.25 27.4922ZM2.25 25.8398C1.91016 25.8398 1.65234 25.5703 1.65234 25.207L1.65234 16.9336C1.65234 16.5586 1.91016 16.2891 2.25 16.2891L10.5703 16.2891C10.9219 16.2891 11.1914 16.5586 11.1914 16.9336L11.1914 25.207C11.1914 25.5703 10.9219 25.8398 10.5703 25.8398ZM16.8984 27.4922L25.2188 27.4922C26.4961 27.4922 27.4922 26.4961 27.4922 25.207L27.4922 16.9336C27.4922 15.6445 26.4961 14.6367 25.2188 14.6367L16.8984 14.6367C15.6211 14.6367 14.6484 15.6445 14.6484 16.9336L14.6484 25.207C14.6484 26.4961 15.6211 27.4922 16.8984 27.4922ZM16.8984 25.8398C16.5586 25.8398 16.3008 25.5703 16.3008 25.207L16.3008 16.9336C16.3008 16.5586 16.5586 16.2891 16.8984 16.2891L25.2188 16.2891C25.5703 16.2891 25.8398 16.5586 25.8398 16.9336L25.8398 25.207C25.8398 25.5703 25.5703 25.8398 25.2188 25.8398ZM31.5586 27.4922L39.8789 27.4922C41.1562 27.4922 42.1289 26.4961 42.1289 25.207L42.1289 16.9336C42.1289 15.6445 41.1562 14.6367 39.8789 14.6367L31.5586 14.6367C30.2812 14.6367 29.2852 15.6445 29.2852 16.9336L29.2852 25.207C29.2852 26.4961 30.2812 27.4922 31.5586 27.4922ZM31.5586 25.8398C31.207 25.8398 30.9375 25.5703 30.9375 25.207L30.9375 16.9336C30.9375 16.5586 31.207 16.2891 31.5586 16.2891L39.8789 16.2891C40.2188 16.2891 40.4766 16.5586 40.4766 16.9336L40.4766 25.207C40.4766 25.5703 40.2188 25.8398 39.8789 25.8398Z" fill="black" fill-opacity="0.85"/>
  <path d="M18.4336 9.26953L23.707 9.26953C24.1875 9.26953 24.4922 8.69531 24.2227 8.22656L21.6328 3.86719C21.375 3.43359 20.7188 3.44531 20.4727 3.87891L17.918 8.22656C17.6367 8.69531 17.9414 9.26953 18.4336 9.26953ZM8.95312 23.6953L8.95312 18.4219C8.95312 17.9414 8.37891 17.6367 7.89844 17.9062L3.53906 20.4961C3.10547 20.7539 3.11719 21.4102 3.55078 21.6562L7.89844 24.2227C8.37891 24.4922 8.95312 24.1875 8.95312 23.6953ZM20.4727 23.6133C20.7305 24.0469 21.375 24.0586 21.6328 23.625L24.2227 19.2656C24.5039 18.7969 24.1875 18.2227 23.707 18.2227L18.4453 18.2227C17.9414 18.2227 17.6484 18.7852 17.918 19.2656ZM33.1875 23.6953C33.1875 24.1875 33.7617 24.4922 34.2305 24.2227L38.5781 21.6562C39.0117 21.4102 39.0234 20.7539 38.5898 20.4961L34.2305 17.9062C33.75 17.6367 33.1875 17.9414 33.1875 18.4219Z" fill="black" fill-opacity="0.85"/>
 </g>
</svg>
