<?xml version="1.0" encoding="UTF-8"?>
<!--Generator: Apple Native CoreSVG 360-->
<!DOCTYPE svg
PUBLIC "-//W3C//DTD SVG 1.1//EN"
       "http://www.w3.org/Graphics/SVG/1.1/DTD/svg11.dtd">
<svg version="1.1" xmlns="http://www.w3.org/2000/svg" xmlns:xlink="http://www.w3.org/1999/xlink" viewBox="0 0 21.0469 27.9258">
 <g>
  <rect height="27.9258" opacity="0" width="21.0469" x="0" y="0"/>
  <path d="M10.3477 25.1719C16.0664 25.1719 20.6953 20.543 20.6953 14.8125C20.6953 14.2969 20.2734 13.875 19.7578 13.875C19.2422 13.875 18.8086 14.2969 18.8086 14.8125C18.8086 19.4883 15.0234 23.2734 10.3477 23.2734C5.67188 23.2734 1.88672 19.4883 1.88672 14.8125C1.88672 10.1367 5.67188 6.35156 10.3477 6.35156C11.3906 6.35156 12.3867 6.53906 13.3125 6.87891C13.9102 7.11328 14.6133 6.77344 14.625 6.04688C14.6367 5.44922 14.1914 5.22656 13.875 5.10938C12.7969 4.69922 11.6016 4.47656 10.3477 4.47656C4.62891 4.47656 0 9.10547 0 14.8242C0 20.543 4.62891 25.1719 10.3477 25.1719ZM13.5234 5.88281L9.26953 10.1133C9.07031 10.2891 9 10.5234 9 10.7695C9 11.3086 9.39844 11.7188 9.91406 11.7188C10.207 11.7188 10.418 11.6133 10.5938 11.4492L15.4219 6.59766C15.6328 6.38672 15.7266 6.15234 15.7266 5.89453C15.7266 5.63672 15.6211 5.37891 15.4219 5.19141L10.6055 0.292969C10.418 0.117188 10.207 0 9.91406 0C9.39844 0 9 0.433594 9 0.960938C9 1.20703 9.07031 1.46484 9.25781 1.64062Z" fill="black" fill-opacity="0.85"/>
 </g>
</svg>
