<?xml version="1.0" encoding="UTF-8"?>
<!--Generator: Apple Native CoreSVG 360-->
<!DOCTYPE svg
PUBLIC "-//W3C//DTD SVG 1.1//EN"
       "http://www.w3.org/Graphics/SVG/1.1/DTD/svg11.dtd">
<svg version="1.1" xmlns="http://www.w3.org/2000/svg" xmlns:xlink="http://www.w3.org/1999/xlink" viewBox="0 0 22.6875 22.3711">
 <g>
  <rect height="22.3711" opacity="0" width="22.6875" x="0" y="0"/>
  <path d="M13.9805 3.11719L13.9805 2.13281C13.9805 1.5 13.5234 1.04297 12.9141 1.04297C12.2812 1.04297 11.8242 1.51172 11.8242 2.13281L11.8242 8.625C11.8242 9.82031 12.5156 10.5117 13.7227 10.5117L20.2266 10.5117C20.8477 10.5117 21.3281 10.0664 21.3281 9.43359C21.3281 8.8125 20.8477 8.37891 20.2266 8.37891L19.2422 8.37891L13.6406 8.70703ZM14.3203 9.375L18.3984 5.53125L22.0078 1.92188C22.2188 1.69922 22.3359 1.41797 22.3359 1.11328C22.3359 0.445312 21.832 0.0117188 21.1758 0.0117188C20.8828 0.0117188 20.625 0.105469 20.4258 0.328125L16.8281 3.94922L12.9609 8.02734C12.0352 9.02344 13.2891 10.3359 14.3203 9.375ZM8.35547 19.2656L8.35547 20.25C8.35547 20.8828 8.80078 21.3398 9.42188 21.3398C10.043 21.3398 10.5 20.8594 10.5 20.25L10.5 13.7578C10.5 12.5625 9.80859 11.8711 8.61328 11.8711L2.10938 11.8711C1.47656 11.8711 1.00781 12.3164 1.00781 12.9375C1.00781 13.5703 1.48828 14.0039 2.10938 14.0039L3.09375 14.0039L8.69531 13.6758ZM8.00391 13.0078L3.9375 16.8516L0.328125 20.4609C0.117188 20.6719 0 20.9648 0 21.2695C0 21.9375 0.492188 22.3711 1.16016 22.3711C1.44141 22.3711 1.71094 22.2656 1.91016 22.0547L5.50781 18.4219L9.36328 14.3555C10.3008 13.3594 9.03516 12.0469 8.00391 13.0078Z" fill="black" fill-opacity="0.85"/>
 </g>
</svg>
