<?xml version="1.0" encoding="UTF-8"?>
<!--Generator: Apple Native CoreSVG 360-->
<!DOCTYPE svg
PUBLIC "-//W3C//DTD SVG 1.1//EN"
       "http://www.w3.org/Graphics/SVG/1.1/DTD/svg11.dtd">
<svg version="1.1" xmlns="http://www.w3.org/2000/svg" xmlns:xlink="http://www.w3.org/1999/xlink" viewBox="0 0 18.9961 19.1367">
 <g>
  <rect height="19.1367" opacity="0" width="18.9961" x="0" y="0"/>
  <path d="M18.6445 1.42969C18.6445 0.5625 17.9766 0.0234375 16.957 0.0234375L1.67578 0.0117188C0.65625 0.0117188 0 0.550781 0 1.41797C0 1.88672 0.210938 2.27344 0.445312 2.76562L7.75781 17.8242C8.25 18.8203 8.69531 19.1367 9.31641 19.1367C9.9375 19.1367 10.3945 18.8203 10.8867 17.8242L18.1875 2.76562C18.4336 2.28516 18.6445 1.89844 18.6445 1.42969ZM16.4062 2.02734C16.4062 2.07422 16.3828 2.12109 16.3594 2.17969L9.45703 16.5117C9.42188 16.5703 9.38672 16.6172 9.31641 16.6172C9.25781 16.6172 9.22266 16.5703 9.1875 16.5117L2.28516 2.16797C2.26172 2.10938 2.23828 2.0625 2.23828 2.01562C2.23828 1.94531 2.27344 1.89844 2.36719 1.89844L16.2656 1.91016C16.3594 1.91016 16.4062 1.95703 16.4062 2.02734Z" fill="black" fill-opacity="0.85"/>
 </g>
</svg>
