<?xml version="1.0" encoding="UTF-8"?>
<!--Generator: Apple Native CoreSVG 360-->
<!DOCTYPE svg
PUBLIC "-//W3C//DTD SVG 1.1//EN"
       "http://www.w3.org/Graphics/SVG/1.1/DTD/svg11.dtd">
<svg version="1.1" xmlns="http://www.w3.org/2000/svg" xmlns:xlink="http://www.w3.org/1999/xlink" viewBox="0 0 24.5977 17.7773">
 <g>
  <rect height="17.7773" opacity="0" width="24.5977" x="0" y="0"/>
  <path d="M23.1914 17.7656C23.8008 17.7656 24.2461 17.3555 24.2461 16.7578L24.2461 1.03125C24.2461 0.421875 23.8008 0 23.1914 0C22.582 0 22.1484 0.421875 22.1484 1.03125L22.1484 16.7578C22.1484 17.3555 22.582 17.7656 23.1914 17.7656ZM12.2227 1.00781C12.2227 1.28906 12.3281 1.57031 12.5039 1.74609L15.1289 4.41797L20.0273 8.88281L15.1289 13.3477L12.5039 16.0195C12.3281 16.1953 12.2227 16.4766 12.2227 16.7578C12.2227 17.3438 12.668 17.7656 13.2422 17.7656C13.5234 17.7656 13.7695 17.6719 14.0039 17.4492L21.7969 9.66797C22.0312 9.44531 22.1484 9.17578 22.1484 8.88281C22.1484 8.58984 22.0312 8.32031 21.7969 8.09766L14.0039 0.328125C13.7695 0.105469 13.5234 0 13.2422 0C12.668 0 12.2227 0.421875 12.2227 1.00781ZM20.1797 9.79688C20.6836 9.77344 21.0938 9.38672 21.0938 8.88281C21.0938 8.39062 20.6836 7.99219 20.1797 7.96875L16.4766 7.83984L1.03125 7.83984C0.421875 7.83984 0 8.27344 0 8.88281C0 9.49219 0.421875 9.92578 1.03125 9.92578L16.4766 9.92578Z" fill="black" fill-opacity="0.85"/>
 </g>
</svg>
