<?xml version="1.0" encoding="UTF-8"?>
<!--Generator: Apple Native CoreSVG 360-->
<!DOCTYPE svg
PUBLIC "-//W3C//DTD SVG 1.1//EN"
       "http://www.w3.org/Graphics/SVG/1.1/DTD/svg11.dtd">
<svg version="1.1" xmlns="http://www.w3.org/2000/svg" xmlns:xlink="http://www.w3.org/1999/xlink" viewBox="0 0 22.3477 18.5273">
 <g>
  <rect height="18.5273" opacity="0" width="22.3477" x="0" y="0"/>
  <path d="M19.8633 8.96484L14.9414 13.4531L12.3398 16.1016C12.1641 16.2891 12.0586 16.5703 12.0586 16.8516C12.0586 17.4375 12.5039 17.8594 13.0898 17.8594C13.3594 17.8594 13.6172 17.7539 13.8516 17.5312L21.6328 9.76172C21.8789 9.52734 21.9961 9.25781 21.9961 8.96484C21.9961 8.68359 21.8789 8.40234 21.6328 8.17969L13.875 0.433594C13.6172 0.175781 13.3594 0.0820312 13.0898 0.0820312C12.5039 0.0820312 12.0586 0.503906 12.0586 1.08984C12.0586 1.37109 12.1523 1.64062 12.3398 1.82812L14.9414 4.47656ZM19.8516 9.83203C20.332 9.80859 20.707 9.43359 20.707 8.96484C20.707 8.49609 20.3203 8.12109 19.8398 8.09766L16.0664 7.92188L7.82812 7.92188C2.27344 7.92188 0 10.3594 0 16.0312C0 16.7109 0.0234375 17.2969 0.105469 17.6484C0.199219 18.1289 0.480469 18.5273 1.10156 18.5273C1.71094 18.5273 2.15625 18.1055 2.15625 17.4844C2.14453 17.1094 2.13281 16.6523 2.12109 16.1367C2.12109 11.7891 3.63281 10.0195 7.93359 10.0195L16.0664 10.0195Z" fill="black" fill-opacity="0.85"/>
 </g>
</svg>
