<?xml version="1.0" encoding="UTF-8"?>
<!--Generator: Apple Native CoreSVG 360-->
<!DOCTYPE svg
PUBLIC "-//W3C//DTD SVG 1.1//EN"
       "http://www.w3.org/Graphics/SVG/1.1/DTD/svg11.dtd">
<svg version="1.1" xmlns="http://www.w3.org/2000/svg" xmlns:xlink="http://www.w3.org/1999/xlink" viewBox="0 0 25.1836 21.457">
 <g>
  <rect height="21.457" opacity="0" width="25.1836" x="0" y="0"/>
  <path d="M24.832 3.55078L24.832 17.8359C24.832 20.2852 23.6367 21.457 21.1523 21.457L3.67969 21.457C1.20703 21.457 0 20.2852 0 17.8359L0 12.1055C0 10.4297 0.46875 9.52734 1.81641 8.50781L10.9219 1.58203C12.4688 0.421875 13.6641 0.0117188 15.5742 0.0117188L21.2578 0.0117188C23.625 0.0117188 24.832 1.20703 24.832 3.55078ZM14.2852 12.832C13.6523 12.832 13.3828 13.3359 13.7227 13.8867L16.2539 18.0469C16.582 18.5859 17.2031 18.5742 17.5195 18.0469L20.0742 13.8867C20.4141 13.3359 20.1211 12.832 19.5 12.832ZM15.5742 1.89844C14.0742 1.89844 13.207 2.15625 12.2109 2.95312L3.48047 9.63281C3 9.98438 3.12891 10.6523 3.75 10.6523L21.2227 10.6523C22.3008 10.6523 22.9453 10.0312 22.9453 8.90625L22.9453 3.64453C22.9453 2.50781 22.3125 1.89844 21.2227 1.89844Z" fill="black" fill-opacity="0.85"/>
  <path d="M17.5195 3.70312L20.0742 7.86328C20.4141 8.41406 20.1211 8.91797 19.5 8.91797L14.2852 8.91797C13.6523 8.91797 13.3828 8.41406 13.7227 7.86328L16.2539 3.70312C16.582 3.16406 17.2031 3.17578 17.5195 3.70312Z" fill="black" fill-opacity="0.85"/>
 </g>
</svg>
