<?xml version="1.0" encoding="UTF-8"?>
<!--Generator: Apple Native CoreSVG 360-->
<!DOCTYPE svg
PUBLIC "-//W3C//DTD SVG 1.1//EN"
       "http://www.w3.org/Graphics/SVG/1.1/DTD/svg11.dtd">
<svg version="1.1" xmlns="http://www.w3.org/2000/svg" xmlns:xlink="http://www.w3.org/1999/xlink" viewBox="0 0 22.3477 19.6992">
 <g>
  <rect height="19.6992" opacity="0" width="22.3477" x="0" y="0"/>
  <path d="M19.8633 9.55078L14.9414 14.0391L12.3398 16.6875C12.1523 16.8867 12.0586 17.1562 12.0586 17.4375C12.0586 18.0234 12.5039 18.4453 13.0898 18.4453C13.3594 18.4453 13.6172 18.3398 13.875 18.0938L21.6328 10.3477C21.8789 10.1133 21.9961 9.84375 21.9961 9.55078C21.9961 9.26953 21.8789 8.98828 21.6328 8.76562L13.8516 0.984375C13.6172 0.761719 13.3594 0.667969 13.0898 0.667969C12.5039 0.667969 12.0586 1.08984 12.0586 1.67578C12.0586 1.95703 12.1641 2.22656 12.3398 2.41406L14.9414 5.0625ZM19.8516 8.69531L16.0664 8.50781L7.93359 8.50781C3.63281 8.50781 2.12109 6.73828 2.12109 2.39062C2.13281 1.86328 2.14453 1.41797 2.15625 1.03125C2.15625 0.421875 1.71094 0 1.10156 0C0.480469 0 0.199219 0.398438 0.105469 0.867188C0.0234375 1.23047 0 1.80469 0 2.49609C0 8.16797 2.27344 10.6055 7.82812 10.6055L16.0664 10.6055L19.8398 10.4297C20.3203 10.4062 20.707 10.0312 20.707 9.55078C20.707 9.09375 20.332 8.71875 19.8516 8.69531Z" fill="black" fill-opacity="0.85"/>
 </g>
</svg>
