<?xml version="1.0" encoding="UTF-8"?>
<!--Generator: Apple Native CoreSVG 360-->
<!DOCTYPE svg
PUBLIC "-//W3C//DTD SVG 1.1//EN"
       "http://www.w3.org/Graphics/SVG/1.1/DTD/svg11.dtd">
<svg version="1.1" xmlns="http://www.w3.org/2000/svg" xmlns:xlink="http://www.w3.org/1999/xlink" viewBox="0 0 42.1641 18.9258">
 <g>
  <rect height="18.9258" opacity="0" width="42.1641" x="0" y="0"/>
  <path d="M41.8125 9.45703C41.8125 9.17578 41.6953 8.84766 41.3906 8.55469L35.8945 3.41016C35.5078 3.05859 35.2148 2.85938 34.8047 2.85938C34.207 2.85938 33.7734 3.36328 33.7734 3.92578L33.7734 6.33984L28.3359 6.33984C27.1055 6.33984 26.3789 7.06641 26.3789 8.26172L26.3789 10.6523C26.3789 11.8594 27.1055 12.5742 28.3359 12.5742L33.7734 12.5742L33.7734 15.0352C33.7734 15.6094 34.207 16.0547 34.793 16.0547C35.1914 16.0547 35.543 15.8789 35.8945 15.5508L41.3906 10.3594C41.6836 10.0664 41.8125 9.73828 41.8125 9.45703ZM28.3477 11.0977C28.043 11.0977 27.8555 10.9102 27.8555 10.6172L27.8555 8.30859C27.8555 8.00391 28.043 7.81641 28.3477 7.81641L34.8633 7.81641C35.1445 7.81641 35.3086 7.65234 35.3086 7.37109L35.3086 4.86328L39.8672 9.21094C39.9609 9.29297 39.9961 9.36328 39.9961 9.45703C39.9961 9.53906 39.9609 9.62109 39.8672 9.71484L35.3086 14.0039L35.3086 11.5547C35.3086 11.2734 35.1445 11.0977 34.8633 11.0977Z" fill="black" fill-opacity="0.85"/>
  <path d="M16.7344 1.65234L24.9141 1.65234C25.3711 1.65234 25.7461 1.28906 25.7461 0.832031C25.7461 0.375 25.3711 0 24.9141 0L16.7344 0C16.2773 0 15.9141 0.375 15.9141 0.832031C15.9141 1.28906 16.2773 1.65234 16.7344 1.65234ZM16.7109 18.9141L24.9609 18.9141C25.418 18.9141 25.7812 18.5391 25.7812 18.082C25.7812 17.625 25.418 17.2617 24.9609 17.2617L16.7109 17.2617C16.2539 17.2617 15.8789 17.625 15.8789 18.082C15.8789 18.5391 16.2539 18.9141 16.7109 18.9141ZM18.7617 15.6914C19.3008 15.6914 19.7344 15.2578 19.7344 14.7188C19.7344 14.1797 19.3008 13.7461 18.7617 13.7461C18.2227 13.7461 17.7891 14.1797 17.7891 14.7188C17.7891 15.2578 18.2227 15.6914 18.7617 15.6914ZM18.7617 12.1875C19.3008 12.1875 19.7344 11.7539 19.7344 11.2148C19.7344 10.6641 19.3008 10.2305 18.7617 10.2305C18.2227 10.2305 17.7891 10.6641 17.7891 11.2148C17.7891 11.7539 18.2227 12.1875 18.7617 12.1875ZM22.957 15.6914C23.5078 15.6914 23.9414 15.2578 23.9414 14.7188C23.9414 14.1797 23.5078 13.7461 22.957 13.7461C22.418 13.7461 21.9844 14.1797 21.9844 14.7188C21.9844 15.2578 22.418 15.6914 22.957 15.6914ZM18.7617 8.67188C19.3008 8.67188 19.7344 8.23828 19.7344 7.69922C19.7344 7.16016 19.3008 6.72656 18.7617 6.72656C18.2227 6.72656 17.7891 7.16016 17.7891 7.69922C17.7891 8.23828 18.2227 8.67188 18.7617 8.67188ZM22.957 12.1875C23.5078 12.1875 23.9414 11.7539 23.9414 11.2148C23.9414 10.6641 23.5078 10.2305 22.957 10.2305C22.418 10.2305 21.9844 10.6641 21.9844 11.2148C21.9844 11.7539 22.418 12.1875 22.957 12.1875ZM18.7617 5.16797C19.3008 5.16797 19.7344 4.73438 19.7344 4.19531C19.7344 3.65625 19.3008 3.21094 18.7617 3.21094C18.2227 3.21094 17.7891 3.65625 17.7891 4.19531C17.7891 4.73438 18.2227 5.16797 18.7617 5.16797ZM22.957 8.67188C23.5078 8.67188 23.9414 8.23828 23.9414 7.69922C23.9414 7.16016 23.5078 6.72656 22.957 6.72656C22.418 6.72656 21.9844 7.16016 21.9844 7.69922C21.9844 8.23828 22.418 8.67188 22.957 8.67188ZM22.957 5.16797C23.5078 5.16797 23.9414 4.73438 23.9414 4.19531C23.9414 3.65625 23.5078 3.21094 22.957 3.21094C22.418 3.21094 21.9844 3.65625 21.9844 4.19531C21.9844 4.73438 22.418 5.16797 22.957 5.16797Z" fill="black" fill-opacity="0.85"/>
  <path d="M1.95703 12.5742L10.0664 12.5742C11.2969 12.5742 12.0234 11.8594 12.0234 10.6523L12.0234 8.26172C12.0234 7.06641 11.2969 6.33984 10.0664 6.33984L1.95703 6.33984C0.726562 6.33984 0 7.06641 0 8.26172L0 10.6523C0 11.8594 0.726562 12.5742 1.95703 12.5742ZM7.39453 3.92578L7.39453 15.0352C7.39453 15.6094 7.81641 16.0547 8.41406 16.0547C8.8125 16.0547 9.16406 15.8789 9.50391 15.5508L15 10.3594C15.3047 10.0664 15.4336 9.73828 15.4336 9.45703C15.4336 9.17578 15.3164 8.84766 15 8.55469L9.50391 3.41016C9.12891 3.05859 8.83594 2.85938 8.42578 2.85938C7.81641 2.85938 7.39453 3.36328 7.39453 3.92578Z" fill="black" fill-opacity="0.85"/>
 </g>
</svg>
