<?xml version="1.0" encoding="UTF-8"?>
<!--Generator: Apple Native CoreSVG 360-->
<!DOCTYPE svg
PUBLIC "-//W3C//DTD SVG 1.1//EN"
       "http://www.w3.org/Graphics/SVG/1.1/DTD/svg11.dtd">
<svg version="1.1" xmlns="http://www.w3.org/2000/svg" xmlns:xlink="http://www.w3.org/1999/xlink" viewBox="0 0 27.7969 29.6254">
 <g>
  <rect height="29.6254" opacity="0" width="27.7969" x="0" y="0"/>
  <path d="M1.76953 25.4826L11.0273 25.4826C12.4102 25.4826 13.043 24.8615 13.043 23.467L13.043 9.46311C13.043 8.43186 12.2812 7.88108 11.4492 7.88108C10.8867 7.88108 10.3359 8.13889 9.96094 8.67795L0.363281 22.6936C0.105469 23.0686 0 23.5022 0 23.9006C0 24.7561 0.5625 25.4826 1.76953 25.4826ZM2.50781 23.5725C2.35547 23.5725 2.33203 23.4436 2.40234 23.3381L10.9219 10.4475C10.9922 10.342 11.1211 10.3772 11.1211 10.5061L11.1211 23.2326C11.1211 23.5022 11.0508 23.5725 10.7695 23.5725ZM25.6758 25.4826C26.8945 25.4826 27.4453 24.7561 27.4453 23.9006C27.4453 23.5022 27.3398 23.0686 27.082 22.6936L17.4961 8.67795C17.1094 8.13889 16.5703 7.88108 16.0078 7.88108C15.1758 7.88108 14.4141 8.43186 14.4141 9.46311L14.4141 23.467C14.4141 24.8615 15.0352 25.4826 16.4297 25.4826ZM24.9375 23.5725L16.6758 23.5725C16.4062 23.5725 16.3359 23.5022 16.3359 23.2326L16.3359 10.5061C16.3359 10.3772 16.4648 10.342 16.5234 10.4475L25.043 23.3381C25.125 23.4436 25.1016 23.5725 24.9375 23.5725Z" fill="black" fill-opacity="0.85"/>
  <path d="M20.8477 0.849828L20.8477 5.53733C20.8477 6.35764 21.6328 6.65061 22.2773 6.15842L25.418 3.81467C25.8398 3.48655 25.8281 2.87717 25.418 2.57248L22.2773 0.240453C21.6328-0.251734 20.8477 0.0412345 20.8477 0.849828ZM6.60938 5.53733L6.60938 0.849828C6.60938 0.0412345 5.82422-0.251734 5.17969 0.240453L2.03906 2.57248C1.60547 2.88889 1.60547 3.48655 2.03906 3.81467L5.17969 6.15842C5.80078 6.62717 6.60938 6.38108 6.60938 5.53733ZM22.4297 3.88498C22.793 3.88498 23.1094 3.5803 23.1094 3.19358C23.1094 2.8303 22.793 2.52561 22.4297 2.52561L5.01562 2.52561C4.64062 2.52561 4.33594 2.8303 4.33594 3.19358C4.33594 3.5803 4.64062 3.88498 5.01562 3.88498Z" fill="black" fill-opacity="0.85"/>
 </g>
</svg>
