<?xml version="1.0" encoding="UTF-8"?>
<!--Generator: Apple Native CoreSVG 360-->
<!DOCTYPE svg
PUBLIC "-//W3C//DTD SVG 1.1//EN"
       "http://www.w3.org/Graphics/SVG/1.1/DTD/svg11.dtd">
<svg version="1.1" xmlns="http://www.w3.org/2000/svg" xmlns:xlink="http://www.w3.org/1999/xlink" viewBox="0 0 23.625 22.2305">
 <g>
  <rect height="22.2305" opacity="0" width="23.625" x="0" y="0"/>
  <path d="M0 7.79297C0 12.7852 4.18359 17.6953 10.793 21.9141C11.0391 22.0664 11.3906 22.2305 11.6367 22.2305C11.8828 22.2305 12.2344 22.0664 12.4922 21.9141C19.0898 17.6953 23.2734 12.7852 23.2734 7.79297C23.2734 3.64453 20.4258 0.714844 16.6289 0.714844C14.4609 0.714844 12.7031 1.74609 11.6367 3.32812C10.5938 1.75781 8.8125 0.714844 6.64453 0.714844C2.84766 0.714844 0 3.64453 0 7.79297ZM1.88672 7.79297C1.88672 4.67578 3.90234 2.60156 6.62109 2.60156C8.82422 2.60156 10.0898 3.97266 10.8398 5.14453C11.1562 5.61328 11.3555 5.74219 11.6367 5.74219C11.918 5.74219 12.0938 5.60156 12.4336 5.14453C13.2422 3.99609 14.4609 2.60156 16.6523 2.60156C19.3711 2.60156 21.3867 4.67578 21.3867 7.79297C21.3867 12.1523 16.7812 16.8516 11.8828 20.1094C11.7656 20.1914 11.6836 20.25 11.6367 20.25C11.5898 20.25 11.5078 20.1914 11.4023 20.1094C6.49219 16.8516 1.88672 12.1523 1.88672 7.79297Z" fill="black" fill-opacity="0.85"/>
  <path d="M10.875 7.08984L10.875 10.8047C10.875 11.25 11.3789 11.4375 11.7305 11.1328L13.7109 9.42188C14.0391 9.12891 14.0273 8.70703 13.7109 8.4375L11.7305 6.75C11.3789 6.46875 10.875 6.63281 10.875 7.08984ZM11.6484 16.7109C14.0273 16.7109 15.9492 14.7891 15.9492 12.3984C15.9492 12.0469 15.6445 11.7539 15.2812 11.7539C14.918 11.7539 14.6133 12.0469 14.6133 12.3984C14.6133 14.0508 13.2891 15.3867 11.6484 15.3867C9.99609 15.3867 8.67188 14.0508 8.67188 12.375C8.67188 10.6875 9.99609 9.35156 11.6484 9.35156C12.0117 9.35156 12.3047 9.04688 12.3047 8.68359C12.3047 8.33203 12.0117 8.02734 11.6484 8.02734C9.26953 8.02734 7.34766 9.94922 7.34766 12.375C7.34766 14.7891 9.26953 16.7109 11.6484 16.7109Z" fill="black" fill-opacity="0.85"/>
 </g>
</svg>
