<?xml version="1.0" encoding="UTF-8"?>
<!--Generator: Apple Native CoreSVG 360-->
<!DOCTYPE svg
PUBLIC "-//W3C//DTD SVG 1.1//EN"
       "http://www.w3.org/Graphics/SVG/1.1/DTD/svg11.dtd">
<svg version="1.1" xmlns="http://www.w3.org/2000/svg" xmlns:xlink="http://www.w3.org/1999/xlink" viewBox="0 0 27.9844 26.7206">
 <g>
  <rect height="26.7206" opacity="0" width="27.9844" x="0" y="0"/>
  <path d="M6.67969 0.838816L6.67969 6.206C6.67969 7.03803 7.25391 7.26069 7.89844 6.80366L11.6367 4.17866C12.1641 3.80366 12.1758 3.24116 11.6367 2.86616L7.91016 0.24116C7.25391-0.22759 6.67969-0.0049341 6.67969 0.838816ZM6.90234 4.47163C7.41797 4.47163 7.83984 4.03803 7.83984 3.52241C7.83984 3.00678 7.41797 2.58491 6.90234 2.58491L3.67969 2.58491C1.23047 2.58491 0 3.79194 0 6.21772L0 20.5263C0 22.9521 1.23047 24.1591 3.67969 24.1591L23.9531 24.1591C26.4141 24.1591 27.6328 22.9404 27.6328 20.5263L27.6328 6.21772C27.6328 3.80366 26.4141 2.58491 23.9531 2.58491L15.75 2.58491C15.2344 2.58491 14.8008 3.00678 14.8008 3.52241C14.8008 4.03803 15.2344 4.47163 15.75 4.47163L23.9297 4.47163C25.0898 4.47163 25.7461 5.09272 25.7461 6.31147L25.7461 20.4326C25.7461 21.6513 25.0898 22.2724 23.9297 22.2724L3.70312 22.2724C2.53125 22.2724 1.88672 21.6513 1.88672 20.4326L1.88672 6.31147C1.88672 5.09272 2.53125 4.47163 3.70312 4.47163Z" fill="black" fill-opacity="0.85"/>
 </g>
</svg>
