<?xml version="1.0" encoding="UTF-8"?>
<!--Generator: Apple Native CoreSVG 360-->
<!DOCTYPE svg
PUBLIC "-//W3C//DTD SVG 1.1//EN"
       "http://www.w3.org/Graphics/SVG/1.1/DTD/svg11.dtd">
<svg version="1.1" xmlns="http://www.w3.org/2000/svg" xmlns:xlink="http://www.w3.org/1999/xlink" viewBox="0 0 21.9216 22.957">
 <g>
  <rect height="22.957" opacity="0" width="21.9216" x="0" y="0"/>
  <path d="M2.88656 6.65625L6.03891 2.30859C6.53109 1.62891 6.19125 1.11328 5.40609 1.10156L0.8475 1.03125C0.19125 1.01953-0.148594 1.47656 0.0623438 2.09766L1.53891 6.41016C1.79672 7.17188 2.38266 7.32422 2.88656 6.65625ZM9.78891 21.9609C9.78891 22.5117 10.2342 22.957 10.785 22.957C11.3358 22.957 11.7928 22.5117 11.7928 21.9609L11.7928 15.1172C11.7928 9.96094 8.89828 5.51953 3.83578 2.75391C3.22641 2.41406 2.67563 2.74219 2.45297 3.21094C2.25375 3.64453 2.33578 4.20703 2.86313 4.51172C7.35141 6.94922 9.78891 10.7461 9.78891 15.1172ZM18.6834 6.65625C19.1756 7.32422 19.7733 7.17188 20.0311 6.41016L21.4959 2.09766C21.7186 1.47656 21.3788 1.01953 20.7342 1.03125L16.1639 1.10156C15.367 1.11328 15.0389 1.62891 15.5311 2.30859ZM11.7928 21.9609L11.7928 15.1172C11.7928 10.7461 14.2303 6.94922 18.7186 4.51172C19.2459 4.20703 19.3163 3.64453 19.117 3.21094C18.8944 2.74219 18.3553 2.41406 17.7459 2.75391C12.6717 5.51953 9.78891 9.96094 9.78891 15.1172L9.78891 21.9609C9.78891 22.5117 10.2342 22.957 10.785 22.957C11.3358 22.957 11.7928 22.5117 11.7928 21.9609Z" fill="black" fill-opacity="0.85"/>
 </g>
</svg>
