<?xml version="1.0" encoding="UTF-8"?>
<!--Generator: Apple Native CoreSVG 360-->
<!DOCTYPE svg
PUBLIC "-//W3C//DTD SVG 1.1//EN"
       "http://www.w3.org/Graphics/SVG/1.1/DTD/svg11.dtd">
<svg version="1.1" xmlns="http://www.w3.org/2000/svg" xmlns:xlink="http://www.w3.org/1999/xlink" viewBox="0 0 23.0391 28.1836">
 <g>
  <rect height="28.1836" opacity="0" width="23.0391" x="0" y="0"/>
  <path d="M16.4648 2.73047L16.4648 4.52344L21.8203 4.52344C22.3008 4.52344 22.6875 4.92188 22.6875 5.40234C22.6875 5.88281 22.3008 6.29297 21.8203 6.29297L20.4141 6.29297L19.6055 23.332C19.5234 25.0078 18.3984 26.0977 16.7227 26.0977L5.97656 26.0977C4.27734 26.0977 3.17578 25.0195 3.09375 23.3438L2.27356 6.29297L0.878906 6.29297C0.410156 6.29297 0 5.89453 0 5.40234C0 4.92188 0.410156 4.52344 0.878906 4.52344L6.19922 4.52344L6.19922 2.73047C6.19922 1.03125 7.30078 0 9.10547 0L13.5586 0C15.3633 0 16.4648 1.03125 16.4648 2.73047ZM10.7109 10.4648L7.40625 13.6641C7.24219 13.8047 7.14844 14.0039 7.14844 14.2266C7.14844 14.6836 7.48828 15.0117 7.93359 15.0117C8.14453 15.0117 8.39062 14.9062 8.54297 14.7422L10.0664 13.1016L10.5284 12.6269L10.4648 13.9453L10.4648 19.5938C10.4648 20.0391 10.8867 20.4375 11.3438 20.4375C11.8008 20.4375 12.2109 20.0391 12.2109 19.5938L12.2109 13.9453L12.1472 12.6222L12.6094 13.1016L14.1328 14.7422C14.2969 14.9062 14.5195 15.0117 14.7305 15.0117C15.1758 15.0117 15.5273 14.6836 15.5273 14.2266C15.5273 14.0039 15.4336 13.8164 15.2695 13.6641L11.9648 10.4648C11.7422 10.2539 11.5547 10.1836 11.3438 10.1836C11.1211 10.1836 10.9336 10.2539 10.7109 10.4648ZM9.23438 1.74609C8.53125 1.74609 8.0625 2.17969 8.0625 2.84766L8.0625 4.52344L14.6016 4.52344L14.6016 2.84766C14.6016 2.17969 14.1328 1.74609 13.4297 1.74609Z" fill="black" fill-opacity="0.85"/>
 </g>
</svg>
