<?xml version="1.0" encoding="UTF-8"?>
<!--Generator: Apple Native CoreSVG 360-->
<!DOCTYPE svg
PUBLIC "-//W3C//DTD SVG 1.1//EN"
       "http://www.w3.org/Graphics/SVG/1.1/DTD/svg11.dtd">
<svg version="1.1" xmlns="http://www.w3.org/2000/svg" xmlns:xlink="http://www.w3.org/1999/xlink" viewBox="0 0 31.3359 21.8086">
 <g>
  <rect height="21.8086" opacity="0" width="31.3359" x="0" y="0"/>
  <path d="M10.5234 21.8086C11.0508 21.8086 11.3672 21.5508 11.4844 21.082C12.75 17.168 14.7656 15.7852 18.0938 15.7852L18.5156 15.7969L18.5156 20.2734C18.5156 21.0586 19.0898 21.6445 19.8867 21.6445C20.4609 21.6445 20.9297 21.4102 21.4922 20.8828L30.75 12.1523C31.1953 11.7305 31.3359 11.2852 31.3359 10.8984C31.3359 10.5 31.1953 10.0547 30.75 9.63281L21.4922 0.984375C20.8711 0.398438 20.4844 0.140625 19.9102 0.140625C19.0898 0.140625 18.5156 0.796875 18.5156 1.58203L18.5156 6.01172L18.1758 6.01172C14.4961 6.01172 11.2969 8.19141 10.5703 12.5742L10.4414 12.5742C9.63281 7.72266 6.30469 6.01172 3.15234 6.01172C3.09375 6.01172 2.90625 6.01172 2.49609 6.01172C0.878906 6.01172 0.234375 6.62109 0.234375 8.36719L0.234375 13.9688C0.234375 15.293 0.867188 15.8555 2.39062 15.8555C2.74219 15.8555 3.05859 15.8555 3.42188 15.8555C6.62109 15.8555 8.73047 17.9883 9.57422 21.0703C9.67969 21.5508 9.98438 21.8086 10.5234 21.8086ZM9.90234 18.4453C8.58984 15.1172 6.21094 14.0391 3.28125 14.0156C3.04688 14.0156 2.80078 14.0156 2.57812 14.0156C2.28516 14.0156 2.12109 13.8398 2.12109 13.5L2.12109 8.36719C2.12109 8.02734 2.28516 7.83984 2.60156 7.83984C2.83594 7.83984 3.02344 7.83984 3.25781 7.83984C6.79688 7.88672 9.80859 10.3828 10.0312 18.4453ZM20.5664 19.125C20.4609 19.125 20.4023 19.0547 20.4023 18.9492L20.4023 14.4141C20.4023 14.1445 20.2734 14.0273 20.0039 14.0273L18.0352 14.0156C14.6133 14.0156 12.3516 15.3867 11.1562 18.4453L11.0273 18.4453C11.2148 11.2734 13.8281 7.78125 18.2344 7.78125L20.0039 7.78125C20.2734 7.78125 20.4023 7.66406 20.4023 7.39453L20.4023 2.74219C20.4023 2.64844 20.4727 2.57812 20.5664 2.57812C20.6484 2.57812 20.707 2.625 20.7656 2.67188L29.1094 10.6758C29.2031 10.7578 29.2383 10.8281 29.2383 10.8984C29.2383 10.9688 29.2031 11.0273 29.1094 11.1211L20.7656 19.0195C20.6953 19.0898 20.625 19.125 20.5664 19.125Z" fill="black" fill-opacity="0.85"/>
 </g>
</svg>
