<?xml version="1.0" encoding="UTF-8"?>
<!--Generator: Apple Native CoreSVG 360-->
<!DOCTYPE svg
PUBLIC "-//W3C//DTD SVG 1.1//EN"
       "http://www.w3.org/Graphics/SVG/1.1/DTD/svg11.dtd">
<svg version="1.1" xmlns="http://www.w3.org/2000/svg" xmlns:xlink="http://www.w3.org/1999/xlink" viewBox="0 0 22.207 28.3477">
 <g>
  <rect height="28.3477" opacity="0" width="22.207" x="0" y="0"/>
  <path d="M10.9336 27.9141C11.2148 27.9141 11.4961 27.7852 11.7188 27.5508L16.4297 22.8281C16.6641 22.582 16.7812 22.3242 16.7812 22.0312C16.7812 21.457 16.3477 21.0117 15.7617 21.0117C15.4805 21.0117 15.2109 21.0938 15.0117 21.3047L10.9336 25.6758L6.85547 21.3047C6.65625 21.0938 6.38672 21.0117 6.10547 21.0117C5.51953 21.0117 5.08594 21.457 5.08594 22.0312C5.08594 22.3242 5.20312 22.582 5.4375 22.8281L10.1484 27.5508C10.3711 27.7852 10.6406 27.9141 10.9336 27.9141ZM11.8945 25.3125L11.9766 22.207L11.9766 17.25C11.9766 16.6289 11.543 16.207 10.9336 16.207C10.3242 16.207 9.87891 16.6289 9.87891 17.25L9.87891 22.207L9.97266 25.3125C9.98438 25.8516 10.3945 26.2734 10.9336 26.2734C11.4727 26.2734 11.8828 25.8516 11.8945 25.3125Z" fill="black" fill-opacity="0.85"/>
  <path d="M0 13.957C0 14.5664 0.421875 15 1.03125 15L20.8359 15C21.4336 15 21.8555 14.5664 21.8555 13.957C21.8555 13.3477 21.4336 12.9023 20.8359 12.9023L1.03125 12.9023C0.421875 12.9023 0 13.3477 0 13.957Z" fill="black" fill-opacity="0.85"/>
  <path d="M11.8945 2.58984C11.8828 2.0625 11.4727 1.64062 10.9336 1.64062C10.3945 1.64062 9.98438 2.0625 9.97266 2.58984L9.87891 5.70703L9.87891 10.6523C9.87891 11.2734 10.3242 11.6953 10.9336 11.6953C11.543 11.6953 11.9766 11.2734 11.9766 10.6523L11.9766 5.70703ZM10.9336 0C10.6406 0 10.3711 0.117188 10.1484 0.351562L5.4375 5.08594C5.20312 5.33203 5.08594 5.57812 5.08594 5.87109C5.08594 6.44531 5.51953 6.89062 6.10547 6.89062C6.38672 6.89062 6.65625 6.82031 6.85547 6.59766L10.9336 2.22656L15.0117 6.59766C15.2109 6.82031 15.4805 6.89062 15.7617 6.89062C16.3477 6.89062 16.7812 6.44531 16.7812 5.87109C16.7812 5.57812 16.6641 5.33203 16.4297 5.08594L11.7188 0.351562C11.4961 0.117188 11.2148 0 10.9336 0Z" fill="black" fill-opacity="0.85"/>
 </g>
</svg>
