<?xml version="1.0" encoding="UTF-8"?>
<!--Generator: Apple Native CoreSVG 360-->
<!DOCTYPE svg
PUBLIC "-//W3C//DTD SVG 1.1//EN"
       "http://www.w3.org/Graphics/SVG/1.1/DTD/svg11.dtd">
<svg version="1.1" xmlns="http://www.w3.org/2000/svg" xmlns:xlink="http://www.w3.org/1999/xlink" viewBox="0 0 30.2839 25.1367">
 <g>
  <rect height="25.1367" opacity="0" width="30.2839" x="0" y="0"/>
  <path d="M10.2201 21.457C10.2201 23.9062 11.4388 25.125 13.8529 25.125L26.2982 25.125C28.724 25.125 29.931 23.9062 29.931 21.457L29.931 3.67969C29.931 1.24219 28.724 0 26.2982 0L13.8529 0C11.4388 0 10.2201 1.24219 10.2201 3.67969ZM12.1068 21.4219L12.1068 3.71484C12.1068 2.54297 12.7396 1.88672 13.9583 1.88672L26.2044 1.88672C27.4232 1.88672 28.0443 2.54297 28.0443 3.71484L28.0443 21.4219C28.0443 22.5938 27.4232 23.2383 26.2044 23.2383L13.9583 23.2383C12.7396 23.2383 12.1068 22.5938 12.1068 21.4219Z" fill="black" fill-opacity="0.85"/>
  <path d="M25.7474 18.1406C26.181 18.1406 26.4857 17.918 26.4857 17.4492L26.4857 6.73828C26.4857 6.28125 26.181 6.04688 25.7474 6.04688C24.4701 6.04688 21.1419 7.98047 21.1419 12.0938C21.1419 16.207 24.4701 18.1406 25.7474 18.1406ZM16.8998 15.1055C18.7748 15.1055 20.1927 13.7695 20.181 12.0938C20.1693 10.4297 18.7748 9.08203 16.8998 9.08203C15.1419 9.08203 13.6771 10.4297 13.6771 12.0938C13.6771 13.7695 15.1419 15.1055 16.8998 15.1055Z" fill="black" fill-opacity="0.85"/>
  <path d="M4.78257 17.2617L4.78257 10.1602C4.78257 9.64453 4.38413 9.24609 3.8685 9.24609C3.35288 9.24609 2.94272 9.64453 2.94272 10.1602L2.94272 17.2617C2.94272 17.7773 3.35288 18.1758 3.8685 18.1758C4.38413 18.1758 4.78257 17.7773 4.78257 17.2617ZM0.950535 12.1289L6.7396 12.1289C7.66538 12.1289 7.98178 11.2031 7.41928 10.582L4.51303 7.30078C4.12632 6.85547 3.57553 6.85547 3.1771 7.30078L0.282566 10.582C-0.303371 11.2383 0.0716287 12.1289 0.950535 12.1289Z" fill="black" fill-opacity="0.85"/>
 </g>
</svg>
