<?xml version="1.0" encoding="UTF-8"?>
<!--Generator: Apple Native CoreSVG 360-->
<!DOCTYPE svg
PUBLIC "-//W3C//DTD SVG 1.1//EN"
       "http://www.w3.org/Graphics/SVG/1.1/DTD/svg11.dtd">
<svg version="1.1" xmlns="http://www.w3.org/2000/svg" xmlns:xlink="http://www.w3.org/1999/xlink" viewBox="0 0 22.2188 22.2773">
 <g>
  <rect height="22.2773" opacity="0" width="22.2188" x="0" y="0"/>
  <path d="M14.0039 0.0703125C13.7109 0.0703125 13.4414 0.175781 13.2188 0.410156L6.45703 7.30078C6.25781 7.5 6.12891 7.80469 6.12891 8.0625C6.12891 8.68359 6.5625 9.10547 7.16016 9.10547C7.46484 9.10547 7.69922 9 7.88672 8.8125L11.1797 5.4375L14.0039 2.12109L16.8281 5.4375L20.1211 8.8125C20.3086 9 20.543 9.10547 20.8359 9.10547C21.4453 9.10547 21.8672 8.68359 21.8672 8.0625C21.8672 7.80469 21.75 7.5 21.5508 7.30078L14.7891 0.410156C14.5664 0.175781 14.2852 0.0703125 14.0039 0.0703125ZM1.04297 10.3125C0.46875 10.3125 0 10.7344 0 11.3789L0 14.0859C0 19.3359 2.98828 22.2773 7.47656 22.2773C11.9648 22.2773 15.0469 19.2539 15.0469 13.8984L15.0469 5.96484L14.8711 2.08594C14.8477 1.59375 14.4844 1.20703 14.0039 1.20703C13.5117 1.20703 13.1484 1.59375 13.125 2.08594L12.9609 5.96484L12.9609 14.0742C12.9609 18.0703 10.7461 20.1914 7.59375 20.1914C4.44141 20.1914 2.08594 18.0703 2.08594 14.0742L2.08594 11.3789C2.08594 10.7344 1.61719 10.3125 1.04297 10.3125Z" fill="black" fill-opacity="0.85"/>
 </g>
</svg>
