<?xml version="1.0" encoding="UTF-8"?>
<!--Generator: Apple Native CoreSVG 360-->
<!DOCTYPE svg
PUBLIC "-//W3C//DTD SVG 1.1//EN"
       "http://www.w3.org/Graphics/SVG/1.1/DTD/svg11.dtd">
<svg version="1.1" xmlns="http://www.w3.org/2000/svg" xmlns:xlink="http://www.w3.org/1999/xlink" viewBox="0 0 15.1172 26.0977">
 <g>
  <rect height="26.0977" opacity="0" width="15.1172" x="0" y="0"/>
  <path d="M1.45312 26.0977L13.3125 26.0977C14.2969 26.0977 14.7656 25.5234 14.7656 24.8438C14.7656 24.5508 14.6719 24.2227 14.5078 23.9531L8.70703 13.9922C8.26172 13.2305 7.92188 12.9141 7.38281 12.9141C6.84375 12.9141 6.50391 13.2305 6.05859 13.9922L0.246094 23.9531C0.09375 24.2227 0 24.5508 0 24.8438C0 25.5234 0.46875 26.0977 1.45312 26.0977ZM2.51953 24.3164C2.28516 24.3164 2.20312 24.1406 2.32031 23.9531L7.19531 15.6445C7.3125 15.4688 7.46484 15.4688 7.58203 15.6445L12.4453 23.9531C12.5625 24.1406 12.4805 24.3164 12.2461 24.3164Z" fill="black" fill-opacity="0.85"/>
  <path d="M1.45312 13.2305L13.3125 13.2305C14.2969 13.2305 14.7656 12.6445 14.7656 11.9766C14.7656 11.6836 14.6719 11.3555 14.5078 11.0742L8.70703 1.11328C8.27344 0.363281 7.92188 0.046875 7.38281 0.046875C6.84375 0.046875 6.49219 0.363281 6.05859 1.11328L0.246094 11.0742C0.09375 11.3555 0 11.6836 0 11.9766C0 12.6445 0.46875 13.2305 1.45312 13.2305ZM2.51953 11.4492C2.27344 11.4492 2.20312 11.2734 2.32031 11.0859L7.19531 2.77734C7.3125 2.58984 7.46484 2.58984 7.58203 2.77734L12.4453 11.0859C12.5625 11.2734 12.4805 11.4492 12.2461 11.4492Z" fill="black" fill-opacity="0.85"/>
 </g>
</svg>
