<?xml version="1.0" encoding="UTF-8"?>
<!--Generator: Apple Native CoreSVG 360-->
<!DOCTYPE svg
PUBLIC "-//W3C//DTD SVG 1.1//EN"
       "http://www.w3.org/Graphics/SVG/1.1/DTD/svg11.dtd">
<svg version="1.1" xmlns="http://www.w3.org/2000/svg" xmlns:xlink="http://www.w3.org/1999/xlink" viewBox="0 0 28.1034 23.918">
 <g>
  <rect height="23.918" opacity="0" width="28.1034" x="0" y="0"/>
  <path d="M27.2646 9.69141L21.8974 9.69141C21.0654 9.69141 20.8427 10.2656 21.2998 10.9102L23.9248 14.6484C24.2998 15.1758 24.8623 15.1875 25.2373 14.6484L27.8623 10.9219C28.331 10.2656 28.1083 9.69141 27.2646 9.69141ZM1.92866 11.9531C1.92866 18.5508 7.28413 23.9062 13.8818 23.9062C17.8896 23.9062 21.3818 21.9492 23.5615 18.9258C23.9599 18.4102 23.8193 17.7422 23.3388 17.4492C22.8466 17.1562 22.2958 17.3086 21.9443 17.7891C20.1513 20.2734 17.2216 21.9141 13.8818 21.9141C8.37397 21.9141 3.92085 17.4609 3.92085 11.9531C3.92085 6.44531 8.37397 1.99219 13.8818 1.99219C19.3896 1.99219 23.8427 6.44531 23.8427 11.9531C23.8427 12.5039 24.2998 12.9492 24.8388 12.9492C25.3779 12.9492 25.8232 12.5156 25.8349 11.9648C25.8232 5.34375 20.4794 0 13.8818 0C7.28413 0 1.92866 5.35547 1.92866 11.9531Z" fill="black" fill-opacity="0.85"/>
 </g>
</svg>
