<?xml version="1.0" encoding="UTF-8"?>
<!--Generator: Apple Native CoreSVG 360-->
<!DOCTYPE svg
PUBLIC "-//W3C//DTD SVG 1.1//EN"
       "http://www.w3.org/Graphics/SVG/1.1/DTD/svg11.dtd">
<svg version="1.1" xmlns="http://www.w3.org/2000/svg" xmlns:xlink="http://www.w3.org/1999/xlink" viewBox="0 0 22.3477 18.5273">
 <g>
  <rect height="18.5273" opacity="0" width="22.3477" x="0" y="0"/>
  <path d="M2.13281 8.96484L7.05469 4.47656L9.65625 1.82812C9.84375 1.64062 9.9375 1.37109 9.9375 1.08984C9.9375 0.503906 9.49219 0.0820312 8.91797 0.0820312C8.63672 0.0820312 8.37891 0.175781 8.12109 0.433594L0.363281 8.17969C0.128906 8.40234 0 8.68359 0 8.96484C0 9.25781 0.128906 9.52734 0.363281 9.76172L8.14453 17.5312C8.39062 17.7539 8.63672 17.8594 8.91797 17.8594C9.49219 17.8594 9.9375 17.4375 9.9375 16.8516C9.9375 16.5703 9.84375 16.2891 9.65625 16.1016L7.05469 13.4531ZM2.14453 9.83203L5.92969 10.0195L14.0625 10.0195C18.3633 10.0195 19.875 11.7891 19.875 16.1367C19.8633 16.6523 19.8633 17.1094 19.8516 17.4844C19.8516 18.1055 20.2852 18.5273 20.8945 18.5273C21.5156 18.5273 21.7969 18.1289 21.9023 17.6484C21.9727 17.2969 21.9961 16.7109 21.9961 16.0312C21.9961 10.3594 19.7344 7.92188 14.168 7.92188L5.92969 7.92188L2.15625 8.09766C1.67578 8.12109 1.28906 8.49609 1.28906 8.96484C1.28906 9.43359 1.66406 9.80859 2.14453 9.83203Z" fill="black" fill-opacity="0.85"/>
 </g>
</svg>
