<?xml version="1.0" encoding="UTF-8"?>
<!--Generator: Apple Native CoreSVG 360-->
<!DOCTYPE svg
PUBLIC "-//W3C//DTD SVG 1.1//EN"
       "http://www.w3.org/Graphics/SVG/1.1/DTD/svg11.dtd">
<svg version="1.1" xmlns="http://www.w3.org/2000/svg" xmlns:xlink="http://www.w3.org/1999/xlink" viewBox="0 0 28.4648 21.5977">
 <g>
  <rect height="21.5977" opacity="0" width="28.4648" x="0" y="0"/>
  <path d="M7.89844 21.5977L20.2031 21.5977C22.5117 21.5977 23.5312 20.5195 23.8828 18.2227L25.7695 5.47266L23.8828 5.58984L22.0078 18.1992C21.832 19.3594 21.2109 19.8281 20.1797 19.8281L7.93359 19.8281C6.87891 19.8281 6.26953 19.3594 6.10547 18.1992L4.23047 5.58984L2.34375 5.47266L4.23047 18.2227C4.57031 20.5312 5.60156 21.5977 7.89844 21.5977ZM2.22656 6.46875L25.8867 6.46875C27.3281 6.46875 28.1133 5.56641 28.1133 4.13672L28.1133 2.35547C28.1133 0.925781 27.3281 0.0234375 25.8867 0.0234375L2.22656 0.0234375C0.855469 0.0234375 0 0.925781 0 2.35547L0 4.13672C0 5.56641 0.785156 6.46875 2.22656 6.46875ZM2.70703 4.69922C2.12109 4.69922 1.88672 4.45312 1.88672 3.86719L1.88672 2.625C1.88672 2.03906 2.12109 1.79297 2.70703 1.79297L25.418 1.79297C26.0039 1.79297 26.2266 2.03906 26.2266 2.625L26.2266 3.86719C26.2266 4.45312 26.0039 4.69922 25.418 4.69922Z" fill="black" fill-opacity="0.85"/>
  <path d="M10.6289 13.1484C10.8516 13.1484 11.0859 13.0664 11.25 12.8906L12.2812 11.8359L13.957 10.1133L14.2383 10.1133L15.9141 11.8359L16.9453 12.8906C17.0977 13.0664 17.332 13.1484 17.5664 13.1484C18.0352 13.1484 18.3867 12.8203 18.3867 12.3516C18.3867 12.082 18.2812 11.8828 18.0938 11.7188L14.7539 8.63672C14.5078 8.41406 14.332 8.33203 14.0977 8.33203C13.8633 8.33203 13.6875 8.41406 13.4414 8.63672L10.1016 11.7188C9.91406 11.8828 9.80859 12.082 9.80859 12.3516C9.80859 12.8203 10.1484 13.1484 10.6289 13.1484ZM14.0977 17.8125C14.5781 17.8125 14.9883 17.4141 14.9883 16.9336L14.9883 12.7148L14.8711 9.90234C14.8242 8.89453 13.3711 8.89453 13.3242 9.90234L13.1953 12.7148L13.1953 16.9336C13.1953 17.4141 13.6172 17.8125 14.0977 17.8125Z" fill="black" fill-opacity="0.85"/>
 </g>
</svg>
