<?xml version="1.0" encoding="UTF-8"?>
<!--Generator: Apple Native CoreSVG 360-->
<!DOCTYPE svg
PUBLIC "-//W3C//DTD SVG 1.1//EN"
       "http://www.w3.org/Graphics/SVG/1.1/DTD/svg11.dtd">
<svg version="1.1" xmlns="http://www.w3.org/2000/svg" xmlns:xlink="http://www.w3.org/1999/xlink" viewBox="0 0 24.5977 17.7773">
 <g>
  <rect height="17.7773" opacity="0" width="24.5977" x="0" y="0"/>
  <path d="M1.04297 17.7656C1.66406 17.7656 2.09766 17.3555 2.09766 16.7578L2.09766 1.03125C2.09766 0.421875 1.66406 0 1.04297 0C0.433594 0 0 0.421875 0 1.03125L0 16.7578C0 17.3555 0.433594 17.7656 1.04297 17.7656ZM12.0234 1.00781C12.0234 0.421875 11.5781 0 10.9922 0C10.7227 0 10.4766 0.105469 10.2422 0.328125L2.44922 8.09766C2.21484 8.32031 2.08594 8.58984 2.08594 8.88281C2.08594 9.17578 2.21484 9.44531 2.44922 9.66797L10.2422 17.4492C10.4766 17.6719 10.7227 17.7656 10.9922 17.7656C11.5781 17.7656 12.0234 17.3438 12.0234 16.7578C12.0234 16.4766 11.918 16.1953 11.7422 16.0195L9.11719 13.3477L4.21875 8.88281L9.11719 4.41797L11.7422 1.74609C11.918 1.57031 12.0234 1.28906 12.0234 1.00781ZM4.06641 9.79688L7.76953 9.92578L23.2148 9.92578C23.8125 9.92578 24.2461 9.49219 24.2461 8.88281C24.2461 8.27344 23.8125 7.83984 23.2148 7.83984L7.76953 7.83984L4.06641 7.96875C3.5625 7.99219 3.15234 8.39062 3.15234 8.88281C3.15234 9.38672 3.5625 9.77344 4.06641 9.79688Z" fill="black" fill-opacity="0.85"/>
 </g>
</svg>
