<?xml version="1.0" encoding="UTF-8"?>
<!--Generator: Apple Native CoreSVG 360-->
<!DOCTYPE svg
PUBLIC "-//W3C//DTD SVG 1.1//EN"
       "http://www.w3.org/Graphics/SVG/1.1/DTD/svg11.dtd">
<svg version="1.1" xmlns="http://www.w3.org/2000/svg" xmlns:xlink="http://www.w3.org/1999/xlink" viewBox="0 0 28.9485 23.918">
 <g>
  <rect height="23.918" opacity="0" width="28.9485" x="0" y="0"/>
  <path d="M0.833612 10.0078C-0.0101376 10.0078-0.221075 10.5703 0.235956 11.2266L2.86096 14.9531C3.24767 15.5039 3.81017 15.4922 4.18517 14.9531L6.81017 11.2148C7.25549 10.5703 7.04455 10.0078 6.21252 10.0078ZM14.2985 1.99219C17.2281 1.99219 19.8649 3.24609 21.693 5.27344C22.1852 5.80078 22.6891 5.77734 23.0641 5.49609C23.5094 5.19141 23.6735 4.5 23.193 3.97266C21.0016 1.52344 17.8141 0 14.2985 0C7.7008 0 2.35705 5.34375 2.34533 11.9648C2.35705 12.5039 2.79064 12.9375 3.32971 12.9375C3.88049 12.9375 4.33752 12.4922 4.33752 11.9531C4.33752 6.44531 8.79064 1.99219 14.2985 1.99219ZM27.7633 13.8984C28.5953 13.8984 28.818 13.3242 28.361 12.6797L25.736 8.94141C25.3492 8.40234 24.7867 8.41406 24.4117 8.94141L21.7867 12.6914C21.3414 13.3242 21.5524 13.8984 22.3844 13.8984ZM14.2985 21.9141C11.3688 21.9141 8.73205 20.6484 6.90392 18.6211C6.41174 18.1055 5.90783 18.1289 5.53283 18.3984C5.08752 18.7148 4.92346 19.3945 5.40392 19.9336C7.59533 22.3828 10.7828 23.9062 14.2985 23.9062C20.8961 23.9062 26.2399 18.5625 26.2516 11.9414C26.2399 11.4023 25.8063 10.957 25.2672 10.957C24.7047 10.957 24.2594 11.4141 24.2594 11.9531C24.2594 17.4609 19.8063 21.9141 14.2985 21.9141Z" fill="black" fill-opacity="0.85"/>
 </g>
</svg>
