<?xml version="1.0" encoding="UTF-8"?>
<!--Generator: Apple Native CoreSVG 360-->
<!DOCTYPE svg
PUBLIC "-//W3C//DTD SVG 1.1//EN"
       "http://www.w3.org/Graphics/SVG/1.1/DTD/svg11.dtd">
<svg version="1.1" xmlns="http://www.w3.org/2000/svg" xmlns:xlink="http://www.w3.org/1999/xlink" viewBox="0 0 24.3164 29.5195">
 <g>
  <rect height="29.5195" opacity="0" width="24.3164" x="0" y="0"/>
  <path d="M23.9648 3.67969L23.9648 19.957C23.9648 22.4062 22.7461 23.6367 20.332 23.6367L18.2812 23.6367L18.2812 9.52734C18.2812 7.07812 17.0742 5.84766 14.6484 5.84766L5.68359 5.84766L5.68359 3.67969C5.68359 1.23047 6.89062 0 9.31641 0L20.332 0C22.7461 0 23.9648 1.24219 23.9648 3.67969ZM11.9648 2.39062C11.4492 2.39062 11.2148 2.71875 11.2148 3.08203L11.2148 3.32812C11.2148 3.67969 11.4492 4.01953 11.9648 4.01953L17.6836 4.01953C18.1875 4.01953 18.4336 3.67969 18.4336 3.32812L18.4336 3.08203C18.4336 2.71875 18.1875 2.39062 17.6836 2.39062Z" fill="black" fill-opacity="0.85"/>
  <path d="M0 25.8047C0 28.2539 1.20703 29.4844 3.63281 29.4844L14.6484 29.4844C17.0742 29.4844 18.2812 28.2422 18.2812 25.8047L18.2812 9.52734C18.2812 7.07812 17.0742 5.84766 14.6484 5.84766L3.63281 5.84766C1.20703 5.84766 0 7.06641 0 9.52734ZM1.88672 25.7695L1.88672 9.55078C1.88672 8.39062 2.50781 7.73438 3.71484 7.73438L14.5547 7.73438C15.7617 7.73438 16.3945 8.39062 16.3945 9.55078L16.3945 25.7695C16.3945 26.9414 15.7617 27.5977 14.5547 27.5977L3.71484 27.5977C2.50781 27.5977 1.88672 26.9414 1.88672 25.7695Z" fill="black" fill-opacity="0.85"/>
  <path d="M3.07031 18.4688L6.36328 18.4688C6.78516 18.4688 6.87891 18.0703 6.64453 17.7539L5.16797 15.6797C4.92188 15.3398 4.51172 15.3164 4.25391 15.6797L2.78906 17.7539C2.56641 18.0703 2.66016 18.4688 3.07031 18.4688ZM9.17578 22.793C10.3945 22.793 11.5195 22.3477 12.3047 21.7031C12.75 21.3633 12.7617 20.8945 12.5391 20.6133C12.3398 20.3555 11.9297 20.25 11.4727 20.5781C10.8516 21.0703 10.0664 21.3867 9.17578 21.3867C7.11328 21.3867 5.4375 19.7109 5.4375 17.6484C5.4375 17.2734 5.12109 16.957 4.73438 16.957C4.35938 16.957 4.04297 17.2734 4.04297 17.6484C4.04297 20.4961 6.33984 22.793 9.17578 22.793ZM15.2812 16.8398L11.9766 16.8398C11.5664 16.8398 11.4727 17.2383 11.6953 17.5547L13.1719 19.6289C13.418 19.9688 13.8398 19.9922 14.0977 19.6289L15.5508 17.5547C15.7852 17.2383 15.6797 16.8398 15.2812 16.8398ZM9.17578 12.5156C7.95703 12.5156 6.83203 12.9609 6.03516 13.6055C5.60156 13.9453 5.57812 14.4141 5.80078 14.6953C6.01172 14.9531 6.42188 15.0586 6.86719 14.7305C7.48828 14.2383 8.27344 13.9219 9.17578 13.9219C11.2266 13.9219 12.9023 15.5977 12.9023 17.6484C12.9023 18.0352 13.2188 18.3516 13.6055 18.3516C13.9922 18.3516 14.3086 18.0352 14.3086 17.6484C14.3086 14.8125 12.0117 12.5156 9.17578 12.5156Z" fill="black" fill-opacity="0.85"/>
 </g>
</svg>
