<?xml version="1.0" encoding="UTF-8"?>
<!--Generator: Apple Native CoreSVG 360-->
<!DOCTYPE svg
PUBLIC "-//W3C//DTD SVG 1.1//EN"
       "http://www.w3.org/Graphics/SVG/1.1/DTD/svg11.dtd">
<svg version="1.1" xmlns="http://www.w3.org/2000/svg" xmlns:xlink="http://www.w3.org/1999/xlink" viewBox="0 0 18.6445 22.1367">
 <g>
  <rect height="22.1367" opacity="0" width="18.6445" x="0" y="0"/>
  <path d="M9.41016 2.15625L12.6914 5.80078L16.5352 9.64453C16.7227 9.83203 17.0039 9.92578 17.2734 9.92578C17.8594 9.92578 18.293 9.48047 18.293 8.90625C18.293 8.625 18.1875 8.37891 17.9648 8.14453L10.1836 0.351562C9.96094 0.117188 9.69141 0 9.39844 0C9.11719 0 8.84766 0.117188 8.625 0.351562L0.84375 8.14453C0.621094 8.37891 0.515625 8.625 0.515625 8.90625C0.515625 9.48047 0.949219 9.92578 1.52344 9.92578C1.80469 9.92578 2.08594 9.83203 2.27344 9.64453L6.10547 5.80078ZM2.47266 22.1367C7.89844 22.1367 10.4531 19.9805 10.4531 14.5312L10.4531 6.41016L10.3477 2.15625C10.3359 1.65234 9.92578 1.21875 9.41016 1.21875C8.89453 1.21875 8.48438 1.65234 8.47266 2.15625L8.35547 6.41016L8.36719 14.4258C8.37891 18.668 6.53906 20.0859 2.36719 20.0859C1.86328 20.0742 1.40625 20.0742 1.04297 20.0625C0.433594 20.0625 0 20.4492 0 21.0586C0 21.6562 0.410156 21.9492 0.878906 22.0547C1.23047 22.125 1.80469 22.1367 2.47266 22.1367Z" fill="black" fill-opacity="0.85"/>
 </g>
</svg>
