<?xml version="1.0" encoding="UTF-8"?>
<!--Generator: Apple Native CoreSVG 360-->
<!DOCTYPE svg
PUBLIC "-//W3C//DTD SVG 1.1//EN"
       "http://www.w3.org/Graphics/SVG/1.1/DTD/svg11.dtd">
<svg version="1.1" xmlns="http://www.w3.org/2000/svg" xmlns:xlink="http://www.w3.org/1999/xlink" viewBox="0 0 35.2735 24.5273">
 <g>
  <rect height="24.5273" opacity="0" width="35.2735" x="0" y="0"/>
  <path d="M0.878928 13.6523L9.75002 19.0898C10.8633 19.7695 12.1172 19.2891 12.1172 17.8594L12.1172 6.67969C12.1172 5.28516 10.8867 4.76953 9.75002 5.46094L0.878928 10.8984C-0.304666 11.6133-0.281228 12.9375 0.878928 13.6523ZM2.13283 12.5156C1.95705 12.3984 1.85158 12.2109 2.13283 12.0234L9.99612 7.16016C10.1133 7.07812 10.4063 7.04297 10.4063 7.35938L10.4063 17.1914C10.4063 17.4844 10.1367 17.4844 9.99612 17.3906ZM25.1719 19.0898L34.0547 13.6523C35.2031 12.9375 35.2266 11.6133 34.0547 10.8984L25.1719 5.46094C24.0352 4.76953 22.8047 5.28516 22.8047 6.67969L22.8047 17.8594C22.8047 19.2891 24.0586 19.7695 25.1719 19.0898ZM24.9258 17.3906C24.7852 17.4727 24.5156 17.4844 24.5156 17.1914L24.5156 7.35938C24.5156 7.04297 24.8086 7.07812 24.9258 7.16016L32.7891 12.0234C33.0703 12.2109 32.9766 12.4102 32.7891 12.5156Z" fill="black" fill-opacity="0.85"/>
  <path d="M17.461 24.5273C17.918 24.5273 18.3281 24.1641 18.3281 23.707L18.3281 0.832031C18.3281 0.375 17.918 0.0234375 17.461 0.0234375C17.0039 0.0234375 16.6055 0.375 16.6055 0.832031L16.6055 23.707C16.6055 24.1641 17.0039 24.5273 17.461 24.5273Z" fill="black" fill-opacity="0.85"/>
 </g>
</svg>
