<?xml version="1.0" encoding="UTF-8"?>
<!--Generator: Apple Native CoreSVG 360-->
<!DOCTYPE svg
PUBLIC "-//W3C//DTD SVG 1.1//EN"
       "http://www.w3.org/Graphics/SVG/1.1/DTD/svg11.dtd">
<svg version="1.1" xmlns="http://www.w3.org/2000/svg" xmlns:xlink="http://www.w3.org/1999/xlink" viewBox="0 0 26.9648 21.5977">
 <g>
  <rect height="21.5977" opacity="0" width="26.9648" x="0" y="0"/>
  <path d="M9.10547 0.867188L9.82031 1.45312C10.4062 1.95703 10.8867 2.14453 11.6836 2.14453L22.9336 2.14453C25.3711 2.14453 26.6133 3.36328 26.6133 5.77734L26.6133 17.8125C26.6133 20.2266 25.3828 21.4453 23.2852 21.4453L3.67969 21.4453C1.23047 21.4453 0 20.2383 0 17.8125L0 3.52734C0 1.17188 1.18359 0 3.23438 0L6.57422 0C7.73438 0 8.33203 0.210938 9.10547 0.867188ZM13.7578 7.62891C13.7578 7.86328 13.8516 8.12109 14.0508 8.28516L16.0078 10.125L16.7462 10.8176L15.1406 10.7578L8.16797 10.7461C7.65234 10.7461 7.21875 11.1914 7.21875 11.7188C7.21875 12.2461 7.65234 12.6797 8.16797 12.6797L15.1406 12.6797L16.7462 12.6199L16.0078 13.3125L14.0508 15.1523C13.8516 15.3164 13.7578 15.5859 13.7578 15.8203C13.7578 16.3242 14.1211 16.6875 14.6133 16.6875C14.8711 16.6875 15.0703 16.5938 15.2461 16.3945L19.0898 12.4219C19.3359 12.1758 19.418 11.9648 19.418 11.7188C19.418 11.4609 19.3359 11.2617 19.0898 11.0156L15.2461 7.03125C15.0703 6.84375 14.8711 6.75 14.6133 6.75C14.1211 6.75 13.7578 7.125 13.7578 7.62891Z" fill="black" fill-opacity="0.85"/>
 </g>
</svg>
