<?xml version="1.0" encoding="UTF-8"?>
<!--Generator: Apple Native CoreSVG 360-->
<!DOCTYPE svg
PUBLIC "-//W3C//DTD SVG 1.1//EN"
       "http://www.w3.org/Graphics/SVG/1.1/DTD/svg11.dtd">
<svg version="1.1" xmlns="http://www.w3.org/2000/svg" xmlns:xlink="http://www.w3.org/1999/xlink" viewBox="0 0 31.2036 21.6826">
 <g>
  <rect height="21.6826" opacity="0" width="31.2036" x="0" y="0"/>
  <path d="M11.1897 2.57375L29.9045 2.57375C30.4319 2.57375 30.8538 2.16359 30.8538 1.63625C30.8538 1.1089 30.4319 0.687027 29.9045 0.687027L11.1897 0.687027C10.6506 0.687027 10.2405 1.1089 10.2405 1.63625C10.2405 2.16359 10.6506 2.57375 11.1897 2.57375ZM11.1897 8.71437L29.9045 8.71437C30.4319 8.71437 30.8538 8.2925 30.8538 7.76515C30.8538 7.23781 30.4319 6.82765 29.9045 6.82765L11.1897 6.82765C10.6506 6.82765 10.2405 7.23781 10.2405 7.76515C10.2405 8.2925 10.6506 8.71437 11.1897 8.71437ZM11.1897 14.8433L29.9045 14.8433C30.4319 14.8433 30.8538 14.4331 30.8538 13.9058C30.8538 13.3667 30.4319 12.9566 29.9045 12.9566L11.1897 12.9566C10.6506 12.9566 10.2405 13.3667 10.2405 13.9058C10.2405 14.4331 10.6506 14.8433 11.1897 14.8433ZM11.1897 20.9722L21.2561 20.9722C21.7834 20.9722 22.2053 20.562 22.2053 20.0347C22.2053 19.5073 21.7834 19.0855 21.2561 19.0855L11.1897 19.0855C10.6506 19.0855 10.2405 19.5073 10.2405 20.0347C10.2405 20.562 10.6506 20.9722 11.1897 20.9722Z" fill="black" fill-opacity="0.85"/>
  <path d="M0.842044 4.88234L5.54126 4.88234C6.34986 4.88234 6.64282 4.1089 6.15064 3.45265L3.80689 0.312027C3.49048-0.109848 2.88111-0.0981291 2.57642 0.312027L0.232669 3.45265C-0.2478 4.1089 0.0451686 4.88234 0.842044 4.88234ZM5.54126 16.7886L0.842044 16.7886C0.0451686 16.7886-0.2478 17.562 0.232669 18.2183L2.57642 21.3472C2.89282 21.7808 3.49048 21.7808 3.80689 21.3472L6.15064 18.2183C6.61939 17.5855 6.37329 16.7886 5.54126 16.7886ZM3.8772 3.30031C3.8772 2.93703 3.57251 2.62062 3.19751 2.62062C2.83423 2.62062 2.51782 2.93703 2.51782 3.30031L2.51782 18.3706C2.51782 18.7456 2.83423 19.0503 3.19751 19.0503C3.57251 19.0503 3.8772 18.7456 3.8772 18.3706Z" fill="black" fill-opacity="0.85"/>
 </g>
</svg>
