<?xml version="1.0" encoding="UTF-8"?>
<!--Generator: Apple Native CoreSVG 360-->
<!DOCTYPE svg
PUBLIC "-//W3C//DTD SVG 1.1//EN"
       "http://www.w3.org/Graphics/SVG/1.1/DTD/svg11.dtd">
<svg version="1.1" xmlns="http://www.w3.org/2000/svg" xmlns:xlink="http://www.w3.org/1999/xlink" viewBox="0 0 18.1172 24.293">
 <g>
  <rect height="24.293" opacity="0" width="18.1172" x="0" y="0"/>
  <path d="M17.7656 23.25C17.7656 22.6406 17.3555 22.1953 16.7578 22.1953L1.03125 22.1953C0.421875 22.1953 0 22.6406 0 23.25C0 23.8594 0.421875 24.293 1.03125 24.293L16.7578 24.293C17.3555 24.293 17.7656 23.8594 17.7656 23.25ZM1.00781 12.2695C0.421875 12.2695 0 12.7148 0 13.3008C0 13.5703 0.105469 13.8164 0.328125 14.0625L8.09766 21.8438C8.32031 22.0781 8.58984 22.207 8.88281 22.207C9.17578 22.207 9.44531 22.0781 9.66797 21.8438L17.4492 14.0625C17.6719 13.8164 17.7656 13.5703 17.7656 13.3008C17.7656 12.7148 17.3438 12.2695 16.7578 12.2695C16.4766 12.2695 16.1953 12.375 16.0195 12.5625L13.3477 15.1758L8.88281 20.0742L4.41797 15.1758L1.74609 12.5625C1.57031 12.375 1.28906 12.2695 1.00781 12.2695ZM9.79688 20.2383L9.92578 16.5234L9.92578 1.08984C9.92578 0.480469 9.49219 0.046875 8.88281 0.046875C8.27344 0.046875 7.83984 0.480469 7.83984 1.08984L7.83984 16.5234L7.96875 20.2383C7.99219 20.7305 8.39062 21.1406 8.88281 21.1406C9.38672 21.1406 9.77344 20.7305 9.79688 20.2383Z" fill="black" fill-opacity="0.85"/>
 </g>
</svg>
