<?xml version="1.0" encoding="UTF-8"?>
<!--Generator: Apple Native CoreSVG 360-->
<!DOCTYPE svg
PUBLIC "-//W3C//DTD SVG 1.1//EN"
       "http://www.w3.org/Graphics/SVG/1.1/DTD/svg11.dtd">
<svg version="1.1" xmlns="http://www.w3.org/2000/svg" xmlns:xlink="http://www.w3.org/1999/xlink" viewBox="0 0 42.4805 27.5039">
 <g>
  <rect height="27.5039" opacity="0" width="42.4805" x="0" y="0"/>
  <path d="M12.8438 16.9336L12.8438 25.207C12.8438 26.4961 11.8477 27.4922 10.5703 27.4922L2.25 27.4922C0.972656 27.4922 0 26.4961 0 25.207L0 16.9336C0 15.6445 0.972656 14.6367 2.25 14.6367L10.5703 14.6367C11.8477 14.6367 12.8438 15.6445 12.8438 16.9336ZM27.4922 16.9336L27.4922 25.207C27.4922 26.4961 26.4961 27.4922 25.2188 27.4922L16.8984 27.4922C15.6211 27.4922 14.6484 26.4961 14.6484 25.207L14.6484 16.9336C14.6484 15.6445 15.6211 14.6367 16.8984 14.6367L25.2188 14.6367C26.4961 14.6367 27.4922 15.6445 27.4922 16.9336ZM2.25 16.2891C1.91016 16.2891 1.65234 16.5586 1.65234 16.9336L1.65234 25.207C1.65234 25.5703 1.91016 25.8398 2.25 25.8398L10.5703 25.8398C10.9219 25.8398 11.1914 25.5703 11.1914 25.207L11.1914 16.9336C11.1914 16.5586 10.9219 16.2891 10.5703 16.2891ZM16.8984 16.2891C16.5586 16.2891 16.3008 16.5586 16.3008 16.9336L16.3008 25.207C16.3008 25.5703 16.5586 25.8398 16.8984 25.8398L25.2188 25.8398C25.5703 25.8398 25.8398 25.5703 25.8398 25.207L25.8398 16.9336C25.8398 16.5586 25.5703 16.2891 25.2188 16.2891ZM27.4922 2.28516L27.4922 10.5703C27.4922 11.8594 26.4961 12.8438 25.2188 12.8438L16.8984 12.8438C15.6211 12.8438 14.6484 11.8594 14.6484 10.5703L14.6484 2.28516C14.6484 0.996094 15.6211 0 16.8984 0L25.2188 0C26.4961 0 27.4922 0.996094 27.4922 2.28516ZM16.8984 1.65234C16.5586 1.65234 16.3008 1.92188 16.3008 2.28516L16.3008 10.5703C16.3008 10.9219 16.5586 11.1914 16.8984 11.1914L25.2188 11.1914C25.5703 11.1914 25.8398 10.9219 25.8398 10.5703L25.8398 2.28516C25.8398 1.92188 25.5703 1.65234 25.2188 1.65234Z" fill="black" fill-opacity="0.85"/>
  <path d="M42.1289 16.9336L42.1289 25.207C42.1289 26.4961 41.1562 27.4922 39.8789 27.4922L31.5586 27.4922C30.2812 27.4922 29.2852 26.4961 29.2852 25.207L29.2852 16.9336C29.2852 15.6445 30.2812 14.6367 31.5586 14.6367L39.8789 14.6367C41.1562 14.6367 42.1289 15.6445 42.1289 16.9336ZM33.2344 18.3398L33.2344 23.7773C33.2344 24.2812 33.832 24.5977 34.3242 24.3164L38.8125 21.6797C39.2578 21.4219 39.2695 20.7422 38.8242 20.4727L34.3242 17.8125C33.832 17.5312 33.2344 17.8477 33.2344 18.3398Z" fill="black" fill-opacity="0.85"/>
 </g>
</svg>
