<?xml version="1.0" encoding="UTF-8"?>
<!--Generator: Apple Native CoreSVG 360-->
<!DOCTYPE svg
PUBLIC "-//W3C//DTD SVG 1.1//EN"
       "http://www.w3.org/Graphics/SVG/1.1/DTD/svg11.dtd">
<svg version="1.1" xmlns="http://www.w3.org/2000/svg" xmlns:xlink="http://www.w3.org/1999/xlink" viewBox="0 0 22.6875 22.3711">
 <g>
  <rect height="22.3711" opacity="0" width="22.6875" x="0" y="0"/>
  <path d="M8.35547 3.11719L8.69531 8.70703L3.09375 8.37891L2.10938 8.37891C1.48828 8.37891 1.00781 8.8125 1.00781 9.43359C1.00781 10.0664 1.47656 10.5117 2.10938 10.5117L8.61328 10.5117C9.80859 10.5117 10.5 9.82031 10.5 8.625L10.5 2.13281C10.5 1.51172 10.043 1.04297 9.42188 1.04297C8.80078 1.04297 8.35547 1.5 8.35547 2.13281ZM8.00391 9.375C9.03516 10.3359 10.3008 9.02344 9.36328 8.02734L5.50781 3.94922L1.91016 0.328125C1.71094 0.105469 1.44141 0.0117188 1.16016 0.0117188C0.492188 0.0117188 0 0.445312 0 1.11328C0 1.41797 0.117188 1.69922 0.328125 1.92188L3.9375 5.53125ZM13.9805 19.2656L13.6406 13.6758L19.2422 14.0039L20.2266 14.0039C20.8477 14.0039 21.3281 13.5703 21.3281 12.9375C21.3281 12.3164 20.8477 11.8711 20.2266 11.8711L13.7227 11.8711C12.5156 11.8711 11.8242 12.5625 11.8242 13.7578L11.8242 20.25C11.8242 20.8594 12.2812 21.3398 12.9141 21.3398C13.5234 21.3398 13.9805 20.8828 13.9805 20.25ZM14.3203 13.0078C13.2891 12.0469 12.0352 13.3594 12.9609 14.3555L16.8281 18.4219L20.4258 22.0547C20.625 22.2656 20.8828 22.3711 21.1758 22.3711C21.832 22.3711 22.3359 21.9375 22.3359 21.2695C22.3359 20.9648 22.2188 20.6719 22.0078 20.4609L18.3984 16.8516Z" fill="black" fill-opacity="0.85"/>
 </g>
</svg>
