<?xml version="1.0" encoding="UTF-8"?>
<!--Generator: Apple Native CoreSVG 360-->
<!DOCTYPE svg
PUBLIC "-//W3C//DTD SVG 1.1//EN"
       "http://www.w3.org/Graphics/SVG/1.1/DTD/svg11.dtd">
<svg version="1.1" xmlns="http://www.w3.org/2000/svg" xmlns:xlink="http://www.w3.org/1999/xlink" viewBox="0 0 18.6445 22.1367">
 <g>
  <rect height="22.1367" opacity="0" width="18.6445" x="0" y="0"/>
  <path d="M8.87109 19.9805L5.58984 16.3359L1.74609 12.4922C1.57031 12.3047 1.28906 12.2109 1.00781 12.2109C0.421875 12.2109 0 12.6562 0 13.2305C0 13.5117 0.105469 13.7578 0.328125 13.9922L8.09766 21.7852C8.32031 22.0195 8.58984 22.1367 8.88281 22.1367C9.17578 22.1367 9.44531 22.0195 9.66797 21.7852L17.4492 13.9922C17.6719 13.7578 17.7656 13.5117 17.7656 13.2305C17.7656 12.6562 17.3438 12.2109 16.7578 12.2109C16.4766 12.2109 16.207 12.3047 16.0195 12.4922L12.1758 16.3359ZM15.8086 0C10.3945 0 7.83984 2.15625 7.83984 7.60547L7.83984 15.7266L7.93359 19.9805C7.94531 20.4844 8.36719 20.918 8.87109 20.918C9.39844 20.918 9.80859 20.4844 9.82031 19.9805L9.92578 15.7266L9.91406 7.71094C9.90234 3.46875 11.7539 2.05078 15.9141 2.05078C16.4297 2.0625 16.875 2.0625 17.25 2.07422C17.8477 2.07422 18.293 1.6875 18.293 1.07812C18.293 0.480469 17.8711 0.1875 17.4141 0.0820312C17.0508 0.0117188 16.4883 0 15.8086 0Z" fill="black" fill-opacity="0.85"/>
 </g>
</svg>
