<?xml version="1.0" encoding="UTF-8"?>
<!--Generator: Apple Native CoreSVG 360-->
<!DOCTYPE svg
PUBLIC "-//W3C//DTD SVG 1.1//EN"
       "http://www.w3.org/Graphics/SVG/1.1/DTD/svg11.dtd">
<svg version="1.1" xmlns="http://www.w3.org/2000/svg" xmlns:xlink="http://www.w3.org/1999/xlink" viewBox="0 0 18.1172 20.6602">
 <g>
  <rect height="20.6602" opacity="0" width="18.1172" x="0" y="0"/>
  <path d="M17.7656 19.6055C17.7656 18.9961 17.3555 18.5625 16.7578 18.5625L1.03125 18.5625C0.421875 18.5625 0 18.9961 0 19.6055C0 20.2148 0.421875 20.6602 1.03125 20.6602L16.7578 20.6602C17.3555 20.6602 17.7656 20.2148 17.7656 19.6055ZM1.00781 8.63672C0.421875 8.63672 0 9.08203 0 9.65625C0 9.9375 0.105469 10.1836 0.328125 10.418L8.09766 18.2109C8.32031 18.4453 8.58984 18.5625 8.88281 18.5625C9.17578 18.5625 9.44531 18.4453 9.66797 18.2109L17.4492 10.418C17.6719 10.1836 17.7656 9.9375 17.7656 9.65625C17.7656 9.08203 17.3438 8.63672 16.7578 8.63672C16.4766 8.63672 16.1953 8.73047 16.0195 8.91797L13.3477 11.543L8.88281 16.4414L4.41797 11.543L1.74609 8.91797C1.57031 8.73047 1.28906 8.63672 1.00781 8.63672ZM9.79688 16.5938L9.92578 12.8906L9.92578 1.04297C9.92578 0.433594 9.49219 0 8.88281 0C8.27344 0 7.83984 0.433594 7.83984 1.04297L7.83984 12.8906L7.96875 16.5938C7.99219 17.0977 8.39062 17.5078 8.88281 17.5078C9.38672 17.5078 9.77344 17.0977 9.79688 16.5938Z" fill="black" fill-opacity="0.85"/>
 </g>
</svg>
