<?xml version="1.0" encoding="UTF-8"?>
<!--Generator: Apple Native CoreSVG 360-->
<!DOCTYPE svg
PUBLIC "-//W3C//DTD SVG 1.1//EN"
       "http://www.w3.org/Graphics/SVG/1.1/DTD/svg11.dtd">
<svg version="1.1" xmlns="http://www.w3.org/2000/svg" xmlns:xlink="http://www.w3.org/1999/xlink" viewBox="0 0 22.5 21.8789">
 <g>
  <rect height="21.8789" opacity="0" width="22.5" x="0" y="0"/>
  <path d="M22.1484 7.88672C22.1484 7.59375 22.0312 7.32422 21.7969 7.10156L14.9062 0.339844C14.707 0.128906 14.4023 0.0117188 14.1445 0.0117188C13.5234 0.0117188 13.1133 0.433594 13.1133 1.04297C13.1133 1.34766 13.207 1.57031 13.3945 1.75781L16.7695 5.05078L20.0859 7.88672L16.7695 10.7109L13.3945 14.0039C13.207 14.1914 13.1133 14.4141 13.1133 14.7188C13.1133 15.3281 13.5234 15.75 14.1445 15.75C14.4023 15.75 14.707 15.6328 14.9062 15.4219L21.7969 8.66016C22.0312 8.4375 22.1484 8.16797 22.1484 7.88672ZM11.9648 20.8359C11.9648 20.2617 11.543 19.793 10.8984 19.793L8.20312 19.793C4.20703 19.793 2.08594 17.4492 2.08594 14.2852C2.08594 11.1328 4.20703 8.92969 8.20312 8.92969L16.2422 8.92969L20.1211 8.75391C20.6133 8.73047 21 8.36719 21 7.88672C21 7.39453 20.6133 7.03125 20.1211 7.00781L16.2422 6.83203L8.37891 6.83203C3.02344 6.83203 0 9.92578 0 14.4023C0 18.8906 2.94141 21.8789 8.19141 21.8789L10.8984 21.8789C11.543 21.8789 11.9648 21.4102 11.9648 20.8359Z" fill="black" fill-opacity="0.85"/>
 </g>
</svg>
