<?xml version="1.0" encoding="UTF-8"?>
<!--Generator: Apple Native CoreSVG 360-->
<!DOCTYPE svg
PUBLIC "-//W3C//DTD SVG 1.1//EN"
       "http://www.w3.org/Graphics/SVG/1.1/DTD/svg11.dtd">
<svg version="1.1" xmlns="http://www.w3.org/2000/svg" xmlns:xlink="http://www.w3.org/1999/xlink" viewBox="0 0 24.2578 28.6086">
 <g>
  <rect height="28.6086" opacity="0" width="24.2578" x="0" y="0"/>
  <path d="M13.8984 0.833612C13.8984-0.0101376 13.3242-0.221075 12.6797 0.235956L8.95312 2.86096C8.40234 3.24767 8.41406 3.81017 8.95312 4.18517L12.6914 6.81017C13.3242 7.25549 13.8984 7.03283 13.8984 6.21252ZM21.9141 14.2985C21.9141 17.2164 20.6602 19.8649 18.6328 21.693C18.1055 22.1735 18.1289 22.6891 18.3984 23.0641C18.7148 23.5094 19.4062 23.6735 19.9336 23.193C22.3828 21.0016 23.9062 17.8141 23.9062 14.2985C23.9062 7.7008 18.5625 2.35705 11.9414 2.34533C11.4023 2.35705 10.9688 2.79064 10.9688 3.32971C10.9688 3.88049 11.4141 4.33752 11.9531 4.33752C17.4609 4.33752 21.9141 8.79064 21.9141 14.2985ZM10.0078 27.7516C10.0078 28.5953 10.582 28.818 11.2266 28.3492L14.9531 25.736C15.5039 25.3492 15.4922 24.7867 14.9531 24.4117L11.2148 21.7867C10.582 21.3414 10.0078 21.5524 10.0078 22.3844ZM1.99219 14.2985C1.99219 11.3688 3.24609 8.73205 5.28516 6.89221C5.80078 6.41174 5.77734 5.90783 5.50781 5.52111C5.19141 5.08752 4.5 4.92346 3.97266 5.40392C1.52344 7.59533 0 10.7828 0 14.2985C0 20.8961 5.34375 26.2399 11.9648 26.2516C12.5039 26.2399 12.9492 25.7945 12.9492 25.2555C12.9492 24.7047 12.4922 24.2594 11.9531 24.2594C6.44531 24.2594 1.99219 19.8063 1.99219 14.2985Z" fill="black" fill-opacity="0.85"/>
 </g>
</svg>
