<?xml version="1.0" encoding="UTF-8"?>
<!--Generator: Apple Native CoreSVG 360-->
<!DOCTYPE svg
PUBLIC "-//W3C//DTD SVG 1.1//EN"
       "http://www.w3.org/Graphics/SVG/1.1/DTD/svg11.dtd">
<svg version="1.1" xmlns="http://www.w3.org/2000/svg" xmlns:xlink="http://www.w3.org/1999/xlink" viewBox="0 0 20.0625 25.1367">
 <g>
  <rect height="25.1367" opacity="0" width="20.0625" x="0" y="0"/>
  <path d="M3.63281 25.125L16.0781 25.125C18.5039 25.125 19.7109 23.8945 19.7109 21.457L19.7109 10.8164C19.7109 9.30469 19.5352 8.64844 18.5977 7.6875L12.1406 1.11328C11.25 0.199219 10.5117 0 9.19922 0L3.63281 0C1.21875 0 0 1.24219 0 3.67969L0 21.457C0 23.9062 1.20703 25.125 3.63281 25.125ZM3.71484 23.2383C2.50781 23.2383 1.88672 22.5938 1.88672 21.4219L1.88672 3.71484C1.88672 2.55469 2.50781 1.88672 3.72656 1.88672L8.94141 1.88672L8.94141 8.69531C8.94141 10.1719 9.67969 10.8984 11.1445 10.8984L17.8242 10.8984L17.8242 21.4219C17.8242 22.5938 17.2031 23.2383 15.9844 23.2383ZM11.3555 9.12891C10.8867 9.12891 10.7109 8.94141 10.7109 8.47266L10.7109 2.25L17.4609 9.12891Z" fill="black" fill-opacity="0.85"/>
  <path d="M6.43359 17.168C6.65625 17.168 6.89062 17.0742 7.05469 16.8984L8.08594 15.8555L9.75 14.1328L10.043 14.1328L11.7188 15.8555L12.7383 16.8984C12.9023 17.0742 13.1367 17.168 13.3594 17.168C13.8281 17.168 14.1914 16.8281 14.1914 16.3594C14.1914 16.0898 14.0859 15.8906 13.8984 15.7266L10.5586 12.6562C10.3125 12.4336 10.1367 12.3516 9.90234 12.3516C9.66797 12.3516 9.49219 12.4336 9.24609 12.6562L5.90625 15.7266C5.71875 15.8906 5.60156 16.0898 5.60156 16.3594C5.60156 16.8281 5.95312 17.168 6.43359 17.168ZM9.90234 21.8203C10.3828 21.8203 10.793 21.4336 10.793 20.9531L10.793 16.7344L10.6758 13.9102C10.6289 12.9023 9.17578 12.9023 9.12891 13.9102L9 16.7344L9 20.9531C9 21.4336 9.42188 21.8203 9.90234 21.8203Z" fill="black" fill-opacity="0.85"/>
 </g>
</svg>
