<?xml version="1.0" encoding="UTF-8"?>
<!--Generator: Apple Native CoreSVG 360-->
<!DOCTYPE svg
PUBLIC "-//W3C//DTD SVG 1.1//EN"
       "http://www.w3.org/Graphics/SVG/1.1/DTD/svg11.dtd">
<svg version="1.1" xmlns="http://www.w3.org/2000/svg" xmlns:xlink="http://www.w3.org/1999/xlink" viewBox="0 0 27.9844 21.5742">
 <g>
  <rect height="21.5742" opacity="0" width="27.9844" x="0" y="0"/>
  <path d="M3.67969 21.5742L23.9531 21.5742C26.4141 21.5742 27.6328 20.3672 27.6328 17.9531L27.6328 3.63281C27.6328 1.21875 26.4141 0 23.9531 0L3.67969 0C1.23047 0 0 1.21875 0 3.63281L0 17.9531C0 20.3672 1.23047 21.5742 3.67969 21.5742ZM3.70312 19.6875C2.53125 19.6875 1.88672 19.0664 1.88672 17.8477L1.88672 3.73828C1.88672 2.51953 2.53125 1.88672 3.70312 1.88672L23.9297 1.88672C25.0898 1.88672 25.7461 2.51953 25.7461 3.73828L25.7461 17.8477C25.7461 19.0664 25.0898 19.6875 23.9297 19.6875Z" fill="black" fill-opacity="0.85"/>
  <path d="M3.94922 16.3945C3.78516 16.5586 3.66797 16.793 3.66797 17.0273C3.66797 17.5547 4.00781 17.8945 4.53516 17.8945C4.81641 17.8945 5.02734 17.7891 5.19141 17.625L8.73047 14.0977L10.8047 11.8945C11.5781 11.0742 10.5703 9.97266 9.71484 10.7695L7.48828 12.8555ZM10.9922 9.63281L5.60156 9.63281C5.05078 9.64453 4.71094 9.97266 4.71094 10.4883C4.71094 11.0039 5.0625 11.3438 5.63672 11.3555L7.59375 11.3555L10.5938 10.9922L10.2305 14.1094L10.2305 15.9609C10.2422 16.5234 10.582 16.8867 11.0977 16.8867C11.6133 16.8867 11.9531 16.5352 11.9648 15.9961L11.9648 10.5938C11.9648 9.94922 11.6367 9.63281 10.9922 9.63281Z" fill="black" fill-opacity="0.85"/>
 </g>
</svg>
