<?xml version="1.0" encoding="UTF-8"?>
<!--Generator: Apple Native CoreSVG 360-->
<!DOCTYPE svg
PUBLIC "-//W3C//DTD SVG 1.1//EN"
       "http://www.w3.org/Graphics/SVG/1.1/DTD/svg11.dtd">
<svg version="1.1" xmlns="http://www.w3.org/2000/svg" xmlns:xlink="http://www.w3.org/1999/xlink" viewBox="0 0 23.3586 22.96">
 <g>
  <rect height="22.96" opacity="0" width="23.3586" x="0" y="0"/>
  <path d="M3.52892 19.7007C4.06799 19.7007 4.52502 19.2319 4.52502 18.7046L4.53674 6.37648C4.53674 4.34913 5.79064 3.03663 7.50158 3.03663C9.22424 3.03663 10.5133 4.31398 10.5133 6.37648L10.5133 16.4312C10.5133 19.8062 12.611 21.9507 15.5172 21.9507C18.4117 21.9507 20.486 19.8062 20.486 16.4312L20.486 4.20851C20.486 3.65773 20.0289 3.21241 19.4781 3.21241C18.9391 3.21241 18.482 3.65773 18.482 4.20851L18.482 16.6069C18.482 18.646 17.2281 19.9468 15.5172 19.9468C13.7945 19.9468 12.5055 18.6694 12.5055 16.6069L12.5055 6.54054C12.5055 3.16554 10.4078 1.03273 7.50158 1.03273C4.60705 1.03273 2.53283 3.17726 2.53283 6.54054L2.52111 18.7046C2.52111 19.2319 2.97814 19.7007 3.52892 19.7007ZM0.833612 17.603C-0.0101376 17.603-0.221075 18.1773 0.235956 18.8335L2.86096 22.5601C3.24767 23.0991 3.81017 23.0874 4.18517 22.5601L6.81017 18.8218C7.25549 18.1773 7.04455 17.603 6.21252 17.603ZM16.8063 5.36866L22.1735 5.36866C23.0055 5.36866 23.2281 4.80616 22.7711 4.16163L20.1578 0.423352C19.7828-0.115711 19.2203-0.127429 18.8336 0.423352L16.2086 4.14991C15.7399 4.80616 15.9625 5.36866 16.8063 5.36866Z" fill="black" fill-opacity="0.85"/>
 </g>
</svg>
