<?xml version="1.0" encoding="UTF-8"?>
<!--Generator: Apple Native CoreSVG 360-->
<!DOCTYPE svg
PUBLIC "-//W3C//DTD SVG 1.1//EN"
       "http://www.w3.org/Graphics/SVG/1.1/DTD/svg11.dtd">
<svg version="1.1" xmlns="http://www.w3.org/2000/svg" xmlns:xlink="http://www.w3.org/1999/xlink" viewBox="0 0 23.3555 27.1992">
 <g>
  <rect height="27.1992" opacity="0" width="23.3555" x="0" y="0"/>
  <path d="M19.7578 10.5117L19.7578 26.2383C19.7578 26.7773 20.168 27.1992 20.707 27.1992C21.2344 27.1992 21.6445 26.7773 21.6445 26.2383L21.6445 10.5117C21.6445 9.98438 21.2344 9.57422 20.707 9.57422C20.168 9.57422 19.7578 9.98438 19.7578 10.5117ZM13.6289 10.5117L13.6289 26.2383C13.6289 26.7773 14.0391 27.1992 14.5664 27.1992C15.1055 27.1992 15.5156 26.7773 15.5156 26.2383L15.5156 10.5117C15.5156 9.98438 15.1055 9.57422 14.5664 9.57422C14.0391 9.57422 13.6289 9.98438 13.6289 10.5117ZM7.48828 10.5117L7.48828 26.2383C7.48828 26.7773 7.91016 27.1992 8.4375 27.1992C8.96484 27.1992 9.375 26.7773 9.375 26.2383L9.375 10.5117C9.375 9.98438 8.96484 9.57422 8.4375 9.57422C7.91016 9.57422 7.48828 9.98438 7.48828 10.5117ZM1.35938 10.5117L1.35938 18.7617C1.35938 19.2891 1.76953 19.7227 2.30859 19.7227C2.83594 19.7227 3.24609 19.2891 3.24609 18.7617L3.24609 10.5117C3.24609 9.98438 2.83594 9.57422 2.30859 9.57422C1.76953 9.57422 1.35938 9.98438 1.35938 10.5117Z" fill="black" fill-opacity="0.85"/>
  <path d="M4.88672 5.76562L4.88672 1.07812C4.88672 0.269531 4.11328-0.0234375 3.45703 0.46875L0.316406 2.80078C-0.105469 3.11719-0.105469 3.71484 0.316406 4.04297L3.45703 6.38672C4.08984 6.85547 4.88672 6.60938 4.88672 5.76562ZM18.1172 1.07812L18.1172 5.76562C18.1172 6.58594 18.8906 6.87891 19.5469 6.38672L22.6875 4.04297C23.1094 3.71484 23.0977 3.10547 22.6875 2.80078L19.5469 0.46875C18.8906-0.0234375 18.1172 0.269531 18.1172 1.07812ZM19.6992 4.11328C20.0625 4.11328 20.3789 3.79688 20.3789 3.42188C20.3789 3.05859 20.0625 2.75391 19.6992 2.75391L3.30469 2.75391C2.92969 2.75391 2.61328 3.05859 2.61328 3.42188C2.61328 3.79688 2.92969 4.11328 3.30469 4.11328Z" fill="black" fill-opacity="0.85"/>
 </g>
</svg>
