<?xml version="1.0" encoding="UTF-8"?>
<!--Generator: Apple Native CoreSVG 360-->
<!DOCTYPE svg
PUBLIC "-//W3C//DTD SVG 1.1//EN"
       "http://www.w3.org/Graphics/SVG/1.1/DTD/svg11.dtd">
<svg version="1.1" xmlns="http://www.w3.org/2000/svg" xmlns:xlink="http://www.w3.org/1999/xlink" viewBox="0 0 29.1328 23.0977">
 <g>
  <rect height="23.0977" opacity="0" width="29.1328" x="0" y="0"/>
  <path d="M3.67969 22.3477L25.1016 22.3477C27.5391 22.3477 28.7812 21.1289 28.7812 18.7148L28.7812 6.44531C28.7812 4.03125 27.5391 2.82422 25.1016 2.82422L21.75 2.82422C20.8242 2.82422 20.543 2.63672 20.0156 2.05078L19.0781 0.996094C18.4922 0.351562 17.8945 0 16.6875 0L12.0117 0C10.8047 0 10.207 0.351562 9.62109 0.996094L8.68359 2.05078C8.15625 2.625 7.86328 2.82422 6.94922 2.82422L3.67969 2.82422C1.23047 2.82422 0 4.03125 0 6.44531L0 18.7148C0 21.1289 1.23047 22.3477 3.67969 22.3477ZM3.70312 20.4609C2.55469 20.4609 1.88672 19.8398 1.88672 18.6211L1.88672 6.55078C1.88672 5.33203 2.55469 4.71094 3.70312 4.71094L7.41797 4.71094C8.47266 4.71094 9.04688 4.51172 9.63281 3.85547L10.5469 2.82422C11.2148 2.07422 11.5664 1.88672 12.5977 1.88672L16.1016 1.88672C17.1328 1.88672 17.4844 2.07422 18.1523 2.82422L19.0664 3.85547C19.6523 4.51172 20.2266 4.71094 21.2812 4.71094L25.0664 4.71094C26.2266 4.71094 26.8945 5.33203 26.8945 6.55078L26.8945 18.6211C26.8945 19.8398 26.2266 20.4609 25.0664 20.4609Z" fill="black" fill-opacity="0.85"/>
  <path d="M6.85547 12.9141L10.9688 12.9141C11.4844 12.9141 11.625 12.4219 11.3203 12.0117L9.48047 9.45703C9.17578 9.03516 8.64844 9 8.33203 9.45703L6.51562 12.0117C6.22266 12.4219 6.33984 12.9141 6.85547 12.9141ZM14.3906 18.2461C15.8555 18.2461 17.2031 17.7539 18.2695 16.9102C19.2656 16.1484 18.1992 14.7891 17.1914 15.5156C16.4297 16.125 15.457 16.4766 14.3906 16.4766C11.8477 16.4766 9.79688 14.4375 9.79688 11.8828C9.79688 11.3906 9.41016 11.0039 8.91797 11.0039C8.42578 11.0039 8.02734 11.3906 8.02734 11.8828C8.02734 15.3984 10.875 18.2461 14.3906 18.2461ZM21.9258 10.8516L17.8242 10.8516C17.2969 10.8516 17.168 11.3555 17.4609 11.7539L19.3125 14.3203C19.6055 14.7422 20.1445 14.7773 20.4609 14.3203L22.2773 11.7539C22.5703 11.3438 22.4531 10.8516 21.9258 10.8516ZM14.3906 5.51953C12.9375 5.51953 11.5781 6.01172 10.5234 6.85547C9.52734 7.61719 10.5938 8.98828 11.5898 8.26172C12.3633 7.65234 13.3359 7.28906 14.3906 7.28906C16.9453 7.28906 18.9844 9.33984 18.9844 11.8828C18.9844 12.375 19.3828 12.7734 19.875 12.7734C20.3672 12.7734 20.7539 12.375 20.7539 11.8828C20.7539 8.37891 17.918 5.51953 14.3906 5.51953Z" fill="black" fill-opacity="0.85"/>
 </g>
</svg>
