<?xml version="1.0" encoding="UTF-8"?>
<!--Generator: Apple Native CoreSVG 360-->
<!DOCTYPE svg
PUBLIC "-//W3C//DTD SVG 1.1//EN"
       "http://www.w3.org/Graphics/SVG/1.1/DTD/svg11.dtd">
<svg version="1.1" xmlns="http://www.w3.org/2000/svg" xmlns:xlink="http://www.w3.org/1999/xlink" viewBox="0 0 28.9336 21.5273">
 <g>
  <rect height="21.5273" opacity="0" width="28.9336" x="0" y="0"/>
  <path d="M3.14062 21.4336L10.207 21.4336C12.2344 21.4336 13.1016 20.5898 13.1016 18.5977L13.1016 15.9258L16.1133 15.9258L16.1133 20.1328C16.1133 20.918 16.6875 21.5039 17.4844 21.5039C18.0586 21.5039 18.5273 21.2695 19.0898 20.7422L28.3359 12.0117C28.793 11.5898 28.9336 11.1445 28.9336 10.7578C28.9336 10.3594 28.793 9.91406 28.3359 9.49219L19.0898 0.84375C18.4688 0.257812 18.082 0 17.5078 0C16.6875 0 16.1133 0.65625 16.1133 1.44141L16.1133 5.98828L8.50781 5.98828C6.48047 5.98828 5.61328 6.83203 5.61328 8.82422L5.61328 11.2734L3.14062 11.2734C1.11328 11.2734 0.246094 12.1055 0.246094 14.0977L0.246094 18.5977C0.246094 20.5898 1.11328 21.4336 3.14062 21.4336ZM3.28125 19.5938C2.50781 19.5938 2.13281 19.1719 2.13281 18.3164L2.13281 14.3789C2.13281 13.5234 2.50781 13.1133 3.28125 13.1133L5.63672 13.1133L5.63672 13.6758C5.63672 14.3906 5.85938 14.9062 6.51562 15.3164L11.2148 18.1875L11.2148 18.3164C11.2148 19.1719 10.8398 19.5938 10.0664 19.5938ZM18.1641 18.9844C18.0586 18.9844 18 18.9141 18 18.8086L18 14.2734C18 14.0039 17.8711 13.8867 17.6016 13.8867L8.64844 13.8867C7.875 13.8867 7.5 13.4648 7.5 12.6094L7.5 8.91797C7.5 8.05078 7.875 7.64062 8.64844 7.64062L17.6016 7.64062C17.8711 7.64062 18 7.52344 18 7.25391L18 2.60156C18 2.50781 18.0586 2.4375 18.1641 2.4375C18.2344 2.4375 18.3047 2.48438 18.3633 2.53125L26.707 10.5352C26.8008 10.6172 26.8359 10.6875 26.8359 10.7578C26.8359 10.8281 26.8008 10.8867 26.707 10.9805L18.3633 18.8789C18.293 18.9492 18.2227 18.9844 18.1641 18.9844Z" fill="black" fill-opacity="0.85"/>
 </g>
</svg>
