<?xml version="1.0" encoding="UTF-8"?>
<!--Generator: Apple Native CoreSVG 360-->
<!DOCTYPE svg
PUBLIC "-//W3C//DTD SVG 1.1//EN"
       "http://www.w3.org/Graphics/SVG/1.1/DTD/svg11.dtd">
<svg version="1.1" xmlns="http://www.w3.org/2000/svg" xmlns:xlink="http://www.w3.org/1999/xlink" viewBox="0 0 17.6748 17.3029">
 <g>
  <rect height="17.3029" opacity="0" width="17.6748" x="0" y="0"/>
  <path d="M0.329604 16.9776C0.763198 17.3995 1.36085 17.4229 1.80617 16.9776L13.7007 5.09479L16.0913 2.51666C16.4898 2.11822 16.4898 1.59088 16.103 1.21588C15.7163 0.829161 15.1773 0.817442 14.7905 1.21588L12.2124 3.6065L0.329604 15.501C-0.115708 15.9463-0.103989 16.544 0.329604 16.9776ZM15.189 8.65729L15.189 12.9815C15.189 13.544 15.6812 14.0479 16.2554 14.0479C16.8179 14.0479 17.3218 13.5792 17.3218 12.9346L17.3101 1.15729C17.3101 0.477598 16.8648 0.0205672 16.1734 0.0205672L4.38429 0.0205672C3.72804 0.0205672 3.28273 0.512755 3.28273 1.07525C3.28273 1.63775 3.78664 2.11822 4.33742 2.11822L8.41554 2.11822L15.4702 1.88385Z" fill="black" fill-opacity="0.85"/>
 </g>
</svg>
