<?xml version="1.0" encoding="UTF-8"?>
<!--Generator: Apple Native CoreSVG 360-->
<!DOCTYPE svg
PUBLIC "-//W3C//DTD SVG 1.1//EN"
       "http://www.w3.org/Graphics/SVG/1.1/DTD/svg11.dtd">
<svg version="1.1" xmlns="http://www.w3.org/2000/svg" xmlns:xlink="http://www.w3.org/1999/xlink" viewBox="0 0 27.6094 24.5508">
 <g>
  <rect height="24.5508" opacity="0" width="27.6094" x="0" y="0"/>
  <path d="M13.6289 22.8164C21.5039 22.8164 27.2578 18.0117 27.2578 11.4023C27.2578 4.76953 21.4922 0 13.6289 0C5.75391 0 0 4.76953 0 11.4023C0 13.5938 0.644531 15.6328 1.76953 17.2852C2.32031 18.1055 2.51953 18.6797 2.51953 19.1602C2.51953 19.7812 2.33203 20.2852 1.79297 20.7539C0.867188 21.5391 1.34766 22.8164 2.56641 22.8164C4.03125 22.8164 5.66016 22.3125 6.86719 21.4805C8.84766 22.3477 11.1562 22.8164 13.6289 22.8164ZM13.6289 20.9297C11.3906 20.9297 9.38672 20.5078 7.6875 19.7461C6.9375 19.418 6.39844 19.5117 5.68359 19.9336C5.17969 20.25 4.59375 20.5195 3.99609 20.6484C4.24219 20.2383 4.40625 19.7695 4.40625 19.1602C4.40625 18.293 4.08984 17.3438 3.33984 16.2188C2.40234 14.8594 1.88672 13.207 1.88672 11.4023C1.88672 5.90625 6.73828 1.88672 13.6289 1.88672C20.5195 1.88672 25.3711 5.90625 25.3711 11.4023C25.3711 16.8984 20.5195 20.9297 13.6289 20.9297Z" fill="black" fill-opacity="0.85"/>
  <path d="M13.6406 5.48438C13.1367 5.48438 12.7031 5.90625 12.7031 6.39844L12.7031 12.9844L12.7852 15.4336C12.8086 15.9492 13.2188 16.2422 13.6406 16.2422C14.0508 16.2422 14.4727 15.9492 14.4844 15.4336L14.5664 12.9844L14.5664 6.39844C14.5664 5.90625 14.1445 5.48438 13.6406 5.48438ZM13.6406 17.3086C13.875 17.3086 14.0742 17.2383 14.3086 16.9922L18.1758 13.2773C18.3516 13.1016 18.457 12.9023 18.457 12.6562C18.457 12.1758 18.082 11.8359 17.6016 11.8359C17.3672 11.8359 17.1328 11.9297 16.9688 12.1172L15.1758 14.0156L13.6406 15.6562L13.6406 15.6562L12.0938 14.0156L10.3008 12.1172C10.1367 11.9297 9.89062 11.8359 9.65625 11.8359C9.17578 11.8359 8.8125 12.1758 8.8125 12.6562C8.8125 12.9023 8.91797 13.1016 9.09375 13.2773L12.9609 16.9922C13.1953 17.2383 13.3945 17.3086 13.6406 17.3086Z" fill="black" fill-opacity="0.85"/>
 </g>
</svg>
