<?xml version="1.0" encoding="UTF-8"?>
<!--Generator: Apple Native CoreSVG 360-->
<!DOCTYPE svg
PUBLIC "-//W3C//DTD SVG 1.1//EN"
       "http://www.w3.org/Graphics/SVG/1.1/DTD/svg11.dtd">
<svg version="1.1" xmlns="http://www.w3.org/2000/svg" xmlns:xlink="http://www.w3.org/1999/xlink" viewBox="0 0 28.043 22.6201">
 <g>
  <rect height="22.6201" opacity="0" width="28.043" x="0" y="0"/>
  <path d="M21.4805 20.4683L21.7031 16.7066L21.7031 1.05031C21.7031 0.440932 21.2695 0.00733812 20.6602 0.00733812C20.0508 0.00733812 19.6055 0.440932 19.6055 1.05031L19.6055 16.7066L19.8633 20.4683C19.9102 20.9956 20.2852 21.2769 20.6719 21.2769C21.0703 21.2769 21.4453 20.9956 21.4805 20.4683ZM15.3984 14.7144C15.1992 14.5152 14.9648 14.4097 14.6719 14.4097C14.0625 14.4097 13.6289 14.8316 13.6289 15.4527C13.6289 15.7105 13.7578 16.0152 13.9688 16.2261L19.875 22.2612C20.3086 22.7183 21 22.7417 21.4453 22.2612L27.3516 16.2261C27.5625 16.0152 27.6914 15.7105 27.6914 15.4527C27.6914 14.8316 27.2578 14.4097 26.6484 14.4097C26.3438 14.4097 26.1211 14.5152 25.9219 14.7144L23.4844 17.2339L20.6602 20.5386L17.8359 17.2339Z" fill="black" fill-opacity="0.85"/>
  <path d="M7.85156 2.15187C7.81641 1.62453 7.42969 1.34328 7.04297 1.34328C6.65625 1.34328 6.28125 1.62453 6.23438 2.15187L5.97656 5.90187L5.97656 21.5581C5.97656 22.1675 6.41016 22.6128 7.03125 22.6128C7.64062 22.6128 8.07422 22.1675 8.07422 21.5581L8.07422 5.90187ZM1.76953 7.90578L4.20703 5.38624L7.03125 2.06984L9.84375 5.38624L12.293 7.90578C12.4922 8.10499 12.7148 8.19874 13.0195 8.19874C13.6289 8.19874 14.0508 7.78859 14.0508 7.16749C14.0508 6.89796 13.9336 6.59328 13.7227 6.39406L7.81641 0.347182C7.35938-0.121568 6.67969-0.109849 6.24609 0.347182L0.328125 6.39406C0.128906 6.59328 0 6.89796 0 7.16749C0 7.78859 0.421875 8.19874 1.03125 8.19874C1.33594 8.19874 1.57031 8.10499 1.76953 7.90578Z" fill="black" fill-opacity="0.85"/>
 </g>
</svg>
