<?xml version="1.0" encoding="UTF-8"?>
<!--Generator: Apple Native CoreSVG 360-->
<!DOCTYPE svg
PUBLIC "-//W3C//DTD SVG 1.1//EN"
       "http://www.w3.org/Graphics/SVG/1.1/DTD/svg11.dtd">
<svg version="1.1" xmlns="http://www.w3.org/2000/svg" xmlns:xlink="http://www.w3.org/1999/xlink" viewBox="0 0 26.0708 27.457">
 <g>
  <rect height="27.457" opacity="0" width="26.0708" x="0" y="0"/>
  <path d="M25.7209 25.6758L25.7209 16.4297C25.7209 15.0352 25.0881 14.4023 23.7053 14.4023L9.6897 14.4023C8.65845 14.4023 8.11939 15.1758 8.11939 15.9961C8.11939 16.5703 8.36548 17.1094 8.91626 17.4844L22.9202 27.082C23.3069 27.3398 23.7405 27.4453 24.1389 27.4453C24.9944 27.4453 25.7209 26.8828 25.7209 25.6758ZM23.8108 24.9375C23.8108 25.0898 23.6702 25.1133 23.5647 25.043L10.6858 16.5234C10.5803 16.4531 10.6038 16.3242 10.7327 16.3242L23.4709 16.3242C23.7405 16.3242 23.8108 16.3945 23.8108 16.6758ZM25.7209 1.76953C25.7209 0.5625 24.9944 0 24.1389 0C23.7405 0 23.3069 0.105469 22.9202 0.363281L8.91626 9.96094C8.36548 10.3359 8.11939 10.875 8.11939 11.4375C8.11939 12.2695 8.65845 13.043 9.6897 13.043L23.7053 13.043C25.0881 13.043 25.7209 12.4102 25.7209 11.0156ZM23.8108 2.50781L23.8108 10.7695C23.8108 11.0391 23.7405 11.1211 23.4709 11.1211L10.7327 11.1211C10.6038 11.1211 10.5803 10.9805 10.6858 10.9219L23.5647 2.40234C23.6702 2.32031 23.8108 2.34375 23.8108 2.50781Z" fill="black" fill-opacity="0.85"/>
  <path d="M0.842044 6.59766L5.54126 6.59766C6.34986 6.59766 6.64282 5.82422 6.15064 5.16797L3.80689 2.02734C3.49048 1.60547 2.88111 1.61719 2.57642 2.02734L0.232669 5.16797C-0.2478 5.82422 0.0451686 6.59766 0.842044 6.59766ZM3.19751 23.1094C3.57251 23.1094 3.8772 22.8047 3.8772 22.4297L3.8772 5.01562C3.8772 4.65234 3.57251 4.33594 3.19751 4.33594C2.83423 4.33594 2.51782 4.65234 2.51782 5.01562L2.51782 22.4297C2.51782 22.8047 2.83423 23.1094 3.19751 23.1094ZM0.842044 20.8477C0.0451686 20.8477-0.2478 21.6211 0.232669 22.2656L2.57642 25.4062C2.89282 25.8398 3.49048 25.8398 3.80689 25.4062L6.15064 22.2656C6.61939 21.6445 6.37329 20.8477 5.54126 20.8477Z" fill="black" fill-opacity="0.85"/>
 </g>
</svg>
