<?xml version="1.0" encoding="UTF-8"?>
<!--Generator: Apple Native CoreSVG 360-->
<!DOCTYPE svg
PUBLIC "-//W3C//DTD SVG 1.1//EN"
       "http://www.w3.org/Graphics/SVG/1.1/DTD/svg11.dtd">
<svg version="1.1" xmlns="http://www.w3.org/2000/svg" xmlns:xlink="http://www.w3.org/1999/xlink" viewBox="0 0 25.1836 21.457">
 <g>
  <rect height="21.457" opacity="0" width="25.1836" x="0" y="0"/>
  <path d="M13.9102 1.58203L23.0156 8.50781C24.3633 9.52734 24.832 10.4297 24.832 12.1055L24.832 17.8359C24.832 20.2852 23.625 21.457 21.1523 21.457L3.67969 21.457C1.19531 21.457 0 20.2852 0 17.8359L0 3.55078C0 1.20703 1.20703 0.0117188 3.57422 0.0117188L9.25781 0.0117188C11.168 0.0117188 12.3633 0.421875 13.9102 1.58203ZM5.33203 12.832C4.71094 12.832 4.41797 13.3359 4.75781 13.8867L7.3125 18.0469C7.62891 18.5742 8.25 18.5859 8.57812 18.0469L11.1094 13.8867C11.4492 13.3359 11.1797 12.832 10.5469 12.832ZM3.60938 1.89844C2.51953 1.89844 1.88672 2.50781 1.88672 3.64453L1.88672 8.90625C1.88672 10.0312 2.53125 10.6523 3.60938 10.6523L21.082 10.6523C21.7031 10.6523 21.832 9.98438 21.3516 9.63281L12.6211 2.95312C11.625 2.15625 10.7578 1.89844 9.25781 1.89844Z" fill="black" fill-opacity="0.85"/>
  <path d="M8.57812 3.70312L11.1094 7.86328C11.4492 8.41406 11.1797 8.91797 10.5469 8.91797L5.33203 8.91797C4.71094 8.91797 4.41797 8.41406 4.75781 7.86328L7.3125 3.70312C7.62891 3.17578 8.25 3.16406 8.57812 3.70312Z" fill="black" fill-opacity="0.85"/>
 </g>
</svg>
