<?xml version="1.0" encoding="UTF-8"?>
<!--Generator: Apple Native CoreSVG 360-->
<!DOCTYPE svg
PUBLIC "-//W3C//DTD SVG 1.1//EN"
       "http://www.w3.org/Graphics/SVG/1.1/DTD/svg11.dtd">
<svg version="1.1" xmlns="http://www.w3.org/2000/svg" xmlns:xlink="http://www.w3.org/1999/xlink" viewBox="0 0 28.2305 21.5977">
 <g>
  <rect height="21.5977" opacity="0" width="28.2305" x="0" y="0"/>
  <path d="M23.6602 18.1055C23.3203 20.3789 22.3945 21.5977 20.0859 21.5977L7.78125 21.5977C5.48438 21.5977 4.55859 20.3906 4.21875 18.1055L2.54297 6.94922L25.3242 6.94922ZM13.2891 9.48047L9.84375 12.6562C9.66797 12.832 9.53906 13.0312 9.53906 13.3008C9.53906 13.8047 9.90234 14.1445 10.4062 14.1445C10.6289 14.1445 10.875 14.0391 11.0508 13.8633L12.1172 12.7852L13.1379 11.7295L13.043 13.6992L13.043 18.0352C13.043 18.5273 13.4766 18.9375 13.9805 18.9375C14.4844 18.9375 14.9062 18.5273 14.9062 18.0352L14.9062 13.6992L14.8194 11.7329L15.8438 12.7852L16.8984 13.8633C17.0742 14.0391 17.3086 14.1445 17.543 14.1445C18.0234 14.1445 18.4102 13.8047 18.4102 13.3008C18.4102 13.0312 18.293 12.832 18.1055 12.6562L14.6602 9.48047C14.4023 9.25781 14.2266 9.17578 13.9805 9.17578C13.7344 9.17578 13.5586 9.25781 13.2891 9.48047ZM27.8789 2.12109L27.8789 3.25781C27.8789 4.57031 27.2109 5.35547 25.8867 5.35547L1.99219 5.35547C0.667969 5.35547 0 4.57031 0 3.25781L0 2.12109C0 0.808594 0.738281 0.0234375 1.99219 0.0234375L25.8867 0.0234375C27.2109 0.0234375 27.8789 0.808594 27.8789 2.12109Z" fill="black" fill-opacity="0.85"/>
 </g>
</svg>
