<?xml version="1.0" encoding="UTF-8"?>
<!--Generator: Apple Native CoreSVG 360-->
<!DOCTYPE svg
PUBLIC "-//W3C//DTD SVG 1.1//EN"
       "http://www.w3.org/Graphics/SVG/1.1/DTD/svg11.dtd">
<svg version="1.1" xmlns="http://www.w3.org/2000/svg" xmlns:xlink="http://www.w3.org/1999/xlink" viewBox="0 0 22.9571 27.6914">
 <g>
  <rect height="27.6914" opacity="0" width="22.9571" x="0" y="0"/>
  <path d="M20.461 19.8516L16.711 19.6172L1.04302 19.6172C0.445367 19.6172 5.49145e-05 20.0508 5.49145e-05 20.6602C5.49145e-05 21.2812 0.445367 21.7148 1.04302 21.7148L16.711 21.7148L20.461 21.457C20.9883 21.4102 21.2696 21.0352 21.2696 20.6484C21.2696 20.2617 20.9883 19.8867 20.461 19.8516ZM14.7071 25.9219C14.5079 26.1211 14.4141 26.3555 14.4141 26.6602C14.4141 27.2695 14.8243 27.6914 15.4454 27.6914C15.7149 27.6914 16.0196 27.5625 16.2188 27.3633L22.2657 21.457C22.7227 21.0117 22.7344 20.332 22.2657 19.875L16.2188 13.9688C16.0196 13.7695 15.7149 13.6406 15.4454 13.6406C14.8243 13.6406 14.4141 14.0625 14.4141 14.6719C14.4141 14.9766 14.5079 15.2109 14.7071 15.3984L17.2266 17.8477L20.543 20.6602L17.2266 23.4844Z" fill="black" fill-opacity="0.85"/>
  <path d="M2.14459 6.21094C1.61724 6.24609 1.33599 6.63281 1.33599 7.01953C1.33599 7.40625 1.61724 7.78125 2.14459 7.82812L5.9063 8.08594L21.5626 8.08594C22.1719 8.08594 22.6055 7.65234 22.6055 7.03125C22.6055 6.42188 22.1719 5.98828 21.5626 5.98828L5.9063 5.98828ZM7.89849 12.293L5.37896 9.85547L2.07427 7.03125L5.37896 4.21875L7.89849 1.76953C8.09771 1.57031 8.20318 1.34766 8.20318 1.04297C8.20318 0.433594 7.7813 0.0117188 7.16021 0.0117188C6.9024 0.0117188 6.59771 0.128906 6.38677 0.339844L0.351617 6.24609C-0.128851 6.70312-0.105414 7.38281 0.351617 7.81641L6.38677 13.7227C6.59771 13.9336 6.9024 14.0625 7.16021 14.0625C7.7813 14.0625 8.20318 13.6289 8.20318 13.0195C8.20318 12.7266 8.09771 12.4922 7.89849 12.293Z" fill="black" fill-opacity="0.85"/>
 </g>
</svg>
