<?xml version="1.0" encoding="UTF-8"?>
<!--Generator: Apple Native CoreSVG 360-->
<!DOCTYPE svg
PUBLIC "-//W3C//DTD SVG 1.1//EN"
       "http://www.w3.org/Graphics/SVG/1.1/DTD/svg11.dtd">
<svg version="1.1" xmlns="http://www.w3.org/2000/svg" xmlns:xlink="http://www.w3.org/1999/xlink" viewBox="0 0 26.9648 21.5977">
 <g>
  <rect height="21.5977" opacity="0" width="26.9648" x="0" y="0"/>
  <path d="M3.67969 21.4453L23.2852 21.4453C25.3828 21.4453 26.6133 20.2266 26.6133 17.8125L26.6133 5.77734C26.6133 3.36328 25.3711 2.14453 22.9336 2.14453L11.6836 2.14453C10.8867 2.14453 10.4062 1.95703 9.82031 1.45312L9.10547 0.867188C8.33203 0.210938 7.73438 0 6.57422 0L3.23438 0C1.18359 0 0 1.17188 0 3.52734L0 17.8125C0 20.2383 1.23047 21.4453 3.67969 21.4453ZM3.70312 19.5586C2.53125 19.5586 1.88672 18.9375 1.88672 17.7188L1.88672 3.63281C1.88672 2.47266 2.49609 1.875 3.62109 1.875L6.09375 1.875C6.86719 1.875 7.33594 2.07422 7.93359 2.57812L8.64844 3.17578C9.41016 3.80859 10.0312 4.03125 11.1914 4.03125L22.8984 4.03125C24.0586 4.03125 24.7266 4.66406 24.7266 5.88281L24.7266 17.7305C24.7266 18.9375 24.0586 19.5586 22.8984 19.5586Z" fill="black" fill-opacity="0.85"/>
  <path d="M13.3242 17.0977C13.7812 17.0977 14.168 16.7227 14.168 16.2656L14.168 10.2773L14.0859 8.0625C14.0742 7.58203 13.6992 7.32422 13.3242 7.32422C12.9375 7.32422 12.5742 7.58203 12.5508 8.0625L12.4688 10.2773L12.4688 16.2656C12.4688 16.7227 12.8555 17.0977 13.3242 17.0977ZM13.3242 6.35156C13.1016 6.35156 12.9141 6.42188 12.7031 6.63281L9.1875 10.0195C9.02344 10.1836 8.94141 10.3477 8.94141 10.582C8.94141 11.0156 9.25781 11.332 9.70312 11.332C9.91406 11.332 10.1367 11.25 10.2891 11.0742L11.918 9.33984L13.3242 7.85156L13.3242 7.85156L14.7188 9.33984L16.3477 11.0742C16.4883 11.25 16.7109 11.332 16.9219 11.332C17.3672 11.332 17.6953 11.0156 17.6953 10.582C17.6953 10.3477 17.6016 10.1836 17.4492 10.0195L13.9336 6.63281C13.7227 6.42188 13.5352 6.35156 13.3242 6.35156Z" fill="black" fill-opacity="0.85"/>
 </g>
</svg>
