<?xml version="1.0" encoding="UTF-8"?>
<!--Generator: Apple Native CoreSVG 360-->
<!DOCTYPE svg
PUBLIC "-//W3C//DTD SVG 1.1//EN"
       "http://www.w3.org/Graphics/SVG/1.1/DTD/svg11.dtd">
<svg version="1.1" xmlns="http://www.w3.org/2000/svg" xmlns:xlink="http://www.w3.org/1999/xlink" viewBox="0 0 23.1094 22.8164">
 <g>
  <rect height="22.8164" opacity="0" width="23.1094" x="0" y="0"/>
  <path d="M11.3704 12.8757L5.21276 19.0333L7.04297 20.8594C7.75781 21.5742 7.44141 22.7578 6.33984 22.7578L1.19531 22.7578C0.503906 22.7578 0 22.2891 0 21.5742L0 16.418C0 15.3047 1.17188 15 1.88672 15.7148L3.72866 17.5526L9.88742 11.3938ZM22.7578 1.19531L22.7578 6.35156C22.7578 7.45312 21.5742 7.75781 20.8594 7.04297L19.0312 5.21484L12.8523 11.3938L11.3704 9.91086L17.5488 3.73242L15.7148 1.89844C15 1.18359 15.3047 0 16.4062 0L21.5508 0C22.2422 0 22.7578 0.46875 22.7578 1.19531Z" fill="black" fill-opacity="0.85"/>
  <path d="M1.88672 7.04297L7.04297 1.89844C7.75781 1.18359 7.44141 0 6.33984 0L1.19531 0C0.503906 0 0 0.46875 0 1.19531L0 6.35156C0 7.45312 1.17188 7.75781 1.88672 7.04297ZM20.1797 20.2031C20.6016 19.8047 20.6016 19.1367 20.1797 18.7266L4.05469 2.58984C3.64453 2.16797 2.97656 2.17969 2.56641 2.58984C2.16797 3 2.16797 3.66797 2.56641 4.07812L18.7031 20.2031C19.1133 20.6133 19.7812 20.6133 20.1797 20.2031ZM20.8594 15.7148L15.7148 20.8594C15 21.5742 15.3047 22.7578 16.4062 22.7578L21.5508 22.7578C22.2422 22.7578 22.7578 22.2891 22.7578 21.5742L22.7578 16.418C22.7578 15.3047 21.5742 15 20.8594 15.7148Z" fill="black" fill-opacity="0.85"/>
 </g>
</svg>
