<?xml version="1.0" encoding="UTF-8"?>
<!--Generator: Apple Native CoreSVG 360-->
<!DOCTYPE svg
PUBLIC "-//W3C//DTD SVG 1.1//EN"
       "http://www.w3.org/Graphics/SVG/1.1/DTD/svg11.dtd">
<svg version="1.1" xmlns="http://www.w3.org/2000/svg" xmlns:xlink="http://www.w3.org/1999/xlink" viewBox="0 0 20.0625 25.1367">
 <g>
  <rect height="25.1367" opacity="0" width="20.0625" x="0" y="0"/>
  <path d="M9.01172 8.60156C9.01172 10.1016 9.72656 10.8164 11.2266 10.8164L19.7109 10.8164L19.7109 21.457C19.7109 23.8945 18.5039 25.125 16.0781 25.125L3.63281 25.125C1.20703 25.125 0 23.9062 0 21.457L0 3.67969C0 1.24219 1.21875 0 3.63281 0L9.01172 0ZM9.21094 13.1719L5.76562 16.3359C5.57812 16.5117 5.46094 16.7109 5.46094 16.9922C5.46094 17.4844 5.8125 17.8359 6.32812 17.8359C6.55078 17.8359 6.79688 17.7305 6.97266 17.5547L8.02734 16.4766L9.05171 15.4243L8.96484 17.3906L8.96484 21.7266C8.96484 22.2188 9.38672 22.6172 9.89062 22.6172C10.3945 22.6172 10.8281 22.2188 10.8281 21.7266L10.8281 17.3906L10.7332 15.4209L11.7539 16.4766L12.8203 17.5547C12.9961 17.7305 13.2188 17.8359 13.4648 17.8359C13.9453 17.8359 14.332 17.4844 14.332 16.9922C14.332 16.7109 14.2031 16.5117 14.0156 16.3359L10.5703 13.1719C10.3125 12.9492 10.1367 12.8672 9.89062 12.8672C9.64453 12.8672 9.46875 12.9492 9.21094 13.1719ZM12.1406 1.11328L18.5977 7.6875C19.1602 8.26172 19.5 8.73047 19.5703 9.21094L11.2617 9.21094C10.8281 9.21094 10.6172 9 10.6172 8.57812L10.6172 0.128906C11.1094 0.210938 11.5898 0.550781 12.1406 1.11328Z" fill="black" fill-opacity="0.85"/>
 </g>
</svg>
