<?xml version="1.0" encoding="UTF-8"?>
<!--Generator: Apple Native CoreSVG 360-->
<!DOCTYPE svg
PUBLIC "-//W3C//DTD SVG 1.1//EN"
       "http://www.w3.org/Graphics/SVG/1.1/DTD/svg11.dtd">
<svg version="1.1" xmlns="http://www.w3.org/2000/svg" xmlns:xlink="http://www.w3.org/1999/xlink" viewBox="0 0 22.5 21.8789">
 <g>
  <rect height="21.8789" opacity="0" width="22.5" x="0" y="0"/>
  <path d="M0 7.88672C0 8.16797 0.117188 8.4375 0.351562 8.66016L7.24219 15.4219C7.44141 15.6328 7.74609 15.75 7.99219 15.75C8.625 15.75 9.03516 15.3281 9.03516 14.7188C9.03516 14.4141 8.92969 14.1914 8.75391 14.0039L5.36719 10.7109L2.0625 7.88672L5.36719 5.05078L8.75391 1.75781C8.92969 1.57031 9.03516 1.34766 9.03516 1.04297C9.03516 0.433594 8.625 0.0117188 7.99219 0.0117188C7.74609 0.0117188 7.44141 0.128906 7.24219 0.339844L0.351562 7.10156C0.117188 7.32422 0 7.59375 0 7.88672ZM10.1836 20.8359C10.1836 21.4102 10.6055 21.8789 11.25 21.8789L13.957 21.8789C19.1953 21.8789 22.1484 18.8906 22.1484 14.4023C22.1484 9.92578 19.1133 6.83203 13.7695 6.83203L5.89453 6.83203L2.01562 7.00781C1.53516 7.03125 1.14844 7.39453 1.14844 7.88672C1.14844 8.36719 1.53516 8.73047 2.01562 8.75391L5.89453 8.92969L13.9453 8.92969C17.9414 8.92969 20.0508 11.1328 20.0508 14.2852C20.0508 17.4492 17.9414 19.793 13.9453 19.793L11.25 19.793C10.6055 19.793 10.1836 20.2617 10.1836 20.8359Z" fill="black" fill-opacity="0.85"/>
 </g>
</svg>
