<?xml version="1.0" encoding="UTF-8"?>
<!--Generator: Apple Native CoreSVG 360-->
<!DOCTYPE svg
PUBLIC "-//W3C//DTD SVG 1.1//EN"
       "http://www.w3.org/Graphics/SVG/1.1/DTD/svg11.dtd">
<svg version="1.1" xmlns="http://www.w3.org/2000/svg" xmlns:xlink="http://www.w3.org/1999/xlink" viewBox="0 0 14.3789 22.96">
 <g>
  <rect height="22.96" opacity="0" width="14.3789" x="0" y="0"/>
  <path d="M7.67578 0.399914L10.2891 4.1382C10.7461 4.78273 10.5234 5.35695 9.70312 5.35695L8.01562 5.35695L8.01562 3.55226C8.01562 2.97804 7.55859 2.53273 7.00781 2.53273C6.46875 2.53273 6.01172 2.97804 6.01172 3.55226L6.01172 5.35695L4.32422 5.35695C3.48047 5.35695 3.26953 4.78273 3.72656 4.12648L6.35156 0.399914C6.73828-0.139148 7.30078-0.127429 7.67578 0.399914Z" fill="black" fill-opacity="0.85"/>
  <path d="M12.8672 20.6265L13.4414 21.0132C13.8516 21.2827 14.0273 21.6343 14.0273 21.9624C14.0273 22.478 13.6055 22.9351 13.0078 22.9351C12.7617 22.9351 12.4922 22.853 12.2109 22.6655L11.7188 22.3374C9.95373 21.1657 8.10687 19.3538 7.01222 17.2922C7.63334 16.1392 8.01562 14.9069 8.01562 13.6655L8.04861 14.214C8.37378 16.9399 11.0325 19.396 12.8672 20.6265Z" fill="black" fill-opacity="0.85"/>
  <path d="M1.00781 22.9351C1.26562 22.9351 1.53516 22.853 1.81641 22.6655L2.30859 22.3374C5.05078 20.5093 8.01562 17.1226 8.01562 13.6655L8.01562 3.55226C8.01562 2.97804 7.55859 2.53273 7.00781 2.53273C6.46875 2.53273 6.01172 2.97804 6.01172 3.55226L6.01172 13.6655C6.01172 16.6069 3.11719 19.314 1.16016 20.6265L0.585938 21.0132C0.164062 21.2827 0 21.6343 0 21.9624C0 22.478 0.421875 22.9351 1.00781 22.9351Z" fill="black" fill-opacity="0.85"/>
 </g>
</svg>
