<?xml version="1.0" encoding="UTF-8"?>
<!--Generator: Apple Native CoreSVG 360-->
<!DOCTYPE svg
PUBLIC "-//W3C//DTD SVG 1.1//EN"
       "http://www.w3.org/Graphics/SVG/1.1/DTD/svg11.dtd">
<svg version="1.1" xmlns="http://www.w3.org/2000/svg" xmlns:xlink="http://www.w3.org/1999/xlink" viewBox="0 0 26.9648 21.5977">
 <g>
  <rect height="21.5977" opacity="0" width="26.9648" x="0" y="0"/>
  <path d="M3.67969 21.4453L23.2852 21.4453C25.3828 21.4453 26.6133 20.2266 26.6133 17.8125L26.6133 5.77734C26.6133 3.36328 25.3711 2.14453 22.9336 2.14453L11.6836 2.14453C10.8867 2.14453 10.4062 1.95703 9.82031 1.45312L9.10547 0.867188C8.33203 0.210938 7.73438 0 6.57422 0L3.23438 0C1.18359 0 0 1.17188 0 3.52734L0 17.8125C0 20.2383 1.23047 21.4453 3.67969 21.4453ZM3.70312 19.5586C2.53125 19.5586 1.88672 18.9375 1.88672 17.7188L1.88672 3.63281C1.88672 2.47266 2.49609 1.875 3.62109 1.875L6.09375 1.875C6.86719 1.875 7.33594 2.07422 7.93359 2.57812L8.64844 3.17578C9.41016 3.80859 10.0312 4.03125 11.1914 4.03125L22.8984 4.03125C24.0586 4.03125 24.7266 4.66406 24.7266 5.88281L24.7266 17.7305C24.7266 18.9375 24.0586 19.5586 22.8984 19.5586Z" fill="black" fill-opacity="0.85"/>
  <path d="M8.32031 12.6445L15.1055 12.6445L17.2266 12.5625C17.6953 12.5391 18.082 12.1875 18.082 11.7188C18.082 11.25 17.6953 10.8984 17.2266 10.875L15.1055 10.793L8.32031 10.7812C7.82812 10.7812 7.40625 11.2148 7.40625 11.7188C7.40625 12.2227 7.82812 12.6445 8.32031 12.6445ZM14.5781 16.5352C14.8242 16.5352 15.0117 16.4414 15.1875 16.2539L18.9141 12.3984C19.1484 12.1641 19.2305 11.9531 19.2305 11.7188C19.2305 11.4727 19.1484 11.2734 18.9141 11.0391L15.1875 7.17188C15.0117 6.99609 14.8242 6.90234 14.5781 6.90234C14.0977 6.90234 13.7461 7.26562 13.7461 7.75781C13.7461 7.98047 13.8398 8.22656 14.0273 8.39062L15.9375 10.1719L17.5781 11.7188L17.5781 11.7188L15.9375 13.2656L14.0273 15.0469C13.8398 15.2109 13.7461 15.4688 13.7461 15.6914C13.7461 16.1836 14.0977 16.5352 14.5781 16.5352Z" fill="black" fill-opacity="0.85"/>
 </g>
</svg>
