<?xml version="1.0" encoding="UTF-8"?>
<!--Generator: Apple Native CoreSVG 360-->
<!DOCTYPE svg
PUBLIC "-//W3C//DTD SVG 1.1//EN"
       "http://www.w3.org/Graphics/SVG/1.1/DTD/svg11.dtd">
<svg version="1.1" xmlns="http://www.w3.org/2000/svg" xmlns:xlink="http://www.w3.org/1999/xlink" viewBox="0 0 36 22.2773">
 <g>
  <rect height="22.2773" opacity="0" width="36" x="0" y="0"/>
  <path d="M20.918 11.1328C20.918 11.4258 21.0469 11.6953 21.2812 11.918L26.6484 17.2734C26.8945 17.5078 27.1523 17.6133 27.4336 17.6133C28.0078 17.6133 28.4531 17.1797 28.4531 16.5938C28.4531 16.3125 28.3711 16.0312 28.1602 15.8438L23.1562 11.1328L28.1602 6.42188C28.3711 6.22266 28.4531 5.95312 28.4531 5.67188C28.4531 5.07422 28.0078 4.65234 27.4336 4.65234C27.1523 4.65234 26.8945 4.75781 26.6484 4.99219L21.2812 10.3477C21.0469 10.5703 20.918 10.8398 20.918 11.1328ZM23.5195 10.1719C22.9922 10.1836 22.5586 10.5938 22.5586 11.1328C22.5586 11.6719 22.9922 12.082 23.5195 12.0938L26.6367 12.1758L34.6172 12.1758C35.2266 12.1758 35.6484 11.7422 35.6484 11.1328C35.6484 10.5234 35.2266 10.0781 34.6172 10.0781L26.6367 10.0781Z" fill="black" fill-opacity="0.85"/>
  <path d="M17.8359 22.2773C18.4453 22.2773 18.8789 21.8438 18.8789 21.2344L18.8789 1.01953C18.8789 0.421875 18.4453 0 17.8359 0C17.2266 0 16.7812 0.421875 16.7812 1.01953L16.7812 21.2344C16.7812 21.8438 17.2266 22.2773 17.8359 22.2773Z" fill="black" fill-opacity="0.85"/>
  <path d="M14.7305 11.1328C14.7305 10.8398 14.6016 10.5703 14.3672 10.3477L9 4.99219C8.75391 4.75781 8.50781 4.65234 8.22656 4.65234C7.64062 4.65234 7.19531 5.07422 7.19531 5.67188C7.19531 5.95312 7.27734 6.22266 7.48828 6.42188L12.5039 11.1328L7.48828 15.8438C7.27734 16.0312 7.19531 16.3125 7.19531 16.5938C7.19531 17.1797 7.64062 17.6133 8.22656 17.6133C8.50781 17.6133 8.75391 17.5078 9 17.2734L14.3672 11.918C14.6016 11.6953 14.7305 11.4258 14.7305 11.1328ZM12.1289 10.1719L9.02344 10.0781L1.03125 10.0781C0.421875 10.0781 0 10.5234 0 11.1328C0 11.7422 0.421875 12.1758 1.03125 12.1758L9.02344 12.1758L12.1289 12.0938C12.668 12.082 13.0898 11.6719 13.0898 11.1328C13.0898 10.5938 12.668 10.1836 12.1289 10.1719Z" fill="black" fill-opacity="0.85"/>
 </g>
</svg>
