<?xml version="1.0" encoding="UTF-8"?>
<!--Generator: Apple Native CoreSVG 360-->
<!DOCTYPE svg
PUBLIC "-//W3C//DTD SVG 1.1//EN"
       "http://www.w3.org/Graphics/SVG/1.1/DTD/svg11.dtd">
<svg version="1.1" xmlns="http://www.w3.org/2000/svg" xmlns:xlink="http://www.w3.org/1999/xlink" viewBox="0 0 27.9844 21.5742">
 <g>
  <rect height="21.5742" opacity="0" width="27.9844" x="0" y="0"/>
  <path d="M3.67969 21.5742L23.9531 21.5742C26.4141 21.5742 27.6328 20.3672 27.6328 17.9531L27.6328 3.63281C27.6328 1.21875 26.4141 0 23.9531 0L3.67969 0C1.23047 0 0 1.21875 0 3.63281L0 17.9531C0 20.3672 1.23047 21.5742 3.67969 21.5742ZM3.70312 19.6875C2.53125 19.6875 1.88672 19.0664 1.88672 17.8477L1.88672 3.73828C1.88672 2.51953 2.53125 1.88672 3.70312 1.88672L23.9297 1.88672C25.0898 1.88672 25.7461 2.51953 25.7461 3.73828L25.7461 17.8477C25.7461 19.0664 25.0898 19.6875 23.9297 19.6875Z" fill="black" fill-opacity="0.85"/>
  <path d="M3.96094 5.16797L7.5 8.70703L9.72656 10.793C10.582 11.6016 11.5898 10.5 10.8164 9.67969L8.74219 7.47656L5.20312 3.9375C5.03906 3.77344 4.82812 3.66797 4.54688 3.66797C4.01953 3.66797 3.67969 4.01953 3.67969 4.54688C3.67969 4.78125 3.79688 5.00391 3.96094 5.16797ZM11.0039 11.9414C11.6484 11.9414 11.9766 11.625 11.9766 10.9688L11.9766 5.57812C11.9648 5.02734 11.625 4.6875 11.1094 4.6875C10.5938 4.6875 10.2539 5.03906 10.2422 5.61328L10.2422 7.45312L10.6055 10.582L7.60547 10.2188L5.64844 10.2188C5.07422 10.2305 4.72266 10.5703 4.72266 11.0859C4.72266 11.6016 5.0625 11.9297 5.61328 11.9414Z" fill="black" fill-opacity="0.85"/>
 </g>
</svg>
