<?xml version="1.0" encoding="UTF-8"?>
<!--Generator: Apple Native CoreSVG 360-->
<!DOCTYPE svg
PUBLIC "-//W3C//DTD SVG 1.1//EN"
       "http://www.w3.org/Graphics/SVG/1.1/DTD/svg11.dtd">
<svg version="1.1" xmlns="http://www.w3.org/2000/svg" xmlns:xlink="http://www.w3.org/1999/xlink" viewBox="0 0 25.8067 28.2773">
 <g>
  <rect height="28.2773" opacity="0" width="25.8067" x="0" y="0"/>
  <path d="M3.52718 15.4441C1.8855 17.3785 1.29967 19.1408 1.99322 20.3438C2.69351 21.5539 4.51437 21.9301 7.00955 21.4806C7.16003 22.0795 7.3352 22.6372 7.5319 23.153C4.1541 23.7358 1.57715 23.0826 0.493217 21.2109C-0.584394 19.3386 0.137925 16.7811 2.33462 14.1499C2.68445 14.5801 3.08165 15.0126 3.52718 15.4441ZM12.7419 21.5224C11.5237 22.0562 10.35 22.4734 9.24465 22.7675C9.05326 22.2561 8.88364 21.6873 8.73738 21.0686C9.31346 20.9043 9.91784 20.6996 10.5433 20.459C11.2913 20.8626 12.0264 21.2184 12.7419 21.5224ZM17.1002 19.2208C16.7633 19.4341 16.414 19.6442 16.0557 19.8516C15.6809 20.0674 15.3083 20.2732 14.9402 20.4628C14.2316 20.1907 13.4956 19.8717 12.7384 19.5059C13.5114 19.1347 14.307 18.7143 15.1182 18.2461C15.9209 17.7825 16.6753 17.3087 17.3747 16.8296C17.3125 17.6711 17.22 18.4699 17.1002 19.2208ZM21.9499 15.442C21.1398 16.2544 20.193 17.0643 19.1168 17.8533C19.2125 17.077 19.2728 16.2574 19.2982 15.4027C19.821 14.9833 20.2969 14.5643 20.7286 14.149C21.1931 14.5864 21.6021 15.0192 21.9499 15.442ZM6.16772 12.9066C5.65059 13.3216 5.17946 13.7364 4.75149 14.1475C4.28696 13.7098 3.8778 13.2768 3.52966 12.8537C4.33602 12.0484 5.27683 11.2455 6.34475 10.4633C6.25057 11.2373 6.19157 12.0542 6.16772 12.9066ZM24.962 7.08984C26.0399 8.96277 25.3246 11.5174 23.1395 14.1461C22.7911 13.716 22.3953 13.2837 21.9513 12.8524C23.5851 10.9236 24.167 9.16568 23.4737 7.95703C22.7725 6.74534 20.9511 6.36654 18.4574 6.81563C18.3063 6.21652 18.1303 5.65847 17.9327 5.14253C21.3029 4.55956 23.8768 5.21604 24.962 7.08984ZM12.7389 8.7912C11.9735 9.16058 11.1862 9.57811 10.3838 10.043C9.56672 10.5131 8.79947 10.9942 8.08848 11.4809C8.15014 10.6443 8.24117 9.84897 8.35856 9.09996C8.7124 8.87571 9.08024 8.65505 9.45806 8.4375C9.82459 8.22543 10.1889 8.02302 10.5489 7.83702C11.2537 8.10864 11.9857 8.42654 12.7389 8.7912ZM16.7323 7.22718C16.1592 7.39088 15.5583 7.59476 14.9365 7.83436C14.1896 7.4324 13.4555 7.07746 12.7411 6.77416C13.9541 6.23998 15.1231 5.82259 16.2243 5.52845C16.4162 6.03948 16.5861 6.60817 16.7323 7.22718Z" fill="black" fill-opacity="0.85"/>
  <path d="M24.962 21.2109C23.8768 23.078 21.303 23.7316 17.9318 23.1492C18.129 22.6332 18.3047 22.0752 18.4556 21.476C20.9522 21.9308 22.7727 21.5551 23.4737 20.3438C24.4749 18.6136 22.8499 15.7579 19.2988 12.8915C19.2743 12.0403 19.2148 11.2243 19.12 10.4511C24.2522 14.2131 26.5479 18.4455 24.962 21.2109ZM10.3838 18.2578C12.6723 19.5794 14.8376 20.5191 16.7295 21.0663C16.583 21.6857 16.413 22.2551 16.2212 22.7668C14.1509 22.2137 11.8507 21.2438 9.45806 19.8633C9.08094 19.6461 8.71376 19.4259 8.36297 19.2013C8.24469 18.4526 8.15307 17.6569 8.09124 16.8193C8.80235 17.3057 9.56826 17.7871 10.3838 18.2578ZM7.53 5.14159C7.33297 5.65727 7.15761 6.21502 7.00695 6.81382C4.51116 6.35967 2.69289 6.73623 1.99322 7.94531C1.00285 9.67189 2.62127 12.5259 6.1684 15.3945C6.1933 16.2449 6.25269 17.0604 6.34705 17.8329C1.21034 14.0671-1.08944 9.83788 0.493217 7.07812C1.57685 5.21373 4.15268 4.55932 7.53 5.14159ZM16.0557 8.44922L17.1056 9.08524C17.2239 9.83519 17.3155 10.6321 17.3774 11.4707C16.6752 10.9919 15.9208 10.5182 15.1182 10.0547C12.8146 8.72076 10.6364 7.77399 8.73485 7.22366C8.88115 6.60443 9.05102 6.03553 9.24278 5.52432C11.3266 6.07984 13.644 7.05665 16.0557 8.44922Z" fill="black" fill-opacity="0.85"/>
  <path d="M12.7276 28.2773C16.4893 28.2773 19.3252 22.5117 19.3252 14.1328C19.3252 5.77734 16.4893 0.0234375 12.7276 0.0234375C8.96587 0.0234375 6.14165 5.77734 6.14165 14.1328C6.14165 22.5117 8.96587 28.2773 12.7276 28.2773ZM12.7276 26.5547C10.0674 26.5547 7.99322 21.4922 7.99322 14.1328C7.99322 6.78516 10.0674 1.74609 12.7276 1.74609C15.3995 1.74609 17.4737 6.78516 17.4737 14.1328C17.4737 21.4922 15.3995 26.5547 12.7276 26.5547Z" fill="black" fill-opacity="0.85"/>
  <path d="M12.7276 16.6406C14.0987 16.6406 15.212 15.5273 15.212 14.1445C15.212 12.7734 14.0987 11.6602 12.7276 11.6602C11.3448 11.6602 10.2315 12.7734 10.2315 14.1445C10.2315 15.5273 11.3448 16.6406 12.7276 16.6406Z" fill="black" fill-opacity="0.85"/>
 </g>
</svg>
