<?xml version="1.0" encoding="UTF-8"?>
<!--Generator: Apple Native CoreSVG 360-->
<!DOCTYPE svg
PUBLIC "-//W3C//DTD SVG 1.1//EN"
       "http://www.w3.org/Graphics/SVG/1.1/DTD/svg11.dtd">
<svg version="1.1" xmlns="http://www.w3.org/2000/svg" xmlns:xlink="http://www.w3.org/1999/xlink" viewBox="0 0 7.13672 26.7305">
 <g>
  <rect height="26.7305" opacity="0" width="7.13672" x="0" y="0"/>
  <path d="M3.39844 22.0547C5.26172 22.0547 6.78516 20.5312 6.78516 18.668L6.78516 12.0117C6.78516 11.6016 6.49219 11.3203 6.08203 11.3203L0.714844 11.3203C0.28125 11.3203 0 11.6016 0 12.0117L0 18.668C0 20.5312 1.52344 22.0547 3.39844 22.0547ZM2.41406 26.7305L4.37109 26.7305L4.37109 21.293L2.41406 21.293ZM2.27344 9.94922L4.51172 9.94922L4.51172 3.52734L2.27344 3.52734ZM2.27344 2.27344L4.51172 2.27344L4.51172 0.714844C4.51172 0.28125 4.23047 0 3.82031 0L2.96484 0C2.55469 0 2.27344 0.28125 2.27344 0.714844Z" fill="black" fill-opacity="0.85"/>
 </g>
</svg>
