<?xml version="1.0" encoding="UTF-8"?>
<!--Generator: Apple Native CoreSVG 360-->
<!DOCTYPE svg
PUBLIC "-//W3C//DTD SVG 1.1//EN"
       "http://www.w3.org/Graphics/SVG/1.1/DTD/svg11.dtd">
<svg version="1.1" xmlns="http://www.w3.org/2000/svg" xmlns:xlink="http://www.w3.org/1999/xlink" viewBox="0 0 7.13672 26.7305">
 <g>
  <rect height="26.7305" opacity="0" width="7.13672" x="0" y="0"/>
  <path d="M3.39844 22.6406C5.26172 22.6406 6.78516 21.1289 6.78516 19.2656L6.78516 13.8867C6.78516 13.4648 6.49219 13.1836 6.08203 13.1836L0.714844 13.1836C0.28125 13.1836 0 13.4648 0 13.8867L0 19.2656C0 21.1289 1.52344 22.6406 3.39844 22.6406ZM2.41406 26.7305L4.37109 26.7305L4.37109 21.8789L2.41406 21.8789ZM2.27344 11.8242L4.51172 11.8242L4.51172 6.60938L2.27344 6.60938ZM2.27344 5.35547L4.51172 5.35547L4.51172 3.44531L2.27344 3.44531ZM2.27344 2.20312L4.51172 2.20312L4.51172 0.714844C4.51172 0.28125 4.23047 0 3.82031 0L2.96484 0C2.55469 0 2.27344 0.28125 2.27344 0.714844Z" fill="black" fill-opacity="0.85"/>
 </g>
</svg>
