<?xml version="1.0" encoding="UTF-8"?>
<!--Generator: Apple Native CoreSVG 360-->
<!DOCTYPE svg
PUBLIC "-//W3C//DTD SVG 1.1//EN"
       "http://www.w3.org/Graphics/SVG/1.1/DTD/svg11.dtd">
<svg version="1.1" xmlns="http://www.w3.org/2000/svg" xmlns:xlink="http://www.w3.org/1999/xlink" viewBox="0 0 28.582 23.5195">
 <g>
  <rect height="23.5195" opacity="0" width="28.582" x="0" y="0"/>
  <path d="M28.2305 14.1094C28.2305 10.6641 26.9883 7.48828 24.9141 5.02734C24.6797 4.74609 24.2812 4.74609 24.0234 5.01562L21.3047 7.73438C21.082 7.95703 21.0703 8.27344 21.2695 8.51953C22.4766 10.0664 23.2031 12.0117 23.2031 14.1094C23.2031 16.2188 22.4766 18.1641 21.1992 19.793C21.0352 19.9922 21.0469 20.25 21.2227 20.4375L24.0117 23.2266C24.2812 23.4961 24.668 23.4961 24.9141 23.2031C26.9883 20.7422 28.2305 17.5664 28.2305 14.1094Z" fill="black" fill-opacity="0.85"/>
  <path d="M14.1094 5.02734C16.2305 5.02734 18.1758 5.76562 19.7344 6.97266C19.9688 7.16016 20.2734 7.13672 20.4961 6.91406L23.2148 4.19531C23.4844 3.92578 23.4727 3.53906 23.1914 3.30469C20.7422 1.24219 17.5664 0 14.1094 0C10.6641 0 7.48828 1.24219 5.03906 3.30469C4.75781 3.53906 4.74609 3.92578 5.01562 4.19531L7.73438 6.91406C7.95703 7.13672 8.27344 7.16016 8.53125 6.96094C10.0781 5.76562 12.0117 5.02734 14.1094 5.02734Z" fill="black" fill-opacity="0.85"/>
  <path d="M0 14.1094C0 17.5664 1.24219 20.7422 3.31641 23.2031C3.55078 23.4961 3.94922 23.4961 4.20703 23.2266L6.99609 20.4375C7.17188 20.25 7.19531 19.9922 7.03125 19.793C5.75391 18.1641 5.02734 16.2188 5.02734 14.1094C5.02734 12.0117 5.74219 10.0664 6.96094 8.51953C7.14844 8.27344 7.14844 7.95703 6.92578 7.73438L4.20703 5.01562C3.9375 4.74609 3.55078 4.74609 3.31641 5.02734C1.24219 7.48828 0 10.6641 0 14.1094Z" fill="black" fill-opacity="0.85"/>
  <path d="M8.37891 18.7617C8.69531 18.7617 8.90625 18.5859 8.98828 18.2344L9.48047 16.3242L12.2695 16.3242L12.7734 18.2344C12.8672 18.5859 13.0547 18.7617 13.418 18.7617C13.7227 18.7617 14.0039 18.5742 14.0039 18.1758C14.0039 18.0586 13.9922 17.9414 13.9453 17.7891L11.8242 10.3477C11.6719 9.84375 11.4023 9.58594 10.8867 9.58594C10.3711 9.58594 10.0781 9.86719 9.9375 10.3594L7.82812 17.7891C7.79297 17.918 7.76953 18.0469 7.76953 18.1758C7.76953 18.5742 8.05078 18.7617 8.37891 18.7617ZM9.73828 15.3047L10.8164 11.1094L10.9102 11.1094L12.0117 15.3047ZM17.4727 18.4922C18.9727 18.4922 20.1094 17.707 20.1094 16.207C20.1094 14.8828 19.3359 14.3789 18.1875 13.8281L17.3789 13.4414C16.7344 13.1367 16.1016 12.7383 16.1016 12C16.1016 11.2383 16.6992 10.8516 17.4492 10.8516C18.2695 10.8516 18.6211 11.3438 18.8203 12.1289C18.9023 12.4102 19.0781 12.5859 19.3711 12.5859C19.7227 12.5859 19.957 12.375 19.957 12.0234C19.957 11.9062 19.9336 11.7539 19.8867 11.5898C19.5938 10.4648 18.7031 9.85547 17.4492 9.85547C16.0195 9.85547 14.9062 10.6523 14.9062 12.0703C14.9062 13.2773 15.5859 13.8984 16.7695 14.4492L17.5781 14.8359C18.3047 15.1641 18.9141 15.5273 18.9141 16.3125C18.9141 17.1094 18.3516 17.4844 17.4727 17.4844C16.5117 17.4844 16.1133 16.9219 15.9609 16.2188C15.8672 15.8555 15.668 15.7031 15.3867 15.7031C15.0586 15.7031 14.8008 15.9141 14.8008 16.2773C14.8008 16.4062 14.8125 16.5234 14.8477 16.6406C15.0586 17.7305 16.125 18.4922 17.4727 18.4922ZM17.4609 19.6523C17.625 19.6523 17.7656 19.5117 17.7656 19.3477L17.7656 9.01172C17.7656 8.84766 17.625 8.69531 17.4609 8.69531C17.2852 8.69531 17.1445 8.84766 17.1445 9.01172L17.1445 19.3477C17.1445 19.5117 17.2852 19.6523 17.4609 19.6523Z" fill="black" fill-opacity="0.85"/>
 </g>
</svg>
