<?xml version="1.0" encoding="UTF-8"?>
<!--Generator: Apple Native CoreSVG 360-->
<!DOCTYPE svg
PUBLIC "-//W3C//DTD SVG 1.1//EN"
       "http://www.w3.org/Graphics/SVG/1.1/DTD/svg11.dtd">
<svg version="1.1" xmlns="http://www.w3.org/2000/svg" xmlns:xlink="http://www.w3.org/1999/xlink" viewBox="0 0 28.582 23.4085">
 <g>
  <rect height="23.4085" opacity="0" width="28.582" x="0" y="0"/>
  <path d="M28.2305 14.0539C28.2305 6.67105 22.5586 0.612457 15.3398 0.00308175C14.9648-0.0320745 14.6836 0.237457 14.6836 0.612457L14.6836 4.44449C14.6836 4.76089 14.9062 5.00699 15.2227 5.03043C19.7109 5.58121 23.2031 9.41324 23.2031 14.0539C23.2031 16.1632 22.4766 18.1086 21.1992 19.7375C21.0352 19.9367 21.0469 20.1945 21.2227 20.382L24.0234 23.1711C24.2812 23.4289 24.6797 23.4289 24.9141 23.1476C26.9883 20.6867 28.2305 17.5109 28.2305 14.0539Z" fill="black" fill-opacity="0.85"/>
  <path d="M0 14.0539C0 17.5226 1.24219 20.6984 3.31641 23.1593C3.55078 23.4406 3.9375 23.4289 4.20703 23.1711L7.00781 20.382C7.18359 20.1945 7.19531 19.9367 7.03125 19.7375C5.74219 18.1086 5.02734 16.1632 5.02734 14.0539C5.02734 9.41324 8.51953 5.58121 13.0078 5.03043C13.3242 5.00699 13.5469 4.76089 13.5469 4.44449L13.5469 0.612457C13.5469 0.237457 13.2656-0.0320745 12.8906 0.00308175C5.67188 0.612457 0 6.67105 0 14.0539Z" fill="black" fill-opacity="0.85"/>
  <path d="M10.7344 19.6554C11.0859 19.6554 11.2852 19.4796 11.3789 19.1398L14.0742 10.3859L14.1211 10.3859L16.8164 19.1515C16.8984 19.4562 17.0859 19.6554 17.4727 19.6554C17.8359 19.6554 18.1406 19.4445 18.1406 19.0578C18.1406 18.9289 18.1172 18.8 18.082 18.6828L15.0234 9.42496C14.8828 8.96793 14.6016 8.72183 14.0977 8.72183C13.6172 8.72183 13.3008 8.97964 13.1602 9.42496L10.1133 18.7296C10.0664 18.8468 10.043 18.9523 10.043 19.0578C10.043 19.4328 10.3477 19.6554 10.7344 19.6554ZM9.57422 14.464C9.57422 14.675 9.75 14.8507 9.96094 14.8507L18.2344 14.8507C18.457 14.8507 18.6211 14.675 18.6211 14.464C18.6211 14.2531 18.457 14.0773 18.2344 14.0773L9.96094 14.0773C9.75 14.0773 9.57422 14.2531 9.57422 14.464ZM9.57422 16.5851C9.57422 16.7961 9.75 16.9718 9.96094 16.9718L18.2344 16.9718C18.457 16.9718 18.6211 16.7961 18.6211 16.5851C18.6211 16.3625 18.457 16.1984 18.2344 16.1984L9.96094 16.1984C9.75 16.1984 9.57422 16.3625 9.57422 16.5851Z" fill="black" fill-opacity="0.85"/>
 </g>
</svg>
