<?xml version="1.0" encoding="UTF-8"?>
<!--Generator: Apple Native CoreSVG 360-->
<!DOCTYPE svg
PUBLIC "-//W3C//DTD SVG 1.1//EN"
       "http://www.w3.org/Graphics/SVG/1.1/DTD/svg11.dtd">
<svg version="1.1" xmlns="http://www.w3.org/2000/svg" xmlns:xlink="http://www.w3.org/1999/xlink" viewBox="0 0 28.582 23.4085">
 <g>
  <rect height="23.4085" opacity="0" width="28.582" x="0" y="0"/>
  <path d="M28.2305 14.0539C28.2305 6.67105 22.5586 0.612457 15.3398 0.00308175C14.9648-0.0320745 14.6836 0.237457 14.6836 0.612457L14.6836 4.44449C14.6836 4.76089 14.9062 5.00699 15.2227 5.03043C19.7109 5.58121 23.2031 9.41324 23.2031 14.0539C23.2031 16.1632 22.4766 18.1086 21.1992 19.7375C21.0352 19.9367 21.0469 20.1945 21.2227 20.382L24.0234 23.1711C24.2812 23.4289 24.6797 23.4289 24.9141 23.1476C26.9883 20.6867 28.2305 17.5109 28.2305 14.0539Z" fill="black" fill-opacity="0.85"/>
  <path d="M0 14.0539C0 17.5226 1.24219 20.6984 3.31641 23.1593C3.55078 23.4406 3.9375 23.4289 4.20703 23.1711L7.00781 20.382C7.18359 20.1945 7.19531 19.9367 7.03125 19.7375C5.74219 18.1086 5.02734 16.1632 5.02734 14.0539C5.02734 9.41324 8.51953 5.58121 13.0078 5.03043C13.3242 5.00699 13.5469 4.76089 13.5469 4.44449L13.5469 0.612457C13.5469 0.237457 13.2656-0.0320745 12.8906 0.00308175C5.67188 0.612457 0 6.67105 0 14.0539Z" fill="black" fill-opacity="0.85"/>
  <path d="M8.37891 18.7062C8.69531 18.7062 8.90625 18.5304 8.98828 18.1789L9.48047 16.2687L12.2695 16.2687L12.7734 18.1789C12.8672 18.5304 13.0547 18.7062 13.418 18.7062C13.7227 18.7062 14.0039 18.5187 14.0039 18.1203C14.0039 18.0031 13.9922 17.8859 13.9453 17.7336L11.8242 10.2921C11.6719 9.78824 11.4023 9.53043 10.8867 9.53043C10.3711 9.53043 10.0781 9.81168 9.9375 10.3039L7.82812 17.7336C7.79297 17.8625 7.76953 17.9914 7.76953 18.1203C7.76953 18.5187 8.05078 18.7062 8.37891 18.7062ZM9.73828 15.2492L10.8164 11.0539L10.9102 11.0539L12.0117 15.2492ZM17.4727 18.4367C18.9727 18.4367 20.1094 17.6515 20.1094 16.1515C20.1094 14.8273 19.3359 14.3234 18.1875 13.7726L17.3789 13.3859C16.7344 13.0812 16.1016 12.6828 16.1016 11.9445C16.1016 11.1828 16.6992 10.7961 17.4492 10.7961C18.2695 10.7961 18.6211 11.2882 18.8203 12.0734C18.9023 12.3546 19.0781 12.5304 19.3711 12.5304C19.7227 12.5304 19.957 12.3195 19.957 11.9679C19.957 11.8507 19.9336 11.6984 19.8867 11.5343C19.5938 10.4093 18.7031 9.79996 17.4492 9.79996C16.0195 9.79996 14.9062 10.5968 14.9062 12.0148C14.9062 13.2218 15.5859 13.8429 16.7695 14.3937L17.5781 14.7804C18.3047 15.1086 18.9141 15.4718 18.9141 16.257C18.9141 17.0539 18.3516 17.4289 17.4727 17.4289C16.5117 17.4289 16.1133 16.8664 15.9609 16.1632C15.8672 15.8 15.668 15.6476 15.3867 15.6476C15.0586 15.6476 14.8008 15.8586 14.8008 16.2218C14.8008 16.3507 14.8125 16.4679 14.8477 16.5851C15.0586 17.675 16.125 18.4367 17.4727 18.4367ZM17.4609 19.5968C17.625 19.5968 17.7656 19.4562 17.7656 19.2921L17.7656 8.95621C17.7656 8.79214 17.625 8.6398 17.4609 8.6398C17.2852 8.6398 17.1445 8.79214 17.1445 8.95621L17.1445 19.2921C17.1445 19.4562 17.2852 19.5968 17.4609 19.5968Z" fill="black" fill-opacity="0.85"/>
 </g>
</svg>
