<?xml version="1.0" encoding="UTF-8"?>
<!--Generator: Apple Native CoreSVG 360-->
<!DOCTYPE svg
PUBLIC "-//W3C//DTD SVG 1.1//EN"
       "http://www.w3.org/Graphics/SVG/1.1/DTD/svg11.dtd">
<svg version="1.1" xmlns="http://www.w3.org/2000/svg" xmlns:xlink="http://www.w3.org/1999/xlink" viewBox="0 0 31.4297 26.4258">
 <g>
  <rect height="26.4258" opacity="0" width="31.4297" x="0" y="0"/>
  <path d="M1.13672 24.2344C1.74609 24.2344 2.09766 23.9414 2.27344 23.332L3.94922 17.8008L11.6133 17.8008L13.2891 23.332C13.4648 23.9414 13.8164 24.2344 14.4492 24.2344C15.0703 24.2344 15.5742 23.8359 15.5742 23.2031C15.5742 23.0273 15.5039 22.7227 15.4453 22.5352L9.41016 3.45703C9.16406 2.63672 8.67188 2.12109 7.79297 2.12109C6.91406 2.12109 6.42188 2.625 6.16406 3.46875L0.140625 22.5352C0.0820312 22.7344 0 22.9805 0 23.2031C0 23.8359 0.492188 24.2344 1.13672 24.2344ZM4.52344 15.832L7.72266 5.15625L7.81641 5.15625L11.0391 15.832ZM24.5977 23.6133C28.2539 23.6133 31.0781 21.6914 31.0781 18.1055C31.0781 14.8711 28.8281 13.582 26.0977 12.4805L24.0938 11.6719C22.2891 10.9688 20.5547 9.94922 20.5547 7.94531C20.5547 5.84766 22.4062 4.73438 24.5273 4.73438C26.7305 4.73438 28.1133 5.96484 28.5469 8.12109C28.6641 8.64844 28.9922 9.08203 29.6484 9.08203C30.3633 9.08203 30.7734 8.61328 30.7617 7.95703C30.7617 7.78125 30.7383 7.52344 30.7031 7.32422C30.0469 4.25391 27.5625 2.73047 24.5273 2.73047C21.1406 2.73047 18.3047 4.67578 18.3047 8.07422C18.3047 11.0859 20.4609 12.5742 23.1328 13.6406L25.1484 14.4492C27.1523 15.2227 28.8398 16.1484 28.8398 18.3047C28.8398 20.543 27.0352 21.6094 24.6094 21.6094C22.0898 21.6094 20.5898 20.4375 20.1562 18.0938C20.0273 17.4961 19.6406 17.1094 19.0312 17.1094C18.3867 17.1094 17.9531 17.5547 17.9531 18.1875C17.9531 18.4219 17.9883 18.668 18.0234 18.8555C18.668 22.0781 21.375 23.6133 24.5977 23.6133ZM24.5039 26.4141C24.9258 26.4141 25.2656 26.0742 25.2656 25.6523L25.2656 0.761719C25.2656 0.339844 24.9258 0 24.5039 0C24.082 0 23.7422 0.339844 23.7422 0.761719L23.7422 25.6523C23.7422 26.0742 24.082 26.4141 24.5039 26.4141Z" fill="black" fill-opacity="0.85"/>
 </g>
</svg>
