<?xml version="1.0" encoding="UTF-8"?>
<!--Generator: Apple Native CoreSVG 360-->
<!DOCTYPE svg
PUBLIC "-//W3C//DTD SVG 1.1//EN"
       "http://www.w3.org/Graphics/SVG/1.1/DTD/svg11.dtd">
<svg version="1.1" xmlns="http://www.w3.org/2000/svg" xmlns:xlink="http://www.w3.org/1999/xlink" viewBox="0 0 26.5195 25.0195">
 <g>
  <rect height="25.0195" opacity="0" width="26.5195" x="0" y="0"/>
  <path d="M1.55859 22.2188L24.6094 22.2188L24.6094 21.4336C24.6094 20.9648 24.3398 20.6836 23.8594 20.6836L23.1094 20.6836L23.1094 8.03906L24.1406 8.03906C24.7852 8.03906 25.1602 7.57031 25.1602 7.08984C25.1602 6.73828 24.9609 6.43359 24.5273 6.1875L14.5195 0.410156C14.0508 0.140625 13.5586 0 13.0781 0C12.5977 0 12.0938 0.140625 11.6484 0.410156L1.64062 6.1875C1.19531 6.43359 1.00781 6.73828 1.00781 7.08984C1.00781 7.57031 1.38281 8.03906 2.02734 8.03906L3.05859 8.03906L3.05859 20.6836L2.32031 20.6836C1.83984 20.6836 1.55859 20.9648 1.55859 21.4336ZM4.82812 20.6836L4.82812 6.53906L12.6211 2.16797C12.7617 2.08594 12.9258 2.03906 13.0781 2.03906C13.2305 2.03906 13.3945 2.08594 13.5469 2.16797L21.3398 6.53906L21.3398 20.6836ZM0.9375 25.0078L25.2188 25.0078C25.7344 25.0078 26.168 24.5742 26.168 24.0586C26.168 23.543 25.7344 23.1211 25.2188 23.1211L0.9375 23.1211C0.421875 23.1211 0 23.543 0 24.0586C0 24.5742 0.421875 25.0078 0.9375 25.0078Z" fill="black" fill-opacity="0.85"/>
  <path d="M9.71484 17.7773C10.0781 17.7773 10.2656 17.6016 10.3711 17.2617L13.0547 8.49609L13.1133 8.49609L15.7969 17.2734C15.8906 17.5781 16.0781 17.7773 16.4648 17.7773C16.8281 17.7773 17.1328 17.5664 17.1328 17.1797C17.1328 17.0508 17.1094 16.9219 17.0625 16.8047L14.0156 7.54688C13.8633 7.08984 13.582 6.84375 13.0898 6.84375C12.5977 6.84375 12.2812 7.10156 12.1406 7.54688L9.09375 16.8516C9.05859 16.9688 9.03516 17.0742 9.03516 17.1797C9.03516 17.5547 9.33984 17.7773 9.71484 17.7773ZM8.55469 12.5859C8.55469 12.7969 8.73047 12.9727 8.94141 12.9727L17.2266 12.9727C17.4375 12.9727 17.6133 12.7969 17.6133 12.5859C17.6133 12.375 17.4375 12.1992 17.2266 12.1992L8.94141 12.1992C8.73047 12.1992 8.55469 12.375 8.55469 12.5859ZM8.55469 14.707C8.55469 14.918 8.73047 15.0938 8.94141 15.0938L17.2266 15.0938C17.4375 15.0938 17.6133 14.918 17.6133 14.707C17.6133 14.4844 17.4375 14.3203 17.2266 14.3203L8.94141 14.3203C8.73047 14.3203 8.55469 14.4844 8.55469 14.707Z" fill="black" fill-opacity="0.85"/>
 </g>
</svg>
