<?xml version="1.0" encoding="UTF-8"?>
<!--Generator: Apple Native CoreSVG 360-->
<!DOCTYPE svg
PUBLIC "-//W3C//DTD SVG 1.1//EN"
       "http://www.w3.org/Graphics/SVG/1.1/DTD/svg11.dtd">
<svg version="1.1" xmlns="http://www.w3.org/2000/svg" xmlns:xlink="http://www.w3.org/1999/xlink" viewBox="0 0 26.5195 25.0195">
 <g>
  <rect height="25.0195" opacity="0" width="26.5195" x="0" y="0"/>
  <path d="M1.55859 22.2188L24.6094 22.2188L24.6094 21.4336C24.6094 20.9648 24.3398 20.6836 23.8594 20.6836L23.1094 20.6836L23.1094 8.03906L24.1406 8.03906C24.7852 8.03906 25.1602 7.57031 25.1602 7.08984C25.1602 6.73828 24.9609 6.43359 24.5273 6.1875L14.5195 0.410156C14.0508 0.140625 13.5586 0 13.0781 0C12.5977 0 12.0938 0.140625 11.6484 0.410156L1.64062 6.1875C1.19531 6.43359 1.00781 6.73828 1.00781 7.08984C1.00781 7.57031 1.38281 8.03906 2.02734 8.03906L3.05859 8.03906L3.05859 20.6836L2.32031 20.6836C1.83984 20.6836 1.55859 20.9648 1.55859 21.4336ZM4.82812 20.6836L4.82812 6.53906L12.6211 2.16797C12.7617 2.08594 12.9258 2.03906 13.0781 2.03906C13.2305 2.03906 13.3945 2.08594 13.5469 2.16797L21.3398 6.53906L21.3398 20.6836ZM0.9375 25.0078L25.2188 25.0078C25.7344 25.0078 26.168 24.5742 26.168 24.0586C26.168 23.543 25.7344 23.1211 25.2188 23.1211L0.9375 23.1211C0.421875 23.1211 0 23.543 0 24.0586C0 24.5742 0.421875 25.0078 0.9375 25.0078Z" fill="black" fill-opacity="0.85"/>
  <path d="M7.53516 16.6992C7.83984 16.6992 8.05078 16.5234 8.13281 16.1836L8.60156 14.3203L11.3086 14.3203L11.8008 16.1836C11.8945 16.5234 12.0703 16.6992 12.4219 16.6992C12.7266 16.6992 12.9961 16.5117 12.9961 16.125C12.9961 16.0195 12.9844 15.9023 12.9375 15.75L10.875 8.53125C10.7344 8.03906 10.4766 7.79297 9.96094 7.79297C9.46875 7.79297 9.1875 8.0625 9.04688 8.54297L6.99609 15.75C6.96094 15.8789 6.9375 16.0078 6.9375 16.125C6.9375 16.5117 7.21875 16.6992 7.53516 16.6992ZM8.85938 13.3477L9.90234 9.26953L9.98438 9.26953L11.0508 13.3477ZM16.3594 16.4414C17.8125 16.4414 18.9141 15.668 18.9141 14.2148C18.9141 12.9375 18.1641 12.4453 17.0508 11.9062L16.2656 11.543C15.6445 11.2383 15.0234 10.8516 15.0234 10.1367C15.0234 9.39844 15.5977 9.02344 16.3359 9.02344C17.1328 9.02344 17.4727 9.49219 17.6602 10.2656C17.7422 10.5352 17.918 10.6992 18.1992 10.6992C18.5391 10.6992 18.7617 10.5 18.7617 10.1602C18.7617 10.043 18.75 9.89062 18.7031 9.73828C18.4219 8.64844 17.5547 8.05078 16.3359 8.05078C14.9414 8.05078 13.8633 8.83594 13.8633 10.207C13.8633 11.3672 14.5312 11.9766 15.6797 12.5156L16.4648 12.8906C17.1562 13.207 17.7539 13.5586 17.7539 14.3203C17.7539 15.0938 17.2148 15.457 16.3594 15.457C15.4219 15.457 15.0352 14.9062 14.8945 14.2266C14.8008 13.875 14.6016 13.7344 14.332 13.7344C14.0156 13.7344 13.7695 13.9336 13.7695 14.2852C13.7695 14.4023 13.7812 14.5195 13.8047 14.6367C14.0156 15.6914 15.0469 16.4414 16.3594 16.4414ZM16.3477 17.5664C16.5117 17.5664 16.6406 17.4258 16.6406 17.2617L16.6406 7.23047C16.6406 7.06641 16.5117 6.92578 16.3477 6.92578C16.1719 6.92578 16.043 7.06641 16.043 7.23047L16.043 17.2617C16.043 17.4258 16.1719 17.5664 16.3477 17.5664Z" fill="black" fill-opacity="0.85"/>
 </g>
</svg>
