<?xml version="1.0" encoding="UTF-8"?>
<!--Generator: Apple Native CoreSVG 360-->
<!DOCTYPE svg
PUBLIC "-//W3C//DTD SVG 1.1//EN"
       "http://www.w3.org/Graphics/SVG/1.1/DTD/svg11.dtd">
<svg version="1.1" xmlns="http://www.w3.org/2000/svg" xmlns:xlink="http://www.w3.org/1999/xlink" viewBox="0 0 24.2061 23.859">
 <g>
  <rect height="23.859" opacity="0" width="24.2061" x="0" y="0"/>
  <path d="M5.20659 5.1971C1.51518 8.8885-0.242628 13.8455 0.0269028 17.6424C0.249559 21.5448 2.2769 23.6073 6.10893 23.8182C9.99956 24.0877 14.9566 22.3416 18.648 18.6385C22.3394 14.9471 24.0972 10.0018 23.816 6.09944C23.6167 2.27913 21.5425 0.251786 17.6519 0.0291295C13.855-0.25212 8.898 1.50569 5.20659 5.1971ZM6.5894 6.57991C9.94097 3.22835 14.148 1.65804 17.6167 1.97444C20.2535 2.18538 21.6832 3.56819 21.8707 6.14632C22.1871 9.70882 20.6167 13.9041 17.2769 17.2674C13.9136 20.619 9.71831 22.1776 6.15581 21.8612C3.57768 21.6737 2.18315 20.2557 1.97222 17.6073C1.66753 14.1385 3.22612 9.93147 6.5894 6.57991ZM6.90581 14.4315L9.42534 16.9393C9.648 17.1502 9.99956 17.1502 10.2222 16.9393C10.4332 16.7049 10.4332 16.3533 10.2222 16.1307L7.7144 13.6229C7.49175 13.4119 7.14018 13.4119 6.90581 13.6229C6.69487 13.8455 6.69487 14.1971 6.90581 14.4315ZM8.60503 12.7205L11.1246 15.2401C11.3472 15.451 11.6988 15.4627 11.898 15.2401C12.1324 15.0291 12.1207 14.6541 11.9097 14.4432L9.41362 11.9354C9.19097 11.7244 8.81597 11.7127 8.60503 11.9471C8.38237 12.1463 8.39409 12.4979 8.60503 12.7205ZM10.3042 11.033L12.8121 13.5526C13.023 13.7752 13.3863 13.7752 13.5972 13.5526C13.8316 13.3299 13.8199 12.9666 13.6089 12.7557L11.0777 10.2362C10.8785 10.0369 10.5035 10.0252 10.2925 10.2479C10.0699 10.4588 10.0816 10.8221 10.3042 11.033ZM11.9917 9.35725L14.4996 11.8651C14.7105 12.076 15.0738 12.0643 15.2964 11.8651C15.5191 11.6307 15.5191 11.2908 15.2964 11.0682L12.7769 8.56038C12.566 8.326 12.2144 8.326 11.98 8.56038C11.7925 8.77132 11.7808 9.1346 11.9917 9.35725ZM13.6792 7.66975L16.1871 10.1658C16.398 10.3768 16.773 10.3885 16.9957 10.1658C17.2066 9.93147 17.2183 9.57991 16.9957 9.36897L14.4761 6.84944C14.2652 6.62679 13.9136 6.6385 13.6792 6.84944C13.4683 7.08382 13.4683 7.4471 13.6792 7.66975ZM8.79253 15.8494L15.8472 8.79475L15.0621 8.0096L7.99565 15.0643Z" fill="black" fill-opacity="0.85"/>
 </g>
</svg>
