<?xml version="1.0" encoding="UTF-8"?>
<!--Generator: Apple Native CoreSVG 360-->
<!DOCTYPE svg
PUBLIC "-//W3C//DTD SVG 1.1//EN"
       "http://www.w3.org/Graphics/SVG/1.1/DTD/svg11.dtd">
<svg version="1.1" xmlns="http://www.w3.org/2000/svg" xmlns:xlink="http://www.w3.org/1999/xlink" viewBox="0 0 18.1406 21.8555">
 <g>
  <rect height="21.8555" opacity="0" width="18.1406" x="0" y="0"/>
  <path d="M2.05078 21.8438C2.66016 21.8438 3 21.5273 3.17578 20.9531L8.83594 2.97656L8.94141 2.97656L14.625 20.9648C14.8008 21.5625 15.1289 21.8438 15.75 21.8438C16.3828 21.8438 16.8984 21.457 16.8984 20.8125C16.8984 20.6602 16.8516 20.4023 16.7812 20.168L10.3945 1.125C10.1367 0.375 9.65625 0 8.89453 0C8.13281 0 7.65234 0.375 7.39453 1.125L1.00781 20.1797C0.9375 20.4023 0.902344 20.5781 0.902344 20.8125C0.902344 21.457 1.41797 21.8438 2.05078 21.8438ZM0 11.3555C0 11.7773 0.339844 12.1172 0.761719 12.1172L17.0273 12.1172C17.4375 12.1172 17.7891 11.7773 17.7891 11.3555C17.7891 10.9336 17.4375 10.5938 17.0273 10.5938L0.761719 10.5938C0.339844 10.5938 0 10.9336 0 11.3555ZM0 15.5977C0 16.0195 0.339844 16.3711 0.761719 16.3711L17.0273 16.3711C17.4375 16.3711 17.7891 16.0195 17.7891 15.5977C17.7891 15.1875 17.4375 14.8359 17.0273 14.8359L0.761719 14.8359C0.339844 14.8359 0 15.1875 0 15.5977Z" fill="black" fill-opacity="0.85"/>
 </g>
</svg>
