<?xml version="1.0" encoding="UTF-8"?>
<!--Generator: Apple Native CoreSVG 360-->
<!DOCTYPE svg
PUBLIC "-//W3C//DTD SVG 1.1//EN"
       "http://www.w3.org/Graphics/SVG/1.1/DTD/svg11.dtd">
<svg version="1.1" xmlns="http://www.w3.org/2000/svg" xmlns:xlink="http://www.w3.org/1999/xlink" viewBox="0 0 24.2578 24.7889">
 <g>
  <rect height="24.7889" opacity="0" width="24.2578" x="0" y="0"/>
  <path d="M0 12.3886C0 16.3378 1.92188 19.8652 4.99219 22.0683C5.50781 22.4667 6.16406 22.3261 6.45703 21.8456C6.75 21.3652 6.59766 20.8027 6.11719 20.4511C3.63281 18.6699 1.99219 15.7284 1.99219 12.3886C1.99219 6.88079 6.44531 2.42767 11.9531 2.42767C17.4609 2.42767 21.9141 6.88079 21.9141 12.3886C21.9141 15.7284 20.2734 18.6581 17.7891 20.4511C17.3086 20.8027 17.1562 21.3652 17.4492 21.8456C17.7422 22.3261 18.3867 22.4667 18.9023 22.08C21.9609 19.912 23.9062 16.3378 23.9062 12.3886C23.9062 5.79095 18.5508 0.435478 11.9531 0.435478C5.35547 0.435478 0 5.79095 0 12.3886ZM20.9766 22.8652L17.2734 18.998C16.6875 18.3886 16.125 18.6464 15.9727 19.4081L15.0586 23.8144C14.9297 24.4706 15.3164 24.8691 15.9961 24.7753L20.4844 24.1425C21.293 24.0253 21.5508 23.4863 20.9766 22.8652Z" fill="black" fill-opacity="0.85"/>
  <path d="M8.09766 17.1933C8.51953 17.1933 8.82422 16.9824 9 16.4433L9.85547 13.9472L14.0508 13.9472L14.9062 16.4433C15.082 16.9824 15.375 17.1933 15.8086 17.1933C16.3242 17.1933 16.6758 16.8534 16.6758 16.3847C16.6758 16.1972 16.6289 16.0331 16.5469 15.7753L13.2539 6.92767C13.0312 6.31829 12.5859 6.00188 11.9414 6.00188C11.3086 6.00188 10.875 6.31829 10.6406 6.92767L7.35938 15.7753C7.26562 16.0331 7.23047 16.1972 7.23047 16.373C7.23047 16.8652 7.57031 17.1933 8.09766 17.1933ZM10.3242 12.5409L11.8828 8.00579L12.0117 8.00579L13.5703 12.5409Z" fill="black" fill-opacity="0.85"/>
 </g>
</svg>
