<?xml version="1.0" encoding="UTF-8"?>
<!--Generator: Apple Native CoreSVG 360-->
<!DOCTYPE svg
PUBLIC "-//W3C//DTD SVG 1.1//EN"
       "http://www.w3.org/Graphics/SVG/1.1/DTD/svg11.dtd">
<svg version="1.1" xmlns="http://www.w3.org/2000/svg" xmlns:xlink="http://www.w3.org/1999/xlink" viewBox="0 0 21.6321 25.229">
 <g>
  <rect height="25.229" opacity="0" width="21.6321" x="0" y="0"/>
  <path d="M1.07778 7.80396L1.95669 8.12037C2.87075 8.46021 3.72622 8.03834 4.06606 7.10084L5.7184 2.56568C6.05825 1.62818 5.67153 0.772713 4.75747 0.432869L3.87856 0.116463C2.9645-0.223381 2.12075 0.198494 1.76919 1.14771L0.128561 5.67115C-0.223001 6.60865 0.163717 7.46412 1.07778 7.80396ZM16.5114 7.80396L17.402 8.12037C18.3161 8.46021 19.1598 8.03834 19.4997 7.10084L21.152 2.56568C21.5036 1.62818 21.1051 0.772713 20.2028 0.432869L19.3122 0.116463C18.3981-0.223381 17.5661 0.198494 17.2145 1.14771L15.5622 5.67115C15.2223 6.60865 15.609 7.47584 16.5114 7.80396ZM2.44887 25.1829L3.38637 25.1829C4.35903 25.1829 5.01528 24.5032 5.01528 23.5071L5.01528 18.6907C5.01528 17.6829 4.35903 17.0032 3.38637 17.0032L2.44887 17.0032C1.48794 17.0032 0.831686 17.6829 0.831686 18.6907L0.831686 23.5071C0.831686 24.5032 1.48794 25.1829 2.44887 25.1829ZM17.8825 25.1829L18.82 25.1829C19.7926 25.1829 20.4489 24.5032 20.4489 23.5071L20.4489 18.6907C20.4489 17.6829 19.7926 17.0032 18.82 17.0032L17.8825 17.0032C16.9215 17.0032 16.2653 17.6829 16.2653 18.6907L16.2653 23.5071C16.2653 24.5032 16.9215 25.1829 17.8825 25.1829ZM4.0895 5.06178L7.0895 5.06178C7.15981 4.95631 7.25356 4.83912 7.33559 4.74537L8.01528 4.08912L7.45278 3.5149C7.35903 3.42115 7.26528 3.29224 7.20669 3.17506L4.0895 3.17506ZM17.2028 5.06178L17.2028 3.17506L14.1442 3.17506C14.0739 3.28053 13.9801 3.39771 13.8864 3.49146L13.2184 4.15943L13.7692 4.72193C13.8747 4.8274 13.9684 4.94459 14.027 5.06178ZM9.69106 22.0422L11.5778 22.0422L11.5778 7.54615C11.4606 7.47584 11.3317 7.39381 11.2145 7.27662L10.652 6.72584L9.99575 7.39381C9.902 7.49928 9.80825 7.56959 9.69106 7.62818ZM4.0895 22.0422L17.2028 22.0422L17.2028 20.1555L4.0895 20.1555Z" fill="black" fill-opacity="0.85"/>
  <path d="M8.03872 6.69068C8.31997 6.96021 8.75356 7.01881 9.04653 6.72584L10.652 5.12037L12.1286 6.58521C12.3981 6.85474 12.82 6.84303 13.0895 6.58521C13.3473 6.33912 13.3473 5.89381 13.0895 5.62428L11.6129 4.15943L13.2184 2.55396C13.5114 2.26099 13.4528 1.8274 13.1832 1.54615C12.902 1.27662 12.4684 1.21803 12.1754 1.51099L10.5817 3.11646L9.0934 1.65162C8.82387 1.39381 8.402 1.39381 8.14419 1.65162C7.87465 1.89771 7.88637 2.33131 8.14419 2.60084L9.60903 4.08912L8.00356 5.68287C7.71059 5.97584 7.76919 6.40943 8.03872 6.69068Z" fill="black" fill-opacity="0.85"/>
 </g>
</svg>
