<?xml version="1.0" encoding="UTF-8"?>
<!--Generator: Apple Native CoreSVG 360-->
<!DOCTYPE svg
PUBLIC "-//W3C//DTD SVG 1.1//EN"
       "http://www.w3.org/Graphics/SVG/1.1/DTD/svg11.dtd">
<svg version="1.1" xmlns="http://www.w3.org/2000/svg" xmlns:xlink="http://www.w3.org/1999/xlink" viewBox="0 0 21.6321 25.229">
 <g>
  <rect height="25.229" opacity="0" width="21.6321" x="0" y="0"/>
  <path d="M5.01528 18.6907L5.01528 20.1555L7.74238 20.1555C7.64504 20.453 7.5934 20.7721 7.5934 21.1047C7.5934 21.4334 7.64381 21.7484 7.73855 22.0422L5.01528 22.0422L5.01528 23.5071C5.01528 24.5032 4.35903 25.1829 3.38637 25.1829L2.44887 25.1829C1.48794 25.1829 0.831686 24.5032 0.831686 23.5071L0.831686 18.6907C0.831686 17.6829 1.48794 17.0032 2.44887 17.0032L3.38637 17.0032C4.35903 17.0032 5.01528 17.6829 5.01528 18.6907ZM20.4489 18.6907L20.4489 23.5071C20.4489 24.5032 19.7926 25.1829 18.82 25.1829L17.8825 25.1829C16.9215 25.1829 16.2653 24.5032 16.2653 23.5071L16.2653 22.0422L13.5198 22.0422C13.6138 21.7484 13.6637 21.4334 13.6637 21.1047C13.6637 20.7721 13.6125 20.453 13.516 20.1555L16.2653 20.1555L16.2653 18.6907C16.2653 17.6829 16.9215 17.0032 17.8825 17.0032L18.82 17.0032C19.7926 17.0032 20.4489 17.6829 20.4489 18.6907ZM10.6403 7.15943C10.9687 7.15943 11.2839 7.10837 11.5778 7.01226L11.5778 18.205C11.2839 18.1089 10.9687 18.0579 10.6403 18.0579C10.3077 18.0579 9.98851 18.1095 9.69106 18.2068L9.69106 7.01046C9.98851 7.10779 10.3077 7.15943 10.6403 7.15943ZM3.87856 0.116463L4.75747 0.432869C5.67153 0.772713 6.05825 1.62818 5.7184 2.56568L5.49638 3.17506L7.73855 3.17506C7.64381 3.4689 7.5934 3.78393 7.5934 4.11256C7.5934 4.44518 7.64504 4.76432 7.74238 5.06178L4.80898 5.06178L4.06606 7.10084C3.72622 8.03834 2.87075 8.46021 1.95669 8.12037L1.07778 7.80396C0.163717 7.46412-0.223001 6.60865 0.128561 5.67115L1.76919 1.14771C2.12075 0.198494 2.9645-0.223381 3.87856 0.116463ZM19.3122 0.116463L20.2028 0.432869C21.1051 0.772713 21.5036 1.62818 21.152 2.56568L19.4997 7.10084C19.1598 8.03834 18.3161 8.46021 17.402 8.12037L16.5114 7.80396C15.609 7.47584 15.2223 6.60865 15.5622 5.67115L15.7848 5.06178L13.516 5.06178C13.6125 4.76432 13.6637 4.44518 13.6637 4.11256C13.6637 3.78393 13.6138 3.4689 13.5198 3.17506L16.4739 3.17506L17.2145 1.14771C17.5661 0.198494 18.3981-0.223381 19.3122 0.116463Z" fill="black" fill-opacity="0.85"/>
  <path d="M10.6403 7.15943C12.3278 7.15943 13.6637 5.81178 13.6637 4.11256C13.6637 2.41334 12.3278 1.0774 10.6403 1.0774C8.94106 1.0774 7.5934 2.41334 7.5934 4.11256C7.5934 5.81178 8.94106 7.15943 10.6403 7.15943ZM10.6403 5.61256C9.79653 5.61256 9.12856 4.95631 9.12856 4.11256C9.12856 3.28053 9.79653 2.61256 10.6403 2.61256C11.4723 2.61256 12.1286 3.28053 12.1286 4.11256C12.1286 4.95631 11.4723 5.61256 10.6403 5.61256ZM10.6403 24.1399C12.3278 24.1399 13.6637 22.804 13.6637 21.1047C13.6637 19.4055 12.3278 18.0579 10.6403 18.0579C8.94106 18.0579 7.5934 19.4055 7.5934 21.1047C7.5934 22.804 8.94106 24.1399 10.6403 24.1399ZM10.6403 22.6047C9.79653 22.6047 9.12856 21.9368 9.12856 21.1047C9.12856 20.261 9.79653 19.6047 10.6403 19.6047C11.4723 19.6047 12.1286 20.261 12.1286 21.1047C12.1286 21.9368 11.4723 22.6047 10.6403 22.6047Z" fill="black" fill-opacity="0.85"/>
 </g>
</svg>
