<?xml version="1.0" encoding="UTF-8"?>
<!--Generator: Apple Native CoreSVG 360-->
<!DOCTYPE svg
PUBLIC "-//W3C//DTD SVG 1.1//EN"
       "http://www.w3.org/Graphics/SVG/1.1/DTD/svg11.dtd">
<svg version="1.1" xmlns="http://www.w3.org/2000/svg" xmlns:xlink="http://www.w3.org/1999/xlink" viewBox="0 0 21.6321 25.229">
 <g>
  <rect height="25.229" opacity="0" width="21.6321" x="0" y="0"/>
  <path d="M1.07778 7.80396L1.95669 8.12037C2.88247 8.46021 3.72622 8.03834 4.06606 7.10084L5.7184 2.56568C6.05825 1.62818 5.67153 0.772713 4.75747 0.432869L3.87856 0.116463C2.9645-0.223381 2.12075 0.198494 1.76919 1.14771L0.128561 5.67115C-0.223001 6.60865 0.163717 7.46412 1.07778 7.80396ZM16.5114 7.80396L17.3903 8.12037C18.3161 8.46021 19.1598 8.03834 19.4997 7.10084L21.152 2.56568C21.5036 1.62818 21.1051 0.772713 20.1911 0.432869L19.3122 0.116463C18.3981-0.223381 17.5661 0.198494 17.2145 1.14771L15.5622 5.67115C15.2223 6.60865 15.609 7.47584 16.5114 7.80396ZM4.0895 5.06178L17.2028 5.06178L17.2028 3.17506L4.0895 3.17506ZM9.66762 15.6204C9.96059 15.5383 10.277 15.4915 10.6168 15.4915C10.9567 15.4915 11.2614 15.5383 11.5543 15.6204L11.5543 3.17506L9.66762 3.17506ZM2.44887 25.1829L3.38637 25.1829C4.35903 25.1829 5.01528 24.5032 5.01528 23.5071L5.01528 18.6907C5.01528 17.6829 4.35903 17.0032 3.38637 17.0032L2.44887 17.0032C1.47622 17.0032 0.831686 17.6829 0.831686 18.6907L0.831686 23.5071C0.831686 24.5032 1.47622 25.1829 2.44887 25.1829ZM17.8825 25.1829L18.82 25.1829C19.7926 25.1829 20.4489 24.5032 20.4489 23.5071L20.4489 18.6907C20.4489 17.6829 19.7926 17.0032 18.82 17.0032L17.8825 17.0032C16.9215 17.0032 16.2653 17.6829 16.2653 18.6907L16.2653 23.5071C16.2653 24.5032 16.9215 25.1829 17.8825 25.1829ZM4.0895 22.0422L6.53872 22.0422L6.53872 21.0344C6.53872 20.7063 6.58559 20.4133 6.70278 20.1555L4.0895 20.1555ZM14.6832 22.0422L17.2028 22.0422L17.2028 20.1555L14.5309 20.1555C14.6364 20.4133 14.6832 20.7063 14.6832 21.0344Z" fill="black" fill-opacity="0.85"/>
  <path d="M8.70669 25.1243L12.5153 25.1243C13.2301 25.1243 13.6051 24.7376 13.6051 23.9641L13.6051 21.0696C13.6051 20.4485 13.359 20.0852 12.8786 19.968L12.8786 19.1008C12.8786 17.5891 11.9997 16.6399 10.6168 16.6399C9.24575 16.6399 8.3434 17.5891 8.3434 19.1008L8.3434 19.968C7.86294 20.0852 7.61684 20.4368 7.61684 21.0696L7.61684 23.9641C7.61684 24.7376 8.00356 25.1243 8.70669 25.1243ZM9.29262 19.9212L9.29262 18.9602C9.29262 18.1165 9.79653 17.5774 10.6168 17.5774C11.4137 17.5774 11.9411 18.1165 11.9411 18.9602L11.9411 19.9212Z" fill="black" fill-opacity="0.85"/>
 </g>
</svg>
