<?xml version="1.0" encoding="UTF-8"?>
<!--Generator: Apple Native CoreSVG 360-->
<!DOCTYPE svg
PUBLIC "-//W3C//DTD SVG 1.1//EN"
       "http://www.w3.org/Graphics/SVG/1.1/DTD/svg11.dtd">
<svg version="1.1" xmlns="http://www.w3.org/2000/svg" xmlns:xlink="http://www.w3.org/1999/xlink" viewBox="0 0 21.6321 25.229">
 <g>
  <rect height="25.229" opacity="0" width="21.6321" x="0" y="0"/>
  <path d="M1.07778 7.80396L1.95669 8.12037C2.87075 8.46021 3.72622 8.03834 4.06606 7.10084L5.7184 2.56568C6.05825 1.62818 5.67153 0.772713 4.75747 0.432869L3.87856 0.116463C2.9645-0.223381 2.12075 0.198494 1.76919 1.14771L0.128561 5.67115C-0.223001 6.60865 0.163717 7.46412 1.07778 7.80396ZM16.5114 7.80396L17.402 8.12037C18.3161 8.46021 19.1598 8.03834 19.4997 7.10084L21.152 2.56568C21.5036 1.62818 21.1051 0.772713 20.2028 0.432869L19.3122 0.116463C18.3981-0.223381 17.5661 0.198494 17.2145 1.14771L15.5622 5.67115C15.2223 6.60865 15.609 7.47584 16.5114 7.80396ZM2.44887 25.1829L3.38637 25.1829C4.35903 25.1829 5.01528 24.5032 5.01528 23.5071L5.01528 18.6907C5.01528 17.6829 4.35903 17.0032 3.38637 17.0032L2.44887 17.0032C1.48794 17.0032 0.831686 17.6829 0.831686 18.6907L0.831686 23.5071C0.831686 24.5032 1.48794 25.1829 2.44887 25.1829ZM17.8825 25.1829L18.82 25.1829C19.7926 25.1829 20.4489 24.5032 20.4489 23.5071L20.4489 18.6907C20.4489 17.6829 19.7926 17.0032 18.82 17.0032L17.8825 17.0032C16.9215 17.0032 16.2653 17.6829 16.2653 18.6907L16.2653 23.5071C16.2653 24.5032 16.9215 25.1829 17.8825 25.1829ZM4.0895 5.06178L17.2028 5.06178L17.2028 3.17506L4.0895 3.17506ZM9.69106 3.17506L9.69106 17.6829C9.80825 17.7649 9.91372 17.8352 10.0192 17.9407L10.5817 18.4915L11.2379 17.8235C11.3434 17.7063 11.4606 17.6243 11.5778 17.554L11.5778 3.17506ZM4.0895 22.0422L7.0895 22.0422C7.14809 21.9251 7.24184 21.8196 7.33559 21.7258L8.01528 21.0579L7.45278 20.4954C7.35903 20.3899 7.26528 20.2727 7.19497 20.1555L4.0895 20.1555ZM17.2028 22.0422L17.2028 20.1555L14.1325 20.1555C14.0739 20.261 13.9801 20.3782 13.8864 20.4719L13.2184 21.1282L13.7692 21.7024C13.8629 21.8079 13.9567 21.9133 14.027 22.0422Z" fill="black" fill-opacity="0.85"/>
  <path d="M8.06215 23.6477C8.33169 23.9172 8.76528 23.9758 9.05825 23.6829L10.652 22.1008L12.1403 23.5774C12.4098 23.8352 12.8317 23.8235 13.1012 23.5774C13.359 23.3313 13.359 22.886 13.1012 22.6282L11.6129 21.1282L13.2067 19.5462C13.4997 19.2532 13.4411 18.8196 13.1715 18.5383C12.8903 18.2688 12.4567 18.2102 12.1637 18.5032L10.5817 20.0852L9.08169 18.6087C8.81215 18.3508 8.39028 18.3626 8.12075 18.6087C7.86294 18.8547 7.86294 19.2883 8.12075 19.5696L9.60903 21.0579L8.027 22.6399C7.73403 22.9446 7.7809 23.3782 8.06215 23.6477Z" fill="black" fill-opacity="0.85"/>
 </g>
</svg>
