<?xml version="1.0" encoding="UTF-8"?>
<!--Generator: Apple Native CoreSVG 360-->
<!DOCTYPE svg
PUBLIC "-//W3C//DTD SVG 1.1//EN"
       "http://www.w3.org/Graphics/SVG/1.1/DTD/svg11.dtd">
<svg version="1.1" xmlns="http://www.w3.org/2000/svg" xmlns:xlink="http://www.w3.org/1999/xlink" viewBox="0 0 24.2578 23.918">
 <g>
  <rect height="23.918" opacity="0" width="24.2578" x="0" y="0"/>
  <path d="M11.9531 23.9062C18.5508 23.9062 23.9062 18.5508 23.9062 11.9531C23.9062 5.35547 18.5508 0 11.9531 0C5.35547 0 0 5.35547 0 11.9531C0 18.5508 5.35547 23.9062 11.9531 23.9062ZM11.9531 21.9141C6.44531 21.9141 1.99219 17.4609 1.99219 11.9531C1.99219 6.44531 6.44531 1.99219 11.9531 1.99219C17.4609 1.99219 21.9141 6.44531 21.9141 11.9531C21.9141 17.4609 17.4609 21.9141 11.9531 21.9141Z" fill="black" fill-opacity="0.85"/>
  <path d="M9.14062 17.2031L12.5625 17.2031C14.9883 17.2031 16.5469 16.0312 16.5469 14.1914C16.5469 12.7617 15.5859 11.7539 14.0273 11.5664L14.0273 11.4961C15.1875 11.2148 15.9023 10.3008 15.9023 9.12891C15.9023 7.52344 14.6016 6.48047 12.5859 6.48047L9.14062 6.48047C8.48438 6.48047 8.09766 6.86719 8.09766 7.53516L8.09766 16.1602C8.09766 16.8047 8.48438 17.2031 9.14062 17.2031ZM9.91406 11.0391L9.91406 7.86328L12.2109 7.86328C13.3945 7.86328 14.1094 8.46094 14.1094 9.42188C14.1094 10.4531 13.2539 11.0391 11.6836 11.0391ZM9.91406 15.8203L9.91406 12.3281L12.4102 12.3281C13.8398 12.3281 14.6719 12.9844 14.6719 14.1094C14.6719 15.2812 13.7695 15.8203 11.8242 15.8203Z" fill="black" fill-opacity="0.85"/>
 </g>
</svg>
