<?xml version="1.0" encoding="UTF-8"?>
<!--Generator: Apple Native CoreSVG 360-->
<!DOCTYPE svg
PUBLIC "-//W3C//DTD SVG 1.1//EN"
       "http://www.w3.org/Graphics/SVG/1.1/DTD/svg11.dtd">
<svg version="1.1" xmlns="http://www.w3.org/2000/svg" xmlns:xlink="http://www.w3.org/1999/xlink" viewBox="0 0 21.9258 21.5742">
 <g>
  <rect height="21.5742" opacity="0" width="21.9258" x="0" y="0"/>
  <path d="M3.67969 21.5742L17.8945 21.5742C20.3555 21.5742 21.5742 20.3672 21.5742 17.9531L21.5742 3.63281C21.5742 1.21875 20.3555 0 17.8945 0L3.67969 0C1.23047 0 0 1.21875 0 3.63281L0 17.9531C0 20.3672 1.23047 21.5742 3.67969 21.5742ZM3.70312 19.6875C2.53125 19.6875 1.88672 19.0664 1.88672 17.8477L1.88672 3.73828C1.88672 2.51953 2.53125 1.88672 3.70312 1.88672L17.8711 1.88672C19.0312 1.88672 19.6875 2.51953 19.6875 3.73828L19.6875 17.8477C19.6875 19.0664 19.0312 19.6875 17.8711 19.6875Z" fill="black" fill-opacity="0.85"/>
  <path d="M7.99219 16.043L11.4141 16.043C13.8398 16.043 15.3984 14.8711 15.3984 13.0312C15.3984 11.6016 14.4375 10.5938 12.8789 10.4062L12.8789 10.3359C14.0391 10.0547 14.7539 9.14062 14.7539 7.96875C14.7539 6.36328 13.4531 5.32031 11.4375 5.32031L7.99219 5.32031C7.34766 5.32031 6.96094 5.70703 6.96094 6.375L6.96094 15C6.96094 15.6445 7.34766 16.043 7.99219 16.043ZM8.76562 9.87891L8.76562 6.70312L11.0625 6.70312C12.2461 6.70312 12.9609 7.30078 12.9609 8.26172C12.9609 9.29297 12.1055 9.87891 10.5352 9.87891ZM8.76562 14.6602L8.76562 11.168L11.2617 11.168C12.6914 11.168 13.5234 11.8242 13.5234 12.9492C13.5234 14.1211 12.6211 14.6602 10.6758 14.6602Z" fill="black" fill-opacity="0.85"/>
 </g>
</svg>
