<?xml version="1.0" encoding="UTF-8"?>
<!--Generator: Apple Native CoreSVG 360-->
<!DOCTYPE svg
PUBLIC "-//W3C//DTD SVG 1.1//EN"
       "http://www.w3.org/Graphics/SVG/1.1/DTD/svg11.dtd">
<svg version="1.1" xmlns="http://www.w3.org/2000/svg" xmlns:xlink="http://www.w3.org/1999/xlink" viewBox="0 0 18.2461 17.918">
 <g>
  <rect height="17.918" opacity="0" width="18.2461" x="0" y="0"/>
  <path d="M17.8945 16.2773L17.8945 1.61719C17.8945 0.515625 17.25 0 16.5 0C16.1602 0 15.8203 0.09375 15.4805 0.292969L3.16406 7.46484C2.28516 7.98047 1.94531 8.36719 1.94531 8.95312C1.94531 9.53906 2.28516 9.92578 3.16406 10.4414L15.4805 17.6133C15.8203 17.8008 16.1602 17.9062 16.5 17.9062C17.25 17.9062 17.8945 17.3789 17.8945 16.2773ZM16.0078 15.3516C16.0078 15.4805 15.9141 15.5859 15.7969 15.5859C15.75 15.5859 15.7031 15.5625 15.6562 15.5391L4.72266 9.12891C4.62891 9.08203 4.60547 9.01172 4.60547 8.95312C4.60547 8.88281 4.62891 8.82422 4.72266 8.77734L15.6562 2.36719C15.7031 2.33203 15.75 2.32031 15.7969 2.32031C15.9141 2.32031 16.0078 2.41406 16.0078 2.55469ZM0.996094 17.9062C1.57031 17.9062 2.00391 17.4727 2.00391 16.9219L2.00391 0.984375C2.00391 0.433594 1.57031 0 0.996094 0C0.433594 0 0 0.433594 0 0.984375L0 16.9219C0 17.4727 0.433594 17.9062 0.996094 17.9062Z" fill="black" fill-opacity="0.85"/>
 </g>
</svg>
