<?xml version="1.0" encoding="UTF-8"?>
<!--Generator: Apple Native CoreSVG 360-->
<!DOCTYPE svg
PUBLIC "-//W3C//DTD SVG 1.1//EN"
       "http://www.w3.org/Graphics/SVG/1.1/DTD/svg11.dtd">
<svg version="1.1" xmlns="http://www.w3.org/2000/svg" xmlns:xlink="http://www.w3.org/1999/xlink" viewBox="0 0 42.2812 20.5898">
 <g>
  <rect height="20.5898" opacity="0" width="42.2812" x="0" y="0"/>
  <path d="M4.52344 18.3047C4.89844 17.8828 4.78125 17.332 4.35938 16.8516C2.78906 15.1055 1.91016 12.8086 1.91016 10.2891C1.91016 7.76953 2.78906 5.47266 4.35938 3.72656C4.78125 3.24609 4.89844 2.69531 4.52344 2.27344C4.14844 1.82812 3.49219 1.83984 3.04688 2.33203C1.10156 4.44141 0 7.25391 0 10.2891C0 13.3242 1.10156 16.125 3.04688 18.2461C3.49219 18.7383 4.14844 18.7383 4.52344 18.3047ZM37.4062 18.3047C37.7812 18.7383 38.4375 18.7383 38.8828 18.2461C40.8281 16.125 41.9297 13.3242 41.9297 10.2891C41.9297 7.25391 40.8281 4.44141 38.8828 2.33203C38.4375 1.83984 37.7812 1.82812 37.4062 2.27344C37.0312 2.69531 37.1484 3.24609 37.5703 3.72656C39.1406 5.47266 40.0195 7.76953 40.0195 10.2891C40.0195 12.8086 39.1406 15.1055 37.5703 16.8516C37.1484 17.332 37.0312 17.8828 37.4062 18.3047Z" fill="black" fill-opacity="0.85"/>
  <path d="M7.80469 14.9648C8.17969 14.543 8.02734 14.0156 7.65234 13.5117C6.94922 12.6328 6.60938 11.5078 6.60938 10.2891C6.60938 9.07031 6.94922 7.93359 7.65234 7.06641C8.02734 6.5625 8.17969 6.03516 7.80469 5.61328C7.41797 5.16797 6.71484 5.16797 6.30469 5.69531C5.28516 6.96094 4.69922 8.56641 4.69922 10.2891C4.69922 12.0117 5.28516 13.6172 6.30469 14.8828C6.71484 15.4102 7.41797 15.3984 7.80469 14.9648ZM34.125 14.9648C34.5117 15.3984 35.2148 15.4102 35.625 14.8828C36.6445 13.6172 37.2305 12.0117 37.2305 10.2891C37.2305 8.56641 36.6445 6.96094 35.625 5.69531C35.2148 5.16797 34.5117 5.16797 34.125 5.61328C33.75 6.03516 33.9023 6.5625 34.2773 7.06641C34.9805 7.93359 35.3203 9.07031 35.3203 10.2891C35.3203 11.5078 34.9805 12.6328 34.2773 13.5117C33.9023 14.0156 33.75 14.543 34.125 14.9648Z" fill="black" fill-opacity="0.85"/>
  <path d="M20.9648 20.5664C26.6484 20.5664 31.2539 15.9727 31.2539 10.2891C31.2539 4.60547 26.6484 0 20.9648 0C15.2812 0 10.6758 4.60547 10.6758 10.2891C10.6758 15.9727 15.2812 20.5664 20.9648 20.5664ZM20.9648 18.6797C16.3242 18.6797 12.5625 14.9297 12.5625 10.2891C12.5625 5.64844 16.3242 1.88672 20.9648 1.88672C25.6055 1.88672 29.3672 5.64844 29.3672 10.2891C29.3672 14.9297 25.6055 18.6797 20.9648 18.6797Z" fill="black" fill-opacity="0.85"/>
  <path d="M19.4062 16.3945L22.5352 16.3945C24.3047 16.3945 25.1719 15.5039 25.1602 13.6992C25.1367 11.6484 25.125 10.1484 25.0781 9.04688C24.9258 5.75391 24.0117 4.79297 20.9648 4.79297C17.9297 4.79297 17.0156 5.75391 16.8633 9.04688C16.8164 10.1484 16.8047 11.6484 16.7812 13.6992C16.7695 15.5039 17.6367 16.3945 19.4062 16.3945ZM19.2656 14.3672C18.832 14.3672 18.5508 14.0859 18.5508 13.6523L18.5508 11.0273C18.5508 10.5938 18.832 10.3008 19.2656 10.3008L22.6758 10.3008C23.1094 10.3008 23.3906 10.5938 23.3906 11.0273L23.3906 13.6523C23.3906 14.0859 23.1094 14.3672 22.6758 14.3672ZM18.5508 12.3047L23.3906 12.3047L23.3906 11.6719L18.5508 11.6719ZM20.9648 3.58594C19.9922 3.58594 19.3008 4.26562 19.3008 5.17969L20.0508 5.17969C20.0508 4.69922 20.4492 4.33594 20.9648 4.33594C21.4922 4.33594 21.8906 4.69922 21.8906 5.17969L22.6406 5.17969C22.6406 4.26562 21.9492 3.58594 20.9648 3.58594Z" fill="black" fill-opacity="0.85"/>
 </g>
</svg>
