<?xml version="1.0" encoding="UTF-8"?>
<!--Generator: Apple Native CoreSVG 360-->
<!DOCTYPE svg
PUBLIC "-//W3C//DTD SVG 1.1//EN"
       "http://www.w3.org/Graphics/SVG/1.1/DTD/svg11.dtd">
<svg version="1.1" xmlns="http://www.w3.org/2000/svg" xmlns:xlink="http://www.w3.org/1999/xlink" viewBox="0 0 26.1797 25.8867">
 <g>
  <rect height="25.8867" opacity="0" width="26.1797" x="0" y="0"/>
  <path d="M25.8281 6.9375L25.8281 15.9141C25.8281 19.3477 23.9531 21.2695 20.4609 21.2695L12.5391 21.2695L8.30859 25.1367C7.75781 25.6523 7.41797 25.8867 6.96094 25.8867C6.29297 25.8867 5.91797 25.4062 5.91797 24.6797L5.91797 21.2695L5.36719 21.2695C1.875 21.2695 0 19.3594 0 15.9141L0 6.9375C0 3.49219 1.875 1.57031 5.36719 1.57031L20.4609 1.57031C23.9531 1.57031 25.8281 3.50391 25.8281 6.9375ZM17.8008 7.62891L12.6211 10.6875C12.4102 10.8047 12.2695 10.9336 12.1875 11.0977L12.1875 8.30859C12.1875 7.73438 11.8594 7.45312 11.4609 7.45312C11.25 7.45312 11.0859 7.51172 10.875 7.62891L5.69531 10.6875C5.34375 10.8984 5.17969 11.1445 5.17969 11.4375C5.17969 11.7188 5.34375 11.9766 5.69531 12.1875L10.875 15.2344C11.0859 15.3633 11.25 15.4102 11.4609 15.4102C11.8594 15.4102 12.1875 15.1289 12.1875 14.5547L12.1875 11.7656C12.2695 11.9297 12.4102 12.0703 12.6211 12.1875L17.8008 15.2344C18 15.3633 18.1758 15.4102 18.3867 15.4102C18.7852 15.4102 19.1133 15.1289 19.1133 14.5547L19.1133 8.30859C19.1133 7.73438 18.7852 7.45312 18.3867 7.45312C18.1758 7.45312 18 7.51172 17.8008 7.62891Z" fill="black" fill-opacity="0.85"/>
 </g>
</svg>
