<?xml version="1.0" encoding="UTF-8"?>
<!--Generator: Apple Native CoreSVG 360-->
<!DOCTYPE svg
PUBLIC "-//W3C//DTD SVG 1.1//EN"
       "http://www.w3.org/Graphics/SVG/1.1/DTD/svg11.dtd">
<svg version="1.1" xmlns="http://www.w3.org/2000/svg" xmlns:xlink="http://www.w3.org/1999/xlink" viewBox="0 0 26.1797 25.7461">
 <g>
  <rect height="25.7461" opacity="0" width="26.1797" x="0" y="0"/>
  <path d="M7.20703 25.7461C7.78125 25.7461 8.17969 25.4414 8.89453 24.8086L12.9375 21.2109L20.4609 21.2109C23.9531 21.2109 25.8281 19.2773 25.8281 15.8438L25.8281 6.86719C25.8281 3.43359 23.9531 1.5 20.4609 1.5L5.36719 1.5C1.875 1.5 0 3.42188 0 6.86719L0 15.8438C0 19.2891 1.875 21.2109 5.36719 21.2109L5.92969 21.2109L5.92969 24.2578C5.92969 25.1602 6.38672 25.7461 7.20703 25.7461ZM7.6875 23.6016L7.6875 20.2031C7.6875 19.5703 7.44141 19.3242 6.80859 19.3242L5.36719 19.3242C3 19.3242 1.88672 18.1172 1.88672 15.832L1.88672 6.86719C1.88672 4.58203 3 3.38672 5.36719 3.38672L20.4609 3.38672C22.8164 3.38672 23.9414 4.58203 23.9414 6.86719L23.9414 15.832C23.9414 18.1172 22.8164 19.3242 20.4609 19.3242L12.8672 19.3242C12.2109 19.3242 11.8828 19.418 11.4375 19.875Z" fill="black" fill-opacity="0.85"/>
  <path d="M11.4961 15.2344C11.8711 15.2344 12.1992 14.9531 12.1992 14.4023L12.1992 8.33203C12.1992 7.79297 11.8711 7.5 11.4961 7.5C11.2852 7.5 11.1328 7.55859 10.9219 7.6875L5.89453 10.6406C5.55469 10.8398 5.40234 11.0977 5.40234 11.3672C5.40234 11.6484 5.55469 11.8945 5.89453 12.0938L10.9219 15.0586C11.1328 15.1758 11.2852 15.2344 11.4961 15.2344ZM18.2578 15.2344C18.6445 15.2344 18.9609 14.9531 18.9609 14.4023L18.9609 8.33203C18.9609 7.79297 18.6445 7.5 18.2578 7.5C18.0586 7.5 17.8828 7.55859 17.6953 7.6875L12.6562 10.6406C12.3164 10.8398 12.1641 11.0977 12.1641 11.3672C12.1641 11.6484 12.3164 11.8945 12.6562 12.0938L17.6953 15.0586C17.8828 15.1758 18.0586 15.2344 18.2578 15.2344Z" fill="black" fill-opacity="0.85"/>
 </g>
</svg>
