<?xml version="1.0" encoding="UTF-8"?>
<!--Generator: Apple Native CoreSVG 360-->
<!DOCTYPE svg
PUBLIC "-//W3C//DTD SVG 1.1//EN"
       "http://www.w3.org/Graphics/SVG/1.1/DTD/svg11.dtd">
<svg version="1.1" xmlns="http://www.w3.org/2000/svg" xmlns:xlink="http://www.w3.org/1999/xlink" viewBox="0 0 34.6875 17.918">
 <g>
  <rect height="17.918" opacity="0" width="34.6875" x="0" y="0"/>
  <path d="M31.8398 16.2773L31.8398 1.61719C31.8398 0.515625 31.1953 0 30.4453 0C30.1055 0 29.7656 0.09375 29.4258 0.292969L17.1094 7.46484C16.2305 7.98047 15.8906 8.36719 15.8906 8.95312C15.8906 9.53906 16.2305 9.92578 17.1094 10.4414L29.4258 17.6133C29.7656 17.8008 30.1055 17.9062 30.4453 17.9062C31.1953 17.9062 31.8398 17.3789 31.8398 16.2773ZM29.9531 15.3516C29.9531 15.4805 29.8594 15.5859 29.7422 15.5859C29.6953 15.5859 29.6484 15.5625 29.6016 15.5391L18.668 9.12891C18.5742 9.08203 18.5508 9.01172 18.5508 8.95312C18.5508 8.88281 18.5742 8.82422 18.668 8.77734L29.6016 2.36719C29.6484 2.33203 29.6953 2.32031 29.7422 2.32031C29.8594 2.32031 29.9531 2.41406 29.9531 2.55469ZM15.9492 16.2773L15.9492 1.61719C15.9492 0.515625 15.3164 0 14.5547 0C14.2266 0 13.875 0.09375 13.5352 0.292969L1.23047 7.46484C0.339844 7.98047 0 8.36719 0 8.95312C0 9.53906 0.339844 9.92578 1.23047 10.4414L13.5352 17.6133C13.875 17.8008 14.2266 17.9062 14.5547 17.9062C15.3164 17.9062 15.9492 17.3789 15.9492 16.2773ZM14.0625 15.3516C14.0625 15.4805 13.9805 15.5859 13.8633 15.5859C13.8047 15.5859 13.7695 15.5625 13.7227 15.5391L2.77734 9.12891C2.69531 9.08203 2.66016 9.01172 2.66016 8.95312C2.66016 8.88281 2.69531 8.82422 2.77734 8.77734L13.7227 2.36719C13.7695 2.33203 13.8047 2.32031 13.8633 2.32031C13.9805 2.32031 14.0625 2.41406 14.0625 2.55469Z" fill="black" fill-opacity="0.85"/>
 </g>
</svg>
