<?xml version="1.0" encoding="UTF-8"?>
<!--Generator: Apple Native CoreSVG 360-->
<!DOCTYPE svg
PUBLIC "-//W3C//DTD SVG 1.1//EN"
       "http://www.w3.org/Graphics/SVG/1.1/DTD/svg11.dtd">
<svg version="1.1" xmlns="http://www.w3.org/2000/svg" xmlns:xlink="http://www.w3.org/1999/xlink" viewBox="0 0 21.1523 23.5898">
 <g>
  <rect height="23.5898" opacity="0" width="21.1523" x="0" y="0"/>
  <path d="M3.67969 23.5781L17.4727 23.5781C19.5703 23.5781 20.8008 22.3594 20.8008 19.9453L20.8008 7.81641C20.8008 5.40234 19.5586 4.18359 17.1211 4.18359L3.67969 4.18359C1.23047 4.18359 0 5.39062 0 7.81641L0 19.9453C0 22.3711 1.23047 23.5781 3.67969 23.5781ZM3.70312 21.6914C2.53125 21.6914 1.88672 21.0703 1.88672 19.8516L1.88672 7.91016C1.88672 6.69141 2.53125 6.07031 3.70312 6.07031L17.0859 6.07031C18.2461 6.07031 18.9141 6.69141 18.9141 7.91016L18.9141 19.8516C18.9141 21.0703 18.2461 21.6914 17.4375 21.6914ZM5.77734 4.64062L7.66406 4.65234C7.66406 2.97656 8.76562 1.78125 10.3945 1.78125C12.0234 1.78125 13.1367 2.97656 13.1367 4.65234L15.0234 4.64062C15.0234 2.05078 13.0195 0 10.3945 0C7.76953 0 5.77734 2.05078 5.77734 4.64062Z" fill="black" fill-opacity="0.85"/>
 </g>
</svg>
