<?xml version="1.0" encoding="UTF-8"?>
<!--Generator: Apple Native CoreSVG 360-->
<!DOCTYPE svg
PUBLIC "-//W3C//DTD SVG 1.1//EN"
       "http://www.w3.org/Graphics/SVG/1.1/DTD/svg11.dtd">
<svg version="1.1" xmlns="http://www.w3.org/2000/svg" xmlns:xlink="http://www.w3.org/1999/xlink" viewBox="0 0 28.582 23.5195">
 <g>
  <rect height="23.5195" opacity="0" width="28.582" x="0" y="0"/>
  <path d="M28.2305 14.1094C28.2305 10.6641 26.9883 7.48828 24.9141 5.02734C24.6797 4.74609 24.2812 4.74609 24.0234 5.01562L21.3047 7.73438C21.082 7.95703 21.0703 8.27344 21.2695 8.51953C22.4766 10.0664 23.2031 12.0117 23.2031 14.1094C23.2031 16.2188 22.4766 18.1641 21.1992 19.793C21.0352 19.9922 21.0469 20.25 21.2227 20.4375L24.0117 23.2266C24.2812 23.4961 24.668 23.4961 24.9141 23.2031C26.9883 20.7422 28.2305 17.5664 28.2305 14.1094Z" fill="black" fill-opacity="0.85"/>
  <path d="M14.1094 5.02734C16.2305 5.02734 18.1758 5.76562 19.7344 6.97266C19.9688 7.16016 20.2734 7.13672 20.4961 6.91406L23.2148 4.19531C23.4844 3.92578 23.4727 3.53906 23.1914 3.30469C20.7422 1.24219 17.5664 0 14.1094 0C10.6641 0 7.48828 1.24219 5.03906 3.30469C4.75781 3.53906 4.74609 3.92578 5.01562 4.19531L7.73438 6.91406C7.95703 7.13672 8.27344 7.16016 8.53125 6.96094C10.0781 5.76562 12.0117 5.02734 14.1094 5.02734Z" fill="black" fill-opacity="0.85"/>
  <path d="M0 14.1094C0 17.5664 1.24219 20.7422 3.31641 23.2031C3.55078 23.4961 3.94922 23.4961 4.20703 23.2266L6.99609 20.4375C7.17188 20.25 7.19531 19.9922 7.03125 19.793C5.75391 18.1641 5.02734 16.2188 5.02734 14.1094C5.02734 12.0117 5.74219 10.0664 6.96094 8.51953C7.14844 8.27344 7.14844 7.95703 6.92578 7.73438L4.20703 5.01562C3.9375 4.74609 3.55078 4.74609 3.31641 5.02734C1.24219 7.48828 0 10.6641 0 14.1094Z" fill="black" fill-opacity="0.85"/>
  <path d="M11.7656 19.4531L14.6719 19.4531C16.6641 19.4531 18.2344 18.5273 18.2344 16.5469C18.2344 15.1055 17.2383 14.1445 15.8203 13.9805L15.8203 13.9102C16.9102 13.7461 17.707 12.7148 17.707 11.625C17.707 9.86719 16.2422 9.03516 14.6602 9.03516L11.7656 9.03516C11.2148 9.03516 10.9102 9.39844 10.9102 9.90234L10.9102 18.5977C10.9102 19.0781 11.2266 19.4531 11.7656 19.4531ZM12.2812 13.5234L12.2812 10.1836L14.332 10.1836C15.4688 10.1836 16.3477 10.6523 16.3477 11.7891C16.3477 13.0664 15.3047 13.5234 14.0039 13.5234ZM12.2812 18.3047L12.2812 14.6484L14.3086 14.6484C15.6914 14.6484 16.8398 15.082 16.8398 16.4648C16.8398 17.8125 15.7734 18.3047 14.4141 18.3047ZM14.0977 20.7773C14.3438 20.7773 14.4961 20.6133 14.4961 20.3672L14.4961 8.00391C14.4961 7.75781 14.332 7.59375 14.0977 7.59375C13.8633 7.59375 13.6992 7.75781 13.6992 8.00391L13.6992 20.3672C13.6992 20.6133 13.8633 20.7773 14.0977 20.7773Z" fill="black" fill-opacity="0.85"/>
 </g>
</svg>
