<?xml version="1.0" encoding="UTF-8"?>
<!--Generator: Apple Native CoreSVG 360-->
<!DOCTYPE svg
PUBLIC "-//W3C//DTD SVG 1.1//EN"
       "http://www.w3.org/Graphics/SVG/1.1/DTD/svg11.dtd">
<svg version="1.1" xmlns="http://www.w3.org/2000/svg" xmlns:xlink="http://www.w3.org/1999/xlink" viewBox="0 0 26.5195 25.0195">
 <g>
  <rect height="25.0195" opacity="0" width="26.5195" x="0" y="0"/>
  <path d="M1.55859 22.2188L24.6094 22.2188L24.6094 21.4336C24.6094 20.9648 24.3398 20.6836 23.8594 20.6836L23.1094 20.6836L23.1094 8.03906L24.1406 8.03906C24.7852 8.03906 25.1602 7.57031 25.1602 7.08984C25.1602 6.73828 24.9609 6.43359 24.5273 6.1875L14.5195 0.410156C14.0508 0.140625 13.5586 0 13.0781 0C12.5977 0 12.0938 0.140625 11.6484 0.410156L1.64062 6.1875C1.19531 6.43359 1.00781 6.73828 1.00781 7.08984C1.00781 7.57031 1.38281 8.03906 2.02734 8.03906L3.05859 8.03906L3.05859 20.6836L2.32031 20.6836C1.83984 20.6836 1.55859 20.9648 1.55859 21.4336ZM4.82812 20.6836L4.82812 6.53906L12.6211 2.16797C12.7617 2.08594 12.9258 2.03906 13.0781 2.03906C13.2305 2.03906 13.3945 2.08594 13.5469 2.16797L21.3398 6.53906L21.3398 20.6836ZM0.9375 25.0078L25.2188 25.0078C25.7344 25.0078 26.168 24.5742 26.168 24.0586C26.168 23.543 25.7344 23.1211 25.2188 23.1211L0.9375 23.1211C0.421875 23.1211 0 23.543 0 24.0586C0 24.5742 0.421875 25.0078 0.9375 25.0078Z" fill="black" fill-opacity="0.85"/>
  <path d="M10.7578 17.5195L13.6641 17.5195C15.6562 17.5195 17.2266 16.5938 17.2266 14.6133C17.2266 13.1719 16.2305 12.2109 14.8125 12.0469L14.8125 11.9766C15.9023 11.8125 16.6992 10.7812 16.6992 9.69141C16.6992 7.93359 15.2227 7.10156 13.6523 7.10156L10.7578 7.10156C10.207 7.10156 9.90234 7.46484 9.90234 7.96875L9.90234 16.6641C9.90234 17.1445 10.2188 17.5195 10.7578 17.5195ZM11.2734 11.5898L11.2734 8.25L13.3125 8.25C14.4609 8.25 15.3398 8.71875 15.3398 9.85547C15.3398 11.1328 14.2852 11.5898 12.9961 11.5898ZM11.2734 16.3711L11.2734 12.7148L13.2891 12.7148C14.6836 12.7148 15.832 13.1484 15.832 14.5312C15.832 15.8789 14.7656 16.3711 13.4062 16.3711ZM13.0898 18.8438C13.3359 18.8438 13.4766 18.6797 13.4766 18.4336L13.4766 6.07031C13.4766 5.82422 13.3242 5.66016 13.0898 5.66016C12.8555 5.66016 12.6914 5.82422 12.6914 6.07031L12.6914 18.4336C12.6914 18.6797 12.8555 18.8438 13.0898 18.8438Z" fill="black" fill-opacity="0.85"/>
 </g>
</svg>
