<?xml version="1.0" encoding="UTF-8"?>
<!--Generator: Apple Native CoreSVG 360-->
<!DOCTYPE svg
PUBLIC "-//W3C//DTD SVG 1.1//EN"
       "http://www.w3.org/Graphics/SVG/1.1/DTD/svg11.dtd">
<svg version="1.1" xmlns="http://www.w3.org/2000/svg" xmlns:xlink="http://www.w3.org/1999/xlink" viewBox="0 0 28.582 23.4085">
 <g>
  <rect height="23.4085" opacity="0" width="28.582" x="0" y="0"/>
  <path d="M28.2305 14.0539C28.2305 6.67105 22.5586 0.612457 15.3398 0.00308175C14.9648-0.0320745 14.6836 0.237457 14.6836 0.612457L14.6836 4.44449C14.6836 4.76089 14.9062 5.00699 15.2227 5.03043C19.7109 5.58121 23.2031 9.41324 23.2031 14.0539C23.2031 16.1632 22.4766 18.1086 21.1992 19.7375C21.0352 19.9367 21.0469 20.1945 21.2227 20.382L24.0234 23.1711C24.2812 23.4289 24.6797 23.4289 24.9141 23.1476C26.9883 20.6867 28.2305 17.5109 28.2305 14.0539Z" fill="black" fill-opacity="0.85"/>
  <path d="M0 14.0539C0 17.5226 1.24219 20.6984 3.31641 23.1593C3.55078 23.4406 3.9375 23.4289 4.20703 23.1711L7.00781 20.382C7.18359 20.1945 7.19531 19.9367 7.03125 19.7375C5.74219 18.1086 5.02734 16.1632 5.02734 14.0539C5.02734 9.41324 8.51953 5.58121 13.0078 5.03043C13.3242 5.00699 13.5469 4.76089 13.5469 4.44449L13.5469 0.612457C13.5469 0.237457 13.2656-0.0320745 12.8906 0.00308175C5.67188 0.612457 0 6.67105 0 14.0539Z" fill="black" fill-opacity="0.85"/>
  <path d="M11.7656 19.3976L14.6719 19.3976C16.6641 19.3976 18.2344 18.4718 18.2344 16.4914C18.2344 15.05 17.2383 14.089 15.8203 13.925L15.8203 13.8546C16.9102 13.6906 17.707 12.6593 17.707 11.5695C17.707 9.81168 16.2422 8.97964 14.6602 8.97964L11.7656 8.97964C11.2148 8.97964 10.9102 9.34293 10.9102 9.84683L10.9102 18.5421C10.9102 19.0226 11.2266 19.3976 11.7656 19.3976ZM12.2812 13.4679L12.2812 10.1281L14.332 10.1281C15.4688 10.1281 16.3477 10.5968 16.3477 11.7336C16.3477 13.0109 15.3047 13.4679 14.0039 13.4679ZM12.2812 18.2492L12.2812 14.5929L14.3086 14.5929C15.6914 14.5929 16.8398 15.0265 16.8398 16.4093C16.8398 17.757 15.7734 18.2492 14.4141 18.2492ZM14.0977 20.7218C14.3438 20.7218 14.4961 20.5578 14.4961 20.3117L14.4961 7.94839C14.4961 7.7023 14.332 7.53824 14.0977 7.53824C13.8633 7.53824 13.6992 7.7023 13.6992 7.94839L13.6992 20.3117C13.6992 20.5578 13.8633 20.7218 14.0977 20.7218Z" fill="black" fill-opacity="0.85"/>
 </g>
</svg>
