<?xml version="1.0" encoding="UTF-8"?>
<!--Generator: Apple Native CoreSVG 360-->
<!DOCTYPE svg
PUBLIC "-//W3C//DTD SVG 1.1//EN"
       "http://www.w3.org/Graphics/SVG/1.1/DTD/svg11.dtd">
<svg version="1.1" xmlns="http://www.w3.org/2000/svg" xmlns:xlink="http://www.w3.org/1999/xlink" viewBox="0 0 14.6602 26.4727">
 <g>
  <rect height="26.4727" opacity="0" width="14.6602" x="0" y="0"/>
  <path d="M1.47656 23.8008L7.20703 23.8008C11.2969 23.8008 14.3086 21.8906 14.3086 18.0352C14.3086 15.3281 12.5039 13.2422 9.45703 12.8672L9.45703 12.7617C11.707 12.3633 13.2305 10.2891 13.2305 8.12109C13.2305 4.80469 10.5469 2.95312 7.18359 2.95312L1.47656 2.95312C0.667969 2.95312 0 3.41016 0 4.44141L0 22.3125C0 23.2734 0.621094 23.8008 1.47656 23.8008ZM2.29688 4.95703L6.64453 4.95703C9.09375 4.95703 10.9219 6.01172 10.9219 8.36719C10.9219 11.0039 8.74219 12.0469 6 12.0469L2.29688 12.0469ZM2.29688 21.7969L2.29688 14.0508L6.5625 14.0508C9.60938 14.0508 11.9648 15.1055 11.9648 17.918C11.9648 20.6719 9.75 21.7969 6.83203 21.7969ZM6.12891 26.4727C6.58594 26.4727 6.87891 26.168 6.87891 25.6992L6.87891 0.855469C6.87891 0.386719 6.58594 0.0703125 6.12891 0.0703125C5.66016 0.0703125 5.34375 0.386719 5.34375 0.855469L5.34375 25.6992C5.34375 26.168 5.66016 26.4727 6.12891 26.4727Z" fill="black" fill-opacity="0.85"/>
 </g>
</svg>
