<?xml version="1.0" encoding="UTF-8"?>
<!--Generator: Apple Native CoreSVG 360-->
<!DOCTYPE svg
PUBLIC "-//W3C//DTD SVG 1.1//EN"
       "http://www.w3.org/Graphics/SVG/1.1/DTD/svg11.dtd">
<svg version="1.1" xmlns="http://www.w3.org/2000/svg" xmlns:xlink="http://www.w3.org/1999/xlink" viewBox="0 0 22.8984 32.0508">
 <g>
  <rect height="32.0508" opacity="0" width="22.8984" x="0" y="0"/>
  <path d="M7.6594 5.68052C7.51514 6.24039 7.43364 6.83318 7.4206 7.45208C7.0673 7.35906 6.68947 7.3125 6.29297 7.3125C3.62109 7.3125 1.78125 9.44531 1.78125 12.0938C1.78125 15.75 3.72656 18.7148 6.29297 18.7148C7.94546 18.7148 9.34044 17.4856 10.1207 15.6304C10.5426 16.1018 11.0047 16.5115 11.5035 16.8421C10.6364 18.558 9.30086 19.8155 7.70918 20.2831L8.05078 21.5859C8.16797 22.0078 7.94531 22.4531 7.39453 22.4531L6.82828 22.4531C7.05956 24.1022 8.68359 24.3711 8.68359 26.543C8.68359 28.7695 6.71484 29.0742 6.71484 31.3125C6.71484 31.7109 6.375 32.0508 5.95312 32.0508C5.54297 32.0508 5.23828 31.7109 5.23828 31.3125C5.23828 28.125 7.21875 28.1016 7.21875 26.543C7.21875 25.0492 5.50535 24.8405 5.33475 22.4531L4.73438 22.4531C4.19531 22.4531 3.94922 22.0078 4.07812 21.5859L4.44937 20.1363C1.83581 19.0959 0 15.8812 0 12.0938C0 8.40234 2.57812 5.54297 6.29297 5.54297C6.7683 5.54297 7.22502 5.58978 7.6594 5.68052Z" fill="black" fill-opacity="0.85"/>
  <path d="M14.9648 17.9531C19.2188 17.9531 22.5469 13.4297 22.5469 7.78125C22.5469 3.33984 19.4414 0 14.9648 0C10.4883 0 7.40625 3.33984 7.40625 7.78125C7.40625 13.4297 10.7227 17.9531 14.9648 17.9531ZM14.9648 16.1953C11.6953 16.1953 9.17578 12.375 9.17578 7.78125C9.17578 4.42969 11.5664 1.76953 14.9648 1.76953C18.3633 1.76953 20.7773 4.42969 20.7773 7.78125C20.7773 12.375 18.2227 16.1953 14.9648 16.1953ZM13.3242 17.1445L12.7734 19.2539C12.6328 19.7227 12.9023 20.2266 13.5 20.2266L16.4414 20.2266C17.0391 20.2266 17.2969 19.7227 17.168 19.2539L16.6055 17.1445ZM14.8242 31.8867C15.2812 31.8867 15.668 31.5 15.668 31.043C15.668 28.4766 18 27.8789 18 25.2773C18 22.6055 15.7383 22.1016 15.7617 19.7695L14.0977 19.7812C14.0859 22.957 16.3477 23.4492 16.3477 25.2773C16.3477 27.1406 14.0039 27.4219 14.0039 31.043C14.0039 31.5 14.3672 31.8867 14.8242 31.8867Z" fill="black" fill-opacity="0.85"/>
 </g>
</svg>
