<?xml version="1.0" encoding="UTF-8"?>
<!--Generator: Apple Native CoreSVG 360-->
<!DOCTYPE svg
PUBLIC "-//W3C//DTD SVG 1.1//EN"
       "http://www.w3.org/Graphics/SVG/1.1/DTD/svg11.dtd">
<svg version="1.1" xmlns="http://www.w3.org/2000/svg" xmlns:xlink="http://www.w3.org/1999/xlink" viewBox="0 0 24.2578 23.918">
 <g>
  <rect height="23.918" opacity="0" width="24.2578" x="0" y="0"/>
  <path d="M11.9531 23.9062C18.5508 23.9062 23.9062 18.5508 23.9062 11.9531C23.9062 5.35547 18.5508 0 11.9531 0C5.35547 0 0 5.35547 0 11.9531C0 18.5508 5.35547 23.9062 11.9531 23.9062ZM11.9531 21.9141C6.44531 21.9141 1.99219 17.4609 1.99219 11.9531C1.99219 6.44531 6.44531 1.99219 11.9531 1.99219C17.4609 1.99219 21.9141 6.44531 21.9141 11.9531C21.9141 17.4609 17.4609 21.9141 11.9531 21.9141Z" fill="black" fill-opacity="0.85"/>
  <path d="M11.9531 14.5547C13.3828 14.5547 14.5547 13.3828 14.5547 11.9531C14.5547 10.5117 13.3828 9.35156 11.9531 9.35156C10.5234 9.35156 9.35156 10.5117 9.35156 11.9531C9.35156 13.3828 10.5234 14.5547 11.9531 14.5547ZM11.9531 13.0781C11.332 13.0781 10.8281 12.5742 10.8281 11.9531C10.8281 11.3203 11.332 10.8281 11.9531 10.8281C12.5742 10.8281 13.0781 11.3203 13.0781 11.9531C13.0781 12.5742 12.5742 13.0781 11.9531 13.0781ZM12.5391 10.0781L13.875 11.3906L18.0234 7.24219C18.3984 6.87891 18.3984 6.28125 18.0234 5.90625C17.6602 5.54297 17.0625 5.54297 16.6992 5.90625ZM11.4258 13.8516L10.0898 12.5156L8.36719 14.2383C8.00391 14.6016 8.00391 15.2109 8.36719 15.5742C8.73047 15.9375 9.32812 15.9375 9.70312 15.5742Z" fill="black" fill-opacity="0.85"/>
 </g>
</svg>
