<?xml version="1.0" encoding="UTF-8"?>
<!--Generator: Apple Native CoreSVG 360-->
<!DOCTYPE svg
PUBLIC "-//W3C//DTD SVG 1.1//EN"
       "http://www.w3.org/Graphics/SVG/1.1/DTD/svg11.dtd">
<svg version="1.1" xmlns="http://www.w3.org/2000/svg" xmlns:xlink="http://www.w3.org/1999/xlink" viewBox="0 0 30.3926 23.7305">
 <g>
  <rect height="23.7305" opacity="0" width="30.3926" x="0" y="0"/>
  <path d="M0.536133 12.0586L5.39941 15.4336C5.93848 15.8086 6.71191 15.8086 7.30957 15.3867L12.1025 12.0586C12.8291 11.5547 12.8291 10.7344 12.1025 10.2305L7.2627 6.86719C6.7002 6.46875 5.93848 6.48047 5.39941 6.85547L0.536133 10.2305C-0.178711 10.7344-0.178711 11.5547 0.536133 12.0586ZM9.23145 5.54297L14.0947 8.91797C14.6572 9.30469 15.4072 9.29297 16.0283 8.87109L20.7979 5.54297C21.5244 5.03906 21.5244 4.21875 20.7979 3.71484L15.9697 0.351562C15.4072-0.0351562 14.6572-0.046875 14.0947 0.339844L9.23145 3.71484C8.5166 4.21875 8.5166 5.03906 9.23145 5.54297ZM17.9502 12.0586L22.7432 15.3984C23.3408 15.8203 24.1025 15.8203 24.665 15.4219L29.4932 12.0586C30.2314 11.543 30.2314 10.7461 29.4932 10.2305L24.665 6.86719C24.1025 6.46875 23.3525 6.45703 22.79 6.85547L17.9502 10.2305C17.2119 10.7461 17.2119 11.543 17.9502 12.0586ZM4.49707 23.7305C5.98535 23.7305 7.19238 22.5234 7.19238 21.0469C7.19238 19.5586 5.98535 18.3516 4.49707 18.3516C3.02051 18.3516 1.81348 19.5586 1.81348 21.0469C1.81348 22.5234 3.02051 23.7305 4.49707 23.7305ZM15.0322 23.7305C16.5088 23.7305 17.7158 22.5234 17.7158 21.0469C17.7158 19.5586 16.5088 18.3516 15.0322 18.3516C13.5439 18.3516 12.3369 19.5586 12.3369 21.0469C12.3369 22.5234 13.5439 23.7305 15.0322 23.7305ZM25.5439 23.7305C27.0322 23.7305 28.2393 22.5234 28.2393 21.0469C28.2393 19.5586 27.0322 18.3516 25.5439 18.3516C24.0674 18.3516 22.8604 19.5586 22.8604 21.0469C22.8604 22.5234 24.0674 23.7305 25.5439 23.7305Z" fill="black" fill-opacity="0.85"/>
 </g>
</svg>
