<?xml version="1.0" encoding="UTF-8"?>
<!--Generator: Apple Native CoreSVG 360-->
<!DOCTYPE svg
PUBLIC "-//W3C//DTD SVG 1.1//EN"
       "http://www.w3.org/Graphics/SVG/1.1/DTD/svg11.dtd">
<svg version="1.1" xmlns="http://www.w3.org/2000/svg" xmlns:xlink="http://www.w3.org/1999/xlink" viewBox="0 0 22.1133 15.1992">
 <g>
  <rect height="15.1992" opacity="0" width="22.1133" x="0" y="0"/>
  <path d="M1.04297 15.1875C1.65234 15.1875 2.08594 14.7656 2.08594 14.1562L2.08594 8.63672L19.6758 8.63672L19.6758 14.1562C19.6758 14.7656 20.1094 15.1875 20.7188 15.1875C21.3281 15.1875 21.7617 14.7656 21.7617 14.1562L21.7617 1.03125C21.7617 0.421875 21.3281 0 20.7188 0C20.1094 0 19.6758 0.421875 19.6758 1.03125L19.6758 6.55078L2.08594 6.55078L2.08594 1.03125C2.08594 0.421875 1.65234 0 1.04297 0C0.433594 0 0 0.421875 0 1.03125L0 14.1562C0 14.7656 0.433594 15.1875 1.04297 15.1875Z" fill="black" fill-opacity="0.85"/>
 </g>
</svg>
