<?xml version="1.0" encoding="UTF-8"?>
<!--Generator: Apple Native CoreSVG 360-->
<!DOCTYPE svg
PUBLIC "-//W3C//DTD SVG 1.1//EN"
       "http://www.w3.org/Graphics/SVG/1.1/DTD/svg11.dtd">
<svg version="1.1" xmlns="http://www.w3.org/2000/svg" xmlns:xlink="http://www.w3.org/1999/xlink" viewBox="0 0 31.3828 18.6211">
 <g>
  <rect height="18.6211" opacity="0" width="31.3828" x="0" y="0"/>
  <path d="M0 2.39062C0 3.73828 1.04297 4.76953 2.37891 4.76953L28.6523 4.76953C29.9883 4.76953 31.0312 3.73828 31.0312 2.39062C31.0312 1.01953 29.9883 0 28.6523 0L2.37891 0C1.04297 0 0 1.01953 0 2.39062ZM1.86328 2.39062C1.86328 2.0625 2.10938 1.82812 2.46094 1.82812L28.5703 1.82812C28.9219 1.82812 29.168 2.0625 29.168 2.39062C29.168 2.70703 28.9219 2.94141 28.5703 2.94141L2.46094 2.94141C2.10938 2.94141 1.86328 2.70703 1.86328 2.39062ZM8.75391 15.8086L22.2891 15.8086C26.6953 15.8086 28.9805 13.6523 28.9805 9.45703L28.9805 3.89062L27.0938 3.89062L27.0938 9.45703C27.0938 12.3984 25.4531 13.9219 22.2891 13.9219L8.75391 13.9219C5.57812 13.9219 3.9375 12.3984 3.9375 9.45703L3.9375 3.89062L2.05078 3.89062L2.05078 9.45703C2.05078 13.6523 4.33594 15.8086 8.75391 15.8086ZM5.48438 18.4219C5.96484 18.6094 6.51562 18.3398 6.69141 17.8594L7.6875 15.1055L5.91797 14.4609L4.92188 17.2148C4.74609 17.6953 5.00391 18.2578 5.48438 18.4219ZM25.5586 18.4219C26.0391 18.2578 26.2852 17.6953 26.1094 17.2148L25.1133 14.4609L23.3438 15.1055L24.3398 17.8594C24.5156 18.3398 25.0664 18.6094 25.5586 18.4219Z" fill="black" fill-opacity="0.85"/>
 </g>
</svg>
