<?xml version="1.0" encoding="UTF-8"?>
<!--Generator: Apple Native CoreSVG 360-->
<!DOCTYPE svg
PUBLIC "-//W3C//DTD SVG 1.1//EN"
       "http://www.w3.org/Graphics/SVG/1.1/DTD/svg11.dtd">
<svg version="1.1" xmlns="http://www.w3.org/2000/svg" xmlns:xlink="http://www.w3.org/1999/xlink" viewBox="0 0 27.9844 20.0977">
 <g>
  <rect height="20.0977" opacity="0" width="27.9844" x="0" y="0"/>
  <path d="M3.67969 20.0977L23.9531 20.0977C26.4141 20.0977 27.6328 18.8789 27.6328 16.4648L27.6328 6.63281C27.6328 4.23047 26.4141 3.01172 23.9531 3.01172L22.6523 3.01172L22.6523 1.44141C22.6523 0.550781 22.1367 0.0117188 21.2344 0.0117188L18.8906 0.0117188C18 0.0117188 17.4844 0.550781 17.4844 1.44141L17.4844 3.01172L10.1602 3.01172L10.1602 1.44141C10.1602 0.550781 9.64453 0.0117188 8.74219 0.0117188L6.39844 0.0117188C5.49609 0.0117188 4.98047 0.550781 4.98047 1.44141L4.98047 3.01172L3.67969 3.01172C1.23047 3.01172 0 4.21875 0 6.63281L0 16.4648C0 18.8906 1.23047 20.0977 3.67969 20.0977ZM1.88672 16.3711L1.88672 6.73828C1.88672 5.51953 2.53125 4.89844 3.70312 4.89844L23.9297 4.89844C25.0898 4.89844 25.7461 5.51953 25.7461 6.73828L25.7461 16.3711C25.7461 17.5781 25.0898 18.2109 23.9297 18.2109L3.70312 18.2109C2.53125 18.2109 1.88672 17.5781 1.88672 16.3711Z" fill="black" fill-opacity="0.85"/>
 </g>
</svg>
