<?xml version="1.0" encoding="UTF-8"?>
<!--Generator: Apple Native CoreSVG 360-->
<!DOCTYPE svg
PUBLIC "-//W3C//DTD SVG 1.1//EN"
       "http://www.w3.org/Graphics/SVG/1.1/DTD/svg11.dtd">
<svg version="1.1" xmlns="http://www.w3.org/2000/svg" xmlns:xlink="http://www.w3.org/1999/xlink" viewBox="0 0 35.0391 19.0646">
 <g>
  <rect height="19.0646" opacity="0" width="35.0391" x="0" y="0"/>
  <path d="M13.891 3.49127L5.96484 3.49127C4.73438 3.49127 3.45703 3.64362 2.74219 4.35846C2.03906 5.0733 1.88672 6.32721 1.88672 7.55768L1.88672 11.5303C1.88672 12.7374 2.03906 13.9913 2.74219 14.7061C3.45703 15.4092 4.72266 15.5733 5.92969 15.5733L11.6669 15.5733L11.4844 16.0655C11.2968 16.5723 11.2804 17.0462 11.3885 17.46L6.24609 17.46C4.25391 17.46 2.56641 17.2725 1.37109 16.0772C0.175781 14.8819 0 13.2178 0 11.2139L0 7.81549C0 5.85846 0.175781 4.18268 1.37109 2.98737C2.56641 1.79205 4.25391 1.60455 6.22266 1.60455L15.3922 1.60455ZM29.5547 2.98737C30.75 4.18268 30.9258 5.84674 30.9258 7.85065L30.9258 11.2139C30.9258 13.2178 30.75 14.8819 29.5547 16.0772C28.3594 17.2725 26.6719 17.46 24.668 17.46L15.8149 17.46L17.316 15.5733L24.9961 15.5733C26.2031 15.5733 27.4688 15.4092 28.1719 14.7061C28.8867 13.9913 29.0391 12.7374 29.0391 11.5303L29.0391 7.52252C29.0391 6.31549 28.8867 5.0733 28.1719 4.35846C27.4688 3.65534 26.2031 3.49127 24.9961 3.49127L19.5401 3.49127L19.7227 2.99909C19.9103 2.49227 19.9267 2.01838 19.8186 1.60455L24.668 1.60455C26.6719 1.60455 28.3594 1.79205 29.5547 2.98737ZM34.6875 9.52643C34.6875 11.3194 33.4453 12.503 32.5195 12.5616L32.5195 6.50299C33.4453 6.56159 34.6875 7.74518 34.6875 9.52643Z" fill="black" fill-opacity="0.85"/>
  <path d="M9.52734 8.97565C9.1875 9.39752 8.98828 9.88971 8.98828 10.4171C8.98828 11.5889 9.94922 12.5264 11.1328 12.5264L12.7969 12.5264L12.171 14.2139L5.30859 14.2139C4.51172 14.2139 4.03125 14.0967 3.70312 13.7686C3.375 13.4405 3.25781 12.9717 3.25781 12.1631L3.25781 6.92487C3.25781 6.10455 3.375 5.62409 3.70312 5.29596C4.01953 4.96784 4.5 4.85065 5.34375 4.85065L12.8094 4.85065ZM27.2227 5.29596C27.5391 5.62409 27.668 6.09284 27.668 6.90143L27.668 12.1631C27.668 12.9717 27.5391 13.4405 27.2227 13.7686C26.8945 14.0967 26.4258 14.2139 25.6172 14.2139L18.3976 14.2139L21.6797 10.0889C22.0195 9.66705 22.2188 9.17487 22.2188 8.64752C22.2188 7.47565 21.2578 6.53815 20.0742 6.53815L18.4102 6.53815L19.036 4.85065L25.6172 4.85065C26.4141 4.85065 26.8945 4.96784 27.2227 5.29596Z" fill="black" fill-opacity="0.85"/>
  <path d="M10.582 10.4171C10.582 10.71 10.8164 10.921 11.1211 10.921L15.0938 10.921L12.9727 16.6163C12.7031 17.3663 13.5 17.7764 13.9805 17.1788L20.4023 9.10455C20.5195 8.95221 20.6016 8.79987 20.6016 8.64752C20.6016 8.35455 20.3672 8.14362 20.0625 8.14362L16.0898 8.14362L18.2109 2.4483C18.4805 1.6983 17.6836 1.28815 17.2031 1.8858L10.7812 9.9483C10.6523 10.1124 10.582 10.2647 10.582 10.4171Z" fill="black" fill-opacity="0.85"/>
 </g>
</svg>
