<?xml version="1.0" encoding="UTF-8"?>
<!--Generator: Apple Native CoreSVG 360-->
<!DOCTYPE svg
PUBLIC "-//W3C//DTD SVG 1.1//EN"
       "http://www.w3.org/Graphics/SVG/1.1/DTD/svg11.dtd">
<svg version="1.1" xmlns="http://www.w3.org/2000/svg" xmlns:xlink="http://www.w3.org/1999/xlink" viewBox="0 0 35.0391 15.8555">
 <g>
  <rect height="15.8555" opacity="0" width="35.0391" x="0" y="0"/>
  <path d="M6.24609 15.8555L24.668 15.8555C26.6719 15.8555 28.3594 15.668 29.5547 14.4727C30.75 13.2773 30.9258 11.6133 30.9258 9.60938L30.9258 6.24609C30.9258 4.24219 30.75 2.57812 29.5547 1.38281C28.3594 0.1875 26.6719 0 24.668 0L6.22266 0C4.25391 0 2.56641 0.1875 1.37109 1.38281C0.175781 2.57812 0 4.25391 0 6.21094L0 9.60938C0 11.6133 0.175781 13.2773 1.37109 14.4727C2.56641 15.668 4.25391 15.8555 6.24609 15.8555ZM5.92969 13.9688C4.72266 13.9688 3.45703 13.8047 2.74219 13.1016C2.03906 12.3867 1.88672 11.1328 1.88672 9.92578L1.88672 5.95312C1.88672 4.72266 2.03906 3.46875 2.74219 2.75391C3.45703 2.03906 4.73438 1.88672 5.96484 1.88672L24.9961 1.88672C26.2031 1.88672 27.4688 2.05078 28.1719 2.75391C28.8867 3.46875 29.0391 4.71094 29.0391 5.91797L29.0391 9.92578C29.0391 11.1328 28.8867 12.3867 28.1719 13.1016C27.4688 13.8047 26.2031 13.9688 24.9961 13.9688ZM32.5195 10.957C33.4453 10.8984 34.6875 9.71484 34.6875 7.92188C34.6875 6.14062 33.4453 4.95703 32.5195 4.89844Z" fill="black" fill-opacity="0.85"/>
  <path d="M5.30859 12.6094L19.5117 12.6094C20.3203 12.6094 20.7891 12.4922 21.1172 12.1641C21.4453 11.8359 21.5625 11.3672 21.5625 10.5586L21.5625 5.29688C21.5625 4.48828 21.4453 4.01953 21.1172 3.69141C20.7891 3.36328 20.3086 3.24609 19.5117 3.24609L5.34375 3.24609C4.5 3.24609 4.01953 3.36328 3.70312 3.69141C3.375 4.01953 3.25781 4.5 3.25781 5.32031L3.25781 10.5586C3.25781 11.3672 3.375 11.8359 3.70312 12.1641C4.03125 12.4922 4.51172 12.6094 5.30859 12.6094Z" fill="black" fill-opacity="0.85"/>
 </g>
</svg>
