<?xml version="1.0" encoding="UTF-8"?>
<!--Generator: Apple Native CoreSVG 360-->
<!DOCTYPE svg
PUBLIC "-//W3C//DTD SVG 1.1//EN"
       "http://www.w3.org/Graphics/SVG/1.1/DTD/svg11.dtd">
<svg version="1.1" xmlns="http://www.w3.org/2000/svg" xmlns:xlink="http://www.w3.org/1999/xlink" viewBox="0 0 24.0054 27.7755">
 <g>
  <rect height="27.7755" opacity="0" width="24.0054" x="0" y="0"/>
  <path d="M0.0788736 9.4991C-0.155501 10.1671 0.160905 10.7179 0.653092 10.8936C1.02809 11.0343 1.39137 10.8585 1.69606 10.6124C2.76247 9.82723 3.782 9.47566 5.00075 9.92098C6.2195 10.3546 6.71169 11.2569 6.92262 12.5108C6.98122 12.921 7.12184 13.2491 7.4734 13.378C7.8484 13.5186 8.16481 13.3546 8.48122 13.085C9.18434 12.4874 10.1336 12.1827 11.0359 12.2296L5.8445 26.4561C5.657 26.96 5.92653 27.5343 6.44215 27.7218C6.93434 27.8975 7.52028 27.628 7.70778 27.1241L12.8875 12.8975C13.6023 13.4483 14.1179 14.2921 14.2703 15.2061C14.3523 15.5929 14.4812 15.9327 14.8445 16.0616C15.2078 16.1905 15.5242 16.0147 15.8406 15.7569C16.8132 14.9366 17.7507 14.5616 18.9695 14.9952C20.1882 15.4522 20.7507 16.3663 21.0554 17.6788C21.1492 18.0538 21.3015 18.4171 21.6765 18.546C22.1687 18.7218 22.7898 18.5108 23.0125 17.8429C24.6062 13.4718 23.5164 6.18269 16.4617 3.06551L17.0711 1.41316C17.2703 0.827225 17.0476 0.299882 16.4851 0.0889442C15.9461-0.110275 15.4187 0.159257 15.2078 0.733475L14.6101 2.39754C7.20387 0.241288 1.67262 5.10457 0.0788736 9.4991ZM2.82106 8.13973C4.81325 5.08113 8.56325 3.14754 12.7586 3.86238C10.8718 5.10457 9.05544 7.28426 7.87184 10.0968C7.40309 9.19441 6.64137 8.57332 5.63356 8.22176C4.68434 7.88191 3.75856 7.84676 2.82106 8.13973ZM9.28981 10.6827C10.6257 7.50691 12.8757 5.22176 14.9148 4.40144C15.9695 6.34676 16.2273 9.53426 15.2078 12.8507C14.6453 11.878 13.6961 11.0929 12.6297 10.6944C11.5632 10.3077 10.3328 10.3077 9.28981 10.6827ZM16.6609 13.296C17.575 10.378 17.5867 7.55379 16.9422 5.38582C20.5984 7.54207 22.2273 11.4327 21.782 15.0421C21.2547 14.2218 20.5164 13.6475 19.5906 13.296C18.5828 12.9327 17.5984 12.9093 16.6609 13.296Z" fill="black" fill-opacity="0.85"/>
 </g>
</svg>
