<?xml version="1.0" encoding="UTF-8"?>
<!--Generator: Apple Native CoreSVG 360-->
<!DOCTYPE svg
PUBLIC "-//W3C//DTD SVG 1.1//EN"
       "http://www.w3.org/Graphics/SVG/1.1/DTD/svg11.dtd">
<svg version="1.1" xmlns="http://www.w3.org/2000/svg" xmlns:xlink="http://www.w3.org/1999/xlink" viewBox="0 0 32.2266 19.5352">
 <g>
  <rect height="19.5352" opacity="0" width="32.2266" x="0" y="0"/>
  <path d="M0 9.76172C0 15.9961 4.42969 19.5234 12.3164 19.5234L19.5703 19.5234C27.4453 19.5234 31.875 15.9961 31.875 9.76172C31.875 3.52734 27.4453 0 19.5703 0L12.3164 0C4.42969 0 0 3.52734 0 9.76172ZM1.88672 9.76172C1.88672 4.71094 5.625 1.88672 12.3164 1.88672L19.5703 1.88672C26.2617 1.88672 29.9883 4.71094 29.9883 9.76172C29.9883 14.8125 26.2617 17.6367 19.5703 17.6367L12.3164 17.6367C5.625 17.6367 1.88672 14.8125 1.88672 9.76172ZM0.949219 9.76172L30.9258 9.76172L30.9258 8.57812L0.949219 8.57812ZM10.0195 10.5586L21.8672 10.5586C22.6758 10.5586 23.2617 9.98438 23.2617 9.17578C23.2617 8.35547 22.6758 7.79297 21.8672 7.79297L10.0195 7.79297C9.22266 7.79297 8.61328 8.35547 8.61328 9.17578C8.61328 9.98438 9.22266 10.5586 10.0195 10.5586ZM15.9375 13.9922C16.5938 13.9805 17.1211 13.4297 17.1211 12.832C17.1211 12.1758 16.5938 11.6484 15.9375 11.6484C15.293 11.6484 14.7656 12.1758 14.7656 12.832C14.7656 13.4648 15.293 14.0039 15.9375 13.9922Z" fill="black" fill-opacity="0.85"/>
 </g>
</svg>
