<?xml version="1.0" encoding="UTF-8"?>
<!--Generator: Apple Native CoreSVG 360-->
<!DOCTYPE svg
PUBLIC "-//W3C//DTD SVG 1.1//EN"
       "http://www.w3.org/Graphics/SVG/1.1/DTD/svg11.dtd">
<svg version="1.1" xmlns="http://www.w3.org/2000/svg" xmlns:xlink="http://www.w3.org/1999/xlink" viewBox="0 0 21.8672 22.043">
 <g>
  <rect height="22.043" opacity="0" width="21.8672" x="0" y="0"/>
  <path d="M15.0117 22.0078C16.6875 22.0078 18.0234 20.6836 18.0234 18.9844C18.0234 17.9531 17.543 17.1328 16.7812 16.5469L7.25391 9.24609C6.11719 8.37891 5.40234 8.15625 4.07812 8.02734C2.76562 7.89844 2.36719 7.26562 2.36719 6.42188C2.36719 4.47656 4.46484 2.02734 7.51172 2.02734C11.8945 2.02734 15.8203 6.80859 17.0039 10.1719C17.6484 12.0117 17.7539 13.207 17.8945 15.2109C18.0234 16.957 19.6875 17.9883 20.4258 17.9883C21.1289 17.9883 21.5156 17.4844 21.5156 16.7578C21.5156 12.8203 16.2539 0 7.39453 0C2.34375 0 0 4.45312 0 7.38281C0 10.5 0.679688 11.9531 2.74219 13.5352L12.8555 21.2461C13.5586 21.7734 14.2266 22.0078 15.0117 22.0078ZM15.0117 20.7656C14.0039 20.7656 13.2188 19.9805 13.2188 18.9844C13.2188 18 14.0039 17.2148 15.0117 17.2148C15.9961 17.2148 16.7812 18 16.7812 18.9844C16.7812 19.9805 15.9961 20.7656 15.0117 20.7656ZM15.0117 19.9922C15.5625 19.9922 15.9961 19.5352 15.9961 18.9844C15.9961 18.4336 15.5625 17.9883 15.0117 17.9883C14.4375 17.9883 13.9922 18.4336 13.9922 18.9844C13.9922 19.5352 14.4375 19.9922 15.0117 19.9922Z" fill="black" fill-opacity="0.85"/>
  <path d="M15.0117 20.7656C14.0039 20.7656 13.2188 19.9805 13.2188 18.9844C13.2188 18 14.0039 17.2148 15.0117 17.2148C15.9961 17.2148 16.7812 18 16.7812 18.9844C16.7812 19.9805 15.9961 20.7656 15.0117 20.7656ZM15.0117 19.9922C15.5625 19.9922 15.9961 19.5352 15.9961 18.9844C15.9961 18.4336 15.5625 17.9883 15.0117 17.9883C14.4375 17.9883 13.9922 18.4336 13.9922 18.9844C13.9922 19.5352 14.4375 19.9922 15.0117 19.9922Z" fill="black" fill-opacity="0.2125"/>
 </g>
</svg>
