<?xml version="1.0" encoding="UTF-8"?>
<!--Generator: Apple Native CoreSVG 360-->
<!DOCTYPE svg
PUBLIC "-//W3C//DTD SVG 1.1//EN"
       "http://www.w3.org/Graphics/SVG/1.1/DTD/svg11.dtd">
<svg version="1.1" xmlns="http://www.w3.org/2000/svg" xmlns:xlink="http://www.w3.org/1999/xlink" viewBox="0 0 26.7773 23.2852">
 <g>
  <rect height="23.2852" opacity="0" width="26.7773" x="0" y="0"/>
  <path d="M8.80078 23.2734L17.625 23.2734C23.2734 23.2734 26.4258 20.2617 26.4258 14.8594L26.4258 8.41406C26.4258 3.01172 23.2734 0 17.625 0L8.80078 0C3.16406 0 0 3.01172 0 8.41406L0 14.8594C0 20.2617 3.16406 23.2734 8.80078 23.2734ZM8.77734 21.3867C4.35938 21.3867 1.88672 19.0547 1.88672 14.8828L1.88672 8.39062C1.88672 4.21875 4.35938 1.88672 8.77734 1.88672L17.6484 1.88672C22.0664 1.88672 24.5391 4.21875 24.5391 8.39062L24.5391 14.8828C24.5391 19.0547 22.0664 21.3867 17.6484 21.3867ZM13.2188 14.6602C14.6484 14.6602 15.8203 13.5 15.8203 12.1055C15.8203 10.6641 14.625 9.46875 13.2188 9.46875C12.7031 9.46875 12.2227 9.59766 11.8008 9.92578L11.8008 7.85156L10.6289 8.36719L10.6289 12.1055C10.6289 13.5352 11.7422 14.6602 13.2188 14.6602ZM13.2188 13.5C12.4336 13.5 11.8008 12.8672 11.8008 12.1055C11.8008 11.3203 12.457 10.6758 13.2188 10.6758C13.9805 10.6758 14.625 11.332 14.625 12.1055C14.625 12.8672 13.9805 13.5 13.2188 13.5Z" fill="black" fill-opacity="0.85"/>
 </g>
</svg>
