<?xml version="1.0" encoding="UTF-8"?>
<!--Generator: Apple Native CoreSVG 360-->
<!DOCTYPE svg
PUBLIC "-//W3C//DTD SVG 1.1//EN"
       "http://www.w3.org/Graphics/SVG/1.1/DTD/svg11.dtd">
<svg version="1.1" xmlns="http://www.w3.org/2000/svg" xmlns:xlink="http://www.w3.org/1999/xlink" viewBox="0 0 20.543 19.207">
 <g>
  <rect height="19.207" opacity="0" width="20.543" x="0" y="0"/>
  <path d="M8.61328 12.0586C10.2539 12.7617 12.1523 11.9531 12.8672 10.3359L15.2344 4.94531C15.9492 3.31641 15.1641 1.39453 13.5234 0.679688C11.8711-0.0234375 9.97266 0.75 9.24609 2.41406L6.89062 7.80469C6.16406 9.44531 6.96094 11.3438 8.61328 12.0586ZM9.79688 11.0977C8.67188 11.0977 7.79297 10.207 7.79297 9.08203C7.79297 7.96875 8.68359 7.06641 9.79688 7.06641C10.9336 7.06641 11.8242 7.96875 11.8242 9.08203C11.8242 10.207 10.9336 11.0977 9.79688 11.0977ZM9.79688 10.2656C10.4883 10.2656 10.9805 9.73828 10.9805 9.08203C10.9805 8.4375 10.4883 7.89844 9.79688 7.89844C9.12891 7.89844 8.625 8.4375 8.625 9.08203C8.625 9.73828 9.12891 10.2656 9.79688 10.2656ZM19.9336 8.61328C19.3242 6.59766 17.8242 5.63672 16.5469 4.55859C16.4766 4.85156 16.3945 5.12109 16.2656 5.40234L13.8984 10.793C12.9258 13.0078 10.3711 14.0273 8.15625 13.1016C5.98828 12.1523 4.94531 9.71484 5.77734 7.55859C4.69922 8.84766 4.45312 10.8164 5.26172 13.043C6.72656 17.1562 10.4766 17.9297 14.1562 16.4883L16.3711 15.6094C19.3828 14.4258 20.8125 11.6367 19.9336 8.61328Z" fill="black" fill-opacity="0.85"/>
  <path d="M4.19531 13.4297C3.64453 11.9297 3.51562 10.4531 3.83203 9C1.62891 9.59766 0 11.6133 0 14.0156C0 16.8867 2.32031 19.207 5.16797 19.207C6.46875 19.207 7.66406 18.7383 8.56641 17.9297C6.58594 17.2852 5.02734 15.75 4.19531 13.4297Z" fill="black" fill-opacity="0.425"/>
  <path d="M9.79688 11.0977C8.67188 11.0977 7.79297 10.207 7.79297 9.08203C7.79297 7.96875 8.68359 7.06641 9.79688 7.06641C10.9336 7.06641 11.8242 7.96875 11.8242 9.08203C11.8242 10.207 10.9336 11.0977 9.79688 11.0977ZM9.79688 10.2656C10.4883 10.2656 10.9805 9.73828 10.9805 9.08203C10.9805 8.4375 10.4883 7.89844 9.79688 7.89844C9.12891 7.89844 8.625 8.4375 8.625 9.08203C8.625 9.73828 9.12891 10.2656 9.79688 10.2656Z" fill="black" fill-opacity="0.2125"/>
 </g>
</svg>
