<?xml version="1.0" encoding="UTF-8"?>
<!--Generator: Apple Native CoreSVG 360-->
<!DOCTYPE svg
PUBLIC "-//W3C//DTD SVG 1.1//EN"
       "http://www.w3.org/Graphics/SVG/1.1/DTD/svg11.dtd">
<svg version="1.1" xmlns="http://www.w3.org/2000/svg" xmlns:xlink="http://www.w3.org/1999/xlink" viewBox="0 0 21.8672 22.043">
 <g>
  <rect height="22.043" opacity="0" width="21.8672" x="0" y="0"/>
  <path d="M6.50391 22.0078C7.28906 22.0078 7.95703 21.7734 8.66016 21.2461L18.7734 13.5352C20.8359 11.9531 21.5156 10.5 21.5156 7.38281C21.5156 4.45312 19.1719 0 14.1211 0C5.26172 0 0 12.8203 0 16.7578C0 17.4844 0.386719 17.9883 1.08984 17.9883C1.82812 17.9883 3.49219 16.957 3.62109 15.2109C3.76172 13.207 3.86719 12.0117 4.51172 10.1719C5.69531 6.80859 9.62109 2.02734 14.0039 2.02734C17.0391 2.02734 19.1484 4.47656 19.1484 6.42188C19.1484 7.26562 18.75 7.89844 17.4375 8.02734C16.1133 8.15625 15.3984 8.37891 14.2617 9.24609L4.73438 16.5469C3.97266 17.1328 3.49219 17.9531 3.49219 18.9844C3.49219 20.6836 4.82812 22.0078 6.50391 22.0078ZM6.50391 20.7656C5.51953 20.7656 4.73438 19.9805 4.73438 18.9844C4.73438 18 5.51953 17.2148 6.50391 17.2148C7.51172 17.2148 8.28516 18 8.28516 18.9844C8.28516 19.9805 7.51172 20.7656 6.50391 20.7656ZM6.50391 19.9922C7.06641 19.9922 7.52344 19.5352 7.52344 18.9844C7.52344 18.4336 7.06641 17.9883 6.50391 17.9883C5.95312 17.9883 5.51953 18.4336 5.51953 18.9844C5.51953 19.5352 5.95312 19.9922 6.50391 19.9922Z" fill="black" fill-opacity="0.85"/>
  <path d="M6.50391 20.7656C5.51953 20.7656 4.73438 19.9805 4.73438 18.9844C4.73438 18 5.51953 17.2148 6.50391 17.2148C7.51172 17.2148 8.28516 18 8.28516 18.9844C8.28516 19.9805 7.51172 20.7656 6.50391 20.7656ZM6.50391 19.9922C7.06641 19.9922 7.52344 19.5352 7.52344 18.9844C7.52344 18.4336 7.06641 17.9883 6.50391 17.9883C5.95312 17.9883 5.51953 18.4336 5.51953 18.9844C5.51953 19.5352 5.95312 19.9922 6.50391 19.9922Z" fill="black" fill-opacity="0.2125"/>
 </g>
</svg>
