<?xml version="1.0" encoding="UTF-8"?>
<!--Generator: Apple Native CoreSVG 360-->
<!DOCTYPE svg
PUBLIC "-//W3C//DTD SVG 1.1//EN"
       "http://www.w3.org/Graphics/SVG/1.1/DTD/svg11.dtd">
<svg version="1.1" xmlns="http://www.w3.org/2000/svg" xmlns:xlink="http://www.w3.org/1999/xlink" viewBox="0 0 20.5398 19.207">
 <g>
  <rect height="19.207" opacity="0" width="20.5398" x="0" y="0"/>
  <path d="M11.5765 12.0586C13.2289 11.3438 14.014 9.44531 13.2992 7.80469L10.9437 2.41406C10.2054 0.75 8.31871-0.0234375 6.66636 0.679688C5.02574 1.39453 4.24058 3.31641 4.95543 4.94531L7.32261 10.3359C8.03746 11.9531 9.9359 12.7617 11.5765 12.0586ZM10.3929 11.0977C9.25621 11.0977 8.36558 10.207 8.36558 9.08203C8.36558 7.96875 9.25621 7.06641 10.3929 7.06641C11.5062 7.06641 12.3968 7.96875 12.3968 9.08203C12.3968 10.207 11.5179 11.0977 10.3929 11.0977ZM10.3929 10.2656C11.0609 10.2656 11.5648 9.73828 11.5648 9.08203C11.5648 8.4375 11.0609 7.89844 10.3929 7.89844C9.70152 7.89844 9.19761 8.4375 9.19761 9.08203C9.19761 9.73828 9.70152 10.2656 10.3929 10.2656ZM0.256208 8.61328C-0.622698 11.6367 0.806989 14.4258 3.81871 15.6094L6.03355 16.4883C9.71324 17.9297 13.4515 17.1562 14.9281 13.043C15.7367 10.8164 15.4906 8.84766 14.4125 7.55859C15.2445 9.71484 14.1898 12.1523 12.0336 13.1016C9.81871 14.0273 7.26402 13.0078 6.29136 10.793L3.92418 5.40234C3.79527 5.12109 3.70152 4.85156 3.64293 4.55859C2.35386 5.63672 0.853864 6.59766 0.256208 8.61328Z" fill="black" fill-opacity="0.85"/>
  <path d="M15.9945 13.4297C15.1625 15.75 13.6039 17.2852 11.6234 17.9297C12.5257 18.7383 13.7093 19.207 15.0101 19.207C17.8695 19.207 20.1898 16.8867 20.1898 14.0156C20.1898 11.6133 18.5609 9.59766 16.3578 9C16.6625 10.4531 16.5453 11.9297 15.9945 13.4297Z" fill="black" fill-opacity="0.425"/>
  <path d="M10.3929 11.0977C9.25621 11.0977 8.36558 10.207 8.36558 9.08203C8.36558 7.96875 9.25621 7.06641 10.3929 7.06641C11.5062 7.06641 12.3968 7.96875 12.3968 9.08203C12.3968 10.207 11.5179 11.0977 10.3929 11.0977ZM10.3929 10.2656C11.0609 10.2656 11.5648 9.73828 11.5648 9.08203C11.5648 8.4375 11.0609 7.89844 10.3929 7.89844C9.70152 7.89844 9.19761 8.4375 9.19761 9.08203C9.19761 9.73828 9.70152 10.2656 10.3929 10.2656Z" fill="black" fill-opacity="0.2125"/>
 </g>
</svg>
