<?xml version="1.0" encoding="UTF-8"?>
<!--Generator: Apple Native CoreSVG 360-->
<!DOCTYPE svg
PUBLIC "-//W3C//DTD SVG 1.1//EN"
       "http://www.w3.org/Graphics/SVG/1.1/DTD/svg11.dtd">
<svg version="1.1" xmlns="http://www.w3.org/2000/svg" xmlns:xlink="http://www.w3.org/1999/xlink" viewBox="0 0 42.6797 20.9648">
 <g>
  <rect height="20.9648" opacity="0" width="42.6797" x="0" y="0"/>
  <path d="M6.1875 20.9531C6.9375 20.9531 7.57031 20.7305 8.25 20.2266L17.8711 12.8789C19.8398 11.3789 20.4844 9.99609 20.4844 7.03125C20.4844 4.24219 18.2578 0 13.4414 0C5.01562 0 0 12.2109 0 15.9609C0 16.6406 0.363281 17.1211 1.03125 17.1211C1.73438 17.1211 3.31641 16.1367 3.44531 14.4727C3.58594 12.5742 3.67969 11.4375 4.30078 9.67969C5.41406 6.48047 9.15234 1.93359 13.3242 1.93359C16.2305 1.93359 18.2227 4.25391 18.2227 6.11719C18.2227 6.91406 17.8477 7.52344 16.6055 7.64062C15.3398 7.76953 14.6602 7.98047 13.582 8.80078L4.51172 15.75C3.78516 16.3125 3.31641 17.0859 3.31641 18.0703C3.31641 19.6992 4.59375 20.9531 6.1875 20.9531ZM6.1875 19.7695C5.25 19.7695 4.5 19.0195 4.5 18.0703C4.5 17.1328 5.25 16.3828 6.1875 16.3828C7.14844 16.3828 7.89844 17.1328 7.89844 18.0703C7.89844 19.0195 7.14844 19.7695 6.1875 19.7695ZM6.1875 19.0312C6.73828 19.0312 7.16016 18.5977 7.16016 18.0703C7.16016 17.543 6.73828 17.1211 6.1875 17.1211C5.67188 17.1211 5.25 17.543 5.25 18.0703C5.25 18.5977 5.67188 19.0312 6.1875 19.0312ZM36.1406 20.9531C37.7344 20.9531 39.0117 19.6992 39.0117 18.0703C39.0117 17.0859 38.5547 16.3125 37.8281 15.75L28.7578 8.80078C27.6797 7.98047 26.9883 7.76953 25.7344 7.64062C24.4805 7.52344 24.1055 6.91406 24.1055 6.11719C24.1055 4.25391 26.1094 1.93359 29.0039 1.93359C33.1758 1.93359 36.9141 6.48047 38.0391 9.67969C38.6484 11.4375 38.7539 12.5742 38.8828 14.4727C39.0117 16.1367 40.5938 17.1211 41.2969 17.1211C41.9648 17.1211 42.3281 16.6406 42.3281 15.9609C42.3281 12.2109 37.3242 0 28.8984 0C24.082 0 21.8555 4.24219 21.8555 7.03125C21.8555 9.99609 22.5 11.3789 24.457 12.8789L34.0898 20.2266C34.7578 20.7305 35.3906 20.9531 36.1406 20.9531ZM36.1406 19.7695C35.1914 19.7695 34.4414 19.0195 34.4414 18.0703C34.4414 17.1328 35.1914 16.3828 36.1406 16.3828C37.0781 16.3828 37.8281 17.1328 37.8281 18.0703C37.8281 19.0195 37.0781 19.7695 36.1406 19.7695ZM36.1406 19.0312C36.668 19.0312 37.0781 18.5977 37.0781 18.0703C37.0781 17.543 36.668 17.1211 36.1406 17.1211C35.6016 17.1211 35.168 17.543 35.168 18.0703C35.168 18.5977 35.6016 19.0312 36.1406 19.0312Z" fill="black" fill-opacity="0.85"/>
  <path d="M6.1875 19.7695C5.25 19.7695 4.5 19.0195 4.5 18.0703C4.5 17.1328 5.25 16.3828 6.1875 16.3828C7.14844 16.3828 7.89844 17.1328 7.89844 18.0703C7.89844 19.0195 7.14844 19.7695 6.1875 19.7695ZM6.1875 19.0312C6.73828 19.0312 7.16016 18.5977 7.16016 18.0703C7.16016 17.543 6.73828 17.1211 6.1875 17.1211C5.67188 17.1211 5.25 17.543 5.25 18.0703C5.25 18.5977 5.67188 19.0312 6.1875 19.0312ZM36.1406 19.7695C35.1914 19.7695 34.4414 19.0195 34.4414 18.0703C34.4414 17.1328 35.1914 16.3828 36.1406 16.3828C37.0781 16.3828 37.8281 17.1328 37.8281 18.0703C37.8281 19.0195 37.0781 19.7695 36.1406 19.7695ZM36.1406 19.0312C36.668 19.0312 37.0781 18.5977 37.0781 18.0703C37.0781 17.543 36.668 17.1211 36.1406 17.1211C35.6016 17.1211 35.168 17.543 35.168 18.0703C35.168 18.5977 35.6016 19.0312 36.1406 19.0312Z" fill="black" fill-opacity="0.2125"/>
 </g>
</svg>
