<?xml version="1.0" encoding="UTF-8"?>
<!--Generator: Apple Native CoreSVG 360-->
<!DOCTYPE svg
PUBLIC "-//W3C//DTD SVG 1.1//EN"
       "http://www.w3.org/Graphics/SVG/1.1/DTD/svg11.dtd">
<svg version="1.1" xmlns="http://www.w3.org/2000/svg" xmlns:xlink="http://www.w3.org/1999/xlink" viewBox="0 0 29.0625 22.793">
 <g>
  <rect height="22.793" opacity="0" width="29.0625" x="0" y="0"/>
  <path d="M8.53125 10.3711C11.4023 10.3711 13.7227 8.01562 13.7227 5.19141C13.7227 2.33203 11.3438 0.0117188 8.53125 0.0117188C8.02734 0.0117188 7.57031 0.0585938 7.17188 0.1875L7.17188 3.11719C7.57031 2.82422 8.03906 2.66016 8.53125 2.66016C9.87891 2.66016 11.0273 3.82031 11.0273 5.19141C11.0273 6.53906 9.90234 7.65234 8.53125 7.65234C7.13672 7.65234 6.04688 6.57422 6.04688 5.19141L6.04688 0.621094C4.39453 1.55859 3.35156 3.25781 3.35156 5.19141C3.35156 8.07422 5.66016 10.3711 8.53125 10.3711ZM8.53125 6.5625C9.26953 6.5625 9.89062 5.91797 9.89062 5.19141C9.89062 4.48828 9.24609 3.83203 8.53125 3.83203C7.81641 3.83203 7.18359 4.46484 7.18359 5.19141C7.18359 5.92969 7.79297 6.5625 8.53125 6.5625ZM6.60938 9.22266L6.60938 11.9648C6.60938 12.6562 7.06641 13.0078 7.75781 13.0078L9.30469 13.0078C10.0195 13.0078 10.4648 12.6562 10.4648 11.9648L10.4648 9.22266ZM7.65234 22.793L9.42188 22.793L9.42188 11.8008L7.65234 11.8008ZM20.168 10.3711C23.0391 10.3711 25.3594 8.01562 25.3594 5.19141C25.3594 2.33203 22.9805 0.0117188 20.168 0.0117188C19.6641 0.0117188 19.207 0.0585938 18.8086 0.1875L18.8086 3.11719C19.207 2.82422 19.6758 2.66016 20.168 2.66016C21.5156 2.66016 22.6641 3.82031 22.6641 5.19141C22.6641 6.53906 21.5391 7.65234 20.168 7.65234C18.7734 7.65234 17.6836 6.57422 17.6836 5.19141L17.6836 0.621094C16.0312 1.55859 14.9883 3.25781 14.9883 5.19141C14.9883 8.07422 17.2969 10.3711 20.168 10.3711ZM20.168 6.5625C20.9062 6.5625 21.5273 5.91797 21.5273 5.19141C21.5273 4.48828 20.8828 3.83203 20.168 3.83203C19.4531 3.83203 18.8203 4.46484 18.8203 5.19141C18.8203 5.92969 19.4297 6.5625 20.168 6.5625ZM22.1016 9.22266L18.2461 9.22266L18.2461 11.9648C18.2461 12.6562 18.6797 13.0078 19.3945 13.0078L20.9531 13.0078C21.6445 13.0078 22.1016 12.6562 22.1016 11.9648ZM21.0586 22.793L21.0586 11.8008L19.2891 11.8008L19.2891 22.793Z" fill="black" fill-opacity="0.85"/>
  <path d="M2.44922 5.20312C2.44922 3.15234 3.46875 1.34766 5.01562 0.246094C2.16797 0.292969 0 2.42578 0 5.20312C0 7.95703 2.13281 10.1016 5.01562 10.1602C3.46875 9.05859 2.44922 7.25391 2.44922 5.20312ZM26.2617 5.20312C26.2617 7.25391 25.2422 9.05859 23.6953 10.1602C26.5312 10.1016 28.7109 7.98047 28.7109 5.20312C28.7109 2.44922 26.5664 0.292969 23.6953 0.246094C25.2422 1.34766 26.2617 3.15234 26.2617 5.20312Z" fill="black" fill-opacity="0.425"/>
 </g>
</svg>
