<?xml version="1.0" encoding="UTF-8"?>
<!--Generator: Apple Native CoreSVG 360-->
<!DOCTYPE svg
PUBLIC "-//W3C//DTD SVG 1.1//EN"
       "http://www.w3.org/Graphics/SVG/1.1/DTD/svg11.dtd">
<svg version="1.1" xmlns="http://www.w3.org/2000/svg" xmlns:xlink="http://www.w3.org/1999/xlink" viewBox="0 0 37.7344 18.2461">
 <g>
  <rect height="18.2461" opacity="0" width="37.7344" x="0" y="0"/>
  <path d="M2.61328 10.2891C2.61328 9.86719 2.66016 9.45703 2.70703 9.04688C1.08984 9.84375 0 11.4961 0 13.3945C0 16.043 2.13281 18.2461 4.85156 18.2461C6.01172 18.2461 7.07812 17.8242 7.91016 17.1562C4.82812 16.1367 2.61328 13.5703 2.61328 10.2891ZM34.7695 10.2891C34.7695 13.5703 32.5547 16.1367 29.4727 17.1562C30.3047 17.8242 31.3711 18.2461 32.5312 18.2461C35.2383 18.2461 37.3828 16.043 37.3828 13.3945C37.3828 11.4961 36.293 9.84375 34.6641 9.04688C34.7344 9.45703 34.7695 9.86719 34.7695 10.2891Z" fill="black" fill-opacity="0.425"/>
  <path d="M14.9648 6.90234C16.125 4.89844 15.4453 2.40234 13.4414 1.24219C11.4609 0.105469 8.92969 0.773438 7.78125 2.76562L5.78906 6.19922C4.65234 8.19141 5.32031 10.7227 7.32422 11.8594C9.31641 13.0312 11.8359 12.3516 12.9844 10.3359ZM9.1875 10.5352C8.03906 10.5352 7.13672 9.62109 7.13672 8.47266C7.13672 7.33594 8.05078 6.41016 9.1875 6.41016C10.3359 6.41016 11.25 7.33594 11.25 8.47266C11.25 9.62109 10.3359 10.5352 9.1875 10.5352ZM9.1875 9.67969C9.87891 9.67969 10.3945 9.14062 10.3945 8.47266C10.3945 7.80469 9.87891 7.26562 9.1875 7.26562C8.50781 7.26562 7.99219 7.80469 7.99219 8.47266C7.99219 9.14062 8.50781 9.67969 9.1875 9.67969ZM10.8164 16.5352C14.6953 16.5352 17.9414 13.8633 17.9414 9.79688C17.9414 8.10938 17.4375 6.9375 16.5586 5.58984C16.4648 6.21094 16.2539 6.83203 15.9141 7.42969L13.9336 10.875C12.4922 13.4062 9.29297 14.2383 6.78516 12.7852C4.95703 11.7422 4.00781 9.76172 4.19531 7.79297C3.85547 8.61328 3.70312 9.44531 3.70312 10.3008C3.70312 13.9453 6.92578 16.5352 10.8164 16.5352ZM22.4062 6.90234L24.3867 10.3359C25.5352 12.3516 28.0664 13.0312 30.0586 11.8594C32.0625 10.7227 32.7188 8.19141 31.5703 6.19922L29.6016 2.76562C28.4648 0.773438 25.9219 0.105469 23.9414 1.24219C21.9375 2.40234 21.2578 4.89844 22.4062 6.90234ZM28.1953 10.5352C27.0469 10.5352 26.1328 9.62109 26.1328 8.47266C26.1328 7.33594 27.0469 6.41016 28.1953 6.41016C29.332 6.41016 30.2344 7.33594 30.2344 8.47266C30.2344 9.62109 29.3438 10.5352 28.1953 10.5352ZM28.1953 9.67969C28.8633 9.67969 29.3906 9.14062 29.3906 8.47266C29.3906 7.80469 28.8633 7.26562 28.1953 7.26562C27.4922 7.26562 26.9883 7.80469 26.9883 8.47266C26.9883 9.14062 27.4922 9.67969 28.1953 9.67969ZM26.5547 16.5352C30.457 16.5352 33.6797 13.9453 33.6797 10.3008C33.6797 9.44531 33.5039 8.61328 33.1875 7.79297C33.375 9.76172 32.4141 11.7422 30.5977 12.7852C28.0898 14.2383 24.8906 13.4062 23.4492 10.875L21.4688 7.42969C21.1289 6.83203 20.918 6.21094 20.8242 5.58984C19.9336 6.9375 19.4414 8.10938 19.4414 9.79688C19.4414 13.8633 22.6758 16.5352 26.5547 16.5352Z" fill="black" fill-opacity="0.85"/>
  <path d="M9.1875 10.5352C8.03906 10.5352 7.13672 9.62109 7.13672 8.47266C7.13672 7.33594 8.05078 6.41016 9.1875 6.41016C10.3359 6.41016 11.25 7.33594 11.25 8.47266C11.25 9.62109 10.3359 10.5352 9.1875 10.5352ZM9.1875 9.67969C9.87891 9.67969 10.3945 9.14062 10.3945 8.47266C10.3945 7.80469 9.87891 7.26562 9.1875 7.26562C8.50781 7.26562 7.99219 7.80469 7.99219 8.47266C7.99219 9.14062 8.50781 9.67969 9.1875 9.67969ZM28.1953 10.5352C27.0469 10.5352 26.1328 9.62109 26.1328 8.47266C26.1328 7.33594 27.0469 6.41016 28.1953 6.41016C29.332 6.41016 30.2344 7.33594 30.2344 8.47266C30.2344 9.62109 29.3438 10.5352 28.1953 10.5352ZM28.1953 9.67969C28.8633 9.67969 29.3906 9.14062 29.3906 8.47266C29.3906 7.80469 28.8633 7.26562 28.1953 7.26562C27.4922 7.26562 26.9883 7.80469 26.9883 8.47266C26.9883 9.14062 27.4922 9.67969 28.1953 9.67969Z" fill="black" fill-opacity="0.2125"/>
 </g>
</svg>
