<?xml version="1.0" encoding="UTF-8"?>
<!--Generator: Apple Native CoreSVG 360-->
<!DOCTYPE svg
PUBLIC "-//W3C//DTD SVG 1.1//EN"
       "http://www.w3.org/Graphics/SVG/1.1/DTD/svg11.dtd">
<svg version="1.1" xmlns="http://www.w3.org/2000/svg" xmlns:xlink="http://www.w3.org/1999/xlink" viewBox="0 0 19.2305 19.3008">
 <g>
  <rect height="19.3008" opacity="0" width="19.2305" x="0" y="0"/>
  <path d="M2.74219 10.9102C2.74219 10.4766 2.78906 10.043 2.85938 9.62109C1.14844 10.4531 0 12.1992 0 14.2031C0 16.9805 2.25 19.3008 5.09766 19.3008C6.31641 19.3008 7.45312 18.8672 8.32031 18.1523C5.08594 17.0977 2.74219 14.3789 2.74219 10.9102Z" fill="black" fill-opacity="0.425"/>
  <path d="M15.7617 7.35938C16.9805 5.25 16.2539 2.625 14.1445 1.40625C12.0586 0.199219 9.39844 0.902344 8.19141 3.01172L6.10547 6.63281C4.89844 8.73047 5.60156 11.3789 7.69922 12.5859C9.80859 13.8047 12.457 13.1016 13.6758 10.9922ZM9.66797 11.1797C8.46094 11.1797 7.51172 10.2305 7.51172 9.01172C7.51172 7.81641 8.47266 6.84375 9.66797 6.84375C10.8867 6.84375 11.8359 7.81641 11.8359 9.01172C11.8359 10.2305 10.8867 11.1797 9.66797 11.1797ZM9.66797 10.2773C10.4062 10.2773 10.9336 9.72656 10.9336 9.01172C10.9336 8.32031 10.4062 7.74609 9.66797 7.74609C8.95312 7.74609 8.41406 8.32031 8.41406 9.01172C8.41406 9.72656 8.95312 10.2773 9.66797 10.2773ZM11.3906 17.4961C15.4688 17.4961 18.8789 14.6953 18.8789 10.4062C18.8789 8.625 18.3516 7.40625 17.4258 5.97656C17.3203 6.63281 17.1094 7.28906 16.7461 7.91016L14.6719 11.5547C13.1484 14.2031 9.77344 15.0938 7.13672 13.5586C5.21484 12.457 4.20703 10.3711 4.41797 8.29688C4.06641 9.16406 3.89062 10.043 3.89062 10.9219C3.89062 14.7773 7.28906 17.4961 11.3906 17.4961Z" fill="black" fill-opacity="0.85"/>
  <path d="M9.66797 11.1797C8.46094 11.1797 7.51172 10.2305 7.51172 9.01172C7.51172 7.81641 8.47266 6.84375 9.66797 6.84375C10.8867 6.84375 11.8359 7.81641 11.8359 9.01172C11.8359 10.2305 10.8867 11.1797 9.66797 11.1797ZM9.66797 10.2773C10.4062 10.2773 10.9336 9.72656 10.9336 9.01172C10.9336 8.32031 10.4062 7.74609 9.66797 7.74609C8.95312 7.74609 8.41406 8.32031 8.41406 9.01172C8.41406 9.72656 8.95312 10.2773 9.66797 10.2773Z" fill="black" fill-opacity="0.2125"/>
 </g>
</svg>
