<?xml version="1.0" encoding="UTF-8"?>
<!--Generator: Apple Native CoreSVG 360-->
<!DOCTYPE svg
PUBLIC "-//W3C//DTD SVG 1.1//EN"
       "http://www.w3.org/Graphics/SVG/1.1/DTD/svg11.dtd">
<svg version="1.1" xmlns="http://www.w3.org/2000/svg" xmlns:xlink="http://www.w3.org/1999/xlink" viewBox="0 0 32.0156 15.457">
 <g>
  <rect height="15.457" opacity="0" width="32.0156" x="0" y="0"/>
  <path d="M14.4258 15.4336L17.2383 15.4336C21.2109 15.4336 24.1406 15.375 26.6484 14.543C29.8711 13.4531 31.6641 11.0039 31.6641 7.72266C31.6641 4.44141 29.8711 1.99219 26.6484 0.902344C24.1406 0.0585938 21.2109 0 17.2383 0L14.4258 0C10.4531 0 7.52344 0.0585938 5.01562 0.902344C1.79297 1.99219 0 4.44141 0 7.72266C0 11.0039 1.79297 13.4531 5.01562 14.543C7.52344 15.375 10.4531 15.4336 14.4258 15.4336ZM14.4258 13.5469C10.4883 13.5469 7.83984 13.4883 5.625 12.75C3.23438 11.9531 1.875 10.1367 1.875 7.72266C1.875 5.29688 3.23438 3.48047 5.625 2.69531C7.83984 1.95703 10.4883 1.88672 14.4258 1.88672L17.2383 1.88672C21.1758 1.88672 23.8242 1.95703 26.0391 2.69531C28.4297 3.49219 29.7891 5.30859 29.7891 7.72266C29.7891 10.125 28.4297 11.9414 26.0391 12.75C23.8242 13.4883 21.1758 13.5469 17.2383 13.5469ZM15.832 10.5703C17.1445 10.5703 18.2344 9.50391 18.2344 8.22656C18.2344 6.87891 17.1328 5.78906 15.832 5.78906C15.3633 5.78906 14.9297 5.91797 14.5312 6.21094L14.5312 4.3125L13.4531 4.78125L13.4531 8.22656C13.4531 9.52734 14.4844 10.5703 15.832 10.5703ZM15.832 9.50391C15.1172 9.50391 14.5312 8.90625 14.5312 8.22656C14.5312 7.5 15.1406 6.91406 15.832 6.91406C16.5469 6.91406 17.1328 7.51172 17.1328 8.22656C17.1328 8.90625 16.5469 9.50391 15.832 9.50391Z" fill="black" fill-opacity="0.85"/>
 </g>
</svg>
