<?xml version="1.0" encoding="UTF-8"?>
<!--Generator: Apple Native CoreSVG 360-->
<!DOCTYPE svg
PUBLIC "-//W3C//DTD SVG 1.1//EN"
       "http://www.w3.org/Graphics/SVG/1.1/DTD/svg11.dtd">
<svg version="1.1" xmlns="http://www.w3.org/2000/svg" xmlns:xlink="http://www.w3.org/1999/xlink" viewBox="0 0 16.3945 22.6758">
 <g>
  <rect height="22.6758" opacity="0" width="16.3945" x="0" y="0"/>
  <path d="M10.4531 0C4.72266 0 0 6.58594 0 14.6602C0 18.457 1.01953 22.6523 2.25 22.6523C3.19922 22.6523 3.98438 21.3867 4.07812 20.1094C2.19141 19.5586 0.796875 17.8125 0.796875 15.7617C0.796875 14.5312 1.27734 13.4297 2.15625 12.5625C2.57812 6.99609 6.17578 2.10938 10.3242 2.10938C12.8086 2.10938 13.9453 3.96094 13.9453 7.39453L4.04297 12.5625C2.60156 13.3242 1.93359 14.4961 1.93359 15.7617C1.93359 17.6133 3.45703 19.1484 5.30859 19.1484C6.22266 19.1484 6.82031 18.9141 8.10938 18.2227L13.0898 15.4805C15.2695 14.2852 16.043 12.832 16.043 9.76172L16.043 7.03125C16.043 2.71875 14.1445 0 10.4531 0ZM5.22656 17.8828C4.04297 17.8828 3.09375 16.9219 3.09375 15.75C3.09375 14.5781 4.04297 13.6172 5.22656 13.6172C6.39844 13.6172 7.35938 14.5781 7.35938 15.75C7.35938 16.9219 6.39844 17.8828 5.22656 17.8828ZM5.22656 17.0508C5.94141 17.0508 6.52734 16.4648 6.52734 15.75C6.52734 15.0469 5.94141 14.4492 5.22656 14.4492C4.5 14.4492 3.92578 15.0469 3.92578 15.75C3.92578 16.4648 4.5 17.0508 5.22656 17.0508Z" fill="black" fill-opacity="0.85"/>
  <path d="M5.22656 17.8828C4.04297 17.8828 3.09375 16.9219 3.09375 15.75C3.09375 14.5781 4.04297 13.6172 5.22656 13.6172C6.39844 13.6172 7.35938 14.5781 7.35938 15.75C7.35938 16.9219 6.39844 17.8828 5.22656 17.8828ZM5.22656 17.0508C5.94141 17.0508 6.52734 16.4648 6.52734 15.75C6.52734 15.0469 5.94141 14.4492 5.22656 14.4492C4.5 14.4492 3.92578 15.0469 3.92578 15.75C3.92578 16.4648 4.5 17.0508 5.22656 17.0508Z" fill="black" fill-opacity="0.2125"/>
 </g>
</svg>
