<?xml version="1.0" encoding="UTF-8"?>
<!--Generator: Apple Native CoreSVG 360-->
<!DOCTYPE svg
PUBLIC "-//W3C//DTD SVG 1.1//EN"
       "http://www.w3.org/Graphics/SVG/1.1/DTD/svg11.dtd">
<svg version="1.1" xmlns="http://www.w3.org/2000/svg" xmlns:xlink="http://www.w3.org/1999/xlink" viewBox="0 0 40.2539 18.3164">
 <g>
  <rect height="18.3164" opacity="0" width="40.2539" x="0" y="0"/>
  <path d="M8.19141 11.5078C9.76172 12.1758 11.5664 11.4141 12.2461 9.86719L14.5078 4.73438C15.1875 3.1875 14.4375 1.34766 12.8672 0.667969C11.2969 0.0117188 9.50391 0.738281 8.80078 2.32031L6.55078 7.45312C5.87109 9.02344 6.62109 10.8281 8.19141 11.5078ZM9.32812 10.5938C8.26172 10.5938 7.41797 9.75 7.41797 8.67188C7.41797 7.60547 8.27344 6.75 9.32812 6.75C10.4062 6.75 11.25 7.60547 11.25 8.67188C11.25 9.75 10.4062 10.5938 9.32812 10.5938ZM9.32812 9.79688C9.98438 9.79688 10.4531 9.30469 10.4531 8.67188C10.4531 8.0625 9.98438 7.54688 9.32812 7.54688C8.69531 7.54688 8.21484 8.0625 8.21484 8.67188C8.21484 9.30469 8.69531 9.79688 9.32812 9.79688ZM18.9727 8.22656C18.3984 6.30469 16.9688 5.39062 15.75 4.35938C15.6914 4.64062 15.6094 4.89844 15.4922 5.16797L13.2305 10.3008C12.3047 12.3984 9.86719 13.3828 7.75781 12.5039C5.70703 11.5898 4.71094 9.26953 5.49609 7.21875C4.47656 8.44922 4.24219 10.3242 5.00391 12.4453C6.41016 16.3594 9.97266 17.0977 13.4766 15.7266L15.5859 14.8945C18.4453 13.7578 19.8164 11.0977 18.9727 8.22656ZM31.7109 11.5078C33.2695 10.8281 34.0312 9.02344 33.3516 7.45312L31.1016 2.32031C30.3984 0.738281 28.6055 0.0117188 27.0352 0.667969C25.4648 1.34766 24.7148 3.1875 25.3945 4.73438L27.6562 9.86719C28.3359 11.4141 30.1406 12.1758 31.7109 11.5078ZM30.5742 10.5938C29.4961 10.5938 28.6523 9.75 28.6523 8.67188C28.6523 7.60547 29.4961 6.75 30.5742 6.75C31.6289 6.75 32.4844 7.60547 32.4844 8.67188C32.4844 9.75 31.6406 10.5938 30.5742 10.5938ZM30.5742 9.79688C31.207 9.79688 31.6875 9.30469 31.6875 8.67188C31.6875 8.0625 31.207 7.54688 30.5742 7.54688C29.918 7.54688 29.4375 8.0625 29.4375 8.67188C29.4375 9.30469 29.918 9.79688 30.5742 9.79688ZM20.918 8.22656C20.0859 11.0977 21.4453 13.7578 24.3164 14.8945L26.4258 15.7266C29.9297 17.0977 33.4922 16.3594 34.8867 12.4453C35.6602 10.3242 35.4258 8.44922 34.4062 7.21875C35.1914 9.26953 34.1953 11.5898 32.1328 12.5039C30.0352 13.3828 27.5977 12.3984 26.6719 10.3008L24.4102 5.16797C24.293 4.89844 24.2109 4.64062 24.1523 4.35938C22.9219 5.39062 21.5039 6.30469 20.918 8.22656Z" fill="black" fill-opacity="0.85"/>
  <path d="M3.99609 12.8086C3.46875 11.3789 3.35156 9.97266 3.64453 8.58984C1.55859 9.16406 0 11.0859 0 13.3594C0 16.1016 2.20312 18.3164 4.92188 18.3164C6.16406 18.3164 7.28906 17.8594 8.15625 17.0977C6.26953 16.4766 4.78125 15.0117 3.99609 12.8086ZM35.9062 12.8086C35.1094 15.0117 33.6328 16.4766 31.7461 17.0977C32.6133 17.8594 33.7383 18.3164 34.9805 18.3164C37.6992 18.3164 39.9023 16.1016 39.9023 13.3594C39.9023 11.0859 38.3438 9.16406 36.2578 8.58984C36.5508 9.97266 36.4219 11.3789 35.9062 12.8086Z" fill="black" fill-opacity="0.425"/>
  <path d="M9.32812 10.5938C8.26172 10.5938 7.41797 9.75 7.41797 8.67188C7.41797 7.60547 8.27344 6.75 9.32812 6.75C10.4062 6.75 11.25 7.60547 11.25 8.67188C11.25 9.75 10.4062 10.5938 9.32812 10.5938ZM9.32812 9.79688C9.98438 9.79688 10.4531 9.30469 10.4531 8.67188C10.4531 8.0625 9.98438 7.54688 9.32812 7.54688C8.69531 7.54688 8.21484 8.0625 8.21484 8.67188C8.21484 9.30469 8.69531 9.79688 9.32812 9.79688ZM30.5742 10.5938C29.4961 10.5938 28.6523 9.75 28.6523 8.67188C28.6523 7.60547 29.4961 6.75 30.5742 6.75C31.6289 6.75 32.4844 7.60547 32.4844 8.67188C32.4844 9.75 31.6406 10.5938 30.5742 10.5938ZM30.5742 9.79688C31.207 9.79688 31.6875 9.30469 31.6875 8.67188C31.6875 8.0625 31.207 7.54688 30.5742 7.54688C29.918 7.54688 29.4375 8.0625 29.4375 8.67188C29.4375 9.30469 29.918 9.79688 30.5742 9.79688Z" fill="black" fill-opacity="0.2125"/>
 </g>
</svg>
