<?xml version="1.0" encoding="UTF-8"?>
<!--Generator: Apple Native CoreSVG 360-->
<!DOCTYPE svg
PUBLIC "-//W3C//DTD SVG 1.1//EN"
       "http://www.w3.org/Graphics/SVG/1.1/DTD/svg11.dtd">
<svg version="1.1" xmlns="http://www.w3.org/2000/svg" xmlns:xlink="http://www.w3.org/1999/xlink" viewBox="0 0 23.6953 24.9492">
 <g>
  <rect height="24.9492" opacity="0" width="23.6953" x="0" y="0"/>
  <path d="M0 11.7773C0 13.8164 0.515625 15.9258 1.47656 17.8945C1.16016 18.2344 1.08984 18.8789 1.41797 19.5352L3.69141 24.1523C3.89062 24.5625 4.35938 24.7852 4.81641 24.7852C5.30859 24.7852 5.77734 24.5156 5.84766 23.9062L3.28125 18.668C2.47266 17.0273 1.76953 14.3555 1.76953 11.7891C1.76953 5.94141 5.76562 1.99219 11.6719 1.99219C17.5664 1.99219 21.5742 5.94141 21.5742 11.7891C21.5742 14.3555 20.8711 17.0273 20.0625 18.668L17.4844 23.9062C17.5664 24.5156 18.0352 24.7852 18.5273 24.7852C18.9727 24.7852 19.4414 24.5625 19.6523 24.1523L21.9141 19.5352C22.2422 18.8789 22.1836 18.2344 21.8672 17.8945C22.8281 15.9258 23.3438 13.8164 23.3438 11.7773C23.3438 5.21484 18.8203 0 11.6719 0C4.52344 0 0 5.21484 0 11.7773Z" fill="black" fill-opacity="0.85"/>
  <path d="M6.02344 16.043C5.60156 15.1758 4.80469 14.9883 4.19531 15.2344C3.50391 15.5039 3.02344 16.3242 3.53906 17.3789L6.52734 23.4609C6.98438 24.3867 7.80469 24.7148 8.60156 24.3164C9.29297 23.9883 9.55078 23.2031 9.15234 22.3711ZM17.3086 16.043L14.1914 22.3711C13.793 23.2031 14.0508 23.9883 14.7305 24.3164C15.5273 24.7148 16.3594 24.3867 16.8164 23.4609L19.8047 17.3789C20.3203 16.3242 19.8281 15.5039 19.1484 15.2344C18.5273 14.9883 17.7422 15.1758 17.3086 16.043Z" fill="black" fill-opacity="0.425"/>
 </g>
</svg>
