<?xml version="1.0" encoding="UTF-8"?>
<!--Generator: Apple Native CoreSVG 360-->
<!DOCTYPE svg
PUBLIC "-//W3C//DTD SVG 1.1//EN"
       "http://www.w3.org/Graphics/SVG/1.1/DTD/svg11.dtd">
<svg version="1.1" xmlns="http://www.w3.org/2000/svg" xmlns:xlink="http://www.w3.org/1999/xlink" viewBox="0 0 23.7539 23.2852">
 <g>
  <rect height="23.2852" opacity="0" width="23.7539" x="0" y="0"/>
  <path d="M7.18359 23.2734L16.1836 23.2734C20.9297 23.2734 23.4023 20.8125 23.4023 16.0898L23.4023 7.18359C23.4023 2.46094 20.9297 0 16.1836 0L7.18359 0C2.46094 0 0 2.46094 0 7.18359L0 16.0898C0 20.8125 2.46094 23.2734 7.18359 23.2734ZM6.92578 21.3867C3.60938 21.3867 1.88672 19.6523 1.88672 16.3477L1.88672 6.92578C1.88672 3.60938 3.60938 1.88672 6.92578 1.88672L16.5117 1.88672C19.793 1.88672 21.5156 3.59766 21.5156 6.85547L21.5156 16.418C21.5156 19.6758 19.793 21.3867 16.5117 21.3867ZM11.6953 17.1797C14.7656 17.1797 17.2383 14.6602 17.2383 11.6367C17.2383 8.57812 14.707 6.11719 11.6953 6.11719C11.1562 6.11719 10.6641 6.16406 10.2305 6.29297L10.2305 9.43359C10.6641 9.11719 11.1797 8.94141 11.6953 8.94141C13.1367 8.94141 14.3672 10.1836 14.3672 11.6367C14.3672 13.0898 13.1602 14.2734 11.6953 14.2734C10.207 14.2734 9.03516 13.1133 9.03516 11.6367L9.03516 6.77344C7.27734 7.75781 6.16406 9.58594 6.16406 11.6367C6.16406 14.7188 8.63672 17.1797 11.6953 17.1797ZM11.6953 13.1016C12.4805 13.1016 13.1484 12.4102 13.1484 11.6367C13.1484 10.8867 12.457 10.1953 11.6953 10.1953C10.9336 10.1953 10.2539 10.8516 10.2539 11.6367C10.2539 12.4453 10.9102 13.1016 11.6953 13.1016Z" fill="black" fill-opacity="0.85"/>
 </g>
</svg>
