<?xml version="1.0" encoding="UTF-8"?>
<!--Generator: Apple Native CoreSVG 360-->
<!DOCTYPE svg
PUBLIC "-//W3C//DTD SVG 1.1//EN"
       "http://www.w3.org/Graphics/SVG/1.1/DTD/svg11.dtd">
<svg version="1.1" xmlns="http://www.w3.org/2000/svg" xmlns:xlink="http://www.w3.org/1999/xlink" viewBox="0 0 32.1094 14.0039">
 <g>
  <rect height="14.0039" opacity="0" width="32.1094" x="0" y="0"/>
  <path d="M6.98438 0C3.11719 0 0 3.12891 0 6.99609C0 10.8633 3.11719 13.9805 6.98438 13.9805L24.7734 13.9805C28.6289 13.9805 31.7578 10.8633 31.7578 6.99609C31.7578 3.12891 28.6289 0 24.7734 0ZM6.98438 1.88672L24.7734 1.88672C27.6914 1.88672 29.8711 4.06641 29.8711 6.99609C29.8711 9.92578 27.6914 12.0938 24.7734 12.0938L6.98438 12.0938C4.05469 12.0938 1.88672 9.92578 1.88672 6.99609C1.88672 4.06641 4.05469 1.88672 6.98438 1.88672ZM15.8789 10.0312C17.1914 10.0312 18.2695 8.97656 18.2695 7.69922C18.2695 6.375 17.1797 5.27344 15.8789 5.27344C15.4102 5.27344 14.9766 5.40234 14.5781 5.70703L14.5781 3.79688L13.5 4.27734L13.5 7.69922C13.5 9 14.543 10.0312 15.8789 10.0312ZM15.8789 8.97656C15.1758 8.97656 14.5781 8.39062 14.5781 7.69922C14.5781 6.98438 15.1875 6.39844 15.8789 6.39844C16.5938 6.39844 17.1797 6.99609 17.1797 7.69922C17.1797 8.39062 16.5938 8.97656 15.8789 8.97656Z" fill="black" fill-opacity="0.85"/>
 </g>
</svg>
