<?xml version="1.0" encoding="UTF-8"?>
<!--Generator: Apple Native CoreSVG 360-->
<!DOCTYPE svg
PUBLIC "-//W3C//DTD SVG 1.1//EN"
       "http://www.w3.org/Graphics/SVG/1.1/DTD/svg11.dtd">
<svg version="1.1" xmlns="http://www.w3.org/2000/svg" xmlns:xlink="http://www.w3.org/1999/xlink" viewBox="0 0 27.5859 27.2695">
 <g>
  <rect height="27.2695" opacity="0" width="27.5859" x="0" y="0"/>
  <path d="M6.45703 27.2695L8.29688 27.2695C9.04688 27.2695 9.51562 26.7891 9.51562 26.0273L9.51562 24.2461C9.51562 23.4844 9.04688 22.9922 8.29688 22.9922L6.45703 22.9922C5.70703 22.9922 5.23828 23.4844 5.23828 24.2461L5.23828 26.0273C5.23828 26.7891 5.70703 27.2695 6.45703 27.2695ZM6.82031 25.9453C6.65625 25.9453 6.5625 25.8398 6.5625 25.6875L6.5625 24.5977C6.5625 24.4219 6.65625 24.3164 6.82031 24.3164L7.94531 24.3164C8.09766 24.3164 8.19141 24.4219 8.19141 24.5977L8.19141 25.6875C8.19141 25.8398 8.09766 25.9453 7.94531 25.9453ZM6.44531 23.25L8.28516 23.25C8.40234 19.5352 9.71484 16.3125 11.8945 13.7109L10.5703 12.5391C8.0625 15.4922 6.57422 19.0547 6.44531 23.25ZM24.1758 9.48047L26.0156 9.48047C26.7656 9.48047 27.2344 9 27.2344 8.23828L27.2344 6.44531C27.2344 5.69531 26.7656 5.20312 26.0156 5.20312L24.1758 5.20312C23.4375 5.20312 22.957 5.69531 22.957 6.44531L22.957 8.23828C22.957 9 23.4375 9.48047 24.1758 9.48047ZM24.5391 8.15625C24.375 8.15625 24.2812 8.05078 24.2812 7.89844L24.2812 6.80859C24.2812 6.63281 24.375 6.52734 24.5391 6.52734L25.6641 6.52734C25.8281 6.52734 25.9102 6.63281 25.9102 6.80859L25.9102 7.89844C25.9102 8.05078 25.8281 8.15625 25.6641 8.15625ZM13.207 9.99609L14.1211 11.5547C16.6406 9.5625 19.6992 8.39062 23.2383 8.29688L23.2383 6.46875C19.3477 6.55078 16.043 7.81641 13.207 9.99609ZM10.4883 13.418L9.44531 12.4453L1.20703 20.6719L2.21484 21.6914ZM12.6797 9.19922L13.7109 10.1719L21.5039 2.40234L20.4961 1.38281ZM21.1406 3.22266C22.0078 3.22266 22.7109 2.51953 22.7109 1.65234C22.7109 0.785156 22.0078 0.0703125 21.1406 0.0703125C20.2617 0.0703125 19.5586 0.785156 19.5586 1.65234C19.5586 2.51953 20.2617 3.22266 21.1406 3.22266ZM1.57031 22.9922C2.44922 22.9922 3.15234 22.2891 3.15234 21.4219C3.15234 20.543 2.44922 19.8398 1.57031 19.8398C0.703125 19.8398 0 20.543 0 21.4219C0 22.2891 0.703125 22.9922 1.57031 22.9922ZM11.918 14.6484C13.5469 14.6484 14.8828 13.3242 14.8828 11.6953C14.8828 10.0547 13.5469 8.73047 11.918 8.73047C10.2891 8.73047 8.96484 10.0547 8.96484 11.6953C8.96484 13.3242 10.2891 14.6484 11.918 14.6484ZM11.918 13.0898C11.1445 13.0898 10.5234 12.4688 10.5234 11.6953C10.5234 10.9102 11.1445 10.2891 11.918 10.2891C12.6914 10.2891 13.3242 10.9102 13.3242 11.6953C13.3242 12.4688 12.6914 13.0898 11.918 13.0898Z" fill="black" fill-opacity="0.85"/>
 </g>
</svg>
