<?xml version="1.0" encoding="UTF-8"?>
<!--Generator: Apple Native CoreSVG 360-->
<!DOCTYPE svg
PUBLIC "-//W3C//DTD SVG 1.1//EN"
       "http://www.w3.org/Graphics/SVG/1.1/DTD/svg11.dtd">
<svg version="1.1" xmlns="http://www.w3.org/2000/svg" xmlns:xlink="http://www.w3.org/1999/xlink" viewBox="0 0 42.2812 20.5898">
 <g>
  <rect height="20.5898" opacity="0" width="42.2812" x="0" y="0"/>
  <path d="M4.52344 18.3047C4.89844 17.8828 4.78125 17.332 4.35938 16.8516C2.78906 15.1055 1.91016 12.8086 1.91016 10.2891C1.91016 7.76953 2.78906 5.47266 4.35938 3.72656C4.78125 3.24609 4.89844 2.69531 4.52344 2.27344C4.14844 1.82812 3.49219 1.83984 3.04688 2.33203C1.10156 4.44141 0 7.25391 0 10.2891C0 13.3242 1.10156 16.125 3.04688 18.2461C3.49219 18.7383 4.14844 18.7383 4.52344 18.3047ZM37.4062 18.3047C37.7812 18.7383 38.4375 18.7383 38.8828 18.2461C40.8281 16.125 41.9297 13.3242 41.9297 10.2891C41.9297 7.25391 40.8281 4.44141 38.8828 2.33203C38.4375 1.83984 37.7812 1.82812 37.4062 2.27344C37.0312 2.69531 37.1484 3.24609 37.5703 3.72656C39.1406 5.47266 40.0195 7.76953 40.0195 10.2891C40.0195 12.8086 39.1406 15.1055 37.5703 16.8516C37.1484 17.332 37.0312 17.8828 37.4062 18.3047Z" fill="black" fill-opacity="0.85"/>
  <path d="M7.80469 14.9648C8.17969 14.543 8.02734 14.0156 7.65234 13.5117C6.94922 12.6328 6.60938 11.5078 6.60938 10.2891C6.60938 9.07031 6.94922 7.93359 7.65234 7.06641C8.02734 6.5625 8.17969 6.03516 7.80469 5.61328C7.41797 5.16797 6.71484 5.16797 6.30469 5.69531C5.28516 6.96094 4.69922 8.56641 4.69922 10.2891C4.69922 12.0117 5.28516 13.6172 6.30469 14.8828C6.71484 15.4102 7.41797 15.3984 7.80469 14.9648ZM34.125 14.9648C34.5117 15.3984 35.2148 15.4102 35.625 14.8828C36.6445 13.6172 37.2305 12.0117 37.2305 10.2891C37.2305 8.56641 36.6445 6.96094 35.625 5.69531C35.2148 5.16797 34.5117 5.16797 34.125 5.61328C33.75 6.03516 33.9023 6.5625 34.2773 7.06641C34.9805 7.93359 35.3203 9.07031 35.3203 10.2891C35.3203 11.5078 34.9805 12.6328 34.2773 13.5117C33.9023 14.0156 33.75 14.543 34.125 14.9648Z" fill="black" fill-opacity="0.85"/>
  <path d="M20.9648 20.5664C26.6484 20.5664 31.2539 15.9727 31.2539 10.2891C31.2539 4.60547 26.6484 0 20.9648 0C15.2812 0 10.6758 4.60547 10.6758 10.2891C10.6758 15.9727 15.2812 20.5664 20.9648 20.5664ZM20.9648 18.6797C16.3242 18.6797 12.5625 14.9297 12.5625 10.2891C12.5625 5.64844 16.3242 1.88672 20.9648 1.88672C25.6055 1.88672 29.3672 5.64844 29.3672 10.2891C29.3672 14.9297 25.6055 18.6797 20.9648 18.6797Z" fill="black" fill-opacity="0.85"/>
  <path d="M16.5117 14.3086C18.0703 14.3086 19.3242 13.043 19.3242 11.4844C19.3242 9.92578 18.0703 8.66016 16.5117 8.66016C14.9531 8.66016 13.6875 9.92578 13.6875 11.4844C13.6875 13.043 14.9531 14.3086 16.5117 14.3086ZM16.5234 13.4766C15.3984 13.4766 14.5078 12.5859 14.5078 11.4727C14.5078 10.3594 15.3984 9.46875 16.5234 9.46875C17.625 9.46875 18.5156 10.3711 18.5156 11.4727C18.5156 12.5859 17.625 13.4766 16.5234 13.4766ZM16.5117 12.1523C16.8867 12.1523 17.1797 11.8594 17.1797 11.4727C17.1797 11.1094 16.8867 10.8047 16.5117 10.8047C16.1367 10.8047 15.832 11.1094 15.832 11.4727C15.832 11.8594 16.1367 12.1523 16.5117 12.1523ZM25.4531 14.3086C27.0117 14.3086 28.2773 13.043 28.2773 11.4844C28.2773 9.92578 27.0117 8.66016 25.4531 8.66016C23.8945 8.66016 22.6289 9.92578 22.6289 11.4844C22.6289 13.043 23.8945 14.3086 25.4531 14.3086ZM25.4648 13.4766C24.3398 13.4766 23.4492 12.5859 23.4492 11.4727C23.4492 10.3594 24.3398 9.46875 25.4648 9.46875C26.5664 9.46875 27.457 10.3711 27.457 11.4727C27.457 12.5859 26.5664 13.4766 25.4648 13.4766ZM25.4648 12.1523C25.8281 12.1523 26.1328 11.8594 26.1328 11.4727C26.1328 11.1094 25.8281 10.8047 25.4648 10.8047C25.0781 10.8047 24.7852 11.1094 24.7852 11.4727C24.7852 11.8594 25.0781 12.1523 25.4648 12.1523ZM17.4961 7.01953L19.3945 7.01953C19.6172 7.01953 19.8047 6.83203 19.8047 6.62109C19.8047 6.39844 19.6289 6.21094 19.3945 6.21094L17.4961 6.21094C17.2734 6.21094 17.0977 6.38672 17.0977 6.62109C17.0977 6.83203 17.2734 7.01953 17.4961 7.01953ZM16.3945 11.0273L17.0391 11.4961L19.2305 9.08203L20.2734 10.9688L19.0547 10.9688L19.0547 11.7422L20.3789 11.7422C20.7891 11.7422 20.9883 11.6367 21.1992 11.4023L23.7539 8.42578L24.9609 11.4023L25.6875 11.0742L23.4492 5.58984C23.3438 5.33203 23.2031 5.25 22.9219 5.25L21.6797 5.25C21.4453 5.25 21.2578 5.4375 21.2578 5.66016C21.2578 5.87109 21.4336 6.05859 21.6797 6.05859L22.793 6.05859L23.4141 7.59375L19.582 8.08594L18.832 6.73828L18.0234 6.9375L18.7852 8.29688ZM20.0039 8.84766L22.793 8.36719L20.9414 10.5117Z" fill="black" fill-opacity="0.85"/>
 </g>
</svg>
