<?xml version="1.0" encoding="UTF-8"?>
<!--Generator: Apple Native CoreSVG 360-->
<!DOCTYPE svg
PUBLIC "-//W3C//DTD SVG 1.1//EN"
       "http://www.w3.org/Graphics/SVG/1.1/DTD/svg11.dtd">
<svg version="1.1" xmlns="http://www.w3.org/2000/svg" xmlns:xlink="http://www.w3.org/1999/xlink" viewBox="0 0 26.5195 25.0195">
 <g>
  <rect height="25.0195" opacity="0" width="26.5195" x="0" y="0"/>
  <path d="M1.55859 22.2188L24.6094 22.2188L24.6094 21.4336C24.6094 20.9648 24.3398 20.6836 23.8594 20.6836L23.1094 20.6836L23.1094 8.03906L24.1406 8.03906C24.7852 8.03906 25.1602 7.57031 25.1602 7.08984C25.1602 6.73828 24.9609 6.43359 24.5273 6.1875L14.5195 0.410156C14.0508 0.140625 13.5586 0 13.0781 0C12.5977 0 12.0938 0.140625 11.6484 0.410156L1.64062 6.1875C1.19531 6.43359 1.00781 6.73828 1.00781 7.08984C1.00781 7.57031 1.38281 8.03906 2.02734 8.03906L3.05859 8.03906L3.05859 20.6836L2.32031 20.6836C1.83984 20.6836 1.55859 20.9648 1.55859 21.4336ZM4.82812 20.6836L4.82812 6.53906L12.6211 2.16797C12.7617 2.08594 12.9258 2.03906 13.0781 2.03906C13.2305 2.03906 13.3945 2.08594 13.5469 2.16797L21.3398 6.53906L21.3398 20.6836ZM0.9375 25.0078L25.2188 25.0078C25.7344 25.0078 26.168 24.5742 26.168 24.0586C26.168 23.543 25.7344 23.1211 25.2188 23.1211L0.9375 23.1211C0.421875 23.1211 0 23.543 0 24.0586C0 24.5742 0.421875 25.0078 0.9375 25.0078Z" fill="black" fill-opacity="0.85"/>
  <path d="M10.6523 17.4961L13.5703 17.4961C15.6094 17.4961 17.1328 16.5352 17.1328 14.625C17.1328 13.2422 16.1602 12.2578 14.707 12.082L14.707 12.0234C15.8555 11.8359 16.6055 10.8047 16.6055 9.76172C16.6055 8.10938 15.2461 7.20703 13.5469 7.20703L10.6523 7.20703C10.1367 7.20703 9.79688 7.54688 9.79688 8.0625L9.79688 16.6406C9.79688 17.1562 10.1367 17.4961 10.6523 17.4961ZM11.1797 11.6367L11.1797 8.34375L13.207 8.34375C14.332 8.34375 15.2227 8.80078 15.2227 9.92578C15.2227 11.1914 14.1445 11.6367 12.8789 11.6367ZM11.1797 16.3477L11.1797 12.75L13.1836 12.75C14.5664 12.75 15.7383 13.1953 15.7383 14.543C15.7383 15.8789 14.6484 16.3477 13.3125 16.3477ZM11.2969 7.88672L12.082 7.88672L12.082 6.08203C12.082 5.84766 11.918 5.68359 11.6953 5.68359C11.4609 5.68359 11.2969 5.84766 11.2969 6.08203ZM13.1953 7.88672L13.9805 7.88672L13.9805 6.08203C13.9805 5.84766 13.8164 5.68359 13.582 5.68359C13.3594 5.68359 13.1953 5.84766 13.1953 6.08203ZM11.2969 16.8047L11.2969 18.6445C11.2969 18.8672 11.4609 19.0312 11.6953 19.0312C11.918 19.0312 12.082 18.8672 12.082 18.6445L12.082 16.8047ZM13.1953 16.8047L13.1953 18.6445C13.1953 18.8672 13.3594 19.0312 13.582 19.0312C13.8164 19.0312 13.9805 18.8672 13.9805 18.6445L13.9805 16.8047Z" fill="black" fill-opacity="0.85"/>
 </g>
</svg>
