<?xml version="1.0" encoding="UTF-8"?>
<!--Generator: Apple Native CoreSVG 360-->
<!DOCTYPE svg
PUBLIC "-//W3C//DTD SVG 1.1//EN"
       "http://www.w3.org/Graphics/SVG/1.1/DTD/svg11.dtd">
<svg version="1.1" xmlns="http://www.w3.org/2000/svg" xmlns:xlink="http://www.w3.org/1999/xlink" viewBox="0 0 14.707 26.7539">
 <g>
  <rect height="26.7539" opacity="0" width="14.707" x="0" y="0"/>
  <path d="M1.5 23.6133L7.23047 23.6133C11.1797 23.6133 14.3555 21.8438 14.3555 17.9062C14.3555 15.1406 12.4102 13.1602 9.50391 12.8203L9.50391 12.6914C11.6953 12.3047 13.2891 10.3359 13.2891 8.12109C13.2891 4.875 10.6406 3.02344 7.20703 3.02344L1.5 3.02344C0.597656 3.02344 0 3.63281 0 4.52344L0 22.1133C0 22.957 0.539062 23.6133 1.5 23.6133ZM2.32031 11.9883L2.32031 5.05078L6.66797 5.05078C9.05859 5.05078 10.9453 6.04688 10.9453 8.37891C10.9453 11.0273 8.66016 11.9883 6.01172 11.9883ZM2.32031 21.5859L2.32031 14.0039L6.58594 14.0039C9.48047 14.0039 11.9883 14.918 11.9883 17.7891C11.9883 20.5781 9.67969 21.5859 6.85547 21.5859ZM2.85938 4.20703L4.40625 4.20703L4.40625 0.761719C4.40625 0.316406 4.08984 0 3.63281 0C3.17578 0 2.85938 0.316406 2.85938 0.761719ZM6.60938 4.20703L8.14453 4.20703L8.14453 0.761719C8.14453 0.316406 7.82812 0 7.39453 0C6.9375 0 6.60938 0.316406 6.60938 0.761719ZM2.85938 22.3945L2.85938 25.957C2.85938 26.4023 3.17578 26.7305 3.63281 26.7305C4.08984 26.7305 4.40625 26.4023 4.40625 25.957L4.40625 22.3945ZM6.60938 22.3945L6.60938 25.957C6.60938 26.4023 6.9375 26.7305 7.39453 26.7305C7.82812 26.7305 8.14453 26.4023 8.14453 25.957L8.14453 22.3945Z" fill="black" fill-opacity="0.85"/>
 </g>
</svg>
