<?xml version="1.0" encoding="UTF-8"?>
<!--Generator: Apple Native CoreSVG 360-->
<!DOCTYPE svg
PUBLIC "-//W3C//DTD SVG 1.1//EN"
       "http://www.w3.org/Graphics/SVG/1.1/DTD/svg11.dtd">
<svg version="1.1" xmlns="http://www.w3.org/2000/svg" xmlns:xlink="http://www.w3.org/1999/xlink" viewBox="0 0 28.582 23.4085">
 <g>
  <rect height="23.4085" opacity="0" width="28.582" x="0" y="0"/>
  <path d="M28.2305 14.0539C28.2305 6.67105 22.5586 0.612457 15.3398 0.00308175C14.9648-0.0320745 14.6836 0.237457 14.6836 0.612457L14.6836 4.44449C14.6836 4.76089 14.9062 5.00699 15.2227 5.03043C19.7109 5.58121 23.2031 9.41324 23.2031 14.0539C23.2031 16.1632 22.4766 18.1086 21.1992 19.7375C21.0352 19.9367 21.0469 20.1945 21.2227 20.382L24.0234 23.1711C24.2812 23.4289 24.6797 23.4289 24.9141 23.1476C26.9883 20.6867 28.2305 17.5109 28.2305 14.0539Z" fill="black" fill-opacity="0.85"/>
  <path d="M0 14.0539C0 17.5226 1.24219 20.6984 3.31641 23.1593C3.55078 23.4406 3.9375 23.4289 4.20703 23.1711L7.00781 20.382C7.18359 20.1945 7.19531 19.9367 7.03125 19.7375C5.74219 18.1086 5.02734 16.1632 5.02734 14.0539C5.02734 9.41324 8.51953 5.58121 13.0078 5.03043C13.3242 5.00699 13.5469 4.76089 13.5469 4.44449L13.5469 0.612457C13.5469 0.237457 13.2656-0.0320745 12.8906 0.00308175C5.67188 0.612457 0 6.67105 0 14.0539Z" fill="black" fill-opacity="0.85"/>
  <path d="M11.6602 19.3742L14.5781 19.3742C16.6289 19.3742 18.1406 18.4132 18.1406 16.5031C18.1406 15.1203 17.1797 14.1359 15.7148 13.9601L15.7148 13.9015C16.8633 13.714 17.6133 12.6828 17.6133 11.6398C17.6133 9.98746 16.2539 9.08511 14.5547 9.08511L11.6602 9.08511C11.1562 9.08511 10.8047 9.42496 10.8047 9.94058L10.8047 18.5187C10.8047 19.0343 11.1562 19.3742 11.6602 19.3742ZM12.1875 13.5148L12.1875 10.2218L14.2148 10.2218C15.3398 10.2218 16.2422 10.6789 16.2422 11.8039C16.2422 13.0695 15.1641 13.5148 13.8867 13.5148ZM12.1875 18.2257L12.1875 14.6281L14.2031 14.6281C15.5742 14.6281 16.7461 15.0734 16.7461 16.4211C16.7461 17.757 15.6562 18.2257 14.3203 18.2257ZM12.3047 9.7648L13.1016 9.7648L13.1016 7.96011C13.1016 7.72574 12.9375 7.56168 12.7031 7.56168C12.4688 7.56168 12.3047 7.72574 12.3047 7.96011ZM14.2031 9.7648L15 9.7648L15 7.96011C15 7.72574 14.8359 7.56168 14.6016 7.56168C14.3672 7.56168 14.2031 7.72574 14.2031 7.96011ZM12.3047 18.6828L12.3047 20.5226C12.3047 20.7453 12.4688 20.9093 12.7031 20.9093C12.9375 20.9093 13.1016 20.7453 13.1016 20.5226L13.1016 18.6828ZM14.2031 18.6828L14.2031 20.5226C14.2031 20.7453 14.3672 20.9093 14.6016 20.9093C14.8359 20.9093 15 20.7453 15 20.5226L15 18.6828Z" fill="black" fill-opacity="0.85"/>
 </g>
</svg>
