<?xml version="1.0" encoding="UTF-8"?>
<!--Generator: Apple Native CoreSVG 360-->
<!DOCTYPE svg
PUBLIC "-//W3C//DTD SVG 1.1//EN"
       "http://www.w3.org/Graphics/SVG/1.1/DTD/svg11.dtd">
<svg version="1.1" xmlns="http://www.w3.org/2000/svg" xmlns:xlink="http://www.w3.org/1999/xlink" viewBox="0 0 28.582 23.5195">
 <g>
  <rect height="23.5195" opacity="0" width="28.582" x="0" y="0"/>
  <path d="M28.2305 14.1094C28.2305 10.6641 26.9883 7.48828 24.9141 5.02734C24.6797 4.74609 24.2812 4.74609 24.0234 5.01562L21.3047 7.73438C21.082 7.95703 21.0703 8.27344 21.2695 8.51953C22.4766 10.0664 23.2031 12.0117 23.2031 14.1094C23.2031 16.2188 22.4766 18.1641 21.1992 19.793C21.0352 19.9922 21.0469 20.25 21.2227 20.4375L24.0117 23.2266C24.2812 23.4961 24.668 23.4961 24.9141 23.2031C26.9883 20.7422 28.2305 17.5664 28.2305 14.1094Z" fill="black" fill-opacity="0.85"/>
  <path d="M14.1094 5.02734C16.2305 5.02734 18.1758 5.76562 19.7344 6.97266C19.9688 7.16016 20.2734 7.13672 20.4961 6.91406L23.2148 4.19531C23.4844 3.92578 23.4727 3.53906 23.1914 3.30469C20.7422 1.24219 17.5664 0 14.1094 0C10.6641 0 7.48828 1.24219 5.03906 3.30469C4.75781 3.53906 4.74609 3.92578 5.01562 4.19531L7.73438 6.91406C7.95703 7.13672 8.27344 7.16016 8.53125 6.96094C10.0781 5.76562 12.0117 5.02734 14.1094 5.02734Z" fill="black" fill-opacity="0.85"/>
  <path d="M0 14.1094C0 17.5664 1.24219 20.7422 3.31641 23.2031C3.55078 23.4961 3.94922 23.4961 4.20703 23.2266L6.99609 20.4375C7.17188 20.25 7.19531 19.9922 7.03125 19.793C5.75391 18.1641 5.02734 16.2188 5.02734 14.1094C5.02734 12.0117 5.74219 10.0664 6.96094 8.51953C7.14844 8.27344 7.14844 7.95703 6.92578 7.73438L4.20703 5.01562C3.9375 4.74609 3.55078 4.74609 3.31641 5.02734C1.24219 7.48828 0 10.6641 0 14.1094Z" fill="black" fill-opacity="0.85"/>
  <path d="M11.6602 19.4297L14.5781 19.4297C16.6289 19.4297 18.1406 18.4688 18.1406 16.5586C18.1406 15.1758 17.1797 14.1914 15.7148 14.0156L15.7148 13.957C16.8633 13.7695 17.6133 12.7383 17.6133 11.6953C17.6133 10.043 16.2539 9.14062 14.5547 9.14062L11.6602 9.14062C11.1562 9.14062 10.8047 9.48047 10.8047 9.99609L10.8047 18.5742C10.8047 19.0898 11.1562 19.4297 11.6602 19.4297ZM12.1875 13.5703L12.1875 10.2773L14.2148 10.2773C15.3398 10.2773 16.2422 10.7344 16.2422 11.8594C16.2422 13.125 15.1641 13.5703 13.8867 13.5703ZM12.1875 18.2812L12.1875 14.6836L14.2031 14.6836C15.5742 14.6836 16.7461 15.1289 16.7461 16.4766C16.7461 17.8125 15.6562 18.2812 14.3203 18.2812ZM12.3047 9.82031L13.1016 9.82031L13.1016 8.01562C13.1016 7.78125 12.9375 7.61719 12.7031 7.61719C12.4688 7.61719 12.3047 7.78125 12.3047 8.01562ZM14.2031 9.82031L15 9.82031L15 8.01562C15 7.78125 14.8359 7.61719 14.6016 7.61719C14.3672 7.61719 14.2031 7.78125 14.2031 8.01562ZM12.3047 18.7383L12.3047 20.5781C12.3047 20.8008 12.4688 20.9648 12.7031 20.9648C12.9375 20.9648 13.1016 20.8008 13.1016 20.5781L13.1016 18.7383ZM14.2031 18.7383L14.2031 20.5781C14.2031 20.8008 14.3672 20.9648 14.6016 20.9648C14.8359 20.9648 15 20.8008 15 20.5781L15 18.7383Z" fill="black" fill-opacity="0.85"/>
 </g>
</svg>
