<?xml version="1.0" encoding="UTF-8"?>
<!--Generator: Apple Native CoreSVG 360-->
<!DOCTYPE svg
PUBLIC "-//W3C//DTD SVG 1.1//EN"
       "http://www.w3.org/Graphics/SVG/1.1/DTD/svg11.dtd">
<svg version="1.1" xmlns="http://www.w3.org/2000/svg" xmlns:xlink="http://www.w3.org/1999/xlink" viewBox="0 0 25.1953 23.9414">
 <g>
  <rect height="23.9414" opacity="0" width="25.1953" x="0" y="0"/>
  <path d="M3.67969 5.54297L21.4922 5.54297C22.0664 5.54297 22.418 5.41406 22.7227 5.12109L23.7305 4.125C24.0586 3.80859 23.9531 3.15234 23.3789 3.15234L5.56641 3.15234C4.99219 3.15234 4.64062 3.28125 4.33594 3.57422L3.32812 4.57031C3 4.88672 3.10547 5.54297 3.67969 5.54297ZM3.67969 11.5898L21.4922 11.5898C22.0664 11.5898 22.418 11.4727 22.7227 11.1797L23.7305 10.1719C24.0586 9.86719 23.9531 9.21094 23.3789 9.21094L5.56641 9.21094C4.99219 9.21094 4.64062 9.33984 4.33594 9.63281L3.32812 10.6289C3 10.9453 3.10547 11.5898 3.67969 11.5898ZM3.67969 17.6133L21.4922 17.6133C22.0664 17.6133 22.418 17.4844 22.7227 17.1797L23.7305 16.1836C24.0586 15.8789 23.9531 15.2344 23.3789 15.2344L5.56641 15.2344C4.99219 15.2344 4.64062 15.3516 4.33594 15.6562L3.32812 16.6523C3 16.9688 3.10547 17.6133 3.67969 17.6133ZM3.67969 23.6719L21.4922 23.6719C22.0664 23.6719 22.418 23.5312 22.7227 23.2266L23.7305 22.2305C24.0586 21.9258 23.9531 21.2695 23.3789 21.2695L5.56641 21.2695C4.99219 21.2695 4.64062 21.3984 4.33594 21.7031L3.32812 22.6992C3 23.0156 3.10547 23.6719 3.67969 23.6719Z" fill="black" fill-opacity="0.85"/>
  <path d="M0 0.9375C0 1.45312 0.433594 1.88672 0.949219 1.88672L23.9297 1.88672C24.4453 1.88672 24.8789 1.45312 24.8789 0.9375C24.8789 0.421875 24.4453 0 23.9297 0L0.949219 0C0.433594 0 0 0.421875 0 0.9375ZM0.949219 4.60547C1.38281 4.60547 1.74609 4.24219 1.74609 3.80859C1.74609 3.36328 1.38281 3.01172 0.949219 3.01172C0.503906 3.01172 0.140625 3.36328 0.140625 3.80859C0.140625 4.24219 0.503906 4.60547 0.949219 4.60547ZM0.949219 7.32422C1.38281 7.32422 1.74609 6.94922 1.74609 6.51562C1.74609 6.08203 1.38281 5.71875 0.949219 5.71875C0.503906 5.71875 0.140625 6.08203 0.140625 6.51562C0.140625 6.94922 0.503906 7.32422 0.949219 7.32422ZM0.949219 10.0312C1.38281 10.0312 1.74609 9.66797 1.74609 9.23438C1.74609 8.78906 1.38281 8.4375 0.949219 8.4375C0.503906 8.4375 0.140625 8.78906 0.140625 9.23438C0.140625 9.66797 0.503906 10.0312 0.949219 10.0312ZM0.949219 12.75C1.38281 12.75 1.74609 12.375 1.74609 11.9414C1.74609 11.5078 1.38281 11.1445 0.949219 11.1445C0.503906 11.1445 0.140625 11.5078 0.140625 11.9414C0.140625 12.375 0.503906 12.75 0.949219 12.75ZM0.949219 15.457C1.38281 15.457 1.74609 15.0938 1.74609 14.6602C1.74609 14.2148 1.38281 13.8633 0.949219 13.8633C0.503906 13.8633 0.140625 14.2148 0.140625 14.6602C0.140625 15.0938 0.503906 15.457 0.949219 15.457ZM0.949219 18.1758C1.38281 18.1758 1.74609 17.8008 1.74609 17.3672C1.74609 16.9336 1.38281 16.5703 0.949219 16.5703C0.503906 16.5703 0.140625 16.9336 0.140625 17.3672C0.140625 17.8008 0.503906 18.1758 0.949219 18.1758ZM0.949219 23.9297C1.45312 23.9297 1.88672 23.5078 1.88672 22.9922L1.88672 20.2266C1.88672 19.7109 1.46484 19.2891 0.949219 19.2891C0.433594 19.2891 0 19.7109 0 20.2266L0 22.9922C0 23.5078 0.433594 23.9297 0.949219 23.9297Z" fill="black" fill-opacity="0.85"/>
 </g>
</svg>
