<?xml version="1.0" encoding="UTF-8"?>
<!--Generator: Apple Native CoreSVG 360-->
<!DOCTYPE svg
PUBLIC "-//W3C//DTD SVG 1.1//EN"
       "http://www.w3.org/Graphics/SVG/1.1/DTD/svg11.dtd">
<svg version="1.1" xmlns="http://www.w3.org/2000/svg" xmlns:xlink="http://www.w3.org/1999/xlink" viewBox="0 0 25.1953 23.9414">
 <g>
  <rect height="23.9414" opacity="0" width="25.1953" x="0" y="0"/>
  <path d="M3.16406 3.97266L3.16406 6.67969C3.16406 7.17188 3.51562 7.5 4.01953 7.5L23.0859 7.5C23.6133 7.5 23.9297 7.16016 23.9297 6.66797L23.9297 3.96094C23.9297 3.46875 23.6016 3.12891 23.0859 3.12891L4.01953 3.12891C3.50391 3.12891 3.16406 3.48047 3.16406 3.97266ZM3.16406 9.43359L3.16406 12.1641C3.16406 12.6445 3.50391 12.9727 4.01953 12.9727L23.0977 12.9727C23.6016 12.9727 23.9297 12.6328 23.9297 12.1641L23.9297 9.42188C23.9297 8.94141 23.6016 8.61328 23.0977 8.61328L4.03125 8.61328C3.51562 8.61328 3.16406 8.94141 3.16406 9.43359ZM3.16406 14.9062L3.16406 17.625C3.16406 18.1172 3.50391 18.457 4.01953 18.457L23.0859 18.457C23.6133 18.457 23.9297 18.1172 23.9297 17.625L23.9297 14.8945C23.9297 14.4258 23.6133 14.0977 23.0859 14.0977L4.01953 14.0977C3.51562 14.0977 3.16406 14.4258 3.16406 14.9062ZM3.16406 20.3789L3.16406 23.0977C3.16406 23.5898 3.49219 23.918 4.00781 23.918L23.0742 23.918C23.5898 23.918 23.9297 23.5898 23.9297 23.0977L23.9297 20.3789C23.9297 19.875 23.6016 19.5586 23.0859 19.5586L4.01953 19.5586C3.49219 19.5586 3.16406 19.8867 3.16406 20.3789Z" fill="black" fill-opacity="0.85"/>
  <path d="M0 0.9375C0 1.45312 0.433594 1.88672 0.949219 1.88672L23.9297 1.88672C24.4453 1.88672 24.8789 1.45312 24.8789 0.9375C24.8789 0.421875 24.4453 0 23.9297 0L0.949219 0C0.433594 0 0 0.421875 0 0.9375ZM0.949219 4.60547C1.38281 4.60547 1.74609 4.24219 1.74609 3.80859C1.74609 3.36328 1.38281 3.01172 0.949219 3.01172C0.503906 3.01172 0.140625 3.36328 0.140625 3.80859C0.140625 4.24219 0.503906 4.60547 0.949219 4.60547ZM0.949219 7.32422C1.38281 7.32422 1.74609 6.94922 1.74609 6.51562C1.74609 6.08203 1.38281 5.71875 0.949219 5.71875C0.503906 5.71875 0.140625 6.08203 0.140625 6.51562C0.140625 6.94922 0.503906 7.32422 0.949219 7.32422ZM0.949219 10.0312C1.38281 10.0312 1.74609 9.66797 1.74609 9.23438C1.74609 8.78906 1.38281 8.4375 0.949219 8.4375C0.503906 8.4375 0.140625 8.78906 0.140625 9.23438C0.140625 9.66797 0.503906 10.0312 0.949219 10.0312ZM0.949219 12.75C1.38281 12.75 1.74609 12.375 1.74609 11.9414C1.74609 11.5078 1.38281 11.1445 0.949219 11.1445C0.503906 11.1445 0.140625 11.5078 0.140625 11.9414C0.140625 12.375 0.503906 12.75 0.949219 12.75ZM0.949219 15.457C1.38281 15.457 1.74609 15.0938 1.74609 14.6602C1.74609 14.2148 1.38281 13.8633 0.949219 13.8633C0.503906 13.8633 0.140625 14.2148 0.140625 14.6602C0.140625 15.0938 0.503906 15.457 0.949219 15.457ZM0.949219 18.1758C1.38281 18.1758 1.74609 17.8008 1.74609 17.3672C1.74609 16.9336 1.38281 16.5703 0.949219 16.5703C0.503906 16.5703 0.140625 16.9336 0.140625 17.3672C0.140625 17.8008 0.503906 18.1758 0.949219 18.1758ZM0.949219 23.9297C1.45312 23.9297 1.88672 23.5078 1.88672 22.9922L1.88672 20.2266C1.88672 19.7109 1.46484 19.2891 0.949219 19.2891C0.433594 19.2891 0 19.7109 0 20.2266L0 22.9922C0 23.5078 0.433594 23.9297 0.949219 23.9297Z" fill="black" fill-opacity="0.85"/>
 </g>
</svg>
