<?xml version="1.0" encoding="UTF-8"?>
<!--Generator: Apple Native CoreSVG 360-->
<!DOCTYPE svg
PUBLIC "-//W3C//DTD SVG 1.1//EN"
       "http://www.w3.org/Graphics/SVG/1.1/DTD/svg11.dtd">
<svg version="1.1" xmlns="http://www.w3.org/2000/svg" xmlns:xlink="http://www.w3.org/1999/xlink" viewBox="0 0 28.1016 26.1914">
 <g>
  <rect height="26.1914" opacity="0" width="28.1016" x="0" y="0"/>
  <path d="M11.5898 26.0508C13.207 26.0508 14.3086 24.8555 14.3086 23.0391C14.3086 21.2578 13.2422 20.0391 11.5547 20.0391C10.3125 20.0508 8.55469 20.5781 7.58203 21.9961C5.53125 21.8789 1.81641 20.9648 1.82812 18.7266C1.83984 17.2617 2.88281 16.3008 5.57812 15.4219C6.9375 16.7344 9.62109 17.6367 11.5898 17.6367C12.1875 17.6367 12.6094 17.2266 12.6094 16.4883L12.6094 7.65234C12.6094 6.50391 12.3047 6.16406 11.2969 6C7.83984 5.46094 6.66797 4.57031 6.65625 3.90234C6.64453 2.90625 9.53906 1.61719 13.8984 1.61719C18.2578 1.61719 21.1406 2.90625 21.1406 3.90234C21.1172 4.57031 19.9453 5.46094 16.4883 6C15.4805 6.16406 15.1875 6.50391 15.1875 7.65234L15.1875 16.4883C15.1875 17.2266 15.5977 17.6367 16.1953 17.6367C18.1406 17.6367 20.8125 16.7344 22.3125 15.3516C22.6875 14.9883 22.793 14.7539 22.793 13.875L22.793 4.11328C22.793 1.59375 19.5 0 13.8984 0C8.29688 0 4.99219 1.59375 4.99219 4.11328L4.99219 13.6758C1.75781 14.707 0 16.1484 0 18.668C0 21.9258 3.57422 23.3438 7.45312 23.8242C8.03906 24.9492 9.60938 26.0508 11.5898 26.0508ZM10.9922 15.9492C9.41016 15.75 8.08594 15.2695 6.99609 14.4844C6.72656 14.3086 6.62109 14.1445 6.62109 13.8398L6.62109 6.21094C7.75781 6.9375 9.23438 7.35938 10.9922 7.60547ZM16.793 15.9492L16.793 7.60547C18.5508 7.35938 20.0273 6.9375 21.1641 6.21094L21.1641 13.7578C21.1641 14.1211 21.0703 14.2969 20.8008 14.4844C19.6992 15.2695 18.375 15.75 16.793 15.9492Z" fill="black" fill-opacity="0.85"/>
 </g>
</svg>
