<?xml version="1.0" encoding="UTF-8"?>
<!--Generator: Apple Native CoreSVG 360-->
<!DOCTYPE svg
PUBLIC "-//W3C//DTD SVG 1.1//EN"
       "http://www.w3.org/Graphics/SVG/1.1/DTD/svg11.dtd">
<svg version="1.1" xmlns="http://www.w3.org/2000/svg" xmlns:xlink="http://www.w3.org/1999/xlink" viewBox="0 0 29.0859 24.5508">
 <g>
  <rect height="24.5508" opacity="0" width="29.0859" x="0" y="0"/>
  <path d="M16.6758 24.5508L28.043 24.5508C28.4297 24.5508 28.7344 24.2578 28.7344 23.8594C28.7344 23.4609 28.4297 23.1562 28.043 23.1562L16.6758 23.1562C16.3008 23.1562 15.9844 23.4609 15.9844 23.8594C15.9844 24.2578 16.3008 24.5508 16.6758 24.5508Z" fill="black" fill-opacity="0.85"/>
  <path d="M22.3594 20.9531C26.2266 20.9531 28.7344 18.5273 28.7344 15.0117L28.7344 4.69922C28.7344 4.04297 28.3008 3.62109 27.6445 3.62109C26.9883 3.62109 26.5664 4.04297 26.5664 4.69922L26.5664 14.8359C26.5664 17.2852 24.7266 18.9492 22.3594 18.9492C19.7578 18.9492 18.1523 17.2852 18.1523 14.8359L18.1523 4.69922C18.1523 4.04297 17.7188 3.62109 17.0625 3.62109C16.3945 3.62109 15.9844 4.04297 15.9844 4.69922L15.9844 15.0117C15.9844 18.5273 18.4805 20.9531 22.3594 20.9531Z" fill="black" fill-opacity="0.85"/>
  <path d="M1.98047 20.6484L6.78516 20.6484C10.3711 20.6484 12.6328 18.7617 12.6328 15.8672C12.6328 13.582 10.9805 11.9297 8.60156 11.8008L8.60156 11.707C10.5469 11.4375 11.8711 9.97266 11.8711 8.10938C11.8711 5.49609 9.86719 3.89062 6.62109 3.89062L1.98047 3.89062C0.726562 3.89062 0 4.62891 0 5.91797L0 18.6328C0 19.9102 0.726562 20.6484 1.98047 20.6484ZM3.86719 17.9414L3.86719 13.2891L5.50781 13.2891C7.55859 13.2891 8.70703 14.0859 8.70703 15.5859C8.70703 17.1211 7.60547 17.9414 5.58984 17.9414ZM3.86719 10.8516L3.86719 6.64453L5.44922 6.64453C7.08984 6.64453 8.0625 7.39453 8.0625 8.68359C8.0625 10.043 6.98438 10.8516 5.15625 10.8516Z" fill="black" fill-opacity="0.85"/>
 </g>
</svg>
