<?xml version="1.0" encoding="UTF-8"?>
<!--Generator: Apple Native CoreSVG 360-->
<!DOCTYPE svg
PUBLIC "-//W3C//DTD SVG 1.1//EN"
       "http://www.w3.org/Graphics/SVG/1.1/DTD/svg11.dtd">
<svg version="1.1" xmlns="http://www.w3.org/2000/svg" xmlns:xlink="http://www.w3.org/1999/xlink" viewBox="0 0 42.5977 24.5508">
 <g>
  <rect height="24.5508" opacity="0" width="42.5977" x="0" y="0"/>
  <path d="M30.1758 24.5508L41.543 24.5508C41.9297 24.5508 42.2461 24.2578 42.2461 23.8594C42.2461 23.4609 41.9297 23.1562 41.543 23.1562L30.1758 23.1562C29.8125 23.1562 29.4844 23.4609 29.4844 23.8594C29.4844 24.2578 29.8125 24.5508 30.1758 24.5508Z" fill="black" fill-opacity="0.85"/>
  <path d="M35.8594 20.9531C39.7383 20.9531 42.2461 18.5273 42.2461 15.0117L42.2461 4.69922C42.2461 4.04297 41.8008 3.62109 41.1445 3.62109C40.4883 3.62109 40.0781 4.04297 40.0781 4.69922L40.0781 14.8359C40.0781 17.2852 38.2266 18.9492 35.8594 18.9492C33.2578 18.9492 31.6523 17.2852 31.6523 14.8359L31.6523 4.69922C31.6523 4.04297 31.2188 3.62109 30.5625 3.62109C29.9062 3.62109 29.4844 4.04297 29.4844 4.69922L29.4844 15.0117C29.4844 18.5273 31.9805 20.9531 35.8594 20.9531Z" fill="black" fill-opacity="0.85"/>
  <path d="M15.3047 20.6484L22.7109 20.6484C23.2617 20.6484 23.6484 20.3086 23.6484 19.7578C23.6484 19.2305 23.2734 18.8906 22.7227 18.8906L20.0859 18.8906L22.9336 5.64844L25.5586 5.64844C26.1094 5.64844 26.4961 5.30859 26.4961 4.75781C26.4961 4.23047 26.1211 3.89062 25.5703 3.89062L18.1406 3.89062C17.5898 3.89062 17.2148 4.23047 17.2148 4.75781C17.2148 5.30859 17.6016 5.64844 18.1523 5.64844L20.7656 5.64844L17.918 18.8906L15.293 18.8906C14.7422 18.8906 14.3555 19.2305 14.3555 19.7578C14.3555 20.3086 14.7539 20.6484 15.3047 20.6484Z" fill="black" fill-opacity="0.85"/>
  <path d="M1.98047 20.6484L6.78516 20.6484C10.3711 20.6484 12.6328 18.7617 12.6328 15.8672C12.6328 13.582 10.9805 11.9297 8.60156 11.8008L8.60156 11.707C10.5469 11.4375 11.8711 9.97266 11.8711 8.10938C11.8711 5.49609 9.86719 3.89062 6.62109 3.89062L1.98047 3.89062C0.726562 3.89062 0 4.62891 0 5.91797L0 18.6328C0 19.9102 0.726562 20.6484 1.98047 20.6484ZM3.86719 17.9414L3.86719 13.2891L5.50781 13.2891C7.55859 13.2891 8.70703 14.0859 8.70703 15.5859C8.70703 17.1211 7.60547 17.9414 5.58984 17.9414ZM3.86719 10.8516L3.86719 6.64453L5.44922 6.64453C7.08984 6.64453 8.0625 7.39453 8.0625 8.68359C8.0625 10.043 6.98438 10.8516 5.15625 10.8516Z" fill="black" fill-opacity="0.85"/>
 </g>
</svg>
