<?xml version="1.0" encoding="UTF-8"?>
<!--Generator: Apple Native CoreSVG 360-->
<!DOCTYPE svg
PUBLIC "-//W3C//DTD SVG 1.1//EN"
       "http://www.w3.org/Graphics/SVG/1.1/DTD/svg11.dtd">
<svg version="1.1" xmlns="http://www.w3.org/2000/svg" xmlns:xlink="http://www.w3.org/1999/xlink" viewBox="0 0 14.2852 16.7695">
 <g>
  <rect height="16.7695" opacity="0" width="14.2852" x="0" y="0"/>
  <path d="M1.98047 16.7578L8.08594 16.7578C11.6719 16.7578 13.9336 14.8711 13.9336 11.9766C13.9336 9.69141 12.2812 8.03906 9.90234 7.91016L9.90234 7.81641C11.8477 7.54688 13.1719 6.08203 13.1719 4.21875C13.1719 1.60547 11.168 0 7.92188 0L1.98047 0C0.726562 0 0 0.738281 0 2.02734L0 14.7422C0 16.0195 0.726562 16.7578 1.98047 16.7578ZM3.86719 14.0508L3.86719 9.39844L6.80859 9.39844C8.85938 9.39844 10.0078 10.1953 10.0078 11.6953C10.0078 13.2305 8.90625 14.0508 6.89062 14.0508ZM3.86719 6.96094L3.86719 2.75391L6.75 2.75391C8.39062 2.75391 9.36328 3.50391 9.36328 4.79297C9.36328 6.15234 8.28516 6.96094 6.45703 6.96094Z" fill="black" fill-opacity="0.85"/>
 </g>
</svg>
