<?xml version="1.0" encoding="UTF-8"?>
<!--Generator: Apple Native CoreSVG 360-->
<!DOCTYPE svg
PUBLIC "-//W3C//DTD SVG 1.1//EN"
       "http://www.w3.org/Graphics/SVG/1.1/DTD/svg11.dtd">
<svg version="1.1" xmlns="http://www.w3.org/2000/svg" xmlns:xlink="http://www.w3.org/1999/xlink" viewBox="0 0 28.0781 21.7852">
 <g>
  <rect height="21.7852" opacity="0" width="28.0781" x="0" y="0"/>
  <path d="M13.8633 18.5156C17.8008 18.5156 23.0391 18.3164 25.2539 18.0586C26.8477 17.8828 27.7266 17.0039 27.7266 15.5039L27.7266 13.4414C27.7266 11.4609 27.3281 10.3594 26.25 8.95312L25.2539 7.67578C24.832 5.56641 24.0469 3.35156 23.6484 2.48438C23.0156 1.16016 21.8086 0.375 20.25 0.164062C19.4648 0.0585938 16.8984 0 13.8633 0C10.8398 0 8.27344 0.0703125 7.48828 0.164062C5.92969 0.351562 4.71094 1.16016 4.08984 2.48438C3.67969 3.35156 2.90625 5.56641 2.47266 7.67578L1.48828 8.95312C0.398438 10.3594 0 11.4609 0 13.4414L0 15.5039C0 17.0039 0.890625 17.8828 2.47266 18.0586C4.69922 18.3164 9.92578 18.5156 13.8633 18.5156ZM13.8633 16.9805C9.87891 16.9805 4.76953 16.793 2.88281 16.5586C1.88672 16.4414 1.53516 15.9258 1.53516 15.0352L1.53516 13.4414C1.53516 11.8359 1.79297 11.0859 2.70703 9.89062L3.90234 8.32031C4.21875 6.62109 4.98047 4.25391 5.48438 3.17578C5.85938 2.36719 6.59766 1.86328 7.66406 1.73438C8.41406 1.64062 10.793 1.53516 13.8633 1.53516C16.9453 1.53516 19.3594 1.64062 20.0391 1.73438C21.1406 1.875 21.8672 2.37891 22.2539 3.17578C22.7578 4.25391 23.5195 6.62109 23.8242 8.32031L25.0312 9.89062C25.9336 11.0859 26.1914 11.8359 26.1914 13.4414L26.1914 15.0352C26.1914 15.9258 25.8398 16.4414 24.8438 16.5586C22.9688 16.793 17.8477 16.9805 13.8633 16.9805ZM2.15625 21.7383L3.52734 21.7383C4.40625 21.7383 5.08594 21.0586 5.08594 20.1914L5.08594 17.4023L0.597656 16.7578L0.597656 20.1914C0.597656 21.0586 1.27734 21.7383 2.15625 21.7383ZM24.1992 21.7383L25.582 21.7383C26.4609 21.7383 27.1289 21.0586 27.1289 20.1914L27.1289 16.7578L22.6523 17.4023L22.6523 20.1914C22.6523 21.0586 23.3203 21.7383 24.1992 21.7383Z" fill="black" fill-opacity="0.85"/>
  <path d="M10.1602 9.96094C10.1602 10.1719 10.3359 10.3242 10.5586 10.3242L13.4648 10.3242L11.9062 14.4844C11.6953 15.0352 12.293 15.3398 12.6562 14.8945L17.332 9C17.4375 8.89453 17.4961 8.76562 17.4961 8.66016C17.4961 8.44922 17.3086 8.28516 17.0859 8.28516L14.1914 8.28516L15.7383 4.13672C15.9375 3.57422 15.3516 3.28125 15 3.72656L10.3008 9.62109C10.2188 9.73828 10.1602 9.84375 10.1602 9.96094Z" fill="black" fill-opacity="0.85"/>
 </g>
</svg>
