<?xml version="1.0" encoding="UTF-8"?>
<!--Generator: Apple Native CoreSVG 360-->
<!DOCTYPE svg
PUBLIC "-//W3C//DTD SVG 1.1//EN"
       "http://www.w3.org/Graphics/SVG/1.1/DTD/svg11.dtd">
<svg version="1.1" xmlns="http://www.w3.org/2000/svg" xmlns:xlink="http://www.w3.org/1999/xlink" viewBox="0 0 27.9844 20.0977">
 <g>
  <rect height="20.0977" opacity="0" width="27.9844" x="0" y="0"/>
  <path d="M3.67969 20.0977L23.9531 20.0977C26.4141 20.0977 27.6328 18.8789 27.6328 16.4648L27.6328 6.63281C27.6328 4.23047 26.4141 3.01172 23.9531 3.01172L22.6523 3.01172L22.6523 1.44141C22.6523 0.550781 22.1367 0.0117188 21.2344 0.0117188L18.8906 0.0117188C18 0.0117188 17.4844 0.550781 17.4844 1.44141L17.4844 3.01172L10.1602 3.01172L10.1602 1.44141C10.1602 0.550781 9.64453 0.0117188 8.74219 0.0117188L6.39844 0.0117188C5.49609 0.0117188 4.98047 0.550781 4.98047 1.44141L4.98047 3.01172L3.67969 3.01172C1.23047 3.01172 0 4.21875 0 6.63281L0 16.4648C0 18.8906 1.23047 20.0977 3.67969 20.0977ZM1.88672 16.3711L1.88672 6.73828C1.88672 5.51953 2.53125 4.89844 3.70312 4.89844L23.9297 4.89844C25.0898 4.89844 25.7461 5.51953 25.7461 6.73828L25.7461 16.3711C25.7461 17.5781 25.0898 18.2109 23.9297 18.2109L3.70312 18.2109C2.53125 18.2109 1.88672 17.5781 1.88672 16.3711Z" fill="black" fill-opacity="0.85"/>
  <path d="M10.1016 12.293C10.1016 12.5156 10.2773 12.668 10.5 12.668L13.4062 12.668L11.8477 16.8281C11.6484 17.3789 12.2461 17.6836 12.5977 17.2266L17.2852 11.3438C17.3789 11.2383 17.4375 11.1094 17.4375 11.0039C17.4375 10.793 17.25 10.6289 17.0273 10.6289L14.1328 10.6289L15.6797 6.48047C15.8789 5.91797 15.293 5.61328 14.9414 6.07031L10.2422 11.9648C10.1602 12.082 10.1016 12.1875 10.1016 12.293Z" fill="black" fill-opacity="0.85"/>
 </g>
</svg>
