<?xml version="1.0" encoding="UTF-8"?>
<!--Generator: Apple Native CoreSVG 360-->
<!DOCTYPE svg
PUBLIC "-//W3C//DTD SVG 1.1//EN"
       "http://www.w3.org/Graphics/SVG/1.1/DTD/svg11.dtd">
<svg version="1.1" xmlns="http://www.w3.org/2000/svg" xmlns:xlink="http://www.w3.org/1999/xlink" viewBox="0 0 23.625 22.2305">
 <g>
  <rect height="22.2305" opacity="0" width="23.625" x="0" y="0"/>
  <path d="M0 7.79297C0 12.7852 4.18359 17.6953 10.793 21.9141C11.0391 22.0664 11.3906 22.2305 11.6367 22.2305C11.8828 22.2305 12.2344 22.0664 12.4922 21.9141C19.0898 17.6953 23.2734 12.7852 23.2734 7.79297C23.2734 3.64453 20.4258 0.714844 16.6289 0.714844C14.4609 0.714844 12.7031 1.74609 11.6367 3.32812C10.5938 1.75781 8.8125 0.714844 6.64453 0.714844C2.84766 0.714844 0 3.64453 0 7.79297ZM1.88672 7.79297C1.88672 4.67578 3.90234 2.60156 6.62109 2.60156C8.82422 2.60156 10.0898 3.97266 10.8398 5.14453C11.1562 5.61328 11.3555 5.74219 11.6367 5.74219C11.918 5.74219 12.0938 5.60156 12.4336 5.14453C13.2422 3.99609 14.4609 2.60156 16.6523 2.60156C19.3711 2.60156 21.3867 4.67578 21.3867 7.79297C21.3867 12.1523 16.7812 16.8516 11.8828 20.1094C11.7656 20.1914 11.6836 20.25 11.6367 20.25C11.5898 20.25 11.5078 20.1914 11.4023 20.1094C6.49219 16.8516 1.88672 12.1523 1.88672 7.79297Z" fill="black" fill-opacity="0.85"/>
  <path d="M7.94531 12.5977C7.94531 12.8086 8.12109 12.9609 8.34375 12.9609L11.2383 12.9609L9.69141 17.1094C9.48047 17.6602 10.0664 17.9648 10.4297 17.5195L15.1055 11.6367C15.1992 11.5312 15.2578 11.4141 15.2578 11.3086C15.2578 11.0859 15.082 10.9336 14.8594 10.9336L11.9648 10.9336L13.5117 6.78516C13.7227 6.23438 13.1367 5.94141 12.7734 6.375L8.08594 12.2578C7.99219 12.3633 7.94531 12.4805 7.94531 12.5977Z" fill="black" fill-opacity="0.85"/>
 </g>
</svg>
