<?xml version="1.0" encoding="UTF-8"?>
<!--Generator: Apple Native CoreSVG 360-->
<!DOCTYPE svg
PUBLIC "-//W3C//DTD SVG 1.1//EN"
       "http://www.w3.org/Graphics/SVG/1.1/DTD/svg11.dtd">
<svg version="1.1" xmlns="http://www.w3.org/2000/svg" xmlns:xlink="http://www.w3.org/1999/xlink" viewBox="0 0 28.7461 27.5039">
 <g>
  <rect height="27.5039" opacity="0" width="28.7461" x="0" y="0"/>
  <path d="M26.5975 6.35978C26.1331 6.14267 25.6141 6.02344 25.0664 6.02344C24.3298 6.02344 23.6436 6.23908 23.0693 6.61312C22.5399 5.74623 21.5156 5.19141 20.0625 5.19141C18.344 5.19141 16.616 5.98422 15.0906 7.24803C16.7547 9.04917 18.1544 11.1918 19.0843 13.3077C20.2555 12.843 21.1812 12.23 21.8685 11.5507C22.2473 12.2125 22.8282 12.7423 23.5285 13.058C22.5058 13.8343 21.2332 14.4918 19.7079 14.961C20.107 16.1608 20.3203 17.3169 20.3203 18.3633C20.3203 22.2773 17.6484 25.1016 13.875 25.1016C13.7516 25.1016 13.6294 25.0986 13.5118 25.0847C13.9769 24.4725 14.25 23.7069 14.25 22.875C14.25 22.5121 14.1977 22.1618 14.098 21.832C16.3105 21.7165 17.8242 19.8108 17.8242 17.2031C17.8242 16.6365 17.7646 16.0515 17.6414 15.4572C16.5057 15.6729 15.2499 15.7852 13.8867 15.7852C12.5316 15.7852 11.2676 15.6693 10.1112 15.4492C9.98638 16.0462 9.92578 16.6339 9.92578 17.2031C9.92578 17.9367 10.0456 18.6148 10.2707 19.2103C9.2429 19.2885 8.33927 19.7831 7.72391 20.525C7.5306 19.8577 7.42969 19.1325 7.42969 18.3633C7.42969 17.3125 7.6459 16.151 8.04948 14.9459C3.57491 13.5625 1.03125 10.6296 1.03125 7.74609C1.03125 6.11368 1.59301 4.75373 2.68028 3.84735C2.73429 5.16077 3.47296 6.29434 4.55064 6.89885C4.36906 7.284 4.27734 7.72111 4.27734 8.19141C4.27734 9.80331 5.54981 12.0769 8.66901 13.3123C9.60355 11.1939 11.0104 9.04853 12.6819 7.2455C11.7128 6.43456 10.6575 5.82263 9.57422 5.48696C9.8737 4.95481 10.043 4.33841 10.043 3.67969C10.043 3.5895 10.0397 3.50009 10.0295 3.41264C11.3708 4.00095 12.6786 4.91792 13.887 6.03324C16.1154 3.98442 18.6764 2.60156 21.1523 2.60156C24.2995 2.60156 26.1534 4.31434 26.5975 6.35978ZM10.533 13.8694C11.5134 14.0831 12.6296 14.2031 13.8867 14.2031C15.1245 14.2031 16.2345 14.0824 17.2207 13.8688C16.5585 11.8807 15.3641 9.91246 13.8855 8.35592C12.4006 9.91261 11.1992 11.881 10.533 13.8694Z" fill="black" fill-opacity="0.85"/>
  <path d="M6.35156 5.97656C7.62891 5.97656 8.64844 4.95703 8.64844 3.67969C8.64844 2.41406 7.62891 1.38281 6.35156 1.38281C5.08594 1.38281 4.05469 2.41406 4.05469 3.67969C4.05469 4.95703 5.08594 5.97656 6.35156 5.97656ZM25.0664 12.0117C26.3438 12.0117 27.3633 10.9805 27.3633 9.71484C27.3633 8.4375 26.332 7.40625 25.0664 7.40625C23.7891 7.40625 22.7695 8.4375 22.7695 9.71484C22.7695 10.9805 23.7891 12.0117 25.0664 12.0117ZM10.5703 25.1719C11.8359 25.1719 12.8672 24.1523 12.8672 22.875C12.8672 21.5977 11.8359 20.5781 10.5703 20.5781C9.29297 20.5781 8.26172 21.5977 8.26172 22.875C8.26172 24.1523 9.29297 25.1719 10.5703 25.1719Z" fill="black" fill-opacity="0.85"/>
 </g>
</svg>
