<?xml version="1.0" encoding="UTF-8"?>
<!--Generator: Apple Native CoreSVG 360-->
<!DOCTYPE svg
PUBLIC "-//W3C//DTD SVG 1.1//EN"
       "http://www.w3.org/Graphics/SVG/1.1/DTD/svg11.dtd">
<svg version="1.1" xmlns="http://www.w3.org/2000/svg" xmlns:xlink="http://www.w3.org/1999/xlink" viewBox="0 0 29.3086 26.7539">
 <g>
  <rect height="26.7539" opacity="0" width="29.3086" x="0" y="0"/>
  <path d="M0 23.2383C0 25.043 0.867188 25.9336 2.67188 25.9336L18.6797 25.9336C20.4727 25.9336 21.3516 25.043 21.3516 23.2383L21.3516 2.70703C21.3516 0.902344 20.4727 0 18.6797 0L16.3828 0C14.5898 0 13.7109 0.902344 13.7109 2.70703L13.7109 7.35938C13.4531 7.30078 13.1484 7.25391 12.8203 7.25391L7.71094 7.25391C7.37109 7.25391 7.07812 7.30078 6.80859 7.35938L6.80859 5.95312C6.80859 4.14844 5.94141 3.24609 4.14844 3.24609L2.67188 3.24609C0.867188 3.24609 0 4.14844 0 5.95312ZM1.76953 23.0977L1.76953 6.08203C1.76953 5.39062 2.13281 5.01562 2.85938 5.01562L3.96094 5.01562C4.6875 5.01562 5.03906 5.39062 5.03906 6.08203L5.03906 24.1641L2.85938 24.1641C2.13281 24.1641 1.76953 23.7891 1.76953 23.0977ZM6.80859 24.1641L6.80859 10.0898C6.80859 9.39844 7.17188 9.02344 7.89844 9.02344L12.6328 9.02344C13.3594 9.02344 13.7109 9.39844 13.7109 10.0898L13.7109 24.1641ZM15.4805 24.1641L15.4805 2.83594C15.4805 2.14453 15.8438 1.76953 16.5703 1.76953L18.4922 1.76953C19.2305 1.76953 19.582 2.14453 19.582 2.83594L19.582 23.0977C19.582 23.7891 19.2305 24.1641 18.4922 24.1641ZM7.875 11.2969C7.875 11.707 8.17969 12.0234 8.61328 12.0234L11.9414 12.0234C12.3516 12.0234 12.668 11.707 12.668 11.2969C12.668 10.8984 12.3516 10.582 11.9414 10.582L8.61328 10.582C8.17969 10.582 7.875 10.8984 7.875 11.2969ZM7.875 21.8906C7.875 22.3008 8.17969 22.6172 8.61328 22.6172L11.9414 22.6172C12.3516 22.6172 12.668 22.3008 12.668 21.8906C12.668 21.4922 12.3516 21.1758 11.9414 21.1758L8.61328 21.1758C8.17969 21.1758 7.875 21.4922 7.875 21.8906ZM22.4062 23.5664C22.6289 25.3477 23.5781 26.1797 25.3711 25.9336L26.5898 25.7695C28.3828 25.5234 29.1211 24.5742 28.9219 22.793L26.9062 5.27344C26.6953 3.49219 25.7344 2.64844 23.9414 2.90625L22.7227 3.07031C20.918 3.32812 20.168 4.26562 20.3789 6.04688ZM24.1406 23.2148L22.1602 5.97656C22.0781 5.28516 22.3945 4.89844 23.1211 4.79297L23.9648 4.6875C24.6914 4.58203 25.0898 4.93359 25.1719 5.61328L27.1523 22.8516C27.2344 23.5547 26.918 23.9297 26.2031 24.0352L25.3359 24.1523C24.6211 24.2578 24.2227 23.918 24.1406 23.2148Z" fill="black" fill-opacity="0.85"/>
 </g>
</svg>
