<?xml version="1.0" encoding="UTF-8"?>
<!--Generator: Apple Native CoreSVG 360-->
<!DOCTYPE svg
PUBLIC "-//W3C//DTD SVG 1.1//EN"
       "http://www.w3.org/Graphics/SVG/1.1/DTD/svg11.dtd">
<svg version="1.1" xmlns="http://www.w3.org/2000/svg" xmlns:xlink="http://www.w3.org/1999/xlink" viewBox="0 0 33.7969 22.8633">
 <g>
  <rect height="22.8633" opacity="0" width="33.7969" x="0" y="0"/>
  <path d="M1.76953 6.64453C2.30859 6.79688 2.80078 6.55078 3.02344 6.01172C3.49219 4.83984 4.10156 3.72656 4.83984 2.71875C5.17969 2.27344 5.13281 1.69922 4.69922 1.33594C4.23047 0.960938 3.60938 1.01953 3.24609 1.51172C2.37891 2.67188 1.67578 3.96094 1.14844 5.32031C0.914062 5.90625 1.20703 6.45703 1.76953 6.64453ZM1.38281 14.7539C1.93359 14.6367 2.25 14.1562 2.16797 13.582C2.05078 12.8906 2.00391 12.1523 2.00391 11.4258C2.00391 10.6758 2.05078 9.96094 2.16797 9.24609C2.25 8.68359 1.93359 8.21484 1.37109 8.08594C0.808594 7.96875 0.28125 8.29688 0.1875 8.91797C0.0585938 9.75 0 10.582 0 11.4258C0 12.2812 0.0585938 13.1133 0.1875 13.9336C0.28125 14.543 0.820312 14.8828 1.38281 14.7539ZM4.69922 21.5039C5.13281 21.1289 5.17969 20.5664 4.83984 20.1094C4.10156 19.1016 3.49219 17.9883 3.02344 16.8164C2.80078 16.2773 2.30859 16.0312 1.76953 16.1953C1.20703 16.3828 0.914062 16.9219 1.14844 17.5078C1.67578 18.8672 2.37891 20.1562 3.24609 21.3164C3.60938 21.8203 4.23047 21.8789 4.69922 21.5039ZM31.6758 6.64453C32.2383 6.45703 32.5312 5.90625 32.3086 5.32031C31.7812 3.96094 31.0781 2.67188 30.1992 1.51172C29.8359 1.01953 29.2148 0.960938 28.7461 1.33594C28.3125 1.69922 28.2773 2.27344 28.6055 2.71875C29.3555 3.72656 29.9648 4.83984 30.4336 6.01172C30.6445 6.55078 31.1484 6.79688 31.6758 6.64453ZM32.0625 14.7539C32.6367 14.8828 33.1758 14.543 33.2578 13.9336C33.3867 13.1133 33.4453 12.2812 33.4453 11.4258C33.4453 10.582 33.3867 9.75 33.2578 8.91797C33.1758 8.29688 32.6484 7.96875 32.0742 8.08594C31.5117 8.21484 31.207 8.68359 31.2773 9.24609C31.3945 9.96094 31.4414 10.6758 31.4414 11.4258C31.4414 12.1523 31.3945 12.8906 31.2773 13.582C31.207 14.1562 31.5117 14.6367 32.0625 14.7539ZM28.7461 21.5039C29.2148 21.8789 29.8359 21.8203 30.1992 21.3164C31.0781 20.1562 31.7812 18.8672 32.3086 17.5078C32.5312 16.9219 32.2383 16.3828 31.6758 16.1953C31.1484 16.0312 30.6445 16.2773 30.4336 16.8164C29.9648 17.9883 29.3555 19.1016 28.6055 20.1094C28.2773 20.5664 28.3125 21.1289 28.7461 21.5039Z" fill="black" fill-opacity="0.85"/>
  <path d="M16.7227 22.8516C23.0391 22.8516 28.1602 17.7305 28.1602 11.4258C28.1602 5.10938 23.0391 0 16.7227 0C10.418 0 5.29688 5.10938 5.29688 11.4258C5.29688 17.7305 10.418 22.8516 16.7227 22.8516ZM16.7227 20.8594C11.5195 20.8594 7.28906 16.6289 7.28906 11.4258C7.28906 6.21094 11.5195 1.98047 16.7227 1.98047C21.9375 1.98047 26.168 6.21094 26.168 11.4258C26.168 16.6289 21.9375 20.8594 16.7227 20.8594Z" fill="black" fill-opacity="0.85"/>
 </g>
</svg>
