<?xml version="1.0" encoding="UTF-8"?>
<!--Generator: Apple Native CoreSVG 360-->
<!DOCTYPE svg
PUBLIC "-//W3C//DTD SVG 1.1//EN"
       "http://www.w3.org/Graphics/SVG/1.1/DTD/svg11.dtd">
<svg version="1.1" xmlns="http://www.w3.org/2000/svg" xmlns:xlink="http://www.w3.org/1999/xlink" viewBox="0 0 26.5195 25.0195">
 <g>
  <rect height="25.0195" opacity="0" width="26.5195" x="0" y="0"/>
  <path d="M1.55859 22.2188L24.6094 22.2188L24.6094 21.4336C24.6094 20.9648 24.3398 20.6836 23.8594 20.6836L23.1094 20.6836L23.1094 8.03906L24.1406 8.03906C24.7852 8.03906 25.1602 7.57031 25.1602 7.08984C25.1602 6.73828 24.9609 6.43359 24.5273 6.1875L14.5195 0.410156C14.0508 0.140625 13.5586 0 13.0781 0C12.5977 0 12.0938 0.140625 11.6484 0.410156L1.64062 6.1875C1.19531 6.43359 1.00781 6.73828 1.00781 7.08984C1.00781 7.57031 1.38281 8.03906 2.02734 8.03906L3.05859 8.03906L3.05859 20.6836L2.32031 20.6836C1.83984 20.6836 1.55859 20.9648 1.55859 21.4336ZM4.82812 20.6836L4.82812 6.53906L12.6211 2.16797C12.7617 2.08594 12.9258 2.03906 13.0781 2.03906C13.2305 2.03906 13.3945 2.08594 13.5469 2.16797L21.3398 6.53906L21.3398 20.6836ZM0.9375 25.0078L25.2188 25.0078C25.7344 25.0078 26.168 24.5742 26.168 24.0586C26.168 23.543 25.7344 23.1211 25.2188 23.1211L0.9375 23.1211C0.421875 23.1211 0 23.543 0 24.0586C0 24.5742 0.421875 25.0078 0.9375 25.0078Z" fill="black" fill-opacity="0.85"/>
  <path d="M8.40234 16.5352C8.77734 16.5352 9 16.2891 9 15.9141L9 13.0547L10.3125 13.0547L11.6016 16.1016C11.7305 16.3945 11.9062 16.5352 12.2227 16.5352C12.5625 16.5352 12.7852 16.3125 12.7852 15.9727C12.7852 15.8203 12.7266 15.6797 12.668 15.5391L11.4727 12.7969C12.3984 12.3984 12.8086 11.4609 12.8086 10.4883C12.8086 8.87109 11.7891 7.96875 10.2422 7.96875L8.39062 7.96875C8.01562 7.96875 7.80469 8.20312 7.80469 8.57812L7.80469 15.9141C7.80469 16.2656 7.99219 16.5352 8.40234 16.5352ZM9 12.0938L9 8.96484L10.125 8.96484C11.0859 8.96484 11.6016 9.57422 11.6016 10.5117C11.6016 11.4492 11.1445 12.0938 10.1367 12.0938ZM16.2305 16.3008C17.7305 16.3008 18.7383 15.4922 18.7383 14.1211C18.7383 12.8672 17.9648 12.375 16.9219 11.8711L16.1602 11.5078C15.4688 11.1797 14.9297 10.8164 14.9297 10.1484C14.9297 9.42188 15.4805 9.05859 16.2188 9.05859C17.0625 9.05859 17.3906 9.60938 17.5078 10.2656C17.5547 10.4766 17.7305 10.6875 18.0586 10.6875C18.375 10.6875 18.5977 10.5 18.5977 10.1719C18.5977 10.0898 18.5742 9.94922 18.5508 9.86719C18.2695 8.56641 17.3203 8.10938 16.2188 8.10938C14.8242 8.10938 13.8047 8.89453 13.8047 10.2188C13.8047 11.332 14.4375 11.9297 15.5742 12.4688L16.3359 12.832C17.0156 13.1484 17.6016 13.4883 17.6016 14.2266C17.6016 14.9883 17.0977 15.3398 16.2422 15.3398C15.3633 15.3398 14.9531 14.9062 14.8008 14.0859C14.7422 13.793 14.5195 13.6523 14.2734 13.6523C13.9453 13.6523 13.7109 13.8398 13.7109 14.1797C13.7109 14.2617 13.7344 14.3906 13.7578 14.4961C14.0508 15.8086 15.0703 16.3008 16.2305 16.3008ZM16.2188 17.3906C16.3945 17.3906 16.5 17.2734 16.5 17.1094L16.5 7.3125C16.5 7.13672 16.3945 7.01953 16.2188 7.01953C16.043 7.01953 15.9258 7.13672 15.9258 7.3125L15.9258 17.1094C15.9258 17.2734 16.043 17.3906 16.2188 17.3906Z" fill="black" fill-opacity="0.85"/>
 </g>
</svg>
