<?xml version="1.0" encoding="UTF-8"?>
<!--Generator: Apple Native CoreSVG 360-->
<!DOCTYPE svg
PUBLIC "-//W3C//DTD SVG 1.1//EN"
       "http://www.w3.org/Graphics/SVG/1.1/DTD/svg11.dtd">
<svg version="1.1" xmlns="http://www.w3.org/2000/svg" xmlns:xlink="http://www.w3.org/1999/xlink" viewBox="0 0 28.582 23.5195">
 <g>
  <rect height="23.5195" opacity="0" width="28.582" x="0" y="0"/>
  <path d="M28.2305 14.1094C28.2305 10.6641 26.9883 7.48828 24.9141 5.02734C24.6797 4.74609 24.2812 4.74609 24.0234 5.01562L21.3047 7.73438C21.082 7.95703 21.0703 8.27344 21.2695 8.51953C22.4766 10.0664 23.2031 12.0117 23.2031 14.1094C23.2031 16.2188 22.4766 18.1641 21.1992 19.793C21.0352 19.9922 21.0469 20.25 21.2227 20.4375L24.0117 23.2266C24.2812 23.4961 24.668 23.4961 24.9141 23.2031C26.9883 20.7422 28.2305 17.5664 28.2305 14.1094Z" fill="black" fill-opacity="0.85"/>
  <path d="M14.1094 5.02734C16.2305 5.02734 18.1758 5.76562 19.7344 6.97266C19.9688 7.16016 20.2734 7.13672 20.4961 6.91406L23.2148 4.19531C23.4844 3.92578 23.4727 3.53906 23.1914 3.30469C20.7422 1.24219 17.5664 0 14.1094 0C10.6641 0 7.48828 1.24219 5.03906 3.30469C4.75781 3.53906 4.74609 3.92578 5.01562 4.19531L7.73438 6.91406C7.95703 7.13672 8.27344 7.16016 8.53125 6.96094C10.0781 5.76562 12.0117 5.02734 14.1094 5.02734Z" fill="black" fill-opacity="0.85"/>
  <path d="M0 14.1094C0 17.5664 1.24219 20.7422 3.31641 23.2031C3.55078 23.4961 3.94922 23.4961 4.20703 23.2266L6.99609 20.4375C7.17188 20.25 7.19531 19.9922 7.03125 19.793C5.75391 18.1641 5.02734 16.2188 5.02734 14.1094C5.02734 12.0117 5.74219 10.0664 6.96094 8.51953C7.14844 8.27344 7.14844 7.95703 6.92578 7.73438L4.20703 5.01562C3.9375 4.74609 3.55078 4.74609 3.31641 5.02734C1.24219 7.48828 0 10.6641 0 14.1094Z" fill="black" fill-opacity="0.85"/>
  <path d="M8.89453 18.9375C9.31641 18.9375 9.5625 18.668 9.5625 18.2461L9.5625 15.0703L11.0156 15.0703L12.457 18.4453C12.5977 18.7734 12.7852 18.9375 13.1367 18.9375C13.5117 18.9375 13.7695 18.6914 13.7695 18.3164C13.7695 18.1406 13.6992 17.9766 13.6289 17.8242L12.3047 14.7891C13.3359 14.332 13.793 13.3008 13.793 12.2227C13.793 10.418 12.668 9.42188 10.9453 9.42188L8.88281 9.42188C8.47266 9.42188 8.22656 9.67969 8.22656 10.1016L8.22656 18.2461C8.22656 18.6445 8.4375 18.9375 8.89453 18.9375ZM9.5625 14.0039L9.5625 10.5234L10.8164 10.5234C11.8828 10.5234 12.457 11.2031 12.457 12.2461C12.457 13.2773 11.9531 14.0039 10.8281 14.0039ZM17.6016 18.668C19.2656 18.668 20.3789 17.7656 20.3789 16.2539C20.3789 14.8594 19.5234 14.3086 18.3633 13.7578L17.5078 13.3477C16.7461 12.9844 16.1484 12.5742 16.1484 11.8359C16.1484 11.0273 16.7578 10.6172 17.5781 10.6172C18.5156 10.6172 18.8789 11.2383 19.0195 11.9648C19.0664 12.1992 19.2656 12.4453 19.6289 12.4453C19.9805 12.4453 20.2148 12.2227 20.2148 11.8711C20.2148 11.7773 20.1914 11.6133 20.168 11.5195C19.8633 10.0781 18.7969 9.5625 17.5781 9.5625C16.0312 9.5625 14.8945 10.4414 14.8945 11.9062C14.8945 13.1602 15.6094 13.8164 16.875 14.4141L17.7188 14.8125C18.4688 15.1758 19.1133 15.5508 19.1133 16.3711C19.1133 17.2148 18.5625 17.6016 17.6133 17.6016C16.6289 17.6016 16.1719 17.1328 16.0078 16.2188C15.9492 15.8906 15.6914 15.7266 15.4219 15.7266C15.0469 15.7266 14.8008 15.9375 14.8008 16.3125C14.8008 16.4062 14.8242 16.5469 14.8477 16.6641C15.1758 18.1172 16.3008 18.668 17.6016 18.668ZM17.5781 19.8867C17.7773 19.8867 17.8945 19.7578 17.8945 19.5703L17.8945 8.68359C17.8945 8.49609 17.7773 8.36719 17.5781 8.36719C17.3906 8.36719 17.2617 8.49609 17.2617 8.68359L17.2617 19.5703C17.2617 19.7578 17.3906 19.8867 17.5781 19.8867Z" fill="black" fill-opacity="0.85"/>
 </g>
</svg>
