<?xml version="1.0" encoding="UTF-8"?>
<!--Generator: Apple Native CoreSVG 360-->
<!DOCTYPE svg
PUBLIC "-//W3C//DTD SVG 1.1//EN"
       "http://www.w3.org/Graphics/SVG/1.1/DTD/svg11.dtd">
<svg version="1.1" xmlns="http://www.w3.org/2000/svg" xmlns:xlink="http://www.w3.org/1999/xlink" viewBox="0 0 29.6836 26.4492">
 <g>
  <rect height="26.4492" opacity="0" width="29.6836" x="0" y="0"/>
  <path d="M1.17188 24.2109C1.89844 24.2109 2.34375 23.7422 2.34375 23.0156L2.34375 15.1172L6.375 15.1172C6.49219 15.1172 6.62109 15.1172 6.71484 15.1055L10.6758 23.4727C10.9336 24.0117 11.2734 24.2109 11.8477 24.2109C12.5039 24.2109 12.9727 23.7539 12.9727 23.1445C12.9727 22.9219 12.8906 22.6406 12.75 22.3359L9.02344 14.625C11.6133 13.7109 12.9844 11.4375 12.9844 8.68359C12.9844 4.78125 10.3477 2.40234 6.39844 2.40234L1.14844 2.40234C0.445312 2.40234 0 2.87109 0 3.60938L0 23.0156C0 23.7422 0.445312 24.2109 1.17188 24.2109ZM2.34375 13.0781L2.34375 4.47656L6.12891 4.47656C8.88281 4.47656 10.6172 6 10.6172 8.75391C10.6172 11.4023 9.09375 13.0781 6.19922 13.0781ZM22.8516 23.625C26.4727 23.625 29.332 21.7148 29.332 18.1172C29.332 14.9062 27.1172 13.5938 24.3398 12.4922L22.3242 11.6836C20.4844 10.9336 18.7969 9.96094 18.7969 7.95703C18.7969 5.85938 20.6602 4.74609 22.7812 4.74609C25.043 4.74609 26.3789 6.01172 26.8008 8.13281C26.9414 8.73047 27.3398 9.09375 27.9492 9.09375C28.5938 9.09375 29.0156 8.66016 29.0156 8.02734C29.0156 7.85156 28.9922 7.52344 28.9336 7.25391C28.2656 4.26562 25.7578 2.74219 22.7812 2.74219C19.4297 2.74219 16.5586 4.62891 16.5586 8.08594C16.5586 11.0508 18.6211 12.5742 21.375 13.6523L23.4023 14.4609C25.4062 15.2344 27.082 16.1484 27.082 18.3164C27.082 20.5781 25.2656 21.6211 22.8516 21.6211C20.332 21.6211 18.8438 20.4727 18.4102 18.1055C18.2812 17.4961 17.8945 17.1211 17.2852 17.1211C16.6289 17.1211 16.207 17.543 16.207 18.1992C16.207 18.4453 16.2305 18.6562 16.2773 18.8672C16.9102 22.0664 19.6055 23.625 22.8516 23.625ZM22.7578 26.4258C23.2031 26.4258 23.5312 26.1094 23.5312 25.6641L23.5312 0.773438C23.5312 0.328125 23.2031 0 22.7578 0C22.3008 0 21.9844 0.328125 21.9844 0.773438L21.9844 25.6641C21.9844 26.1094 22.3008 26.4258 22.7578 26.4258Z" fill="black" fill-opacity="0.85"/>
 </g>
</svg>
