<?xml version="1.0" encoding="UTF-8"?>
<!--Generator: Apple Native CoreSVG 360-->
<!DOCTYPE svg
PUBLIC "-//W3C//DTD SVG 1.1//EN"
       "http://www.w3.org/Graphics/SVG/1.1/DTD/svg11.dtd">
<svg version="1.1" xmlns="http://www.w3.org/2000/svg" xmlns:xlink="http://www.w3.org/1999/xlink" viewBox="0 0 28.582 23.4085">
 <g>
  <rect height="23.4085" opacity="0" width="28.582" x="0" y="0"/>
  <path d="M28.2305 14.0539C28.2305 6.67105 22.5586 0.612457 15.3398 0.00308175C14.9648-0.0320745 14.6836 0.237457 14.6836 0.612457L14.6836 4.44449C14.6836 4.76089 14.9062 5.00699 15.2227 5.03043C19.7109 5.58121 23.2031 9.41324 23.2031 14.0539C23.2031 16.1632 22.4766 18.1086 21.1992 19.7375C21.0352 19.9367 21.0469 20.1945 21.2227 20.382L24.0234 23.1711C24.2812 23.4289 24.6797 23.4289 24.9141 23.1476C26.9883 20.6867 28.2305 17.5109 28.2305 14.0539Z" fill="black" fill-opacity="0.85"/>
  <path d="M0 14.0539C0 17.5226 1.24219 20.6984 3.31641 23.1593C3.55078 23.4406 3.9375 23.4289 4.20703 23.1711L7.00781 20.382C7.18359 20.1945 7.19531 19.9367 7.03125 19.7375C5.74219 18.1086 5.02734 16.1632 5.02734 14.0539C5.02734 9.41324 8.51953 5.58121 13.0078 5.03043C13.3242 5.00699 13.5469 4.76089 13.5469 4.44449L13.5469 0.612457C13.5469 0.237457 13.2656-0.0320745 12.8906 0.00308175C5.67188 0.612457 0 6.67105 0 14.0539Z" fill="black" fill-opacity="0.85"/>
  <path d="M8.89453 18.882C9.31641 18.882 9.5625 18.6125 9.5625 18.1906L9.5625 15.0148L11.0156 15.0148L12.457 18.3898C12.5977 18.7179 12.7852 18.882 13.1367 18.882C13.5117 18.882 13.7695 18.6359 13.7695 18.2609C13.7695 18.0851 13.6992 17.9211 13.6289 17.7687L12.3047 14.7336C13.3359 14.2765 13.793 13.2453 13.793 12.1671C13.793 10.3625 12.668 9.36636 10.9453 9.36636L8.88281 9.36636C8.47266 9.36636 8.22656 9.62418 8.22656 10.0461L8.22656 18.1906C8.22656 18.589 8.4375 18.882 8.89453 18.882ZM9.5625 13.9484L9.5625 10.4679L10.8164 10.4679C11.8828 10.4679 12.457 11.1476 12.457 12.1906C12.457 13.2218 11.9531 13.9484 10.8281 13.9484ZM17.6016 18.6125C19.2656 18.6125 20.3789 17.7101 20.3789 16.1984C20.3789 14.8039 19.5234 14.2531 18.3633 13.7023L17.5078 13.2921C16.7461 12.9289 16.1484 12.5187 16.1484 11.7804C16.1484 10.9718 16.7578 10.5617 17.5781 10.5617C18.5156 10.5617 18.8789 11.1828 19.0195 11.9093C19.0664 12.1437 19.2656 12.3898 19.6289 12.3898C19.9805 12.3898 20.2148 12.1671 20.2148 11.8156C20.2148 11.7218 20.1914 11.5578 20.168 11.464C19.8633 10.0226 18.7969 9.50699 17.5781 9.50699C16.0312 9.50699 14.8945 10.3859 14.8945 11.8507C14.8945 13.1046 15.6094 13.7609 16.875 14.3586L17.7188 14.757C18.4688 15.1203 19.1133 15.4953 19.1133 16.3156C19.1133 17.1593 18.5625 17.5461 17.6133 17.5461C16.6289 17.5461 16.1719 17.0773 16.0078 16.1632C15.9492 15.8351 15.6914 15.6711 15.4219 15.6711C15.0469 15.6711 14.8008 15.882 14.8008 16.257C14.8008 16.3507 14.8242 16.4914 14.8477 16.6086C15.1758 18.0617 16.3008 18.6125 17.6016 18.6125ZM17.5781 19.8312C17.7773 19.8312 17.8945 19.7023 17.8945 19.5148L17.8945 8.62808C17.8945 8.44058 17.7773 8.31168 17.5781 8.31168C17.3906 8.31168 17.2617 8.44058 17.2617 8.62808L17.2617 19.5148C17.2617 19.7023 17.3906 19.8312 17.5781 19.8312Z" fill="black" fill-opacity="0.85"/>
 </g>
</svg>
