<?xml version="1.0" encoding="UTF-8"?>
<!--Generator: Apple Native CoreSVG 360-->
<!DOCTYPE svg
PUBLIC "-//W3C//DTD SVG 1.1//EN"
       "http://www.w3.org/Graphics/SVG/1.1/DTD/svg11.dtd">
<svg version="1.1" xmlns="http://www.w3.org/2000/svg" xmlns:xlink="http://www.w3.org/1999/xlink" viewBox="0 0 36.5156 30.0352">
 <g>
  <rect height="30.0352" opacity="0" width="36.5156" x="0" y="0"/>
  <path d="M27.0139 5.95313L18.8906 5.95312C14.6016 5.95312 12.1406 8.49609 12.1406 12.6914L12.1406 19.0312C12.1406 20.3735 12.3925 21.5467 12.8784 22.5191L10.1484 24.9492C9.44531 25.5703 9.04688 25.875 8.46094 25.875C7.65234 25.875 7.18359 25.3008 7.18359 24.3984L7.18359 21.3398L6.62109 21.3398C3.14062 21.3398 1.25391 19.418 1.25391 15.9844L1.25391 6.99609C1.25391 3.5625 3.14062 1.62891 6.62109 1.62891L21.7148 1.62891C24.8346 1.62891 26.6638 3.17211 27.0139 5.95313Z" fill="black" fill-opacity="0.85"/>
  <path d="M18.8906 24.1641L22.6758 24.1641L26.5898 27.5156C27.3047 28.125 27.6914 28.4414 28.2656 28.4414C29.0742 28.4414 29.5312 27.8672 29.5312 26.9766L29.5312 24.1641L29.7656 24.1641C33.1406 24.1641 34.9102 22.3477 34.9102 19.0312L34.9102 12.6914C34.9102 9.36328 33.1406 7.54688 29.7656 7.54688L18.8906 7.54688C15.5156 7.54688 13.7461 9.36328 13.7461 12.6914L13.7461 19.0312C13.7461 22.3594 15.5156 24.1641 18.8906 24.1641ZM22.3008 12.1172C23.2148 12.1172 23.9062 12.6328 24.3398 13.4062C24.7617 12.6328 25.4648 12.1172 26.3672 12.1172C27.7969 12.1172 28.8398 13.1953 28.8398 14.6953C28.8398 16.9102 26.4727 18.9375 24.7617 20.0625C24.6211 20.1562 24.4688 20.2617 24.3516 20.2617C24.2461 20.2617 24.0586 20.1562 23.9062 20.0625C22.1836 18.9609 19.8281 16.9102 19.8281 14.6953C19.8281 13.1953 20.8711 12.1172 22.3008 12.1172Z" fill="black" fill-opacity="0.85"/>
 </g>
</svg>
