<?xml version="1.0" encoding="UTF-8"?>
<!--Generator: Apple Native CoreSVG 360-->
<!DOCTYPE svg
PUBLIC "-//W3C//DTD SVG 1.1//EN"
       "http://www.w3.org/Graphics/SVG/1.1/DTD/svg11.dtd">
<svg version="1.1" xmlns="http://www.w3.org/2000/svg" xmlns:xlink="http://www.w3.org/1999/xlink" viewBox="0 0 34.0078 26.8477">
 <g>
  <rect height="26.8477" opacity="0" width="34.0078" x="0" y="0"/>
  <path d="M25.8281 5.40234L25.8281 5.95313L23.9414 5.95313L23.9414 5.41406C23.9414 3.12891 22.8164 1.92188 20.4609 1.92188L5.36719 1.92188C3 1.92188 1.88672 3.12891 1.88672 5.41406L1.88672 14.3789C1.88672 16.6641 3 17.8594 5.36719 17.8594L6.80859 17.8594C7.44141 17.8594 7.6875 18.1055 7.6875 18.75L7.6875 22.1367L11.4375 18.4219C11.7898 18.0603 12.0687 17.9188 12.4954 17.8758C12.5275 18.602 12.654 19.2457 12.8737 19.8031L8.89453 23.3555C8.17969 23.9766 7.78125 24.2812 7.20703 24.2812C6.38672 24.2812 5.92969 23.707 5.92969 22.8047L5.92969 19.7461L5.36719 19.7461C1.875 19.7461 0 17.8242 0 14.3906L0 5.40234C0 1.96875 1.875 0.0351562 5.36719 0.0351562L20.4609 0.0351562C23.9531 0.0351562 25.8281 1.96875 25.8281 5.40234Z" fill="black" fill-opacity="0.85"/>
  <path d="M17.625 22.5703L21.4219 22.5703L25.3359 25.9219C26.0508 26.5312 26.4375 26.8477 27 26.8477C27.8086 26.8477 28.2656 26.2734 28.2656 25.3828L28.2656 22.5703L28.5117 22.5703C31.8867 22.5703 33.6562 20.7539 33.6562 17.4375L33.6562 11.0977C33.6562 7.76953 31.8867 5.95312 28.5117 5.95312L17.625 5.95312C14.25 5.95312 12.4805 7.76953 12.4805 11.0977L12.4805 17.4375C12.4805 20.7656 14.25 22.5703 17.625 22.5703ZM17.6602 20.6836C15.3633 20.6836 14.3789 19.6055 14.3789 17.4141L14.3789 11.1211C14.3789 8.92969 15.3633 7.83984 17.6602 7.83984L28.4883 7.83984C30.7734 7.83984 31.7695 8.92969 31.7695 11.1211L31.7695 17.4023C31.7695 19.6055 30.7734 20.6836 28.4883 20.6836L27.4102 20.6836C26.9062 20.6836 26.5078 20.9883 26.5078 21.6445L26.5078 24.7148L22.5469 21.1758C22.1602 20.8125 21.832 20.6836 21.3516 20.6836Z" fill="black" fill-opacity="0.85"/>
 </g>
</svg>
