<?xml version="1.0" encoding="UTF-8"?>
<!--Generator: Apple Native CoreSVG 360-->
<!DOCTYPE svg
PUBLIC "-//W3C//DTD SVG 1.1//EN"
       "http://www.w3.org/Graphics/SVG/1.1/DTD/svg11.dtd">
<svg version="1.1" xmlns="http://www.w3.org/2000/svg" xmlns:xlink="http://www.w3.org/1999/xlink" viewBox="0 0 36.416 35.8899">
 <g>
  <rect height="35.8899" opacity="0" width="36.416" x="0" y="0"/>
  <path d="M25.6864 6.57589L23.8037 8.4586L10.4912 8.4586C8.1123 8.4586 6.99902 9.65391 6.99902 11.9391L6.99902 20.9039C6.99902 23.1891 8.1123 24.3961 10.4912 24.3961L11.9209 24.3961C12.5654 24.3961 12.7998 24.6422 12.7998 25.275L12.7998 28.6734L16.5498 24.9469C16.9951 24.4898 17.335 24.3961 17.9795 24.3961L25.5732 24.3961C27.9404 24.3961 29.0537 23.1891 29.0537 20.9039L29.0537 11.9391C29.0537 11.8024 29.0497 11.6697 29.0412 11.5414L30.6695 9.91315C30.851 10.5108 30.9404 11.1891 30.9404 11.9391L30.9404 20.9156C30.9404 24.3492 29.0654 26.2828 25.5732 26.2828L18.0615 26.2828L14.0068 29.8805C13.3037 30.5133 12.9053 30.818 12.3193 30.818C11.5107 30.818 11.042 30.232 11.042 29.3297L11.042 26.2828L10.4795 26.2828C6.99902 26.2828 5.1123 24.3609 5.1123 20.9156L5.1123 11.9391C5.1123 8.49375 6.99902 6.57188 10.4795 6.57188L25.5732 6.57188C25.6121 6.57188 25.6507 6.57212 25.6864 6.57589Z" fill="black" fill-opacity="0.85"/>
  <path d="M19.8428 16.8961L22.2334 15.8297L32.5459 5.51719L30.9053 3.88829L20.6045 14.2008L19.4678 16.5094C19.374 16.7086 19.6201 16.9898 19.8428 16.8961ZM33.4248 4.63829L34.292 3.74766C34.7139 3.32579 34.7139 2.73985 34.3154 2.34141L34.0342 2.06016C33.6592 1.68516 33.0615 1.72032 32.6748 2.11875L31.7842 2.98594Z" fill="black" fill-opacity="0.85"/>
 </g>
</svg>
