<?xml version="1.0" encoding="UTF-8"?>
<!--Generator: Apple Native CoreSVG 360-->
<!DOCTYPE svg
PUBLIC "-//W3C//DTD SVG 1.1//EN"
       "http://www.w3.org/Graphics/SVG/1.1/DTD/svg11.dtd">
<svg version="1.1" xmlns="http://www.w3.org/2000/svg" xmlns:xlink="http://www.w3.org/1999/xlink" viewBox="0 0 25.0898 23.918">
 <g>
  <rect height="23.918" opacity="0" width="25.0898" x="0" y="0"/>
  <path d="M20.918 15.7617C21.2812 18.6445 21.3398 18.6914 24.2812 19.1133C24.5508 19.1602 24.7383 19.3477 24.7383 19.6055C24.7383 19.8516 24.5508 20.0508 24.293 20.0977C21.3047 20.6719 21.293 20.6484 20.918 23.4609C20.8828 23.7188 20.6719 23.9062 20.4258 23.9062C20.1562 23.9062 19.957 23.707 19.9336 23.4375C19.582 20.625 19.5234 20.5781 16.5938 20.0977C16.3008 20.0508 16.1133 19.8633 16.1133 19.6055C16.1133 19.3711 16.2891 19.1719 16.5469 19.1133C19.5234 18.5508 19.582 18.5859 19.9336 15.7734C19.957 15.5039 20.1562 15.3047 20.4258 15.3047C20.6836 15.3047 20.8945 15.4922 20.918 15.7617Z" fill="black" fill-opacity="0.85"/>
  <path d="M8.09766 0.339844C8.49609 2.47266 8.4375 2.40234 10.5703 2.82422C10.7812 2.85938 10.9219 3.01172 10.9219 3.21094C10.9219 3.41016 10.7812 3.57422 10.5703 3.60938C8.4375 4.03125 8.49609 3.96094 8.09766 6.09375C8.0625 6.30469 7.89844 6.43359 7.69922 6.43359C7.5 6.43359 7.33594 6.30469 7.30078 6.09375C6.90234 3.96094 6.96094 4.03125 4.82812 3.60938C4.61719 3.57422 4.47656 3.41016 4.47656 3.21094C4.47656 3.01172 4.61719 2.85938 4.82812 2.82422C6.96094 2.40234 6.90234 2.47266 7.30078 0.339844C7.33594 0.128906 7.5 0 7.69922 0C7.89844 0 8.0625 0.128906 8.09766 0.339844Z" fill="black" fill-opacity="0.85"/>
  <path d="M10.9922 20.1914C10.9922 22.0312 9.49219 23.5312 7.67578 23.5312C5.83594 23.5312 4.33594 22.0312 4.33594 20.1914C4.33594 18.375 5.83594 16.875 7.67578 16.875C9.49219 16.875 10.9922 18.375 10.9922 20.1914ZM6.10547 20.1914C6.10547 21.0586 6.80859 21.75 7.67578 21.75C8.51953 21.75 9.22266 21.0352 9.22266 20.1914C9.22266 19.3477 8.51953 18.6445 7.67578 18.6445C6.82031 18.6445 6.10547 19.3477 6.10547 20.1914Z" fill="black" fill-opacity="0.85"/>
  <path d="M6.19922 9.82031C6.19922 11.5312 4.79297 12.9258 3.10547 12.9258C1.39453 12.9258 0 11.5312 0 9.82031C0 8.13281 1.39453 6.73828 3.10547 6.73828C4.79297 6.73828 6.19922 8.13281 6.19922 9.82031ZM1.76953 9.82031C1.76953 10.5586 2.36719 11.1562 3.10547 11.1562C3.83203 11.1562 4.42969 10.5586 4.42969 9.82031C4.42969 9.10547 3.83203 8.50781 3.10547 8.50781C2.36719 8.50781 1.76953 9.10547 1.76953 9.82031Z" fill="black" fill-opacity="0.85"/>
  <path d="M24.2695 6.84375C24.2695 9.90234 21.7852 12.375 18.7148 12.375C18.6329 12.375 18.5513 12.3732 18.472 12.3628C18.5395 12.0539 18.5742 11.7324 18.5742 11.4023C18.5742 11.1262 18.5497 10.8558 18.4987 10.5946C18.5694 10.6034 18.6419 10.6055 18.7148 10.6055C20.8008 10.6055 22.5 8.92969 22.5 6.84375C22.5 4.74609 20.8242 3.07031 18.7148 3.07031C16.6172 3.07031 14.9414 4.74609 14.9414 6.84375C14.9414 6.87599 14.9418 6.90813 14.9463 6.93921C14.646 6.87644 14.3347 6.84375 14.0156 6.84375C13.7284 6.84375 13.4473 6.87026 13.1759 6.92416C13.1721 6.898 13.1719 6.8709 13.1719 6.84375C13.1719 3.78516 15.6562 1.30078 18.7148 1.30078C21.7852 1.30078 24.2695 3.78516 24.2695 6.84375Z" fill="black" fill-opacity="0.85"/>
  <path d="M14.0156 15.9609C16.5352 15.9609 18.5742 13.9336 18.5742 11.4023C18.5742 8.88281 16.5352 6.84375 14.0156 6.84375C11.4961 6.84375 9.45703 8.88281 9.45703 11.4023C9.45703 13.9336 11.4961 15.9609 14.0156 15.9609ZM14.0156 14.1914C12.4688 14.1914 11.2266 12.9609 11.2266 11.4023C11.2266 9.85547 12.4688 8.61328 14.0156 8.61328C15.5625 8.61328 16.8047 9.85547 16.8047 11.4023C16.8047 12.9609 15.5625 14.1914 14.0156 14.1914Z" fill="black" fill-opacity="0.85"/>
 </g>
</svg>
