<?xml version="1.0" encoding="UTF-8"?>
<!--Generator: Apple Native CoreSVG 360-->
<!DOCTYPE svg
PUBLIC "-//W3C//DTD SVG 1.1//EN"
       "http://www.w3.org/Graphics/SVG/1.1/DTD/svg11.dtd">
<svg version="1.1" xmlns="http://www.w3.org/2000/svg" xmlns:xlink="http://www.w3.org/1999/xlink" viewBox="0 0 30.6797 21.0873">
 <g>
  <rect height="21.0873" opacity="0" width="30.6797" x="0" y="0"/>
  <path d="M0 11.8737C0 14.3815 0.410156 15.53 2.27344 16.4909L8.87109 19.8776C11.2969 21.1315 13.0312 21.4479 15.75 20.6511L25.8984 17.6979C29.0273 16.7722 30.3281 14.9089 30.3281 11.8737L30.3281 4.56122C30.3281 2.44012 28.9219 0.998716 26.8125 0.998716L3.53906 0.986998C1.42969 0.986998 0 2.41669 0 4.52606ZM1.88672 11.8737L1.88672 4.56122C1.88672 3.54169 2.55469 2.87372 3.57422 2.87372L26.7891 2.88544C27.7852 2.88544 28.4414 3.56512 28.4414 4.59637L28.4414 11.8737C28.4414 14.0065 27.5625 15.2839 25.3594 15.9284L15.75 18.7761C13.3125 19.5026 11.8945 19.2917 9.87891 18.2722L3.46875 15.0026C2.21484 14.3698 1.88672 13.6081 1.88672 11.8737Z" fill="black" fill-opacity="0.85"/>
 </g>
</svg>
