<?xml version="1.0" encoding="UTF-8"?>
<!--Generator: Apple Native CoreSVG 360-->
<!DOCTYPE svg
PUBLIC "-//W3C//DTD SVG 1.1//EN"
       "http://www.w3.org/Graphics/SVG/1.1/DTD/svg11.dtd">
<svg version="1.1" xmlns="http://www.w3.org/2000/svg" xmlns:xlink="http://www.w3.org/1999/xlink" viewBox="0 0 21.1992 25.1836">
 <g>
  <rect height="25.1836" opacity="0" width="21.1992" x="0" y="0"/>
  <path d="M6.97266 25.1719L17.2734 25.1719C19.5 25.1719 20.8359 23.8594 20.8359 21.6562L20.8477 3.55078C20.8477 1.42969 19.418 0 17.3086 0L13.7109 0C11.8711 0 10.3359 0.480469 8.89453 1.80469L1.48828 8.61328C0.492188 9.52734 0 10.8164 0 12.4219L0 18.1992C0 22.4414 2.73047 25.1719 6.97266 25.1719ZM7.01953 23.2852C3.73828 23.2852 1.88672 21.4453 1.88672 18.1641L1.88672 12.4453C1.88672 11.2734 2.15625 10.5586 2.80078 9.97266L10.1953 3.1875C11.2383 2.23828 12.3047 1.88672 13.7578 1.88672L17.2734 1.88672C18.293 1.88672 18.9609 2.56641 18.9609 3.57422L18.9492 21.6211C18.9492 22.8633 18.457 23.2852 17.2383 23.2852Z" fill="black" fill-opacity="0.85"/>
 </g>
</svg>
