<?xml version="1.0" encoding="UTF-8"?>
<!--Generator: Apple Native CoreSVG 360-->
<!DOCTYPE svg
PUBLIC "-//W3C//DTD SVG 1.1//EN"
       "http://www.w3.org/Graphics/SVG/1.1/DTD/svg11.dtd">
<svg version="1.1" xmlns="http://www.w3.org/2000/svg" xmlns:xlink="http://www.w3.org/1999/xlink" viewBox="0 0 28.957 28.8398">
 <g>
  <rect height="28.8398" opacity="0" width="28.957" x="0" y="0"/>
  <path d="M28.6055 17.4492L28.6055 20.7188C28.6055 24.6914 26.1562 27.2344 22.3359 27.2344L6.26953 27.2344C2.44922 27.2344 0 24.6914 0 20.7188L0 17.4492C0 13.9688 2.625 11.7422 6.26953 11.7422L9.28637 11.7422L10.9607 13.6289L6.26953 13.6289C3.77344 13.6289 1.88672 15.1289 1.88672 17.4492C1.88672 19.7695 3.77344 21.2578 6.26953 21.2578L22.3359 21.2578C24.8203 21.2578 26.7188 19.7695 26.7188 17.4492C26.7188 15.1289 24.8203 13.6289 22.3359 13.6289L17.6378 13.6289L19.3176 11.7422L22.3359 11.7422C25.9805 11.7422 28.6055 13.9688 28.6055 17.4492ZM22.3359 23.1445L6.26953 23.1445C4.55425 23.1445 3.06479 22.6513 1.97373 21.7624C2.35047 23.9728 3.95521 25.3477 6.26953 25.3477L22.3359 25.3477C24.6503 25.3477 26.255 23.9728 26.6317 21.7624C25.5407 22.6513 24.0512 23.1445 22.3359 23.1445Z" fill="black" fill-opacity="0.85"/>
  <path d="M13.3125 2.60156L13.3125 10.8164C13.3125 11.3789 13.7461 11.8242 14.3086 11.8242C14.8711 11.8242 15.3047 11.3789 15.3047 10.8164L15.3047 2.60156C15.3047 2.02734 14.8711 1.59375 14.3086 1.59375C13.7461 1.59375 13.3125 2.02734 13.3125 2.60156ZM17.4258 8.92969L11.168 8.92969C10.207 8.92969 9.79688 9.90234 10.4297 10.6172L13.5703 14.168C13.9922 14.6484 14.5898 14.6602 15.0234 14.168L18.1641 10.6172C18.7852 9.9375 18.4336 8.92969 17.4258 8.92969Z" fill="black" fill-opacity="0.85"/>
 </g>
</svg>
