<?xml version="1.0" encoding="UTF-8"?>
<!--Generator: Apple Native CoreSVG 360-->
<!DOCTYPE svg
PUBLIC "-//W3C//DTD SVG 1.1//EN"
       "http://www.w3.org/Graphics/SVG/1.1/DTD/svg11.dtd">
<svg version="1.1" xmlns="http://www.w3.org/2000/svg" xmlns:xlink="http://www.w3.org/1999/xlink" viewBox="0 0 30.6797 21.0873">
 <g>
  <rect height="21.0873" opacity="0" width="30.6797" x="0" y="0"/>
  <path d="M30.3281 11.8737L30.3281 4.52606C30.3281 2.41669 28.9102 0.986998 26.7891 0.986998L3.51562 0.998716C1.41797 0.998716 0 2.44012 0 4.56122L0 11.8737C0 14.9089 1.30078 16.7722 4.42969 17.6979L14.5781 20.6511C17.2969 21.4479 19.043 21.1315 21.4688 19.8776L28.0547 16.4909C29.918 15.53 30.3281 14.3815 30.3281 11.8737ZM28.4414 11.8737C28.4414 13.6081 28.1133 14.3698 26.8594 15.0026L20.4609 18.2722C18.4453 19.2917 17.0156 19.5026 14.5781 18.7761L4.98047 15.9284C2.77734 15.2839 1.88672 14.0065 1.88672 11.8737L1.88672 4.59637C1.88672 3.56512 2.54297 2.88544 3.55078 2.88544L26.7656 2.87372C27.7734 2.87372 28.4414 3.54169 28.4414 4.56122Z" fill="black" fill-opacity="0.85"/>
 </g>
</svg>
