<?xml version="1.0" encoding="UTF-8"?>
<!--Generator: Apple Native CoreSVG 360-->
<!DOCTYPE svg
PUBLIC "-//W3C//DTD SVG 1.1//EN"
       "http://www.w3.org/Graphics/SVG/1.1/DTD/svg11.dtd">
<svg version="1.1" xmlns="http://www.w3.org/2000/svg" xmlns:xlink="http://www.w3.org/1999/xlink" viewBox="0 0 29.3438 28.6055">
 <g>
  <rect height="28.6055" opacity="0" width="29.3438" x="0" y="0"/>
  <path d="M27.2461 6.26953L27.2461 22.3242C27.2461 26.1562 24.7031 28.6055 20.7305 28.6055L17.4609 28.6055C13.9805 28.6055 11.7539 25.9805 11.7539 22.3242L11.7539 19.3087L13.6406 17.6337L13.6406 22.3242C13.6406 24.8203 15.1289 26.7188 17.4609 26.7188C19.7812 26.7188 21.2695 24.8203 21.2695 22.3242L21.2695 6.26953C21.2695 3.77344 19.7812 1.88672 17.4609 1.88672C15.1289 1.88672 13.6406 3.77344 13.6406 6.26953L13.6406 10.9724L11.7539 9.29809L11.7539 6.26953C11.7539 2.625 13.9805 0 17.4609 0L20.7305 0C24.7031 0 27.2461 2.44922 27.2461 6.26953ZM23.1562 6.26953L23.1562 22.3242C23.1562 24.0461 22.6624 25.5393 21.7725 26.6321C23.9839 26.2556 25.3594 24.6493 25.3594 22.3242L25.3594 6.26953C25.3594 3.94483 23.9843 2.34758 21.7736 1.9731C22.6629 3.06423 23.1562 4.55392 23.1562 6.26953Z" fill="black" fill-opacity="0.85"/>
  <path d="M2.61328 15.293L10.8281 15.293C11.3906 15.293 11.8242 14.8594 11.8242 14.2852C11.8242 13.7344 11.3906 13.2891 10.8281 13.2891L2.61328 13.2891C2.03906 13.2891 1.60547 13.7344 1.60547 14.2852C1.60547 14.8594 2.03906 15.293 2.61328 15.293ZM8.94141 11.168L8.94141 17.4375C8.94141 18.3984 9.91406 18.8086 10.6289 18.1758L14.1797 15.0234C14.6602 14.6016 14.6719 14.0156 14.1797 13.582L10.6289 10.4414C9.94922 9.82031 8.94141 10.1719 8.94141 11.168Z" fill="black" fill-opacity="0.85"/>
 </g>
</svg>
