<?xml version="1.0" encoding="UTF-8"?>
<!--Generator: Apple Native CoreSVG 360-->
<!DOCTYPE svg
PUBLIC "-//W3C//DTD SVG 1.1//EN"
       "http://www.w3.org/Graphics/SVG/1.1/DTD/svg11.dtd">
<svg version="1.1" xmlns="http://www.w3.org/2000/svg" xmlns:xlink="http://www.w3.org/1999/xlink" viewBox="0 0 15.832 28.6055">
 <g>
  <rect height="28.6055" opacity="0" width="15.832" x="0" y="0"/>
  <path d="M11.4023 22.3359L11.4023 6.28125C11.4023 2.625 9.17578 0 5.69531 0C2.22656 0 0 2.625 0 6.28125L0 22.3359C0 25.9805 2.22656 28.6055 5.69531 28.6055C9.17578 28.6055 11.4023 25.9805 11.4023 22.3359ZM9.51562 22.3359C9.51562 24.832 8.02734 26.7188 5.69531 26.7188C3.375 26.7188 1.88672 24.832 1.88672 22.3359L1.88672 6.28125C1.88672 3.78516 3.375 1.88672 5.69531 1.88672C8.02734 1.88672 9.51562 3.78516 9.51562 6.28125ZM15.4805 22.3359L15.4805 6.28125C15.4805 2.44922 12.9492 0 8.97656 0L5.69531 0L5.69531 1.88672L8.97656 1.88672C11.7891 1.88672 13.6055 3.60938 13.6055 6.28125L13.6055 22.3359C13.6055 25.0078 11.7891 26.7188 8.97656 26.7188L5.69531 26.7188L5.69531 28.6055L8.97656 28.6055C12.9492 28.6055 15.4805 26.1562 15.4805 22.3359Z" fill="black" fill-opacity="0.85"/>
 </g>
</svg>
