<?xml version="1.0" encoding="UTF-8"?>
<!--Generator: Apple Native CoreSVG 360-->
<!DOCTYPE svg
PUBLIC "-//W3C//DTD SVG 1.1//EN"
       "http://www.w3.org/Graphics/SVG/1.1/DTD/svg11.dtd">
<svg version="1.1" xmlns="http://www.w3.org/2000/svg" xmlns:xlink="http://www.w3.org/1999/xlink" viewBox="0 0 21.1992 25.1836">
 <g>
  <rect height="25.1836" opacity="0" width="21.1992" x="0" y="0"/>
  <path d="M13.8633 25.1719C18.1055 25.1719 20.8477 22.4414 20.8477 18.1992L20.8477 12.4219C20.8477 10.8164 20.3438 9.52734 19.3477 8.61328L11.9531 1.80469C10.5 0.480469 8.96484 0 7.13672 0L3.51562 0C1.40625 0 0 1.42969 0 3.55078L0 21.6562C0 23.8594 1.33594 25.1719 3.55078 25.1719ZM13.8281 23.2852L3.59766 23.2852C2.36719 23.2852 1.88672 22.8633 1.88672 21.6211L1.88672 3.57422C1.88672 2.56641 2.54297 1.88672 3.5625 1.88672L7.08984 1.88672C8.54297 1.88672 9.60938 2.23828 10.6523 3.1875L18.0352 9.97266C18.6797 10.5586 18.9609 11.2734 18.9609 12.4453L18.9609 18.1641C18.9609 21.4453 17.0977 23.2852 13.8281 23.2852Z" fill="black" fill-opacity="0.85"/>
 </g>
</svg>
