<?xml version="1.0" encoding="UTF-8"?>
<!--Generator: Apple Native CoreSVG 360-->
<!DOCTYPE svg
PUBLIC "-//W3C//DTD SVG 1.1//EN"
       "http://www.w3.org/Graphics/SVG/1.1/DTD/svg11.dtd">
<svg version="1.1" xmlns="http://www.w3.org/2000/svg" xmlns:xlink="http://www.w3.org/1999/xlink" viewBox="0 0 28.957 15.5742">
 <g>
  <rect height="15.5742" opacity="0" width="28.957" x="0" y="0"/>
  <path d="M22.3359 11.4844C25.9805 11.4844 28.6055 9.25781 28.6055 5.78906C28.6055 2.30859 25.9805 0.0820312 22.3359 0.0820312L6.26953 0.0820312C2.625 0.0820312 0 2.30859 0 5.78906C0 9.25781 2.625 11.4844 6.26953 11.4844ZM22.3359 9.59766L6.26953 9.59766C3.77344 9.59766 1.88672 8.10938 1.88672 5.78906C1.88672 3.45703 3.77344 1.96875 6.26953 1.96875L22.3359 1.96875C24.8203 1.96875 26.7188 3.45703 26.7188 5.78906C26.7188 8.10938 24.8203 9.59766 22.3359 9.59766ZM22.3359 15.5742C26.1562 15.5742 28.6055 13.0312 28.6055 9.05859L28.6055 5.78906L26.7188 5.78906L26.7188 9.05859C26.7188 11.8711 24.9961 13.6875 22.3359 13.6875L6.26953 13.6875C3.60938 13.6875 1.88672 11.8711 1.88672 9.05859L1.88672 5.78906L0 5.78906L0 9.05859C0 13.0312 2.44922 15.5742 6.26953 15.5742Z" fill="black" fill-opacity="0.85"/>
 </g>
</svg>
