<?xml version="1.0" encoding="UTF-8"?>
<!--Generator: Apple Native CoreSVG 360-->
<!DOCTYPE svg
PUBLIC "-//W3C//DTD SVG 1.1//EN"
       "http://www.w3.org/Graphics/SVG/1.1/DTD/svg11.dtd">
<svg version="1.1" xmlns="http://www.w3.org/2000/svg" xmlns:xlink="http://www.w3.org/1999/xlink" viewBox="0 0 28.6172 28.6055">
 <g>
  <rect height="28.6055" opacity="0" width="28.6172" x="0" y="0"/>
  <path d="M1.38281 22.3242L1.38281 6.26953C1.38281 2.44922 3.92578 0 7.89844 0L11.168 0C14.6484 0 16.875 2.625 16.875 6.26953L16.875 9.28783L14.9883 10.9677L14.9883 6.26953C14.9883 3.77344 13.5 1.88672 11.168 1.88672C8.84766 1.88672 7.35938 3.77344 7.35938 6.26953L7.35938 22.3242C7.35938 24.8203 8.84766 26.7188 11.168 26.7188C13.5 26.7188 14.9883 24.8203 14.9883 22.3242L14.9883 17.6383L16.875 19.3189L16.875 22.3242C16.875 25.9805 14.6484 28.6055 11.168 28.6055L7.89844 28.6055C3.92578 28.6055 1.38281 26.1562 1.38281 22.3242ZM3.26953 6.26953L3.26953 22.3242C3.26953 24.6493 4.64506 26.2556 6.85645 26.6321C5.96648 25.5393 5.47266 24.0461 5.47266 22.3242L5.47266 6.26953C5.47266 4.55392 5.96605 3.06423 6.85529 1.9731C4.64456 2.34758 3.26953 3.94483 3.26953 6.26953Z" fill="black" fill-opacity="0.85"/>
  <path d="M26.0156 15.293C26.5898 15.293 27.0234 14.8594 27.0234 14.2852C27.0234 13.7344 26.5898 13.2891 26.0156 13.2891L17.8008 13.2891C17.2383 13.2891 16.793 13.7344 16.793 14.2852C16.793 14.8594 17.2383 15.293 17.8008 15.293ZM19.6875 11.168C19.6875 10.1719 18.6797 9.82031 18 10.4414L14.4492 13.582C13.957 14.0156 13.9688 14.6016 14.4492 15.0234L18 18.1758C18.7148 18.8086 19.6875 18.3984 19.6875 17.4375Z" fill="black" fill-opacity="0.85"/>
 </g>
</svg>
