<?xml version="1.0" encoding="UTF-8"?>
<!--Generator: Apple Native CoreSVG 360-->
<!DOCTYPE svg
PUBLIC "-//W3C//DTD SVG 1.1//EN"
       "http://www.w3.org/Graphics/SVG/1.1/DTD/svg11.dtd">
<svg version="1.1" xmlns="http://www.w3.org/2000/svg" xmlns:xlink="http://www.w3.org/1999/xlink" viewBox="0 0 15.832 28.6055">
 <g>
  <rect height="28.6055" opacity="0" width="15.832" x="0" y="0"/>
  <path d="M4.08984 22.3359C4.08984 25.9805 6.30469 28.6055 9.78516 28.6055C13.2656 28.6055 15.4805 25.9805 15.4805 22.3359L15.4805 6.28125C15.4805 2.625 13.2656 0 9.78516 0C6.30469 0 4.08984 2.625 4.08984 6.28125ZM5.97656 22.3359L5.97656 6.28125C5.97656 3.78516 7.46484 1.88672 9.78516 1.88672C12.1055 1.88672 13.6055 3.78516 13.6055 6.28125L13.6055 22.3359C13.6055 24.832 12.1055 26.7188 9.78516 26.7188C7.46484 26.7188 5.97656 24.832 5.97656 22.3359ZM0 22.3359C0 26.1562 2.54297 28.6055 6.51562 28.6055L9.78516 28.6055L9.78516 26.7188L6.51562 26.7188C3.70312 26.7188 1.88672 25.0078 1.88672 22.3359L1.88672 6.28125C1.88672 3.60938 3.70312 1.88672 6.51562 1.88672L9.78516 1.88672L9.78516 0L6.51562 0C2.54297 0 0 2.44922 0 6.28125Z" fill="black" fill-opacity="0.85"/>
 </g>
</svg>
