<?xml version="1.0" encoding="UTF-8"?>
<!--Generator: Apple Native CoreSVG 360-->
<!DOCTYPE svg
PUBLIC "-//W3C//DTD SVG 1.1//EN"
       "http://www.w3.org/Graphics/SVG/1.1/DTD/svg11.dtd">
<svg version="1.1" xmlns="http://www.w3.org/2000/svg" xmlns:xlink="http://www.w3.org/1999/xlink" viewBox="0 0 24.2578 23.918">
 <g>
  <rect height="23.918" opacity="0" width="24.2578" x="0" y="0"/>
  <path d="M11.9531 23.9062C18.5508 23.9062 23.9062 18.5508 23.9062 11.9531C23.9062 5.35547 18.5508 0 11.9531 0C5.35547 0 0 5.35547 0 11.9531C0 18.5508 5.35547 23.9062 11.9531 23.9062ZM11.9531 21.9141C6.44531 21.9141 1.99219 17.4609 1.99219 11.9531C1.99219 6.44531 6.44531 1.99219 11.9531 1.99219C17.4609 1.99219 21.9141 6.44531 21.9141 11.9531C21.9141 17.4609 17.4609 21.9141 11.9531 21.9141Z" fill="black" fill-opacity="0.85"/>
  <path d="M11.9531 17.4492C14.0273 17.4492 15.6797 16.4648 16.2422 14.8828C16.3242 14.6719 16.3477 14.5195 16.3477 14.3438C16.3477 13.8516 16.0312 13.5469 15.5391 13.5469C15.1875 13.5469 14.9531 13.7227 14.7656 14.1211C14.2852 15.2695 13.3008 15.9023 11.9766 15.9023C10.1133 15.9023 8.85938 14.2734 8.85938 11.8477C8.85938 9.42188 10.1133 7.78125 11.9766 7.78125C13.3008 7.78125 14.2852 8.41406 14.7656 9.57422C14.9531 9.97266 15.1875 10.1367 15.5391 10.1367C16.0312 10.1367 16.3477 9.83203 16.3477 9.33984C16.3477 9.15234 16.3242 9.01172 16.2422 8.80078C15.668 7.23047 14.0273 6.23438 11.9531 6.23438C8.91797 6.23438 6.97266 8.42578 6.97266 11.8477C6.97266 15.2695 8.90625 17.4492 11.9531 17.4492Z" fill="black" fill-opacity="0.85"/>
 </g>
</svg>
