<?xml version="1.0" encoding="UTF-8"?>
<!--Generator: Apple Native CoreSVG 360-->
<!DOCTYPE svg
PUBLIC "-//W3C//DTD SVG 1.1//EN"
       "http://www.w3.org/Graphics/SVG/1.1/DTD/svg11.dtd">
<svg version="1.1" xmlns="http://www.w3.org/2000/svg" xmlns:xlink="http://www.w3.org/1999/xlink" viewBox="0 0 19.3945 26.8711">
 <g>
  <rect height="26.8711" opacity="0" width="19.3945" x="0" y="0"/>
  <path d="M2.70703 24.6914L16.3359 24.6914C17.9531 24.6914 19.043 23.5781 19.043 21.8906L19.043 2.80078C19.043 1.11328 17.9531 0 16.3359 0L2.70703 0C1.08984 0 0 1.11328 0 2.80078L0 21.8906C0 23.5781 1.08984 24.6914 2.70703 24.6914ZM2.80078 22.8047C2.25 22.8047 1.88672 22.4414 1.88672 21.8789L1.88672 2.8125C1.88672 2.25 2.25 1.88672 2.80078 1.88672L16.2422 1.88672C16.793 1.88672 17.1562 2.25 17.1562 2.8125L17.1562 21.8789C17.1562 22.4414 16.793 22.8047 16.2422 22.8047ZM8.75391 23.6836L10.2891 23.6836L10.2891 0.972656L8.75391 0.972656ZM6.48047 14.0156C7.16016 14.0156 7.72266 13.4648 7.72266 12.7852C7.72266 12.0938 7.16016 11.543 6.48047 11.543C5.80078 11.543 5.23828 12.0938 5.23828 12.7852C5.23828 13.4648 5.80078 14.0156 6.48047 14.0156ZM12.5508 14.0156C13.2305 14.0156 13.793 13.4648 13.793 12.7852C13.793 12.0938 13.2305 11.543 12.5508 11.543C11.8711 11.543 11.3086 12.0938 11.3086 12.7852C11.3086 13.4648 11.8711 14.0156 12.5508 14.0156ZM3.43359 26.8594C4.01953 26.8594 4.40625 26.4609 4.40625 25.875L4.40625 23.5195L2.46094 23.5195L2.46094 25.875C2.46094 26.4609 2.84766 26.8594 3.43359 26.8594ZM15.6094 26.8594C16.1953 26.8594 16.582 26.4609 16.582 25.875L16.582 23.5195L14.6367 23.5195L14.6367 25.875C14.6367 26.4609 15.0234 26.8594 15.6094 26.8594Z" fill="black" fill-opacity="0.85"/>
 </g>
</svg>
