<?xml version="1.0" encoding="UTF-8"?>
<!--Generator: Apple Native CoreSVG 360-->
<!DOCTYPE svg
PUBLIC "-//W3C//DTD SVG 1.1//EN"
       "http://www.w3.org/Graphics/SVG/1.1/DTD/svg11.dtd">
<svg version="1.1" xmlns="http://www.w3.org/2000/svg" xmlns:xlink="http://www.w3.org/1999/xlink" viewBox="0 0 27.3047 27.4336">
 <g>
  <rect height="27.4336" opacity="0" width="27.3047" x="0" y="0"/>
  <path d="M10.7227 5.44922L6.67969 5.44922C4.66406 5.44922 3.02344 7.08984 3.02344 9.10547C3.02344 11.1328 4.65234 12.7617 6.67969 12.7617L20.2734 12.7617C23.332 12.7617 25.8281 15.2578 25.8281 18.3164C25.8281 21.375 23.332 23.8477 20.2734 23.8477L16.2305 23.8477L16.2305 21.9609L20.2734 21.9609C22.2891 21.9609 23.9414 20.332 23.9414 18.3164C23.9414 16.2891 22.3008 14.6484 20.2734 14.6484L6.67969 14.6484C3.62109 14.6484 1.13672 12.1641 1.13672 9.10547C1.13672 6.04688 3.62109 3.5625 6.67969 3.5625L10.7227 3.5625Z" fill="black" fill-opacity="0.85"/>
  <path d="M8.02734 20.2266L8.02734 25.582C8.02734 26.0156 7.74609 26.2969 7.33594 26.2969L6.72656 26.2969C6.31641 26.2969 6.03516 26.0156 6.03516 25.582L6.03516 20.2266C6.03516 19.8047 6.31641 19.5234 6.72656 19.5234L7.33594 19.5234C7.74609 19.5234 8.02734 19.8047 8.02734 20.2266ZM15.1055 21.5039L15.1055 24.3047C15.1055 25.2656 14.7188 25.6641 13.7578 25.6641L9.16406 25.6641L9.16406 20.1562L13.7578 20.1562C14.7188 20.1562 15.1055 20.543 15.1055 21.5039ZM4.89844 23.8711L1.83984 23.8711C1.41797 23.8711 1.13672 23.5898 1.13672 23.1797L1.13672 22.6289C1.13672 22.207 1.41797 21.9258 1.83984 21.9258L4.89844 21.9258Z" fill="black" fill-opacity="0.85"/>
  <path d="M13.1953 7.26562L17.7891 7.26562L17.7891 1.75781L13.1953 1.75781C12.2461 1.75781 11.8477 2.15625 11.8477 3.11719L11.8477 5.91797C11.8477 6.87891 12.2461 7.26562 13.1953 7.26562ZM19.6172 7.89844L20.2266 7.89844C20.6367 7.89844 20.918 7.61719 20.918 7.19531L20.918 1.83984C20.918 1.40625 20.6367 1.125 20.2266 1.125L19.6172 1.125C19.207 1.125 18.9258 1.40625 18.9258 1.83984L18.9258 7.19531C18.9258 7.61719 19.207 7.89844 19.6172 7.89844ZM22.0547 5.48438L25.1133 5.48438C25.5469 5.48438 25.8281 5.20312 25.8281 4.79297L25.8281 4.24219C25.8281 3.82031 25.5469 3.53906 25.1133 3.53906L22.0547 3.53906Z" fill="black" fill-opacity="0.85"/>
 </g>
</svg>
