<?xml version="1.0" encoding="UTF-8"?>
<!--Generator: Apple Native CoreSVG 360-->
<!DOCTYPE svg
PUBLIC "-//W3C//DTD SVG 1.1//EN"
       "http://www.w3.org/Graphics/SVG/1.1/DTD/svg11.dtd">
<svg version="1.1" xmlns="http://www.w3.org/2000/svg" xmlns:xlink="http://www.w3.org/1999/xlink" viewBox="0 0 24.7383 28.6055">
 <g>
  <rect height="28.6055" opacity="0" width="24.7383" x="0" y="0"/>
  <path d="M1.34766 22.3477L2.85938 22.3477L2.85938 6.71484C2.85938 5.87109 3.26953 5.40234 4.13672 5.28516C6.07031 5.01562 9.05859 4.89844 12.1875 4.89844C15.3047 4.89844 18.293 5.01562 20.25 5.28516C21.1289 5.39062 21.5156 5.80078 21.5156 6.71484L21.5156 22.3477L23.0391 22.3477L23.0391 6.25781C23.0391 4.82812 22.207 3.98438 20.6484 3.79688C18.375 3.51562 15.1992 3.36328 12.1875 3.36328C9.17578 3.36328 6 3.51562 3.71484 3.79688C2.16797 3.98438 1.34766 4.82812 1.34766 6.25781ZM0 23.0977C0 23.6133 0.421875 24.0469 0.9375 24.0469L23.4492 24.0469C23.9648 24.0469 24.3867 23.6133 24.3867 23.0977C24.3867 22.582 23.9648 22.1602 23.4492 22.1602L0.9375 22.1602C0.421875 22.1602 0 22.582 0 23.0977ZM4.62891 1.30078C4.62891 1.82812 5.07422 2.33203 5.625 2.26172C7.37109 2.05078 9.78516 1.95703 12.1875 1.95703C14.5898 1.95703 17.0156 2.05078 18.7617 2.26172C19.3008 2.33203 19.7461 1.82812 19.7461 1.30078C19.7461 0.773438 19.3242 0.386719 18.7617 0.316406C16.9922 0.105469 14.5547 0 12.1875 0C9.83203 0 7.39453 0.105469 5.61328 0.316406C5.0625 0.386719 4.62891 0.773438 4.62891 1.30078ZM5.96484 0.996094L5.96484 4.20703L7.5 4.20703L7.5 0.996094ZM16.8867 0.996094L16.8867 4.20703L18.4219 4.20703L18.4219 0.996094ZM12.1875 20.8242C13.2539 20.8242 14.0977 20.0273 14.0977 18.9609C14.0977 17.8711 13.2539 17.0273 12.1875 17.0273C11.0977 17.0273 10.3008 17.8711 10.3008 18.9609C10.3008 20.0273 11.0977 20.8242 12.1875 20.8242ZM4.11328 14.7539C4.11328 15.1055 4.34766 15.3398 4.72266 15.3398L7.875 15.3398C8.25 15.3398 8.48438 15.1055 8.48438 14.7539L8.48438 9.02344C8.48438 7.79297 7.52344 6.84375 6.30469 6.84375C5.0625 6.84375 4.11328 7.79297 4.11328 9.02344ZM9.72656 14.7539C9.72656 15.1055 9.96094 15.3398 10.3359 15.3398L14.0273 15.3398C14.4141 15.3398 14.6484 15.1055 14.6484 14.7539L14.6484 8.75391C14.6484 7.28906 13.6641 6.30469 12.1875 6.30469C10.7109 6.30469 9.72656 7.28906 9.72656 8.75391ZM15.8789 14.7539C15.8789 15.1055 16.125 15.3398 16.5 15.3398L19.6523 15.3398C20.0273 15.3398 20.2617 15.1055 20.2617 14.7539L20.2617 9.02344C20.2617 7.79297 19.3008 6.84375 18.082 6.84375C16.8398 6.84375 15.8789 7.79297 15.8789 9.02344ZM3.90234 28.582L4.55859 28.582C4.875 28.582 5.0625 28.4766 5.23828 28.1953L8.56641 22.8164L6.32812 22.8164L3.375 27.5625C3.07031 28.0547 3.35156 28.582 3.90234 28.582ZM19.418 28.582L20.0742 28.582C20.6133 28.582 20.8945 28.0547 20.5898 27.5625L17.6367 22.8164L15.3984 22.8164L18.7266 28.1953C18.9023 28.4766 19.0898 28.582 19.418 28.582Z" fill="black" fill-opacity="0.85"/>
 </g>
</svg>
