<?xml version="1.0" encoding="UTF-8"?>
<!--Generator: Apple Native CoreSVG 360-->
<!DOCTYPE svg
PUBLIC "-//W3C//DTD SVG 1.1//EN"
       "http://www.w3.org/Graphics/SVG/1.1/DTD/svg11.dtd">
<svg version="1.1" xmlns="http://www.w3.org/2000/svg" xmlns:xlink="http://www.w3.org/1999/xlink" viewBox="0 0 8.00391 26.7539">
 <g>
  <rect height="26.7539" opacity="0" width="8.00391" x="0" y="0"/>
  <path d="M2.84766 26.7422L4.81641 26.7422L4.81641 15.4922L2.84766 15.4922ZM1.44141 17.2734L6.21094 17.2734C7.23047 17.2734 7.65234 16.8633 7.65234 15.832L7.65234 6.82031C7.65234 5.80078 7.23047 5.37891 6.21094 5.37891L1.44141 5.37891C0.410156 5.37891 0 5.80078 0 6.82031L0 15.832C0 16.8633 0.410156 17.2734 1.44141 17.2734Z" fill="black" fill-opacity="0.85"/>
  <path d="M1.53516 4.00781L6.11719 4.00781L6.11719 1.44141C6.11719 0.410156 5.68359 0 4.66406 0L2.98828 0C1.95703 0 1.53516 0.410156 1.53516 1.44141Z" fill="black" fill-opacity="0.425"/>
 </g>
</svg>
