<?xml version="1.0" encoding="UTF-8"?>
<!--Generator: Apple Native CoreSVG 360-->
<!DOCTYPE svg
PUBLIC "-//W3C//DTD SVG 1.1//EN"
       "http://www.w3.org/Graphics/SVG/1.1/DTD/svg11.dtd">
<svg version="1.1" xmlns="http://www.w3.org/2000/svg" xmlns:xlink="http://www.w3.org/1999/xlink" viewBox="0 0 38.2031 24.7852">
 <g>
  <rect height="24.7852" opacity="0" width="38.2031" x="0" y="0"/>
  <path d="M30.5977 5.25L30.5977 6.5746C30.2493 6.48843 29.8878 6.44531 29.5195 6.44531C28.7452 6.44531 28.0023 6.63725 27.3402 6.98671C27.2585 6.97684 27.172 6.97266 27.082 6.97266L10.7461 6.97266C9.70312 6.97266 9.12891 7.53516 9.12891 8.61328L9.12891 19.6641C9.12891 20.7539 9.70312 21.3047 10.7461 21.3047L20.9111 21.3047C20.8586 21.5615 20.8359 21.816 20.8359 22.0664C20.8359 22.4783 20.9188 22.8567 21.072 23.1914L10.9219 23.1914C8.47266 23.1914 7.24219 21.9844 7.24219 19.5586L7.24219 5.25C7.24219 2.82422 8.47266 1.61719 10.9219 1.61719L26.9297 1.61719C29.3789 1.61719 30.5977 2.83594 30.5977 5.25ZM13.9805 17.625L13.9805 18.3164C13.9805 18.7266 13.8516 18.8555 13.4297 18.8555L12.75 18.8555C12.3281 18.8555 12.1992 18.7266 12.1992 18.3164L12.1992 17.625C12.1992 17.2148 12.3281 17.0977 12.75 17.0977L13.4297 17.0977C13.8516 17.0977 13.9805 17.2148 13.9805 17.625ZM17.8711 17.625L17.8711 18.3164C17.8711 18.7266 17.7422 18.8555 17.332 18.8555L16.6406 18.8555C16.2305 18.8555 16.0898 18.7266 16.0898 18.3164L16.0898 17.625C16.0898 17.2148 16.2305 17.0977 16.6406 17.0977L17.332 17.0977C17.7422 17.0977 17.8711 17.2148 17.8711 17.625ZM21.7734 17.625L21.7734 18.3164C21.7734 18.7266 21.6328 18.8555 21.2227 18.8555L20.5312 18.8555C20.1211 18.8555 19.9805 18.7266 19.9805 18.3164L19.9805 17.625C19.9805 17.2148 20.1211 17.0977 20.5312 17.0977L21.2227 17.0977C21.6328 17.0977 21.7734 17.2148 21.7734 17.625ZM13.9805 13.793L13.9805 14.4844C13.9805 14.8945 13.8516 15.0117 13.4297 15.0117L12.75 15.0117C12.3281 15.0117 12.1992 14.8945 12.1992 14.4844L12.1992 13.793C12.1992 13.3828 12.3281 13.2656 12.75 13.2656L13.4297 13.2656C13.8516 13.2656 13.9805 13.3828 13.9805 13.793ZM17.8711 13.793L17.8711 14.4844C17.8711 14.8945 17.7422 15.0117 17.332 15.0117L16.6406 15.0117C16.2305 15.0117 16.0898 14.8945 16.0898 14.4844L16.0898 13.793C16.0898 13.3828 16.2305 13.2656 16.6406 13.2656L17.332 13.2656C17.7422 13.2656 17.8711 13.3828 17.8711 13.793ZM21.7734 13.793L21.7734 14.4844C21.7734 14.8945 21.6328 15.0117 21.2227 15.0117L20.5312 15.0117C20.1211 15.0117 19.9805 14.8945 19.9805 14.4844L19.9805 13.793C19.9805 13.3828 20.1211 13.2656 20.5312 13.2656L21.2227 13.2656C21.6328 13.2656 21.7734 13.3828 21.7734 13.793ZM25.5689 14.8731C25.4855 14.9756 25.3409 15.0117 25.1133 15.0117L24.4219 15.0117C24.0117 15.0117 23.8828 14.8945 23.8828 14.4844L23.8828 13.793C23.8828 13.3828 24.0117 13.2656 24.4219 13.2656L24.7785 13.2656C24.9528 13.8547 25.2216 14.398 25.5689 14.8731ZM17.8711 9.96094L17.8711 10.6523C17.8711 11.0625 17.7422 11.1797 17.332 11.1797L16.6406 11.1797C16.2305 11.1797 16.0898 11.0625 16.0898 10.6523L16.0898 9.96094C16.0898 9.55078 16.2305 9.42188 16.6406 9.42188L17.332 9.42188C17.7422 9.42188 17.8711 9.55078 17.8711 9.96094ZM21.7734 9.96094L21.7734 10.6523C21.7734 11.0625 21.6328 11.1797 21.2227 11.1797L20.5312 11.1797C20.1211 11.1797 19.9805 11.0625 19.9805 10.6523L19.9805 9.96094C19.9805 9.55078 20.1211 9.42188 20.5312 9.42188L21.2227 9.42188C21.6328 9.42188 21.7734 9.55078 21.7734 9.96094ZM24.5752 11.1797L24.4219 11.1797C24.0117 11.1797 23.8828 11.0625 23.8828 10.6523L23.8828 9.96094C23.8828 9.55078 24.0117 9.42188 24.4219 9.42188L25.0432 9.42187C24.7918 9.95756 24.6301 10.55 24.5752 11.1797Z" fill="black" fill-opacity="0.85"/>
  <path d="M23.8594 23.1797L35.168 23.1797C36.0586 23.1797 36.5977 22.7695 36.5977 22.0664C36.5977 19.8867 33.8906 16.8867 29.5195 16.8867C25.1367 16.8867 22.4297 19.8867 22.4297 22.0664C22.4297 22.7695 22.9688 23.1797 23.8594 23.1797ZM29.5195 15.3867C31.3242 15.3867 32.8945 13.7695 32.8945 11.6602C32.8945 9.58594 31.3125 8.05078 29.5195 8.05078C27.7266 8.05078 26.1562 9.60938 26.1562 11.6836C26.1562 13.7695 27.7148 15.3867 29.5195 15.3867Z" fill="black" fill-opacity="0.85"/>
 </g>
</svg>
