<?xml version="1.0" encoding="UTF-8"?>
<!--Generator: Apple Native CoreSVG 360-->
<!DOCTYPE svg
PUBLIC "-//W3C//DTD SVG 1.1//EN"
       "http://www.w3.org/Graphics/SVG/1.1/DTD/svg11.dtd">
<svg version="1.1" xmlns="http://www.w3.org/2000/svg" xmlns:xlink="http://www.w3.org/1999/xlink" viewBox="0 0 30.7148 24.5742">
 <g>
  <rect height="24.5742" opacity="0" width="30.7148" x="0" y="0"/>
  <path d="M24.4453 3.65625L24.4453 6.50772C24.0856 6.43285 23.8576 6.26292 23.5312 5.90625L22.6875 4.99219C22.6445 4.94493 22.6015 4.89949 22.5586 4.85638L22.5586 3.76172C22.5586 2.54297 21.9023 1.91016 20.7422 1.91016L3.70312 1.91016C2.55469 1.91016 1.88672 2.54297 1.88672 3.76172L1.88672 15.4102C1.88672 16.6289 2.53125 17.2617 3.70312 17.2617L5.91797 17.2617L5.91797 19.1484L3.67969 19.1484C1.21875 19.1484 0 17.9297 0 15.5156L0 3.65625C0 1.24219 1.21875 0.0234375 3.67969 0.0234375L20.7773 0.0234375C23.2266 0.0234375 24.4453 1.24219 24.4453 3.65625Z" fill="black" fill-opacity="0.85"/>
  <path d="M9.59766 24.5742L26.6953 24.5742C29.1445 24.5742 30.3633 23.3555 30.3633 20.9414L30.3633 10.1836C30.3633 7.76953 29.1445 6.5625 26.6953 6.5625L25.1836 6.5625C24.3047 6.5625 24.0352 6.45703 23.5312 5.90625L22.6875 4.99219C22.0898 4.33594 21.5156 4.03125 20.6016 4.03125L15.6914 4.03125C14.7656 4.03125 14.2031 4.33594 13.5938 4.99219L12.7617 5.90625C12.2461 6.45703 11.9766 6.5625 11.0977 6.5625L9.59766 6.5625C7.13672 6.5625 5.91797 7.76953 5.91797 10.1836L5.91797 20.9414C5.91797 23.3555 7.13672 24.5742 9.59766 24.5742ZM9.62109 22.6875C8.44922 22.6875 7.80469 22.0547 7.80469 20.8359L7.80469 10.2891C7.80469 9.07031 8.44922 8.44922 9.62109 8.44922L11.5547 8.44922C12.5625 8.44922 13.1836 8.23828 13.7812 7.59375L14.7891 6.48047C15.1641 6.09375 15.5156 5.91797 16.1484 5.91797L20.1328 5.91797C20.7773 5.91797 21.1172 6.09375 21.4922 6.48047L22.5117 7.59375C23.1094 8.23828 23.7188 8.44922 24.7266 8.44922L26.6602 8.44922C27.832 8.44922 28.4766 9.07031 28.4766 10.2891L28.4766 20.8359C28.4766 22.0547 27.832 22.6875 26.6602 22.6875ZM18.1523 21.1055C21.2812 21.1055 23.8242 18.5742 23.8242 15.4219C23.8242 12.293 21.2812 9.75 18.1523 9.75C15.0117 9.75 12.4805 12.293 12.4805 15.4219C12.4805 18.5742 15.0117 21.1055 18.1523 21.1055ZM18.1523 19.3125C16.0195 19.3125 14.2734 17.5664 14.2734 15.4219C14.2734 13.2891 16.0195 11.5547 18.1523 11.5547C20.2852 11.5547 22.0195 13.2891 22.0195 15.4219C22.0195 17.5664 20.2852 19.3125 18.1523 19.3125ZM25.7695 12.5859C26.4844 12.5859 27.0469 12.0117 27.0469 11.3086C27.0469 10.6055 26.4844 10.0195 25.7695 10.0195C25.0664 10.0195 24.4805 10.6055 24.4805 11.3086C24.4805 12.0117 25.0664 12.5859 25.7695 12.5859Z" fill="black" fill-opacity="0.85"/>
 </g>
</svg>
