<?xml version="1.0" encoding="UTF-8"?>
<!--Generator: Apple Native CoreSVG 360-->
<!DOCTYPE svg
PUBLIC "-//W3C//DTD SVG 1.1//EN"
       "http://www.w3.org/Graphics/SVG/1.1/DTD/svg11.dtd">
<svg version="1.1" xmlns="http://www.w3.org/2000/svg" xmlns:xlink="http://www.w3.org/1999/xlink" viewBox="0 0 27.9844 21.5742">
 <g>
  <rect height="21.5742" opacity="0" width="27.9844" x="0" y="0"/>
  <path d="M3.67969 21.5742L13.0312 21.5742L13.0312 19.6875L3.70312 19.6875C2.53125 19.6875 1.88672 19.0664 1.88672 17.8477L1.88672 11.5898L0 11.5898L0 17.9531C0 20.3672 1.23047 21.5742 3.67969 21.5742ZM14.6367 21.5742L23.9531 21.5742C26.4141 21.5742 27.6328 20.3672 27.6328 17.9531L27.6328 11.5898L25.7461 11.5898L25.7461 17.8477C25.7461 19.0664 25.0898 19.6875 23.9297 19.6875L14.6367 19.6875ZM25.7461 9.99609L27.6328 9.99609L27.6328 3.63281C27.6328 1.21875 26.4141 0 23.9531 0L14.6367 0L14.6367 1.88672L23.9297 1.88672C25.0898 1.88672 25.7461 2.51953 25.7461 3.73828ZM0 9.99609L1.88672 9.99609L1.88672 3.73828C1.88672 2.51953 2.53125 1.88672 3.70312 1.88672L13.0312 1.88672L13.0312 0L3.67969 0C1.23047 0 0 1.21875 0 3.63281Z" fill="black" fill-opacity="0.85"/>
  <path d="M13.6055 13.207C14.1914 13.207 14.5547 12.832 14.5547 12.375C14.5547 12.3281 14.5547 12.2695 14.5547 12.2344C14.5547 11.5781 14.9297 11.1562 15.75 10.6172C16.8867 9.86719 17.6953 9.1875 17.6953 7.78125C17.6953 5.83594 15.9609 4.78125 13.9688 4.78125C11.9531 4.78125 10.6289 5.74219 10.3125 6.82031C10.2539 7.00781 10.2188 7.19531 10.2188 7.39453C10.2188 7.92188 10.6289 8.20312 11.0156 8.20312C11.4141 8.20312 11.6719 8.01562 11.8828 7.73438L12.0938 7.45312C12.5039 6.77344 13.1133 6.375 13.8984 6.375C14.9648 6.375 15.6562 6.98438 15.6562 7.875C15.6562 8.67188 15.1641 9.05859 14.1328 9.77344C13.3008 10.3594 12.668 10.9805 12.668 12.1289C12.668 12.1758 12.668 12.2344 12.668 12.2812C12.668 12.8906 13.0078 13.207 13.6055 13.207ZM13.582 16.6992C14.2617 16.6992 14.8477 16.1602 14.8477 15.4805C14.8477 14.8008 14.2734 14.2617 13.582 14.2617C12.8906 14.2617 12.3164 14.8125 12.3164 15.4805C12.3164 16.1484 12.9023 16.6992 13.582 16.6992Z" fill="black" fill-opacity="0.85"/>
 </g>
</svg>
