<?xml version="1.0" encoding="UTF-8"?>
<!--Generator: Apple Native CoreSVG 360-->
<!DOCTYPE svg
PUBLIC "-//W3C//DTD SVG 1.1//EN"
       "http://www.w3.org/Graphics/SVG/1.1/DTD/svg11.dtd">
<svg version="1.1" xmlns="http://www.w3.org/2000/svg" xmlns:xlink="http://www.w3.org/1999/xlink" viewBox="0 0 29.1328 30.5756">
 <g>
  <rect height="30.5756" opacity="0" width="29.1328" x="0" y="0"/>
  <path d="M23.2617 12.7272C24.0586 12.7272 24.7148 12.071 24.7148 11.2741C24.7148 10.4655 24.0586 9.82098 23.2617 9.82098C22.4531 9.82098 21.8086 10.4655 21.8086 11.2741C21.8086 12.071 22.4531 12.7272 23.2617 12.7272ZM3.67969 26.0866L25.1016 26.0866C27.5391 26.0866 28.7812 24.8679 28.7812 22.4538L28.7812 10.1843C28.7812 7.7702 27.5391 6.56317 25.1016 6.56317L21.75 6.56317C20.8242 6.56317 20.543 6.37567 20.0156 5.78973L19.0781 4.73505C18.4922 4.09052 17.8945 3.73895 16.6875 3.73895L12.0117 3.73895C10.8047 3.73895 10.207 4.09052 9.62109 4.73505L8.68359 5.78973C8.15625 6.36395 7.86328 6.56317 6.94922 6.56317L3.67969 6.56317C1.23047 6.56317 0 7.7702 0 10.1843L0 22.4538C0 24.8679 1.23047 26.0866 3.67969 26.0866ZM3.70312 24.1999C2.55469 24.1999 1.88672 23.5788 1.88672 22.36L1.88672 10.2897C1.88672 9.07098 2.55469 8.44989 3.70312 8.44989L7.41797 8.44989C8.47266 8.44989 9.04688 8.25067 9.63281 7.59442L10.5469 6.56317C11.2148 5.81317 11.5664 5.62567 12.5977 5.62567L16.1016 5.62567C17.1328 5.62567 17.4844 5.81317 18.1523 6.56317L19.0664 7.59442C19.6523 8.25067 20.2266 8.44989 21.2812 8.44989L25.0664 8.44989C26.2266 8.44989 26.8945 9.07098 26.8945 10.2897L26.8945 22.36C26.8945 23.5788 26.2266 24.1999 25.0664 24.1999ZM14.3906 22.5124C17.9297 22.5124 20.7773 19.6765 20.7773 16.1022C20.7773 12.5397 17.9414 9.7038 14.3906 9.7038C10.8398 9.7038 7.99219 12.5397 7.99219 16.1022C7.99219 19.6765 10.8398 22.5124 14.3906 22.5124ZM14.3906 20.7311C11.8477 20.7311 9.76172 18.6804 9.76172 16.1022C9.76172 13.5358 11.8359 11.4733 14.3906 11.4733C16.9453 11.4733 19.0078 13.5358 19.0078 16.1022C19.0078 18.6804 16.9453 20.7311 14.3906 20.7311Z" fill="black" fill-opacity="0.85"/>
  <path d="M1.57031 1.66473L4.86328 4.48895C5.07422 4.66473 5.29688 4.80536 5.54297 4.80536C5.80078 4.80536 6.02344 4.66473 6.23438 4.48895L9.52734 1.66473C10.5 0.844422 9.35156-0.655578 8.27344 0.317079L5.54297 2.81317L2.82422 0.317079C1.73438-0.655578 0.597656 0.844422 1.57031 1.66473Z" fill="black" fill-opacity="0.85"/>
 </g>
</svg>
