<?xml version="1.0" encoding="UTF-8"?>
<!--Generator: Apple Native CoreSVG 360-->
<!DOCTYPE svg
PUBLIC "-//W3C//DTD SVG 1.1//EN"
       "http://www.w3.org/Graphics/SVG/1.1/DTD/svg11.dtd">
<svg version="1.1" xmlns="http://www.w3.org/2000/svg" xmlns:xlink="http://www.w3.org/1999/xlink" viewBox="0 0 27.9844 21.5742">
 <g>
  <rect height="21.5742" opacity="0" width="27.9844" x="0" y="0"/>
  <path d="M3.67969 21.5742L13.0312 21.5742L13.0312 19.6875L3.70312 19.6875C2.53125 19.6875 1.88672 19.0664 1.88672 17.8477L1.88672 11.5898L0 11.5898L0 17.9531C0 20.3672 1.23047 21.5742 3.67969 21.5742ZM14.6367 21.5742L23.9531 21.5742C26.4141 21.5742 27.6328 20.3672 27.6328 17.9531L27.6328 11.5898L25.7461 11.5898L25.7461 17.8477C25.7461 19.0664 25.0898 19.6875 23.9297 19.6875L14.6367 19.6875ZM25.7461 9.99609L27.6328 9.99609L27.6328 3.63281C27.6328 1.21875 26.4141 0 23.9531 0L14.6367 0L14.6367 1.88672L23.9297 1.88672C25.0898 1.88672 25.7461 2.51953 25.7461 3.73828ZM0 9.99609L1.88672 9.99609L1.88672 3.73828C1.88672 2.51953 2.53125 1.88672 3.70312 1.88672L13.0312 1.88672L13.0312 0L3.67969 0C1.23047 0 0 1.21875 0 3.63281Z" fill="black" fill-opacity="0.85"/>
  <path d="M13.8398 7.58203C14.7773 7.58203 15.5156 6.83203 15.5156 5.90625C15.5156 4.98047 14.7773 4.24219 13.8398 4.24219C12.9141 4.24219 12.1758 4.98047 12.1758 5.90625C12.1758 6.83203 12.9141 7.58203 13.8398 7.58203ZM8.97656 12.4453C9.90234 12.4453 10.6406 11.707 10.6406 10.7812C10.6406 9.85547 9.90234 9.10547 8.97656 9.10547C8.03906 9.10547 7.30078 9.85547 7.30078 10.7812C7.30078 11.707 8.03906 12.4453 8.97656 12.4453ZM18.7148 12.4453C19.6406 12.4453 20.3906 11.707 20.3906 10.7812C20.3906 9.85547 19.6406 9.10547 18.7148 9.10547C17.7891 9.10547 17.0391 9.85547 17.0391 10.7812C17.0391 11.707 17.7891 12.4453 18.7148 12.4453ZM13.8398 17.3203C14.7773 17.3203 15.5156 16.582 15.5156 15.6562C15.5156 14.7188 14.7773 13.9805 13.8398 13.9805C12.9141 13.9805 12.1758 14.7188 12.1758 15.6562C12.1758 16.582 12.9141 17.3203 13.8398 17.3203Z" fill="black" fill-opacity="0.85"/>
  <path d="M13.8398 12.4453C14.7773 12.4453 15.5156 11.707 15.5156 10.7812C15.5156 9.85547 14.7773 9.10547 13.8398 9.10547C12.9141 9.10547 12.1758 9.85547 12.1758 10.7812C12.1758 11.707 12.9141 12.4453 13.8398 12.4453Z" fill="black" fill-opacity="0.85"/>
 </g>
</svg>
