<?xml version="1.0" encoding="UTF-8"?>
<!--Generator: Apple Native CoreSVG 360-->
<!DOCTYPE svg
PUBLIC "-//W3C//DTD SVG 1.1//EN"
       "http://www.w3.org/Graphics/SVG/1.1/DTD/svg11.dtd">
<svg version="1.1" xmlns="http://www.w3.org/2000/svg" xmlns:xlink="http://www.w3.org/1999/xlink" viewBox="0 0 27.9844 21.5742">
 <g>
  <rect height="21.5742" opacity="0" width="27.9844" x="0" y="0"/>
  <path d="M3.67969 21.5742L13.0312 21.5742L13.0312 19.6875L3.70312 19.6875C2.53125 19.6875 1.88672 19.0664 1.88672 17.8477L1.88672 11.5898L0 11.5898L0 17.9531C0 20.3672 1.23047 21.5742 3.67969 21.5742ZM14.6367 21.5742L23.9531 21.5742C26.4141 21.5742 27.6328 20.3672 27.6328 17.9531L27.6328 11.5898L25.7461 11.5898L25.7461 17.8477C25.7461 19.0664 25.0898 19.6875 23.9297 19.6875L14.6367 19.6875ZM25.7461 9.99609L27.6328 9.99609L27.6328 3.63281C27.6328 1.21875 26.4141 0 23.9531 0L14.6367 0L14.6367 1.88672L23.9297 1.88672C25.0898 1.88672 25.7461 2.51953 25.7461 3.73828ZM0 9.99609L1.88672 9.99609L1.88672 3.73828C1.88672 2.51953 2.53125 1.88672 3.70312 1.88672L13.0312 1.88672L13.0312 0L3.67969 0C1.23047 0 0 1.21875 0 3.63281Z" fill="black" fill-opacity="0.85"/>
  <path d="M20.3086 11.6016L18.7734 11.6016C18.375 13.9805 16.3125 15.8086 13.8398 15.8086C11.3555 15.8086 9.26953 13.9805 8.88281 11.6016L7.34766 11.6016C7.74609 14.8242 10.5234 17.3203 13.8398 17.3203C17.1328 17.3203 19.8867 14.8125 20.3086 11.6016ZM18.7852 9.99609L20.3086 9.99609C19.9219 6.79688 17.1328 4.27734 13.8398 4.27734C10.5234 4.27734 7.73438 6.79688 7.34766 9.99609L8.87109 9.99609C9.25781 7.62891 11.3555 5.78906 13.8398 5.78906C16.3125 5.78906 18.4102 7.62891 18.7852 9.99609Z" fill="black" fill-opacity="0.85"/>
 </g>
</svg>
