<?xml version="1.0" encoding="UTF-8"?>
<!--Generator: Apple Native CoreSVG 360-->
<!DOCTYPE svg
PUBLIC "-//W3C//DTD SVG 1.1//EN"
       "http://www.w3.org/Graphics/SVG/1.1/DTD/svg11.dtd">
<svg version="1.1" xmlns="http://www.w3.org/2000/svg" xmlns:xlink="http://www.w3.org/1999/xlink" viewBox="0 0 42.2812 20.5898">
 <g>
  <rect height="20.5898" opacity="0" width="42.2812" x="0" y="0"/>
  <path d="M4.52344 18.3047C4.89844 17.8828 4.78125 17.332 4.35938 16.8516C2.78906 15.1055 1.91016 12.8086 1.91016 10.2891C1.91016 7.76953 2.78906 5.47266 4.35938 3.72656C4.78125 3.24609 4.89844 2.69531 4.52344 2.27344C4.14844 1.82812 3.49219 1.83984 3.04688 2.33203C1.10156 4.44141 0 7.25391 0 10.2891C0 13.3242 1.10156 16.125 3.04688 18.2461C3.49219 18.7383 4.14844 18.7383 4.52344 18.3047ZM37.4062 18.3047C37.7812 18.7383 38.4375 18.7383 38.8828 18.2461C40.8281 16.125 41.9297 13.3242 41.9297 10.2891C41.9297 7.25391 40.8281 4.44141 38.8828 2.33203C38.4375 1.83984 37.7812 1.82812 37.4062 2.27344C37.0312 2.69531 37.1484 3.24609 37.5703 3.72656C39.1406 5.47266 40.0195 7.76953 40.0195 10.2891C40.0195 12.8086 39.1406 15.1055 37.5703 16.8516C37.1484 17.332 37.0312 17.8828 37.4062 18.3047Z" fill="black" fill-opacity="0.85"/>
  <path d="M7.80469 14.9648C8.17969 14.543 8.02734 14.0156 7.65234 13.5117C6.94922 12.6328 6.60938 11.5078 6.60938 10.2891C6.60938 9.07031 6.94922 7.93359 7.65234 7.06641C8.02734 6.5625 8.17969 6.03516 7.80469 5.61328C7.41797 5.16797 6.71484 5.16797 6.30469 5.69531C5.28516 6.96094 4.69922 8.56641 4.69922 10.2891C4.69922 12.0117 5.28516 13.6172 6.30469 14.8828C6.71484 15.4102 7.41797 15.3984 7.80469 14.9648ZM34.125 14.9648C34.5117 15.3984 35.2148 15.4102 35.625 14.8828C36.6445 13.6172 37.2305 12.0117 37.2305 10.2891C37.2305 8.56641 36.6445 6.96094 35.625 5.69531C35.2148 5.16797 34.5117 5.16797 34.125 5.61328C33.75 6.03516 33.9023 6.5625 34.2773 7.06641C34.9805 7.93359 35.3203 9.07031 35.3203 10.2891C35.3203 11.5078 34.9805 12.6328 34.2773 13.5117C33.9023 14.0156 33.75 14.543 34.125 14.9648Z" fill="black" fill-opacity="0.85"/>
  <path d="M20.9648 20.5664C26.6484 20.5664 31.2539 15.9727 31.2539 10.2891C31.2539 4.60547 26.6484 0 20.9648 0C15.2812 0 10.6758 4.60547 10.6758 10.2891C10.6758 15.9727 15.2812 20.5664 20.9648 20.5664ZM20.9648 18.6797C16.3242 18.6797 12.5625 14.9297 12.5625 10.2891C12.5625 5.64844 16.3242 1.88672 20.9648 1.88672C25.6055 1.88672 29.3672 5.64844 29.3672 10.2891C29.3672 14.9297 25.6055 18.6797 20.9648 18.6797Z" fill="black" fill-opacity="0.85"/>
  <path d="M16.4766 14.8359L25.4414 14.8359C26.4961 14.8359 27.0469 14.3086 27.0469 13.2656L27.0469 7.95703C27.0469 6.90234 26.4961 6.375 25.4414 6.375L24.1406 6.375C23.7539 6.375 23.625 6.30469 23.3906 6.03516L22.9922 5.58984C22.7344 5.30859 22.4766 5.16797 21.9609 5.16797L19.9336 5.16797C19.418 5.16797 19.1484 5.30859 18.9023 5.58984L18.4805 6.03516C18.2578 6.28125 18.1406 6.375 17.7422 6.375L16.4766 6.375C15.4102 6.375 14.8828 6.90234 14.8828 7.95703L14.8828 13.2656C14.8828 14.3086 15.4102 14.8359 16.4766 14.8359ZM20.9766 13.5703C19.3008 13.5703 17.9531 12.2344 17.9531 10.5469C17.9531 8.88281 19.3008 7.54688 20.9766 7.54688C22.6406 7.54688 23.9766 8.88281 23.9766 10.5469C23.9766 12.2578 22.6406 13.5703 20.9766 13.5703ZM20.9648 12.7031C22.1484 12.7031 23.1094 11.7539 23.1094 10.5469C23.1094 9.36328 22.1484 8.41406 20.9648 8.41406C19.7812 8.41406 18.8203 9.36328 18.8203 10.5469C18.8203 11.7539 19.7812 12.7031 20.9648 12.7031ZM25.1719 8.96484C24.7969 8.96484 24.4922 8.66016 24.4922 8.28516C24.4922 7.91016 24.7969 7.60547 25.1719 7.60547C25.5469 7.60547 25.8516 7.91016 25.8516 8.28516C25.8516 8.66016 25.5469 8.96484 25.1719 8.96484Z" fill="black" fill-opacity="0.85"/>
 </g>
</svg>
