<?xml version="1.0" encoding="UTF-8"?>
<!--Generator: Apple Native CoreSVG 360-->
<!DOCTYPE svg
PUBLIC "-//W3C//DTD SVG 1.1//EN"
       "http://www.w3.org/Graphics/SVG/1.1/DTD/svg11.dtd">
<svg version="1.1" xmlns="http://www.w3.org/2000/svg" xmlns:xlink="http://www.w3.org/1999/xlink" viewBox="0 0 27.9844 21.5742">
 <g>
  <rect height="21.5742" opacity="0" width="27.9844" x="0" y="0"/>
  <path d="M3.67969 21.5742L13.0312 21.5742L13.0312 19.6875L3.70312 19.6875C2.53125 19.6875 1.88672 19.0664 1.88672 17.8477L1.88672 11.5898L0 11.5898L0 17.9531C0 20.3672 1.23047 21.5742 3.67969 21.5742ZM14.6367 21.5742L23.9531 21.5742C26.4141 21.5742 27.6328 20.3672 27.6328 17.9531L27.6328 11.5898L25.7461 11.5898L25.7461 17.8477C25.7461 19.0664 25.0898 19.6875 23.9297 19.6875L14.6367 19.6875ZM25.7461 9.99609L27.6328 9.99609L27.6328 3.63281C27.6328 1.21875 26.4141 0 23.9531 0L14.6367 0L14.6367 1.88672L23.9297 1.88672C25.0898 1.88672 25.7461 2.51953 25.7461 3.73828ZM0 9.99609L1.88672 9.99609L1.88672 3.73828C1.88672 2.51953 2.53125 1.88672 3.70312 1.88672L13.0312 1.88672L13.0312 0L3.67969 0C1.23047 0 0 1.21875 0 3.63281Z" fill="black" fill-opacity="0.85"/>
  <path d="M13.8398 17.3086C17.4492 17.3086 20.3672 14.3789 20.3672 10.7812C20.3672 7.17188 17.4492 4.24219 13.8398 4.24219C10.2305 4.24219 7.3125 7.17188 7.3125 10.7812C7.3125 14.3789 10.2305 17.3086 13.8398 17.3086ZM13.8398 15.7969C11.0742 15.7969 8.82422 13.5469 8.82422 10.7812C8.82422 8.01562 11.0742 5.76562 13.8398 5.76562C16.6055 5.76562 18.8555 8.01562 18.8555 10.7812C18.8555 13.5469 16.6055 15.7969 13.8398 15.7969Z" fill="black" fill-opacity="0.85"/>
  <path d="M13.8398 14.1094C15.6914 14.1094 17.1797 12.6211 17.1797 10.7812C17.1797 8.92969 15.6914 7.44141 13.8398 7.44141C12 7.44141 10.5 8.92969 10.5 10.7812C10.5 12.6211 12 14.1094 13.8398 14.1094Z" fill="black" fill-opacity="0.85"/>
 </g>
</svg>
