<?xml version="1.0" encoding="UTF-8"?>
<!--Generator: Apple Native CoreSVG 360-->
<!DOCTYPE svg
PUBLIC "-//W3C//DTD SVG 1.1//EN"
       "http://www.w3.org/Graphics/SVG/1.1/DTD/svg11.dtd">
<svg version="1.1" xmlns="http://www.w3.org/2000/svg" xmlns:xlink="http://www.w3.org/1999/xlink" viewBox="0 0 26.1914 24.6211">
 <g>
  <rect height="24.6211" opacity="0" width="26.1914" x="0" y="0"/>
  <path d="M5.06483 10.8535C3.15495 11.9508 1.875 14.0103 1.875 16.3594C1.875 19.8984 4.72266 22.7461 8.25 22.7461C9.42152 22.7461 10.5202 22.4286 11.4608 21.8691C11.8901 22.3611 12.3829 22.795 12.9239 23.1639C11.5972 24.0837 9.9865 24.6211 8.25 24.6211C3.70312 24.6211 0 20.918 0 16.3594C0 13.0946 1.91908 10.261 4.69533 8.93816C4.73641 9.60358 4.8643 10.2449 5.06483 10.8535ZM16.5 16.3594C16.5 18.4793 15.7017 20.4143 14.3822 21.8715C13.8334 21.5585 13.3398 21.1615 12.9185 20.6964C13.9718 19.5693 14.6162 18.0566 14.6234 16.393C15.2728 16.2585 15.8935 16.0459 16.4716 15.7582ZM16.0969 13.8437C15.5636 14.1579 14.9777 14.3912 14.355 14.5284C14.073 13.5883 13.5769 12.7411 12.9226 12.0424C13.3432 11.5799 13.8355 11.1844 14.3827 10.8721C15.1516 11.7199 15.7439 12.7288 16.0969 13.8437ZM12.9213 9.57893C12.3813 9.94685 11.8893 10.3793 11.4607 10.8695C10.5201 10.3123 9.42148 9.99609 8.25 9.99609C7.75464 9.99609 7.27269 10.0525 6.81234 10.1646C6.63377 9.58174 6.53906 8.96228 6.53906 8.32031C6.53906 8.31412 6.53907 8.30794 6.53999 8.30198C7.09129 8.18268 7.66363 8.12109 8.25 8.12109C9.98318 8.12109 11.5938 8.65915 12.9213 9.57893Z" fill="black" fill-opacity="0.2125"/>
  <path d="M25.8398 16.3594C25.8398 20.918 22.1367 24.6211 17.6016 24.6211C13.043 24.6211 9.33984 20.918 9.33984 16.3594C9.33984 16.1565 9.34726 15.9552 9.37041 15.7582C9.9479 16.0448 10.5678 16.2569 11.2164 16.3911C11.2322 19.9157 14.0849 22.7461 17.6016 22.7461C21.1289 22.7461 23.9648 19.8867 23.9648 16.3594C23.9648 13.9997 22.6767 11.9409 20.7669 10.847C20.9661 10.2379 21.0931 9.59634 21.1333 8.9306C23.9135 10.2503 25.8398 13.0884 25.8398 16.3594ZM19.2879 8.29688C19.289 8.3045 19.2891 8.3124 19.2891 8.32031C19.2891 8.96082 19.1952 9.57891 19.0179 10.1606C18.5636 10.0512 18.0888 9.99609 17.6016 9.99609C14.7152 9.99609 12.2761 11.9107 11.4874 14.5273C10.8623 14.3897 10.2741 14.1558 9.73891 13.8409C10.806 10.529 13.9257 8.12109 17.6016 8.12109C18.1793 8.12109 18.7436 8.1812 19.2879 8.29688Z" fill="black" fill-opacity="0.425"/>
  <path d="M12.9258 16.5703C17.4727 16.5703 21.1641 12.8789 21.1641 8.32031C21.1641 3.77344 17.4727 0.0703125 12.9258 0.0703125C8.36719 0.0703125 4.66406 3.77344 4.66406 8.32031C4.66406 12.8789 8.36719 16.5703 12.9258 16.5703ZM12.9258 14.6953C9.39844 14.6953 6.53906 11.8477 6.53906 8.32031C6.53906 4.80469 9.39844 1.94531 12.9258 1.94531C16.4297 1.94531 19.2891 4.80469 19.2891 8.32031C19.2891 11.8477 16.4414 14.6953 12.9258 14.6953Z" fill="black" fill-opacity="0.85"/>
 </g>
</svg>
