<?xml version="1.0" encoding="UTF-8"?>
<!--Generator: Apple Native CoreSVG 360-->
<!DOCTYPE svg
PUBLIC "-//W3C//DTD SVG 1.1//EN"
       "http://www.w3.org/Graphics/SVG/1.1/DTD/svg11.dtd">
<svg version="1.1" xmlns="http://www.w3.org/2000/svg" xmlns:xlink="http://www.w3.org/1999/xlink" viewBox="0 0 24.2578 23.918">
 <g>
  <rect height="23.918" opacity="0" width="24.2578" x="0" y="0"/>
  <path d="M6.24609 22.1016L12.4922 18.4922C13.8047 17.7188 15.082 16.9219 16.2891 16.0547L16.2891 22.0195L17.8711 22.0195L17.8711 11.9531C17.8711 11.3672 17.8008 10.7812 17.6719 10.2539L22.8633 13.2422L23.6484 11.8477L17.2617 8.16797C16.0547 7.47656 14.8359 6.82031 13.5938 6.23438L13.3594 6.14062L18.4688 3.19922L17.6602 1.80469L11.3906 5.42578C10.1133 6.16406 8.8125 6.98438 7.62891 7.83984L7.62891 1.88672L6.03516 1.88672L6.03516 11.9531C6.03516 12.5391 6.10547 13.1133 6.23438 13.6523L1.05469 10.6641L0.257812 12.0469L6.63281 15.7266C7.73438 16.3594 8.87109 16.9688 10.0078 17.4961L10.5469 17.7656L5.44922 20.707ZM11.9531 16.2773C9.57422 16.2773 7.62891 14.332 7.62891 11.9531C7.62891 9.5625 9.57422 7.62891 11.9531 7.62891C14.332 7.62891 16.2773 9.5625 16.2773 11.9531C16.2773 14.332 14.332 16.2773 11.9531 16.2773ZM11.9531 23.9062C18.5508 23.9062 23.9062 18.5508 23.9062 11.9531C23.9062 5.35547 18.5508 0 11.9531 0C5.35547 0 0 5.35547 0 11.9531C0 18.5508 5.35547 23.9062 11.9531 23.9062ZM11.9531 21.9141C6.44531 21.9141 1.99219 17.4609 1.99219 11.9531C1.99219 6.44531 6.44531 1.99219 11.9531 1.99219C17.4609 1.99219 21.9141 6.44531 21.9141 11.9531C21.9141 17.4609 17.4609 21.9141 11.9531 21.9141Z" fill="black" fill-opacity="0.85"/>
 </g>
</svg>
