<?xml version="1.0" encoding="UTF-8"?>
<!--Generator: Apple Native CoreSVG 360-->
<!DOCTYPE svg
PUBLIC "-//W3C//DTD SVG 1.1//EN"
       "http://www.w3.org/Graphics/SVG/1.1/DTD/svg11.dtd">
<svg version="1.1" xmlns="http://www.w3.org/2000/svg" xmlns:xlink="http://www.w3.org/1999/xlink" viewBox="0 0 27.4831 25.418">
 <g>
  <rect height="25.418" opacity="0" width="27.4831" x="0" y="0"/>
  <path d="M6.69271 0.890625C6.11849 2.21484 5.84896 3.53906 5.84896 4.82812C5.84896 9.10547 8.87239 12.6094 13.5833 12.6094C18.2943 12.6094 21.3177 9.10547 21.3177 4.82812C21.3177 3.53906 21.0482 2.21484 20.4857 0.890625C20.2279 0.328125 19.5599 0.246094 19.1146 0.703125L16.4896 3.375L14.2513 0.480469C13.888 0.0117188 13.2786 0.0117188 12.9271 0.480469L10.6888 3.375L8.05208 0.703125C7.60677 0.246094 6.9388 0.328125 6.69271 0.890625ZM12.6458 24.5391C12.6458 25.0664 13.056 25.418 13.5833 25.418C19.6419 25.418 25.2083 21.6797 27.0365 16.4297C27.2943 15.7148 27.0247 15.2578 26.263 15.2578C20.2747 15.2578 15.9622 18.7734 14.2279 23.2148L14.5326 23.6133L14.5326 11.4258L12.6458 11.4258ZM11.0404 20.0625C8.83724 17.2031 5.30989 15.2578 0.868489 15.2578C0.10677 15.2578-0.162761 15.7148 0.0950511 16.4297C1.66536 20.9766 6.02474 24.3984 11.1341 25.207C11.0755 25.0078 11.0404 24.7734 11.0404 24.5391Z" fill="black" fill-opacity="0.85"/>
 </g>
</svg>
