<?xml version="1.0" encoding="UTF-8"?>
<!--Generator: Apple Native CoreSVG 360-->
<!DOCTYPE svg
PUBLIC "-//W3C//DTD SVG 1.1//EN"
       "http://www.w3.org/Graphics/SVG/1.1/DTD/svg11.dtd">
<svg version="1.1" xmlns="http://www.w3.org/2000/svg" xmlns:xlink="http://www.w3.org/1999/xlink" viewBox="0 0 30.4453 22.4648">
 <g>
  <rect height="22.4648" opacity="0" width="30.4453" x="0" y="0"/>
  <path d="M0 11.2266C0 18.0117 4.67578 22.4531 11.7305 22.4531L18.3516 22.4531C25.4062 22.4531 30.0938 18.0117 30.0938 11.2266C30.0938 4.44141 25.4062 0 18.3516 0L11.7305 0C4.67578 0 0 4.44141 0 11.2266ZM1.88672 11.2266C1.88672 5.64844 5.88281 1.88672 11.7305 1.88672L18.3516 1.88672C24.2109 1.88672 28.207 5.64844 28.207 11.2266C28.207 16.8047 24.2109 20.5664 18.3516 20.5664L11.7305 20.5664C5.88281 20.5664 1.88672 16.8047 1.88672 11.2266Z" fill="black" fill-opacity="0.85"/>
 </g>
</svg>
