<?xml version="1.0" encoding="UTF-8"?>
<!--Generator: Apple Native CoreSVG 360-->
<!DOCTYPE svg
PUBLIC "-//W3C//DTD SVG 1.1//EN"
       "http://www.w3.org/Graphics/SVG/1.1/DTD/svg11.dtd">
<svg version="1.1" xmlns="http://www.w3.org/2000/svg" xmlns:xlink="http://www.w3.org/1999/xlink" viewBox="0 0 24.9844 24.8555">
 <g>
  <rect height="24.8555" opacity="0" width="24.9844" x="0" y="0"/>
  <path d="M8.69531 17.332L15.9375 17.332C17.5781 17.332 18.4453 16.3711 18.4453 14.8242L18.4453 12.9492L22.8867 12.9492C23.8594 12.9492 24.6328 12.375 24.6328 11.4727C24.6328 10.9219 24.3516 10.4883 23.8242 10.0312L13.7695 1.03125C13.2891 0.609375 12.8438 0.328125 12.3164 0.328125C11.7891 0.328125 11.3555 0.609375 10.8633 1.03125L0.808594 10.043C0.257812 10.5234 0 10.9219 0 11.4727C0 12.375 0.773438 12.9492 1.74609 12.9492L6.1875 12.9492L6.1875 14.8242C6.1875 16.3711 7.05469 17.332 8.69531 17.332ZM8.88281 15.5156C8.44922 15.5156 8.14453 15.2227 8.14453 14.7773L8.14453 11.5781C8.14453 11.2969 8.03906 11.1797 7.74609 11.1797L2.64844 11.1797C2.56641 11.1797 2.51953 11.1445 2.51953 11.0859C2.51953 11.0391 2.54297 11.0039 2.58984 10.9453L12.0703 2.58984C12.1641 2.49609 12.2344 2.46094 12.3164 2.46094C12.3984 2.46094 12.4688 2.49609 12.5625 2.58984L22.043 10.9453C22.0898 11.0039 22.1133 11.0391 22.1133 11.0859C22.1133 11.1445 22.0664 11.1797 21.9844 11.1797L16.8867 11.1797C16.6055 11.1797 16.4883 11.2969 16.4883 11.5781L16.4883 14.7773C16.4883 15.2109 16.1719 15.5156 15.75 15.5156ZM8.19141 24.8555L16.3359 24.8555C17.6953 24.8555 18.4688 24.1055 18.4688 22.7461L18.4688 21.0703C18.4688 19.6992 17.6953 18.9258 16.3359 18.9258L8.19141 18.9258C6.84375 18.9258 6.07031 19.7109 6.07031 21.0703L6.07031 22.7461C6.07031 24.0938 6.84375 24.8555 8.19141 24.8555ZM8.46094 23.2031C8.05078 23.2031 7.83984 22.9922 7.83984 22.582L7.83984 21.2344C7.83984 20.8242 8.05078 20.5781 8.46094 20.5781L16.0664 20.5781C16.4766 20.5781 16.6992 20.8242 16.6992 21.2344L16.6992 22.582C16.6992 22.9922 16.4766 23.2031 16.0664 23.2031Z" fill="black" fill-opacity="0.85"/>
 </g>
</svg>
