<?xml version="1.0" encoding="UTF-8"?>
<!--Generator: Apple Native CoreSVG 360-->
<!DOCTYPE svg
PUBLIC "-//W3C//DTD SVG 1.1//EN"
       "http://www.w3.org/Graphics/SVG/1.1/DTD/svg11.dtd">
<svg version="1.1" xmlns="http://www.w3.org/2000/svg" xmlns:xlink="http://www.w3.org/1999/xlink" viewBox="0 0 26.1797 25.7461">
 <g>
  <rect height="25.7461" opacity="0" width="26.1797" x="0" y="0"/>
  <path d="M7.20703 25.7461C7.78125 25.7461 8.17969 25.4414 8.89453 24.8086L12.9375 21.2109L20.4609 21.2109C23.9531 21.2109 25.8281 19.2773 25.8281 15.8438L25.8281 6.86719C25.8281 3.43359 23.9531 1.5 20.4609 1.5L5.36719 1.5C1.875 1.5 0 3.42188 0 6.86719L0 15.8438C0 19.2891 1.875 21.2109 5.36719 21.2109L5.92969 21.2109L5.92969 24.2578C5.92969 25.1602 6.38672 25.7461 7.20703 25.7461ZM7.6875 23.6016L7.6875 20.2031C7.6875 19.5703 7.44141 19.3242 6.80859 19.3242L5.36719 19.3242C3 19.3242 1.88672 18.1172 1.88672 15.832L1.88672 6.86719C1.88672 4.58203 3 3.38672 5.36719 3.38672L20.4609 3.38672C22.8164 3.38672 23.9414 4.58203 23.9414 6.86719L23.9414 15.832C23.9414 18.1172 22.8164 19.3242 20.4609 19.3242L12.8672 19.3242C12.2109 19.3242 11.8828 19.418 11.4375 19.875Z" fill="black" fill-opacity="0.85"/>
  <path d="M5.50781 12.7148L10.3359 12.7148C10.7109 12.7148 11.0156 12.4102 11.0156 12.0234C11.0156 11.6602 10.7109 11.3555 10.3359 11.3555L5.50781 11.3555C5.13281 11.3555 4.82812 11.6602 4.82812 12.0234C4.82812 12.4102 5.13281 12.7148 5.50781 12.7148ZM12.7617 12.7148L20.3438 12.7148C20.7188 12.7148 21.0117 12.4102 21.0117 12.0234C21.0117 11.6602 20.7188 11.3555 20.3438 11.3555L12.7617 11.3555C12.3867 11.3555 12.082 11.6602 12.082 12.0234C12.082 12.4102 12.3867 12.7148 12.7617 12.7148ZM5.50781 15.7734L7.5 15.7734C7.875 15.7734 8.16797 15.4805 8.16797 15.1055C8.16797 14.7188 7.875 14.4141 7.5 14.4141L5.50781 14.4141C5.13281 14.4141 4.82812 14.7188 4.82812 15.1055C4.82812 15.4805 5.13281 15.7734 5.50781 15.7734ZM9.91406 15.7734L15.7852 15.7734C16.1602 15.7734 16.4648 15.4805 16.4648 15.1055C16.4648 14.7188 16.1602 14.4141 15.7852 14.4141L9.91406 14.4141C9.53906 14.4141 9.24609 14.7188 9.24609 15.1055C9.24609 15.4805 9.53906 15.7734 9.91406 15.7734ZM18.2109 15.7734L20.3438 15.7734C20.7188 15.7734 21.0117 15.4805 21.0117 15.1055C21.0117 14.7188 20.7188 14.4141 20.3438 14.4141L18.2109 14.4141C17.8359 14.4141 17.5312 14.7188 17.5312 15.1055C17.5312 15.4805 17.8359 15.7734 18.2109 15.7734Z" fill="black" fill-opacity="0.85"/>
 </g>
</svg>
