<?xml version="1.0" encoding="UTF-8"?>
<!--Generator: Apple Native CoreSVG 360-->
<!DOCTYPE svg
PUBLIC "-//W3C//DTD SVG 1.1//EN"
       "http://www.w3.org/Graphics/SVG/1.1/DTD/svg11.dtd">
<svg version="1.1" xmlns="http://www.w3.org/2000/svg" xmlns:xlink="http://www.w3.org/1999/xlink" viewBox="0 0 30.7739 22.0195">
 <g>
  <rect height="22.0195" opacity="0" width="30.7739" x="0" y="0"/>
  <path d="M3.31663 14.0977C2.37913 12.7734 1.9221 11.2617 1.85178 9.77344C1.81663 9.11719 1.38303 8.8125 0.926002 8.82422C0.445533 8.82422-0.0114981 9.16406 0.000220604 9.73828C0.0470956 11.6484 0.738502 13.4766 1.8635 15.1055C3.00022 16.7344 4.51194 18.0117 6.25803 18.6914C6.72678 18.8789 7.13694 18.668 7.34788 18.3281C7.62913 17.8945 7.58225 17.2383 6.86741 16.9453C5.49631 16.3711 4.23069 15.4219 3.31663 14.0977ZM15.2112 20.1797C13.594 20.1797 12.094 19.7109 10.8283 18.9023C10.2307 18.5391 9.71506 18.7734 9.46897 19.1953C9.25803 19.582 9.30491 20.1094 9.75022 20.4141C11.3205 21.4453 13.219 21.9492 15.2112 21.9492C17.2033 21.9492 19.1018 21.4453 20.6721 20.4141C21.1174 20.1094 21.1526 19.582 20.9533 19.1953C20.7073 18.7734 20.1916 18.5391 19.594 18.9141C18.3283 19.7109 16.8283 20.1797 15.2112 20.1797ZM27.1057 14.0977C26.1916 15.4219 24.926 16.3711 23.5549 16.9453C22.8401 17.2383 22.7932 17.8945 23.0744 18.3281C23.2854 18.668 23.6955 18.8789 24.1643 18.6914C25.9104 18.0117 27.4221 16.7344 28.5588 15.1055C29.6838 13.4766 30.3752 11.6484 30.4221 9.73828C30.4338 9.16406 29.9651 8.82422 29.4963 8.82422C29.0393 8.8125 28.6057 9.11719 28.5705 9.77344C28.5002 11.2617 28.0432 12.7734 27.1057 14.0977Z" fill="black" fill-opacity="0.85"/>
  <path d="M6.70335 11.7305C6.25803 11.1211 6.00022 10.4883 5.91819 9.75C5.78928 8.90625 5.16819 8.69531 4.676 8.89453C4.33616 9.03516 4.06663 9.38672 4.13694 9.84375C4.25413 10.7695 4.60569 11.8359 5.22678 12.75C5.88303 13.6641 6.75022 14.3438 7.57053 14.7656C8.07444 15.0352 8.57835 14.8008 8.78928 14.4258C9.02366 14.0273 8.94163 13.4883 8.28538 13.1367C7.62913 12.7969 7.1135 12.3398 6.70335 11.7305ZM15.2112 16.0664C14.4729 16.0664 13.7932 15.9023 13.1487 15.5508C12.4807 15.2227 12.0002 15.4688 11.801 15.8906C11.6018 16.2773 11.719 16.8281 12.2112 17.0742C13.0315 17.5078 14.0979 17.8242 15.2112 17.8242C16.3244 17.8242 17.3908 17.5078 18.2112 17.0742C18.7033 16.8281 18.8205 16.2773 18.6213 15.8906C18.4221 15.4688 17.9416 15.2227 17.2737 15.5508C16.6291 15.9023 15.9494 16.0664 15.2112 16.0664ZM23.719 11.7305C23.3088 12.3398 22.7932 12.7969 22.1369 13.1367C21.4807 13.4883 21.3987 14.0273 21.633 14.4258C21.844 14.8008 22.3479 15.0352 22.8518 14.7656C23.6721 14.3438 24.5276 13.6641 25.1955 12.75C25.8166 11.8359 26.1682 10.7695 26.2854 9.84375C26.3557 9.38672 26.0862 9.03516 25.7463 8.89453C25.2541 8.69531 24.633 8.90625 24.5041 9.75C24.4221 10.4883 24.1643 11.1211 23.719 11.7305Z" fill="black" fill-opacity="0.85"/>
  <path d="M15.2112 8.0625C18.2346 8.0625 19.1955 7.61719 18.9846 6.22266L18.8557 5.42578C18.6799 4.3125 17.8127 3.96094 15.2112 3.96094C12.6096 3.96094 11.7424 4.3125 11.5666 5.42578L11.4494 6.22266C11.2385 7.61719 12.1877 8.0625 15.2112 8.0625ZM21.7385 0L19.8869 0L19.8869 8.34375C19.8869 9.66797 18.5744 10.1836 15.2112 10.1836C11.8596 10.1836 10.5471 9.66797 10.5471 8.34375L10.5471 0L8.69553 0L8.69553 8.40234C8.69553 10.9922 10.6994 12.0117 15.2112 12.0117C19.7112 12.0117 21.7385 10.9922 21.7385 8.40234Z" fill="black" fill-opacity="0.85"/>
 </g>
</svg>
