<?xml version="1.0" encoding="UTF-8"?>
<!--Generator: Apple Native CoreSVG 360-->
<!DOCTYPE svg
PUBLIC "-//W3C//DTD SVG 1.1//EN"
       "http://www.w3.org/Graphics/SVG/1.1/DTD/svg11.dtd">
<svg version="1.1" xmlns="http://www.w3.org/2000/svg" xmlns:xlink="http://www.w3.org/1999/xlink" viewBox="0 0 27.8906 20.0273">
 <g>
  <rect height="20.0273" opacity="0" width="27.8906" x="0" y="0"/>
  <path d="M27.5391 3.64453L27.5391 16.4062C27.5391 18.8203 26.3203 20.0273 23.8594 20.0273L3.67969 20.0273C1.23047 20.0273 0 18.8203 0 16.4062L0 3.64453C0 1.23047 1.23047 0.0117188 3.67969 0.0117188L23.8594 0.0117188C26.3203 0.0117188 27.5391 1.23047 27.5391 3.64453ZM10.7344 5.02734C9.98438 5.12109 9.41016 5.49609 9.10547 6.12891C8.91797 6.53906 8.55469 7.59375 8.35547 8.61328L7.875 9.22266C7.34766 9.89062 7.16016 10.4297 7.16016 11.3555L7.16016 14.5781C7.16016 15 7.48828 15.3164 7.89844 15.3164L8.56641 15.3164C8.98828 15.3164 9.31641 15 9.31641 14.5781L9.31641 13.6523C10.5586 13.7227 12.3516 13.7695 13.793 13.7695C15.2344 13.7695 17.0156 13.7227 18.2578 13.6523L18.2578 14.5781C18.2578 15 18.5859 15.3164 18.9961 15.3164L19.6641 15.3164C20.0859 15.3164 20.4141 15 20.4141 14.5781L20.4141 11.3555C20.4141 10.4297 20.2266 9.89062 19.6992 9.22266L19.2305 8.61328C19.0078 7.59375 18.6562 6.53906 18.457 6.12891C18.1523 5.49609 17.5781 5.13281 16.8398 5.02734C16.4531 4.98047 15.2344 4.94531 13.793 4.94531C12.3398 4.94531 11.1094 4.98047 10.7344 5.02734ZM10.6406 11.3672C10.6406 11.8711 10.2539 12.2695 9.75 12.2695C9.23438 12.2695 8.83594 11.8711 8.83594 11.3672C8.83594 10.8633 9.23438 10.4766 9.75 10.4766C10.2539 10.4766 10.6406 10.8633 10.6406 11.3672ZM18.7266 11.3672C18.7266 11.8711 18.3281 12.2695 17.8242 12.2695C17.3203 12.2695 16.9219 11.8711 16.9219 11.3672C16.9219 10.8633 17.3203 10.4766 17.8242 10.4766C18.3281 10.4766 18.7266 10.8633 18.7266 11.3672ZM15.9141 11.4141C15.9141 11.7891 15.6445 12.0586 15.2578 12.0586L12.3047 12.0586C11.9297 12.0586 11.6602 11.7891 11.6602 11.4141C11.6602 11.0273 11.9297 10.7578 12.3047 10.7578L15.2578 10.7578C15.6445 10.7578 15.9141 11.0273 15.9141 11.4141ZM16.6523 6.07031C16.9453 6.10547 17.0859 6.21094 17.25 6.46875C17.4258 6.75 17.6602 7.5 17.7891 8.08594C17.8359 8.26172 17.7656 8.34375 17.5547 8.33203C16.6875 8.26172 15.668 8.21484 13.793 8.21484C11.9062 8.21484 10.875 8.26172 10.0195 8.33203C9.80859 8.34375 9.73828 8.26172 9.78516 8.08594C9.90234 7.5 10.1602 6.76172 10.3125 6.46875C10.4766 6.21094 10.6172 6.10547 10.9102 6.07031C11.3086 6.01172 12.1992 5.98828 13.793 5.98828C15.375 5.98828 16.2539 6 16.6523 6.07031Z" fill="black" fill-opacity="0.85"/>
 </g>
</svg>
