<?xml version="1.0" encoding="UTF-8"?>
<!--Generator: Apple Native CoreSVG 360-->
<!DOCTYPE svg
PUBLIC "-//W3C//DTD SVG 1.1//EN"
       "http://www.w3.org/Graphics/SVG/1.1/DTD/svg11.dtd">
<svg version="1.1" xmlns="http://www.w3.org/2000/svg" xmlns:xlink="http://www.w3.org/1999/xlink" viewBox="0 0 26.5058 23.8008">
 <g>
  <rect height="23.8008" opacity="0" width="26.5058" x="0" y="0"/>
  <path d="M3.14549 18.082L3.14549 23.0508C3.14549 23.4492 2.85252 23.7422 2.4658 23.7422L1.83299 23.7422C1.43455 23.7422 1.14158 23.4492 1.14158 23.0508L1.14158 18.082C1.14158 17.6836 1.43455 17.3906 1.83299 17.3906L2.4658 17.3906C2.85252 17.3906 3.14549 17.6836 3.14549 18.082ZM25.0127 18.082L25.0127 23.0508C25.0127 23.4375 24.7197 23.7305 24.3213 23.7305L23.7002 23.7305C23.3017 23.7305 23.0088 23.4375 23.0088 23.0508L23.0088 18.082C23.0088 17.6836 23.3017 17.3906 23.7002 17.3906L24.3213 17.3906C24.7197 17.3906 25.0127 17.6836 25.0127 18.082ZM3.14549 9.38672L3.14549 14.3438C3.14549 14.7422 2.85252 15.0352 2.4658 15.0352L1.83299 15.0352C1.43455 15.0352 1.14158 14.7422 1.14158 14.3438L1.14158 9.38672C1.14158 9 1.43455 8.70703 1.83299 8.70703L2.4658 8.70703C2.85252 8.70703 3.14549 9 3.14549 9.38672ZM3.14549 0.691406L3.14549 5.66016C3.14549 6.05859 2.85252 6.35156 2.4658 6.35156L1.83299 6.35156C1.43455 6.35156 1.14158 6.05859 1.14158 5.66016L1.14158 0.691406C1.14158 0.292969 1.43455 0 1.83299 0L2.4658 0C2.85252 0 3.14549 0.292969 3.14549 0.691406ZM25.0127 0.691406L25.0127 4.53181C24.4863 3.99798 23.8155 3.48501 23.0088 3.00633L23.0088 0.691406C23.0088 0.292969 23.3017 0 23.7002 0L24.3213 0C24.7197 0 25.0127 0.292969 25.0127 0.691406Z" fill="black" fill-opacity="0.85"/>
  <path d="M12.1572 21.2695C15.7549 23.332 17.8408 23.4609 19.0361 21.3984L26.0322 9.25781C27.2744 7.125 26.0322 4.73438 22.7861 2.87109C19.5635 1.01953 16.8799 1.125 15.6494 3.25781L8.64158 15.3984C7.44627 17.4609 8.58299 19.207 12.1572 21.2695ZM13.001 19.8398C10.3174 18.293 9.50877 17.2617 10.1299 16.1836L17.1025 4.10156C17.8174 2.87109 19.5166 2.91797 21.9424 4.3125C24.3916 5.73047 25.2939 7.18359 24.5791 8.42578L17.5947 20.5078C16.9853 21.5742 15.6846 21.3867 13.001 19.8398ZM18.3213 10.6055C18.9541 10.9805 19.9971 11.6602 20.3486 11.8711C20.8994 12.1875 21.2978 12.1172 21.6963 11.543L22.5635 10.3008C23.2783 9.28125 22.8096 8.46094 20.3721 7.05469C17.958 5.66016 17.0088 5.66016 16.4697 6.79688L15.8369 8.16797C15.5556 8.77734 15.6611 9.16406 16.2353 9.48047C16.5869 9.70312 17.6533 10.2188 18.3213 10.6055ZM13.9736 18.1406C16.3877 19.5352 17.3721 19.6172 17.8408 18.4102L18.1103 17.7188C18.4971 16.7461 17.958 16.0664 15.8603 14.8711C13.7861 13.6641 12.9189 13.5352 12.2744 14.3555L11.8174 14.9297C11.0088 15.9492 11.5713 16.7461 13.9736 18.1406ZM14.1494 7.67578L15.2627 5.75391L14.0791 5.0625C13.6221 4.79297 13.0713 4.93359 12.8135 5.37891L12.6025 5.73047C12.3447 6.16406 12.5088 6.73828 12.9541 6.99609ZM22.9619 12.7617L24.1455 13.4531C24.6025 13.7227 25.1767 13.5703 25.4228 13.1367L25.6221 12.7734C25.8681 12.3281 25.7275 11.7773 25.2588 11.5078L24.0752 10.8281Z" fill="black" fill-opacity="0.85"/>
 </g>
</svg>
