<?xml version="1.0" encoding="UTF-8"?>
<!--Generator: Apple Native CoreSVG 360-->
<!DOCTYPE svg
PUBLIC "-//W3C//DTD SVG 1.1//EN"
       "http://www.w3.org/Graphics/SVG/1.1/DTD/svg11.dtd">
<svg version="1.1" xmlns="http://www.w3.org/2000/svg" xmlns:xlink="http://www.w3.org/1999/xlink" viewBox="0 0 30.7739 23.1445">
 <g>
  <rect height="23.1445" opacity="0" width="30.7739" x="0" y="0"/>
  <path d="M3.31663 7.83984C4.23069 6.51562 5.49631 5.56641 6.86741 4.99219C7.58225 4.69922 7.62913 4.04297 7.34788 3.60938C7.13694 3.28125 6.72678 3.07031 6.25803 3.24609C4.51194 3.9375 3.00022 5.20312 1.8635 6.83203C0.738502 8.47266 0.0470956 10.3008 0.000220604 12.1992C-0.0114981 12.7734 0.445533 13.125 0.926002 13.125C1.38303 13.1367 1.81663 12.8203 1.85178 12.1641C1.9221 10.6875 2.37913 9.17578 3.31663 7.83984ZM15.2112 1.75781C16.8283 1.75781 18.3283 2.23828 19.594 3.03516C20.1916 3.41016 20.7073 3.16406 20.9533 2.75391C21.1526 2.35547 21.1174 1.83984 20.6721 1.53516C19.1018 0.492188 17.2033 0 15.2112 0C13.219 0 11.3205 0.492188 9.75022 1.53516C9.30491 1.83984 9.25803 2.35547 9.46897 2.75391C9.71506 3.16406 10.2307 3.41016 10.8283 3.03516C12.094 2.23828 13.594 1.75781 15.2112 1.75781ZM27.1057 7.83984C28.0432 9.17578 28.5002 10.6875 28.5705 12.1641C28.6057 12.8203 29.0393 13.1367 29.4963 13.125C29.9651 13.125 30.4338 12.7734 30.4221 12.1992C30.3752 10.3008 29.6838 8.47266 28.5588 6.83203C27.4221 5.20312 25.9104 3.9375 24.1643 3.24609C23.6955 3.07031 23.2854 3.28125 23.0744 3.60938C22.7932 4.04297 22.8401 4.69922 23.5549 4.99219C24.926 5.56641 26.1916 6.51562 27.1057 7.83984Z" fill="black" fill-opacity="0.85"/>
  <path d="M6.70335 10.207C7.1135 9.60938 7.62913 9.15234 8.28538 8.8125C8.94163 8.46094 9.02366 7.92188 8.78928 7.52344C8.57835 7.13672 8.07444 6.91406 7.57053 7.18359C6.75022 7.60547 5.88303 8.28516 5.22678 9.19922C4.60569 10.1133 4.25413 11.168 4.13694 12.0938C4.06663 12.5508 4.33616 12.9141 4.676 13.0547C5.16819 13.2539 5.78928 13.043 5.91819 12.1992C6.00022 11.4609 6.25803 10.8164 6.70335 10.207ZM15.2112 5.88281C15.9494 5.88281 16.6291 6.03516 17.2737 6.39844C17.9416 6.71484 18.4221 6.46875 18.6213 6.05859C18.8205 5.66016 18.7033 5.12109 18.2112 4.86328C17.3908 4.42969 16.3244 4.11328 15.2112 4.11328C14.0979 4.11328 13.0315 4.42969 12.2112 4.86328C11.719 5.12109 11.6018 5.66016 11.801 6.05859C12.0002 6.46875 12.4807 6.72656 13.1487 6.39844C13.7932 6.03516 14.4729 5.88281 15.2112 5.88281ZM23.719 10.207C24.1643 10.8164 24.4221 11.4609 24.5041 12.1992C24.633 13.043 25.2541 13.2539 25.7463 13.0547C26.0862 12.9141 26.3557 12.5508 26.2854 12.0938C26.1682 11.168 25.8166 10.1133 25.1955 9.19922C24.5276 8.28516 23.6721 7.60547 22.8518 7.18359C22.3479 6.91406 21.844 7.13672 21.633 7.52344C21.3987 7.92188 21.4807 8.46094 22.1369 8.8125C22.7932 9.15234 23.3088 9.60938 23.719 10.207Z" fill="black" fill-opacity="0.85"/>
  <path d="M8.69553 23.1211L10.5471 23.1211L10.5471 13.7109C10.5471 12.1758 12.176 11.3086 15.2112 11.3086C18.258 11.3086 19.8869 12.1758 19.8869 13.7109L19.8869 23.1211L21.7385 23.1211L21.7385 13.7109C21.7385 11.0391 19.2658 9.45703 15.2112 9.45703C11.1565 9.45703 8.69553 11.0391 8.69553 13.7109ZM15.2112 19.1719C16.0666 19.1719 17.344 19.2422 17.7776 19.2422C18.4924 19.2422 18.8088 18.9492 18.8674 18.2109L19.0198 16.5703C19.1369 15.2227 18.2346 14.707 15.2112 14.707C12.1877 14.707 11.2971 15.2227 11.4143 16.5703L11.5549 18.2109C11.6135 18.9492 11.9416 19.2422 12.6448 19.2422C13.0901 19.2422 14.4143 19.1719 15.2112 19.1719ZM9.69163 18.6914L9.69163 16.2539L8.19163 16.2539C7.61741 16.2539 7.16038 16.6875 7.16038 17.25L7.16038 17.6953C7.16038 18.2461 7.61741 18.6914 8.19163 18.6914ZM20.7307 18.6914L22.2307 18.6914C22.8166 18.6914 23.2619 18.2461 23.2619 17.6953L23.2619 17.25C23.2619 16.6875 22.8166 16.2539 22.2307 16.2539L20.7307 16.2539Z" fill="black" fill-opacity="0.85"/>
 </g>
</svg>
