<?xml version="1.0" encoding="UTF-8"?>
<!--Generator: Apple Native CoreSVG 360-->
<!DOCTYPE svg
PUBLIC "-//W3C//DTD SVG 1.1//EN"
       "http://www.w3.org/Graphics/SVG/1.1/DTD/svg11.dtd">
<svg version="1.1" xmlns="http://www.w3.org/2000/svg" xmlns:xlink="http://www.w3.org/1999/xlink" viewBox="0 0 33.082 30.2695">
 <g>
  <rect height="30.2695" opacity="0" width="33.082" x="0" y="0"/>
  <path d="M16.3594 30.2578C22.2773 30.2578 24.8086 28.957 24.8086 25.7695L24.8086 5.42578C24.8086 2.00391 21.6914 0 16.3594 0C11.0391 0 7.93359 2.00391 7.93359 5.42578L7.93359 25.7695C7.93359 28.957 10.4531 30.2578 16.3594 30.2578ZM16.3594 28.3125C11.8359 28.3125 9.89062 27.5508 9.89062 25.6758L9.89062 5.42578C9.89062 3.23438 12.2695 1.95703 16.3594 1.95703C20.4609 1.95703 22.8516 3.23438 22.8516 5.42578L22.8516 25.6758C22.8516 27.5508 20.8945 28.3125 16.3594 28.3125ZM16.3711 12.5859C17.4141 12.5859 19.1953 12.668 19.7812 12.668C20.6719 12.668 21.0469 12.3281 21.1289 11.4141L21.3281 9.21094C21.4688 7.52344 20.2852 6.84375 16.3711 6.84375C12.457 6.84375 11.2617 7.52344 11.4141 9.21094L11.6133 11.4141C11.6836 12.3281 12.0703 12.668 12.9492 12.668C13.5469 12.668 15.2578 12.5859 16.3711 12.5859ZM16.3711 25.0898C20.3086 25.0898 21.5156 24.5039 21.2695 22.7812L21.1172 21.7148C20.9297 20.3086 19.7578 19.8398 16.3711 19.8398C12.9727 19.8398 11.8008 20.3086 11.6133 21.7148L11.4609 22.7812C11.2266 24.5039 12.4219 25.0898 16.3711 25.0898ZM8.73047 11.8125L8.73047 9.07031L6.97266 9.07031C6.35156 9.07031 5.85938 9.53906 5.85938 10.1484L5.85938 10.7227C5.85938 11.332 6.35156 11.8125 6.97266 11.8125ZM24 11.8125L25.7578 11.8125C26.3906 11.8125 26.8711 11.332 26.8711 10.7227L26.8711 10.1484C26.8711 9.53906 26.3906 9.07031 25.7578 9.07031L24 9.07031Z" fill="black" fill-opacity="0.85"/>
  <path d="M33.082 9.21094L33.082 3.99609C33.082 3.375 32.5781 3.08203 32.0273 3.42188L27.8672 5.97656C27.3398 6.29297 27.3281 6.91406 27.8672 7.24219L32.0273 9.77344C32.5781 10.1133 33.082 9.84375 33.082 9.21094Z" fill="black" fill-opacity="0.85"/>
 </g>
</svg>
