<?xml version="1.0" encoding="UTF-8"?>
<!--Generator: Apple Native CoreSVG 360-->
<!DOCTYPE svg
PUBLIC "-//W3C//DTD SVG 1.1//EN"
       "http://www.w3.org/Graphics/SVG/1.1/DTD/svg11.dtd">
<svg version="1.1" xmlns="http://www.w3.org/2000/svg" xmlns:xlink="http://www.w3.org/1999/xlink" viewBox="0 0 27.8906 20.0273">
 <g>
  <rect height="20.0273" opacity="0" width="27.8906" x="0" y="0"/>
  <path d="M3.67969 20.0273L23.8594 20.0273C26.3203 20.0273 27.5391 18.8203 27.5391 16.4062L27.5391 3.64453C27.5391 1.23047 26.3203 0.0117188 23.8594 0.0117188L3.67969 0.0117188C1.23047 0.0117188 0 1.23047 0 3.64453L0 16.4062C0 18.8203 1.23047 20.0273 3.67969 20.0273ZM3.70312 18.1406C2.53125 18.1406 1.88672 17.5195 1.88672 16.3008L1.88672 3.75C1.88672 2.53125 2.53125 1.89844 3.70312 1.89844L23.8359 1.89844C24.9844 1.89844 25.6523 2.53125 25.6523 3.75L25.6523 16.3008C25.6523 17.5195 24.9844 18.1406 23.8359 18.1406Z" fill="black" fill-opacity="0.85"/>
  <path d="M7.35938 14.3555C7.35938 14.7539 7.67578 15.0703 8.07422 15.0703L8.71875 15.0703C9.12891 15.0703 9.44531 14.7539 9.44531 14.3555L9.44531 13.4531C10.6523 13.5234 12.3984 13.5703 13.793 13.5703C15.1875 13.5703 16.9219 13.5234 18.1289 13.4531L18.1289 14.3555C18.1289 14.7539 18.4453 15.0703 18.8438 15.0703L19.4883 15.0703C19.8984 15.0703 20.2148 14.7539 20.2148 14.3555L20.2148 11.2266C20.2148 10.3125 20.0273 9.79688 19.5234 9.15234L19.0664 8.55469C18.8555 7.57031 18.5039 6.55078 18.3164 6.15234C18.0234 5.53125 17.4609 5.17969 16.7461 5.08594C16.3711 5.03906 15.1875 5.00391 13.793 5.00391C12.3867 5.00391 11.1914 5.03906 10.8281 5.08594C10.1016 5.16797 9.53906 5.53125 9.24609 6.15234C9.07031 6.55078 8.70703 7.57031 8.51953 8.55469L8.05078 9.15234C7.54688 9.79688 7.35938 10.3125 7.35938 11.2266ZM9.90234 8.05078C10.0195 7.47656 10.2656 6.76172 10.418 6.46875C10.5703 6.22266 10.7109 6.12891 10.9922 6.09375C11.3789 6.03516 12.2461 6 13.793 6C15.3281 6 16.1836 6.02344 16.5703 6.09375C16.8516 6.12891 16.9922 6.22266 17.1445 6.46875C17.3203 6.75 17.543 7.47656 17.6719 8.05078C17.7305 8.22656 17.6484 8.30859 17.4492 8.28516C16.6055 8.22656 15.6094 8.17969 13.793 8.17969C11.9648 8.17969 10.957 8.22656 10.125 8.28516C9.92578 8.30859 9.85547 8.22656 9.90234 8.05078ZM8.98828 11.2383C8.98828 10.7344 9.375 10.3711 9.86719 10.3711C10.3594 10.3711 10.7344 10.7344 10.7344 11.2383C10.7344 11.7305 10.3594 12.1055 9.86719 12.1055C9.375 12.1055 8.98828 11.7305 8.98828 11.2383ZM11.7305 11.2734C11.7305 10.8984 11.9883 10.6523 12.3516 10.6523L15.2109 10.6523C15.5859 10.6523 15.8438 10.8984 15.8438 11.2734C15.8438 11.6484 15.5859 11.9062 15.2109 11.9062L12.3516 11.9062C11.9883 11.9062 11.7305 11.6484 11.7305 11.2734ZM16.8281 11.2383C16.8281 10.7344 17.2148 10.3711 17.707 10.3711C18.1875 10.3711 18.5742 10.7344 18.5742 11.2383C18.5742 11.7305 18.1875 12.1055 17.707 12.1055C17.2148 12.1055 16.8281 11.7305 16.8281 11.2383Z" fill="black" fill-opacity="0.85"/>
 </g>
</svg>
