<?xml version="1.0" encoding="UTF-8"?>
<!--Generator: Apple Native CoreSVG 360-->
<!DOCTYPE svg
PUBLIC "-//W3C//DTD SVG 1.1//EN"
       "http://www.w3.org/Graphics/SVG/1.1/DTD/svg11.dtd">
<svg version="1.1" xmlns="http://www.w3.org/2000/svg" xmlns:xlink="http://www.w3.org/1999/xlink" viewBox="0 0 32.3438 26.2617">
 <g>
  <rect height="26.2617" opacity="0" width="32.3438" x="0" y="0"/>
  <path d="M31.9922 11.918L31.9922 9.96094C31.5 10.207 30.9961 10.4766 30.4805 10.8047L26.2031 13.5L21.5156 14.0859C18.5859 14.4375 16.8164 16.2539 16.8164 18.75L16.8164 20.0977C16.8164 22.5117 17.8828 23.5898 20.1914 23.5898L21.6914 23.5898L21.6914 21.8906L20.1914 21.8906C19.043 21.8906 18.5156 21.3164 18.5156 20.0273L18.5156 18.75C18.5156 17.1797 19.6875 16.0078 21.7266 15.75L25.957 15.2344C26.6016 15.1641 27.0234 15.0117 27.4688 14.7422L31.3945 12.2695C31.5938 12.1406 31.793 12.0234 31.9922 11.918ZM31.9922 23.5898L31.9922 21.8906L27.2578 21.8906L27.2578 23.5898ZM24.5977 25.8867C26.707 25.8867 28.3594 24.2344 28.3594 22.125C28.3594 20.0156 26.707 18.3633 24.5977 18.3633C22.4883 18.3633 20.8477 20.0156 20.8477 22.125C20.8477 24.2344 22.4883 25.8867 24.5977 25.8867ZM24.5977 24.2812C23.4023 24.2812 22.4414 23.332 22.4414 22.125C22.4414 20.9062 23.4023 19.957 24.5977 19.957C25.8164 19.957 26.7773 20.9062 26.7773 22.125C26.7773 23.332 25.8164 24.2812 24.5977 24.2812ZM6.51562 25.8867C8.625 25.8867 10.2656 24.2344 10.2656 22.125C10.2656 20.0156 8.625 18.3633 6.51562 18.3633C4.39453 18.3633 2.74219 20.0156 2.74219 22.125C2.74219 24.2344 4.39453 25.8867 6.51562 25.8867ZM6.51562 24.2812C5.29688 24.2812 4.33594 23.332 4.33594 22.125C4.33594 20.9062 5.29688 19.957 6.51562 19.957C7.71094 19.957 8.67188 20.9062 8.67188 22.125C8.67188 23.332 7.71094 24.2812 6.51562 24.2812ZM0 21.8906L0 23.5898L3.99609 23.5898L3.99609 21.8906ZM9.39844 23.5898L10.9219 23.5898C13.2539 23.5898 14.2852 22.5 14.2852 20.0273L14.2852 17.1094C14.2852 15.1406 13.3359 13.8984 11.332 13.2539L9.65625 12.7148C7.46484 10.8281 4.59375 8.76562 0.808594 8.76562L0 8.76562L0 10.4766L0.808594 10.4766C3.48047 10.4766 5.63672 11.5312 8.30859 13.875C8.8125 14.3086 9.07031 14.4258 9.70312 14.6133L10.8164 14.9883C12.0352 15.3633 12.5859 16.0078 12.5859 17.1094L12.5859 20.0273C12.5859 21.3164 12.0703 21.8906 10.9219 21.8906L9.39844 21.8906Z" fill="black" fill-opacity="0.85"/>
  <path d="M15.9961 8.15625C16.5586 8.15625 16.8867 7.83984 16.8984 7.23047L17.0625 1.05469C17.0742 0.457031 16.6055 0 15.9844 0C15.3516 0 14.9062 0.445312 14.918 1.04297L15.0703 7.23047C15.082 7.82812 15.4102 8.15625 15.9961 8.15625ZM15.9961 11.9648C16.6758 11.9648 17.2617 11.4375 17.2617 10.7461C17.2617 10.0664 16.6875 9.53906 15.9961 9.53906C15.3047 9.53906 14.7305 10.0781 14.7305 10.7461C14.7305 11.4258 15.3164 11.9648 15.9961 11.9648Z" fill="black" fill-opacity="0.85"/>
 </g>
</svg>
