<?xml version="1.0" encoding="UTF-8"?>
<!--Generator: Apple Native CoreSVG 360-->
<!DOCTYPE svg
PUBLIC "-//W3C//DTD SVG 1.1//EN"
       "http://www.w3.org/Graphics/SVG/1.1/DTD/svg11.dtd">
<svg version="1.1" xmlns="http://www.w3.org/2000/svg" xmlns:xlink="http://www.w3.org/1999/xlink" viewBox="0 0 22.1367 19.0195">
 <g>
  <rect height="19.0195" opacity="0" width="22.1367" x="0" y="0"/>
  <path d="M21.7852 2.00391L21.7852 0.117188C19.0078 0.316406 17.3203 0.925781 15.1406 2.29688L10.3945 5.27344L5.20312 5.90625C1.95703 6.30469 0 8.32031 0 11.0859L0 12.5859C0 15.2578 1.18359 16.4531 3.72656 16.4531L5.40234 16.4531L5.40234 14.5664L3.72656 14.5664C2.46094 14.5664 1.88672 13.9219 1.88672 12.5156L1.88672 11.0859C1.88672 9.35156 3.17578 8.03906 5.4375 7.76953L10.125 7.19531C10.8281 7.10156 11.3086 6.9375 11.8008 6.64453L16.1484 3.90234C18.0469 2.71875 19.4297 2.19141 21.7852 2.00391ZM21.7852 16.4531L21.7852 14.5664L11.5547 14.5664L11.5547 16.4531ZM8.625 18.9844C10.957 18.9844 12.7852 17.1562 12.7852 14.8242C12.7852 12.4805 10.957 10.6523 8.625 10.6523C6.28125 10.6523 4.45312 12.4805 4.45312 14.8242C4.45312 17.1562 6.28125 18.9844 8.625 18.9844ZM8.625 17.2148C7.27734 17.2148 6.22266 16.1602 6.22266 14.8242C6.22266 13.4766 7.27734 12.4219 8.625 12.4219C9.96094 12.4219 11.0156 13.4766 11.0156 14.8242C11.0156 16.1602 9.96094 17.2148 8.625 17.2148ZM0.867188 1.6875L4.60547 1.6875C5.03906 1.6875 5.37891 1.79297 5.66016 2.07422L9.82031 6.22266L11.4141 5.34375L7.03125 0.960938C6.35156 0.28125 5.46094 0 4.39453 0L0.867188 0C0.328125 0 0 0.328125 0 0.832031C0 1.33594 0.328125 1.6875 0.867188 1.6875Z" fill="black" fill-opacity="0.85"/>
 </g>
</svg>
