<?xml version="1.0" encoding="UTF-8"?>
<!--Generator: Apple Native CoreSVG 360-->
<!DOCTYPE svg
PUBLIC "-//W3C//DTD SVG 1.1//EN"
       "http://www.w3.org/Graphics/SVG/1.1/DTD/svg11.dtd">
<svg version="1.1" xmlns="http://www.w3.org/2000/svg" xmlns:xlink="http://www.w3.org/1999/xlink" viewBox="0 0 39.8098 30.1827">
 <g>
  <rect height="30.1827" opacity="0" width="39.8098" x="0" y="0"/>
  <path d="M10.8639 22.2339L12.0358 21.5542L11.2741 20.23L10.1022 20.9097C9.21155 21.4253 8.54359 21.2027 7.98109 20.2183L7.39515 19.2222C6.69202 17.9917 7.06702 16.562 8.54359 15.4488L11.6022 13.1519C12.0592 12.8003 12.3287 12.4956 12.5514 12.0855L14.4967 8.40578C15.6569 6.2261 16.653 5.2886 19.7584 3.48391L21.0006 2.76906C23.1569 1.52688 25.3248 1.33938 28.5241 1.97219C29.0983 2.07766 29.3678 2.0425 29.942 1.92531L30.9733 1.70266C32.0866 1.45656 32.8014 1.70266 33.3053 2.55813L34.6178 4.83156C35.192 5.82766 35.0514 6.50735 34.1608 7.02297L32.9655 7.70266L33.7272 9.02688L34.9225 8.34719C36.7272 7.30422 37.0436 5.98 35.942 4.06985L34.6295 1.79641C33.7389 0.272971 32.4498-0.266092 30.5983 0.120627L29.0514 0.448752C26.5553-0.0317168 23.3326-0.336404 20.2389 1.44485L18.9967 2.17141C15.6451 4.105 14.4147 5.25344 13.1373 7.67922L11.0162 11.687L7.62952 14.2417C5.50843 15.8355 4.95765 18.0386 6.08265 19.9839L6.6803 21.0269C7.75843 22.9019 9.07093 23.2652 10.8639 22.2339ZM16.36 19.0581L29.5319 11.4527L28.7701 10.1284L15.5866 17.7456ZM15.317 22.0347C16.9694 21.0855 17.5084 19.0581 16.5592 17.4175C15.61 15.7769 13.5944 15.2378 11.9537 16.187C10.3014 17.1363 9.76234 19.1519 10.7116 20.7925C11.6608 22.4331 13.6764 22.9839 15.317 22.0347ZM14.6022 20.7925C13.6647 21.3316 12.4928 21.0152 11.9537 20.0777C11.4147 19.1402 11.7194 17.9683 12.6686 17.4292C13.6061 16.8902 14.778 17.1948 15.317 18.1323C15.8561 19.0816 15.5514 20.2417 14.6022 20.7925ZM32.5201 12.1089C34.1608 11.1597 34.6998 9.13235 33.7506 7.49172C32.8014 5.8511 30.7858 5.31203 29.1451 6.26125C27.4928 7.21047 26.9537 9.2261 27.903 10.8667C28.8522 12.5073 30.8678 13.0581 32.5201 12.1089ZM31.7936 10.8667C30.8561 11.4058 29.6842 11.0894 29.1451 10.1519C28.6061 9.21438 28.9225 8.0425 29.86 7.50344C30.7975 6.96438 31.9694 7.26906 32.5084 8.20656C33.0475 9.15578 32.7428 10.3159 31.7936 10.8667Z" fill="black" fill-opacity="0.85"/>
  <path d="M7.3014 29.605C7.58265 30.0738 8.15687 30.2027 8.59046 29.9683L39.0006 12.4136C39.4342 12.1792 39.5983 11.5933 39.3405 11.148C39.0709 10.6792 38.485 10.5386 38.0514 10.7847L7.64124 28.3394C7.21937 28.5738 7.0553 29.1597 7.3014 29.605Z" fill="black" fill-opacity="0.85"/>
  <path d="M5.27405 23.8628L2.82484 19.5855C2.41468 18.8706 1.58265 19.0581 1.34827 19.7495L0.0592105 23.3589C-0.116571 23.8628 0.106086 24.2613 0.633429 24.355L4.39515 25.0581C5.13343 25.1988 5.69593 24.5659 5.27405 23.8628Z" fill="black" fill-opacity="0.85"/>
 </g>
</svg>
