<?xml version="1.0" encoding="UTF-8"?>
<!--Generator: Apple Native CoreSVG 360-->
<!DOCTYPE svg
PUBLIC "-//W3C//DTD SVG 1.1//EN"
       "http://www.w3.org/Graphics/SVG/1.1/DTD/svg11.dtd">
<svg version="1.1" xmlns="http://www.w3.org/2000/svg" xmlns:xlink="http://www.w3.org/1999/xlink" viewBox="0 0 32.3438 27.5136">
 <g>
  <rect height="27.5136" opacity="0" width="32.3438" x="0" y="0"/>
  <path d="M31.9922 12.5439L31.9922 10.5869C31.5 10.833 30.9961 11.1025 30.4805 11.4306L26.2031 14.1259L21.5156 14.7119C18.5859 15.0634 16.8164 16.8798 16.8164 19.3759L16.8164 20.7236C16.8164 23.1377 17.8828 24.2158 20.1914 24.2158L21.6914 24.2158L21.6914 22.5166L20.1914 22.5166C19.043 22.5166 18.5156 21.9423 18.5156 20.6533L18.5156 19.3759C18.5156 17.8056 19.6875 16.6337 21.7266 16.3759L25.957 15.8603C26.6016 15.79 27.0234 15.6377 27.4688 15.3681L31.3945 12.8955C31.5938 12.7666 31.793 12.6494 31.9922 12.5439ZM31.9922 24.2158L31.9922 22.5166L27.2578 22.5166L27.2578 24.2158ZM24.5977 26.5127C26.707 26.5127 28.3594 24.8603 28.3594 22.7509C28.3594 20.6416 26.707 18.9892 24.5977 18.9892C22.4883 18.9892 20.8477 20.6416 20.8477 22.7509C20.8477 24.8603 22.4883 26.5127 24.5977 26.5127ZM24.5977 24.9072C23.4023 24.9072 22.4414 23.958 22.4414 22.7509C22.4414 21.5322 23.4023 20.583 24.5977 20.583C25.8164 20.583 26.7773 21.5322 26.7773 22.7509C26.7773 23.958 25.8164 24.9072 24.5977 24.9072ZM6.51562 26.5127C8.625 26.5127 10.2656 24.8603 10.2656 22.7509C10.2656 20.6416 8.625 18.9892 6.51562 18.9892C4.39453 18.9892 2.74219 20.6416 2.74219 22.7509C2.74219 24.8603 4.39453 26.5127 6.51562 26.5127ZM6.51562 24.9072C5.29688 24.9072 4.33594 23.958 4.33594 22.7509C4.33594 21.5322 5.29688 20.583 6.51562 20.583C7.71094 20.583 8.67188 21.5322 8.67188 22.7509C8.67188 23.958 7.71094 24.9072 6.51562 24.9072ZM0 22.5166L0 24.2158L3.99609 24.2158L3.99609 22.5166ZM9.39844 24.2158L10.9219 24.2158C13.2539 24.2158 14.2852 23.1259 14.2852 20.6533L14.2852 17.7353C14.2852 15.7666 13.3359 14.5244 11.332 13.8798L9.65625 13.3408C7.46484 11.4541 4.59375 9.39156 0.808594 9.39156L0 9.39156L0 11.1025L0.808594 11.1025C3.48047 11.1025 5.63672 12.1572 8.30859 14.5009C8.8125 14.9345 9.07031 15.0517 9.70312 15.2392L10.8164 15.6142C12.0352 15.9892 12.5859 16.6337 12.5859 17.7353L12.5859 20.6533C12.5859 21.9423 12.0703 22.5166 10.9219 22.5166L9.39844 22.5166Z" fill="black" fill-opacity="0.85"/>
  <path d="M17.2852 0.696244L16.7695 2.84078L14.1094 0.110306C13.8867-0.124069 13.5938 0.0399939 13.6992 0.368119L14.6484 3.1689L13.4062 2.61812C13.1133 2.47749 12.9023 2.70015 13.1133 2.9814L13.8047 3.87203L10.6172 3.42671C10.2422 3.36812 10.1484 3.74312 10.4414 3.93062L13.4414 5.74703L11.6484 6.40328C11.332 6.52046 11.3789 6.88374 11.7188 6.90718L13.7227 7.05953L11.0039 8.89937C10.7344 9.07515 10.8398 9.48531 11.2148 9.39156L14.6719 8.6064L14.7188 11.5361C14.7188 11.8408 15.0117 11.8759 15.1406 11.665L17.3672 7.99703L21.1055 11.3603C21.3867 11.6064 21.7266 11.3486 21.5391 11.0087L19.3359 6.87203L21.5977 6.19234C21.7852 6.13374 21.7852 5.87593 21.5977 5.80562L19.5938 4.98531L21.0352 0.9189C21.1172 0.661088 20.8594 0.426713 20.6367 0.649369L18.3164 2.85249L17.7422 0.696244C17.6719 0.391556 17.3555 0.391556 17.2852 0.696244Z" fill="black" fill-opacity="0.85"/>
 </g>
</svg>
