<?xml version="1.0" encoding="UTF-8"?>
<!--Generator: Apple Native CoreSVG 360-->
<!DOCTYPE svg
PUBLIC "-//W3C//DTD SVG 1.1//EN"
       "http://www.w3.org/Graphics/SVG/1.1/DTD/svg11.dtd">
<svg version="1.1" xmlns="http://www.w3.org/2000/svg" xmlns:xlink="http://www.w3.org/1999/xlink" viewBox="0 0 17.3223 27.6211">
 <g>
  <rect height="27.6211" opacity="0" width="17.3223" x="0" y="0"/>
  <path d="M2.8018 9.30469C2.8018 9.76172 3.16508 10.125 3.63383 10.125L4.26664 10.125C4.72367 10.125 5.07524 9.76172 5.07524 9.30469L5.07524 8.66016L13.3721 8.66016L13.3721 9.30469C13.3721 9.76172 13.7237 10.125 14.2041 10.125L14.8252 10.125C15.294 10.125 15.669 9.76172 15.669 9.30469L15.669 5.74219C15.669 4.82812 15.5049 4.24219 14.9307 3.62109L14.4385 3.05859L13.876 1.47656C13.5362 0.539062 12.9268 0.152344 12.1299 0.0820312C11.7784 0.0351562 10.6065 0 9.22367 0C7.85258 0 6.6807 0.0351562 6.32914 0.0820312C5.53227 0.152344 4.91117 0.539062 4.57133 1.47656L4.02055 3.05859L3.51664 3.62109C2.9307 4.26562 2.8018 4.82812 2.8018 5.74219ZM5.62602 3.05859C5.43852 3.05859 5.3682 2.94141 5.4268 2.75391L5.7432 1.76953C5.83695 1.47656 5.9893 1.30078 6.32914 1.27734C6.82133 1.23047 7.82914 1.20703 9.22367 1.20703C10.7471 1.20703 11.7432 1.23047 12.1416 1.27734C12.4346 1.3125 12.6104 1.46484 12.7159 1.76953L13.0323 2.75391C13.0909 2.94141 13.0088 3.05859 12.833 3.05859ZM4.8643 6.48047C4.51274 6.48047 4.27836 6.26953 4.27836 5.91797L4.27836 5.07422C4.27836 4.73438 4.51274 4.52344 4.8643 4.52344C5.1807 4.52344 5.4268 4.73438 5.4268 5.07422L5.4268 5.91797C5.4268 6.26953 5.1807 6.48047 4.8643 6.48047ZM8.00492 6.23438C7.72367 6.23438 7.58305 6.07031 7.58305 5.76562L7.58305 5.22656C7.58305 4.92188 7.73539 4.78125 8.00492 4.78125L10.419 4.78125C10.712 4.78125 10.8643 4.92188 10.8643 5.22656L10.8643 5.76562C10.8643 6.07031 10.7237 6.23438 10.419 6.23438ZM13.6534 6.48047C13.3252 6.48047 13.0909 6.26953 13.0909 5.91797L13.0909 5.07422C13.0909 4.73438 13.3252 4.52344 13.6534 4.52344C13.9932 4.52344 14.2276 4.73438 14.2276 5.07422L14.2276 5.91797C14.2276 6.26953 13.9932 6.48047 13.6534 6.48047ZM7.3018 11.8125L6.6807 11.3789C6.43461 11.2031 6.14164 11.1211 5.84867 11.1211L4.53617 11.1211C4.07914 11.1211 3.90336 11.6367 4.26664 11.8828L5.50883 12.75C5.83695 12.9727 5.81352 13.1953 5.41508 13.3594L1.34867 15.0352C-0.291951 15.7148-0.444295 16.7578 0.938517 17.7305L1.54789 18.1641C1.79399 18.3398 2.07524 18.4336 2.40336 18.4336L3.71586 18.4336C4.17289 18.4336 4.31352 17.918 3.97367 17.6719L2.71977 16.8164C2.40336 16.6055 2.4268 16.3359 2.81352 16.1836L6.89164 14.5195C8.52055 13.8516 8.69633 12.7852 7.3018 11.8125ZM15.8565 11.8242L15.2354 11.4023C14.9776 11.2148 14.6963 11.1445 14.3916 11.1445L13.0791 11.1445C12.6338 11.1445 12.4698 11.6484 12.8213 11.8945L14.0635 12.7617C14.3799 12.9844 14.3682 13.2188 13.9815 13.3711L9.91508 15.0469C8.26274 15.7266 8.09867 16.7695 9.48149 17.7422L10.1026 18.1875C10.3604 18.375 10.6416 18.4453 10.958 18.4453L12.2705 18.4453C12.7159 18.4453 12.8799 17.9414 12.5284 17.6836L11.2745 16.8281C10.958 16.6172 10.9698 16.3594 11.3682 16.207L15.4463 14.543C17.0752 13.8633 17.251 12.7852 15.8565 11.8242Z" fill="black" fill-opacity="0.85"/>
  <path d="M3.58695 27.6094C5.56742 27.6094 6.5518 26.1562 6.5518 24.2344C6.5518 22.2656 5.54399 20.8242 3.58695 20.8242C1.6768 20.8242 0.63383 22.2305 0.63383 24.2344C0.63383 26.1211 1.59477 27.6094 3.58695 27.6094ZM3.58695 26.3789C2.53227 26.3789 2.15727 25.2539 2.15727 24.2344C2.15727 23.1328 2.56742 22.0781 3.58695 22.0781C4.6768 22.0781 5.02836 23.2031 5.02836 24.2344C5.02836 25.3477 4.60649 26.3789 3.58695 26.3789ZM8.35649 27.5391C8.88383 27.5391 9.10649 27.1875 9.10649 26.7773L9.10649 24.9727L10.9698 24.9727C11.3565 24.9727 11.6026 24.75 11.6026 24.375C11.6026 24 11.3682 23.7773 10.9698 23.7773L9.10649 23.7773L9.10649 22.2305L11.1573 22.2305C11.5909 22.2305 11.8252 22.0078 11.8252 21.6094C11.8252 21.2109 11.5909 20.9883 11.1573 20.9883L8.34477 20.9883C7.91117 20.9883 7.60649 21.2695 7.60649 21.7617L7.60649 26.7773C7.60649 27.1875 7.82914 27.5391 8.35649 27.5391ZM13.501 27.5391C14.0401 27.5391 14.251 27.1875 14.251 26.7773L14.251 24.9727L16.1143 24.9727C16.501 24.9727 16.7471 24.75 16.7471 24.375C16.7471 24 16.5127 23.7773 16.1143 23.7773L14.251 23.7773L14.251 22.2305L16.3135 22.2305C16.7354 22.2305 16.9698 22.0078 16.9698 21.6094C16.9698 21.2109 16.7354 20.9883 16.3135 20.9883L13.4893 20.9883C13.0557 20.9883 12.751 21.2695 12.751 21.7617L12.751 26.7773C12.751 27.1875 12.9737 27.5391 13.501 27.5391Z" fill="black" fill-opacity="0.85"/>
 </g>
</svg>
