<?xml version="1.0" encoding="UTF-8"?>
<!--Generator: Apple Native CoreSVG 360-->
<!DOCTYPE svg
PUBLIC "-//W3C//DTD SVG 1.1//EN"
       "http://www.w3.org/Graphics/SVG/1.1/DTD/svg11.dtd">
<svg version="1.1" xmlns="http://www.w3.org/2000/svg" xmlns:xlink="http://www.w3.org/1999/xlink" viewBox="0 0 34.1126 27.7356">
 <g>
  <rect height="27.7356" opacity="0" width="34.1126" x="0" y="0"/>
  <path d="M5.97623 10.1236L0.128571 21.69C-0.176117 22.2877 0.0465394 22.9908 0.948883 22.9908L2.48404 22.9908C3.18716 22.9908 3.53873 22.651 3.72623 22.1471L8.47232 10.3111C8.63638 9.9127 8.44888 9.58457 8.03873 9.58457L6.80826 9.58457C6.40982 9.58457 6.16373 9.77207 5.97623 10.1236ZM27.7848 10.1236C27.5973 9.77207 27.3512 9.58457 26.9528 9.58457L25.7223 9.58457C25.3122 9.58457 25.1364 9.9127 25.2887 10.3111L30.0348 22.1471C30.234 22.651 30.5739 22.9908 31.277 22.9908L32.8122 22.9908C33.7262 22.9908 33.9372 22.2877 33.6325 21.69Z" fill="black" fill-opacity="0.85"/>
  <path d="M10.359 12.2564C10.359 12.6666 10.6754 12.983 11.0856 12.983L11.7301 12.983C12.152 12.983 12.4684 12.6666 12.4684 12.2564L12.4684 11.4596L21.2809 11.4596L21.2809 12.2564C21.2809 12.6666 21.5973 12.983 22.0075 12.983L22.6637 12.983C23.0739 12.983 23.3903 12.6666 23.3903 12.2564L23.3903 8.57676C23.3903 7.65098 23.2614 7.08848 22.6989 6.46739L22.1364 5.86973L21.5622 4.20567C21.2458 3.30332 20.6364 2.92832 19.8747 2.84629C19.4997 2.79942 18.2926 2.76426 16.8747 2.76426C15.445 2.76426 14.2379 2.79942 13.8747 2.84629C13.1129 2.92832 12.5036 3.30332 12.1872 4.20567L11.6012 5.86973L11.0504 6.46739C10.4879 7.08848 10.359 7.65098 10.359 8.57676ZM13.1129 5.90489C12.8551 5.90489 12.7614 5.70567 12.8434 5.45957L13.1833 4.42832C13.3122 4.05332 13.5114 3.92442 13.8512 3.87754C14.2379 3.83067 15.3044 3.78379 16.8747 3.78379C18.445 3.78379 19.5114 3.83067 19.8864 3.87754C20.2262 3.92442 20.4254 4.05332 20.5544 4.42832L20.9059 5.45957C20.9879 5.70567 20.8942 5.90489 20.6247 5.90489ZM12.3512 9.33848C12.0114 9.33848 11.7653 9.09239 11.7653 8.75254L11.7653 7.89707C11.7653 7.55723 12.0114 7.32285 12.3512 7.32285C12.6911 7.32285 12.9372 7.55723 12.9372 7.89707L12.9372 8.75254C12.9372 9.1041 12.6911 9.33848 12.3512 9.33848ZM15.6208 9.08067C15.3512 9.08067 15.1754 8.89317 15.1754 8.6002L15.1754 8.04942C15.1754 7.75645 15.3512 7.58067 15.6208 7.58067L18.1051 7.58067C18.3864 7.58067 18.5622 7.75645 18.5622 8.04942L18.5622 8.6002C18.5622 8.89317 18.3864 9.08067 18.1051 9.08067ZM21.4567 9.33848C21.1286 9.33848 20.8708 9.09239 20.8708 8.75254L20.8708 7.89707C20.8708 7.55723 21.1286 7.32285 21.4567 7.32285C21.7965 7.32285 22.0426 7.55723 22.0426 7.89707L22.0426 8.75254C22.0426 9.1041 21.7965 9.33848 21.4567 9.33848Z" fill="black" fill-opacity="0.85"/>
  <path d="M18.5036 15.4088L17.9294 17.7994L14.9645 14.7525C14.7301 14.4947 14.3903 14.6822 14.5192 15.0338L15.5739 18.1627L14.1911 17.5416C13.8747 17.401 13.6403 17.6354 13.8747 17.94L14.6481 18.9479L11.0856 18.4439C10.6754 18.3854 10.5817 18.7955 10.8981 18.983L14.2614 21.0104L12.234 21.7604C11.8942 21.8893 11.9528 22.276 12.3161 22.2994L14.5661 22.4635L11.5192 24.526C11.2379 24.7135 11.3434 25.1705 11.7536 25.065L15.609 24.1979L15.6442 27.4557C15.6442 27.7838 15.9606 27.8189 16.1012 27.5846L18.5856 23.5064L22.7458 27.2564C23.0504 27.526 23.4254 27.2447 23.2262 26.8697L20.7653 22.2525L23.2731 21.5143C23.4958 21.4439 23.4958 21.1744 23.2965 21.0807L21.0583 20.1783L22.652 15.6432C22.7575 15.3619 22.4645 15.1158 22.2184 15.3619L19.6286 17.8111L19.0075 15.4088C18.9137 15.0807 18.5739 15.0689 18.5036 15.4088Z" fill="black" fill-opacity="0.85"/>
 </g>
</svg>
