<?xml version="1.0" encoding="UTF-8"?>
<!--Generator: Apple Native CoreSVG 360-->
<!DOCTYPE svg
PUBLIC "-//W3C//DTD SVG 1.1//EN"
       "http://www.w3.org/Graphics/SVG/1.1/DTD/svg11.dtd">
<svg version="1.1" xmlns="http://www.w3.org/2000/svg" xmlns:xlink="http://www.w3.org/1999/xlink" viewBox="0 0 42.1055 34.4883">
 <g>
  <rect height="34.4883" opacity="0" width="42.1055" x="0" y="0"/>
  <path d="M36.6094 12.1172L38.4727 12.7383C40.6992 13.4648 41.7539 14.8242 41.7539 17.0039L41.7539 20.25C41.7539 22.9688 40.5938 24.1875 38.0273 24.1875L36.9803 24.1875C36.3576 25.6882 34.8886 26.7188 33.1289 26.7188C31.3692 26.7188 29.9002 25.6882 29.2775 24.1875L12.4649 24.1875C11.8427 25.6882 10.3759 26.7188 8.625 26.7188C6.8653 26.7188 5.39626 25.6882 4.77361 24.1875L3.72656 24.1875C1.18359 24.1875 0 22.9922 0 20.3203L0 18.8203C0 16.0547 1.95703 14.0391 5.20312 13.6406L10.3945 13.0078L15.1406 10.0312C15.7833 9.62729 16.3831 9.28968 16.9805 9.0122L16.9805 10.2539C16.9805 10.5518 17.0091 10.8336 17.0675 11.0948C16.771 11.2576 16.4669 11.4379 16.1484 11.6367L11.8008 14.3789C11.3086 14.6719 10.8281 14.8359 10.125 14.9297L5.4375 15.5039C3.17578 15.7734 1.88672 17.0859 1.88672 18.8203L1.88672 20.25C1.88672 21.6562 2.46094 22.3008 3.72656 22.3008L4.46569 22.3008C4.58987 20.0813 6.36845 18.3867 8.625 18.3867C10.8703 18.3867 12.6484 20.0813 12.7726 22.3008L28.9696 22.3008C29.0938 20.0813 30.8724 18.3867 33.1289 18.3867C35.3855 18.3867 37.164 20.0813 37.2882 22.3008L38.0273 22.3008C39.293 22.3008 39.8672 21.6562 39.8672 20.25L39.8672 17.0039C39.8672 15.7734 39.2461 15.082 37.9102 14.6484L36.668 14.25C35.9648 14.0273 35.6719 13.8984 35.1211 13.418C32.75 11.341 30.7393 10.1937 28.5 9.79887L28.5 7.90127C31.9477 8.44049 34.5995 10.376 36.6094 12.1172ZM6.22266 22.5586C6.22266 23.8945 7.27734 24.9492 8.625 24.9492C9.96094 24.9492 11.0156 23.8945 11.0156 22.5586C11.0156 21.2109 9.96094 20.1562 8.625 20.1562C7.27734 20.1562 6.22266 21.2109 6.22266 22.5586ZM30.7266 22.5586C30.7266 23.8945 31.793 24.9492 33.1289 24.9492C34.4648 24.9492 35.5312 23.8945 35.5312 22.5586C35.5312 21.2109 34.4648 20.1562 33.1289 20.1562C31.793 20.1562 30.7266 21.2109 30.7266 22.5586Z" fill="black" fill-opacity="0.85"/>
  <path d="M20.0859 11.8828L25.3945 11.8828C26.3906 11.8828 26.9062 11.3555 26.9062 10.2891L26.9062 6.21094C26.9062 5.15625 26.3906 4.62891 25.3945 4.62891L20.0859 4.62891C19.0898 4.62891 18.5742 5.15625 18.5742 6.21094L18.5742 10.2891C18.5742 11.3555 19.0898 11.8828 20.0859 11.8828ZM24.3281 5.57812L25.6055 5.57812L25.6055 3.23438C25.6055 2.02734 26.332 1.26562 27.4688 1.26562C28.6172 1.26562 29.332 2.02734 29.332 3.23438L29.332 4.54688C29.332 4.89844 29.625 5.17969 29.9766 5.17969C30.3281 5.17969 30.6094 4.89844 30.6094 4.54688L30.6094 3.43359C30.6094 1.32422 29.3906 0 27.4688 0C25.5703 0 24.3281 1.32422 24.3281 3.43359Z" fill="black" fill-opacity="0.85"/>
 </g>
</svg>
