<?xml version="1.0" encoding="UTF-8"?>
<!--Generator: Apple Native CoreSVG 360-->
<!DOCTYPE svg
PUBLIC "-//W3C//DTD SVG 1.1//EN"
       "http://www.w3.org/Graphics/SVG/1.1/DTD/svg11.dtd">
<svg version="1.1" xmlns="http://www.w3.org/2000/svg" xmlns:xlink="http://www.w3.org/1999/xlink" viewBox="0 0 23.1914 31.5862">
 <g>
  <rect height="31.5862" opacity="0" width="23.1914" x="0" y="0"/>
  <path d="M11.4141 25.8419C14.6836 25.8419 18.9023 25.6779 20.6836 25.4669C22.0547 25.3146 22.8398 24.5529 22.8398 23.2404L22.8398 21.4825C22.8398 19.8654 22.5 18.9161 21.6094 17.7677L20.8359 16.7833C20.4844 15.0841 19.8633 13.3146 19.5352 12.6232C19.0078 11.4982 17.9648 10.8419 16.6641 10.6661C16.0312 10.5841 13.957 10.5255 11.4141 10.5255C8.87109 10.5255 6.80859 10.5958 6.17578 10.6661C4.875 10.8302 3.83203 11.4982 3.30469 12.6232C2.96484 13.3146 2.35547 15.0841 1.99219 16.7833L1.23047 17.7677C0.328125 18.9161 0 19.8654 0 21.4825L0 23.2404C0 24.5529 0.785156 25.3146 2.15625 25.4669C3.9375 25.6779 8.15625 25.8419 11.4141 25.8419ZM11.4141 24.2482C8.12109 24.2482 4.01953 24.1075 2.51953 23.92C1.80469 23.8263 1.59375 23.5333 1.59375 22.8654L1.59375 21.4825C1.59375 20.2286 1.76953 19.6661 2.48438 18.7521L3.46875 17.4513C3.71484 16.1036 4.34766 14.1935 4.73438 13.338C5.02734 12.7286 5.54297 12.3654 6.35156 12.2833C6.96094 12.2013 8.84766 12.1075 11.4141 12.1075C13.9922 12.1075 15.9258 12.2013 16.4531 12.2833C17.2969 12.3771 17.8125 12.7404 18.1055 13.338C18.5039 14.1935 19.1133 16.1036 19.3594 17.4513L20.3555 18.7521C21.0703 19.6661 21.2461 20.2286 21.2461 21.4825L21.2461 22.8654C21.2461 23.5333 21.0352 23.838 20.3203 23.92C18.8203 24.1075 14.7188 24.2482 11.4141 24.2482ZM4.59375 16.631C4.52344 16.9474 4.65234 17.088 5.01562 17.0646C6.51562 16.9474 8.30859 16.8654 11.4141 16.8654C14.5195 16.8654 16.3242 16.9474 17.8242 17.0646C18.1758 17.088 18.3164 16.9474 18.2461 16.631C18.0117 15.6114 17.5898 14.3341 17.2852 13.8068C17.0391 13.3849 16.7695 13.1974 16.2773 13.1271C15.5859 13.0333 14.0508 12.9747 11.4141 12.9747C8.78906 12.9747 7.24219 13.0333 6.55078 13.1271C6.07031 13.1974 5.78906 13.3849 5.55469 13.8068C5.26172 14.3341 4.82812 15.6114 4.59375 16.631ZM4.52344 23.0294C5.39062 23.0294 6.03516 22.3732 6.03516 21.506C6.03516 20.6505 5.39062 20.006 4.52344 20.006C3.66797 20.006 3.01172 20.6505 3.01172 21.506C3.01172 22.3732 3.66797 23.0294 4.52344 23.0294ZM8.82422 22.6544L14.0039 22.6544C14.6602 22.6544 15.1055 22.2091 15.1055 21.5646C15.1055 20.92 14.6602 20.4864 14.0039 20.4864L8.82422 20.4864C8.17969 20.4864 7.73438 20.92 7.73438 21.5646C7.73438 22.2091 8.17969 22.6544 8.82422 22.6544ZM18.3047 23.0294C19.1719 23.0294 19.8281 22.3732 19.8281 21.506C19.8281 20.6505 19.1719 20.006 18.3047 20.006C17.4492 20.006 16.8047 20.6505 16.8047 21.506C16.8047 22.3732 17.4492 23.0294 18.3047 23.0294ZM1.91016 28.3614L3.04688 28.3614C3.75 28.3614 4.30078 27.8224 4.30078 27.131L4.30078 24.8575L0.679688 24.3302L0.679688 27.131C0.679688 27.8224 1.21875 28.3614 1.91016 28.3614ZM19.7695 28.3614L20.9062 28.3614C21.6094 28.3614 22.1367 27.8224 22.1367 27.131L22.1367 24.3302L18.5156 24.8575L18.5156 27.131C18.5156 27.8224 19.0664 28.3614 19.7695 28.3614Z" fill="black" fill-opacity="0.85"/>
  <path d="M11.3672 6.10754C8.84766 6.10754 6.55078 5.24035 4.80469 3.65832C4.32422 3.23644 3.78516 3.11926 3.35156 3.49426C2.91797 3.86926 2.91797 4.52551 3.41016 4.98254C5.51953 6.92785 8.33203 8.01769 11.3672 8.01769C14.4023 8.01769 17.2148 6.92785 19.3242 4.98254C19.8281 4.52551 19.8281 3.86926 19.3828 3.49426C18.9609 3.11926 18.4102 3.23644 17.9297 3.65832C16.1836 5.24035 13.8984 6.10754 11.3672 6.10754Z" fill="black" fill-opacity="0.85"/>
  <path d="M11.3906 1.42004C10.1719 1.42004 9.07031 1.04504 8.16797 0.36535C7.65234 0.00206904 7.13672-0.161993 6.71484 0.213007C6.26953 0.599725 6.25781 1.30285 6.79688 1.72473C8.0625 2.74426 9.66797 3.33019 11.3906 3.33019C13.1133 3.33019 14.7188 2.74426 15.9844 1.72473C16.5117 1.30285 16.5 0.599725 16.0664 0.213007C15.6445-0.161993 15.1172 0.00206904 14.6133 0.36535C13.7344 1.06848 12.6094 1.42004 11.3906 1.42004Z" fill="black" fill-opacity="0.85"/>
 </g>
</svg>
