<?xml version="1.0" encoding="UTF-8"?>
<!--Generator: Apple Native CoreSVG 360-->
<!DOCTYPE svg
PUBLIC "-//W3C//DTD SVG 1.1//EN"
       "http://www.w3.org/Graphics/SVG/1.1/DTD/svg11.dtd">
<svg version="1.1" xmlns="http://www.w3.org/2000/svg" xmlns:xlink="http://www.w3.org/1999/xlink" viewBox="0 0 34.1253 17.5664">
 <g>
  <rect height="17.5664" opacity="0" width="34.1253" x="0" y="0"/>
  <path d="M0.961085 17.5664L2.48452 17.5664C3.18765 17.5664 3.53921 17.2266 3.73843 16.7227L10.2072 0.75C10.3712 0.363281 10.1837 0.0234375 9.77358 0.0234375L9.01187 0.0234375C8.60171 0.0234375 8.3439 0.222656 8.16812 0.574219L0.140772 16.2656C-0.187353 16.8633 0.047022 17.5664 0.961085 17.5664ZM31.2892 17.5664L32.8244 17.5664C33.7267 17.5664 33.9611 16.8633 33.633 16.2656L25.6173 0.574219C25.4298 0.222656 25.172 0.0234375 24.7619 0.0234375L24.0001 0.0234375C23.59 0.0234375 23.4142 0.363281 23.5666 0.75L30.0353 16.7227C30.2345 17.2266 30.5861 17.5664 31.2892 17.5664Z" fill="black" fill-opacity="0.85"/>
  <path d="M9.44546 13.6875C9.44546 14.1445 9.80874 14.5078 10.2658 14.5078L11.0041 14.5078C11.4728 14.5078 11.8244 14.1445 11.8244 13.6875L11.8244 12.7852L21.7853 12.7852L21.7853 13.6875C21.7853 14.1445 22.1486 14.5078 22.6173 14.5078L23.3439 14.5078C23.8126 14.5078 24.1759 14.1445 24.1759 13.6875L24.1759 9.52734C24.1759 8.48438 24.0236 7.85156 23.3791 7.14844L22.758 6.46875L22.1017 4.59375C21.7501 3.57422 21.0587 3.15234 20.1916 3.04688C19.7814 3 18.422 2.96484 16.8048 2.96484C15.1994 2.96484 13.84 3 13.4181 3.04688C12.5509 3.15234 11.8712 3.57422 11.508 4.59375L10.8634 6.46875L10.2306 7.14844C9.58608 7.85156 9.44546 8.48438 9.44546 9.52734ZM12.5626 6.50391C12.2697 6.50391 12.1642 6.28125 12.258 6.01172L12.6447 4.85156C12.7853 4.41797 13.0197 4.27734 13.3947 4.23047C13.8283 4.17188 15.0353 4.125 16.8048 4.125C18.5861 4.125 19.7814 4.17188 20.215 4.23047C20.59 4.27734 20.8244 4.41797 20.965 4.85156L21.3634 6.01172C21.4572 6.28125 21.34 6.50391 21.047 6.50391ZM11.6955 10.3945C11.3087 10.3945 11.0275 10.1133 11.0275 9.72656L11.0275 8.75391C11.0275 8.37891 11.3087 8.09766 11.6955 8.09766C12.0822 8.09766 12.3634 8.36719 12.3634 8.75391L12.3634 9.72656C12.3634 10.1133 12.0822 10.3945 11.6955 10.3945ZM15.3869 10.0898C15.0822 10.0898 14.883 9.89062 14.883 9.5625L14.883 8.92969C14.883 8.60156 15.0822 8.40234 15.3869 8.40234L18.1994 8.40234C18.5158 8.40234 18.715 8.60156 18.715 8.92969L18.715 9.5625C18.715 9.89062 18.5158 10.0898 18.1994 10.0898ZM21.9728 10.3945C21.6095 10.3945 21.3166 10.1016 21.3166 9.72656L21.3166 8.75391C21.3166 8.37891 21.6095 8.09766 21.9728 8.09766C22.3595 8.09766 22.6408 8.36719 22.6408 8.75391L22.6408 9.72656C22.6408 10.1133 22.3595 10.3945 21.9728 10.3945Z" fill="black" fill-opacity="0.85"/>
 </g>
</svg>
