<?xml version="1.0" encoding="UTF-8"?>
<!--Generator: Apple Native CoreSVG 360-->
<!DOCTYPE svg
PUBLIC "-//W3C//DTD SVG 1.1//EN"
       "http://www.w3.org/Graphics/SVG/1.1/DTD/svg11.dtd">
<svg version="1.1" xmlns="http://www.w3.org/2000/svg" xmlns:xlink="http://www.w3.org/1999/xlink" viewBox="0 0 34.1126 17.5664">
 <g>
  <rect height="17.5664" opacity="0" width="34.1126" x="0" y="0"/>
  <path d="M7.73404 3.14062L8.57779 3.14062C9.10513 3.14062 9.32779 2.94141 9.50357 2.49609L10.195 0.75C10.359 0.363281 10.1833 0.0234375 9.7731 0.0234375L8.99966 0.0234375C8.60123 0.0234375 8.35513 0.222656 8.16763 0.574219L7.24185 2.35547C7.05435 2.70703 7.24185 3.14062 7.73404 3.14062ZM4.5231 9.65625L5.82388 9.65625C6.36295 9.65625 6.67935 9.46875 6.87857 8.96484L7.8981 6.45703C8.06216 6.04688 7.80435 5.64844 7.34732 5.64844L6.18716 5.64844C5.78873 5.64844 5.4606 5.84766 5.2731 6.21094L3.97232 8.74219C3.73795 9.1875 4.0192 9.65625 4.5231 9.65625ZM0.948883 17.5664L2.48404 17.5664C3.18716 17.5664 3.53873 17.2266 3.72623 16.7227L5.15591 13.2188C5.36685 12.7031 5.03873 12.1992 4.47623 12.1992L3.15201 12.1992C2.41373 12.1992 2.05045 12.4805 1.79263 12.9727L0.128571 16.2656C-0.176117 16.8633 0.0465394 17.5664 0.948883 17.5664ZM25.1833 3.14062L26.027 3.14062C26.5192 3.14062 26.7067 2.70703 26.5192 2.35547L25.5934 0.574219C25.4176 0.222656 25.1598 0.0234375 24.7614 0.0234375L23.9879 0.0234375C23.5778 0.0234375 23.402 0.363281 23.5661 0.75L24.2575 2.49609C24.4333 2.94141 24.6559 3.14062 25.1833 3.14062ZM27.9489 9.65625L29.2379 9.65625C29.7419 9.65625 30.0231 9.1875 29.8004 8.74219L28.4997 6.21094C28.3004 5.84766 27.9723 5.64844 27.5739 5.64844L26.4137 5.64844C25.9567 5.64844 25.6989 6.04688 25.8629 6.45703L26.8825 8.96484C27.0934 9.46875 27.3981 9.65625 27.9489 9.65625ZM31.277 17.5664L32.8122 17.5664C33.7262 17.5664 33.9372 16.8633 33.6325 16.2656L31.9684 12.9727C31.7106 12.4805 31.3473 12.1992 30.609 12.1992L29.2965 12.1992C28.7223 12.1992 28.3942 12.7031 28.6051 13.2188L30.0348 16.7227C30.234 17.2266 30.5739 17.5664 31.277 17.5664Z" fill="black" fill-opacity="0.85"/>
  <path d="M9.4567 13.6875C9.4567 14.1445 9.80826 14.5078 10.277 14.5078L11.0036 14.5078C11.4723 14.5078 11.8356 14.1445 11.8356 13.6875L11.8356 12.7852L21.7965 12.7852L21.7965 13.6875C21.7965 14.1445 22.1481 14.5078 22.6169 14.5078L23.3551 14.5078C23.8122 14.5078 24.1754 14.1445 24.1754 13.6875L24.1754 9.52734C24.1754 8.48438 24.0348 7.85156 23.3903 7.14844L22.7692 6.46875L22.1129 4.59375C21.7497 3.57422 21.07 3.15234 20.2028 3.04688C19.7809 3 18.4215 2.96484 16.8161 2.96484C15.2106 2.96484 13.8395 3 13.4294 3.04688C12.5622 3.15234 11.8708 3.57422 11.5192 4.59375L10.8629 6.46875L10.2419 7.14844C9.59732 7.85156 9.4567 8.48438 9.4567 9.52734ZM12.5739 6.50391C12.2692 6.50391 12.1754 6.28125 12.2692 6.01172L12.6559 4.85156C12.7965 4.41797 13.0192 4.27734 13.3942 4.23047C13.8278 4.17188 15.0348 4.125 16.8161 4.125C18.5973 4.125 19.7926 4.17188 20.2262 4.23047C20.6012 4.27734 20.8239 4.41797 20.9762 4.85156L21.3629 6.01172C21.4567 6.28125 21.3512 6.50391 21.0465 6.50391ZM11.7067 10.3945C11.32 10.3945 11.0387 10.1133 11.0387 9.72656L11.0387 8.75391C11.0387 8.37891 11.32 8.09766 11.7067 8.09766C12.0817 8.09766 12.3629 8.36719 12.3629 8.75391L12.3629 9.72656C12.3629 10.1133 12.0817 10.3945 11.7067 10.3945ZM15.3981 10.0898C15.0934 10.0898 14.8942 9.89062 14.8942 9.5625L14.8942 8.92969C14.8942 8.60156 15.0934 8.40234 15.3981 8.40234L18.2106 8.40234C18.5153 8.40234 18.7145 8.60156 18.7145 8.92969L18.7145 9.5625C18.7145 9.89062 18.5153 10.0898 18.2106 10.0898ZM21.984 10.3945C21.609 10.3945 21.3278 10.1016 21.3278 9.72656L21.3278 8.75391C21.3278 8.37891 21.609 8.09766 21.984 8.09766C22.3708 8.09766 22.652 8.36719 22.652 8.75391L22.652 9.72656C22.652 10.1133 22.3708 10.3945 21.984 10.3945Z" fill="black" fill-opacity="0.85"/>
 </g>
</svg>
