<?xml version="1.0" encoding="UTF-8"?>
<!--Generator: Apple Native CoreSVG 360-->
<!DOCTYPE svg
PUBLIC "-//W3C//DTD SVG 1.1//EN"
       "http://www.w3.org/Graphics/SVG/1.1/DTD/svg11.dtd">
<svg version="1.1" xmlns="http://www.w3.org/2000/svg" xmlns:xlink="http://www.w3.org/1999/xlink" viewBox="0 0 21.5859 30.2695">
 <g>
  <rect height="30.2695" opacity="0" width="21.5859" x="0" y="0"/>
  <path d="M0.984375 24.668C1.59375 24.668 1.96875 24.293 1.96875 23.6719L1.96875 13.5352C1.96875 12.9141 1.59375 12.5391 0.984375 12.5391C0.386719 12.5391 0 12.9141 0 13.5234L0 23.6836C0 24.293 0.386719 24.668 0.984375 24.668ZM0.984375 16.4766L5.12109 16.4766L5.12109 14.9414L0.984375 14.9414ZM12.7969 30.2578C18.7148 30.2578 21.2344 28.957 21.2344 25.7695L21.2344 5.42578C21.2344 2.00391 18.1289 0 12.7969 0C7.46484 0 4.35938 2.00391 4.35938 5.42578L4.35938 25.7695C4.35938 28.957 6.87891 30.2578 12.7969 30.2578ZM12.7969 28.3125C8.27344 28.3125 6.31641 27.5508 6.31641 25.6758L6.31641 5.42578C6.31641 3.23438 8.70703 1.95703 12.7969 1.95703C16.8984 1.95703 19.2773 3.23438 19.2773 5.42578L19.2773 25.6758C19.2773 27.5508 17.332 28.3125 12.7969 28.3125ZM12.7969 12.5859C13.8516 12.5859 15.6211 12.668 16.2188 12.668C17.0977 12.668 17.4844 12.3281 17.5547 11.4141L17.7539 9.21094C17.9062 7.52344 16.7109 6.84375 12.7969 6.84375C8.88281 6.84375 7.69922 7.52344 7.83984 9.21094L8.03906 11.4141C8.12109 12.3281 8.49609 12.668 9.38672 12.668C9.97266 12.668 11.6836 12.5859 12.7969 12.5859ZM12.7969 25.0898C16.7461 25.0898 17.9414 24.5039 17.707 22.7812L17.5547 21.7148C17.3672 20.3086 16.1953 19.8398 12.7969 19.8398C9.41016 19.8398 8.23828 20.3086 8.05078 21.7148L7.89844 22.7812C7.65234 24.5039 8.85938 25.0898 12.7969 25.0898Z" fill="black" fill-opacity="0.85"/>
 </g>
</svg>
