<?xml version="1.0" encoding="UTF-8"?>
<!--Generator: Apple Native CoreSVG 360-->
<!DOCTYPE svg
PUBLIC "-//W3C//DTD SVG 1.1//EN"
       "http://www.w3.org/Graphics/SVG/1.1/DTD/svg11.dtd">
<svg version="1.1" xmlns="http://www.w3.org/2000/svg" xmlns:xlink="http://www.w3.org/1999/xlink" viewBox="0 0 33.5742 34.9146">
 <g>
  <rect height="34.9146" opacity="0" width="33.5742" x="0" y="0"/>
  <path d="M32.6367 30.6468L20.1914 30.6468C19.6523 30.6468 19.2422 31.0686 19.2422 31.6077C19.2422 32.1233 19.6523 32.5335 20.2148 32.5335L32.6133 32.5335C33.1758 32.5335 33.5742 32.1233 33.5742 31.6077C33.5742 31.0686 33.1758 30.6468 32.6367 30.6468ZM22.4531 34.1858L22.4531 28.9593C22.4531 28.3382 21.9492 28.0452 21.3984 28.385L17.2383 30.9397C16.7109 31.2561 16.6992 31.8889 17.2383 32.2171L21.3867 34.7483C21.9375 35.0882 22.4531 34.8186 22.4531 34.1858Z" fill="black" fill-opacity="0.85"/>
  <path d="M15.832 12.0139L17.9766 8.40457L21.8672 11.9436C22.2422 12.2835 22.5586 12.0374 22.3008 11.5686L20.0156 7.27957L22.1016 6.65848C22.5234 6.54129 22.5352 6.18973 22.125 6.03738L19.7109 5.13504L21.4453 0.447538C21.6094 0.0373818 21.2461-0.173556 20.9531 0.178007L18.5859 2.8616L17.9062 1.19754C17.7422 0.787382 17.4141 0.787382 17.3086 1.23269L16.8281 3.07254L13.6992 0.974882C13.3242 0.728788 13.043 0.939726 13.2305 1.34988L14.8125 4.86551L11.9531 5.13504C11.5195 5.18191 11.4609 5.51004 11.8828 5.73269L14.2734 6.91629L11.4961 9.00223C11.1094 9.29519 11.25 9.64676 11.7188 9.55301L15.1523 9.01394L15.2227 11.8616C15.2461 12.3304 15.5977 12.4124 15.832 12.0139ZM32.6133 12.7054L32.6133 10.7483C32.1094 10.9944 31.6172 11.2639 31.0898 11.5921L26.8125 14.2874L22.125 14.8616C19.1953 15.2249 17.4375 17.0413 17.4375 19.5374L17.4375 20.885C17.4375 23.2991 18.4922 24.3772 20.8008 24.3772L22.3125 24.3772L22.3125 22.678L20.8008 22.678C19.6523 22.678 19.1367 22.1038 19.1367 20.8147L19.1367 19.5374C19.1367 17.9671 20.2969 16.7952 22.3477 16.5374L26.5664 16.0218C27.2109 15.9514 27.6328 15.7991 28.0781 15.5296L32.0039 13.0569C32.2148 12.928 32.4023 12.8108 32.6133 12.7054ZM32.6133 24.3772L32.6133 22.678L27.8672 22.678L27.8672 24.3772ZM25.207 26.6741C27.3281 26.6741 28.9805 25.0218 28.9805 22.9124C28.9805 20.7913 27.3281 19.1507 25.207 19.1507C23.0977 19.1507 21.457 20.7913 21.457 22.9124C21.457 25.0218 23.0977 26.6741 25.207 26.6741ZM25.207 25.0686C24.0117 25.0686 23.0508 24.1194 23.0508 22.9124C23.0508 21.6936 24.0117 20.7444 25.207 20.7444C26.4258 20.7444 27.3867 21.6936 27.3867 22.9124C27.3867 24.1194 26.4258 25.0686 25.207 25.0686ZM7.125 26.6741C9.23438 26.6741 10.875 25.0218 10.875 22.9124C10.875 20.7913 9.23438 19.1507 7.125 19.1507C5.01562 19.1507 3.36328 20.7913 3.36328 22.9124C3.36328 25.0218 5.01562 26.6741 7.125 26.6741ZM7.125 25.0686C5.91797 25.0686 4.95703 24.1194 4.95703 22.9124C4.95703 21.6936 5.91797 20.7444 7.125 20.7444C8.32031 20.7444 9.28125 21.6936 9.28125 22.9124C9.28125 24.1194 8.32031 25.0686 7.125 25.0686ZM0.609375 22.678L0.609375 24.3772L4.60547 24.3772L4.60547 22.678ZM10.0078 24.3772L11.5312 24.3772C13.8633 24.3772 14.9062 23.2874 14.9062 20.8147L14.9062 17.8968C14.9062 15.928 13.957 14.6858 11.9531 14.0413L10.2656 13.5022C8.07422 11.6155 5.20312 9.55301 1.41797 9.55301L0.609375 9.55301L0.609375 11.2522L1.41797 11.2522C4.08984 11.2522 6.24609 12.3186 8.91797 14.6624C9.42188 15.096 9.67969 15.2132 10.3125 15.4007L11.4375 15.7639C12.6445 16.1507 13.207 16.7952 13.207 17.8968L13.207 20.8147C13.207 22.1038 12.6797 22.678 11.5312 22.678L10.0078 22.678Z" fill="black" fill-opacity="0.85"/>
 </g>
</svg>
