<?xml version="1.0" encoding="UTF-8"?>
<!--Generator: Apple Native CoreSVG 360-->
<!DOCTYPE svg
PUBLIC "-//W3C//DTD SVG 1.1//EN"
       "http://www.w3.org/Graphics/SVG/1.1/DTD/svg11.dtd">
<svg version="1.1" xmlns="http://www.w3.org/2000/svg" xmlns:xlink="http://www.w3.org/1999/xlink" viewBox="0 0 26.4258 30.5977">
 <g>
  <rect height="30.5977" opacity="0" width="26.4258" x="0" y="0"/>
  <path d="M13.043 6.64453C13.5 6.64453 13.7578 6.38672 13.7695 5.89453L13.9102 0.855469C13.9219 0.363281 13.5352 0 13.0312 0C12.5156 0 12.1523 0.351562 12.1641 0.84375L12.2812 5.89453C12.293 6.375 12.5625 6.64453 13.043 6.64453ZM13.043 9.75C13.5938 9.75 14.0625 9.31641 14.0625 8.75391C14.0625 8.20312 13.5938 7.76953 13.043 7.76953C12.4805 7.76953 12.0117 8.21484 12.0117 8.75391C12.0117 9.30469 12.4922 9.75 13.043 9.75ZM26.0742 9.71484L26.0742 8.10938C25.6758 8.30859 25.2656 8.53125 24.8438 8.8125L21.3516 11.0039L17.5312 11.4727C15.1523 11.7656 13.7109 13.2422 13.7109 15.2812L13.7109 16.3828C13.7109 18.3398 14.5781 19.2188 16.4531 19.2188L17.6836 19.2188L17.6836 17.8359L16.4531 17.8359C15.5156 17.8359 15.0938 17.3672 15.0938 16.3242L15.0938 15.2812C15.0938 14.0039 16.043 13.043 17.707 12.832L21.1523 12.4219C21.6797 12.3516 22.0195 12.2344 22.3828 12.0117L25.582 9.99609C25.7461 9.89062 25.9102 9.79688 26.0742 9.71484ZM26.0742 19.2188L26.0742 17.8359L22.2188 17.8359L22.2188 19.2188ZM20.0508 21.0938C21.7734 21.0938 23.1211 19.7461 23.1211 18.0234C23.1211 16.3008 21.7734 14.9648 20.0508 14.9648C18.3281 14.9648 16.9922 16.3008 16.9922 18.0234C16.9922 19.7461 18.3281 21.0938 20.0508 21.0938ZM20.0508 19.793C19.0664 19.793 18.2812 19.0195 18.2812 18.0234C18.2812 17.0391 19.0664 16.2656 20.0508 16.2656C21.0352 16.2656 21.8203 17.0391 21.8203 18.0234C21.8203 19.0195 21.0352 19.793 20.0508 19.793ZM5.30859 21.0938C7.03125 21.0938 8.36719 19.7461 8.36719 18.0234C8.36719 16.3008 7.03125 14.9648 5.30859 14.9648C3.58594 14.9648 2.23828 16.3008 2.23828 18.0234C2.23828 19.7461 3.58594 21.0938 5.30859 21.0938ZM5.30859 19.793C4.32422 19.793 3.53906 19.0195 3.53906 18.0234C3.53906 17.0391 4.32422 16.2656 5.30859 16.2656C6.28125 16.2656 7.06641 17.0391 7.06641 18.0234C7.06641 19.0195 6.28125 19.793 5.30859 19.793ZM0 17.8359L0 19.2188L3.25781 19.2188L3.25781 17.8359ZM7.66406 19.2188L8.90625 19.2188C10.8047 19.2188 11.6484 18.3281 11.6484 16.3242L11.6484 13.9453C11.6484 12.3398 10.875 11.3203 9.23438 10.8047L7.86328 10.3594C6.08203 8.8125 3.73828 7.13672 0.65625 7.13672L0 7.13672L0 8.53125L0.65625 8.53125C2.83594 8.53125 4.59375 9.39844 6.77344 11.3086C7.17188 11.6602 7.39453 11.7539 7.89844 11.9062L8.82422 12.2109C9.80859 12.5273 10.2656 13.043 10.2656 13.9453L10.2656 16.3242C10.2656 17.3672 9.83203 17.8359 8.90625 17.8359L7.66406 17.8359Z" fill="black" fill-opacity="0.85"/>
  <path d="M7.81641 29.8828C9.79688 29.8828 10.7695 28.4297 10.7695 26.5078C10.7695 24.5391 9.77344 23.0977 7.81641 23.0977C5.90625 23.0977 4.86328 24.5039 4.86328 26.5078C4.86328 28.3945 5.82422 29.8828 7.81641 29.8828ZM7.81641 28.6406C6.76172 28.6406 6.38672 27.5273 6.38672 26.5078C6.38672 25.3945 6.79688 24.3516 7.81641 24.3516C8.90625 24.3516 9.25781 25.4766 9.25781 26.5078C9.25781 27.6211 8.83594 28.6406 7.81641 28.6406ZM12.5859 29.8125C13.1133 29.8125 13.3242 29.4609 13.3242 29.0508L13.3242 27.2344L15.1875 27.2344C15.5742 27.2344 15.832 27.0234 15.832 26.6484C15.832 26.2734 15.5859 26.0508 15.1875 26.0508L13.3242 26.0508L13.3242 24.5039L15.3867 24.5039C15.8203 24.5039 16.0547 24.2812 16.0547 23.8828C16.0547 23.4844 15.8203 23.2617 15.3867 23.2617L12.5742 23.2617C12.1406 23.2617 11.8359 23.543 11.8359 24.0352L11.8359 29.0508C11.8359 29.4609 12.0586 29.8125 12.5859 29.8125ZM17.7305 29.8125C18.2695 29.8125 18.4805 29.4609 18.4805 29.0508L18.4805 27.2344L20.3438 27.2344C20.7305 27.2344 20.9766 27.0234 20.9766 26.6484C20.9766 26.2734 20.7422 26.0508 20.3438 26.0508L18.4805 26.0508L18.4805 24.5039L20.543 24.5039C20.9648 24.5039 21.1992 24.2812 21.1992 23.8828C21.1992 23.4844 20.9648 23.2617 20.543 23.2617L17.7188 23.2617C17.2852 23.2617 16.9805 23.543 16.9805 24.0352L16.9805 29.0508C16.9805 29.4609 17.2031 29.8125 17.7305 29.8125Z" fill="black" fill-opacity="0.85"/>
 </g>
</svg>
