<?xml version="1.0" encoding="UTF-8"?>
<!--Generator: Apple Native CoreSVG 360-->
<!DOCTYPE svg
PUBLIC "-//W3C//DTD SVG 1.1//EN"
       "http://www.w3.org/Graphics/SVG/1.1/DTD/svg11.dtd">
<svg version="1.1" xmlns="http://www.w3.org/2000/svg" xmlns:xlink="http://www.w3.org/1999/xlink" viewBox="0 0 29.8507 37.6758">
 <g>
  <rect height="37.6758" opacity="0" width="29.8507" x="0" y="0"/>
  <path d="M6.97416 4.55859C7.09446 4.80165 7.24614 5.01487 7.42331 5.19415C5.18785 6.3901 3.18525 8.16804 1.64213 10.5117C1.3726 10.957 0.880414 11.0742 0.44682 10.8281C0.00150772 10.582-0.139117 10.0547 0.153851 9.58594C1.87306 6.91293 4.16317 4.90844 6.71252 3.57661C6.72968 3.90558 6.8156 4.23869 6.97416 4.55859ZM29.3453 9.58594C29.6382 10.0547 29.4976 10.582 29.0523 10.8281C28.6187 11.0742 28.1265 10.957 27.8453 10.5117C26.3084 8.1687 24.3094 6.39111 22.0747 5.19522C22.2524 5.01572 22.4044 4.80213 22.5249 4.55859C22.6834 4.23891 22.7693 3.90605 22.7865 3.5773C25.3368 4.90918 27.6264 6.91342 29.3453 9.58594Z" fill="black" fill-opacity="0.85"/>
  <path d="M8.81401 8.44922C8.92288 8.66464 9.0583 8.85671 9.21532 9.0224C7.6376 9.86958 6.20544 11.1086 5.08745 12.7383C4.81791 13.1484 4.34916 13.2773 3.91557 13.043C3.45854 12.7852 3.3062 12.2344 3.63432 11.7773C4.88167 9.92721 6.58189 8.42359 8.5414 7.39612C8.55404 7.74815 8.64257 8.10635 8.81401 8.44922ZM25.8648 11.7773C26.1929 12.2344 26.0406 12.7852 25.5835 13.043C25.1499 13.2773 24.6812 13.1484 24.4117 12.7383C23.2939 11.1089 21.862 9.87001 20.2833 9.02285C20.4406 8.85707 20.5761 8.66484 20.6851 8.44922C20.8564 8.10659 20.9449 7.74866 20.9576 7.39686C22.9181 8.42434 24.6178 9.92768 25.8648 11.7773Z" fill="black" fill-opacity="0.85"/>
  <path d="M14.7437 1.59375C12.7046 1.59375 10.7359 1.95703 8.9312 2.60156C8.3687 2.8125 8.15776 3.36328 8.40385 3.85547C8.62651 4.27734 9.07182 4.41797 9.50541 4.26562C11.146 3.67969 12.9156 3.35156 14.7437 3.35156C16.5835 3.35156 18.3531 3.67969 19.9937 4.26562C20.4273 4.41797 20.8726 4.27734 21.0953 3.85547C21.3414 3.36328 21.1304 2.8125 20.5679 2.60156C18.7632 1.95703 16.7945 1.59375 14.7437 1.59375Z" fill="black" fill-opacity="0.85"/>
  <path d="M14.7437 5.84766C13.3609 5.84766 12.0367 6.07031 10.7828 6.46875C10.2085 6.63281 9.98588 7.21875 10.2437 7.73438C10.4429 8.10938 10.8648 8.27344 11.2984 8.13281C12.3765 7.80469 13.5367 7.60547 14.7437 7.60547C15.9624 7.60547 17.1226 7.80469 18.2007 8.13281C18.6343 8.27344 19.0562 8.10938 19.2554 7.73438C19.5132 7.21875 19.2906 6.63281 18.7164 6.46875C17.4624 6.07031 16.1382 5.84766 14.7437 5.84766Z" fill="black" fill-opacity="0.85"/>
  <path d="M7.73588 20.9414L8.22807 20.9414L8.22807 31.1719C8.22807 33.7617 10.2437 34.7812 14.7554 34.7812C19.2554 34.7812 21.271 33.7617 21.271 31.1719L21.271 20.9414L21.7749 20.9414C22.3492 20.9414 22.8062 20.4961 22.8062 19.9453L22.8062 19.5C22.8062 18.9375 22.3492 18.5039 21.7749 18.5039L21.271 18.5039L21.271 15.9609C21.271 13.2891 18.8101 11.707 14.7554 11.707C10.7007 11.707 8.22807 13.2891 8.22807 15.9609L8.22807 18.5039L7.73588 18.5039C7.14995 18.5039 6.69291 18.9375 6.69291 19.5L6.69291 19.9453C6.69291 20.4961 7.14995 20.9414 7.73588 20.9414ZM14.7554 32.9531C11.3921 32.9531 10.0796 32.4375 10.0796 31.1133L10.0796 15.9609C10.0796 14.4258 11.7085 13.5586 14.7554 13.5586C17.8023 13.5586 19.4195 14.4258 19.4195 15.9609L19.4195 31.1133C19.4195 32.4375 18.1187 32.9531 14.7554 32.9531ZM12.189 21.4922C12.6226 21.4922 13.9585 21.4219 14.7437 21.4219C15.5992 21.4219 16.8765 21.4922 17.3218 21.4922C18.0249 21.4922 18.3531 21.1992 18.4117 20.4609L18.5523 18.8203C18.6695 17.4727 17.7789 16.957 14.7437 16.957C11.732 16.957 10.8414 17.4727 10.9468 18.8203L11.0992 20.4609C11.1578 21.1992 11.4742 21.4922 12.189 21.4922ZM14.7437 30.832C17.7789 30.832 18.7281 30.3867 18.5171 28.9922L18.3999 28.1953C18.2242 27.082 17.357 26.7305 14.7437 26.7305C12.1539 26.7305 11.2867 27.082 11.1109 28.1953L10.982 28.9922C10.771 30.3867 11.732 30.832 14.7437 30.832Z" fill="black" fill-opacity="0.85"/>
 </g>
</svg>
