<?xml version="1.0" encoding="UTF-8"?>
<!--Generator: Apple Native CoreSVG 360-->
<!DOCTYPE svg
PUBLIC "-//W3C//DTD SVG 1.1//EN"
       "http://www.w3.org/Graphics/SVG/1.1/DTD/svg11.dtd">
<svg version="1.1" xmlns="http://www.w3.org/2000/svg" xmlns:xlink="http://www.w3.org/1999/xlink" viewBox="0 0 29.8507 37.9805">
 <g>
  <rect height="37.9805" opacity="0" width="29.8507" x="0" y="0"/>
  <path d="M5.08745 25.2422C6.20516 26.8715 7.63687 28.1076 9.21412 28.952C9.05763 29.1167 8.92261 29.307 8.81401 29.5195C8.6419 29.8637 8.55335 30.2234 8.54106 30.5768C6.5817 29.5508 4.88159 28.0474 3.63432 26.1914C3.3062 25.7344 3.45854 25.1836 3.91557 24.9375C4.34916 24.6914 4.81791 24.832 5.08745 25.2422ZM25.5835 24.9375C26.0406 25.1836 26.1929 25.7344 25.8648 26.1914C24.6178 28.0469 22.9183 29.5501 20.958 30.576C20.9456 30.2229 20.8571 29.8635 20.6851 29.5195C20.5764 29.3068 20.4412 29.1164 20.2845 28.9516C21.8627 28.1072 23.2941 26.8712 24.4117 25.2422C24.6812 24.832 25.1499 24.6914 25.5835 24.9375Z" fill="black" fill-opacity="0.85"/>
  <path d="M1.64213 27.457C3.18611 29.802 5.19008 31.5806 7.42701 32.7767C7.24824 32.9553 7.0953 33.1679 6.97416 33.4102C6.81538 33.7305 6.72944 34.0641 6.71239 34.3935C4.1631 33.0631 1.87303 31.0616 0.153851 28.3945C-0.139117 27.9141 0.00150772 27.3984 0.44682 27.1406C0.880414 26.8945 1.3726 27.0234 1.64213 27.457ZM29.0523 27.1406C29.4976 27.3984 29.6382 27.9141 29.3453 28.3945C27.6264 31.0611 25.3369 33.0624 22.7867 34.3928C22.7696 34.0636 22.6836 33.7303 22.5249 33.4102C22.4036 33.1674 22.2503 32.9545 22.071 32.7756C24.3072 31.5796 26.3075 29.8014 27.8453 27.457C28.1265 27.0234 28.6187 26.8945 29.0523 27.1406Z" fill="black" fill-opacity="0.85"/>
  <path d="M14.7437 36.375C16.7945 36.375 18.7632 36.0117 20.5679 35.3672C21.1304 35.1562 21.3414 34.6172 21.0953 34.125C20.8726 33.6914 20.4273 33.5508 19.9937 33.7148C18.3531 34.2891 16.5835 34.6172 14.7437 34.6172C12.9156 34.6172 11.146 34.2891 9.50541 33.7148C9.07182 33.5508 8.62651 33.6914 8.40385 34.125C8.15776 34.6172 8.3687 35.1562 8.9312 35.3672C10.7359 36.0117 12.7046 36.375 14.7437 36.375Z" fill="black" fill-opacity="0.85"/>
  <path d="M14.7437 32.1211C16.1382 32.1211 17.4624 31.8984 18.7164 31.5117C19.2906 31.3477 19.5132 30.7617 19.2554 30.2461C19.0562 29.8594 18.6343 29.707 18.2007 29.8359C17.1226 30.1758 15.9624 30.3633 14.7437 30.3633C13.5367 30.3633 12.3765 30.1758 11.2984 29.8359C10.8648 29.707 10.4429 29.8594 10.2437 30.2461C9.98588 30.7617 10.2085 31.3477 10.7828 31.5117C12.0367 31.8984 13.3609 32.1211 14.7437 32.1211Z" fill="black" fill-opacity="0.85"/>
  <path d="M14.7437 26.2617C19.2554 26.2617 21.271 25.2422 21.271 22.6523L21.271 12.4219L21.7749 12.4219C22.3492 12.4219 22.8062 11.9766 22.8062 11.4258L22.8062 10.9805C22.8062 10.418 22.3492 9.98438 21.7749 9.98438L21.271 9.98438L21.271 7.44141C21.271 4.75781 18.8101 3.1875 14.7437 3.1875C10.7007 3.1875 8.22807 4.75781 8.22807 7.44141L8.22807 9.98438L7.73588 9.98438C7.14995 9.98438 6.69291 10.418 6.69291 10.9805L6.69291 11.4258C6.69291 11.9766 7.14995 12.4219 7.73588 12.4219L8.22807 12.4219L8.22807 22.6523C8.22807 25.2422 10.2437 26.2617 14.7437 26.2617ZM14.7437 24.4336C11.3921 24.4336 10.0796 23.918 10.0796 22.5938L10.0796 7.44141C10.0796 5.90625 11.7085 5.03906 14.7437 5.03906C17.8023 5.03906 19.4195 5.90625 19.4195 7.44141L19.4195 22.5938C19.4195 23.918 18.107 24.4336 14.7437 24.4336ZM12.189 12.9727C12.6226 12.9727 13.9585 12.8906 14.7437 12.8906C15.5992 12.8906 16.8765 12.9727 17.3218 12.9727C18.0249 12.9727 18.3414 12.6797 18.4117 11.9414L18.5523 10.3008C18.6695 8.95312 17.7789 8.4375 14.7437 8.4375C11.732 8.4375 10.8296 8.95312 10.9468 10.3008L11.0992 11.9414C11.1578 12.6797 11.4742 12.9727 12.189 12.9727ZM14.7437 22.3125C17.7789 22.3125 18.7281 21.8555 18.5171 20.4727L18.3999 19.6758C18.2242 18.5508 17.357 18.2109 14.7437 18.2109C12.1421 18.2109 11.2867 18.5508 11.1109 19.6758L10.982 20.4727C10.771 21.8555 11.732 22.3125 14.7437 22.3125Z" fill="black" fill-opacity="0.85"/>
 </g>
</svg>
