<?xml version="1.0" encoding="UTF-8"?>
<!--Generator: Apple Native CoreSVG 360-->
<!DOCTYPE svg
PUBLIC "-//W3C//DTD SVG 1.1//EN"
       "http://www.w3.org/Graphics/SVG/1.1/DTD/svg11.dtd">
<svg version="1.1" xmlns="http://www.w3.org/2000/svg" xmlns:xlink="http://www.w3.org/1999/xlink" viewBox="0 0 42.1055 35.5074">
 <g>
  <rect height="35.5074" opacity="0" width="42.1055" x="0" y="0"/>
  <path d="M12.0586 32.9939L29.6953 32.9939C30.0586 32.9939 30.375 32.6775 30.375 32.3025C30.375 31.9392 30.0586 31.6346 29.6953 31.6346L12.0586 31.6346C11.6836 31.6346 11.3672 31.9392 11.3672 32.3025C11.3672 32.6775 11.6836 32.9939 12.0586 32.9939ZM13.7695 34.6463L13.7695 29.9588C13.7695 29.1502 13.0078 28.8572 12.3398 29.3494L9.19922 31.6814C8.77734 31.9978 8.77734 32.5955 9.19922 32.9236L12.3398 35.2674C12.9727 35.7361 13.7695 35.49 13.7695 34.6463ZM27.9844 34.6463C27.9844 35.4666 28.7578 35.7596 29.4141 35.2674L32.543 32.9236C32.9766 32.5955 32.9648 31.9861 32.543 31.6814L29.4141 29.3494C28.7578 28.8572 27.9844 29.1502 27.9844 29.9588Z" fill="black" fill-opacity="0.85"/>
  <path d="M3.72656 24.6971L5.40234 24.6971L5.40234 22.8103L3.72656 22.8103C2.46094 22.8103 1.88672 22.1658 1.88672 20.7596L1.88672 19.3299C1.88672 17.5955 3.17578 16.283 5.4375 16.0135L10.125 15.4392C10.8281 15.3455 11.3086 15.1814 11.8008 14.8885L16.1484 12.1463C18.7383 10.5291 20.3789 10.1424 24.8086 10.1424L26.5898 10.1424C29.6602 10.1424 32.0977 11.2791 35.1211 13.9275C35.6719 14.408 35.9648 14.5369 36.668 14.7596L37.9102 15.158C39.2461 15.5916 39.8672 16.283 39.8672 17.5135L39.8672 20.7596C39.8672 22.1658 39.293 22.8103 38.0273 22.8103L36.3281 22.8103L36.3281 24.6971L38.0273 24.6971C40.5938 24.6971 41.7539 23.4783 41.7539 20.7596L41.7539 17.5135C41.7539 15.3338 40.6992 13.9744 38.4727 13.2478L36.6094 12.6267C34.2422 10.576 30.9844 8.25565 26.5898 8.25565L24.8086 8.25565C20.0273 8.25565 18.0117 8.73612 15.1406 10.5408L10.3945 13.5174L5.20312 14.1502C1.95703 14.5486 0 16.5642 0 19.3299L0 20.8299C0 23.5017 1.18359 24.6971 3.72656 24.6971ZM11.5547 24.6971L30.3398 24.6971L30.3398 22.8103L11.5547 22.8103ZM8.625 27.2283C10.957 27.2283 12.7852 25.4002 12.7852 23.0681C12.7852 20.7244 10.957 18.8963 8.625 18.8963C6.28125 18.8963 4.45312 20.7244 4.45312 23.0681C4.45312 25.4002 6.28125 27.2283 8.625 27.2283ZM8.625 25.4588C7.27734 25.4588 6.22266 24.4041 6.22266 23.0681C6.22266 21.7205 7.27734 20.6658 8.625 20.6658C9.96094 20.6658 11.0156 21.7205 11.0156 23.0681C11.0156 24.4041 9.96094 25.4588 8.625 25.4588ZM33.1289 27.2283C35.4727 27.2283 37.3008 25.4002 37.3008 23.0681C37.3008 20.7244 35.4727 18.8963 33.1289 18.8963C30.7852 18.8963 28.957 20.7244 28.957 23.0681C28.957 25.4002 30.7852 27.2283 33.1289 27.2283ZM33.1289 25.4588C31.793 25.4588 30.7266 24.4041 30.7266 23.0681C30.7266 21.7205 31.793 20.6658 33.1289 20.6658C34.4648 20.6658 35.5312 21.7205 35.5312 23.0681C35.5312 24.4041 34.4648 25.4588 33.1289 25.4588Z" fill="black" fill-opacity="0.85"/>
 </g>
</svg>
