<?xml version="1.0" encoding="UTF-8"?>
<!--Generator: Apple Native CoreSVG 360-->
<!DOCTYPE svg
PUBLIC "-//W3C//DTD SVG 1.1//EN"
       "http://www.w3.org/Graphics/SVG/1.1/DTD/svg11.dtd">
<svg version="1.1" xmlns="http://www.w3.org/2000/svg" xmlns:xlink="http://www.w3.org/1999/xlink" viewBox="0 0 44.707 34.7695">
 <g>
  <rect height="34.7695" opacity="0" width="44.707" x="0" y="0"/>
  <path d="M19.9617 6.43534C19.4061 6.78634 18.9176 7.12296 18.4814 7.45969C18.3978 6.15757 17.9314 4.97703 17.1896 4.02615L16.3711 4.85156C16.0664 5.14453 15.5859 5.14453 15.2812 4.85156C14.9766 4.54688 14.9883 4.06641 15.2812 3.77344L16.1139 2.94081C15.2394 2.24745 14.1677 1.79079 12.9844 1.65565L12.9844 2.76562C12.9844 3.17578 12.6211 3.52734 12.2109 3.52734C11.8008 3.52734 11.4609 3.17578 11.4609 2.76562L11.4609 1.65215C10.2715 1.78435 9.19369 2.24057 8.31471 2.9358L9.15234 3.77344C9.44531 4.06641 9.44531 4.54688 9.15234 4.85156C8.84766 5.14453 8.35547 5.14453 8.0625 4.85156L7.23431 4.02337C6.40447 5.08718 5.91797 6.43753 5.91797 7.92188C5.91797 9.5625 6.55078 11.0742 7.45312 12.0352C7.65234 12.2344 7.72266 12.4219 7.72266 12.6211C7.72266 13.0547 7.37109 13.418 6.92578 13.418C6.67969 13.418 6.44531 13.2773 6.26953 13.0898C5.07422 11.7773 4.3125 9.91406 4.3125 7.92188C4.3125 3.59766 7.89844 0 12.2109 0C16.0173 0 19.2577 2.80276 19.9617 6.43534ZM0.609375 6.11719L2.84766 7.61719C3.16406 7.81641 3.14062 8.12109 2.85938 8.32031L0.585938 9.82031C0.328125 10.0078 0 9.86719 0 9.51562L0 6.44531C0.0117188 6.08203 0.339844 5.95312 0.609375 6.11719ZM13.4766 8.0625C13.4883 8.78906 12.9727 9.35156 12.2109 9.38672C12.0938 9.375 11.8477 9.36328 11.6953 9.33984L7.6875 8.70703C7.42969 8.66016 7.30078 8.50781 7.28906 8.32031C7.27734 8.14453 7.39453 7.95703 7.62891 7.89844L11.5547 6.92578C11.7188 6.87891 11.9766 6.83203 12.1289 6.80859C12.8438 6.78516 13.418 7.3125 13.4766 8.0625Z" fill="black" fill-opacity="0.85"/>
  <path d="M12.1992 33.2461C12.4805 33.7148 13.0547 33.8555 13.4883 33.6211L43.8984 16.0664C44.332 15.8086 44.4961 15.2344 44.25 14.8008C43.9688 14.332 43.3828 14.1797 42.9609 14.4258L12.5391 31.9805C12.1172 32.2266 11.9531 32.8125 12.1992 33.2461Z" fill="black" fill-opacity="0.85"/>
  <path d="M13.8867 26.9766L15.0703 26.2852L14.3086 24.9727L13.125 25.6523C12.2461 26.1562 11.5781 25.9453 11.0039 24.9492L10.4297 23.9531C9.72656 22.7344 10.1016 21.293 11.5781 20.1914L14.6367 17.8828C15.0938 17.5312 15.3633 17.2266 15.5859 16.8164L17.5312 13.1367C18.6797 10.957 19.6875 10.0195 22.793 8.22656L24.0352 7.51172C26.1914 6.25781 28.3594 6.07031 31.5586 6.70312C32.1328 6.82031 32.3906 6.78516 32.9766 6.65625L34.0078 6.43359C35.1211 6.19922 35.8359 6.43359 36.3281 7.28906L37.6523 9.57422C38.2148 10.5586 38.0742 11.25 37.1953 11.7539L36 12.4453L36.7617 13.7695L37.957 13.0781C39.7617 12.0352 40.0664 10.7109 38.9648 8.8125L37.6523 6.52734C36.7734 5.00391 35.4844 4.47656 33.6328 4.86328L32.0742 5.19141C29.5781 4.71094 26.3555 4.39453 23.2734 6.1875L22.0312 6.90234C18.668 8.83594 17.4492 9.99609 16.1602 12.4219L14.0391 16.4297L10.6523 18.9727C8.54297 20.5664 7.98047 22.7695 9.10547 24.7148L9.71484 25.7695C10.793 27.6445 12.1055 28.0078 13.8867 26.9766ZM19.3828 23.8008L32.5664 16.1953L31.8047 14.8711L18.6211 22.4766ZM18.3516 26.7656C19.9922 25.8164 20.5312 23.8008 19.5938 22.1602C18.6445 20.5195 16.6172 19.9688 14.9766 20.918C13.3359 21.8672 12.7969 23.8945 13.7461 25.5352C14.6953 27.1758 16.7109 27.7148 18.3516 26.7656ZM17.6367 25.5234C16.6992 26.0625 15.5273 25.7578 14.9883 24.8203C14.4375 23.8711 14.7539 22.7109 15.6914 22.1602C16.6406 21.6211 17.8008 21.9375 18.3516 22.875C18.8906 23.8125 18.5742 24.9844 17.6367 25.5234ZM35.543 16.8398C37.1836 15.8906 37.7227 13.875 36.7852 12.2344C35.8359 10.5938 33.8086 10.043 32.168 10.9922C30.5273 11.9414 29.9883 13.9688 30.9375 15.6094C31.8867 17.25 33.9023 17.7891 35.543 16.8398ZM34.8281 15.5977C33.8906 16.1484 32.7188 15.832 32.1797 14.8945C31.6289 13.9453 31.9453 12.7852 32.8828 12.2344C33.832 11.6953 34.9922 12.0117 35.543 12.9492C36.082 13.8867 35.7656 15.0586 34.8281 15.5977Z" fill="black" fill-opacity="0.85"/>
 </g>
</svg>
