<?xml version="1.0" encoding="UTF-8"?>
<!--Generator: Apple Native CoreSVG 360-->
<!DOCTYPE svg
PUBLIC "-//W3C//DTD SVG 1.1//EN"
       "http://www.w3.org/Graphics/SVG/1.1/DTD/svg11.dtd">
<svg version="1.1" xmlns="http://www.w3.org/2000/svg" xmlns:xlink="http://www.w3.org/1999/xlink" viewBox="0 0 24.9141 22.3945">
 <g>
  <rect height="22.3945" opacity="0" width="24.9141" x="0" y="0"/>
  <path d="M3.19922 22.2656L21.3633 22.2656C23.3555 22.2656 24.5625 20.8828 24.5625 19.0898C24.5625 18.5391 24.3984 17.9648 24.1055 17.4492L15.0117 1.60547C14.4023 0.539062 13.3594 0 12.2812 0C11.2031 0 10.1484 0.539062 9.55078 1.60547L0.457031 17.4492C0.140625 17.9766 0 18.5391 0 19.0898C0 20.8828 1.20703 22.2656 3.19922 22.2656ZM3.21094 20.4258C2.39062 20.4258 1.89844 19.793 1.89844 19.0781C1.89844 18.8555 1.94531 18.5742 2.07422 18.3281L11.1562 2.49609C11.4023 2.0625 11.8477 1.875 12.2812 1.875C12.7148 1.875 13.1484 2.0625 13.3945 2.49609L22.4766 18.3398C22.6055 18.5859 22.6641 18.8555 22.6641 19.0781C22.6641 19.793 22.1484 20.4258 21.3398 20.4258Z" fill="black" fill-opacity="0.85"/>
  <path d="M6.17578 18.2461C6.17578 18.6211 6.46875 18.9141 6.86719 18.9141L7.46484 18.9141C7.85156 18.9141 8.14453 18.6211 8.14453 18.2461L8.14453 17.4961L16.3828 17.4961L16.3828 18.2461C16.3828 18.6211 16.6758 18.9141 17.0625 18.9141L17.6719 18.9141C18.0703 18.9141 18.3516 18.6211 18.3516 18.2461L18.3516 14.8242C18.3516 13.957 18.2461 13.4297 17.707 12.8555L17.1914 12.293L16.6406 10.7344C16.3477 9.89062 15.7734 9.53906 15.0703 9.45703C14.7305 9.41016 13.5938 9.38672 12.2695 9.38672C10.9336 9.38672 9.80859 9.41016 9.46875 9.45703C8.75391 9.53906 8.17969 9.89062 7.88672 10.7344L7.34766 12.293L6.83203 12.8555C6.28125 13.4297 6.17578 13.957 6.17578 14.8242ZM8.75391 12.3164C8.50781 12.3164 8.42578 12.1289 8.50781 11.9062L8.82422 10.9453C8.92969 10.582 9.12891 10.4648 9.44531 10.418C9.79688 10.3828 10.793 10.3359 12.2695 10.3359C13.7461 10.3359 14.7188 10.3828 15.082 10.418C15.3984 10.4648 15.5859 10.582 15.7148 10.9453L16.0312 11.9062C16.1016 12.1289 16.0312 12.3164 15.7852 12.3164ZM8.05078 15.5273C7.72266 15.5273 7.47656 15.3047 7.47656 14.9766L7.47656 14.1797C7.47656 13.875 7.72266 13.6406 8.05078 13.6406C8.34375 13.6406 8.58984 13.8633 8.58984 14.1797L8.58984 14.9766C8.58984 15.3047 8.34375 15.5273 8.05078 15.5273ZM11.0859 15.2812C10.8398 15.2812 10.6758 15.1289 10.6758 14.8477L10.6758 14.3203C10.6758 14.0508 10.8398 13.8867 11.0859 13.8867L13.418 13.8867C13.6758 13.8867 13.8398 14.0508 13.8398 14.3203L13.8398 14.8477C13.8398 15.1289 13.6758 15.2812 13.418 15.2812ZM16.5469 15.5273C16.2422 15.5273 16.0078 15.3047 16.0078 14.9766L16.0078 14.1797C16.0078 13.875 16.2422 13.6406 16.5469 13.6406C16.8633 13.6406 17.0977 13.8633 17.0977 14.1797L17.0977 14.9766C17.0977 15.3047 16.8633 15.5273 16.5469 15.5273Z" fill="black" fill-opacity="0.85"/>
 </g>
</svg>
