<?xml version="1.0" encoding="UTF-8"?>
<!--Generator: Apple Native CoreSVG 360-->
<!DOCTYPE svg
PUBLIC "-//W3C//DTD SVG 1.1//EN"
       "http://www.w3.org/Graphics/SVG/1.1/DTD/svg11.dtd">
<svg version="1.1" xmlns="http://www.w3.org/2000/svg" xmlns:xlink="http://www.w3.org/1999/xlink" viewBox="0 0 44.5195 33.3867">
 <g>
  <rect height="33.3867" opacity="0" width="44.5195" x="0" y="0"/>
  <path d="M4.52344 27.1992C4.89844 26.7773 4.78125 26.2266 4.35938 25.7461C2.78906 24 1.91016 21.7148 1.91016 19.1836C1.91016 16.6641 2.78906 14.3672 4.35938 12.6211C4.78125 12.1406 4.89844 11.6016 4.52344 11.168C4.14844 10.7344 3.49219 10.7344 3.04688 11.2383C1.10156 13.3477 0 16.1484 0 19.1836C0 22.2188 1.10156 25.0312 3.04688 27.1406C3.49219 27.6328 4.14844 27.6445 4.52344 27.1992ZM39.6445 27.1992C40.0312 27.6445 40.6758 27.6328 41.1328 27.1406C43.0781 25.0312 44.168 22.2188 44.168 19.1836C44.168 16.1484 43.0781 13.3477 41.1328 11.2383C40.6758 10.7344 40.0312 10.7344 39.6445 11.168C39.2695 11.6016 39.3867 12.1406 39.8086 12.6211C41.3906 14.3672 42.2578 16.6641 42.2578 19.1836C42.2578 21.7148 41.3906 24 39.8086 25.7461C39.3867 26.2266 39.2695 26.7773 39.6445 27.1992ZM22.0547 1.91016C24.5742 1.91016 26.8594 2.78906 28.6055 4.35938C29.0977 4.78125 29.6367 4.89844 30.0586 4.52344C30.5039 4.14844 30.5039 3.49219 30 3.03516C27.8906 1.08984 25.0898 0 22.0547 0C19.0078 0 16.207 1.08984 14.0977 3.03516C13.5938 3.49219 13.5938 4.14844 14.0391 4.52344C14.4609 4.89844 15 4.78125 15.4922 4.35938C17.2383 2.78906 19.5234 1.91016 22.0547 1.91016Z" fill="black" fill-opacity="0.85"/>
  <path d="M7.80469 23.8594C8.17969 23.4375 8.02734 22.9219 7.65234 22.4062C6.94922 21.5391 6.60938 20.4023 6.60938 19.1836C6.60938 17.9648 6.94922 16.8398 7.65234 15.9609C8.02734 15.457 8.17969 14.9297 7.80469 14.5078C7.41797 14.0742 6.71484 14.0625 6.30469 14.5898C5.28516 15.8555 4.69922 17.4609 4.69922 19.1836C4.69922 20.9062 5.28516 22.5117 6.30469 23.7773C6.71484 24.3164 7.41797 24.3047 7.80469 23.8594ZM36.3633 23.8594C36.75 24.3047 37.4531 24.3164 37.875 23.7773C38.8945 22.5117 39.4805 20.9062 39.4805 19.1836C39.4805 17.4609 38.8945 15.8555 37.875 14.5898C37.4531 14.0625 36.75 14.0742 36.3633 14.5078C35.9883 14.9297 36.1523 15.457 36.5156 15.9609C37.2188 16.8398 37.5703 17.9648 37.5703 19.1836C37.5703 20.4023 37.2188 21.5391 36.5156 22.4062C36.1523 22.9219 35.9883 23.4375 36.3633 23.8594ZM22.0664 6.59766C23.2852 6.59766 24.4219 6.94922 25.2891 7.65234C25.793 8.02734 26.3203 8.17969 26.7422 7.80469C27.1875 7.41797 27.1992 6.71484 26.6602 6.30469C25.3945 5.28516 23.7891 4.6875 22.0664 4.6875C20.3438 4.6875 18.7383 5.28516 17.4727 6.30469C16.9453 6.71484 16.957 7.41797 17.3906 7.80469C17.8125 8.17969 18.3398 8.01562 18.8438 7.65234C19.7461 6.97266 20.8477 6.59766 22.0664 6.59766Z" fill="black" fill-opacity="0.85"/>
  <path d="M22.0898 25.5703C25.3594 25.5703 29.5781 25.4062 31.3594 25.207C32.7305 25.043 33.5156 24.2812 33.5156 22.9688L33.5156 21.2227C33.5156 19.5938 33.1875 18.6445 32.2852 17.4961L31.5117 16.5117C31.1602 14.8242 30.5508 13.043 30.2109 12.3633C29.6836 11.2266 28.6406 10.5703 27.3398 10.3945C26.707 10.3125 24.6445 10.2656 22.0898 10.2656C19.5586 10.2656 17.4844 10.3242 16.8516 10.3945C15.5508 10.5586 14.5078 11.2266 13.9805 12.3633C13.6523 13.043 13.0312 14.8242 12.6797 16.5117L11.9062 17.4961C11.0156 18.6445 10.6758 19.5938 10.6758 21.2227L10.6758 22.9688C10.6758 24.2812 11.4609 25.043 12.832 25.207C14.6133 25.4062 18.832 25.5703 22.0898 25.5703ZM22.0898 23.9766C18.7969 23.9766 14.6953 23.8359 13.1953 23.6484C12.4805 23.5547 12.2695 23.2617 12.2695 22.6055L12.2695 21.2227C12.2695 19.957 12.4453 19.3945 13.1602 18.4805L14.1562 17.1797C14.4023 15.832 15.0234 13.9219 15.4102 13.0664C15.7031 12.457 16.2188 12.0938 17.0273 12.0117C17.6367 11.9297 19.5234 11.8359 22.0898 11.8359C24.668 11.8359 26.6016 11.9297 27.1289 12.0117C27.9727 12.1055 28.4883 12.4688 28.7812 13.0664C29.1797 13.9219 29.7891 15.832 30.0469 17.1797L31.0312 18.4805C31.7461 19.3945 31.9219 19.957 31.9219 21.2227L31.9219 22.6055C31.9219 23.2617 31.7109 23.5664 30.9961 23.6484C29.4961 23.8359 25.3945 23.9766 22.0898 23.9766ZM15.2695 16.3594C15.1992 16.6758 15.3281 16.8164 15.6914 16.793C17.1914 16.6758 18.9961 16.5938 22.0898 16.5938C25.207 16.5938 27 16.6758 28.5 16.793C28.8633 16.8164 28.9922 16.6758 28.9219 16.3594C28.6875 15.3398 28.2656 14.0625 27.9609 13.5352C27.7148 13.1133 27.4453 12.9258 26.9648 12.8555C26.2734 12.7617 24.7266 12.7031 22.0898 12.7031C19.4648 12.7031 17.9297 12.7617 17.2266 12.8555C16.7461 12.9258 16.4766 13.1133 16.2305 13.5352C15.9375 14.0625 15.5039 15.3398 15.2695 16.3594ZM15.2109 22.7578C16.0664 22.7578 16.7109 22.1016 16.7109 21.2344C16.7109 20.3789 16.0664 19.7344 15.2109 19.7344C14.3438 19.7344 13.6875 20.3789 13.6875 21.2344C13.6875 22.1016 14.3438 22.7578 15.2109 22.7578ZM19.5117 22.3828L24.6914 22.3828C25.3359 22.3828 25.7812 21.9375 25.7812 21.293C25.7812 20.6484 25.3359 20.2148 24.6914 20.2148L19.5117 20.2148C18.8555 20.2148 18.4102 20.6484 18.4102 21.293C18.4102 21.9375 18.8555 22.3828 19.5117 22.3828ZM28.9922 22.7578C29.8477 22.7578 30.5039 22.1016 30.5039 21.2344C30.5039 20.3789 29.8477 19.7344 28.9922 19.7344C28.125 19.7344 27.4805 20.3789 27.4805 21.2344C27.4805 22.1016 28.125 22.7578 28.9922 22.7578ZM12.5977 28.0898L13.7227 28.0898C14.4258 28.0898 14.9766 27.5508 14.9766 26.8594L14.9766 24.5859L11.3555 24.0586L11.3555 26.8594C11.3555 27.5508 11.8945 28.0898 12.5977 28.0898ZM30.457 28.0898L31.582 28.0898C32.2852 28.0898 32.8125 27.5508 32.8125 26.8594L32.8125 24.0586L29.1914 24.5859L29.1914 26.8594C29.1914 27.5508 29.7422 28.0898 30.457 28.0898Z" fill="black" fill-opacity="0.85"/>
 </g>
</svg>
