<?xml version="1.0" encoding="UTF-8"?>
<!--Generator: Apple Native CoreSVG 360-->
<!DOCTYPE svg
PUBLIC "-//W3C//DTD SVG 1.1//EN"
       "http://www.w3.org/Graphics/SVG/1.1/DTD/svg11.dtd">
<svg version="1.1" xmlns="http://www.w3.org/2000/svg" xmlns:xlink="http://www.w3.org/1999/xlink" viewBox="0 0 42.1055 21.668">
 <g>
  <rect height="21.668" opacity="0" width="42.1055" x="0" y="0"/>
  <path d="M36.6094 5.70703L38.4727 6.32812C40.6992 7.05469 41.7539 8.41406 41.7539 10.5938L41.7539 13.8398C41.7539 16.5586 40.5938 17.7773 38.0273 17.7773L36.9803 17.7773C36.3576 19.2781 34.8886 20.3086 33.1289 20.3086C31.3692 20.3086 29.9002 19.2781 29.2775 17.7773L12.4649 17.7773C11.8427 19.2781 10.3759 20.3086 8.625 20.3086C6.8653 20.3086 5.39626 19.2781 4.77361 17.7773L3.72656 17.7773C1.18359 17.7773 0 16.582 0 13.9102L0 12.4102C0 9.64453 1.95703 7.62891 5.20312 7.23047L8.92518 6.77676L10.2399 8.50206C10.2039 8.50869 10.1648 8.51422 10.125 8.51953L5.4375 9.09375C3.17578 9.36328 1.88672 10.6758 1.88672 12.4102L1.88672 13.8398C1.88672 15.2461 2.46094 15.8906 3.72656 15.8906L4.46569 15.8906C4.58987 13.6712 6.36845 11.9766 8.625 11.9766C10.8703 11.9766 12.6484 13.6712 12.7726 15.8906L28.9696 15.8906C29.0938 13.6712 30.8724 11.9766 33.1289 11.9766C35.3855 11.9766 37.164 13.6712 37.2882 15.8906L38.0273 15.8906C39.293 15.8906 39.8672 15.2461 39.8672 13.8398L39.8672 10.5938C39.8672 9.36328 39.2461 8.67188 37.9102 8.23828L36.668 7.83984C35.9648 7.61719 35.6719 7.48828 35.1211 7.00781C32.0977 4.35938 29.6602 3.22266 26.5898 3.22266L24.8086 3.22266C20.3789 3.22266 18.7383 3.60938 16.1484 5.22656L14.3928 6.33391L13.2344 4.8166L15.1406 3.62109C18.0117 1.81641 20.0273 1.33594 24.8086 1.33594L26.5898 1.33594C30.9844 1.33594 34.2422 3.65625 36.6094 5.70703ZM6.22266 16.1484C6.22266 17.4844 7.27734 18.5391 8.625 18.5391C9.96094 18.5391 11.0156 17.4844 11.0156 16.1484C11.0156 14.8008 9.96094 13.7461 8.625 13.7461C7.27734 13.7461 6.22266 14.8008 6.22266 16.1484ZM30.7266 16.1484C30.7266 17.4844 31.793 18.5391 33.1289 18.5391C34.4648 18.5391 35.5312 17.4844 35.5312 16.1484C35.5312 14.8008 34.4648 13.7461 33.1289 13.7461C31.793 13.7461 30.7266 14.8008 30.7266 16.1484Z" fill="black" fill-opacity="0.85"/>
  <path d="M3.45703 3.25781L6.33984 3.25781C7.64062 3.25781 8.13281 3.48047 8.78906 4.33594L11.9414 8.49609C12.9492 9.82031 14.0742 10.3945 15.7148 10.3945L18.2812 10.3945L18.2812 11.4023C18.2812 12.2227 19.0078 12.4688 19.6172 12.0703L22.5703 10.1719C23.1328 9.80859 23.1445 9.10547 22.5586 8.73047L19.6289 6.84375C19.0078 6.43359 18.2812 6.67969 18.2812 7.51172L18.2812 8.50781L15.7148 8.50781C14.6133 8.50781 14.168 8.26172 13.4414 7.32422L10.2656 3.1875C9.28125 1.88672 8.12109 1.37109 6.33984 1.37109L3.45703 1.37109C2.94141 1.37109 2.51953 1.79297 2.51953 2.30859C2.51953 2.82422 2.94141 3.25781 3.45703 3.25781Z" fill="black" fill-opacity="0.85"/>
 </g>
</svg>
