<?xml version="1.0" encoding="UTF-8"?>
<!--Generator: Apple Native CoreSVG 360-->
<!DOCTYPE svg
PUBLIC "-//W3C//DTD SVG 1.1//EN"
       "http://www.w3.org/Graphics/SVG/1.1/DTD/svg11.dtd">
<svg version="1.1" xmlns="http://www.w3.org/2000/svg" xmlns:xlink="http://www.w3.org/1999/xlink" viewBox="0 0 32.3438 28.3286">
 <g>
  <rect height="28.3286" opacity="0" width="32.3438" x="0" y="0"/>
  <path d="M31.9922 12.9514L31.9922 10.9944C31.5 11.2405 30.9961 11.51 30.4805 11.8381L26.2031 14.5334L21.5156 15.1194C18.5859 15.4709 16.8164 17.2874 16.8164 19.7834L16.8164 21.1311C16.8164 23.5452 17.8828 24.6233 20.1914 24.6233L21.6914 24.6233L21.6914 22.9241L20.1914 22.9241C19.043 22.9241 18.5156 22.3499 18.5156 21.0608L18.5156 19.7834C18.5156 18.2131 19.6875 17.0413 21.7266 16.7834L25.957 16.2678C26.6016 16.1975 27.0234 16.0452 27.4688 15.7756L31.3945 13.303C31.5938 13.1741 31.793 13.0569 31.9922 12.9514ZM31.9922 24.6233L31.9922 22.9241L27.2578 22.9241L27.2578 24.6233ZM24.5977 26.9202C26.707 26.9202 28.3594 25.2678 28.3594 23.1584C28.3594 21.0491 26.707 19.3967 24.5977 19.3967C22.4883 19.3967 20.8477 21.0491 20.8477 23.1584C20.8477 25.2678 22.4883 26.9202 24.5977 26.9202ZM24.5977 25.3147C23.4023 25.3147 22.4414 24.3655 22.4414 23.1584C22.4414 21.9397 23.4023 20.9905 24.5977 20.9905C25.8164 20.9905 26.7773 21.9397 26.7773 23.1584C26.7773 24.3655 25.8164 25.3147 24.5977 25.3147ZM6.51562 26.9202C8.625 26.9202 10.2656 25.2678 10.2656 23.1584C10.2656 21.0491 8.625 19.3967 6.51562 19.3967C4.39453 19.3967 2.74219 21.0491 2.74219 23.1584C2.74219 25.2678 4.39453 26.9202 6.51562 26.9202ZM6.51562 25.3147C5.29688 25.3147 4.33594 24.3655 4.33594 23.1584C4.33594 21.9397 5.29688 20.9905 6.51562 20.9905C7.71094 20.9905 8.67188 21.9397 8.67188 23.1584C8.67188 24.3655 7.71094 25.3147 6.51562 25.3147ZM0 22.9241L0 24.6233L3.99609 24.6233L3.99609 22.9241ZM9.39844 24.6233L10.9219 24.6233C13.2539 24.6233 14.2852 23.5334 14.2852 21.0608L14.2852 18.1428C14.2852 16.1741 13.3359 14.9319 11.332 14.2874L9.65625 13.7483C7.46484 11.8616 4.59375 9.79907 0.808594 9.79907L0 9.79907L0 11.51L0.808594 11.51C3.48047 11.51 5.63672 12.5647 8.30859 14.9084C8.8125 15.342 9.07031 15.4592 9.70312 15.6467L10.8164 16.0217C12.0352 16.3967 12.5859 17.0413 12.5859 18.1428L12.5859 21.0608C12.5859 22.3499 12.0703 22.9241 10.9219 22.9241L9.39844 22.9241Z" fill="black" fill-opacity="0.85"/>
  <path d="M16.7227 4.80688C15.2461 6.98657 14.4609 9.52954 14.4961 11.9905C14.5312 12.4709 14.8828 12.8108 15.3164 12.8108C15.7734 12.7874 16.0898 12.4358 16.0898 11.9553C16.0547 9.84595 16.7344 7.58423 18.0234 5.68579C19.3242 3.77563 21.1289 2.29907 23.1094 1.54907C23.5547 1.38501 23.7773 0.927979 23.6133 0.494385C23.4609 0.0725098 23.0039-0.103271 22.5469 0.060791C20.25 0.963135 18.1875 2.63892 16.7227 4.80688Z" fill="black" fill-opacity="0.85"/>
  <path d="M19.6875 6.82251C18.6094 8.39282 18.0469 10.2444 18.0938 12.0022C18.1172 12.4827 18.4688 12.7991 18.9141 12.8108C19.3477 12.7991 19.6875 12.4475 19.6875 11.9436C19.6523 10.5491 20.1211 9.03735 21.0234 7.6897C21.9023 6.38892 23.1445 5.36938 24.457 4.88892C24.9141 4.70142 25.1133 4.24438 24.9609 3.84595C24.7852 3.42407 24.3516 3.23657 23.9062 3.38892C22.2891 3.97485 20.7773 5.20532 19.6875 6.82251Z" fill="black" fill-opacity="0.85"/>
  <path d="M22.6641 8.8147C21.9844 9.81079 21.6211 10.9944 21.6797 12.0022C21.6797 12.4475 22.0312 12.8108 22.4766 12.7991C22.9688 12.7991 23.2969 12.4124 23.2969 11.9084C23.2617 11.217 23.5195 10.3967 23.9883 9.70532C24.4688 9.0022 25.1367 8.45142 25.7578 8.24048C26.2383 8.0647 26.4844 7.60767 26.3086 7.13892C26.1328 6.74048 25.6875 6.55298 25.2539 6.70532C24.2695 7.0686 23.3086 7.84204 22.6641 8.8147Z" fill="black" fill-opacity="0.85"/>
 </g>
</svg>
