<?xml version="1.0" encoding="UTF-8"?>
<!--Generator: Apple Native CoreSVG 360-->
<!DOCTYPE svg
PUBLIC "-//W3C//DTD SVG 1.1//EN"
       "http://www.w3.org/Graphics/SVG/1.1/DTD/svg11.dtd">
<svg version="1.1" xmlns="http://www.w3.org/2000/svg" xmlns:xlink="http://www.w3.org/1999/xlink" viewBox="0 0 16.4531 31.7461">
 <g>
  <rect height="31.7461" opacity="0" width="16.4531" x="0" y="0"/>
  <path d="M8.05078 29.9766C5.98828 29.9766 4.10156 29.2148 2.66016 27.9258C2.15625 27.4922 1.62891 27.457 1.28906 27.7969C0.890625 28.1836 0.914062 28.7461 1.33594 29.1797C3.08203 30.9258 5.50781 31.7344 8.05078 31.7344C10.6055 31.7344 13.0312 30.9258 14.7773 29.1797C15.1875 28.7461 15.2109 28.1836 14.8242 27.7969C14.4727 27.457 13.9453 27.4922 13.4414 27.9258C12 29.2148 10.125 29.9766 8.05078 29.9766Z" fill="black" fill-opacity="0.85"/>
  <path d="M8.05078 25.8633C7.03125 25.8633 6.12891 25.5469 5.42578 24.9727C4.82812 24.5508 4.33594 24.5742 4.00781 24.9141C3.64453 25.2656 3.66797 25.7812 4.04297 26.1797C4.76953 26.8828 6.35156 27.6211 8.05078 27.6211C9.76172 27.6211 11.3438 26.8828 12.0586 26.1797C12.4336 25.7812 12.457 25.2656 12.0938 24.9141C11.7656 24.5742 11.2734 24.5508 10.6758 24.9727C9.98438 25.5469 9.08203 25.8633 8.05078 25.8633Z" fill="black" fill-opacity="0.85"/>
  <path d="M8.05078 23.0742C12.5508 23.0742 14.5781 22.0547 14.5781 19.4648L14.5781 4.25391C14.5781 1.58203 12.1055 0 8.05078 0C3.99609 0 1.53516 1.58203 1.53516 4.25391L1.53516 19.4648C1.53516 22.0547 3.55078 23.0742 8.05078 23.0742ZM8.05078 21.2461C4.69922 21.2461 3.38672 20.7305 3.38672 19.4062L3.38672 4.25391C3.38672 2.71875 5.01562 1.85156 8.05078 1.85156C11.0977 1.85156 12.7266 2.71875 12.7266 4.25391L12.7266 19.4062C12.7266 20.7305 11.4141 21.2461 8.05078 21.2461ZM2.53125 9.23438L2.53125 6.79688L1.03125 6.79688C0.457031 6.79688 0 7.23047 0 7.79297L0 8.23828C0 8.78906 0.457031 9.23438 1.03125 9.23438ZM13.5703 9.23438L15.0703 9.23438C15.6562 9.23438 16.1016 8.78906 16.1016 8.23828L16.1016 7.79297C16.1016 7.23047 15.6562 6.79688 15.0703 6.79688L13.5703 6.79688ZM8.05078 9.71484C8.90625 9.71484 10.1836 9.78516 10.6172 9.78516C11.332 9.78516 11.6484 9.49219 11.7188 8.75391L11.8594 7.11328C11.9766 5.76562 11.0742 5.25 8.05078 5.25C5.02734 5.25 4.13672 5.76562 4.25391 7.11328L4.39453 8.75391C4.46484 9.49219 4.78125 9.78516 5.48438 9.78516C5.92969 9.78516 7.25391 9.71484 8.05078 9.71484ZM8.05078 19.125C11.0742 19.125 12.0352 18.6797 11.8242 17.2852L11.6953 16.4883C11.5195 15.375 10.6641 15.0234 8.05078 15.0234C5.44922 15.0234 4.58203 15.375 4.40625 16.4883L4.28906 17.2852C4.07812 18.6797 5.02734 19.125 8.05078 19.125Z" fill="black" fill-opacity="0.85"/>
 </g>
</svg>
