<?xml version="1.0" encoding="UTF-8"?>
<!--Generator: Apple Native CoreSVG 360-->
<!DOCTYPE svg
PUBLIC "-//W3C//DTD SVG 1.1//EN"
       "http://www.w3.org/Graphics/SVG/1.1/DTD/svg11.dtd">
<svg version="1.1" xmlns="http://www.w3.org/2000/svg" xmlns:xlink="http://www.w3.org/1999/xlink" viewBox="0 0 27.2089 23.8008">
 <g>
  <rect height="23.8008" opacity="0" width="27.2089" x="0" y="0"/>
  <path d="M25.3642 18.082L25.3642 23.0508C25.3642 23.4492 25.0713 23.7422 24.6728 23.7422L24.0517 23.7422C23.6533 23.7422 23.3603 23.4492 23.3603 23.0508L23.3603 18.082C23.3603 17.6836 23.6533 17.3906 24.0517 17.3906L24.6728 17.3906C25.0713 17.3906 25.3642 17.6836 25.3642 18.082ZM3.49705 18.082L3.49705 23.0508C3.49705 23.4375 3.20408 23.7305 2.80565 23.7305L2.18455 23.7305C1.78611 23.7305 1.49315 23.4375 1.49315 23.0508L1.49315 18.082C1.49315 17.6836 1.78611 17.3906 2.18455 17.3906L2.80565 17.3906C3.20408 17.3906 3.49705 17.6836 3.49705 18.082ZM25.3642 9.38672L25.3642 14.3438C25.3642 14.7422 25.0713 15.0352 24.6728 15.0352L24.0517 15.0352C23.6533 15.0352 23.3603 14.7422 23.3603 14.3438L23.3603 9.38672C23.3603 9 23.6533 8.70703 24.0517 8.70703L24.6728 8.70703C25.0713 8.70703 25.3642 9 25.3642 9.38672ZM25.3642 0.691406L25.3642 5.66016C25.3642 6.05859 25.0713 6.35156 24.6728 6.35156L24.0517 6.35156C23.6533 6.35156 23.3603 6.05859 23.3603 5.66016L23.3603 0.691406C23.3603 0.292969 23.6533 0 24.0517 0L24.6728 0C25.0713 0 25.3642 0.292969 25.3642 0.691406ZM3.49705 0.691406L3.49705 3.00633C3.32338 3.10567 3.16103 3.20785 3.00878 3.31232C2.88161 3.39465 2.75972 3.4782 2.64188 3.56259C2.59902 3.59162 2.55843 3.62114 2.5215 3.65139C2.39067 3.74628 2.26642 3.84251 2.14721 3.93966C2.10297 3.97381 2.06112 4.0084 2.02371 4.04376C1.94281 4.11045 1.86593 4.17784 1.79307 4.24589C1.68323 4.33964 1.58284 4.43496 1.49315 4.53181L1.49315 0.691406C1.49315 0.292969 1.78611 0 2.18455 0L2.80565 0C3.20408 0 3.49705 0.292969 3.49705 0.691406Z" fill="black" fill-opacity="0.85"/>
  <path d="M14.3486 21.2695C17.9228 19.207 19.0596 17.4609 17.8642 15.3984L10.8564 3.25781C9.62596 1.125 6.94236 1.01953 3.71971 2.87109C0.473614 4.73438-0.768574 7.125 0.473614 9.25781L7.46971 21.3984C8.67674 23.4609 10.7627 23.332 14.3486 21.2695ZM13.5049 19.8398C10.833 21.3867 9.52049 21.5742 8.91111 20.5078L1.92674 8.42578C1.2119 7.18359 2.11424 5.73047 4.56346 4.3125C6.98924 2.91797 8.68846 2.87109 9.4033 4.10156L16.3877 16.1836C16.9971 17.2617 16.1885 18.293 13.5049 19.8398ZM8.18455 10.6055C8.85252 10.2188 9.91893 9.70312 10.2705 9.48047C10.8447 9.16406 10.9502 8.77734 10.6689 8.16797L10.0361 6.79688C9.49705 5.66016 8.54783 5.66016 6.13377 7.05469C3.69627 8.46094 3.23924 9.28125 3.94236 10.3008L4.80955 11.543C5.20799 12.1172 5.60643 12.1875 6.16893 11.8711C6.50877 11.6602 7.55174 10.9805 8.18455 10.6055ZM12.5322 18.1406C14.9346 16.7461 15.4971 15.9492 14.6885 14.9297L14.2314 14.3555C13.5869 13.5352 12.7197 13.6641 10.6455 14.8711C8.54783 16.0664 8.00877 16.7461 8.39549 17.7188L8.66502 18.4102C9.13377 19.6172 10.1181 19.5352 12.5322 18.1406ZM12.3564 7.67578L13.5517 6.99609C13.9971 6.73828 14.1611 6.16406 13.9033 5.73047L13.6924 5.37891C13.4346 4.93359 12.8838 4.79297 12.4267 5.0625L11.2431 5.75391ZM3.54393 12.7617L2.43065 10.8281L1.24705 11.5078C0.778301 11.7773 0.649395 12.3281 0.895489 12.7734L1.09471 13.1367C1.3408 13.5703 1.9033 13.7227 2.36033 13.4531Z" fill="black" fill-opacity="0.85"/>
 </g>
</svg>
