<?xml version="1.0" encoding="UTF-8"?>
<!--Generator: Apple Native CoreSVG 360-->
<!DOCTYPE svg
PUBLIC "-//W3C//DTD SVG 1.1//EN"
       "http://www.w3.org/Graphics/SVG/1.1/DTD/svg11.dtd">
<svg version="1.1" xmlns="http://www.w3.org/2000/svg" xmlns:xlink="http://www.w3.org/1999/xlink" viewBox="0 0 27.1406 18.9961">
 <g>
  <rect height="18.9961" opacity="0" width="27.1406" x="0" y="0"/>
  <path d="M19.4297 14.0859L19.3008 15.5391L26.0859 15.5391C26.4727 15.5391 26.7891 15.1992 26.7891 14.8125C26.7891 14.4141 26.4727 14.0859 26.0859 14.0859ZM23.2148 12.7383L25.1836 12.7383C25.2891 12.7383 25.4062 12.6914 25.5234 12.6328C26.0391 12.1992 26.3906 11.5781 26.3906 10.8633C26.3906 9.67969 25.4062 8.68359 24.1992 8.68359C22.9922 8.68359 21.9961 9.67969 21.9961 10.8633C21.9961 11.5781 22.3594 12.1992 22.875 12.6328C22.9805 12.6914 23.0977 12.7383 23.2148 12.7383ZM24.1992 17.168C24.6211 17.168 24.9492 16.8281 24.9492 16.4062L24.9492 12.6562L23.4258 12.6562L23.4258 16.4062C23.4258 16.8281 23.7656 17.168 24.1992 17.168ZM12.2461 18.9727C14.5781 18.9727 16.4062 17.1445 16.4062 14.8125C16.4062 12.4688 14.5781 10.6406 12.2461 10.6406C9.90234 10.6406 8.07422 12.4688 8.07422 14.8125C8.07422 17.1445 9.90234 18.9727 12.2461 18.9727ZM12.2461 17.2031C10.8984 17.2031 9.84375 16.1484 9.84375 14.8125C9.84375 13.4648 10.8984 12.4102 12.2461 12.4102C13.582 12.4102 14.6367 13.4648 14.6367 14.8125C14.6367 16.1484 13.582 17.2031 12.2461 17.2031ZM0 14.5547L0 16.4414L9.45703 16.4414L9.45703 14.5547ZM0 0.1875L0 2.08594C1.05469 1.93359 2.30859 1.88672 3.92578 1.88672L5.70703 1.88672C8.77734 1.88672 11.2148 3.02344 14.2383 5.67188C14.7773 6.15234 15.082 6.28125 15.7852 6.50391L17.0156 6.90234C18.3633 7.33594 18.9727 8.02734 18.9727 9.25781L18.9727 12.5039C18.9727 13.9102 18.4102 14.5547 17.1445 14.5547L15.4453 14.5547L15.4453 16.4414L17.1445 16.4414C19.7109 16.4414 20.8594 15.2227 20.8594 12.5039L20.8594 9.25781C20.8594 7.07812 19.8164 5.71875 17.5898 4.99219L15.7266 4.37109C13.3594 2.35547 10.1016 0 5.70703 0L3.92578 0C2.36719 0 1.10156 0.046875 0 0.1875Z" fill="black" fill-opacity="0.85"/>
 </g>
</svg>
