<?xml version="1.0" encoding="UTF-8"?>
<!--Generator: Apple Native CoreSVG 360-->
<!DOCTYPE svg
PUBLIC "-//W3C//DTD SVG 1.1//EN"
       "http://www.w3.org/Graphics/SVG/1.1/DTD/svg11.dtd">
<svg version="1.1" xmlns="http://www.w3.org/2000/svg" xmlns:xlink="http://www.w3.org/1999/xlink" viewBox="0 0 42.1055 32.4492">
 <g>
  <rect height="32.4492" opacity="0" width="42.1055" x="0" y="0"/>
  <path d="M36.6094 11.0977L38.4727 11.7188C40.6992 12.4453 41.7539 13.8047 41.7539 15.9844L41.7539 19.2305C41.7539 21.9492 40.5938 23.168 38.0273 23.168L36.9803 23.168C36.3576 24.6687 34.8886 25.6992 33.1289 25.6992C31.3692 25.6992 29.9002 24.6687 29.2775 23.168L12.4649 23.168C11.8427 24.6687 10.3759 25.6992 8.625 25.6992C6.8653 25.6992 5.39626 24.6687 4.77361 23.168L3.72656 23.168C1.18359 23.168 0 21.9727 0 19.3008L0 17.8008C0 15.0352 1.95703 13.0195 5.20312 12.6211L10.3945 11.9883L15.1406 9.01172C16.5004 8.157 17.6683 7.59931 19.0314 7.25168L19.0891 9.20088C18.0972 9.50569 17.2013 9.95977 16.1484 10.6172L11.8008 13.3594C11.3086 13.6523 10.8281 13.8164 10.125 13.9102L5.4375 14.4844C3.17578 14.7539 1.88672 16.0664 1.88672 17.8008L1.88672 19.2305C1.88672 20.6367 2.46094 21.2812 3.72656 21.2812L4.46569 21.2812C4.58987 19.0618 6.36845 17.3672 8.625 17.3672C10.8703 17.3672 12.6484 19.0618 12.7726 21.2812L28.9696 21.2812C29.0938 19.0618 30.8724 17.3672 33.1289 17.3672C35.3855 17.3672 37.164 19.0618 37.2882 21.2812L38.0273 21.2812C39.293 21.2812 39.8672 20.6367 39.8672 19.2305L39.8672 15.9844C39.8672 14.7539 39.2461 14.0625 37.9102 13.6289L36.668 13.2305C35.9648 13.0078 35.6719 12.8789 35.1211 12.3984C32.0977 9.75 29.6602 8.61328 26.5898 8.61328L24.8086 8.61328C24.6755 8.61328 24.5449 8.61363 24.4246 8.61556L24.4778 6.72879C24.5816 6.72684 24.6943 6.72656 24.8086 6.72656L26.5898 6.72656C30.9844 6.72656 34.2422 9.04688 36.6094 11.0977ZM6.22266 21.5391C6.22266 22.875 7.27734 23.9297 8.625 23.9297C9.96094 23.9297 11.0156 22.875 11.0156 21.5391C11.0156 20.1914 9.96094 19.1367 8.625 19.1367C7.27734 19.1367 6.22266 20.1914 6.22266 21.5391ZM30.7266 21.5391C30.7266 22.875 31.793 23.9297 33.1289 23.9297C34.4648 23.9297 35.5312 22.875 35.5312 21.5391C35.5312 20.1914 34.4648 19.1367 33.1289 19.1367C31.793 19.1367 30.7266 20.1914 30.7266 21.5391Z" fill="black" fill-opacity="0.85"/>
  <path d="M21.75 17.3555C22.582 17.3555 23.2852 16.6641 23.2852 15.8672C23.2852 15.0586 22.5938 14.3906 21.75 14.3906C20.8945 14.3906 20.2031 15.0586 20.2031 15.8672C20.2031 16.6641 20.9062 17.3555 21.75 17.3555ZM21.75 12.1523C22.3242 12.1523 22.7227 11.7422 22.7461 11.1445L22.9922 2.84766C23.0156 2.09766 22.5117 1.60547 21.75 1.60547C20.9766 1.60547 20.4727 2.09766 20.4961 2.84766L20.7422 11.1445C20.7656 11.7422 21.1758 12.1523 21.75 12.1523Z" fill="black" fill-opacity="0.85"/>
 </g>
</svg>
