<?xml version="1.0" encoding="UTF-8"?>
<!--Generator: Apple Native CoreSVG 360-->
<!DOCTYPE svg
PUBLIC "-//W3C//DTD SVG 1.1//EN"
       "http://www.w3.org/Graphics/SVG/1.1/DTD/svg11.dtd">
<svg version="1.1" xmlns="http://www.w3.org/2000/svg" xmlns:xlink="http://www.w3.org/1999/xlink" viewBox="0 0 42.1055 18.9961">
 <g>
  <rect height="18.9961" opacity="0" width="42.1055" x="0" y="0"/>
  <path d="M3.72656 16.4414L5.40234 16.4414L5.40234 14.5547L3.72656 14.5547C2.46094 14.5547 1.88672 13.9102 1.88672 12.5039L1.88672 11.0742C1.88672 9.33984 3.17578 8.02734 5.4375 7.75781L10.125 7.18359C10.8281 7.08984 11.3086 6.92578 11.8008 6.63281L16.1484 3.89062C18.7383 2.27344 20.3789 1.88672 24.8086 1.88672L26.5898 1.88672C29.6602 1.88672 32.0977 3.02344 35.1211 5.67188C35.6719 6.15234 35.9648 6.28125 36.668 6.50391L37.9102 6.90234C39.2461 7.33594 39.8672 8.02734 39.8672 9.25781L39.8672 12.5039C39.8672 13.9102 39.293 14.5547 38.0273 14.5547L36.3281 14.5547L36.3281 16.4414L38.0273 16.4414C40.5938 16.4414 41.7539 15.2227 41.7539 12.5039L41.7539 9.25781C41.7539 7.07812 40.6992 5.71875 38.4727 4.99219L36.6094 4.37109C34.2422 2.32031 30.9844 0 26.5898 0L24.8086 0C20.0273 0 18.0117 0.480469 15.1406 2.28516L10.3945 5.26172L5.20312 5.89453C1.95703 6.29297 0 8.30859 0 11.0742L0 12.5742C0 15.2461 1.18359 16.4414 3.72656 16.4414ZM11.5547 16.4414L30.3398 16.4414L30.3398 14.5547L11.5547 14.5547ZM8.625 18.9727C10.957 18.9727 12.7852 17.1445 12.7852 14.8125C12.7852 12.4688 10.957 10.6406 8.625 10.6406C6.28125 10.6406 4.45312 12.4688 4.45312 14.8125C4.45312 17.1445 6.28125 18.9727 8.625 18.9727ZM8.625 17.2031C7.27734 17.2031 6.22266 16.1484 6.22266 14.8125C6.22266 13.4648 7.27734 12.4102 8.625 12.4102C9.96094 12.4102 11.0156 13.4648 11.0156 14.8125C11.0156 16.1484 9.96094 17.2031 8.625 17.2031ZM33.1289 18.9727C35.4727 18.9727 37.3008 17.1445 37.3008 14.8125C37.3008 12.4688 35.4727 10.6406 33.1289 10.6406C30.7852 10.6406 28.957 12.4688 28.957 14.8125C28.957 17.1445 30.7852 18.9727 33.1289 18.9727ZM33.1289 17.2031C31.793 17.2031 30.7266 16.1484 30.7266 14.8125C30.7266 13.4648 31.793 12.4102 33.1289 12.4102C34.4648 12.4102 35.5312 13.4648 35.5312 14.8125C35.5312 16.1484 34.4648 17.2031 33.1289 17.2031Z" fill="black" fill-opacity="0.85"/>
  <path d="M18.2695 12.6562L23.4844 12.6562C24.1055 12.6562 24.3984 12.1523 24.0586 11.6016L21.5039 7.42969C21.1875 6.91406 20.5547 6.90234 20.2383 7.42969L17.707 11.5898C17.3672 12.1406 17.6367 12.6562 18.2695 12.6562Z" fill="black" fill-opacity="0.85"/>
 </g>
</svg>
