<?xml version="1.0" encoding="UTF-8"?>
<!--Generator: Apple Native CoreSVG 360-->
<!DOCTYPE svg
PUBLIC "-//W3C//DTD SVG 1.1//EN"
       "http://www.w3.org/Graphics/SVG/1.1/DTD/svg11.dtd">
<svg version="1.1" xmlns="http://www.w3.org/2000/svg" xmlns:xlink="http://www.w3.org/1999/xlink" viewBox="0 0 37.7812 21.7852">
 <g>
  <rect height="21.7852" opacity="0" width="37.7812" x="0" y="0"/>
  <path d="M18.7841 0.0696636C18.0378 0.0959558 17.4792 0.128304 17.1797 0.164062C16.0377 0.301444 15.0782 0.772259 14.4037 1.5363C14.2263 1.53553 14.046 1.53516 13.8633 1.53516C10.793 1.53516 8.41406 1.64062 7.66406 1.73438C6.59766 1.86328 5.85938 2.36719 5.48438 3.17578C4.98047 4.25391 4.21875 6.62109 3.90234 8.32031L2.70703 9.89062C1.79297 11.0859 1.53516 11.8359 1.53516 13.4414L1.53516 15.0352C1.53516 15.9258 1.88672 16.4414 2.88281 16.5586C4.20604 16.7252 7.12943 16.8625 10.0607 16.9299C10.1304 17.0409 10.21 17.144 10.3008 17.238L10.3008 18.4698C8.48623 18.4287 6.62872 18.3583 5.08594 18.2677L5.08594 20.1914C5.08594 21.0586 4.40625 21.7383 3.52734 21.7383L2.15625 21.7383C1.27734 21.7383 0.597656 21.0586 0.597656 20.1914L0.597656 17.2262C0.205942 16.8029 0 16.2252 0 15.5039L0 13.4414C0 11.4609 0.398438 10.3594 1.48828 8.95312L2.47266 7.67578C2.90625 5.56641 3.67969 3.35156 4.08984 2.48438C4.71094 1.16016 5.92969 0.351562 7.48828 0.164062C8.27344 0.0703125 10.8398 0 13.8633 0C15.8146 0 17.5722 0.0242186 18.7841 0.0696636ZM7.30078 13.4648C7.30078 14.5312 6.48047 15.3516 5.41406 15.3516C4.34766 15.3516 3.52734 14.5312 3.52734 13.4648C3.52734 12.3867 4.34766 11.5781 5.41406 11.5781C6.48047 11.5781 7.30078 12.3867 7.30078 13.4648ZM12.1758 7.67578L12.1602 7.69576C9.41101 7.72238 7.59391 7.81391 6.02344 7.92188C5.57812 7.94531 5.40234 7.78125 5.49609 7.37109C5.78906 6.12891 6.31641 4.51172 6.69141 3.86719C6.99609 3.33984 7.33594 3.10547 7.94531 3.02344C8.77946 2.90917 10.6275 2.82833 13.6342 2.8246C13.2125 3.84351 12.5507 5.80129 12.1758 7.67578Z" fill="black" fill-opacity="0.85"/>
  <path d="M15.1992 7.37109C15.1055 7.78125 15.2812 7.94531 15.7148 7.92188C17.5898 7.79297 19.8164 7.6875 23.5664 7.6875C27.3047 7.6875 29.5312 7.79297 31.4062 7.92188C31.8516 7.94531 32.0156 7.78125 31.9219 7.37109C31.6406 6.12891 31.1133 4.51172 30.7383 3.86719C30.4336 3.33984 30.0938 3.10547 29.4844 3.02344C28.6289 2.90625 26.707 2.82422 23.5664 2.82422C20.4141 2.82422 18.4922 2.90625 17.6484 3.02344C17.0391 3.10547 16.6875 3.33984 16.3828 3.86719C16.0195 4.51172 15.4805 6.12891 15.1992 7.37109ZM15.1172 15.3516C16.1836 15.3516 16.9922 14.5312 16.9922 13.4648C16.9922 12.3867 16.1836 11.5781 15.1172 11.5781C14.0391 11.5781 13.2305 12.3867 13.2305 13.4648C13.2305 14.5312 14.0391 15.3516 15.1172 15.3516ZM20.4609 14.8828L26.6602 14.8828C27.4688 14.8828 28.0195 14.332 28.0195 13.5234C28.0195 12.7266 27.4688 12.1758 26.6602 12.1758L20.4609 12.1758C19.6641 12.1758 19.1016 12.7266 19.1016 13.5234C19.1016 14.332 19.6641 14.8828 20.4609 14.8828ZM32.0156 15.3516C33.082 15.3516 33.9023 14.5312 33.9023 13.4648C33.9023 12.3867 33.082 11.5781 32.0156 11.5781C30.9375 11.5781 30.1289 12.3867 30.1289 13.4648C30.1289 14.5312 30.9375 15.3516 32.0156 15.3516ZM23.5664 18.5156C27.5039 18.5156 32.7305 18.3164 34.957 18.0586C36.5391 17.8828 37.4297 17.0039 37.4297 15.5039L37.4297 13.4414C37.4297 11.4609 37.0312 10.3594 35.9414 8.95312L34.957 7.67578C34.5234 5.56641 33.75 3.35156 33.3398 2.48438C32.7188 1.16016 31.5 0.375 29.9414 0.164062C29.1562 0.0585938 26.5898 0 23.5664 0C20.5312 0 17.9648 0.0703125 17.1797 0.164062C15.6211 0.351562 14.4023 1.16016 13.7812 2.48438C13.3828 3.35156 12.5977 5.56641 12.1758 7.67578L11.1797 8.95312C10.0898 10.3594 9.69141 11.4609 9.69141 13.4414L9.69141 15.5039C9.69141 17.0039 10.582 17.8828 12.1758 18.0586C14.3906 18.3164 19.6172 18.5156 23.5664 18.5156ZM23.5664 16.9805C19.582 16.9805 14.4609 16.793 12.5859 16.5586C11.5898 16.4414 11.2266 15.9258 11.2266 15.0352L11.2266 13.4414C11.2266 11.8359 11.4961 11.0859 12.3984 9.89062L13.6055 8.32031C13.9102 6.62109 14.6836 4.25391 15.1758 3.17578C15.5625 2.36719 16.3008 1.86328 17.3672 1.73438C18.1172 1.64062 20.4844 1.53516 23.5664 1.53516C26.6367 1.53516 29.0625 1.64062 29.7422 1.73438C30.8438 1.875 31.5703 2.37891 31.9453 3.17578C32.4609 4.25391 33.2109 6.62109 33.5273 8.32031L34.7227 9.89062C35.6367 11.0859 35.8945 11.8359 35.8945 13.4414L35.8945 15.0352C35.8945 15.9258 35.543 16.4414 34.5352 16.5586C32.6602 16.793 27.5508 16.9805 23.5664 16.9805ZM11.8477 21.7383L13.2305 21.7383C14.1094 21.7383 14.7773 21.0586 14.7773 20.1914L14.7773 17.4023L10.3008 16.7578L10.3008 20.1914C10.3008 21.0586 10.9688 21.7383 11.8477 21.7383ZM33.9023 21.7383L35.2734 21.7383C36.1523 21.7383 36.832 21.0586 36.832 20.1914L36.832 16.7578L32.3438 17.4023L32.3438 20.1914C32.3438 21.0586 33.0234 21.7383 33.9023 21.7383Z" fill="black" fill-opacity="0.85"/>
 </g>
</svg>
