<?xml version="1.0" encoding="UTF-8"?>
<!--Generator: Apple Native CoreSVG 360-->
<!DOCTYPE svg
PUBLIC "-//W3C//DTD SVG 1.1//EN"
       "http://www.w3.org/Graphics/SVG/1.1/DTD/svg11.dtd">
<svg version="1.1" xmlns="http://www.w3.org/2000/svg" xmlns:xlink="http://www.w3.org/1999/xlink" viewBox="0 0 34.1253 28.6992">
 <g>
  <rect height="28.6992" opacity="0" width="34.1253" x="0" y="0"/>
  <path d="M31.2892 23.1328L32.8244 23.1328C33.7267 23.1328 33.9611 22.4297 33.633 21.832L25.6173 6.14062C25.4298 5.78906 25.172 5.58984 24.7619 5.58984L24.0001 5.58984C23.59 5.58984 23.4142 5.92969 23.5666 6.31641L30.0353 22.2891C30.2345 22.793 30.5861 23.1328 31.2892 23.1328Z" fill="black" fill-opacity="0.85"/>
  <path d="M0.961085 23.1328L2.48452 23.1328C3.18765 23.1328 3.53921 22.793 3.73843 22.2891L10.2072 6.31641C10.3712 5.92969 10.1837 5.58984 9.77358 5.58984L9.01187 5.58984C8.60171 5.58984 8.3439 5.78906 8.16812 6.14062L0.140772 21.832C-0.187353 22.4297 0.047022 23.1328 0.961085 23.1328Z" fill="black" fill-opacity="0.85"/>
  <path d="M16.9103 1.45312C18.6447 1.45312 20.215 2.09766 21.422 3.17578C21.8322 3.53906 22.2658 3.5625 22.5587 3.26953C22.8634 2.96484 22.8517 2.49609 22.5236 2.14453C21.0587 0.679688 19.0314 0 16.9103 0C14.7892 0 12.7736 0.679688 11.3087 2.14453C10.9689 2.49609 10.9572 2.96484 11.2736 3.26953C11.5666 3.5625 11.9884 3.53906 12.4103 3.17578C13.6173 2.09766 15.1876 1.45312 16.9103 1.45312Z" fill="black" fill-opacity="0.85"/>
  <path d="M16.9103 4.88672C17.7658 4.88672 18.5275 5.15625 19.1134 5.63672C19.5939 5.97656 20.0041 5.96484 20.2853 5.68359C20.5783 5.39062 20.5666 4.96875 20.2501 4.64062C19.6408 4.04297 18.3283 3.43359 16.9103 3.43359C15.4923 3.43359 14.1798 4.04297 13.5705 4.64062C13.2541 4.96875 13.2541 5.39062 13.547 5.68359C13.8283 5.96484 14.2384 5.97656 14.7189 5.63672C15.2931 5.15625 16.0548 4.88672 16.9103 4.88672Z" fill="black" fill-opacity="0.85"/>
  <path d="M9.44546 19.2539C9.44546 19.7109 9.80874 20.0742 10.2658 20.0742L11.0041 20.0742C11.4728 20.0742 11.8244 19.7109 11.8244 19.2539L11.8244 18.3516L21.7853 18.3516L21.7853 19.2539C21.7853 19.7109 22.1486 20.0742 22.6173 20.0742L23.3439 20.0742C23.8126 20.0742 24.1759 19.7109 24.1759 19.2539L24.1759 15.0938C24.1759 14.0508 24.0236 13.418 23.3791 12.7148L22.758 12.0352L22.1017 10.1602C21.7501 9.14062 21.0587 8.71875 20.1916 8.61328C19.7814 8.56641 18.422 8.53125 16.8048 8.53125C15.1994 8.53125 13.84 8.56641 13.4181 8.61328C12.5509 8.71875 11.8712 9.14062 11.508 10.1602L10.8634 12.0352L10.2306 12.7148C9.58608 13.418 9.44546 14.0508 9.44546 15.0938ZM12.5626 12.0703C12.2697 12.0703 12.1642 11.8477 12.258 11.5781L12.6447 10.418C12.7853 9.98438 13.0197 9.84375 13.3947 9.79688C13.8283 9.73828 15.0353 9.69141 16.8048 9.69141C18.5861 9.69141 19.7814 9.73828 20.215 9.79688C20.59 9.84375 20.8244 9.98438 20.965 10.418L21.3634 11.5781C21.4572 11.8477 21.34 12.0703 21.047 12.0703ZM11.6955 15.9609C11.3087 15.9609 11.0275 15.6797 11.0275 15.293L11.0275 14.3203C11.0275 13.9453 11.3087 13.6641 11.6955 13.6641C12.0822 13.6641 12.3634 13.9336 12.3634 14.3203L12.3634 15.293C12.3634 15.6797 12.0822 15.9609 11.6955 15.9609ZM15.3869 15.6562C15.0822 15.6562 14.883 15.457 14.883 15.1289L14.883 14.4961C14.883 14.168 15.0822 13.9688 15.3869 13.9688L18.1994 13.9688C18.5158 13.9688 18.715 14.168 18.715 14.4961L18.715 15.1289C18.715 15.457 18.5158 15.6562 18.1994 15.6562ZM21.9728 15.9609C21.6095 15.9609 21.3166 15.668 21.3166 15.293L21.3166 14.3203C21.3166 13.9453 21.6095 13.6641 21.9728 13.6641C22.3595 13.6641 22.6408 13.9336 22.6408 14.3203L22.6408 15.293C22.6408 15.6797 22.3595 15.9609 21.9728 15.9609Z" fill="black" fill-opacity="0.85"/>
 </g>
</svg>
