<?xml version="1.0" encoding="UTF-8"?>
<!--Generator: Apple Native CoreSVG 360-->
<!DOCTYPE svg
PUBLIC "-//W3C//DTD SVG 1.1//EN"
       "http://www.w3.org/Graphics/SVG/1.1/DTD/svg11.dtd">
<svg version="1.1" xmlns="http://www.w3.org/2000/svg" xmlns:xlink="http://www.w3.org/1999/xlink" viewBox="0 0 36.7142 24.5508">
 <g>
  <rect height="24.5508" opacity="0" width="36.7142" x="0" y="0"/>
  <path d="M0.948883 24.5273L2.54263 24.5273C3.24576 24.5273 3.5856 24.1992 3.79654 23.6836L9.73795 9.375C9.91373 8.96484 9.72623 8.64844 9.31607 8.64844L8.0856 8.64844C7.68716 8.64844 7.42935 8.82422 7.24185 9.1875L0.128571 23.2148C-0.176117 23.8242 0.0465394 24.5273 0.948883 24.5273ZM33.8434 24.5273L35.4137 24.5273C36.3278 24.5273 36.5387 23.8359 36.234 23.2266L29.1208 9.19922C28.9333 8.83594 28.6872 8.64844 28.2887 8.64844L27.0583 8.64844C26.6481 8.64844 26.4606 8.97656 26.6247 9.375L32.5895 23.6836C32.8004 24.1992 33.1403 24.5273 33.8434 24.5273Z" fill="black" fill-opacity="0.85"/>
  <path d="M7.35904 18.7266L29.0036 18.7266L28.3239 17.0039L8.03873 17.0039Z" fill="black" fill-opacity="0.85"/>
  <path d="M8.49576 15.8672L27.8551 15.8672L27.1754 14.1328L9.18716 14.1328Z" fill="black" fill-opacity="0.85"/>
  <path d="M9.65591 12.9609L26.695 12.9609L26.0153 11.2383L10.3356 11.2383Z" fill="black" fill-opacity="0.85"/>
  <path d="M11.6598 9.49219C11.6598 9.90234 11.9762 10.2188 12.3864 10.2188L13.0309 10.2188C13.4528 10.2188 13.7692 9.90234 13.7692 9.49219L13.7692 8.69531L22.5817 8.69531L22.5817 9.49219C22.5817 9.90234 22.8981 10.2188 23.3083 10.2188L23.9645 10.2188C24.3747 10.2188 24.6911 9.90234 24.6911 9.49219L24.6911 5.8125C24.6911 4.88672 24.5622 4.32422 23.9997 3.70312L23.4372 3.10547L22.8629 1.45312C22.5465 0.550781 21.9372 0.164062 21.1754 0.0820312C20.8004 0.0351562 19.5934 0 18.1754 0C16.7458 0 15.5387 0.0351562 15.1754 0.0820312C14.4137 0.164062 13.8044 0.550781 13.4879 1.45312L12.902 3.10547L12.3512 3.70312C11.7887 4.32422 11.6598 4.88672 11.6598 5.8125ZM14.4137 3.14062C14.1559 3.14062 14.0622 2.94141 14.1442 2.69531L14.484 1.67578C14.6129 1.28906 14.8122 1.17188 15.152 1.125C15.5387 1.06641 16.6051 1.03125 18.1754 1.03125C19.7458 1.03125 20.8122 1.06641 21.1872 1.125C21.527 1.17188 21.7262 1.28906 21.8551 1.67578L22.2067 2.69531C22.2887 2.94141 22.195 3.14062 21.9254 3.14062ZM13.652 6.57422C13.3122 6.57422 13.0661 6.32812 13.0661 6L13.0661 5.13281C13.0661 4.79297 13.3122 4.55859 13.652 4.55859C13.9919 4.55859 14.2379 4.79297 14.2379 5.13281L14.2379 6C14.2379 6.33984 13.9919 6.57422 13.652 6.57422ZM16.9215 6.31641C16.652 6.31641 16.4762 6.14062 16.4762 5.84766L16.4762 5.28516C16.4762 4.99219 16.652 4.81641 16.9215 4.81641L19.4059 4.81641C19.6872 4.81641 19.8629 4.99219 19.8629 5.28516L19.8629 5.84766C19.8629 6.14062 19.6872 6.31641 19.4059 6.31641ZM22.7575 6.57422C22.4176 6.57422 22.1715 6.32812 22.1715 6L22.1715 5.13281C22.1715 4.80469 22.4176 4.55859 22.7575 4.55859C23.0973 4.55859 23.3434 4.79297 23.3434 5.13281L23.3434 6C23.3434 6.33984 23.0973 6.57422 22.7575 6.57422Z" fill="black" fill-opacity="0.85"/>
 </g>
</svg>
