<?xml version="1.0" encoding="UTF-8"?>
<!--Generator: Apple Native CoreSVG 360-->
<!DOCTYPE svg
PUBLIC "-//W3C//DTD SVG 1.1//EN"
       "http://www.w3.org/Graphics/SVG/1.1/DTD/svg11.dtd">
<svg version="1.1" xmlns="http://www.w3.org/2000/svg" xmlns:xlink="http://www.w3.org/1999/xlink" viewBox="0 0 39.2227 27.8789">
 <g>
  <rect height="27.8789" opacity="0" width="39.2227" x="0" y="0"/>
  <path d="M3.46875 22.5L5.03906 22.5L5.03906 20.7422L3.46875 20.7422C2.28516 20.7422 1.75781 20.1445 1.75781 18.832L1.75781 17.5078C1.75781 15.8789 2.95312 14.6602 5.0625 14.4141L9.42188 13.875C10.0898 13.793 10.5234 13.6406 10.9805 13.3594L15.0352 10.8164C17.4375 9.31641 18.9727 8.95312 23.0977 8.95312L24.75 8.95312C27.6094 8.95312 29.8828 10.0078 32.6953 12.4805C33.2109 12.9141 33.4922 13.0312 34.1367 13.2422L35.2852 13.6172C36.5391 14.0156 37.1133 14.6602 37.1133 15.8086L37.1133 18.832C37.1133 20.1445 36.5742 20.7422 35.4023 20.7422L33.8203 20.7422L33.8203 22.5L35.4023 22.5C37.793 22.5 38.8711 21.3633 38.8711 18.832L38.8711 15.8086C38.8711 13.7812 37.8867 12.5156 35.8242 11.8359L34.0898 11.2617C31.8867 9.35156 28.8516 7.19531 24.75 7.19531L23.0977 7.19531C18.6445 7.19531 16.7695 7.64062 14.0977 9.31641L9.67969 12.082L4.83984 12.6797C1.81641 13.0547 0 14.918 0 17.5078L0 18.8906C0 21.3867 1.10156 22.5 3.46875 22.5ZM10.7578 22.5L28.2539 22.5L28.2539 20.7422L10.7578 20.7422ZM8.02734 24.8555C10.207 24.8555 11.9062 23.1562 11.9062 20.9766C11.9062 18.7969 10.207 17.0977 8.02734 17.0977C5.84766 17.0977 4.14844 18.7969 4.14844 20.9766C4.14844 23.1562 5.84766 24.8555 8.02734 24.8555ZM8.02734 23.2148C6.77344 23.2148 5.78906 22.2305 5.78906 20.9766C5.78906 19.7344 6.77344 18.75 8.02734 18.75C9.26953 18.75 10.2539 19.7344 10.2539 20.9766C10.2539 22.2305 9.26953 23.2148 8.02734 23.2148ZM30.8438 24.8555C33.0234 24.8555 34.7227 23.1562 34.7227 20.9766C34.7227 18.7969 33.0234 17.0977 30.8438 17.0977C28.6641 17.0977 26.9648 18.7969 26.9648 20.9766C26.9648 23.1562 28.6641 24.8555 30.8438 24.8555ZM30.8438 23.2148C29.6016 23.2148 28.6172 22.2305 28.6172 20.9766C28.6172 19.7344 29.6016 18.75 30.8438 18.75C32.0859 18.75 33.0703 19.7344 33.0703 20.9766C33.0703 22.2305 32.0859 23.2148 30.8438 23.2148Z" fill="black" fill-opacity="0.85"/>
  <path d="M17.5195 5.28516L29.9766 5.28516C30.9141 5.28516 31.4297 4.67578 31.4297 3.72656L31.4297 2.56641C31.4297 0.867188 30.5625 0 28.582 0L26.332 0C24.2344 0 22.5469 0.550781 19.8398 1.66406L17.2031 2.77734C16.4648 3.08203 16.2188 3.59766 16.2188 4.10156C16.2188 4.86328 16.6172 5.28516 17.5195 5.28516Z" fill="black" fill-opacity="0.85"/>
 </g>
</svg>
