<?xml version="1.0" encoding="UTF-8"?>
<!--Generator: Apple Native CoreSVG 360-->
<!DOCTYPE svg
PUBLIC "-//W3C//DTD SVG 1.1//EN"
       "http://www.w3.org/Graphics/SVG/1.1/DTD/svg11.dtd">
<svg version="1.1" xmlns="http://www.w3.org/2000/svg" xmlns:xlink="http://www.w3.org/1999/xlink" viewBox="0 0 23.2568 30.3867">
 <g>
  <rect height="30.3867" opacity="0" width="23.2568" x="0" y="0"/>
  <path d="M2.93309 27.4336C4.72606 29.2383 7.01121 30.375 9.49559 30.375C10.0932 30.375 10.5034 29.9883 10.5034 29.4375C10.5034 28.9336 10.105 28.6055 9.437 28.5586C7.51512 28.4414 5.64012 27.6445 4.17528 26.1914C2.72215 24.7266 1.92528 22.8633 1.80809 20.9297C1.7495 20.1797 1.44481 19.8867 0.858871 19.8867C0.401839 19.8867-0.043473 20.2148 0.00340199 20.8594C0.155746 23.3438 1.11668 25.6406 2.93309 27.4336Z" fill="black" fill-opacity="0.85"/>
  <path d="M5.83934 24.5156C7.04637 25.7227 8.687 26.3203 9.69481 26.3203C10.2456 26.3203 10.6206 25.9688 10.6206 25.4648C10.6206 24.9961 10.2925 24.6211 9.5659 24.5156C8.66356 24.4219 7.81981 24 7.08153 23.2734C6.3784 22.5586 5.96825 21.6914 5.83934 20.6953C5.73387 20.0391 5.47606 19.7695 4.90184 19.7695C4.38621 19.7695 3.97606 20.168 4.05809 20.8008C4.21043 22.2305 4.81981 23.4961 5.83934 24.5156Z" fill="black" fill-opacity="0.85"/>
  <path d="M14.8628 23.0742C19.3628 23.0742 21.3667 22.0547 21.3667 19.4648L21.3667 4.25391C21.3667 1.58203 18.9057 0 14.8628 0C10.7964 0 8.33543 1.58203 8.33543 4.25391L8.33543 19.4648C8.33543 22.0547 10.3511 23.0742 14.8628 23.0742ZM14.8628 21.2461C11.4878 21.2461 10.1753 20.7305 10.1753 19.4062L10.1753 4.25391C10.1753 2.71875 11.8042 1.85156 14.8628 1.85156C17.8979 1.85156 19.5151 2.71875 19.5151 4.25391L19.5151 19.4062C19.5151 20.7305 18.2143 21.2461 14.8628 21.2461ZM14.8511 9.71484C15.6948 9.71484 16.9722 9.78516 17.4175 9.78516C18.1206 9.78516 18.4487 9.49219 18.5073 8.75391L18.6479 7.11328C18.7651 5.76562 17.8745 5.25 14.8511 5.25C11.8276 5.25 10.937 5.76562 11.0542 7.11328L11.1948 8.75391C11.2534 9.49219 11.5815 9.78516 12.2847 9.78516C12.7182 9.78516 14.0542 9.71484 14.8511 9.71484ZM14.8511 19.125C17.8745 19.125 18.8354 18.6797 18.6128 17.2852L18.4956 16.4883C18.3198 15.375 17.4526 15.0234 14.8511 15.0234C12.2495 15.0234 11.3823 15.375 11.2065 16.4883L11.0776 17.2852C10.8667 18.6797 11.8276 19.125 14.8511 19.125ZM20.3706 9.23438L21.8706 9.23438C22.4565 9.23438 22.9018 8.78906 22.9018 8.23828L22.9018 7.79297C22.9018 7.23047 22.4565 6.79688 21.8706 6.79688L20.3706 6.79688ZM9.33153 9.23438L9.33153 6.79688L7.83153 6.79688C7.24559 6.79688 6.80028 7.23047 6.80028 7.79297L6.80028 8.23828C6.80028 8.78906 7.24559 9.23438 7.83153 9.23438Z" fill="black" fill-opacity="0.85"/>
 </g>
</svg>
