<?xml version="1.0" encoding="UTF-8"?>
<!--Generator: Apple Native CoreSVG 360-->
<!DOCTYPE svg
PUBLIC "-//W3C//DTD SVG 1.1//EN"
       "http://www.w3.org/Graphics/SVG/1.1/DTD/svg11.dtd">
<svg version="1.1" xmlns="http://www.w3.org/2000/svg" xmlns:xlink="http://www.w3.org/1999/xlink" viewBox="0 0 24.0004 34.1367">
 <g>
  <rect height="34.1367" opacity="0" width="24.0004" x="0" y="0"/>
  <path d="M15.5861 23.0742C20.0978 23.0742 22.1135 22.0547 22.1135 19.4648L22.1135 4.25391C22.1135 1.58203 19.6525 0 15.5861 0C11.5431 0 9.08221 1.58203 9.08221 4.25391L9.08221 19.4648C9.08221 22.0547 11.0861 23.0742 15.5861 23.0742ZM15.5861 21.2461C12.2346 21.2461 10.9338 20.7305 10.9338 19.4062L10.9338 4.25391C10.9338 2.73047 12.551 1.85156 15.5861 1.85156C18.6447 1.85156 20.2736 2.73047 20.2736 4.25391L20.2736 19.4062C20.2736 20.7305 18.9611 21.2461 15.5861 21.2461ZM15.5978 9.71484C16.3947 9.71484 17.7306 9.78516 18.1642 9.78516C18.8791 9.78516 19.1955 9.49219 19.2541 8.75391L19.3947 7.11328C19.5119 5.76562 18.6213 5.25 15.5978 5.25C12.5744 5.25 11.6838 5.76562 11.801 7.11328L11.9416 8.75391C12.0002 9.49219 12.3283 9.78516 13.0314 9.78516C13.4767 9.78516 14.7541 9.71484 15.5978 9.71484ZM15.5978 19.125C18.6213 19.125 19.5822 18.6797 19.3713 17.2852L19.2424 16.4883C19.0666 15.375 18.1994 15.0234 15.5978 15.0234C12.9963 15.0234 12.1291 15.375 11.9533 16.4883L11.8361 17.2852C11.6135 18.6797 12.5744 19.125 15.5978 19.125ZM10.0783 9.23438L10.0783 6.79688L8.5783 6.79688C7.99236 6.79688 7.54705 7.23047 7.54705 7.79297L7.54705 8.23828C7.54705 8.78906 7.99236 9.23438 8.5783 9.23438ZM21.1174 9.23438L22.6174 9.23438C23.2033 9.23438 23.6486 8.78906 23.6486 8.23828L23.6486 7.79297C23.6486 7.23047 23.2033 6.79688 22.6174 6.79688L21.1174 6.79688Z" fill="black" fill-opacity="0.85"/>
  <path d="M5.30877 33.2461L8.50799 30.0469C9.10564 29.4492 9.11736 28.7461 8.51971 28.1484L5.55486 25.1719C4.94549 24.5742 4.27752 24.5508 3.67986 25.1602L0.445488 28.3828C-0.128731 28.957-0.163887 29.6836 0.433769 30.293L3.39861 33.2578C3.99627 33.8555 4.71111 33.8438 5.30877 33.2461ZM8.2033 27.1406L10.383 26.9648C10.5705 26.9531 10.7463 26.8945 10.8635 26.7891C11.0978 26.5547 11.0744 26.2266 10.8283 25.9805L7.71111 22.8633C7.46502 22.6172 7.14861 22.6055 6.91424 22.8398C6.79705 22.9453 6.73846 23.1328 6.72674 23.3086L6.55096 25.5Z" fill="black" fill-opacity="0.85"/>
 </g>
</svg>
