<?xml version="1.0" encoding="UTF-8"?>
<!--Generator: Apple Native CoreSVG 360-->
<!DOCTYPE svg
PUBLIC "-//W3C//DTD SVG 1.1//EN"
       "http://www.w3.org/Graphics/SVG/1.1/DTD/svg11.dtd">
<svg version="1.1" xmlns="http://www.w3.org/2000/svg" xmlns:xlink="http://www.w3.org/1999/xlink" viewBox="0 0 16.4531 32.0977">
 <g>
  <rect height="32.0977" opacity="0" width="16.4531" x="0" y="0"/>
  <path d="M8.05078 1.75781C10.125 1.75781 12 2.51953 13.4414 3.80859C13.9453 4.24219 14.4727 4.27734 14.8242 3.9375C15.2109 3.55078 15.1875 2.98828 14.7773 2.55469C13.0312 0.808594 10.6055 0 8.05078 0C5.50781 0 3.08203 0.808594 1.33594 2.55469C0.914062 2.98828 0.890625 3.55078 1.28906 3.9375C1.62891 4.27734 2.15625 4.24219 2.66016 3.80859C4.10156 2.51953 5.98828 1.75781 8.05078 1.75781Z" fill="black" fill-opacity="0.85"/>
  <path d="M8.05078 5.87109C9.08203 5.87109 9.98438 6.1875 10.6758 6.76172C11.2734 7.18359 11.7656 7.16016 12.0938 6.82031C12.457 6.46875 12.4336 5.95312 12.0586 5.56641C11.3438 4.85156 9.76172 4.11328 8.05078 4.11328C6.35156 4.11328 4.76953 4.85156 4.04297 5.56641C3.66797 5.95312 3.64453 6.46875 4.00781 6.82031C4.33594 7.16016 4.82812 7.18359 5.42578 6.76172C6.12891 6.1875 7.03125 5.87109 8.05078 5.87109Z" fill="black" fill-opacity="0.85"/>
  <path d="M8.05078 32.0859C12.5508 32.0859 14.5781 31.0664 14.5781 28.4766L14.5781 13.2656C14.5781 10.5938 12.1055 9.01172 8.05078 9.01172C3.99609 9.01172 1.53516 10.5938 1.53516 13.2656L1.53516 28.4766C1.53516 31.0664 3.55078 32.0859 8.05078 32.0859ZM8.05078 30.2578C4.69922 30.2578 3.38672 29.7422 3.38672 28.418L3.38672 13.2656C3.38672 11.7305 5.01562 10.8633 8.05078 10.8633C11.0977 10.8633 12.7266 11.7305 12.7266 13.2656L12.7266 28.418C12.7266 29.7422 11.4141 30.2578 8.05078 30.2578ZM2.53125 18.2461L2.53125 15.8086L1.03125 15.8086C0.457031 15.8086 0 16.2422 0 16.8047L0 17.25C0 17.8008 0.457031 18.2461 1.03125 18.2461ZM13.5703 18.2461L15.0703 18.2461C15.6562 18.2461 16.1016 17.8008 16.1016 17.25L16.1016 16.8047C16.1016 16.2422 15.6562 15.8086 15.0703 15.8086L13.5703 15.8086ZM8.05078 18.7266C8.90625 18.7266 10.1836 18.7969 10.6172 18.7969C11.332 18.7969 11.6484 18.5039 11.7188 17.7656L11.8594 16.125C11.9766 14.7773 11.0742 14.2617 8.05078 14.2617C5.02734 14.2617 4.13672 14.7773 4.25391 16.125L4.39453 17.7656C4.46484 18.5039 4.78125 18.7969 5.48438 18.7969C5.92969 18.7969 7.25391 18.7266 8.05078 18.7266ZM8.05078 28.1367C11.0742 28.1367 12.0352 27.6914 11.8242 26.2969L11.6953 25.5C11.5195 24.3867 10.6641 24.0352 8.05078 24.0352C5.44922 24.0352 4.58203 24.3867 4.40625 25.5L4.28906 26.2969C4.07812 27.6914 5.02734 28.1367 8.05078 28.1367Z" fill="black" fill-opacity="0.85"/>
 </g>
</svg>
