<?xml version="1.0" encoding="UTF-8"?>
<!--Generator: Apple Native CoreSVG 360-->
<!DOCTYPE svg
PUBLIC "-//W3C//DTD SVG 1.1//EN"
       "http://www.w3.org/Graphics/SVG/1.1/DTD/svg11.dtd">
<svg version="1.1" xmlns="http://www.w3.org/2000/svg" xmlns:xlink="http://www.w3.org/1999/xlink" viewBox="0 0 42.1055 28.506">
 <g>
  <rect height="28.506" opacity="0" width="42.1055" x="0" y="0"/>
  <path d="M3.72656 21.1963L5.40234 21.1963L5.40234 19.3096L3.72656 19.3096C2.46094 19.3096 1.88672 18.6651 1.88672 17.2588L1.88672 15.8292C1.88672 14.0948 3.17578 12.7823 5.4375 12.5127L10.125 11.9385C10.8281 11.8448 11.3086 11.6807 11.8008 11.3877L16.1484 8.64556C18.7383 7.02837 20.3789 6.64165 24.8086 6.64165L26.5898 6.64165C29.6602 6.64165 32.0977 7.77837 35.1211 10.4268C35.6719 10.9073 35.9648 11.0362 36.668 11.2588L37.9102 11.6573C39.2461 12.0909 39.8672 12.7823 39.8672 14.0127L39.8672 17.2588C39.8672 18.6651 39.293 19.3096 38.0273 19.3096L36.3281 19.3096L36.3281 21.1963L38.0273 21.1963C40.5938 21.1963 41.7539 19.9776 41.7539 17.2588L41.7539 14.0127C41.7539 11.8331 40.6992 10.4737 38.4727 9.74712L36.6094 9.12603C34.2422 7.07524 30.9844 4.75493 26.5898 4.75493L24.8086 4.75493C20.0273 4.75493 18.0117 5.2354 15.1406 7.04009L10.3945 10.0167L5.20312 10.6495C1.95703 11.0479 0 13.0635 0 15.8292L0 17.3292C0 20.001 1.18359 21.1963 3.72656 21.1963ZM11.5547 21.1963L30.3398 21.1963L30.3398 19.3096L11.5547 19.3096ZM8.625 23.7276C10.957 23.7276 12.7852 21.8995 12.7852 19.5674C12.7852 17.2237 10.957 15.3956 8.625 15.3956C6.28125 15.3956 4.45312 17.2237 4.45312 19.5674C4.45312 21.8995 6.28125 23.7276 8.625 23.7276ZM8.625 21.9581C7.27734 21.9581 6.22266 20.9034 6.22266 19.5674C6.22266 18.2198 7.27734 17.1651 8.625 17.1651C9.96094 17.1651 11.0156 18.2198 11.0156 19.5674C11.0156 20.9034 9.96094 21.9581 8.625 21.9581ZM33.1289 23.7276C35.4727 23.7276 37.3008 21.8995 37.3008 19.5674C37.3008 17.2237 35.4727 15.3956 33.1289 15.3956C30.7852 15.3956 28.957 17.2237 28.957 19.5674C28.957 21.8995 30.7852 23.7276 33.1289 23.7276ZM33.1289 21.9581C31.793 21.9581 30.7266 20.9034 30.7266 19.5674C30.7266 18.2198 31.793 17.1651 33.1289 17.1651C34.4648 17.1651 35.5312 18.2198 35.5312 19.5674C35.5312 20.9034 34.4648 21.9581 33.1289 21.9581Z" fill="black" fill-opacity="0.85"/>
  <path d="M18.2695 22.8838C17.6367 22.8838 17.3672 23.3995 17.707 23.9502L20.2383 28.1104C20.5547 28.6495 21.1875 28.626 21.5039 28.1104L24.0586 23.9502C24.3984 23.3995 24.1055 22.8838 23.4844 22.8838Z" fill="black" fill-opacity="0.85"/>
  <path d="M18.2695 17.4112L23.4844 17.4112C24.1055 17.4112 24.3984 16.9073 24.0586 16.3565L21.5039 12.1846C21.1875 11.669 20.5547 11.6573 20.2383 12.1846L17.707 16.3448C17.3672 16.8956 17.6367 17.4112 18.2695 17.4112Z" fill="black" fill-opacity="0.85"/>
 </g>
</svg>
