<?xml version="1.0" encoding="UTF-8"?>
<!--Generator: Apple Native CoreSVG 360-->
<!DOCTYPE svg
PUBLIC "-//W3C//DTD SVG 1.1//EN"
       "http://www.w3.org/Graphics/SVG/1.1/DTD/svg11.dtd">
<svg version="1.1" xmlns="http://www.w3.org/2000/svg" xmlns:xlink="http://www.w3.org/1999/xlink" viewBox="0 0 38.3086 23.4492">
 <g>
  <rect height="23.4492" opacity="0" width="38.3086" x="0" y="0"/>
  <path d="M7.86328 6.25781L8.48438 6.25781C8.88281 6.25781 9.17578 5.96484 9.17578 5.56641L9.17578 0.703125C9.17578 0.304688 8.88281 0.0117188 8.48438 0.0117188L7.86328 0.0117188C7.46484 0.0117188 7.17188 0.304688 7.17188 0.703125L7.17188 5.56641C7.17188 5.96484 7.46484 6.25781 7.86328 6.25781ZM7.86328 14.8477L8.48438 14.8477C8.88281 14.8477 9.17578 14.5547 9.17578 14.1562L9.17578 9.30469C9.17578 8.90625 8.88281 8.61328 8.48438 8.61328L7.86328 8.61328C7.46484 8.61328 7.17188 8.90625 7.17188 9.30469L7.17188 14.1562C7.17188 14.5547 7.46484 14.8477 7.86328 14.8477ZM7.86328 23.4492L8.48438 23.4492C8.88281 23.4492 9.17578 23.1562 9.17578 22.7695L9.17578 17.8945C9.17578 17.4961 8.88281 17.2031 8.48438 17.2031L7.86328 17.2031C7.46484 17.2031 7.17188 17.4961 7.17188 17.8945L7.17188 22.7695C7.17188 23.1562 7.46484 23.4492 7.86328 23.4492ZM29.4609 6.25781L30.0938 6.25781C30.4922 6.25781 30.7852 5.96484 30.7852 5.56641L30.7852 0.703125C30.7852 0.304688 30.4922 0.0117188 30.0938 0.0117188L29.4609 0.0117188C29.0742 0.0117188 28.7812 0.304688 28.7812 0.703125L28.7812 5.56641C28.7812 5.96484 29.0742 6.25781 29.4609 6.25781ZM29.4609 14.8477L30.0938 14.8477C30.4922 14.8477 30.7852 14.5547 30.7852 14.1562L30.7852 9.30469C30.7852 8.90625 30.4922 8.61328 30.0938 8.61328L29.4609 8.61328C29.0742 8.61328 28.7812 8.90625 28.7812 9.30469L28.7812 14.1562C28.7812 14.5547 29.0742 14.8477 29.4609 14.8477ZM29.4609 23.4492L30.0938 23.4492C30.4922 23.4492 30.7852 23.1562 30.7852 22.7695L30.7852 17.8945C30.7852 17.4961 30.4922 17.2031 30.0938 17.2031L29.4609 17.2031C29.0742 17.2031 28.7812 17.4961 28.7812 17.8945L28.7812 22.7695C28.7812 23.1562 29.0742 23.4492 29.4609 23.4492ZM0 14.332C0 14.9648 0.515625 15.2344 1.06641 14.8945L5.22656 12.3633C5.75391 12.0352 5.74219 11.4141 5.22656 11.0859L1.05469 8.53125C0.503906 8.19141 0 8.48438 0 9.10547ZM37.957 14.332L37.957 9.10547C37.957 8.48438 37.4531 8.20312 36.8906 8.53125L32.7305 11.0859C32.2148 11.4258 32.2031 12.0234 32.7305 12.3633L36.8906 14.8945C37.4531 15.2227 37.957 14.9648 37.957 14.332Z" fill="black" fill-opacity="0.85"/>
  <path d="M18.9609 22.3477C23.1094 22.3477 24.9727 21.4102 24.9727 19.0195L24.9727 9.58594L25.4414 9.58594C25.9688 9.58594 26.3906 9.17578 26.3789 8.67188L26.3672 8.26172C26.3438 7.74609 25.9688 7.34766 25.4297 7.34766L24.9727 7.34766L24.9727 5.00391C24.9727 2.54297 22.7109 1.08984 18.9727 1.10156C15.2578 1.10156 12.9844 2.53125 12.9844 5.00391L12.9844 7.34766L12.5273 7.34766C11.9883 7.34766 11.6016 7.74609 11.5898 8.25L11.5781 8.67188C11.5664 9.17578 11.9883 9.58594 12.5156 9.58594L12.9844 9.58594L12.9844 19.0195C12.9844 21.4102 14.8359 22.3477 18.9609 22.3477ZM18.9727 20.6953C15.8789 20.6836 14.6719 20.2031 14.6719 18.9727L14.6719 5.01562C14.6719 3.58594 16.1602 2.77734 18.9609 2.77734C21.7969 2.77734 23.2969 3.58594 23.2969 5.00391L23.2969 18.9727C23.2969 20.2031 22.0781 20.6836 18.9727 20.6953ZM18.9727 10.0312C19.7109 10.043 20.9531 10.1016 21.3516 10.1133C21.9844 10.1133 22.3008 9.84375 22.3594 9.16406L22.4883 7.64062C22.5938 6.41016 21.7852 5.94141 18.9844 5.92969C16.1836 5.92969 15.3516 6.41016 15.4688 7.65234L15.6094 9.15234C15.668 9.84375 15.9492 10.1133 16.6055 10.1016C17.0156 10.1133 18.1992 10.043 18.9727 10.0312ZM18.9727 18.7383C21.7617 18.7266 22.6523 18.3164 22.4531 17.0391L22.3477 16.3008C22.1953 15.2695 21.3867 14.9531 18.9844 14.9648C16.5703 14.9531 15.7617 15.2812 15.6094 16.3008L15.5039 17.0273C15.293 18.3281 16.1953 18.7266 18.9727 18.7383Z" fill="black" fill-opacity="0.85"/>
 </g>
</svg>
