<?xml version="1.0" encoding="UTF-8"?>
<!--Generator: Apple Native CoreSVG 360-->
<!DOCTYPE svg
PUBLIC "-//W3C//DTD SVG 1.1//EN"
       "http://www.w3.org/Graphics/SVG/1.1/DTD/svg11.dtd">
<svg version="1.1" xmlns="http://www.w3.org/2000/svg" xmlns:xlink="http://www.w3.org/1999/xlink" viewBox="0 0 43.1514 17.5664">
 <g>
  <rect height="17.5664" opacity="0" width="43.1514" x="0" y="0"/>
  <path d="M12.2593 3.14062L13.103 3.14062C13.6304 3.14062 13.8413 2.94141 14.0171 2.49609L14.7202 0.75C14.8843 0.363281 14.6968 0.0234375 14.2866 0.0234375L13.5249 0.0234375C13.1148 0.0234375 12.8687 0.222656 12.6812 0.574219L11.7671 2.35547C11.5679 2.70703 11.7554 3.14062 12.2593 3.14062ZM9.03663 9.65625L10.3374 9.65625C10.8765 9.65625 11.1929 9.46875 11.3921 8.96484L12.4116 6.45703C12.5757 6.04688 12.3179 5.64844 11.8726 5.64844L10.7124 5.64844C10.314 5.64844 9.97413 5.84766 9.78663 6.21094L8.48585 8.74219C8.2632 9.1875 8.53273 9.65625 9.03663 9.65625ZM5.47413 17.5664L6.99757 17.5664C7.7007 17.5664 8.05226 17.2266 8.25148 16.7227L9.66945 13.2188C9.8921 12.7031 9.56398 12.1992 8.98976 12.1992L7.66554 12.1992C6.93898 12.1992 6.56398 12.4805 6.31788 12.9727L4.65382 16.2656C4.33741 16.8633 4.56007 17.5664 5.47413 17.5664ZM29.6968 3.14062L30.5405 3.14062C31.0444 3.14062 31.2319 2.70703 31.0327 2.35547L30.1187 0.574219C29.9312 0.222656 29.6851 0.0234375 29.2749 0.0234375L28.5132 0.0234375C28.103 0.0234375 27.9273 0.363281 28.0796 0.75L28.7827 2.49609C28.9585 2.94141 29.1694 3.14062 29.6968 3.14062ZM32.4624 9.65625L33.7632 9.65625C34.2671 9.65625 34.5366 9.1875 34.314 8.74219L33.0132 6.21094C32.8257 5.84766 32.4859 5.64844 32.0874 5.64844L30.9273 5.64844C30.4819 5.64844 30.2241 6.04688 30.3882 6.45703L31.4077 8.96484C31.6069 9.46875 31.9234 9.65625 32.4624 9.65625ZM35.8023 17.5664L37.3374 17.5664C38.2398 17.5664 38.4624 16.8633 38.146 16.2656L36.4937 12.9727C36.2359 12.4805 35.8609 12.1992 35.1343 12.1992L33.8101 12.1992C33.2359 12.1992 32.9077 12.7031 33.1304 13.2188L34.5484 16.7227C34.7476 17.2266 35.0991 17.5664 35.8023 17.5664ZM13.9702 13.6875C13.9702 14.1445 14.3335 14.5078 14.7905 14.5078L15.5288 14.5078C15.9976 14.5078 16.3491 14.1445 16.3491 13.6875L16.3491 12.7852L26.3101 12.7852L26.3101 13.6875C26.3101 14.1445 26.6734 14.5078 27.1421 14.5078L27.8687 14.5078C28.3374 14.5078 28.7007 14.1445 28.7007 13.6875L28.7007 9.52734C28.7007 8.48438 28.5484 7.85156 27.9038 7.14844L27.2827 6.46875L26.6265 4.59375C26.2749 3.57422 25.5835 3.15234 24.7163 3.04688C24.3062 3 22.9468 2.96484 21.3296 2.96484C19.7241 2.96484 18.3648 3 17.9429 3.04688C17.0757 3.15234 16.396 3.57422 16.0327 4.59375L15.3882 6.46875L14.7554 7.14844C14.1109 7.85156 13.9702 8.48438 13.9702 9.52734ZM17.0874 6.50391C16.7944 6.50391 16.689 6.28125 16.7827 6.01172L17.1694 4.85156C17.3101 4.41797 17.5444 4.27734 17.9194 4.23047C18.353 4.17188 19.5601 4.125 21.3296 4.125C23.1109 4.125 24.3062 4.17188 24.7398 4.23047C25.1148 4.27734 25.3491 4.41797 25.4898 4.85156L25.8882 6.01172C25.9819 6.28125 25.8648 6.50391 25.5718 6.50391ZM16.2202 10.3945C15.8335 10.3945 15.5523 10.1133 15.5523 9.72656L15.5523 8.75391C15.5523 8.37891 15.8335 8.09766 16.2202 8.09766C16.6069 8.09766 16.8882 8.36719 16.8882 8.75391L16.8882 9.72656C16.8882 10.1133 16.6069 10.3945 16.2202 10.3945ZM19.9116 10.0898C19.6069 10.0898 19.4077 9.89062 19.4077 9.5625L19.4077 8.92969C19.4077 8.60156 19.6069 8.40234 19.9116 8.40234L22.7241 8.40234C23.0405 8.40234 23.2398 8.60156 23.2398 8.92969L23.2398 9.5625C23.2398 9.89062 23.0405 10.0898 22.7241 10.0898ZM26.4976 10.3945C26.1343 10.3945 25.8413 10.1016 25.8413 9.72656L25.8413 8.75391C25.8413 8.37891 26.1343 8.09766 26.4976 8.09766C26.8843 8.09766 27.1655 8.36719 27.1655 8.75391L27.1655 9.72656C27.1655 10.1133 26.8843 10.3945 26.4976 10.3945Z" fill="black" fill-opacity="0.85"/>
  <path d="M4.56007 9.85547C5.11085 10.1953 5.61476 9.92578 5.61476 9.29297L5.61476 4.07812C5.61476 3.45703 5.11085 3.16406 4.56007 3.50391L0.399914 6.05859C-0.127429 6.375-0.139148 6.99609 0.399914 7.32422ZM38.2515 9.85547L42.4116 7.32422C42.9273 6.98438 42.9273 6.38672 42.4116 6.05859L38.2398 3.50391C37.6773 3.17578 37.1851 3.45703 37.1851 4.07812L37.1851 9.29297C37.1851 9.92578 37.689 10.1836 38.2515 9.85547Z" fill="black" fill-opacity="0.85"/>
 </g>
</svg>
