<?xml version="1.0" encoding="UTF-8"?>
<!--Generator: Apple Native CoreSVG 360-->
<!DOCTYPE svg
PUBLIC "-//W3C//DTD SVG 1.1//EN"
       "http://www.w3.org/Graphics/SVG/1.1/DTD/svg11.dtd">
<svg version="1.1" xmlns="http://www.w3.org/2000/svg" xmlns:xlink="http://www.w3.org/1999/xlink" viewBox="0 0 24 34.1367">
 <g>
  <rect height="34.1367" opacity="0" width="24" x="0" y="0"/>
  <path d="M8.0625 23.0742C12.5625 23.0742 14.5781 22.0547 14.5781 19.4648L14.5781 4.25391C14.5781 1.58203 12.1055 0 8.0625 0C3.99609 0 1.53516 1.58203 1.53516 4.25391L1.53516 19.4648C1.53516 22.0547 3.5625 23.0742 8.0625 23.0742ZM8.0625 21.2461C4.69922 21.2461 3.38672 20.7305 3.38672 19.4062L3.38672 4.25391C3.38672 2.73047 5.01562 1.85156 8.0625 1.85156C11.0977 1.85156 12.7266 2.73047 12.7266 4.25391L12.7266 19.4062C12.7266 20.7305 11.4141 21.2461 8.0625 21.2461ZM8.0625 9.71484C8.90625 9.71484 10.1836 9.78516 10.6172 9.78516C11.332 9.78516 11.6484 9.49219 11.7188 8.75391L11.8594 7.11328C11.9766 5.76562 11.0742 5.25 8.0625 5.25C5.02734 5.25 4.13672 5.76562 4.25391 7.11328L4.39453 8.75391C4.46484 9.49219 4.78125 9.78516 5.48438 9.78516C5.92969 9.78516 7.25391 9.71484 8.0625 9.71484ZM8.0625 19.125C11.0742 19.125 12.0352 18.6797 11.8242 17.2852L11.6953 16.4883C11.5195 15.375 10.6641 15.0234 8.0625 15.0234C5.44922 15.0234 4.58203 15.375 4.40625 16.4883L4.28906 17.2852C4.07812 18.6797 5.02734 19.125 8.0625 19.125ZM13.5703 9.23438L15.0703 9.23438C15.6562 9.23438 16.1016 8.78906 16.1016 8.23828L16.1016 7.79297C16.1016 7.23047 15.6562 6.79688 15.0703 6.79688L13.5703 6.79688ZM2.53125 9.23438L2.53125 6.79688L1.03125 6.79688C0.457031 6.79688 0 7.23047 0 7.79297L0 8.23828C0 8.78906 0.457031 9.23438 1.03125 9.23438Z" fill="black" fill-opacity="0.85"/>
  <path d="M18.3398 33.2461L15.1406 30.0469C14.543 29.4492 14.5312 28.7461 15.1289 28.1484L18.1055 25.1719C18.7031 24.5742 19.3711 24.5508 19.9805 25.1602L23.2031 28.3828C23.7773 28.957 23.8242 29.6836 23.2148 30.293L20.25 33.2578C19.6523 33.8555 18.9375 33.8438 18.3398 33.2461ZM15.457 27.1406L13.2773 26.9648C13.0781 26.9531 12.9023 26.8945 12.7969 26.7891C12.5625 26.5547 12.5742 26.2266 12.832 25.9805L15.9492 22.8633C16.1836 22.6172 16.5117 22.6055 16.7461 22.8398C16.8516 22.9453 16.9102 23.1328 16.9336 23.3086L17.1094 25.5Z" fill="black" fill-opacity="0.85"/>
 </g>
</svg>
