<?xml version="1.0" encoding="UTF-8"?>
<!--Generator: Apple Native CoreSVG 360-->
<!DOCTYPE svg
PUBLIC "-//W3C//DTD SVG 1.1//EN"
       "http://www.w3.org/Graphics/SVG/1.1/DTD/svg11.dtd">
<svg version="1.1" xmlns="http://www.w3.org/2000/svg" xmlns:xlink="http://www.w3.org/1999/xlink" viewBox="0 0 23.1914 28.1367">
 <g>
  <rect height="28.1367" opacity="0" width="23.1914" x="0" y="0"/>
  <path d="M11.3672 1.94531C13.8984 1.94531 16.1836 2.82422 17.9297 4.39453C18.4102 4.82812 18.9609 4.93359 19.3828 4.57031C19.8281 4.18359 19.8281 3.53906 19.3242 3.08203C17.2148 1.13672 14.4023 0.0351562 11.3672 0.0351562C8.33203 0.0351562 5.51953 1.13672 3.41016 3.08203C2.91797 3.53906 2.91797 4.18359 3.35156 4.57031C3.78516 4.93359 4.32422 4.82812 4.80469 4.39453C6.55078 2.82422 8.84766 1.94531 11.3672 1.94531Z" fill="black" fill-opacity="0.85"/>
  <path d="M11.3906 6.64453C12.6094 6.64453 13.7344 6.99609 14.6133 7.69922C15.1172 8.0625 15.6445 8.22656 16.0664 7.85156C16.5 7.46484 16.5117 6.76172 15.9844 6.33984C14.7188 5.32031 13.1133 4.73438 11.3906 4.73438C9.66797 4.73438 8.0625 5.32031 6.79688 6.33984C6.25781 6.76172 6.26953 7.46484 6.71484 7.85156C7.13672 8.22656 7.65234 8.0625 8.16797 7.69922C9.07031 7.01953 10.1719 6.64453 11.3906 6.64453Z" fill="black" fill-opacity="0.85"/>
  <path d="M0 23.3672C0 24.7031 0.785156 25.6875 2.21484 25.6875L20.625 25.6875C22.043 25.6875 22.8398 24.7031 22.8398 23.3672L22.8398 20.5312C22.8398 18.9258 22.6172 17.8945 21.5859 16.7812L20.6484 15.7617L19.6758 12.9492C19.1133 11.3203 17.9766 10.6172 16.6055 10.4648C15.9609 10.3828 13.8633 10.3242 11.4141 10.3242C8.95312 10.3242 6.87891 10.3828 6.22266 10.4648C4.85156 10.6172 3.72656 11.332 3.16406 12.9492L2.16797 15.7617L1.25391 16.7812C0.222656 17.9062 0 18.9258 0 20.5312ZM1.61719 22.9922L1.61719 20.5312C1.61719 19.2539 1.75781 18.668 2.51953 17.7891L3.65625 16.4883L4.64062 13.6406C5.01562 12.5508 5.57812 12.2109 6.42188 12.1055C7.01953 12.0352 8.91797 11.9531 11.4141 11.9531C13.9102 11.9531 15.8203 12.0352 16.418 12.1055C17.2617 12.2109 17.8242 12.5508 18.1992 13.6406L19.1719 16.4883L20.3203 17.7891C21.082 18.668 21.2227 19.2539 21.2227 20.5312L21.2227 22.9922C21.2227 23.6953 20.9883 24.0703 20.2852 24.0703L2.55469 24.0703C1.85156 24.0703 1.61719 23.6953 1.61719 22.9922ZM5.32031 16.2305L17.5078 16.2305C17.9531 16.2305 18.0938 15.9141 17.9531 15.5273L17.4023 13.8516C17.1914 13.2422 16.8516 13.0195 16.3008 12.9492C15.6797 12.8555 13.9688 12.7852 11.4141 12.7852C8.85938 12.7852 7.14844 12.8555 6.52734 12.9492C5.98828 13.0195 5.64844 13.2422 5.4375 13.8516L4.875 15.5273C4.73438 15.9141 4.88672 16.2305 5.32031 16.2305ZM4.08984 21.7383C4.64062 21.7383 5.05078 21.3398 5.05078 20.7773L5.05078 19.3828C5.05078 18.8203 4.64062 18.4336 4.08984 18.4336C3.53906 18.4336 3.12891 18.832 3.12891 19.3828L3.12891 20.7773C3.12891 21.3281 3.53906 21.7383 4.08984 21.7383ZM9.38672 21.3164L13.418 21.3164C13.8633 21.3164 14.168 21.0234 14.168 20.5312L14.168 19.6172C14.168 19.1484 13.8633 18.8672 13.418 18.8672L9.38672 18.8672C8.94141 18.8672 8.64844 19.1484 8.64844 19.6172L8.64844 20.5312C8.64844 21.0234 8.94141 21.3164 9.38672 21.3164ZM18.832 21.7383C19.3945 21.7383 19.8047 21.3398 19.8047 20.7773L19.8047 19.3828C19.8047 18.8203 19.3945 18.4336 18.832 18.4336C18.3047 18.4336 17.8828 18.8438 17.8828 19.3828L17.8828 20.7773C17.8828 21.3281 18.3047 21.7383 18.832 21.7383ZM1.92188 28.1367L3.04688 28.1367C3.76172 28.1367 4.3125 27.5859 4.3125 26.8828L4.3125 24.9258L0.65625 24.3984L0.65625 26.8828C0.65625 27.5859 1.21875 28.1367 1.92188 28.1367ZM19.7812 28.1367L20.918 28.1367C21.6211 28.1367 22.1719 27.5859 22.1719 26.8828L22.1719 24.3984L18.5273 24.9258L18.5273 26.8828C18.5273 27.5859 19.0664 28.1367 19.7812 28.1367Z" fill="black" fill-opacity="0.85"/>
 </g>
</svg>
