<?xml version="1.0" encoding="UTF-8"?>
<!--Generator: Apple Native CoreSVG 360-->
<!DOCTYPE svg
PUBLIC "-//W3C//DTD SVG 1.1//EN"
       "http://www.w3.org/Graphics/SVG/1.1/DTD/svg11.dtd">
<svg version="1.1" xmlns="http://www.w3.org/2000/svg" xmlns:xlink="http://www.w3.org/1999/xlink" viewBox="0 0 42.3633 21.457">
 <g>
  <rect height="21.457" opacity="0" width="42.3633" x="0" y="0"/>
  <path d="M21.1523 21.457C23.625 21.457 24.832 20.2852 24.832 17.8359L24.832 12.1055C24.832 10.4297 24.3633 9.52734 23.0156 8.50781L13.9102 1.58203C12.3633 0.421875 11.168 0.0117188 9.25781 0.0117188L3.57422 0.0117188C1.20703 0.0117188 0 1.20703 0 3.55078L0 17.8359C0 20.2852 1.19531 21.457 3.67969 21.457ZM21.082 10.6523L3.60938 10.6523C2.53125 10.6523 1.88672 10.0312 1.88672 8.90625L1.88672 3.64453C1.88672 2.50781 2.51953 1.89844 3.60938 1.89844L9.25781 1.89844C10.7578 1.89844 11.625 2.15625 12.6211 2.95312L21.3516 9.63281C21.832 9.98438 21.7031 10.6523 21.082 10.6523Z" fill="black" fill-opacity="0.85"/>
  <path d="M30.0938 17.2383C30.457 17.2383 30.6797 17.1094 31.043 16.7695L41.5898 6.14062C41.8945 5.82422 42.0117 5.60156 42.0117 5.26172C42.0117 4.76953 41.5781 4.34766 41.0742 4.34766C40.7109 4.34766 40.4883 4.47656 40.125 4.81641L29.5781 15.4336C29.2734 15.75 29.1562 15.9727 29.1562 16.3242C29.1562 16.8164 29.5898 17.2383 30.0938 17.2383ZM41.0742 17.2383C41.5781 17.2383 42.0117 16.8164 42.0117 16.3242C42.0117 15.9727 41.8945 15.75 41.5898 15.4336L31.043 4.81641C30.6797 4.47656 30.457 4.34766 30.0938 4.34766C29.5898 4.34766 29.1562 4.76953 29.1562 5.26172C29.1562 5.60156 29.2734 5.82422 29.5781 6.14062L40.125 16.7695C40.4883 17.1094 40.7109 17.2383 41.0742 17.2383Z" fill="black" fill-opacity="0.85"/>
 </g>
</svg>
