<?xml version="1.0" encoding="UTF-8"?>
<!--Generator: Apple Native CoreSVG 360-->
<!DOCTYPE svg
PUBLIC "-//W3C//DTD SVG 1.1//EN"
       "http://www.w3.org/Graphics/SVG/1.1/DTD/svg11.dtd">
<svg version="1.1" xmlns="http://www.w3.org/2000/svg" xmlns:xlink="http://www.w3.org/1999/xlink" viewBox="0 0 23.1914 31.043">
 <g>
  <rect height="31.043" opacity="0" width="23.1914" x="0" y="0"/>
  <path d="M11.3672 1.91016C13.8984 1.91016 16.1836 2.78906 17.9297 4.35938C18.4102 4.78125 18.9609 4.89844 19.3828 4.52344C19.8281 4.14844 19.8281 3.49219 19.3242 3.03516C17.2148 1.08984 14.4023 0 11.3672 0C8.33203 0 5.51953 1.08984 3.41016 3.03516C2.91797 3.49219 2.91797 4.14844 3.35156 4.52344C3.78516 4.89844 4.32422 4.78125 4.80469 4.35938C6.55078 2.78906 8.84766 1.91016 11.3672 1.91016Z" fill="black" fill-opacity="0.85"/>
  <path d="M11.3906 6.59766C12.6094 6.59766 13.7344 6.94922 14.6133 7.65234C15.1172 8.02734 15.6445 8.17969 16.0664 7.80469C16.5 7.41797 16.5117 6.71484 15.9844 6.30469C14.7188 5.28516 13.1133 4.6875 11.3906 4.6875C9.66797 4.6875 8.0625 5.28516 6.79688 6.30469C6.25781 6.71484 6.26953 7.41797 6.71484 7.80469C7.13672 8.17969 7.65234 8.01562 8.16797 7.65234C9.07031 6.97266 10.1719 6.59766 11.3906 6.59766Z" fill="black" fill-opacity="0.85"/>
  <path d="M11.4141 25.5703C14.6836 25.5703 18.9023 25.4062 20.6836 25.1953C22.0547 25.043 22.8398 24.2812 22.8398 22.9688L22.8398 21.2109C22.8398 19.5938 22.5 18.6445 21.6094 17.4961L20.8359 16.5117C20.4844 14.8125 19.8633 13.043 19.5352 12.3516C19.0078 11.2266 17.9648 10.5703 16.6641 10.3945C16.0312 10.3125 13.957 10.2539 11.4141 10.2539C8.87109 10.2539 6.80859 10.3242 6.17578 10.3945C4.875 10.5586 3.83203 11.2266 3.30469 12.3516C2.96484 13.043 2.35547 14.8125 1.99219 16.5117L1.23047 17.4961C0.328125 18.6445 0 19.5938 0 21.2109L0 22.9688C0 24.2812 0.785156 25.043 2.15625 25.1953C3.9375 25.4062 8.15625 25.5703 11.4141 25.5703ZM11.4141 23.9766C8.12109 23.9766 4.01953 23.8359 2.51953 23.6484C1.80469 23.5547 1.59375 23.2617 1.59375 22.5938L1.59375 21.2109C1.59375 19.957 1.76953 19.3945 2.48438 18.4805L3.46875 17.1797C3.71484 15.832 4.34766 13.9219 4.73438 13.0664C5.02734 12.457 5.54297 12.0938 6.35156 12.0117C6.96094 11.9297 8.84766 11.8359 11.4141 11.8359C13.9922 11.8359 15.9258 11.9297 16.4531 12.0117C17.2969 12.1055 17.8125 12.4688 18.1055 13.0664C18.5039 13.9219 19.1133 15.832 19.3594 17.1797L20.3555 18.4805C21.0703 19.3945 21.2461 19.957 21.2461 21.2109L21.2461 22.5938C21.2461 23.2617 21.0352 23.5664 20.3203 23.6484C18.8203 23.8359 14.7188 23.9766 11.4141 23.9766ZM4.59375 16.3594C4.52344 16.6758 4.65234 16.8164 5.01562 16.793C6.51562 16.6758 8.30859 16.5938 11.4141 16.5938C14.5195 16.5938 16.3242 16.6758 17.8242 16.793C18.1758 16.8164 18.3164 16.6758 18.2461 16.3594C18.0117 15.3398 17.5898 14.0625 17.2852 13.5352C17.0391 13.1133 16.7695 12.9258 16.2773 12.8555C15.5859 12.7617 14.0508 12.7031 11.4141 12.7031C8.78906 12.7031 7.24219 12.7617 6.55078 12.8555C6.07031 12.9258 5.78906 13.1133 5.55469 13.5352C5.26172 14.0625 4.82812 15.3398 4.59375 16.3594ZM4.52344 22.7578C5.39062 22.7578 6.03516 22.1016 6.03516 21.2344C6.03516 20.3789 5.39062 19.7344 4.52344 19.7344C3.66797 19.7344 3.01172 20.3789 3.01172 21.2344C3.01172 22.1016 3.66797 22.7578 4.52344 22.7578ZM8.82422 22.3828L14.0039 22.3828C14.6602 22.3828 15.1055 21.9375 15.1055 21.293C15.1055 20.6484 14.6602 20.2148 14.0039 20.2148L8.82422 20.2148C8.17969 20.2148 7.73438 20.6484 7.73438 21.293C7.73438 21.9375 8.17969 22.3828 8.82422 22.3828ZM18.3047 22.7578C19.1719 22.7578 19.8281 22.1016 19.8281 21.2344C19.8281 20.3789 19.1719 19.7344 18.3047 19.7344C17.4492 19.7344 16.8047 20.3789 16.8047 21.2344C16.8047 22.1016 17.4492 22.7578 18.3047 22.7578ZM1.91016 28.0898L3.04688 28.0898C3.75 28.0898 4.30078 27.5508 4.30078 26.8594L4.30078 24.5859L0.679688 24.0586L0.679688 26.8594C0.679688 27.5508 1.21875 28.0898 1.91016 28.0898ZM19.7695 28.0898L20.9062 28.0898C21.6094 28.0898 22.1367 27.5508 22.1367 26.8594L22.1367 24.0586L18.5156 24.5859L18.5156 26.8594C18.5156 27.5508 19.0664 28.0898 19.7695 28.0898Z" fill="black" fill-opacity="0.85"/>
 </g>
</svg>
