<?xml version="1.0" encoding="UTF-8"?>
<!--Generator: Apple Native CoreSVG 360-->
<!DOCTYPE svg
PUBLIC "-//W3C//DTD SVG 1.1//EN"
       "http://www.w3.org/Graphics/SVG/1.1/DTD/svg11.dtd">
<svg version="1.1" xmlns="http://www.w3.org/2000/svg" xmlns:xlink="http://www.w3.org/1999/xlink" viewBox="0 0 27.5273 30.9961">
 <g>
  <rect height="30.9961" opacity="0" width="27.5273" x="0" y="0"/>
  <path d="M11.2852 30.9844L11.2852 25.1367C11.2852 23.0625 9.38672 21.8438 6.25781 21.8438C3.11719 21.8438 1.18359 23.0625 1.18359 25.1367L1.18359 30.9844L2.64844 30.9844L2.64844 25.1367C2.64844 23.9531 3.90234 23.2969 6.25781 23.2969C8.60156 23.2969 9.83203 23.9531 9.83203 25.1367L9.83203 30.9844ZM6.25781 29.3672C6.90234 29.3672 7.89844 29.4141 8.22656 29.4141C8.77734 29.4141 9.03516 29.1914 9.09375 28.6172L9.1875 27.3398C9.26953 26.2969 8.60156 25.8867 6.25781 25.8867C3.90234 25.8867 3.19922 26.2969 3.29297 27.3398L3.41016 28.6172C3.45703 29.1914 3.70312 29.4141 4.26562 29.4141C4.60547 29.4141 5.63672 29.3672 6.25781 29.3672ZM10.4883 28.9922L11.6602 28.9922C12.1172 28.9922 12.4688 28.6523 12.4688 28.2188L12.4688 27.8789C12.4688 27.4219 12.1172 27.082 11.6602 27.082L10.4883 27.082ZM1.99219 28.9922L1.99219 27.082L0.820312 27.082C0.363281 27.082 0 27.4219 0 27.8789L0 28.2188C0 28.6523 0.363281 28.9922 0.820312 28.9922Z" fill="black" fill-opacity="0.85"/>
  <path d="M11.6953 21.2578C13.1016 22.6523 14.8711 23.5312 16.7812 23.5312C17.2617 23.5312 17.5781 23.2266 17.5781 22.793C17.5781 22.3945 17.2734 22.1367 16.7461 22.0898C15.2578 22.0078 13.8164 21.3867 12.6797 20.2734C11.5547 19.1367 10.9453 17.6953 10.8516 16.1953C10.8047 15.6211 10.5586 15.3867 10.1016 15.3867C9.75 15.3867 9.39844 15.6445 9.43359 16.1602C9.55078 18.082 10.3008 19.8516 11.6953 21.2578Z" fill="black" fill-opacity="0.85"/>
  <path d="M13.9453 18.9961C14.8828 19.9336 16.1602 20.4023 16.9453 20.4023C17.3789 20.4023 17.6719 20.1094 17.6719 19.7109C17.6719 19.3359 17.4023 19.043 16.8398 18.9727C16.1484 18.8906 15.5039 18.5742 14.9297 18.0234C14.3906 17.4492 14.0742 16.793 13.9688 16.0195C13.8867 15.5156 13.6875 15.293 13.2305 15.293C12.832 15.2812 12.5039 15.6094 12.5625 16.1133C12.6797 17.2148 13.1484 18.1992 13.9453 18.9961Z" fill="black" fill-opacity="0.85"/>
  <path d="M20.9297 17.8828C24.4336 17.8828 25.9922 17.0859 25.9922 15.0703L25.9922 3.30469C25.9922 1.21875 24.082 0 20.9297 0C17.7891 0 15.8789 1.21875 15.8789 3.30469L15.8789 15.0703C15.8789 17.0859 17.4375 17.8828 20.9297 17.8828ZM20.9297 16.4297C18.3398 16.4297 17.332 16.043 17.332 15.0234L17.332 3.30469C17.332 2.12109 18.5859 1.46484 20.9297 1.46484C23.2852 1.46484 24.5273 2.12109 24.5273 3.30469L24.5273 15.0234C24.5273 16.043 23.5312 16.4297 20.9297 16.4297ZM20.9297 7.53516C21.5859 7.53516 22.5703 7.60547 22.9219 7.60547C23.4727 7.60547 23.7305 7.37109 23.7773 6.78516L23.8828 5.51953C23.9766 4.46484 23.2734 4.05469 20.9297 4.05469C18.5742 4.05469 17.8828 4.46484 17.9766 5.51953L18.082 6.78516C18.1289 7.37109 18.3867 7.60547 18.9492 7.60547C19.2773 7.60547 20.3086 7.53516 20.9297 7.53516ZM20.9297 14.8242C23.2734 14.8242 24.0234 14.4727 23.8594 13.3945L23.7656 12.7734C23.6367 11.8945 22.9453 11.625 20.9297 11.625C18.9141 11.625 18.2227 11.8945 18.0938 12.7734L18 13.3945C17.8477 14.4727 18.5859 14.8242 20.9297 14.8242ZM25.1836 7.17188L26.3555 7.17188C26.8242 7.17188 27.1758 6.82031 27.1758 6.38672L27.1758 6.04688C27.1758 5.60156 26.8242 5.25 26.3555 5.25L25.1836 5.25ZM16.6758 7.17188L16.6758 5.25L15.4922 5.25C15.0469 5.25 14.6836 5.60156 14.6836 6.04688L14.6836 6.38672C14.6836 6.82031 15.0469 7.17188 15.4922 7.17188Z" fill="black" fill-opacity="0.85"/>
 </g>
</svg>
