<?xml version="1.0" encoding="UTF-8"?>
<!--Generator: Apple Native CoreSVG 360-->
<!DOCTYPE svg
PUBLIC "-//W3C//DTD SVG 1.1//EN"
       "http://www.w3.org/Graphics/SVG/1.1/DTD/svg11.dtd">
<svg version="1.1" xmlns="http://www.w3.org/2000/svg" xmlns:xlink="http://www.w3.org/1999/xlink" viewBox="0 0 22.793 18.9961">
 <g>
  <rect height="18.9961" opacity="0" width="22.793" x="0" y="0"/>
  <path d="M12.2461 18.9727C14.5781 18.9727 16.4062 17.1445 16.4062 14.8125C16.4062 12.4688 14.5781 10.6406 12.2461 10.6406C9.90234 10.6406 8.07422 12.4688 8.07422 14.8125C8.07422 17.1445 9.90234 18.9727 12.2461 18.9727ZM12.2461 17.2031C10.8984 17.2031 9.84375 16.1484 9.84375 14.8125C9.84375 13.4648 10.8984 12.4102 12.2461 12.4102C13.582 12.4102 14.6367 13.4648 14.6367 14.8125C14.6367 16.1484 13.582 17.2031 12.2461 17.2031ZM14.2266 4.42969L15.5977 5.53125L18.8203 2.25C19.0781 1.96875 19.4062 1.86328 19.7812 1.86328L21.5742 1.86328C22.1133 1.86328 22.4414 1.52344 22.4414 1.01953C22.4414 0.515625 22.1133 0.175781 21.5742 0.175781L19.9922 0.175781C18.9961 0.175781 18.1289 0.457031 17.4609 1.14844ZM0 14.5547L0 16.4414L9.45703 16.4414L9.45703 14.5547ZM0 0.1875L0 2.08594C1.05469 1.93359 2.30859 1.88672 3.92578 1.88672L5.70703 1.88672C8.77734 1.88672 11.2148 3.02344 14.2383 5.67188C14.7773 6.15234 15.082 6.28125 15.7852 6.50391L17.0156 6.90234C18.3633 7.33594 18.9727 8.02734 18.9727 9.25781L18.9727 12.5039C18.9727 13.9102 18.4102 14.5547 17.1445 14.5547L15.4453 14.5547L15.4453 16.4414L17.1445 16.4414C19.7109 16.4414 20.8594 15.2227 20.8594 12.5039L20.8594 9.25781C20.8594 7.07812 19.8164 5.71875 17.5898 4.99219L15.7266 4.37109C13.3594 2.35547 10.1016 0 5.70703 0L3.92578 0C2.36719 0 1.10156 0.046875 0 0.1875Z" fill="black" fill-opacity="0.85"/>
 </g>
</svg>
