<?xml version="1.0" encoding="UTF-8"?>
<!--Generator: Apple Native CoreSVG 360-->
<!DOCTYPE svg
PUBLIC "-//W3C//DTD SVG 1.1//EN"
       "http://www.w3.org/Graphics/SVG/1.1/DTD/svg11.dtd">
<svg version="1.1" xmlns="http://www.w3.org/2000/svg" xmlns:xlink="http://www.w3.org/1999/xlink" viewBox="0 0 29.9168 17.8678">
 <g>
  <rect height="17.8678" opacity="0" width="29.9168" x="0" y="0"/>
  <path d="M2.15566 17.7171C2.97597 17.7171 3.21034 17.2952 3.30409 16.7562C4.35878 10.9202 6.78456 6.1507 11.9408 0.900704C12.2338 0.596017 11.9994 0.174142 11.6478 0.174142L11.1205 0.174142C10.8275 0.174142 10.5932 0.232736 10.1713 0.572579C5.99941 3.86555 1.68691 9.04524 0.0345623 16.6624C-0.0943439 17.2132 0.128312 17.7171 0.854875 17.7171ZM28.7924 17.7171C29.4486 17.7171 29.7064 17.2484 29.4955 16.6624C27.5502 11.4945 27.1635 6.60774 28.476 0.865548C28.5814 0.396798 28.3002 0.174142 27.9369 0.174142L27.4799 0.174142C27.0932 0.174142 26.8471 0.303048 26.7299 0.666329C24.9486 6.12727 25.0424 11.6585 26.4017 17.0257C26.4955 17.4359 26.7767 17.7171 27.3744 17.7171Z" fill="black" fill-opacity="0.85"/>
  <path d="M6.84316 15.1155C6.78456 15.5726 7.08925 15.971 7.54628 16.0413L8.27284 16.1468C8.74159 16.2054 9.14003 15.9007 9.21034 15.4437L9.32753 14.553L19.1947 15.9359L19.0658 16.8265C19.0072 17.2835 19.3119 17.6937 19.7689 17.7523L20.4955 17.8577C20.9642 17.928 21.3627 17.6234 21.433 17.1663L22.0072 13.053C22.1478 12.0101 22.101 11.3655 21.5619 10.5804L21.0346 9.81867L20.6478 7.87336C20.4369 6.81867 19.8158 6.30305 18.9721 6.08039C18.5619 5.97492 17.226 5.74055 15.6322 5.51789C14.0385 5.29524 12.6791 5.14289 12.2572 5.13117C11.39 5.11945 10.6517 5.43586 10.1596 6.3968L9.2455 8.16633L8.53066 8.75227C7.80409 9.34992 7.56972 9.9593 7.42909 11.0023ZM10.933 8.43586C10.64 8.4007 10.5697 8.16633 10.6986 7.90852L11.2494 6.80695C11.4486 6.40852 11.6947 6.30305 12.0697 6.30305C12.5033 6.30305 13.7103 6.42024 15.4682 6.66633C17.226 6.91242 18.4096 7.13508 18.8314 7.25227C19.1947 7.35774 19.4057 7.5218 19.4877 7.96711L19.7103 9.17414C19.7689 9.45539 19.6283 9.65461 19.3353 9.61945ZM9.53847 12.1624C9.15175 12.1155 8.91737 11.7991 8.96425 11.4241L9.10487 10.4515C9.15175 10.0765 9.46816 9.85383 9.85487 9.9007C10.2299 9.9593 10.476 10.264 10.4174 10.639L10.2885 11.5999C10.2299 11.9866 9.91347 12.221 9.53847 12.1624ZM13.2299 12.3851C12.9369 12.3382 12.7611 12.1155 12.808 11.7874L12.9017 11.1546C12.9369 10.8382 13.1713 10.6741 13.4642 10.7093L16.2533 11.1077C16.558 11.1429 16.7338 11.3773 16.6869 11.6937L16.5932 12.3148C16.558 12.6429 16.3236 12.8187 16.0189 12.7718ZM19.7103 13.5921C19.3471 13.5452 19.101 13.2288 19.1478 12.8538L19.2885 11.8929C19.3353 11.5179 19.6635 11.2835 20.0385 11.3304C20.4135 11.389 20.6596 11.6937 20.601 12.0687L20.4721 13.0413C20.4135 13.4163 20.0971 13.6507 19.7103 13.5921Z" fill="black" fill-opacity="0.85"/>
 </g>
</svg>
