<?xml version="1.0" encoding="UTF-8"?>
<!--Generator: Apple Native CoreSVG 360-->
<!DOCTYPE svg
PUBLIC "-//W3C//DTD SVG 1.1//EN"
       "http://www.w3.org/Graphics/SVG/1.1/DTD/svg11.dtd">
<svg version="1.1" xmlns="http://www.w3.org/2000/svg" xmlns:xlink="http://www.w3.org/1999/xlink" viewBox="0 0 27.5273 30.9961">
 <g>
  <rect height="30.9961" opacity="0" width="27.5273" x="0" y="0"/>
  <path d="M15.8906 30.9844L17.3438 30.9844L17.3438 25.1367C17.3438 23.9531 18.5742 23.2969 20.918 23.2969C23.2617 23.2969 24.5273 23.9531 24.5273 25.1367L24.5273 30.9844L25.9922 30.9844L25.9922 25.1367C25.9922 23.0625 24.0586 21.8438 20.918 21.8438C17.7773 21.8438 15.8906 23.0625 15.8906 25.1367ZM20.918 29.3672C21.5391 29.3672 22.5703 29.4141 22.8984 29.4141C23.4609 29.4141 23.7188 29.1914 23.7656 28.6172L23.8711 27.3398C23.9648 26.2969 23.2734 25.8867 20.918 25.8867C18.5742 25.8867 17.9062 26.2969 17.9766 27.3398L18.082 28.6172C18.1289 29.1914 18.3867 29.4141 18.9375 29.4141C19.2773 29.4141 20.2617 29.3672 20.918 29.3672ZM16.6875 28.9922L16.6875 27.082L15.5156 27.082C15.0469 27.082 14.707 27.4219 14.707 27.8789L14.707 28.2188C14.707 28.6523 15.0469 28.9922 15.5156 28.9922ZM25.1719 28.9922L26.3555 28.9922C26.8008 28.9922 27.1758 28.6523 27.1758 28.2188L27.1758 27.8789C27.1758 27.4219 26.8008 27.082 26.3555 27.082L25.1719 27.082Z" fill="black" fill-opacity="0.85"/>
  <path d="M15.4688 21.2578C16.875 19.8516 17.6133 18.082 17.7305 16.1602C17.7656 15.6445 17.4258 15.3867 17.0742 15.3867C16.6055 15.3867 16.3711 15.6211 16.3242 16.1953C16.2305 17.6953 15.6211 19.1367 14.4961 20.2734C13.3594 21.3867 11.918 22.0078 10.4297 22.0898C9.90234 22.1367 9.59766 22.3945 9.59766 22.793C9.59766 23.2266 9.91406 23.5312 10.3945 23.5312C12.3047 23.5312 14.0742 22.6523 15.4688 21.2578Z" fill="black" fill-opacity="0.85"/>
  <path d="M13.2188 18.9961C14.0156 18.1992 14.4961 17.2148 14.6133 16.1133C14.6719 15.6094 14.3438 15.2812 13.9453 15.293C13.4883 15.293 13.2773 15.5156 13.1953 16.0195C13.0898 16.793 12.7852 17.4492 12.2344 18.0234C11.6719 18.5742 11.0273 18.8906 10.3359 18.9727C9.76172 19.043 9.50391 19.3359 9.50391 19.7109C9.49219 20.1094 9.79688 20.4023 10.2305 20.4023C11.0039 20.4023 12.2812 19.9336 13.2188 18.9961Z" fill="black" fill-opacity="0.85"/>
  <path d="M6.23438 17.8828C9.73828 17.8828 11.2969 17.0859 11.2969 15.0703L11.2969 3.30469C11.2969 1.21875 9.38672 0 6.23438 0C3.09375 0 1.18359 1.21875 1.18359 3.30469L1.18359 15.0703C1.18359 17.0859 2.74219 17.8828 6.23438 17.8828ZM6.23438 16.4297C3.63281 16.4297 2.64844 16.043 2.64844 15.0234L2.64844 3.30469C2.64844 2.12109 3.87891 1.46484 6.23438 1.46484C8.58984 1.46484 9.84375 2.12109 9.84375 3.30469L9.84375 15.0234C9.84375 16.043 8.83594 16.4297 6.23438 16.4297ZM6.23438 7.53516C6.85547 7.53516 7.88672 7.60547 8.22656 7.60547C8.78906 7.60547 9.03516 7.37109 9.08203 6.78516L9.19922 5.51953C9.29297 4.46484 8.58984 4.05469 6.23438 4.05469C3.89062 4.05469 3.1875 4.46484 3.29297 5.51953L3.39844 6.78516C3.44531 7.37109 3.70312 7.60547 4.25391 7.60547C4.60547 7.60547 5.58984 7.53516 6.23438 7.53516ZM6.23438 14.8242C8.58984 14.8242 9.32812 14.4727 9.16406 13.3945L9.07031 12.7734C8.94141 11.8945 8.26172 11.625 6.23438 11.625C4.23047 11.625 3.53906 11.8945 3.39844 12.7734L3.30469 13.3945C3.14062 14.4727 3.90234 14.8242 6.23438 14.8242ZM1.98047 7.17188L1.98047 5.25L0.808594 5.25C0.351562 5.25 0 5.60156 0 6.04688L0 6.38672C0 6.82031 0.351562 7.17188 0.808594 7.17188ZM10.5 7.17188L11.6719 7.17188C12.1289 7.17188 12.4922 6.82031 12.4922 6.38672L12.4922 6.04688C12.4922 5.60156 12.1289 5.25 11.6719 5.25L10.5 5.25Z" fill="black" fill-opacity="0.85"/>
 </g>
</svg>
