<?xml version="1.0" encoding="UTF-8"?>
<!--Generator: Apple Native CoreSVG 360-->
<!DOCTYPE svg
PUBLIC "-//W3C//DTD SVG 1.1//EN"
       "http://www.w3.org/Graphics/SVG/1.1/DTD/svg11.dtd">
<svg version="1.1" xmlns="http://www.w3.org/2000/svg" xmlns:xlink="http://www.w3.org/1999/xlink" viewBox="0 0 26.7891 30.2695">
 <g>
  <rect height="30.2695" opacity="0" width="26.7891" x="0" y="0"/>
  <path d="M13.2188 30.2578C19.1367 30.2578 21.6562 28.957 21.6562 25.7695L21.6562 5.42578C21.6562 2.00391 18.5508 0 13.2188 0C7.89844 0 4.78125 2.00391 4.78125 5.42578L4.78125 25.7695C4.78125 28.957 7.3125 30.2578 13.2188 30.2578ZM13.2188 28.3125C8.69531 28.3125 6.73828 27.5508 6.73828 25.6758L6.73828 5.42578C6.73828 3.23438 9.12891 1.95703 13.2188 1.95703C17.3203 1.95703 19.6992 3.23438 19.6992 5.42578L19.6992 25.6758C19.6992 27.5508 17.7539 28.3125 13.2188 28.3125ZM13.2305 12.5859C14.2734 12.5859 16.0547 12.668 16.6406 12.668C17.5312 12.668 17.9062 12.3281 17.9883 11.4141L18.1758 9.21094C18.3281 7.52344 17.1445 6.84375 13.2305 6.84375C9.30469 6.84375 8.12109 7.52344 8.27344 9.21094L8.46094 11.4141C8.54297 12.3281 8.92969 12.668 9.80859 12.668C10.4062 12.668 12.1172 12.5859 13.2305 12.5859ZM13.2305 25.0898C17.168 25.0898 18.375 24.5039 18.1289 22.7812L17.9766 21.7148C17.7891 20.3086 16.6172 19.8398 13.2305 19.8398C9.83203 19.8398 8.66016 20.3086 8.47266 21.7148L8.32031 22.7812C8.07422 24.5039 9.28125 25.0898 13.2305 25.0898ZM20.7773 17.0273L20.7773 19.7812L25.125 24.1172C25.5117 24.5039 26.1211 24.4922 26.5078 24.1172C26.8828 23.7305 26.8828 23.0977 26.5078 22.7227Z" fill="black" fill-opacity="0.85"/>
 </g>
</svg>
