<?xml version="1.0" encoding="UTF-8"?>
<!--Generator: Apple Native CoreSVG 360-->
<!DOCTYPE svg
PUBLIC "-//W3C//DTD SVG 1.1//EN"
       "http://www.w3.org/Graphics/SVG/1.1/DTD/svg11.dtd">
<svg version="1.1" xmlns="http://www.w3.org/2000/svg" xmlns:xlink="http://www.w3.org/1999/xlink" viewBox="0 0 37.6877 29.1306">
 <g>
  <rect height="29.1306" opacity="0" width="37.6877" x="0" y="0"/>
  <path d="M3.66808 28.5048C3.93761 28.9735 4.52355 29.1141 4.94542 28.8798L35.3673 11.3251C35.7892 11.0673 35.9532 10.493 35.7071 10.0594C35.4376 9.59069 34.84 9.43835 34.4181 9.68444L4.00792 27.2391C3.57433 27.4852 3.41027 28.0712 3.66808 28.5048Z" fill="black" fill-opacity="0.85"/>
  <path d="M5.35558 22.2352L6.52746 21.5555L5.76574 20.2313L4.59386 20.911C3.70324 21.4149 3.03527 21.204 2.47277 20.2079L1.88683 19.2118C1.18371 17.993 1.55871 16.5516 3.03527 15.4501L6.09386 13.1415C6.55089 12.8016 6.82042 12.4852 7.04308 12.0751L8.98839 8.39538C10.1485 6.21569 11.1446 5.27819 14.2501 3.48522L15.4923 2.77038C17.6485 1.51647 19.8165 1.32897 23.0157 1.96179C23.59 2.07897 23.8595 2.04382 24.4337 1.91491L25.465 1.69226C26.5782 1.45788 27.2931 1.69226 27.797 2.55944L29.1095 4.83288C29.6837 5.81726 29.5314 6.50866 28.6525 7.01257L27.4571 7.70397L28.2189 9.02819L29.4142 8.33679C31.2189 7.29382 31.5353 5.9696 30.4337 4.07116L29.1212 1.78601C28.2306 0.262568 26.9415-0.264776 25.09 0.121943L23.5314 0.450068C21.047-0.0304006 17.8243-0.335088 14.7306 1.44616L13.4884 2.16101C10.1368 4.0946 8.90636 5.25476 7.62902 7.68054L5.50792 11.6883L2.10949 14.243C0.000112422 15.8368-0.550669 18.0282 0.562612 19.9735L1.17199 21.0282C2.25011 22.9032 3.56261 23.2665 5.35558 22.2352ZM10.8517 19.0594L24.0235 11.454L23.2618 10.1298L10.0782 17.7352ZM9.80871 22.0243C11.461 21.0751 12.0001 19.0594 11.0509 17.4188C10.1017 15.7782 8.08605 15.2391 6.43371 16.1766C4.79308 17.1258 4.25402 19.1532 5.20324 20.7938C6.15246 22.4344 8.16808 22.9735 9.80871 22.0243ZM9.09386 20.7821C8.15636 21.3329 6.98449 21.0165 6.44542 20.079C5.90636 19.1298 6.21105 17.9696 7.16027 17.4188C8.09777 16.8798 9.26964 17.1962 9.80871 18.1337C10.3478 19.0712 10.0431 20.243 9.09386 20.7821ZM27.0001 12.0985C28.6525 11.1493 29.1915 9.13366 28.2423 7.49304C27.2931 5.85241 25.2775 5.31335 23.6368 6.25085C21.9845 7.20007 21.4454 9.22741 22.3946 10.868C23.3439 12.5087 25.3595 13.0477 27.0001 12.0985ZM26.2853 10.8563C25.3478 11.4071 24.1759 11.0907 23.6368 10.1532C23.0978 9.20397 23.4025 8.04382 24.3517 7.49304C25.2892 6.95397 26.461 7.27038 27.0001 8.20788C27.5392 9.14538 27.2345 10.3173 26.2853 10.8563Z" fill="black" fill-opacity="0.85"/>
  <path d="M22.84 29.0321C23.2501 29.0321 23.5196 28.7743 23.5196 28.3524L23.5196 25.8212L25.3243 25.8212L25.3243 28.3524C25.3243 28.7743 25.5821 29.0321 26.004 29.0321C26.4142 29.0321 26.6837 28.7743 26.6837 28.3524L26.6837 22.2704C26.6837 21.8602 26.4142 21.6024 26.004 21.6024C25.5821 21.6024 25.3243 21.8602 25.3243 22.2704L25.3243 24.6962L23.5196 24.6962L23.5196 22.2704C23.5196 21.8602 23.2501 21.6024 22.84 21.6024C22.4415 21.6024 22.1837 21.8602 22.1837 22.2704L22.1837 28.3524C22.1837 28.7743 22.4415 29.0321 22.84 29.0321ZM28.336 29.0321L29.6368 29.0321C31.547 29.0321 32.1915 27.1923 32.1915 25.2938C32.1915 23.2196 31.4532 21.6024 29.6368 21.6024L28.336 21.6024C27.9376 21.6024 27.6564 21.8251 27.6564 22.3055L27.6564 28.329C27.6564 28.8094 27.9376 29.0321 28.336 29.0321ZM28.9806 27.9071L28.9806 22.7274L29.4728 22.7274C30.6095 22.7274 30.8204 24.1571 30.8204 25.2938C30.8204 26.454 30.6446 27.9071 29.4728 27.9071ZM35.2735 29.0907C36.0235 29.0907 36.5626 28.7391 36.9142 28.1883C37.1485 27.8368 37.336 27.2977 37.336 26.8993C37.336 26.5243 37.0782 26.2899 36.7032 26.2899C36.4103 26.2899 36.1759 26.5008 36.1056 26.829C35.9767 27.5087 35.7657 27.9188 35.2384 27.9188C34.5939 27.9188 34.2189 27.0048 34.2189 25.3173C34.2189 23.6063 34.6525 22.6923 35.2384 22.6923C35.7189 22.6923 36.0001 23.1727 36.0821 23.7821C36.1407 24.1454 36.3868 24.3563 36.7384 24.3563C37.09 24.3563 37.3009 24.1102 37.3009 23.7352C37.3009 23.2899 37.09 22.6454 36.6915 22.2001C36.3282 21.7782 35.8009 21.5321 35.2267 21.5321C34.2071 21.5321 33.586 22.1883 33.2579 22.9501C32.9298 23.6766 32.8478 24.4969 32.8478 25.3173C32.8478 26.2548 32.9415 27.1688 33.3634 27.9423C33.7853 28.704 34.4181 29.0907 35.2735 29.0907Z" fill="black" fill-opacity="0.85"/>
 </g>
</svg>
