<?xml version="1.0" encoding="UTF-8"?>
<!--Generator: Apple Native CoreSVG 360-->
<!DOCTYPE svg
PUBLIC "-//W3C//DTD SVG 1.1//EN"
       "http://www.w3.org/Graphics/SVG/1.1/DTD/svg11.dtd">
<svg version="1.1" xmlns="http://www.w3.org/2000/svg" xmlns:xlink="http://www.w3.org/1999/xlink" viewBox="0 0 38.7583 29.1199">
 <g>
  <rect height="29.1199" opacity="0" width="38.7583" x="0" y="0"/>
  <path d="M8.27561 9.50333L9.4592 10.183L10.2209 8.85879L9.04905 8.17911C8.15842 7.66348 8.0178 6.98379 8.59202 5.9877L9.16624 4.99161C9.86936 3.77286 11.299 3.37442 12.9983 4.10098L16.5139 5.60098C17.053 5.82364 17.4514 5.90567 17.9201 5.89395L22.0803 5.72989C24.5412 5.64786 25.8537 6.04629 28.9709 7.83926L30.2131 8.55411C32.3694 9.79629 33.6115 11.5775 34.6662 14.6713C34.8537 15.2221 35.0178 15.433 35.4162 15.8666L36.1194 16.6518C36.8811 17.4955 37.0334 18.2338 36.5412 19.101L35.2287 21.3744C34.6545 22.3588 33.9983 22.5815 33.1076 22.0658L31.9123 21.3861L31.1506 22.7104L32.3459 23.39C34.1389 24.433 35.4514 24.0463 36.553 22.1361L37.8655 19.8627C38.7444 18.3393 38.5569 16.9447 37.303 15.5385L36.2365 14.3549C35.4045 11.9525 34.0569 9.01114 30.9748 7.22989L29.7326 6.51504C26.3694 4.58145 24.7639 4.08926 22.0217 4.19473L17.4865 4.35879L13.5842 2.70645C11.1467 1.66348 8.96702 2.28458 7.84202 4.22989L7.23264 5.27286C6.15452 7.14786 6.49436 8.47208 8.27561 9.50333ZM13.7717 12.6791L26.9553 20.2846L27.717 18.9604L14.5451 11.3549ZM10.6897 13.265C12.3303 14.2143 14.3459 13.6635 15.2951 12.0229C16.2444 10.3822 15.7053 8.36661 14.0647 7.41739C12.424 6.46817 10.3967 7.00723 9.44749 8.64786C8.50999 10.2885 9.04905 12.3158 10.6897 13.265ZM11.4045 12.0229C10.467 11.4838 10.1506 10.3119 10.6897 9.37442C11.2405 8.4252 12.4123 8.12051 13.3498 8.65958C14.2873 9.19864 14.6037 10.3705 14.053 11.308C13.5139 12.2455 12.342 12.5619 11.4045 12.0229ZM27.8811 23.1908C29.5217 24.14 31.5373 23.5893 32.4865 21.9486C33.4358 20.308 32.8967 18.2924 31.2561 17.3432C29.6155 16.394 27.5881 16.933 26.6506 18.5736C25.7014 20.2143 26.2405 22.2416 27.8811 23.1908ZM28.5959 21.9486C27.6584 21.4096 27.342 20.2377 27.8811 19.3002C28.4319 18.351 29.6037 18.0463 30.5412 18.5854C31.4787 19.1244 31.7951 20.2963 31.2444 21.2338C30.7053 22.1713 29.5334 22.4877 28.5959 21.9486Z" fill="black" fill-opacity="0.85"/>
  <path d="M0.13108 10.1127C-0.138452 10.5697 0.025611 11.1557 0.459205 11.4018L30.8576 28.9682C31.2912 29.2143 31.8772 29.0619 32.1233 28.6283C32.3928 28.1596 32.2287 27.5736 31.7951 27.3275L1.3967 9.77286C0.97483 9.51504 0.377173 9.66739 0.13108 10.1127Z" fill="black" fill-opacity="0.85"/>
  <path d="M4.09202 5.48379L6.56467 1.21817C6.97483 0.503326 6.40061-0.129486 5.67405 0.0228573L1.90061 0.714264C1.38499 0.808014 1.15061 1.20645 1.33811 1.71036L2.61545 5.30801C2.86155 6.02286 3.68186 6.18692 4.09202 5.48379Z" fill="black" fill-opacity="0.85"/>
 </g>
</svg>
