<?xml version="1.0" encoding="UTF-8"?>
<!--Generator: Apple Native CoreSVG 360-->
<!DOCTYPE svg
PUBLIC "-//W3C//DTD SVG 1.1//EN"
       "http://www.w3.org/Graphics/SVG/1.1/DTD/svg11.dtd">
<svg version="1.1" xmlns="http://www.w3.org/2000/svg" xmlns:xlink="http://www.w3.org/1999/xlink" viewBox="0 0 27.3289 27.3384">
 <g>
  <rect height="27.3384" opacity="0" width="27.3289" x="0" y="0"/>
  <path d="M19.1723 7.49925C21.0238 6.31566 22.9223 0.983629 20.8363 0.468004C18.6918-0.0241835 18.0238 5.61254 19.1723 7.49925ZM19.4535 7.95629C22.1723 7.968 27.727 3.5266 25.8051 1.593C23.8832-0.328871 19.4418 5.22582 19.4535 7.95629ZM19.9105 8.22582C21.7855 9.39769 27.434 8.70629 26.9418 6.59691C26.4379 4.47582 21.0941 6.38597 19.9105 8.22582ZM19.6293 6.69066C16.641 3.6555 12.6918 4.41722 10.1605 8.43675L0.37539 23.9875C-0.28086 25.0422-0.0113292 25.9797 0.680077 26.6711C1.27773 27.2805 2.1918 27.6672 3.32851 26.9524L18.9145 17.1672C22.9105 14.6594 23.6254 10.7453 20.6371 7.71019ZM18.3871 7.94457L19.3832 8.9641C21.598 11.2141 21.1996 13.6282 18.0004 15.6438L2.43789 25.4172C2.05117 25.6633 1.65273 25.2766 1.89883 24.9016L11.684 9.3391C13.7113 6.12816 16.1605 5.70629 18.3871 7.94457ZM14.7191 11.6008C15.0121 11.2961 15.0121 10.8391 14.6957 10.5227L11.9652 7.82738L10.8988 8.94066L13.6293 11.6125C13.9457 11.9289 14.4145 11.9172 14.7191 11.6008ZM12.059 13.2532C12.3637 12.9485 12.3637 12.4797 12.0473 12.1633L9.8793 10.0422L8.81289 11.1438L10.9691 13.2532C11.2855 13.5696 11.7426 13.5578 12.059 13.2532ZM9.43398 18.1633C9.14101 18.468 9.1293 18.9368 9.4457 19.2532L11.3559 21.1047L12.6918 20.2727L10.5238 18.1516C10.2191 17.8469 9.75039 17.8586 9.43398 18.1633ZM7.34805 20.343C7.04336 20.6477 7.04336 21.1282 7.35976 21.4328L8.68398 22.7571L10.0434 21.925L8.43789 20.343C8.12148 20.0266 7.65273 20.0383 7.34805 20.343Z" fill="black" fill-opacity="0.85"/>
 </g>
</svg>
