<?xml version="1.0" encoding="UTF-8"?>
<!--Generator: Apple Native CoreSVG 360-->
<!DOCTYPE svg
PUBLIC "-//W3C//DTD SVG 1.1//EN"
       "http://www.w3.org/Graphics/SVG/1.1/DTD/svg11.dtd">
<svg version="1.1" xmlns="http://www.w3.org/2000/svg" xmlns:xlink="http://www.w3.org/1999/xlink" viewBox="0 0 26.8773 24.8555">
 <g>
  <rect height="24.8555" opacity="0" width="26.8773" x="0" y="0"/>
  <path d="M26.3527 4.24219L21.9465 22.125C21.5129 23.8828 20.3527 24.8203 18.6184 24.8203L4.70821 24.8203C2.29414 24.8203 1.22774 23.6602 0.196487 19.8398C-0.550336 17.1167 0.826318 15.5897 4.43054 15.0491C4.12312 15.5497 3.84102 16.1074 3.84102 16.8281C3.84102 16.8931 3.84261 16.9571 3.84851 17.0184C2.1339 17.3985 1.67262 18.1412 2.00117 19.3359C2.85664 22.5117 3.39571 22.9336 4.70821 22.9336L18.6184 22.9336C19.4035 22.9336 19.9074 22.4883 20.1066 21.668L24.548 3.75C24.8293 2.60156 24.3605 1.88672 23.4934 1.88672C22.1574 1.88672 20.9387 3.10547 21.2551 5.30859C21.384 6.10547 21.2902 6.33984 20.8449 6.70312C18.7941 8.23828 17.634 11.7891 17.716 16.1953C17.7277 16.9102 17.2824 17.3672 16.5676 17.3555C15.7931 17.3011 14.4592 17.0892 12.6587 16.921C12.6551 16.8658 12.6535 16.8074 12.6535 16.7461C12.6535 16.1861 13.0613 15.6779 13.4338 15.0819C14.3075 15.1696 15.1563 15.279 15.9633 15.4102C15.7962 11.0285 17.0672 7.36652 19.3967 5.43789C18.8587 2.22654 20.9514 0 23.4934 0C25.7785 0 26.9973 1.64062 26.3527 4.24219ZM8.33822 14.8154C7.99933 15.3487 7.64147 15.9306 7.60934 16.7036C6.64319 16.7105 5.82585 16.7487 5.14302 16.821C5.14207 16.797 5.1418 16.7718 5.1418 16.7461C5.1418 16.1227 5.64705 15.5636 6.04604 14.8763C6.66436 14.8327 7.3374 14.8125 8.05977 14.8125C8.15257 14.8125 8.24539 14.8127 8.33822 14.8154ZM11.9981 14.9588C11.6719 15.4798 11.3565 16.057 11.3534 16.815C10.6017 16.7622 9.78366 16.7229 8.90665 16.7075C8.92487 16.0896 9.433 15.5317 9.8267 14.8442C10.5579 14.8655 11.2844 14.9039 11.9981 14.9588Z" fill="black" fill-opacity="0.85"/>
  <path d="M6.52461 13.3125C6.52461 11.7773 5.1418 10.9219 5.1418 9.86719C5.1418 9.28125 5.29414 8.95312 5.69258 8.42578C6.25508 7.67578 5.21211 6.92578 4.63789 7.65234C4.08711 8.35547 3.84102 9 3.84102 9.78516C3.84102 11.3789 5.20039 12.1641 5.20039 13.3125C5.20039 14.4492 3.84102 15.2461 3.84102 16.8281C3.84102 17.6367 4.08711 18.2812 4.63789 18.9727C5.18867 19.6875 6.24336 18.9375 5.68086 18.1875C5.29414 17.6719 5.1418 17.3555 5.1418 16.7461C5.1418 15.7148 6.52461 14.8594 6.52461 13.3125ZM10.2863 13.3125C10.2863 11.7773 8.90352 10.9219 8.90352 9.86719C8.90352 9.28125 9.05586 8.95312 9.4543 8.42578C10.0051 7.67578 8.96211 6.92578 8.39961 7.65234C7.83711 8.35547 7.60274 9 7.60274 9.78516C7.60274 11.3789 8.96211 12.1641 8.96211 13.3125C8.96211 14.4492 7.60274 15.2461 7.60274 16.8281C7.60274 17.6367 7.83711 18.2812 8.38789 18.9727C8.95039 19.6875 10.0051 18.9375 9.44258 18.1875C9.05586 17.6719 8.90352 17.3555 8.90352 16.7461C8.90352 15.7148 10.2863 14.8594 10.2863 13.3125ZM14.0363 13.3125C14.0363 11.7773 12.6535 10.9219 12.6535 9.86719C12.6535 9.28125 12.8059 8.95312 13.2043 8.42578C13.7668 7.67578 12.7238 6.92578 12.1496 7.65234C11.5988 8.35547 11.3527 9 11.3527 9.78516C11.3527 11.3789 12.7121 12.1641 12.7121 13.3125C12.7121 14.4492 11.3527 15.2461 11.3527 16.8281C11.3527 17.6367 11.5988 18.2812 12.1496 18.9727C12.7121 19.6875 13.7551 18.9375 13.1926 18.1875C12.8059 17.6719 12.6535 17.3555 12.6535 16.7461C12.6535 15.7148 14.0363 14.8594 14.0363 13.3125Z" fill="black" fill-opacity="0.85"/>
 </g>
</svg>
