<?xml version="1.0" encoding="UTF-8"?>
<!--Generator: Apple Native CoreSVG 360-->
<!DOCTYPE svg
PUBLIC "-//W3C//DTD SVG 1.1//EN"
       "http://www.w3.org/Graphics/SVG/1.1/DTD/svg11.dtd">
<svg version="1.1" xmlns="http://www.w3.org/2000/svg" xmlns:xlink="http://www.w3.org/1999/xlink" viewBox="0 0 26.8746 24.8555">
 <g>
  <rect height="24.8555" opacity="0" width="26.8746" x="0" y="0"/>
  <path d="M26.3279 19.8398C27.2888 16.3359 24.7342 14.8125 18.4646 14.8125C15.5115 14.8125 12.5349 15.0586 9.96853 15.5039L10.5193 16.1953C10.8943 11.2148 9.4529 7.05469 6.72243 5.12109L6.94509 6.25781C8.0115 2.61328 5.77321 0 3.01931 0C0.74587 0-0.47288 1.64062 0.171652 4.24219L4.5779 22.125C5.0115 23.8828 6.17165 24.8203 7.89431 24.8203L21.8162 24.8203C24.2302 24.8203 25.2967 23.6602 26.3279 19.8398ZM24.5232 19.3359C23.6677 22.5117 23.1287 22.9336 21.8162 22.9336L7.89431 22.9336C7.12087 22.9336 6.61696 22.4883 6.41775 21.668L1.97634 3.75C1.69509 2.60156 2.16384 1.88672 3.03103 1.88672C4.36696 1.88672 5.58571 3.10547 5.25759 5.30859C5.1404 6.10547 5.22243 6.33984 5.66775 6.70312C7.73025 8.23828 8.8904 11.7891 8.79665 16.1953C8.79665 16.9102 9.24196 17.3672 9.95681 17.3555C11.2927 17.2617 14.2927 16.6992 18.4646 16.6992C23.6092 16.6992 25.0271 17.4609 24.5232 19.3359Z" fill="black" fill-opacity="0.85"/>
  <path d="M13.6248 7.85156C13.6248 9.57422 15.1951 11.3086 16.6482 11.3086C17.9842 11.3086 18.6638 10.1133 19.4607 7.99219L19.7654 7.93359L19.7654 10.2188C19.7654 11.2031 20.281 11.707 21.2302 11.707C22.9412 11.707 24.6756 10.1484 24.6756 8.68359C24.6756 7.33594 23.4802 6.66797 21.3474 5.87109L21.3006 5.56641L23.5857 5.56641C24.5701 5.56641 25.0623 5.0625 25.0623 4.11328C25.0623 2.39062 23.5154 0.644531 22.0506 0.644531C20.7029 0.644531 20.0349 1.86328 19.2263 3.99609L18.9334 4.03125L18.9334 1.74609C18.9334 0.773438 18.4295 0.257812 17.4802 0.257812C15.7576 0.257812 14.0115 1.82812 14.0115 3.28125C14.0115 4.62891 15.2302 5.29688 17.3631 6.09375L17.3865 6.39844L15.1131 6.39844C14.1404 6.39844 13.6248 6.91406 13.6248 7.85156ZM19.3435 7.16016C18.699 7.16016 18.1717 6.63281 18.1717 5.97656C18.1717 5.33203 18.699 4.80469 19.3435 4.80469C19.9881 4.80469 20.5154 5.33203 20.5154 5.97656C20.5154 6.63281 19.9881 7.16016 19.3435 7.16016Z" fill="black" fill-opacity="0.85"/>
 </g>
</svg>
