<?xml version="1.0" encoding="UTF-8"?>
<!--Generator: Apple Native CoreSVG 360-->
<!DOCTYPE svg
PUBLIC "-//W3C//DTD SVG 1.1//EN"
       "http://www.w3.org/Graphics/SVG/1.1/DTD/svg11.dtd">
<svg version="1.1" xmlns="http://www.w3.org/2000/svg" xmlns:xlink="http://www.w3.org/1999/xlink" viewBox="0 0 26.8773 24.8555">
 <g>
  <rect height="24.8555" opacity="0" width="26.8773" x="0" y="0"/>
  <path d="M0.196487 19.8398C1.22774 23.6602 2.29414 24.8203 4.70821 24.8203L18.6184 24.8203C20.3527 24.8203 21.5129 23.8828 21.9465 22.125L26.3527 4.24219C26.9973 1.64062 25.7785 0 23.4934 0C20.7395 0 18.5129 2.61328 19.5793 6.25781L19.802 5.12109C17.0715 7.05469 15.6301 11.2148 16.0051 16.1953L16.5441 15.5039C13.9895 15.0586 11.0129 14.8125 8.05977 14.8125C1.79024 14.8125-0.764451 16.3359 0.196487 19.8398ZM2.00117 19.3359C1.48555 17.4609 2.91524 16.6992 8.05977 16.6992C12.2316 16.6992 15.2316 17.2617 16.5676 17.3555C17.2824 17.3672 17.7277 16.9102 17.716 16.1953C17.634 11.7891 18.7941 8.23828 20.8449 6.70312C21.2902 6.33984 21.384 6.10547 21.2551 5.30859C20.9387 3.10547 22.1574 1.88672 23.4934 1.88672C24.3605 1.88672 24.8293 2.60156 24.548 3.75L20.1066 21.668C19.9074 22.4883 19.4035 22.9336 18.6184 22.9336L4.70821 22.9336C3.39571 22.9336 2.85664 22.5117 2.00117 19.3359Z" fill="black" fill-opacity="0.85"/>
  <path d="M1.45039 7.85156C1.45039 9.57422 3.02071 11.3086 4.47383 11.3086C5.80977 11.3086 6.47774 10.1133 7.28633 7.99219L7.5793 7.93359L7.5793 10.2188C7.5793 11.2031 8.09492 11.707 9.04414 11.707C10.7551 11.707 12.5012 10.1484 12.5012 8.68359C12.5012 7.33594 11.2941 6.66797 9.17305 5.87109L9.11446 5.56641L11.3996 5.56641C12.384 5.56641 12.8879 5.0625 12.8879 4.11328C12.8879 2.39062 11.3293 0.644531 9.86446 0.644531C8.52852 0.644531 7.84883 1.86328 7.05196 3.99609L6.74727 4.03125L6.74727 1.74609C6.74727 0.773438 6.25508 0.257812 5.30586 0.257812C3.57149 0.257812 1.83711 1.82812 1.83711 3.28125C1.83711 4.62891 3.05586 5.29688 5.18867 6.09375L5.21211 6.39844L2.93867 6.39844C1.9543 6.39844 1.45039 6.91406 1.45039 7.85156ZM7.16914 7.16016C6.52461 7.16016 5.99727 6.63281 5.99727 5.97656C5.99727 5.33203 6.52461 4.80469 7.16914 4.80469C7.81367 4.80469 8.34102 5.33203 8.34102 5.97656C8.34102 6.63281 7.81367 7.16016 7.16914 7.16016Z" fill="black" fill-opacity="0.85"/>
 </g>
</svg>
