<?xml version="1.0" encoding="UTF-8"?>
<!--Generator: Apple Native CoreSVG 360-->
<!DOCTYPE svg
PUBLIC "-//W3C//DTD SVG 1.1//EN"
       "http://www.w3.org/Graphics/SVG/1.1/DTD/svg11.dtd">
<svg version="1.1" xmlns="http://www.w3.org/2000/svg" xmlns:xlink="http://www.w3.org/1999/xlink" viewBox="0 0 26.8746 24.8555">
 <g>
  <rect height="24.8555" opacity="0" width="26.8746" x="0" y="0"/>
  <path d="M26.3279 19.8398C27.2888 16.3359 24.7342 14.8125 18.4646 14.8125C15.5115 14.8125 12.5349 15.0586 9.96853 15.5039L10.5193 16.1953C10.8943 11.2148 9.4529 7.05469 6.72243 5.12109L6.94509 6.25781C8.0115 2.61328 5.77321 0 3.01931 0C0.74587 0-0.47288 1.64062 0.171652 4.24219L4.5779 22.125C5.0115 23.8828 6.17165 24.8203 7.89431 24.8203L21.8162 24.8203C24.2302 24.8203 25.2967 23.6602 26.3279 19.8398ZM24.5232 19.3359C23.6677 22.5117 23.1287 22.9336 21.8162 22.9336L7.89431 22.9336C7.12087 22.9336 6.61696 22.4883 6.41775 21.668L1.97634 3.75C1.69509 2.60156 2.16384 1.88672 3.03103 1.88672C4.36696 1.88672 5.58571 3.10547 5.25759 5.30859C5.1404 6.10547 5.22243 6.33984 5.66775 6.70312C7.73025 8.23828 8.8904 11.7891 8.79665 16.1953C8.79665 16.9102 9.24196 17.3672 9.95681 17.3555C11.2927 17.2617 14.2927 16.6992 18.4646 16.6992C23.6092 16.6992 25.0271 17.4609 24.5232 19.3359Z" fill="black" fill-opacity="0.85"/>
  <path d="M20.9256 10.7227C23.0584 10.7227 24.4998 9.59766 24.4998 7.91016C24.4998 6.70312 23.5974 5.74219 22.3552 5.58984L22.3552 5.58984C23.3631 5.42578 24.1717 4.48828 24.1717 3.39844C24.1717 1.95703 22.8474 0.902344 21.0076 0.902344C19.3318 0.902344 18.0662 1.6875 17.7615 2.94141C17.7381 3.08203 17.7263 3.17578 17.7263 3.35156C17.7263 3.75 18.0193 4.04297 18.4529 4.04297C18.8279 4.04297 19.0623 3.86719 19.1912 3.49219C19.4138 2.70703 20.0818 2.26172 20.9842 2.26172C21.9685 2.26172 22.6013 2.75391 22.6013 3.5625C22.6013 4.39453 21.8865 5.00391 20.9373 5.00391L20.2927 5.00391C19.906 5.00391 19.6248 5.27344 19.6248 5.66016C19.6248 6.04688 19.906 6.32812 20.2927 6.32812L20.9959 6.32812C22.1443 6.32812 22.9295 6.9375 22.9295 7.85156C22.9295 8.74219 22.1326 9.35156 20.949 9.35156C19.9763 9.35156 19.2732 8.91797 19.0037 8.12109C18.8513 7.75781 18.6287 7.59375 18.2654 7.59375C17.8435 7.59375 17.5388 7.88672 17.5388 8.30859C17.5388 8.46094 17.5506 8.53125 17.574 8.67188C17.8552 9.87891 19.2381 10.7227 20.9256 10.7227Z" fill="black" fill-opacity="0.85"/>
 </g>
</svg>
