<?xml version="1.0" encoding="UTF-8"?>
<!--Generator: Apple Native CoreSVG 360-->
<!DOCTYPE svg
PUBLIC "-//W3C//DTD SVG 1.1//EN"
       "http://www.w3.org/Graphics/SVG/1.1/DTD/svg11.dtd">
<svg version="1.1" xmlns="http://www.w3.org/2000/svg" xmlns:xlink="http://www.w3.org/1999/xlink" viewBox="0 0 26.8746 33.9023">
 <g>
  <rect height="33.9023" opacity="0" width="26.8746" x="0" y="0"/>
  <path d="M26.3279 19.8398C27.2888 16.3359 24.7342 14.8125 18.4646 14.8125C15.5115 14.8125 12.5349 15.0586 9.96853 15.5156L10.5193 16.1953C10.8943 11.2148 9.4529 7.06641 6.72243 5.12109L6.94509 6.25781C8.0115 2.61328 5.77321 0 3.01931 0C0.74587 0-0.47288 1.65234 0.171652 4.24219L4.5779 22.125C5.0115 23.8828 6.17165 24.832 7.89431 24.832L21.8162 24.832C24.2302 24.832 25.2967 23.6602 26.3279 19.8398ZM24.5232 19.3477C23.6677 22.5117 23.1287 22.9453 21.8162 22.9453L7.89431 22.9453C7.12087 22.9453 6.61696 22.4883 6.41775 21.668L1.97634 3.75C1.69509 2.60156 2.16384 1.88672 3.03103 1.88672C4.36696 1.88672 5.58571 3.10547 5.25759 5.30859C5.1404 6.10547 5.22243 6.33984 5.66775 6.70312C7.73025 8.23828 8.8904 11.7891 8.79665 16.207C8.79665 16.9219 9.24196 17.3672 9.95681 17.3555C11.2927 17.2617 14.2927 16.6992 18.4646 16.6992C23.6092 16.6992 25.0271 17.4609 24.5232 19.3477Z" fill="black" fill-opacity="0.85"/>
  <path d="M18.031 32.9766C18.031 33.6094 18.5349 33.8789 19.0857 33.5391L23.2459 31.0078C23.7849 30.6797 23.7732 30.0586 23.2459 29.7422L19.0857 27.1875C18.5349 26.8477 18.031 27.1406 18.031 27.7617Z" fill="black" fill-opacity="0.85"/>
  <path d="M11.949 32.9766L11.949 27.7617C11.949 27.1406 11.4451 26.8477 10.8943 27.1875L6.72243 29.7422C6.20681 30.0586 6.19509 30.6797 6.72243 31.0078L10.8826 33.5391C11.4334 33.8789 11.949 33.6094 11.949 32.9766Z" fill="black" fill-opacity="0.85"/>
 </g>
</svg>
