<?xml version="1.0" encoding="UTF-8"?>
<!--Generator: Apple Native CoreSVG 360-->
<!DOCTYPE svg
PUBLIC "-//W3C//DTD SVG 1.1//EN"
       "http://www.w3.org/Graphics/SVG/1.1/DTD/svg11.dtd">
<svg version="1.1" xmlns="http://www.w3.org/2000/svg" xmlns:xlink="http://www.w3.org/1999/xlink" viewBox="0 0 26.8746 32.4492">
 <g>
  <rect height="32.4492" opacity="0" width="26.8746" x="0" y="0"/>
  <path d="M26.3279 19.8398C27.2888 16.3359 24.7342 14.8125 18.4646 14.8125C15.5115 14.8125 12.5349 15.0469 9.96853 15.5039L10.5193 16.1953C10.8943 11.2031 9.4529 7.05469 6.72243 5.12109L6.94509 6.24609C8.0115 2.61328 5.77321-3.55271e-15 3.01931-3.55271e-15C0.74587-3.55271e-15-0.47288 1.64062 0.171652 4.23047L4.5779 22.1133C5.0115 23.8828 6.17165 24.8203 7.89431 24.8203L21.8162 24.8203C24.2302 24.8203 25.2967 23.6602 26.3279 19.8398ZM24.5232 19.3359C23.6677 22.5117 23.1287 22.9336 21.8162 22.9336L7.89431 22.9336C7.12087 22.9336 6.61696 22.4883 6.41775 21.6562L1.97634 3.73828C1.69509 2.58984 2.16384 1.88672 3.03103 1.88672C4.36696 1.88672 5.58571 3.10547 5.25759 5.29687C5.1404 6.10547 5.22243 6.32812 5.66775 6.69141C7.73025 8.22656 8.8904 11.7891 8.79665 16.1953C8.79665 16.9102 9.24196 17.3672 9.95681 17.3555C11.2927 17.2617 14.2927 16.6992 18.4646 16.6992C23.6092 16.6992 25.0271 17.4492 24.5232 19.3359Z" fill="black" fill-opacity="0.85"/>
  <path d="M20.1521 26.6133L14.9373 26.6133C14.3162 26.6133 14.0232 27.1289 14.3631 27.6797L16.9177 31.8398C17.2342 32.3555 17.8435 32.3789 18.1834 31.8398L20.7146 27.6797C21.0427 27.1289 20.7849 26.6133 20.1521 26.6133Z" fill="black" fill-opacity="0.85"/>
  <path d="M20.1521 13.0312C20.7849 13.0312 21.0545 12.5273 20.7146 11.9766L18.1834 7.81641C17.8552 7.27734 17.2342 7.28906 16.9177 7.81641L14.3631 11.9766C14.0232 12.5273 14.3162 13.0312 14.9373 13.0312Z" fill="black" fill-opacity="0.85"/>
 </g>
</svg>
