<?xml version="1.0" encoding="UTF-8"?>
<!--Generator: Apple Native CoreSVG 360-->
<!DOCTYPE svg
PUBLIC "-//W3C//DTD SVG 1.1//EN"
       "http://www.w3.org/Graphics/SVG/1.1/DTD/svg11.dtd">
<svg version="1.1" xmlns="http://www.w3.org/2000/svg" xmlns:xlink="http://www.w3.org/1999/xlink" viewBox="0 0 26.8773 28.5894">
 <g>
  <rect height="28.5894" opacity="0" width="26.8773" x="0" y="0"/>
  <path d="M0.196487 21.7068C1.22774 25.5271 2.29414 26.6873 4.70821 26.6873L18.6184 26.6873C20.3527 26.6873 21.5129 25.7498 21.9465 23.992L26.3527 6.10918C26.9973 3.50761 25.7785 1.86699 23.4934 1.86699C20.7395 1.86699 18.5129 4.48027 19.5793 8.1248L19.802 6.98808C17.0715 8.92168 15.6301 13.0818 16.0051 18.0623L16.5441 17.3709C13.9895 16.9256 11.0129 16.6795 8.05977 16.6795C1.79024 16.6795-0.764451 18.2029 0.196487 21.7068ZM2.00117 21.2029C1.48555 19.3279 2.91524 18.5662 8.05977 18.5662C12.2316 18.5662 15.2316 19.1287 16.5676 19.2225C17.2824 19.2342 17.7277 18.7771 17.716 18.0623C17.634 13.6561 18.7941 10.1053 20.8449 8.57011C21.2902 8.20683 21.384 7.97246 21.2551 7.17558C20.9387 4.97246 22.1574 3.75371 23.4934 3.75371C24.3605 3.75371 24.8293 4.46855 24.548 5.61699L20.1066 23.535C19.9074 24.3553 19.4035 24.8006 18.6184 24.8006L4.70821 24.8006C3.39571 24.8006 2.85664 24.3787 2.00117 21.2029Z" fill="black" fill-opacity="0.85"/>
  <path d="M16.9543 4.09355C16.7902 2.86308 17.341 1.71464 18.4074 1.22246C18.7473 1.04668 18.8176 0.706832 18.7121 0.402145C18.5832 0.0857386 18.2199-0.136918 17.7629 0.0974574C16.3215 0.812301 15.4543 2.61699 15.7121 4.3748C15.7824 4.78496 16.1926 4.98418 16.5793 4.85527C16.8957 4.72636 17.0246 4.44511 16.9543 4.09355ZM13.7434 13.035C13.2746 11.324 13.8488 8.94511 15.9113 7.84355C16.3332 7.62089 16.3801 7.22246 16.2277 6.94121C16.0754 6.67168 15.7355 6.50761 15.2902 6.71855C12.841 7.87871 11.9035 11.16 12.5012 13.3982C12.6066 13.7967 13.0168 13.949 13.3332 13.867C13.6379 13.785 13.8723 13.492 13.7434 13.035Z" fill="black" fill-opacity="0.85"/>
 </g>
</svg>
