<?xml version="1.0" encoding="UTF-8"?>
<!--Generator: Apple Native CoreSVG 360-->
<!DOCTYPE svg
PUBLIC "-//W3C//DTD SVG 1.1//EN"
       "http://www.w3.org/Graphics/SVG/1.1/DTD/svg11.dtd">
<svg version="1.1" xmlns="http://www.w3.org/2000/svg" xmlns:xlink="http://www.w3.org/1999/xlink" viewBox="0 0 26.8746 24.8555">
 <g>
  <rect height="24.8555" opacity="0" width="26.8746" x="0" y="0"/>
  <path d="M7.12749 5.43773C9.45688 7.3661 10.7279 11.0276 10.5612 15.4087C11.3547 15.2804 12.1874 15.173 13.0431 15.086C12.7447 15.5773 12.4763 16.1252 12.4763 16.8281C12.4763 16.9093 12.4787 16.9889 12.4853 17.0659C11.3713 17.1942 10.5175 17.3161 9.95681 17.3555C9.24196 17.3672 8.79665 16.9102 8.79665 16.1953C8.8904 11.7891 7.73025 8.23828 5.66775 6.70312C5.22243 6.33984 5.1404 6.10547 5.25759 5.30859C5.58571 3.10547 4.36696 1.88672 3.03103 1.88672C2.16384 1.88672 1.69509 2.60156 1.97634 3.75L6.41775 21.668C6.61696 22.4883 7.12087 22.9336 7.89431 22.9336L21.8162 22.9336C23.1287 22.9336 23.6677 22.5117 24.5232 19.3359C24.9181 17.8668 24.1329 17.0811 21.2899 16.8123C21.2891 16.7911 21.2888 16.7688 21.2888 16.7461C21.2888 16.1755 21.7121 15.6588 22.0901 15.0486C25.6971 15.5887 27.075 17.1157 26.3279 19.8398C25.2967 23.6602 24.2302 24.8203 21.8162 24.8203L7.89431 24.8203C6.17165 24.8203 5.0115 23.8828 4.5779 22.125L0.171652 4.24219C-0.47288 1.64062 0.74587 0 3.01931 0C5.56124 0 7.66387 2.22647 7.12749 5.43773ZM16.2304 16.7525C15.3384 16.7946 14.5197 16.8581 13.7827 16.9286C13.7788 16.871 13.7771 16.8102 13.7771 16.7461C13.7771 16.1454 14.2462 15.6044 14.6374 14.9508C15.3974 14.8941 16.1708 14.8558 16.9484 14.8365C16.6063 15.3754 16.2496 15.9656 16.2304 16.7525ZM20.6774 14.8882C20.3491 15.4078 20.0179 15.9782 19.9934 16.7281C19.5311 16.7081 19.0196 16.6992 18.4646 16.6992C18.1453 16.6992 17.8329 16.7025 17.5301 16.7096C17.5476 16.0813 18.0721 15.5152 18.469 14.8126C19.2656 14.8126 20.002 14.8373 20.6774 14.8882Z" fill="black" fill-opacity="0.85"/>
  <path d="M15.1599 13.3125C15.1599 11.7773 13.7771 10.9219 13.7771 9.86719C13.7771 9.28125 13.9295 8.95312 14.3279 8.42578C14.8904 7.67578 13.8357 6.92578 13.2732 7.65234C12.7107 8.35547 12.4763 9 12.4763 9.78516C12.4763 11.3789 13.8357 12.1641 13.8357 13.3125C13.8357 14.4492 12.4763 15.2461 12.4763 16.8281C12.4763 17.6367 12.7107 18.2812 13.2615 18.9727C13.824 19.6875 14.8787 18.9375 14.3162 18.1875C13.9295 17.6719 13.7771 17.3555 13.7771 16.7461C13.7771 15.7148 15.1599 14.8594 15.1599 13.3125ZM18.9099 13.3125C18.9099 11.7773 17.5271 10.9219 17.5271 9.86719C17.5271 9.28125 17.6912 8.95312 18.0779 8.42578C18.6404 7.67578 17.5974 6.92578 17.0349 7.65234C16.4724 8.35547 16.2263 9 16.2263 9.78516C16.2263 11.3789 17.5857 12.1641 17.5857 13.3125C17.5857 14.4492 16.2263 15.2461 16.2263 16.8281C16.2263 17.6367 16.4724 18.2812 17.0232 18.9727C17.5857 19.6875 18.6287 18.9375 18.0779 18.1875C17.6912 17.6719 17.5271 17.3555 17.5271 16.7461C17.5271 15.7148 18.9099 14.8594 18.9099 13.3125ZM22.6717 13.3125C22.6717 11.7773 21.2888 10.9219 21.2888 9.86719C21.2888 9.28125 21.4412 8.95312 21.8396 8.42578C22.4021 7.67578 21.3474 6.92578 20.7849 7.65234C20.2224 8.35547 19.9881 9 19.9881 9.78516C19.9881 11.3789 21.3474 12.1641 21.3474 13.3125C21.3474 14.4492 19.9881 15.2461 19.9881 16.8281C19.9881 17.6367 20.2224 18.2812 20.7849 18.9727C21.3357 19.6875 22.3904 18.9375 21.8279 18.1875C21.4412 17.6719 21.2888 17.3555 21.2888 16.7461C21.2888 15.7148 22.6717 14.8594 22.6717 13.3125Z" fill="black" fill-opacity="0.85"/>
 </g>
</svg>
