<?xml version="1.0" encoding="UTF-8"?>
<!--Generator: Apple Native CoreSVG 360-->
<!DOCTYPE svg
PUBLIC "-//W3C//DTD SVG 1.1//EN"
       "http://www.w3.org/Graphics/SVG/1.1/DTD/svg11.dtd">
<svg version="1.1" xmlns="http://www.w3.org/2000/svg" xmlns:xlink="http://www.w3.org/1999/xlink" viewBox="0 0 26.8746 28.5894">
 <g>
  <rect height="28.5894" opacity="0" width="26.8746" x="0" y="0"/>
  <path d="M26.3279 21.7068C27.2888 18.2029 24.7342 16.6795 18.4646 16.6795C15.5115 16.6795 12.5349 16.9256 9.96853 17.3709L10.5193 18.0623C10.8943 13.0818 9.4529 8.92168 6.72243 6.98808L6.94509 8.1248C8.0115 4.48027 5.77321 1.86699 3.01931 1.86699C0.74587 1.86699-0.47288 3.50761 0.171652 6.10918L4.5779 23.992C5.0115 25.7498 6.17165 26.6873 7.89431 26.6873L21.8162 26.6873C24.2302 26.6873 25.2967 25.5271 26.3279 21.7068ZM24.5232 21.2029C23.6677 24.3787 23.1287 24.8006 21.8162 24.8006L7.89431 24.8006C7.12087 24.8006 6.61696 24.3553 6.41775 23.535L1.97634 5.61699C1.69509 4.46855 2.16384 3.75371 3.03103 3.75371C4.36696 3.75371 5.58571 4.97246 5.25759 7.17558C5.1404 7.97246 5.22243 8.20683 5.66775 8.57011C7.73025 10.1053 8.8904 13.6561 8.79665 18.0623C8.79665 18.7771 9.24196 19.2342 9.95681 19.2225C11.2927 19.1287 14.2927 18.5662 18.4646 18.5662C23.6092 18.5662 25.0271 19.3279 24.5232 21.2029Z" fill="black" fill-opacity="0.85"/>
  <path d="M9.55837 4.09355C9.48806 4.44511 9.62868 4.72636 9.94509 4.85527C10.3318 4.98418 10.7302 4.78496 10.8006 4.3748C11.0584 2.61699 10.1912 0.812301 8.74978 0.0974574C8.29275-0.136918 7.92946 0.0857386 7.80056 0.402145C7.69509 0.706832 7.77712 1.04668 8.10525 1.22246C9.17165 1.71464 9.72243 2.86308 9.55837 4.09355ZM12.7693 13.035C12.6404 13.492 12.8748 13.785 13.1795 13.867C13.5076 13.949 13.906 13.7967 14.0115 13.3982C14.6092 11.16 13.6717 7.87871 11.2224 6.71855C10.7771 6.50761 10.4373 6.67168 10.2849 6.94121C10.1326 7.22246 10.1795 7.62089 10.6013 7.84355C12.6756 8.94511 13.2381 11.324 12.7693 13.035Z" fill="black" fill-opacity="0.85"/>
 </g>
</svg>
