<?xml version="1.0" encoding="UTF-8"?>
<!--Generator: Apple Native CoreSVG 360-->
<!DOCTYPE svg
PUBLIC "-//W3C//DTD SVG 1.1//EN"
       "http://www.w3.org/Graphics/SVG/1.1/DTD/svg11.dtd">
<svg version="1.1" xmlns="http://www.w3.org/2000/svg" xmlns:xlink="http://www.w3.org/1999/xlink" viewBox="0 0 26.8746 24.8555">
 <g>
  <rect height="24.8555" opacity="0" width="26.8746" x="0" y="0"/>
  <path d="M26.3279 19.8398C27.2888 16.3359 24.7342 14.8125 18.4646 14.8125C15.5115 14.8125 12.5349 15.0586 9.96853 15.5039L10.5193 16.1953C10.8943 11.2148 9.4529 7.05469 6.72243 5.12109L6.94509 6.25781C8.0115 2.61328 5.77321 0 3.01931 0C0.74587 0-0.47288 1.64062 0.171652 4.24219L4.5779 22.125C5.0115 23.8828 6.17165 24.8203 7.89431 24.8203L21.8162 24.8203C24.2302 24.8203 25.2967 23.6602 26.3279 19.8398ZM24.5232 19.3359C23.6677 22.5117 23.1287 22.9336 21.8162 22.9336L7.89431 22.9336C7.12087 22.9336 6.61696 22.4883 6.41775 21.668L1.97634 3.75C1.69509 2.60156 2.16384 1.88672 3.03103 1.88672C4.36696 1.88672 5.58571 3.10547 5.25759 5.30859C5.1404 6.10547 5.22243 6.33984 5.66775 6.70312C7.73025 8.23828 8.8904 11.7891 8.79665 16.1953C8.79665 16.9102 9.24196 17.3672 9.95681 17.3555C11.2927 17.2617 14.2927 16.6992 18.4646 16.6992C23.6092 16.6992 25.0271 17.4609 24.5232 19.3359Z" fill="black" fill-opacity="0.85"/>
  <path d="M21.5935 11.1094C22.1443 11.1094 22.4607 10.7578 22.4607 10.1367L22.4607 1.875C22.4607 1.24219 22.1326 0.902344 21.5467 0.902344C21.1365 0.902344 20.867 0.996094 20.3982 1.33594L18.3943 2.68359C18.1482 2.84766 18.0779 3.02344 18.0779 3.28125C18.0779 3.62109 18.3474 3.91406 18.6756 3.91406C18.8396 3.91406 18.9568 3.89062 19.2263 3.69141L20.6326 2.76562L20.7498 2.76562L20.7498 10.1367C20.7498 10.7461 21.0779 11.1094 21.5935 11.1094Z" fill="black" fill-opacity="0.85"/>
 </g>
</svg>
