<?xml version="1.0" encoding="UTF-8"?>
<!--Generator: Apple Native CoreSVG 360-->
<!DOCTYPE svg
PUBLIC "-//W3C//DTD SVG 1.1//EN"
       "http://www.w3.org/Graphics/SVG/1.1/DTD/svg11.dtd">
<svg version="1.1" xmlns="http://www.w3.org/2000/svg" xmlns:xlink="http://www.w3.org/1999/xlink" viewBox="0 0 33.8819 24.8555">
 <g>
  <rect height="24.8555" opacity="0" width="33.8819" x="0" y="0"/>
  <path d="M33.3296 19.8398C34.2906 16.3359 31.7359 14.8125 25.4664 14.8125C22.5132 14.8125 19.5367 15.0586 16.9703 15.5039L17.521 16.1953C17.896 11.2148 16.4546 7.05469 13.7242 5.12109L13.9468 6.25781C15.0015 2.61328 12.775 0 10.021 0C7.74761 0 6.51714 1.64062 7.17339 4.24219L11.5796 22.125C12.0132 23.8828 13.1734 24.8203 14.896 24.8203L28.8179 24.8203C31.232 24.8203 32.2984 23.6602 33.3296 19.8398ZM31.525 19.3359C30.6578 22.5117 30.1187 22.9336 28.8179 22.9336L14.896 22.9336C14.1226 22.9336 13.6187 22.4883 13.4078 21.668L8.97808 3.75C8.69683 2.60156 9.16558 1.88672 10.0328 1.88672C11.3687 1.88672 12.5875 3.10547 12.2593 5.30859C12.1421 6.10547 12.2242 6.33984 12.6695 6.70312C14.732 8.23828 15.8804 11.7891 15.7984 16.1953C15.7984 16.9102 16.2437 17.3672 16.9585 17.3555C18.2945 17.2617 21.2945 16.6992 25.4664 16.6992C30.6109 16.6992 32.0289 17.4609 31.525 19.3359Z" fill="black" fill-opacity="0.85"/>
  <path d="M6.1187 11.4727L4.79448 6.43359C4.63042 5.82422 4.0562 5.67188 3.61089 6.14062L0.247609 9.67969C-0.185985 10.1133-0.0336415 10.7227 0.575734 10.8984L5.22808 12.293C5.86089 12.4805 6.28276 12.082 6.1187 11.4727Z" fill="black" fill-opacity="0.85"/>
  <path d="M18.9273 7.28906C19.0914 7.91016 19.6539 8.02734 20.0992 7.55859L23.4742 4.04297C23.9078 3.59766 23.7437 3 23.1578 2.82422L18.4703 1.41797C17.8609 1.23047 17.439 1.64062 17.6031 2.23828Z" fill="black" fill-opacity="0.85"/>
 </g>
</svg>
