<?xml version="1.0" encoding="UTF-8"?>
<!--Generator: Apple Native CoreSVG 360-->
<!DOCTYPE svg
PUBLIC "-//W3C//DTD SVG 1.1//EN"
       "http://www.w3.org/Graphics/SVG/1.1/DTD/svg11.dtd">
<svg version="1.1" xmlns="http://www.w3.org/2000/svg" xmlns:xlink="http://www.w3.org/1999/xlink" viewBox="0 0 26.8773 33.9023">
 <g>
  <rect height="33.9023" opacity="0" width="26.8773" x="0" y="0"/>
  <path d="M0.196487 19.8398C1.22774 23.6602 2.29414 24.832 4.70821 24.832L18.6184 24.832C20.3527 24.832 21.5129 23.8828 21.9465 22.125L26.3527 4.24219C26.9973 1.65234 25.7785 0 23.4934 0C20.7395 0 18.5129 2.61328 19.5793 6.25781L19.802 5.12109C17.0715 7.06641 15.6301 11.2148 16.0051 16.1953L16.5441 15.5156C13.9895 15.0586 11.0129 14.8125 8.05977 14.8125C1.79024 14.8125-0.764451 16.3359 0.196487 19.8398ZM2.00117 19.3477C1.48555 17.4609 2.91524 16.6992 8.05977 16.6992C12.2316 16.6992 15.2316 17.2617 16.5676 17.3555C17.2824 17.3672 17.7277 16.9219 17.716 16.207C17.634 11.7891 18.7941 8.23828 20.8449 6.70312C21.2902 6.33984 21.384 6.10547 21.2551 5.30859C20.9387 3.10547 22.1574 1.88672 23.4934 1.88672C24.3605 1.88672 24.8293 2.60156 24.548 3.75L20.1066 21.668C19.9074 22.4883 19.4035 22.9453 18.6184 22.9453L4.70821 22.9453C3.39571 22.9453 2.85664 22.5117 2.00117 19.3477Z" fill="black" fill-opacity="0.85"/>
  <path d="M14.5637 32.9766C14.5637 33.6094 15.0793 33.8789 15.6301 33.5391L19.7902 31.0078C20.3176 30.6797 20.3059 30.0586 19.7902 29.7422L15.6184 27.1875C15.0676 26.8477 14.5637 27.1406 14.5637 27.7617Z" fill="black" fill-opacity="0.85"/>
  <path d="M8.48164 32.9766L8.48164 27.7617C8.48164 27.1406 7.97774 26.8477 7.42696 27.1875L3.2668 29.7422C2.73946 30.0586 2.72774 30.6797 3.2668 31.0078L7.42696 33.5391C7.97774 33.8789 8.48164 33.6094 8.48164 32.9766Z" fill="black" fill-opacity="0.85"/>
 </g>
</svg>
