<?xml version="1.0" encoding="UTF-8"?>
<!--Generator: Apple Native CoreSVG 360-->
<!DOCTYPE svg
PUBLIC "-//W3C//DTD SVG 1.1//EN"
       "http://www.w3.org/Graphics/SVG/1.1/DTD/svg11.dtd">
<svg version="1.1" xmlns="http://www.w3.org/2000/svg" xmlns:xlink="http://www.w3.org/1999/xlink" viewBox="0 0 28.582 23.5195">
 <g>
  <rect height="23.5195" opacity="0" width="28.582" x="0" y="0"/>
  <path d="M28.2305 14.1094C28.2305 10.6641 26.9883 7.48828 24.9141 5.02734C24.6797 4.74609 24.2812 4.74609 24.0234 5.01562L21.3047 7.73438C21.082 7.95703 21.0703 8.27344 21.2695 8.51953C22.4766 10.0664 23.2031 12.0117 23.2031 14.1094C23.2031 16.2188 22.4766 18.1641 21.1992 19.793C21.0352 19.9922 21.0469 20.25 21.2227 20.4375L24.0117 23.2266C24.2812 23.4961 24.668 23.4961 24.9141 23.2031C26.9883 20.7422 28.2305 17.5664 28.2305 14.1094Z" fill="black" fill-opacity="0.85"/>
  <path d="M14.1094 5.02734C16.2305 5.02734 18.1758 5.76562 19.7344 6.97266C19.9688 7.16016 20.2734 7.13672 20.4961 6.91406L23.2148 4.19531C23.4844 3.92578 23.4727 3.53906 23.1914 3.30469C20.7422 1.24219 17.5664 0 14.1094 0C10.6641 0 7.48828 1.24219 5.03906 3.30469C4.75781 3.53906 4.74609 3.92578 5.01562 4.19531L7.73438 6.91406C7.95703 7.13672 8.27344 7.16016 8.53125 6.96094C10.0781 5.76562 12.0117 5.02734 14.1094 5.02734Z" fill="black" fill-opacity="0.85"/>
  <path d="M0 14.1094C0 17.5664 1.24219 20.7422 3.31641 23.2031C3.55078 23.4961 3.94922 23.4961 4.20703 23.2266L6.99609 20.4375C7.17188 20.25 7.19531 19.9922 7.03125 19.793C5.75391 18.1641 5.02734 16.2188 5.02734 14.1094C5.02734 12.0117 5.74219 10.0664 6.96094 8.51953C7.14844 8.27344 7.14844 7.95703 6.92578 7.73438L4.20703 5.01562C3.9375 4.74609 3.55078 4.74609 3.31641 5.02734C1.24219 7.48828 0 10.6641 0 14.1094Z" fill="black" fill-opacity="0.85"/>
  <path d="M14.1914 19.418C15.9609 19.418 17.5547 18.6445 18.1172 17.0742C18.1875 16.8984 18.2227 16.7227 18.2227 16.5234C18.2227 16.1484 17.9766 15.9023 17.6016 15.9023C17.2266 15.9023 17.0391 16.1016 16.9336 16.4414C16.582 17.5195 15.4688 18.1992 14.1914 18.1992C12 18.1992 11.0156 16.2773 11.0156 14.168C11.0156 12.0234 12.0703 10.1484 14.1797 10.1484C15.4219 10.1484 16.5234 10.8867 16.8516 11.918C16.9688 12.2695 17.1445 12.457 17.5078 12.457C17.8828 12.457 18.1406 12.2344 18.1406 11.8359C18.1406 11.5664 18.0703 11.3555 17.9766 11.1328C17.332 9.70312 15.8203 8.92969 14.1797 8.92969C11.2852 8.92969 9.58594 11.1445 9.58594 14.168C9.58594 17.1328 11.1797 19.418 14.1914 19.418ZM14.0977 20.7773C14.332 20.7773 14.4961 20.6133 14.4961 20.3789L14.4961 7.99219C14.4961 7.76953 14.332 7.59375 14.0977 7.59375C13.875 7.59375 13.6992 7.76953 13.6992 7.99219L13.6992 20.3789C13.6992 20.6016 13.875 20.7773 14.0977 20.7773Z" fill="black" fill-opacity="0.85"/>
 </g>
</svg>
