<?xml version="1.0" encoding="UTF-8"?>
<!--Generator: Apple Native CoreSVG 360-->
<!DOCTYPE svg
PUBLIC "-//W3C//DTD SVG 1.1//EN"
       "http://www.w3.org/Graphics/SVG/1.1/DTD/svg11.dtd">
<svg version="1.1" xmlns="http://www.w3.org/2000/svg" xmlns:xlink="http://www.w3.org/1999/xlink" viewBox="0 0 17.4258 26.5195">
 <g>
  <rect height="26.5195" opacity="0" width="17.4258" x="0" y="0"/>
  <path d="M9.10547 23.7422C12.5273 23.7422 15.7148 22.2773 16.875 19.0547C17.0039 18.7383 17.0742 18.293 17.0742 17.9883C17.0742 17.2617 16.6055 16.9219 16.0078 16.9219C15.3633 16.9219 15.0586 17.2852 14.8477 17.8828C14.1562 20.2617 11.8242 21.6211 9.11719 21.6211C4.65234 21.6211 2.46094 17.8477 2.46094 13.2188C2.46094 8.77734 4.55859 4.88672 9.10547 4.88672C11.625 4.88672 14.0039 6.30469 14.6953 8.69531C14.9062 9.30469 15.1992 9.64453 15.8555 9.64453C16.5 9.64453 16.9219 9.22266 16.9219 8.58984C16.9219 8.26172 16.8516 7.86328 16.7227 7.52344C15.5859 4.5 12.457 2.76562 9.10547 2.76562C3.24609 2.76562 0 7.24219 0 13.2188C0 19.2773 3.23438 23.7422 9.10547 23.7422ZM8.90625 26.5195C9.375 26.5195 9.69141 26.2148 9.69141 25.7461L9.69141 0.84375C9.69141 0.304688 9.28125 0.0703125 8.90625 0.0703125C8.55469 0.0703125 8.15625 0.304688 8.15625 0.84375L8.15625 25.7461C8.15625 26.2617 8.51953 26.5195 8.90625 26.5195Z" fill="black" fill-opacity="0.85"/>
 </g>
</svg>
