<?xml version="1.0" encoding="UTF-8"?>
<!--Generator: Apple Native CoreSVG 360-->
<!DOCTYPE svg
PUBLIC "-//W3C//DTD SVG 1.1//EN"
       "http://www.w3.org/Graphics/SVG/1.1/DTD/svg11.dtd">
<svg version="1.1" xmlns="http://www.w3.org/2000/svg" xmlns:xlink="http://www.w3.org/1999/xlink" viewBox="0 0 26.5195 25.0195">
 <g>
  <rect height="25.0195" opacity="0" width="26.5195" x="0" y="0"/>
  <path d="M1.55859 22.2188L24.6094 22.2188L24.6094 21.4336C24.6094 20.9648 24.3398 20.6836 23.8594 20.6836L23.1094 20.6836L23.1094 8.03906L24.1406 8.03906C24.7852 8.03906 25.1602 7.57031 25.1602 7.08984C25.1602 6.73828 24.9609 6.43359 24.5273 6.1875L14.5195 0.410156C14.0508 0.140625 13.5586 0 13.0781 0C12.5977 0 12.0938 0.140625 11.6484 0.410156L1.64062 6.1875C1.19531 6.43359 1.00781 6.73828 1.00781 7.08984C1.00781 7.57031 1.38281 8.03906 2.02734 8.03906L3.05859 8.03906L3.05859 20.6836L2.32031 20.6836C1.83984 20.6836 1.55859 20.9648 1.55859 21.4336ZM4.82812 20.6836L4.82812 6.53906L12.6211 2.16797C12.7617 2.08594 12.9258 2.03906 13.0781 2.03906C13.2305 2.03906 13.3945 2.08594 13.5469 2.16797L21.3398 6.53906L21.3398 20.6836ZM0.9375 25.0078L25.2188 25.0078C25.7344 25.0078 26.168 24.5742 26.168 24.0586C26.168 23.543 25.7344 23.1211 25.2188 23.1211L0.9375 23.1211C0.421875 23.1211 0 23.543 0 24.0586C0 24.5742 0.421875 25.0078 0.9375 25.0078Z" fill="black" fill-opacity="0.85"/>
  <path d="M13.1836 17.4844C14.9414 17.4844 16.5352 16.7109 17.1094 15.1406C17.1797 14.9648 17.2148 14.7891 17.2148 14.5898C17.2148 14.2148 16.957 13.9688 16.582 13.9688C16.2188 13.9688 16.0312 14.168 15.9141 14.5078C15.5742 15.5859 14.4492 16.2656 13.1836 16.2656C10.9922 16.2656 10.0078 14.3438 10.0078 12.2344C10.0078 10.0898 11.0508 8.21484 13.1719 8.21484C14.4141 8.21484 15.5039 8.95312 15.8438 9.98438C15.9609 10.3359 16.125 10.5234 16.5 10.5234C16.875 10.5234 17.1328 10.3008 17.1328 9.90234C17.1328 9.63281 17.0508 9.42188 16.957 9.19922C16.3242 7.76953 14.8125 6.99609 13.1719 6.99609C10.2656 6.99609 8.57812 9.21094 8.57812 12.2344C8.57812 15.1992 10.1719 17.4844 13.1836 17.4844ZM13.0898 18.8438C13.3242 18.8438 13.4766 18.6797 13.4766 18.4453L13.4766 6.05859C13.4766 5.83594 13.3242 5.66016 13.0898 5.66016C12.8672 5.66016 12.6914 5.83594 12.6914 6.05859L12.6914 18.4453C12.6914 18.668 12.8672 18.8438 13.0898 18.8438Z" fill="black" fill-opacity="0.85"/>
 </g>
</svg>
