<?xml version="1.0" encoding="UTF-8"?>
<!--Generator: Apple Native CoreSVG 360-->
<!DOCTYPE svg
PUBLIC "-//W3C//DTD SVG 1.1//EN"
       "http://www.w3.org/Graphics/SVG/1.1/DTD/svg11.dtd">
<svg version="1.1" xmlns="http://www.w3.org/2000/svg" xmlns:xlink="http://www.w3.org/1999/xlink" viewBox="0 0 30.1641 20.3555">
 <g>
  <rect height="20.3555" opacity="0" width="30.1641" x="0" y="0"/>
  <path d="M25.7578 20.3438L28.5938 20.3438C29.332 20.3438 29.8125 19.8281 29.8125 19.0664L29.8125 1.27734C29.8125 0.515625 29.332 0 28.5938 0L25.7578 0C25.0195 0 24.5273 0.515625 24.5273 1.27734L24.5273 19.0664C24.5273 19.8281 25.0195 20.3438 25.7578 20.3438Z" fill="black" fill-opacity="0.85"/>
  <path d="M17.5781 20.3438L20.4023 20.3438C21.1406 20.3438 21.6328 19.8281 21.6328 19.0664L21.6328 5.90625C21.6328 5.14453 21.1406 4.62891 20.4023 4.62891L17.5781 4.62891C16.8516 4.62891 16.3477 5.14453 16.3477 5.90625L16.3477 19.0664C16.3477 19.8281 16.8516 20.3438 17.5781 20.3438Z" fill="black" fill-opacity="0.85"/>
  <path d="M9.41016 20.3438L12.2344 20.3438C12.9727 20.3438 13.4648 19.8281 13.4648 19.0664L13.4648 10.1484C13.4648 9.38672 12.9727 8.87109 12.2344 8.87109L9.41016 8.87109C8.67188 8.87109 8.17969 9.38672 8.17969 10.1484L8.17969 19.0664C8.17969 19.8281 8.67188 20.3438 9.41016 20.3438Z" fill="black" fill-opacity="0.85"/>
  <path d="M1.23047 20.3438L4.05469 20.3438C4.79297 20.3438 5.28516 19.8281 5.28516 19.0664L5.28516 13.8047C5.28516 13.043 4.79297 12.5391 4.05469 12.5391L1.23047 12.5391C0.492188 12.5391 0 13.043 0 13.8047L0 19.0664C0 19.8281 0.492188 20.3438 1.23047 20.3438Z" fill="black" fill-opacity="0.85"/>
 </g>
</svg>
