<?xml version="1.0" encoding="UTF-8"?>
<!--Generator: Apple Native CoreSVG 360-->
<!DOCTYPE svg
PUBLIC "-//W3C//DTD SVG 1.1//EN"
       "http://www.w3.org/Graphics/SVG/1.1/DTD/svg11.dtd">
<svg version="1.1" xmlns="http://www.w3.org/2000/svg" xmlns:xlink="http://www.w3.org/1999/xlink" viewBox="0 0 30.1641 20.3555">
 <g>
  <rect height="20.3555" opacity="0" width="30.1641" x="0" y="0"/>
  <path d="M25.7578 20.3438L28.5938 20.3438C29.332 20.3438 29.8125 19.8281 29.8125 19.0664L29.8125 16.2656C29.8125 15.5039 29.332 14.9883 28.5938 14.9883L25.7578 14.9883C25.0195 14.9883 24.5273 15.5039 24.5273 16.2656L24.5273 19.0664C24.5273 19.8281 25.0195 20.3438 25.7578 20.3438Z" fill="black" fill-opacity="0.85"/>
  <path d="M17.5781 20.3438L20.4023 20.3438C21.1406 20.3438 21.6328 19.8281 21.6328 19.0664L21.6328 16.2656C21.6328 15.5039 21.1406 14.9883 20.4023 14.9883L17.5781 14.9883C16.8516 14.9883 16.3477 15.5039 16.3477 16.2656L16.3477 19.0664C16.3477 19.8281 16.8516 20.3438 17.5781 20.3438Z" fill="black" fill-opacity="0.85"/>
  <path d="M9.41016 20.3438L12.2344 20.3438C12.9727 20.3438 13.4648 19.8281 13.4648 19.0664L13.4648 16.2656C13.4648 15.5039 12.9727 14.9883 12.2344 14.9883L9.41016 14.9883C8.67188 14.9883 8.17969 15.5039 8.17969 16.2656L8.17969 19.0664C8.17969 19.8281 8.67188 20.3438 9.41016 20.3438Z" fill="black" fill-opacity="0.85"/>
  <path d="M1.23047 20.3438L4.05469 20.3438C4.79297 20.3438 5.28516 19.8281 5.28516 19.0664L5.28516 16.2539C5.28516 15.4922 4.79297 14.9883 4.05469 14.9883L1.23047 14.9883C0.492188 14.9883 0 15.4922 0 16.2539L0 19.0664C0 19.8281 0.492188 20.3438 1.23047 20.3438Z" fill="black" fill-opacity="0.85"/>
  <path d="M1.23047 12.3047L4.05469 12.3047C4.79297 12.3047 5.28516 11.7891 5.28516 11.0273L5.28516 7.61719C5.28516 6.84375 4.79297 6.33984 4.05469 6.33984L1.23047 6.33984C0.492188 6.33984 0 6.84375 0 7.61719L0 11.0273C0 11.7891 0.492188 12.3047 1.23047 12.3047ZM9.41016 12.3047L12.2344 12.3047C12.9727 12.3047 13.4648 11.7891 13.4648 11.0273L13.4648 5.73047C13.4648 4.96875 12.9727 4.45312 12.2344 4.45312L9.41016 4.45312C8.67188 4.45312 8.17969 4.96875 8.17969 5.73047L8.17969 11.0273C8.17969 11.7891 8.67188 12.3047 9.41016 12.3047ZM17.5781 12.3047L20.4023 12.3047C21.1406 12.3047 21.6328 11.7891 21.6328 11.0273L21.6328 3.35156C21.6328 2.57812 21.1406 2.0625 20.4023 2.0625L17.5781 2.0625C16.8516 2.0625 16.3477 2.57812 16.3477 3.35156L16.3477 11.0273C16.3477 11.7891 16.8516 12.3047 17.5781 12.3047ZM25.7578 12.3047L28.5938 12.3047C29.332 12.3047 29.8125 11.7891 29.8125 11.0273L29.8125 1.27734C29.8125 0.515625 29.332 0 28.5938 0L25.7578 0C25.0195 0 24.5273 0.515625 24.5273 1.27734L24.5273 11.0273C24.5273 11.7891 25.0195 12.3047 25.7578 12.3047Z" fill="black" fill-opacity="0.85"/>
 </g>
</svg>
