<?xml version="1.0" encoding="UTF-8"?>
<!--Generator: Apple Native CoreSVG 360-->
<!DOCTYPE svg
PUBLIC "-//W3C//DTD SVG 1.1//EN"
       "http://www.w3.org/Graphics/SVG/1.1/DTD/svg11.dtd">
<svg version="1.1" xmlns="http://www.w3.org/2000/svg" xmlns:xlink="http://www.w3.org/1999/xlink" viewBox="0 0 28.582 23.4085">
 <g>
  <rect height="23.4085" opacity="0" width="28.582" x="0" y="0"/>
  <path d="M28.2305 14.0539C28.2305 6.67105 22.5586 0.612457 15.3398 0.00308175C14.9648-0.0320745 14.6836 0.237457 14.6836 0.612457L14.6836 4.44449C14.6836 4.76089 14.9062 5.00699 15.2227 5.03043C19.7109 5.58121 23.2031 9.41324 23.2031 14.0539C23.2031 16.1632 22.4766 18.1086 21.1992 19.7375C21.0352 19.9367 21.0469 20.1945 21.2227 20.382L24.0234 23.1711C24.2812 23.4289 24.6797 23.4289 24.9141 23.1476C26.9883 20.6867 28.2305 17.5109 28.2305 14.0539Z" fill="black" fill-opacity="0.85"/>
  <path d="M0 14.0539C0 17.5226 1.24219 20.6984 3.31641 23.1593C3.55078 23.4406 3.9375 23.4289 4.20703 23.1711L7.00781 20.382C7.18359 20.1945 7.19531 19.9367 7.03125 19.7375C5.74219 18.1086 5.02734 16.1632 5.02734 14.0539C5.02734 9.41324 8.51953 5.58121 13.0078 5.03043C13.3242 5.00699 13.5469 4.76089 13.5469 4.44449L13.5469 0.612457C13.5469 0.237457 13.2656-0.0320745 12.8906 0.00308175C5.67188 0.612457 0 6.67105 0 14.0539Z" fill="black" fill-opacity="0.85"/>
  <path d="M14.1094 18.2492C15.1172 18.2492 16.125 17.8859 16.7695 17.2765C17.1445 16.9015 17.4258 16.3625 17.4258 15.9523C17.4258 15.5773 17.1445 15.3664 16.8164 15.3664C16.5 15.3664 16.3477 15.5773 16.2188 15.8C15.7734 16.6671 15.1172 17.1125 14.1211 17.1125C12.4453 17.1125 11.6484 15.8468 11.6484 14.1359C11.6484 12.425 12.4805 11.1711 14.0977 11.1711C15.0938 11.1711 15.8203 11.5929 16.207 12.4953C16.3359 12.7648 16.5352 12.9289 16.8164 12.9289C17.168 12.9289 17.4141 12.7062 17.4141 12.3312C17.4141 11.8859 17.0977 11.382 16.7344 11.0187C16.1016 10.3859 15.1289 10.0343 14.0859 10.0343C11.6953 10.0343 10.2891 11.7453 10.2891 14.1359C10.2891 16.7257 11.8359 18.2492 14.1094 18.2492ZM14.0625 19.632C14.2852 19.632 14.4609 19.4562 14.4609 19.2336L14.4609 9.04996C14.4609 8.8273 14.2852 8.65152 14.0625 8.65152C13.8281 8.65152 13.6523 8.8273 13.6523 9.04996L13.6523 19.2336C13.6523 19.4562 13.8281 19.632 14.0625 19.632Z" fill="black" fill-opacity="0.85"/>
 </g>
</svg>
