<?xml version="1.0" encoding="UTF-8"?>
<!--Generator: Apple Native CoreSVG 360-->
<!DOCTYPE svg
PUBLIC "-//W3C//DTD SVG 1.1//EN"
       "http://www.w3.org/Graphics/SVG/1.1/DTD/svg11.dtd">
<svg version="1.1" xmlns="http://www.w3.org/2000/svg" xmlns:xlink="http://www.w3.org/1999/xlink" viewBox="0 0 14.4375 21.9492">
 <g>
  <rect height="21.9492" opacity="0" width="14.4375" x="0" y="0"/>
  <path d="M7.5 19.1484C9.43359 19.1484 11.3555 18.5625 12.7148 17.2266C13.3828 16.5469 14.0859 15.4219 14.0859 14.5664C14.0859 13.9688 13.6641 13.5703 13.0312 13.5703C12.6094 13.5703 12.2227 13.8398 12.0234 14.2852C11.25 16.1719 9.65625 17.1797 7.51172 17.1797C3.98438 17.1797 2.28516 14.4961 2.28516 10.9688C2.28516 7.44141 4.01953 4.75781 7.48828 4.75781C9.65625 4.75781 11.2266 5.76562 12 7.65234C12.1875 8.10938 12.5977 8.37891 13.0547 8.37891C13.6289 8.37891 14.0625 7.99219 14.0625 7.35938C14.0625 6.52734 13.3945 5.41406 12.6914 4.71094C11.3555 3.38672 9.38672 2.78906 7.47656 2.78906C2.8125 2.78906 0 6.21094 0 10.9688C0 15.75 2.74219 19.1484 7.5 19.1484ZM7.39453 21.9492C7.81641 21.9492 8.16797 21.5977 8.16797 21.1758L8.16797 0.761719C8.16797 0.339844 7.81641 0 7.39453 0C6.97266 0 6.63281 0.339844 6.63281 0.761719L6.63281 21.1758C6.63281 21.5977 6.97266 21.9492 7.39453 21.9492Z" fill="black" fill-opacity="0.85"/>
 </g>
</svg>
