<?xml version="1.0" encoding="UTF-8"?>
<!--Generator: Apple Native CoreSVG 360-->
<!DOCTYPE svg
PUBLIC "-//W3C//DTD SVG 1.1//EN"
       "http://www.w3.org/Graphics/SVG/1.1/DTD/svg11.dtd">
<svg version="1.1" xmlns="http://www.w3.org/2000/svg" xmlns:xlink="http://www.w3.org/1999/xlink" viewBox="0 0 26.5195 25.0195">
 <g>
  <rect height="25.0195" opacity="0" width="26.5195" x="0" y="0"/>
  <path d="M1.55859 22.2188L24.6094 22.2188L24.6094 21.4336C24.6094 20.9648 24.3398 20.6836 23.8594 20.6836L23.1094 20.6836L23.1094 8.03906L24.1406 8.03906C24.7852 8.03906 25.1602 7.57031 25.1602 7.08984C25.1602 6.73828 24.9609 6.43359 24.5273 6.1875L14.5195 0.410156C14.0508 0.140625 13.5586 0 13.0781 0C12.5977 0 12.0938 0.140625 11.6484 0.410156L1.64062 6.1875C1.19531 6.43359 1.00781 6.73828 1.00781 7.08984C1.00781 7.57031 1.38281 8.03906 2.02734 8.03906L3.05859 8.03906L3.05859 20.6836L2.32031 20.6836C1.83984 20.6836 1.55859 20.9648 1.55859 21.4336ZM4.82812 20.6836L4.82812 6.53906L12.6211 2.16797C12.7617 2.08594 12.9258 2.03906 13.0781 2.03906C13.2305 2.03906 13.3945 2.08594 13.5469 2.16797L21.3398 6.53906L21.3398 20.6836ZM0.9375 25.0078L25.2188 25.0078C25.7344 25.0078 26.168 24.5742 26.168 24.0586C26.168 23.543 25.7344 23.1211 25.2188 23.1211L0.9375 23.1211C0.421875 23.1211 0 23.543 0 24.0586C0 24.5742 0.421875 25.0078 0.9375 25.0078Z" fill="black" fill-opacity="0.85"/>
  <path d="M13.0898 16.3711C14.1094 16.3711 15.1172 16.0078 15.75 15.3984C16.125 15.0234 16.418 14.4844 16.418 14.0742C16.418 13.6992 16.1367 13.4883 15.8086 13.4883C15.4805 13.4883 15.3281 13.6992 15.2109 13.9219C14.7656 14.7891 14.1094 15.2344 13.1016 15.2344C11.4375 15.2344 10.6406 13.9688 10.6406 12.2578C10.6406 10.5469 11.4609 9.29297 13.0898 9.29297C14.0859 9.29297 14.8125 9.71484 15.1992 10.6172C15.3164 10.8867 15.5273 11.0508 15.8086 11.0508C16.1602 11.0508 16.4062 10.8281 16.4062 10.4531C16.4062 10.0078 16.0898 9.50391 15.7266 9.14062C15.0938 8.50781 14.1211 8.15625 13.0781 8.15625C10.6875 8.15625 9.28125 9.86719 9.28125 12.2578C9.28125 14.8477 10.8281 16.3711 13.0898 16.3711ZM13.043 17.7539C13.2656 17.7539 13.4414 17.5781 13.4414 17.3555L13.4414 7.17188C13.4414 6.94922 13.2656 6.77344 13.043 6.77344C12.8203 6.77344 12.6445 6.94922 12.6445 7.17188L12.6445 17.3555C12.6445 17.5781 12.8203 17.7539 13.043 17.7539Z" fill="black" fill-opacity="0.85"/>
 </g>
</svg>
