<?xml version="1.0" encoding="UTF-8"?>
<!--Generator: Apple Native CoreSVG 360-->
<!DOCTYPE svg
PUBLIC "-//W3C//DTD SVG 1.1//EN"
       "http://www.w3.org/Graphics/SVG/1.1/DTD/svg11.dtd">
<svg version="1.1" xmlns="http://www.w3.org/2000/svg" xmlns:xlink="http://www.w3.org/1999/xlink" viewBox="0 0 28.582 23.5195">
 <g>
  <rect height="23.5195" opacity="0" width="28.582" x="0" y="0"/>
  <path d="M28.2305 14.1094C28.2305 10.6641 26.9883 7.48828 24.9141 5.02734C24.6797 4.74609 24.2812 4.74609 24.0234 5.01562L21.3047 7.73438C21.082 7.95703 21.0703 8.27344 21.2695 8.51953C22.4766 10.0664 23.2031 12.0117 23.2031 14.1094C23.2031 16.2188 22.4766 18.1641 21.1992 19.793C21.0352 19.9922 21.0469 20.25 21.2227 20.4375L24.0117 23.2266C24.2812 23.4961 24.668 23.4961 24.9141 23.2031C26.9883 20.7422 28.2305 17.5664 28.2305 14.1094Z" fill="black" fill-opacity="0.85"/>
  <path d="M14.1094 5.02734C16.2305 5.02734 18.1758 5.76562 19.7344 6.97266C19.9688 7.16016 20.2734 7.13672 20.4961 6.91406L23.2148 4.19531C23.4844 3.92578 23.4727 3.53906 23.1914 3.30469C20.7422 1.24219 17.5664 0 14.1094 0C10.6641 0 7.48828 1.24219 5.03906 3.30469C4.75781 3.53906 4.74609 3.92578 5.01562 4.19531L7.73438 6.91406C7.95703 7.13672 8.27344 7.16016 8.53125 6.96094C10.0781 5.76562 12.0117 5.02734 14.1094 5.02734Z" fill="black" fill-opacity="0.85"/>
  <path d="M0 14.1094C0 17.5664 1.24219 20.7422 3.31641 23.2031C3.55078 23.4961 3.94922 23.4961 4.20703 23.2266L6.99609 20.4375C7.17188 20.25 7.19531 19.9922 7.03125 19.793C5.75391 18.1641 5.02734 16.2188 5.02734 14.1094C5.02734 12.0117 5.74219 10.0664 6.96094 8.51953C7.14844 8.27344 7.14844 7.95703 6.92578 7.73438L4.20703 5.01562C3.9375 4.74609 3.55078 4.74609 3.31641 5.02734C1.24219 7.48828 0 10.6641 0 14.1094Z" fill="black" fill-opacity="0.85"/>
  <path d="M14.1094 18.3047C15.1172 18.3047 16.125 17.9414 16.7695 17.332C17.1445 16.957 17.4258 16.418 17.4258 16.0078C17.4258 15.6328 17.1445 15.4219 16.8164 15.4219C16.5 15.4219 16.3477 15.6328 16.2188 15.8555C15.7734 16.7227 15.1172 17.168 14.1211 17.168C12.4453 17.168 11.6484 15.9023 11.6484 14.1914C11.6484 12.4805 12.4805 11.2266 14.0977 11.2266C15.0938 11.2266 15.8203 11.6484 16.207 12.5508C16.3359 12.8203 16.5352 12.9844 16.8164 12.9844C17.168 12.9844 17.4141 12.7617 17.4141 12.3867C17.4141 11.9414 17.0977 11.4375 16.7344 11.0742C16.1016 10.4414 15.1289 10.0898 14.0859 10.0898C11.6953 10.0898 10.2891 11.8008 10.2891 14.1914C10.2891 16.7812 11.8359 18.3047 14.1094 18.3047ZM14.0625 19.6875C14.2852 19.6875 14.4609 19.5117 14.4609 19.2891L14.4609 9.10547C14.4609 8.88281 14.2852 8.70703 14.0625 8.70703C13.8281 8.70703 13.6523 8.88281 13.6523 9.10547L13.6523 19.2891C13.6523 19.5117 13.8281 19.6875 14.0625 19.6875Z" fill="black" fill-opacity="0.85"/>
 </g>
</svg>
