<?xml version="1.0" encoding="UTF-8"?>
<!--Generator: Apple Native CoreSVG 360-->
<!DOCTYPE svg
PUBLIC "-//W3C//DTD SVG 1.1//EN"
       "http://www.w3.org/Graphics/SVG/1.1/DTD/svg11.dtd">
<svg version="1.1" xmlns="http://www.w3.org/2000/svg" xmlns:xlink="http://www.w3.org/1999/xlink" viewBox="0 0 23.6602 20.5898">
 <g>
  <rect height="20.5898" opacity="0" width="23.6602" x="0" y="0"/>
  <path d="M3.45703 6.89062L5.42578 6.89062L5.42578 2.92969C5.42578 2.34375 5.8125 1.96875 6.375 1.96875L16.9219 1.96875C17.4961 1.96875 17.8711 2.34375 17.8711 2.92969L17.8711 6.89062L19.8398 6.89062L19.8398 2.91797C19.8398 1.16016 18.7031 0 17.0273 0L6.28125 0C4.59375 0 3.45703 1.16016 3.45703 2.91797ZM0 15.375C0 17.0625 1.11328 18.1758 2.77734 18.1758L20.5312 18.1758C22.1836 18.1758 23.3086 17.0625 23.3086 15.375L23.3086 8.25C23.3086 6.57422 22.1836 5.44922 20.5312 5.44922L19.1602 5.44922C17.4961 5.44922 16.3828 6.57422 16.3828 8.25L16.3828 11.3086L6.92578 11.3086L6.92578 8.25C6.92578 6.57422 5.80078 5.44922 4.14844 5.44922L2.77734 5.44922C1.11328 5.44922 0 6.57422 0 8.25ZM1.99219 15.3516L1.99219 8.27344C1.99219 7.75781 2.34375 7.41797 2.87109 7.41797L4.05469 7.41797C4.58203 7.41797 4.93359 7.75781 4.93359 8.27344L4.93359 13.2773L18.375 13.2773L18.375 8.27344C18.375 7.75781 18.7266 7.41797 19.2539 7.41797L20.4375 7.41797C20.9648 7.41797 21.3164 7.75781 21.3164 8.27344L21.3164 15.3516C21.3164 15.8672 20.9648 16.207 20.4375 16.207L2.87109 16.207C2.34375 16.207 1.99219 15.8672 1.99219 15.3516ZM4.26562 20.5664L4.99219 20.5664C5.625 20.5664 6.03516 20.168 6.03516 19.5352L6.03516 17.0508L3.22266 17.0508L3.22266 19.5352C3.22266 20.168 3.63281 20.5664 4.26562 20.5664ZM18.3164 20.5664L19.0312 20.5664C19.6641 20.5664 20.0742 20.168 20.0742 19.5352L20.0742 17.0508L17.2734 17.0508L17.2734 19.5352C17.2734 20.168 17.6836 20.5664 18.3164 20.5664Z" fill="black" fill-opacity="0.85"/>
 </g>
</svg>
