<?xml version="1.0" encoding="UTF-8"?>
<!--Generator: Apple Native CoreSVG 360-->
<!DOCTYPE svg
PUBLIC "-//W3C//DTD SVG 1.1//EN"
       "http://www.w3.org/Graphics/SVG/1.1/DTD/svg11.dtd">
<svg version="1.1" xmlns="http://www.w3.org/2000/svg" xmlns:xlink="http://www.w3.org/1999/xlink" viewBox="0 0 17.2969 25.3945">
 <g>
  <rect height="25.3945" opacity="0" width="17.2969" x="0" y="0"/>
  <path d="M2.97656 8.69531L13.9688 8.69531C15.3516 8.69531 16.0078 8.0625 16.0078 6.71484L16.0078 1.98047C16.0078 0.632812 15.3516 0 13.9688 0L2.97656 0C1.59375 0 0.9375 0.632812 0.9375 1.98047L0.9375 6.71484C0.9375 8.0625 1.59375 8.69531 2.97656 8.69531ZM3.63281 6.72656C3.16406 6.72656 2.90625 6.49219 2.90625 6.03516L2.90625 2.64844C2.90625 2.21484 3.16406 1.96875 3.63281 1.96875L13.3125 1.96875C13.7812 1.96875 14.0391 2.21484 14.0391 2.64844L14.0391 6.03516C14.0391 6.49219 13.7812 6.72656 13.3125 6.72656ZM3.33984 12.6445L5.57812 12.6445L5.57812 7.66406L3.33984 7.66406ZM11.3672 12.6445L13.6055 12.6445L13.6055 7.66406L11.3672 7.66406ZM1.93359 17.4258L15.0117 17.4258C16.3008 17.4258 16.9453 16.8164 16.9453 15.5625L16.9453 13.7812C16.9453 12.5273 16.3008 11.918 15.0117 11.918L1.93359 11.918C0.644531 11.918 0 12.5273 0 13.7812L0 15.5625C0 16.8164 0.644531 17.4258 1.93359 17.4258ZM2.47266 15.457C2.17969 15.457 1.96875 15.2695 1.96875 15L1.96875 14.3438C1.96875 14.0742 2.17969 13.8867 2.47266 13.8867L14.4727 13.8867C14.7656 13.8867 14.9766 14.0742 14.9766 14.3438L14.9766 15C14.9766 15.2695 14.7656 15.457 14.4727 15.457ZM2.21484 25.3711L2.57812 25.3711C3.15234 25.3711 3.55078 24.9727 3.55078 24.3984L3.55078 16.8164L1.24219 16.8164L1.24219 24.3984C1.24219 24.9727 1.64062 25.3711 2.21484 25.3711ZM2.94141 20.1562L14.0039 20.1562L14.0039 18.3867L2.94141 18.3867ZM14.3672 25.3711L14.7305 25.3711C15.3047 25.3711 15.7031 24.9727 15.7031 24.3984L15.7031 16.8164L13.3945 16.8164L13.3945 24.3984C13.3945 24.9727 13.793 25.3711 14.3672 25.3711Z" fill="black" fill-opacity="0.85"/>
 </g>
</svg>
