<?xml version="1.0" encoding="UTF-8"?>
<!--Generator: Apple Native CoreSVG 360-->
<!DOCTYPE svg
PUBLIC "-//W3C//DTD SVG 1.1//EN"
       "http://www.w3.org/Graphics/SVG/1.1/DTD/svg11.dtd">
<svg version="1.1" xmlns="http://www.w3.org/2000/svg" xmlns:xlink="http://www.w3.org/1999/xlink" viewBox="0 0 24.2578 23.918">
 <g>
  <rect height="23.918" opacity="0" width="24.2578" x="0" y="0"/>
  <path d="M11.9414 12.0117C15.2227 12.0117 17.9648 9.29297 17.9648 6.02344C17.9648 2.73047 15.2227 0.0117188 11.9414 0.0117188C8.64844 0.0117188 5.92969 2.73047 5.92969 6.02344C5.92969 9.29297 8.67188 12.0117 11.9414 12.0117ZM11.9414 10.0312C9.66797 10.0312 7.91016 8.28516 7.91016 6.02344C7.91016 3.75 9.66797 1.99219 11.9414 1.99219C14.2148 1.99219 15.9844 3.75 15.9844 6.02344C15.9844 8.28516 14.2148 10.0312 11.9414 10.0312ZM11.9531 23.9062C18.5508 23.9062 23.9062 18.5508 23.9062 11.9531C23.9062 5.35547 18.5508 0 11.9531 0C5.35547 0 0 5.35547 0 11.9531C0 18.5508 5.35547 23.9062 11.9531 23.9062ZM11.9531 21.9141C6.44531 21.9141 1.99219 17.4609 1.99219 11.9531C1.99219 6.44531 6.44531 1.99219 11.9531 1.99219C17.4609 1.99219 21.9141 6.44531 21.9141 11.9531C21.9141 17.4609 17.4609 21.9141 11.9531 21.9141Z" fill="black" fill-opacity="0.85"/>
 </g>
</svg>
