<?xml version="1.0" encoding="UTF-8"?>
<!--Generator: Apple Native CoreSVG 360-->
<!DOCTYPE svg
PUBLIC "-//W3C//DTD SVG 1.1//EN"
       "http://www.w3.org/Graphics/SVG/1.1/DTD/svg11.dtd">
<svg version="1.1" xmlns="http://www.w3.org/2000/svg" xmlns:xlink="http://www.w3.org/1999/xlink" viewBox="0 0 43.4414 16.4883">
 <g>
  <rect height="16.4883" opacity="0" width="43.4414" x="0" y="0"/>
  <path d="M36.5625 16.3945C39.3984 16.3945 41.6133 15.1641 42.7031 13.0547C42.9141 12.6211 43.0547 12.2109 43.0547 11.8008C43.0547 11.25 42.668 10.875 42.1172 10.875C41.6836 10.875 41.4258 11.0625 41.168 11.625C40.4297 13.5 38.8242 14.543 36.5625 14.543C33.3516 14.543 31.3008 12.1055 31.3008 8.15625C31.3008 4.27734 33.3633 1.85156 36.5625 1.85156C38.6953 1.85156 40.418 3.11719 41.1328 5.02734C41.3789 5.57812 41.6953 5.80078 42.1641 5.80078C42.7148 5.80078 43.0898 5.44922 43.0898 4.88672C43.0898 4.60547 43.0312 4.28906 42.9023 3.9375C42.0234 1.48828 39.4805 0 36.5625 0C32.0625 0 29.1914 3.15234 29.1914 8.16797C29.1914 13.2422 32.0391 16.3945 36.5625 16.3945Z" fill="black" fill-opacity="0.85"/>
  <path d="M16.4414 16.125L21.832 16.125C25.3242 16.125 27.457 14.4023 27.457 11.7891C27.457 9.5625 25.8633 8.01562 23.5898 7.78125L23.5898 7.71094C25.3359 7.40625 26.625 5.88281 26.625 4.10156C26.625 1.86328 24.6797 0.28125 21.7734 0.28125L16.4414 0.28125C15.832 0.28125 15.4219 0.679688 15.4219 1.3125L15.4219 15.082C15.4219 15.7148 15.832 16.125 16.4414 16.125ZM17.5195 7.13672L17.5195 2.0625L21.2812 2.0625C23.3203 2.0625 24.5273 3 24.5273 4.39453C24.5273 6.12891 23.168 7.13672 20.8359 7.13672ZM17.5195 14.3789L17.5195 8.78906L21.2461 8.78906C23.8711 8.78906 25.3008 9.79688 25.3008 11.6602C25.3008 13.3359 23.9297 14.3789 21.4336 14.3789Z" fill="black" fill-opacity="0.85"/>
  <path d="M0.925781 16.4531C1.51172 16.4531 1.80469 16.1953 2.01562 15.5859L3.44531 11.6719L9.96094 11.6719L11.4023 15.5859C11.6133 16.1953 11.9062 16.4531 12.4805 16.4531C13.0664 16.4531 13.4531 16.0664 13.4531 15.5039C13.4531 15.3164 13.418 15.1406 13.3359 14.918L8.12109 1.07812C7.86328 0.398438 7.40625 0.0117188 6.71484 0.0117188C6.01172 0.0117188 5.55469 0.398438 5.30859 1.06641L0.117188 14.9297C0.0234375 15.1523 0 15.3281 0 15.5156C0 16.0664 0.351562 16.4531 0.925781 16.4531ZM3.98438 9.98438L6.67969 2.54297L6.72656 2.54297L9.42188 9.98438Z" fill="black" fill-opacity="0.85"/>
 </g>
</svg>
