<?xml version="1.0" encoding="UTF-8"?>
<!--Generator: Apple Native CoreSVG 360-->
<!DOCTYPE svg
PUBLIC "-//W3C//DTD SVG 1.1//EN"
       "http://www.w3.org/Graphics/SVG/1.1/DTD/svg11.dtd">
<svg version="1.1" xmlns="http://www.w3.org/2000/svg" xmlns:xlink="http://www.w3.org/1999/xlink" viewBox="0 0 25.5469 21.8086">
 <g>
  <rect height="21.8086" opacity="0" width="25.5469" x="0" y="0"/>
  <path d="M7.12388 10.1868L1.88672 13.2248L1.88672 11.6112L6.53704 8.92132C6.58098 9.41166 6.79683 9.85377 7.12388 10.1868ZM21.7357 9.36797L16.1885 12.69C16.1108 12.2035 15.8629 11.7755 15.507 11.4678L20.9592 8.20438C21.0753 8.67716 21.3553 9.08625 21.7357 9.36797ZM13.1366 11.216C12.7358 11.4357 12.4154 11.7833 12.2319 12.2043L9.99498 10.2877C10.3394 9.98465 10.5818 9.56911 10.6644 9.09945Z" fill="black" fill-opacity="0.85"/>
  <path d="M16.2188 13.0312C16.2188 14.1797 15.293 15.1172 14.1445 15.1172C12.9961 15.1172 12.0586 14.1797 12.0586 13.0312C12.0586 11.8828 12.9961 10.957 14.1445 10.957C15.293 10.957 16.2188 11.8828 16.2188 13.0312Z" fill="black" fill-opacity="0.85"/>
  <path d="M10.6992 8.73047C10.6992 9.87891 9.76172 10.8164 8.61328 10.8164C7.46484 10.8164 6.52734 9.87891 6.52734 8.73047C6.52734 7.58203 7.46484 6.65625 8.61328 6.65625C9.76172 6.65625 10.6992 7.58203 10.6992 8.73047Z" fill="black" fill-opacity="0.85"/>
  <path d="M25.0664 7.69922C25.0664 8.84766 24.1289 9.78516 22.9805 9.78516C21.832 9.78516 20.8945 8.84766 20.8945 7.69922C20.8945 6.55078 21.832 5.61328 22.9805 5.61328C24.1289 5.61328 25.0664 6.55078 25.0664 7.69922Z" fill="black" fill-opacity="0.85"/>
  <path d="M0 20.8828C0 21.4453 0.375 21.8086 0.9375 21.8086L24.2461 21.8086C24.7617 21.8086 25.1953 21.3984 25.1953 20.8711C25.1953 20.3555 24.7617 19.9336 24.2461 19.9336L2.21484 19.9336C1.96875 19.9336 1.88672 19.8516 1.88672 19.6055L1.88672 1.07812C1.88672 0.574219 1.46484 0.140625 0.949219 0.140625C0.421875 0.140625 0 0.574219 0 1.07812Z" fill="black" fill-opacity="0.85"/>
 </g>
</svg>
