<?xml version="1.0" encoding="UTF-8"?>
<!--Generator: Apple Native CoreSVG 360-->
<!DOCTYPE svg
PUBLIC "-//W3C//DTD SVG 1.1//EN"
       "http://www.w3.org/Graphics/SVG/1.1/DTD/svg11.dtd">
<svg version="1.1" xmlns="http://www.w3.org/2000/svg" xmlns:xlink="http://www.w3.org/1999/xlink" viewBox="0 0 23.8945 15.9258">
 <g>
  <rect height="15.9258" opacity="0" width="23.8945" x="0" y="0"/>
  <path d="M5.47266 15.9258C8.14453 15.9258 10.2422 14.5781 11.3789 12.3398L11.4961 12.3398C12.4922 14.5898 14.5547 15.9258 17.3086 15.9258C20.1797 15.9258 22.3711 14.6953 23.2969 12.4922C23.3906 12.2578 23.4609 12.0117 23.4609 11.8242C23.4609 11.25 23.0742 10.875 22.4883 10.875C22.1367 10.875 21.8789 11.0273 21.668 11.3438C20.6016 13.207 19.2656 14.0273 17.2266 14.0273C14.2969 14.0273 12.4219 11.8594 12.4219 8.63672L12.4219 8.48438L22.2891 8.48438C23.0742 8.48438 23.543 8.00391 23.543 7.18359C23.543 2.96484 20.9648 0.0117188 17.2031 0.0117188C14.6602 0.0117188 12.7734 1.25391 11.7773 3.33984L11.6836 3.33984C11.0859 1.25391 9.05859 0.0117188 6.39844 0.0117188C3.86719 0.0117188 1.67578 1.19531 0.867188 3C0.679688 3.35156 0.585938 3.71484 0.585938 4.01953C0.585938 4.60547 0.984375 4.99219 1.54688 4.99219C1.98047 4.99219 2.27344 4.81641 2.46094 4.42969C3.25781 2.68359 4.54688 1.93359 6.43359 1.93359C8.71875 1.93359 10.2539 3.38672 10.2539 5.48438L10.2539 6.77344L5.67188 7.01953C2.00391 7.20703 0 8.77734 0 11.3906C0 14.1328 2.14453 15.9258 5.47266 15.9258ZM5.54297 14.0508C3.52734 14.0508 2.21484 12.9258 2.21484 11.3555C2.21484 9.78516 3.51562 8.87109 5.90625 8.73047L10.2539 8.48438L10.2539 9.84375C10.2539 12.1641 8.19141 14.0508 5.54297 14.0508ZM12.4219 6.77344C12.5977 3.90234 14.4258 1.91016 17.0391 1.91016C19.6172 1.91016 21.2578 3.85547 21.3047 6.77344Z" fill="black" fill-opacity="0.85"/>
 </g>
</svg>
