<?xml version="1.0" encoding="UTF-8"?>
<!--Generator: Apple Native CoreSVG 360-->
<!DOCTYPE svg
PUBLIC "-//W3C//DTD SVG 1.1//EN"
       "http://www.w3.org/Graphics/SVG/1.1/DTD/svg11.dtd">
<svg version="1.1" xmlns="http://www.w3.org/2000/svg" xmlns:xlink="http://www.w3.org/1999/xlink" viewBox="0 0 25.5469 21.8086">
 <g>
  <rect height="21.8086" opacity="0" width="25.5469" x="0" y="0"/>
  <path d="M16.957 9.17578L16.957 11.1797L1.88672 11.1797L1.88672 9.17578Z" fill="black" fill-opacity="0.85"/>
  <path d="M18.0469 5.94141L24.1055 9.57422C24.5859 9.86719 24.6094 10.4883 24.1172 10.7812L18.0586 14.4141C17.5195 14.7305 16.957 14.5312 16.957 13.9336L16.957 6.42188C16.957 5.83594 17.5078 5.63672 18.0469 5.94141Z" fill="black" fill-opacity="0.85"/>
  <path d="M0 20.8828C0 21.4453 0.375 21.8086 0.9375 21.8086L24.2461 21.8086C24.7617 21.8086 25.1953 21.3984 25.1953 20.8711C25.1953 20.3555 24.7617 19.9336 24.2461 19.9336L2.21484 19.9336C1.96875 19.9336 1.88672 19.8516 1.88672 19.6055L1.88672 1.07812C1.88672 0.574219 1.46484 0.140625 0.949219 0.140625C0.421875 0.140625 0 0.574219 0 1.07812Z" fill="black" fill-opacity="0.85"/>
 </g>
</svg>
