<?xml version="1.0" encoding="UTF-8"?>
<!--Generator: Apple Native CoreSVG 360-->
<!DOCTYPE svg
PUBLIC "-//W3C//DTD SVG 1.1//EN"
       "http://www.w3.org/Graphics/SVG/1.1/DTD/svg11.dtd">
<svg version="1.1" xmlns="http://www.w3.org/2000/svg" xmlns:xlink="http://www.w3.org/1999/xlink" viewBox="0 0 25.5469 21.8086">
 <g>
  <rect height="21.8086" opacity="0" width="25.5469" x="0" y="0"/>
  <path d="M23.5547 4.75781C23.5547 5.75391 22.6992 6.62109 21.6914 6.62109C20.6719 6.62109 19.8164 5.75391 19.8164 4.75781C19.8164 3.77344 20.6719 2.89453 21.6914 2.89453C22.6992 2.89453 23.5547 3.77344 23.5547 4.75781Z" fill="black" fill-opacity="0.85"/>
  <path d="M19.0664 12.2344C19.0664 13.2305 18.2109 14.0977 17.2031 14.0977C16.1836 14.0977 15.3281 13.2305 15.3281 12.2344C15.3281 11.25 16.1836 10.3711 17.2031 10.3711C18.2109 10.3711 19.0664 11.25 19.0664 12.2344Z" fill="black" fill-opacity="0.85"/>
  <path d="M13.6289 6.55078C13.6289 7.54688 12.7734 8.41406 11.7656 8.41406C10.7461 8.41406 9.89062 7.54688 9.89062 6.55078C9.89062 5.56641 10.7461 4.6875 11.7656 4.6875C12.7734 4.6875 13.6289 5.56641 13.6289 6.55078Z" fill="black" fill-opacity="0.85"/>
  <path d="M9.14062 14.0391C9.14062 15.0352 8.29688 15.9023 7.27734 15.9023C6.25781 15.9023 5.40234 15.0352 5.40234 14.0391C5.40234 13.0547 6.25781 12.1758 7.27734 12.1758C8.29688 12.1758 9.14062 13.0547 9.14062 14.0391Z" fill="black" fill-opacity="0.85"/>
  <path d="M0.9375 21.8086L24.2461 21.8086C24.7617 21.8086 25.1953 21.3984 25.1953 20.8711C25.1953 20.3555 24.7617 19.9336 24.2461 19.9336L2.21484 19.9336C1.96875 19.9336 1.88672 19.8516 1.88672 19.6055L1.88672 1.07812C1.88672 0.574219 1.46484 0.140625 0.949219 0.140625C0.421875 0.140625 0 0.574219 0 1.07812L0 20.8828C0 21.4453 0.375 21.8086 0.9375 21.8086Z" fill="black" fill-opacity="0.85"/>
 </g>
</svg>
