<?xml version="1.0" encoding="UTF-8"?>
<!--Generator: Apple Native CoreSVG 360-->
<!DOCTYPE svg
PUBLIC "-//W3C//DTD SVG 1.1//EN"
       "http://www.w3.org/Graphics/SVG/1.1/DTD/svg11.dtd">
<svg version="1.1" xmlns="http://www.w3.org/2000/svg" xmlns:xlink="http://www.w3.org/1999/xlink" viewBox="0 0 26.4961 21.6445">
 <g>
  <rect height="21.6445" opacity="0" width="26.4961" x="0" y="0"/>
  <path d="M0.9375 21.6445L25.1953 21.6445C25.7109 21.6445 26.1445 21.2344 26.1445 20.707C26.1445 20.1914 25.7109 19.7695 25.1953 19.7695L0.9375 19.7695C0.433594 19.7695 0 20.1914 0 20.707C0 21.2344 0.433594 21.6445 0.9375 21.6445Z" fill="black" fill-opacity="0.85"/>
  <path d="M20.1445 16.793C20.1445 17.4492 20.5547 17.8359 21.2227 17.8359L23.9297 17.8359C24.6094 17.8359 25.0312 17.4492 25.0312 16.793L25.0312 1.04297C25.0312 0.386719 24.6094 0 23.9297 0L21.2227 0C20.5547 0 20.1445 0.386719 20.1445 1.04297Z" fill="black" fill-opacity="0.85"/>
  <path d="M13.793 16.793C13.793 17.4492 14.2148 17.8359 14.8828 17.8359L17.5898 17.8359C18.2695 17.8359 18.6914 17.4492 18.6914 16.793L18.6914 4.39453C18.6914 3.73828 18.2695 3.35156 17.5898 3.35156L14.8828 3.35156C14.2148 3.35156 13.793 3.73828 13.793 4.39453Z" fill="black" fill-opacity="0.85"/>
  <path d="M7.45312 16.793C7.45312 17.4492 7.86328 17.8359 8.53125 17.8359L11.25 17.8359C11.918 17.8359 12.3398 17.4492 12.3398 16.793L12.3398 7.74609C12.3398 7.11328 11.918 6.71484 11.25 6.71484L8.53125 6.71484C7.86328 6.71484 7.45312 7.11328 7.45312 7.74609Z" fill="black" fill-opacity="0.85"/>
  <path d="M1.10156 16.793C1.10156 17.4492 1.52344 17.8359 2.20312 17.8359L4.91016 17.8359C5.57812 17.8359 6 17.4492 6 16.793L6 11.1094C6 10.4531 5.57812 10.0547 4.91016 10.0547L2.20312 10.0547C1.52344 10.0547 1.10156 10.4531 1.10156 11.1094Z" fill="black" fill-opacity="0.85"/>
 </g>
</svg>
