<?xml version="1.0" encoding="UTF-8"?>
<!--Generator: Apple Native CoreSVG 360-->
<!DOCTYPE svg
PUBLIC "-//W3C//DTD SVG 1.1//EN"
       "http://www.w3.org/Graphics/SVG/1.1/DTD/svg11.dtd">
<svg version="1.1" xmlns="http://www.w3.org/2000/svg" xmlns:xlink="http://www.w3.org/1999/xlink" viewBox="0 0 26.4961 21.6445">
 <g>
  <rect height="21.6445" opacity="0" width="26.4961" x="0" y="0"/>
  <path d="M25.1953 21.6445C25.7109 21.6445 26.1445 21.2344 26.1445 20.707C26.1445 20.1914 25.7109 19.7695 25.1953 19.7695L0.9375 19.7695C0.433594 19.7695 0 20.1914 0 20.707C0 21.2344 0.433594 21.6445 0.9375 21.6445Z" fill="black" fill-opacity="0.85"/>
  <path d="M25.0312 16.793L25.0312 11.1094C25.0312 10.4531 24.6211 10.0547 23.9297 10.0547L21.2227 10.0547C20.5664 10.0547 20.1445 10.4531 20.1445 11.1094L20.1445 16.793C20.1445 17.4492 20.5664 17.8359 21.2227 17.8359L23.9297 17.8359C24.6211 17.8359 25.0312 17.4492 25.0312 16.793Z" fill="black" fill-opacity="0.85"/>
  <path d="M18.6914 16.793L18.6914 7.74609C18.6914 7.11328 18.2695 6.71484 17.6016 6.71484L14.8945 6.71484C14.2148 6.71484 13.793 7.11328 13.793 7.74609L13.793 16.793C13.793 17.4492 14.2148 17.8359 14.8945 17.8359L17.6016 17.8359C18.2695 17.8359 18.6914 17.4492 18.6914 16.793Z" fill="black" fill-opacity="0.85"/>
  <path d="M12.3398 16.793L12.3398 4.39453C12.3398 3.73828 11.9297 3.35156 11.25 3.35156L8.55469 3.35156C7.875 3.35156 7.45312 3.73828 7.45312 4.39453L7.45312 16.793C7.45312 17.4492 7.875 17.8359 8.55469 17.8359L11.25 17.8359C11.9297 17.8359 12.3398 17.4492 12.3398 16.793Z" fill="black" fill-opacity="0.85"/>
  <path d="M6 16.793L6 1.04297C6 0.386719 5.57812 0 4.91016 0L2.20312 0C1.52344 0 1.10156 0.386719 1.10156 1.04297L1.10156 16.793C1.10156 17.4492 1.52344 17.8359 2.20312 17.8359L4.91016 17.8359C5.57812 17.8359 6 17.4492 6 16.793Z" fill="black" fill-opacity="0.85"/>
 </g>
</svg>
