<?xml version="1.0" encoding="UTF-8"?>
<!--Generator: Apple Native CoreSVG 360-->
<!DOCTYPE svg
PUBLIC "-//W3C//DTD SVG 1.1//EN"
       "http://www.w3.org/Graphics/SVG/1.1/DTD/svg11.dtd">
<svg version="1.1" xmlns="http://www.w3.org/2000/svg" xmlns:xlink="http://www.w3.org/1999/xlink" viewBox="0 0 36.9609 17.6133">
 <g>
  <rect height="17.6133" opacity="0" width="36.9609" x="0" y="0"/>
  <path d="M31.5117 17.4609C33.832 17.4609 35.8242 16.1836 36.5039 14.3789C36.5742 14.1797 36.6094 13.9805 36.6094 13.8164C36.6094 13.3125 36.2461 12.9609 35.7539 12.9609C35.3086 12.9609 35.0859 13.1367 34.8164 13.6523C34.1953 15 33.1289 15.7383 31.5234 15.7383C29.2031 15.7383 27.6914 13.9102 27.6914 10.9453C27.6914 8.00391 29.2148 6.12891 31.5234 6.12891C33.0469 6.12891 34.1602 6.84375 34.793 8.23828C35.0508 8.73047 35.2852 8.90625 35.7188 8.90625C36.2227 8.90625 36.5742 8.57812 36.5742 8.0625C36.5742 7.92188 36.5391 7.74609 36.4922 7.59375C35.8945 5.77734 33.8789 4.40625 31.4766 4.40625C27.9609 4.40625 25.6641 6.99609 25.6641 10.957C25.6641 14.9414 27.9727 17.4609 31.5117 17.4609Z" fill="black" fill-opacity="0.85"/>
  <path d="M13.6758 17.4492C14.2383 17.4492 14.6484 17.0625 14.6484 16.4531L14.6484 14.7422L14.6953 14.7422C15.457 16.418 17.0156 17.4609 18.9727 17.4609C22.1953 17.4609 24.3164 14.8828 24.3164 10.9336C24.3164 6.98438 22.1836 4.40625 18.9961 4.40625C17.0625 4.40625 15.4922 5.46094 14.7656 7.11328L14.707 7.11328L14.707 1.05469C14.707 0.421875 14.3086 0 13.7227 0C13.125 0 12.7266 0.421875 12.7266 1.05469L12.7266 16.4531C12.7266 17.0742 13.1133 17.4492 13.6758 17.4492ZM18.5273 15.7383C16.2891 15.7383 14.7188 13.8398 14.7188 10.9453C14.7188 8.05078 16.3008 6.14062 18.5273 6.14062C20.8242 6.14062 22.2656 7.99219 22.2656 10.9336C22.2656 13.8867 20.8242 15.7383 18.5273 15.7383Z" fill="black" fill-opacity="0.85"/>
  <path d="M4.20703 17.4492C6.01172 17.4492 7.71094 16.4648 8.4375 14.9414L8.47266 14.9414L8.47266 16.4883C8.47266 17.0742 8.87109 17.4609 9.42188 17.4609C9.99609 17.4609 10.3828 17.0742 10.3828 16.4414L10.3828 8.61328C10.3828 6.05859 8.50781 4.40625 5.53125 4.40625C3.31641 4.40625 1.5 5.37891 0.820312 6.89062C0.679688 7.17188 0.597656 7.46484 0.597656 7.71094C0.597656 8.22656 0.984375 8.56641 1.48828 8.56641C1.85156 8.56641 2.13281 8.42578 2.30859 8.09766C2.95312 6.73828 3.96094 6.10547 5.48438 6.10547C7.3125 6.10547 8.40234 7.125 8.40234 8.76562L8.40234 9.78516L4.61719 9.99609C1.65234 10.1602 0 11.5312 0 13.7109C0 15.9492 1.72266 17.4492 4.20703 17.4492ZM4.6875 15.8203C3.10547 15.8203 2.02734 14.9531 2.02734 13.6641C2.02734 12.4219 3.02344 11.5898 4.86328 11.4727L8.40234 11.25L8.40234 12.4922C8.40234 14.3555 6.75 15.8203 4.6875 15.8203Z" fill="black" fill-opacity="0.85"/>
 </g>
</svg>
