<?xml version="1.0" encoding="UTF-8"?>
<!--Generator: Apple Native CoreSVG 360-->
<!DOCTYPE svg
PUBLIC "-//W3C//DTD SVG 1.1//EN"
       "http://www.w3.org/Graphics/SVG/1.1/DTD/svg11.dtd">
<svg version="1.1" xmlns="http://www.w3.org/2000/svg" xmlns:xlink="http://www.w3.org/1999/xlink" viewBox="0 0 17.1562 24.1523">
 <g>
  <rect height="24.1523" opacity="0" width="17.1562" x="0" y="0"/>
  <path d="M7.76953 24.1172C12.1172 24.1172 15.5508 20.6836 15.5508 16.3359C15.5508 11.9766 12.1172 8.55469 7.75781 8.55469C3.41016 8.55469 0 11.9766 0 16.3359C0 20.6836 3.42188 24.1172 7.76953 24.1172ZM7.76953 22.1367C4.51172 22.1367 1.98047 19.6055 1.98047 16.3359C1.98047 13.0781 4.51172 10.5352 7.75781 10.5352C11.0273 10.5352 13.5703 13.0781 13.5703 16.3359C13.5703 19.6055 11.0391 22.1367 7.76953 22.1367ZM13.5703 16.3359L15.5508 16.3359L15.5508 3.21094L13.5703 3.21094ZM14.5547 4.5C15.8086 4.5 16.8047 3.49219 16.8047 2.25C16.8047 1.00781 15.8086 0 14.5547 0C13.3125 0 12.3047 1.00781 12.3047 2.25C12.3047 3.49219 13.3125 4.5 14.5547 4.5Z" fill="black" fill-opacity="0.85"/>
 </g>
</svg>
