<?xml version="1.0" encoding="UTF-8"?>
<!--Generator: Apple Native CoreSVG 360-->
<!DOCTYPE svg
PUBLIC "-//W3C//DTD SVG 1.1//EN"
       "http://www.w3.org/Graphics/SVG/1.1/DTD/svg11.dtd">
<svg version="1.1" xmlns="http://www.w3.org/2000/svg" xmlns:xlink="http://www.w3.org/1999/xlink" viewBox="0 0 26.4961 21.6445">
 <g>
  <rect height="21.6445" opacity="0" width="26.4961" x="0" y="0"/>
  <path d="M0 20.707C0 21.2344 0.433594 21.6445 0.9375 21.6445L25.1953 21.6445C25.7109 21.6445 26.1445 21.2344 26.1445 20.707C26.1445 20.1914 25.7109 19.7695 25.1953 19.7695L0.9375 19.7695C0.433594 19.7695 0 20.1914 0 20.707Z" fill="black" fill-opacity="0.85"/>
  <path d="M20.1445 16.793C20.1445 17.4492 20.5547 17.8359 21.2344 17.8359L23.9414 17.8359C24.6094 17.8359 25.0312 17.4492 25.0312 16.793L25.0312 9.04688C25.0312 8.39062 24.6094 7.99219 23.9414 7.99219L21.2344 7.99219C20.5547 7.99219 20.1445 8.39062 20.1445 9.04688Z" fill="black" fill-opacity="0.85"/>
  <path d="M13.793 16.793C13.793 17.4492 14.2148 17.8359 14.8828 17.8359L17.5898 17.8359C18.2695 17.8359 18.6914 17.4492 18.6914 16.793L18.6914 3.71484C18.6914 3.05859 18.2695 2.67188 17.5898 2.67188L14.8828 2.67188C14.2148 2.67188 13.793 3.05859 13.793 3.71484Z" fill="black" fill-opacity="0.85"/>
  <path d="M7.45312 16.793C7.45312 17.4492 7.86328 17.8359 8.53125 17.8359L11.25 17.8359C11.918 17.8359 12.3398 17.4492 12.3398 16.793L12.3398 1.04297C12.3398 0.386719 11.918 0 11.25 0L8.53125 0C7.86328 0 7.45312 0.386719 7.45312 1.04297Z" fill="black" fill-opacity="0.85"/>
  <path d="M1.10156 16.793C1.10156 17.4492 1.52344 17.8359 2.19141 17.8359L4.89844 17.8359C5.57812 17.8359 6 17.4492 6 16.793L6 6.42188C6 5.77734 5.57812 5.37891 4.89844 5.37891L2.19141 5.37891C1.52344 5.37891 1.10156 5.77734 1.10156 6.42188Z" fill="black" fill-opacity="0.85"/>
 </g>
</svg>
