<?xml version="1.0" encoding="UTF-8"?>
<!--Generator: Apple Native CoreSVG 360-->
<!DOCTYPE svg
PUBLIC "-//W3C//DTD SVG 1.1//EN"
       "http://www.w3.org/Graphics/SVG/1.1/DTD/svg11.dtd">
<svg version="1.1" xmlns="http://www.w3.org/2000/svg" xmlns:xlink="http://www.w3.org/1999/xlink" viewBox="0 0 23.9648 25.7695">
 <g>
  <rect height="25.7695" opacity="0" width="23.9648" x="0" y="0"/>
  <path d="M0.9375 23.0156L22.6523 23.0156C23.1797 23.0156 23.6133 22.6055 23.6133 22.0781C23.6133 21.5508 23.1797 21.1289 22.6523 21.1289L0.9375 21.1289C0.410156 21.1289 0 21.5508 0 22.0781C0 22.6055 0.410156 23.0156 0.9375 23.0156Z" fill="black" fill-opacity="0.85"/>
  <path d="M0.9375 16.8867L22.6523 16.8867C23.1797 16.8867 23.6133 16.4766 23.6133 15.9492C23.6133 15.4102 23.1797 15 22.6523 15L0.9375 15C0.410156 15 0 15.4102 0 15.9492C0 16.4766 0.410156 16.8867 0.9375 16.8867Z" fill="black" fill-opacity="0.85"/>
  <path d="M14.7539 10.7578L22.6523 10.7578C23.1797 10.7578 23.6133 10.3359 23.6133 9.80859C23.6133 9.28125 23.1797 8.87109 22.6523 8.87109L14.7539 8.87109C14.2266 8.87109 13.8164 9.28125 13.8164 9.80859C13.8164 10.3359 14.2266 10.7578 14.7539 10.7578Z" fill="black" fill-opacity="0.85"/>
  <path d="M14.7539 4.61719L22.6523 4.61719C23.1797 4.61719 23.6133 4.20703 23.6133 3.67969C23.6133 3.15234 23.1797 2.73047 22.6523 2.73047L14.7539 2.73047C14.2266 2.73047 13.8164 3.15234 13.8164 3.67969C13.8164 4.20703 14.2266 4.61719 14.7539 4.61719Z" fill="black" fill-opacity="0.85"/>
  <path d="M2.10938 11.1797C2.53125 11.1797 2.82422 10.9805 3.01172 10.4297L3.86719 7.94531L8.05078 7.94531L8.90625 10.4297C9.09375 10.9805 9.38672 11.1797 9.82031 11.1797C10.3359 11.1797 10.6758 10.8516 10.6758 10.3711C10.6758 10.1953 10.6406 10.0312 10.5469 9.77344L7.26562 0.914062C7.04297 0.316406 6.58594 0 5.95312 0C5.32031 0 4.875 0.316406 4.65234 0.914062L1.37109 9.77344C1.27734 10.0312 1.24219 10.1953 1.24219 10.3711C1.24219 10.8516 1.58203 11.1797 2.10938 11.1797ZM4.33594 6.53906L5.89453 2.00391L6.02344 2.00391L7.58203 6.53906Z" fill="black" fill-opacity="0.85"/>
 </g>
</svg>
