<?xml version="1.0" encoding="UTF-8"?>
<!--Generator: Apple Native CoreSVG 360-->
<!DOCTYPE svg
PUBLIC "-//W3C//DTD SVG 1.1//EN"
       "http://www.w3.org/Graphics/SVG/1.1/DTD/svg11.dtd">
<svg version="1.1" xmlns="http://www.w3.org/2000/svg" xmlns:xlink="http://www.w3.org/1999/xlink" viewBox="0 0 23.4023 22.793">
 <g>
  <rect height="22.793" opacity="0" width="23.4023" x="0" y="0"/>
  <path d="M0.9375 22.7812C1.46484 22.7812 1.875 22.3477 1.875 21.832L1.875 0.9375C1.875 0.433594 1.46484 0 0.9375 0C0.421875 0 0 0.433594 0 0.9375L0 21.832C0 22.3477 0.421875 22.7812 0.9375 22.7812Z" fill="black" fill-opacity="0.85"/>
  <path d="M4.86328 22.5586L14.0156 22.5586C14.6602 22.5586 15.0586 22.1367 15.0586 21.4688L15.0586 19.1602C15.0586 18.4805 14.6602 18.0586 14.0156 18.0586L4.86328 18.0586C4.19531 18.0586 3.80859 18.4805 3.80859 19.1602L3.80859 21.4688C3.80859 22.1367 4.19531 22.5586 4.86328 22.5586Z" fill="black" fill-opacity="0.85"/>
  <path d="M4.86328 16.6055L19.3359 16.6055C19.9922 16.6055 20.3789 16.1953 20.3789 15.5156L20.3789 13.207C20.3789 12.5273 19.9922 12.1172 19.3359 12.1172L4.86328 12.1172C4.19531 12.1172 3.80859 12.5273 3.80859 13.207L3.80859 15.5156C3.80859 16.1953 4.19531 16.6055 4.86328 16.6055Z" fill="black" fill-opacity="0.85"/>
  <path d="M4.86328 10.6641L22.0195 10.6641C22.6641 10.6641 23.0508 10.2422 23.0508 9.5625L23.0508 7.25391C23.0508 6.58594 22.6641 6.16406 22.0195 6.16406L4.86328 6.16406C4.19531 6.16406 3.80859 6.58594 3.80859 7.25391L3.80859 9.5625C3.80859 10.2422 4.19531 10.6641 4.86328 10.6641Z" fill="black" fill-opacity="0.85"/>
  <path d="M4.86328 4.71094L16.6406 4.71094C17.2734 4.71094 17.6719 4.28906 17.6719 3.62109L17.6719 1.30078C17.6719 0.632812 17.2734 0.222656 16.6406 0.222656L4.86328 0.222656C4.19531 0.222656 3.80859 0.632812 3.80859 1.30078L3.80859 3.62109C3.80859 4.28906 4.19531 4.71094 4.86328 4.71094Z" fill="black" fill-opacity="0.85"/>
 </g>
</svg>
