<?xml version="1.0" encoding="UTF-8"?>
<!--Generator: Apple Native CoreSVG 360-->
<!DOCTYPE svg
PUBLIC "-//W3C//DTD SVG 1.1//EN"
       "http://www.w3.org/Graphics/SVG/1.1/DTD/svg11.dtd">
<svg version="1.1" xmlns="http://www.w3.org/2000/svg" xmlns:xlink="http://www.w3.org/1999/xlink" viewBox="0 0 28.7695 22.7227">
 <g>
  <rect height="22.7227" opacity="0" width="28.7695" x="0" y="0"/>
  <path d="M6.05859 11.3555C6.05859 11.83 6.0888 12.2983 6.15716 12.7559C3.96165 12.9574 2.73047 13.9534 2.73047 15.5039C2.73047 17.1445 4.11328 18.2227 6.11719 18.2227C6.84142 18.2227 7.52297 18.0801 8.12665 17.8187C8.41338 18.239 8.73282 18.6351 9.08586 19C8.11391 19.6783 6.90545 20.0742 5.64844 20.0742C2.60156 20.0742 0.539062 18.2461 0.539062 15.5273C0.539062 12.9043 2.51658 11.2759 6.07428 11.0515ZM8.58033 4.28216C8.12485 4.83822 7.72554 5.44061 7.38965 6.08038C7.297 6.07262 7.20015 6.07031 7.10156 6.07031C5.21484 6.07031 3.91406 6.82031 3.11719 8.57812C2.92969 8.96484 2.63672 9.14062 2.21484 9.14062C1.65234 9.14062 1.25391 8.75391 1.25391 8.16797C1.25391 7.86328 1.35938 7.5 1.53516 7.14844C2.36719 5.36719 4.54688 4.16016 7.14844 4.16016C7.65468 4.16016 8.134 4.20017 8.58033 4.28216Z" fill="black" fill-opacity="0.85"/>
  <path d="M17.4141 22.7109C23.6133 22.7109 28.7695 17.5547 28.7695 11.3555C28.7695 5.15625 23.6016 0 17.4023 0C11.2031 0 6.05859 5.15625 6.05859 11.3555C6.05859 17.5547 11.2148 22.7109 17.4141 22.7109ZM17.4141 20.8008C12.1523 20.8008 7.98047 16.6172 7.98047 11.3555C7.98047 6.09375 12.1406 1.89844 17.4023 1.89844C22.6641 1.89844 26.8477 6.09375 26.8711 11.3555C26.8828 16.6172 22.6758 20.8008 17.4141 20.8008ZM18.0938 21.6562L20.6016 21.6328L20.6016 8.17969C20.6016 4.74609 18.457 2.41406 14.8359 1.91016C14.3789 1.85156 13.8984 1.81641 13.418 1.80469L10.8867 4.38281C11.5781 4.18359 12.3281 4.07812 13.2305 4.07812C16.1953 4.07812 17.9531 5.70703 17.9531 8.44922L17.9531 10.1719L11.9297 10.5352C10.1836 10.6523 8.73047 11.0391 7.62891 11.6836L8.10938 14.4258C8.82422 13.3594 10.2656 12.7266 12.2578 12.5859L17.9531 12.2109L17.9531 14.2734C17.9531 17.1211 15.6562 19.3828 12.6094 19.6641L14.543 21.3164C16.0781 20.7188 17.3086 19.7109 17.9414 18.457L18.0938 18.457Z" fill="black" fill-opacity="0.85"/>
 </g>
</svg>
