<?xml version="1.0" encoding="UTF-8"?>
<!--Generator: Apple Native CoreSVG 360-->
<!DOCTYPE svg
PUBLIC "-//W3C//DTD SVG 1.1//EN"
       "http://www.w3.org/Graphics/SVG/1.1/DTD/svg11.dtd">
<svg version="1.1" xmlns="http://www.w3.org/2000/svg" xmlns:xlink="http://www.w3.org/1999/xlink" viewBox="0 0 20.0625 29.7539">
 <g>
  <rect height="29.7539" opacity="0" width="20.0625" x="0" y="0"/>
  <path d="M3.63281 28.3945L16.0781 28.3945C18.5039 28.3945 19.7109 27.1758 19.7109 24.7148L19.7109 6.94922C19.7109 4.54688 18.5508 3.26953 16.207 3.26953L15.9258 3.26953C15.9375 3.36328 15.9375 3.46875 15.9375 3.5625L15.9375 4.61719C15.9375 4.80469 15.9258 4.99219 15.8906 5.15625L16.1719 5.15625C17.2734 5.15625 17.8242 5.87109 17.8242 6.97266L17.8242 24.6914C17.8242 25.8633 17.2031 26.5078 15.9844 26.5078L3.72656 26.5078C2.50781 26.5078 1.88672 25.8633 1.88672 24.6914L1.88672 6.97266C1.88672 5.87109 2.4375 5.15625 3.53906 5.15625L3.82031 5.15625C3.78516 4.99219 3.77344 4.80469 3.77344 4.61719L3.77344 3.5625C3.77344 3.46875 3.77344 3.36328 3.78516 3.26953L3.50391 3.26953C1.16016 3.26953 0 4.54688 0 6.94922L0 24.7148C0 27.1758 1.20703 28.3945 3.63281 28.3945ZM6.23438 5.95312L13.4766 5.95312C14.1562 5.95312 14.5664 5.51953 14.5664 4.79297L14.5664 3.5625C14.5664 2.83594 14.1562 2.40234 13.4766 2.40234L12.3984 2.40234C12.3164 1.07812 11.2148 0 9.85547 0C8.49609 0 7.39453 1.07812 7.3125 2.40234L6.23438 2.40234C5.55469 2.40234 5.14453 2.83594 5.14453 3.5625L5.14453 4.79297C5.14453 5.51953 5.55469 5.95312 6.23438 5.95312ZM9.85547 3.51562C9.29297 3.51562 8.83594 3.04688 8.83594 2.49609C8.83594 1.92188 9.29297 1.46484 9.85547 1.46484C10.418 1.46484 10.875 1.92188 10.875 2.49609C10.875 3.04688 10.418 3.51562 9.85547 3.51562Z" fill="black" fill-opacity="0.85"/>
  <path d="M4.6875 18.457L15.0234 18.457C15.4336 18.457 15.7617 18.1289 15.7617 17.7188C15.7617 17.3203 15.4336 17.0039 15.0234 17.0039L4.6875 17.0039C4.27734 17.0039 3.94922 17.3203 3.94922 17.7188C3.94922 18.1289 4.27734 18.457 4.6875 18.457ZM4.6875 22.8398L10.5938 22.8398C10.9922 22.8398 11.3203 22.5117 11.3203 22.1133C11.3203 21.7148 11.0039 21.3867 10.5938 21.3867L4.6875 21.3867C4.27734 21.3867 3.94922 21.7148 3.94922 22.1133C3.94922 22.5117 4.28906 22.8398 4.6875 22.8398ZM4.96875 12.2812C5.60156 12.2812 6.10547 11.7773 6.10547 11.1445C6.10547 10.5117 5.60156 10.0078 4.96875 10.0078C4.33594 10.0078 3.83203 10.5117 3.83203 11.1445C3.83203 11.7773 4.33594 12.2812 4.96875 12.2812ZM4.45312 11.4844L9.60938 14.0977L10.1719 13.1367L5.00391 10.5352ZM9.78516 14.6133C10.4297 14.6133 10.9336 14.1094 10.9336 13.4766C10.9336 12.8438 10.4297 12.3398 9.78516 12.3398C9.16406 12.3398 8.66016 12.8438 8.66016 13.4766C8.66016 14.1094 9.16406 14.6133 9.78516 14.6133ZM9.55078 13.0664L10.1836 13.957L15.1172 10.3125L14.4727 9.42188ZM14.7305 11.1094C15.375 11.1094 15.8789 10.6055 15.8789 9.97266C15.8789 9.33984 15.375 8.83594 14.7305 8.83594C14.1094 8.83594 13.6055 9.33984 13.6055 9.97266C13.6055 10.6055 14.1094 11.1094 14.7305 11.1094Z" fill="black" fill-opacity="0.85"/>
 </g>
</svg>
