<?xml version="1.0" encoding="UTF-8"?>
<!--Generator: Apple Native CoreSVG 360-->
<!DOCTYPE svg
PUBLIC "-//W3C//DTD SVG 1.1//EN"
       "http://www.w3.org/Graphics/SVG/1.1/DTD/svg11.dtd">
<svg version="1.1" xmlns="http://www.w3.org/2000/svg" xmlns:xlink="http://www.w3.org/1999/xlink" viewBox="0 0 20.0625 25.1367">
 <g>
  <rect height="25.1367" opacity="0" width="20.0625" x="0" y="0"/>
  <path d="M0 21.457C0 23.9062 1.20703 25.125 3.63281 25.125L16.0781 25.125C18.5039 25.125 19.7109 23.9062 19.7109 21.457L19.7109 3.67969C19.7109 1.24219 18.5039 0 16.0781 0L3.63281 0C1.20703 0 0 1.24219 0 3.67969ZM1.88672 21.4219L1.88672 3.71484C1.88672 2.54297 2.50781 1.88672 3.72656 1.88672L15.9844 1.88672C17.2031 1.88672 17.8242 2.54297 17.8242 3.71484L17.8242 21.4219C17.8242 22.5938 17.2031 23.2383 15.9844 23.2383L3.72656 23.2383C2.50781 23.2383 1.88672 22.5938 1.88672 21.4219Z" fill="black" fill-opacity="0.85"/>
  <path d="M4.32422 17.6836C3.84375 17.6836 3.5625 17.9883 3.5625 18.4805L3.5625 20.4375C3.5625 20.9297 3.84375 21.2344 4.32422 21.2344L9.62109 21.2344C10.0781 21.2344 10.3711 20.9297 10.3711 20.4375L10.3711 18.4805C10.3711 17.9883 10.0781 17.6836 9.62109 17.6836Z" fill="black" fill-opacity="0.85"/>
  <path d="M4.32422 13.0898C3.84375 13.0898 3.5625 13.3828 3.5625 13.8633L3.5625 15.8438C3.5625 16.3359 3.84375 16.6289 4.32422 16.6289L13.4766 16.6289C13.9453 16.6289 14.2266 16.3359 14.2266 15.8438L14.2266 13.8633C14.2266 13.3828 13.9453 13.0898 13.4766 13.0898Z" fill="black" fill-opacity="0.85"/>
  <path d="M4.32422 8.48438C3.84375 8.48438 3.5625 8.78906 3.5625 9.26953L3.5625 11.2383C3.5625 11.7188 3.84375 12.0234 4.32422 12.0234L15.4102 12.0234C15.8789 12.0234 16.1602 11.7188 16.1602 11.2266L16.1602 9.26953C16.1602 8.78906 15.8789 8.48438 15.4102 8.48438Z" fill="black" fill-opacity="0.85"/>
  <path d="M4.32422 3.87891C3.84375 3.87891 3.5625 4.18359 3.5625 4.67578L3.5625 6.63281C3.5625 7.125 3.84375 7.42969 4.32422 7.42969L11.5078 7.42969C11.9766 7.42969 12.2578 7.125 12.2578 6.63281L12.2578 4.67578C12.2578 4.18359 11.9766 3.87891 11.5078 3.87891Z" fill="black" fill-opacity="0.85"/>
 </g>
</svg>
