<?xml version="1.0" encoding="UTF-8"?>
<!--Generator: Apple Native CoreSVG 360-->
<!DOCTYPE svg
PUBLIC "-//W3C//DTD SVG 1.1//EN"
       "http://www.w3.org/Graphics/SVG/1.1/DTD/svg11.dtd">
<svg version="1.1" xmlns="http://www.w3.org/2000/svg" xmlns:xlink="http://www.w3.org/1999/xlink" viewBox="0 0 25.5469 21.8086">
 <g>
  <rect height="21.8086" opacity="0" width="25.5469" x="0" y="0"/>
  <path d="M8.70703 7.83984L13.0195 12.2578C13.125 12.3633 13.2422 12.4219 13.3359 12.4219C13.4414 12.4219 13.5586 12.3516 13.6641 12.2578L18.2902 7.59527L19.7052 9.01344L14.9297 13.8164C14.4023 14.332 13.8984 14.5898 13.3359 14.5898C12.7852 14.5898 12.2578 14.3438 11.7539 13.8164L7.44141 9.39844C7.33594 9.29297 7.23047 9.23438 7.125 9.23438C7.01953 9.23438 6.91406 9.29297 6.80859 9.39844L1.88672 14.4138L1.88672 11.5549L5.54297 7.83984C6.07031 7.28906 6.57422 7.06641 7.125 7.06641C7.67578 7.06641 8.19141 7.3125 8.70703 7.83984Z" fill="black" fill-opacity="0.85"/>
  <path d="M24.4922 3.64453L22.7578 10.5117C22.6055 11.1094 22.0547 11.3672 21.6328 10.9453L16.3477 5.64844C15.9258 5.22656 16.1836 4.6875 16.7812 4.52344L23.6367 2.80078C24.1641 2.66016 24.6328 3.10547 24.4922 3.64453Z" fill="black" fill-opacity="0.85"/>
  <path d="M0 20.8828C0 21.4453 0.375 21.8086 0.9375 21.8086L24.2461 21.8086C24.7617 21.8086 25.1953 21.3984 25.1953 20.8711C25.1953 20.3555 24.7617 19.9336 24.2461 19.9336L2.21484 19.9336C1.96875 19.9336 1.88672 19.8516 1.88672 19.6055L1.88672 1.07812C1.88672 0.574219 1.46484 0.140625 0.949219 0.140625C0.421875 0.140625 0 0.574219 0 1.07812Z" fill="black" fill-opacity="0.85"/>
 </g>
</svg>
