<?xml version="1.0" encoding="UTF-8"?>
<!--Generator: Apple Native CoreSVG 360-->
<!DOCTYPE svg
PUBLIC "-//W3C//DTD SVG 1.1//EN"
       "http://www.w3.org/Graphics/SVG/1.1/DTD/svg11.dtd">
<svg version="1.1" xmlns="http://www.w3.org/2000/svg" xmlns:xlink="http://www.w3.org/1999/xlink" viewBox="0 0 27.6094 24.5508">
 <g>
  <rect height="24.5508" opacity="0" width="27.6094" x="0" y="0"/>
  <path d="M13.6289 22.8164C21.5039 22.8164 27.2578 18.0117 27.2578 11.4023C27.2578 4.76953 21.4922 0 13.6289 0C5.75391 0 0 4.76953 0 11.4023C0 13.5938 0.644531 15.6328 1.76953 17.2852C2.32031 18.1055 2.51953 18.6797 2.51953 19.1602C2.51953 19.7812 2.33203 20.2852 1.79297 20.7539C0.867188 21.5391 1.34766 22.8164 2.56641 22.8164C4.03125 22.8164 5.66016 22.3125 6.86719 21.4805C8.84766 22.3477 11.1562 22.8164 13.6289 22.8164ZM13.6289 20.9297C11.3906 20.9297 9.38672 20.5078 7.6875 19.7461C6.9375 19.418 6.39844 19.5117 5.68359 19.9336C5.17969 20.25 4.59375 20.5195 3.99609 20.6484C4.24219 20.2383 4.40625 19.7695 4.40625 19.1602C4.40625 18.293 4.08984 17.3438 3.33984 16.2188C2.40234 14.8594 1.88672 13.207 1.88672 11.4023C1.88672 5.90625 6.73828 1.88672 13.6289 1.88672C20.5195 1.88672 25.3711 5.90625 25.3711 11.4023C25.3711 16.8984 20.5195 20.9297 13.6289 20.9297Z" fill="black" fill-opacity="0.85"/>
  <path d="M12.3516 16.9688C12.7383 16.9688 13.0664 16.7695 13.2891 16.418L18.6445 7.98047C18.7852 7.75781 18.9375 7.5 18.9375 7.24219C18.9375 6.71484 18.4688 6.375 17.9766 6.375C17.6719 6.375 17.3789 6.55078 17.168 6.90234L12.293 14.707L9.98438 11.7188C9.71484 11.3438 9.44531 11.2383 9.12891 11.2383C8.61328 11.2383 8.21484 11.6602 8.21484 12.1758C8.21484 12.4336 8.32031 12.6797 8.48438 12.9023L11.3438 16.418C11.6484 16.8047 11.9531 16.9688 12.3516 16.9688Z" fill="black" fill-opacity="0.85"/>
 </g>
</svg>
