<?xml version="1.0" encoding="UTF-8"?>
<!--Generator: Apple Native CoreSVG 360-->
<!DOCTYPE svg
PUBLIC "-//W3C//DTD SVG 1.1//EN"
       "http://www.w3.org/Graphics/SVG/1.1/DTD/svg11.dtd">
<svg version="1.1" xmlns="http://www.w3.org/2000/svg" xmlns:xlink="http://www.w3.org/1999/xlink" viewBox="0 0 26.625 23.707">
 <g>
  <rect height="23.707" opacity="0" width="26.625" x="0" y="0"/>
  <path d="M13.6641 19.5938L25.3125 19.5938C25.8398 19.5938 26.2734 19.1836 26.2734 18.6562C26.2734 18.1172 25.8398 17.707 25.3125 17.707L13.6641 17.707C13.125 17.707 12.7148 18.1172 12.7148 18.6562C12.7148 19.1836 13.125 19.5938 13.6641 19.5938Z" fill="black" fill-opacity="0.85"/>
  <path d="M5.05078 23.707C7.80469 23.707 10.1016 21.4102 10.1016 18.6562C10.1016 15.8789 7.80469 13.5938 5.05078 13.5938C2.28516 13.5938 0 15.8906 0 18.6562C0 21.4102 2.29688 23.707 5.05078 23.707ZM5.05078 21.9961C3.23438 21.9961 1.71094 20.4609 1.71094 18.6562C1.71094 16.8398 3.24609 15.3047 5.05078 15.3047C6.85547 15.3047 8.39062 16.8398 8.39062 18.6562C8.39062 20.4609 6.85547 21.9961 5.05078 21.9961Z" fill="black" fill-opacity="0.85"/>
  <path d="M13.6641 6.04688L25.3125 6.04688C25.8398 6.04688 26.2734 5.625 26.2734 5.09766C26.2734 4.57031 25.8398 4.16016 25.3125 4.16016L13.6641 4.16016C13.125 4.16016 12.7148 4.57031 12.7148 5.09766C12.7148 5.625 13.125 6.04688 13.6641 6.04688Z" fill="black" fill-opacity="0.85"/>
  <path d="M5.05078 10.1484C7.80469 10.1484 10.1016 7.83984 10.1016 5.08594C10.1016 2.32031 7.80469 0.0351562 5.05078 0.0351562C2.28516 0.0351562 0 2.32031 0 5.08594C0 7.83984 2.29688 10.1484 5.05078 10.1484ZM5.05078 8.4375C3.23438 8.4375 1.71094 6.90234 1.71094 5.08594C1.71094 3.26953 3.24609 1.73438 5.05078 1.73438C6.85547 1.73438 8.39062 3.28125 8.39062 5.08594C8.39062 6.90234 6.85547 8.4375 5.05078 8.4375Z" fill="black" fill-opacity="0.85"/>
 </g>
</svg>
