<?xml version="1.0" encoding="UTF-8"?>
<!--Generator: Apple Native CoreSVG 360-->
<!DOCTYPE svg
PUBLIC "-//W3C//DTD SVG 1.1//EN"
       "http://www.w3.org/Graphics/SVG/1.1/DTD/svg11.dtd">
<svg version="1.1" xmlns="http://www.w3.org/2000/svg" xmlns:xlink="http://www.w3.org/1999/xlink" viewBox="0 0 26.625 23.707">
 <g>
  <rect height="23.707" opacity="0" width="26.625" x="0" y="0"/>
  <path d="M13.6641 19.5938L25.3125 19.5938C25.8398 19.5938 26.2734 19.1836 26.2734 18.6562C26.2734 18.1172 25.8398 17.707 25.3125 17.707L13.6641 17.707C13.125 17.707 12.7148 18.1172 12.7148 18.6562C12.7148 19.1836 13.125 19.5938 13.6641 19.5938Z" fill="black" fill-opacity="0.85"/>
  <path d="M5.05078 23.707C7.80469 23.707 10.1016 21.4102 10.1016 18.6562C10.1016 15.8789 7.80469 13.5938 5.05078 13.5938C2.28516 13.5938 0 15.8906 0 18.6562C0 21.4102 2.29688 23.707 5.05078 23.707ZM4.45312 21.375C4.20703 21.375 4.04297 21.2344 3.86719 21.0469L2.55469 19.4531C2.44922 19.3242 2.40234 19.1836 2.40234 18.9961C2.40234 18.6562 2.66016 18.3984 2.97656 18.3984C3.19922 18.3984 3.36328 18.4805 3.51562 18.6914L4.42969 19.8516L6.51562 16.5C6.65625 16.2773 6.83203 16.1602 7.04297 16.1602C7.37109 16.1602 7.65234 16.418 7.65234 16.7227C7.65234 16.8867 7.60547 17.0156 7.5 17.1914L5.05078 21.0352C4.92188 21.2578 4.71094 21.375 4.45312 21.375Z" fill="black" fill-opacity="0.85"/>
  <path d="M13.6641 6.04688L25.3125 6.04688C25.8398 6.04688 26.2734 5.625 26.2734 5.09766C26.2734 4.57031 25.8398 4.16016 25.3125 4.16016L13.6641 4.16016C13.125 4.16016 12.7148 4.57031 12.7148 5.09766C12.7148 5.625 13.125 6.04688 13.6641 6.04688Z" fill="black" fill-opacity="0.85"/>
  <path d="M5.05078 10.1484C7.80469 10.1484 10.1016 7.83984 10.1016 5.08594C10.1016 2.32031 7.80469 0.0351562 5.05078 0.0351562C2.28516 0.0351562 0 2.32031 0 5.08594C0 7.83984 2.29688 10.1484 5.05078 10.1484ZM4.45312 7.80469C4.20703 7.80469 4.04297 7.67578 3.86719 7.47656L2.55469 5.89453C2.44922 5.75391 2.40234 5.625 2.40234 5.4375C2.40234 5.09766 2.66016 4.82812 2.97656 4.82812C3.19922 4.82812 3.36328 4.92188 3.51562 5.12109L4.42969 6.28125L6.51562 2.92969C6.65625 2.71875 6.83203 2.60156 7.04297 2.60156C7.37109 2.60156 7.65234 2.85938 7.65234 3.15234C7.65234 3.31641 7.60547 3.45703 7.5 3.63281L5.05078 7.47656C4.92188 7.6875 4.71094 7.80469 4.45312 7.80469Z" fill="black" fill-opacity="0.85"/>
 </g>
</svg>
