<?xml version="1.0" encoding="UTF-8"?>
<!--Generator: Apple Native CoreSVG 360-->
<!DOCTYPE svg
PUBLIC "-//W3C//DTD SVG 1.1//EN"
       "http://www.w3.org/Graphics/SVG/1.1/DTD/svg11.dtd">
<svg version="1.1" xmlns="http://www.w3.org/2000/svg" xmlns:xlink="http://www.w3.org/1999/xlink" viewBox="0 0 13.8867 20.3789">
 <g>
  <rect height="20.3789" opacity="0" width="13.8867" x="0" y="0"/>
  <path d="M0 19.2891C0 19.8984 0.46875 20.3672 1.07812 20.3672C1.37109 20.3672 1.62891 20.2617 1.83984 20.0391L11.1211 10.9688C11.3438 10.7461 11.4609 10.4883 11.4609 10.1836C11.4609 9.87891 11.3438 9.60938 11.1328 9.39844L1.83984 0.316406C1.61719 0.117188 1.37109 0 1.06641 0C0.46875 0 0 0.457031 0 1.07812C0 1.37109 0.105469 1.64062 0.316406 1.83984L9.58594 10.8984L9.58594 9.45703L0.316406 18.5273C0.105469 18.7383 0 18.9961 0 19.2891ZM11.4375 19.3477C11.4375 19.9453 11.8711 20.3672 12.4805 20.3672C13.0898 20.3672 13.5352 19.9453 13.5352 19.3477L13.5352 1.04297C13.5352 0.433594 13.0898 0 12.4805 0C11.8711 0 11.4375 0.433594 11.4375 1.04297Z" fill="black" fill-opacity="0.85"/>
 </g>
</svg>
