<?xml version="1.0" encoding="UTF-8"?>
<!--Generator: Apple Native CoreSVG 360-->
<!DOCTYPE svg
PUBLIC "-//W3C//DTD SVG 1.1//EN"
       "http://www.w3.org/Graphics/SVG/1.1/DTD/svg11.dtd">
<svg version="1.1" xmlns="http://www.w3.org/2000/svg" xmlns:xlink="http://www.w3.org/1999/xlink" viewBox="0 0 22.9102 22.6523">
 <g>
  <rect height="22.6523" opacity="0" width="22.9102" x="0" y="0"/>
  <path d="M8.47266 20.4609C7.83984 20.4609 7.39453 20.9648 7.39453 21.5508C7.39453 22.1836 7.83984 22.6289 8.47266 22.6289L21.4219 22.6289C22.0664 22.6289 22.5586 22.1484 22.5586 21.5039L22.5586 8.51953C22.5586 7.88672 22.0781 7.44141 21.4922 7.44141C20.8477 7.44141 20.4023 7.88672 20.4023 8.51953L20.4023 21.4336L21.375 20.4609Z" fill="black" fill-opacity="0.85"/>
  <path d="M1.07812 13.0312C0.445312 13.0312 0 13.5234 0 14.1211C0 14.7539 0.445312 15.1992 1.07812 15.1992L14.0391 15.1992C14.6836 15.1992 15.1641 14.707 15.1641 14.0742L15.1641 1.08984C15.1641 0.457031 14.6836 0 14.0977 0C13.4648 0 13.0078 0.457031 13.0078 1.08984L13.0078 14.0039L13.9805 13.0312Z" fill="black" fill-opacity="0.85"/>
 </g>
</svg>
