<?xml version="1.0" encoding="UTF-8"?>
<!--Generator: Apple Native CoreSVG 360-->
<!DOCTYPE svg
PUBLIC "-//W3C//DTD SVG 1.1//EN"
       "http://www.w3.org/Graphics/SVG/1.1/DTD/svg11.dtd">
<svg version="1.1" xmlns="http://www.w3.org/2000/svg" xmlns:xlink="http://www.w3.org/1999/xlink" viewBox="0 0 21.9961 21.668">
 <g>
  <rect height="21.668" opacity="0" width="21.9961" x="0" y="0"/>
  <path d="M10.1367 9.58594C10.7344 9.58594 11.2148 9.10547 11.2148 8.50781C11.2148 7.91016 10.7344 7.42969 10.1367 7.42969C9.53906 7.42969 9.05859 7.91016 9.05859 8.50781C9.05859 9.10547 9.53906 9.58594 10.1367 9.58594ZM7.11328 9.58594C7.71094 9.58594 8.19141 9.10547 8.19141 8.50781C8.19141 7.91016 7.71094 7.42969 7.11328 7.42969C6.51562 7.42969 6.03516 7.91016 6.03516 8.50781C6.03516 9.10547 6.51562 9.58594 7.11328 9.58594ZM4.10156 9.58594C4.69922 9.58594 5.17969 9.10547 5.17969 8.50781C5.17969 7.91016 4.69922 7.42969 4.10156 7.42969C3.49219 7.42969 3.02344 7.91016 3.02344 8.50781C3.02344 9.10547 3.49219 9.58594 4.10156 9.58594ZM1.07812 9.58594C1.67578 9.58594 2.15625 9.10547 2.15625 8.50781C2.15625 7.91016 1.67578 7.42969 1.07812 7.42969C0.480469 7.42969 0 7.91016 0 8.50781C0 9.10547 0.480469 9.58594 1.07812 9.58594ZM13.1484 21.6562C13.7461 21.6562 14.2266 21.1758 14.2266 20.5781C14.2266 19.9805 13.7461 19.5 13.1484 19.5C12.5508 19.5 12.0703 19.9805 12.0703 20.5781C12.0703 21.1758 12.5508 21.6562 13.1484 21.6562ZM13.1484 18.6445C13.7461 18.6445 14.2266 18.1641 14.2266 17.5547C14.2266 16.957 13.7461 16.4766 13.1484 16.4766C12.5508 16.4766 12.0703 16.957 12.0703 17.5547C12.0703 18.1641 12.5508 18.6445 13.1484 18.6445ZM13.1484 15.6211C13.7461 15.6211 14.2266 15.1406 14.2266 14.543C14.2266 13.9453 13.7461 13.4648 13.1484 13.4648C12.5508 13.4648 12.0703 13.9453 12.0703 14.543C12.0703 15.1406 12.5508 15.6211 13.1484 15.6211ZM13.1484 12.5977C13.7461 12.5977 14.2266 12.1289 14.2266 11.5195C14.2266 10.9219 13.7461 10.4414 13.1484 10.4414C12.5508 10.4414 12.0703 10.9219 12.0703 11.5195C12.0703 12.1289 12.5508 12.5977 13.1484 12.5977ZM13.1484 9.58594C13.7461 9.58594 14.2266 9.10547 14.2266 8.50781C14.2266 7.91016 13.7461 7.42969 13.1484 7.42969C12.5508 7.42969 12.0703 7.91016 12.0703 8.50781C12.0703 9.10547 12.5508 9.58594 13.1484 9.58594Z" fill="black" fill-opacity="0.85"/>
  <path d="M17.543 2.15625C18.1406 2.15625 18.6211 1.67578 18.6211 1.07812C18.6211 0.480469 18.1406 0 17.543 0C16.9453 0 16.4648 0.480469 16.4648 1.07812C16.4648 1.67578 16.9453 2.15625 17.543 2.15625ZM14.5312 2.15625C15.1289 2.15625 15.6094 1.67578 15.6094 1.07812C15.6094 0.480469 15.1289 0 14.5312 0C13.9336 0 13.4531 0.480469 13.4531 1.07812C13.4531 1.67578 13.9336 2.15625 14.5312 2.15625ZM11.5078 2.15625C12.1055 2.15625 12.5859 1.67578 12.5859 1.07812C12.5859 0.480469 12.1055 0 11.5078 0C10.9102 0 10.4297 0.480469 10.4297 1.07812C10.4297 1.67578 10.9102 2.15625 11.5078 2.15625ZM8.49609 2.15625C9.09375 2.15625 9.57422 1.67578 9.57422 1.07812C9.57422 0.480469 9.09375 0 8.49609 0C7.89844 0 7.41797 0.480469 7.41797 1.07812C7.41797 1.67578 7.89844 2.15625 8.49609 2.15625ZM20.5664 14.2266C21.1641 14.2266 21.6445 13.7461 21.6445 13.1484C21.6445 12.5508 21.1641 12.0703 20.5664 12.0703C19.9688 12.0703 19.4883 12.5508 19.4883 13.1484C19.4883 13.7461 19.9688 14.2266 20.5664 14.2266ZM20.5664 11.2031C21.1641 11.2031 21.6445 10.7227 21.6445 10.125C21.6445 9.52734 21.1641 9.04688 20.5664 9.04688C19.9688 9.04688 19.4883 9.52734 19.4883 10.125C19.4883 10.7227 19.9688 11.2031 20.5664 11.2031ZM20.5664 8.19141C21.1641 8.19141 21.6445 7.71094 21.6445 7.11328C21.6445 6.51562 21.1641 6.03516 20.5664 6.03516C19.9688 6.03516 19.4883 6.51562 19.4883 7.11328C19.4883 7.71094 19.9688 8.19141 20.5664 8.19141ZM20.5664 5.16797C21.1641 5.16797 21.6445 4.6875 21.6445 4.08984C21.6445 3.49219 21.1641 3.01172 20.5664 3.01172C19.9688 3.01172 19.4883 3.49219 19.4883 4.08984C19.4883 4.6875 19.9688 5.16797 20.5664 5.16797ZM20.5664 2.15625C21.1641 2.15625 21.6445 1.67578 21.6445 1.07812C21.6445 0.480469 21.1641 0 20.5664 0C19.9688 0 19.4883 0.480469 19.4883 1.07812C19.4883 1.67578 19.9688 2.15625 20.5664 2.15625Z" fill="black" fill-opacity="0.85"/>
 </g>
</svg>
