<?xml version="1.0" encoding="UTF-8"?>
<!--Generator: Apple Native CoreSVG 360-->
<!DOCTYPE svg
PUBLIC "-//W3C//DTD SVG 1.1//EN"
       "http://www.w3.org/Graphics/SVG/1.1/DTD/svg11.dtd">
<svg version="1.1" xmlns="http://www.w3.org/2000/svg" xmlns:xlink="http://www.w3.org/1999/xlink" viewBox="0 0 25.3828 25.043">
 <g>
  <rect height="25.043" opacity="0" width="25.3828" x="0" y="0"/>
  <path d="M7.96875 3.98438C8.32031 3.98438 8.77734 3.78516 9.07031 3.67969L13.3359 1.99219L11.6836 1.99219L15.9492 3.67969C16.2539 3.78516 16.7109 3.98438 17.0625 3.98438C17.7539 3.98438 18.2578 3.46875 18.2578 2.77734C18.2578 2.34375 17.9648 1.94531 17.5078 1.76953L14.2266 0.480469C13.6875 0.269531 13.0312 0.0117188 12.5156 0.0117188C11.9883 0.0117188 11.3672 0.257812 10.8047 0.480469L7.51172 1.76953C7.05469 1.94531 6.77344 2.34375 6.77344 2.77734C6.77344 3.46875 7.27734 3.98438 7.96875 3.98438ZM22.2656 18.2578C22.6875 18.2578 23.0977 17.9766 23.2734 17.5195L24.5625 14.2266C24.7734 13.6992 25.0312 13.0312 25.0312 12.5156C25.0312 12 24.7852 11.3789 24.5625 10.8047L23.2734 7.52344C23.0859 7.06641 22.6875 6.78516 22.2656 6.78516C21.5742 6.78516 21.0586 7.28906 21.0586 7.96875C21.0586 8.33203 21.2461 8.78906 21.3633 9.08203L23.0508 13.3477L23.0508 11.6953L21.3633 15.9609C21.2461 16.2656 21.0586 16.7227 21.0586 17.0742C21.0586 17.7539 21.5742 18.2578 22.2656 18.2578ZM12.5156 25.043C13.0312 25.043 13.6875 24.7852 14.2266 24.5742L17.5078 23.2734C17.9648 23.0977 18.2578 22.6992 18.2578 22.2773C18.2578 21.5859 17.7539 21.0586 17.0625 21.0586C16.7109 21.0586 16.2539 21.2578 15.9492 21.375L11.6836 23.0508L13.3359 23.0508L9.07031 21.375C8.77734 21.2578 8.32031 21.0586 7.96875 21.0586C7.27734 21.0586 6.77344 21.5859 6.77344 22.2773C6.77344 22.6992 7.05469 23.0977 7.51172 23.2734L10.8047 24.5742C11.3672 24.7969 11.9883 25.043 12.5156 25.043ZM2.76562 18.2578C3.45703 18.2578 3.97266 17.7539 3.97266 17.0742C3.97266 16.7227 3.78516 16.2656 3.66797 15.9609L1.98047 11.6953L1.98047 13.3477L3.66797 9.08203C3.78516 8.78906 3.97266 8.33203 3.97266 7.96875C3.97266 7.28906 3.45703 6.78516 2.76562 6.78516C2.34375 6.78516 1.94531 7.06641 1.75781 7.52344L0.46875 10.8047C0.246094 11.3789 0 12 0 12.5156C0 13.0312 0.257812 13.6992 0.46875 14.2266L1.75781 17.5195C1.93359 17.9766 2.34375 18.2578 2.76562 18.2578Z" fill="black" fill-opacity="0.85"/>
 </g>
</svg>
