<?xml version="1.0" encoding="UTF-8"?>
<!--Generator: Apple Native CoreSVG 360-->
<!DOCTYPE svg
PUBLIC "-//W3C//DTD SVG 1.1//EN"
       "http://www.w3.org/Graphics/SVG/1.1/DTD/svg11.dtd">
<svg version="1.1" xmlns="http://www.w3.org/2000/svg" xmlns:xlink="http://www.w3.org/1999/xlink" viewBox="0 0 25.7608 25.4355">
 <g>
  <rect height="25.4355" opacity="0" width="25.7608" x="0" y="0"/>
  <path d="M13.5015 0.37207C13.021-0.108398 12.3765-0.108398 11.8843 0.37207L7.97023 4.27441C7.50148 4.74316 7.50148 5.25879 7.97023 5.71582C8.43898 6.19629 8.93117 6.18457 9.42335 5.7041L12.6929 2.42285L15.9624 5.7041C16.4429 6.17285 16.9585 6.18457 17.4155 5.71582C17.8726 5.25879 17.8726 4.74316 17.4038 4.27441ZM19.7124 17.4229C20.1694 17.9033 20.6968 17.8799 21.1655 17.4111L25.0562 13.5205C25.5249 13.0518 25.5249 12.3721 25.0679 11.915L21.1421 7.96582C20.6499 7.47363 20.1226 7.48535 19.689 7.9541C19.2085 8.41113 19.2085 8.93848 19.689 9.40723L22.9937 12.7119L19.7241 15.9814C19.2671 16.4502 19.2554 16.9658 19.7124 17.4229ZM11.8843 25.0752C12.3648 25.5557 13.0093 25.5557 13.5015 25.0752L17.4155 21.1729C17.8843 20.7041 17.8843 20.1885 17.4155 19.7314C16.9468 19.251 16.4546 19.251 15.9624 19.7432L12.6929 23.0127L9.3882 19.708C8.89601 19.2158 8.3921 19.2158 7.92335 19.6963C7.47804 20.1533 7.47804 20.6689 7.94679 21.1377ZM5.72023 17.4697C6.2007 17.0127 6.21242 16.4854 5.72023 16.0049L2.41554 12.7119L5.69679 9.41895C6.16554 8.96191 6.15382 8.44629 5.70851 7.98926C5.23976 7.52051 4.71242 7.53223 4.24367 8.00098L0.353041 11.9033C-0.115709 12.3721-0.115709 13.0518 0.341323 13.5088L4.2671 17.458C4.75929 17.9502 5.28664 17.9385 5.72023 17.4697Z" fill="black" fill-opacity="0.85"/>
 </g>
</svg>
