<?xml version="1.0" encoding="UTF-8"?>
<!--Generator: Apple Native CoreSVG 360-->
<!DOCTYPE svg
PUBLIC "-//W3C//DTD SVG 1.1//EN"
       "http://www.w3.org/Graphics/SVG/1.1/DTD/svg11.dtd">
<svg version="1.1" xmlns="http://www.w3.org/2000/svg" xmlns:xlink="http://www.w3.org/1999/xlink" viewBox="0 0 19.6406 21.1758">
 <g>
  <rect height="21.1758" opacity="0" width="19.6406" x="0" y="0"/>
  <path d="M17.1328 11.5898C17.1328 12.1875 17.6133 12.668 18.2109 12.668C18.8086 12.668 19.2891 12.1875 19.2891 11.5898C19.2891 10.9922 18.8086 10.5117 18.2109 10.5117C17.6133 10.5117 17.1328 10.9922 17.1328 11.5898ZM14.9883 13.7227C14.9883 14.3203 15.4688 14.8008 16.0664 14.8008C16.6641 14.8008 17.1445 14.3203 17.1445 13.7227C17.1445 13.125 16.6641 12.6445 16.0664 12.6445C15.4688 12.6445 14.9883 13.125 14.9883 13.7227ZM12.8438 15.8438C12.8438 16.4414 13.3242 16.9219 13.9219 16.9219C14.5195 16.9219 15 16.4414 15 15.8438C15 15.2461 14.5195 14.7656 13.9219 14.7656C13.3242 14.7656 12.8438 15.2461 12.8438 15.8438ZM10.7109 17.9766C10.7109 18.5742 11.1797 19.0547 11.7891 19.0547C12.3867 19.0547 12.8672 18.5742 12.8672 17.9766C12.8672 17.3789 12.3867 16.8984 11.7891 16.8984C11.1797 16.8984 10.7109 17.3789 10.7109 17.9766ZM8.56641 20.0977C8.56641 20.6953 9.04688 21.1758 9.64453 21.1758C10.2422 21.1758 10.7227 20.6953 10.7227 20.0977C10.7227 19.5 10.2422 19.0195 9.64453 19.0195C9.04688 19.0195 8.56641 19.5 8.56641 20.0977ZM6.42188 17.9766C6.42188 18.5742 6.90234 19.0547 7.5 19.0547C8.09766 19.0547 8.57812 18.5742 8.57812 17.9766C8.57812 17.3789 8.09766 16.8984 7.5 16.8984C6.90234 16.8984 6.42188 17.3789 6.42188 17.9766ZM4.27734 15.8438C4.27734 16.4414 4.75781 16.9219 5.35547 16.9219C5.96484 16.9219 6.43359 16.4414 6.43359 15.8438C6.43359 15.2461 5.96484 14.7656 5.35547 14.7656C4.75781 14.7656 4.27734 15.2461 4.27734 15.8438ZM2.14453 13.7227C2.14453 14.3203 2.625 14.8008 3.22266 14.8008C3.82031 14.8008 4.30078 14.3203 4.30078 13.7227C4.30078 13.125 3.82031 12.6445 3.22266 12.6445C2.625 12.6445 2.14453 13.125 2.14453 13.7227ZM0 11.5898C0 12.1875 0.480469 12.668 1.07812 12.668C1.67578 12.668 2.15625 12.1875 2.15625 11.5898C2.15625 10.9922 1.67578 10.5117 1.07812 10.5117C0.480469 10.5117 0 10.9922 0 11.5898Z" fill="black" fill-opacity="0.85"/>
  <path d="M17.1328 1.125C17.1328 1.72266 17.6133 2.20312 18.2109 2.20312C18.8086 2.20312 19.2891 1.72266 19.2891 1.125C19.2891 0.515625 18.8086 0.046875 18.2109 0.046875C17.6133 0.046875 17.1328 0.515625 17.1328 1.125ZM14.9883 3.24609C14.9883 3.84375 15.4688 4.32422 16.0664 4.32422C16.6641 4.32422 17.1445 3.84375 17.1445 3.24609C17.1445 2.64844 16.6641 2.16797 16.0664 2.16797C15.4688 2.16797 14.9883 2.64844 14.9883 3.24609ZM12.8438 5.36719C12.8438 5.96484 13.3242 6.44531 13.9219 6.44531C14.5195 6.44531 15 5.96484 15 5.36719C15 4.76953 14.5195 4.28906 13.9219 4.28906C13.3242 4.28906 12.8438 4.76953 12.8438 5.36719ZM10.7109 7.5C10.7109 8.09766 11.1797 8.57812 11.7891 8.57812C12.3867 8.57812 12.8672 8.09766 12.8672 7.5C12.8672 6.90234 12.3867 6.42188 11.7891 6.42188C11.1797 6.42188 10.7109 6.90234 10.7109 7.5ZM8.56641 9.62109C8.56641 10.2188 9.04688 10.6992 9.64453 10.6992C10.2422 10.6992 10.7227 10.2188 10.7227 9.62109C10.7227 9.02344 10.2422 8.54297 9.64453 8.54297C9.04688 8.54297 8.56641 9.02344 8.56641 9.62109ZM6.42188 7.5C6.42188 8.09766 6.90234 8.57812 7.5 8.57812C8.09766 8.57812 8.57812 8.09766 8.57812 7.5C8.57812 6.90234 8.09766 6.42188 7.5 6.42188C6.90234 6.42188 6.42188 6.90234 6.42188 7.5ZM4.27734 5.36719C4.27734 5.96484 4.75781 6.44531 5.35547 6.44531C5.96484 6.44531 6.43359 5.96484 6.43359 5.36719C6.43359 4.76953 5.96484 4.28906 5.35547 4.28906C4.75781 4.28906 4.27734 4.76953 4.27734 5.36719ZM2.14453 3.24609C2.14453 3.84375 2.625 4.32422 3.22266 4.32422C3.82031 4.32422 4.30078 3.84375 4.30078 3.24609C4.30078 2.64844 3.82031 2.16797 3.22266 2.16797C2.625 2.16797 2.14453 2.64844 2.14453 3.24609ZM0 1.125C0 1.72266 0.480469 2.20312 1.07812 2.20312C1.67578 2.20312 2.15625 1.72266 2.15625 1.125C2.15625 0.515625 1.67578 0.046875 1.07812 0.046875C0.480469 0.046875 0 0.515625 0 1.125Z" fill="black" fill-opacity="0.85"/>
 </g>
</svg>
