<?xml version="1.0" encoding="UTF-8"?>
<!--Generator: Apple Native CoreSVG 360-->
<!DOCTYPE svg
PUBLIC "-//W3C//DTD SVG 1.1//EN"
       "http://www.w3.org/Graphics/SVG/1.1/DTD/svg11.dtd">
<svg version="1.1" xmlns="http://www.w3.org/2000/svg" xmlns:xlink="http://www.w3.org/1999/xlink" viewBox="0 0 21.9961 21.668">
 <g>
  <rect height="21.668" opacity="0" width="21.9961" x="0" y="0"/>
  <path d="M17.543 19.5C16.9453 19.5 16.4648 19.9805 16.4648 20.5781C16.4648 21.1758 16.9453 21.6562 17.543 21.6562C18.1406 21.6562 18.6211 21.1758 18.6211 20.5781C18.6211 19.9805 18.1406 19.5 17.543 19.5ZM14.5312 19.5C13.9336 19.5 13.4531 19.9805 13.4531 20.5781C13.4531 21.1758 13.9336 21.6562 14.5312 21.6562C15.1289 21.6562 15.6094 21.1758 15.6094 20.5781C15.6094 19.9805 15.1289 19.5 14.5312 19.5ZM11.5078 19.5C10.9102 19.5 10.4297 19.9805 10.4297 20.5781C10.4297 21.1758 10.9102 21.6562 11.5078 21.6562C12.1055 21.6562 12.5859 21.1758 12.5859 20.5781C12.5859 19.9805 12.1055 19.5 11.5078 19.5ZM8.49609 19.5C7.89844 19.5 7.41797 19.9805 7.41797 20.5781C7.41797 21.1758 7.89844 21.6562 8.49609 21.6562C9.09375 21.6562 9.57422 21.1758 9.57422 20.5781C9.57422 19.9805 9.09375 19.5 8.49609 19.5ZM20.5664 7.42969C19.9688 7.42969 19.4883 7.91016 19.4883 8.50781C19.4883 9.10547 19.9688 9.58594 20.5664 9.58594C21.1641 9.58594 21.6445 9.10547 21.6445 8.50781C21.6445 7.91016 21.1641 7.42969 20.5664 7.42969ZM20.5664 10.4414C19.9688 10.4414 19.4883 10.9219 19.4883 11.5195C19.4883 12.1289 19.9688 12.5977 20.5664 12.5977C21.1641 12.5977 21.6445 12.1289 21.6445 11.5195C21.6445 10.9219 21.1641 10.4414 20.5664 10.4414ZM20.5664 13.4648C19.9688 13.4648 19.4883 13.9453 19.4883 14.543C19.4883 15.1406 19.9688 15.6211 20.5664 15.6211C21.1641 15.6211 21.6445 15.1406 21.6445 14.543C21.6445 13.9453 21.1641 13.4648 20.5664 13.4648ZM20.5664 16.4766C19.9688 16.4766 19.4883 16.957 19.4883 17.5547C19.4883 18.1641 19.9688 18.6445 20.5664 18.6445C21.1641 18.6445 21.6445 18.1641 21.6445 17.5547C21.6445 16.957 21.1641 16.4766 20.5664 16.4766ZM20.5664 19.5C19.9688 19.5 19.4883 19.9805 19.4883 20.5781C19.4883 21.1758 19.9688 21.6562 20.5664 21.6562C21.1641 21.6562 21.6445 21.1758 21.6445 20.5781C21.6445 19.9805 21.1641 19.5 20.5664 19.5Z" fill="black" fill-opacity="0.85"/>
  <path d="M10.1367 12.0703C9.53906 12.0703 9.05859 12.5508 9.05859 13.1484C9.05859 13.7461 9.53906 14.2266 10.1367 14.2266C10.7344 14.2266 11.2148 13.7461 11.2148 13.1484C11.2148 12.5508 10.7344 12.0703 10.1367 12.0703ZM7.11328 12.0703C6.51562 12.0703 6.03516 12.5508 6.03516 13.1484C6.03516 13.7461 6.51562 14.2266 7.11328 14.2266C7.71094 14.2266 8.19141 13.7461 8.19141 13.1484C8.19141 12.5508 7.71094 12.0703 7.11328 12.0703ZM4.10156 12.0703C3.49219 12.0703 3.02344 12.5508 3.02344 13.1484C3.02344 13.7461 3.49219 14.2266 4.10156 14.2266C4.69922 14.2266 5.17969 13.7461 5.17969 13.1484C5.17969 12.5508 4.69922 12.0703 4.10156 12.0703ZM1.07812 12.0703C0.480469 12.0703 0 12.5508 0 13.1484C0 13.7461 0.480469 14.2266 1.07812 14.2266C1.67578 14.2266 2.15625 13.7461 2.15625 13.1484C2.15625 12.5508 1.67578 12.0703 1.07812 12.0703ZM13.1484 0C12.5508 0 12.0703 0.480469 12.0703 1.07812C12.0703 1.67578 12.5508 2.15625 13.1484 2.15625C13.7461 2.15625 14.2266 1.67578 14.2266 1.07812C14.2266 0.480469 13.7461 0 13.1484 0ZM13.1484 3.01172C12.5508 3.01172 12.0703 3.49219 12.0703 4.08984C12.0703 4.6875 12.5508 5.16797 13.1484 5.16797C13.7461 5.16797 14.2266 4.6875 14.2266 4.08984C14.2266 3.49219 13.7461 3.01172 13.1484 3.01172ZM13.1484 6.03516C12.5508 6.03516 12.0703 6.51562 12.0703 7.11328C12.0703 7.71094 12.5508 8.19141 13.1484 8.19141C13.7461 8.19141 14.2266 7.71094 14.2266 7.11328C14.2266 6.51562 13.7461 6.03516 13.1484 6.03516ZM13.1484 9.04688C12.5508 9.04688 12.0703 9.52734 12.0703 10.125C12.0703 10.7227 12.5508 11.2031 13.1484 11.2031C13.7461 11.2031 14.2266 10.7227 14.2266 10.125C14.2266 9.52734 13.7461 9.04688 13.1484 9.04688ZM13.1484 12.0703C12.5508 12.0703 12.0703 12.5508 12.0703 13.1484C12.0703 13.7461 12.5508 14.2266 13.1484 14.2266C13.7461 14.2266 14.2266 13.7461 14.2266 13.1484C14.2266 12.5508 13.7461 12.0703 13.1484 12.0703Z" fill="black" fill-opacity="0.85"/>
 </g>
</svg>
