<?xml version="1.0" encoding="UTF-8"?>
<!--Generator: Apple Native CoreSVG 360-->
<!DOCTYPE svg
PUBLIC "-//W3C//DTD SVG 1.1//EN"
       "http://www.w3.org/Graphics/SVG/1.1/DTD/svg11.dtd">
<svg version="1.1" xmlns="http://www.w3.org/2000/svg" xmlns:xlink="http://www.w3.org/1999/xlink" viewBox="0 0 20.707 21.9492">
 <g>
  <rect height="21.9492" opacity="0" width="20.707" x="0" y="0"/>
  <path d="M0.316406 12.3047L9.38672 21.5977C9.60938 21.8086 9.87891 21.9375 10.1836 21.9375C10.4766 21.9375 10.7578 21.7969 10.9688 21.5859L20.0391 12.3047C20.2383 12.1055 20.3555 11.8477 20.3555 11.543C20.3555 10.9336 19.8984 10.4766 19.2891 10.4766C18.9961 10.4766 18.7266 10.5938 18.5273 10.7812L9.55078 19.9453L10.8047 19.9453L1.82812 10.7812C1.64062 10.5938 1.37109 10.4766 1.06641 10.4766C0.457031 10.4766 0 10.9336 0 11.543C0 11.8477 0.117188 12.1055 0.316406 12.3047Z" fill="black" fill-opacity="0.85"/>
  <path d="M0.316406 1.83984L9.38672 11.1211C9.60938 11.3438 9.87891 11.4609 10.1836 11.4609C10.4766 11.4609 10.7695 11.332 10.9688 11.1094L20.0391 1.82812C20.2383 1.62891 20.3555 1.37109 20.3555 1.06641C20.3555 0.457031 19.8984 0 19.2891 0C18.9961 0 18.7266 0.117188 18.5273 0.304688L9.55078 9.48047L10.8047 9.48047L1.82812 0.304688C1.64062 0.117188 1.37109 0 1.06641 0C0.457031 0 0 0.457031 0 1.06641C0 1.37109 0.117188 1.62891 0.316406 1.83984Z" fill="black" fill-opacity="0.85"/>
 </g>
</svg>
