<?xml version="1.0" encoding="UTF-8"?>
<!--Generator: Apple Native CoreSVG 360-->
<!DOCTYPE svg
PUBLIC "-//W3C//DTD SVG 1.1//EN"
       "http://www.w3.org/Graphics/SVG/1.1/DTD/svg11.dtd">
<svg version="1.1" xmlns="http://www.w3.org/2000/svg" xmlns:xlink="http://www.w3.org/1999/xlink" viewBox="0 0 21.4688 20.4961">
 <g>
  <rect height="20.4961" opacity="0" width="21.4688" x="0" y="0"/>
  <path d="M10.7344 20.3555C11.0273 20.3555 11.2852 20.2383 11.4961 20.0391L20.7773 10.9688C21 10.7461 21.1172 10.4766 21.1172 10.1836C21.1172 9.87891 21 9.58594 20.7773 9.39844L11.4961 0.316406C11.2852 0.117188 11.0273 0 10.7344 0C10.125 0 9.65625 0.46875 9.65625 1.07812C9.65625 1.35938 9.78516 1.64062 9.97266 1.83984L19.1367 10.8047L19.1367 9.55078L9.97266 18.5273C9.78516 18.7266 9.65625 18.9961 9.65625 19.2891C9.65625 19.8984 10.125 20.3555 10.7344 20.3555Z" fill="black" fill-opacity="0.85"/>
  <path d="M1.07812 2.76562C1.67578 2.76562 2.15625 2.28516 2.15625 1.6875C2.15625 1.08984 1.67578 0.609375 1.07812 0.609375C0.480469 0.609375 0 1.08984 0 1.6875C0 2.28516 0.480469 2.76562 1.07812 2.76562ZM3.19922 4.91016C3.80859 4.91016 4.27734 4.42969 4.27734 3.83203C4.27734 3.23438 3.80859 2.75391 3.19922 2.75391C2.60156 2.75391 2.12109 3.23438 2.12109 3.83203C2.12109 4.42969 2.60156 4.91016 3.19922 4.91016ZM5.33203 7.04297C5.92969 7.04297 6.41016 6.57422 6.41016 5.96484C6.41016 5.36719 5.92969 4.88672 5.33203 4.88672C4.73438 4.88672 4.25391 5.36719 4.25391 5.96484C4.25391 6.57422 4.73438 7.04297 5.33203 7.04297ZM7.45312 9.1875C8.05078 9.1875 8.53125 8.70703 8.53125 8.10938C8.53125 7.51172 8.05078 7.03125 7.45312 7.03125C6.85547 7.03125 6.375 7.51172 6.375 8.10938C6.375 8.70703 6.85547 9.1875 7.45312 9.1875ZM9.58594 11.332C10.1836 11.332 10.6641 10.8516 10.6641 10.2539C10.6641 9.65625 10.1836 9.17578 9.58594 9.17578C8.98828 9.17578 8.50781 9.65625 8.50781 10.2539C8.50781 10.8516 8.98828 11.332 9.58594 11.332ZM7.45312 13.4766C8.05078 13.4766 8.53125 12.9961 8.53125 12.3984C8.53125 11.7891 8.05078 11.3203 7.45312 11.3203C6.85547 11.3203 6.375 11.7891 6.375 12.3984C6.375 12.9961 6.85547 13.4766 7.45312 13.4766ZM5.33203 15.6094C5.92969 15.6094 6.41016 15.1289 6.41016 14.5312C6.41016 13.9336 5.92969 13.4531 5.33203 13.4531C4.73438 13.4531 4.25391 13.9336 4.25391 14.5312C4.25391 15.1289 4.73438 15.6094 5.33203 15.6094ZM3.19922 17.7539C3.80859 17.7539 4.27734 17.2734 4.27734 16.6758C4.27734 16.0781 3.80859 15.5977 3.19922 15.5977C2.60156 15.5977 2.12109 16.0781 2.12109 16.6758C2.12109 17.2734 2.60156 17.7539 3.19922 17.7539ZM1.07812 19.8984C1.67578 19.8984 2.15625 19.418 2.15625 18.8203C2.15625 18.2227 1.67578 17.7422 1.07812 17.7422C0.480469 17.7422 0 18.2227 0 18.8203C0 19.418 0.480469 19.8984 1.07812 19.8984Z" fill="black" fill-opacity="0.85"/>
 </g>
</svg>
