<?xml version="1.0" encoding="UTF-8"?>
<!--Generator: Apple Native CoreSVG 360-->
<!DOCTYPE svg
PUBLIC "-//W3C//DTD SVG 1.1//EN"
       "http://www.w3.org/Graphics/SVG/1.1/DTD/svg11.dtd">
<svg version="1.1" xmlns="http://www.w3.org/2000/svg" xmlns:xlink="http://www.w3.org/1999/xlink" viewBox="0 0 22.9102 22.6523">
 <g>
  <rect height="22.6523" opacity="0" width="22.9102" x="0" y="0"/>
  <path d="M8.47266 2.16797L21.375 2.16797L20.4023 1.20703L20.4023 14.1211C20.4023 14.7539 20.8477 15.1992 21.4922 15.1992C22.0781 15.1992 22.5586 14.7539 22.5586 14.1211L22.5586 1.13672C22.5586 0.492188 22.0664 0 21.4219 0L8.47266 0C7.83984 0 7.39453 0.457031 7.39453 1.08984C7.39453 1.67578 7.83984 2.16797 8.47266 2.16797Z" fill="black" fill-opacity="0.85"/>
  <path d="M1.07812 9.59766L13.9805 9.59766L13.0078 8.63672L13.0078 21.5508C13.0078 22.1836 13.4648 22.6289 14.0977 22.6289C14.6836 22.6289 15.1641 22.1836 15.1641 21.5508L15.1641 8.56641C15.1641 7.92188 14.6836 7.44141 14.0391 7.44141L1.07812 7.44141C0.445312 7.44141 0 7.88672 0 8.51953C0 9.10547 0.445312 9.59766 1.07812 9.59766Z" fill="black" fill-opacity="0.85"/>
 </g>
</svg>
