<?xml version="1.0" encoding="UTF-8"?>
<!--Generator: Apple Native CoreSVG 360-->
<!DOCTYPE svg
PUBLIC "-//W3C//DTD SVG 1.1//EN"
       "http://www.w3.org/Graphics/SVG/1.1/DTD/svg11.dtd">
<svg version="1.1" xmlns="http://www.w3.org/2000/svg" xmlns:xlink="http://www.w3.org/1999/xlink" viewBox="0 0 21.2461 6.41016">
 <g>
  <rect height="6.41016" opacity="0" width="21.2461" x="0" y="0"/>
  <path d="M0.738281 2.21484L8.74219 5.34375C9.28125 5.55469 9.92578 5.8125 10.4531 5.8125C10.9688 5.8125 11.625 5.55469 12.1641 5.34375L20.1562 2.21484C20.6016 2.03906 20.8945 1.64062 20.8945 1.20703C20.8945 0.515625 20.3906 0 19.7109 0C19.3594 0 18.8906 0.199219 18.5977 0.304688L9.62109 3.83203L11.2734 3.83203L2.29688 0.304688C2.00391 0.199219 1.54688 0 1.18359 0C0.503906 0 0 0.515625 0 1.20703C0 1.64062 0.292969 2.03906 0.738281 2.21484Z" fill="black" fill-opacity="0.85"/>
 </g>
</svg>
