<?xml version="1.0" encoding="UTF-8"?>
<!--Generator: Apple Native CoreSVG 360-->
<!DOCTYPE svg
PUBLIC "-//W3C//DTD SVG 1.1//EN"
       "http://www.w3.org/Graphics/SVG/1.1/DTD/svg11.dtd">
<svg version="1.1" xmlns="http://www.w3.org/2000/svg" xmlns:xlink="http://www.w3.org/1999/xlink" viewBox="0 0 15.9492 22.582">
 <g>
  <rect height="22.582" opacity="0" width="15.9492" x="0" y="0"/>
  <path d="M7.80469 0C7.5 0 7.23047 0.117188 6.99609 0.351562L0.304688 6.77344C0.128906 6.94922 0 7.19531 0 7.53516C0 8.14453 0.457031 8.61328 1.06641 8.61328C1.32422 8.61328 1.60547 8.54297 1.85156 8.29688L7.80469 2.47266L13.7461 8.29688C14.0039 8.53125 14.2734 8.61328 14.5312 8.61328C15.1406 8.61328 15.5977 8.14453 15.5977 7.53516C15.5977 7.19531 15.4805 6.94922 15.293 6.77344L8.60156 0.351562C8.36719 0.117188 8.09766 0 7.80469 0ZM7.80469 22.5703C8.09766 22.5703 8.36719 22.4414 8.60156 22.2188L15.293 15.7969C15.4805 15.6094 15.5977 15.375 15.5977 15.0234C15.5977 14.4141 15.1406 13.957 14.5312 13.957C14.2734 13.957 14.0039 14.0391 13.7461 14.2734L7.80469 20.0977L1.85156 14.2734C1.60547 14.0273 1.32422 13.957 1.06641 13.957C0.457031 13.957 0 14.4141 0 15.0234C0 15.375 0.128906 15.6094 0.304688 15.7969L6.99609 22.2188C7.23047 22.4414 7.5 22.5703 7.80469 22.5703Z" fill="black" fill-opacity="0.85"/>
 </g>
</svg>
