<?xml version="1.0" encoding="UTF-8"?>
<!--Generator: Apple Native CoreSVG 360-->
<!DOCTYPE svg
PUBLIC "-//W3C//DTD SVG 1.1//EN"
       "http://www.w3.org/Graphics/SVG/1.1/DTD/svg11.dtd">
<svg version="1.1" xmlns="http://www.w3.org/2000/svg" xmlns:xlink="http://www.w3.org/1999/xlink" viewBox="0 0 21.4688 20.4961">
 <g>
  <rect height="20.4961" opacity="0" width="21.4688" x="0" y="0"/>
  <path d="M20.0391 2.76562C20.6367 2.76562 21.1172 2.28516 21.1172 1.6875C21.1172 1.08984 20.6367 0.609375 20.0391 0.609375C19.4414 0.609375 18.9609 1.08984 18.9609 1.6875C18.9609 2.28516 19.4414 2.76562 20.0391 2.76562ZM17.918 4.91016C18.5156 4.91016 18.9961 4.42969 18.9961 3.83203C18.9961 3.23438 18.5156 2.75391 17.918 2.75391C17.3203 2.75391 16.8398 3.23438 16.8398 3.83203C16.8398 4.42969 17.3203 4.91016 17.918 4.91016ZM15.7969 7.04297C16.3945 7.04297 16.875 6.57422 16.875 5.96484C16.875 5.36719 16.3945 4.88672 15.7969 4.88672C15.1875 4.88672 14.7188 5.36719 14.7188 5.96484C14.7188 6.57422 15.1875 7.04297 15.7969 7.04297ZM13.6641 9.1875C14.2617 9.1875 14.7422 8.70703 14.7422 8.10938C14.7422 7.51172 14.2617 7.03125 13.6641 7.03125C13.0664 7.03125 12.5859 7.51172 12.5859 8.10938C12.5859 8.70703 13.0664 9.1875 13.6641 9.1875ZM11.543 11.332C12.1406 11.332 12.6211 10.8516 12.6211 10.2539C12.6211 9.65625 12.1406 9.17578 11.543 9.17578C10.9453 9.17578 10.4648 9.65625 10.4648 10.2539C10.4648 10.8516 10.9453 11.332 11.543 11.332ZM13.6641 13.4766C14.2617 13.4766 14.7422 12.9961 14.7422 12.3984C14.7422 11.7891 14.2617 11.3203 13.6641 11.3203C13.0664 11.3203 12.5859 11.7891 12.5859 12.3984C12.5859 12.9961 13.0664 13.4766 13.6641 13.4766ZM15.7969 15.6094C16.3945 15.6094 16.875 15.1289 16.875 14.5312C16.875 13.9336 16.3945 13.4531 15.7969 13.4531C15.1875 13.4531 14.7188 13.9336 14.7188 14.5312C14.7188 15.1289 15.1875 15.6094 15.7969 15.6094ZM17.918 17.7539C18.5156 17.7539 18.9961 17.2734 18.9961 16.6758C18.9961 16.0781 18.5156 15.5977 17.918 15.5977C17.3203 15.5977 16.8398 16.0781 16.8398 16.6758C16.8398 17.2734 17.3203 17.7539 17.918 17.7539ZM20.0391 19.8984C20.6367 19.8984 21.1172 19.418 21.1172 18.8203C21.1172 18.2227 20.6367 17.7422 20.0391 17.7422C19.4414 17.7422 18.9609 18.2227 18.9609 18.8203C18.9609 19.418 19.4414 19.8984 20.0391 19.8984Z" fill="black" fill-opacity="0.85"/>
  <path d="M10.3945 20.3555C11.0039 20.3555 11.4609 19.8984 11.4609 19.2891C11.4609 18.9961 11.3438 18.7266 11.1562 18.5273L1.98047 9.55078L1.98047 10.8047L11.1562 1.83984C11.3438 1.64062 11.4609 1.35938 11.4609 1.07812C11.4609 0.46875 11.0039 0 10.3945 0C10.0898 0 9.83203 0.117188 9.63281 0.316406L0.351562 9.39844C0.128906 9.58594 0 9.87891 0 10.1836C0 10.4766 0.117188 10.7461 0.339844 10.9688L9.63281 20.0391C9.83203 20.2383 10.0898 20.3555 10.3945 20.3555Z" fill="black" fill-opacity="0.85"/>
 </g>
</svg>
