<?xml version="1.0" encoding="UTF-8"?>
<!--Generator: Apple Native CoreSVG 360-->
<!DOCTYPE svg
PUBLIC "-//W3C//DTD SVG 1.1//EN"
       "http://www.w3.org/Graphics/SVG/1.1/DTD/svg11.dtd">
<svg version="1.1" xmlns="http://www.w3.org/2000/svg" xmlns:xlink="http://www.w3.org/1999/xlink" viewBox="0 0 20.707 21.9492">
 <g>
  <rect height="21.9492" opacity="0" width="20.707" x="0" y="0"/>
  <path d="M0.316406 20.0977C0.117188 20.3086 0 20.5664 0 20.8594C0 21.4688 0.457031 21.9375 1.06641 21.9375C1.37109 21.9375 1.64062 21.8203 1.82812 21.6211L10.8047 12.457L9.55078 12.457L18.5273 21.6211C18.7266 21.8203 18.9961 21.9375 19.2891 21.9375C19.8984 21.9375 20.3555 21.4688 20.3555 20.8594C20.3555 20.5664 20.2383 20.3086 20.0391 20.0977L10.9688 10.8164C10.7695 10.5938 10.4766 10.4766 10.1836 10.4766C9.87891 10.4766 9.60938 10.5938 9.38672 10.8164Z" fill="black" fill-opacity="0.85"/>
  <path d="M0.316406 9.62109C0.117188 9.83203 0 10.0898 0 10.3945C0 11.0039 0.457031 11.4609 1.06641 11.4609C1.37109 11.4609 1.64062 11.3438 1.82812 11.1562L10.8047 1.98047L9.55078 1.98047L18.5273 11.1562C18.7266 11.3438 18.9961 11.4609 19.2891 11.4609C19.8984 11.4609 20.3555 11.0039 20.3555 10.3945C20.3555 10.0898 20.2383 9.83203 20.0391 9.63281L10.9688 0.339844C10.7578 0.140625 10.4766 0 10.1836 0C9.87891 0 9.60938 0.117188 9.38672 0.339844Z" fill="black" fill-opacity="0.85"/>
 </g>
</svg>
