<?xml version="1.0" encoding="UTF-8"?>
<!--Generator: Apple Native CoreSVG 360-->
<!DOCTYPE svg
PUBLIC "-//W3C//DTD SVG 1.1//EN"
       "http://www.w3.org/Graphics/SVG/1.1/DTD/svg11.dtd">
<svg version="1.1" xmlns="http://www.w3.org/2000/svg" xmlns:xlink="http://www.w3.org/1999/xlink" viewBox="0 0 19.6406 21.1758">
 <g>
  <rect height="21.1758" opacity="0" width="19.6406" x="0" y="0"/>
  <path d="M17.1328 20.0977C17.1328 20.6953 17.6133 21.1758 18.2109 21.1758C18.8086 21.1758 19.2891 20.6953 19.2891 20.0977C19.2891 19.5 18.8086 19.0195 18.2109 19.0195C17.6133 19.0195 17.1328 19.5 17.1328 20.0977ZM14.9883 17.9766C14.9883 18.5742 15.4688 19.0547 16.0664 19.0547C16.6641 19.0547 17.1445 18.5742 17.1445 17.9766C17.1445 17.3789 16.6641 16.8984 16.0664 16.8984C15.4688 16.8984 14.9883 17.3789 14.9883 17.9766ZM12.8438 15.8438C12.8438 16.4414 13.3242 16.9219 13.9219 16.9219C14.5195 16.9219 15 16.4414 15 15.8438C15 15.2461 14.5195 14.7656 13.9219 14.7656C13.3242 14.7656 12.8438 15.2461 12.8438 15.8438ZM10.7109 13.7227C10.7109 14.3203 11.1797 14.8008 11.7891 14.8008C12.3867 14.8008 12.8672 14.3203 12.8672 13.7227C12.8672 13.125 12.3867 12.6445 11.7891 12.6445C11.1797 12.6445 10.7109 13.125 10.7109 13.7227ZM8.56641 11.5898C8.56641 12.1875 9.04688 12.668 9.64453 12.668C10.2422 12.668 10.7227 12.1875 10.7227 11.5898C10.7227 10.9922 10.2422 10.5117 9.64453 10.5117C9.04688 10.5117 8.56641 10.9922 8.56641 11.5898ZM6.42188 13.7227C6.42188 14.3203 6.90234 14.8008 7.5 14.8008C8.09766 14.8008 8.57812 14.3203 8.57812 13.7227C8.57812 13.125 8.09766 12.6445 7.5 12.6445C6.90234 12.6445 6.42188 13.125 6.42188 13.7227ZM4.27734 15.8438C4.27734 16.4414 4.75781 16.9219 5.35547 16.9219C5.96484 16.9219 6.43359 16.4414 6.43359 15.8438C6.43359 15.2461 5.96484 14.7656 5.35547 14.7656C4.75781 14.7656 4.27734 15.2461 4.27734 15.8438ZM2.14453 17.9766C2.14453 18.5742 2.625 19.0547 3.22266 19.0547C3.82031 19.0547 4.30078 18.5742 4.30078 17.9766C4.30078 17.3789 3.82031 16.8984 3.22266 16.8984C2.625 16.8984 2.14453 17.3789 2.14453 17.9766ZM0 20.0977C0 20.6953 0.480469 21.1758 1.07812 21.1758C1.67578 21.1758 2.15625 20.6953 2.15625 20.0977C2.15625 19.5 1.67578 19.0195 1.07812 19.0195C0.480469 19.0195 0 19.5 0 20.0977Z" fill="black" fill-opacity="0.85"/>
  <path d="M17.1328 9.62109C17.1328 10.2188 17.6133 10.6992 18.2109 10.6992C18.8086 10.6992 19.2891 10.2188 19.2891 9.62109C19.2891 9.02344 18.8086 8.54297 18.2109 8.54297C17.6133 8.54297 17.1328 9.02344 17.1328 9.62109ZM14.9883 7.5C14.9883 8.09766 15.4688 8.57812 16.0664 8.57812C16.6641 8.57812 17.1445 8.09766 17.1445 7.5C17.1445 6.90234 16.6641 6.42188 16.0664 6.42188C15.4688 6.42188 14.9883 6.90234 14.9883 7.5ZM12.8438 5.36719C12.8438 5.96484 13.3242 6.44531 13.9219 6.44531C14.5195 6.44531 15 5.96484 15 5.36719C15 4.76953 14.5195 4.28906 13.9219 4.28906C13.3242 4.28906 12.8438 4.76953 12.8438 5.36719ZM10.7109 3.24609C10.7109 3.84375 11.1797 4.32422 11.7891 4.32422C12.3867 4.32422 12.8672 3.84375 12.8672 3.24609C12.8672 2.64844 12.3867 2.16797 11.7891 2.16797C11.1797 2.16797 10.7109 2.64844 10.7109 3.24609ZM8.56641 1.125C8.56641 1.72266 9.04688 2.20312 9.64453 2.20312C10.2422 2.20312 10.7227 1.72266 10.7227 1.125C10.7227 0.515625 10.2422 0.046875 9.64453 0.046875C9.04688 0.046875 8.56641 0.515625 8.56641 1.125ZM6.42188 3.24609C6.42188 3.84375 6.90234 4.32422 7.5 4.32422C8.09766 4.32422 8.57812 3.84375 8.57812 3.24609C8.57812 2.64844 8.09766 2.16797 7.5 2.16797C6.90234 2.16797 6.42188 2.64844 6.42188 3.24609ZM4.27734 5.36719C4.27734 5.96484 4.75781 6.44531 5.35547 6.44531C5.96484 6.44531 6.43359 5.96484 6.43359 5.36719C6.43359 4.76953 5.96484 4.28906 5.35547 4.28906C4.75781 4.28906 4.27734 4.76953 4.27734 5.36719ZM2.14453 7.5C2.14453 8.09766 2.625 8.57812 3.22266 8.57812C3.82031 8.57812 4.30078 8.09766 4.30078 7.5C4.30078 6.90234 3.82031 6.42188 3.22266 6.42188C2.625 6.42188 2.14453 6.90234 2.14453 7.5ZM0 9.62109C0 10.2188 0.480469 10.6992 1.07812 10.6992C1.67578 10.6992 2.15625 10.2188 2.15625 9.62109C2.15625 9.02344 1.67578 8.54297 1.07812 8.54297C0.480469 8.54297 0 9.02344 0 9.62109Z" fill="black" fill-opacity="0.85"/>
 </g>
</svg>
