<?xml version="1.0" encoding="UTF-8"?>
<!--Generator: Apple Native CoreSVG 360-->
<!DOCTYPE svg
PUBLIC "-//W3C//DTD SVG 1.1//EN"
       "http://www.w3.org/Graphics/SVG/1.1/DTD/svg11.dtd">
<svg version="1.1" xmlns="http://www.w3.org/2000/svg" xmlns:xlink="http://www.w3.org/1999/xlink" viewBox="0 0 6.17578 20.9648">
 <g>
  <rect height="20.9648" opacity="0" width="6.17578" x="0" y="0"/>
  <path d="M3.60938 20.1445C3.78516 20.6016 4.18359 20.8945 4.60547 20.8945C5.29688 20.8945 5.82422 20.3906 5.82422 19.6992C5.82422 19.3477 5.625 18.8906 5.50781 18.5859L1.98047 9.60938L1.98047 11.2734L5.50781 2.29688C5.625 1.99219 5.82422 1.52344 5.82422 1.18359C5.82422 0.503906 5.29688 0 4.60547 0C4.18359 0 3.78516 0.28125 3.60938 0.738281L0.46875 8.73047C0.257812 9.26953 0 9.92578 0 10.4414C0 10.957 0.257812 11.6133 0.46875 12.1523Z" fill="black" fill-opacity="0.85"/>
 </g>
</svg>
