<?xml version="1.0" encoding="UTF-8"?>
<!--Generator: Apple Native CoreSVG 360-->
<!DOCTYPE svg
PUBLIC "-//W3C//DTD SVG 1.1//EN"
       "http://www.w3.org/Graphics/SVG/1.1/DTD/svg11.dtd">
<svg version="1.1" xmlns="http://www.w3.org/2000/svg" xmlns:xlink="http://www.w3.org/1999/xlink" viewBox="0 0 21.2461 15.9961">
 <g>
  <rect height="15.9961" opacity="0" width="21.2461" x="0" y="0"/>
  <path d="M0.738281 12.375L8.74219 15.5156C9.28125 15.7266 9.92578 15.9844 10.4531 15.9844C10.9688 15.9844 11.625 15.7266 12.1641 15.5156L20.1562 12.375C20.6133 12.1992 20.8945 11.8008 20.8945 11.3672C20.8945 10.6758 20.3906 10.1602 19.7109 10.1602C19.3594 10.1602 18.8906 10.3594 18.5977 10.4648L9.62109 13.9922L11.2734 13.9922L2.29688 10.4648C2.00391 10.3594 1.54688 10.1602 1.18359 10.1602C0.503906 10.1602 0 10.6758 0 11.3672C0 11.8008 0.292969 12.1992 0.738281 12.375ZM0.738281 3.60938C0.292969 3.78516 0 4.18359 0 4.61719C0 5.30859 0.503906 5.82422 1.18359 5.82422C1.54688 5.82422 2.00391 5.625 2.29688 5.51953L11.2734 1.99219L9.62109 1.99219L18.5977 5.51953C18.8906 5.625 19.3594 5.82422 19.7109 5.82422C20.3906 5.82422 20.8945 5.30859 20.8945 4.61719C20.8945 4.18359 20.6133 3.78516 20.1562 3.60938L12.1641 0.46875C11.625 0.257812 10.9688 0 10.4531 0C9.92578 0 9.28125 0.257812 8.74219 0.46875Z" fill="black" fill-opacity="0.85"/>
 </g>
</svg>
