<?xml version="1.0" encoding="UTF-8"?>
<!--Generator: Apple Native CoreSVG 360-->
<!DOCTYPE svg
PUBLIC "-//W3C//DTD SVG 1.1//EN"
       "http://www.w3.org/Graphics/SVG/1.1/DTD/svg11.dtd">
<svg version="1.1" xmlns="http://www.w3.org/2000/svg" xmlns:xlink="http://www.w3.org/1999/xlink" viewBox="0 0 28.582 23.5195">
 <g>
  <rect height="23.5195" opacity="0" width="28.582" x="0" y="0"/>
  <path d="M28.2305 14.1094C28.2305 10.6641 26.9883 7.48828 24.9141 5.02734C24.6797 4.74609 24.2812 4.74609 24.0234 5.01562L21.3047 7.73438C21.082 7.95703 21.0703 8.27344 21.2695 8.51953C22.4766 10.0664 23.2031 12.0117 23.2031 14.1094C23.2031 16.2188 22.4766 18.1641 21.1992 19.793C21.0352 19.9922 21.0469 20.25 21.2227 20.4375L24.0117 23.2266C24.2812 23.4961 24.668 23.4961 24.9141 23.2031C26.9883 20.7422 28.2305 17.5664 28.2305 14.1094Z" fill="black" fill-opacity="0.85"/>
  <path d="M14.1094 5.02734C16.2305 5.02734 18.1758 5.76562 19.7344 6.97266C19.9688 7.16016 20.2734 7.13672 20.4961 6.91406L23.2148 4.19531C23.4844 3.92578 23.4727 3.53906 23.1914 3.30469C20.7422 1.24219 17.5664 0 14.1094 0C10.6641 0 7.48828 1.24219 5.03906 3.30469C4.75781 3.53906 4.74609 3.92578 5.01562 4.19531L7.73438 6.91406C7.95703 7.13672 8.27344 7.16016 8.53125 6.96094C10.0781 5.76562 12.0117 5.02734 14.1094 5.02734Z" fill="black" fill-opacity="0.85"/>
  <path d="M0 14.1094C0 17.5664 1.24219 20.7422 3.31641 23.2031C3.55078 23.4961 3.94922 23.4961 4.20703 23.2266L6.99609 20.4375C7.17188 20.25 7.19531 19.9922 7.03125 19.793C5.75391 18.1641 5.02734 16.2188 5.02734 14.1094C5.02734 12.0117 5.74219 10.0664 6.96094 8.51953C7.14844 8.27344 7.14844 7.95703 6.92578 7.73438L4.20703 5.01562C3.9375 4.74609 3.55078 4.74609 3.31641 5.02734C1.24219 7.48828 0 10.6641 0 14.1094Z" fill="black" fill-opacity="0.85"/>
  <path d="M14.0977 19.7578C14.5078 19.7578 14.7773 19.4766 14.7773 19.0547L14.7773 15.2227L18.1172 9.84375C18.2227 9.66797 18.2578 9.58594 18.2578 9.39844C18.2578 9.02344 17.9648 8.77734 17.5898 8.77734C17.332 8.77734 17.1211 8.91797 16.9688 9.16406L14.1328 13.9805L14.0859 13.9805L11.25 9.16406C11.0977 8.91797 10.9336 8.76562 10.6172 8.76562C10.2422 8.76562 9.94922 9.01172 9.94922 9.39844C9.94922 9.52734 9.98438 9.67969 10.0898 9.85547L13.4297 15.2227L13.4297 19.0547C13.4297 19.4766 13.6992 19.7578 14.0977 19.7578ZM10.7344 14.9531C10.7344 15.1758 10.9102 15.3516 11.1328 15.3516L17.0977 15.3516C17.3203 15.3516 17.4961 15.1758 17.4961 14.9531C17.4961 14.7305 17.3203 14.5547 17.0977 14.5547L11.1328 14.5547C10.9102 14.5547 10.7344 14.7305 10.7344 14.9531ZM10.7344 16.9805C10.7344 17.2031 10.9102 17.3789 11.1328 17.3789L17.0977 17.3789C17.3203 17.3789 17.4961 17.2031 17.4961 16.9805C17.4961 16.7578 17.3203 16.582 17.0977 16.582L11.1328 16.582C10.9102 16.582 10.7344 16.7578 10.7344 16.9805Z" fill="black" fill-opacity="0.85"/>
 </g>
</svg>
