<?xml version="1.0" encoding="UTF-8"?>
<!--Generator: Apple Native CoreSVG 360-->
<!DOCTYPE svg
PUBLIC "-//W3C//DTD SVG 1.1//EN"
       "http://www.w3.org/Graphics/SVG/1.1/DTD/svg11.dtd">
<svg version="1.1" xmlns="http://www.w3.org/2000/svg" xmlns:xlink="http://www.w3.org/1999/xlink" viewBox="0 0 26.5195 25.0195">
 <g>
  <rect height="25.0195" opacity="0" width="26.5195" x="0" y="0"/>
  <path d="M1.55859 22.2188L24.6094 22.2188L24.6094 21.4336C24.6094 20.9648 24.3398 20.6836 23.8594 20.6836L23.1094 20.6836L23.1094 8.03906L24.1406 8.03906C24.7852 8.03906 25.1602 7.57031 25.1602 7.08984C25.1602 6.73828 24.9609 6.43359 24.5273 6.1875L14.5195 0.410156C14.0508 0.140625 13.5586 0 13.0781 0C12.5977 0 12.0938 0.140625 11.6484 0.410156L1.64062 6.1875C1.19531 6.43359 1.00781 6.73828 1.00781 7.08984C1.00781 7.57031 1.38281 8.03906 2.02734 8.03906L3.05859 8.03906L3.05859 20.6836L2.32031 20.6836C1.83984 20.6836 1.55859 20.9648 1.55859 21.4336ZM4.82812 20.6836L4.82812 6.53906L12.6211 2.16797C12.7617 2.08594 12.9258 2.03906 13.0781 2.03906C13.2305 2.03906 13.3945 2.08594 13.5469 2.16797L21.3398 6.53906L21.3398 20.6836ZM0.9375 25.0078L25.2188 25.0078C25.7344 25.0078 26.168 24.5742 26.168 24.0586C26.168 23.543 25.7344 23.1211 25.2188 23.1211L0.9375 23.1211C0.421875 23.1211 0 23.543 0 24.0586C0 24.5742 0.421875 25.0078 0.9375 25.0078Z" fill="black" fill-opacity="0.85"/>
  <path d="M13.0898 17.8242C13.4883 17.8242 13.7695 17.543 13.7695 17.1211L13.7695 13.2891L17.1094 7.91016C17.2148 7.73438 17.25 7.65234 17.25 7.46484C17.25 7.08984 16.9453 6.84375 16.5703 6.84375C16.3242 6.84375 16.1016 6.97266 15.9609 7.23047L13.125 12.0469L13.0664 12.0469L10.2305 7.23047C10.0898 6.97266 9.91406 6.83203 9.60938 6.83203C9.22266 6.83203 8.92969 7.07812 8.92969 7.46484C8.92969 7.59375 8.97656 7.74609 9.08203 7.92188L12.4102 13.2891L12.4102 17.1211C12.4102 17.543 12.6914 17.8242 13.0898 17.8242ZM9.72656 13.0195C9.72656 13.2422 9.90234 13.418 10.125 13.418L16.0898 13.418C16.3125 13.418 16.4883 13.2422 16.4883 13.0195C16.4883 12.7969 16.3125 12.6211 16.0898 12.6211L10.125 12.6211C9.90234 12.6211 9.72656 12.7969 9.72656 13.0195ZM9.72656 15.0469C9.72656 15.2695 9.90234 15.4453 10.125 15.4453L16.0898 15.4453C16.3125 15.4453 16.4883 15.2695 16.4883 15.0469C16.4883 14.8242 16.3125 14.6484 16.0898 14.6484L10.125 14.6484C9.90234 14.6484 9.72656 14.8242 9.72656 15.0469Z" fill="black" fill-opacity="0.85"/>
 </g>
</svg>
