<?xml version="1.0" encoding="UTF-8"?>
<!--Generator: Apple Native CoreSVG 360-->
<!DOCTYPE svg
PUBLIC "-//W3C//DTD SVG 1.1//EN"
       "http://www.w3.org/Graphics/SVG/1.1/DTD/svg11.dtd">
<svg version="1.1" xmlns="http://www.w3.org/2000/svg" xmlns:xlink="http://www.w3.org/1999/xlink" viewBox="0 0 27.9844 21.5977">
 <g>
  <rect height="21.5977" opacity="0" width="27.9844" x="0" y="0"/>
  <path d="M3.67969 21.5977L23.9531 21.5977C26.4141 21.5977 27.6328 20.3789 27.6328 17.9648L27.6328 3.65625C27.6328 1.24219 26.4141 0.0234375 23.9531 0.0234375L3.67969 0.0234375C1.23047 0.0234375 0 1.23047 0 3.65625L0 17.9648C0 20.3906 1.23047 21.5977 3.67969 21.5977ZM3.70312 19.7109C2.53125 19.7109 1.88672 19.0898 1.88672 17.8711L1.88672 3.75C1.88672 2.53125 2.53125 1.91016 3.70312 1.91016L23.9297 1.91016C25.0898 1.91016 25.7461 2.53125 25.7461 3.75L25.7461 17.8711C25.7461 19.0898 25.0898 19.7109 23.9297 19.7109Z" fill="black" fill-opacity="0.85"/>
  <path d="M13.8164 16.6172C17.0156 16.6172 19.6406 14.0156 19.6406 10.793C19.6406 7.59375 17.0156 4.99219 13.8164 4.99219C10.6172 4.99219 8.00391 7.59375 8.00391 10.793C8.00391 14.0156 10.6172 16.6172 13.8164 16.6172Z" fill="black" fill-opacity="0.85"/>
 </g>
</svg>
