<?xml version="1.0" encoding="UTF-8"?>
<!--Generator: Apple Native CoreSVG 360-->
<!DOCTYPE svg
PUBLIC "-//W3C//DTD SVG 1.1//EN"
       "http://www.w3.org/Graphics/SVG/1.1/DTD/svg11.dtd">
<svg version="1.1" xmlns="http://www.w3.org/2000/svg" xmlns:xlink="http://www.w3.org/1999/xlink" viewBox="0 0 24.2578 23.918">
 <g>
  <rect height="23.918" opacity="0" width="24.2578" x="0" y="0"/>
  <path d="M1.23047 11.9531C1.23047 17.9766 5.92969 22.6641 11.9414 22.6641L11.9414 1.23047C5.92969 1.23047 1.23047 5.92969 1.23047 11.9531ZM11.3438 2.42578L15.5156 2.42578L15.5156 0.890625L11.3438 0.890625ZM11.3438 4.94531L19.8281 4.94531L19.8281 3.64453L11.3438 3.64453ZM11.3438 7.45312L21.5039 7.45312L21.5039 6.15234L11.3438 6.15234ZM11.3438 9.97266L22.7578 9.97266L22.7578 8.67188L11.3438 8.67188ZM11.3438 12.4805L22.7578 12.4805L22.7578 11.1797L11.3438 11.1797ZM11.3438 15L22.7578 15L22.7578 13.6992L11.3438 13.6992ZM11.3438 17.5195L21.5039 17.5195L21.5039 16.2188L11.3438 16.2188ZM11.3438 20.2617L19.8281 20.2617L19.8281 18.7266L11.3438 18.7266ZM11.3438 23.0156L15.5156 23.0156L15.5156 21.4805L11.3438 21.4805ZM11.9531 23.9062C18.5508 23.9062 23.9062 18.5508 23.9062 11.9531C23.9062 5.35547 18.5508 0 11.9531 0C5.35547 0 0 5.35547 0 11.9531C0 18.5508 5.35547 23.9062 11.9531 23.9062ZM11.9531 21.9141C6.44531 21.9141 1.99219 17.4609 1.99219 11.9531C1.99219 6.44531 6.44531 1.99219 11.9531 1.99219C17.4609 1.99219 21.9141 6.44531 21.9141 11.9531C21.9141 17.4609 17.4609 21.9141 11.9531 21.9141Z" fill="black" fill-opacity="0.85"/>
 </g>
</svg>
