<?xml version="1.0" encoding="UTF-8"?>
<!--Generator: Apple Native CoreSVG 360-->
<!DOCTYPE svg
PUBLIC "-//W3C//DTD SVG 1.1//EN"
       "http://www.w3.org/Graphics/SVG/1.1/DTD/svg11.dtd">
<svg version="1.1" xmlns="http://www.w3.org/2000/svg" xmlns:xlink="http://www.w3.org/1999/xlink" viewBox="0 0 24.2578 23.918">
 <g>
  <rect height="23.918" opacity="0" width="24.2578" x="0" y="0"/>
  <path d="M16.7109 15.1289L16.7109 16.7227ZM18.293 5.61328L18.293 7.19531L19.8867 7.19531L19.8867 5.61328ZM16.7109 7.19531L16.7109 8.77734L18.293 8.77734L18.293 7.19531ZM15.1172 8.77734L15.1172 10.3711L16.7109 10.3711L16.7109 8.77734ZM13.5352 10.3711L13.5352 11.9531L15.1172 11.9531L15.1172 10.3711ZM11.9531 11.9531L11.9531 13.5469L13.5352 13.5469L13.5352 11.9531ZM10.3594 13.5469L10.3594 15.1289L11.9531 15.1289L11.9531 13.5469ZM8.77734 15.1289L8.77734 16.7227L10.3594 16.7227L10.3594 15.1289ZM7.18359 16.7227L7.18359 18.3047L8.77734 18.3047L8.77734 16.7227ZM5.60156 18.3047L5.60156 19.8984L7.18359 19.8984L7.18359 18.3047ZM7.18359 21.2344L7.48828 21.4805L8.77734 21.4805L8.77734 19.8984L7.18359 19.8984ZM8.77734 18.3047L8.77734 19.8984L10.3594 19.8984L10.3594 18.3047ZM10.3594 16.7227L10.3594 18.3047L11.9531 18.3047L11.9531 16.7227ZM11.9531 15.1289L11.9531 16.7227L13.5352 16.7227L13.5352 15.1289ZM13.5352 13.5469L13.5352 15.1289L15.1172 15.1289L15.1172 13.5469ZM15.1172 11.9531L15.1172 13.5469L16.7109 13.5469L16.7109 11.9531ZM16.7109 10.3711L16.7109 11.9531L18.293 11.9531L18.293 10.3711ZM18.293 8.77734L18.293 10.3711L19.8867 10.3711L19.8867 8.77734ZM21.4688 8.75391L21.4688 10.3711L22.8281 10.3711L22.8281 8.75391ZM19.8867 10.3711L19.8867 11.9531L21.4688 11.9531L21.4688 10.3711ZM18.293 11.9531L18.293 13.5469L19.8867 13.5469L19.8867 11.9531ZM16.7109 13.5469L16.7109 15.1289L18.293 15.1289L18.293 13.5469ZM15.1172 15.1289L15.1172 16.7227L16.7109 16.7227L16.7109 15.1289ZM13.5352 16.7227L13.5352 18.3047L15.1172 18.3047L15.1172 16.7227ZM11.9531 18.3047L11.9531 19.8984L13.5352 19.8984L13.5352 18.3047ZM10.3594 19.8984L10.3594 21.4805L11.9531 21.4805L11.9531 19.8984ZM8.74219 21.4805L8.74219 22.8281L10.3594 22.8281L10.3594 21.4805ZM11.9531 21.4805L11.9531 22.8984L13.5352 22.8984L13.5352 21.4805ZM13.5352 19.8984L13.5352 21.4805L15.1172 21.4805L15.1172 19.8984ZM15.1172 18.3047L15.1172 19.8984L16.7109 19.8984L16.7109 18.3047ZM16.7109 16.7227L16.7109 18.3047L18.293 18.3047L18.293 16.7227ZM18.293 15.1289L18.293 16.7227L19.8867 16.7227L19.8867 15.1289ZM19.8867 13.5469L19.8867 15.1289L21.4688 15.1289L21.4688 13.5469ZM21.4688 11.9531L21.4688 13.5469L22.8867 13.5469L22.8867 11.9531ZM19.8867 16.7227L19.8867 18.3047L21.1758 18.3047L21.4219 16.7227ZM18.293 18.3047L18.293 19.8984L19.6406 19.8984L19.8867 19.6641L19.8867 18.3047ZM16.7109 19.8984L16.7109 21.4336L18.293 21.1992L18.293 19.8984ZM21.4688 7.61719L21.082 7.19531L19.8867 7.19531L19.8867 8.77734L21.4688 8.77734ZM11.9531 23.9062C18.5508 23.9062 23.9062 18.5508 23.9062 11.9531C23.9062 5.35547 18.5508 0 11.9531 0C5.35547 0 0 5.35547 0 11.9531C0 18.5508 5.35547 23.9062 11.9531 23.9062ZM11.9531 21.9141C6.44531 21.9141 1.99219 17.4609 1.99219 11.9531C1.99219 6.44531 6.44531 1.99219 11.9531 1.99219C17.4609 1.99219 21.9141 6.44531 21.9141 11.9531C21.9141 17.4609 17.4609 21.9141 11.9531 21.9141Z" fill="black" fill-opacity="0.85"/>
 </g>
</svg>
