<?xml version="1.0" encoding="UTF-8"?>
<!--Generator: Apple Native CoreSVG 360-->
<!DOCTYPE svg
PUBLIC "-//W3C//DTD SVG 1.1//EN"
       "http://www.w3.org/Graphics/SVG/1.1/DTD/svg11.dtd">
<svg version="1.1" xmlns="http://www.w3.org/2000/svg" xmlns:xlink="http://www.w3.org/1999/xlink" viewBox="0 0 33.1875 23.918">
 <g>
  <rect height="23.918" opacity="0" width="33.1875" x="0" y="0"/>
  <path d="M4.47656 11.9531L4.52386 12.8906L0.902344 12.8906C0.410156 12.8906 0 12.457 0 11.9531C0 11.4492 0.410156 11.0273 0.902344 11.0273L4.52327 11.0273ZM26.3906 11.9531L26.3434 12.8906L6.50438 12.8906C6.47178 12.5827 6.45703 12.2697 6.45703 11.9531C6.45703 11.6405 6.47141 11.3314 6.50378 11.0273L26.344 11.0273ZM32.8359 11.9531C32.8359 12.457 32.4258 12.8906 31.9336 12.8906L28.3354 12.8906C28.3705 12.5832 28.3828 12.2696 28.3828 11.9531C28.3828 11.6406 28.3708 11.3309 28.336 11.0273L31.9336 11.0273C32.4258 11.0273 32.8359 11.4492 32.8359 11.9531Z" fill="black" fill-opacity="0.85"/>
  <path d="M16.4297 23.9062C23.0273 23.9062 28.3828 18.5508 28.3828 11.9531C28.3828 5.35547 23.0273 0 16.4297 0C9.82031 0 4.47656 5.35547 4.47656 11.9531C4.47656 18.5508 9.82031 23.9062 16.4297 23.9062ZM16.4297 21.9141C10.9219 21.9141 6.45703 17.4609 6.45703 11.9531C6.45703 6.44531 10.9219 1.99219 16.4297 1.99219C21.9375 1.99219 26.3906 6.44531 26.3906 11.9531C26.3906 17.4609 21.9375 21.9141 16.4297 21.9141Z" fill="black" fill-opacity="0.85"/>
 </g>
</svg>
