<?xml version="1.0" encoding="UTF-8"?>
<!--Generator: Apple Native CoreSVG 360-->
<!DOCTYPE svg
PUBLIC "-//W3C//DTD SVG 1.1//EN"
       "http://www.w3.org/Graphics/SVG/1.1/DTD/svg11.dtd">
<svg version="1.1" xmlns="http://www.w3.org/2000/svg" xmlns:xlink="http://www.w3.org/1999/xlink" viewBox="0 0 33.3984 23.918">
 <g>
  <rect height="23.918" opacity="0" width="33.3984" x="0" y="0"/>
  <path d="M12.9375 22.8164C12.9375 23.3672 12.4805 23.8242 11.9297 23.8242C11.3789 23.8242 10.9219 23.3672 10.9219 22.8164C10.9219 22.2656 11.3789 21.8086 11.9297 21.8086C12.4805 21.8086 12.9375 22.2656 12.9375 22.8164ZM16.1239 22.8127C15.9433 23.0889 15.6312 23.2734 15.2812 23.2734C14.7305 23.2734 14.2734 22.8164 14.2734 22.2656C14.2734 22.1119 14.3091 21.9654 14.3734 21.8347C14.9228 22.212 15.5066 22.5426 16.1239 22.8127ZM9.58594 22.2656C9.58594 22.8164 9.12891 23.2734 8.57812 23.2734C8.01562 23.2734 7.57031 22.8164 7.57031 22.2656C7.57031 21.7148 8.01562 21.2578 8.57812 21.2578C9.12891 21.2578 9.58594 21.7148 9.58594 22.2656ZM6.53906 20.7305C6.53906 21.2812 6.08203 21.7383 5.53125 21.7383C4.96875 21.7383 4.52344 21.2812 4.52344 20.7305C4.52344 20.1797 4.96875 19.7227 5.53125 19.7227C6.08203 19.7227 6.53906 20.1797 6.53906 20.7305ZM19.3359 20.7305C19.3359 21.1223 19.1046 21.4667 18.7723 21.6318C18.3143 21.5337 17.8725 21.3945 17.4492 21.2183C17.3671 21.0734 17.3203 20.9067 17.3203 20.7305C17.3203 20.1797 17.7773 19.7227 18.3281 19.7227C18.8789 19.7227 19.3359 20.1797 19.3359 20.7305ZM21.7383 18.3281C21.7383 18.8789 21.2812 19.3359 20.7305 19.3359C20.1797 19.3359 19.7227 18.8789 19.7227 18.3281C19.7227 17.7773 20.1797 17.3203 20.7305 17.3203C21.2812 17.3203 21.7383 17.7773 21.7383 18.3281ZM4.125 18.3281C4.125 18.8789 3.66797 19.3359 3.11719 19.3359C2.56641 19.3359 2.10938 18.8789 2.10938 18.3281C2.10938 17.7773 2.56641 17.3203 3.11719 17.3203C3.66797 17.3203 4.125 17.7773 4.125 18.3281ZM23.2734 15.3164C23.2734 15.8672 22.8164 16.3242 22.2656 16.3242C21.7148 16.3242 21.2578 15.8672 21.2578 15.3164C21.2578 14.7656 21.7148 14.3086 22.2656 14.3086C22.8164 14.3086 23.2734 14.7656 23.2734 15.3164ZM2.58984 15.3164C2.58984 15.8672 2.13281 16.3242 1.58203 16.3242C1.03125 16.3242 0.574219 15.8672 0.574219 15.3164C0.574219 14.7656 1.03125 14.3086 1.58203 14.3086C2.13281 14.3086 2.58984 14.7656 2.58984 15.3164ZM23.8477 11.9531C23.8477 12.5039 23.3906 12.9609 22.8398 12.9609C22.2891 12.9609 21.832 12.5039 21.832 11.9531C21.832 11.4023 22.2891 10.9453 22.8398 10.9453C23.3906 10.9453 23.8477 11.4023 23.8477 11.9531ZM2.01562 11.9531C2.01562 12.5039 1.55859 12.9609 1.00781 12.9609C0.457031 12.9609 0 12.5039 0 11.9531C0 11.4023 0.457031 10.9453 1.00781 10.9453C1.55859 10.9453 2.01562 11.4023 2.01562 11.9531ZM23.2734 8.58984C23.2734 9.14062 22.8164 9.59766 22.2656 9.59766C21.7148 9.59766 21.2578 9.14062 21.2578 8.58984C21.2578 8.03906 21.7148 7.58203 22.2656 7.58203C22.8164 7.58203 23.2734 8.03906 23.2734 8.58984ZM2.58984 8.58984C2.58984 9.14062 2.13281 9.59766 1.58203 9.59766C1.03125 9.59766 0.574219 9.14062 0.574219 8.58984C0.574219 8.03906 1.03125 7.58203 1.58203 7.58203C2.13281 7.58203 2.58984 8.03906 2.58984 8.58984ZM21.7383 5.58984C21.7383 6.14062 21.2812 6.59766 20.7305 6.59766C20.1797 6.59766 19.7227 6.14062 19.7227 5.58984C19.7227 5.03906 20.1797 4.58203 20.7305 4.58203C21.2812 4.58203 21.7383 5.03906 21.7383 5.58984ZM4.125 5.58984C4.125 6.14062 3.66797 6.59766 3.11719 6.59766C2.56641 6.59766 2.10938 6.14062 2.10938 5.58984C2.10938 5.03906 2.56641 4.58203 3.11719 4.58203C3.66797 4.58203 4.125 5.03906 4.125 5.58984ZM19.3359 3.17578C19.3359 3.72656 18.8789 4.18359 18.3281 4.18359C17.7773 4.18359 17.3203 3.72656 17.3203 3.17578C17.3203 2.99952 17.3671 2.83286 17.4492 2.68798C17.8725 2.51179 18.3143 2.37252 18.7723 2.2744C19.1046 2.43956 19.3359 2.78395 19.3359 3.17578ZM6.53906 3.17578C6.53906 3.72656 6.08203 4.18359 5.53125 4.18359C4.96875 4.18359 4.52344 3.72656 4.52344 3.17578C4.52344 2.625 4.96875 2.16797 5.53125 2.16797C6.08203 2.16797 6.53906 2.625 6.53906 3.17578ZM9.58594 1.64062C9.58594 2.19141 9.12891 2.64844 8.57812 2.64844C8.01562 2.64844 7.57031 2.19141 7.57031 1.64062C7.57031 1.08984 8.01562 0.632812 8.57812 0.632812C9.12891 0.632812 9.58594 1.08984 9.58594 1.64062ZM12.9375 1.08984C12.9375 1.64062 12.4805 2.09766 11.9297 2.09766C11.3789 2.09766 10.9219 1.64062 10.9219 1.08984C10.9219 0.539062 11.3789 0.0820312 11.9297 0.0820312C12.4805 0.0820312 12.9375 0.539062 12.9375 1.08984ZM16.1239 1.09354C15.5066 1.36364 14.9228 1.69429 14.3734 2.07153C14.3091 1.94085 14.2734 1.79439 14.2734 1.64062C14.2734 1.08984 14.7305 0.632812 15.2812 0.632812C15.6312 0.632812 15.9433 0.817335 16.1239 1.09354Z" fill="black" fill-opacity="0.85"/>
  <path d="M21.0938 23.9062C27.6914 23.9062 33.0469 18.5508 33.0469 11.9531C33.0469 5.35547 27.6914 0 21.0938 0C14.4961 0 9.14062 5.35547 9.14062 11.9531C9.14062 18.5508 14.4961 23.9062 21.0938 23.9062ZM21.0938 21.9141C15.5859 21.9141 11.1328 17.4609 11.1328 11.9531C11.1328 6.44531 15.5859 1.99219 21.0938 1.99219C26.6016 1.99219 31.0547 6.44531 31.0547 11.9531C31.0547 17.4609 26.6016 21.9141 21.0938 21.9141Z" fill="black" fill-opacity="0.85"/>
 </g>
</svg>
