<?xml version="1.0" encoding="UTF-8"?>
<!--Generator: Apple Native CoreSVG 360-->
<!DOCTYPE svg
PUBLIC "-//W3C//DTD SVG 1.1//EN"
       "http://www.w3.org/Graphics/SVG/1.1/DTD/svg11.dtd">
<svg version="1.1" xmlns="http://www.w3.org/2000/svg" xmlns:xlink="http://www.w3.org/1999/xlink" viewBox="0 0 25.3945 23.2383">
 <g>
  <rect height="23.2383" opacity="0" width="25.3945" x="0" y="0"/>
  <path d="M16.8281 23.2383C18.9961 23.2383 20.7422 21.4805 20.7422 19.3242C20.7422 17.1562 18.9961 15.3984 16.8281 15.3984C14.6602 15.3984 12.9141 17.1562 12.9141 19.3242C12.9141 21.4805 14.6602 23.2383 16.8281 23.2383ZM16.8281 21.3516C15.7148 21.3516 14.8008 20.4375 14.8008 19.3242C14.8008 18.1992 15.7148 17.2852 16.8281 17.2852C17.9531 17.2852 18.8555 18.1992 18.8555 19.3242C18.8555 20.4375 17.9531 21.3516 16.8281 21.3516Z" fill="black" fill-opacity="0.85"/>
  <path d="M8.21484 23.2383C10.3828 23.2383 12.1289 21.4805 12.1289 19.3242C12.1289 17.1562 10.3828 15.3984 8.21484 15.3984C6.04688 15.3984 4.30078 17.1562 4.30078 19.3242C4.30078 21.4805 6.04688 23.2383 8.21484 23.2383ZM8.21484 21.3516C7.10156 21.3516 6.1875 20.4375 6.1875 19.3242C6.1875 18.1992 7.10156 17.2852 8.21484 17.2852C9.32812 17.2852 10.2422 18.1992 10.2422 19.3242C10.2422 20.4375 9.32812 21.3516 8.21484 21.3516Z" fill="black" fill-opacity="0.85"/>
  <path d="M21.1289 15.5273C23.2969 15.5273 25.043 13.7812 25.043 11.6133C25.043 9.44531 23.2969 7.69922 21.1289 7.69922C18.9609 7.69922 17.2031 9.44531 17.2031 11.6133C17.2031 13.7812 18.9609 15.5273 21.1289 15.5273ZM21.1289 13.6406C20.0039 13.6406 19.0898 12.7266 19.0898 11.6133C19.0898 10.4883 20.0039 9.58594 21.1289 9.58594C22.2422 9.58594 23.1562 10.4883 23.1562 11.6133C23.1562 12.7266 22.2422 13.6406 21.1289 13.6406Z" fill="black" fill-opacity="0.85"/>
  <path d="M3.91406 15.5273C6.08203 15.5273 7.83984 13.7812 7.83984 11.6133C7.83984 9.44531 6.08203 7.69922 3.91406 7.69922C1.75781 7.69922 0 9.44531 0 11.6133C0 13.7812 1.75781 15.5273 3.91406 15.5273ZM3.91406 13.6406C2.80078 13.6406 1.88672 12.7266 1.88672 11.6133C1.88672 10.4883 2.80078 9.58594 3.91406 9.58594C5.03906 9.58594 5.95312 10.4883 5.95312 11.6133C5.95312 12.7266 5.03906 13.6406 3.91406 13.6406Z" fill="black" fill-opacity="0.85"/>
  <path d="M16.8281 7.82812C18.9961 7.82812 20.7422 6.08203 20.7422 3.91406C20.7422 1.74609 18.9961 0 16.8281 0C14.6602 0 12.9141 1.74609 12.9141 3.91406C12.9141 6.08203 14.6602 7.82812 16.8281 7.82812ZM16.8281 5.94141C15.7148 5.94141 14.8008 5.03906 14.8008 3.91406C14.8008 2.80078 15.7148 1.88672 16.8281 1.88672C17.9531 1.88672 18.8555 2.80078 18.8555 3.91406C18.8555 5.03906 17.9531 5.94141 16.8281 5.94141Z" fill="black" fill-opacity="0.85"/>
  <path d="M8.21484 7.82812C10.3828 7.82812 12.1289 6.08203 12.1289 3.91406C12.1289 1.74609 10.3828 0 8.21484 0C6.04688 0 4.30078 1.74609 4.30078 3.91406C4.30078 6.08203 6.04688 7.82812 8.21484 7.82812ZM8.21484 5.94141C7.10156 5.94141 6.1875 5.03906 6.1875 3.91406C6.1875 2.80078 7.10156 1.88672 8.21484 1.88672C9.32812 1.88672 10.2422 2.80078 10.2422 3.91406C10.2422 5.03906 9.32812 5.94141 8.21484 5.94141Z" fill="black" fill-opacity="0.85"/>
 </g>
</svg>
