<?xml version="1.0" encoding="UTF-8"?>
<!--Generator: Apple Native CoreSVG 360-->
<!DOCTYPE svg
PUBLIC "-//W3C//DTD SVG 1.1//EN"
       "http://www.w3.org/Graphics/SVG/1.1/DTD/svg11.dtd">
<svg version="1.1" xmlns="http://www.w3.org/2000/svg" xmlns:xlink="http://www.w3.org/1999/xlink" viewBox="0 0 24.2578 23.918">
 <g>
  <rect height="23.918" opacity="0" width="24.2578" x="0" y="0"/>
  <path d="M11.9648 0.585938C10.9688 0.855469 9.98438 1.19531 9.03516 1.59375L11.9648 1.59375ZM11.9648 2.42578L6.43359 2.42578C6.24609 2.80078 6.07031 3.21094 5.91797 3.64453L11.9648 3.64453ZM11.9648 4.94531L3.57422 4.94531C3.46875 5.33203 3.375 5.74219 3.29297 6.15234L11.9648 6.15234ZM11.9648 7.45312L1.59375 7.45312C1.53516 7.85156 1.48828 8.26172 1.45312 8.67188L11.9648 8.67188ZM11.9648 9.97266L1.41797 9.97266C1.39453 10.3711 1.38281 10.7812 1.37109 11.1797L11.9648 11.1797ZM11.9648 12.4805L1.37109 12.4805C1.38281 12.8906 1.39453 13.3008 1.41797 13.6992L11.9648 13.6992ZM11.9648 15L1.45312 15C1.48828 15.4102 1.53516 15.8086 1.59375 16.2188L11.9648 16.2188ZM11.9648 17.5195L3.29297 17.5195C3.375 17.9297 3.46875 18.3398 3.57422 18.7266L11.9648 18.7266ZM11.9648 20.2617L5.91797 20.2617C6.07031 20.6953 6.24609 21.0938 6.43359 21.4805L11.9648 21.4805ZM11.9648 22.3125L9.03516 22.3125C9.98438 22.7109 10.9688 23.0391 11.9648 23.3086ZM11.9531 23.9062C18.5508 23.9062 23.9062 18.5508 23.9062 11.9531C23.9062 5.35547 18.5508 0 11.9531 0C5.35547 0 0 5.35547 0 11.9531C0 18.5508 5.35547 23.9062 11.9531 23.9062ZM11.9531 21.9141C6.44531 21.9141 1.99219 17.4609 1.99219 11.9531C1.99219 6.44531 6.44531 1.99219 11.9531 1.99219C17.4609 1.99219 21.9141 6.44531 21.9141 11.9531C21.9141 17.4609 17.4609 21.9141 11.9531 21.9141Z" fill="black" fill-opacity="0.85"/>
 </g>
</svg>
