<?xml version="1.0" encoding="UTF-8"?>
<!--Generator: Apple Native CoreSVG 360-->
<!DOCTYPE svg
PUBLIC "-//W3C//DTD SVG 1.1//EN"
       "http://www.w3.org/Graphics/SVG/1.1/DTD/svg11.dtd">
<svg version="1.1" xmlns="http://www.w3.org/2000/svg" xmlns:xlink="http://www.w3.org/1999/xlink" viewBox="0 0 27.9844 21.5742">
 <g>
  <rect height="21.5742" opacity="0" width="27.9844" x="0" y="0"/>
  <path d="M27.6328 3.63281L27.6328 17.9531C27.6328 20.3672 26.4141 21.5742 23.9531 21.5742L3.67969 21.5742C1.23047 21.5742 0 20.3672 0 17.9531L0 3.63281C0 1.21875 1.23047 0 3.67969 0L23.9531 0C26.4141 0 27.6328 1.21875 27.6328 3.63281ZM19.4766 1.88672L16.4865 4.87677C15.8852 4.59268 15.2308 4.40428 14.5423 4.32728L16.9892 1.88672L10.5938 1.88672L1.88672 10.5937L1.88672 16.9922L7.2946 11.5843C7.37227 12.2701 7.56038 12.9215 7.8432 13.5199L2.249 19.1044C2.55363 19.4918 3.04529 19.6875 3.70312 19.6875L8.15625 19.6875L11.0979 16.7459C11.7032 17.0235 12.3608 17.206 13.0517 17.2791L10.6502 19.6875L17.0382 19.6875L25.7461 10.9694L25.7461 4.58203L20.2448 10.0833C20.1727 9.39932 19.9929 8.74766 19.7198 8.14673L25.3801 2.47684C25.0735 2.08615 24.581 1.88672 23.9297 1.88672ZM19.5458 19.6875L23.9297 19.6875C25.0898 19.6875 25.7461 19.0664 25.7461 17.8477L25.7461 13.4774ZM3.70312 1.88672C2.53125 1.88672 1.88672 2.51953 1.88672 3.73828L1.88672 8.09656L8.08751 1.88672Z" fill="black" fill-opacity="0.85"/>
  <path d="M13.7695 17.3203C17.3672 17.3203 20.2852 14.4023 20.2852 10.793C20.2852 7.19531 17.3672 4.27734 13.7695 4.27734C10.1602 4.27734 7.24219 7.19531 7.24219 10.793C7.24219 14.4023 10.1602 17.3203 13.7695 17.3203ZM13.7695 15.8086C10.9805 15.8086 8.75391 13.582 8.75391 10.793C8.75391 8.00391 10.9805 5.78906 13.7695 5.78906C16.5586 5.78906 18.7734 8.00391 18.7734 10.793C18.7734 13.582 16.5586 15.8086 13.7695 15.8086Z" fill="black" fill-opacity="0.85"/>
 </g>
</svg>
