<?xml version="1.0" encoding="UTF-8"?>
<!--Generator: Apple Native CoreSVG 360-->
<!DOCTYPE svg
PUBLIC "-//W3C//DTD SVG 1.1//EN"
       "http://www.w3.org/Graphics/SVG/1.1/DTD/svg11.dtd">
<svg version="1.1" xmlns="http://www.w3.org/2000/svg" xmlns:xlink="http://www.w3.org/1999/xlink" viewBox="0 0 28.1034 23.918">
 <g>
  <rect height="23.918" opacity="0" width="28.1034" x="0" y="0"/>
  <path d="M27.2646 9.69141L21.8974 9.69141C21.0654 9.69141 20.8427 10.2656 21.2998 10.9102L23.9248 14.6484C24.2998 15.1758 24.8623 15.1875 25.2373 14.6484L27.8623 10.9219C28.331 10.2656 28.1083 9.69141 27.2646 9.69141ZM13.8818 23.9062C14.4208 23.9062 14.8662 23.4492 14.8662 22.9102C14.8662 22.3594 14.4208 21.9141 13.8818 21.9141C8.37397 21.9141 3.92085 17.4609 3.92085 11.9531C3.92085 6.44531 8.37397 1.99219 13.8818 1.99219C19.3896 1.99219 23.8427 6.44531 23.8427 11.9531C23.8427 12.5039 24.2998 12.9492 24.8388 12.9492C25.3779 12.9492 25.8232 12.5156 25.8349 11.9648C25.8232 5.34375 20.4794 0 13.8818 0C7.28413 0 1.92866 5.35547 1.92866 11.9531C1.92866 18.5508 7.28413 23.9062 13.8818 23.9062ZM17.6201 23.2734C18.1943 23.2734 18.6748 22.793 18.6748 22.2188C18.6748 21.6328 18.1943 21.1523 17.6201 21.1523C17.0341 21.1523 16.5537 21.6328 16.5537 22.2188C16.5537 22.793 17.0341 23.2734 17.6201 23.2734ZM20.8896 21.5156C21.4638 21.5156 21.9443 21.0352 21.9443 20.4609C21.9443 19.875 21.4638 19.3945 20.8896 19.3945C20.3037 19.3945 19.8232 19.875 19.8232 20.4609C19.8232 21.0352 20.3037 21.5156 20.8896 21.5156ZM23.374 18.6797C23.9482 18.6797 24.4287 18.1992 24.4287 17.625C24.4287 17.0391 23.9482 16.5586 23.374 16.5586C22.788 16.5586 22.3076 17.0391 22.3076 17.625C22.3076 18.1992 22.788 18.6797 23.374 18.6797Z" fill="black" fill-opacity="0.85"/>
  <path d="M7.74116 13.2188L13.8701 13.2188C14.3271 13.2188 14.6904 12.8672 14.6904 12.3984L14.6904 4.5C14.6904 4.04297 14.3271 3.69141 13.8701 3.69141C13.413 3.69141 13.0615 4.04297 13.0615 4.5L13.0615 11.5898L7.74116 11.5898C7.28413 11.5898 6.93257 11.9414 6.93257 12.3984C6.93257 12.8672 7.28413 13.2188 7.74116 13.2188Z" fill="black" fill-opacity="0.85"/>
 </g>
</svg>
