<?xml version="1.0" encoding="UTF-8"?>
<!--Generator: Apple Native CoreSVG 360-->
<!DOCTYPE svg
PUBLIC "-//W3C//DTD SVG 1.1//EN"
       "http://www.w3.org/Graphics/SVG/1.1/DTD/svg11.dtd">
<svg version="1.1" xmlns="http://www.w3.org/2000/svg" xmlns:xlink="http://www.w3.org/1999/xlink" viewBox="0 0 24.2578 23.918">
 <g>
  <rect height="23.918" opacity="0" width="24.2578" x="0" y="0"/>
  <path d="M11.9531 23.9062C18.5508 23.9062 23.9062 18.5508 23.9062 11.9531C23.9062 5.35547 18.5508 0 11.9531 0C5.35547 0 0 5.35547 0 11.9531C0 18.5508 5.35547 23.9062 11.9531 23.9062ZM11.9531 21.9141C6.44531 21.9141 1.99219 17.4609 1.99219 11.9531C1.99219 6.44531 6.44531 1.99219 11.9531 1.99219C17.4609 1.99219 21.9141 6.44531 21.9141 11.9531C21.9141 17.4609 17.4609 21.9141 11.9531 21.9141Z" fill="black" fill-opacity="0.85"/>
  <path d="M5.82422 13.2188L11.9414 13.2188C12.3984 13.2188 12.7617 12.8672 12.7617 12.3984L12.7617 4.5C12.7617 4.04297 12.3984 3.69141 11.9414 3.69141C11.4844 3.69141 11.1328 4.04297 11.1328 4.5L11.1328 11.5898L5.82422 11.5898C5.35547 11.5898 5.00391 11.9414 5.00391 12.3984C5.00391 12.8672 5.35547 13.2188 5.82422 13.2188Z" fill="black" fill-opacity="0.85"/>
 </g>
</svg>
