<?xml version="1.0" encoding="UTF-8"?>
<!--Generator: Apple Native CoreSVG 360-->
<!DOCTYPE svg
PUBLIC "-//W3C//DTD SVG 1.1//EN"
       "http://www.w3.org/Graphics/SVG/1.1/DTD/svg11.dtd">
<svg version="1.1" xmlns="http://www.w3.org/2000/svg" xmlns:xlink="http://www.w3.org/1999/xlink" viewBox="0 0 32.1143 29.5491">
 <g>
  <rect height="29.5491" opacity="0" width="32.1143" x="0" y="0"/>
  <path d="M20.3462 25.5499C20.6978 25.7609 20.8149 26.171 20.604 26.5226L19.0688 29.171C18.8813 29.5226 18.4478 29.6398 18.1079 29.4406C17.7446 29.2296 17.6392 28.8195 17.8384 28.4913L19.3735 25.8195C19.5962 25.4679 19.9946 25.3507 20.3462 25.5499Z" fill="black" fill-opacity="0.85"/>
  <path d="M16.6782 22.257C17.0298 22.4562 17.147 22.8663 16.936 23.2296L15.4126 25.8663C15.2134 26.2179 14.7915 26.3351 14.4399 26.1476C14.0767 25.9366 13.9829 25.5265 14.1821 25.1866L15.7173 22.5265C15.9282 22.1632 16.3267 22.046 16.6782 22.257Z" fill="black" fill-opacity="0.85"/>
  <path d="M11.0298 25.5616C11.3696 25.7726 11.4868 26.1827 11.2759 26.5343L9.75244 29.1827C9.55322 29.5343 9.13135 29.6515 8.77978 29.4523C8.42822 29.2413 8.32275 28.8312 8.52197 28.5031L10.0571 25.8312C10.2681 25.4796 10.6665 25.3624 11.0298 25.5616Z" fill="black" fill-opacity="0.85"/>
  <path d="M7.36181 22.2687C7.71338 22.4679 7.81885 22.8781 7.60791 23.2413L6.08447 25.8781C5.88525 26.2296 5.46338 26.3468 5.11181 26.1593C4.76025 25.9484 4.65478 25.5382 4.854 25.1984L6.38916 22.5382C6.6001 22.1749 6.99853 22.0577 7.36181 22.2687Z" fill="black" fill-opacity="0.85"/>
  <path d="M24.272 1.32727C24.272 1.98352 23.8618 2.69837 23.8618 4.03431C23.8618 6.77649 25.4438 8.4054 28.4321 8.4054C29.6743 8.4054 30.2485 8.10071 30.9517 8.10071C31.8657 8.10071 32.3696 8.95618 31.9829 9.89368C31.1209 12.1465 28.7256 14.3429 24.9817 14.4209C24.9755 13.8054 24.8723 13.2211 24.6844 12.6789C24.71 12.6826 24.7371 12.6827 24.7642 12.6827C27.3774 12.6827 29.4517 11.3468 30.2603 9.82337L30.1782 9.74134C29.6392 9.91712 28.8657 10.0695 28.0337 10.0695C24.6235 10.0695 22.1743 7.77259 22.1743 4.38587C22.1743 3.47181 22.3501 2.68665 22.5493 2.12415L22.4204 2.0304C20.8853 2.87415 19.5259 4.64368 19.5259 6.99915C19.5259 7.63664 19.6049 8.23784 19.7552 8.79262C19.4506 8.7412 19.1345 8.71548 18.811 8.71009C18.5272 8.17887 18.1972 7.69032 17.8243 7.25236C17.8158 7.18542 17.8149 7.11586 17.8149 7.04602C17.8149 3.70618 19.9243 1.05774 22.4087 0.237431C23.4399-0.114132 24.272 0.354618 24.272 1.32727Z" fill="black" fill-opacity="0.85"/>
  <path d="M6.28369 20.382L18.9634 20.382C22.3501 20.382 24.9868 17.8273 24.9868 14.5226C24.9868 11.2296 22.3267 8.76868 18.811 8.71009C17.4399 6.14368 14.9907 4.57337 12.0962 4.57337C8.21728 4.57337 4.97119 7.57337 4.58447 11.4171C2.63916 12.0265 1.31494 13.714 1.31494 15.8468C1.31494 18.4952 3.30713 20.382 6.28369 20.382ZM6.23681 18.507C4.24463 18.507 3.18994 17.3585 3.18994 15.8937C3.18994 14.6632 3.9165 13.5616 5.63916 13.1046C6.20166 12.9523 6.4126 12.6945 6.45947 12.1085C6.729 8.81556 9.1665 6.44837 12.0962 6.44837C14.3696 6.44837 16.1392 7.70227 17.229 9.89368C17.4868 10.3976 17.7681 10.5616 18.3657 10.5616C21.4009 10.5616 23.1001 12.3898 23.1001 14.5695C23.1001 16.7609 21.3188 18.507 18.9985 18.507Z" fill="black" fill-opacity="0.85"/>
 </g>
</svg>
