<?xml version="1.0" encoding="UTF-8"?>
<!--Generator: Apple Native CoreSVG 360-->
<!DOCTYPE svg
PUBLIC "-//W3C//DTD SVG 1.1//EN"
       "http://www.w3.org/Graphics/SVG/1.1/DTD/svg11.dtd">
<svg version="1.1" xmlns="http://www.w3.org/2000/svg" xmlns:xlink="http://www.w3.org/1999/xlink" viewBox="0 0 35.9297 32.9414">
 <g>
  <rect height="32.9414" opacity="0" width="35.9297" x="0" y="0"/>
  <path d="M20.9062 28.8516C21.2578 29.0508 21.375 29.4609 21.1641 29.8242L19.6289 32.4609C19.4414 32.8125 19.0078 32.9297 18.668 32.7305C18.3047 32.5312 18.1992 32.1211 18.3984 31.7812L19.9336 29.1211C20.1562 28.7578 20.5547 28.6406 20.9062 28.8516Z" fill="black" fill-opacity="0.85"/>
  <path d="M17.2383 25.5469C17.5898 25.7578 17.707 26.168 17.4961 26.5195L15.9727 29.168C15.7734 29.5078 15.3516 29.6367 15 29.4375C14.6367 29.2266 14.543 28.8164 14.7422 28.4883L16.2773 25.8164C16.4883 25.4531 16.8867 25.3477 17.2383 25.5469Z" fill="black" fill-opacity="0.85"/>
  <path d="M11.5898 28.8633C11.9297 29.0625 12.0469 29.4727 11.8359 29.8359L10.3125 32.4727C10.1133 32.8242 9.69141 32.9414 9.33984 32.7422C8.98828 32.543 8.88281 32.1328 9.08203 31.793L10.6172 29.1328C10.8281 28.7695 11.2266 28.6523 11.5898 28.8633Z" fill="black" fill-opacity="0.85"/>
  <path d="M7.92188 25.5586C8.27344 25.7695 8.37891 26.1797 8.16797 26.5312L6.64453 29.1797C6.44531 29.5195 6.02344 29.6484 5.67188 29.4492C5.32031 29.2383 5.21484 28.8281 5.41406 28.5L6.94922 25.8281C7.16016 25.4648 7.55859 25.3594 7.92188 25.5586Z" fill="black" fill-opacity="0.85"/>
  <path d="M30.5977 17.5898L32.4023 19.3945C32.7773 19.7812 32.7773 20.4023 32.4023 20.7656C32.0273 21.1406 31.4062 21.1523 31.0312 20.7773L29.2148 18.9609C28.8398 18.5859 28.8398 17.9648 29.2148 17.5898C29.5898 17.2266 30.2109 17.2266 30.5977 17.5898ZM29.5898 12.1641C29.5898 14.7438 27.8782 16.955 25.5413 17.7033C25.5348 17.0961 25.4327 16.5188 25.2477 15.9821C26.7818 15.3975 27.8672 13.9033 27.8672 12.1641C27.8672 9.90234 26.0508 8.08594 23.8008 8.08594C21.5951 8.08594 19.7949 9.83143 19.7293 12.0321C19.6127 12.0178 19.4924 12.0133 19.3711 12.0117C19.0591 11.4251 18.6914 10.8907 18.2727 10.4182C19.0203 8.07156 21.2301 6.35156 23.8008 6.35156C26.9766 6.35156 29.5898 8.97656 29.5898 12.1641ZM35.9297 12.1641C35.9297 12.7031 35.4961 13.1367 34.9688 13.1367L32.4258 13.1367C31.9102 13.1367 31.4531 12.7031 31.4531 12.1641C31.4531 11.6367 31.9102 11.1914 32.4258 11.1914L34.9688 11.1914C35.4961 11.1914 35.9297 11.6367 35.9297 12.1641ZM32.4023 3.5625C32.7773 3.9375 32.7773 4.57031 32.4023 4.95703L30.6094 6.75C30.2109 7.13672 29.5898 7.125 29.2148 6.75C28.8398 6.375 28.8398 5.75391 29.2148 5.37891L31.0312 3.5625C31.4062 3.1875 32.0273 3.1875 32.4023 3.5625ZM16.5703 3.5625L18.3867 5.37891C18.75 5.74219 18.75 6.38672 18.375 6.75C18 7.125 17.3672 7.125 16.9922 6.75L15.1992 4.94531C14.8242 4.57031 14.8359 3.9375 15.2109 3.5625C15.5859 3.1875 16.207 3.19922 16.5703 3.5625ZM24.7852 0.972656L24.7852 3.51562C24.7852 4.04297 24.3281 4.47656 23.8008 4.47656C23.2734 4.47656 22.8281 4.04297 22.8281 3.51562L22.8281 0.972656C22.8281 0.445312 23.2734 0 23.8008 0C24.3281 0 24.7852 0.445312 24.7852 0.972656Z" fill="black" fill-opacity="0.85"/>
  <path d="M6.84375 23.6836L19.5234 23.6836C22.9219 23.6836 25.5469 21.1172 25.5469 17.8125C25.5469 14.5312 22.8867 12.0586 19.3711 12.0117C18 9.43359 15.5508 7.86328 12.6562 7.86328C8.77734 7.86328 5.53125 10.8633 5.14453 14.707C3.1875 15.3164 1.875 17.0156 1.875 19.1484C1.875 21.7852 3.85547 23.6836 6.84375 23.6836ZM6.79688 21.7969C4.80469 21.7969 3.76172 20.6602 3.76172 19.1953C3.76172 17.9531 4.47656 16.8633 6.19922 16.3945C6.77344 16.2539 6.97266 15.9961 7.01953 15.3984C7.30078 12.1172 9.73828 9.75 12.6562 9.75C14.9297 9.75 16.6875 11.0039 17.7891 13.1836C18.0352 13.6875 18.3281 13.8633 18.9258 13.8633C21.9492 13.8633 23.6602 15.6914 23.6602 17.8711C23.6602 20.0508 21.8789 21.7969 19.5586 21.7969Z" fill="black" fill-opacity="0.85"/>
 </g>
</svg>
