<?xml version="1.0" encoding="UTF-8"?>
<!--Generator: Apple Native CoreSVG 360-->
<!DOCTYPE svg
PUBLIC "-//W3C//DTD SVG 1.1//EN"
       "http://www.w3.org/Graphics/SVG/1.1/DTD/svg11.dtd">
<svg version="1.1" xmlns="http://www.w3.org/2000/svg" xmlns:xlink="http://www.w3.org/1999/xlink" viewBox="0 0 32.1143 30.9186">
 <g>
  <rect height="30.9186" opacity="0" width="32.1143" x="0" y="0"/>
  <path d="M14.7329 23.1761L13.6567 25.2151L15.9868 25.2151C16.3149 25.2151 16.397 25.5315 16.1626 25.7776L11.2056 30.7815C11.0884 30.9104 10.9595 30.9456 10.854 30.8987C10.7485 30.8636 10.7134 30.7347 10.7837 30.5823L12.2842 26.9495L10.3267 26.9495C10.022 26.9495 9.90478 26.7737 10.022 26.4925L11.522 23.0823C11.6274 22.8597 11.7329 22.7308 12.0493 22.7308L14.4985 22.7308C14.7563 22.7308 14.8618 22.9183 14.7329 23.1761Z" fill="black" fill-opacity="0.85"/>
  <path d="M24.272 2.01201C24.272 2.66826 23.8618 3.39482 23.8618 4.71904C23.8618 7.46123 25.4438 9.10186 28.4321 9.10186C29.6743 9.10186 30.2485 8.79717 30.9517 8.79717C31.8657 8.79717 32.3696 9.64092 31.9829 10.5784C31.1209 12.8426 28.7259 15.0392 24.9822 15.1174C24.9768 14.4982 24.8729 13.9097 24.6826 13.3636C24.7088 13.3673 24.7365 13.3675 24.7642 13.3675C27.3774 13.3675 29.4517 12.0433 30.2603 10.5198L30.1782 10.4378C29.6392 10.6136 28.8657 10.7542 28.0337 10.7542C24.6235 10.7542 22.1743 8.46904 22.1743 5.07061C22.1743 4.16826 22.3501 3.38311 22.5493 2.80889L22.4204 2.72686C20.8853 3.55889 19.5259 5.32842 19.5259 7.69561C19.5259 8.33205 19.6052 8.93249 19.7561 9.48659C19.4513 9.43575 19.1348 9.41086 18.811 9.40654C18.5274 8.87557 18.1975 8.38724 17.8248 7.94944C17.8159 7.87849 17.8149 7.80478 17.8149 7.73076C17.8149 4.39092 19.9243 1.74248 22.4087 0.922168C23.4399 0.570605 24.272 1.05107 24.272 2.01201Z" fill="black" fill-opacity="0.85"/>
  <path d="M6.28369 21.0784L18.9634 21.0784C22.3501 21.0784 24.9868 18.512 24.9868 15.2073C24.9868 11.9261 22.3267 9.45342 18.811 9.40654C17.4399 6.84014 14.9907 5.26982 12.0962 5.26982C8.21728 5.26982 4.97119 8.25811 4.58447 12.1136C2.63916 12.7229 1.31494 14.4104 1.31494 16.5433C1.31494 19.18 3.30713 21.0784 6.28369 21.0784ZM6.23681 19.2034C4.24463 19.2034 3.18994 18.055 3.18994 16.5901C3.18994 15.3479 3.9165 14.2464 5.63916 13.7894C6.20166 13.6487 6.4126 13.3909 6.45947 12.7933C6.729 9.51201 9.1665 7.14482 12.0962 7.14482C14.3696 7.14482 16.1392 8.39873 17.229 10.5784C17.4868 11.0823 17.7681 11.2581 18.3657 11.2581C21.4009 11.2581 23.1001 13.0862 23.1001 15.2659C23.1001 17.4456 21.3188 19.2034 18.9985 19.2034Z" fill="black" fill-opacity="0.85"/>
 </g>
</svg>
