<?xml version="1.0" encoding="UTF-8"?>
<!--Generator: Apple Native CoreSVG 360-->
<!DOCTYPE svg
PUBLIC "-//W3C//DTD SVG 1.1//EN"
       "http://www.w3.org/Graphics/SVG/1.1/DTD/svg11.dtd">
<svg version="1.1" xmlns="http://www.w3.org/2000/svg" xmlns:xlink="http://www.w3.org/1999/xlink" viewBox="0 0 34.2891 34.1295">
 <g>
  <rect height="34.1295" opacity="0" width="34.2891" x="0" y="0"/>
  <path d="M13.6523 26.3753L12.5811 28.4144L14.9062 28.4144C15.2344 28.4144 15.3164 28.7308 15.082 28.9769L10.125 33.9925C10.0078 34.1214 9.87891 34.1565 9.77344 34.1097C9.66797 34.0628 9.63281 33.9339 9.70312 33.7815L11.2036 30.1487L9.24609 30.1487C8.94141 30.1487 8.82422 29.9729 8.94141 29.7034L10.4414 26.2933C10.5469 26.0589 10.6523 25.9417 10.9688 25.9417L13.418 25.9417C13.6758 25.9417 13.7812 26.1292 13.6523 26.3753Z" fill="black" fill-opacity="0.85"/>
  <path d="M28.957 18.1604L30.75 19.9534C31.125 20.3401 31.125 20.9612 30.75 21.3245C30.375 21.6995 29.7656 21.7112 29.3906 21.3245L27.5742 19.5198C27.1992 19.1448 27.2109 18.5354 27.5742 18.1604C27.9375 17.7854 28.5703 17.7737 28.957 18.1604ZM27.9492 12.7464C27.9492 15.3612 26.2596 17.5594 23.9006 18.2952C23.8939 17.6886 23.7918 17.1119 23.607 16.5758C25.1596 16.0064 26.2383 14.528 26.2383 12.7464C26.2383 10.4495 24.4453 8.65654 22.1602 8.65654C19.9155 8.65654 18.1457 10.3865 18.0879 12.626C17.9716 12.6119 17.8515 12.6074 17.7305 12.6058C17.4159 12.0169 17.0445 11.4799 16.6216 11.0048C17.3542 8.6394 19.545 6.93389 22.1602 6.93389C25.3828 6.93389 27.9492 9.52373 27.9492 12.7464ZM34.2891 12.7464C34.2891 13.2854 33.8555 13.719 33.3281 13.719L30.7852 13.719C30.2695 13.719 29.8125 13.2854 29.8125 12.7464C29.8125 12.2073 30.2695 11.7737 30.7852 11.7737L33.3281 11.7737C33.8555 11.7737 34.2891 12.2073 34.2891 12.7464ZM30.75 4.15654C31.125 4.53154 31.125 5.15264 30.75 5.53936L28.957 7.33232C28.5703 7.71904 27.9375 7.70732 27.5742 7.33232C27.2109 6.95732 27.1992 6.34795 27.5742 5.97295L29.3906 4.15654C29.7656 3.78154 30.375 3.78154 30.75 4.15654ZM14.9297 4.15654L16.7461 5.97295C17.1094 6.34795 17.0977 6.95732 16.7461 7.33232C16.3828 7.70732 15.7383 7.71904 15.3516 7.33232L13.5703 5.53936C13.1953 5.15264 13.1953 4.53154 13.5703 4.15654C13.9453 3.78154 14.5547 3.78154 14.9297 4.15654ZM23.1328 1.5667L23.1328 4.09795C23.1328 4.62529 22.6875 5.07061 22.1602 5.07061C21.6211 5.07061 21.1758 4.62529 21.1758 4.09795L21.1758 1.5667C21.1758 1.02764 21.6211 0.594043 22.1602 0.594043C22.6875 0.594043 23.1328 1.02764 23.1328 1.5667Z" fill="black" fill-opacity="0.85"/>
  <path d="M5.20312 24.2776L17.8828 24.2776C21.2695 24.2776 23.9062 21.7112 23.9062 18.4065C23.9062 15.1253 21.2461 12.6526 17.7305 12.6058C16.3594 10.0394 13.9102 8.45732 11.0156 8.45732C7.13672 8.45732 3.89062 11.4573 3.50391 15.3011C1.55859 15.9222 0.234375 17.6097 0.234375 19.7425C0.234375 22.3792 2.22656 24.2776 5.20312 24.2776ZM5.15625 22.4026C3.16406 22.4026 2.10938 21.2542 2.10938 19.7894C2.10938 18.5472 2.83594 17.4456 4.55859 16.9886C5.12109 16.8362 5.33203 16.5784 5.37891 15.9925C5.64844 12.7112 8.08594 10.344 11.0156 10.344C13.2891 10.344 15.0586 11.5862 16.1484 13.7776C16.4062 14.2815 16.6875 14.4573 17.2852 14.4573C20.3203 14.4573 22.0195 16.2737 22.0195 18.4651C22.0195 20.6448 20.2383 22.4026 17.918 22.4026Z" fill="black" fill-opacity="0.85"/>
 </g>
</svg>
