<?xml version="1.0" encoding="UTF-8"?>
<!--Generator: Apple Native CoreSVG 360-->
<!DOCTYPE svg
PUBLIC "-//W3C//DTD SVG 1.1//EN"
       "http://www.w3.org/Graphics/SVG/1.1/DTD/svg11.dtd">
<svg version="1.1" xmlns="http://www.w3.org/2000/svg" xmlns:xlink="http://www.w3.org/1999/xlink" viewBox="0 0 27.5977 27.668">
 <g>
  <rect height="27.668" opacity="0" width="27.5977" x="0" y="0"/>
  <path d="M20.1445 22.4297L20.9297 21.0469C21.1406 20.6953 21.0352 20.2734 20.6836 20.0625C20.332 19.8633 19.9219 19.9922 19.7109 20.332L18.9141 21.75C18.7266 22.0781 18.8086 22.4883 19.1719 22.6992C19.5234 22.8984 19.9453 22.7695 20.1445 22.4297ZM18.0703 25.9219C18.7617 25.9219 19.3359 25.3359 19.3359 24.6328C19.3359 23.9531 18.7617 23.3672 18.0703 23.3672C17.3672 23.3672 16.793 23.9531 16.793 24.6328C16.793 25.3359 17.3672 25.9219 18.0703 25.9219Z" fill="black" fill-opacity="0.85"/>
  <path d="M12.9727 24.1758L14.8008 21.0117C15 20.6484 14.8945 20.2383 14.5547 20.0391C14.1914 19.8281 13.7812 19.9453 13.582 20.3086L11.7422 23.4961C11.543 23.8359 11.6484 24.2461 12.0117 24.4453C12.3516 24.6445 12.7852 24.5273 12.9727 24.1758ZM10.8984 27.668C11.5898 27.668 12.1758 27.082 12.1758 26.3789C12.1758 25.6992 11.6016 25.125 10.8984 25.125C10.207 25.125 9.63281 25.6992 9.63281 26.3789C9.63281 27.082 10.207 27.668 10.8984 27.668Z" fill="black" fill-opacity="0.85"/>
  <path d="M7.86328 22.3828L8.64844 21C8.85938 20.6484 8.75391 20.2266 8.40234 20.0156C8.05078 19.8164 7.64062 19.9453 7.42969 20.2852L6.63281 21.7031C6.44531 22.0312 6.52734 22.4414 6.89062 22.6523C7.24219 22.8516 7.66406 22.7344 7.86328 22.3828ZM5.78906 25.875C6.48047 25.875 7.05469 25.2891 7.05469 24.5859C7.05469 23.9062 6.48047 23.332 5.78906 23.332C5.08594 23.332 4.51172 23.9062 4.51172 24.5859C4.51172 25.2891 5.08594 25.875 5.78906 25.875Z" fill="black" fill-opacity="0.85"/>
  <path d="M6.35156 18.1641L20.8945 18.1641C24.7383 18.1641 27.5977 15.2461 27.5977 11.6367C27.5977 7.89844 24.5508 5.16797 20.5781 5.16797C19.1133 2.27344 16.3945 0.410156 13.0078 0.410156C8.60156 0.410156 4.96875 3.86719 4.58203 8.21484C2.46094 8.83594 0.84375 10.6758 0.84375 13.1484C0.84375 15.9258 2.85938 18.1641 6.35156 18.1641ZM6.32812 16.2891C3.92578 16.2891 2.71875 14.9414 2.71875 13.207C2.71875 11.8008 3.53906 10.5352 5.53125 10.0078C6.17578 9.83203 6.41016 9.52734 6.46875 8.87109C6.73828 5.03906 9.60938 2.28516 13.0078 2.28516C15.6445 2.28516 17.7188 3.73828 18.9844 6.32812C19.2539 6.90234 19.6055 7.10156 20.2969 7.10156C23.7656 7.10156 25.7227 9.1875 25.7227 11.6836C25.7227 14.2383 23.6836 16.2891 21.0117 16.2891Z" fill="black" fill-opacity="0.85"/>
 </g>
</svg>
