<?xml version="1.0" encoding="UTF-8"?>
<!--Generator: Apple Native CoreSVG 360-->
<!DOCTYPE svg
PUBLIC "-//W3C//DTD SVG 1.1//EN"
       "http://www.w3.org/Graphics/SVG/1.1/DTD/svg11.dtd">
<svg version="1.1" xmlns="http://www.w3.org/2000/svg" xmlns:xlink="http://www.w3.org/1999/xlink" viewBox="0 0 31.8096 20.762">
 <g>
  <rect height="20.762" opacity="0" width="31.8096" x="0" y="0"/>
  <path d="M23.9673 1.19934C23.9673 1.85559 23.5571 2.58215 23.5571 3.90637C23.5571 6.64856 25.1392 8.28918 28.1274 8.28918C29.3696 8.28918 29.9438 7.98449 30.647 7.98449C31.561 7.98449 32.0649 8.82824 31.6782 9.77746C30.8162 12.0302 28.4212 14.2265 24.6776 14.3047C24.6722 13.69 24.5697 13.1057 24.3824 12.5628C24.4072 12.5664 24.4333 12.5665 24.4595 12.5665C27.0728 12.5665 29.147 11.2306 29.9556 9.70715L29.8735 9.62512C29.3345 9.8009 28.561 9.94152 27.729 9.94152C24.3188 9.94152 21.8696 7.65637 21.8696 4.25793C21.8696 3.35559 22.0454 2.57043 22.2446 2.00793L22.1157 1.91418C20.5806 2.75793 19.2212 4.51574 19.2212 6.88293C19.2212 7.51891 19.3004 8.11937 19.4511 8.67386C19.1463 8.62305 18.83 8.59818 18.5063 8.59387C18.2227 8.0629 17.8929 7.57457 17.5201 7.13676C17.5112 7.06582 17.5103 6.99211 17.5103 6.91809C17.5103 3.57824 19.6196 0.929806 22.104 0.121212C23.1353-0.242069 23.9673 0.2384 23.9673 1.19934Z" fill="black" fill-opacity="0.85"/>
  <path d="M5.979 20.2657L18.6587 20.2657C22.0454 20.2657 24.6821 17.6993 24.6821 14.3946C24.6821 11.1134 22.022 8.64074 18.5063 8.59387C17.1353 6.02746 14.686 4.45715 11.7915 4.45715C7.9126 4.45715 4.6665 7.44543 4.27978 11.3009C2.33447 11.9103 1.01025 13.5978 1.01025 15.7306C1.01025 18.3673 3.00244 20.2657 5.979 20.2657ZM5.93213 18.3907C3.93994 18.3907 2.88525 17.2423 2.88525 15.7775C2.88525 14.5353 3.61181 13.4454 5.33447 12.9767C5.89697 12.8361 6.10791 12.5782 6.15478 11.9806C6.42431 8.69934 8.86181 6.33215 11.7915 6.33215C14.0649 6.33215 15.8345 7.58606 16.9243 9.76574C17.1821 10.2696 17.4634 10.4454 18.061 10.4454C21.0962 10.4454 22.7954 12.2736 22.7954 14.4532C22.7954 16.6329 21.0142 18.3907 18.6938 18.3907Z" fill="black" fill-opacity="0.85"/>
 </g>
</svg>
