<?xml version="1.0" encoding="UTF-8"?>
<!--Generator: Apple Native CoreSVG 360-->
<!DOCTYPE svg
PUBLIC "-//W3C//DTD SVG 1.1//EN"
       "http://www.w3.org/Graphics/SVG/1.1/DTD/svg11.dtd">
<svg version="1.1" xmlns="http://www.w3.org/2000/svg" xmlns:xlink="http://www.w3.org/1999/xlink" viewBox="0 0 27.5977 26.9475">
 <g>
  <rect height="26.9475" opacity="0" width="27.5977" x="0" y="0"/>
  <path d="M19.6523 26.5695L21.1758 23.9327C21.3867 23.5695 21.2695 23.1593 20.918 22.9601C20.5664 22.7491 20.168 22.8663 19.957 23.2296L18.4102 25.8898C18.2227 26.2296 18.3164 26.6398 18.6797 26.839C19.0312 27.0382 19.4531 26.921 19.6523 26.5695Z" fill="black" fill-opacity="0.85"/>
  <path d="M15.9844 23.2765L17.5078 20.6281C17.7188 20.2765 17.6016 19.8663 17.25 19.6554C16.8984 19.4562 16.5 19.5616 16.2891 19.9249L14.7539 22.5968C14.5547 22.9249 14.6484 23.3351 15.0117 23.546C15.3633 23.7452 15.7852 23.6163 15.9844 23.2765Z" fill="black" fill-opacity="0.85"/>
  <path d="M10.3242 26.5812L11.8477 23.9445C12.0586 23.5812 11.9531 23.171 11.6016 22.9718C11.2383 22.7609 10.8398 22.8781 10.6289 23.2413L9.09375 25.9015C8.89453 26.2413 9 26.6515 9.35156 26.8507C9.70312 27.0499 10.125 26.9327 10.3242 26.5812Z" fill="black" fill-opacity="0.85"/>
  <path d="M6.65625 23.2882L8.17969 20.6398C8.40234 20.2882 8.28516 19.8781 7.93359 19.6671C7.58203 19.4679 7.18359 19.5734 6.96094 19.9366L5.42578 22.6085C5.22656 22.9366 5.33203 23.3468 5.69531 23.5577C6.03516 23.757 6.45703 23.6281 6.65625 23.2882Z" fill="black" fill-opacity="0.85"/>
  <path d="M6.35156 17.8038L20.8945 17.8038C24.7383 17.8038 27.5977 14.8859 27.5977 11.2765C27.5977 7.53821 24.5508 4.80774 20.5781 4.80774C19.1133 1.91321 16.3945 0.0499308 13.0078 0.0499308C8.60156 0.0499308 4.96875 3.50696 4.58203 7.85462C2.46094 8.47571 0.84375 10.3156 0.84375 12.7882C0.84375 15.5656 2.85938 17.8038 6.35156 17.8038ZM6.32812 15.9288C3.92578 15.9288 2.71875 14.5812 2.71875 12.8468C2.71875 11.4406 3.53906 10.1749 5.53125 9.64759C6.17578 9.47181 6.41016 9.16712 6.46875 8.51087C6.73828 4.67884 9.60938 1.92493 13.0078 1.92493C15.6445 1.92493 17.7188 3.37806 18.9844 5.9679C19.2539 6.54212 19.6055 6.74134 20.2969 6.74134C23.7656 6.74134 25.7227 8.82727 25.7227 11.3234C25.7227 13.8781 23.6836 15.9288 21.0117 15.9288Z" fill="black" fill-opacity="0.85"/>
 </g>
</svg>
