<?xml version="1.0" encoding="UTF-8"?>
<!--Generator: Apple Native CoreSVG 360-->
<!DOCTYPE svg
PUBLIC "-//W3C//DTD SVG 1.1//EN"
       "http://www.w3.org/Graphics/SVG/1.1/DTD/svg11.dtd">
<svg version="1.1" xmlns="http://www.w3.org/2000/svg" xmlns:xlink="http://www.w3.org/1999/xlink" viewBox="0 0 32.3535 29.3555">
 <g>
  <rect height="29.3555" opacity="0" width="32.3535" x="0" y="0"/>
  <path d="M9.41501 29.332L22.5752 29.332C24.6142 29.332 25.9384 27.9727 25.833 25.9219L25.5517 20.6719L25.5517 18.1992L24.7314 13.3008C24.6845 13.0312 24.5205 12.8789 24.3213 12.8789C24.0634 12.8789 23.8994 13.0898 23.9111 13.3945L24.2275 25.8516C24.2509 26.8359 23.6064 27.5273 22.5869 27.5273L9.39157 27.5273C8.38376 27.5273 7.72751 26.8359 7.76267 25.8516L8.07907 13.3945C8.09079 13.0898 7.91501 12.8789 7.66892 12.8789C7.4697 12.8789 7.30563 13.0312 7.25876 13.3008L6.43845 18.082L6.42673 20.6016L6.1572 25.9219C6.05173 27.9727 7.36423 29.332 9.41501 29.332ZM4.66892 23.625C5.87595 23.9883 6.87204 23.8008 7.11813 22.6055L7.51657 20.7539L6.75485 16.5352L5.5947 21.5391C5.51267 21.8438 5.33688 21.9023 5.09079 21.8438L2.25485 21.0586C1.91501 20.9648 1.83298 20.7539 1.93845 20.4023L5.9111 5.82422C6.11032 5.12109 6.42673 4.66406 7.0361 4.44141L10.4228 3.17578L11.4189 1.07812L6.3447 2.96484C5.19626 3.39844 4.61032 4.11328 4.34079 5.03906L0.110322 20.0859C-0.229521 21.293 0.215791 22.3242 1.44626 22.6875ZM27.2861 23.625L30.5439 22.6758C31.7744 22.3242 32.2197 21.2812 31.8799 20.0859L27.6377 5.03906C27.3799 4.11328 26.7939 3.39844 25.6455 2.96484L20.583 1.07812L21.5674 3.17578L24.9541 4.44141C25.5634 4.66406 25.8799 5.12109 26.0674 5.82422L30.0634 20.3906C30.1689 20.7422 30.0752 20.9648 29.747 21.0586L26.8642 21.8438C26.6181 21.9023 26.4306 21.8438 26.372 21.5391L25.2353 16.5352L24.4736 20.7539L24.8369 22.6055C25.0595 23.8008 26.0791 23.9883 27.2861 23.625ZM18.1924 20.3906C18.8838 20.3906 19.4228 19.8516 19.4228 19.1602C19.4228 18.4805 18.8955 17.9297 18.1924 17.9297C17.5127 17.9297 16.9736 18.4688 16.9736 19.1602C16.9619 19.8516 17.5009 20.3906 18.1924 20.3906ZM18.1924 25.5234C18.8838 25.5234 19.4228 24.9727 19.4228 24.2812C19.4228 23.6016 18.8955 23.0508 18.1924 23.0508C17.5127 23.0508 16.9736 23.5898 16.9736 24.2812C16.9619 24.9727 17.5009 25.5234 18.1924 25.5234ZM13.8916 28.5234L15.6845 28.5234L15.6845 16.7227L15.5322 17.4844L21.8134 6.94922C22.5634 5.68359 22.5869 5.12109 22.1064 3.89062L21.1572 1.5C20.7119 0.386719 19.9267 0 18.6494 0L13.3525 0C12.0752 0 11.2783 0.386719 10.833 1.5L9.89548 3.89062C9.42673 5.07422 9.45017 5.68359 10.1884 6.94922L14.0556 13.7461L13.8916 13.1719ZM15.6845 14.4375L17.8877 2.46094C18.0049 1.83984 18.333 1.57031 18.8134 1.57031C19.2822 1.57031 19.5634 1.85156 19.7744 2.37891L20.4189 4.07812C20.7353 4.91016 20.8525 5.40234 20.3486 6.29297ZM14.7002 11.8828L11.6416 6.29297C11.1494 5.39062 11.2549 4.91016 11.5713 4.07812L12.2275 2.37891C12.4384 1.83984 12.708 1.57031 13.1767 1.57031C13.6572 1.57031 13.997 1.82812 14.1142 2.46094L15.2158 8.53125Z" fill="black" fill-opacity="0.85"/>
 </g>
</svg>
