<?xml version="1.0" encoding="UTF-8"?>
<!--Generator: Apple Native CoreSVG 360-->
<!DOCTYPE svg
PUBLIC "-//W3C//DTD SVG 1.1//EN"
       "http://www.w3.org/Graphics/SVG/1.1/DTD/svg11.dtd">
<svg version="1.1" xmlns="http://www.w3.org/2000/svg" xmlns:xlink="http://www.w3.org/1999/xlink" viewBox="0 0 26.5195 25.0195">
 <g>
  <rect height="25.0195" opacity="0" width="26.5195" x="0" y="0"/>
  <path d="M1.55859 22.2188L24.6094 22.2188L24.6094 21.4336C24.6094 20.9648 24.3398 20.6836 23.8594 20.6836L23.1094 20.6836L23.1094 8.03906L24.1406 8.03906C24.7852 8.03906 25.1602 7.57031 25.1602 7.08984C25.1602 6.73828 24.9609 6.43359 24.5273 6.1875L14.5195 0.410156C14.0508 0.140625 13.5586 0 13.0781 0C12.5977 0 12.0938 0.140625 11.6484 0.410156L1.64062 6.1875C1.19531 6.43359 1.00781 6.73828 1.00781 7.08984C1.00781 7.57031 1.38281 8.03906 2.02734 8.03906L3.05859 8.03906L3.05859 20.6836L2.32031 20.6836C1.83984 20.6836 1.55859 20.9648 1.55859 21.4336ZM4.82812 20.6836L4.82812 6.53906L12.6211 2.16797C12.7617 2.08594 12.9258 2.03906 13.0781 2.03906C13.2305 2.03906 13.3945 2.08594 13.5469 2.16797L21.3398 6.53906L21.3398 20.6836ZM0.9375 25.0078L25.2188 25.0078C25.7344 25.0078 26.168 24.5742 26.168 24.0586C26.168 23.543 25.7344 23.1211 25.2188 23.1211L0.9375 23.1211C0.421875 23.1211 0 23.543 0 24.0586C0 24.5742 0.421875 25.0078 0.9375 25.0078Z" fill="black" fill-opacity="0.85"/>
  <path d="M13.2188 17.4844C15.0117 17.4844 16.6055 16.6289 17.1445 15.0938C17.2148 14.9062 17.25 14.7305 17.25 14.543C17.25 14.0977 16.9336 13.9102 16.6172 13.9102C16.2422 13.9102 16.0781 14.1328 15.9492 14.4492C15.5508 15.6328 14.4727 16.2656 13.2188 16.2656C11.0273 16.2656 10.043 14.3438 10.043 12.2344C10.043 10.0898 11.0859 8.21484 13.207 8.21484C14.4609 8.21484 15.5508 8.98828 15.8789 10.043C15.9844 10.3711 16.1367 10.582 16.5352 10.582C16.9219 10.582 17.168 10.3359 17.168 9.96094C17.168 9.78516 17.1211 9.57422 17.0508 9.39844C16.4062 7.81641 14.8594 7.00781 13.207 7.00781C10.3008 7.00781 8.61328 9.22266 8.61328 12.2344C8.61328 15.1992 10.207 17.4844 13.2188 17.4844ZM10.4414 19.1016C10.6406 19.1016 10.7695 19.0078 10.8281 18.7852L13.9922 6.17578C14.0273 6.07031 14.0391 6.01172 14.0391 5.96484C14.0391 5.75391 13.875 5.58984 13.6406 5.58984C13.418 5.58984 13.2891 5.69531 13.2305 5.90625L10.0664 18.5039C10.043 18.5742 10.0312 18.6445 10.0312 18.7148C10.0312 18.9375 10.207 19.1016 10.4414 19.1016ZM12.6914 19.1016C12.8906 19.1016 13.0312 19.0078 13.0781 18.7852L16.2422 6.17578C16.2773 6.07031 16.2891 6.01172 16.2891 5.96484C16.2891 5.75391 16.125 5.58984 15.8906 5.58984C15.668 5.58984 15.5391 5.69531 15.4805 5.90625L12.3164 18.5039C12.3047 18.5742 12.293 18.6445 12.293 18.7148C12.293 18.9375 12.457 19.1016 12.6914 19.1016Z" fill="black" fill-opacity="0.85"/>
 </g>
</svg>
