<?xml version="1.0" encoding="UTF-8"?>
<!--Generator: Apple Native CoreSVG 360-->
<!DOCTYPE svg
PUBLIC "-//W3C//DTD SVG 1.1//EN"
       "http://www.w3.org/Graphics/SVG/1.1/DTD/svg11.dtd">
<svg version="1.1" xmlns="http://www.w3.org/2000/svg" xmlns:xlink="http://www.w3.org/1999/xlink" viewBox="0 0 28.582 23.5195">
 <g>
  <rect height="23.5195" opacity="0" width="28.582" x="0" y="0"/>
  <path d="M28.2305 14.1094C28.2305 10.6641 26.9883 7.48828 24.9141 5.02734C24.6797 4.74609 24.2812 4.74609 24.0234 5.01562L21.3047 7.73438C21.082 7.95703 21.0703 8.27344 21.2695 8.51953C22.4766 10.0664 23.2031 12.0117 23.2031 14.1094C23.2031 16.2188 22.4766 18.1641 21.1992 19.793C21.0352 19.9922 21.0469 20.25 21.2227 20.4375L24.0117 23.2266C24.2812 23.4961 24.668 23.4961 24.9141 23.2031C26.9883 20.7422 28.2305 17.5664 28.2305 14.1094Z" fill="black" fill-opacity="0.85"/>
  <path d="M14.1094 5.02734C16.2305 5.02734 18.1758 5.76562 19.7344 6.97266C19.9688 7.16016 20.2734 7.13672 20.4961 6.91406L23.2148 4.19531C23.4844 3.92578 23.4727 3.53906 23.1914 3.30469C20.7422 1.24219 17.5664 0 14.1094 0C10.6641 0 7.48828 1.24219 5.03906 3.30469C4.75781 3.53906 4.74609 3.92578 5.01562 4.19531L7.73438 6.91406C7.95703 7.13672 8.27344 7.16016 8.53125 6.96094C10.0781 5.76562 12.0117 5.02734 14.1094 5.02734Z" fill="black" fill-opacity="0.85"/>
  <path d="M0 14.1094C0 17.5664 1.24219 20.7422 3.31641 23.2031C3.55078 23.4961 3.94922 23.4961 4.20703 23.2266L6.99609 20.4375C7.17188 20.25 7.19531 19.9922 7.03125 19.793C5.75391 18.1641 5.02734 16.2188 5.02734 14.1094C5.02734 12.0117 5.74219 10.0664 6.96094 8.51953C7.14844 8.27344 7.14844 7.95703 6.92578 7.73438L4.20703 5.01562C3.9375 4.74609 3.55078 4.74609 3.31641 5.02734C1.24219 7.48828 0 10.6641 0 14.1094Z" fill="black" fill-opacity="0.85"/>
  <path d="M14.2383 19.418C16.0195 19.418 17.6133 18.5625 18.1523 17.0273C18.2227 16.8398 18.2578 16.6641 18.2578 16.4766C18.2578 16.0312 17.9531 15.8438 17.6367 15.8438C17.2617 15.8438 17.0859 16.0664 16.9688 16.3828C16.5586 17.5664 15.4922 18.1992 14.2383 18.1992C12.0469 18.1992 11.0625 16.2773 11.0625 14.168C11.0625 12.0234 12.1055 10.1484 14.2266 10.1484C15.4688 10.1484 16.5703 10.9219 16.8867 11.9766C16.9922 12.3047 17.1562 12.5156 17.543 12.5156C17.9414 12.5156 18.1758 12.2695 18.1758 11.8945C18.1758 11.7188 18.1406 11.5078 18.0703 11.332C17.4258 9.75 15.8672 8.94141 14.2266 8.94141C11.3086 8.94141 9.62109 11.1562 9.62109 14.168C9.62109 17.1328 11.2148 19.418 14.2383 19.418ZM11.4492 21.0352C11.6484 21.0352 11.7891 20.9414 11.8477 20.7188L15.0117 8.10938C15.0352 8.00391 15.0469 7.94531 15.0469 7.89844C15.0469 7.6875 14.8828 7.52344 14.6602 7.52344C14.4375 7.52344 14.2969 7.62891 14.2383 7.83984L11.0742 20.4375C11.0625 20.5078 11.0508 20.5781 11.0508 20.6484C11.0508 20.8711 11.2148 21.0352 11.4492 21.0352ZM13.6992 21.0352C13.8984 21.0352 14.0391 20.9414 14.0977 20.7188L17.2617 8.10938C17.2852 8.00391 17.2969 7.94531 17.2969 7.89844C17.2969 7.6875 17.1445 7.52344 16.9102 7.52344C16.6875 7.52344 16.5469 7.62891 16.4883 7.83984L13.3242 20.4375C13.3125 20.5078 13.3008 20.5781 13.3008 20.6484C13.3008 20.8711 13.4766 21.0352 13.6992 21.0352Z" fill="black" fill-opacity="0.85"/>
 </g>
</svg>
