<?xml version="1.0" encoding="UTF-8"?>
<!--Generator: Apple Native CoreSVG 360-->
<!DOCTYPE svg
PUBLIC "-//W3C//DTD SVG 1.1//EN"
       "http://www.w3.org/Graphics/SVG/1.1/DTD/svg11.dtd">
<svg version="1.1" xmlns="http://www.w3.org/2000/svg" xmlns:xlink="http://www.w3.org/1999/xlink" viewBox="0 0 28.582 23.4085">
 <g>
  <rect height="23.4085" opacity="0" width="28.582" x="0" y="0"/>
  <path d="M28.2305 14.0539C28.2305 6.67105 22.5586 0.612457 15.3398 0.00308175C14.9648-0.0320745 14.6836 0.237457 14.6836 0.612457L14.6836 4.44449C14.6836 4.76089 14.9062 5.00699 15.2227 5.03043C19.7109 5.58121 23.2031 9.41324 23.2031 14.0539C23.2031 16.1632 22.4766 18.1086 21.1992 19.7375C21.0352 19.9367 21.0469 20.1945 21.2227 20.382L24.0234 23.1711C24.2812 23.4289 24.6797 23.4289 24.9141 23.1476C26.9883 20.6867 28.2305 17.5109 28.2305 14.0539Z" fill="black" fill-opacity="0.85"/>
  <path d="M0 14.0539C0 17.5226 1.24219 20.6984 3.31641 23.1593C3.55078 23.4406 3.9375 23.4289 4.20703 23.1711L7.00781 20.382C7.18359 20.1945 7.19531 19.9367 7.03125 19.7375C5.74219 18.1086 5.02734 16.1632 5.02734 14.0539C5.02734 9.41324 8.51953 5.58121 13.0078 5.03043C13.3242 5.00699 13.5469 4.76089 13.5469 4.44449L13.5469 0.612457C13.5469 0.237457 13.2656-0.0320745 12.8906 0.00308175C5.67188 0.612457 0 6.67105 0 14.0539Z" fill="black" fill-opacity="0.85"/>
  <path d="M14.2383 19.3625C16.0195 19.3625 17.6133 18.507 18.1523 16.9718C18.2227 16.7843 18.2578 16.6086 18.2578 16.4211C18.2578 15.9757 17.9531 15.7882 17.6367 15.7882C17.2617 15.7882 17.0859 16.0109 16.9688 16.3273C16.5586 17.5109 15.4922 18.1437 14.2383 18.1437C12.0469 18.1437 11.0625 16.2218 11.0625 14.1125C11.0625 11.9679 12.1055 10.0929 14.2266 10.0929C15.4688 10.0929 16.5703 10.8664 16.8867 11.9211C16.9922 12.2492 17.1562 12.4601 17.543 12.4601C17.9414 12.4601 18.1758 12.214 18.1758 11.839C18.1758 11.6632 18.1406 11.4523 18.0703 11.2765C17.4258 9.69449 15.8672 8.88589 14.2266 8.88589C11.3086 8.88589 9.62109 11.1007 9.62109 14.1125C9.62109 17.0773 11.2148 19.3625 14.2383 19.3625ZM11.4492 20.9796C11.6484 20.9796 11.7891 20.8859 11.8477 20.6632L15.0117 8.05386C15.0352 7.94839 15.0469 7.8898 15.0469 7.84293C15.0469 7.63199 14.8828 7.46793 14.6602 7.46793C14.4375 7.46793 14.2969 7.57339 14.2383 7.78433L11.0742 20.382C11.0625 20.4523 11.0508 20.5226 11.0508 20.5929C11.0508 20.8156 11.2148 20.9796 11.4492 20.9796ZM13.6992 20.9796C13.8984 20.9796 14.0391 20.8859 14.0977 20.6632L17.2617 8.05386C17.2852 7.94839 17.2969 7.8898 17.2969 7.84293C17.2969 7.63199 17.1445 7.46793 16.9102 7.46793C16.6875 7.46793 16.5469 7.57339 16.4883 7.78433L13.3242 20.382C13.3125 20.4523 13.3008 20.5226 13.3008 20.5929C13.3008 20.8156 13.4766 20.9796 13.6992 20.9796Z" fill="black" fill-opacity="0.85"/>
 </g>
</svg>
