<?xml version="1.0" encoding="UTF-8"?>
<!--Generator: Apple Native CoreSVG 360-->
<!DOCTYPE svg
PUBLIC "-//W3C//DTD SVG 1.1//EN"
       "http://www.w3.org/Graphics/SVG/1.1/DTD/svg11.dtd">
<svg version="1.1" xmlns="http://www.w3.org/2000/svg" xmlns:xlink="http://www.w3.org/1999/xlink" viewBox="0 0 17.4258 27.1523">
 <g>
  <rect height="27.1523" opacity="0" width="17.4258" x="0" y="0"/>
  <path d="M9.10547 23.8359C12.6211 23.8359 15.7148 22.2422 16.8867 19.0312C17.0039 18.7148 17.0742 18.2461 17.0742 17.9531C17.0742 17.2852 16.6641 16.9102 15.9961 16.9102C15.3633 16.9102 15.0469 17.2852 14.8477 17.8477C14.1445 20.3203 11.7891 21.7148 9.11719 21.7148C4.60547 21.7148 2.46094 17.918 2.46094 13.3125C2.46094 8.70703 4.67578 4.98047 9.10547 4.98047C11.6602 4.98047 13.9805 6.44531 14.6953 8.90625C14.9062 9.51562 15.1992 9.85547 15.8555 9.85547C16.4883 9.85547 16.9219 9.44531 16.9219 8.80078C16.9219 8.50781 16.8516 8.07422 16.7227 7.73438C15.5859 4.64062 12.4922 2.85938 9.10547 2.85938C3.24609 2.85938 0 7.34766 0 13.3125C0 19.3359 3.21094 23.8359 9.10547 23.8359ZM3.375 27.1289C3.82031 27.1289 4.08984 26.9297 4.18359 26.4961L10.6406 1.19531C10.6875 1.03125 10.7109 0.914062 10.7109 0.785156C10.7109 0.316406 10.4297 0 9.90234 0C9.51562 0 9.24609 0.234375 9.14062 0.632812L2.68359 25.9453C2.63672 26.1094 2.61328 26.2617 2.61328 26.4141C2.61328 26.7773 2.90625 27.1289 3.375 27.1289ZM7.98047 27.1289C8.42578 27.1289 8.69531 26.9297 8.80078 26.4961L15.2578 1.19531C15.293 1.03125 15.3281 0.914062 15.3281 0.785156C15.3281 0.316406 15.0469 0 14.5195 0C14.1328 0 13.8516 0.234375 13.7461 0.632812L7.28906 25.9453C7.25391 26.1094 7.23047 26.2617 7.23047 26.4141C7.23047 26.7773 7.51172 27.1289 7.98047 27.1289Z" fill="black" fill-opacity="0.85"/>
 </g>
</svg>
