<?xml version="1.0" encoding="UTF-8"?>
<!--Generator: Apple Native CoreSVG 360-->
<!DOCTYPE svg
PUBLIC "-//W3C//DTD SVG 1.1//EN"
       "http://www.w3.org/Graphics/SVG/1.1/DTD/svg11.dtd">
<svg version="1.1" xmlns="http://www.w3.org/2000/svg" xmlns:xlink="http://www.w3.org/1999/xlink" viewBox="0 0 27.2551 27.9551">
 <g>
  <rect height="27.9551" opacity="0" width="27.2551" x="0" y="0"/>
  <path d="M1.28769 16.8311C-0.411526 18.5303-0.434964 20.71 1.25254 22.3975L6.52597 27.6826C6.88926 28.0459 7.51035 28.0459 7.87363 27.6826C8.23691 27.3076 8.23691 26.71 7.87363 26.3467L2.78769 21.2607C1.75644 20.2295 1.73301 19.0342 2.75254 18.0264L16.9791 3.7998C17.9869 2.79199 19.2057 2.79199 20.2135 3.81152L25.3111 8.89746C25.6744 9.26074 26.2603 9.27246 26.6236 8.90918C26.9986 8.5459 26.9986 7.94824 26.6236 7.57324L21.3502 2.2998C19.6627 0.612305 17.483 0.624023 15.7838 2.33496ZM2.97519 22.8193L4.31113 24.1553L23.1432 5.32324L21.8072 3.9873ZM20.8111 6.82324L19.7096 7.94824L23.0846 11.3232C23.401 11.6514 23.9049 11.6514 24.1978 11.335C24.5143 11.0303 24.526 10.5264 24.2096 10.21ZM18.4908 9.14355L17.3775 10.2686L20.7643 13.6436C21.0807 13.96 21.5846 13.96 21.8775 13.6553C22.1822 13.3506 22.1939 12.8467 21.8893 12.542ZM16.1705 11.4639L15.0689 12.5889L18.4439 15.9756C18.7603 16.2803 19.2643 16.2803 19.5572 15.9873C19.8736 15.6709 19.8853 15.167 19.5689 14.8623ZM13.8619 13.7842L12.7486 14.8975L16.1353 18.2842C16.4518 18.6006 16.9557 18.6006 17.2486 18.2842C17.5533 17.9795 17.565 17.4756 17.2603 17.1709ZM11.5416 16.1045L10.4283 17.2178L13.815 20.6162C14.1197 20.9209 14.6236 20.9209 14.9283 20.6162C15.233 20.2998 15.2447 19.7959 14.94 19.4912ZM9.22129 18.4248L8.10801 19.5381L11.4947 22.9365C11.8111 23.2412 12.315 23.2412 12.608 22.9365C12.9127 22.6201 12.9244 22.1162 12.6197 21.8115ZM6.90097 20.7451L5.78769 21.8584L9.17441 25.2568C9.4791 25.5615 9.98301 25.5615 10.2877 25.2568C10.5924 24.9521 10.6041 24.4365 10.2994 24.1318Z" fill="black" fill-opacity="0.85"/>
 </g>
</svg>
