<?xml version="1.0" encoding="UTF-8"?>
<!--Generator: Apple Native CoreSVG 360-->
<!DOCTYPE svg
PUBLIC "-//W3C//DTD SVG 1.1//EN"
       "http://www.w3.org/Graphics/SVG/1.1/DTD/svg11.dtd">
<svg version="1.1" xmlns="http://www.w3.org/2000/svg" xmlns:xlink="http://www.w3.org/1999/xlink" viewBox="0 0 22.4883 22.1602">
 <g>
  <rect height="22.1602" opacity="0" width="22.4883" x="0" y="0"/>
  <path d="M4.18359 22.0898C6.49219 22.0898 8.36719 20.2148 8.36719 17.8945L8.36719 4.20703C8.36719 1.88672 6.49219 0 4.18359 0C1.875 0 0 1.88672 0 4.20703C0 6.52734 1.875 8.34375 4.18359 8.34375L7.46484 8.34375C7.95703 8.34375 8.34375 7.95703 8.34375 7.46484C8.34375 6.97266 7.95703 6.57422 7.46484 6.57422L4.18359 6.57422C2.89453 6.57422 1.82812 5.50781 1.82812 4.20703C1.82812 2.90625 2.89453 1.82812 4.18359 1.82812C5.47266 1.82812 6.53906 2.90625 6.53906 4.20703L6.53906 17.8945C6.53906 19.1953 5.47266 20.2617 4.18359 20.2617C2.89453 20.2617 1.82812 19.1953 1.82812 17.8945C1.82812 16.5938 2.89453 15.5273 4.18359 15.5273L17.9531 15.5273C19.2422 15.5273 20.3086 16.5938 20.3086 17.8945C20.3086 19.1953 19.2422 20.2617 17.9531 20.2617C16.6641 20.2617 15.5977 19.1953 15.5977 17.8945L15.5977 4.20703C15.5977 2.90625 16.6641 1.82812 17.9531 1.82812C19.2422 1.82812 20.3086 2.90625 20.3086 4.20703C20.3086 5.50781 19.2422 6.57422 17.9531 6.57422L7.46484 6.57422C6.97266 6.57422 6.57422 6.97266 6.57422 7.46484C6.57422 7.95703 6.97266 8.34375 7.46484 8.34375L17.9531 8.34375C20.2617 8.34375 22.1367 6.52734 22.1367 4.20703C22.1367 1.88672 20.2617 0 17.9531 0C15.6445 0 13.7695 1.88672 13.7695 4.20703L13.7695 17.8945C13.7695 20.2148 15.6445 22.0898 17.9531 22.0898C20.2617 22.0898 22.1367 20.2148 22.1367 17.8945C22.1367 15.5742 20.2617 13.7578 17.9531 13.7578L4.18359 13.7578C1.875 13.7578 0 15.5742 0 17.8945C0 20.2148 1.875 22.0898 4.18359 22.0898Z" fill="black" fill-opacity="0.85"/>
 </g>
</svg>
