<?xml version="1.0" encoding="UTF-8"?>
<!--Generator: Apple Native CoreSVG 360-->
<!DOCTYPE svg
PUBLIC "-//W3C//DTD SVG 1.1//EN"
       "http://www.w3.org/Graphics/SVG/1.1/DTD/svg11.dtd">
<svg version="1.1" xmlns="http://www.w3.org/2000/svg" xmlns:xlink="http://www.w3.org/1999/xlink" viewBox="0 0 20.707 22.043">
 <g>
  <rect height="22.043" opacity="0" width="20.707" x="0" y="0"/>
  <path d="M0.316406 9.62109C0.117188 9.83203 0 10.0898 0 10.3828C0 10.9922 0.457031 11.4609 1.06641 11.4609C1.37109 11.4609 1.64062 11.332 1.82812 11.1445L10.8047 1.98047L9.55078 1.98047L18.5273 11.1445C18.7266 11.332 18.9961 11.4609 19.2891 11.4609C19.8984 11.4609 20.3555 10.9922 20.3555 10.3828C20.3555 10.0898 20.2383 9.83203 20.0391 9.62109L10.9688 0.339844C10.7695 0.117188 10.4766 0 10.1836 0C9.87891 0 9.60938 0.117188 9.38672 0.339844Z" fill="black" fill-opacity="0.85"/>
 </g>
</svg>
