<?xml version="1.0" encoding="UTF-8"?>
<!--Generator: Apple Native CoreSVG 360-->
<!DOCTYPE svg
PUBLIC "-//W3C//DTD SVG 1.1//EN"
       "http://www.w3.org/Graphics/SVG/1.1/DTD/svg11.dtd">
<svg version="1.1" xmlns="http://www.w3.org/2000/svg" xmlns:xlink="http://www.w3.org/1999/xlink" viewBox="0 0 30.5517 34.8954">
 <g>
  <rect height="34.8954" opacity="0" width="30.5517" x="0" y="0"/>
  <path d="M24.9497 10.352L24.9497 24.5669C24.9497 27.0278 23.7426 28.2465 21.3168 28.2465L8.87154 28.2465C6.44576 28.2465 5.23872 27.0278 5.23872 24.5669L5.23872 15.8823C5.76188 16.3065 6.44118 16.5185 7.12544 16.4585L7.12544 24.5434C7.12544 25.7153 7.74654 26.3598 8.96529 26.3598L21.2348 26.3598C22.4418 26.3598 23.0629 25.7153 23.0629 24.5434L23.0629 10.3755C23.0629 9.20358 22.4418 8.55905 21.2231 8.55905L10.622 8.55905C10.6001 8.0935 10.4112 7.62169 10.02 7.22311L9.48387 6.67233L21.3168 6.67233C23.7426 6.67233 24.9497 7.89108 24.9497 10.352Z" fill="black" fill-opacity="0.85"/>
  <path d="M19.9926 12.8598C19.9926 13.27 19.6879 13.5864 19.2661 13.5864L10.6411 13.5864C10.2192 13.5864 9.90279 13.27 9.90279 12.8598C9.90279 12.4614 10.2192 12.145 10.6411 12.145L19.2661 12.145C19.6879 12.145 19.9926 12.4614 19.9926 12.8598Z" fill="black" fill-opacity="0.85"/>
  <path d="M19.9926 17.4419C19.9926 17.852 19.6879 18.1801 19.2661 18.1801L10.6411 18.1801C10.2192 18.1801 9.90279 17.852 9.90279 17.4419C9.90279 17.0434 10.2192 16.7387 10.6411 16.7387L19.2661 16.7387C19.6879 16.7387 19.9926 17.0434 19.9926 17.4419Z" fill="black" fill-opacity="0.85"/>
  <path d="M19.9926 22.059C19.9926 22.4575 19.6879 22.7622 19.2661 22.7622L10.6411 22.7622C10.2192 22.7622 9.90279 22.4575 9.90279 22.059C9.90279 21.6489 10.2192 21.3208 10.6411 21.3208L19.2661 21.3208C19.6879 21.3208 19.9926 21.6489 19.9926 22.059Z" fill="black" fill-opacity="0.85"/>
  <path d="M7.28951 14.7934C7.80513 14.5825 8.05122 13.9965 7.82857 13.4809L6.00044 9.22701L8.51997 9.12155C8.96529 9.09811 9.18794 8.67623 8.85982 8.33639L2.46138 1.75045C2.16841 1.45748 1.71138 1.62155 1.69966 2.05514L1.59419 11.4184C1.58247 11.8637 2.12154 12.0161 2.41451 11.7231L4.20747 9.93014L5.95357 14.2544C6.15279 14.7583 6.76216 15.0044 7.28951 14.7934Z" fill="black" fill-opacity="0.85"/>
 </g>
</svg>
