<?xml version="1.0" encoding="UTF-8"?>
<!--Generator: Apple Native CoreSVG 360-->
<!DOCTYPE svg
PUBLIC "-//W3C//DTD SVG 1.1//EN"
       "http://www.w3.org/Graphics/SVG/1.1/DTD/svg11.dtd">
<svg version="1.1" xmlns="http://www.w3.org/2000/svg" xmlns:xlink="http://www.w3.org/1999/xlink" viewBox="0 0 43.5469 28.2247">
 <g>
  <rect height="28.2247" opacity="0" width="43.5469" x="0" y="0"/>
  <path d="M2.55469 21.501L5.51953 21.8409L5.70703 19.9542L3 19.6495C2.23828 19.5674 1.88672 19.2159 1.88672 18.5362L1.88672 17.1182C1.88672 15.1026 3.24609 13.9073 5.96484 13.3917L13.5234 11.962C14.1562 11.8448 14.6836 11.7745 15.0703 11.4463C17.2148 9.62993 19.6523 7.98931 22.3359 6.55962C23.4609 5.97368 22.5469 4.36821 21.3398 5.00103C18.5625 6.47759 15.9375 8.18853 13.6992 10.0518L5.71875 11.5518C1.91016 12.2667 0 14.0245 0 17.1182L0 18.6768C0 20.4346 0.785156 21.3135 2.55469 21.501ZM8.625 23.8565C10.957 23.8565 12.7852 22.0284 12.7852 19.6963C12.7852 17.3526 10.957 15.5245 8.625 15.5245C6.28125 15.5245 4.45312 17.3526 4.45312 19.6963C4.45312 22.0284 6.28125 23.8565 8.625 23.8565ZM8.625 22.087C7.27734 22.087 6.22266 21.0323 6.22266 19.6963C6.22266 18.3487 7.27734 17.294 8.625 17.294C9.96094 17.294 11.0156 18.3487 11.0156 19.6963C11.0156 21.0323 9.96094 22.087 8.625 22.087ZM11.543 21.3018L31.7695 21.3018L31.7695 19.4151L11.543 19.4151ZM34.582 23.8565C36.9141 23.8565 38.7422 22.0284 38.7422 19.6963C38.7422 17.3526 36.9141 15.5245 34.582 15.5245C32.2383 15.5245 30.4102 17.3526 30.4102 19.6963C30.4102 22.0284 32.2383 23.8565 34.582 23.8565ZM34.582 22.087C33.2344 22.087 32.1797 21.0323 32.1797 19.6963C32.1797 18.3487 33.2344 17.294 34.582 17.294C35.918 17.294 36.9727 18.3487 36.9727 19.6963C36.9727 21.0323 35.918 22.087 34.582 22.087ZM37.793 21.0206L39.8438 20.7979C42.1055 20.5635 43.1953 19.3096 43.1953 16.9776L43.1953 14.9385C43.1953 12.1612 42.1641 10.9776 39.5156 10.4854L34.0312 9.46587C32.4375 9.16118 31.0547 9.00884 29.1445 9.11431L13.793 10.0518L13.2422 11.9737L29.0508 11.0127C30.5977 10.919 31.9453 11.0362 33.9258 11.4229L39.1758 12.4307C40.7344 12.7237 41.3086 13.4034 41.3086 14.9385L41.3086 16.9776C41.3086 18.1846 40.7578 18.8292 39.6094 18.9463L37.793 19.1338Z" fill="black" fill-opacity="0.85"/>
  <path d="M18.9961 22.6026C18.3516 22.6026 18.082 23.1182 18.4219 23.669L20.9648 27.8292C21.2812 28.3682 21.9141 28.3448 22.2305 27.8292L24.7852 23.669C25.125 23.1182 24.832 22.6026 24.2109 22.6026Z" fill="black" fill-opacity="0.85"/>
  <path d="M19.0898 18.0674L24.1055 18.0674C24.7031 18.0674 24.9727 17.587 24.6562 17.0596L22.1953 13.0518C21.9023 12.5596 21.293 12.5479 20.9883 13.0518L18.5391 17.0479C18.2227 17.5752 18.4805 18.0674 19.0898 18.0674Z" fill="black" fill-opacity="0.85"/>
 </g>
</svg>
