<?xml version="1.0" encoding="UTF-8"?>
<!--Generator: Apple Native CoreSVG 360-->
<!DOCTYPE svg
PUBLIC "-//W3C//DTD SVG 1.1//EN"
       "http://www.w3.org/Graphics/SVG/1.1/DTD/svg11.dtd">
<svg version="1.1" xmlns="http://www.w3.org/2000/svg" xmlns:xlink="http://www.w3.org/1999/xlink" viewBox="0 0 43.5469 35.5074">
 <g>
  <rect height="35.5074" opacity="0" width="43.5469" x="0" y="0"/>
  <path d="M12.5508 32.9939L30.6562 32.9939C31.0195 32.9939 31.3359 32.6775 31.3359 32.3025C31.3359 31.9392 31.0195 31.6346 30.6562 31.6346L12.5508 31.6346C12.1758 31.6346 11.8594 31.9392 11.8594 32.3025C11.8594 32.6775 12.1758 32.9939 12.5508 32.9939ZM14.2617 34.6463L14.2617 29.9588C14.2617 29.1502 13.5 28.8572 12.832 29.3494L9.70312 31.6814C9.26953 31.9978 9.26953 32.5955 9.70312 32.9236L12.832 35.2674C13.4648 35.7361 14.2617 35.49 14.2617 34.6463ZM28.9453 34.6463C28.9453 35.4666 29.7188 35.7596 30.375 35.2674L33.5039 32.9236C33.9492 32.5955 33.9258 31.9861 33.5039 31.6814L30.375 29.3494C29.7188 28.8572 28.9453 29.1502 28.9453 29.9588Z" fill="black" fill-opacity="0.85"/>
  <path d="M2.55469 25.1424L5.51953 25.4822L5.70703 23.5955L3 23.2908C2.23828 23.2088 1.88672 22.8572 1.88672 22.1775L1.88672 20.7596C1.88672 18.7439 3.24609 17.5486 5.96484 17.033L13.5234 15.6033C14.1562 15.4861 14.6836 15.4158 15.0703 15.0877C17.2148 13.2713 19.6523 11.6306 22.3359 10.201C23.4609 9.61502 22.5469 8.00956 21.3398 8.64237C18.5625 10.1189 15.9375 11.8299 13.6992 13.6931L5.71875 15.1931C1.91016 15.908 0 17.6658 0 20.7596L0 22.3181C0 24.076 0.785156 24.9549 2.55469 25.1424ZM8.625 27.4978C10.957 27.4978 12.7852 25.6697 12.7852 23.3377C12.7852 20.9939 10.957 19.1658 8.625 19.1658C6.28125 19.1658 4.45312 20.9939 4.45312 23.3377C4.45312 25.6697 6.28125 27.4978 8.625 27.4978ZM8.625 25.7283C7.27734 25.7283 6.22266 24.6736 6.22266 23.3377C6.22266 21.99 7.27734 20.9353 8.625 20.9353C9.96094 20.9353 11.0156 21.99 11.0156 23.3377C11.0156 24.6736 9.96094 25.7283 8.625 25.7283ZM11.543 24.9431L31.7695 24.9431L31.7695 23.0564L11.543 23.0564ZM34.582 27.4978C36.9141 27.4978 38.7422 25.6697 38.7422 23.3377C38.7422 20.9939 36.9141 19.1658 34.582 19.1658C32.2383 19.1658 30.4102 20.9939 30.4102 23.3377C30.4102 25.6697 32.2383 27.4978 34.582 27.4978ZM34.582 25.7283C33.2344 25.7283 32.1797 24.6736 32.1797 23.3377C32.1797 21.99 33.2344 20.9353 34.582 20.9353C35.918 20.9353 36.9727 21.99 36.9727 23.3377C36.9727 24.6736 35.918 25.7283 34.582 25.7283ZM37.793 24.6619L39.8438 24.4392C42.1055 24.2049 43.1953 22.951 43.1953 20.6189L43.1953 18.5799C43.1953 15.8025 42.1641 14.6189 39.5156 14.1267L34.0312 13.1072C32.4375 12.8025 31.0547 12.6502 29.1445 12.7556L13.793 13.6931L13.2422 15.615L29.0508 14.6541C30.5977 14.5603 31.9453 14.6775 33.9258 15.0642L39.1758 16.0721C40.7344 16.365 41.3086 17.0447 41.3086 18.5799L41.3086 20.6189C41.3086 21.826 40.7578 22.4705 39.6094 22.5877L37.793 22.7752Z" fill="black" fill-opacity="0.85"/>
 </g>
</svg>
