<?xml version="1.0" encoding="UTF-8"?>
<!--Generator: Apple Native CoreSVG 360-->
<!DOCTYPE svg
PUBLIC "-//W3C//DTD SVG 1.1//EN"
       "http://www.w3.org/Graphics/SVG/1.1/DTD/svg11.dtd">
<svg version="1.1" xmlns="http://www.w3.org/2000/svg" xmlns:xlink="http://www.w3.org/1999/xlink" viewBox="0 0 45.6797 34.7695">
 <g>
  <rect height="34.7695" opacity="0" width="45.6797" x="0" y="0"/>
  <path d="M19.8242 5.8696C19.4191 6.05169 19.0418 6.37087 18.7383 6.85547C18.6485 6.99819 18.5594 7.14174 18.473 7.28788C18.3564 6.05462 17.8991 4.93523 17.1896 4.02615L16.3711 4.85156C16.0664 5.14453 15.5859 5.14453 15.2812 4.85156C14.9766 4.54688 14.9883 4.06641 15.2812 3.77344L16.1139 2.94081C15.2394 2.24745 14.1677 1.79079 12.9844 1.65565L12.9844 2.76563C12.9844 3.17578 12.6211 3.52734 12.2109 3.52734C11.8008 3.52734 11.4609 3.17578 11.4609 2.76563L11.4609 1.65215C10.2715 1.78435 9.19369 2.24057 8.31471 2.9358L9.15234 3.77344C9.44531 4.06641 9.44531 4.54688 9.15234 4.85156C8.84766 5.14453 8.35547 5.14453 8.0625 4.85156L7.23431 4.02337C6.40447 5.08718 5.91797 6.43753 5.91797 7.92188C5.91797 9.5625 6.55078 11.0742 7.45312 12.0352C7.65234 12.2344 7.72266 12.4219 7.72266 12.6211C7.72266 13.0547 7.37109 13.418 6.92578 13.418C6.67969 13.418 6.44531 13.2773 6.26953 13.0898C5.07422 11.7773 4.3125 9.91406 4.3125 7.92188C4.3125 3.59766 7.89844 3.55271e-15 12.2109 3.55271e-15C15.8164 3.55271e-15 18.9141 2.51473 19.8242 5.8696ZM0.609375 6.11719L2.84766 7.61719C3.16406 7.81641 3.14062 8.12109 2.85938 8.32031L0.585938 9.82031C0.328125 10.0078 0 9.86719 0 9.51563L0 6.44531C0.0117188 6.08203 0.339844 5.95313 0.609375 6.11719ZM13.4766 8.0625C13.4883 8.78906 12.9727 9.35156 12.2109 9.38672C12.0938 9.375 11.8477 9.36328 11.6953 9.33984L7.6875 8.70703C7.42969 8.66016 7.30078 8.50781 7.28906 8.32031C7.27734 8.14453 7.39453 7.95703 7.62891 7.89844L11.5547 6.92578C11.7188 6.87891 11.9766 6.83203 12.1289 6.80859C12.8438 6.78516 13.418 7.3125 13.4766 8.0625Z" fill="black" fill-opacity="0.85"/>
  <path d="M13.1719 32.2734C13.4414 32.7422 14.0273 32.8945 14.4609 32.6367L44.8711 15.082C45.293 14.8359 45.457 14.2617 45.2109 13.8164C44.9414 13.3477 44.3438 13.207 43.9219 13.4531L13.5117 31.0078C13.0781 31.2539 12.9141 31.8398 13.1719 32.2734Z" fill="black" fill-opacity="0.85"/>
  <path d="M13.5938 26.8945L15.8086 25.9219L15.1758 24.5273L13.1602 25.4063C12.5859 25.6523 12.1992 25.5469 11.9297 25.0781L11.3555 24.082C10.5352 22.6758 11.0156 21.2813 12.7031 19.8164L17.4258 15.7617C17.8242 15.4102 18.1641 15.1523 18.3047 14.7656C19.0781 12.6211 20.1094 10.4883 21.4219 8.40234C21.9727 7.52344 20.6836 6.77344 20.0859 7.71094C18.7383 9.85547 17.5898 12.1289 16.7812 14.3438L11.7891 18.6328C9.41016 20.6719 8.77734 22.6758 10.0312 24.8438L10.6641 25.9336C11.3789 27.1758 12.2812 27.4688 13.5938 26.8945ZM18.8086 26.0859C20.4492 25.1367 20.9883 23.1094 20.0391 21.4688C19.0898 19.8281 17.0742 19.2891 15.4336 20.2383C13.793 21.1875 13.2539 23.2031 14.2031 24.8438C15.1406 26.4844 17.168 27.0352 18.8086 26.0859ZM18.0938 24.8438C17.1562 25.3828 15.9844 25.0664 15.4336 24.1289C14.8945 23.1914 15.2109 22.0195 16.1484 21.4805C17.0859 20.9414 18.2578 21.2461 18.7969 22.1953C19.3477 23.1328 19.0312 24.3047 18.0938 24.8438ZM19.8164 23.1094L34.0078 14.918L33.2461 13.5938L19.0547 21.7852ZM37.0195 15.5742C38.6602 14.625 39.1992 12.5977 38.25 10.957C37.3008 9.31641 35.2852 8.77734 33.6445 9.72656C32.0039 10.6758 31.4531 12.6914 32.4023 14.332C33.3516 15.9727 35.3789 16.5234 37.0195 15.5742ZM36.3047 14.332C35.3555 14.8711 34.1953 14.5547 33.6445 13.6172C33.1055 12.6797 33.4219 11.5078 34.3594 10.9688C35.2969 10.4297 36.4688 10.7344 37.0078 11.6719C37.5586 12.6211 37.2422 13.793 36.3047 14.332ZM38.1211 12.2813L39.4688 11.2969C40.957 10.207 41.2266 8.89453 40.2773 7.25391L39.457 5.82422C38.332 3.87891 37.1133 3.46875 35.0625 4.19531L30.7969 5.69531C29.5664 6.12891 28.5234 6.57422 27.2344 7.42969L16.8398 14.3086L17.2383 15.8789L27.9375 8.80078C28.9805 8.10938 29.9766 7.64063 31.5234 7.11328L35.6133 5.69531C36.8203 5.27344 37.5117 5.50781 38.1328 6.58594L38.9531 8.01563C39.4453 8.85938 39.3164 9.53906 38.5547 10.0898L37.3594 10.957Z" fill="black" fill-opacity="0.85"/>
 </g>
</svg>
