<?xml version="1.0" encoding="UTF-8"?>
<!--Generator: Apple Native CoreSVG 360-->
<!DOCTYPE svg
PUBLIC "-//W3C//DTD SVG 1.1//EN"
       "http://www.w3.org/Graphics/SVG/1.1/DTD/svg11.dtd">
<svg version="1.1" xmlns="http://www.w3.org/2000/svg" xmlns:xlink="http://www.w3.org/1999/xlink" viewBox="0 0 43.5469 19.4883">
 <g>
  <rect height="19.4883" opacity="0" width="43.5469" x="0" y="0"/>
  <path d="M22.3359 2.19141C20.4638 3.1888 18.7114 4.28886 17.0979 5.48177L29.1445 4.74609C31.0547 4.64062 32.4375 4.79297 34.0312 5.09766L39.5156 6.11719C42.1641 6.60938 43.1953 7.79297 43.1953 10.5703L43.1953 12.6094C43.1953 14.9414 42.1055 16.1953 39.8438 16.4297L38.5604 16.569C38.0443 18.2773 36.4801 19.4883 34.582 19.4883C32.8134 19.4883 31.3384 18.4473 30.7222 16.9336L12.4733 16.9336C11.8576 18.4473 10.3848 19.4883 8.625 19.4883C7.05078 19.4883 5.70917 18.6635 5.00096 17.4132L2.55469 17.1328C0.785156 16.9453 0 16.0664 0 14.3086L0 12.75C0 9.65625 1.91016 7.89844 5.71875 7.18359L10.4393 6.29633L11.6851 7.94146L5.96484 9.02344C3.24609 9.53906 1.88672 10.7344 1.88672 12.75L1.88672 14.168C1.88672 14.8477 2.23828 15.1992 3 15.2812L4.45887 15.4455C4.45365 15.4073 4.45312 15.3678 4.45312 15.3281C4.45312 12.9844 6.28125 11.1562 8.625 11.1562C10.8624 11.1562 12.6359 12.839 12.7715 15.0469L30.4239 15.0469C30.5594 12.839 32.3334 11.1562 34.582 11.1562C36.6912 11.1562 38.3881 12.6516 38.6883 14.6732L39.6094 14.5781C40.7578 14.4609 41.3086 13.8164 41.3086 12.6094L41.3086 10.5703C41.3086 9.03516 40.7344 8.35547 39.1758 8.0625L33.9258 7.05469C31.9453 6.66797 30.5977 6.55078 29.0508 6.64453L17.0611 7.37334L14.9882 4.66416C16.9173 3.19317 19.0781 1.83527 21.3398 0.632812C22.5469 0 23.4609 1.60547 22.3359 2.19141ZM6.22266 15.3281C6.22266 16.6641 7.27734 17.7188 8.625 17.7188C9.96094 17.7188 11.0156 16.6641 11.0156 15.3281C11.0156 13.9805 9.96094 12.9258 8.625 12.9258C7.27734 12.9258 6.22266 13.9805 6.22266 15.3281ZM32.1797 15.3281C32.1797 16.6641 33.2344 17.7188 34.582 17.7188C35.918 17.7188 36.9727 16.6641 36.9727 15.3281C36.9727 13.9805 35.918 12.9258 34.582 12.9258C33.2344 12.9258 32.1797 13.9805 32.1797 15.3281Z" fill="black" fill-opacity="0.85"/>
  <path d="M6.07031 4.21875L8.95312 4.21875C10.2422 4.21875 10.7461 4.44141 11.4023 5.30859L15.0586 10.1367C16.0781 11.4492 17.1914 12.0352 18.8438 12.0352L21.4102 12.0352L21.4102 13.043C21.4102 13.8633 22.125 14.1094 22.7344 13.7109L25.6875 11.8125C26.25 11.4609 26.2617 10.7461 25.6875 10.3711L22.7461 8.48438C22.125 8.07422 21.4102 8.32031 21.4102 9.15234L21.4102 10.1484L18.8438 10.1484C17.7422 10.1484 17.2969 9.92578 16.5703 8.96484L12.8789 4.14844C11.8828 2.84766 10.7227 2.33203 8.95312 2.33203L6.07031 2.33203C5.55469 2.33203 5.12109 2.76562 5.12109 3.28125C5.12109 3.79688 5.55469 4.21875 6.07031 4.21875Z" fill="black" fill-opacity="0.85"/>
 </g>
</svg>
