<?xml version="1.0" encoding="UTF-8"?>
<!--Generator: Apple Native CoreSVG 360-->
<!DOCTYPE svg
PUBLIC "-//W3C//DTD SVG 1.1//EN"
       "http://www.w3.org/Graphics/SVG/1.1/DTD/svg11.dtd">
<svg version="1.1" xmlns="http://www.w3.org/2000/svg" xmlns:xlink="http://www.w3.org/1999/xlink" viewBox="0 0 40.888 30.778">
 <g>
  <rect height="30.778" opacity="0" width="40.888" x="0" y="0"/>
  <path d="M10.1842 23.0355L12.3991 22.0628L11.7662 20.6683L9.75062 21.5472C9.1764 21.805 8.78968 21.6996 8.52015 21.2191L7.94593 20.223C7.12562 18.8167 7.60609 17.4222 9.29359 15.9574L14.0162 11.9027C14.4147 11.5511 14.7545 11.2933 14.8951 10.9066C15.6686 8.76206 16.6998 6.62925 18.0123 4.54331C18.5631 3.6644 17.2623 2.9144 16.6764 3.8519C15.3287 6.00815 14.1803 8.26987 13.3717 10.4847L8.3678 14.7738C6.00062 16.8128 5.3678 18.8167 6.62171 20.9964L7.2428 22.0863C7.95765 23.3167 8.85999 23.6097 10.1842 23.0355ZM15.3991 22.2269C17.0397 21.2777 17.5787 19.2621 16.6295 17.6214C15.6803 15.9808 13.6647 15.43 12.0241 16.3792C10.3834 17.3285 9.84437 19.3558 10.7819 20.9964C11.7311 22.6371 13.7584 23.1761 15.3991 22.2269ZM14.6842 20.9847C13.735 21.5238 12.5748 21.2191 12.0241 20.2816C11.485 19.3324 11.8014 18.1722 12.7389 17.6214C13.6764 17.0824 14.8483 17.3988 15.3873 18.3363C15.9381 19.2738 15.6217 20.4457 14.6842 20.9847ZM16.4069 19.2503L30.5983 11.0589L29.8366 9.73472L15.6451 17.9261ZM33.61 11.7152C35.2506 10.766 35.7897 8.75034 34.8405 7.10972C33.8912 5.46909 31.8756 4.91831 30.235 5.86753C28.5944 6.81675 28.0436 8.84409 28.9928 10.4847C29.942 12.1253 31.9694 12.6644 33.61 11.7152ZM32.8834 10.473C31.9459 11.0121 30.7741 10.7074 30.235 9.75815C29.6959 8.82065 30.0123 7.64878 30.9498 7.10972C31.8873 6.57065 33.0592 6.88706 33.5983 7.82456C34.1373 8.76206 33.8326 9.93394 32.8834 10.473ZM34.7116 8.42222L36.0592 7.43784C37.5475 6.35972 37.817 5.0355 36.8678 3.39487L36.0358 1.96519C34.9108 0.019873 33.7037-0.390283 31.653 0.336279L27.3873 1.83628C26.1451 2.26987 25.1139 2.7269 23.8248 3.57065L13.4303 10.4496L13.8287 12.0199L24.528 4.94175C25.5709 4.25034 26.567 3.78159 28.1139 3.25425L32.2037 1.83628C33.4108 1.4144 34.0905 1.64878 34.7116 2.7269L35.5436 4.15659C36.0241 5.00034 35.9069 5.68003 35.1451 6.23081L33.9381 7.098Z" fill="black" fill-opacity="0.85"/>
  <path d="M7.3014 30.2074C7.58265 30.6761 8.15687 30.8285 8.59046 30.5707L40.067 12.4183C40.5006 12.1722 40.6647 11.5863 40.4186 11.1527C40.1373 10.6839 39.5514 10.5316 39.1295 10.7894L7.64124 28.9417C7.21937 29.1996 7.0553 29.7855 7.3014 30.2074Z" fill="black" fill-opacity="0.85"/>
  <path d="M5.27405 24.4652L2.82484 20.1996C2.41468 19.473 1.58265 19.6605 1.34827 20.3636L0.0592105 23.973C-0.116571 24.4769 0.106086 24.8753 0.633429 24.9691L4.39515 25.6605C5.13343 25.8128 5.69593 25.18 5.27405 24.4652Z" fill="black" fill-opacity="0.85"/>
 </g>
</svg>
