<?xml version="1.0" encoding="UTF-8"?>
<!--Generator: Apple Native CoreSVG 360-->
<!DOCTYPE svg
PUBLIC "-//W3C//DTD SVG 1.1//EN"
       "http://www.w3.org/Graphics/SVG/1.1/DTD/svg11.dtd">
<svg version="1.1" xmlns="http://www.w3.org/2000/svg" xmlns:xlink="http://www.w3.org/1999/xlink" viewBox="0 0 43.8237 30.1412">
 <g>
  <rect height="30.1412" opacity="0" width="43.8237" x="0" y="0"/>
  <path d="M2.68722 22.4593L5.65206 22.7991L5.83956 20.9124L3.13253 20.6077C2.37081 20.5257 2.01925 20.1741 2.01925 19.4944L2.01925 18.0765C2.01925 16.0608 3.39034 14.8655 6.09738 14.3499L13.656 12.9202C14.3005 12.803 14.8161 12.7327 15.2028 12.4046C17.3591 10.5882 19.7849 8.94757 22.4685 7.51788C23.5935 6.93194 22.6794 5.32647 21.4724 5.95928C18.7068 7.43585 16.07 9.14678 13.8435 11.0101L5.85128 12.5101C2.05441 13.2249 0.132532 14.9827 0.132532 18.0765L0.132532 19.6351C0.132532 21.3929 0.917688 22.2718 2.68722 22.4593ZM8.75753 24.8148C11.1013 24.8148 12.9294 22.9866 12.9294 20.6546C12.9294 18.3108 11.1013 16.4827 8.75753 16.4827C6.41378 16.4827 4.58566 18.3108 4.58566 20.6546C4.58566 22.9866 6.41378 24.8148 8.75753 24.8148ZM8.75753 23.0452C7.42159 23.0452 6.35519 21.9905 6.35519 20.6546C6.35519 19.3069 7.42159 18.2523 8.75753 18.2523C10.0935 18.2523 11.1599 19.3069 11.1599 20.6546C11.1599 21.9905 10.0935 23.0452 8.75753 23.0452ZM11.6755 22.2601L31.9138 22.2601L31.9138 20.3733L11.6755 20.3733ZM34.7146 24.8148C37.0583 24.8148 38.8864 22.9866 38.8864 20.6546C38.8864 18.3108 37.0583 16.4827 34.7146 16.4827C32.3708 16.4827 30.5427 18.3108 30.5427 20.6546C30.5427 22.9866 32.3708 24.8148 34.7146 24.8148ZM34.7146 23.0452C33.3786 23.0452 32.3122 21.9905 32.3122 20.6546C32.3122 19.3069 33.3786 18.2523 34.7146 18.2523C36.0505 18.2523 37.1169 19.3069 37.1169 20.6546C37.1169 21.9905 36.0505 23.0452 34.7146 23.0452ZM37.9255 21.9788L39.988 21.7562C42.238 21.5218 43.3396 20.2679 43.3396 17.9358L43.3396 15.8968C43.3396 13.1194 42.2966 11.9358 39.6482 11.4437L34.1638 10.4241C32.5818 10.1194 31.1872 9.9671 29.2888 10.0726L13.9255 11.0101L13.3864 12.9319L29.1833 11.971C30.7302 11.8773 32.0778 11.9944 34.0583 12.3812L39.32 13.389C40.8669 13.6819 41.4528 14.3616 41.4528 15.8968L41.4528 17.9358C41.4528 19.1429 40.8903 19.7874 39.7419 19.9046L37.9255 20.0921Z" fill="black" fill-opacity="0.85"/>
  <path d="M39.8005 2.17413L37.9138 7.03741C37.6208 7.81085 38.0896 8.23272 38.863 8.0335L43.1638 6.94366C43.82 6.7796 44.0075 6.24053 43.6325 5.71319L41.1364 2.04522C40.7146 1.42413 40.1052 1.41241 39.8005 2.17413ZM30.695 6.01788L30.5427 0.814753C30.5075-0.0289966 29.9333-0.204778 29.3122 0.228816L25.738 2.85382C25.1872 3.24053 25.2107 3.79132 25.7614 4.16632L29.4646 6.66241C30.1325 7.10772 30.7185 6.84991 30.695 6.01788ZM38.7341 5.596C39.8943 6.1585 40.7614 4.33038 39.4489 3.721C36.4372 2.36163 32.9568 2.17413 30.4138 2.36163C28.8669 2.45538 29.0193 4.45928 30.4489 4.35382C32.9099 4.16632 36.0857 4.35382 38.7341 5.596Z" fill="black" fill-opacity="0.85"/>
 </g>
</svg>
