<?xml version="1.0" encoding="UTF-8"?>
<!--Generator: Apple Native CoreSVG 360-->
<!DOCTYPE svg
PUBLIC "-//W3C//DTD SVG 1.1//EN"
       "http://www.w3.org/Graphics/SVG/1.1/DTD/svg11.dtd">
<svg version="1.1" xmlns="http://www.w3.org/2000/svg" xmlns:xlink="http://www.w3.org/1999/xlink" viewBox="0 0 23.5078 19.4883">
 <g>
  <rect height="19.4883" opacity="0" width="23.5078" x="0" y="0"/>
  <path d="M1.55859 2.34375L5.28516 2.34375C5.73047 2.34375 6.07031 2.46094 6.33984 2.73047L10.5 6.89062L12.1406 6.05859L7.71094 1.62891C7.03125 0.949219 6.14062 0.65625 5.08594 0.65625L1.55859 0.65625C1.01953 0.65625 0.679688 0.996094 0.679688 1.5C0.679688 2.00391 1.01953 2.34375 1.55859 2.34375ZM8.625 19.4883C10.957 19.4883 12.7852 17.6602 12.7852 15.3281C12.7852 12.9844 10.957 11.1562 8.625 11.1562C6.28125 11.1562 4.45312 12.9844 4.45312 15.3281C4.45312 17.6602 6.28125 19.4883 8.625 19.4883ZM8.625 17.7188C7.27734 17.7188 6.22266 16.6641 6.22266 15.3281C6.22266 13.9805 7.27734 12.9258 8.625 12.9258C9.96094 12.9258 11.0156 13.9805 11.0156 15.3281C11.0156 16.6641 9.96094 17.7188 8.625 17.7188ZM23.1562 16.9336L23.1562 15.0469L11.543 15.0469L11.543 16.9336ZM23.1562 7.00781L23.1562 5.12109L13.793 5.68359L13.2422 7.60547ZM2.55469 17.1328L5.51953 17.4727L5.70703 15.5859L3 15.2812C2.23828 15.1992 1.88672 14.8477 1.88672 14.168L1.88672 12.75C1.88672 10.7344 3.24609 9.53906 5.96484 9.02344L13.5234 7.59375C14.1562 7.47656 14.6836 7.40625 15.0703 7.07812C17.2148 5.26172 19.6523 3.62109 22.3359 2.19141C23.4609 1.60547 22.5469 0 21.3398 0.632812C18.5625 2.10938 15.9375 3.82031 13.6992 5.68359L5.71875 7.18359C1.91016 7.89844 0 9.65625 0 12.75L0 14.3086C0 16.0664 0.785156 16.9453 2.55469 17.1328Z" fill="black" fill-opacity="0.85"/>
 </g>
</svg>
