<?xml version="1.0" encoding="UTF-8"?>
<!--Generator: Apple Native CoreSVG 360-->
<!DOCTYPE svg
PUBLIC "-//W3C//DTD SVG 1.1//EN"
       "http://www.w3.org/Graphics/SVG/1.1/DTD/svg11.dtd">
<svg version="1.1" xmlns="http://www.w3.org/2000/svg" xmlns:xlink="http://www.w3.org/1999/xlink" viewBox="0 0 43.5469 29.1914">
 <g>
  <rect height="29.1914" opacity="0" width="43.5469" x="0" y="0"/>
  <path d="M18.4268 9.39263C17.9726 9.69834 17.5287 10.0115 17.0979 10.3333L18.4523 10.2506L18.4805 11.2031C18.4938 11.533 18.5614 11.8442 18.6772 12.1267L13.5674 12.4373C13.553 12.4399 13.5382 12.4426 13.5234 12.4453L5.96484 13.875C3.24609 14.3906 1.88672 15.5859 1.88672 17.6016L1.88672 19.0195C1.88672 19.6992 2.23828 20.0508 3 20.1328L4.45887 20.297C4.45365 20.2589 4.45312 20.2194 4.45312 20.1797C4.45312 17.8359 6.28125 16.0078 8.625 16.0078C10.8624 16.0078 12.6359 17.6906 12.7715 19.8984L30.4239 19.8984C30.5594 17.6906 32.3334 16.0078 34.582 16.0078C36.6912 16.0078 38.3881 17.5032 38.6883 19.5248L39.6094 19.4297C40.7578 19.3125 41.3086 18.668 41.3086 17.4609L41.3086 15.4219C41.3086 13.8867 40.7344 13.207 39.1758 12.9141L33.9258 11.9062C31.9453 11.5195 30.5977 11.4023 29.0508 11.4961L23.586 11.8283C23.6423 11.6306 23.6748 11.4209 23.6836 11.2031L23.7213 9.92884L29.1445 9.59766C31.0547 9.49219 32.4375 9.64453 34.0312 9.94922L39.5156 10.9688C42.1641 11.4609 43.1953 12.6445 43.1953 15.4219L43.1953 17.4609C43.1953 19.793 42.1055 21.0469 39.8438 21.2812L38.5604 21.4206C38.0443 23.1288 36.4801 24.3398 34.582 24.3398C32.8134 24.3398 31.3384 23.2988 30.7222 21.7852L12.4733 21.7852C11.8576 23.2988 10.3848 24.3398 8.625 24.3398C7.05078 24.3398 5.70917 23.5151 5.00096 22.2648L2.55469 21.9844C0.785156 21.7969 0 20.918 0 19.1602L0 17.6016C0 14.5078 1.91016 12.75 5.71875 12.0352L13.6992 10.5352C15.1177 9.35429 16.6916 8.2346 18.3618 7.19762ZM6.22266 20.1797C6.22266 21.5156 7.27734 22.5703 8.625 22.5703C9.96094 22.5703 11.0156 21.5156 11.0156 20.1797C11.0156 18.832 9.96094 17.7773 8.625 17.7773C7.27734 17.7773 6.22266 18.832 6.22266 20.1797ZM32.1797 20.1797C32.1797 21.5156 33.2344 22.5703 34.582 22.5703C35.918 22.5703 36.9727 21.5156 36.9727 20.1797C36.9727 18.832 35.918 17.7773 34.582 17.7773C33.2344 17.7773 32.1797 18.832 32.1797 20.1797Z" fill="black" fill-opacity="0.85"/>
  <path d="M21.082 17.3438C21.9258 17.3438 22.6172 16.6641 22.6172 15.8672C22.6172 15.0586 21.9375 14.3906 21.082 14.3906C20.2383 14.3906 19.5469 15.0586 19.5469 15.8672C19.5469 16.6641 20.25 17.3438 21.082 17.3438ZM21.082 12.1406C21.6562 12.1406 22.0664 11.7422 22.0898 11.1445L22.3359 2.84766C22.3594 2.09766 21.8555 1.59375 21.082 1.59375C20.3086 1.59375 19.8164 2.09766 19.8398 2.84766L20.0859 11.1445C20.1094 11.7422 20.5078 12.1406 21.082 12.1406Z" fill="black" fill-opacity="0.85"/>
 </g>
</svg>
