<?xml version="1.0" encoding="UTF-8"?>
<!--Generator: Apple Native CoreSVG 360-->
<!DOCTYPE svg
PUBLIC "-//W3C//DTD SVG 1.1//EN"
       "http://www.w3.org/Graphics/SVG/1.1/DTD/svg11.dtd">
<svg version="1.1" xmlns="http://www.w3.org/2000/svg" xmlns:xlink="http://www.w3.org/1999/xlink" viewBox="0 0 43.8237 26.9608">
 <g>
  <rect height="26.9608" opacity="0" width="43.8237" x="0" y="0"/>
  <path d="M22.4685 5.92769C20.5964 6.92504 18.8498 8.02504 17.2357 9.21789L29.2888 8.48238C31.1872 8.37691 32.5818 8.52925 34.1638 8.83394L39.6482 9.85347C42.2966 10.3457 43.3396 11.5293 43.3396 14.3066L43.3396 16.3457C43.3396 18.6777 42.238 19.9316 39.988 20.166L38.7047 20.3045C38.1886 22.0132 36.6224 23.2246 34.7146 23.2246C32.9459 23.2246 31.4709 22.1835 30.8547 20.6699L12.6173 20.6699C12.0012 22.1835 10.5262 23.2246 8.75753 23.2246C7.18331 23.2246 5.8417 22.3998 5.13349 21.1495L2.68722 20.8691C0.917688 20.6816 0.132532 19.8027 0.132532 18.0449L0.132532 16.4863C0.132532 13.3925 2.05441 11.6347 5.85128 10.9199L13.8435 9.41988C16.07 7.5566 18.7068 5.84566 21.4724 4.3691C22.6794 3.73628 23.5935 5.34175 22.4685 5.92769ZM6.35519 19.0644C6.35519 20.4003 7.42159 21.455 8.75753 21.455C10.0935 21.455 11.1599 20.4003 11.1599 19.0644C11.1599 17.7168 10.0935 16.6621 8.75753 16.6621C7.42159 16.6621 6.35519 17.7168 6.35519 19.0644ZM32.3122 19.0644C32.3122 20.4003 33.3786 21.455 34.7146 21.455C36.0505 21.455 37.1169 20.4003 37.1169 19.0644C37.1169 17.7168 36.0505 16.6621 34.7146 16.6621C33.3786 16.6621 32.3122 17.7168 32.3122 19.0644ZM29.1833 10.3808L13.6952 11.323C13.6824 11.3252 13.6692 11.3276 13.656 11.33L6.09738 12.7597C3.39034 13.2753 2.01925 14.4707 2.01925 16.4863L2.01925 17.9043C2.01925 18.5839 2.37081 18.9355 3.13253 19.0175L4.5914 19.1817C4.58619 19.1436 4.58566 19.1041 4.58566 19.0644C4.58566 16.7207 6.41378 14.8925 8.75753 14.8925C11.0062 14.8925 12.7802 16.5753 12.9157 18.7832L30.5564 18.7832C30.6919 16.5753 32.4659 14.8925 34.7146 14.8925C36.8339 14.8925 38.5316 16.3873 38.8323 18.4083L39.7419 18.3144C40.8903 18.1972 41.4528 17.5527 41.4528 16.3457L41.4528 14.3066C41.4528 12.7714 40.8669 12.0918 39.32 11.7988L34.0583 10.791C32.0778 10.4043 30.7302 10.2871 29.1833 10.3808Z" fill="black" fill-opacity="0.85"/>
  <path d="M38.7341 4.00582C39.9294 4.58003 40.9138 2.79878 39.4489 2.13082C36.3435 0.748003 32.7458 0.548784 30.0974 0.806597C29.5466 0.853472 29.1247 1.33394 29.1599 1.88472C29.2068 2.4355 29.6989 2.84566 30.2497 2.8105C32.8044 2.55269 36.0271 2.75191 38.7341 4.00582ZM39.8005 0.58394L37.9138 5.44722C37.6325 6.23238 38.0896 6.64253 38.863 6.44332L43.1638 5.35347C43.82 5.20113 44.0075 4.66207 43.6325 4.13472L41.1364 0.455034C40.7146-0.16606 40.1052-0.177778 39.8005 0.58394Z" fill="black" fill-opacity="0.85"/>
 </g>
</svg>
