<?xml version="1.0" encoding="UTF-8"?>
<!--Generator: Apple Native CoreSVG 360-->
<!DOCTYPE svg
PUBLIC "-//W3C//DTD SVG 1.1//EN"
       "http://www.w3.org/Graphics/SVG/1.1/DTD/svg11.dtd">
<svg version="1.1" xmlns="http://www.w3.org/2000/svg" xmlns:xlink="http://www.w3.org/1999/xlink" viewBox="0 0 43.5469 26.6133">
 <g>
  <rect height="26.6133" opacity="0" width="43.5469" x="0" y="0"/>
  <path d="M15.832 10.2891C15.832 10.5405 15.8526 10.7803 15.8933 11.0068L13.5674 11.1482C13.553 11.1508 13.5382 11.1535 13.5234 11.1562L5.96484 12.5859C3.24609 13.1016 1.88672 14.2969 1.88672 16.3125L1.88672 17.7305C1.88672 18.4102 2.23828 18.7617 3 18.8438L4.45887 19.008C4.45365 18.9698 4.45312 18.9303 4.45312 18.8906C4.45312 16.5469 6.28125 14.7188 8.625 14.7188C10.8624 14.7188 12.6359 16.4015 12.7715 18.6094L30.4239 18.6094C30.5594 16.4015 32.3334 14.7188 34.582 14.7188C36.6912 14.7188 38.3881 16.2141 38.6883 18.2357L39.6094 18.1406C40.7578 18.0234 41.3086 17.3789 41.3086 16.1719L41.3086 14.1328C41.3086 12.5977 40.7344 11.918 39.1758 11.625L33.9258 10.6172C31.9453 10.2305 30.5977 10.1133 29.0508 10.207L27.3625 10.3097C27.3633 10.3031 27.3633 10.2961 27.3633 10.2891L27.3633 8.41737L29.1445 8.30859C31.0547 8.20312 32.4375 8.35547 34.0312 8.66016L39.5156 9.67969C42.1641 10.1719 43.1953 11.3555 43.1953 14.1328L43.1953 16.1719C43.1953 18.5039 42.1055 19.7578 39.8438 19.9922L38.5604 20.1315C38.0443 21.8398 36.4801 23.0508 34.582 23.0508C32.8134 23.0508 31.3384 22.0098 30.7222 20.4961L12.4733 20.4961C11.8576 22.0098 10.3848 23.0508 8.625 23.0508C7.05078 23.0508 5.70917 22.226 5.00096 20.9757L2.55469 20.6953C0.785156 20.5078 0 19.6289 0 17.8711L0 16.3125C0 13.2188 1.91016 11.4609 5.71875 10.7461L13.6992 9.24609C14.3758 8.68288 15.0877 8.13358 15.832 7.6025ZM6.22266 18.8906C6.22266 20.2266 7.27734 21.2812 8.625 21.2812C9.96094 21.2812 11.0156 20.2266 11.0156 18.8906C11.0156 17.543 9.96094 16.4883 8.625 16.4883C7.27734 16.4883 6.22266 17.543 6.22266 18.8906ZM32.1797 18.8906C32.1797 20.2266 33.2344 21.2812 34.582 21.2812C35.918 21.2812 36.9727 20.2266 36.9727 18.8906C36.9727 17.543 35.918 16.4883 34.582 16.4883C33.2344 16.4883 32.1797 17.543 32.1797 18.8906Z" fill="black" fill-opacity="0.85"/>
  <path d="M18.9492 11.8828L24.2578 11.8828C25.2422 11.8828 25.7578 11.3555 25.7578 10.2891L25.7578 6.21094C25.7578 5.15625 25.2422 4.62891 24.2578 4.62891L18.9492 4.62891C17.9531 4.62891 17.4375 5.15625 17.4375 6.21094L17.4375 10.2891C17.4375 11.3555 17.9531 11.8828 18.9492 11.8828ZM18.457 5.57812L19.7344 5.57812L19.7344 3.23438C19.7344 2.03906 20.4609 1.26562 21.5977 1.26562C22.7461 1.26562 23.4727 2.03906 23.4727 3.23438L23.4727 5.57812L24.7383 5.57812L24.7383 3.43359C24.7383 1.32422 23.5195 0 21.5977 0C19.6875 0 18.457 1.32422 18.457 3.43359Z" fill="black" fill-opacity="0.85"/>
 </g>
</svg>
