<?xml version="1.0" encoding="UTF-8"?>
<!--Generator: Apple Native CoreSVG 360-->
<!DOCTYPE svg
PUBLIC "-//W3C//DTD SVG 1.1//EN"
       "http://www.w3.org/Graphics/SVG/1.1/DTD/svg11.dtd">
<svg version="1.1" xmlns="http://www.w3.org/2000/svg" xmlns:xlink="http://www.w3.org/1999/xlink" viewBox="0 0 39.9418 29.7231">
 <g>
  <rect height="29.7231" opacity="0" width="39.9418" x="0" y="0"/>
  <path d="M7.72483 8.31662L9.67014 9.7463L10.5608 8.4924L8.79124 7.19162C8.28733 6.82833 8.18186 6.4299 8.46311 5.96115L9.03733 4.96505C9.84592 3.5588 11.2873 3.26583 13.4084 4.00412L19.2795 6.06662C19.7834 6.2424 20.1701 6.40646 20.5803 6.32443C22.8303 5.91427 25.1975 5.75021 27.6467 5.84396C28.678 5.89083 28.6897 4.39083 27.5764 4.34396C25.0451 4.26193 22.5139 4.39083 20.1819 4.80099L13.9709 2.60958C11.0178 1.57833 8.96702 2.02365 7.71311 4.20333L7.0803 5.29318C6.36545 6.53537 6.56467 7.46115 7.72483 8.31662ZM11.0295 12.4182C12.6701 13.3674 14.6858 12.8283 15.635 11.1877C16.5842 9.54708 16.0451 7.51974 14.4045 6.58224C12.7639 5.63302 10.7365 6.17208 9.78733 7.81271C8.84983 9.45333 9.38889 11.4807 11.0295 12.4182ZM11.7444 11.176C10.8069 10.6369 10.4905 9.46505 11.0295 8.52755C11.5803 7.59005 12.7522 7.27365 13.6897 7.82443C14.6272 8.36349 14.9436 9.53537 14.3928 10.4729C13.8537 11.4104 12.6819 11.7268 11.7444 11.176ZM14.1115 11.8088L28.303 20.0002L29.0647 18.676L14.8733 10.4846ZM29.2405 22.9416C30.8811 23.8791 32.8967 23.3401 33.8459 21.6994C34.7951 20.0588 34.2561 18.0432 32.6155 17.094C30.9748 16.1447 28.9475 16.6838 27.9983 18.3244C27.049 19.9651 27.5998 21.9924 29.2405 22.9416ZM29.9553 21.6994C29.0178 21.1486 28.7014 19.9768 29.2405 19.0393C29.7795 18.1018 30.9514 17.7854 31.9006 18.3361C32.8381 18.8752 33.1428 20.0471 32.6037 20.9846C32.0647 21.9221 30.8928 22.2385 29.9553 21.6994ZM32.6389 22.2385L34.174 22.9182C35.8498 23.6682 37.1272 23.2346 38.0764 21.6057L38.8967 20.176C40.0217 18.219 39.7639 16.9768 38.1115 15.5588L34.678 12.6057C33.6936 11.7619 32.7795 11.0822 31.3967 10.3908L20.2405 4.83615L19.0803 5.96115L30.5647 11.6916C31.678 12.2424 32.5803 12.8752 33.8108 13.9416L37.092 16.7776C38.0647 17.6213 38.1936 18.3244 37.5725 19.4026L36.7522 20.8322C36.26 21.676 35.6155 21.9104 34.7483 21.5236L33.4006 20.926Z" fill="black" fill-opacity="0.85"/>
  <path d="M0.13108 10.1096C-0.138452 10.5783 0.025611 11.1526 0.459205 11.4104L31.924 29.5861C32.3576 29.844 32.9436 29.6916 33.2014 29.258C33.4592 28.7776 33.2951 28.2033 32.8733 27.9572L1.3967 9.76974C0.97483 9.52365 0.377173 9.67599 0.13108 10.1096Z" fill="black" fill-opacity="0.85"/>
  <path d="M4.09202 5.4924L6.56467 1.21505C6.97483 0.511928 6.40061-0.120885 5.67405 0.0197401L1.90061 0.711146C1.38499 0.816615 1.15061 1.21505 1.33811 1.71896L2.61545 5.31662C2.86155 6.01974 3.68186 6.19552 4.09202 5.4924Z" fill="black" fill-opacity="0.85"/>
 </g>
</svg>
