<?xml version="1.0" encoding="UTF-8"?>
<!--Generator: Apple Native CoreSVG 360-->
<!DOCTYPE svg
PUBLIC "-//W3C//DTD SVG 1.1//EN"
       "http://www.w3.org/Graphics/SVG/1.1/DTD/svg11.dtd">
<svg version="1.1" xmlns="http://www.w3.org/2000/svg" xmlns:xlink="http://www.w3.org/1999/xlink" viewBox="0 0 23.9297 23.5898">
 <g>
  <rect height="23.5898" opacity="0" width="23.9297" x="0" y="0"/>
  <path d="M0 15.6797C0 16.2422 0.375 16.6289 0.9375 16.6289L2.14453 16.6289L2.14453 20.5195C2.14453 21.082 2.51953 21.4453 3.08203 21.4453L6.96094 21.4453L6.96094 22.6523C6.96094 23.2148 7.34766 23.5898 7.91016 23.5898C8.47266 23.5898 8.84766 23.2148 8.84766 22.6523L8.84766 21.4453L10.8516 21.4453L10.8516 22.6523C10.8516 23.2148 11.2266 23.5898 11.7891 23.5898C12.3516 23.5898 12.7383 23.2148 12.7383 22.6523L12.7383 21.4453L14.7305 21.4453L14.7305 22.6523C14.7305 23.2148 15.1055 23.5898 15.668 23.5898C16.2422 23.5898 16.6172 23.2148 16.6172 22.6523L16.6172 21.4453L20.4961 21.4453C21.0586 21.4453 21.4336 21.082 21.4336 20.5195L21.4336 16.6172L22.6406 16.6172C23.2031 16.6172 23.5781 16.2305 23.5781 15.668C23.5781 15.1055 23.2031 14.7305 22.6406 14.7305L21.4336 14.7305L21.4336 12.7266L22.6406 12.7266C23.2031 12.7266 23.5781 12.3516 23.5781 11.7891C23.5781 11.2266 23.2031 10.8398 22.6406 10.8398L21.4336 10.8398L21.4336 8.84766L22.6406 8.84766C23.2031 8.84766 23.5781 8.46094 23.5781 7.89844C23.5781 7.33594 23.2031 6.96094 22.6406 6.96094L21.4336 6.96094L21.4336 3.09375C21.4336 2.53125 21.0586 2.15625 20.4961 2.15625L16.6172 2.15625L16.6172 0.960938C16.6172 0.398438 16.2422 0.0117188 15.668 0.0117188C15.1055 0.0117188 14.7305 0.398438 14.7305 0.960938L14.7305 2.15625L12.7383 2.15625L12.7383 0.960938C12.7383 0.398438 12.3516 0.0117188 11.7891 0.0117188C11.2266 0.0117188 10.8516 0.398438 10.8516 0.960938L10.8516 2.15625L8.84766 2.15625L8.84766 0.960938C8.84766 0.398438 8.47266 0.0117188 7.91016 0.0117188C7.34766 0.0117188 6.96094 0.398438 6.96094 0.960938L6.96094 2.15625L3.08203 2.15625C2.51953 2.15625 2.14453 2.53125 2.14453 3.09375L2.14453 6.97266L0.9375 6.97266C0.375 6.97266 0 7.34766 0 7.91016C0 8.47266 0.375 8.85938 0.9375 8.85938L2.14453 8.85938L2.14453 10.8516L0.9375 10.8516C0.375 10.8516 0 11.2383 0 11.8008C0 12.3633 0.375 12.7383 0.9375 12.7383L2.14453 12.7383L2.14453 14.7422L0.9375 14.7422C0.375 14.7422 0 15.1172 0 15.6797ZM4.03125 19.2188L4.03125 4.39453C4.03125 4.13672 4.125 4.04297 4.37109 4.04297L19.207 4.04297C19.4531 4.04297 19.5469 4.13672 19.5469 4.39453L19.5469 19.2188C19.5469 19.4766 19.4531 19.5586 19.207 19.5586L4.37109 19.5586C4.125 19.5586 4.03125 19.4766 4.03125 19.2188ZM7.44141 17.0508L16.1602 17.0508C16.7578 17.0508 17.0391 16.7695 17.0391 16.1484L17.0391 7.45312C17.0391 6.84375 16.7578 6.5625 16.1602 6.5625L7.44141 6.5625C6.84375 6.5625 6.55078 6.84375 6.55078 7.45312L6.55078 16.1484C6.55078 16.7695 6.84375 17.0508 7.44141 17.0508ZM8.08594 15.2344L8.08594 8.37891C8.08594 8.20312 8.20312 8.09766 8.36719 8.09766L15.2227 8.09766C15.3984 8.09766 15.5039 8.20312 15.5039 8.37891L15.5039 15.2344C15.5039 15.3984 15.3984 15.5156 15.2227 15.5156L8.36719 15.5156C8.20312 15.5156 8.08594 15.3984 8.08594 15.2344Z" fill="black" fill-opacity="0.85"/>
 </g>
</svg>
