<?xml version="1.0" encoding="UTF-8"?>
<!--Generator: Apple Native CoreSVG 360-->
<!DOCTYPE svg
PUBLIC "-//W3C//DTD SVG 1.1//EN"
       "http://www.w3.org/Graphics/SVG/1.1/DTD/svg11.dtd">
<svg version="1.1" xmlns="http://www.w3.org/2000/svg" xmlns:xlink="http://www.w3.org/1999/xlink" viewBox="0 0 34.6992 25.5352">
 <g>
  <rect height="25.5352" opacity="0" width="34.6992" x="0" y="0"/>
  <path d="M30.9375 6.39844L30.9375 14.0126C30.6424 13.9608 30.3331 13.9336 30.0117 13.9336C29.6776 13.9336 29.3565 13.9631 29.0508 14.0197L29.0508 10.0898L5.28516 10.0898L5.28516 19.0547C5.28516 20.2734 5.94141 20.8945 7.11328 20.8945L16.6055 20.8945L16.6055 22.7812L7.07812 22.7812C4.64062 22.7812 3.39844 21.5742 3.39844 19.1602L3.39844 6.39844C3.39844 3.98438 4.64062 2.76562 7.07812 2.76562L27.2578 2.76562C29.7188 2.76562 30.9375 3.98438 30.9375 6.39844ZM7.11328 4.65234C5.94141 4.65234 5.28516 5.28516 5.28516 6.50391L5.28516 7.42969L29.0508 7.42969L29.0508 6.50391C29.0508 5.28516 28.3945 4.65234 27.2344 4.65234Z" fill="black" fill-opacity="0.85"/>
  <path d="M30.0234 23.9414C31.793 23.9414 33.0938 22.875 33.0938 21.4219C33.0938 20.3086 32.3203 19.4531 31.2539 19.3477L31.2539 19.7578C32.2031 19.4766 32.7656 18.7383 32.7656 17.7891C32.7656 16.4766 31.6055 15.5273 30.0117 15.5273C28.8047 15.5273 27.8086 16.0781 27.3984 16.957C27.293 17.1797 27.2344 17.4258 27.2344 17.6602C27.2344 18.0703 27.5156 18.3516 27.9258 18.3516C28.2891 18.3516 28.5 18.1875 28.6055 17.8359C28.8047 17.25 29.2734 16.9219 29.9766 16.9219C30.7734 16.9219 31.2539 17.3086 31.2539 17.918C31.2539 18.5508 30.7383 18.9492 29.9297 18.9492L29.3438 18.9492C28.9453 18.9492 28.6641 19.2422 28.6641 19.6289C28.6641 20.0156 28.9453 20.2969 29.3438 20.2969L29.9414 20.2969C30.9727 20.2969 31.5352 20.6953 31.5352 21.4219C31.5352 22.0898 30.9375 22.5352 30.0352 22.5352C29.2266 22.5352 28.6641 22.1953 28.4766 21.6211C28.3711 21.2695 28.1367 21.1055 27.7852 21.1055C27.3633 21.1055 27.0586 21.3984 27.0586 21.8203C27.0586 22.043 27.1172 22.2891 27.2344 22.5C27.7266 23.4141 28.7227 23.9414 30.0234 23.9414Z" fill="black" fill-opacity="0.85"/>
  <path d="M21.5039 23.8242L25.9102 23.8242C26.3203 23.8242 26.625 23.5312 26.625 23.1328C26.625 22.7109 26.3203 22.4062 25.9102 22.4062L23.1211 22.4062L23.1211 22.3477L24.6562 20.8242C25.957 19.5469 26.3672 18.8438 26.3672 17.9531C26.3672 16.5703 25.1719 15.5273 23.5664 15.5273C22.3125 15.5273 21.2461 16.2422 20.8945 17.2734C20.8359 17.4492 20.7891 17.625 20.7891 17.8242C20.7891 18.2461 21.082 18.5273 21.4805 18.5273C21.8438 18.5273 22.0664 18.3516 22.1719 17.9531C22.1953 17.8594 22.2188 17.7773 22.2539 17.6953C22.4883 17.2031 22.9688 16.9219 23.5664 16.9219C24.2695 16.9219 24.8438 17.4258 24.8438 18.0117C24.8438 18.5391 24.6094 18.9023 23.6133 19.8867L21.1289 22.3594C20.8594 22.6172 20.7539 22.8398 20.7539 23.1094C20.7539 23.5312 21.0586 23.8242 21.5039 23.8242Z" fill="black" fill-opacity="0.85"/>
  <path d="M18.9492 23.9297C19.418 23.9297 19.7227 23.625 19.7227 23.168L19.7227 16.3828C19.7227 15.9023 19.3945 15.5742 18.8906 15.5742C18.6328 15.5742 18.4453 15.6445 18.1523 15.8438L16.3828 16.9922C16.1016 17.168 15.9727 17.3906 15.9727 17.6602C15.9727 18.0352 16.2656 18.3047 16.6523 18.3047C16.8047 18.3047 16.9453 18.2578 17.0977 18.1523L18.1406 17.4961L18.2109 17.4961L18.2109 23.168C18.2109 23.625 18.5156 23.9297 18.9492 23.9297Z" fill="black" fill-opacity="0.85"/>
 </g>
</svg>
