<?xml version="1.0" encoding="UTF-8"?>
<!--Generator: Apple Native CoreSVG 360-->
<!DOCTYPE svg
PUBLIC "-//W3C//DTD SVG 1.1//EN"
       "http://www.w3.org/Graphics/SVG/1.1/DTD/svg11.dtd">
<svg version="1.1" xmlns="http://www.w3.org/2000/svg" xmlns:xlink="http://www.w3.org/1999/xlink" viewBox="0 0 27.8906 20.0273">
 <g>
  <rect height="20.0273" opacity="0" width="27.8906" x="0" y="0"/>
  <path d="M0.949219 7.33594L26.6016 7.33594L26.6016 4.67578L0.949219 4.67578ZM5.32031 16.1484L6.9375 14.9766L8.54297 16.1484C8.87109 16.3945 9.21094 16.1484 9.09375 15.7617L8.44922 13.8633L10.0781 12.7031C10.3711 12.4805 10.2773 12.0469 9.86719 12.0586L7.875 12.0703L7.26562 10.1602C7.14844 9.79688 6.72656 9.79688 6.60938 10.1602L5.98828 12.0703L3.99609 12.0586C3.58594 12.0469 3.49219 12.4805 3.78516 12.7148L5.41406 13.8633L4.78125 15.7617C4.65234 16.1484 5.00391 16.3945 5.32031 16.1484ZM3.67969 20.0273L23.8594 20.0273C26.3203 20.0273 27.5391 18.8203 27.5391 16.4062L27.5391 3.64453C27.5391 1.23047 26.3203 0.0117188 23.8594 0.0117188L3.67969 0.0117188C1.23047 0.0117188 0 1.23047 0 3.64453L0 16.4062C0 18.8203 1.23047 20.0273 3.67969 20.0273ZM3.70312 18.1406C2.53125 18.1406 1.88672 17.5195 1.88672 16.3008L1.88672 3.75C1.88672 2.53125 2.53125 1.89844 3.70312 1.89844L23.8359 1.89844C24.9844 1.89844 25.6523 2.53125 25.6523 3.75L25.6523 16.3008C25.6523 17.5195 24.9844 18.1406 23.8359 18.1406Z" fill="black" fill-opacity="0.85"/>
 </g>
</svg>
