<?xml version="1.0" encoding="UTF-8"?>
<!--Generator: Apple Native CoreSVG 360-->
<!DOCTYPE svg
PUBLIC "-//W3C//DTD SVG 1.1//EN"
       "http://www.w3.org/Graphics/SVG/1.1/DTD/svg11.dtd">
<svg version="1.1" xmlns="http://www.w3.org/2000/svg" xmlns:xlink="http://www.w3.org/1999/xlink" viewBox="0 0 23.2852 28.5526">
 <g>
  <rect height="28.5526" opacity="0" width="23.2852" x="0" y="0"/>
  <path d="M17.0273 4.66108L17.0273 0.758733C17.0273-0.0264235 16.4414-0.202205 15.8555 0.231389L13.1836 2.18842C12.75 2.51655 12.7383 2.87983 13.1836 3.21967L15.8555 5.16498C16.4414 5.59858 17.0273 5.41108 17.0273 4.66108ZM15.375 2.14155C15.0352 2.14155 14.7656 2.41108 14.7656 2.75092C14.7656 3.09076 15.0352 3.37201 15.375 3.37201L17.2266 3.37201C19.3945 3.37201 20.8242 4.84858 20.8242 7.06342L20.8242 8.49311C20.8242 8.85639 21.1406 9.1728 21.5039 9.1728C21.8555 9.1728 22.1602 8.85639 22.1602 8.49311L22.1602 7.06342C22.1602 4.09858 20.2031 2.14155 17.2383 2.14155ZM5.97656 23.8681L5.97656 27.7822C5.97656 28.5673 6.5625 28.7314 7.14844 28.2978L9.82031 26.3525C10.2539 26.0244 10.2656 25.6494 9.82031 25.3212L7.14844 23.3759C6.5625 22.9423 5.97656 23.1298 5.97656 23.8681ZM7.62891 26.3994C7.96875 26.3994 8.23828 26.1298 8.23828 25.79C8.23828 25.4384 7.96875 25.1689 7.62891 25.1689L5.77734 25.1689C3.60938 25.1689 2.17969 23.6923 2.17969 21.4658L2.17969 20.0478C2.17969 19.6845 1.86328 19.3681 1.5 19.3681C1.14844 19.3681 0.84375 19.6845 0.84375 20.0478L0.84375 21.4775C0.84375 24.4423 2.80078 26.3994 5.76562 26.3994Z" fill="black" fill-opacity="0.85"/>
  <path d="M22.9336 18.7587C22.9336 18.2197 22.5586 17.8681 22.0078 17.8681L8.20312 17.8681C7.95703 17.8681 7.86328 17.7861 7.86328 17.5283L7.86328 3.84076C7.86328 3.25483 7.48828 2.85639 6.92578 2.85639C6.35156 2.85639 5.97656 3.25483 5.97656 3.84076L5.97656 18.7119C5.97656 19.2744 6.33984 19.6376 6.91406 19.6376L22.0078 19.6376C22.5586 19.6376 22.9336 19.2861 22.9336 18.7587ZM0 9.71186C0 10.2392 0.375 10.5908 0.914062 10.5908L14.8008 10.5908C15.0469 10.5908 15.1406 10.6845 15.1406 10.9306L15.1406 24.7001C15.1406 25.2861 15.5156 25.6845 16.0781 25.6845C16.6523 25.6845 17.0273 25.2861 17.0273 24.7001L17.0273 9.75873C17.0273 9.19623 16.6523 8.82123 16.0898 8.82123L0.914062 8.82123C0.375 8.82123 0 9.18451 0 9.71186Z" fill="black" fill-opacity="0.85"/>
 </g>
</svg>
