<?xml version="1.0" encoding="UTF-8"?>
<!--Generator: Apple Native CoreSVG 360-->
<!DOCTYPE svg
PUBLIC "-//W3C//DTD SVG 1.1//EN"
       "http://www.w3.org/Graphics/SVG/1.1/DTD/svg11.dtd">
<svg version="1.1" xmlns="http://www.w3.org/2000/svg" xmlns:xlink="http://www.w3.org/1999/xlink" viewBox="0 0 28.582 23.5195">
 <g>
  <rect height="23.5195" opacity="0" width="28.582" x="0" y="0"/>
  <path d="M28.2305 14.1094C28.2305 10.6641 26.9883 7.48828 24.9141 5.02734C24.6797 4.74609 24.2812 4.74609 24.0234 5.01562L21.3047 7.73438C21.082 7.95703 21.0703 8.27344 21.2695 8.51953C22.4766 10.0664 23.2031 12.0117 23.2031 14.1094C23.2031 16.2188 22.4766 18.1641 21.1992 19.793C21.0352 19.9922 21.0469 20.25 21.2227 20.4375L24.0117 23.2266C24.2812 23.4961 24.668 23.4961 24.9141 23.2031C26.9883 20.7422 28.2305 17.5664 28.2305 14.1094Z" fill="black" fill-opacity="0.85"/>
  <path d="M14.1094 5.02734C16.2305 5.02734 18.1758 5.76562 19.7344 6.97266C19.9688 7.16016 20.2734 7.13672 20.4961 6.91406L23.2148 4.19531C23.4844 3.92578 23.4727 3.53906 23.1914 3.30469C20.7422 1.24219 17.5664 0 14.1094 0C10.6641 0 7.48828 1.24219 5.03906 3.30469C4.75781 3.53906 4.74609 3.92578 5.01562 4.19531L7.73438 6.91406C7.95703 7.13672 8.27344 7.16016 8.53125 6.96094C10.0781 5.76562 12.0117 5.02734 14.1094 5.02734Z" fill="black" fill-opacity="0.85"/>
  <path d="M0 14.1094C0 17.5664 1.24219 20.7422 3.31641 23.2031C3.55078 23.4961 3.94922 23.4961 4.20703 23.2266L6.99609 20.4375C7.17188 20.25 7.19531 19.9922 7.03125 19.793C5.75391 18.1641 5.02734 16.2188 5.02734 14.1094C5.02734 12.0117 5.74219 10.0664 6.96094 8.51953C7.14844 8.27344 7.14844 7.95703 6.92578 7.73438L4.20703 5.01562C3.9375 4.74609 3.55078 4.74609 3.31641 5.02734C1.24219 7.48828 0 10.6641 0 14.1094Z" fill="black" fill-opacity="0.85"/>
  <path d="M14.1445 19.5469C15.9258 19.5469 17.543 18.6797 18.0703 17.1445C18.1406 16.9688 18.1641 16.8047 18.1641 16.6289C18.1641 16.2539 17.918 16.043 17.5312 16.043C17.168 16.043 16.9805 16.2422 16.875 16.5703C16.4883 17.7891 15.3516 18.3633 14.1562 18.3633C11.9766 18.3633 10.9922 16.4297 10.9922 14.2969C10.9922 12.1523 12.0117 10.2773 14.1562 10.2773C15.3867 10.2773 16.4531 10.9805 16.8047 12.0703C16.9219 12.4219 17.0977 12.6094 17.4375 12.6094C17.8008 12.6094 18.082 12.3633 18.082 12.0117C18.082 11.8828 18.0469 11.6719 17.9766 11.4961C17.4258 9.98438 15.8789 9.07031 14.1445 9.07031C11.25 9.07031 9.5625 11.2734 9.5625 14.2969C9.5625 17.2148 11.1094 19.5469 14.1445 19.5469ZM13.5 18.9375L14.3086 18.9375L14.3086 16.6172C14.3086 15.5039 15.082 14.7539 16.1953 14.7539C16.3711 14.7539 16.5469 14.8008 16.6406 14.8008C16.8867 14.8008 17.0391 14.6836 17.0391 14.4141C17.0391 14.25 16.957 14.1094 16.8047 14.0156C16.6641 13.9219 16.3828 13.875 16.1719 13.875C15.2695 13.875 14.5547 14.4375 14.3203 15.1875L14.2852 15.1875L14.2852 14.3086C14.2852 14.0625 14.1328 13.8867 13.8984 13.8867C13.6641 13.8867 13.5 14.0625 13.5 14.3086Z" fill="black" fill-opacity="0.85"/>
 </g>
</svg>
