<?xml version="1.0" encoding="UTF-8"?>
<!--Generator: Apple Native CoreSVG 360-->
<!DOCTYPE svg
PUBLIC "-//W3C//DTD SVG 1.1//EN"
       "http://www.w3.org/Graphics/SVG/1.1/DTD/svg11.dtd">
<svg version="1.1" xmlns="http://www.w3.org/2000/svg" xmlns:xlink="http://www.w3.org/1999/xlink" viewBox="0 0 26.5195 25.0195">
 <g>
  <rect height="25.0195" opacity="0" width="26.5195" x="0" y="0"/>
  <path d="M1.55859 22.2188L24.6094 22.2188L24.6094 21.4336C24.6094 20.9648 24.3398 20.6836 23.8594 20.6836L23.1094 20.6836L23.1094 8.03906L24.1406 8.03906C24.7852 8.03906 25.1602 7.57031 25.1602 7.08984C25.1602 6.73828 24.9609 6.43359 24.5273 6.1875L14.5195 0.410156C14.0508 0.140625 13.5586 0 13.0781 0C12.5977 0 12.0938 0.140625 11.6484 0.410156L1.64062 6.1875C1.19531 6.43359 1.00781 6.73828 1.00781 7.08984C1.00781 7.57031 1.38281 8.03906 2.02734 8.03906L3.05859 8.03906L3.05859 20.6836L2.32031 20.6836C1.83984 20.6836 1.55859 20.9648 1.55859 21.4336ZM4.82812 20.6836L4.82812 6.53906L12.6211 2.16797C12.7617 2.08594 12.9258 2.03906 13.0781 2.03906C13.2305 2.03906 13.3945 2.08594 13.5469 2.16797L21.3398 6.53906L21.3398 20.6836ZM0.9375 25.0078L25.2188 25.0078C25.7344 25.0078 26.168 24.5742 26.168 24.0586C26.168 23.543 25.7344 23.1211 25.2188 23.1211L0.9375 23.1211C0.421875 23.1211 0 23.543 0 24.0586C0 24.5742 0.421875 25.0078 0.9375 25.0078Z" fill="black" fill-opacity="0.85"/>
  <path d="M13.1367 17.6133C14.918 17.6133 16.5352 16.7461 17.0508 15.2109C17.1328 15.0352 17.1445 14.8711 17.1445 14.6953C17.1445 14.3203 16.8984 14.1094 16.5234 14.1094C16.1602 14.1094 15.9727 14.3086 15.8555 14.6367C15.4688 15.8555 14.3438 16.4297 13.1484 16.4297C10.9688 16.4297 9.98438 14.4961 9.98438 12.3633C9.98438 10.2188 11.0039 8.34375 13.1484 8.34375C14.3789 8.34375 15.4336 9.04688 15.7852 10.1367C15.9141 10.4883 16.0898 10.6758 16.4297 10.6758C16.7812 10.6758 17.0625 10.4297 17.0625 10.0781C17.0625 9.94922 17.0391 9.73828 16.9688 9.5625C16.4062 8.05078 14.8711 7.13672 13.1367 7.13672C10.2422 7.13672 8.54297 9.33984 8.54297 12.3633C8.54297 15.2812 10.1016 17.6133 13.1367 17.6133ZM12.4922 17.0039L13.2891 17.0039L13.2891 14.6836C13.2891 13.5703 14.0742 12.8203 15.1758 12.8203C15.3633 12.8203 15.5273 12.8672 15.6328 12.8672C15.8672 12.8672 16.0312 12.75 16.0312 12.4805C16.0312 12.3164 15.9492 12.1758 15.7969 12.082C15.6562 11.9883 15.375 11.9414 15.1641 11.9414C14.2617 11.9414 13.5352 12.5039 13.3008 13.2539L13.2773 13.2539L13.2773 12.375C13.2773 12.1289 13.1133 11.9531 12.8906 11.9531C12.6445 11.9531 12.4922 12.1289 12.4922 12.375Z" fill="black" fill-opacity="0.85"/>
 </g>
</svg>
