<?xml version="1.0" encoding="UTF-8"?>
<!--Generator: Apple Native CoreSVG 360-->
<!DOCTYPE svg
PUBLIC "-//W3C//DTD SVG 1.1//EN"
       "http://www.w3.org/Graphics/SVG/1.1/DTD/svg11.dtd">
<svg version="1.1" xmlns="http://www.w3.org/2000/svg" xmlns:xlink="http://www.w3.org/1999/xlink" viewBox="0 0 17.4375 20.9883">
 <g>
  <rect height="20.9883" opacity="0" width="17.4375" x="0" y="0"/>
  <path d="M9.10547 20.9883C12.668 20.9883 15.832 19.2891 16.9336 16.0078C17.0391 15.7266 17.0859 15.3867 17.0859 15.1172C17.0859 14.4492 16.6406 14.0508 16.0078 14.0508C15.375 14.0508 15.0703 14.4141 14.8477 15.0234C14.1094 17.4844 11.8359 18.8672 9.11719 18.8672C4.57031 18.8672 2.46094 15.0117 2.46094 10.4531C2.46094 5.85938 4.6875 2.13281 9.10547 2.13281C11.7188 2.13281 14.0039 3.66797 14.6953 6.03516C14.8945 6.66797 15.1641 6.99609 15.8203 6.99609C16.4883 6.99609 16.9336 6.58594 16.9336 5.92969C16.9336 5.61328 16.8867 5.35547 16.7578 5.03906C15.7148 1.91016 12.5859 0 9.10547 0C3.24609 0 0 4.47656 0 10.4531C0 16.4531 3.15234 20.9883 9.10547 20.9883ZM7.80469 20.0156L9.38672 20.0156L9.38672 15.2109C9.38672 14.0859 9.72656 13.1484 10.4297 12.4219C11.1445 11.707 12.0703 11.332 13.207 11.332C13.7344 11.332 13.8281 11.4375 14.1445 11.4375C14.6836 11.4375 14.9414 11.1797 14.9414 10.6758C14.9414 10.2891 14.7539 10.043 14.4492 9.87891C14.1094 9.70312 13.6055 9.63281 13.1719 9.63281C11.1797 9.63281 9.83203 10.875 9.38672 12.3398L9.35156 12.3398L9.35156 10.5C9.35156 10.0078 9.03516 9.66797 8.58984 9.66797C8.13281 9.66797 7.80469 10.0078 7.80469 10.5Z" fill="black" fill-opacity="0.85"/>
 </g>
</svg>
