<?xml version="1.0" encoding="UTF-8"?>
<!--Generator: Apple Native CoreSVG 360-->
<!DOCTYPE svg
PUBLIC "-//W3C//DTD SVG 1.1//EN"
       "http://www.w3.org/Graphics/SVG/1.1/DTD/svg11.dtd">
<svg version="1.1" xmlns="http://www.w3.org/2000/svg" xmlns:xlink="http://www.w3.org/1999/xlink" viewBox="0 0 28.582 23.4085">
 <g>
  <rect height="23.4085" opacity="0" width="28.582" x="0" y="0"/>
  <path d="M28.2305 14.0539C28.2305 6.67105 22.5586 0.612457 15.3398 0.00308175C14.9648-0.0320745 14.6836 0.237457 14.6836 0.612457L14.6836 4.44449C14.6836 4.76089 14.9062 5.00699 15.2227 5.03043C19.7109 5.58121 23.2031 9.41324 23.2031 14.0539C23.2031 16.1632 22.4766 18.1086 21.1992 19.7375C21.0352 19.9367 21.0469 20.1945 21.2227 20.382L24.0234 23.1711C24.2812 23.4289 24.6797 23.4289 24.9141 23.1476C26.9883 20.6867 28.2305 17.5109 28.2305 14.0539Z" fill="black" fill-opacity="0.85"/>
  <path d="M0 14.0539C0 17.5226 1.24219 20.6984 3.31641 23.1593C3.55078 23.4406 3.9375 23.4289 4.20703 23.1711L7.00781 20.382C7.18359 20.1945 7.19531 19.9367 7.03125 19.7375C5.74219 18.1086 5.02734 16.1632 5.02734 14.0539C5.02734 9.41324 8.51953 5.58121 13.0078 5.03043C13.3242 5.00699 13.5469 4.76089 13.5469 4.44449L13.5469 0.612457C13.5469 0.237457 13.2656-0.0320745 12.8906 0.00308175C5.67188 0.612457 0 6.67105 0 14.0539Z" fill="black" fill-opacity="0.85"/>
  <path d="M14.1445 19.4914C15.9258 19.4914 17.543 18.6242 18.0703 17.089C18.1406 16.9132 18.1641 16.7492 18.1641 16.5734C18.1641 16.1984 17.918 15.9875 17.5312 15.9875C17.168 15.9875 16.9805 16.1867 16.875 16.5148C16.4883 17.7336 15.3516 18.3078 14.1562 18.3078C11.9766 18.3078 10.9922 16.3742 10.9922 14.2414C10.9922 12.0968 12.0117 10.2218 14.1562 10.2218C15.3867 10.2218 16.4531 10.925 16.8047 12.0148C16.9219 12.3664 17.0977 12.5539 17.4375 12.5539C17.8008 12.5539 18.082 12.3078 18.082 11.9562C18.082 11.8273 18.0469 11.6164 17.9766 11.4406C17.4258 9.92886 15.8789 9.0148 14.1445 9.0148C11.25 9.0148 9.5625 11.2179 9.5625 14.2414C9.5625 17.1593 11.1094 19.4914 14.1445 19.4914ZM13.5 18.882L14.3086 18.882L14.3086 16.5617C14.3086 15.4484 15.082 14.6984 16.1953 14.6984C16.3711 14.6984 16.5469 14.7453 16.6406 14.7453C16.8867 14.7453 17.0391 14.6281 17.0391 14.3586C17.0391 14.1945 16.957 14.0539 16.8047 13.9601C16.6641 13.8664 16.3828 13.8195 16.1719 13.8195C15.2695 13.8195 14.5547 14.382 14.3203 15.132L14.2852 15.132L14.2852 14.2531C14.2852 14.007 14.1328 13.8312 13.8984 13.8312C13.6641 13.8312 13.5 14.007 13.5 14.2531Z" fill="black" fill-opacity="0.85"/>
 </g>
</svg>
