<?xml version="1.0" encoding="UTF-8"?>
<!--Generator: Apple Native CoreSVG 360-->
<!DOCTYPE svg
PUBLIC "-//W3C//DTD SVG 1.1//EN"
       "http://www.w3.org/Graphics/SVG/1.1/DTD/svg11.dtd">
<svg version="1.1" xmlns="http://www.w3.org/2000/svg" xmlns:xlink="http://www.w3.org/1999/xlink" viewBox="0 0 23.8711 26.3848">
 <g>
  <rect height="26.3848" opacity="0" width="23.8711" x="0" y="0"/>
  <path d="M1.33594 20.7451L10.4297 26.0068C11.2734 26.499 12.2461 26.499 13.1016 26.0068L22.1836 20.7451C23.0273 20.2646 23.5195 19.4092 23.5195 18.4365L23.5195 7.93652C23.5195 6.96387 23.0273 6.1084 22.1836 5.61621L13.1016 0.37793C12.2461-0.125977 11.2734-0.125977 10.4297 0.37793L1.33594 5.61621C0.492188 6.1084 0 6.96387 0 7.93652L0 18.4365C0 19.4092 0.492188 20.2646 1.33594 20.7451ZM10.8164 24.0381C10.7344 24.0029 10.7227 23.9912 10.6289 23.9326L2.57812 19.2803C2.14453 19.0225 1.88672 18.5889 1.88672 18.0967L1.88672 9.08496L10.8164 14.1592ZM11.7656 12.4834L2.47266 7.19824C2.53125 7.13965 2.55469 7.10449 2.66016 7.0459L11.0742 2.18262C11.5078 1.9248 12.0117 1.9248 12.4453 2.18262L20.8711 7.0459C20.9648 7.10449 20.9883 7.13965 21.0469 7.19824ZM12.7031 24.0381L12.7031 14.1592L21.6328 9.08496L21.6328 18.0967C21.6328 18.5889 21.3867 19.0225 20.9531 19.2803L12.9609 23.8975C12.832 23.9678 12.8203 23.9795 12.7031 24.0381Z" fill="black" fill-opacity="0.85"/>
 </g>
</svg>
