<?xml version="1.0" encoding="UTF-8"?>
<!--Generator: Apple Native CoreSVG 360-->
<!DOCTYPE svg
PUBLIC "-//W3C//DTD SVG 1.1//EN"
       "http://www.w3.org/Graphics/SVG/1.1/DTD/svg11.dtd">
<svg version="1.1" xmlns="http://www.w3.org/2000/svg" xmlns:xlink="http://www.w3.org/1999/xlink" viewBox="0 0 25.6406 25.1889">
 <g>
  <rect height="25.1889" opacity="0" width="25.6406" x="0" y="0"/>
  <path d="M5.63672 9.47139L5.64233 9.62041C3.32927 10.1446 1.88672 11.036 1.88672 12.073C1.88672 13.7253 5.60156 15.0144 10.6641 15.0144C15.7148 15.0144 19.4297 13.7253 19.4297 12.073C19.4297 10.8461 17.4105 9.82312 14.3217 9.3722C14.3292 8.78477 14.7831 8.25313 15.168 7.61539C18.9625 8.31331 21.3077 9.93446 21.3153 12.0613C23.7916 12.1779 25.2891 13.5721 25.2891 15.8112C25.2891 18.1667 23.6602 19.5847 20.9648 19.5847L20.2098 19.5847C18.6125 22.8643 15.3804 24.9167 11.2031 24.9167L10.1133 24.9167C4.06641 24.9167 0 20.6276 0 14.5222L0 12.073C0 9.91521 2.40942 8.27612 6.29044 7.58857C5.95939 8.11622 5.63672 8.70062 5.63672 9.47139ZM10.1133 23.03L11.2031 23.03C16.0484 23.03 19.2236 19.7997 19.4107 14.9938C17.5741 16.1905 14.4914 16.9011 10.6641 16.9011C6.83379 16.9011 3.74505 16.1894 1.90549 14.9911C2.09052 19.809 5.25544 23.03 10.1133 23.03ZM21.3164 14.5222C21.3164 15.6476 21.1777 16.7118 20.9116 17.698L20.9648 17.698C22.5 17.698 23.4023 16.9831 23.4023 15.8112C23.4023 14.7323 22.6374 14.0507 21.3164 13.9509ZM9.34822 9.15338C8.48608 9.18967 7.67812 9.26791 6.9381 9.38192C6.94185 8.71687 7.5193 8.12422 7.92537 7.36976C8.63987 7.29229 9.39994 7.24895 10.2001 7.24211C9.85622 7.79221 9.43944 8.37446 9.34822 9.15338ZM13.7862 7.40954C13.4565 7.92797 13.0987 8.48858 13.0327 9.2235C12.2895 9.1547 11.4948 9.11983 10.6641 9.11983C10.6636 9.11983 10.6631 9.11983 10.6626 9.11985C10.7914 8.5228 11.3233 7.96086 11.6788 7.25281C12.4177 7.27539 13.122 7.32791 13.7862 7.40954Z" fill="black" fill-opacity="0.85"/>
  <path d="M8.32031 5.95576C8.32031 4.42061 6.9375 3.56514 6.9375 2.51045C6.9375 1.92451 7.08984 1.60811 7.48828 1.06904C8.03906 0.319045 6.99609-0.430955 6.43359 0.295607C5.87109 0.998732 5.63672 1.64326 5.63672 2.42842C5.63672 4.02217 6.99609 4.80733 6.99609 5.95576C6.99609 7.09248 5.63672 7.88936 5.63672 9.47139C5.63672 10.28 5.87109 10.9245 6.42188 11.6159C6.98438 12.3308 8.03906 11.5808 7.47656 10.8308C7.08984 10.3151 6.9375 9.99873 6.9375 9.38936C6.9375 8.35811 8.32031 7.50264 8.32031 5.95576ZM12.0117 5.95576C12.0117 4.42061 10.6289 3.56514 10.6289 2.51045C10.6289 1.92451 10.7812 1.60811 11.1797 1.06904C11.7305 0.319045 10.6875-0.430955 10.125 0.295607C9.5625 0.998732 9.32812 1.64326 9.32812 2.42842C9.32812 4.02217 10.6875 4.80733 10.6875 5.95576C10.6875 7.09248 9.32812 7.88936 9.32812 9.47139C9.32812 10.28 9.5625 10.9245 10.1133 11.6159C10.6758 12.3308 11.7305 11.5808 11.168 10.8308C10.7812 10.3151 10.6289 9.99873 10.6289 9.38936C10.6289 8.35811 12.0117 7.50264 12.0117 5.95576ZM15.7031 5.95576C15.7031 4.42061 14.3203 3.56514 14.3203 2.51045C14.3203 1.92451 14.4727 1.60811 14.8711 1.06904C15.4219 0.319045 14.3789-0.430955 13.8164 0.295607C13.2539 0.998732 13.0195 1.64326 13.0195 2.42842C13.0195 4.02217 14.3789 4.80733 14.3789 5.95576C14.3789 7.09248 13.0195 7.88936 13.0195 9.47139C13.0195 10.28 13.2539 10.9245 13.8047 11.6159C14.3672 12.3308 15.4219 11.5808 14.8594 10.8308C14.4727 10.3151 14.3203 9.99873 14.3203 9.38936C14.3203 8.35811 15.7031 7.50264 15.7031 5.95576Z" fill="black" fill-opacity="0.85"/>
 </g>
</svg>
