<?xml version="1.0" encoding="UTF-8"?>
<!--Generator: Apple Native CoreSVG 360-->
<!DOCTYPE svg
PUBLIC "-//W3C//DTD SVG 1.1//EN"
       "http://www.w3.org/Graphics/SVG/1.1/DTD/svg11.dtd">
<svg version="1.1" xmlns="http://www.w3.org/2000/svg" xmlns:xlink="http://www.w3.org/1999/xlink" viewBox="0 0 24.2578 23.918">
 <g>
  <rect height="23.918" opacity="0" width="24.2578" x="0" y="0"/>
  <path d="M11.9531 23.9062C18.5508 23.9062 23.9062 18.5508 23.9062 11.9531C23.9062 5.35547 18.5508 0 11.9531 0C5.35547 0 0 5.35547 0 11.9531C0 18.5508 5.35547 23.9062 11.9531 23.9062ZM11.9531 21.9141C6.44531 21.9141 1.99219 17.4609 1.99219 11.9531C1.99219 6.44531 6.44531 1.99219 11.9531 1.99219C17.4609 1.99219 21.9141 6.44531 21.9141 11.9531C21.9141 17.4609 17.4609 21.9141 11.9531 21.9141Z" fill="black" fill-opacity="0.85"/>
  <path d="M8.87109 17.1797L11.8594 17.1797C15.1875 17.1797 17.0625 15.2812 17.0625 11.8125C17.0625 8.39062 15.2109 6.50391 11.8594 6.50391L8.87109 6.50391C8.27344 6.50391 7.95703 6.92578 7.95703 7.55859L7.95703 16.125C7.95703 16.7578 8.27344 17.1797 8.87109 17.1797ZM9.76172 15.7266L9.76172 7.95703L11.6484 7.95703C13.9336 7.95703 15.1875 9.31641 15.1875 11.8477C15.1875 14.4258 13.9453 15.7266 11.6484 15.7266Z" fill="black" fill-opacity="0.85"/>
 </g>
</svg>
