<?xml version="1.0" encoding="UTF-8"?>
<!--Generator: Apple Native CoreSVG 360-->
<!DOCTYPE svg
PUBLIC "-//W3C//DTD SVG 1.1//EN"
       "http://www.w3.org/Graphics/SVG/1.1/DTD/svg11.dtd">
<svg version="1.1" xmlns="http://www.w3.org/2000/svg" xmlns:xlink="http://www.w3.org/1999/xlink" viewBox="0 0 21.9258 21.5742">
 <g>
  <rect height="21.5742" opacity="0" width="21.9258" x="0" y="0"/>
  <path d="M3.67969 21.5742L17.8945 21.5742C20.3555 21.5742 21.5742 20.3672 21.5742 17.9531L21.5742 3.63281C21.5742 1.21875 20.3555 0 17.8945 0L3.67969 0C1.23047 0 0 1.21875 0 3.63281L0 17.9531C0 20.3672 1.23047 21.5742 3.67969 21.5742ZM3.70312 19.6875C2.53125 19.6875 1.88672 19.0664 1.88672 17.8477L1.88672 3.73828C1.88672 2.51953 2.53125 1.88672 3.70312 1.88672L17.8711 1.88672C19.0312 1.88672 19.6875 2.51953 19.6875 3.73828L19.6875 17.8477C19.6875 19.0664 19.0312 19.6875 17.8711 19.6875Z" fill="black" fill-opacity="0.85"/>
  <path d="M7.72266 16.0195L10.7109 16.0195C14.0391 16.0195 15.9141 14.1211 15.9141 10.6523C15.9141 7.23047 14.0625 5.34375 10.7109 5.34375L7.72266 5.34375C7.125 5.34375 6.80859 5.76562 6.80859 6.39844L6.80859 14.9648C6.80859 15.5977 7.125 16.0195 7.72266 16.0195ZM8.61328 14.5664L8.61328 6.79688L10.5 6.79688C12.7852 6.79688 14.0391 8.15625 14.0391 10.6875C14.0391 13.2656 12.7969 14.5664 10.5 14.5664Z" fill="black" fill-opacity="0.85"/>
 </g>
</svg>
