<?xml version="1.0" encoding="UTF-8"?>
<!--Generator: Apple Native CoreSVG 360-->
<!DOCTYPE svg
PUBLIC "-//W3C//DTD SVG 1.1//EN"
       "http://www.w3.org/Graphics/SVG/1.1/DTD/svg11.dtd">
<svg version="1.1" xmlns="http://www.w3.org/2000/svg" xmlns:xlink="http://www.w3.org/1999/xlink" viewBox="0 0 26.5195 25.0195">
 <g>
  <rect height="25.0195" opacity="0" width="26.5195" x="0" y="0"/>
  <path d="M1.55859 22.2188L24.6094 22.2188L24.6094 21.4336C24.6094 20.9648 24.3398 20.6836 23.8594 20.6836L23.1094 20.6836L23.1094 8.03906L24.1406 8.03906C24.7852 8.03906 25.1602 7.57031 25.1602 7.08984C25.1602 6.73828 24.9609 6.43359 24.5273 6.1875L14.5195 0.410156C14.0508 0.140625 13.5586 0 13.0781 0C12.5977 0 12.0938 0.140625 11.6484 0.410156L1.64062 6.1875C1.19531 6.43359 1.00781 6.73828 1.00781 7.08984C1.00781 7.57031 1.38281 8.03906 2.02734 8.03906L3.05859 8.03906L3.05859 20.6836L2.32031 20.6836C1.83984 20.6836 1.55859 20.9648 1.55859 21.4336ZM4.82812 20.6836L4.82812 6.53906L12.6211 2.16797C12.7617 2.08594 12.9258 2.03906 13.0781 2.03906C13.2305 2.03906 13.3945 2.08594 13.5469 2.16797L21.3398 6.53906L21.3398 20.6836ZM0.9375 25.0078L25.2188 25.0078C25.7344 25.0078 26.168 24.5742 26.168 24.0586C26.168 23.543 25.7344 23.1211 25.2188 23.1211L0.9375 23.1211C0.421875 23.1211 0 23.543 0 24.0586C0 24.5742 0.421875 25.0078 0.9375 25.0078Z" fill="black" fill-opacity="0.85"/>
  <path d="M9.02344 16.7578C9.375 16.7578 9.60938 16.5117 9.60938 16.1367L9.60938 14.3086L10.2422 13.6875L12.2227 16.4531C12.3516 16.6406 12.5273 16.7578 12.75 16.7578C13.0664 16.7578 13.3242 16.5352 13.3242 16.2305C13.3242 16.0781 13.2539 15.9492 13.1484 15.8086L11.0977 12.9609L13.0195 10.9336C13.1602 10.7812 13.2305 10.6992 13.2305 10.5C13.2305 10.2305 12.9961 9.98438 12.7031 9.98438C12.5273 9.98438 12.3398 10.0898 12.2344 10.2188L9.64453 13.0547L9.60938 13.0547L9.60938 8.07422C9.60938 7.69922 9.375 7.42969 9.02344 7.42969C8.67188 7.42969 8.42578 7.6875 8.42578 8.0625L8.42578 16.1367C8.42578 16.5117 8.67188 16.7578 9.02344 16.7578ZM15.1055 16.7578C15.375 16.7578 15.6797 16.5938 15.6797 16.1367L15.6797 12.75C15.6797 11.9766 15.9727 11.1328 16.8984 11.1328C17.1211 11.1328 17.332 11.1094 17.4961 11.0039C17.6367 10.9336 17.7188 10.793 17.7188 10.5938C17.7188 10.207 17.4141 9.98438 17.0156 9.98438C16.3242 9.98438 15.8438 10.582 15.6914 11.2852L15.6211 11.2852L15.6211 10.582C15.6211 10.2539 15.3867 9.98438 15.082 9.98438C14.7773 9.98438 14.5312 10.2539 14.5312 10.582L14.5312 16.1367C14.5312 16.5117 14.7422 16.7578 15.1055 16.7578ZM18.0352 16.6289C18.4805 16.6289 18.7969 16.3125 18.7969 15.8789C18.7969 15.4336 18.4805 15.1055 18.0352 15.1055C17.5898 15.1055 17.2617 15.4336 17.2617 15.8789C17.2617 16.3125 17.5898 16.6289 18.0352 16.6289Z" fill="black" fill-opacity="0.85"/>
 </g>
</svg>
