<?xml version="1.0" encoding="UTF-8"?>
<!--Generator: Apple Native CoreSVG 360-->
<!DOCTYPE svg
PUBLIC "-//W3C//DTD SVG 1.1//EN"
       "http://www.w3.org/Graphics/SVG/1.1/DTD/svg11.dtd">
<svg version="1.1" xmlns="http://www.w3.org/2000/svg" xmlns:xlink="http://www.w3.org/1999/xlink" viewBox="0 0 28.582 23.4085">
 <g>
  <rect height="23.4085" opacity="0" width="28.582" x="0" y="0"/>
  <path d="M28.2305 14.0539C28.2305 6.67105 22.5586 0.612457 15.3398 0.00308175C14.9648-0.0320745 14.6836 0.237457 14.6836 0.612457L14.6836 4.44449C14.6836 4.76089 14.9062 5.00699 15.2227 5.03043C19.7109 5.58121 23.2031 9.41324 23.2031 14.0539C23.2031 16.1632 22.4766 18.1086 21.1992 19.7375C21.0352 19.9367 21.0469 20.1945 21.2227 20.382L24.0234 23.1711C24.2812 23.4289 24.6797 23.4289 24.9141 23.1476C26.9883 20.6867 28.2305 17.5109 28.2305 14.0539Z" fill="black" fill-opacity="0.85"/>
  <path d="M0 14.0539C0 17.5226 1.24219 20.6984 3.31641 23.1593C3.55078 23.4406 3.9375 23.4289 4.20703 23.1711L7.00781 20.382C7.18359 20.1945 7.19531 19.9367 7.03125 19.7375C5.74219 18.1086 5.02734 16.1632 5.02734 14.0539C5.02734 9.41324 8.51953 5.58121 13.0078 5.03043C13.3242 5.00699 13.5469 4.76089 13.5469 4.44449L13.5469 0.612457C13.5469 0.237457 13.2656-0.0320745 12.8906 0.00308175C5.67188 0.612457 0 6.67105 0 14.0539Z" fill="black" fill-opacity="0.85"/>
  <path d="M9.67969 19.0109C10.0547 19.0109 10.3125 18.7414 10.3125 18.3312L10.3125 16.3507L11.0039 15.6828L13.1484 18.6828C13.2891 18.882 13.4766 19.0109 13.7227 19.0109C14.0625 19.0109 14.3438 18.7648 14.3438 18.4367C14.3438 18.2726 14.2617 18.132 14.1562 17.9796L11.918 14.8859L14.0039 12.6945C14.1562 12.5187 14.2383 12.425 14.2383 12.2257C14.2383 11.9211 13.9922 11.6632 13.6641 11.6632C13.4883 11.6632 13.2773 11.7804 13.1602 11.9093L10.3477 14.9914L10.3125 14.9914L10.3125 9.58902C10.3125 9.17886 10.0547 8.89761 9.67969 8.89761C9.29297 8.89761 9.02344 9.16714 9.02344 9.5773L9.02344 18.3312C9.02344 18.7414 9.29297 19.0109 9.67969 19.0109ZM16.2773 19.0109C16.5703 19.0109 16.8984 18.8351 16.8984 18.3312L16.8984 14.6632C16.8984 13.8195 17.2148 12.9054 18.2227 12.9054C18.457 12.9054 18.6914 12.8703 18.8672 12.7648C19.0195 12.6828 19.1133 12.5421 19.1133 12.3312C19.1133 11.8976 18.7852 11.6632 18.3516 11.6632C17.6016 11.6632 17.0859 12.3195 16.9102 13.0695L16.8398 13.0695L16.8398 12.3195C16.8398 11.9445 16.582 11.6632 16.2539 11.6632C15.9141 11.6632 15.6562 11.9445 15.6562 12.3195L15.6562 18.3312C15.6562 18.7414 15.8789 19.0109 16.2773 19.0109ZM19.4531 18.8703C19.9336 18.8703 20.2852 18.5304 20.2852 18.05C20.2852 17.5695 19.9336 17.2179 19.4531 17.2179C18.9609 17.2179 18.6211 17.5695 18.6211 18.05C18.6211 18.5304 18.9609 18.8703 19.4531 18.8703Z" fill="black" fill-opacity="0.85"/>
 </g>
</svg>
