<?xml version="1.0" encoding="UTF-8"?>
<!--Generator: Apple Native CoreSVG 360-->
<!DOCTYPE svg
PUBLIC "-//W3C//DTD SVG 1.1//EN"
       "http://www.w3.org/Graphics/SVG/1.1/DTD/svg11.dtd">
<svg version="1.1" xmlns="http://www.w3.org/2000/svg" xmlns:xlink="http://www.w3.org/1999/xlink" viewBox="0 0 28.582 23.5195">
 <g>
  <rect height="23.5195" opacity="0" width="28.582" x="0" y="0"/>
  <path d="M28.2305 14.1094C28.2305 10.6641 26.9883 7.48828 24.9141 5.02734C24.6797 4.74609 24.2812 4.74609 24.0234 5.01562L21.3047 7.73438C21.082 7.95703 21.0703 8.27344 21.2695 8.51953C22.4766 10.0664 23.2031 12.0117 23.2031 14.1094C23.2031 16.2188 22.4766 18.1641 21.1992 19.793C21.0352 19.9922 21.0469 20.25 21.2227 20.4375L24.0117 23.2266C24.2812 23.4961 24.668 23.4961 24.9141 23.2031C26.9883 20.7422 28.2305 17.5664 28.2305 14.1094Z" fill="black" fill-opacity="0.85"/>
  <path d="M14.1094 5.02734C16.2305 5.02734 18.1758 5.76562 19.7344 6.97266C19.9688 7.16016 20.2734 7.13672 20.4961 6.91406L23.2148 4.19531C23.4844 3.92578 23.4727 3.53906 23.1914 3.30469C20.7422 1.24219 17.5664 0 14.1094 0C10.6641 0 7.48828 1.24219 5.03906 3.30469C4.75781 3.53906 4.74609 3.92578 5.01562 4.19531L7.73438 6.91406C7.95703 7.13672 8.27344 7.16016 8.53125 6.96094C10.0781 5.76562 12.0117 5.02734 14.1094 5.02734Z" fill="black" fill-opacity="0.85"/>
  <path d="M0 14.1094C0 17.5664 1.24219 20.7422 3.31641 23.2031C3.55078 23.4961 3.94922 23.4961 4.20703 23.2266L6.99609 20.4375C7.17188 20.25 7.19531 19.9922 7.03125 19.793C5.75391 18.1641 5.02734 16.2188 5.02734 14.1094C5.02734 12.0117 5.74219 10.0664 6.96094 8.51953C7.14844 8.27344 7.14844 7.95703 6.92578 7.73438L4.20703 5.01562C3.9375 4.74609 3.55078 4.74609 3.31641 5.02734C1.24219 7.48828 0 10.6641 0 14.1094Z" fill="black" fill-opacity="0.85"/>
  <path d="M9.67969 19.0664C10.0547 19.0664 10.3125 18.7969 10.3125 18.3867L10.3125 16.4062L11.0039 15.7383L13.1484 18.7383C13.2891 18.9375 13.4766 19.0664 13.7227 19.0664C14.0625 19.0664 14.3438 18.8203 14.3438 18.4922C14.3438 18.3281 14.2617 18.1875 14.1562 18.0352L11.918 14.9414L14.0039 12.75C14.1562 12.5742 14.2383 12.4805 14.2383 12.2812C14.2383 11.9766 13.9922 11.7188 13.6641 11.7188C13.4883 11.7188 13.2773 11.8359 13.1602 11.9648L10.3477 15.0469L10.3125 15.0469L10.3125 9.64453C10.3125 9.23438 10.0547 8.95312 9.67969 8.95312C9.29297 8.95312 9.02344 9.22266 9.02344 9.63281L9.02344 18.3867C9.02344 18.7969 9.29297 19.0664 9.67969 19.0664ZM16.2773 19.0664C16.5703 19.0664 16.8984 18.8906 16.8984 18.3867L16.8984 14.7188C16.8984 13.875 17.2148 12.9609 18.2227 12.9609C18.457 12.9609 18.6914 12.9258 18.8672 12.8203C19.0195 12.7383 19.1133 12.5977 19.1133 12.3867C19.1133 11.9531 18.7852 11.7188 18.3516 11.7188C17.6016 11.7188 17.0859 12.375 16.9102 13.125L16.8398 13.125L16.8398 12.375C16.8398 12 16.582 11.7188 16.2539 11.7188C15.9141 11.7188 15.6562 12 15.6562 12.375L15.6562 18.3867C15.6562 18.7969 15.8789 19.0664 16.2773 19.0664ZM19.4531 18.9258C19.9336 18.9258 20.2852 18.5859 20.2852 18.1055C20.2852 17.625 19.9336 17.2734 19.4531 17.2734C18.9609 17.2734 18.6211 17.625 18.6211 18.1055C18.6211 18.5859 18.9609 18.9258 19.4531 18.9258Z" fill="black" fill-opacity="0.85"/>
 </g>
</svg>
