<?xml version="1.0" encoding="UTF-8"?>
<!--Generator: Apple Native CoreSVG 360-->
<!DOCTYPE svg
PUBLIC "-//W3C//DTD SVG 1.1//EN"
       "http://www.w3.org/Graphics/SVG/1.1/DTD/svg11.dtd">
<svg version="1.1" xmlns="http://www.w3.org/2000/svg" xmlns:xlink="http://www.w3.org/1999/xlink" viewBox="0 0 24.3281 23.0742">
 <g>
  <rect height="23.0742" opacity="0" width="24.3281" x="0" y="0"/>
  <path d="M1.125 23.0625C1.80469 23.0625 2.26172 22.5469 2.26172 21.8672L2.26172 16.793L3.99609 15.1406L9.89062 22.6406C10.1016 22.9102 10.418 23.0625 10.8164 23.0625C11.3906 23.0625 11.8594 22.6406 11.8594 22.1016C11.8594 21.832 11.7656 21.5625 11.5547 21.3047L5.57812 13.7227L11.1328 8.14453C11.4023 7.875 11.5312 7.60547 11.5312 7.32422C11.5312 6.77344 11.0625 6.38672 10.5469 6.38672C10.2188 6.38672 9.9375 6.51562 9.69141 6.77344L2.32031 14.3203L2.26172 14.3203L2.26172 1.18359C2.26172 0.492188 1.79297 0 1.125 0C0.457031 0 0 0.492188 0 1.18359L0 21.8672C0 22.5938 0.515625 23.0625 1.125 23.0625ZM15.6562 23.0625C16.2891 23.0625 16.7461 22.5586 16.7461 21.8672L16.7461 12.8906C16.7461 10.8984 17.5898 8.54297 20.3555 8.54297C20.8828 8.54297 21.4688 8.53125 21.7617 8.34375C22.0195 8.20312 22.1719 7.95703 22.1719 7.59375C22.1719 7.11328 21.9492 6.80859 21.6094 6.62109C21.293 6.45703 20.8828 6.38672 20.4844 6.38672C18.8672 6.38672 17.2852 7.5 16.8047 9.53906L16.6523 9.53906L16.6523 7.51172C16.6523 6.85547 16.2188 6.375 15.6211 6.375C15.0117 6.375 14.5781 6.85547 14.5781 7.51172L14.5781 21.8672C14.5781 22.5586 15.0352 23.0625 15.6562 23.0625ZM22.3711 22.8984C23.2617 22.8984 23.9766 22.1836 23.9766 21.293C23.9766 20.4023 23.2617 19.6875 22.3711 19.6875C21.4688 19.6875 20.7539 20.4023 20.7539 21.293C20.7539 22.1836 21.4688 22.8984 22.3711 22.8984Z" fill="black" fill-opacity="0.85"/>
 </g>
</svg>
