<?xml version="1.0" encoding="UTF-8"?>
<!--Generator: Apple Native CoreSVG 360-->
<!DOCTYPE svg
PUBLIC "-//W3C//DTD SVG 1.1//EN"
       "http://www.w3.org/Graphics/SVG/1.1/DTD/svg11.dtd">
<svg version="1.1" xmlns="http://www.w3.org/2000/svg" xmlns:xlink="http://www.w3.org/1999/xlink" viewBox="0 0 27.4453 20.3086">
 <g>
  <rect height="20.3086" opacity="0" width="27.4453" x="0" y="0"/>
  <path d="M9.64453 20.2852C10.1719 20.2852 10.582 19.875 10.582 19.3477C10.582 18.8203 10.1719 18.3984 9.64453 18.3984L0.949219 18.3984C0.421875 18.3984 0 18.8203 0 19.3477C0 19.875 0.421875 20.2852 0.949219 20.2852Z" fill="black" fill-opacity="0.85"/>
  <path d="M15.6328 14.1562C16.1602 14.1562 16.5703 13.7461 16.5703 13.2188C16.5703 12.6797 16.1602 12.2695 15.6328 12.2695L0.949219 12.2695C0.421875 12.2695 0 12.6797 0 13.2188C0 13.7461 0.421875 14.1562 0.949219 14.1562Z" fill="black" fill-opacity="0.85"/>
  <path d="M15.6328 8.02734C16.1602 8.02734 16.5703 7.60547 16.5703 7.07812C16.5703 6.55078 16.1602 6.14062 15.6328 6.14062L0.949219 6.14062C0.421875 6.14062 0 6.55078 0 7.07812C0 7.60547 0.421875 8.02734 0.949219 8.02734Z" fill="black" fill-opacity="0.85"/>
  <path d="M15.6328 1.88672C16.1602 1.88672 16.5703 1.47656 16.5703 0.949219C16.5703 0.421875 16.1602 0 15.6328 0L0.949219 0C0.421875 0 0 0.421875 0 0.949219C0 1.47656 0.421875 1.88672 0.949219 1.88672Z" fill="black" fill-opacity="0.85"/>
  <path d="M25.2539 13.7109C26.1211 14.2734 27.1055 13.957 27.0938 12.9141L27.0938 7.35938C27.1055 6.28125 26.1562 5.94141 25.2539 6.55078L21.375 9.1875C20.707 9.65625 20.6836 10.6523 21.375 11.1211Z" fill="black" fill-opacity="0.85"/>
 </g>
</svg>
