<?xml version="1.0" encoding="UTF-8"?>
<!--Generator: Apple Native CoreSVG 360-->
<!DOCTYPE svg
PUBLIC "-//W3C//DTD SVG 1.1//EN"
       "http://www.w3.org/Graphics/SVG/1.1/DTD/svg11.dtd">
<svg version="1.1" xmlns="http://www.w3.org/2000/svg" xmlns:xlink="http://www.w3.org/1999/xlink" viewBox="0 0 23.0039 21.3633">
 <g>
  <rect height="21.3633" opacity="0" width="23.0039" x="0" y="0"/>
  <path d="M11.4258 21.3281C12.1055 21.3281 12.5859 20.8242 12.5859 20.1445L12.5859 11.3789L20.7305 11.3789C21.3516 11.3789 21.7969 10.957 21.7969 10.3477C21.7969 9.75 21.3516 9.32812 20.7305 9.32812L12.5859 9.32812L12.5859 2.09766L21.5742 2.09766C22.1953 2.09766 22.6523 1.66406 22.6523 1.05469C22.6523 0.445312 22.1953 0 21.5742 0L11.4258 0C10.7109 0 10.2539 0.480469 10.2539 1.20703L10.2539 20.1445C10.2539 20.8125 10.7109 21.3281 11.4258 21.3281ZM3.57422 8.36719C5.58984 8.36719 7.16016 6.79688 7.16016 4.78125C7.16016 2.76562 5.58984 1.19531 3.57422 1.19531C1.57031 1.19531 0 2.76562 0 4.78125C0 6.79688 1.57031 8.36719 3.57422 8.36719ZM3.57422 6.71484C2.49609 6.71484 1.65234 5.87109 1.65234 4.78125C1.65234 3.70312 2.49609 2.84766 3.57422 2.84766C4.66406 2.84766 5.50781 3.70312 5.50781 4.78125C5.50781 5.87109 4.66406 6.71484 3.57422 6.71484Z" fill="black" fill-opacity="0.85"/>
 </g>
</svg>
