<?xml version="1.0" encoding="UTF-8"?>
<!--Generator: Apple Native CoreSVG 360-->
<!DOCTYPE svg
PUBLIC "-//W3C//DTD SVG 1.1//EN"
       "http://www.w3.org/Graphics/SVG/1.1/DTD/svg11.dtd">
<svg version="1.1" xmlns="http://www.w3.org/2000/svg" xmlns:xlink="http://www.w3.org/1999/xlink" viewBox="0 0 26.5312 21.3633">
 <g>
  <rect height="21.3633" opacity="0" width="26.5312" x="0" y="0"/>
  <path d="M18.3281 21.3633C22.1719 21.3633 24.9492 19.4531 25.9922 16.582C26.1094 16.2305 26.1797 15.8789 26.1797 15.5156C26.1914 14.9062 25.7812 14.4844 25.1484 14.4844C24.5391 14.4844 24.2344 14.8242 24.0352 15.4336C23.3906 17.7539 21.1641 19.3125 18.3281 19.3125C14.3203 19.3125 11.7188 15.9727 11.7188 10.6406C11.7188 5.39062 14.332 2.09766 18.3281 2.09766C21 2.09766 23.2266 3.75 23.8828 6.05859C24.0938 6.73828 24.3867 7.00781 24.9961 7.00781C25.6289 7.00781 26.0391 6.58594 26.0273 5.96484C26.0156 5.61328 25.9688 5.28516 25.8398 4.95703C24.7734 1.99219 21.832 0.046875 18.3281 0.046875C12.9141 0.046875 9.36328 4.16016 9.36328 10.6406C9.36328 17.2031 12.8906 21.3633 18.3281 21.3633ZM3.57422 8.36719C5.58984 8.36719 7.16016 6.79688 7.16016 4.78125C7.16016 2.76562 5.58984 1.19531 3.57422 1.19531C1.57031 1.19531 0 2.76562 0 4.78125C0 6.79688 1.57031 8.36719 3.57422 8.36719ZM3.57422 6.71484C2.49609 6.71484 1.65234 5.87109 1.65234 4.78125C1.65234 3.70312 2.49609 2.84766 3.57422 2.84766C4.66406 2.84766 5.50781 3.70312 5.50781 4.78125C5.50781 5.87109 4.66406 6.71484 3.57422 6.71484Z" fill="black" fill-opacity="0.85"/>
 </g>
</svg>
