<?xml version="1.0" encoding="UTF-8"?>
<!--Generator: Apple Native CoreSVG 360-->
<!DOCTYPE svg
PUBLIC "-//W3C//DTD SVG 1.1//EN"
       "http://www.w3.org/Graphics/SVG/1.1/DTD/svg11.dtd">
<svg version="1.1" xmlns="http://www.w3.org/2000/svg" xmlns:xlink="http://www.w3.org/1999/xlink" viewBox="0 0 25.9336 32.8477">
 <g>
  <rect height="32.8477" opacity="0" width="25.9336" x="0" y="0"/>
  <path d="M15.9777 4.52344L7.53516 4.52344C6.43359 4.52344 5.77734 5.14453 5.77734 6.30469L5.77734 24.457C5.77734 25.6055 6.43359 26.2383 7.53516 26.2383L18.0469 26.2383C19.1484 26.2383 19.8047 25.6055 19.8047 24.457L19.8047 15.8116C19.869 15.8194 19.9363 15.8203 20.0039 15.8203C20.5995 15.8203 21.1654 15.7498 21.6914 15.611L21.6914 24.5508C21.6914 26.4881 20.8669 27.6565 19.2422 28.0084L19.2422 29.2383C19.2422 29.8008 18.8672 30.1875 18.293 30.1875C17.7305 30.1875 17.3555 29.8008 17.3555 29.2383L17.3555 28.125L8.22656 28.125L8.22656 29.2383C8.22656 29.8008 7.85156 30.1875 7.28906 30.1875C6.72656 30.1875 6.33984 29.8008 6.33984 29.2383L6.33984 28.0064C4.71947 27.6515 3.89062 26.484 3.89062 24.5508L3.89062 6.19922C3.89062 3.83203 5.14453 2.63672 7.51172 2.63672L17.0732 2.63672C16.6964 3.25339 16.3201 3.89745 15.9777 4.52344ZM12.0586 23.8359C12.0586 24.2461 11.7305 24.5742 11.3086 24.5742L7.89844 24.5742C7.48828 24.5742 7.16016 24.2461 7.16016 23.8359C7.16016 23.4141 7.48828 23.0859 7.89844 23.0859L11.3086 23.0859C11.7305 23.0859 12.0586 23.4141 12.0586 23.8359ZM18.4219 23.8359C18.4219 24.2461 18.0938 24.5742 17.6836 24.5742L14.2734 24.5742C13.8516 24.5742 13.5234 24.2461 13.5234 23.8359C13.5234 23.4141 13.8516 23.0859 14.2734 23.0859L17.6836 23.0859C18.0938 23.0859 18.4219 23.4141 18.4219 23.8359ZM12.0586 20.9062C12.0586 21.3281 11.7305 21.6445 11.3086 21.6445L7.89844 21.6445C7.48828 21.6445 7.16016 21.3281 7.16016 20.9062C7.16016 20.4844 7.48828 20.168 7.89844 20.168L11.3086 20.168C11.7305 20.168 12.0586 20.4844 12.0586 20.9062ZM18.4219 20.9062C18.4219 21.3281 18.0938 21.6445 17.6836 21.6445L14.2734 21.6445C13.8516 21.6445 13.5234 21.3281 13.5234 20.9062C13.5234 20.4844 13.8516 20.168 14.2734 20.168L17.6836 20.168C18.0938 20.168 18.4219 20.4844 18.4219 20.9062ZM12.0586 17.9766C12.0586 18.3984 11.7305 18.7148 11.3086 18.7148L7.89844 18.7148C7.48828 18.7148 7.16016 18.3984 7.16016 17.9766C7.16016 17.5664 7.48828 17.2383 7.89844 17.2383L11.3086 17.2383C11.7305 17.2383 12.0586 17.5664 12.0586 17.9766ZM18.4219 17.9766C18.4219 18.3984 18.0938 18.7148 17.6836 18.7148L14.2734 18.7148C13.8516 18.7148 13.5234 18.3984 13.5234 17.9766C13.5234 17.5664 13.8516 17.2383 14.2734 17.2383L17.6836 17.2383C18.0938 17.2383 18.4219 17.5664 18.4219 17.9766ZM10.5352 7.76953C10.5352 8.68359 9.78516 9.43359 8.88281 9.43359C7.96875 9.43359 7.23047 8.68359 7.23047 7.76953C7.23047 6.86719 7.96875 6.12891 8.88281 6.12891C9.78516 6.12891 10.5352 6.86719 10.5352 7.76953Z" fill="black" fill-opacity="0.85"/>
  <path d="M20.0039 14.2148C22.5938 14.2148 24.3398 12.5391 24.3398 10.0195C24.3398 8.76562 23.8125 7.67578 23.4375 6.83203C22.7461 5.35547 21.6328 3.50391 20.6602 2.01562C20.4609 1.73438 20.2617 1.60547 20.0039 1.60547C19.7578 1.60547 19.5469 1.73438 19.3594 2.01562C18.3867 3.50391 17.2617 5.35547 16.5703 6.83203C16.207 7.67578 15.6797 8.76562 15.6797 10.0195C15.6797 12.5391 17.4141 14.2148 20.0039 14.2148Z" fill="black" fill-opacity="0.85"/>
 </g>
</svg>
