<?xml version="1.0" encoding="UTF-8"?>
<!--Generator: Apple Native CoreSVG 360-->
<!DOCTYPE svg
PUBLIC "-//W3C//DTD SVG 1.1//EN"
       "http://www.w3.org/Graphics/SVG/1.1/DTD/svg11.dtd">
<svg version="1.1" xmlns="http://www.w3.org/2000/svg" xmlns:xlink="http://www.w3.org/1999/xlink" viewBox="0 0 25.6406 21.5977">
 <g>
  <rect height="21.5977" opacity="0" width="25.6406" x="0" y="0"/>
  <path d="M3.92578 21.5977L14.0977 21.5859C15.4688 21.5859 16.6523 21.1641 17.6133 20.1562L24.5273 13.0195C25.3008 12.2344 25.6406 11.5195 25.6406 10.793C25.6406 10.0547 25.3008 9.35156 24.5273 8.56641L17.625 1.39453C16.6641 0.375 15.4805 0.0234375 14.1094 0.0234375L3.92578 0.0234375C1.48828 0.0234375 0.246094 1.23047 0.246094 3.65625L0.246094 17.9648C0.246094 20.3906 1.48828 21.5977 3.92578 21.5977ZM3.96094 19.7109C2.78906 19.7109 2.13281 19.0898 2.13281 17.8711L2.13281 3.75C2.13281 2.53125 2.78906 1.91016 3.96094 1.91016L14.1445 1.91016C15.0234 1.91016 15.6094 2.0625 16.207 2.68359L23.0625 9.79688C23.4492 10.207 23.5898 10.4883 23.5898 10.793C23.5898 11.0859 23.4609 11.3672 23.0625 11.7773L16.1953 18.8672C15.5859 19.5 15.0234 19.7109 14.1328 19.7109Z" fill="black" fill-opacity="0.85"/>
  <path d="M7.48828 15.4688L15.4688 7.47656C15.6562 7.30078 15.75 7.07812 15.75 6.82031C15.75 6.29297 15.3398 5.89453 14.8125 5.89453C14.5547 5.89453 14.3438 5.97656 14.168 6.16406L6.15234 14.1445C5.97656 14.3203 5.87109 14.543 5.87109 14.8125C5.87109 15.3281 6.29297 15.7617 6.80859 15.7617C7.08984 15.7617 7.3125 15.6445 7.48828 15.4688ZM14.1445 15.4688C14.3203 15.6445 14.543 15.7617 14.8125 15.7617C15.3398 15.7617 15.75 15.3281 15.75 14.8125C15.75 14.543 15.6562 14.3203 15.4688 14.1445L7.46484 6.16406C7.28906 5.97656 7.06641 5.89453 6.80859 5.89453C6.29297 5.89453 5.87109 6.29297 5.87109 6.82031C5.87109 7.07812 5.97656 7.30078 6.15234 7.47656Z" fill="black" fill-opacity="0.85"/>
 </g>
</svg>
