<?xml version="1.0" encoding="UTF-8"?>
<!--Generator: Apple Native CoreSVG 360-->
<!DOCTYPE svg
PUBLIC "-//W3C//DTD SVG 1.1//EN"
       "http://www.w3.org/Graphics/SVG/1.1/DTD/svg11.dtd">
<svg version="1.1" xmlns="http://www.w3.org/2000/svg" xmlns:xlink="http://www.w3.org/1999/xlink" viewBox="0 0 28.2891 30.9023">
 <g>
  <rect height="30.9023" opacity="0" width="28.2891" x="0" y="0"/>
  <path d="M27.9375 6.75L27.9375 20.8008C27.9375 22.4883 26.918 23.5078 25.2305 23.5078L17.6719 23.5078L17.6719 25.7695L17.7422 25.7695C18.2578 25.7695 18.6797 26.1914 18.6797 26.7188C18.6797 27.2461 18.2578 27.668 17.7422 27.668L10.1953 27.668C9.67969 27.668 9.24609 27.2461 9.24609 26.7188C9.24609 26.1914 9.67969 25.7695 10.1953 25.7695L10.2656 25.7695L10.2656 23.5078L2.69531 23.5078C1.01953 23.5078 0 22.4883 0 20.8008L0 6.75C0 5.0625 1.01953 4.05469 2.69531 4.05469L10.8398 4.05469L10.8398 5.94141L2.73047 5.94141C2.21484 5.94141 1.88672 6.25781 1.88672 6.78516L1.88672 17.8359C1.88672 18.2109 2.03906 18.3398 2.39062 18.3398L25.5352 18.3398C25.8867 18.3398 26.0508 18.2109 26.0508 17.8359L26.0508 6.78516C26.0508 6.25781 25.7227 5.94141 25.207 5.94141L17.0977 5.94141L17.0977 4.05469L25.2305 4.05469C26.918 4.05469 27.9375 5.0625 27.9375 6.75Z" fill="black" fill-opacity="0.85"/>
  <path d="M9.99609 10.1836C9.50391 10.1836 9.15234 10.5352 9.15234 11.0156C9.15234 11.2617 9.24609 11.4492 9.42188 11.625L13.2891 15.3516C13.5234 15.5859 13.7344 15.668 13.9688 15.668C14.2031 15.668 14.4141 15.5859 14.6484 15.3516L18.5039 11.625C18.6914 11.4492 18.7852 11.2617 18.7852 11.0156C18.7852 10.5352 18.4219 10.1836 17.9297 10.1836C17.707 10.1836 17.4609 10.2773 17.2969 10.4648L15.4805 12.3984L13.9688 14.0156L12.4453 12.3984L10.6406 10.4648C10.4766 10.2773 10.2188 10.1836 9.99609 10.1836ZM13.9688 0.28125C13.4648 0.28125 13.043 0.703125 13.043 1.19531L13.043 11.3438L13.1836 14.4961C13.207 14.9297 13.5352 15.2812 13.9688 15.2812C14.4023 15.2812 14.7305 14.9297 14.7539 14.4961L14.9062 11.3438L14.9062 1.19531C14.9062 0.703125 14.4727 0.28125 13.9688 0.28125Z" fill="black" fill-opacity="0.85"/>
 </g>
</svg>
