<?xml version="1.0" encoding="UTF-8"?>
<!--Generator: Apple Native CoreSVG 360-->
<!DOCTYPE svg
PUBLIC "-//W3C//DTD SVG 1.1//EN"
       "http://www.w3.org/Graphics/SVG/1.1/DTD/svg11.dtd">
<svg version="1.1" xmlns="http://www.w3.org/2000/svg" xmlns:xlink="http://www.w3.org/1999/xlink" viewBox="0 0 24.2578 24.2227">
 <g>
  <rect height="24.2227" opacity="0" width="24.2578" x="0" y="0"/>
  <path d="M0.140625 18.5977L0.140625 22.1484C0.140625 23.5664 0.820312 24.2227 2.26172 24.2227L6.01172 24.2227C3.44531 22.9805 1.53516 21.1289 0.140625 18.5977ZM23.8125 18.5977C22.418 21.1289 20.5078 22.9805 17.9531 24.2227L21.6914 24.2227C23.1328 24.2227 23.8125 23.5664 23.8125 22.1484ZM11.9531 24.0586C18.5508 24.0586 23.9062 18.7031 23.9062 12.1055C23.9062 5.50781 18.5508 0.152344 11.9531 0.152344C5.35547 0.152344 0 5.50781 0 12.1055C0 18.7031 5.35547 24.0586 11.9531 24.0586ZM11.9531 22.0664C6.44531 22.0664 1.99219 17.6133 1.99219 12.1055C1.99219 6.59766 6.44531 2.14453 11.9531 2.14453C17.4609 2.14453 21.9141 6.59766 21.9141 12.1055C21.9141 17.6133 17.4609 22.0664 11.9531 22.0664Z" fill="black" fill-opacity="0.85"/>
  <path d="M7.93359 9.23438L11.4141 12.7148C11.7422 13.0547 12.2461 13.043 12.5742 12.7148L17.918 7.37109C18.2461 7.05469 18.2578 6.53906 17.918 6.22266C17.5781 5.90625 17.0977 5.89453 16.7695 6.22266L11.9883 11.0039L9.09375 8.08594C8.75391 7.75781 8.26172 7.75781 7.93359 8.08594C7.61719 8.40234 7.60547 8.90625 7.93359 9.23438Z" fill="black" fill-opacity="0.85"/>
 </g>
</svg>
