<?xml version="1.0" encoding="UTF-8"?>
<!--Generator: Apple Native CoreSVG 360-->
<!DOCTYPE svg
PUBLIC "-//W3C//DTD SVG 1.1//EN"
       "http://www.w3.org/Graphics/SVG/1.1/DTD/svg11.dtd">
<svg version="1.1" xmlns="http://www.w3.org/2000/svg" xmlns:xlink="http://www.w3.org/1999/xlink" viewBox="0 0 24.4453 28.4883">
 <g>
  <rect height="28.4883" opacity="0" width="24.4453" x="0" y="0"/>
  <path d="M0.960938 28.3945L23.1094 28.3945C23.6602 28.3945 24.0938 27.9609 24.0938 27.4219C24.0938 26.8711 23.6602 26.4492 23.1094 26.4492L0.960938 26.4492C0.421875 26.4492 0 26.8711 0 27.4219C0 27.9609 0.421875 28.3945 0.960938 28.3945Z" fill="black" fill-opacity="0.85"/>
  <path d="M8.64844 14.6133L15.4219 14.6133C17.6133 14.6133 18.9141 13.2773 18.9141 11.0859L18.9141 3.52734C18.9141 1.45312 17.6367 0 15.4219 0L8.64844 0C6.48047 0 5.15625 1.34766 5.15625 3.52734L5.15625 11.0859C5.15625 13.2773 6.48047 14.6133 8.64844 14.6133ZM8.84766 12.7266C7.5 12.7266 6.94922 12.1172 6.94922 10.8633L6.94922 3.77344C6.94922 2.49609 7.5 1.88672 8.84766 1.88672L15.2227 1.88672C16.5703 1.88672 17.1328 2.49609 17.1328 3.77344L17.1328 10.8633C17.1328 12.1172 16.5703 12.7266 15.2227 12.7266ZM7.69922 20.0859L16.3711 20.0859C17.2969 20.0859 17.9531 19.4531 17.9531 18.5625C17.9531 18.1875 17.7305 17.707 17.4141 17.3438L14.8477 14.3086L12.5625 14.3086L15.5391 17.8945C15.6562 18.0469 15.5625 18.1992 15.3984 18.1992L8.68359 18.1992C8.50781 18.1992 8.41406 18.0469 8.54297 17.8945L11.5195 14.3086L9.22266 14.3086L6.66797 17.3438C6.33984 17.7188 6.12891 18.1992 6.12891 18.5625C6.12891 19.4531 6.77344 20.0859 7.69922 20.0859Z" fill="black" fill-opacity="0.85"/>
 </g>
</svg>
