<?xml version="1.0" encoding="UTF-8"?>
<!--Generator: Apple Native CoreSVG 360-->
<!DOCTYPE svg
PUBLIC "-//W3C//DTD SVG 1.1//EN"
       "http://www.w3.org/Graphics/SVG/1.1/DTD/svg11.dtd">
<svg version="1.1" xmlns="http://www.w3.org/2000/svg" xmlns:xlink="http://www.w3.org/1999/xlink" viewBox="0 0 43.6055 27.6211">
 <g>
  <rect height="27.6211" opacity="0" width="43.6055" x="0" y="0"/>
  <path d="M27.3047 5.14453L27.3047 9.94922L21.9609 9.94922C19.5352 9.94922 17.8477 11.5195 17.8477 14.0391L17.8477 16.6992L3.64453 16.6992C3.29297 16.6992 3.14062 16.5703 3.14062 16.1953L3.14062 5.14453C3.14062 4.61719 3.46875 4.30078 3.98438 4.30078L26.4609 4.30078C26.9766 4.30078 27.3047 4.61719 27.3047 5.14453Z" fill="black" fill-opacity="0.2125"/>
  <path d="M29.1914 5.10938L29.1914 9.94922L27.3047 9.94922L27.3047 5.14453C27.3047 4.61719 26.9766 4.30078 26.4609 4.30078L3.98438 4.30078C3.46875 4.30078 3.14062 4.61719 3.14062 5.14453L3.14062 16.1953C3.14062 16.5703 3.29297 16.6992 3.64453 16.6992L17.8477 16.6992L17.8477 22.5234L17.6133 22.5234C16.2188 22.5234 15.0703 23.6719 15.0703 25.0664C15.0703 25.4072 15.1366 25.7317 15.2582 26.0273L11.4492 26.0273C10.9336 26.0273 10.5117 25.6055 10.5117 25.0781C10.5117 24.5508 10.9336 24.1289 11.4492 24.1289L11.5195 24.1289L11.5195 21.8672L3.96094 21.8672C2.27344 21.8672 1.25391 20.8477 1.25391 19.1602L1.25391 5.10938C1.25391 3.42188 2.27344 2.41406 3.96094 2.41406L26.4961 2.41406C28.1719 2.41406 29.1914 3.42188 29.1914 5.10938Z" fill="black" fill-opacity="0.85"/>
  <path d="M21.3398 24.1289L21.3398 14.5664C21.3398 13.8164 21.7148 13.4414 22.4766 13.4414L36.3516 13.4414C37.1016 13.4414 37.4883 13.8164 37.4883 14.5664L37.4883 24.1172Z" fill="black" fill-opacity="0.2125"/>
  <path d="M16.6758 25.0664C16.6758 25.6055 17.0977 26.0273 17.6133 26.0273L41.0508 26.0156C41.5781 26.0156 42 25.5938 42 25.0547C42 24.5391 41.5781 24.1172 41.0508 24.1172L39.375 24.1172L39.375 14.0391C39.375 12.3984 38.4961 11.5547 36.8672 11.5547L21.9609 11.5547C20.4141 11.5547 19.4531 12.3984 19.4531 14.0391L19.4531 24.1289L17.6133 24.1289C17.0977 24.1289 16.6758 24.5508 16.6758 25.0664ZM21.3398 24.1289L21.3398 14.5664C21.3398 13.8164 21.7148 13.4414 22.4766 13.4414L36.3516 13.4414C37.1016 13.4414 37.4883 13.8164 37.4883 14.5664L37.4883 24.1172Z" fill="black" fill-opacity="0.85"/>
 </g>
</svg>
