<?xml version="1.0" encoding="UTF-8"?>
<!--Generator: Apple Native CoreSVG 360-->
<!DOCTYPE svg
PUBLIC "-//W3C//DTD SVG 1.1//EN"
       "http://www.w3.org/Graphics/SVG/1.1/DTD/svg11.dtd">
<svg version="1.1" xmlns="http://www.w3.org/2000/svg" xmlns:xlink="http://www.w3.org/1999/xlink" viewBox="0 0 25.1484 24.5742">
 <g>
  <rect height="24.5742" opacity="0" width="25.1484" x="0" y="0"/>
  <path d="M19.1133 3.65625L19.1133 5.44922L17.2266 5.44922L17.2266 3.76172C17.2266 2.54297 16.5703 1.91016 15.4102 1.91016L3.70312 1.91016C2.53125 1.91016 1.88672 2.54297 1.88672 3.76172L1.88672 15.4102C1.88672 16.6289 2.53125 17.2617 3.70312 17.2617L5.68359 17.2617L5.68359 19.1484L3.67969 19.1484C1.21875 19.1484 0 17.9297 0 15.5156L0 3.65625C0 1.24219 1.21875 0.0234375 3.67969 0.0234375L15.4453 0.0234375C17.8828 0.0234375 19.1133 1.24219 19.1133 3.65625Z" fill="black" fill-opacity="0.85"/>
  <path d="M9.36328 24.5742L21.1289 24.5742C23.5664 24.5742 24.7969 23.3555 24.7969 20.9414L24.7969 9.08203C24.7969 6.66797 23.5664 5.44922 21.1289 5.44922L9.36328 5.44922C6.90234 5.44922 5.68359 6.65625 5.68359 9.08203L5.68359 20.9414C5.68359 23.3555 6.90234 24.5742 9.36328 24.5742ZM9.38672 22.6875C8.22656 22.6875 7.57031 22.0547 7.57031 20.8359L7.57031 9.1875C7.57031 7.96875 8.22656 7.33594 9.38672 7.33594L21.0938 7.33594C22.2539 7.33594 22.9102 7.96875 22.9102 9.1875L22.9102 20.8359C22.9102 22.0547 22.2539 22.6875 21.0938 22.6875Z" fill="black" fill-opacity="0.85"/>
  <path d="M10.6641 12.0938C11.5664 12.1055 12.3164 11.3555 12.3164 10.4297C12.3164 9.50391 11.5664 8.77734 10.6641 8.77734C9.75 8.77734 9 9.50391 9 10.4297C9 11.3555 9.75 12.082 10.6641 12.0938ZM19.8398 12.0938C20.7422 12.1055 21.4922 11.3555 21.4922 10.4297C21.4922 9.50391 20.7422 8.77734 19.8398 8.77734C18.9258 8.77734 18.1641 9.50391 18.1641 10.4297C18.1641 11.3555 18.9258 12.082 19.8398 12.0938ZM15.2461 16.6875C16.1484 16.6875 16.8984 15.9375 16.8984 15.0117C16.8984 14.1094 16.1484 13.3711 15.2461 13.3711C14.332 13.3711 13.5938 14.1094 13.5938 15.0117C13.5938 15.9375 14.332 16.6875 15.2461 16.6875ZM10.6641 21.2812C11.5664 21.2812 12.3164 20.5312 12.3164 19.6172C12.3164 18.7031 11.5664 17.9648 10.6641 17.9648C9.75 17.9648 9.01172 18.7031 9.01172 19.6172C9.01172 20.5312 9.75 21.2812 10.6641 21.2812ZM19.8398 21.2812C20.7422 21.2812 21.4922 20.5312 21.4922 19.6172C21.4922 18.7031 20.7422 17.9648 19.8398 17.9648C18.9258 17.9648 18.1758 18.7031 18.1758 19.6172C18.1758 20.5312 18.9258 21.2812 19.8398 21.2812Z" fill="black" fill-opacity="0.85"/>
 </g>
</svg>
