<?xml version="1.0" encoding="UTF-8"?>
<!--Generator: Apple Native CoreSVG 360-->
<!DOCTYPE svg
PUBLIC "-//W3C//DTD SVG 1.1//EN"
       "http://www.w3.org/Graphics/SVG/1.1/DTD/svg11.dtd">
<svg version="1.1" xmlns="http://www.w3.org/2000/svg" xmlns:xlink="http://www.w3.org/1999/xlink" viewBox="0 0 21.9258 21.5742">
 <g>
  <rect height="21.5742" opacity="0" width="21.9258" x="0" y="0"/>
  <path d="M3.67969 21.5742L17.8945 21.5742C20.3555 21.5742 21.5742 20.3672 21.5742 17.9531L21.5742 3.63281C21.5742 1.21875 20.3555 0 17.8945 0L3.67969 0C1.23047 0 0 1.21875 0 3.63281L0 17.9531C0 20.3672 1.23047 21.5742 3.67969 21.5742ZM3.70312 19.6875C2.53125 19.6875 1.88672 19.0664 1.88672 17.8477L1.88672 3.73828C1.88672 2.51953 2.53125 1.88672 3.70312 1.88672L17.8711 1.88672C19.0312 1.88672 19.6875 2.51953 19.6875 3.73828L19.6875 17.8477C19.6875 19.0664 19.0312 19.6875 17.8711 19.6875Z" fill="black" fill-opacity="0.85"/>
  <path d="M5.53125 7.44141C6.5625 7.45312 7.42969 6.58594 7.42969 5.51953C7.42969 4.47656 6.5625 3.63281 5.53125 3.63281C4.47656 3.63281 3.62109 4.47656 3.62109 5.51953C3.62109 6.58594 4.47656 7.41797 5.53125 7.44141ZM16.0664 7.44141C17.0977 7.45312 17.9531 6.58594 17.9531 5.51953C17.9531 4.47656 17.0977 3.63281 16.0664 3.63281C15.0117 3.63281 14.1445 4.47656 14.1445 5.51953C14.1445 6.58594 15.0117 7.41797 16.0664 7.44141ZM5.53125 12.7148C6.5625 12.7148 7.42969 11.8594 7.42969 10.793C7.42969 9.75 6.5625 8.90625 5.53125 8.90625C4.47656 8.90625 3.63281 9.75 3.63281 10.793C3.63281 11.8594 4.47656 12.7148 5.53125 12.7148ZM16.0547 12.7148C17.0977 12.7148 17.9531 11.8594 17.9531 10.793C17.9531 9.75 17.0977 8.90625 16.0547 8.90625C15.0117 8.90625 14.1562 9.75 14.1562 10.793C14.1562 11.8594 15.0117 12.7148 16.0547 12.7148ZM5.53125 17.9883C6.5625 17.9883 7.42969 17.1328 7.42969 16.0781C7.42969 15.0234 6.5625 14.1797 5.53125 14.1797C4.47656 14.1797 3.63281 15.0234 3.63281 16.0781C3.63281 17.1328 4.47656 17.9883 5.53125 17.9883ZM16.0664 17.9883C17.0977 17.9883 17.9531 17.1328 17.9531 16.0781C17.9531 15.0234 17.0977 14.1797 16.0664 14.1797C15.0117 14.1797 14.168 15.0234 14.168 16.0781C14.168 17.1328 15.0117 17.9883 16.0664 17.9883Z" fill="black" fill-opacity="0.85"/>
 </g>
</svg>
