<?xml version="1.0" encoding="UTF-8"?>
<!--Generator: Apple Native CoreSVG 360-->
<!DOCTYPE svg
PUBLIC "-//W3C//DTD SVG 1.1//EN"
       "http://www.w3.org/Graphics/SVG/1.1/DTD/svg11.dtd">
<svg version="1.1" xmlns="http://www.w3.org/2000/svg" xmlns:xlink="http://www.w3.org/1999/xlink" viewBox="0 0 26.6348 23.707">
 <g>
  <rect height="23.707" opacity="0" width="26.6348" x="0" y="0"/>
  <path d="M14.8818 11.8477C14.8818 18.9492 17.1553 23.6953 20.5772 23.6953C23.999 23.6953 26.2842 18.9492 26.2842 11.8477C26.2842 4.73438 23.999 0 20.5772 0C17.1553 0 14.8818 4.73438 14.8818 11.8477ZM16.7686 11.8477C16.7686 5.87109 18.3037 1.88672 20.5772 1.88672C22.8506 1.88672 24.3975 5.87109 24.3975 11.8477C24.3975 17.8125 22.8506 21.8086 20.5772 21.8086C18.3037 21.8086 16.7686 17.8125 16.7686 11.8477ZM8.95216 11.8477C8.95216 19.2188 11.0029 23.6953 15.9131 23.6953L20.5772 23.6953L20.5772 21.8086L15.9131 21.8086C12.1865 21.8086 10.8389 18.0469 10.8389 11.8477C10.8389 5.64844 12.1865 1.88672 15.9131 1.88672L20.5772 1.88672L20.5772 0L15.9131 0C11.0029 0 8.95216 4.46484 8.95216 11.8477ZM14.5186 4.99219L16.71 4.99219L16.71 3.45703L14.5186 3.45703C14.0967 3.45703 13.7451 3.80859 13.7451 4.23047C13.7451 4.65234 14.0967 4.99219 14.5186 4.99219ZM13.7217 8.58984L15.9131 8.58984L15.9131 7.05469L13.7217 7.05469C13.2998 7.05469 12.9483 7.39453 12.9483 7.81641C12.9483 8.23828 13.2998 8.58984 13.7217 8.58984ZM13.417 12.4688L15.6084 12.4688L15.6084 10.9336L13.417 10.9336C12.9951 10.9336 12.6553 11.2852 12.6553 11.707C12.6553 12.1289 12.9951 12.4688 13.417 12.4688ZM13.7217 16.3594L15.9131 16.3594L15.9131 14.8242L13.7217 14.8242C13.2998 14.8242 12.9483 15.1758 12.9483 15.5977C12.9483 16.0195 13.2998 16.3594 13.7217 16.3594ZM14.5186 19.957L16.71 19.957L16.71 18.4219L14.5186 18.4219C14.0967 18.4219 13.7451 18.7617 13.7451 19.1836C13.7451 19.6055 14.0967 19.957 14.5186 19.957Z" fill="black" fill-opacity="0.85"/>
  <path d="M3.53809 21.1641C4.07716 21.1641 4.6045 20.707 4.34669 20.0039C3.62013 17.8594 3.22169 15.4336 3.22169 12.9141C3.22169 10.3945 3.63184 7.98047 4.34669 5.82422C4.82716 4.44141 3.1045 4.01953 2.67091 5.25C1.87403 7.58203 1.45216 10.207 1.45216 12.9141C1.45216 15.6211 1.89747 18.2461 2.67091 20.5781C2.81153 21.0117 3.18653 21.1641 3.53809 21.1641ZM0.561532 6.22266L5.60059 8.05078C6.36231 8.33203 6.92481 7.58203 6.71388 6.94922L5.34278 2.84766C5.167 2.29688 4.6045 2.09766 4.10059 2.40234L0.409188 4.67578C-0.165031 5.03906-0.153312 5.95312 0.561532 6.22266Z" fill="black" fill-opacity="0.85"/>
 </g>
</svg>
