<?xml version="1.0" encoding="UTF-8"?>
<!--Generator: Apple Native CoreSVG 360-->
<!DOCTYPE svg
PUBLIC "-//W3C//DTD SVG 1.1//EN"
       "http://www.w3.org/Graphics/SVG/1.1/DTD/svg11.dtd">
<svg version="1.1" xmlns="http://www.w3.org/2000/svg" xmlns:xlink="http://www.w3.org/1999/xlink" viewBox="0 0 24.0469 26.3086">
 <g>
  <rect height="26.3086" opacity="0" width="24.0469" x="0" y="0"/>
  <path d="M11.8477 11.4023C18.9492 11.4023 23.6953 9.12891 23.6953 5.70703C23.6953 2.28516 18.9492 0 11.8477 0C4.73438 0 0 2.28516 0 5.70703C0 9.12891 4.73438 11.4023 11.8477 11.4023ZM11.8477 9.51562C5.87109 9.51562 1.88672 7.98047 1.88672 5.70703C1.88672 3.43359 5.87109 1.88672 11.8477 1.88672C17.8242 1.88672 21.8086 3.43359 21.8086 5.70703C21.8086 7.98047 17.8242 9.51562 11.8477 9.51562ZM11.8477 17.332C19.2188 17.332 23.6953 15.2812 23.6953 10.3711L23.6953 5.70703L21.8086 5.70703L21.8086 10.3711C21.8086 14.0977 18.0469 15.4453 11.8477 15.4453C5.64844 15.4453 1.88672 14.0977 1.88672 10.3711L1.88672 5.70703L0 5.70703L0 10.3711C0 15.2812 4.46484 17.332 11.8477 17.332ZM4.99219 11.7656L4.99219 9.57422L3.45703 9.57422L3.45703 11.7656C3.45703 12.1875 3.80859 12.5391 4.23047 12.5391C4.65234 12.5391 4.99219 12.1875 4.99219 11.7656ZM8.58984 12.5625L8.58984 10.3711L7.05469 10.3711L7.05469 12.5625C7.05469 12.9844 7.39453 13.3359 7.81641 13.3359C8.23828 13.3359 8.58984 12.9844 8.58984 12.5625ZM12.4688 12.8672L12.4688 10.6758L10.9336 10.6758L10.9336 12.8672C10.9336 13.2891 11.2852 13.6289 11.707 13.6289C12.1289 13.6289 12.4688 13.2891 12.4688 12.8672ZM16.3594 12.5625L16.3594 10.3711L14.8242 10.3711L14.8242 12.5625C14.8242 12.9844 15.1758 13.3359 15.5977 13.3359C16.0195 13.3359 16.3594 12.9844 16.3594 12.5625ZM19.957 11.7656L19.957 9.57422L18.4219 9.57422L18.4219 11.7656C18.4219 12.1875 18.7617 12.5391 19.1836 12.5391C19.6055 12.5391 19.957 12.1875 19.957 11.7656Z" fill="black" fill-opacity="0.85"/>
  <path d="M21.1641 22.7461C21.1641 22.207 20.707 21.6797 20.0039 21.9375C17.8594 22.6641 15.4336 23.0625 12.9141 23.0625C10.3945 23.0625 7.98047 22.6523 5.83594 21.9375C4.44141 21.457 4.01953 23.1797 5.25 23.6133C7.58203 24.4102 10.207 24.832 12.9141 24.832C15.6211 24.832 18.2461 24.3867 20.5781 23.6133C21.0117 23.4727 21.1641 23.0977 21.1641 22.7461ZM6.22266 25.7227L8.05078 20.6836C8.33203 19.9219 7.58203 19.3594 6.94922 19.5703L2.84766 20.9414C2.29688 21.1172 2.09766 21.6797 2.40234 22.1836L4.67578 25.875C5.03906 26.4492 5.95312 26.4375 6.22266 25.7227Z" fill="black" fill-opacity="0.85"/>
 </g>
</svg>
