<?xml version="1.0" encoding="UTF-8"?>
<!--Generator: Apple Native CoreSVG 360-->
<!DOCTYPE svg
PUBLIC "-//W3C//DTD SVG 1.1//EN"
       "http://www.w3.org/Graphics/SVG/1.1/DTD/svg11.dtd">
<svg version="1.1" xmlns="http://www.w3.org/2000/svg" xmlns:xlink="http://www.w3.org/1999/xlink" viewBox="0 0 26.6348 23.707">
 <g>
  <rect height="23.707" opacity="0" width="26.6348" x="0" y="0"/>
  <path d="M14.8818 11.8477C14.8818 18.9492 17.1553 23.6953 20.5772 23.6953C23.999 23.6953 26.2842 18.9492 26.2842 11.8477C26.2842 4.73438 23.999 0 20.5772 0C17.1553 0 14.8818 4.73438 14.8818 11.8477ZM16.7686 11.8477C16.7686 5.87109 18.3037 1.88672 20.5772 1.88672C22.8506 1.88672 24.3975 5.87109 24.3975 11.8477C24.3975 17.8125 22.8506 21.8086 20.5772 21.8086C18.3037 21.8086 16.7686 17.8125 16.7686 11.8477ZM8.95216 11.8477C8.95216 19.2188 11.0029 23.6953 15.9131 23.6953L20.5772 23.6953L20.5772 21.8086L15.9131 21.8086C12.1865 21.8086 10.8389 18.0469 10.8389 11.8477C10.8389 5.64844 12.1865 1.88672 15.9131 1.88672L20.5772 1.88672L20.5772 0L15.9131 0C11.0029 0 8.95216 4.46484 8.95216 11.8477ZM14.5186 4.99219L16.71 4.99219L16.71 3.45703L14.5186 3.45703C14.0967 3.45703 13.7451 3.80859 13.7451 4.23047C13.7451 4.65234 14.0967 4.99219 14.5186 4.99219ZM13.7217 8.58984L15.9131 8.58984L15.9131 7.05469L13.7217 7.05469C13.2998 7.05469 12.96 7.39453 12.96 7.81641C12.96 8.23828 13.2998 8.58984 13.7217 8.58984ZM13.4287 12.4688L15.6201 12.4688L15.6201 10.9336L13.4287 10.9336C13.0068 10.9336 12.6553 11.2852 12.6553 11.707C12.6553 12.1289 13.0068 12.4688 13.4287 12.4688ZM13.7217 16.3594L15.9131 16.3594L15.9131 14.8242L13.7217 14.8242C13.2998 14.8242 12.96 15.1758 12.96 15.5977C12.96 16.0195 13.2998 16.3594 13.7217 16.3594ZM14.5186 19.957L16.71 19.957L16.71 18.4219L14.5186 18.4219C14.0967 18.4219 13.7451 18.7617 13.7451 19.1836C13.7451 19.6055 14.0967 19.957 14.5186 19.957Z" fill="black" fill-opacity="0.85"/>
  <path d="M3.53809 2.09766C3.18653 2.09766 2.81153 2.26172 2.67091 2.68359C1.89747 5.01562 1.45216 7.64062 1.45216 10.3477C1.45216 13.0547 1.87403 15.6797 2.67091 18.0117C3.1045 19.2422 4.82716 18.8203 4.34669 17.4375C3.63184 15.2812 3.22169 12.8672 3.22169 10.3477C3.22169 7.82812 3.62013 5.40234 4.34669 3.25781C4.6045 2.55469 4.07716 2.09766 3.53809 2.09766ZM0.561532 17.0508C-0.153312 17.3086-0.165031 18.2344 0.409188 18.5859L4.10059 20.8594C4.6045 21.1641 5.167 20.9648 5.34278 20.4141L6.71388 16.3125C6.92481 15.6797 6.36231 14.9414 5.60059 15.2109Z" fill="black" fill-opacity="0.85"/>
 </g>
</svg>
