<?xml version="1.0" encoding="UTF-8"?>
<!--Generator: Apple Native CoreSVG 360-->
<!DOCTYPE svg
PUBLIC "-//W3C//DTD SVG 1.1//EN"
       "http://www.w3.org/Graphics/SVG/1.1/DTD/svg11.dtd">
<svg version="1.1" xmlns="http://www.w3.org/2000/svg" xmlns:xlink="http://www.w3.org/1999/xlink" viewBox="0 0 30.1406 23.707">
 <g>
  <rect height="23.707" opacity="0" width="30.1406" x="0" y="0"/>
  <path d="M1.24219 11.8477C1.24219 4.46484 3.30469 0 8.20312 0L12.8789 1.69291e-08C15.4515 0 17.3749 2.67588 18.1706 7.02772L16.5052 8.50625C16.0405 4.43036 14.6954 1.88672 12.8789 1.88672C10.6055 1.88672 9.05859 5.87109 9.05859 11.8477C9.05859 17.8125 10.6055 21.8086 12.8789 21.8086C14.6965 21.8086 16.0421 19.2545 16.5061 15.1775L18.1717 16.6556C17.3769 21.01 15.4528 23.6953 12.8789 23.6953L8.20312 23.6953C3.30469 23.6953 1.24219 19.2188 1.24219 11.8477ZM9.56032 1.88672L8.20312 1.88672C4.47656 1.88672 3.12891 5.64844 3.12891 11.8477C3.12891 18.0469 4.47656 21.8086 8.20312 21.8086L9.56239 21.8086C9.1763 21.2909 8.83089 20.6735 8.53557 19.957L6.80859 19.957C6.38672 19.957 6.04688 19.6055 6.04688 19.1836C6.04688 18.7617 6.38672 18.4219 6.80859 18.4219L7.99387 18.4219C7.80422 17.7904 7.64847 17.1011 7.52921 16.3594L6.02344 16.3594C5.60156 16.3594 5.25 16.0195 5.25 15.5977C5.25 15.1758 5.60156 14.8242 6.02344 14.8242L7.32335 14.8242C7.24105 14.0827 7.19385 13.2961 7.1845 12.4688L5.71875 12.4688C5.29688 12.4688 4.95703 12.1289 4.95703 11.707C4.95703 11.2852 5.29688 10.9336 5.71875 10.9336L7.19043 10.9336C7.20836 10.1095 7.26322 9.32641 7.3535 8.58984L6.02344 8.58984C5.60156 8.58984 5.25 8.23828 5.25 7.81641C5.25 7.39453 5.60156 7.05469 6.02344 7.05469L7.57302 7.05469C7.70623 6.31639 7.87296 5.62761 8.07008 4.99219L6.80859 4.99219C6.38672 4.99219 6.04688 4.65234 6.04688 4.23047C6.04688 3.80859 6.38672 3.45703 6.80859 3.45703L8.65531 3.45703C8.92196 2.85809 9.22579 2.33477 9.56032 1.88672Z" fill="black" fill-opacity="0.85"/>
  <path d="M27.5391 10.8516L19.3242 10.8516C18.75 10.8516 18.3164 11.2852 18.3164 11.8594C18.3164 12.4102 18.75 12.8555 19.3242 12.8555L27.5391 12.8555C28.1016 12.8555 28.5352 12.4102 28.5352 11.8594C28.5352 11.2852 28.1016 10.8516 27.5391 10.8516ZM21.1992 14.9766L21.1992 8.70703C21.1992 7.74609 20.2266 7.33594 19.5117 7.96875L15.9727 11.1211C15.4805 11.543 15.4805 12.1289 15.9727 12.5625L19.5117 15.7031C20.1914 16.3242 21.1992 15.9727 21.1992 14.9766Z" fill="black" fill-opacity="0.85"/>
 </g>
</svg>
