<?xml version="1.0" encoding="UTF-8"?>
<!--Generator: Apple Native CoreSVG 360-->
<!DOCTYPE svg
PUBLIC "-//W3C//DTD SVG 1.1//EN"
       "http://www.w3.org/Graphics/SVG/1.1/DTD/svg11.dtd">
<svg version="1.1" xmlns="http://www.w3.org/2000/svg" xmlns:xlink="http://www.w3.org/1999/xlink" viewBox="0 0 17.6836 23.707">
 <g>
  <rect height="23.707" opacity="0" width="17.6836" x="0" y="0"/>
  <path d="M5.92969 11.8477C5.92969 18.9492 8.21484 23.6953 11.6367 23.6953C15.0586 23.6953 17.332 18.9492 17.332 11.8477C17.332 4.73438 15.0586 0 11.6367 0C8.21484 0 5.92969 4.73438 5.92969 11.8477ZM7.81641 11.8477C7.81641 5.87109 9.36328 1.88672 11.6367 1.88672C13.9102 1.88672 15.4453 5.87109 15.4453 11.8477C15.4453 17.8125 13.9102 21.8086 11.6367 21.8086C9.36328 21.8086 7.81641 17.8125 7.81641 11.8477ZM0 11.8477C0 19.2188 2.0625 23.6953 6.96094 23.6953L11.6367 23.6953L11.6367 21.8086L6.96094 21.8086C3.23438 21.8086 1.88672 18.0469 1.88672 11.8477C1.88672 5.64844 3.23438 1.88672 6.96094 1.88672L11.6367 1.88672L11.6367 0L6.96094 0C2.0625 0 0 4.46484 0 11.8477ZM5.56641 4.99219L7.75781 4.99219L7.75781 3.45703L5.56641 3.45703C5.14453 3.45703 4.80469 3.80859 4.80469 4.23047C4.80469 4.65234 5.14453 4.99219 5.56641 4.99219ZM4.76953 8.58984L6.96094 8.58984L6.96094 7.05469L4.76953 7.05469C4.34766 7.05469 4.00781 7.39453 4.00781 7.81641C4.00781 8.23828 4.34766 8.58984 4.76953 8.58984ZM4.47656 12.4688L6.66797 12.4688L6.66797 10.9336L4.47656 10.9336C4.05469 10.9336 3.70312 11.2852 3.70312 11.707C3.70312 12.1289 4.05469 12.4688 4.47656 12.4688ZM4.76953 16.3594L6.96094 16.3594L6.96094 14.8242L4.76953 14.8242C4.34766 14.8242 4.00781 15.1758 4.00781 15.5977C4.00781 16.0195 4.34766 16.3594 4.76953 16.3594ZM5.56641 19.957L7.75781 19.957L7.75781 18.4219L5.56641 18.4219C5.14453 18.4219 4.80469 18.7617 4.80469 19.1836C4.80469 19.6055 5.14453 19.957 5.56641 19.957Z" fill="black" fill-opacity="0.85"/>
 </g>
</svg>
