<?xml version="1.0" encoding="UTF-8"?>
<!--Generator: Apple Native CoreSVG 360-->
<!DOCTYPE svg
PUBLIC "-//W3C//DTD SVG 1.1//EN"
       "http://www.w3.org/Graphics/SVG/1.1/DTD/svg11.dtd">
<svg version="1.1" xmlns="http://www.w3.org/2000/svg" xmlns:xlink="http://www.w3.org/1999/xlink" viewBox="0 0 24.0469 32.3086">
 <g>
  <rect height="32.3086" opacity="0" width="24.0469" x="0" y="0"/>
  <path d="M23.6953 17.2617L23.6953 21.9375C23.6953 26.8359 19.2188 28.8984 11.8477 28.8984C4.46484 28.8984 0 26.8359 0 21.9375L1.31671e-08 17.2617C0 14.6892 2.67588 12.7657 7.02772 11.97L8.50625 13.6354C4.43036 14.1001 1.88672 15.4452 1.88672 17.2617C1.88672 19.5352 5.87109 21.082 11.8477 21.082C17.8242 21.082 21.8086 19.5352 21.8086 17.2617C21.8086 15.4436 19.2603 14.0976 15.178 13.634L16.6556 11.9689C21.01 12.7637 23.6953 14.6878 23.6953 17.2617ZM19.957 21.6051L19.957 23.3203C19.957 23.7422 19.6055 24.0938 19.1836 24.0938C18.7617 24.0938 18.4219 23.7422 18.4219 23.3203L18.4219 22.1468C17.7904 22.3364 17.1011 22.4922 16.3594 22.6114L16.3594 24.1172C16.3594 24.5391 16.0195 24.8906 15.5977 24.8906C15.1758 24.8906 14.8242 24.5391 14.8242 24.1172L14.8242 22.8173C14.0827 22.8996 13.2961 22.9468 12.4687 22.9561L12.4688 24.4219C12.4688 24.8438 12.1289 25.1836 11.707 25.1836C11.2852 25.1836 10.9336 24.8438 10.9336 24.4219L10.9336 22.9502C10.1095 22.9323 9.32641 22.8774 8.58984 22.7871L8.58984 24.1172C8.58984 24.5391 8.23828 24.8906 7.81641 24.8906C7.39453 24.8906 7.05469 24.5391 7.05469 24.1172L7.05469 22.5676C6.31639 22.4344 5.62761 22.2677 4.99219 22.0705L4.99219 23.3203C4.99219 23.7422 4.65234 24.0938 4.23047 24.0938C3.80859 24.0938 3.45703 23.7422 3.45703 23.3203L3.45703 21.4853C2.85809 21.2187 2.33477 20.9148 1.88672 20.5803L1.88672 21.9375C1.88672 25.6641 5.64844 27.0117 11.8477 27.0117C18.0469 27.0117 21.8086 25.6641 21.8086 21.9375L21.8086 20.5782C21.2909 20.9643 20.6735 21.3097 19.957 21.6051Z" fill="black" fill-opacity="0.85"/>
  <path d="M10.8516 2.60156L10.8516 10.9805C10.8516 11.5547 11.2852 11.9883 11.8594 11.9883C12.4102 11.9883 12.8555 11.5547 12.8555 10.9805L12.8555 2.60156C12.8555 2.03906 12.4102 1.60547 11.8594 1.60547C11.2852 1.60547 10.8516 2.03906 10.8516 2.60156ZM14.9766 8.94141L8.70703 8.94141C7.74609 8.94141 7.33594 9.90234 7.96875 10.6289L11.1211 14.168C11.543 14.6602 12.1289 14.6602 12.5625 14.168L15.7031 10.6289C16.3242 9.9375 15.9727 8.94141 14.9766 8.94141Z" fill="black" fill-opacity="0.85"/>
 </g>
</svg>
