<?xml version="1.0" encoding="UTF-8"?>
<!--Generator: Apple Native CoreSVG 360-->
<!DOCTYPE svg
PUBLIC "-//W3C//DTD SVG 1.1//EN"
       "http://www.w3.org/Graphics/SVG/1.1/DTD/svg11.dtd">
<svg version="1.1" xmlns="http://www.w3.org/2000/svg" xmlns:xlink="http://www.w3.org/1999/xlink" viewBox="0 0 23.6719 7.69922">
 <g>
  <rect height="7.69922" opacity="0" width="23.6719" x="0" y="0"/>
  <path d="M0 1.00781C0 1.55859 0.445312 2.00391 0.996094 2.00391L22.3125 2.00391C22.8633 2.00391 23.3203 1.55859 23.3203 1.00781C23.3203 0.457031 22.8633 0 22.3125 0L0.996094 0C0.445312 0 0 0.457031 0 1.00781ZM0 6.67969C0 7.23047 0.445312 7.6875 0.996094 7.6875L5.13281 7.6875C5.68359 7.6875 6.12891 7.23047 6.12891 6.67969C6.12891 6.12891 5.68359 5.68359 5.13281 5.68359L0.996094 5.68359C0.445312 5.68359 0 6.12891 0 6.67969ZM8.58984 6.67969C8.58984 7.23047 9.04688 7.6875 9.59766 7.6875L13.7109 7.6875C14.2617 7.6875 14.707 7.23047 14.707 6.67969C14.707 6.12891 14.2617 5.68359 13.7109 5.68359L9.59766 5.68359C9.04688 5.68359 8.58984 6.12891 8.58984 6.67969ZM17.168 6.67969C17.168 7.23047 17.6133 7.6875 18.1641 7.6875L22.2188 7.6875C22.7695 7.6875 23.2266 7.23047 23.2266 6.67969C23.2266 6.12891 22.7695 5.68359 22.2188 5.68359L18.1641 5.68359C17.6133 5.68359 17.168 6.12891 17.168 6.67969Z" fill="black" fill-opacity="0.85"/>
 </g>
</svg>
