<?xml version="1.0" encoding="UTF-8"?>
<!--Generator: Apple Native CoreSVG 360-->
<!DOCTYPE svg
PUBLIC "-//W3C//DTD SVG 1.1//EN"
       "http://www.w3.org/Graphics/SVG/1.1/DTD/svg11.dtd">
<svg version="1.1" xmlns="http://www.w3.org/2000/svg" xmlns:xlink="http://www.w3.org/1999/xlink" viewBox="0 0 26.5195 29.1445">
 <g>
  <rect height="29.1445" opacity="0" width="26.5195" x="0" y="0"/>
  <path d="M23.25 4.95703L23.25 16.3172C22.6769 15.9522 22.0422 15.676 21.3633 15.5063L21.3633 9.80859L4.80469 9.80859L4.80469 21.9844L10.2533 21.9844C10.2434 22.0569 10.2422 22.1318 10.2422 22.207C10.2422 22.6565 10.2843 23.0957 10.3687 23.5195L4.80469 23.5195L4.80469 23.9531C4.80469 24.5156 5.17969 24.8789 5.71875 24.8789L10.7717 24.8789C11.0582 25.5747 11.4556 26.2119 11.9462 26.7656L5.63672 26.7656C4.00781 26.7656 2.91797 25.6523 2.91797 23.9766L2.91797 4.95703C2.91797 3.28125 4.00781 2.15625 5.63672 2.15625L20.543 2.15625C22.1602 2.15625 23.25 3.28125 23.25 4.95703ZM16.4414 11.8008C16.4414 12.1523 16.207 12.3984 15.8555 12.3984L10.3242 12.3984C9.97266 12.3984 9.72656 12.1523 9.72656 11.8008C9.72656 11.4492 9.97266 11.2148 10.3242 11.2148L15.8555 11.2148C16.207 11.2148 16.4414 11.4492 16.4414 11.8008ZM5.71875 4.04297C5.17969 4.04297 4.80469 4.41797 4.80469 4.98047L4.80469 8.27344L21.3633 8.27344L21.3633 4.98047C21.3633 4.41797 21 4.04297 20.4492 4.04297ZM8.36719 6.15234C8.36719 6.72656 7.91016 7.19531 7.33594 7.19531C6.77344 7.19531 6.30469 6.72656 6.30469 6.15234C6.30469 5.58984 6.77344 5.12109 7.33594 5.12109C7.91016 5.12109 8.36719 5.58984 8.36719 6.15234ZM11.3555 6.15234C11.3555 6.72656 10.8984 7.19531 10.3242 7.19531C9.76172 7.19531 9.30469 6.72656 9.30469 6.15234C9.30469 5.58984 9.76172 5.12109 10.3242 5.12109C10.8984 5.12109 11.3555 5.58984 11.3555 6.15234Z" fill="black" fill-opacity="0.85"/>
  <path d="M25.1602 22.207C25.1602 25.3008 22.6758 27.7734 19.582 27.7734C19.168 27.7734 18.7652 27.7292 18.3791 27.6419C19.3 27.4449 20.1335 27.0192 20.8167 26.4242C22.6849 25.9204 23.9766 24.2723 23.9766 22.207C23.9766 20.1315 22.6842 18.4814 20.8152 17.9778C20.1322 17.3828 19.2993 16.9574 18.3791 16.7605C18.7652 16.6732 19.168 16.6289 19.582 16.6289C22.6758 16.6289 25.1602 19.1016 25.1602 22.207Z" fill="black" fill-opacity="0.85"/>
  <path d="M17.1797 27.7734C20.2617 27.7734 22.7461 25.3008 22.7461 22.207C22.7461 19.1016 20.2617 16.6289 17.1797 16.6289C14.0859 16.6289 11.6016 19.1016 11.6016 22.207C11.6016 25.3008 14.0859 27.7734 17.1797 27.7734ZM17.1797 26.5898C14.6602 26.5898 12.7852 24.7031 12.7852 22.207C12.7852 19.6992 14.6602 17.8125 17.1797 17.8125C19.6758 17.8125 21.5625 19.6992 21.5625 22.207C21.5625 24.7031 19.6758 26.5898 17.1797 26.5898ZM17.1797 25.7109C19.1016 25.7109 20.6836 24.1406 20.6836 22.207C20.6836 20.2734 19.1016 18.7031 17.1797 18.7031C15.2344 18.7031 13.6641 20.2734 13.6641 22.207C13.6641 24.1406 15.2344 25.7109 17.1797 25.7109ZM17.1797 24.6445C15.75 24.6445 14.7305 23.625 14.7305 22.207C14.7305 20.7773 15.75 19.7695 17.1797 19.7695C18.6094 19.7695 19.6172 20.7773 19.6172 22.207C19.6172 23.6367 18.5977 24.6445 17.1797 24.6445Z" fill="black" fill-opacity="0.85"/>
 </g>
</svg>
