<?xml version="1.0" encoding="UTF-8"?>
<!--Generator: Apple Native CoreSVG 360-->
<!DOCTYPE svg
PUBLIC "-//W3C//DTD SVG 1.1//EN"
       "http://www.w3.org/Graphics/SVG/1.1/DTD/svg11.dtd">
<svg version="1.1" xmlns="http://www.w3.org/2000/svg" xmlns:xlink="http://www.w3.org/1999/xlink" viewBox="0 0 38.0742 24.4336">
 <g>
  <rect height="24.4336" opacity="0" width="38.0742" x="0" y="0"/>
  <path d="M26.0508 3.55078L26.0508 6.39844L18.9492 6.39844C16.9453 6.39844 15.9375 7.35938 15.9375 9.41016L15.9375 18.3633C15.9375 18.3714 15.9375 18.3794 15.9382 18.3867L2.73047 18.3867C2.21484 18.3867 1.88672 18.0586 1.88672 17.543L1.88672 3.55078C1.88672 3.02344 2.21484 2.70703 2.73047 2.70703L25.207 2.70703C25.7227 2.70703 26.0508 3.02344 26.0508 3.55078Z" fill="black" fill-opacity="0.2125"/>
  <path d="M27.9375 3.51562L27.9375 6.39844L26.0508 6.39844L26.0508 3.55078C26.0508 3.02344 25.7227 2.70703 25.207 2.70703L2.73047 2.70703C2.21484 2.70703 1.88672 3.02344 1.88672 3.55078L1.88672 17.543C1.88672 18.0586 2.21484 18.3867 2.73047 18.3867L15.9382 18.3867C15.9435 19.9278 16.5229 20.8417 17.6719 21.1933L17.6719 22.5352L17.7422 22.5352C18.2578 22.5352 18.6797 22.957 18.6797 23.4844C18.6797 24.0117 18.2578 24.4336 17.7422 24.4336L10.1953 24.4336C9.67969 24.4336 9.24609 24.0117 9.24609 23.4844C9.24609 22.957 9.67969 22.5352 10.1953 22.5352L10.2656 22.5352L10.2656 20.2734L2.69531 20.2734C1.01953 20.2734 0 19.2539 0 17.5664L0 3.51562C0 1.82812 1.01953 0.820312 2.69531 0.820312L25.2305 0.820312C26.918 0.820312 27.9375 1.82812 27.9375 3.51562Z" fill="black" fill-opacity="0.85"/>
  <path d="M17.8242 18.3281L17.8242 9.44531C17.8242 8.61328 18.1758 8.28516 18.9844 8.28516L34.6875 8.28516C35.4844 8.28516 35.8359 8.61328 35.8359 9.44531L35.8359 18.3281C35.8359 19.1484 35.4844 19.4766 34.6875 19.4766L18.9844 19.4766C18.1758 19.4766 17.8242 19.1484 17.8242 18.3281Z" fill="black" fill-opacity="0.2125"/>
  <path d="M15.9375 18.3633C15.9375 20.4141 16.9453 21.3633 18.9492 21.3633L34.7227 21.3633C36.7266 21.3633 37.7227 20.4141 37.7227 18.3633L37.7227 9.41016C37.7227 7.35938 36.7266 6.39844 34.7227 6.39844L18.9492 6.39844C16.9453 6.39844 15.9375 7.35938 15.9375 9.41016ZM17.8242 18.3281L17.8242 9.44531C17.8242 8.61328 18.1758 8.28516 18.9844 8.28516L34.6875 8.28516C35.4844 8.28516 35.8359 8.61328 35.8359 9.44531L35.8359 18.3281C35.8359 19.1484 35.4844 19.4766 34.6875 19.4766L18.9844 19.4766C18.1758 19.4766 17.8242 19.1484 17.8242 18.3281ZM23.7305 23.0625L29.9414 23.0625L29.9414 20.25L23.7305 20.25ZM23.6602 24.4336L30 24.4336C30.5273 24.4336 30.9492 24.0117 30.9492 23.4844C30.9492 22.957 30.5273 22.5352 30 22.5352L23.6602 22.5352C23.1445 22.5352 22.7109 22.957 22.7109 23.4844C22.7109 24.0117 23.1445 24.4336 23.6602 24.4336Z" fill="black" fill-opacity="0.85"/>
 </g>
</svg>
