<?xml version="1.0" encoding="UTF-8"?>
<!--Generator: Apple Native CoreSVG 360-->
<!DOCTYPE svg
PUBLIC "-//W3C//DTD SVG 1.1//EN"
       "http://www.w3.org/Graphics/SVG/1.1/DTD/svg11.dtd">
<svg version="1.1" xmlns="http://www.w3.org/2000/svg" xmlns:xlink="http://www.w3.org/1999/xlink" viewBox="0 0 34.875 29.8242">
 <g>
  <rect height="29.8242" opacity="0" width="34.875" x="0" y="0"/>
  <path d="M31.2305 6.21094L31.2305 11.8079C30.6032 11.653 29.954 11.7096 29.3437 11.9712L29.3438 6.24609C29.3438 5.71875 29.0156 5.40234 28.5 5.40234L6.02344 5.40234C5.50781 5.40234 5.17969 5.71875 5.17969 6.24609L5.17969 20.2383C5.17969 20.7539 5.50781 21.082 6.02344 21.082L22.043 21.082L20.0273 23.0977C19.1836 23.1797 18.5156 23.5898 18.1406 24.3047L17.0039 26.3555C16.8855 26.5997 16.8127 26.8638 16.7868 27.1289L13.4883 27.1289C12.9727 27.1289 12.5508 26.707 12.5508 26.1797C12.5508 25.6523 12.9727 25.2305 13.4883 25.2305L13.5586 25.2305L13.5586 22.9687L6 22.9688C4.3125 22.9688 3.29297 21.9492 3.29297 20.2617L3.29297 6.21094C3.29297 4.52344 4.3125 3.51562 6 3.51562L28.5352 3.51562C30.2109 3.51562 31.2305 4.52344 31.2305 6.21094Z" fill="black" fill-opacity="0.85"/>
  <path d="M24.1992 18.9961C23.9062 19.2891 23.9062 19.6758 24.1992 19.9805L26.625 22.418C26.918 22.7109 27.3164 22.6875 27.6094 22.4062L28.2656 21.7148C28.0547 21.3984 28.0781 20.9648 28.3828 20.6719C28.6641 20.3906 29.0859 20.3555 29.4258 20.5781L32.707 17.2969C33.4688 16.5352 33.4805 15.6328 32.7422 14.8945L31.7109 13.8633C30.9609 13.1133 30.082 13.1367 29.3086 13.9102L26.0156 17.168C26.25 17.5195 26.2148 17.9414 25.9219 18.2344C25.6289 18.5156 25.207 18.5508 24.8672 18.3398ZM27.6211 17.6836L30.1289 15.1875C30.2227 15.0938 30.3867 15.0938 30.4922 15.1875C30.5859 15.2695 30.5742 15.4336 30.4805 15.5273L27.9492 18.0352C27.8438 18.1406 27.7148 18.1289 27.6328 18.0469C27.5273 17.9414 27.5156 17.8008 27.6211 17.6836ZM28.582 18.6328L31.0781 16.1367C31.1719 16.043 31.3242 16.043 31.418 16.1367C31.5117 16.2539 31.5117 16.3828 31.418 16.4648L28.9219 18.9844C28.8047 19.0898 28.6523 19.0898 28.5703 18.9961C28.4531 18.8906 28.4531 18.75 28.582 18.6328ZM19.5586 25.043L18.4219 27.082C18.3398 27.2695 18.3047 27.4336 18.4219 27.5391L19.043 28.1602C19.1602 28.2773 19.3125 28.2422 19.5 28.1602L21.5508 27.0352C21.75 26.9297 21.8789 26.707 21.8789 26.5312L21.9023 25.875L25.4062 22.3828L24.2109 21.1875L20.7188 24.6797L20.0742 24.7148C19.8633 24.7266 19.6641 24.8438 19.5586 25.043Z" fill="black" fill-opacity="0.85"/>
 </g>
</svg>
