<?xml version="1.0" encoding="UTF-8"?>
<!--Generator: Apple Native CoreSVG 360-->
<!DOCTYPE svg
PUBLIC "-//W3C//DTD SVG 1.1//EN"
       "http://www.w3.org/Graphics/SVG/1.1/DTD/svg11.dtd">
<svg version="1.1" xmlns="http://www.w3.org/2000/svg" xmlns:xlink="http://www.w3.org/1999/xlink" viewBox="0 0 28.4062 21.832">
 <g>
  <rect height="21.832" opacity="0" width="28.4062" x="0" y="0"/>
  <path d="M5.46094 15.1758L22.5938 15.1758C24.3398 15.1758 25.2773 14.25 25.2773 12.5391L25.2773 9.26953C25.2773 7.57031 24.3398 6.63281 22.5938 6.63281L5.46094 6.63281C3.71484 6.63281 2.77734 7.57031 2.77734 9.26953L2.77734 12.5391C2.77734 14.25 3.71484 15.1758 5.46094 15.1758ZM5.48438 13.4062C4.88672 13.4062 4.54688 13.0664 4.54688 12.4453L4.54688 9.375C4.54688 8.74219 4.88672 8.40234 5.48438 8.40234L22.5703 8.40234C23.168 8.40234 23.5078 8.74219 23.5078 9.375L23.5078 12.4453C23.5078 13.0664 23.168 13.4062 22.5703 13.4062Z" fill="black" fill-opacity="0.85"/>
  <path d="M0.820312 1.72266L27.2344 1.72266C27.6914 1.72266 28.0547 1.3125 28.0547 0.855469C28.0547 0.398438 27.6914 0 27.2344 0L0.820312 0C0.351562 0 0 0.398438 0 0.855469C0 1.3125 0.351562 1.72266 0.820312 1.72266ZM0.820312 20.0977C0.351562 20.0977 0 20.4961 0 20.9648C0 21.4219 0.351562 21.8203 0.820312 21.8203L27.2344 21.8203C27.6914 21.8203 28.0547 21.4219 28.0547 20.9648C28.0547 20.4961 27.6914 20.0977 27.2344 20.0977Z" fill="black" fill-opacity="0.85"/>
 </g>
</svg>
