<?xml version="1.0" encoding="UTF-8"?>
<!--Generator: Apple Native CoreSVG 360-->
<!DOCTYPE svg
PUBLIC "-//W3C//DTD SVG 1.1//EN"
       "http://www.w3.org/Graphics/SVG/1.1/DTD/svg11.dtd">
<svg version="1.1" xmlns="http://www.w3.org/2000/svg" xmlns:xlink="http://www.w3.org/1999/xlink" viewBox="0 0 28.8516 24.6445">
 <g>
  <rect height="24.6445" opacity="0" width="28.8516" x="0" y="0"/>
  <path d="M3.04688 20.8711L0.820312 20.8711C0.351562 20.8711 0 20.4609 0 20.0039C0 19.5469 0.351562 19.1484 0.820312 19.1484L3.04688 19.1484ZM28.5 20.0039C28.5 20.4609 28.1367 20.8711 27.6797 20.8711L25.4531 20.8711L25.4531 19.1484L27.6797 19.1484C28.1367 19.1484 28.5 19.5469 28.5 20.0039ZM7.19531 5.48438L0.820312 5.48438C0.351562 5.48438 0 5.08594 0 4.62891C0 4.17188 0.351562 3.76172 0.820312 3.76172L7.19531 3.76172ZM28.0547 4.62891C28.0547 5.08594 27.6914 5.48438 27.2344 5.48438L21.3047 5.48438L21.3047 3.76172L27.2344 3.76172C27.6914 3.76172 28.0547 4.17188 28.0547 4.62891Z" fill="black" fill-opacity="0.85"/>
  <path d="M9.87891 9.24609L18.6211 9.24609C20.3672 9.24609 21.3047 8.32031 21.3047 6.60938L21.3047 2.63672C21.3047 0.925781 20.3672 0 18.6211 0L9.87891 0C8.13281 0 7.19531 0.925781 7.19531 2.63672L7.19531 6.60938C7.19531 8.32031 8.13281 9.24609 9.87891 9.24609ZM9.91406 7.47656C9.30469 7.47656 8.96484 7.13672 8.96484 6.51562L8.96484 2.74219C8.96484 2.10938 9.30469 1.76953 9.91406 1.76953L18.5859 1.76953C19.1953 1.76953 19.5352 2.10938 19.5352 2.74219L19.5352 6.51562C19.5352 7.13672 19.1953 7.47656 18.5859 7.47656ZM5.73047 24.6328L22.7695 24.6328C24.5156 24.6328 25.4531 23.6953 25.4531 21.9961L25.4531 18.0234C25.4531 16.3125 24.5156 15.375 22.7695 15.375L5.73047 15.375C3.98438 15.375 3.04688 16.3125 3.04688 18.0234L3.04688 21.9961C3.04688 23.6953 3.98438 24.6328 5.73047 24.6328ZM5.76562 22.8633C5.15625 22.8633 4.81641 22.5117 4.81641 21.8906L4.81641 18.1172C4.81641 17.4961 5.15625 17.1445 5.76562 17.1445L22.7344 17.1445C23.3438 17.1445 23.6836 17.4961 23.6836 18.1172L23.6836 21.8906C23.6836 22.5117 23.3438 22.8633 22.7344 22.8633Z" fill="black" fill-opacity="0.85"/>
 </g>
</svg>
