<?xml version="1.0" encoding="UTF-8"?>
<!--Generator: Apple Native CoreSVG 360-->
<!DOCTYPE svg
PUBLIC "-//W3C//DTD SVG 1.1//EN"
       "http://www.w3.org/Graphics/SVG/1.1/DTD/svg11.dtd">
<svg version="1.1" xmlns="http://www.w3.org/2000/svg" xmlns:xlink="http://www.w3.org/1999/xlink" viewBox="0 0 30.375 27.1758">
 <g>
  <rect height="27.1758" opacity="0" width="30.375" x="0" y="0"/>
  <path d="M6.28125 24.8438L10.3594 24.8438C12.0703 24.8438 12.9961 23.8945 12.9961 22.1484L12.9961 5.01562C12.9961 3.26953 12.0703 2.33203 10.3594 2.33203L6.28125 2.33203C4.58203 2.33203 3.64453 3.26953 3.64453 5.01562L3.64453 22.1484C3.64453 23.8945 4.58203 24.8438 6.28125 24.8438ZM6.38672 23.0742C5.75391 23.0742 5.41406 22.7227 5.41406 22.125L5.41406 5.03906C5.41406 4.44141 5.75391 4.10156 6.38672 4.10156L10.2656 4.10156C10.8867 4.10156 11.2266 4.44141 11.2266 5.03906L11.2266 22.125C11.2266 22.7227 10.8867 23.0742 10.2656 23.0742ZM23.3086 20.6836L27.3867 20.6836C29.0977 20.6836 30.0234 19.7461 30.0234 18L30.0234 9.16406C30.0234 7.41797 29.0977 6.48047 27.3867 6.48047L23.3086 6.48047C21.5977 6.48047 20.6719 7.41797 20.6719 9.16406L20.6719 18C20.6719 19.7461 21.5977 20.6836 23.3086 20.6836ZM23.4023 18.9141C22.7812 18.9141 22.4414 18.5742 22.4414 17.9766L22.4414 9.19922C22.4414 8.58984 22.7812 8.25 23.4023 8.25L27.2812 8.25C27.9141 8.25 28.2539 8.58984 28.2539 9.19922L28.2539 17.9766C28.2539 18.5742 27.9141 18.9141 27.2812 18.9141Z" fill="black" fill-opacity="0.85"/>
  <path d="M0.855469 27.1641C1.32422 27.1641 1.72266 26.8125 1.72266 26.3555L1.72266 0.808594C1.72266 0.351562 1.32422 0 0.855469 0C0.398438 0 0 0.351562 0 0.808594L0 26.3555C0 26.8125 0.398438 27.1641 0.855469 27.1641ZM17.8828 27.1641C18.3398 27.1641 18.7383 26.8125 18.7383 26.3555L18.7383 0.808594C18.7383 0.351562 18.3398 0 17.8828 0C17.4258 0 17.0156 0.351562 17.0156 0.808594L17.0156 26.3555C17.0156 26.8125 17.4258 27.1641 17.8828 27.1641Z" fill="black" fill-opacity="0.85"/>
 </g>
</svg>
