<?xml version="1.0" encoding="UTF-8"?>
<!--Generator: Apple Native CoreSVG 360-->
<!DOCTYPE svg
PUBLIC "-//W3C//DTD SVG 1.1//EN"
       "http://www.w3.org/Graphics/SVG/1.1/DTD/svg11.dtd">
<svg version="1.1" xmlns="http://www.w3.org/2000/svg" xmlns:xlink="http://www.w3.org/1999/xlink" viewBox="0 0 24.1055 27.1758">
 <g>
  <rect height="27.1758" opacity="0" width="24.1055" x="0" y="0"/>
  <path d="M5.54297 26.3555C5.54297 26.8125 5.14453 27.1641 4.6875 27.1641C4.23047 27.1641 3.82031 26.8125 3.82031 26.3555L3.82031 24.1641L5.54297 24.1641ZM19.9453 26.3555C19.9453 26.8125 19.5352 27.1641 19.0781 27.1641C18.6211 27.1641 18.2227 26.8125 18.2227 26.3555L18.2227 20.6836L19.9453 20.6836ZM19.9453 0.808594L19.9453 6.48047L18.2227 6.48047L18.2227 0.808594C18.2227 0.351562 18.6211 0 19.0781 0C19.5352 0 19.9453 0.351562 19.9453 0.808594ZM5.54297 0.808594L5.54297 3.01172L3.82031 3.01172L3.82031 0.808594C3.82031 0.351562 4.23047 0 4.6875 0C5.14453 0 5.54297 0.351562 5.54297 0.808594Z" fill="black" fill-opacity="0.85"/>
  <path d="M2.63672 24.1641L6.71484 24.1641C8.42578 24.1641 9.35156 23.2148 9.35156 21.4688L9.35156 5.69531C9.35156 3.94922 8.42578 3.01172 6.71484 3.01172L2.63672 3.01172C0.925781 3.01172 0 3.94922 0 5.69531L0 21.4688C0 23.2148 0.925781 24.1641 2.63672 24.1641ZM2.74219 22.3945C2.10938 22.3945 1.76953 22.043 1.76953 21.4453L1.76953 5.71875C1.76953 5.12109 2.10938 4.78125 2.74219 4.78125L6.62109 4.78125C7.24219 4.78125 7.58203 5.12109 7.58203 5.71875L7.58203 21.4453C7.58203 22.043 7.24219 22.3945 6.62109 22.3945ZM17.0391 20.6836L21.1172 20.6836C22.8281 20.6836 23.7539 19.7461 23.7539 18L23.7539 9.16406C23.7539 7.41797 22.8281 6.48047 21.1172 6.48047L17.0391 6.48047C15.3281 6.48047 14.4023 7.41797 14.4023 9.16406L14.4023 18C14.4023 19.7461 15.3281 20.6836 17.0391 20.6836ZM17.1328 18.9141C16.5117 18.9141 16.1719 18.5742 16.1719 17.9766L16.1719 9.19922C16.1719 8.58984 16.5117 8.25 17.1328 8.25L21.0117 8.25C21.6445 8.25 21.9844 8.58984 21.9844 9.19922L21.9844 17.9766C21.9844 18.5742 21.6445 18.9141 21.0117 18.9141Z" fill="black" fill-opacity="0.85"/>
 </g>
</svg>
