<?xml version="1.0" encoding="UTF-8"?>
<!--Generator: Apple Native CoreSVG 360-->
<!DOCTYPE svg
PUBLIC "-//W3C//DTD SVG 1.1//EN"
       "http://www.w3.org/Graphics/SVG/1.1/DTD/svg11.dtd">
<svg version="1.1" xmlns="http://www.w3.org/2000/svg" xmlns:xlink="http://www.w3.org/1999/xlink" viewBox="0 0 28.4062 27.9492">
 <g>
  <rect height="27.9492" opacity="0" width="28.4062" x="0" y="0"/>
  <path d="M9.60938 12.1875L18.4453 12.1875C20.1914 12.1875 21.1289 11.2617 21.1289 9.55078L21.1289 6.28125C21.1289 4.57031 20.1914 3.64453 18.4453 3.64453L9.60938 3.64453C7.86328 3.64453 6.92578 4.57031 6.92578 6.28125L6.92578 9.55078C6.92578 11.2617 7.86328 12.1875 9.60938 12.1875ZM9.63281 10.418C9.03516 10.418 8.69531 10.0781 8.69531 9.45703L8.69531 6.38672C8.69531 5.75391 9.03516 5.41406 9.63281 5.41406L18.4219 5.41406C19.0195 5.41406 19.3594 5.75391 19.3594 6.38672L19.3594 9.45703C19.3594 10.0781 19.0195 10.418 18.4219 10.418ZM5.46094 27.9375L22.5938 27.9375C24.3398 27.9375 25.2773 27.0117 25.2773 25.3008L25.2773 22.0312C25.2773 20.3203 24.3398 19.3945 22.5938 19.3945L5.46094 19.3945C3.71484 19.3945 2.77734 20.3203 2.77734 22.0312L2.77734 25.3008C2.77734 27.0117 3.71484 27.9375 5.46094 27.9375ZM5.48438 26.168C4.88672 26.168 4.54688 25.8281 4.54688 25.1953L4.54688 22.125C4.54688 21.5039 4.88672 21.1641 5.48438 21.1641L22.5703 21.1641C23.168 21.1641 23.5078 21.5039 23.5078 22.125L23.5078 25.1953C23.5078 25.8281 23.168 26.168 22.5703 26.168Z" fill="black" fill-opacity="0.85"/>
  <path d="M0.820312 1.72266L27.2344 1.72266C27.6914 1.72266 28.0547 1.3125 28.0547 0.855469C28.0547 0.398438 27.6914 0 27.2344 0L0.820312 0C0.351562 0 0 0.398438 0 0.855469C0 1.3125 0.351562 1.72266 0.820312 1.72266ZM0.820312 17.4609L27.2344 17.4609C27.6914 17.4609 28.0547 17.0625 28.0547 16.6055C28.0547 16.1484 27.6914 15.7383 27.2344 15.7383L0.820312 15.7383C0.351562 15.7383 0 16.1484 0 16.6055C0 17.0625 0.351562 17.4609 0.820312 17.4609Z" fill="black" fill-opacity="0.85"/>
 </g>
</svg>
