<?xml version="1.0" encoding="UTF-8"?>
<!--Generator: Apple Native CoreSVG 360-->
<!DOCTYPE svg
PUBLIC "-//W3C//DTD SVG 1.1//EN"
       "http://www.w3.org/Graphics/SVG/1.1/DTD/svg11.dtd">
<svg version="1.1" xmlns="http://www.w3.org/2000/svg" xmlns:xlink="http://www.w3.org/1999/xlink" viewBox="0 0 30.375 27.1758">
 <g>
  <rect height="27.1758" opacity="0" width="30.375" x="0" y="0"/>
  <path d="M2.63672 24.8438L6.71484 24.8438C8.42578 24.8438 9.35156 23.8945 9.35156 22.1484L9.35156 5.01562C9.35156 3.26953 8.42578 2.33203 6.71484 2.33203L2.63672 2.33203C0.925781 2.33203 0 3.26953 0 5.01562L0 22.1484C0 23.8945 0.925781 24.8438 2.63672 24.8438ZM2.74219 23.0742C2.10938 23.0742 1.76953 22.7227 1.76953 22.125L1.76953 5.03906C1.76953 4.44141 2.10938 4.10156 2.74219 4.10156L6.62109 4.10156C7.24219 4.10156 7.58203 4.44141 7.58203 5.03906L7.58203 22.125C7.58203 22.7227 7.24219 23.0742 6.62109 23.0742ZM19.6641 20.6836L23.7305 20.6836C25.4414 20.6836 26.3789 19.7461 26.3789 18L26.3789 9.16406C26.3789 7.41797 25.4414 6.48047 23.7305 6.48047L19.6641 6.48047C17.9531 6.48047 17.0156 7.41797 17.0156 9.16406L17.0156 18C17.0156 19.7461 17.9531 20.6836 19.6641 20.6836ZM19.7578 18.9141C19.1367 18.9141 18.7852 18.5742 18.7852 17.9766L18.7852 9.19922C18.7852 8.58984 19.1367 8.25 19.7578 8.25L23.6367 8.25C24.2578 8.25 24.6094 8.58984 24.6094 9.19922L24.6094 17.9766C24.6094 18.5742 24.2578 18.9141 23.6367 18.9141Z" fill="black" fill-opacity="0.85"/>
  <path d="M12.1406 27.1641C12.5977 27.1641 12.9961 26.8125 12.9961 26.3555L12.9961 0.808594C12.9961 0.351562 12.5977 0 12.1406 0C11.6836 0 11.2734 0.351562 11.2734 0.808594L11.2734 26.3555C11.2734 26.8125 11.6836 27.1641 12.1406 27.1641ZM29.1562 27.1641C29.6133 27.1641 30.0234 26.8125 30.0234 26.3555L30.0234 0.808594C30.0234 0.351562 29.6133 0 29.1562 0C28.6992 0 28.3008 0.351562 28.3008 0.808594L28.3008 26.3555C28.3008 26.8125 28.6992 27.1641 29.1562 27.1641Z" fill="black" fill-opacity="0.85"/>
 </g>
</svg>
