<?xml version="1.0" encoding="UTF-8"?>
<!--Generator: Apple Native CoreSVG 360-->
<!DOCTYPE svg
PUBLIC "-//W3C//DTD SVG 1.1//EN"
       "http://www.w3.org/Graphics/SVG/1.1/DTD/svg11.dtd">
<svg version="1.1" xmlns="http://www.w3.org/2000/svg" xmlns:xlink="http://www.w3.org/1999/xlink" viewBox="0 0 28.4062 27.9492">
 <g>
  <rect height="27.9492" opacity="0" width="28.4062" x="0" y="0"/>
  <path d="M9.60938 8.54297L18.4453 8.54297C20.1914 8.54297 21.1289 7.61719 21.1289 5.90625L21.1289 2.63672C21.1289 0.925781 20.1914 0 18.4453 0L9.60938 0C7.86328 0 6.92578 0.925781 6.92578 2.63672L6.92578 5.90625C6.92578 7.61719 7.86328 8.54297 9.60938 8.54297ZM9.63281 6.77344C9.03516 6.77344 8.69531 6.43359 8.69531 5.80078L8.69531 2.74219C8.69531 2.10938 9.03516 1.76953 9.63281 1.76953L18.4219 1.76953C19.0195 1.76953 19.3594 2.10938 19.3594 2.74219L19.3594 5.80078C19.3594 6.43359 19.0195 6.77344 18.4219 6.77344ZM5.46094 24.293L22.5938 24.293C24.3398 24.293 25.2773 23.3555 25.2773 21.6445L25.2773 18.375C25.2773 16.6758 24.3398 15.7383 22.5938 15.7383L5.46094 15.7383C3.71484 15.7383 2.77734 16.6758 2.77734 18.375L2.77734 21.6445C2.77734 23.3555 3.71484 24.293 5.46094 24.293ZM5.48438 22.5234C4.88672 22.5234 4.54688 22.1719 4.54688 21.5508L4.54688 18.4805C4.54688 17.8594 4.88672 17.5078 5.48438 17.5078L22.5703 17.5078C23.168 17.5078 23.5078 17.8594 23.5078 18.4805L23.5078 21.5508C23.5078 22.1719 23.168 22.5234 22.5703 22.5234Z" fill="black" fill-opacity="0.85"/>
  <path d="M0.820312 12.1875L27.2344 12.1875C27.6914 12.1875 28.0547 11.7891 28.0547 11.332C28.0547 10.875 27.6914 10.4648 27.2344 10.4648L0.820312 10.4648C0.351562 10.4648 0 10.875 0 11.332C0 11.7891 0.351562 12.1875 0.820312 12.1875ZM0.820312 27.9375L27.2344 27.9375C27.6914 27.9375 28.0547 27.5273 28.0547 27.0703C28.0547 26.6133 27.6914 26.2148 27.2344 26.2148L0.820312 26.2148C0.351562 26.2148 0 26.6133 0 27.0703C0 27.5273 0.351562 27.9375 0.820312 27.9375Z" fill="black" fill-opacity="0.85"/>
 </g>
</svg>
