<?xml version="1.0" encoding="UTF-8"?>
<!--Generator: Apple Native CoreSVG 360-->
<!DOCTYPE svg
PUBLIC "-//W3C//DTD SVG 1.1//EN"
       "http://www.w3.org/Graphics/SVG/1.1/DTD/svg11.dtd">
<svg version="1.1" xmlns="http://www.w3.org/2000/svg" xmlns:xlink="http://www.w3.org/1999/xlink" viewBox="0 0 27.9844 21.5742">
 <g>
  <rect height="21.5742" opacity="0" width="27.9844" x="0" y="0"/>
  <path d="M4.94531 21.5742L22.9805 21.5742C25.9336 21.5742 27.6328 19.793 27.6328 16.6289L27.6328 4.95703C27.6328 1.79297 25.9336 0 22.9805 0L4.94531 0C1.79297 0 0 1.79297 0 4.95703L0 16.6289C0 19.793 1.79297 21.5742 4.94531 21.5742ZM4.95703 19.6875C3.01172 19.6875 1.88672 18.5742 1.88672 16.6289L1.88672 4.95703C1.88672 3.01172 3.01172 1.88672 4.95703 1.88672L22.6758 1.88672C24.6211 1.88672 25.7461 3.01172 25.7461 4.95703L25.7461 16.6289C25.7461 18.5742 24.6211 19.6875 22.6758 19.6875Z" fill="black" fill-opacity="0.85"/>
  <path d="M5.03906 16.8164C5.03906 17.4258 5.46094 17.8359 6.08203 17.8359L21.5859 17.8359C22.207 17.8359 22.6289 17.4258 22.6289 16.8164L22.6289 15.0586C22.6289 14.4492 22.207 14.0391 21.5859 14.0391L6.08203 14.0391C5.46094 14.0391 5.03906 14.4492 5.03906 15.0586Z" fill="black" fill-opacity="0.85"/>
  <path d="M13.8281 5.49609L15.6914 7.45312L17.2148 8.98828C17.3906 9.16406 17.6133 9.25781 17.8477 9.25781C18.3516 9.25781 18.7148 8.91797 18.7148 8.4375C18.7148 8.16797 18.6094 7.95703 18.3984 7.78125L14.5078 4.14844C14.2617 3.92578 14.0625 3.83203 13.8281 3.83203C13.582 3.83203 13.3945 3.92578 13.1484 4.14844L9.24609 7.78125C9.04688 7.95703 8.94141 8.16797 8.94141 8.4375C8.94141 8.91797 9.29297 9.25781 9.78516 9.25781C10.0195 9.25781 10.2539 9.16406 10.4414 8.98828L11.9648 7.45312ZM14.6719 5.71875C14.6602 5.25 14.2969 4.875 13.8281 4.875C13.3594 4.875 12.9961 5.25 12.9844 5.71875L12.8906 8.36719L12.8906 11.7773C12.8906 12.2695 13.3242 12.6797 13.8281 12.6797C14.332 12.6797 14.7539 12.2695 14.7539 11.7773L14.7539 8.36719Z" fill="black" fill-opacity="0.85"/>
 </g>
</svg>
