<?xml version="1.0" encoding="UTF-8"?>
<!--Generator: Apple Native CoreSVG 360-->
<!DOCTYPE svg
PUBLIC "-//W3C//DTD SVG 1.1//EN"
       "http://www.w3.org/Graphics/SVG/1.1/DTD/svg11.dtd">
<svg version="1.1" xmlns="http://www.w3.org/2000/svg" xmlns:xlink="http://www.w3.org/1999/xlink" viewBox="0 0 27.9844 21.5742">
 <g>
  <rect height="21.5742" opacity="0" width="27.9844" x="0" y="0"/>
  <path d="M4.94531 21.5742L22.9805 21.5742C25.9336 21.5742 27.6328 19.793 27.6328 16.6289L27.6328 4.95703C27.6328 1.79297 25.9336 0 22.9805 0L4.94531 0C1.79297 0 0 1.79297 0 4.95703L0 16.6289C0 19.793 1.79297 21.5742 4.94531 21.5742ZM4.95703 19.6875C3.01172 19.6875 1.88672 18.5742 1.88672 16.6289L1.88672 4.95703C1.88672 3.01172 3.01172 1.88672 4.95703 1.88672L22.6758 1.88672C24.6211 1.88672 25.7461 3.01172 25.7461 4.95703L25.7461 16.6289C25.7461 18.5742 24.6211 19.6875 22.6758 19.6875Z" fill="black" fill-opacity="0.85"/>
  <path d="M5.03906 16.8164C5.03906 17.4258 5.46094 17.8359 6.08203 17.8359L21.5859 17.8359C22.207 17.8359 22.6289 17.4258 22.6289 16.8164L22.6289 15.0586C22.6289 14.4492 22.207 14.0391 21.5859 14.0391L6.08203 14.0391C5.46094 14.0391 5.03906 14.4492 5.03906 15.0586Z" fill="black" fill-opacity="0.85"/>
  <path d="M13.8281 11.0156L11.9648 9.05859L10.4414 7.52344C10.2539 7.34766 10.0195 7.25391 9.78516 7.25391C9.29297 7.25391 8.94141 7.59375 8.94141 8.07422C8.94141 8.34375 9.04688 8.55469 9.24609 8.73047L13.1484 12.3633C13.3945 12.5859 13.582 12.6797 13.8281 12.6797C14.0625 12.6797 14.2617 12.5859 14.5078 12.3633L18.3984 8.73047C18.6094 8.55469 18.7148 8.34375 18.7148 8.07422C18.7148 7.59375 18.3516 7.25391 17.8477 7.25391C17.6133 7.25391 17.3906 7.34766 17.2148 7.52344L15.6914 9.05859ZM14.6719 10.793L14.7539 8.14453L14.7539 4.74609C14.7539 4.25391 14.332 3.83203 13.8281 3.83203C13.3242 3.83203 12.8906 4.25391 12.8906 4.74609L12.8906 8.14453L12.9844 10.793C12.9961 11.2617 13.3594 11.6367 13.8281 11.6367C14.2969 11.6367 14.6602 11.2617 14.6719 10.793Z" fill="black" fill-opacity="0.85"/>
 </g>
</svg>
