<?xml version="1.0" encoding="UTF-8"?>
<!--Generator: Apple Native CoreSVG 360-->
<!DOCTYPE svg
PUBLIC "-//W3C//DTD SVG 1.1//EN"
       "http://www.w3.org/Graphics/SVG/1.1/DTD/svg11.dtd">
<svg version="1.1" xmlns="http://www.w3.org/2000/svg" xmlns:xlink="http://www.w3.org/1999/xlink" viewBox="0 0 24.3164 29.5195">
 <g>
  <rect height="29.5195" opacity="0" width="24.3164" x="0" y="0"/>
  <path d="M23.9648 3.67969L23.9648 19.957C23.9648 22.3945 22.7461 23.6367 20.332 23.6367L18.2812 23.6367L18.2812 16.6523C18.2812 15.1523 18.1055 14.4961 17.168 13.5352L10.7109 6.96094C9.82031 6.04688 9.08203 5.84766 7.76953 5.84766L5.68359 5.84766L5.68359 3.67969C5.68359 1.23047 6.89062 0 9.31641 0L20.332 0C22.7461 0 23.9648 1.23047 23.9648 3.67969ZM11.9648 2.39062C11.4492 2.39062 11.2148 2.71875 11.2148 3.08203L11.2148 3.32812C11.2148 3.67969 11.4492 4.01953 11.9648 4.01953L17.6836 4.01953C18.1875 4.01953 18.4336 3.67969 18.4336 3.32812L18.4336 3.08203C18.4336 2.71875 18.1875 2.39062 17.6836 2.39062Z" fill="black" fill-opacity="0.85"/>
  <path d="M0 25.8047C0 28.2539 1.20703 29.4844 3.63281 29.4844L14.6484 29.4844C17.0742 29.4844 18.2812 28.2422 18.2812 25.8047L18.2812 16.6523C18.2812 15.1523 18.1055 14.4961 17.168 13.5352L10.7109 6.96094C9.82031 6.04688 9.08203 5.84766 7.76953 5.84766L3.63281 5.84766C1.21875 5.84766 0 7.07812 0 9.52734ZM1.88672 25.7695L1.88672 9.55078C1.88672 8.40234 2.50781 7.73438 3.72656 7.73438L7.57031 7.73438L7.57031 14.5312C7.57031 16.0078 8.32031 16.7461 9.77344 16.7461L16.3945 16.7461L16.3945 25.7695C16.3945 26.9414 15.7617 27.5977 14.5547 27.5977L3.71484 27.5977C2.50781 27.5977 1.88672 26.9414 1.88672 25.7695ZM9.99609 14.9766C9.52734 14.9766 9.33984 14.7891 9.33984 14.3203L9.33984 8.16797L16.0312 14.9766Z" fill="black" fill-opacity="0.85"/>
 </g>
</svg>
