<?xml version="1.0" encoding="UTF-8"?>
<!--Generator: Apple Native CoreSVG 360-->
<!DOCTYPE svg
PUBLIC "-//W3C//DTD SVG 1.1//EN"
       "http://www.w3.org/Graphics/SVG/1.1/DTD/svg11.dtd">
<svg version="1.1" xmlns="http://www.w3.org/2000/svg" xmlns:xlink="http://www.w3.org/1999/xlink" viewBox="0 0 25.7344 33.0352">
 <g>
  <rect height="33.0352" opacity="0" width="25.7344" x="0" y="0"/>
  <path d="M19.1602 2.73047L19.1602 4.52344L24.5039 4.52344C24.9961 4.52344 25.3828 4.92188 25.3828 5.40234C25.3828 5.88281 24.9961 6.29297 24.5039 6.29297L23.1105 6.29297L22.3008 23.332C22.2188 25.0078 21.0938 26.0977 19.418 26.0977L18.2812 26.0977L18.2812 24.3281L19.2305 24.3281C19.9219 24.3281 20.4141 23.8359 20.4492 23.1328L21.2241 6.29297L6.80773 6.29297L6.95917 9.39844L5.11734 9.39844L4.96776 6.29297L3.57422 6.29297C3.10547 6.29297 2.69531 5.89453 2.69531 5.40234C2.69531 4.92188 3.10547 4.52344 3.57422 4.52344L8.89453 4.52344L8.89453 2.73047C8.89453 1.03125 9.99609 0 11.8008 0L16.2539 0C18.0586 0 19.1602 1.03125 19.1602 2.73047ZM18.5977 9.10547L18.2812 20.3801L18.2812 20.2148C18.2812 18.7031 18.1055 18.0469 17.168 17.0859L16.9274 16.841L17.1445 9.10547C17.1562 8.68359 17.4492 8.41406 17.8711 8.41406C18.3164 8.41406 18.6094 8.69531 18.5977 9.10547ZM14.7891 9.10547L14.7891 14.6639L13.2891 13.1366L13.2891 9.10547C13.2891 8.69531 13.5938 8.41406 14.0391 8.41406C14.4844 8.41406 14.7891 8.69531 14.7891 9.10547ZM10.9336 9.09375L10.9827 10.7884L10.7109 10.5117C10.2975 10.0874 9.91682 9.81707 9.49577 9.65062L9.48047 9.10547C9.46875 8.69531 9.76172 8.41406 10.207 8.41406C10.6289 8.41406 10.9219 8.68359 10.9336 9.09375ZM11.9297 1.74609C11.2266 1.74609 10.7578 2.17969 10.7578 2.84766L10.7578 4.52344L17.2969 4.52344L17.2969 2.84766C17.2969 2.17969 16.8281 1.74609 16.125 1.74609Z" fill="black" fill-opacity="0.85"/>
  <path d="M3.63281 33.0352L14.6484 33.0352C17.0742 33.0352 18.2812 31.793 18.2812 29.3555L18.2812 20.2148C18.2812 18.7031 18.1055 18.0469 17.168 17.0859L10.7109 10.5117C9.82031 9.59766 9.08203 9.39844 7.76953 9.39844L3.63281 9.39844C1.21875 9.39844 0 10.6406 0 13.0781L0 29.3555C0 31.8047 1.20703 33.0352 3.63281 33.0352ZM3.71484 31.1484C2.50781 31.1484 1.88672 30.4922 1.88672 29.3203L1.88672 13.1133C1.88672 11.9531 2.50781 11.2852 3.72656 11.2852L7.57031 11.2852L7.57031 18.0938C7.57031 19.5703 8.32031 20.2969 9.77344 20.2969L16.3945 20.2969L16.3945 29.3203C16.3945 30.4922 15.7617 31.1484 14.5547 31.1484ZM9.99609 18.5273C9.52734 18.5273 9.33984 18.3398 9.33984 17.8711L9.33984 11.7188L16.0312 18.5273Z" fill="black" fill-opacity="0.85"/>
 </g>
</svg>
