<?xml version="1.0" encoding="UTF-8"?>
<!--Generator: Apple Native CoreSVG 360-->
<!DOCTYPE svg
PUBLIC "-//W3C//DTD SVG 1.1//EN"
       "http://www.w3.org/Graphics/SVG/1.1/DTD/svg11.dtd">
<svg version="1.1" xmlns="http://www.w3.org/2000/svg" xmlns:xlink="http://www.w3.org/1999/xlink" viewBox="0 0 28.582 23.5195">
 <g>
  <rect height="23.5195" opacity="0" width="28.582" x="0" y="0"/>
  <path d="M28.2305 14.1094C28.2305 10.6641 26.9883 7.48828 24.9141 5.02734C24.6797 4.74609 24.2812 4.74609 24.0234 5.01562L21.3047 7.73438C21.082 7.95703 21.0703 8.27344 21.2695 8.51953C22.4766 10.0664 23.2031 12.0117 23.2031 14.1094C23.2031 16.2188 22.4766 18.1641 21.1992 19.793C21.0352 19.9922 21.0469 20.25 21.2227 20.4375L24.0117 23.2266C24.2812 23.4961 24.668 23.4961 24.9141 23.2031C26.9883 20.7422 28.2305 17.5664 28.2305 14.1094Z" fill="black" fill-opacity="0.85"/>
  <path d="M14.1094 5.02734C16.2305 5.02734 18.1758 5.76562 19.7344 6.97266C19.9688 7.16016 20.2734 7.13672 20.4961 6.91406L23.2148 4.19531C23.4844 3.92578 23.4727 3.53906 23.1914 3.30469C20.7422 1.24219 17.5664 0 14.1094 0C10.6641 0 7.48828 1.24219 5.03906 3.30469C4.75781 3.53906 4.74609 3.92578 5.01562 4.19531L7.73438 6.91406C7.95703 7.13672 8.27344 7.16016 8.53125 6.96094C10.0781 5.76562 12.0117 5.02734 14.1094 5.02734Z" fill="black" fill-opacity="0.85"/>
  <path d="M0 14.1094C0 17.5664 1.24219 20.7422 3.31641 23.2031C3.55078 23.4961 3.94922 23.4961 4.20703 23.2266L6.99609 20.4375C7.17188 20.25 7.19531 19.9922 7.03125 19.793C5.75391 18.1641 5.02734 16.2188 5.02734 14.1094C5.02734 12.0117 5.74219 10.0664 6.96094 8.51953C7.14844 8.27344 7.14844 7.95703 6.92578 7.73438L4.20703 5.01562C3.9375 4.74609 3.55078 4.74609 3.31641 5.02734C1.24219 7.48828 0 10.6641 0 14.1094Z" fill="black" fill-opacity="0.85"/>
  <path d="M14.1211 19.3828C16.1016 19.3828 17.8711 18.4688 17.8711 16.4531C17.8711 14.6836 16.4414 14.0039 14.8477 13.6289L13.7227 13.3711C12.7031 13.1367 11.8359 12.7031 11.8359 11.7422C11.8359 10.6289 13.0312 10.1367 14.1211 10.1367C15.2812 10.1367 16.0781 10.6406 16.3945 11.6133C16.5117 11.9766 16.7344 12.1523 17.0508 12.1523C17.3555 12.1523 17.6836 11.9531 17.6836 11.543C17.6836 10.043 15.7617 8.97656 14.1211 8.97656C12.2344 8.97656 10.5234 10.0312 10.5234 11.8477C10.5234 13.5938 12 14.25 13.4414 14.6016L14.5664 14.8594C15.6094 15.1055 16.5586 15.4805 16.5586 16.5586C16.5586 17.8359 15.3281 18.2344 14.1445 18.2344C12.9023 18.2344 12.0352 17.8359 11.625 16.7109C11.4727 16.3477 11.2852 16.207 10.9688 16.207C10.6172 16.207 10.3359 16.4297 10.3359 16.8164C10.3359 16.9219 10.3711 17.0508 10.4062 17.1797C10.8516 18.7266 12.5859 19.3828 14.1211 19.3828ZM14.0977 20.7773C14.3203 20.7773 14.4961 20.6016 14.4961 20.3906L14.4961 8.00391C14.4961 7.78125 14.3203 7.61719 14.0977 7.61719C13.8867 7.61719 13.7109 7.78125 13.7109 8.00391L13.7109 20.3906C13.7109 20.6016 13.8867 20.7773 14.0977 20.7773Z" fill="black" fill-opacity="0.85"/>
 </g>
</svg>
