<?xml version="1.0" encoding="UTF-8"?>
<!--Generator: Apple Native CoreSVG 360-->
<!DOCTYPE svg
PUBLIC "-//W3C//DTD SVG 1.1//EN"
       "http://www.w3.org/Graphics/SVG/1.1/DTD/svg11.dtd">
<svg version="1.1" xmlns="http://www.w3.org/2000/svg" xmlns:xlink="http://www.w3.org/1999/xlink" viewBox="0 0 26.5195 25.0195">
 <g>
  <rect height="25.0195" opacity="0" width="26.5195" x="0" y="0"/>
  <path d="M1.55859 22.2188L24.6094 22.2188L24.6094 21.4336C24.6094 20.9648 24.3398 20.6836 23.8594 20.6836L23.1094 20.6836L23.1094 8.03906L24.1406 8.03906C24.7852 8.03906 25.1602 7.57031 25.1602 7.08984C25.1602 6.73828 24.9609 6.43359 24.5273 6.1875L14.5195 0.410156C14.0508 0.140625 13.5586 0 13.0781 0C12.5977 0 12.0938 0.140625 11.6484 0.410156L1.64062 6.1875C1.19531 6.43359 1.00781 6.73828 1.00781 7.08984C1.00781 7.57031 1.38281 8.03906 2.02734 8.03906L3.05859 8.03906L3.05859 20.6836L2.32031 20.6836C1.83984 20.6836 1.55859 20.9648 1.55859 21.4336ZM4.82812 20.6836L4.82812 6.53906L12.6211 2.16797C12.7617 2.08594 12.9258 2.03906 13.0781 2.03906C13.2305 2.03906 13.3945 2.08594 13.5469 2.16797L21.3398 6.53906L21.3398 20.6836ZM0.9375 25.0078L25.2188 25.0078C25.7344 25.0078 26.168 24.5742 26.168 24.0586C26.168 23.543 25.7344 23.1211 25.2188 23.1211L0.9375 23.1211C0.421875 23.1211 0 23.543 0 24.0586C0 24.5742 0.421875 25.0078 0.9375 25.0078Z" fill="black" fill-opacity="0.85"/>
  <path d="M13.1016 17.4492C15.0938 17.4492 16.8516 16.5352 16.8516 14.5195C16.8516 12.75 15.4336 12.0703 13.8281 11.6953L12.7148 11.4375C11.6953 11.2031 10.8281 10.7695 10.8281 9.80859C10.8281 8.69531 12.0234 8.20312 13.1016 8.20312C14.2734 8.20312 15.0703 8.70703 15.3867 9.67969C15.5039 10.043 15.7266 10.2188 16.043 10.2188C16.3359 10.2188 16.6758 10.0195 16.6758 9.60938C16.6758 8.10938 14.7539 7.04297 13.1016 7.04297C11.2148 7.04297 9.51562 8.09766 9.51562 9.91406C9.51562 11.6602 10.9805 12.3164 12.4219 12.668L13.5469 12.9258C14.5898 13.1719 15.5508 13.5469 15.5508 14.625C15.5508 15.9023 14.3203 16.3008 13.1367 16.3008C11.8828 16.3008 11.0273 15.9023 10.6055 14.7773C10.4648 14.4141 10.2656 14.2734 9.94922 14.2734C9.60938 14.2734 9.32812 14.4961 9.32812 14.8828C9.32812 14.9883 9.35156 15.1172 9.38672 15.2461C9.84375 16.793 11.5664 17.4492 13.1016 17.4492ZM13.0898 18.8438C13.3008 18.8438 13.4766 18.668 13.4766 18.457L13.4766 6.07031C13.4766 5.84766 13.3008 5.68359 13.0898 5.68359C12.8789 5.68359 12.7031 5.84766 12.7031 6.07031L12.7031 18.457C12.7031 18.668 12.8789 18.8438 13.0898 18.8438Z" fill="black" fill-opacity="0.85"/>
 </g>
</svg>
