<?xml version="1.0" encoding="UTF-8"?>
<!--Generator: Apple Native CoreSVG 360-->
<!DOCTYPE svg
PUBLIC "-//W3C//DTD SVG 1.1//EN"
       "http://www.w3.org/Graphics/SVG/1.1/DTD/svg11.dtd">
<svg version="1.1" xmlns="http://www.w3.org/2000/svg" xmlns:xlink="http://www.w3.org/1999/xlink" viewBox="0 0 15.2109 26.4258">
 <g>
  <rect height="26.4258" opacity="0" width="15.2109" x="0" y="0"/>
  <path d="M7.48828 23.5664C11.4492 23.5664 14.8594 21.5742 14.8594 17.7773C14.8594 14.2617 12.1055 13.0078 8.83594 12.2227L6.58594 11.6719C4.45312 11.1562 2.68359 10.2305 2.68359 8.20312C2.68359 5.92969 5.10938 4.76953 7.47656 4.76953C9.90234 4.76953 11.6602 5.90625 12.3047 7.99219C12.4922 8.54297 12.8555 8.91797 13.4648 8.91797C14.0742 8.91797 14.5195 8.49609 14.5195 7.875C14.5195 6.9375 13.8984 5.67188 13.0898 4.86328C11.6602 3.43359 9.60938 2.76562 7.47656 2.76562C3.80859 2.76562 0.433594 4.71094 0.433594 8.37891C0.433594 11.625 3.19922 13.0898 6.21094 13.7812L8.47266 14.3086C10.7227 14.8359 12.6211 15.6562 12.6211 17.9531C12.6211 20.5312 10.2539 21.5742 7.51172 21.5742C4.92188 21.5742 2.82422 20.5312 2.20312 18.1992C2.02734 17.625 1.6875 17.2969 1.08984 17.2969C0.433594 17.2969 0 17.7422 0 18.3281C0 19.418 0.714844 20.6836 1.52344 21.457C3.10547 22.9453 5.33203 23.5664 7.48828 23.5664ZM7.42969 26.4141C7.85156 26.4141 8.19141 26.0625 8.19141 25.6406L8.19141 0.761719C8.19141 0.351562 7.85156 0 7.42969 0C7.00781 0 6.66797 0.351562 6.66797 0.761719L6.66797 25.6406C6.66797 26.0625 7.00781 26.4141 7.42969 26.4141Z" fill="black" fill-opacity="0.85"/>
 </g>
</svg>
