<?xml version="1.0" encoding="UTF-8"?>
<!--Generator: Apple Native CoreSVG 360-->
<!DOCTYPE svg
PUBLIC "-//W3C//DTD SVG 1.1//EN"
       "http://www.w3.org/Graphics/SVG/1.1/DTD/svg11.dtd">
<svg version="1.1" xmlns="http://www.w3.org/2000/svg" xmlns:xlink="http://www.w3.org/1999/xlink" viewBox="0 0 28.582 23.4085">
 <g>
  <rect height="23.4085" opacity="0" width="28.582" x="0" y="0"/>
  <path d="M28.2305 14.0539C28.2305 6.67105 22.5586 0.612457 15.3398 0.00308175C14.9648-0.0320745 14.6836 0.237457 14.6836 0.612457L14.6836 4.44449C14.6836 4.76089 14.9062 5.00699 15.2227 5.03043C19.7109 5.58121 23.2031 9.41324 23.2031 14.0539C23.2031 16.1632 22.4766 18.1086 21.1992 19.7375C21.0352 19.9367 21.0469 20.1945 21.2227 20.382L24.0234 23.1711C24.2812 23.4289 24.6797 23.4289 24.9141 23.1476C26.9883 20.6867 28.2305 17.5109 28.2305 14.0539Z" fill="black" fill-opacity="0.85"/>
  <path d="M0 14.0539C0 17.5226 1.24219 20.6984 3.31641 23.1593C3.55078 23.4406 3.9375 23.4289 4.20703 23.1711L7.00781 20.382C7.18359 20.1945 7.19531 19.9367 7.03125 19.7375C5.74219 18.1086 5.02734 16.1632 5.02734 14.0539C5.02734 9.41324 8.51953 5.58121 13.0078 5.03043C13.3242 5.00699 13.5469 4.76089 13.5469 4.44449L13.5469 0.612457C13.5469 0.237457 13.2656-0.0320745 12.8906 0.00308175C5.67188 0.612457 0 6.67105 0 14.0539Z" fill="black" fill-opacity="0.85"/>
  <path d="M14.1211 19.3273C16.1016 19.3273 17.8711 18.4132 17.8711 16.3976C17.8711 14.6281 16.4414 13.9484 14.8477 13.5734L13.7227 13.3156C12.7031 13.0812 11.8359 12.6476 11.8359 11.6867C11.8359 10.5734 13.0312 10.0812 14.1211 10.0812C15.2812 10.0812 16.0781 10.5851 16.3945 11.5578C16.5117 11.9211 16.7344 12.0968 17.0508 12.0968C17.3555 12.0968 17.6836 11.8976 17.6836 11.4875C17.6836 9.98746 15.7617 8.92105 14.1211 8.92105C12.2344 8.92105 10.5234 9.97574 10.5234 11.7921C10.5234 13.5382 12 14.1945 13.4414 14.5461L14.5664 14.8039C15.6094 15.05 16.5586 15.425 16.5586 16.5031C16.5586 17.7804 15.3281 18.1789 14.1445 18.1789C12.9023 18.1789 12.0352 17.7804 11.625 16.6554C11.4727 16.2921 11.2852 16.1515 10.9688 16.1515C10.6172 16.1515 10.3359 16.3742 10.3359 16.7609C10.3359 16.8664 10.3711 16.9953 10.4062 17.1242C10.8516 18.6711 12.5859 19.3273 14.1211 19.3273ZM14.0977 20.7218C14.3203 20.7218 14.4961 20.5461 14.4961 20.3351L14.4961 7.94839C14.4961 7.72574 14.3203 7.56168 14.0977 7.56168C13.8867 7.56168 13.7109 7.72574 13.7109 7.94839L13.7109 20.3351C13.7109 20.5461 13.8867 20.7218 14.0977 20.7218Z" fill="black" fill-opacity="0.85"/>
 </g>
</svg>
