<?xml version="1.0" encoding="UTF-8"?>
<!--Generator: Apple Native CoreSVG 360-->
<!DOCTYPE svg
PUBLIC "-//W3C//DTD SVG 1.1//EN"
       "http://www.w3.org/Graphics/SVG/1.1/DTD/svg11.dtd">
<svg version="1.1" xmlns="http://www.w3.org/2000/svg" xmlns:xlink="http://www.w3.org/1999/xlink" viewBox="0 0 16.3359 23.0508">
 <g>
  <rect height="23.0508" opacity="0" width="16.3359" x="0" y="0"/>
  <path d="M6.28125 19.7461C8.70703 19.7461 10.418 18.5977 11.2383 16.9336L11.3086 16.9336L11.3086 18.9141C11.3086 19.5586 11.7539 20.0156 12.3633 20.0039C12.9844 20.0039 13.4297 19.5586 13.4297 18.9258L13.4297 3.80859L15.2227 3.79688C15.6562 3.79688 15.9844 3.48047 15.9844 3.05859C15.9844 2.63672 15.6562 2.32031 15.2227 2.32031L13.4297 2.33203L13.4297 1.14844C13.4297 0.492188 12.9492 0 12.3164 0C11.6719 0 11.2031 0.492188 11.2031 1.14844L11.2031 2.33203L6.59766 2.33203C6.16406 2.33203 5.83594 2.64844 5.83594 3.07031C5.83594 3.50391 6.16406 3.80859 6.59766 3.80859L11.2031 3.80859L11.2031 8.80078L11.1328 8.80078C10.3008 6.96094 8.41406 6.02344 6.28125 6.02344C2.49609 6.02344 0 9.02344 0 12.8789C0 16.9336 2.66016 19.7461 6.28125 19.7461ZM6.79688 17.7773C3.99609 17.7773 2.30859 15.668 2.30859 12.8789C2.30859 9.83203 4.25391 7.98047 6.79688 7.98047C9.375 7.98047 11.2148 10.1016 11.2148 12.8789C11.2148 15.6211 9.38672 17.7773 6.79688 17.7773ZM1.17188 22.2656C1.17188 22.7109 1.5 23.0273 1.94531 23.0273L13.3477 23.0273C13.793 23.0273 14.1211 22.6992 14.1211 22.2656C14.1211 21.832 13.793 21.5039 13.3477 21.5039L1.94531 21.5039C1.5 21.5039 1.17188 21.832 1.17188 22.2656Z" fill="black" fill-opacity="0.85"/>
 </g>
</svg>
