<?xml version="1.0" encoding="UTF-8"?>
<!--Generator: Apple Native CoreSVG 360-->
<!DOCTYPE svg
PUBLIC "-//W3C//DTD SVG 1.1//EN"
       "http://www.w3.org/Graphics/SVG/1.1/DTD/svg11.dtd">
<svg version="1.1" xmlns="http://www.w3.org/2000/svg" xmlns:xlink="http://www.w3.org/1999/xlink" viewBox="0 0 26.5195 25.0195">
 <g>
  <rect height="25.0195" opacity="0" width="26.5195" x="0" y="0"/>
  <path d="M1.55859 22.2188L24.6094 22.2188L24.6094 21.4336C24.6094 20.9648 24.3398 20.6836 23.8594 20.6836L23.1094 20.6836L23.1094 8.03906L24.1406 8.03906C24.7852 8.03906 25.1602 7.57031 25.1602 7.08984C25.1602 6.73828 24.9609 6.43359 24.5273 6.1875L14.5195 0.410156C14.0508 0.140625 13.5586 0 13.0781 0C12.5977 0 12.0938 0.140625 11.6484 0.410156L1.64062 6.1875C1.19531 6.43359 1.00781 6.73828 1.00781 7.08984C1.00781 7.57031 1.38281 8.03906 2.02734 8.03906L3.05859 8.03906L3.05859 20.6836L2.32031 20.6836C1.83984 20.6836 1.55859 20.9648 1.55859 21.4336ZM4.82812 20.6836L4.82812 6.53906L12.6211 2.16797C12.7617 2.08594 12.9258 2.03906 13.0781 2.03906C13.2305 2.03906 13.3945 2.08594 13.5469 2.16797L21.3398 6.53906L21.3398 20.6836ZM0.9375 25.0078L25.2188 25.0078C25.7344 25.0078 26.168 24.5742 26.168 24.0586C26.168 23.543 25.7344 23.1211 25.2188 23.1211L0.9375 23.1211C0.421875 23.1211 0 23.543 0 24.0586C0 24.5742 0.421875 25.0078 0.9375 25.0078Z" fill="black" fill-opacity="0.85"/>
  <path d="M12.2344 16.2188C13.2422 16.2188 14.1914 15.8203 14.6602 14.8945L14.707 14.8945L14.707 15.7148C14.707 16.0781 14.9766 16.3477 15.3398 16.3477C15.7031 16.3477 15.9727 16.0781 15.9727 15.7148L15.9727 8.22656L16.8398 8.22656C17.0508 8.22656 17.2266 8.05078 17.2266 7.83984C17.2266 7.61719 17.0508 7.46484 16.8398 7.46484L15.9727 7.46484L15.9727 6.98438C15.9727 6.57422 15.7148 6.31641 15.3164 6.31641C14.9062 6.31641 14.6602 6.57422 14.6602 6.98438L14.6602 7.46484L12.4219 7.46484C12.2109 7.46484 12.0352 7.61719 12.0352 7.83984C12.0352 8.0625 12.2109 8.22656 12.4219 8.22656L14.6602 8.22656L14.6602 10.6172L14.6133 10.6172C14.1914 9.71484 13.2539 9.29297 12.2344 9.29297C10.5 9.29297 9.08203 10.6289 9.08203 12.75C9.08203 14.6836 10.3242 16.2188 12.2344 16.2188ZM12.5742 15.0938C11.2148 15.0938 10.418 14.0742 10.418 12.75C10.418 11.3555 11.3203 10.4062 12.5742 10.4062C13.8984 10.4062 14.6719 11.5078 14.6719 12.75C14.6719 14.0977 13.793 15.0938 12.5742 15.0938ZM9.67969 17.4727C9.67969 17.707 9.86719 17.8711 10.1016 17.8711L15.9023 17.8711C16.125 17.8711 16.3125 17.6953 16.3125 17.4727C16.3125 17.25 16.125 17.0742 15.9023 17.0742L10.1016 17.0742C9.86719 17.0742 9.67969 17.25 9.67969 17.4727Z" fill="black" fill-opacity="0.85"/>
 </g>
</svg>
