<?xml version="1.0" encoding="UTF-8"?>
<!--Generator: Apple Native CoreSVG 360-->
<!DOCTYPE svg
PUBLIC "-//W3C//DTD SVG 1.1//EN"
       "http://www.w3.org/Graphics/SVG/1.1/DTD/svg11.dtd">
<svg version="1.1" xmlns="http://www.w3.org/2000/svg" xmlns:xlink="http://www.w3.org/1999/xlink" viewBox="0 0 28.582 23.5195">
 <g>
  <rect height="23.5195" opacity="0" width="28.582" x="0" y="0"/>
  <path d="M28.2305 14.1094C28.2305 10.6641 26.9883 7.48828 24.9141 5.02734C24.6797 4.74609 24.2812 4.74609 24.0234 5.01562L21.3047 7.73438C21.082 7.95703 21.0703 8.27344 21.2695 8.51953C22.4766 10.0664 23.2031 12.0117 23.2031 14.1094C23.2031 16.2188 22.4766 18.1641 21.1992 19.793C21.0352 19.9922 21.0469 20.25 21.2227 20.4375L24.0117 23.2266C24.2812 23.4961 24.668 23.4961 24.9141 23.2031C26.9883 20.7422 28.2305 17.5664 28.2305 14.1094Z" fill="black" fill-opacity="0.85"/>
  <path d="M14.1094 5.02734C16.2305 5.02734 18.1758 5.76562 19.7344 6.97266C19.9688 7.16016 20.2734 7.13672 20.4961 6.91406L23.2148 4.19531C23.4844 3.92578 23.4727 3.53906 23.1914 3.30469C20.7422 1.24219 17.5664 0 14.1094 0C10.6641 0 7.48828 1.24219 5.03906 3.30469C4.75781 3.53906 4.74609 3.92578 5.01562 4.19531L7.73438 6.91406C7.95703 7.13672 8.27344 7.16016 8.53125 6.96094C10.0781 5.76562 12.0117 5.02734 14.1094 5.02734Z" fill="black" fill-opacity="0.85"/>
  <path d="M0 14.1094C0 17.5664 1.24219 20.7422 3.31641 23.2031C3.55078 23.4961 3.94922 23.4961 4.20703 23.2266L6.99609 20.4375C7.17188 20.25 7.19531 19.9922 7.03125 19.793C5.75391 18.1641 5.02734 16.2188 5.02734 14.1094C5.02734 12.0117 5.74219 10.0664 6.96094 8.51953C7.14844 8.27344 7.14844 7.95703 6.92578 7.73438L4.20703 5.01562C3.9375 4.74609 3.55078 4.74609 3.31641 5.02734C1.24219 7.48828 0 10.6641 0 14.1094Z" fill="black" fill-opacity="0.85"/>
  <path d="M13.2539 18.1523C14.2617 18.1523 15.1992 17.7539 15.6797 16.8281L15.7148 16.8281L15.7148 17.6484C15.7148 18.0117 15.9844 18.2812 16.3477 18.2812C16.7109 18.2812 16.9805 18.0117 16.9805 17.6484L16.9805 10.1602L17.8477 10.1602C18.0703 10.1602 18.2461 9.98438 18.2461 9.77344C18.2461 9.55078 18.0703 9.39844 17.8477 9.39844L16.9805 9.39844L16.9805 8.91797C16.9805 8.50781 16.7344 8.25 16.3242 8.25C15.9258 8.25 15.6797 8.50781 15.6797 8.91797L15.6797 9.39844L13.4414 9.39844C13.2188 9.39844 13.043 9.55078 13.043 9.77344C13.043 9.99609 13.2188 10.1602 13.4414 10.1602L15.6797 10.1602L15.6797 12.5508L15.6211 12.5508C15.2109 11.6484 14.2617 11.2266 13.2539 11.2266C11.5078 11.2266 10.0898 12.5625 10.0898 14.6836C10.0898 16.6172 11.3438 18.1523 13.2539 18.1523ZM13.582 17.0273C12.2344 17.0273 11.4375 16.0078 11.4375 14.6836C11.4375 13.2891 12.3281 12.3398 13.582 12.3398C14.9062 12.3398 15.6797 13.4414 15.6797 14.6836C15.6797 16.0312 14.8125 17.0273 13.582 17.0273ZM10.6992 19.4062C10.6992 19.6406 10.8867 19.8047 11.1094 19.8047L16.9102 19.8047C17.1328 19.8047 17.3203 19.6289 17.3203 19.4062C17.3203 19.1836 17.1328 19.0078 16.9102 19.0078L11.1094 19.0078C10.8867 19.0078 10.6992 19.1836 10.6992 19.4062Z" fill="black" fill-opacity="0.85"/>
 </g>
</svg>
