<?xml version="1.0" encoding="UTF-8"?>
<!--Generator: Apple Native CoreSVG 360-->
<!DOCTYPE svg
PUBLIC "-//W3C//DTD SVG 1.1//EN"
       "http://www.w3.org/Graphics/SVG/1.1/DTD/svg11.dtd">
<svg version="1.1" xmlns="http://www.w3.org/2000/svg" xmlns:xlink="http://www.w3.org/1999/xlink" viewBox="0 0 28.582 23.4085">
 <g>
  <rect height="23.4085" opacity="0" width="28.582" x="0" y="0"/>
  <path d="M28.2305 14.0539C28.2305 6.67105 22.5586 0.612457 15.3398 0.00308175C14.9648-0.0320745 14.6836 0.237457 14.6836 0.612457L14.6836 4.44449C14.6836 4.76089 14.9062 5.00699 15.2227 5.03043C19.7109 5.58121 23.2031 9.41324 23.2031 14.0539C23.2031 16.1632 22.4766 18.1086 21.1992 19.7375C21.0352 19.9367 21.0469 20.1945 21.2227 20.382L24.0234 23.1711C24.2812 23.4289 24.6797 23.4289 24.9141 23.1476C26.9883 20.6867 28.2305 17.5109 28.2305 14.0539Z" fill="black" fill-opacity="0.85"/>
  <path d="M0 14.0539C0 17.5226 1.24219 20.6984 3.31641 23.1593C3.55078 23.4406 3.9375 23.4289 4.20703 23.1711L7.00781 20.382C7.18359 20.1945 7.19531 19.9367 7.03125 19.7375C5.74219 18.1086 5.02734 16.1632 5.02734 14.0539C5.02734 9.41324 8.51953 5.58121 13.0078 5.03043C13.3242 5.00699 13.5469 4.76089 13.5469 4.44449L13.5469 0.612457C13.5469 0.237457 13.2656-0.0320745 12.8906 0.00308175C5.67188 0.612457 0 6.67105 0 14.0539Z" fill="black" fill-opacity="0.85"/>
  <path d="M13.2539 18.0968C14.2617 18.0968 15.1992 17.6984 15.6797 16.7726L15.7148 16.7726L15.7148 17.5929C15.7148 17.9562 15.9844 18.2257 16.3477 18.2257C16.7109 18.2257 16.9805 17.9562 16.9805 17.5929L16.9805 10.1046L17.8477 10.1046C18.0703 10.1046 18.2461 9.92886 18.2461 9.71793C18.2461 9.49527 18.0703 9.34293 17.8477 9.34293L16.9805 9.34293L16.9805 8.86246C16.9805 8.4523 16.7344 8.19449 16.3242 8.19449C15.9258 8.19449 15.6797 8.4523 15.6797 8.86246L15.6797 9.34293L13.4414 9.34293C13.2188 9.34293 13.043 9.49527 13.043 9.71793C13.043 9.94058 13.2188 10.1046 13.4414 10.1046L15.6797 10.1046L15.6797 12.4953L15.6211 12.4953C15.2109 11.5929 14.2617 11.1711 13.2539 11.1711C11.5078 11.1711 10.0898 12.507 10.0898 14.6281C10.0898 16.5617 11.3438 18.0968 13.2539 18.0968ZM13.582 16.9718C12.2344 16.9718 11.4375 15.9523 11.4375 14.6281C11.4375 13.2336 12.3281 12.2843 13.582 12.2843C14.9062 12.2843 15.6797 13.3859 15.6797 14.6281C15.6797 15.9757 14.8125 16.9718 13.582 16.9718ZM10.6992 19.3507C10.6992 19.5851 10.8867 19.7492 11.1094 19.7492L16.9102 19.7492C17.1328 19.7492 17.3203 19.5734 17.3203 19.3507C17.3203 19.1281 17.1328 18.9523 16.9102 18.9523L11.1094 18.9523C10.8867 18.9523 10.6992 19.1281 10.6992 19.3507Z" fill="black" fill-opacity="0.85"/>
 </g>
</svg>
