<?xml version="1.0" encoding="UTF-8"?>
<!--Generator: Apple Native CoreSVG 360-->
<!DOCTYPE svg
PUBLIC "-//W3C//DTD SVG 1.1//EN"
       "http://www.w3.org/Graphics/SVG/1.1/DTD/svg11.dtd">
<svg version="1.1" xmlns="http://www.w3.org/2000/svg" xmlns:xlink="http://www.w3.org/1999/xlink" viewBox="0 0 29.0039 24.8789">
 <g>
  <rect height="24.8789" opacity="0" width="29.0039" x="0" y="0"/>
  <path d="M0.9375 24.8672C1.46484 24.8672 1.88672 24.4453 1.88672 23.9297L1.88672 2.50781C1.88672 2.13281 2.13281 1.88672 2.48438 1.88672L26.168 1.88672C26.5195 1.88672 26.7656 2.13281 26.7656 2.50781L26.7656 23.9297C26.7656 24.4453 27.1875 24.8672 27.7031 24.8672C28.2305 24.8672 28.6523 24.4453 28.6523 23.9297L28.6523 2.39062C28.6523 0.960938 27.668 0 26.1914 0L2.44922 0C0.984375 0 0 0.960938 0 2.39062L0 23.9297C0 24.4453 0.421875 24.8672 0.9375 24.8672Z" fill="black" fill-opacity="0.85"/>
  <path d="M14.8242 24.457L24.9961 24.457C25.2188 24.457 25.3945 24.2695 25.3945 24.0586L25.3945 3.64453C25.3945 3.42188 25.2188 3.24609 24.9961 3.24609L14.8242 3.24609C14.6016 3.24609 14.4258 3.42188 14.4258 3.64453L14.4258 24.0586C14.4258 24.2695 14.6016 24.457 14.8242 24.457ZM17.0742 15.6914C16.7461 15.6914 16.5117 15.457 16.5117 15.1172L16.5117 13.0664C16.5117 12.7266 16.7461 12.5039 17.0742 12.5039C17.4141 12.5039 17.6367 12.7266 17.6367 13.0664L17.6367 15.1172C17.6367 15.457 17.4141 15.6914 17.0742 15.6914Z" fill="black" fill-opacity="0.85"/>
 </g>
</svg>
