<?xml version="1.0" encoding="UTF-8"?>
<!--Generator: Apple Native CoreSVG 360-->
<!DOCTYPE svg
PUBLIC "-//W3C//DTD SVG 1.1//EN"
       "http://www.w3.org/Graphics/SVG/1.1/DTD/svg11.dtd">
<svg version="1.1" xmlns="http://www.w3.org/2000/svg" xmlns:xlink="http://www.w3.org/1999/xlink" viewBox="0 0 29.0039 24.8789">
 <g>
  <rect height="24.8789" opacity="0" width="29.0039" x="0" y="0"/>
  <path d="M27.7031 24.8672C28.2305 24.8672 28.6523 24.4453 28.6523 23.9297L28.6523 2.39062C28.6523 0.960938 27.668 0 26.1914 0L2.44922 0C0.984375 0 0 0.960938 0 2.39062L0 23.9297C0 24.4453 0.421875 24.8672 0.9375 24.8672C1.46484 24.8672 1.88672 24.4453 1.88672 23.9297L1.88672 2.50781C1.88672 2.13281 2.13281 1.88672 2.48438 1.88672L26.168 1.88672C26.5195 1.88672 26.7656 2.13281 26.7656 2.50781L26.7656 23.9297C26.7656 24.4453 27.1875 24.8672 27.7031 24.8672Z" fill="black" fill-opacity="0.85"/>
  <path d="M13.8281 24.457C14.0508 24.457 14.2266 24.2695 14.2266 24.0586L14.2266 3.64453C14.2266 3.42188 14.0508 3.24609 13.8281 3.24609L3.65625 3.24609C3.43359 3.24609 3.25781 3.42188 3.25781 3.64453L3.25781 24.0586C3.25781 24.2695 3.43359 24.457 3.65625 24.457ZM11.5781 15.6914C11.2383 15.6914 11.0039 15.457 11.0039 15.1172L11.0039 13.0664C11.0039 12.7266 11.2383 12.5039 11.5781 12.5039C11.9062 12.5039 12.1406 12.7266 12.1406 13.0664L12.1406 15.1172C12.1406 15.457 11.9062 15.6914 11.5781 15.6914Z" fill="black" fill-opacity="0.85"/>
 </g>
</svg>
