<?xml version="1.0" encoding="UTF-8"?>
<!--Generator: Apple Native CoreSVG 360-->
<!DOCTYPE svg
PUBLIC "-//W3C//DTD SVG 1.1//EN"
       "http://www.w3.org/Graphics/SVG/1.1/DTD/svg11.dtd">
<svg version="1.1" xmlns="http://www.w3.org/2000/svg" xmlns:xlink="http://www.w3.org/1999/xlink" viewBox="0 0 34.5938 24.8789">
 <g>
  <rect height="24.8789" opacity="0" width="34.5938" x="0" y="0"/>
  <path d="M0.9375 24.8672C1.46484 24.8672 1.88672 24.4453 1.88672 23.9297L1.88672 2.50781C1.88672 2.13281 2.13281 1.88672 2.48438 1.88672L31.7578 1.88672C32.1094 1.88672 32.3555 2.13281 32.3555 2.50781L32.3555 23.9297C32.3555 24.4453 32.7773 24.8672 33.3047 24.8672C33.8203 24.8672 34.2422 24.4453 34.2422 23.9297L34.2422 2.39062C34.2422 0.960938 33.2695 0 31.793 0L2.44922 0C0.984375 0 0 0.960938 0 2.39062L0 23.9297C0 24.4453 0.421875 24.8672 0.9375 24.8672Z" fill="black" fill-opacity="0.85"/>
  <path d="M3.65625 8.22656L30.5977 8.22656C30.8086 8.22656 30.9844 8.05078 30.9844 7.83984L30.9844 3.64453C30.9844 3.42188 30.8086 3.24609 30.5977 3.24609L3.65625 3.24609C3.43359 3.24609 3.25781 3.42188 3.25781 3.64453L3.25781 7.83984C3.25781 8.05078 3.43359 8.22656 3.65625 8.22656ZM14.6016 6.30469C14.2617 6.30469 14.0273 6.07031 14.0273 5.74219C14.0273 5.40234 14.2617 5.16797 14.6016 5.16797L19.6523 5.16797C19.9805 5.16797 20.2148 5.40234 20.2148 5.74219C20.2148 6.07031 19.9805 6.30469 19.6523 6.30469Z" fill="black" fill-opacity="0.85"/>
 </g>
</svg>
