<?xml version="1.0" encoding="UTF-8"?>
<!--Generator: Apple Native CoreSVG 360-->
<!DOCTYPE svg
PUBLIC "-//W3C//DTD SVG 1.1//EN"
       "http://www.w3.org/Graphics/SVG/1.1/DTD/svg11.dtd">
<svg version="1.1" xmlns="http://www.w3.org/2000/svg" xmlns:xlink="http://www.w3.org/1999/xlink" viewBox="0 0 29.0039 24.8789">
 <g>
  <rect height="24.8789" opacity="0" width="29.0039" x="0" y="0"/>
  <path d="M0.9375 24.8672C1.46484 24.8672 1.88672 24.4453 1.88672 23.9297L1.88672 2.50781C1.88672 2.13281 2.13281 1.88672 2.48438 1.88672L26.168 1.88672C26.5195 1.88672 26.7656 2.13281 26.7656 2.50781L26.7656 23.9297C26.7656 24.4453 27.1875 24.8672 27.7031 24.8672C28.2305 24.8672 28.6523 24.4453 28.6523 23.9297L28.6523 2.39062C28.6523 0.960938 27.668 0 26.1914 0L2.44922 0C0.984375 0 0 0.960938 0 2.39062L0 23.9297C0 24.4453 0.421875 24.8672 0.9375 24.8672Z" fill="black" fill-opacity="0.85"/>
  <path d="M3.65625 24.4688L13.2422 24.4688C13.4648 24.4688 13.6406 24.293 13.6406 24.0703L13.6406 3.66797C13.6406 3.44531 13.4648 3.26953 13.2422 3.26953L3.65625 3.26953C3.43359 3.26953 3.25781 3.44531 3.25781 3.66797L3.25781 24.0703C3.25781 24.293 3.43359 24.4688 3.65625 24.4688ZM5.26172 9.58594C5.09766 9.58594 4.98047 9.46875 4.98047 9.28125L4.98047 5.29688C4.98047 5.10938 5.09766 4.99219 5.26172 4.99219L11.6367 4.99219C11.8008 4.99219 11.918 5.10938 11.918 5.29688L11.918 9.28125C11.918 9.46875 11.8008 9.58594 11.6367 9.58594ZM5.26172 16.1602C5.09766 16.1602 4.98047 16.043 4.98047 15.8555L4.98047 11.8711C4.98047 11.6836 5.09766 11.5781 5.26172 11.5781L11.6367 11.5781C11.8008 11.5781 11.918 11.6836 11.918 11.8711L11.918 15.8555C11.918 16.043 11.8008 16.1602 11.6367 16.1602ZM5.26172 22.7461C5.09766 22.7461 4.98047 22.6289 4.98047 22.4414L4.98047 18.457C4.98047 18.2695 5.09766 18.1641 5.26172 18.1641L11.6367 18.1641C11.8008 18.1641 11.918 18.2695 11.918 18.457L11.918 22.4414C11.918 22.6289 11.8008 22.7461 11.6367 22.7461ZM15.3984 24.457L24.9961 24.457C25.2188 24.457 25.3945 24.2695 25.3945 24.0586L25.3945 3.64453C25.3945 3.42188 25.2188 3.24609 24.9961 3.24609L15.3984 3.24609C15.1875 3.24609 15.0117 3.42188 15.0117 3.64453L15.0117 24.0586C15.0117 24.2695 15.1875 24.457 15.3984 24.457ZM17.0156 9.5625C16.8516 9.5625 16.7344 9.44531 16.7344 9.25781L16.7344 5.27344C16.7344 5.08594 16.8516 4.98047 17.0156 4.98047L23.3906 4.98047C23.5547 4.98047 23.6602 5.08594 23.6602 5.27344L23.6602 9.25781C23.6602 9.44531 23.5547 9.5625 23.3906 9.5625ZM17.0156 16.1367C16.8516 16.1367 16.7344 16.0195 16.7344 15.8438L16.7344 11.8477C16.7344 11.6719 16.8516 11.5547 17.0156 11.5547L23.3906 11.5547C23.5547 11.5547 23.6602 11.6719 23.6602 11.8477L23.6602 15.8438C23.6602 16.0195 23.5547 16.1367 23.3906 16.1367ZM17.0156 22.7227C16.8516 22.7227 16.7344 22.6055 16.7344 22.4297L16.7344 18.4336C16.7344 18.2578 16.8516 18.1406 17.0156 18.1406L23.3906 18.1406C23.5547 18.1406 23.6602 18.2578 23.6602 18.4336L23.6602 22.4297C23.6602 22.6055 23.5547 22.7227 23.3906 22.7227Z" fill="black" fill-opacity="0.85"/>
 </g>
</svg>
