<?xml version="1.0" encoding="UTF-8"?>
<!--Generator: Apple Native CoreSVG 360-->
<!DOCTYPE svg
PUBLIC "-//W3C//DTD SVG 1.1//EN"
       "http://www.w3.org/Graphics/SVG/1.1/DTD/svg11.dtd">
<svg version="1.1" xmlns="http://www.w3.org/2000/svg" xmlns:xlink="http://www.w3.org/1999/xlink" viewBox="0 0 29.0039 24.8789">
 <g>
  <rect height="24.8789" opacity="0" width="29.0039" x="0" y="0"/>
  <path d="M0.9375 24.8672C1.46484 24.8672 1.88672 24.4453 1.88672 23.9297L1.88672 2.50781C1.88672 2.13281 2.13281 1.88672 2.48438 1.88672L26.168 1.88672C26.5195 1.88672 26.7656 2.13281 26.7656 2.50781L26.7656 23.9297C26.7656 24.4453 27.1875 24.8672 27.7031 24.8672C28.2305 24.8672 28.6523 24.4453 28.6523 23.9297L28.6523 2.39062C28.6523 0.960938 27.668 0 26.1914 0L2.44922 0C0.984375 0 0 0.960938 0 2.39062L0 23.9297C0 24.4453 0.421875 24.8672 0.9375 24.8672Z" fill="black" fill-opacity="0.85"/>
  <path d="M3.65625 24.457L13.2422 24.457C13.4648 24.457 13.6406 24.2695 13.6406 24.0586L13.6406 3.64453C13.6406 3.42188 13.4648 3.24609 13.2422 3.24609L3.65625 3.24609C3.43359 3.24609 3.25781 3.42188 3.25781 3.64453L3.25781 24.0586C3.25781 24.2695 3.43359 24.457 3.65625 24.457ZM5.90625 15.6914C5.57812 15.6914 5.34375 15.457 5.34375 15.1172L5.34375 13.0664C5.34375 12.7266 5.57812 12.5039 5.90625 12.5039C6.24609 12.5039 6.48047 12.7266 6.48047 13.0664L6.48047 15.1172C6.48047 15.457 6.24609 15.6914 5.90625 15.6914ZM15.3984 24.457L24.9961 24.457C25.2188 24.457 25.3945 24.2695 25.3945 24.0586L25.3945 3.64453C25.3945 3.42188 25.2188 3.24609 24.9961 3.24609L15.3984 3.24609C15.1875 3.24609 15.0117 3.42188 15.0117 3.64453L15.0117 24.0586C15.0117 24.2695 15.1875 24.457 15.3984 24.457Z" fill="black" fill-opacity="0.85"/>
 </g>
</svg>
