<?xml version="1.0" encoding="UTF-8"?>
<!--Generator: Apple Native CoreSVG 360-->
<!DOCTYPE svg
PUBLIC "-//W3C//DTD SVG 1.1//EN"
       "http://www.w3.org/Graphics/SVG/1.1/DTD/svg11.dtd">
<svg version="1.1" xmlns="http://www.w3.org/2000/svg" xmlns:xlink="http://www.w3.org/1999/xlink" viewBox="0 0 29.0039 24.8789">
 <g>
  <rect height="24.8789" opacity="0" width="29.0039" x="0" y="0"/>
  <path d="M0.9375 24.8672C1.46484 24.8672 1.88672 24.4453 1.88672 23.9297L1.88672 2.50781C1.88672 2.13281 2.13281 1.88672 2.48438 1.88672L26.168 1.88672C26.5195 1.88672 26.7656 2.13281 26.7656 2.50781L26.7656 23.9297C26.7656 24.4453 27.1875 24.8672 27.7031 24.8672C28.2305 24.8672 28.6523 24.4453 28.6523 23.9297L28.6523 2.39062C28.6523 0.960938 27.668 0 26.1914 0L2.44922 0C0.984375 0 0 0.960938 0 2.39062L0 23.9297C0 24.4453 0.421875 24.8672 0.9375 24.8672Z" fill="black" fill-opacity="0.85"/>
  <path d="M3.65625 24.457L24.9961 24.457C25.2188 24.457 25.3945 24.2695 25.3945 24.0586L25.3945 3.64453C25.3945 3.42188 25.2188 3.24609 24.9961 3.24609L3.65625 3.24609C3.43359 3.24609 3.25781 3.42188 3.25781 3.64453L3.25781 24.0586C3.25781 24.2695 3.43359 24.457 3.65625 24.457ZM12.0352 22.4766C11.6953 22.4766 11.4727 22.2422 11.4727 21.9141C11.4727 21.5742 11.6953 21.3398 12.0352 21.3398L16.6172 21.3398C16.957 21.3398 17.1797 21.5742 17.1797 21.9141C17.1797 22.2422 16.957 22.4766 16.6172 22.4766ZM5.26172 9.70312C5.02734 9.70312 4.85156 9.52734 4.85156 9.29297L4.85156 5.14453C4.85156 4.91016 5.02734 4.72266 5.26172 4.72266L9.79688 4.72266C10.0312 4.72266 10.207 4.91016 10.207 5.14453L10.207 9.29297C10.207 9.52734 10.0312 9.70312 9.79688 9.70312ZM12.082 9.70312C11.8477 9.70312 11.6719 9.52734 11.6719 9.29297L11.6719 5.14453C11.6719 4.91016 11.8477 4.72266 12.082 4.72266L16.6055 4.72266C16.8398 4.72266 17.0273 4.91016 17.0273 5.14453L17.0273 9.29297C17.0273 9.52734 16.8398 9.70312 16.6055 9.70312ZM18.8906 9.70312C18.6562 9.70312 18.4688 9.52734 18.4688 9.29297L18.4688 5.14453C18.4688 4.91016 18.6562 4.72266 18.8906 4.72266L23.3906 4.72266C23.625 4.72266 23.8008 4.91016 23.8008 5.14453L23.8008 9.29297C23.8008 9.52734 23.625 9.70312 23.4844 9.70312Z" fill="black" fill-opacity="0.85"/>
 </g>
</svg>
