<?xml version="1.0" encoding="UTF-8"?>
<!--Generator: Apple Native CoreSVG 360-->
<!DOCTYPE svg
PUBLIC "-//W3C//DTD SVG 1.1//EN"
       "http://www.w3.org/Graphics/SVG/1.1/DTD/svg11.dtd">
<svg version="1.1" xmlns="http://www.w3.org/2000/svg" xmlns:xlink="http://www.w3.org/1999/xlink" viewBox="0 0 28.8516 28.5117">
 <g>
  <rect height="28.5117" opacity="0" width="28.8516" x="0" y="0"/>
  <path d="M13.418 23.372L13.418 25.2703C7.9862 24.8745 3.64398 20.5333 3.23135 15.1055L5.1297 15.1055C5.53775 19.4885 9.03097 22.9805 13.418 23.372ZM15.0937 25.2697L15.0937 23.3715C19.4853 22.9753 22.9742 19.4852 23.382 15.1055L25.2803 15.1055C24.867 20.5295 20.521 24.8683 15.0937 25.2697ZM25.2832 13.4297L23.385 13.4297C23.0049 9.02326 19.5047 5.51351 15.0937 5.11671L15.0937 3.21844C20.5404 3.62043 24.898 7.97914 25.2832 13.4297ZM13.418 5.11621C9.01168 5.50832 5.50704 9.02001 5.12675 13.4297L3.22839 13.4297C3.61299 7.97528 7.96682 3.61426 13.418 3.21785Z" fill="black" fill-opacity="0.85"/>
  <path d="M14.25 9.63281C14.7305 9.63281 15.0938 9.25781 15.0938 8.78906L15.0938 0.855469C15.0938 0.386719 14.7305 0.0117188 14.25 0.0117188C13.7812 0.0117188 13.418 0.386719 13.418 0.855469L13.418 8.78906C13.418 9.25781 13.7812 9.63281 14.25 9.63281ZM0.84375 15.1055L8.77734 15.1055C9.24609 15.1055 9.62109 14.7305 9.62109 14.2617C9.62109 13.793 9.24609 13.4297 8.77734 13.4297L0.84375 13.4297C0.375 13.4297 0 13.793 0 14.2617C0 14.7305 0.375 15.1055 0.84375 15.1055ZM14.25 28.5117C14.7305 28.5117 15.0938 28.1367 15.0938 27.668L15.0938 19.7344C15.0938 19.2656 14.7305 18.9023 14.25 18.9023C13.7812 18.9023 13.418 19.2656 13.418 19.7344L13.418 27.668C13.418 28.1367 13.7812 28.5117 14.25 28.5117ZM19.7227 15.1055L27.6562 15.1055C28.125 15.1055 28.5 14.7305 28.5 14.2617C28.5 13.793 28.125 13.4297 27.6562 13.4297L19.7227 13.4297C19.2539 13.4297 18.8789 13.793 18.8789 14.2617C18.8789 14.7305 19.2539 15.1055 19.7227 15.1055Z" fill="black" fill-opacity="0.85"/>
  <path d="M14.25 16.2539C15.3516 16.2539 16.2422 15.3633 16.2422 14.2617C16.2422 13.1602 15.3516 12.2695 14.25 12.2695C13.1484 12.2695 12.2578 13.1602 12.2578 14.2617C12.2578 15.3633 13.1484 16.2539 14.25 16.2539Z" fill="black" fill-opacity="0.85"/>
 </g>
</svg>
