<?xml version="1.0" encoding="UTF-8"?>
<!--Generator: Apple Native CoreSVG 360-->
<!DOCTYPE svg
PUBLIC "-//W3C//DTD SVG 1.1//EN"
       "http://www.w3.org/Graphics/SVG/1.1/DTD/svg11.dtd">
<svg version="1.1" xmlns="http://www.w3.org/2000/svg" xmlns:xlink="http://www.w3.org/1999/xlink" viewBox="0 0 19.4414 22.9747">
 <g>
  <rect height="22.9747" opacity="0" width="19.4414" x="0" y="0"/>
  <path d="M13.2539 22.6612C13.6172 23.0596 14.25 23.1065 14.6953 22.6378C17.4844 19.7198 19.0898 15.8057 19.0898 11.5284C19.0898 7.25104 17.5078 3.30182 14.6953 0.407286C14.25-0.0614641 13.6172-0.0145891 13.2539 0.383848C12.8906 0.794005 12.9727 1.36822 13.3945 1.81354C15.8438 4.33307 17.1797 7.76666 17.1797 11.5284C17.1797 15.2901 15.8203 18.6885 13.3945 21.2315C12.9727 21.6768 12.8906 22.2628 13.2539 22.6612Z" fill="black" fill-opacity="0.85"/>
  <path d="M9.86719 19.544C10.2422 19.9776 10.8984 19.9776 11.3555 19.4854C13.3008 17.376 14.3906 14.5635 14.3906 11.5284C14.3906 8.49322 13.3125 5.669 11.3555 3.57135C10.8984 3.06744 10.2422 3.06744 9.86719 3.51275C9.49219 3.93463 9.60938 4.48541 10.0312 4.96588C11.6133 6.70025 12.4805 8.99713 12.4805 11.5284C12.4805 14.0479 11.6016 16.3448 10.0312 18.0909C9.60938 18.5713 9.49219 19.1104 9.86719 19.544Z" fill="black" fill-opacity="0.85"/>
  <path d="M6.58594 16.2042C6.97266 16.6378 7.67578 16.6495 8.08594 16.1221C9.10547 14.8565 9.70312 13.251 9.70312 11.5284C9.70312 9.80572 9.10547 8.18854 8.08594 6.93463C7.67578 6.39557 6.97266 6.40729 6.58594 6.8526C6.21094 7.27447 6.375 7.7901 6.73828 8.30572C7.42969 9.18463 7.79297 10.3096 7.79297 11.5284C7.79297 12.7471 7.44141 13.8721 6.73828 14.751C6.36328 15.2549 6.21094 15.7823 6.58594 16.2042Z" fill="black" fill-opacity="0.85"/>
  <path d="M0 11.5049C0 12.6417 0.984375 13.6026 2.14453 13.6026C3.30469 13.6026 4.26562 12.6417 4.26562 11.4815C4.26562 10.3096 3.32812 9.34869 2.14453 9.34869C0.972656 9.34869 0 10.3331 0 11.5049Z" fill="black" fill-opacity="0.85"/>
 </g>
</svg>
