<?xml version="1.0" encoding="UTF-8"?>
<!--Generator: Apple Native CoreSVG 360-->
<!DOCTYPE svg
PUBLIC "-//W3C//DTD SVG 1.1//EN"
       "http://www.w3.org/Graphics/SVG/1.1/DTD/svg11.dtd">
<svg version="1.1" xmlns="http://www.w3.org/2000/svg" xmlns:xlink="http://www.w3.org/1999/xlink" viewBox="0 0 28.2891 24.4336">
 <g>
  <rect height="24.4336" opacity="0" width="28.2891" x="0" y="0"/>
  <path d="M2.69531 20.2734L25.2305 20.2734C26.918 20.2734 27.9375 19.2539 27.9375 17.5664L27.9375 3.51562C27.9375 1.82812 26.918 0.820312 25.2305 0.820312L2.69531 0.820312C1.01953 0.820312 0 1.82812 0 3.51562L0 17.5664C0 19.2539 1.01953 20.2734 2.69531 20.2734ZM2.73047 18.3867C2.21484 18.3867 1.88672 18.0586 1.88672 17.543L1.88672 3.55078C1.88672 3.02344 2.21484 2.70703 2.73047 2.70703L25.207 2.70703C25.7227 2.70703 26.0508 3.02344 26.0508 3.55078L26.0508 17.543C26.0508 18.0586 25.7227 18.3867 25.207 18.3867ZM10.2656 23.0625L17.6719 23.0625L17.6719 20.1211L10.2656 20.1211ZM10.1953 24.4336L17.7422 24.4336C18.2578 24.4336 18.6797 24.0117 18.6797 23.4844C18.6797 22.957 18.2578 22.5352 17.7422 22.5352L10.1953 22.5352C9.67969 22.5352 9.24609 22.957 9.24609 23.4844C9.24609 24.0117 9.67969 24.4336 10.1953 24.4336Z" fill="black" fill-opacity="0.85"/>
  <path d="M13.9688 15.3281C16.6172 15.3281 18.7617 13.1836 18.7617 10.5469C18.7617 7.89844 16.6172 5.74219 13.9688 5.74219C11.332 5.74219 9.17578 7.89844 9.17578 10.5469C9.17578 13.1836 11.332 15.3281 13.9688 15.3281ZM13.9688 14.25C11.9062 14.25 10.3008 12.6328 10.3008 10.5469C10.3008 8.44922 11.9062 6.82031 13.9688 6.82031C16.0312 6.82031 17.6484 8.44922 17.6484 10.5469C17.6484 12.6328 16.043 14.25 13.9688 14.25ZM13.9688 4.52344C13.6875 4.52344 13.4648 4.75781 13.4648 5.02734L13.4648 7.88672C13.4648 8.17969 13.6875 8.39062 13.9688 8.39062C14.25 8.39062 14.4609 8.16797 14.4609 7.88672L14.4609 5.02734C14.4609 4.75781 14.2617 4.52344 13.9688 4.52344ZM16.6172 11.0391L19.4766 11.0391C19.7461 11.0391 19.9805 10.8164 19.9805 10.5469C19.9805 10.2539 19.7461 10.043 19.4766 10.043L16.6172 10.043C16.3477 10.043 16.1133 10.2422 16.1133 10.5469C16.1133 10.8164 16.3477 11.0391 16.6172 11.0391ZM13.9688 16.5469C14.25 16.5469 14.4727 16.3242 14.4727 16.0312L14.4727 13.1836C14.4727 12.9023 14.2617 12.6797 13.9688 12.6797C13.6992 12.6797 13.4766 12.9023 13.4766 13.1836L13.4766 16.0312C13.4766 16.3359 13.6992 16.5469 13.9688 16.5469ZM8.47266 11.0391L11.332 11.0391C11.6016 11.0391 11.8242 10.8164 11.8242 10.5469C11.8242 10.2422 11.6016 10.043 11.332 10.043L8.47266 10.043C8.19141 10.043 7.96875 10.2539 7.96875 10.5469C7.96875 10.8164 8.17969 11.0391 8.47266 11.0391ZM13.9805 11.3203C14.4141 11.3203 14.7539 10.9688 14.7539 10.5352C14.7539 10.1016 14.4141 9.75 13.9805 9.75C13.5352 9.75 13.1836 10.1016 13.1836 10.5352C13.1836 10.9688 13.5352 11.3203 13.9805 11.3203Z" fill="black" fill-opacity="0.85"/>
 </g>
</svg>
