<?xml version="1.0" encoding="UTF-8"?>
<!--Generator: Apple Native CoreSVG 360-->
<!DOCTYPE svg
PUBLIC "-//W3C//DTD SVG 1.1//EN"
       "http://www.w3.org/Graphics/SVG/1.1/DTD/svg11.dtd">
<svg version="1.1" xmlns="http://www.w3.org/2000/svg" xmlns:xlink="http://www.w3.org/1999/xlink" viewBox="0 0 26.6602 26.3086">
 <g>
  <rect height="26.3086" opacity="0" width="26.6602" x="0" y="0"/>
  <path d="M13.1719 18.4102C13.5493 18.4102 13.9182 18.3695 14.2734 18.2899L14.2734 25.1953C14.2734 25.8164 13.7812 26.3086 13.1484 26.3086C12.5273 26.3086 12.0352 25.8164 12.0352 25.1953L12.0352 18.2829C12.4008 18.3673 12.7817 18.4102 13.1719 18.4102ZM7.89844 13.1484C7.89844 13.5392 7.94144 13.92 8.02607 14.2852L1.125 14.2852C0.503906 14.2852 0 13.7812 0 13.1602C0 12.5391 0.503906 12.0469 1.125 12.0469L8.01904 12.0469C7.93932 12.4017 7.89844 12.7705 7.89844 13.1484ZM26.3086 13.1602C26.3086 13.7812 25.8047 14.2852 25.1836 14.2852L18.2943 14.2852C18.3789 13.92 18.4219 13.5392 18.4219 13.1484C18.4219 12.7705 18.381 12.4017 18.3013 12.0469L25.1836 12.0469C25.8047 12.0469 26.3086 12.5391 26.3086 13.1602ZM14.2734 1.13672L14.2734 8.03036C13.9182 7.95086 13.5493 7.91016 13.1719 7.91016C12.7817 7.91016 12.4008 7.95296 12.0352 8.03733L12.0352 1.13672C12.0352 0.515625 12.5273 0.0117188 13.1484 0.0117188C13.7812 0.0117188 14.2734 0.515625 14.2734 1.13672Z" fill="black" fill-opacity="0.85"/>
  <path d="M13.1719 16.8164C15.1641 16.8164 16.8164 15.1758 16.8164 13.1484C16.8164 11.1445 15.1641 9.51562 13.1719 9.51562C11.1562 9.51562 9.50391 11.1445 9.50391 13.1484C9.50391 15.1758 11.1562 16.8164 13.1719 16.8164Z" fill="black" fill-opacity="0.85"/>
 </g>
</svg>
