<?xml version="1.0" encoding="UTF-8"?>
<!--Generator: Apple Native CoreSVG 360-->
<!DOCTYPE svg
PUBLIC "-//W3C//DTD SVG 1.1//EN"
       "http://www.w3.org/Graphics/SVG/1.1/DTD/svg11.dtd">
<svg version="1.1" xmlns="http://www.w3.org/2000/svg" xmlns:xlink="http://www.w3.org/1999/xlink" viewBox="0 0 34.1484 19.0898">
 <g>
  <rect height="19.0898" opacity="0" width="34.1484" x="0" y="0"/>
  <path d="M0 17.7539C0 18.4922 0.597656 19.0898 1.32422 19.0898L32.4727 19.0898C33.1992 19.0898 33.7969 18.4922 33.7969 17.7539C33.7969 17.0156 33.1992 16.418 32.4727 16.418L29.9062 16.418L29.9062 2.50781C29.9062 0.867188 29.0273 0.0234375 27.3984 0.0234375L6.39844 0.0234375C4.85156 0.0234375 3.89062 0.867188 3.89062 2.50781L3.89062 16.418L1.32422 16.418C0.597656 16.418 0 17.0156 0 17.7539ZM5.77734 16.418L5.77734 3.03516C5.77734 2.28516 6.15234 1.91016 6.90234 1.91016L26.8945 1.91016C27.6445 1.91016 28.0195 2.28516 28.0195 3.03516L28.0195 16.418Z" fill="black" fill-opacity="0.85"/>
  <path d="M16.8984 13.9453C19.5469 13.9453 21.6914 11.8008 21.6914 9.15234C21.6914 6.50391 19.5469 4.34766 16.8984 4.34766C14.2734 4.34766 12.1172 6.50391 12.1172 9.15234C12.1172 11.8008 14.2734 13.9453 16.8984 13.9453ZM16.8984 12.8555C14.8359 12.8555 13.2305 11.25 13.2305 9.15234C13.2305 7.05469 14.8359 5.4375 16.8984 5.4375C18.9727 5.4375 20.5781 7.05469 20.5781 9.15234C20.5781 11.25 18.9844 12.8555 16.8984 12.8555ZM16.8984 3.14062C16.6289 3.14062 16.3945 3.36328 16.3945 3.63281L16.3945 6.49219C16.3945 6.78516 16.6289 7.00781 16.8984 7.00781C17.1797 7.00781 17.4023 6.77344 17.4023 6.49219L17.4023 3.63281C17.4023 3.36328 17.1914 3.14062 16.8984 3.14062ZM19.5469 9.65625L22.4062 9.65625C22.6758 9.65625 22.9219 9.42188 22.9219 9.15234C22.9219 8.87109 22.6758 8.66016 22.4062 8.66016L19.5469 8.66016C19.2773 8.66016 19.0547 8.85938 19.0547 9.15234C19.0547 9.42188 19.2773 9.65625 19.5469 9.65625ZM16.9102 15.1523C17.1914 15.1523 17.4023 14.9297 17.4023 14.6484L17.4023 11.7891C17.4023 11.5195 17.2031 11.2969 16.9102 11.2969C16.6289 11.2969 16.4062 11.5195 16.4062 11.7891L16.4062 14.6484C16.4062 14.9414 16.6289 15.1523 16.9102 15.1523ZM11.4141 9.65625L14.2617 9.65625C14.543 9.65625 14.7656 9.42188 14.7656 9.15234C14.7656 8.85938 14.543 8.66016 14.2617 8.66016L11.4141 8.66016C11.1211 8.66016 10.8984 8.87109 10.8984 9.15234C10.8984 9.42188 11.1094 9.65625 11.4141 9.65625ZM16.9102 9.9375C17.3438 9.9375 17.6953 9.58594 17.6953 9.14062C17.6953 8.70703 17.3438 8.36719 16.9102 8.36719C16.4648 8.36719 16.125 8.70703 16.125 9.14062C16.125 9.58594 16.4648 9.9375 16.9102 9.9375Z" fill="black" fill-opacity="0.85"/>
 </g>
</svg>
