<?xml version="1.0" encoding="UTF-8"?>
<!--Generator: Apple Native CoreSVG 360-->
<!DOCTYPE svg
PUBLIC "-//W3C//DTD SVG 1.1//EN"
       "http://www.w3.org/Graphics/SVG/1.1/DTD/svg11.dtd">
<svg version="1.1" xmlns="http://www.w3.org/2000/svg" xmlns:xlink="http://www.w3.org/1999/xlink" viewBox="0 0 24.2578 23.918">
 <g>
  <rect height="23.918" opacity="0" width="24.2578" x="0" y="0"/>
  <path d="M11.9531 23.9062C18.5508 23.9062 23.9062 18.5508 23.9062 11.9531C23.9062 5.35547 18.5508 0 11.9531 0C5.35547 0 0 5.35547 0 11.9531C0 18.5508 5.35547 23.9062 11.9531 23.9062ZM11.9531 21.9141C6.44531 21.9141 1.99219 17.4609 1.99219 11.9531C1.99219 6.44531 6.44531 1.99219 11.9531 1.99219C17.4609 1.99219 21.9141 6.44531 21.9141 11.9531C21.9141 17.4609 17.4609 21.9141 11.9531 21.9141Z" fill="black" fill-opacity="0.85"/>
  <path d="M11.9414 16.3594C14.3672 16.3594 16.3594 14.3555 16.3594 11.9531C16.3594 9.53906 14.3672 7.54688 11.9414 7.54688C9.55078 7.54688 7.54688 9.53906 7.54688 11.9531C7.54688 14.3555 9.55078 16.3594 11.9414 16.3594ZM14.0391 5.35547L12.4219 3.32812C12.1875 3.02344 11.7656 3.02344 11.5078 3.32812L9.87891 5.35547C9.50391 5.8125 9.72656 6.39844 10.3359 6.39844L13.582 6.39844C14.1797 6.39844 14.4023 5.78906 14.0391 5.35547ZM18.5625 14.0391L20.5898 12.4219C20.8945 12.1875 20.8945 11.7539 20.5898 11.5078L18.5625 9.87891C18.1055 9.50391 17.5195 9.71484 17.5195 10.3359L17.5195 13.5703C17.5195 14.168 18.1289 14.3906 18.5625 14.0391ZM14.0391 18.5625C14.4023 18.1289 14.1797 17.5195 13.582 17.5195L10.3359 17.5195C9.72656 17.5195 9.50391 18.1055 9.87891 18.5625L11.5078 20.5898C11.7656 20.8945 12.1875 20.8945 12.4219 20.5898ZM5.35547 14.0391C5.80078 14.3906 6.39844 14.168 6.39844 13.5703L6.39844 10.3359C6.39844 9.71484 5.82422 9.50391 5.35547 9.87891L3.32812 11.5078C3.02344 11.7539 3.02344 12.1875 3.32812 12.4219Z" fill="black" fill-opacity="0.85"/>
 </g>
</svg>
