<?xml version="1.0" encoding="UTF-8"?>
<!--Generator: Apple Native CoreSVG 360-->
<!DOCTYPE svg
PUBLIC "-//W3C//DTD SVG 1.1//EN"
       "http://www.w3.org/Graphics/SVG/1.1/DTD/svg11.dtd">
<svg version="1.1" xmlns="http://www.w3.org/2000/svg" xmlns:xlink="http://www.w3.org/1999/xlink" viewBox="0 0 29.8507 37.8398">
 <g>
  <rect height="37.8398" opacity="0" width="29.8507" x="0" y="0"/>
  <path d="M1.64213 27.3281C3.18522 29.6718 5.18779 31.4468 7.42321 32.6399C7.24608 32.8177 7.09444 33.029 6.97416 33.2695C6.81471 33.5912 6.72871 33.9263 6.71201 34.2571C4.16287 32.9282 1.87294 30.9267 0.153851 28.2539C-0.139117 27.7852 0.00150772 27.2578 0.44682 27C0.880414 26.7656 1.3726 26.8828 1.64213 27.3281ZM29.0523 27C29.4976 27.2578 29.6382 27.7852 29.3453 28.2539C27.6265 30.9262 25.3371 32.9274 22.787 34.2564C22.7703 33.9258 22.6843 33.591 22.5249 33.2695C22.4044 33.0285 22.2524 32.8169 22.0748 32.6388C24.3095 31.4458 26.3084 29.6711 27.8453 27.3281C28.1265 26.8828 28.6187 26.7656 29.0523 27Z" fill="black" fill-opacity="0.85"/>
  <path d="M5.08745 25.1016C6.20517 26.7309 7.63691 27.967 9.21418 28.8114C9.05766 28.976 8.92262 29.1663 8.81401 29.3789C8.64245 29.7249 8.55391 30.0848 8.54134 30.4377C6.58186 29.4132 4.88165 27.9126 3.63432 26.0625C3.3062 25.5938 3.45854 25.043 3.91557 24.7969C4.34916 24.5508 4.81791 24.6914 5.08745 25.1016ZM25.5835 24.7969C26.0406 25.043 26.1929 25.5938 25.8648 26.0625C24.6178 27.9121 22.9181 29.4124 20.9577 30.4369C20.9451 30.0843 20.8565 29.7246 20.6851 29.3789C20.5764 29.1661 20.4412 28.9757 20.2845 28.811C21.8627 27.9666 23.2941 26.7306 24.4117 25.1016C24.6812 24.6914 25.1499 24.5508 25.5835 24.7969Z" fill="black" fill-opacity="0.85"/>
  <path d="M21.0953 33.9844C21.3414 34.4766 21.1304 35.0273 20.5679 35.2266C18.7632 35.8711 16.7945 36.2344 14.7437 36.2344C12.7046 36.2344 10.7359 35.8711 8.9312 35.2266C8.3687 35.0273 8.15776 34.4766 8.40385 33.9844C8.62651 33.5625 9.07182 33.4102 9.50541 33.5742C11.146 34.1602 12.9156 34.4766 14.7437 34.4766C16.5835 34.4766 18.3531 34.1602 19.9937 33.5742C20.4273 33.4102 20.8726 33.5625 21.0953 33.9844Z" fill="black" fill-opacity="0.85"/>
  <path d="M19.2554 30.1055C19.5132 30.6211 19.2906 31.207 18.7164 31.3711C17.4624 31.7695 16.1382 31.9805 14.7437 31.9805C13.3609 31.9805 12.0367 31.7695 10.7828 31.3711C10.2085 31.207 9.98588 30.6211 10.2437 30.1055C10.4429 29.7188 10.8648 29.5664 11.2984 29.6953C12.3765 30.0352 13.5367 30.2227 14.7437 30.2227C15.9624 30.2227 17.1226 30.0352 18.2007 29.6953C18.6343 29.5664 19.0562 29.7188 19.2554 30.1055Z" fill="black" fill-opacity="0.85"/>
  <path d="M21.271 6.46875L21.271 9.01172L21.7749 9.01172C22.3492 9.01172 22.8062 9.44531 22.8062 10.0078L22.8062 10.4531C22.8062 11.0039 22.3492 11.4492 21.7749 11.4492L21.271 11.4492L21.271 21.6797C21.271 23.7932 19.9287 24.8609 16.9813 25.1815C16.4652 24.513 15.6559 24.082 14.7437 24.082C13.8384 24.082 13.028 24.513 12.5098 25.1813C9.56995 24.8605 8.22807 23.7928 8.22807 21.6797L8.22807 11.4492L7.73588 11.4492C7.14995 11.4492 6.69291 11.0039 6.69291 10.4531L6.69291 10.0078C6.69291 9.44531 7.14995 9.01172 7.73588 9.01172L8.22807 9.01172L8.22807 6.46875C8.22807 3.79688 10.7007 2.21484 14.7437 2.21484C18.8101 2.21484 21.271 3.79688 21.271 6.46875ZM10.0796 6.46875L10.0796 21.6211C10.0796 22.9453 11.3921 23.4609 14.7437 23.4609C18.107 23.4609 19.4195 22.9453 19.4195 21.6211L19.4195 6.46875C19.4195 4.93359 17.8023 4.06641 14.7437 4.06641C11.7085 4.06641 10.0796 4.93359 10.0796 6.46875ZM18.3999 18.7031L18.5171 19.5C18.7281 20.8945 17.7789 21.3398 14.7437 21.3398C11.732 21.3398 10.771 20.8945 10.982 19.5L11.1109 18.7031C11.2867 17.5898 12.1421 17.2383 14.7437 17.2383C17.357 17.2383 18.2242 17.5898 18.3999 18.7031ZM18.5523 9.32812L18.4117 10.9688C18.3414 11.707 18.0249 12 17.3218 12C16.8765 12 15.5992 11.9297 14.7437 11.9297C13.9585 11.9297 12.6226 12 12.189 12C11.4742 12 11.1578 11.707 11.0992 10.9688L10.9468 9.32812C10.8296 7.98047 11.732 7.46484 14.7437 7.46484C17.7789 7.46484 18.6695 7.98047 18.5523 9.32812Z" fill="black" fill-opacity="0.85"/>
  <path d="M14.7437 28.5469C15.646 28.5469 16.3843 27.832 16.3843 26.918C16.3843 26.0156 15.646 25.2891 14.7437 25.2891C13.8531 25.2891 13.1148 26.0156 13.1148 26.918C13.1148 27.832 13.8531 28.5469 14.7437 28.5469Z" fill="black" fill-opacity="0.85"/>
 </g>
</svg>
