<?xml version="1.0" encoding="UTF-8"?>
<!--Generator: Apple Native CoreSVG 360-->
<!DOCTYPE svg
PUBLIC "-//W3C//DTD SVG 1.1//EN"
       "http://www.w3.org/Graphics/SVG/1.1/DTD/svg11.dtd">
<svg version="1.1" xmlns="http://www.w3.org/2000/svg" xmlns:xlink="http://www.w3.org/1999/xlink" viewBox="0 0 34.6092 29.0145">
 <g>
  <rect height="29.0145" opacity="0" width="34.6092" x="0" y="0"/>
  <path d="M25.6366 13.2006L25.6237 13.4571C25.608 13.4645 25.593 13.4731 25.578 13.4819C24.9977 13.1278 24.3266 13.0131 23.6407 13.127C23.6042 7.65271 19.1665 3.23968 13.6835 3.23968C8.17569 3.23968 3.72257 7.6928 3.72257 13.2006C3.72257 18.7084 8.17569 23.1616 13.6835 23.1616C14.9486 23.1616 16.158 22.9266 17.2659 22.4885L18.5602 24.1051C17.0742 24.7819 15.422 25.1537 13.6835 25.1537C7.08585 25.1537 1.73038 19.7983 1.73038 13.2006C1.73038 6.60296 7.08585 1.24749 13.6835 1.24749C20.2812 1.24749 25.6366 6.60296 25.6366 13.2006Z" fill="black" fill-opacity="0.85"/>
  <path d="M17.2812 13.2006C17.2812 15.1811 15.664 16.7983 13.6835 16.7983C11.6913 16.7983 10.0858 15.1811 10.0858 13.2006C10.0858 11.2201 11.6913 9.60296 13.6835 9.60296C15.664 9.60296 17.2812 11.2201 17.2812 13.2006Z" fill="black" fill-opacity="0.85"/>
  <path d="M28.8593 26.9584C32.6444 25.5873 33.8749 22.4701 32.4218 18.4155L31.8241 16.7397C31.2851 15.2162 30.1952 14.5483 29.3632 14.8412C29.1757 14.9233 29.1171 15.0522 29.1757 15.2397L29.4452 15.978C29.5741 16.3295 29.4452 16.5639 29.246 16.6459C29.0116 16.7162 28.7773 16.6108 28.6483 16.2592L28.4608 15.767C28.1444 14.8764 27.3593 14.5014 26.5741 14.7826C26.2226 14.9116 26.1054 15.1108 26.2226 15.4155L26.5976 16.4233C26.7265 16.7631 26.6093 17.0092 26.4101 17.0795C26.164 17.1616 25.9296 17.0561 25.8007 16.7162L25.4608 15.7787C25.0976 14.7592 24.3241 14.5014 23.5741 14.7709C23.246 14.8998 23.1288 15.1225 23.2343 15.4037L23.9374 17.3842C24.0663 17.7475 23.9491 17.9701 23.7499 18.0522C23.5273 18.1342 23.2812 18.0287 23.1523 17.6655L20.7616 11.0795C20.5155 10.4233 19.9413 10.1537 19.4023 10.353C18.8163 10.5756 18.5585 11.1381 18.7929 11.7826L22.3202 21.4506C22.4023 21.685 22.2968 21.8725 22.1444 21.9194C22.0038 21.978 21.8515 21.9311 21.6523 21.7319L19.2851 19.1772C18.9218 18.7905 18.5585 18.7084 18.1718 18.8491C17.5741 19.0717 17.3515 19.6225 17.5273 20.1147C17.5858 20.3022 17.6913 20.4662 17.7968 20.5834L20.7265 24.2631C23.2226 27.3686 26.0819 27.978 28.8593 26.9584Z" fill="black" fill-opacity="0.85"/>
 </g>
</svg>
