<?xml version="1.0" encoding="UTF-8"?>
<!--Generator: Apple Native CoreSVG 360-->
<!DOCTYPE svg
PUBLIC "-//W3C//DTD SVG 1.1//EN"
       "http://www.w3.org/Graphics/SVG/1.1/DTD/svg11.dtd">
<svg version="1.1" xmlns="http://www.w3.org/2000/svg" xmlns:xlink="http://www.w3.org/1999/xlink" viewBox="0 0 25.9688 25.6289">
 <g>
  <rect height="25.6289" opacity="0" width="25.9688" x="0" y="0"/>
  <path d="M17.4258 20.2031C17.4258 18.9375 17.2734 18.5273 16.4648 17.7188L14.1914 15.4336C13.3711 14.625 12.2461 14.625 11.4258 15.4336L9.15234 17.7188C8.34375 18.5273 8.20312 18.9375 8.20312 20.2031L8.20312 23.1562C8.20312 24.6562 9.07031 25.6055 10.4062 25.6055L15.2227 25.6055C16.5586 25.6055 17.4258 24.6562 17.4258 23.1562Z" fill="black" fill-opacity="0.85"/>
  <path d="M20.2148 8.20312C18.9375 8.20312 18.5273 8.34375 17.7188 9.15234L15.4453 11.4258C14.625 12.2461 14.625 13.3711 15.4453 14.1914L17.7188 16.4648C18.5273 17.2734 18.9375 17.4258 20.2148 17.4258L23.1562 17.4258C24.6562 17.4258 25.6172 16.5586 25.6172 15.2227L25.6172 10.3945C25.6172 9.07031 24.6562 8.20312 23.1562 8.20312ZM20.2148 9.87891L23.1094 9.87891C23.6484 9.87891 23.9531 10.1836 23.9531 10.7227L23.9531 14.8945C23.9531 15.4336 23.6484 15.75 23.1094 15.75L20.2148 15.75C19.6055 15.75 19.3008 15.668 18.9023 15.2695L16.6992 13.0781C16.5234 12.8906 16.5352 12.7148 16.7109 12.5391L18.9023 10.3477C19.3008 9.94922 19.6055 9.87891 20.2148 9.87891Z" fill="black" fill-opacity="0.85"/>
  <path d="M5.40234 17.4141C6.67969 17.4141 7.08984 17.2734 7.89844 16.4648L10.1719 14.1914C10.9922 13.3711 10.9922 12.2461 10.1719 11.4258L7.89844 9.15234C7.08984 8.34375 6.67969 8.19141 5.40234 8.19141L2.46094 8.19141C0.960938 8.19141 0 9.05859 0 10.3945L0 15.2227C0 16.5469 0.960938 17.4141 2.46094 17.4141ZM5.40234 15.7383L2.50781 15.7383C1.96875 15.7383 1.66406 15.4336 1.66406 14.8945L1.66406 10.7227C1.66406 10.1836 1.96875 9.86719 2.50781 9.86719L5.40234 9.86719C6.01172 9.86719 6.31641 9.94922 6.71484 10.3477L8.91797 12.5391C9.09375 12.7266 9.08203 12.9023 8.90625 13.0781L6.71484 15.2695C6.31641 15.668 6.01172 15.7383 5.40234 15.7383Z" fill="black" fill-opacity="0.85"/>
  <path d="M8.20312 5.41406C8.20312 6.67969 8.35547 7.08984 9.16406 7.89844L11.4375 10.1719C12.2578 10.9922 13.3828 10.9922 14.2031 10.1719L16.4766 7.89844C17.2852 7.08984 17.4258 6.67969 17.4258 5.41406L17.4258 2.46094C17.4258 0.960938 16.5586 0 15.2227 0L10.4062 0C9.07031 0 8.20312 0.960938 8.20312 2.46094ZM9.87891 5.41406L9.87891 2.50781C9.87891 1.98047 10.1953 1.66406 10.7344 1.66406L14.9062 1.66406C15.4453 1.66406 15.75 1.98047 15.75 2.50781L15.75 5.41406C15.75 6.01172 15.6797 6.31641 15.2812 6.71484L13.0781 8.91797C12.9023 9.09375 12.7266 9.09375 12.5508 8.91797L10.3594 6.71484C9.96094 6.31641 9.87891 6.01172 9.87891 5.41406Z" fill="black" fill-opacity="0.85"/>
 </g>
</svg>
