<?xml version="1.0" encoding="UTF-8"?>
<!--Generator: Apple Native CoreSVG 360-->
<!DOCTYPE svg
PUBLIC "-//W3C//DTD SVG 1.1//EN"
       "http://www.w3.org/Graphics/SVG/1.1/DTD/svg11.dtd">
<svg version="1.1" xmlns="http://www.w3.org/2000/svg" xmlns:xlink="http://www.w3.org/1999/xlink" viewBox="0 0 42.6211 27.2461">
 <g>
  <rect height="27.2461" opacity="0" width="42.6211" x="0" y="0"/>
  <path d="M15.8789 18.8438L26.332 18.8438C29.3906 18.8438 30.0352 16.418 29.0156 14.3906L25.9922 8.4375C25.3711 7.20703 24.5859 6.53906 22.8398 6.53906L19.4062 6.53906C17.6602 6.53906 16.8867 7.20703 16.2539 8.4375L13.1953 14.3906C12.1641 16.4062 12.8086 18.8438 15.8789 18.8438ZM8.0625 22.2539L15.082 19.7695L14.8477 18.2344L7.78125 20.7305C5.64844 21.4805 4.41797 20.6367 4.41797 18.9961L4.41797 16.7227C4.41797 16.5117 4.47656 16.4648 4.69922 16.4648L5.33203 16.4648C5.57812 16.4648 5.625 16.5117 5.625 16.7227L5.625 18.6328C5.625 19.5938 6.21094 19.9219 7.24219 19.5469L13.8047 17.1797L14.1328 15.4805L7.51172 17.9062C7.26562 18 7.16016 17.8008 7.16016 17.5547L7.16016 16.4062C7.16016 15.5859 6.70312 15.1172 5.88281 15.1172L4.13672 15.1172C3.33984 15.1172 2.87109 15.5859 2.87109 16.4062L2.87109 19.125C2.87109 21.3516 4.69922 23.4492 8.0625 22.2539ZM19.2539 27.2461L22.9336 27.2461C23.6836 27.2461 24.1523 26.6719 24.1523 25.9219L24.1523 23.1211L18.0352 23.1211L18.0352 25.9219C18.0352 26.6719 18.5039 27.2461 19.2539 27.2461ZM21.0938 26.0859C20.543 26.0859 20.0977 25.6641 20.0977 25.1016C20.0977 24.5391 20.543 24.1172 21.0938 24.1172C21.6445 24.1172 22.0898 24.5508 22.0898 25.1016C22.0898 25.6641 21.6328 26.0859 21.0938 26.0859ZM18.1641 23.8945L24.0234 23.8945C24.8438 23.8945 25.5469 23.6016 25.9453 22.9336L29.1797 17.3906L26.5898 18.293L24.5391 21.7734C24.3633 22.0664 24.1289 22.1836 23.6953 22.1836L18.4922 22.1836C18.0586 22.1836 17.8242 22.0664 17.6484 21.7734L15.5625 18.2227L12.9844 17.332L16.2422 22.9336C16.6406 23.6016 17.3438 23.8945 18.1641 23.8945ZM14.8008 12.9609L15.3984 11.5195L12 9.69141C10.8867 9.09375 10.6172 8.73047 10.6172 7.40625L10.6172 5.8125C10.6172 5.60156 10.6758 5.55469 10.8984 5.55469L11.543 5.55469C11.7773 5.55469 11.8359 5.60156 11.8359 5.8125L11.8359 7.27734C11.8359 8.14453 12.0703 8.39062 12.6328 8.67188L15.9141 10.3828L16.6992 9L13.6758 7.38281C13.4531 7.26562 13.3711 7.11328 13.3711 6.96094L13.3711 5.49609C13.3711 4.67578 12.9141 4.20703 12.082 4.20703L10.3359 4.20703C9.53906 4.20703 9.07031 4.67578 9.07031 5.49609L9.07031 7.65234C9.07031 9.57422 9.53906 10.1953 11.4141 11.1797ZM16.1719 17.1211C14.707 17.1211 14.3438 16.0898 14.9766 14.8242L17.7891 9.28125C18.1758 8.53125 18.5391 8.28516 19.418 8.28516L22.8281 8.28516C23.707 8.28516 24.0703 8.53125 24.457 9.28125L27.2461 14.8242C27.8906 16.0898 27.5273 17.1211 26.0625 17.1211ZM15.5156 3.16406C15.9492 3.16406 16.2305 2.80078 16.2305 2.41406C16.2305 2.02734 15.9492 1.65234 15.5156 1.65234L6.90234 1.65234C6.48047 1.65234 6.1875 2.02734 6.1875 2.41406C6.1875 2.80078 6.48047 3.16406 6.90234 3.16406ZM34.1836 22.2539C37.5469 23.4492 39.375 21.3516 39.375 19.125L39.375 16.4062C39.375 15.5859 38.9062 15.1172 38.1094 15.1172L36.3633 15.1172C35.543 15.1172 35.0859 15.5859 35.0859 16.4062L35.0859 17.5547C35.0859 17.8008 34.9805 18 34.7344 17.9062L28.1133 15.4805L28.4414 17.1797L35.0039 19.5469C36.0352 19.9219 36.6211 19.5938 36.6211 18.6328L36.6211 16.7227C36.6211 16.5117 36.668 16.4648 36.9141 16.4648L37.5469 16.4648C37.7695 16.4648 37.8281 16.5117 37.8281 16.7227L37.8281 18.9961C37.8281 20.6367 36.5977 21.4805 34.4766 20.7305L27.3984 18.2344L27.1641 19.7695ZM27.4453 12.9609L30.832 11.1797C32.707 10.1953 33.1758 9.57422 33.1758 7.65234L33.1758 5.49609C33.1758 4.67578 32.707 4.20703 31.9102 4.20703L30.1641 4.20703C29.332 4.20703 28.875 4.67578 28.875 5.49609L28.875 6.96094C28.875 7.11328 28.793 7.26562 28.5703 7.38281L25.5469 9L26.332 10.3828L29.6133 8.67188C30.1758 8.39062 30.4102 8.14453 30.4102 7.27734L30.4102 5.8125C30.4102 5.60156 30.4688 5.55469 30.7031 5.55469L31.3477 5.55469C31.5703 5.55469 31.6289 5.60156 31.6289 5.8125L31.6289 7.40625C31.6289 8.73047 31.3594 9.09375 30.2461 9.69141L26.8477 11.5195ZM26.6836 3.16406L35.2969 3.16406C35.7188 3.16406 36.0117 2.80078 36.0117 2.41406C36.0117 2.02734 35.7188 1.65234 35.2969 1.65234L26.6836 1.65234C26.25 1.65234 25.9688 2.02734 25.9688 2.41406C25.9688 2.80078 26.25 3.16406 26.6836 3.16406ZM9.32812 14.0859C9.76172 14.0859 10.043 13.7109 10.043 13.3242C10.043 12.9375 9.76172 12.5625 9.32812 12.5625L0.714844 12.5625C0.292969 12.5625 0 12.9375 0 13.3242C0 13.7109 0.292969 14.0859 0.714844 14.0859ZM32.9414 14.0859L41.5547 14.0859C41.9766 14.0859 42.2695 13.7109 42.2695 13.3242C42.2695 12.9375 41.9766 12.5625 41.5547 12.5625L32.9414 12.5625C32.5078 12.5625 32.2266 12.9375 32.2266 13.3242C32.2266 13.7109 32.5078 14.0859 32.9414 14.0859ZM30.0469 4.73438L32.0273 4.73438L32.0273 1.64062C32.0273 1.08984 31.5938 0.632812 31.0195 0.632812C30.4805 0.632812 30.0469 1.08984 30.0469 1.64062ZM12.1992 4.73438L12.1992 1.64062C12.1992 1.08984 11.7656 0.632812 11.2031 0.632812C10.6523 0.632812 10.2188 1.08984 10.2188 1.64062L10.2188 4.73438ZM36.2461 15.5273L38.2266 15.5273L38.2266 12.4336C38.2266 11.8945 37.793 11.4258 37.2188 11.4258C36.6797 11.4258 36.2461 11.8945 36.2461 12.4336ZM6 15.5273L6 12.4336C6 11.8945 5.56641 11.4258 5.00391 11.4258C4.45312 11.4258 4.01953 11.8945 4.01953 12.4336L4.01953 15.5273Z" fill="black" fill-opacity="0.85"/>
 </g>
</svg>
