<?xml version="1.0" encoding="UTF-8"?>
<!--Generator: Apple Native CoreSVG 360-->
<!DOCTYPE svg
PUBLIC "-//W3C//DTD SVG 1.1//EN"
       "http://www.w3.org/Graphics/SVG/1.1/DTD/svg11.dtd">
<svg version="1.1" xmlns="http://www.w3.org/2000/svg" xmlns:xlink="http://www.w3.org/1999/xlink" viewBox="0 0 26.1094 19.0195">
 <g>
  <rect height="19.0195" opacity="0" width="26.1094" x="0" y="0"/>
  <path d="M3.67969 19.0195L22.0898 19.0195C24.5391 19.0195 25.7578 17.8008 25.7578 15.3867L25.7578 3.65625C25.7578 1.24219 24.5391 0.0234375 22.0898 0.0234375L3.67969 0.0234375C1.23047 0.0234375 0 1.24219 0 3.65625L0 15.3867C0 17.8008 1.23047 19.0195 3.67969 19.0195ZM3.70312 17.1328C2.53125 17.1328 1.88672 16.5 1.88672 15.2812L1.88672 3.76172C1.88672 2.54297 2.53125 1.91016 3.70312 1.91016L22.0547 1.91016C23.2148 1.91016 23.8711 2.54297 23.8711 3.76172L23.8711 15.2812C23.8711 16.5 23.2148 17.1328 22.0547 17.1328Z" fill="black" fill-opacity="0.85"/>
  <path d="M15.8086 7.25391C16.5586 7.25391 17.1797 6.63281 17.1797 5.88281C17.1797 5.13281 16.5586 4.51172 15.8086 4.51172C15.0469 4.51172 14.4375 5.13281 14.4375 5.88281C14.4375 6.63281 15.0469 7.25391 15.8086 7.25391ZM19.8398 7.25391C20.5898 7.25391 21.2109 6.63281 21.2109 5.88281C21.2109 5.13281 20.5898 4.51172 19.8398 4.51172C19.0898 4.51172 18.4688 5.13281 18.4688 5.88281C18.4688 6.63281 19.0898 7.25391 19.8398 7.25391ZM15.8086 10.875C16.5586 10.875 17.1797 10.2539 17.1797 9.50391C17.1797 8.75391 16.5586 8.13281 15.8086 8.13281C15.0469 8.13281 14.4375 8.75391 14.4375 9.50391C14.4375 10.2539 15.0469 10.875 15.8086 10.875ZM19.8398 10.875C20.5898 10.875 21.2109 10.2539 21.2109 9.50391C21.2109 8.75391 20.5898 8.13281 19.8398 8.13281C19.0898 8.13281 18.4688 8.75391 18.4688 9.50391C18.4688 10.2539 19.0898 10.875 19.8398 10.875ZM15.8086 14.4961C16.5586 14.4961 17.1797 13.875 17.1797 13.125C17.1797 12.375 16.5586 11.7539 15.8086 11.7539C15.0469 11.7539 14.4375 12.375 14.4375 13.125C14.4375 13.875 15.0469 14.4961 15.8086 14.4961ZM19.8398 14.4961C20.5898 14.4961 21.2109 13.875 21.2109 13.125C21.2109 12.375 20.5898 11.7539 19.8398 11.7539C19.0898 11.7539 18.4688 12.375 18.4688 13.125C18.4688 13.875 19.0898 14.4961 19.8398 14.4961ZM8.49609 14.2969C10.4648 14.2969 11.7891 13.0195 11.7891 11.1094C11.7891 10.1602 11.3906 9.31641 11.0977 8.68359C10.582 7.54688 9.72656 6.15234 8.98828 5.01562C8.84766 4.80469 8.69531 4.69922 8.49609 4.69922C8.29688 4.69922 8.14453 4.80469 8.00391 5.01562C7.27734 6.15234 6.42188 7.54688 5.89453 8.68359C5.60156 9.31641 5.20312 10.1602 5.20312 11.1094C5.20312 13.0195 6.52734 14.2969 8.49609 14.2969Z" fill="black" fill-opacity="0.85"/>
 </g>
</svg>
