<?xml version="1.0" encoding="UTF-8"?>
<!--Generator: Apple Native CoreSVG 360-->
<!DOCTYPE svg
PUBLIC "-//W3C//DTD SVG 1.1//EN"
       "http://www.w3.org/Graphics/SVG/1.1/DTD/svg11.dtd">
<svg version="1.1" xmlns="http://www.w3.org/2000/svg" xmlns:xlink="http://www.w3.org/1999/xlink" viewBox="0 0 26.0273 29.6721">
 <g>
  <rect height="29.6721" opacity="0" width="26.0273" x="0" y="0"/>
  <path d="M23.0039 5.32627L23.0039 16.2351C22.3846 16.0279 21.6888 16.1057 21.1172 16.4618L21.1172 10.1661L4.55859 10.1661L4.55859 24.3224C4.55859 24.8731 4.93359 25.2481 5.47266 25.2481L14.6679 25.2481C14.7382 25.4217 14.7773 25.5875 14.7773 25.7521C14.7773 25.9513 14.707 26.1153 14.5898 26.338C14.4396 26.5959 14.3497 26.8655 14.3136 27.1349L5.39062 27.1349C3.76172 27.1349 2.67188 26.0216 2.67188 24.3341L2.67188 5.32627C2.67188 3.63877 3.76172 2.52549 5.39062 2.52549L20.2969 2.52549C21.9141 2.52549 23.0039 3.63877 23.0039 5.32627ZM18.9492 13.7521L18.9492 16.1408C18.4903 16.1313 18.0296 16.263 17.6367 16.5356L17.6367 13.963C17.6367 13.67 17.4492 13.4825 17.168 13.4825L8.50781 13.4825C8.22656 13.4825 8.03906 13.67 8.03906 13.963L8.03906 21.4513C8.03906 21.7442 8.22656 21.9317 8.50781 21.9317L13.0693 21.9317C13.1958 22.4285 13.3681 22.8565 13.5544 23.2325L8.29688 23.2325C7.37109 23.2325 6.73828 22.5997 6.73828 21.6622L6.73828 13.7521C6.73828 12.8146 7.37109 12.1817 8.29688 12.1817L17.3789 12.1817C18.3047 12.1817 18.9492 12.8146 18.9492 13.7521ZM5.47266 4.41221C4.93359 4.41221 4.55859 4.77549 4.55859 5.33799L4.55859 8.63096L21.1172 8.63096L21.1172 5.33799C21.1172 4.77549 20.7539 4.41221 20.2031 4.41221ZM8.12109 6.52158C8.12109 7.08408 7.66406 7.55283 7.08984 7.55283C6.52734 7.55283 6.05859 7.08408 6.05859 6.52158C6.05859 5.94736 6.52734 5.49033 7.08984 5.49033C7.66406 5.49033 8.12109 5.94736 8.12109 6.52158ZM11.1094 6.52158C11.1094 7.08408 10.6523 7.55283 10.0781 7.55283C9.51562 7.55283 9.05859 7.08408 9.05859 6.52158C9.05859 5.94736 9.51562 5.49033 10.0781 5.49033C10.6523 5.49033 11.1094 5.94736 11.1094 6.52158ZM19.5938 6.52158C19.5938 6.87314 19.3594 7.10752 19.0078 7.10752L16.207 7.10752C15.8555 7.10752 15.6211 6.87314 15.6211 6.52158C15.6211 6.17002 15.8555 5.92393 16.207 5.92393L19.0078 5.92393C19.3594 5.92393 19.5938 6.17002 19.5938 6.52158Z" fill="black" fill-opacity="0.85"/>
  <path d="M16.0664 28.0958C16.4062 28.3302 16.9688 28.3185 17.2852 27.8028C17.625 27.1817 17.8242 26.4552 17.8242 25.7521C17.8242 23.1974 15.8672 21.9435 15.8672 20.0567C15.8672 19.5763 15.9609 19.2364 16.2539 18.7442C16.4883 18.3341 16.3008 17.9005 15.9844 17.7013C15.6328 17.4786 15.0938 17.5138 14.8125 18.006C14.4375 18.6153 14.2617 19.3419 14.2617 20.0567C14.2617 22.5646 16.207 23.8185 16.207 25.7521C16.207 26.2325 16.125 26.5489 15.832 27.0528C15.5859 27.4747 15.7969 27.9083 16.0664 28.0958ZM19.4531 28.0841C19.8281 28.3302 20.3789 28.295 20.6602 27.7911C21.0117 27.17 21.2109 26.4552 21.2109 25.7521C21.2109 23.1856 19.2539 21.9317 19.2539 20.045C19.2539 19.5763 19.3477 19.2364 19.6289 18.7325C19.875 18.3224 19.6758 17.9005 19.3594 17.7013C19.0078 17.4903 18.4688 17.5138 18.1875 17.9942C17.8242 18.6153 17.6484 19.3302 17.6484 20.045C17.6484 22.5646 19.5938 23.8067 19.5938 25.7521C19.5938 26.2208 19.5117 26.5372 19.2188 27.0411C18.9727 27.4747 19.1719 27.8966 19.4531 28.0841ZM22.8398 28.0724C23.2148 28.3185 23.7656 28.2833 24.0469 27.7794C24.3984 27.1583 24.5977 26.4435 24.5977 25.7403C24.5977 23.1739 22.6406 21.92 22.6406 20.0333C22.6406 19.5646 22.7344 19.2247 23.0156 18.7208C23.2617 18.3106 23.0625 17.8888 22.7461 17.6896C22.3945 17.4786 21.8555 17.5021 21.5742 17.9825C21.2109 18.6036 21.0352 19.3185 21.0352 20.0333C21.0352 22.5528 22.9805 23.795 22.9805 25.7403C22.9805 26.2091 22.8984 26.5255 22.6055 27.0294C22.3594 27.463 22.5586 27.8849 22.8398 28.0724Z" fill="black" fill-opacity="0.85"/>
 </g>
</svg>
