<?xml version="1.0" encoding="UTF-8"?>
<!--Generator: Apple Native CoreSVG 360-->
<!DOCTYPE svg
PUBLIC "-//W3C//DTD SVG 1.1//EN"
       "http://www.w3.org/Graphics/SVG/1.1/DTD/svg11.dtd">
<svg version="1.1" xmlns="http://www.w3.org/2000/svg" xmlns:xlink="http://www.w3.org/1999/xlink" viewBox="0 0 32.8945 23.4023">
 <g>
  <rect height="23.4023" opacity="0" width="32.8945" x="0" y="0"/>
  <path d="M8.48438 8.30859L10.3711 8.30859L10.3711 4.91016C10.3711 3.03516 11.8242 1.89844 14.0977 1.89844L18.4453 1.89844C20.7305 1.89844 22.1836 3.03516 22.1836 4.91016L22.1836 8.30859L24.0703 8.30859L24.0703 4.91016C24.0703 1.88672 21.8906 0.0117188 18.4453 0.0117188L14.0977 0.0117188C10.6641 0.0117188 8.48438 1.88672 8.48438 4.91016ZM3.91406 23.4023L28.6289 23.4023C31.0312 23.4023 32.543 21.9141 32.543 19.5469L32.543 12.8789C32.543 9.38672 30.1055 6.98438 26.5781 6.98438L5.96484 6.98438C2.4375 6.98438 0 9.38672 0 12.8789L0 19.5469C0 21.9141 1.51172 23.4023 3.91406 23.4023ZM3.9375 21.5156C2.67188 21.5156 1.88672 20.7188 1.88672 19.4531L1.88672 12.9727C1.88672 10.5352 3.55078 8.87109 5.98828 8.87109L26.5547 8.87109C28.9922 8.87109 30.6562 10.5352 30.6562 12.9727L30.6562 19.4531C30.6562 20.7188 29.8711 21.5156 28.6055 21.5156ZM6.87891 22.6055L8.41406 22.6055L8.41406 7.76953L6.87891 7.76953ZM10.4297 22.6055L11.9648 22.6055L11.9648 7.76953L10.4297 7.76953ZM20.5898 22.6055L22.125 22.6055L22.125 7.76953L20.5898 7.76953ZM24.1406 22.6055L25.6758 22.6055L25.6758 7.76953L24.1406 7.76953ZM11.1797 14.918L21.3398 14.918L21.3398 13.3828L11.1797 13.3828Z" fill="black" fill-opacity="0.85"/>
 </g>
</svg>
