<?xml version="1.0" encoding="UTF-8"?>
<!--Generator: Apple Native CoreSVG 360-->
<!DOCTYPE svg
PUBLIC "-//W3C//DTD SVG 1.1//EN"
       "http://www.w3.org/Graphics/SVG/1.1/DTD/svg11.dtd">
<svg version="1.1" xmlns="http://www.w3.org/2000/svg" xmlns:xlink="http://www.w3.org/1999/xlink" viewBox="0 0 30 17.3789">
 <g>
  <rect height="17.3789" opacity="0" width="30" x="0" y="0"/>
  <path d="M2.20312 14.7539L3.70312 14.7539L3.70312 13.1016L2.21484 13.1016C1.88672 13.1016 1.65234 12.8555 1.65234 12.5391L1.65234 4.81641C1.65234 4.48828 1.88672 4.23047 2.21484 4.23047L3.70312 4.23047L3.70312 2.57812L2.20312 2.57812C0.960938 2.57812 0 3.53906 0 4.78125L0 12.5625C0 13.793 0.960938 14.7539 2.20312 14.7539ZM6 17.3438L6.83203 17.3438C8.78906 17.3438 9.92578 16.1719 9.92578 14.1211L9.92578 3.24609C9.92578 1.19531 8.80078 0 6.85547 0L5.85938 0C4.05469 0 3.01172 1.19531 3.01172 3.24609L3.01172 14.1211C3.01172 16.1719 4.10156 17.3438 6 17.3438ZM6.02344 15.5742C5.25 15.5742 4.78125 15.0352 4.78125 14.1211L4.78125 3.24609C4.78125 2.32031 5.20312 1.76953 5.89453 1.76953L6.82031 1.76953C7.65234 1.76953 8.15625 2.32031 8.15625 3.24609L8.15625 14.1211C8.15625 15.0352 7.65234 15.5742 6.79688 15.5742ZM9.62109 7.71094L20.0273 7.71094L20.0273 5.94141L9.62109 5.94141ZM9.62109 11.3906L20.0273 11.3906L20.0273 9.62109L9.62109 9.62109ZM22.8164 17.3438L23.6484 17.3438C25.5469 17.3438 26.6367 16.1719 26.6367 14.1211L26.6367 3.24609C26.6367 1.19531 25.5938 0 23.7773 0L22.793 0C20.8359 0 19.7227 1.19531 19.7227 3.24609L19.7227 14.1211C19.7227 16.1719 20.8594 17.3438 22.8164 17.3438ZM22.8516 15.5742C21.9961 15.5742 21.4922 15.0352 21.4922 14.1211L21.4922 3.24609C21.4922 2.32031 21.9844 1.76953 22.8281 1.76953L23.7539 1.76953C24.4453 1.76953 24.8672 2.32031 24.8672 3.24609L24.8672 14.1211C24.8672 15.0352 24.3984 15.5742 23.625 15.5742ZM25.9453 14.7539L27.4453 14.7539C28.6875 14.7539 29.6484 13.793 29.6484 12.5625L29.6484 4.78125C29.6484 3.53906 28.6875 2.57812 27.4453 2.57812L25.9453 2.57812L25.9453 4.23047L27.4336 4.23047C27.75 4.23047 27.9961 4.48828 27.9961 4.81641L27.9961 12.5391C27.9961 12.8555 27.75 13.1016 27.4336 13.1016L25.9453 13.1016Z" fill="black" fill-opacity="0.85"/>
 </g>
</svg>
