<?xml version="1.0" encoding="UTF-8"?>
<!--Generator: Apple Native CoreSVG 360-->
<!DOCTYPE svg
PUBLIC "-//W3C//DTD SVG 1.1//EN"
       "http://www.w3.org/Graphics/SVG/1.1/DTD/svg11.dtd">
<svg version="1.1" xmlns="http://www.w3.org/2000/svg" xmlns:xlink="http://www.w3.org/1999/xlink" viewBox="0 0 21.9258 21.5742">
 <g>
  <rect height="21.5742" opacity="0" width="21.9258" x="0" y="0"/>
  <path d="M3.67969 21.5742L17.8945 21.5742C20.3555 21.5742 21.5742 20.3672 21.5742 17.9531L21.5742 3.63281C21.5742 1.21875 20.3555 0 17.8945 0L3.67969 0C1.23047 0 0 1.21875 0 3.63281L0 17.9531C0 20.3672 1.23047 21.5742 3.67969 21.5742ZM3.70312 19.6875C2.53125 19.6875 1.88672 19.0664 1.88672 17.8477L1.88672 3.73828C1.88672 2.51953 2.53125 1.88672 3.70312 1.88672L17.8711 1.88672C19.0312 1.88672 19.6875 2.51953 19.6875 3.73828L19.6875 17.8477C19.6875 19.0664 19.0312 19.6875 17.8711 19.6875Z" fill="black" fill-opacity="0.85"/>
  <path d="M8.09766 16.0195L13.6406 16.0195C14.0977 16.0195 14.4141 15.7266 14.4141 15.2578C14.4141 14.7773 14.0977 14.4844 13.6406 14.4844L9.04688 14.4844L9.04688 11.332L13.3359 11.332C13.793 11.332 14.1094 11.0742 14.1094 10.6172C14.1094 10.1367 13.793 9.86719 13.3359 9.86719L9.04688 9.86719L9.04688 6.87891L13.6406 6.87891C14.0977 6.87891 14.4141 6.57422 14.4141 6.10547C14.4141 5.625 14.0977 5.34375 13.6406 5.34375L8.09766 5.34375C7.48828 5.34375 7.18359 5.76562 7.18359 6.39844L7.18359 14.9648C7.18359 15.5977 7.48828 16.0195 8.09766 16.0195Z" fill="black" fill-opacity="0.85"/>
 </g>
</svg>
