<?xml version="1.0" encoding="UTF-8"?>
<!--Generator: Apple Native CoreSVG 360-->
<!DOCTYPE svg
PUBLIC "-//W3C//DTD SVG 1.1//EN"
       "http://www.w3.org/Graphics/SVG/1.1/DTD/svg11.dtd">
<svg version="1.1" xmlns="http://www.w3.org/2000/svg" xmlns:xlink="http://www.w3.org/1999/xlink" viewBox="0 0 18.5391 25.5117">
 <g>
  <rect height="25.5117" opacity="0" width="18.5391" x="0" y="0"/>
  <path d="M0.539062 19.6875C0.539062 22.9336 2.55469 24.9844 5.70703 24.9844C8.0625 24.9844 9.82031 23.9531 10.9336 21.9609L11.9883 20.0742C14.4609 15.5625 18.5391 14.9648 18.5391 9.16406C18.5391 3.66797 14.9883 0 9.66797 0C4.21875 0 0.539062 3.69141 0.539062 9.19922ZM2.30859 19.5703L2.30859 9.19922C2.30859 4.73438 5.25 1.76953 9.66797 1.76953C13.9336 1.76953 16.7695 4.73438 16.7695 9.16406C16.7695 14.0156 12.9609 14.8594 10.4062 19.2773L9.38672 21.0234C8.55469 22.4766 7.39453 23.168 5.78906 23.168C3.62109 23.168 2.30859 21.8086 2.30859 19.5703ZM4.80469 15.1641C5.28516 15.1641 5.69531 14.7539 5.69531 14.2734L5.69531 9.12891C5.69531 6.87891 7.26562 5.39062 9.65625 5.39062C11.9297 5.39062 13.3945 6.86719 13.3945 9.12891C13.3945 9.60938 13.793 10.0195 14.2734 10.0195C14.7539 10.0195 15.1641 9.60938 15.1641 9.12891C15.1641 5.83594 12.9609 3.62109 9.65625 3.62109C6.23438 3.62109 3.92578 5.83594 3.92578 9.12891L3.92578 14.2734C3.92578 14.7539 4.32422 15.1641 4.80469 15.1641ZM4.71094 11.6836L8.67188 11.6836C9.46875 11.6836 9.97266 12.1641 9.97266 12.8672C9.97266 13.2305 9.78516 13.7227 9.50391 14.0625L8.09766 15.832C7.94531 16.0312 7.86328 16.2422 7.86328 16.4648C7.86328 16.9453 8.27344 17.3438 8.75391 17.3438C9.02344 17.3438 9.28125 17.2031 9.48047 16.957L11.0039 15.0234C11.4844 14.4141 11.8008 13.5234 11.8008 12.7969C11.8008 11.0742 10.5469 9.91406 8.64844 9.91406L4.71094 9.91406Z" fill="black" fill-opacity="0.85"/>
 </g>
</svg>
