<?xml version="1.0" encoding="UTF-8"?>
<!--Generator: Apple Native CoreSVG 360-->
<!DOCTYPE svg
PUBLIC "-//W3C//DTD SVG 1.1//EN"
       "http://www.w3.org/Graphics/SVG/1.1/DTD/svg11.dtd">
<svg version="1.1" xmlns="http://www.w3.org/2000/svg" xmlns:xlink="http://www.w3.org/1999/xlink" viewBox="0 0 39.8438 20.7305">
 <g>
  <rect height="20.7305" opacity="0" width="39.8438" x="0" y="0"/>
  <path d="M10.3477 20.7305C10.9805 20.7305 11.4961 20.2266 11.4961 19.582C11.4961 18.9492 10.9805 18.4453 10.3477 18.4453C5.83594 18.4453 2.29688 14.8945 2.29688 10.3711C2.29688 5.84766 5.83594 2.30859 10.3477 2.30859C12.8789 2.30859 13.7812 4.81641 11.5312 6.22266L8.83594 7.89844C7.17188 8.94141 6.49219 10.2539 6.49219 11.4844C6.49219 13.4062 8.16797 15.082 10.3008 15.082C11.0977 15.082 11.9648 14.8477 12.8203 14.3086L16.043 12.293C18.0117 11.0508 18.8789 9.29297 18.8789 7.48828C18.8789 3.09375 15.3633 0.0117188 10.3477 0.0117188C4.54688 0.0117188 0 4.57031 0 10.3711C0 16.1719 4.54688 20.7305 10.3477 20.7305ZM29.1445 20.7305C34.9453 20.7305 39.4922 16.1719 39.4922 10.3711C39.4922 4.57031 34.9453 0.0117188 29.1445 0.0117188C24.1289 0.0117188 20.6133 3.09375 20.6133 7.48828C20.6133 9.29297 21.4805 11.0508 23.4492 12.293L26.6719 14.3086C27.5273 14.8477 28.3945 15.082 29.1914 15.082C31.3242 15.082 33 13.4062 33 11.4844C33 10.2539 32.332 8.94141 30.6562 7.89844L27.9609 6.22266C25.7109 4.81641 26.6133 2.30859 29.1445 2.30859C33.6562 2.30859 37.1953 5.84766 37.1953 10.3711C37.1953 14.8945 33.6562 18.4453 29.1445 18.4453C28.5117 18.4453 27.9961 18.9492 27.9961 19.582C27.9961 20.2266 28.5117 20.7305 29.1445 20.7305Z" fill="black" fill-opacity="0.85"/>
 </g>
</svg>
