<?xml version="1.0" encoding="UTF-8"?>
<!--Generator: Apple Native CoreSVG 360-->
<!DOCTYPE svg
PUBLIC "-//W3C//DTD SVG 1.1//EN"
       "http://www.w3.org/Graphics/SVG/1.1/DTD/svg11.dtd">
<svg version="1.1" xmlns="http://www.w3.org/2000/svg" xmlns:xlink="http://www.w3.org/1999/xlink" viewBox="0 0 37.875 15.5039">
 <g>
  <rect height="15.5039" opacity="0" width="37.875" x="0" y="0"/>
  <path d="M17.8945 6.36328C17.8945 9.82031 14.8477 12.6445 11.1211 12.6445C11.0752 12.6445 11.0293 12.6441 10.985 12.6381C11.5344 11.7464 11.8477 10.6962 11.8477 9.57422C11.8477 6.31641 9.1875 3.65625 5.91797 3.65625C5.5921 3.65625 5.27221 3.68287 4.9626 3.74096C6.03049 1.57937 8.3856 0.0703125 11.1211 0.0703125C14.8477 0.0703125 17.8945 2.90625 17.8945 6.36328ZM32.5588 3.74064C32.2498 3.68275 31.9306 3.65625 31.6055 3.65625C28.3359 3.65625 25.6758 6.31641 25.6758 9.57422C25.6758 10.6962 25.989 11.7464 26.5384 12.6381C26.4941 12.6441 26.4483 12.6445 26.4023 12.6445C22.6641 12.6445 19.6289 9.82031 19.6289 6.36328C19.6289 2.90625 22.6641 0.0703125 26.4023 0.0703125C29.1292 0.0703125 31.4881 1.57922 32.5588 3.74064Z" fill="black" fill-opacity="0.85"/>
  <path d="M5.91797 14.3672C8.56641 14.3672 10.7109 12.2227 10.7109 9.57422C10.7109 6.9375 8.56641 4.79297 5.91797 4.79297C3.28125 4.79297 1.13672 6.9375 1.13672 9.57422C1.13672 12.2227 3.28125 14.3672 5.91797 14.3672ZM3.5625 11.5898C2.97656 11.5898 2.49609 10.7109 2.49609 9.57422C2.49609 8.46094 2.97656 7.57031 3.5625 7.57031C4.16016 7.57031 4.62891 8.46094 4.62891 9.57422C4.62891 10.7109 4.16016 11.5898 3.5625 11.5898ZM31.6055 14.3672C34.2422 14.3672 36.3867 12.2227 36.3867 9.57422C36.3867 6.9375 34.2422 4.79297 31.6055 4.79297C28.957 4.79297 26.8008 6.9375 26.8008 9.57422C26.8008 12.2227 28.957 14.3672 31.6055 14.3672ZM33.9609 11.5898C33.3633 11.5898 32.8828 10.7109 32.8828 9.57422C32.8828 8.46094 33.3633 7.57031 33.9609 7.57031C34.5469 7.57031 35.0156 8.46094 35.0156 9.57422C35.0156 10.7109 34.5469 11.5898 33.9609 11.5898Z" fill="black" fill-opacity="0.425"/>
 </g>
</svg>
