<?xml version="1.0" encoding="UTF-8"?>
<!--Generator: Apple Native CoreSVG 360-->
<!DOCTYPE svg
PUBLIC "-//W3C//DTD SVG 1.1//EN"
       "http://www.w3.org/Graphics/SVG/1.1/DTD/svg11.dtd">
<svg version="1.1" xmlns="http://www.w3.org/2000/svg" xmlns:xlink="http://www.w3.org/1999/xlink" viewBox="0 0 19.2305 20.7305">
 <g>
  <rect height="20.7305" opacity="0" width="19.2305" x="0" y="0"/>
  <path d="M10.3477 20.7305C10.9805 20.7305 11.4961 20.2266 11.4961 19.582C11.4961 18.9492 10.9805 18.4453 10.3477 18.4453C5.83594 18.4453 2.29688 14.8945 2.29688 10.3711C2.29688 5.84766 5.83594 2.30859 10.3477 2.30859C12.8789 2.30859 13.7812 4.81641 11.5312 6.22266L8.83594 7.89844C7.17188 8.94141 6.49219 10.2539 6.49219 11.4844C6.49219 13.4062 8.16797 15.082 10.3008 15.082C11.0977 15.082 11.9648 14.8477 12.8203 14.3086L16.043 12.293C18.0117 11.0508 18.8789 9.29297 18.8789 7.48828C18.8789 3.09375 15.3633 0.0117188 10.3477 0.0117188C4.54688 0.0117188 0 4.57031 0 10.3711C0 16.1719 4.54688 20.7305 10.3477 20.7305Z" fill="black" fill-opacity="0.85"/>
 </g>
</svg>
