<?xml version="1.0" encoding="UTF-8"?>
<!--Generator: Apple Native CoreSVG 360-->
<!DOCTYPE svg
PUBLIC "-//W3C//DTD SVG 1.1//EN"
       "http://www.w3.org/Graphics/SVG/1.1/DTD/svg11.dtd">
<svg version="1.1" xmlns="http://www.w3.org/2000/svg" xmlns:xlink="http://www.w3.org/1999/xlink" viewBox="0 0 16.2773 23.1914">
 <g>
  <rect height="23.1914" opacity="0" width="16.2773" x="0" y="0"/>
  <path d="M14.8008 7.11328C14.8008 8.82422 14.0508 10.3594 12.7969 11.4609C12.7031 11.543 12.3164 11.9062 12.1641 12.082C11.543 12.7852 11.2852 13.5586 11.2852 14.5898L11.2852 20.707C11.2852 21.6328 10.6992 22.207 9.76172 22.207L8.54297 22.207C7.60547 22.207 7.03125 21.6328 7.03125 20.707L7.03125 14.5898C7.03125 13.5586 6.76172 12.7852 6.15234 12.082C6.04622 11.9596 5.82068 11.7461 5.66608 11.6004C8.42245 11.4732 10.3477 9.05743 10.3477 5.80078C10.3477 4.04921 9.78682 2.53938 8.83365 1.50427C8.93781 1.49126 9.04472 1.48828 9.15234 1.48828C12.3633 1.48828 14.8008 4.05469 14.8008 7.11328Z" fill="black" fill-opacity="0.85"/>
  <path d="M5.42578 10.4766C7.65234 10.4766 9.21094 8.55469 9.21094 5.80078C9.21094 3.05859 7.65234 1.13672 5.42578 1.13672C2.90625 1.13672 1.125 3.05859 1.125 5.80078C1.125 8.55469 2.90625 10.4766 5.42578 10.4766ZM3.55078 7.69922C2.96484 7.69922 2.49609 6.86719 2.49609 5.80078C2.49609 4.74609 2.96484 3.91406 3.55078 3.91406C4.16016 3.91406 4.62891 4.74609 4.62891 5.80078C4.62891 6.86719 4.16016 7.69922 3.55078 7.69922Z" fill="black" fill-opacity="0.425"/>
 </g>
</svg>
