<?xml version="1.0" encoding="UTF-8"?>
<!--Generator: Apple Native CoreSVG 360-->
<!DOCTYPE svg
PUBLIC "-//W3C//DTD SVG 1.1//EN"
       "http://www.w3.org/Graphics/SVG/1.1/DTD/svg11.dtd">
<svg version="1.1" xmlns="http://www.w3.org/2000/svg" xmlns:xlink="http://www.w3.org/1999/xlink" viewBox="0 0 19.8047 15.5039">
 <g>
  <rect height="15.5039" opacity="0" width="19.8047" x="0" y="0"/>
  <path d="M14.8525 3.74256C14.5396 3.68346 14.2162 3.65625 13.8867 3.65625C10.6172 3.65625 7.95703 6.31641 7.95703 9.57422C7.95703 10.6962 8.27029 11.7464 8.81966 12.6381C8.77535 12.6441 8.72953 12.6445 8.68359 12.6445C4.95703 12.6445 1.91016 9.82031 1.91016 6.36328C1.91016 2.90625 4.95703 0.0703125 8.68359 0.0703125C11.4198 0.0703125 13.7816 1.58012 14.8525 3.74256Z" fill="black" fill-opacity="0.85"/>
  <path d="M13.8867 14.3672C16.5234 14.3672 18.6797 12.2227 18.6797 9.57422C18.6797 6.9375 16.5234 4.79297 13.8867 4.79297C11.2383 4.79297 9.09375 6.9375 9.09375 9.57422C9.09375 12.2227 11.2383 14.3672 13.8867 14.3672ZM16.2539 11.5898C15.6445 11.5898 15.1758 10.7109 15.1758 9.57422C15.1758 8.46094 15.6445 7.57031 16.2539 7.57031C16.8398 7.57031 17.3086 8.46094 17.3086 9.57422C17.3086 10.7109 16.8398 11.5898 16.2539 11.5898Z" fill="black" fill-opacity="0.425"/>
 </g>
</svg>
