<?xml version="1.0" encoding="UTF-8"?>
<!--Generator: Apple Native CoreSVG 360-->
<!DOCTYPE svg
PUBLIC "-//W3C//DTD SVG 1.1//EN"
       "http://www.w3.org/Graphics/SVG/1.1/DTD/svg11.dtd">
<svg version="1.1" xmlns="http://www.w3.org/2000/svg" xmlns:xlink="http://www.w3.org/1999/xlink" viewBox="0 0 34.582 22.6758">
 <g>
  <rect height="22.6758" opacity="0" width="34.582" x="0" y="0"/>
  <path d="M16.2539 6.86719C16.2539 8.61328 15.4102 10.0664 14.2383 11.2031C14.0273 11.4141 13.8281 11.6133 13.6055 11.8242C12.9258 12.4922 12.7383 13.207 12.7383 14.332L12.7383 20.4492C12.7383 21.3984 12.1758 21.9492 11.2148 21.9492L9.99609 21.9492C9.03516 21.9492 8.47266 21.3984 8.47266 20.4492L8.47266 14.332C8.47266 13.3503 8.32988 12.681 7.8417 12.0826C10.2608 11.6575 11.5781 9.41083 11.5781 6.08203C11.5781 3.97775 11.0517 2.30589 10.0532 1.25311C10.1962 1.23644 10.3416 1.23047 10.4883 1.23047C13.957 1.23047 16.2539 3.46875 16.2539 6.86719ZM24.1819 1.25335C23.1824 2.30616 22.6523 3.97792 22.6523 6.08203C22.6523 9.4142 23.9818 11.6621 26.399 12.0838C25.9093 12.6818 25.7578 13.351 25.7578 14.332L25.7578 20.4492C25.7578 21.3984 25.1953 21.9492 24.2344 21.9492L23.0273 21.9492C22.0664 21.9492 21.5039 21.3984 21.5039 20.4492L21.5039 14.332C21.5039 13.207 21.3047 12.4922 20.625 11.8242C20.4141 11.6133 20.2031 11.4141 19.9922 11.2031C18.8203 10.0664 17.9883 8.61328 17.9883 6.86719C17.9883 3.46875 20.2734 1.23047 23.7422 1.23047C23.8904 1.23047 24.0374 1.23657 24.1819 1.25335Z" fill="black" fill-opacity="0.85"/>
  <path d="M1.13672 6.08203C1.13672 9.43359 4.44141 11.0273 6.96094 11.0273C9.21094 11.0273 10.4531 9.25781 10.4531 6.08203C10.4531 2.90625 9.21094 1.125 6.96094 1.125C4.44141 1.125 1.13672 2.73047 1.13672 6.08203ZM3.62109 8.08594C3.03516 8.08594 2.56641 7.19531 2.56641 6.08203C2.56641 4.95703 3.03516 4.07812 3.62109 4.07812C4.23047 4.07812 4.69922 4.95703 4.69922 6.08203C4.69922 7.19531 4.23047 8.08594 3.62109 8.08594ZM33.1055 6.08203C33.1055 2.73047 29.7891 1.125 27.2695 1.125C25.0312 1.125 23.7891 2.90625 23.7891 6.08203C23.7891 9.25781 25.0312 11.0273 27.2695 11.0273C29.7891 11.0273 33.1055 9.43359 33.1055 6.08203ZM30.6094 8.08594C30.0117 8.08594 29.5312 7.19531 29.5312 6.08203C29.5312 4.95703 30.0117 4.07812 30.6094 4.07812C31.1953 4.07812 31.6758 4.95703 31.6758 6.08203C31.6758 7.19531 31.1953 8.08594 30.6094 8.08594Z" fill="black" fill-opacity="0.425"/>
 </g>
</svg>
