<?xml version="1.0" encoding="UTF-8"?>
<!--Generator: Apple Native CoreSVG 360-->
<!DOCTYPE svg
PUBLIC "-//W3C//DTD SVG 1.1//EN"
       "http://www.w3.org/Graphics/SVG/1.1/DTD/svg11.dtd">
<svg version="1.1" xmlns="http://www.w3.org/2000/svg" xmlns:xlink="http://www.w3.org/1999/xlink" viewBox="0 0 17.0273 22.6758">
 <g>
  <rect height="22.6758" opacity="0" width="17.0273" x="0" y="0"/>
  <path d="M6.97876 1.25335C5.97932 2.30616 5.44922 3.97792 5.44922 6.08203C5.44922 9.40966 6.77505 11.6559 9.18596 12.0822C8.69752 12.6807 8.55469 13.3501 8.55469 14.332L8.55469 20.4492C8.55469 21.3984 7.99219 21.9492 7.03125 21.9492L5.8125 21.9492C4.85156 21.9492 4.28906 21.3984 4.28906 20.4492L4.28906 14.332C4.28906 13.207 4.10156 12.4922 3.42188 11.8242C3.21094 11.6133 3 11.4141 2.78906 11.2031C1.61719 10.0664 0.773438 8.61328 0.773438 6.86719C0.773438 3.46875 3.07031 1.23047 6.53906 1.23047C6.68727 1.23047 6.83429 1.23657 6.97876 1.25335Z" fill="black" fill-opacity="0.85"/>
  <path d="M15.9023 6.08203C15.9023 2.73047 12.5859 1.125 10.0664 1.125C7.81641 1.125 6.57422 2.90625 6.57422 6.08203C6.57422 9.25781 7.81641 11.0273 10.0664 11.0273C12.5859 11.0273 15.9023 9.43359 15.9023 6.08203ZM13.4062 8.08594C12.7969 8.08594 12.3281 7.19531 12.3281 6.08203C12.3281 4.95703 12.7969 4.07812 13.4062 4.07812C13.9922 4.07812 14.4609 4.95703 14.4609 6.08203C14.4609 7.19531 13.9922 8.08594 13.4062 8.08594Z" fill="black" fill-opacity="0.425"/>
 </g>
</svg>
