<?xml version="1.0" encoding="UTF-8"?>
<!--Generator: Apple Native CoreSVG 360-->
<!DOCTYPE svg
PUBLIC "-//W3C//DTD SVG 1.1//EN"
       "http://www.w3.org/Graphics/SVG/1.1/DTD/svg11.dtd">
<svg version="1.1" xmlns="http://www.w3.org/2000/svg" xmlns:xlink="http://www.w3.org/1999/xlink" viewBox="0 0 19.2305 20.7305">
 <g>
  <rect height="20.7305" opacity="0" width="19.2305" x="0" y="0"/>
  <path d="M8.53125 20.7305C14.332 20.7305 18.8789 16.1719 18.8789 10.3711C18.8789 4.57031 14.332 0.0117188 8.53125 0.0117188C3.51562 0.0117188 0 3.09375 0 7.48828C0 9.29297 0.867188 11.0508 2.84766 12.293L6.05859 14.3086C6.91406 14.8477 7.78125 15.082 8.57812 15.082C10.7109 15.082 12.3867 13.4062 12.3867 11.4844C12.3867 10.2539 11.7188 8.94141 10.043 7.89844L7.34766 6.22266C5.09766 4.81641 6 2.30859 8.53125 2.30859C13.043 2.30859 16.5938 5.84766 16.5938 10.3711C16.5938 14.8945 13.043 18.4453 8.53125 18.4453C7.89844 18.4453 7.39453 18.9492 7.39453 19.582C7.39453 20.2266 7.89844 20.7305 8.53125 20.7305Z" fill="black" fill-opacity="0.85"/>
 </g>
</svg>
