<?xml version="1.0" encoding="UTF-8"?>
<!--Generator: Apple Native CoreSVG 360-->
<!DOCTYPE svg
PUBLIC "-//W3C//DTD SVG 1.1//EN"
       "http://www.w3.org/Graphics/SVG/1.1/DTD/svg11.dtd">
<svg version="1.1" xmlns="http://www.w3.org/2000/svg" xmlns:xlink="http://www.w3.org/1999/xlink" viewBox="0 0 15.5742 23.1914">
 <g>
  <rect height="23.1914" opacity="0" width="15.5742" x="0" y="0"/>
  <path d="M6.73894 1.50419C5.78743 2.5393 5.22656 4.04916 5.22656 5.80078C5.22656 9.06148 7.15656 11.4792 9.90755 11.6009C9.75296 11.7467 9.52786 11.9597 9.42188 12.082C8.8125 12.7852 8.54297 13.5586 8.54297 14.5898L8.54297 20.707C8.54297 21.6328 7.96875 22.207 7.03125 22.207L5.8125 22.207C4.875 22.207 4.28906 21.6328 4.28906 20.707L4.28906 14.5898C4.28906 13.5586 4.03125 12.7852 3.41016 12.082C3.25781 11.9062 2.87109 11.543 2.77734 11.4609C1.52344 10.3594 0.773438 8.82422 0.773438 7.11328C0.773438 4.05469 3.21094 1.48828 6.42188 1.48828C6.52895 1.48828 6.63531 1.49123 6.73894 1.50419Z" fill="black" fill-opacity="0.85"/>
  <path d="M10.1367 10.4766C12.668 10.4766 14.4492 8.55469 14.4492 5.80078C14.4492 3.05859 12.668 1.13672 10.1367 1.13672C7.92188 1.13672 6.36328 3.05859 6.36328 5.80078C6.36328 8.55469 7.92188 10.4766 10.1367 10.4766ZM12.0234 7.69922C11.4141 7.69922 10.9453 6.86719 10.9453 5.80078C10.9453 4.74609 11.4141 3.91406 12.0234 3.91406C12.6094 3.91406 13.0781 4.74609 13.0781 5.80078C13.0781 6.86719 12.6094 7.69922 12.0234 7.69922Z" fill="black" fill-opacity="0.425"/>
 </g>
</svg>
