<?xml version="1.0" encoding="UTF-8"?>
<!--Generator: Apple Native CoreSVG 360-->
<!DOCTYPE svg
PUBLIC "-//W3C//DTD SVG 1.1//EN"
       "http://www.w3.org/Graphics/SVG/1.1/DTD/svg11.dtd">
<svg version="1.1" xmlns="http://www.w3.org/2000/svg" xmlns:xlink="http://www.w3.org/1999/xlink" viewBox="0 0 17.7305 22.6758">
 <g>
  <rect height="22.6758" opacity="0" width="17.7305" x="0" y="0"/>
  <path d="M16.2539 6.86719C16.2539 8.61328 15.4102 10.0664 14.2383 11.2031C14.0273 11.4141 13.8164 11.6133 13.6055 11.8242C12.9258 12.4922 12.7266 13.207 12.7266 14.332L12.7266 20.4492C12.7266 21.3984 12.1758 21.9492 11.2148 21.9492L9.99609 21.9492C9.03516 21.9492 8.47266 21.3984 8.47266 20.4492L8.47266 14.332C8.47266 13.3507 8.33 12.6815 7.83446 12.0833C10.2498 11.6602 11.5781 9.41282 11.5781 6.08203C11.5781 3.97792 11.048 2.30616 10.0486 1.25335C10.1931 1.23657 10.3401 1.23047 10.4883 1.23047C13.957 1.23047 16.2539 3.46875 16.2539 6.86719Z" fill="black" fill-opacity="0.85"/>
  <path d="M1.125 6.08203C1.125 9.43359 4.44141 11.0273 6.96094 11.0273C9.21094 11.0273 10.4531 9.25781 10.4531 6.08203C10.4531 2.90625 9.21094 1.125 6.96094 1.125C4.44141 1.125 1.125 2.73047 1.125 6.08203ZM3.62109 8.08594C3.03516 8.08594 2.56641 7.19531 2.56641 6.08203C2.56641 4.95703 3.03516 4.07812 3.62109 4.07812C4.21875 4.07812 4.69922 4.95703 4.69922 6.08203C4.69922 7.19531 4.21875 8.08594 3.62109 8.08594Z" fill="black" fill-opacity="0.425"/>
 </g>
</svg>
