<?xml version="1.0" encoding="UTF-8"?>
<!--Generator: Apple Native CoreSVG 360-->
<!DOCTYPE svg
PUBLIC "-//W3C//DTD SVG 1.1//EN"
       "http://www.w3.org/Graphics/SVG/1.1/DTD/svg11.dtd">
<svg version="1.1" xmlns="http://www.w3.org/2000/svg" xmlns:xlink="http://www.w3.org/1999/xlink" viewBox="0 0 31.6758 23.1914">
 <g>
  <rect height="23.1914" opacity="0" width="31.6758" x="0" y="0"/>
  <path d="M14.8008 7.11328C14.8008 8.82422 14.0625 10.3594 12.7969 11.4609C12.7148 11.543 12.3164 11.9062 12.1641 12.082C11.5547 12.7852 11.2852 13.5586 11.2852 14.5898L11.2852 20.707C11.2852 21.6328 10.7109 22.207 9.76172 22.207L8.55469 22.207C7.61719 22.207 7.03125 21.6328 7.03125 20.707L7.03125 14.5898C7.03125 13.5586 6.77344 12.7852 6.15234 12.082C6.0463 11.9597 5.82671 11.7465 5.67159 11.6007C8.43065 11.4768 10.3477 9.05986 10.3477 5.80078C10.3477 4.04933 9.79012 2.53958 8.84013 1.50448C8.94595 1.49134 9.05462 1.48828 9.16406 1.48828C12.375 1.48828 14.8008 4.05469 14.8008 7.11328ZM22.4906 1.50427C21.5374 2.53938 20.9766 4.04921 20.9766 5.80078C20.9766 9.05828 22.9028 11.4744 25.6603 11.6005C25.5084 11.7463 25.2861 11.9596 25.1719 12.082C24.5625 12.7852 24.3047 13.5586 24.3047 14.5898L24.3047 20.707C24.3047 21.6328 23.7188 22.207 22.7812 22.207L21.5625 22.207C20.625 22.207 20.0391 21.6328 20.0391 20.707L20.0391 14.5898C20.0391 13.5586 19.7812 12.7852 19.1719 12.082C19.0078 11.9062 18.6211 11.543 18.5273 11.4609C17.2734 10.3594 16.5352 8.82422 16.5352 7.11328C16.5352 4.05469 18.9609 1.48828 22.1719 1.48828C22.2795 1.48828 22.3864 1.49126 22.4906 1.50427Z" fill="black" fill-opacity="0.85"/>
  <path d="M5.4375 10.4766C7.65234 10.4766 9.22266 8.55469 9.22266 5.80078C9.22266 3.05859 7.65234 1.13672 5.4375 1.13672C2.91797 1.13672 1.13672 3.05859 1.13672 5.80078C1.13672 8.55469 2.91797 10.4766 5.4375 10.4766ZM3.5625 7.69922C2.96484 7.69922 2.49609 6.86719 2.49609 5.80078C2.49609 4.74609 2.96484 3.91406 3.5625 3.91406C4.16016 3.91406 4.62891 4.74609 4.62891 5.80078C4.62891 6.86719 4.16016 7.69922 3.5625 7.69922ZM25.8984 10.4766C28.418 10.4766 30.1992 8.55469 30.1992 5.80078C30.1992 3.05859 28.418 1.13672 25.8984 1.13672C23.6836 1.13672 22.1133 3.05859 22.1133 5.80078C22.1133 8.55469 23.6836 10.4766 25.8984 10.4766ZM27.7734 7.69922C27.1641 7.69922 26.6953 6.86719 26.6953 5.80078C26.6953 4.74609 27.1641 3.91406 27.7734 3.91406C28.3594 3.91406 28.8281 4.74609 28.8281 5.80078C28.8281 6.86719 28.3594 7.69922 27.7734 7.69922Z" fill="black" fill-opacity="0.425"/>
 </g>
</svg>
