<?xml version="1.0" encoding="UTF-8"?>
<!--Generator: Apple Native CoreSVG 360-->
<!DOCTYPE svg
PUBLIC "-//W3C//DTD SVG 1.1//EN"
       "http://www.w3.org/Graphics/SVG/1.1/DTD/svg11.dtd">
<svg version="1.1" xmlns="http://www.w3.org/2000/svg" xmlns:xlink="http://www.w3.org/1999/xlink" viewBox="0 0 28.1953 18.5977">
 <g>
  <rect height="18.5977" opacity="0" width="28.1953" x="0" y="0"/>
  <path d="M5.50781 18.5977L22.3359 18.5977C25.8398 18.5977 27.8438 16.7227 27.8438 13.4531L27.8438 7.08984C27.8438 2.32031 25.5352 0.0117188 20.7422 0.0117188L7.10156 0.0117188C2.32031 0.0117188 0 2.32031 0 7.08984L0 13.4531C0 16.7227 2.00391 18.5977 5.50781 18.5977ZM5.50781 16.7109C3.04688 16.7109 1.88672 15.6445 1.88672 13.4531L1.88672 7.08984C1.89844 3.50391 3.50391 1.89844 7.11328 1.89844L20.7422 1.89844C24.3516 1.89844 25.9688 3.50391 25.9688 7.08984L25.9688 13.4531C25.9688 15.6445 24.8086 16.7109 22.3359 16.7109ZM0.949219 8.22656L26.8945 8.22656L26.8945 6.80859L0.949219 6.80859ZM11.7305 11.6836L16.125 11.6836C16.6641 11.6836 17.0391 11.3086 17.0391 10.7695C17.0391 10.2422 16.6641 9.85547 16.125 9.85547L11.7305 9.85547C11.2148 9.85547 10.8047 10.2422 10.8047 10.7695C10.8047 11.3086 11.2148 11.6836 11.7305 11.6836Z" fill="black" fill-opacity="0.85"/>
 </g>
</svg>
