<?xml version="1.0" encoding="UTF-8"?>
<!--Generator: Apple Native CoreSVG 360-->
<!DOCTYPE svg
PUBLIC "-//W3C//DTD SVG 1.1//EN"
       "http://www.w3.org/Graphics/SVG/1.1/DTD/svg11.dtd">
<svg version="1.1" xmlns="http://www.w3.org/2000/svg" xmlns:xlink="http://www.w3.org/1999/xlink" viewBox="0 0 19.3711 15.5039">
 <g>
  <rect height="15.5039" opacity="0" width="19.3711" x="0" y="0"/>
  <path d="M17.8945 6.36328C17.8945 9.82031 14.8477 12.6445 11.1211 12.6445C11.0752 12.6445 11.0293 12.6441 10.985 12.6381C11.5344 11.7464 11.8477 10.6962 11.8477 9.57422C11.8477 6.31641 9.1875 3.65625 5.91797 3.65625C5.58848 3.65625 5.2651 3.68346 4.95217 3.74256C6.02308 1.58012 8.38492 0.0703125 11.1211 0.0703125C14.8477 0.0703125 17.8945 2.90625 17.8945 6.36328Z" fill="black" fill-opacity="0.85"/>
  <path d="M5.91797 14.3672C8.56641 14.3672 10.7109 12.2227 10.7109 9.57422C10.7109 6.9375 8.56641 4.79297 5.91797 4.79297C3.28125 4.79297 1.125 6.9375 1.125 9.57422C1.125 12.2227 3.28125 14.3672 5.91797 14.3672ZM3.55078 11.5898C2.96484 11.5898 2.49609 10.7109 2.49609 9.57422C2.49609 8.46094 2.96484 7.57031 3.55078 7.57031C4.16016 7.57031 4.62891 8.46094 4.62891 9.57422C4.62891 10.7109 4.16016 11.5898 3.55078 11.5898Z" fill="black" fill-opacity="0.425"/>
 </g>
</svg>
