<?xml version="1.0" encoding="UTF-8"?>
<!--Generator: Apple Native CoreSVG 360-->
<!DOCTYPE svg
PUBLIC "-//W3C//DTD SVG 1.1//EN"
       "http://www.w3.org/Graphics/SVG/1.1/DTD/svg11.dtd">
<svg version="1.1" xmlns="http://www.w3.org/2000/svg" xmlns:xlink="http://www.w3.org/1999/xlink" viewBox="0 0 29.0273 17.332">
 <g>
  <rect height="17.332" opacity="0" width="29.0273" x="0" y="0"/>
  <path d="M24.4336 17.2969C26.7188 17.2969 28.043 15.5039 28.5352 13.2891C28.6055 13.0312 28.6758 12.668 28.6758 12.3984C28.6758 11.9531 28.418 11.4961 27.7734 11.4961C27.3281 11.4961 26.9648 11.7891 26.8828 12.2109C26.625 13.7578 26.1094 15.4219 24.4219 15.4219C22.0664 15.4219 21.5859 10.9688 21.5859 8.625C21.5859 5.77734 22.1133 1.875 24.3984 1.875C25.9336 1.875 26.5781 3.49219 26.8594 5.01562C26.9883 5.54297 27.2812 5.87109 27.8086 5.87109C28.2891 5.87109 28.6758 5.54297 28.6758 4.94531C28.6758 4.6875 28.6289 4.40625 28.5703 4.17188C28.1133 1.95703 26.8008 0 24.3984 0C20.6367 0 19.5586 4.78125 19.5586 8.625C19.5586 12.457 20.625 17.2969 24.4336 17.2969Z" fill="black" fill-opacity="0.85"/>
  <path d="M13.9336 17.2031C14.6719 17.2031 15 16.6641 15 16.0078L15 1.25391L12.8555 1.25391L12.8555 16.0078C12.8555 16.7109 13.2305 17.2031 13.9336 17.2031ZM10.0781 2.14453L17.7539 2.14453C18.375 2.14453 18.8086 1.81641 18.8086 1.19531C18.8086 0.5625 18.375 0.234375 17.7539 0.234375L10.0781 0.234375C9.45703 0.234375 9.02344 0.5625 9.02344 1.19531C9.02344 1.81641 9.45703 2.14453 10.0781 2.14453Z" fill="black" fill-opacity="0.85"/>
  <path d="M0.984375 17.0391L6.29297 17.0391C6.89062 17.0391 7.3125 16.7109 7.3125 16.125C7.3125 15.5156 6.89062 15.2109 6.29297 15.2109L1.94531 15.2109L1.94531 9.28125L6.07031 9.28125C6.65625 9.28125 7.07812 8.96484 7.07812 8.39062C7.07812 7.80469 6.65625 7.48828 6.07031 7.48828L1.94531 7.48828L1.94531 2.07422L6.29297 2.07422C6.89062 2.07422 7.3125 1.75781 7.3125 1.16016C7.3125 0.5625 6.89062 0.234375 6.29297 0.234375L0.984375 0.234375C0.351562 0.234375 0 0.703125 0 1.30078L0 15.9727C0 16.582 0.363281 17.0391 0.984375 17.0391Z" fill="black" fill-opacity="0.85"/>
 </g>
</svg>
