<?xml version="1.0" encoding="UTF-8"?>
<!--Generator: Apple Native CoreSVG 360-->
<!DOCTYPE svg
PUBLIC "-//W3C//DTD SVG 1.1//EN"
       "http://www.w3.org/Graphics/SVG/1.1/DTD/svg11.dtd">
<svg version="1.1" xmlns="http://www.w3.org/2000/svg" xmlns:xlink="http://www.w3.org/1999/xlink" viewBox="0 0 23.707 21.5977">
 <g>
  <rect height="21.5977" opacity="0" width="23.707" x="0" y="0"/>
  <path d="M3.67969 21.5977L19.6875 21.5977C22.1367 21.5977 23.3555 20.3789 23.3555 17.9648L23.3555 3.65625C23.3555 1.24219 22.1367 0.0234375 19.6875 0.0234375L3.67969 0.0234375C1.23047 0.0234375 0 1.23047 0 3.65625L0 17.9648C0 20.3906 1.23047 21.5977 3.67969 21.5977ZM3.50391 19.7109C2.46094 19.7109 1.88672 19.1602 1.88672 18.0703L1.88672 7.01953C1.88672 5.94141 2.46094 5.37891 3.50391 5.37891L19.8398 5.37891C20.8828 5.37891 21.4688 5.94141 21.4688 7.01953L21.4688 18.0703C21.4688 19.1602 20.8828 19.7109 19.8398 19.7109Z" fill="black" fill-opacity="0.85"/>
  <path d="M17.1562 14.2383C18.0938 14.2383 18.8555 13.4766 18.8555 12.5391C18.8555 11.6016 18.0938 10.8398 17.1562 10.8398C16.2188 10.8398 15.457 11.6016 15.457 12.5391C15.457 13.4766 16.2188 14.2383 17.1562 14.2383Z" fill="black" fill-opacity="0.85"/>
  <path d="M11.6836 14.2383C12.6211 14.2383 13.3828 13.4766 13.3828 12.5391C13.3828 11.6016 12.6211 10.8398 11.6836 10.8398C10.7578 10.8398 9.98438 11.6016 9.98438 12.5391C9.98438 13.4766 10.7578 14.2383 11.6836 14.2383Z" fill="black" fill-opacity="0.85"/>
  <path d="M6.22266 14.2383C7.16016 14.2383 7.92188 13.4766 7.92188 12.5391C7.92188 11.6016 7.14844 10.8398 6.22266 10.8398C5.28516 10.8398 4.52344 11.6016 4.52344 12.5391C4.52344 13.4766 5.28516 14.2383 6.22266 14.2383Z" fill="black" fill-opacity="0.85"/>
 </g>
</svg>
