<?xml version="1.0" encoding="UTF-8"?>
<!--Generator: Apple Native CoreSVG 360-->
<!DOCTYPE svg
PUBLIC "-//W3C//DTD SVG 1.1//EN"
       "http://www.w3.org/Graphics/SVG/1.1/DTD/svg11.dtd">
<svg version="1.1" xmlns="http://www.w3.org/2000/svg" xmlns:xlink="http://www.w3.org/1999/xlink" viewBox="0 0 29.8008 24.2227">
 <g>
  <rect height="24.2227" opacity="0" width="29.8008" x="0" y="0"/>
  <path d="M0 12.1055C0 12.7852 0.386719 13.2656 1.19531 13.3945C2.64844 13.6172 3.22266 14.3555 3.22266 16.2422L3.22266 19.5352C3.22266 22.7227 4.67578 24.2227 7.83984 24.2227C8.02734 24.2227 8.22656 24.1875 8.36719 24.1406C8.73047 23.9883 8.92969 23.6953 8.92969 23.3086C8.92969 22.8516 8.73047 22.6172 8.32031 22.5117C8.20312 22.4883 8.08594 22.4648 7.94531 22.4531C5.97656 22.3125 5.26172 21.4688 5.26172 19.3008L5.26172 15.4102C5.26172 13.4297 4.21875 12.3281 2.39062 12.1523C2.35547 12.1523 2.35547 12.1055 2.39062 12.1055C4.21875 11.9297 5.26172 10.8281 5.26172 8.84766L5.26172 4.94531C5.26172 2.76562 5.97656 1.94531 7.94531 1.80469C8.13281 1.79297 8.29688 1.76953 8.41406 1.72266C8.75391 1.60547 8.92969 1.34766 8.92969 0.9375C8.92969 0.527344 8.71875 0.246094 8.32031 0.105469C8.14453 0.046875 7.95703 0.0234375 7.72266 0.0234375C4.66406 0.0234375 3.22266 1.54688 3.22266 4.71094L3.22266 8.01562C3.22266 9.87891 2.64844 10.6289 1.19531 10.8516C0.386719 10.9805 0 11.4375 0 12.1055ZM29.4492 12.1055C29.4492 11.4375 29.0508 10.9805 28.2422 10.8516C26.8008 10.6289 26.2148 9.87891 26.2148 8.01562L26.2148 4.71094C26.2148 1.54688 24.7734 0.0234375 21.7148 0.0234375C21.4805 0.0234375 21.3047 0.046875 21.1289 0.105469C20.7305 0.246094 20.5078 0.527344 20.5078 0.9375C20.5078 1.34766 20.6953 1.60547 21.0352 1.72266C21.1523 1.76953 21.3047 1.79297 21.4922 1.80469C23.4609 1.94531 24.1875 2.76562 24.1875 4.94531L24.1875 8.84766C24.1875 10.8281 25.2188 11.9297 27.0469 12.1055C27.082 12.1055 27.082 12.1523 27.0469 12.1523C25.2188 12.3281 24.1875 13.4297 24.1875 15.4102L24.1875 19.3008C24.1875 21.4688 23.4609 22.3125 21.4922 22.4531C21.3516 22.4648 21.2461 22.4883 21.1289 22.5117C20.7188 22.6172 20.5078 22.8516 20.5078 23.3086C20.5078 23.6953 20.7188 23.9883 21.082 24.1406C21.2227 24.1875 21.4102 24.2227 21.5977 24.2227C24.7617 24.2227 26.2148 22.7227 26.2148 19.5352L26.2148 16.2422C26.2148 14.3555 26.8008 13.6172 28.2422 13.3945C29.0508 13.2656 29.4492 12.7852 29.4492 12.1055Z" fill="black" fill-opacity="0.85"/>
  <path d="M20.1797 13.793C21.1172 13.793 21.8789 13.0312 21.8789 12.1055C21.8789 11.168 21.1172 10.4062 20.1797 10.4062C19.2422 10.4062 18.4805 11.168 18.4805 12.1055C18.4805 13.0312 19.2422 13.793 20.1797 13.793Z" fill="black" fill-opacity="0.85"/>
  <path d="M14.707 13.793C15.6445 13.793 16.4062 13.0312 16.4062 12.1055C16.4062 11.168 15.6445 10.4062 14.707 10.4062C13.7812 10.4062 13.0195 11.168 13.0195 12.1055C13.0195 13.0312 13.7812 13.793 14.707 13.793Z" fill="black" fill-opacity="0.85"/>
  <path d="M9.24609 13.793C10.1836 13.793 10.9453 13.0312 10.9453 12.1055C10.9453 11.168 10.1719 10.4062 9.24609 10.4062C8.30859 10.4062 7.54688 11.168 7.54688 12.1055C7.54688 13.0312 8.30859 13.793 9.24609 13.793Z" fill="black" fill-opacity="0.85"/>
 </g>
</svg>
