<?xml version="1.0" encoding="UTF-8"?>
<!--Generator: Apple Native CoreSVG 360-->
<!DOCTYPE svg
PUBLIC "-//W3C//DTD SVG 1.1//EN"
       "http://www.w3.org/Graphics/SVG/1.1/DTD/svg11.dtd">
<svg version="1.1" xmlns="http://www.w3.org/2000/svg" xmlns:xlink="http://www.w3.org/1999/xlink" viewBox="0 0 27.6094 24.5508">
 <g>
  <rect height="24.5508" opacity="0" width="27.6094" x="0" y="0"/>
  <path d="M13.6289 22.8164C21.5039 22.8164 27.2578 18.0117 27.2578 11.4023C27.2578 4.76953 21.4922 0 13.6289 0C5.75391 0 0 4.76953 0 11.4023C0 13.5938 0.644531 15.6328 1.76953 17.2852C2.32031 18.1055 2.51953 18.6797 2.51953 19.1602C2.51953 19.7812 2.33203 20.2852 1.79297 20.7539C0.867188 21.5391 1.34766 22.8164 2.56641 22.8164C4.03125 22.8164 5.66016 22.3125 6.86719 21.4805C8.84766 22.3477 11.1562 22.8164 13.6289 22.8164ZM13.6289 20.9297C11.3906 20.9297 9.38672 20.5078 7.6875 19.7461C6.9375 19.418 6.39844 19.5117 5.68359 19.9336C5.17969 20.25 4.59375 20.5195 3.99609 20.6484C4.24219 20.2383 4.40625 19.7695 4.40625 19.1602C4.40625 18.293 4.08984 17.3438 3.33984 16.2188C2.40234 14.8594 1.88672 13.207 1.88672 11.4023C1.88672 5.90625 6.73828 1.88672 13.6289 1.88672C20.5195 1.88672 25.3711 5.90625 25.3711 11.4023C25.3711 16.8984 20.5195 20.9297 13.6289 20.9297Z" fill="black" fill-opacity="0.85"/>
  <path d="M19.0898 13.0898C20.0273 13.0898 20.7891 12.3281 20.7891 11.3906C20.7891 10.4531 20.0273 9.69141 19.0898 9.69141C18.1523 9.69141 17.3906 10.4531 17.3906 11.3906C17.3906 12.3281 18.1523 13.0898 19.0898 13.0898Z" fill="black" fill-opacity="0.85"/>
  <path d="M13.6289 13.0898C14.5547 13.0898 15.3164 12.3281 15.3164 11.3906C15.3164 10.4531 14.5547 9.69141 13.6289 9.69141C12.6914 9.69141 11.9297 10.4531 11.9297 11.3906C11.9297 12.3281 12.6914 13.0898 13.6289 13.0898Z" fill="black" fill-opacity="0.85"/>
  <path d="M8.15625 13.0898C9.09375 13.0898 9.85547 12.3281 9.85547 11.3906C9.85547 10.4531 9.08203 9.69141 8.15625 9.69141C7.21875 9.69141 6.45703 10.4531 6.45703 11.3906C6.45703 12.3281 7.21875 13.0898 8.15625 13.0898Z" fill="black" fill-opacity="0.85"/>
 </g>
</svg>
