<?xml version="1.0" encoding="UTF-8"?>
<!--Generator: Apple Native CoreSVG 360-->
<!DOCTYPE svg
PUBLIC "-//W3C//DTD SVG 1.1//EN"
       "http://www.w3.org/Graphics/SVG/1.1/DTD/svg11.dtd">
<svg version="1.1" xmlns="http://www.w3.org/2000/svg" xmlns:xlink="http://www.w3.org/1999/xlink" viewBox="0 0 33.1641 22.5586">
 <g>
  <rect height="22.5586" opacity="0" width="33.1641" x="0" y="0"/>
  <path d="M27.5977 19.3359C27.5977 21.2461 26.3086 22.5586 24.5156 22.5586C22.7109 22.5586 21.4219 21.2578 21.1992 19.6289C21.1406 19.1602 21.3516 18.7148 21.8789 18.6797C22.3828 18.6445 22.6992 18.9961 22.7695 19.4297C22.9336 20.4141 23.5898 21.0352 24.5156 21.0352C25.4414 21.0352 26.0625 20.4141 26.0625 19.3359C26.0625 17.2617 23.0977 15.3867 18.0586 15.3867L17.2266 15.3867L17.2266 13.8516L18.0586 13.8516C23.9414 13.8516 27.5977 16.3008 27.5977 19.3359ZM2.10938 15.3867C1.69922 15.3867 1.34766 15.0352 1.34766 14.6133C1.34766 14.1914 1.69922 13.8516 2.10938 13.8516L7.61719 13.8516L7.61719 15.3867ZM32.8125 10.6992C32.8125 12.6914 31.2891 14.2266 29.1914 14.2266C26.2969 14.2266 25.0195 11.8828 19.043 11.8828L17.2266 11.8828L17.2266 10.3477L19.0898 10.3477C25.3711 10.3477 26.8242 12.6797 29.0859 12.6914C30.4805 12.7031 31.2773 11.7305 31.2773 10.6289C31.2773 9.35156 30.3516 8.61328 29.3086 8.61328C28.8281 8.61328 28.4414 8.77734 28.1367 9.04688C27.7969 9.29297 27.4336 9.36328 27.1172 9.10547C26.8125 8.87109 26.7891 8.34375 27.1641 8.02734C27.7266 7.48828 28.4766 7.13672 29.3086 7.13672C31.2188 7.13672 32.8125 8.44922 32.8125 10.6992ZM0.773438 11.8828C0.351562 11.8828 0 11.543 0 11.1094C0 10.6875 0.351562 10.3477 0.773438 10.3477L7.61719 10.3477L7.61719 11.8828ZM7.61719 8.37891L2.10938 8.37891C1.69922 8.37891 1.34766 8.03906 1.34766 7.61719C1.34766 7.19531 1.69922 6.84375 2.10938 6.84375L7.61719 6.84375ZM26.7305 4.32422C26.7305 6.72656 24.9609 8.37891 19.4062 8.37891L17.2266 8.37891L17.2266 6.84375L19.4531 6.84375C24.1523 6.84375 25.1953 5.78906 25.1953 4.32422C25.1953 3.23438 24.457 2.64844 23.4961 2.64844C22.7578 2.64844 22.1484 3.11719 21.8672 3.71484C21.5859 4.19531 21.1641 4.30078 20.7891 4.11328C20.3789 3.90234 20.2969 3.45703 20.4961 3.05859C20.9883 1.95703 22.1602 1.11328 23.4961 1.11328C25.3008 1.11328 26.7305 2.39062 26.7305 4.32422Z" fill="black" fill-opacity="0.85"/>
  <path d="M8.29688 3.46875L16.4766 3.46875C16.9336 3.46875 17.2969 3.10547 17.2969 2.64844C17.2969 2.19141 16.9336 1.81641 16.4766 1.81641L8.29688 1.81641C7.83984 1.81641 7.46484 2.19141 7.46484 2.64844C7.46484 3.10547 7.83984 3.46875 8.29688 3.46875ZM8.26172 20.7305L16.5117 20.7305C16.9688 20.7305 17.3438 20.3555 17.3438 19.8984C17.3438 19.4414 16.9688 19.0781 16.5117 19.0781L8.26172 19.0781C7.80469 19.0781 7.44141 19.4414 7.44141 19.8984C7.44141 20.3555 7.80469 20.7305 8.26172 20.7305ZM10.3242 17.5078C10.8633 17.5078 11.2969 17.0742 11.2969 16.5352C11.2969 15.9961 10.8633 15.5625 10.3242 15.5625C9.77344 15.5625 9.35156 15.9961 9.35156 16.5352C9.35156 17.0742 9.77344 17.5078 10.3242 17.5078ZM10.3242 14.0039C10.8633 14.0039 11.2969 13.5703 11.2969 13.0312C11.2969 12.4805 10.8633 12.0469 10.3242 12.0469C9.77344 12.0469 9.35156 12.4805 9.35156 13.0312C9.35156 13.5703 9.77344 14.0039 10.3242 14.0039ZM14.5195 17.5078C15.0586 17.5078 15.4922 17.0742 15.4922 16.5352C15.4922 15.9961 15.0586 15.5625 14.5195 15.5625C13.9688 15.5625 13.5469 15.9961 13.5469 16.5352C13.5469 17.0742 13.9805 17.5078 14.5195 17.5078ZM10.3242 10.4883C10.8633 10.4883 11.2969 10.0547 11.2969 9.51562C11.2969 8.97656 10.8633 8.54297 10.3242 8.54297C9.77344 8.54297 9.35156 8.97656 9.35156 9.51562C9.35156 10.0547 9.77344 10.4883 10.3242 10.4883ZM14.5195 14.0039C15.0586 14.0039 15.4922 13.5703 15.4922 13.0312C15.4922 12.4805 15.0586 12.0469 14.5195 12.0469C13.9688 12.0469 13.5469 12.4805 13.5469 13.0312C13.5469 13.5703 13.9805 14.0039 14.5195 14.0039ZM10.3242 6.98438C10.8633 6.98438 11.2969 6.55078 11.2969 6.01172C11.2969 5.47266 10.8633 5.02734 10.3242 5.02734C9.77344 5.02734 9.35156 5.47266 9.35156 6.01172C9.35156 6.55078 9.77344 6.98438 10.3242 6.98438ZM14.5195 10.4883C15.0586 10.4883 15.4922 10.0547 15.4922 9.51562C15.4922 8.97656 15.0586 8.54297 14.5195 8.54297C13.9688 8.54297 13.5469 8.97656 13.5469 9.51562C13.5469 10.0547 13.9805 10.4883 14.5195 10.4883ZM14.5195 6.98438C15.0586 6.98438 15.4922 6.55078 15.4922 6.01172C15.4922 5.47266 15.0586 5.02734 14.5195 5.02734C13.9688 5.02734 13.5469 5.47266 13.5469 6.01172C13.5469 6.55078 13.9805 6.98438 14.5195 6.98438Z" fill="black" fill-opacity="0.85"/>
 </g>
</svg>
