<?xml version="1.0" encoding="UTF-8"?>
<!--Generator: Apple Native CoreSVG 360-->
<!DOCTYPE svg
PUBLIC "-//W3C//DTD SVG 1.1//EN"
       "http://www.w3.org/Graphics/SVG/1.1/DTD/svg11.dtd">
<svg version="1.1" xmlns="http://www.w3.org/2000/svg" xmlns:xlink="http://www.w3.org/1999/xlink" viewBox="0 0 34.1133 21.3398">
 <g>
  <rect height="21.3398" opacity="0" width="34.1133" x="0" y="0"/>
  <path d="M12.7383 21.3281L24.1523 21.3281C25.6992 21.3281 26.625 20.4492 26.625 18.9141L26.625 16.7812C26.625 16.7227 26.6602 16.6992 26.707 16.6992L28.1016 16.6992C28.1602 16.6992 28.1836 16.7227 28.1836 16.7812L28.1836 18.0938C28.1836 19.418 29.0625 20.2266 30.4922 20.2266L31.4648 20.2266C32.8828 20.2266 33.7617 19.4297 33.7617 18.0938L33.7617 9.63281C33.7617 8.29688 32.8828 7.5 31.4648 7.5L30.4922 7.5C29.0625 7.5 28.1836 8.30859 28.1836 9.63281L28.1836 10.7227C28.1836 10.7695 28.1602 10.8047 28.1016 10.8047L26.707 10.8047C26.6602 10.8047 26.625 10.7695 26.625 10.7227L26.625 8.73047C26.625 7.27734 25.7227 6.39844 24.2227 6.39844L23.2969 6.39844L21.3281 4.25391C20.8711 3.75 20.4023 3.55078 19.8281 3.55078L10.7227 3.55078C10.1367 3.55078 9.66797 3.77344 9.21094 4.25391L7.24219 6.39844L5.95312 6.39844C4.47656 6.39844 3.5625 7.27734 3.5625 8.73047L3.5625 16.125C3.5625 17.5898 4.46484 18.4688 5.95312 18.4688L9.25781 18.4688L11.2383 20.625C11.6953 21.1172 12.1172 21.3281 12.7383 21.3281ZM12.9844 19.4414C12.75 19.4414 12.6797 19.4062 12.5273 19.2539L10.0781 16.582L5.96484 16.582C5.63672 16.582 5.44922 16.3945 5.44922 16.043L5.44922 8.82422C5.44922 8.47266 5.63672 8.28516 5.96484 8.28516L8.08594 8.28516L10.5117 5.64844C10.6641 5.47266 10.7461 5.4375 10.9453 5.4375L19.5938 5.4375C19.8047 5.4375 19.8984 5.47266 20.0391 5.64844L22.4766 8.28516L24.2109 8.28516C24.5391 8.28516 24.7383 8.48438 24.7383 8.82422L24.7383 12.1875C24.7383 12.5039 24.9258 12.6914 25.2305 12.6914L29.5898 12.6914C29.8945 12.6914 30.082 12.5039 30.082 12.1875L30.082 9.71484C30.082 9.50391 30.2227 9.38672 30.5156 9.38672L31.4531 9.38672C31.7344 9.38672 31.875 9.51562 31.875 9.71484L31.875 18C31.875 18.2109 31.7344 18.3398 31.4531 18.3398L30.5156 18.3398C30.2227 18.3398 30.082 18.2227 30.082 18L30.082 15.3047C30.082 14.9883 29.8945 14.8008 29.5898 14.8008L25.2305 14.8008C24.9258 14.8008 24.7383 14.9883 24.7383 15.3047L24.7383 18.8438C24.7383 19.2305 24.5391 19.4414 24.1406 19.4414ZM0.9375 17.0742C1.46484 17.0742 1.88672 16.6289 1.88672 16.125L1.88672 13.3828L4.38281 13.3828L4.38281 11.4961L1.88672 11.4961L1.88672 8.74219C1.88672 8.22656 1.45312 7.80469 0.9375 7.80469C0.421875 7.80469 0 8.23828 0 8.74219L0 16.125C0 16.6406 0.433594 17.0742 0.9375 17.0742ZM15.2344 4.73438L17.1328 4.73438L17.1328 1.88672L20.8125 1.88672C21.3281 1.88672 21.75 1.44141 21.75 0.9375C21.75 0.421875 21.3281 0 20.8125 0L11.5312 0C11.0156 0 10.5938 0.433594 10.5938 0.949219C10.5938 1.46484 11.0273 1.88672 11.5312 1.88672L15.2344 1.88672Z" fill="black" fill-opacity="0.85"/>
 </g>
</svg>
