<?xml version="1.0" encoding="UTF-8"?>
<!--Generator: Apple Native CoreSVG 360-->
<!DOCTYPE svg
PUBLIC "-//W3C//DTD SVG 1.1//EN"
       "http://www.w3.org/Graphics/SVG/1.1/DTD/svg11.dtd">
<svg version="1.1" xmlns="http://www.w3.org/2000/svg" xmlns:xlink="http://www.w3.org/1999/xlink" viewBox="0 0 32.2852 29.0039">
 <g>
  <rect height="29.0039" opacity="0" width="32.2852" x="0" y="0"/>
  <path d="M12.6328 24.5039C13.6875 25.6875 14.6602 26.1211 15.9609 26.1211C17.2734 26.1211 18.2461 25.6875 19.3008 24.5039C19.7109 24.0586 20.3672 24.0469 20.8008 24.5273C21.9375 25.7461 22.875 26.1211 24.1172 26.1211C25.4297 26.1211 26.4023 25.6875 27.4453 24.5039C27.8789 24.0586 28.5 24.0586 28.9102 24.5039C29.707 25.3828 30.4453 25.8633 31.3008 26.0391C31.6875 26.1211 31.9336 26.4258 31.9336 26.8125C31.9336 27.293 31.4766 27.6445 30.9844 27.5508C29.8594 27.3164 28.9336 26.7539 28.1836 25.9922C27.1758 27.0352 25.7578 27.6797 24.1172 27.6797C22.5352 27.6797 21.082 27.082 20.0625 25.9688C19.0781 27.0352 17.6133 27.6797 15.9609 27.6797C14.3086 27.6797 12.8555 27.0352 11.8711 25.9688C10.8516 27.082 9.38672 27.6797 7.81641 27.6797C6.25781 27.6797 4.78125 27.082 3.76172 25.9805C3.01172 26.7539 2.07422 27.3047 0.949219 27.5273C0.457031 27.6328 0 27.2695 0 26.7773C0 26.4141 0.257812 26.0859 0.621094 26.0273C1.47656 25.8398 2.21484 25.3594 3.02344 24.4922C3.43359 24.0469 4.04297 24.0469 4.48828 24.5156C5.63672 25.7461 6.58594 26.1211 7.81641 26.1211C9.04688 26.1211 9.99609 25.7461 11.1328 24.5039C11.5547 24.0469 12.2109 24.0469 12.6328 24.5039Z" fill="black" fill-opacity="0.85"/>
  <path d="M26.9414 20.5781C26.9414 22.1602 25.7812 23.4141 24.1758 23.4141C22.5938 23.4141 21.457 22.5469 21.2578 21.0234C21.1758 20.4609 21.3867 20.0273 21.9141 19.9922C22.418 19.957 22.7227 20.3086 22.793 20.7422C22.875 21.4453 23.3555 21.8906 24.1172 21.8906C24.9023 21.8906 25.3359 21.293 25.3359 20.5195C25.3359 18.4922 22.3828 17.2266 17.8359 17.2266L15.8676 17.2266C16.2467 16.7848 16.5436 16.2692 16.7399 15.6914L17.5312 15.6914C23.25 15.6914 26.9414 17.4844 26.9414 20.5781ZM7.75145 17.2266L2.00391 17.2266C1.59375 17.2266 1.23047 16.875 1.23047 16.4531C1.23047 16.0312 1.59375 15.6914 2.00391 15.6914L6.88348 15.6914C7.07876 16.2692 7.37424 16.7848 7.75145 17.2266ZM31.3125 12.2344C31.3125 14.2266 29.8008 15.7734 27.6914 15.7734C24.8086 15.7734 23.6367 13.7227 18.5859 13.7227L17.048 13.7227C17.0379 13.1894 16.949 12.6674 16.8254 12.1875L18.6328 12.1875C23.9883 12.1875 25.3242 14.2266 27.5859 14.2383C28.9805 14.25 29.7773 13.2656 29.7773 12.1641C29.7773 10.875 28.8516 10.1367 27.8203 10.1367C27.3281 10.1367 26.9414 10.3125 26.6484 10.582C26.3086 10.8281 25.9336 10.8984 25.6172 10.6406C25.3242 10.3945 25.3008 9.87891 25.6641 9.55078C26.2266 9.01172 26.9883 8.66016 27.8086 8.66016C29.7188 8.66016 31.3125 9.98438 31.3125 12.2344ZM6.57692 13.7227L2.00391 13.7227C1.59375 13.7227 1.23047 13.3828 1.23047 12.9609C1.23047 12.5391 1.59375 12.1875 2.00391 12.1875L6.79377 12.1875C6.6727 12.6666 6.58663 13.1882 6.57692 13.7227ZM5.37453 10.2305L2.00391 10.2305C1.59375 10.2305 1.23047 9.87891 1.23047 9.45703C1.23047 9.03516 1.59375 8.68359 2.00391 8.68359L3.55417 8.68359C3.97092 9.37869 4.59929 9.91488 5.37453 10.2305ZM25.2305 6.16406C25.2305 8.56641 23.4727 10.2305 17.9062 10.2305L16.1062 10.2305C15.8735 9.71816 15.5892 9.19753 15.2838 8.68359L17.9531 8.68359C22.6641 8.68359 23.6953 7.62891 23.6953 6.16406C23.6953 5.07422 22.9688 4.48828 21.9961 4.48828C21.2578 4.48828 20.6484 4.95703 20.3789 5.55469C20.0859 6.03516 19.6641 6.14062 19.3008 5.95312C18.8789 5.74219 18.8086 5.29688 18.9961 4.91016C19.4883 3.79688 20.6602 2.95312 21.9961 2.95312C23.8125 2.95312 25.2305 4.23047 25.2305 6.16406Z" fill="black" fill-opacity="0.85"/>
  <path d="M7.08984 8.95312C8.58984 8.95312 9.58594 7.98047 9.58594 6.50391C9.58594 5.77734 9.31641 5.03906 9.10547 4.57031C8.70703 3.67969 8.03906 2.73047 7.48828 1.875C7.35938 1.6875 7.21875 1.60547 7.08984 1.60547C6.92578 1.60547 6.79688 1.6875 6.67969 1.875C6.12891 2.73047 5.47266 3.67969 5.0625 4.57031C4.83984 5.03906 4.57031 5.77734 4.57031 6.50391C4.57031 7.98047 5.56641 8.95312 7.08984 8.95312ZM11.8008 17.3789C13.9922 17.3789 15.4453 15.9727 15.4453 13.8398C15.4453 12.7852 15.0352 11.7305 14.7188 11.0273C14.168 9.76172 13.2188 8.39062 12.3867 7.11328C12.2461 6.86719 12.0234 6.75 11.8008 6.75C11.6016 6.75 11.3906 6.86719 11.2383 7.11328C10.4062 8.39062 9.46875 9.76172 8.89453 11.0273C8.57812 11.7305 8.16797 12.7852 8.16797 13.8398C8.16797 15.9727 9.62109 17.3789 11.8008 17.3789Z" fill="black" fill-opacity="0.85"/>
 </g>
</svg>
