<?xml version="1.0" encoding="UTF-8"?>
<!--Generator: Apple Native CoreSVG 360-->
<!DOCTYPE svg
PUBLIC "-//W3C//DTD SVG 1.1//EN"
       "http://www.w3.org/Graphics/SVG/1.1/DTD/svg11.dtd">
<svg version="1.1" xmlns="http://www.w3.org/2000/svg" xmlns:xlink="http://www.w3.org/1999/xlink" viewBox="0 0 33.1641 22.5586">
 <g>
  <rect height="22.5586" opacity="0" width="33.1641" x="0" y="0"/>
  <path d="M27.5977 19.3359C27.5977 21.2461 26.3086 22.5586 24.5156 22.5586C22.7109 22.5586 21.4219 21.2578 21.1992 19.6289C21.1406 19.1602 21.3516 18.7148 21.8789 18.6797C22.3828 18.6445 22.6992 18.9961 22.7695 19.4297C22.9336 20.4141 23.5898 21.0352 24.5156 21.0352C25.4414 21.0352 26.0625 20.4141 26.0625 19.3359C26.0625 17.2617 23.0977 15.3867 18.0586 15.3867L15.7031 15.3867L15.7031 13.8516L18.0586 13.8516C23.9414 13.8516 27.5977 16.3008 27.5977 19.3359ZM2.10938 15.3867C1.69922 15.3867 1.34766 15.0352 1.34766 14.6133C1.34766 14.1914 1.69922 13.8516 2.10938 13.8516L9.15234 13.8516L9.15234 15.3867ZM32.8125 10.6992C32.8125 12.6914 31.2891 14.2266 29.1914 14.2266C26.2969 14.2266 25.0195 11.8828 19.043 11.8828L15.7031 11.8828L15.7031 10.3477L19.0898 10.3477C25.3711 10.3477 26.8242 12.6797 29.0859 12.6914C30.4805 12.7031 31.2773 11.7305 31.2773 10.6289C31.2773 9.35156 30.3516 8.61328 29.3086 8.61328C28.8281 8.61328 28.4414 8.77734 28.1367 9.04688C27.7969 9.29297 27.4336 9.36328 27.1172 9.10547C26.8125 8.87109 26.7891 8.34375 27.1641 8.02734C27.7266 7.48828 28.4766 7.13672 29.3086 7.13672C31.2188 7.13672 32.8125 8.44922 32.8125 10.6992ZM0.773438 11.8828C0.351562 11.8828 0 11.543 0 11.1094C0 10.6875 0.351562 10.3477 0.773438 10.3477L9.15234 10.3477L9.15234 11.8828ZM9.15234 8.37891L2.10938 8.37891C1.69922 8.37891 1.34766 8.03906 1.34766 7.61719C1.34766 7.19531 1.69922 6.84375 2.10938 6.84375L9.15234 6.84375ZM26.7305 4.32422C26.7305 6.72656 24.9609 8.37891 19.4062 8.37891L15.7031 8.37891L15.7031 6.84375L19.4531 6.84375C24.1523 6.84375 25.1953 5.78906 25.1953 4.32422C25.1953 3.23438 24.457 2.64844 23.4961 2.64844C22.7578 2.64844 22.1484 3.11719 21.8672 3.71484C21.5859 4.19531 21.1641 4.30078 20.7891 4.11328C20.3789 3.90234 20.2969 3.45703 20.4961 3.05859C20.9883 1.95703 22.1602 1.11328 23.4961 1.11328C25.3008 1.11328 26.7305 2.39062 26.7305 4.32422Z" fill="black" fill-opacity="0.85"/>
  <path d="M12.4219 19.1367C13.2656 19.1367 13.957 18.457 13.957 17.6602C13.957 16.8516 13.2773 16.1836 12.4219 16.1836C11.5781 16.1836 10.8867 16.8516 10.8867 17.6602C10.8867 18.457 11.5898 19.1367 12.4219 19.1367ZM12.4219 13.9336C12.9961 13.9336 13.4062 13.5352 13.4297 12.9375L13.6758 4.64062C13.6992 3.89062 13.1953 3.38672 12.4219 3.38672C11.6484 3.38672 11.1562 3.89062 11.1797 4.64062L11.4258 12.9375C11.4492 13.5352 11.8477 13.9336 12.4219 13.9336Z" fill="black" fill-opacity="0.85"/>
 </g>
</svg>
