<?xml version="1.0" encoding="UTF-8"?>
<!--Generator: Apple Native CoreSVG 360-->
<!DOCTYPE svg
PUBLIC "-//W3C//DTD SVG 1.1//EN"
       "http://www.w3.org/Graphics/SVG/1.1/DTD/svg11.dtd">
<svg version="1.1" xmlns="http://www.w3.org/2000/svg" xmlns:xlink="http://www.w3.org/1999/xlink" viewBox="0 0 21.0586 24.6211">
 <g>
  <rect height="24.6211" opacity="0" width="21.0586" x="0" y="0"/>
  <path d="M18.5742 3.63281L18.5742 15.4219L16.6875 15.4219L16.6875 3.72656C16.6875 2.50781 16.0312 1.88672 14.8711 1.88672L5.83594 1.88672C4.66406 1.88672 4.00781 2.50781 4.00781 3.72656L4.00781 20.8477C4.00781 22.0664 4.66406 22.6875 5.83594 22.6875L14.8711 22.6875C16.0312 22.6875 16.6875 22.0664 16.6875 20.8477L16.6875 20.3789L18.5742 20.3789L18.5742 20.9414C18.5742 23.3555 17.3555 24.5742 14.9062 24.5742L5.80078 24.5742C3.36328 24.5742 2.12109 23.3672 2.12109 20.9414L2.12109 3.63281C2.12109 1.20703 3.36328 0 5.80078 0L14.9062 0C17.3555 0 18.5742 1.21875 18.5742 3.63281Z" fill="black" fill-opacity="0.85"/>
  <path d="M8.17969 11.4609C8.17969 12.2461 7.55859 12.8672 6.78516 12.8672C6.01172 12.8672 5.39062 12.2461 5.39062 11.4609C5.39062 10.6992 6.01172 10.0664 6.78516 10.0664C7.55859 10.0664 8.17969 10.6992 8.17969 11.4609ZM11.7539 11.4609C11.7539 12.2461 11.1445 12.8672 10.3477 12.8672C9.57422 12.8672 8.96484 12.2461 8.96484 11.4609C8.96484 10.6992 9.57422 10.0664 10.3477 10.0664C11.1445 10.0664 11.7539 10.6992 11.7539 11.4609ZM15.3164 11.4609C15.3164 12.2461 14.707 12.8672 13.9336 12.8672C13.1484 12.8672 12.5391 12.2461 12.5391 11.4609C12.5391 10.6992 13.1484 10.0664 13.9336 10.0664C14.707 10.0664 15.3164 10.6992 15.3164 11.4609ZM8.17969 8.02734C8.17969 8.80078 7.55859 9.42188 6.78516 9.42188C6.01172 9.42188 5.39062 8.80078 5.39062 8.02734C5.39062 7.24219 6.01172 6.62109 6.78516 6.62109C7.55859 6.62109 8.17969 7.24219 8.17969 8.02734ZM11.7539 8.02734C11.7539 8.80078 11.1445 9.42188 10.3477 9.42188C9.57422 9.42188 8.96484 8.80078 8.96484 8.02734C8.96484 7.24219 9.57422 6.62109 10.3477 6.62109C11.1445 6.62109 11.7539 7.24219 11.7539 8.02734ZM15.3164 8.02734C15.3164 8.80078 14.707 9.42188 13.9336 9.42188C13.1484 9.42188 12.5391 8.80078 12.5391 8.02734C12.5391 7.24219 13.1484 6.62109 13.9336 6.62109C14.707 6.62109 15.3164 7.24219 15.3164 8.02734ZM8.17969 4.60547C8.17969 5.35547 7.55859 5.98828 6.78516 5.98828C6.01172 5.98828 5.39062 5.35547 5.39062 4.60547C5.39062 3.82031 6.01172 3.19922 6.78516 3.19922C7.55859 3.19922 8.17969 3.82031 8.17969 4.60547ZM11.7539 4.60547C11.7539 5.35547 11.1445 5.98828 10.3477 5.98828C9.57422 5.98828 8.96484 5.35547 8.96484 4.60547C8.96484 3.82031 9.57422 3.19922 10.3477 3.19922C11.1445 3.19922 11.7539 3.82031 11.7539 4.60547ZM15.3164 4.60547C15.3164 5.35547 14.707 5.98828 13.9336 5.98828C13.1484 5.98828 12.5391 5.35547 12.5391 4.60547C12.5391 3.82031 13.1484 3.19922 13.9336 3.19922C14.707 3.19922 15.3164 3.82031 15.3164 4.60547Z" fill="black" fill-opacity="0.85"/>
  <path d="M10.3477 21.3516C12.2695 21.3516 13.8047 19.8164 13.8047 17.9062C13.8047 16.0078 12.2695 14.4727 10.3477 14.4727C8.4375 14.4727 6.90234 16.0078 6.90234 17.9062C6.90234 19.8164 8.4375 21.3516 10.3477 21.3516ZM10.5586 19.2539L18.5742 19.2539C19.3125 19.2539 19.9219 18.6562 19.9219 17.9062C19.9219 17.1562 19.3125 16.5586 18.5742 16.5586L10.5586 16.5586C9.82031 16.5586 9.21094 17.1562 9.21094 17.9062C9.21094 18.6562 9.82031 19.2539 10.5586 19.2539Z" fill="black" fill-opacity="0.85"/>
 </g>
</svg>
