<?xml version="1.0" encoding="UTF-8"?>
<!--Generator: Apple Native CoreSVG 360-->
<!DOCTYPE svg
PUBLIC "-//W3C//DTD SVG 1.1//EN"
       "http://www.w3.org/Graphics/SVG/1.1/DTD/svg11.dtd">
<svg version="1.1" xmlns="http://www.w3.org/2000/svg" xmlns:xlink="http://www.w3.org/1999/xlink" viewBox="0 0 28.6289 31.1777">
 <g>
  <rect height="31.1777" opacity="0" width="28.6289" x="0" y="0"/>
  <path d="M3.67969 26.9033L24.9492 26.9033C27.0469 26.9033 28.2773 25.6846 28.2773 23.2705L28.2773 11.3994C28.2773 9.71191 27.9727 8.8916 26.8008 8.08301L16.4883 0.922852C14.7188-0.307617 13.5117-0.307617 11.7422 0.922852L1.46484 8.08301C0.304688 8.8916 0 9.71191 0 11.3994L0 23.2705C0 25.6846 1.24219 26.9033 3.67969 26.9033ZM3.60938 25.1104C2.44922 25.1104 1.79297 24.4775 1.79297 23.2705L1.79297 11.083C1.79297 10.2393 1.99219 9.79395 2.57812 9.39551L12.9961 2.21191C13.8281 1.6377 14.4023 1.6377 15.2227 2.21191L25.6992 9.39551C26.2852 9.79395 26.4844 10.2393 26.4844 11.083L26.4844 23.2822C26.4844 24.4775 25.8164 25.1104 24.6562 25.1104ZM14.1328 14.1885C13.3828 14.1885 12.6562 14.4814 11.9883 15.0908L0.960938 25.0166L2.17969 26.2354L13.0078 16.4736C13.3711 16.1572 13.7461 15.9932 14.1328 15.9932C14.5195 15.9932 14.8945 16.1572 15.2578 16.4736L26.0859 26.2354L27.3047 25.0166L16.2773 15.0908C15.6094 14.4814 14.8828 14.1885 14.1328 14.1885ZM2.22656 8.80957L1.00781 10.0283L9.32812 18.3486L10.5469 17.1416ZM26.0625 8.79785L17.7188 17.1416L18.9492 18.3486L27.2812 10.0166Z" fill="black" fill-opacity="0.85"/>
 </g>
</svg>
