<?xml version="1.0" encoding="UTF-8"?>
<!--Generator: Apple Native CoreSVG 360-->
<!DOCTYPE svg
PUBLIC "-//W3C//DTD SVG 1.1//EN"
       "http://www.w3.org/Graphics/SVG/1.1/DTD/svg11.dtd">
<svg version="1.1" xmlns="http://www.w3.org/2000/svg" xmlns:xlink="http://www.w3.org/1999/xlink" viewBox="0 0 28.6289 20.2148">
 <g>
  <rect height="20.2148" opacity="0" width="28.6289" x="0" y="0"/>
  <path d="M3.67969 20.2148L24.9492 20.2148C27.0469 20.2148 28.2773 18.9961 28.2773 16.582L28.2773 3.64453C28.2773 1.23047 27.0352 0.0117188 24.5977 0.0117188L3.32812 0.0117188C1.23047 0.0117188 0 1.23047 0 3.64453L0 16.582C0 18.9961 1.24219 20.2148 3.67969 20.2148ZM3.60938 18.4219C2.44922 18.4219 1.79297 17.7773 1.79297 16.5703L1.79297 3.63281C1.79297 2.4375 2.44922 1.80469 3.60938 1.80469L24.6562 1.80469C25.8164 1.80469 26.4844 2.4375 26.4844 3.64453L26.4844 16.582C26.4844 17.7773 25.8164 18.4219 24.6562 18.4219Z" fill="black" fill-opacity="0.85"/>
  <path d="M20.6953 7.6875L23.6719 7.6875C24.1992 7.6875 24.5859 7.30078 24.5859 6.78516L24.5859 4.60547C24.5859 4.08984 24.1992 3.70312 23.6719 3.70312L20.6953 3.70312C20.1797 3.70312 19.793 4.08984 19.793 4.60547L19.793 6.78516C19.793 7.30078 20.1797 7.6875 20.6953 7.6875Z" fill="black" fill-opacity="0.85"/>
  <path d="M9.63281 12.1289L18.6328 12.1289C19.043 12.1289 19.3711 11.8125 19.3711 11.4023C19.3711 11.0039 19.043 10.6758 18.6328 10.6758L9.63281 10.6758C9.23438 10.6758 8.90625 11.0039 8.90625 11.4023C8.90625 11.8125 9.23438 12.1289 9.63281 12.1289Z" fill="black" fill-opacity="0.85"/>
  <path d="M9.63281 15.2227L16.4414 15.2227C16.8516 15.2227 17.168 14.8945 17.168 14.4844C17.168 14.0859 16.8516 13.7695 16.4414 13.7695L9.63281 13.7695C9.23438 13.7695 8.90625 14.0859 8.90625 14.4844C8.90625 14.8945 9.23438 15.2227 9.63281 15.2227Z" fill="black" fill-opacity="0.85"/>
 </g>
</svg>
