<?xml version="1.0" encoding="UTF-8"?>
<!--Generator: Apple Native CoreSVG 360-->
<!DOCTYPE svg
PUBLIC "-//W3C//DTD SVG 1.1//EN"
       "http://www.w3.org/Graphics/SVG/1.1/DTD/svg11.dtd">
<svg version="1.1" xmlns="http://www.w3.org/2000/svg" xmlns:xlink="http://www.w3.org/1999/xlink" viewBox="0 0 43.043 27.082">
 <g>
  <rect height="27.082" opacity="0" width="43.043" x="0" y="0"/>
  <path d="M35.2191 5.40922C34.7905 5.03948 34.2341 4.83984 33.6445 4.83984C33.1376 4.83984 32.6658 5.00097 32.2861 5.26782C32.1571 5.24817 32.02 5.23828 31.875 5.23828L10.8281 5.23828C10.5983 5.23828 10.3877 5.26312 10.1987 5.31328L20.2266 14.3438C20.5781 14.6719 20.9531 14.8242 21.3398 14.8242C21.7266 14.8242 22.1133 14.6719 22.4648 14.3438L25.6406 11.4807L25.6406 14.6496L25.1933 14.2017L23.4844 15.7383C22.8164 16.3477 22.1016 16.6289 21.3398 16.6289C20.5898 16.6289 19.8633 16.3477 19.1953 15.7383L17.4993 14.2117L9.9977 21.7132C10.235 21.8081 10.5135 21.8555 10.8281 21.8555L26.0103 21.8555C26.2007 22.5114 26.4688 23.1115 26.8076 23.6484L10.8867 23.6484C8.44922 23.6484 7.20703 22.4297 7.20703 20.0156L7.20703 7.07812C7.20703 4.66406 8.4375 3.44531 10.5352 3.44531L31.8047 3.44531C33.5941 3.44531 34.7394 4.10215 35.2191 5.40922ZM9 7.06641L9 20.0039C9 20.0896 9.00337 20.1725 9.01094 20.2517L16.2161 13.0567L9.04039 6.59777C9.01316 6.74194 9 6.89863 9 7.06641Z" fill="black" fill-opacity="0.85"/>
  <path d="M33.3281 25.4766C36.1758 25.4766 37.9219 24.293 39.0938 21.9258C39.7734 20.6133 40.3125 19.0312 40.8633 17.1914C41.0977 16.4297 41.4375 15.4805 41.4375 15.0586C41.4375 14.5664 41.0859 14.25 40.582 14.25C40.0078 14.25 39.6797 14.6133 39.2578 15.457L38.0391 18.0586C37.8984 18.3398 37.7578 18.4453 37.6172 18.4453C37.4414 18.4453 37.3125 18.3398 37.3125 18.0234L37.3125 8.68359C37.3125 8.15625 36.8789 7.72266 36.3516 7.72266C35.8359 7.72266 35.3906 8.15625 35.3906 8.68359L35.3906 15.3633C35.1562 15.2695 34.8867 15.1992 34.6172 15.1523L34.6172 7.40625C34.6172 6.87891 34.1719 6.44531 33.6445 6.44531C33.1289 6.44531 32.6953 6.87891 32.6953 7.40625L32.6953 15.0586C32.4141 15.0703 32.1211 15.1055 31.8633 15.1641L31.8633 8.15625C31.8633 7.62891 31.4297 7.19531 30.9023 7.19531C30.375 7.19531 29.9414 7.62891 29.9414 8.15625L29.9414 15.7617C29.6484 15.9023 29.4023 16.0664 29.1445 16.2305L29.1445 10.9336C29.1445 10.4062 28.7227 9.97266 28.1953 9.97266C27.668 9.97266 27.2344 10.4062 27.2344 10.9336L27.2344 19.2305C27.2344 23.1562 29.8008 25.4766 33.3281 25.4766Z" fill="black" fill-opacity="0.85"/>
 </g>
</svg>
