<?xml version="1.0" encoding="UTF-8"?>
<!--Generator: Apple Native CoreSVG 360-->
<!DOCTYPE svg
PUBLIC "-//W3C//DTD SVG 1.1//EN"
       "http://www.w3.org/Graphics/SVG/1.1/DTD/svg11.dtd">
<svg version="1.1" xmlns="http://www.w3.org/2000/svg" xmlns:xlink="http://www.w3.org/1999/xlink" viewBox="0 0 28.6289 27.9259">
 <g>
  <rect height="27.9259" opacity="0" width="28.6289" x="0" y="0"/>
  <path d="M28.2773 11.2969L28.2773 24.2344C28.2773 26.6485 27.0469 27.8672 24.9492 27.8672L3.67969 27.8672C1.24219 27.8672 0 26.6485 0 24.2344L0 11.2969C0 8.88286 1.23047 7.66411 3.32812 7.66411L11.6133 7.66411L11.6133 9.45708L3.60938 9.45708C3.38252 9.45708 3.17494 9.48127 2.98846 9.52995L13.0078 18.5625C13.3711 18.8907 13.7461 19.043 14.1328 19.043C14.5195 19.043 14.8945 18.8907 15.2578 18.5625L25.2774 9.52976C25.0904 9.48119 24.8827 9.45708 24.6562 9.45708L16.6523 9.45708L16.6523 7.66411L24.5977 7.66411C27.0352 7.66411 28.2773 8.88286 28.2773 11.2969ZM16.2773 19.9571C15.6094 20.5547 14.8828 20.8477 14.1328 20.8477C13.3828 20.8477 12.6562 20.5547 11.9883 19.9571L10.2864 18.4252L2.78744 25.9347C3.02215 26.0277 3.29756 26.0743 3.60938 26.0743L24.6562 26.0743C24.971 26.0743 25.2495 26.0268 25.4868 25.9322L17.9796 18.4249ZM19.2685 17.2647L26.4745 24.4706C26.4813 24.3948 26.4844 24.3159 26.4844 24.2344L26.4844 11.2969C26.4844 11.1215 26.4703 10.9582 26.4409 10.8088ZM1.79297 11.2852L1.79297 24.2227C1.79297 24.3082 1.79626 24.3908 1.80365 24.4698L9.00325 17.2702L1.83281 10.8161C1.80593 10.9604 1.79297 11.1172 1.79297 11.2852Z" fill="black" fill-opacity="0.85"/>
  <path d="M9.43359 4.88676L10.207 0.843796C10.3359 0.152389 9.90234-0.187454 9.24609 0.105514L6.05859 1.52348C5.53125 1.75786 5.41406 2.27348 5.82422 2.69536L8.25 5.22661C8.75391 5.74223 9.30469 5.58989 9.43359 4.88676ZM9.45703 2.00395C8.97656 1.95708 8.48438 2.3438 8.48438 2.89458C8.48438 3.35161 8.82422 3.72661 9.28125 3.77348C11.7188 4.04301 13.2891 5.9063 13.2891 9.12895L13.2891 13.1016C13.2891 13.5938 13.6758 13.9922 14.168 13.9922C14.6602 13.9922 15.0586 13.5938 15.0586 13.1016L15.0586 9.12895C15.0586 5.03911 12.8555 2.36723 9.45703 2.00395ZM18.9141 4.88676C19.043 5.58989 19.5938 5.74223 20.0977 5.22661L22.5234 2.69536C22.9336 2.27348 22.8164 1.75786 22.2891 1.52348L19.1016 0.105514C18.4453-0.187454 18.0117 0.152389 18.1406 0.843796ZM18.8906 2.00395C15.4922 2.36723 13.2891 5.03911 13.2891 9.12895L13.2891 13.1016C13.2891 13.5938 13.6758 13.9922 14.168 13.9922C14.6602 13.9922 15.0586 13.5938 15.0586 13.1016L15.0586 9.12895C15.0586 5.9063 16.6172 4.04301 19.0664 3.77348C19.5234 3.72661 19.8633 3.35161 19.8633 2.89458C19.8633 2.3438 19.3711 1.95708 18.8906 2.00395Z" fill="black" fill-opacity="0.85"/>
 </g>
</svg>
