<?xml version="1.0" encoding="UTF-8"?>
<!--Generator: Apple Native CoreSVG 360-->
<!DOCTYPE svg
PUBLIC "-//W3C//DTD SVG 1.1//EN"
       "http://www.w3.org/Graphics/SVG/1.1/DTD/svg11.dtd">
<svg version="1.1" xmlns="http://www.w3.org/2000/svg" xmlns:xlink="http://www.w3.org/1999/xlink" viewBox="0 0 39.05 31.2539">
 <g>
  <rect height="31.2539" opacity="0" width="39.05" x="0" y="0"/>
  <path d="M16.982 0.433594C17.4039 3.28125 17.7437 3.77344 20.6969 4.18359C20.9547 4.21875 21.1656 4.40625 21.1656 4.66406C21.1656 4.91016 20.9781 5.10938 20.6969 5.16797C17.7437 5.55469 17.5328 6.02344 16.982 8.91797C16.9352 9.16406 16.7242 9.32812 16.4898 9.32812C16.232 9.32812 16.0328 9.15234 15.9977 8.89453C15.5875 6.03516 15.2359 5.47266 12.2711 5.16797C11.9898 5.12109 11.8141 4.92188 11.8141 4.66406C11.8141 4.40625 12.0016 4.21875 12.2711 4.18359C15.2359 3.77344 15.4469 3.29297 15.9977 0.433594C16.0445 0.175781 16.2437 0 16.4898 0C16.7242 0 16.9352 0.175781 16.982 0.433594Z" fill="black" fill-opacity="0.85"/>
  <path d="M12.025 10.1953L17.1415 16.1757L15.915 17.6434L10.6539 11.4961C10.4664 11.2852 10.2437 11.2852 10.068 11.4961L2.41562 20.4375C2.23984 20.6484 2.33359 21 2.67344 21L13.1101 21L12.0133 22.3125C11.8544 22.5023 11.726 22.6949 11.6282 22.8867L1.91172 22.8867C0.0601546 22.8867-0.572658 21.0352 0.57578 19.6875L8.69687 10.1953C9.23594 9.57422 9.75156 9.29297 10.3609 9.29297C10.9703 9.29297 11.4859 9.57422 12.025 10.1953Z" fill="black" fill-opacity="0.85"/>
  <path d="M13.4195 25.6641L36.6461 25.6641C38.568 25.6641 39.3648 23.8945 38.0406 22.3125L26.7789 8.83594C26.2516 8.20312 25.6656 7.875 25.0328 7.875C24.4 7.875 23.8141 8.20312 23.275 8.83594L12.0133 22.3125C10.6891 23.8945 11.4859 25.6641 13.4195 25.6641ZM14.1227 23.7773C13.7008 23.7773 13.607 23.3438 13.8062 23.1094L24.6812 10.0898C24.9039 9.83203 25.15 9.83203 25.3844 10.0898L36.2477 23.1094C36.4469 23.3438 36.3531 23.7773 35.9312 23.7773Z" fill="black" fill-opacity="0.85"/>
 </g>
</svg>
