<?xml version="1.0" encoding="UTF-8"?>
<!--Generator: Apple Native CoreSVG 360-->
<!DOCTYPE svg
PUBLIC "-//W3C//DTD SVG 1.1//EN"
       "http://www.w3.org/Graphics/SVG/1.1/DTD/svg11.dtd">
<svg version="1.1" xmlns="http://www.w3.org/2000/svg" xmlns:xlink="http://www.w3.org/1999/xlink" viewBox="0 0 16.6641 9.52734">
 <g>
  <rect height="9.52734" opacity="0" width="16.6641" x="0" y="0"/>
  <path d="M1.04297 2.12109L15.2695 2.12109C15.832 2.12109 16.3125 1.64062 16.3125 1.06641C16.3125 0.492188 15.832 0.0234375 15.2695 0.0234375L1.04297 0.0234375C0.480469 0.0234375 0 0.492188 0 1.06641C0 1.64062 0.480469 2.12109 1.04297 2.12109ZM1.04297 9.52734L15.2695 9.52734C15.832 9.52734 16.3125 9.05859 16.3125 8.48438C16.3125 7.91016 15.832 7.42969 15.2695 7.42969L1.04297 7.42969C0.480469 7.42969 0 7.91016 0 8.48438C0 9.05859 0.480469 9.52734 1.04297 9.52734Z" fill="black" fill-opacity="0.85"/>
 </g>
</svg>
