<?xml version="1.0" encoding="UTF-8"?>
<!--Generator: Apple Native CoreSVG 360-->
<!DOCTYPE svg
PUBLIC "-//W3C//DTD SVG 1.1//EN"
       "http://www.w3.org/Graphics/SVG/1.1/DTD/svg11.dtd">
<svg version="1.1" xmlns="http://www.w3.org/2000/svg" xmlns:xlink="http://www.w3.org/1999/xlink" viewBox="0 0 31.3515 26.7776">
 <g>
  <rect height="26.7776" opacity="0" width="31.3515" x="0" y="0"/>
  <path d="M21.3242 23.3673C21.3242 23.8829 20.9023 24.3048 20.3867 24.3048L14.6445 24.3048L16.5312 22.4181L20.3867 22.4181C20.9023 22.4181 21.3242 22.8517 21.3242 23.3673Z" fill="black" fill-opacity="0.85"/>
  <path d="M29.3867 23.3673C29.3867 23.8829 28.9648 24.3048 28.4492 24.3048L23.8789 24.3048C23.3633 24.3048 22.9414 23.8829 22.9414 23.3673C22.9414 22.8517 23.3633 22.4181 23.8789 22.4181L28.4492 22.4181C28.9648 22.4181 29.3867 22.8517 29.3867 23.3673Z" fill="black" fill-opacity="0.85"/>
  <path d="M2.96091 19.09L7.50779 23.6134C9.2656 25.3712 11.2461 25.4415 12.9219 23.7775L24.207 12.4689C25.25 11.4376 25.2383 9.94936 24.1719 8.88295L17.7031 2.4142C16.6367 1.34779 15.1484 1.32436 14.1054 2.36732L2.80857 13.6642C1.14451 15.34 1.21482 17.3204 2.96091 19.09ZM4.29685 17.754C3.39451 16.84 3.35935 15.797 4.2031 14.9298L15.3711 3.77357C15.664 3.46889 16.0859 3.46889 16.3789 3.76186L22.8242 10.2072C23.1172 10.5001 23.1054 10.9103 22.8125 11.2033L11.6445 22.3712C10.789 23.2384 9.74607 23.1915 8.84373 22.2775ZM4.67185 13.09L13.4844 21.9142L14.6562 20.7423L5.86716 11.9533Z" fill="black" fill-opacity="0.85"/>
 </g>
</svg>
