<?xml version="1.0" encoding="UTF-8"?>
<!--Generator: Apple Native CoreSVG 360-->
<!DOCTYPE svg
PUBLIC "-//W3C//DTD SVG 1.1//EN"
       "http://www.w3.org/Graphics/SVG/1.1/DTD/svg11.dtd">
<svg version="1.1" xmlns="http://www.w3.org/2000/svg" xmlns:xlink="http://www.w3.org/1999/xlink" viewBox="0 0 24.2578 23.918">
 <g>
  <rect height="23.918" opacity="0" width="24.2578" x="0" y="0"/>
  <path d="M11.9531 23.9062C18.5508 23.9062 23.9062 18.5508 23.9062 11.9531C23.9062 5.35547 18.5508 0 11.9531 0C11.4023 0 10.957 0.445312 10.957 0.996094C10.957 1.54688 11.4023 2.00391 11.9531 2.00391C17.4492 2.00391 21.9023 6.45703 21.9023 11.9531C21.9023 17.4492 17.4492 21.9023 11.9531 21.9023C6.45703 21.9023 2.00391 17.4492 2.00391 11.9531C2.00391 11.4023 1.55859 10.9453 0.996094 10.9453C0.445312 10.9453 0 11.4023 0 11.9531C0 18.5508 5.35547 23.9062 11.9531 23.9062Z" fill="black" fill-opacity="0.85"/>
  <path d="M11.7773 12.1641C12.1875 11.8125 12.3164 11.1445 11.7891 10.6172L5.40234 4.23047L3.26953 2.35547C2.92969 2.0625 2.42578 2.03906 2.10938 2.35547C1.79297 2.68359 1.81641 3.17578 2.10938 3.50391L3.97266 5.68359L10.3477 12.0703C10.8516 12.5508 11.4141 12.4805 11.7773 12.1641ZM1.42969 8.13281C1.95703 8.13281 2.41406 7.72266 2.37891 7.18359L2.22656 3.45703L3.17578 2.46094L6.9375 2.64844C7.47656 2.68359 7.88672 2.22656 7.89844 1.69922C7.89844 1.16016 7.47656 0.75 6.94922 0.738281L1.67578 0.738281C0.902344 0.738281 0.480469 1.14844 0.480469 1.93359L0.480469 7.19531C0.492188 7.72266 0.925781 8.13281 1.42969 8.13281Z" fill="black" fill-opacity="0.85"/>
 </g>
</svg>
