<?xml version="1.0" encoding="UTF-8"?>
<!--Generator: Apple Native CoreSVG 360-->
<!DOCTYPE svg
PUBLIC "-//W3C//DTD SVG 1.1//EN"
       "http://www.w3.org/Graphics/SVG/1.1/DTD/svg11.dtd">
<svg version="1.1" xmlns="http://www.w3.org/2000/svg" xmlns:xlink="http://www.w3.org/1999/xlink" viewBox="0 0 21.9258 21.5742">
 <g>
  <rect height="21.5742" opacity="0" width="21.9258" x="0" y="0"/>
  <path d="M0 17.9531C0 20.3672 1.23047 21.5742 3.67969 21.5742L17.8945 21.5742C20.3555 21.5742 21.5742 20.3672 21.5742 17.9531L21.5742 3.63281C21.5742 1.21875 20.3555 0 17.8945 0L3.67969 0C1.23047 0 0 1.21875 0 3.63281ZM1.88672 17.8477L1.88672 3.73828C1.88672 2.51953 2.53125 1.88672 3.70312 1.88672L4.58203 1.88672L4.58203 4.01953C4.58203 4.41797 4.88672 4.73438 5.29688 4.73438C5.69531 4.73438 6 4.41797 6 4.01953L6 1.88672L8.27344 1.88672L8.27344 4.01953C8.27344 4.41797 8.57812 4.73438 8.97656 4.73438C9.38672 4.73438 9.69141 4.41797 9.69141 4.01953L9.69141 1.88672L11.9531 1.88672L11.9531 4.01953C11.9531 4.41797 12.2695 4.73438 12.668 4.73438C13.0664 4.73438 13.3711 4.41797 13.3711 4.01953L13.3711 1.88672L15.6445 1.88672L15.6445 4.01953C15.6445 4.41797 15.9492 4.73438 16.3594 4.73438C16.7578 4.73438 17.0625 4.41797 17.0625 4.01953L17.0625 1.88672L17.8711 1.88672C19.0312 1.88672 19.6875 2.51953 19.6875 3.73828L19.6875 17.8477C19.6875 19.0664 19.0312 19.6875 17.8711 19.6875L17.0625 19.6875L17.0625 17.5664C17.0625 17.1562 16.7578 16.8516 16.3594 16.8516C15.9492 16.8516 15.6445 17.1562 15.6445 17.5664L15.6445 19.6875L13.3711 19.6875L13.3711 17.5664C13.3711 17.1562 13.0664 16.8516 12.668 16.8516C12.2695 16.8516 11.9531 17.1562 11.9531 17.5664L11.9531 19.6875L9.69141 19.6875L9.69141 17.5664C9.69141 17.1562 9.38672 16.8516 8.97656 16.8516C8.57812 16.8516 8.27344 17.1562 8.27344 17.5664L8.27344 19.6875L6 19.6875L6 17.5664C6 17.1562 5.69531 16.8516 5.29688 16.8516C4.88672 16.8516 4.58203 17.1562 4.58203 17.5664L4.58203 19.6875L3.70312 19.6875C2.53125 19.6875 1.88672 19.0664 1.88672 17.8477Z" fill="black" fill-opacity="0.85"/>
  <path d="M6.75 14.3789L15.082 14.3789C15.7617 14.3789 16.0781 14.0508 16.0781 13.3594L16.0781 10.2656C16.0781 9.92578 15.9609 9.62109 15.7266 9.38672L13.9336 7.59375C13.6875 7.35938 13.3711 7.21875 13.043 7.21875L6.75 7.21875C6.05859 7.21875 5.74219 7.53516 5.74219 8.22656L5.74219 13.3594C5.74219 14.0508 6.05859 14.3789 6.75 14.3789Z" fill="black" fill-opacity="0.85"/>
 </g>
</svg>
