<?xml version="1.0" encoding="UTF-8"?>
<!--Generator: Apple Native CoreSVG 360-->
<!DOCTYPE svg
PUBLIC "-//W3C//DTD SVG 1.1//EN"
       "http://www.w3.org/Graphics/SVG/1.1/DTD/svg11.dtd">
<svg version="1.1" xmlns="http://www.w3.org/2000/svg" xmlns:xlink="http://www.w3.org/1999/xlink" viewBox="0 0 28.582 23.4085">
 <g>
  <rect height="23.4085" opacity="0" width="28.582" x="0" y="0"/>
  <path d="M28.2305 14.0539C28.2305 6.67105 22.5586 0.612457 15.3398 0.00308175C14.9648-0.0320745 14.6836 0.237457 14.6836 0.612457L14.6836 4.44449C14.6836 4.76089 14.9062 5.00699 15.2227 5.03043C19.7109 5.58121 23.2031 9.41324 23.2031 14.0539C23.2031 16.1632 22.4766 18.1086 21.1992 19.7375C21.0352 19.9367 21.0469 20.1945 21.2227 20.382L24.0234 23.1711C24.2812 23.4289 24.6797 23.4289 24.9141 23.1476C26.9883 20.6867 28.2305 17.5109 28.2305 14.0539Z" fill="black" fill-opacity="0.85"/>
  <path d="M0 14.0539C0 17.5226 1.24219 20.6984 3.31641 23.1593C3.55078 23.4406 3.9375 23.4289 4.20703 23.1711L7.00781 20.382C7.18359 20.1945 7.19531 19.9367 7.03125 19.7375C5.74219 18.1086 5.02734 16.1632 5.02734 14.0539C5.02734 9.41324 8.51953 5.58121 13.0078 5.03043C13.3242 5.00699 13.5469 4.76089 13.5469 4.44449L13.5469 0.612457C13.5469 0.237457 13.2656-0.0320745 12.8906 0.00308175C5.67188 0.612457 0 6.67105 0 14.0539Z" fill="black" fill-opacity="0.85"/>
  <path d="M15.5391 19.3625C15.8672 19.3625 16.2656 19.3507 16.5938 19.2804C16.9453 19.1867 17.2266 19.0109 17.2266 18.6593C17.2266 18.2843 16.9688 18.1086 16.5938 18.1086C16.207 18.1086 16.0664 18.1554 15.6094 18.1554C13.0781 18.1554 11.5312 16.7257 11.5312 14.1593C11.5312 11.6398 12.9844 10.1515 15.5742 10.1515C15.9844 10.1515 16.3477 10.1984 16.5938 10.1984C16.9688 10.1984 17.2266 10.0109 17.2266 9.63589C17.2266 9.30777 17.0156 9.10855 16.5938 9.00308C16.3125 8.94449 15.9492 8.92105 15.5391 8.92105C12.5977 8.92105 10.125 10.5968 10.125 14.1476C10.125 17.4992 12.3398 19.3625 15.5391 19.3625ZM8.54297 13.0929C8.54297 13.3039 8.71875 13.4796 8.92969 13.4796L15.4102 13.4796C15.6211 13.4796 15.7969 13.3039 15.7969 13.0929C15.7969 12.8703 15.6211 12.6945 15.4102 12.6945L8.92969 12.6945C8.71875 12.6945 8.54297 12.8703 8.54297 13.0929ZM8.54297 15.1906C8.54297 15.4015 8.71875 15.5773 8.92969 15.5773L15.4102 15.5773C15.6211 15.5773 15.7969 15.4015 15.7969 15.1906C15.7969 14.9796 15.6211 14.8039 15.4102 14.8039L8.92969 14.8039C8.71875 14.8039 8.54297 14.9796 8.54297 15.1906Z" fill="black" fill-opacity="0.85"/>
 </g>
</svg>
