<?xml version="1.0" encoding="UTF-8"?>
<!--Generator: Apple Native CoreSVG 360-->
<!DOCTYPE svg
PUBLIC "-//W3C//DTD SVG 1.1//EN"
       "http://www.w3.org/Graphics/SVG/1.1/DTD/svg11.dtd">
<svg version="1.1" xmlns="http://www.w3.org/2000/svg" xmlns:xlink="http://www.w3.org/1999/xlink" viewBox="0 0 28.582 23.5195">
 <g>
  <rect height="23.5195" opacity="0" width="28.582" x="0" y="0"/>
  <path d="M28.2305 14.1094C28.2305 10.6641 26.9883 7.48828 24.9141 5.02734C24.6797 4.74609 24.2812 4.74609 24.0234 5.01562L21.3047 7.73438C21.082 7.95703 21.0703 8.27344 21.2695 8.51953C22.4766 10.0664 23.2031 12.0117 23.2031 14.1094C23.2031 16.2188 22.4766 18.1641 21.1992 19.793C21.0352 19.9922 21.0469 20.25 21.2227 20.4375L24.0117 23.2266C24.2812 23.4961 24.668 23.4961 24.9141 23.2031C26.9883 20.7422 28.2305 17.5664 28.2305 14.1094Z" fill="black" fill-opacity="0.85"/>
  <path d="M14.1094 5.02734C16.2305 5.02734 18.1758 5.76562 19.7344 6.97266C19.9688 7.16016 20.2734 7.13672 20.4961 6.91406L23.2148 4.19531C23.4844 3.92578 23.4727 3.53906 23.1914 3.30469C20.7422 1.24219 17.5664 0 14.1094 0C10.6641 0 7.48828 1.24219 5.03906 3.30469C4.75781 3.53906 4.74609 3.92578 5.01562 4.19531L7.73438 6.91406C7.95703 7.13672 8.27344 7.16016 8.53125 6.96094C10.0781 5.76562 12.0117 5.02734 14.1094 5.02734Z" fill="black" fill-opacity="0.85"/>
  <path d="M0 14.1094C0 17.5664 1.24219 20.7422 3.31641 23.2031C3.55078 23.4961 3.94922 23.4961 4.20703 23.2266L6.99609 20.4375C7.17188 20.25 7.19531 19.9922 7.03125 19.793C5.75391 18.1641 5.02734 16.2188 5.02734 14.1094C5.02734 12.0117 5.74219 10.0664 6.96094 8.51953C7.14844 8.27344 7.14844 7.95703 6.92578 7.73438L4.20703 5.01562C3.9375 4.74609 3.55078 4.74609 3.31641 5.02734C1.24219 7.48828 0 10.6641 0 14.1094Z" fill="black" fill-opacity="0.85"/>
  <path d="M15.5391 19.418C15.8672 19.418 16.2656 19.4062 16.5938 19.3359C16.9453 19.2422 17.2266 19.0664 17.2266 18.7148C17.2266 18.3398 16.9688 18.1641 16.5938 18.1641C16.207 18.1641 16.0664 18.2109 15.6094 18.2109C13.0781 18.2109 11.5312 16.7812 11.5312 14.2148C11.5312 11.6953 12.9844 10.207 15.5742 10.207C15.9844 10.207 16.3477 10.2539 16.5938 10.2539C16.9688 10.2539 17.2266 10.0664 17.2266 9.69141C17.2266 9.36328 17.0156 9.16406 16.5938 9.05859C16.3125 9 15.9492 8.97656 15.5391 8.97656C12.5977 8.97656 10.125 10.6523 10.125 14.2031C10.125 17.5547 12.3398 19.418 15.5391 19.418ZM8.54297 13.1484C8.54297 13.3594 8.71875 13.5352 8.92969 13.5352L15.4102 13.5352C15.6211 13.5352 15.7969 13.3594 15.7969 13.1484C15.7969 12.9258 15.6211 12.75 15.4102 12.75L8.92969 12.75C8.71875 12.75 8.54297 12.9258 8.54297 13.1484ZM8.54297 15.2461C8.54297 15.457 8.71875 15.6328 8.92969 15.6328L15.4102 15.6328C15.6211 15.6328 15.7969 15.457 15.7969 15.2461C15.7969 15.0352 15.6211 14.8594 15.4102 14.8594L8.92969 14.8594C8.71875 14.8594 8.54297 15.0352 8.54297 15.2461Z" fill="black" fill-opacity="0.85"/>
 </g>
</svg>
