<?xml version="1.0" encoding="UTF-8"?>
<!--Generator: Apple Native CoreSVG 360-->
<!DOCTYPE svg
PUBLIC "-//W3C//DTD SVG 1.1//EN"
       "http://www.w3.org/Graphics/SVG/1.1/DTD/svg11.dtd">
<svg version="1.1" xmlns="http://www.w3.org/2000/svg" xmlns:xlink="http://www.w3.org/1999/xlink" viewBox="0 0 17.625 20.9648">
 <g>
  <rect height="20.9648" opacity="0" width="17.625" x="0" y="0"/>
  <path d="M14.0625 20.9297C14.7422 20.9297 15.5742 20.918 16.1836 20.7656C16.8281 20.6133 17.2734 20.3203 17.2734 19.6992C17.2734 18.9961 16.8047 18.7148 16.1836 18.7148C15.5039 18.7148 15.2109 18.832 14.1445 18.832C9.08203 18.832 5.74219 15.8789 5.74219 10.5234L5.74219 10.4297C5.74219 5.17969 8.92969 2.15625 14.0742 2.15625C14.7656 2.15625 15.9023 2.26172 16.1836 2.26172C16.8516 2.26172 17.2734 1.92188 17.2734 1.26562C17.2734 0.644531 16.8047 0.339844 16.1836 0.175781C15.5273 0.0117188 14.6953 0 14.0742 0C7.88672 0 3.35156 3.63281 3.35156 10.4531L3.35156 10.4883C3.35156 17.0508 7.53516 20.9297 14.0625 20.9297ZM0 8.35547C0 8.80078 0.304688 9.10547 0.75 9.10547L13.6992 9.11719C14.1797 9.11719 14.4727 8.8125 14.4727 8.35547C14.4727 7.88672 14.1797 7.57031 13.6992 7.57031L0.75 7.57031C0.304688 7.57031 0 7.88672 0 8.35547ZM0 12.5977C0 13.043 0.304688 13.3594 0.75 13.3594L13.6992 13.3594C14.1797 13.3594 14.4727 13.0547 14.4727 12.5977C14.4727 12.1289 14.1797 11.8125 13.6992 11.8125L0.75 11.8125C0.304688 11.8125 0 12.1406 0 12.5977Z" fill="black" fill-opacity="0.85"/>
 </g>
</svg>
