<?xml version="1.0" encoding="UTF-8"?>
<!--Generator: Apple Native CoreSVG 360-->
<!DOCTYPE svg
PUBLIC "-//W3C//DTD SVG 1.1//EN"
       "http://www.w3.org/Graphics/SVG/1.1/DTD/svg11.dtd">
<svg version="1.1" xmlns="http://www.w3.org/2000/svg" xmlns:xlink="http://www.w3.org/1999/xlink" viewBox="0 0 26.5195 25.0195">
 <g>
  <rect height="25.0195" opacity="0" width="26.5195" x="0" y="0"/>
  <path d="M1.55859 22.2188L24.6094 22.2188L24.6094 21.4336C24.6094 20.9648 24.3398 20.6836 23.8594 20.6836L23.1094 20.6836L23.1094 8.03906L24.1406 8.03906C24.7852 8.03906 25.1602 7.57031 25.1602 7.08984C25.1602 6.73828 24.9609 6.43359 24.5273 6.1875L14.5195 0.410156C14.0508 0.140625 13.5586 0 13.0781 0C12.5977 0 12.0938 0.140625 11.6484 0.410156L1.64062 6.1875C1.19531 6.43359 1.00781 6.73828 1.00781 7.08984C1.00781 7.57031 1.38281 8.03906 2.02734 8.03906L3.05859 8.03906L3.05859 20.6836L2.32031 20.6836C1.83984 20.6836 1.55859 20.9648 1.55859 21.4336ZM4.82812 20.6836L4.82812 6.53906L12.6211 2.16797C12.7617 2.08594 12.9258 2.03906 13.0781 2.03906C13.2305 2.03906 13.3945 2.08594 13.5469 2.16797L21.3398 6.53906L21.3398 20.6836ZM0.9375 25.0078L25.2188 25.0078C25.7344 25.0078 26.168 24.5742 26.168 24.0586C26.168 23.543 25.7344 23.1211 25.2188 23.1211L0.9375 23.1211C0.421875 23.1211 0 23.543 0 24.0586C0 24.5742 0.421875 25.0078 0.9375 25.0078Z" fill="black" fill-opacity="0.85"/>
  <path d="M8.36719 16.6758L11.7539 16.6758C12.0938 16.6758 12.3047 16.4766 12.3047 16.1484C12.3047 15.8086 12.0938 15.6211 11.7539 15.6211L8.98828 15.6211L8.98828 12.7617L11.6367 12.7617C11.9297 12.7617 12.1406 12.5625 12.1406 12.2578C12.1406 11.9531 11.9297 11.7539 11.6367 11.7539L8.98828 11.7539L8.98828 9.07031L11.7539 9.07031C12.0938 9.07031 12.3047 8.87109 12.3047 8.53125C12.3047 8.20312 12.0938 8.01562 11.7539 8.01562L8.36719 8.01562C7.98047 8.01562 7.76953 8.26172 7.76953 8.63672L7.76953 16.043C7.76953 16.4414 7.96875 16.6758 8.36719 16.6758ZM14.168 16.6758L18.3281 16.6758C18.6445 16.6758 18.832 16.4648 18.832 16.1484C18.832 15.832 18.6445 15.6211 18.3281 15.6211L14.9766 15.6211L14.9766 15.5625L18.5508 9.16406C18.6445 8.98828 18.7266 8.82422 18.7266 8.61328C18.7266 8.28516 18.5156 8.01562 18.0938 8.01562L14.1328 8.01562C13.8047 8.01562 13.582 8.21484 13.582 8.53125C13.582 8.85938 13.8047 9.07031 14.1328 9.07031L17.332 9.07031L17.332 9.11719L13.7109 15.5508C13.6172 15.7148 13.5586 15.8789 13.5586 16.0781C13.5586 16.4766 13.8516 16.6758 14.168 16.6758Z" fill="black" fill-opacity="0.85"/>
 </g>
</svg>
