<?xml version="1.0" encoding="UTF-8"?>
<!--Generator: Apple Native CoreSVG 360-->
<!DOCTYPE svg
PUBLIC "-//W3C//DTD SVG 1.1//EN"
       "http://www.w3.org/Graphics/SVG/1.1/DTD/svg11.dtd">
<svg version="1.1" xmlns="http://www.w3.org/2000/svg" xmlns:xlink="http://www.w3.org/1999/xlink" viewBox="0 0 28.582 23.4085">
 <g>
  <rect height="23.4085" opacity="0" width="28.582" x="0" y="0"/>
  <path d="M28.2305 14.0539C28.2305 6.67105 22.5586 0.612457 15.3398 0.00308175C14.9648-0.0320745 14.6836 0.237457 14.6836 0.612457L14.6836 4.44449C14.6836 4.76089 14.9062 5.00699 15.2227 5.03043C19.7109 5.58121 23.2031 9.41324 23.2031 14.0539C23.2031 16.1632 22.4766 18.1086 21.1992 19.7375C21.0352 19.9367 21.0469 20.1945 21.2227 20.382L24.0234 23.1711C24.2812 23.4289 24.6797 23.4289 24.9141 23.1476C26.9883 20.6867 28.2305 17.5109 28.2305 14.0539Z" fill="black" fill-opacity="0.85"/>
  <path d="M0 14.0539C0 17.5226 1.24219 20.6984 3.31641 23.1593C3.55078 23.4406 3.9375 23.4289 4.20703 23.1711L7.00781 20.382C7.18359 20.1945 7.19531 19.9367 7.03125 19.7375C5.74219 18.1086 5.02734 16.1632 5.02734 14.0539C5.02734 9.41324 8.51953 5.58121 13.0078 5.03043C13.3242 5.00699 13.5469 4.76089 13.5469 4.44449L13.5469 0.612457C13.5469 0.237457 13.2656-0.0320745 12.8906 0.00308175C5.67188 0.612457 0 6.67105 0 14.0539Z" fill="black" fill-opacity="0.85"/>
  <path d="M9.23438 18.6945L12.7266 18.6945C13.0664 18.6945 13.2891 18.4836 13.2891 18.1437C13.2891 17.7921 13.0664 17.5929 12.7266 17.5929L9.87891 17.5929L9.87891 14.6632L12.5977 14.6632C12.9141 14.6632 13.125 14.4406 13.125 14.1359C13.125 13.8195 12.9141 13.6203 12.5977 13.6203L9.87891 13.6203L9.87891 10.8429L12.7266 10.8429C13.0664 10.8429 13.2891 10.6437 13.2891 10.2921C13.2891 9.9523 13.0664 9.7648 12.7266 9.7648L9.23438 9.7648C8.83594 9.7648 8.61328 10.0109 8.61328 10.4093L8.61328 18.0265C8.61328 18.4367 8.82422 18.6945 9.23438 18.6945ZM15.2109 18.6945L19.5 18.6945C19.8281 18.6945 20.0273 18.4601 20.0273 18.1437C20.0273 17.8156 19.8281 17.5929 19.5 17.5929L16.043 17.5929L16.043 17.5343L19.7227 10.9367C19.8281 10.7609 19.9102 10.5968 19.9102 10.3742C19.9102 10.0343 19.6875 9.7648 19.2539 9.7648L15.1758 9.7648C14.8359 9.7648 14.6016 9.96402 14.6016 10.2921C14.6016 10.632 14.8359 10.8429 15.1758 10.8429L18.4805 10.8429L18.4805 10.9015L14.7422 17.5226C14.6484 17.6984 14.5781 17.8742 14.5781 18.0734C14.5781 18.4836 14.8828 18.6945 15.2109 18.6945Z" fill="black" fill-opacity="0.85"/>
 </g>
</svg>
