<?xml version="1.0" encoding="UTF-8"?>
<!--Generator: Apple Native CoreSVG 360-->
<!DOCTYPE svg
PUBLIC "-//W3C//DTD SVG 1.1//EN"
       "http://www.w3.org/Graphics/SVG/1.1/DTD/svg11.dtd">
<svg version="1.1" xmlns="http://www.w3.org/2000/svg" xmlns:xlink="http://www.w3.org/1999/xlink" viewBox="0 0 26.5195 25.0195">
 <g>
  <rect height="25.0195" opacity="0" width="26.5195" x="0" y="0"/>
  <path d="M1.55859 22.2188L24.6094 22.2188L24.6094 21.4336C24.6094 20.9648 24.3398 20.6836 23.8594 20.6836L23.1094 20.6836L23.1094 8.03906L24.1406 8.03906C24.7852 8.03906 25.1602 7.57031 25.1602 7.08984C25.1602 6.73828 24.9609 6.43359 24.5273 6.1875L14.5195 0.410156C14.0508 0.140625 13.5586 0 13.0781 0C12.5977 0 12.0938 0.140625 11.6484 0.410156L1.64062 6.1875C1.19531 6.43359 1.00781 6.73828 1.00781 7.08984C1.00781 7.57031 1.38281 8.03906 2.02734 8.03906L3.05859 8.03906L3.05859 20.6836L2.32031 20.6836C1.83984 20.6836 1.55859 20.9648 1.55859 21.4336ZM4.82812 20.6836L4.82812 6.53906L12.6211 2.16797C12.7617 2.08594 12.9258 2.03906 13.0781 2.03906C13.2305 2.03906 13.3945 2.08594 13.5469 2.16797L21.3398 6.53906L21.3398 20.6836ZM0.9375 25.0078L25.2188 25.0078C25.7344 25.0078 26.168 24.5742 26.168 24.0586C26.168 23.543 25.7344 23.1211 25.2188 23.1211L0.9375 23.1211C0.421875 23.1211 0 23.543 0 24.0586C0 24.5742 0.421875 25.0078 0.9375 25.0078Z" fill="black" fill-opacity="0.85"/>
  <path d="M14.5195 17.4844C14.8477 17.4844 15.2461 17.4727 15.5742 17.4023C15.9375 17.3086 16.207 17.1328 16.207 16.7812C16.207 16.4062 15.9609 16.2305 15.5859 16.2305C15.1992 16.2305 15.0586 16.2773 14.5898 16.2773C12.0703 16.2773 10.5234 14.8477 10.5234 12.2812C10.5234 9.76172 11.9766 8.27344 14.5547 8.27344C14.9766 8.27344 15.3398 8.32031 15.5859 8.32031C15.9609 8.32031 16.207 8.13281 16.207 7.75781C16.207 7.42969 16.0078 7.23047 15.5742 7.125C15.293 7.06641 14.9297 7.04297 14.5195 7.04297C11.5898 7.04297 9.11719 8.71875 9.11719 12.2695C9.11719 15.6211 11.332 17.4844 14.5195 17.4844ZM7.52344 11.2148C7.52344 11.4258 7.69922 11.6016 7.92188 11.6016L14.4023 11.6016C14.6133 11.6016 14.7891 11.4258 14.7891 11.2148C14.7891 10.9922 14.6133 10.8164 14.4023 10.8164L7.92188 10.8164C7.69922 10.8164 7.52344 10.9922 7.52344 11.2148ZM7.52344 13.3125C7.52344 13.5234 7.69922 13.6992 7.92188 13.6992L14.4023 13.6992C14.6133 13.6992 14.7891 13.5234 14.7891 13.3125C14.7891 13.1016 14.6133 12.9258 14.4023 12.9258L7.92188 12.9258C7.69922 12.9258 7.52344 13.1016 7.52344 13.3125Z" fill="black" fill-opacity="0.85"/>
 </g>
</svg>
