<?xml version="1.0" encoding="UTF-8"?>
<!--Generator: Apple Native CoreSVG 360-->
<!DOCTYPE svg
PUBLIC "-//W3C//DTD SVG 1.1//EN"
       "http://www.w3.org/Graphics/SVG/1.1/DTD/svg11.dtd">
<svg version="1.1" xmlns="http://www.w3.org/2000/svg" xmlns:xlink="http://www.w3.org/1999/xlink" viewBox="0 0 28.7812 21.5742">
 <g>
  <rect height="21.5742" opacity="0" width="28.7812" x="0" y="0"/>
  <path d="M1.13672 21.5508L10.6406 21.5508C11.2852 21.5508 11.707 21.1289 11.707 20.5195C11.707 19.8984 11.2734 19.4766 10.6406 19.4766L2.32031 19.4766L2.32031 11.543L10.2188 11.543C10.875 11.543 11.25 11.0859 11.25 10.5234C11.25 9.98438 10.9102 9.50391 10.2188 9.50391L2.32031 9.50391L2.32031 2.09766L10.6406 2.09766C11.2617 2.09766 11.707 1.66406 11.707 1.04297C11.707 0.433594 11.2852 0 10.6406 0L1.13672 0C0.457031 0 0 0.457031 0 1.20703L0 20.3555C0 21.1289 0.480469 21.5508 1.13672 21.5508ZM15.7734 21.5508L27.3867 21.5508C28.0312 21.5508 28.4297 21.0938 28.4297 20.5195C28.4297 19.8867 28.0078 19.4766 27.3867 19.4766L17.3789 19.4766L17.3789 19.3594L27.7617 2.30859C27.9844 1.93359 28.125 1.64062 28.125 1.19531C28.125 0.527344 27.6562 0 26.8828 0L15.8086 0C15.1758 0 14.7188 0.398438 14.7188 1.04297C14.7188 1.66406 15.1523 2.09766 15.8086 2.09766L25.3945 2.09766L25.3945 2.20312L14.9414 19.2773C14.7188 19.6172 14.5664 19.9336 14.5664 20.3672C14.5664 21.1758 15.1523 21.5508 15.7734 21.5508Z" fill="black" fill-opacity="0.85"/>
 </g>
</svg>
