<?xml version="1.0" encoding="UTF-8"?>
<!--Generator: Apple Native CoreSVG 360-->
<!DOCTYPE svg
PUBLIC "-//W3C//DTD SVG 1.1//EN"
       "http://www.w3.org/Graphics/SVG/1.1/DTD/svg11.dtd">
<svg version="1.1" xmlns="http://www.w3.org/2000/svg" xmlns:xlink="http://www.w3.org/1999/xlink" viewBox="0 0 37.3359 26.1445">
 <g>
  <rect height="26.1445" opacity="0" width="37.3359" x="0" y="0"/>
  <path d="M1.86328 25.2656L3.73828 25.2656L3.73828 3C3.73828 2.27344 4.10156 1.88672 4.83984 1.88672L14.6953 1.88672C15.4219 1.88672 15.7969 2.26172 15.7969 3L15.8086 25.2656L17.6953 25.2656L17.6953 2.97656C17.6953 1.05469 16.6406 0 14.7305 0L4.81641 0C2.88281 0 1.86328 1.05469 1.86328 2.97656ZM5.56641 10.6172L13.9805 10.6172C14.3789 10.6172 14.6719 10.3242 14.6719 9.92578L14.6719 3.71484C14.6719 3.31641 14.3672 3.02344 13.9805 3.02344L5.56641 3.02344C5.16797 3.02344 4.875 3.31641 4.875 3.71484L4.875 9.92578C4.875 10.3242 5.16797 10.6172 5.56641 10.6172ZM0 25.1836C0 25.7109 0.410156 26.1445 0.925781 26.1445L18.6094 26.1445C19.125 26.1445 19.5469 25.7109 19.5469 25.1836C19.5469 24.6797 19.125 24.2578 18.6094 24.2578L0.925781 24.2578C0.421875 24.2578 0 24.668 0 25.1836ZM23.9766 11.8477L23.9766 19.3242C23.9766 20.8828 23.2969 21.7734 22.1016 21.7734C21.0234 21.7734 20.3438 21.0586 20.3438 19.9102C20.3438 18.1875 20.625 15.9023 20.625 13.8047C20.625 11.7539 19.6172 10.1953 17.1328 9.375L16.5586 10.6641C18.4453 11.2383 19.207 12.3984 19.207 13.8047C19.207 15.6797 18.9258 17.9648 18.9258 19.9102C18.9258 21.9258 20.1562 23.2031 22.1016 23.2031C24.1992 23.2031 25.3945 21.7852 25.3945 19.3242L25.3945 11.8477C25.3945 10.793 26.1797 10.5117 26.6836 10.1133C27.4336 9.5625 27.832 8.77734 27.832 7.86328L27.832 6.28125C27.832 6.03516 27.6797 5.87109 27.4688 5.87109L26.7188 5.87109L26.7188 3.75C26.7188 3.43359 26.4492 3.16406 26.1211 3.16406C25.8047 3.16406 25.5234 3.43359 25.5234 3.75L25.5352 5.87109L23.9648 5.87109L23.9648 3.75C23.9648 3.43359 23.707 3.16406 23.3906 3.16406C23.0508 3.16406 22.793 3.43359 22.793 3.75L22.793 5.87109L21.9141 5.87109C21.6797 5.87109 21.5391 6.03516 21.5391 6.28125L21.5391 7.86328C21.5391 8.77734 21.9492 9.5625 22.6758 10.1133C23.1914 10.5117 23.9766 10.793 23.9766 11.8477Z" fill="black" fill-opacity="0.85"/>
  <path d="M36.6445 12.4922L30.6211 8.91797C30.1641 8.64844 29.5547 8.87109 29.5547 9.36328L29.5547 16.7461C29.5547 17.25 30.1289 17.4844 30.6211 17.1914L36.6445 13.6406C37.1133 13.3711 37.0898 12.75 36.6445 12.4922Z" fill="black" fill-opacity="0.85"/>
 </g>
</svg>
