<?xml version="1.0" encoding="UTF-8"?>
<!--Generator: Apple Native CoreSVG 360-->
<!DOCTYPE svg
PUBLIC "-//W3C//DTD SVG 1.1//EN"
       "http://www.w3.org/Graphics/SVG/1.1/DTD/svg11.dtd">
<svg version="1.1" xmlns="http://www.w3.org/2000/svg" xmlns:xlink="http://www.w3.org/1999/xlink" viewBox="0 0 31.7695 26.1445">
 <g>
  <rect height="26.1445" opacity="0" width="31.7695" x="0" y="0"/>
  <path d="M5.80078 25.2656L7.67578 25.2656L7.6875 3C7.6875 2.27344 8.03906 1.88672 8.78906 1.88672L18.6328 1.88672C19.3594 1.88672 19.7461 2.26172 19.7461 3L19.7461 25.2656L21.6328 25.2656L21.6328 2.97656C21.6328 1.05469 20.5898 0 18.668 0L8.75391 0C6.82031 0 5.80078 1.05469 5.80078 2.97656ZM9.50391 10.6172L17.918 10.6172C18.3164 10.6172 18.6094 10.3242 18.6094 9.92578L18.6094 3.71484C18.6094 3.31641 18.3164 3.02344 17.918 3.02344L9.50391 3.02344C9.10547 3.02344 8.8125 3.31641 8.8125 3.71484L8.8125 9.92578C8.8125 10.3242 9.10547 10.6172 9.50391 10.6172ZM3.9375 25.1836C3.9375 25.7109 4.35938 26.1445 4.875 26.1445L22.5469 26.1445C23.0625 26.1445 23.4844 25.7109 23.4844 25.1836C23.4844 24.6797 23.0625 24.2578 22.5469 24.2578L4.875 24.2578C4.37109 24.2578 3.9375 24.668 3.9375 25.1836ZM27.9258 11.8477L27.9258 19.3242C27.9258 20.8828 27.2344 21.7734 26.0508 21.7734C24.9727 21.7734 24.2812 21.0586 24.2812 19.9102C24.2812 18.1875 24.5625 15.9023 24.5625 13.8047C24.5625 11.7539 23.5547 10.1953 21.082 9.375L20.5078 10.6641C22.3945 11.2383 23.1445 12.3984 23.1445 13.8047C23.1445 15.6797 22.8633 17.9648 22.8633 19.9102C22.8633 21.9258 24.0938 23.2031 26.0508 23.2031C28.1367 23.2031 29.3438 21.7852 29.3438 19.3242L29.3438 11.8477C29.3438 10.793 30.1289 10.5117 30.6328 10.1133C31.3711 9.5625 31.7695 8.77734 31.7695 7.86328L31.7695 6.28125C31.7695 6.03516 31.6289 5.87109 31.4062 5.87109L30.6562 5.87109L30.6562 3.75C30.6562 3.43359 30.3984 3.16406 30.0586 3.16406C29.7539 3.16406 29.4727 3.43359 29.4727 3.75L29.4727 5.87109L27.9023 5.87109L27.9023 3.75C27.9023 3.43359 27.6562 3.16406 27.3281 3.16406C27 3.16406 26.7422 3.43359 26.7422 3.75L26.7422 5.87109L25.8516 5.87109C25.6289 5.87109 25.4766 6.03516 25.4766 6.28125L25.4766 7.86328C25.4766 8.77734 25.8867 9.5625 26.625 10.1133C27.1289 10.5117 27.9258 10.793 27.9258 11.8477Z" fill="black" fill-opacity="0.85"/>
 </g>
</svg>
