<?xml version="1.0" encoding="UTF-8"?>
<!--Generator: Apple Native CoreSVG 360-->
<!DOCTYPE svg
PUBLIC "-//W3C//DTD SVG 1.1//EN"
       "http://www.w3.org/Graphics/SVG/1.1/DTD/svg11.dtd">
<svg version="1.1" xmlns="http://www.w3.org/2000/svg" xmlns:xlink="http://www.w3.org/1999/xlink" viewBox="0 0 36.6857 26.1445">
 <g>
  <rect height="26.1445" opacity="0" width="36.6857" x="0" y="0"/>
  <path d="M10.3624 25.2656L12.2374 25.2656L12.2491 3C12.2491 2.27344 12.6006 1.88672 13.3506 1.88672L23.1944 1.88672C23.921 1.88672 24.3077 2.26172 24.3077 3L24.3077 25.2656L26.2061 25.2656L26.2061 2.97656C26.2061 1.05469 25.1514 0 23.2295 0L13.3155 0C11.3819 0 10.3624 1.05469 10.3624 2.97656ZM14.0655 10.6172L22.4795 10.6172C22.878 10.6172 23.171 10.3242 23.171 9.92578L23.171 3.71484C23.171 3.31641 22.878 3.02344 22.4795 3.02344L14.0655 3.02344C13.667 3.02344 13.3741 3.31641 13.3741 3.71484L13.3741 9.92578C13.3741 10.3242 13.667 10.6172 14.0655 10.6172ZM8.49908 25.1836C8.49908 25.7109 8.92095 26.1445 9.43658 26.1445L27.1085 26.1445C27.6241 26.1445 28.0577 25.7109 28.0577 25.1836C28.0577 24.6797 27.6241 24.2578 27.1085 24.2578L9.43658 24.2578C8.93267 24.2578 8.49908 24.668 8.49908 25.1836ZM32.4874 11.8477L32.4874 19.3242C32.4874 20.8828 31.796 21.7734 30.6124 21.7734C29.5342 21.7734 28.8428 21.0586 28.8428 19.9102C28.8428 18.1875 29.1241 15.9023 29.1241 13.8047C29.1241 11.7539 28.1163 10.1953 25.6436 9.375L25.0694 10.6641C26.9561 11.2383 27.7178 12.3984 27.7178 13.8047C27.7178 15.6797 27.4366 17.9648 27.4366 19.9102C27.4366 21.9258 28.6553 23.2031 30.6124 23.2031C32.6983 23.2031 33.9053 21.7852 33.9053 19.3242L33.9053 11.8477C33.9053 10.793 34.6905 10.5117 35.1944 10.1133C35.9444 9.5625 36.3311 8.77734 36.3311 7.86328L36.3311 6.28125C36.3311 6.03516 36.1905 5.87109 35.9678 5.87109L35.2295 5.87109L35.2295 3.75C35.2295 3.43359 34.96 3.16406 34.6202 3.16406C34.3155 3.16406 34.0342 3.43359 34.0342 3.75L34.0342 5.87109L32.4639 5.87109L32.4756 3.75C32.4756 3.43359 32.2178 3.16406 31.8897 3.16406C31.5616 3.16406 31.3038 3.43359 31.3038 3.75L31.3038 5.87109L30.4131 5.87109C30.1905 5.87109 30.0381 6.03516 30.0381 6.28125L30.0381 7.86328C30.0381 8.77734 30.4483 9.5625 31.1866 10.1133C31.7022 10.5117 32.4874 10.793 32.4874 11.8477Z" fill="black" fill-opacity="0.85"/>
  <path d="M0.34283 12.4922C-0.102483 12.75-0.12592 13.3711 0.34283 13.6406L6.36627 17.1914C6.85845 17.4844 7.43267 17.25 7.43267 16.7461L7.43267 9.36328C7.43267 8.87109 6.8233 8.64844 6.36627 8.91797Z" fill="black" fill-opacity="0.85"/>
 </g>
</svg>
