<?xml version="1.0" encoding="UTF-8"?>
<!--Generator: Apple Native CoreSVG 360-->
<!DOCTYPE svg
PUBLIC "-//W3C//DTD SVG 1.1//EN"
       "http://www.w3.org/Graphics/SVG/1.1/DTD/svg11.dtd">
<svg version="1.1" xmlns="http://www.w3.org/2000/svg" xmlns:xlink="http://www.w3.org/1999/xlink" viewBox="0 0 24.2578 23.918">
 <g>
  <rect height="23.918" opacity="0" width="24.2578" x="0" y="0"/>
  <path d="M11.9531 23.9062C18.5508 23.9062 23.9062 18.5508 23.9062 11.9531C23.9062 5.35547 18.5508 0 11.9531 0C5.35547 0 0 5.35547 0 11.9531C0 18.5508 5.35547 23.9062 11.9531 23.9062ZM11.9531 21.9141C6.44531 21.9141 1.99219 17.4609 1.99219 11.9531C1.99219 6.44531 6.44531 1.99219 11.9531 1.99219C17.4609 1.99219 21.9141 6.44531 21.9141 11.9531C21.9141 17.4609 17.4609 21.9141 11.9531 21.9141Z" fill="black" fill-opacity="0.85"/>
  <path d="M7.42969 15.4219C9.33984 15.4219 10.8984 13.875 10.8984 11.9531C10.8984 10.0312 9.33984 8.48438 7.42969 8.48438C5.50781 8.48438 3.94922 10.0312 3.94922 11.9531C3.94922 13.875 5.50781 15.4219 7.42969 15.4219ZM16.4883 15.4219C18.3984 15.4219 19.957 13.875 19.957 11.9531C19.957 10.0312 18.3984 8.48438 16.4883 8.48438C14.5664 8.48438 13.0078 10.0312 13.0078 11.9531C13.0078 13.875 14.5664 15.4219 16.4883 15.4219ZM10.1836 7.66406C10.3945 7.875 10.7227 7.875 10.9453 7.66406L11.9414 6.65625L12.9492 7.66406C13.1602 7.875 13.4883 7.875 13.6992 7.66406C13.9219 7.45312 13.9219 7.125 13.6992 6.90234L12.7031 5.89453L13.6992 4.89844C13.9219 4.67578 13.9219 4.34766 13.6992 4.13672C13.4883 3.91406 13.1719 3.91406 12.9492 4.13672L11.9414 5.14453L10.9453 4.13672C10.7109 3.91406 10.3945 3.91406 10.1836 4.13672C9.97266 4.34766 9.97266 4.6875 10.1836 4.89844L11.1797 5.89453L10.1836 6.90234C9.97266 7.11328 9.97266 7.45312 10.1836 7.66406ZM10.1836 19.7578C10.3945 19.9805 10.7227 19.9688 10.9453 19.7578L11.9414 18.75L12.9492 19.7578C13.1602 19.9688 13.4883 19.9805 13.6992 19.7578C13.9219 19.5469 13.9102 19.207 13.6992 18.9961L12.7031 18L13.6992 16.9922C13.9102 16.7812 13.9219 16.4531 13.6992 16.2305C13.4883 16.0078 13.1602 16.0195 12.9492 16.2305L11.9414 17.2383L10.9453 16.2305C10.7227 16.0195 10.3945 16.0078 10.1836 16.2305C9.96094 16.4531 9.97266 16.7812 10.1836 16.9922L11.1797 18L10.1836 18.9961C9.97266 19.207 9.96094 19.5469 10.1836 19.7578Z" fill="black" fill-opacity="0.85"/>
 </g>
</svg>
