<?xml version="1.0" encoding="UTF-8"?>
<!--Generator: Apple Native CoreSVG 360-->
<!DOCTYPE svg
PUBLIC "-//W3C//DTD SVG 1.1//EN"
       "http://www.w3.org/Graphics/SVG/1.1/DTD/svg11.dtd">
<svg version="1.1" xmlns="http://www.w3.org/2000/svg" xmlns:xlink="http://www.w3.org/1999/xlink" viewBox="0 0 24.2578 23.918">
 <g>
  <rect height="23.918" opacity="0" width="24.2578" x="0" y="0"/>
  <path d="M11.9531 23.9062C18.5508 23.9062 23.9062 18.5508 23.9062 11.9531C23.9062 5.35547 18.5508 0 11.9531 0C5.35547 0 0 5.35547 0 11.9531C0 18.5508 5.35547 23.9062 11.9531 23.9062ZM11.9531 21.9141C6.44531 21.9141 1.99219 17.4609 1.99219 11.9531C1.99219 6.44531 6.44531 1.99219 11.9531 1.99219C17.4609 1.99219 21.9141 6.44531 21.9141 11.9531C21.9141 17.4609 17.4609 21.9141 11.9531 21.9141Z" fill="black" fill-opacity="0.85"/>
  <path d="M7.78125 11.0391C9.24609 11.0391 10.418 9.86719 10.418 8.41406C10.418 6.94922 9.24609 5.77734 7.78125 5.77734C6.32812 5.77734 5.14453 6.94922 5.14453 8.41406C5.14453 9.86719 6.32812 11.0391 7.78125 11.0391ZM16.1016 11.0391C17.5547 11.0391 18.7383 9.86719 18.7383 8.41406C18.7383 6.94922 17.5547 5.77734 16.1016 5.77734C14.6484 5.77734 13.4648 6.94922 13.4648 8.41406C13.4648 9.86719 14.6484 11.0391 16.1016 11.0391ZM11.9414 20.4961C13.3945 20.4961 14.5781 19.3125 14.5781 17.8594C14.5781 16.4062 13.3945 15.2227 11.9414 15.2227C10.4883 15.2227 9.30469 16.4062 9.30469 17.8594C9.30469 19.3125 10.4883 20.4961 11.9414 20.4961ZM6.02344 16.7812C7.06641 16.7812 7.91016 15.9258 7.91016 14.8945C7.91016 13.8516 7.06641 13.0078 6.02344 13.0078C4.99219 13.0078 4.13672 13.8516 4.13672 14.8945C4.13672 15.9258 4.99219 16.7812 6.02344 16.7812ZM17.8594 16.7812C18.9023 16.7812 19.7461 15.9258 19.7461 14.8945C19.7461 13.8516 18.9023 13.0078 17.8594 13.0078C16.8164 13.0078 15.9727 13.8516 15.9727 14.8945C15.9727 15.9258 16.8164 16.7812 17.8594 16.7812Z" fill="black" fill-opacity="0.85"/>
 </g>
</svg>
