<?xml version="1.0" encoding="UTF-8"?>
<!--Generator: Apple Native CoreSVG 360-->
<!DOCTYPE svg
PUBLIC "-//W3C//DTD SVG 1.1//EN"
       "http://www.w3.org/Graphics/SVG/1.1/DTD/svg11.dtd">
<svg version="1.1" xmlns="http://www.w3.org/2000/svg" xmlns:xlink="http://www.w3.org/1999/xlink" viewBox="0 0 33.7969 22.8633">
 <g>
  <rect height="22.8633" opacity="0" width="33.7969" x="0" y="0"/>
  <path d="M0 11.4258C0 15.1406 1.20703 18.5508 3.24609 21.3281C3.60938 21.832 4.23047 21.8789 4.69922 21.5039C5.12109 21.1406 5.17969 20.5781 4.83984 20.1094C3.05859 17.6836 2.00391 14.6719 2.00391 11.4258C2.00391 8.16797 3.05859 5.16797 4.83984 2.71875C5.17969 2.27344 5.13281 1.69922 4.69922 1.33594C4.23047 0.960938 3.60938 1.01953 3.24609 1.51172C1.20703 4.28906 0 7.71094 0 11.4258ZM33.4453 11.4258C33.4453 7.71094 32.25 4.28906 30.1992 1.51172C29.8359 1.01953 29.2148 0.960938 28.7461 1.33594C28.3125 1.69922 28.2773 2.27344 28.6055 2.71875C30.3984 5.16797 31.4414 8.16797 31.4414 11.4258C31.4414 14.6719 30.3984 17.6836 28.6055 20.1094C28.2773 20.5781 28.3242 21.1406 28.7461 21.5039C29.2148 21.8789 29.8359 21.832 30.1992 21.3281C32.25 18.5508 33.4453 15.1406 33.4453 11.4258Z" fill="black" fill-opacity="0.85"/>
  <path d="M16.7227 22.8516C23.0391 22.8516 28.1602 17.7305 28.1602 11.4258C28.1602 5.10938 23.0391 0 16.7227 0C10.418 0 5.29688 5.10938 5.29688 11.4258C5.29688 17.7305 10.418 22.8516 16.7227 22.8516ZM16.7227 20.8594C11.5195 20.8594 7.28906 16.6289 7.28906 11.4258C7.28906 6.21094 11.5195 1.98047 16.7227 1.98047C21.9375 1.98047 26.168 6.21094 26.168 11.4258C26.168 16.6289 21.9375 20.8594 16.7227 20.8594Z" fill="black" fill-opacity="0.85"/>
  <path d="M16.7227 13.5352C17.2852 13.5352 17.6016 13.2188 17.6133 12.6094L17.7891 6.42188C17.8008 5.82422 17.332 5.37891 16.7109 5.37891C16.0781 5.37891 15.6328 5.8125 15.6445 6.41016L15.7969 12.6094C15.8086 13.207 16.1367 13.5352 16.7227 13.5352ZM16.7227 17.3438C17.3906 17.3438 17.9766 16.8047 17.9766 16.125C17.9766 15.4453 17.4023 14.9062 16.7227 14.9062C16.0312 14.9062 15.457 15.457 15.457 16.125C15.457 16.793 16.043 17.3438 16.7227 17.3438Z" fill="black" fill-opacity="0.85"/>
 </g>
</svg>
