<?xml version="1.0" encoding="UTF-8"?>
<!--Generator: Apple Native CoreSVG 360-->
<!DOCTYPE svg
PUBLIC "-//W3C//DTD SVG 1.1//EN"
       "http://www.w3.org/Graphics/SVG/1.1/DTD/svg11.dtd">
<svg version="1.1" xmlns="http://www.w3.org/2000/svg" xmlns:xlink="http://www.w3.org/1999/xlink" viewBox="0 0 3.67969 22.4414">
 <g>
  <rect height="22.4414" opacity="0" width="3.67969" x="0" y="0"/>
  <path d="M1.67578 15.9844C2.29688 15.9844 2.71875 15.5742 2.73047 14.9414L2.83594 1.28906C2.83594 1.28906 2.83594 1.28906 2.83594 1.28906C2.83594 0.621094 2.29688 0.164062 1.66406 0.164062C1.03125 0.164062 0.492188 0.621094 0.492188 1.28906C0.492188 1.28906 0.492188 1.28906 0.492188 1.28906L0.621094 14.9414C0.632812 15.5742 1.05469 15.9844 1.67578 15.9844ZM1.66406 22.4414C2.58984 22.4414 3.32812 21.6914 3.32812 20.7773C3.32812 19.8516 2.58984 19.1133 1.66406 19.1133C0.75 19.1133 0 19.8516 0 20.7773C0 21.6914 0.75 22.4414 1.66406 22.4414Z" fill="black" fill-opacity="0.85"/>
 </g>
</svg>
