<?xml version="1.0" encoding="UTF-8"?>
<!--Generator: Apple Native CoreSVG 360-->
<!DOCTYPE svg
PUBLIC "-//W3C//DTD SVG 1.1//EN"
       "http://www.w3.org/Graphics/SVG/1.1/DTD/svg11.dtd">
<svg version="1.1" xmlns="http://www.w3.org/2000/svg" xmlns:xlink="http://www.w3.org/1999/xlink" viewBox="0 0 28.0195 20.0273">
 <g>
  <rect height="20.0273" opacity="0" width="28.0195" x="0" y="0"/>
  <path d="M0 14.7422C0 17.7188 2.30859 20.0273 5.56641 20.0273L22.1016 20.0273C25.3594 20.0273 27.668 17.7188 27.668 14.7422C27.668 13.8633 27.4102 13.0781 27.1055 12.3398L23.1562 2.85938C22.3828 0.984375 20.7891 0.0234375 18.6914 0.0234375L8.97656 0.0234375C6.87891 0.0234375 5.28516 0.984375 4.51172 2.85938L0.550781 12.3398C0.257812 13.0664 0 13.8633 0 14.7422ZM1.88672 14.7422C1.88672 12.8086 3.35156 11.3438 5.56641 11.3438L22.1016 11.3438C24.3164 11.3438 25.7812 12.8086 25.7812 14.7422C25.7812 16.9102 24.3164 18.1406 22.1016 18.1406L5.56641 18.1406C3.35156 18.1406 1.88672 16.6758 1.88672 14.7422ZM3.78516 9.76172L6.33984 3.33984C6.78516 2.22656 7.74609 1.66406 9.07031 1.66406L18.5977 1.66406C19.9219 1.66406 20.8828 2.22656 21.3281 3.33984L23.8828 9.76172C23.332 9.5625 22.7461 9.45703 22.1016 9.45703L5.56641 9.45703C4.92188 9.45703 4.32422 9.5625 3.78516 9.76172ZM20.6133 14.7422C20.6133 15.5625 21.293 16.1953 22.0898 16.1953C22.875 16.1953 23.543 15.5508 23.543 14.7422C23.543 13.957 22.875 13.2891 22.0898 13.2891C21.293 13.2891 20.6133 13.957 20.6133 14.7422Z" fill="black" fill-opacity="0.85"/>
 </g>
</svg>
