<?xml version="1.0" encoding="UTF-8"?>
<!--Generator: Apple Native CoreSVG 360-->
<!DOCTYPE svg
PUBLIC "-//W3C//DTD SVG 1.1//EN"
       "http://www.w3.org/Graphics/SVG/1.1/DTD/svg11.dtd">
<svg version="1.1" xmlns="http://www.w3.org/2000/svg" xmlns:xlink="http://www.w3.org/1999/xlink" viewBox="0 0 25.1953 26.168">
 <g>
  <rect height="26.168" opacity="0" width="25.1953" x="0" y="0"/>
  <path d="M13.1602 20.6456C13.8938 20.9167 14.482 21.5 14.7598 22.2305L21.9609 22.2305C22.4766 22.2305 22.9102 22.6641 22.9102 23.1797C22.9102 23.6953 22.4766 24.1172 21.9609 24.1172L14.7751 24.1172C14.3962 25.1668 13.3885 25.9219 12.2227 25.9219C11.0476 25.9219 10.038 25.1668 9.65865 24.1172L2.47266 24.1172C1.95703 24.1172 1.53516 23.6953 1.53516 23.1797C1.53516 22.6641 1.95703 22.2305 2.47266 22.2305L9.67391 22.2305C9.9514 21.5019 10.5385 20.9196 11.2734 20.6476L11.2734 18.0117L13.1602 18.0117Z" fill="black" fill-opacity="0.85"/>
  <path d="M0 13.207C0 15.9727 2.14453 18.0117 5.0625 18.0117L19.7812 18.0117C22.6992 18.0117 24.8438 15.9727 24.8438 13.207C24.8438 12.4102 24.6328 11.6836 24.3516 11.0273L20.8242 2.57812C20.1328 0.902344 18.7148 0 16.7578 0L8.08594 0C6.14062 0 4.69922 0.902344 4.00781 2.57812L0.492188 11.0273C0.199219 11.707 0 12.4219 0 13.207ZM3.63281 8.61328L5.82422 3.09375C6.19922 2.13281 7.00781 1.64062 8.17969 1.64062L16.6758 1.64062C17.8477 1.64062 18.6562 2.13281 19.0312 3.09375L21.2227 8.61328C20.7656 8.47266 20.2852 8.39062 19.7812 8.39062L5.0625 8.39062C4.55859 8.39062 4.07812 8.47266 3.63281 8.61328ZM1.86328 13.207C1.86328 11.4844 3.17578 10.2656 5.0625 10.2656L19.7812 10.2656C21.668 10.2656 22.9805 11.4844 22.9805 13.207C22.9805 15.0469 21.7852 16.1484 19.7812 16.1484L5.0625 16.1484C3.17578 16.1484 1.86328 14.9297 1.86328 13.207ZM18.375 13.207C18.375 13.9688 18.9961 14.6016 19.7695 14.5898C20.5195 14.5781 21.1523 13.957 21.1523 13.207C21.1523 12.457 20.5078 11.8242 19.7695 11.8242C19.0195 11.8242 18.375 12.457 18.375 13.207Z" fill="black" fill-opacity="0.85"/>
 </g>
</svg>
