<?xml version="1.0" encoding="UTF-8"?>
<!--Generator: Apple Native CoreSVG 360-->
<!DOCTYPE svg
PUBLIC "-//W3C//DTD SVG 1.1//EN"
       "http://www.w3.org/Graphics/SVG/1.1/DTD/svg11.dtd">
<svg version="1.1" xmlns="http://www.w3.org/2000/svg" xmlns:xlink="http://www.w3.org/1999/xlink" viewBox="0 0 32.3789 20.0977">
 <g>
  <rect height="20.0977" opacity="0" width="32.3789" x="0" y="0"/>
  <path d="M16.0195 20.0977C25.4883 20.0977 32.0273 12.4453 32.0273 10.0547C32.0273 7.65234 25.4766 0.0117188 16.0195 0.0117188C6.67969 0.0117188 0 7.65234 0 10.0547C0 12.4453 6.66797 20.0977 16.0195 20.0977ZM16.0195 18.2461C8.29688 18.2461 2.05078 11.707 2.05078 10.0547C2.05078 8.66016 8.29688 1.86328 16.0195 1.86328C23.707 1.86328 29.9766 8.66016 29.9766 10.0547C29.9766 11.707 23.707 18.2461 16.0195 18.2461ZM16.0195 16.6055C19.6523 16.6055 22.5938 13.6641 22.5938 10.0312C22.5938 6.39844 19.6523 3.45703 16.0195 3.45703C12.3867 3.45703 9.43359 6.39844 9.43359 10.0312C9.43359 13.6641 12.3867 16.6055 16.0195 16.6055ZM16.0195 12.2227C14.8125 12.2227 13.8398 11.25 13.8398 10.043C13.8398 8.83594 14.8125 7.86328 16.0195 7.86328C17.2266 7.86328 18.1992 8.83594 18.1992 10.043C18.1992 11.25 17.2266 12.2227 16.0195 12.2227Z" fill="black" fill-opacity="0.85"/>
 </g>
</svg>
