<?xml version="1.0" encoding="UTF-8"?>
<!--Generator: Apple Native CoreSVG 360-->
<!DOCTYPE svg
PUBLIC "-//W3C//DTD SVG 1.1//EN"
       "http://www.w3.org/Graphics/SVG/1.1/DTD/svg11.dtd">
<svg version="1.1" xmlns="http://www.w3.org/2000/svg" xmlns:xlink="http://www.w3.org/1999/xlink" viewBox="0 0 24.2578 23.918">
 <g>
  <rect height="23.918" opacity="0" width="24.2578" x="0" y="0"/>
  <path d="M11.9531 23.9062C18.5508 23.9062 23.9062 18.5508 23.9062 11.9531C23.9062 5.35547 18.5508 0 11.9531 0C5.35547 0 0 5.35547 0 11.9531C0 18.5508 5.35547 23.9062 11.9531 23.9062ZM11.9531 21.9141C6.44531 21.9141 1.99219 17.4609 1.99219 11.9531C1.99219 6.44531 6.44531 1.99219 11.9531 1.99219C17.4609 1.99219 21.9141 6.44531 21.9141 11.9531C21.9141 17.4609 17.4609 21.9141 11.9531 21.9141Z" fill="black" fill-opacity="0.85"/>
  <path d="M9.36328 17.3203C9.97266 17.3203 10.3008 16.9102 10.3008 16.2656L10.3008 12.6328L14.5312 12.6328C14.9883 12.6328 15.3164 12.3867 15.3164 11.918C15.3164 11.4375 14.9883 11.168 14.5312 11.168L10.3008 11.168L10.3008 8.03906L14.9883 8.03906C15.4453 8.03906 15.7734 7.73438 15.7734 7.26562C15.7734 6.78516 15.4453 6.50391 14.9883 6.50391L9.35156 6.50391C8.75391 6.50391 8.4375 6.92578 8.4375 7.55859L8.4375 16.2656C8.4375 16.8867 8.75391 17.3203 9.36328 17.3203Z" fill="black" fill-opacity="0.85"/>
 </g>
</svg>
