<?xml version="1.0" encoding="UTF-8"?>
<!--Generator: Apple Native CoreSVG 360-->
<!DOCTYPE svg
PUBLIC "-//W3C//DTD SVG 1.1//EN"
       "http://www.w3.org/Graphics/SVG/1.1/DTD/svg11.dtd">
<svg version="1.1" xmlns="http://www.w3.org/2000/svg" xmlns:xlink="http://www.w3.org/1999/xlink" viewBox="0 0 15.0938 20.707">
 <g>
  <rect height="20.707" opacity="0" width="15.0938" x="0" y="0"/>
  <path d="M2.73047 20.707C5.39062 20.707 7.14844 19.1836 7.57031 16.125L9.04688 5.42578C9.33984 3.26953 10.2539 2.36719 11.8594 2.36719C13.043 2.36719 13.4062 2.51953 13.8867 2.51953C14.3906 2.51953 14.7422 2.20312 14.7422 1.65234C14.7422 0.75 13.3711 0.503906 12.0117 0.503906C9.35156 0.503906 7.59375 2.02734 7.17188 5.08594L5.70703 15.7969C5.41406 17.9531 4.48828 18.8438 2.88281 18.8438C1.71094 18.8438 1.35938 18.6914 0.867188 18.6914C0.351562 18.6914 0 19.0078 0 19.5586C0 20.4727 1.37109 20.707 2.73047 20.707ZM2.13281 10.7344L13.5469 10.7344C14.1094 10.7344 14.5078 10.3477 14.5078 9.80859C14.5078 9.26953 14.0977 8.87109 13.5352 8.87109L2.12109 8.87109C1.55859 8.87109 1.16016 9.25781 1.16016 9.80859C1.16016 10.3477 1.57031 10.7344 2.13281 10.7344Z" fill="black" fill-opacity="0.85"/>
 </g>
</svg>
