<?xml version="1.0" encoding="UTF-8"?>
<!--Generator: Apple Native CoreSVG 360-->
<!DOCTYPE svg
PUBLIC "-//W3C//DTD SVG 1.1//EN"
       "http://www.w3.org/Graphics/SVG/1.1/DTD/svg11.dtd">
<svg version="1.1" xmlns="http://www.w3.org/2000/svg" xmlns:xlink="http://www.w3.org/1999/xlink" viewBox="0 0 21.9258 21.5742">
 <g>
  <rect height="21.5742" opacity="0" width="21.9258" x="0" y="0"/>
  <path d="M3.67969 21.5742L17.8945 21.5742C20.3555 21.5742 21.5742 20.3672 21.5742 17.9531L21.5742 3.63281C21.5742 1.21875 20.3555 0 17.8945 0L3.67969 0C1.23047 0 0 1.21875 0 3.63281L0 17.9531C0 20.3672 1.23047 21.5742 3.67969 21.5742ZM3.70312 19.6875C2.53125 19.6875 1.88672 19.0664 1.88672 17.8477L1.88672 3.73828C1.88672 2.51953 2.53125 1.88672 3.70312 1.88672L17.8711 1.88672C19.0312 1.88672 19.6875 2.51953 19.6875 3.73828L19.6875 17.8477C19.6875 19.0664 19.0312 19.6875 17.8711 19.6875Z" fill="black" fill-opacity="0.85"/>
  <path d="M8.21484 16.1602C8.82422 16.1602 9.16406 15.75 9.16406 15.1055L9.16406 11.4727L13.3828 11.4727C13.8398 11.4727 14.168 11.2266 14.168 10.7578C14.168 10.2773 13.8398 10.0078 13.3828 10.0078L9.16406 10.0078L9.16406 6.87891L13.8398 6.87891C14.2969 6.87891 14.625 6.57422 14.625 6.10547C14.625 5.625 14.2969 5.34375 13.8398 5.34375L8.20312 5.34375C7.60547 5.34375 7.28906 5.76562 7.28906 6.39844L7.28906 15.1055C7.28906 15.7266 7.60547 16.1602 8.21484 16.1602Z" fill="black" fill-opacity="0.85"/>
 </g>
</svg>
