<?xml version="1.0" encoding="UTF-8"?>
<!--Generator: Apple Native CoreSVG 360-->
<!DOCTYPE svg
PUBLIC "-//W3C//DTD SVG 1.1//EN"
       "http://www.w3.org/Graphics/SVG/1.1/DTD/svg11.dtd">
<svg version="1.1" xmlns="http://www.w3.org/2000/svg" xmlns:xlink="http://www.w3.org/1999/xlink" viewBox="0 0 36.1758 18.0117">
 <g>
  <rect height="18.0117" opacity="0" width="36.1758" x="0" y="0"/>
  <path d="M6.01172 5.4375L6.01172 5.60156L3.83203 5.60156C2.57812 5.60156 1.88672 6.39844 1.88672 7.69922C1.88672 10.1487 3.57034 11.9655 6.10999 12.1962C6.23662 12.8854 6.52988 13.5259 6.9684 14.1094L6.85547 14.1094C2.74219 14.1094 0 11.4727 0 7.69922C0 5.21484 1.40625 3.71484 3.83203 3.71484L6.41424 3.71484C6.1452 4.23562 6.01172 4.81127 6.01172 5.4375ZM35.8242 7.69922C35.8242 11.4727 33.082 14.1094 28.9805 14.1094L28.856 14.1094C29.2944 13.5259 29.5876 12.8854 29.7142 12.1962C32.2539 11.9655 33.9375 10.1487 33.9375 7.69922C33.9375 6.39844 33.2461 5.60156 31.9922 5.60156L29.8125 5.60156L29.8125 5.4375C29.8125 4.81127 29.679 4.23562 29.41 3.71484L31.9922 3.71484C34.4297 3.71484 35.8242 5.21484 35.8242 7.69922ZM24.082 10.9219C24.082 11.4375 23.6602 11.8594 23.1445 11.8594L12.7031 11.8594C12.1875 11.8594 11.7656 11.4375 11.7656 10.9219C11.7656 10.4062 12.1875 9.97266 12.7031 9.97266L23.1445 9.97266C23.6602 9.97266 24.082 10.4062 24.082 10.9219ZM24.082 6.53906C24.082 7.05469 23.6602 7.48828 23.1445 7.48828L12.7031 7.48828C12.1875 7.48828 11.7656 7.05469 11.7656 6.53906C11.7656 6.03516 12.1875 5.60156 12.7031 5.60156L23.1445 5.60156C23.6602 5.60156 24.082 6.03516 24.082 6.53906Z" fill="black" fill-opacity="0.85"/>
  <path d="M17.918 17.9766C24.8672 17.9766 29.8125 15.2695 29.8125 11.2969L29.8125 5.4375C29.8125 1.92188 25.6055 0 17.918 0C10.2188 0 6.01172 1.92188 6.01172 5.4375L6.01172 11.2969C6.01172 15.2695 10.957 17.9766 17.918 17.9766ZM17.918 16.0898C12.1172 16.0898 7.91016 14.0391 7.91016 11.2969L7.91016 5.4375C7.91016 3.15234 11.4609 1.88672 17.918 1.88672C24.3633 1.88672 27.9258 3.15234 27.9258 5.4375L27.9258 11.2969C27.9258 14.0391 23.707 16.0898 17.918 16.0898Z" fill="black" fill-opacity="0.85"/>
 </g>
</svg>
