<?xml version="1.0" encoding="UTF-8"?>
<!--Generator: Apple Native CoreSVG 360-->
<!DOCTYPE svg
PUBLIC "-//W3C//DTD SVG 1.1//EN"
       "http://www.w3.org/Graphics/SVG/1.1/DTD/svg11.dtd">
<svg version="1.1" xmlns="http://www.w3.org/2000/svg" xmlns:xlink="http://www.w3.org/1999/xlink" viewBox="0 0 24.4805 28.7695">
 <g>
  <rect height="28.7695" opacity="0" width="24.4805" x="0" y="0"/>
  <path d="M4.53516 20.9531L5.70703 23.707C5.88281 24.1055 6.36328 24.1875 6.67969 23.7188L8.14453 21.5977C8.4375 21.1758 8.30859 20.707 7.76953 20.6016L5.20312 20.1562C4.62891 20.0508 4.35938 20.5312 4.53516 20.9531ZM12.0586 28.7695C18.9258 28.7695 24.1289 27.3047 24.1289 24.7969C24.1289 23.1445 21.8672 21.9258 18.3633 21.3281C17.5898 21.1875 17.1914 21.5625 17.1094 22.0078C17.0508 22.4297 17.332 22.9102 17.9414 23.0039C20.6133 23.3906 22.3594 24.1055 22.3594 24.7969C22.3594 25.875 18.1992 27 12.0586 27C5.92969 27 1.76953 25.875 1.76953 24.7969C1.76953 24.1055 3.50391 23.3906 6.17578 23.0039C6.79688 22.9102 7.06641 22.4297 7.00781 22.0078C6.9375 21.5625 6.52734 21.1875 5.76562 21.3281C2.26172 21.9258 0 23.1445 0 24.7969C0 27.3047 5.20312 28.7695 12.0586 28.7695ZM19.5938 20.9531C19.7695 20.5312 19.5 20.0508 18.9258 20.1562L16.3477 20.6016C15.8086 20.707 15.6914 21.1758 15.9727 21.5977L17.4375 23.7188C17.7656 24.1875 18.2461 24.1055 18.4219 23.707Z" fill="black" fill-opacity="0.85"/>
  <path d="M11.543 6.96094L11.543 2.68359C11.543 0.949219 10.6523 0.0234375 8.96484 0.0234375C6.12891 0.0234375 3.15234 2.58984 3.15234 5.0625C3.15234 7.45312 5.44922 8.71875 9.11719 10.0664L9.85547 8.40234C6.65625 7.18359 4.92188 6.46875 4.92188 5.0625C4.92188 3.5625 7.06641 1.79297 8.96484 1.79297C9.65625 1.79297 9.76172 1.88672 9.76172 2.68359L9.76172 7.48828ZM14.5781 8.92969L18.8438 8.92969C20.5664 8.92969 21.5039 8.03906 21.5039 6.375C21.5039 3.52734 18.9258 0.550781 16.4531 0.550781C14.0742 0.550781 12.7969 2.84766 11.4727 6.51562L13.1367 7.26562C14.332 4.05469 15.0469 2.32031 16.4531 2.32031C17.9648 2.32031 19.7227 4.45312 19.7227 6.375C19.7227 7.06641 19.6523 7.14844 18.8438 7.14844L14.0391 7.14844ZM12.6094 11.9766L12.6094 16.2539C12.6094 17.9883 13.4883 18.8906 15.1641 18.8906C18.0117 18.8906 20.9883 16.3359 20.9883 13.8633C20.9883 11.4727 18.6914 10.207 15.0234 8.87109L14.2734 10.5234C17.4727 11.7422 19.2188 12.457 19.2188 13.8633C19.2188 15.3633 17.0625 17.1328 15.1641 17.1094C14.4609 17.1094 14.3906 17.0391 14.3906 16.2539L14.3906 11.4492ZM9.55078 9.98438L5.28516 9.98438C3.55078 9.98438 2.63672 10.8867 2.63672 12.5508C2.63672 15.4102 5.19141 18.375 7.67578 18.375C10.0664 18.375 11.332 16.0898 12.668 12.4102L11.0039 11.6602C9.78516 14.8828 9.08203 16.5938 7.67578 16.5938C6.15234 16.5938 4.41797 14.4727 4.41797 12.5508C4.41797 11.8477 4.5 11.7656 5.28516 11.7656L10.0898 11.7656ZM12.0703 12.7852C13.8984 12.7852 15.3984 11.2852 15.3984 9.45703C15.3984 7.61719 13.8984 6.12891 12.0703 6.12891C10.2305 6.12891 8.73047 7.61719 8.73047 9.45703C8.73047 11.2852 10.2305 12.7852 12.0703 12.7852ZM12.0703 11.0391C11.1914 11.0391 10.4766 10.3242 10.4766 9.45703C10.4766 8.57812 11.1914 7.875 12.0703 7.875C12.9375 7.875 13.6523 8.57812 13.6523 9.45703C13.6523 10.3242 12.9375 11.0391 12.0703 11.0391Z" fill="black" fill-opacity="0.85"/>
 </g>
</svg>
