<?xml version="1.0" encoding="UTF-8"?>
<!--Generator: Apple Native CoreSVG 360-->
<!DOCTYPE svg
PUBLIC "-//W3C//DTD SVG 1.1//EN"
       "http://www.w3.org/Graphics/SVG/1.1/DTD/svg11.dtd">
<svg version="1.1" xmlns="http://www.w3.org/2000/svg" xmlns:xlink="http://www.w3.org/1999/xlink" viewBox="0 0 19.0547 27.293">
 <g>
  <rect height="27.293" opacity="0" width="19.0547" x="0" y="0"/>
  <path d="M4.08984 27.293L14.625 27.293C15.0586 27.293 15.3398 26.9766 15.3398 26.5195C15.3398 25.6406 14.625 25.0195 13.5117 25.0195L10.3008 25.0195L10.3008 18.6562C15.0234 18.1758 18.7031 14.2031 18.7031 9.35156C18.7031 4.19531 14.5195 0 9.35156 0C4.18359 0 0 4.19531 0 9.35156C0 14.2031 3.69141 18.1875 8.41406 18.6562L8.41406 25.0195L5.19141 25.0195C4.07812 25.0195 3.36328 25.6406 3.36328 26.5195C3.36328 26.9766 3.64453 27.293 4.08984 27.293ZM9.36328 16.9922C5.14453 16.9922 1.73438 13.5703 1.73438 9.35156C1.73438 5.14453 5.14453 1.72266 9.36328 1.72266C13.582 1.72266 16.9922 5.14453 16.9922 9.35156C16.9922 13.5703 13.582 16.9922 9.36328 16.9922Z" fill="black" fill-opacity="0.85"/>
  <path d="M7.06641 9.375L8.91797 7.05469L8.91797 4.79297C8.91797 3.76172 8.39062 3.1875 7.38281 3.1875C5.50781 3.1875 3.63281 4.875 3.63281 6.45703C3.63281 7.875 4.86328 8.57812 7.06641 9.375ZM9.33984 7.05469L11.6602 8.90625L13.9336 8.90625C14.9531 8.90625 15.5273 8.37891 15.5273 7.37109C15.5273 5.49609 13.8516 3.63281 12.2578 3.63281C10.8398 3.63281 10.1484 4.85156 9.33984 7.05469ZM11.6602 9.32812L9.80859 11.6484L9.80859 13.9219C9.80859 14.9414 10.3359 15.5156 11.3555 15.5156C13.2188 15.5156 15.0938 13.8398 15.0938 12.2578C15.0938 10.8398 13.8633 10.1367 11.6602 9.32812ZM9.38672 11.6484L7.06641 9.80859L4.80469 9.80859C3.77344 9.80859 3.19922 10.3242 3.19922 11.3438C3.19922 13.207 4.875 15.082 6.46875 15.082C7.88672 15.082 8.58984 13.8516 9.38672 11.6484ZM11.9883 9.35156C11.9883 7.91016 10.8047 6.73828 9.36328 6.73828C7.92188 6.73828 6.73828 7.91016 6.73828 9.35156C6.73828 10.793 7.92188 11.9766 9.36328 11.9766C10.8047 11.9766 11.9883 10.793 11.9883 9.35156ZM9.36328 10.6523C8.64844 10.6523 8.0625 10.0664 8.0625 9.35156C8.0625 8.63672 8.64844 8.05078 9.36328 8.05078C10.0781 8.05078 10.6641 8.63672 10.6641 9.35156C10.6641 10.0664 10.0781 10.6523 9.36328 10.6523Z" fill="black" fill-opacity="0.85"/>
 </g>
</svg>
