<?xml version="1.0" encoding="UTF-8"?>
<!--Generator: Apple Native CoreSVG 360-->
<!DOCTYPE svg
PUBLIC "-//W3C//DTD SVG 1.1//EN"
       "http://www.w3.org/Graphics/SVG/1.1/DTD/svg11.dtd">
<svg version="1.1" xmlns="http://www.w3.org/2000/svg" xmlns:xlink="http://www.w3.org/1999/xlink" viewBox="0 0 24.082 27.293">
 <g>
  <rect height="27.293" opacity="0" width="24.082" x="0" y="0"/>
  <path d="M11.8711 23.7305C18.4219 23.7305 23.7305 18.4219 23.7305 11.8711C23.7305 5.32031 18.4219 0 11.8711 0C5.30859 0 0 5.30859 0 11.8711C0 18.4219 5.30859 23.7305 11.8711 23.7305ZM11.8711 21.8438C6.35156 21.8438 1.88672 17.3789 1.88672 11.8711C1.88672 6.35156 6.35156 1.88672 11.8711 1.88672C17.3789 1.88672 21.8438 6.35156 21.8438 11.8711C21.8438 17.3789 17.3789 21.8438 11.8711 21.8438ZM10.9219 23.0039L10.9219 26.1797L12.8086 26.1797L12.8086 23.0039ZM5.64844 27.293L18.082 27.293C18.5273 27.293 18.8086 26.9766 18.8086 26.5195C18.8086 25.6406 18.0938 25.0195 16.9805 25.0195L6.76172 25.0195C5.64844 25.0195 4.93359 25.6406 4.93359 26.5195C4.93359 26.9766 5.21484 27.293 5.64844 27.293Z" fill="black" fill-opacity="0.85"/>
  <path d="M8.80078 11.8828L11.2852 8.78906L11.2852 5.98828C11.2852 4.65234 10.6055 3.92578 9.29297 3.92578C6.89062 3.92578 4.47656 6.08203 4.47656 8.13281C4.47656 9.92578 6.02344 10.8398 8.80078 11.8828ZM11.8477 8.8125L14.9414 11.2852L17.7422 11.2852C19.0781 11.2852 19.8164 10.6055 19.8164 9.29297C19.8164 6.89062 17.6484 4.47656 15.6094 4.47656C13.8047 4.47656 12.8906 6.03516 11.8477 8.8125ZM14.9297 11.8594L12.4453 14.9414L12.4453 17.7422C12.4453 19.0898 13.125 19.8164 14.4375 19.8164C16.8398 19.8164 19.2539 17.6484 19.2539 15.6094C19.2539 13.8047 17.707 12.9023 14.9297 11.8594ZM11.8828 14.9297L8.78906 12.457L5.98828 12.457C4.65234 12.457 3.91406 13.1367 3.91406 14.4492C3.91406 16.8398 6.08203 19.2539 8.12109 19.2539C9.92578 19.2539 10.8398 17.707 11.8828 14.9297ZM11.8711 15.1875C13.6992 15.1875 15.1875 13.6992 15.1875 11.8711C15.1875 10.0312 13.6992 8.54297 11.8711 8.54297C10.0312 8.54297 8.54297 10.0312 8.54297 11.8711C8.54297 13.6992 10.0312 15.1875 11.8711 15.1875ZM11.8711 13.5352C10.9453 13.5352 10.1953 12.7852 10.1953 11.8711C10.1953 10.9453 10.9453 10.1953 11.8711 10.1953C12.7852 10.1953 13.5352 10.9453 13.5352 11.8711C13.5352 12.7852 12.7852 13.5352 11.8711 13.5352Z" fill="black" fill-opacity="0.85"/>
 </g>
</svg>
