<?xml version="1.0" encoding="UTF-8"?>
<!--Generator: Apple Native CoreSVG 360-->
<!DOCTYPE svg
PUBLIC "-//W3C//DTD SVG 1.1//EN"
       "http://www.w3.org/Graphics/SVG/1.1/DTD/svg11.dtd">
<svg version="1.1" xmlns="http://www.w3.org/2000/svg" xmlns:xlink="http://www.w3.org/1999/xlink" viewBox="0 0 26.4492 22.6055">
 <g>
  <rect height="22.6055" opacity="0" width="26.4492" x="0" y="0"/>
  <path d="M13.043 0C5.83594 0 0 5.83594 0 13.043C0 16.5938 1.41797 19.8516 3.77344 22.2188C4.17188 22.6172 4.79297 22.6406 5.23828 22.2305C5.60156 21.8672 5.53125 21.2344 5.0625 20.7305C3.17578 18.7617 2.02734 16.0195 2.02734 13.043C2.02734 6.87891 6.89062 1.99219 13.043 1.99219C19.207 1.99219 24.0703 6.87891 24.0703 13.043C24.0703 16.0195 22.9219 18.7617 21.0352 20.7305C20.5664 21.2344 20.4961 21.8672 20.8594 22.2305C21.3047 22.6406 21.9258 22.6172 22.3242 22.2188C24.6797 19.8516 26.0977 16.5938 26.0977 13.043C26.0977 5.83594 20.2617 0 13.043 0Z" fill="black" fill-opacity="0.85"/>
  <path d="M13.0664 15.7383C13.2188 15.7383 13.3945 15.7266 13.5352 15.7031L13.5352 17.8125C13.5352 18.9023 14.0859 19.4883 15.1523 19.4883C17.0859 19.4883 19.0547 17.7305 19.0547 16.0781C19.0547 14.6719 17.8828 13.9336 15.75 13.125C15.75 13.1016 15.75 13.0781 15.75 13.043C15.75 12.8906 15.7383 12.7148 15.7148 12.5742L17.8242 12.5742C18.9141 12.5742 19.5 12.0234 19.5 10.957C19.5 9.02344 17.7422 7.05469 16.0898 7.05469C14.6836 7.05469 13.9453 8.22656 13.1367 10.3594C13.1133 10.3594 13.0898 10.3594 13.0664 10.3594C12.9023 10.3594 12.7266 10.3711 12.5977 10.3945L12.5977 8.28516C12.5977 7.19531 12.0352 6.60938 10.9688 6.60938C9.03516 6.60938 7.06641 8.36719 7.06641 10.0195C7.06641 11.4258 8.23828 12.1641 10.3711 12.9727C10.3711 12.9961 10.3711 13.0195 10.3711 13.043C10.3711 13.207 10.3828 13.3828 10.4062 13.5117L8.29688 13.5117C7.20703 13.5117 6.62109 14.0742 6.62109 15.1406C6.62109 17.0742 8.37891 19.043 10.0312 19.043C11.4375 19.043 12.1758 17.8711 12.9844 15.7383C13.0078 15.7383 13.0312 15.7383 13.0664 15.7383ZM13.0664 14.4023C12.3164 14.4023 11.707 13.793 11.707 13.043C11.707 12.3047 12.3164 11.6953 13.0664 11.6953C13.8047 11.6953 14.4141 12.3047 14.4141 13.043C14.4141 13.793 13.8047 14.4023 13.0664 14.4023Z" fill="black" fill-opacity="0.85"/>
 </g>
</svg>
