<?xml version="1.0" encoding="UTF-8"?>
<!--Generator: Apple Native CoreSVG 360-->
<!DOCTYPE svg
PUBLIC "-//W3C//DTD SVG 1.1//EN"
       "http://www.w3.org/Graphics/SVG/1.1/DTD/svg11.dtd">
<svg version="1.1" xmlns="http://www.w3.org/2000/svg" xmlns:xlink="http://www.w3.org/1999/xlink" viewBox="0 0 26.8242 25.6289">
 <g>
  <rect height="25.6289" opacity="0" width="26.8242" x="0" y="0"/>
  <path d="M21.832 3.69141L21.832 4.3125L20.0156 4.3125L20.0156 3.5625C20.0156 2.57812 19.5234 2.09766 18.5391 2.09766L7.93359 2.09766C6.96094 2.09766 6.45703 2.57812 6.45703 3.5625L6.45703 4.3125L4.64062 4.3125L4.64062 3.69141C4.64062 1.40625 5.89453 0.386719 7.95703 0.386719L18.5156 0.386719C20.6953 0.386719 21.832 1.40625 21.832 3.69141Z" fill="black" fill-opacity="0.85"/>
  <path d="M26.4727 7.74609L26.4727 18.7148C26.4727 21 25.2656 22.1484 22.9922 22.1484L21.75 22.1484L21.75 20.3789L23.0156 20.3789C24.0469 20.3789 24.5859 19.8398 24.5859 18.8086L24.5859 7.65234C24.5859 6.62109 24.0469 6.08203 23.0156 6.08203L3.46875 6.08203C2.42578 6.08203 1.89844 6.62109 1.89844 7.65234L1.89844 18.8086C1.89844 19.8398 2.42578 20.3789 3.46875 20.3789L4.72266 20.3789L4.72266 22.1484L3.49219 22.1484C1.20703 22.1484 0 21 0 18.7148L0 7.74609C0 5.47266 1.32422 4.3125 3.49219 4.3125L22.9922 4.3125C25.2656 4.3125 26.4727 5.47266 26.4727 7.74609Z" fill="black" fill-opacity="0.85"/>
  <path d="M8.53125 12.5859L8.53125 13.6641C8.53125 13.9922 8.33203 14.1914 8.00391 14.1914L6.92578 14.1914C6.60938 14.1914 6.41016 13.9922 6.41016 13.6641L6.41016 12.5859C6.41016 12.2578 6.60938 12.0586 6.92578 12.0586L8.00391 12.0586C8.33203 12.0586 8.53125 12.2578 8.53125 12.5859ZM12.375 12.5859L12.375 13.6641C12.375 13.9922 12.1758 14.1914 11.8477 14.1914L10.7812 14.1914C10.4531 14.1914 10.2539 13.9922 10.2539 13.6641L10.2539 12.5859C10.2539 12.2578 10.4531 12.0586 10.7812 12.0586L11.8477 12.0586C12.1758 12.0586 12.375 12.2578 12.375 12.5859ZM16.2188 12.5859L16.2188 13.6641C16.2188 13.9922 16.0195 14.1914 15.7031 14.1914L14.625 14.1914C14.2969 14.1914 14.0977 13.9922 14.0977 13.6641L14.0977 12.5859C14.0977 12.2578 14.2969 12.0586 14.625 12.0586L15.7031 12.0586C16.0195 12.0586 16.2188 12.2578 16.2188 12.5859ZM20.0742 12.5859L20.0742 13.6641C20.0742 13.9922 19.875 14.1914 19.5469 14.1914L18.4688 14.1914C18.1523 14.1914 17.9531 13.9922 17.9531 13.6641L17.9531 12.5859C17.9531 12.2578 18.1523 12.0586 18.4688 12.0586L19.5469 12.0586C19.875 12.0586 20.0742 12.2578 20.0742 12.5859ZM8.53125 8.64844L8.53125 9.71484C8.53125 10.043 8.33203 10.2422 8.00391 10.2422L6.92578 10.2422C6.60938 10.2422 6.41016 10.043 6.41016 9.71484L6.41016 8.64844C6.41016 8.32031 6.60938 8.12109 6.92578 8.12109L8.00391 8.12109C8.33203 8.12109 8.53125 8.32031 8.53125 8.64844ZM12.375 8.64844L12.375 9.71484C12.375 10.043 12.1758 10.2422 11.8477 10.2422L10.7812 10.2422C10.4531 10.2422 10.2539 10.043 10.2539 9.71484L10.2539 8.64844C10.2539 8.32031 10.4531 8.12109 10.7812 8.12109L11.8477 8.12109C12.1758 8.12109 12.375 8.32031 12.375 8.64844ZM16.2188 8.64844L16.2188 9.71484C16.2188 10.043 16.0195 10.2422 15.7031 10.2422L14.625 10.2422C14.2969 10.2422 14.0977 10.043 14.0977 9.71484L14.0977 8.64844C14.0977 8.32031 14.2969 8.12109 14.625 8.12109L15.7031 8.12109C16.0195 8.12109 16.2188 8.32031 16.2188 8.64844ZM20.0742 8.64844L20.0742 9.71484C20.0742 10.043 19.875 10.2422 19.5469 10.2422L18.4688 10.2422C18.1523 10.2422 17.9531 10.043 17.9531 9.71484L17.9531 8.64844C17.9531 8.32031 18.1523 8.12109 18.4688 8.12109L19.5469 8.12109C19.875 8.12109 20.0742 8.32031 20.0742 8.64844Z" fill="black" fill-opacity="0.85"/>
  <path d="M6.96094 25.6289L19.5117 25.6289C21 25.6289 21.75 24.9492 21.75 23.3906L21.75 18.457C21.75 16.9102 21 16.2188 19.5117 16.2188L6.96094 16.2188C5.54297 16.2188 4.72266 16.9102 4.72266 18.457L4.72266 23.3906C4.72266 24.9492 5.47266 25.6289 6.96094 25.6289ZM7.54688 23.8594C6.92578 23.8594 6.60938 23.5547 6.60938 22.9219L6.60938 18.9141C6.60938 18.293 6.92578 17.9883 7.54688 17.9883L18.9375 17.9883C19.5703 17.9883 19.8633 18.293 19.8633 18.9141L19.8633 22.9219C19.8633 23.5547 19.5703 23.8594 18.9375 23.8594ZM8.35547 20.9062C8.35547 21.4102 8.74219 21.8086 9.24609 21.8086L17.2383 21.8086C17.7305 21.8086 18.1172 21.4102 18.1172 20.9062C18.1172 20.4258 17.7305 20.0273 17.2383 20.0273L9.24609 20.0273C8.74219 20.0273 8.35547 20.4258 8.35547 20.9062Z" fill="black" fill-opacity="0.85"/>
 </g>
</svg>
