<?xml version="1.0" encoding="UTF-8"?>
<!--Generator: Apple Native CoreSVG 360-->
<!DOCTYPE svg
PUBLIC "-//W3C//DTD SVG 1.1//EN"
       "http://www.w3.org/Graphics/SVG/1.1/DTD/svg11.dtd">
<svg version="1.1" xmlns="http://www.w3.org/2000/svg" xmlns:xlink="http://www.w3.org/1999/xlink" viewBox="0 0 24.1641 27.2461">
 <g>
  <rect height="27.2461" opacity="0" width="24.1641" x="0" y="0"/>
  <path d="M0 25.7578C0 26.2969 0.445312 26.7422 0.972656 26.7422C1.51172 26.7422 1.95703 26.2969 1.95703 25.7578L1.95703 0.972656C1.95703 0.433594 1.51172 0 0.972656 0C0.445312 0 0 0.433594 0 0.972656Z" fill="black" fill-opacity="0.85"/>
  <path d="M9.30469 26.332L12.9961 21.9375C13.3594 21.5156 13.4062 21.3984 13.5586 20.9531L13.8516 20.0508L11.8711 17.5664L11.25 20.4141L7.60547 24.7383C6.43359 26.1211 8.33203 27.4805 9.30469 26.332ZM18.3047 25.9688C19.0664 27.5156 21.3398 26.5664 20.5078 24.9023L18 19.8164C17.8125 19.4297 17.5312 19.0195 17.3086 18.6914L15.7031 16.418L15.8203 16.0898C16.2656 14.8242 16.418 14.0508 16.5 12.7852L16.7461 9.23438C16.875 7.54688 15.8789 6.25781 14.1445 6.25781C12.8438 6.25781 11.9648 6.91406 10.7695 8.08594L8.89453 9.9375C8.27344 10.5469 8.07422 11.0391 8.01562 11.8359L7.79297 14.7422C7.73438 15.4688 8.14453 15.9961 8.82422 16.0195C9.50391 16.0664 9.91406 15.668 9.99609 14.8828L10.2656 11.6953L11.168 10.875C11.4961 10.582 11.9297 10.7812 11.9062 11.1094L11.6953 13.8164C11.5898 15.1758 11.918 15.8203 12.8555 16.9922L15.3398 20.1211C15.5977 20.4375 15.6211 20.5664 15.7266 20.7539ZM22.582 11.0742L19.7344 11.0742L17.8828 9.01172L17.6953 12L18.457 12.75C18.8555 13.1602 19.207 13.2773 19.9336 13.2773L22.582 13.2773C23.3203 13.2773 23.8125 12.8555 23.8125 12.1641C23.8125 11.5078 23.3086 11.0742 22.582 11.0742ZM15.5156 5.15625C16.9453 5.15625 18.0938 4.00781 18.0938 2.57812C18.0938 1.14844 16.9453 0 15.5156 0C14.0859 0 12.9375 1.14844 12.9375 2.57812C12.9375 4.00781 14.0859 5.15625 15.5156 5.15625Z" fill="black" fill-opacity="0.85"/>
 </g>
</svg>
