<?xml version="1.0" encoding="UTF-8"?>
<!--Generator: Apple Native CoreSVG 360-->
<!DOCTYPE svg
PUBLIC "-//W3C//DTD SVG 1.1//EN"
       "http://www.w3.org/Graphics/SVG/1.1/DTD/svg11.dtd">
<svg version="1.1" xmlns="http://www.w3.org/2000/svg" xmlns:xlink="http://www.w3.org/1999/xlink" viewBox="0 0 25.3945 32.0508">
 <g>
  <rect height="32.0508" opacity="0" width="25.3945" x="0" y="0"/>
  <path d="M2.32031 2.25C2.32031 2.61328 2.61328 2.89453 2.97656 2.89453C4.03125 2.89453 4.67578 3.09375 5.34375 3.83203C5.60156 4.11328 5.85938 4.23047 6.12891 4.23047C6.38672 4.23047 6.64453 4.11328 6.90234 3.83203C7.57031 3.09375 8.21484 2.89453 9.26953 2.89453C9.63281 2.89453 9.92578 2.61328 9.92578 2.25C9.92578 1.88672 9.63281 1.59375 9.26953 1.59375C7.95703 1.59375 7.08984 1.89844 6.12891 2.78906C5.15625 1.89844 4.28906 1.59375 2.98828 1.59375C2.61328 1.59375 2.32031 1.88672 2.32031 2.25ZM15.7617 7.19531C17.1797 7.19531 18.3281 6.05859 18.3281 4.64062C18.3281 3.22266 17.1797 2.07422 15.7617 2.07422C14.3438 2.07422 13.207 3.22266 13.207 4.64062C13.207 6.05859 14.3438 7.19531 15.7617 7.19531ZM4.03125 15.7031C4.74609 16.0312 5.39062 15.7148 5.67188 15.1523L7.81641 10.875L10.3828 10.875C10.6523 10.875 10.8281 11.1328 10.6992 11.3789L8.44922 15.8438C7.61719 17.4961 8.63672 19.5703 10.8164 19.4414L16.875 19.0664L14.6367 24.0352C14.3555 24.668 14.625 25.4414 15.2578 25.6758C15.9492 25.9453 16.5703 25.7344 16.875 25.043L19.9922 18.2109C20.332 17.4727 19.8516 16.4531 18.8906 16.4531L13.4062 16.4531L15.832 11.5898C15.9375 11.3789 16.1953 11.3203 16.3594 11.4961L19.2305 14.2383C19.8047 14.7891 20.8242 14.6953 21.2227 13.9102L23.6953 8.94141C24 8.32031 23.8125 7.57031 23.1562 7.26562C22.5352 6.97266 21.7969 7.23047 21.4805 7.83984L19.7578 11.2617L18.3516 9.84375C17.4023 8.89453 16.3945 8.40234 14.8477 8.40234L7.05469 8.40234C6.58594 8.40234 6.16406 8.67188 5.96484 9.08203L3.45703 14.0625C3.15234 14.6719 3.38672 15.3867 4.03125 15.7031ZM0.667969 27.7383C1.05469 28.5469 1.91016 28.5586 2.30859 28.3828L8.49609 25.6875C8.75391 25.5703 8.97656 25.3711 9.10547 25.1016L11.3672 20.543L10.8867 20.5781C9.90234 20.6367 9.04688 20.3555 8.41406 19.875L7.00781 23.6133L1.30078 26.0742C0.667969 26.3555 0.339844 27.082 0.667969 27.7383ZM21.1172 28.8984C22.5586 28.8984 23.6953 27.7734 23.6953 26.332C23.6953 24.9141 22.5586 23.7773 21.1172 23.7773C19.6992 23.7773 18.5742 24.9141 18.5742 26.332C18.5742 27.7734 19.6992 28.8984 21.1172 28.8984ZM0.679688 32.0508C1.06641 32.0508 1.37109 31.7578 1.37109 31.3711C1.37109 30.9844 1.06641 30.6914 0.679688 30.6914C0.304688 30.6914 0 30.9844 0 31.3711C0 31.7578 0.304688 32.0508 0.679688 32.0508ZM2.83594 32.0508C3.22266 32.0508 3.51562 31.7578 3.51562 31.3711C3.51562 30.9844 3.22266 30.6914 2.83594 30.6914C2.44922 30.6914 2.15625 30.9844 2.15625 31.3711C2.15625 31.7578 2.44922 32.0508 2.83594 32.0508ZM4.99219 32.0508C5.36719 32.0508 5.67188 31.7578 5.67188 31.3711C5.67188 30.9844 5.36719 30.6914 4.99219 30.6914C4.60547 30.6914 4.30078 30.9844 4.30078 31.3711C4.30078 31.7578 4.60547 32.0508 4.99219 32.0508ZM7.13672 32.0508C7.52344 32.0508 7.82812 31.7578 7.82812 31.3711C7.82812 30.9844 7.52344 30.6914 7.13672 30.6914C6.76172 30.6914 6.45703 30.9844 6.45703 31.3711C6.45703 31.7578 6.76172 32.0508 7.13672 32.0508ZM9.29297 32.0508C9.67969 32.0508 9.97266 31.7578 9.97266 31.3711C9.97266 30.9844 9.67969 30.6914 9.29297 30.6914C8.90625 30.6914 8.61328 30.9844 8.61328 31.3711C8.61328 31.7578 8.90625 32.0508 9.29297 32.0508ZM11.4492 32.0508C11.8242 32.0508 12.1289 31.7578 12.1289 31.3711C12.1289 30.9844 11.8242 30.6914 11.4492 30.6914C11.0625 30.6914 10.7578 30.9844 10.7578 31.3711C10.7578 31.7578 11.0625 32.0508 11.4492 32.0508ZM13.5938 32.0508C13.9805 32.0508 14.2852 31.7578 14.2852 31.3711C14.2852 30.9844 13.9805 30.6914 13.5938 30.6914C13.2188 30.6914 12.9141 30.9844 12.9141 31.3711C12.9141 31.7578 13.2188 32.0508 13.5938 32.0508ZM15.75 32.0508C16.1367 32.0508 16.4297 31.7578 16.4297 31.3711C16.4297 30.9844 16.1367 30.6914 15.75 30.6914C15.3633 30.6914 15.0703 30.9844 15.0703 31.3711C15.0703 31.7578 15.3633 32.0508 15.75 32.0508ZM17.9062 32.0508C18.293 32.0508 18.5859 31.7578 18.5859 31.3711C18.5859 30.9844 18.293 30.6914 17.9062 30.6914C17.5195 30.6914 17.2266 30.9844 17.2266 31.3711C17.2266 31.7578 17.5195 32.0508 17.9062 32.0508ZM20.0625 32.0508C20.4375 32.0508 20.7422 31.7578 20.7422 31.3711C20.7422 30.9844 20.4375 30.6914 20.0625 30.6914C19.6758 30.6914 19.3711 30.9844 19.3711 31.3711C19.3711 31.7578 19.6758 32.0508 20.0625 32.0508ZM22.207 32.0508C22.5938 32.0508 22.8867 31.7578 22.8867 31.3711C22.8867 30.9844 22.5938 30.6914 22.207 30.6914C21.832 30.6914 21.5273 30.9844 21.5273 31.3711C21.5273 31.7578 21.832 32.0508 22.207 32.0508ZM24.3633 32.0508C24.75 32.0508 25.043 31.7578 25.043 31.3711C25.043 30.9844 24.75 30.6914 24.3633 30.6914C23.9766 30.6914 23.6836 30.9844 23.6836 31.3711C23.6836 31.7578 23.9766 32.0508 24.3633 32.0508Z" fill="black" fill-opacity="0.85"/>
 </g>
</svg>
