<?xml version="1.0" encoding="UTF-8"?>
<!--Generator: Apple Native CoreSVG 360-->
<!DOCTYPE svg
PUBLIC "-//W3C//DTD SVG 1.1//EN"
       "http://www.w3.org/Graphics/SVG/1.1/DTD/svg11.dtd">
<svg version="1.1" xmlns="http://www.w3.org/2000/svg" xmlns:xlink="http://www.w3.org/1999/xlink" viewBox="0 0 27.261 18.2461">
 <g>
  <rect height="18.2461" opacity="0" width="27.261" x="0" y="0"/>
  <path d="M22.1618 5.12109C23.5797 5.12109 24.7164 3.98438 24.7164 2.56641C24.7164 1.14844 23.5797 0 22.1618 0C20.7438 0 19.5954 1.14844 19.5954 2.56641C19.5954 3.98438 20.7438 5.12109 22.1618 5.12109ZM1.57192 17.1445L8.46254 15.4219L8.46254 17.0391C8.46254 17.6953 9.0016 18.2227 9.64614 18.2227C10.3024 18.2227 10.8414 17.6953 10.8414 17.0391L10.8414 14.9883L15.8454 14.2383C16.7711 14.1094 17.6735 13.6992 18.4352 13.125L22.7711 9.87891C22.9352 9.76172 23.1696 9.78516 23.2516 9.98438L24.5289 12.5625L24.5289 17.0391C24.5289 17.7305 25.0211 18.2227 25.7243 18.2227C26.4274 18.2227 26.9079 17.7305 26.9079 17.0391L26.9079 12.2812C26.9079 12.0938 26.8727 11.8945 26.7789 11.7305L24.7282 7.64062C24.318 6.82031 23.5211 6.31641 22.6071 6.31641L21.5524 6.31641C20.5329 6.31641 19.525 6.65625 18.7047 7.27734L15.3063 9.80859L10.3141 8.8125C9.27114 8.60156 8.46254 9.05859 8.46254 10.1602L8.46254 12.9609L0.997698 14.8594C0.224261 15.0469-0.0687079 15.6445 0.0133233 16.1953C0.118792 16.8164 0.693011 17.3672 1.57192 17.1445ZM10.8414 12.3867L10.8414 11.4844L12.4704 11.9883ZM16.4899 18.2227L21.2477 18.2227C22.2321 18.2227 23.0289 17.4258 23.0289 16.4297C23.0289 15.457 22.2321 14.6484 21.2477 14.6484L16.4899 14.6484C15.4938 14.6484 14.7086 15.457 14.7086 16.4297C14.7086 17.4258 15.4938 18.2227 16.4899 18.2227ZM21.2477 17.3789C20.7321 17.3789 20.3102 16.9453 20.3102 16.418C20.3102 15.9141 20.7321 15.4922 21.2477 15.4922C21.775 15.4922 22.1852 15.9141 22.1852 16.418C22.1852 16.9453 21.775 17.3789 21.2477 17.3789Z" fill="black" fill-opacity="0.85"/>
 </g>
</svg>
