<?xml version="1.0" encoding="UTF-8"?>
<!--Generator: Apple Native CoreSVG 360-->
<!DOCTYPE svg
PUBLIC "-//W3C//DTD SVG 1.1//EN"
       "http://www.w3.org/Graphics/SVG/1.1/DTD/svg11.dtd">
<svg version="1.1" xmlns="http://www.w3.org/2000/svg" xmlns:xlink="http://www.w3.org/1999/xlink" viewBox="0 0 14.4196 26.332">
 <g>
  <rect height="26.332" opacity="0" width="14.4196" x="0" y="0"/>
  <path d="M7.03403 5.10938C8.452 5.10938 9.58872 3.97266 9.58872 2.55469C9.58872 1.13672 8.452 0 7.03403 0C5.62778 0 4.49107 1.13672 4.49107 2.55469C4.49107 3.97266 5.62778 5.10938 7.03403 5.10938ZM5.49888 26.0859C6.14341 26.0859 6.64732 25.582 6.64732 24.9492L6.64732 19.9219C6.64732 19.7109 6.8231 19.5234 7.03403 19.5234C7.24497 19.5234 7.43247 19.7109 7.43247 19.9219L7.43247 24.9492C7.43247 25.582 7.93638 26.0859 8.56919 26.0859C9.202 26.0859 9.71763 25.582 9.71763 24.9492L9.71763 19.9219L11.2997 19.9219C11.9442 19.9219 12.2372 19.3711 12.0262 18.7383L9.6356 11.4727C9.45982 10.9219 10.2098 10.6992 10.3973 11.2734L11.9676 16.0195C12.4481 17.4961 14.4754 16.8984 13.995 15.4219L12.3192 10.3711C11.4168 7.61719 10.0809 6.45703 7.30357 6.45703L6.77622 6.45703C3.99888 6.45703 2.65122 7.61719 1.74888 10.3711L0.0730963 15.4219C-0.407372 16.8984 1.61997 17.4961 2.10044 16.0195L3.67075 11.2734C3.85825 10.6992 4.61997 10.9219 4.43247 11.4727L2.04185 18.7383C1.84263 19.3711 2.12388 19.9219 2.76841 19.9219L4.36216 19.9219L4.36216 24.9492C4.36216 25.582 4.86607 26.0859 5.49888 26.0859Z" fill="black" fill-opacity="0.85"/>
 </g>
</svg>
