<?xml version="1.0" encoding="UTF-8"?>
<!--Generator: Apple Native CoreSVG 360-->
<!DOCTYPE svg
PUBLIC "-//W3C//DTD SVG 1.1//EN"
       "http://www.w3.org/Graphics/SVG/1.1/DTD/svg11.dtd">
<svg version="1.1" xmlns="http://www.w3.org/2000/svg" xmlns:xlink="http://www.w3.org/1999/xlink" viewBox="0 0 22.8673 23.5898">
 <g>
  <rect height="23.5898" opacity="0" width="22.8673" x="0" y="0"/>
  <path d="M17.3516 10.4414L17.3516 13.2891C17.3516 14.1094 17.9493 14.707 18.7696 14.707L21.0196 14.707C21.8282 14.707 22.4376 14.1094 22.4376 13.2891L22.4376 10.4414C22.4376 9.62109 21.8282 9.01172 21.0196 9.01172L18.7696 9.01172C17.9493 9.01172 17.3516 9.62109 17.3516 10.4414ZM19.8946 13.043C19.2383 13.043 18.6641 12.5039 18.6641 11.8242C18.6641 11.168 19.2383 10.6172 19.8946 10.6172C20.5508 10.6172 21.1133 11.168 21.1133 11.8242C21.1133 12.5039 20.5508 13.043 19.8946 13.043ZM17.5743 7.25391L22.2032 7.25391C22.5548 7.25391 22.6133 6.87891 22.3555 6.70312L20.2462 5.26172C20.0118 5.10938 19.7657 5.10938 19.5196 5.26172L17.4219 6.70312C17.1524 6.87891 17.2227 7.25391 17.5743 7.25391Z" fill="black" fill-opacity="0.85"/>
  <path d="M6.79304 5.22656C8.22272 5.22656 9.38288 4.01953 9.38288 2.625C9.38288 1.18359 8.22272 0 6.79304 0C5.33991 0 4.20319 1.18359 4.20319 2.625C4.20319 4.04297 5.33991 5.22656 6.79304 5.22656ZM1.78913 14.918L9.24226 6.66797C8.50397 6.38672 7.7071 6.26953 6.79304 6.26953C3.44147 6.26953 1.44929 7.88672 1.44929 10.5938C1.44929 11.25 1.48444 12.1172 1.58991 13.0078ZM11.7852 14.918L11.9962 13.0078C12.1016 12.1172 12.1368 11.25 12.1368 10.5938C12.1368 9.25781 11.6563 8.17969 10.754 7.45312L4.84772 14.0156C5.50397 13.9102 6.14851 13.8633 6.79304 13.8633C8.44538 13.8633 10.0977 14.0859 11.7852 14.918ZM3.92194 23.5547C4.60163 23.4609 5.0821 22.9688 4.97663 22.1133L4.50788 17.7891L9.07819 17.7891L8.60944 22.1133C8.52741 22.9688 8.97272 23.4609 9.65241 23.5547C10.3555 23.625 10.8946 23.1797 10.9883 22.3594L11.5977 16.6523C10.0743 15.7734 8.39851 15.4336 6.79304 15.4336C5.17585 15.4336 3.50007 15.7734 2.00007 16.6523L2.58601 22.3594C2.67976 23.1797 3.21882 23.625 3.92194 23.5547ZM10.754 7.44141L12.9688 4.96875C13.3438 4.53516 13.3204 4.05469 12.9454 3.75C12.5938 3.43359 12.1368 3.42188 11.7266 3.87891L9.24226 6.66797C9.78132 6.87891 10.2852 7.14844 10.754 7.44141ZM0.359443 15.7852C-0.0624324 16.0898-0.0741511 16.582 0.125068 16.8984C0.312568 17.2383 0.746161 17.4023 1.19147 17.1328C1.47272 16.957 1.71882 16.8047 2.00007 16.6523L1.78913 14.918C1.27351 15.1523 0.804755 15.4219 0.359443 15.7852ZM13.2383 15.7852C12.7813 15.4219 12.3126 15.1523 11.7852 14.918L11.586 16.6523C11.8673 16.8047 12.1133 16.957 12.3829 17.1328C12.8282 17.4023 13.2501 17.25 13.4493 16.9219C13.6602 16.5938 13.6602 16.1016 13.2383 15.7852Z" fill="black" fill-opacity="0.85"/>
 </g>
</svg>
