<?xml version="1.0" encoding="UTF-8"?>
<!--Generator: Apple Native CoreSVG 360-->
<!DOCTYPE svg
PUBLIC "-//W3C//DTD SVG 1.1//EN"
       "http://www.w3.org/Graphics/SVG/1.1/DTD/svg11.dtd">
<svg version="1.1" xmlns="http://www.w3.org/2000/svg" xmlns:xlink="http://www.w3.org/1999/xlink" viewBox="0 0 24.1758 27.2461">
 <g>
  <rect height="27.2461" opacity="0" width="24.1758" x="0" y="0"/>
  <path d="M0 25.7578C0 26.2969 0.445312 26.7422 0.972656 26.7422C1.51172 26.7422 1.95703 26.2969 1.95703 25.7578L1.95703 0.972656C1.95703 0.433594 1.51172 0 0.972656 0C0.445312 0 0 0.433594 0 0.972656Z" fill="black" fill-opacity="0.85"/>
  <path d="M21.75 26.332L18.0586 21.9375C17.6953 21.5156 17.6484 21.3984 17.4961 20.9531L17.2031 20.0508L19.1836 17.5664L19.8047 20.4141L23.4492 24.7383C24.6211 26.1211 22.7227 27.4805 21.75 26.332ZM12.75 25.9688C11.9883 27.5156 9.71484 26.5664 10.5469 24.9023L13.0547 19.8164C13.2422 19.4297 13.5117 19.0195 13.7461 18.6914L15.3398 16.418L15.2344 16.0898C14.7891 14.8242 14.6367 14.0508 14.5547 12.7852L14.3086 9.23438C14.1797 7.54688 15.1758 6.25781 16.9102 6.25781C18.2109 6.25781 19.0781 6.91406 20.2852 8.08594L22.1602 9.9375C22.7812 10.5469 22.9805 11.0391 23.0391 11.8359L23.2617 14.7422C23.3203 15.4688 22.9102 15.9961 22.2305 16.0195C21.5508 16.0664 21.1289 15.668 21.0586 14.8828L20.7891 11.6953L19.8867 10.875C19.5586 10.582 19.125 10.7812 19.1484 11.1094L19.3594 13.8164C19.4648 15.1758 19.1367 15.8203 18.1992 16.9922L15.7148 20.1211C15.457 20.4375 15.4336 20.5664 15.3281 20.7539ZM8.47266 11.0742L11.3203 11.0742L13.1719 9.01172L13.3594 12L12.5977 12.75C12.1992 13.1602 11.8477 13.2773 11.1211 13.2773L8.47266 13.2773C7.73438 13.2773 7.23047 12.8555 7.23047 12.1641C7.23047 11.5078 7.74609 11.0742 8.47266 11.0742ZM15.5391 5.15625C14.1094 5.15625 12.9609 4.00781 12.9609 2.57812C12.9609 1.14844 14.1094 0 15.5391 0C16.9688 0 18.1172 1.14844 18.1172 2.57812C18.1172 4.00781 16.9688 5.15625 15.5391 5.15625Z" fill="black" fill-opacity="0.85"/>
 </g>
</svg>
