<?xml version="1.0" encoding="UTF-8"?>
<!--Generator: Apple Native CoreSVG 360-->
<!DOCTYPE svg
PUBLIC "-//W3C//DTD SVG 1.1//EN"
       "http://www.w3.org/Graphics/SVG/1.1/DTD/svg11.dtd">
<svg version="1.1" xmlns="http://www.w3.org/2000/svg" xmlns:xlink="http://www.w3.org/1999/xlink" viewBox="0 0 25.8164 29.1211">
 <g>
  <rect height="29.1211" opacity="0" width="25.8164" x="0" y="0"/>
  <path d="M19.2305 5.27344C20.625 5.27344 21.7852 4.125 21.7852 2.71875C21.7852 1.3125 20.625 0.152344 19.2305 0.152344C17.8242 0.152344 16.6641 1.3125 16.6641 2.71875C16.6641 4.125 17.8242 5.27344 19.2305 5.27344ZM14.6836 21.7148C15.3633 21.7148 15.8789 21.1758 15.8789 20.5195L15.8789 14.8711C15.8789 14.543 15.7734 14.2266 15.5508 14.0273L12.4453 10.9336L15.2109 8.15625C15.3867 7.98047 15.6797 7.98047 15.8555 8.15625L17.7891 10.1016C18 10.3242 18.3164 10.4414 18.6211 10.4414L24.2695 10.4414C24.9375 10.4414 25.4648 9.91406 25.4648 9.23438C25.4648 8.57812 24.9375 8.03906 24.2695 8.03906L19.1133 8.03906L14.918 3.82031C14.3906 3.28125 13.6172 2.97656 12.8672 2.97656L8.44922 2.97656C7.25391 2.97656 6.90234 4.28906 7.65234 5.03906L9.62109 6.99609L8.03906 8.54297C7.04297 9.52734 7.04297 11.2031 8.03906 12.1758L10.125 14.2383L10.125 20.8008C10.125 21.457 10.6406 21.9961 11.3203 21.9961C11.9766 21.9961 12.5156 21.457 12.5156 20.8008L12.5156 14.4023L13.4883 15.3633L13.4883 20.5195C13.4883 21.1758 14.0273 21.7148 14.6836 21.7148ZM0.65625 8.33203L12.0117 8.33203L12.0117 7.03125L0.65625 7.03125C0.292969 7.03125 0 7.32422 0 7.6875C0 8.03906 0.292969 8.33203 0.65625 8.33203ZM24.7852 21.1406C25.1367 21.1406 25.4414 20.8359 25.4414 20.4844L25.4414 9.26953L24.1406 9.26953L24.1406 20.4844C24.1406 20.8359 24.4336 21.1406 24.7852 21.1406ZM19.1836 29.1211C19.5469 29.1211 19.8398 28.8281 19.8398 28.4648C19.8398 28.1016 19.5469 27.8203 19.1836 27.8203C18.375 27.8203 18.1523 27.6797 17.4727 27.0117L4.99219 14.5195C4.72266 14.2617 4.3125 14.2617 4.06641 14.5195C3.80859 14.7656 3.80859 15.1758 4.06641 15.4336L16.7344 28.1016C17.4727 28.8398 18.2812 29.1211 19.1836 29.1211ZM22.2188 28.4883C22.582 28.4883 22.8633 28.1953 22.8633 27.832C22.8633 27.4688 22.582 27.1875 22.2188 27.1875C21.4102 27.1875 21.1758 27.0469 20.4961 26.3789L8.01562 13.8984C7.74609 13.6289 7.34766 13.6289 7.08984 13.8867C6.84375 14.1445 6.84375 14.543 7.08984 14.8008L19.7578 27.4688C20.4961 28.207 21.3047 28.4883 22.2188 28.4883Z" fill="black" fill-opacity="0.85"/>
 </g>
</svg>
