<?xml version="1.0" encoding="UTF-8"?>
<!--Generator: Apple Native CoreSVG 360-->
<!DOCTYPE svg
PUBLIC "-//W3C//DTD SVG 1.1//EN"
       "http://www.w3.org/Graphics/SVG/1.1/DTD/svg11.dtd">
<svg version="1.1" xmlns="http://www.w3.org/2000/svg" xmlns:xlink="http://www.w3.org/1999/xlink" viewBox="0 0 28.0898 21.9492">
 <g>
  <rect height="21.9492" opacity="0" width="28.0898" x="0" y="0"/>
  <path d="M14.5078 8.14453C15.9258 8.14453 17.0742 7.00781 17.0742 5.58984C17.0742 4.17188 15.9258 3.02344 14.5078 3.02344C13.0898 3.02344 11.9531 4.17188 11.9531 5.58984C11.9531 7.00781 13.0898 8.14453 14.5078 8.14453ZM8.92969 13.7461C11.5664 14.0742 11.918 15.5977 13.8633 15.5977C13.9336 15.5977 13.9805 15.5977 14.0508 15.5859L15.1992 12.3633C15.3281 11.9883 15.5391 11.8477 15.9375 11.8477L26.3555 11.8477C27.0352 11.8477 27.6094 11.2734 27.6094 10.582C27.6094 9.91406 27.0352 9.33984 26.3555 9.33984L6.72656 9.33984L5.09766 4.01953C4.89844 3.33984 4.20703 2.96484 3.5625 3.16406C2.90625 3.375 2.54297 4.07812 2.73047 4.69922L4.55859 10.8047C4.73438 11.3789 5.17969 11.8477 5.78906 11.8477L9.14062 11.8477C9.38672 11.8477 9.55078 12.0469 9.46875 12.293ZM7.54688 3.66797C8.55469 3.66797 9.375 2.84766 9.375 1.83984C9.375 0.832031 8.55469 0 7.54688 0C6.53906 0 5.71875 0.832031 5.71875 1.83984C5.71875 2.84766 6.53906 3.66797 7.54688 3.66797ZM0.65625 18.6914L1.83984 18.6914C4.96875 18.6914 5.68359 16.7695 7.85156 16.7695C10.0195 16.7695 10.7344 18.6914 13.8633 18.6914C17.0039 18.6914 17.707 16.7695 19.8867 16.7695C22.0547 16.7695 22.7578 18.6914 25.8984 18.6914L27.082 18.6914C27.4453 18.6914 27.7383 18.4102 27.7383 18.0469C27.7383 17.6836 27.4453 17.3906 27.082 17.3906L25.8984 17.3906C23.6484 17.3906 22.8867 15.4688 19.8867 15.4688C16.875 15.4688 16.1133 17.3906 13.8633 17.3906C11.6133 17.3906 10.8633 15.4688 7.85156 15.4688C4.85156 15.4688 4.08984 17.3906 1.83984 17.3906L0.65625 17.3906C0.28125 17.3906 0 17.6836 0 18.0469C0 18.4102 0.28125 18.6914 0.65625 18.6914ZM0.960938 21.9492C1.34766 21.9492 1.65234 21.6445 1.65234 21.2578C1.65234 20.8828 1.34766 20.5781 0.960938 20.5781C0.585938 20.5781 0.28125 20.8828 0.28125 21.2578C0.28125 21.6445 0.585938 21.9492 0.960938 21.9492ZM3.16406 21.5508C3.53906 21.5508 3.84375 21.2461 3.84375 20.8711C3.84375 20.4844 3.53906 20.1797 3.16406 20.1797C2.77734 20.1797 2.47266 20.4844 2.47266 20.8711C2.47266 21.2461 2.77734 21.5508 3.16406 21.5508ZM5.21484 20.5781C5.60156 20.5781 5.90625 20.2852 5.90625 19.8984C5.90625 19.5117 5.60156 19.2188 5.21484 19.2188C4.83984 19.2188 4.53516 19.5117 4.53516 19.8984C4.53516 20.2852 4.83984 20.5781 5.21484 20.5781ZM7.42969 20.0625C7.81641 20.0625 8.12109 19.7578 8.12109 19.3711C8.12109 18.9961 7.81641 18.6914 7.42969 18.6914C7.05469 18.6914 6.75 18.9961 6.75 19.3711C6.75 19.7578 7.05469 20.0625 7.42969 20.0625ZM9.64453 20.5781C10.0312 20.5781 10.3242 20.2852 10.3242 19.8984C10.3242 19.5117 10.0312 19.2188 9.64453 19.2188C9.25781 19.2188 8.96484 19.5117 8.96484 19.8984C8.96484 20.2852 9.25781 20.5781 9.64453 20.5781ZM11.7188 21.5508C12.1055 21.5508 12.4102 21.2461 12.4102 20.8711C12.4102 20.4844 12.1055 20.1797 11.7188 20.1797C11.3438 20.1797 11.0391 20.4844 11.0391 20.8711C11.0391 21.2461 11.3438 21.5508 11.7188 21.5508ZM13.8867 21.9492C14.2617 21.9492 14.5664 21.6445 14.5664 21.2578C14.5664 20.8828 14.2617 20.5781 13.8867 20.5781C13.5 20.5781 13.1953 20.8828 13.1953 21.2578C13.1953 21.6445 13.5 21.9492 13.8867 21.9492ZM16.043 21.5508C16.4297 21.5508 16.7227 21.2461 16.7227 20.8711C16.7227 20.4844 16.4297 20.1797 16.043 20.1797C15.6562 20.1797 15.3633 20.4844 15.3633 20.8711C15.3633 21.2461 15.6562 21.5508 16.043 21.5508ZM18.1172 20.5781C18.5039 20.5781 18.8086 20.2852 18.8086 19.8984C18.8086 19.5117 18.5039 19.2188 18.1172 19.2188C17.7422 19.2188 17.4375 19.5117 17.4375 19.8984C17.4375 20.2852 17.7422 20.5781 18.1172 20.5781ZM20.332 20.0625C20.7188 20.0625 21.0117 19.7578 21.0117 19.3711C21.0117 18.9961 20.7188 18.6914 20.332 18.6914C19.9453 18.6914 19.6523 18.9961 19.6523 19.3711C19.6523 19.7578 19.9453 20.0625 20.332 20.0625ZM22.5469 20.5781C22.9336 20.5781 23.2266 20.2852 23.2266 19.8984C23.2266 19.5117 22.9336 19.2188 22.5469 19.2188C22.1602 19.2188 21.8672 19.5117 21.8672 19.8984C21.8672 20.2852 22.1602 20.5781 22.5469 20.5781ZM24.6094 21.5508C24.9961 21.5508 25.2891 21.2461 25.2891 20.8711C25.2891 20.4844 24.9961 20.1797 24.6094 20.1797C24.2227 20.1797 23.9297 20.4844 23.9297 20.8711C23.9297 21.2461 24.2227 21.5508 24.6094 21.5508ZM26.7891 21.9492C27.1758 21.9492 27.4805 21.6445 27.4805 21.2578C27.4805 20.8828 27.1758 20.5781 26.7891 20.5781C26.4141 20.5781 26.1094 20.8828 26.1094 21.2578C26.1094 21.6445 26.4141 21.9492 26.7891 21.9492Z" fill="black" fill-opacity="0.85"/>
 </g>
</svg>
