<?xml version="1.0" encoding="UTF-8"?>
<!--Generator: Apple Native CoreSVG 360-->
<!DOCTYPE svg
PUBLIC "-//W3C//DTD SVG 1.1//EN"
       "http://www.w3.org/Graphics/SVG/1.1/DTD/svg11.dtd">
<svg version="1.1" xmlns="http://www.w3.org/2000/svg" xmlns:xlink="http://www.w3.org/1999/xlink" viewBox="0 0 22.8281 23.7773">
 <g>
  <rect height="23.7773" opacity="0" width="22.8281" x="0" y="0"/>
  <path d="M19.3125 6.36328C21.0703 6.36328 22.4766 4.89844 22.4766 3.19922C22.4766 1.42969 21.0703 0 19.3125 0C17.543 0 16.125 1.42969 16.125 3.19922C16.125 4.94531 17.543 6.36328 19.3125 6.36328ZM0.433594 23.1328C1.04297 23.7656 2.08594 23.7188 2.82422 22.9453L7.875 17.7422C8.03906 17.5664 8.15625 17.5195 8.41406 17.625L12.3516 19.1133C14.8828 20.0859 17.2617 19.2539 18.375 17.2383L20.9062 12.6328C21.8906 10.8398 21.5742 8.98828 19.875 8.07422C18.2227 7.17188 16.5 7.85156 15.5039 9.69141L12.2109 15.6797L9.42188 14.6602C8.03906 14.1562 6.87891 14.3203 5.77734 15.4688L0.539062 20.8828C-0.1875 21.6328-0.117188 22.5703 0.433594 23.1328Z" fill="black" fill-opacity="0.85"/>
  <path d="M6.39844 10.4648C6.39844 11.4141 7.37109 11.8359 8.08594 11.1914L11.6367 8.05078C12.1172 7.62891 12.1172 7.04297 11.6367 6.60938L8.08594 3.45703C7.40625 2.84766 6.39844 3.1875 6.39844 4.19531ZM0.996094 6.31641C0.433594 6.31641 0 6.76172 0 7.3125C0 7.875 0.433594 8.30859 0.996094 8.30859L8.87109 8.30859C9.43359 8.30859 9.86719 7.875 9.86719 7.3125C9.86719 6.76172 9.43359 6.31641 8.87109 6.31641Z" fill="black" fill-opacity="0.85"/>
 </g>
</svg>
