<?xml version="1.0" encoding="UTF-8"?>
<!--Generator: Apple Native CoreSVG 360-->
<!DOCTYPE svg
PUBLIC "-//W3C//DTD SVG 1.1//EN"
       "http://www.w3.org/Graphics/SVG/1.1/DTD/svg11.dtd">
<svg version="1.1" xmlns="http://www.w3.org/2000/svg" xmlns:xlink="http://www.w3.org/1999/xlink" viewBox="0 0 26.3507 25.0666">
 <g>
  <rect height="25.0666" opacity="0" width="26.3507" x="0" y="0"/>
  <path d="M4.92537 7.0079C3.16756 7.0079 1.76131 5.54305 1.76131 3.84383C1.76131 2.0743 3.16756 0.644615 4.92537 0.644615C6.6949 0.644615 8.11287 2.0743 8.11287 3.84383C8.11287 5.58993 6.6949 7.0079 4.92537 7.0079ZM23.8043 23.7774C23.1949 24.4102 22.1519 24.3634 21.4137 23.5899L16.3629 18.3868C16.1988 18.211 16.0816 18.1641 15.8238 18.2696L11.8863 19.7579C9.35506 20.7306 6.97615 19.8985 5.86287 17.8829L3.33162 13.2774C2.34725 11.4845 2.66365 9.6329 4.36287 8.71883C6.02693 7.81649 7.73787 8.49618 8.73397 10.336L12.0269 16.3243L14.816 15.3048C16.1988 14.8009 17.359 14.9649 18.4605 16.1134L23.6988 21.5274C24.4254 22.2774 24.3551 23.2149 23.8043 23.7774Z" fill="black" fill-opacity="0.85"/>
  <path d="M21.5543 4.81649C21.7418 4.44149 21.566 3.98446 21.1793 3.80868C20.8043 3.6329 20.3472 3.79696 20.1597 4.17196L17.2887 10.336C17.1129 10.711 17.2769 11.1681 17.6637 11.3438C18.0504 11.5196 18.5074 11.3556 18.6832 10.9688L19.0582 10.1954L22.6793 10.3946L24.3433 11.1915C25.2574 11.6251 25.9605 11.2501 26.2301 10.6407C26.5113 10.0431 26.3121 9.28133 25.5152 8.90633L23.5113 7.92196L21.2379 5.49618ZM17.5582 4.5118C18.0152 4.71102 18.3785 4.44149 18.2965 3.92586L17.8394 0.527427C17.7691 0.0469583 17.3238-0.15226 16.9371 0.12899L14.1012 2.08602C13.6676 2.39071 13.7613 2.84774 14.1832 3.03524ZM16.0816 7.67586L12.7183 6.1993C12.2613 6.00008 11.8746 6.24618 11.9566 6.78524L12.4371 10.1837C12.4957 10.6524 12.9293 10.8634 13.316 10.5938L16.1519 8.6368C16.5855 8.3204 16.5269 7.86336 16.0816 7.67586Z" fill="black" fill-opacity="0.85"/>
 </g>
</svg>
