<?xml version="1.0" encoding="UTF-8"?>
<!--Generator: Apple Native CoreSVG 360-->
<!DOCTYPE svg
PUBLIC "-//W3C//DTD SVG 1.1//EN"
       "http://www.w3.org/Graphics/SVG/1.1/DTD/svg11.dtd">
<svg version="1.1" xmlns="http://www.w3.org/2000/svg" xmlns:xlink="http://www.w3.org/1999/xlink" viewBox="0 0 22.8195 24.3398">
 <g>
  <rect height="24.3398" opacity="0" width="22.8195" x="0" y="0"/>
  <path d="M19.3141 6.64453C21.0719 6.64453 22.4664 5.17969 22.4664 3.48047C22.4664 1.71094 21.0719 0.28125 19.3141 0.28125C17.5445 0.28125 16.1266 1.71094 16.1266 3.48047C16.1266 5.22656 17.5445 6.64453 19.3141 6.64453ZM0.435148 23.4141C1.0328 24.0469 2.07577 24 2.82577 23.2266L7.86484 18.0234C8.0289 17.8477 8.1578 17.8008 8.41562 17.9062L12.3531 19.3945C14.8844 20.3672 17.2633 19.5352 18.3766 17.5195L20.9078 12.9141C21.8922 11.1211 21.5758 9.26953 19.8648 8.35547C18.2125 7.45312 16.5016 8.13281 15.4937 9.97266L12.2125 15.9609L9.41171 14.9414C8.0289 14.4375 6.88046 14.6016 5.7789 15.75L0.540617 21.1641C-0.197665 21.9141-0.127352 22.8516 0.435148 23.4141Z" fill="black" fill-opacity="0.85"/>
  <path d="M0.200773 7.59375C0.200773 9.31641 1.77109 11.0508 3.22421 11.0508C4.56015 11.0508 5.23984 9.85547 6.03671 7.73438L6.3414 7.67578L6.3414 9.96094C6.3414 10.9453 6.8453 11.4492 7.80624 11.4492C9.51718 11.4492 11.2516 9.89062 11.2516 8.42578C11.2516 7.07812 10.0562 6.41016 7.92343 5.61328L7.87655 5.30859L10.1617 5.30859C11.1461 5.30859 11.6383 4.80469 11.6383 3.85547C11.6383 2.13281 10.0797 0.386719 8.61484 0.386719C7.2789 0.386719 6.61093 1.60547 5.80234 3.73828L5.50937 3.77344L5.50937 1.48828C5.50937 0.515625 5.00546 0 4.05624 0C2.32187 0 0.587492 1.57031 0.587492 3.02344C0.587492 4.37109 1.80624 5.03906 3.93905 5.83594L3.96249 6.14062L1.68905 6.14062C0.716398 6.14062 0.200773 6.65625 0.200773 7.59375ZM5.91952 6.90234C5.27499 6.90234 4.74765 6.375 4.74765 5.71875C4.74765 5.07422 5.27499 4.54688 5.91952 4.54688C6.56405 4.54688 7.0914 5.07422 7.0914 5.71875C7.0914 6.375 6.56405 6.90234 5.91952 6.90234Z" fill="black" fill-opacity="0.85"/>
 </g>
</svg>
