<?xml version="1.0" encoding="UTF-8"?>
<!--Generator: Apple Native CoreSVG 360-->
<!DOCTYPE svg
PUBLIC "-//W3C//DTD SVG 1.1//EN"
       "http://www.w3.org/Graphics/SVG/1.1/DTD/svg11.dtd">
<svg version="1.1" xmlns="http://www.w3.org/2000/svg" xmlns:xlink="http://www.w3.org/1999/xlink" viewBox="0 0 35.8803 23.6133">
 <g>
  <rect height="23.6133" opacity="0" width="35.8803" x="0" y="0"/>
  <path d="M17.3601 7.5L17.3601 10.3359C17.3601 11.1562 17.9694 11.7656 18.778 11.7656L21.028 11.7656C21.8366 11.7656 22.446 11.1562 22.446 10.3359L22.446 7.5C22.446 6.67969 21.8366 6.07031 21.028 6.07031L18.778 6.07031C17.9694 6.07031 17.3601 6.67969 17.3601 7.5ZM23.8991 7.5L23.8991 10.3359C23.8991 11.1562 24.5085 11.7656 25.3288 11.7656L27.5671 11.7656C28.3874 11.7656 28.9733 11.1562 28.9733 10.3359L28.9733 7.5C28.9733 6.67969 28.3874 6.07031 27.5671 6.07031L25.3288 6.07031C24.5085 6.07031 23.8991 6.67969 23.8991 7.5ZM30.4265 7.5L30.4265 10.3359C30.4265 11.1562 31.0358 11.7656 31.8562 11.7656L34.0944 11.7656C34.9148 11.7656 35.5241 11.1562 35.5241 10.3359L35.5241 7.5C35.5241 6.67969 34.9148 6.07031 34.0944 6.07031L31.8562 6.07031C31.0358 6.07031 30.4265 6.67969 30.4265 7.5ZM17.3601 15.832L17.3601 18.6797C17.3601 19.5 17.9694 20.1094 18.778 20.1094L21.028 20.1094C21.8366 20.1094 22.446 19.5 22.446 18.6797L22.446 15.832C22.446 15.0117 21.8366 14.4141 21.028 14.4141L18.778 14.4141C17.9694 14.4141 17.3601 15.0117 17.3601 15.832ZM23.8991 15.832L23.8991 18.6797C23.8991 19.5 24.5085 20.1094 25.3288 20.1094L27.5671 20.1094C28.3874 20.1094 28.9733 19.5 28.9733 18.6797L28.9733 15.832C28.9733 15.0117 28.3874 14.4141 27.5671 14.4141L25.3288 14.4141C24.5085 14.4141 23.8991 15.0117 23.8991 15.832ZM30.4265 15.832L30.4265 18.6797C30.4265 19.5 31.0358 20.1094 31.8562 20.1094L34.0944 20.1094C34.9148 20.1094 35.5241 19.5 35.5241 18.6797L35.5241 15.832C35.5241 15.0117 34.9148 14.4141 34.0944 14.4141L31.8562 14.4141C31.0358 14.4141 30.4265 15.0117 30.4265 15.832ZM19.8796 10.1367C19.2116 10.1367 18.6491 9.58594 18.6491 8.90625C18.6491 8.25 19.2116 7.71094 19.8796 7.71094C20.5358 7.71094 21.0866 8.25 21.0866 8.90625C21.0866 9.58594 20.5358 10.1367 19.8796 10.1367ZM26.4069 10.1367C25.739 10.1367 25.1765 9.58594 25.1765 8.90625C25.1765 8.25 25.739 7.71094 26.4069 7.71094C27.0632 7.71094 27.6257 8.25 27.6257 8.90625C27.6257 9.58594 27.0632 10.1367 26.4069 10.1367ZM32.946 10.1367C32.278 10.1367 31.7038 9.58594 31.7038 8.90625C31.7038 8.25 32.278 7.71094 32.946 7.71094C33.5905 7.71094 34.153 8.25 34.153 8.90625C34.153 9.58594 33.5905 10.1367 32.946 10.1367ZM19.8796 18.4688C19.2116 18.4688 18.6491 17.918 18.6491 17.2383C18.6491 16.582 19.2116 16.0312 19.8796 16.0312C20.5358 16.0312 21.0866 16.582 21.0866 17.2383C21.0866 17.918 20.5358 18.4688 19.8796 18.4688ZM26.4069 18.4688C25.739 18.4688 25.1765 17.918 25.1765 17.2383C25.1765 16.582 25.739 16.0312 26.4069 16.0312C27.0632 16.0312 27.6257 16.582 27.6257 17.2383C27.6257 17.918 27.0632 18.4688 26.4069 18.4688ZM32.946 18.4688C32.278 18.4688 31.7038 17.918 31.7038 17.2383C31.7038 16.582 32.278 16.0312 32.946 16.0312C33.5905 16.0312 34.153 16.582 34.153 17.2383C34.153 17.918 33.5905 18.4688 32.946 18.4688ZM24.1101 4.33594L28.739 4.33594C29.0905 4.33594 29.1608 3.96094 28.8913 3.77344L26.7937 2.34375C26.5476 2.19141 26.3015 2.19141 26.0671 2.34375L23.9694 3.77344C23.6999 3.96094 23.7585 4.33594 24.1101 4.33594Z" fill="black" fill-opacity="0.85"/>
  <path d="M6.81319 5.22656C8.23116 5.22656 9.39131 4.01953 9.39131 2.625C9.39131 1.18359 8.23116 0 6.81319 0C5.34835 0 4.21163 1.18359 4.21163 2.625C4.21163 4.04297 5.34835 5.22656 6.81319 5.22656ZM1.80928 14.918L9.25069 6.66797C8.51241 6.38672 7.71553 6.26953 6.81319 6.26953C3.44991 6.26953 1.46944 7.88672 1.46944 10.5938C1.46944 11.25 1.49288 12.1172 1.59835 13.0078ZM11.7937 14.918L12.0046 13.0078C12.1101 12.1172 12.1452 11.25 12.1452 10.5938C12.1452 9.25781 11.6648 8.17969 10.7624 7.45312L4.85616 14.0156C5.51241 13.9102 6.15694 13.8633 6.81319 13.8633C8.45381 13.8633 10.1062 14.0859 11.7937 14.918ZM3.93038 23.5547C4.61006 23.4609 5.09053 22.9688 4.98506 22.1133L4.51631 17.7891L9.07491 17.7891L8.61788 22.1133C8.53585 22.9688 8.98116 23.4609 9.66085 23.5547C10.364 23.625 10.903 23.1797 10.9968 22.3594L11.6062 16.6523C10.0827 15.7734 8.41866 15.4336 6.81319 15.4336C5.18428 15.4336 3.5085 15.7734 2.0085 16.6523L2.60616 22.3594C2.68819 23.1797 3.22725 23.625 3.93038 23.5547ZM10.7624 7.44141L12.9773 4.96875C13.3523 4.53516 13.3288 4.05469 12.9538 3.75C12.6023 3.43359 12.1452 3.42188 11.7351 3.87891L9.25069 6.66797C9.78975 6.87891 10.3054 7.14844 10.7624 7.44141ZM0.367877 15.7852C-0.0657166 16.0898-0.0774353 16.582 0.133502 16.8984C0.321002 17.2383 0.754596 17.4023 1.19991 17.1328C1.48116 16.957 1.72725 16.8047 2.0085 16.6523L1.80928 14.918C1.28194 15.1523 0.81319 15.4219 0.367877 15.7852ZM13.2468 15.7852C12.7898 15.4219 12.321 15.1523 11.7937 14.918L11.5944 16.6523C11.8757 16.8047 12.1218 16.957 12.3913 17.1328C12.8366 17.4023 13.2585 17.25 13.4577 16.9219C13.6687 16.5938 13.6687 16.1016 13.2468 15.7852Z" fill="black" fill-opacity="0.85"/>
 </g>
</svg>
