<?xml version="1.0" encoding="UTF-8"?>
<!--Generator: Apple Native CoreSVG 360-->
<!DOCTYPE svg
PUBLIC "-//W3C//DTD SVG 1.1//EN"
       "http://www.w3.org/Graphics/SVG/1.1/DTD/svg11.dtd">
<svg version="1.1" xmlns="http://www.w3.org/2000/svg" xmlns:xlink="http://www.w3.org/1999/xlink" viewBox="0 0 33.0703 29.6133">
 <g>
  <rect height="29.6133" opacity="0" width="33.0703" x="0" y="0"/>
  <path d="M28.418 9.5625L28.418 11.918C28.418 12.6445 27.9961 12.9609 27.4922 12.9609C26.9648 12.9609 26.5547 12.6094 26.5547 11.918L26.5547 9.31641C26.5547 6.35156 24.6562 4.79297 22.4648 4.79297C20.2734 4.79297 18.375 6.35156 18.375 9.31641L18.375 12.4167C19.6354 12.6516 20.2969 13.5637 20.2969 15.1289L20.2969 23.2031C20.2969 25.0547 19.3828 25.9922 17.6602 25.9922L9.76172 25.9922L9.76172 22.2773C11.0039 22.3008 12.1055 21.2578 12.1055 19.9336L12.1055 15.9844C12.1055 14.4827 11.5469 13.2316 10.5983 12.3516L16.5234 12.3516L16.5234 9.5625C16.5234 5.15625 19.3945 3.02344 22.4648 3.02344C25.5352 3.02344 28.418 5.15625 28.418 9.5625Z" fill="black" fill-opacity="0.85"/>
  <path d="M4.78125 28.1367C5.30859 28.1367 5.71875 27.7148 5.71875 27.1875L5.71875 20.6367C5.71875 20.4492 5.88281 20.2969 6.05859 20.2969C6.22266 20.2969 6.375 20.4492 6.375 20.6367L6.375 27.1875C6.375 27.7148 6.79688 28.1367 7.32422 28.1367C7.86328 28.1367 8.27344 27.7148 8.27344 27.1875L8.27344 16.418C8.27344 16.2422 8.41406 16.1133 8.58984 16.1133C8.76562 16.1133 8.90625 16.2422 8.90625 16.418L8.90625 19.9336C8.90625 20.4258 9.28125 20.8125 9.76172 20.8125C10.2422 20.8125 10.6289 20.4258 10.6289 19.9336L10.6289 15.9727C10.6289 13.8164 9.04688 12.4102 6.75 12.4102L5.34375 12.4102C3.05859 12.4102 1.48828 13.8164 1.48828 15.9727L1.48828 19.9336C1.48828 20.4258 1.86328 20.8125 2.34375 20.8125C2.82422 20.8125 3.21094 20.4258 3.21094 19.9336L3.21094 16.418C3.21094 16.2422 3.33984 16.1133 3.52734 16.1133C3.69141 16.1133 3.83203 16.2422 3.83203 16.418L3.83203 27.1875C3.83203 27.7148 4.26562 28.1367 4.78125 28.1367ZM6.05859 11.2852C7.23047 11.2852 8.16797 10.3477 8.16797 9.1875C8.16797 8.00391 7.23047 7.06641 6.05859 7.06641C4.875 7.06641 3.9375 8.00391 3.9375 9.1875C3.9375 10.3477 4.875 11.2852 6.05859 11.2852Z" fill="black" fill-opacity="0.85"/>
 </g>
</svg>
