<?xml version="1.0" encoding="UTF-8"?>
<!--Generator: Apple Native CoreSVG 360-->
<!DOCTYPE svg
PUBLIC "-//W3C//DTD SVG 1.1//EN"
       "http://www.w3.org/Graphics/SVG/1.1/DTD/svg11.dtd">
<svg version="1.1" xmlns="http://www.w3.org/2000/svg" xmlns:xlink="http://www.w3.org/1999/xlink" viewBox="0 0 34.4531 23.8242">
 <g>
  <rect height="23.8242" opacity="0" width="34.4531" x="0" y="0"/>
  <path d="M13.1719 12.9141C13.7227 12.9141 14.1797 12.457 14.1797 11.9062C14.1797 11.3555 13.7227 10.8984 13.1719 10.8984C12.6211 10.8984 12.1641 11.3555 12.1641 11.9062C12.1641 12.457 12.6211 12.9141 13.1719 12.9141ZM17.0508 12.9141C17.6016 12.9141 18.0586 12.457 18.0586 11.9062C18.0586 11.3555 17.6016 10.8984 17.0508 10.8984C16.5 10.8984 16.043 11.3555 16.043 11.9062C16.043 12.457 16.5 12.9141 17.0508 12.9141ZM20.918 12.9141C21.4688 12.9141 21.9258 12.457 21.9258 11.9062C21.9258 11.3555 21.4688 10.8984 20.918 10.8984C20.3672 10.8984 19.9102 11.3555 19.9102 11.9062C19.9102 12.457 20.3672 12.9141 20.918 12.9141Z" fill="black" fill-opacity="0.85"/>
  <path d="M0 14.332C0 14.8477 0.421875 15.2695 0.9375 15.2695C1.46484 15.2695 1.88672 14.8477 1.88672 14.332L1.88672 10.2305C1.88672 10.043 2.03906 9.89062 2.22656 9.89062C2.42578 9.89062 2.57812 10.043 2.57812 10.2305L2.57812 22.6289C2.57812 23.2031 3.03516 23.6602 3.60938 23.6602C4.19531 23.6602 4.65234 23.2031 4.65234 22.6289L4.65234 15.082C4.65234 14.8945 4.81641 14.7305 5.00391 14.7305C5.20312 14.7305 5.36719 14.8945 5.36719 15.082L5.36719 22.6289C5.36719 23.2031 5.82422 23.6602 6.39844 23.6602C6.97266 23.6602 7.44141 23.2031 7.44141 22.6289L7.44141 10.2305C7.44141 10.043 7.59375 9.89062 7.78125 9.89062C7.96875 9.89062 8.13281 10.043 8.13281 10.2305L8.13281 14.332C8.13281 14.8477 8.54297 15.2695 9.07031 15.2695C9.59766 15.2695 10.0078 14.8477 10.0078 14.332L10.0078 9.75C10.0078 7.39453 8.29688 5.84766 5.77734 5.84766L4.24219 5.84766C1.72266 5.84766 0 7.39453 0 9.75ZM5.00391 4.62891C6.29297 4.62891 7.32422 3.59766 7.32422 2.30859C7.32422 1.03125 6.29297 0 5.00391 0C3.72656 0 2.69531 1.03125 2.69531 2.30859C2.69531 3.59766 3.72656 4.62891 5.00391 4.62891ZM24.082 14.332C24.082 14.8477 24.5039 15.2695 25.0195 15.2695C25.5469 15.2695 25.9688 14.8477 25.9688 14.332L25.9688 10.2305C25.9688 10.043 26.1211 9.89062 26.3203 9.89062C26.5078 9.89062 26.6602 10.043 26.6602 10.2305L26.6602 22.6289C26.6602 23.2031 27.1172 23.6602 27.6914 23.6602C28.2773 23.6602 28.7344 23.2031 28.7344 22.6289L28.7344 15.082C28.7344 14.8945 28.8984 14.7305 29.0859 14.7305C29.2852 14.7305 29.4492 14.8945 29.4492 15.082L29.4492 22.6289C29.4492 23.2031 29.9062 23.6602 30.4805 23.6602C31.0547 23.6602 31.5234 23.2031 31.5234 22.6289L31.5234 10.2305C31.5234 10.043 31.6758 9.89062 31.8633 9.89062C32.0508 9.89062 32.2148 10.043 32.2148 10.2305L32.2148 14.332C32.2148 14.8477 32.625 15.2695 33.1523 15.2695C33.6797 15.2695 34.1016 14.8477 34.1016 14.332L34.1016 9.75C34.1016 7.39453 32.3789 5.84766 29.8594 5.84766L28.3242 5.84766C25.8047 5.84766 24.082 7.39453 24.082 9.75ZM29.0859 4.62891C30.375 4.62891 31.4062 3.59766 31.4062 2.30859C31.4062 1.03125 30.375 0 29.0859 0C27.8086 0 26.7773 1.03125 26.7773 2.30859C26.7773 3.59766 27.8086 4.62891 29.0859 4.62891Z" fill="black" fill-opacity="0.85"/>
 </g>
</svg>
