<?xml version="1.0" encoding="UTF-8"?>
<!--Generator: Apple Native CoreSVG 360-->
<!DOCTYPE svg
PUBLIC "-//W3C//DTD SVG 1.1//EN"
       "http://www.w3.org/Graphics/SVG/1.1/DTD/svg11.dtd">
<svg version="1.1" xmlns="http://www.w3.org/2000/svg" xmlns:xlink="http://www.w3.org/1999/xlink" viewBox="0 0 30.5625 25.2539">
 <g>
  <rect height="25.2539" opacity="0" width="30.5625" x="0" y="0"/>
  <path d="M19.6992 5.09766C21.0938 5.09766 22.2422 3.94922 22.2422 2.54297C22.2422 1.14844 21.0938 0 19.6992 0C18.293 0 17.1445 1.14844 17.1445 2.54297C17.1445 3.94922 18.293 5.09766 19.6992 5.09766ZM24.8789 21.7617C24.8555 22.1367 25.1602 22.4414 25.4766 22.4766C25.8398 22.5 26.168 22.2305 26.1914 21.8672L27.2461 8.10938L25.9453 8.01562ZM19.2188 15.8906L16.1016 13.4062L18.4922 9.21094L22.3594 12.1523C22.9102 12.5742 23.6484 12.5156 24.1172 11.9883L26.9648 8.80078C27.9141 7.74609 26.3203 5.94141 25.207 7.25391L23.1094 9.67969L19.6992 6.90234C18.5391 5.96484 17.2852 5.09766 15.3398 5.19141L10.2891 5.4375C9.65625 5.46094 9.14062 5.85938 9.09375 6.60938L8.8125 11.0977C8.73047 12.5273 11.0508 13.0195 11.1562 11.0742L11.3438 7.66406L14.2969 7.54688L12.0586 11.6133C11.3438 12.9023 11.6836 14.3086 12.9844 15.0703L17.3789 17.6016L17.3789 23.5195C17.3789 24.1758 17.8945 24.6914 18.5508 24.6914C19.207 24.6914 19.7227 24.1758 19.7227 23.5195L19.7227 16.8281C19.7227 16.4766 19.6289 16.2188 19.2188 15.8906ZM0.574219 20.1797C0.328125 20.4258 0.328125 20.8477 0.5625 21.0938C0.820312 21.3398 1.24219 21.3398 1.5 21.082L10.793 12.0469L9.87891 11.1211ZM11.625 15.457L11.0391 17.7188L6.10547 22.3242C4.875 23.4609 6.51562 25.1836 7.76953 24L12.8438 19.2656C13.1367 19.0078 13.2188 18.832 13.3477 18.5273L14.0156 16.9688L12.4219 16.043C12.1172 15.8672 11.8477 15.668 11.625 15.457ZM27.082 25.1602C28.2773 25.1602 28.9922 24.8555 29.8242 24.4688C30.1758 24.3164 30.2812 23.9531 30.1758 23.6484C30.0586 23.3086 29.6953 23.0859 29.2617 23.3086C28.6055 23.6484 28.0781 23.8594 27.082 23.8594L7.32422 23.8594C6.97266 23.8594 6.66797 24.1289 6.66797 24.4805C6.66797 24.8438 6.96094 25.1602 7.32422 25.1602ZM20.625 25.1602L20.625 23.8594L0.65625 23.8594C0.292969 23.8594 0 24.1289 0 24.4805C0 24.8438 0.28125 25.1602 0.65625 25.1602Z" fill="black" fill-opacity="0.85"/>
 </g>
</svg>
