<?xml version="1.0" encoding="UTF-8"?>
<!--Generator: Apple Native CoreSVG 360-->
<!DOCTYPE svg
PUBLIC "-//W3C//DTD SVG 1.1//EN"
       "http://www.w3.org/Graphics/SVG/1.1/DTD/svg11.dtd">
<svg version="1.1" xmlns="http://www.w3.org/2000/svg" xmlns:xlink="http://www.w3.org/1999/xlink" viewBox="0 0 22.2891 25.1602">
 <g>
  <rect height="25.1602" opacity="0" width="22.2891" x="0" y="0"/>
  <path d="M7.24219 5.12109C8.66016 5.12109 9.80859 3.98438 9.80859 2.56641C9.80859 1.13672 8.66016 0 7.24219 0C5.82422 0 4.6875 1.13672 4.6875 2.56641C4.6875 3.98438 5.82422 5.12109 7.24219 5.12109ZM7.05469 21.1523L18.1758 8.42578C18.4453 8.13281 18.5508 7.86328 18.5508 7.55859C18.5508 6.85547 18.0469 6.35156 17.332 6.35156L6.99609 6.35156C4.65234 6.35156 2.73047 7.69922 2.19141 9.71484L1.04297 14.0273C0.527344 15.9609 1.75781 17.1914 3.25781 17.1914C3.75 17.1914 4.24219 17.0742 4.73438 16.8164L9.96094 14.0391L10.0078 14.0625L12.375 11.3555L11.8711 11.0977C11.3789 10.8516 10.8633 10.8281 10.3594 11.0508L5.58984 13.1133L6.55078 9.76172C6.72656 9.17578 7.25391 8.76562 7.875 8.76562L16.1484 8.76562L5.29688 21.1523C5.82422 21.1055 6.53906 21.0703 7.05469 21.1523ZM14.0273 14.8828L18.1406 16.9453C19.0078 17.3789 19.6992 17.0391 19.957 16.4766C20.2266 15.9492 20.0625 15.1992 19.2422 14.7891L15.6797 13.0078ZM5.10938 19.6523L0.65625 19.6523C0.28125 19.6523 0 19.9453 0 20.3086C0 20.6719 0.28125 20.9531 0.65625 20.9531L3.97266 20.9531ZM21.2812 19.6523L9.84375 19.6523L8.71875 20.9531L21.2812 20.9531C21.6445 20.9531 21.9375 20.6719 21.9375 20.3086C21.9375 19.9453 21.6445 19.6523 21.2812 19.6523ZM10.9688 25.1484C13.418 25.1484 14.0859 23.6016 15.7617 23.6016C17.4375 23.6016 18.1172 25.1484 20.5664 25.1484L21.3281 25.1484C21.668 25.1484 21.9258 24.9023 21.9258 24.5742C21.9258 24.2344 21.6797 23.9648 21.3281 23.9648L20.5664 23.9648C18.9375 23.9648 18.2344 22.418 15.7617 22.418C13.418 22.418 12.6914 23.9648 10.9688 23.9648C9.23438 23.9648 8.51953 22.418 6.16406 22.418C3.69141 22.418 2.98828 23.9648 1.37109 23.9648L0.597656 23.9648C0.257812 23.9648 0.0117188 24.2344 0.0117188 24.5742C0.0117188 24.9023 0.257812 25.1484 0.597656 25.1484L1.37109 25.1484C3.80859 25.1484 4.5 23.6016 6.16406 23.6016C7.83984 23.6016 8.51953 25.1484 10.9688 25.1484Z" fill="black" fill-opacity="0.85"/>
 </g>
</svg>
