<?xml version="1.0" encoding="UTF-8"?>
<!--Generator: Apple Native CoreSVG 360-->
<!DOCTYPE svg
PUBLIC "-//W3C//DTD SVG 1.1//EN"
       "http://www.w3.org/Graphics/SVG/1.1/DTD/svg11.dtd">
<svg version="1.1" xmlns="http://www.w3.org/2000/svg" xmlns:xlink="http://www.w3.org/1999/xlink" viewBox="0 0 29.3086 26.0764">
 <g>
  <rect height="26.0764" opacity="0" width="29.3086" x="0" y="0"/>
  <path d="M6.29883 7.51282C4.54102 7.51282 3.13477 6.04798 3.13477 4.34876C3.13477 2.57923 4.54102 1.14954 6.29883 1.14954C8.06836 1.14954 9.48633 2.57923 9.48633 4.34876C9.48633 6.09485 8.06836 7.51282 6.29883 7.51282ZM25.1777 24.2824C24.5684 24.9152 23.5254 24.8683 22.7871 24.0949L17.7363 18.8917C17.5723 18.7159 17.4551 18.6691 17.1973 18.7745L13.2598 20.2628C10.7285 21.2355 8.34961 20.4034 7.23633 18.3878L4.70508 13.7824C3.7207 11.9894 4.03711 10.1378 5.73633 9.22376C7.40039 8.32142 9.11133 9.0011 10.1074 10.8409L13.4004 16.8292L16.1895 15.8097C17.5723 15.3058 18.7324 15.4699 19.834 16.6183L25.0723 22.0324C25.7988 22.7824 25.7285 23.7199 25.1777 24.2824Z" fill="black" fill-opacity="0.85"/>
  <path d="M27.7559 1.71204C28.3652 1.10267 27.9785 0.282354 27.1934 0.247198L23.127 0.00110406C22.5645-0.0223334 22.2246 0.329229 22.248 0.88001L22.5059 4.9347C22.541 5.76673 23.3965 6.09485 23.9707 5.52064ZM27.8496 6.79798C28.1895 7.14954 28.7285 7.14954 29.0684 6.79798C29.3848 6.48157 29.3965 5.93079 29.0566 5.59095L25.1777 1.70032C24.8379 1.36048 24.2871 1.36048 23.9473 1.70032C23.6309 2.01673 23.6191 2.57923 23.959 2.91907ZM18.5098 5.79017C18.5098 4.98157 17.666 4.60657 17.0566 5.15735L14.0215 7.86439C13.6113 8.23939 13.5996 8.71985 14.0215 9.09485L17.0566 11.7902C17.6426 12.3292 18.5098 12.0245 18.5098 11.1574ZM23.0918 9.34095C23.584 9.34095 23.9707 8.96595 23.9707 8.4972C23.9707 8.00501 23.584 7.61829 23.0918 7.61829L16.8457 7.61829C16.3535 7.61829 15.9668 8.00501 15.9668 8.4972C15.9668 8.96595 16.3535 9.34095 16.8457 9.34095ZM27.7559 15.2355L23.9707 11.4386C23.3965 10.8527 22.541 11.1925 22.5059 12.0245L22.248 16.0792C22.2246 16.63 22.5645 16.9816 23.127 16.9464L27.1934 16.712C27.9785 16.6652 28.3652 15.8566 27.7559 15.2355ZM29.0566 11.3683C29.3965 11.0284 29.3848 10.4777 29.0684 10.1495C28.7285 9.8097 28.1895 9.8097 27.8496 10.1495L23.9941 14.005C23.6543 14.3449 23.666 14.8956 23.9824 15.2238C24.3223 15.5636 24.8613 15.5636 25.2129 15.2238Z" fill="black" fill-opacity="0.85"/>
 </g>
</svg>
