<?xml version="1.0" encoding="UTF-8"?>
<!--Generator: Apple Native CoreSVG 360-->
<!DOCTYPE svg
PUBLIC "-//W3C//DTD SVG 1.1//EN"
       "http://www.w3.org/Graphics/SVG/1.1/DTD/svg11.dtd">
<svg version="1.1" xmlns="http://www.w3.org/2000/svg" xmlns:xlink="http://www.w3.org/1999/xlink" viewBox="0 0 30.5508 23.7539">
 <g>
  <rect height="23.7539" opacity="0" width="30.5508" x="0" y="0"/>
  <path d="M20.3555 5.14453C21.7734 5.10938 22.8867 3.92578 22.8516 2.50781C22.8047 1.08984 21.6328-0.0117188 20.2148 0.0234375C18.7969 0.0703125 17.6953 1.23047 17.7305 2.64844C17.7656 4.06641 18.9375 5.17969 20.3555 5.14453ZM10.3945 6.98438L16.9219 13.0664C17.4023 13.5117 18.1523 13.4766 18.5977 13.0078C19.0312 12.5391 19.0078 11.7891 18.5391 11.3555L16.207 9.17578L17.25 8.64844C17.4609 8.53125 17.7188 8.58984 17.8711 8.73047L20.0391 10.7461L20.0391 15.4922C20.0391 16.1367 20.5664 16.6523 21.2109 16.6523C21.8555 16.6523 22.3828 16.1367 22.3828 15.4922L22.3828 10.1953C22.3828 9.85547 22.207 9.55078 21.8906 9.24609L16.8867 4.59375C15.9375 3.71484 14.4609 3.60938 13.2656 4.05469L10.7344 5.01562C10.0078 5.29688 9.62109 6.24609 10.3945 6.98438ZM9.71484 7.33594L9.09375 7.66406C7.05469 8.70703 6.62109 11.2266 8.58984 12.7734L12.9609 16.2305L10.3125 21.0586C9.99609 21.6211 10.2188 22.3242 10.7812 22.6523C11.2383 22.9102 12 22.8164 12.3633 22.1484L15.4922 16.4531C15.7383 15.9961 15.668 15.4688 15.3047 15.082L11.8477 11.3555L13.125 10.6641L10.1719 7.91016C9.98438 7.73438 9.83203 7.53516 9.71484 7.33594ZM1.17188 18.1289L7.04297 18.1289C7.51172 18.1289 7.89844 17.8359 8.07422 17.4609L9.375 14.8477L7.88672 13.6758C7.59375 13.4414 7.33594 13.207 7.13672 12.9258L6.1875 15.7852L1.17188 15.7852C0.527344 15.7852 0 16.2891 0 16.957C0 17.6016 0.527344 18.1289 1.17188 18.1289ZM28.207 21.6797C29.4023 21.6445 30.2344 20.8125 30.1992 19.6641C30.1875 19.1484 29.8242 18.5859 29.2383 18.6094C28.8633 18.6211 28.5938 18.8789 28.6055 19.2773L28.6172 19.6406C28.6289 20.1094 28.0781 20.3906 27.5859 19.9453L14.6016 8.44922L13.7227 9.12891L26.4258 20.9648C26.9414 21.4453 27.5625 21.6914 28.207 21.6797ZM22.4297 23.7539C23.332 23.7539 24.0703 23.0391 24.0703 22.1367C24.0703 21.2344 23.332 20.4961 22.4297 20.4961C21.5273 20.4961 20.8125 21.2344 20.8125 22.1367C20.8125 23.0391 21.5273 23.7539 22.4297 23.7539Z" fill="black" fill-opacity="0.85"/>
 </g>
</svg>
