<?xml version="1.0" encoding="UTF-8"?>
<!--Generator: Apple Native CoreSVG 360-->
<!DOCTYPE svg
PUBLIC "-//W3C//DTD SVG 1.1//EN"
       "http://www.w3.org/Graphics/SVG/1.1/DTD/svg11.dtd">
<svg version="1.1" xmlns="http://www.w3.org/2000/svg" xmlns:xlink="http://www.w3.org/1999/xlink" viewBox="0 0 29.2969 26.4199">
 <g>
  <rect height="26.4199" opacity="0" width="29.2969" x="0" y="0"/>
  <path d="M6.28711 7.68457C4.5293 7.68457 3.12305 6.21973 3.12305 4.52051C3.12305 2.75098 4.5293 1.32129 6.28711 1.32129C8.05664 1.32129 9.47461 2.75098 9.47461 4.52051C9.47461 6.2666 8.05664 7.68457 6.28711 7.68457ZM25.166 24.4541C24.5566 25.0869 23.5137 25.04 22.7754 24.2666L17.7246 19.0635C17.5605 18.8877 17.4434 18.8408 17.1855 18.9463L13.248 20.4346C10.7168 21.4072 8.33789 20.5752 7.22461 18.5596L4.69336 13.9541C3.70898 12.1611 4.02539 10.3096 5.72461 9.39551C7.38867 8.49316 9.09961 9.17285 10.0957 11.0127L13.3887 17.001L16.1777 15.9814C17.5605 15.4775 18.7207 15.6416 19.8223 16.79L25.0605 22.2041C25.7871 22.9541 25.7168 23.8916 25.166 24.4541Z" fill="black" fill-opacity="0.85"/>
  <path d="M27.7441 5.34082L23.959 1.54395C23.3848 0.958008 22.5293 1.29785 22.4941 2.11816L22.2363 6.17285C22.2129 6.72363 22.5527 7.08691 23.1152 7.05176L27.1816 6.81738C27.9668 6.77051 28.3535 5.96191 27.7441 5.34082ZM27.8379 0.254883L23.9473 4.13379C23.6074 4.47363 23.6191 5.03613 23.9355 5.35254C24.2754 5.69238 24.8262 5.69238 25.166 5.35254L29.0449 1.47363C29.3848 1.12207 29.373 0.571289 29.0566 0.254883C28.7168-0.0849609 28.1777-0.0849609 27.8379 0.254883ZM27.7441 12.4307C28.3535 11.8096 27.9668 11.001 27.1816 10.9541L23.1152 10.7197C22.5527 10.6846 22.2129 11.0479 22.2363 11.5869L22.4941 15.6416C22.5293 16.4736 23.3848 16.8135 23.959 16.2275ZM27.8379 17.5166C28.1777 17.8564 28.7168 17.8564 29.0566 17.5166C29.373 17.2002 29.3848 16.6377 29.0449 16.2979L25.166 12.4189C24.8262 12.0674 24.2754 12.0674 23.9355 12.4189C23.6191 12.7354 23.6074 13.2861 23.9473 13.626Z" fill="black" fill-opacity="0.85"/>
 </g>
</svg>
