<?xml version="1.0" encoding="UTF-8"?>
<!--Generator: Apple Native CoreSVG 360-->
<!DOCTYPE svg
PUBLIC "-//W3C//DTD SVG 1.1//EN"
       "http://www.w3.org/Graphics/SVG/1.1/DTD/svg11.dtd">
<svg version="1.1" xmlns="http://www.w3.org/2000/svg" xmlns:xlink="http://www.w3.org/1999/xlink" viewBox="0 0 28.6406 26.4961">
 <g>
  <rect height="26.4961" opacity="0" width="28.6406" x="0" y="0"/>
  <path d="M11.5547 4.71094C12.8672 4.71094 13.9219 3.66797 13.9219 2.36719C13.9219 1.04297 12.8672 0 11.5547 0C10.2539 0 9.19922 1.04297 9.19922 2.36719C9.19922 3.66797 10.2539 4.71094 11.5547 4.71094ZM13.6875 22.3594C14.3555 23.7188 16.3359 22.8867 15.6211 21.4219L13.7344 17.5781C13.5703 17.2383 13.3359 16.875 13.125 16.582L11.7305 14.6016L11.8242 14.3086C12.1875 13.1953 12.3516 12.5156 12.4219 11.4141L12.6328 8.29688C12.7383 6.80859 11.8711 5.68359 10.3477 5.68359C9.21094 5.68359 8.4375 6.25781 7.38281 7.30078L5.74219 8.91797C5.20312 9.44531 5.03906 9.87891 4.98047 10.5703L4.78125 13.125C4.72266 13.7812 5.08594 14.2148 5.67188 14.25C6.28125 14.2969 6.64453 13.9336 6.70312 13.2539L6.9375 10.4531L7.74609 9.73828C8.02734 9.49219 8.40234 9.64453 8.39062 9.9375L8.21484 12.3047C8.12109 13.5117 8.40234 14.0859 9.21094 15.1055L11.4141 17.8477C11.625 18.1172 11.6484 18.2344 11.7422 18.4102ZM17.7656 9.90234L15.2695 9.90234L13.7109 8.17969L13.5117 10.7695L14.1328 11.3906C14.4844 11.7422 14.7891 11.8477 15.4336 11.8477L17.7656 11.8477C18.4219 11.8477 18.8555 11.4727 18.8555 10.875C18.8555 10.2773 18.4102 9.90234 17.7656 9.90234ZM6.01172 23.4023L9.35156 19.4414C9.66797 19.0664 9.70312 18.9844 9.83203 18.5742L10.043 17.9414L8.30859 15.7852L7.81641 18.1172L4.52344 21.9844C3.50391 23.2031 5.15625 24.3984 6.01172 23.4023ZM21.5742 13.1367C21.7031 13.4414 22.1016 13.5938 22.4531 13.4297L27.9141 10.8867C28.2422 10.7227 28.3828 10.3359 28.2305 9.99609C28.0898 9.69141 27.7031 9.55078 27.3516 9.71484L21.8906 12.2578C21.5625 12.4219 21.4102 12.8086 21.5742 13.1367ZM22.1719 22.8164L23.2383 22.7461C23.3555 22.7461 23.4141 22.7344 23.4961 22.7461L25.4883 11.3672L24.0703 12ZM0.609375 26.4844L23.6719 26.4844C24.3984 26.4844 24.9727 25.9102 24.9727 25.1602C24.9727 24.3047 24.3164 23.8242 23.4141 23.8828L0.609375 25.2422C0.269531 25.2773 0 25.5234 0 25.875C0 26.2148 0.269531 26.4844 0.609375 26.4844Z" fill="black" fill-opacity="0.85"/>
 </g>
</svg>
