<?xml version="1.0" encoding="UTF-8"?>
<!--Generator: Apple Native CoreSVG 360-->
<!DOCTYPE svg
PUBLIC "-//W3C//DTD SVG 1.1//EN"
       "http://www.w3.org/Graphics/SVG/1.1/DTD/svg11.dtd">
<svg version="1.1" xmlns="http://www.w3.org/2000/svg" xmlns:xlink="http://www.w3.org/1999/xlink" viewBox="0 0 22.8556 23.6133">
 <g>
  <rect height="23.6133" opacity="0" width="22.8556" x="0" y="0"/>
  <path d="M17.3399 7.5L17.3399 10.3359C17.3399 11.1562 17.9376 11.7656 18.7579 11.7656L21.0079 11.7656C21.8165 11.7656 22.4258 11.1562 22.4258 10.3359L22.4258 7.5C22.4258 6.67969 21.8165 6.07031 21.0079 6.07031L18.7579 6.07031C17.9376 6.07031 17.3399 6.67969 17.3399 7.5ZM17.3399 15.832L17.3399 18.6797C17.3399 19.5 17.9376 20.1094 18.7579 20.1094L21.0079 20.1094C21.8165 20.1094 22.4258 19.5 22.4258 18.6797L22.4258 15.832C22.4258 15.0117 21.8165 14.4141 21.0079 14.4141L18.7579 14.4141C17.9376 14.4141 17.3399 15.0117 17.3399 15.832ZM19.8594 10.1367C19.2032 10.1367 18.629 9.59766 18.629 8.90625C18.629 8.26172 19.2032 7.71094 19.8594 7.71094C20.5157 7.71094 21.0782 8.26172 21.0782 8.90625C21.0782 9.59766 20.5157 10.1367 19.8594 10.1367ZM19.8594 18.4805C19.2032 18.4805 18.629 17.9297 18.629 17.25C18.629 16.5938 19.2032 16.043 19.8594 16.043C20.5157 16.043 21.0782 16.5938 21.0782 17.25C21.0782 17.9297 20.5157 18.4805 19.8594 18.4805ZM17.5626 4.33594L22.1915 4.33594C22.543 4.33594 22.6016 3.96094 22.3438 3.77344L20.2344 2.34375C20.0001 2.19141 19.754 2.19141 19.5079 2.34375L17.4102 3.77344C17.1407 3.96094 17.211 4.33594 17.5626 4.33594Z" fill="black" fill-opacity="0.85"/>
  <path d="M6.79304 5.22656C8.22272 5.22656 9.38288 4.01953 9.38288 2.625C9.38288 1.18359 8.22272 0 6.79304 0C5.33991 0 4.20319 1.18359 4.20319 2.625C4.20319 4.04297 5.33991 5.22656 6.79304 5.22656ZM1.78913 14.918L9.24226 6.66797C8.50397 6.38672 7.7071 6.26953 6.79304 6.26953C3.44147 6.26953 1.44929 7.88672 1.44929 10.5938C1.44929 11.25 1.48444 12.1172 1.58991 13.0078ZM11.7852 14.918L11.9962 13.0078C12.1016 12.1172 12.1368 11.25 12.1368 10.5938C12.1368 9.25781 11.6563 8.17969 10.754 7.45312L4.84772 14.0156C5.50397 13.9102 6.14851 13.8633 6.79304 13.8633C8.44538 13.8633 10.0977 14.0859 11.7852 14.918ZM3.92194 23.5547C4.60163 23.4609 5.0821 22.9688 4.97663 22.1133L4.50788 17.7891L9.07819 17.7891L8.60944 22.1133C8.52741 22.9688 8.97272 23.4609 9.65241 23.5547C10.3555 23.625 10.8946 23.1797 10.9883 22.3594L11.5977 16.6523C10.0743 15.7734 8.39851 15.4336 6.79304 15.4336C5.17585 15.4336 3.50007 15.7734 2.00007 16.6523L2.58601 22.3594C2.67976 23.1797 3.21882 23.625 3.92194 23.5547ZM10.754 7.44141L12.9688 4.96875C13.3438 4.53516 13.3204 4.05469 12.9454 3.75C12.5938 3.43359 12.1368 3.42188 11.7266 3.87891L9.24226 6.66797C9.78132 6.87891 10.2852 7.14844 10.754 7.44141ZM0.359443 15.7852C-0.0624324 16.0898-0.0741511 16.582 0.125068 16.8984C0.312568 17.2383 0.746161 17.4023 1.19147 17.1328C1.47272 16.957 1.71882 16.8047 2.00007 16.6523L1.78913 14.918C1.27351 15.1523 0.804755 15.4219 0.359443 15.7852ZM13.2383 15.7852C12.7813 15.4219 12.3126 15.1523 11.7852 14.918L11.586 16.6523C11.8673 16.8047 12.1133 16.957 12.3829 17.1328C12.8282 17.4023 13.2501 17.25 13.4493 16.9219C13.6602 16.5938 13.6602 16.1016 13.2383 15.7852Z" fill="black" fill-opacity="0.85"/>
 </g>
</svg>
