<?xml version="1.0" encoding="UTF-8"?>
<!--Generator: Apple Native CoreSVG 360-->
<!DOCTYPE svg
PUBLIC "-//W3C//DTD SVG 1.1//EN"
       "http://www.w3.org/Graphics/SVG/1.1/DTD/svg11.dtd">
<svg version="1.1" xmlns="http://www.w3.org/2000/svg" xmlns:xlink="http://www.w3.org/1999/xlink" viewBox="0 0 23.3203 30.4843">
 <g>
  <rect height="30.4843" opacity="0" width="23.3203" x="0" y="0"/>
  <path d="M20.4258 11.334C21.832 11.334 22.9688 10.1855 22.9688 8.75583C22.9688 7.34958 21.832 6.21286 20.4258 6.21286C18.9961 6.21286 17.8477 7.34958 17.8477 8.75583C17.8477 10.1855 18.9961 11.334 20.4258 11.334ZM9.9375 20.5215L14.2852 23.6972L11.7539 28.748C11.4609 29.3222 11.6953 30.0605 12.293 30.3652C12.832 30.623 13.5586 30.4707 13.875 29.8261L16.8398 23.8965C17.0977 23.3691 17.0039 22.8418 16.5938 22.4433L14.3555 20.3457L18.1641 20.3457C18.8555 20.3457 19.3594 19.8066 19.3594 19.1504L19.3594 14.3808C19.3594 12.4238 17.7773 10.8183 15.7969 10.8183L11.4023 10.8183L12.1641 8.14645C12.3398 7.52536 12 6.86911 11.3555 6.68161C10.7227 6.49411 10.0664 6.86911 9.89062 7.4902L8.70703 11.6621C8.48438 12.459 8.95312 13.1855 9.79688 13.1855L14.0742 13.1855C14.1211 13.1855 14.1562 13.2558 14.1094 13.291L10.3828 15.1777C8.28516 16.2324 8.02734 19.1152 9.9375 20.5215ZM14.4492 18.0136L16.8164 16.8886C16.9219 16.8418 17.0508 16.9121 17.0508 17.0293L17.0508 18.0136ZM8.20312 20.3105L7.18359 23.3105L1.21875 23.3105C0.539062 23.3105 0 23.8496 0 24.5058C0 25.1855 0.539062 25.7246 1.21875 25.7246L8.03906 25.7246C8.48438 25.7246 8.92969 25.4668 9.12891 25.0332L10.4883 22.3144L9.26953 21.4355C8.83594 21.1074 8.47266 20.7207 8.20312 20.3105ZM10.5469 5.27536L11.5078 5.27536C12.2109 4.41989 13.0195 2.97848 13.0195 2.01754C13.0195 0.83395 12.1992 0.0136379 11.0391 0.0136379C9.85547 0.0136379 9.02344 0.83395 9.02344 2.01754C9.02344 3.08395 9.83203 4.51364 10.5469 5.27536ZM10.3594 17.58L11.6836 17.58L11.6836 4.84176L10.3594 4.84176Z" fill="black" fill-opacity="0.85"/>
 </g>
</svg>
