<?xml version="1.0" encoding="UTF-8"?>
<!--Generator: Apple Native CoreSVG 360-->
<!DOCTYPE svg
PUBLIC "-//W3C//DTD SVG 1.1//EN"
       "http://www.w3.org/Graphics/SVG/1.1/DTD/svg11.dtd">
<svg version="1.1" xmlns="http://www.w3.org/2000/svg" xmlns:xlink="http://www.w3.org/1999/xlink" viewBox="0 0 31.3668 27.5742">
 <g>
  <rect height="27.5742" opacity="0" width="31.3668" x="0" y="0"/>
  <path d="M26.6287 8.88281L29.6638 13.3477C29.781 13.5234 29.8982 13.6992 30.0037 13.875C30.2498 14.3203 30.1092 14.9648 29.5115 15.2812C29.0428 15.5391 28.492 15.4688 28.1404 15.0703C27.824 14.6953 26.2185 12.3984 25.3396 11.168C25.2224 11.0039 25.0115 11.0742 25.0115 11.2617C25.0115 12.4922 25.0584 15.0938 25.2576 16.3828C25.492 17.8477 27.2029 24.9492 27.2849 25.2656C27.4959 26.0039 27.0388 26.6836 26.2888 26.6836C25.7381 26.6836 25.3631 26.3789 25.1638 25.6523C24.7654 24.2109 23.5701 19.3008 23.1834 18.1172C22.9138 17.2734 22.7263 16.9453 22.2459 16.9453C21.7654 16.9453 21.5779 17.2734 21.3084 18.1172C20.9099 19.3008 19.7263 24.2109 19.3279 25.6523C19.1287 26.3789 18.7537 26.6836 18.2029 26.6836C17.4529 26.6836 16.9959 26.0039 17.2068 25.2656C17.2888 24.9492 18.9881 17.8477 19.2224 16.3828C19.4217 15.0938 19.4803 12.5039 19.4803 11.2734C19.4803 11.0742 19.2576 11.0156 19.1521 11.168C18.6753 11.8418 17.9813 12.8226 17.3964 13.6375C17.3695 13.5705 17.3371 13.5052 17.3006 13.4414C17.2068 13.2305 17.0545 13.0195 16.9256 12.8438L16.0509 11.5486L17.8631 8.88281C18.824 7.46484 20.0193 6.83203 22.2459 6.83203C24.4724 6.83203 25.656 7.46484 26.6287 8.88281ZM24.7771 3.08203C24.7771 4.48828 23.6521 5.60156 22.2459 5.60156C20.8396 5.60156 19.7146 4.48828 19.7146 3.08203C19.7146 1.67578 20.8396 0.550781 22.2459 0.550781C23.6521 0.550781 24.7771 1.67578 24.7771 3.08203Z" fill="black" fill-opacity="0.85"/>
  <path d="M8.76931 5.60156C10.1756 5.60156 11.3006 4.48828 11.3006 3.08203C11.3006 1.67578 10.1756 0.550781 8.76931 0.550781C7.36306 0.550781 6.23806 1.67578 6.23806 3.08203C6.23806 4.48828 7.36306 5.60156 8.76931 5.60156ZM8.76931 16.9453C9.24978 16.9453 9.43728 17.2734 9.70681 18.1172C10.1053 19.3008 11.2888 24.2109 11.6873 25.6523C11.8865 26.3789 12.2615 26.6836 12.8123 26.6836C13.5623 26.6836 14.0193 26.0039 13.8084 25.2656C13.7263 24.9492 12.0271 17.8477 11.7928 16.3828C11.5935 15.0938 11.5349 12.4922 11.5349 11.2617C11.5349 11.0742 11.7459 11.0039 11.8631 11.168C12.742 12.3984 14.3592 14.6953 14.6756 15.0703C15.0154 15.4688 15.5779 15.5391 16.0467 15.2812C16.6443 14.9648 16.7732 14.3203 16.5271 13.875C16.4334 13.6992 16.3045 13.5234 16.1873 13.3477L13.1521 8.88281C12.1912 7.46484 10.9959 6.83203 8.76931 6.83203C6.54275 6.83203 5.34744 7.46484 4.3865 8.88281L1.35135 13.3477C1.23416 13.5234 1.10525 13.6992 1.0115 13.875C0.765408 14.3203 0.906033 14.9648 1.50369 15.2812C1.96072 15.5391 2.52322 15.4688 2.87478 15.0703C3.19119 14.6953 4.79666 12.4102 5.67556 11.168C5.78103 11.0156 6.00369 11.0742 6.00369 11.2734C6.00369 12.5039 5.95681 15.0938 5.7576 16.3828C5.5115 17.8477 3.81228 24.9492 3.73025 25.2656C3.51931 26.0039 3.97635 26.6836 4.72635 26.6836C5.27713 26.6836 5.65213 26.3789 5.85135 25.6523C6.24978 24.2109 7.43338 19.3008 7.83181 18.1172C8.10135 17.2734 8.28885 16.9453 8.76931 16.9453Z" fill="black" fill-opacity="0.85"/>
 </g>
</svg>
