<?xml version="1.0" encoding="UTF-8"?>
<!--Generator: Apple Native CoreSVG 360-->
<!DOCTYPE svg
PUBLIC "-//W3C//DTD SVG 1.1//EN"
       "http://www.w3.org/Graphics/SVG/1.1/DTD/svg11.dtd">
<svg version="1.1" xmlns="http://www.w3.org/2000/svg" xmlns:xlink="http://www.w3.org/1999/xlink" viewBox="0 0 30.0117 23.7773">
 <g>
  <rect height="23.7773" opacity="0" width="30.0117" x="0" y="0"/>
  <path d="M23.0215 6.36328C24.7676 6.36328 26.1738 4.89844 26.1738 3.19922C26.1738 1.42969 24.7676 0 23.0215 0C21.2402 0 19.834 1.42969 19.834 3.19922C19.834 4.94531 21.2402 6.36328 23.0215 6.36328ZM4.13086 23.1328C4.74023 23.7656 5.7832 23.7188 6.5332 22.9453L11.5723 17.7422C11.7363 17.5664 11.8535 17.5195 12.123 17.625L16.0488 19.1133C18.5801 20.0859 20.9707 19.2539 22.0723 17.2383L24.6035 12.6328C25.5879 10.8398 25.2832 8.98828 23.5723 8.07422C21.9199 7.17188 20.1973 7.85156 19.2012 9.69141L15.9199 15.6797L13.1191 14.6602C11.7363 14.1562 10.5762 14.3203 9.47461 15.4688L4.23633 20.8828C3.50977 21.6328 3.58008 22.5703 4.13086 23.1328Z" fill="black" fill-opacity="0.85"/>
  <path d="M10.8105 4.64062L10.8105 10.0078C10.8105 10.875 11.666 11.1797 12.2637 10.6406L15.2988 7.94531C15.709 7.57031 15.709 7.08984 15.2988 6.71484L12.2637 4.00781C11.6426 3.45703 10.8105 3.83203 10.8105 4.64062ZM6.2168 8.19141L12.4629 8.19141C12.9551 8.19141 13.3418 7.81641 13.3418 7.34766C13.3418 6.85547 12.9551 6.46875 12.4629 6.46875L6.2168 6.46875C5.72461 6.46875 5.34961 6.85547 5.34961 7.34766C5.34961 7.81641 5.72461 8.19141 6.2168 8.19141ZM1.55273 14.0859C0.943359 14.707 1.3418 15.5156 2.12695 15.5625L6.19336 15.7969C6.74414 15.832 7.0957 15.4805 7.06055 14.9297L6.81445 10.875C6.76758 10.043 5.92383 9.70312 5.33789 10.2891ZM0.251953 10.2188L4.10742 14.0742C4.44727 14.4141 4.99805 14.4141 5.32617 14.0742C5.6543 13.7461 5.66602 13.1953 5.31445 12.8555L1.4707 9C1.13086 8.66016 0.580078 8.66016 0.240234 9C-0.0761719 9.32812-0.0878906 9.87891 0.251953 10.2188Z" fill="black" fill-opacity="0.85"/>
 </g>
</svg>
