<?xml version="1.0" encoding="UTF-8"?>
<!--Generator: Apple Native CoreSVG 360-->
<!DOCTYPE svg
PUBLIC "-//W3C//DTD SVG 1.1//EN"
       "http://www.w3.org/Graphics/SVG/1.1/DTD/svg11.dtd">
<svg version="1.1" xmlns="http://www.w3.org/2000/svg" xmlns:xlink="http://www.w3.org/1999/xlink" viewBox="0 0 38.1869 33.3164">
 <g>
  <rect height="33.3164" opacity="0" width="38.1869" x="0" y="0"/>
  <path d="M31.3512 11.1328C33.1091 11.1328 34.5153 9.66797 34.5153 7.96875C34.5153 6.19922 33.1091 4.76953 31.3512 4.76953C29.5817 4.76953 28.1637 6.19922 28.1637 7.96875C28.1637 9.71484 29.5817 11.1328 31.3512 11.1328ZM12.4723 27.9023C13.0817 28.5352 14.1247 28.4883 14.863 27.7148L19.9137 22.5117C20.0778 22.3359 20.195 22.2891 20.4528 22.3945L24.3903 23.8828C26.9216 24.8555 29.3005 24.0234 30.4137 22.0078L32.945 17.4023C33.9294 15.6094 33.613 13.7578 31.9137 12.8438C30.2497 11.9414 28.5387 12.6211 27.5427 14.4609L24.2497 20.4492L21.4606 19.4297C20.0661 18.9258 18.9177 19.0898 17.8161 20.2383L12.5778 25.6523C11.8512 26.4023 11.9216 27.3398 12.4723 27.9023Z" fill="black" fill-opacity="0.85"/>
  <path d="M0.202812 8.54297L3.39031 12.6094C3.53094 12.7969 3.75359 12.832 3.95281 12.7148C4.71453 12.3164 5.80437 12.0469 6.65984 12.0469C7.52703 12.0469 8.61687 12.3164 9.35516 12.7148C9.57781 12.832 9.80047 12.7969 9.92937 12.6094L13.1286 8.54297C13.445 8.13281 13.3864 7.72266 13.0114 7.41797C11.7106 6.42188 9.24969 5.66016 6.65984 5.66016C4.08172 5.66016 1.62078 6.42188 0.331719 7.41797C-0.066719 7.72266-0.101875 8.13281 0.202812 8.54297ZM3.5075 14.9883C3.14422 14.5078 2.99187 14.0625 2.99187 13.582C2.99187 12.4805 3.8825 12.1992 3.8825 11.5547C3.8825 10.8984 2.99187 10.6289 2.99187 9.49219C2.99187 9.02344 3.14422 8.57812 3.5075 8.10938C3.91766 7.61719 4.65594 8.14453 4.2575 8.66016C3.99969 9.02344 3.92937 9.22266 3.92937 9.49219C3.92937 10.2891 4.80828 10.5117 4.80828 11.5547C4.80828 12.5859 3.92937 12.8203 3.92937 13.582C3.92937 13.8867 3.99969 14.0625 4.2575 14.4375C4.64422 14.9414 3.91766 15.4805 3.5075 14.9883ZM6.26141 14.9883C5.90984 14.5195 5.7575 14.0625 5.7575 13.582C5.7575 12.4805 6.64812 12.1992 6.64812 11.5547C6.64812 10.8984 5.7575 10.6289 5.7575 9.49219C5.7575 9.02344 5.90984 8.57812 6.26141 8.10938C6.67156 7.61719 7.42156 8.14453 7.03484 8.66016C6.76531 9.02344 6.695 9.22266 6.695 9.49219C6.695 10.2891 7.58562 10.5117 7.58562 11.5547C7.58562 12.5859 6.695 12.8203 6.695 13.582C6.695 13.8867 6.76531 14.0625 7.02312 14.4375C7.40984 14.9414 6.67156 15.4805 6.26141 14.9883ZM9.05047 14.9883C8.67547 14.5195 8.52312 14.0625 8.52312 13.582C8.52312 12.4805 9.42547 12.1992 9.42547 11.5547C9.42547 10.8984 8.52312 10.6289 8.52312 9.49219C8.52312 9.02344 8.67547 8.57812 9.06219 8.10938C9.46062 7.61719 10.1872 8.14453 9.80047 8.66016C9.54266 9.02344 9.46062 9.22266 9.46062 9.49219C9.46062 10.2891 10.3512 10.5117 10.3512 11.5547C10.3512 12.5859 9.46062 12.8203 9.46062 13.582C9.46062 13.8867 9.54266 14.0625 9.78875 14.4375C10.1872 14.9414 9.44891 15.4805 9.05047 14.9883ZM16.1052 7.42969L16.1052 2.09766C16.1052 1.6875 15.777 1.35938 15.3669 1.35938C14.945 1.35938 14.6286 1.67578 14.6286 2.09766L14.6286 7.42969C14.6286 7.85156 14.945 8.17969 15.3669 8.17969C15.777 8.16797 16.1052 7.85156 16.1052 7.42969ZM12.988 4.24219L17.7458 4.24219C18.4841 4.24219 18.777 3.52734 18.2848 2.97656L15.9294 0.28125C15.5895-0.09375 15.1559-0.09375 14.8161 0.28125L12.4255 2.97656C11.9567 3.48047 12.2262 4.24219 12.988 4.24219ZM14.6169 11.3672L14.6169 16.7344C14.6169 17.168 14.9333 17.4961 15.3552 17.4961C15.7536 17.4727 16.1052 17.1562 16.1052 16.7344L16.1052 11.3672C16.1052 10.9453 15.7536 10.6172 15.3552 10.6055C14.9333 10.6055 14.6169 10.9336 14.6169 11.3672ZM17.7458 14.543L12.988 14.543C12.2028 14.543 11.945 15.3047 12.4137 15.8203L14.8278 18.5039C15.1677 18.8555 15.5895 18.8906 15.9177 18.5156L18.2848 15.7969C18.7536 15.2578 18.4723 14.543 17.7458 14.543Z" fill="black" fill-opacity="0.85"/>
 </g>
</svg>
