<?xml version="1.0" encoding="UTF-8"?>
<!--Generator: Apple Native CoreSVG 360-->
<!DOCTYPE svg
PUBLIC "-//W3C//DTD SVG 1.1//EN"
       "http://www.w3.org/Graphics/SVG/1.1/DTD/svg11.dtd">
<svg version="1.1" xmlns="http://www.w3.org/2000/svg" xmlns:xlink="http://www.w3.org/1999/xlink" viewBox="0 0 22.8167 23.9414">
 <g>
  <rect height="23.9414" opacity="0" width="22.8167" x="0" y="0"/>
  <path d="M19.3009 6.5625C21.0588 6.5625 22.465 5.09766 22.465 3.39844C22.465 1.62891 21.0588 0.1875 19.3009 0.1875C17.5314 0.1875 16.1134 1.62891 16.1134 3.39844C16.1134 5.13281 17.5314 6.5625 19.3009 6.5625ZM17.2619 18.7031C17.7775 18.293 18.2697 17.6016 18.7384 16.7344L20.8947 12.8203C21.8908 11.0156 21.5627 9.17578 19.8634 8.26172C18.1994 7.34766 16.5002 8.05078 15.4924 9.87891L13.2658 13.8984ZM0.422038 23.3086C1.03141 23.9531 2.07438 23.8945 2.82438 23.1328L7.86344 17.9297C8.03923 17.7539 8.14469 17.707 8.40251 17.8125L12.6564 19.418C13.5822 19.7695 14.59 19.6992 15.3283 19.5586L12.3986 15.9375L9.41032 14.8477C8.02751 14.3438 6.87907 14.5078 5.76579 15.6562L0.527507 21.0703C-0.187337 21.8203-0.128743 22.7578 0.422038 23.3086ZM19.7931 23.4492C20.2736 23.0742 20.3088 22.4883 19.8517 21.9375L17.2619 18.7031C16.6642 19.125 16.008 19.418 15.3283 19.5586L18.3166 23.2266C18.7502 23.7539 19.3009 23.8594 19.7931 23.4492Z" fill="black" fill-opacity="0.85"/>
  <path d="M5.96501 11.8945C9.28141 11.8945 11.8595 9.16406 11.8595 5.98828C11.8595 2.67188 9.28141 0 5.96501 0C2.66032 0 0.000162984 2.67188 0.000162984 5.98828C0.000162984 9.16406 2.66032 11.8945 5.96501 11.8945ZM5.96501 10.3594C3.56266 10.3594 1.53532 8.36719 1.53532 5.98828C1.53532 3.51562 3.50407 1.53516 5.96501 1.53516C8.41423 1.53516 10.3244 3.49219 10.3244 5.98828C10.3244 8.40234 8.36735 10.3594 5.96501 10.3594ZM1.64079 0.574219C1.34782 0.28125 0.855632 0.28125 0.562663 0.574219C0.257975 0.867188 0.257975 1.34766 0.562663 1.66406L10.2424 11.332C10.5353 11.625 11.0158 11.625 11.3205 11.332C11.6252 11.0391 11.6252 10.5469 11.3205 10.2422ZM0.562663 10.2422C0.257975 10.5469 0.257975 11.0391 0.562663 11.332C0.855632 11.625 1.34782 11.625 1.64079 11.332L11.3205 1.66406C11.6252 1.34766 11.6252 0.867188 11.3205 0.574219C11.0158 0.28125 10.5353 0.28125 10.2424 0.574219Z" fill="black" fill-opacity="0.85"/>
 </g>
</svg>
