<?xml version="1.0" encoding="UTF-8"?>
<!--Generator: Apple Native CoreSVG 360-->
<!DOCTYPE svg
PUBLIC "-//W3C//DTD SVG 1.1//EN"
       "http://www.w3.org/Graphics/SVG/1.1/DTD/svg11.dtd">
<svg version="1.1" xmlns="http://www.w3.org/2000/svg" xmlns:xlink="http://www.w3.org/1999/xlink" viewBox="0 0 10.2891 25.8867">
 <g>
  <rect height="25.8867" opacity="0" width="10.2891" x="0" y="0"/>
  <path d="M3.58594 25.8867C4.16016 25.8867 4.60547 25.4414 4.60547 24.8672L4.60547 17.3789C4.60547 17.2031 4.78125 17.0273 4.95703 17.0273C5.15625 17.0273 5.32031 17.2031 5.32031 17.3789L5.32031 24.8672C5.32031 25.4414 5.77734 25.8867 6.35156 25.8867C6.91406 25.8867 7.38281 25.4414 7.38281 24.8672L7.38281 12.5742C7.38281 12.375 7.53516 12.2344 7.72266 12.2344C7.91016 12.2344 8.0625 12.375 8.0625 12.5742L8.0625 16.6289C8.0625 17.1562 8.47266 17.5781 9 17.5781C9.51562 17.5781 9.9375 17.1562 9.9375 16.6289L9.9375 12.1055C9.9375 9.75 8.22656 8.21484 5.73047 8.21484L4.19531 8.21484C1.69922 8.21484 0 9.75 0 12.1055L0 16.6289C0 17.1562 0.421875 17.5781 0.9375 17.5781C1.45312 17.5781 1.86328 17.1562 1.86328 16.6289L1.86328 12.5742C1.86328 12.375 2.01562 12.2344 2.21484 12.2344C2.40234 12.2344 2.55469 12.375 2.55469 12.5742L2.55469 24.8672C2.55469 25.4414 3.01172 25.8867 3.58594 25.8867ZM4.95703 7.00781C6.24609 7.00781 7.26562 5.98828 7.26562 4.71094C7.26562 3.43359 6.24609 2.41406 4.95703 2.41406C3.69141 2.41406 2.67188 3.43359 2.67188 4.71094C2.67188 5.98828 3.69141 7.00781 4.95703 7.00781Z" fill="black" fill-opacity="0.85"/>
 </g>
</svg>
