<?xml version="1.0" encoding="UTF-8"?>
<!--Generator: Apple Native CoreSVG 360-->
<!DOCTYPE svg
PUBLIC "-//W3C//DTD SVG 1.1//EN"
       "http://www.w3.org/Graphics/SVG/1.1/DTD/svg11.dtd">
<svg version="1.1" xmlns="http://www.w3.org/2000/svg" xmlns:xlink="http://www.w3.org/1999/xlink" viewBox="0 0 38.1869 24.3867">
 <g>
  <rect height="24.3867" opacity="0" width="38.1869" x="0" y="0"/>
  <path d="M31.3512 6.66797C33.1091 6.66797 34.5153 5.20312 34.5153 3.50391C34.5153 1.73438 33.1091 0.304688 31.3512 0.304688C29.5817 0.304688 28.1637 1.73438 28.1637 3.50391C28.1637 5.25 29.5817 6.66797 31.3512 6.66797ZM12.4723 23.4375C13.0817 24.0703 14.1247 24.0234 14.863 23.25L19.9137 18.0469C20.0778 17.8711 20.195 17.8242 20.4528 17.9297L24.3903 19.418C26.9216 20.3906 29.3005 19.5586 30.4137 17.543L32.945 12.9375C33.9294 11.1445 33.613 9.29297 31.9137 8.37891C30.2497 7.47656 28.5387 8.15625 27.5427 9.99609L24.2497 15.9844L21.4606 14.9648C20.0661 14.4609 18.9177 14.625 17.8161 15.7734L12.5778 21.1875C11.8512 21.9375 11.9216 22.875 12.4723 23.4375Z" fill="black" fill-opacity="0.85"/>
  <path d="M0.202812 4.07812L3.39031 8.14453C3.53094 8.33203 3.75359 8.36719 3.95281 8.25C4.71453 7.85156 5.80437 7.58203 6.65984 7.58203C7.52703 7.58203 8.61687 7.85156 9.35516 8.25C9.57781 8.36719 9.80047 8.33203 9.92937 8.14453L13.1286 4.07812C13.445 3.66797 13.3864 3.25781 13.0114 2.95312C11.7106 1.95703 9.24969 1.19531 6.65984 1.19531C4.08172 1.19531 1.62078 1.95703 0.331719 2.95312C-0.066719 3.25781-0.101875 3.66797 0.202812 4.07812ZM3.5075 10.5234C3.14422 10.043 2.99187 9.59766 2.99187 9.11719C2.99187 8.01562 3.8825 7.73438 3.8825 7.08984C3.8825 6.43359 2.99187 6.16406 2.99187 5.02734C2.99187 4.55859 3.14422 4.11328 3.5075 3.64453C3.91766 3.15234 4.65594 3.67969 4.2575 4.19531C3.99969 4.55859 3.92937 4.75781 3.92937 5.02734C3.92937 5.82422 4.80828 6.04688 4.80828 7.08984C4.80828 8.12109 3.92937 8.35547 3.92937 9.11719C3.92937 9.42188 3.99969 9.59766 4.2575 9.97266C4.64422 10.4766 3.91766 11.0156 3.5075 10.5234ZM6.26141 10.5234C5.92156 10.043 5.7575 9.59766 5.7575 9.11719C5.7575 8.01562 6.64812 7.73438 6.64812 7.08984C6.64812 6.43359 5.7575 6.16406 5.7575 5.02734C5.7575 4.55859 5.90984 4.11328 6.26141 3.64453C6.67156 3.15234 7.42156 3.67969 7.03484 4.19531C6.76531 4.55859 6.695 4.75781 6.695 5.02734C6.695 5.82422 7.58562 6.04688 7.58562 7.08984C7.58562 8.12109 6.695 8.35547 6.695 9.11719C6.695 9.42188 6.76531 9.59766 7.02312 9.97266C7.40984 10.4766 6.67156 11.0156 6.26141 10.5234ZM9.05047 10.5234C8.68719 10.043 8.52312 9.59766 8.52312 9.11719C8.52312 8.01562 9.42547 7.73438 9.42547 7.08984C9.42547 6.43359 8.52312 6.16406 8.52312 5.02734C8.52312 4.55859 8.67547 4.11328 9.06219 3.64453C9.46062 3.15234 10.1872 3.67969 9.80047 4.19531C9.54266 4.55859 9.46062 4.75781 9.46062 5.02734C9.46062 5.82422 10.3512 6.04688 10.3512 7.08984C10.3512 8.12109 9.46062 8.35547 9.46062 9.11719C9.46062 9.42188 9.54266 9.59766 9.78875 9.97266C10.1872 10.4766 9.44891 11.0156 9.05047 10.5234ZM19.2458 0C18.777 0 18.3903 0.375 18.3903 0.867188L18.3903 5.42578L16.4919 5.42578C15.613 5.42578 15.3083 6.30469 15.8473 6.90234L18.6247 10.043C18.9997 10.4648 19.5036 10.4648 19.8903 10.043L22.6677 6.90234C23.2302 6.28125 22.8552 5.42578 22.0231 5.42578L20.113 5.42578L20.113 0.867188C20.113 0.375 19.738 0 19.2458 0Z" fill="black" fill-opacity="0.85"/>
 </g>
</svg>
