<?xml version="1.0" encoding="UTF-8"?>
<!--Generator: Apple Native CoreSVG 360-->
<!DOCTYPE svg
PUBLIC "-//W3C//DTD SVG 1.1//EN"
       "http://www.w3.org/Graphics/SVG/1.1/DTD/svg11.dtd">
<svg version="1.1" xmlns="http://www.w3.org/2000/svg" xmlns:xlink="http://www.w3.org/1999/xlink" viewBox="0 0 35.8803 23.6133">
 <g>
  <rect height="23.6133" opacity="0" width="35.8803" x="0" y="0"/>
  <path d="M17.3601 10.4297L17.3601 13.2773C17.3601 14.0977 17.9694 14.6953 18.778 14.6953L21.028 14.6953C21.8366 14.6953 22.446 14.0977 22.446 13.2773L22.446 10.4297C22.446 9.60938 21.8366 9 21.028 9L18.778 9C17.9694 9 17.3601 9.60938 17.3601 10.4297ZM23.8991 10.4297L23.8991 13.2773C23.8991 14.0977 24.5085 14.6953 25.3288 14.6953L27.5671 14.6953C28.3874 14.6953 28.9733 14.0977 28.9733 13.2773L28.9733 10.4297C28.9733 9.60938 28.3874 9 27.5671 9L25.3288 9C24.5085 9 23.8991 9.60938 23.8991 10.4297ZM30.4265 10.4297L30.4265 13.2773C30.4265 14.0977 31.0358 14.6953 31.8562 14.6953L34.0944 14.6953C34.9148 14.6953 35.5241 14.0977 35.5241 13.2773L35.5241 10.4297C35.5241 9.60938 34.9148 9 34.0944 9L31.8562 9C31.0358 9 30.4265 9.60938 30.4265 10.4297ZM19.9148 13.0547C19.2468 13.0547 18.6843 12.5273 18.6843 11.8359C18.6843 11.1797 19.2468 10.6289 19.9148 10.6289C20.571 10.6289 21.1218 11.1797 21.1218 11.8359C21.1218 12.5273 20.571 13.0547 19.9148 13.0547ZM26.4421 13.0547C25.7741 13.0547 25.2116 12.5273 25.2116 11.8359C25.2116 11.1797 25.7741 10.6289 26.4421 10.6289C27.0983 10.6289 27.6608 11.1797 27.6608 11.8359C27.6608 12.5273 27.0983 13.0547 26.4421 13.0547ZM32.9812 13.0547C32.3132 13.0547 31.739 12.5273 31.739 11.8359C31.739 11.1797 32.3132 10.6289 32.9812 10.6289C33.6374 10.6289 34.1882 11.1797 34.1882 11.8359C34.1882 12.5273 33.6374 13.0547 32.9812 13.0547ZM24.1101 7.26562L28.739 7.26562C29.0905 7.26562 29.1608 6.89062 28.8913 6.71484L26.7937 5.27344C26.5476 5.12109 26.3015 5.12109 26.0671 5.27344L23.9694 6.71484C23.6999 6.89062 23.7585 7.26562 24.1101 7.26562Z" fill="black" fill-opacity="0.85"/>
  <path d="M6.81319 5.22656C8.23116 5.22656 9.39131 4.01953 9.39131 2.625C9.39131 1.18359 8.23116 0 6.81319 0C5.34835 0 4.21163 1.18359 4.21163 2.625C4.21163 4.04297 5.34835 5.22656 6.81319 5.22656ZM1.80928 14.918L9.25069 6.66797C8.51241 6.38672 7.71553 6.26953 6.81319 6.26953C3.44991 6.26953 1.46944 7.88672 1.46944 10.5938C1.46944 11.25 1.49288 12.1172 1.59835 13.0078ZM11.7937 14.918L12.0046 13.0078C12.1101 12.1172 12.1452 11.25 12.1452 10.5938C12.1452 9.25781 11.6648 8.17969 10.7624 7.45312L4.85616 14.0156C5.51241 13.9102 6.15694 13.8633 6.81319 13.8633C8.45381 13.8633 10.1062 14.0859 11.7937 14.918ZM3.93038 23.5547C4.61006 23.4609 5.09053 22.9688 4.98506 22.1133L4.51631 17.7891L9.07491 17.7891L8.61788 22.1133C8.53585 22.9688 8.98116 23.4609 9.66085 23.5547C10.364 23.625 10.903 23.1797 10.9968 22.3594L11.6062 16.6523C10.0827 15.7734 8.41866 15.4336 6.81319 15.4336C5.18428 15.4336 3.5085 15.7734 2.0085 16.6523L2.60616 22.3594C2.68819 23.1797 3.22725 23.625 3.93038 23.5547ZM10.7624 7.44141L12.9773 4.96875C13.3523 4.53516 13.3288 4.05469 12.9538 3.75C12.6023 3.43359 12.1452 3.42188 11.7351 3.87891L9.25069 6.66797C9.78975 6.87891 10.3054 7.14844 10.7624 7.44141ZM0.367877 15.7852C-0.0657166 16.0898-0.0774353 16.582 0.133502 16.8984C0.321002 17.2383 0.754596 17.4023 1.19991 17.1328C1.48116 16.957 1.72725 16.8047 2.0085 16.6523L1.80928 14.918C1.28194 15.1523 0.81319 15.4219 0.367877 15.7852ZM13.2468 15.7852C12.7898 15.4219 12.321 15.1523 11.7937 14.918L11.5944 16.6523C11.8757 16.8047 12.1218 16.957 12.3913 17.1328C12.8366 17.4023 13.2585 17.25 13.4577 16.9219C13.6687 16.5938 13.6687 16.1016 13.2468 15.7852Z" fill="black" fill-opacity="0.85"/>
 </g>
</svg>
