<?xml version="1.0" encoding="UTF-8"?>
<!--Generator: Apple Native CoreSVG 360-->
<!DOCTYPE svg
PUBLIC "-//W3C//DTD SVG 1.1//EN"
       "http://www.w3.org/Graphics/SVG/1.1/DTD/svg11.dtd">
<svg version="1.1" xmlns="http://www.w3.org/2000/svg" xmlns:xlink="http://www.w3.org/1999/xlink" viewBox="0 0 22.8243 23.8711">
 <g>
  <rect height="23.8711" opacity="0" width="22.8243" x="0" y="0"/>
  <path d="M19.3165 6.41016C21.0743 6.41016 22.4688 4.94531 22.4688 3.24609C22.4688 1.47656 21.0743 0.046875 19.3165 0.046875C17.5469 0.046875 16.129 1.47656 16.129 3.24609C16.129 4.99219 17.5469 6.41016 19.3165 6.41016ZM0.437551 23.1797C1.03521 23.8125 2.07818 23.7656 2.82818 22.9922L7.86724 17.7891C8.0313 17.6133 8.16021 17.5664 8.41802 17.6719L12.3555 19.1602C14.8868 20.1328 17.2657 19.3008 18.379 17.2852L20.9102 12.6797C21.8946 10.8867 21.5782 9.03516 19.8672 8.12109C18.2149 7.21875 16.504 7.89844 15.4961 9.73828L12.2149 15.7266L9.41411 14.707C8.0313 14.2031 6.88286 14.3672 5.7813 15.5156L0.54302 20.9297C-0.195261 21.6797-0.124949 22.6172 0.437551 23.1797Z" fill="black" fill-opacity="0.85"/>
  <path d="M1.04693 6.38672C0.0859889 6.38672-0.335886 7.35938 0.308645 8.07422L3.46099 11.625C3.88286 12.1055 4.45708 12.1172 4.9024 11.625L8.04302 8.07422C8.6524 7.39453 8.31255 6.38672 7.31646 6.38672ZM5.18365 0.996094C5.18365 0.433594 4.75005 0 4.19927 0C3.63677 0 3.19146 0.433594 3.19146 0.996094L3.19146 8.85938C3.19146 9.42188 3.63677 9.86719 4.19927 9.86719C4.75005 9.86719 5.18365 9.42188 5.18365 8.85938Z" fill="black" fill-opacity="0.85"/>
 </g>
</svg>
