<?xml version="1.0" encoding="UTF-8"?>
<!--Generator: Apple Native CoreSVG 360-->
<!DOCTYPE svg
PUBLIC "-//W3C//DTD SVG 1.1//EN"
       "http://www.w3.org/Graphics/SVG/1.1/DTD/svg11.dtd">
<svg version="1.1" xmlns="http://www.w3.org/2000/svg" xmlns:xlink="http://www.w3.org/1999/xlink" viewBox="0 0 31.4741 23.7773">
 <g>
  <rect height="23.7773" opacity="0" width="31.4741" x="0" y="0"/>
  <path d="M7.48704 6.36328C5.72923 6.36328 4.32298 4.89844 4.32298 3.19922C4.32298 1.42969 5.72923 0 7.48704 0C9.25657 0 10.6745 1.42969 10.6745 3.19922C10.6745 4.94531 9.25657 6.36328 7.48704 6.36328ZM26.3659 23.1328C25.7566 23.7656 24.7136 23.7188 23.9753 22.9453L18.9245 17.7422C18.7605 17.5664 18.6433 17.5195 18.3855 17.625L14.448 19.1133C11.9167 20.0859 9.53782 19.2539 8.42454 17.2383L5.89329 12.6328C4.90891 10.8398 5.22532 8.98828 6.92454 8.07422C8.5886 7.17188 10.2995 7.85156 11.2956 9.69141L14.5886 15.6797L17.3777 14.6602C18.7605 14.1562 19.9206 14.3203 21.0222 15.4688L26.2605 20.8828C26.987 21.6328 26.9167 22.5703 26.3659 23.1328Z" fill="black" fill-opacity="0.85"/>
  <path d="M19.698 4.64062C19.698 3.78516 18.8308 3.48047 18.2449 4.00781L15.2097 6.71484C14.7878 7.07812 14.7995 7.57031 15.2097 7.94531L18.2449 10.6406C18.8542 11.2031 19.698 10.8281 19.698 10.0078ZM24.28 8.17969C24.7722 8.17969 25.1589 7.80469 25.1589 7.3125C25.1589 6.84375 24.7722 6.45703 24.28 6.45703L17.6824 6.45703C17.1902 6.45703 16.8034 6.84375 16.8034 7.3125C16.8034 7.80469 17.1902 8.17969 17.6824 8.17969ZM25.2058 13.6523C24.3503 13.6523 24.0456 14.5195 24.573 15.1055L27.28 18.1523C27.6433 18.5625 28.1355 18.5625 28.5105 18.1523L31.2058 15.1055C31.7683 14.4961 31.3933 13.6523 30.573 13.6523ZM28.7449 9.30469C28.7449 8.8125 28.3699 8.4375 27.8777 8.4375C27.4089 8.4375 27.0222 8.8125 27.0222 9.30469L27.0222 15.668C27.0222 16.1602 27.4089 16.5469 27.8777 16.5469C28.3699 16.5469 28.7449 16.1602 28.7449 15.668Z" fill="black" fill-opacity="0.85"/>
 </g>
</svg>
