<?xml version="1.0" encoding="UTF-8"?>
<!--Generator: Apple Native CoreSVG 360-->
<!DOCTYPE svg
PUBLIC "-//W3C//DTD SVG 1.1//EN"
       "http://www.w3.org/Graphics/SVG/1.1/DTD/svg11.dtd">
<svg version="1.1" xmlns="http://www.w3.org/2000/svg" xmlns:xlink="http://www.w3.org/1999/xlink" viewBox="0 0 20.5664 27.7617">
 <g>
  <rect height="27.7617" opacity="0" width="20.5664" x="0" y="0"/>
  <path d="M10.9055 9.0308C9.5876 9.85207 8.77734 11.2638 8.77734 13.043L8.77734 25.6641C8.77734 26.2969 8.27344 26.8008 7.62891 26.8008C6.99609 26.8008 6.49219 26.2969 6.49219 25.6641L6.49219 17.3555C6.49219 17.1445 6.30469 16.957 6.09375 16.957C5.88281 16.957 5.70703 17.1445 5.70703 17.3555L5.70703 25.6641C5.70703 26.2969 5.19141 26.8008 4.55859 26.8008C3.92578 26.8008 3.42188 26.2969 3.42188 25.6641L3.42188 12C3.42188 11.7891 3.24609 11.625 3.03516 11.625C2.82422 11.625 2.66016 11.7891 2.66016 12L2.66016 16.5117C2.66016 17.0977 2.19141 17.5547 1.61719 17.5547C1.04297 17.5547 0.574219 17.0977 0.574219 16.5117L0.574219 11.4727C0.574219 8.88281 2.47266 7.17188 5.25 7.17188L6.94922 7.17188C8.71305 7.17188 10.1177 7.86194 10.9055 9.0308ZM8.64844 3.26953C8.64844 4.6875 7.51172 5.82422 6.09375 5.82422C4.6875 5.82422 3.53906 4.6875 3.53906 3.26953C3.53906 1.85156 4.6875 0.714844 6.09375 0.714844C7.51172 0.714844 8.64844 1.85156 8.64844 3.26953Z" fill="black" fill-opacity="0.85"/>
  <path d="M13.2891 26.8242C13.8633 26.8242 14.3086 26.3789 14.3086 25.8047L14.3086 18.3164C14.3086 18.1406 14.4844 17.9648 14.6602 17.9648C14.8594 17.9648 15.0234 18.1406 15.0234 18.3164L15.0234 25.8047C15.0234 26.3789 15.4805 26.8242 16.0547 26.8242C16.6172 26.8242 17.0859 26.3789 17.0859 25.8047L17.0859 13.5117C17.0859 13.3125 17.2383 13.1719 17.4258 13.1719C17.6133 13.1719 17.7656 13.3125 17.7656 13.5117L17.7656 17.5664C17.7656 18.0938 18.1758 18.5156 18.7031 18.5156C19.2188 18.5156 19.6406 18.0938 19.6406 17.5664L19.6406 13.043C19.6406 10.6875 17.9297 9.15234 15.4336 9.15234L13.8984 9.15234C11.4141 9.15234 9.70312 10.6875 9.70312 13.043L9.70312 17.5664C9.70312 18.0938 10.125 18.5156 10.6406 18.5156C11.168 18.5156 11.5664 18.0938 11.5664 17.5664L11.5664 13.5117C11.5664 13.3125 11.7188 13.1719 11.918 13.1719C12.1055 13.1719 12.2578 13.3125 12.2578 13.5117L12.2578 25.8047C12.2578 26.3789 12.7148 26.8242 13.2891 26.8242ZM14.6602 7.94531C15.9492 7.94531 16.9688 6.92578 16.9688 5.64844C16.9688 4.37109 15.9492 3.35156 14.6602 3.35156C13.3945 3.35156 12.375 4.37109 12.375 5.64844C12.375 6.92578 13.3945 7.94531 14.6602 7.94531Z" fill="black" fill-opacity="0.85"/>
 </g>
</svg>
