<?xml version="1.0" encoding="UTF-8"?>
<!--Generator: Apple Native CoreSVG 360-->
<!DOCTYPE svg
PUBLIC "-//W3C//DTD SVG 1.1//EN"
       "http://www.w3.org/Graphics/SVG/1.1/DTD/svg11.dtd">
<svg version="1.1" xmlns="http://www.w3.org/2000/svg" xmlns:xlink="http://www.w3.org/1999/xlink" viewBox="0 0 32.1668 23.7773">
 <g>
  <rect height="23.7773" opacity="0" width="32.1668" x="0" y="0"/>
  <path d="M23.9935 6.36328C25.7396 6.36328 27.1459 4.89844 27.1459 3.19922C27.1459 1.42969 25.7396 0 23.9935 0C22.2123 0 20.806 1.42969 20.806 3.19922C20.806 4.94531 22.2123 6.36328 23.9935 6.36328ZM5.10292 23.1328C5.7123 23.7656 6.75527 23.7188 7.50527 22.9453L12.5443 17.7422C12.7084 17.5664 12.8256 17.5195 13.0951 17.625L17.0326 19.1133C19.5521 20.0859 21.9428 19.2539 23.0443 17.2383L25.5756 12.6328C26.56 10.8398 26.2553 8.98828 24.5443 8.07422C22.892 7.17188 21.1693 7.85156 20.1732 9.69141L16.892 15.6797L14.0912 14.6602C12.7084 14.1562 11.5482 14.3203 10.4467 15.4688L5.20839 20.8828C4.48183 21.6328 4.55214 22.5703 5.10292 23.1328Z" fill="black" fill-opacity="0.85"/>
  <path d="M11.7826 4.64062L11.7826 10.0078C11.7826 10.8281 12.6146 11.2031 13.2357 10.6406L16.2709 7.94531C16.681 7.57031 16.681 7.07812 16.2709 6.71484L13.2357 4.00781C12.6381 3.48047 11.7826 3.78516 11.7826 4.64062ZM7.18886 8.17969L13.7865 8.17969C14.2787 8.17969 14.6654 7.80469 14.6654 7.3125C14.6654 6.84375 14.2787 6.45703 13.7865 6.45703L7.18886 6.45703C6.69667 6.45703 6.32167 6.84375 6.32167 7.3125C6.32167 7.80469 6.69667 8.17969 7.18886 8.17969ZM6.26308 13.6523L0.895893 13.6523C0.0755809 13.6523-0.2877 14.4961 0.263081 15.1055L2.95839 18.1523C3.33339 18.5625 3.82558 18.5625 4.20058 18.1523L6.89589 15.1055C7.42324 14.5195 7.13027 13.6523 6.26308 13.6523ZM2.72402 9.30469L2.72402 15.668C2.72402 16.1602 3.09902 16.5469 3.59121 16.5469C4.05996 16.5469 4.44667 16.1602 4.44667 15.668L4.44667 9.30469C4.44667 8.8125 4.05996 8.4375 3.59121 8.4375C3.09902 8.4375 2.72402 8.8125 2.72402 9.30469Z" fill="black" fill-opacity="0.85"/>
 </g>
</svg>
