<?xml version="1.0" encoding="UTF-8"?>
<!--Generator: Apple Native CoreSVG 360-->
<!DOCTYPE svg
PUBLIC "-//W3C//DTD SVG 1.1//EN"
       "http://www.w3.org/Graphics/SVG/1.1/DTD/svg11.dtd">
<svg version="1.1" xmlns="http://www.w3.org/2000/svg" xmlns:xlink="http://www.w3.org/1999/xlink" viewBox="0 0 27.771 27.4805">
 <g>
  <rect height="27.4805" opacity="0" width="27.771" x="0" y="0"/>
  <path d="M21.7956 8.21484C23.5417 8.21484 24.948 6.75 24.948 5.05078C24.948 3.28125 23.5417 1.85156 21.7956 1.85156C20.0144 1.85156 18.6081 3.28125 18.6081 5.05078C18.6081 6.79688 20.0144 8.21484 21.7956 8.21484ZM2.90501 24.9844C3.51438 25.6172 4.55735 25.5703 5.30735 24.7969L10.3464 19.5938C10.5105 19.418 10.6277 19.3711 10.8972 19.4766L14.8347 20.9648C17.3542 21.9375 19.7449 21.1055 20.8464 19.0898L23.3777 14.4844C24.362 12.6914 24.0574 10.8398 22.3464 9.92578C20.6941 9.02344 18.9714 9.70312 17.9753 11.543L14.6941 17.5312L11.8933 16.5117C10.5105 16.0078 9.35032 16.1719 8.24876 17.3203L3.01048 22.7344C2.28392 23.4844 2.35423 24.4219 2.90501 24.9844Z" fill="black" fill-opacity="0.85"/>
  <path d="M0.901103 4.79297L6.26829 4.80469C7.0886 4.80469 7.45188 3.97266 6.9011 3.35156L4.20579 0.316406C3.84251-0.105469 3.35032-0.105469 2.97532 0.316406L0.26829 3.35156C-0.270772 3.9375 0.0339152 4.79297 0.901103 4.79297ZM4.44017 7.33594L4.44017 2.78906C4.44017 2.30859 4.05345 1.92188 3.57298 1.92188C3.10423 1.92188 2.72923 2.30859 2.72923 2.78906L2.72923 7.33594C2.72923 7.81641 3.10423 8.20312 3.57298 8.20312C4.05345 8.20312 4.44017 7.81641 4.44017 7.33594ZM9.47923 6.49219L9.47923 11.8594C9.47923 12.6797 10.323 13.0547 10.9324 12.4922L13.9675 9.79688C14.3777 9.42188 14.3894 8.92969 13.9675 8.56641L10.9324 5.85938C10.3464 5.33203 9.47923 5.63672 9.47923 6.49219ZM6.49095 10.0312L11.4949 10.0312C11.987 10.0312 12.3738 9.65625 12.3738 9.16406C12.3738 8.69531 11.987 8.30859 11.4949 8.30859L6.49095 8.30859C5.99876 8.30859 5.61204 8.69531 5.61204 9.16406C5.61204 9.65625 5.99876 10.0312 6.49095 10.0312ZM0.901103 13.5586C0.0339152 13.5586-0.270772 14.4141 0.26829 14.9883L2.97532 18.0352C3.35032 18.457 3.84251 18.4453 4.20579 18.0352L6.9011 14.9883C7.45188 14.3789 7.0886 13.5469 6.26829 13.5469ZM2.72923 11.0156L2.72923 15.5625C2.72923 16.043 3.10423 16.4297 3.57298 16.4297C4.05345 16.4297 4.44017 16.043 4.44017 15.5625L4.44017 11.0156C4.44017 10.5352 4.05345 10.1484 3.57298 10.1484C3.10423 10.1484 2.72923 10.5352 2.72923 11.0156Z" fill="black" fill-opacity="0.85"/>
 </g>
</svg>
