<?xml version="1.0" encoding="UTF-8"?>
<!--Generator: Apple Native CoreSVG 360-->
<!DOCTYPE svg
PUBLIC "-//W3C//DTD SVG 1.1//EN"
       "http://www.w3.org/Graphics/SVG/1.1/DTD/svg11.dtd">
<svg version="1.1" xmlns="http://www.w3.org/2000/svg" xmlns:xlink="http://www.w3.org/1999/xlink" viewBox="0 0 35.579 27.5742">
 <g>
  <rect height="27.5742" opacity="0" width="35.579" x="0" y="0"/>
  <path d="M31.7348 8.88281L34.7583 13.3477C34.8872 13.5234 35.0044 13.6992 35.1098 13.875C35.3559 14.3203 35.2153 14.9648 34.6176 15.2812C34.1489 15.5391 33.5981 15.4688 33.2465 15.0703C32.9301 14.6953 31.3247 12.3984 30.434 11.168C30.3286 11.0039 30.1176 11.0742 30.1176 11.2617C30.1176 12.4922 30.1645 15.0938 30.3637 16.3828C30.5981 17.8477 32.2973 24.9492 32.3911 25.2656C32.602 26.0039 32.145 26.6836 31.395 26.6836C30.8442 26.6836 30.4692 26.3789 30.27 25.6523C29.8715 24.2109 28.6762 19.3008 28.2895 18.1172C28.02 17.2734 27.8208 16.9453 27.352 16.9453C26.8715 16.9453 26.6723 17.2734 26.4145 18.1172C26.0161 19.3008 24.8208 24.2109 24.434 25.6523C24.2231 26.3789 23.8598 26.6836 23.309 26.6836C22.559 26.6836 22.0903 26.0039 22.3129 25.2656C22.395 24.9492 24.0942 17.8477 24.3286 16.3828C24.5278 15.0938 24.5864 12.5039 24.5864 11.2734C24.5864 11.0742 24.3637 11.0156 24.2583 11.168C23.8937 11.6764 23.4094 12.3596 22.943 13.0146C22.865 12.6891 22.6981 12.3795 22.4536 12.1172C22.1071 11.736 21.6353 11.5456 21.166 11.5354L22.9692 8.88281C23.9301 7.46484 25.1254 6.83203 27.352 6.83203C29.5786 6.83203 30.7622 7.46484 31.7348 8.88281ZM29.8833 3.08203C29.8833 4.48828 28.7583 5.60156 27.352 5.60156C25.9458 5.60156 24.8208 4.48828 24.8208 3.08203C24.8208 1.67578 25.9458 0.550781 27.352 0.550781C28.7583 0.550781 29.8833 1.67578 29.8833 3.08203Z" fill="black" fill-opacity="0.85"/>
  <path d="M12.2583 8.88281L14.0612 11.5351C13.5871 11.544 13.1101 11.7345 12.7622 12.1172C12.523 12.3785 12.3575 12.6883 12.2786 13.0145C11.8128 12.3573 11.3298 11.6729 10.9692 11.168C10.852 11.0039 10.6411 11.0742 10.6411 11.2617C10.6411 12.4922 10.6879 15.0938 10.8872 16.3828C11.1333 17.8477 12.8325 24.9492 12.9145 25.2656C13.1254 26.0039 12.6684 26.6836 11.9184 26.6836C11.3676 26.6836 10.9926 26.3789 10.7934 25.6523C10.395 24.2109 9.21138 19.3008 8.81295 18.1172C8.54342 17.2734 8.35592 16.9453 7.87545 16.9453C7.39498 16.9453 7.20748 17.2734 6.93795 18.1172C6.53951 19.3008 5.35592 24.2109 4.95748 25.6523C4.75826 26.3789 4.38326 26.6836 3.83248 26.6836C3.08248 26.6836 2.62545 26.0039 2.83638 25.2656C2.91842 24.9492 4.61763 17.8477 4.85201 16.3828C5.05123 15.0938 5.10982 12.5039 5.10982 11.2734C5.10982 11.0742 4.88717 11.0156 4.7817 11.168C3.90279 12.4102 2.2856 14.6953 1.9692 15.0703C1.62935 15.4688 1.06685 15.5391 0.609822 15.2812C0.00044716 14.9648-0.128459 14.3203 0.117635 13.875C0.211385 13.6992 0.340291 13.5234 0.457478 13.3477L3.49263 8.88281C4.45357 7.46484 5.64888 6.83203 7.87545 6.83203C10.102 6.83203 11.2973 7.46484 12.2583 8.88281ZM10.4067 3.08203C10.4067 4.48828 9.2817 5.60156 7.87545 5.60156C6.4692 5.60156 5.3442 4.48828 5.3442 3.08203C5.3442 1.67578 6.4692 0.550781 7.87545 0.550781C9.2817 0.550781 10.4067 1.67578 10.4067 3.08203Z" fill="black" fill-opacity="0.85"/>
  <path d="M17.6137 13.6992C18.645 13.6992 19.5004 12.8555 19.5004 11.8242C19.5004 10.793 18.645 9.94922 17.6137 9.94922C16.5825 9.94922 15.7387 10.793 15.7387 11.8242C15.7387 12.8555 16.5825 13.6992 17.6137 13.6992ZM15.1176 26.6836C15.5747 26.6836 15.9379 26.4258 16.0903 25.8398C16.3364 24.9609 17.0512 21.9375 17.2856 21.1992C17.4497 20.7188 17.4848 20.6836 17.6137 20.6836C17.7426 20.6836 17.7661 20.7188 17.9301 21.1992C18.1645 21.9375 18.8794 24.9609 19.1372 25.8398C19.2778 26.4258 19.6528 26.6836 20.0981 26.6836C20.7661 26.6836 21.1528 26.0625 20.9887 25.4531C20.9301 25.2539 19.9106 20.9062 19.7465 19.9922C19.6294 19.2656 19.5942 17.8008 19.5942 17.2148C19.5942 16.875 19.7114 16.6523 19.8989 16.418C20.7426 15.3633 21.809 14.1562 21.9379 13.957C22.2192 13.5469 22.1137 13.0664 21.7973 12.7383C21.434 12.3281 20.8247 12.3398 20.5083 12.668L19.2661 13.9922C18.7504 14.543 18.3169 14.8008 17.6137 14.8008C16.9106 14.8008 16.477 14.543 15.9614 13.9922L14.7192 12.668C14.4028 12.3398 13.7817 12.3281 13.4301 12.7383C13.102 13.0664 13.0083 13.5469 13.2778 13.957C13.4067 14.1562 14.4848 15.3633 15.3286 16.418C15.5161 16.6523 15.6215 16.875 15.6215 17.2148C15.6215 17.8008 15.5981 19.2656 15.4809 19.9922C15.3169 20.9062 14.2973 25.2539 14.227 25.4531C14.0747 26.0625 14.4614 26.6836 15.1176 26.6836Z" fill="black" fill-opacity="0.85"/>
 </g>
</svg>
