<?xml version="1.0" encoding="UTF-8"?>
<!--Generator: Apple Native CoreSVG 360-->
<!DOCTYPE svg
PUBLIC "-//W3C//DTD SVG 1.1//EN"
       "http://www.w3.org/Graphics/SVG/1.1/DTD/svg11.dtd">
<svg version="1.1" xmlns="http://www.w3.org/2000/svg" xmlns:xlink="http://www.w3.org/1999/xlink" viewBox="0 0 22.8243 23.8828">
 <g>
  <rect height="23.8828" opacity="0" width="22.8243" x="0" y="0"/>
  <path d="M19.3165 6.41602C21.0743 6.41602 22.4688 4.95117 22.4688 3.25195C22.4688 1.48242 21.0743 0.0527344 19.3165 0.0527344C17.5469 0.0527344 16.129 1.48242 16.129 3.25195C16.129 4.99805 17.5469 6.41602 19.3165 6.41602ZM0.437551 23.1855C1.03521 23.8184 2.07818 23.7715 2.82818 22.998L7.86724 17.7949C8.0313 17.6191 8.16021 17.5723 8.41802 17.6777L12.3555 19.166C14.8868 20.1387 17.2657 19.3066 18.379 17.291L20.9102 12.6855C21.8946 10.8926 21.5782 9.04102 19.8672 8.12695C18.2149 7.22461 16.504 7.9043 15.4961 9.74414L12.2149 15.7324L9.41411 14.7129C8.0313 14.209 6.88286 14.373 5.7813 15.5215L0.54302 20.9355C-0.195261 21.6855-0.124949 22.623 0.437551 23.1855Z" fill="black" fill-opacity="0.85"/>
  <path d="M1.04693 5.5957L7.31646 5.5957C8.31255 5.5957 8.6524 4.59961 8.04302 3.91992L4.9024 0.369141C4.45708-0.123047 3.88286-0.123047 3.46099 0.369141L0.308645 3.91992C-0.335886 4.63477 0.0859889 5.5957 1.04693 5.5957ZM5.18365 10.998L5.18365 3.13477C5.18365 2.57227 4.75005 2.12695 4.19927 2.12695C3.63677 2.12695 3.19146 2.57227 3.19146 3.13477L3.19146 10.998C3.19146 11.5605 3.63677 11.9941 4.19927 11.9941C4.75005 11.9941 5.18365 11.5605 5.18365 10.998Z" fill="black" fill-opacity="0.85"/>
 </g>
</svg>
