<?xml version="1.0" encoding="UTF-8"?>
<!--Generator: Apple Native CoreSVG 360-->
<!DOCTYPE svg
PUBLIC "-//W3C//DTD SVG 1.1//EN"
       "http://www.w3.org/Graphics/SVG/1.1/DTD/svg11.dtd">
<svg version="1.1" xmlns="http://www.w3.org/2000/svg" xmlns:xlink="http://www.w3.org/1999/xlink" viewBox="0 0 23.9414 26.332">
 <g>
  <rect height="26.332" opacity="0" width="23.9414" x="0" y="0"/>
  <path d="M12.5508 15.7969C12.5508 16.3828 13.0195 16.8398 13.5938 16.8398C14.168 16.8398 14.6367 16.3828 14.6367 15.7969L14.6367 11.2852C14.6367 11.0742 14.8008 10.9102 15.0117 10.9102C15.2227 10.9102 15.3984 11.0742 15.3984 11.2852L15.3984 24.9492C15.3984 25.582 15.9023 26.0859 16.5352 26.0859C17.168 26.0859 17.6836 25.582 17.6836 24.9492L17.6836 16.6406C17.6836 16.4297 17.8594 16.2422 18.0703 16.2422C18.2812 16.2422 18.4688 16.4297 18.4688 16.6406L18.4688 24.9492C18.4688 25.582 18.9727 26.0859 19.6055 26.0859C20.25 26.0859 20.7539 25.582 20.7539 24.9492L20.7539 11.2852C20.7539 11.0742 20.918 10.9102 21.1289 10.9102C21.3398 10.9102 21.5156 11.0742 21.5156 11.2852L21.5156 15.7969C21.5156 16.3828 21.9727 16.8398 22.5586 16.8398C23.1328 16.8398 23.5898 16.3828 23.5898 15.7969L23.5898 10.7578C23.5898 8.16797 21.7031 6.45703 18.9258 6.45703L17.2266 6.45703C14.4492 6.45703 12.5508 8.16797 12.5508 10.7578ZM18.0703 5.10938C19.4883 5.10938 20.625 3.97266 20.625 2.55469C20.625 1.13672 19.4883 0 18.0703 0C16.6641 0 15.5156 1.13672 15.5156 2.55469C15.5156 3.97266 16.6641 5.10938 18.0703 5.10938Z" fill="black" fill-opacity="0.85"/>
  <path d="M0 16.8516C0 17.3789 0.421875 17.8008 0.9375 17.8008C1.45312 17.8008 1.875 17.3789 1.875 16.8516L1.875 12.7969C1.875 12.5977 2.01562 12.457 2.21484 12.457C2.40234 12.457 2.55469 12.5977 2.55469 12.7969L2.55469 25.0898C2.55469 25.6641 3.02344 26.1094 3.58594 26.1094C4.16016 26.1094 4.60547 25.6641 4.60547 25.0898L4.60547 17.6016C4.60547 17.4258 4.78125 17.25 4.96875 17.25C5.15625 17.25 5.32031 17.4258 5.32031 17.6016L5.32031 25.0898C5.32031 25.6641 5.77734 26.1094 6.35156 26.1094C6.92578 26.1094 7.38281 25.6641 7.38281 25.0898L7.38281 12.7969C7.38281 12.5977 7.53516 12.457 7.72266 12.457C7.91016 12.457 8.07422 12.5977 8.07422 12.7969L8.07422 16.8516C8.07422 17.3789 8.47266 17.8008 9 17.8008C9.51562 17.8008 9.9375 17.3789 9.9375 16.8516L9.9375 12.3281C9.9375 9.97266 8.22656 8.4375 5.74219 8.4375L4.20703 8.4375C1.71094 8.4375 0 9.97266 0 12.3281ZM4.96875 7.23047C6.24609 7.23047 7.26562 6.21094 7.26562 4.93359C7.26562 3.65625 6.24609 2.63672 4.96875 2.63672C3.69141 2.63672 2.67188 3.65625 2.67188 4.93359C2.67188 6.21094 3.69141 7.23047 4.96875 7.23047Z" fill="black" fill-opacity="0.85"/>
 </g>
</svg>
