<?xml version="1.0" encoding="UTF-8"?>
<!--Generator: Apple Native CoreSVG 360-->
<!DOCTYPE svg
PUBLIC "-//W3C//DTD SVG 1.1//EN"
       "http://www.w3.org/Graphics/SVG/1.1/DTD/svg11.dtd">
<svg version="1.1" xmlns="http://www.w3.org/2000/svg" xmlns:xlink="http://www.w3.org/1999/xlink" viewBox="0 0 37.4761 33.3164">
 <g>
  <rect height="33.3164" opacity="0" width="37.4761" x="0" y="0"/>
  <path d="M6.1287 11.1328C4.37089 11.1328 2.96464 9.66797 2.96464 7.96875C2.96464 6.19922 4.37089 4.76953 6.1287 4.76953C7.89823 4.76953 9.3162 6.19922 9.3162 7.96875C9.3162 9.71484 7.89823 11.1328 6.1287 11.1328ZM25.0076 27.9023C24.3982 28.5352 23.3553 28.4883 22.617 27.7148L17.5662 22.5117C17.4021 22.3359 17.2849 22.2891 17.0271 22.3945L13.0896 23.8828C10.5584 24.8555 8.17948 24.0234 7.0662 22.0078L4.53495 17.4023C3.55057 15.6094 3.86698 13.7578 5.5662 12.8438C7.23026 11.9414 8.9412 12.6211 9.93729 14.4609L13.2303 20.4492L16.0193 19.4297C17.4021 18.9258 18.5623 19.0898 19.6639 20.2383L24.9021 25.6523C25.6287 26.4023 25.5584 27.3398 25.0076 27.9023Z" fill="black" fill-opacity="0.85"/>
  <path d="M24.3514 8.54297L27.5271 12.6094C27.6795 12.7969 27.8904 12.832 28.1014 12.7148C28.8631 12.3164 29.9412 12.0469 30.7967 12.0469C31.6639 12.0469 32.7654 12.3164 33.5037 12.7148C33.7146 12.832 33.949 12.7969 34.0779 12.6094L37.2771 8.54297C37.5818 8.13281 37.5349 7.72266 37.1482 7.41797C35.8474 6.42188 33.3982 5.66016 30.7967 5.66016C28.2303 5.66016 25.7576 6.42188 24.4685 7.41797C24.0818 7.72266 24.0349 8.13281 24.3514 8.54297ZM27.656 14.9883C27.2928 14.5078 27.1404 14.0625 27.1404 13.582C27.1404 12.4805 28.031 12.1992 28.031 11.5547C28.031 10.8984 27.1404 10.6289 27.1404 9.49219C27.1404 9.02344 27.2928 8.57812 27.656 8.10938C28.0662 7.61719 28.8045 8.14453 28.406 8.66016C28.1365 9.02344 28.0662 9.22266 28.0662 9.49219C28.0662 10.2891 28.9568 10.5117 28.9568 11.5547C28.9568 12.5859 28.0662 12.8203 28.0662 13.582C28.0662 13.8867 28.1365 14.0625 28.406 14.4375C28.7928 14.9414 28.0545 15.4805 27.656 14.9883ZM30.4099 14.9883C30.0584 14.5195 29.906 14.0625 29.906 13.582C29.906 12.4805 30.7849 12.1992 30.7849 11.5547C30.7849 10.8984 29.906 10.6289 29.906 9.49219C29.906 9.02344 30.0584 8.57812 30.4099 8.10938C30.8201 7.61719 31.5701 8.14453 31.1717 8.66016C30.9021 9.02344 30.8318 9.22266 30.8318 9.49219C30.8318 10.2891 31.7224 10.5117 31.7224 11.5547C31.7224 12.5859 30.8318 12.8203 30.8318 13.582C30.8318 13.8867 30.9021 14.0625 31.1717 14.4375C31.5584 14.9414 30.8084 15.4805 30.4099 14.9883ZM33.199 14.9883C32.824 14.5195 32.6717 14.0625 32.6717 13.582C32.6717 12.4805 33.5623 12.1992 33.5623 11.5547C33.5623 10.8984 32.6717 10.6289 32.6717 9.49219C32.6717 9.02344 32.824 8.57812 33.199 8.10938C33.5974 7.61719 34.3357 8.14453 33.9373 8.66016C33.6912 9.02344 33.6092 9.22266 33.6092 9.49219C33.6092 10.2891 34.4881 10.5117 34.4881 11.5547C34.4881 12.5859 33.6092 12.8203 33.6092 13.582C33.6092 13.8867 33.6912 14.0625 33.9373 14.4375C34.324 14.9414 33.5974 15.4805 33.199 14.9883ZM21.3748 7.42969C21.3748 7.85156 21.7029 8.16797 22.1131 8.17969C22.5349 8.17969 22.8514 7.85156 22.8514 7.42969L22.8514 2.09766C22.8514 1.67578 22.5349 1.35938 22.1131 1.35938C21.7029 1.35938 21.3748 1.6875 21.3748 2.09766ZM24.492 4.24219C25.242 4.24219 25.5232 3.48047 25.0545 2.97656L22.6521 0.28125C22.324-0.09375 21.8904-0.09375 21.5506 0.28125L19.1951 2.97656C18.7029 3.52734 18.9959 4.24219 19.7342 4.24219ZM19.1834 10.1484C19.5935 10.1484 19.9334 9.83203 19.9334 9.38672C19.9334 8.98828 19.6053 8.64844 19.1834 8.64844L13.8631 8.64844C13.4529 8.64844 13.1131 8.98828 13.1131 9.38672C13.1131 9.83203 13.4529 10.1484 13.8631 10.1484ZM16.0076 7.01953C16.0076 6.28125 15.2342 6 14.7185 6.46875L12.0467 8.87109C11.6834 9.1875 11.6599 9.62109 12.0467 9.94922L14.7185 12.3281C15.2576 12.8203 16.0076 12.5039 16.0076 11.7773Z" fill="black" fill-opacity="0.85"/>
 </g>
</svg>
