<?xml version="1.0" encoding="UTF-8"?>
<!--Generator: Apple Native CoreSVG 360-->
<!DOCTYPE svg
PUBLIC "-//W3C//DTD SVG 1.1//EN"
       "http://www.w3.org/Graphics/SVG/1.1/DTD/svg11.dtd">
<svg version="1.1" xmlns="http://www.w3.org/2000/svg" xmlns:xlink="http://www.w3.org/1999/xlink" viewBox="0 0 29.625 21.5508">
 <g>
  <rect height="21.5508" opacity="0" width="29.625" x="0" y="0"/>
  <path d="M17.3438 5.09766C18.75 5.09766 19.8984 3.94922 19.8984 2.54297C19.8984 1.14844 18.75 0 17.3438 0C15.9375 0 14.7891 1.14844 14.7891 2.54297C14.7891 3.94922 15.9375 5.09766 17.3438 5.09766ZM13.1719 19.5703C12.8789 21.1523 15.2461 21.5273 15.5391 19.9219L16.7461 13.3359C16.8633 12.7266 16.4648 12.0586 15.7617 11.9648L11.8008 11.4023L14.25 8.95312C14.4844 8.70703 14.8359 8.70703 15.0703 8.95312L21.9023 15.7852C22.3594 16.2305 23.1211 16.2773 23.5898 15.7852C24.0469 15.293 24.0586 14.5664 23.5898 14.0977L14.5312 5.03906C13.9805 4.48828 13.2305 4.16016 12.4219 4.16016L7.18359 4.16016C6.86719 4.16016 6.5625 4.28906 6.33984 4.51172L2.75391 8.10938C2.28516 8.57812 2.28516 9.32812 2.75391 9.79688C3.22266 10.2656 3.96094 10.2656 4.42969 9.79688L7.6875 6.55078L9.78516 6.55078C10.0078 6.55078 10.1016 6.75 9.94922 6.90234L6.71484 10.125C5.16797 11.6836 5.98828 14.332 8.46094 14.332L14.1211 14.332ZM6.38672 14.9062L6.07031 18.5273L1.19531 18.5273C0.539062 18.5273 0 19.0664 0 19.7227C0 20.3789 0.539062 20.918 1.19531 20.918L7.18359 20.918C7.78125 20.918 8.26172 20.4609 8.36719 19.8633L9.16406 15.4688L8.46094 15.4688C7.64062 15.4688 6.9375 15.2578 6.38672 14.9062ZM24.2344 20.918L27.8203 20.918C28.6289 20.918 29.2734 20.2617 29.2734 19.4531C29.2734 18.6562 28.6289 18 27.8203 18L24.2344 18C23.4141 18 22.7578 18.6562 22.7578 19.4531C22.7578 20.2617 23.4141 20.918 24.2344 20.918ZM26.6836 18.7383L27.7617 18.7383L27.7617 17.5781C27.7617 16.6055 27.0234 15.8555 26.0625 15.8555L24.832 15.8555C24.5273 15.8555 24.2812 16.1016 24.2812 16.4062C24.2812 16.7109 24.5273 16.9453 24.832 16.9453L26.0625 16.9453C26.4258 16.9453 26.6836 17.2148 26.6836 17.5781Z" fill="black" fill-opacity="0.85"/>
 </g>
</svg>
