<?xml version="1.0" encoding="UTF-8"?>
<!--Generator: Apple Native CoreSVG 360-->
<!DOCTYPE svg
PUBLIC "-//W3C//DTD SVG 1.1//EN"
       "http://www.w3.org/Graphics/SVG/1.1/DTD/svg11.dtd">
<svg version="1.1" xmlns="http://www.w3.org/2000/svg" xmlns:xlink="http://www.w3.org/1999/xlink" viewBox="0 0 23.2383 27.8789">
 <g>
  <rect height="27.8789" opacity="0" width="23.2383" x="0" y="0"/>
  <path d="M11.3438 8.90625C12.7617 8.90625 13.9102 7.75781 13.9102 6.33984C13.9102 4.92188 12.7617 3.78516 11.3438 3.78516C9.92578 3.78516 8.78906 4.92188 8.78906 6.33984C8.78906 7.75781 9.92578 8.90625 11.3438 8.90625ZM21.7031 27.8789C22.3594 27.8789 22.8867 27.3398 22.8867 26.6953L22.8867 20.7539C22.8867 20.332 22.6641 20.0156 22.3594 19.7578L17.7539 15.9609L16.8398 11.0156C16.7578 10.5117 16.8164 10.0195 17.0625 9.52734L20.9414 1.78125C21.2344 1.19531 20.9883 0.480469 20.4023 0.1875C19.8164-0.105469 19.1016 0.128906 18.8086 0.703125L15 8.34375C14.7305 8.88281 14.3438 9.23438 13.7695 9.46875L7.05469 12.2578L4.34766 10.0898C4.14844 9.9375 3.91406 9.87891 3.71484 9.87891L3.71484 6.65625L2.41406 6.65625L2.41406 10.9688C2.41406 11.3672 2.53125 11.707 2.83594 11.9531L6.14062 14.5781C6.55078 14.8945 6.99609 14.8711 7.51172 14.6602L11.1797 13.125C11.6953 12.9023 11.9531 13.1953 12.0117 13.5469L13.8281 23.5664L8.78906 25.582C8.19141 25.8164 7.88672 26.5078 8.12109 27.1289C8.40234 27.8203 9.08203 28.0078 9.66797 27.7734L15.6094 25.4062C16.125 25.1953 16.3945 24.6914 16.3594 24.1523L16.0195 19.5352C15.9844 19.0195 16.5469 18.7266 16.9453 18.9961L20.5195 21.3867L20.5195 26.6953C20.5195 27.3398 21.0352 27.8789 21.7031 27.8789ZM3.07031 0.421875C1.34766 0.421875 0 1.78125 0 3.51562C0 5.08594 1.33594 6.82031 3.07031 7.40625C4.80469 6.82031 6.12891 5.08594 6.12891 3.51562C6.12891 1.78125 4.78125 0.421875 3.07031 0.421875ZM3.07031 1.72266C4.05469 1.72266 4.82812 2.51953 4.82812 3.55078C4.82812 4.55859 4.08984 5.64844 3.07031 6C2.05078 5.64844 1.30078 4.55859 1.30078 3.55078C1.30078 2.51953 2.07422 1.72266 3.07031 1.72266Z" fill="black" fill-opacity="0.85"/>
 </g>
</svg>
