<?xml version="1.0" encoding="UTF-8"?>
<!--Generator: Apple Native CoreSVG 360-->
<!DOCTYPE svg
PUBLIC "-//W3C//DTD SVG 1.1//EN"
       "http://www.w3.org/Graphics/SVG/1.1/DTD/svg11.dtd">
<svg version="1.1" xmlns="http://www.w3.org/2000/svg" xmlns:xlink="http://www.w3.org/1999/xlink" viewBox="0 0 29.579 26.4727">
 <g>
  <rect height="26.4727" opacity="0" width="29.579" x="0" y="0"/>
  <path d="M7.87545 5.05078C9.2817 5.05078 10.4067 3.9375 10.4067 2.53125C10.4067 1.125 9.2817 0 7.87545 0C6.4692 0 5.3442 1.125 5.3442 2.53125C5.3442 3.9375 6.4692 5.05078 7.87545 5.05078ZM7.87545 16.3945C8.35592 16.3945 8.54342 16.7227 8.81295 17.5664C9.21138 18.75 10.395 23.6602 10.7934 25.1016C10.9926 25.8281 11.3676 26.1328 11.9184 26.1328C12.6684 26.1328 13.1254 25.4531 12.9145 24.7148C12.8325 24.3984 11.1333 17.2969 10.8872 15.832C10.6879 14.543 10.6411 11.9414 10.6411 10.7109C10.6411 10.5234 10.852 10.4531 10.9692 10.6172C11.8481 11.8477 13.4536 14.1445 13.77 14.5195C14.1215 14.918 14.684 14.9883 15.1411 14.7305C15.7387 14.4141 15.8794 13.7695 15.6333 13.3242C15.5395 13.1484 15.4106 12.9727 15.2934 12.7969L12.2583 8.33203C11.2973 6.91406 10.102 6.28125 7.87545 6.28125C5.64888 6.28125 4.45357 6.91406 3.49263 8.33203L0.457478 12.7969C0.340291 12.9727 0.211385 13.1484 0.117635 13.3242C-0.128459 13.7695 0.00044716 14.4141 0.609822 14.7305C1.06685 14.9883 1.62935 14.918 1.9692 14.5195C2.2856 14.1445 3.90279 11.8594 4.7817 10.6172C4.88717 10.4648 5.10982 10.5234 5.10982 10.7227C5.10982 11.9531 5.05123 14.543 4.85201 15.832C4.61763 17.2969 2.91842 24.3984 2.83638 24.7148C2.62545 25.4531 3.08248 26.1328 3.83248 26.1328C4.38326 26.1328 4.75826 25.8281 4.95748 25.1016C5.35592 23.6602 6.53951 18.75 6.93795 17.5664C7.20748 16.7227 7.39498 16.3945 7.87545 16.3945ZM21.352 5.05078C22.7583 5.05078 23.8833 3.9375 23.8833 2.53125C23.8833 1.125 22.7583 0 21.352 0C19.9458 0 18.8208 1.125 18.8208 2.53125C18.8208 3.9375 19.9458 5.05078 21.352 5.05078ZM21.352 16.3945C21.8208 16.3945 22.02 16.7227 22.2895 17.5664C22.6762 18.75 23.8715 23.6602 24.27 25.1016C24.4692 25.8281 24.8442 26.1328 25.395 26.1328C26.145 26.1328 26.602 25.4531 26.3911 24.7148C26.2973 24.3984 24.5981 17.2969 24.3637 15.832C24.1645 14.543 24.1059 11.9414 24.1059 10.7109C24.1059 10.5234 24.3286 10.4531 24.434 10.6172C25.3247 11.8477 26.9301 14.1445 27.2465 14.5195C27.5981 14.918 28.1489 14.9883 28.6176 14.7305C29.2153 14.4141 29.3559 13.7695 29.0981 13.3242C29.0044 13.1484 28.8872 12.9727 28.7583 12.7969L25.7348 8.33203C24.7622 6.91406 23.5786 6.28125 21.352 6.28125C19.1254 6.28125 17.9301 6.91406 16.9692 8.33203L13.934 12.7969C13.8051 12.9727 13.6879 13.1484 13.5942 13.3242C13.3481 13.7695 13.477 14.4141 14.0747 14.7305C14.5434 14.9883 15.0942 14.918 15.4458 14.5195C15.7622 14.1445 17.3676 11.8594 18.2583 10.6172C18.3637 10.4648 18.5864 10.5234 18.5864 10.7227C18.5864 11.9531 18.5278 14.543 18.3286 15.832C18.0942 17.2969 16.395 24.3984 16.3129 24.7148C16.0903 25.4531 16.559 26.1328 17.309 26.1328C17.8598 26.1328 18.2231 25.8281 18.4223 25.1016C18.8208 23.6602 20.0161 18.75 20.4028 17.5664C20.6723 16.7227 20.8715 16.3945 21.352 16.3945Z" fill="black" fill-opacity="0.85"/>
 </g>
</svg>
