<?xml version="1.0" encoding="UTF-8"?>
<!--Generator: Apple Native CoreSVG 360-->
<!DOCTYPE svg
PUBLIC "-//W3C//DTD SVG 1.1//EN"
       "http://www.w3.org/Graphics/SVG/1.1/DTD/svg11.dtd">
<svg version="1.1" xmlns="http://www.w3.org/2000/svg" xmlns:xlink="http://www.w3.org/1999/xlink" viewBox="0 0 33.8789 25.8633">
 <g>
  <rect height="25.8633" opacity="0" width="33.8789" x="0" y="0"/>
  <path d="M10.1719 5.12109C11.5898 5.12109 12.7266 3.98438 12.7266 2.57812C12.7266 1.16016 11.5898 0.0234375 10.1719 0.0234375C8.75391 0.0234375 7.61719 1.16016 7.61719 2.57812C7.61719 3.98438 8.75391 5.12109 10.1719 5.12109ZM23.3438 5.12109C24.75 5.12109 25.8867 3.98438 25.8867 2.57812C25.8867 1.16016 24.75 0.0234375 23.3438 0.0234375C21.9258 0.0234375 20.7891 1.16016 20.7891 2.57812C20.7891 3.98438 21.9258 5.12109 23.3438 5.12109ZM10.1602 16.125C10.6641 16.125 10.875 16.4297 11.1328 17.2969C11.4961 18.457 12.7383 23.3789 13.0898 24.832C13.2656 25.5586 13.6523 25.8633 14.2031 25.8633C14.9531 25.8633 15.3984 25.1836 15.1992 24.4453C15.1289 24.1289 13.4062 17.0273 13.1836 15.5625C12.9609 14.0625 12.9375 10.793 12.9492 9.85547C12.9727 9.04688 13.3359 8.66016 14.0508 8.54297C14.7305 8.42578 15.8086 8.36719 16.7695 8.37891C17.7656 8.37891 18.7969 8.42578 19.4883 8.54297C20.2031 8.66016 20.5664 9.04688 20.5781 9.85547C20.6016 10.793 20.5664 14.0625 20.3203 15.5625C20.0859 17.0273 18.3867 24.1289 18.293 24.4453C18.0938 25.1836 18.5625 25.8633 19.3008 25.8633C19.8516 25.8633 20.2266 25.5586 20.4258 24.832C20.8125 23.3906 22.0195 18.4805 22.3945 17.2969C22.6758 16.4531 22.8633 16.125 23.3438 16.125C23.8359 16.125 24.0586 16.4297 24.3164 17.2969C24.668 18.457 25.9219 23.3789 26.2734 24.832C26.4492 25.5586 26.8477 25.8633 27.3867 25.8633C28.1367 25.8633 28.582 25.1836 28.3828 24.4453C28.3008 24.1289 26.5898 17.0273 26.3555 15.5625C26.1328 14.0625 26.1328 10.793 26.1445 9.78516C26.1445 9.08203 26.4492 8.63672 27.0352 8.50781C27.5859 8.37891 32.0625 7.89844 32.6836 7.69922C33.1758 7.54688 33.5273 7.13672 33.5273 6.59766C33.5273 5.91797 33 5.50781 32.5312 5.50781C32.332 5.50781 32.1445 5.55469 31.9219 5.60156C30.1055 5.92969 26.1562 6.24609 23.3438 6.35156C20.9531 6.42188 18.4102 6.48047 16.8164 6.48047C15.1992 6.48047 12.5977 6.42188 10.1602 6.35156C7.38281 6.26953 3.39844 5.95312 1.57031 5.60156C1.38281 5.55469 1.17188 5.50781 0.996094 5.50781C0.480469 5.50781 0 5.91797 0 6.59766C0 7.13672 0.328125 7.59375 0.832031 7.69922C1.47656 7.83984 5.92969 8.40234 6.48047 8.50781C7.04297 8.61328 7.38281 9.08203 7.40625 9.78516C7.41797 10.793 7.38281 14.0625 7.13672 15.5625C6.90234 17.0273 5.20312 24.1289 5.12109 24.4453C4.91016 25.1836 5.37891 25.8633 6.11719 25.8633C6.66797 25.8633 7.05469 25.5586 7.25391 24.832C7.64062 23.3906 8.83594 18.4805 9.22266 17.2969C9.50391 16.4531 9.67969 16.125 10.1602 16.125Z" fill="black" fill-opacity="0.85"/>
 </g>
</svg>
