<?xml version="1.0" encoding="UTF-8"?>
<!--Generator: Apple Native CoreSVG 360-->
<!DOCTYPE svg
PUBLIC "-//W3C//DTD SVG 1.1//EN"
       "http://www.w3.org/Graphics/SVG/1.1/DTD/svg11.dtd">
<svg version="1.1" xmlns="http://www.w3.org/2000/svg" xmlns:xlink="http://www.w3.org/1999/xlink" viewBox="0 0 27.3398 35.0014">
 <g>
  <rect height="35.0014" opacity="0" width="27.3398" x="0" y="0"/>
  <path d="M21.5859 11.9753C23.332 11.9753 24.7383 10.5105 24.7383 8.81125C24.7383 7.04172 23.332 5.61203 21.5859 5.61203C19.8047 5.61203 18.3984 7.04172 18.3984 8.81125C18.3984 10.5573 19.8047 11.9753 21.5859 11.9753ZM2.69531 28.7448C3.30469 29.3777 4.34766 29.3308 5.09766 28.5573L10.1367 23.3542C10.3008 23.1784 10.418 23.1316 10.6875 23.237L14.625 24.7253C17.1445 25.698 19.5352 24.8659 20.6367 22.8503L23.168 18.2448C24.1523 16.4519 23.8477 14.6003 22.1367 13.6863C20.4844 12.7839 18.7617 13.4636 17.7656 15.3034L14.4844 21.2917L11.6836 20.2722C10.3008 19.7683 9.14062 19.9323 8.03906 21.0808L2.80078 26.4948C2.07422 27.2448 2.14453 28.1823 2.69531 28.7448Z" fill="black" fill-opacity="0.85"/>
  <path d="M11.9883 1.04172L11.9883 7.29953C11.9883 8.26047 12.9492 8.68235 13.6641 8.03781L17.2148 4.89719C17.707 4.47531 17.707 3.88938 17.2148 3.44406L13.6641 0.303439C12.9844-0.305936 11.9883 0.0339077 11.9883 1.04172ZM13.5703 5.16672C14.1211 5.16672 14.5664 4.70969 14.5664 4.15891C14.5664 3.60813 14.1211 3.16281 13.5703 3.16281L11.168 3.16281C9.50391 3.16281 8.35547 3.72531 7.33594 5.08469L4.19531 9.23313C3.5625 10.0769 3.07031 10.2878 1.78125 10.2878L0.996094 10.2878C0.445312 10.2878 0 10.7448 0 11.2956C0 11.8464 0.445312 12.2917 0.996094 12.2917L1.78125 12.2917C3.57422 12.2917 4.74609 11.7995 5.76562 10.4636L8.94141 6.31516C9.64453 5.38938 10.0664 5.16672 11.168 5.16672Z" fill="black" fill-opacity="0.85"/>
 </g>
</svg>
