<?xml version="1.0" encoding="UTF-8"?>
<!--Generator: Apple Native CoreSVG 360-->
<!DOCTYPE svg
PUBLIC "-//W3C//DTD SVG 1.1//EN"
       "http://www.w3.org/Graphics/SVG/1.1/DTD/svg11.dtd">
<svg version="1.1" xmlns="http://www.w3.org/2000/svg" xmlns:xlink="http://www.w3.org/1999/xlink" viewBox="0 0 33.2369 23.6133">
 <g>
  <rect height="23.6133" opacity="0" width="33.2369" x="0" y="0"/>
  <path d="M17.3216 5.96484L17.3216 8.54297C17.3216 9.24609 17.8372 9.76172 18.5403 9.76172L20.4505 9.76172C21.1653 9.76172 21.6926 9.24609 21.6926 8.54297L21.6926 5.96484C21.6926 5.26172 21.1653 4.73438 20.4505 4.73438L18.5403 4.73438C17.8372 4.73438 17.3216 5.26172 17.3216 5.96484ZM22.9114 5.96484L22.9114 8.54297C22.9114 9.24609 23.427 9.76172 24.1419 9.76172L26.0637 9.76172C26.7786 9.76172 27.2942 9.24609 27.2942 8.54297L27.2942 5.96484C27.2942 5.26172 26.7786 4.73438 26.0637 4.73438L24.1419 4.73438C23.427 4.73438 22.9114 5.26172 22.9114 5.96484ZM28.513 5.96484L28.513 8.54297C28.513 9.24609 29.0286 9.76172 29.7434 9.76172L31.6653 9.76172C32.3684 9.76172 32.8841 9.24609 32.8841 8.54297L32.8841 5.96484C32.8841 5.26172 32.3684 4.73438 31.6653 4.73438L29.7434 4.73438C29.0286 4.73438 28.513 5.26172 28.513 5.96484ZM17.3216 12.668L17.3216 15.2461C17.3216 15.9492 17.8372 16.4531 18.5403 16.4531L20.4505 16.4531C21.1653 16.4531 21.6926 15.9492 21.6926 15.2461L21.6926 12.668C21.6926 11.9648 21.1653 11.4492 20.4505 11.4492L18.5403 11.4492C17.8372 11.4492 17.3216 11.9648 17.3216 12.668ZM22.9114 12.668L22.9114 15.2461C22.9114 15.9492 23.427 16.4531 24.1419 16.4531L26.0637 16.4531C26.7786 16.4531 27.2942 15.9492 27.2942 15.2461L27.2942 12.668C27.2942 11.9648 26.7786 11.4492 26.0637 11.4492L24.1419 11.4492C23.427 11.4492 22.9114 11.9648 22.9114 12.668ZM28.513 12.668L28.513 15.2461C28.513 15.9492 29.0286 16.4531 29.7434 16.4531L31.6653 16.4531C32.3684 16.4531 32.8841 15.9492 32.8841 15.2461L32.8841 12.668C32.8841 11.9648 32.3684 11.4492 31.6653 11.4492L29.7434 11.4492C29.0286 11.4492 28.513 11.9648 28.513 12.668ZM17.3216 19.3711L17.3216 21.9375C17.3216 22.6523 17.8372 23.168 18.5403 23.168L20.4505 23.168C21.1653 23.168 21.6926 22.6523 21.6926 21.9375L21.6926 19.3711C21.6926 18.668 21.1653 18.1523 20.4505 18.1523L18.5403 18.1523C17.8372 18.1523 17.3216 18.668 17.3216 19.3711ZM22.9114 19.3711L22.9114 21.9375C22.9114 22.6523 23.427 23.168 24.1419 23.168L26.0637 23.168C26.7786 23.168 27.2942 22.6523 27.2942 21.9375L27.2942 19.3711C27.2942 18.668 26.7786 18.1523 26.0637 18.1523L24.1419 18.1523C23.427 18.1523 22.9114 18.668 22.9114 19.3711ZM28.513 19.3711L28.513 21.9375C28.513 22.6523 29.0286 23.168 29.7434 23.168L31.6653 23.168C32.3684 23.168 32.8841 22.6523 32.8841 21.9375L32.8841 19.3711C32.8841 18.668 32.3684 18.1523 31.6653 18.1523L29.7434 18.1523C29.0286 18.1523 28.513 18.668 28.513 19.3711ZM19.513 8.44922C18.8567 8.44922 18.2942 7.89844 18.2942 7.23047C18.2942 6.58594 18.8567 6.03516 19.513 6.03516C20.1692 6.03516 20.72 6.58594 20.72 7.23047C20.72 7.89844 20.1692 8.44922 19.513 8.44922ZM25.1145 8.44922C24.4466 8.44922 23.8841 7.91016 23.8841 7.23047C23.8841 6.58594 24.4466 6.03516 25.1145 6.03516C25.7591 6.03516 26.3098 6.58594 26.3098 7.23047C26.3098 7.91016 25.7591 8.44922 25.1145 8.44922ZM30.7044 8.44922C30.0481 8.44922 29.4856 7.91016 29.4856 7.23047C29.4856 6.58594 30.0481 6.03516 30.7044 6.03516C31.3489 6.03516 31.9114 6.58594 31.9114 7.23047C31.9114 7.91016 31.3489 8.44922 30.7044 8.44922ZM19.513 15.1523C18.8567 15.1523 18.2942 14.6133 18.2942 13.9336C18.2942 13.2891 18.8567 12.75 19.513 12.75C20.1692 12.75 20.72 13.2891 20.72 13.9336C20.72 14.6133 20.1692 15.1523 19.513 15.1523ZM25.1145 15.1523C24.4466 15.1523 23.8841 14.6133 23.8841 13.9336C23.8841 13.2891 24.4466 12.75 25.1145 12.75C25.7591 12.75 26.3098 13.2891 26.3098 13.9336C26.3098 14.6133 25.7591 15.1523 25.1145 15.1523ZM30.7044 15.1523C30.0481 15.1523 29.4856 14.6133 29.4856 13.9336C29.4856 13.2891 30.0481 12.75 30.7044 12.75C31.3489 12.75 31.9114 13.2891 31.9114 13.9336C31.9114 14.6133 31.3489 15.1523 30.7044 15.1523ZM19.513 21.8672C18.8567 21.8672 18.2942 21.3164 18.2942 20.6484C18.2942 19.9922 18.8567 19.4531 19.513 19.4531C20.1692 19.4531 20.72 19.9922 20.72 20.6484C20.72 21.3164 20.1692 21.8672 19.513 21.8672ZM25.1145 21.8672C24.4466 21.8672 23.8841 21.3164 23.8841 20.6484C23.8841 19.9922 24.4466 19.4531 25.1145 19.4531C25.7591 19.4531 26.3098 19.9922 26.3098 20.6484C26.3098 21.3164 25.7591 21.8672 25.1145 21.8672ZM30.7044 21.8672C30.0481 21.8672 29.4856 21.3164 29.4856 20.6484C29.4856 19.9922 30.0481 19.4531 30.7044 19.4531C31.3489 19.4531 31.9114 19.9922 31.9114 20.6484C31.9114 21.3164 31.3489 21.8672 30.7044 21.8672ZM22.7942 3.24609L27.4231 3.24609C27.7747 3.24609 27.845 2.87109 27.5755 2.68359L25.4661 1.25391C25.2317 1.10156 24.9856 1.10156 24.7512 1.25391L22.6419 2.68359C22.3723 2.87109 22.4426 3.24609 22.7942 3.24609Z" fill="black" fill-opacity="0.85"/>
  <path d="M6.79811 5.22656C8.23952 5.22656 9.37624 4.01953 9.37624 2.625C9.37624 1.18359 8.23952 0 6.79811 0C5.34499 0 4.19655 1.18359 4.19655 2.625C4.19655 4.04297 5.34499 5.22656 6.79811 5.22656ZM1.80593 14.918L9.23561 6.66797C8.52077 6.38672 7.70046 6.26953 6.79811 6.26953C3.44655 6.26953 1.46608 7.88672 1.46608 10.5938C1.46608 11.25 1.48952 12.1172 1.58327 13.0078ZM11.7903 14.918L12.0012 13.0078C12.095 12.1172 12.1301 11.25 12.1301 10.5938C12.1301 9.25781 11.6614 8.17969 10.7473 7.45312L4.8528 14.0156C5.50905 13.9102 6.15358 13.8633 6.79811 13.8633C8.45046 13.8633 10.1145 14.0859 11.7903 14.918ZM3.93874 23.5547C4.61843 23.4609 5.07546 22.9688 4.98171 22.1133L4.51296 17.7891L9.07155 17.7891L8.61452 22.1133C8.53249 22.9688 8.9778 23.4609 9.65749 23.5547C10.3723 23.625 10.9114 23.1797 11.0051 22.3594L11.6145 16.6523C10.0911 15.7734 8.40358 15.4336 6.79811 15.4336C5.19264 15.4336 3.49343 15.7734 2.00514 16.6523L2.59108 22.3594C2.68483 23.1797 3.21218 23.625 3.93874 23.5547ZM10.7473 7.44141L12.9739 4.96875C13.3606 4.53516 13.3255 4.05469 12.9505 3.75C12.5989 3.43359 12.1301 3.42188 11.7317 3.87891L9.23561 6.66797C9.79811 6.87891 10.302 7.14844 10.7473 7.44141ZM0.36452 15.7852C-0.0573552 16.0898-0.0807927 16.582 0.130145 16.8984C0.329364 17.2383 0.751239 17.4023 1.20827 17.1328C1.4778 16.957 1.72389 16.8047 2.00514 16.6523L1.80593 14.918C1.27858 15.1523 0.798114 15.4219 0.36452 15.7852ZM13.2317 15.7852C12.7864 15.4219 12.3176 15.1523 11.7903 14.918L11.6028 16.6523C11.8606 16.8047 12.1184 16.957 12.388 17.1328C12.845 17.4023 13.2434 17.25 13.4544 16.9219C13.6653 16.5938 13.6653 16.1016 13.2317 15.7852Z" fill="black" fill-opacity="0.85"/>
 </g>
</svg>
