<?xml version="1.0" encoding="UTF-8"?>
<!--Generator: Apple Native CoreSVG 360-->
<!DOCTYPE svg
PUBLIC "-//W3C//DTD SVG 1.1//EN"
       "http://www.w3.org/Graphics/SVG/1.1/DTD/svg11.dtd">
<svg version="1.1" xmlns="http://www.w3.org/2000/svg" xmlns:xlink="http://www.w3.org/1999/xlink" viewBox="0 0 19.8406 28.8633">
 <g>
  <rect height="28.8633" opacity="0" width="19.8406" x="0" y="0"/>
  <path d="M9.73864 6.36328C11.5082 6.36328 12.9027 4.91016 12.9027 3.19922C12.9027 1.44141 11.5082 0 9.73864 0C7.96911 0 6.57458 1.44141 6.57458 3.19922C6.57458 4.94531 7.96911 6.36328 9.73864 6.36328ZM3.63317 18.2227L12.7269 8.14453C11.8363 7.81641 10.8519 7.66406 9.73864 7.66406C5.6488 7.66406 3.22301 9.64453 3.22301 12.9492C3.22301 13.7344 3.26989 14.8008 3.37536 15.9023ZM15.8558 18.2344L16.1019 15.9023C16.2191 14.8008 16.266 13.7344 16.266 12.9492C16.266 11.3203 15.6918 9.99609 14.5668 9.09375L7.37145 17.1328C8.15661 16.9922 8.95348 16.957 9.73864 16.957C11.766 16.957 13.7933 17.2148 15.8558 18.2344ZM6.23473 28.7812C7.07848 28.6641 7.62926 28.0664 7.5238 27.0234L6.94958 21.7383L12.5394 21.7383L11.9652 27.0234C11.8597 28.0664 12.4105 28.6641 13.2425 28.7812C14.1097 28.875 14.7777 28.3359 14.8832 27.3164L15.6097 20.3438C13.7582 19.2773 11.7074 18.8672 9.73864 18.8672C7.78161 18.8672 5.73083 19.2773 3.87926 20.3438L4.60583 27.3164C4.7113 28.3359 5.37926 28.875 6.23473 28.7812ZM14.5668 9.08203L17.2855 6.07031C17.7543 5.53125 17.7191 4.95703 17.2621 4.57031C16.8402 4.19531 16.2894 4.19531 15.7855 4.74609L12.7269 8.14453C13.4066 8.39062 14.016 8.73047 14.5668 9.08203ZM0.269889 21.9844C0.691764 22.418 1.26598 22.4062 1.75817 21.9023C2.41442 21.2812 3.07067 20.7539 3.87926 20.3438L3.63317 18.2227C2.42614 18.7852 1.37145 19.5938 0.375358 20.5312C-0.0933919 20.9766-0.116829 21.5625 0.269889 21.9844ZM19.2191 21.9844C19.6058 21.5742 19.5824 20.9883 19.1254 20.543C18.1175 19.5938 17.0629 18.7969 15.8558 18.2344L15.6097 20.3438C16.4183 20.7539 17.0746 21.2812 17.7308 21.9023C18.223 22.4062 18.7972 22.418 19.2191 21.9844Z" fill="black" fill-opacity="0.85"/>
 </g>
</svg>
