<?xml version="1.0" encoding="UTF-8"?>
<!--Generator: Apple Native CoreSVG 360-->
<!DOCTYPE svg
PUBLIC "-//W3C//DTD SVG 1.1//EN"
       "http://www.w3.org/Graphics/SVG/1.1/DTD/svg11.dtd">
<svg version="1.1" xmlns="http://www.w3.org/2000/svg" xmlns:xlink="http://www.w3.org/1999/xlink" viewBox="0 0 35.8451 23.6133">
 <g>
  <rect height="23.6133" opacity="0" width="35.8451" x="0" y="0"/>
  <path d="M20.5827 7.5L20.5827 10.3359C20.5827 11.1562 21.1921 11.7656 22.0124 11.7656L24.2507 11.7656C25.071 11.7656 25.6804 11.1562 25.6804 10.3359L25.6804 7.5C25.6804 6.67969 25.071 6.07031 24.2507 6.07031L22.0124 6.07031C21.1921 6.07031 20.5827 6.67969 20.5827 7.5ZM27.1218 7.5L27.1218 10.3359C27.1218 11.1562 27.7194 11.7656 28.5515 11.7656L30.7898 11.7656C31.6101 11.7656 32.2077 11.1562 32.2077 10.3359L32.2077 7.5C32.2077 6.67969 31.6101 6.07031 30.7898 6.07031L28.5515 6.07031C27.7194 6.07031 27.1218 6.67969 27.1218 7.5ZM17.3249 15.832L17.3249 18.6797C17.3249 19.5 17.9343 20.1094 18.7429 20.1094L20.9929 20.1094C21.8015 20.1094 22.4108 19.5 22.4108 18.6797L22.4108 15.832C22.4108 15.0117 21.8015 14.4141 20.9929 14.4141L18.7429 14.4141C17.9343 14.4141 17.3249 15.0117 17.3249 15.832ZM23.864 15.832L23.864 18.6797C23.864 19.5 24.4733 20.1094 25.2937 20.1094L27.5319 20.1094C28.3405 20.1094 28.9382 19.5 28.9382 18.6797L28.9382 15.832C28.9382 15.0117 28.3405 14.4141 27.5319 14.4141L25.2937 14.4141C24.4733 14.4141 23.864 15.0117 23.864 15.832ZM30.3913 15.832L30.3913 18.6797C30.3913 19.5 31.0007 20.1094 31.821 20.1094L34.0593 20.1094C34.8796 20.1094 35.489 19.5 35.489 18.6797L35.489 15.832C35.489 15.0117 34.8796 14.4141 34.0593 14.4141L31.821 14.4141C31.0007 14.4141 30.3913 15.0117 30.3913 15.832ZM23.1491 10.1367C22.4694 10.1367 21.9069 9.58594 21.9069 8.90625C21.9069 8.25 22.4694 7.71094 23.1491 7.71094C23.7937 7.71094 24.3444 8.25 24.3444 8.90625C24.3444 9.58594 23.7937 10.1367 23.1491 10.1367ZM29.6765 10.1367C29.0085 10.1367 28.446 9.58594 28.446 8.90625C28.446 8.25 29.0085 7.71094 29.6765 7.71094C30.321 7.71094 30.8952 8.25 30.8952 8.90625C30.8952 9.58594 30.321 10.1367 29.6765 10.1367ZM19.8796 18.4805C19.2116 18.4805 18.6491 17.9297 18.6491 17.25C18.6491 16.5938 19.2116 16.043 19.8796 16.043C20.5358 16.043 21.0866 16.5938 21.0866 17.25C21.0866 17.9297 20.5358 18.4805 19.8796 18.4805ZM26.4069 18.4805C25.739 18.4805 25.1765 17.9297 25.1765 17.25C25.1765 16.5938 25.739 16.043 26.4069 16.043C27.0632 16.043 27.6257 16.5938 27.6257 17.25C27.6257 17.9297 27.0632 18.4805 26.4069 18.4805ZM32.946 18.4805C32.278 18.4805 31.7038 17.9297 31.7038 17.25C31.7038 16.5938 32.278 16.043 32.946 16.043C33.5905 16.043 34.153 16.5938 34.153 17.25C34.153 17.9297 33.5905 18.4805 32.946 18.4805ZM24.1101 4.33594L28.739 4.33594C29.0905 4.33594 29.1608 3.96094 28.8913 3.77344L26.7937 2.34375C26.5476 2.19141 26.3015 2.19141 26.0671 2.34375L23.9694 3.77344C23.6999 3.96094 23.7585 4.33594 24.1101 4.33594Z" fill="black" fill-opacity="0.85"/>
  <path d="M6.81319 5.22656C8.23116 5.22656 9.39131 4.01953 9.39131 2.625C9.39131 1.18359 8.23116 0 6.81319 0C5.34835 0 4.21163 1.18359 4.21163 2.625C4.21163 4.04297 5.34835 5.22656 6.81319 5.22656ZM1.80928 14.918L9.25069 6.66797C8.51241 6.38672 7.71553 6.26953 6.81319 6.26953C3.44991 6.26953 1.46944 7.88672 1.46944 10.5938C1.46944 11.25 1.49288 12.1172 1.59835 13.0078ZM11.7937 14.918L12.0046 13.0078C12.1101 12.1172 12.1452 11.25 12.1452 10.5938C12.1452 9.25781 11.6648 8.17969 10.7624 7.45312L4.85616 14.0156C5.51241 13.9102 6.15694 13.8633 6.81319 13.8633C8.45381 13.8633 10.1062 14.0859 11.7937 14.918ZM3.93038 23.5547C4.62178 23.4609 5.09053 22.9688 4.98506 22.1133L4.51631 17.7891L9.07491 17.7891L8.61788 22.1133C8.53585 22.9688 8.98116 23.4609 9.66085 23.5547C10.364 23.625 10.903 23.1797 10.9968 22.3594L11.6062 16.6523C10.0827 15.7734 8.41866 15.4336 6.81319 15.4336C5.18428 15.4336 3.5085 15.7734 2.0085 16.6523L2.60616 22.3594C2.68819 23.1797 3.22725 23.625 3.93038 23.5547ZM10.7624 7.44141L12.9773 4.96875C13.3523 4.53516 13.3288 4.05469 12.9538 3.75C12.6023 3.43359 12.1452 3.42188 11.7351 3.87891L9.25069 6.66797C9.78975 6.87891 10.3054 7.14844 10.7624 7.44141ZM0.367877 15.7852C-0.0657166 16.0898-0.0774353 16.582 0.133502 16.8984C0.332721 17.2383 0.754596 17.4023 1.21163 17.1328C1.48116 16.957 1.72725 16.8047 2.0085 16.6523L1.80928 14.918C1.28194 15.1523 0.81319 15.4219 0.367877 15.7852ZM13.2468 15.7852C12.7898 15.4219 12.321 15.1523 11.7937 14.918L11.5944 16.6523C11.8757 16.8047 12.1218 16.957 12.3913 17.1328C12.8366 17.4023 13.2585 17.25 13.4577 16.9219C13.6687 16.5938 13.6687 16.1016 13.2468 15.7852Z" fill="black" fill-opacity="0.85"/>
 </g>
</svg>
