<?xml version="1.0" encoding="UTF-8"?>
<!--Generator: Apple Native CoreSVG 360-->
<!DOCTYPE svg
PUBLIC "-//W3C//DTD SVG 1.1//EN"
       "http://www.w3.org/Graphics/SVG/1.1/DTD/svg11.dtd">
<svg version="1.1" xmlns="http://www.w3.org/2000/svg" xmlns:xlink="http://www.w3.org/1999/xlink" viewBox="0 0 37.4761 23.7773">
 <g>
  <rect height="23.7773" opacity="0" width="37.4761" x="0" y="0"/>
  <path d="M6.1287 6.36328C4.37089 6.36328 2.96464 4.89844 2.96464 3.19922C2.96464 1.42969 4.37089 0 6.1287 0C7.89823 0 9.3162 1.42969 9.3162 3.19922C9.3162 4.94531 7.89823 6.36328 6.1287 6.36328ZM25.0076 23.1328C24.3982 23.7656 23.3553 23.7188 22.617 22.9453L17.5662 17.7422C17.4021 17.5664 17.2849 17.5195 17.0271 17.625L13.0896 19.1133C10.5584 20.0859 8.17948 19.2539 7.0662 17.2383L4.53495 12.6328C3.55057 10.8398 3.86698 8.98828 5.5662 8.07422C7.23026 7.17188 8.9412 7.85156 9.93729 9.69141L13.2303 15.6797L16.0193 14.6602C17.4021 14.1562 18.5623 14.3203 19.6639 15.4688L24.9021 20.8828C25.6287 21.6328 25.5584 22.5703 25.0076 23.1328Z" fill="black" fill-opacity="0.85"/>
  <path d="M24.3514 3.77344L27.5271 7.83984C27.6795 8.02734 27.8904 8.0625 28.1014 7.94531C28.8631 7.54688 29.9412 7.27734 30.7967 7.27734C31.6639 7.27734 32.7654 7.54688 33.5037 7.94531C33.7146 8.0625 33.949 8.02734 34.0779 7.83984L37.2771 3.77344C37.5818 3.36328 37.5349 2.95312 37.1482 2.64844C35.8474 1.65234 33.3982 0.890625 30.7967 0.890625C28.2303 0.890625 25.7576 1.65234 24.4685 2.64844C24.0818 2.95312 24.0349 3.36328 24.3514 3.77344ZM27.656 10.2188C27.2928 9.73828 27.1404 9.29297 27.1404 8.8125C27.1404 7.71094 28.031 7.42969 28.031 6.78516C28.031 6.12891 27.1404 5.85938 27.1404 4.72266C27.1404 4.25391 27.2928 3.80859 27.656 3.33984C28.0662 2.84766 28.8045 3.375 28.406 3.89062C28.1365 4.25391 28.0662 4.45312 28.0662 4.72266C28.0662 5.51953 28.9568 5.74219 28.9568 6.78516C28.9568 7.81641 28.0662 8.05078 28.0662 8.8125C28.0662 9.11719 28.1365 9.29297 28.406 9.66797C28.7928 10.1719 28.0545 10.7109 27.656 10.2188ZM30.4099 10.2188C30.0584 9.75 29.906 9.29297 29.906 8.8125C29.906 7.71094 30.7849 7.42969 30.7849 6.78516C30.7849 6.12891 29.906 5.85938 29.906 4.72266C29.906 4.25391 30.0584 3.80859 30.4099 3.33984C30.8201 2.84766 31.5701 3.375 31.1717 3.89062C30.9021 4.25391 30.8318 4.45312 30.8318 4.72266C30.8318 5.51953 31.7224 5.74219 31.7224 6.78516C31.7224 7.81641 30.8318 8.05078 30.8318 8.8125C30.8318 9.11719 30.9021 9.29297 31.1717 9.66797C31.5584 10.1719 30.8084 10.7109 30.4099 10.2188ZM33.199 10.2188C32.824 9.75 32.6717 9.29297 32.6717 8.8125C32.6717 7.71094 33.5623 7.42969 33.5623 6.78516C33.5623 6.12891 32.6717 5.85938 32.6717 4.72266C32.6717 4.25391 32.824 3.80859 33.199 3.33984C33.5974 2.84766 34.3357 3.375 33.9373 3.89062C33.6912 4.25391 33.6092 4.45312 33.6092 4.72266C33.6092 5.51953 34.4881 5.74219 34.4881 6.78516C34.4881 7.81641 33.6092 8.05078 33.6092 8.8125C33.6092 9.11719 33.6912 9.29297 33.9373 9.66797C34.324 10.1719 33.5974 10.7109 33.199 10.2188ZM19.1834 5.37891C19.5935 5.37891 19.9334 5.0625 19.9334 4.61719C19.9334 4.21875 19.6053 3.87891 19.1834 3.87891L13.8631 3.87891C13.4529 3.87891 13.1131 4.21875 13.1131 4.61719C13.1131 5.0625 13.4529 5.37891 13.8631 5.37891ZM16.0076 2.25C16.0076 1.51172 15.2342 1.23047 14.7185 1.69922L12.0467 4.10156C11.6834 4.41797 11.6599 4.85156 12.0467 5.17969L14.7185 7.55859C15.2576 8.05078 16.0076 7.73438 16.0076 7.00781ZM22.8631 6.59766C22.8631 6.16406 22.5467 5.83594 22.1248 5.83594C21.7264 5.84766 21.3748 6.17578 21.3748 6.59766L21.3748 11.9648C21.3748 12.3867 21.7264 12.7031 22.1248 12.7266C22.5467 12.7266 22.8631 12.3984 22.8631 11.9648ZM19.7342 9.77344C19.0076 9.77344 18.7264 10.4883 19.1951 11.0273L21.5623 13.7461C21.8904 14.1211 22.3123 14.0859 22.6404 13.7344L25.0662 11.0508C25.5349 10.5352 25.2654 9.77344 24.492 9.77344Z" fill="black" fill-opacity="0.85"/>
 </g>
</svg>
