<?xml version="1.0" encoding="UTF-8"?>
<!--Generator: Apple Native CoreSVG 360-->
<!DOCTYPE svg
PUBLIC "-//W3C//DTD SVG 1.1//EN"
       "http://www.w3.org/Graphics/SVG/1.1/DTD/svg11.dtd">
<svg version="1.1" xmlns="http://www.w3.org/2000/svg" xmlns:xlink="http://www.w3.org/1999/xlink" viewBox="0 0 28.6251 23.7773">
 <g>
  <rect height="23.7773" opacity="0" width="28.6251" x="0" y="0"/>
  <path d="M6.06255 6.36328C4.30473 6.36328 2.89848 4.89844 2.89848 3.19922C2.89848 1.42969 4.30473 0 6.06255 0C7.83208 0 9.25005 1.42969 9.25005 3.19922C9.25005 4.94531 7.83208 6.36328 6.06255 6.36328ZM24.9415 23.1328C24.3321 23.7656 23.2891 23.7188 22.5508 22.9453L17.5 17.7422C17.336 17.5664 17.2188 17.5195 16.961 17.625L13.0235 19.1133C10.4922 20.0859 8.11333 19.2539 7.00005 17.2383L4.4688 12.6328C3.48442 10.8398 3.80083 8.98828 5.50005 8.07422C7.16411 7.17188 8.87505 7.85156 9.87114 9.69141L13.1641 15.6797L15.9532 14.6602C17.336 14.1562 18.4961 14.3203 19.5977 15.4688L24.836 20.8828C25.5625 21.6328 25.4922 22.5703 24.9415 23.1328Z" fill="black" fill-opacity="0.85"/>
  <path d="M12.9297 3.78516L16.7383 8.63672C16.9024 8.84766 17.1719 8.89453 17.4297 8.75391C18.3204 8.27344 19.6211 7.94531 20.6524 7.94531C21.6836 7.94531 22.9844 8.27344 23.875 8.75391C24.1329 8.89453 24.4024 8.84766 24.5665 8.63672L28.375 3.78516C28.7618 3.29297 28.6915 2.78906 28.2227 2.42578C26.6758 1.24219 23.7461 0.328125 20.6524 0.328125C17.5586 0.328125 14.629 1.24219 13.0821 2.42578C12.6133 2.78906 12.543 3.29297 12.9297 3.78516ZM16.8907 11.4609C16.4571 10.8984 16.2696 10.3711 16.2696 9.79688C16.2696 8.47266 17.336 8.14453 17.336 7.35938C17.336 6.57422 16.2696 6.25781 16.2696 4.91016C16.2696 4.34766 16.4454 3.83203 16.8907 3.25781C17.3711 2.66016 18.25 3.29297 17.7813 3.91406C17.4649 4.34766 17.3829 4.59375 17.3829 4.91016C17.3829 5.85938 18.4375 6.11719 18.4375 7.35938C18.4375 8.61328 17.3829 8.85938 17.3829 9.79688C17.3829 10.1367 17.4649 10.3711 17.7813 10.8047C18.2383 11.4141 17.3711 12.0469 16.8907 11.4609ZM20.1954 11.4609C19.75 10.8984 19.5625 10.3711 19.5625 9.79688C19.5625 8.47266 20.6407 8.14453 20.6407 7.35938C20.6407 6.57422 19.5625 6.25781 19.5625 4.91016C19.5625 4.34766 19.75 3.83203 20.1954 3.25781C20.6758 2.66016 21.5547 3.29297 21.086 3.91406C20.7579 4.34766 20.6758 4.59375 20.6758 4.91016C20.6758 5.85938 21.7422 6.11719 21.7422 7.35938C21.7422 8.61328 20.6758 8.85938 20.6758 9.79688C20.6758 10.1367 20.7579 10.3711 21.0743 10.8047C21.543 11.4141 20.6641 12.0469 20.1954 11.4609ZM23.5 11.4609C23.0665 10.8984 22.879 10.3711 22.879 9.79688C22.879 8.47266 23.9571 8.14453 23.9571 7.35938C23.9571 6.57422 22.879 6.25781 22.879 4.91016C22.879 4.34766 23.0665 3.83203 23.5 3.25781C23.9805 2.66016 24.8594 3.29297 24.3907 3.91406C24.0743 4.34766 23.9922 4.59375 23.9922 4.91016C23.9922 5.85938 25.0586 6.11719 25.0586 7.35938C25.0586 8.61328 23.9922 8.85938 23.9922 9.79688C23.9922 10.1367 24.0743 10.3711 24.3907 10.8047C24.8477 11.4141 23.9805 12.0469 23.5 11.4609Z" fill="black" fill-opacity="0.85"/>
 </g>
</svg>
