<?xml version="1.0" encoding="UTF-8"?>
<!--Generator: Apple Native CoreSVG 360-->
<!DOCTYPE svg
PUBLIC "-//W3C//DTD SVG 1.1//EN"
       "http://www.w3.org/Graphics/SVG/1.1/DTD/svg11.dtd">
<svg version="1.1" xmlns="http://www.w3.org/2000/svg" xmlns:xlink="http://www.w3.org/1999/xlink" viewBox="0 0 27.6266 23.6133">
 <g>
  <rect height="23.6133" opacity="0" width="27.6266" x="0" y="0"/>
  <path d="M17.3055 5.96484L17.3055 8.54297C17.3055 9.24609 17.8328 9.76172 18.536 9.76172L20.4461 9.76172C21.161 9.76172 21.6883 9.24609 21.6883 8.54297L21.6883 5.96484C21.6883 5.26172 21.161 4.73438 20.4461 4.73438L18.536 4.73438C17.8328 4.73438 17.3055 5.26172 17.3055 5.96484ZM22.9071 5.96484L22.9071 8.54297C22.9071 9.24609 23.4227 9.76172 24.1375 9.76172L26.0477 9.76172C26.7743 9.76172 27.2782 9.24609 27.2782 8.54297L27.2782 5.96484C27.2782 5.26172 26.7743 4.73438 26.0477 4.73438L24.1375 4.73438C23.4227 4.73438 22.9071 5.26172 22.9071 5.96484ZM17.3055 12.6797L17.3055 15.2578C17.3055 15.9609 17.8328 16.4648 18.5477 16.4648L20.4578 16.4648C21.1844 16.4648 21.6883 15.9609 21.6883 15.2578L21.6883 12.6797C21.6883 11.9766 21.1844 11.4492 20.4578 11.4492L18.5477 11.4492C17.8328 11.4492 17.3055 11.9766 17.3055 12.6797ZM22.9071 12.6797L22.9071 15.2578C22.9071 15.9609 23.4227 16.4648 24.1375 16.4648L26.0477 16.4648C26.7625 16.4648 27.2664 15.9609 27.2664 15.2578L27.2664 12.6797C27.2664 11.9766 26.7625 11.4492 26.0477 11.4492L24.1375 11.4492C23.4227 11.4492 22.9071 11.9766 22.9071 12.6797ZM17.3055 19.3711L17.3055 21.9492C17.3055 22.6523 17.8328 23.168 18.536 23.168L20.4461 23.168C21.161 23.168 21.6883 22.6523 21.6883 21.9492L21.6883 19.3711C21.6883 18.668 21.161 18.1523 20.4461 18.1523L18.536 18.1523C17.8328 18.1523 17.3055 18.668 17.3055 19.3711ZM22.9071 19.3711L22.9071 21.9492C22.9071 22.6523 23.4227 23.168 24.1375 23.168L26.0477 23.168C26.7743 23.168 27.2782 22.6523 27.2782 21.9492L27.2782 19.3711C27.2782 18.668 26.7743 18.1523 26.0477 18.1523L24.1375 18.1523C23.4227 18.1523 22.9071 18.668 22.9071 19.3711ZM19.5086 8.44922C18.8407 8.44922 18.2899 7.89844 18.2899 7.23047C18.2899 6.58594 18.8407 6.03516 19.5086 6.03516C20.1532 6.03516 20.7157 6.58594 20.7157 7.23047C20.7157 7.89844 20.1532 8.44922 19.5086 8.44922ZM25.0985 8.44922C24.4422 8.44922 23.8797 7.91016 23.8797 7.23047C23.8797 6.58594 24.4422 6.03516 25.0985 6.03516C25.743 6.03516 26.3055 6.58594 26.3055 7.23047C26.3055 7.91016 25.743 8.44922 25.0985 8.44922ZM19.5086 15.1523C18.8524 15.1523 18.2899 14.6133 18.2899 13.9336C18.2899 13.2891 18.8524 12.75 19.5086 12.75C20.1532 12.75 20.7157 13.2891 20.7157 13.9336C20.7157 14.6133 20.1532 15.1523 19.5086 15.1523ZM25.0985 15.1523C24.4422 15.1523 23.8797 14.6133 23.8797 13.9336C23.8797 13.2891 24.4422 12.75 25.0985 12.75C25.743 12.75 26.3055 13.2891 26.3055 13.9336C26.3055 14.6133 25.743 15.1523 25.0985 15.1523ZM19.5086 21.8672C18.8524 21.8672 18.2899 21.3164 18.2899 20.6484C18.2899 19.9922 18.8524 19.4531 19.5086 19.4531C20.1532 19.4531 20.7157 19.9922 20.7157 20.6484C20.7157 21.3164 20.1532 21.8672 19.5086 21.8672ZM25.0985 21.8672C24.4422 21.8672 23.8797 21.3164 23.8797 20.6484C23.8797 19.9922 24.4422 19.4531 25.0985 19.4531C25.743 19.4531 26.3055 19.9922 26.3055 20.6484C26.3055 21.3164 25.743 21.8672 25.0985 21.8672ZM19.8602 3.24609L24.5008 3.24609C24.8524 3.24609 24.911 2.87109 24.6414 2.68359L22.5438 1.25391C22.3094 1.10156 22.0633 1.10156 21.8172 1.25391L19.7196 2.68359C19.45 2.87109 19.5203 3.24609 19.8602 3.24609Z" fill="black" fill-opacity="0.85"/>
  <path d="M6.79378 5.22656C8.23519 5.22656 9.37191 4.01953 9.37191 2.625C9.37191 1.18359 8.23519 0 6.79378 0C5.34066 0 4.20394 1.18359 4.20394 2.625C4.20394 4.04297 5.34066 5.22656 6.79378 5.22656ZM1.80159 14.918L9.23128 6.66797C8.50472 6.38672 7.69613 6.26953 6.79378 6.26953C3.4305 6.26953 1.46175 7.88672 1.46175 10.5938C1.46175 11.25 1.47347 12.1172 1.57894 13.0078ZM11.7743 14.918L11.9969 13.0078C12.0907 12.1172 12.1258 11.25 12.1258 10.5938C12.1258 9.25781 11.6571 8.17969 10.743 7.45312L4.83675 14.0156C5.50472 13.9102 6.13753 13.8633 6.79378 13.8633C8.44613 13.8633 10.0985 14.0859 11.7743 14.918ZM3.92269 23.5547C4.61409 23.4609 5.05941 22.9688 4.97738 22.1133L4.50863 17.7891L9.06722 17.7891L8.61019 22.1133C8.51644 22.9688 8.96175 23.4609 9.65316 23.5547C10.368 23.625 10.9071 23.1797 10.9891 22.3594L11.5985 16.6523C10.0868 15.7734 8.39925 15.4336 6.79378 15.4336C5.17659 15.4336 3.48909 15.7734 1.98909 16.6523L2.58675 22.3594C2.66878 23.1797 3.20784 23.625 3.92269 23.5547ZM10.743 7.44141L12.9578 4.96875C13.3563 4.53516 13.3211 4.05469 12.9344 3.75C12.5828 3.43359 12.1258 3.42188 11.7274 3.87891L9.23128 6.66797C9.78206 6.87891 10.2977 7.14844 10.743 7.44141ZM0.348469 15.7852C-0.0616869 16.0898-0.0734057 16.582 0.125813 16.8984C0.325032 17.2383 0.735188 17.4023 1.20394 17.1328C1.47347 16.957 1.70784 16.8047 1.98909 16.6523L1.80159 14.918C1.27425 15.1523 0.793782 15.4219 0.348469 15.7852ZM13.2274 15.7852C12.7821 15.4219 12.3133 15.1523 11.7743 14.918L11.5868 16.6523C11.868 16.8047 12.1024 16.957 12.3836 17.1328C12.8289 17.4023 13.2391 17.25 13.45 16.9219C13.661 16.5938 13.661 16.1016 13.2274 15.7852Z" fill="black" fill-opacity="0.85"/>
 </g>
</svg>
