<?xml version="1.0" encoding="UTF-8"?>
<!--Generator: Apple Native CoreSVG 360-->
<!DOCTYPE svg
PUBLIC "-//W3C//DTD SVG 1.1//EN"
       "http://www.w3.org/Graphics/SVG/1.1/DTD/svg11.dtd">
<svg version="1.1" xmlns="http://www.w3.org/2000/svg" xmlns:xlink="http://www.w3.org/1999/xlink" viewBox="0 0 28.5879 27.9663">
 <g>
  <rect height="27.9663" opacity="0" width="28.5879" x="0" y="0"/>
  <path d="M3.05566 1.64917L4.97754 1.64917C4.89551 1.21557 4.94238 0.75854 5.10645 0.348384L3.05566 0.348384C2.69238 0.348384 2.39941 0.641353 2.39941 1.00463C2.39941 1.36792 2.69238 1.64917 3.05566 1.64917ZM10.3799 1.64917L21.1846 1.64917L21.9229 0.559322C21.9697 0.500728 22.0166 0.418697 22.0635 0.348384L9.5127 0.348384C9.55957 0.418697 9.60645 0.500728 9.65332 0.57104ZM26.5986 1.64917L27.5947 1.64917C27.958 1.64917 28.2393 1.36792 28.2393 1.00463C28.2393 0.641353 27.958 0.348384 27.5947 0.348384L26.4697 0.348384C26.6338 0.75854 26.6807 1.20385 26.5986 1.64917ZM15.8643 7.96557C17.2822 7.96557 18.4307 6.82885 18.4307 5.41088C18.4307 3.99292 17.2822 2.84448 15.8643 2.84448C14.4463 2.84448 13.3096 3.99292 13.3096 5.41088C13.3096 6.82885 14.4463 7.96557 15.8643 7.96557ZM9.65332 18.3601C11.0713 20.0593 13.3564 19.8249 14.5049 18.1023L25.3096 1.93042C25.6846 1.3562 25.5322 0.606197 24.9697 0.231197C24.4189-0.143803 23.6572-0.00317832 23.2705 0.57104L18.3838 7.9187C17.833 8.76245 16.8721 9.20776 15.8643 9.20776C14.7979 9.20776 13.708 8.70385 13.0166 7.6726L8.30566 0.57104C7.93066-0.00317832 7.18066-0.143803 6.60645 0.231197C6.04395 0.606197 5.8916 1.3562 6.2666 1.93042L12.0439 10.5906C12.3135 10.989 12.3252 11.5281 12.0439 11.9382L10.4385 14.364L6.92285 11.3171C6.43066 10.8718 5.66895 10.8484 5.12988 11.3874L0.360352 16.1804C-0.120117 16.6726-0.120117 17.4109 0.360352 17.8914C0.887695 18.3953 1.61426 18.3367 2.05957 17.8914L5.99707 13.9773ZM12.5361 27.4187C12.9111 26.8562 12.7705 26.1414 12.1963 25.7546L7.90723 22.8835L10.2744 20.2703C9.73535 20.0124 9.24316 19.614 8.78613 19.0867L7.94238 18.1023L5.05957 22.4382C4.68457 22.989 4.8252 23.7507 5.3877 24.1374L10.8721 27.7585C11.4346 28.1453 12.1846 27.9695 12.5361 27.4187Z" fill="black" fill-opacity="0.85"/>
 </g>
</svg>
