<?xml version="1.0" encoding="UTF-8"?>
<!--Generator: Apple Native CoreSVG 360-->
<!DOCTYPE svg
PUBLIC "-//W3C//DTD SVG 1.1//EN"
       "http://www.w3.org/Graphics/SVG/1.1/DTD/svg11.dtd">
<svg version="1.1" xmlns="http://www.w3.org/2000/svg" xmlns:xlink="http://www.w3.org/1999/xlink" viewBox="0 0 22.8195 23.7773">
 <g>
  <rect height="23.7773" opacity="0" width="22.8195" x="0" y="0"/>
  <path d="M19.3141 6.36328C21.0719 6.36328 22.4664 4.89844 22.4664 3.19922C22.4664 1.42969 21.0719 0 19.3141 0C17.5445 0 16.1266 1.42969 16.1266 3.19922C16.1266 4.94531 17.5445 6.36328 19.3141 6.36328ZM0.435148 23.1328C1.0328 23.7656 2.07577 23.7188 2.82577 22.9453L7.86484 17.7422C8.0289 17.5664 8.1578 17.5195 8.41562 17.625L12.3531 19.1133C14.8844 20.0859 17.2633 19.2539 18.3766 17.2383L20.9078 12.6328C21.8922 10.8398 21.5758 8.98828 19.8648 8.07422C18.2125 7.17188 16.5016 7.85156 15.4937 9.69141L12.2125 15.6797L9.41171 14.6602C8.0289 14.1562 6.88046 14.3203 5.7789 15.4688L0.540617 20.8828C-0.197665 21.6328-0.127352 22.5703 0.435148 23.1328Z" fill="black" fill-opacity="0.85"/>
  <path d="M2.09921 11.3203C2.52109 11.3203 2.81405 11.1094 3.00155 10.5703L3.85702 8.07422L8.04062 8.07422L8.9078 10.5703C9.08359 11.1094 9.37655 11.3203 9.81015 11.3203C10.3258 11.3203 10.6656 10.9805 10.6656 10.5117C10.6656 10.3242 10.6305 10.1602 10.5484 9.90234L7.25546 1.05469C7.0328 0.445312 6.57577 0.128906 5.94296 0.128906C5.31015 0.128906 4.86484 0.445312 4.64218 1.05469L1.36093 9.90234C1.26718 10.1602 1.23202 10.3242 1.23202 10.5C1.23202 10.9922 1.57187 11.3203 2.09921 11.3203ZM4.32577 6.66797L5.88437 2.13281L6.01327 2.13281L7.57187 6.66797Z" fill="black" fill-opacity="0.85"/>
 </g>
</svg>
