<?xml version="1.0" encoding="UTF-8"?>
<!--Generator: Apple Native CoreSVG 360-->
<!DOCTYPE svg
PUBLIC "-//W3C//DTD SVG 1.1//EN"
       "http://www.w3.org/Graphics/SVG/1.1/DTD/svg11.dtd">
<svg version="1.1" xmlns="http://www.w3.org/2000/svg" xmlns:xlink="http://www.w3.org/1999/xlink" viewBox="0 0 16.1025 26.4727">
 <g>
  <rect height="26.4727" opacity="0" width="16.1025" x="0" y="0"/>
  <path d="M7.87545 5.05078C9.2817 5.05078 10.4067 3.9375 10.4067 2.53125C10.4067 1.125 9.2817 0 7.87545 0C6.4692 0 5.3442 1.125 5.3442 2.53125C5.3442 3.9375 6.4692 5.05078 7.87545 5.05078ZM7.87545 16.3945C8.35592 16.3945 8.54342 16.7227 8.81295 17.5664C9.21138 18.75 10.395 23.6602 10.7934 25.1016C10.9926 25.8281 11.3676 26.1328 11.9184 26.1328C12.6684 26.1328 13.1254 25.4531 12.9145 24.7148C12.8325 24.3984 11.1333 17.2969 10.8872 15.832C10.6879 14.543 10.6411 11.9414 10.6411 10.7109C10.6411 10.5234 10.852 10.4531 10.9692 10.6172C11.8481 11.8477 13.4536 14.1445 13.77 14.5195C14.1215 14.918 14.684 14.9883 15.1411 14.7305C15.7387 14.4141 15.8794 13.7695 15.6333 13.3242C15.5395 13.1484 15.4106 12.9727 15.2934 12.7969L12.2583 8.33203C11.2973 6.91406 10.102 6.28125 7.87545 6.28125C5.64888 6.28125 4.45357 6.91406 3.49263 8.33203L0.457478 12.7969C0.340291 12.9727 0.211385 13.1484 0.117635 13.3242C-0.128459 13.7695 0.00044716 14.4141 0.609822 14.7305C1.06685 14.9883 1.62935 14.918 1.9692 14.5195C2.2856 14.1445 3.90279 11.8594 4.7817 10.6172C4.88717 10.4648 5.10982 10.5234 5.10982 10.7227C5.10982 11.9531 5.05123 14.543 4.85201 15.832C4.61763 17.2969 2.91842 24.3984 2.83638 24.7148C2.62545 25.4531 3.08248 26.1328 3.83248 26.1328C4.38326 26.1328 4.75826 25.8281 4.95748 25.1016C5.35592 23.6602 6.53951 18.75 6.93795 17.5664C7.20748 16.7227 7.39498 16.3945 7.87545 16.3945Z" fill="black" fill-opacity="0.85"/>
 </g>
</svg>
