<?xml version="1.0" encoding="UTF-8"?>
<!--Generator: Apple Native CoreSVG 360-->
<!DOCTYPE svg
PUBLIC "-//W3C//DTD SVG 1.1//EN"
       "http://www.w3.org/Graphics/SVG/1.1/DTD/svg11.dtd">
<svg version="1.1" xmlns="http://www.w3.org/2000/svg" xmlns:xlink="http://www.w3.org/1999/xlink" viewBox="0 0 28.6437 27.2449">
 <g>
  <rect height="27.2449" opacity="0" width="28.6437" x="0" y="0"/>
  <path d="M20.0992 8.36659L20.0992 11.2088C21.4426 11.4061 22.15 12.3263 22.15 13.9447L22.15 22.0189C22.15 23.8705 21.2359 24.808 19.5132 24.808L12.7057 24.808C12.7127 24.5525 12.6822 24.2781 12.6109 23.9877L12.3794 23.0385L19.4546 23.0385C19.9585 23.0385 20.2515 22.7221 20.2515 22.1478L20.2515 13.8158C20.2515 13.2416 19.9585 12.9369 19.4546 12.9369L12.6899 12.9369L10.7593 12.14C10.9076 11.8356 11.0144 11.5103 11.0679 11.1674L18.2476 11.1674L18.2476 8.1205C18.2476 5.15565 16.3375 3.59706 14.146 3.59706C11.9546 3.59706 10.0679 5.15565 10.0679 8.1205L10.0679 8.12489C9.5916 7.64911 8.97853 7.30995 8.2887 7.17146C8.75552 3.57197 11.3693 1.82753 14.146 1.82753C17.2164 1.82753 20.0992 3.96034 20.0992 8.36659Z" fill="black" fill-opacity="0.85"/>
  <path d="M7.58355 12.5619C8.67339 12.5619 9.51714 11.7064 9.51714 10.64C9.51714 9.57362 8.67339 8.70643 7.58355 8.70643C6.52886 8.70643 5.64995 9.57362 5.64995 10.64C5.64995 11.7064 6.52886 12.5619 7.58355 12.5619ZM7.58355 19.4525C7.82964 19.4525 8.04058 19.6049 8.12261 19.8978L9.43511 24.9721C9.72808 26.0971 11.275 25.6986 11.1226 24.6322C11.0406 24.2103 9.91558 19.9213 9.75151 18.9603C9.63433 18.2572 9.69292 16.4642 9.69292 15.6557C9.69292 15.433 9.89214 15.2807 10.1265 15.3861L12.3648 16.2885C12.9742 16.5346 13.396 16.2416 13.5132 15.8432C13.6421 15.4447 13.4664 14.976 12.9039 14.7533L10.5015 13.7572C9.9273 13.5228 9.43511 13.4057 8.87261 13.3236C8.47417 13.5111 8.0523 13.6283 7.58355 13.6283C7.10308 13.6283 6.6812 13.5111 6.28276 13.3236C5.72026 13.4057 5.21636 13.5228 4.65386 13.7572L2.25151 14.7533C1.68901 14.976 1.51323 15.4447 1.64214 15.8432C1.75933 16.2416 2.1812 16.5346 2.79058 16.2885L5.02886 15.3861C5.26323 15.2807 5.46245 15.433 5.46245 15.6557C5.46245 16.4642 5.52105 18.2572 5.40386 18.9603C5.2398 19.9213 4.1148 24.2103 4.03276 24.6322C3.88042 25.6986 5.4273 26.0971 5.72026 24.9721L7.03276 19.8978C7.1148 19.6049 7.32573 19.4525 7.58355 19.4525Z" fill="black" fill-opacity="0.85"/>
 </g>
</svg>
