<?xml version="1.0" encoding="UTF-8"?>
<!--Generator: Apple Native CoreSVG 360-->
<!DOCTYPE svg
PUBLIC "-//W3C//DTD SVG 1.1//EN"
       "http://www.w3.org/Graphics/SVG/1.1/DTD/svg11.dtd">
<svg version="1.1" xmlns="http://www.w3.org/2000/svg" xmlns:xlink="http://www.w3.org/1999/xlink" viewBox="0 0 29.3203 26.0764">
 <g>
  <rect height="26.0764" opacity="0" width="29.3203" x="0" y="0"/>
  <path d="M6.31055 7.51282C4.55273 7.51282 3.14648 6.04798 3.14648 4.34876C3.14648 2.57923 4.55273 1.14954 6.31055 1.14954C8.08008 1.14954 9.49805 2.57923 9.49805 4.34876C9.49805 6.09485 8.08008 7.51282 6.31055 7.51282ZM25.1895 24.2824C24.5801 24.9152 23.5371 24.8683 22.7988 24.0949L17.748 18.8917C17.584 18.7159 17.4668 18.6691 17.209 18.7745L13.2715 20.2628C10.7402 21.2355 8.36133 20.4034 7.24805 18.3878L4.7168 13.7824C3.73242 11.9894 4.04883 10.1378 5.74805 9.22376C7.41211 8.32142 9.12305 9.0011 10.1191 10.8409L13.4121 16.8292L16.2012 15.8097C17.584 15.3058 18.7441 15.4699 19.8457 16.6183L25.084 22.0324C25.8105 22.7824 25.7402 23.7199 25.1895 24.2824Z" fill="black" fill-opacity="0.85"/>
  <path d="M19.3066 4.46595C20.0098 4.46595 20.584 3.89173 20.584 3.20032C20.584 2.4972 20.0098 1.92298 19.3066 1.92298C18.6152 1.92298 18.041 2.4972 18.041 3.20032C18.041 3.89173 18.6152 4.46595 19.3066 4.46595ZM16.3418 7.1261C17.0449 7.1261 17.6191 6.55189 17.6191 5.84876C17.6191 5.14564 17.0449 4.57142 16.3418 4.57142C15.6387 4.57142 15.0645 5.14564 15.0645 5.84876C15.0645 6.55189 15.6387 7.1261 16.3418 7.1261ZM16.3418 11.0284C17.0449 11.0284 17.6191 10.4542 17.6191 9.7511C17.6191 9.0597 17.0449 8.48548 16.3418 8.48548C15.6387 8.48548 15.0645 9.0597 15.0645 9.7511C15.0645 10.4542 15.6387 11.0284 16.3418 11.0284ZM19.3066 13.63C20.0098 13.63 20.584 13.0558 20.584 12.3527C20.584 11.6495 20.0098 11.0753 19.3066 11.0753C18.6152 11.0753 18.041 11.6495 18.041 12.3527C18.041 13.0558 18.6152 13.63 19.3066 13.63ZM27.7676 1.71204C28.377 1.10267 27.9902 0.282354 27.2051 0.247198L23.1387 0.00110406C22.5762-0.0223334 22.2363 0.329229 22.2598 0.88001L22.5176 4.9347C22.5527 5.76673 23.4082 6.09485 23.9824 5.52064ZM27.8613 6.79798C28.2012 7.14954 28.7402 7.14954 29.0801 6.79798C29.3965 6.48157 29.4082 5.93079 29.0684 5.59095L25.1895 1.70032C24.8496 1.36048 24.2988 1.36048 23.959 1.70032C23.6426 2.01673 23.6309 2.57923 23.9707 2.91907ZM27.7676 15.2355L23.9824 11.4386C23.4082 10.8527 22.5527 11.1925 22.5176 12.0245L22.2598 16.0792C22.2363 16.63 22.5762 16.9816 23.1387 16.9464L27.2051 16.712C27.9902 16.6652 28.377 15.8566 27.7676 15.2355ZM29.0684 11.3683C29.4082 11.0284 29.3965 10.4777 29.0801 10.1495C28.7402 9.8097 28.2012 9.8097 27.8613 10.1495L24.0059 14.005C23.666 14.3449 23.6777 14.8956 23.9941 15.2238C24.334 15.5636 24.873 15.5636 25.2246 15.2238Z" fill="black" fill-opacity="0.85"/>
 </g>
</svg>
