<?xml version="1.0" encoding="UTF-8"?>
<!--Generator: Apple Native CoreSVG 360-->
<!DOCTYPE svg
PUBLIC "-//W3C//DTD SVG 1.1//EN"
       "http://www.w3.org/Graphics/SVG/1.1/DTD/svg11.dtd">
<svg version="1.1" xmlns="http://www.w3.org/2000/svg" xmlns:xlink="http://www.w3.org/1999/xlink" viewBox="0 0 30.0703 23.0977">
 <g>
  <rect height="23.0977" opacity="0" width="30.0703" x="0" y="0"/>
  <path d="M19.7812 5.12109C21.1992 5.12109 22.3477 3.97266 22.3477 2.55469C22.3477 1.13672 21.1992 0 19.7812 0C18.3633 0 17.2266 1.13672 17.2266 2.55469C17.2266 3.97266 18.3633 5.12109 19.7812 5.12109ZM11.5547 22.957C12.082 23.1445 12.7383 23.0156 13.0781 22.3242L16.0781 16.3242C16.3125 15.8672 16.2539 15.3281 15.8555 14.9414L12.2344 11.3086L16.8164 9.02344C17.0273 8.90625 17.2734 8.96484 17.4375 9.12891L20.168 11.8359C20.3789 12.0469 20.6836 12.1875 21 12.1875L26.4141 12.1875C27.0703 12.1875 27.6094 11.6602 27.6094 10.9805C27.6094 10.3242 27.0703 9.78516 26.4141 9.78516L21.4922 9.78516L16.4414 4.72266C15.8438 4.125 15.0234 3.78516 14.168 3.78516L4.19531 3.78516C3.53906 3.78516 3 4.32422 3 4.98047C3 5.64844 3.53906 6.1875 4.19531 6.1875L11.7188 6.1875C11.8477 6.1875 11.8945 6.38672 11.7773 6.44531L9.53906 7.55859C8.35547 8.14453 7.75781 9.25781 7.75781 10.3828C7.75781 11.3555 8.19141 12.3164 9.08203 12.9609L13.4766 16.1602L10.9336 21.2578C10.5352 22.0664 10.957 22.7227 11.5547 22.957ZM1.19531 18.1875L7.19531 18.1875C7.66406 18.1875 8.07422 17.918 8.28516 17.5312L9.64453 14.7773L8.42578 13.875C7.99219 13.5586 7.61719 13.1719 7.33594 12.7734L6.35156 15.7852L1.19531 15.7852C0.539062 15.7852 0 16.3242 0 16.9805C0 17.6367 0.539062 18.1875 1.19531 18.1875ZM26.9766 0.597656C25.3828 0.597656 24.2344 1.73438 24.2344 3.32812C24.2344 5.61328 26.2852 8.22656 26.4961 8.44922L27.4453 8.44922C27.668 8.22656 29.7188 5.61328 29.7188 3.32812C29.7188 1.73438 28.5703 0.597656 26.9766 0.597656ZM26.9766 1.89844C27.8203 1.89844 28.418 2.50781 28.418 3.32812C28.418 4.46484 27.5508 5.98828 26.9766 6.91406C26.4023 5.98828 25.5352 4.46484 25.5352 3.32812C25.5352 2.50781 26.1328 1.89844 26.9766 1.89844ZM26.3203 10.9805L27.6094 10.9805L27.6094 7.98047L26.3203 7.98047Z" fill="black" fill-opacity="0.85"/>
 </g>
</svg>
