<?xml version="1.0" encoding="UTF-8"?>
<!--Generator: Apple Native CoreSVG 360-->
<!DOCTYPE svg
PUBLIC "-//W3C//DTD SVG 1.1//EN"
       "http://www.w3.org/Graphics/SVG/1.1/DTD/svg11.dtd">
<svg version="1.1" xmlns="http://www.w3.org/2000/svg" xmlns:xlink="http://www.w3.org/1999/xlink" viewBox="0 0 27.0499 25.0666">
 <g>
  <rect height="25.0666" opacity="0" width="27.0499" x="0" y="0"/>
  <path d="M21.4351 7.0079C23.1812 7.0079 24.5874 5.54305 24.5874 3.84383C24.5874 2.0743 23.1812 0.644615 21.4351 0.644615C19.6538 0.644615 18.2476 2.0743 18.2476 3.84383C18.2476 5.58993 19.6538 7.0079 21.4351 7.0079ZM2.54447 23.7774C3.15384 24.4102 4.19681 24.3634 4.94681 23.5899L9.98588 18.3868C10.1499 18.211 10.2671 18.1641 10.5367 18.2696L14.4742 19.7579C16.9937 20.7306 19.3843 19.8985 20.4859 17.8829L23.0171 13.2774C24.0015 11.4845 23.6968 9.6329 21.9859 8.71883C20.3335 7.81649 18.6109 8.49618 17.6148 10.336L14.3335 16.3243L11.5328 15.3048C10.1499 14.8009 8.98978 14.9649 7.88822 16.1134L2.64994 21.5274C1.92338 22.2774 1.99369 23.2149 2.54447 23.7774Z" fill="black" fill-opacity="0.85"/>
  <path d="M4.79447 4.81649L5.11088 5.49618L2.83744 7.92196L0.833531 8.90633C0.0483752 9.28133-0.162562 10.0431 0.118688 10.6407C0.399938 11.2501 1.10306 11.6251 2.00541 11.1915L3.66947 10.3946L7.30228 10.1954L7.66556 10.9688C7.84134 11.3556 8.29838 11.5196 8.68509 11.3438C9.07181 11.1681 9.23588 10.711 9.06009 10.336L6.189 4.17196C6.01322 3.79696 5.55619 3.6329 5.16947 3.80868C4.78275 3.98446 4.61869 4.44149 4.79447 4.81649ZM8.80228 4.5118L12.1656 3.03524C12.5992 2.84774 12.6812 2.39071 12.2476 2.08602L9.41166 0.12899C9.03666-0.15226 8.57963 0.0469583 8.52103 0.527427L8.05228 3.92586C7.98197 4.44149 8.34525 4.71102 8.80228 4.5118ZM10.2671 7.67586C9.83353 7.86336 9.76322 8.3204 10.2085 8.6368L13.0328 10.5938C13.4195 10.8634 13.8531 10.6524 13.9234 10.1837L14.4038 6.78524C14.4742 6.24618 14.0992 6.00008 13.6421 6.1993Z" fill="black" fill-opacity="0.85"/>
 </g>
</svg>
