<?xml version="1.0" encoding="UTF-8"?>
<!--Generator: Apple Native CoreSVG 360-->
<!DOCTYPE svg
PUBLIC "-//W3C//DTD SVG 1.1//EN"
       "http://www.w3.org/Graphics/SVG/1.1/DTD/svg11.dtd">
<svg version="1.1" xmlns="http://www.w3.org/2000/svg" xmlns:xlink="http://www.w3.org/1999/xlink" viewBox="0 0 18.1747 25.9336">
 <g>
  <rect height="25.9336" opacity="0" width="18.1747" x="0" y="0"/>
  <path d="M8.98775 5.75391C10.5932 5.75391 11.8588 4.47656 11.8588 2.88281C11.8588 1.28906 10.5815 0 8.98775 0C7.40572 0 6.11665 1.28906 6.11665 2.88281C6.11665 4.47656 7.394 5.75391 8.98775 5.75391ZM8.90572 16.0195C9.30415 16.0195 9.5854 16.2422 9.70259 16.6875L11.6596 24.2227C12.1049 25.9219 14.4252 25.3477 14.1792 23.7305C14.0854 23.1094 12.3979 16.7344 12.1518 15.293C11.9643 14.2266 12.0463 11.5547 12.0463 10.3828C12.0463 10.0195 12.351 9.84375 12.7143 9.98438L16.0424 11.3203C16.9331 11.6836 17.5893 11.2383 17.7651 10.6289C17.9409 10.0664 17.6948 9.36328 16.8627 9.01172L13.2534 7.53516C12.4331 7.19531 11.6831 6.99609 10.8627 6.90234C10.2768 7.19531 9.60884 7.34766 8.90572 7.34766C8.21431 7.34766 7.54634 7.19531 6.9604 6.90234C6.12837 6.99609 5.39009 7.19531 4.56978 7.53516L0.960403 9.01172C0.128372 9.36328-0.12944 10.0664 0.0580596 10.6289C0.233841 11.2383 0.878372 11.6836 1.769 11.3203L5.10884 9.98438C5.47212 9.84375 5.76509 10.0195 5.76509 10.3828C5.76509 11.5547 5.84712 14.2266 5.67134 15.293C5.42525 16.7344 3.72603 23.1094 3.63228 23.7305C3.38618 25.3477 5.71822 25.9219 6.15181 24.2227L8.10884 16.6875C8.22603 16.2422 8.519 16.0195 8.90572 16.0195Z" fill="black" fill-opacity="0.85"/>
 </g>
</svg>
