<?xml version="1.0" encoding="UTF-8"?>
<!--Generator: Apple Native CoreSVG 360-->
<!DOCTYPE svg
PUBLIC "-//W3C//DTD SVG 1.1//EN"
       "http://www.w3.org/Graphics/SVG/1.1/DTD/svg11.dtd">
<svg version="1.1" xmlns="http://www.w3.org/2000/svg" xmlns:xlink="http://www.w3.org/1999/xlink" viewBox="0 0 23.0229 22.2461">
 <g>
  <rect height="22.2461" opacity="0" width="23.0229" x="0" y="0"/>
  <path d="M4.60325 5.80859C6.02122 5.80859 7.15794 4.67187 7.15794 3.25391C7.15794 1.84766 6.02122 0.699218 4.60325 0.699218C3.18529 0.699218 2.04857 1.84766 2.04857 3.25391C2.04857 4.67187 3.18529 5.80859 4.60325 5.80859ZM0.032942 10.7305L0.712629 14.9258C0.982161 16.4727 3.09154 16.1562 2.84544 14.6211L2.24779 11L4.62669 10.0742C4.98997 9.93359 5.30638 9.98047 5.45872 10.3203L7.65013 14.6562C8.30638 15.957 8.84544 16.3555 9.3845 16.7422L16.4509 21.9336C17.6931 22.8477 19.1814 21.043 17.7868 20.0117L12.2908 15.9805C12.0212 15.7812 12.0447 15.418 12.3376 15.2539L16.0759 13.0977L20.9743 15.4414C22.3806 16.0977 23.4939 14.1406 21.8533 13.3555L16.6267 10.8711C15.9822 10.5664 15.3845 10.6602 14.8689 10.9648L12.4079 12.4062C12.0798 12.5937 11.8454 12.5 11.7283 12.2539L9.74779 8.22266C9.56029 7.84766 9.60716 7.48437 10.0173 7.28516L11.822 6.46484C12.4197 6.18359 12.6423 5.98437 12.8064 5.41016L13.9548 1.4375C14.3767-0.0625011 12.3611-0.613282 11.9275 0.886718L10.8142 4.77734L0.829817 9.17187C0.150129 9.46484-0.0959643 9.98047 0.032942 10.7305Z" fill="black" fill-opacity="0.85"/>
 </g>
</svg>
