<?xml version="1.0" encoding="UTF-8"?>
<!--Generator: Apple Native CoreSVG 360-->
<!DOCTYPE svg
PUBLIC "-//W3C//DTD SVG 1.1//EN"
       "http://www.w3.org/Graphics/SVG/1.1/DTD/svg11.dtd">
<svg version="1.1" xmlns="http://www.w3.org/2000/svg" xmlns:xlink="http://www.w3.org/1999/xlink" viewBox="0 0 31.7173 26.8711">
 <g>
  <rect height="26.8711" opacity="0" width="31.7173" x="0" y="0"/>
  <path d="M10.5559 25.1602L14.0012 25.1602C14.552 25.1602 14.8098 24.7852 14.6692 24.1758L13.4505 18.8555L16.9661 14.5195L27.3372 12.6211L28.1575 14.168C28.5208 14.8477 29.6809 14.625 29.5286 13.793L28.9778 10.6406C28.8958 10.1602 28.5911 9.97266 28.1458 10.043L21.0442 11.2969L16.6614 11.0742C15.3958 10.8398 13.2981 9.92578 12.8294 8.76562C12.7005 8.42578 12.888 8.12109 13.1927 8.0625L19.802 6.89062C20.6223 6.75 20.9153 6.07031 20.7864 5.47266C20.6692 4.88672 20.1536 4.38281 19.3567 4.53516L0.969997 7.89844C0.208278 8.03906-0.0846903 8.67188 0.0207784 9.26953C0.137966 9.86719 0.641872 10.3828 1.45047 10.2422L6.84109 9.25781C7.32156 9.17578 7.52078 9.36328 7.57937 9.62109C8.21218 11.9648 10.5442 13.6523 12.9348 14.5547L11.1887 17.5195C10.9309 17.9648 10.802 18.3984 10.9427 18.9961L11.927 23.25L10.4036 23.7422C9.63015 23.9883 9.73562 25.1602 10.5559 25.1602ZM8.86843 5.12109C10.2981 5.12109 11.4348 3.98438 11.4348 2.55469C11.4348 1.13672 10.2981 0 8.86843 0C7.45047 0 6.31375 1.13672 6.31375 2.55469C6.31375 3.98438 7.45047 5.12109 8.86843 5.12109ZM9.93484 26.8594L14.5286 26.8594C14.763 26.8594 14.927 26.6719 14.927 26.4492C14.927 26.1914 14.763 26.0156 14.5286 26.0156L9.93484 26.0156C9.70047 26.0156 9.51297 26.1914 9.51297 26.4492C9.51297 26.6719 9.70047 26.8594 9.93484 26.8594ZM31.3567 14.3906L30.5598 9.85547C30.513 9.63281 30.3137 9.49219 30.0911 9.53906C29.845 9.57422 29.6927 9.77344 29.7395 10.0078L30.5364 14.5312C30.5833 14.7656 30.7825 14.9297 31.0403 14.8711C31.2512 14.8477 31.4036 14.625 31.3567 14.3906Z" fill="black" fill-opacity="0.85"/>
 </g>
</svg>
