<?xml version="1.0" encoding="UTF-8"?>
<!--Generator: Apple Native CoreSVG 360-->
<!DOCTYPE svg
PUBLIC "-//W3C//DTD SVG 1.1//EN"
       "http://www.w3.org/Graphics/SVG/1.1/DTD/svg11.dtd">
<svg version="1.1" xmlns="http://www.w3.org/2000/svg" xmlns:xlink="http://www.w3.org/1999/xlink" viewBox="0 0 24.3464 27.5742">
 <g>
  <rect height="27.5742" opacity="0" width="24.3464" x="0" y="0"/>
  <path d="M12.7884 8.88281L14.5915 11.5352C14.1193 11.5444 13.6458 11.7349 13.304 12.1172C13.0598 12.3791 12.893 12.6899 12.8148 13.017C12.3462 12.3591 11.8605 11.6735 11.4993 11.168C11.3822 11.0039 11.1712 11.0742 11.1712 11.2617C11.1712 12.4922 11.2298 15.0938 11.429 16.3828C11.6634 17.8477 13.3626 24.9492 13.4447 25.2656C13.6556 26.0039 13.1986 26.6836 12.4486 26.6836C11.8978 26.6836 11.5228 26.3789 11.3236 25.6523C10.9251 24.2109 9.74154 19.3008 9.3431 18.1172C9.07357 17.2734 8.88607 16.9453 8.4056 16.9453C7.92513 16.9453 7.73763 17.2734 7.4681 18.1172C7.06966 19.3008 5.88607 24.2109 5.48763 25.6523C5.28841 26.3789 4.91341 26.6836 4.36263 26.6836C3.61263 26.6836 3.1556 26.0039 3.36654 25.2656C3.44857 24.9492 5.14779 17.8477 5.39388 16.3828C5.5931 15.0938 5.63997 12.5039 5.63997 11.2734C5.63997 11.0742 5.41732 11.0156 5.31185 11.168C4.43294 12.4102 2.82747 14.6953 2.51107 15.0703C2.1595 15.4688 1.597 15.5391 1.13997 15.2812C0.542316 14.9648 0.401691 14.3203 0.647785 13.875C0.741535 13.6992 0.870441 13.5234 0.987629 13.3477L4.02279 8.88281C4.98372 7.46484 6.17904 6.83203 8.4056 6.83203C10.6322 6.83203 11.8275 7.46484 12.7884 8.88281ZM10.9368 3.08203C10.9368 4.48828 9.81185 5.60156 8.4056 5.60156C6.99935 5.60156 5.87435 4.48828 5.87435 3.08203C5.87435 1.67578 6.99935 0.550781 8.4056 0.550781C9.81185 0.550781 10.9368 1.67578 10.9368 3.08203Z" fill="black" fill-opacity="0.85"/>
  <path d="M18.2611 13.6992C19.2923 13.6992 20.1478 12.8555 20.1478 11.8242C20.1478 10.793 19.2923 9.94922 18.2611 9.94922C17.2298 9.94922 16.3861 10.793 16.3861 11.8242C16.3861 12.8555 17.2298 13.6992 18.2611 13.6992ZM15.6595 26.6836C16.1048 26.6836 16.4798 26.4258 16.6204 25.8398C16.8665 24.9609 17.5814 21.9375 17.8158 21.1992C17.9798 20.7188 18.015 20.6836 18.1439 20.6836C18.2728 20.6836 18.3079 20.7188 18.472 21.1992C18.6947 21.9375 19.4212 24.9609 19.6673 25.8398C19.8079 26.4258 20.1829 26.6836 20.6283 26.6836C21.2962 26.6836 21.6829 26.0625 21.5189 25.4531C21.4603 25.2539 20.4408 20.9062 20.2767 19.9922C20.1947 19.4297 20.1478 18.4453 20.1478 18.0352C20.1478 17.8477 20.3587 17.7891 20.4642 17.9414L21.9642 20.1094C22.2806 20.5664 22.7962 20.5781 23.1361 20.332C23.4408 20.1211 23.5931 19.6875 23.3001 19.2422L21.3665 16.2422C20.6868 15.2109 19.6322 14.8008 18.554 14.8008L18.1439 14.8008C17.3587 14.8008 17.0189 14.5547 16.4915 13.9922L15.2493 12.668C14.9329 12.3398 14.3118 12.3281 13.9603 12.7383C13.6439 13.0664 13.5384 13.5469 13.8079 13.957C13.9368 14.1562 15.015 15.3633 15.8587 16.418C16.0462 16.6523 16.1517 16.875 16.1517 17.2148C16.1517 17.8008 16.1283 19.2656 16.0111 19.9922C15.847 20.9062 14.8275 25.2539 14.7689 25.4531C14.6048 26.0625 14.9915 26.6836 15.6595 26.6836Z" fill="black" fill-opacity="0.85"/>
 </g>
</svg>
