<?xml version="1.0" encoding="UTF-8"?>
<!--Generator: Apple Native CoreSVG 360-->
<!DOCTYPE svg
PUBLIC "-//W3C//DTD SVG 1.1//EN"
       "http://www.w3.org/Graphics/SVG/1.1/DTD/svg11.dtd">
<svg version="1.1" xmlns="http://www.w3.org/2000/svg" xmlns:xlink="http://www.w3.org/1999/xlink" viewBox="0 0 22.8164 23.8711">
 <g>
  <rect height="23.8711" opacity="0" width="22.8164" x="0" y="0"/>
  <path d="M3.15234 6.41016C1.40625 6.41016 0 4.94531 0 3.24609C0 1.47656 1.40625 0.046875 3.15234 0.046875C4.93359 0.046875 6.33984 1.47656 6.33984 3.24609C6.33984 4.99219 4.93359 6.41016 3.15234 6.41016ZM22.043 23.1797C21.4336 23.8125 20.3906 23.7656 19.6406 22.9922L14.6016 17.7891C14.4375 17.6133 14.3203 17.5664 14.0625 17.6719L10.125 19.1602C7.59375 20.1328 5.20312 19.3008 4.10156 17.2852L1.57031 12.6797C0.585938 10.8867 0.890625 9.03516 2.60156 8.12109C4.25391 7.21875 5.97656 7.89844 6.97266 9.73828L10.2539 15.7266L13.0547 14.707C14.4375 14.2031 15.5977 14.3672 16.6992 15.5156L21.9375 20.9297C22.6641 21.6797 22.5938 22.6172 22.043 23.1797Z" fill="black" fill-opacity="0.85"/>
  <path d="M15.1641 6.38672C14.2031 6.38672 13.7812 7.35938 14.4258 8.07422L17.5664 11.625C17.9883 12.1055 18.5742 12.1172 19.0195 11.625L22.1602 8.07422C22.7695 7.39453 22.4297 6.38672 21.4219 6.38672ZM19.3008 0.996094C19.3008 0.433594 18.8672 0 18.3164 0C17.7422 0 17.3086 0.433594 17.3086 0.996094L17.3086 8.85938C17.3086 9.42188 17.7422 9.86719 18.3164 9.86719C18.8672 9.86719 19.3008 9.42188 19.3008 8.85938Z" fill="black" fill-opacity="0.85"/>
 </g>
</svg>
