<?xml version="1.0" encoding="UTF-8"?>
<!--Generator: Apple Native CoreSVG 360-->
<!DOCTYPE svg
PUBLIC "-//W3C//DTD SVG 1.1//EN"
       "http://www.w3.org/Graphics/SVG/1.1/DTD/svg11.dtd">
<svg version="1.1" xmlns="http://www.w3.org/2000/svg" xmlns:xlink="http://www.w3.org/1999/xlink" viewBox="0 0 28.0898 15.5742">
 <g>
  <rect height="15.5742" opacity="0" width="28.0898" x="0" y="0"/>
  <path d="M20.0508 6.05859C21.4688 6.05859 22.6055 4.91016 22.6055 3.49219C22.6055 2.07422 21.4688 0.9375 20.0508 0.9375C18.6328 0.9375 17.4844 2.07422 17.4844 3.49219C17.4844 4.91016 18.6328 6.05859 20.0508 6.05859ZM10.0195 7.72266C11.3438 8.28516 12.0938 9.22266 13.8633 9.22266C15.9375 9.22266 16.5234 7.94531 18.3633 7.47656L11.7422 0.597656C11.2266 0.0585938 10.4414-0.0117188 9.82031 0.445312L5.21484 3.70312C4.42969 4.26562 4.5 5.09766 4.95703 5.60156C5.34375 6.02344 6.02344 6.1875 6.67969 5.73047L10.418 3.09375L12.5273 5.26172C12.7617 5.50781 12.832 5.87109 12.4688 6.11719ZM0.65625 12.3164L1.83984 12.3164C4.96875 12.3164 5.68359 10.3945 7.85156 10.3945C10.0195 10.3945 10.7344 12.3164 13.8633 12.3164C17.0039 12.3164 17.707 10.3945 19.8867 10.3945C22.0547 10.3945 22.7578 12.3164 25.8984 12.3164L27.082 12.3164C27.4453 12.3164 27.7383 12.0352 27.7383 11.6719C27.7383 11.3086 27.4453 11.0156 27.082 11.0156L25.8984 11.0156C23.6484 11.0156 22.8867 9.09375 19.8867 9.09375C16.875 9.09375 16.1133 11.0156 13.8633 11.0156C11.6133 11.0156 10.8633 9.09375 7.85156 9.09375C4.85156 9.09375 4.08984 11.0156 1.83984 11.0156L0.65625 11.0156C0.28125 11.0156 0 11.3086 0 11.6719C0 12.0352 0.28125 12.3164 0.65625 12.3164ZM0.960938 15.5742C1.34766 15.5742 1.65234 15.2695 1.65234 14.8828C1.65234 14.5078 1.34766 14.2031 0.960938 14.2031C0.585938 14.2031 0.28125 14.5078 0.28125 14.8828C0.28125 15.2695 0.585938 15.5742 0.960938 15.5742ZM3.16406 15.1758C3.53906 15.1758 3.84375 14.8828 3.84375 14.4961C3.84375 14.1094 3.53906 13.8164 3.16406 13.8164C2.77734 13.8164 2.47266 14.1094 2.47266 14.4961C2.47266 14.8828 2.77734 15.1758 3.16406 15.1758ZM5.21484 14.2148C5.60156 14.2148 5.90625 13.9102 5.90625 13.5234C5.90625 13.1484 5.60156 12.8438 5.21484 12.8438C4.83984 12.8438 4.53516 13.1484 4.53516 13.5234C4.53516 13.9102 4.83984 14.2148 5.21484 14.2148ZM7.42969 13.6875C7.81641 13.6875 8.12109 13.3828 8.12109 12.9961C8.12109 12.6211 7.81641 12.3164 7.42969 12.3164C7.05469 12.3164 6.75 12.6211 6.75 12.9961C6.75 13.3828 7.05469 13.6875 7.42969 13.6875ZM9.64453 14.2148C10.0312 14.2148 10.3242 13.9102 10.3242 13.5234C10.3242 13.1484 10.0312 12.8438 9.64453 12.8438C9.25781 12.8438 8.96484 13.1484 8.96484 13.5234C8.96484 13.9102 9.25781 14.2148 9.64453 14.2148ZM11.7188 15.1758C12.1055 15.1758 12.4102 14.8828 12.4102 14.4961C12.4102 14.1094 12.1055 13.8164 11.7188 13.8164C11.3438 13.8164 11.0391 14.1094 11.0391 14.4961C11.0391 14.8828 11.3438 15.1758 11.7188 15.1758ZM13.8867 15.5742C14.2617 15.5742 14.5664 15.2695 14.5664 14.8828C14.5664 14.5078 14.2617 14.2031 13.8867 14.2031C13.5 14.2031 13.1953 14.5078 13.1953 14.8828C13.1953 15.2695 13.5 15.5742 13.8867 15.5742ZM16.043 15.1758C16.4297 15.1758 16.7227 14.8828 16.7227 14.4961C16.7227 14.1094 16.4297 13.8164 16.043 13.8164C15.6562 13.8164 15.3633 14.1094 15.3633 14.4961C15.3633 14.8828 15.6562 15.1758 16.043 15.1758ZM18.1172 14.2148C18.5039 14.2148 18.8086 13.9102 18.8086 13.5234C18.8086 13.1484 18.5039 12.8438 18.1172 12.8438C17.7422 12.8438 17.4375 13.1484 17.4375 13.5234C17.4375 13.9102 17.7422 14.2148 18.1172 14.2148ZM20.332 13.6875C20.7188 13.6875 21.0117 13.3828 21.0117 12.9961C21.0117 12.6211 20.7188 12.3164 20.332 12.3164C19.9453 12.3164 19.6523 12.6211 19.6523 12.9961C19.6523 13.3828 19.9453 13.6875 20.332 13.6875ZM22.5469 14.2148C22.9336 14.2148 23.2266 13.9102 23.2266 13.5234C23.2266 13.1484 22.9336 12.8438 22.5469 12.8438C22.1602 12.8438 21.8672 13.1484 21.8672 13.5234C21.8672 13.9102 22.1602 14.2148 22.5469 14.2148ZM24.6094 15.1758C24.9961 15.1758 25.2891 14.8828 25.2891 14.4961C25.2891 14.1094 24.9961 13.8164 24.6094 13.8164C24.2227 13.8164 23.9297 14.1094 23.9297 14.4961C23.9297 14.8828 24.2227 15.1758 24.6094 15.1758ZM26.7891 15.5742C27.1758 15.5742 27.4805 15.2695 27.4805 14.8828C27.4805 14.5078 27.1758 14.2031 26.7891 14.2031C26.4141 14.2031 26.1094 14.5078 26.1094 14.8828C26.1094 15.2695 26.4141 15.5742 26.7891 15.5742Z" fill="black" fill-opacity="0.85"/>
 </g>
</svg>
