<?xml version="1.0" encoding="UTF-8"?>
<!--Generator: Apple Native CoreSVG 360-->
<!DOCTYPE svg
PUBLIC "-//W3C//DTD SVG 1.1//EN"
       "http://www.w3.org/Graphics/SVG/1.1/DTD/svg11.dtd">
<svg version="1.1" xmlns="http://www.w3.org/2000/svg" xmlns:xlink="http://www.w3.org/1999/xlink" viewBox="0 0 16.125 31.8633">
 <g>
  <rect height="31.8633" opacity="0" width="16.125" x="0" y="0"/>
  <path d="M7.88672 8.64844C9.26953 8.64844 10.3945 7.52344 10.3945 6.11719C10.3945 4.72266 9.26953 3.60938 7.88672 3.60938C6.48047 3.60938 5.35547 4.72266 5.35547 6.11719C5.35547 7.52344 6.48047 8.64844 7.88672 8.64844ZM6.1875 31.8633C6.79688 31.8633 7.32422 31.3359 7.32422 30.7266L7.32422 24.5859L7.88672 20.0273L8.4375 24.5859L8.4375 30.7266C8.4375 31.3359 8.96484 31.8633 9.57422 31.8633C10.1953 31.8633 10.7109 31.3359 10.7109 30.7266L10.7109 14.3789C10.7109 14.2383 10.8984 14.2148 10.957 14.332C12.3867 16.9805 13.2305 19.3477 13.5703 20.3789C13.7812 20.9531 14.4258 21.2812 15.0117 21.082C15.4805 20.9297 15.7734 20.4844 15.7734 20.0156C15.7734 19.8984 15.75 19.7695 15.7148 19.6523C15.6445 19.4062 13.6758 13.5586 11.2383 10.793C10.7227 10.207 9.96094 9.85547 9.14062 9.85547L6.62109 9.85547C5.80078 9.85547 5.03906 10.207 4.53516 10.793C2.08594 13.5586 0.128906 19.4062 0.0585938 19.6523C0.0117188 19.7695 0 19.9102 0 20.0273C0 20.4844 0.292969 20.9297 0.761719 21.082C1.34766 21.2812 1.98047 20.9531 2.19141 20.3789C2.54297 19.3477 3.375 16.9805 4.81641 14.332C4.875 14.2148 5.0625 14.2383 5.0625 14.3789L5.0625 30.7266C5.0625 31.3359 5.57812 31.8633 6.1875 31.8633ZM7.88672 1.30078C12.0938 1.30078 14.4727 5.17969 14.4727 11.8711L14.4727 20.0273L15.7734 20.0273L15.7734 11.8711C15.7734 4.33594 12.9375 0 7.88672 0C2.84766 0 0.0117188 4.33594 0.0117188 11.8711L0.0117188 20.0391L1.3125 20.0391L1.3125 11.8711C1.3125 5.17969 3.67969 1.30078 7.88672 1.30078Z" fill="black" fill-opacity="0.85"/>
 </g>
</svg>
