<?xml version="1.0" encoding="UTF-8"?>
<!--Generator: Apple Native CoreSVG 360-->
<!DOCTYPE svg
PUBLIC "-//W3C//DTD SVG 1.1//EN"
       "http://www.w3.org/Graphics/SVG/1.1/DTD/svg11.dtd">
<svg version="1.1" xmlns="http://www.w3.org/2000/svg" xmlns:xlink="http://www.w3.org/1999/xlink" viewBox="0 0 24.9319 27.2461">
 <g>
  <rect height="27.2461" opacity="0" width="24.9319" x="0" y="0"/>
  <path d="M3.48354 18.4219L0.284324 23.0039C-0.184426 23.6602-0.0672381 24.293 0.589012 24.75L3.09682 26.5078C3.74136 26.9531 4.38589 26.8359 4.8312 26.2031L8.05386 21.6211C8.49917 20.9648 8.38198 20.332 7.72573 19.875L5.22964 18.1289C4.58511 17.6602 3.92886 17.7773 3.48354 18.4219ZM8.79214 14.8125L4.70229 20.6367L5.7687 21.3867L9.85854 15.5508ZM10.0578 26.332L13.7609 21.9375C14.1242 21.5156 14.171 21.3984 14.3117 20.9531L14.6164 20.0508L12.6242 17.5664L12.0148 20.4141L8.35854 24.7383C7.18667 26.1211 9.09682 27.4805 10.0578 26.332ZM19.0695 25.9688C19.8195 27.5156 22.0929 26.5664 21.2726 24.9023L18.7531 19.8164C18.5656 19.4297 18.296 19.0195 18.0734 18.6914L16.4679 16.418L16.5851 16.0898C17.0187 14.8242 17.171 14.0508 17.2531 12.7852L17.5109 9.23438C17.6281 7.54688 16.632 6.25781 14.8976 6.25781C13.6085 6.25781 12.7296 6.91406 11.5343 8.08594L9.64761 9.9375C9.03823 10.5469 8.82729 11.0391 8.7687 11.8359L8.55776 14.7422C8.49917 15.4688 8.89761 15.9961 9.57729 16.0195C10.2687 16.0664 10.6789 15.668 10.7492 14.8828L11.0304 11.6953L11.9328 10.875C12.2492 10.582 12.6945 10.7812 12.6593 11.1094L12.4601 13.8164C12.3546 15.1758 12.671 15.8203 13.6085 16.9922L16.1046 20.1211C16.3507 20.4375 16.3859 20.5664 16.4796 20.7539ZM23.3468 11.0742L20.4992 11.0742L18.6476 9.01172L18.4484 12L19.2101 12.75C19.6203 13.1602 19.9601 13.2773 20.6867 13.2773L23.3468 13.2773C24.0851 13.2773 24.5773 12.8555 24.5773 12.1641C24.5773 11.5078 24.0734 11.0742 23.3468 11.0742ZM16.2804 5.15625C17.7101 5.15625 18.8585 4.00781 18.8585 2.57812C18.8585 1.14844 17.7101 0 16.2804 0C14.8507 0 13.7023 1.14844 13.7023 2.57812C13.7023 4.00781 14.8507 5.15625 16.2804 5.15625Z" fill="black" fill-opacity="0.85"/>
 </g>
</svg>
