<?xml version="1.0" encoding="UTF-8"?>
<!--Generator: Apple Native CoreSVG 360-->
<!DOCTYPE svg
PUBLIC "-//W3C//DTD SVG 1.1//EN"
       "http://www.w3.org/Graphics/SVG/1.1/DTD/svg11.dtd">
<svg version="1.1" xmlns="http://www.w3.org/2000/svg" xmlns:xlink="http://www.w3.org/1999/xlink" viewBox="0 0 22.8164 23.8828">
 <g>
  <rect height="23.8828" opacity="0" width="22.8164" x="0" y="0"/>
  <path d="M3.15234 6.41602C1.40625 6.41602 0 4.95117 0 3.25195C0 1.48242 1.40625 0.0527344 3.15234 0.0527344C4.93359 0.0527344 6.33984 1.48242 6.33984 3.25195C6.33984 4.99805 4.93359 6.41602 3.15234 6.41602ZM22.043 23.1855C21.4336 23.8184 20.3906 23.7715 19.6406 22.998L14.6016 17.7949C14.4375 17.6191 14.3203 17.5723 14.0625 17.6777L10.125 19.166C7.59375 20.1387 5.20312 19.3066 4.10156 17.291L1.57031 12.6855C0.585938 10.8926 0.890625 9.04102 2.60156 8.12695C4.25391 7.22461 5.97656 7.9043 6.97266 9.74414L10.2539 15.7324L13.0547 14.7129C14.4375 14.209 15.5977 14.373 16.6992 15.5215L21.9375 20.9355C22.6641 21.6855 22.5938 22.623 22.043 23.1855Z" fill="black" fill-opacity="0.85"/>
  <path d="M15.1641 5.5957L21.4219 5.5957C22.4297 5.5957 22.7695 4.59961 22.1602 3.91992L19.0195 0.369141C18.5742-0.123047 17.9883-0.123047 17.5664 0.369141L14.4258 3.91992C13.7812 4.63477 14.2031 5.5957 15.1641 5.5957ZM19.3008 10.998L19.3008 3.13477C19.3008 2.57227 18.8672 2.12695 18.3164 2.12695C17.7422 2.12695 17.3086 2.57227 17.3086 3.13477L17.3086 10.998C17.3086 11.5605 17.7422 11.9941 18.3164 11.9941C18.8672 11.9941 19.3008 11.5605 19.3008 10.998Z" fill="black" fill-opacity="0.85"/>
 </g>
</svg>
