<?xml version="1.0" encoding="UTF-8"?>
<!--Generator: Apple Native CoreSVG 360-->
<!DOCTYPE svg
PUBLIC "-//W3C//DTD SVG 1.1//EN"
       "http://www.w3.org/Graphics/SVG/1.1/DTD/svg11.dtd">
<svg version="1.1" xmlns="http://www.w3.org/2000/svg" xmlns:xlink="http://www.w3.org/1999/xlink" viewBox="0 0 22.8164 23.7773">
 <g>
  <rect height="23.7773" opacity="0" width="22.8164" x="0" y="0"/>
  <path d="M3.15234 6.36328C4.93359 6.36328 6.33984 4.94531 6.33984 3.19922C6.33984 1.42969 4.93359 0 3.15234 0C1.40625 0 0 1.42969 0 3.19922C0 4.89844 1.40625 6.36328 3.15234 6.36328ZM22.043 23.1328C22.5938 22.5703 22.6641 21.6328 21.9375 20.8828L16.6992 15.4688C15.5977 14.3203 14.4375 14.1562 13.0547 14.6602L10.2539 15.6797L6.97266 9.69141C5.97656 7.85156 4.25391 7.17188 2.60156 8.07422C0.890625 8.98828 0.585938 10.8398 1.57031 12.6328L4.10156 17.2383C5.20312 19.2539 7.59375 20.0859 10.125 19.1133L14.0625 17.625C14.3203 17.5195 14.4375 17.5664 14.6016 17.7422L19.6406 22.9453C20.3906 23.7188 21.4336 23.7656 22.043 23.1328Z" fill="black" fill-opacity="0.85"/>
  <path d="M12.6797 11.3203C13.1016 11.3203 13.3945 11.1094 13.5703 10.5703L14.4258 8.07422L18.6211 8.07422L19.4766 10.5703C19.6523 11.1094 19.957 11.3203 20.3789 11.3203C20.8945 11.3203 21.2461 10.9805 21.2461 10.5117C21.2461 10.3242 21.2109 10.1602 21.1172 9.90234L17.8359 1.05469C17.6016 0.445312 17.1562 0.128906 16.5117 0.128906C15.8789 0.128906 15.4453 0.445312 15.2227 1.05469L11.9297 9.90234C11.8477 10.1602 11.8125 10.3242 11.8125 10.5C11.8125 10.9922 12.1523 11.3203 12.6797 11.3203ZM14.9062 6.66797L16.4648 2.13281L16.5938 2.13281L18.1523 6.66797Z" fill="black" fill-opacity="0.85"/>
 </g>
</svg>
