<?xml version="1.0" encoding="UTF-8"?>
<!--Generator: Apple Native CoreSVG 360-->
<!DOCTYPE svg
PUBLIC "-//W3C//DTD SVG 1.1//EN"
       "http://www.w3.org/Graphics/SVG/1.1/DTD/svg11.dtd">
<svg version="1.1" xmlns="http://www.w3.org/2000/svg" xmlns:xlink="http://www.w3.org/1999/xlink" viewBox="0 0 36.7652 27.2449">
 <g>
  <rect height="27.2449" opacity="0" width="36.7652" x="0" y="0"/>
  <path d="M30.2654 8.37831L30.2654 10.7338C30.2654 11.4603 29.8436 11.7767 29.3396 11.7767C28.8123 11.7767 28.4021 11.4252 28.4021 10.7338L28.4021 8.13221C28.4021 5.16737 26.5037 3.60878 24.3123 3.60878C22.1209 3.60878 20.2225 5.16737 20.2225 8.13221L20.2225 11.2325C21.4828 11.4674 22.1443 12.3796 22.1443 13.9447L22.1443 22.0189C22.1443 23.8705 21.2303 24.808 19.5076 24.808L12.7118 24.808C12.7189 24.5525 12.6883 24.2781 12.617 23.9877L12.3855 23.0385L19.4607 23.0385C19.9646 23.0385 20.2459 22.7221 20.2459 22.1478L20.2459 13.8158C20.2459 13.2416 19.9646 12.9369 19.4607 12.9369L12.696 12.9369L10.7654 12.14C10.9137 11.8356 11.0205 11.5103 11.074 11.1674L18.3709 11.1674L18.3709 8.37831C18.3709 3.97206 21.242 1.83925 24.3123 1.83925C27.3826 1.83925 30.2654 3.97206 30.2654 8.37831Z" fill="black" fill-opacity="0.85"/>
  <path d="M7.58965 12.5619C8.66777 12.5619 9.51152 11.7064 9.51152 10.64C9.51152 9.57362 8.66777 8.70643 7.58965 8.70643C6.53496 8.70643 5.65605 9.57362 5.65605 10.64C5.65605 11.7064 6.53496 12.5619 7.58965 12.5619ZM7.57793 19.4525C7.83574 19.4525 8.04668 19.6049 8.11699 19.8978L9.42949 24.9721C9.73418 26.0971 11.2811 25.6986 11.117 24.6322C11.0467 24.2103 9.92168 19.9213 9.75762 18.9603C9.64043 18.2572 9.6873 16.4642 9.6873 15.6557C9.6873 15.433 9.88652 15.2807 10.1326 15.3861L12.3709 16.2885C12.9803 16.5346 13.4021 16.2416 13.5193 15.8432C13.6482 15.4447 13.4725 14.976 12.91 14.7533L10.4959 13.7572C9.9334 13.5228 9.42949 13.4057 8.86699 13.3236C8.48027 13.5111 8.04668 13.6283 7.57793 13.6283C7.10918 13.6283 6.6873 13.5111 6.28887 13.3236C5.72637 13.4057 5.22246 13.5228 4.65996 13.7572L2.2459 14.7533C1.69512 14.976 1.51933 15.4447 1.64824 15.8432C1.75371 16.2416 2.17558 16.5346 2.78496 16.2885L5.03496 15.3861C5.26933 15.2807 5.46855 15.433 5.46855 15.6557C5.46855 16.4642 5.52715 18.2572 5.40996 18.9603C5.2459 19.9213 4.10918 24.2103 4.03887 24.6322C3.8748 25.6986 5.4334 26.0971 5.72637 24.9721L7.03887 19.8978C7.1209 19.6049 7.32012 19.4525 7.57793 19.4525Z" fill="black" fill-opacity="0.85"/>
 </g>
</svg>
