<?xml version="1.0" encoding="UTF-8"?>
<!--Generator: Apple Native CoreSVG 360-->
<!DOCTYPE svg
PUBLIC "-//W3C//DTD SVG 1.1//EN"
       "http://www.w3.org/Graphics/SVG/1.1/DTD/svg11.dtd">
<svg version="1.1" xmlns="http://www.w3.org/2000/svg" xmlns:xlink="http://www.w3.org/1999/xlink" viewBox="0 0 30.0117 26.0764">
 <g>
  <rect height="26.0764" opacity="0" width="30.0117" x="0" y="0"/>
  <path d="M23.0215 7.51282C24.7676 7.51282 26.1738 6.04798 26.1738 4.34876C26.1738 2.57923 24.7676 1.14954 23.0215 1.14954C21.2402 1.14954 19.834 2.57923 19.834 4.34876C19.834 6.09485 21.2402 7.51282 23.0215 7.51282ZM4.13086 24.2824C4.74023 24.9152 5.7832 24.8683 6.5332 24.0949L11.5723 18.8917C11.7363 18.7159 11.8535 18.6691 12.123 18.7745L16.0488 20.2628C18.5801 21.2355 20.9707 20.4034 22.0723 18.3878L24.6035 13.7824C25.5879 11.9894 25.2832 10.1378 23.5723 9.22376C21.9199 8.32142 20.1973 9.0011 19.2012 10.8409L15.9199 16.8292L13.1191 15.8097C11.7363 15.3058 10.5762 15.4699 9.47461 16.6183L4.23633 22.0324C3.50977 22.7824 3.58008 23.7199 4.13086 24.2824Z" fill="black" fill-opacity="0.85"/>
  <path d="M1.55273 1.71204L5.33789 5.52064C5.92383 6.09485 6.76758 5.76673 6.81445 4.9347L7.06055 0.88001C7.0957 0.329229 6.74414-0.0223334 6.19336 0.00110406L2.12695 0.247198C1.3418 0.282354 0.943359 1.10267 1.55273 1.71204ZM1.4707 6.79798L5.34961 2.91907C5.68945 2.57923 5.67773 2.01673 5.36133 1.70032C5.02148 1.36048 4.48242 1.36048 4.14258 1.70032L0.251953 5.59095C-0.0878906 5.93079-0.0761719 6.48157 0.240234 6.79798C0.580078 7.14954 1.13086 7.14954 1.4707 6.79798ZM10.8105 5.79017L10.8105 11.1574C10.8105 12.0245 11.666 12.3292 12.2637 11.7902L15.2988 9.09485C15.709 8.71985 15.709 8.23939 15.2988 7.86439L12.2637 5.15735C11.6426 4.60657 10.8105 4.98157 10.8105 5.79017ZM6.2168 9.34095L12.4629 9.34095C12.9551 9.34095 13.3418 8.96595 13.3418 8.4972C13.3418 8.00501 12.9551 7.61829 12.4629 7.61829L6.2168 7.61829C5.72461 7.61829 5.34961 8.00501 5.34961 8.4972C5.34961 8.96595 5.72461 9.34095 6.2168 9.34095Z" fill="black" fill-opacity="0.85"/>
 </g>
</svg>
