<?xml version="1.0" encoding="UTF-8"?>
<!--Generator: Apple Native CoreSVG 360-->
<!DOCTYPE svg
PUBLIC "-//W3C//DTD SVG 1.1//EN"
       "http://www.w3.org/Graphics/SVG/1.1/DTD/svg11.dtd">
<svg version="1.1" xmlns="http://www.w3.org/2000/svg" xmlns:xlink="http://www.w3.org/1999/xlink" viewBox="0 0 29.2383 24.293">
 <g>
  <rect height="24.293" opacity="0" width="29.2383" x="0" y="0"/>
  <path d="M1.79297 9.23438L7.45312 9.23438C7.86328 9.23438 8.17969 8.88281 8.17969 8.46094C8.17969 8.03906 7.86328 7.69922 7.45312 7.69922L1.79297 7.69922C1.38281 7.69922 1.06641 8.03906 1.06641 8.46094C1.06641 8.88281 1.38281 9.23438 1.79297 9.23438ZM0.726562 13.6406L7.45312 13.6406C7.86328 13.6406 8.17969 13.3008 8.17969 12.8789C8.17969 12.457 7.86328 12.1055 7.45312 12.1055L0.726562 12.1055C0.316406 12.1055 0 12.4688 0 12.8789C0 13.2891 0.316406 13.6406 0.726562 13.6406ZM4.16016 18.0586L7.45312 18.0586C7.86328 18.0586 8.17969 17.707 8.17969 17.2852C8.17969 16.8633 7.86328 16.5234 7.45312 16.5234L4.16016 16.5234C3.75 16.5234 3.42188 16.8633 3.42188 17.2852C3.42188 17.707 3.75 18.0586 4.16016 18.0586Z" fill="black" fill-opacity="0.85"/>
  <path d="M26.0273 5.09766C27.4453 5.09766 28.582 3.96094 28.582 2.55469C28.582 1.13672 27.4453 0 26.0273 0C24.6094 0 23.4727 1.13672 23.4727 2.55469C23.4727 3.96094 24.6094 5.09766 26.0273 5.09766ZM19.043 24.293C23.8359 24.293 27.5625 20.5547 27.5625 15.7617C27.5625 13.5586 26.6719 12.2344 24.7031 11.5664L22.8516 10.9219C22.5352 10.8281 22.4531 10.5938 22.6523 10.3008L23.8594 8.54297C24.7969 7.19531 24.457 6.08203 23.0273 5.07422L18.5625 1.95703C18.0938 1.64062 17.5078 1.62891 17.0391 1.93359L12.9141 4.71094C11.3906 5.74219 12.7969 7.60547 14.168 6.66797L17.6719 4.30078L20.0859 5.98828C20.4961 6.28125 20.543 6.60938 20.2734 6.98438L18.3398 9.79688C17.2969 11.3086 18.1406 12.9492 19.7695 13.3711L24.9141 14.6602C25.4766 14.7891 25.7812 15.2461 25.7812 15.8789C25.7812 19.5586 22.8398 22.5 19.0547 22.5C15.2578 22.5 12.3047 19.5586 12.3047 15.7617C12.3047 14.3789 12.7148 13.1484 13.3945 12.1289C14.1562 10.9922 12.6445 10.043 11.8477 11.2383C11.0273 12.4922 10.5234 14.0273 10.5234 15.7617C10.5234 20.5547 14.25 24.293 19.043 24.293ZM27.5977 24.293C28.3242 24.293 28.8867 23.7188 28.8867 22.9922C28.8867 22.2773 28.3242 21.7031 27.5977 21.7031C26.8828 21.7031 26.3086 22.2773 26.3086 22.9922C26.3086 23.7188 26.8828 24.293 27.5977 24.293Z" fill="black" fill-opacity="0.85"/>
 </g>
</svg>
