<?xml version="1.0" encoding="UTF-8"?>
<!--Generator: Apple Native CoreSVG 360-->
<!DOCTYPE svg
PUBLIC "-//W3C//DTD SVG 1.1//EN"
       "http://www.w3.org/Graphics/SVG/1.1/DTD/svg11.dtd">
<svg version="1.1" xmlns="http://www.w3.org/2000/svg" xmlns:xlink="http://www.w3.org/1999/xlink" viewBox="0 0 31.0664 23.9414">
 <g>
  <rect height="23.9414" opacity="0" width="31.0664" x="0" y="0"/>
  <path d="M11.4023 6.5625C9.64453 6.5625 8.25 5.09766 8.25 3.39844C8.25 1.62891 9.64453 0.1875 11.4023 0.1875C13.1719 0.1875 14.5898 1.62891 14.5898 3.39844C14.5898 5.13281 13.1719 6.5625 11.4023 6.5625ZM13.4531 18.7031C12.9258 18.293 12.4453 17.6016 11.9766 16.7344L9.82031 12.8203C8.82422 11.0156 9.14062 9.17578 10.8516 8.26172C12.5039 7.34766 14.2031 8.05078 15.2227 9.87891L17.4492 13.8984ZM30.2812 23.3086C29.6836 23.9531 28.6406 23.8945 27.8906 23.1328L22.8516 17.9297C22.6758 17.7539 22.5703 17.707 22.3008 17.8125L18.0469 19.418C17.1211 19.7695 16.1133 19.6992 15.375 19.5586L18.3047 15.9375L21.3047 14.8477C22.6758 14.3438 23.8359 14.5078 24.9375 15.6562L30.1758 21.0703C30.9023 21.8203 30.832 22.7578 30.2812 23.3086ZM10.9102 23.4492C10.4297 23.0742 10.4062 22.4883 10.8516 21.9375L13.4531 18.7031C14.0508 19.125 14.707 19.418 15.375 19.5586L12.3984 23.2266C11.9648 23.7539 11.4023 23.8594 10.9102 23.4492Z" fill="black" fill-opacity="0.85"/>
  <path d="M0.855469 23.7305L6.46875 23.7305C6.90234 23.7305 7.21875 23.4258 7.21875 23.0039C7.21875 22.5703 6.90234 22.2656 6.46875 22.2656L2.49609 22.2656L2.49609 22.2305L5.03906 19.4883C5.94141 18.5273 6.62109 17.6836 6.62109 16.4766C6.62109 14.8008 5.32031 13.7109 3.28125 13.7109C1.76953 13.7109 0.421875 14.625 0.0703125 15.8672C0.0234375 16.0312 0 16.1602 0 16.3125C0 16.7461 0.28125 17.0391 0.738281 17.0391C1.125 17.0391 1.32422 16.793 1.53516 16.4648C1.80469 15.8203 2.36719 15.1523 3.35156 15.1523C4.34766 15.1523 5.02734 15.7383 5.02734 16.5938C5.02734 17.3555 4.37109 18 3.75 18.668L0.339844 22.3359C0.152344 22.5352 0.046875 22.7461 0.046875 23.0039C0.046875 23.4492 0.351562 23.7305 0.855469 23.7305Z" fill="black" fill-opacity="0.85"/>
  <path d="M24.7383 11.8945C21.4336 11.8945 18.8438 9.16406 18.8438 5.98828C18.8438 2.67188 21.4336 0 24.7383 0C28.0547 0 30.7031 2.67188 30.7031 5.98828C30.7031 9.16406 28.0547 11.8945 24.7383 11.8945Z" fill="black" fill-opacity="0.85"/>
 </g>
</svg>
