<?xml version="1.0" encoding="UTF-8"?>
<!--Generator: Apple Native CoreSVG 360-->
<!DOCTYPE svg
PUBLIC "-//W3C//DTD SVG 1.1//EN"
       "http://www.w3.org/Graphics/SVG/1.1/DTD/svg11.dtd">
<svg version="1.1" xmlns="http://www.w3.org/2000/svg" xmlns:xlink="http://www.w3.org/1999/xlink" viewBox="0 0 37.4761 24.3867">
 <g>
  <rect height="24.3867" opacity="0" width="37.4761" x="0" y="0"/>
  <path d="M6.1287 6.66797C4.37089 6.66797 2.96464 5.20312 2.96464 3.50391C2.96464 1.73438 4.37089 0.304688 6.1287 0.304688C7.89823 0.304688 9.3162 1.73438 9.3162 3.50391C9.3162 5.25 7.89823 6.66797 6.1287 6.66797ZM25.0076 23.4375C24.3982 24.0703 23.3553 24.0234 22.617 23.25L17.5662 18.0469C17.4021 17.8711 17.2849 17.8242 17.0271 17.9297L13.0896 19.418C10.5584 20.3906 8.17948 19.5586 7.0662 17.543L4.53495 12.9375C3.55057 11.1445 3.86698 9.29297 5.5662 8.37891C7.23026 7.47656 8.9412 8.15625 9.93729 9.99609L13.2303 15.9844L16.0193 14.9648C17.4021 14.4609 18.5623 14.625 19.6639 15.7734L24.9021 21.1875C25.6287 21.9375 25.5584 22.875 25.0076 23.4375Z" fill="black" fill-opacity="0.85"/>
  <path d="M24.3514 4.07812L27.5271 8.14453C27.6795 8.33203 27.8904 8.36719 28.1014 8.25C28.8631 7.85156 29.9412 7.58203 30.7967 7.58203C31.6639 7.58203 32.7654 7.85156 33.5037 8.25C33.7146 8.36719 33.949 8.33203 34.0779 8.14453L37.2771 4.07812C37.5818 3.66797 37.5349 3.25781 37.1482 2.95312C35.8474 1.95703 33.3982 1.19531 30.7967 1.19531C28.2303 1.19531 25.7576 1.95703 24.4685 2.95312C24.0818 3.25781 24.0349 3.66797 24.3514 4.07812ZM27.656 10.5234C27.2928 10.043 27.1404 9.59766 27.1404 9.11719C27.1404 8.01562 28.031 7.73438 28.031 7.08984C28.031 6.43359 27.1404 6.16406 27.1404 5.02734C27.1404 4.55859 27.2928 4.11328 27.656 3.64453C28.0662 3.15234 28.8045 3.67969 28.406 4.19531C28.1365 4.55859 28.0662 4.75781 28.0662 5.02734C28.0662 5.82422 28.9568 6.04688 28.9568 7.08984C28.9568 8.12109 28.0662 8.35547 28.0662 9.11719C28.0662 9.42188 28.1365 9.59766 28.406 9.97266C28.7928 10.4766 28.0545 11.0156 27.656 10.5234ZM30.4099 10.5234C30.0584 10.043 29.906 9.59766 29.906 9.11719C29.906 8.01562 30.7849 7.73438 30.7849 7.08984C30.7849 6.43359 29.906 6.16406 29.906 5.02734C29.906 4.55859 30.0584 4.11328 30.4099 3.64453C30.8201 3.15234 31.5701 3.67969 31.1717 4.19531C30.9021 4.55859 30.8318 4.75781 30.8318 5.02734C30.8318 5.82422 31.7224 6.04688 31.7224 7.08984C31.7224 8.12109 30.8318 8.35547 30.8318 9.11719C30.8318 9.42188 30.9021 9.59766 31.1717 9.97266C31.5584 10.4766 30.8084 11.0156 30.4099 10.5234ZM33.199 10.5234C32.824 10.043 32.6717 9.59766 32.6717 9.11719C32.6717 8.01562 33.5623 7.73438 33.5623 7.08984C33.5623 6.43359 32.6717 6.16406 32.6717 5.02734C32.6717 4.55859 32.824 4.11328 33.199 3.64453C33.5974 3.15234 34.3357 3.67969 33.9373 4.19531C33.6912 4.55859 33.6092 4.75781 33.6092 5.02734C33.6092 5.82422 34.4881 6.04688 34.4881 7.08984C34.4881 8.12109 33.6092 8.35547 33.6092 9.11719C33.6092 9.42188 33.6912 9.59766 33.9373 9.97266C34.324 10.4766 33.5974 11.0156 33.199 10.5234ZM15.4568 5.42578C14.6248 5.42578 14.2498 6.28125 14.8123 6.90234L17.5896 10.043C17.9764 10.4648 18.4685 10.4648 18.8553 10.043L21.6326 6.90234C22.1717 6.30469 21.867 5.42578 20.9881 5.42578ZM19.0896 0.867188C19.0896 0.375 18.7029 0 18.2342 0C17.742 0 17.367 0.375 17.367 0.867188L17.367 7.76953C17.367 8.26172 17.742 8.63672 18.2342 8.63672C18.7029 8.63672 19.0896 8.26172 19.0896 7.76953Z" fill="black" fill-opacity="0.85"/>
 </g>
</svg>
