<?xml version="1.0" encoding="UTF-8"?>
<!--Generator: Apple Native CoreSVG 360-->
<!DOCTYPE svg
PUBLIC "-//W3C//DTD SVG 1.1//EN"
       "http://www.w3.org/Graphics/SVG/1.1/DTD/svg11.dtd">
<svg version="1.1" xmlns="http://www.w3.org/2000/svg" xmlns:xlink="http://www.w3.org/1999/xlink" viewBox="0 0 27.0747 27.4805">
 <g>
  <rect height="27.4805" opacity="0" width="27.0747" x="0" y="0"/>
  <path d="M5.28733 8.21484C3.52952 8.21484 2.12327 6.75 2.12327 5.05078C2.12327 3.28125 3.52952 1.85156 5.28733 1.85156C7.05686 1.85156 8.47483 3.28125 8.47483 5.05078C8.47483 6.79688 7.05686 8.21484 5.28733 8.21484ZM24.1662 24.9844C23.5569 25.6172 22.5139 25.5703 21.7756 24.7969L16.7248 19.5938C16.5608 19.418 16.4436 19.3711 16.1858 19.4766L12.2483 20.9648C9.71702 21.9375 7.33811 21.1055 6.22483 19.0898L3.69358 14.4844C2.70921 12.6914 3.02561 10.8398 4.72483 9.92578C6.3889 9.02344 8.09983 9.70312 9.09593 11.543L12.3889 17.5312L15.178 16.5117C16.5608 16.0078 17.7209 16.1719 18.8225 17.3203L24.0608 22.7344C24.7873 23.4844 24.717 24.4219 24.1662 24.9844Z" fill="black" fill-opacity="0.85"/>
  <path d="M26.1701 4.79297C27.0373 4.79297 27.342 3.9375 26.8147 3.35156L24.0959 0.316406C23.7326-0.105469 23.2287-0.105469 22.8655 0.316406L20.1819 3.35156C19.6194 3.97266 19.9826 4.80469 20.8147 4.80469ZM22.6428 7.33594C22.6428 7.81641 23.0178 8.20312 23.4983 8.20312C23.967 8.20312 24.3537 7.81641 24.3537 7.33594L24.3537 2.78906C24.3537 2.30859 23.967 1.92188 23.4983 1.92188C23.0178 1.92188 22.6428 2.30859 22.6428 2.78906ZM17.592 6.49219C17.592 5.63672 16.7248 5.33203 16.1389 5.85938L13.1037 8.56641C12.6819 8.92969 12.6936 9.42188 13.1037 9.79688L16.1389 12.4922C16.7483 13.0547 17.592 12.6797 17.592 11.8594ZM20.5803 10.0312C21.0842 10.0312 21.4592 9.65625 21.4592 9.16406C21.4592 8.69531 21.0842 8.30859 20.5803 8.30859L15.5764 8.30859C15.0842 8.30859 14.7092 8.69531 14.7092 9.16406C14.7092 9.65625 15.0842 10.0312 15.5764 10.0312ZM26.1701 13.5586L20.8147 13.5469C19.9826 13.5469 19.6194 14.3789 20.1819 14.9883L22.8655 18.0352C23.2287 18.4453 23.7326 18.457 24.0959 18.0352L26.8147 14.9883C27.342 14.4141 27.0373 13.5586 26.1701 13.5586ZM24.3537 11.0156C24.3537 10.5352 23.967 10.1484 23.4983 10.1484C23.0178 10.1484 22.6428 10.5352 22.6428 11.0156L22.6428 15.5625C22.6428 16.043 23.0178 16.4297 23.4983 16.4297C23.967 16.4297 24.3537 16.043 24.3537 15.5625Z" fill="black" fill-opacity="0.85"/>
 </g>
</svg>
