<?xml version="1.0" encoding="UTF-8"?>
<!--Generator: Apple Native CoreSVG 360-->
<!DOCTYPE svg
PUBLIC "-//W3C//DTD SVG 1.1//EN"
       "http://www.w3.org/Graphics/SVG/1.1/DTD/svg11.dtd">
<svg version="1.1" xmlns="http://www.w3.org/2000/svg" xmlns:xlink="http://www.w3.org/1999/xlink" viewBox="0 0 37.4761 24.3955">
 <g>
  <rect height="24.3955" opacity="0" width="37.4761" x="0" y="0"/>
  <path d="M6.1287 6.67238C4.37089 6.67238 2.96464 5.20753 2.96464 3.50832C2.96464 1.73878 4.37089 0.309097 6.1287 0.309097C7.89823 0.309097 9.3162 1.73878 9.3162 3.50832C9.3162 5.25441 7.89823 6.67238 6.1287 6.67238ZM25.0076 23.4419C24.3982 24.0747 23.3553 24.0278 22.617 23.2544L17.5662 18.0513C17.4021 17.8755 17.2849 17.8286 17.0271 17.9341L13.0896 19.4224C10.5584 20.395 8.17948 19.563 7.0662 17.5474L4.53495 12.9419C3.55057 11.1489 3.86698 9.29738 5.5662 8.38332C7.23026 7.48097 8.9412 8.16066 9.93729 10.0005L13.2303 15.9888L16.0193 14.9693C17.4021 14.4653 18.5623 14.6294 19.6639 15.7778L24.9021 21.1919C25.6287 21.9419 25.5584 22.8794 25.0076 23.4419Z" fill="black" fill-opacity="0.85"/>
  <path d="M24.3514 4.08253L27.5271 8.14894C27.6795 8.33644 27.8904 8.3716 28.1014 8.25441C28.8631 7.85597 29.9412 7.58644 30.7967 7.58644C31.6639 7.58644 32.7654 7.85597 33.5037 8.25441C33.7146 8.3716 33.949 8.33644 34.0779 8.14894L37.2771 4.08253C37.5818 3.67238 37.5349 3.26222 37.1482 2.95753C35.8474 1.96144 33.3982 1.19972 30.7967 1.19972C28.2303 1.19972 25.7576 1.96144 24.4685 2.95753C24.0818 3.26222 24.0349 3.67238 24.3514 4.08253ZM27.656 10.5278C27.2928 10.0474 27.1404 9.60207 27.1404 9.1216C27.1404 8.02003 28.031 7.73878 28.031 7.09425C28.031 6.438 27.1404 6.16847 27.1404 5.03175C27.1404 4.563 27.2928 4.11769 27.656 3.64894C28.0662 3.15675 28.8045 3.6841 28.406 4.19972C28.1365 4.563 28.0662 4.76222 28.0662 5.03175C28.0662 5.82863 28.9568 6.05128 28.9568 7.09425C28.9568 8.1255 28.0662 8.35988 28.0662 9.1216C28.0662 9.42628 28.1365 9.60207 28.406 9.97707C28.7928 10.481 28.0545 11.02 27.656 10.5278ZM30.4099 10.5278C30.0584 10.0474 29.906 9.60207 29.906 9.1216C29.906 8.02003 30.7849 7.73878 30.7849 7.09425C30.7849 6.438 29.906 6.16847 29.906 5.03175C29.906 4.563 30.0584 4.11769 30.4099 3.64894C30.8201 3.15675 31.5701 3.6841 31.1717 4.19972C30.9021 4.563 30.8318 4.76222 30.8318 5.03175C30.8318 5.82863 31.7224 6.05128 31.7224 7.09425C31.7224 8.1255 30.8318 8.35988 30.8318 9.1216C30.8318 9.42628 30.9021 9.60207 31.1717 9.97707C31.5584 10.481 30.8084 11.02 30.4099 10.5278ZM33.199 10.5278C32.824 10.0474 32.6717 9.60207 32.6717 9.1216C32.6717 8.02003 33.5623 7.73878 33.5623 7.09425C33.5623 6.438 32.6717 6.16847 32.6717 5.03175C32.6717 4.563 32.824 4.11769 33.199 3.64894C33.5974 3.15675 34.3357 3.6841 33.9373 4.19972C33.6912 4.563 33.6092 4.76222 33.6092 5.03175C33.6092 5.82863 34.4881 6.05128 34.4881 7.09425C34.4881 8.1255 33.6092 8.35988 33.6092 9.1216C33.6092 9.42628 33.6912 9.60207 33.9373 9.97707C34.324 10.481 33.5974 11.02 33.199 10.5278ZM15.4568 4.92628L20.9881 4.92628C21.867 4.92628 22.1717 4.0591 21.6326 3.46144L18.8553 0.320816C18.4685-0.112778 17.9764-0.101059 17.5896 0.320816L14.8123 3.46144C14.2498 4.08253 14.6248 4.92628 15.4568 4.92628ZM19.0896 9.4966L19.0896 2.59425C19.0896 2.10207 18.7029 1.71535 18.2342 1.71535C17.742 1.71535 17.367 2.10207 17.367 2.59425L17.367 9.4966C17.367 9.98878 17.742 10.3638 18.2342 10.3638C18.7029 10.3638 19.0896 9.98878 19.0896 9.4966Z" fill="black" fill-opacity="0.85"/>
 </g>
</svg>
