<?xml version="1.0" encoding="UTF-8"?>
<!--Generator: Apple Native CoreSVG 360-->
<!DOCTYPE svg
PUBLIC "-//W3C//DTD SVG 1.1//EN"
       "http://www.w3.org/Graphics/SVG/1.1/DTD/svg11.dtd">
<svg version="1.1" xmlns="http://www.w3.org/2000/svg" xmlns:xlink="http://www.w3.org/1999/xlink" viewBox="0 0 38.1869 23.7773">
 <g>
  <rect height="23.7773" opacity="0" width="38.1869" x="0" y="0"/>
  <path d="M31.3512 6.36328C33.1091 6.36328 34.5153 4.89844 34.5153 3.19922C34.5153 1.42969 33.1091 0 31.3512 0C29.5817 0 28.1637 1.42969 28.1637 3.19922C28.1637 4.94531 29.5817 6.36328 31.3512 6.36328ZM12.4723 23.1328C13.0817 23.7656 14.1247 23.7188 14.863 22.9453L19.9137 17.7422C20.0778 17.5664 20.195 17.5195 20.4528 17.625L24.3903 19.1133C26.9216 20.0859 29.3005 19.2539 30.4137 17.2383L32.945 12.6328C33.9294 10.8398 33.613 8.98828 31.9137 8.07422C30.2497 7.17188 28.5387 7.85156 27.5427 9.69141L24.2497 15.6797L21.4606 14.6602C20.0661 14.1562 18.9177 14.3203 17.8161 15.4688L12.5778 20.8828C11.8512 21.6328 11.9216 22.5703 12.4723 23.1328Z" fill="black" fill-opacity="0.85"/>
  <path d="M0.202812 3.77344L3.39031 7.83984C3.53094 8.02734 3.75359 8.0625 3.95281 7.94531C4.71453 7.54688 5.80437 7.27734 6.65984 7.27734C7.52703 7.27734 8.61687 7.54688 9.35516 7.94531C9.57781 8.0625 9.80047 8.02734 9.92937 7.83984L13.1286 3.77344C13.445 3.36328 13.3864 2.95312 13.0114 2.64844C11.7106 1.65234 9.24969 0.890625 6.65984 0.890625C4.08172 0.890625 1.62078 1.65234 0.331719 2.64844C-0.066719 2.95312-0.101875 3.36328 0.202812 3.77344ZM3.5075 10.2188C3.14422 9.73828 2.99187 9.29297 2.99187 8.8125C2.99187 7.71094 3.8825 7.42969 3.8825 6.78516C3.8825 6.12891 2.99187 5.85938 2.99187 4.72266C2.99187 4.25391 3.14422 3.80859 3.5075 3.33984C3.91766 2.84766 4.65594 3.375 4.2575 3.89062C3.99969 4.25391 3.92937 4.45312 3.92937 4.72266C3.92937 5.51953 4.80828 5.74219 4.80828 6.78516C4.80828 7.81641 3.92937 8.05078 3.92937 8.8125C3.92937 9.11719 3.99969 9.29297 4.2575 9.66797C4.64422 10.1719 3.91766 10.7109 3.5075 10.2188ZM6.26141 10.2188C5.90984 9.75 5.7575 9.29297 5.7575 8.8125C5.7575 7.71094 6.64812 7.42969 6.64812 6.78516C6.64812 6.12891 5.7575 5.85938 5.7575 4.72266C5.7575 4.25391 5.90984 3.80859 6.26141 3.33984C6.67156 2.84766 7.42156 3.375 7.03484 3.89062C6.76531 4.25391 6.695 4.45312 6.695 4.72266C6.695 5.51953 7.58562 5.74219 7.58562 6.78516C7.58562 7.81641 6.695 8.05078 6.695 8.8125C6.695 9.11719 6.76531 9.29297 7.02312 9.66797C7.40984 10.1719 6.67156 10.7109 6.26141 10.2188ZM9.05047 10.2188C8.67547 9.75 8.52312 9.29297 8.52312 8.8125C8.52312 7.71094 9.42547 7.42969 9.42547 6.78516C9.42547 6.12891 8.52312 5.85938 8.52312 4.72266C8.52312 4.25391 8.67547 3.80859 9.06219 3.33984C9.46062 2.84766 10.1872 3.375 9.80047 3.89062C9.54266 4.25391 9.46062 4.45312 9.46062 4.72266C9.46062 5.51953 10.3512 5.74219 10.3512 6.78516C10.3512 7.81641 9.46062 8.05078 9.46062 8.8125C9.46062 9.11719 9.54266 9.29297 9.78875 9.66797C10.1872 10.1719 9.44891 10.7109 9.05047 10.2188ZM18.2848 5.37891L23.6169 5.37891C24.027 5.37891 24.3552 5.0625 24.3669 4.61719C24.3669 4.21875 24.027 3.87891 23.6169 3.87891L18.2848 3.87891C17.8747 3.87891 17.5466 4.21875 17.5466 4.61719C17.5466 5.0625 17.8864 5.37891 18.2848 5.37891ZM21.4723 2.25L21.4723 7.00781C21.4723 7.73438 22.2223 8.05078 22.7614 7.55859L25.4333 5.17969C25.82 4.85156 25.7966 4.41797 25.4333 4.10156L22.7614 1.69922C22.2458 1.23047 21.4723 1.51172 21.4723 2.25ZM14.6169 6.59766L14.6169 11.9648C14.6169 12.3984 14.9333 12.7266 15.3552 12.7266C15.7536 12.7031 16.1052 12.3867 16.1052 11.9648L16.1052 6.59766C16.1052 6.17578 15.7536 5.84766 15.3552 5.83594C14.9333 5.83594 14.6169 6.16406 14.6169 6.59766ZM17.7458 9.77344L12.988 9.77344C12.2028 9.77344 11.945 10.5352 12.4137 11.0508L14.8278 13.7344C15.1677 14.0859 15.5895 14.1211 15.9177 13.7461L18.2848 11.0273C18.7536 10.4883 18.4723 9.77344 17.7458 9.77344Z" fill="black" fill-opacity="0.85"/>
 </g>
</svg>
