<?xml version="1.0" encoding="UTF-8"?>
<!--Generator: Apple Native CoreSVG 360-->
<!DOCTYPE svg
PUBLIC "-//W3C//DTD SVG 1.1//EN"
       "http://www.w3.org/Graphics/SVG/1.1/DTD/svg11.dtd">
<svg version="1.1" xmlns="http://www.w3.org/2000/svg" xmlns:xlink="http://www.w3.org/1999/xlink" viewBox="0 0 20.707 25.8867">
 <g>
  <rect height="25.8867" opacity="0" width="20.707" x="0" y="0"/>
  <path d="M10.1719 5.09766C11.5898 5.09766 12.7266 3.96094 12.7266 2.55469C12.7266 1.13672 11.5898 0 10.1719 0C8.75391 0 7.61719 1.13672 7.61719 2.55469C7.61719 3.96094 8.75391 5.09766 10.1719 5.09766ZM10.1719 16.1016C10.6641 16.1016 10.875 16.4062 11.1328 17.2734C11.5078 18.4336 12.75 23.3555 13.1016 24.8086C13.2656 25.5352 13.6641 25.8398 14.2148 25.8398C14.9648 25.8398 15.4102 25.1602 15.2109 24.4219C15.1289 24.1055 13.418 17.0039 13.1953 15.5391C12.9727 14.0391 12.9609 10.7695 12.9609 9.76172C12.9609 9.05859 13.2891 8.61328 13.8633 8.48438C14.4141 8.35547 18.8906 7.875 19.5 7.67578C20.0039 7.52344 20.3555 7.11328 20.3555 6.57422C20.3555 5.89453 19.8398 5.48438 19.3594 5.48438C19.1602 5.48438 18.9727 5.53125 18.7617 5.57812C16.9336 5.90625 12.9844 6.32812 10.1719 6.32812C7.38281 6.32812 3.41016 5.92969 1.58203 5.57812C1.38281 5.53125 1.18359 5.48438 0.996094 5.48438C0.492188 5.48438 0 5.89453 0 6.57422C0 7.11328 0.328125 7.57031 0.84375 7.67578C1.48828 7.81641 5.92969 8.37891 6.48047 8.48438C7.05469 8.58984 7.39453 9.05859 7.40625 9.76172C7.41797 10.7695 7.38281 14.0391 7.14844 15.5391C6.91406 17.0039 5.21484 24.1055 5.13281 24.4219C4.92188 25.1602 5.37891 25.8398 6.12891 25.8398C6.67969 25.8398 7.05469 25.5352 7.25391 24.8086C7.65234 23.3672 8.83594 18.457 9.23438 17.2734C9.50391 16.4297 9.69141 16.1016 10.1719 16.1016Z" fill="black" fill-opacity="0.85"/>
 </g>
</svg>
