<?xml version="1.0" encoding="UTF-8"?>
<!--Generator: Apple Native CoreSVG 360-->
<!DOCTYPE svg
PUBLIC "-//W3C//DTD SVG 1.1//EN"
       "http://www.w3.org/Graphics/SVG/1.1/DTD/svg11.dtd">
<svg version="1.1" xmlns="http://www.w3.org/2000/svg" xmlns:xlink="http://www.w3.org/1999/xlink" viewBox="0 0 25.5469 29.6133">
 <g>
  <rect height="29.6133" opacity="0" width="25.5469" x="0" y="0"/>
  <path d="M18.5508 9.55078L18.5508 12.393C19.8943 12.5903 20.6016 13.5105 20.6016 15.1289L20.6016 23.2031C20.6016 25.0547 19.6875 25.9922 17.9648 25.9922L9.76172 25.9922L9.76172 24.2227L17.9062 24.2227C18.4102 24.2227 18.7031 23.9062 18.7031 23.332L18.7031 15C18.7031 14.4258 18.4102 14.1211 17.9062 14.1211L11.7796 14.1211C11.5241 13.4313 11.121 12.8346 10.5983 12.3516L16.6992 12.3516L16.6992 9.30469C16.6992 6.33984 14.7891 4.78125 12.5977 4.78125C11.0469 4.78125 9.64866 5.56179 8.96739 7.07258C8.60149 6.56127 8.10352 6.15239 7.52415 5.89479C8.59802 3.95694 10.5537 3.01172 12.5977 3.01172C15.668 3.01172 18.5508 5.14453 18.5508 9.55078Z" fill="black" fill-opacity="0.85"/>
  <path d="M4.78125 28.1367C5.30859 28.1367 5.71875 27.7148 5.71875 27.1875L5.71875 20.6367C5.71875 20.4492 5.88281 20.2969 6.05859 20.2969C6.22266 20.2969 6.375 20.4492 6.375 20.6367L6.375 27.1875C6.375 27.7148 6.79688 28.1367 7.32422 28.1367C7.86328 28.1367 8.27344 27.7148 8.27344 27.1875L8.27344 16.418C8.27344 16.2422 8.41406 16.1133 8.58984 16.1133C8.76562 16.1133 8.90625 16.2422 8.90625 16.418L8.90625 19.9336C8.90625 20.4258 9.28125 20.8125 9.76172 20.8125C10.2422 20.8125 10.6289 20.4258 10.6289 19.9336L10.6289 15.9727C10.6289 13.8164 9.04688 12.4102 6.75 12.4102L5.34375 12.4102C3.05859 12.4102 1.48828 13.8164 1.48828 15.9727L1.48828 19.9336C1.48828 20.4258 1.86328 20.8125 2.34375 20.8125C2.82422 20.8125 3.21094 20.4258 3.21094 19.9336L3.21094 16.418C3.21094 16.2422 3.33984 16.1133 3.52734 16.1133C3.69141 16.1133 3.83203 16.2422 3.83203 16.418L3.83203 27.1875C3.83203 27.7148 4.26562 28.1367 4.78125 28.1367ZM6.05859 11.2852C7.23047 11.2852 8.16797 10.3477 8.16797 9.1875C8.16797 8.00391 7.23047 7.06641 6.05859 7.06641C4.875 7.06641 3.9375 8.00391 3.9375 9.1875C3.9375 10.3477 4.875 11.2852 6.05859 11.2852Z" fill="black" fill-opacity="0.85"/>
 </g>
</svg>
