<?xml version="1.0" encoding="UTF-8"?>
<!--Generator: Apple Native CoreSVG 360-->
<!DOCTYPE svg
PUBLIC "-//W3C//DTD SVG 1.1//EN"
       "http://www.w3.org/Graphics/SVG/1.1/DTD/svg11.dtd">
<svg version="1.1" xmlns="http://www.w3.org/2000/svg" xmlns:xlink="http://www.w3.org/1999/xlink" viewBox="0 0 26.6836 35.0014">
 <g>
  <rect height="35.0014" opacity="0" width="26.6836" x="0" y="0"/>
  <path d="M5.08594 11.9753C3.32812 11.9753 1.92188 10.5105 1.92188 8.81125C1.92188 7.04172 3.32812 5.61203 5.08594 5.61203C6.85547 5.61203 8.27344 7.04172 8.27344 8.81125C8.27344 10.5573 6.85547 11.9753 5.08594 11.9753ZM23.9648 28.7448C23.3555 29.3777 22.3125 29.3308 21.5742 28.5573L16.5234 23.3542C16.3594 23.1784 16.2422 23.1316 15.9844 23.237L12.0469 24.7253C9.51562 25.698 7.13672 24.8659 6.02344 22.8503L3.49219 18.2448C2.50781 16.4519 2.82422 14.6003 4.52344 13.6863C6.1875 12.7839 7.89844 13.4636 8.89453 15.3034L12.1875 21.2917L14.9766 20.2722C16.3594 19.7683 17.5195 19.9323 18.6211 21.0808L23.8594 26.4948C24.5859 27.2448 24.5156 28.1823 23.9648 28.7448Z" fill="black" fill-opacity="0.85"/>
  <path d="M14.6953 1.04172C14.6953 0.0339077 13.6875-0.305936 13.0078 0.303439L9.45703 3.44406C8.97656 3.88938 8.97656 4.47531 9.45703 4.89719L13.0078 8.03781C13.7227 8.68235 14.6953 8.26047 14.6953 7.29953ZM13.1133 5.16672L15.5156 5.16672C16.6055 5.16672 17.0391 5.38938 17.7422 6.31516L20.918 10.4636C21.9375 11.7995 23.1094 12.2917 24.8906 12.2917L25.6758 12.2917C26.2266 12.2917 26.6836 11.8464 26.6836 11.2956C26.6836 10.7448 26.2266 10.2878 25.6758 10.2878L24.8906 10.2878C23.6133 10.2878 23.1211 10.0769 22.4883 9.23313L19.3477 5.08469C18.3164 3.72531 17.1797 3.16281 15.5156 3.16281L13.1133 3.16281C12.5625 3.16281 12.1055 3.60813 12.1055 4.15891C12.1055 4.70969 12.5625 5.16672 13.1133 5.16672Z" fill="black" fill-opacity="0.85"/>
 </g>
</svg>
