<?xml version="1.0" encoding="UTF-8"?>
<!--Generator: Apple Native CoreSVG 360-->
<!DOCTYPE svg
PUBLIC "-//W3C//DTD SVG 1.1//EN"
       "http://www.w3.org/Graphics/SVG/1.1/DTD/svg11.dtd">
<svg version="1.1" xmlns="http://www.w3.org/2000/svg" xmlns:xlink="http://www.w3.org/1999/xlink" viewBox="0 0 28.0898 19.3242">
 <g>
  <rect height="19.3242" opacity="0" width="28.0898" x="0" y="0"/>
  <path d="M0.65625 16.0781L1.83984 16.0781C4.96875 16.0781 5.68359 14.1562 7.85156 14.1562C10.0195 14.1562 10.7344 16.0781 13.8633 16.0781C17.0039 16.0781 17.707 14.1562 19.8867 14.1562C22.0547 14.1562 22.7578 16.0781 25.8984 16.0781L27.082 16.0781C27.4453 16.0781 27.7383 15.7969 27.7383 15.4336C27.7383 15.0703 27.4453 14.7773 27.082 14.7773L25.8984 14.7773C23.6484 14.7773 22.8867 12.8555 19.8867 12.8555C16.875 12.8555 16.1133 14.7773 13.8633 14.7773C11.6133 14.7773 10.8633 12.8555 7.85156 12.8555C4.85156 12.8555 4.08984 14.7773 1.83984 14.7773L0.65625 14.7773C0.28125 14.7773 0 15.0703 0 15.4336C0 15.7969 0.28125 16.0781 0.65625 16.0781ZM0.65625 19.3125L1.83984 19.3125C4.96875 19.3125 5.68359 17.3789 7.85156 17.3789C10.0195 17.3789 10.7344 19.3125 13.8633 19.3125C17.0039 19.3125 17.707 17.3789 19.8867 17.3789C22.0547 17.3789 22.7578 19.3125 25.8984 19.3125L27.082 19.3125C27.4453 19.3125 27.7383 19.0195 27.7383 18.6562C27.7383 18.293 27.4453 18.0117 27.082 18.0117L25.8984 18.0117C23.6484 18.0117 22.8867 16.0781 19.8867 16.0781C16.875 16.0781 16.1133 18.0117 13.8633 18.0117C11.6133 18.0117 10.8633 16.0781 7.85156 16.0781C4.85156 16.0781 4.08984 18.0117 1.83984 18.0117L0.65625 18.0117C0.28125 18.0117 0 18.293 0 18.6562C0 19.0195 0.28125 19.3125 0.65625 19.3125ZM10.0195 11.4844C11.3438 12.0469 12.0938 12.9844 13.8633 12.9844C15.9375 12.9844 16.5234 11.707 18.3633 11.2383L11.7422 4.37109C11.2266 3.82031 10.4414 3.75 9.82031 4.20703L5.21484 7.46484C4.42969 8.02734 4.5 8.85938 4.95703 9.36328C5.34375 9.78516 6.02344 9.94922 6.67969 9.49219L10.418 6.85547L12.5273 9.02344C12.7617 9.26953 12.832 9.63281 12.4688 9.87891ZM11.5781 0.65625C11.5781 1.01953 11.8594 1.30078 12.2227 1.30078C13.2891 1.30078 13.9219 1.5 14.6016 2.23828C14.8594 2.51953 15.1055 2.63672 15.375 2.63672C15.6445 2.63672 15.9023 2.51953 16.1484 2.23828C16.8281 1.5 17.4727 1.30078 18.5273 1.30078C18.8906 1.30078 19.1719 1.01953 19.1719 0.65625C19.1719 0.292969 18.8789 0 18.5156 0C17.2031 0 16.3359 0.304688 15.375 1.18359C14.4141 0.304688 13.5469 0 12.2344 0C11.8711 0 11.5781 0.292969 11.5781 0.65625ZM20.0508 9.82031C21.4688 9.82031 22.6055 8.67188 22.6055 7.25391C22.6055 5.83594 21.4688 4.69922 20.0508 4.69922C18.6328 4.69922 17.4844 5.83594 17.4844 7.25391C17.4844 8.67188 18.6328 9.82031 20.0508 9.82031Z" fill="black" fill-opacity="0.85"/>
 </g>
</svg>
