<?xml version="1.0" encoding="UTF-8"?>
<!--Generator: Apple Native CoreSVG 360-->
<!DOCTYPE svg
PUBLIC "-//W3C//DTD SVG 1.1//EN"
       "http://www.w3.org/Graphics/SVG/1.1/DTD/svg11.dtd">
<svg version="1.1" xmlns="http://www.w3.org/2000/svg" xmlns:xlink="http://www.w3.org/1999/xlink" viewBox="0 0 22.8281 23.7773">
 <g>
  <rect height="23.7773" opacity="0" width="22.8281" x="0" y="0"/>
  <path d="M3.15234 6.36328C1.40625 6.36328 0 4.89844 0 3.19922C0 1.42969 1.40625 0 3.15234 0C4.93359 0 6.33984 1.42969 6.33984 3.19922C6.33984 4.94531 4.93359 6.36328 3.15234 6.36328ZM22.043 23.1328C21.4336 23.7656 20.3906 23.7188 19.6406 22.9453L14.6016 17.7422C14.4375 17.5664 14.3203 17.5195 14.0625 17.625L10.125 19.1133C7.59375 20.0859 5.20312 19.2539 4.10156 17.2383L1.57031 12.6328C0.585938 10.8398 0.890625 8.98828 2.60156 8.07422C4.25391 7.17188 5.97656 7.85156 6.97266 9.69141L10.2539 15.6797L13.0547 14.6602C14.4375 14.1562 15.5977 14.3203 16.6992 15.4688L21.9375 20.8828C22.6641 21.6328 22.5938 22.5703 22.043 23.1328Z" fill="black" fill-opacity="0.85"/>
  <path d="M16.0781 10.4648L16.0781 4.19531C16.0781 3.1875 15.0703 2.84766 14.3906 3.45703L10.8398 6.60938C10.3477 7.04297 10.3594 7.62891 10.8398 8.05078L14.3906 11.1914C15.1055 11.8359 16.0781 11.4141 16.0781 10.4648ZM21.4688 6.31641L13.6055 6.31641C13.043 6.31641 12.6094 6.76172 12.6094 7.3125C12.6094 7.875 13.043 8.30859 13.6055 8.30859L21.4688 8.30859C22.0312 8.30859 22.4766 7.875 22.4766 7.3125C22.4766 6.76172 22.0312 6.31641 21.4688 6.31641Z" fill="black" fill-opacity="0.85"/>
 </g>
</svg>
