<?xml version="1.0" encoding="UTF-8"?>
<!--Generator: Apple Native CoreSVG 360-->
<!DOCTYPE svg
PUBLIC "-//W3C//DTD SVG 1.1//EN"
       "http://www.w3.org/Graphics/SVG/1.1/DTD/svg11.dtd">
<svg version="1.1" xmlns="http://www.w3.org/2000/svg" xmlns:xlink="http://www.w3.org/1999/xlink" viewBox="0 0 28.6523 25.957">
 <g>
  <rect height="25.957" opacity="0" width="28.6523" x="0" y="0"/>
  <path d="M15.5039 5.12109C16.9102 5.12109 18.0586 3.97266 18.0586 2.55469C18.0586 1.13672 16.9102 0 15.5039 0C14.0859 0 12.9375 1.13672 12.9375 2.55469C12.9375 3.97266 14.0859 5.12109 15.5039 5.12109ZM13.418 16.9453L13.418 21.6562C13.418 22.1367 13.6875 22.3828 14.168 22.3828L17.3672 22.3828C18.2109 22.3828 18.2227 21.1992 17.5078 20.9648L15.7734 20.4141L15.7734 15.8555C15.7734 15.3516 15.4453 14.9531 14.9766 14.7422L11.7539 13.2539L13.6289 9.53906C13.7227 9.32812 13.9336 9.26953 14.1328 9.38672L17.2969 11.4609L17.2969 15.8555C17.2969 16.5 17.8242 17.0273 18.4688 17.0273C19.1133 17.0273 19.6406 16.5 19.6406 15.8555L19.6406 10.7578C19.6406 10.3242 19.5234 10.125 19.125 9.82031L14.0859 6.02344C13.0078 5.20312 11.6719 5.01562 10.4062 5.53125L6.70312 7.04297C5.57812 7.5 5.76562 8.74219 6.66797 9.21094L8.0625 9.9375L7.30078 11.4727C6.25781 13.5352 7.04297 15.3398 9.1875 15.8789ZM7.23047 16.207L6.67969 17.8594L2.41406 17.8594C1.94531 17.8594 1.69922 18.1289 1.69922 18.6094L1.69922 21.8086C1.69922 22.6406 2.88281 22.6641 3.11719 21.9492L3.66797 20.2148L7.55859 20.2148C8.03906 20.2148 8.42578 19.9102 8.60156 19.5586L9.78516 17.2148L8.90625 16.9805C8.25 16.8164 7.6875 16.5586 7.23047 16.207ZM13.7109 24.082L18.293 24.082C18.5273 24.082 18.7266 23.8945 18.7266 23.6719C18.7266 23.4141 18.5273 23.2383 18.293 23.2383L13.7109 23.2383C13.4766 23.2383 13.3008 23.4141 13.3008 23.6719C13.3008 23.8945 13.4766 24.082 13.7109 24.082ZM0 18.1523L0 22.7344C0 22.9688 0.175781 23.168 0.410156 23.168C0.667969 23.168 0.832031 22.9688 0.832031 22.7344L0.832031 18.1523C0.832031 17.9062 0.667969 17.7422 0.410156 17.7422C0.175781 17.7422 0 17.9062 0 18.1523ZM24.1523 21.8438L27.668 21.8438C28.0078 21.8438 28.3008 21.5508 28.3008 21.1992L28.3008 20.6133C28.3008 20.25 28.0078 19.957 27.668 19.957L23.7656 19.957L11.5781 8.76562L10.418 9.42188L23.5664 21.5977C23.7891 21.8086 23.9297 21.8438 24.1523 21.8438ZM20.7891 25.043C20.7891 25.5469 21.6211 25.9453 22.6641 25.9453C23.7188 25.9453 24.5625 25.5469 24.5625 25.043L24.5625 24.0469C24.5625 23.5664 23.7188 23.1797 22.6641 23.1797C21.6211 23.1797 20.7891 23.5664 20.7891 24.0469Z" fill="black" fill-opacity="0.85"/>
 </g>
</svg>
