<?xml version="1.0" encoding="UTF-8"?>
<!--Generator: Apple Native CoreSVG 360-->
<!DOCTYPE svg
PUBLIC "-//W3C//DTD SVG 1.1//EN"
       "http://www.w3.org/Graphics/SVG/1.1/DTD/svg11.dtd">
<svg version="1.1" xmlns="http://www.w3.org/2000/svg" xmlns:xlink="http://www.w3.org/1999/xlink" viewBox="0 0 29.3086 23.7773">
 <g>
  <rect height="23.7773" opacity="0" width="29.3086" x="0" y="0"/>
  <path d="M6.29883 6.36328C4.54102 6.36328 3.13477 4.89844 3.13477 3.19922C3.13477 1.42969 4.54102 0 6.29883 0C8.06836 0 9.48633 1.42969 9.48633 3.19922C9.48633 4.94531 8.06836 6.36328 6.29883 6.36328ZM25.1777 23.1328C24.5684 23.7656 23.5254 23.7188 22.7871 22.9453L17.7363 17.7422C17.5723 17.5664 17.4551 17.5195 17.1973 17.625L13.2598 19.1133C10.7285 20.0859 8.34961 19.2539 7.23633 17.2383L4.70508 12.6328C3.7207 10.8398 4.03711 8.98828 5.73633 8.07422C7.40039 7.17188 9.11133 7.85156 10.1074 9.69141L13.4004 15.6797L16.1895 14.6602C17.5723 14.1562 18.7324 14.3203 19.834 15.4688L25.0723 20.8828C25.7988 21.6328 25.7285 22.5703 25.1777 23.1328Z" fill="black" fill-opacity="0.85"/>
  <path d="M18.5098 4.64062C18.5098 3.83203 17.666 3.45703 17.0566 4.00781L14.0215 6.71484C13.6113 7.08984 13.5996 7.57031 14.0215 7.94531L17.0566 10.6406C17.6426 11.1797 18.5098 10.875 18.5098 10.0078ZM23.0918 8.19141C23.584 8.19141 23.9707 7.81641 23.9707 7.34766C23.9707 6.85547 23.584 6.46875 23.0918 6.46875L16.8457 6.46875C16.3535 6.46875 15.9668 6.85547 15.9668 7.34766C15.9668 7.81641 16.3535 8.19141 16.8457 8.19141ZM27.7559 14.0859L23.9707 10.2891C23.3965 9.70312 22.541 10.043 22.5059 10.875L22.248 14.9297C22.2246 15.4805 22.5645 15.832 23.127 15.7969L27.1934 15.5625C27.9785 15.5156 28.3652 14.707 27.7559 14.0859ZM29.0566 10.2188C29.3965 9.87891 29.3848 9.32812 29.0684 9C28.7285 8.66016 28.1895 8.66016 27.8496 9L23.9941 12.8555C23.6543 13.1953 23.666 13.7461 23.9824 14.0742C24.3223 14.4141 24.8613 14.4141 25.2129 14.0742Z" fill="black" fill-opacity="0.85"/>
 </g>
</svg>
