<?xml version="1.0" encoding="UTF-8"?>
<!--Generator: Apple Native CoreSVG 360-->
<!DOCTYPE svg
PUBLIC "-//W3C//DTD SVG 1.1//EN"
       "http://www.w3.org/Graphics/SVG/1.1/DTD/svg11.dtd">
<svg version="1.1" xmlns="http://www.w3.org/2000/svg" xmlns:xlink="http://www.w3.org/1999/xlink" viewBox="0 0 33.2369 23.6133">
 <g>
  <rect height="23.6133" opacity="0" width="33.2369" x="0" y="0"/>
  <path d="M20.2395 5.96484L20.2395 8.54297C20.2395 9.24609 20.7551 9.76172 21.4466 9.76172L23.3801 9.76172C24.0833 9.76172 24.6223 9.24609 24.6223 8.54297L24.6223 5.96484C24.6223 5.26172 24.0833 4.73438 23.3801 4.73438L21.4466 4.73438C20.7551 4.73438 20.2395 5.26172 20.2395 5.96484ZM25.8294 5.96484L25.8294 8.54297C25.8294 9.24609 26.3333 9.76172 27.0598 9.76172L28.9817 9.76172C29.6848 9.76172 30.2122 9.24609 30.2122 8.54297L30.2122 5.96484C30.2122 5.26172 29.6848 4.73438 28.9817 4.73438L27.0598 4.73438C26.3333 4.73438 25.8294 5.26172 25.8294 5.96484ZM17.3216 12.668L17.3216 15.2461C17.3216 15.9492 17.8372 16.4531 18.5403 16.4531L20.4505 16.4531C21.1653 16.4531 21.6926 15.9492 21.6926 15.2461L21.6926 12.668C21.6926 11.9648 21.1653 11.4492 20.4505 11.4492L18.5403 11.4492C17.8372 11.4492 17.3216 11.9648 17.3216 12.668ZM22.9114 12.668L22.9114 15.2461C22.9114 15.9492 23.427 16.4531 24.1419 16.4531L26.0637 16.4531C26.7786 16.4531 27.2942 15.9492 27.2942 15.2461L27.2942 12.668C27.2942 11.9648 26.7786 11.4492 26.0637 11.4492L24.1419 11.4492C23.427 11.4492 22.9114 11.9648 22.9114 12.668ZM28.513 12.668L28.513 15.2461C28.513 15.9492 29.0286 16.4531 29.7434 16.4531L31.6653 16.4531C32.3684 16.4531 32.8841 15.9492 32.8841 15.2461L32.8841 12.668C32.8841 11.9648 32.3684 11.4492 31.6653 11.4492L29.7434 11.4492C29.0286 11.4492 28.513 11.9648 28.513 12.668ZM20.2395 19.3711L20.2395 21.9492C20.2395 22.6523 20.7551 23.168 21.4466 23.168L23.3801 23.168C24.0833 23.168 24.6223 22.6523 24.6223 21.9492L24.6223 19.3711C24.6223 18.668 24.0833 18.1523 23.3801 18.1523L21.4466 18.1523C20.7551 18.1523 20.2395 18.668 20.2395 19.3711ZM25.8294 19.3711L25.8294 21.9492C25.8294 22.6523 26.3333 23.168 27.0598 23.168L28.9817 23.168C29.6848 23.168 30.2122 22.6523 30.2122 21.9492L30.2122 19.3711C30.2122 18.668 29.6848 18.1523 28.9817 18.1523L27.0598 18.1523C26.3333 18.1523 25.8294 18.668 25.8294 19.3711ZM22.4426 8.44922C21.7747 8.44922 21.2122 7.89844 21.2122 7.23047C21.2122 6.58594 21.7747 6.03516 22.4426 6.03516C23.0872 6.03516 23.638 6.58594 23.638 7.23047C23.638 7.89844 23.0872 8.44922 22.4426 8.44922ZM28.0325 8.44922C27.3645 8.44922 26.802 7.91016 26.802 7.23047C26.802 6.58594 27.3645 6.03516 28.0325 6.03516C28.677 6.03516 29.2278 6.58594 29.2278 7.23047C29.2278 7.91016 28.677 8.44922 28.0325 8.44922ZM19.513 15.1523C18.8567 15.1523 18.2942 14.6133 18.2942 13.9336C18.2942 13.2891 18.8567 12.75 19.513 12.75C20.1692 12.75 20.72 13.2891 20.72 13.9336C20.72 14.6133 20.1692 15.1523 19.513 15.1523ZM25.1145 15.1523C24.4466 15.1523 23.8841 14.6133 23.8841 13.9336C23.8841 13.2891 24.4466 12.75 25.1145 12.75C25.7591 12.75 26.3098 13.2891 26.3098 13.9336C26.3098 14.6133 25.7591 15.1523 25.1145 15.1523ZM30.7044 15.1523C30.0481 15.1523 29.4856 14.6133 29.4856 13.9336C29.4856 13.2891 30.0481 12.75 30.7044 12.75C31.3489 12.75 31.9114 13.2891 31.9114 13.9336C31.9114 14.6133 31.3489 15.1523 30.7044 15.1523ZM22.4426 21.8672C21.7747 21.8672 21.2122 21.3164 21.2122 20.6484C21.2122 19.9922 21.7747 19.4531 22.4426 19.4531C23.0872 19.4531 23.638 19.9922 23.638 20.6484C23.638 21.3164 23.0872 21.8672 22.4426 21.8672ZM28.0325 21.8672C27.3645 21.8672 26.802 21.3164 26.802 20.6484C26.802 19.9922 27.3645 19.4531 28.0325 19.4531C28.677 19.4531 29.2278 19.9922 29.2278 20.6484C29.2278 21.3164 28.677 21.8672 28.0325 21.8672ZM22.7942 3.24609L27.4231 3.24609C27.7747 3.24609 27.845 2.87109 27.5755 2.68359L25.4661 1.25391C25.2317 1.10156 24.9856 1.10156 24.7512 1.25391L22.6419 2.68359C22.3723 2.87109 22.4426 3.24609 22.7942 3.24609Z" fill="black" fill-opacity="0.85"/>
  <path d="M6.79811 5.22656C8.23952 5.22656 9.37624 4.01953 9.37624 2.625C9.37624 1.18359 8.23952 0 6.79811 0C5.34499 0 4.19655 1.18359 4.19655 2.625C4.19655 4.04297 5.34499 5.22656 6.79811 5.22656ZM1.80593 14.918L9.23561 6.66797C8.52077 6.38672 7.70046 6.26953 6.79811 6.26953C3.44655 6.26953 1.46608 7.88672 1.46608 10.5938C1.46608 11.25 1.48952 12.1172 1.58327 13.0078ZM11.7903 14.918L12.0012 13.0078C12.1067 12.1172 12.1301 11.25 12.1301 10.5938C12.1301 9.25781 11.6614 8.17969 10.7473 7.45312L4.8528 14.0156C5.50905 13.9102 6.15358 13.8633 6.79811 13.8633C8.45046 13.8633 10.1145 14.0859 11.7903 14.918ZM3.93874 23.5547C4.61843 23.4609 5.06374 22.9688 4.98171 22.1133L4.51296 17.7891L9.07155 17.7891L8.61452 22.1133C8.52077 22.9688 8.9778 23.4609 9.65749 23.5547C10.3723 23.625 10.8997 23.1797 11.0051 22.3594L11.6145 16.6523C10.0911 15.7734 8.40358 15.4336 6.79811 15.4336C5.19264 15.4336 3.49343 15.7734 2.00514 16.6523L2.59108 22.3594C2.69655 23.1797 3.21218 23.625 3.93874 23.5547ZM10.7473 7.44141L12.9739 4.96875C13.3606 4.53516 13.3255 4.05469 12.9505 3.75C12.5989 3.43359 12.1301 3.42188 11.7317 3.87891L9.23561 6.66797C9.79811 6.87891 10.302 7.14844 10.7473 7.44141ZM0.36452 15.7852C-0.0573552 16.0898-0.0807927 16.582 0.130145 16.8984C0.329364 17.2383 0.751239 17.4023 1.20827 17.1328C1.4778 16.957 1.72389 16.8047 2.00514 16.6523L1.80593 14.918C1.27858 15.1523 0.798114 15.4219 0.36452 15.7852ZM13.2317 15.7852C12.7864 15.4219 12.3176 15.1523 11.7903 14.918L11.6028 16.6523C11.8606 16.8047 12.1184 16.957 12.388 17.1328C12.845 17.4023 13.2434 17.25 13.4544 16.9219C13.6653 16.5938 13.6653 16.1016 13.2317 15.7852Z" fill="black" fill-opacity="0.85"/>
 </g>
</svg>
