<?xml version="1.0" encoding="UTF-8"?>
<!--Generator: Apple Native CoreSVG 360-->
<!DOCTYPE svg
PUBLIC "-//W3C//DTD SVG 1.1//EN"
       "http://www.w3.org/Graphics/SVG/1.1/DTD/svg11.dtd">
<svg version="1.1" xmlns="http://www.w3.org/2000/svg" xmlns:xlink="http://www.w3.org/1999/xlink" viewBox="0 0 29.331 23.5898">
 <g>
  <rect height="23.5898" opacity="0" width="29.331" x="0" y="0"/>
  <path d="M17.3432 10.4414L17.3432 13.2891C17.3432 14.1094 17.9526 14.707 18.7729 14.707L21.0112 14.707C21.8315 14.707 22.4409 14.1094 22.4409 13.2891L22.4409 10.4414C22.4409 9.62109 21.8315 9.01172 21.0112 9.01172L18.7729 9.01172C17.9526 9.01172 17.3432 9.62109 17.3432 10.4414ZM23.894 10.4414L23.894 13.2891C23.894 14.1094 24.5034 14.707 25.312 14.707L27.5503 14.707C28.3706 14.707 28.9799 14.1094 28.9799 13.2891L28.9799 10.4414C28.9799 9.62109 28.3706 9.01172 27.5503 9.01172L25.312 9.01172C24.5034 9.01172 23.894 9.62109 23.894 10.4414ZM19.9096 13.043C19.2417 13.043 18.6792 12.5039 18.6792 11.8242C18.6792 11.168 19.2417 10.6172 19.9096 10.6172C20.5659 10.6172 21.1284 11.168 21.1284 11.8242C21.1284 12.5039 20.5659 13.043 19.9096 13.043ZM26.437 13.043C25.769 13.043 25.2065 12.5039 25.2065 11.8242C25.2065 11.168 25.769 10.6172 26.437 10.6172C27.0932 10.6172 27.6557 11.168 27.6557 11.8242C27.6557 12.5039 27.0932 13.043 26.437 13.043ZM20.8706 7.25391L25.4995 7.25391C25.851 7.25391 25.9096 6.87891 25.6401 6.70312L23.5424 5.26172C23.3081 5.10938 23.062 5.10938 22.8159 5.26172L20.7182 6.70312C20.4487 6.87891 20.519 7.25391 20.8706 7.25391Z" fill="black" fill-opacity="0.85"/>
  <path d="M6.79635 5.22656C8.23776 5.22656 9.38619 4.01953 9.38619 2.625C9.38619 1.18359 8.23776 0 6.79635 0C5.33151 0 4.20651 1.18359 4.20651 2.625C4.20651 4.04297 5.33151 5.22656 6.79635 5.22656ZM1.80416 14.918L9.23385 6.66797C8.50729 6.38672 7.69869 6.26953 6.79635 6.26953C3.43307 6.26953 1.46432 7.88672 1.46432 10.5938C1.46432 11.25 1.48776 12.1172 1.58151 13.0078ZM11.7768 14.918L11.9995 13.0078C12.0932 12.1172 12.1401 11.25 12.1401 10.5938C12.1401 9.25781 11.6596 8.17969 10.7456 7.45312L4.83932 14.0156C5.50729 13.9102 6.15182 13.8633 6.79635 13.8633C8.44869 13.8633 10.101 14.0859 11.7768 14.918ZM3.92526 23.5547C4.60494 23.4609 5.06198 22.9688 4.97994 22.1133L4.51119 17.7891L9.08151 17.7891L8.61276 22.1133C8.50729 22.9688 8.96432 23.4609 9.66744 23.5547C10.3706 23.625 10.9096 23.1797 10.9917 22.3594L11.601 16.6523C10.0893 15.7734 8.40182 15.4336 6.79635 15.4336C5.17916 15.4336 3.49166 15.7734 1.99166 16.6523L2.58932 22.3594C2.67135 23.1797 3.21041 23.625 3.92526 23.5547ZM10.7456 7.44141L12.9721 4.96875C13.3706 4.54688 13.3237 4.05469 12.937 3.75C12.5854 3.43359 12.1401 3.42188 11.7299 3.87891L9.23385 6.66797C9.78463 6.87891 10.3003 7.14844 10.7456 7.44141ZM0.351038 15.7852C-0.0591184 16.0898-0.0708371 16.582 0.116663 16.8984C0.3276 17.2383 0.737757 17.4023 1.20651 17.1328C1.47604 16.957 1.72213 16.8047 1.99166 16.6523L1.80416 14.918C1.27682 15.1523 0.808069 15.4219 0.351038 15.7852ZM13.2299 15.7852C12.7846 15.4219 12.3159 15.1523 11.7768 14.918L11.5893 16.6523C11.8706 16.8047 12.1049 16.957 12.3745 17.1328C12.8315 17.4023 13.2417 17.25 13.4526 16.9219C13.6635 16.5938 13.6635 16.1016 13.2299 15.7852Z" fill="black" fill-opacity="0.85"/>
 </g>
</svg>
