<?xml version="1.0" encoding="UTF-8"?>
<!--Generator: Apple Native CoreSVG 360-->
<!DOCTYPE svg
PUBLIC "-//W3C//DTD SVG 1.1//EN"
       "http://www.w3.org/Graphics/SVG/1.1/DTD/svg11.dtd">
<svg version="1.1" xmlns="http://www.w3.org/2000/svg" xmlns:xlink="http://www.w3.org/1999/xlink" viewBox="0 0 30.6636 27.5742">
 <g>
  <rect height="27.5742" opacity="0" width="30.6636" x="0" y="0"/>
  <path d="M12.8006 8.88281L14.6128 11.5486L13.7381 12.8438C13.6092 13.0195 13.4568 13.2305 13.3631 13.4414C13.327 13.5043 13.295 13.5688 13.2682 13.6349C12.6831 12.8179 11.9886 11.8358 11.5115 11.168C11.3943 11.0039 11.1834 11.0742 11.1834 11.2617C11.1834 12.4922 11.242 15.0938 11.4412 16.3828C11.6756 17.8477 13.3748 24.9492 13.4568 25.2656C13.6678 26.0039 13.2107 26.6836 12.4607 26.6836C11.9099 26.6836 11.5349 26.3789 11.3357 25.6523C10.9373 24.2109 9.75369 19.3008 9.35525 18.1172C9.08572 17.2734 8.89822 16.9453 8.41775 16.9453C7.93728 16.9453 7.74978 17.2734 7.48025 18.1172C7.08181 19.3008 5.89822 24.2109 5.49978 25.6523C5.30056 26.3789 4.92556 26.6836 4.37478 26.6836C3.62478 26.6836 3.16775 26.0039 3.37869 25.2656C3.46072 24.9492 5.15994 17.8477 5.40603 16.3828C5.60525 15.0938 5.65213 12.5039 5.65213 11.2734C5.65213 11.0742 5.42947 11.0156 5.324 11.168C4.4451 12.4102 2.83963 14.6953 2.52322 15.0703C2.17166 15.4688 1.60916 15.5391 1.15213 15.2812C0.55447 14.9648 0.413845 14.3203 0.659939 13.875C0.753689 13.6992 0.882595 13.5234 0.999783 13.3477L4.03494 8.88281C4.99588 7.46484 6.19119 6.83203 8.41775 6.83203C10.6443 6.83203 11.8396 7.46484 12.8006 8.88281ZM10.949 3.08203C10.949 4.48828 9.824 5.60156 8.41775 5.60156C7.0115 5.60156 5.8865 4.48828 5.8865 3.08203C5.8865 1.67578 7.0115 0.550781 8.41775 0.550781C9.824 0.550781 10.949 1.67578 10.949 3.08203Z" fill="black" fill-opacity="0.85"/>
  <path d="M21.8943 5.60156C23.3006 5.60156 24.4256 4.48828 24.4256 3.08203C24.4256 1.67578 23.3006 0.550781 21.8943 0.550781C20.4881 0.550781 19.3631 1.67578 19.3631 3.08203C19.3631 4.48828 20.4881 5.60156 21.8943 5.60156ZM21.8943 16.9453C22.3748 16.9453 22.5623 17.2734 22.8318 18.1172C23.2185 19.3008 24.4138 24.2109 24.8123 25.6523C25.0115 26.3789 25.3865 26.6836 25.9373 26.6836C26.6873 26.6836 27.1443 26.0039 26.9334 25.2656C26.8513 24.9492 25.1404 17.8477 24.906 16.3828C24.7068 15.0938 24.6599 12.4922 24.6599 11.2617C24.6599 11.0742 24.8709 11.0039 24.9881 11.168C25.867 12.3984 27.4724 14.6953 27.7888 15.0703C28.1404 15.4688 28.6912 15.5391 29.1599 15.2812C29.7576 14.9648 29.8982 14.3203 29.6521 13.875C29.5467 13.6992 29.4295 13.5234 29.3123 13.3477L26.2771 8.88281C25.3045 7.46484 24.1209 6.83203 21.8943 6.83203C19.6678 6.83203 18.4724 7.46484 17.5115 8.88281L14.4763 13.3477C14.3592 13.5234 14.2303 13.6992 14.1365 13.875C13.8904 14.3203 14.0193 14.9648 14.617 15.2812C15.0857 15.5391 15.6482 15.4688 15.9881 15.0703C16.3045 14.6953 17.9217 12.4102 18.8006 11.168C18.906 11.0156 19.1287 11.0742 19.1287 11.2734C19.1287 12.5039 19.0701 15.0938 18.8709 16.3828C18.6365 17.8477 16.9373 24.9492 16.8553 25.2656C16.6443 26.0039 17.1013 26.6836 17.8513 26.6836C18.4021 26.6836 18.7771 26.3789 18.9763 25.6523C19.3748 24.2109 20.5584 19.3008 20.9568 18.1172C21.2263 17.2734 21.4138 16.9453 21.8943 16.9453Z" fill="black" fill-opacity="0.85"/>
 </g>
</svg>
