<?xml version="1.0" encoding="UTF-8"?>
<!--Generator: Apple Native CoreSVG 360-->
<!DOCTYPE svg
PUBLIC "-//W3C//DTD SVG 1.1//EN"
       "http://www.w3.org/Graphics/SVG/1.1/DTD/svg11.dtd">
<svg version="1.1" xmlns="http://www.w3.org/2000/svg" xmlns:xlink="http://www.w3.org/1999/xlink" viewBox="0 0 35.5634 12.5039">
 <g>
  <rect height="12.5039" opacity="0" width="35.5634" x="0" y="0"/>
  <path d="M4.69772 5.10938C6.11569 5.10938 7.25241 3.97266 7.25241 2.55469C7.25241 1.14844 6.11569 0 4.69772 0C3.29147 0 2.15475 1.14844 2.15475 2.55469C2.15475 3.97266 3.29147 5.10938 4.69772 5.10938ZM12.3618 12.1758L15.7133 12.1758C18.4907 12.1758 19.2758 10.5938 19.0415 8.77734L18.268 2.625L24.2798 2.625C24.9594 2.625 25.4868 2.08594 25.4868 1.40625C25.4868 0.738281 24.9594 0.210938 24.2798 0.210938L16.7798 0.210938C16.0883 0.210938 15.561 0.691406 15.561 1.51172L15.561 7.72266L13.5571 7.72266C12.4907 7.72266 11.5883 7.33594 11.0727 6.51562C10.9555 6.32812 10.9555 6.04688 11.1782 5.78906L14.1899 2.21484C14.893 1.39453 14.3305 0.210938 13.311 0.210938L9.08053 0.210938C8.41257 0.210938 7.8735 0.738281 7.8735 1.40625C7.8735 2.09766 8.38913 2.625 9.08053 2.625L10.7915 2.625L9.03366 4.69922C7.77975 6.1875 6.66647 7.21875 4.79147 8.05078L2.96335 8.87109L3.53757 6.84375C3.72507 6.17578 3.29147 5.51953 2.67038 5.37891C2.01413 5.21484 1.35788 5.61328 1.19382 6.23438L0.0570973 10.6758C-0.259309 11.8711 0.795379 12.4805 1.83835 12.0234L5.6235 10.3477C6.01022 10.1953 6.23288 10.207 6.52585 10.4414C7.7446 11.4727 9.68991 12.1758 12.3618 12.1758ZM25.2993 9.45703L34.0063 9.45703C34.6743 9.45703 35.2133 8.91797 35.2133 8.23828C35.2133 7.57031 34.6743 7.03125 34.0063 7.03125L25.1821 7.03125C25.0883 7.03125 24.9712 7.03125 24.8423 7.04297L20.0141 7.44141L20.1782 8.61328C20.2602 9.30469 20.2485 9.9375 20.1079 10.5Z" fill="black" fill-opacity="0.85"/>
 </g>
</svg>
