<?xml version="1.0" encoding="UTF-8"?>
<!--Generator: Apple Native CoreSVG 360-->
<!DOCTYPE svg
PUBLIC "-//W3C//DTD SVG 1.1//EN"
       "http://www.w3.org/Graphics/SVG/1.1/DTD/svg11.dtd">
<svg version="1.1" xmlns="http://www.w3.org/2000/svg" xmlns:xlink="http://www.w3.org/1999/xlink" viewBox="0 0 31.6571 28.1367">
 <g>
  <rect height="28.1367" opacity="0" width="31.6571" x="0" y="0"/>
  <path d="M26.3051 6.78516C27.5824 6.78516 28.6137 5.74219 28.6137 4.46484C28.6137 3.17578 27.5824 2.15625 26.3051 2.15625C25.016 2.15625 23.9848 3.17578 23.9848 4.46484C23.9848 5.74219 25.016 6.78516 26.3051 6.78516ZM24.9106 25.8164C25.4848 25.8164 25.9418 25.3594 25.9418 24.7852L25.9418 17.2383C25.9418 17.0508 26.1059 16.8867 26.3051 16.8867C26.4926 16.8867 26.6567 17.0508 26.6567 17.2383L26.6567 24.7852C26.6567 25.3594 27.1137 25.8164 27.6996 25.8164C28.2739 25.8164 28.7309 25.3594 28.7309 24.7852L28.7309 12.3867C28.7309 12.1875 28.8832 12.0469 29.0707 12.0469C29.2582 12.0469 29.4106 12.1875 29.4106 12.3867L29.4106 16.4766C29.4106 17.0156 29.8324 17.4375 30.3715 17.4375C30.8871 17.4375 31.309 17.0156 31.309 16.4766L31.309 11.9062C31.309 9.5625 29.5864 8.00391 27.0668 8.00391L25.5317 8.00391C23.0121 8.00391 21.2895 9.5625 21.2895 11.9062L21.2895 16.4766C21.2895 17.0156 21.7114 17.4375 22.2387 17.4375C22.7543 17.4375 23.1762 17.0156 23.1762 16.4766L23.1762 12.3867C23.1762 12.1875 23.3285 12.0469 23.516 12.0469C23.7153 12.0469 23.8676 12.1875 23.8676 12.3867L23.8676 24.7852C23.8676 25.3594 24.3364 25.8164 24.9106 25.8164Z" fill="black" fill-opacity="0.85"/>
  <path d="M16.6371 28.125C17.1645 28.125 17.5746 27.7383 17.5746 27.2109L17.5746 0.914062C17.5746 0.386719 17.1645 0 16.6371 0C16.1098 0 15.6996 0.386719 15.6996 0.914062L15.6996 27.2109C15.6996 27.7383 16.1098 28.125 16.6371 28.125Z" fill="black" fill-opacity="0.85"/>
  <path d="M6.34807 6.78516C7.63713 6.78516 8.65667 5.74219 8.65667 4.46484C8.65667 3.17578 7.63713 2.15625 6.34807 2.15625C5.07073 2.15625 4.03948 3.17578 4.03948 4.46484C4.03948 5.74219 5.07073 6.78516 6.34807 6.78516ZM4.96526 25.8164C5.53948 25.8164 5.98479 25.3594 5.98479 24.7852L5.98479 20.2031C5.98479 20.0039 6.16057 19.8516 6.34807 19.8516C6.53557 19.8516 6.69963 20.0039 6.69963 20.2031L6.69963 24.7852C6.69963 25.3594 7.15667 25.8164 7.73088 25.8164C8.3051 25.8164 8.77385 25.3594 8.77385 24.7852L8.77385 20.2031L10.2035 20.2031C10.7778 20.2031 11.0356 19.7109 10.8481 19.1484L8.71526 12.5273C8.5512 12.0234 9.21917 11.8242 9.39495 12.3398L10.7309 16.3828C11.1645 17.6953 13.0746 17.1797 12.6293 15.8438L11.3989 12.1172C10.5434 9.53906 9.72307 7.99219 6.69963 7.99219L5.98479 7.99219C2.96135 7.99219 2.15276 9.53906 1.29729 12.1172L0.0668216 15.8438C-0.378491 17.1797 1.53167 17.6953 1.96526 16.3828L3.3012 12.3398C3.47698 11.8242 4.13323 12.0234 3.98088 12.5273L1.83635 19.1484C1.66057 19.7109 1.90667 20.2031 2.4926 20.2031L3.92229 20.2031L3.92229 24.7852C3.92229 25.3594 4.37932 25.8164 4.96526 25.8164Z" fill="black" fill-opacity="0.85"/>
 </g>
</svg>
