<?xml version="1.0" encoding="UTF-8"?>
<!--Generator: Apple Native CoreSVG 360-->
<!DOCTYPE svg
PUBLIC "-//W3C//DTD SVG 1.1//EN"
       "http://www.w3.org/Graphics/SVG/1.1/DTD/svg11.dtd">
<svg version="1.1" xmlns="http://www.w3.org/2000/svg" xmlns:xlink="http://www.w3.org/1999/xlink" viewBox="0 0 28.6406 26.4961">
 <g>
  <rect height="26.4961" opacity="0" width="28.6406" x="0" y="0"/>
  <path d="M14.1211 4.72266C15.4336 4.72266 16.5 3.67969 16.5 2.37891C16.5 1.05469 15.4336 0 14.1211 0C12.8203 0 11.7656 1.05469 11.7656 2.37891C11.7656 3.67969 12.8203 4.72266 14.1211 4.72266ZM10.4297 14.1797L14.5664 16.5L11.9062 18.7969C11.3203 19.3008 11.3438 19.9336 11.6719 20.3203C12.0469 20.7188 12.6914 20.8125 13.2773 20.3086L17.0156 17.1211C17.5312 16.6758 17.4492 15.7617 16.8281 15.3516L12.7734 12.6797L13.5703 9.87891C13.6875 9.48047 14.1445 9.41016 14.3906 9.77344L15.5742 11.5078C15.8555 11.9297 16.3594 12.0586 16.8281 11.8594L20.2734 10.3242C20.8828 10.0547 21.1055 9.52734 20.8359 8.97656C20.5898 8.42578 20.0508 8.26172 19.4414 8.54297L16.7227 9.73828L14.8477 7.14844C13.8633 5.8125 12.6562 5.25 10.6758 5.39062L6.84375 5.67188C6.23438 5.71875 5.83594 6.11719 5.75391 6.73828L5.23828 10.5938C5.15625 11.2734 5.47266 11.7422 6.08203 11.8125C6.69141 11.8594 7.05469 11.5078 7.14844 10.8398L7.62891 7.6875L9.16406 7.57031C9.49219 7.54688 9.83203 7.78125 9.71484 8.20312L8.82422 11.3086C8.29688 13.125 9.48047 13.6523 10.4297 14.1797ZM3.16406 23.5195C3.57422 23.8828 4.18359 23.9297 4.73438 23.3906L8.26172 19.8984C8.55469 19.6172 8.61328 19.5469 8.78906 19.0898L10.2305 15.3633L9.86719 15.1523C9.14062 14.7422 8.54297 14.3555 8.10938 13.8047L6.84375 18.2578L3.1875 21.8906C2.61328 22.4648 2.71875 23.1445 3.16406 23.5195ZM21.5742 13.1367C21.7031 13.4414 22.1016 13.5938 22.4531 13.4297L27.9141 10.8867C28.2422 10.7227 28.3828 10.3359 28.2305 9.99609C28.0898 9.69141 27.7031 9.55078 27.3516 9.71484L21.8906 12.2578C21.5625 12.4219 21.4102 12.8086 21.5742 13.1367ZM22.1719 22.8164L23.2383 22.7461C23.3555 22.7461 23.4141 22.7344 23.4961 22.7461L25.4883 11.3672L24.0703 12ZM0.609375 26.4844L23.6719 26.4844C24.3984 26.4844 24.9727 25.9102 24.9727 25.1602C24.9727 24.3047 24.3164 23.8242 23.4141 23.8828L0.609375 25.2422C0.269531 25.2773 0 25.5234 0 25.875C0 26.2148 0.269531 26.4844 0.609375 26.4844Z" fill="black" fill-opacity="0.85"/>
 </g>
</svg>
