<?xml version="1.0" encoding="UTF-8"?>
<!--Generator: Apple Native CoreSVG 360-->
<!DOCTYPE svg
PUBLIC "-//W3C//DTD SVG 1.1//EN"
       "http://www.w3.org/Graphics/SVG/1.1/DTD/svg11.dtd">
<svg version="1.1" xmlns="http://www.w3.org/2000/svg" xmlns:xlink="http://www.w3.org/1999/xlink" viewBox="0 0 17.0164 27.2461">
 <g>
  <rect height="27.2461" opacity="0" width="17.0164" x="0" y="0"/>
  <path d="M8.30898 5.15625C9.73867 5.15625 10.8871 4.00781 10.8871 2.57812C10.8871 1.14844 9.73867 0 8.30898 0C6.87929 0 5.73085 1.14844 5.73085 2.57812C5.73085 4.00781 6.87929 5.15625 8.30898 5.15625ZM2.74257 14.3672L4.52382 14.3672C5.48476 14.3672 6.21132 13.6641 6.21132 12.75L6.21132 6.28125C6.21132 5.37891 5.48476 4.66406 4.52382 4.66406L3.30507 4.66406C1.93398 4.66406 1.12539 5.48438 1.12539 6.86719L1.12539 12.75C1.12539 13.7109 1.79335 14.3672 2.74257 14.3672ZM2.09804 26.3555L5.39101 22.4531C5.76601 21.9961 5.89492 21.7852 6.15273 21.2344L8.23867 16.7461C8.93007 15.2578 9.04726 14.4141 9.15273 12.9023L9.29335 11.0039L11.1332 12.75C11.5551 13.1484 11.8832 13.2773 12.6098 13.2773L15.434 13.2773C16.1723 13.2773 16.6644 12.8555 16.6644 12.1641C16.6644 11.5078 16.1605 11.0742 15.434 11.0742L12.4223 11.0742L8.8246 7.16016C8.28554 6.57422 7.58242 6.24609 6.75039 6.24609C6.00039 6.24609 5.39101 6.46875 4.79335 6.86719L4.26601 13.9336C4.17226 15.0352 4.34804 15.668 4.89882 16.4766L3.80898 20.6719L0.375386 24.7266C-0.819926 26.1562 1.1371 27.5039 2.09804 26.3555ZM13.0668 24.8906L10.6762 20.0625C10.4769 19.6641 10.2191 19.2422 9.98476 18.9023L9.0707 17.6367L7.86367 20.2266C8.1332 20.5898 8.2621 20.7891 8.36757 21.0117L10.8285 25.9805C11.5902 27.5391 13.8871 26.5664 13.0668 24.8906ZM15.434 7.60547C15.0941 7.60547 14.8246 7.875 14.8246 8.21484L14.8246 9.9375L15.434 9.9375C15.5863 9.9375 15.7855 9.96094 16.0434 10.0078L16.0434 8.21484C16.0434 7.875 15.7738 7.60547 15.434 7.60547ZM15.4223 26.7773C15.7621 26.7773 16.0434 26.4961 16.0434 26.1562L16.0434 14.3438C15.8207 14.3906 15.6098 14.4141 15.434 14.4141L14.8246 14.4141L14.8246 26.1562C14.8246 26.4961 15.0824 26.7773 15.4223 26.7773Z" fill="black" fill-opacity="0.85"/>
 </g>
</svg>
