<?xml version="1.0" encoding="UTF-8"?>
<!--Generator: Apple Native CoreSVG 360-->
<!DOCTYPE svg
PUBLIC "-//W3C//DTD SVG 1.1//EN"
       "http://www.w3.org/Graphics/SVG/1.1/DTD/svg11.dtd">
<svg version="1.1" xmlns="http://www.w3.org/2000/svg" xmlns:xlink="http://www.w3.org/1999/xlink" viewBox="0 0 31.0667 23.9414">
 <g>
  <rect height="23.9414" opacity="0" width="31.0667" x="0" y="0"/>
  <path d="M19.3009 6.5625C21.0588 6.5625 22.465 5.09766 22.465 3.39844C22.465 1.62891 21.0588 0.1875 19.3009 0.1875C17.5314 0.1875 16.1134 1.62891 16.1134 3.39844C16.1134 5.13281 17.5314 6.5625 19.3009 6.5625ZM17.2619 18.7031C17.7775 18.293 18.2697 17.6016 18.7384 16.7344L20.8947 12.8203C21.8908 11.0156 21.5627 9.17578 19.8634 8.26172C18.1994 7.34766 16.5002 8.05078 15.4924 9.87891L13.2658 13.8984ZM0.422038 23.3086C1.03141 23.9531 2.07438 23.8945 2.82438 23.1328L7.86344 17.9297C8.03923 17.7539 8.14469 17.707 8.40251 17.8125L12.6564 19.418C13.5822 19.7695 14.59 19.6992 15.3283 19.5586L12.3986 15.9375L9.41032 14.8477C8.02751 14.3438 6.87907 14.5078 5.76579 15.6562L0.527507 21.0703C-0.187337 21.8203-0.128743 22.7578 0.422038 23.3086ZM19.7931 23.4492C20.2736 23.0742 20.3088 22.4883 19.8517 21.9375L17.2619 18.7031C16.6642 19.125 16.008 19.418 15.3283 19.5586L18.3166 23.2266C18.7502 23.7539 19.3009 23.8594 19.7931 23.4492Z" fill="black" fill-opacity="0.85"/>
  <path d="M24.34 23.7305L29.965 23.7305C30.3986 23.7305 30.715 23.4258 30.715 23.0039C30.715 22.5703 30.3986 22.2656 29.965 22.2656L25.9924 22.2656L25.9924 22.2305L28.5353 19.4883C29.4377 18.5273 30.1056 17.6836 30.1056 16.4766C30.1056 14.8008 28.8049 13.7109 26.7775 13.7109C25.2658 13.7109 23.9064 14.625 23.5549 15.8672C23.5197 16.0312 23.4963 16.1602 23.4963 16.3125C23.4963 16.7461 23.7775 17.0391 24.2228 17.0391C24.6213 17.0391 24.8205 16.793 25.0197 16.4648C25.3009 15.8203 25.8634 15.1523 26.8478 15.1523C27.8439 15.1523 28.5119 15.7383 28.5119 16.5938C28.5119 17.3555 27.8674 18 27.2463 18.668L23.8361 22.3359C23.6486 22.5352 23.5431 22.7461 23.5431 23.0039C23.5431 23.4492 23.8478 23.7305 24.34 23.7305Z" fill="black" fill-opacity="0.85"/>
  <path d="M5.96501 11.8945C9.28141 11.8945 11.8595 9.16406 11.8595 5.98828C11.8595 2.67188 9.28141 0 5.96501 0C2.66032 0 0.000162984 2.67188 0.000162984 5.98828C0.000162984 9.16406 2.66032 11.8945 5.96501 11.8945Z" fill="black" fill-opacity="0.85"/>
 </g>
</svg>
