<?xml version="1.0" encoding="UTF-8"?>
<!--Generator: Apple Native CoreSVG 360-->
<!DOCTYPE svg
PUBLIC "-//W3C//DTD SVG 1.1//EN"
       "http://www.w3.org/Graphics/SVG/1.1/DTD/svg11.dtd">
<svg version="1.1" xmlns="http://www.w3.org/2000/svg" xmlns:xlink="http://www.w3.org/1999/xlink" viewBox="0 0 26.2617 22.4414">
 <g>
  <rect height="22.4414" opacity="0" width="26.2617" x="0" y="0"/>
  <path d="M14.8242 5.12109C16.2305 5.12109 17.3789 3.98438 17.3789 2.55469C17.3789 1.14844 16.2305 0 14.8242 0C13.3945 0 12.2578 1.14844 12.2578 2.55469C12.2578 3.98438 13.3945 5.12109 14.8242 5.12109ZM16.6641 13.1953C17.3555 13.1953 17.9062 12.6562 17.9062 11.9648C17.9062 11.2734 17.3555 10.7344 16.6641 10.7344L12.3633 10.7344L12.3633 6.32812C12.3633 4.86328 11.1328 3.92578 9.77344 4.20703L2.53125 5.70703C-0.09375 6.24609-0.808594 9.35156 1.08984 11.0273L5.60156 14.9883L5.60156 21.1992C5.60156 21.8672 6.16406 22.4297 6.83203 22.4297C7.5 22.4297 8.0625 21.8672 8.0625 21.1992L8.0625 14.5195C8.0625 14.0859 7.96875 13.8516 7.69922 13.5586L4.23047 10.0664C4.03125 9.86719 4.13672 9.59766 4.37109 9.55078L9.24609 8.64844C9.72656 8.55469 9.90234 8.71875 9.90234 9.14062L9.90234 11.9648C9.90234 12.6562 10.4648 13.1953 11.1328 13.1953ZM23.2852 17.8477L24.9961 17.8477C25.582 17.8477 25.9688 17.4609 25.9688 16.875L25.9688 6.35156C25.9688 5.80078 25.582 5.41406 25.0195 5.41406L23.2383 5.41406C19.0547 5.41406 16.5234 6.50391 13.8633 9.59766L15.5859 9.59766C15.6328 9.59766 15.668 9.59766 15.7148 9.59766C17.8125 7.53516 19.9688 6.76172 23.2383 6.76172L24.6094 6.76172L24.6094 16.4766L23.2852 16.4766C22.8516 16.4766 22.5234 16.2656 22.3359 15.9023L21.2695 13.7695C21.082 13.418 20.7422 13.3359 20.4609 13.4297C20.1094 13.5469 19.8398 13.9219 20.0625 14.3789L21.1289 16.5234C21.5391 17.332 22.3594 17.8477 23.2852 17.8477ZM9.19922 17.1914C10.3242 16.3828 11.2266 15.375 12.0352 14.332L11.1328 14.332C10.875 14.332 10.6172 14.2852 10.3711 14.1914C10.0078 14.6367 9.62109 15.0352 9.19922 15.4219ZM0.691406 19.0781L2.70703 19.0781C3.32812 19.0781 3.91406 19.043 4.46484 18.9609L4.46484 17.6016C3.92578 17.6836 3.32812 17.7305 2.70703 17.7305L0.691406 17.7305C0.304688 17.7305 0 18.0117 0 18.4102C0 18.7617 0.304688 19.0781 0.691406 19.0781Z" fill="black" fill-opacity="0.85"/>
 </g>
</svg>
