<?xml version="1.0" encoding="UTF-8"?>
<!--Generator: Apple Native CoreSVG 360-->
<!DOCTYPE svg
PUBLIC "-//W3C//DTD SVG 1.1//EN"
       "http://www.w3.org/Graphics/SVG/1.1/DTD/svg11.dtd">
<svg version="1.1" xmlns="http://www.w3.org/2000/svg" xmlns:xlink="http://www.w3.org/1999/xlink" viewBox="0 0 32.6484 25.1367">
 <g>
  <rect height="25.1367" opacity="0" width="32.6484" x="0" y="0"/>
  <path d="M12.1055 3.59766C13.1016 3.59766 13.8984 2.8125 13.8984 1.80469C13.8984 0.808594 13.1016 0 12.1055 0C11.1094 0 10.3008 0.808594 10.3008 1.80469C10.3008 2.8125 11.1094 3.59766 12.1055 3.59766ZM1.18359 19.5703L7.59375 19.5703C7.94531 19.5703 8.09766 19.5352 8.35547 19.4766L14.8477 17.9062C14.9531 17.8828 15.0469 17.9766 15.0352 18.082L14.6016 21.6211L12.0586 19.8047C11.5195 19.418 10.7695 19.5469 10.3945 20.0859C9.99609 20.625 10.1133 21.375 10.6523 21.7617L14.5781 24.5273C15.4453 25.1367 16.5 24.9375 16.7227 24.0469L19.957 11.0742C20.0039 10.9219 20.1562 10.8281 20.3086 10.8633L30.8789 12.9609C31.7812 13.1484 32.2969 12.4688 32.2969 11.8008C32.2969 11.2852 32.0039 10.7578 31.3477 10.6289L20.9297 8.53125C17.8359 7.92188 15.9141 7.62891 13.7109 7.62891L10.7695 7.62891L10.7695 4.62891C10.7695 3.94922 10.2305 3.43359 9.57422 3.43359C8.89453 3.43359 8.36719 3.94922 8.36719 4.62891L8.36719 8.8125C8.36719 9.46875 8.89453 10.0078 9.57422 10.0078L14.5195 10.0078C14.7422 10.0078 14.8945 10.207 14.8359 10.418L13.875 14.1211C13.7227 14.7188 13.3125 15.1758 12.7266 15.3867L7.57031 17.1797L1.18359 17.1797C0.515625 17.1797 0 17.7188 0 18.3867C0 19.0547 0.515625 19.5703 1.18359 19.5703ZM18.7852 6.92578C20.1914 6.92578 21.3398 5.77734 21.3398 4.34766C21.3398 2.94141 20.1914 1.80469 18.7852 1.80469C17.3555 1.80469 16.2188 2.94141 16.2188 4.34766C16.2188 5.77734 17.3555 6.92578 18.7852 6.92578Z" fill="black" fill-opacity="0.85"/>
 </g>
</svg>
