<?xml version="1.0" encoding="UTF-8"?>
<!--Generator: Apple Native CoreSVG 360-->
<!DOCTYPE svg
PUBLIC "-//W3C//DTD SVG 1.1//EN"
       "http://www.w3.org/Graphics/SVG/1.1/DTD/svg11.dtd">
<svg version="1.1" xmlns="http://www.w3.org/2000/svg" xmlns:xlink="http://www.w3.org/1999/xlink" viewBox="0 0 23.9414 26.332">
 <g>
  <rect height="26.332" opacity="0" width="23.9414" x="0" y="0"/>
  <path d="M23.5898 16.8516L23.5898 12.3281C23.5898 9.97266 21.8906 8.4375 19.3828 8.4375L17.8594 8.4375C15.3633 8.4375 13.6641 9.97266 13.6641 12.3281L13.6641 16.8516C13.6641 17.3789 14.0742 17.8008 14.6016 17.8008C15.1172 17.8008 15.5273 17.3789 15.5273 16.8516L15.5273 12.7969C15.5273 12.5977 15.6797 12.457 15.8789 12.457C16.0664 12.457 16.2188 12.5977 16.2188 12.7969L16.2188 25.0898C16.2188 25.6641 16.6641 26.1094 17.2383 26.1094C17.8125 26.1094 18.2695 25.6641 18.2695 25.0898L18.2695 17.6016C18.2695 17.4258 18.4336 17.25 18.6211 17.25C18.8203 17.25 18.9844 17.4258 18.9844 17.6016L18.9844 25.0898C18.9844 25.6641 19.4297 26.1094 20.0156 26.1094C20.5781 26.1094 21.0352 25.6641 21.0352 25.0898L21.0352 12.7969C21.0352 12.5977 21.1875 12.457 21.375 12.457C21.5742 12.457 21.7148 12.5977 21.7148 12.7969L21.7148 16.8516C21.7148 17.3789 22.1367 17.8008 22.6523 17.8008C23.1797 17.8008 23.5898 17.3789 23.5898 16.8516ZM18.6211 7.23047C19.8984 7.23047 20.9297 6.21094 20.9297 4.93359C20.9297 3.65625 19.8984 2.63672 18.6211 2.63672C17.3555 2.63672 16.3242 3.65625 16.3242 4.93359C16.3242 6.21094 17.3555 7.23047 18.6211 7.23047Z" fill="black" fill-opacity="0.85"/>
  <path d="M11.0391 15.7969L11.0391 10.7578C11.0391 8.16797 9.14062 6.45703 6.36328 6.45703L4.67578 6.45703C1.89844 6.45703 0 8.16797 0 10.7578L0 15.7969C0 16.3828 0.457031 16.8398 1.04297 16.8398C1.61719 16.8398 2.07422 16.3828 2.07422 15.7969L2.07422 11.2852C2.07422 11.0742 2.25 10.9102 2.46094 10.9102C2.67188 10.9102 2.83594 11.0742 2.83594 11.2852L2.83594 24.9492C2.83594 25.582 3.35156 26.0859 3.98438 26.0859C4.61719 26.0859 5.13281 25.582 5.13281 24.9492L5.13281 16.6406C5.13281 16.4297 5.30859 16.2422 5.51953 16.2422C5.73047 16.2422 5.91797 16.4297 5.91797 16.6406L5.91797 24.9492C5.91797 25.582 6.42188 26.0859 7.05469 26.0859C7.6875 26.0859 8.20312 25.582 8.20312 24.9492L8.20312 11.2852C8.20312 11.0742 8.36719 10.9102 8.57812 10.9102C8.78906 10.9102 8.96484 11.0742 8.96484 11.2852L8.96484 15.7969C8.96484 16.3828 9.42188 16.8398 9.99609 16.8398C10.582 16.8398 11.0391 16.3828 11.0391 15.7969ZM5.51953 5.10938C6.9375 5.10938 8.07422 3.97266 8.07422 2.55469C8.07422 1.13672 6.9375 0 5.51953 0C4.10156 0 2.96484 1.13672 2.96484 2.55469C2.96484 3.97266 4.10156 5.10938 5.51953 5.10938Z" fill="black" fill-opacity="0.85"/>
 </g>
</svg>
