<?xml version="1.0" encoding="UTF-8"?>
<!--Generator: Apple Native CoreSVG 360-->
<!DOCTYPE svg
PUBLIC "-//W3C//DTD SVG 1.1//EN"
       "http://www.w3.org/Graphics/SVG/1.1/DTD/svg11.dtd">
<svg version="1.1" xmlns="http://www.w3.org/2000/svg" xmlns:xlink="http://www.w3.org/1999/xlink" viewBox="0 0 18.8086 28.043">
 <g>
  <rect height="28.043" opacity="0" width="18.8086" x="0" y="0"/>
  <path d="M3.85547 16.6289C3.22266 16.6289 2.50781 16.3945 2.12109 16.0898L2.12109 16.125C2.44922 18.3398 4.48828 19.8633 7.24219 19.8281L12.0117 19.7695C12.3164 19.7695 12.4102 19.8516 12.5039 20.0859L15.4102 26.6484C15.8555 27.6328 16.8281 28.0312 17.6016 27.6445C18.3281 27.3047 18.7031 26.4492 18.2812 25.5L15.2695 18.668C14.6016 17.1914 13.5586 16.6289 12.082 16.6289ZM7.62891 11.9297L11.6016 11.9297L11.6016 11.7539C11.6016 10.6406 10.7109 9.75 9.62109 9.75C8.51953 9.75 7.62891 10.6406 7.62891 11.7539ZM3.72656 8.54297C3.5625 7.78125 2.95312 7.40625 2.34375 7.40625C1.55859 7.40625 0.796875 8.02734 1.06641 9.21094L2.17969 14.2852C2.34375 15.0234 3.11719 15.5156 3.85547 15.5156L12.4453 15.5156C13.125 15.5156 13.6875 14.9648 13.6875 14.2852C13.6875 13.5938 13.125 13.043 12.4453 13.043L4.64062 13.043ZM2.91797 5.83594C4.52344 5.83594 5.83594 4.52344 5.83594 2.91797C5.83594 1.3125 4.52344 0 2.91797 0C1.3125 0 0 1.3125 0 2.91797C0 4.52344 1.3125 5.83594 2.91797 5.83594ZM9.62109 9.16406C10.5703 9.16406 11.3438 8.39062 11.3438 7.44141C11.3438 6.49219 10.5703 5.71875 9.62109 5.71875C8.66016 5.71875 7.89844 6.49219 7.89844 7.44141C7.89844 8.39062 8.66016 9.16406 9.62109 9.16406Z" fill="black" fill-opacity="0.85"/>
 </g>
</svg>
