<?xml version="1.0" encoding="UTF-8"?>
<!--Generator: Apple Native CoreSVG 360-->
<!DOCTYPE svg
PUBLIC "-//W3C//DTD SVG 1.1//EN"
       "http://www.w3.org/Graphics/SVG/1.1/DTD/svg11.dtd">
<svg version="1.1" xmlns="http://www.w3.org/2000/svg" xmlns:xlink="http://www.w3.org/1999/xlink" viewBox="0 0 29.2958 23.6133">
 <g>
  <rect height="23.6133" opacity="0" width="29.2958" x="0" y="0"/>
  <path d="M17.3081 7.5L17.3081 10.3359C17.3081 11.1562 17.9174 11.7656 18.7378 11.7656L20.976 11.7656C21.7964 11.7656 22.4057 11.1562 22.4057 10.3359L22.4057 7.5C22.4057 6.67969 21.7964 6.07031 20.976 6.07031L18.7378 6.07031C17.9174 6.07031 17.3081 6.67969 17.3081 7.5ZM23.8589 7.5L23.8589 10.3359C23.8589 11.1562 24.4565 11.7656 25.2768 11.7656L27.5151 11.7656C28.3354 11.7656 28.9448 11.1562 28.9448 10.3359L28.9448 7.5C28.9448 6.67969 28.3354 6.07031 27.5151 6.07031L25.2768 6.07031C24.4565 6.07031 23.8589 6.67969 23.8589 7.5ZM17.3081 15.832L17.3081 18.6797C17.3081 19.5 17.9174 20.1094 18.7378 20.1094L20.976 20.1094C21.7964 20.1094 22.4057 19.5 22.4057 18.6797L22.4057 15.832C22.4057 15.0117 21.7964 14.4141 20.976 14.4141L18.7378 14.4141C17.9174 14.4141 17.3081 15.0117 17.3081 15.832ZM23.8589 15.832L23.8589 18.6797C23.8589 19.5 24.4565 20.1094 25.2768 20.1094L27.5151 20.1094C28.3354 20.1094 28.9448 19.5 28.9448 18.6797L28.9448 15.832C28.9448 15.0117 28.3354 14.4141 27.5151 14.4141L25.2768 14.4141C24.4565 14.4141 23.8589 15.0117 23.8589 15.832ZM19.8745 10.1367C19.1948 10.1367 18.644 9.59766 18.644 8.90625C18.644 8.26172 19.1948 7.71094 19.8745 7.71094C20.5307 7.71094 21.0932 8.26172 21.0932 8.90625C21.0932 9.59766 20.5307 10.1367 19.8745 10.1367ZM26.4018 10.1367C25.7339 10.1367 25.1714 9.59766 25.1714 8.90625C25.1714 8.26172 25.7339 7.71094 26.4018 7.71094C27.0581 7.71094 27.6206 8.26172 27.6206 8.90625C27.6206 9.59766 27.0581 10.1367 26.4018 10.1367ZM19.8745 18.4805C19.1948 18.4805 18.644 17.9297 18.644 17.25C18.644 16.5938 19.1948 16.043 19.8745 16.043C20.5307 16.043 21.0932 16.5938 21.0932 17.25C21.0932 17.9297 20.5307 18.4805 19.8745 18.4805ZM26.4018 18.4805C25.7339 18.4805 25.1714 17.9297 25.1714 17.25C25.1714 16.5938 25.7339 16.043 26.4018 16.043C27.0581 16.043 27.6206 16.5938 27.6206 17.25C27.6206 17.9297 27.0581 18.4805 26.4018 18.4805ZM20.812 4.33594L25.4409 4.33594C25.7924 4.33594 25.8628 3.96094 25.5932 3.77344L23.4839 2.34375C23.2495 2.19141 23.0034 2.19141 22.769 2.34375L20.6596 3.77344C20.3901 3.96094 20.4604 4.33594 20.812 4.33594Z" fill="black" fill-opacity="0.85"/>
  <path d="M6.79635 5.22656C8.23776 5.22656 9.38619 4.01953 9.38619 2.625C9.38619 1.18359 8.23776 0 6.79635 0C5.34323 0 4.20651 1.18359 4.20651 2.625C4.20651 4.04297 5.34323 5.22656 6.79635 5.22656ZM1.80416 14.918L9.23385 6.66797C8.50729 6.38672 7.69869 6.26953 6.79635 6.26953C3.43307 6.26953 1.46432 7.88672 1.46432 10.5938C1.46432 11.25 1.48776 12.1172 1.58151 13.0078ZM11.7885 14.918L11.9995 13.0078C12.0932 12.1172 12.1401 11.25 12.1401 10.5938C12.1401 9.25781 11.6596 8.17969 10.7456 7.45312L4.83932 14.0156C5.50729 13.9102 6.15182 13.8633 6.79635 13.8633C8.44869 13.8633 10.101 14.0859 11.7885 14.918ZM3.92526 23.5547C4.60494 23.4609 5.06198 22.9688 4.97994 22.1133L4.51119 17.7891L9.08151 17.7891L8.61276 22.1133C8.50729 22.9688 8.96432 23.4609 9.66744 23.5547C10.3706 23.625 10.9096 23.1797 10.9917 22.3594L11.601 16.6523C10.0893 15.7734 8.41354 15.4336 6.79635 15.4336C5.17916 15.4336 3.49166 15.7734 2.00338 16.6523L2.60104 22.3594C2.68307 23.1797 3.22213 23.625 3.92526 23.5547ZM10.7456 7.44141L12.9721 4.96875C13.3706 4.54688 13.3237 4.05469 12.9487 3.75C12.5854 3.43359 12.1401 3.42188 11.7299 3.87891L9.23385 6.66797C9.78463 6.87891 10.3003 7.14844 10.7456 7.44141ZM0.351038 15.7852C-0.0591184 16.0898-0.0708371 16.582 0.116663 16.8984C0.3276 17.2383 0.749475 17.4023 1.20651 17.1328C1.47604 16.957 1.72213 16.8047 2.00338 16.6523L1.80416 14.918C1.27682 15.1523 0.808069 15.4219 0.351038 15.7852ZM13.2299 15.7852C12.7846 15.4219 12.3159 15.1523 11.7885 14.918L11.5893 16.6523C11.8706 16.8047 12.1167 16.957 12.3745 17.1328C12.8315 17.4023 13.2417 17.25 13.4526 16.9219C13.6635 16.5938 13.6635 16.1016 13.2299 15.7852Z" fill="black" fill-opacity="0.85"/>
 </g>
</svg>
