<?xml version="1.0" encoding="UTF-8"?>
<!--Generator: Apple Native CoreSVG 360-->
<!DOCTYPE svg
PUBLIC "-//W3C//DTD SVG 1.1//EN"
       "http://www.w3.org/Graphics/SVG/1.1/DTD/svg11.dtd">
<svg version="1.1" xmlns="http://www.w3.org/2000/svg" xmlns:xlink="http://www.w3.org/1999/xlink" viewBox="0 0 22.8164 23.9414">
 <g>
  <rect height="23.9414" opacity="0" width="22.8164" x="0" y="0"/>
  <path d="M3.15234 6.5625C4.93359 6.5625 6.33984 5.13281 6.33984 3.39844C6.33984 1.62891 4.93359 0.1875 3.15234 0.1875C1.40625 0.1875 0 1.62891 0 3.39844C0 5.09766 1.40625 6.5625 3.15234 6.5625ZM5.20312 18.7031L9.19922 13.8984L6.97266 9.87891C5.96484 8.05078 4.25391 7.34766 2.60156 8.26172C0.890625 9.17578 0.574219 11.0156 1.57031 12.8203L3.72656 16.7344C4.19531 17.6016 4.67578 18.293 5.20312 18.7031ZM22.0312 23.3086C22.5938 22.7578 22.6523 21.8203 21.9258 21.0703L16.6992 15.6562C15.5859 14.5078 14.4258 14.3438 13.0547 14.8477L10.0664 15.9375L7.13672 19.5586C7.875 19.6992 8.87109 19.7695 9.80859 19.418L14.0625 17.8125C14.3203 17.707 14.4258 17.7539 14.6016 17.9297L19.6406 23.1328C20.3906 23.8945 21.4336 23.9531 22.0312 23.3086ZM2.66016 23.4492C3.16406 23.8594 3.71484 23.7539 4.14844 23.2266L7.13672 19.5586C6.45703 19.418 5.80078 19.125 5.20312 18.7031L2.60156 21.9375C2.15625 22.4883 2.19141 23.0742 2.66016 23.4492Z" fill="black" fill-opacity="0.85"/>
  <path d="M16.4883 11.8945C19.8047 11.8945 22.4531 9.16406 22.4531 5.98828C22.4531 2.67188 19.8047 0 16.4883 0C13.1836 0 10.5938 2.67188 10.5938 5.98828C10.5938 9.16406 13.1836 11.8945 16.4883 11.8945Z" fill="black" fill-opacity="0.85"/>
 </g>
</svg>
