<?xml version="1.0" encoding="UTF-8"?>
<!--Generator: Apple Native CoreSVG 360-->
<!DOCTYPE svg
PUBLIC "-//W3C//DTD SVG 1.1//EN"
       "http://www.w3.org/Graphics/SVG/1.1/DTD/svg11.dtd">
<svg version="1.1" xmlns="http://www.w3.org/2000/svg" xmlns:xlink="http://www.w3.org/1999/xlink" viewBox="0 0 22.8164 24.3398">
 <g>
  <rect height="24.3398" opacity="0" width="22.8164" x="0" y="0"/>
  <path d="M3.15234 6.64453C1.40625 6.64453 0 5.17969 0 3.48047C0 1.71094 1.40625 0.28125 3.15234 0.28125C4.93359 0.28125 6.33984 1.71094 6.33984 3.48047C6.33984 5.22656 4.93359 6.64453 3.15234 6.64453ZM22.043 23.4141C21.4336 24.0469 20.3906 24 19.6406 23.2266L14.6016 18.0234C14.4375 17.8477 14.3203 17.8008 14.0625 17.9062L10.125 19.3945C7.59375 20.3672 5.20312 19.5352 4.10156 17.5195L1.57031 12.9141C0.585938 11.1211 0.890625 9.26953 2.60156 8.35547C4.25391 7.45312 5.97656 8.13281 6.97266 9.97266L10.2539 15.9609L13.0547 14.9414C14.4375 14.4375 15.5977 14.6016 16.6992 15.75L21.9375 21.1641C22.6641 21.9141 22.5938 22.8516 22.043 23.4141Z" fill="black" fill-opacity="0.85"/>
  <path d="M10.8281 7.59375C10.8281 9.31641 12.3984 11.0508 13.8516 11.0508C15.1875 11.0508 15.8672 9.85547 16.6641 7.73438L16.9688 7.67578L16.9688 9.96094C16.9688 10.9453 17.4844 11.4492 18.4336 11.4492C20.1445 11.4492 21.8789 9.89062 21.8789 8.42578C21.8789 7.07812 20.6836 6.41016 18.5508 5.61328L18.5039 5.30859L20.7891 5.30859C21.7734 5.30859 22.2656 4.80469 22.2656 3.85547C22.2656 2.13281 20.7188 0.386719 19.2539 0.386719C17.9062 0.386719 17.2383 1.60547 16.4297 3.73828L16.1367 3.77344L16.1367 1.48828C16.1367 0.515625 15.6328 0 14.6836 0C12.9609 0 11.2148 1.57031 11.2148 3.02344C11.2148 4.37109 12.4336 5.03906 14.5664 5.83594L14.5898 6.14062L12.3164 6.14062C11.3438 6.14062 10.8281 6.65625 10.8281 7.59375ZM16.5469 6.90234C15.9023 6.90234 15.375 6.375 15.375 5.71875C15.375 5.07422 15.9023 4.54688 16.5469 4.54688C17.1914 4.54688 17.7188 5.07422 17.7188 5.71875C17.7188 6.375 17.1914 6.90234 16.5469 6.90234Z" fill="black" fill-opacity="0.85"/>
 </g>
</svg>
