<?xml version="1.0" encoding="UTF-8"?>
<!--Generator: Apple Native CoreSVG 360-->
<!DOCTYPE svg
PUBLIC "-//W3C//DTD SVG 1.1//EN"
       "http://www.w3.org/Graphics/SVG/1.1/DTD/svg11.dtd">
<svg version="1.1" xmlns="http://www.w3.org/2000/svg" xmlns:xlink="http://www.w3.org/1999/xlink" viewBox="0 0 33.9302 31.1361">
 <g>
  <rect height="31.1361" opacity="0" width="33.9302" x="0" y="0"/>
  <path d="M30.5999 8.42549L30.5999 19.0901L28.7132 17.1552L28.7132 8.51924C28.7132 7.30049 28.0569 6.6794 26.8968 6.6794L6.67019 6.6794C5.49831 6.6794 4.85378 7.30049 4.85378 8.51924L4.85378 22.6403C4.85378 23.8591 5.52175 24.4802 6.67019 24.4802L23.3188 24.4802L23.2991 26.0505C23.2977 26.1595 23.3039 26.2651 23.3178 26.3669L6.64675 26.3669C4.18581 26.3669 2.96706 25.1599 2.96706 22.7341L2.96706 8.42549C2.96706 5.99971 4.19753 4.79268 6.64675 4.79268L26.9202 4.79268C29.3811 4.79268 30.5999 5.99971 30.5999 8.42549Z" fill="black" fill-opacity="0.85"/>
  <path d="M20.135 20.1794C20.135 20.5778 19.8303 20.8825 19.4202 20.8825L8.36941 20.8825C7.93581 20.8825 7.63113 20.5778 7.63113 20.1794C7.63113 19.7692 7.93581 19.4411 8.36941 19.4411L19.4202 19.4411C19.8303 19.4411 20.135 19.7692 20.135 20.1794Z" fill="black" fill-opacity="0.85"/>
  <path d="M17.1702 15.5622C17.1702 15.9841 16.8655 16.3005 16.4553 16.3005L8.36941 16.3005C7.93581 16.3005 7.63113 15.9841 7.63113 15.5622C7.63113 15.1638 7.93581 14.8591 8.36941 14.8591L16.4553 14.8591C16.8655 14.8591 17.1702 15.1638 17.1702 15.5622Z" fill="black" fill-opacity="0.85"/>
  <path d="M22.7835 10.9802C22.7835 11.3903 22.4788 11.7067 22.0569 11.7067L8.36941 11.7067C7.93581 11.7067 7.63113 11.3903 7.63113 10.9802C7.63113 10.5817 7.93581 10.2653 8.36941 10.2653L22.0569 10.2653C22.4788 10.2653 22.7835 10.5817 22.7835 10.9802Z" fill="black" fill-opacity="0.85"/>
  <path d="M30.5999 29.4606C31.1155 29.2497 31.3616 28.6638 31.1389 28.1481L29.3108 23.8942L31.8303 23.7888C32.2757 23.7653 32.4866 23.3435 32.1702 23.0036L25.7718 16.4294C25.4671 16.1247 25.0218 16.3005 25.01 16.7224L24.9046 26.0856C24.8928 26.5427 25.4319 26.6833 25.7249 26.3903L27.5061 24.5974L29.2639 28.9216C29.4632 29.4372 30.0725 29.6833 30.5999 29.4606Z" fill="black" fill-opacity="0.85"/>
 </g>
</svg>
