<?xml version="1.0" encoding="UTF-8"?>
<!--Generator: Apple Native CoreSVG 360-->
<!DOCTYPE svg
PUBLIC "-//W3C//DTD SVG 1.1//EN"
       "http://www.w3.org/Graphics/SVG/1.1/DTD/svg11.dtd">
<svg version="1.1" xmlns="http://www.w3.org/2000/svg" xmlns:xlink="http://www.w3.org/1999/xlink" viewBox="0 0 28.6758 29.6836">
 <g>
  <rect height="29.6836" opacity="0" width="28.6758" x="0" y="0"/>
  <path d="M21.5576 3.35156L6.76658 3.35156C6.81468 2.39915 7.41573 1.85156 8.41406 1.85156L19.9102 1.85156C20.9085 1.85156 21.5095 2.39915 21.5576 3.35156Z" fill="black" fill-opacity="0.85"/>
  <path d="M23.9548 6.699C23.5779 6.63908 23.1781 6.60938 22.7578 6.60938L5.56641 6.60938C5.14621 6.60938 4.74653 6.63907 4.36974 6.69896C4.49733 5.57312 5.25916 4.94531 6.50391 4.94531L21.832 4.94531C23.0768 4.94531 23.829 5.57313 23.9548 6.699Z" fill="black" fill-opacity="0.85"/>
  <path d="M3.96094 27.7617L24.375 27.7617C25.6758 27.7617 26.4961 26.9414 26.4961 25.6758L26.4961 10.5938C26.4961 9.32812 25.6758 8.49609 24.375 8.49609L3.96094 8.49609C2.64844 8.49609 1.82812 9.32812 1.82812 10.5938L1.82812 25.6758C1.82812 26.9414 2.64844 27.7617 3.96094 27.7617ZM3.92578 12.3984C3.60938 12.3984 3.41016 12.1875 3.41016 11.918L3.41016 10.7344C3.41016 10.4062 3.62109 10.1836 3.96094 10.1836L5.28516 10.1836C5.57812 10.1836 5.76562 10.3945 5.76562 10.6992L5.76562 11.918C5.76562 12.1875 5.57812 12.3984 5.28516 12.3984ZM3.92578 15.8555C3.60938 15.8555 3.41016 15.6328 3.41016 15.3867L3.41016 14.168C3.41016 13.8867 3.60938 13.6641 3.92578 13.6641L5.28516 13.6641C5.57812 13.6641 5.76562 13.8867 5.76562 14.168L5.76562 15.3867C5.76562 15.6328 5.57812 15.8555 5.28516 15.8555ZM3.92578 19.2422C3.60938 19.2422 3.41016 19.0078 3.41016 18.7266L3.41016 17.5664C3.41016 17.2383 3.60938 17.0273 3.92578 17.0273L5.28516 17.0273C5.57812 17.0273 5.76562 17.2383 5.76562 17.5664L5.76562 18.7266C5.76562 19.0078 5.57812 19.2422 5.28516 19.2422ZM3.92578 22.6055C3.60938 22.6055 3.41016 22.3828 3.41016 22.125L3.41016 20.9297C3.41016 20.625 3.60938 20.4258 3.92578 20.4258L5.28516 20.4258C5.57812 20.4258 5.76562 20.625 5.76562 20.9297L5.76562 22.125C5.76562 22.3828 5.57812 22.6055 5.28516 22.6055ZM3.96094 26.0742C3.62109 26.0742 3.41016 25.8516 3.41016 25.5352L3.41016 24.3633C3.41016 24.0586 3.60938 23.8594 3.92578 23.8594L5.28516 23.8594C5.57812 23.8594 5.76562 24.0586 5.76562 24.3633L5.76562 25.582C5.76562 25.8633 5.57812 26.0742 5.28516 26.0742ZM7.74609 17.2852C7.45312 17.2852 7.26562 17.1211 7.26562 16.8047L7.26562 10.6641C7.26562 10.3594 7.45312 10.1836 7.74609 10.1836L20.5898 10.1836C20.8711 10.1836 21.0586 10.3594 21.0586 10.6641L21.0586 16.8047C21.0586 17.1211 20.8711 17.2852 20.5898 17.2852ZM7.74609 26.0742C7.45312 26.0742 7.26562 25.8867 7.26562 25.5938L7.26562 19.4883C7.26562 19.1836 7.45312 19.0078 7.74609 19.0078L20.5898 19.0078C20.8711 19.0078 21.0586 19.1836 21.0586 19.4883L21.0586 25.5938C21.0586 25.8867 20.8711 26.0742 20.5898 26.0742ZM23.0508 12.3984C22.7578 12.3984 22.5586 12.1875 22.5586 11.918L22.5586 10.6992C22.5586 10.3945 22.7578 10.1836 23.0508 10.1836L24.3633 10.1836C24.7031 10.1836 24.9141 10.4062 24.9141 10.7344L24.9141 11.918C24.9141 12.1875 24.7148 12.3984 24.3984 12.3984ZM23.0508 15.8555C22.7578 15.8555 22.5586 15.6328 22.5586 15.3867L22.5586 14.168C22.5586 13.8867 22.7578 13.6641 23.0508 13.6641L24.3984 13.6641C24.7148 13.6641 24.9141 13.8867 24.9141 14.168L24.9141 15.3867C24.9141 15.6328 24.7148 15.8555 24.3984 15.8555ZM23.0508 19.2422C22.7578 19.2422 22.5586 19.0078 22.5586 18.7266L22.5586 17.5664C22.5586 17.2383 22.7578 17.0273 23.0508 17.0273L24.3984 17.0273C24.7148 17.0273 24.9141 17.2383 24.9141 17.5664L24.9141 18.7266C24.9141 19.0078 24.7148 19.2422 24.3984 19.2422ZM23.0508 22.6055C22.7578 22.6055 22.5586 22.3828 22.5586 22.125L22.5586 20.9297C22.5586 20.625 22.7578 20.4258 23.0508 20.4258L24.3984 20.4258C24.7148 20.4258 24.9141 20.625 24.9141 20.9297L24.9141 22.125C24.9141 22.3828 24.7148 22.6055 24.3984 22.6055ZM23.0508 26.0742C22.7578 26.0742 22.5586 25.8633 22.5586 25.582L22.5586 24.3633C22.5586 24.0586 22.7578 23.8594 23.0508 23.8594L24.3984 23.8594C24.7148 23.8594 24.9141 24.0586 24.9141 24.3633L24.9141 25.5352C24.9141 25.8516 24.7031 26.0742 24.3633 26.0742Z" fill="black" fill-opacity="0.85"/>
 </g>
</svg>
