<?xml version="1.0" encoding="UTF-8"?>
<!--Generator: Apple Native CoreSVG 360-->
<!DOCTYPE svg
PUBLIC "-//W3C//DTD SVG 1.1//EN"
       "http://www.w3.org/Graphics/SVG/1.1/DTD/svg11.dtd">
<svg version="1.1" xmlns="http://www.w3.org/2000/svg" xmlns:xlink="http://www.w3.org/1999/xlink" viewBox="0 0 19.0866 29.1211">
 <g>
  <rect height="29.1211" opacity="0" width="19.0866" x="0" y="0"/>
  <path d="M6.9476 4.76953C8.28354 4.76953 9.32651 3.70312 9.32651 2.36719C9.32651 1.04297 8.28354 0 6.9476 0C5.61167 0 4.55698 1.04297 4.55698 2.36719C4.55698 3.70312 5.61167 4.76953 6.9476 4.76953ZM6.9476 3.45703C6.33823 3.45703 5.86948 2.97656 5.86948 2.36719C5.86948 1.78125 6.33823 1.3125 6.9476 1.3125C7.54526 1.3125 8.01401 1.78125 8.01401 2.36719C8.01401 2.97656 7.54526 3.45703 6.9476 3.45703ZM1.68588 8.50781C2.62338 6.41016 4.02963 5.20312 7.49838 5.20312L12.1156 5.20312L12.1156 3.43359L7.49838 3.43359C3.27963 3.43359 1.20542 5.25 0.0804152 7.78125C-0.177397 8.34375 0.209321 9.02344 0.889009 9.02344C1.24057 9.02344 1.55698 8.8125 1.68588 8.50781ZM10.4632 3.49219L10.4632 5.13281C10.4632 5.63672 10.8382 6.05859 11.3539 6.10547L17.6234 6.71484C18.2445 6.77344 18.7367 6.32812 18.7367 5.67188L18.7367 2.95312C18.7367 2.32031 18.2445 1.86328 17.6234 1.92188L11.3539 2.51953C10.8382 2.56641 10.4632 2.98828 10.4632 3.49219ZM6.29135 5.01562L6.29135 7.96875L8.36557 7.96875L8.36557 5.01562ZM4.65073 29.1211L10.0179 29.1211C11.6117 29.1211 12.7367 27.9961 12.7367 26.4023L12.7367 12.8086C12.7367 9.59766 10.4984 7.34766 7.33432 7.34766C4.15854 7.34766 1.92026 9.59766 1.92026 12.8086L1.92026 26.4023C1.92026 27.9961 3.04526 29.1211 4.65073 29.1211ZM4.8851 27.2344C4.27573 27.2344 3.80698 26.7773 3.80698 26.168L3.80698 12.8086C3.80698 10.7109 5.27182 9.23438 7.33432 9.23438C9.39682 9.23438 10.8499 10.7109 10.8499 12.8086L10.8499 26.168C10.8499 26.7773 10.3929 27.2344 9.78354 27.2344Z" fill="black" fill-opacity="0.85"/>
 </g>
</svg>
