<?xml version="1.0" encoding="UTF-8"?>
<!--Generator: Apple Native CoreSVG 360-->
<!DOCTYPE svg
PUBLIC "-//W3C//DTD SVG 1.1//EN"
       "http://www.w3.org/Graphics/SVG/1.1/DTD/svg11.dtd">
<svg version="1.1" xmlns="http://www.w3.org/2000/svg" xmlns:xlink="http://www.w3.org/1999/xlink" viewBox="0 0 19.8281 24.293">
 <g>
  <rect height="24.293" opacity="0" width="19.8281" x="0" y="0"/>
  <path d="M9.73828 24.293C9.92578 24.293 10.2305 24.2227 10.5234 24.0586C17.1914 20.3203 19.4766 18.7383 19.4766 14.4609L19.4766 5.49609C19.4766 4.26562 18.9492 3.87891 17.9531 3.45703C16.5703 2.88281 12.1055 1.27734 10.7227 0.796875C10.4062 0.691406 10.0664 0.621094 9.73828 0.621094C9.41016 0.621094 9.07031 0.714844 8.76562 0.796875C7.38281 1.19531 2.90625 2.89453 1.52344 3.45703C0.539062 3.86719 0 4.26562 0 5.49609L0 14.4609C0 18.7383 2.29688 20.3086 8.95312 24.0586C9.25781 24.2227 9.55078 24.293 9.73828 24.293ZM9.73828 22.1719C9.55078 22.1719 9.36328 22.1016 9.01172 21.8906C3.59766 18.6094 1.86328 17.6484 1.86328 14.0273L1.86328 5.85938C1.86328 5.46094 1.93359 5.30859 2.26172 5.17969C4.04297 4.47656 7.5 3.31641 9.26953 2.61328C9.45703 2.53125 9.60938 2.50781 9.73828 2.50781C9.86719 2.50781 10.0195 2.54297 10.207 2.61328C11.9766 3.31641 15.4102 4.55859 17.2266 5.17969C17.543 5.29688 17.6133 5.46094 17.6133 5.85938L17.6133 14.0273C17.6133 17.6484 15.8789 18.5977 10.4648 21.8906C10.125 22.1016 9.92578 22.1719 9.73828 22.1719Z" fill="black" fill-opacity="0.85"/>
  <path d="M10.9805 6.96094L10.9805 8.20312L5.23828 8.20312C4.81641 8.20312 4.46484 8.55469 4.46484 8.97656C4.46484 9.39844 4.81641 9.73828 5.23828 9.73828L10.9805 9.73828L10.9805 10.9805C10.9805 11.4961 11.4727 11.6602 11.8594 11.4023L14.7773 9.43359C15.1055 9.21094 15.0938 8.76562 14.7422 8.51953L11.8359 6.5625C11.4727 6.30469 10.9805 6.45703 10.9805 6.96094ZM4.71094 15.4219L7.62891 17.3906C8.00391 17.6367 8.50781 17.4727 8.50781 16.9688L8.50781 15.7266L14.25 15.7266C14.6719 15.7266 15.0117 15.3867 15.0117 14.9648C15.0117 14.543 14.6719 14.1914 14.25 14.1914L8.50781 14.1914L8.50781 12.9375C8.50781 12.4453 8.00391 12.293 7.64062 12.5391L4.73438 14.4961C4.38281 14.7422 4.38281 15.1875 4.71094 15.4219Z" fill="black" fill-opacity="0.85"/>
 </g>
</svg>
