<?xml version="1.0" encoding="UTF-8"?>
<!--Generator: Apple Native CoreSVG 360-->
<!DOCTYPE svg
PUBLIC "-//W3C//DTD SVG 1.1//EN"
       "http://www.w3.org/Graphics/SVG/1.1/DTD/svg11.dtd">
<svg version="1.1" xmlns="http://www.w3.org/2000/svg" xmlns:xlink="http://www.w3.org/1999/xlink" viewBox="0 0 33.3967 26.1374">
 <g>
  <rect height="26.1374" opacity="0" width="33.3967" x="0" y="0"/>
  <path d="M13.6984 6.88704L15.3742 6.5472C15.1867 5.31673 14.882 4.30891 14.0148 2.99641C13.9093 2.83235 13.9327 2.66829 14.0734 2.62141C17.7999 1.34407 22.6163 3.16048 23.6476 7.01595L25.4054 6.80501C24.1632 1.4261 17.1202-1.11687 12.2452 1.57845C11.6593 1.89485 11.5421 2.51595 12.0226 3.14876C13.2062 4.70735 13.464 5.50423 13.6984 6.88704ZM19.2765 21.9456C24.6906 21.9456 33.046 18.3949 33.046 13.5784C33.046 8.77376 24.6906 5.22298 19.2765 5.22298C15.4562 5.22298 11.5656 6.5472 8.4015 9.61751C6.339 7.28548 3.93665 5.9847 1.13587 5.93782C0.549933 5.9261 0.0811826 6.3011 0.0343076 6.89876C-0.211786 9.33626 0.889776 11.973 2.57728 13.5784C0.889776 15.1956-0.211786 17.8441 0.0343076 20.2699C0.0811826 20.8675 0.549933 21.2425 1.13587 21.2308C3.93665 21.1839 6.339 19.8831 8.4015 17.5628C11.5656 20.6214 15.4562 21.9456 19.2765 21.9456ZM19.2765 20.0589C15.5148 20.0589 11.9288 18.7347 8.98743 15.4534C8.60071 15.0199 8.06165 15.0316 7.67493 15.5003C5.964 17.6214 4.29993 18.8753 2.26087 19.2269C2.06165 19.262 1.89759 19.098 1.93275 18.887C2.13196 17.0589 3.21009 15.3714 4.55775 14.305C5.16712 13.7894 5.17884 13.3792 4.54603 12.8519C3.21009 11.7855 2.13196 10.1097 1.93275 8.28157C1.89759 8.08235 2.06165 7.90657 2.26087 7.94173C4.29993 8.29329 5.964 9.5472 7.67493 11.6683C8.06165 12.1488 8.60071 12.1605 8.97571 11.7269C11.9288 8.43391 15.5148 7.1097 19.2765 7.1097C24.2687 7.1097 31.1945 10.3558 31.1945 13.5784C31.1945 16.8128 24.2687 20.0589 19.2765 20.0589ZM26.5538 14.2933C27.2335 14.2933 27.796 13.7308 27.796 13.0628C27.796 12.3949 27.2335 11.8324 26.5538 11.8324C25.8859 11.8324 25.3234 12.3949 25.3234 13.0628C25.3234 13.7308 25.8859 14.2933 26.5538 14.2933ZM15.5851 20.6097L15.0929 24.6409C14.9757 25.6253 15.6085 26.2933 16.757 26.1058C19.7452 25.637 23.1437 23.4105 24.8663 20.8558L22.4523 21.1488C20.9757 22.4261 19.382 23.5863 17.4718 24.1136C17.2257 24.1722 17.0617 24.1253 17.0968 23.7972L17.3898 20.8792Z" fill="black" fill-opacity="0.85"/>
 </g>
</svg>
