<?xml version="1.0" encoding="UTF-8"?>
<!--Generator: Apple Native CoreSVG 360-->
<!DOCTYPE svg
PUBLIC "-//W3C//DTD SVG 1.1//EN"
       "http://www.w3.org/Graphics/SVG/1.1/DTD/svg11.dtd">
<svg version="1.1" xmlns="http://www.w3.org/2000/svg" xmlns:xlink="http://www.w3.org/1999/xlink" viewBox="0 0 44.9478 27.0317">
 <g>
  <rect height="27.0317" opacity="0" width="44.9478" x="0" y="0"/>
  <path d="M21.5046 17.6887L17.2004 25.135C16.9661 25.5686 16.4387 25.7092 16.0051 25.4631C15.5833 25.217 15.4309 24.6662 15.677 24.2444L20.4869 15.9278ZM30.3606 1.38107C31.052 1.4631 31.9778 1.82638 32.8215 2.31857C35.7512 4.01779 36.8528 6.63107 39.7004 8.2717C40.9426 8.98654 42.0325 9.25607 42.5481 9.54904C43.1458 9.9006 43.427 10.4865 43.052 11.1311L38.3411 19.299C37.8137 20.2131 37.0754 20.4709 36.2317 20.3889C35.5403 20.3069 34.6262 19.9436 33.7825 19.4397C30.8528 17.7404 29.7395 15.1389 26.9036 13.4865C25.9426 12.9475 25.0872 12.6545 24.5364 12.4436L24.1054 13.1892L23.0883 11.4298L28.2629 2.48263C28.7903 1.56857 29.5286 1.29904 30.3606 1.38107ZM25.4622 10.8498C26.2122 11.0608 27.1262 11.5764 27.7825 11.9514C30.8411 13.7209 31.884 16.3225 34.6731 17.9162C34.9661 18.092 35.845 18.5842 36.6887 18.6311L41.1418 10.9201C40.3801 10.6975 39.4778 10.1936 38.8215 9.81857C35.7629 8.04904 34.7083 5.4592 31.9309 3.85373C31.6262 3.67795 30.7473 3.17404 29.9153 3.13888Z" fill="black" fill-opacity="0.85"/>
  <path d="M28.9075 24.2444L16.3333 2.48263C15.8059 1.56857 15.0676 1.29904 14.2239 1.38107C13.5325 1.4631 12.6067 1.82638 11.7747 2.31857C8.84497 4.01779 7.73169 6.63107 4.88404 8.2717C3.64185 8.98654 2.552 9.25607 2.03638 9.54904C1.43872 9.9006 1.16919 10.4865 1.53247 11.1311L6.24341 19.299C6.77075 20.2131 7.50904 20.4709 8.35279 20.3889C9.04419 20.3069 9.96997 19.9436 10.802 19.4397C13.7434 17.7404 14.845 15.1389 17.6926 13.4865C18.6418 12.9475 19.509 12.6545 20.0598 12.4436L27.384 25.135C27.6301 25.5686 28.1575 25.7092 28.5911 25.4631C29.0012 25.217 29.1536 24.6662 28.9075 24.2444ZM19.1223 10.8498C18.3723 11.0608 17.4583 11.5764 16.802 11.9514C13.7434 13.7209 12.7004 16.3225 9.9231 17.9162C9.61841 18.092 8.7395 18.5842 7.90747 18.6311L3.45435 10.9201C4.21607 10.6975 5.11841 10.1936 5.77466 9.81857C8.83325 8.04904 9.87622 5.4592 12.6536 3.85373C12.9583 3.67795 13.8372 3.17404 14.6809 3.13888Z" fill="black" fill-opacity="0.85"/>
 </g>
</svg>
