<?xml version="1.0" encoding="UTF-8"?>
<!--Generator: Apple Native CoreSVG 360-->
<!DOCTYPE svg
PUBLIC "-//W3C//DTD SVG 1.1//EN"
       "http://www.w3.org/Graphics/SVG/1.1/DTD/svg11.dtd">
<svg version="1.1" xmlns="http://www.w3.org/2000/svg" xmlns:xlink="http://www.w3.org/1999/xlink" viewBox="0 0 44.9478 27.0317">
 <g>
  <rect height="27.0317" opacity="0" width="44.9478" x="0" y="0"/>
  <path d="M21.5046 17.6887L17.2004 25.135C16.9661 25.5686 16.4387 25.7092 16.0051 25.4631C15.5833 25.217 15.4309 24.6662 15.677 24.2444L20.4869 15.9278ZM30.3606 1.38107C31.052 1.4631 31.9778 1.82638 32.8215 2.31857C35.7512 4.01779 36.8528 6.63107 39.7004 8.2717C40.9426 8.98654 42.0325 9.25607 42.5481 9.54904C43.1458 9.9006 43.427 10.4865 43.052 11.1311L38.3411 19.299C37.8137 20.2131 37.0754 20.4709 36.2317 20.3889C35.5403 20.3069 34.6262 19.9436 33.7825 19.4397C30.8528 17.7404 29.7395 15.1389 26.9036 13.4865C25.9426 12.9475 25.0872 12.6545 24.5364 12.4436L24.1054 13.1892L23.0883 11.4298L28.2629 2.48263C28.7903 1.56857 29.5286 1.29904 30.3606 1.38107ZM31.0637 14.7053C31.884 15.5959 32.6809 16.4983 33.677 17.2483L35.2004 14.6115C34.1575 13.8498 33.3723 13.1115 32.5286 12.174ZM35.2004 14.6115C35.4231 14.7756 35.6458 14.9045 35.9387 15.0686C36.7825 15.5608 37.5442 15.8772 38.177 16.0412L39.7825 13.2756C39.302 13.1467 38.47 12.8537 37.5325 12.3029C37.2747 12.1623 37.0403 11.9865 36.7942 11.8459ZM26.845 8.47092L25.4622 10.8498C26.2122 11.0608 27.1262 11.5764 27.7825 11.9514C27.9817 12.0686 28.1692 12.174 28.3567 12.3029L29.8801 9.67795C29.5872 9.46701 29.3879 9.32638 29.0012 9.11545C28.0168 8.55295 27.2434 8.4006 26.845 8.47092ZM29.8801 9.67795C30.9231 10.4514 31.6262 11.2365 32.5286 12.174L34.1223 9.3967C33.2786 8.51779 32.552 7.68576 31.4856 6.92404ZM34.1223 9.3967C34.9426 10.299 35.7629 11.1194 36.7942 11.8459L38.1887 9.42013C37.0989 8.69357 36.2786 7.86154 35.4934 7.02951ZM28.4387 5.70529C28.8606 5.62326 29.6223 5.7756 30.595 6.3381C30.8411 6.49045 31.2043 6.72482 31.4856 6.92404L32.8801 4.47482C32.5872 4.26388 32.2708 4.05295 31.9309 3.85373C31.6262 3.67795 30.7473 3.17404 29.9153 3.13888Z" fill="black" fill-opacity="0.85"/>
  <path d="M28.5911 25.4631C29.0012 25.217 29.1536 24.6662 28.9075 24.2444L16.3333 2.48263C15.8059 1.56857 15.0676 1.29904 14.2239 1.38107C13.5325 1.4631 12.6067 1.82638 11.7747 2.31857C8.84497 4.01779 7.73169 6.63107 4.88404 8.2717C3.64185 8.98654 2.552 9.25607 2.03638 9.54904C1.43872 9.9006 1.16919 10.4865 1.53247 11.1311L6.24341 19.299C6.77075 20.2131 7.50904 20.4709 8.35279 20.3889C9.04419 20.3069 9.96997 19.9436 10.802 19.4397C13.7434 17.7404 14.845 15.1389 17.6926 13.4865C18.6418 12.9475 19.509 12.6545 20.0598 12.4436L27.384 25.135C27.6301 25.5686 28.1575 25.7092 28.5911 25.4631ZM13.0989 6.92404L11.7043 4.47482C11.9973 4.26388 12.3137 4.05295 12.6536 3.85373C12.9583 3.67795 13.8372 3.17404 14.6809 3.13888L16.1575 5.70529C15.7356 5.62326 14.9622 5.7756 13.9895 6.3381C13.7434 6.49045 13.3801 6.72482 13.0989 6.92404ZM16.2278 12.3029L14.7043 9.67795C14.9973 9.46701 15.2083 9.32638 15.5833 9.11545C16.5793 8.55295 17.3411 8.4006 17.7512 8.47092L19.1223 10.8498C18.3723 11.0608 17.4583 11.5764 16.802 11.9514C16.6028 12.0686 16.4153 12.174 16.2278 12.3029ZM12.0559 12.174L10.4622 9.3967C11.3059 8.51779 12.0442 7.68576 13.0989 6.92404L14.7043 9.67795C13.6731 10.4514 12.97 11.2365 12.0559 12.174ZM7.802 11.8459L6.40747 9.42013C7.49732 8.69357 8.31763 7.86154 9.09107 7.02951L10.4622 9.3967C9.64185 10.299 8.83325 11.1194 7.802 11.8459ZM10.9192 17.2483L9.39575 14.6115C10.427 13.8498 11.2122 13.1115 12.0559 12.174L13.5208 14.7053C12.7004 15.5959 11.9153 16.4983 10.9192 17.2483ZM6.40747 16.0412L4.81372 13.2756C5.29419 13.1467 6.1145 12.8537 7.06372 12.3029C7.32154 12.1623 7.54419 11.9865 7.802 11.8459L9.39575 14.6115C9.1731 14.7756 8.95044 14.9045 8.65747 15.0686C7.802 15.5608 7.052 15.8772 6.40747 16.0412Z" fill="black" fill-opacity="0.85"/>
 </g>
</svg>
