<?xml version="1.0" encoding="UTF-8"?>
<!--Generator: Apple Native CoreSVG 360-->
<!DOCTYPE svg
PUBLIC "-//W3C//DTD SVG 1.1//EN"
       "http://www.w3.org/Graphics/SVG/1.1/DTD/svg11.dtd">
<svg version="1.1" xmlns="http://www.w3.org/2000/svg" xmlns:xlink="http://www.w3.org/1999/xlink" viewBox="0 0 21.6562 23.0039">
 <g>
  <rect height="23.0039" opacity="0" width="21.6562" x="0" y="0"/>
  <path d="M1.73438 23.0039C2.22656 23.0039 2.625 22.6172 2.625 22.125L2.625 15.6094C2.91797 15.4805 4.01953 15.0586 5.74219 15.0586C10.0781 15.0586 12.7969 17.1797 16.9219 17.1797C18.75 17.1797 19.4297 16.9805 20.3203 16.582C21.1289 16.2188 21.6562 15.6094 21.6562 14.5312L21.6562 2.63672C21.6562 2.00391 21.1172 1.64062 20.4375 1.64062C19.8633 1.64062 18.7852 2.13281 16.7695 2.13281C12.6445 2.13281 9.9375 0.0117188 5.58984 0.0117188C3.76172 0.0117188 3.07031 0.210938 2.17969 0.609375C1.37109 0.972656 0.84375 1.58203 0.84375 2.64844L0.84375 22.125C0.84375 22.6055 1.25391 23.0039 1.73438 23.0039ZM2.625 10.2539L2.625 6.28125C2.78906 5.89453 3.76172 5.35547 5.58984 5.35547C5.96484 5.35547 6.48047 5.37891 6.89062 5.42578L6.89062 1.85156C8.47266 2.01562 9.86719 2.47266 11.2969 2.89453L11.2969 6.46875C12.75 6.91406 14.1094 7.28906 15.6914 7.42969L15.6914 3.85547C16.043 3.89062 16.3945 3.90234 16.7695 3.90234C18.0469 3.90234 19.1016 3.75 19.8867 3.52734L19.8867 7.10156C19.3008 7.26562 18.1758 7.47656 16.7695 7.47656C16.4062 7.47656 16.0312 7.45312 15.6914 7.42969L15.6914 11.4023C16.0312 11.4375 16.3594 11.4492 16.7695 11.4492C18.0469 11.4492 19.1016 11.2969 19.8867 11.0742L19.8867 14.4844C19.7227 14.8711 18.75 15.4102 16.9219 15.4102C16.5 15.4102 16.0898 15.3867 15.6914 15.3398L15.6914 11.4023C14.1094 11.2266 12.7969 10.9336 11.2969 10.4414L11.2969 14.2734C9.9375 13.8633 8.53125 13.4648 6.89062 13.3242L6.89062 9.39844C6.44531 9.35156 6.14062 9.32812 5.58984 9.32812C3.76172 9.32812 2.78906 9.86719 2.625 10.2539ZM6.89062 9.39844C8.50781 9.57422 9.73828 9.98438 11.2969 10.4414L11.2969 6.46875C9.83203 6.03516 8.51953 5.58984 6.89062 5.42578Z" fill="black" fill-opacity="0.85"/>
 </g>
</svg>
