<?xml version="1.0" encoding="UTF-8"?>
<!--Generator: Apple Native CoreSVG 360-->
<!DOCTYPE svg
PUBLIC "-//W3C//DTD SVG 1.1//EN"
       "http://www.w3.org/Graphics/SVG/1.1/DTD/svg11.dtd">
<svg version="1.1" xmlns="http://www.w3.org/2000/svg" xmlns:xlink="http://www.w3.org/1999/xlink" viewBox="0 0 21.6562 23.0039">
 <g>
  <rect height="23.0039" opacity="0" width="21.6562" x="0" y="0"/>
  <path d="M1.73438 23.0039C2.22656 23.0039 2.625 22.6172 2.625 22.125L2.625 15.6094C2.91797 15.4805 4.01953 15.0586 5.74219 15.0586C10.0781 15.0586 12.7969 17.1797 16.9219 17.1797C18.75 17.1797 19.4297 16.9805 20.3203 16.582C21.1289 16.2188 21.6562 15.6094 21.6562 14.5312L21.6562 2.63672C21.6562 2.00391 21.1172 1.64062 20.4375 1.64062C19.8633 1.64062 18.7852 2.13281 16.7695 2.13281C12.6445 2.13281 9.9375 0.0117188 5.58984 0.0117188C3.76172 0.0117188 3.07031 0.210938 2.17969 0.609375C1.37109 0.972656 0.84375 1.58203 0.84375 2.64844L0.84375 22.125C0.84375 22.6055 1.25391 23.0039 1.73438 23.0039ZM16.9219 15.4102C13.0195 15.4102 10.2539 13.2891 5.74219 13.2891C4.45312 13.2891 3.28125 13.4414 2.625 13.7109L2.625 2.70703C2.78906 2.32031 3.76172 1.78125 5.58984 1.78125C9.71484 1.78125 12.4688 3.90234 16.7695 3.90234C18.0469 3.90234 19.1016 3.75 19.8867 3.52734L19.8867 14.4844C19.7227 14.8711 18.75 15.4102 16.9219 15.4102Z" fill="black" fill-opacity="0.85"/>
 </g>
</svg>
