<?xml version="1.0" encoding="UTF-8"?>
<!--Generator: Apple Native CoreSVG 360-->
<!DOCTYPE svg
PUBLIC "-//W3C//DTD SVG 1.1//EN"
       "http://www.w3.org/Graphics/SVG/1.1/DTD/svg11.dtd">
<svg version="1.1" xmlns="http://www.w3.org/2000/svg" xmlns:xlink="http://www.w3.org/1999/xlink" viewBox="0 0 22.0078 30.0586">
 <g>
  <rect height="30.0586" opacity="0" width="22.0078" x="0" y="0"/>
  <path d="M18.1055 30.0586C19.6406 30.0586 20.8711 29.2734 21.4102 28.1836C21.5625 27.8906 21.6562 27.5977 21.6562 27.2812C21.6562 26.8008 21.3398 26.4961 20.8008 26.4961C20.3906 26.4961 20.1445 26.7539 20.0508 27.1172C19.7578 28.0781 19.0195 28.6523 18.0469 28.6523C16.1953 28.6523 15.7969 26.4961 15.7969 24.9375C15.7969 23.2383 16.2656 21.2578 18.0469 21.2578C18.9961 21.2578 19.6758 21.7969 20.0391 22.8164C20.1914 23.25 20.4023 23.4492 20.8008 23.4492C21.3516 23.4492 21.6211 23.1328 21.6211 22.7227C21.6211 22.3125 21.4805 21.9258 21.293 21.5977C20.707 20.4844 19.3828 19.8516 18.0234 19.8516C15.2227 19.8516 13.9688 22.0547 13.9688 24.9492C13.9688 27.8789 15.2461 30.0586 18.1055 30.0586ZM9.01172 20.8359C9.01172 20.2617 8.66016 19.9102 8.12109 19.9102C7.57031 19.9102 7.24219 20.2617 7.24219 20.8359L7.24219 29.0156C7.24219 29.5898 7.58203 29.9414 8.12109 29.9414L12.2227 29.9414C12.75 29.9414 13.0664 29.6367 13.0664 29.1445C13.0664 28.6523 12.75 28.3594 12.2227 28.3594L9.01172 28.3594Z" fill="black" fill-opacity="0.85"/>
  <path d="M0.890625 23.2148C1.38281 23.2148 1.76953 22.8281 1.76953 22.3359L1.76953 15.8203C2.07422 15.6914 3.17578 15.2695 4.88672 15.2695C9.23438 15.2695 11.9531 17.3906 16.0664 17.3906C17.9062 17.3906 18.5859 17.1914 19.4766 16.793C20.2852 16.4297 20.8125 15.8203 20.8125 14.7539L20.8125 2.84766C20.8125 2.21484 20.2734 1.85156 19.5938 1.85156C19.0078 1.85156 17.9297 2.34375 15.9258 2.34375C11.8008 2.34375 9.08203 0.222656 4.74609 0.222656C2.90625 0.222656 2.22656 0.421875 1.33594 0.820312C0.527344 1.18359 0 1.79297 0 2.85938L0 22.3359C0 22.8164 0.410156 23.2148 0.890625 23.2148ZM1.76953 10.4648L1.76953 6.49219C1.93359 6.10547 2.91797 5.56641 4.74609 5.56641C5.12109 5.56641 5.625 5.58984 6.04688 5.63672L6.04688 2.0625C7.61719 2.22656 9.02344 2.68359 10.4414 3.10547L10.4414 6.67969C11.8945 7.125 13.2656 7.5 14.8477 7.64062L14.8477 4.06641C15.1875 4.10156 15.5508 4.11328 15.9258 4.11328C17.2031 4.11328 18.2578 3.96094 19.043 3.73828L19.043 7.3125C18.457 7.47656 17.3203 7.6875 15.9258 7.6875C15.5625 7.6875 15.1875 7.66406 14.8477 7.64062L14.8477 11.625C15.1875 11.6484 15.5039 11.6602 15.9258 11.6602C17.2031 11.6602 18.2578 11.5078 19.043 11.2852L19.043 14.6953C18.8789 15.082 17.9062 15.6211 16.0664 15.6211C15.6445 15.6211 15.2461 15.5977 14.8477 15.5508L14.8477 11.625C13.2656 11.4375 11.9531 11.1445 10.4414 10.6523L10.4414 14.4844C9.09375 14.0742 7.67578 13.6758 6.04688 13.5469L6.04688 9.60938C5.58984 9.57422 5.29688 9.53906 4.74609 9.53906C2.91797 9.53906 1.93359 10.0781 1.76953 10.4648ZM6.04688 9.60938C7.66406 9.79688 8.89453 10.1953 10.4414 10.6523L10.4414 6.67969C8.97656 6.24609 7.67578 5.80078 6.04688 5.63672Z" fill="black" fill-opacity="0.85"/>
 </g>
</svg>
