<?xml version="1.0" encoding="UTF-8"?>
<!--Generator: Apple Native CoreSVG 360-->
<!DOCTYPE svg
PUBLIC "-//W3C//DTD SVG 1.1//EN"
       "http://www.w3.org/Graphics/SVG/1.1/DTD/svg11.dtd">
<svg version="1.1" xmlns="http://www.w3.org/2000/svg" xmlns:xlink="http://www.w3.org/1999/xlink" viewBox="0 0 26.4492 22.6055">
 <g>
  <rect height="22.6055" opacity="0" width="26.4492" x="0" y="0"/>
  <path d="M13.043 0C5.83594 0 0 5.83594 0 13.043C0 16.5938 1.41797 19.8516 3.77344 22.2188C4.17188 22.6172 4.79297 22.6406 5.23828 22.2305C5.60156 21.8672 5.53125 21.2344 5.0625 20.7305C3.17578 18.7617 2.02734 16.0195 2.02734 13.043C2.02734 6.87891 6.89062 1.99219 13.043 1.99219C19.207 1.99219 24.0703 6.87891 24.0703 13.043C24.0703 16.0195 22.9219 18.7617 21.0352 20.7305C20.5664 21.2344 20.4961 21.8672 20.8594 22.2305C21.3047 22.6406 21.9258 22.6172 22.3242 22.2188C24.6797 19.8516 26.0977 16.5938 26.0977 13.043C26.0977 5.83594 20.2617 0 13.043 0Z" fill="black" fill-opacity="0.85"/>
  <path d="M13.1016 20.3086C16.4766 20.3086 18.7031 18.0117 18.7031 14.6016C18.7031 8.89453 13.8516 6.51562 10.4883 6.51562C9.89062 6.51562 9.52734 6.73828 9.52734 7.14844C9.52734 7.30078 9.58594 7.46484 9.71484 7.62891C10.4648 8.51953 11.2266 9.58594 11.2383 10.8516C11.2383 11.1445 11.2148 11.4023 11.0039 11.7422L11.3203 11.6836C11.0273 10.7578 10.2656 10.0898 9.59766 10.0898C9.33984 10.0898 9.16406 10.2773 9.16406 10.5703C9.16406 10.7227 9.21094 11.1211 9.21094 11.4023C9.21094 12.832 8.10938 13.6641 8.10938 15.9609C8.10938 18.5625 10.1016 20.3086 13.1016 20.3086ZM13.2539 18.5039C12.0703 18.5039 11.2734 17.7891 11.2734 16.7109C11.2734 15.5977 12.0703 15.1992 12.1758 14.4844C12.1875 14.4141 12.2227 14.4023 12.2695 14.4375C12.5625 14.6953 12.7383 15.0234 12.9141 15.3867C13.2539 14.9297 13.4062 13.957 13.3008 12.9375C13.2891 12.8555 13.3359 12.832 13.3828 12.8555C14.7891 13.5117 15.4922 14.8945 15.4922 16.1367C15.4922 17.3906 14.7773 18.5039 13.2539 18.5039Z" fill="black" fill-opacity="0.85"/>
 </g>
</svg>
