<?xml version="1.0" encoding="UTF-8"?>
<!--Generator: Apple Native CoreSVG 360-->
<!DOCTYPE svg
PUBLIC "-//W3C//DTD SVG 1.1//EN"
       "http://www.w3.org/Graphics/SVG/1.1/DTD/svg11.dtd">
<svg version="1.1" xmlns="http://www.w3.org/2000/svg" xmlns:xlink="http://www.w3.org/1999/xlink" viewBox="0 0 22.7578 24.5977">
 <g>
  <rect height="24.5977" opacity="0" width="22.7578" x="0" y="0"/>
  <path d="M3.19922 24.5742L19.207 24.5742C21.1992 24.5742 22.4062 23.1914 22.4062 21.3984C22.4062 20.8008 22.1133 20.0039 21.5625 19.207L15.2227 10.1133L13.7227 11.1562L20.2852 20.5664C20.4961 20.8828 20.5078 21.1641 20.5078 21.3867C20.5078 22.1016 20.0039 22.7344 19.1953 22.7344L3.21094 22.7344C2.39062 22.7344 1.89844 22.1016 1.89844 21.3867C1.89844 21.1641 1.91016 20.8828 2.12109 20.5664L8.67188 11.1562L7.18359 10.1133L0.738281 19.3477C0.246094 20.0508 0 20.8008 0 21.3984C0 23.1914 1.20703 24.5742 3.19922 24.5742ZM6.79688 11.1562L8.67188 11.1562L8.67188 0.984375L6.79688 0.984375ZM15.6094 11.1562L15.6094 0.984375L13.7227 0.984375L13.7227 11.1562ZM6.71484 1.96875L15.6797 1.96875C16.2656 1.96875 16.6758 1.51172 16.6758 0.972656C16.6758 0.433594 16.2656 0 15.6797 0L6.71484 0C6.12891 0 5.73047 0.433594 5.73047 0.972656C5.73047 1.51172 6.12891 1.96875 6.71484 1.96875ZM7.6875 5.00391L10.8047 5.00391C11.1914 5.00391 11.4844 4.71094 11.4844 4.3125C11.4844 3.94922 11.168 3.63281 10.793 3.63281L7.6875 3.63281ZM7.69922 8.35547L10.8164 8.35547C11.2031 8.35547 11.4961 8.05078 11.4961 7.65234C11.4961 7.28906 11.1797 6.98438 10.8047 6.98438L7.69922 6.98438ZM7.69922 11.6953L10.8164 11.6953C11.2031 11.6953 11.4961 11.4023 11.4961 11.0039C11.4961 10.6406 11.1914 10.3242 10.8164 10.3242L7.69922 10.3242Z" fill="black" fill-opacity="0.85"/>
 </g>
</svg>
