<?xml version="1.0" encoding="UTF-8"?>
<!--Generator: Apple Native CoreSVG 360-->
<!DOCTYPE svg
PUBLIC "-//W3C//DTD SVG 1.1//EN"
       "http://www.w3.org/Graphics/SVG/1.1/DTD/svg11.dtd">
<svg version="1.1" xmlns="http://www.w3.org/2000/svg" xmlns:xlink="http://www.w3.org/1999/xlink" viewBox="0 0 16.7461 24.1523">
 <g>
  <rect height="24.1523" opacity="0" width="16.7461" x="0" y="0"/>
  <path d="M8.20312 24.1523C13.2539 24.1523 16.3945 21.2461 16.3945 16.1953L16.3945 6.57422C16.3945 4.71094 15.1641 3.52734 13.207 3.52734L1.88672 3.52734L1.88672 0.960938C1.88672 0.445312 1.46484 0.0117188 0.9375 0.0117188C0.421875 0.0117188 0 0.445312 0 0.960938L0 16.1953C0 21.2461 3.14062 24.1523 8.20312 24.1523ZM8.20312 22.3125C4.34766 22.3125 1.88672 20.1211 1.88672 16.3242L1.88672 5.41406L12.9609 5.41406C13.9453 5.41406 14.5078 5.95312 14.5078 6.87891L14.5078 16.3242C14.5078 20.1211 12.0586 22.3125 8.20312 22.3125ZM4.08984 14.4961L12.3047 14.4961C12.9492 14.4961 13.3359 14.1094 13.3359 13.4883L13.3359 7.60547C13.3359 6.97266 12.9492 6.58594 12.3047 6.58594L4.08984 6.58594C3.45703 6.58594 3.05859 6.97266 3.05859 7.60547L3.05859 13.4883C3.05859 14.1094 3.45703 14.4961 4.08984 14.4961ZM6.53906 20.2969L9.79688 20.2969C10.2422 20.2969 10.5938 19.9453 10.5938 19.5C10.5938 19.0547 10.2422 18.7031 9.79688 18.7031L6.53906 18.7031C6.10547 18.7031 5.74219 19.0547 5.74219 19.5C5.74219 19.9453 6.10547 20.2969 6.53906 20.2969Z" fill="black" fill-opacity="0.85"/>
 </g>
</svg>
