<?xml version="1.0" encoding="UTF-8"?>
<!--Generator: Apple Native CoreSVG 360-->
<!DOCTYPE svg
PUBLIC "-//W3C//DTD SVG 1.1//EN"
       "http://www.w3.org/Graphics/SVG/1.1/DTD/svg11.dtd">
<svg version="1.1" xmlns="http://www.w3.org/2000/svg" xmlns:xlink="http://www.w3.org/1999/xlink" viewBox="0 0 26.5195 25.0195">
 <g>
  <rect height="25.0195" opacity="0" width="26.5195" x="0" y="0"/>
  <path d="M1.55859 22.2188L24.6094 22.2188L24.6094 21.4336C24.6094 20.9648 24.3398 20.6836 23.8594 20.6836L23.1094 20.6836L23.1094 8.03906L24.1406 8.03906C24.7852 8.03906 25.1602 7.57031 25.1602 7.08984C25.1602 6.73828 24.9609 6.43359 24.5273 6.1875L14.5195 0.410156C14.0508 0.140625 13.5586 0 13.0781 0C12.5977 0 12.0938 0.140625 11.6484 0.410156L1.64062 6.1875C1.19531 6.43359 1.00781 6.73828 1.00781 7.08984C1.00781 7.57031 1.38281 8.03906 2.02734 8.03906L3.05859 8.03906L3.05859 20.6836L2.32031 20.6836C1.83984 20.6836 1.55859 20.9648 1.55859 21.4336ZM4.82812 20.6836L4.82812 6.53906L12.6211 2.16797C12.7617 2.08594 12.9258 2.03906 13.0781 2.03906C13.2305 2.03906 13.3945 2.08594 13.5469 2.16797L21.3398 6.53906L21.3398 20.6836ZM0.9375 25.0078L25.2188 25.0078C25.7344 25.0078 26.168 24.5742 26.168 24.0586C26.168 23.543 25.7344 23.1211 25.2188 23.1211L0.9375 23.1211C0.421875 23.1211 0 23.543 0 24.0586C0 24.5742 0.421875 25.0078 0.9375 25.0078Z" fill="black" fill-opacity="0.85"/>
  <path d="M10.2539 17.5898C12.0938 17.5898 12.9844 16.6406 13.2656 14.8477L13.6523 12.5625L16.1719 12.5625C16.4648 12.5625 16.6758 12.375 16.6758 12.1055C16.6758 11.8242 16.4648 11.625 16.1719 11.625L13.8047 11.625L14.0977 9.89062C14.2852 8.78906 14.8477 8.25 15.9492 8.25C16.3828 8.25 16.6641 8.34375 16.9336 8.34375C17.2852 8.34375 17.4609 8.16797 17.4609 7.86328C17.4609 7.57031 17.2383 7.37109 16.957 7.26562C16.6406 7.125 16.1602 7.08984 15.832 7.08984C14.0508 7.08984 13.0547 8.01562 12.7734 9.78516L12.457 11.625L10.0898 11.625C9.79688 11.625 9.59766 11.8242 9.59766 12.1055C9.59766 12.375 9.79688 12.5625 10.0898 12.5625L12.3047 12.5625L11.9531 14.6836C11.7656 15.8203 11.2852 16.418 10.125 16.418C9.65625 16.418 9.51562 16.3477 9.09375 16.3477C8.80078 16.3477 8.61328 16.5469 8.61328 16.8164C8.61328 17.1211 8.80078 17.2969 9.09375 17.4258C9.43359 17.5664 9.89062 17.5898 10.2539 17.5898Z" fill="black" fill-opacity="0.85"/>
 </g>
</svg>
