<?xml version="1.0" encoding="UTF-8"?>
<!--Generator: Apple Native CoreSVG 360-->
<!DOCTYPE svg
PUBLIC "-//W3C//DTD SVG 1.1//EN"
       "http://www.w3.org/Graphics/SVG/1.1/DTD/svg11.dtd">
<svg version="1.1" xmlns="http://www.w3.org/2000/svg" xmlns:xlink="http://www.w3.org/1999/xlink" viewBox="0 0 17.9883 21.0117">
 <g>
  <rect height="21.0117" opacity="0" width="17.9883" x="0" y="0"/>
  <path d="M3.23438 21C6.87891 21 8.60156 19.0195 9.1875 15.5391L9.99609 10.8633L15.1523 10.8633C15.6914 10.8633 16.0781 10.5117 16.0781 9.99609C16.0781 9.45703 15.6914 9.07031 15.1523 9.07031L10.2891 9.07031L10.8867 5.57812C11.2852 3.31641 12.3516 2.17969 14.6484 2.17969C15.5742 2.17969 15.9961 2.39062 16.7109 2.39062C17.2734 2.39062 17.6367 2.0625 17.6367 1.48828C17.6367 0.902344 17.1328 0.515625 16.6172 0.328125C15.9375 0.0703125 15.0586 0 14.4258 0C10.8984 0 8.96484 1.875 8.37891 5.36719L7.73438 9.07031L2.87109 9.07031C2.33203 9.07031 1.94531 9.45703 1.94531 9.99609C1.94531 10.5117 2.33203 10.8633 2.87109 10.8633L7.44141 10.8633L6.69141 15.2461C6.28125 17.5547 5.35547 18.7969 2.97656 18.7969C2.25 18.7969 1.48828 18.6211 0.960938 18.6211C0.398438 18.6211 0 18.9375 0 19.5117C0 20.0742 0.351562 20.4258 0.890625 20.6484C1.59375 20.9297 2.48438 21 3.23438 21Z" fill="black" fill-opacity="0.85"/>
 </g>
</svg>
