<?xml version="1.0" encoding="UTF-8"?>
<!--Generator: Apple Native CoreSVG 360-->
<!DOCTYPE svg
PUBLIC "-//W3C//DTD SVG 1.1//EN"
       "http://www.w3.org/Graphics/SVG/1.1/DTD/svg11.dtd">
<svg version="1.1" xmlns="http://www.w3.org/2000/svg" xmlns:xlink="http://www.w3.org/1999/xlink" viewBox="0 0 28.582 23.5195">
 <g>
  <rect height="23.5195" opacity="0" width="28.582" x="0" y="0"/>
  <path d="M28.2305 14.1094C28.2305 10.6641 26.9883 7.48828 24.9141 5.02734C24.6797 4.74609 24.2812 4.74609 24.0234 5.01562L21.3047 7.73438C21.082 7.95703 21.0703 8.27344 21.2695 8.51953C22.4766 10.0664 23.2031 12.0117 23.2031 14.1094C23.2031 16.2188 22.4766 18.1641 21.1992 19.793C21.0352 19.9922 21.0469 20.25 21.2227 20.4375L24.0117 23.2266C24.2812 23.4961 24.668 23.4961 24.9141 23.2031C26.9883 20.7422 28.2305 17.5664 28.2305 14.1094Z" fill="black" fill-opacity="0.85"/>
  <path d="M14.1094 5.02734C16.2305 5.02734 18.1758 5.76562 19.7344 6.97266C19.9688 7.16016 20.2734 7.13672 20.4961 6.91406L23.2148 4.19531C23.4844 3.92578 23.4727 3.53906 23.1914 3.30469C20.7422 1.24219 17.5664 0 14.1094 0C10.6641 0 7.48828 1.24219 5.03906 3.30469C4.75781 3.53906 4.74609 3.92578 5.01562 4.19531L7.73438 6.91406C7.95703 7.13672 8.27344 7.16016 8.53125 6.96094C10.0781 5.76562 12.0117 5.02734 14.1094 5.02734Z" fill="black" fill-opacity="0.85"/>
  <path d="M0 14.1094C0 17.5664 1.24219 20.7422 3.31641 23.2031C3.55078 23.4961 3.94922 23.4961 4.20703 23.2266L6.99609 20.4375C7.17188 20.25 7.19531 19.9922 7.03125 19.793C5.75391 18.1641 5.02734 16.2188 5.02734 14.1094C5.02734 12.0117 5.74219 10.0664 6.96094 8.51953C7.14844 8.27344 7.14844 7.95703 6.92578 7.73438L4.20703 5.01562C3.9375 4.74609 3.55078 4.74609 3.31641 5.02734C1.24219 7.48828 0 10.6641 0 14.1094Z" fill="black" fill-opacity="0.85"/>
  <path d="M11.2617 19.5234C13.1016 19.5234 13.9922 18.5742 14.2852 16.7812L14.6602 14.4961L17.1914 14.4961C17.4727 14.4961 17.6836 14.3086 17.6836 14.0391C17.6836 13.7578 17.4727 13.5586 17.1914 13.5586L14.8125 13.5586L15.1055 11.8242C15.293 10.7227 15.8555 10.1836 16.9688 10.1836C17.3906 10.1836 17.6836 10.2773 17.9414 10.2773C18.293 10.2773 18.4805 10.1016 18.4805 9.79688C18.4805 9.50391 18.2461 9.30469 17.9766 9.19922C17.6484 9.05859 17.168 9.02344 16.8516 9.02344C15.0703 9.02344 14.0742 9.94922 13.7812 11.7188L13.4766 13.5586L11.1094 13.5586C10.8164 13.5586 10.6055 13.7578 10.6055 14.0391C10.6055 14.3086 10.8164 14.4961 11.1094 14.4961L13.3242 14.4961L12.9609 16.6172C12.7734 17.7539 12.293 18.3516 11.1328 18.3516C10.6641 18.3516 10.5234 18.2812 10.1016 18.2812C9.80859 18.2812 9.62109 18.4805 9.62109 18.75C9.62109 19.0547 9.80859 19.2305 10.1133 19.3594C10.4414 19.5 10.8984 19.5234 11.2617 19.5234Z" fill="black" fill-opacity="0.85"/>
 </g>
</svg>
