<?xml version="1.0" encoding="UTF-8"?>
<!--Generator: Apple Native CoreSVG 360-->
<!DOCTYPE svg
PUBLIC "-//W3C//DTD SVG 1.1//EN"
       "http://www.w3.org/Graphics/SVG/1.1/DTD/svg11.dtd">
<svg version="1.1" xmlns="http://www.w3.org/2000/svg" xmlns:xlink="http://www.w3.org/1999/xlink" viewBox="0 0 28.582 23.4085">
 <g>
  <rect height="23.4085" opacity="0" width="28.582" x="0" y="0"/>
  <path d="M28.2305 14.0539C28.2305 6.67105 22.5586 0.612457 15.3398 0.00308175C14.9648-0.0320745 14.6836 0.237457 14.6836 0.612457L14.6836 4.44449C14.6836 4.76089 14.9062 5.00699 15.2227 5.03043C19.7109 5.58121 23.2031 9.41324 23.2031 14.0539C23.2031 16.1632 22.4766 18.1086 21.1992 19.7375C21.0352 19.9367 21.0469 20.1945 21.2227 20.382L24.0234 23.1711C24.2812 23.4289 24.6797 23.4289 24.9141 23.1476C26.9883 20.6867 28.2305 17.5109 28.2305 14.0539Z" fill="black" fill-opacity="0.85"/>
  <path d="M0 14.0539C0 17.5226 1.24219 20.6984 3.31641 23.1593C3.55078 23.4406 3.9375 23.4289 4.20703 23.1711L7.00781 20.382C7.18359 20.1945 7.19531 19.9367 7.03125 19.7375C5.74219 18.1086 5.02734 16.1632 5.02734 14.0539C5.02734 9.41324 8.51953 5.58121 13.0078 5.03043C13.3242 5.00699 13.5469 4.76089 13.5469 4.44449L13.5469 0.612457C13.5469 0.237457 13.2656-0.0320745 12.8906 0.00308175C5.67188 0.612457 0 6.67105 0 14.0539Z" fill="black" fill-opacity="0.85"/>
  <path d="M11.2617 19.4679C13.1016 19.4679 13.9922 18.5187 14.2852 16.7257L14.6602 14.4406L17.1914 14.4406C17.4727 14.4406 17.6836 14.2531 17.6836 13.9836C17.6836 13.7023 17.4727 13.5031 17.1914 13.5031L14.8125 13.5031L15.1055 11.7687C15.293 10.6671 15.8555 10.1281 16.9688 10.1281C17.3906 10.1281 17.6836 10.2218 17.9414 10.2218C18.293 10.2218 18.4805 10.0461 18.4805 9.74136C18.4805 9.44839 18.2461 9.24918 17.9766 9.14371C17.6484 9.00308 17.168 8.96793 16.8516 8.96793C15.0703 8.96793 14.0742 9.89371 13.7812 11.6632L13.4766 13.5031L11.1094 13.5031C10.8164 13.5031 10.6055 13.7023 10.6055 13.9836C10.6055 14.2531 10.8164 14.4406 11.1094 14.4406L13.3242 14.4406L12.9609 16.5617C12.7734 17.6984 12.293 18.2961 11.1328 18.2961C10.6641 18.2961 10.5234 18.2257 10.1016 18.2257C9.80859 18.2257 9.62109 18.425 9.62109 18.6945C9.62109 18.9992 9.80859 19.175 10.1133 19.3039C10.4414 19.4445 10.8984 19.4679 11.2617 19.4679Z" fill="black" fill-opacity="0.85"/>
 </g>
</svg>
