<?xml version="1.0" encoding="UTF-8"?>
<!--Generator: Apple Native CoreSVG 360-->
<!DOCTYPE svg
PUBLIC "-//W3C//DTD SVG 1.1//EN"
       "http://www.w3.org/Graphics/SVG/1.1/DTD/svg11.dtd">
<svg version="1.1" xmlns="http://www.w3.org/2000/svg" xmlns:xlink="http://www.w3.org/1999/xlink" viewBox="0 0 26.7422 26.1166">
 <g>
  <rect height="26.1166" opacity="0" width="26.7422" x="0" y="0"/>
  <path d="M15.4805 0.114929C15.7969 0.173523 15.9844 0.372741 16.043 0.689148L16.2188 2.0368C16.8398 2.21259 17.4258 2.43524 17.9883 2.69305L18.9961 1.76727C19.2422 1.55634 19.5234 1.52118 19.793 1.68524C20.0625 1.83759 20.168 2.0954 20.1094 2.4118L19.8164 3.74774C20.3203 4.11102 20.8008 4.52118 21.2461 4.97821L22.5352 4.43915C22.8281 4.32196 23.0977 4.38055 23.2969 4.62665C23.4961 4.87274 23.5195 5.14227 23.3555 5.42352L22.6055 6.5954C22.9688 7.11102 23.2734 7.63837 23.543 8.20087L24.9258 8.15399C25.2539 8.14227 25.4883 8.30634 25.582 8.5993C25.6992 8.89227 25.6289 9.15009 25.3711 9.36102L24.2578 10.2165C24.4102 10.8141 24.5156 11.4235 24.5742 12.0446L25.9219 12.4665C26.2266 12.572 26.3906 12.7946 26.3906 13.111C26.3906 13.4274 26.2266 13.6501 25.9219 13.7438L24.5625 14.1774C24.5039 14.7985 24.3984 15.3962 24.2461 15.9821L25.3711 16.861C25.6289 17.0602 25.6992 17.3298 25.5938 17.6227C25.4883 17.9157 25.2539 18.0681 24.9375 18.0563L23.4844 17.9977C23.2148 18.5602 22.9219 19.0759 22.582 19.5681L23.3555 20.7985C23.5195 21.0798 23.4961 21.3493 23.2969 21.5954C23.0977 21.8415 22.8281 21.8884 22.5352 21.7712L21.1758 21.2204C20.7539 21.6423 20.2852 22.029 19.793 22.3688L20.1094 23.8102C20.168 24.1149 20.0625 24.3845 19.793 24.5368C19.5234 24.6891 19.2422 24.6657 18.9961 24.4548L17.918 23.4587C17.3789 23.7048 16.8164 23.904 16.2422 24.0681L16.043 25.5212C15.9844 25.8493 15.7969 26.0485 15.4805 26.1071C15.1758 26.154 14.9297 26.0251 14.7773 25.7556L14.0859 24.4431C13.793 24.4665 13.4883 24.4782 13.1953 24.4782C12.9023 24.4782 12.6094 24.4665 12.3047 24.4431L11.6133 25.7438C11.4609 26.0251 11.2031 26.154 10.9102 26.1071C10.5938 26.0485 10.4062 25.8493 10.3477 25.5212L10.1484 24.0681C9.57422 23.904 9.01172 23.7048 8.47266 23.4587L7.39453 24.4548C7.14844 24.6657 6.86719 24.7009 6.59766 24.5368C6.32812 24.3727 6.22266 24.1266 6.28125 23.8102L6.59766 22.3688C6.10547 22.029 5.63672 21.6423 5.21484 21.2204L3.85547 21.7712C3.5625 21.9001 3.29297 21.8415 3.09375 21.5954C2.89453 21.3493 2.87109 21.0798 3.03516 20.7985L3.80859 19.5681C3.46875 19.0759 3.17578 18.5602 2.90625 18.0095L1.45312 18.0563C1.13672 18.0798 0.902344 17.9157 0.808594 17.6227C0.691406 17.3181 0.761719 17.072 1.01953 16.861L2.14453 15.9821C1.99219 15.3962 1.88672 14.7985 1.82812 14.1774L0.46875 13.7438C0.164062 13.6501 0 13.4274 0 13.111C0 12.7946 0.164062 12.572 0.46875 12.4665L1.81641 12.0446C1.875 11.4235 1.98047 10.8141 2.13281 10.2165L1.01953 9.36102C0.761719 9.1618 0.691406 8.89227 0.796875 8.5993C0.902344 8.30634 1.13672 8.14227 1.45312 8.16571L2.84766 8.20087C3.11719 7.63837 3.42188 7.11102 3.78516 6.5954L3.03516 5.42352C2.87109 5.14227 2.89453 4.87274 3.09375 4.62665C3.29297 4.38055 3.5625 4.32196 3.85547 4.43915L5.13281 4.97821C5.57812 4.5329 6.07031 4.11102 6.57422 3.74774L6.28125 2.4118C6.22266 2.0954 6.32812 1.83759 6.59766 1.68524C6.86719 1.52118 7.14844 1.55634 7.39453 1.76727L8.40234 2.69305C8.96484 2.43524 9.55078 2.21259 10.1719 2.0368L10.3477 0.689148C10.4062 0.372741 10.5938 0.161804 10.9102 0.114929C11.2031 0.0680538 11.4609 0.185241 11.6133 0.466491L12.2578 1.67352C12.5742 1.65009 12.8789 1.63837 13.1953 1.63837C13.5117 1.63837 13.8164 1.65009 14.1328 1.67352L14.7656 0.466491C14.9297 0.185241 15.1758 0.0680538 15.4805 0.114929ZM3.67969 13.0524C3.67969 14.1877 3.87915 15.2769 4.25524 16.282C3.98242 16.0969 3.73759 15.8746 3.52734 15.6188C4.55859 19.861 8.54297 23.1423 13.207 23.1423C17.8828 23.1423 21.8789 19.8376 22.8633 15.6188C22.6529 15.8748 22.4079 16.0972 22.1353 16.2823C22.5114 15.2772 22.7109 14.1878 22.7109 13.0524C22.7109 7.80243 18.4453 3.5368 13.1953 3.5368C7.94531 3.5368 3.67969 7.80243 3.67969 13.0524Z" fill="black" fill-opacity="0.85"/>
  <path d="M13.207 23.1423C17.8828 23.1423 21.8789 19.8376 22.8633 15.6188C22.1602 16.4743 21.0703 16.9548 19.875 16.9548C18.7266 16.9548 17.6719 16.5095 16.957 15.7126C16.6875 15.4313 16.4062 15.4196 16.1367 15.7126C15.4688 16.4743 14.3906 16.9548 13.1953 16.9548C12 16.9548 10.9219 16.4743 10.2539 15.7126C9.98438 15.4196 9.70312 15.4313 9.43359 15.7126C8.71875 16.5095 7.67578 16.9548 6.52734 16.9548C5.32031 16.9548 4.23047 16.4743 3.52734 15.6188C4.55859 19.861 8.54297 23.1423 13.207 23.1423Z" fill="black" fill-opacity="0.85"/>
 </g>
</svg>
