<?xml version="1.0" encoding="UTF-8"?>
<!--Generator: Apple Native CoreSVG 360-->
<!DOCTYPE svg
PUBLIC "-//W3C//DTD SVG 1.1//EN"
       "http://www.w3.org/Graphics/SVG/1.1/DTD/svg11.dtd">
<svg version="1.1" xmlns="http://www.w3.org/2000/svg" xmlns:xlink="http://www.w3.org/1999/xlink" viewBox="0 0 27.9844 23.4961">
 <g>
  <rect height="23.4961" opacity="0" width="27.9844" x="0" y="0"/>
  <path d="M3.67969 22.5234L23.9531 22.5234C26.4141 22.5234 27.6328 21.3164 27.6328 18.9023L27.6328 7.57031C27.6328 5.15625 26.4141 3.94922 23.9531 3.94922L22.5352 3.94922L22.5352 5.83594L23.9297 5.83594C25.0898 5.83594 25.7461 6.45703 25.7461 7.67578L25.7461 18.7969C25.7461 20.0156 25.0898 20.6367 23.9297 20.6367L3.70312 20.6367C2.53125 20.6367 1.88672 20.0156 1.88672 18.7969L1.88672 7.67578C1.88672 6.45703 2.53125 5.83594 3.70312 5.83594L16.875 5.83594L16.875 3.94922L3.67969 3.94922C1.23047 3.94922 0 5.15625 0 7.57031L0 18.9023C0 21.3164 1.23047 22.5234 3.67969 22.5234ZM3.02344 21.668L24.6445 21.668C26.0508 21.668 26.9766 20.6719 26.9766 19.2188L26.9766 14.4258C25.7812 14.4023 24.7852 13.9336 24.1406 13.1953C23.8828 12.9023 23.5898 12.9141 23.332 13.1953C22.6289 13.9922 21.5742 14.4258 20.4375 14.4258C19.3008 14.4258 18.2461 13.9922 17.543 13.1953C17.2852 12.9141 16.9922 12.9023 16.7344 13.1953C16.0664 13.957 15 14.4258 13.8164 14.4258C12.6328 14.4258 11.5664 13.957 10.8984 13.1953C10.6406 12.9023 10.3594 12.9141 10.0898 13.1953C9.38672 13.9922 8.33203 14.4258 7.19531 14.4258C6.05859 14.4258 5.01562 13.9922 4.30078 13.1953C4.04297 12.9141 3.75 12.9023 3.49219 13.1953C2.84766 13.9336 1.86328 14.4023 0.65625 14.4258L0.65625 19.2188C0.65625 20.6719 1.58203 21.668 3.02344 21.668ZM15.9258 5.80078L17.6953 5.80078L17.6953 1.05469L15.9258 1.05469ZM21.4102 5.80078L23.1797 5.80078L23.1797 1.05469L21.4102 1.05469ZM14.7539 1.88672L24.3516 1.88672C24.8906 1.88672 25.2891 1.46484 25.2891 0.949219C25.2891 0.433594 24.8906 0 24.3516 0L14.7539 0C14.2383 0 13.8047 0.433594 13.8047 0.949219C13.8047 1.46484 14.2383 1.88672 14.7539 1.88672Z" fill="black" fill-opacity="0.85"/>
 </g>
</svg>
