<?xml version="1.0" encoding="UTF-8"?>
<!--Generator: Apple Native CoreSVG 360-->
<!DOCTYPE svg
PUBLIC "-//W3C//DTD SVG 1.1//EN"
       "http://www.w3.org/Graphics/SVG/1.1/DTD/svg11.dtd">
<svg version="1.1" xmlns="http://www.w3.org/2000/svg" xmlns:xlink="http://www.w3.org/1999/xlink" viewBox="0 0 26.9648 21.5977">
 <g>
  <rect height="21.5977" opacity="0" width="26.9648" x="0" y="0"/>
  <path d="M3.67969 21.4453L23.2852 21.4453C25.3828 21.4453 26.6133 20.2266 26.6133 17.8125L26.6133 5.77734C26.6133 3.36328 25.3711 2.14453 22.9336 2.14453L11.6836 2.14453C10.8867 2.14453 10.4062 1.95703 9.82031 1.45312L9.10547 0.867188C8.33203 0.210938 7.73438 0 6.57422 0L3.23438 0C1.18359 0 0 1.17188 0 3.52734L0 17.8125C0 20.2383 1.23047 21.4453 3.67969 21.4453ZM3.70312 19.5586C2.53125 19.5586 1.88672 18.9375 1.88672 17.7188L1.88672 3.63281C1.88672 2.47266 2.49609 1.875 3.62109 1.875L6.09375 1.875C6.86719 1.875 7.33594 2.07422 7.93359 2.57812L8.64844 3.17578C9.41016 3.80859 10.0312 4.03125 11.1914 4.03125L22.8984 4.03125C24.0586 4.03125 24.7266 4.66406 24.7266 5.88281L24.7266 17.7305C24.7266 18.9375 24.0586 19.5586 22.8984 19.5586ZM3.33984 7.64062L23.2617 7.64062L23.2617 6.92578C23.2617 6.17578 22.8867 5.8125 22.1016 5.8125L4.5 5.8125C3.71484 5.8125 3.33984 6.17578 3.33984 6.92578Z" fill="black" fill-opacity="0.85"/>
 </g>
</svg>
