<?xml version="1.0" encoding="UTF-8"?>
<!--Generator: Apple Native CoreSVG 360-->
<!DOCTYPE svg
PUBLIC "-//W3C//DTD SVG 1.1//EN"
       "http://www.w3.org/Graphics/SVG/1.1/DTD/svg11.dtd">
<svg version="1.1" xmlns="http://www.w3.org/2000/svg" xmlns:xlink="http://www.w3.org/1999/xlink" viewBox="0 0 39.697 20.1914">
 <g>
  <rect height="20.1914" opacity="0" width="39.697" x="0" y="0"/>
  <path d="M5.4579 20.1914C8.6454 20.1914 10.954 18.0469 10.954 14.9414L10.954 11.8594L9.17274 12.0938L9.17274 14.9414C9.17274 17.0156 7.59071 18.4219 5.4579 18.4219C3.0204 18.4219 1.48524 16.9102 1.82509 14.2031L2.86805 5.87109C3.12587 3.76172 4.36805 2.64844 6.53602 2.64844L10.3446 2.64844L12.079 0.878906L6.53602 0.878906C3.32509 0.878906 1.48524 2.53125 1.09852 5.68359L0.0672729 14.0273C-0.424915 17.9297 1.82509 20.1914 5.4579 20.1914ZM12.079 15.1055L27.2665 15.1055C29.0009 15.1055 30.1727 13.8984 30.1727 12.0938L30.1727 3.89062C30.1727 2.08594 29.0009 0.878906 27.2665 0.878906L12.079 0.878906C10.3446 0.878906 9.17274 2.08594 9.17274 3.89062L9.17274 12.0938C9.17274 13.8984 10.3446 15.1055 12.079 15.1055ZM12.3485 13.3359C11.4579 13.3359 10.954 12.8203 10.954 11.8594L10.954 4.11328C10.954 3.16406 11.4579 2.64844 12.3485 2.64844L26.997 2.64844C27.8993 2.64844 28.3915 3.16406 28.3915 4.11328L28.3915 11.8594C28.3915 12.8203 27.8993 13.3359 26.997 13.3359ZM30.1727 12.0938L28.3915 11.8594L28.3915 14.9414C28.3915 18.0469 30.7001 20.1914 33.8876 20.1914C37.5204 20.1914 39.7704 17.9297 39.2899 14.0273L38.247 5.68359C37.8602 2.53125 36.0204 0.878906 32.8095 0.878906L27.2665 0.878906L29.0009 2.64844L32.8095 2.64844C34.9774 2.64844 36.2196 3.76172 36.4891 5.87109L37.5321 14.2031C37.8602 16.9102 36.3251 18.4219 33.8876 18.4219C31.7548 18.4219 30.1727 17.0156 30.1727 14.9414ZM5.52821 16.5938C5.91493 16.5938 6.21962 16.2891 6.21962 15.8789L6.21962 14.7188L7.35634 14.7188C7.77821 14.7188 8.11805 14.4023 8.11805 14.0039C8.11805 13.6055 7.77821 13.3008 7.35634 13.3008L6.21962 13.3008L6.21962 12.1406C6.21962 11.7539 5.91493 11.4375 5.52821 11.4375C5.14149 11.4375 4.84852 11.7539 4.84852 12.1406L4.84852 13.3008L3.62977 13.3008C3.23134 13.3008 2.92665 13.6055 2.92665 14.0039C2.92665 14.4023 3.23134 14.7188 3.62977 14.7188L4.84852 14.7188L4.84852 15.8789C4.84852 16.2891 5.14149 16.5938 5.52821 16.5938ZM35.1063 14.1211C35.8446 14.1211 36.4306 13.5352 36.4306 12.8203C36.4306 12.0938 35.8446 11.5195 35.1063 11.5195C34.3798 11.5195 33.8173 12.0938 33.8173 12.8203C33.8173 13.5352 34.3798 14.1211 35.1063 14.1211ZM32.7509 16.5C33.4657 16.5 34.0516 15.9258 34.0516 15.2109C34.0516 14.4727 33.4657 13.8984 32.7509 13.8984C32.0243 13.8984 31.4501 14.4727 31.4501 15.2109C31.4501 15.9258 32.0243 16.5 32.7509 16.5Z" fill="black" fill-opacity="0.85"/>
 </g>
</svg>
