<?xml version="1.0" encoding="UTF-8"?>
<!--Generator: Apple Native CoreSVG 360-->
<!DOCTYPE svg
PUBLIC "-//W3C//DTD SVG 1.1//EN"
       "http://www.w3.org/Graphics/SVG/1.1/DTD/svg11.dtd">
<svg version="1.1" xmlns="http://www.w3.org/2000/svg" xmlns:xlink="http://www.w3.org/1999/xlink" viewBox="0 0 26.0391 17.918">
 <g>
  <rect height="17.918" opacity="0" width="26.0391" x="0" y="0"/>
  <path d="M5.41406 17.9062C5.97656 17.9062 6.41016 17.4727 6.41016 16.9219L6.41016 0.984375C6.41016 0.433594 5.97656 0 5.41406 0C4.85156 0 4.40625 0.433594 4.40625 0.984375L4.40625 16.9219C4.40625 17.4727 4.85156 17.9062 5.41406 17.9062ZM10.0898 16.2773C10.0898 17.3789 10.7227 17.9062 11.4844 17.9062C11.8242 17.9062 12.1641 17.8008 12.5039 17.6133L24.8086 10.4414C25.6992 9.92578 26.0391 9.53906 26.0391 8.95312C26.0391 8.36719 25.6992 7.98047 24.8086 7.46484L12.5039 0.292969C12.1641 0.09375 11.8242 0 11.4844 0C10.7227 0 10.0898 0.515625 10.0898 1.61719ZM11.9766 15.3516L11.9766 2.55469C11.9766 2.41406 12.0703 2.32031 12.1875 2.32031C12.2344 2.32031 12.2812 2.33203 12.3164 2.36719L23.2617 8.77734C23.3438 8.82422 23.3789 8.88281 23.3789 8.95312C23.3789 9.01172 23.3438 9.08203 23.2617 9.12891L12.3164 15.5391C12.2812 15.5625 12.2344 15.5859 12.1875 15.5859C12.0703 15.5859 11.9766 15.4805 11.9766 15.3516Z" fill="black" fill-opacity="0.85"/>
 </g>
</svg>
