<?xml version="1.0" encoding="UTF-8"?>
<!--Generator: Apple Native CoreSVG 360-->
<!DOCTYPE svg
PUBLIC "-//W3C//DTD SVG 1.1//EN"
       "http://www.w3.org/Graphics/SVG/1.1/DTD/svg11.dtd">
<svg version="1.1" xmlns="http://www.w3.org/2000/svg" xmlns:xlink="http://www.w3.org/1999/xlink" viewBox="0 0 33.9844 17.918">
 <g>
  <rect height="17.918" opacity="0" width="33.9844" x="0" y="0"/>
  <path d="M2.14453 16.2773C2.14453 17.3789 2.78906 17.9062 3.53906 17.9062C3.87891 17.9062 4.21875 17.8008 4.55859 17.6133L16.875 10.4414C17.7539 9.92578 18.0938 9.53906 18.0938 8.95312C18.0938 8.36719 17.7539 7.98047 16.875 7.46484L4.55859 0.292969C4.21875 0.09375 3.87891 0 3.53906 0C2.78906 0 2.14453 0.515625 2.14453 1.61719ZM4.03125 15.3516L4.03125 2.55469C4.03125 2.41406 4.125 2.32031 4.24219 2.32031C4.28906 2.32031 4.33594 2.33203 4.38281 2.36719L15.3164 8.77734C15.3984 8.82422 15.4336 8.88281 15.4336 8.95312C15.4336 9.01172 15.3984 9.08203 15.3164 9.12891L4.38281 15.5391C4.33594 15.5625 4.28906 15.5859 4.24219 15.5859C4.125 15.5859 4.03125 15.4805 4.03125 15.3516ZM18.0352 16.2773C18.0352 17.3789 18.668 17.9062 19.4297 17.9062C19.7578 17.9062 20.1094 17.8008 20.4492 17.6133L32.7539 10.4414C33.6445 9.92578 33.9844 9.53906 33.9844 8.95312C33.9844 8.36719 33.6445 7.98047 32.7539 7.46484L20.4492 0.292969C20.1094 0.09375 19.7578 0 19.4297 0C18.668 0 18.0352 0.515625 18.0352 1.61719ZM19.9219 15.3516L19.9219 2.55469C19.9219 2.41406 20.0039 2.32031 20.1211 2.32031C20.1797 2.32031 20.2148 2.33203 20.2617 2.36719L31.207 8.77734C31.2891 8.82422 31.3242 8.88281 31.3242 8.95312C31.3242 9.01172 31.2891 9.08203 31.207 9.12891L20.2617 15.5391C20.2148 15.5625 20.1797 15.5859 20.1211 15.5859C20.0039 15.5859 19.9219 15.4805 19.9219 15.3516Z" fill="black" fill-opacity="0.85"/>
 </g>
</svg>
