<?xml version="1.0" encoding="UTF-8"?>
<!--Generator: Apple Native CoreSVG 360-->
<!DOCTYPE svg
PUBLIC "-//W3C//DTD SVG 1.1//EN"
       "http://www.w3.org/Graphics/SVG/1.1/DTD/svg11.dtd">
<svg version="1.1" xmlns="http://www.w3.org/2000/svg" xmlns:xlink="http://www.w3.org/1999/xlink" viewBox="0 0 18.2461 17.918">
 <g>
  <rect height="17.918" opacity="0" width="18.2461" x="0" y="0"/>
  <path d="M0 16.2773C0 17.3789 0.632812 17.9062 1.39453 17.9062C1.72266 17.9062 2.07422 17.8008 2.41406 17.6133L14.7188 10.4414C15.6094 9.92578 15.9492 9.53906 15.9492 8.95312C15.9492 8.36719 15.6094 7.98047 14.7188 7.46484L2.41406 0.292969C2.07422 0.09375 1.72266 0 1.39453 0C0.632812 0 0 0.515625 0 1.61719ZM1.88672 15.3516L1.88672 2.55469C1.88672 2.41406 1.96875 2.32031 2.09766 2.32031C2.14453 2.32031 2.19141 2.33203 2.22656 2.36719L13.1719 8.77734C13.2539 8.82422 13.2891 8.88281 13.2891 8.95312C13.2891 9.01172 13.2539 9.08203 13.1719 9.12891L2.22656 15.5391C2.19141 15.5625 2.14453 15.5859 2.09766 15.5859C1.96875 15.5859 1.88672 15.4805 1.88672 15.3516ZM16.8867 17.9062C17.4492 17.9062 17.8945 17.4727 17.8945 16.9219L17.8945 0.984375C17.8945 0.433594 17.4492 0 16.8867 0C16.3242 0 15.8906 0.433594 15.8906 0.984375L15.8906 16.9219C15.8906 17.4727 16.3242 17.9062 16.8867 17.9062Z" fill="black" fill-opacity="0.85"/>
 </g>
</svg>
