<?xml version="1.0" encoding="UTF-8"?>
<!--Generator: Apple Native CoreSVG 360-->
<!DOCTYPE svg
PUBLIC "-//W3C//DTD SVG 1.1//EN"
       "http://www.w3.org/Graphics/SVG/1.1/DTD/svg11.dtd">
<svg version="1.1" xmlns="http://www.w3.org/2000/svg" xmlns:xlink="http://www.w3.org/1999/xlink" viewBox="0 0 34.125 17.918">
 <g>
  <rect height="17.918" opacity="0" width="34.125" x="0" y="0"/>
  <path d="M0 16.2773C0 17.3789 0.632812 17.9062 1.39453 17.9062C1.72266 17.9062 2.07422 17.8008 2.41406 17.6133L14.7188 10.4414C15.6094 9.92578 15.9492 9.53906 15.9492 8.95312C15.9492 8.36719 15.6094 7.98047 14.7188 7.46484L2.41406 0.292969C2.07422 0.09375 1.72266 0 1.39453 0C0.632812 0 0 0.515625 0 1.61719ZM1.88672 15.3516L1.88672 2.55469C1.88672 2.41406 1.96875 2.32031 2.09766 2.32031C2.14453 2.32031 2.19141 2.33203 2.22656 2.36719L13.1719 8.77734C13.2539 8.82422 13.2891 8.88281 13.2891 8.95312C13.2891 9.01172 13.2539 9.08203 13.1719 9.12891L2.22656 15.5391C2.19141 15.5625 2.14453 15.5859 2.09766 15.5859C1.96875 15.5859 1.88672 15.4805 1.88672 15.3516ZM15.8906 16.2773C15.8906 17.3789 16.5234 17.9062 17.2734 17.9062C17.6133 17.9062 17.9648 17.8008 18.3047 17.6133L30.6094 10.4414C31.4883 9.92578 31.8281 9.53906 31.8281 8.95312C31.8281 8.36719 31.4883 7.98047 30.6094 7.46484L18.3047 0.292969C17.9648 0.09375 17.6133 0 17.2734 0C16.5234 0 15.8906 0.515625 15.8906 1.61719ZM17.7773 15.3516L17.7773 2.55469C17.7773 2.41406 17.8594 2.32031 17.9766 2.32031C18.0352 2.32031 18.0703 2.33203 18.1172 2.36719L29.0625 8.77734C29.1445 8.82422 29.1797 8.88281 29.1797 8.95312C29.1797 9.01172 29.1445 9.08203 29.0625 9.12891L18.1172 15.5391C18.0703 15.5625 18.0352 15.5859 17.9766 15.5859C17.8594 15.5859 17.7773 15.4805 17.7773 15.3516ZM32.7773 17.9062C33.3398 17.9062 33.7734 17.4727 33.7734 16.9219L33.7734 0.984375C33.7734 0.433594 33.3398 0 32.7773 0C32.2148 0 31.7695 0.433594 31.7695 0.984375L31.7695 16.9219C31.7695 17.4727 32.2148 17.9062 32.7773 17.9062Z" fill="black" fill-opacity="0.85"/>
 </g>
</svg>
