<?xml version="1.0" encoding="UTF-8"?>
<!--Generator: Apple Native CoreSVG 360-->
<!DOCTYPE svg
PUBLIC "-//W3C//DTD SVG 1.1//EN"
       "http://www.w3.org/Graphics/SVG/1.1/DTD/svg11.dtd">
<svg version="1.1" xmlns="http://www.w3.org/2000/svg" xmlns:xlink="http://www.w3.org/1999/xlink" viewBox="0 0 28.582 23.5195">
 <g>
  <rect height="23.5195" opacity="0" width="28.582" x="0" y="0"/>
  <path d="M28.2305 14.1094C28.2305 10.6641 26.9883 7.48828 24.9141 5.02734C24.6797 4.74609 24.2812 4.74609 24.0234 5.01562L21.3047 7.73438C21.082 7.95703 21.0703 8.27344 21.2695 8.51953C22.4766 10.0664 23.2031 12.0117 23.2031 14.1094C23.2031 16.2188 22.4766 18.1641 21.1992 19.793C21.0352 19.9922 21.0469 20.25 21.2227 20.4375L24.0117 23.2266C24.2812 23.4961 24.668 23.4961 24.9141 23.2031C26.9883 20.7422 28.2305 17.5664 28.2305 14.1094Z" fill="black" fill-opacity="0.85"/>
  <path d="M14.1094 5.02734C16.2305 5.02734 18.1758 5.76562 19.7344 6.97266C19.9688 7.16016 20.2734 7.13672 20.4961 6.91406L23.2148 4.19531C23.4844 3.92578 23.4727 3.53906 23.1914 3.30469C20.7422 1.24219 17.5664 0 14.1094 0C10.6641 0 7.48828 1.24219 5.03906 3.30469C4.75781 3.53906 4.74609 3.92578 5.01562 4.19531L7.73438 6.91406C7.95703 7.13672 8.27344 7.16016 8.53125 6.96094C10.0781 5.76562 12.0117 5.02734 14.1094 5.02734Z" fill="black" fill-opacity="0.85"/>
  <path d="M0 14.1094C0 17.5664 1.24219 20.7422 3.31641 23.2031C3.55078 23.4961 3.94922 23.4961 4.20703 23.2266L6.99609 20.4375C7.17188 20.25 7.19531 19.9922 7.03125 19.793C5.75391 18.1641 5.02734 16.2188 5.02734 14.1094C5.02734 12.0117 5.74219 10.0664 6.96094 8.51953C7.14844 8.27344 7.14844 7.95703 6.92578 7.73438L4.20703 5.01562C3.9375 4.74609 3.55078 4.74609 3.31641 5.02734C1.24219 7.48828 0 10.6641 0 14.1094Z" fill="black" fill-opacity="0.85"/>
  <path d="M12.1055 19.7227C12.5039 19.7227 12.7969 19.4414 12.7969 19.0195L12.7969 17.7773L15.3047 17.7773C15.5273 17.7773 15.6914 17.625 15.6914 17.3906C15.6914 17.168 15.5273 17.0039 15.3047 17.0039L12.7969 17.0039L12.7969 14.8594L16.6758 14.8594C17.0391 14.8594 17.3086 14.6133 17.3086 14.2617C17.3086 13.9219 17.0391 13.6758 16.6758 13.6758L12.7969 13.6758L12.7969 10.2773L17.0859 10.2773C17.4609 10.2773 17.7188 10.0312 17.7188 9.67969C17.7188 9.31641 17.4609 9.07031 17.0859 9.07031L12.1055 9.07031C11.6719 9.07031 11.4023 9.33984 11.4023 9.78516L11.4023 17.0039L10.2773 17.0039C10.0547 17.0039 9.89062 17.168 9.89062 17.3906C9.89062 17.625 10.0547 17.7773 10.2773 17.7773L11.4023 17.7773L11.4023 19.0195C11.4023 19.4414 11.6953 19.7227 12.1055 19.7227Z" fill="black" fill-opacity="0.85"/>
 </g>
</svg>
