<?xml version="1.0" encoding="UTF-8"?>
<!--Generator: Apple Native CoreSVG 360-->
<!DOCTYPE svg
PUBLIC "-//W3C//DTD SVG 1.1//EN"
       "http://www.w3.org/Graphics/SVG/1.1/DTD/svg11.dtd">
<svg version="1.1" xmlns="http://www.w3.org/2000/svg" xmlns:xlink="http://www.w3.org/1999/xlink" viewBox="0 0 28.582 23.4085">
 <g>
  <rect height="23.4085" opacity="0" width="28.582" x="0" y="0"/>
  <path d="M28.2305 14.0539C28.2305 6.67105 22.5586 0.612457 15.3398 0.00308175C14.9648-0.0320745 14.6836 0.237457 14.6836 0.612457L14.6836 4.44449C14.6836 4.76089 14.9062 5.00699 15.2227 5.03043C19.7109 5.58121 23.2031 9.41324 23.2031 14.0539C23.2031 16.1632 22.4766 18.1086 21.1992 19.7375C21.0352 19.9367 21.0469 20.1945 21.2227 20.382L24.0234 23.1711C24.2812 23.4289 24.6797 23.4289 24.9141 23.1476C26.9883 20.6867 28.2305 17.5109 28.2305 14.0539Z" fill="black" fill-opacity="0.85"/>
  <path d="M0 14.0539C0 17.5226 1.24219 20.6984 3.31641 23.1593C3.55078 23.4406 3.9375 23.4289 4.20703 23.1711L7.00781 20.382C7.18359 20.1945 7.19531 19.9367 7.03125 19.7375C5.74219 18.1086 5.02734 16.1632 5.02734 14.0539C5.02734 9.41324 8.51953 5.58121 13.0078 5.03043C13.3242 5.00699 13.5469 4.76089 13.5469 4.44449L13.5469 0.612457C13.5469 0.237457 13.2656-0.0320745 12.8906 0.00308175C5.67188 0.612457 0 6.67105 0 14.0539Z" fill="black" fill-opacity="0.85"/>
  <path d="M12.1055 19.6671C12.5039 19.6671 12.7969 19.3859 12.7969 18.964L12.7969 17.7218L15.3047 17.7218C15.5273 17.7218 15.6914 17.5695 15.6914 17.3351C15.6914 17.1125 15.5273 16.9484 15.3047 16.9484L12.7969 16.9484L12.7969 14.8039L16.6758 14.8039C17.0391 14.8039 17.3086 14.5578 17.3086 14.2062C17.3086 13.8664 17.0391 13.6203 16.6758 13.6203L12.7969 13.6203L12.7969 10.2218L17.0859 10.2218C17.4609 10.2218 17.7188 9.97574 17.7188 9.62418C17.7188 9.26089 17.4609 9.0148 17.0859 9.0148L12.1055 9.0148C11.6719 9.0148 11.4023 9.28433 11.4023 9.72964L11.4023 16.9484L10.2773 16.9484C10.0547 16.9484 9.89062 17.1125 9.89062 17.3351C9.89062 17.5695 10.0547 17.7218 10.2773 17.7218L11.4023 17.7218L11.4023 18.964C11.4023 19.3859 11.6953 19.6671 12.1055 19.6671Z" fill="black" fill-opacity="0.85"/>
 </g>
</svg>
