<?xml version="1.0" encoding="UTF-8"?>
<!--Generator: Apple Native CoreSVG 360-->
<!DOCTYPE svg
PUBLIC "-//W3C//DTD SVG 1.1//EN"
       "http://www.w3.org/Graphics/SVG/1.1/DTD/svg11.dtd">
<svg version="1.1" xmlns="http://www.w3.org/2000/svg" xmlns:xlink="http://www.w3.org/1999/xlink" viewBox="0 0 15.75 21.3633">
 <g>
  <rect height="21.3633" opacity="0" width="15.75" x="0" y="0"/>
  <path d="M4.17188 21.3281C4.86328 21.3281 5.33203 20.8242 5.33203 20.1445L5.33203 17.3672L10.5 17.3672C10.9336 17.3672 11.2383 17.0508 11.2383 16.5938C11.2383 16.1484 10.9336 15.8203 10.5 15.8203L5.33203 15.8203L5.33203 11.3789L13.4766 11.3789C14.0977 11.3789 14.543 10.957 14.543 10.3477C14.543 9.75 14.0977 9.32812 13.4766 9.32812L5.33203 9.32812L5.33203 2.09766L14.3203 2.09766C14.9531 2.09766 15.3984 1.66406 15.3984 1.05469C15.3984 0.445312 14.9531 0 14.3203 0L4.17188 0C3.45703 0 3 0.480469 3 1.20703L3 15.8203L0.761719 15.8203C0.304688 15.8203 0 16.1484 0 16.5938C0 17.0508 0.304688 17.3672 0.761719 17.3672L3 17.3672L3 20.1445C3 20.8125 3.45703 21.3281 4.17188 21.3281Z" fill="black" fill-opacity="0.85"/>
 </g>
</svg>
