<?xml version="1.0" encoding="UTF-8"?>
<!--Generator: Apple Native CoreSVG 360-->
<!DOCTYPE svg
PUBLIC "-//W3C//DTD SVG 1.1//EN"
       "http://www.w3.org/Graphics/SVG/1.1/DTD/svg11.dtd">
<svg version="1.1" xmlns="http://www.w3.org/2000/svg" xmlns:xlink="http://www.w3.org/1999/xlink" viewBox="0 0 26.5195 25.0195">
 <g>
  <rect height="25.0195" opacity="0" width="26.5195" x="0" y="0"/>
  <path d="M1.55859 22.2188L24.6094 22.2188L24.6094 21.4336C24.6094 20.9648 24.3398 20.6836 23.8594 20.6836L23.1094 20.6836L23.1094 8.03906L24.1406 8.03906C24.7852 8.03906 25.1602 7.57031 25.1602 7.08984C25.1602 6.73828 24.9609 6.43359 24.5273 6.1875L14.5195 0.410156C14.0508 0.140625 13.5586 0 13.0781 0C12.5977 0 12.0938 0.140625 11.6484 0.410156L1.64062 6.1875C1.19531 6.43359 1.00781 6.73828 1.00781 7.08984C1.00781 7.57031 1.38281 8.03906 2.02734 8.03906L3.05859 8.03906L3.05859 20.6836L2.32031 20.6836C1.83984 20.6836 1.55859 20.9648 1.55859 21.4336ZM4.82812 20.6836L4.82812 6.53906L12.6211 2.16797C12.7617 2.08594 12.9258 2.03906 13.0781 2.03906C13.2305 2.03906 13.3945 2.08594 13.5469 2.16797L21.3398 6.53906L21.3398 20.6836ZM0.9375 25.0078L25.2188 25.0078C25.7344 25.0078 26.168 24.5742 26.168 24.0586C26.168 23.543 25.7344 23.1211 25.2188 23.1211L0.9375 23.1211C0.421875 23.1211 0 23.543 0 24.0586C0 24.5742 0.421875 25.0078 0.9375 25.0078Z" fill="black" fill-opacity="0.85"/>
  <path d="M11.0977 17.7891C11.4961 17.7891 11.7891 17.5078 11.7891 17.0859L11.7891 15.8438L14.2969 15.8438C14.5195 15.8438 14.6836 15.6914 14.6836 15.457C14.6836 15.2344 14.5195 15.0703 14.2969 15.0703L11.7891 15.0703L11.7891 12.9258L15.668 12.9258C16.0312 12.9258 16.2891 12.6797 16.2891 12.3281C16.2891 11.9883 16.0312 11.7422 15.668 11.7422L11.7891 11.7422L11.7891 8.34375L16.0781 8.34375C16.4531 8.34375 16.7109 8.09766 16.7109 7.74609C16.7109 7.38281 16.4531 7.13672 16.0781 7.13672L11.0977 7.13672C10.6641 7.13672 10.3945 7.40625 10.3945 7.85156L10.3945 15.0703L9.26953 15.0703C9.03516 15.0703 8.87109 15.2344 8.87109 15.457C8.87109 15.6914 9.03516 15.8438 9.26953 15.8438L10.3945 15.8438L10.3945 17.0859C10.3945 17.5078 10.6758 17.7891 11.0977 17.7891Z" fill="black" fill-opacity="0.85"/>
 </g>
</svg>
