<?xml version="1.0" encoding="UTF-8"?>
<!--Generator: Apple Native CoreSVG 360-->
<!DOCTYPE svg
PUBLIC "-//W3C//DTD SVG 1.1//EN"
       "http://www.w3.org/Graphics/SVG/1.1/DTD/svg11.dtd">
<svg version="1.1" xmlns="http://www.w3.org/2000/svg" xmlns:xlink="http://www.w3.org/1999/xlink" viewBox="0 0 36.7852 23.543">
 <g>
  <rect height="23.543" opacity="0" width="36.7852" x="0" y="0"/>
  <path d="M0 13.1133C0 19.3711 5.88281 23.543 14.7773 23.543C23.6836 23.543 29.5664 19.3711 29.5664 13.1133C29.5664 10.4883 23.4844 8.35547 14.7773 8.35547C6.08203 8.35547 0 10.4883 0 13.1133ZM1.88672 13.1133C1.88672 11.8477 8.02734 10.125 14.7773 10.125C21.5273 10.125 27.6797 11.8477 27.6797 13.1133C27.6797 14.332 21.9141 15.9492 14.7773 15.9492C7.64062 15.9492 1.88672 14.332 1.88672 13.1133ZM2.25 15.4688C4.55859 16.8398 9.5625 17.8359 14.7773 17.8359C20.0039 17.8359 25.0078 16.8398 27.3164 15.4688C26.3438 19.1953 21.3633 21.6562 14.7773 21.6562C8.20312 21.6562 3.22266 19.1953 2.25 15.4688ZM27.1172 12.0938L34.9453 7.30078C38.4609 5.16797 35.1914 0.0117188 30.9844 3.02344L21.6211 9.76172L23.6016 10.2891L32.332 4.33594C34.043 3.15234 35.1211 4.96875 33.7852 5.80078L25.4648 10.957ZM7.96875 16.2305L20.5898 16.2773C20.6016 13.8398 18.5977 12.2461 16.2891 12.2461C14.7656 12.2461 13.4297 12.9258 12.6445 13.9805C12.2344 13.8398 11.8594 13.7812 11.4023 13.7812C9.69141 13.7812 8.27344 14.8477 7.96875 16.2305Z" fill="black" fill-opacity="0.85"/>
 </g>
</svg>
