<?xml version="1.0" encoding="UTF-8"?>
<!--Generator: Apple Native CoreSVG 360-->
<!DOCTYPE svg
PUBLIC "-//W3C//DTD SVG 1.1//EN"
       "http://www.w3.org/Graphics/SVG/1.1/DTD/svg11.dtd">
<svg version="1.1" xmlns="http://www.w3.org/2000/svg" xmlns:xlink="http://www.w3.org/1999/xlink" viewBox="0 0 29.8359 32.168">
 <g>
  <rect height="32.168" opacity="0" width="29.8359" x="0" y="0"/>
  <path d="M10.9219 32.168L18.6211 32.168C19.1484 32.168 19.582 31.7344 19.582 31.207L19.582 27.5156L18.9141 28.3945L20.4609 27.8789C22.5586 27.1758 23.4844 26.3086 24 23.3555L25.2773 15.9961L28.6055 15.9961C29.0859 15.9961 29.4844 15.5859 29.4844 15.1172C29.4844 14.6367 29.0859 14.2266 28.6055 14.2266L23.7539 14.2266L22.9688 18.7383L23.5078 18.1055C22.5234 18.082 21.6562 17.7539 21.0117 17.0391C20.7773 16.7695 20.5195 16.7695 20.2852 17.0391C19.6992 17.6953 18.7383 18.1172 17.6953 18.1172C16.6289 18.1172 15.668 17.6953 15.1055 17.0391C14.8594 16.7695 14.6016 16.7695 14.3789 17.0391C13.7344 17.7305 12.7969 18.1172 11.8008 18.1172C10.7812 18.1172 9.85547 17.7305 9.23438 17.0391C9.01172 16.7695 8.74219 16.7695 8.49609 17.0391C7.94531 17.6719 7.03125 18.082 6.03516 18.1055L6.49219 18.5742L5.73047 14.2266L0.878906 14.2266C0.398438 14.2266 0 14.6367 0 15.1172C0 15.5859 0.398438 15.9961 0.878906 15.9961L4.20703 15.9961L5.48438 23.3555C6.01172 26.3086 6.9375 27.1758 9.02344 27.8789L10.9102 28.5117L9.96094 27.5156L9.96094 31.207C9.96094 31.7344 10.3945 32.168 10.9219 32.168ZM11.6719 30.5742L11.6719 28.4297L17.8711 28.4297L17.8711 30.5742ZM0.878906 11.6016L5.68359 11.6016L6.03516 10.1133C6.50391 8.22656 7.19531 7.17188 9.94922 5.90625L10.8516 5.49609L10.7109 3.64453L9.19922 4.3125C6.1875 5.64844 5.05078 7.07812 4.46484 9.14062L4.25391 9.83203L0.878906 9.83203C0.398438 9.83203 0 10.2422 0 10.7227C0 11.2031 0.398438 11.6016 0.878906 11.6016ZM9.9375 5.51953L19.5586 5.51953L19.5586 0.984375C19.5586 0.457031 19.1133 0.0117188 18.5859 0.0117188L10.8984 0.0117188C10.3711 0.0117188 9.9375 0.457031 9.9375 0.984375ZM11.6484 3.86719L11.6484 1.60547L17.8477 1.60547L17.8477 3.86719ZM23.8008 11.6016L28.6055 11.6016C29.0859 11.6016 29.4844 11.2031 29.4844 10.7227C29.4844 10.2422 29.0859 9.83203 28.6055 9.83203L25.2305 9.83203L25.0195 9.14062C24.4336 7.07812 23.2969 5.64844 20.2852 4.3125L18.7734 3.64453L18.6328 5.49609L19.5352 5.90625C22.2891 7.17188 22.9805 8.22656 23.4492 10.1133Z" fill="black" fill-opacity="0.85"/>
 </g>
</svg>
