<?xml version="1.0" encoding="UTF-8"?>
<!--Generator: Apple Native CoreSVG 360-->
<!DOCTYPE svg
PUBLIC "-//W3C//DTD SVG 1.1//EN"
       "http://www.w3.org/Graphics/SVG/1.1/DTD/svg11.dtd">
<svg version="1.1" xmlns="http://www.w3.org/2000/svg" xmlns:xlink="http://www.w3.org/1999/xlink" viewBox="0 0 34.3185 26.1445">
 <g>
  <rect height="26.1445" opacity="0" width="34.3185" x="0" y="0"/>
  <path d="M10.3624 25.2656L12.2374 25.2656L12.2491 3C12.2491 2.27344 12.6006 1.88672 13.3506 1.88672L23.1944 1.88672C23.921 1.88672 24.3077 2.26172 24.3077 3L24.3077 25.2656L26.2061 25.2656L26.2061 2.97656C26.2061 1.05469 25.1514 0 23.2295 0L13.3155 0C11.3819 0 10.3624 1.05469 10.3624 2.97656ZM14.0655 10.6172L22.4795 10.6172C22.878 10.6172 23.171 10.3242 23.171 9.92578L23.171 3.71484C23.171 3.31641 22.878 3.02344 22.4795 3.02344L14.0655 3.02344C13.667 3.02344 13.3741 3.31641 13.3741 3.71484L13.3741 9.92578C13.3741 10.3242 13.667 10.6172 14.0655 10.6172ZM8.49908 25.1836C8.49908 25.7109 8.92095 26.1445 9.43658 26.1445L27.1085 26.1445C27.6241 26.1445 28.0577 25.7109 28.0577 25.1836C28.0577 24.6797 27.6241 24.2578 27.1085 24.2578L9.43658 24.2578C8.93267 24.2578 8.49908 24.668 8.49908 25.1836ZM30.6241 23.2031C32.7569 23.2031 33.9639 21.7734 33.9639 19.2422C33.9639 16.3008 33.3897 12.9141 32.2999 7.58203L32.042 6.35156C31.796 5.19141 31.4444 4.25391 30.753 3.38672L29.4288 1.73438C28.8311 0.984375 27.6827 1.85156 28.3272 2.66016L29.9795 4.73438C30.085 4.875 30.0967 5.0625 30.003 5.22656L29.0186 7.05469C28.7608 7.54688 28.8077 7.875 29.2178 8.33203L31.3975 10.6523C32.1358 13.9805 32.5577 16.9336 32.5577 19.2422C32.5577 20.8711 31.8663 21.7734 30.6241 21.7734C29.546 21.7734 28.8428 21.0703 28.8428 19.9102C28.8428 18.1875 29.1241 15.9023 29.1241 13.8047C29.1241 11.7539 28.1163 10.1953 25.6436 9.375L25.0694 10.6641C26.9561 11.2383 27.7178 12.3984 27.7178 13.8047C27.7178 15.6797 27.4366 17.9648 27.4366 19.9102C27.4366 21.9375 28.6788 23.2031 30.6241 23.2031Z" fill="black" fill-opacity="0.85"/>
  <path d="M0.34283 12.4922C-0.102483 12.75-0.12592 13.3711 0.34283 13.6406L6.36627 17.1914C6.85845 17.4844 7.43267 17.25 7.43267 16.7461L7.43267 9.36328C7.43267 8.87109 6.8233 8.64844 6.36627 8.91797Z" fill="black" fill-opacity="0.85"/>
 </g>
</svg>
