<?xml version="1.0" encoding="UTF-8"?>
<!--Generator: Apple Native CoreSVG 360-->
<!DOCTYPE svg
PUBLIC "-//W3C//DTD SVG 1.1//EN"
       "http://www.w3.org/Graphics/SVG/1.1/DTD/svg11.dtd">
<svg version="1.1" xmlns="http://www.w3.org/2000/svg" xmlns:xlink="http://www.w3.org/1999/xlink" viewBox="0 0 27.0352 26.1445">
 <g>
  <rect height="26.1445" opacity="0" width="27.0352" x="0" y="0"/>
  <path d="M3.43359 25.2656L5.30859 25.2656L5.32031 3C5.32031 2.27344 5.67188 1.88672 6.42188 1.88672L16.2656 1.88672C16.9922 1.88672 17.3789 2.26172 17.3789 3L17.3789 25.2656L19.2656 25.2656L19.2656 2.97656C19.2656 1.05469 18.2227 0 16.3008 0L6.38672 0C4.45312 0 3.43359 1.05469 3.43359 2.97656ZM7.13672 10.6172L15.5508 10.6172C15.9492 10.6172 16.2422 10.3242 16.2422 9.92578L16.2422 3.71484C16.2422 3.31641 15.9492 3.02344 15.5508 3.02344L7.13672 3.02344C6.73828 3.02344 6.44531 3.31641 6.44531 3.71484L6.44531 9.92578C6.44531 10.3242 6.73828 10.6172 7.13672 10.6172ZM1.57031 25.1836C1.57031 25.7109 1.99219 26.1445 2.50781 26.1445L20.1797 26.1445C20.6953 26.1445 21.1172 25.7109 21.1172 25.1836C21.1172 24.6797 20.6953 24.2578 20.1797 24.2578L2.50781 24.2578C2.00391 24.2578 1.57031 24.668 1.57031 25.1836ZM23.6953 23.2031C25.8281 23.2031 27.0352 21.7734 27.0352 19.2422C27.0352 16.3008 26.4609 12.9141 25.3711 7.58203L25.1133 6.35156C24.8672 5.19141 24.5156 4.25391 23.8242 3.38672L22.5 1.73438C21.9023 0.984375 20.7539 1.85156 21.3984 2.66016L23.0508 4.73438C23.1562 4.875 23.168 5.0625 23.0742 5.22656L22.0898 7.05469C21.832 7.54688 21.8789 7.875 22.2891 8.33203L24.4688 10.6523C25.207 13.9805 25.6172 16.9336 25.6172 19.2422C25.6172 20.8711 24.9258 21.7734 23.6953 21.7734C22.6172 21.7734 21.9141 21.0703 21.9141 19.9102C21.9141 18.1875 22.1953 15.9023 22.1953 13.8047C22.1953 11.7539 21.1875 10.1953 18.7148 9.375L18.1406 10.6641C20.0273 11.2383 20.7773 12.3984 20.7773 13.8047C20.7773 15.6797 20.4961 17.9648 20.4961 19.9102C20.4961 21.9375 21.75 23.2031 23.6953 23.2031Z" fill="black" fill-opacity="0.85"/>
 </g>
</svg>
