<?xml version="1.0" encoding="UTF-8"?>
<!--Generator: Apple Native CoreSVG 360-->
<!DOCTYPE svg
PUBLIC "-//W3C//DTD SVG 1.1//EN"
       "http://www.w3.org/Graphics/SVG/1.1/DTD/svg11.dtd">
<svg version="1.1" xmlns="http://www.w3.org/2000/svg" xmlns:xlink="http://www.w3.org/1999/xlink" viewBox="0 0 37.6758 23.5195">
 <g>
  <rect height="23.5195" opacity="0" width="37.6758" x="0" y="0"/>
  <path d="M29.625 21.2695C31.7812 21.2695 33.5156 19.5469 33.5156 17.3906C33.5156 15.8906 32.6484 14.6953 31.5117 14.0625C31.1016 13.8398 30.9023 13.4883 30.9023 12.8789L30.9023 3.60938C30.9023 2.91797 30.3281 2.34375 29.6367 2.34375C28.9336 2.34375 28.3711 2.91797 28.3711 3.60938L28.3711 12.8789C28.3711 13.4648 28.1602 13.8047 27.7266 14.0391C26.6016 14.6719 25.7578 15.8906 25.7578 17.3906C25.7578 19.5469 27.4805 21.2695 29.625 21.2695ZM34.0898 4.88672L36.6328 4.88672C37.0547 4.88672 37.3242 4.57031 37.3242 4.20703C37.3242 3.84375 37.0547 3.51562 36.6328 3.51562L34.0898 3.51562C33.6797 3.51562 33.3984 3.84375 33.3984 4.20703C33.3984 4.57031 33.6797 4.88672 34.0898 4.88672ZM34.0898 7.98047L36.6328 7.98047C37.0547 7.98047 37.3242 7.66406 37.3242 7.30078C37.3242 6.9375 37.0547 6.62109 36.6328 6.62109L34.0898 6.62109C33.6797 6.62109 33.3984 6.9375 33.3984 7.30078C33.3984 7.66406 33.6797 7.98047 34.0898 7.98047ZM34.0898 11.0742L36.6328 11.0742C37.0547 11.0742 37.3242 10.7578 37.3242 10.3945C37.3242 10.0312 37.0547 9.71484 36.6328 9.71484L34.0898 9.71484C33.6797 9.71484 33.3984 10.0312 33.3984 10.3945C33.3984 10.7578 33.6797 11.0742 34.0898 11.0742Z" fill="black" fill-opacity="0.85"/>
  <path d="M1.67578 22.7344L3.36328 22.7344L3.36328 2.69531C3.36328 2.03906 3.69141 1.69922 4.35938 1.69922L13.2305 1.69922C13.875 1.69922 14.2266 2.03906 14.2266 2.69531L14.2266 22.7344L15.9258 22.7344L15.9258 2.67188C15.9258 0.9375 14.9766 0 13.2539 0L4.33594 0C2.58984 0 1.67578 0.949219 1.67578 2.67188ZM5.00391 9.55078L12.5742 9.55078C12.9375 9.55078 13.207 9.28125 13.207 8.92969L13.207 3.33984C13.207 2.98828 12.9375 2.71875 12.5742 2.71875L5.00391 2.71875C4.65234 2.71875 4.38281 2.98828 4.38281 3.33984L4.38281 8.92969C4.38281 9.28125 4.65234 9.55078 5.00391 9.55078ZM0 22.6641C0 23.1328 0.375 23.5195 0.84375 23.5195L16.7461 23.5195C17.2148 23.5195 17.5898 23.1328 17.5898 22.6641C17.5898 22.207 17.2148 21.8203 16.7461 21.8203L0.84375 21.8203C0.386719 21.8203 0 22.1953 0 22.6641ZM19.9102 20.8711C21.832 20.8711 22.9219 19.5938 22.9219 17.3086C22.9219 14.6719 22.4062 11.625 21.4102 6.82031L21.1875 5.71875C20.9648 4.66406 20.6484 3.82031 20.0273 3.04688L18.832 1.55859C18.293 0.878906 17.2617 1.66406 17.8359 2.39062L19.3242 4.26562C19.4297 4.38281 19.4297 4.55859 19.3477 4.71094L18.457 6.35156C18.2227 6.78516 18.2695 7.08984 18.6445 7.5L20.6133 9.58594C21.2695 12.5742 21.6445 15.2344 21.6445 17.3086C21.6445 18.7852 21.0234 19.5938 19.9102 19.5938C18.9375 19.5938 18.3047 18.9609 18.3047 17.918C18.3047 16.3711 18.5625 14.3086 18.5625 12.4219C18.5625 10.5703 17.6484 9.17578 15.4219 8.42578L14.9062 9.59766C16.6055 10.1133 17.2852 11.1562 17.2852 12.4219C17.2852 14.1094 17.0391 16.1719 17.0391 17.918C17.0391 19.7344 18.1523 20.8711 19.9102 20.8711Z" fill="black" fill-opacity="0.85"/>
 </g>
</svg>
