<?xml version="1.0" encoding="UTF-8"?>
<!--Generator: Apple Native CoreSVG 360-->
<!DOCTYPE svg
PUBLIC "-//W3C//DTD SVG 1.1//EN"
       "http://www.w3.org/Graphics/SVG/1.1/DTD/svg11.dtd">
<svg version="1.1" xmlns="http://www.w3.org/2000/svg" xmlns:xlink="http://www.w3.org/1999/xlink" viewBox="0 0 32.0977 26.1445">
 <g>
  <rect height="26.1445" opacity="0" width="32.0977" x="0" y="0"/>
  <path d="M30.2109 20.9297C31.043 20.9297 31.7461 20.25 31.7461 19.4531C31.7461 18.6445 31.0547 17.9766 30.2109 17.9766C29.3555 17.9766 28.6641 18.6445 28.6641 19.4531C28.6641 20.25 29.3672 20.9297 30.2109 20.9297ZM30.2109 15.7266C30.7852 15.7266 31.1836 15.3281 31.207 14.7305L31.4531 6.43359C31.4766 5.68359 30.9727 5.17969 30.2109 5.17969C29.4375 5.17969 28.9336 5.68359 28.957 6.43359L29.2031 14.7305C29.2266 15.3281 29.6367 15.7266 30.2109 15.7266Z" fill="black" fill-opacity="0.85"/>
  <path d="M1.86328 25.2656L3.73828 25.2656L3.73828 3C3.73828 2.27344 4.10156 1.88672 4.83984 1.88672L14.6953 1.88672C15.4219 1.88672 15.7969 2.26172 15.7969 3L15.8086 25.2656L17.6953 25.2656L17.6953 2.97656C17.6953 1.05469 16.6406 0 14.7305 0L4.81641 0C2.88281 0 1.86328 1.05469 1.86328 2.97656ZM5.56641 10.6172L13.9805 10.6172C14.3789 10.6172 14.6719 10.3242 14.6719 9.92578L14.6719 3.71484C14.6719 3.31641 14.3672 3.02344 13.9805 3.02344L5.56641 3.02344C5.16797 3.02344 4.875 3.31641 4.875 3.71484L4.875 9.92578C4.875 10.3242 5.16797 10.6172 5.56641 10.6172ZM0 25.1836C0 25.7109 0.410156 26.1445 0.925781 26.1445L18.6094 26.1445C19.125 26.1445 19.5469 25.7109 19.5469 25.1836C19.5469 24.6797 19.125 24.2578 18.6094 24.2578L0.925781 24.2578C0.421875 24.2578 0 24.668 0 25.1836ZM22.125 23.2031C24.2578 23.2031 25.4648 21.7734 25.4648 19.2422C25.4648 16.3008 24.8906 12.9141 23.7891 7.58203L23.543 6.35156C23.2969 5.19141 22.9453 4.25391 22.2539 3.38672L20.9297 1.73438C20.332 0.984375 19.1719 1.85156 19.8164 2.66016L21.4805 4.73438C21.5859 4.875 21.5977 5.0625 21.4922 5.22656L20.5078 7.05469C20.25 7.54688 20.3086 7.875 20.7188 8.33203L22.8984 10.6523C23.6367 13.9805 24.0469 16.9336 24.0469 19.2422C24.0469 20.8711 23.3555 21.7734 22.125 21.7734C21.0469 21.7734 20.3438 21.0703 20.3438 19.9102C20.3438 18.1875 20.625 15.9023 20.625 13.8047C20.625 11.7539 19.6172 10.1953 17.1328 9.375L16.5586 10.6641C18.4453 11.2383 19.207 12.3984 19.207 13.8047C19.207 15.6797 18.9258 17.9648 18.9258 19.9102C18.9258 21.9375 20.1797 23.2031 22.125 23.2031Z" fill="black" fill-opacity="0.85"/>
 </g>
</svg>
