<?xml version="1.0" encoding="UTF-8"?>
<!--Generator: Apple Native CoreSVG 360-->
<!DOCTYPE svg
PUBLIC "-//W3C//DTD SVG 1.1//EN"
       "http://www.w3.org/Graphics/SVG/1.1/DTD/svg11.dtd">
<svg version="1.1" xmlns="http://www.w3.org/2000/svg" xmlns:xlink="http://www.w3.org/1999/xlink" viewBox="0 0 21.2344 31.5586">
 <g>
  <rect height="31.5586" opacity="0" width="21.2344" x="0" y="0"/>
  <path d="M0.890625 31.5586C1.40625 31.5586 1.80469 31.1602 1.80469 30.668L1.80469 21.5859C1.80469 21.082 1.40625 20.6719 0.890625 20.6719C0.386719 20.6719 0 21.082 0 21.5859L0 30.668C0 31.1602 0.386719 31.5586 0.890625 31.5586ZM4.59375 24.9141C5.19141 24.9141 5.66016 24.4336 5.66016 23.8477C5.66016 23.25 5.19141 22.7695 4.59375 22.7695C4.00781 22.7695 3.52734 23.25 3.52734 23.8477C3.52734 24.4336 4.00781 24.9141 4.59375 24.9141ZM8.46094 24.9141C9.05859 24.9141 9.52734 24.4336 9.52734 23.8477C9.52734 23.25 9.05859 22.7695 8.46094 22.7695C7.86328 22.7695 7.38281 23.25 7.38281 23.8477C7.38281 24.4336 7.86328 24.9141 8.46094 24.9141ZM12.3281 24.9141C12.9141 24.9141 13.3828 24.4336 13.3828 23.8477C13.3828 23.25 12.9141 22.7695 12.3281 22.7695C11.7305 22.7695 11.25 23.25 11.25 23.8477C11.25 24.4336 11.7305 24.9141 12.3281 24.9141ZM16.1836 24.9141C16.7695 24.9141 17.25 24.4336 17.25 23.8477C17.25 23.25 16.7695 22.7695 16.1836 22.7695C15.5859 22.7695 15.1055 23.25 15.1055 23.8477C15.1055 24.4336 15.5859 24.9141 16.1836 24.9141ZM4.59375 29.543C5.19141 29.543 5.66016 29.0625 5.66016 28.4648C5.66016 27.8555 5.19141 27.3867 4.59375 27.3867C4.00781 27.3867 3.52734 27.8672 3.52734 28.4648C3.52734 29.0625 4.00781 29.543 4.59375 29.543ZM8.46094 29.543C9.05859 29.543 9.52734 29.0625 9.52734 28.4648C9.52734 27.8555 9.05859 27.3867 8.46094 27.3867C7.86328 27.3867 7.38281 27.8672 7.38281 28.4648C7.38281 29.0625 7.86328 29.543 8.46094 29.543ZM12.3281 29.543C12.9141 29.543 13.3828 29.0625 13.3828 28.4648C13.3828 27.8555 12.9141 27.3867 12.3281 27.3867C11.7305 27.3867 11.25 27.8672 11.25 28.4648C11.25 29.0625 11.7305 29.543 12.3281 29.543ZM16.1836 29.543C16.7695 29.543 17.25 29.0625 17.25 28.4648C17.25 27.8555 16.7695 27.3867 16.1836 27.3867C15.5859 27.3867 15.1055 27.8672 15.1055 28.4648C15.1055 29.0625 15.5859 29.543 16.1836 29.543ZM19.875 31.5117C20.3789 31.5117 20.7773 31.1133 20.7773 30.6211L20.7773 21.6211C20.7773 21.1172 20.3789 20.707 19.875 20.707C19.3828 20.707 18.9727 21.1172 18.9727 21.6211L18.9727 30.6211C18.9727 31.1133 19.3828 31.5117 19.875 31.5117Z" fill="black" fill-opacity="0.85"/>
  <path d="M15.2109 18.4336L15.2109 2.39062C15.2109 0.996094 14.4609 0.246094 13.0781 0.246094L6.28125 0.246094C4.88672 0.246094 4.16016 1.00781 4.16016 2.39062L4.16016 18.4336ZM6.55078 7.89844C5.92969 7.89844 5.57812 7.55859 5.57812 6.98438L5.57812 2.57812C5.57812 2.01562 5.92969 1.66406 6.55078 1.66406L12.8086 1.66406C13.4297 1.66406 13.793 2.01562 13.793 2.57812L13.793 6.98438C13.793 7.55859 13.4297 7.89844 12.8086 7.89844ZM2.73047 18.375C2.73047 18.8086 3.08203 19.1367 3.48047 19.1367L15.8672 19.1367C16.2891 19.1367 16.6289 18.8086 16.6289 18.375C16.6289 17.9648 16.2891 17.625 15.8672 17.625L3.48047 17.625C3.08203 17.625 2.73047 17.9531 2.73047 18.375ZM18.3984 17.0391C19.9922 17.0391 20.8828 15.9609 20.8828 14.0977C20.8828 11.9883 20.4844 9.53906 19.6875 5.68359L19.5 4.80469C19.3242 3.97266 19.0547 3.25781 18.5625 2.63672L17.6016 1.45312C17.1094 0.820312 16.1484 1.55859 16.6875 2.20312L17.8711 3.70312C17.9297 3.77344 17.9297 3.87891 17.8711 3.98438L17.168 5.28516C16.957 5.68359 17.0156 5.95312 17.3203 6.30469L18.8906 7.95703C19.4062 10.3242 19.6992 12.4453 19.6992 14.0977C19.6992 15.2461 19.2422 15.8438 18.3984 15.8438C17.6484 15.8438 17.2031 15.3984 17.2031 14.5781C17.2031 13.3594 17.4141 11.707 17.4141 10.1953C17.4141 8.64844 16.6406 7.48828 14.7656 6.89062L14.2969 7.98047C15.6797 8.37891 16.2188 9.16406 16.2188 10.1953C16.2188 11.5195 16.0195 13.1719 16.0195 14.5781C16.0195 16.0781 16.957 17.0391 18.3984 17.0391Z" fill="black" fill-opacity="0.85"/>
 </g>
</svg>
