<?xml version="1.0" encoding="UTF-8"?>
<!--Generator: Apple Native CoreSVG 360-->
<!DOCTYPE svg
PUBLIC "-//W3C//DTD SVG 1.1//EN"
       "http://www.w3.org/Graphics/SVG/1.1/DTD/svg11.dtd">
<svg version="1.1" xmlns="http://www.w3.org/2000/svg" xmlns:xlink="http://www.w3.org/1999/xlink" viewBox="0 0 24.2578 23.918">
 <g>
  <rect height="23.918" opacity="0" width="24.2578" x="0" y="0"/>
  <path d="M11.9531 23.9062C18.5508 23.9062 23.9062 18.5508 23.9062 11.9531C23.9062 5.35547 18.5508 0 11.9531 0C5.35547 0 0 5.35547 0 11.9531C0 18.5508 5.35547 23.9062 11.9531 23.9062ZM11.9531 21.9141C6.44531 21.9141 1.99219 17.4609 1.99219 11.9531C1.99219 6.44531 6.44531 1.99219 11.9531 1.99219C17.4609 1.99219 21.9141 6.44531 21.9141 11.9531C21.9141 17.4609 17.4609 21.9141 11.9531 21.9141Z" fill="black" fill-opacity="0.85"/>
  <path d="M11.9883 17.4492C14.8477 17.4492 16.5469 15.7734 16.5469 13.3594L16.5469 12.5039C16.5469 11.8711 16.1719 11.4961 15.5625 11.4961L12.5391 11.4961C12.1172 11.4961 11.8594 11.7773 11.8594 12.1758C11.8594 12.5273 12.1172 12.8438 12.5391 12.8438L14.6836 12.8438L14.6836 13.6055C14.6836 14.9883 13.7695 15.9023 12.0117 15.9023C10.125 15.9023 8.87109 14.2969 8.87109 11.8477C8.87109 9.42188 10.1133 7.78125 11.9766 7.78125C13.3008 7.78125 14.2852 8.41406 14.7656 9.57422C14.9531 9.97266 15.1875 10.1367 15.5391 10.1367C16.0312 10.1367 16.3477 9.83203 16.3477 9.33984C16.3477 9.14062 16.3242 8.98828 16.2422 8.80078C15.6914 7.32422 14.1328 6.23438 11.9531 6.23438C8.91797 6.23438 6.97266 8.42578 6.97266 11.8477C6.97266 15.2812 8.91797 17.4492 11.9883 17.4492Z" fill="black" fill-opacity="0.85"/>
 </g>
</svg>
