<?xml version="1.0" encoding="UTF-8"?>
<!--Generator: Apple Native CoreSVG 360-->
<!DOCTYPE svg
PUBLIC "-//W3C//DTD SVG 1.1//EN"
       "http://www.w3.org/Graphics/SVG/1.1/DTD/svg11.dtd">
<svg version="1.1" xmlns="http://www.w3.org/2000/svg" xmlns:xlink="http://www.w3.org/1999/xlink" viewBox="0 0 21.9258 21.5742">
 <g>
  <rect height="21.5742" opacity="0" width="21.9258" x="0" y="0"/>
  <path d="M3.67969 21.5742L17.8945 21.5742C20.3555 21.5742 21.5742 20.3672 21.5742 17.9531L21.5742 3.63281C21.5742 1.21875 20.3555 0 17.8945 0L3.67969 0C1.23047 0 0 1.21875 0 3.63281L0 17.9531C0 20.3672 1.23047 21.5742 3.67969 21.5742ZM3.70312 19.6875C2.53125 19.6875 1.88672 19.0664 1.88672 17.8477L1.88672 3.73828C1.88672 2.51953 2.53125 1.88672 3.70312 1.88672L17.8711 1.88672C19.0312 1.88672 19.6875 2.51953 19.6875 3.73828L19.6875 17.8477C19.6875 19.0664 19.0312 19.6875 17.8711 19.6875Z" fill="black" fill-opacity="0.85"/>
  <path d="M10.8398 16.2891C13.6992 16.2891 15.3984 14.6133 15.3984 12.1992L15.3984 11.3438C15.3984 10.7109 15.0234 10.3359 14.4141 10.3359L11.4023 10.3359C10.9688 10.3359 10.7109 10.6172 10.7109 11.0156C10.7109 11.3672 10.9688 11.6836 11.4023 11.6836L13.5352 11.6836L13.5352 12.4453C13.5352 13.8281 12.6328 14.7422 10.8633 14.7422C8.97656 14.7422 7.72266 13.1367 7.72266 10.6875C7.72266 8.26172 8.96484 6.62109 10.8281 6.62109C12.1523 6.62109 13.1367 7.25391 13.6172 8.41406C13.8164 8.8125 14.0391 8.97656 14.4023 8.97656C14.8828 8.97656 15.1992 8.67188 15.1992 8.17969C15.1992 7.98047 15.1758 7.82812 15.0938 7.64062C14.543 6.16406 12.9844 5.07422 10.8047 5.07422C7.76953 5.07422 5.82422 7.26562 5.82422 10.6875C5.82422 14.1211 7.76953 16.2891 10.8398 16.2891Z" fill="black" fill-opacity="0.85"/>
 </g>
</svg>
