<?xml version="1.0" encoding="UTF-8"?>
<!--Generator: Apple Native CoreSVG 360-->
<!DOCTYPE svg
PUBLIC "-//W3C//DTD SVG 1.1//EN"
       "http://www.w3.org/Graphics/SVG/1.1/DTD/svg11.dtd">
<svg version="1.1" xmlns="http://www.w3.org/2000/svg" xmlns:xlink="http://www.w3.org/1999/xlink" viewBox="0 0 29.1562 33.4956">
 <g>
  <rect height="33.4956" opacity="0" width="29.1562" x="0" y="0"/>
  <path d="M15.9023 10.2497C15.9023 10.7654 16.3242 11.199 16.8398 11.199C17.3555 11.199 17.7891 10.7654 17.7891 10.2497L17.7891 7.42553C17.7891 6.82787 17.3906 6.39428 16.8281 6.39428C10.3125 6.39428 4.89844 11.8201 4.89844 18.3474C4.89844 21.4177 6.09375 24.2419 8.03906 26.363C8.55469 26.9372 9.45703 27.0779 10.1484 26.3865L11.8125 24.7458C12.1758 24.3826 12.1641 23.7732 11.8125 23.4099C11.4375 23.0466 10.8398 23.0466 10.4766 23.4099L9.1875 24.699C7.75781 22.9763 6.90234 20.7849 6.90234 18.3474C6.90234 13.1443 10.8281 8.90209 15.9023 8.43334ZM8.76562 17.4099L5.90625 17.4099L5.90625 19.2966L8.76562 19.2966C9.28125 19.2966 9.70312 18.863 9.70312 18.3474C9.70312 17.8318 9.28125 17.4099 8.76562 17.4099ZM24.5273 12.031L26.1914 10.9529C24.4453 8.78491 22.0078 7.28491 19.2891 6.68725C19.3477 6.92162 19.3828 7.16772 19.3828 7.42553L19.3828 8.73803C21.3984 9.26537 23.2031 10.4021 24.5273 12.031ZM26.7656 19.3201L28.6875 19.7302C28.8398 18.4646 28.793 17.1638 28.5234 15.863C28.2305 14.574 27.7383 13.3552 27.082 12.2654L25.4297 13.3552C25.9336 14.2341 26.3203 15.1951 26.5547 16.2263C26.7891 17.2693 26.8477 18.3122 26.7656 19.3201ZM25.6758 26.3396C26.4727 25.4607 27.7383 23.7732 28.3711 21.2888L26.4609 20.8787C25.9805 22.7771 25.1133 24.031 24.5273 24.7224L23.2148 23.4099C22.8516 23.0466 22.2422 23.0466 21.8789 23.4099C21.5156 23.7732 21.5156 24.3826 21.8789 24.7458L23.5195 26.3747C24.2227 27.0779 25.1367 26.9372 25.6758 26.3396Z" fill="black" fill-opacity="0.85"/>
  <path d="M18.3398 19.8474C19.1016 19.074 19.1016 17.9724 18.3398 17.199C18.1992 17.0583 17.8828 16.8357 17.707 16.7068L12.0117 12.7576C11.7305 12.5583 11.4609 12.6169 11.2852 12.781C11.1094 12.9685 11.0625 13.238 11.25 13.5193L15.1992 19.2029C15.3281 19.3904 15.5508 19.6951 15.6914 19.8474C16.4648 20.6091 17.5664 20.6091 18.3398 19.8474Z" fill="black" fill-opacity="0.85"/>
  <path d="M15.9023 0.663812L15.9023 4.57787C15.9023 5.15209 16.3359 5.43334 16.8867 5.08178L19.8164 3.17162C20.2734 2.86694 20.2734 2.40991 19.8164 2.10522L16.8867 0.159905C16.3359-0.203376 15.9023 0.089593 15.9023 0.663812ZM0 18.113C0 22.9763 2.09766 27.3474 5.44922 30.324C6.55078 31.2849 7.53516 29.7732 6.71484 29.0701C3.71484 26.4568 1.88672 22.5896 1.88672 18.113C1.88672 9.62866 8.13281 3.39428 16.3711 3.39428C16.8867 3.39428 17.3203 2.97241 17.3203 2.44506C17.3203 1.92944 16.8867 1.50756 16.3711 1.50756C7.32422 1.50756 0 8.83178 0 18.113ZM6.33984 27.5232L3.5625 30.2888C3.14062 30.6872 3.25781 31.2146 3.90234 31.3435L7.32422 32.0701C7.875 32.1755 8.20312 31.8474 8.08594 31.3083L7.39453 27.8747C7.26562 27.2185 6.75 27.113 6.33984 27.5232Z" fill="black" fill-opacity="0.85"/>
 </g>
</svg>
