<?xml version="1.0" encoding="UTF-8"?>
<!--Generator: Apple Native CoreSVG 360-->
<!DOCTYPE svg
PUBLIC "-//W3C//DTD SVG 1.1//EN"
       "http://www.w3.org/Graphics/SVG/1.1/DTD/svg11.dtd">
<svg version="1.1" xmlns="http://www.w3.org/2000/svg" xmlns:xlink="http://www.w3.org/1999/xlink" viewBox="0 0 31.784 26.5868">
 <g>
  <rect height="26.5868" opacity="0" width="31.784" x="0" y="0"/>
  <path d="M28.2318 0.197719C27.8334-0.189 27.3529 0.0336563 27.2475 0.502406L26.4037 4.61569C26.2983 5.13131 26.6381 5.48288 27.1654 5.36569L31.2787 4.53366C31.7592 4.42819 31.9701 3.94772 31.5834 3.54928ZM28.7943 15.0571C28.7943 7.92038 22.8647 1.97897 15.7162 1.97897C8.56779 1.97897 2.64982 7.92038 2.64982 15.0571C2.64982 18.4204 3.9506 21.5024 6.08341 23.8344C6.63419 24.4438 7.58341 24.5844 8.30997 23.8579L10.1264 22.0415C10.5131 21.6665 10.5131 21.0571 10.1264 20.6821C9.75138 20.2954 9.13029 20.2954 8.767 20.6821L7.29044 22.1352C5.68497 20.2251 4.72404 17.7641 4.72404 15.0571C4.72404 8.93991 9.59904 4.04147 15.7162 4.04147C21.8334 4.04147 26.7201 8.93991 26.7201 15.0571C26.7201 17.7641 25.7475 20.2251 24.142 22.1352L22.6772 20.6821C22.3139 20.3071 21.6928 20.2954 21.3061 20.6821C20.9193 21.0571 20.9193 21.6665 21.3061 22.0415L23.1225 23.8579C23.8608 24.5844 24.81 24.4438 25.349 23.8344C27.4936 21.5024 28.7943 18.4204 28.7943 15.0571ZM24.599 14.0844C24.0717 14.0844 23.6381 14.5298 23.6381 15.0571C23.6381 15.5844 24.0717 16.0298 24.599 16.0298L27.6928 16.0298L27.6928 14.0844ZM16.6889 6.15084L16.6889 3.06881L14.7436 3.06881L14.7436 6.15084C14.7436 6.67819 15.1889 7.1235 15.7162 7.1235C16.2436 7.1235 16.6889 6.67819 16.6889 6.15084ZM10.0912 8.07272L7.89982 5.89303L6.54044 7.26413L8.72013 9.44381C9.08341 9.81881 9.71622 9.83053 10.0912 9.44381C10.4779 9.06881 10.4662 8.436 10.0912 8.07272ZM6.78654 14.0844L3.71622 14.0844L3.71622 16.0298L6.78654 16.0298C7.31388 16.0298 7.77091 15.5844 7.77091 15.0571C7.77091 14.5298 7.31388 14.0844 6.78654 14.0844Z" fill="black" fill-opacity="0.85"/>
  <path d="M28.2318 0.197719C27.8334-0.189 27.3529 0.0336563 27.2475 0.502406L26.4037 4.61569C26.2983 5.13131 26.6381 5.48288 27.1654 5.36569L31.2787 4.53366C31.7592 4.42819 31.9701 3.94772 31.5834 3.54928Z" fill="black" fill-opacity="0.85"/>
  <path d="M17.1928 16.6977C17.3451 16.5337 17.5912 16.2055 17.7436 15.9946L22.0678 9.7485C22.2904 9.42038 22.2201 9.12741 22.0443 8.92819C21.8451 8.75241 21.5404 8.68209 21.2358 8.90475L14.9897 13.2407C14.7787 13.3813 14.4389 13.6274 14.2865 13.7915C13.4311 14.6352 13.4311 15.854 14.2865 16.6977C15.1186 17.5415 16.3373 17.5415 17.1928 16.6977Z" fill="black" fill-opacity="0.85"/>
 </g>
</svg>
