<?xml version="1.0" encoding="UTF-8"?>
<!--Generator: Apple Native CoreSVG 360-->
<!DOCTYPE svg
PUBLIC "-//W3C//DTD SVG 1.1//EN"
       "http://www.w3.org/Graphics/SVG/1.1/DTD/svg11.dtd">
<svg version="1.1" xmlns="http://www.w3.org/2000/svg" xmlns:xlink="http://www.w3.org/1999/xlink" viewBox="0 0 26.4492 22.6055">
 <g>
  <rect height="22.6055" opacity="0" width="26.4492" x="0" y="0"/>
  <path d="M13.043 0C5.83594 0 0 5.83594 0 13.043C0 16.5938 1.41797 19.8516 3.77344 22.2188C4.17188 22.6172 4.79297 22.6406 5.23828 22.2305C5.60156 21.8672 5.53125 21.2344 5.0625 20.7305C3.17578 18.7617 2.02734 16.0195 2.02734 13.043C2.02734 6.87891 6.89062 1.99219 13.043 1.99219C19.207 1.99219 24.0703 6.87891 24.0703 13.043C24.0703 16.0195 22.9219 18.7617 21.0352 20.7305C20.5664 21.2344 20.4961 21.8672 20.8594 22.2305C21.3047 22.6406 21.9258 22.6172 22.3242 22.2188C24.6797 19.8516 26.0977 16.5938 26.0977 13.043C26.0977 5.83594 20.2617 0 13.043 0Z" fill="black" fill-opacity="0.85"/>
 </g>
</svg>
