<?xml version="1.0" encoding="UTF-8"?>
<!--Generator: Apple Native CoreSVG 360-->
<!DOCTYPE svg
PUBLIC "-//W3C//DTD SVG 1.1//EN"
       "http://www.w3.org/Graphics/SVG/1.1/DTD/svg11.dtd">
<svg version="1.1" xmlns="http://www.w3.org/2000/svg" xmlns:xlink="http://www.w3.org/1999/xlink" viewBox="0 0 32.4861 26.5868">
 <g>
  <rect height="26.5868" opacity="0" width="32.4861" x="0" y="0"/>
  <path d="M3.00084 15.0571C3.00084 18.4204 4.30162 21.5024 6.43444 23.8344C6.98522 24.4438 7.93444 24.5844 8.661 23.8579L10.4774 22.0415C10.8641 21.6665 10.8641 21.0571 10.4774 20.6821C10.1024 20.2954 9.48131 20.3071 9.11803 20.6821L7.64147 22.1352C6.036 20.2251 5.07506 17.7641 5.07506 15.0571C5.07506 8.93991 9.95006 4.04147 16.0672 4.04147C22.1844 4.04147 27.0712 8.93991 27.0712 15.0571C27.0712 17.7641 26.1102 20.2251 24.493 22.1352L23.0282 20.6821C22.6649 20.2954 22.0438 20.2954 21.6571 20.6821C21.2821 21.0571 21.2704 21.6665 21.6571 22.0415L23.4735 23.8579C24.2118 24.5844 25.161 24.4438 25.7001 23.8344C27.8446 21.5024 29.1454 18.4204 29.1454 15.0571C29.1454 7.92038 23.2157 1.97897 16.0672 1.97897C8.91881 1.97897 3.00084 7.92038 3.00084 15.0571ZM7.18444 14.0844L4.1024 14.0844L4.1024 16.0298L7.18444 16.0298C7.71178 16.0298 8.15709 15.5844 8.15709 15.0571C8.15709 14.5298 7.71178 14.0844 7.18444 14.0844ZM15.1063 6.15084C15.1063 6.67819 15.5399 7.1235 16.0672 7.1235C16.5946 7.1235 17.0516 6.67819 17.0516 6.15084L17.0516 3.06881L15.1063 3.06881ZM21.6922 8.07272C21.3172 8.436 21.3172 9.06881 21.6922 9.44381C22.079 9.83053 22.7118 9.81881 23.0751 9.44381L25.2547 7.26413L23.8837 5.89303ZM24.9969 14.0844C24.4696 14.0844 24.0243 14.5298 24.0243 15.0571C24.0243 15.5844 24.4696 16.0298 24.9969 16.0298L28.079 16.0298L28.079 14.0844Z" fill="black" fill-opacity="0.85"/>
  <path d="M14.6024 16.6977C15.4462 17.5415 16.6649 17.5415 17.5087 16.6977C18.3524 15.854 18.3524 14.6352 17.5087 13.7915C17.3563 13.6274 17.0165 13.3813 16.8055 13.2407L10.5594 8.90475C10.243 8.68209 9.93834 8.75241 9.75084 8.92819C9.56334 9.12741 9.49303 9.42038 9.71569 9.7485L14.0516 15.9946C14.1922 16.2055 14.4383 16.5337 14.6024 16.6977Z" fill="black" fill-opacity="0.85"/>
  <path d="M3.56334 0.197719L0.20006 3.54928C-0.186659 3.94772 0.0242789 4.42819 0.516466 4.53366L4.61803 5.36569C5.15709 5.48288 5.48522 5.13131 5.37975 4.61569L4.536 0.502406C4.44225 0.0336563 3.95006-0.189 3.56334 0.197719Z" fill="black" fill-opacity="0.85"/>
 </g>
</svg>
