<?xml version="1.0" encoding="UTF-8"?>
<!--Generator: Apple Native CoreSVG 360-->
<!DOCTYPE svg
PUBLIC "-//W3C//DTD SVG 1.1//EN"
       "http://www.w3.org/Graphics/SVG/1.1/DTD/svg11.dtd">
<svg version="1.1" xmlns="http://www.w3.org/2000/svg" xmlns:xlink="http://www.w3.org/1999/xlink" viewBox="0 0 37.7416 36.3867">
 <g>
  <rect height="36.3867" opacity="0" width="37.7416" x="0" y="0"/>
  <path d="M18.6189 4.91016C19.8259 5.0625 20.7868 5.66016 21.2907 7.08984L22.067 9.31917C21.4468 9.3359 20.841 9.41246 20.2505 9.53533C20.3184 9.41242 20.3216 9.24504 20.2595 9.05859L19.697 7.42969C19.4978 6.82031 19.1814 6.62109 18.6423 6.55078C18.0329 6.46875 16.3571 6.39844 13.8728 6.39844C11.3884 6.39844 9.70089 6.46875 9.09152 6.55078C8.56417 6.62109 8.23605 6.82031 8.03683 7.42969L7.48605 9.05859C7.35714 9.44531 7.50949 9.75 7.91964 9.75L19.3652 9.75C17.4432 10.2485 15.6868 11.1791 14.1965 12.4219L11.8806 12.4219C11.4587 12.4219 11.1775 12.7031 11.1775 13.1484L11.1775 14.0391C11.1775 14.5078 11.4587 14.7891 11.8806 14.7891L11.9705 14.7891C11.111 15.9148 10.4359 17.184 9.98416 18.5508L6.90011 18.5508L6.90011 19.8047C6.90011 20.4492 6.3962 20.9531 5.73995 20.9531L4.72042 20.9531C4.06417 20.9531 3.56027 20.4492 3.56027 19.8047L3.56027 14.0039C3.56027 12.5273 3.7712 11.6484 4.67355 10.6641L5.54074 9.71484L6.4548 7.08984C6.9587 5.66016 7.91964 5.0625 9.12667 4.91016C9.71261 4.85156 11.6228 4.79297 13.8728 4.79297C16.1228 4.79297 18.0329 4.85156 18.6189 4.91016ZM5.78683 12.9141L5.78683 14.2852C5.78683 14.8125 6.17355 15.1992 6.71261 15.1992C7.23995 15.1992 7.63839 14.8125 7.63839 14.2852L7.63839 12.9141C7.63839 12.375 7.23995 12 6.71261 12C6.17355 12 5.78683 12.3867 5.78683 12.9141Z" fill="black" fill-opacity="0.85"/>
  <path d="M34.7439 22.8281C34.7439 16.3008 29.3415 10.875 22.8025 10.875C16.2751 10.875 10.861 16.3008 10.861 22.8281C10.861 25.8984 12.0564 28.7227 14.0017 30.8438C14.5173 31.418 15.4196 31.5586 16.111 30.8672L17.7634 29.2266C18.1384 28.8633 18.1267 28.2539 17.7634 27.8906C17.4001 27.5273 16.7907 27.5273 16.4275 27.8906L15.1501 29.1797C13.7204 27.457 12.865 25.2539 12.865 22.8281C12.865 17.2969 17.2712 12.8672 22.8025 12.8672C28.3337 12.8672 32.74 17.2969 32.74 22.8281C32.74 25.2539 31.8845 27.457 30.4665 29.1797L29.1775 27.8906C28.8142 27.5273 28.2048 27.5273 27.8415 27.8906C27.4782 28.2539 27.4782 28.8633 27.8415 29.2266L29.4939 30.8672C30.1853 31.5586 31.0876 31.418 31.6032 30.8438C33.5485 28.7227 34.7439 25.8984 34.7439 22.8281ZM30.8884 21.8906C30.3728 21.8906 29.9392 22.3125 29.9392 22.8281C29.9392 23.3438 30.3728 23.7773 30.8884 23.7773L33.7478 23.7773L33.7478 21.8906ZM23.7517 14.7305L23.7517 11.8711L21.865 11.8711L21.865 14.7305C21.865 15.2461 22.2868 15.668 22.8025 15.668C23.3181 15.668 23.7517 15.2461 23.7517 14.7305ZM17.7282 16.4414L15.7009 14.4141L14.3767 15.75L16.3923 17.7656C16.7556 18.1406 17.365 18.1289 17.7282 17.7656C18.0915 17.4023 18.1032 16.793 17.7282 16.4414ZM14.6931 21.8906L11.8337 21.8906L11.8337 23.7773L14.6931 23.7773C15.2087 23.7773 15.6306 23.3438 15.6306 22.8281C15.6306 22.3125 15.2087 21.8906 14.6931 21.8906Z" fill="black" fill-opacity="0.85"/>
  <path d="M21.3142 24.3164C22.0759 25.0898 23.1892 25.0898 23.9509 24.3164C24.0915 24.1758 24.3142 23.8711 24.4548 23.6836L28.3923 18C28.5915 17.7188 28.5329 17.4375 28.3689 17.2617C28.1931 17.0977 27.9118 17.0391 27.6306 17.2383L21.947 21.1758C21.7595 21.3164 21.4548 21.5391 21.3142 21.6797C20.5407 22.4531 20.5407 23.5547 21.3142 24.3164Z" fill="black" fill-opacity="0.85"/>
  <path d="M34.1814 8.13281C33.7946 7.73438 33.3025 7.95703 33.2087 8.4375L32.365 12.5391C32.2595 13.0664 32.5876 13.418 33.1267 13.3008L37.2282 12.4688C37.7204 12.3633 37.9314 11.8711 37.5329 11.4844Z" fill="black" fill-opacity="0.85"/>
 </g>
</svg>
