<?xml version="1.0" encoding="UTF-8"?>
<!--Generator: Apple Native CoreSVG 360-->
<!DOCTYPE svg
PUBLIC "-//W3C//DTD SVG 1.1//EN"
       "http://www.w3.org/Graphics/SVG/1.1/DTD/svg11.dtd">
<svg version="1.1" xmlns="http://www.w3.org/2000/svg" xmlns:xlink="http://www.w3.org/1999/xlink" viewBox="0 0 26.4961 22.6289">
 <g>
  <rect height="22.6289" opacity="0" width="26.4961" x="0" y="0"/>
  <path d="M0 13.0781C0 16.4414 1.30078 19.5234 3.44531 21.8555C3.98438 22.4648 4.93359 22.6055 5.66016 21.8789L7.47656 20.0625C7.86328 19.6875 7.86328 19.0781 7.47656 18.7031C7.10156 18.3164 6.48047 18.3281 6.11719 18.7031L4.65234 20.1562C3.03516 18.2461 2.07422 15.7852 2.07422 13.0781C2.07422 6.96094 6.94922 2.0625 13.0664 2.0625C19.1953 2.0625 24.0703 6.96094 24.0703 13.0781C24.0703 15.7852 23.1094 18.2461 21.4922 20.1562L20.0273 18.7031C19.6641 18.3164 19.043 18.3164 18.668 18.7031C18.2812 19.0781 18.2812 19.6875 18.668 20.0625L20.4844 21.8789C21.2109 22.6055 22.1602 22.4648 22.6992 21.8555C24.8438 19.5234 26.1445 16.4414 26.1445 13.0781C26.1445 5.94141 20.2148 0 13.0664 0C5.92969 0 0 5.94141 0 13.0781ZM4.19531 12.1055L1.10156 12.1055L1.10156 14.0508L4.19531 14.0508C4.72266 14.0508 5.15625 13.6055 5.15625 13.0781C5.15625 12.5508 4.72266 12.1055 4.19531 12.1055ZM12.1055 4.17188C12.1055 4.69922 12.5391 5.14453 13.0664 5.14453C13.6055 5.14453 14.0508 4.69922 14.0508 4.17188L14.0508 1.08984L12.1055 1.08984ZM18.7031 6.09375C18.3281 6.45703 18.3164 7.08984 18.7031 7.46484C19.0781 7.85156 19.7109 7.83984 20.0742 7.46484L22.2539 5.28516L20.8828 3.91406ZM21.9961 12.1055C21.4688 12.1055 21.0234 12.5508 21.0234 13.0781C21.0234 13.6055 21.4688 14.0508 21.9961 14.0508L25.0781 14.0508L25.0781 12.1055Z" fill="black" fill-opacity="0.85"/>
  <path d="M11.6016 14.7188C12.457 15.5625 13.6641 15.5625 14.5078 14.7188C15.3516 13.875 15.3516 12.6562 14.5078 11.8125C14.3555 11.6484 14.0156 11.4023 13.8047 11.2617L7.55859 6.92578C7.25391 6.70312 6.9375 6.77344 6.75 6.94922C6.5625 7.14844 6.50391 7.44141 6.72656 7.76953L11.0508 14.0156C11.2031 14.2266 11.4492 14.5547 11.6016 14.7188Z" fill="black" fill-opacity="0.85"/>
 </g>
</svg>
