<?xml version="1.0" encoding="UTF-8"?>
<!--Generator: Apple Native CoreSVG 360-->
<!DOCTYPE svg
PUBLIC "-//W3C//DTD SVG 1.1//EN"
       "http://www.w3.org/Graphics/SVG/1.1/DTD/svg11.dtd">
<svg version="1.1" xmlns="http://www.w3.org/2000/svg" xmlns:xlink="http://www.w3.org/1999/xlink" viewBox="0 0 29.6367 29.6176">
 <g>
  <rect height="29.6176" opacity="0" width="29.6367" x="0" y="0"/>
  <path d="M25.7344 28.5725C26.0742 28.5725 26.3906 28.3967 26.5664 28.1389C28.2891 25.4436 29.2852 22.2561 29.2852 18.8225C29.2852 9.40062 21.7148 1.73655 12.375 1.54905C11.8008 1.53733 11.3555 1.99437 11.3555 2.54515C11.3555 3.09593 11.8008 3.54124 12.3633 3.55296C20.6016 3.74046 27.2812 10.5022 27.2812 18.8225C27.2812 21.8225 26.4023 24.6467 24.9023 27.0022C24.7969 27.1662 24.7266 27.3655 24.7266 27.5764C24.7266 28.1272 25.1836 28.5725 25.7344 28.5725ZM13.1602 5.02952C13.6875 5.43968 14.1328 5.2053 14.2031 4.61937L14.5547 0.717022C14.6367 0.154522 14.2383-0.197041 13.6289 0.119366L10.5352 1.78343C10.0547 2.05296 9.99609 2.52171 10.4414 2.86155Z" fill="black" fill-opacity="0.85"/>
  <path d="M4.80469 28.2912C5.26172 28.6545 5.8125 28.7014 6.23438 28.2912C6.62109 27.9045 6.58594 27.2131 6.08203 26.8381C3.42188 24.8694 2.00391 21.8342 2.00391 18.8108C2.00391 13.0451 6.72656 8.86155 11.8125 8.86155C12.3281 8.86155 12.7383 8.4514 12.7383 7.92405C12.7383 7.40843 12.3281 6.98655 11.8125 6.98655C5.34375 6.98655 0 12.3186 0 18.8108C0 22.5842 1.79297 25.9944 4.80469 28.2912ZM18.4219 28.5725C18.9727 28.5725 19.4297 28.1155 19.4297 27.553C19.4297 27.0022 18.9727 26.5451 18.4219 26.5451C17.8711 26.5451 17.4141 27.0022 17.4141 27.553C17.4141 28.1155 17.8711 28.5725 18.4219 28.5725ZM20.8242 26.1584C21.375 26.1584 21.832 25.7014 21.832 25.1506C21.832 24.5998 21.375 24.1428 20.8242 24.1428C20.2734 24.1428 19.8164 24.5998 19.8164 25.1506C19.8164 25.7014 20.2734 26.1584 20.8242 26.1584ZM22.3594 23.1584C22.9102 23.1584 23.3672 22.7014 23.3672 22.1506C23.3672 21.5998 22.9102 21.1428 22.3594 21.1428C21.8086 21.1428 21.3516 21.5998 21.3516 22.1506C21.3516 22.7014 21.8086 23.1584 22.3594 23.1584ZM22.9336 19.7951C23.4844 19.7951 23.9414 19.3381 23.9414 18.7873C23.9414 18.2248 23.4844 17.7795 22.9336 17.7795C22.3828 17.7795 21.9258 18.2248 21.9258 18.7873C21.9258 19.3381 22.3828 19.7951 22.9336 19.7951ZM15.375 9.48265C15.9258 9.48265 16.3828 9.02562 16.3828 8.47483C16.3828 7.92405 15.9258 7.46702 15.375 7.46702C14.8242 7.46702 14.3672 7.92405 14.3672 8.47483C14.3672 9.02562 14.8242 9.48265 15.375 9.48265ZM22.3594 16.4319C22.9102 16.4319 23.3672 15.9748 23.3672 15.4123C23.3672 14.8616 22.9102 14.4045 22.3594 14.4045C21.8086 14.4045 21.3516 14.8616 21.3516 15.4123C21.3516 15.9748 21.8086 16.4319 22.3594 16.4319ZM18.4219 11.0178C18.9727 11.0178 19.4297 10.5608 19.4297 10.01C19.4297 9.45921 18.9727 9.00218 18.4219 9.00218C17.8711 9.00218 17.4141 9.45921 17.4141 10.01C17.4141 10.5608 17.8711 11.0178 18.4219 11.0178ZM20.8242 13.4201C21.375 13.4201 21.832 12.9631 21.832 12.4123C21.832 11.8616 21.375 11.4045 20.8242 11.4045C20.2734 11.4045 19.8164 11.8616 19.8164 12.4123C19.8164 12.9631 20.2734 13.4201 20.8242 13.4201Z" fill="black" fill-opacity="0.85"/>
  <path d="M10.7227 20.3576C11.4961 21.1311 12.5977 21.1311 13.3711 20.3576C14.1328 19.5959 14.1328 18.4944 13.3711 17.7209C13.2305 17.5803 12.9141 17.3576 12.7266 17.2287L7.04297 13.2795C6.76172 13.0803 6.49219 13.1389 6.30469 13.303C6.14062 13.4787 6.08203 13.76 6.28125 14.0412L10.2305 19.7248C10.3594 19.9123 10.582 20.217 10.7227 20.3576Z" fill="black" fill-opacity="0.85"/>
 </g>
</svg>
