<?xml version="1.0" encoding="UTF-8"?>
<!--Generator: Apple Native CoreSVG 360-->
<!DOCTYPE svg
PUBLIC "-//W3C//DTD SVG 1.1//EN"
       "http://www.w3.org/Graphics/SVG/1.1/DTD/svg11.dtd">
<svg version="1.1" xmlns="http://www.w3.org/2000/svg" xmlns:xlink="http://www.w3.org/1999/xlink" viewBox="0 0 32.5195 25.5586">
 <g>
  <rect height="25.5586" opacity="0" width="32.5195" x="0" y="0"/>
  <path d="M8.35547 18.4219L10.0664 18.4219C10.8047 18.4219 11.3789 17.9648 11.543 17.2734L11.8711 15.7734C11.9062 15.7617 11.9531 15.75 11.9883 15.7383L13.3125 16.5234C13.9102 16.8867 14.6484 16.8164 15.1523 16.3008L16.3477 15.1055C16.875 14.5781 16.9453 13.8516 16.5703 13.2539L15.7617 11.9766C15.7734 11.9297 15.7969 11.8945 15.8086 11.8477L17.2734 11.4961C17.9648 11.3203 18.4219 10.7344 18.4219 10.0078L18.4219 8.41406C18.4219 7.6875 17.9766 7.10156 17.2734 6.92578L15.8086 6.57422C15.7969 6.52734 15.7734 6.49219 15.7617 6.44531L16.5703 5.16797C16.9453 4.55859 16.875 3.84375 16.3477 3.31641L15.1523 2.12109C14.6484 1.60547 13.9102 1.53516 13.3125 1.89844L11.9883 2.68359C11.9414 2.67188 11.9062 2.66016 11.8594 2.64844L11.543 1.14844C11.3906 0.457031 10.8047 0 10.0664 0L8.35547 0C7.61719 0 7.04297 0.457031 6.87891 1.14844L6.55078 2.64844C6.50391 2.66016 6.46875 2.67188 6.42188 2.68359L5.10938 1.89844C4.51172 1.53516 3.77344 1.60547 3.26953 2.12109L2.07422 3.31641C1.54688 3.84375 1.48828 4.57031 1.85156 5.16797L2.66016 6.44531C2.64844 6.49219 2.625 6.52734 2.61328 6.57422L1.13672 6.92578C0.445312 7.10156 0 7.6875 0 8.41406L0 10.0078C0 10.7344 0.445312 11.3203 1.13672 11.4961L2.61328 11.8477C2.625 11.8945 2.64844 11.9297 2.66016 11.9766L1.85156 13.2539C1.47656 13.8516 1.54688 14.5781 2.07422 15.1055L3.26953 16.3008C3.77344 16.8164 4.5 16.8867 5.09766 16.5234L6.43359 15.7383C6.46875 15.75 6.51562 15.7617 6.55078 15.7734L6.87891 17.2734C7.04297 17.9648 7.61719 18.4219 8.35547 18.4219ZM8.57812 16.7812C8.46094 16.7812 8.40234 16.7227 8.36719 16.5938L7.86328 14.5078C7.30078 14.3789 6.78516 14.1211 6.375 13.8984L4.54688 15.0117C4.42969 15.0703 4.34766 15.0703 4.26562 14.9883L3.375 14.1094C3.29297 14.0273 3.28125 13.9453 3.35156 13.8398L4.45312 12.0234C4.3125 11.6719 4.00781 11.1445 3.86719 10.5352L1.80469 10.043C1.6875 10.0078 1.62891 9.94922 1.62891 9.83203L1.62891 8.58984C1.62891 8.47266 1.6875 8.41406 1.80469 8.37891L3.86719 7.88672C4.00781 7.27734 4.3125 6.75 4.45312 6.39844L3.35156 4.58203C3.28125 4.47656 3.29297 4.39453 3.375 4.3125L4.26562 3.43359C4.34766 3.35156 4.42969 3.35156 4.54688 3.41016L6.375 4.52344C6.78516 4.30078 7.30078 4.04297 7.86328 3.91406L8.36719 1.82812C8.40234 1.69922 8.46094 1.64062 8.57812 1.64062L9.84375 1.64062C9.96094 1.64062 10.0195 1.69922 10.0547 1.82812L10.5586 3.91406C11.1211 4.04297 11.6367 4.30078 12.0469 4.52344L13.875 3.41016C13.9805 3.35156 14.0742 3.35156 14.1562 3.43359L15.0469 4.3125C15.1289 4.39453 15.1406 4.47656 15.0703 4.58203L13.9688 6.39844C14.1094 6.75 14.4141 7.27734 14.5547 7.88672L16.6172 8.37891C16.7344 8.41406 16.793 8.47266 16.793 8.58984L16.793 9.83203C16.793 9.94922 16.7344 10.0078 16.6172 10.043L14.5547 10.5352C14.4141 11.1445 14.1094 11.6719 13.9688 12.0234L15.0703 13.8398C15.1406 13.9453 15.1289 14.0273 15.0469 14.1094L14.1562 14.9883C14.0742 15.0703 13.9805 15.0703 13.875 15.0117L12.0469 13.8984C11.6367 14.1211 11.1211 14.3789 10.5586 14.5078L10.0547 16.5938C10.0195 16.7227 9.96094 16.7812 9.84375 16.7812ZM23.7422 25.5352L25.0898 25.5352C25.7578 25.5352 26.3203 25.1484 26.4258 24.5391L26.6484 23.3555C26.707 23.3438 26.7422 23.332 26.7773 23.3203L27.7734 23.9414C28.3125 24.2812 28.9805 24.2109 29.4492 23.7188L30.3984 22.7695C30.8672 22.2891 30.9609 21.6211 30.5977 21.082L29.9648 20.1211C29.9766 20.0742 29.9883 20.0508 30.0117 20.0039L31.1719 19.7578C31.7695 19.6289 32.168 19.0898 32.168 18.4219L32.168 17.1094C32.168 16.4531 31.7695 15.9023 31.1719 15.7734L30.0117 15.5391C29.9883 15.4922 29.9766 15.457 29.9648 15.4102L30.5977 14.4492C30.9609 13.9102 30.8672 13.2539 30.3984 12.7734L29.4492 11.8125C28.9805 11.332 28.3125 11.25 27.7734 11.5898L26.7773 12.2109C26.7422 12.1992 26.707 12.1875 26.6484 12.1758L26.4258 11.0039C26.3203 10.3828 25.7578 9.99609 25.0898 9.99609L23.7422 9.99609C23.0742 9.99609 22.5117 10.3828 22.3945 11.0039L22.1719 12.1758C22.125 12.1875 22.0898 12.1992 22.043 12.2109L21.0469 11.5898C20.5078 11.25 19.8516 11.332 19.3828 11.8125L18.4336 12.7734C17.9648 13.2539 17.8711 13.9102 18.2227 14.4492L18.8555 15.4102C18.8438 15.457 18.832 15.4922 18.8203 15.5391L17.6602 15.7734C17.0508 15.9023 16.6523 16.4531 16.6523 17.1094L16.6523 18.4219C16.6523 19.0898 17.0508 19.6289 17.6602 19.7578L18.8203 20.0039C18.832 20.0508 18.8438 20.0742 18.8555 20.1211L18.2227 21.082C17.8711 21.6211 17.9648 22.2891 18.4336 22.7695L19.3828 23.7188C19.8516 24.2109 20.5078 24.2812 21.0469 23.9414L22.043 23.3203C22.0898 23.332 22.125 23.3438 22.1719 23.3555L22.3945 24.5391C22.5117 25.1484 23.0742 25.5352 23.7422 25.5352ZM24.0469 23.9766C23.9062 23.9766 23.8359 23.9062 23.8008 23.7891L23.3906 22.1016C22.9219 21.9961 22.5 21.832 22.0547 21.5391L20.5781 22.4648C20.4844 22.5234 20.3672 22.5117 20.2734 22.4297L19.7461 21.8789C19.6406 21.7734 19.6289 21.6797 19.6992 21.5742L20.5898 20.1328C20.4961 19.8516 20.1797 19.3477 20.0625 18.7734L18.3867 18.3867C18.2695 18.3633 18.1992 18.2695 18.1992 18.1523L18.1992 17.3789C18.1992 17.2617 18.2695 17.168 18.3867 17.1445L20.0625 16.7578C20.1797 16.1836 20.4961 15.6914 20.5898 15.3984L19.6992 13.957C19.6289 13.8633 19.6406 13.7578 19.7461 13.6523L20.2734 13.1133C20.3672 13.0195 20.4844 13.0078 20.5781 13.0781L22.0547 13.9922C22.5 13.7109 22.9219 13.5352 23.3906 13.4297L23.8008 11.7422C23.8359 11.625 23.9062 11.5547 24.0469 11.5547L24.7734 11.5547C24.9141 11.5547 24.9844 11.625 25.0195 11.7422L25.4297 13.4297C25.8984 13.5352 26.3203 13.7109 26.7656 13.9922L28.2422 13.0781C28.3477 13.0078 28.4531 13.0195 28.5469 13.1133L29.0859 13.6523C29.1797 13.7578 29.1914 13.8633 29.1328 13.957L28.2305 15.3984C28.3359 15.6914 28.6406 16.1836 28.7578 16.7578L30.4336 17.1445C30.5508 17.168 30.6211 17.2617 30.6211 17.3789L30.6211 18.1523C30.6211 18.2695 30.5508 18.3633 30.4336 18.3867L28.7578 18.7734C28.6406 19.3477 28.3359 19.8516 28.2305 20.1328L29.1328 21.5742C29.1914 21.6797 29.1797 21.7734 29.0859 21.8789L28.5469 22.4297C28.4531 22.5117 28.3477 22.5234 28.2422 22.4648L26.7656 21.5391C26.3203 21.832 25.8984 21.9961 25.4297 22.1016L25.0195 23.7891C24.9844 23.9062 24.9141 23.9766 24.7734 23.9766ZM9.21094 12.75C11.1562 12.75 12.75 11.168 12.75 9.21094C12.75 7.25391 11.1562 5.67188 9.21094 5.67188C7.25391 5.67188 5.66016 7.25391 5.66016 9.21094C5.66016 11.168 7.25391 12.75 9.21094 12.75ZM9.21094 11.0625C8.17969 11.0625 7.34766 10.2422 7.34766 9.21094C7.34766 8.17969 8.17969 7.35938 9.21094 7.35938C10.2305 7.35938 11.0625 8.17969 11.0625 9.21094C11.0625 10.2422 10.2305 11.0625 9.21094 11.0625ZM24.3984 20.5195C25.9102 20.5195 27.1523 19.2773 27.1523 17.7656C27.1523 16.2539 25.9102 15.0234 24.3984 15.0234C22.8867 15.0234 21.6562 16.2539 21.6562 17.7656C21.6562 19.2773 22.8867 20.5195 24.3984 20.5195ZM24.3984 19.0312C23.707 19.0312 23.1445 18.457 23.1445 17.7656C23.1445 17.0742 23.707 16.5117 24.3984 16.5117C25.0898 16.5117 25.6641 17.0742 25.6641 17.7656C25.6641 18.457 25.0898 19.0312 24.3984 19.0312Z" fill="black" fill-opacity="0.85"/>
 </g>
</svg>
