<?xml version="1.0" encoding="UTF-8"?>
<!--Generator: Apple Native CoreSVG 360-->
<!DOCTYPE svg
PUBLIC "-//W3C//DTD SVG 1.1//EN"
       "http://www.w3.org/Graphics/SVG/1.1/DTD/svg11.dtd">
<svg version="1.1" xmlns="http://www.w3.org/2000/svg" xmlns:xlink="http://www.w3.org/1999/xlink" viewBox="0 0 27.3047 26.9414">
 <g>
  <rect height="26.9414" opacity="0" width="27.3047" x="0" y="0"/>
  <path d="M13.4766 26.9414C13.7812 26.9414 14.0273 26.7773 14.1094 26.2148L14.2266 25.2539C14.2969 24.8555 14.5312 24.6445 14.9531 24.5977C15.3633 24.5273 15.6328 24.7031 15.7852 25.0547L16.1484 25.9453C16.3828 26.4727 16.6641 26.5664 16.957 26.4844C17.25 26.3906 17.4492 26.1797 17.3672 25.6055L17.2383 24.668C17.1797 24.2578 17.3789 24.0117 17.7891 23.8242C18.1406 23.6719 18.4688 23.7188 18.7148 24.0469L19.3008 24.8086C19.6641 25.2891 19.9336 25.3008 20.2148 25.125C20.4961 24.9727 20.6133 24.7266 20.3906 24.1875L20.0273 23.3086C19.8633 22.9102 19.9688 22.6055 20.3203 22.3594C20.6484 22.125 20.9531 22.0781 21.2812 22.3359L22.043 22.9219C22.5 23.2734 22.793 23.2266 23.0156 23.0039C23.2266 22.7695 23.2852 22.4883 22.9219 22.043L22.3359 21.2812C22.1016 20.9648 22.125 20.625 22.3828 20.2852C22.6172 19.9805 22.9219 19.8633 23.3086 20.0273L24.1992 20.3906C24.7383 20.6133 24.9844 20.4961 25.1367 20.2031C25.3008 19.9336 25.2891 19.6641 24.8203 19.3008L24.0703 18.7148C23.7539 18.457 23.6953 18.1289 23.8477 17.7656C23.9883 17.3906 24.2461 17.2148 24.668 17.25L25.6289 17.3789C26.1914 17.4492 26.4258 17.2617 26.4961 16.957C26.5664 16.6641 26.4844 16.3828 25.9453 16.1602L25.0664 15.7969C24.7031 15.6562 24.5508 15.375 24.5977 14.918C24.6562 14.5312 24.8555 14.2852 25.2773 14.2266L26.2148 14.1094C26.7773 14.0273 26.9531 13.7812 26.9531 13.4766C26.9531 13.1602 26.7773 12.9258 26.2148 12.8438L25.2773 12.7266C24.8438 12.6562 24.668 12.4102 24.5977 12C24.5508 11.6016 24.6914 11.3203 25.0664 11.1562L25.957 10.8047C26.4844 10.5703 26.5781 10.2891 26.4961 9.99609C26.4141 9.70312 26.1914 9.50391 25.6172 9.57422L24.6797 9.70312C24.2695 9.76172 23.9648 9.55078 23.8359 9.1875C23.6836 8.77734 23.7305 8.49609 24.0703 8.23828L24.8203 7.65234C25.2891 7.28906 25.3008 7.01953 25.1484 6.75C24.9727 6.44531 24.7148 6.35156 24.1992 6.55078L23.3086 6.9375C22.9219 7.10156 22.6055 6.96094 22.3711 6.64453C22.1367 6.32812 22.1016 6.01172 22.3477 5.67188L22.9336 4.92188C23.2852 4.46484 23.2383 4.17188 23.0156 3.94922C22.793 3.73828 22.5 3.67969 22.0547 4.03125L21.293 4.62891C20.9766 4.88672 20.625 4.82812 20.3086 4.58203C19.9688 4.30078 19.8633 4.04297 20.0273 3.64453L20.3906 2.75391C20.6133 2.21484 20.4961 1.98047 20.2148 1.81641C19.9102 1.64062 19.6289 1.71094 19.3008 2.13281L18.7148 2.89453C18.457 3.21094 18.1406 3.26953 17.7539 3.10547C17.3906 2.96484 17.1914 2.70703 17.25 2.28516L17.3906 1.33594C17.4492 0.773438 17.2969 0.550781 16.957 0.46875C16.6289 0.386719 16.3594 0.527344 16.1602 1.00781L15.8086 1.89844C15.6562 2.27344 15.3516 2.4375 14.9297 2.36719C14.5078 2.29688 14.2852 2.09766 14.2383 1.6875L14.1094 0.738281C14.0273 0.175781 13.7812 0.0117188 13.4883 0.0117188C13.1602 0.0117188 12.9141 0.175781 12.8438 0.726562L12.7266 1.69922C12.6562 2.08594 12.4336 2.32031 12 2.35547C11.5898 2.40234 11.3086 2.25 11.168 1.89844L10.8047 1.00781C10.5938 0.539062 10.3359 0.375 9.99609 0.46875C9.63281 0.5625 9.50391 0.832031 9.57422 1.34766L9.70312 2.28516C9.76172 2.70703 9.5625 2.97656 9.17578 3.11719C8.77734 3.26953 8.49609 3.21094 8.23828 2.89453L7.65234 2.13281C7.3125 1.69922 7.04297 1.65234 6.75 1.81641C6.45703 1.99219 6.33984 2.21484 6.5625 2.75391L6.92578 3.64453C7.07812 4.01953 6.98438 4.33594 6.65625 4.58203C6.32812 4.82812 6 4.86328 5.66016 4.61719L4.91016 4.01953C4.48828 3.70312 4.18359 3.70312 3.9375 3.94922C3.69141 4.20703 3.70312 4.5 4.01953 4.91016L4.61719 5.66016C4.875 5.98828 4.81641 6.35156 4.57031 6.65625C4.28906 6.97266 4.04297 7.08984 3.63281 6.92578L2.75391 6.5625C2.26172 6.36328 1.98047 6.43359 1.81641 6.73828C1.61719 7.05469 1.71094 7.33594 2.13281 7.65234L2.88281 8.23828C3.19922 8.49609 3.25781 8.83594 3.10547 9.1875C2.92969 9.5625 2.68359 9.73828 2.27344 9.69141L1.32422 9.5625C0.761719 9.50391 0.527344 9.69141 0.457031 9.99609C0.386719 10.2891 0.46875 10.5703 1.00781 10.793L1.88672 11.1445C2.26172 11.3203 2.42578 11.6016 2.34375 12.0117C2.27344 12.4219 2.10938 12.6562 1.67578 12.7266L0.738281 12.8438C0.164062 12.9258 0 13.1602 0 13.4766C0 13.7812 0.164062 14.0273 0.738281 14.1094L1.67578 14.2266C2.10938 14.2969 2.28516 14.5312 2.34375 14.9297C2.40234 15.3281 2.26172 15.6328 1.88672 15.7852L0.996094 16.1484C0.46875 16.3828 0.375 16.6641 0.457031 16.957C0.539062 17.25 0.761719 17.4492 1.33594 17.3672L2.26172 17.2383C2.67188 17.1914 2.92969 17.3789 3.11719 17.7773C3.25781 18.1289 3.19922 18.4688 2.88281 18.7148L2.13281 19.3008C1.65234 19.6641 1.64062 19.9336 1.81641 20.2148C1.96875 20.4961 2.21484 20.6133 2.75391 20.4023L3.63281 20.0156C4.01953 19.8516 4.33594 20.0039 4.58203 20.3086C4.81641 20.6016 4.85156 20.9414 4.60547 21.2695L4.00781 22.0312C3.66797 22.4883 3.71484 22.7695 3.9375 23.0039C4.16016 23.2148 4.45312 23.2734 4.89844 22.9102L5.64844 22.3242C5.97656 22.0781 6.29297 22.125 6.65625 22.3711C6.98438 22.6172 7.08984 22.9219 6.92578 23.3086L6.5625 24.1875C6.33984 24.7266 6.45703 24.9727 6.75 25.125C7.01953 25.3008 7.28906 25.2891 7.65234 24.8086L8.23828 24.0586C8.50781 23.7188 8.8125 23.6719 9.16406 23.8242C9.53906 23.9766 9.75 24.2461 9.69141 24.668L9.55078 25.6172C9.50391 26.1797 9.67969 26.4023 9.99609 26.4844C10.2891 26.5547 10.5703 26.4727 10.793 25.9453L11.1445 25.0547C11.2852 24.7031 11.5664 24.5391 12.0234 24.5859C12.4453 24.6328 12.668 24.8555 12.7148 25.2656L12.8438 26.2031C12.9141 26.7773 13.1602 26.9414 13.4766 26.9414ZM6.67969 20.3203C4.88672 18.5742 3.78516 16.1602 3.78516 13.4766C3.78516 10.7812 4.88672 8.36719 6.67969 6.62109C7.39453 5.89453 8.16797 6.05859 8.68359 6.94922L11.8594 12.4219C12.2812 13.1719 12.2812 13.793 11.8477 14.5547L8.69531 19.9922C8.17969 20.8945 7.40625 21.0469 6.67969 20.3203ZM13.418 23.0977C12.5391 23.0977 11.6719 22.9688 10.8516 22.7344C9.85547 22.4648 9.60938 21.7148 10.1367 20.8125L13.2773 15.375C13.7109 14.625 14.2617 14.3086 15.1406 14.3086L21.4102 14.3086C22.4531 14.3086 22.9688 14.8945 22.6875 15.8906C21.6211 20.0391 17.8945 23.0977 13.418 23.0977ZM13.3828 14.168C13.0078 14.168 12.7148 13.8633 12.7148 13.5C12.7148 13.125 13.0078 12.8203 13.3828 12.8203C13.7578 12.8203 14.0508 13.125 14.0508 13.5C14.0508 13.8633 13.7578 14.168 13.3828 14.168ZM15.1406 12.6445C14.2617 12.6445 13.7109 12.3164 13.3008 11.5898L10.125 6.11719C9.62109 5.22656 9.85547 4.47656 10.8516 4.20703C11.6719 3.97266 12.5391 3.84375 13.418 3.84375C17.8945 3.84375 21.6445 6.89062 22.6875 11.0625C22.9688 12.0586 22.4531 12.6445 21.4219 12.6445Z" fill="black" fill-opacity="0.85"/>
 </g>
</svg>
