<?xml version="1.0" encoding="UTF-8"?>
<!--Generator: Apple Native CoreSVG 360-->
<!DOCTYPE svg
PUBLIC "-//W3C//DTD SVG 1.1//EN"
       "http://www.w3.org/Graphics/SVG/1.1/DTD/svg11.dtd">
<svg version="1.1" xmlns="http://www.w3.org/2000/svg" xmlns:xlink="http://www.w3.org/1999/xlink" viewBox="0 0 40.0195 30.4102">
 <g>
  <rect height="30.4102" opacity="0" width="40.0195" x="0" y="0"/>
  <path d="M31.3559 12.0375C31.3417 12.0352 31.3271 12.0352 31.3125 12.0352C30.7805 12.0352 30.2638 12.1249 29.7784 12.2952C29.3987 10.9685 28.7548 9.75413 27.9073 8.71035C27.2052 9.25489 26.2559 9.72314 25.1332 10.0799C25.4782 11.3787 25.6903 12.8442 25.7375 14.4258L27.1371 14.4258C26.8458 14.887 26.6256 15.4034 26.4954 15.9609L25.7388 15.9609C25.6945 17.5677 25.4776 19.0565 25.1233 20.374C26.0949 20.6815 26.9364 21.0729 27.5994 21.5253C27.0128 21.7475 26.4725 22.023 25.9861 22.3421C25.5928 22.1332 25.1543 21.9549 24.6725 21.8087C24.1564 23.2079 23.4737 24.3493 22.6807 25.1541C22.9365 25.0908 23.1847 25.0096 23.4233 24.9081C23.0426 25.5231 22.7885 26.1655 22.6757 26.7992C21.7701 27.0345 20.8187 27.1523 19.8398 27.1523C13.2422 27.1523 7.88672 21.7969 7.88672 15.1992C7.88672 8.60156 13.2422 3.24609 19.8398 3.24609C25.3413 3.24609 29.9791 6.96983 31.3559 12.0375ZM12.86 22.8364C14.0195 23.9128 15.4322 24.7169 16.9989 25.1541C16.2057 24.349 15.5228 23.2071 15.0067 21.8074C14.1709 22.0671 13.4506 22.4114 12.86 22.8364ZM20.6016 24.888C21.5921 24.4522 22.4958 23.1742 23.1478 21.4203C22.3678 21.2754 21.5194 21.1859 20.6016 21.1609ZM16.5218 21.4219C17.173 23.1702 18.0752 24.4454 19.0664 24.885L19.0664 21.1612C18.1498 21.1867 17.3015 21.2765 16.5218 21.4219ZM9.51897 15.9609C9.66713 18.1383 10.498 20.1271 11.7969 21.7208C12.5017 21.1854 13.4451 20.725 14.5563 20.3735C14.2021 19.0561 13.9852 17.5675 13.9409 15.9609ZM15.4985 15.9609C15.5473 17.392 15.7521 18.7601 16.0723 19.978C17.0039 19.7849 18.0123 19.6614 19.0664 19.6219L19.0664 15.9609ZM20.6016 15.9609L20.6016 19.6213C21.656 19.6603 22.6649 19.7833 23.5967 19.976C23.9162 18.7586 24.1207 17.3912 24.1695 15.9609ZM9.51956 14.4258L13.9422 14.4258C13.9894 12.8444 14.2015 11.3791 14.5463 10.0804C13.4249 9.72469 12.4749 9.25797 11.7687 8.71533C10.4877 10.2989 9.66887 12.2696 9.51956 14.4258ZM15.4996 14.4258L19.0664 14.4258L19.0664 10.8352C18.006 10.7954 16.9918 10.6706 16.0553 10.4758C15.7485 11.6721 15.5507 13.0139 15.4996 14.4258ZM20.6016 10.8357L20.6016 14.4258L24.1684 14.4258C24.1173 13.0147 23.9198 11.6736 23.6136 10.4778C22.677 10.6722 21.6623 10.7965 20.6016 10.8357ZM20.6016 9.29577C21.5284 9.2701 22.3845 9.17787 23.1701 9.02859C22.5167 7.23974 21.6036 5.94615 20.6016 5.50883ZM16.4994 9.02701C17.2846 9.17669 18.1407 9.26924 19.0664 9.29546L19.0664 5.51184C18.0637 5.95301 17.152 7.24383 16.4994 9.02701ZM12.8243 7.59443C13.4187 8.02446 14.1462 8.37502 14.9919 8.64019C15.5116 7.21559 16.2025 6.05599 17.0069 5.24233C15.421 5.68334 13.9928 6.50017 12.8243 7.59443ZM24.6873 8.63884C25.5308 8.3737 26.2576 8.02342 26.8547 7.59386C25.6864 6.49988 24.2584 5.68327 22.6728 5.24233C23.477 6.05573 24.1676 7.21483 24.6873 8.63884Z" fill="black" fill-opacity="0.85"/>
  <path d="M25.6406 28.7695L36.9609 28.7695C37.8398 28.7695 38.3789 28.3594 38.3789 27.6562C38.3789 25.4766 35.6719 22.4766 31.3008 22.4766C26.9297 22.4766 24.2109 25.4766 24.2109 27.6562C24.2109 28.3594 24.7617 28.7695 25.6406 28.7695ZM31.3125 20.9766C33.1055 20.9766 34.6758 19.3594 34.6758 17.25C34.6758 15.1758 33.1055 13.6406 31.3125 13.6406C29.5078 13.6406 27.9375 15.1992 27.9375 17.2734C27.9375 19.3594 29.5078 20.9766 31.3125 20.9766Z" fill="black" fill-opacity="0.85"/>
 </g>
</svg>
