<?xml version="1.0" encoding="UTF-8"?>
<!--Generator: Apple Native CoreSVG 360-->
<!DOCTYPE svg
PUBLIC "-//W3C//DTD SVG 1.1//EN"
       "http://www.w3.org/Graphics/SVG/1.1/DTD/svg11.dtd">
<svg version="1.1" xmlns="http://www.w3.org/2000/svg" xmlns:xlink="http://www.w3.org/1999/xlink" viewBox="0 0 24.2578 23.918">
 <g>
  <rect height="23.918" opacity="0" width="24.2578" x="0" y="0"/>
  <path d="M23.9062 11.9531C23.9062 18.5508 18.5508 23.9062 11.9531 23.9062C5.35547 23.9062 0 18.5508 0 11.9531C0 5.35547 5.35547 0 11.9531 0C18.5508 0 23.9062 5.35547 23.9062 11.9531ZM11.3681 0.725434C10.5593 0.864908 9.79924 1.30716 9.12021 1.99623C7.53658 2.44292 6.10744 3.25771 4.93364 4.34561C4.83399 4.28963 4.74768 4.22568 4.66406 4.16016C4.32422 3.89062 3.87891 3.85547 3.57422 4.14844C3.28125 4.44141 3.25781 4.91016 3.58594 5.21484C3.68059 5.30031 3.78111 5.38416 3.88788 5.46609C2.60256 7.04882 1.7819 9.02215 1.62614 11.1797L1.40625 11.1797C0.984375 11.1797 0.632812 11.5312 0.632812 11.9531C0.632812 12.375 0.984375 12.7148 1.40625 12.7148L1.62563 12.7148C1.78015 14.8935 2.61283 16.8847 3.9178 18.4761C3.79979 18.5652 3.68936 18.6566 3.58594 18.75C3.25781 19.043 3.28125 19.5234 3.57422 19.8164C3.87891 20.1094 4.32422 20.0742 4.66406 19.8047C4.759 19.7296 4.85742 19.6566 4.97016 19.5925C6.13429 20.6632 7.54773 21.4653 9.11222 21.908C9.77329 22.5835 10.5112 23.0243 11.295 23.1793C11.4262 23.4096 11.6714 23.5664 11.9531 23.5664C12.2356 23.5664 12.4866 23.4088 12.6209 23.1776C13.4012 23.0207 14.1357 22.5807 14.794 21.908C16.3585 21.4653 17.772 20.6632 18.9361 19.5925C19.0488 19.6566 19.1472 19.7296 19.2422 19.8047C19.582 20.0742 20.0273 20.1094 20.332 19.8164C20.625 19.5234 20.6484 19.043 20.3203 18.75C20.2169 18.6566 20.1065 18.5652 19.9884 18.4761C21.2934 16.8847 22.1261 14.8935 22.2806 12.7148L22.7344 12.7148C23.1562 12.7148 23.5078 12.375 23.5078 11.9531C23.5078 11.5312 23.1562 11.1797 22.7344 11.1797L22.2801 11.1797C22.1244 9.02215 21.3037 7.04882 20.0184 5.46609C20.1251 5.38416 20.2257 5.30031 20.3203 5.21484C20.6484 4.91016 20.625 4.44141 20.332 4.14844C20.0273 3.85547 19.582 3.89062 19.2422 4.16016C19.1586 4.22568 19.0723 4.28963 18.9726 4.34561C17.7988 3.25771 16.3697 2.44292 14.786 1.99623C14.1093 1.30948 13.352 0.867894 12.5463 0.72686C12.4037 0.555607 12.1894 0.445312 11.9531 0.445312C11.7175 0.445312 11.5075 0.554971 11.3681 0.725434Z" fill="black" fill-opacity="0.85"/>
  <path d="M11.1914 21.6431L11.1914 22.793C11.1914 22.9329 11.2288 23.0652 11.2949 23.179C9.57285 22.8336 8.06986 21.1248 7.11997 18.5613C7.58662 18.4018 8.09732 18.2745 8.64144 18.1744C9.29253 19.93 10.1965 21.2087 11.1914 21.6431ZM16.7863 18.5613C15.8383 21.1195 14.3396 22.8266 12.6219 23.176C12.6885 23.0629 12.7266 22.9317 12.7266 22.793L12.7266 21.6387C13.7168 21.1988 14.6163 19.9232 15.2648 18.1744C15.8089 18.2745 16.3196 18.4018 16.7863 18.5613ZM8.19393 16.7304C7.65711 16.8399 7.14638 16.9729 6.66969 17.128C6.3154 15.8104 6.09845 14.3216 6.05417 12.7148L7.62339 12.7148C7.67195 14.1453 7.87545 15.5128 8.19393 16.7304ZM17.2366 17.128C16.7599 16.9729 16.2491 16.8399 15.7123 16.7304C16.0308 15.5128 16.2343 14.1453 16.2829 12.7148L17.8521 12.7148C17.8078 14.3216 17.5909 15.8104 17.2366 17.128ZM8.17701 7.23122C7.87187 8.42714 7.67532 9.76843 7.6245 11.1797L6.05549 11.1797C6.10266 9.59808 6.31481 8.13263 6.65974 6.83378C7.13438 6.9885 7.64282 7.12144 8.17701 7.23122ZM17.8508 11.1797L16.2817 11.1797C16.2309 9.76843 16.0344 8.42715 15.7292 7.23122C16.2634 7.12144 16.7719 6.9885 17.2465 6.83378C17.5914 8.13263 17.8036 9.59808 17.8508 11.1797ZM11.1914 1.21875L11.1914 2.2616C10.185 2.69742 9.27159 3.99177 8.61915 5.78237C8.07729 5.68172 7.56945 5.55366 7.10518 5.39409C8.06733 2.76815 9.60534 1.03355 11.3716 0.721456C11.259 0.856414 11.1914 1.03059 11.1914 1.21875ZM16.8011 5.39409C16.3368 5.55366 15.829 5.68172 15.2871 5.78237C14.6372 3.99867 13.7283 2.70741 12.7266 2.26591L12.7266 1.21875C12.7266 1.03092 12.6569 0.857019 12.542 0.722139C14.3052 1.03835 15.8403 2.77177 16.8011 5.39409Z" fill="black" fill-opacity="0.85"/>
  <path d="M11.9531 23.5664C12.375 23.5664 12.7266 23.2148 12.7266 22.793L12.7266 1.21875C12.7266 0.796875 12.375 0.445312 11.9531 0.445312C11.5312 0.445312 11.1914 0.796875 11.1914 1.21875L11.1914 22.793C11.1914 23.2148 11.5312 23.5664 11.9531 23.5664ZM4.66406 19.8047C6.23438 18.5625 8.75391 17.8945 11.9531 17.8945C15.1523 17.8945 17.6719 18.5625 19.2422 19.8047C19.582 20.0742 20.0273 20.1094 20.332 19.8164C20.625 19.5234 20.6484 19.043 20.3203 18.75C18.75 17.332 15.5625 16.3594 11.9531 16.3594C8.34375 16.3594 5.15625 17.332 3.58594 18.75C3.25781 19.043 3.28125 19.5234 3.57422 19.8164C3.87891 20.1094 4.32422 20.0742 4.66406 19.8047ZM1.40625 12.7148L22.7344 12.7148C23.1562 12.7148 23.5078 12.375 23.5078 11.9531C23.5078 11.5312 23.1562 11.1797 22.7344 11.1797L1.40625 11.1797C0.984375 11.1797 0.632812 11.5312 0.632812 11.9531C0.632812 12.375 0.984375 12.7148 1.40625 12.7148ZM11.9531 7.60547C15.5625 7.60547 18.75 6.63281 20.3203 5.21484C20.6484 4.91016 20.625 4.44141 20.332 4.14844C20.0273 3.85547 19.582 3.89062 19.2422 4.16016C17.6719 5.39062 15.1523 6.07031 11.9531 6.07031C8.75391 6.07031 6.23438 5.39062 4.66406 4.16016C4.32422 3.89062 3.87891 3.85547 3.57422 4.14844C3.28125 4.44141 3.25781 4.91016 3.58594 5.21484C5.15625 6.63281 8.34375 7.60547 11.9531 7.60547Z" fill="black" fill-opacity="0.85"/>
 </g>
</svg>
