<?xml version="1.0" encoding="UTF-8"?>
<!--Generator: Apple Native CoreSVG 360-->
<!DOCTYPE svg
PUBLIC "-//W3C//DTD SVG 1.1//EN"
       "http://www.w3.org/Graphics/SVG/1.1/DTD/svg11.dtd">
<svg version="1.1" xmlns="http://www.w3.org/2000/svg" xmlns:xlink="http://www.w3.org/1999/xlink" viewBox="0 0 22.0195 21.668">
 <g>
  <rect height="21.668" opacity="0" width="22.0195" x="0" y="0"/>
  <path d="M11.8359 20.6484C11.8359 21.1992 11.3789 21.6562 10.8281 21.6562C10.2773 21.6562 9.82031 21.1992 9.82031 20.6484C9.82031 20.0977 10.2773 19.6406 10.8281 19.6406C11.3789 19.6406 11.8359 20.0977 11.8359 20.6484ZM11.8359 17.3789C11.8359 17.9297 11.3789 18.3867 10.8281 18.3867C10.2773 18.3867 9.82031 17.9297 9.82031 17.3789C9.82031 16.8281 10.2773 16.3711 10.8281 16.3711C11.3789 16.3711 11.8359 16.8281 11.8359 17.3789ZM11.8359 14.0977C11.8359 14.6484 11.3789 15.1055 10.8281 15.1055C10.4727 15.1055 10.1562 14.9151 9.97738 14.6315C10.2535 14.1505 10.5244 13.6368 10.7936 13.0916C10.8049 13.09 10.8165 13.0898 10.8281 13.0898C11.3789 13.0898 11.8359 13.5469 11.8359 14.0977ZM21.668 10.8281C21.668 11.3789 21.2109 11.8359 20.6602 11.8359C20.1094 11.8359 19.6523 11.3789 19.6523 10.8281C19.6523 10.2773 20.1094 9.82031 20.6602 9.82031C21.2109 9.82031 21.668 10.2773 21.668 10.8281ZM2.01562 10.8281C2.01562 11.3789 1.55859 11.8359 1.00781 11.8359C0.457031 11.8359 0 11.3789 0 10.8281C0 10.2773 0.457031 9.82031 1.00781 9.82031C1.55859 9.82031 2.01562 10.2773 2.01562 10.8281ZM5.28516 10.8281C5.28516 11.3789 4.83984 11.8359 4.27734 11.8359C3.72656 11.8359 3.26953 11.3789 3.26953 10.8281C3.26953 10.2773 3.72656 9.82031 4.27734 9.82031C4.83984 9.82031 5.28516 10.2773 5.28516 10.8281ZM8.56641 10.8281C8.56641 11.3789 8.10938 11.8359 7.55859 11.8359C7.00781 11.8359 6.55078 11.3789 6.55078 10.8281C6.55078 10.2773 7.00781 9.82031 7.55859 9.82031C8.10938 9.82031 8.56641 10.2773 8.56641 10.8281ZM15.1172 10.8281C15.1172 11.3789 14.6602 11.8359 14.1094 11.8359C13.5586 11.8359 13.1016 11.3789 13.1016 10.8281C13.1016 10.2773 13.5586 9.82031 14.1094 9.82031C14.6602 9.82031 15.1172 10.2773 15.1172 10.8281ZM18.3867 10.8281C18.3867 11.3789 17.9297 11.8359 17.3789 11.8359C16.8281 11.8359 16.3711 11.3789 16.3711 10.8281C16.3711 10.2773 16.8281 9.82031 17.3789 9.82031C17.9297 9.82031 18.3867 10.2773 18.3867 10.8281ZM11.5317 11.5448C11.586 11.4326 11.6406 11.3125 11.6953 11.1914C11.7413 11.0893 11.7873 10.988 11.8326 10.8927C11.8172 11.1462 11.7043 11.3758 11.5317 11.5448ZM9.98438 10.4062L9.82409 10.7549C9.84138 10.5079 9.95118 10.284 10.1181 10.1173ZM11.6768 7.0096C11.4015 7.49194 11.1314 8.00651 10.8629 8.55294C10.8515 8.55449 10.8398 8.55469 10.8281 8.55469C10.2773 8.55469 9.82031 8.10938 9.82031 7.54688C9.82031 6.99609 10.2773 6.53906 10.8281 6.53906C11.1822 6.53906 11.4975 6.72789 11.6768 7.0096ZM11.8359 4.27734C11.8359 4.82812 11.3789 5.28516 10.8281 5.28516C10.2773 5.28516 9.82031 4.82812 9.82031 4.27734C9.82031 3.72656 10.2773 3.26953 10.8281 3.26953C11.3789 3.26953 11.8359 3.72656 11.8359 4.27734ZM11.8359 1.00781C11.8359 1.55859 11.3789 2.01562 10.8281 2.01562C10.2773 2.01562 9.82031 1.55859 9.82031 1.00781C9.82031 0.457031 10.2773 0 10.8281 0C11.3789 0 11.8359 0.457031 11.8359 1.00781Z" fill="black" fill-opacity="0.85"/>
  <path d="M0.914062 19.5938C0.410156 19.6758 0.046875 20.168 0.140625 20.6719C0.222656 21.1758 0.714844 21.5391 1.21875 21.457C6.43359 20.5898 8.97656 17.2148 11.6953 11.1914C14.0625 5.94141 16.1484 2.76562 20.7539 2.00391C21.2578 1.92188 21.6211 1.42969 21.5391 0.925781C21.4453 0.421875 20.9531 0.0585938 20.4492 0.140625C15.2461 0.996094 12.7031 4.38281 9.98438 10.4062C7.61719 15.6562 5.51953 18.832 0.914062 19.5938Z" fill="black" fill-opacity="0.85"/>
 </g>
</svg>
