<?xml version="1.0" encoding="UTF-8"?>
<!--Generator: Apple Native CoreSVG 360-->
<!DOCTYPE svg
PUBLIC "-//W3C//DTD SVG 1.1//EN"
       "http://www.w3.org/Graphics/SVG/1.1/DTD/svg11.dtd">
<svg version="1.1" xmlns="http://www.w3.org/2000/svg" xmlns:xlink="http://www.w3.org/1999/xlink" viewBox="0 0 24.7707 22.0343">
 <g>
  <rect height="22.0343" opacity="0" width="24.7707" x="0" y="0"/>
  <path d="M2.1197 20.5855C2.1197 21.148 1.66267 21.5933 1.11189 21.5933C0.561109 21.5933 0.104078 21.148 0.104078 20.5855C0.104078 20.0347 0.561109 19.5777 1.11189 19.5777C1.66267 19.5777 2.1197 20.0347 2.1197 20.5855ZM24.315 20.5855C24.315 21.148 23.858 21.5933 23.3072 21.5933C22.7447 21.5933 22.2877 21.148 22.2877 20.5855C22.2877 20.0347 22.7447 19.5777 23.3072 19.5777C23.858 19.5777 24.315 20.0347 24.315 20.5855ZM4.11415 17.9622L4.74005 18.3242C4.88188 18.4978 4.96736 18.7184 4.96736 18.9566C4.96736 19.5074 4.51033 19.9644 3.95955 19.9644C3.40877 19.9644 2.95173 19.5074 2.95173 18.9566C2.95173 18.4058 3.40877 17.9488 3.95955 17.9488C4.01217 17.9488 4.06393 17.953 4.11415 17.9622ZM21.4674 18.9566C21.4674 19.5074 21.0103 19.9644 20.4595 19.9644C19.9088 19.9644 19.4517 19.5074 19.4517 18.9566C19.4517 18.7218 19.5348 18.504 19.6734 18.3318L20.3163 17.9605C20.3629 17.9524 20.4109 17.9488 20.4595 17.9488C21.0103 17.9488 21.4674 18.4058 21.4674 18.9566ZM13.2174 4.46051C13.2174 5.0113 12.7603 5.46833 12.2095 5.46833C11.6588 5.46833 11.2017 5.0113 11.2017 4.46051C11.2017 3.90973 11.6588 3.4527 12.2095 3.4527C12.7603 3.4527 13.2174 3.90973 13.2174 4.46051ZM13.2174 1.19098C13.2174 1.74176 12.7603 2.1988 12.2095 2.1988C11.6588 2.1988 11.2017 1.74176 11.2017 1.19098C11.2017 0.640202 11.6588 0.183171 12.2095 0.183171C12.7603 0.183171 13.2174 0.640202 13.2174 1.19098Z" fill="black" fill-opacity="0.85"/>
  <path d="M10.8853 20.0347C11.8111 20.5621 12.6197 20.5504 13.5338 20.0347L21.9947 15.148C23.1431 14.48 23.0611 13.2027 21.9947 12.5816L13.5338 7.69489C12.6197 7.17926 11.8111 7.16755 10.8853 7.69489L2.43611 12.5816C1.33455 13.2261 1.28767 14.4683 2.44783 15.148ZM11.6119 18.6754L3.91267 14.2222C3.52595 14.0113 3.52595 13.7066 3.91267 13.4957L11.6119 9.05426C12.022 8.80817 12.397 8.80817 12.8072 9.05426L20.5181 13.4957C20.8931 13.6949 20.9049 14.023 20.5181 14.2222L12.8072 18.6754C12.397 18.9215 12.022 18.9215 11.6119 18.6754ZM8.04939 17.0933L17.8345 11.1636L16.6158 10.1207L6.72517 16.0972ZM16.6744 17.0816L18.1627 16.191L8.09627 10.4019L6.84236 11.4449Z" fill="black" fill-opacity="0.85"/>
 </g>
</svg>
