<?xml version="1.0" encoding="UTF-8"?>
<!--Generator: Apple Native CoreSVG 360-->
<!DOCTYPE svg
PUBLIC "-//W3C//DTD SVG 1.1//EN"
       "http://www.w3.org/Graphics/SVG/1.1/DTD/svg11.dtd">
<svg version="1.1" xmlns="http://www.w3.org/2000/svg" xmlns:xlink="http://www.w3.org/1999/xlink" viewBox="0 0 14.543 19.582">
 <g>
  <rect height="19.582" opacity="0" width="14.543" x="0" y="0"/>
  <path d="M14.1914 18.5273C14.1914 17.9531 13.7109 17.4844 13.1484 17.4844L1.04297 17.4844C0.480469 17.4844 0 17.9531 0 18.5273C0 19.1133 0.480469 19.582 1.04297 19.582L13.1484 19.582C13.7109 19.582 14.1914 19.1133 14.1914 18.5273ZM1.60547 13.6172C1.93359 13.6172 2.15625 13.5352 2.39062 13.418L12.9961 8.40234C13.6758 8.07422 14.1914 7.60547 14.1914 6.85547C14.1914 6.11719 13.6758 5.625 12.9961 5.30859L2.39062 0.269531C2.17969 0.164062 1.95703 0.0820312 1.65234 0.0820312C1.04297 0.0820312 0.609375 0.503906 0.609375 1.125C0.609375 1.66406 0.902344 1.98047 1.38281 2.19141L11.4258 6.70312L11.4258 6.83203L1.38281 11.5195C0.914062 11.7305 0.609375 12.0234 0.609375 12.5625C0.609375 13.207 1.03125 13.6172 1.60547 13.6172Z" fill="black" fill-opacity="0.85"/>
 </g>
</svg>
