<?xml version="1.0" encoding="UTF-8"?>
<!--Generator: Apple Native CoreSVG 360-->
<!DOCTYPE svg
PUBLIC "-//W3C//DTD SVG 1.1//EN"
       "http://www.w3.org/Graphics/SVG/1.1/DTD/svg11.dtd">
<svg version="1.1" xmlns="http://www.w3.org/2000/svg" xmlns:xlink="http://www.w3.org/1999/xlink" viewBox="0 0 28.582 23.5195">
 <g>
  <rect height="23.5195" opacity="0" width="28.582" x="0" y="0"/>
  <path d="M28.2305 14.1094C28.2305 10.6641 26.9883 7.48828 24.9141 5.02734C24.6797 4.74609 24.2812 4.74609 24.0234 5.01562L21.3047 7.73438C21.082 7.95703 21.0703 8.27344 21.2695 8.51953C22.4766 10.0664 23.2031 12.0117 23.2031 14.1094C23.2031 16.2188 22.4766 18.1641 21.1992 19.793C21.0352 19.9922 21.0469 20.25 21.2227 20.4375L24.0117 23.2266C24.2812 23.4961 24.668 23.4961 24.9141 23.2031C26.9883 20.7422 28.2305 17.5664 28.2305 14.1094Z" fill="black" fill-opacity="0.85"/>
  <path d="M14.1094 5.02734C16.2305 5.02734 18.1758 5.76562 19.7344 6.97266C19.9688 7.16016 20.2734 7.13672 20.4961 6.91406L23.2148 4.19531C23.4844 3.92578 23.4727 3.53906 23.1914 3.30469C20.7422 1.24219 17.5664 0 14.1094 0C10.6641 0 7.48828 1.24219 5.03906 3.30469C4.75781 3.53906 4.74609 3.92578 5.01562 4.19531L7.73438 6.91406C7.95703 7.13672 8.27344 7.16016 8.53125 6.96094C10.0781 5.76562 12.0117 5.02734 14.1094 5.02734Z" fill="black" fill-opacity="0.85"/>
  <path d="M0 14.1094C0 17.5664 1.24219 20.7422 3.31641 23.2031C3.55078 23.4961 3.94922 23.4961 4.20703 23.2266L6.99609 20.4375C7.17188 20.25 7.19531 19.9922 7.03125 19.793C5.75391 18.1641 5.02734 16.2188 5.02734 14.1094C5.02734 12.0117 5.74219 10.0664 6.96094 8.51953C7.14844 8.27344 7.14844 7.95703 6.92578 7.73438L4.20703 5.01562C3.9375 4.74609 3.55078 4.74609 3.31641 5.02734C1.24219 7.48828 0 10.6641 0 14.1094Z" fill="black" fill-opacity="0.85"/>
  <path d="M14.168 19.4531C16.7695 19.4531 18.293 17.8828 18.293 15.2109L18.293 14.707C18.293 14.2617 18.0117 13.9922 17.6016 13.9922L14.4023 13.9922L14.4023 15.1055L16.9453 15.1055L16.9453 15.5156C16.9453 17.1445 15.9375 18.2461 14.1797 18.2461C12.0586 18.2461 11.0156 16.3945 11.0156 14.1914C11.0156 12.1172 11.9648 10.1836 14.1562 10.1836C15.3516 10.1836 16.4648 10.8633 16.8047 11.9531C16.9453 12.3047 17.0977 12.457 17.4727 12.457C17.8359 12.457 18.082 12.2227 18.082 11.8594C18.082 11.707 18.0703 11.5195 17.9766 11.3086C17.4023 9.77344 15.7383 8.97656 14.1562 8.97656C11.168 8.97656 9.58594 11.2734 9.58594 14.2031C9.58594 17.25 11.2617 19.4531 14.168 19.4531ZM14.1211 20.8008C14.3438 20.8008 14.5078 20.6367 14.5078 20.4141L14.5078 8.03906C14.5078 7.79297 14.3438 7.64062 14.1211 7.64062C13.875 7.64062 13.7227 7.79297 13.7227 8.03906L13.7227 20.4141C13.7227 20.6367 13.875 20.8008 14.1211 20.8008Z" fill="black" fill-opacity="0.85"/>
 </g>
</svg>
