<?xml version="1.0" encoding="UTF-8"?>
<!--Generator: Apple Native CoreSVG 360-->
<!DOCTYPE svg
PUBLIC "-//W3C//DTD SVG 1.1//EN"
       "http://www.w3.org/Graphics/SVG/1.1/DTD/svg11.dtd">
<svg version="1.1" xmlns="http://www.w3.org/2000/svg" xmlns:xlink="http://www.w3.org/1999/xlink" viewBox="0 0 17.5664 26.3086">
 <g>
  <rect height="26.3086" opacity="0" width="17.5664" x="0" y="0"/>
  <path d="M9.09375 23.6016C14.4727 23.6016 17.2148 20.3086 17.2148 15.1523L17.2148 14.0156C17.2148 13.1836 16.6875 12.7852 16.0312 12.7852L9.50391 12.7852L9.50391 14.8008L14.918 14.8008L14.918 15.6797C14.918 19.0195 12.8555 21.4922 9.10547 21.4922C4.65234 21.4922 2.44922 17.6719 2.44922 13.0781C2.44922 8.53125 4.69922 4.74609 9.09375 4.74609C11.6367 4.74609 13.9922 6.23438 14.6367 8.55469C14.8594 9.19922 15.1289 9.51562 15.8086 9.51562C16.4414 9.51562 16.875 9.09375 16.875 8.46094C16.875 8.12109 16.8047 7.76953 16.6875 7.42969C15.5391 4.28906 12.3633 2.625 9.09375 2.625C3.22266 2.625 0 7.11328 0 13.0781C0 19.0898 3.1875 23.6016 9.09375 23.6016ZM8.98828 26.3086C9.44531 26.3086 9.76172 25.9805 9.76172 25.5234L9.76172 0.785156C9.76172 0.328125 9.44531 0.0117188 8.98828 0.0117188C8.53125 0.0117188 8.20312 0.328125 8.20312 0.785156L8.20312 25.5234C8.20312 25.9805 8.53125 26.3086 8.98828 26.3086Z" fill="black" fill-opacity="0.85"/>
 </g>
</svg>
