<?xml version="1.0" encoding="UTF-8"?>
<!--Generator: Apple Native CoreSVG 360-->
<!DOCTYPE svg
PUBLIC "-//W3C//DTD SVG 1.1//EN"
       "http://www.w3.org/Graphics/SVG/1.1/DTD/svg11.dtd">
<svg version="1.1" xmlns="http://www.w3.org/2000/svg" xmlns:xlink="http://www.w3.org/1999/xlink" viewBox="0 0 26.5195 25.0195">
 <g>
  <rect height="25.0195" opacity="0" width="26.5195" x="0" y="0"/>
  <path d="M1.55859 22.2188L24.6094 22.2188L24.6094 21.4336C24.6094 20.9648 24.3398 20.6836 23.8594 20.6836L23.1094 20.6836L23.1094 8.03906L24.1406 8.03906C24.7852 8.03906 25.1602 7.57031 25.1602 7.08984C25.1602 6.73828 24.9609 6.43359 24.5273 6.1875L14.5195 0.410156C14.0508 0.140625 13.5586 0 13.0781 0C12.5977 0 12.0938 0.140625 11.6484 0.410156L1.64062 6.1875C1.19531 6.43359 1.00781 6.73828 1.00781 7.08984C1.00781 7.57031 1.38281 8.03906 2.02734 8.03906L3.05859 8.03906L3.05859 20.6836L2.32031 20.6836C1.83984 20.6836 1.55859 20.9648 1.55859 21.4336ZM4.82812 20.6836L4.82812 6.53906L12.6211 2.16797C12.7617 2.08594 12.9258 2.03906 13.0781 2.03906C13.2305 2.03906 13.3945 2.08594 13.5469 2.16797L21.3398 6.53906L21.3398 20.6836ZM0.9375 25.0078L25.2188 25.0078C25.7344 25.0078 26.168 24.5742 26.168 24.0586C26.168 23.543 25.7344 23.1211 25.2188 23.1211L0.9375 23.1211C0.421875 23.1211 0 23.543 0 24.0586C0 24.5742 0.421875 25.0078 0.9375 25.0078Z" fill="black" fill-opacity="0.85"/>
  <path d="M13.1602 17.5195C15.7617 17.5195 17.2734 15.9492 17.2734 13.2773L17.2734 12.7734C17.2734 12.3281 17.0039 12.0586 16.5938 12.0586L13.3945 12.0586L13.3945 13.1719L15.9375 13.1719L15.9375 13.582C15.9375 15.2109 14.9297 16.3125 13.1719 16.3125C11.0508 16.3125 10.0078 14.4609 10.0078 12.2578C10.0078 10.1836 10.957 8.25 13.1484 8.25C14.3438 8.25 15.457 8.92969 15.7969 10.0195C15.9258 10.3711 16.0898 10.5234 16.4648 10.5234C16.8281 10.5234 17.0742 10.2891 17.0742 9.92578C17.0742 9.77344 17.0508 9.58594 16.9688 9.375C16.3945 7.83984 14.7188 7.04297 13.1484 7.04297C10.1602 7.04297 8.56641 9.33984 8.56641 12.2695C8.56641 15.3164 10.2539 17.5195 13.1602 17.5195ZM13.1016 18.8672C13.3359 18.8672 13.5 18.7031 13.5 18.4805L13.5 6.10547C13.5 5.85938 13.3359 5.70703 13.1016 5.70703C12.8672 5.70703 12.7031 5.85938 12.7031 6.10547L12.7031 18.4805C12.7031 18.7031 12.8672 18.8672 13.1016 18.8672Z" fill="black" fill-opacity="0.85"/>
 </g>
</svg>
