<?xml version="1.0" encoding="UTF-8"?>
<!--Generator: Apple Native CoreSVG 360-->
<!DOCTYPE svg
PUBLIC "-//W3C//DTD SVG 1.1//EN"
       "http://www.w3.org/Graphics/SVG/1.1/DTD/svg11.dtd">
<svg version="1.1" xmlns="http://www.w3.org/2000/svg" xmlns:xlink="http://www.w3.org/1999/xlink" viewBox="0 0 28.582 23.4085">
 <g>
  <rect height="23.4085" opacity="0" width="28.582" x="0" y="0"/>
  <path d="M28.2305 14.0539C28.2305 6.67105 22.5586 0.612457 15.3398 0.00308175C14.9648-0.0320745 14.6836 0.237457 14.6836 0.612457L14.6836 4.44449C14.6836 4.76089 14.9062 5.00699 15.2227 5.03043C19.7109 5.58121 23.2031 9.41324 23.2031 14.0539C23.2031 16.1632 22.4766 18.1086 21.1992 19.7375C21.0352 19.9367 21.0469 20.1945 21.2227 20.382L24.0234 23.1711C24.2812 23.4289 24.6797 23.4289 24.9141 23.1476C26.9883 20.6867 28.2305 17.5109 28.2305 14.0539Z" fill="black" fill-opacity="0.85"/>
  <path d="M0 14.0539C0 17.5226 1.24219 20.6984 3.31641 23.1593C3.55078 23.4406 3.9375 23.4289 4.20703 23.1711L7.00781 20.382C7.18359 20.1945 7.19531 19.9367 7.03125 19.7375C5.74219 18.1086 5.02734 16.1632 5.02734 14.0539C5.02734 9.41324 8.51953 5.58121 13.0078 5.03043C13.3242 5.00699 13.5469 4.76089 13.5469 4.44449L13.5469 0.612457C13.5469 0.237457 13.2656-0.0320745 12.8906 0.00308175C5.67188 0.612457 0 6.67105 0 14.0539Z" fill="black" fill-opacity="0.85"/>
  <path d="M14.168 19.3976C16.7695 19.3976 18.293 17.8273 18.293 15.1554L18.293 14.6515C18.293 14.2062 18.0117 13.9367 17.6016 13.9367L14.4023 13.9367L14.4023 15.05L16.9453 15.05L16.9453 15.4601C16.9453 17.089 15.9375 18.1906 14.1797 18.1906C12.0586 18.1906 11.0156 16.339 11.0156 14.1359C11.0156 12.0617 11.9648 10.1281 14.1562 10.1281C15.3516 10.1281 16.4648 10.8078 16.8047 11.8976C16.9453 12.2492 17.0977 12.4015 17.4727 12.4015C17.8359 12.4015 18.082 12.1671 18.082 11.8039C18.082 11.6515 18.0703 11.464 17.9766 11.2531C17.4023 9.71793 15.7383 8.92105 14.1562 8.92105C11.168 8.92105 9.58594 11.2179 9.58594 14.1476C9.58594 17.1945 11.2617 19.3976 14.168 19.3976ZM14.1211 20.7453C14.3438 20.7453 14.5078 20.5812 14.5078 20.3586L14.5078 7.98355C14.5078 7.73746 14.3438 7.58511 14.1211 7.58511C13.875 7.58511 13.7227 7.73746 13.7227 7.98355L13.7227 20.3586C13.7227 20.5812 13.875 20.7453 14.1211 20.7453Z" fill="black" fill-opacity="0.85"/>
 </g>
</svg>
