<?xml version="1.0" encoding="UTF-8"?>
<!--Generator: Apple Native CoreSVG 360-->
<!DOCTYPE svg
PUBLIC "-//W3C//DTD SVG 1.1//EN"
       "http://www.w3.org/Graphics/SVG/1.1/DTD/svg11.dtd">
<svg version="1.1" xmlns="http://www.w3.org/2000/svg" xmlns:xlink="http://www.w3.org/1999/xlink" viewBox="0 0 26.7539 25.3945">
 <g>
  <rect height="25.3945" opacity="0" width="26.7539" x="0" y="0"/>
  <path d="M3.77344 7.59375C5.85938 7.59375 7.54688 5.89453 7.54688 3.80859C7.54688 1.73438 5.85938 0.0351562 3.77344 0.0351562C1.6875 0.0351562 0 1.73438 0 3.80859C0 5.89453 1.6875 7.59375 3.77344 7.59375ZM3.78516 19.125C4.30078 19.125 4.72266 18.7031 4.72266 18.1875L4.72266 7.25391C4.72266 6.73828 4.30078 6.30469 3.78516 6.30469C3.26953 6.30469 2.83594 6.73828 2.83594 7.25391L2.83594 18.1875C2.83594 18.7031 3.26953 19.125 3.78516 19.125ZM3.78516 25.3945C5.85938 25.3945 7.54688 23.707 7.54688 21.6328C7.54688 19.5352 5.85938 17.8477 3.78516 17.8477C1.6875 17.8477 0 19.5352 0 21.6328C0 23.707 1.6875 25.3945 3.78516 25.3945ZM9.65625 4.85156C10.2188 4.85156 10.6875 4.38281 10.6875 3.80859C10.6875 3.23438 10.2188 2.76562 9.65625 2.76562C9.08203 2.76562 8.61328 3.23438 8.61328 3.80859C8.61328 4.38281 9.08203 4.85156 9.65625 4.85156ZM12.7969 4.83984C13.3711 4.83984 13.8398 4.37109 13.8398 3.79688C13.8398 3.22266 13.3711 2.75391 12.7969 2.75391C12.2227 2.75391 11.7539 3.22266 11.7539 3.79688C11.7539 4.37109 12.2227 4.83984 12.7969 4.83984ZM15.9375 4.83984C16.5117 4.83984 16.9805 4.37109 16.9805 3.79688C16.9805 3.22266 16.5117 2.75391 15.9375 2.75391C15.3633 2.75391 14.8945 3.22266 14.8945 3.79688C14.8945 4.37109 15.3633 4.83984 15.9375 4.83984ZM19.0781 4.83984C19.6523 4.83984 20.1211 4.37109 20.1211 3.79688C20.1211 3.22266 19.6523 2.75391 19.0781 2.75391C18.5039 2.75391 18.0352 3.22266 18.0352 3.79688C18.0352 4.37109 18.5039 4.83984 19.0781 4.83984ZM22.2188 4.81641C22.793 4.81641 23.2617 4.34766 23.2617 3.78516C23.2617 3.21094 22.793 2.74219 22.2188 2.74219C21.6562 2.74219 21.1875 3.21094 21.1875 3.78516C21.1875 4.34766 21.6562 4.81641 22.2188 4.81641ZM25.3594 4.81641C25.9336 4.81641 26.4023 4.34766 26.4023 3.78516C26.4023 3.21094 25.9336 2.74219 25.3594 2.74219C24.7969 2.74219 24.3281 3.21094 24.3281 3.78516C24.3281 4.34766 24.7969 4.81641 25.3594 4.81641ZM9.65625 22.6758C10.2188 22.6758 10.6875 22.207 10.6875 21.6328C10.6875 21.0586 10.2188 20.5898 9.65625 20.5898C9.08203 20.5898 8.61328 21.0586 8.61328 21.6328C8.61328 22.207 9.08203 22.6758 9.65625 22.6758ZM12.7969 22.6641C13.3711 22.6641 13.8398 22.1953 13.8398 21.6211C13.8398 21.0469 13.3711 20.5781 12.7969 20.5781C12.2227 20.5781 11.7539 21.0469 11.7539 21.6211C11.7539 22.1953 12.2227 22.6641 12.7969 22.6641ZM15.9375 22.6641C16.5117 22.6641 16.9805 22.1953 16.9805 21.6211C16.9805 21.0469 16.5117 20.5781 15.9375 20.5781C15.3633 20.5781 14.8945 21.0469 14.8945 21.6211C14.8945 22.1953 15.3633 22.6641 15.9375 22.6641ZM19.0781 22.6641C19.6523 22.6641 20.1211 22.1953 20.1211 21.6211C20.1211 21.0469 19.6523 20.5781 19.0781 20.5781C18.5039 20.5781 18.0352 21.0469 18.0352 21.6211C18.0352 22.1953 18.5039 22.6641 19.0781 22.6641ZM22.2188 22.6406C22.793 22.6406 23.2617 22.1719 23.2617 21.6094C23.2617 21.0352 22.793 20.5664 22.2188 20.5664C21.6562 20.5664 21.1875 21.0352 21.1875 21.6094C21.1875 22.1719 21.6562 22.6406 22.2188 22.6406ZM25.3594 22.6406C25.9336 22.6406 26.4023 22.1719 26.4023 21.6094C26.4023 21.0352 25.9336 20.5664 25.3594 20.5664C24.7969 20.5664 24.3281 21.0352 24.3281 21.6094C24.3281 22.1719 24.7969 22.6406 25.3594 22.6406Z" fill="black" fill-opacity="0.85"/>
  <path d="M11.3438 17.0625C11.8008 17.0625 12.1055 16.7461 12.1055 16.3008L12.1055 9.51562C12.1055 9.02344 11.7773 8.70703 11.2852 8.70703C11.0273 8.70703 10.8281 8.77734 10.5352 8.96484L8.76562 10.1133C8.49609 10.2891 8.35547 10.5117 8.35547 10.7812C8.35547 11.168 8.64844 11.4375 9.03516 11.4375C9.19922 11.4375 9.33984 11.3906 9.49219 11.2852L10.5234 10.6172L10.5938 10.6172L10.5938 16.3008C10.5938 16.7461 10.8984 17.0625 11.3438 17.0625ZM13.8867 16.957L18.3047 16.957C18.7148 16.957 19.0195 16.6641 19.0195 16.2539C19.0195 15.832 18.7148 15.5391 18.3047 15.5391L15.5039 15.5391L15.5039 15.4688L17.0391 13.957C18.3398 12.6797 18.75 11.9766 18.75 11.0859C18.75 9.70312 17.5547 8.66016 15.9609 8.66016C14.707 8.66016 13.6289 9.36328 13.2891 10.4062C13.2188 10.5703 13.1836 10.7578 13.1836 10.957C13.1836 11.3789 13.4648 11.6602 13.875 11.6602C14.2383 11.6602 14.4492 11.4844 14.5547 11.0859C14.5781 10.9805 14.6016 10.8984 14.6367 10.8281C14.8711 10.3359 15.3516 10.0547 15.9609 10.0547C16.6523 10.0547 17.2383 10.5469 17.2383 11.1445C17.2383 11.6719 16.9922 12.0352 16.0078 13.0078L13.5117 15.4922C13.2422 15.75 13.1484 15.9727 13.1484 16.2305C13.1484 16.6641 13.4531 16.957 13.8867 16.957ZM22.4062 17.0742C24.1875 17.0742 25.4883 16.0078 25.4883 14.5547C25.4883 13.4414 24.7031 12.5859 23.6367 12.4688L23.6367 12.8906C24.5859 12.5977 25.1602 11.8711 25.1602 10.9219C25.1602 9.60938 24 8.66016 22.3945 8.66016C21.1992 8.66016 20.1914 9.19922 19.7812 10.0781C19.6875 10.3008 19.6289 10.5586 19.6289 10.793C19.6289 11.1914 19.8984 11.4844 20.3086 11.4844C20.6836 11.4844 20.8828 11.3086 21 10.957C21.1875 10.3711 21.668 10.0547 22.3594 10.0547C23.1562 10.0547 23.6367 10.4297 23.6367 11.0508C23.6367 11.6836 23.1211 12.082 22.3242 12.082L21.7383 12.082C21.3281 12.082 21.0469 12.3633 21.0469 12.7617C21.0469 13.1484 21.3281 13.4297 21.7383 13.4297L22.3359 13.4297C23.3555 13.4297 23.918 13.8281 23.918 14.5547C23.918 15.2109 23.3203 15.668 22.418 15.668C21.6094 15.668 21.0586 15.3164 20.8594 14.7422C20.7539 14.4023 20.5195 14.2266 20.1797 14.2266C19.7461 14.2266 19.4414 14.5312 19.4414 14.9531C19.4414 15.1758 19.5117 15.4102 19.6172 15.6211C20.1211 16.5469 21.1172 17.0742 22.4062 17.0742Z" fill="black" fill-opacity="0.85"/>
 </g>
</svg>
