<?xml version="1.0" encoding="UTF-8"?>
<!--Generator: Apple Native CoreSVG 360-->
<!DOCTYPE svg
PUBLIC "-//W3C//DTD SVG 1.1//EN"
       "http://www.w3.org/Graphics/SVG/1.1/DTD/svg11.dtd">
<svg version="1.1" xmlns="http://www.w3.org/2000/svg" xmlns:xlink="http://www.w3.org/1999/xlink" viewBox="0 0 32.6484 8.21484">
 <g>
  <rect height="8.21484" opacity="0" width="32.6484" x="0" y="0"/>
  <path d="M28.2188 8.21484C30.4688 8.21484 32.2969 6.38672 32.2969 4.125C32.2969 1.86328 30.4688 0.0351562 28.2188 0.0351562C25.9453 0.0351562 24.1172 1.86328 24.1172 4.125C24.1172 6.38672 25.9453 8.21484 28.2188 8.21484ZM4.07812 8.21484C6.35156 8.21484 8.17969 6.38672 8.17969 4.125C8.17969 1.86328 6.35156 0.0351562 4.07812 0.0351562C1.82812 0.0351562 0 1.86328 0 4.125C0 6.38672 1.82812 8.21484 4.07812 8.21484ZM5.12109 5.07422L26.2383 5.07422C26.7539 5.07422 27.1758 4.65234 27.1758 4.13672C27.1758 3.62109 26.7539 3.1875 26.2383 3.1875L5.12109 3.1875C4.60547 3.1875 4.17188 3.62109 4.17188 4.13672C4.17188 4.65234 4.60547 5.07422 5.12109 5.07422Z" fill="black" fill-opacity="0.85"/>
 </g>
</svg>
