<?xml version="1.0" encoding="UTF-8"?>
<!--Generator: Apple Native CoreSVG 360-->
<!DOCTYPE svg
PUBLIC "-//W3C//DTD SVG 1.1//EN"
       "http://www.w3.org/Graphics/SVG/1.1/DTD/svg11.dtd">
<svg version="1.1" xmlns="http://www.w3.org/2000/svg" xmlns:xlink="http://www.w3.org/1999/xlink" viewBox="0 0 20.4727 25.3945">
 <g>
  <rect height="25.3945" opacity="0" width="20.4727" x="0" y="0"/>
  <path d="M3.77344 7.59375C5.85938 7.59375 7.54688 5.89453 7.54688 3.80859C7.54688 1.73438 5.85938 0.0351562 3.77344 0.0351562C1.6875 0.0351562 0 1.73438 0 3.80859C0 5.89453 1.6875 7.59375 3.77344 7.59375ZM3.78516 19.125C4.30078 19.125 4.72266 18.7031 4.72266 18.1875L4.72266 7.25391C4.72266 6.73828 4.30078 6.30469 3.78516 6.30469C3.26953 6.30469 2.83594 6.73828 2.83594 7.25391L2.83594 18.1875C2.83594 18.7031 3.26953 19.125 3.78516 19.125ZM3.78516 25.3945C5.85938 25.3945 7.54688 23.707 7.54688 21.6328C7.54688 19.5352 5.85938 17.8477 3.78516 17.8477C1.6875 17.8477 0 19.5352 0 21.6328C0 23.707 1.6875 25.3945 3.78516 25.3945Z" fill="black" fill-opacity="0.85"/>
  <path d="M10.5352 18.5273C10.8281 18.5273 11.0625 18.4336 11.3203 18.2461L19.3477 13.6172C19.9219 13.2773 20.1211 13.043 20.1211 12.6914C20.1211 12.3398 19.9219 12.0938 19.3477 11.7656L11.3203 7.13672C11.0625 6.94922 10.8281 6.85547 10.5352 6.85547C10.0312 6.85547 9.71484 7.25391 9.71484 7.875L9.71484 17.5078C9.71484 18.1289 10.0312 18.5273 10.5352 18.5273Z" fill="black" fill-opacity="0.85"/>
 </g>
</svg>
