<?xml version="1.0" encoding="UTF-8"?>
<!--Generator: Apple Native CoreSVG 360-->
<!DOCTYPE svg
PUBLIC "-//W3C//DTD SVG 1.1//EN"
       "http://www.w3.org/Graphics/SVG/1.1/DTD/svg11.dtd">
<svg version="1.1" xmlns="http://www.w3.org/2000/svg" xmlns:xlink="http://www.w3.org/1999/xlink" viewBox="0 0 31.6243 26.168">
 <g>
  <rect height="26.168" opacity="0" width="31.6243" x="0" y="0"/>
  <path d="M26.8161 1.08984L26.9919 3.98438C27.0153 4.20703 26.9098 4.33594 26.6754 4.5C26.3942 4.67578 26.3473 4.81641 26.3473 5.28516L26.3473 12.1992C28.3161 12.4336 29.4411 13.4531 29.4411 15.0586C29.4411 16.0312 29.1012 16.7461 29.1012 17.5312C29.1012 18.5508 30.6715 19.1484 30.6715 21.5625C30.6715 23.9766 28.6325 25.5 25.4215 25.5C23.5031 25.5 22.0029 24.9562 21.111 24.0001C21.4021 23.6134 21.6321 23.1792 21.7911 22.7021C22.3312 23.6394 23.605 24.1758 25.4215 24.1758C27.8825 24.1758 29.3473 23.1914 29.3473 21.5625C29.3473 19.6758 27.7653 18.9375 27.7653 17.5078C27.7653 16.6875 28.1169 15.8203 28.1169 15.0586C28.1169 13.8164 27.0153 13.4297 25.4215 13.4297C23.8278 13.4297 22.7262 13.8164 22.7262 15.0586C22.7262 15.8203 23.0778 16.6875 23.0778 17.5078C23.0778 18.3948 22.4689 19.0156 22.0069 19.81C21.9048 19.1672 21.714 18.6508 21.5073 18.2327C21.6489 18.0023 21.7419 17.7792 21.7419 17.5312C21.7419 16.7461 21.402 16.0312 21.402 15.0586C21.402 13.4531 22.527 12.4336 24.484 12.1992L24.484 5.28516C24.484 4.82812 24.4372 4.6875 24.1676 4.5C23.9333 4.33594 23.8278 4.20703 23.8512 3.98438L24.027 1.08984C24.0387 0.832031 24.2262 0.644531 24.4489 0.644531L26.3825 0.644531C26.6169 0.644531 26.8044 0.832031 26.8161 1.08984ZM27.4137 21.2695C27.4137 21.5508 27.1794 21.7734 26.8981 21.7734L23.9215 21.7734C23.6403 21.7734 23.4059 21.5508 23.4059 21.2695C23.4059 20.9883 23.652 20.7422 23.9215 20.7422L26.8981 20.7422C27.1794 20.7422 27.4137 20.9766 27.4137 21.2695ZM26.6872 17.1914C26.6872 17.8828 26.1247 18.457 25.4215 18.457C24.7067 18.457 24.1442 17.8828 24.1442 17.1914C24.1442 16.4883 24.7184 15.9141 25.4215 15.9141C26.1247 15.9141 26.6872 16.4883 26.6872 17.1914Z" fill="black" fill-opacity="0.85"/>
  <path d="M16.7379 0.832031L17.734 1.71094C17.9215 1.875 18.0036 2.08594 17.9919 2.30859L17.7575 4.69922C17.7106 5.0625 17.6286 5.21484 17.359 5.29688C17.1715 5.35547 17.1715 5.37891 17.1715 5.71875L17.1598 12.8789C17.1598 13.4297 17.2184 13.8281 17.4411 13.8281C17.5817 13.8281 17.7809 13.6055 17.9919 13.2773C18.2614 12.8203 18.7184 12.3984 19.4567 12.3984C20.2653 12.3984 20.8395 13.0195 20.8395 13.8867C20.8395 15.0703 20.0426 15.8086 20.0426 16.7109C20.0426 17.4609 21.4958 18.5391 21.4958 20.8711C21.4958 23.6953 19.4098 25.5703 16.234 25.5703C15.2424 25.5703 14.3555 25.3861 13.6053 25.046C13.8034 24.619 13.847 24.1077 13.724 23.5997C14.3666 24.0062 15.2163 24.2227 16.234 24.2227C18.6833 24.2227 20.1598 22.9688 20.1598 20.8711C20.1598 18.7148 18.7184 18.0117 18.7184 16.7227C18.7184 15.5156 19.527 14.8125 19.527 13.875C19.527 13.7695 19.445 13.6875 19.3629 13.6875C18.8356 13.6875 18.5544 15.1055 17.4059 15.1055C16.8786 15.1055 16.4684 14.8008 16.2809 14.1914L16.1872 14.1914C16.0114 14.7891 15.6129 15.1055 15.0856 15.1055C13.9137 15.1055 13.6325 13.6875 13.1051 13.6875C13.0231 13.6875 12.9411 13.7695 12.9411 13.875C12.9411 14.8125 13.7497 15.5156 13.7497 16.7227C13.7497 17.9041 12.5389 18.5934 12.3398 20.3636L11.5263 18.5304C11.9364 17.6916 12.4254 17.1461 12.4254 16.7109C12.4254 15.8086 11.6286 15.0703 11.6286 13.8867C11.6286 13.0195 12.2028 12.3984 13.0114 12.3984C13.7497 12.3984 14.2067 12.8203 14.4879 13.2773C14.6872 13.6055 14.8864 13.8281 15.0387 13.8281C15.2497 13.8281 15.32 13.3945 15.32 12.8789L15.2965 5.71875C15.2965 5.39062 15.2731 5.33203 15.1208 5.29688C14.8512 5.21484 14.7458 5.05078 14.7223 4.69922L14.4879 2.30859C14.4645 2.09766 14.57 1.86328 14.734 1.71094L15.7419 0.832031C15.8708 0.714844 16.0465 0.644531 16.234 0.644531C16.4333 0.644531 16.5973 0.714844 16.7379 0.832031ZM15.2145 17.1094C15.4606 17.1914 15.5778 17.4727 15.4958 17.7188L14.5231 20.3906C14.4294 20.6367 14.1598 20.7656 13.9137 20.6719C13.6676 20.5898 13.5504 20.3086 13.6325 20.0742L14.6051 17.3906C14.6989 17.1445 14.9684 17.0156 15.2145 17.1094ZM17.8747 17.3906L18.8473 20.0742C18.9294 20.3086 18.8004 20.5898 18.5544 20.6719C18.3083 20.7656 18.0387 20.6367 17.945 20.3906L16.9723 17.7188C16.8903 17.4727 17.0192 17.1914 17.2653 17.1094C17.5114 17.0156 17.7809 17.1445 17.8747 17.3906Z" fill="black" fill-opacity="0.85"/>
  <path d="M0.777011 23.3789C0.343417 24.3633 0.706698 25.5352 1.99576 25.5352C2.44107 25.5352 2.82779 25.3594 3.42545 24.8672L6.63639 22.1836C6.76529 22.0781 6.84732 22.043 6.8942 22.043C6.95279 22.043 7.0231 22.0781 7.15201 22.1836L10.3629 24.8672C10.9723 25.3594 11.3473 25.5352 11.8044 25.5352C13.0817 25.5352 13.4567 24.3633 13.0114 23.3789L7.84342 11.6953L7.84342 6.25781C7.84342 3.58594 8.28873 1.59375 8.28873 1.21875C8.28873 0.867188 8.07779 0.644531 7.73795 0.644531C7.51529 0.644531 7.32779 0.773438 7.03482 1.08984L4.44498 4.05469C4.2106 4.32422 4.2692 4.66406 4.57389 4.81641C5.59342 5.28516 5.96842 5.42578 5.96842 6.25781L5.96842 11.6602ZM1.99576 23.8477L6.82389 12.8086L6.96451 12.8086L11.8044 23.8477C11.9333 24.1406 11.6989 24.293 11.4762 24.1055L7.86685 21.0938C7.49185 20.7891 7.18717 20.6367 6.8942 20.6367C6.61295 20.6367 6.30826 20.7891 5.92154 21.0938L2.31217 24.1055C2.10123 24.293 1.86685 24.1406 1.99576 23.8477ZM8.12467 18.4922C8.42935 18.4922 8.68717 18.2461 8.68717 17.9414C8.68717 17.625 8.44107 17.3555 8.12467 17.3555C7.81998 17.3555 7.56217 17.6367 7.56217 17.9414C7.56217 18.2344 7.81998 18.4922 8.12467 18.4922ZM8.74576 19.9688C9.05045 19.9688 9.31998 19.7109 9.31998 19.4062C9.31998 19.0898 9.05045 18.832 8.74576 18.832C8.44107 18.832 8.17154 19.1016 8.17154 19.4062C8.17154 19.7109 8.44107 19.9688 8.74576 19.9688ZM9.34342 21.4336C9.65982 21.4336 9.92935 21.1641 9.92935 20.8711C9.92935 20.5664 9.67154 20.2969 9.34342 20.2969C9.06217 20.2969 8.80435 20.5664 8.80435 20.8711C8.80435 21.1758 9.03873 21.4336 9.34342 21.4336Z" fill="black" fill-opacity="0.85"/>
 </g>
</svg>
