<?xml version="1.0" encoding="UTF-8"?>
<!--Generator: Apple Native CoreSVG 360-->
<!DOCTYPE svg
PUBLIC "-//W3C//DTD SVG 1.1//EN"
       "http://www.w3.org/Graphics/SVG/1.1/DTD/svg11.dtd">
<svg version="1.1" xmlns="http://www.w3.org/2000/svg" xmlns:xlink="http://www.w3.org/1999/xlink" viewBox="0 0 24.2578 23.918">
 <g>
  <rect height="23.918" opacity="0" width="24.2578" x="0" y="0"/>
  <path d="M4.64062 19.2891C6.65625 21.3047 10.9336 19.7344 15.3281 15.3398C19.7344 10.9336 21.3047 6.65625 19.2891 4.64062C17.2266 2.58984 12.9844 4.16016 8.56641 8.57812C4.16016 12.9961 2.57812 17.2266 4.64062 19.2891ZM5.90625 18.0117C4.64062 16.7461 6.22266 13.4766 9.83203 9.85547C13.4883 6.19922 16.7578 4.64062 18.0117 5.90625C19.2773 7.16016 17.6953 10.418 14.0508 14.0742C10.4297 17.6953 7.16016 19.2773 5.90625 18.0117ZM19.2656 19.2891C21.3164 17.2266 19.7461 12.9961 15.3281 8.56641C10.9336 4.16016 6.67969 2.58984 4.61719 4.64062C2.60156 6.65625 4.18359 10.9336 8.57812 15.3281C12.9844 19.7344 17.25 21.293 19.2656 19.2891ZM18 18.0117C16.7461 19.2773 13.4766 17.6953 9.83203 14.0508C6.19922 10.418 4.64062 7.16016 5.89453 5.90625C7.14844 4.64062 10.418 6.19922 14.0508 9.84375C17.6836 13.4766 19.2773 16.7461 18 18.0117ZM20.3672 4.83984L23.3555 1.85156C23.6953 1.5 23.6953 0.914062 23.3555 0.574219C22.9922 0.210938 22.418 0.222656 22.0664 0.574219L19.0195 3.60938ZM3.60938 19.0195L0.574219 22.0664C0.210938 22.418 0.222656 22.9922 0.574219 23.3438C0.914062 23.6953 1.48828 23.707 1.85156 23.3555L5.03906 20.168ZM11.9531 23.9062C18.5508 23.9062 23.9062 18.5508 23.9062 11.9531C23.9062 5.35547 18.5508 0 11.9531 0C5.35547 0 0 5.35547 0 11.9531C0 18.5508 5.35547 23.9062 11.9531 23.9062ZM11.9531 21.9141C6.44531 21.9141 1.99219 17.4609 1.99219 11.9531C1.99219 6.44531 6.44531 1.99219 11.9531 1.99219C17.4609 1.99219 21.9141 6.44531 21.9141 11.9531C21.9141 17.4609 17.4609 21.9141 11.9531 21.9141Z" fill="black" fill-opacity="0.85"/>
 </g>
</svg>
