<?xml version="1.0" encoding="UTF-8"?>
<!--Generator: Apple Native CoreSVG 360-->
<!DOCTYPE svg
PUBLIC "-//W3C//DTD SVG 1.1//EN"
       "http://www.w3.org/Graphics/SVG/1.1/DTD/svg11.dtd">
<svg version="1.1" xmlns="http://www.w3.org/2000/svg" xmlns:xlink="http://www.w3.org/1999/xlink" viewBox="0 0 24.2578 23.918">
 <g>
  <rect height="23.918" opacity="0" width="24.2578" x="0" y="0"/>
  <path d="M11.9531 23.9062C18.5508 23.9062 23.9062 18.5508 23.9062 11.9531C23.9062 5.35547 18.5508 0 11.9531 0C5.35547 0 0 5.35547 0 11.9531C0 18.5508 5.35547 23.9062 11.9531 23.9062ZM11.9531 21.9141C6.44531 21.9141 1.99219 17.4609 1.99219 11.9531C1.99219 6.44531 6.44531 1.99219 11.9531 1.99219C17.4609 1.99219 21.9141 6.44531 21.9141 11.9531C21.9141 17.4609 17.4609 21.9141 11.9531 21.9141Z" fill="black" fill-opacity="0.85"/>
  <path d="M8.23828 17.3203C8.84766 17.3203 9.1875 16.9336 9.1875 16.2773L9.1875 12.4102L14.6719 12.4102L14.6719 16.2773C14.6719 16.9219 15.0234 17.3203 15.5977 17.3203C16.207 17.3203 16.5469 16.9336 16.5469 16.2773L16.5469 7.40625C16.5469 6.75 16.207 6.36328 15.5977 6.36328C15.0234 6.36328 14.6719 6.76172 14.6719 7.40625L14.6719 10.9453L9.1875 10.9453L9.1875 7.40625C9.1875 6.75 8.84766 6.36328 8.23828 6.36328C7.66406 6.36328 7.32422 6.76172 7.32422 7.40625L7.32422 16.2773C7.32422 16.9219 7.66406 17.3203 8.23828 17.3203Z" fill="black" fill-opacity="0.85"/>
 </g>
</svg>
