<?xml version="1.0" encoding="UTF-8"?>
<!--Generator: Apple Native CoreSVG 360-->
<!DOCTYPE svg
PUBLIC "-//W3C//DTD SVG 1.1//EN"
       "http://www.w3.org/Graphics/SVG/1.1/DTD/svg11.dtd">
<svg version="1.1" xmlns="http://www.w3.org/2000/svg" xmlns:xlink="http://www.w3.org/1999/xlink" viewBox="0 0 21.9258 21.5742">
 <g>
  <rect height="21.5742" opacity="0" width="21.9258" x="0" y="0"/>
  <path d="M3.67969 21.5742L17.8945 21.5742C20.3555 21.5742 21.5742 20.3672 21.5742 17.9531L21.5742 3.63281C21.5742 1.21875 20.3555 0 17.8945 0L3.67969 0C1.23047 0 0 1.21875 0 3.63281L0 17.9531C0 20.3672 1.23047 21.5742 3.67969 21.5742ZM3.70312 19.6875C2.53125 19.6875 1.88672 19.0664 1.88672 17.8477L1.88672 3.73828C1.88672 2.51953 2.53125 1.88672 3.70312 1.88672L17.8711 1.88672C19.0312 1.88672 19.6875 2.51953 19.6875 3.73828L19.6875 17.8477C19.6875 19.0664 19.0312 19.6875 17.8711 19.6875Z" fill="black" fill-opacity="0.85"/>
  <path d="M7.08984 16.1602C7.69922 16.1602 8.03906 15.7734 8.03906 15.1172L8.03906 11.25L13.5234 11.25L13.5234 15.1172C13.5234 15.7617 13.875 16.1602 14.4492 16.1602C15.0586 16.1602 15.3984 15.7734 15.3984 15.1172L15.3984 6.24609C15.3984 5.58984 15.0586 5.20312 14.4492 5.20312C13.875 5.20312 13.5234 5.60156 13.5234 6.24609L13.5234 9.78516L8.03906 9.78516L8.03906 6.24609C8.03906 5.58984 7.69922 5.20312 7.08984 5.20312C6.51562 5.20312 6.17578 5.60156 6.17578 6.24609L6.17578 15.1172C6.17578 15.7617 6.51562 16.1602 7.08984 16.1602Z" fill="black" fill-opacity="0.85"/>
 </g>
</svg>
