<?xml version="1.0" encoding="UTF-8"?>
<!--Generator: Apple Native CoreSVG 360-->
<!DOCTYPE svg
PUBLIC "-//W3C//DTD SVG 1.1//EN"
       "http://www.w3.org/Graphics/SVG/1.1/DTD/svg11.dtd">
<svg version="1.1" xmlns="http://www.w3.org/2000/svg" xmlns:xlink="http://www.w3.org/1999/xlink" viewBox="0 0 30.1204 28.4643">
 <g>
  <rect height="28.4643" opacity="0" width="30.1204" x="0" y="0"/>
  <path d="M11.2935 15.2706L2.27504 23.5778C1.79457 24.0232 1.67738 24.4216 2.22817 24.9724L3.47035 26.2028C4.03285 26.7653 4.43129 26.6482 4.86488 26.1794L13.0311 17.0073L14.2054 18.181L5.93129 27.4802C4.84145 28.7107 3.63442 28.781 2.60317 27.7263L0.716447 25.8396C-0.314803 24.7966-0.232771 23.6247 0.962541 22.5232L10.1219 14.0997ZM22.6891 2.48409L25.3961 5.16768C26.0289 5.8005 26.2399 6.33956 26.0875 6.99581L25.8414 8.12081L26.4274 8.70675L26.9899 8.64815C27.5407 8.613 27.986 8.81221 28.5133 9.33956L29.3336 10.1599C29.8961 10.7107 29.9313 11.4372 29.3805 11.9997L26.2633 15.1286C25.7125 15.6794 24.9391 15.6325 24.3883 15.0817L23.5797 14.2849C23.0407 13.7575 22.8883 13.2771 22.9118 12.7263L22.9586 12.1872L22.3375 11.5778L21.2711 11.7536C20.8283 11.8388 20.4288 11.8559 20.0277 11.6373L17.2313 14.7802L16.0583 13.6072L18.8087 10.518L17.682 9.386L14.6396 12.1885L13.4709 11.0198L16.6342 8.11061C16.4506 7.66817 16.4538 7.16432 16.7008 6.5505L17.3454 4.83956C15.8336 4.04268 14.2164 4.21846 12.8102 4.6169C12.0602 4.8044 11.4977 4.51143 11.2282 4.07784C10.9469 3.62081 10.9938 2.9294 11.486 2.44893C14.1461-0.164348 19.5836-0.597942 22.6891 2.48409ZM13.1852 2.94112C13.0563 3.03487 13.1149 3.18721 13.2789 3.12862C15.3297 2.4255 17.9547 2.70675 19.4196 4.23018L18.318 6.98409C18.1539 7.38253 18.1774 7.54659 18.4352 7.79268L20.5797 9.9255C20.8493 10.1833 21.0016 10.2067 21.3414 10.1364L22.9821 9.85518L24.5875 11.4724L24.5172 12.5153C24.5055 12.7966 24.5407 12.8786 24.7399 13.0896L25.3375 13.6872L27.9391 11.0857L27.3297 10.488C27.1305 10.2888 27.0368 10.2653 26.7672 10.2771L25.7125 10.3357L24.0954 8.73018L24.4469 7.13643C24.5172 6.77315 24.4704 6.58565 24.2243 6.33956L21.2711 3.40987C19.4196 1.58175 15.2946 1.40596 13.1852 2.94112Z" fill="black" fill-opacity="0.85"/>
  <path d="M24.5289 26.5544C24.8805 26.906 25.4547 26.906 25.8063 26.5544C26.1461 26.2028 26.1579 25.6403 25.8063 25.2771L3.15395 2.64815C2.80238 2.29659 2.22817 2.28487 1.86488 2.64815C1.52504 2.988 1.52504 3.58565 1.86488 3.9255Z" fill="black" fill-opacity="0.85"/>
 </g>
</svg>
