<?xml version="1.0" encoding="UTF-8"?>
<!--Generator: Apple Native CoreSVG 360-->
<!DOCTYPE svg
PUBLIC "-//W3C//DTD SVG 1.1//EN"
       "http://www.w3.org/Graphics/SVG/1.1/DTD/svg11.dtd">
<svg version="1.1" xmlns="http://www.w3.org/2000/svg" xmlns:xlink="http://www.w3.org/1999/xlink" viewBox="0 0 28.8763 27.92">
 <g>
  <rect height="27.92" opacity="0" width="28.8763" x="0" y="0"/>
  <path d="M13.4346 17.0457L5.09831 26.5635C4.10222 27.7002 2.88347 27.7823 1.89909 26.7979L0.680343 25.5674C-0.304032 24.5948-0.222001 23.3877 0.938155 22.3916L10.4567 14.0693ZM21.8796 2.45804L24.2116 4.76663C24.9147 5.46976 25.1725 6.16116 24.9967 6.82913L24.6686 8.17679L25.3952 8.87991L26.5202 8.76272C26.9069 8.72757 27.153 8.77444 27.5046 9.14944L28.2077 9.84085C28.6061 10.2276 28.6296 10.7198 28.2663 11.0948L25.3952 13.9541C24.9967 14.3526 24.528 14.3174 24.1296 13.919L23.4264 13.251C23.0514 12.8877 23.0046 12.6533 23.0514 12.2198L23.1569 11.1182L22.4421 10.3916L20.9069 10.6963C20.2858 10.8252 19.8757 10.708 19.4889 10.333L17.3561 8.20022C16.8288 7.67288 16.6647 7.09866 16.9811 6.27835L17.9421 3.81741C16.3952 3.12601 14.5553 3.39554 12.8561 4.19241C12.5397 4.34476 12.153 4.20413 11.9421 3.95804C11.6608 3.64163 11.5905 3.14944 12.0241 2.66897C14.1686 0.278349 19.5124 0.137724 21.8796 2.45804ZM16.4303 9.21976L18.3053 11.0948C18.3639 11.1533 18.4225 11.2119 18.4928 11.2705L16.4385 13.6161L13.8892 11.0681L16.2311 9.02054C16.3014 9.07913 16.3717 9.14944 16.4303 9.21976Z" fill="black" fill-opacity="0.85"/>
  <path d="M24.6217 26.2823C24.9733 26.6338 25.5592 26.6338 25.8991 26.2823C26.2389 25.9307 26.2507 25.3682 25.8991 25.0049L3.25847 2.37601C2.90691 2.02444 2.32097 2.01272 1.96941 2.37601C1.61784 2.71585 1.61784 3.31351 1.96941 3.65335Z" fill="black" fill-opacity="0.85"/>
 </g>
</svg>
