<?xml version="1.0" encoding="UTF-8"?>
<!--Generator: Apple Native CoreSVG 360-->
<!DOCTYPE svg
PUBLIC "-//W3C//DTD SVG 1.1//EN"
       "http://www.w3.org/Graphics/SVG/1.1/DTD/svg11.dtd">
<svg version="1.1" xmlns="http://www.w3.org/2000/svg" xmlns:xlink="http://www.w3.org/1999/xlink" viewBox="0 0 30.1204 28.4643">
 <g>
  <rect height="28.4643" opacity="0" width="30.1204" x="0" y="0"/>
  <path d="M0.716447 25.8396L2.60317 27.7263C3.63442 28.781 4.84145 28.7107 5.93129 27.4802L20.4977 11.1091L19.3258 9.93721L4.86488 26.1794C4.43129 26.6482 4.03285 26.7653 3.47035 26.2028L2.22817 24.9724C1.67738 24.4216 1.79457 24.0232 2.27504 23.5778L18.4704 8.65987L17.2985 7.49971L0.962541 22.5232C-0.232771 23.6247-0.314803 24.7966 0.716447 25.8396ZM11.486 2.44893C10.9938 2.9294 10.9469 3.62081 11.2282 4.07784C11.4977 4.51143 12.0602 4.8044 12.8102 4.6169C14.2164 4.21846 15.8336 4.04268 17.3454 4.83956L16.7008 6.5505C16.3141 7.51143 16.525 8.20284 17.111 8.81221L19.5719 11.2849C20.1344 11.8591 20.6618 11.8708 21.2711 11.7536L22.3375 11.5778L22.9586 12.1872L22.9118 12.7263C22.8883 13.2771 23.0407 13.7575 23.5797 14.2849L24.3883 15.0817C24.9391 15.6325 25.7125 15.6794 26.2633 15.1286L29.3805 11.9997C29.9313 11.4372 29.8961 10.7107 29.3336 10.1599L28.5133 9.33956C27.986 8.81221 27.5407 8.613 26.9899 8.64815L26.4274 8.70675L25.8414 8.12081L26.0875 6.99581C26.2399 6.33956 26.0289 5.8005 25.3961 5.16768L22.6891 2.48409C19.5836-0.597942 14.1461-0.164348 11.486 2.44893ZM13.1852 2.94112C15.2946 1.40596 19.4196 1.58175 21.2711 3.40987L24.2243 6.33956C24.4704 6.58565 24.5172 6.77315 24.4469 7.13643L24.0954 8.73018L25.7125 10.3357L26.7672 10.2771C27.0368 10.2653 27.1305 10.2888 27.3297 10.488L27.9391 11.0857L25.3375 13.6872L24.7399 13.0896C24.5407 12.8786 24.5055 12.7966 24.5172 12.5153L24.5875 11.4724L22.9821 9.85518L21.3414 10.1364C21.0016 10.2067 20.8493 10.1833 20.5797 9.9255L18.4352 7.79268C18.1774 7.54659 18.1539 7.38253 18.318 6.98409L19.4196 4.23018C17.9547 2.70675 15.3297 2.4255 13.2789 3.12862C13.1149 3.18721 13.0563 3.03487 13.1852 2.94112Z" fill="black" fill-opacity="0.85"/>
 </g>
</svg>
