<?xml version="1.0" encoding="UTF-8"?>
<!--Generator: Apple Native CoreSVG 360-->
<!DOCTYPE svg
PUBLIC "-//W3C//DTD SVG 1.1//EN"
       "http://www.w3.org/Graphics/SVG/1.1/DTD/svg11.dtd">
<svg version="1.1" xmlns="http://www.w3.org/2000/svg" xmlns:xlink="http://www.w3.org/1999/xlink" viewBox="0 0 20.6133 26.6836">
 <g>
  <rect height="26.6836" opacity="0" width="20.6133" x="0" y="0"/>
  <path d="M9.76172 25.5117C13.875 25.5117 16.7812 23.2852 18.3398 18.8906L20.4023 13.0898C20.543 12.6914 20.6133 12.3047 20.6133 11.9531C20.6133 10.7109 19.6758 9.84375 18.4805 9.84375C17.6719 9.84375 16.9453 10.3242 16.5469 11.25L15.7852 13.125C15.7617 13.1719 15.7266 13.207 15.6797 13.207C15.6211 13.207 15.5977 13.1602 15.5977 13.1016L15.5977 3.70312C15.5977 2.33203 14.7422 1.46484 13.4297 1.46484C12.9492 1.46484 12.5156 1.64062 12.1875 1.94531C12.0352 0.738281 11.2617 0 10.1016 0C8.96484 0 8.16797 0.761719 7.99219 1.92188C7.69922 1.62891 7.27734 1.46484 6.85547 1.46484C5.63672 1.46484 4.82812 2.32031 4.82812 3.62109L4.82812 4.92188C4.51172 4.59375 4.03125 4.41797 3.53906 4.41797C2.32031 4.41797 1.47656 5.30859 1.47656 6.63281L1.47656 16.6992C1.47656 22.1836 4.80469 25.5117 9.76172 25.5117ZM9.70312 23.8945C5.55469 23.8945 3.02344 21.2227 3.02344 16.5117L3.02344 6.79688C3.02344 6.29297 3.33984 5.95312 3.83203 5.95312C4.3125 5.95312 4.66406 6.29297 4.66406 6.79688L4.66406 12.7852C4.66406 13.2188 5.01562 13.5117 5.39062 13.5117C5.78906 13.5117 6.15234 13.2188 6.15234 12.7852L6.15234 3.83203C6.15234 3.32812 6.46875 2.97656 6.94922 2.97656C7.44141 2.97656 7.78125 3.32812 7.78125 3.83203L7.78125 12.1875C7.78125 12.6211 8.13281 12.9141 8.51953 12.9141C8.91797 12.9141 9.26953 12.6211 9.26953 12.1875L9.26953 2.37891C9.26953 1.875 9.60938 1.51172 10.1016 1.51172C10.5703 1.51172 10.9102 1.875 10.9102 2.37891L10.9102 12.1875C10.9102 12.5977 11.2383 12.9141 11.6484 12.9141C12.0469 12.9141 12.3984 12.5977 12.3984 12.1875L12.3984 3.83203C12.3984 3.32812 12.7383 2.97656 13.2188 2.97656C13.6992 2.97656 14.0391 3.32812 14.0391 3.83203L14.0391 15.3633C14.0391 15.9492 14.3789 16.2891 14.8711 16.2891C15.293 16.2891 15.6445 16.1016 15.9141 15.5156L17.6016 11.7539C17.8242 11.25 18.2578 11.0742 18.668 11.2266C19.125 11.3906 19.2656 11.8242 19.0547 12.3984L16.9102 18.3867C15.4805 22.3828 12.9727 23.8945 9.70312 23.8945Z" fill="black" fill-opacity="0.85"/>
 </g>
</svg>
