<?xml version="1.0" encoding="UTF-8"?>
<!--Generator: Apple Native CoreSVG 360-->
<!DOCTYPE svg
PUBLIC "-//W3C//DTD SVG 1.1//EN"
       "http://www.w3.org/Graphics/SVG/1.1/DTD/svg11.dtd">
<svg version="1.1" xmlns="http://www.w3.org/2000/svg" xmlns:xlink="http://www.w3.org/1999/xlink" viewBox="0 0 33.5859 29.9883">
 <g>
  <rect height="29.9883" opacity="0" width="33.5859" x="0" y="0"/>
  <path d="M13.2188 22.8164C13.2188 25.8047 15.0938 28.3242 17.6133 28.3242L19.2773 28.3242C17.4492 26.9883 16.6875 24.9844 16.6992 22.6992C16.6992 20.168 17.6836 18.3516 18.5625 17.25L17.2383 17.25C14.9766 17.25 13.2188 19.6875 13.2188 22.8164ZM18.2227 22.7227C18.2227 26.4258 21.1172 29.2852 25.8281 29.2852L27.2109 29.2852C28.5234 29.2852 29.4961 29.2031 30.0352 29.0391C30.8203 28.8516 31.5938 28.3711 31.5938 27.4102C31.5938 27.0234 31.5 26.7422 31.3711 26.5195C31.3008 26.4023 31.3008 26.2852 31.4297 26.2383C32.0625 25.9688 32.5898 25.3945 32.5898 24.5859C32.5898 24.1172 32.4492 23.7305 32.2266 23.4492C32.1094 23.2852 32.1211 23.1562 32.3086 23.0508C32.7539 22.7812 33.082 22.207 33.082 21.5508C33.082 21.082 32.9414 20.5781 32.6719 20.3438C32.4961 20.1914 32.5312 20.0977 32.6953 19.9453C33.0117 19.6758 33.2344 19.2305 33.2344 18.6445C33.2344 17.6602 32.4609 16.8633 31.4531 16.8633L27.8789 16.8633C26.9766 16.8633 26.3672 16.4062 26.3672 15.6562C26.3672 14.3086 28.0664 11.8125 28.0664 10.0195C28.0664 9.07031 27.4688 8.51953 26.6719 8.51953C25.9453 8.51953 25.5938 9.02344 25.207 9.78516C23.6953 12.7031 21.6797 15.0938 20.1562 17.1211C18.8438 18.8438 18.2227 20.3438 18.2227 22.7227Z" fill="black" fill-opacity="0.85"/>
  <path d="M20.7422 7.16016C20.7422 3.85547 18.5742 1.06641 15.9492 1.06641L12.7383 1.06641C11.4492 0.398438 9.89062 0 8.14453 0L6.79688 0C5.56641 0 4.51172 0.0585938 3.82031 0.246094C2.44922 0.5625 1.55859 1.55859 1.55859 2.76562C1.55859 3 1.59375 3.24609 1.66406 3.44531C0.984375 3.97266 0.621094 4.71094 0.621094 5.51953C0.621094 5.90625 0.691406 6.31641 0.832031 6.62109C0.386719 7.08984 0.128906 7.76953 0.128906 8.48438C0.128906 8.92969 0.246094 9.42188 0.421875 9.77344C0.152344 10.1953 0 10.7461 0 11.3203C0 12.8086 1.16016 13.9922 2.67188 13.9922L6.35156 13.9922C6.55078 13.9922 6.65625 14.0742 6.65625 14.2266C6.65625 15.2578 5.01562 17.7305 5.01562 19.7344C5.01562 21.1172 5.97656 22.125 7.32422 22.125C8.29688 22.125 8.96484 21.6094 9.60938 20.3789C10.793 18.0938 12.1992 16.1016 14.4844 13.2891L16.3242 13.2891C18.7617 13.2891 20.7422 10.5234 20.7422 7.16016ZM14.918 7.21875C14.918 9.31641 14.4492 10.6289 13.125 12.3984C11.6602 14.3672 9.63281 16.7109 8.16797 19.6523C7.80469 20.3555 7.59375 20.5195 7.25391 20.5195C6.87891 20.5195 6.62109 20.2383 6.62109 19.7344C6.62109 18.1641 8.27344 15.7852 8.27344 14.2266C8.27344 13.0664 7.32422 12.375 6.14062 12.375L2.67188 12.375C2.07422 12.375 1.61719 11.918 1.61719 11.3203C1.61719 10.8633 1.76953 10.582 2.12109 10.2188C2.33203 10.043 2.35547 9.80859 2.17969 9.57422C1.86328 9.11719 1.74609 8.85938 1.74609 8.48438C1.74609 8.03906 1.93359 7.69922 2.36719 7.34766C2.66016 7.16016 2.76562 6.86719 2.61328 6.53906C2.36719 6.05859 2.23828 5.84766 2.23828 5.51953C2.23828 5.03906 2.55469 4.65234 3.23438 4.30078C3.49219 4.16016 3.53906 3.92578 3.45703 3.69141C3.22266 3.10547 3.1875 3.01172 3.1875 2.76562C3.1875 2.34375 3.49219 1.99219 4.18359 1.82812C4.76953 1.66406 5.68359 1.59375 6.78516 1.60547L8.02734 1.60547C12.1875 1.60547 14.918 3.96094 14.918 7.21875ZM19.125 7.16016C19.125 9.65625 17.7773 11.6719 16.3242 11.6719C16.0547 11.6719 15.7969 11.6719 15.5391 11.6719C16.2422 10.3125 16.5352 8.91797 16.5352 7.24219C16.5352 5.46094 15.9258 3.90234 14.7891 2.69531C15.1758 2.69531 15.5625 2.69531 15.9492 2.69531C17.6367 2.69531 19.125 4.72266 19.125 7.16016Z" fill="black" fill-opacity="0.85"/>
 </g>
</svg>
