<?xml version="1.0" encoding="UTF-8"?>
<!--Generator: Apple Native CoreSVG 360-->
<!DOCTYPE svg
PUBLIC "-//W3C//DTD SVG 1.1//EN"
       "http://www.w3.org/Graphics/SVG/1.1/DTD/svg11.dtd">
<svg version="1.1" xmlns="http://www.w3.org/2000/svg" xmlns:xlink="http://www.w3.org/1999/xlink" viewBox="0 0 31.9619 29.9025">
 <g>
  <rect height="29.9025" opacity="0" width="31.9619" x="0" y="0"/>
  <path d="M0.898918 7.73837L4.28564 8.46494C4.69579 8.55869 4.94189 8.93369 4.85986 9.33212C4.78954 9.74228 4.37939 9.97665 3.99267 9.90634L0.594231 9.1915C0.207512 9.10947-0.0503004 8.73447 0.00829335 8.34775C0.0668871 7.92587 0.465325 7.64462 0.898918 7.73837ZM3.77001 2.51181L6.23095 4.96103C6.52392 5.254 6.5122 5.71103 6.23095 6.004C5.9497 6.29697 5.46923 6.29697 5.17626 6.004L2.72704 3.55478C2.42236 3.25009 2.43407 2.80478 2.72704 2.51181C3.02001 2.21884 3.46532 2.20712 3.77001 2.51181ZM9.40673 0.589936L10.1333 3.97665C10.227 4.35165 9.94579 4.76181 9.54736 4.84384C9.1372 4.93759 8.7622 4.65634 8.66845 4.26962L7.94189 0.894624C7.84814 0.484467 8.12939 0.0977486 8.52782 0.0157173C8.91454-0.0663139 9.31298 0.17978 9.40673 0.589936Z" fill="black" fill-opacity="0.85"/>
  <path d="M27.102 7.89072C27.3481 8.13681 27.5708 8.4415 27.7583 8.83994L30.395 14.3946C32.3872 18.6134 31.9302 22.2462 29.0122 25.1524C27.5497 26.615 25.8768 27.4671 24.141 27.672C24.7903 27.2907 25.4127 26.7989 26.0005 26.2071C26.5899 25.6224 27.0793 25.0083 27.4638 24.3646C27.5838 24.2663 27.7009 24.1551 27.8169 24.0392C30.1372 21.7306 30.8403 18.8946 29.0239 15.0509L26.3052 9.29697C26.0474 8.7579 25.6489 8.53525 25.2153 8.74619C24.8052 8.93369 24.6177 9.35556 24.8169 9.87119L25.0994 10.6146L24.7583 9.89462C24.5708 9.5079 24.3481 9.20322 24.0903 8.9454C23.9508 8.80592 23.8016 8.68975 23.6451 8.59907C23.7393 8.33781 23.8898 8.10297 24.0903 7.90244C24.9458 7.05869 26.2114 7.01181 27.102 7.89072ZM17.7153 5.60556L21.0875 8.97181C20.6628 9.38937 20.4572 9.96776 20.5333 10.6212L16.6958 6.78915C16.3442 6.43759 15.8638 6.42587 15.5239 6.76572C15.387 6.90741 15.3052 7.07004 15.2812 7.2368L14.7036 6.66025C14.531 6.4855 14.35 6.34215 14.1638 6.23117C14.253 5.98126 14.403 5.75172 14.6099 5.55869C15.5239 4.62119 16.7427 4.6329 17.7153 5.60556ZM11.6099 6.61337C11.2583 6.9415 11.0708 7.38681 11.0591 7.83212C10.9494 7.74788 10.8384 7.6734 10.7264 7.61006C10.8274 7.35062 10.9894 7.10494 11.2114 6.8829C11.3896 6.70218 11.5794 6.5596 11.7777 6.45716Z" fill="black" fill-opacity="0.85"/>
  <path d="M26.0005 26.2071C28.9302 23.3009 29.3872 19.6681 27.395 15.461L24.7583 9.89462C24.5708 9.5079 24.3481 9.20322 24.0903 8.9454C23.2114 8.0665 21.9458 8.11337 21.0903 8.96884C20.5161 9.53134 20.3403 10.3868 20.7153 11.3243L21.5005 13.1876C21.5239 13.2345 21.5239 13.2931 21.4888 13.3165C21.4419 13.3634 21.395 13.3517 21.3599 13.3048L14.7036 6.66025C13.7427 5.68759 12.5239 5.68759 11.6099 6.61337C11.2583 6.9415 11.0708 7.38681 11.0591 7.83212C10.0981 7.09384 9.03173 7.10556 8.21142 7.93759C7.41454 8.73447 7.37939 9.83603 8.08251 10.7618C7.66064 10.7852 7.2622 10.961 6.94579 11.2657C6.09032 12.1212 6.12548 13.2931 7.03954 14.2071L7.95361 15.1329C7.50829 15.1212 7.05126 15.3321 6.68798 15.6837C5.83251 16.5509 5.86767 17.7813 6.80517 18.7071L13.9184 25.8321C17.7974 29.711 22.5083 29.7227 26.0005 26.2071ZM24.8169 25.1056C21.8872 28.0352 18.2075 27.9415 14.8911 24.6017L8.0122 17.7462C7.66064 17.3829 7.6372 16.9024 7.97704 16.5743C8.32861 16.2227 8.82079 16.2227 9.17236 16.5743L13.4028 20.8048C13.7075 21.1212 14.1645 21.0743 14.4341 20.8048C14.7153 20.5235 14.7622 20.0665 14.4575 19.7618L8.12939 13.422C7.76611 13.0704 7.75439 12.6017 8.09423 12.2618C8.43407 11.922 8.92626 11.922 9.27782 12.2618L15.1841 18.1798C15.4888 18.4845 15.9458 18.4376 16.227 18.1798C16.4966 17.8868 16.5434 17.4298 16.2388 17.1251L9.31298 10.1993C8.9497 9.84775 8.93798 9.34384 9.27782 9.004C9.60595 8.66415 10.1099 8.67587 10.4614 9.03915L17.3989 15.9767C17.6919 16.2579 18.1489 16.2462 18.4302 15.9532C18.7114 15.6837 18.7466 15.2032 18.4536 14.922L12.5474 9.01572C12.1841 8.65244 12.1841 8.17197 12.5239 7.83212C12.8638 7.48056 13.3442 7.49228 13.6958 7.85556L21.8638 16.0118C22.2622 16.422 22.7544 16.422 23.1059 16.0704C23.3989 15.7774 23.5161 15.3907 23.2817 14.7931L21.8169 10.9376C21.6177 10.422 21.8052 9.98837 22.2153 9.80087C22.6489 9.58994 23.0474 9.81259 23.3052 10.3634L26.0239 16.1056C27.8403 19.961 27.1255 22.7852 24.8169 25.1056Z" fill="black" fill-opacity="0.85"/>
 </g>
</svg>
