<?xml version="1.0" encoding="UTF-8"?>
<!--Generator: Apple Native CoreSVG 360-->
<!DOCTYPE svg
PUBLIC "-//W3C//DTD SVG 1.1//EN"
       "http://www.w3.org/Graphics/SVG/1.1/DTD/svg11.dtd">
<svg version="1.1" xmlns="http://www.w3.org/2000/svg" xmlns:xlink="http://www.w3.org/1999/xlink" viewBox="0 0 26.841 21.4285">
 <g>
  <rect height="21.4285" opacity="0" width="26.841" x="0" y="0"/>
  <path d="M2.95566 0.325592C1.63144 1.83731 0.611913 3.68887 0.037694 5.62247C-0.255275 6.642 1.24473 7.16934 1.59629 5.99747C2.10019 4.30997 3.00254 2.71622 4.17441 1.38028C4.94785 0.501374 3.7291-0.541595 2.95566 0.325592ZM2.95566 17.0834C3.7291 17.9623 4.94785 16.9193 4.17441 16.0287C3.00254 14.7045 2.10019 13.1107 1.59629 11.4232C1.24473 10.2397-0.255275 10.767 0.037694 11.7982C0.611913 13.7318 1.63144 15.5834 2.95566 17.0834Z" fill="black" fill-opacity="0.85"/>
  <path d="M20.9674 20.4701C25.6197 18.7943 27.3189 13.8373 26.1119 9.36075L25.1627 5.80997C24.4479 3.16153 22.8189 2.62247 20.651 3.32559L21.3658 4.66153C22.8072 4.1459 23.4049 5.11856 23.6158 5.892L24.5885 9.67715C25.5729 13.4506 24.3307 17.5053 20.4635 18.9232C17.1588 20.1186 13.0572 19.3334 10.0104 16.1225L5.95566 11.8334C5.0416 10.8725 6.11973 9.78262 7.20957 10.6615L9.20176 12.2553C10.6666 13.4272 11.7682 14.142 13.1041 14.142C15.5064 14.142 16.7955 12.56 16.7955 10.3803C16.7955 9.06778 16.0104 6.92325 15.1314 5.76309C14.3229 4.68497 13.3385 4.53262 11.6861 4.94278L8.86191 5.6459C7.6666 5.92715 7.1041 4.23965 8.34629 3.87637L12.4244 2.72794C15.026 1.98965 16.3854 3.54825 17.8033 5.86856C18.2604 6.61856 19.5025 6.10294 19.0338 5.22403C17.3697 2.16544 15.1197 0.360749 11.9557 1.32169L7.6666 2.61075C4.84238 3.4545 5.80332 7.93106 9.47129 7.02872L12.3072 6.33731C13.0221 6.16153 13.4322 6.22012 13.7721 6.65372C14.5689 7.73184 15.2838 9.5834 15.2838 10.4857C15.2838 11.81 14.5455 12.6772 12.8111 12.6772C11.9674 12.6772 11.2994 12.2318 10.315 11.3998L7.99473 9.44278C5.96738 7.72012 2.44004 10.2514 4.83066 12.8061L8.82676 17.0717C12.0729 20.5522 16.7955 21.9818 20.9674 20.4701ZM20.8854 5.31778C21.108 6.05606 22.3502 5.892 22.0689 4.91934C21.108 1.61465 17.9908 1.38028 16.2447 2.31778L17.1236 3.46622C18.2721 2.95059 20.2525 3.17325 20.8854 5.31778Z" fill="black" fill-opacity="0.85"/>
 </g>
</svg>
