<?xml version="1.0" encoding="UTF-8"?>
<!--Generator: Apple Native CoreSVG 360-->
<!DOCTYPE svg
PUBLIC "-//W3C//DTD SVG 1.1//EN"
       "http://www.w3.org/Graphics/SVG/1.1/DTD/svg11.dtd">
<svg version="1.1" xmlns="http://www.w3.org/2000/svg" xmlns:xlink="http://www.w3.org/1999/xlink" viewBox="0 0 21.4051 26.6836">
 <g>
  <rect height="26.6836" opacity="0" width="21.4051" x="0" y="0"/>
  <path d="M10.1576 25.5117C14.2709 25.5117 16.8959 23.168 18.7358 18.8906L21.185 13.1133C21.7475 11.8125 21.1616 10.6758 20.2241 10.1836C19.31 9.71484 18.0678 9.87891 17.2944 11.1328L16.1811 13.125C16.1459 13.1719 16.1225 13.207 16.0756 13.207C16.017 13.207 15.9701 13.1602 15.9936 13.0898L17.517 4.24219C17.7748 2.78906 17.0366 1.76953 15.7592 1.53516C14.3764 1.30078 13.2983 1.94531 13.0053 3.46875L12.6537 5.51953L12.7944 5.51953L12.7944 2.36719C12.7944 0.984375 11.8334 0 10.4975 0C9.10296 0 8.17718 1.01953 8.17718 2.44922L8.17718 3.94922L8.47015 3.89062L8.32952 2.95312C7.98968 1.66406 6.91155 1.11328 5.78655 1.3125C4.42718 1.54688 3.73577 2.68359 3.89983 4.03125L4.12249 5.95312L4.55608 5.85938C4.15765 4.58203 3.16155 4.17188 2.07171 4.37109C0.665459 4.61719 0.020928 5.625 0.231866 7.06641L1.79046 17.5195C2.52874 22.4883 5.20062 25.5117 10.1576 25.5117ZM10.0991 23.8945C5.95062 23.8945 4.0053 21.5273 3.34905 17.332L1.66155 6.80859C1.59124 6.32812 1.86077 5.94141 2.3178 5.85938C2.73968 5.78906 3.1264 6.07031 3.23187 6.50391L4.93108 12.8672C5.04827 13.3125 5.39983 13.4883 5.76312 13.418C6.16155 13.3594 6.43108 13.0078 6.38421 12.6094L5.3764 3.78516C5.3178 3.26953 5.55218 2.89453 6.03265 2.8125C6.51312 2.73047 6.89983 3.03516 6.97015 3.50391L8.1889 12.3516C8.23577 12.7266 8.57562 12.9727 8.98577 12.9141C9.48968 12.832 9.66546 12.5273 9.66546 12.1055L9.66546 2.36719C9.66546 1.875 10.0053 1.52344 10.4975 1.52344C10.9662 1.52344 11.3061 1.875 11.3061 2.36719L11.3061 12.2109C11.3061 12.6094 11.6459 12.9141 12.0326 12.9141C12.4311 12.9141 12.7123 12.6562 12.7826 12.2578L14.4467 3.72656C14.5522 3.16406 14.9506 2.92969 15.3959 3.01172C15.853 3.08203 16.1225 3.46875 16.0405 3.98438L14.3764 14.9531C14.2241 15.9492 14.7748 16.2891 15.267 16.2891C15.6889 16.2891 15.9819 16.0781 16.31 15.5156L18.3959 11.8125C18.642 11.3438 19.0873 11.2148 19.4506 11.3672C19.8491 11.5078 20.06 11.9297 19.8373 12.457L17.3061 18.3867C15.6303 22.2656 13.3686 23.8945 10.0991 23.8945Z" fill="black" fill-opacity="0.85"/>
 </g>
</svg>
