<?xml version="1.0" encoding="UTF-8"?>
<!--Generator: Apple Native CoreSVG 360-->
<!DOCTYPE svg
PUBLIC "-//W3C//DTD SVG 1.1//EN"
       "http://www.w3.org/Graphics/SVG/1.1/DTD/svg11.dtd">
<svg version="1.1" xmlns="http://www.w3.org/2000/svg" xmlns:xlink="http://www.w3.org/1999/xlink" viewBox="0 0 19.4883 24.7617">
 <g>
  <rect height="24.7617" opacity="0" width="19.4883" x="0" y="0"/>
  <path d="M8.27344 0.105469C3.31641 0.105469 0 3.43359 0 8.91797L0 11.4727C0 14.1797 1.27734 15.7617 3.45703 15.7852C3.72656 16.6406 4.42969 17.168 5.41406 17.168C5.76562 17.168 6.10547 17.1094 6.43359 16.9922C6.73828 17.9414 7.51172 18.5156 8.53125 18.5156C8.80078 18.5156 9.08203 18.4805 9.36328 18.3984L9.36328 22.3008C9.36328 23.7773 10.3477 24.7617 11.7305 24.7617C13.125 24.7617 14.1094 23.7773 14.1094 22.3008L14.1094 12.5156C14.1094 12.457 14.1445 12.4102 14.2031 12.4102C14.25 12.4102 14.2852 12.4453 14.2969 12.4922L15.082 14.3672C15.4805 15.2812 16.1602 15.7734 16.9922 15.7734C18.1289 15.7734 19.1367 15.0469 19.1367 13.7578C19.1367 13.4062 19.0664 12.9375 18.9258 12.5273L16.8633 6.72656C15.3047 2.33203 12.4102 0.105469 8.27344 0.105469ZM8.21484 1.72266C11.4961 1.72266 14.0039 3.23438 15.4336 7.23047L17.5078 13.0195C17.5664 13.1953 17.6016 13.3477 17.6016 13.5469C17.6016 13.957 17.2969 14.3086 16.8281 14.3086C16.4297 14.3086 16.1953 14.0625 16.0195 13.6641L14.4258 10.1016C14.168 9.51562 13.8047 9.32812 13.3945 9.32812C12.9023 9.32812 12.5508 9.71484 12.5508 10.2539L12.5508 22.4062C12.5508 22.8984 12.2109 23.25 11.7305 23.25C11.25 23.25 10.9219 22.8984 10.9219 22.4062L10.9219 13.7344C10.9219 13.3242 10.5703 13.0078 10.1602 13.0078C9.76172 13.0078 9.43359 13.3242 9.43359 13.7344L9.43359 16.8516C9.23438 16.9453 8.96484 17.0039 8.73047 17.0039C8.14453 17.0039 7.79297 16.6289 7.79297 16.0078L7.79297 13.2891C7.79297 12.8555 7.44141 12.5625 7.04297 12.5625C6.65625 12.5625 6.30469 12.8555 6.30469 13.2891L6.30469 15.5039C6.10547 15.5977 5.83594 15.6562 5.61328 15.6562C5.01562 15.6562 4.67578 15.2812 4.67578 14.6602L4.67578 12.832C4.67578 12.4102 4.3125 12.1172 3.91406 12.1172C3.52734 12.1172 3.1875 12.4102 3.1875 12.832L3.1875 14.1797C2.14453 14.1797 1.54688 13.1133 1.54688 11.2383L1.54688 9.10547C1.54688 4.39453 4.07812 1.72266 8.21484 1.72266Z" fill="black" fill-opacity="0.85"/>
 </g>
</svg>
