<?xml version="1.0" encoding="UTF-8"?>
<!--Generator: Apple Native CoreSVG 360-->
<!DOCTYPE svg
PUBLIC "-//W3C//DTD SVG 1.1//EN"
       "http://www.w3.org/Graphics/SVG/1.1/DTD/svg11.dtd">
<svg version="1.1" xmlns="http://www.w3.org/2000/svg" xmlns:xlink="http://www.w3.org/1999/xlink" viewBox="0 0 22.8954 22.9052">
 <g>
  <rect height="22.9052" opacity="0" width="22.8954" x="0" y="0"/>
  <path d="M19.9379 20.3178C22.8559 17.4116 23.3246 13.7788 21.3325 9.56L18.684 4.00531C18.5082 3.6186 18.2856 3.30219 18.0278 3.0561C17.1489 2.17719 15.8715 2.22406 15.016 3.06781C14.4535 3.64203 14.2778 4.4975 14.6528 5.435L15.4379 7.29828C15.4614 7.34516 15.4496 7.39203 15.4262 7.42719C15.3793 7.47406 15.3325 7.45063 15.2856 7.40375L8.64105 0.77094C7.68011-0.201716 6.46136-0.213435 5.53558 0.724065C5.19573 1.05219 5.00823 1.48578 4.9848 1.94281C4.03558 1.19281 2.96917 1.21625 2.13714 2.04828C1.34027 2.84516 1.31683 3.94672 2.01995 4.8725C1.58636 4.88422 1.18792 5.07172 0.883234 5.37641C0.0277657 6.22016 0.0512032 7.40375 0.976984 8.31781L1.89105 9.2436C1.44573 9.23188 0.976984 9.44281 0.613703 9.79438C-0.241766 10.6616-0.206609 11.892 0.742609 12.8178L7.85589 19.9428C11.7348 23.8217 16.434 23.8334 19.9379 20.3178ZM18.7543 19.2045C15.8246 22.1342 12.145 22.0522 8.81683 18.7123L1.94964 11.8452C1.58636 11.4936 1.56292 11.0131 1.91448 10.6733C2.25433 10.3334 2.74652 10.3334 3.1098 10.685L7.34027 14.9155C7.64495 15.2202 8.09027 15.185 8.3598 14.9155C8.64105 14.6342 8.69964 14.1772 8.39495 13.8608L2.06683 7.53266C1.70355 7.1811 1.68011 6.71235 2.03167 6.3725C2.3598 6.02094 2.85198 6.03266 3.21527 6.3725L9.12152 12.2905C9.4262 12.5952 9.87152 12.5483 10.1528 12.2788C10.434 11.9975 10.4809 11.5405 10.1762 11.2358L3.25042 4.29828C2.88714 3.94672 2.87542 3.45453 3.21527 3.11469C3.54339 2.77485 4.03558 2.78656 4.39886 3.13813L11.3364 10.0873C11.6293 10.3569 12.0746 10.3569 12.3559 10.0639C12.6489 9.79438 12.684 9.31391 12.391 9.03266L6.47308 3.11469C6.12152 2.76313 6.1098 2.28266 6.46136 1.94281C6.8012 1.59125 7.28167 1.60297 7.62152 1.95453L15.7895 10.1108C16.1996 10.5327 16.6918 10.5327 17.0317 10.1811C17.3246 9.88813 17.4535 9.50141 17.2192 8.89203L15.7543 5.03656C15.5551 4.52094 15.7309 4.09906 16.141 3.91156C16.5864 3.70063 16.9848 3.92328 17.2426 4.46235L19.9614 10.2163C21.766 14.06 21.0629 16.8959 18.7543 19.2045Z" fill="black" fill-opacity="0.85"/>
 </g>
</svg>
