<?xml version="1.0" encoding="UTF-8"?>
<!--Generator: Apple Native CoreSVG 360-->
<!DOCTYPE svg
PUBLIC "-//W3C//DTD SVG 1.1//EN"
       "http://www.w3.org/Graphics/SVG/1.1/DTD/svg11.dtd">
<svg version="1.1" xmlns="http://www.w3.org/2000/svg" xmlns:xlink="http://www.w3.org/1999/xlink" viewBox="0 0 42.2812 20.5898">
 <g>
  <rect height="20.5898" opacity="0" width="42.2812" x="0" y="0"/>
  <path d="M4.52344 18.3047C4.89844 17.8828 4.78125 17.332 4.35938 16.8516C2.78906 15.1055 1.91016 12.8086 1.91016 10.2891C1.91016 7.76953 2.78906 5.47266 4.35938 3.72656C4.78125 3.24609 4.89844 2.69531 4.52344 2.27344C4.14844 1.82812 3.49219 1.83984 3.04688 2.33203C1.10156 4.44141 0 7.25391 0 10.2891C0 13.3242 1.10156 16.125 3.04688 18.2461C3.49219 18.7383 4.14844 18.7383 4.52344 18.3047ZM37.4062 18.3047C37.7812 18.7383 38.4375 18.7383 38.8828 18.2461C40.8281 16.125 41.9297 13.3242 41.9297 10.2891C41.9297 7.25391 40.8281 4.44141 38.8828 2.33203C38.4375 1.83984 37.7812 1.82812 37.4062 2.27344C37.0312 2.69531 37.1484 3.24609 37.5703 3.72656C39.1406 5.47266 40.0195 7.76953 40.0195 10.2891C40.0195 12.8086 39.1406 15.1055 37.5703 16.8516C37.1484 17.332 37.0312 17.8828 37.4062 18.3047Z" fill="black" fill-opacity="0.85"/>
  <path d="M7.80469 14.9648C8.17969 14.543 8.02734 14.0156 7.65234 13.5117C6.94922 12.6328 6.60938 11.5078 6.60938 10.2891C6.60938 9.07031 6.94922 7.93359 7.65234 7.06641C8.02734 6.5625 8.17969 6.03516 7.80469 5.61328C7.41797 5.16797 6.71484 5.16797 6.30469 5.69531C5.28516 6.96094 4.69922 8.56641 4.69922 10.2891C4.69922 12.0117 5.28516 13.6172 6.30469 14.8828C6.71484 15.4102 7.41797 15.3984 7.80469 14.9648ZM34.125 14.9648C34.5117 15.3984 35.2148 15.4102 35.625 14.8828C36.6445 13.6172 37.2305 12.0117 37.2305 10.2891C37.2305 8.56641 36.6445 6.96094 35.625 5.69531C35.2148 5.16797 34.5117 5.16797 34.125 5.61328C33.75 6.03516 33.9023 6.5625 34.2773 7.06641C34.9805 7.93359 35.3203 9.07031 35.3203 10.2891C35.3203 11.5078 34.9805 12.6328 34.2773 13.5117C33.9023 14.0156 33.75 14.543 34.125 14.9648Z" fill="black" fill-opacity="0.85"/>
  <path d="M20.9648 20.5664C26.6484 20.5664 31.2539 15.9727 31.2539 10.2891C31.2539 4.60547 26.6484 0 20.9648 0C15.2812 0 10.6758 4.60547 10.6758 10.2891C10.6758 15.9727 15.2812 20.5664 20.9648 20.5664ZM20.9648 18.6797C16.3242 18.6797 12.5625 14.9297 12.5625 10.2891C12.5625 5.64844 16.3242 1.88672 20.9648 1.88672C25.6055 1.88672 29.3672 5.64844 29.3672 10.2891C29.3672 14.9297 25.6055 18.6797 20.9648 18.6797Z" fill="black" fill-opacity="0.85"/>
  <path d="M17.7656 8.14453L18.6094 8.14453L18.6094 7.40625C18.6094 6.14062 19.6172 5.19141 20.9297 5.19141C22.2539 5.19141 23.2617 6.14062 23.2617 7.40625L23.2617 8.14453L24.1055 8.14453L24.1055 7.40625C24.1055 5.66016 22.7344 4.34766 20.9297 4.34766C19.1367 4.34766 17.7656 5.66016 17.7656 7.40625ZM20.9297 10.5C22.6172 10.5 24.0938 9.84375 24.9492 8.10938C24.7266 7.99219 24.4688 7.94531 24.1641 7.94531L17.707 7.94531C17.4023 7.94531 17.1328 7.99219 16.9219 8.10938C17.7656 9.84375 19.2539 10.5 20.9297 10.5ZM26.1211 13.0664L25.6875 9.31641C25.6641 9.08203 25.6055 8.88281 25.5 8.71875C24.668 10.2539 23.3672 11.0273 21.9609 11.2734L21.9609 11.6133C21.9609 11.9648 21.75 12.1758 21.3984 12.1758L20.4727 12.1758C20.1211 12.1758 19.9102 11.9648 19.9102 11.6133L19.9102 11.2734C18.5039 11.0273 17.2031 10.2539 16.3594 8.71875C16.2656 8.88281 16.207 9.08203 16.1836 9.31641L15.7383 13.0664C15.5859 14.3789 16.1719 15.082 17.4023 15.082L24.4688 15.082C25.6992 15.082 26.2852 14.3789 26.1211 13.0664Z" fill="black" fill-opacity="0.85"/>
 </g>
</svg>
