<?xml version="1.0" encoding="UTF-8"?>
<!--Generator: Apple Native CoreSVG 360-->
<!DOCTYPE svg
PUBLIC "-//W3C//DTD SVG 1.1//EN"
       "http://www.w3.org/Graphics/SVG/1.1/DTD/svg11.dtd">
<svg version="1.1" xmlns="http://www.w3.org/2000/svg" xmlns:xlink="http://www.w3.org/1999/xlink" viewBox="0 0 26.5195 20.1705">
 <g>
  <rect height="20.1705" opacity="0" width="26.5195" x="0" y="0"/>
  <path d="M0 11.4036C0 16.6067 3.49219 20.0989 9.24609 20.0989L11.9297 20.0989C14.7656 20.0989 16.4297 18.7513 16.4531 16.4661C17.3672 16.1848 17.9062 15.4348 17.9062 14.4153C17.9062 14.0403 17.8359 13.677 17.7305 13.3372C18.7148 13.0208 19.3242 12.2005 19.3242 11.1341C19.3242 10.8528 19.2891 10.5598 19.1953 10.2669L23.2852 10.2669C24.8555 10.2669 25.875 9.23563 25.875 7.77078C25.875 6.30594 24.8555 5.27469 23.2852 5.27469L13.0312 5.27469C12.9727 5.27469 12.9258 5.25125 12.9258 5.18094C12.9258 5.13406 12.9492 5.08719 13.0078 5.07547L14.9766 4.25516C15.9375 3.845 16.4414 3.13016 16.4414 2.25125C16.4414 1.05594 15.6797 0.00125134 14.332 0.00125134C13.957-0.0104674 13.4648 0.0598451 13.043 0.223908L6.94922 2.39188C2.33203 4.0325 0 7.05594 0 11.4036ZM1.6875 11.4739C1.6875 8.0286 3.28125 5.39188 7.47656 3.89188L13.5586 1.71219C13.7344 1.64188 13.8984 1.61844 14.1094 1.61844C14.543 1.61844 14.9062 1.93485 14.9062 2.42703C14.9062 2.84891 14.6602 3.08328 14.2383 3.27078L10.4883 4.93485C9.87891 5.2161 9.67969 5.60281 9.67969 6.03641C9.67969 6.55203 10.0898 6.91531 10.6406 6.91531L23.4023 6.91531C23.9297 6.91531 24.293 7.26688 24.293 7.77078C24.293 8.28641 23.9297 8.62625 23.4023 8.62625L14.2969 8.62625C13.875 8.62625 13.5352 8.98953 13.5352 9.42313C13.5352 9.83328 13.875 10.1966 14.2969 10.1966L17.5781 10.1966C17.6719 10.3958 17.7422 10.6888 17.7422 10.9231C17.7422 11.5325 17.332 11.9192 16.6875 11.9192L13.8398 11.9192C13.3828 11.9192 13.0664 12.2825 13.0664 12.6927C13.0664 13.1028 13.3828 13.4661 13.8398 13.4661L16.1602 13.4661C16.2539 13.677 16.3125 13.97 16.3125 14.2044C16.3125 14.8255 15.9141 15.1888 15.2812 15.1888L13.3594 15.1888C12.9141 15.1888 12.5977 15.5755 12.5977 15.9856C12.5977 16.3958 12.9141 16.7473 13.3594 16.7473L14.7656 16.7473C14.7656 17.8489 13.6406 18.47 11.6836 18.47L9.44531 18.47C4.48828 18.47 1.6875 15.8216 1.6875 11.4739Z" fill="black" fill-opacity="0.85"/>
 </g>
</svg>
