<?xml version="1.0" encoding="UTF-8"?>
<!--Generator: Apple Native CoreSVG 360-->
<!DOCTYPE svg
PUBLIC "-//W3C//DTD SVG 1.1//EN"
       "http://www.w3.org/Graphics/SVG/1.1/DTD/svg11.dtd">
<svg version="1.1" xmlns="http://www.w3.org/2000/svg" xmlns:xlink="http://www.w3.org/1999/xlink" viewBox="0 0 34.3359 29.9883">
 <g>
  <rect height="29.9883" opacity="0" width="34.3359" x="0" y="0"/>
  <path d="M13.2422 22.8398C13.2422 26.1445 15.4102 28.9102 18.0352 28.9102L21.2461 28.9102C22.5469 29.5898 24.1055 29.9883 25.8398 29.9883L27.1992 29.9883C28.418 29.9883 29.4727 29.9297 30.1758 29.7422C31.5469 29.4258 32.4258 28.4297 32.4258 27.2227C32.4258 26.9883 32.3906 26.7422 32.332 26.5547C33 26.0273 33.3633 25.2773 33.3633 24.4688C33.3633 24.0938 33.293 23.6836 33.1641 23.3672C33.5977 22.9102 33.8438 22.2188 33.8438 21.5039C33.8438 21.0586 33.7617 20.5781 33.5625 20.2148C33.832 19.8047 33.9844 19.2539 33.9844 18.6797C33.9844 17.1797 32.8242 16.0078 31.3242 16.0078L27.6328 16.0078C27.4453 16.0078 27.3398 15.9258 27.3398 15.7734C27.3398 14.7422 28.9805 12.2695 28.9805 10.2656C28.9805 8.87109 28.0078 7.86328 26.6602 7.86328C25.6875 7.86328 25.0312 8.39062 24.375 9.62109C23.1914 11.9062 21.7969 13.8984 19.5 16.7109L17.6602 16.7109C15.2227 16.7109 13.2422 19.4531 13.2422 22.8398ZM19.0781 22.7812C19.0781 20.6836 19.5352 19.3711 20.8594 17.6016C22.3242 15.6328 24.3633 13.2891 25.8164 10.3477C26.1797 9.64453 26.3906 9.48047 26.7305 9.48047C27.1055 9.48047 27.3633 9.76172 27.3633 10.2656C27.3633 11.8242 25.7109 14.2148 25.7109 15.7734C25.7109 16.9219 26.6602 17.625 27.8438 17.625L31.3242 17.625C31.9219 17.625 32.3672 18.082 32.3672 18.6797C32.3672 19.1367 32.2383 19.3945 31.8633 19.7695C31.6641 19.957 31.6523 20.2031 31.8047 20.4258C32.1211 20.8828 32.2383 21.1406 32.2383 21.5039C32.2383 21.9609 32.0508 22.3008 31.6172 22.6523C31.3477 22.8398 31.2188 23.1328 31.3828 23.4609C31.6289 23.9297 31.7461 24.1406 31.7461 24.4688C31.7461 24.9609 31.4414 25.3242 30.75 25.6992C30.5039 25.8398 30.4336 26.0508 30.5391 26.2969C30.7734 26.8945 30.8086 26.9883 30.8086 27.2227C30.8086 27.6445 30.5039 27.9961 29.8008 28.1719C29.2148 28.3242 28.3125 28.3945 27.2109 28.3945L25.957 28.3945C21.8086 28.3945 19.0781 26.0391 19.0781 22.7812ZM14.8711 22.8398C14.8711 20.3438 16.207 18.3281 17.6602 18.3281C17.9297 18.3281 18.1758 18.3281 18.457 18.3281C17.7539 19.6875 17.4609 21.0703 17.4609 22.7578C17.4609 24.5391 18.0703 26.0859 19.1953 27.293C18.8086 27.293 18.4219 27.293 18.0352 27.293C16.3594 27.293 14.8711 25.2773 14.8711 22.8398Z" fill="black" fill-opacity="0.85"/>
  <path d="M20.0156 7.18359C20.0156 4.19531 18.1289 1.67578 15.6211 1.67578L13.957 1.67578C15.7852 3 16.5469 5.01562 16.5352 7.30078C16.5234 9.83203 15.5391 11.6484 14.6602 12.75L15.9844 12.75C18.2578 12.75 20.0156 10.3125 20.0156 7.18359ZM15.0117 7.27734C15.0117 3.5625 12.1055 0.703125 7.39453 0.703125L6.01172 0.703125C4.71094 0.703125 3.73828 0.796875 3.1875 0.949219C2.39062 1.13672 1.62891 1.62891 1.62891 2.58984C1.62891 2.96484 1.73438 3.25781 1.85156 3.46875C1.93359 3.59766 1.91016 3.71484 1.79297 3.76172C1.17188 4.01953 0.644531 4.60547 0.644531 5.40234C0.644531 5.88281 0.773438 6.26953 0.996094 6.55078C1.125 6.70312 1.10156 6.83203 0.914062 6.94922C0.46875 7.20703 0.140625 7.78125 0.140625 8.44922C0.140625 8.91797 0.292969 9.41016 0.5625 9.65625C0.714844 9.80859 0.703125 9.90234 0.527344 10.0547C0.210938 10.3242 0 10.7695 0 11.3555C0 12.3281 0.761719 13.1367 1.78125 13.1367L5.35547 13.1367C6.25781 13.1367 6.84375 13.5938 6.84375 14.3438C6.84375 15.6914 5.14453 18.1875 5.14453 19.9805C5.14453 20.9297 5.75391 21.4805 6.55078 21.4805C7.28906 21.4805 7.64062 20.9648 8.02734 20.2148C9.53906 17.2852 11.543 14.8945 13.0664 12.8672C14.3789 11.1562 15.0117 9.65625 15.0117 7.27734Z" fill="black" fill-opacity="0.85"/>
 </g>
</svg>
