<?xml version="1.0" encoding="UTF-8"?>
<!--Generator: Apple Native CoreSVG 360-->
<!DOCTYPE svg
PUBLIC "-//W3C//DTD SVG 1.1//EN"
       "http://www.w3.org/Graphics/SVG/1.1/DTD/svg11.dtd">
<svg version="1.1" xmlns="http://www.w3.org/2000/svg" xmlns:xlink="http://www.w3.org/1999/xlink" viewBox="0 0 22.892 22.9052">
 <g>
  <rect height="22.9052" opacity="0" width="22.892" x="0" y="0"/>
  <path d="M19.9363 20.3178C22.8542 17.4116 23.3347 13.7788 21.3191 9.57172L18.6824 4.00531C18.5066 3.63031 18.2722 3.30219 18.0261 3.0561C17.1472 2.18891 15.8699 2.23578 15.0144 3.07953C14.4519 3.64203 14.2761 4.4975 14.6628 5.435L15.4363 7.29828C15.448 7.34516 15.448 7.39203 15.4245 7.42719C15.3894 7.47406 15.3308 7.45063 15.2839 7.41547L8.63938 0.77094C7.67844-0.201716 6.45969-0.213435 5.53391 0.724065C5.19407 1.06391 4.99485 1.48578 4.98313 1.94281C4.03391 1.19281 2.96751 1.21625 2.13548 2.04828C1.3386 2.84516 1.31516 3.94672 2.00657 4.88422C1.58469 4.88422 1.18626 5.07172 0.881569 5.37641C0.0143816 6.2436 0.0495378 7.41547 0.9636 8.32953L1.88938 9.2436C1.43235 9.23188 0.975319 9.44281 0.623757 9.79438C-0.243431 10.6616-0.208275 11.892 0.740944 12.8178L7.84251 19.9428C11.7331 23.8217 16.4324 23.8334 19.9363 20.3178ZM18.7527 19.2163C15.823 22.1459 12.1433 22.0522 8.81516 18.7123L1.93626 11.8452C1.58469 11.4936 1.56126 11.0248 1.91282 10.6733C2.25266 10.3334 2.74485 10.3334 3.09641 10.685L7.3386 14.9155C7.64329 15.2319 8.0886 15.185 8.35813 14.9155C8.63938 14.6342 8.69798 14.1772 8.38157 13.8725L2.05344 7.53266C1.70188 7.1811 1.67844 6.71235 2.01829 6.3725C2.36985 6.03266 2.86204 6.03266 3.20188 6.38422L9.11985 12.2905C9.42454 12.5952 9.86985 12.56 10.1511 12.2788C10.4324 11.9975 10.4792 11.5405 10.1745 11.2358L3.23704 4.29828C2.88548 3.94672 2.87376 3.45453 3.2136 3.11469C3.54173 2.77485 4.03391 2.79828 4.38548 3.14985L11.3347 10.0873C11.6277 10.3803 12.073 10.3569 12.3542 10.0756C12.6472 9.79438 12.6824 9.32563 12.3894 9.03266L6.47141 3.11469C6.11985 2.76313 6.10813 2.28266 6.45969 1.94281C6.79954 1.59125 7.28001 1.61469 7.63157 1.95453L15.5417 9.87641C13.6316 12.3491 14.2761 14.81 15.5417 16.0756C15.8464 16.3803 16.2566 16.4038 16.5495 16.1225C16.8542 15.8178 16.8659 15.3959 16.5847 15.103C15.1081 13.6264 15.6355 11.5756 17.03 10.1811C17.323 9.88813 17.4402 9.50141 17.2175 8.90375L15.7527 5.06C15.5534 4.52094 15.7292 4.09906 16.1394 3.92328C16.573 3.71235 16.9831 3.92328 17.2409 4.47406L19.9597 10.228C21.7644 14.0717 21.0613 16.8959 18.7527 19.2163Z" fill="black" fill-opacity="0.85"/>
 </g>
</svg>
