<?xml version="1.0" encoding="UTF-8"?>
<!--Generator: Apple Native CoreSVG 360-->
<!DOCTYPE svg
PUBLIC "-//W3C//DTD SVG 1.1//EN"
       "http://www.w3.org/Graphics/SVG/1.1/DTD/svg11.dtd">
<svg version="1.1" xmlns="http://www.w3.org/2000/svg" xmlns:xlink="http://www.w3.org/1999/xlink" viewBox="0 0 25.9336 20.1702">
 <g>
  <rect height="20.1702" opacity="0" width="25.9336" x="0" y="0"/>
  <path d="M25.875 11.4034C25.875 7.05579 23.543 4.03235 18.9258 2.39173L12.832 0.223761C12.4102 0.0714169 11.918-0.0106143 11.5547 0.00110442C10.1953 0.00110442 9.43359 1.05579 9.43359 2.2511C9.44531 3.13001 9.94922 3.84485 10.8984 4.25501L12.8789 5.07532C12.9258 5.08704 12.9492 5.13392 12.9492 5.18079C12.9492 5.2511 12.9141 5.27454 12.8555 5.27454L2.58984 5.27454C1.01953 5.27454 0 6.30579 0 7.77064C0 9.23548 1.01953 10.2667 2.58984 10.2667L6.67969 10.2667C6.59766 10.5597 6.55078 10.8527 6.55078 11.1339C6.55078 12.2003 7.16016 13.0206 8.14453 13.337C8.03906 13.6769 7.96875 14.0402 7.96875 14.4152C7.96875 15.4347 8.51953 16.1847 9.42188 16.4659C9.44531 18.7511 11.1094 20.0988 13.9453 20.0988L16.6289 20.0988C22.3828 20.0988 25.875 16.6066 25.875 11.4034ZM24.1875 11.4738C24.1875 15.8214 21.3867 18.4699 16.4297 18.4699L14.1914 18.4699C12.2344 18.4699 11.1094 17.8488 11.1094 16.7472L12.5156 16.7472C12.9609 16.7472 13.2773 16.3956 13.2773 15.9855C13.2773 15.5753 12.9609 15.1886 12.5156 15.1886L10.5938 15.1886C9.96094 15.1886 9.5625 14.8253 9.5625 14.2042C9.5625 13.9699 9.62109 13.6769 9.72656 13.4659L12.0469 13.4659C12.5039 13.4659 12.8086 13.1027 12.8086 12.6925C12.8086 12.2824 12.5039 11.9191 12.0469 11.9191L9.1875 11.9191C8.54297 11.9191 8.13281 11.5324 8.13281 10.923C8.13281 10.6886 8.20312 10.3956 8.29688 10.1964L11.5781 10.1964C12 10.1964 12.3398 9.83314 12.3398 9.42298C12.3398 8.98939 12 8.6261 11.5781 8.6261L2.47266 8.6261C1.95703 8.6261 1.58203 8.28626 1.58203 7.77064C1.58203 7.26673 1.95703 6.91517 2.47266 6.91517L15.2344 6.91517C15.7852 6.91517 16.1953 6.55189 16.1953 6.03626C16.1953 5.60267 15.9961 5.21595 15.3867 4.9347L11.6367 3.27064C11.2266 3.09485 10.9688 2.84876 10.9688 2.42689C10.9688 1.9347 11.332 1.61829 11.7656 1.61829C11.9766 1.61829 12.1406 1.64173 12.3164 1.71204L18.3984 3.89173C22.5938 5.39173 24.1875 8.02845 24.1875 11.4738Z" fill="black" fill-opacity="0.85"/>
 </g>
</svg>
