<?xml version="1.0" encoding="UTF-8"?>
<!--Generator: Apple Native CoreSVG 360-->
<!DOCTYPE svg
PUBLIC "-//W3C//DTD SVG 1.1//EN"
       "http://www.w3.org/Graphics/SVG/1.1/DTD/svg11.dtd">
<svg version="1.1" xmlns="http://www.w3.org/2000/svg" xmlns:xlink="http://www.w3.org/1999/xlink" viewBox="0 0 34.3945 29.9648">
 <g>
  <rect height="29.9648" opacity="0" width="34.3945" x="0" y="0"/>
  <path d="M13.3008 22.8164C13.3008 26.1094 15.4688 28.8867 18.0938 28.8867L21.3047 28.8867C22.6055 29.5664 24.1641 29.9648 25.8984 29.9648L27.2578 29.9648C28.4766 29.9648 29.5312 29.8945 30.2344 29.7188C31.6055 29.3906 32.4844 28.4062 32.4844 27.1875C32.4844 26.9531 32.4492 26.7188 32.3906 26.5312C33.0469 26.0156 33.4219 25.2422 33.4219 24.4336C33.4219 24.0703 33.3516 23.6602 33.2227 23.3438C33.6562 22.8867 33.9023 22.1836 33.9023 21.4805C33.9023 21.0352 33.8203 20.5547 33.6211 20.1914C33.8906 19.7812 34.043 19.2305 34.043 18.6562C34.043 17.1562 32.8828 15.9844 31.3828 15.9844L27.6914 15.9844C27.5039 15.9844 27.3984 15.9023 27.3984 15.75C27.3984 14.7188 29.0391 12.2461 29.0391 10.2305C29.0391 8.83594 28.0664 7.83984 26.7188 7.83984C25.7461 7.83984 25.0898 8.35547 24.4336 9.59766C23.25 11.8828 21.8555 13.875 19.5586 16.6875L17.7188 16.6875C15.2812 16.6875 13.3008 19.4297 13.3008 22.8164ZM19.1367 22.7461C19.1367 20.6602 19.5938 19.3477 20.918 17.5781C22.3828 15.6094 24.4219 13.2539 25.875 10.3242C26.2383 9.62109 26.4492 9.45703 26.7891 9.45703C27.1641 9.45703 27.4219 9.73828 27.4219 10.2305C27.4219 11.8008 25.7695 14.1914 25.7695 15.75C25.7695 16.8867 26.7188 17.6016 27.9023 17.6016L31.3828 17.6016C31.9805 17.6016 32.4258 18.0469 32.4258 18.6562C32.4258 19.1016 32.2969 19.3594 31.9219 19.7461C31.7227 19.9219 31.7109 20.1797 31.8633 20.4023C32.1797 20.8477 32.2969 21.1055 32.2969 21.4805C32.2969 21.9258 32.1094 22.2773 31.6758 22.6289C31.4062 22.8164 31.2773 23.1094 31.4414 23.4375C31.6875 23.8945 31.8047 24.1172 31.8047 24.4336C31.8047 24.9375 31.5 25.3008 30.8086 25.6758C30.5625 25.8047 30.4922 26.0273 30.5977 26.2734C30.832 26.8711 30.8672 26.9531 30.8672 27.1875C30.8672 27.6328 30.5625 27.9727 29.8594 28.1484C29.2734 28.3008 28.3711 28.3594 27.2695 28.3594L26.0156 28.3594C21.8672 28.3594 19.1367 26.0156 19.1367 22.7461ZM14.9297 22.8164C14.9297 20.3203 16.2656 18.3047 17.7188 18.3047C17.9883 18.3047 18.2344 18.3047 18.5156 18.3047C17.8125 19.6523 17.5078 21.0469 17.5078 22.7344C17.5078 24.5039 18.1289 26.0625 19.2539 27.2578C18.8672 27.2578 18.4805 27.2578 18.0938 27.2578C16.418 27.2578 14.9297 25.2539 14.9297 22.8164Z" fill="black" fill-opacity="0.85"/>
  <path d="M20.7422 7.16016C20.7422 3.86719 18.5742 1.07812 15.9492 1.07812L12.7383 1.07812C11.4375 0.398438 9.87891 0.0117188 8.14453 0.0117188L6.78516 0.0117188C5.56641 0.0117188 4.51172 0.0585938 3.80859 0.246094C2.4375 0.574219 1.55859 1.55859 1.55859 2.76562C1.55859 3.01172 1.58203 3.24609 1.65234 3.44531C0.996094 3.96094 0.621094 4.72266 0.621094 5.53125C0.621094 5.90625 0.691406 6.31641 0.820312 6.63281C0.386719 7.08984 0.128906 7.78125 0.128906 8.48438C0.128906 8.92969 0.222656 9.42188 0.421875 9.77344C0.152344 10.1953 0 10.7461 0 11.3203C0 12.8086 1.16016 13.9922 2.66016 13.9922L6.35156 13.9922C6.53906 13.9922 6.64453 14.0742 6.64453 14.2266C6.64453 15.2578 5.00391 17.7305 5.00391 19.7461C5.00391 21.1172 5.97656 22.1367 7.32422 22.1367C8.29688 22.1367 8.95312 21.6211 9.60938 20.3789C10.793 18.0938 12.1875 16.1016 14.4727 13.2891L16.3242 13.2891C18.7617 13.2891 20.7422 10.5352 20.7422 7.16016ZM14.9062 7.23047C14.9062 9.31641 14.4492 10.6289 13.125 12.3984C11.6602 14.3672 9.62109 16.7109 8.16797 19.6523C7.80469 20.3555 7.59375 20.5195 7.25391 20.5195C6.87891 20.5195 6.62109 20.2383 6.62109 19.7461C6.62109 18.1641 8.27344 15.7852 8.27344 14.2266C8.27344 13.0781 7.32422 12.375 6.14062 12.375L2.66016 12.375C2.0625 12.375 1.61719 11.9297 1.61719 11.3203C1.61719 10.8633 1.74609 10.5938 2.10938 10.2188C2.32031 10.043 2.33203 9.79688 2.17969 9.57422C1.86328 9.12891 1.73438 8.87109 1.73438 8.48438C1.73438 8.05078 1.93359 7.69922 2.36719 7.34766C2.63672 7.16016 2.76562 6.85547 2.60156 6.53906C2.35547 6.07031 2.23828 5.85938 2.23828 5.53125C2.23828 5.03906 2.54297 4.67578 3.23438 4.30078C3.48047 4.17188 3.55078 3.94922 3.44531 3.69141C3.21094 3.10547 3.17578 3.02344 3.17578 2.76562C3.17578 2.35547 3.48047 1.99219 4.18359 1.82812C4.76953 1.66406 5.67188 1.60547 6.77344 1.61719L8.02734 1.61719C12.1758 1.61719 14.9062 3.96094 14.9062 7.23047ZM19.1133 7.16016C19.1133 9.65625 17.7773 11.6719 16.3242 11.6719C16.0547 11.6719 15.7969 11.6719 15.5273 11.6719C16.2305 10.3242 16.5234 8.91797 16.5234 7.24219C16.5234 5.47266 15.9141 3.90234 14.7891 2.70703C15.1758 2.70703 15.5625 2.70703 15.9492 2.70703C17.625 2.70703 19.1133 4.72266 19.1133 7.16016Z" fill="black" fill-opacity="0.85"/>
 </g>
</svg>
