<?xml version="1.0" encoding="UTF-8"?>
<!--Generator: Apple Native CoreSVG 360-->
<!DOCTYPE svg
PUBLIC "-//W3C//DTD SVG 1.1//EN"
       "http://www.w3.org/Graphics/SVG/1.1/DTD/svg11.dtd">
<svg version="1.1" xmlns="http://www.w3.org/2000/svg" xmlns:xlink="http://www.w3.org/1999/xlink" viewBox="0 0 27.2812 32.1211">
 <g>
  <rect height="32.1211" opacity="0" width="27.2812" x="0" y="0"/>
  <path d="M5.25 10.5117C5.25 10.0898 4.89844 9.75 4.47656 9.75L0.773438 9.75C0.339844 9.75 0 10.0898 0 10.5117C0 10.9336 0.339844 11.2852 0.773438 11.2852L4.47656 11.2852C4.89844 11.2852 5.25 10.9336 5.25 10.5117ZM6.76172 6.80859C7.05469 6.50391 7.06641 6.01172 6.76172 5.71875L4.14844 3.07031C3.84375 2.77734 3.36328 2.78906 3.05859 3.07031C2.76562 3.38672 2.75391 3.86719 3.05859 4.16016L5.67188 6.80859C5.98828 7.10156 6.45703 7.08984 6.76172 6.80859ZM10.5234 5.25C10.9453 5.25 11.2852 4.89844 11.2852 4.47656L11.2969 0.761719C11.2969 0.339844 10.9453 0 10.5234 0C10.1016 0 9.76172 0.339844 9.76172 0.761719L9.75 4.47656C9.75 4.89844 10.1016 5.25 10.5234 5.25ZM14.2852 6.80859C14.5898 7.08984 15.0586 7.10156 15.3633 6.80859L17.9883 4.17188C18.293 3.87891 18.2812 3.38672 17.9883 3.08203C17.6836 2.80078 17.2031 2.78906 16.8984 3.08203L14.2852 5.71875C13.9805 6.01172 13.9922 6.50391 14.2852 6.80859Z" fill="black" fill-opacity="0.85"/>
  <path d="M21.4688 29.9883C26.1211 28.3008 28.1016 24.0234 26.2383 18.8789L25.3594 16.4648C24.4336 13.9336 22.6875 12.8906 20.6367 13.6055C20.0977 12.8906 19.2422 12.6445 18.3281 12.9727C17.9883 13.1016 17.6953 13.2656 17.4141 13.4883C16.8164 12.7031 15.8906 12.4219 14.9297 12.7734C14.6719 12.8672 14.4258 13.0078 14.1914 13.1719L12.8555 9.51562C12.3516 8.12109 11.0977 7.53516 9.78516 8.00391C8.47266 8.48438 7.88672 9.73828 8.39062 11.1328L11.7422 20.3203C11.7539 20.3789 11.7422 20.4258 11.6836 20.4492C11.6367 20.4609 11.6016 20.4492 11.5664 20.4023L10.1953 18.9141C9.50391 18.1875 8.70703 17.9766 7.91016 18.2578C6.84375 18.6328 6.14062 19.6641 6.58594 20.8711C6.70312 21.2109 6.94922 21.6211 7.20703 21.9492L11.1328 26.6953C14.1094 30.293 17.5781 31.4062 21.4688 29.9883ZM20.9648 28.4531C17.8945 29.5781 15.0117 29.0039 12.3047 25.7344L8.37891 21.0117C8.26172 20.8711 8.17969 20.7422 8.10938 20.543C7.96875 20.1562 8.13281 19.7344 8.58984 19.5703C8.95312 19.4414 9.24609 19.582 9.53906 19.8984L12.2578 22.6875C12.7148 23.1562 13.1133 23.2031 13.5 23.0742C13.957 22.8984 14.1562 22.418 13.9805 21.9141L9.82031 10.5C9.64453 10.0312 9.84375 9.59766 10.3125 9.42188C10.7578 9.25781 11.1914 9.46875 11.3555 9.94922L14.3203 18.0938C14.4727 18.4805 14.8945 18.6445 15.2812 18.5039C15.6562 18.375 15.8672 17.9648 15.7266 17.5781L14.6484 14.6484C14.8125 14.4961 15.0352 14.332 15.2578 14.2734C15.8086 14.0625 16.2656 14.2969 16.4766 14.8828L17.4023 17.4375C17.5547 17.8477 17.9883 18 18.3633 17.8711C18.7383 17.7305 18.9609 17.3438 18.8086 16.9336L18.0469 14.8477C18.1992 14.6953 18.4336 14.543 18.6445 14.4609C19.207 14.2617 19.6641 14.4961 19.875 15.0703L20.5078 16.8047C20.6484 17.2031 21.082 17.3555 21.457 17.2148C21.8203 17.0859 22.043 16.6875 21.9023 16.2891L21.4453 15.0234C22.418 14.6602 23.332 15.4688 23.9766 17.2266L24.7031 19.2305C26.3203 23.6602 24.8672 27.0234 20.9648 28.4531Z" fill="black" fill-opacity="0.85"/>
 </g>
</svg>
