<?xml version="1.0" encoding="UTF-8"?>
<!--Generator: Apple Native CoreSVG 360-->
<!DOCTYPE svg
PUBLIC "-//W3C//DTD SVG 1.1//EN"
       "http://www.w3.org/Graphics/SVG/1.1/DTD/svg11.dtd">
<svg version="1.1" xmlns="http://www.w3.org/2000/svg" xmlns:xlink="http://www.w3.org/1999/xlink" viewBox="0 0 27.3398 33.3164">
 <g>
  <rect height="33.3164" opacity="0" width="27.3398" x="0" y="0"/>
  <path d="M3.65625 24.7852C4.13672 27.0703 4.07812 27.1172 6.46875 27.5977C6.64453 27.6328 6.73828 27.7148 6.73828 27.8906C6.73828 28.0664 6.64453 28.1484 6.46875 28.1953C4.06641 28.6523 4.07812 28.6992 3.65625 30.9961C3.63281 31.1602 3.53906 31.2656 3.36328 31.2656C3.19922 31.2656 3.11719 31.1602 3.07031 30.9961C2.63672 28.6992 2.68359 28.6641 0.269531 28.1953C0.105469 28.1484 0 28.0664 0 27.8906C0 27.7148 0.105469 27.6328 0.269531 27.5977C2.68359 27.1172 2.58984 27.0703 3.07031 24.7852C3.11719 24.6211 3.19922 24.5156 3.36328 24.5156C3.53906 24.5156 3.63281 24.6211 3.65625 24.7852ZM17.9414 0.761719C18.2812 3.51562 18.4336 3.50391 21.2578 4.04297C21.4453 4.07812 21.5742 4.19531 21.5742 4.38281C21.5742 4.58203 21.4453 4.69922 21.2109 4.72266C18.4102 5.19141 18.2812 5.26172 17.9414 8.01562C17.9297 8.22656 17.7773 8.35547 17.5898 8.35547C17.4141 8.35547 17.2734 8.22656 17.2617 8.03906C16.875 5.27344 16.8047 5.28516 13.9336 4.72266C13.7461 4.69922 13.6172 4.57031 13.6172 4.38281C13.6172 4.19531 13.7461 4.06641 13.9336 4.04297C16.8047 3.63281 16.8867 3.55078 17.2617 0.75C17.2734 0.550781 17.4141 0.421875 17.5898 0.421875C17.7773 0.421875 17.9297 0.550781 17.9414 0.761719ZM10.0195 0.234375C10.3828 1.95703 10.3359 1.96875 12.1055 2.32031C12.2578 2.35547 12.3516 2.44922 12.3516 2.60156C12.3516 2.74219 12.2578 2.83594 12.1055 2.87109C10.3359 3.19922 10.3359 3.21094 10.0195 4.96875C9.98438 5.12109 9.87891 5.19141 9.75 5.19141C9.60938 5.19141 9.50391 5.10938 9.48047 4.96875C9.14062 3.21094 9.16406 3.22266 7.38281 2.87109C7.23047 2.83594 7.13672 2.73047 7.13672 2.60156C7.13672 2.46094 7.23047 2.35547 7.38281 2.32031C9.16406 1.96875 9.10547 1.95703 9.48047 0.234375C9.50391 0.09375 9.60938 0 9.75 0C9.89062 0 9.98438 0.0820312 10.0195 0.234375Z" fill="black" fill-opacity="0.85"/>
  <path d="M22.4766 9.59766C22.7344 9.84375 22.957 10.1484 23.1328 10.5469L25.7812 16.1016C27.7734 20.3203 27.3164 23.9531 24.3867 26.8594C22.9299 28.3211 21.261 29.173 19.5279 29.3785C20.177 28.9973 20.7991 28.5056 21.3867 27.9141C21.9712 27.3319 22.4574 26.7207 22.8406 26.0801C22.9639 25.9791 23.0841 25.8651 23.2031 25.7461C25.5117 23.4375 26.2148 20.6016 24.4102 16.7578L21.6914 11.0039C21.4336 10.4648 21.0352 10.2422 20.6016 10.4531C20.1797 10.6406 20.0039 11.0625 20.2031 11.5781L20.526 12.428L20.1328 11.6016C19.957 11.2148 19.7344 10.9102 19.4766 10.6523C19.3364 10.5122 19.1864 10.3956 19.029 10.3046C19.1246 10.0439 19.2764 9.80956 19.4766 9.60938C20.332 8.76562 21.5977 8.71875 22.4766 9.59766ZM13.0898 7.3125L16.471 10.6817C16.0481 11.099 15.8436 11.6762 15.9196 12.3281L12.082 8.49609C11.7305 8.14453 11.25 8.13281 10.9102 8.47266C10.7695 8.61335 10.6869 8.77469 10.6629 8.94022L10.0898 8.36719C9.91722 8.19246 9.73628 8.04912 9.55 7.93814C9.63921 7.68822 9.78926 7.45867 9.99609 7.26562C10.9102 6.32812 12.1289 6.33984 13.0898 7.3125ZM6.98438 8.32031C6.64453 8.64844 6.45703 9.09375 6.44531 9.53906C6.33397 9.45352 6.22121 9.37805 6.10746 9.31386C6.20793 9.05557 6.36806 8.81098 6.58594 8.58984C6.7638 8.41198 6.95238 8.27107 7.1488 8.16905Z" fill="black" fill-opacity="0.85"/>
  <path d="M21.3867 27.9141C24.3047 25.0078 24.7734 21.375 22.7812 17.168L20.1328 11.6016C19.957 11.2148 19.7344 10.9102 19.4766 10.6523C18.5977 9.77344 17.332 9.82031 16.4766 10.6758C15.9023 11.2383 15.7266 12.0938 16.1016 13.0312L16.8867 14.8945C16.9102 14.9414 16.8984 15 16.875 15.0234C16.8281 15.0703 16.7812 15.0586 16.7344 15.0117L10.0898 8.36719C9.12891 7.39453 7.91016 7.39453 6.98438 8.32031C6.64453 8.64844 6.45703 9.09375 6.44531 9.53906C5.48438 8.80078 4.41797 8.8125 3.58594 9.64453C2.78906 10.4414 2.76562 11.543 3.46875 12.4688C3.04688 12.4922 2.64844 12.668 2.33203 12.9727C1.47656 13.8281 1.5 15 2.42578 15.9141L3.33984 16.8398C2.89453 16.8281 2.42578 17.0391 2.0625 17.3906C1.21875 18.2578 1.25391 19.4883 2.19141 20.4141L9.30469 27.5391C13.1836 31.418 17.8945 31.4297 21.3867 27.9141ZM20.2031 26.8125C17.2734 29.7422 13.5938 29.6484 10.2656 26.3086L3.39844 19.4531C3.03516 19.0898 3.02344 18.6094 3.36328 18.2812C3.70312 17.9297 4.19531 17.9297 4.55859 18.2812L8.78906 22.5117C9.09375 22.8281 9.53906 22.7812 9.80859 22.5117C10.1016 22.2305 10.1484 21.7734 9.84375 21.4688L3.51562 15.1289C3.15234 14.7773 3.12891 14.3086 3.48047 13.9688C3.80859 13.6289 4.30078 13.6289 4.66406 13.9688L10.5703 19.8867C10.875 20.1914 11.332 20.1445 11.6016 19.8867C11.8828 19.5938 11.9297 19.1367 11.625 18.832L4.69922 11.9062C4.33594 11.5547 4.32422 11.0508 4.66406 10.7109C4.99219 10.3711 5.48438 10.3828 5.84766 10.7461L12.7852 17.6836C13.0781 17.9648 13.5352 17.9531 13.8047 17.6602C14.0977 17.3906 14.1328 16.9102 13.8398 16.6289L7.92188 10.7227C7.57031 10.3594 7.55859 9.87891 7.91016 9.53906C8.25 9.1875 8.73047 9.19922 9.08203 9.5625L17.2383 17.7188C17.6484 18.1289 18.1406 18.1289 18.4922 17.7773C18.7734 17.4844 18.9023 17.0977 18.668 16.5L17.2031 12.6445C17.0039 12.1289 17.1797 11.6953 17.6016 11.5078C18.0352 11.2969 18.4336 11.5195 18.6914 12.0703L21.4102 17.8125C23.2148 21.668 22.5117 24.4922 20.2031 26.8125Z" fill="black" fill-opacity="0.85"/>
 </g>
</svg>
