<?xml version="1.0" encoding="UTF-8"?>
<!--Generator: Apple Native CoreSVG 360-->
<!DOCTYPE svg
PUBLIC "-//W3C//DTD SVG 1.1//EN"
       "http://www.w3.org/Graphics/SVG/1.1/DTD/svg11.dtd">
<svg version="1.1" xmlns="http://www.w3.org/2000/svg" xmlns:xlink="http://www.w3.org/1999/xlink" viewBox="0 0 20.8405 22.885">
 <g>
  <rect height="22.885" opacity="0" width="20.8405" x="0" y="0"/>
  <path d="M15.014 22.2882C19.6664 20.6007 21.6468 16.3351 19.7835 11.1788L18.9046 8.77647C17.9789 6.2335 16.2328 5.19053 14.1937 5.90537C13.6429 5.19053 12.7992 4.94443 11.8734 5.28428C11.5335 5.40147 11.2406 5.57725 10.9593 5.78818C10.3617 5.00303 9.43588 4.72178 8.47494 5.07334C8.21713 5.16709 7.97104 5.30772 7.73666 5.47178L6.41244 1.81553C5.89682 0.420997 4.64291-0.164941 3.34213 0.303809C2.02963 0.784278 1.44369 2.03818 1.93588 3.43272L5.28744 12.6202C5.29916 12.6788 5.28744 12.7257 5.22885 12.7491C5.18198 12.7726 5.14682 12.7491 5.11166 12.7022L3.74057 11.214C3.06088 10.4874 2.25229 10.2765 1.46713 10.5577C0.389007 10.9444-0.302399 11.964 0.131195 13.171C0.248382 13.5108 0.494476 13.9327 0.752289 14.2491L4.67807 18.9952C7.65463 22.5929 11.1234 23.7062 15.014 22.2882ZM14.5218 20.753C11.4398 21.878 8.55698 21.3038 5.84994 18.0343L1.93588 13.3116C1.80698 13.171 1.72494 13.0421 1.65463 12.8546C1.51401 12.4679 1.67807 12.046 2.1351 11.8819C2.49838 11.7413 2.80307 11.8819 3.09604 12.1983L5.80307 14.9991C6.2601 15.4679 6.65854 15.5147 7.04526 15.3741C7.51401 15.1983 7.70151 14.7296 7.52573 14.214L3.36557 2.7999C3.18979 2.34287 3.40073 1.89756 3.85776 1.72178C4.31479 1.56943 4.73666 1.76865 4.90073 2.24912L7.86557 10.3937C8.01791 10.7804 8.45151 10.9562 8.82651 10.8038C9.20151 10.6749 9.41244 10.2647 9.27182 9.87803L8.19369 6.94834C8.35776 6.796 8.58041 6.64365 8.81479 6.57334C9.35385 6.37412 9.81088 6.6085 10.0218 7.18272L10.9593 9.7374C11.1117 10.1476 11.5453 10.2999 11.9085 10.171C12.2835 10.0304 12.5062 9.64365 12.3539 9.24522L11.6039 7.14756C11.7562 6.99522 11.9906 6.84287 12.2015 6.76084C12.7523 6.56162 13.221 6.796 13.432 7.38193L14.0531 9.10459C14.1937 9.50303 14.639 9.65537 15.014 9.51475C15.3656 9.38584 15.5882 8.9874 15.4476 8.58897L14.9906 7.32334C15.9632 6.97178 16.889 7.78037 17.5335 9.52647L18.2601 11.5304C19.8656 15.9601 18.4124 19.3351 14.5218 20.753Z" fill="black" fill-opacity="0.85"/>
 </g>
</svg>
