<?xml version="1.0" encoding="UTF-8"?>
<!--Generator: Apple Native CoreSVG 360-->
<!DOCTYPE svg
PUBLIC "-//W3C//DTD SVG 1.1//EN"
       "http://www.w3.org/Graphics/SVG/1.1/DTD/svg11.dtd">
<svg version="1.1" xmlns="http://www.w3.org/2000/svg" xmlns:xlink="http://www.w3.org/1999/xlink" viewBox="0 0 22.6523 29.8008">
 <g>
  <rect height="29.8008" opacity="0" width="22.6523" x="0" y="0"/>
  <path d="M5.85938 0C2.625 0 0 2.625 0 5.85938C0 7.25391 0.492188 8.54297 1.30078 9.55078C1.5 9.79688 1.73438 9.89062 1.95703 9.89062C2.53125 9.89062 3.02344 9.21094 2.53125 8.625C1.89844 7.875 1.53516 6.91406 1.53516 5.85938C1.53516 3.46875 3.46875 1.53516 5.85938 1.53516C8.25 1.53516 10.1719 3.46875 10.1719 5.85938C10.1719 5.92969 10.1719 6 10.1719 6.10547C10.1836 6.63281 10.5469 6.86719 10.9219 6.86719C11.2852 6.86719 11.6602 6.60938 11.6953 6.19922C11.707 6.11719 11.707 6.01172 11.707 5.85938C11.707 2.625 9.09375 0 5.85938 0Z" fill="black" fill-opacity="0.85"/>
  <path d="M16.8281 25.7461C21.4805 24.0586 23.4609 19.793 21.5977 14.6367L20.7188 12.2344C19.793 9.69141 18.0469 8.64844 16.0078 9.36328C15.457 8.64844 14.6133 8.40234 13.6875 8.74219C13.3477 8.85938 13.0547 9.03516 12.7734 9.24609C12.1758 8.46094 11.25 8.17969 10.2891 8.53125C10.0312 8.625 9.78516 8.76562 9.55078 8.92969L8.22656 5.27344C7.71094 3.87891 6.45703 3.29297 5.15625 3.76172C3.84375 4.24219 3.25781 5.49609 3.75 6.89062L7.10156 16.0781C7.11328 16.1367 7.10156 16.1836 7.04297 16.207C6.99609 16.2305 6.96094 16.207 6.92578 16.1602L5.55469 14.6719C4.875 13.9453 4.06641 13.7344 3.28125 14.0156C2.21484 14.4023 1.51172 15.4219 1.95703 16.6289C2.0625 16.9688 2.30859 17.3906 2.56641 17.707L6.49219 22.4531C9.46875 26.0508 12.9375 27.1641 16.8281 25.7461ZM16.3359 24.2109C13.2539 25.3359 10.3711 24.7617 7.66406 21.4922L3.75 16.7695C3.62109 16.6289 3.53906 16.5 3.46875 16.3125C3.32812 15.9258 3.49219 15.5039 3.94922 15.3398C4.3125 15.1992 4.61719 15.3398 4.91016 15.6562L7.61719 18.457C8.07422 18.9258 8.47266 18.9727 8.87109 18.832C9.32812 18.6562 9.52734 18.1875 9.33984 17.6719L5.17969 6.25781C5.00391 5.80078 5.21484 5.35547 5.67188 5.17969C6.12891 5.02734 6.55078 5.22656 6.71484 5.70703L9.69141 13.8516C9.83203 14.2383 10.2656 14.4141 10.6406 14.2617C11.0156 14.1328 11.2266 13.7227 11.0859 13.3359L10.0078 10.4062C10.1719 10.2539 10.3945 10.1016 10.6289 10.0312C11.168 9.83203 11.625 10.0664 11.8359 10.6406L12.7734 13.1953C12.9258 13.6055 13.3594 13.7578 13.7227 13.6289C14.0977 13.4883 14.3203 13.1016 14.168 12.7031L13.418 10.6055C13.5703 10.4531 13.8047 10.3008 14.0156 10.2188C14.5664 10.0195 15.0352 10.2539 15.2461 10.8398L15.8672 12.5625C16.0078 12.9609 16.4531 13.1133 16.8281 12.9727C17.1797 12.8438 17.4023 12.4453 17.2617 12.0469L16.8047 10.7812C17.7773 10.4297 18.7031 11.2383 19.3477 12.9844L20.0742 14.9883C21.6797 19.418 20.2266 22.793 16.3359 24.2109Z" fill="black" fill-opacity="0.85"/>
 </g>
</svg>
