<?xml version="1.0" encoding="UTF-8"?>
<!--Generator: Apple Native CoreSVG 360-->
<!DOCTYPE svg
PUBLIC "-//W3C//DTD SVG 1.1//EN"
       "http://www.w3.org/Graphics/SVG/1.1/DTD/svg11.dtd">
<svg version="1.1" xmlns="http://www.w3.org/2000/svg" xmlns:xlink="http://www.w3.org/1999/xlink" viewBox="0 0 28.9851 26.087">
 <g>
  <rect height="26.087" opacity="0" width="28.9851" x="0" y="0"/>
  <path d="M7.34998 5.58451L7.50304 6.00301C4.02922 8.47744 2.79481 11.8009 2.70935 15.358C2.69763 15.7798 2.40467 16.0962 1.99451 16.108C1.59607 16.1197 1.24451 15.7564 1.24451 15.3345C1.24451 11.0962 2.97775 7.08903 7.09461 4.45895C7.12555 4.82715 7.21076 5.20465 7.34998 5.58451Z" fill="black" fill-opacity="0.85"/>
  <path d="M21.9398 23.8892C26.5922 22.2017 28.5726 17.9361 26.6976 12.7798L25.8187 10.3775C24.9047 7.83451 23.1586 6.79154 21.1078 7.50639C20.557 6.79154 19.7133 6.54545 18.7992 6.87358C18.4594 7.00248 18.1547 7.17826 17.8851 7.3892C17.2875 6.61576 16.3617 6.32279 15.4008 6.67436C15.1429 6.76811 14.8969 6.90873 14.6625 7.07279L13.3265 3.41654C12.8226 2.02201 11.557 1.43608 10.2562 1.90483C8.94373 2.38529 8.35779 3.6392 8.8617 5.03373L12.2015 14.2212C12.225 14.2798 12.2133 14.3267 12.1547 14.3501C12.1078 14.3619 12.0726 14.3501 12.0375 14.3033L10.6547 12.815C9.97498 12.0884 9.16638 11.8658 8.38123 12.147C7.31482 12.5455 6.62342 13.565 7.05701 14.772C7.1742 15.1119 7.40857 15.522 7.6781 15.8619L11.6039 20.5962C14.5687 24.1939 18.0492 25.3072 21.9398 23.8892ZM21.4359 22.354C18.3656 23.479 15.4828 22.9048 12.7758 19.6353L8.84998 14.9126C8.73279 14.772 8.65076 14.6431 8.58045 14.4439C8.43982 14.0689 8.60388 13.6353 9.0492 13.4712C9.4242 13.3423 9.71717 13.483 10.0219 13.7994L12.7289 16.6001C13.1859 17.0689 13.5844 17.1158 13.9711 16.9751C14.4398 16.8111 14.6273 16.3189 14.4398 15.815L10.2914 4.40092C10.1156 3.93217 10.3265 3.48686 10.7719 3.32279C11.2289 3.15873 11.6508 3.38139 11.8265 3.85014L14.7914 11.9947C14.932 12.3814 15.3656 12.5572 15.7523 12.4165C16.1273 12.2759 16.3265 11.8658 16.1859 11.4908L15.1195 8.54936C15.2836 8.39701 15.5062 8.24467 15.7289 8.16264C16.2797 7.96342 16.7367 8.20951 16.9476 8.78373L17.8851 11.3384C18.0258 11.7486 18.4594 11.9009 18.8344 11.7603C19.1976 11.6314 19.432 11.2447 19.2797 10.8345L18.5179 8.74858C18.682 8.59623 18.9047 8.44389 19.1273 8.36186C19.6781 8.16264 20.1351 8.40873 20.3461 8.98295L20.9672 10.6939C21.1195 11.104 21.5531 11.2564 21.9281 11.1158C22.2914 10.9869 22.514 10.5884 22.3734 10.19L21.9047 8.92436C22.889 8.57279 23.8148 9.36967 24.4476 11.1275L25.1859 13.1314C26.7914 17.5611 25.3265 20.9361 21.4359 22.354Z" fill="black" fill-opacity="0.85"/>
 </g>
</svg>
