<?xml version="1.0" encoding="UTF-8"?>
<!--Generator: Apple Native CoreSVG 360-->
<!DOCTYPE svg
PUBLIC "-//W3C//DTD SVG 1.1//EN"
       "http://www.w3.org/Graphics/SVG/1.1/DTD/svg11.dtd">
<svg version="1.1" xmlns="http://www.w3.org/2000/svg" xmlns:xlink="http://www.w3.org/1999/xlink" viewBox="0 0 32.8477 21.0117">
 <g>
  <rect height="21.0117" opacity="0" width="32.8477" x="0" y="0"/>
  <path d="M16.2539 20.707C25.9922 20.707 32.4961 17.3438 32.4961 12.7734C32.4961 9.19922 28.6289 6.69141 23.7422 5.97656L23.6719 7.73438C27.1523 8.19141 30.6328 10.1602 30.6328 12.6562C30.6328 16.1836 24.5859 18.8789 16.2539 18.8789C7.92188 18.8789 1.875 16.1836 1.875 12.6562C1.875 10.1602 5.34375 8.19141 8.82422 7.73438L8.75391 5.97656C3.87891 6.69141 0 9.19922 0 12.7734C0 17.3438 6.51562 20.707 16.2539 20.707ZM16.2539 14.625C19.5 14.625 22.1953 13.7227 23.8945 12.4453C24.3047 12.1289 24.4922 11.7773 24.5391 11.2266C25.2305 4.18359 22.1602 0 16.2539 0C10.3359 0 7.26562 4.18359 7.95703 11.2266C8.01562 11.7773 8.20312 12.1406 8.625 12.457C10.3359 13.7344 13.0078 14.625 16.2539 14.625ZM16.2539 10.8398C13.3711 10.8398 11.1211 10.0664 9.78516 9.15234C9.64453 4.39453 12.1406 1.82812 16.2539 1.82812C20.3555 1.82812 22.8633 4.39453 22.7461 9.14062C21.3867 10.0664 19.125 10.8398 16.2539 10.8398Z" fill="black" fill-opacity="0.85"/>
 </g>
</svg>
