<?xml version="1.0" encoding="UTF-8"?>
<!--Generator: Apple Native CoreSVG 360-->
<!DOCTYPE svg
PUBLIC "-//W3C//DTD SVG 1.1//EN"
       "http://www.w3.org/Graphics/SVG/1.1/DTD/svg11.dtd">
<svg version="1.1" xmlns="http://www.w3.org/2000/svg" xmlns:xlink="http://www.w3.org/1999/xlink" viewBox="0 0 32.8054 18.7148">
 <g>
  <rect height="18.7148" opacity="0" width="32.8054" x="0" y="0"/>
  <path d="M1.51989 17.6953C9.0902 17.2734 21.5355 14.4141 24.4769 11.4609C22.1097 5.73047 19.2972 0.257812 9.45348 1.92188C1.74254 3.23438-1.29261 9.70312 0.500356 16.9336C0.640981 17.4844 0.969106 17.7188 1.51989 17.6953ZM2.24645 15.8086C0.898794 9.83203 3.44176 4.75781 9.80504 3.71484C17.5043 2.46094 20.0707 6 22.1214 10.7461C19.2386 13.0312 8.3402 15.5156 2.24645 15.8086ZM7.74254 2.57812L11.141 2.12109L11.0472 1.33594C10.9652 0.726562 10.3324 0.375 9.58239 0.492188L8.7152 0.632812C8.00036 0.75 7.56676 1.32422 7.66051 1.95703ZM26.5863 18.7148C29.4574 18.7148 31.5902 16.1719 32.1761 14.7422C32.7152 13.418 32.4105 12.9258 31.7543 12.7266L23.305 10.1719L22.7777 11.8594L30.1957 14.0977C29.8441 15.3516 28.2504 16.8281 26.4339 16.8281C23.9496 16.8281 21.1019 15.7383 17.516 14.0039L14.9027 14.7539C18.5355 16.4883 22.7074 18.7148 26.5863 18.7148Z" fill="black" fill-opacity="0.85"/>
 </g>
</svg>
