<?xml version="1.0" encoding="UTF-8"?>
<!--Generator: Apple Native CoreSVG 360-->
<!DOCTYPE svg
PUBLIC "-//W3C//DTD SVG 1.1//EN"
       "http://www.w3.org/Graphics/SVG/1.1/DTD/svg11.dtd">
<svg version="1.1" xmlns="http://www.w3.org/2000/svg" xmlns:xlink="http://www.w3.org/1999/xlink" viewBox="0 0 24.9141 22.3945">
 <g>
  <rect height="22.3945" opacity="0" width="24.9141" x="0" y="0"/>
  <path d="M4.88672 18.6914L19.6641 18.6914C20.1445 18.6914 20.4141 18.2461 20.168 17.8125L12.7852 4.91016C12.5391 4.47656 12.0117 4.47656 11.7656 4.91016L4.38281 17.8125C4.125 18.2578 4.40625 18.6914 4.88672 18.6914ZM7.23047 16.9219C7.08984 16.9219 7.00781 16.793 7.07812 16.6641L12.1289 7.83984C12.1992 7.71094 12.3633 7.71094 12.4336 7.83984L17.4727 16.6641C17.543 16.793 17.4609 16.9219 17.3203 16.9219Z" fill="black" fill-opacity="0.85"/>
  <path d="M3.19922 22.2656L21.3633 22.2656C23.3555 22.2656 24.5625 20.8828 24.5625 19.0898C24.5625 18.5391 24.3984 17.9648 24.1055 17.4492L15.0117 1.60547C14.4023 0.539062 13.3594 0 12.2812 0C11.2031 0 10.1484 0.539062 9.55078 1.60547L0.457031 17.4492C0.140625 17.9766 0 18.5391 0 19.0898C0 20.8828 1.20703 22.2656 3.19922 22.2656ZM3.21094 20.4258C2.39062 20.4258 1.89844 19.793 1.89844 19.0781C1.89844 18.8555 1.94531 18.5742 2.07422 18.3281L11.1562 2.49609C11.4023 2.0625 11.8477 1.875 12.2812 1.875C12.7148 1.875 13.1484 2.0625 13.3945 2.49609L22.4766 18.3398C22.6055 18.5859 22.6641 18.8555 22.6641 19.0781C22.6641 19.793 22.1484 20.4258 21.3398 20.4258Z" fill="black" fill-opacity="0.85"/>
 </g>
</svg>
