<?xml version="1.0" encoding="UTF-8"?>
<!--Generator: Apple Native CoreSVG 360-->
<!DOCTYPE svg
PUBLIC "-//W3C//DTD SVG 1.1//EN"
       "http://www.w3.org/Graphics/SVG/1.1/DTD/svg11.dtd">
<svg version="1.1" xmlns="http://www.w3.org/2000/svg" xmlns:xlink="http://www.w3.org/1999/xlink" viewBox="0 0 25.6992 27.5742">
 <g>
  <rect height="27.5742" opacity="0" width="25.6992" x="0" y="0"/>
  <path d="M12.668 2.00391C18.5859 2.00391 22.5703 5.92969 22.5703 11.8242L22.5703 21.3164C22.875 21.5039 23.2031 21.5977 23.543 21.5977C24.6328 21.5977 25.3359 20.9648 25.3359 19.957L25.3477 15.082C25.3477 14.3555 25.0195 13.7578 24.5391 13.5L24.5391 11.8125C24.5391 4.71094 19.793 0 12.668 0C5.54297 0 0.796875 4.71094 0.796875 11.8125L0.796875 13.5C0.316406 13.7578 0 14.3555 0 15.082L0.0117188 19.957C0.0117188 20.9648 0.703125 21.5977 1.79297 21.5977C2.13281 21.5977 2.46094 21.5039 2.76562 21.3164L2.76562 11.8242C2.76562 5.92969 6.75 2.00391 12.668 2.00391ZM3.73828 22.6172C4.61719 22.6172 5.25 21.9844 5.25 21.1172L5.25 13.9922C5.25 13.125 4.61719 12.4922 3.73828 12.4922C2.85938 12.4922 2.23828 13.125 2.23828 13.9922L2.23828 21.1172C2.23828 21.9844 2.85938 22.6172 3.73828 22.6172ZM21.5977 22.6172C22.4766 22.6172 23.0977 21.9844 23.0977 21.1172L23.0977 13.9922C23.0977 13.125 22.4766 12.4922 21.5977 12.4922C20.7188 12.4922 20.0859 13.125 20.0859 13.9922L20.0859 21.1172C20.0859 21.9844 20.7188 22.6172 21.5977 22.6172ZM22.5703 20.7422L22.5703 22.4414C22.5703 23.5195 22.3828 23.6484 21.457 23.8008L14.8828 24.9609L15.1172 26.2383L21.7031 25.0781C23.0156 24.8438 23.8477 24.2109 23.8477 22.418L23.8477 20.7188ZM12.0938 27.4453L14.3906 27.0234C15.0938 26.9062 15.5508 26.25 15.4219 25.5469C15.3047 24.8672 14.6484 24.3984 13.9453 24.5156L11.6602 24.9375C10.957 25.0547 10.5 25.7109 10.6289 26.4141C10.7461 27.0938 11.4023 27.5625 12.0938 27.4453Z" fill="black" fill-opacity="0.85"/>
 </g>
</svg>
