<?xml version="1.0" encoding="UTF-8"?>
<!--Generator: Apple Native CoreSVG 360-->
<!DOCTYPE svg
PUBLIC "-//W3C//DTD SVG 1.1//EN"
       "http://www.w3.org/Graphics/SVG/1.1/DTD/svg11.dtd">
<svg version="1.1" xmlns="http://www.w3.org/2000/svg" xmlns:xlink="http://www.w3.org/1999/xlink" viewBox="0 0 34.2891 23.6836">
 <g>
  <rect height="23.6836" opacity="0" width="34.2891" x="0" y="0"/>
  <path d="M11.4065 17.4227C11.5037 17.9184 11.6239 18.4157 11.7656 18.9141C11.8029 19.0429 11.842 19.1689 11.8863 19.2864L2.68359 19.2773C2.17969 19.2773 1.74609 18.8672 1.74609 18.3633C1.74609 17.8477 2.17969 17.4141 2.68359 17.4141ZM11.0375 14.9297L2.68359 14.9297C2.17969 14.9297 1.74609 14.5195 1.74609 14.0156C1.74609 13.5 2.17969 13.0664 2.68359 13.0664L10.9203 13.0664C10.9375 13.6842 10.9744 14.3054 11.0375 14.9297ZM10.9208 10.5902L2.68359 10.582C2.19141 10.582 1.74609 10.1602 1.74609 9.64453C1.74609 9.14062 2.17969 8.70703 2.68359 8.70703L11.0407 8.70703C10.9762 9.33863 10.9385 9.96633 10.9208 10.5902ZM11.7656 4.73438C11.6242 5.23657 11.5041 5.73673 11.4071 6.23438L2.68359 6.23438C2.17969 6.23438 1.74609 5.82422 1.74609 5.29688C1.74609 4.79297 2.17969 4.35938 2.68359 4.35938L11.8892 4.35938Z" fill="black" fill-opacity="0.85"/>
  <path d="M12.9961 11.8359C12.9961 14.0391 13.1719 16.1719 13.7812 18.3398C14.4727 20.707 15.8086 21.5508 18.6094 21.5508L19.2656 21.5508C26.1094 21.5508 32.1914 17.0859 32.1914 11.8359C32.1914 6.58594 26.1094 2.09766 19.2656 2.09766L18.6094 2.09766C15.8203 2.09766 14.4844 2.95312 13.7812 5.32031C13.1719 7.5 12.9961 9.63281 12.9961 11.8359ZM14.8828 11.8359C14.8828 9.375 15.0703 7.59375 15.5742 5.84766C15.9844 4.47656 16.8281 3.96094 18.6094 3.96094L19.2656 3.96094C25.0312 3.96094 30.3164 7.65234 30.3164 11.8359C30.3164 16.0078 25.0312 19.6875 19.2656 19.6875L18.6094 19.6875C16.793 19.6875 15.9844 19.1836 15.5742 17.8242C15.0703 16.0664 14.8828 14.2969 14.8828 11.8359Z" fill="black" fill-opacity="0.85"/>
 </g>
</svg>
