<?xml version="1.0" encoding="UTF-8"?>
<!--Generator: Apple Native CoreSVG 360-->
<!DOCTYPE svg
PUBLIC "-//W3C//DTD SVG 1.1//EN"
       "http://www.w3.org/Graphics/SVG/1.1/DTD/svg11.dtd">
<svg version="1.1" xmlns="http://www.w3.org/2000/svg" xmlns:xlink="http://www.w3.org/1999/xlink" viewBox="0 0 25.2248 35.2993">
 <g>
  <rect height="35.2993" opacity="0" width="25.2248" x="0" y="0"/>
  <path d="M7.1925 16.5539C7.1925 16.9407 7.21594 17.3391 7.28625 17.761L5.76281 20.4563C5.58703 20.7727 5.505 21.0891 5.505 21.3352C5.505 21.8157 5.80969 22.0852 6.41906 22.0852L6.89953 22.0852C7.08703 22.0852 7.1925 22.1907 7.1925 22.3664L7.1925 25.3547C7.1925 26.1164 7.50891 26.3625 8.17687 26.2922L10.755 25.9993C10.9542 25.9758 11.0714 26.093 11.0714 26.2922L11.0714 27.4289C11.0714 28.7766 12.6417 29.5969 15.337 29.5969C18.0441 29.5969 19.6144 28.7766 19.6144 27.4289L19.6144 21.9446C20.482 21.3715 21.2955 20.4902 21.7271 19.0605C22.338 19.122 22.9256 19.1505 23.4813 19.1418C23.0789 20.5876 22.3252 21.8552 21.3019 22.7649L21.3019 27.7219C21.3019 29.9602 19.0167 31.2727 15.337 31.2727C11.761 31.2727 9.56142 30.0204 9.4854 27.8565L8.38781 27.9563C6.78234 28.1086 5.51672 27.2532 5.51672 25.4602L5.51672 23.5032C4.45031 23.2219 3.8175 22.4016 3.8175 21.3704C3.8175 20.8313 3.98156 20.2454 4.32141 19.6477L5.56359 17.4094C5.52844 17.1633 5.51672 16.8938 5.51672 16.5891C5.51672 15.7331 5.60419 14.9288 5.77409 14.1829C5.94407 14.2019 6.12463 14.2102 6.31359 14.2102C6.76161 14.2102 7.17272 14.1569 7.54779 14.0585C7.3113 14.8358 7.1925 15.6762 7.1925 16.5539ZM23.6089 14.5109C23.5595 14.5057 23.5092 14.5032 23.4581 14.5032C22.9492 14.5083 22.3889 14.4689 21.7834 14.3809C20.9576 10.9949 18.2167 9.05395 14.6222 9.05395C13.1991 9.05395 11.9615 9.35315 10.93 9.88914C10.9625 9.65559 10.9777 9.43025 10.9777 9.21801C10.9777 8.83446 10.9306 8.45936 10.8355 8.10263C11.9787 7.6319 13.2603 7.38989 14.6222 7.38989C19.6127 7.38989 22.805 10.4013 23.6089 14.5109Z" fill="black" fill-opacity="0.85"/>
  <path d="M23.4581 15.5696C23.6456 15.5696 23.7745 15.675 23.7745 15.8743L23.8097 17.7727C23.8097 17.9368 23.7277 18.0774 23.6339 18.0774C19.7097 18.1583 14.1619 16.4585 9.23695 13.1776C9.91981 12.5893 10.3804 11.8138 10.6554 11.0301C15.1746 13.9712 20.2733 15.6 23.4581 15.5696Z" fill="black" fill-opacity="0.85"/>
  <path d="M6.31359 13.1438C8.90344 13.1438 9.91125 10.8118 9.91125 9.21801C9.91125 8.31567 9.58312 7.51879 8.92687 7.00317C8.15344 6.38207 6.03234 5.13989 5.61047 4.97582C4.76672 4.6477 4.09875 4.88207 3.59484 5.69067L1.21594 9.44067C0.981562 9.80395 1.05187 10.1789 1.1925 10.343C1.63781 9.82739 2.17687 9.92114 2.64562 10.636C3.71203 12.2649 4.52062 13.1438 6.31359 13.1438Z" fill="black" fill-opacity="0.85"/>
  <path d="M14.0948 0.604731L14.1066 4.43676C14.1066 4.99926 14.7511 5.18676 15.1144 4.88207L17.5167 2.93676C17.8331 2.66723 17.8566 2.31567 17.5167 2.03442L15.0441 0.112543C14.6925-0.156988 14.0948 0.0773872 14.0948 0.604731ZM8.93859 3.1477C8.44641 3.47582 8.44641 3.96801 8.6925 4.26098C8.89172 4.50707 9.29016 4.58911 9.71203 4.30786C10.9777 3.42895 12.6066 3.11254 14.4464 3.11254C14.8331 3.11254 15.1378 2.80786 15.1378 2.40942C15.1378 2.0227 14.8331 1.71801 14.4464 1.71801C12.4073 1.71801 10.4503 2.10473 8.93859 3.1477Z" fill="black" fill-opacity="0.85"/>
 </g>
</svg>
