<?xml version="1.0" encoding="UTF-8"?>
<!--Generator: Apple Native CoreSVG 360-->
<!DOCTYPE svg
PUBLIC "-//W3C//DTD SVG 1.1//EN"
       "http://www.w3.org/Graphics/SVG/1.1/DTD/svg11.dtd">
<svg version="1.1" xmlns="http://www.w3.org/2000/svg" xmlns:xlink="http://www.w3.org/1999/xlink" viewBox="0 0 31.2188 20.8835">
 <g>
  <rect height="20.8835" opacity="0" width="31.2188" x="0" y="0"/>
  <path d="M0.9375 5.03353C0.433594 5.03353 0 5.46713 0 5.98275C0 6.49838 0.445312 6.92025 0.9375 6.92025L9.85547 6.93197C9.9375 6.31088 10.0195 5.66635 10.1484 5.03353ZM0.9375 9.48666C0.433594 9.48666 0 9.94369 0 10.4476C0 10.9632 0.433594 11.3734 0.9375 11.3734L9.70312 11.3734C9.69141 11.0335 9.69141 9.83822 9.70312 9.48666ZM0.9375 13.9515C0.433594 13.9515 0 14.3968 0 14.9007C0 15.4163 0.433594 15.8382 0.9375 15.8382L10.1484 15.8499C10.0195 15.2054 9.9375 14.5726 9.85547 13.9632ZM4.05469 19.2249C3.07031 20.1742 4.34766 21.4749 5.35547 20.5609C7.66406 18.3929 8.13281 14.3617 6.59766 10.4945L6.375 9.93197C5.08594 6.66244 5.30859 3.35775 6.99609 1.64682C7.98047 0.697597 6.71484-0.603184 5.68359 0.310879C3.375 2.49057 2.91797 6.49838 4.45312 10.3656L4.6875 10.9281C5.98828 14.221 5.75391 17.5023 4.05469 19.2249Z" fill="black" fill-opacity="0.85"/>
  <path d="M11.2852 10.4359C11.2617 12.6976 11.4492 14.8656 12.0703 17.0804C12.7852 19.4945 14.1445 20.3499 17.0039 20.3499L17.6602 20.3499C24.6445 20.3499 30.8672 15.7913 30.8672 10.4359C30.8672 5.08041 24.6445 0.498379 17.6602 0.498379L17.0039 0.498379C14.1562 0.498379 12.7969 1.36557 12.0703 3.77963C11.4492 6.00619 11.2617 8.17416 11.2852 10.4359ZM13.1719 10.4359C13.1602 7.91635 13.3711 6.09994 13.8867 4.30697C14.3086 2.90072 15.1641 2.37338 17.0039 2.37338L17.6602 2.37338C23.5547 2.37338 28.9805 6.15853 28.9805 10.4359C28.9805 14.7132 23.5547 18.4749 17.6602 18.4749L17.0039 18.4749C15.1406 18.4749 14.2969 17.9476 13.8867 16.5648C13.3711 14.7718 13.1602 12.9554 13.1719 10.4359Z" fill="black" fill-opacity="0.85"/>
 </g>
</svg>
