<?xml version="1.0" encoding="UTF-8"?>
<!--Generator: Apple Native CoreSVG 360-->
<!DOCTYPE svg
PUBLIC "-//W3C//DTD SVG 1.1//EN"
       "http://www.w3.org/Graphics/SVG/1.1/DTD/svg11.dtd">
<svg version="1.1" xmlns="http://www.w3.org/2000/svg" xmlns:xlink="http://www.w3.org/1999/xlink" viewBox="0 0 24.1875 24.9258">
 <g>
  <rect height="24.9258" opacity="0" width="24.1875" x="0" y="0"/>
  <path d="M11.918 0C4.74612 0-0.0116972 5.12109 2.15991e-05 12.8438C2.15991e-05 14.0391 0.10549 15.375 0.246115 16.5117C0.187522 17.5312 0.234397 18.4219 0.398459 18.9609C0.796897 20.3789 1.88674 22.3828 3.05862 23.6016C3.41018 23.9766 3.94924 24.1641 4.25393 24.0234L4.61721 23.8711C4.75783 23.8125 4.87502 23.7773 5.01565 23.8594L6.39846 24.5039C7.05471 24.832 7.68752 24.832 8.46096 24.375C9.3633 23.8477 9.65627 23.0859 9.37502 22.3125C8.90627 21.0469 7.95705 19.4531 7.13674 18.0117C6.22268 16.4414 5.27346 14.8242 4.60549 13.9922C4.05471 13.3125 3.19924 13.1484 2.2969 13.6641L1.25393 14.25L2.07424 14.5078C2.01565 13.8867 1.98049 13.2539 1.98049 12.8438C1.98049 6.32812 5.95315 1.99219 11.918 1.99219C17.8711 1.99219 21.8555 6.32812 21.8555 12.8438C21.8555 13.2539 21.8203 13.8867 21.7617 14.5078L22.5821 14.25L21.5391 13.6641C20.6367 13.1484 19.7813 13.3125 19.2305 13.9922C18.5625 14.8242 17.6133 16.4414 16.6992 18.0117C15.8789 19.4531 14.9297 21.0469 14.461 22.3125C14.1797 23.0859 14.4727 23.8477 15.375 24.375C16.1485 24.832 16.7813 24.832 17.4375 24.5039L18.8203 23.8594C18.961 23.7773 19.0899 23.8008 19.2188 23.8711L19.5821 24.0234C19.8867 24.1641 20.4258 23.9766 20.7774 23.6016C21.9492 22.3828 23.0391 20.3789 23.4375 18.9609C23.6016 18.4219 23.6485 17.5312 23.5899 16.5117C23.7305 15.375 23.836 14.0391 23.836 12.8438C23.8477 5.12109 19.0899 0 11.918 0Z" fill="black" fill-opacity="0.85"/>
 </g>
</svg>
