<?xml version="1.0" encoding="UTF-8"?>
<!--Generator: Apple Native CoreSVG 360-->
<!DOCTYPE svg
PUBLIC "-//W3C//DTD SVG 1.1//EN"
       "http://www.w3.org/Graphics/SVG/1.1/DTD/svg11.dtd">
<svg version="1.1" xmlns="http://www.w3.org/2000/svg" xmlns:xlink="http://www.w3.org/1999/xlink" viewBox="0 0 34.3359 23.6836">
 <g>
  <rect height="23.6836" opacity="0" width="34.3359" x="0" y="0"/>
  <path d="M11.8125 18.9141C11.9209 19.289 12.0446 19.6392 12.1865 19.9616L2.90625 22.4414C2.22656 22.6289 1.72266 22.2305 1.72266 21.5977C1.72266 21.1289 2.01562 20.7656 2.50781 20.6367L11.6273 18.2006ZM11.2148 16.0462L2.90625 18.2578C2.21484 18.4453 1.72266 18.0469 1.72266 17.4141C1.72266 16.957 2.01562 16.582 2.50781 16.4531L11.0225 14.1786C11.0617 14.7982 11.1239 15.4209 11.2148 16.0462ZM10.9453 11.8359L10.9462 11.921L2.90625 14.0859C2.23828 14.2617 1.72266 13.8633 1.72266 13.2422C1.72266 12.7734 2.01562 12.4102 2.50781 12.2695L10.991 9.99499C10.9583 10.612 10.9453 11.2256 10.9453 11.8359ZM11.2076 7.67556L2.90625 9.90234C2.21484 10.0781 1.72266 9.67969 1.72266 9.05859C1.72266 8.58984 2.01562 8.22656 2.50781 8.09766L11.5719 5.67637C11.4157 6.34663 11.2957 7.01314 11.2076 7.67556Z" fill="black" fill-opacity="0.85"/>
  <path d="M13.043 11.8359C13.043 14.0391 13.1953 16.1836 13.8164 18.3398C14.5195 20.7305 15.8438 21.5859 18.6562 21.5859L19.3242 21.5859C26.1797 21.5859 32.2617 17.0977 32.2617 11.8359C32.2617 6.58594 26.1797 2.08594 19.3242 2.08594L18.6562 2.08594C15.8555 2.08594 14.5312 2.94141 13.8164 5.33203C13.1953 7.5 13.043 9.64453 13.043 11.8359ZM14.9531 11.8359C14.9531 9.41016 15.1406 7.61719 15.6445 5.85938C16.0547 4.5 16.8867 3.99609 18.6562 3.99609L19.3242 3.99609C25.0664 3.99609 30.3516 7.66406 30.3516 11.8359C30.3516 16.0078 25.0664 19.6758 19.3242 19.6758L18.6562 19.6758C16.8516 19.6758 16.0547 19.1719 15.6445 17.8242C15.1406 16.043 14.9531 14.2734 14.9531 11.8359Z" fill="black" fill-opacity="0.85"/>
 </g>
</svg>
