<?xml version="1.0" encoding="UTF-8"?>
<!--Generator: Apple Native CoreSVG 360-->
<!DOCTYPE svg
PUBLIC "-//W3C//DTD SVG 1.1//EN"
       "http://www.w3.org/Graphics/SVG/1.1/DTD/svg11.dtd">
<svg version="1.1" xmlns="http://www.w3.org/2000/svg" xmlns:xlink="http://www.w3.org/1999/xlink" viewBox="0 0 26.5547 25.5352">
 <g>
  <rect height="25.5352" opacity="0" width="26.5547" x="0" y="0"/>
  <path d="M8.55469 19.6875C8.55469 22.9219 10.5586 24.9844 13.7227 24.9844C16.0664 24.9844 17.8359 23.9531 18.9375 21.9609L19.9922 20.0742C22.4648 15.5508 26.5547 14.9648 26.5547 9.15234C26.5547 3.66797 23.0039 0 17.6719 0C12.2227 0 8.55469 3.69141 8.55469 9.19922ZM10.3242 19.5703L10.3242 9.19922C10.3242 4.73438 13.2656 1.76953 17.6719 1.76953C21.9375 1.76953 24.7852 4.73438 24.7852 9.15234C24.7852 14.0156 20.9648 14.8594 18.4219 19.2773L17.3906 21.0234C16.5586 22.4766 15.4102 23.168 13.8047 23.168C11.6367 23.168 10.3242 21.8086 10.3242 19.5703ZM12.1523 16.2773C12.1523 17.4961 13.0781 18.3047 14.4375 18.3047C16.207 18.293 17.4141 16.793 17.4141 14.9062C17.4141 11.5312 13.9219 10.9688 13.9219 8.58984C13.9219 6.75 15.4219 5.39062 17.6602 5.39062C19.9336 5.39062 21.3984 6.86719 21.3984 9.12891C21.3984 9.60938 21.8086 10.0195 22.2891 10.0195C22.7695 10.0195 23.168 9.60938 23.168 9.12891C23.168 5.83594 20.9648 3.62109 17.6602 3.62109C14.3672 3.62109 12.1523 5.69531 12.1523 8.58984C12.1523 11.1328 14.5547 11.9648 14.5547 13.1016C14.5547 14.3672 12.1523 14.0859 12.1523 16.2773Z" fill="black" fill-opacity="0.85"/>
  <path d="M2.51953 5.56641C3.59766 5.56641 4.48828 4.6875 4.48828 3.60938C4.48828 2.51953 3.59766 1.64062 2.51953 1.64062C1.42969 1.64062 0.550781 2.51953 0.550781 3.60938C0.550781 4.6875 1.42969 5.56641 2.51953 5.56641Z" fill="black" fill-opacity="0.85"/>
  <path d="M2.51953 11.6602C3.59766 11.6602 4.48828 10.7812 4.48828 9.70312C4.48828 8.61328 3.59766 7.73438 2.51953 7.73438C1.42969 7.73438 0.550781 8.61328 0.550781 9.70312C0.550781 10.7812 1.42969 11.6602 2.51953 11.6602Z" fill="black" fill-opacity="0.85"/>
  <path d="M2.51953 17.7773C3.59766 17.7773 4.48828 16.8984 4.48828 15.8203C4.48828 14.7305 3.59766 13.8516 2.51953 13.8516C1.42969 13.8516 0.550781 14.7305 0.550781 15.8203C0.550781 16.8984 1.42969 17.7773 2.51953 17.7773Z" fill="black" fill-opacity="0.85"/>
  <path d="M2.51953 23.8711C3.59766 23.8711 4.48828 22.9922 4.48828 21.9141C4.48828 20.8242 3.59766 19.9453 2.51953 19.9453C1.42969 19.9453 0.550781 20.8242 0.550781 21.9141C0.550781 22.9922 1.42969 23.8711 2.51953 23.8711Z" fill="black" fill-opacity="0.85"/>
 </g>
</svg>
