<?xml version="1.0" encoding="UTF-8"?>
<!--Generator: Apple Native CoreSVG 360-->
<!DOCTYPE svg
PUBLIC "-//W3C//DTD SVG 1.1//EN"
       "http://www.w3.org/Graphics/SVG/1.1/DTD/svg11.dtd">
<svg version="1.1" xmlns="http://www.w3.org/2000/svg" xmlns:xlink="http://www.w3.org/1999/xlink" viewBox="0 0 21.9258 21.5742">
 <g>
  <rect height="21.5742" opacity="0" width="21.9258" x="0" y="0"/>
  <path d="M3.67969 21.5742L17.8945 21.5742C20.3555 21.5742 21.5742 20.3672 21.5742 17.9531L21.5742 3.63281C21.5742 1.21875 20.3555 0 17.8945 0L3.67969 0C1.23047 0 0 1.21875 0 3.63281L0 17.9531C0 20.3672 1.23047 21.5742 3.67969 21.5742ZM3.70312 19.6875C2.53125 19.6875 1.88672 19.0664 1.88672 17.8477L1.88672 3.73828C1.88672 2.51953 2.53125 1.88672 3.70312 1.88672L17.8711 1.88672C19.0312 1.88672 19.6875 2.51953 19.6875 3.73828L19.6875 17.8477C19.6875 19.0664 19.0312 19.6875 17.8711 19.6875Z" fill="black" fill-opacity="0.85"/>
  <path d="M5.89453 3.86719C4.93359 3.86719 4.21875 4.61719 4.21875 5.64844C4.21875 7.17188 5.85938 8.50781 7.01953 9.31641C7.13672 9.39844 7.25391 9.45703 7.32422 9.45703C7.40625 9.45703 7.5 9.38672 7.60547 9.31641C8.78906 8.58984 10.3945 7.17188 10.3945 5.64844C10.3945 4.61719 9.67969 3.86719 8.69531 3.86719C8.09766 3.86719 7.59375 4.23047 7.3125 4.76953C7.01953 4.23047 6.53906 3.86719 5.89453 3.86719Z" fill="black" fill-opacity="0.85"/>
  <path d="M4.95703 13.125L16.5 13.125C16.9102 13.125 17.2266 12.8086 17.2266 12.3984C17.2266 12 16.9102 11.6836 16.5 11.6836L4.95703 11.6836C4.53516 11.6836 4.21875 12 4.21875 12.3984C4.21875 12.8086 4.53516 13.125 4.95703 13.125Z" fill="black" fill-opacity="0.85"/>
  <path d="M4.95703 17.1328L13.418 17.1328C13.8281 17.1328 14.1445 16.8164 14.1445 16.418C14.1445 16.0078 13.8281 15.6914 13.418 15.6914L4.95703 15.6914C4.53516 15.6914 4.21875 16.0078 4.21875 16.418C4.21875 16.8164 4.53516 17.1328 4.95703 17.1328Z" fill="black" fill-opacity="0.85"/>
 </g>
</svg>
