<?xml version="1.0" encoding="UTF-8"?>
<!--Generator: Apple Native CoreSVG 360-->
<!DOCTYPE svg
PUBLIC "-//W3C//DTD SVG 1.1//EN"
       "http://www.w3.org/Graphics/SVG/1.1/DTD/svg11.dtd">
<svg version="1.1" xmlns="http://www.w3.org/2000/svg" xmlns:xlink="http://www.w3.org/1999/xlink" viewBox="0 0 18.5391 25.5117">
 <g>
  <rect height="25.5117" opacity="0" width="18.5391" x="0" y="0"/>
  <path d="M0.539062 19.6875C0.539062 22.9336 2.55469 24.9844 5.70703 24.9844C8.0625 24.9844 9.82031 23.9531 10.9336 21.9609L11.9883 20.0742C14.4609 15.5625 18.5391 14.9648 18.5391 9.16406C18.5391 3.66797 14.9883 0 9.66797 0C4.21875 0 0.539062 3.69141 0.539062 9.19922ZM2.30859 19.5703L2.30859 9.19922C2.30859 4.73438 5.25 1.76953 9.66797 1.76953C13.9336 1.76953 16.7695 4.73438 16.7695 9.16406C16.7695 14.0156 12.9609 14.8594 10.4062 19.2773L9.38672 21.0234C8.55469 22.4766 7.39453 23.168 5.78906 23.168C3.62109 23.168 2.30859 21.8086 2.30859 19.5703Z" fill="black" fill-opacity="0.85"/>
  <path d="M4.14844 16.2773C4.14844 17.4961 5.0625 18.3047 6.43359 18.3047C8.20312 18.293 9.41016 16.793 9.41016 14.9062C9.41016 11.5312 5.91797 10.9688 5.91797 8.58984C5.91797 6.75 7.41797 5.39062 9.65625 5.39062C11.9297 5.39062 13.3945 6.86719 13.3945 9.12891C13.3945 9.60938 13.793 10.0195 14.2734 10.0195C14.7539 10.0195 15.1641 9.60938 15.1641 9.12891C15.1641 5.83594 12.9609 3.62109 9.65625 3.62109C6.36328 3.62109 4.14844 5.69531 4.14844 8.58984C4.14844 11.1328 6.55078 11.9648 6.55078 13.1016C6.55078 14.3672 4.14844 14.0859 4.14844 16.2773Z" fill="black" fill-opacity="0.85"/>
 </g>
</svg>
