<?xml version="1.0" encoding="UTF-8"?>
<!--Generator: Apple Native CoreSVG 360-->
<!DOCTYPE svg
PUBLIC "-//W3C//DTD SVG 1.1//EN"
       "http://www.w3.org/Graphics/SVG/1.1/DTD/svg11.dtd">
<svg version="1.1" xmlns="http://www.w3.org/2000/svg" xmlns:xlink="http://www.w3.org/1999/xlink" viewBox="0 0 26.4492 22.6055">
 <g>
  <rect height="22.6055" opacity="0" width="26.4492" x="0" y="0"/>
  <path d="M13.043 0C5.83594 0 0 5.83594 0 13.043C0 16.5938 1.41797 19.8516 3.77344 22.2188C4.17188 22.6172 4.79297 22.6406 5.23828 22.2305C5.60156 21.8672 5.53125 21.2344 5.0625 20.7305C3.17578 18.7617 2.02734 16.0195 2.02734 13.043C2.02734 6.87891 6.89062 1.99219 13.043 1.99219C19.207 1.99219 24.0703 6.87891 24.0703 13.043C24.0703 16.0195 22.9219 18.7617 21.0352 20.7305C20.5664 21.2344 20.4961 21.8672 20.8594 22.2305C21.3047 22.6406 21.9258 22.6172 22.3242 22.2188C24.6797 19.8516 26.0977 16.5938 26.0977 13.043C26.0977 5.83594 20.2617 0 13.043 0Z" fill="black" fill-opacity="0.85"/>
  <path d="M7.23047 8.88281C7.00781 9.19922 7.17188 9.62109 7.60547 9.62109L8.28516 9.62109L8.28516 9.63281C8.28516 11.8711 9.45703 12.2109 9.45703 13.2891C9.45703 14.3789 8.00391 14.7422 8.00391 16.875C8.00391 17.6133 8.20312 18.1875 8.70703 18.8438C9.19922 19.4648 10.207 18.8203 9.67969 18.1406C9.29297 17.625 9.17578 17.3203 9.17578 16.8047C9.17578 15.3633 10.6641 14.9062 10.6641 13.2891C10.6641 11.6602 9.48047 11.332 9.48047 9.63281L9.48047 9.62109L10.1836 9.62109C10.5938 9.62109 10.7812 9.19922 10.5586 8.88281L9.30469 7.07812C9.09375 6.75 8.70703 6.73828 8.47266 7.07812ZM11.3906 8.84766C11.168 9.17578 11.3555 9.60938 11.7656 9.60938L12.457 9.60938L12.457 9.59766C12.457 11.8359 13.6172 12.1875 13.6172 13.2656C13.6172 14.3438 12.1523 14.707 12.1523 16.8516C12.1523 17.6016 12.3633 18.1758 12.8789 18.8203C13.3594 19.4414 14.3555 18.8086 13.8281 18.1055C13.4766 17.6016 13.3594 17.2969 13.3594 16.7812C13.3594 15.3398 14.8242 14.8828 14.8242 13.2656C14.8242 11.6484 13.6523 11.3086 13.6523 9.59766L13.6523 9.60938L14.3438 9.60938C14.7422 9.60938 14.9414 9.17578 14.707 8.84766L13.4766 7.06641C13.2539 6.72656 12.8672 6.71484 12.6328 7.06641ZM15.5391 8.83594C15.3281 9.15234 15.5156 9.58594 15.9258 9.58594L16.6289 9.58594L16.6289 9.58594C16.6289 11.8242 17.7891 12.1641 17.7891 13.2422C17.7891 14.3203 16.3125 14.6953 16.3125 16.8281C16.3125 17.5781 16.5234 18.1406 17.0273 18.8086C17.5547 19.4414 18.5273 18.7734 18 18.0938C17.625 17.5898 17.5195 17.2734 17.5195 16.7578C17.5195 15.3164 18.9844 14.8594 18.9844 13.2422C18.9844 11.625 17.8242 11.2852 17.8242 9.58594L17.8242 9.58594L18.4922 9.58594C18.9141 9.58594 19.1016 9.15234 18.8789 8.83594L17.625 7.04297C17.4141 6.70312 17.0156 6.69141 16.793 7.04297Z" fill="black" fill-opacity="0.85"/>
 </g>
</svg>
