<?xml version="1.0" encoding="UTF-8"?>
<!--Generator: Apple Native CoreSVG 360-->
<!DOCTYPE svg
PUBLIC "-//W3C//DTD SVG 1.1//EN"
       "http://www.w3.org/Graphics/SVG/1.1/DTD/svg11.dtd">
<svg version="1.1" xmlns="http://www.w3.org/2000/svg" xmlns:xlink="http://www.w3.org/1999/xlink" viewBox="0 0 15.6914 30.5508">
 <g>
  <rect height="30.5508" opacity="0" width="15.6914" x="0" y="0"/>
  <path d="M4.13672 6.77344C4.13672 5.05078 2.58984 4.08984 2.58984 2.90625C2.58984 2.25 2.76562 1.88672 3.19922 1.28906C3.82031 0.457031 2.67188-0.386719 2.05078 0.421875C1.41797 1.20703 1.14844 1.93359 1.14844 2.8125C1.14844 4.60547 2.67188 5.48438 2.67188 6.77344C2.67188 8.03906 1.14844 8.92969 1.14844 10.7109C1.14844 11.5898 1.41797 12.3164 2.03906 13.1016C2.66016 13.8984 3.80859 13.0547 3.1875 12.2344C2.76562 11.6484 2.58984 11.2852 2.58984 10.6055C2.58984 9.45703 4.13672 8.48438 4.13672 6.77344ZM9.17578 6.77344C9.17578 5.05078 7.62891 4.08984 7.62891 2.90625C7.62891 2.25 7.79297 1.88672 8.23828 1.28906C8.85938 0.457031 7.71094-0.386719 7.06641 0.421875C6.45703 1.20703 6.17578 1.93359 6.17578 2.8125C6.17578 4.60547 7.6875 5.48438 7.6875 6.77344C7.6875 8.03906 6.17578 8.92969 6.17578 10.7109C6.17578 11.5898 6.45703 12.3164 7.06641 13.1016C7.6875 13.8984 8.84766 13.0547 8.22656 12.2344C7.79297 11.6484 7.62891 11.2852 7.62891 10.6055C7.62891 9.45703 9.17578 8.48438 9.17578 6.77344ZM14.1914 6.77344C14.1914 5.05078 12.6445 4.08984 12.6445 2.90625C12.6445 2.25 12.8203 1.88672 13.2656 1.28906C13.8867 0.457031 12.7266-0.386719 12.0938 0.421875C11.4727 1.20703 11.2031 1.93359 11.2031 2.8125C11.2031 4.60547 12.7266 5.48438 12.7266 6.77344C12.7266 8.03906 11.2031 8.92969 11.2031 10.7109C11.2031 11.5898 11.4727 12.3164 12.082 13.1016C12.7148 13.8984 13.875 13.0547 13.2539 12.2344C12.8203 11.6484 12.6445 11.2852 12.6445 10.6055C12.6445 9.45703 14.1914 8.48438 14.1914 6.77344Z" fill="black" fill-opacity="0.85"/>
  <path d="M10.1953 30.5508C12.4922 30.5508 14.8242 28.4414 14.8242 26.4844C14.8242 24.6797 13.207 23.8008 10.3594 22.7109L10.2891 22.3008L13.3477 22.3008C14.6719 22.3008 15.3398 21.6328 15.3398 20.3438C15.3398 18.0469 13.2539 15.7031 11.2852 15.7031C9.48047 15.7031 8.60156 17.332 7.51172 20.1914L7.11328 20.25L7.11328 17.168C7.11328 15.8672 6.43359 15.1875 5.15625 15.1875C2.84766 15.1875 0.515625 17.2852 0.515625 19.2422C0.515625 21.0352 2.14453 21.9375 5.00391 23.0156L5.03906 23.4141L1.98047 23.4141C0.679688 23.4141 0 24.1055 0 25.3711C0 27.6914 2.09766 30.0117 4.05469 30.0117C5.84766 30.0117 6.75 28.4062 7.81641 25.5586L8.22656 25.4883L8.22656 28.5469C8.22656 29.8594 8.90625 30.5508 10.1953 30.5508ZM7.66406 24.4336C6.79688 24.4336 6.09375 23.7305 6.09375 22.8633C6.09375 21.9961 6.79688 21.293 7.66406 21.293C8.53125 21.293 9.23438 21.9961 9.23438 22.8633C9.23438 23.7305 8.53125 24.4336 7.66406 24.4336Z" fill="black" fill-opacity="0.85"/>
 </g>
</svg>
