<?xml version="1.0" encoding="UTF-8"?>
<!--Generator: Apple Native CoreSVG 360-->
<!DOCTYPE svg
PUBLIC "-//W3C//DTD SVG 1.1//EN"
       "http://www.w3.org/Graphics/SVG/1.1/DTD/svg11.dtd">
<svg version="1.1" xmlns="http://www.w3.org/2000/svg" xmlns:xlink="http://www.w3.org/1999/xlink" viewBox="0 0 34.3431 18.082">
 <g>
  <rect height="18.082" opacity="0" width="34.3431" x="0" y="0"/>
  <path d="M17.5817 4.55859L19.9606 9.83203L21.9176 5.63672C22.1989 5.02734 22.9958 5.01562 23.3005 5.67188L24.5544 8.36719L30.2445 8.36719L28.9861 9.97266L24.0739 9.97266C23.6989 9.97266 23.5114 9.78516 23.3708 9.48047L22.6091 7.80469L20.5583 12.2578C20.3239 12.7734 19.6208 12.7734 19.363 12.2227L16.9841 6.94922L14.6169 12.2227C14.3591 12.7734 13.6559 12.7734 13.4216 12.2578L11.3708 7.80469L10.6091 9.48047C10.4684 9.78516 10.2809 9.97266 9.90593 9.97266L4.99807 9.97266L3.73754 8.36719L9.43718 8.36719L10.6794 5.67188C10.9723 5.01562 11.7809 5.02734 12.0622 5.63672L14.0192 9.83203L16.3981 4.55859C16.6559 4.00781 17.3239 4.00781 17.5817 4.55859Z" fill="black" fill-opacity="0.85"/>
  <path d="M16.9958 16.0312C19.3044 16.0312 21.9997 16.7344 24.0036 17.7773C24.5426 18.0703 25.1403 17.9531 25.4919 17.4961L33.4723 7.33594C34.2575 6.32812 34.1286 5.26172 33.1325 4.47656C29.863 1.95703 23.5934 0 16.9958 0C10.3981 0 4.12858 1.95703 0.847332 4.47656C-0.148761 5.26172-0.277668 6.32812 0.519207 7.33594L8.49968 17.4961C8.85124 17.9531 9.43718 18.0703 9.97624 17.7773C11.9801 16.7344 14.6872 16.0312 16.9958 16.0312ZM16.9958 14.1445C14.8512 14.1445 12.3786 14.707 9.98796 15.6914C9.69499 15.8086 9.56608 15.7852 9.33171 15.4922L2.39421 6.65625C2.17155 6.36328 2.20671 6.08203 2.52311 5.87109C6.55436 3.32812 11.7223 1.88672 16.9958 1.88672C22.2692 1.88672 27.4372 3.32812 31.4684 5.87109C31.7848 6.08203 31.82 6.36328 31.5856 6.65625L24.6598 15.4922C24.4255 15.7852 24.2966 15.8086 24.0036 15.6914C21.613 14.707 19.1286 14.1445 16.9958 14.1445Z" fill="black" fill-opacity="0.85"/>
 </g>
</svg>
