<?xml version="1.0" encoding="UTF-8"?>
<!--Generator: Apple Native CoreSVG 360-->
<!DOCTYPE svg
PUBLIC "-//W3C//DTD SVG 1.1//EN"
       "http://www.w3.org/Graphics/SVG/1.1/DTD/svg11.dtd">
<svg version="1.1" xmlns="http://www.w3.org/2000/svg" xmlns:xlink="http://www.w3.org/1999/xlink" viewBox="0 0 30.3 28.1602">
 <g>
  <rect height="28.1602" opacity="0" width="30.3" x="0" y="0"/>
  <path d="M5.29452 28.1602L12.5601 28.1602C14.1773 28.1602 15.2203 27.1289 15.2203 25.5469L15.2203 2.61328C15.2203 1.03125 14.1773 0 12.5601 0L5.29452 0C3.67733 0 2.63436 1.03125 2.63436 2.61328L2.63436 25.5469C2.63436 27.1289 3.67733 28.1602 5.29452 28.1602ZM5.32968 26.2734C4.82577 26.2734 4.52108 25.957 4.52108 25.4414L4.52108 2.71875C4.52108 2.20312 4.82577 1.88672 5.32968 1.88672L12.525 1.88672C13.0289 1.88672 13.3336 2.20312 13.3336 2.71875L13.3336 25.4414C13.3336 25.957 13.0289 26.2734 12.525 26.2734ZM11.5641 9.29297C11.8922 9.29297 12.15 9.02344 12.15 8.69531L12.15 4.06641C12.15 3.73828 11.8922 3.46875 11.5641 3.46875C11.2242 3.46875 10.9664 3.73828 10.9664 4.06641L10.9664 8.69531C10.9664 9.02344 11.2242 9.29297 11.5641 9.29297ZM9.14999 9.29297C9.4664 9.29297 9.73593 9.02344 9.73593 8.69531L9.73593 4.06641C9.73593 3.73828 9.4664 3.46875 9.14999 3.46875C8.81015 3.46875 8.54061 3.73828 8.54061 4.06641L8.54061 8.69531C8.54061 9.02344 8.81015 9.29297 9.14999 9.29297ZM11.5641 16.9453C11.8922 16.9453 12.15 16.6875 12.15 16.3477L12.15 11.7188C12.15 11.3906 11.8922 11.1328 11.5641 11.1328C11.2242 11.1328 10.9664 11.3906 10.9664 11.7188L10.9664 16.3477C10.9664 16.6875 11.2242 16.9453 11.5641 16.9453ZM9.14999 16.9453C9.4664 16.9453 9.73593 16.6875 9.73593 16.3477L9.73593 11.7188C9.73593 11.3906 9.4664 11.1328 9.14999 11.1328C8.81015 11.1328 8.54061 11.3906 8.54061 11.7188L8.54061 16.3477C8.54061 16.6875 8.81015 16.9453 9.14999 16.9453ZM11.5641 24.6211C11.8922 24.6211 12.15 24.3516 12.15 24.0352L12.15 19.4062C12.15 19.0664 11.8922 18.8086 11.5641 18.8086C11.2242 18.8086 10.9664 19.0664 10.9664 19.4062L10.9664 24.0352C10.9664 24.3516 11.2242 24.6211 11.5641 24.6211ZM9.14999 24.6211C9.4664 24.6211 9.73593 24.3516 9.73593 24.0352L9.73593 19.4062C9.73593 19.0664 9.4664 18.8086 9.14999 18.8086C8.81015 18.8086 8.54061 19.0664 8.54061 19.4062L8.54061 24.0352C8.54061 24.3516 8.81015 24.6211 9.14999 24.6211Z" fill="black" fill-opacity="0.85"/>
  <path d="M19.8492 12.668C22.9781 12.668 24.5953 10.125 27.3258 10.125C27.9586 10.125 28.4976 10.2539 29.1656 10.6289C29.5875 10.8633 29.9625 10.6992 30.15 10.4297C30.3844 10.0898 30.3609 9.57422 29.8453 9.28125C29.0719 8.82422 28.2281 8.60156 27.3258 8.60156C24.15 8.60156 22.5328 11.1562 19.8492 11.1562C19.2164 11.1562 18.6773 11.0156 17.9976 10.6289C17.5992 10.4062 17.2125 10.5586 17.0133 10.8633C16.8023 11.1914 16.8258 11.707 17.318 11.9883C18.0914 12.4688 18.9469 12.668 19.8492 12.668ZM19.8609 16.1133C22.9781 16.1133 24.607 13.5703 27.3258 13.5703C27.9703 13.5703 28.5094 13.6992 29.1773 14.0742C29.5875 14.3086 29.9742 14.1445 30.1617 13.875C30.3844 13.5352 30.3726 13.0195 29.8687 12.7266C29.0836 12.2695 28.2281 12.0469 27.3258 12.0469C24.1617 12.0469 22.5445 14.6016 19.8609 14.6016C19.2164 14.6016 18.6773 14.4609 18.0094 14.0859C17.6109 13.8516 17.2125 14.0039 17.0133 14.3086C16.8023 14.6367 16.8258 15.1523 17.3297 15.4336C18.1031 15.9141 18.9586 16.1133 19.8609 16.1133ZM19.8492 19.5586C22.9781 19.5586 24.5953 17.0156 27.3258 17.0156C27.9586 17.0156 28.4976 17.1445 29.1656 17.5312C29.5875 17.7656 29.9625 17.5898 30.15 17.3203C30.3844 16.9805 30.3609 16.4648 29.8453 16.1719C29.0719 15.7148 28.2281 15.4922 27.3258 15.4922C24.15 15.4922 22.5328 18.0469 19.8492 18.0469C19.2164 18.0469 18.6773 17.9062 17.9976 17.5312C17.5992 17.2969 17.2125 17.4492 17.0133 17.7539C16.8023 18.082 16.8258 18.6094 17.318 18.8906C18.0914 19.3594 18.9469 19.5586 19.8492 19.5586Z" fill="black" fill-opacity="0.85"/>
 </g>
</svg>
