<?xml version="1.0" encoding="UTF-8"?>
<!--Generator: Apple Native CoreSVG 360-->
<!DOCTYPE svg
PUBLIC "-//W3C//DTD SVG 1.1//EN"
       "http://www.w3.org/Graphics/SVG/1.1/DTD/svg11.dtd">
<svg version="1.1" xmlns="http://www.w3.org/2000/svg" xmlns:xlink="http://www.w3.org/1999/xlink" viewBox="0 0 22.6061 23.8009">
 <g>
  <rect height="23.8009" opacity="0" width="22.6061" x="0" y="0"/>
  <path d="M19.9749 3.80864C19.9749 3.25786 19.5179 2.81255 18.9671 2.81255C18.4163 2.81255 17.971 3.25786 17.971 3.80864L17.971 5.17973C17.971 9.4102 20.1859 9.9727 20.1859 12.129C20.1859 14.2969 17.3851 14.8594 17.3851 18.9141C17.3851 20.2852 17.7601 21.3165 18.7327 22.5586C19.5765 23.6133 21.2405 22.5352 20.3499 21.3399C19.6468 20.4024 19.4007 19.7579 19.4007 18.7735C19.4007 15.9844 22.2015 15.1407 22.2015 12.129C22.2015 9.11723 19.9749 8.42583 19.9749 5.17973ZM16.5413 5.05083L21.4046 5.05083C22.0726 5.05083 22.3773 4.37114 22.014 3.85551L19.6585 0.421921C19.3069-0.12886 18.6624-0.152298 18.2874 0.421921L15.9202 3.85551C15.5804 4.35942 15.8616 5.05083 16.5413 5.05083Z" fill="black" fill-opacity="0.85"/>
  <path d="M12.0882 3.85551C12.0882 3.30473 11.6312 2.8477 11.0804 2.8477C10.5296 2.8477 10.0843 3.30473 10.0843 3.85551L10.0843 5.22661C10.0843 9.45708 12.2991 10.0079 12.2991 12.1641C12.2991 14.3321 9.49835 14.8946 9.49835 18.961C9.49835 20.3204 9.87335 21.3516 10.846 22.5938C11.6898 23.6602 13.3538 22.5821 12.4632 21.3868C11.7601 20.4375 11.514 19.793 11.514 18.8204C11.514 16.0196 14.3148 15.1758 14.3148 12.1641C14.3148 9.15239 12.0882 8.4727 12.0882 5.22661ZM8.6546 5.08598L13.5179 5.08598C14.1859 5.08598 14.4905 4.41801 14.1273 3.90239L11.7718 0.468796C11.4202-0.0819855 10.7757-0.105423 10.4007 0.468796L8.03351 3.90239C7.69367 4.4063 7.97492 5.08598 8.6546 5.08598Z" fill="black" fill-opacity="0.85"/>
  <path d="M4.20148 3.89067C4.20148 3.33989 3.74445 2.89458 3.19367 2.89458C2.64288 2.89458 2.19757 3.33989 2.19757 3.89067L2.19757 5.26176C2.19757 9.49223 4.41242 10.0547 4.41242 12.211C4.41242 14.379 1.61163 14.9415 1.61163 18.9961C1.61163 20.3672 1.98663 21.3985 2.95929 22.6407C3.80304 23.6954 5.4671 22.6172 4.57648 21.4336C3.87335 20.4844 3.62726 19.8399 3.62726 18.8555C3.62726 16.0665 6.42804 15.2227 6.42804 12.211C6.42804 9.19926 4.20148 8.50786 4.20148 5.26176ZM0.756166 5.13286L5.61945 5.13286C6.29913 5.13286 6.5921 4.45317 6.24054 3.93755L3.87335 0.515671C3.52179-0.0351105 2.88898-0.058548 2.50226 0.515671L0.146791 3.93755C-0.193053 4.44145 0.0764786 5.13286 0.756166 5.13286Z" fill="black" fill-opacity="0.85"/>
 </g>
</svg>
