<?xml version="1.0" encoding="UTF-8"?>
<!--Generator: Apple Native CoreSVG 360-->
<!DOCTYPE svg
PUBLIC "-//W3C//DTD SVG 1.1//EN"
       "http://www.w3.org/Graphics/SVG/1.1/DTD/svg11.dtd">
<svg version="1.1" xmlns="http://www.w3.org/2000/svg" xmlns:xlink="http://www.w3.org/1999/xlink" viewBox="0 0 28.8516 28.5117">
 <g>
  <rect height="28.5117" opacity="0" width="28.8516" x="0" y="0"/>
  <path d="M24.3281 23.1445C24.668 23.4844 24.668 24.0117 24.3281 24.3398C24 24.6797 23.4727 24.6797 23.1328 24.3398L21.4651 22.6721C21.899 22.3105 22.2988 21.9107 22.6604 21.4768ZM16.2891 15.1055L21.3055 20.1219C20.9456 20.557 20.5453 20.9573 20.1102 21.3172L15.082 16.2891L15.082 15.1055ZM13.4063 12.2227L13.4063 13.4297L12.2227 13.4297L7.19451 8.40154C7.5544 7.96642 7.9547 7.56612 8.38982 7.20623ZM5.36719 4.18359L7.03492 5.85133C6.60104 6.2129 6.20118 6.61276 5.83961 7.04664L4.17188 5.37891C3.83203 5.03906 3.83203 4.51172 4.17188 4.18359C4.5 3.85547 5.02734 3.84375 5.36719 4.18359Z" fill="black" fill-opacity="0.85"/>
  <path d="M3.16406 14.2617L3.20658 15.1055L0.84375 15.1055C0.375 15.1055 0 14.7305 0 14.2617C0 13.793 0.375 13.4297 0.84375 13.4297L3.20599 13.4297ZM28.5 14.2617C28.5 14.7305 28.125 15.1055 27.6562 15.1055L25.2934 15.1055C25.3252 14.829 25.3359 14.5466 25.3359 14.2617C25.3359 13.9808 25.3255 13.7023 25.294 13.4297L27.6562 13.4297C28.125 13.4297 28.5 13.793 28.5 14.2617ZM13.4063 13.9102L12.2109 15.1055L5.11691 15.1055C5.08724 14.8284 5.07422 14.5465 5.07422 14.2617C5.07422 13.9809 5.08688 13.7029 5.11632 13.4297L13.4063 13.4297ZM23.4258 14.2617L23.3831 15.1055L15.082 15.1055L15.082 14.625L16.2773 13.4297L23.3837 13.4297Z" fill="black" fill-opacity="0.85"/>
  <path d="M7.03492 22.6721L5.36719 24.3398C5.02734 24.6797 4.5 24.6797 4.17188 24.3398C3.83203 24.0117 3.83203 23.4844 4.17188 23.1445L5.83961 21.4768C6.20118 21.9107 6.60104 22.3105 7.03492 22.6721ZM13.4063 16.3008L8.38982 21.3172C7.9547 20.9573 7.5544 20.557 7.19451 20.1219L13.4063 13.9102ZM21.3055 8.40154L15.082 14.625L15.082 12.2344L20.1102 7.20623C20.5453 7.56611 20.9456 7.96642 21.3055 8.40154ZM24.3281 4.18359C24.668 4.51172 24.668 5.03906 24.3281 5.37891L22.6604 7.04664C22.2988 6.61276 21.899 6.2129 21.4651 5.85133L23.1328 4.18359C23.4727 3.84375 24 3.85547 24.3281 4.18359Z" fill="black" fill-opacity="0.85"/>
  <path d="M14.25 25.3477L15.082 25.3057L15.082 27.668C15.082 28.1367 14.7188 28.5117 14.25 28.5117C13.7812 28.5117 13.4062 28.1367 13.4062 27.668L13.4063 25.3051ZM15.082 5.12804L15.082 23.3954C14.8088 23.4248 14.5309 23.4375 14.25 23.4375C13.9652 23.4375 13.6834 23.4245 13.4063 23.3948L13.4063 5.12863C13.6834 5.09896 13.9652 5.08594 14.25 5.08594C14.5309 5.08594 14.8088 5.0986 15.082 5.12804ZM15.082 0.855469L15.082 3.21771C14.8094 3.1862 14.5309 3.17578 14.25 3.17578C13.9651 3.17578 13.6828 3.18649 13.4063 3.2183L13.4062 0.855469C13.4062 0.386719 13.7812 0.0117188 14.25 0.0117188C14.7188 0.0117188 15.082 0.386719 15.082 0.855469Z" fill="black" fill-opacity="0.85"/>
  <path d="M14.25 25.3477C20.3789 25.3477 25.3359 20.3906 25.3359 14.2617C25.3359 8.13281 20.3789 3.17578 14.25 3.17578C8.12109 3.17578 3.16406 8.13281 3.16406 14.2617C3.16406 20.3906 8.12109 25.3477 14.25 25.3477ZM14.25 23.4375C9.1875 23.4375 5.07422 19.3242 5.07422 14.2617C5.07422 9.19922 9.1875 5.08594 14.25 5.08594C19.3125 5.08594 23.4258 9.19922 23.4258 14.2617C23.4258 19.3242 19.3125 23.4375 14.25 23.4375Z" fill="black" fill-opacity="0.85"/>
 </g>
</svg>
