<?xml version="1.0" encoding="UTF-8"?>
<!--Generator: Apple Native CoreSVG 360-->
<!DOCTYPE svg
PUBLIC "-//W3C//DTD SVG 1.1//EN"
       "http://www.w3.org/Graphics/SVG/1.1/DTD/svg11.dtd">
<svg version="1.1" xmlns="http://www.w3.org/2000/svg" xmlns:xlink="http://www.w3.org/1999/xlink" viewBox="0 0 27.4102 23.543">
 <g>
  <rect height="23.543" opacity="0" width="27.4102" x="0" y="0"/>
  <path d="M5.22656 17.4023C8.80078 17.4023 9.94922 14.332 14.0859 14.332C16.2656 14.332 18.4336 15.4688 21.5625 15.4688C25.2188 15.4688 26.7773 14.7188 26.9414 13.7227C27.0586 13.3828 26.9297 13.0898 26.25 12.3867C25.6992 11.8242 25.3477 10.8984 25.1367 9.73828C24.1758 4.32422 19.4062 0 12.1172 0C4.80469 0 0 5.19141 0 10.8398C0 11.9766 0.164062 13.3008 0.375 14.0859C0.773438 15.6094 3.38672 17.4023 5.22656 17.4023ZM5.22656 15.6797C4.10156 15.6797 2.35547 14.6602 2.07422 13.5352C1.91016 12.8906 1.72266 11.8242 1.72266 10.8398C1.72266 6.17578 5.76562 1.64062 12.1172 1.64062C17.4727 1.64062 22.4648 4.93359 23.4141 9.79688C23.7422 11.5195 24.1055 12.457 24.8672 13.2539C24.9375 13.3359 24.9375 13.4297 24.8203 13.4766C24.2344 13.6875 23.6016 13.7578 21.5625 13.7578C18.5977 13.7578 16.2422 12.6797 14.0742 12.6797C9.80859 12.6797 8.53125 15.6797 5.22656 15.6797ZM9.46875 4.82812C9.91406 4.82812 10.2539 4.46484 10.2539 3.97266L10.2539 1.41797L8.66016 1.45312L8.66016 3.98438C8.66016 4.47656 9 4.82812 9.46875 4.82812ZM12.8789 5.37891C13.3242 5.37891 13.6875 5.01562 13.6875 4.52344L13.6875 1.05469L12.0703 1.05469L12.0703 4.54688C12.0703 5.02734 12.4219 5.37891 12.8789 5.37891ZM16.3008 4.83984C16.7578 4.83984 17.1094 4.47656 17.1094 3.97266L17.1094 1.55859L15.5039 1.5L15.5039 3.99609C15.5039 4.48828 15.8438 4.83984 16.3008 4.83984ZM3.48047 11.9297C3.90234 12.1172 4.35938 11.9531 4.54688 11.5312C4.74609 11.1328 4.54688 10.6758 4.10156 10.4766L1.07812 9.10547L0.46875 10.582ZM15.5156 23.4727C16.0312 23.3906 16.2656 23.0156 16.1836 22.5234C15.9727 21.4102 15.8203 20.4609 15.7969 18.9023C15.7617 17.4727 15.7969 15.7617 15.8789 13.9219L14.1562 13.793C14.0977 15.7148 14.0508 17.4844 14.1211 18.9727C14.2031 20.6836 14.3086 21.5156 14.5547 22.8047C14.6367 23.2734 15.0703 23.543 15.5156 23.4727ZM14.8359 20.6719L14.9531 18.7734L9.23438 14.9062L8.00391 16.0078Z" fill="black" fill-opacity="0.85"/>
 </g>
</svg>
