<?xml version="1.0" encoding="UTF-8"?>
<!--Generator: Apple Native CoreSVG 360-->
<!DOCTYPE svg
PUBLIC "-//W3C//DTD SVG 1.1//EN"
       "http://www.w3.org/Graphics/SVG/1.1/DTD/svg11.dtd">
<svg version="1.1" xmlns="http://www.w3.org/2000/svg" xmlns:xlink="http://www.w3.org/1999/xlink" viewBox="0 0 23.8711 26.3848">
 <g>
  <rect height="26.3848" opacity="0" width="23.8711" x="0" y="0"/>
  <path d="M1.33594 20.7451L10.4297 26.0068C11.2734 26.499 12.2461 26.499 13.1016 26.0068L22.1836 20.7451C23.0273 20.2646 23.5195 19.4092 23.5195 18.4365L23.5195 7.93652C23.5195 6.96387 23.0273 6.1084 22.1836 5.61621L13.1016 0.37793C12.2461-0.125977 11.2734-0.125977 10.4297 0.37793L1.33594 5.61621C0.492188 6.1084 0 6.96387 0 7.93652L0 18.4365C0 19.4092 0.492188 20.2646 1.33594 20.7451ZM1.88672 18.0967L1.88672 8.27637C1.88672 7.78418 2.14453 7.35059 2.57812 7.09277L11.0742 2.18262C11.5078 1.9248 12.0117 1.9248 12.4453 2.18262L20.9531 7.09277C21.3867 7.35059 21.6328 7.78418 21.6328 8.27637L21.6328 18.0967C21.6328 18.5889 21.3867 19.0225 20.9531 19.2803L12.457 24.1904C12.0117 24.4482 11.5078 24.4482 11.0742 24.1904L2.57812 19.2803C2.14453 19.0225 1.88672 18.5889 1.88672 18.0967Z" fill="black" fill-opacity="0.85"/>
 </g>
</svg>
