<?xml version="1.0" encoding="UTF-8"?>
<!--Generator: Apple Native CoreSVG 360-->
<!DOCTYPE svg
PUBLIC "-//W3C//DTD SVG 1.1//EN"
       "http://www.w3.org/Graphics/SVG/1.1/DTD/svg11.dtd">
<svg version="1.1" xmlns="http://www.w3.org/2000/svg" xmlns:xlink="http://www.w3.org/1999/xlink" viewBox="0 0 33.5859 29.2148">
 <g>
  <rect height="29.2148" opacity="0" width="33.5859" x="0" y="0"/>
  <path d="M17.4141 4.19531L17.4141 7.04C16.7783 7.16334 16.1846 7.32185 15.6328 7.51474L15.6328 4.23047C15.6328 3.23438 15.082 2.66016 14.0391 2.66016L4.62891 2.66016C3.58594 2.66016 3.02344 3.23438 3.02344 4.23047L3.02344 18.0234C3.02344 19.0195 3.58594 19.5938 4.62891 19.5938L9.26284 19.5937C9.34132 20.2022 9.47948 20.7969 9.6637 21.375L4.52344 21.375C2.35547 21.375 1.24219 20.25 1.24219 18.0586L1.24219 4.19531C1.24219 2.01562 2.35547 0.878906 4.52344 0.878906L14.1328 0.878906C16.3008 0.878906 17.4141 2.01562 17.4141 4.19531ZM11.6157 10.3216C11.0799 10.9564 10.6308 11.6643 10.2699 12.4238C9.99564 12.2581 9.6733 12.1641 9.32812 12.1641C8.30859 12.1641 7.48828 12.9844 7.48828 14.0039C7.48828 14.9809 8.24811 15.7816 9.23474 15.8274C9.13826 16.4192 9.09375 17.025 9.09375 17.6367C9.09375 17.8654 9.09995 18.0934 9.12909 18.3181C6.83032 18.2191 5.00391 16.3273 5.00391 14.0039C5.00391 11.6016 6.9375 9.66797 9.32812 9.66797C10.1702 9.66797 10.9546 9.90553 11.6157 10.3216ZM11.6953 6.36328C11.6953 7.67578 10.6172 8.74219 9.31641 8.74219C8.01562 8.74219 6.9375 7.67578 6.9375 6.36328C6.9375 5.0625 8.01562 3.99609 9.31641 3.99609C10.6289 3.99609 11.6953 5.0625 11.6953 6.36328ZM8.10938 6.36328C8.10938 7.03125 8.66016 7.57031 9.31641 7.57031C9.98438 7.57031 10.5234 7.03125 10.5234 6.36328C10.5234 5.70703 9.98438 5.16797 9.31641 5.16797C8.66016 5.16797 8.10938 5.70703 8.10938 6.36328Z" fill="black" fill-opacity="0.85"/>
  <path d="M21.3398 27.6211C25.2891 27.6211 26.9414 27.1055 28.4883 25.6523C30.6914 23.6484 31.9922 20.7188 31.9922 17.6367C31.9922 15.1406 31.1367 12.7617 29.6016 11.0273C29.1445 10.4414 28.3594 10.3242 27.6914 10.7227C26.3906 11.6836 24.7734 12.3516 21.3398 12.3516C17.918 12.3516 16.2891 11.6836 14.9883 10.7227C14.3203 10.3242 13.5469 10.4297 13.0781 11.0273C11.543 12.7617 10.6875 15.1289 10.6875 17.6367C10.6875 20.7188 11.9766 23.6484 14.1797 25.6523C15.7383 27.1055 17.4023 27.6211 21.3398 27.6211ZM21.3398 25.6172C18.0117 25.6172 16.7344 25.3008 15.5508 24.1758C13.7227 22.5117 12.7031 20.1562 12.7031 17.6367C12.7031 15.5273 13.4414 13.4766 14.9766 11.8477L13.4883 12.2578C15.082 13.6055 17.707 14.3555 21.3398 14.3555C24.9844 14.3555 27.6094 13.6055 29.2031 12.2461L27.6914 11.8477C29.25 13.4648 29.9883 15.5156 29.9883 17.6367C29.9883 20.1562 28.9453 22.5117 27.1289 24.1758C25.9336 25.3008 24.668 25.6172 21.3398 25.6172Z" fill="black" fill-opacity="0.425"/>
  <path d="M21.3398 11.0156C24.2695 11.0156 26.3555 10.4297 26.3555 9.65625C26.3555 8.87109 24.2695 8.29688 21.3398 8.29688C18.3984 8.29688 16.3242 8.87109 16.3242 9.65625C16.3242 10.4297 18.3984 11.0156 21.3398 11.0156Z" fill="black" fill-opacity="0.85"/>
 </g>
</svg>
