<?xml version="1.0" encoding="UTF-8"?>
<!--Generator: Apple Native CoreSVG 360-->
<!DOCTYPE svg
PUBLIC "-//W3C//DTD SVG 1.1//EN"
       "http://www.w3.org/Graphics/SVG/1.1/DTD/svg11.dtd">
<svg version="1.1" xmlns="http://www.w3.org/2000/svg" xmlns:xlink="http://www.w3.org/1999/xlink" viewBox="0 0 29.6602 30.2695">
 <g>
  <rect height="30.2695" opacity="0" width="29.6602" x="0" y="0"/>
  <path d="M16.4176 3.86719L14.449 3.86719C14.2076 3.53842 13.8027 3.36328 13.2422 3.36328L4.5 3.36328C3.53906 3.36328 3.02344 3.89062 3.02344 4.82812L3.02344 17.9648C3.02344 18.9023 3.53906 19.4062 4.5 19.4062L9.25781 19.4062L9.25781 21.1875L4.40625 21.1875C2.32031 21.1875 1.24219 20.1094 1.24219 18L1.24219 4.78125C1.24219 2.67188 2.33203 1.58203 4.40625 1.58203L13.3359 1.58203C15.0947 1.58203 16.137 2.35679 16.4176 3.86719ZM9.25781 10.0154L9.25781 12.4893C9.13451 12.46 9.0049 12.4453 8.87109 12.4453C7.92188 12.4453 7.18359 13.1836 7.18359 14.1211C7.18359 15.0352 7.91016 15.7734 8.87109 15.7734C9.00523 15.7734 9.1348 15.7591 9.25781 15.7304L9.25781 18.1918C9.13101 18.2051 9.00184 18.2109 8.87109 18.2109C6.57422 18.2109 4.74609 16.3828 4.74609 14.0977C4.74609 11.8359 6.58594 9.99609 8.87109 9.99609C9.00177 9.99609 9.13092 10.002 9.25781 10.0154ZM10.4778 5.18783C10.1983 5.47601 9.96572 5.81095 9.78257 6.18945C9.58114 5.90511 9.25153 5.71875 8.87109 5.71875C8.23828 5.71875 7.74609 6.23438 7.74609 6.85547C7.74609 7.47656 8.23828 7.96875 8.87109 7.96875C9.02724 7.96875 9.17482 7.93878 9.30844 7.88407C9.27315 8.14104 9.25781 8.41286 9.25781 8.69531L9.25781 9.12939C9.1329 9.15307 9.00342 9.16406 8.87109 9.16406C7.59375 9.16406 6.5625 8.12109 6.5625 6.85547C6.5625 5.57812 7.59375 4.53516 8.87109 4.53516C9.50033 4.53516 10.0653 4.78367 10.4778 5.18783Z" fill="black" fill-opacity="0.85"/>
  <path d="M10.8633 8.69531L10.8633 25.4531C10.8633 27.5742 11.918 28.6641 14.0273 28.6641L24.8789 28.6641C27 28.6641 28.0664 27.5742 28.0664 25.4531L28.0664 8.69531C28.0664 6.5625 27 5.47266 24.8789 5.47266L14.0273 5.47266C11.9062 5.47266 10.8633 6.5625 10.8633 8.69531ZM12.7383 8.70703C12.7383 7.81641 13.1953 7.35938 14.0977 7.35938L24.8086 7.35938C25.7227 7.35938 26.1797 7.81641 26.1797 8.70703L26.1797 25.4297C26.1797 26.3203 25.7109 26.7773 24.8086 26.7773L14.0977 26.7773C13.1953 26.7773 12.7383 26.3203 12.7383 25.4297ZM19.4531 14.2031C20.8828 14.2031 22.043 13.0547 22.043 11.625C22.043 10.207 20.8945 9.08203 19.4531 9.08203C18.0352 9.08203 16.8867 10.1953 16.8867 11.625C16.8867 13.0664 18.0352 14.2031 19.4531 14.2031ZM19.4531 12.8906C18.7617 12.8906 18.2109 12.3281 18.2109 11.625C18.2109 10.9219 18.75 10.3711 19.4531 10.3711C20.1445 10.3711 20.707 10.9453 20.707 11.625C20.707 12.3281 20.1562 12.8906 19.4531 12.8906ZM19.4531 25.0781C22.0078 25.0781 24.0586 23.0391 24.0586 20.4727C24.0586 17.918 22.0078 15.8789 19.4531 15.8789C16.9102 15.8789 14.8594 17.9297 14.8594 20.4727C14.8594 23.0273 16.9102 25.0781 19.4531 25.0781ZM19.4531 22.3594C18.4102 22.3594 17.5664 21.5391 17.5664 20.4727C17.5664 19.3945 18.3984 18.5625 19.4531 18.5625C20.5312 18.5625 21.3516 19.3945 21.3516 20.4727C21.3516 21.5391 20.5312 22.3594 19.4531 22.3594Z" fill="black" fill-opacity="0.85"/>
 </g>
</svg>
