<?xml version="1.0" encoding="UTF-8"?>
<!--Generator: Apple Native CoreSVG 360-->
<!DOCTYPE svg
PUBLIC "-//W3C//DTD SVG 1.1//EN"
       "http://www.w3.org/Graphics/SVG/1.1/DTD/svg11.dtd">
<svg version="1.1" xmlns="http://www.w3.org/2000/svg" xmlns:xlink="http://www.w3.org/1999/xlink" viewBox="0 0 35.3086 15.6211">
 <g>
  <rect height="15.6211" opacity="0" width="35.3086" x="0" y="0"/>
  <path d="M3.62109 13.6523L31.3242 13.6523C33.7266 13.6523 34.957 12.4336 34.957 10.0781L34.957 3.57422C34.957 1.21875 33.7266 0 31.3242 0L3.62109 0C1.24219 0 0 1.21875 0 3.57422L0 10.0781C0 12.4336 1.24219 13.6523 3.62109 13.6523ZM3.62109 11.7656C2.55469 11.7656 1.88672 11.1094 1.88672 10.0781L1.88672 3.57422C1.88672 2.54297 2.55469 1.88672 3.62109 1.88672L31.3242 1.88672C32.3906 1.88672 33.0703 2.54297 33.0703 3.57422L33.0703 10.0781C33.0703 11.1094 32.3906 11.7656 31.3242 11.7656ZM6.97266 9.35156C8.37891 9.35156 9.51562 8.21484 9.51562 6.80859C9.51562 5.39062 8.37891 4.25391 6.97266 4.25391C5.55469 4.25391 4.41797 5.39062 4.41797 6.80859C4.41797 8.21484 5.55469 9.35156 6.97266 9.35156ZM12.7734 9.36328L22.1719 9.36328C22.7578 9.36328 23.1328 8.98828 23.1328 8.41406L23.1328 5.25C23.1328 4.67578 22.7578 4.28906 22.1719 4.28906L12.7734 4.28906C12.1992 4.28906 11.8125 4.67578 11.8125 5.25L11.8125 8.41406C11.8125 8.98828 12.1992 9.36328 12.7734 9.36328ZM27.9844 9.35156C29.3906 9.35156 30.5273 8.21484 30.5273 6.80859C30.5273 5.39062 29.3906 4.25391 27.9844 4.25391C26.5781 4.25391 25.4414 5.39062 25.4414 6.80859C25.4414 8.21484 26.5781 9.35156 27.9844 9.35156ZM8.68359 12.9258L2.60156 12.9258L2.60156 14.6484C2.60156 15.2227 2.98828 15.6094 3.5625 15.6094L7.72266 15.6094C8.30859 15.6094 8.68359 15.2227 8.68359 14.6484ZM26.2734 12.9258L26.2734 14.6484C26.2734 15.2227 26.6484 15.6094 27.2344 15.6094L31.3828 15.6094C31.9688 15.6094 32.3555 15.2227 32.3555 14.6484L32.3555 12.9258Z" fill="black" fill-opacity="0.85"/>
 </g>
</svg>
