<?xml version="1.0" encoding="UTF-8"?>
<!--Generator: Apple Native CoreSVG 360-->
<!DOCTYPE svg
PUBLIC "-//W3C//DTD SVG 1.1//EN"
       "http://www.w3.org/Graphics/SVG/1.1/DTD/svg11.dtd">
<svg version="1.1" xmlns="http://www.w3.org/2000/svg" xmlns:xlink="http://www.w3.org/1999/xlink" viewBox="0 0 31.2891 30.457">
 <g>
  <rect height="30.457" opacity="0" width="31.2891" x="0" y="0"/>
  <path d="M17.3438 4.45312L17.3437 7.99219L15.5742 7.99219L15.5742 4.5C15.5742 3.71484 15.1406 3.29297 14.3555 3.29297L4.24219 3.29297C3.45703 3.29297 3.01172 3.71484 3.01172 4.5L3.01172 19.9336C3.01172 20.7188 3.45703 21.1406 4.24219 21.1406L8.75391 21.1406L8.75391 22.9102L4.14844 22.9102C2.25 22.9102 1.24219 21.9023 1.24219 19.9688L1.24219 4.45312C1.24219 2.53125 2.25 1.52344 4.14844 1.52344L14.4375 1.52344C16.3359 1.52344 17.3438 2.53125 17.3438 4.45312ZM9.3606 11.0658C8.99909 11.8582 8.84207 12.7364 8.78398 13.6775C8.04855 13.8892 7.53516 14.5551 7.53516 15.3633C7.53516 16.151 8.03471 16.808 8.75391 17.0291L8.75391 19.6155C6.63134 19.3572 5.00391 17.5699 5.00391 15.3633C5.00391 12.9609 6.91406 11.0625 9.29297 11.0625C9.31582 11.0625 9.33862 11.0627 9.3606 11.0658ZM11.6836 7.25391C11.6836 8.57812 10.6289 9.64453 9.29297 9.64453C7.95703 9.64453 6.89062 8.58984 6.89062 7.25391C6.89062 5.92969 7.96875 4.86328 9.29297 4.86328C10.6289 4.86328 11.6836 5.92969 11.6836 7.25391ZM8.15625 7.25391C8.15625 7.875 8.67188 8.39062 9.29297 8.39062C9.92578 8.39062 10.4297 7.875 10.4297 7.25391C10.4297 6.63281 9.91406 6.10547 9.29297 6.10547C8.66016 6.10547 8.15625 6.60938 8.15625 7.25391Z" fill="black" fill-opacity="0.85"/>
  <path d="M15.5273 28.8516L24.5391 28.8516C26.1797 28.8516 27.5859 28.6992 28.5703 27.7148C29.5547 26.7188 29.6953 25.3477 29.6953 23.6953L29.6953 14.7539C29.6953 13.1016 29.5547 11.7188 28.5703 10.7344C27.5742 9.75 26.1797 9.59766 24.5391 9.59766L15.5039 9.59766C13.875 9.59766 12.4805 9.75 11.4961 10.7344C10.5117 11.7305 10.3594 13.1016 10.3594 14.7305L10.3594 23.6953C10.3594 25.3477 10.5117 26.7305 11.4961 27.7148C12.4805 28.6992 13.875 28.8516 15.5273 28.8516ZM15.0117 22.1836C14.5781 22.1836 14.2852 21.7852 13.9219 21.3047C13.5352 20.7422 13.2188 19.8633 13.2188 19.043C13.2188 17.7188 14.0859 17.0273 14.9297 17.0273C15.3867 17.0273 15.7617 17.2852 16.043 17.2852C16.3125 17.2852 16.7344 16.9922 17.25 16.9922C17.4492 16.9922 18.1641 17.0273 18.6211 17.6719C18.5742 17.707 17.8711 18.0938 17.8711 18.9727C17.8711 19.9922 18.7734 20.3555 18.7852 20.3555C18.7852 20.3789 18.6445 20.8594 18.3281 21.3281C18.0234 21.75 17.7188 22.1836 17.25 22.1836C16.793 22.1836 16.6641 21.8906 16.1367 21.8906C15.6094 21.8906 15.4336 22.1836 15.0117 22.1836ZM16.0898 16.9102C16.043 16.9102 16.0195 16.9102 15.9961 16.8984C15.9844 16.8867 15.9844 16.8164 15.9844 16.7812C15.9844 16.0312 16.6875 15.3633 17.3672 15.3398C17.3789 15.375 17.3906 15.4336 17.3789 15.4688C17.3906 16.2188 16.7227 16.9102 16.0898 16.9102ZM21.3164 22.1602C20.3555 22.1602 19.9688 21.7734 19.9688 20.8477L19.9688 18.082L19.2656 18.082L19.2656 17.2383L19.9688 17.2383L19.9688 16.1016L21 16.1016L21 17.2383L21.9258 17.2383L21.9258 18.082L21 18.082L21 20.7305C21 21.1172 21.1758 21.3047 21.5508 21.3047C21.6445 21.3047 21.8086 21.293 21.8672 21.2812L21.9023 21.2812L21.9023 22.1016L21.8789 22.125C21.7617 22.1484 21.5391 22.1602 21.3164 22.1602ZM24.0703 22.125L22.3242 17.2383L23.4375 17.2383L24.6094 21.0469L25.7812 17.2383L26.8477 17.2383L25.1367 22.125Z" fill="black" fill-opacity="0.85"/>
 </g>
</svg>
