<?xml version="1.0" encoding="UTF-8"?>
<!--Generator: Apple Native CoreSVG 360-->
<!DOCTYPE svg
PUBLIC "-//W3C//DTD SVG 1.1//EN"
       "http://www.w3.org/Graphics/SVG/1.1/DTD/svg11.dtd">
<svg version="1.1" xmlns="http://www.w3.org/2000/svg" xmlns:xlink="http://www.w3.org/1999/xlink" viewBox="0 0 31.2539 30.4102">
 <g>
  <rect height="30.4102" opacity="0" width="31.2539" x="0" y="0"/>
  <path d="M17.2182 3.35619C16.5427 3.45514 15.9132 3.59247 15.3284 3.77034C15.0635 3.43745 14.6341 3.25781 14.0508 3.25781L4.64062 3.25781C3.59766 3.25781 3.03516 3.83203 3.03516 4.82812L3.03516 18.6211C3.03516 19.6172 3.59766 20.1914 4.64062 20.1914L9.19922 20.1914L9.19922 21.293C9.19922 21.5274 9.20457 21.7571 9.22586 21.9727L4.53516 21.9727C2.36719 21.9727 1.25391 20.8477 1.25391 18.6562L1.25391 4.79297C1.25391 2.61328 2.36719 1.47656 4.53516 1.47656L14.1445 1.47656C15.7709 1.47656 16.8037 2.11628 17.2182 3.35619ZM9.37654 10.2675C9.25831 10.9055 9.19922 11.6085 9.19922 12.375L9.19922 12.7688C8.24567 12.8386 7.5 13.6295 7.5 14.6016C7.5 15.5629 8.23574 16.3536 9.19922 16.4227L9.19922 18.9187C6.87317 18.8488 5.01562 16.9447 5.01562 14.6016C5.01562 12.1992 6.94922 10.2656 9.33984 10.2656C9.35224 10.2656 9.36462 10.2657 9.37654 10.2675ZM11.4965 5.99395C11.2849 6.20014 11.0867 6.42207 10.8984 6.65625C10.7617 6.83096 10.6319 7.01394 10.5102 7.2065C10.5266 7.12727 10.5352 7.04513 10.5352 6.96094C10.5352 6.30469 9.99609 5.76562 9.32812 5.76562C8.67188 5.76562 8.12109 6.30469 8.12109 6.96094C8.12109 7.62891 8.67188 8.16797 9.32812 8.16797C9.64658 8.16797 9.93574 8.04544 10.1503 7.84389C9.9209 8.29032 9.73026 8.78143 9.58648 9.32489C9.5017 9.33504 9.41541 9.33984 9.32812 9.33984C8.02734 9.33984 6.94922 8.27344 6.94922 6.96094C6.94922 5.66016 8.02734 4.59375 9.32812 4.59375C10.2933 4.59375 11.1254 5.17046 11.4965 5.99395Z" fill="black" fill-opacity="0.85"/>
  <path d="M20.2266 28.8164C26.6836 28.8164 29.6484 26.5195 29.6484 21.293L29.6484 12.375C29.6484 10.1719 29.1211 8.68359 28.2891 7.62891C28.0078 7.27734 27.5625 7.25391 27.2109 7.53516C26.0977 8.51953 23.1562 9.36328 20.2266 9.36328C17.2969 9.36328 14.3555 8.51953 13.2422 7.53516C12.8906 7.25391 12.4336 7.27734 12.1523 7.62891C11.332 8.68359 10.793 10.1719 10.793 12.375L10.793 21.293C10.793 26.5195 13.7695 28.8164 20.2266 28.8164ZM20.2266 26.9297C14.8008 26.9297 12.6797 25.1133 12.6797 21.1055L12.6797 12.4805C12.6797 11.4492 12.8555 10.4883 13.3008 9.65625C14.6953 10.7461 17.3203 11.25 20.2266 11.25C23.1328 11.25 25.7578 10.7461 27.1523 9.65625C27.5859 10.4883 27.7617 11.4492 27.7617 12.4805L27.7617 21.1055C27.7617 25.1133 25.6406 26.9297 20.2266 26.9297Z" fill="black" fill-opacity="0.425"/>
  <path d="M20.2266 7.75781C23.2266 7.75781 25.6406 7.10156 25.6406 6.25781C25.6406 5.39062 23.2266 4.74609 20.2266 4.74609C17.2148 4.74609 14.8008 5.39062 14.8008 6.25781C14.8008 7.10156 17.2148 7.75781 20.2266 7.75781Z" fill="black" fill-opacity="0.85"/>
 </g>
</svg>
