<?xml version="1.0" encoding="UTF-8"?>
<!--Generator: Apple Native CoreSVG 360-->
<!DOCTYPE svg
PUBLIC "-//W3C//DTD SVG 1.1//EN"
       "http://www.w3.org/Graphics/SVG/1.1/DTD/svg11.dtd">
<svg version="1.1" xmlns="http://www.w3.org/2000/svg" xmlns:xlink="http://www.w3.org/1999/xlink" viewBox="0 0 24.6328 25.0195">
 <g>
  <rect height="25.0195" opacity="0" width="24.6328" x="0" y="0"/>
  <path d="M0.9375 25.0195L23.332 25.0195C23.8477 25.0195 24.2812 24.5977 24.2812 24.0703C24.2812 23.5547 23.8477 23.1328 23.332 23.1328L0.9375 23.1328C0.421875 23.1328 0 23.5547 0 24.0703C0 24.5977 0.421875 25.0195 0.9375 25.0195Z" fill="black" fill-opacity="0.85"/>
  <path d="M5.74219 20.25L9.63281 18.6445C9.92578 18.5273 10.0664 18.4219 10.2422 18.2578L21.457 7.11328C22.5586 6.02344 22.5469 4.74609 21.4336 3.62109L18.9727 1.13672C17.8477 0.0234375 16.5703 0 15.4688 1.08984L4.24219 12.2227C4.06641 12.3867 3.96094 12.5273 3.84375 12.8086L2.20312 16.6992C1.95703 17.2852 2.01562 17.8711 2.46094 18.3164L4.125 19.9922C4.55859 20.4258 5.14453 20.5078 5.74219 20.25ZM5.56641 18.4336C5.33203 18.5156 5.15625 18.5273 4.94531 18.3047L4.14844 17.5078C3.9375 17.2969 3.9375 17.1211 4.03125 16.8984L5.48438 13.5L16.6523 2.41406C16.9922 2.08594 17.3906 2.07422 17.707 2.39062L20.1797 4.88672C20.4961 5.20312 20.4727 5.60156 20.1445 5.92969L8.97656 17.0156ZM1.17188 20.8359L2.58984 20.8359C2.91797 20.8359 3.05859 20.7773 3.31641 20.5664L4.41797 19.7227L2.73047 18L0.832031 20.0039C0.480469 20.3789 0.65625 20.8359 1.17188 20.8359ZM4.41797 13.4883L9.21094 18.3164L10.3125 17.2148L5.51953 12.3867ZM14.1445 3.84375L18.9375 8.66016L20.0391 7.58203L15.2461 2.75391Z" fill="black" fill-opacity="0.85"/>
 </g>
</svg>
