<?xml version="1.0" encoding="UTF-8"?>
<!--Generator: Apple Native CoreSVG 360-->
<!DOCTYPE svg
PUBLIC "-//W3C//DTD SVG 1.1//EN"
       "http://www.w3.org/Graphics/SVG/1.1/DTD/svg11.dtd">
<svg version="1.1" xmlns="http://www.w3.org/2000/svg" xmlns:xlink="http://www.w3.org/1999/xlink" viewBox="0 0 24.4453 18.4336">
 <g>
  <rect height="18.4336" opacity="0" width="24.4453" x="0" y="0"/>
  <path d="M12.0352 18.4219C18.8438 18.4219 24.0938 15.375 24.0938 11.6367L24.0938 5.48438L22.207 7.125L22.207 11.6367C22.207 14.3438 18.3047 16.5352 12.0352 16.5352C5.77734 16.5352 1.875 14.3438 1.875 11.6367L1.875 7.125L0 5.48438L0 11.6367C0 15.375 5.23828 18.4219 12.0352 18.4219ZM12.0352 10.9219C18.7969 10.9219 24.0938 8.48438 24.0938 5.37891C24.0938 2.37891 18.7969 0 12.0352 0C5.28516 0 0 2.37891 0 5.37891C0 8.48438 5.28516 10.9219 12.0352 10.9219ZM12.0352 9.03516C6.31641 9.03516 1.875 7.42969 1.875 5.37891C1.875 3.41016 6.31641 1.88672 12.0352 1.88672C17.7656 1.88672 22.207 3.41016 22.207 5.37891C22.207 7.42969 17.7656 9.03516 12.0352 9.03516Z" fill="black" fill-opacity="0.85"/>
 </g>
</svg>
