<?xml version="1.0" encoding="UTF-8"?>
<!--Generator: Apple Native CoreSVG 360-->
<!DOCTYPE svg
PUBLIC "-//W3C//DTD SVG 1.1//EN"
       "http://www.w3.org/Graphics/SVG/1.1/DTD/svg11.dtd">
<svg version="1.1" xmlns="http://www.w3.org/2000/svg" xmlns:xlink="http://www.w3.org/1999/xlink" viewBox="0 0 33.5859 30.8789">
 <g>
  <rect height="30.8789" opacity="0" width="33.5859" x="0" y="0"/>
  <path d="M18.7383 4.51172C19.456 5.41142 19.947 6.6512 20.0675 8.39029C19.4008 8.4209 18.7701 8.48185 18.1727 8.57058C18.1015 7.83859 17.9218 7.15366 17.6016 6.53906C16.207 7.62891 13.5703 8.12109 10.6758 8.12109C7.76953 8.12109 5.13281 7.62891 3.73828 6.53906C3.30469 7.37109 3.12891 8.33203 3.12891 9.36328L3.12891 17.9883C3.12891 21.8395 5.09607 23.6384 9.93866 23.7966C10.1748 24.4613 10.4805 25.0968 10.8462 25.6957C10.7922 25.699 10.7341 25.6992 10.6758 25.6992C4.72266 25.6992 1.24219 23.8359 1.24219 18.1641L1.24219 9.25781C1.24219 7.05469 1.76953 5.55469 2.60156 4.51172C2.88281 4.14844 3.32812 4.125 3.67969 4.41797C4.80469 5.40234 7.73438 6.23438 10.6758 6.23438C13.6055 6.23438 16.5469 5.40234 17.6602 4.41797C18.0117 4.125 18.457 4.14844 18.7383 4.51172Z" fill="black" fill-opacity="0.425"/>
  <path d="M16.0898 3.12891C16.0898 3.98438 13.6758 4.64062 10.6758 4.64062C7.66406 4.64062 5.25 3.98438 5.25 3.12891C5.25 2.27344 7.66406 1.62891 10.6758 1.62891C13.6758 1.62891 16.0898 2.27344 16.0898 3.12891Z" fill="black" fill-opacity="0.85"/>
  <path d="M21.3398 29.2734C25.2891 29.2734 26.9414 28.7578 28.4883 27.3047C30.6914 25.3008 31.9922 22.3828 31.9922 19.3008C31.9922 16.8047 31.1367 14.4141 29.6016 12.6797C29.1445 12.1055 28.3594 11.9766 27.6914 12.3867C26.3906 13.3359 24.7734 14.0039 21.3398 14.0039C17.918 14.0039 16.2891 13.3359 14.9883 12.3867C14.3203 11.9766 13.5469 12.0938 13.0781 12.6797C11.543 14.4141 10.6875 16.793 10.6875 19.3008C10.6875 22.3828 11.9766 25.3008 14.1797 27.3047C15.7383 28.7578 17.4023 29.2734 21.3398 29.2734ZM21.3398 27.2695C18.0117 27.2695 16.7344 26.9531 15.5508 25.8398C13.7227 24.1641 12.7031 21.8086 12.7031 19.3008C12.7031 17.1797 13.4414 15.1289 14.9766 13.5L13.4883 13.9102C15.082 15.2578 17.707 16.0078 21.3398 16.0078C24.9844 16.0078 27.6094 15.2578 29.2031 13.8984L27.6914 13.5C29.25 15.1172 29.9883 17.168 29.9883 19.3008C29.9883 21.8086 28.9453 24.1641 27.1289 25.8398C25.9336 26.9531 24.668 27.2695 21.3398 27.2695Z" fill="black" fill-opacity="0.425"/>
  <path d="M21.3398 12.6797C24.2695 12.6797 26.3555 12.082 26.3555 11.3203C26.3555 10.5352 24.2695 9.94922 21.3398 9.94922C18.3984 9.94922 16.3242 10.5352 16.3242 11.3203C16.3242 12.082 18.3984 12.6797 21.3398 12.6797Z" fill="black" fill-opacity="0.85"/>
 </g>
</svg>
