<?xml version="1.0" encoding="UTF-8"?>
<!--Generator: Apple Native CoreSVG 360-->
<!DOCTYPE svg
PUBLIC "-//W3C//DTD SVG 1.1//EN"
       "http://www.w3.org/Graphics/SVG/1.1/DTD/svg11.dtd">
<svg version="1.1" xmlns="http://www.w3.org/2000/svg" xmlns:xlink="http://www.w3.org/1999/xlink" viewBox="0 0 33.4688 28.7461">
 <g>
  <rect height="28.7461" opacity="0" width="33.4688" x="0" y="0"/>
  <path d="M5.33203 4.24219C6.64453 5.20312 8.30859 5.87109 11.7422 5.87109C11.9979 5.87109 12.2435 5.86734 12.4764 5.85867C11.7822 6.34711 11.1622 6.92399 10.5827 7.58606C8.25341 7.47133 6.16608 6.98352 4.67578 5.97656C3.50391 7.44141 2.96484 9.21094 2.96484 11.0273C2.96484 13.5703 4.03125 15.9727 5.87109 17.6719C6.3453 18.1207 6.83328 18.444 7.41263 18.6726C7.51048 19.3257 7.67079 19.9625 7.88056 20.5798C6.51713 20.2846 5.58483 19.7606 4.6875 18.9375C2.51953 16.9453 1.24219 14.0742 1.24219 11.0273C1.24219 8.51953 2.10938 6.1875 3.59766 4.48828C4.01953 3.94922 4.73438 3.85547 5.33203 4.24219Z" fill="black" fill-opacity="0.425"/>
  <path d="M16.7695 3.03516C16.7695 3.80859 14.6953 4.40625 11.7422 4.40625C8.8125 4.40625 6.73828 3.80859 6.73828 3.03516C6.73828 2.26172 8.8125 1.67578 11.7422 1.67578C14.6953 1.67578 16.7695 2.26172 16.7695 3.03516Z" fill="black" fill-opacity="0.85"/>
  <path d="M20.332 27.1406C24.5859 27.1406 26.3906 26.6016 28.0898 25.0195C30.4688 22.8398 31.875 19.6875 31.875 16.3477C31.875 13.6406 30.9609 11.0508 29.2734 9.16406C28.8281 8.57812 28.043 8.48438 27.3867 8.88281C25.9453 9.9375 24.0117 10.6641 20.332 10.6641C16.6523 10.6641 14.7188 9.9375 13.2773 8.88281C12.6211 8.48438 11.8477 8.57812 11.3906 9.16406C9.70312 11.0508 8.80078 13.6406 8.80078 16.3477C8.80078 19.6875 10.1953 22.8398 12.5859 25.0195C14.2852 26.6016 16.0781 27.1406 20.332 27.1406ZM20.332 25.2539C16.6172 25.2539 15.1875 24.8789 13.8633 23.6367C11.8359 21.7734 10.6875 19.1484 10.6875 16.3477C10.6875 14.1094 11.4141 11.9766 12.9258 10.2539L12.082 10.4766C13.9688 11.9414 16.9453 12.5508 20.332 12.5508C23.7188 12.5508 26.6953 11.9414 28.5938 10.4766L27.7383 10.2539C29.25 11.9766 29.9883 14.1094 29.9883 16.3477C29.9883 19.1484 28.8281 21.7734 26.8008 23.6367C25.4766 24.8789 24.0586 25.2539 20.332 25.2539Z" fill="black" fill-opacity="0.425"/>
  <path d="M20.332 9.05859C23.5898 9.05859 25.875 8.40234 25.875 7.55859C25.875 6.71484 23.5898 6.07031 20.332 6.07031C17.0742 6.07031 14.7891 6.71484 14.7891 7.55859C14.7891 8.40234 17.0742 9.05859 20.332 9.05859Z" fill="black" fill-opacity="0.85"/>
 </g>
</svg>
