<?xml version="1.0" encoding="UTF-8"?>
<!--Generator: Apple Native CoreSVG 360-->
<!DOCTYPE svg
PUBLIC "-//W3C//DTD SVG 1.1//EN"
       "http://www.w3.org/Graphics/SVG/1.1/DTD/svg11.dtd">
<svg version="1.1" xmlns="http://www.w3.org/2000/svg" xmlns:xlink="http://www.w3.org/1999/xlink" viewBox="0 0 30.9023 24.082">
 <g>
  <rect height="24.082" opacity="0" width="30.9023" x="0" y="0"/>
  <path d="M23.3438 2.89453C24.1758 3.94922 24.7031 5.4375 24.7031 7.64062L24.7031 16.5586C24.7031 21.7852 21.7383 24.082 15.2812 24.082C8.8125 24.082 5.84766 21.7852 5.84766 16.5586L5.84766 16.0547L7.73438 16.0547L7.73438 16.3711C7.73438 20.3789 9.85547 22.1953 15.2812 22.1953C20.6953 22.1953 22.8164 20.3789 22.8164 16.3711L22.8164 7.74609C22.8164 6.71484 22.6406 5.75391 22.207 4.92188C20.8125 6.01172 18.1758 6.51562 15.2812 6.51562C12.375 6.51562 9.73828 6.01172 8.34375 4.92188C7.91016 5.75391 7.73438 6.71484 7.73438 7.74609L7.73438 10.9219L5.84766 10.9219L5.84766 7.64062C5.84766 5.4375 6.375 3.94922 7.20703 2.89453C7.48828 2.54297 7.93359 2.51953 8.28516 2.80078C9.41016 3.78516 12.3398 4.62891 15.2812 4.62891C18.2109 4.62891 21.1523 3.78516 22.2656 2.80078C22.6172 2.51953 23.0625 2.54297 23.3438 2.89453ZM20.6953 1.52344C20.6953 2.36719 18.375 3.02344 15.2812 3.02344C12.1758 3.02344 9.85547 2.36719 9.85547 1.52344C9.85547 0.65625 12.1758 0.0117188 15.2812 0.0117188C18.375 0.0117188 20.6953 0.65625 20.6953 1.52344Z" fill="black" fill-opacity="0.85"/>
  <path d="M14.8477 13.4883L13.2539 14.9883L11.6484 16.4531C11.4609 16.6172 11.3789 16.8633 11.3789 17.0859C11.3789 17.5781 11.7188 17.9414 12.1992 17.9414C12.4453 17.9414 12.6328 17.8477 12.8086 17.6602L16.1836 14.168C16.4062 13.9336 16.5 13.7227 16.5 13.4883C16.5 13.2539 16.4062 13.043 16.1836 12.8086L12.8086 9.30469C12.6328 9.12891 12.4453 9.03516 12.1992 9.03516C11.7188 9.03516 11.3789 9.39844 11.3789 9.89062C11.3789 10.1133 11.4609 10.3594 11.6484 10.5234L13.2539 11.9883ZM1.66406 13.4883C1.66406 13.9922 2.08594 14.4258 2.57812 14.4258L12.2695 14.4141L14.6484 14.332C15.1172 14.3203 15.4922 13.957 15.4922 13.4883C15.4922 13.0195 15.1172 12.6562 14.6484 12.6445L12.2695 12.5625L2.57812 12.5625C2.08594 12.5625 1.66406 12.9844 1.66406 13.4883Z" fill="black" fill-opacity="0.85"/>
 </g>
</svg>
