<?xml version="1.0" encoding="UTF-8"?>
<!--Generator: Apple Native CoreSVG 360-->
<!DOCTYPE svg
PUBLIC "-//W3C//DTD SVG 1.1//EN"
       "http://www.w3.org/Graphics/SVG/1.1/DTD/svg11.dtd">
<svg version="1.1" xmlns="http://www.w3.org/2000/svg" xmlns:xlink="http://www.w3.org/1999/xlink" viewBox="0 0 31.207 30.457">
 <g>
  <rect height="30.457" opacity="0" width="31.207" x="0" y="0"/>
  <path d="M17.1094 4.125C17.8144 5.00352 18.2885 6.23337 18.3543 7.99219L16.6193 7.99219C16.5677 7.26006 16.3989 6.58034 16.0781 5.97656C14.8711 6.91406 12.6094 7.40625 9.79688 7.40625C6.99609 7.40625 4.73438 6.91406 3.51562 5.97656C3.12891 6.72656 2.96484 7.59375 2.96484 8.53125L2.96484 16.3359C2.96484 19.6145 4.53298 21.3248 8.67188 21.5727L8.67188 23.3147C3.53338 23.0522 1.24219 20.902 1.24219 16.5117L1.24219 8.42578C1.24219 6.43359 1.73438 5.07422 2.48438 4.125C2.74219 3.79688 3.15234 3.77344 3.46875 4.03125C4.47656 4.93359 7.14844 5.69531 9.79688 5.69531C12.457 5.69531 15.1172 4.93359 16.1367 4.03125C16.4531 3.77344 16.8633 3.79688 17.1094 4.125Z" fill="black" fill-opacity="0.425"/>
  <path d="M14.7188 2.88281C14.7188 3.64453 12.6211 4.24219 9.79688 4.24219C6.98438 4.24219 4.88672 3.64453 4.88672 2.88281C4.88672 2.09766 6.98438 1.52344 9.79688 1.52344C12.6211 1.52344 14.7188 2.09766 14.7188 2.88281Z" fill="black" fill-opacity="0.85"/>
  <path d="M15.4453 28.8633L24.4453 28.8633C26.0977 28.8633 27.4922 28.7109 28.4883 27.7266C29.4727 26.7305 29.6133 25.3594 29.6133 23.707L29.6133 14.7656C29.6133 13.1133 29.4727 11.7305 28.4883 10.7461C27.4922 9.76172 26.0977 9.60938 24.4453 9.60938L15.4102 9.60938C13.793 9.60938 12.3984 9.76172 11.4023 10.7461C10.418 11.7422 10.2656 13.1133 10.2656 14.7422L10.2656 23.707C10.2656 25.3594 10.418 26.7422 11.4023 27.7266C12.3984 28.7109 13.793 28.8633 15.4453 28.8633ZM14.918 22.1953C14.4844 22.1953 14.1914 21.7969 13.8398 21.3164C13.4414 20.7539 13.1367 19.875 13.1367 19.0547C13.1367 17.7305 14.0039 17.0391 14.8477 17.0391C15.3047 17.0391 15.6797 17.2969 15.9609 17.2969C16.2188 17.2969 16.6523 17.0039 17.168 17.0039C17.3672 17.0039 18.082 17.0391 18.5273 17.6836C18.4805 17.7188 17.7773 18.1055 17.7773 18.9844C17.7773 20.0039 18.6914 20.3672 18.7031 20.3672C18.7031 20.3906 18.5508 20.8711 18.2461 21.3398C17.9414 21.7617 17.6367 22.1953 17.168 22.1953C16.7109 22.1953 16.582 21.9023 16.0547 21.9023C15.5273 21.9023 15.3516 22.1953 14.918 22.1953ZM15.9961 16.9219C15.9609 16.9219 15.9258 16.9219 15.9141 16.9102C15.9023 16.8984 15.9023 16.8281 15.9023 16.793C15.9023 16.043 16.6055 15.375 17.2734 15.3516C17.2852 15.3867 17.2969 15.4453 17.2852 15.4805C17.2969 16.2305 16.6406 16.9219 15.9961 16.9219ZM21.2344 22.1719C20.2734 22.1719 19.8867 21.7852 19.8867 20.8594L19.8867 18.0938L19.1836 18.0938L19.1836 17.25L19.8867 17.25L19.8867 16.1133L20.918 16.1133L20.918 17.25L21.832 17.25L21.832 18.0938L20.918 18.0938L20.918 20.7422C20.918 21.1289 21.082 21.3164 21.4688 21.3164C21.5625 21.3164 21.7266 21.3047 21.7852 21.293L21.8203 21.293L21.8203 22.1133L21.7969 22.1367C21.6797 22.1602 21.457 22.1719 21.2344 22.1719ZM23.9883 22.1367L22.2422 17.25L23.3555 17.25L24.5273 21.0586L25.6875 17.25L26.7656 17.25L25.0547 22.1367Z" fill="black" fill-opacity="0.85"/>
 </g>
</svg>
