<?xml version="1.0" encoding="UTF-8"?>
<!--Generator: Apple Native CoreSVG 360-->
<!DOCTYPE svg
PUBLIC "-//W3C//DTD SVG 1.1//EN"
       "http://www.w3.org/Graphics/SVG/1.1/DTD/svg11.dtd">
<svg version="1.1" xmlns="http://www.w3.org/2000/svg" xmlns:xlink="http://www.w3.org/1999/xlink" viewBox="0 0 33.1055 30.4805">
 <g>
  <rect height="30.4805" opacity="0" width="33.1055" x="0" y="0"/>
  <path d="M19.8281 4.23047C20.7564 5.29032 21.4294 6.59179 21.804 8.01563L19.6804 8.01563C19.4308 7.29094 19.0678 6.60883 18.5977 5.97656C17.0273 6.98438 14.6953 7.5 11.6953 7.5C8.70703 7.5 6.36328 6.98438 4.80469 5.97656C3.78516 7.34766 3.25781 8.95312 3.25781 10.6992C3.25781 13.1602 4.26562 15.457 6.03516 17.0859C7.06853 18.0579 8.1823 18.3957 10.5703 18.4656L10.5703 20.4899C7.54738 20.3959 6.05997 19.8733 4.67578 18.5625C2.50781 16.5938 1.24219 13.7227 1.24219 10.6992C1.24219 8.25 2.07422 5.92969 3.57422 4.23047C4.03125 3.63281 4.80469 3.52734 5.47266 3.92578C6.77344 4.85156 8.34375 5.49609 11.6953 5.49609C15.0469 5.49609 16.6289 4.85156 17.918 3.92578C18.5859 3.52734 19.3711 3.63281 19.8281 4.23047Z" fill="black" fill-opacity="0.425"/>
  <path d="M16.6055 2.87109C16.6055 3.60938 14.5664 4.19531 11.6953 4.19531C8.82422 4.19531 6.78516 3.60938 6.78516 2.87109C6.78516 2.09766 8.82422 1.53516 11.6953 1.53516C14.5664 1.53516 16.6055 2.09766 16.6055 2.87109Z" fill="black" fill-opacity="0.85"/>
  <path d="M17.332 28.8633L26.3438 28.8633C27.9961 28.8633 29.3906 28.7109 30.375 27.7266C31.3594 26.7305 31.5 25.3594 31.5 23.707L31.5 14.7656C31.5 13.1133 31.3594 11.7305 30.375 10.7461C29.3906 9.76172 27.9961 9.60938 26.3438 9.60938L17.3086 9.60938C15.6914 9.60938 14.2969 9.76172 13.3008 10.7461C12.3164 11.7422 12.1641 13.1133 12.1641 14.7422L12.1641 23.707C12.1641 25.3594 12.3164 26.7422 13.3008 27.7266C14.2969 28.7109 15.6914 28.8633 17.332 28.8633ZM16.8164 22.1953C16.3828 22.1953 16.0898 21.7969 15.7383 21.3164C15.3398 20.7539 15.0352 19.875 15.0352 19.0547C15.0352 17.7305 15.9023 17.0391 16.7461 17.0391C17.2031 17.0391 17.5781 17.2969 17.8594 17.2969C18.1172 17.2969 18.5508 17.0039 19.0664 17.0039C19.2656 17.0039 19.9688 17.0391 20.4258 17.6836C20.3789 17.7188 19.6758 18.1055 19.6758 18.9844C19.6758 20.0039 20.5898 20.3672 20.6016 20.3672C20.6016 20.3906 20.4492 20.8711 20.1445 21.3398C19.8398 21.7617 19.5352 22.1953 19.0664 22.1953C18.6094 22.1953 18.4805 21.9023 17.9414 21.9023C17.4141 21.9023 17.25 22.1953 16.8164 22.1953ZM17.8945 16.9219C17.8594 16.9219 17.8242 16.9219 17.8125 16.9102C17.8008 16.8984 17.8008 16.8281 17.8008 16.793C17.8008 16.043 18.5039 15.375 19.1719 15.3516C19.1836 15.3867 19.1953 15.4453 19.1836 15.4805C19.1953 16.2305 18.5391 16.9219 17.8945 16.9219ZM23.1328 22.1719C22.1719 22.1719 21.7734 21.7852 21.7734 20.8594L21.7734 18.0938L21.082 18.0938L21.082 17.25L21.7734 17.25L21.7734 16.1133L22.8047 16.1133L22.8047 17.25L23.7305 17.25L23.7305 18.0938L22.8047 18.0938L22.8047 20.7422C22.8047 21.1289 22.9805 21.3164 23.3672 21.3164C23.4609 21.3164 23.625 21.3047 23.6836 21.293L23.7188 21.293L23.7188 22.1133L23.6953 22.1367C23.5781 22.1602 23.3555 22.1719 23.1328 22.1719ZM25.875 22.1367L24.1406 17.25L25.2539 17.25L26.4258 21.0586L27.5859 17.25L28.6523 17.25L26.9531 22.1367Z" fill="black" fill-opacity="0.85"/>
 </g>
</svg>
