<?xml version="1.0" encoding="UTF-8"?>
<!--Generator: Apple Native CoreSVG 360-->
<!DOCTYPE svg
PUBLIC "-//W3C//DTD SVG 1.1//EN"
       "http://www.w3.org/Graphics/SVG/1.1/DTD/svg11.dtd">
<svg version="1.1" xmlns="http://www.w3.org/2000/svg" xmlns:xlink="http://www.w3.org/1999/xlink" viewBox="0 0 34.4062 21.2227">
 <g>
  <rect height="21.2227" opacity="0" width="34.4062" x="0" y="0"/>
  <path d="M25.9688 3.24609C27.6562 5.13281 28.5586 7.71094 28.5586 10.418C28.5586 13.7695 27.1641 16.9219 24.7734 19.1016C23.0742 20.6836 21.2812 21.2227 17.0273 21.2227C12.7734 21.2227 10.9688 20.6836 9.26953 19.1016C7.99109 17.9302 6.99355 16.4779 6.35615 14.8594L8.4197 14.8594C8.93818 15.9314 9.66236 16.8998 10.5586 17.7188C11.8828 18.9609 13.3008 19.3359 17.0273 19.3359C20.7422 19.3359 22.1719 18.9609 23.4961 17.7188C25.5234 15.8555 26.6719 13.2188 26.6719 10.418C26.6719 8.4062 26.0787 6.47097 24.8428 4.84886C22.9615 6.096 20.1711 6.62109 17.0273 6.62109C13.8869 6.62109 11.0991 6.09711 9.20835 4.85281C8.1146 6.28678 7.51826 7.96588 7.39998 9.72656L5.51356 9.72656C5.64672 7.27392 6.54212 4.97105 8.07422 3.24609C8.53125 2.66016 9.31641 2.55469 9.97266 2.96484C11.4141 4.01953 13.3477 4.73438 17.0273 4.73438C20.707 4.73438 22.6406 4.01953 24.082 2.96484C24.7383 2.55469 25.5117 2.66016 25.9688 3.24609ZM22.5703 1.64062C22.5703 2.48438 20.2852 3.14062 17.0273 3.14062C13.7695 3.14062 11.4844 2.48438 11.4844 1.64062C11.4844 0.785156 13.7695 0.152344 17.0273 0.152344C20.2852 0.152344 22.5703 0.785156 22.5703 1.64062Z" fill="black" fill-opacity="0.85"/>
  <path d="M14.8477 12.293L13.2539 13.793L11.6602 15.2578C11.4609 15.4219 11.3789 15.668 11.3789 15.8906C11.3789 16.3828 11.7188 16.7461 12.1992 16.7461C12.4453 16.7461 12.6328 16.6406 12.8086 16.4648L16.1836 12.9727C16.4062 12.7383 16.5 12.5273 16.5 12.293C16.5 12.0586 16.4062 11.8477 16.1836 11.6133L12.8086 8.10938C12.6328 7.93359 12.4453 7.83984 12.1992 7.83984C11.7188 7.83984 11.3789 8.20312 11.3789 8.69531C11.3789 8.91797 11.4609 9.16406 11.6602 9.32812L13.2539 10.793ZM1.66406 12.293C1.66406 12.7969 2.08594 13.2305 2.57812 13.2305L12.2578 13.2188L14.6484 13.1367C15.1172 13.125 15.5039 12.7617 15.5039 12.293C15.5039 11.8242 15.1172 11.4609 14.6484 11.4492L12.2578 11.3672L2.57812 11.3672C2.08594 11.3672 1.66406 11.7891 1.66406 12.293Z" fill="black" fill-opacity="0.85"/>
 </g>
</svg>
