<?xml version="1.0" encoding="UTF-8"?>
<!--Generator: Apple Native CoreSVG 360-->
<!DOCTYPE svg
PUBLIC "-//W3C//DTD SVG 1.1//EN"
       "http://www.w3.org/Graphics/SVG/1.1/DTD/svg11.dtd">
<svg version="1.1" xmlns="http://www.w3.org/2000/svg" xmlns:xlink="http://www.w3.org/1999/xlink" viewBox="0 0 31.0195 30.4102">
 <g>
  <rect height="30.4102" opacity="0" width="31.0195" x="0" y="0"/>
  <path d="M3.48047 4.00781C4.48828 4.91016 7.16016 5.67188 9.80859 5.67188C10.4154 5.67188 11.0248 5.63107 11.615 5.55625C11.2632 5.86769 10.9472 6.21206 10.6641 6.58594C10.4665 6.84135 10.287 7.10797 10.1316 7.39088C10.0254 7.39376 9.91732 7.39453 9.80859 7.39453C7.07812 7.39453 4.74609 6.90234 3.52734 5.95312C3.14062 6.70312 2.97656 7.57031 2.97656 8.50781L2.97656 16.3125C2.97656 19.7314 4.6891 21.3858 8.97561 21.5677C8.97893 22.1863 9.02796 22.7644 9.1202 23.3045C3.74559 23.1484 1.25391 21.0642 1.25391 16.4883L1.25391 8.40234C1.25391 6.41016 1.74609 5.05078 2.49609 4.10156C2.75391 3.77344 3.16406 3.75 3.48047 4.00781Z" fill="black" fill-opacity="0.425"/>
  <path d="M14.7305 2.85938C14.7305 3.63281 12.5391 4.21875 9.80859 4.21875C7.08984 4.21875 4.89844 3.63281 4.89844 2.85938C4.89844 2.07422 7.08984 1.48828 9.80859 1.48828C12.5391 1.48828 14.7305 2.07422 14.7305 2.85938Z" fill="black" fill-opacity="0.85"/>
  <path d="M19.9922 28.8164C26.4492 28.8164 29.4141 26.5195 29.4141 21.293L29.4141 12.375C29.4141 10.1719 28.8867 8.68359 28.0547 7.62891C27.7734 7.27734 27.3281 7.25391 26.9766 7.53516C25.8633 8.51953 22.9219 9.36328 19.9922 9.36328C17.0625 9.36328 14.1211 8.51953 13.0078 7.53516C12.6562 7.25391 12.1992 7.27734 11.918 7.62891C11.0977 8.68359 10.5703 10.1719 10.5703 12.375L10.5703 21.293C10.5703 26.5195 13.5352 28.8164 19.9922 28.8164ZM19.9922 26.9297C14.5664 26.9297 12.4453 25.1133 12.4453 21.1055L12.4453 12.4805C12.4453 11.4492 12.6211 10.4883 13.0664 9.65625C14.4609 10.7461 17.0859 11.25 19.9922 11.25C22.8984 11.25 25.5234 10.7461 26.918 9.65625C27.3633 10.4883 27.5273 11.4492 27.5273 12.4805L27.5273 21.1055C27.5273 25.1133 25.4062 26.9297 19.9922 26.9297Z" fill="black" fill-opacity="0.425"/>
  <path d="M19.9922 7.75781C22.9922 7.75781 25.418 7.10156 25.418 6.25781C25.418 5.39062 22.9922 4.74609 19.9922 4.74609C16.9805 4.74609 14.5664 5.39062 14.5664 6.25781C14.5664 7.10156 16.9805 7.75781 19.9922 7.75781Z" fill="black" fill-opacity="0.85"/>
 </g>
</svg>
