<?xml version="1.0" encoding="UTF-8"?>
<!--Generator: Apple Native CoreSVG 360-->
<!DOCTYPE svg
PUBLIC "-//W3C//DTD SVG 1.1//EN"
       "http://www.w3.org/Graphics/SVG/1.1/DTD/svg11.dtd">
<svg version="1.1" xmlns="http://www.w3.org/2000/svg" xmlns:xlink="http://www.w3.org/1999/xlink" viewBox="0 0 29.0391 21.8789">
 <g>
  <rect height="21.8789" opacity="0" width="29.0391" x="0" y="0"/>
  <path d="M0.9375 14.6719L11.332 14.6719C12.6445 14.6719 14.1094 14.8828 15.5977 15.3164C18.6914 16.207 21.6094 18.0586 24.4102 20.9297C26.0742 22.7227 28.6875 21.8086 28.6875 19.3359L28.6875 2.53126C28.6875 0.058605 26.0742-0.855458 24.4102 0.937511C20.2969 5.20314 15.5156 7.19532 11.332 7.19532L0.9375 7.19532L0.9375 9.08204L11.332 9.08204C15.9961 9.08204 21.2461 6.90235 25.6992 2.3086C26.3203 1.67579 26.8008 1.8047 26.8008 2.53126L26.8008 19.3359C26.8008 20.0625 26.3203 20.1797 25.6992 19.5469C21.2461 14.9649 15.9961 12.7852 11.332 12.7852L0.9375 12.7852ZM0.9375 16.0547C1.46484 16.0547 1.88672 15.6211 1.88672 15.1055L1.88672 6.73829C1.88672 6.22267 1.46484 5.80079 0.9375 5.80079C0.421875 5.80079 0 6.22267 0 6.73829L0 15.1055C0 15.6211 0.421875 16.0547 0.9375 16.0547ZM3.26953 16.5C3.26953 18.3984 4.82812 19.9453 6.72656 19.9453L13.3711 19.9453C15.2695 19.9453 16.8281 18.3984 16.8281 16.5C16.8281 14.6016 15.2695 13.043 13.3711 13.043L6.72656 13.043C4.82812 13.043 3.26953 14.6016 3.26953 16.5ZM5.15625 16.5C5.15625 15.6445 5.87109 14.9297 6.72656 14.9297L13.3711 14.9297C14.2266 14.9297 14.9414 15.6445 14.9414 16.5C14.9414 17.3555 14.2266 18.0469 13.3711 18.0469L6.72656 18.0469C5.87109 18.0469 5.15625 17.3555 5.15625 16.5Z" fill="black" fill-opacity="0.85"/>
 </g>
</svg>
