<?xml version="1.0" encoding="UTF-8"?>
<!--Generator: Apple Native CoreSVG 360-->
<!DOCTYPE svg
PUBLIC "-//W3C//DTD SVG 1.1//EN"
       "http://www.w3.org/Graphics/SVG/1.1/DTD/svg11.dtd">
<svg version="1.1" xmlns="http://www.w3.org/2000/svg" xmlns:xlink="http://www.w3.org/1999/xlink" viewBox="0 0 14.0859 21.5742">
 <g>
  <rect height="21.5742" opacity="0" width="14.0859" x="0" y="0"/>
  <path d="M13.7344 1.93359L13.7344 2.13281C13.7344 4.98047 10.7461 7.96875 9.10547 9.58594C8.30859 10.3828 8.36719 11.2031 9.10547 11.9414C10.7461 13.5703 13.7344 16.5703 13.7344 19.3945L13.7344 19.6289C13.7344 20.8828 13.0078 21.5508 11.8242 21.5508L1.91016 21.5508C0.726562 21.5508 0 20.8828 0 19.6289L0 19.3945C0 16.5703 3 13.5703 4.62891 11.9414C5.4375 11.1445 5.37891 10.3242 4.62891 9.58594C3 7.96875 0 4.98047 0 2.13281L0 1.93359C0 0.679688 0.726562 0 1.91016 0L11.8242 0C13.0078 0 13.7344 0.679688 13.7344 1.93359ZM6.30469 15.457L2.53125 19.0547C2.19141 19.3711 2.30859 19.957 2.8125 19.957L10.9219 19.957C11.4258 19.957 11.543 19.3711 11.2031 19.0547L7.42969 15.457C7.25977 15.2988 7.06934 15.2168 6.87598 15.2153C6.68262 15.2139 6.48633 15.293 6.30469 15.457Z" fill="black" fill-opacity="0.85"/>
 </g>
</svg>
