<?xml version="1.0" encoding="UTF-8"?>
<!--Generator: Apple Native CoreSVG 360-->
<!DOCTYPE svg
PUBLIC "-//W3C//DTD SVG 1.1//EN"
       "http://www.w3.org/Graphics/SVG/1.1/DTD/svg11.dtd">
<svg version="1.1" xmlns="http://www.w3.org/2000/svg" xmlns:xlink="http://www.w3.org/1999/xlink" viewBox="0 0 14.0859 21.5742">
 <g>
  <rect height="21.5742" opacity="0" width="14.0859" x="0" y="0"/>
  <path d="M13.7344 1.93359L13.7344 2.13281C13.7344 4.98047 10.7461 7.96875 9.10547 9.58594C8.36719 10.3242 8.30859 11.1445 9.10547 11.9414C10.7461 13.5703 13.7344 16.5703 13.7344 19.3945L13.7344 19.6289C13.7344 20.8828 13.0078 21.5508 11.8242 21.5508L1.91016 21.5508C0.726562 21.5508 0 20.8828 0 19.6289L0 19.3945C0 16.5703 3 13.5703 4.62891 11.9414C5.4375 11.1445 5.37891 10.3242 4.62891 9.58594C3 7.96875 0 4.98047 0 2.13281L0 1.93359C0 0.679688 0.726562 0 1.91016 0L11.8242 0C13.0078 0 13.7344 0.679688 13.7344 1.93359ZM3.57422 5.70703C3.21094 5.70703 3.04688 6.08203 3.35156 6.38672C4.07812 7.14844 5.17969 8.10938 5.96484 8.77734C6.36328 9.11719 6.46875 9.38672 6.46875 9.92578L6.46875 15.1172C6.46875 15.3047 6.41016 15.3633 6.26953 15.4922L2.53125 19.0547C2.19141 19.3711 2.30859 19.957 2.8125 19.957L10.9219 19.957C11.4258 19.957 11.543 19.3711 11.2031 19.0547L7.46484 15.4922C7.32422 15.3633 7.27734 15.3047 7.27734 15.1172L7.27734 9.92578C7.27734 9.38672 7.37109 9.11719 7.76953 8.77734C8.56641 8.10938 9.66797 7.14844 10.3828 6.38672C10.6875 6.08203 10.5234 5.70703 10.1602 5.70703Z" fill="black" fill-opacity="0.85"/>
 </g>
</svg>
