<?xml version="1.0" encoding="UTF-8"?>
<!--Generator: Apple Native CoreSVG 360-->
<!DOCTYPE svg
PUBLIC "-//W3C//DTD SVG 1.1//EN"
       "http://www.w3.org/Graphics/SVG/1.1/DTD/svg11.dtd">
<svg version="1.1" xmlns="http://www.w3.org/2000/svg" xmlns:xlink="http://www.w3.org/1999/xlink" viewBox="0 0 37.7095 25.8398">
 <g>
  <rect height="25.8398" opacity="0" width="37.7095" x="0" y="0"/>
  <path d="M1.49929 13.2422L12.5969 7.57031C12.843 7.44141 13.1477 7.44141 13.4173 7.57031L24.5149 13.2422C25.8626 13.9219 26.5657 12.3047 25.4641 11.7305L14.3313 5.88281C13.3821 5.39062 12.6204 5.39062 11.6829 5.88281L0.526629 11.7305C-0.551496 12.3047 0.151629 13.9219 1.49929 13.2422ZM5.55397 25.793L20.4602 25.793C22.054 25.793 22.9915 24.8789 22.9915 23.2969L22.9915 11.8125L21.1868 10.8281L21.1868 22.8398C21.1868 23.5781 20.7883 23.9883 20.0618 23.9883L5.94069 23.9883C5.22585 23.9883 4.82741 23.5781 4.82741 22.8398L4.82741 10.8398L3.02272 11.7422L3.02272 23.2969C3.02272 24.8789 3.96022 25.793 5.55397 25.793ZM9.58522 24.8672L16.4173 24.8672L16.4173 16.5352C16.4173 16.0195 16.0774 15.6797 15.5618 15.6797L10.4407 15.6797C9.92507 15.6797 9.58522 16.0195 9.58522 16.5352ZM28.9212 25.793C29.4251 25.793 29.8235 25.3711 29.8235 24.8789L29.8235 6.86719C29.9407 6.84375 30.0813 6.83203 30.2688 6.83203C32.1673 6.83203 33.3508 7.75781 35.1673 7.75781C35.9758 7.75781 36.3157 7.67578 36.7141 7.48828C37.1594 7.27734 37.3587 6.97266 37.3587 6.46875L37.3587 1.26562C37.3587 0.949219 37.1946 0.726562 36.761 0.726562C36.4446 0.726562 35.9876 0.949219 35.1204 0.949219C33.3274 0.949219 32.1204 0 30.2219 0C29.4016 0 29.0735 0.105469 28.6868 0.269531C28.2532 0.457031 28.0305 0.796875 28.0305 1.26562L28.0305 24.8789C28.0305 25.3711 28.429 25.793 28.9212 25.793ZM1.03054 25.793L33.6907 25.793C34.1829 25.793 34.5813 25.3711 34.5813 24.8789C34.5813 24.3867 34.1829 23.9883 33.6907 23.9883L1.03054 23.9883C0.538348 23.9883 0.128192 24.3867 0.128192 24.8789C0.128192 25.3711 0.538348 25.793 1.03054 25.793Z" fill="black" fill-opacity="0.85"/>
 </g>
</svg>
