<?xml version="1.0" encoding="UTF-8"?>
<!--Generator: Apple Native CoreSVG 360-->
<!DOCTYPE svg
PUBLIC "-//W3C//DTD SVG 1.1//EN"
       "http://www.w3.org/Graphics/SVG/1.1/DTD/svg11.dtd">
<svg version="1.1" xmlns="http://www.w3.org/2000/svg" xmlns:xlink="http://www.w3.org/1999/xlink" viewBox="0 0 48.289 20.4023">
 <g>
  <rect height="20.4023" opacity="0" width="48.289" x="0" y="0"/>
  <path d="M14.468 6.89063L9.19721 6.89062C9.02143 6.89062 8.95112 6.90234 8.82221 6.98438L3.10346 10.9219L9.34102 10.9219L9.32612 10.9336C8.62602 11.4762 9.08265 12.4435 9.83234 12.5273L4.07612 12.5273L4.07612 17.4492C4.07612 18.1875 4.46284 18.5742 5.17768 18.5742L11.291 18.5742C11.5248 19.7531 12.4075 20.4023 13.7792 20.4023L4.8144 20.4023C3.18549 20.4023 2.23627 19.5 2.23627 17.8945L2.23627 12.5273L0.97065 12.5273C-0.0254442 12.5273-0.294975 11.4023 0.349556 10.9336L7.89643 5.67188C8.27143 5.41406 8.70502 5.28516 9.19721 5.28516L16.5098 5.28516ZM11.2246 12.5273L10.0444 12.5273C10.2415 12.5059 10.4518 12.4226 10.6621 12.2578L11.2246 11.8125Z" fill="black" fill-opacity="0.85"/>
  <path d="M40.041 5.67188L47.5878 10.9336C48.2441 11.4023 47.9628 12.5273 46.9785 12.5273L45.7011 12.5273L45.7011 17.8945C45.7011 19.5 44.7519 20.4023 43.123 20.4023L34.1464 20.4023C35.5281 20.4023 36.4039 19.7531 36.6353 18.5742L42.7597 18.5742C43.4746 18.5742 43.8613 18.1875 43.8613 17.4492L43.8613 12.5273L38.0933 12.5273C38.843 12.4435 39.2997 11.4762 38.5996 10.9336L38.5847 10.9219L44.8339 10.9219L39.1152 6.98438C38.9863 6.90234 38.916 6.89062 38.7402 6.89062L33.4577 6.89063L31.4159 5.28516L38.7519 5.28516C39.2324 5.28516 39.6777 5.41406 40.041 5.67188ZM37.2636 12.2578C37.4739 12.4226 37.6842 12.5059 37.8813 12.5273L36.7011 12.5273L36.7011 11.8125Z" fill="black" fill-opacity="0.85"/>
  <path d="M10.6621 12.2578L23.4355 2.23828C23.5878 2.12109 23.7871 2.03906 23.9628 2.03906C24.1503 2.03906 24.3496 2.12109 24.5019 2.23828L37.2636 12.2578C38.4003 13.1484 39.5371 11.6602 38.5996 10.9336L25.4394 0.585938C24.9589 0.210938 24.4785 0 23.9628 0C23.4589 0 22.9667 0.210938 22.4863 0.585938L9.32612 10.9336C8.38862 11.6602 9.52534 13.1484 10.6621 12.2578ZM13.7792 20.4023L34.1464 20.4023C35.7753 20.4023 36.7011 19.5 36.7011 17.8945L36.7011 10.1133L34.873 10.0195L34.873 17.4492C34.873 18.1875 34.498 18.5742 33.7714 18.5742L14.1542 18.5742C13.4277 18.5742 13.0527 18.1875 13.0527 17.4492L13.0527 10.0195L11.2246 10.1133L11.2246 17.8945C11.2246 19.5 12.1621 20.4023 13.7792 20.4023ZM20.9042 19.125L27.0214 19.125L27.0214 13.3594C27.0214 12.8789 26.6933 12.5508 26.2128 12.5508L21.7246 12.5508C21.2558 12.5508 20.9042 12.8789 20.9042 13.3594Z" fill="black" fill-opacity="0.85"/>
 </g>
</svg>
