<?xml version="1.0" encoding="UTF-8"?>
<!--Generator: Apple Native CoreSVG 360-->
<!DOCTYPE svg
PUBLIC "-//W3C//DTD SVG 1.1//EN"
       "http://www.w3.org/Graphics/SVG/1.1/DTD/svg11.dtd">
<svg version="1.1" xmlns="http://www.w3.org/2000/svg" xmlns:xlink="http://www.w3.org/1999/xlink" viewBox="0 0 28.582 23.5195">
 <g>
  <rect height="23.5195" opacity="0" width="28.582" x="0" y="0"/>
  <path d="M28.2305 14.1094C28.2305 10.6641 26.9883 7.48828 24.9141 5.02734C24.6797 4.74609 24.2812 4.74609 24.0234 5.01562L21.3047 7.73438C21.082 7.95703 21.0703 8.27344 21.2695 8.51953C22.4766 10.0664 23.2031 12.0117 23.2031 14.1094C23.2031 16.2188 22.4766 18.1641 21.1992 19.793C21.0352 19.9922 21.0469 20.25 21.2227 20.4375L24.0117 23.2266C24.2812 23.4961 24.668 23.4961 24.9141 23.2031C26.9883 20.7422 28.2305 17.5664 28.2305 14.1094Z" fill="black" fill-opacity="0.85"/>
  <path d="M14.1094 5.02734C16.2305 5.02734 18.1758 5.76562 19.7344 6.97266C19.9688 7.16016 20.2734 7.13672 20.4961 6.91406L23.2148 4.19531C23.4844 3.92578 23.4727 3.53906 23.1914 3.30469C20.7422 1.24219 17.5664 0 14.1094 0C10.6641 0 7.48828 1.24219 5.03906 3.30469C4.75781 3.53906 4.74609 3.92578 5.01562 4.19531L7.73438 6.91406C7.95703 7.13672 8.27344 7.16016 8.53125 6.96094C10.0781 5.76562 12.0117 5.02734 14.1094 5.02734Z" fill="black" fill-opacity="0.85"/>
  <path d="M0 14.1094C0 17.5664 1.24219 20.7422 3.31641 23.2031C3.55078 23.4961 3.94922 23.4961 4.20703 23.2266L6.99609 20.4375C7.17188 20.25 7.19531 19.9922 7.03125 19.793C5.75391 18.1641 5.02734 16.2188 5.02734 14.1094C5.02734 12.0117 5.74219 10.0664 6.96094 8.51953C7.14844 8.27344 7.14844 7.95703 6.92578 7.73438L4.20703 5.01562C3.9375 4.74609 3.55078 4.74609 3.31641 5.02734C1.24219 7.48828 0 10.6641 0 14.1094Z" fill="black" fill-opacity="0.85"/>
  <path d="M14.0391 8.88281C13.0781 8.88281 11.8594 9.15234 11.1094 10.2656C10.9453 10.5117 10.875 10.7344 10.875 11.0156C10.875 11.3555 11.0977 11.5898 11.4727 11.5898C11.7656 11.5898 11.9297 11.4492 12.0703 11.1914C12.4688 10.3828 13.2305 10.043 14.0742 10.043C15.0938 10.043 16.1133 10.5234 16.1133 11.543C16.1133 12.0117 15.8672 12.6211 15.1992 12.8203L16.3125 13.1133C16.9688 12.8086 17.4492 12.1992 17.4492 11.4609C17.4492 9.70312 15.7383 8.88281 14.0391 8.88281ZM9.86719 13.0898C9.86719 13.3242 10.0312 13.4766 10.2539 13.4766L17.9414 13.4766C18.1641 13.4766 18.3281 13.3242 18.3281 13.0898C18.3281 12.8555 18.1641 12.6914 17.9414 12.6914L10.2539 12.6914C10.0312 12.6914 9.86719 12.8555 9.86719 13.0898ZM9.86719 14.9883C9.86719 15.2109 10.0312 15.375 10.2539 15.375L17.9414 15.375C18.1641 15.375 18.3281 15.2109 18.3281 14.9883C18.3281 14.7539 18.1641 14.5898 17.9414 14.5898L10.2539 14.5898C10.0312 14.5898 9.86719 14.7539 9.86719 14.9883ZM14.0977 19.4766C15.4688 19.4766 16.7109 18.9844 17.332 17.9297C17.4609 17.6953 17.5781 17.4023 17.5781 17.168C17.5781 16.8281 17.3203 16.6055 16.957 16.6055C16.6523 16.6055 16.4766 16.7461 16.3477 17.0273C15.9375 17.9297 15.1055 18.3164 14.0977 18.3164C12.9727 18.3164 11.9062 17.7539 11.9062 16.793C11.9062 15.9258 12.4688 15.3867 13.3359 15.1523L12.0234 14.9297C11.1562 15.2344 10.5586 16.0078 10.5586 16.8633C10.5586 18.6211 12.3984 19.4766 14.0977 19.4766Z" fill="black" fill-opacity="0.85"/>
 </g>
</svg>
