<?xml version="1.0" encoding="UTF-8"?>
<!--Generator: Apple Native CoreSVG 360-->
<!DOCTYPE svg
PUBLIC "-//W3C//DTD SVG 1.1//EN"
       "http://www.w3.org/Graphics/SVG/1.1/DTD/svg11.dtd">
<svg version="1.1" xmlns="http://www.w3.org/2000/svg" xmlns:xlink="http://www.w3.org/1999/xlink" viewBox="0 0 26.5195 25.0195">
 <g>
  <rect height="25.0195" opacity="0" width="26.5195" x="0" y="0"/>
  <path d="M1.55859 22.2188L24.6094 22.2188L24.6094 21.4336C24.6094 20.9648 24.3398 20.6836 23.8594 20.6836L23.1094 20.6836L23.1094 8.03906L24.1406 8.03906C24.7852 8.03906 25.1602 7.57031 25.1602 7.08984C25.1602 6.73828 24.9609 6.43359 24.5273 6.1875L14.5195 0.410156C14.0508 0.140625 13.5586 0 13.0781 0C12.5977 0 12.0938 0.140625 11.6484 0.410156L1.64062 6.1875C1.19531 6.43359 1.00781 6.73828 1.00781 7.08984C1.00781 7.57031 1.38281 8.03906 2.02734 8.03906L3.05859 8.03906L3.05859 20.6836L2.32031 20.6836C1.83984 20.6836 1.55859 20.9648 1.55859 21.4336ZM4.82812 20.6836L4.82812 6.53906L12.6211 2.16797C12.7617 2.08594 12.9258 2.03906 13.0781 2.03906C13.2305 2.03906 13.3945 2.08594 13.5469 2.16797L21.3398 6.53906L21.3398 20.6836ZM0.9375 25.0078L25.2188 25.0078C25.7344 25.0078 26.168 24.5742 26.168 24.0586C26.168 23.543 25.7344 23.1211 25.2188 23.1211L0.9375 23.1211C0.421875 23.1211 0 23.543 0 24.0586C0 24.5742 0.421875 25.0078 0.9375 25.0078Z" fill="black" fill-opacity="0.85"/>
  <path d="M13.0312 6.94922C12.0586 6.94922 10.8516 7.21875 10.1016 8.33203C9.9375 8.57812 9.86719 8.80078 9.86719 9.08203C9.86719 9.42188 10.0898 9.65625 10.4531 9.65625C10.7578 9.65625 10.9219 9.51562 11.0508 9.25781C11.4609 8.44922 12.2227 8.10938 13.0547 8.10938C14.0859 8.10938 15.1055 8.58984 15.1055 9.60938C15.1055 10.0781 14.8594 10.6875 14.1914 10.8867L15.3047 11.1797C15.9492 10.875 16.4297 10.2656 16.4297 9.52734C16.4297 7.76953 14.7305 6.94922 13.0312 6.94922ZM8.85938 11.1562C8.85938 11.3906 9.02344 11.543 9.23438 11.543L16.9219 11.543C17.1562 11.543 17.3203 11.3906 17.3203 11.1562C17.3203 10.9219 17.1562 10.7578 16.9219 10.7578L9.23438 10.7578C9.02344 10.7578 8.85938 10.9219 8.85938 11.1562ZM8.85938 13.0547C8.85938 13.2773 9.02344 13.4414 9.23438 13.4414L16.9219 13.4414C17.1562 13.4414 17.3203 13.2773 17.3203 13.0547C17.3203 12.8203 17.1562 12.6562 16.9219 12.6562L9.23438 12.6562C9.02344 12.6562 8.85938 12.8203 8.85938 13.0547ZM13.0898 17.543C14.4492 17.543 15.7031 17.0508 16.3125 15.9961C16.4531 15.7617 16.5703 15.4688 16.5703 15.2344C16.5703 14.8945 16.3125 14.6719 15.9492 14.6719C15.6445 14.6719 15.4688 14.8125 15.3281 15.0938C14.918 15.9961 14.0977 16.3828 13.0781 16.3828C11.9648 16.3828 10.8984 15.8203 10.8984 14.8594C10.8984 13.9922 11.4609 13.4531 12.3281 13.2188L11.0156 12.9961C10.1484 13.3008 9.55078 14.0742 9.55078 14.9297C9.55078 16.6875 11.3906 17.543 13.0898 17.543Z" fill="black" fill-opacity="0.85"/>
 </g>
</svg>
