<?xml version="1.0" encoding="UTF-8"?>
<!--Generator: Apple Native CoreSVG 360-->
<!DOCTYPE svg
PUBLIC "-//W3C//DTD SVG 1.1//EN"
       "http://www.w3.org/Graphics/SVG/1.1/DTD/svg11.dtd">
<svg version="1.1" xmlns="http://www.w3.org/2000/svg" xmlns:xlink="http://www.w3.org/1999/xlink" viewBox="0 0 28.582 23.4085">
 <g>
  <rect height="23.4085" opacity="0" width="28.582" x="0" y="0"/>
  <path d="M28.2305 14.0539C28.2305 6.67105 22.5586 0.612457 15.3398 0.00308175C14.9648-0.0320745 14.6836 0.237457 14.6836 0.612457L14.6836 4.44449C14.6836 4.76089 14.9062 5.00699 15.2227 5.03043C19.7109 5.58121 23.2031 9.41324 23.2031 14.0539C23.2031 16.1632 22.4766 18.1086 21.1992 19.7375C21.0352 19.9367 21.0469 20.1945 21.2227 20.382L24.0234 23.1711C24.2812 23.4289 24.6797 23.4289 24.9141 23.1476C26.9883 20.6867 28.2305 17.5109 28.2305 14.0539Z" fill="black" fill-opacity="0.85"/>
  <path d="M0 14.0539C0 17.5226 1.24219 20.6984 3.31641 23.1593C3.55078 23.4406 3.9375 23.4289 4.20703 23.1711L7.00781 20.382C7.18359 20.1945 7.19531 19.9367 7.03125 19.7375C5.74219 18.1086 5.02734 16.1632 5.02734 14.0539C5.02734 9.41324 8.51953 5.58121 13.0078 5.03043C13.3242 5.00699 13.5469 4.76089 13.5469 4.44449L13.5469 0.612457C13.5469 0.237457 13.2656-0.0320745 12.8906 0.00308175C5.67188 0.612457 0 6.67105 0 14.0539Z" fill="black" fill-opacity="0.85"/>
  <path d="M14.0391 8.8273C13.0781 8.8273 11.8594 9.09683 11.1094 10.2101C10.9453 10.4562 10.875 10.6789 10.875 10.9601C10.875 11.3 11.0977 11.5343 11.4727 11.5343C11.7656 11.5343 11.9297 11.3937 12.0703 11.1359C12.4688 10.3273 13.2305 9.98746 14.0742 9.98746C15.0938 9.98746 16.1133 10.4679 16.1133 11.4875C16.1133 11.9562 15.8672 12.5656 15.1992 12.7648L16.3125 13.0578C16.9688 12.7531 17.4492 12.1437 17.4492 11.4054C17.4492 9.64761 15.7383 8.8273 14.0391 8.8273ZM9.86719 13.0343C9.86719 13.2687 10.0312 13.4211 10.2539 13.4211L17.9414 13.4211C18.1641 13.4211 18.3281 13.2687 18.3281 13.0343C18.3281 12.8 18.1641 12.6359 17.9414 12.6359L10.2539 12.6359C10.0312 12.6359 9.86719 12.8 9.86719 13.0343ZM9.86719 14.9328C9.86719 15.1554 10.0312 15.3195 10.2539 15.3195L17.9414 15.3195C18.1641 15.3195 18.3281 15.1554 18.3281 14.9328C18.3281 14.6984 18.1641 14.5343 17.9414 14.5343L10.2539 14.5343C10.0312 14.5343 9.86719 14.6984 9.86719 14.9328ZM14.0977 19.4211C15.4688 19.4211 16.7109 18.9289 17.332 17.8742C17.4609 17.6398 17.5781 17.3468 17.5781 17.1125C17.5781 16.7726 17.3203 16.55 16.957 16.55C16.6523 16.55 16.4766 16.6906 16.3477 16.9718C15.9375 17.8742 15.1055 18.2609 14.0977 18.2609C12.9727 18.2609 11.9062 17.6984 11.9062 16.7375C11.9062 15.8703 12.4688 15.3312 13.3359 15.0968L12.0234 14.8742C11.1562 15.1789 10.5586 15.9523 10.5586 16.8078C10.5586 18.5656 12.3984 19.4211 14.0977 19.4211Z" fill="black" fill-opacity="0.85"/>
 </g>
</svg>
