<?xml version="1.0" encoding="UTF-8"?>
<!--Generator: Apple Native CoreSVG 360-->
<!DOCTYPE svg
PUBLIC "-//W3C//DTD SVG 1.1//EN"
       "http://www.w3.org/Graphics/SVG/1.1/DTD/svg11.dtd">
<svg version="1.1" xmlns="http://www.w3.org/2000/svg" xmlns:xlink="http://www.w3.org/1999/xlink" viewBox="0 0 16.957 21.2461">
 <g>
  <rect height="21.2461" opacity="0" width="16.957" x="0" y="0"/>
  <path d="M8.20312 0C5.76562 0 3.51562 0.972656 2.39062 2.94141C2.12109 3.35156 1.93359 3.83203 1.93359 4.30078C1.93359 4.82812 2.26172 5.30859 2.96484 5.30859C3.48047 5.30859 3.78516 5.00391 4.01953 4.53516C4.74609 2.83594 6.44531 2.05078 8.26172 2.05078C10.4766 2.05078 12.6562 3.01172 12.6562 5.26172C12.6562 6.11719 12.2461 7.05469 11.4023 7.60547L0.738281 7.60547C0.304688 7.60547 0 7.93359 0 8.37891C0 8.8125 0.304688 9.14062 0.738281 9.14062L15.8555 9.14062C16.3008 9.14062 16.6055 8.8125 16.6055 8.37891C16.6055 7.93359 16.3008 7.60547 15.8555 7.60547L13.793 7.60547C14.4727 6.9375 14.8828 6.05859 14.8828 5.10938C14.8828 1.61719 11.5078 0 8.20312 0ZM8.32031 21.2109C11.1328 21.2109 13.582 20.1445 14.7539 17.9414C14.9883 17.5781 15.2227 17.0742 15.2227 16.5469C15.2227 15.9375 14.8125 15.5625 14.168 15.5625C13.5703 15.5625 13.2891 15.9023 13.0898 16.3242C12.2695 18.3516 10.4883 19.1836 8.26172 19.1836C5.60156 19.1836 3.58594 17.8828 3.58594 15.9492C3.58594 14.625 4.3125 13.6172 5.41406 12.9961L15.8555 12.9961C16.3008 12.9961 16.6055 12.6797 16.6055 12.2344C16.6055 11.7773 16.3008 11.4609 15.8555 11.4609L0.738281 11.4609C0.304688 11.4609 0 11.7773 0 12.2344C0 12.6797 0.304688 12.9961 0.738281 12.9961L2.84766 12.9961C1.91016 13.7227 1.33594 14.8125 1.33594 16.0312C1.33594 19.4414 4.78125 21.2109 8.32031 21.2109Z" fill="black" fill-opacity="0.85"/>
 </g>
</svg>
