<?xml version="1.0" encoding="UTF-8"?>
<!--Generator: Apple Native CoreSVG 360-->
<!DOCTYPE svg
PUBLIC "-//W3C//DTD SVG 1.1//EN"
       "http://www.w3.org/Graphics/SVG/1.1/DTD/svg11.dtd">
<svg version="1.1" xmlns="http://www.w3.org/2000/svg" xmlns:xlink="http://www.w3.org/1999/xlink" viewBox="0 0 20.0273 27.1992">
 <g>
  <rect height="27.1992" opacity="0" width="20.0273" x="0" y="0"/>
  <path d="M17.6719 27.1992C18.7734 27.1992 19.6758 26.3086 19.6758 25.1953C19.6758 24.0938 18.7734 23.2031 17.6719 23.2031C16.5703 23.2031 15.6797 24.0938 15.6797 25.1953C15.6797 26.3086 16.5703 27.1992 17.6719 27.1992Z" fill="black" fill-opacity="0.85"/>
  <path d="M9.83203 27.1992C10.9453 27.1992 11.8359 26.3086 11.8359 25.1953C11.8359 24.0938 10.9453 23.2031 9.83203 23.2031C8.73047 23.2031 7.83984 24.0938 7.83984 25.1953C7.83984 26.3086 8.73047 27.1992 9.83203 27.1992Z" fill="black" fill-opacity="0.85"/>
  <path d="M1.99219 27.1992C3.11719 27.1992 4.00781 26.3086 4.00781 25.1953C4.00781 24.0938 3.11719 23.2031 1.99219 23.2031C0.890625 23.2031 0 24.0938 0 25.1953C0 26.3086 0.890625 27.1992 1.99219 27.1992Z" fill="black" fill-opacity="0.85"/>
  <path d="M7.27734 19.9219L12.375 19.9219C16.957 19.9219 19.3008 17.4844 19.3008 13.3477C19.3008 10.125 16.5352 5.84766 13.2891 1.51172C12.6562 0.679688 12.2344 0.210938 11.0977 0.210938L8.55469 0.210938C7.41797 0.210938 7.00781 0.679688 6.36328 1.51172C3.11719 5.84766 0.363281 10.125 0.363281 13.3477C0.351562 17.4844 2.69531 19.9219 7.27734 19.9219ZM2.21484 13.3477C2.21484 10.7695 4.40625 7.23047 7.875 2.48438C8.12109 2.16797 8.23828 2.07422 8.58984 2.07422L11.0742 2.07422C11.4141 2.07422 11.5312 2.16797 11.7773 2.48438C15.2461 7.23047 17.4492 10.7695 17.4492 13.3477C17.4492 16.3359 15.8086 18.0703 12.375 18.0703L7.27734 18.0703C3.84375 18.0703 2.21484 16.3359 2.21484 13.3477ZM4.69922 5.0625L4.33594 6.91406L15.3281 6.91406L14.9766 5.0625ZM1.62891 14.1211L7.95703 14.1211L7.95703 12.2578L1.62891 12.2578ZM9.83203 15.8906C11.3438 15.8906 12.5391 14.6836 12.5391 13.1719C12.5391 11.6719 11.3438 10.4648 9.83203 10.4648C8.30859 10.4648 7.125 11.6719 7.125 13.1719C7.125 14.6836 8.30859 15.8906 9.83203 15.8906ZM9.83203 14.2266C9.22266 14.2266 8.77734 13.7812 8.77734 13.1719C8.77734 12.5742 9.22266 12.1289 9.83203 12.1289C10.4414 12.1289 10.8867 12.5742 10.8867 13.1719C10.8867 13.7812 10.4414 14.2266 9.83203 14.2266ZM11.707 14.1211L18.0703 14.1211L18.0703 12.2578L11.707 12.2578Z" fill="black" fill-opacity="0.85"/>
 </g>
</svg>
