<?xml version="1.0" encoding="UTF-8"?>
<!--Generator: Apple Native CoreSVG 360-->
<!DOCTYPE svg
PUBLIC "-//W3C//DTD SVG 1.1//EN"
       "http://www.w3.org/Graphics/SVG/1.1/DTD/svg11.dtd">
<svg version="1.1" xmlns="http://www.w3.org/2000/svg" xmlns:xlink="http://www.w3.org/1999/xlink" viewBox="0 0 19.2891 26.9883">
 <g>
  <rect height="26.9883" opacity="0" width="19.2891" x="0" y="0"/>
  <path d="M3.05859 2.85938C3.51562 2.85938 3.89062 2.48438 3.89062 2.02734C3.89062 1.57031 3.51562 1.19531 3.05859 1.19531C2.60156 1.19531 2.22656 1.57031 2.22656 2.02734C2.22656 2.48438 2.60156 2.85938 3.05859 2.85938ZM9.49219 1.67578C9.94922 1.67578 10.3242 1.30078 10.3242 0.84375C10.3242 0.375 9.94922 0 9.49219 0C9.03516 0 8.66016 0.375 8.66016 0.84375C8.66016 1.30078 9.03516 1.67578 9.49219 1.67578ZM15.9258 2.85938C16.3828 2.85938 16.7578 2.48438 16.7578 2.02734C16.7578 1.57031 16.3828 1.19531 15.9258 1.19531C15.4688 1.19531 15.0938 1.57031 15.0938 2.02734C15.0938 2.48438 15.4688 2.85938 15.9258 2.85938Z" fill="black" fill-opacity="0.85"/>
  <path d="M5.21484 5.60156C5.67188 5.60156 6.04688 5.22656 6.04688 4.76953C6.04688 4.3125 5.67188 3.9375 5.21484 3.9375C4.74609 3.9375 4.37109 4.3125 4.37109 4.76953C4.37109 5.22656 4.74609 5.60156 5.21484 5.60156ZM9.49219 5.16797C9.94922 5.16797 10.3242 4.79297 10.3242 4.33594C10.3242 3.87891 9.94922 3.50391 9.49219 3.50391C9.03516 3.50391 8.66016 3.87891 8.66016 4.33594C8.66016 4.79297 9.03516 5.16797 9.49219 5.16797ZM13.7812 5.60156C14.2383 5.60156 14.6133 5.22656 14.6133 4.76953C14.6133 4.3125 14.2383 3.9375 13.7812 3.9375C13.3125 3.9375 12.9492 4.3125 12.9492 4.76953C12.9492 5.22656 13.3125 5.60156 13.7812 5.60156Z" fill="black" fill-opacity="0.85"/>
  <path d="M6.92578 26.9648L12.0117 26.9648C16.5938 26.9648 18.9375 24.5391 18.9375 20.3906C18.9375 17.168 16.1719 12.8906 12.9258 8.56641C12.293 7.73438 11.8828 7.26562 10.7344 7.26562L8.20312 7.26562C7.06641 7.26562 6.65625 7.73438 6.01172 8.56641C2.76562 12.8906 0 17.168 0 20.3906C0 24.5391 2.34375 26.9648 6.92578 26.9648ZM1.85156 20.3906C1.85156 17.8125 4.05469 14.2852 7.52344 9.52734C7.75781 9.21094 7.88672 9.12891 8.22656 9.12891L10.7109 9.12891C11.0508 9.12891 11.1797 9.21094 11.4141 9.52734C14.8828 14.2852 17.0859 17.8125 17.0859 20.3906C17.0859 23.3906 15.4453 25.1133 12.0117 25.1133L6.92578 25.1133C3.49219 25.1133 1.85156 23.3906 1.85156 20.3906ZM4.34766 12.1172L3.98438 13.9688L14.9766 13.9688L14.625 12.1172ZM1.27734 21.1641L7.59375 21.1641L7.59375 19.3125L1.27734 19.3125ZM9.48047 22.9453C10.9805 22.9453 12.1758 21.7383 12.1758 20.2266C12.1758 18.7148 10.9805 17.5195 9.48047 17.5195C7.94531 17.5195 6.76172 18.7148 6.76172 20.2266C6.76172 21.7383 7.94531 22.9453 9.48047 22.9453ZM9.48047 21.2812C8.85938 21.2812 8.42578 20.8359 8.42578 20.2266C8.42578 19.6289 8.85938 19.1719 9.48047 19.1719C10.0781 19.1719 10.5234 19.6289 10.5234 20.2266C10.5234 20.8359 10.0781 21.2812 9.48047 21.2812ZM11.3555 21.1641L17.7188 21.1641L17.7188 19.3125L11.3555 19.3125Z" fill="black" fill-opacity="0.85"/>
 </g>
</svg>
