<?xml version="1.0" encoding="UTF-8"?>
<!--Generator: Apple Native CoreSVG 360-->
<!DOCTYPE svg
PUBLIC "-//W3C//DTD SVG 1.1//EN"
       "http://www.w3.org/Graphics/SVG/1.1/DTD/svg11.dtd">
<svg version="1.1" xmlns="http://www.w3.org/2000/svg" xmlns:xlink="http://www.w3.org/1999/xlink" viewBox="0 0 21.9727 22.8164">
 <g>
  <rect height="22.8164" opacity="0" width="21.9727" x="0" y="0"/>
  <path d="M7.96875 22.793L13.6406 22.793C18.9375 22.793 21.6211 20.0039 21.6211 15.2461C21.6211 11.5195 18.5508 6.53906 14.7539 1.47656C14.0039 0.492188 13.5586 0 12.293 0L9.32812 0C8.0625 0 7.61719 0.492188 6.86719 1.47656C3.07031 6.53906 0 11.5195 0 15.2461C0 20.0039 2.68359 22.793 7.96875 22.793ZM1.88672 15.2461C1.88672 12.1758 4.35938 7.99219 8.41406 2.4375C8.69531 2.0625 8.90625 1.88672 9.36328 1.88672L12.2578 1.88672C12.7148 1.88672 12.9141 2.0625 13.1953 2.4375C17.2617 7.99219 19.7344 12.1758 19.7344 15.2461C19.7344 18.8086 17.7305 20.9062 13.6406 20.9062L7.96875 20.9062C3.87891 20.9062 1.88672 18.8086 1.88672 15.2461ZM4.89844 5.69531L4.54688 7.58203L17.0742 7.58203L16.7227 5.69531ZM1.5 16.0078L8.46094 16.0078L8.46094 14.1211L1.5 14.1211ZM10.8164 18.082C12.5156 18.082 13.8398 16.7578 13.8398 15.0469C13.8398 13.3594 12.5156 12.0234 10.8164 12.0234C9.11719 12.0234 7.78125 13.3594 7.78125 15.0469C7.78125 16.7578 9.11719 18.082 10.8164 18.082ZM10.8164 16.4297C10.043 16.4297 9.43359 15.832 9.43359 15.0469C9.43359 14.2852 10.043 13.6758 10.8164 13.6758C11.5898 13.6758 12.1875 14.2852 12.1875 15.0469C12.1875 15.832 11.5898 16.4297 10.8164 16.4297ZM13.1602 16.0078L20.1797 16.0078L20.1797 14.1211L13.1602 14.1211Z" fill="black" fill-opacity="0.85"/>
 </g>
</svg>
