<?xml version="1.0" encoding="UTF-8"?>
<!--Generator: Apple Native CoreSVG 360-->
<!DOCTYPE svg
PUBLIC "-//W3C//DTD SVG 1.1//EN"
       "http://www.w3.org/Graphics/SVG/1.1/DTD/svg11.dtd">
<svg version="1.1" xmlns="http://www.w3.org/2000/svg" xmlns:xlink="http://www.w3.org/1999/xlink" viewBox="0 0 28.0547 25.3008">
 <g>
  <rect height="25.3008" opacity="0" width="28.0547" x="0" y="0"/>
  <path d="M14.7188 18.7382C11.9799 20.0473 9.54108 22.0898 6 22.0898C4.5 22.0898 3.12891 21.7266 1.80469 20.9531C1.16016 20.5898 1.13672 19.9453 1.41797 19.5234C1.65234 19.1602 2.13281 18.9727 2.625 19.2539C3.82031 19.9453 4.83984 20.2031 6 20.2031C9.51617 20.2031 11.9561 17.8651 15.0667 16.5916C14.8577 17.2704 14.7188 17.9939 14.7188 18.7382Z" fill="black" fill-opacity="0.85"/>
  <path d="M17.5134 11.5191C13.4453 12.2422 10.6909 15.8086 6.01172 15.8086C4.51172 15.8086 3.14062 15.4336 1.81641 14.6719C1.17188 14.2969 1.14844 13.6641 1.42969 13.2422C1.66406 12.8789 2.14453 12.6914 2.63672 12.9727C3.83203 13.6523 4.85156 13.9219 6.01172 13.9219C10.7339 13.9219 13.515 9.70493 18.5848 9.51154Z" fill="black" fill-opacity="0.85"/>
  <path d="M23.1445 4.33594C23.8008 4.72266 23.8242 5.35547 23.5312 5.77734C23.2852 6.12891 22.8164 6.31641 22.3242 6.03516C21.1289 5.35547 20.0977 5.09766 18.9492 5.09766C14.0391 5.09766 11.2148 9.51562 6 9.51562C4.5 9.51562 3.12891 9.15234 1.80469 8.39062C1.16016 8.01562 1.13672 7.38281 1.41797 6.96094C1.65234 6.59766 2.13281 6.41016 2.625 6.69141C3.82031 7.37109 4.83984 7.62891 6 7.62891C10.8398 7.62891 13.6406 3.21094 18.9492 3.21094C20.4492 3.21094 21.8203 3.57422 23.1445 4.33594Z" fill="black" fill-opacity="0.85"/>
  <path d="M21.3867 23.6953C24.2109 23.6953 26.4609 21.4922 26.4609 18.7383C26.4609 17.2148 25.6992 15.7266 25.0547 14.5195L22.4414 9.65625C22.1602 9.12891 21.9023 8.90625 21.3867 8.90625C20.8594 8.90625 20.6133 9.12891 20.332 9.65625L17.7305 14.5195C17.0859 15.7266 16.3242 17.2148 16.3242 18.7383C16.3242 21.4922 18.5742 23.6953 21.3867 23.6953ZM21.3867 22.1484C19.4297 22.1484 17.8711 20.6484 17.8711 18.7383C17.8711 17.5781 18.4688 16.4531 19.1016 15.2461L21.2812 11.2031C21.3398 11.0859 21.457 11.0859 21.5156 11.2031L23.6602 15.2461C24.3047 16.4531 24.9141 17.5781 24.9141 18.7383C24.9141 20.6484 23.3438 22.1484 21.3867 22.1484Z" fill="black" fill-opacity="0.85"/>
 </g>
</svg>
