<?xml version="1.0" encoding="UTF-8"?>
<!--Generator: Apple Native CoreSVG 360-->
<!DOCTYPE svg
PUBLIC "-//W3C//DTD SVG 1.1//EN"
       "http://www.w3.org/Graphics/SVG/1.1/DTD/svg11.dtd">
<svg version="1.1" xmlns="http://www.w3.org/2000/svg" xmlns:xlink="http://www.w3.org/1999/xlink" viewBox="0 0 24.4805 17.332">
 <g>
  <rect height="17.332" opacity="0" width="24.4805" x="0" y="0"/>
  <path d="M1.04297 17.3086C1.61719 17.3086 2.08594 16.8398 2.08594 16.2656L2.08594 9.36328L11.3672 9.36328L11.3672 16.2656C11.3672 16.8398 11.8242 17.3086 12.4102 17.3086C12.9844 17.3086 13.4414 16.8398 13.4414 16.2656L13.4414 1.04297C13.4414 0.457031 12.9844 0 12.4102 0C11.8242 0 11.3672 0.457031 11.3672 1.04297L11.3672 7.54688L2.08594 7.54688L2.08594 1.04297C2.08594 0.457031 1.61719 0 1.04297 0C0.457031 0 0 0.457031 0 1.04297L0 16.2656C0 16.8398 0.457031 17.3086 1.04297 17.3086ZM17.7656 17.0625L23.3789 17.0625C23.8242 17.0625 24.1289 16.7461 24.1289 16.3242C24.1289 15.8906 23.8125 15.5977 23.3789 15.5977L19.0898 15.5977L19.0547 15.9375L21.9492 12.8086C22.8398 11.8594 23.5312 11.0039 23.5312 9.79688C23.5312 8.13281 22.2305 6.97266 20.3086 6.97266C18.5156 6.97266 16.9102 8.29688 16.9102 9.63281C16.9102 10.0781 17.2031 10.3594 17.6484 10.3594C18.0469 10.3594 18.2461 10.1133 18.4453 9.79688C18.7148 9.15234 19.2773 8.47266 20.2734 8.47266C21.2695 8.47266 21.9375 9.05859 21.9375 9.92578C21.9375 10.6875 21.2812 11.332 20.6719 12L17.2617 15.668C17.0625 15.8672 16.9688 16.0664 16.9688 16.3359C16.9688 16.7695 17.2617 17.0625 17.7656 17.0625Z" fill="black" fill-opacity="0.85"/>
 </g>
</svg>
