<?xml version="1.0" encoding="UTF-8"?>
<!--Generator: Apple Native CoreSVG 360-->
<!DOCTYPE svg
PUBLIC "-//W3C//DTD SVG 1.1//EN"
       "http://www.w3.org/Graphics/SVG/1.1/DTD/svg11.dtd">
<svg version="1.1" xmlns="http://www.w3.org/2000/svg" xmlns:xlink="http://www.w3.org/1999/xlink" viewBox="0 0 29.8125 30.5977">
 <g>
  <rect height="30.5977" opacity="0" width="29.8125" x="0" y="0"/>
  <path d="M25.7578 12.1406C28.043 13.0664 29.4609 15.0117 29.4609 17.3789C29.4609 20.2148 27.3047 22.3828 23.707 22.3828L17.918 22.3828L17.918 20.4961L23.6953 20.4961C26.2617 20.4961 27.5742 19.1836 27.5742 17.3789C27.5742 15.3516 26.2031 14.0156 24.0703 13.5469C23.9297 13.5234 23.8711 13.4297 23.8828 13.2773C23.9297 12.7266 23.9648 12.0938 23.9297 11.5664C23.7305 8.07422 21.0703 5.02734 17.2266 5.02734C14.1914 5.02734 12.4453 6.70312 11.3086 8.73047C11.2383 8.85938 11.1562 8.88281 11.0156 8.83594C8.60156 8.13281 6.01172 9.12891 6.01172 12.7266C6.01172 12.8789 5.95312 12.9727 5.78906 12.9727C3.30469 12.9727 1.88672 14.6367 1.88672 16.875C1.88672 18.8906 3.33984 20.4961 6.11719 20.4961L11.6484 20.4961L11.6484 22.3828L6.12891 22.3828C2.28516 22.3828 0 19.9219 0 16.875C0 14.1094 1.65234 11.9414 4.30078 11.5312C4.35938 8.23828 7.72266 6.17578 10.3828 6.89062C11.7891 4.83984 14.0508 3.14062 17.2266 3.14062C22.0195 3.14062 25.7812 6.91406 25.7578 12.1406Z" fill="black" fill-opacity="0.85"/>
  <path d="M10.8047 17.2266C11.0391 17.2266 11.2852 17.1328 11.4492 16.9453L13.2656 15.0117L14.7891 13.3945L16.3008 15.0117L18.1055 16.9453C18.2812 17.1328 18.5156 17.2266 18.75 17.2266C19.2305 17.2266 19.6055 16.875 19.6055 16.4062C19.6055 16.1484 19.5 15.9609 19.3242 15.7852L15.457 12.0586C15.2227 11.8242 15.0234 11.7539 14.7891 11.7539C14.543 11.7539 14.3438 11.8242 14.1094 12.0586L10.2422 15.7852C10.0664 15.9609 9.96094 16.1484 9.96094 16.4062C9.96094 16.875 10.3125 17.2266 10.8047 17.2266ZM14.7891 28.4766C15.293 28.4766 15.7148 28.0664 15.7148 27.5742L15.7148 16.0664L15.5742 12.9141C15.5508 12.4805 15.2109 12.1289 14.7891 12.1289C14.3555 12.1289 14.0156 12.4805 13.9922 12.9141L13.8516 16.0664L13.8516 27.5742C13.8516 28.0664 14.2852 28.4766 14.7891 28.4766Z" fill="black" fill-opacity="0.85"/>
 </g>
</svg>
