<?xml version="1.0" encoding="UTF-8"?>
<!--Generator: Apple Native CoreSVG 360-->
<!DOCTYPE svg
PUBLIC "-//W3C//DTD SVG 1.1//EN"
       "http://www.w3.org/Graphics/SVG/1.1/DTD/svg11.dtd">
<svg version="1.1" xmlns="http://www.w3.org/2000/svg" xmlns:xlink="http://www.w3.org/1999/xlink" viewBox="0 0 29.7188 22.207">
 <g>
  <rect height="22.207" opacity="0" width="29.7188" x="0" y="0"/>
  <path d="M0.0234375 14.8594C0.339844 17.0391 1.89844 18.9023 4.08984 19.793L4.75781 18.0117C3.29297 17.4141 2.23828 16.2422 1.93359 14.8594ZM5.77734 20.2383C6.15234 20.2969 6.5625 20.332 6.97266 20.332L11.0977 20.332L11.0977 18.4453L6.97266 18.4453C6.79688 18.4453 6.62109 18.4336 6.46875 18.4219ZM12.8203 20.332L17.4492 20.332L17.4492 18.4453L12.8203 18.4453ZM19.1836 20.332L23.1094 20.332C23.5898 20.332 24.0469 20.2852 24.4922 20.2031L23.8125 18.3984C23.5781 18.4336 23.3438 18.4453 23.1094 18.4453L19.1836 18.4453ZM26.1328 19.6406C27.8203 18.7852 29.0391 17.25 29.3438 15.4336L27.4102 15.4336C27.1523 16.4648 26.4258 17.332 25.4531 17.8477ZM27.4688 13.6992L29.3672 13.6992C29.1328 11.9062 28.1133 10.3242 26.5312 9.38672L24.8203 10.6172C26.2383 11.1562 27.1992 12.2578 27.4688 13.6992ZM23.8828 9.14062L25.6641 7.89844C25.5 6.23438 24.9492 4.75781 24.1055 3.53906L22.6992 4.80469C23.3789 5.84766 23.8008 7.08984 23.8828 8.37891C23.8945 8.625 23.8945 8.88281 23.8828 9.14062ZM21.5508 3.50391L22.9805 2.22656C21.6562 0.984375 19.9453 0.175781 18.0234 0L18.0234 1.89844C19.4062 2.07422 20.6133 2.64844 21.5508 3.50391ZM11.707 4.79297C12.6914 3.25781 14.1562 2.13281 16.2891 1.88672L16.2891 0C13.9453 0.234375 12.1055 1.41797 10.875 2.98828ZM6.03516 8.56641C6.41016 6.09375 8.23828 5.17969 10.1367 5.44922L9.21094 3.51562C6.99609 3.43359 4.83984 5.00391 4.35938 7.32422ZM0 13.125L1.91016 13.125C2.17969 11.4844 3.23438 10.207 4.89844 9.86719L3.19922 8.625C1.40625 9.35156 0.257812 11.0625 0 13.125Z" fill="black" fill-opacity="0.85"/>
 </g>
</svg>
