<?xml version="1.0" encoding="UTF-8"?>
<!--Generator: Apple Native CoreSVG 360-->
<!DOCTYPE svg
PUBLIC "-//W3C//DTD SVG 1.1//EN"
       "http://www.w3.org/Graphics/SVG/1.1/DTD/svg11.dtd">
<svg version="1.1" xmlns="http://www.w3.org/2000/svg" xmlns:xlink="http://www.w3.org/1999/xlink" viewBox="0 0 29.8125 32.4492">
 <g>
  <rect height="32.4492" opacity="0" width="29.8125" x="0" y="0"/>
  <path d="M25.7578 13.0664C28.043 13.9922 29.4609 15.9375 29.4609 18.3047C29.4609 21.1406 27.3047 23.3086 23.707 23.3086L17.918 23.3086L17.918 21.4219L23.6953 21.4219C26.2617 21.4219 27.5742 20.1094 27.5742 18.3047C27.5742 16.2773 26.2031 14.9414 24.0703 14.4727C23.9297 14.4492 23.8711 14.3555 23.8828 14.2031C23.9297 13.6523 23.9648 13.0195 23.9297 12.4922C23.7305 9 21.0703 5.95312 17.2266 5.95312C14.1914 5.95312 12.4453 7.62891 11.3086 9.65625C11.2383 9.78516 11.1562 9.80859 11.0156 9.76172C8.60156 9.05859 6.01172 10.0547 6.01172 13.6523C6.01172 13.8047 5.95312 13.8984 5.78906 13.8984C3.30469 13.8984 1.88672 15.5625 1.88672 17.8008C1.88672 19.8164 3.33984 21.4219 6.11719 21.4219L11.6484 21.4219L11.6484 23.3086L6.12891 23.3086C2.28516 23.3086 0 20.8477 0 17.8008C0 15.0352 1.65234 12.8672 4.30078 12.457C4.35938 9.16406 7.72266 7.10156 10.3828 7.81641C11.7891 5.76562 14.0508 4.06641 17.2266 4.06641C22.0195 4.06641 25.7812 7.83984 25.7578 13.0664Z" fill="black" fill-opacity="0.85"/>
  <path d="M10.8047 24.7969C10.3125 24.7969 9.96094 25.1367 9.96094 25.6172C9.96094 25.8633 10.0664 26.0508 10.2422 26.2266L14.1094 29.9531C14.3438 30.1875 14.543 30.2695 14.7891 30.2695C15.0234 30.2695 15.2227 30.1875 15.457 29.9531L19.3242 26.2266C19.5 26.0508 19.6055 25.8633 19.6055 25.6172C19.6055 25.1367 19.2305 24.7969 18.75 24.7969C18.5156 24.7969 18.2812 24.8789 18.1055 25.0664L16.3008 27L14.7891 28.6172L13.2656 27L11.4492 25.0664C11.2852 24.8789 11.0391 24.7969 10.8047 24.7969ZM14.7891 14.9766C14.2852 14.9766 13.8516 15.3867 13.8516 15.8789L13.8516 25.9453L13.9922 29.0977C14.0156 29.5312 14.3555 29.8945 14.7891 29.8945C15.2109 29.8945 15.5508 29.5312 15.5742 29.0977L15.7148 25.9453L15.7148 15.8789C15.7148 15.3867 15.293 14.9766 14.7891 14.9766Z" fill="black" fill-opacity="0.85"/>
 </g>
</svg>
