<?xml version="1.0" encoding="UTF-8"?>
<!--Generator: Apple Native CoreSVG 360-->
<!DOCTYPE svg
PUBLIC "-//W3C//DTD SVG 1.1//EN"
       "http://www.w3.org/Graphics/SVG/1.1/DTD/svg11.dtd">
<svg version="1.1" xmlns="http://www.w3.org/2000/svg" xmlns:xlink="http://www.w3.org/1999/xlink" viewBox="0 0 27.4455 20.3086">
 <g>
  <rect height="20.3086" opacity="0" width="27.4455" x="0" y="0"/>
  <path d="M11.4728 20.2852L20.1564 20.2852C20.6837 20.2852 21.1173 19.875 21.1173 19.3477C21.1173 18.8203 20.6837 18.3984 20.1564 18.3984L11.4728 18.3984C10.9337 18.3984 10.5235 18.8203 10.5235 19.3477C10.5235 19.875 10.9337 20.2852 11.4728 20.2852Z" fill="black" fill-opacity="0.85"/>
  <path d="M11.4728 14.1562L26.1446 14.1562C26.672 14.1562 27.0939 13.7461 27.0939 13.2188C27.0939 12.6797 26.672 12.2695 26.1446 12.2695L11.4728 12.2695C10.9337 12.2695 10.5235 12.6797 10.5235 13.2188C10.5235 13.7461 10.9337 14.1562 11.4728 14.1562Z" fill="black" fill-opacity="0.85"/>
  <path d="M11.4728 8.02734L26.1446 8.02734C26.672 8.02734 27.0939 7.60547 27.0939 7.07812C27.0939 6.55078 26.672 6.14062 26.1446 6.14062L11.4728 6.14062C10.9337 6.14062 10.5235 6.55078 10.5235 7.07812C10.5235 7.60547 10.9337 8.02734 11.4728 8.02734Z" fill="black" fill-opacity="0.85"/>
  <path d="M11.4728 1.88672L26.1446 1.88672C26.672 1.88672 27.0939 1.47656 27.0939 0.949219C27.0939 0.421875 26.672 0 26.1446 0L11.4728 0C10.9337 0 10.5235 0.421875 10.5235 0.949219C10.5235 1.47656 10.9337 1.88672 11.4728 1.88672Z" fill="black" fill-opacity="0.85"/>
  <path d="M1.83995 13.7109L5.71886 11.1211C6.41026 10.6523 6.38683 9.65625 5.71886 9.1875L1.83995 6.55078C0.937607 5.94141-0.0116113 6.28125 0.000107413 7.35938L0.000107413 12.9141C-0.0116113 13.957 0.972764 14.2734 1.83995 13.7109Z" fill="black" fill-opacity="0.85"/>
 </g>
</svg>
