<?xml version="1.0" encoding="UTF-8"?>
<!--Generator: Apple Native CoreSVG 360-->
<!DOCTYPE svg
PUBLIC "-//W3C//DTD SVG 1.1//EN"
       "http://www.w3.org/Graphics/SVG/1.1/DTD/svg11.dtd">
<svg version="1.1" xmlns="http://www.w3.org/2000/svg" xmlns:xlink="http://www.w3.org/1999/xlink" viewBox="0 0 24.4805 22.043">
 <g>
  <rect height="22.043" opacity="0" width="24.4805" x="0" y="0"/>
  <path d="M0.9375 21.9727C1.47656 21.9727 1.88672 21.5391 1.88672 21.0117L1.88672 0.949219C1.88672 0.421875 1.47656 0 0.9375 0C0.410156 0 0 0.421875 0 0.949219L0 21.0117C0 21.5391 0.410156 21.9727 0.9375 21.9727Z" fill="black" fill-opacity="0.85"/>
  <path d="M6.78516 21.9727C7.32422 21.9727 7.73438 21.5391 7.73438 21.0117L7.73438 0.949219C7.73438 0.421875 7.32422 0 6.78516 0C6.25781 0 5.84766 0.421875 5.84766 0.949219L5.84766 21.0117C5.84766 21.5391 6.25781 21.9727 6.78516 21.9727Z" fill="black" fill-opacity="0.85"/>
  <path d="M12.6328 21.9727C13.1719 21.9727 13.582 21.5391 13.582 21.0117L13.582 0.949219C13.582 0.421875 13.1719 0 12.6328 0C12.1055 0 11.6953 0.421875 11.6953 0.949219L11.6953 21.0117C11.6953 21.5391 12.1055 21.9727 12.6328 21.9727Z" fill="black" fill-opacity="0.85"/>
  <path d="M19.7461 14.5781L23.625 11.9883C24.3164 11.5195 24.293 10.5234 23.625 10.0547L19.7461 7.41797C18.8438 6.80859 17.8945 7.14844 17.9062 8.22656L17.9062 13.7812C17.8945 14.8242 18.8789 15.1406 19.7461 14.5781Z" fill="black" fill-opacity="0.85"/>
 </g>
</svg>
