<?xml version="1.0" encoding="UTF-8"?>
<!--Generator: Apple Native CoreSVG 360-->
<!DOCTYPE svg
PUBLIC "-//W3C//DTD SVG 1.1//EN"
       "http://www.w3.org/Graphics/SVG/1.1/DTD/svg11.dtd">
<svg version="1.1" xmlns="http://www.w3.org/2000/svg" xmlns:xlink="http://www.w3.org/1999/xlink" viewBox="0 0 28.582 23.4085">
 <g>
  <rect height="23.4085" opacity="0" width="28.582" x="0" y="0"/>
  <path d="M28.2305 14.0539C28.2305 6.67105 22.5586 0.612457 15.3398 0.00308175C14.9648-0.0320745 14.6836 0.237457 14.6836 0.612457L14.6836 4.44449C14.6836 4.76089 14.9062 5.00699 15.2227 5.03043C19.7109 5.58121 23.2031 9.41324 23.2031 14.0539C23.2031 16.1632 22.4766 18.1086 21.1992 19.7375C21.0352 19.9367 21.0469 20.1945 21.2227 20.382L24.0234 23.1711C24.2812 23.4289 24.6797 23.4289 24.9141 23.1476C26.9883 20.6867 28.2305 17.5109 28.2305 14.0539Z" fill="black" fill-opacity="0.85"/>
  <path d="M0 14.0539C0 17.5226 1.24219 20.6984 3.31641 23.1593C3.55078 23.4406 3.9375 23.4289 4.20703 23.1711L7.00781 20.382C7.18359 20.1945 7.19531 19.9367 7.03125 19.7375C5.74219 18.1086 5.02734 16.1632 5.02734 14.0539C5.02734 9.41324 8.51953 5.58121 13.0078 5.03043C13.3242 5.00699 13.5469 4.76089 13.5469 4.44449L13.5469 0.612457C13.5469 0.237457 13.2656-0.0320745 12.8906 0.00308175C5.67188 0.612457 0 6.67105 0 14.0539Z" fill="black" fill-opacity="0.85"/>
  <path d="M12.8672 15.214C14.707 15.214 16.125 14.2414 16.3711 12.4484L17.2852 12.4484C17.5078 12.4484 17.6836 12.2726 17.6836 12.0617C17.6836 11.8507 17.5078 11.675 17.2852 11.675L16.3945 11.675C16.3242 10.9015 16.0078 10.1867 15.3984 9.70621L17.2852 9.70621C17.5078 9.70621 17.6836 9.53043 17.6836 9.31949C17.6836 9.08511 17.5078 8.92105 17.2852 8.92105L10.793 8.92105C10.5 8.92105 10.3125 9.12027 10.3125 9.44839L10.3125 9.53043C10.3125 9.85855 10.5 10.0578 10.793 10.0578L12.7148 10.0578C13.875 10.0578 14.8008 10.5265 14.9766 11.675L10.7344 11.675C10.5117 11.675 10.3359 11.8507 10.3359 12.0617C10.3359 12.2726 10.5117 12.4484 10.7344 12.4484L14.9648 12.4484C14.8008 13.6437 13.8867 14.0656 12.7031 14.0656L11.0742 14.0656C10.6289 14.0656 10.3477 14.3468 10.3477 14.7218L10.3477 14.7687C10.3477 15.0968 10.5 15.2961 10.7578 15.5304L14.7656 19.2921C14.9648 19.4796 15.1289 19.6203 15.4219 19.6203C15.7734 19.6203 16.0195 19.339 16.0195 19.0109C16.0195 18.7882 15.9141 18.6359 15.75 18.4718L12.2578 15.214Z" fill="black" fill-opacity="0.85"/>
 </g>
</svg>
