<?xml version="1.0" encoding="UTF-8"?>
<!--Generator: Apple Native CoreSVG 360-->
<!DOCTYPE svg
PUBLIC "-//W3C//DTD SVG 1.1//EN"
       "http://www.w3.org/Graphics/SVG/1.1/DTD/svg11.dtd">
<svg version="1.1" xmlns="http://www.w3.org/2000/svg" xmlns:xlink="http://www.w3.org/1999/xlink" viewBox="0 0 28.582 23.5195">
 <g>
  <rect height="23.5195" opacity="0" width="28.582" x="0" y="0"/>
  <path d="M28.2305 14.1094C28.2305 10.6641 26.9883 7.48828 24.9141 5.02734C24.6797 4.74609 24.2812 4.74609 24.0234 5.01562L21.3047 7.73438C21.082 7.95703 21.0703 8.27344 21.2695 8.51953C22.4766 10.0664 23.2031 12.0117 23.2031 14.1094C23.2031 16.2188 22.4766 18.1641 21.1992 19.793C21.0352 19.9922 21.0469 20.25 21.2227 20.4375L24.0117 23.2266C24.2812 23.4961 24.668 23.4961 24.9141 23.2031C26.9883 20.7422 28.2305 17.5664 28.2305 14.1094Z" fill="black" fill-opacity="0.85"/>
  <path d="M14.1094 5.02734C16.2305 5.02734 18.1758 5.76562 19.7344 6.97266C19.9688 7.16016 20.2734 7.13672 20.4961 6.91406L23.2148 4.19531C23.4844 3.92578 23.4727 3.53906 23.1914 3.30469C20.7422 1.24219 17.5664 0 14.1094 0C10.6641 0 7.48828 1.24219 5.03906 3.30469C4.75781 3.53906 4.74609 3.92578 5.01562 4.19531L7.73438 6.91406C7.95703 7.13672 8.27344 7.16016 8.53125 6.96094C10.0781 5.76562 12.0117 5.02734 14.1094 5.02734Z" fill="black" fill-opacity="0.85"/>
  <path d="M0 14.1094C0 17.5664 1.24219 20.7422 3.31641 23.2031C3.55078 23.4961 3.94922 23.4961 4.20703 23.2266L6.99609 20.4375C7.17188 20.25 7.19531 19.9922 7.03125 19.793C5.75391 18.1641 5.02734 16.2188 5.02734 14.1094C5.02734 12.0117 5.74219 10.0664 6.96094 8.51953C7.14844 8.27344 7.14844 7.95703 6.92578 7.73438L4.20703 5.01562C3.9375 4.74609 3.55078 4.74609 3.31641 5.02734C1.24219 7.48828 0 10.6641 0 14.1094Z" fill="black" fill-opacity="0.85"/>
  <path d="M12.8672 15.2695C14.707 15.2695 16.125 14.2969 16.3711 12.5039L17.2852 12.5039C17.5078 12.5039 17.6836 12.3281 17.6836 12.1172C17.6836 11.9062 17.5078 11.7305 17.2852 11.7305L16.3945 11.7305C16.3242 10.957 16.0078 10.2422 15.3984 9.76172L17.2852 9.76172C17.5078 9.76172 17.6836 9.58594 17.6836 9.375C17.6836 9.14062 17.5078 8.97656 17.2852 8.97656L10.793 8.97656C10.5 8.97656 10.3125 9.17578 10.3125 9.50391L10.3125 9.58594C10.3125 9.91406 10.5 10.1133 10.793 10.1133L12.7148 10.1133C13.875 10.1133 14.8008 10.582 14.9766 11.7305L10.7344 11.7305C10.5117 11.7305 10.3359 11.9062 10.3359 12.1172C10.3359 12.3281 10.5117 12.5039 10.7344 12.5039L14.9648 12.5039C14.8008 13.6992 13.8867 14.1211 12.7031 14.1211L11.0742 14.1211C10.6289 14.1211 10.3477 14.4023 10.3477 14.7773L10.3477 14.8242C10.3477 15.1523 10.5 15.3516 10.7578 15.5859L14.7656 19.3477C14.9648 19.5352 15.1289 19.6758 15.4219 19.6758C15.7734 19.6758 16.0195 19.3945 16.0195 19.0664C16.0195 18.8438 15.9141 18.6914 15.75 18.5273L12.2578 15.2695Z" fill="black" fill-opacity="0.85"/>
 </g>
</svg>
