<?xml version="1.0" encoding="UTF-8"?>
<!--Generator: Apple Native CoreSVG 360-->
<!DOCTYPE svg
PUBLIC "-//W3C//DTD SVG 1.1//EN"
       "http://www.w3.org/Graphics/SVG/1.1/DTD/svg11.dtd">
<svg version="1.1" xmlns="http://www.w3.org/2000/svg" xmlns:xlink="http://www.w3.org/1999/xlink" viewBox="0 0 26.5195 25.0195">
 <g>
  <rect height="25.0195" opacity="0" width="26.5195" x="0" y="0"/>
  <path d="M1.55859 22.2188L24.6094 22.2188L24.6094 21.4336C24.6094 20.9648 24.3398 20.6836 23.8594 20.6836L23.1094 20.6836L23.1094 8.03906L24.1406 8.03906C24.7852 8.03906 25.1602 7.57031 25.1602 7.08984C25.1602 6.73828 24.9609 6.43359 24.5273 6.1875L14.5195 0.410156C14.0508 0.140625 13.5586 0 13.0781 0C12.5977 0 12.0938 0.140625 11.6484 0.410156L1.64062 6.1875C1.19531 6.43359 1.00781 6.73828 1.00781 7.08984C1.00781 7.57031 1.38281 8.03906 2.02734 8.03906L3.05859 8.03906L3.05859 20.6836L2.32031 20.6836C1.83984 20.6836 1.55859 20.9648 1.55859 21.4336ZM4.82812 20.6836L4.82812 6.53906L12.6211 2.16797C12.7617 2.08594 12.9258 2.03906 13.0781 2.03906C13.2305 2.03906 13.3945 2.08594 13.5469 2.16797L21.3398 6.53906L21.3398 20.6836ZM0.9375 25.0078L25.2188 25.0078C25.7344 25.0078 26.168 24.5742 26.168 24.0586C26.168 23.543 25.7344 23.1211 25.2188 23.1211L0.9375 23.1211C0.421875 23.1211 0 23.543 0 24.0586C0 24.5742 0.421875 25.0078 0.9375 25.0078Z" fill="black" fill-opacity="0.85"/>
  <path d="M11.8477 13.3359C13.6992 13.3359 15.1055 12.3633 15.3516 10.5703L16.2656 10.5703C16.4883 10.5703 16.6641 10.3945 16.6641 10.1836C16.6641 9.97266 16.4883 9.79688 16.2656 9.79688L15.375 9.79688C15.3164 9.02344 14.9883 8.30859 14.3906 7.82812L16.2656 7.82812C16.4883 7.82812 16.6641 7.65234 16.6641 7.44141C16.6641 7.20703 16.4883 7.04297 16.2656 7.04297L9.78516 7.04297C9.48047 7.04297 9.30469 7.24219 9.30469 7.57031L9.30469 7.65234C9.30469 7.98047 9.48047 8.17969 9.78516 8.17969L11.6953 8.17969C12.8555 8.17969 13.7812 8.64844 13.957 9.79688L9.71484 9.79688C9.49219 9.79688 9.31641 9.97266 9.31641 10.1836C9.31641 10.3945 9.49219 10.5703 9.71484 10.5703L13.957 10.5703C13.793 11.7656 12.8789 12.1875 11.6836 12.1875L10.0547 12.1875C9.60938 12.1875 9.33984 12.4688 9.33984 12.8438L9.33984 12.8906C9.33984 13.2188 9.48047 13.418 9.75 13.6523L13.7578 17.4141C13.957 17.6016 14.1094 17.7422 14.4141 17.7422C14.7539 17.7422 15.0117 17.4609 15.0117 17.1328C15.0117 16.9102 14.9062 16.7578 14.7305 16.5938L11.2383 13.3359Z" fill="black" fill-opacity="0.85"/>
 </g>
</svg>
