<?xml version="1.0" encoding="UTF-8"?>
<!--Generator: Apple Native CoreSVG 360-->
<!DOCTYPE svg
PUBLIC "-//W3C//DTD SVG 1.1//EN"
       "http://www.w3.org/Graphics/SVG/1.1/DTD/svg11.dtd">
<svg version="1.1" xmlns="http://www.w3.org/2000/svg" xmlns:xlink="http://www.w3.org/1999/xlink" viewBox="0 0 14.7891 21.4102">
 <g>
  <rect height="21.4102" opacity="0" width="14.7891" x="0" y="0"/>
  <path d="M10.2891 21.3867C10.8984 21.3867 11.3438 20.9648 11.3438 20.3672C11.3438 19.9922 11.168 19.7109 10.8633 19.418L3.31641 12.4336L4.82812 12.4336C8.48438 12.4336 11.4023 10.6523 11.8711 6.98438L13.6641 6.98438C14.1094 6.98438 14.4375 6.65625 14.4375 6.22266C14.4375 5.77734 14.1094 5.44922 13.6641 5.44922L11.8945 5.44922C11.7539 3.79688 11.0625 2.4375 9.87891 1.52344L13.6641 1.53516C14.1094 1.53516 14.4375 1.20703 14.4375 0.773438C14.4375 0.328125 14.1094 0.0117188 13.6641 0.0117188L0.832031 0C0.328125 0 0.0117188 0.363281 0.0117188 0.949219L0.0117188 1.11328C0.0117188 1.67578 0.328125 2.02734 0.832031 2.02734L4.80469 2.02734C7.27734 2.02734 9.17578 3.08203 9.48047 5.44922L0.773438 5.44922C0.328125 5.44922 0 5.77734 0 6.22266C0 6.65625 0.328125 6.98438 0.773438 6.98438L9.49219 6.98438C9.1875 9.42188 7.18359 10.3711 4.72266 10.3711L1.34766 10.3711C0.667969 10.3711 0.0703125 10.793 0.0703125 11.5547L0.0703125 11.6133C0.0703125 12.1875 0.339844 12.5508 0.773438 12.9609L9.19922 20.8242C9.53906 21.1523 9.83203 21.3867 10.2891 21.3867Z" fill="black" fill-opacity="0.85"/>
 </g>
</svg>
