<?xml version="1.0" encoding="UTF-8"?>
<!--Generator: Apple Native CoreSVG 360-->
<!DOCTYPE svg
PUBLIC "-//W3C//DTD SVG 1.1//EN"
       "http://www.w3.org/Graphics/SVG/1.1/DTD/svg11.dtd">
<svg version="1.1" xmlns="http://www.w3.org/2000/svg" xmlns:xlink="http://www.w3.org/1999/xlink" viewBox="0 0 21.9609 21.5977">
 <g>
  <rect height="21.5977" opacity="0" width="21.9609" x="0" y="0"/>
  <path d="M6.375 21.5977L15.2227 21.5977C17.2852 21.5977 18.8906 21 19.9453 19.9453C21.0352 18.8672 21.6094 17.2617 21.6094 15.2109L21.6094 6.38672C21.6094 4.33594 21.0352 2.73047 19.9453 1.65234C18.8789 0.585938 17.2852 0 15.2227 0L6.375 0C4.32422 0 2.70703 0.597656 1.65234 1.65234C0.574219 2.73047 0 4.33594 0 6.38672L0 15.2109C0 17.2617 0.5625 18.8672 1.65234 19.9453C2.71875 21.0117 4.32422 21.5977 6.375 21.5977ZM6.375 19.7109C4.92188 19.7109 3.78516 19.3008 3.04688 18.5625C2.28516 17.8125 1.88672 16.6875 1.88672 15.2109L1.88672 6.38672C1.88672 4.91016 2.28516 3.78516 3.04688 3.03516C3.77344 2.30859 4.92188 1.88672 6.375 1.88672L15.2227 1.88672C16.6875 1.88672 17.8125 2.29688 18.5625 3.03516C19.3242 3.78516 19.7227 4.91016 19.7227 6.38672L19.7227 15.2109C19.7227 16.6875 19.3242 17.8125 18.5625 18.5625C17.8242 19.2891 16.6875 19.7109 15.2227 19.7109Z" fill="black" fill-opacity="0.85"/>
  <path d="M8.95312 16.7812L13.3008 16.7812C13.7344 16.7812 14.0742 16.4648 14.0742 16.0312C14.0742 15.6094 13.7344 15.2812 13.3008 15.2812L11.9766 15.2812L11.9766 9.83203C11.9766 9.25781 11.6836 8.87109 11.1445 8.87109L9.12891 8.87109C8.69531 8.87109 8.35547 9.19922 8.35547 9.62109C8.35547 10.0547 8.69531 10.3711 9.12891 10.3711L10.2773 10.3711L10.2773 15.2812L8.95312 15.2812C8.51953 15.2812 8.16797 15.6094 8.16797 16.0312C8.16797 16.4648 8.51953 16.7812 8.95312 16.7812ZM10.7227 7.08984C11.5078 7.08984 12.1172 6.46875 12.1172 5.69531C12.1172 4.91016 11.5078 4.28906 10.7227 4.28906C9.94922 4.28906 9.33984 4.91016 9.33984 5.69531C9.33984 6.46875 9.94922 7.08984 10.7227 7.08984Z" fill="black" fill-opacity="0.85"/>
 </g>
</svg>
