<?xml version="1.0" encoding="UTF-8"?>
<!--Generator: Apple Native CoreSVG 360-->
<!DOCTYPE svg
PUBLIC "-//W3C//DTD SVG 1.1//EN"
       "http://www.w3.org/Graphics/SVG/1.1/DTD/svg11.dtd">
<svg version="1.1" xmlns="http://www.w3.org/2000/svg" xmlns:xlink="http://www.w3.org/1999/xlink" viewBox="0 0 34.3431 18.082">
 <g>
  <rect height="18.082" opacity="0" width="34.3431" x="0" y="0"/>
  <path d="M16.9958 16.0312C19.3044 16.0312 21.9997 16.7344 24.0036 17.7773C24.5426 18.0703 25.1403 17.9531 25.4919 17.4961L33.4723 7.33594C34.2575 6.32812 34.1286 5.26172 33.1325 4.47656C29.863 1.95703 23.5934 0 16.9958 0C10.3981 0 4.12858 1.95703 0.847332 4.47656C-0.148761 5.26172-0.277668 6.32812 0.519207 7.33594L8.49968 17.4961C8.85124 17.9531 9.43718 18.0703 9.97624 17.7773C11.9801 16.7344 14.6872 16.0312 16.9958 16.0312ZM16.9958 14.1445C14.8512 14.1445 12.3786 14.707 9.98796 15.6914C9.69499 15.8086 9.56608 15.7852 9.33171 15.4922L2.39421 6.65625C2.17155 6.36328 2.20671 6.08203 2.52311 5.87109C6.55436 3.32812 11.7223 1.88672 16.9958 1.88672C22.2692 1.88672 27.4372 3.32812 31.4684 5.87109C31.7848 6.08203 31.82 6.36328 31.5856 6.65625L24.6598 15.4922C24.4255 15.7852 24.2966 15.8086 24.0036 15.6914C21.613 14.707 19.1286 14.1445 16.9958 14.1445Z" fill="black" fill-opacity="0.85"/>
  <path d="M15.32 12.75L18.6598 12.75C19.0583 12.75 19.3864 12.4336 19.3864 12.0234C19.3864 11.6367 19.07 11.332 18.6598 11.332L17.7692 11.332L17.7692 7.28906C17.7692 6.79688 17.4997 6.43359 17.0075 6.43359L15.4606 6.43359C15.0622 6.43359 14.7341 6.72656 14.7341 7.125C14.7341 7.54688 15.0622 7.85156 15.4606 7.85156L16.1989 7.85156L16.1989 11.332L15.32 11.332C14.9216 11.332 14.5934 11.625 14.5934 12.0234C14.5934 12.4453 14.9216 12.75 15.32 12.75ZM16.6911 5.33203C17.3591 5.33203 17.8864 4.78125 17.8864 4.125C17.8864 3.45703 17.3473 2.91797 16.6911 2.91797C16.0231 2.91797 15.4723 3.45703 15.4723 4.125C15.4723 4.78125 16.0231 5.33203 16.6911 5.33203Z" fill="black" fill-opacity="0.85"/>
 </g>
</svg>
