<?xml version="1.0" encoding="UTF-8"?>
<!--Generator: Apple Native CoreSVG 360-->
<!DOCTYPE svg
PUBLIC "-//W3C//DTD SVG 1.1//EN"
       "http://www.w3.org/Graphics/SVG/1.1/DTD/svg11.dtd">
<svg version="1.1" xmlns="http://www.w3.org/2000/svg" xmlns:xlink="http://www.w3.org/1999/xlink" viewBox="0 0 21.9609 21.5977">
 <g>
  <rect height="21.5977" opacity="0" width="21.9609" x="0" y="0"/>
  <path d="M19.9453 1.65234C21.0352 2.73047 21.6094 4.33594 21.6094 6.38672L21.6094 15.2109C21.6094 17.2617 21.0352 18.8672 19.9453 19.9453C18.8906 21 17.2852 21.5977 15.2227 21.5977L6.375 21.5977C4.32422 21.5977 2.71875 21.0117 1.65234 19.9453C0.5625 18.8672 0 17.2617 0 15.2109L0 6.38672C0 4.33594 0.574219 2.73047 1.65234 1.65234C2.70703 0.597656 4.32422 0 6.375 0L15.2227 0C17.2852 0 18.8789 0.585938 19.9453 1.65234ZM9.07031 8.84766C8.625 8.84766 8.27344 9.1875 8.27344 9.60938C8.27344 10.0664 8.625 10.3945 9.07031 10.3945L10.2305 10.3945L10.2305 15.3516L8.88281 15.3516C8.4375 15.3516 8.08594 15.7031 8.08594 16.125C8.08594 16.582 8.4375 16.8984 8.88281 16.8984L13.3125 16.8984C13.7578 16.8984 14.1094 16.582 14.1094 16.125C14.1094 15.7031 13.7578 15.3516 13.3125 15.3516L11.9648 15.3516L11.9648 9.83203C11.9648 9.24609 11.6719 8.84766 11.1211 8.84766ZM9.26953 5.625C9.26953 6.41016 9.90234 7.05469 10.6875 7.05469C11.4844 7.05469 12.1055 6.41016 12.1055 5.625C12.1055 4.81641 11.4844 4.18359 10.6875 4.18359C9.90234 4.18359 9.26953 4.81641 9.26953 5.625Z" fill="black" fill-opacity="0.85"/>
 </g>
</svg>
