<?xml version="1.0" encoding="UTF-8"?>
<!--Generator: Apple Native CoreSVG 360-->
<!DOCTYPE svg
PUBLIC "-//W3C//DTD SVG 1.1//EN"
       "http://www.w3.org/Graphics/SVG/1.1/DTD/svg11.dtd">
<svg version="1.1" xmlns="http://www.w3.org/2000/svg" xmlns:xlink="http://www.w3.org/1999/xlink" viewBox="0 0 19.1517 27.3441">
 <g>
  <rect height="27.3441" opacity="0" width="19.1517" x="0" y="0"/>
  <path d="M12.9919 27.2599C14.0348 27.4591 14.6208 27.3068 15.1833 26.7795L18.2653 23.8263C18.6637 23.4513 18.8044 23.1115 18.8044 22.4318L18.8044 19.3849C18.8044 18.4943 18.5231 18.1662 17.8669 18.0255L13.6012 17.1466C13.3434 17.088 13.2028 16.9591 13.0973 16.5724L10.3317 6.15445C9.8864 4.51383 8.72624 3.91617 7.24968 4.75992C5.46843 5.77945 3.58171 6.15445 2.18718 6.16617C0.687181 6.18961-0.285475 7.47867 0.148118 9.08414L4.21452 23.8029C4.56609 25.0568 5.28093 25.7482 6.76921 26.0412ZM12.195 26.2052L13.0856 25.4201L7.24968 24.3068C6.35906 24.131 6.07781 23.8146 5.87859 23.0998L1.97624 9.03727C1.77702 8.32242 1.97624 7.97086 2.51531 7.97086C4.13249 7.94742 6.44109 7.33805 7.73015 6.59977C8.32781 6.25992 8.59734 6.35367 8.74968 6.95133L11.527 17.592C11.7145 18.3185 11.9958 18.5998 12.6637 18.7287L15.9919 19.3849L15.7692 18.5646L12.4997 21.4591C11.9958 21.9045 11.9489 22.1974 11.9841 22.8185ZM14.5153 25.2795C14.3278 25.467 14.1637 25.3966 14.152 25.1623L14.07 23.0998C14.0466 22.7365 14.1051 22.5138 14.4333 22.2209L16.8708 19.9123C16.9762 19.8068 17.152 19.842 17.152 20.0295L17.152 22.4552C17.152 22.6427 17.07 22.8302 16.9762 22.9123ZM1.10906 7.19742L2.5739 6.58805L2.04656 4.68961C3.40593 4.7482 5.39812 4.23258 6.40593 3.4943L6.95671 5.40445L8.52702 5.01774L7.4489 1.29117C7.08562 0.0255485 5.21062-0.126795 2.93718 0.494299C0.546556 1.19742-0.273757 2.40445 0.0778058 3.61149ZM2.24577 3.00211C1.88249 2.88492 2.02312 2.50992 3.05437 2.11149C3.86296 1.79508 4.97624 1.59586 5.33952 1.72477C5.74968 1.94742 5.16374 2.39274 4.4489 2.67399C3.66374 2.95524 2.65593 3.20133 2.24577 3.00211Z" fill="black" fill-opacity="0.85"/>
 </g>
</svg>
