<?xml version="1.0" encoding="UTF-8"?>
<!--Generator: Apple Native CoreSVG 360-->
<!DOCTYPE svg
PUBLIC "-//W3C//DTD SVG 1.1//EN"
       "http://www.w3.org/Graphics/SVG/1.1/DTD/svg11.dtd">
<svg version="1.1" xmlns="http://www.w3.org/2000/svg" xmlns:xlink="http://www.w3.org/1999/xlink" viewBox="0 0 27.9844 21.5742">
 <g>
  <rect height="21.5742" opacity="0" width="27.9844" x="0" y="0"/>
  <path d="M3.67969 21.5742L23.9531 21.5742C26.4141 21.5742 27.6328 20.3672 27.6328 17.9531L27.6328 3.63281C27.6328 1.21875 26.4141 0 23.9531 0L3.67969 0C1.23047 0 0 1.21875 0 3.63281L0 17.9531C0 20.3672 1.23047 21.5742 3.67969 21.5742ZM3.70312 19.6875C2.53125 19.6875 1.88672 19.0664 1.88672 17.8477L1.88672 3.73828C1.88672 2.51953 2.53125 1.88672 3.70312 1.88672L23.9297 1.88672C25.0898 1.88672 25.7461 2.51953 25.7461 3.73828L25.7461 17.8477C25.7461 19.0664 25.0898 19.6875 23.9297 19.6875Z" fill="black" fill-opacity="0.85"/>
  <path d="M23.1211 18.0938C23.8594 18.0938 24.1523 17.7891 24.1523 17.0391L24.1523 4.54688C24.1523 3.79688 23.8594 3.49219 23.1211 3.49219L14.8242 3.49219C14.0859 3.49219 13.793 3.79688 13.793 4.54688L13.793 17.0391C13.793 17.7891 14.0859 18.0938 14.8242 18.0938ZM11.918 10.7812C11.918 10.5703 11.8594 10.418 11.6602 10.207L8.54297 6.87891C8.39062 6.69141 8.21484 6.59766 7.98047 6.59766C7.58203 6.59766 7.28906 6.90234 7.28906 7.33594C7.28906 7.53516 7.35938 7.73438 7.51172 7.875L8.77734 9.12891L10.5352 10.7812L8.77734 12.4336L7.51172 13.6875C7.35938 13.8281 7.28906 14.0391 7.28906 14.2383C7.28906 14.6484 7.58203 14.9531 7.98047 14.9531C8.21484 14.9531 8.39062 14.8594 8.54297 14.6836L11.6602 11.3555C11.8594 11.1445 11.918 10.9922 11.918 10.7812ZM3.97266 10.7812C3.98438 11.2031 4.32422 11.5664 4.73438 11.5664L8.01562 11.5664L10.6992 11.4961C11.0977 11.4844 11.4141 11.1797 11.4141 10.7812C11.4141 10.3828 11.0977 10.0781 10.6992 10.0664L8.01562 9.98438L4.73438 9.98438C4.32422 9.98438 3.96094 10.3594 3.97266 10.7812Z" fill="black" fill-opacity="0.85"/>
 </g>
</svg>
