<?xml version="1.0" encoding="UTF-8"?>
<!--Generator: Apple Native CoreSVG 360-->
<!DOCTYPE svg
PUBLIC "-//W3C//DTD SVG 1.1//EN"
       "http://www.w3.org/Graphics/SVG/1.1/DTD/svg11.dtd">
<svg version="1.1" xmlns="http://www.w3.org/2000/svg" xmlns:xlink="http://www.w3.org/1999/xlink" viewBox="0 0 27.9844 21.5742">
 <g>
  <rect height="21.5742" opacity="0" width="27.9844" x="0" y="0"/>
  <path d="M3.67969 21.5742L23.9531 21.5742C26.4141 21.5742 27.6328 20.3672 27.6328 17.9531L27.6328 3.63281C27.6328 1.21875 26.4141 0 23.9531 0L3.67969 0C1.23047 0 0 1.21875 0 3.63281L0 17.9531C0 20.3672 1.23047 21.5742 3.67969 21.5742ZM3.70312 19.6875C2.53125 19.6875 1.88672 19.0664 1.88672 17.8477L1.88672 3.73828C1.88672 2.51953 2.53125 1.88672 3.70312 1.88672L23.9297 1.88672C25.0898 1.88672 25.7461 2.51953 25.7461 3.73828L25.7461 17.8477C25.7461 19.0664 25.0898 19.6875 23.9297 19.6875Z" fill="black" fill-opacity="0.85"/>
  <path d="M4.51172 18.0938L12.8086 18.0938C13.5469 18.0938 13.8398 17.7891 13.8398 17.0391L13.8398 4.54688C13.8398 3.79688 13.5469 3.49219 12.8086 3.49219L4.51172 3.49219C3.78516 3.49219 3.49219 3.79688 3.49219 4.54688L3.49219 17.0391C3.49219 17.7891 3.78516 18.0938 4.51172 18.0938Z" fill="black" fill-opacity="0.85"/>
  <path d="M15.7148 10.7812C15.7148 10.9922 15.7734 11.1445 15.9844 11.3555L19.0898 14.6836C19.2422 14.8594 19.418 14.9531 19.6523 14.9531C20.0508 14.9531 20.3555 14.6484 20.3555 14.2383C20.3555 14.0391 20.2734 13.8281 20.1211 13.6875L18.8555 12.4336L17.0977 10.7812L18.8555 9.12891L20.1211 7.875C20.2734 7.73438 20.3555 7.53516 20.3555 7.33594C20.3555 6.90234 20.0508 6.59766 19.6523 6.59766C19.418 6.59766 19.2422 6.69141 19.0898 6.87891L15.9844 10.207C15.7852 10.418 15.7148 10.5703 15.7148 10.7812ZM23.6719 10.7812C23.6836 10.3594 23.3086 9.98438 22.8984 9.98438L19.6172 9.98438L16.9336 10.0664C16.5352 10.0781 16.2188 10.3828 16.2188 10.7812C16.2188 11.1797 16.5352 11.4844 16.9336 11.4961L19.6172 11.5664L22.8984 11.5664C23.3086 11.5664 23.6602 11.2031 23.6719 10.7812Z" fill="black" fill-opacity="0.85"/>
 </g>
</svg>
