<?xml version="1.0" encoding="UTF-8"?>
<!--Generator: Apple Native CoreSVG 360-->
<!DOCTYPE svg
PUBLIC "-//W3C//DTD SVG 1.1//EN"
       "http://www.w3.org/Graphics/SVG/1.1/DTD/svg11.dtd">
<svg version="1.1" xmlns="http://www.w3.org/2000/svg" xmlns:xlink="http://www.w3.org/1999/xlink" viewBox="0 0 27.9844 21.5742">
 <g>
  <rect height="21.5742" opacity="0" width="27.9844" x="0" y="0"/>
  <path d="M3.67969 21.5742L23.9531 21.5742C26.4141 21.5742 27.6328 20.3672 27.6328 17.9531L27.6328 3.63281C27.6328 1.21875 26.4141 0 23.9531 0L3.67969 0C1.23047 0 0 1.21875 0 3.63281L0 17.9531C0 20.3672 1.23047 21.5742 3.67969 21.5742ZM3.70312 19.6875C2.53125 19.6875 1.88672 19.0664 1.88672 17.8477L1.88672 3.73828C1.88672 2.51953 2.53125 1.88672 3.70312 1.88672L23.9297 1.88672C25.0898 1.88672 25.7461 2.51953 25.7461 3.73828L25.7461 17.8477C25.7461 19.0664 25.0898 19.6875 23.9297 19.6875Z" fill="black" fill-opacity="0.425"/>
  <path d="M4.51172 18.0938L23.1211 18.0938C23.8594 18.0938 24.1523 17.7891 24.1523 17.0391L24.1523 12.6445C24.1523 11.9062 23.8594 11.6016 23.1211 11.6016L4.51172 11.6016C3.78516 11.6016 3.49219 11.9062 3.49219 12.6562L3.49219 17.0391C3.49219 17.7891 3.78516 18.0938 4.51172 18.0938Z" fill="black" fill-opacity="0.2125"/>
  <path d="M4.53516 9.98438L23.0977 9.98438C23.8477 9.98438 24.1523 9.69141 24.1523 8.95312L24.1523 4.53516C24.1523 3.79688 23.8594 3.49219 23.1211 3.49219L4.51172 3.49219C3.78516 3.49219 3.49219 3.79688 3.49219 4.54688L3.49219 8.95312C3.49219 9.69141 3.79688 9.98438 4.53516 9.98438Z" fill="black" fill-opacity="0.85"/>
 </g>
</svg>
