<?xml version="1.0" encoding="UTF-8"?>
<!--Generator: Apple Native CoreSVG 360-->
<!DOCTYPE svg
PUBLIC "-//W3C//DTD SVG 1.1//EN"
       "http://www.w3.org/Graphics/SVG/1.1/DTD/svg11.dtd">
<svg version="1.1" xmlns="http://www.w3.org/2000/svg" xmlns:xlink="http://www.w3.org/1999/xlink" viewBox="0 0 40.6758 24.7852">
 <g>
  <rect height="24.7852" opacity="0" width="40.6758" x="0" y="0"/>
  <path d="M33.8789 5.23828L33.8789 6.83871C33.2918 6.58409 32.6529 6.44531 31.9922 6.44531L31.9922 5.34375C31.9922 4.125 31.3359 3.49219 30.1758 3.49219L9.94922 3.49219C8.77734 3.49219 8.13281 4.125 8.13281 5.34375L8.13281 19.4531C8.13281 20.6719 8.77734 21.293 9.94922 21.293L23.3747 21.293C23.3203 21.5538 23.2969 21.8122 23.2969 22.0664C23.2969 22.4733 23.3785 22.8476 23.5288 23.1797L9.92578 23.1797C7.47656 23.1797 6.24609 21.9727 6.24609 19.5586L6.24609 5.23828C6.24609 2.82422 7.47656 1.60547 9.92578 1.60547L30.1992 1.60547C32.6602 1.60547 33.8789 2.82422 33.8789 5.23828Z" fill="black" fill-opacity="0.85"/>
  <path d="M30.3984 6.15234L30.3984 6.73026C28.4669 7.42116 27.0234 9.34248 27.0234 11.6836C27.0234 13.3401 27.7388 14.8048 28.843 15.7713C26.5051 16.5114 24.7843 18.0399 23.9212 19.6992L10.7578 19.6992C10.1016 19.6992 9.73828 19.3125 9.73828 18.6445L9.73828 6.15234C9.73828 5.48438 10.1016 5.09766 10.7578 5.09766L29.3672 5.09766C30.0234 5.09766 30.3984 5.48438 30.3984 6.15234Z" fill="black" fill-opacity="0.2125"/>
  <path d="M26.332 23.1797L37.6406 23.1797C38.5312 23.1797 39.0703 22.7695 39.0703 22.0664C39.0703 19.8867 36.3633 16.8867 31.9922 16.8867C27.6094 16.8867 24.9023 19.8867 24.9023 22.0664C24.9023 22.7695 25.4414 23.1797 26.332 23.1797ZM31.9922 15.3867C33.7969 15.3867 35.3555 13.7695 35.3555 11.6602C35.3555 9.58594 33.7852 8.05078 31.9922 8.05078C30.1992 8.05078 28.6172 9.60938 28.6172 11.6836C28.6172 13.7695 30.1875 15.3867 31.9922 15.3867Z" fill="black" fill-opacity="0.85"/>
 </g>
</svg>
