<?xml version="1.0" encoding="UTF-8"?>
<!--Generator: Apple Native CoreSVG 360-->
<!DOCTYPE svg
PUBLIC "-//W3C//DTD SVG 1.1//EN"
       "http://www.w3.org/Graphics/SVG/1.1/DTD/svg11.dtd">
<svg version="1.1" xmlns="http://www.w3.org/2000/svg" xmlns:xlink="http://www.w3.org/1999/xlink" viewBox="0 0 27.9844 21.5742">
 <g>
  <rect height="21.5742" opacity="0" width="27.9844" x="0" y="0"/>
  <path d="M3.67969 21.5742L23.9531 21.5742C26.4141 21.5742 27.6328 20.3672 27.6328 17.9531L27.6328 3.63281C27.6328 1.21875 26.4141 0 23.9531 0L3.67969 0C1.23047 0 0 1.21875 0 3.63281L0 17.9531C0 20.3672 1.23047 21.5742 3.67969 21.5742ZM3.70312 19.6875C2.53125 19.6875 1.88672 19.0664 1.88672 17.8477L1.88672 3.73828C1.88672 2.51953 2.53125 1.88672 3.70312 1.88672L23.9297 1.88672C25.0898 1.88672 25.7461 2.51953 25.7461 3.73828L25.7461 17.8477C25.7461 19.0664 25.0898 19.6875 23.9297 19.6875Z" fill="black" fill-opacity="0.85"/>
  <path d="M15.5742 10.2422L18.5742 7.37109C18.9258 7.05469 19.5 7.19531 19.5 7.72266L19.5 13.8633C19.5 14.3906 18.9258 14.5312 18.5742 14.2031L15.5742 11.3438C15.2109 10.9922 15.2109 10.5938 15.5742 10.2422ZM4.51172 18.0938L12.8086 18.0938C13.5469 18.0938 13.8398 17.7891 13.8398 17.0391L13.8398 4.54688C13.8398 3.79688 13.5469 3.49219 12.8086 3.49219L4.51172 3.49219C3.78516 3.49219 3.49219 3.79688 3.49219 4.54688L3.49219 17.0391C3.49219 17.7891 3.78516 18.0938 4.51172 18.0938Z" fill="black" fill-opacity="0.85"/>
 </g>
</svg>
