<?xml version="1.0" encoding="UTF-8"?>
<!--Generator: Apple Native CoreSVG 360-->
<!DOCTYPE svg
PUBLIC "-//W3C//DTD SVG 1.1//EN"
       "http://www.w3.org/Graphics/SVG/1.1/DTD/svg11.dtd">
<svg version="1.1" xmlns="http://www.w3.org/2000/svg" xmlns:xlink="http://www.w3.org/1999/xlink" viewBox="0 0 22.1953 22.418">
 <g>
  <rect height="22.418" opacity="0" width="22.1953" x="0" y="0"/>
  <path d="M6.45703 22.418L15.3867 22.418C18.6797 22.418 20.6484 20.4141 20.6484 17.0625L20.6484 5.37891C20.6484 2.02734 18.6797 0.0351562 15.3867 0.0351562L6.45703 0.0351562C3.16406 0.0351562 1.19531 2.02734 1.19531 5.37891L1.19531 17.0625C1.19531 20.4141 3.16406 22.418 6.45703 22.418ZM6.375 20.5898C4.27734 20.5898 3.02344 19.3125 3.02344 17.1445L3.02344 5.35547C3.02344 3.19922 4.27734 1.92188 6.375 1.92188L15.4688 1.92188C17.5781 1.92188 18.8203 3.19922 18.8203 5.35547L18.8203 17.1445C18.8203 19.3125 17.5781 20.5898 15.4688 20.5898ZM20.4375 9.99609L20.9648 9.99609C21.7148 9.99609 22.1953 9.48047 22.1953 8.67188L22.1953 6.71484C22.1953 5.88281 21.7148 5.36719 20.9648 5.36719L20.4375 5.36719Z" fill="black" fill-opacity="0.85"/>
  <path d="M4.64062 17.2969C4.64062 18.3281 5.23828 18.9609 6.22266 18.9609L15.6328 18.9609C16.6055 18.9609 17.2031 18.3281 17.2031 17.2969L17.2031 5.14453C17.2031 4.13672 16.582 3.46875 15.6328 3.46875L6.22266 3.46875C5.26172 3.46875 4.64062 4.13672 4.64062 5.14453Z" fill="black" fill-opacity="0.85"/>
 </g>
</svg>
