<?xml version="1.0" encoding="UTF-8"?>
<!--Generator: Apple Native CoreSVG 360-->
<!DOCTYPE svg
PUBLIC "-//W3C//DTD SVG 1.1//EN"
       "http://www.w3.org/Graphics/SVG/1.1/DTD/svg11.dtd">
<svg version="1.1" xmlns="http://www.w3.org/2000/svg" xmlns:xlink="http://www.w3.org/1999/xlink" viewBox="0 0 33.9302 31.1358">
 <g>
  <rect height="31.1358" opacity="0" width="33.9302" x="0" y="0"/>
  <path d="M30.5999 8.4136L30.5999 19.085L28.7132 17.1466L28.7132 8.51907C28.7132 7.30032 28.0569 6.6675 26.8968 6.6675L6.67019 6.6675C5.49831 6.6675 4.85378 7.30032 4.85378 8.51907L4.85378 22.6284C4.85378 23.8472 5.49831 24.4683 6.67019 24.4683L23.3189 24.4683L23.2991 26.0503C23.2977 26.1552 23.3035 26.257 23.3172 26.355L6.64675 26.355C4.19753 26.355 2.96706 25.148 2.96706 22.7339L2.96706 8.4136C2.96706 5.99954 4.19753 4.78079 6.64675 4.78079L26.9202 4.78079C29.3811 4.78079 30.5999 5.99954 30.5999 8.4136Z" fill="black" fill-opacity="0.85"/>
  <path d="M27.1194 9.32766L27.1194 15.5092L26.9085 15.2925C25.6194 13.9917 23.4397 14.8472 23.4163 16.687L23.3388 22.8745L7.47878 22.8745C6.82253 22.8745 6.45925 22.4878 6.45925 21.8198L6.45925 9.32766C6.45925 8.65969 6.82253 8.27297 7.47878 8.27297L26.0882 8.27297C26.7444 8.27297 27.1194 8.65969 27.1194 9.32766Z" fill="black" fill-opacity="0.85"/>
  <path d="M30.5999 29.4605C31.1155 29.2495 31.3616 28.6636 31.1389 28.148L29.3108 23.8823L31.8303 23.7886C32.2757 23.7652 32.4866 23.3316 32.1702 23.0034L25.7718 16.4175C25.4671 16.1128 25.0218 16.2886 25.01 16.7222L24.9046 26.0738C24.8928 26.5308 25.4319 26.6831 25.7249 26.3902L27.5061 24.5972L29.2639 28.9214C29.4632 29.4253 30.0725 29.6714 30.5999 29.4605Z" fill="black" fill-opacity="0.85"/>
 </g>
</svg>
