<?xml version="1.0" encoding="UTF-8"?>
<!--Generator: Apple Native CoreSVG 360-->
<!DOCTYPE svg
PUBLIC "-//W3C//DTD SVG 1.1//EN"
       "http://www.w3.org/Graphics/SVG/1.1/DTD/svg11.dtd">
<svg version="1.1" xmlns="http://www.w3.org/2000/svg" xmlns:xlink="http://www.w3.org/1999/xlink" viewBox="0 0 29.5078 23.7539">
 <g>
  <rect height="23.7539" opacity="0" width="29.5078" x="0" y="0"/>
  <path d="M1.88672 14.1211C1.88672 15.5977 2.71875 16.4297 4.20703 16.4297L5.78906 16.4297L5.78906 18.3164L4.19531 18.3164C1.47656 18.3164 0 16.8047 0 14.1211L0 13.1133L1.88672 13.1133ZM1.88672 11.5664L0 11.5664L0 6.75L1.88672 6.75ZM23.3555 4.20703L23.3555 5.42578L21.4687 5.42578L21.4688 4.20703C21.4688 2.71875 20.625 1.88672 19.1484 1.88672L18.1875 1.88672L18.1875 0L19.1602 0C21.832 0 23.3555 1.52344 23.3555 4.20703ZM5.15625 1.88672L4.20703 1.88672C2.71875 1.88672 1.88672 2.71875 1.88672 4.20703L1.88672 5.20312L0 5.20312L0 4.20703C0 1.52344 1.51172 0 4.19531 0L5.15625 0ZM10.8984 1.88672L6.70312 1.88672L6.70312 0L10.8984 0ZM16.6289 1.88672L12.4453 1.88672L12.4453 0L16.6289 0Z" fill="black" fill-opacity="0.85"/>
  <path d="M29.1562 9.63281L29.1562 19.5469C29.1562 22.2305 27.7148 23.7422 25.207 23.7422L9.98438 23.7422C7.30078 23.7422 5.78906 22.2305 5.78906 19.5469L5.78906 9.63281C5.78906 6.94922 7.30078 5.42578 9.98438 5.42578L25.207 5.42578C27.7148 5.42578 29.1562 6.94922 29.1562 9.63281ZM9.99609 7.32422C8.50781 7.32422 7.67578 8.15625 7.67578 9.63281L7.67578 19.5469C7.67578 21.0234 8.50781 21.8438 9.99609 21.8437L24.9492 21.8437C26.4375 21.8438 27.2695 21.0234 27.2695 19.5469L27.2695 9.63281C27.2695 8.15625 26.4375 7.32422 24.9492 7.32422Z" fill="black" fill-opacity="0.85"/>
  <path d="M10.1836 10.6641C10.6758 10.6641 11.0859 10.2422 11.0859 9.77344C11.0859 9.30469 10.6758 8.89453 10.1836 8.89453C9.70312 8.89453 9.30469 9.30469 9.30469 9.77344C9.30469 10.2422 9.70312 10.6641 10.1836 10.6641Z" fill="black" fill-opacity="0.85"/>
  <path d="M13.043 10.6641C13.5352 10.6641 13.9336 10.2422 13.9336 9.77344C13.9336 9.30469 13.5352 8.89453 13.043 8.89453C12.5508 8.89453 12.1641 9.30469 12.1641 9.77344C12.1641 10.2422 12.5508 10.6641 13.043 10.6641Z" fill="black" fill-opacity="0.85"/>
  <path d="M15.9023 10.6641C16.3945 10.6641 16.793 10.2422 16.793 9.77344C16.793 9.30469 16.3945 8.89453 15.9023 8.89453C15.3984 8.89453 15 9.30469 15 9.77344C15 10.2422 15.3984 10.6641 15.9023 10.6641Z" fill="black" fill-opacity="0.85"/>
 </g>
</svg>
