<?xml version="1.0" encoding="UTF-8"?>
<!--Generator: Apple Native CoreSVG 360-->
<!DOCTYPE svg
PUBLIC "-//W3C//DTD SVG 1.1//EN"
       "http://www.w3.org/Graphics/SVG/1.1/DTD/svg11.dtd">
<svg version="1.1" xmlns="http://www.w3.org/2000/svg" xmlns:xlink="http://www.w3.org/1999/xlink" viewBox="0 0 27.9844 21.5742">
 <g>
  <rect height="21.5742" opacity="0" width="27.9844" x="0" y="0"/>
  <path d="M0 6.17578L1.88672 6.17578L1.88672 4.95703C1.88672 3.01172 3.01172 1.88672 4.95703 1.88672L6.12891 1.88672L6.12891 0L4.94531 0C1.79297 0 0 1.79297 0 4.95703ZM7.73438 1.88672L13.0195 1.88672L13.0195 0L7.73438 0ZM14.6133 1.88672L19.8984 1.88672L19.8984 0L14.6133 0ZM25.7461 6.17578L27.6328 6.17578L27.6328 4.95703C27.6328 1.79297 25.8398 0 22.6875 0L21.5039 0L21.5039 1.88672L22.6758 1.88672C24.6211 1.88672 25.7461 3.01172 25.7461 4.95703ZM25.7461 13.8047L27.6328 13.8047L27.6328 7.79297L25.7461 7.79297ZM21.5039 21.5742L22.6875 21.5742C25.8398 21.5742 27.6328 19.793 27.6328 16.6289L27.6328 15.4102L25.7461 15.4102L25.7461 16.6289C25.7461 18.5742 24.6211 19.6875 22.6758 19.6875L21.5039 19.6875ZM14.6133 21.5742L19.8984 21.5742L19.8984 19.6875L14.6133 19.6875ZM7.73438 21.5742L13.0195 21.5742L13.0195 19.6875L7.73438 19.6875ZM4.94531 21.5742L6.12891 21.5742L6.12891 19.6875L4.95703 19.6875C3.01172 19.6875 1.88672 18.5742 1.88672 16.6289L1.88672 15.4102L0 15.4102L0 16.6289C0 19.793 1.79297 21.5742 4.94531 21.5742ZM0 13.8047L1.88672 13.8047L1.88672 7.79297L0 7.79297Z" fill="black" fill-opacity="0.85"/>
  <path d="M11.918 6.17578C12.4922 6.17578 12.9609 5.68359 12.9609 5.13281C12.9609 4.57031 12.4922 4.07812 11.918 4.07812C11.3438 4.07812 10.875 4.57031 10.875 5.13281C10.875 5.68359 11.3438 6.17578 11.918 6.17578Z" fill="black" fill-opacity="0.85"/>
  <path d="M8.55469 6.17578C9.12891 6.17578 9.59766 5.68359 9.59766 5.13281C9.59766 4.57031 9.12891 4.07812 8.55469 4.07812C7.98047 4.07812 7.51172 4.57031 7.51172 5.13281C7.51172 5.68359 7.98047 6.17578 8.55469 6.17578Z" fill="black" fill-opacity="0.85"/>
  <path d="M5.19141 6.17578C5.76562 6.17578 6.23438 5.68359 6.23438 5.13281C6.23438 4.57031 5.76562 4.07812 5.19141 4.07812C4.61719 4.07812 4.14844 4.57031 4.14844 5.13281C4.14844 5.68359 4.61719 6.17578 5.19141 6.17578Z" fill="black" fill-opacity="0.85"/>
 </g>
</svg>
