<?xml version="1.0" encoding="UTF-8"?>
<!--Generator: Apple Native CoreSVG 360-->
<!DOCTYPE svg
PUBLIC "-//W3C//DTD SVG 1.1//EN"
       "http://www.w3.org/Graphics/SVG/1.1/DTD/svg11.dtd">
<svg version="1.1" xmlns="http://www.w3.org/2000/svg" xmlns:xlink="http://www.w3.org/1999/xlink" viewBox="0 0 27.9844 21.5977">
 <g>
  <rect height="21.5977" opacity="0" width="27.9844" x="0" y="0"/>
  <path d="M3.97266 19.7109L3.97266 1.91016L23.6602 1.91016L23.6602 19.7109Z" fill="black" fill-opacity="0.2125"/>
  <path d="M3.67969 21.5977L23.9531 21.5977C26.4141 21.5977 27.6328 20.3789 27.6328 17.9648L27.6328 3.65625C27.6328 1.24219 26.4141 0.0234375 23.9531 0.0234375L3.67969 0.0234375C1.23047 0.0234375 0 1.23047 0 3.65625L0 17.9648C0 20.3906 1.23047 21.5977 3.67969 21.5977ZM2.14453 11.4492C1.79297 11.4609 1.5 11.1562 1.48828 10.793C1.47656 10.4531 1.78125 10.1602 2.13281 10.1602C2.49609 10.1602 2.77734 10.4531 2.77734 10.793C2.77734 11.1562 2.48438 11.4375 2.14453 11.4492ZM3.97266 19.7109L3.97266 1.91016L23.6602 1.91016L23.6602 19.7109ZM25.4414 11.8125C24.8789 11.8125 24.4453 11.3555 24.4453 10.793C24.4453 10.2422 24.8906 9.78516 25.4531 9.78516C26.0156 9.78516 26.4609 10.2422 26.4609 10.793C26.4609 11.3555 26.0156 11.8125 25.4414 11.8125Z" fill="black" fill-opacity="0.85"/>
 </g>
</svg>
