<?xml version="1.0" encoding="UTF-8"?>
<!--Generator: Apple Native CoreSVG 360-->
<!DOCTYPE svg
PUBLIC "-//W3C//DTD SVG 1.1//EN"
       "http://www.w3.org/Graphics/SVG/1.1/DTD/svg11.dtd">
<svg version="1.1" xmlns="http://www.w3.org/2000/svg" xmlns:xlink="http://www.w3.org/1999/xlink" viewBox="0 0 39.9023 24.7617">
 <g>
  <rect height="24.7617" opacity="0" width="39.9023" x="0" y="0"/>
  <path d="M33.5977 5.23828L33.5977 6.25781L31.7109 6.25781L31.7109 5.33203C31.7109 4.11328 31.043 3.49219 29.8828 3.49219L9.66797 3.49219C8.49609 3.49219 7.83984 4.11328 7.83984 5.33203L7.83984 19.4531C7.83984 20.6719 8.49609 21.293 9.66797 21.293L26.8194 21.293C27.123 21.6513 27.4894 21.942 27.9023 22.1602L28.1133 22.8867C28.1415 22.9889 28.1744 23.0871 28.2131 23.1797L9.63281 23.1797C7.19531 23.1797 5.95312 21.9727 5.95312 19.5469L5.95312 5.23828C5.95312 2.8125 7.19531 1.60547 9.63281 1.60547L29.918 1.60547C32.3672 1.60547 33.5977 2.82422 33.5977 5.23828ZM24.8438 19.8516C24.8438 20.1797 24.6211 20.3906 24.3047 20.3906L15.2461 20.3906C14.9297 20.3906 14.6953 20.1797 14.6953 19.8516C14.6953 19.5234 14.9297 19.3008 15.2461 19.3008L24.3047 19.3008C24.6211 19.3008 24.8438 19.5234 24.8438 19.8516Z" fill="black" fill-opacity="0.85"/>
  <path d="M30.6211 23.1562L33.9375 23.1562C34.3828 23.1562 34.7344 22.9805 34.8984 22.4414L35.1328 21.6914C35.2617 21.2578 35.4609 20.9766 35.8594 20.7656C36.5859 20.3906 37.1367 19.6289 37.1367 18.3984L37.1367 12.6328C37.1367 11.4141 36.5977 10.6523 35.8594 10.2539C35.4609 10.0312 35.2617 9.77344 35.1328 9.35156L34.8984 8.56641C34.7461 8.05078 34.3828 7.86328 33.9375 7.86328L30.6211 7.86328C30.1758 7.86328 29.7773 8.05078 29.6367 8.56641L29.4258 9.35156C29.3086 9.80859 29.0508 10.0547 28.6641 10.2539C27.9609 10.6289 27.4336 11.4141 27.4336 12.6328L27.4336 18.3984C27.4336 19.6289 27.9492 20.3789 28.6641 20.7656C29.0625 20.9766 29.3086 21.2461 29.4258 21.6914L29.6367 22.4414C29.7891 22.9922 30.1758 23.1562 30.6211 23.1562ZM30.2109 19.5C29.332 19.5 28.9219 19.0781 28.9219 18.1641L28.9219 12.8438C28.9219 11.9414 29.332 11.5195 30.2109 11.5195L34.3477 11.5195C35.2383 11.5195 35.625 11.9414 35.625 12.8438L35.625 18.1641C35.625 19.0781 35.2148 19.5 34.3477 19.5ZM36.9141 15.0117L37.2188 15.0117C37.6055 15.0117 37.8398 14.7422 37.8398 14.332L37.8398 13.3477C37.8398 12.9492 37.6055 12.6914 37.2188 12.6914L36.9141 12.6914Z" fill="black" fill-opacity="0.85"/>
 </g>
</svg>
