<?xml version="1.0" encoding="UTF-8"?>
<!--Generator: Apple Native CoreSVG 360-->
<!DOCTYPE svg
PUBLIC "-//W3C//DTD SVG 1.1//EN"
       "http://www.w3.org/Graphics/SVG/1.1/DTD/svg11.dtd">
<svg version="1.1" xmlns="http://www.w3.org/2000/svg" xmlns:xlink="http://www.w3.org/1999/xlink" viewBox="0 0 26.1445 29.1211">
 <g>
  <rect height="29.1211" opacity="0" width="26.1445" x="0" y="0"/>
  <path d="M6.71484 7.78125L6.71484 23.7773L2.90625 23.7773L2.90625 5.33203L7.4733 5.33203C6.98903 5.99703 6.71484 6.83412 6.71484 7.78125Z" fill="black" fill-opacity="0.2125"/>
  <path d="M20.5134 3.66797L10.9453 3.66797C9.45701 3.66797 8.21536 4.29541 7.4733 5.33203L2.90625 5.33203L2.90625 23.7773L6.71484 23.7773L6.71484 25.0078C6.71484 26.0991 7.07883 27.0443 7.70662 27.75L4.26562 27.75C2.33203 27.75 1.01953 26.5078 1.01953 24.6562L1.01953 4.45312C1.01953 2.60156 2.33203 1.34766 4.26562 1.34766L17.3555 1.34766C19.0104 1.34766 20.1988 2.25512 20.5134 3.66797Z" fill="black" fill-opacity="0.85"/>
  <path d="M9.97266 24.0234L9.97266 8.77734L22.875 8.77734L22.875 24.0234Z" fill="black" fill-opacity="0.2125"/>
  <path d="M10.9453 27.75L21.9141 27.75C23.625 27.75 24.7734 26.6484 24.7734 25.0078L24.7734 7.78125C24.7734 6.14062 23.625 5.03906 21.9141 5.03906L10.9453 5.03906C9.23438 5.03906 8.08594 6.14062 8.08594 7.78125L8.08594 25.0078C8.08594 26.6484 9.23438 27.75 10.9453 27.75ZM16.125 7.5C15.8203 7.5 15.5625 7.24219 15.5625 6.92578C15.5625 6.62109 15.8203 6.35156 16.125 6.35156C16.4297 6.35156 16.6992 6.62109 16.6992 6.92578C16.6992 7.24219 16.4297 7.5 16.125 7.5ZM9.97266 24.0234L9.97266 8.77734L22.875 8.77734L22.875 24.0234ZM16.1367 26.7305C15.6445 26.7305 15.2344 26.3203 15.2344 25.8281C15.2344 25.3359 15.6445 24.9258 16.1367 24.9258C16.6289 24.9258 17.0391 25.3359 17.0391 25.8281C17.0391 26.3203 16.6289 26.7305 16.1367 26.7305Z" fill="black" fill-opacity="0.85"/>
 </g>
</svg>
