<?xml version="1.0" encoding="UTF-8"?>
<!--Generator: Apple Native CoreSVG 360-->
<!DOCTYPE svg
PUBLIC "-//W3C//DTD SVG 1.1//EN"
       "http://www.w3.org/Graphics/SVG/1.1/DTD/svg11.dtd">
<svg version="1.1" xmlns="http://www.w3.org/2000/svg" xmlns:xlink="http://www.w3.org/1999/xlink" viewBox="0 0 26.1445 29.1211">
 <g>
  <rect height="29.1211" opacity="0" width="26.1445" x="0" y="0"/>
  <path d="M18.3202 3.66797L10.9453 3.66797C8.49609 3.66797 6.71484 5.36719 6.71484 7.78125L6.71484 25.0078C6.71484 25.3045 6.74174 25.5903 6.79412 25.8633L4.51172 25.8633C3.50391 25.8633 2.90625 25.3008 2.90625 24.3398L2.90625 4.76953C2.90625 3.80859 3.50391 3.23438 4.51172 3.23438L17.1211 3.23438C17.6409 3.23438 18.0485 3.38713 18.3202 3.66797Z" fill="black" fill-opacity="0.2125"/>
  <path d="M20.5134 3.66797L18.3202 3.66797C18.0485 3.38713 17.6409 3.23438 17.1211 3.23438L4.51172 3.23438C3.50391 3.23438 2.90625 3.80859 2.90625 4.76953L2.90625 24.3398C2.90625 25.3008 3.50391 25.8633 4.51172 25.8633L6.79412 25.8633C6.93205 26.5955 7.24878 27.2368 7.70662 27.75L4.26562 27.75C2.33203 27.75 1.01953 26.5078 1.01953 24.6562L1.01953 4.45312C1.01953 2.60156 2.33203 1.34766 4.26562 1.34766L17.3555 1.34766C19.0104 1.34766 20.1988 2.25512 20.5134 3.66797Z" fill="black" fill-opacity="0.85"/>
  <path d="M22.8867 8.26172L22.8867 24.5273C22.8867 25.3594 22.3594 25.8633 21.5039 25.8633L11.3672 25.8633C10.4883 25.8633 9.97266 25.3594 9.97266 24.5273L9.97266 8.26172C9.97266 7.44141 10.4883 6.92578 11.3672 6.92578L21.5039 6.92578C22.3594 6.92578 22.8867 7.44141 22.8867 8.26172ZM13.6055 24.0117C13.3242 24.0117 13.1133 24.1992 13.1133 24.4922C13.1133 24.7969 13.3242 24.9727 13.6055 24.9727L19.3477 24.9727C19.6289 24.9727 19.8398 24.7969 19.8398 24.4922C19.8398 24.1992 19.6289 24.0117 19.3477 24.0117Z" fill="black" fill-opacity="0.2125"/>
  <path d="M8.08594 25.0078C8.08594 26.6484 9.23438 27.75 10.9453 27.75L21.9141 27.75C23.625 27.75 24.7734 26.6484 24.7734 25.0078L24.7734 7.78125C24.7734 6.14062 23.625 5.03906 21.9141 5.03906L10.9453 5.03906C9.23438 5.03906 8.08594 6.14062 8.08594 7.78125ZM9.97266 24.5273L9.97266 8.26172C9.97266 7.44141 10.4883 6.92578 11.3672 6.92578L21.5039 6.92578C22.3594 6.92578 22.8867 7.44141 22.8867 8.26172L22.8867 24.5273C22.8867 25.3594 22.3594 25.8633 21.5039 25.8633L11.3672 25.8633C10.4883 25.8633 9.97266 25.3594 9.97266 24.5273ZM13.6055 24.9727L19.3477 24.9727C19.6289 24.9727 19.8398 24.7969 19.8398 24.4922C19.8398 24.1992 19.6289 24.0117 19.3477 24.0117L13.6055 24.0117C13.3242 24.0117 13.1133 24.1992 13.1133 24.4922C13.1133 24.7969 13.3242 24.9727 13.6055 24.9727Z" fill="black" fill-opacity="0.85"/>
 </g>
</svg>
