<?xml version="1.0" encoding="UTF-8"?>
<!--Generator: Apple Native CoreSVG 360-->
<!DOCTYPE svg
PUBLIC "-//W3C//DTD SVG 1.1//EN"
       "http://www.w3.org/Graphics/SVG/1.1/DTD/svg11.dtd">
<svg version="1.1" xmlns="http://www.w3.org/2000/svg" xmlns:xlink="http://www.w3.org/1999/xlink" viewBox="0 0 26.4258 28.9805">
 <g>
  <rect height="28.9805" opacity="0" width="26.4258" x="0" y="0"/>
  <path d="M22.8281 4.38281L22.8281 10.186C22.8095 10.1837 22.7896 10.1836 22.7695 10.1836L18.2578 10.1836L18.2578 5.64844C18.2578 5.22656 17.918 4.875 17.4961 4.875C17.0742 4.875 16.7227 5.22656 16.7227 5.64844L16.7227 10.2375C14.8637 10.511 13.7812 11.8965 13.7812 13.7578L13.7812 25.418C13.7812 26.3022 14.0283 27.08 14.4908 27.6797L6.49219 27.6797C4.55859 27.6797 3.24609 26.4375 3.24609 24.5859L3.24609 4.38281C3.24609 2.53125 4.55859 1.27734 6.49219 1.27734L19.582 1.27734C21.5273 1.27734 22.8281 2.53125 22.8281 4.38281ZM10.7578 5.64844L10.7578 23.3203C10.7578 23.7422 11.0977 24.0938 11.5195 24.0938C11.9414 24.0938 12.293 23.7422 12.293 23.3203L12.293 5.64844C12.293 5.22656 11.9414 4.875 11.5195 4.875C11.0977 4.875 10.7578 5.22656 10.7578 5.64844Z" fill="black" fill-opacity="0.85"/>
  <path d="M17.4258 27.6094L22.7695 27.6094C24.2227 27.6094 25.0547 26.8125 25.0547 25.418L25.0547 13.7578C25.0547 12.3633 24.2109 11.5547 22.7695 11.5547L17.4258 11.5547C15.9727 11.5547 15.1406 12.3633 15.1406 13.7578L15.1406 25.418C15.1406 26.8125 15.9727 27.6094 17.4258 27.6094ZM17.2852 16.1602C16.7109 16.1602 16.3945 15.8555 16.3945 15.3164L16.3945 13.7344C16.3945 13.2305 16.7109 12.8906 17.2852 12.8906L18.7617 12.8906C19.3242 12.8906 19.6523 13.2305 19.6523 13.7344L19.6523 15.3164C19.6523 15.8555 19.3242 16.1602 18.7617 16.1602Z" fill="black" fill-opacity="0.85"/>
 </g>
</svg>
