<?xml version="1.0" encoding="UTF-8"?>
<!--Generator: Apple Native CoreSVG 360-->
<!DOCTYPE svg
PUBLIC "-//W3C//DTD SVG 1.1//EN"
       "http://www.w3.org/Graphics/SVG/1.1/DTD/svg11.dtd">
<svg version="1.1" xmlns="http://www.w3.org/2000/svg" xmlns:xlink="http://www.w3.org/1999/xlink" viewBox="0 0 29.2852 26.4258">
 <g>
  <rect height="26.4258" opacity="0" width="29.2852" x="0" y="0"/>
  <path d="M24.2578 3.10547L24.2578 23.3086C24.2578 25.1602 22.957 26.4023 21.0117 26.4023L7.92188 26.4023C5.98828 26.4023 4.67578 25.1602 4.67578 23.3086L4.67578 16.3359L6.5625 16.3359L6.5625 22.9922C6.5625 23.9531 7.16016 24.5156 8.16797 24.5156L20.7773 24.5156C21.7852 24.5156 22.3711 23.9531 22.3711 22.9922L22.3711 3.42188C22.3711 2.46094 21.7852 1.88672 20.7773 1.88672L8.16797 1.88672C7.16016 1.88672 6.5625 2.46094 6.5625 3.42188L6.5625 10.0664L4.67578 10.0664L4.67578 3.10547C4.67578 1.25391 5.98828 0 7.92188 0L21.0117 0C22.957 0 24.2578 1.25391 24.2578 3.10547Z" fill="black" fill-opacity="0.85"/>
  <path d="M9.15234 9.22266C9.15234 9.44531 9.24609 9.70312 9.43359 9.86719L11.3672 11.6719L12.9844 13.1953L11.3672 14.707L9.43359 16.5234C9.24609 16.6875 9.15234 16.9336 9.15234 17.1562C9.15234 17.6367 9.50391 18.0117 9.97266 18.0117C10.2305 18.0117 10.418 17.9062 10.5938 17.7305L14.3203 13.875C14.5547 13.6406 14.625 13.4297 14.625 13.1953C14.625 12.9492 14.5547 12.75 14.3203 12.5156L10.5938 8.64844C10.418 8.47266 10.2305 8.37891 9.97266 8.37891C9.50391 8.37891 9.15234 8.73047 9.15234 9.22266ZM0 13.1953C0 13.6992 0.421875 14.1211 0.914062 14.1211L10.3125 14.1211L13.4648 13.9805C13.8984 13.957 14.25 13.6289 14.25 13.1953C14.25 12.7617 13.8984 12.4336 13.4648 12.4102L10.3125 12.2578L0.914062 12.2578C0.421875 12.2578 0 12.6914 0 13.1953Z" fill="black" fill-opacity="0.85"/>
 </g>
</svg>
