<?xml version="1.0" encoding="UTF-8"?>
<!--Generator: Apple Native CoreSVG 360-->
<!DOCTYPE svg
PUBLIC "-//W3C//DTD SVG 1.1//EN"
       "http://www.w3.org/Graphics/SVG/1.1/DTD/svg11.dtd">
<svg version="1.1" xmlns="http://www.w3.org/2000/svg" xmlns:xlink="http://www.w3.org/1999/xlink" viewBox="0 0 35.7773 24.8086">
 <g>
  <rect height="24.8086" opacity="0" width="35.7773" x="0" y="0"/>
  <path d="M31.5352 5.26172L31.5352 5.54297L29.6484 5.54297L29.6484 5.35547C29.6484 4.13672 28.9805 3.51562 27.8203 3.51562L7.60547 3.51562C6.43359 3.51562 5.77734 4.13672 5.77734 5.35547L5.77734 19.4766C5.77734 20.6953 6.43359 21.3164 7.60547 21.3164L22.2465 21.3164C22.2595 22.0288 22.4575 22.671 22.801 23.2031L7.57031 23.2031C5.13281 23.2031 3.89062 21.9961 3.89062 19.5703L3.89062 5.26172C3.89062 2.83594 5.13281 1.62891 7.57031 1.62891L27.8555 1.62891C30.3047 1.62891 31.5352 2.84766 31.5352 5.26172ZM22.2422 20.4141L13.1836 20.4141C12.8672 20.4141 12.6328 20.2031 12.6328 19.875C12.6328 19.5469 12.8672 19.3242 13.1836 19.3242L22.2422 19.3242Z" fill="black" fill-opacity="0.85"/>
  <path d="M23.8359 21.2227C23.8359 22.4062 24.6562 23.2031 25.9102 23.2031L31.5 23.2031C32.7539 23.2031 33.5859 22.4062 33.5859 21.2227L33.5859 9.10547C33.5859 7.94531 32.7539 7.13672 31.5 7.13672L25.9102 7.13672C24.6562 7.13672 23.8359 7.94531 23.8359 9.10547ZM25.3828 20.2969L25.3828 10.043L32.0391 10.043L32.0391 20.2969ZM28.7227 22.4297C28.3477 22.4297 28.043 22.1133 28.043 21.75C28.043 21.375 28.3477 21.0703 28.7227 21.0703C29.0977 21.0703 29.3906 21.375 29.3906 21.75C29.3906 22.1133 29.0977 22.4297 28.7227 22.4297ZM28.7227 9.07031C28.4531 9.07031 28.2656 8.87109 28.2656 8.60156C28.2656 8.34375 28.4531 8.15625 28.7227 8.15625C28.9805 8.15625 29.168 8.34375 29.168 8.60156C29.168 8.87109 28.9805 9.07031 28.7227 9.07031Z" fill="black" fill-opacity="0.85"/>
 </g>
</svg>
