<?xml version="1.0" encoding="UTF-8"?>
<!--Generator: Apple Native CoreSVG 360-->
<!DOCTYPE svg
PUBLIC "-//W3C//DTD SVG 1.1//EN"
       "http://www.w3.org/Graphics/SVG/1.1/DTD/svg11.dtd">
<svg version="1.1" xmlns="http://www.w3.org/2000/svg" xmlns:xlink="http://www.w3.org/1999/xlink" viewBox="0 0 26.7305 29.1211">
 <g>
  <rect height="29.1211" opacity="0" width="26.7305" x="0" y="0"/>
  <path d="M18.9061 3.66797L11.5312 3.66797C9.08203 3.66797 7.30078 5.36719 7.30078 7.78125L7.30078 25.0078C7.30078 25.3045 7.32768 25.5903 7.38005 25.8633L5.09766 25.8633C4.08984 25.8633 3.49219 25.3008 3.49219 24.3398L3.49219 4.76953C3.49219 3.80859 4.08984 3.23438 5.09766 3.23438L17.707 3.23438C18.2268 3.23438 18.6344 3.38713 18.9061 3.66797Z" fill="black" fill-opacity="0.2125"/>
  <path d="M21.0994 3.66797L18.9061 3.66797C18.6344 3.38713 18.2268 3.23438 17.707 3.23438L5.09766 3.23438C4.08984 3.23438 3.49219 3.80859 3.49219 4.76953L3.49219 24.3398C3.49219 25.3008 4.08984 25.8633 5.09766 25.8633L7.38005 25.8633C7.51799 26.5955 7.83472 27.2368 8.29256 27.75L4.85156 27.75C2.91797 27.75 1.60547 26.5078 1.60547 24.6562L1.60547 4.45312C1.60547 2.60156 2.91797 1.34766 4.85156 1.34766L17.9414 1.34766C19.5963 1.34766 20.7848 2.25512 21.0994 3.66797Z" fill="black" fill-opacity="0.85"/>
  <path d="M8.67188 25.0078C8.67188 26.6484 9.82031 27.75 11.5312 27.75L22.5 27.75C24.2109 27.75 25.3594 26.6484 25.3594 25.0078L25.3594 7.78125C25.3594 6.14062 24.2109 5.03906 22.5 5.03906L11.5312 5.03906C9.82031 5.03906 8.67188 6.14062 8.67188 7.78125ZM10.5586 24.5273L10.5586 8.26172C10.5586 7.44141 11.0742 6.92578 11.9531 6.92578L22.0898 6.92578C22.9453 6.92578 23.4727 7.44141 23.4727 8.26172L23.4727 24.5273C23.4727 25.3594 22.9453 25.8633 22.0898 25.8633L11.9531 25.8633C11.0742 25.8633 10.5586 25.3594 10.5586 24.5273Z" fill="black" fill-opacity="0.85"/>
  <path d="M10.5586 24.5273L10.5586 8.26172C10.5586 7.44141 11.0742 6.92578 11.9531 6.92578L22.0898 6.92578C22.9453 6.92578 23.4727 7.44141 23.4727 8.26172L23.4727 24.5273C23.4727 25.3594 22.9453 25.8633 22.0898 25.8633L11.9531 25.8633C11.0742 25.8633 10.5586 25.3594 10.5586 24.5273Z" fill="black" fill-opacity="0.2125"/>
 </g>
</svg>
