<?xml version="1.0" encoding="UTF-8"?>
<!--Generator: Apple Native CoreSVG 360-->
<!DOCTYPE svg
PUBLIC "-//W3C//DTD SVG 1.1//EN"
       "http://www.w3.org/Graphics/SVG/1.1/DTD/svg11.dtd">
<svg version="1.1" xmlns="http://www.w3.org/2000/svg" xmlns:xlink="http://www.w3.org/1999/xlink" viewBox="0 0 19.9336 26.4258">
 <g>
  <rect height="26.4258" opacity="0" width="19.9336" x="0" y="0"/>
  <path d="M0 23.3086C0 25.1602 1.30078 26.4023 3.24609 26.4023L16.3359 26.4023C18.2812 26.4023 19.582 25.1602 19.582 23.3086L19.582 3.10547C19.582 1.25391 18.2812 0 16.3359 0L3.24609 0C1.30078 0 0 1.25391 0 3.10547ZM8.27344 22.8164C7.85156 22.8164 7.51172 22.4648 7.51172 22.043L7.51172 4.37109C7.51172 3.94922 7.85156 3.59766 8.27344 3.59766C8.69531 3.59766 9.04688 3.94922 9.04688 4.37109L9.04688 22.043C9.04688 22.4648 8.69531 22.8164 8.27344 22.8164ZM14.25 22.8164C13.8281 22.8164 13.4766 22.4648 13.4766 22.043L13.4766 4.37109C13.4766 3.94922 13.8281 3.59766 14.25 3.59766C14.6719 3.59766 15.0117 3.94922 15.0117 4.37109L15.0117 22.043C15.0117 22.4648 14.6719 22.8164 14.25 22.8164Z" fill="black" fill-opacity="0.85"/>
 </g>
</svg>
