<?xml version="1.0" encoding="UTF-8"?>
<!--Generator: Apple Native CoreSVG 360-->
<!DOCTYPE svg
PUBLIC "-//W3C//DTD SVG 1.1//EN"
       "http://www.w3.org/Graphics/SVG/1.1/DTD/svg11.dtd">
<svg version="1.1" xmlns="http://www.w3.org/2000/svg" xmlns:xlink="http://www.w3.org/1999/xlink" viewBox="0 0 34.9336 24.8086">
 <g>
  <rect height="24.8086" opacity="0" width="34.9336" x="0" y="0"/>
  <path d="M29.2266 5.35547L29.2266 5.54297L25.7109 5.54297C23.3672 5.54297 21.8203 7.06641 21.8203 9.33984L21.8203 21.0117C21.8203 21.1155 21.8235 21.2177 21.8334 21.3164L7.18359 21.3164C6.01172 21.3164 5.35547 20.6953 5.35547 19.4766L5.35547 5.35547C5.35547 4.13672 6.01172 3.51562 7.18359 3.51562L27.3984 3.51562C28.5586 3.51562 29.2266 4.13672 29.2266 5.35547Z" fill="black" fill-opacity="0.2125"/>
  <path d="M31.1133 5.26172L31.1133 5.54587C31.0908 5.54313 31.0669 5.54297 31.043 5.54297L29.2266 5.54297L29.2266 5.35547C29.2266 4.13672 28.5586 3.51562 27.3984 3.51562L7.18359 3.51562C6.01172 3.51562 5.35547 4.13672 5.35547 5.35547L5.35547 19.4766C5.35547 20.6953 6.01172 21.3164 7.18359 21.3164L21.8334 21.3164C21.8756 22.0399 22.0837 22.6774 22.4281 23.2031L7.14844 23.2031C4.71094 23.2031 3.46875 21.9961 3.46875 19.5703L3.46875 5.26172C3.46875 2.83594 4.71094 1.62891 7.14844 1.62891L27.4336 1.62891C29.8828 1.62891 31.1133 2.84766 31.1133 5.26172ZM21.8203 20.4141L12.7617 20.4141C12.4453 20.4141 12.2109 20.2031 12.2109 19.875C12.2109 19.5469 12.4453 19.3242 12.7617 19.3242L21.8203 19.3242Z" fill="black" fill-opacity="0.85"/>
  <path d="M25.7344 21.668C25.2188 21.668 24.9492 21.3984 24.9492 20.8594L24.9492 9.49219C24.9492 8.95312 25.2188 8.67188 25.7344 8.67188L31.0195 8.67188C31.5352 8.67188 31.793 8.95312 31.793 9.49219L31.793 20.8594C31.793 21.3984 31.5352 21.668 31.0195 21.668Z" fill="black" fill-opacity="0.2125"/>
  <path d="M25.7109 23.2031L31.043 23.2031C32.4961 23.2031 33.3281 22.4062 33.3281 21.0117L33.3281 9.33984C33.3281 7.94531 32.4961 7.13672 31.043 7.13672L25.7109 7.13672C24.2578 7.13672 23.4141 7.94531 23.4141 9.33984L23.4141 21.0117C23.4141 22.4062 24.2578 23.2031 25.7109 23.2031ZM25.7344 21.668C25.2188 21.668 24.9492 21.3984 24.9492 20.8594L24.9492 9.49219C24.9492 8.95312 25.2188 8.67188 25.7344 8.67188L31.0195 8.67188C31.5352 8.67188 31.793 8.95312 31.793 9.49219L31.793 20.8594C31.793 21.3984 31.5352 21.668 31.0195 21.668ZM26.7773 21.0703L29.9531 21.0703C30.1875 21.0703 30.375 20.9062 30.375 20.6602C30.375 20.4375 30.1875 20.2617 29.9531 20.2617L26.7773 20.2617C26.543 20.2617 26.3789 20.4375 26.3789 20.6602C26.3789 20.918 26.5195 21.0703 26.7773 21.0703ZM27.4336 10.3477L29.2734 10.3477C29.5781 10.3477 29.8242 10.1133 29.8242 9.79688C29.8242 9.50391 29.5781 9.26953 29.2734 9.26953L27.4336 9.26953C27.1289 9.26953 26.8945 9.50391 26.8945 9.79688C26.8945 10.1133 27.1289 10.3477 27.4336 10.3477Z" fill="black" fill-opacity="0.85"/>
 </g>
</svg>
