<?xml version="1.0" encoding="UTF-8"?>
<!--Generator: Apple Native CoreSVG 360-->
<!DOCTYPE svg
PUBLIC "-//W3C//DTD SVG 1.1//EN"
       "http://www.w3.org/Graphics/SVG/1.1/DTD/svg11.dtd">
<svg version="1.1" xmlns="http://www.w3.org/2000/svg" xmlns:xlink="http://www.w3.org/1999/xlink" viewBox="0 0 23.5547 24.832">
 <g>
  <rect height="24.832" opacity="0" width="23.5547" x="0" y="0"/>
  <path d="M3.44707 2.75391C2.33374 3.15859 1.60547 4.25029 1.60547 5.60156L1.60547 19.207C1.60547 20.5583 2.33374 21.65 3.44707 22.0547L3.1875 22.0547C1.27734 22.0547 0 20.8242 0 18.9961L0 5.8125C0 3.98438 1.27734 2.75391 3.1875 2.75391Z" fill="black" fill-opacity="0.85"/>
  <path d="M5.61328 3.97266L5.61328 20.8359C5.61328 22.1872 6.34155 23.2789 7.45488 23.6836L7.19531 23.6836C5.28516 23.6836 4.00781 22.4531 4.00781 20.625L4.00781 4.18359C4.00781 2.35547 5.28516 1.125 7.19531 1.125L7.45488 1.125C6.34155 1.52969 5.61328 2.62138 5.61328 3.97266Z" fill="black" fill-opacity="0.85"/>
  <path d="M11.332 24.8086L20.0156 24.8086C21.9258 24.8086 23.2031 23.5898 23.2031 21.7617L23.2031 3.04688C23.2031 1.21875 21.9258 0 20.0156 0L11.332 0C9.42188 0 8.14453 1.21875 8.14453 3.04688L8.14453 21.7617C8.14453 23.5898 9.42188 24.8086 11.332 24.8086ZM11.5664 22.9219C10.582 22.9219 10.0312 22.3945 10.0312 21.457L10.0312 3.35156C10.0312 2.41406 10.582 1.88672 11.5664 1.88672L19.7695 1.88672C20.7656 1.88672 21.3164 2.41406 21.3164 3.35156L21.3164 21.457C21.3164 22.3945 20.7656 22.9219 19.7695 22.9219Z" fill="black" fill-opacity="0.85"/>
 </g>
</svg>
