<?xml version="1.0" encoding="UTF-8"?>
<!--Generator: Apple Native CoreSVG 360-->
<!DOCTYPE svg
PUBLIC "-//W3C//DTD SVG 1.1//EN"
       "http://www.w3.org/Graphics/SVG/1.1/DTD/svg11.dtd">
<svg version="1.1" xmlns="http://www.w3.org/2000/svg" xmlns:xlink="http://www.w3.org/1999/xlink" viewBox="0 0 15.4102 24.832">
 <g>
  <rect height="24.832" opacity="0" width="15.4102" x="0" y="0"/>
  <path d="M3.43359 22.9219C2.4375 22.9219 1.88672 22.3945 1.88672 21.457L1.88672 3.35156C1.88672 2.41406 2.4375 1.88672 3.43359 1.88672L11.6367 1.88672C12.6211 1.88672 13.1719 2.41406 13.1719 3.35156L13.1719 21.457C13.1719 22.3945 12.6211 22.9219 11.6367 22.9219Z" fill="black" fill-opacity="0.2125"/>
  <path d="M3.1875 24.8086L11.8711 24.8086C13.7812 24.8086 15.0586 23.5898 15.0586 21.7617L15.0586 3.04688C15.0586 1.21875 13.7812 0 11.8711 0L3.1875 0C1.27734 0 0 1.21875 0 3.04688L0 21.7617C0 23.5898 1.27734 24.8086 3.1875 24.8086ZM3.43359 22.9219C2.4375 22.9219 1.88672 22.3945 1.88672 21.457L1.88672 3.35156C1.88672 2.41406 2.4375 1.88672 3.43359 1.88672L11.6367 1.88672C12.6211 1.88672 13.1719 2.41406 13.1719 3.35156L13.1719 21.457C13.1719 22.3945 12.6211 22.9219 11.6367 22.9219ZM5.05078 22.0664L10.0312 22.0664C10.3477 22.0664 10.5703 21.8438 10.5703 21.5156C10.5703 21.1875 10.3477 20.9766 10.0312 20.9766L5.05078 20.9766C4.73438 20.9766 4.5 21.1875 4.5 21.5156C4.5 21.8438 4.73438 22.0664 5.05078 22.0664ZM6.11719 4.37109L8.95312 4.37109C9.41016 4.37109 9.77344 4.00781 9.77344 3.53906C9.77344 3.08203 9.41016 2.71875 8.95312 2.71875L6.11719 2.71875C5.64844 2.71875 5.28516 3.08203 5.28516 3.53906C5.28516 4.00781 5.64844 4.37109 6.11719 4.37109Z" fill="black" fill-opacity="0.85"/>
 </g>
</svg>
