<?xml version="1.0" encoding="UTF-8"?>
<!--Generator: Apple Native CoreSVG 360-->
<!DOCTYPE svg
PUBLIC "-//W3C//DTD SVG 1.1//EN"
       "http://www.w3.org/Graphics/SVG/1.1/DTD/svg11.dtd">
<svg version="1.1" xmlns="http://www.w3.org/2000/svg" xmlns:xlink="http://www.w3.org/1999/xlink" viewBox="0 0 15.4102 24.832">
 <g>
  <rect height="24.832" opacity="0" width="15.4102" x="0" y="0"/>
  <path d="M3.1875 24.8086L11.8711 24.8086C13.7812 24.8086 15.0586 23.5898 15.0586 21.7617L15.0586 3.04688C15.0586 1.21875 13.7812 0 11.8711 0L3.1875 0C1.27734 0 0 1.21875 0 3.04688L0 21.7617C0 23.5898 1.27734 24.8086 3.1875 24.8086ZM3.32812 7.21875C2.47266 7.21875 1.95703 6.72656 1.95703 5.92969L1.95703 3.23438C1.95703 2.4375 2.47266 1.94531 3.32812 1.94531L5.84766 1.94531C6.70312 1.94531 7.21875 2.4375 7.21875 3.23438L7.21875 5.92969C7.21875 6.72656 6.70312 7.21875 5.84766 7.21875Z" fill="black" fill-opacity="0.85"/>
 </g>
</svg>
