<?xml version="1.0" encoding="UTF-8"?>
<!--Generator: Apple Native CoreSVG 360-->
<!DOCTYPE svg
PUBLIC "-//W3C//DTD SVG 1.1//EN"
       "http://www.w3.org/Graphics/SVG/1.1/DTD/svg11.dtd">
<svg version="1.1" xmlns="http://www.w3.org/2000/svg" xmlns:xlink="http://www.w3.org/1999/xlink" viewBox="0 0 41.6133 29.168">
 <g>
  <rect height="29.168" opacity="0" width="41.6133" x="0" y="0"/>
  <path d="M28.1602 5.21484L28.1602 13.2466C27.5298 13.2533 26.8983 13.2712 26.2734 13.307L26.2734 5.51953C26.2734 4.58203 25.7227 4.05469 24.7383 4.05469L16.5352 4.05469C15.5391 4.05469 14.9883 4.58203 14.9883 5.51953L14.9883 23.625C14.9883 24.5625 15.5391 25.0898 16.5352 25.0898L16.9362 25.0898C17.261 25.7935 17.678 26.4304 18.1761 26.9766L16.2891 26.9766C14.3789 26.9766 13.1016 25.7578 13.1016 23.9297L13.1016 5.21484C13.1016 3.38672 14.3789 2.16797 16.2891 2.16797L24.9727 2.16797C26.8828 2.16797 28.1602 3.38672 28.1602 5.21484ZM22.875 5.70703C22.875 6.17578 22.5117 6.53906 22.0547 6.53906L19.2188 6.53906C18.75 6.53906 18.3867 6.17578 18.3867 5.70703C18.3867 5.25 18.75 4.88672 19.2188 4.88672L22.0547 4.88672C22.5117 4.88672 22.875 5.25 22.875 5.70703Z" fill="black" fill-opacity="0.85"/>
  <path d="M28.8633 25.1016C30.1172 25.1016 31.6406 27.5625 34.7344 27.5625C37.7461 27.5625 40.0195 24.8438 40.0195 21.3047C40.0195 15.5156 34.8867 14.8359 28.8633 14.8359C22.8633 14.8359 17.7305 15.5273 17.7305 21.3047C17.7305 24.8438 19.9805 27.5625 23.0156 27.5625C26.0977 27.5625 27.5977 25.1016 28.8633 25.1016ZM28.8633 23.2383C26.4727 23.2383 25.4531 25.6758 23.0156 25.6758C20.9062 25.6758 19.6172 24.0938 19.6172 21.3047C19.6172 17.1445 23.0625 16.7227 28.8633 16.7227C34.6875 16.7227 38.1328 17.1328 38.1328 21.3047C38.1328 24.0938 36.832 25.6758 34.7344 25.6758C32.2852 25.6758 31.2539 23.2383 28.8633 23.2383Z" fill="black" fill-opacity="0.85"/>
 </g>
</svg>
