<?xml version="1.0" encoding="UTF-8"?>
<!--Generator: Apple Native CoreSVG 360-->
<!DOCTYPE svg
PUBLIC "-//W3C//DTD SVG 1.1//EN"
       "http://www.w3.org/Graphics/SVG/1.1/DTD/svg11.dtd">
<svg version="1.1" xmlns="http://www.w3.org/2000/svg" xmlns:xlink="http://www.w3.org/1999/xlink" viewBox="0 0 24.2578 23.918">
 <g>
  <rect height="23.918" opacity="0" width="24.2578" x="0" y="0"/>
  <path d="M6.71484 2.25L5.00391 3.04688L5.00391 13.9688C5.00391 15.6562 6.17578 16.7695 7.93359 16.7695L15.9023 16.7695C17.6602 16.7695 18.832 15.6562 18.832 13.9688L18.832 2.97656L17.1211 2.21484L17.1211 13.125L6.71484 13.125ZM11.9062 13.9102C12.5039 13.9102 12.9609 14.3789 12.9609 14.9648C12.9609 15.5273 12.5039 15.9844 11.9062 15.9844C11.3438 15.9844 10.8867 15.5273 10.8867 14.9648C10.8867 14.3789 11.3438 13.9102 11.9062 13.9102ZM11.9531 23.9062C18.5508 23.9062 23.9062 18.5508 23.9062 11.9531C23.9062 5.35547 18.5508 0 11.9531 0C5.35547 0 0 5.35547 0 11.9531C0 18.5508 5.35547 23.9062 11.9531 23.9062ZM11.9531 21.9141C6.44531 21.9141 1.99219 17.4609 1.99219 11.9531C1.99219 6.44531 6.44531 1.99219 11.9531 1.99219C17.4609 1.99219 21.9141 6.44531 21.9141 11.9531C21.9141 17.4609 17.4609 21.9141 11.9531 21.9141Z" fill="black" fill-opacity="0.85"/>
 </g>
</svg>
