<?xml version="1.0" encoding="UTF-8"?>
<!--Generator: Apple Native CoreSVG 360-->
<!DOCTYPE svg
PUBLIC "-//W3C//DTD SVG 1.1//EN"
       "http://www.w3.org/Graphics/SVG/1.1/DTD/svg11.dtd">
<svg version="1.1" xmlns="http://www.w3.org/2000/svg" xmlns:xlink="http://www.w3.org/1999/xlink" viewBox="0 0 25.1836 15.082">
 <g>
  <rect height="15.082" opacity="0" width="25.1836" x="0" y="0"/>
  <path d="M20.8477 13.1719L3.97266 13.1719L3.97266 1.88672L20.8477 1.88672ZM23.6602 7.52344C23.6602 8.08594 23.2148 8.54297 22.6406 8.54297C22.0898 8.54297 21.6328 8.08594 21.6328 7.52344C21.6328 6.96094 22.0898 6.51562 22.6406 6.51562C23.2148 6.51562 23.6602 6.96094 23.6602 7.52344ZM2.05078 9.75C1.78125 9.75 1.61719 9.57422 1.61719 9.31641L1.61719 5.74219C1.61719 5.48438 1.78125 5.30859 2.05078 5.30859C2.32031 5.30859 2.49609 5.48438 2.49609 5.74219L2.49609 9.31641C2.49609 9.57422 2.32031 9.75 2.05078 9.75Z" fill="black" fill-opacity="0.2125"/>
  <path d="M21.7734 15.0586C23.6016 15.0586 24.832 13.7812 24.832 11.8711L24.832 3.1875C24.832 1.27734 23.6016 0 21.7734 0L3.04688 0C1.21875 0 0 1.27734 0 3.1875L0 11.8711C0 13.7812 1.21875 15.0586 3.04688 15.0586ZM20.8477 13.1719L3.97266 13.1719L3.97266 1.88672L20.8477 1.88672ZM23.6602 7.52344C23.6602 8.08594 23.2148 8.54297 22.6406 8.54297C22.0898 8.54297 21.6328 8.08594 21.6328 7.52344C21.6328 6.96094 22.0898 6.51562 22.6406 6.51562C23.2148 6.51562 23.6602 6.96094 23.6602 7.52344ZM2.05078 9.75C1.78125 9.75 1.61719 9.57422 1.61719 9.31641L1.61719 5.74219C1.61719 5.48438 1.78125 5.30859 2.05078 5.30859C2.32031 5.30859 2.49609 5.48438 2.49609 5.74219L2.49609 9.31641C2.49609 9.57422 2.32031 9.75 2.05078 9.75Z" fill="black" fill-opacity="0.85"/>
 </g>
</svg>
