<?xml version="1.0" encoding="UTF-8"?>
<!--Generator: Apple Native CoreSVG 360-->
<!DOCTYPE svg
PUBLIC "-//W3C//DTD SVG 1.1//EN"
       "http://www.w3.org/Graphics/SVG/1.1/DTD/svg11.dtd">
<svg version="1.1" xmlns="http://www.w3.org/2000/svg" xmlns:xlink="http://www.w3.org/1999/xlink" viewBox="0 0 31.4648 24.832">
 <g>
  <rect height="24.832" opacity="0" width="31.4648" x="0" y="0"/>
  <path d="M12.3516 21.7734C12.3516 23.6016 13.6289 24.8203 15.5391 24.8203L24.2227 24.8203C26.1328 24.8203 27.4102 23.6016 27.4102 21.7734L27.4102 3.04688C27.4102 1.21875 26.1328 0 24.2227 0L15.5391 0C13.6289 0 12.3516 1.21875 12.3516 3.04688ZM14.2383 20.8477L14.2383 3.97266L25.5234 3.97266L25.5234 20.8477ZM19.8984 23.6602C19.3359 23.6602 18.8789 23.2031 18.8789 22.6406C18.8789 22.0898 19.3359 21.6328 19.8984 21.6328C20.4492 21.6328 20.9062 22.0898 20.9062 22.6406C20.9062 23.2031 20.4492 23.6602 19.8984 23.6602Z" fill="black" fill-opacity="0.85"/>
  <path d="M5.51953 4.98047L5.51953 10.7344C5.51953 11.6016 6.41016 11.9766 7.05469 11.4023L10.3242 8.51953C10.7695 8.13281 10.7695 7.58203 10.3242 7.19531L7.05469 4.30078C6.44531 3.75 5.51953 4.06641 5.51953 4.98047ZM0.914062 8.76562L7.58203 8.76562C8.08594 8.76562 8.48438 8.36719 8.48438 7.86328C8.48438 7.35938 8.08594 6.94922 7.58203 6.94922L0.914062 6.94922C0.410156 6.94922 0 7.35938 0 7.86328C0 8.36719 0.410156 8.76562 0.914062 8.76562Z" fill="black" fill-opacity="0.85"/>
 </g>
</svg>
