<?xml version="1.0" encoding="UTF-8"?>
<!--Generator: Apple Native CoreSVG 360-->
<!DOCTYPE svg
PUBLIC "-//W3C//DTD SVG 1.1//EN"
       "http://www.w3.org/Graphics/SVG/1.1/DTD/svg11.dtd">
<svg version="1.1" xmlns="http://www.w3.org/2000/svg" xmlns:xlink="http://www.w3.org/1999/xlink" viewBox="0 0 23.7305 31.4414">
 <g>
  <rect height="31.4414" opacity="0" width="23.7305" x="0" y="0"/>
  <path d="M3.12891 26.5195C3.12891 27.4102 3.66797 27.9375 4.60547 27.9375L7.34766 27.9375L7.34766 29.8242L4.23047 29.8242C2.4375 29.8242 1.24219 28.6875 1.24219 26.9648L1.24219 25.207L3.12891 25.207ZM14.8125 26.9648C14.8125 28.6875 13.6172 29.8242 11.8242 29.8242L8.70703 29.8242L8.70703 27.9375L11.4492 27.9375C12.3867 27.9375 12.9258 27.4102 12.9258 26.5195L12.9258 25.6289L14.8125 25.6289ZM3.12891 23.8477L1.24219 23.8477L1.24219 19.2891L3.12891 19.2891ZM3.12891 17.9297L1.24219 17.9297L1.24219 13.3828L3.12891 13.3828ZM6.97266 9.29297L4.60547 9.29297C3.66797 9.29297 3.12891 9.80859 3.12891 10.6992L3.12891 12.0117L1.24219 12.0117L1.24219 10.2539C1.24219 8.53125 2.4375 7.40625 4.23047 7.40625L6.97266 7.40625Z" fill="black" fill-opacity="0.85"/>
  <path d="M11.5547 24.0234L19.1484 24.0234C20.9414 24.0234 22.125 22.8867 22.125 21.1641L22.125 4.46484C22.125 2.74219 20.9414 1.60547 19.1484 1.60547L11.5547 1.60547C9.76172 1.60547 8.56641 2.74219 8.56641 4.46484L8.56641 21.1641C8.56641 22.8867 9.76172 24.0234 11.5547 24.0234ZM12.6914 22.1367L20.2383 15.8086L20.2383 18.5508L15.9609 22.1367ZM17.625 22.1367L20.2383 19.9336L20.2383 20.7188C20.2383 21.6094 19.6875 22.1367 18.7734 22.1367ZM11.2031 22.0078C10.7109 21.7969 10.4531 21.3516 10.4531 20.7188L10.4531 19.8867L20.2383 11.6602L20.2383 14.4141ZM10.4531 18.4922L10.4531 15.75L20.2383 7.52344L20.2383 10.2773ZM10.4531 14.3555L10.4531 11.625L19.7578 3.79688C20.0742 4.04297 20.2383 4.40625 20.2383 4.89844L20.2383 6.14062ZM10.4531 6.09375L10.4531 4.89844C10.4531 4.01953 10.9922 3.49219 11.9297 3.49219L13.5469 3.49219ZM10.4531 10.207L10.4531 7.47656L15.2109 3.49219L18.457 3.49219Z" fill="black" fill-opacity="0.85"/>
 </g>
</svg>
