<?xml version="1.0" encoding="UTF-8"?>
<!--Generator: Apple Native CoreSVG 360-->
<!DOCTYPE svg
PUBLIC "-//W3C//DTD SVG 1.1//EN"
       "http://www.w3.org/Graphics/SVG/1.1/DTD/svg11.dtd">
<svg version="1.1" xmlns="http://www.w3.org/2000/svg" xmlns:xlink="http://www.w3.org/1999/xlink" viewBox="0 0 24.7852 27.5273">
 <g>
  <rect height="27.5273" opacity="0" width="24.7852" x="0" y="0"/>
  <path d="M17.2383 4.39453L17.2383 4.79297L15.3516 4.79297L15.3516 4.69922C15.3516 3.76172 14.7891 3.23438 13.8047 3.23438L5.60156 3.23438C4.61719 3.23438 4.05469 3.76172 4.05469 4.69922L4.05469 22.8047C4.05469 23.7422 4.61719 24.2695 5.60156 24.2695L9.98065 24.2695C10.0728 24.9707 10.3453 25.6236 10.7809 26.1562L5.35547 26.1562C3.44531 26.1562 2.16797 24.9375 2.16797 23.1094L2.16797 4.39453C2.16797 2.56641 3.44531 1.34766 5.35547 1.34766L14.0508 1.34766C15.9609 1.34766 17.2383 2.56641 17.2383 4.39453ZM9.9375 23.4141L7.21875 23.4141C6.90234 23.4141 6.67969 23.1914 6.67969 22.8633C6.67969 22.5352 6.90234 22.3242 7.21875 22.3242L9.9375 22.3242ZM11.9531 4.88672C11.9531 5.02876 11.9187 5.16112 11.8575 5.27635C11.625 5.39864 11.4121 5.54469 11.2211 5.71225C11.1884 5.71675 11.155 5.71875 11.1211 5.71875L8.28516 5.71875C7.82812 5.71875 7.45312 5.35547 7.45312 4.88672C7.45312 4.42969 7.82812 4.06641 8.28516 4.06641L11.1211 4.06641C11.5781 4.06641 11.9531 4.42969 11.9531 4.88672Z" fill="black" fill-opacity="0.85"/>
  <path d="M11.3086 23.6953C11.3086 25.1719 12.3164 26.1562 13.875 26.1562L20.8477 26.1562C22.3945 26.1562 23.4141 25.1719 23.4141 23.6953L23.4141 8.61328C23.4141 7.16016 22.3945 6.16406 20.8477 6.16406L13.875 6.16406C12.3164 6.16406 11.3086 7.16016 11.3086 8.61328ZM13.1836 22.5352L13.1836 9.76172L21.5273 9.76172L21.5273 22.5352ZM17.3789 25.1953C16.8984 25.1953 16.5234 24.8086 16.5234 24.3398C16.5234 23.8828 16.8984 23.5078 17.3789 23.5078C17.8477 23.5078 18.2109 23.8828 18.2109 24.3398C18.2109 24.8086 17.8477 25.1953 17.3789 25.1953ZM17.3789 8.57812C17.0391 8.57812 16.8047 8.30859 16.8047 7.96875C16.8047 7.65234 17.0391 7.41797 17.3789 7.41797C17.6953 7.41797 17.9414 7.65234 17.9414 7.96875C17.9414 8.30859 17.6953 8.57812 17.3789 8.57812Z" fill="black" fill-opacity="0.85"/>
 </g>
</svg>
