<?xml version="1.0" encoding="UTF-8"?>
<!--Generator: Apple Native CoreSVG 360-->
<!DOCTYPE svg
PUBLIC "-//W3C//DTD SVG 1.1//EN"
       "http://www.w3.org/Graphics/SVG/1.1/DTD/svg11.dtd">
<svg version="1.1" xmlns="http://www.w3.org/2000/svg" xmlns:xlink="http://www.w3.org/1999/xlink" viewBox="0 0 24.2578 26.1914">
 <g>
  <rect height="26.1914" opacity="0" width="24.2578" x="0" y="0"/>
  <path d="M0 5.27344C0 5.78906 0.421875 6.22266 0.9375 6.22266C1.46484 6.22266 1.88672 5.78906 1.88672 5.27344L1.88672 4.28906C1.88672 2.80078 2.77734 1.89844 4.27734 1.89844L5.30859 1.89844C5.82422 1.89844 6.25781 1.46484 6.25781 0.949219C6.25781 0.433594 5.82422 0.0117188 5.30859 0.0117188L4.27734 0.0117188C1.61719 0.0117188 0 1.64062 0 4.28906ZM23.9062 5.27344L23.9062 4.28906C23.9062 1.64062 22.2891 0.0117188 19.6289 0.0117188L18.5859 0.0117188C18.0703 0.0117188 17.6484 0.433594 17.6484 0.949219C17.6484 1.46484 18.0703 1.89844 18.5859 1.89844L19.6289 1.89844C21.1289 1.89844 22.0195 2.80078 22.0195 4.28906L22.0195 5.27344C22.0195 5.78906 22.4414 6.22266 22.957 6.22266C23.4727 6.22266 23.9062 5.78906 23.9062 5.27344ZM0 12.0469L0 13.043C0 15.6797 1.61719 17.3203 4.27734 17.3203L5.30859 17.3203C5.82422 17.3203 6.25781 16.8867 6.25781 16.3711C6.25781 15.8555 5.82422 15.4336 5.30859 15.4336L4.27734 15.4336C2.77734 15.4336 1.88672 14.5195 1.88672 13.043L1.88672 12.0469C1.88672 11.5312 1.46484 11.1094 0.9375 11.1094C0.421875 11.1094 0 11.5312 0 12.0469ZM23.9062 12.0469C23.9062 11.5312 23.4727 11.1094 22.957 11.1094C22.4414 11.1094 22.0195 11.5312 22.0195 12.0469L22.0195 13.043C22.0195 14.5195 21.1289 15.4336 19.6289 15.4336L18.5859 15.4336C18.0703 15.4336 17.6484 15.8555 17.6484 16.3711C17.6484 16.8867 18.0703 17.3203 18.5859 17.3203L19.6289 17.3203C22.2891 17.3203 23.9062 15.6797 23.9062 13.043Z" fill="black" fill-opacity="0.85"/>
  <path d="M11.0977 21.4102L12.8086 21.4102L12.8086 14.0742L11.0977 14.0742ZM8.46094 26.1914L15.4336 26.1914C16.7578 26.1914 17.5898 25.3711 17.5898 24.0938L17.5898 22.3477C17.5898 21.0586 16.7578 20.2383 15.4336 20.2383L8.46094 20.2383C7.14844 20.2383 6.31641 21.0586 6.31641 22.3477L6.31641 24.0938C6.31641 25.3711 7.14844 26.1914 8.46094 26.1914ZM8.71875 24.4688C8.30859 24.4688 8.02734 24.1875 8.02734 23.7539L8.02734 22.6758C8.02734 22.2422 8.30859 21.9375 8.71875 21.9375L15.1641 21.9375C15.5742 21.9375 15.8789 22.2422 15.8789 22.6758L15.8789 23.7539C15.8789 24.1875 15.5742 24.4688 15.1641 24.4688ZM11.9648 14.5547C15.2227 14.5547 17.8359 11.9297 17.8359 8.67188C17.8359 5.42578 15.2227 2.80078 11.9648 2.80078C8.71875 2.80078 6.08203 5.42578 6.08203 8.67188C6.08203 11.9297 8.49609 14.5547 11.9648 14.5547ZM11.9648 12.9023C9.45703 12.9023 7.73438 11.0273 7.73438 8.67188C7.73438 6.33984 9.62109 4.45312 11.9648 4.45312C14.3086 4.45312 16.1836 6.33984 16.1836 8.67188C16.1836 11.0273 14.3086 12.9023 11.9648 12.9023Z" fill="black" fill-opacity="0.85"/>
 </g>
</svg>
