<?xml version="1.0" encoding="UTF-8"?>
<!--Generator: Apple Native CoreSVG 360-->
<!DOCTYPE svg
PUBLIC "-//W3C//DTD SVG 1.1//EN"
       "http://www.w3.org/Graphics/SVG/1.1/DTD/svg11.dtd">
<svg version="1.1" xmlns="http://www.w3.org/2000/svg" xmlns:xlink="http://www.w3.org/1999/xlink" viewBox="0 0 22.4883 27.5273">
 <g>
  <rect height="27.5273" opacity="0" width="22.4883" x="0" y="0"/>
  <path d="M14.2031 4.69922L14.2031 4.79297L11.8359 4.79297C9.44531 4.79297 7.72266 6.43359 7.72266 8.78906L7.72266 23.5312C7.72266 23.7868 7.74293 24.0339 7.78581 24.2695L4.45312 24.2695C3.46875 24.2695 2.90625 23.7422 2.90625 22.8047L2.90625 4.69922C2.90625 3.76172 3.46875 3.23438 4.45312 3.23438L12.6562 3.23438C13.6406 3.23438 14.2031 3.76172 14.2031 4.69922Z" fill="black" fill-opacity="0.2125"/>
  <path d="M16.0898 4.39453L16.0898 4.79297L14.2031 4.79297L14.2031 4.69922C14.2031 3.76172 13.6406 3.23438 12.6562 3.23438L4.45312 3.23438C3.46875 3.23438 2.90625 3.76172 2.90625 4.69922L2.90625 22.8047C2.90625 23.7422 3.46875 24.2695 4.45312 24.2695L7.78581 24.2695C7.90275 25.0023 8.20263 25.6424 8.64354 26.1562L4.20703 26.1562C2.29688 26.1562 1.01953 24.9375 1.01953 23.1094L1.01953 4.39453C1.01953 2.56641 2.29688 1.34766 4.20703 1.34766L12.9023 1.34766C14.8125 1.34766 16.0898 2.56641 16.0898 4.39453ZM10.8047 4.88672L10.8037 4.90649C10.1484 5.04544 9.57073 5.32522 9.09981 5.71875L7.13672 5.71875C6.67969 5.71875 6.30469 5.35547 6.30469 4.88672C6.30469 4.42969 6.67969 4.06641 7.13672 4.06641L9.97266 4.06641C10.4297 4.06641 10.8047 4.42969 10.8047 4.88672Z" fill="black" fill-opacity="0.85"/>
  <path d="M19.3477 9.1875L19.3477 23.1328C19.3477 23.9297 18.8555 24.3867 18.0352 24.3867L12.1758 24.3867C11.332 24.3867 10.8633 23.9297 10.8633 23.1328L10.8633 9.1875C10.8633 8.39062 11.332 7.93359 12.1758 7.93359L18.0352 7.93359C18.8555 7.93359 19.3477 8.39062 19.3477 9.1875ZM13.8281 8.76562C13.3828 8.76562 13.0312 9.11719 13.0312 9.5625C13.0312 10.0078 13.3828 10.3477 13.8281 10.3477L16.4531 10.3477C16.875 10.3477 17.2266 10.0078 17.2266 9.5625C17.2266 9.11719 16.875 8.76562 16.4531 8.76562Z" fill="black" fill-opacity="0.2125"/>
  <path d="M11.8359 26.1562L18.375 26.1562C20.0273 26.1562 21.1172 25.1133 21.1172 23.5312L21.1172 8.78906C21.1172 7.20703 20.0273 6.16406 18.375 6.16406L11.8359 6.16406C10.1836 6.16406 9.09375 7.20703 9.09375 8.78906L9.09375 23.5312C9.09375 25.1133 10.1836 26.1562 11.8359 26.1562ZM12.1758 24.3867C11.332 24.3867 10.8633 23.9297 10.8633 23.1328L10.8633 9.1875C10.8633 8.39062 11.332 7.93359 12.1758 7.93359L18.0352 7.93359C18.8555 7.93359 19.3477 8.39062 19.3477 9.1875L19.3477 23.1328C19.3477 23.9297 18.8555 24.3867 18.0352 24.3867ZM13.8281 10.3477L16.4531 10.3477C16.875 10.3477 17.2266 10.0078 17.2266 9.5625C17.2266 9.11719 16.875 8.76562 16.4531 8.76562L13.8281 8.76562C13.3828 8.76562 13.0312 9.11719 13.0312 9.5625C13.0312 10.0078 13.3828 10.3477 13.8281 10.3477Z" fill="black" fill-opacity="0.85"/>
 </g>
</svg>
