<?xml version="1.0" encoding="UTF-8"?>
<!--Generator: Apple Native CoreSVG 360-->
<!DOCTYPE svg
PUBLIC "-//W3C//DTD SVG 1.1//EN"
       "http://www.w3.org/Graphics/SVG/1.1/DTD/svg11.dtd">
<svg version="1.1" xmlns="http://www.w3.org/2000/svg" xmlns:xlink="http://www.w3.org/1999/xlink" viewBox="0 0 25.1836 15.1055">
 <g>
  <rect height="15.1055" opacity="0" width="25.1836" x="0" y="0"/>
  <path d="M22.9453 11.6367C22.9453 12.6211 22.418 13.1836 21.4805 13.1836L3.375 13.1836C2.42578 13.1836 1.89844 12.6211 1.89844 11.6367L1.89844 10.125C1.89844 9.94922 2.00391 9.84375 2.17969 9.84375L2.44922 9.84375C2.92969 9.84375 3.26953 9.52734 3.26953 9.04688L3.26953 6.01172C3.26953 5.53125 2.92969 5.21484 2.44922 5.21484L2.17969 5.21484C2.00391 5.21484 1.89844 5.10938 1.89844 4.93359L1.89844 3.43359C1.89844 2.44922 2.42578 1.88672 3.375 1.88672L21.4805 1.88672C22.418 1.88672 22.9453 2.44922 22.9453 3.43359Z" fill="black" fill-opacity="0.2125"/>
  <path d="M24.832 11.8711L24.832 3.1875C24.832 1.27734 23.6133 0 21.7852 0L3.07031 0C1.24219 0 0 1.27734 0 3.1875L0 11.8711C0 13.7812 1.24219 15.0703 3.07031 15.0703L21.7852 15.0703C23.6133 15.0703 24.832 13.7812 24.832 11.8711ZM22.9453 11.6367C22.9453 12.6211 22.418 13.1836 21.4805 13.1836L3.375 13.1836C2.42578 13.1836 1.89844 12.6211 1.89844 11.6367L1.89844 10.125C1.89844 9.94922 2.00391 9.84375 2.17969 9.84375L2.44922 9.84375C2.92969 9.84375 3.26953 9.52734 3.26953 9.04688L3.26953 6.01172C3.26953 5.53125 2.92969 5.21484 2.44922 5.21484L2.17969 5.21484C2.00391 5.21484 1.89844 5.10938 1.89844 4.93359L1.89844 3.43359C1.89844 2.44922 2.42578 1.88672 3.375 1.88672L21.4805 1.88672C22.418 1.88672 22.9453 2.44922 22.9453 3.43359ZM9.30469 12.3164L15.5508 12.3164C15.8672 12.3164 16.0898 12.0938 16.0898 11.7656C16.0898 11.4375 15.8672 11.2266 15.5508 11.2266L9.30469 11.2266C8.98828 11.2266 8.76562 11.4375 8.76562 11.7656C8.76562 12.0938 8.98828 12.3164 9.30469 12.3164Z" fill="black" fill-opacity="0.85"/>
 </g>
</svg>
