<?xml version="1.0" encoding="UTF-8"?>
<!--Generator: Apple Native CoreSVG 360-->
<!DOCTYPE svg
PUBLIC "-//W3C//DTD SVG 1.1//EN"
       "http://www.w3.org/Graphics/SVG/1.1/DTD/svg11.dtd">
<svg version="1.1" xmlns="http://www.w3.org/2000/svg" xmlns:xlink="http://www.w3.org/1999/xlink" viewBox="0 0 24.2578 23.918">
 <g>
  <rect height="23.918" opacity="0" width="24.2578" x="0" y="0"/>
  <path d="M17.1562 21.3047L18.8672 21.3047L18.8672 9.24609C18.8672 7.55859 17.6953 6.43359 15.9375 6.43359L7.94531 6.43359C6.1875 6.43359 5.02734 7.55859 5.02734 9.24609L5.02734 21.3047L6.73828 21.3047L6.73828 9.51562C6.73828 8.64844 7.25391 8.14453 8.16797 8.14453L15.7148 8.14453C16.6289 8.14453 17.1562 8.64844 17.1562 9.51562ZM10.6523 10.418L13.2539 10.418C13.6641 10.418 14.0039 10.0898 14.0039 9.66797C14.0039 9.24609 13.6641 8.91797 13.2539 8.91797L10.6523 8.91797C10.2188 8.91797 9.87891 9.24609 9.87891 9.66797C9.87891 10.0898 10.2188 10.418 10.6523 10.418ZM11.9531 23.9062C18.5508 23.9062 23.9062 18.5508 23.9062 11.9531C23.9062 5.35547 18.5508 0 11.9531 0C5.35547 0 0 5.35547 0 11.9531C0 18.5508 5.35547 23.9062 11.9531 23.9062ZM11.9531 21.9141C6.44531 21.9141 1.99219 17.4609 1.99219 11.9531C1.99219 6.44531 6.44531 1.99219 11.9531 1.99219C17.4609 1.99219 21.9141 6.44531 21.9141 11.9531C21.9141 17.4609 17.4609 21.9141 11.9531 21.9141Z" fill="black" fill-opacity="0.85"/>
 </g>
</svg>
