<?xml version="1.0" encoding="UTF-8"?>
<!--Generator: Apple Native CoreSVG 360-->
<!DOCTYPE svg
PUBLIC "-//W3C//DTD SVG 1.1//EN"
       "http://www.w3.org/Graphics/SVG/1.1/DTD/svg11.dtd">
<svg version="1.1" xmlns="http://www.w3.org/2000/svg" xmlns:xlink="http://www.w3.org/1999/xlink" viewBox="0 0 22.4883 27.5273">
 <g>
  <rect height="27.5273" opacity="0" width="22.4883" x="0" y="0"/>
  <path d="M7.72266 8.78906L7.72266 22.1953L2.90625 22.1953L2.90625 5.32031L9.68965 5.32031C8.4798 5.98006 7.72266 7.22747 7.72266 8.78906Z" fill="black" fill-opacity="0.2125"/>
  <path d="M16.0898 4.39453L16.0898 4.79297L11.8359 4.79297C11.0302 4.79297 10.3004 4.97933 9.68965 5.32031L2.90625 5.32031L2.90625 22.1953L7.72266 22.1953L7.72266 23.5312C7.72266 24.5793 8.06373 25.4859 8.65448 26.168L4.20703 26.168C2.29688 26.168 1.01953 24.9492 1.01953 23.1211L1.01953 4.39453C1.01953 2.56641 2.29688 1.34766 4.20703 1.34766L12.9023 1.34766C14.8125 1.34766 16.0898 2.56641 16.0898 4.39453ZM6.77344 2.95312C6.51562 2.95312 6.33984 3.12891 6.33984 3.39844C6.33984 3.66797 6.51562 3.83203 6.77344 3.83203L10.3477 3.83203C10.6055 3.83203 10.7812 3.66797 10.7812 3.39844C10.7812 3.12891 10.6055 2.95312 10.3477 2.95312Z" fill="black" fill-opacity="0.85"/>
  <path d="M10.6172 22.9805L10.6172 9.50391L19.6055 9.50391L19.6055 22.9805Z" fill="black" fill-opacity="0.2125"/>
  <path d="M11.8359 26.1562L18.375 26.1562C20.0273 26.1562 21.1172 25.1133 21.1172 23.5312L21.1172 8.78906C21.1172 7.20703 20.0273 6.16406 18.375 6.16406L11.8359 6.16406C10.1836 6.16406 9.09375 7.20703 9.09375 8.78906L9.09375 23.5312C9.09375 25.1133 10.1836 26.1562 11.8359 26.1562ZM13.3359 7.98047C13.3359 7.76953 13.4883 7.61719 13.6992 7.61719L16.5352 7.61719C16.7461 7.61719 16.8867 7.76953 16.8867 7.98047C16.8867 8.20312 16.7461 8.33203 16.5352 8.33203L13.6992 8.33203C13.4883 8.33203 13.3359 8.20312 13.3359 7.98047ZM10.6172 22.9805L10.6172 9.50391L19.6055 9.50391L19.6055 22.9805Z" fill="black" fill-opacity="0.85"/>
 </g>
</svg>
