<?xml version="1.0" encoding="UTF-8"?>
<!--Generator: Apple Native CoreSVG 360-->
<!DOCTYPE svg
PUBLIC "-//W3C//DTD SVG 1.1//EN"
       "http://www.w3.org/Graphics/SVG/1.1/DTD/svg11.dtd">
<svg version="1.1" xmlns="http://www.w3.org/2000/svg" xmlns:xlink="http://www.w3.org/1999/xlink" viewBox="0 0 24.2578 23.918">
 <g>
  <rect height="23.918" opacity="0" width="24.2578" x="0" y="0"/>
  <path d="M17.1562 21.2344L18.8672 21.2344L18.8672 9.24609C18.8672 7.55859 17.6953 6.43359 15.9375 6.43359L7.95703 6.43359C6.19922 6.43359 5.02734 7.55859 5.02734 9.24609L5.02734 21.2344L6.73828 21.2344L6.73828 10.0898L17.1562 10.0898ZM9.92578 8.32031C9.92578 8.07422 10.0781 7.92188 10.3125 7.92188L13.5938 7.92188C13.8281 7.92188 13.9805 8.07422 13.9805 8.32031C13.9805 8.56641 13.8281 8.71875 13.5938 8.71875L10.3125 8.71875C10.0781 8.71875 9.92578 8.56641 9.92578 8.32031ZM11.9531 23.9062C18.5508 23.9062 23.9062 18.5508 23.9062 11.9531C23.9062 5.35547 18.5508 0 11.9531 0C5.35547 0 0 5.35547 0 11.9531C0 18.5508 5.35547 23.9062 11.9531 23.9062ZM11.9531 21.9141C6.44531 21.9141 1.99219 17.4609 1.99219 11.9531C1.99219 6.44531 6.44531 1.99219 11.9531 1.99219C17.4609 1.99219 21.9141 6.44531 21.9141 11.9531C21.9141 17.4609 17.4609 21.9141 11.9531 21.9141Z" fill="black" fill-opacity="0.85"/>
 </g>
</svg>
