<?xml version="1.0" encoding="UTF-8"?>
<!--Generator: Apple Native CoreSVG 360-->
<!DOCTYPE svg
PUBLIC "-//W3C//DTD SVG 1.1//EN"
       "http://www.w3.org/Graphics/SVG/1.1/DTD/svg11.dtd">
<svg version="1.1" xmlns="http://www.w3.org/2000/svg" xmlns:xlink="http://www.w3.org/1999/xlink" viewBox="0 0 23.5547 25.207">
 <g>
  <rect height="25.207" opacity="0" width="23.5547" x="0" y="0"/>
  <path d="M1.60547 3.02344L1.60547 22.1602C1.60547 23.4987 2.32004 24.5825 3.41564 24.9961L3.1875 24.9961C1.27734 24.9961 0 23.7773 0 21.9492L0 3.23438C0 1.40625 1.27734 0.1875 3.1875 0.1875L3.41564 0.1875C2.32004 0.601133 1.60547 1.68494 1.60547 3.02344Z" fill="black" fill-opacity="0.85"/>
  <path d="M5.61328 3.02344L5.61328 22.1602C5.61328 23.4987 6.32785 24.5825 7.42345 24.9961L7.19531 24.9961C5.28516 24.9961 4.00781 23.7773 4.00781 21.9492L4.00781 3.23438C4.00781 1.40625 5.28516 0.1875 7.19531 0.1875L7.42345 0.1875C6.32785 0.601133 5.61328 1.68494 5.61328 3.02344Z" fill="black" fill-opacity="0.85"/>
  <path d="M8.14453 21.9609C8.14453 23.7891 9.42188 25.0078 11.332 25.0078L20.0156 25.0078C21.9258 25.0078 23.2031 23.7891 23.2031 21.9609L23.2031 3.23438C23.2031 1.40625 21.9258 0.1875 20.0156 0.1875L11.332 0.1875C9.42188 0.1875 8.14453 1.40625 8.14453 3.23438ZM10.0312 21.0352L10.0312 4.16016L21.3164 4.16016L21.3164 21.0352ZM15.6914 23.8477C15.1172 23.8477 14.6602 23.3906 14.6602 22.8281C14.6602 22.2773 15.1172 21.8203 15.6914 21.8203C16.2422 21.8203 16.6992 22.2773 16.6992 22.8281C16.6992 23.3906 16.2422 23.8477 15.6914 23.8477ZM13.4531 2.23828C13.4531 1.96875 13.6406 1.79297 13.8984 1.79297L17.4609 1.79297C17.7188 1.79297 17.9062 1.96875 17.9062 2.23828C17.9062 2.50781 17.7188 2.67188 17.4609 2.67188L13.8984 2.67188C13.6406 2.67188 13.4531 2.50781 13.4531 2.23828Z" fill="black" fill-opacity="0.85"/>
 </g>
</svg>
