<?xml version="1.0" encoding="UTF-8"?>
<!--Generator: Apple Native CoreSVG 360-->
<!DOCTYPE svg
PUBLIC "-//W3C//DTD SVG 1.1//EN"
       "http://www.w3.org/Graphics/SVG/1.1/DTD/svg11.dtd">
<svg version="1.1" xmlns="http://www.w3.org/2000/svg" xmlns:xlink="http://www.w3.org/1999/xlink" viewBox="0 0 24.7617 24.832">
 <g>
  <rect height="24.832" opacity="0" width="24.7617" x="0" y="0"/>
  <path d="M19.7344 3.04688L19.7344 21.7617C19.7344 23.5898 18.457 24.8086 16.5469 24.8086L7.86328 24.8086C5.95312 24.8086 4.67578 23.5898 4.67578 21.7617L4.67578 15.5273L6.5625 15.5273L6.5625 21.457C6.5625 22.3945 7.11328 22.9219 8.10938 22.9219L16.3125 22.9219C17.2969 22.9219 17.8477 22.3945 17.8477 21.457L17.8477 3.35156C17.8477 2.41406 17.2969 1.88672 16.3125 1.88672L8.10938 1.88672C7.11328 1.88672 6.5625 2.41406 6.5625 3.35156L6.5625 9.26953L4.67578 9.26953L4.67578 3.04688C4.67578 1.21875 5.95312 0 7.86328 0L16.5469 0C18.457 0 19.7344 1.21875 19.7344 3.04688Z" fill="black" fill-opacity="0.85"/>
  <path d="M9.15234 8.42578C9.15234 8.64844 9.24609 8.90625 9.43359 9.07031L11.3672 10.875L12.9727 12.3984L11.3672 13.9102L9.43359 15.7266C9.24609 15.8906 9.15234 16.1367 9.15234 16.3594C9.15234 16.8398 9.49219 17.2148 9.97266 17.2148C10.2188 17.2148 10.418 17.1094 10.5938 16.9336L14.3086 13.0781C14.5547 12.8438 14.625 12.6328 14.625 12.3984C14.625 12.1523 14.5547 11.9531 14.3086 11.7188L10.5938 7.85156C10.418 7.67578 10.2188 7.58203 9.97266 7.58203C9.49219 7.58203 9.15234 7.93359 9.15234 8.42578ZM0 12.3984C0 12.9023 0.410156 13.3242 0.902344 13.3242L10.3008 13.3242L13.4648 13.1836C13.8867 13.1602 14.25 12.832 14.25 12.3984C14.25 11.9648 13.8867 11.6367 13.4648 11.6133L10.3008 11.4609L0.902344 11.4609C0.410156 11.4609 0 11.8945 0 12.3984Z" fill="black" fill-opacity="0.85"/>
 </g>
</svg>
