<?xml version="1.0" encoding="UTF-8"?>
<!--Generator: Apple Native CoreSVG 360-->
<!DOCTYPE svg
PUBLIC "-//W3C//DTD SVG 1.1//EN"
       "http://www.w3.org/Graphics/SVG/1.1/DTD/svg11.dtd">
<svg version="1.1" xmlns="http://www.w3.org/2000/svg" xmlns:xlink="http://www.w3.org/1999/xlink" viewBox="0 0 15.4102 24.832">
 <g>
  <rect height="24.832" opacity="0" width="15.4102" x="0" y="0"/>
  <path d="M13.1719 15.2888L4.08482 22.9219L3.43359 22.9219C3.11593 22.9219 2.84355 22.8682 2.62041 22.7643L13.1719 13.9058ZM13.1719 19.7654L9.41664 22.9219L7.75285 22.9219L13.1719 18.3707ZM13.1719 10.8319L1.88672 20.3119L1.88672 18.906L13.1719 9.43709ZM13.1719 6.36704L1.88672 15.847L1.88672 14.4411L13.1719 4.97225ZM12.7549 2.25188L1.88672 11.3727L1.88672 9.97738L11.506 1.88672L11.6367 1.88672C12.1179 1.88672 12.4955 2.01273 12.7549 2.25188ZM1.88672 6.90783L1.88672 5.50236L6.2054 1.88672L7.87021 1.88672Z" fill="black" fill-opacity="0.85"/>
  <path d="M0 21.7617C0 23.5898 1.27734 24.8086 3.1875 24.8086L11.8711 24.8086C13.7812 24.8086 15.0586 23.5898 15.0586 21.7617L15.0586 3.04688C15.0586 1.21875 13.7812 0 11.8711 0L3.1875 0C1.27734 0 0 1.21875 0 3.04688ZM1.88672 21.457L1.88672 3.35156C1.88672 2.41406 2.4375 1.88672 3.43359 1.88672L11.6367 1.88672C12.6211 1.88672 13.1719 2.41406 13.1719 3.35156L13.1719 21.457C13.1719 22.3945 12.6211 22.9219 11.6367 22.9219L3.43359 22.9219C2.4375 22.9219 1.88672 22.3945 1.88672 21.457Z" fill="black" fill-opacity="0.85"/>
 </g>
</svg>
