<?xml version="1.0" encoding="UTF-8"?>
<!--Generator: Apple Native CoreSVG 360-->
<!DOCTYPE svg
PUBLIC "-//W3C//DTD SVG 1.1//EN"
       "http://www.w3.org/Graphics/SVG/1.1/DTD/svg11.dtd">
<svg version="1.1" xmlns="http://www.w3.org/2000/svg" xmlns:xlink="http://www.w3.org/1999/xlink" viewBox="0 0 28.9805 24.832">
 <g>
  <rect height="24.832" opacity="0" width="28.9805" x="0" y="0"/>
  <path d="M21.8438 3.04688L21.8437 9.26953L19.957 9.26953L19.957 3.35156C19.957 2.41406 19.4062 1.88672 18.4219 1.88672L10.2188 1.88672C9.22266 1.88672 8.67188 2.41406 8.67188 3.35156L8.67188 21.457C8.67188 22.3945 9.22266 22.9219 10.2188 22.9219L18.4219 22.9219C19.4062 22.9219 19.957 22.3945 19.957 21.457L19.957 15.5273L21.8437 15.5273L21.8438 21.7617C21.8438 23.5898 20.5664 24.8086 18.6562 24.8086L9.97266 24.8086C8.0625 24.8086 6.78516 23.5898 6.78516 21.7617L6.78516 3.04688C6.78516 1.21875 8.0625 0 9.97266 0L18.6562 0C20.5664 0 21.8438 1.21875 21.8438 3.04688Z" fill="black" fill-opacity="0.85"/>
  <path d="M23.4961 8.42578C23.4961 8.64844 23.5898 8.90625 23.7773 9.07031L25.7109 10.875L27.3281 12.3984L25.7109 13.9102L23.7773 15.7266C23.5898 15.8906 23.4961 16.1367 23.4961 16.3594C23.4961 16.8398 23.8477 17.2148 24.3281 17.2148C24.5742 17.2148 24.7617 17.1094 24.9375 16.9336L28.6641 13.0781C28.8984 12.8438 28.9805 12.6328 28.9805 12.3984C28.9805 12.1523 28.8984 11.9531 28.6641 11.7188L24.9375 7.85156C24.7617 7.67578 24.5742 7.58203 24.3281 7.58203C23.8477 7.58203 23.4961 7.93359 23.4961 8.42578ZM14.3438 12.3984C14.3438 12.9023 14.7656 13.3242 15.2578 13.3242L24.6562 13.3242L27.8086 13.1836C28.2422 13.1602 28.5938 12.832 28.5938 12.3984C28.5938 11.9648 28.2422 11.6367 27.8086 11.6133L24.6562 11.4609L15.2578 11.4609C14.7656 11.4609 14.3438 11.8945 14.3438 12.3984Z" fill="black" fill-opacity="0.85"/>
 </g>
</svg>
