<?xml version="1.0" encoding="UTF-8"?>
<!--Generator: Apple Native CoreSVG 360-->
<!DOCTYPE svg
PUBLIC "-//W3C//DTD SVG 1.1//EN"
       "http://www.w3.org/Graphics/SVG/1.1/DTD/svg11.dtd">
<svg version="1.1" xmlns="http://www.w3.org/2000/svg" xmlns:xlink="http://www.w3.org/1999/xlink" viewBox="0 0 23.5547 25.207">
 <g>
  <rect height="25.207" opacity="0" width="23.5547" x="0" y="0"/>
  <path d="M1.60547 3.02344L1.60547 22.1602C1.60547 23.4987 2.32004 24.5825 3.41564 24.9961L3.1875 24.9961C1.27734 24.9961 0 23.7773 0 21.9492L0 3.23438C0 1.40625 1.27734 0.1875 3.1875 0.1875L3.41564 0.1875C2.32004 0.601133 1.60547 1.68494 1.60547 3.02344Z" fill="black" fill-opacity="0.85"/>
  <path d="M5.61328 3.02344L5.61328 22.1602C5.61328 23.4987 6.32785 24.5825 7.42345 24.9961L7.19531 24.9961C5.28516 24.9961 4.00781 23.7773 4.00781 21.9492L4.00781 3.23438C4.00781 1.40625 5.28516 0.1875 7.19531 0.1875L7.42345 0.1875C6.32785 0.601133 5.61328 1.68494 5.61328 3.02344Z" fill="black" fill-opacity="0.85"/>
  <path d="M11.332 24.9961L20.0156 24.9961C21.9258 24.9961 23.2031 23.7773 23.2031 21.9492L23.2031 3.23438C23.2031 1.40625 21.9258 0.1875 20.0156 0.1875L11.332 0.1875C9.42188 0.1875 8.14453 1.40625 8.14453 3.23438L8.14453 21.9492C8.14453 23.7773 9.42188 24.9961 11.332 24.9961ZM11.5664 23.1094C10.582 23.1094 10.0312 22.582 10.0312 21.6445L10.0312 3.53906C10.0312 2.60156 10.582 2.07422 11.5664 2.07422L19.7695 2.07422C20.7656 2.07422 21.3164 2.60156 21.3164 3.53906L21.3164 21.6445C21.3164 22.582 20.7656 23.1094 19.7695 23.1094ZM13.1836 22.2539L18.1641 22.2539C18.4805 22.2539 18.7148 22.0312 18.7148 21.7031C18.7148 21.375 18.4805 21.1641 18.1641 21.1641L13.1836 21.1641C12.8672 21.1641 12.6445 21.375 12.6445 21.7031C12.6445 22.0312 12.8672 22.2539 13.1836 22.2539ZM14.2617 4.55859L17.0977 4.55859C17.5547 4.55859 17.918 4.19531 17.918 3.72656C17.918 3.26953 17.5547 2.90625 17.0977 2.90625L14.2617 2.90625C13.793 2.90625 13.4297 3.26953 13.4297 3.72656C13.4297 4.19531 13.793 4.55859 14.2617 4.55859Z" fill="black" fill-opacity="0.85"/>
 </g>
</svg>
