<?xml version="1.0" encoding="UTF-8"?>
<!--Generator: Apple Native CoreSVG 360-->
<!DOCTYPE svg
PUBLIC "-//W3C//DTD SVG 1.1//EN"
       "http://www.w3.org/Graphics/SVG/1.1/DTD/svg11.dtd">
<svg version="1.1" xmlns="http://www.w3.org/2000/svg" xmlns:xlink="http://www.w3.org/1999/xlink" viewBox="0 0 40.1133 24.832">
 <g>
  <rect height="24.832" opacity="0" width="40.1133" x="0" y="0"/>
  <path d="M15.5391 24.8086L24.2227 24.8086C26.1328 24.8086 27.4102 23.5898 27.4102 21.7617L27.4102 3.04688C27.4102 1.21875 26.1328 0 24.2227 0L15.5391 0C13.6289 0 12.3516 1.21875 12.3516 3.04688L12.3516 21.7617C12.3516 23.5898 13.6289 24.8086 15.5391 24.8086ZM15.7734 22.9219C14.7891 22.9219 14.2383 22.3945 14.2383 21.457L14.2383 3.35156C14.2383 2.41406 14.7891 1.88672 15.7734 1.88672L17.2852 1.88672C17.4727 1.88672 17.5664 1.98047 17.5664 2.15625L17.5664 2.42578C17.5664 2.91797 17.8828 3.24609 18.375 3.24609L21.3984 3.24609C21.8906 3.24609 22.207 2.91797 22.207 2.42578L22.207 2.15625C22.207 1.98047 22.3008 1.88672 22.4883 1.88672L23.9766 1.88672C24.9727 1.88672 25.5234 2.41406 25.5234 3.35156L25.5234 21.457C25.5234 22.3945 24.9727 22.9219 23.9766 22.9219ZM17.4023 22.0664L22.3711 22.0664C22.6875 22.0664 22.9219 21.8438 22.9219 21.5156C22.9219 21.1875 22.6875 20.9766 22.3711 20.9766L17.4023 20.9766C17.0859 20.9766 16.8516 21.1875 16.8516 21.5156C16.8516 21.8438 17.0859 22.0664 17.4023 22.0664Z" fill="black" fill-opacity="0.85"/>
  <path d="M34.2422 4.98047C34.2422 4.06641 33.3164 3.75 32.707 4.30078L29.4375 7.19531C28.9922 7.58203 28.9922 8.13281 29.4375 8.51953L32.707 11.4023C33.3516 11.9766 34.2422 11.6016 34.2422 10.7344ZM38.8477 8.76562C39.3516 8.76562 39.7617 8.36719 39.7617 7.86328C39.7617 7.35938 39.3516 6.94922 38.8477 6.94922L32.1797 6.94922C31.6758 6.94922 31.2773 7.35938 31.2773 7.86328C31.2773 8.36719 31.6758 8.76562 32.1797 8.76562Z" fill="black" fill-opacity="0.85"/>
  <path d="M5.51953 4.98047L5.51953 10.7344C5.51953 11.6016 6.41016 11.9766 7.05469 11.4023L10.3242 8.51953C10.7578 8.13281 10.7695 7.58203 10.3242 7.19531L7.05469 4.30078C6.44531 3.75 5.51953 4.06641 5.51953 4.98047ZM0.902344 8.76562L7.57031 8.76562C8.07422 8.76562 8.48438 8.36719 8.48438 7.86328C8.48438 7.35938 8.07422 6.94922 7.57031 6.94922L0.902344 6.94922C0.398438 6.94922 0 7.35938 0 7.86328C0 8.36719 0.398438 8.76562 0.902344 8.76562Z" fill="black" fill-opacity="0.85"/>
 </g>
</svg>
