<?xml version="1.0" encoding="UTF-8"?>
<!--Generator: Apple Native CoreSVG 360-->
<!DOCTYPE svg
PUBLIC "-//W3C//DTD SVG 1.1//EN"
       "http://www.w3.org/Graphics/SVG/1.1/DTD/svg11.dtd">
<svg version="1.1" xmlns="http://www.w3.org/2000/svg" xmlns:xlink="http://www.w3.org/1999/xlink" viewBox="0 0 15.4102 24.832">
 <g>
  <rect height="24.832" opacity="0" width="15.4102" x="0" y="0"/>
  <path d="M13.1719 3.35156L13.1719 19.957C13.1719 20.9062 12.6211 21.3633 11.6367 21.3633L9.35156 21.3633L9.35156 20.9648C9.35156 20.4844 9.03516 20.1445 8.55469 20.1445L6.52734 20.1445C6.03516 20.1445 5.71875 20.4844 5.71875 20.9648L5.71875 21.3633L3.43359 21.3633C2.4375 21.3633 1.88672 20.8359 1.88672 19.8984L1.88672 3.35156C1.88672 2.41406 2.4375 1.88672 3.43359 1.88672L11.6367 1.88672C12.6211 1.88672 13.1719 2.41406 13.1719 3.35156Z" fill="black" fill-opacity="0.2125"/>
  <path d="M3.1875 24.8086L11.8711 24.8086C13.7812 24.8086 15.0586 23.5898 15.0586 21.7617L15.0586 3.04688C15.0586 1.21875 13.7812 0 11.8711 0L3.1875 0C1.27734 0 0 1.21875 0 3.04688L0 21.7617C0 23.5898 1.27734 24.8086 3.1875 24.8086ZM3.43359 21.3633C2.4375 21.3633 1.88672 20.8359 1.88672 19.8984L1.88672 3.35156C1.88672 2.41406 2.4375 1.88672 3.43359 1.88672L11.6367 1.88672C12.6211 1.88672 13.1719 2.41406 13.1719 3.35156L13.1719 19.957C13.1719 20.9062 12.6211 21.3633 11.6367 21.3633ZM5.71875 21.6328L9.35156 21.6328L9.35156 20.9648C9.35156 20.4844 9.03516 20.1445 8.55469 20.1445L6.52734 20.1445C6.03516 20.1445 5.71875 20.4844 5.71875 20.9648Z" fill="black" fill-opacity="0.85"/>
 </g>
</svg>
