<?xml version="1.0" encoding="UTF-8"?>
<!--Generator: Apple Native CoreSVG 360-->
<!DOCTYPE svg
PUBLIC "-//W3C//DTD SVG 1.1//EN"
       "http://www.w3.org/Graphics/SVG/1.1/DTD/svg11.dtd">
<svg version="1.1" xmlns="http://www.w3.org/2000/svg" xmlns:xlink="http://www.w3.org/1999/xlink" viewBox="0 0 23.6484 27.9961">
 <g>
  <rect height="27.9961" opacity="0" width="23.6484" x="0" y="0"/>
  <path d="M15.457 4.62891L15.457 6.75L14.3438 6.75C14.0764 6.75 13.8165 6.78213 13.5703 6.84783L13.5703 5.55469L2.27344 5.55469L2.27344 22.4297L9.23877 22.4297C9.63441 23.7168 10.4774 24.5331 11.3203 24.9844C11.3789 25.0078 11.3789 25.0078 11.4141 25.1367L11.6836 26.0273C11.7234 26.1598 11.77 26.2854 11.8244 26.4023L3.57422 26.4023C1.66406 26.4023 0.386719 25.1836 0.386719 23.3555L0.386719 4.62891C0.386719 2.80078 1.66406 1.58203 3.57422 1.58203L12.2695 1.58203C14.1797 1.58203 15.457 2.80078 15.457 4.62891ZM6.91406 24.2227C6.91406 24.7852 7.37109 25.2422 7.93359 25.2422C8.49609 25.2422 8.94141 24.7852 8.94141 24.2227C8.94141 23.6719 8.49609 23.2148 7.93359 23.2148C7.37109 23.2148 6.91406 23.6719 6.91406 24.2227ZM7.24219 3.55078C7.24219 3.9375 7.54688 4.25391 7.93359 4.25391C8.32031 4.25391 8.61328 3.9375 8.61328 3.55078C8.61328 3.17578 8.32031 2.87109 7.93359 2.87109C7.54688 2.87109 7.24219 3.17578 7.24219 3.55078Z" fill="black" fill-opacity="0.85"/>
  <path d="M14.3438 26.3906L18.2812 26.3906C18.7852 26.3906 19.2188 26.1914 19.418 25.5586L19.6875 24.668C19.8516 24.1523 20.0859 23.8242 20.5547 23.5781C21.4102 23.1328 22.043 22.2305 22.043 20.7773L22.043 13.9688C22.043 12.5156 21.4219 11.6367 20.5547 11.168C20.0859 10.9102 19.8516 10.5938 19.6875 10.0781L19.418 9.16406C19.2422 8.55469 18.7852 8.34375 18.2812 8.34375L14.3438 8.34375C13.8398 8.34375 13.3945 8.55469 13.2188 9.16406L12.9375 10.0781C12.7734 10.6289 12.5156 10.9336 12.0703 11.168C11.2266 11.6133 10.5938 12.5156 10.5938 13.9688L10.5938 20.7773C10.5938 22.2305 11.2148 23.1211 12.0703 23.5781C12.5273 23.8242 12.7852 24.1406 12.9375 24.668L13.2188 25.5586C13.4062 26.1914 13.8398 26.3906 14.3438 26.3906ZM13.875 22.4297C12.6914 22.4297 12 21.7266 12 20.5078L12 14.2266C12 13.0078 12.6914 12.3047 13.875 12.3047L18.7617 12.3047C19.957 12.3047 20.6367 13.0078 20.6367 14.2266L20.6367 20.5078C20.6367 21.7266 19.957 22.4297 18.7617 22.4297ZM21.8086 16.7695L22.1602 16.7695C22.6055 16.7695 22.8984 16.4414 22.8984 15.9609L22.8984 14.8125C22.8984 14.332 22.6055 14.0273 22.1602 14.0273L21.8086 14.0273Z" fill="black" fill-opacity="0.85"/>
 </g>
</svg>
