<?xml version="1.0" encoding="UTF-8"?>
<!--Generator: Apple Native CoreSVG 360-->
<!DOCTYPE svg
PUBLIC "-//W3C//DTD SVG 1.1//EN"
       "http://www.w3.org/Graphics/SVG/1.1/DTD/svg11.dtd">
<svg version="1.1" xmlns="http://www.w3.org/2000/svg" xmlns:xlink="http://www.w3.org/1999/xlink" viewBox="0 0 15.4102 24.832">
 <g>
  <rect height="24.832" opacity="0" width="15.4102" x="0" y="0"/>
  <path d="M1.88672 20.8477L1.88672 3.97266L13.1719 3.97266L13.1719 20.8477ZM7.54688 23.6602C6.98438 23.6602 6.52734 23.2031 6.52734 22.6406C6.52734 22.0898 6.98438 21.6328 7.54688 21.6328C8.09766 21.6328 8.55469 22.0898 8.55469 22.6406C8.55469 23.2031 8.09766 23.6602 7.54688 23.6602ZM7.54688 2.67188C7.16016 2.67188 6.84375 2.35547 6.84375 1.96875C6.84375 1.59375 7.16016 1.28906 7.54688 1.28906C7.92188 1.28906 8.22656 1.59375 8.22656 1.96875C8.22656 2.35547 7.92188 2.67188 7.54688 2.67188Z" fill="black" fill-opacity="0.2125"/>
  <path d="M0 21.7734C0 23.6016 1.27734 24.8203 3.1875 24.8203L11.8711 24.8203C13.7812 24.8203 15.0586 23.6016 15.0586 21.7734L15.0586 3.04688C15.0586 1.21875 13.7812 0 11.8711 0L3.1875 0C1.27734 0 0 1.21875 0 3.04688ZM1.88672 20.8477L1.88672 3.97266L13.1719 3.97266L13.1719 20.8477ZM7.54688 23.6602C6.98438 23.6602 6.52734 23.2031 6.52734 22.6406C6.52734 22.0898 6.98438 21.6328 7.54688 21.6328C8.09766 21.6328 8.55469 22.0898 8.55469 22.6406C8.55469 23.2031 8.09766 23.6602 7.54688 23.6602ZM7.54688 2.67188C7.16016 2.67188 6.84375 2.35547 6.84375 1.96875C6.84375 1.59375 7.16016 1.28906 7.54688 1.28906C7.92188 1.28906 8.22656 1.59375 8.22656 1.96875C8.22656 2.35547 7.92188 2.67188 7.54688 2.67188Z" fill="black" fill-opacity="0.85"/>
 </g>
</svg>
