<?xml version="1.0" encoding="UTF-8"?>
<!--Generator: Apple Native CoreSVG 360-->
<!DOCTYPE svg
PUBLIC "-//W3C//DTD SVG 1.1//EN"
       "http://www.w3.org/Graphics/SVG/1.1/DTD/svg11.dtd">
<svg version="1.1" xmlns="http://www.w3.org/2000/svg" xmlns:xlink="http://www.w3.org/1999/xlink" viewBox="0 0 12.8438 24.832">
 <g>
  <rect height="24.832" opacity="0" width="12.8438" x="0" y="0"/>
  <path d="M3.1875 24.8203L9.30469 24.8203C11.2617 24.8203 12.4922 23.6367 12.4922 21.7734L12.4922 3.04688C12.4922 1.18359 11.2617 0 9.30469 0L3.1875 0C1.23047 0 0 1.18359 0 3.04688L0 21.7734C0 23.6367 1.23047 24.8203 3.1875 24.8203ZM3.43359 22.9336C2.44922 22.9336 1.88672 22.3945 1.88672 21.4688L1.88672 3.35156C1.88672 2.42578 2.44922 1.88672 3.43359 1.88672L9.07031 1.88672C10.043 1.88672 10.6055 2.42578 10.6055 3.35156L10.6055 21.4688C10.6055 22.3945 10.043 22.9336 9.07031 22.9336Z" fill="black" fill-opacity="0.85"/>
 </g>
</svg>
