<?xml version="1.0" encoding="UTF-8"?>
<!--Generator: Apple Native CoreSVG 360-->
<!DOCTYPE svg
PUBLIC "-//W3C//DTD SVG 1.1//EN"
       "http://www.w3.org/Graphics/SVG/1.1/DTD/svg11.dtd">
<svg version="1.1" xmlns="http://www.w3.org/2000/svg" xmlns:xlink="http://www.w3.org/1999/xlink" viewBox="0 0 12.4922 16.7695">
 <g>
  <rect height="16.7695" opacity="0" width="12.4922" x="0" y="0"/>
  <path d="M0.9375 16.7578L8.34375 16.7578C8.89453 16.7578 9.29297 16.418 9.29297 15.8672C9.29297 15.3398 8.90625 15 8.35547 15L5.73047 15L8.57812 1.75781L11.2031 1.75781C11.7539 1.75781 12.1406 1.41797 12.1406 0.867188C12.1406 0.339844 11.7656 0 11.2148 0L3.77344 0C3.22266 0 2.84766 0.339844 2.84766 0.867188C2.84766 1.41797 3.23438 1.75781 3.78516 1.75781L6.41016 1.75781L3.5625 15L0.925781 15C0.375 15 0 15.3398 0 15.8672C0 16.418 0.386719 16.7578 0.9375 16.7578Z" fill="black" fill-opacity="0.85"/>
 </g>
</svg>
