<?xml version="1.0" encoding="UTF-8"?>
<!--Generator: Apple Native CoreSVG 360-->
<!DOCTYPE svg
PUBLIC "-//W3C//DTD SVG 1.1//EN"
       "http://www.w3.org/Graphics/SVG/1.1/DTD/svg11.dtd">
<svg version="1.1" xmlns="http://www.w3.org/2000/svg" xmlns:xlink="http://www.w3.org/1999/xlink" viewBox="0 0 17.7188 31.1133">
 <g>
  <rect height="31.1133" opacity="0" width="17.7188" x="0" y="0"/>
  <path d="M11.0391 2.34375L11.0391 2.4375L14.1328 2.4375C16.1836 2.4375 17.3672 3.64453 17.3672 5.73047L17.3672 22.4648C17.3672 24.5391 16.1836 25.7578 14.1328 25.7578L9.375 25.7578L9.375 27.293C9.375 28.6406 10.0664 29.2031 11.4141 29.2031L16.5234 29.2031C16.9922 29.2031 17.3672 29.5898 17.3672 30.0703C17.3672 30.5391 16.9922 30.9141 16.5234 30.9141L11.4141 30.9141C9.11719 30.9141 7.66406 29.5898 7.66406 27.293L7.66406 25.7578L3.23438 25.7578C1.18359 25.7578 0 24.5391 0 22.4648L0 5.73047C0 3.64453 1.18359 2.4375 3.23438 2.4375L6.32812 2.4375L6.32812 2.34375C6.32812 0.960938 7.27734 0.0117188 8.68359 0C10.0898 0.0117188 11.0391 0.960938 11.0391 2.34375ZM3.32812 4.38281C2.44922 4.38281 1.95703 4.88672 1.95703 5.75391L1.95703 22.4414C1.95703 23.3086 2.44922 23.8125 3.32812 23.8125L14.0391 23.8125C14.918 23.8125 15.4102 23.3086 15.4102 22.4414L15.4102 5.75391C15.4102 4.88672 14.918 4.38281 14.0391 4.38281ZM7.82812 2.36719C7.82812 2.84766 8.20312 3.23438 8.68359 3.23438C9.16406 3.23438 9.53906 2.84766 9.53906 2.36719C9.53906 1.89844 9.16406 1.51172 8.68359 1.51172C8.20312 1.51172 7.82812 1.89844 7.82812 2.36719Z" fill="black" fill-opacity="0.85"/>
  <path d="M13.7812 8.37891L13.7812 21C13.7812 21.7031 13.3125 22.1602 12.5977 22.1602L4.79297 22.1602C4.07812 22.1602 3.60938 21.7031 3.60938 21L3.60938 8.37891C3.60938 7.67578 4.07812 7.21875 4.79297 7.21875L12.5977 7.21875C13.3125 7.21875 13.7812 7.67578 13.7812 8.37891ZM7.24219 18.7148C6.89062 18.7148 6.66797 18.9727 6.66797 19.3008C6.66797 19.6172 6.89062 19.8633 7.24219 19.8633L10.1484 19.8633C10.4883 19.8633 10.7227 19.6172 10.7227 19.3008C10.7227 18.9727 10.4883 18.7148 10.1484 18.7148ZM6.35156 16.2656C6 16.2656 5.76562 16.5234 5.76562 16.8398C5.76562 17.168 6 17.4141 6.35156 17.4141L11.0742 17.4141C11.4023 17.4141 11.6484 17.168 11.6484 16.8398C11.6484 16.5234 11.4023 16.2656 11.0742 16.2656ZM8.35547 9.43359L7.40625 11.1914C7.125 11.6953 6.83203 12.2578 6.83203 12.8203C6.83203 13.8516 7.67578 14.6367 8.68359 14.6367C9.70312 14.6367 10.5352 13.8516 10.5352 12.8203C10.5352 12.2578 10.2422 11.6953 9.96094 11.1914L9.01172 9.43359C8.8125 9.04688 8.55469 9.05859 8.35547 9.43359Z" fill="black" fill-opacity="0.85"/>
 </g>
</svg>
