<?xml version="1.0" encoding="UTF-8"?>
<!--Generator: Apple Native CoreSVG 360-->
<!DOCTYPE svg
PUBLIC "-//W3C//DTD SVG 1.1//EN"
       "http://www.w3.org/Graphics/SVG/1.1/DTD/svg11.dtd">
<svg version="1.1" xmlns="http://www.w3.org/2000/svg" xmlns:xlink="http://www.w3.org/1999/xlink" viewBox="0 0 24.2578 23.918">
 <g>
  <rect height="23.918" opacity="0" width="24.2578" x="0" y="0"/>
  <path d="M11.9531 23.9062C18.5508 23.9062 23.9062 18.5508 23.9062 11.9531C23.9062 5.35547 18.5508 0 11.9531 0C5.35547 0 0 5.35547 0 11.9531C0 18.5508 5.35547 23.9062 11.9531 23.9062ZM11.9531 21.9141C6.44531 21.9141 1.99219 17.4609 1.99219 11.9531C1.99219 6.44531 6.44531 1.99219 11.9531 1.99219C17.4609 1.99219 21.9141 6.44531 21.9141 11.9531C21.9141 17.4609 17.4609 21.9141 11.9531 21.9141Z" fill="black" fill-opacity="0.85"/>
  <path d="M11.3789 17.4375C13.6758 17.4375 14.918 16.207 14.918 13.9805L14.918 7.41797C14.918 6.77344 14.5781 6.36328 13.9688 6.36328C13.3711 6.36328 13.043 6.79688 13.043 7.41797L13.043 13.957C13.043 15.1289 12.4453 15.832 11.4727 15.832C10.5938 15.832 9.99609 15.3984 9.71484 14.6367C9.51562 14.1914 9.25781 14.0039 8.85938 14.0039C8.34375 14.0039 7.99219 14.3672 7.99219 14.8711C7.99219 15.0703 8.02734 15.2461 8.08594 15.4219C8.49609 16.6406 9.76172 17.4375 11.3789 17.4375Z" fill="black" fill-opacity="0.85"/>
 </g>
</svg>
