<?xml version="1.0" encoding="UTF-8"?>
<!--Generator: Apple Native CoreSVG 360-->
<!DOCTYPE svg
PUBLIC "-//W3C//DTD SVG 1.1//EN"
       "http://www.w3.org/Graphics/SVG/1.1/DTD/svg11.dtd">
<svg version="1.1" xmlns="http://www.w3.org/2000/svg" xmlns:xlink="http://www.w3.org/1999/xlink" viewBox="0 0 21.9258 21.5742">
 <g>
  <rect height="21.5742" opacity="0" width="21.9258" x="0" y="0"/>
  <path d="M3.67969 21.5742L17.8945 21.5742C20.3555 21.5742 21.5742 20.3672 21.5742 17.9531L21.5742 3.63281C21.5742 1.21875 20.3555 0 17.8945 0L3.67969 0C1.23047 0 0 1.21875 0 3.63281L0 17.9531C0 20.3672 1.23047 21.5742 3.67969 21.5742ZM3.70312 19.6875C2.53125 19.6875 1.88672 19.0664 1.88672 17.8477L1.88672 3.73828C1.88672 2.51953 2.53125 1.88672 3.70312 1.88672L17.8711 1.88672C19.0312 1.88672 19.6875 2.51953 19.6875 3.73828L19.6875 17.8477C19.6875 19.0664 19.0312 19.6875 17.8711 19.6875Z" fill="black" fill-opacity="0.85"/>
  <path d="M10.2305 16.2773C12.5273 16.2773 13.7695 15.0469 13.7695 12.8203L13.7695 6.25781C13.7695 5.61328 13.4414 5.20312 12.8203 5.20312C12.2227 5.20312 11.8945 5.63672 11.8945 6.25781L11.8945 12.7969C11.8945 13.9688 11.2969 14.6719 10.3242 14.6719C9.44531 14.6719 8.85938 14.2383 8.56641 13.4766C8.36719 13.0312 8.10938 12.8438 7.71094 12.8438C7.19531 12.8438 6.84375 13.207 6.84375 13.7109C6.84375 13.9102 6.87891 14.0859 6.9375 14.2617C7.34766 15.4805 8.61328 16.2773 10.2305 16.2773Z" fill="black" fill-opacity="0.85"/>
 </g>
</svg>
