<?xml version="1.0" encoding="UTF-8"?>
<!--Generator: Apple Native CoreSVG 360-->
<!DOCTYPE svg
PUBLIC "-//W3C//DTD SVG 1.1//EN"
       "http://www.w3.org/Graphics/SVG/1.1/DTD/svg11.dtd">
<svg version="1.1" xmlns="http://www.w3.org/2000/svg" xmlns:xlink="http://www.w3.org/1999/xlink" viewBox="0 0 34.2077 26.4258">
 <g>
  <rect height="26.4258" opacity="0" width="34.2077" x="0" y="0"/>
  <path d="M10.266 26.0156L23.5902 26.0156C25.6761 26.0156 27.1058 24.6094 26.9183 22.5703L26.6019 19.2188L26.6136 18.1523L25.7816 13.4766C25.7347 13.207 25.5589 13.0664 25.3597 13.0664C25.1136 13.0664 24.9379 13.2773 24.9496 13.5703L25.266 22.5C25.3011 23.4844 24.6214 24.1758 23.6136 24.1758L10.2543 24.1758C9.23473 24.1758 8.56676 23.4844 8.5902 22.5L8.9066 13.5703C8.91832 13.2773 8.75426 13.0664 8.50817 13.0664C8.29723 13.0664 8.12145 13.207 8.07457 13.4766L7.25426 18.1523L7.26598 19.2188L6.93785 22.5703C6.76207 24.6094 8.19176 26.0156 10.266 26.0156ZM4.9691 26.0742C6.17613 26.4258 7.19567 26.2383 7.4652 25.043L8.32067 21.1758L7.52379 16.9219L5.89488 23.9414C5.82457 24.2461 5.62535 24.3047 5.37926 24.2461L2.27379 23.4258C1.94567 23.332 1.86363 23.1211 1.95738 22.7578L6.41051 6.49219C6.59801 5.80078 6.91442 5.32031 7.58238 5.08594L10.1722 4.17188L10.5707 2.17969L6.86754 3.58594C5.69567 4.03125 5.07457 4.73438 4.81676 5.68359L0.117541 22.4297C-0.234021 23.6836 0.199572 24.7266 1.4652 25.0781ZM16.0902 25.4062L17.7894 25.4062L17.7894 6.30469L16.0902 6.30469ZM28.8988 26.0742L32.4027 25.0781C33.6683 24.7266 34.0902 23.6836 33.7386 22.4297L29.0511 5.68359C28.7816 4.73438 28.1605 4.03125 26.9886 3.58594L23.2972 2.17969L23.6839 4.17188L26.2855 5.08594C26.9535 5.32031 27.2582 5.80078 27.4457 6.49219L31.8988 22.7578C32.0043 23.1211 31.9222 23.332 31.5824 23.4258L28.4769 24.2461C28.2425 24.3047 28.0433 24.2461 27.973 23.9414L26.3324 16.9219L25.5355 21.1758L26.4027 25.043C26.6605 26.2383 27.6918 26.4258 28.8988 26.0742ZM15.0355 8.42578L17.3089 5.96484L16.5707 5.96484L18.8441 8.42578C19.5824 9.23438 20.6488 9.10547 21.305 8.23828L24.3285 4.14844C24.6449 3.70312 24.7504 3.11719 24.3871 2.77734L22.0902 0.667969C21.6566 0.269531 21.3754 0 20.4261 0L13.4535 0C12.5043 0 12.223 0.269531 11.7894 0.667969L9.49254 2.77734C9.12926 3.11719 9.23473 3.70312 9.55113 4.14844L12.5746 8.23828C13.2308 9.10547 14.2972 9.23438 15.0355 8.42578ZM14.391 7.17188C14.1449 7.44141 13.7582 7.44141 13.5238 7.125L11.0746 3.84375C10.9339 3.64453 10.9222 3.375 11.1214 3.21094L12.8441 1.65234C13.0433 1.47656 13.3246 1.46484 13.5121 1.67578L16.1136 4.40625C16.3714 4.66406 16.3597 4.99219 16.1371 5.23828ZM19.5004 7.17188L17.7543 5.23828C17.5316 4.99219 17.5199 4.66406 17.7777 4.40625L20.391 1.67578C20.5785 1.46484 20.8597 1.46484 21.0589 1.65234L22.7699 3.21094C22.9691 3.38672 22.9808 3.63281 22.8168 3.84375L20.3793 7.125C20.1332 7.44141 19.7582 7.44141 19.5004 7.17188ZM11.6136 19.6875L13.9105 18.0234C14.2855 17.7422 14.3675 17.2383 14.098 16.8633C13.8285 16.5 13.3011 16.418 12.9379 16.6875L10.6527 18.3398C10.2777 18.6211 10.1957 19.125 10.4652 19.5C10.7347 19.875 11.2386 19.9688 11.6136 19.6875ZM22.2543 19.6875C22.6293 19.9688 23.1332 19.875 23.4144 19.5C23.6722 19.125 23.6019 18.6211 23.2152 18.3398L20.93 16.6875C20.5668 16.418 20.0394 16.5 19.7816 16.8633C19.5121 17.2383 19.5824 17.7422 19.9691 18.0234Z" fill="black" fill-opacity="0.85"/>
 </g>
</svg>
