<?xml version="1.0" encoding="UTF-8"?>
<!--Generator: Apple Native CoreSVG 360-->
<!DOCTYPE svg
PUBLIC "-//W3C//DTD SVG 1.1//EN"
       "http://www.w3.org/Graphics/SVG/1.1/DTD/svg11.dtd">
<svg version="1.1" xmlns="http://www.w3.org/2000/svg" xmlns:xlink="http://www.w3.org/1999/xlink" viewBox="0 0 33.4688 19.3008">
 <g>
  <rect height="19.3008" opacity="0" width="33.4688" x="0" y="0"/>
  <path d="M8.96484 16.5469L28.5703 16.5469C28.9336 16.5469 29.2383 16.2305 29.2383 15.8555C29.2383 15.4922 28.9336 15.1875 28.5703 15.1875L8.96484 15.1875C8.58984 15.1875 8.27344 15.4922 8.27344 15.8555C8.27344 16.2305 8.58984 16.5469 8.96484 16.5469ZM10.6758 18.1992L10.6758 13.5117C10.6758 12.7031 9.91406 12.4102 9.25781 12.9023L6.11719 15.2344C5.68359 15.5508 5.68359 16.1484 6.11719 16.4648L9.25781 18.8203C9.87891 19.2891 10.6758 19.043 10.6758 18.1992ZM26.8477 18.1992C26.8477 19.0195 27.6328 19.3125 28.2773 18.8203L31.418 16.4648C31.8516 16.1484 31.8398 15.5391 31.418 15.2344L28.2773 12.9023C27.6328 12.4102 26.8477 12.7031 26.8477 13.5117Z" fill="black" fill-opacity="0.85"/>
  <path d="M15.8086 8.90625L20.8711 8.90625C23.6133 8.90625 24.457 8.03906 25.5586 6.31641L26.168 5.15625C27.082 3.04688 27.8672 1.98047 29.2383 1.98047C30.6094 1.98047 31.5469 3.48047 31.5469 4.94531C31.5469 6.33984 30.7383 6.87891 29.4844 6.87891C27.6914 6.87891 26.1094 5.85938 25.4297 4.6875L24.7266 6.42188C25.3711 7.72266 27.1523 8.90625 29.3555 8.90625C31.6055 8.90625 33.1172 7.51172 33.1172 4.92188C33.1172 2.47266 31.6172 0 29.4141 0C27.7617 0 26.6367 1.01953 25.6406 3L24.9727 4.3125C24.1641 5.92969 23.3906 6.82031 21.1289 6.82031L16.0664 6.82031C13.2422 6.82031 12.668 5.8125 12.1172 3.89062C11.543 1.95703 10.4297 0 8.36719 0C5.85938 0 4.27734 2.73047 3.78516 5.50781L5.21484 5.92969C5.71875 3.44531 6.94922 1.98047 8.25 1.98047C9.62109 1.98047 10.3828 3.35156 10.5938 4.54688C10.8633 6.22266 9.78516 6.92578 8.55469 6.92578C6.92578 6.92578 5.50781 6.03516 4.92188 4.88672L3.83203 6.38672C4.46484 7.64062 6.12891 8.90625 8.35547 8.90625C10.4297 8.90625 11.9883 7.71094 11.8242 5.39062L11.2266 5.71875C11.6133 7.58203 12.8086 8.90625 15.8086 8.90625ZM0.84375 17.3672C1.3125 17.3672 1.65234 17.0156 1.65234 16.5234L1.65234 8.67188C1.65234 7.34766 2.10938 7.14844 3.21094 6.98438L5.12109 6.69141L4.69922 4.85156L3.10547 5.13281C0.972656 5.48438 0 6.1875 0 8.67188L0.0117188 16.5352C0.0117188 17.0273 0.363281 17.3672 0.84375 17.3672Z" fill="black" fill-opacity="0.85"/>
 </g>
</svg>
