<?xml version="1.0" encoding="UTF-8"?>
<!--Generator: Apple Native CoreSVG 360-->
<!DOCTYPE svg
PUBLIC "-//W3C//DTD SVG 1.1//EN"
       "http://www.w3.org/Graphics/SVG/1.1/DTD/svg11.dtd">
<svg version="1.1" xmlns="http://www.w3.org/2000/svg" xmlns:xlink="http://www.w3.org/1999/xlink" viewBox="0 0 29.5557 15.6914">
 <g>
  <rect height="15.6914" opacity="0" width="29.5557" x="0" y="0"/>
  <path d="M0.340363 7.03125C-0.0815121 7.51172-0.140106 8.19141 0.328644 8.64844L3.93802 12.2695C4.40677 12.7383 5.12161 12.7148 5.56693 12.2578L7.37161 10.4531L10.0201 13.0898C10.4654 13.5469 11.1802 13.5352 11.6372 13.0781L14.1099 10.6289C15.6451 13.8516 18.2818 15.668 21.3872 15.668C25.7232 15.668 29.2036 12.1758 29.2036 7.83984C29.2036 3.49219 25.7349 0 21.3872 0C18.2583 0 15.4576 1.80469 14.2154 4.65234L3.14114 4.65234C2.75443 4.65234 2.30911 4.76953 2.01614 5.12109ZM2.18021 7.83984L3.48099 6.55078L15.563 6.55078C16.1958 3.78516 18.563 1.875 21.3872 1.875C24.6685 1.875 27.3169 4.53516 27.3169 7.83984C27.3169 11.1328 24.6802 13.7812 21.3872 13.7812C18.5982 13.7812 16.1958 11.8594 15.4927 8.91797L13.1138 8.91797L10.8169 11.2148L8.35599 8.73047L6.42239 8.73047L4.77005 10.3945ZM21.7388 7.83984C21.7388 8.89453 22.5943 9.75 23.649 9.75C24.7036 9.75 25.5474 8.89453 25.5474 7.83984C25.5474 6.77344 24.7036 5.94141 23.649 5.94141C22.5943 5.94141 21.7388 6.78516 21.7388 7.83984Z" fill="black" fill-opacity="0.85"/>
 </g>
</svg>
