<?xml version="1.0" encoding="UTF-8"?>
<!--Generator: Apple Native CoreSVG 360-->
<!DOCTYPE svg
PUBLIC "-//W3C//DTD SVG 1.1//EN"
       "http://www.w3.org/Graphics/SVG/1.1/DTD/svg11.dtd">
<svg version="1.1" xmlns="http://www.w3.org/2000/svg" xmlns:xlink="http://www.w3.org/1999/xlink" viewBox="0 0 16.0195 29.3555">
 <g>
  <rect height="29.3555" opacity="0" width="16.0195" x="0" y="0"/>
  <path d="M7.01953 28.875C7.51172 29.2852 8.17969 29.3438 8.64844 28.8867L12.2695 25.2656C12.7266 24.7969 12.7031 24.0938 12.2578 23.6367L10.4414 21.832L13.0898 19.1953C13.5469 18.75 13.5234 18.0352 13.0781 17.5664L10.6289 15.1055C13.8516 13.5586 15.668 10.9336 15.668 7.81641C15.668 3.49219 12.1641 0 7.83984 0C3.48047 0 0 3.46875 0 7.81641C0 10.957 1.80469 13.7461 4.65234 15L4.65234 26.0625C4.65234 26.4492 4.76953 26.8945 5.10938 27.1992ZM7.83984 27.0234L6.53906 25.7344L6.53906 13.6406C3.78516 13.0195 1.875 10.6406 1.875 7.81641C1.875 4.53516 4.53516 1.88672 7.83984 1.88672C11.1328 1.88672 13.7812 4.53516 13.7812 7.81641C13.7812 10.6172 11.8594 13.0195 8.91797 13.7227L8.91797 16.0898L11.2148 18.3984L8.73047 20.8477L8.73047 22.793L10.3945 24.4336ZM7.83984 7.46484C8.88281 7.46484 9.73828 6.60938 9.73828 5.55469C9.73828 4.51172 8.88281 3.66797 7.83984 3.66797C6.77344 3.66797 5.94141 4.51172 5.94141 5.55469C5.94141 6.60938 6.78516 7.46484 7.83984 7.46484Z" fill="black" fill-opacity="0.85"/>
 </g>
</svg>
