<?xml version="1.0" encoding="UTF-8"?>
<!--Generator: Apple Native CoreSVG 360-->
<!DOCTYPE svg
PUBLIC "-//W3C//DTD SVG 1.1//EN"
       "http://www.w3.org/Graphics/SVG/1.1/DTD/svg11.dtd">
<svg version="1.1" xmlns="http://www.w3.org/2000/svg" xmlns:xlink="http://www.w3.org/1999/xlink" viewBox="0 0 27.5391 25.1367">
 <g>
  <rect height="25.1367" opacity="0" width="27.5391" x="0" y="0"/>
  <path d="M23.5195 20.6133C23.9531 20.9062 24.4922 20.8008 24.8086 20.3555C26.3086 18.293 27.1875 15.457 27.1875 12.5625C27.1875 9.66797 26.3203 6.80859 24.8086 4.76953C24.4922 4.32422 23.9531 4.21875 23.5195 4.51172C23.0859 4.80469 23.0156 5.35547 23.3555 5.83594C24.6328 7.64062 25.3711 10.0664 25.3711 12.5625C25.3711 15.0586 24.6094 17.4609 23.3555 19.2891C23.0273 19.7695 23.0859 20.3203 23.5195 20.6133Z" fill="black" fill-opacity="0.85"/>
  <path d="M19.1719 17.5547C19.5703 17.8242 20.1211 17.7422 20.4375 17.2852C21.3398 16.1016 21.8672 14.3555 21.8672 12.5625C21.8672 10.7695 21.3398 9.03516 20.4375 7.83984C20.1211 7.38281 19.5703 7.28906 19.1719 7.57031C18.7031 7.89844 18.6211 8.48438 18.9844 8.96484C19.6758 9.90234 20.0508 11.2031 20.0508 12.5625C20.0508 13.9219 19.6641 15.2109 18.9844 16.1602C18.6328 16.6523 18.7031 17.2148 19.1719 17.5547Z" fill="black" fill-opacity="0.85"/>
  <path d="M0 21.5742C0 23.4258 1.16016 25.125 3.98438 25.125L11.2383 25.125C14.0625 25.125 15.2227 23.4258 15.2227 21.5742L15.2227 3.5625C15.2227 1.71094 14.0625 0 11.2383 0L3.98438 0C1.16016 0 0 1.71094 0 3.5625ZM1.88672 21.5391L1.88672 3.59766C1.88672 2.88281 2.35547 1.88672 4.07812 1.88672L11.1445 1.88672C12.8672 1.88672 13.3359 2.88281 13.3359 3.59766L13.3359 21.5391C13.3359 22.2539 12.8672 23.2383 11.1445 23.2383L4.07812 23.2383C2.35547 23.2383 1.88672 22.2539 1.88672 21.5391ZM3.44531 4.69922L11.7773 4.69922C11.9414 4.69922 12.0703 4.55859 12.0703 4.39453L12.0703 4.00781C12.0703 3.53906 11.6836 3.15234 11.2266 3.15234L3.99609 3.15234C3.53906 3.15234 3.15234 3.53906 3.15234 4.00781L3.15234 4.39453C3.15234 4.55859 3.28125 4.69922 3.44531 4.69922ZM7.62891 7.89844C5.71875 7.89844 4.20703 9.41016 4.20703 11.2969C4.20703 12.7031 5.03906 13.957 6.35156 14.4727L6.35156 19.582C6.35156 19.7344 6.39844 19.8516 6.51562 19.9688L7.38281 20.8477C7.48828 20.9531 7.71094 20.9766 7.85156 20.8477L9.51562 19.1953C9.66797 19.0547 9.65625 18.8555 9.51562 18.7031L8.54297 17.7539L9.89062 16.3945C10.0195 16.2656 10.0195 16.0664 9.89062 15.9258L8.56641 14.5898C10.1367 13.9336 11.0273 12.7266 11.0273 11.2969C11.0273 9.42188 9.50391 7.89844 7.62891 7.89844ZM7.61719 11.1562C7.07812 11.1562 6.65625 10.7227 6.65625 10.207C6.65625 9.67969 7.06641 9.25781 7.61719 9.25781C8.13281 9.25781 8.55469 9.67969 8.55469 10.207C8.55469 10.7227 8.13281 11.1562 7.61719 11.1562Z" fill="black" fill-opacity="0.85"/>
 </g>
</svg>
