<?xml version="1.0" encoding="UTF-8"?>
<!--Generator: Apple Native CoreSVG 360-->
<!DOCTYPE svg
PUBLIC "-//W3C//DTD SVG 1.1//EN"
       "http://www.w3.org/Graphics/SVG/1.1/DTD/svg11.dtd">
<svg version="1.1" xmlns="http://www.w3.org/2000/svg" xmlns:xlink="http://www.w3.org/1999/xlink" viewBox="0 0 22.3689 32.6836">
 <g>
  <rect height="32.6836" opacity="0" width="22.3689" x="0" y="0"/>
  <path d="M18.5966 32.4609C19.1474 32.6484 19.7333 32.5312 19.9911 31.9688L21.9247 27.7969C22.1708 27.2578 21.9364 26.6953 21.3974 26.4375L19.3231 25.4766L20.7528 22.4414C20.9872 21.9375 20.7646 21.3281 20.2372 21.082L17.413 19.7578C19.663 17.4727 20.4013 14.6953 19.4521 12.0586C18.1161 8.40234 14.0731 6.55078 10.4286 7.89844C6.76065 9.21094 4.89736 13.2188 6.22158 16.875C7.18252 19.5117 9.56143 21.3164 12.3505 21.4922L15.7489 30.8086C15.8661 31.1367 16.1005 31.5117 16.4872 31.6523ZM18.7138 30.6328L17.2606 29.9414L13.5458 19.7578C10.9794 20.0625 8.69424 18.6211 7.83877 16.2891C6.83096 13.5352 8.26065 10.4883 11.0146 9.48047C13.8036 8.46094 16.8388 9.90234 17.8231 12.6563C18.6903 15 17.7997 17.6133 15.5146 19.1484L16.2294 21.0938L18.913 22.3594L17.5771 25.1602L18.1864 26.8242L20.0731 27.7031ZM2.61221 32.1562L6.76065 30.2109C7.31143 29.9531 7.49893 29.3438 7.24111 28.8281L6.26846 26.7539L9.32705 25.3477C9.84268 25.1133 10.0419 24.5039 9.80752 23.9766L8.49502 21.1406C9.36221 21.0586 10.1942 20.8711 10.9325 20.5781L9.06924 19.418C8.57705 19.4883 8.07315 19.5 7.42861 19.4531L6.72549 21.4102L7.96768 24.1055L5.14346 25.3945L4.53408 27.0703L5.41299 28.9453L2.49502 30.3164L1.81533 28.8398L5.53018 18.668C3.37393 17.2734 2.53018 14.6602 3.38565 12.3398C4.33486 9.72656 7.10049 8.32031 9.73721 9.03516L12.0224 8.16797C11.6239 7.92188 11.2138 7.72266 10.7567 7.55859C7.10049 6.22266 3.09268 8.07422 1.76846 11.7422C0.795802 14.3789 1.48721 17.2969 3.49111 19.2305L0.104395 28.5352C-0.0127921 28.8867-0.0596671 29.2969 0.116114 29.6484L1.2294 31.6406C1.51065 32.1562 2.06143 32.4023 2.61221 32.1562ZM12.7255 14.1914C13.6278 13.8633 14.0731 12.8672 13.745 11.9883C13.4286 11.1094 12.4442 10.6523 11.5536 10.9688C10.663 11.2852 10.2294 12.2695 10.5458 13.1484C10.8739 14.0391 11.8349 14.5195 12.7255 14.1914ZM3.52627 6.84375C3.52627 7.66406 3.67861 8.47266 3.95986 9.19922L5.50674 8.56641C5.2958 8.02734 5.20205 7.45313 5.20205 6.84375C5.20205 3.97266 7.46377 1.67578 10.3231 1.67578C13.1825 1.67578 15.4911 3.97266 15.4911 6.84375C15.4911 9.29297 13.8036 11.3203 11.5302 11.8477L11.8466 13.5C14.8817 12.7969 17.1786 10.043 17.1786 6.84375C17.1786 3.09375 14.0849 3.55271e-15 10.3349 3.55271e-15C6.59658 3.55271e-15 3.52627 3.09375 3.52627 6.84375Z" fill="black" fill-opacity="0.85"/>
 </g>
</svg>
