<?xml version="1.0" encoding="UTF-8"?>
<!--Generator: Apple Native CoreSVG 360-->
<!DOCTYPE svg
PUBLIC "-//W3C//DTD SVG 1.1//EN"
       "http://www.w3.org/Graphics/SVG/1.1/DTD/svg11.dtd">
<svg version="1.1" xmlns="http://www.w3.org/2000/svg" xmlns:xlink="http://www.w3.org/1999/xlink" viewBox="0 0 41.918 19.0664">
 <g>
  <rect height="19.0664" opacity="0" width="41.918" x="0" y="0"/>
  <path d="M2.98828 16.3711L6.63281 16.3711L6.63281 14.4844L3.09375 14.4844C2.33203 14.4844 1.88672 13.9688 1.88672 13.0781L1.88672 11.2969C1.88672 9.19922 3.29297 8.01562 6.22266 7.64062L10.9922 7.04297L16.0781 3.87891C18.668 2.26172 20.2031 1.88672 24.7031 1.88672L33.8555 1.88672C35.8828 1.88672 37.0547 2.44922 38.0156 3.82031L38.543 4.58203C39.2578 5.61328 39.6797 6.87891 39.6797 7.99219L39.6797 13.1133C39.6797 14.0508 39.3164 14.4844 38.4844 14.4844L35.6016 14.4844L35.6016 16.3711L38.5898 16.3711C40.6406 16.3711 41.5664 15.3164 41.5664 12.9961L41.5664 7.99219C41.5664 6.52734 41.0273 4.85156 40.1016 3.51562L39.5742 2.74219C38.2266 0.785156 36.5742 0 33.8555 0L24.7031 0C19.875 0 17.9414 0.46875 15.0703 2.26172L10.3477 5.22656L5.97656 5.76562C1.98047 6.25781 0 8.08594 0 11.2969L0 13.3125C0 15.2227 1.125 16.3711 2.98828 16.3711ZM12.1289 16.3711L30.2109 16.3711L30.2109 14.4844L12.1289 14.4844ZM9.31641 19.043C11.5664 19.043 13.3242 17.2852 13.3242 15.0352C13.3242 12.7852 11.5664 11.0273 9.31641 11.0273C7.06641 11.0273 5.30859 12.7852 5.30859 15.0352C5.30859 17.2852 7.06641 19.043 9.31641 19.043ZM9.31641 17.1562C8.12109 17.1562 7.19531 16.2305 7.19531 15.0352C7.19531 13.8398 8.12109 12.9141 9.31641 12.9141C10.5117 12.9141 11.4375 13.8398 11.4375 15.0352C11.4375 16.2305 10.5117 17.1562 9.31641 17.1562ZM32.9883 19.043C35.2383 19.043 36.9961 17.2852 36.9961 15.0352C36.9961 12.7852 35.2383 11.0273 32.9883 11.0273C30.7383 11.0273 28.9805 12.7852 28.9805 15.0352C28.9805 17.2852 30.7383 19.043 32.9883 19.043ZM32.9883 17.1562C31.793 17.1562 30.8672 16.2305 30.8672 15.0352C30.8672 13.8398 31.793 12.9141 32.9883 12.9141C34.1836 12.9141 35.1094 13.8398 35.1094 15.0352C35.1094 16.2305 34.1836 17.1562 32.9883 17.1562Z" fill="black" fill-opacity="0.85"/>
  <path d="M29.0391 8.17969C29.0391 6.23438 27.4805 4.67578 25.5586 4.67578C24.0938 4.67578 22.8047 5.55469 22.2891 6.91406L16.8984 6.91406C16.7578 6.91406 16.6523 6.96094 16.5469 7.07812L15.6328 7.98047C15.5273 8.08594 15.5156 8.25 15.6328 8.36719L17.3438 10.1016C17.4727 10.2188 17.6367 10.2188 17.7422 10.1016L18.8086 9.02344L20.2852 10.5117C20.3789 10.6172 20.543 10.6055 20.6719 10.4883L22.1367 9.02344C22.8164 10.7227 24.0586 11.6602 25.5586 11.6602C27.4805 11.6602 29.0391 10.1016 29.0391 8.17969ZM27.3633 8.16797C27.3633 8.75391 26.8828 9.23438 26.2969 9.23438C25.6875 9.23438 25.2188 8.75391 25.2188 8.16797C25.2188 7.58203 25.6875 7.08984 26.2969 7.08984C26.8828 7.08984 27.3633 7.55859 27.3633 8.16797Z" fill="black" fill-opacity="0.85"/>
 </g>
</svg>
