<?xml version="1.0" encoding="UTF-8"?>
<!--Generator: Apple Native CoreSVG 360-->
<!DOCTYPE svg
PUBLIC "-//W3C//DTD SVG 1.1//EN"
       "http://www.w3.org/Graphics/SVG/1.1/DTD/svg11.dtd">
<svg version="1.1" xmlns="http://www.w3.org/2000/svg" xmlns:xlink="http://www.w3.org/1999/xlink" viewBox="0 0 29.8477 18.5273">
 <g>
  <rect height="18.5273" opacity="0" width="29.8477" x="0" y="0"/>
  <path d="M3.67969 18.5156L25.8164 18.5156C28.2539 18.5156 29.4961 17.2969 29.4961 14.8828L29.4961 3.62109C29.4961 1.21875 28.2539 0 25.8164 0L3.67969 0C1.21875 0 0 1.20703 0 3.62109L0 14.8828C0 17.2969 1.21875 18.5156 3.67969 18.5156ZM3.70312 16.6289C2.53125 16.6289 1.88672 15.9961 1.88672 14.7773L1.88672 3.72656C1.88672 2.50781 2.53125 1.88672 3.70312 1.88672L25.7812 1.88672C26.9414 1.88672 27.6094 2.50781 27.6094 3.72656L27.6094 14.7773C27.6094 15.9961 26.9414 16.6289 25.7812 16.6289Z" fill="black" fill-opacity="0.85"/>
  <path d="M4.61719 6.50391L5.48438 6.50391C5.68359 6.50391 5.8125 6.36328 5.8125 6.12891L5.8125 4.81641C5.8125 4.58203 5.68359 4.44141 5.48438 4.44141L4.61719 4.44141C4.40625 4.44141 4.26562 4.58203 4.26562 4.81641L4.26562 6.12891C4.26562 6.36328 4.40625 6.50391 4.61719 6.50391ZM7.19531 6.50391L8.05078 6.50391C8.26172 6.50391 8.39062 6.36328 8.39062 6.12891L8.39062 4.81641C8.39062 4.58203 8.26172 4.44141 8.05078 4.44141L7.19531 4.44141C6.97266 4.44141 6.84375 4.58203 6.84375 4.81641L6.84375 6.12891C6.84375 6.36328 6.97266 6.50391 7.19531 6.50391ZM9.76172 6.50391L10.6289 6.50391C10.8281 6.50391 10.957 6.36328 10.957 6.12891L10.957 4.81641C10.957 4.58203 10.8281 4.44141 10.6289 4.44141L9.76172 4.44141C9.55078 4.44141 9.41016 4.58203 9.41016 4.81641L9.41016 6.12891C9.41016 6.36328 9.55078 6.50391 9.76172 6.50391ZM12.3281 6.50391L13.1836 6.50391C13.3945 6.50391 13.5352 6.36328 13.5352 6.12891L13.5352 4.81641C13.5352 4.58203 13.3945 4.44141 13.1836 4.44141L12.3281 4.44141C12.1172 4.44141 11.9883 4.58203 11.9883 4.81641L11.9883 6.12891C11.9883 6.36328 12.1172 6.50391 12.3281 6.50391ZM14.8945 6.50391L15.7734 6.50391C15.9727 6.50391 16.1016 6.36328 16.1016 6.12891L16.1016 4.81641C16.1016 4.58203 15.9727 4.44141 15.7734 4.44141L14.8945 4.44141C14.6836 4.44141 14.5547 4.58203 14.5547 4.81641L14.5547 6.12891C14.5547 6.36328 14.6836 6.50391 14.8945 6.50391ZM17.4844 6.50391L18.3281 6.50391C18.5391 6.50391 18.6797 6.36328 18.6797 6.12891L18.6797 4.81641C18.6797 4.58203 18.5391 4.44141 18.3281 4.44141L17.4844 4.44141C17.2617 4.44141 17.1328 4.58203 17.1328 4.81641L17.1328 6.12891C17.1328 6.36328 17.2617 6.50391 17.4844 6.50391ZM4.61719 10.2656L5.48438 10.2656C5.68359 10.2656 5.8125 10.1367 5.8125 9.89062L5.8125 8.58984C5.8125 8.34375 5.68359 8.21484 5.48438 8.21484L4.61719 8.21484C4.40625 8.21484 4.26562 8.34375 4.26562 8.58984L4.26562 9.89062C4.26562 10.1367 4.40625 10.2656 4.61719 10.2656ZM7.19531 10.2656L8.05078 10.2656C8.26172 10.2656 8.39062 10.1367 8.39062 9.89062L8.39062 8.58984C8.39062 8.34375 8.26172 8.21484 8.05078 8.21484L7.19531 8.21484C6.97266 8.21484 6.84375 8.34375 6.84375 8.58984L6.84375 9.89062C6.84375 10.1367 6.97266 10.2656 7.19531 10.2656ZM9.76172 10.2656L10.6289 10.2656C10.8281 10.2656 10.957 10.1367 10.957 9.89062L10.957 8.58984C10.957 8.34375 10.8281 8.21484 10.6289 8.21484L9.76172 8.21484C9.55078 8.21484 9.41016 8.34375 9.41016 8.58984L9.41016 9.89062C9.41016 10.1367 9.55078 10.2656 9.76172 10.2656ZM12.3281 10.2656L13.1836 10.2656C13.3945 10.2656 13.5352 10.1367 13.5352 9.89062L13.5352 8.58984C13.5352 8.34375 13.3945 8.21484 13.1836 8.21484L12.3281 8.21484C12.1172 8.21484 11.9883 8.34375 11.9883 8.58984L11.9883 9.89062C11.9883 10.1367 12.1172 10.2656 12.3281 10.2656ZM14.8945 10.2656L15.7734 10.2656C15.9727 10.2656 16.1016 10.1367 16.1016 9.89062L16.1016 8.58984C16.1016 8.34375 15.9727 8.21484 15.7734 8.21484L14.8945 8.21484C14.6836 8.21484 14.5547 8.34375 14.5547 8.58984L14.5547 9.89062C14.5547 10.1367 14.6836 10.2656 14.8945 10.2656ZM17.4844 10.2656L18.3281 10.2656C18.5391 10.2656 18.6797 10.1367 18.6797 9.89062L18.6797 8.58984C18.6797 8.34375 18.5391 8.21484 18.3281 8.21484L17.4844 8.21484C17.2617 8.21484 17.1328 8.34375 17.1328 8.58984L17.1328 9.89062C17.1328 10.1367 17.2617 10.2656 17.4844 10.2656ZM4.61719 14.0391L5.48438 14.0391C5.68359 14.0391 5.8125 13.8984 5.8125 13.6641L5.8125 12.3516C5.8125 12.1172 5.68359 11.9766 5.48438 11.9766L4.61719 11.9766C4.40625 11.9766 4.26562 12.1172 4.26562 12.3516L4.26562 13.6641C4.26562 13.8984 4.40625 14.0391 4.61719 14.0391ZM7.19531 14.0391L15.7734 14.0391C15.9727 14.0391 16.1016 13.8984 16.1016 13.6641L16.1016 12.3516C16.1016 12.1172 15.9727 11.9766 15.7734 11.9766L7.19531 11.9766C6.97266 11.9766 6.84375 12.1172 6.84375 12.3516L6.84375 13.6641C6.84375 13.8984 6.97266 14.0391 7.19531 14.0391ZM17.4844 14.0391L18.3281 14.0391C18.5391 14.0391 18.6797 13.8984 18.6797 13.6641L18.6797 12.3516C18.6797 12.1172 18.5391 11.9766 18.3281 11.9766L17.4844 11.9766C17.2617 11.9766 17.1328 12.1172 17.1328 12.3516L17.1328 13.6641C17.1328 13.8984 17.2617 14.0391 17.4844 14.0391ZM20.6602 8.60156C20.2266 9.01172 20.2266 9.49219 20.6602 9.90234L24.0938 13.1836C24.4922 13.5586 25.1719 13.4062 25.1719 12.7734L25.1719 5.73047C25.1719 5.10938 24.4922 4.95703 24.0938 5.33203Z" fill="black" fill-opacity="0.85"/>
 </g>
</svg>
