<?xml version="1.0" encoding="UTF-8"?>
<!--Generator: Apple Native CoreSVG 360-->
<!DOCTYPE svg
PUBLIC "-//W3C//DTD SVG 1.1//EN"
       "http://www.w3.org/Graphics/SVG/1.1/DTD/svg11.dtd">
<svg version="1.1" xmlns="http://www.w3.org/2000/svg" xmlns:xlink="http://www.w3.org/1999/xlink" viewBox="0 0 29.8477 18.5273">
 <g>
  <rect height="18.5273" opacity="0" width="29.8477" x="0" y="0"/>
  <path d="M3.67969 18.5156L25.8164 18.5156C28.2539 18.5156 29.4961 17.2969 29.4961 14.8828L29.4961 3.62109C29.4961 1.21875 28.2539 0 25.8164 0L3.67969 0C1.21875 0 0 1.20703 0 3.62109L0 14.8828C0 17.2969 1.21875 18.5156 3.67969 18.5156ZM3.70312 16.6289C2.53125 16.6289 1.88672 15.9961 1.88672 14.7773L1.88672 3.72656C1.88672 2.50781 2.53125 1.88672 3.70312 1.88672L25.7812 1.88672C26.9414 1.88672 27.6094 2.50781 27.6094 3.72656L27.6094 14.7773C27.6094 15.9961 26.9414 16.6289 25.7812 16.6289Z" fill="black" fill-opacity="0.85"/>
  <path d="M11.1562 6.50391L12.0234 6.50391C12.2344 6.50391 12.3633 6.36328 12.3633 6.12891L12.3633 4.81641C12.3633 4.58203 12.2344 4.44141 12.0234 4.44141L11.1562 4.44141C10.9453 4.44141 10.8164 4.58203 10.8164 4.81641L10.8164 6.12891C10.8164 6.36328 10.9453 6.50391 11.1562 6.50391ZM13.7344 6.50391L14.5898 6.50391C14.8008 6.50391 14.9297 6.36328 14.9297 6.12891L14.9297 4.81641C14.9297 4.58203 14.8008 4.44141 14.5898 4.44141L13.7344 4.44141C13.5234 4.44141 13.3828 4.58203 13.3828 4.81641L13.3828 6.12891C13.3828 6.36328 13.5234 6.50391 13.7344 6.50391ZM16.3125 6.50391L17.168 6.50391C17.3672 6.50391 17.5078 6.36328 17.5078 6.12891L17.5078 4.81641C17.5078 4.58203 17.3672 4.44141 17.168 4.44141L16.3125 4.44141C16.0898 4.44141 15.9609 4.58203 15.9609 4.81641L15.9609 6.12891C15.9609 6.36328 16.0898 6.50391 16.3125 6.50391ZM18.8789 6.50391L19.7227 6.50391C19.9453 6.50391 20.0742 6.36328 20.0742 6.12891L20.0742 4.81641C20.0742 4.58203 19.9453 4.44141 19.7227 4.44141L18.8789 4.44141C18.6562 4.44141 18.5273 4.58203 18.5273 4.81641L18.5273 6.12891C18.5273 6.36328 18.6562 6.50391 18.8789 6.50391ZM21.4336 6.50391L22.3125 6.50391C22.5117 6.50391 22.6523 6.36328 22.6523 6.12891L22.6523 4.81641C22.6523 4.58203 22.5117 4.44141 22.3125 4.44141L21.4336 4.44141C21.2344 4.44141 21.1055 4.58203 21.1055 4.81641L21.1055 6.12891C21.1055 6.36328 21.2344 6.50391 21.4336 6.50391ZM24.0234 6.50391L24.8672 6.50391C25.0898 6.50391 25.2188 6.36328 25.2188 6.12891L25.2188 4.81641C25.2188 4.58203 25.0898 4.44141 24.8672 4.44141L24.0234 4.44141C23.8008 4.44141 23.6719 4.58203 23.6719 4.81641L23.6719 6.12891C23.6719 6.36328 23.8008 6.50391 24.0234 6.50391ZM11.1562 10.2656L12.0234 10.2656C12.2344 10.2656 12.3633 10.1367 12.3633 9.89062L12.3633 8.58984C12.3633 8.34375 12.2344 8.21484 12.0234 8.21484L11.1562 8.21484C10.9453 8.21484 10.8164 8.34375 10.8164 8.58984L10.8164 9.89062C10.8164 10.1367 10.9453 10.2656 11.1562 10.2656ZM13.7344 10.2656L14.5898 10.2656C14.8008 10.2656 14.9297 10.1367 14.9297 9.89062L14.9297 8.58984C14.9297 8.34375 14.8008 8.21484 14.5898 8.21484L13.7344 8.21484C13.5234 8.21484 13.3828 8.34375 13.3828 8.58984L13.3828 9.89062C13.3828 10.1367 13.5234 10.2656 13.7344 10.2656ZM16.3125 10.2656L17.168 10.2656C17.3672 10.2656 17.5078 10.1367 17.5078 9.89062L17.5078 8.58984C17.5078 8.34375 17.3672 8.21484 17.168 8.21484L16.3125 8.21484C16.0898 8.21484 15.9609 8.34375 15.9609 8.58984L15.9609 9.89062C15.9609 10.1367 16.0898 10.2656 16.3125 10.2656ZM18.8789 10.2656L19.7227 10.2656C19.9453 10.2656 20.0742 10.1367 20.0742 9.89062L20.0742 8.58984C20.0742 8.34375 19.9453 8.21484 19.7227 8.21484L18.8789 8.21484C18.6562 8.21484 18.5273 8.34375 18.5273 8.58984L18.5273 9.89062C18.5273 10.1367 18.6562 10.2656 18.8789 10.2656ZM21.4336 10.2656L22.3125 10.2656C22.5117 10.2656 22.6523 10.1367 22.6523 9.89062L22.6523 8.58984C22.6523 8.34375 22.5117 8.21484 22.3125 8.21484L21.4336 8.21484C21.2344 8.21484 21.1055 8.34375 21.1055 8.58984L21.1055 9.89062C21.1055 10.1367 21.2344 10.2656 21.4336 10.2656ZM24.0234 10.2656L24.8672 10.2656C25.0898 10.2656 25.2188 10.1367 25.2188 9.89062L25.2188 8.58984C25.2188 8.34375 25.0898 8.21484 24.8672 8.21484L24.0234 8.21484C23.8008 8.21484 23.6719 8.34375 23.6719 8.58984L23.6719 9.89062C23.6719 10.1367 23.8008 10.2656 24.0234 10.2656ZM11.1562 14.0391L12.0234 14.0391C12.2344 14.0391 12.3633 13.8984 12.3633 13.6641L12.3633 12.3516C12.3633 12.1172 12.2344 11.9766 12.0234 11.9766L11.1562 11.9766C10.9453 11.9766 10.8164 12.1172 10.8164 12.3516L10.8164 13.6641C10.8164 13.8984 10.9453 14.0391 11.1562 14.0391ZM13.7344 14.0391L22.3125 14.0391C22.5117 14.0391 22.6523 13.8984 22.6523 13.6641L22.6523 12.3516C22.6523 12.1172 22.5117 11.9766 22.3125 11.9766L13.7344 11.9766C13.5234 11.9766 13.3828 12.1172 13.3828 12.3516L13.3828 13.6641C13.3828 13.8984 13.5234 14.0391 13.7344 14.0391ZM24.0234 14.0391L24.8672 14.0391C25.0898 14.0391 25.2188 13.8984 25.2188 13.6641L25.2188 12.3516C25.2188 12.1172 25.0898 11.9766 24.8672 11.9766L24.0234 11.9766C23.8008 11.9766 23.6719 12.1172 23.6719 12.3516L23.6719 13.6641C23.6719 13.8984 23.8008 14.0391 24.0234 14.0391ZM8.77734 8.60156L5.34375 5.33203C4.94531 4.95703 4.26562 5.10938 4.26562 5.73047L4.26562 12.7734C4.26562 13.4062 4.94531 13.5586 5.34375 13.1836L8.77734 9.90234C9.21094 9.49219 9.21094 9.01172 8.77734 8.60156Z" fill="black" fill-opacity="0.85"/>
 </g>
</svg>
