<?xml version="1.0" encoding="UTF-8"?>
<!--Generator: Apple Native CoreSVG 360-->
<!DOCTYPE svg
PUBLIC "-//W3C//DTD SVG 1.1//EN"
       "http://www.w3.org/Graphics/SVG/1.1/DTD/svg11.dtd">
<svg version="1.1" xmlns="http://www.w3.org/2000/svg" xmlns:xlink="http://www.w3.org/1999/xlink" viewBox="0 0 38.1152 18.5273">
 <g>
  <rect height="18.5273" opacity="0" width="38.1152" x="0" y="0"/>
  <path d="M11.9443 18.5156L34.0811 18.5156C36.5186 18.5156 37.7607 17.2969 37.7607 14.8828L37.7607 3.62109C37.7607 1.21875 36.5186 0 34.0811 0L11.9443 0C9.4834 0 8.26465 1.20703 8.26465 3.62109L8.26465 14.8828C8.26465 17.2969 9.4834 18.5156 11.9443 18.5156ZM11.9678 16.6289C10.8076 16.6289 10.1514 15.9961 10.1514 14.7773L10.1514 3.72656C10.1514 2.50781 10.8076 1.88672 11.9678 1.88672L34.0459 1.88672C35.2061 1.88672 35.874 2.50781 35.874 3.72656L35.874 14.7773C35.874 15.9961 35.2061 16.6289 34.0459 16.6289ZM13.0342 6.52734L14.1006 6.52734C14.4287 6.52734 14.6279 6.32812 14.6279 6.01172L14.6279 4.93359C14.6279 4.60547 14.4287 4.40625 14.1006 4.40625L13.0342 4.40625C12.7061 4.40625 12.5068 4.60547 12.5068 4.93359L12.5068 6.01172C12.5068 6.32812 12.7061 6.52734 13.0342 6.52734ZM16.7959 6.52734L17.874 6.52734C18.2021 6.52734 18.4014 6.32812 18.4014 6.01172L18.4014 4.93359C18.4014 4.60547 18.2021 4.40625 17.874 4.40625L16.7959 4.40625C16.4678 4.40625 16.2686 4.60547 16.2686 4.93359L16.2686 6.01172C16.2686 6.32812 16.4678 6.52734 16.7959 6.52734ZM20.5693 6.52734L21.6357 6.52734C21.9639 6.52734 22.1631 6.32812 22.1631 6.01172L22.1631 4.93359C22.1631 4.60547 21.9639 4.40625 21.6357 4.40625L20.5693 4.40625C20.2412 4.40625 20.042 4.60547 20.042 4.93359L20.042 6.01172C20.042 6.32812 20.2412 6.52734 20.5693 6.52734ZM24.3428 6.52734L25.4092 6.52734C25.7373 6.52734 25.9365 6.32812 25.9365 6.01172L25.9365 4.93359C25.9365 4.60547 25.7373 4.40625 25.4092 4.40625L24.3428 4.40625C24.0146 4.40625 23.8154 4.60547 23.8154 4.93359L23.8154 6.01172C23.8154 6.32812 24.0146 6.52734 24.3428 6.52734ZM28.1045 6.52734L29.1826 6.52734C29.499 6.52734 29.71 6.32812 29.71 6.01172L29.71 4.93359C29.71 4.60547 29.499 4.40625 29.1826 4.40625L28.1045 4.40625C27.7764 4.40625 27.5771 4.60547 27.5771 4.93359L27.5771 6.01172C27.5771 6.32812 27.7764 6.52734 28.1045 6.52734ZM31.8779 6.52734L32.9443 6.52734C33.2725 6.52734 33.4717 6.32812 33.4717 6.01172L33.4717 4.93359C33.4717 4.60547 33.2725 4.40625 32.9443 4.40625L31.8779 4.40625C31.5498 4.40625 31.3506 4.60547 31.3506 4.93359L31.3506 6.01172C31.3506 6.32812 31.5498 6.52734 31.8779 6.52734ZM13.0342 10.3008L14.1006 10.3008C14.4287 10.3008 14.6279 10.1016 14.6279 9.77344L14.6279 8.70703C14.6279 8.37891 14.4287 8.17969 14.1006 8.17969L13.0342 8.17969C12.7061 8.17969 12.5068 8.37891 12.5068 8.70703L12.5068 9.77344C12.5068 10.1016 12.7061 10.3008 13.0342 10.3008ZM16.7959 10.3008L17.874 10.3008C18.2021 10.3008 18.4014 10.1016 18.4014 9.77344L18.4014 8.70703C18.4014 8.37891 18.2021 8.17969 17.874 8.17969L16.7959 8.17969C16.4678 8.17969 16.2686 8.37891 16.2686 8.70703L16.2686 9.77344C16.2686 10.1016 16.4678 10.3008 16.7959 10.3008ZM20.5693 10.3008L21.6357 10.3008C21.9639 10.3008 22.1631 10.1016 22.1631 9.77344L22.1631 8.70703C22.1631 8.37891 21.9639 8.17969 21.6357 8.17969L20.5693 8.17969C20.2412 8.17969 20.042 8.37891 20.042 8.70703L20.042 9.77344C20.042 10.1016 20.2412 10.3008 20.5693 10.3008ZM24.3428 10.3008L25.4092 10.3008C25.7373 10.3008 25.9365 10.1016 25.9365 9.77344L25.9365 8.70703C25.9365 8.37891 25.7373 8.17969 25.4092 8.17969L24.3428 8.17969C24.0146 8.17969 23.8154 8.37891 23.8154 8.70703L23.8154 9.77344C23.8154 10.1016 24.0146 10.3008 24.3428 10.3008ZM28.1045 10.3008L29.1826 10.3008C29.499 10.3008 29.71 10.1016 29.71 9.77344L29.71 8.70703C29.71 8.37891 29.499 8.17969 29.1826 8.17969L28.1045 8.17969C27.7764 8.17969 27.5771 8.37891 27.5771 8.70703L27.5771 9.77344C27.5771 10.1016 27.7764 10.3008 28.1045 10.3008ZM31.8779 10.3008L32.9443 10.3008C33.2725 10.3008 33.4717 10.1016 33.4717 9.77344L33.4717 8.70703C33.4717 8.37891 33.2725 8.17969 32.9443 8.17969L31.8779 8.17969C31.5498 8.17969 31.3506 8.37891 31.3506 8.70703L31.3506 9.77344C31.3506 10.1016 31.5498 10.3008 31.8779 10.3008ZM13.0342 14.0742L14.1006 14.0742C14.4287 14.0742 14.6279 13.875 14.6279 13.5469L14.6279 12.4688C14.6279 12.1523 14.4287 11.9531 14.1006 11.9531L13.0342 11.9531C12.7061 11.9531 12.5068 12.1523 12.5068 12.4688L12.5068 13.5469C12.5068 13.875 12.7061 14.0742 13.0342 14.0742ZM16.9131 14.0742L29.0654 14.0742C29.4639 14.0742 29.71 13.8398 29.71 13.4297L29.71 12.5859C29.71 12.1875 29.4639 11.9531 29.0654 11.9531L16.9131 11.9531C16.5029 11.9531 16.2686 12.1875 16.2686 12.5859L16.2686 13.4297C16.2686 13.8398 16.5029 14.0742 16.9131 14.0742ZM31.8779 14.0742L32.9443 14.0742C33.2725 14.0742 33.4717 13.875 33.4717 13.5469L33.4717 12.4688C33.4717 12.1523 33.2725 11.9531 32.9443 11.9531L31.8779 11.9531C31.5498 11.9531 31.3506 12.1523 31.3506 12.4688L31.3506 13.5469C31.3506 13.875 31.5498 14.0742 31.8779 14.0742Z" fill="black" fill-opacity="0.85"/>
  <path d="M3.6123 14.7305C4.45605 15.9023 5.90918 14.8008 5.21777 13.8281L1.95996 9.24609L5.21777 4.6875C5.90918 3.72656 4.45605 2.61328 3.6123 3.78516L0.272461 8.42578C-0.0908203 8.94141-0.0908203 9.57422 0.272461 10.0781Z" fill="black" fill-opacity="0.85"/>
 </g>
</svg>
