<?xml version="1.0" encoding="UTF-8"?>
<!--Generator: Apple Native CoreSVG 360-->
<!DOCTYPE svg
PUBLIC "-//W3C//DTD SVG 1.1//EN"
       "http://www.w3.org/Graphics/SVG/1.1/DTD/svg11.dtd">
<svg version="1.1" xmlns="http://www.w3.org/2000/svg" xmlns:xlink="http://www.w3.org/1999/xlink" viewBox="0 0 16.875 21.6211">
 <g>
  <rect height="21.6211" opacity="0" width="16.875" x="0" y="0"/>
  <path d="M14.9062 21.6094C15.4922 21.6094 15.9844 21.1758 15.9844 20.5781C15.9844 20.2969 15.8906 20.0508 15.6797 19.793L8.32031 10.7227L15.668 1.79297C15.832 1.59375 15.9727 1.27734 15.9727 1.00781C15.9727 0.445312 15.5156 0 14.9062 0C14.5078 0 14.1797 0.246094 13.9336 0.5625L5.71875 10.7227L13.9336 21.0352C14.2148 21.3867 14.4961 21.6094 14.9062 21.6094ZM3.57422 21.6094C4.25391 21.6094 4.73438 21.1055 4.73438 20.4141L4.73438 1.18359C4.73438 0.492188 4.24219 0 3.57422 0C2.90625 0 2.40234 0.492188 2.40234 1.18359L2.40234 20.4141C2.40234 21.1055 2.90625 21.6094 3.57422 21.6094ZM0 10.7109C0 11.1562 0.328125 11.4844 0.773438 11.4844L15.7383 11.4844C16.1836 11.4844 16.5234 11.1562 16.5234 10.7109C16.5234 10.2656 16.1836 9.9375 15.7383 9.9375L0.773438 9.9375C0.328125 9.9375 0 10.2656 0 10.7109Z" fill="black" fill-opacity="0.85"/>
 </g>
</svg>
