<?xml version="1.0" encoding="UTF-8"?>
<!--Generator: Apple Native CoreSVG 360-->
<!DOCTYPE svg
PUBLIC "-//W3C//DTD SVG 1.1//EN"
       "http://www.w3.org/Graphics/SVG/1.1/DTD/svg11.dtd">
<svg version="1.1" xmlns="http://www.w3.org/2000/svg" xmlns:xlink="http://www.w3.org/1999/xlink" viewBox="0 0 28.582 23.5195">
 <g>
  <rect height="23.5195" opacity="0" width="28.582" x="0" y="0"/>
  <path d="M28.2305 14.1094C28.2305 10.6641 26.9883 7.48828 24.9141 5.02734C24.6797 4.74609 24.2812 4.74609 24.0234 5.01562L21.3047 7.73438C21.082 7.95703 21.0703 8.27344 21.2695 8.51953C22.4766 10.0664 23.2031 12.0117 23.2031 14.1094C23.2031 16.2188 22.4766 18.1641 21.1992 19.793C21.0352 19.9922 21.0469 20.25 21.2227 20.4375L24.0117 23.2266C24.2812 23.4961 24.668 23.4961 24.9141 23.2031C26.9883 20.7422 28.2305 17.5664 28.2305 14.1094Z" fill="black" fill-opacity="0.85"/>
  <path d="M14.1094 5.02734C16.2305 5.02734 18.1758 5.76562 19.7344 6.97266C19.9688 7.16016 20.2734 7.13672 20.4961 6.91406L23.2148 4.19531C23.4844 3.92578 23.4727 3.53906 23.1914 3.30469C20.7422 1.24219 17.5664 0 14.1094 0C10.6641 0 7.48828 1.24219 5.03906 3.30469C4.75781 3.53906 4.74609 3.92578 5.01562 4.19531L7.73438 6.91406C7.95703 7.13672 8.27344 7.16016 8.53125 6.96094C10.0781 5.76562 12.0117 5.02734 14.1094 5.02734Z" fill="black" fill-opacity="0.85"/>
  <path d="M0 14.1094C0 17.5664 1.24219 20.7422 3.31641 23.2031C3.55078 23.4961 3.94922 23.4961 4.20703 23.2266L6.99609 20.4375C7.17188 20.25 7.19531 19.9922 7.03125 19.793C5.75391 18.1641 5.02734 16.2188 5.02734 14.1094C5.02734 12.0117 5.74219 10.0664 6.96094 8.51953C7.14844 8.27344 7.14844 7.95703 6.92578 7.73438L4.20703 5.01562C3.9375 4.74609 3.55078 4.74609 3.31641 5.02734C1.24219 7.48828 0 10.6641 0 14.1094Z" fill="black" fill-opacity="0.85"/>
  <path d="M11.4609 19.6523C11.8828 19.6523 12.1406 19.3711 12.1406 18.9492L12.1406 14.5781L12.8906 14.5781L16.5117 19.3008C16.6641 19.5234 16.8398 19.6523 17.1094 19.6523C17.5547 19.6523 17.7422 19.3008 17.7422 19.0547C17.7422 18.8672 17.6719 18.7266 17.5547 18.5742L14.3906 14.5781L17.625 14.5781C17.8477 14.5781 18.0234 14.4023 18.0234 14.1797C18.0234 13.957 17.8477 13.793 17.625 13.793L14.4141 13.793L17.5664 9.90234C17.6719 9.75 17.7305 9.59766 17.7305 9.45703C17.7305 9.10547 17.4492 8.85938 17.1094 8.85938C16.8867 8.85938 16.6641 9.02344 16.5352 9.19922L12.9023 13.793L12.1406 13.793L12.1406 9.55078C12.1406 9.11719 11.8828 8.85938 11.4609 8.85938C11.0391 8.85938 10.7695 9.11719 10.7695 9.55078L10.7695 13.793L9.96094 13.793C9.73828 13.793 9.57422 13.9453 9.57422 14.1914C9.57422 14.4141 9.73828 14.5781 9.96094 14.5781L10.7695 14.5781L10.7695 18.9492C10.7695 19.3711 11.0391 19.6523 11.4609 19.6523Z" fill="black" fill-opacity="0.85"/>
 </g>
</svg>
