<?xml version="1.0" encoding="UTF-8"?>
<!--Generator: Apple Native CoreSVG 360-->
<!DOCTYPE svg
PUBLIC "-//W3C//DTD SVG 1.1//EN"
       "http://www.w3.org/Graphics/SVG/1.1/DTD/svg11.dtd">
<svg version="1.1" xmlns="http://www.w3.org/2000/svg" xmlns:xlink="http://www.w3.org/1999/xlink" viewBox="0 0 28.582 23.4085">
 <g>
  <rect height="23.4085" opacity="0" width="28.582" x="0" y="0"/>
  <path d="M28.2305 14.0539C28.2305 6.67105 22.5586 0.612457 15.3398 0.00308175C14.9648-0.0320745 14.6836 0.237457 14.6836 0.612457L14.6836 4.44449C14.6836 4.76089 14.9062 5.00699 15.2227 5.03043C19.7109 5.58121 23.2031 9.41324 23.2031 14.0539C23.2031 16.1632 22.4766 18.1086 21.1992 19.7375C21.0352 19.9367 21.0469 20.1945 21.2227 20.382L24.0234 23.1711C24.2812 23.4289 24.6797 23.4289 24.9141 23.1476C26.9883 20.6867 28.2305 17.5109 28.2305 14.0539Z" fill="black" fill-opacity="0.85"/>
  <path d="M0 14.0539C0 17.5226 1.24219 20.6984 3.31641 23.1593C3.55078 23.4406 3.9375 23.4289 4.20703 23.1711L7.00781 20.382C7.18359 20.1945 7.19531 19.9367 7.03125 19.7375C5.74219 18.1086 5.02734 16.1632 5.02734 14.0539C5.02734 9.41324 8.51953 5.58121 13.0078 5.03043C13.3242 5.00699 13.5469 4.76089 13.5469 4.44449L13.5469 0.612457C13.5469 0.237457 13.2656-0.0320745 12.8906 0.00308175C5.67188 0.612457 0 6.67105 0 14.0539Z" fill="black" fill-opacity="0.85"/>
  <path d="M11.4609 19.5968C11.8828 19.5968 12.1406 19.3156 12.1406 18.8937L12.1406 14.5226L12.8906 14.5226L16.5117 19.2453C16.6641 19.4679 16.8398 19.5968 17.1094 19.5968C17.5547 19.5968 17.7422 19.2453 17.7422 18.9992C17.7422 18.8117 17.6719 18.6711 17.5547 18.5187L14.3906 14.5226L17.625 14.5226C17.8477 14.5226 18.0234 14.3468 18.0234 14.1242C18.0234 13.9015 17.8477 13.7375 17.625 13.7375L14.4141 13.7375L17.5664 9.84683C17.6719 9.69449 17.7305 9.54214 17.7305 9.40152C17.7305 9.04996 17.4492 8.80386 17.1094 8.80386C16.8867 8.80386 16.6641 8.96793 16.5352 9.14371L12.9023 13.7375L12.1406 13.7375L12.1406 9.49527C12.1406 9.06168 11.8828 8.80386 11.4609 8.80386C11.0391 8.80386 10.7695 9.06168 10.7695 9.49527L10.7695 13.7375L9.96094 13.7375C9.73828 13.7375 9.57422 13.8898 9.57422 14.1359C9.57422 14.3586 9.73828 14.5226 9.96094 14.5226L10.7695 14.5226L10.7695 18.8937C10.7695 19.3156 11.0391 19.5968 11.4609 19.5968Z" fill="black" fill-opacity="0.85"/>
 </g>
</svg>
