<?xml version="1.0" encoding="UTF-8"?>
<!--Generator: Apple Native CoreSVG 360-->
<!DOCTYPE svg
PUBLIC "-//W3C//DTD SVG 1.1//EN"
       "http://www.w3.org/Graphics/SVG/1.1/DTD/svg11.dtd">
<svg version="1.1" xmlns="http://www.w3.org/2000/svg" xmlns:xlink="http://www.w3.org/1999/xlink" viewBox="0 0 26.5195 25.0195">
 <g>
  <rect height="25.0195" opacity="0" width="26.5195" x="0" y="0"/>
  <path d="M1.55859 22.2188L24.6094 22.2188L24.6094 21.4336C24.6094 20.9648 24.3398 20.6836 23.8594 20.6836L23.1094 20.6836L23.1094 8.03906L24.1406 8.03906C24.7852 8.03906 25.1602 7.57031 25.1602 7.08984C25.1602 6.73828 24.9609 6.43359 24.5273 6.1875L14.5195 0.410156C14.0508 0.140625 13.5586 0 13.0781 0C12.5977 0 12.0938 0.140625 11.6484 0.410156L1.64062 6.1875C1.19531 6.43359 1.00781 6.73828 1.00781 7.08984C1.00781 7.57031 1.38281 8.03906 2.02734 8.03906L3.05859 8.03906L3.05859 20.6836L2.32031 20.6836C1.83984 20.6836 1.55859 20.9648 1.55859 21.4336ZM4.82812 20.6836L4.82812 6.53906L12.6211 2.16797C12.7617 2.08594 12.9258 2.03906 13.0781 2.03906C13.2305 2.03906 13.3945 2.08594 13.5469 2.16797L21.3398 6.53906L21.3398 20.6836ZM0.9375 25.0078L25.2188 25.0078C25.7344 25.0078 26.168 24.5742 26.168 24.0586C26.168 23.543 25.7344 23.1211 25.2188 23.1211L0.9375 23.1211C0.421875 23.1211 0 23.543 0 24.0586C0 24.5742 0.421875 25.0078 0.9375 25.0078Z" fill="black" fill-opacity="0.85"/>
  <path d="M10.4531 17.7188C10.8633 17.7188 11.1328 17.4375 11.1328 17.0156L11.1328 12.6445L11.8711 12.6445L15.4922 17.3672C15.6562 17.5898 15.832 17.7188 16.1016 17.7188C16.5469 17.7188 16.7344 17.3672 16.7344 17.1211C16.7344 16.9336 16.6641 16.793 16.5469 16.6406L13.3711 12.6445L16.6172 12.6445C16.8398 12.6445 17.0156 12.4688 17.0156 12.2461C17.0156 12.0234 16.8398 11.8594 16.6172 11.8594L13.3945 11.8594L16.5469 7.96875C16.6523 7.81641 16.7227 7.66406 16.7227 7.52344C16.7227 7.17188 16.4414 6.92578 16.1016 6.92578C15.8672 6.92578 15.6562 7.08984 15.5156 7.26562L11.8828 11.8594L11.1328 11.8594L11.1328 7.61719C11.1328 7.18359 10.8633 6.92578 10.4531 6.92578C10.0312 6.92578 9.76172 7.18359 9.76172 7.61719L9.76172 11.8594L8.95312 11.8594C8.71875 11.8594 8.56641 12.0117 8.56641 12.2578C8.56641 12.4805 8.71875 12.6445 8.95312 12.6445L9.76172 12.6445L9.76172 17.0156C9.76172 17.4375 10.0312 17.7188 10.4531 17.7188Z" fill="black" fill-opacity="0.85"/>
 </g>
</svg>
