<?xml version="1.0" encoding="UTF-8"?>
<!--Generator: Apple Native CoreSVG 360-->
<!DOCTYPE svg
PUBLIC "-//W3C//DTD SVG 1.1//EN"
       "http://www.w3.org/Graphics/SVG/1.1/DTD/svg11.dtd">
<svg version="1.1" xmlns="http://www.w3.org/2000/svg" xmlns:xlink="http://www.w3.org/1999/xlink" viewBox="0 0 27.3867 20.4492">
 <g>
  <rect height="20.4492" opacity="0" width="27.3867" x="0" y="0"/>
  <path d="M9.83203 20.4375L17.2031 20.4375C24 20.4375 27.0352 17.3086 27.0352 10.9102L27.0352 3.55078C27.0352 1.19531 25.8164 0 23.4375 0L3.59766 0C1.21875 0 0 1.19531 0 3.55078L0 10.9102C0 17.3086 3.03516 20.4375 9.83203 20.4375ZM9.83203 18.5508C4.30078 18.5508 1.88672 16.1484 1.88672 11.0273L1.88672 3.65625C1.88672 2.48438 2.49609 1.88672 3.64453 1.88672L23.3906 1.88672C24.5156 1.88672 25.1484 2.48438 25.1484 3.65625L25.1484 11.0273C25.1484 16.1484 22.7344 18.5508 17.1914 18.5508Z" fill="black" fill-opacity="0.85"/>
  <path d="M11.6602 15.0586L16.2539 15.0586C16.6992 15.0586 17.0859 14.7422 17.0859 14.2617C17.0859 13.7812 16.6992 13.4414 16.2539 13.4414L12.6445 13.4414L12.6445 6.26953C12.6445 5.63672 12.2578 5.20312 11.6602 5.20312C11.0625 5.20312 10.7227 5.64844 10.7227 6.26953L10.7227 14.0156C10.7227 14.6367 11.0625 15.0586 11.6602 15.0586Z" fill="black" fill-opacity="0.85"/>
 </g>
</svg>
