<?xml version="1.0" encoding="UTF-8"?>
<!--Generator: Apple Native CoreSVG 360-->
<!DOCTYPE svg
PUBLIC "-//W3C//DTD SVG 1.1//EN"
       "http://www.w3.org/Graphics/SVG/1.1/DTD/svg11.dtd">
<svg version="1.1" xmlns="http://www.w3.org/2000/svg" xmlns:xlink="http://www.w3.org/1999/xlink" viewBox="0 0 27.2461 30.293">
 <g>
  <rect height="30.293" opacity="0" width="27.2461" x="0" y="0"/>
  <path d="M13.4531 23.0039C15.0769 23.0039 16.595 22.8501 17.9766 22.5514L17.9766 23.0273C17.9766 25.2773 16.2891 26.6133 13.4531 26.6133C10.6055 26.6133 8.91797 25.2773 8.91797 23.0273L8.91797 22.55C10.3026 22.8496 11.8247 23.0039 13.4531 23.0039Z" fill="black" fill-opacity="0.85"/>
  <path d="M13.4531 21.6445C20.7656 21.6445 25.5352 18.4102 25.5352 13.7344C25.5352 9.07031 20.7539 5.83594 13.4297 5.83594C6.12891 5.83594 1.37109 9.07031 1.37109 13.7344C1.37109 18.4102 6.12891 21.6445 13.4531 21.6445ZM13.4531 19.6289C7.48828 19.6289 3.49219 17.2383 3.49219 13.7344C3.49219 10.2305 7.48828 7.85156 13.4297 7.85156C19.3945 7.85156 23.4141 10.2305 23.4141 13.7344C23.4141 17.2383 19.4062 19.6289 13.4531 19.6289Z" fill="black" fill-opacity="0.85"/>
  <path d="M11.8125 17.4023L15.4219 17.4023C15.8789 17.4023 16.1953 17.0859 16.1953 16.6523C16.1953 16.1953 15.8789 15.8906 15.4219 15.8906L12.6797 15.8906L12.6797 10.6055C12.6797 10.0195 12.3398 9.66797 11.8125 9.66797C11.2969 9.66797 10.9453 10.0312 10.9453 10.6055L10.9453 16.4648C10.9453 17.0273 11.2852 17.4023 11.8125 17.4023Z" fill="black" fill-opacity="0.85"/>
  <path d="M10.5 1.42969L12.832 4.57031C13.1484 5.00391 13.7461 5.00391 14.0625 4.57031L16.418 1.42969C16.8867 0.808594 16.6406 0 15.7969 0L11.0977 0C10.3008 0 10.0078 0.785156 10.5 1.42969Z" fill="black" fill-opacity="0.85"/>
 </g>
</svg>
