<?xml version="1.0" encoding="UTF-8"?>
<!--Generator: Apple Native CoreSVG 360-->
<!DOCTYPE svg
PUBLIC "-//W3C//DTD SVG 1.1//EN"
       "http://www.w3.org/Graphics/SVG/1.1/DTD/svg11.dtd">
<svg version="1.1" xmlns="http://www.w3.org/2000/svg" xmlns:xlink="http://www.w3.org/1999/xlink" viewBox="0 0 27.3047 34.998">
 <g>
  <rect height="34.998" opacity="0" width="27.3047" x="0" y="0"/>
  <path d="M26.9531 17.4932C26.9531 24.9346 20.9062 30.9697 13.4766 30.9697C6.03516 30.9697 0 24.9229 0 17.4932C0 11.6359 3.73912 6.64261 8.96682 4.79634C8.80402 5.46627 8.92225 6.14648 9.26388 6.68897C4.93514 8.36152 1.88672 12.561 1.88672 17.4932C1.88672 23.915 7.05469 29.083 13.4766 29.083C19.8867 29.083 25.0664 23.915 25.0664 17.4932C25.0664 12.555 22.0037 8.35133 17.6686 6.68316C18.009 6.14099 18.1259 5.46087 17.9587 4.7879C23.1957 6.62787 26.9531 11.6272 26.9531 17.4932Z" fill="black" fill-opacity="0.85"/>
  <path d="M11.3555 6.19629L15.5742 6.19629C16.3945 6.19629 16.6875 5.3877 16.1953 4.74316L14.1094 1.93066C13.7695 1.48535 13.1719 1.48535 12.8438 1.93066L10.7227 4.75488C10.2656 5.37598 10.5117 6.19629 11.3555 6.19629Z" fill="black" fill-opacity="0.85"/>
  <path d="M13.4766 26.8564C18.6445 26.8564 22.8281 22.6611 22.8281 17.4932C22.8281 12.3135 18.6445 8.1416 13.4766 8.1416C8.30859 8.1416 4.125 12.3135 4.125 17.4932C4.125 22.6611 8.30859 26.8564 13.4766 26.8564ZM13.4766 24.9697C9.32812 24.9697 6.01172 21.6299 6.01172 17.4932C6.01172 13.3447 9.32812 10.0283 13.4766 10.0283C17.6133 10.0283 20.9414 13.3447 20.9414 17.4932C20.9414 21.6299 17.6133 24.9697 13.4766 24.9697ZM11.7422 21.9814L16.0078 21.9814C16.4297 21.9814 16.7812 21.6885 16.7812 21.2432C16.7812 20.7979 16.4297 20.4814 16.0078 20.4814L12.6562 20.4814L12.6562 13.8252C12.6562 13.2393 12.3047 12.8408 11.7422 12.8408C11.1914 12.8408 10.8867 13.251 10.8867 13.8252L10.8867 21.0088C10.8867 21.583 11.1914 21.9814 11.7422 21.9814Z" fill="black" fill-opacity="0.85"/>
 </g>
</svg>
