<?xml version="1.0" encoding="UTF-8"?>
<!--Generator: Apple Native CoreSVG 360-->
<!DOCTYPE svg
PUBLIC "-//W3C//DTD SVG 1.1//EN"
       "http://www.w3.org/Graphics/SVG/1.1/DTD/svg11.dtd">
<svg version="1.1" xmlns="http://www.w3.org/2000/svg" xmlns:xlink="http://www.w3.org/1999/xlink" viewBox="0 0 27.2461 22.9336">
 <g>
  <rect height="22.9336" opacity="0" width="27.2461" x="0" y="0"/>
  <path d="M13.4531 19.3242C15.0769 19.3242 16.595 19.1704 17.9766 18.8717L17.9766 19.3477C17.9766 21.5977 16.2891 22.9336 13.4531 22.9336C10.6055 22.9336 8.91797 21.5977 8.91797 19.3477L8.91797 18.8703C10.3026 19.1699 11.8247 19.3242 13.4531 19.3242Z" fill="black" fill-opacity="0.85"/>
  <path d="M13.4531 17.9648C20.7656 17.9648 25.5352 14.7305 25.5352 10.0547C25.5352 5.39062 20.7539 2.15625 13.4297 2.15625C6.12891 2.15625 1.37109 5.39062 1.37109 10.0547C1.37109 14.7305 6.12891 17.9648 13.4531 17.9648ZM13.4531 15.9492C7.48828 15.9492 3.49219 13.5586 3.49219 10.0547C3.49219 6.55078 7.48828 4.17188 13.4297 4.17188C19.3945 4.17188 23.4141 6.55078 23.4141 10.0547C23.4141 13.5586 19.4062 15.9492 13.4531 15.9492Z" fill="black" fill-opacity="0.85"/>
  <path d="M11.8125 13.7227L15.4219 13.7227C15.8789 13.7227 16.1953 13.4062 16.1953 12.9727C16.1953 12.5156 15.8789 12.2109 15.4219 12.2109L12.6797 12.2109L12.6797 6.92578C12.6797 6.33984 12.3398 5.98828 11.8125 5.98828C11.2969 5.98828 10.9453 6.35156 10.9453 6.92578L10.9453 12.7852C10.9453 13.3477 11.2852 13.7227 11.8125 13.7227Z" fill="black" fill-opacity="0.85"/>
 </g>
</svg>
