<?xml version="1.0" encoding="UTF-8"?>
<!--Generator: Apple Native CoreSVG 360-->
<!DOCTYPE svg
PUBLIC "-//W3C//DTD SVG 1.1//EN"
       "http://www.w3.org/Graphics/SVG/1.1/DTD/svg11.dtd">
<svg version="1.1" xmlns="http://www.w3.org/2000/svg" xmlns:xlink="http://www.w3.org/1999/xlink" viewBox="0 0 35.3379 26.9883">
 <g>
  <rect height="26.9883" opacity="0" width="35.3379" x="0" y="0"/>
  <path d="M30.9814 13.4883C30.9814 20.9297 24.9346 26.9531 17.4932 26.9531C11.6444 26.9531 6.65262 23.2204 4.80726 17.9948C5.47839 18.1546 6.15704 18.0357 6.69735 17.6946C8.36541 22.0227 12.5592 25.0664 17.4932 25.0664C23.915 25.0664 29.0947 19.9102 29.0947 13.4883C29.0947 7.06641 23.915 1.88672 17.4932 1.88672C12.5616 1.88672 8.35838 4.95242 6.69242 9.29621C6.15264 8.95541 5.47426 8.83572 4.80019 8.99831C6.64026 3.75655 11.6372 0 17.4932 0C24.9346 0 30.9814 6.04688 30.9814 13.4883Z" fill="black" fill-opacity="0.85"/>
  <path d="M4.74316 10.7578L1.93066 12.8555C1.48535 13.1836 1.49707 13.793 1.93066 14.1211L4.75488 16.2305C5.37598 16.6992 6.20801 16.4414 6.20801 15.6094L6.20801 11.3789C6.20801 10.5703 5.3877 10.2773 4.74316 10.7578Z" fill="black" fill-opacity="0.85"/>
  <path d="M17.4932 22.8398C22.6611 22.8398 26.8564 18.6562 26.8564 13.4883C26.8564 8.30859 22.6611 4.125 17.4932 4.125C12.3252 4.125 8.1416 8.30859 8.1416 13.4883C8.1416 18.6562 12.3252 22.8398 17.4932 22.8398ZM17.4932 20.9531C13.3564 20.9531 10.0283 17.625 10.0283 13.4883C10.0283 9.33984 13.3564 6.01172 17.4932 6.01172C21.6416 6.01172 24.9697 9.33984 24.9697 13.4883C24.9697 17.625 21.6416 20.9531 17.4932 20.9531ZM15.7705 17.9766L20.0361 17.9766C20.458 17.9766 20.8096 17.6836 20.8096 17.2383C20.8096 16.793 20.458 16.4766 20.0361 16.4766L16.6846 16.4766L16.6846 9.82031C16.6846 9.23438 16.333 8.83594 15.7705 8.83594C15.2197 8.83594 14.915 9.24609 14.915 9.82031L14.915 17.0039C14.915 17.5781 15.2197 17.9766 15.7705 17.9766Z" fill="black" fill-opacity="0.85"/>
 </g>
</svg>
