<?xml version="1.0" encoding="UTF-8"?>
<!--Generator: Apple Native CoreSVG 360-->
<!DOCTYPE svg
PUBLIC "-//W3C//DTD SVG 1.1//EN"
       "http://www.w3.org/Graphics/SVG/1.1/DTD/svg11.dtd">
<svg version="1.1" xmlns="http://www.w3.org/2000/svg" xmlns:xlink="http://www.w3.org/1999/xlink" viewBox="0 0 27.3867 20.4492">
 <g>
  <rect height="20.4492" opacity="0" width="27.3867" x="0" y="0"/>
  <path d="M9.83203 20.4375L17.2031 20.4375C24 20.4375 27.0352 17.3086 27.0352 10.9102L27.0352 3.55078C27.0352 1.19531 25.8164 0 23.4375 0L3.59766 0C1.21875 0 0 1.19531 0 3.55078L0 10.9102C0 17.3086 3.03516 20.4375 9.83203 20.4375ZM9.83203 18.5508C4.30078 18.5508 1.88672 16.1484 1.88672 11.0273L1.88672 3.65625C1.88672 2.48438 2.49609 1.88672 3.64453 1.88672L23.3906 1.88672C24.5156 1.88672 25.1484 2.48438 25.1484 3.65625L25.1484 11.0273C25.1484 16.1484 22.7344 18.5508 17.1914 18.5508Z" fill="black" fill-opacity="0.85"/>
  <path d="M9.84375 14.9766L13.207 14.9766C13.5938 14.9766 13.9219 14.6484 13.9219 14.2617C13.9219 13.875 13.5938 13.5469 13.207 13.5469L10.6992 13.5469L10.6992 6.19922C10.6992 5.73047 10.3125 5.34375 9.85547 5.34375C9.38672 5.34375 9 5.73047 9 6.19922L9 14.0859C9 14.6367 9.30469 14.9766 9.84375 14.9766ZM17.0508 15.0938C17.5195 15.0938 17.9062 14.707 17.9062 14.2266L17.9062 6.29297C17.9062 5.68359 17.5312 5.33203 16.9219 5.33203C16.4297 5.33203 16.0312 5.60156 15.75 5.8125L14.4609 6.82031C14.2617 6.97266 14.0977 7.19531 14.0977 7.51172C14.0977 7.875 14.3438 8.12109 14.6953 8.12109C14.8828 8.12109 15 8.07422 15.1172 7.98047L16.1953 7.11328L16.1953 14.2266C16.1953 14.707 16.582 15.0938 17.0508 15.0938Z" fill="black" fill-opacity="0.85"/>
 </g>
</svg>
