<?xml version="1.0" encoding="UTF-8"?>
<!--Generator: Apple Native CoreSVG 360-->
<!DOCTYPE svg
PUBLIC "-//W3C//DTD SVG 1.1//EN"
       "http://www.w3.org/Graphics/SVG/1.1/DTD/svg11.dtd">
<svg version="1.1" xmlns="http://www.w3.org/2000/svg" xmlns:xlink="http://www.w3.org/1999/xlink" viewBox="0 0 27.3867 20.4492">
 <g>
  <rect height="20.4492" opacity="0" width="27.3867" x="0" y="0"/>
  <path d="M9.83203 0C3.03516 0 0 3.12891 0 9.52734L0 16.875C0 19.2422 1.21875 20.4375 3.59766 20.4375L23.4375 20.4375C25.8164 20.4375 27.0352 19.2305 27.0352 16.875L27.0352 9.52734C27.0352 3.12891 24 0 17.2031 0ZM9.83203 1.88672L17.1914 1.88672C22.7344 1.88672 25.1484 4.28906 25.1484 9.39844L25.1484 16.7812C25.1484 17.9531 24.5156 18.5508 23.3906 18.5508L3.64453 18.5508C2.49609 18.5508 1.88672 17.9531 1.88672 16.7812L1.88672 9.39844C1.88672 4.28906 4.30078 1.88672 9.83203 1.88672Z" fill="black" fill-opacity="0.85"/>
  <path d="M8.95312 14.9766L12.3281 14.9766C12.7148 14.9766 13.0312 14.6484 13.0312 14.2617C13.0312 13.875 12.7148 13.5469 12.3281 13.5469L9.82031 13.5469L9.82031 6.19922C9.82031 5.73047 9.43359 5.34375 8.96484 5.34375C8.50781 5.34375 8.12109 5.73047 8.12109 6.19922L8.12109 14.0859C8.12109 14.6367 8.41406 14.9766 8.95312 14.9766ZM14.7656 14.9648L18.832 14.9648C19.2422 14.9648 19.5 14.6836 19.5 14.2734C19.5 13.8398 19.2305 13.582 18.832 13.582L16.0547 13.582L16.0547 13.4883L17.7539 11.3203C18.9375 9.86719 19.3125 9.01172 19.3125 7.98047C19.3125 6.38672 18.2461 5.23828 16.6289 5.23828C15.1289 5.23828 13.9922 6.48047 13.9922 7.71094C13.9922 8.13281 14.2383 8.4375 14.6953 8.4375C15.082 8.4375 15.3164 8.26172 15.4336 7.88672C15.6562 7.10156 15.9492 6.59766 16.6172 6.59766C17.3203 6.59766 17.7188 7.23047 17.7188 8.05078C17.7188 8.98828 17.0625 9.9375 16.4414 10.7344L14.4141 13.3477C14.1914 13.6172 13.9688 13.9102 13.9688 14.2734C13.9688 14.6719 14.2266 14.9648 14.7656 14.9648Z" fill="black" fill-opacity="0.85"/>
 </g>
</svg>
