<?xml version="1.0" encoding="UTF-8"?>
<!--Generator: Apple Native CoreSVG 360-->
<!DOCTYPE svg
PUBLIC "-//W3C//DTD SVG 1.1//EN"
       "http://www.w3.org/Graphics/SVG/1.1/DTD/svg11.dtd">
<svg version="1.1" xmlns="http://www.w3.org/2000/svg" xmlns:xlink="http://www.w3.org/1999/xlink" viewBox="0 0 30.6797 21.0873">
 <g>
  <rect height="21.0873" opacity="0" width="30.6797" x="0" y="0"/>
  <path d="M30.3281 11.8737L30.3281 4.52606C30.3281 2.41669 28.9102 0.986998 26.7891 0.986998L3.51562 0.998716C1.41797 0.998716 0 2.44012 0 4.56122L0 11.8737C0 14.9089 1.30078 16.7722 4.42969 17.6979L14.5781 20.6511C17.2969 21.4479 19.043 21.1315 21.4688 19.8776L28.0547 16.4909C29.918 15.53 30.3281 14.3815 30.3281 11.8737ZM28.4414 11.8737C28.4414 13.6081 28.1133 14.3698 26.8594 15.0026L20.4609 18.2722C18.4453 19.2917 17.0156 19.5026 14.5781 18.7761L4.98047 15.9284C2.77734 15.2839 1.88672 14.0065 1.88672 11.8737L1.88672 4.59637C1.88672 3.56512 2.54297 2.88544 3.55078 2.88544L26.7656 2.87372C27.7734 2.87372 28.4414 3.54169 28.4414 4.56122Z" fill="black" fill-opacity="0.85"/>
  <path d="M10.1367 14.6393L13.5 14.6393C13.8867 14.6393 14.2148 14.3112 14.2148 13.9245C14.2148 13.5378 13.8867 13.2097 13.5 13.2097L10.9922 13.2097L10.9922 5.862C10.9922 5.40497 10.6055 5.01825 10.1484 5.01825C9.67969 5.01825 9.29297 5.40497 9.29297 5.862L9.29297 13.7487C9.29297 14.2995 9.59766 14.6393 10.1367 14.6393ZM18.0703 14.8386C19.7461 14.8386 21.0469 13.7839 21.0469 12.0261C21.0469 10.5729 20.168 9.85809 19.1836 9.75262L19.1836 9.70575C20.2383 9.4245 20.7656 8.487 20.7656 7.50262C20.7656 5.88544 19.5469 4.95965 18.0234 4.95965C16.8164 4.95965 15.7617 5.63934 15.4336 6.68231C15.3633 6.90497 15.3398 7.1159 15.3398 7.31512C15.3398 7.69012 15.5977 8.00653 16.0547 8.00653C16.4648 8.00653 16.6875 7.84247 16.8047 7.44403C16.9922 6.75262 17.3672 6.30731 18.0234 6.30731C18.7969 6.30731 19.1602 6.91669 19.1602 7.69012C19.1602 8.54559 18.6914 9.16669 17.8125 9.16669L17.5312 9.16669C17.1328 9.16669 16.8867 9.41278 16.8867 9.78778C16.8867 10.1745 17.1445 10.4089 17.5312 10.4089L17.8242 10.4089C18.8203 10.4089 19.3711 10.9479 19.3711 11.9792C19.3711 12.7878 18.9375 13.4675 18.0703 13.4675C17.2148 13.4675 16.8398 12.8932 16.6875 12.3659C16.582 11.9909 16.3242 11.7917 15.9492 11.7917C15.4922 11.7917 15.1875 12.0612 15.1875 12.53C15.1875 12.7409 15.2227 12.9518 15.2812 13.1393C15.6211 14.2292 16.8047 14.8386 18.0703 14.8386Z" fill="black" fill-opacity="0.85"/>
 </g>
</svg>
