<?xml version="1.0" encoding="UTF-8"?>
<!--Generator: Apple Native CoreSVG 360-->
<!DOCTYPE svg
PUBLIC "-//W3C//DTD SVG 1.1//EN"
       "http://www.w3.org/Graphics/SVG/1.1/DTD/svg11.dtd">
<svg version="1.1" xmlns="http://www.w3.org/2000/svg" xmlns:xlink="http://www.w3.org/1999/xlink" viewBox="0 0 27.9844 21.0586">
 <g>
  <rect height="21.0586" opacity="0" width="27.9844" x="0" y="0"/>
  <path d="M9.23438 21.0352L18.3984 21.0352C25.1953 21.0352 27.6328 18.5156 27.6328 12.2461L27.6328 8.80078C27.6328 2.53125 25.1953 0 18.3984 0L9.23438 0C2.4375 0 0 2.53125 0 8.80078L0 12.2461C0 18.5156 2.4375 21.0352 9.23438 21.0352ZM9.23438 19.1484C3.70312 19.1484 1.88672 17.3555 1.88672 12.2461L1.88672 8.80078C1.88672 3.69141 3.70312 1.88672 9.23438 1.88672L18.3984 1.88672C23.9297 1.88672 25.7461 3.69141 25.7461 8.80078L25.7461 12.2461C25.7461 17.3555 23.9297 19.1484 18.3984 19.1484Z" fill="black" fill-opacity="0.85"/>
  <path d="M8.85938 15.2695L12.2344 15.2695C12.6211 15.2695 12.9492 14.9531 12.9492 14.5547C12.9492 14.168 12.6211 13.8516 12.2344 13.8516L9.72656 13.8516L9.72656 6.49219C9.72656 6.03516 9.33984 5.64844 8.87109 5.64844C8.41406 5.64844 8.02734 6.03516 8.02734 6.49219L8.02734 14.3906C8.02734 14.9414 8.33203 15.2695 8.85938 15.2695ZM18.1641 15.4102C18.6094 15.4102 18.9609 15.1406 18.9609 14.5781L18.9609 13.4062L19.3828 13.4062C19.8398 13.4062 20.0508 13.1133 20.0508 12.7148C20.0508 12.3398 19.8516 12.0469 19.3828 12.0469L18.9609 12.0469L18.9609 6.90234C18.9609 6.09375 18.4336 5.63672 17.6719 5.63672C16.8398 5.63672 16.4531 6.05859 16.125 6.78516L14.0391 11.332C13.8398 11.7891 13.7695 12.0938 13.7695 12.457C13.7695 13.0195 14.1562 13.4062 14.7305 13.4062L17.3555 13.4062L17.3555 14.5781C17.3555 15.1992 17.7891 15.4102 18.1641 15.4102ZM17.3906 12.082L15.2109 12.082L15.2109 12L17.3438 7.11328L17.3906 7.11328Z" fill="black" fill-opacity="0.85"/>
 </g>
</svg>
