<?xml version="1.0" encoding="UTF-8"?>
<!--Generator: Apple Native CoreSVG 360-->
<!DOCTYPE svg
PUBLIC "-//W3C//DTD SVG 1.1//EN"
       "http://www.w3.org/Graphics/SVG/1.1/DTD/svg11.dtd">
<svg version="1.1" xmlns="http://www.w3.org/2000/svg" xmlns:xlink="http://www.w3.org/1999/xlink" viewBox="0 0 26.918 27.7852">
 <g>
  <rect height="27.7852" opacity="0" width="26.918" x="0" y="0"/>
  <path d="M13.2773 27.7852C19.4648 27.7852 23.5781 23.5664 23.5781 17.2031C23.5781 13.6875 22.0195 10.0898 19.5352 7.91016C19.5117 4.66406 17.0391 2.70703 13.2773 2.70703C9.51562 2.70703 7.05469 4.67578 7.03125 7.92188C4.54688 10.1016 2.98828 13.6406 2.98828 17.2031C2.98828 23.5664 7.10156 27.7852 13.2773 27.7852ZM13.2773 10.6992C15.3516 10.6992 17.4023 10.3008 18.7383 9.70312C20.1914 11.2148 21.7383 13.875 21.7383 17.2031C21.7383 22.4531 18.3516 25.957 13.2773 25.957C8.20312 25.957 4.81641 22.4531 4.81641 17.2031C4.81641 13.8867 6.35156 11.2383 7.82812 9.70312C9.16406 10.3008 11.2148 10.6992 13.2773 10.6992ZM12.4688 26.4727L14.0039 26.4727L14.0039 12.9023C14.0039 12.4805 13.6523 12.1406 13.2305 12.1406C12.8086 12.1406 12.4688 12.4805 12.4688 12.9023ZM9.53906 14.8008C10.3594 14.8008 11.0156 14.1211 11.0156 13.3125C11.0156 12.5039 10.3594 11.8359 9.53906 11.8359C8.73047 11.8359 8.07422 12.5039 8.07422 13.3125C8.07422 14.1211 8.73047 14.8008 9.53906 14.8008ZM8.14453 19.4414C9.08203 19.4414 9.85547 18.668 9.85547 17.7188C9.85547 16.7695 9.08203 15.9961 8.14453 15.9961C7.18359 15.9961 6.41016 16.7695 6.41016 17.7188C6.41016 18.668 7.18359 19.4414 8.14453 19.4414ZM9.53906 23.4492C10.3008 23.4492 10.9102 22.8398 10.9102 22.0898C10.9102 21.3281 10.3008 20.7188 9.53906 20.7188C8.78906 20.7188 8.17969 21.3281 8.17969 22.0898C8.17969 22.8398 8.78906 23.4492 9.53906 23.4492ZM17.0273 14.8008C17.8359 14.8008 18.4922 14.1211 18.4922 13.3125C18.4922 12.5039 17.8359 11.8359 17.0273 11.8359C16.207 11.8359 15.5508 12.5039 15.5508 13.3125C15.5508 14.1211 16.207 14.8008 17.0273 14.8008ZM18.4219 19.4414C19.3711 19.4414 20.1562 18.668 20.1562 17.7188C20.1562 16.7695 19.3711 15.9961 18.4219 15.9961C17.4844 15.9961 16.6992 16.7695 16.6992 17.7188C16.6992 18.668 17.4844 19.4414 18.4219 19.4414ZM17.0273 23.4492C17.7773 23.4492 18.3867 22.8398 18.3867 22.0898C18.3867 21.3281 17.7773 20.7188 17.0273 20.7188C16.2656 20.7188 15.6562 21.3281 15.6562 22.0898C15.6562 22.8398 16.2656 23.4492 17.0273 23.4492ZM8.12109 1.94531L8.91797 2.23828C9.42188 2.41406 9.62109 2.68359 9.52734 3.10547L9.38672 3.69141L11.1094 3.67969L11.1914 3.08203C11.3203 1.94531 10.793 1.10156 9.63281 0.691406L8.70703 0.316406C7.54688-0.0820312 6.99609 1.61719 8.12109 1.94531ZM18.4453 1.94531C19.5703 1.61719 19.0195-0.0820312 17.8594 0.316406L16.9336 0.691406C15.7734 1.10156 15.2461 1.94531 15.375 3.08203L15.457 3.67969L17.1797 3.69141L17.0391 3.10547C16.9453 2.68359 17.1445 2.41406 17.6484 2.23828ZM5.97656 10.0898L3.79688 8.23828C3.36328 7.875 2.80078 7.82812 2.4375 8.26172C2.08594 8.68359 2.21484 9.25781 2.64844 9.60938L4.86328 11.4727ZM3.84375 15.6211L0.960938 15.6328C0.375 15.6328 0 15.9961 0 16.5234C0 17.0625 0.375 17.4258 0.972656 17.4258L3.84375 17.4141ZM4.79297 22.4766L2.60156 24.3164C2.17969 24.668 2.05078 25.2305 2.40234 25.6641C2.76562 26.0977 3.31641 26.0508 3.76172 25.6875L5.91797 23.8594ZM20.5781 10.0898L21.7031 11.4727L23.918 9.60938C24.3398 9.25781 24.4805 8.68359 24.1289 8.26172C23.7656 7.82812 23.2031 7.875 22.7695 8.23828ZM22.7227 15.6211L22.7227 17.4141L25.5938 17.4258C26.1797 17.4258 26.5664 17.0625 26.5664 16.5234C26.5664 15.9961 26.1797 15.6328 25.6055 15.6328ZM21.7617 22.4766L20.6367 23.8477L22.8047 25.6875C23.2383 26.0508 23.8008 26.0977 24.1641 25.6641C24.5156 25.2305 24.3867 24.668 23.9531 24.3164Z" fill="black" fill-opacity="0.85"/>
 </g>
</svg>
