<?xml version="1.0" encoding="UTF-8"?>
<!--Generator: Apple Native CoreSVG 360-->
<!DOCTYPE svg
PUBLIC "-//W3C//DTD SVG 1.1//EN"
       "http://www.w3.org/Graphics/SVG/1.1/DTD/svg11.dtd">
<svg version="1.1" xmlns="http://www.w3.org/2000/svg" xmlns:xlink="http://www.w3.org/1999/xlink" viewBox="0 0 18.2475 28.8633">
 <g>
  <rect height="28.8633" opacity="0" width="18.2475" x="0" y="0"/>
  <path d="M8.95384 15.9141C11.5202 15.9141 14.0515 15.7617 16.1257 15.457C17.7429 15.2109 18.2234 14.0273 17.6843 12.3516L14.5906 2.55469C14.0398 0.796875 12.6335 0 10.7234 0L7.17259 0C5.26243 0 3.85618 0.796875 3.3054 2.55469L0.211649 12.3516C-0.327414 14.0273 0.153055 15.2109 1.77024 15.457C3.84446 15.7617 6.37571 15.9141 8.95384 15.9141ZM8.95384 14.1914C6.79759 14.1914 4.71165 14.0742 2.42649 13.8164C1.79368 13.7461 1.72337 13.3711 1.92259 12.7148L4.87571 3.23438C5.19212 2.20312 6.03587 1.71094 7.17259 1.71094L10.7234 1.71094C11.8601 1.71094 12.7038 2.20312 13.032 3.23438L15.9734 12.7148C16.1726 13.3711 16.1023 13.7461 15.4695 13.8164C13.1843 14.0742 11.0984 14.1914 8.95384 14.1914ZM8.00462 15.2695L8.00462 27.9844L9.89134 27.9844L9.89134 15.2695ZM3.6804 28.793L14.2156 28.793C14.6491 28.793 14.9421 28.4883 14.9421 28.0312C14.9421 27.1406 14.2156 26.5195 13.1023 26.5195L4.79368 26.5195C3.6804 26.5195 2.96556 27.1406 2.96556 28.0312C2.96556 28.4883 3.24681 28.793 3.6804 28.793Z" fill="black" fill-opacity="0.85"/>
 </g>
</svg>
