<?xml version="1.0" encoding="UTF-8"?>
<!--Generator: Apple Native CoreSVG 360-->
<!DOCTYPE svg
PUBLIC "-//W3C//DTD SVG 1.1//EN"
       "http://www.w3.org/Graphics/SVG/1.1/DTD/svg11.dtd">
<svg version="1.1" xmlns="http://www.w3.org/2000/svg" xmlns:xlink="http://www.w3.org/1999/xlink" viewBox="0 0 18.468 28.3711">
 <g>
  <rect height="28.3711" opacity="0" width="18.468" x="0" y="0"/>
  <path d="M9.05821 13.8516C11.6246 13.8516 14.191 13.6875 16.3004 13.3711C17.9293 13.1367 18.527 11.8945 17.8238 10.2773L14.3434 2.4375C13.6168 0.785156 12.4098 0 10.5699 0L7.53477 0C5.70665 0 4.49961 0.785156 3.77305 2.4375L0.292583 10.2773C-0.410542 11.8945 0.175395 13.1367 1.81602 13.3711C3.91368 13.6875 6.48008 13.8516 9.05821 13.8516ZM9.05821 12.1289C6.9254 12.1289 4.8043 12.0117 2.47227 11.7422C1.81602 11.6719 1.71055 11.2852 1.9918 10.6523L5.31993 3.14062C5.75352 2.16797 6.46836 1.71094 7.53477 1.71094L10.5699 1.71094C11.6363 1.71094 12.3629 2.16797 12.7965 3.14062L16.1246 10.6523C16.4059 11.2852 16.2887 11.6719 15.6441 11.7422C13.3121 12.0117 11.1793 12.1289 9.05821 12.1289ZM8.07383 15.5977L10.0309 15.5977L10.0309 13.3359L8.07383 13.3359ZM7.25352 28.3594L10.8512 28.3594C13.8746 28.3594 15.6559 26.8008 15.6559 24.1641C15.6559 22.5117 15.1402 20.0508 14.2379 17.5664C13.7106 16.125 12.5738 15.2812 10.9566 15.2812L7.14805 15.2812C5.53086 15.2812 4.39415 16.125 3.8668 17.5664C2.97618 20.0508 2.44883 22.5117 2.44883 24.1641C2.44883 26.8008 4.23008 28.3594 7.25352 28.3594ZM7.25352 26.6484C5.29649 26.6484 4.14805 25.7227 4.14805 24.1641C4.14805 22.6875 4.64024 20.4492 5.46055 18.1523C5.71836 17.4258 6.26915 16.9922 7.14805 16.9922L10.9566 16.9922C11.8356 16.9922 12.3863 17.4258 12.6441 18.1523C13.4645 20.4492 13.9566 22.6875 13.9566 24.1641C13.9566 25.7227 12.8082 26.6484 10.8512 26.6484Z" fill="black" fill-opacity="0.85"/>
 </g>
</svg>
