<?xml version="1.0" encoding="UTF-8"?>
<!--Generator: Apple Native CoreSVG 360-->
<!DOCTYPE svg
PUBLIC "-//W3C//DTD SVG 1.1//EN"
       "http://www.w3.org/Graphics/SVG/1.1/DTD/svg11.dtd">
<svg version="1.1" xmlns="http://www.w3.org/2000/svg" xmlns:xlink="http://www.w3.org/1999/xlink" viewBox="0 0 18.5625 25.1367">
 <g>
  <rect height="25.1367" opacity="0" width="18.5625" x="0" y="0"/>
  <path d="M0 21.457C0 23.9062 1.20703 25.125 3.63281 25.125L14.5898 25.125C17.0039 25.125 18.2109 23.9062 18.2109 21.457L18.2109 3.67969C18.2109 1.24219 17.0039 0 14.5898 0L3.63281 0C1.20703 0 0 1.24219 0 3.67969ZM1.88672 21.4219L1.88672 3.71484C1.88672 2.54297 2.50781 1.88672 3.72656 1.88672L14.4844 1.88672C15.7031 1.88672 16.3242 2.54297 16.3242 3.71484L16.3242 21.4219C16.3242 22.5938 15.7031 23.2383 14.4844 23.2383L3.72656 23.2383C2.50781 23.2383 1.88672 22.5938 1.88672 21.4219ZM6.31641 4.74609L11.9062 4.74609C12.3281 4.74609 12.668 4.40625 12.668 3.98438C12.668 3.5625 12.3281 3.22266 11.9062 3.22266L6.31641 3.22266C5.90625 3.22266 5.55469 3.5625 5.55469 3.98438C5.55469 4.40625 5.90625 4.74609 6.31641 4.74609Z" fill="black" fill-opacity="0.85"/>
 </g>
</svg>
