<?xml version="1.0" encoding="UTF-8"?>
<!--Generator: Apple Native CoreSVG 360-->
<!DOCTYPE svg
PUBLIC "-//W3C//DTD SVG 1.1//EN"
       "http://www.w3.org/Graphics/SVG/1.1/DTD/svg11.dtd">
<svg version="1.1" xmlns="http://www.w3.org/2000/svg" xmlns:xlink="http://www.w3.org/1999/xlink" viewBox="0 0 34.1484 19.0898">
 <g>
  <rect height="19.0898" opacity="0" width="34.1484" x="0" y="0"/>
  <path d="M0 17.7539C0 18.4922 0.597656 19.0898 1.32422 19.0898L32.4727 19.0898C33.1992 19.0898 33.7969 18.4922 33.7969 17.7539C33.7969 17.0156 33.1992 16.418 32.4727 16.418L29.9062 16.418L29.9062 2.50781C29.9062 0.867188 29.0273 0.0234375 27.3984 0.0234375L6.39844 0.0234375C4.85156 0.0234375 3.89062 0.867188 3.89062 2.50781L3.89062 16.418L1.32422 16.418C0.597656 16.418 0 17.0156 0 17.7539ZM5.77734 16.418L5.77734 3.03516C5.77734 2.28516 6.15234 1.91016 6.90234 1.91016L26.8945 1.91016C27.6445 1.91016 28.0195 2.28516 28.0195 3.03516L28.0195 16.418Z" fill="black" fill-opacity="0.85"/>
  <path d="M13.0898 9.04688C13.3477 9.31641 13.7461 9.30469 14.0039 9.04688L16.5352 6.52734C16.8047 6.25781 16.8164 5.85938 16.5352 5.58984C16.2773 5.33203 15.8789 5.33203 15.6211 5.60156L13.1016 8.12109C12.8203 8.37891 12.8203 8.78906 13.0898 9.04688ZM13.1953 13.0781C13.4648 13.3359 13.8633 13.3242 14.1211 13.0781L20.5547 6.64453C20.8242 6.36328 20.8359 5.97656 20.5664 5.70703C20.3086 5.44922 19.8984 5.44922 19.6406 5.71875L13.207 12.1523C12.9375 12.4102 12.9375 12.8086 13.1953 13.0781ZM17.2266 13.1953C17.4844 13.4531 17.8945 13.4414 18.1406 13.1953L20.6719 10.6523C20.9414 10.3945 20.9531 9.98438 20.6836 9.72656C20.4258 9.45703 20.0156 9.46875 19.7578 9.73828L17.2383 12.2578C16.9688 12.5156 16.957 12.9258 17.2266 13.1953Z" fill="black" fill-opacity="0.85"/>
 </g>
</svg>
