<?xml version="1.0" encoding="UTF-8"?>
<!--Generator: Apple Native CoreSVG 360-->
<!DOCTYPE svg
PUBLIC "-//W3C//DTD SVG 1.1//EN"
       "http://www.w3.org/Graphics/SVG/1.1/DTD/svg11.dtd">
<svg version="1.1" xmlns="http://www.w3.org/2000/svg" xmlns:xlink="http://www.w3.org/1999/xlink" viewBox="0 0 34.1484 27.1523">
 <g>
  <rect height="27.1523" opacity="0" width="34.1484" x="0" y="0"/>
  <path d="M29.9062 6.53906L29.9062 20.4492L32.4727 20.4492C33.1992 20.4492 33.7969 21.0469 33.7969 21.7852C33.7969 22.5234 33.1992 23.1211 32.4727 23.1211L1.32422 23.1211C0.597656 23.1211 0 22.5234 0 21.7852C0 21.0469 0.597656 20.4492 1.32422 20.4492L3.89062 20.4492L3.89062 6.53906C3.89062 4.89844 4.85156 4.05469 6.39844 4.05469L13.7695 4.05469L13.7695 5.94141L6.90234 5.94141C6.15234 5.94141 5.77734 6.31641 5.77734 7.06641L5.77734 20.4492L28.0195 20.4492L28.0195 7.06641C28.0195 6.31641 27.6445 5.94141 26.8945 5.94141L20.0273 5.94141L20.0273 4.05469L27.3984 4.05469C29.0273 4.05469 29.9062 4.89844 29.9062 6.53906Z" fill="black" fill-opacity="0.85"/>
  <path d="M12.9258 10.1836C12.4336 10.1836 12.082 10.5352 12.082 11.0039C12.082 11.2617 12.1758 11.4492 12.3516 11.625L16.2188 15.3516C16.4531 15.5859 16.6641 15.6562 16.8984 15.6562C17.1328 15.6562 17.3438 15.5859 17.5781 15.3516L21.4336 11.625C21.6094 11.4492 21.7148 11.2617 21.7148 11.0039C21.7148 10.5352 21.3516 10.1836 20.8594 10.1836C20.6367 10.1836 20.3906 10.2773 20.2266 10.4648L18.4102 12.3984L16.8984 14.0156L15.375 12.3984L13.5703 10.4648C13.4062 10.2773 13.1484 10.1836 12.9258 10.1836ZM16.8984 0C16.3945 0 15.9727 0.421875 15.9727 0.914062L15.9727 11.3438L16.1133 14.4961C16.1367 14.9297 16.4648 15.2812 16.8984 15.2812C17.332 15.2812 17.6602 14.9297 17.6836 14.4961L17.8242 11.3438L17.8242 0.914062C17.8242 0.421875 17.4023 0 16.8984 0Z" fill="black" fill-opacity="0.85"/>
 </g>
</svg>
