<?xml version="1.0" encoding="UTF-8"?>
<!--Generator: Apple Native CoreSVG 360-->
<!DOCTYPE svg
PUBLIC "-//W3C//DTD SVG 1.1//EN"
       "http://www.w3.org/Graphics/SVG/1.1/DTD/svg11.dtd">
<svg version="1.1" xmlns="http://www.w3.org/2000/svg" xmlns:xlink="http://www.w3.org/1999/xlink" viewBox="0 0 28.582 23.5195">
 <g>
  <rect height="23.5195" opacity="0" width="28.582" x="0" y="0"/>
  <path d="M28.2305 14.1094C28.2305 10.6641 26.9883 7.48828 24.9141 5.02734C24.6797 4.74609 24.2812 4.74609 24.0234 5.01562L21.3047 7.73438C21.082 7.95703 21.0703 8.27344 21.2695 8.51953C22.4766 10.0664 23.2031 12.0117 23.2031 14.1094C23.2031 16.2188 22.4766 18.1641 21.1992 19.793C21.0352 19.9922 21.0469 20.25 21.2227 20.4375L24.0117 23.2266C24.2812 23.4961 24.668 23.4961 24.9141 23.2031C26.9883 20.7422 28.2305 17.5664 28.2305 14.1094Z" fill="black" fill-opacity="0.85"/>
  <path d="M14.1094 5.02734C16.2305 5.02734 18.1758 5.76562 19.7344 6.97266C19.9688 7.16016 20.2734 7.13672 20.4961 6.91406L23.2148 4.19531C23.4844 3.92578 23.4727 3.53906 23.1914 3.30469C20.7422 1.24219 17.5664 0 14.1094 0C10.6641 0 7.48828 1.24219 5.03906 3.30469C4.75781 3.53906 4.74609 3.92578 5.01562 4.19531L7.73438 6.91406C7.95703 7.13672 8.27344 7.16016 8.53125 6.96094C10.0781 5.76562 12.0117 5.02734 14.1094 5.02734Z" fill="black" fill-opacity="0.85"/>
  <path d="M0 14.1094C0 17.5664 1.24219 20.7422 3.31641 23.2031C3.55078 23.4961 3.94922 23.4961 4.20703 23.2266L6.99609 20.4375C7.17188 20.25 7.19531 19.9922 7.03125 19.793C5.75391 18.1641 5.02734 16.2188 5.02734 14.1094C5.02734 12.0117 5.74219 10.0664 6.96094 8.51953C7.14844 8.27344 7.14844 7.95703 6.92578 7.73438L4.20703 5.01562C3.9375 4.74609 3.55078 4.74609 3.31641 5.02734C1.24219 7.48828 0 10.6641 0 14.1094Z" fill="black" fill-opacity="0.85"/>
  <path d="M9.70312 19.4766L17.7422 19.4766C18.082 19.4766 18.3281 19.2422 18.3281 18.9141C18.3281 18.5859 18.082 18.3516 17.7422 18.3516L15.1172 18.3516C12.3516 18.3516 10.4766 16.3242 10.4766 13.9688C10.4766 11.6016 12.0938 10.2539 14.168 10.2539C16.1836 10.2539 17.7656 11.6367 17.8242 13.4531C17.8359 13.8516 18.0703 14.1328 18.4688 14.1328C18.8438 14.1328 19.0898 13.8398 19.0898 13.4531C19.0781 10.9453 16.7695 9.05859 14.168 9.05859C11.3438 9.05859 9.15234 10.9922 9.15234 13.7461C9.15234 15.6211 10.0547 17.4727 11.8242 18.3281L11.8242 18.3633L9.70312 18.3633C9.36328 18.3633 9.12891 18.5859 9.12891 18.9141C9.12891 19.2422 9.36328 19.4766 9.70312 19.4766ZM12.9961 13.9922C13.2422 13.9922 13.4062 13.8281 13.4062 13.582L13.4062 8.07422C13.4062 7.85156 13.2422 7.6875 12.9961 7.6875C12.7734 7.6875 12.6094 7.85156 12.6094 8.07422L12.6094 13.582C12.6094 13.8281 12.7734 13.9922 12.9961 13.9922ZM15.375 13.9922C15.6094 13.9922 15.7734 13.8281 15.7734 13.582L15.7734 8.07422C15.7734 7.85156 15.6094 7.6875 15.375 7.6875C15.1406 7.6875 14.9766 7.85156 14.9766 8.07422L14.9766 13.582C14.9766 13.8281 15.1406 13.9922 15.375 13.9922Z" fill="black" fill-opacity="0.85"/>
 </g>
</svg>
