<?xml version="1.0" encoding="UTF-8"?>
<!--Generator: Apple Native CoreSVG 360-->
<!DOCTYPE svg
PUBLIC "-//W3C//DTD SVG 1.1//EN"
       "http://www.w3.org/Graphics/SVG/1.1/DTD/svg11.dtd">
<svg version="1.1" xmlns="http://www.w3.org/2000/svg" xmlns:xlink="http://www.w3.org/1999/xlink" viewBox="0 0 26.5195 25.0195">
 <g>
  <rect height="25.0195" opacity="0" width="26.5195" x="0" y="0"/>
  <path d="M1.55859 22.2188L24.6094 22.2188L24.6094 21.4336C24.6094 20.9648 24.3398 20.6836 23.8594 20.6836L23.1094 20.6836L23.1094 8.03906L24.1406 8.03906C24.7852 8.03906 25.1602 7.57031 25.1602 7.08984C25.1602 6.73828 24.9609 6.43359 24.5273 6.1875L14.5195 0.410156C14.0508 0.140625 13.5586 0 13.0781 0C12.5977 0 12.0938 0.140625 11.6484 0.410156L1.64062 6.1875C1.19531 6.43359 1.00781 6.73828 1.00781 7.08984C1.00781 7.57031 1.38281 8.03906 2.02734 8.03906L3.05859 8.03906L3.05859 20.6836L2.32031 20.6836C1.83984 20.6836 1.55859 20.9648 1.55859 21.4336ZM4.82812 20.6836L4.82812 6.53906L12.6211 2.16797C12.7617 2.08594 12.9258 2.03906 13.0781 2.03906C13.2305 2.03906 13.3945 2.08594 13.5469 2.16797L21.3398 6.53906L21.3398 20.6836ZM0.9375 25.0078L25.2188 25.0078C25.7344 25.0078 26.168 24.5742 26.168 24.0586C26.168 23.543 25.7344 23.1211 25.2188 23.1211L0.9375 23.1211C0.421875 23.1211 0 23.543 0 24.0586C0 24.5742 0.421875 25.0078 0.9375 25.0078Z" fill="black" fill-opacity="0.85"/>
  <path d="M8.69531 17.543L16.7344 17.543C17.0742 17.543 17.3203 17.3086 17.3203 16.9805C17.3203 16.6523 17.0742 16.418 16.7344 16.418L14.0977 16.418C11.3438 16.418 9.46875 14.3906 9.46875 12.0352C9.46875 9.66797 11.0742 8.32031 13.1602 8.32031C15.1641 8.32031 16.7578 9.70312 16.8164 11.5195C16.8281 11.918 17.0625 12.1992 17.4492 12.1992C17.8359 12.1992 18.082 11.9062 18.082 11.5195C18.0703 9.01172 15.7617 7.125 13.1602 7.125C10.3359 7.125 8.13281 9.05859 8.13281 11.8125C8.13281 13.6875 9.04688 15.5391 10.8047 16.3945L10.8047 16.4297L8.69531 16.4297C8.35547 16.4297 8.10938 16.6523 8.10938 16.9805C8.10938 17.3086 8.35547 17.543 8.69531 17.543ZM11.9883 12.0469C12.2227 12.0469 12.3867 11.8945 12.3867 11.6484L12.3867 6.14062C12.3867 5.91797 12.2227 5.75391 11.9883 5.75391C11.7656 5.75391 11.6016 5.91797 11.6016 6.14062L11.6016 11.6484C11.6016 11.8945 11.7656 12.0469 11.9883 12.0469ZM14.3555 12.0469C14.5898 12.0469 14.7539 11.8945 14.7539 11.6484L14.7539 6.14062C14.7539 5.91797 14.5898 5.75391 14.3555 5.75391C14.1328 5.75391 13.9688 5.91797 13.9688 6.14062L13.9688 11.6484C13.9688 11.8945 14.1328 12.0469 14.3555 12.0469Z" fill="black" fill-opacity="0.85"/>
 </g>
</svg>
