<?xml version="1.0" encoding="UTF-8"?>
<!--Generator: Apple Native CoreSVG 360-->
<!DOCTYPE svg
PUBLIC "-//W3C//DTD SVG 1.1//EN"
       "http://www.w3.org/Graphics/SVG/1.1/DTD/svg11.dtd">
<svg version="1.1" xmlns="http://www.w3.org/2000/svg" xmlns:xlink="http://www.w3.org/1999/xlink" viewBox="0 0 28.582 23.4085">
 <g>
  <rect height="23.4085" opacity="0" width="28.582" x="0" y="0"/>
  <path d="M28.2305 14.0539C28.2305 6.67105 22.5586 0.612457 15.3398 0.00308175C14.9648-0.0320745 14.6836 0.237457 14.6836 0.612457L14.6836 4.44449C14.6836 4.76089 14.9062 5.00699 15.2227 5.03043C19.7109 5.58121 23.2031 9.41324 23.2031 14.0539C23.2031 16.1632 22.4766 18.1086 21.1992 19.7375C21.0352 19.9367 21.0469 20.1945 21.2227 20.382L24.0234 23.1711C24.2812 23.4289 24.6797 23.4289 24.9141 23.1476C26.9883 20.6867 28.2305 17.5109 28.2305 14.0539Z" fill="black" fill-opacity="0.85"/>
  <path d="M0 14.0539C0 17.5226 1.24219 20.6984 3.31641 23.1593C3.55078 23.4406 3.9375 23.4289 4.20703 23.1711L7.00781 20.382C7.18359 20.1945 7.19531 19.9367 7.03125 19.7375C5.74219 18.1086 5.02734 16.1632 5.02734 14.0539C5.02734 9.41324 8.51953 5.58121 13.0078 5.03043C13.3242 5.00699 13.5469 4.76089 13.5469 4.44449L13.5469 0.612457C13.5469 0.237457 13.2656-0.0320745 12.8906 0.00308175C5.67188 0.612457 0 6.67105 0 14.0539Z" fill="black" fill-opacity="0.85"/>
  <path d="M9.70312 19.4211L17.7422 19.4211C18.082 19.4211 18.3281 19.1867 18.3281 18.8586C18.3281 18.5304 18.082 18.2961 17.7422 18.2961L15.1172 18.2961C12.3516 18.2961 10.4766 16.2687 10.4766 13.9132C10.4766 11.5461 12.0938 10.1984 14.168 10.1984C16.1836 10.1984 17.7656 11.5812 17.8242 13.3976C17.8359 13.7961 18.0703 14.0773 18.4688 14.0773C18.8438 14.0773 19.0898 13.7843 19.0898 13.3976C19.0781 10.8898 16.7695 9.00308 14.168 9.00308C11.3438 9.00308 9.15234 10.9367 9.15234 13.6906C9.15234 15.5656 10.0547 17.4171 11.8242 18.2726L11.8242 18.3078L9.70312 18.3078C9.36328 18.3078 9.12891 18.5304 9.12891 18.8586C9.12891 19.1867 9.36328 19.4211 9.70312 19.4211ZM12.9961 13.9367C13.2422 13.9367 13.4062 13.7726 13.4062 13.5265L13.4062 8.01871C13.4062 7.79605 13.2422 7.63199 12.9961 7.63199C12.7734 7.63199 12.6094 7.79605 12.6094 8.01871L12.6094 13.5265C12.6094 13.7726 12.7734 13.9367 12.9961 13.9367ZM15.375 13.9367C15.6094 13.9367 15.7734 13.7726 15.7734 13.5265L15.7734 8.01871C15.7734 7.79605 15.6094 7.63199 15.375 7.63199C15.1406 7.63199 14.9766 7.79605 14.9766 8.01871L14.9766 13.5265C14.9766 13.7726 15.1406 13.9367 15.375 13.9367Z" fill="black" fill-opacity="0.85"/>
 </g>
</svg>
