<?xml version="1.0" encoding="UTF-8"?>
<!--Generator: Apple Native CoreSVG 360-->
<!DOCTYPE svg
PUBLIC "-//W3C//DTD SVG 1.1//EN"
       "http://www.w3.org/Graphics/SVG/1.1/DTD/svg11.dtd">
<svg version="1.1" xmlns="http://www.w3.org/2000/svg" xmlns:xlink="http://www.w3.org/1999/xlink" viewBox="0 0 20.1094 26.5195">
 <g>
  <rect height="26.5195" opacity="0" width="20.1094" x="0" y="0"/>
  <path d="M1.05469 23.6602L17.2266 23.6602C17.8125 23.6602 18.2344 23.25 18.2344 22.6875C18.2344 22.1133 17.8125 21.7266 17.2266 21.7266L11.6953 21.7266C6.53906 21.7266 2.33203 17.9062 2.33203 12.6328C2.33203 8.01562 5.36719 4.92188 10.0078 4.92188C14.0977 4.92188 17.5078 7.61719 17.6367 11.7188C17.6602 12.5039 18.0586 12.9258 18.7617 12.9258C19.4531 12.9258 19.8281 12.4922 19.8281 11.7305C19.8047 6.60938 15.3516 2.83594 10.0078 2.83594C4.57031 2.83594 0 6.57422 0 12.2812C0 16.4766 2.35547 20.1328 5.64844 21.668L5.64844 21.7266L1.05469 21.7266C0.410156 21.7266 0.0351562 22.1719 0.0351562 22.6992C0.0351562 23.2734 0.457031 23.6602 1.05469 23.6602ZM7.62891 12.6211C8.07422 12.6211 8.40234 12.3047 8.40234 11.8477L8.40234 0.773438C8.40234 0.316406 8.07422 0 7.62891 0C7.17188 0 6.85547 0.316406 6.85547 0.773438L6.85547 11.8477C6.85547 12.3047 7.17188 12.6211 7.62891 12.6211ZM12.457 12.6211C12.9023 12.6211 13.2305 12.3047 13.2305 11.8477L13.2305 0.773438C13.2305 0.316406 12.9023 0 12.457 0C12 0 11.6836 0.316406 11.6836 0.773438L11.6836 11.8477C11.6836 12.3047 12 12.6211 12.457 12.6211Z" fill="black" fill-opacity="0.85"/>
 </g>
</svg>
