<?xml version="1.0" encoding="UTF-8"?>
<!--Generator: Apple Native CoreSVG 360-->
<!DOCTYPE svg
PUBLIC "-//W3C//DTD SVG 1.1//EN"
       "http://www.w3.org/Graphics/SVG/1.1/DTD/svg11.dtd">
<svg version="1.1" xmlns="http://www.w3.org/2000/svg" xmlns:xlink="http://www.w3.org/1999/xlink" viewBox="0 0 28.2656 27.9258">
 <g>
  <rect height="27.9258" opacity="0" width="28.2656" x="0" y="0"/>
  <path d="M11.7972 13.9498L9.79719 14.7773L0.832031 14.7773C0.363281 14.7773 0 14.4141 0 13.957C0 13.5 0.363281 13.125 0.832031 13.125L9.8137 13.125ZM27.9141 13.957C27.9141 14.4141 27.5625 14.7773 27.0938 14.7773L18.0912 14.7773L16.111 13.955L18.1169 13.125L27.0938 13.125C27.5625 13.125 27.9141 13.5 27.9141 13.957Z" fill="black" fill-opacity="0.85"/>
  <path d="M14.7773 18.1038L14.7773 27.082C14.7773 27.5391 14.4141 27.9141 13.957 27.9141C13.5 27.9141 13.125 27.5391 13.125 27.082L13.125 18.1464L13.9615 16.1285ZM14.7773 0.820312L14.7773 9.788L13.9512 11.7821L13.125 9.78186L13.125 0.820312C13.125 0.351562 13.5 0 13.957 0C14.4141 0 14.7773 0.351562 14.7773 0.820312Z" fill="black" fill-opacity="0.85"/>
  <path d="M13.9615 16.1285L10.1836 25.2422C9.99609 25.6523 9.52734 25.8516 9.08203 25.6875C8.68359 25.5234 8.47266 25.043 8.63672 24.6094L11.5818 17.501L13.6677 15.4173ZM18.832 2.22656C19.2305 2.39062 19.4414 2.87109 19.2773 3.30469L16.3326 10.4085L14.2448 12.493L13.9512 11.7821L17.7305 2.66016C17.9062 2.26172 18.3867 2.0625 18.832 2.22656Z" fill="black" fill-opacity="0.85"/>
  <path d="M13.6677 15.4173L3.60938 25.4648C3.29297 25.7695 2.77734 25.7812 2.44922 25.4648C2.13281 25.1367 2.12109 24.6211 2.42578 24.293L10.4231 16.3085L13.5085 15.0318ZM25.4648 2.44922C25.7812 2.77734 25.7812 3.29297 25.4883 3.60938L17.4983 11.5908L14.4014 12.8722L14.2448 12.493L24.3047 2.44922C24.6211 2.14453 25.1367 2.13281 25.4648 2.44922Z" fill="black" fill-opacity="0.85"/>
  <path d="M13.3238 14.5846L13.5085 15.0318L3.30469 19.2539C2.87109 19.418 2.39062 19.2305 2.23828 18.8086C2.0625 18.375 2.26172 17.9062 2.66016 17.7305L11.7972 13.9498ZM25.6758 9.10547C25.8516 9.52734 25.6523 9.99609 25.2539 10.1719L16.111 13.955L14.5872 13.3222L14.4014 12.8722L24.6094 8.64844C25.043 8.48438 25.5234 8.68359 25.6758 9.10547Z" fill="black" fill-opacity="0.85"/>
  <path d="M25.2305 17.7422C25.6641 17.918 25.8516 18.375 25.6875 18.8086C25.5117 19.2305 25.043 19.4414 24.6094 19.2773L17.4699 16.3086L14.657 13.4912L14.5872 13.3222ZM3.30469 8.63672L10.445 11.602L13.2529 14.413L13.3238 14.5846L2.68359 10.1602C2.25 9.98438 2.0625 9.52734 2.22656 9.10547C2.40234 8.68359 2.87109 8.47266 3.30469 8.63672Z" fill="black" fill-opacity="0.85"/>
  <path d="M25.4648 24.3164C25.7812 24.6445 25.7812 25.1367 25.4648 25.4648C25.1367 25.7812 24.6211 25.7812 24.3047 25.4766L16.2959 17.4592L14.657 13.4912ZM3.60938 2.42578L11.6129 10.4422L13.2529 14.413L2.44922 3.59766C2.13281 3.26953 2.13281 2.77734 2.44922 2.44922C2.77734 2.13281 3.29297 2.12109 3.60938 2.42578Z" fill="black" fill-opacity="0.85"/>
  <path d="M17.7305 25.2539C17.9062 25.6641 18.3984 25.8516 18.8086 25.6758C19.2305 25.5234 19.418 25.0312 19.2539 24.6211L10.1836 2.66016C9.99609 2.25 9.51562 2.0625 9.10547 2.23828C8.68359 2.39062 8.48438 2.85938 8.66016 3.29297Z" fill="black" fill-opacity="0.85"/>
 </g>
</svg>
