<?xml version="1.0" encoding="UTF-8"?>
<!--Generator: Apple Native CoreSVG 360-->
<!DOCTYPE svg
PUBLIC "-//W3C//DTD SVG 1.1//EN"
       "http://www.w3.org/Graphics/SVG/1.1/DTD/svg11.dtd">
<svg version="1.1" xmlns="http://www.w3.org/2000/svg" xmlns:xlink="http://www.w3.org/1999/xlink" viewBox="0 0 27.4805 22.7227">
 <g>
  <rect height="22.7227" opacity="0" width="27.4805" x="0" y="0"/>
  <path d="M1.64062 11.6719L25.4883 11.6719L25.4883 9.90234L1.64062 9.90234ZM6.25781 13.2773L9.16406 13.2773C9.99609 13.2773 10.4648 12.8203 10.4648 12L10.4648 9.59766C10.4648 8.77734 9.99609 8.30859 9.16406 8.30859L6.25781 8.30859C5.4375 8.30859 4.96875 8.77734 4.96875 9.59766L4.96875 12C4.96875 12.8203 5.4375 13.2773 6.25781 13.2773ZM17.9531 13.2773L20.8594 13.2773C21.6914 13.2773 22.1602 12.8203 22.1602 12L22.1602 9.59766C22.1602 8.77734 21.6914 8.30859 20.8594 8.30859L17.9531 8.30859C17.1211 8.30859 16.6523 8.77734 16.6523 9.59766L16.6523 12C16.6523 12.8203 17.1211 13.2773 17.9531 13.2773ZM3.62109 22.7109L23.5078 22.7109C25.9336 22.7109 27.1289 21.5391 27.1289 19.1367L27.1289 7.73438C27.1289 5.33203 25.9336 4.16016 23.5078 4.16016L3.62109 4.16016C1.20703 4.16016 0 5.33203 0 7.73438L0 19.1367C0 21.5391 1.20703 22.7109 3.62109 22.7109ZM3.64453 20.8359C2.49609 20.8359 1.88672 20.25 1.88672 19.043L1.88672 7.82812C1.88672 6.63281 2.49609 6.03516 3.64453 6.03516L23.4844 6.03516C24.6328 6.03516 25.2422 6.63281 25.2422 7.82812L25.2422 19.043C25.2422 20.25 24.6328 20.8359 23.4844 20.8359ZM7.61719 5.17969L9.43359 5.17969L9.43359 3.10547C9.43359 2.21484 9.96094 1.71094 10.875 1.71094L16.2539 1.71094C17.168 1.71094 17.6836 2.21484 17.6836 3.10547L17.6836 5.15625L19.5 5.15625L19.5 3.23438C19.5 1.03125 18.3398 0 16.2188 0L10.8984 0C8.89453 0 7.61719 1.03125 7.61719 3.23438Z" fill="black" fill-opacity="0.85"/>
 </g>
</svg>
