<?xml version="1.0" encoding="UTF-8"?>
<!--Generator: Apple Native CoreSVG 360-->
<!DOCTYPE svg
PUBLIC "-//W3C//DTD SVG 1.1//EN"
       "http://www.w3.org/Graphics/SVG/1.1/DTD/svg11.dtd">
<svg version="1.1" xmlns="http://www.w3.org/2000/svg" xmlns:xlink="http://www.w3.org/1999/xlink" viewBox="0 0 27.3867 20.4492">
 <g>
  <rect height="20.4492" opacity="0" width="27.3867" x="0" y="0"/>
  <path d="M9.83203 20.4375L17.2031 20.4375C24 20.4375 27.0352 17.3086 27.0352 10.9102L27.0352 3.55078C27.0352 1.19531 25.8164 0 23.4375 0L3.59766 0C1.21875 0 0 1.19531 0 3.55078L0 10.9102C0 17.3086 3.03516 20.4375 9.83203 20.4375ZM9.83203 18.5508C4.30078 18.5508 1.88672 16.1484 1.88672 11.0273L1.88672 3.65625C1.88672 2.48438 2.49609 1.88672 3.64453 1.88672L23.3906 1.88672C24.5156 1.88672 25.1484 2.48438 25.1484 3.65625L25.1484 11.0273C25.1484 16.1484 22.7344 18.5508 17.1914 18.5508Z" fill="black" fill-opacity="0.85"/>
  <path d="M8.63672 14.9766L12.0117 14.9766C12.3984 14.9766 12.7266 14.6484 12.7266 14.2617C12.7266 13.875 12.3984 13.5469 12.0117 13.5469L9.50391 13.5469L9.50391 6.19922C9.50391 5.73047 9.11719 5.34375 8.64844 5.34375C8.19141 5.34375 7.80469 5.73047 7.80469 6.19922L7.80469 14.0859C7.80469 14.6367 8.10938 14.9766 8.63672 14.9766ZM14.7773 14.9766L17.2617 14.9766C18.9258 14.9766 19.875 13.875 19.875 12.3047C19.875 11.1562 19.1836 10.1133 18.0703 9.99609L18.0703 9.9375C18.9727 9.78516 19.582 8.78906 19.582 7.86328C19.582 6.35156 18.5742 5.49609 17.1914 5.49609L14.7773 5.49609C14.2266 5.49609 13.9336 5.88281 13.9336 6.38672L13.9336 14.0859C13.9336 14.625 14.2383 14.9766 14.7773 14.9766ZM15.6094 9.51562L15.6094 6.79688L16.7109 6.79688C17.5898 6.79688 17.9414 7.35938 17.9414 8.12109C17.9414 8.98828 17.4375 9.51562 16.5703 9.51562ZM15.6094 13.6758L15.6094 10.6641L16.6992 10.6641C17.5664 10.6641 18.1523 11.1328 18.1523 12.1641C18.1523 13.1133 17.6953 13.6758 16.7461 13.6758Z" fill="black" fill-opacity="0.85"/>
 </g>
</svg>
