<?xml version="1.0" encoding="UTF-8"?>
<!--Generator: Apple Native CoreSVG 360-->
<!DOCTYPE svg
PUBLIC "-//W3C//DTD SVG 1.1//EN"
       "http://www.w3.org/Graphics/SVG/1.1/DTD/svg11.dtd">
<svg version="1.1" xmlns="http://www.w3.org/2000/svg" xmlns:xlink="http://www.w3.org/1999/xlink" viewBox="0 0 24.2578 23.918">
 <g>
  <rect height="23.918" opacity="0" width="24.2578" x="0" y="0"/>
  <path d="M11.9531 23.9062C18.5508 23.9062 23.9062 18.5508 23.9062 11.9531C23.9062 5.35547 18.5508 0 11.9531 0C5.35547 0 0 5.35547 0 11.9531C0 18.5508 5.35547 23.9062 11.9531 23.9062ZM11.9531 21.9141C6.44531 21.9141 1.99219 17.4609 1.99219 11.9531C1.99219 6.44531 6.44531 1.99219 11.9531 1.99219C17.4609 1.99219 21.9141 6.44531 21.9141 11.9531C21.9141 17.4609 17.4609 21.9141 11.9531 21.9141Z" fill="black" fill-opacity="0.85"/>
  <path d="M7.05469 16.6992L10.4297 16.6992C10.8164 16.6992 11.1445 16.3828 11.1445 15.9844C11.1445 15.5977 10.8164 15.2812 10.4297 15.2812L7.92188 15.2812L7.92188 7.92188C7.92188 7.46484 7.53516 7.07812 7.07812 7.07812C6.60938 7.07812 6.22266 7.46484 6.22266 7.92188L6.22266 15.8203C6.22266 16.3711 6.52734 16.6992 7.05469 16.6992ZM13.1953 16.7109L15.6797 16.7109C17.3438 16.7109 18.293 15.6094 18.293 14.0273C18.293 12.8906 17.6016 11.8359 16.4883 11.7305L16.4883 11.6719C17.3906 11.5078 18 10.5234 18 9.58594C18 8.08594 16.9922 7.23047 15.6094 7.23047L13.1953 7.23047C12.6445 7.23047 12.3516 7.60547 12.3516 8.12109L12.3516 15.8203C12.3516 16.3594 12.6562 16.7109 13.1953 16.7109ZM14.0273 11.25L14.0273 8.53125L15.1289 8.53125C16.0078 8.53125 16.3594 9.09375 16.3594 9.85547C16.3594 10.7227 15.8555 11.25 14.9883 11.25ZM14.0273 15.4102L14.0273 12.3984L15.1172 12.3984C15.9844 12.3984 16.582 12.8555 16.582 13.8984C16.582 14.8359 16.1133 15.4102 15.1641 15.4102Z" fill="black" fill-opacity="0.85"/>
 </g>
</svg>
