<?xml version="1.0" encoding="UTF-8"?>
<!--Generator: Apple Native CoreSVG 360-->
<!DOCTYPE svg
PUBLIC "-//W3C//DTD SVG 1.1//EN"
       "http://www.w3.org/Graphics/SVG/1.1/DTD/svg11.dtd">
<svg version="1.1" xmlns="http://www.w3.org/2000/svg" xmlns:xlink="http://www.w3.org/1999/xlink" viewBox="0 0 14.543 19.582">
 <g>
  <rect height="19.582" opacity="0" width="14.543" x="0" y="0"/>
  <path d="M0 18.5273C0 19.1133 0.480469 19.582 1.04297 19.582L13.1484 19.582C13.7109 19.582 14.1914 19.1133 14.1914 18.5273C14.1914 17.9531 13.7109 17.4844 13.1484 17.4844L1.04297 17.4844C0.480469 17.4844 0 17.9531 0 18.5273ZM12.5859 13.6172C13.1719 13.6172 13.582 13.207 13.582 12.5625C13.582 12.0234 13.2773 11.7305 12.8203 11.5195L2.76562 6.83203L2.76562 6.70312L12.8203 2.19141C13.2891 1.98047 13.582 1.66406 13.582 1.125C13.582 0.503906 13.1602 0.0820312 12.5391 0.0820312C12.2344 0.0820312 12.0117 0.164062 11.8008 0.269531L1.19531 5.30859C0.515625 5.625 0 6.11719 0 6.85547C0 7.60547 0.515625 8.07422 1.19531 8.40234L11.8008 13.418C12.0352 13.5352 12.2578 13.6172 12.5859 13.6172Z" fill="black" fill-opacity="0.85"/>
 </g>
</svg>
