<?xml version="1.0" encoding="UTF-8"?>
<!--Generator: Apple Native CoreSVG 360-->
<!DOCTYPE svg
PUBLIC "-//W3C//DTD SVG 1.1//EN"
       "http://www.w3.org/Graphics/SVG/1.1/DTD/svg11.dtd">
<svg version="1.1" xmlns="http://www.w3.org/2000/svg" xmlns:xlink="http://www.w3.org/1999/xlink" viewBox="0 0 29.0156 12.7148">
 <g>
  <rect height="12.7148" opacity="0" width="29.0156" x="0" y="0"/>
  <path d="M5.89453 10.8281L4.76953 10.8281L4.76953 1.89844L5.89453 1.89844ZM23.8945 10.8281L22.7695 10.8281L22.7695 1.89844L23.8945 1.89844ZM14.332 6.90234C10.9987 6.90234 8.4816 4.93487 7.9902 1.89844L9.24493 1.89844C9.66706 4.29006 11.6792 5.83594 14.332 5.83594C16.974 5.83594 18.9853 4.29006 19.4074 1.89844L20.664 1.89844C20.1825 4.93487 17.6654 6.90234 14.332 6.90234Z" fill="black" fill-opacity="0.85"/>
  <path d="M3.17578 12.7148L25.4883 12.7148C27.5859 12.7148 28.6641 11.6367 28.6641 9.5625L28.6641 3.16406C28.6641 1.08984 27.5742 0.0117188 25.4766 0.0117188L3.16406 0.0117188C1.06641 0.0117188 0 1.08984 0 3.16406L0 9.5625C0 11.6367 1.07812 12.7148 3.17578 12.7148ZM3.45703 10.8281C2.46094 10.8281 1.88672 10.2773 1.88672 9.22266L1.88672 3.50391C1.88672 2.44922 2.46094 1.89844 3.46875 1.89844L25.1953 1.89844C26.2031 1.89844 26.7656 2.44922 26.7656 3.50391L26.7656 9.22266C26.7656 10.2773 26.2031 10.8281 25.1836 10.8281ZM14.332 4.10156C15.9258 4.10156 17.0977 3.10547 17.2266 1.59375L11.4375 1.59375C11.5547 3.10547 12.7266 4.10156 14.332 4.10156Z" fill="black" fill-opacity="0.85"/>
 </g>
</svg>
