<?xml version="1.0" encoding="UTF-8"?>
<!--Generator: Apple Native CoreSVG 360-->
<!DOCTYPE svg
PUBLIC "-//W3C//DTD SVG 1.1//EN"
       "http://www.w3.org/Graphics/SVG/1.1/DTD/svg11.dtd">
<svg version="1.1" xmlns="http://www.w3.org/2000/svg" xmlns:xlink="http://www.w3.org/1999/xlink" viewBox="0 0 20.7539 29.2852">
 <g>
  <rect height="29.2852" opacity="0" width="20.7539" x="0" y="0"/>
  <path d="M11.5078 24.3047C11.5078 25.8633 12.3867 26.7422 13.9453 26.7422L17.9531 26.7422C19.5117 26.7422 20.4023 25.8633 20.4023 24.293L20.4023 5.01562C20.4023 3.44531 19.5117 2.56641 17.9531 2.56641L13.9453 2.56641C12.3867 2.56641 11.5078 3.44531 11.5078 5.00391ZM13.2773 24.1406L13.2773 5.16797C13.2773 4.62891 13.5938 4.33594 14.1328 4.33594L17.7891 4.33594C18.3281 4.33594 18.6328 4.62891 18.6328 5.16797L18.6328 24.1406C18.6328 24.668 18.3281 24.9727 17.7891 24.9727L14.1328 24.9727C13.5938 24.9727 13.2773 24.668 13.2773 24.1406ZM13.3594 25.875L13.3594 28.5C13.3594 28.9336 13.6992 29.2617 14.1328 29.2617C14.5664 29.2617 14.9062 28.9336 14.9062 28.5L14.9062 25.875ZM17.0039 25.875L17.0039 28.5C17.0039 28.9336 17.332 29.2617 17.7656 29.2617C18.1992 29.2617 18.5508 28.9336 18.5508 28.5L18.5508 25.875ZM15.9492 8.23828C16.5469 8.23828 17.0156 7.75781 17.0156 7.17188C17.0156 6.58594 16.5469 6.10547 15.9492 6.10547C15.3633 6.10547 14.8945 6.58594 14.8945 7.17188C14.8945 7.75781 15.3633 8.23828 15.9492 8.23828ZM15.9492 11.9766C16.5469 11.9766 17.0156 11.4961 17.0156 10.9102C17.0156 10.3242 16.5469 9.84375 15.9492 9.84375C15.3633 9.84375 14.8945 10.3242 14.8945 10.9102C14.8945 11.4961 15.3633 11.9766 15.9492 11.9766ZM15.9492 15.7031C16.5469 15.7031 17.0156 15.2344 17.0156 14.6484C17.0156 14.0625 16.5469 13.582 15.9492 13.582C15.3633 13.582 14.8945 14.0625 14.8945 14.6484C14.8945 15.2344 15.3633 15.7031 15.9492 15.7031ZM15.9492 19.4414C16.5469 19.4414 17.0156 18.9609 17.0156 18.375C17.0156 17.7891 16.5469 17.3203 15.9492 17.3203C15.3633 17.3203 14.8945 17.7891 14.8945 18.375C14.8945 18.9609 15.3633 19.4414 15.9492 19.4414ZM15.9492 23.1797C16.5469 23.1797 17.0156 22.6992 17.0156 22.1133C17.0156 21.5273 16.5469 21.0469 15.9492 21.0469C15.3633 21.0469 14.8945 21.5273 14.8945 22.1133C14.8945 22.6992 15.3633 23.1797 15.9492 23.1797Z" fill="black" fill-opacity="0.85"/>
  <path d="M0 24.2695C0 25.8281 0.878906 26.707 2.42578 26.707L6.44531 26.707C7.99219 26.707 8.88281 25.8281 8.88281 24.2578L8.88281 4.98047C8.88281 3.41016 7.99219 2.53125 6.44531 2.53125L2.42578 2.53125C0.878906 2.53125 0 3.41016 0 4.96875ZM1.76953 24.1055L1.76953 5.13281C1.76953 4.59375 2.08594 4.30078 2.625 4.30078L6.26953 4.30078C6.80859 4.30078 7.11328 4.59375 7.11328 5.13281L7.11328 24.1055C7.11328 24.6328 6.80859 24.9375 6.26953 24.9375L2.625 24.9375C2.08594 24.9375 1.76953 24.6328 1.76953 24.1055ZM1.85156 3.39844L3.39844 3.39844L3.39844 0.773438C3.39844 0.339844 3.04688 0 2.61328 0C2.17969 0 1.85156 0.339844 1.85156 0.773438ZM5.48438 3.39844L7.03125 3.39844L7.03125 0.773438C7.03125 0.339844 6.69141 0 6.25781 0C5.82422 0 5.48438 0.339844 5.48438 0.773438ZM4.44141 8.22656C5.02734 8.22656 5.50781 7.74609 5.50781 7.16016C5.50781 6.57422 5.02734 6.09375 4.44141 6.09375C3.85547 6.09375 3.38672 6.57422 3.38672 7.16016C3.38672 7.74609 3.85547 8.22656 4.44141 8.22656ZM4.44141 11.9531C5.02734 11.9531 5.50781 11.4844 5.50781 10.8984C5.50781 10.3008 5.02734 9.83203 4.44141 9.83203C3.85547 9.83203 3.38672 10.3008 3.38672 10.8984C3.38672 11.4844 3.85547 11.9531 4.44141 11.9531ZM4.44141 15.6797C5.02734 15.6797 5.50781 15.2109 5.50781 14.625C5.50781 14.0391 5.02734 13.5703 4.44141 13.5703C3.85547 13.5703 3.38672 14.0391 3.38672 14.625C3.38672 15.2109 3.85547 15.6797 4.44141 15.6797ZM4.44141 19.4297C5.02734 19.4297 5.50781 18.9492 5.50781 18.3633C5.50781 17.7773 5.02734 17.2969 4.44141 17.2969C3.85547 17.2969 3.38672 17.7773 3.38672 18.3633C3.38672 18.9492 3.85547 19.4297 4.44141 19.4297ZM4.44141 23.1562C5.02734 23.1562 5.50781 22.6875 5.50781 22.1016C5.50781 21.5039 5.02734 21.0352 4.44141 21.0352C3.85547 21.0352 3.38672 21.5039 3.38672 22.1016C3.38672 22.6875 3.85547 23.1562 4.44141 23.1562Z" fill="black" fill-opacity="0.85"/>
 </g>
</svg>
