<?xml version="1.0" encoding="UTF-8"?>
<!--Generator: Apple Native CoreSVG 360-->
<!DOCTYPE svg
PUBLIC "-//W3C//DTD SVG 1.1//EN"
       "http://www.w3.org/Graphics/SVG/1.1/DTD/svg11.dtd">
<svg version="1.1" xmlns="http://www.w3.org/2000/svg" xmlns:xlink="http://www.w3.org/1999/xlink" viewBox="0 0 17.5312 25.9336">
 <g>
  <rect height="25.9336" opacity="0" width="17.5312" x="0" y="0"/>
  <path d="M3.63281 25.9219L13.5469 25.9219C15.9609 25.9219 17.1797 24.6914 17.1797 22.2539L17.1797 3.67969C17.1797 1.23047 15.9609 0 13.5469 0L3.63281 0C1.20703 0 0 1.23047 0 3.67969L0 22.2539C0 24.6914 1.20703 25.9219 3.63281 25.9219ZM3.72656 24.0352C2.50781 24.0352 1.88672 23.3906 1.88672 22.2188L1.88672 3.71484C1.88672 2.54297 2.50781 1.88672 3.72656 1.88672L13.4414 1.88672C14.6602 1.88672 15.293 2.54297 15.293 3.71484L15.293 22.2188C15.293 23.3906 14.6602 24.0352 13.4414 24.0352Z" fill="black" fill-opacity="0.85"/>
  <path d="M4.51172 10.875L12.6094 10.875C13.3594 10.875 13.6641 10.582 13.6641 9.84375L13.6641 4.52344C13.6641 3.78516 13.3594 3.49219 12.6094 3.49219L4.51172 3.49219C3.77344 3.49219 3.46875 3.78516 3.46875 4.52344L3.46875 9.84375C3.46875 10.582 3.77344 10.875 4.51172 10.875Z" fill="black" fill-opacity="0.85"/>
 </g>
</svg>
