<?xml version="1.0" encoding="UTF-8"?>
<!--Generator: Apple Native CoreSVG 360-->
<!DOCTYPE svg
PUBLIC "-//W3C//DTD SVG 1.1//EN"
       "http://www.w3.org/Graphics/SVG/1.1/DTD/svg11.dtd">
<svg version="1.1" xmlns="http://www.w3.org/2000/svg" xmlns:xlink="http://www.w3.org/1999/xlink" viewBox="0 0 24.2578 23.8711">
 <g>
  <rect height="23.8711" opacity="0" width="24.2578" x="0" y="0"/>
  <path d="M23.9062 11.9297C23.9062 10.0195 23.4375 8.22656 22.6055 6.63281L22.6055 17.2383C23.4375 15.6445 23.9062 13.8281 23.9062 11.9297Z" fill="black" fill-opacity="0.85"/>
  <path d="M20.0977 20.625C20.5664 20.1914 21 19.7109 21.3984 19.207L21.3984 4.66406C21 4.16016 20.5664 3.66797 20.0977 3.23438Z" fill="black" fill-opacity="0.85"/>
  <path d="M17.5781 22.4414C18.0352 22.207 18.4688 21.9258 18.8789 21.6328L18.8789 2.22656C18.4688 1.93359 18.0352 1.65234 17.5781 1.41797Z" fill="black" fill-opacity="0.85"/>
  <path d="M15.0703 23.4609C15.5039 23.332 15.9492 23.1914 16.3711 23.0156L16.3711 0.84375C15.9492 0.667969 15.5039 0.527344 15.0703 0.410156Z" fill="black" fill-opacity="0.85"/>
  <path d="M12.5508 23.8594C12.9961 23.8477 13.4297 23.8008 13.8516 23.7305L13.8516 0.140625C13.4297 0.0585938 12.9961 0.0117188 12.5508 0Z" fill="black" fill-opacity="0.85"/>
  <path d="M10.0547 23.7305C10.4766 23.8008 10.9102 23.8477 11.3555 23.8594L11.3555 0C10.9102 0.0117188 10.4766 0.0585938 10.0547 0.128906Z" fill="black" fill-opacity="0.85"/>
  <path d="M7.53516 23.0156C7.95703 23.1914 8.40234 23.332 8.83594 23.4609L8.83594 0.398438C8.40234 0.515625 7.95703 0.667969 7.53516 0.832031Z" fill="black" fill-opacity="0.85"/>
  <path d="M5.02734 21.6328C5.44922 21.9258 5.87109 22.207 6.32812 22.4414L6.32812 1.40625C5.87109 1.64062 5.44922 1.92188 5.02734 2.21484Z" fill="black" fill-opacity="0.85"/>
  <path d="M2.50781 19.207C2.90625 19.7109 3.33984 20.1914 3.80859 20.625L3.80859 3.22266C3.33984 3.65625 2.90625 4.14844 2.50781 4.65234Z" fill="black" fill-opacity="0.85"/>
  <path d="M0 11.9297C0 13.8281 0.46875 15.6445 1.30078 17.2383L1.30078 6.62109C0.46875 8.21484 0 10.0195 0 11.9297Z" fill="black" fill-opacity="0.85"/>
 </g>
</svg>
