<?xml version="1.0" encoding="UTF-8"?>
<!--Generator: Apple Native CoreSVG 360-->
<!DOCTYPE svg
PUBLIC "-//W3C//DTD SVG 1.1//EN"
       "http://www.w3.org/Graphics/SVG/1.1/DTD/svg11.dtd">
<svg version="1.1" xmlns="http://www.w3.org/2000/svg" xmlns:xlink="http://www.w3.org/1999/xlink" viewBox="0 0 29.1562 24.1758">
 <g>
  <rect height="24.1758" opacity="0" width="29.1562" x="0" y="0"/>
  <path d="M12.2227 13.5234L12.979 13.4898L20.0039 20.4961C20.4023 20.8828 20.3789 21.3984 20.0039 21.7852C19.6172 22.1602 19.1016 22.1719 18.7031 21.7852L10.3063 13.3662C10.9186 13.4733 11.56 13.5234 12.2227 13.5234ZM22.8516 17.6484C23.2383 18.0352 23.2266 18.5625 22.8516 18.9492C22.4531 19.3242 21.9375 19.3359 21.5508 18.9492L15.6368 13.0274C16.282 12.8387 16.8902 12.5884 17.4586 12.2839ZM25.6758 14.8125C26.0742 15.1992 26.0508 15.7266 25.6758 16.1133C25.3008 16.4883 24.7734 16.5 24.3867 16.1133L19.2954 11.0153C19.7591 10.6254 20.1759 10.185 20.5444 9.70145ZM28.5234 11.9766C28.9102 12.3633 28.8984 12.8906 28.5234 13.2773C28.1367 13.6523 27.6094 13.6641 27.2227 13.2773L21.7157 7.76314C22.0015 7.17309 22.2241 6.53824 22.3788 5.86431Z" fill="black" fill-opacity="0.85"/>
  <path d="M0.902344 3.82031L23.5547 3.80859C24.0469 3.80859 24.457 3.39844 24.457 2.90625C24.457 2.41406 24.0469 1.98047 23.5547 1.98047L0.902344 1.99219C0.398438 1.99219 0 2.42578 0 2.90625C0 3.39844 0.410156 3.82031 0.902344 3.82031ZM12.2227 11.9297C17.5312 11.9297 21.1641 8.25 21.1172 2.92969L19.3125 2.92969C19.3359 7.17188 16.4531 10.1016 12.2227 10.1016C8.00391 10.1016 5.10938 7.17188 5.13281 2.92969L3.31641 2.92969C3.29297 8.25 6.92578 11.9297 12.2227 11.9297Z" fill="black" fill-opacity="0.85"/>
 </g>
</svg>
