<?xml version="1.0" encoding="UTF-8"?>
<!--Generator: Apple Native CoreSVG 360-->
<!DOCTYPE svg
PUBLIC "-//W3C//DTD SVG 1.1//EN"
       "http://www.w3.org/Graphics/SVG/1.1/DTD/svg11.dtd">
<svg version="1.1" xmlns="http://www.w3.org/2000/svg" xmlns:xlink="http://www.w3.org/1999/xlink" viewBox="0 0 24.2695 25.7461">
 <g>
  <rect height="25.7461" opacity="0" width="24.2695" x="0" y="0"/>
  <path d="M6.43359 24.3398C4.875 24.3398 3.5625 23.5078 3.53906 22.3125L9.33984 22.3125C9.31641 23.5078 7.98047 24.3398 6.43359 24.3398ZM10.1016 20.7539C10.1016 21.1289 9.79688 21.4102 9.42188 21.4102L3.43359 21.4102C3.05859 21.4102 2.77734 21.1172 2.77734 20.7539C2.77734 20.3789 3.05859 20.0859 3.43359 20.0859L9.42188 20.0859C9.79688 20.0859 10.1016 20.3672 10.1016 20.7539ZM10.4144 2.91976C10.081 3.35925 9.80617 3.8403 9.60204 4.35585C8.76337 3.74221 7.67938 3.38672 6.49219 3.38672C3.82031 3.38672 1.65234 5.20312 1.65234 7.69922C1.65234 10.3945 3.39844 10.8984 4.27734 17.543L8.70703 17.543C9.11916 14.4683 9.71195 12.7085 10.2289 11.4443C10.5322 12.1569 10.8643 12.9192 11.1783 13.836C10.7721 15.017 10.4038 16.4903 10.207 18.5391C10.1719 18.9141 9.96094 19.1836 9.52734 19.1836L3.46875 19.1836C3.03516 19.1836 2.8125 18.9141 2.78906 18.5391C2.17969 12.3164 0 11.4023 0 7.69922C0 4.35938 2.84766 1.73438 6.49219 1.73438C7.98315 1.73438 9.3377 2.17088 10.4144 2.91976Z" fill="black" fill-opacity="0.85"/>
  <path d="M16.5 0C12.3633 0 9.10547 3.01172 9.10547 6.84375C9.10547 11.0859 11.6484 12.1406 12.3516 19.4648C12.3867 19.875 12.6094 20.1328 13.043 20.1328L19.9688 20.1328C20.4023 20.1328 20.625 19.875 20.6602 19.4648C21.3633 12.1406 23.918 11.0859 23.918 6.84375C23.918 3.01172 20.6484 0 16.5 0ZM16.5 1.72266C19.582 1.72266 22.1953 3.87891 22.1953 6.84375C22.1953 9.99609 20.1094 10.7109 19.0898 18.4102L13.9219 18.4102C12.9023 10.7109 10.8281 9.99609 10.8281 6.84375C10.8281 3.87891 13.4297 1.72266 16.5 1.72266ZM13.0195 22.5234L20.0039 22.5234C20.3789 22.5234 20.6836 22.2422 20.6836 21.8555C20.6836 21.4688 20.3789 21.1875 20.0039 21.1875L13.0195 21.1875C12.6328 21.1875 12.3516 21.4688 12.3516 21.8555C12.3516 22.2422 12.6328 22.5234 13.0195 22.5234ZM16.5117 25.7344C18.2344 25.7344 19.6875 24.8672 19.7812 23.5781L13.2422 23.5781C13.3125 24.8672 14.7773 25.7344 16.5117 25.7344Z" fill="black" fill-opacity="0.85"/>
 </g>
</svg>
