<?xml version="1.0" encoding="UTF-8"?>
<!--Generator: Apple Native CoreSVG 360-->
<!DOCTYPE svg
PUBLIC "-//W3C//DTD SVG 1.1//EN"
       "http://www.w3.org/Graphics/SVG/1.1/DTD/svg11.dtd">
<svg version="1.1" xmlns="http://www.w3.org/2000/svg" xmlns:xlink="http://www.w3.org/1999/xlink" viewBox="0 0 19.4414 26.543">
 <g>
  <rect height="26.543" opacity="0" width="19.4414" x="0" y="0"/>
  <path d="M0 4.6875C0 8.76562 6.28125 12.1289 6.28125 19.0312L6.28125 20.0391C6.28125 20.4492 6.50391 20.6719 6.92578 20.6719L12.1641 20.6719C12.5859 20.6719 12.8086 20.4492 12.8086 20.0391L12.8086 19.0312C12.8086 12.0938 19.0898 8.85938 19.0898 4.6875C19.0898 1.67578 15.5859 0 9.55078 0C3.50391 0 0 1.67578 0 4.6875ZM1.76953 4.6875C1.76953 3.05859 4.41797 1.76953 9.55078 1.76953C14.6719 1.76953 17.3203 3.05859 17.3203 4.6875C17.3203 7.46484 11.0508 11.7891 11.0508 18.4805L11.0508 19.6641L12.0234 18.9023L7.06641 18.9023L8.03906 19.6641L8.03906 18.4805C8.03906 11.8008 1.76953 7.44141 1.76953 4.6875ZM1.16016 7.01953L17.9414 7.01953L17.9414 5.48438L1.16016 5.48438ZM6.66797 23.2031L12.4336 23.2031C12.8086 23.2031 13.1133 22.9102 13.1133 22.5234C13.1133 22.1367 12.8086 21.8438 12.4336 21.8438L6.66797 21.8438C6.28125 21.8438 5.97656 22.1367 5.97656 22.5234C5.97656 22.9102 6.28125 23.2031 6.66797 23.2031ZM9.55078 26.543C11.1328 26.543 12.2578 25.6992 12.5039 24.3633L6.58594 24.3633C6.80859 25.6992 7.93359 26.543 9.55078 26.543Z" fill="black" fill-opacity="0.85"/>
 </g>
</svg>
