<?xml version="1.0" encoding="UTF-8"?>
<!--Generator: Apple Native CoreSVG 360-->
<!DOCTYPE svg
PUBLIC "-//W3C//DTD SVG 1.1//EN"
       "http://www.w3.org/Graphics/SVG/1.1/DTD/svg11.dtd">
<svg version="1.1" xmlns="http://www.w3.org/2000/svg" xmlns:xlink="http://www.w3.org/1999/xlink" viewBox="0 0 29.1562 21.9258">
 <g>
  <rect height="21.9258" opacity="0" width="29.1562" x="0" y="0"/>
  <path d="M3.67969 21.9141L25.125 21.9141C27.5859 21.9141 28.8047 20.6953 28.8047 18.2812L28.8047 3.63281C28.8047 1.21875 27.5859 0 25.125 0L3.67969 0C1.23047 0 0 1.20703 0 3.63281L0 18.2812C0 20.707 1.23047 21.9141 3.67969 21.9141ZM3.70312 20.0273C2.53125 20.0273 1.88672 19.3945 1.88672 18.1875L1.88672 3.72656C1.88672 2.50781 2.53125 1.88672 3.70312 1.88672L25.1016 1.88672C26.2617 1.88672 26.918 2.50781 26.918 3.72656L26.918 18.1875C26.918 19.3945 26.2617 20.0273 25.1016 20.0273Z" fill="black" fill-opacity="0.85"/>
  <path d="M4.51172 18.4219L24.293 18.4219C24.9492 18.4219 25.3242 18.0352 25.3242 17.3789L25.3242 4.53516C25.3242 3.86719 24.9492 3.48047 24.293 3.48047L4.51172 3.48047C3.85547 3.48047 3.49219 3.86719 3.49219 4.53516L3.49219 17.3789C3.49219 18.0352 3.85547 18.4219 4.51172 18.4219ZM5.34375 16.8867C5.13281 16.8867 5.02734 16.7812 5.02734 16.5703L5.02734 5.34375C5.02734 5.12109 5.13281 5.01562 5.34375 5.01562L23.4609 5.01562C23.6836 5.01562 23.7891 5.12109 23.7891 5.34375L23.7891 16.5703C23.7891 16.7812 23.6836 16.8867 23.4609 16.8867Z" fill="black" fill-opacity="0.85"/>
 </g>
</svg>
