<?xml version="1.0" encoding="UTF-8"?>
<!--Generator: Apple Native CoreSVG 360-->
<!DOCTYPE svg
PUBLIC "-//W3C//DTD SVG 1.1//EN"
       "http://www.w3.org/Graphics/SVG/1.1/DTD/svg11.dtd">
<svg version="1.1" xmlns="http://www.w3.org/2000/svg" xmlns:xlink="http://www.w3.org/1999/xlink" viewBox="0 0 29.1564 24.1758">
 <g>
  <rect height="24.1758" opacity="0" width="29.1564" x="0" y="0"/>
  <path d="M10.1016 21.7852C9.70319 22.1719 9.18757 22.1602 8.80085 21.7852C8.42585 21.3984 8.41413 20.8828 8.80085 20.4961L15.8257 13.4898C16.0713 13.5159 16.3251 13.5234 16.5821 13.5234C17.2446 13.5234 17.886 13.4733 18.4984 13.3663ZM13.168 13.0274L7.25397 18.9492C6.86726 19.3359 6.35163 19.3242 5.96491 18.9492C5.57819 18.5625 5.56647 18.0352 5.96491 17.6484L11.3491 12.2856C11.9166 12.5893 12.5239 12.839 13.168 13.0274ZM9.50935 11.0153L4.41804 16.1133C4.03132 16.5 3.51569 16.4883 3.12897 16.1133C2.75397 15.7266 2.74226 15.1992 3.12897 14.8125L8.26036 9.70145C8.62883 10.185 9.04562 10.6254 9.50935 11.0153ZM7.08904 7.76314L1.5821 13.2773C1.19538 13.6641 0.668037 13.6523 0.281319 13.2773C-0.0819626 12.8906-0.1054 12.3633 0.281319 11.9766L6.426 5.86431C6.58067 6.53824 6.80324 7.17309 7.08904 7.76314Z" fill="black" fill-opacity="0.85"/>
  <path d="M27.9024 3.82031C28.3946 3.82031 28.8048 3.39844 28.8048 2.90625C28.8048 2.42578 28.4063 1.99219 27.9024 1.99219L5.25007 1.98047C4.75788 1.98047 4.34772 2.41406 4.34772 2.90625C4.34772 3.39844 4.75788 3.80859 5.25007 3.80859ZM16.5821 11.9297C21.8907 11.9297 25.5118 8.25 25.4883 2.92969L23.6719 2.92969C23.6954 7.17188 20.8008 10.1016 16.5821 10.1016C12.3516 10.1016 9.46882 7.17188 9.49226 2.92969L7.68757 2.92969C7.64069 8.25 11.2735 11.9297 16.5821 11.9297Z" fill="black" fill-opacity="0.85"/>
 </g>
</svg>
