<?xml version="1.0" encoding="UTF-8"?>
<!--Generator: Apple Native CoreSVG 360-->
<!DOCTYPE svg
PUBLIC "-//W3C//DTD SVG 1.1//EN"
       "http://www.w3.org/Graphics/SVG/1.1/DTD/svg11.dtd">
<svg version="1.1" xmlns="http://www.w3.org/2000/svg" xmlns:xlink="http://www.w3.org/1999/xlink" viewBox="0 0 21.375 24.4805">
 <g>
  <rect height="24.4805" opacity="0" width="21.375" x="0" y="0"/>
  <path d="M4.66406 23.2734C4.66406 24.0586 5.07422 24.4688 5.84766 24.4688L15.1641 24.4688C15.9492 24.4688 16.3594 24.0586 16.3594 23.2734C16.3594 22.4883 15.9492 22.0781 15.1641 22.0781L5.84766 22.0781C5.07422 22.0781 4.66406 22.4883 4.66406 23.2734Z" fill="black" fill-opacity="0.85"/>
  <path d="M7.62891 17.7422C7.62891 18.5273 8.02734 18.9375 8.8125 18.9375L12.2109 18.9375C12.9844 18.9375 13.3945 18.5273 13.3945 17.7422C13.3945 16.9805 12.9844 16.5703 12.2109 16.5703L8.8125 16.5703C8.02734 16.5703 7.62891 16.9805 7.62891 17.7422Z" fill="black" fill-opacity="0.85"/>
  <path d="M0 12.2344C0 13.0195 0.410156 13.418 1.19531 13.418L19.8281 13.418C20.6133 13.418 21.0234 13.0195 21.0234 12.2344C21.0234 11.4492 20.6133 11.0391 19.8281 11.0391L1.19531 11.0391C0.410156 11.0391 0 11.4492 0 12.2344Z" fill="black" fill-opacity="0.85"/>
  <path d="M7.62891 6.71484C7.62891 7.48828 8.02734 7.89844 8.8125 7.89844L12.2109 7.89844C12.9844 7.89844 13.3945 7.48828 13.3945 6.71484C13.3945 5.94141 12.9844 5.53125 12.2109 5.53125L8.8125 5.53125C8.02734 5.53125 7.62891 5.94141 7.62891 6.71484Z" fill="black" fill-opacity="0.85"/>
  <path d="M4.66406 1.19531C4.66406 1.96875 5.07422 2.37891 5.84766 2.37891L15.1641 2.37891C15.9492 2.37891 16.3594 1.96875 16.3594 1.19531C16.3594 0.410156 15.9492 0 15.1641 0L5.84766 0C5.07422 0 4.66406 0.410156 4.66406 1.19531Z" fill="black" fill-opacity="0.85"/>
 </g>
</svg>
