<?xml version="1.0" encoding="UTF-8"?>
<!--Generator: Apple Native CoreSVG 360-->
<!DOCTYPE svg
PUBLIC "-//W3C//DTD SVG 1.1//EN"
       "http://www.w3.org/Graphics/SVG/1.1/DTD/svg11.dtd">
<svg version="1.1" xmlns="http://www.w3.org/2000/svg" xmlns:xlink="http://www.w3.org/1999/xlink" viewBox="0 0 27.2344 21.0352">
 <g>
  <rect height="21.0352" opacity="0" width="27.2344" x="0" y="0"/>
  <path d="M25.6758 16.3711C26.4727 16.3711 26.8828 15.9609 26.8828 15.1758L26.8828 5.85938C26.8828 5.07422 26.4727 4.66406 25.6758 4.66406C24.8906 4.66406 24.4805 5.07422 24.4805 5.85938L24.4805 15.1758C24.4805 15.9609 24.8906 16.3711 25.6758 16.3711Z" fill="black" fill-opacity="0.85"/>
  <path d="M19.5586 13.418C20.3438 13.418 20.7539 13.0078 20.7539 12.2109L20.7539 8.82422C20.7539 8.02734 20.3438 7.61719 19.5586 7.61719C18.7734 7.61719 18.3633 8.02734 18.3633 8.82422L18.3633 12.2109C18.3633 13.0078 18.7734 13.418 19.5586 13.418Z" fill="black" fill-opacity="0.85"/>
  <path d="M13.4414 21.0352C14.2266 21.0352 14.6484 20.625 14.6484 19.8398L14.6484 1.19531C14.6484 0.410156 14.2266 0 13.4414 0C12.6562 0 12.2344 0.410156 12.2344 1.19531L12.2344 19.8398C12.2344 20.625 12.6562 21.0352 13.4414 21.0352Z" fill="black" fill-opacity="0.85"/>
  <path d="M7.32422 13.418C8.10938 13.418 8.51953 13.0078 8.51953 12.2109L8.51953 8.82422C8.51953 8.02734 8.10938 7.61719 7.32422 7.61719C6.53906 7.61719 6.12891 8.02734 6.12891 8.82422L6.12891 12.2109C6.12891 13.0078 6.53906 13.418 7.32422 13.418Z" fill="black" fill-opacity="0.85"/>
  <path d="M1.20703 16.3711C1.99219 16.3711 2.40234 15.9609 2.40234 15.1758L2.40234 5.85938C2.40234 5.07422 1.99219 4.66406 1.20703 4.66406C0.410156 4.66406 0 5.07422 0 5.85938L0 15.1758C0 15.9609 0.410156 16.3711 1.20703 16.3711Z" fill="black" fill-opacity="0.85"/>
 </g>
</svg>
