<?xml version="1.0" encoding="UTF-8"?>
<!--Generator: Apple Native CoreSVG 360-->
<!DOCTYPE svg
PUBLIC "-//W3C//DTD SVG 1.1//EN"
       "http://www.w3.org/Graphics/SVG/1.1/DTD/svg11.dtd">
<svg version="1.1" xmlns="http://www.w3.org/2000/svg" xmlns:xlink="http://www.w3.org/1999/xlink" viewBox="0 0 19.084 18.9896">
 <g>
  <rect height="18.9896" opacity="0" width="19.084" x="0" y="0"/>
  <path d="M9.71777 3.28974L15.4248 9.02021C15.8818 9.46553 16.4795 9.20771 16.6553 8.55146L18.7061 0.957713C18.8584 0.360057 18.3428-0.13213 17.7686 0.0319322L10.1865 2.07099C9.53027 2.24678 9.26074 2.83271 9.71777 3.28974ZM1.6084 18.4421L16.0225 4.05146C16.3975 3.68818 16.3857 3.07881 16.0225 2.71553C15.6592 2.35224 15.0615 2.35224 14.6982 2.71553L0.272461 17.1062C-0.0908203 17.4694-0.0908203 18.0788 0.272461 18.4421C0.635742 18.8054 1.24512 18.8054 1.6084 18.4421Z" fill="black" fill-opacity="0.85"/>
 </g>
</svg>
