<?xml version="1.0" encoding="UTF-8"?>
<!--Generator: Apple Native CoreSVG 360-->
<!DOCTYPE svg
PUBLIC "-//W3C//DTD SVG 1.1//EN"
       "http://www.w3.org/Graphics/SVG/1.1/DTD/svg11.dtd">
<svg version="1.1" xmlns="http://www.w3.org/2000/svg" xmlns:xlink="http://www.w3.org/1999/xlink" viewBox="0 0 21.5111 21.2318">
 <g>
  <rect height="21.2318" opacity="0" width="21.5111" x="0" y="0"/>
  <path d="M12.1442 3.36784L17.8513 9.0983C18.3083 9.54362 18.9177 9.2858 19.0934 8.62955L21.1325 1.0358C21.2849 0.438149 20.7692-0.054039 20.195 0.110024L12.613 2.14909C11.9567 2.32487 11.6872 2.9108 12.1442 3.36784ZM4.03485 18.5085L18.4606 4.12955C18.8239 3.76627 18.8239 3.1569 18.4606 2.79362C18.0856 2.43034 17.488 2.43034 17.1247 2.79362L2.71064 17.1842C2.33564 17.5475 2.34735 18.1569 2.71064 18.5085C3.07392 18.8835 3.67157 18.8835 4.03485 18.5085ZM9.01532 17.946L3.30829 12.2155C2.85126 11.7585 2.2536 12.028 2.07782 12.6842L0.0270413 20.278C-0.125302 20.8639 0.390323 21.3561 0.964541 21.2038L8.54657 19.1647C9.20282 18.9889 9.47235 18.3913 9.01532 17.946Z" fill="black" fill-opacity="0.85"/>
 </g>
</svg>
