<?xml version="1.0" encoding="UTF-8"?>
<!--Generator: Apple Native CoreSVG 360-->
<!DOCTYPE svg
PUBLIC "-//W3C//DTD SVG 1.1//EN"
       "http://www.w3.org/Graphics/SVG/1.1/DTD/svg11.dtd">
<svg version="1.1" xmlns="http://www.w3.org/2000/svg" xmlns:xlink="http://www.w3.org/1999/xlink" viewBox="0 0 24.2578 23.918">
 <g>
  <rect height="23.918" opacity="0" width="24.2578" x="0" y="0"/>
  <path d="M11.9531 23.9062C18.5508 23.9062 23.9062 18.5508 23.9062 11.9531C23.9062 5.35547 18.5508 0 11.9531 0C5.35547 0 0 5.35547 0 11.9531C0 18.5508 5.35547 23.9062 11.9531 23.9062ZM11.9531 21.9141C6.44531 21.9141 1.99219 17.4609 1.99219 11.9531C1.99219 6.44531 6.44531 1.99219 11.9531 1.99219C17.4609 1.99219 21.9141 6.44531 21.9141 11.9531C21.9141 17.4609 17.4609 21.9141 11.9531 21.9141Z" fill="black" fill-opacity="0.85"/>
  <path d="M5.57812 11.2969L18.3516 11.2969C18.8672 11.2969 19.2422 10.957 19.2422 10.4648C19.2422 9.97266 18.8672 9.64453 18.3516 9.64453L5.57812 9.64453C5.05078 9.64453 4.6875 9.97266 4.6875 10.4648C4.6875 10.957 5.05078 11.2969 5.57812 11.2969ZM7.3125 15.1758L16.6172 15.1758C17.1328 15.1758 17.4961 14.8359 17.4961 14.3438C17.4961 13.8516 17.1328 13.5234 16.6172 13.5234L7.3125 13.5234C6.78516 13.5234 6.42188 13.8516 6.42188 14.3438C6.42188 14.8359 6.78516 15.1758 7.3125 15.1758Z" fill="black" fill-opacity="0.85"/>
 </g>
</svg>
