<?xml version="1.0" encoding="UTF-8"?>
<!--Generator: Apple Native CoreSVG 360-->
<!DOCTYPE svg
PUBLIC "-//W3C//DTD SVG 1.1//EN"
       "http://www.w3.org/Graphics/SVG/1.1/DTD/svg11.dtd">
<svg version="1.1" xmlns="http://www.w3.org/2000/svg" xmlns:xlink="http://www.w3.org/1999/xlink" viewBox="0 0 24.3398 18.9727">
 <g>
  <rect height="18.9727" opacity="0" width="24.3398" x="0" y="0"/>
  <path d="M22.9922 18.9727C23.5547 18.9727 23.9883 18.5391 23.9883 18L23.9883 7.61719C23.9883 7.07812 23.5547 6.63281 22.9922 6.63281C22.4297 6.63281 22.0078 7.07812 22.0078 7.61719L22.0078 18C22.0078 18.5391 22.4297 18.9727 22.9922 18.9727Z" fill="black" fill-opacity="0.85"/>
  <path d="M17.5078 18.9727C18.0586 18.9727 18.4805 18.5273 18.4805 17.9883L18.4805 12.5977C18.4805 12.0469 18.0586 11.5898 17.5078 11.5898C16.9453 11.5898 16.5 12.0469 16.5 12.5977L16.5 17.9883C16.5 18.5273 16.9453 18.9727 17.5078 18.9727Z" fill="black" fill-opacity="0.85"/>
  <path d="M11.9883 18.9727C12.5508 18.9727 12.9844 18.5391 12.9844 18L12.9844 7.61719C12.9844 7.07812 12.5508 6.63281 11.9883 6.63281C11.4258 6.63281 11.0039 7.07812 11.0039 7.61719L11.0039 18C11.0039 18.5391 11.4258 18.9727 11.9883 18.9727Z" fill="black" fill-opacity="0.85"/>
  <path d="M6.50391 18.9727C7.05469 18.9727 7.47656 18.5273 7.47656 17.9883L7.47656 12.5977C7.47656 12.0469 7.05469 11.5898 6.50391 11.5898C5.94141 11.5898 5.49609 12.0469 5.49609 12.5977L5.49609 17.9883C5.49609 18.5273 5.94141 18.9727 6.50391 18.9727Z" fill="black" fill-opacity="0.85"/>
  <path d="M0.984375 18.9727C1.54688 18.9727 1.98047 18.5391 1.98047 18L1.98047 7.61719C1.98047 7.07812 1.54688 6.63281 0.984375 6.63281C0.421875 6.63281 0 7.07812 0 7.61719L0 18C0 18.5391 0.421875 18.9727 0.984375 18.9727Z" fill="black" fill-opacity="0.85"/>
 </g>
</svg>
