<?xml version="1.0" encoding="UTF-8"?>
<!--Generator: Apple Native CoreSVG 360-->
<!DOCTYPE svg
PUBLIC "-//W3C//DTD SVG 1.1//EN"
       "http://www.w3.org/Graphics/SVG/1.1/DTD/svg11.dtd">
<svg version="1.1" xmlns="http://www.w3.org/2000/svg" xmlns:xlink="http://www.w3.org/1999/xlink" viewBox="0 0 28.582 23.4085">
 <g>
  <rect height="23.4085" opacity="0" width="28.582" x="0" y="0"/>
  <path d="M28.2305 14.0539C28.2305 6.67105 22.5586 0.612457 15.3398 0.00308175C14.9648-0.0320745 14.6836 0.237457 14.6836 0.612457L14.6836 4.44449C14.6836 4.76089 14.9062 5.00699 15.2227 5.03043C19.7109 5.58121 23.2031 9.41324 23.2031 14.0539C23.2031 16.1632 22.4766 18.1086 21.1992 19.7375C21.0352 19.9367 21.0469 20.1945 21.2227 20.382L24.0234 23.1711C24.2812 23.4289 24.6797 23.4289 24.9141 23.1476C26.9883 20.6867 28.2305 17.5109 28.2305 14.0539Z" fill="black" fill-opacity="0.85"/>
  <path d="M0 14.0539C0 17.5226 1.24219 20.6984 3.31641 23.1593C3.55078 23.4406 3.9375 23.4289 4.20703 23.1711L7.00781 20.382C7.18359 20.1945 7.19531 19.9367 7.03125 19.7375C5.74219 18.1086 5.02734 16.1632 5.02734 14.0539C5.02734 9.41324 8.51953 5.58121 13.0078 5.03043C13.3242 5.00699 13.5469 4.76089 13.5469 4.44449L13.5469 0.612457C13.5469 0.237457 13.2656-0.0320745 12.8906 0.00308175C5.67188 0.612457 0 6.67105 0 14.0539Z" fill="black" fill-opacity="0.85"/>
  <path d="M10.5469 19.2804L17.543 19.2804C17.8828 19.2804 18.1289 19.0343 18.1289 18.7062C18.1289 18.3781 17.8828 18.132 17.543 18.132L12.0703 18.132L12.0703 18.0734C12.8789 17.7687 13.3359 16.9484 13.4297 16.0109C13.4414 15.8937 13.4414 15.7882 13.4414 15.6593L16.3477 15.6593C16.5938 15.6593 16.793 15.4718 16.793 15.214C16.793 14.9679 16.5938 14.7804 16.3477 14.7804L13.3711 14.7804C13.2891 14.3 13.125 13.8781 13.0195 13.4211L16.3477 13.4211C16.5938 13.4211 16.793 13.2336 16.793 12.9875C16.793 12.7296 16.5938 12.5421 16.3477 12.5421L12.8789 12.5421C12.8555 12.425 12.8555 12.2843 12.8555 12.1554C12.8555 10.7609 13.9688 10.0461 15.3633 10.0461C15.8086 10.0461 16.3359 10.1281 16.6758 10.1984C16.8281 10.2453 16.9922 10.2804 17.1094 10.2804C17.4961 10.2804 17.625 10.0461 17.625 9.78824C17.625 9.47183 17.4258 9.28433 17.1328 9.16714C16.5352 8.90933 15.8203 8.88589 15.2344 8.88589C12.9961 8.88589 11.4609 10.0695 11.4609 12.1789C11.4609 12.3078 11.4609 12.425 11.4727 12.5421L10.3945 12.5421C10.1367 12.5421 9.9375 12.7296 9.9375 12.9875C9.9375 13.2336 10.1367 13.4211 10.3945 13.4211L11.6133 13.4211C11.7188 13.9015 11.8828 14.3234 11.9883 14.7804L10.3945 14.7804C10.1367 14.7804 9.9375 14.9679 9.9375 15.214C9.9375 15.4718 10.1367 15.6593 10.3945 15.6593L12.082 15.6593C12.0938 15.7882 12.0703 15.9757 12.0469 16.1281C11.8945 17.1359 11.2148 17.7687 10.4883 18.0148C10.1602 18.1203 9.94922 18.3078 9.94922 18.6828C9.94922 19.0695 10.2305 19.2804 10.5469 19.2804Z" fill="black" fill-opacity="0.85"/>
 </g>
</svg>
