<?xml version="1.0" encoding="UTF-8"?>
<!--Generator: Apple Native CoreSVG 360-->
<!DOCTYPE svg
PUBLIC "-//W3C//DTD SVG 1.1//EN"
       "http://www.w3.org/Graphics/SVG/1.1/DTD/svg11.dtd">
<svg version="1.1" xmlns="http://www.w3.org/2000/svg" xmlns:xlink="http://www.w3.org/1999/xlink" viewBox="0 0 16.4766 20.8477">
 <g>
  <rect height="20.8477" opacity="0" width="16.4766" x="0" y="0"/>
  <path d="M1.04297 20.8125L15.1289 20.8125C15.7383 20.8125 16.1836 20.4492 16.1836 19.8398C16.1836 19.207 15.7266 18.832 15.1289 18.832L3.79688 18.832L3.79688 18.7734C5.76562 18.1055 6.71484 15.7969 6.71484 13.7461C6.71484 10.6523 5.44922 9.50391 5.44922 6.46875C5.44922 3.5625 7.71094 2.03906 10.6641 2.03906C11.3906 2.03906 12.0234 2.12109 12.5977 2.26172C13.0312 2.34375 13.8164 2.55469 14.2148 2.55469C14.7773 2.55469 15.1172 2.22656 15.1172 1.66406C15.1172 1.11328 14.6719 0.773438 14.2031 0.585938C13.043 0.0820312 11.7188 0 10.4766 0C6.15234 0 3.07031 2.35547 3.07031 6.62109C3.07031 9.49219 4.41797 11.2852 4.41797 13.8398C4.41797 16.0312 3.21094 17.9297 0.949219 18.6211C0.375 18.8086 0 19.1367 0 19.793C0 20.3438 0.375 20.8125 1.04297 20.8125ZM0.0703125 11.8594C0.0703125 12.3516 0.433594 12.7148 0.9375 12.7148L12.668 12.7148C13.1719 12.7148 13.5469 12.3516 13.5469 11.8594C13.5469 11.3672 13.1719 10.9922 12.668 10.9922L0.9375 10.9922C0.433594 10.9922 0.0703125 11.3672 0.0703125 11.8594ZM0.0703125 9.09375C0.0703125 9.59766 0.433594 9.96094 0.9375 9.96094L12.668 9.96094C13.1719 9.96094 13.5469 9.58594 13.5469 9.09375C13.5469 8.60156 13.1719 8.23828 12.668 8.23828L0.9375 8.23828C0.433594 8.23828 0.0703125 8.60156 0.0703125 9.09375Z" fill="black" fill-opacity="0.85"/>
 </g>
</svg>
