<?xml version="1.0" encoding="UTF-8"?>
<!--Generator: Apple Native CoreSVG 360-->
<!DOCTYPE svg
PUBLIC "-//W3C//DTD SVG 1.1//EN"
       "http://www.w3.org/Graphics/SVG/1.1/DTD/svg11.dtd">
<svg version="1.1" xmlns="http://www.w3.org/2000/svg" xmlns:xlink="http://www.w3.org/1999/xlink" viewBox="0 0 26.5195 25.0195">
 <g>
  <rect height="25.0195" opacity="0" width="26.5195" x="0" y="0"/>
  <path d="M1.55859 22.2188L24.6094 22.2188L24.6094 21.4336C24.6094 20.9648 24.3398 20.6836 23.8594 20.6836L23.1094 20.6836L23.1094 8.03906L24.1406 8.03906C24.7852 8.03906 25.1602 7.57031 25.1602 7.08984C25.1602 6.73828 24.9609 6.43359 24.5273 6.1875L14.5195 0.410156C14.0508 0.140625 13.5586 0 13.0781 0C12.5977 0 12.0938 0.140625 11.6484 0.410156L1.64062 6.1875C1.19531 6.43359 1.00781 6.73828 1.00781 7.08984C1.00781 7.57031 1.38281 8.03906 2.02734 8.03906L3.05859 8.03906L3.05859 20.6836L2.32031 20.6836C1.83984 20.6836 1.55859 20.9648 1.55859 21.4336ZM4.82812 20.6836L4.82812 6.53906L12.6211 2.16797C12.7617 2.08594 12.9258 2.03906 13.0781 2.03906C13.2305 2.03906 13.3945 2.08594 13.5469 2.16797L21.3398 6.53906L21.3398 20.6836ZM0.9375 25.0078L25.2188 25.0078C25.7344 25.0078 26.168 24.5742 26.168 24.0586C26.168 23.543 25.7344 23.1211 25.2188 23.1211L0.9375 23.1211C0.421875 23.1211 0 23.543 0 24.0586C0 24.5742 0.421875 25.0078 0.9375 25.0078Z" fill="black" fill-opacity="0.85"/>
  <path d="M9.53906 17.4023L16.5234 17.4023C16.8633 17.4023 17.1094 17.1562 17.1094 16.8281C17.1094 16.5 16.8633 16.2539 16.5234 16.2539L11.0625 16.2539L11.0625 16.1953C11.8711 15.8906 12.3164 15.0703 12.4102 14.1328C12.4219 14.0156 12.4336 13.9102 12.4336 13.7812L15.3281 13.7812C15.5859 13.7812 15.7852 13.5938 15.7852 13.3359C15.7852 13.0898 15.5859 12.9023 15.3281 12.9023L12.3516 12.9023C12.2695 12.4219 12.1172 12 12.0117 11.543L15.3281 11.543C15.5859 11.543 15.7852 11.3555 15.7852 11.1094C15.7852 10.8516 15.5859 10.6641 15.3281 10.6641L11.8711 10.6641C11.8477 10.5469 11.8477 10.4062 11.8477 10.2773C11.8477 8.88281 12.9609 8.16797 14.3555 8.16797C14.8008 8.16797 15.3281 8.25 15.6562 8.32031C15.8086 8.36719 15.9844 8.40234 16.1016 8.40234C16.4766 8.40234 16.6172 8.16797 16.6172 7.91016C16.6172 7.59375 16.418 7.40625 16.125 7.28906C15.5273 7.03125 14.8125 6.99609 14.2148 6.99609C11.9883 6.99609 10.4531 8.19141 10.4531 10.3008C10.4531 10.4297 10.4531 10.5469 10.4648 10.6641L9.375 10.6641C9.12891 10.6641 8.92969 10.8516 8.92969 11.1094C8.92969 11.3555 9.12891 11.543 9.375 11.543L10.5938 11.543C10.7109 12.0234 10.8633 12.4453 10.9688 12.9023L9.375 12.9023C9.12891 12.9023 8.92969 13.0898 8.92969 13.3359C8.92969 13.5938 9.12891 13.7812 9.375 13.7812L11.0742 13.7812C11.0742 13.9102 11.0625 14.0977 11.0391 14.25C10.8867 15.2578 10.207 15.8906 9.48047 16.1367C9.15234 16.2422 8.94141 16.4297 8.94141 16.8047C8.94141 17.1914 9.22266 17.4023 9.53906 17.4023Z" fill="black" fill-opacity="0.85"/>
 </g>
</svg>
