<?xml version="1.0" encoding="UTF-8"?>
<!--Generator: Apple Native CoreSVG 360-->
<!DOCTYPE svg
PUBLIC "-//W3C//DTD SVG 1.1//EN"
       "http://www.w3.org/Graphics/SVG/1.1/DTD/svg11.dtd">
<svg version="1.1" xmlns="http://www.w3.org/2000/svg" xmlns:xlink="http://www.w3.org/1999/xlink" viewBox="0 0 28.582 23.5195">
 <g>
  <rect height="23.5195" opacity="0" width="28.582" x="0" y="0"/>
  <path d="M28.2305 14.1094C28.2305 10.6641 26.9883 7.48828 24.9141 5.02734C24.6797 4.74609 24.2812 4.74609 24.0234 5.01562L21.3047 7.73438C21.082 7.95703 21.0703 8.27344 21.2695 8.51953C22.4766 10.0664 23.2031 12.0117 23.2031 14.1094C23.2031 16.2188 22.4766 18.1641 21.1992 19.793C21.0352 19.9922 21.0469 20.25 21.2227 20.4375L24.0117 23.2266C24.2812 23.4961 24.668 23.4961 24.9141 23.2031C26.9883 20.7422 28.2305 17.5664 28.2305 14.1094Z" fill="black" fill-opacity="0.85"/>
  <path d="M14.1094 5.02734C16.2305 5.02734 18.1758 5.76562 19.7344 6.97266C19.9688 7.16016 20.2734 7.13672 20.4961 6.91406L23.2148 4.19531C23.4844 3.92578 23.4727 3.53906 23.1914 3.30469C20.7422 1.24219 17.5664 0 14.1094 0C10.6641 0 7.48828 1.24219 5.03906 3.30469C4.75781 3.53906 4.74609 3.92578 5.01562 4.19531L7.73438 6.91406C7.95703 7.13672 8.27344 7.16016 8.53125 6.96094C10.0781 5.76562 12.0117 5.02734 14.1094 5.02734Z" fill="black" fill-opacity="0.85"/>
  <path d="M0 14.1094C0 17.5664 1.24219 20.7422 3.31641 23.2031C3.55078 23.4961 3.94922 23.4961 4.20703 23.2266L6.99609 20.4375C7.17188 20.25 7.19531 19.9922 7.03125 19.793C5.75391 18.1641 5.02734 16.2188 5.02734 14.1094C5.02734 12.0117 5.74219 10.0664 6.96094 8.51953C7.14844 8.27344 7.14844 7.95703 6.92578 7.73438L4.20703 5.01562C3.9375 4.74609 3.55078 4.74609 3.31641 5.02734C1.24219 7.48828 0 10.6641 0 14.1094Z" fill="black" fill-opacity="0.85"/>
  <path d="M10.5469 19.3359L17.543 19.3359C17.8828 19.3359 18.1289 19.0898 18.1289 18.7617C18.1289 18.4336 17.8828 18.1875 17.543 18.1875L12.0703 18.1875L12.0703 18.1289C12.8789 17.8242 13.3359 17.0039 13.4297 16.0664C13.4414 15.9492 13.4414 15.8438 13.4414 15.7148L16.3477 15.7148C16.5938 15.7148 16.793 15.5273 16.793 15.2695C16.793 15.0234 16.5938 14.8359 16.3477 14.8359L13.3711 14.8359C13.2891 14.3555 13.125 13.9336 13.0195 13.4766L16.3477 13.4766C16.5938 13.4766 16.793 13.2891 16.793 13.043C16.793 12.7852 16.5938 12.5977 16.3477 12.5977L12.8789 12.5977C12.8555 12.4805 12.8555 12.3398 12.8555 12.2109C12.8555 10.8164 13.9688 10.1016 15.3633 10.1016C15.8086 10.1016 16.3359 10.1836 16.6758 10.2539C16.8281 10.3008 16.9922 10.3359 17.1094 10.3359C17.4961 10.3359 17.625 10.1016 17.625 9.84375C17.625 9.52734 17.4258 9.33984 17.1328 9.22266C16.5352 8.96484 15.8203 8.94141 15.2344 8.94141C12.9961 8.94141 11.4609 10.125 11.4609 12.2344C11.4609 12.3633 11.4609 12.4805 11.4727 12.5977L10.3945 12.5977C10.1367 12.5977 9.9375 12.7852 9.9375 13.043C9.9375 13.2891 10.1367 13.4766 10.3945 13.4766L11.6133 13.4766C11.7188 13.957 11.8828 14.3789 11.9883 14.8359L10.3945 14.8359C10.1367 14.8359 9.9375 15.0234 9.9375 15.2695C9.9375 15.5273 10.1367 15.7148 10.3945 15.7148L12.082 15.7148C12.0938 15.8438 12.0703 16.0312 12.0469 16.1836C11.8945 17.1914 11.2148 17.8242 10.4883 18.0703C10.1602 18.1758 9.94922 18.3633 9.94922 18.7383C9.94922 19.125 10.2305 19.3359 10.5469 19.3359Z" fill="black" fill-opacity="0.85"/>
 </g>
</svg>
