<?xml version="1.0" encoding="UTF-8"?>
<!--Generator: Apple Native CoreSVG 360-->
<!DOCTYPE svg
PUBLIC "-//W3C//DTD SVG 1.1//EN"
       "http://www.w3.org/Graphics/SVG/1.1/DTD/svg11.dtd">
<svg version="1.1" xmlns="http://www.w3.org/2000/svg" xmlns:xlink="http://www.w3.org/1999/xlink" viewBox="0 0 28.7227 20.3086">
 <g>
  <rect height="20.3086" opacity="0" width="28.7227" x="0" y="0"/>
  <path d="M0.9375 20.2852L8.14453 20.2852C8.68359 20.2852 9.10547 19.875 9.10547 19.3477C9.10547 18.8203 8.68359 18.3984 8.14453 18.3984L0.9375 18.3984C0.410156 18.3984 0 18.8203 0 19.3477C0 19.875 0.410156 20.2852 0.9375 20.2852Z" fill="black" fill-opacity="0.85"/>
  <path d="M0.9375 14.1562L8.14453 14.1562C8.68359 14.1562 9.10547 13.7461 9.10547 13.2188C9.10547 12.6797 8.68359 12.2695 8.14453 12.2695L0.9375 12.2695C0.410156 12.2695 0 12.6797 0 13.2188C0 13.7461 0.410156 14.1562 0.9375 14.1562Z" fill="black" fill-opacity="0.85"/>
  <path d="M0.9375 8.02734L8.14453 8.02734C8.68359 8.02734 9.10547 7.60547 9.10547 7.07812C9.10547 6.55078 8.68359 6.14062 8.14453 6.14062L0.9375 6.14062C0.410156 6.14062 0 6.55078 0 7.07812C0 7.60547 0.410156 8.02734 0.9375 8.02734Z" fill="black" fill-opacity="0.85"/>
  <path d="M0.9375 1.88672L22.6523 1.88672C23.1797 1.88672 23.6133 1.47656 23.6133 0.949219C23.6133 0.421875 23.1797 0 22.6523 0L0.9375 0C0.410156 0 0 0.421875 0 0.949219C0 1.47656 0.410156 1.88672 0.9375 1.88672Z" fill="black" fill-opacity="0.85"/>
  <path d="M12.9023 20.0859L26.7773 20.0859C27.75 20.0859 28.3711 19.4766 28.3711 18.5156L28.3711 7.85156C28.3711 6.91406 27.75 6.29297 26.7773 6.29297L12.9023 6.29297C11.9297 6.29297 11.3086 6.91406 11.3086 7.85156L11.3086 18.5156C11.3086 19.4766 11.9297 20.0859 12.9023 20.0859ZM12.9961 9.64453C12.7617 9.64453 12.6094 9.48047 12.6094 9.25781L12.6094 7.96875C12.6094 7.73438 12.7617 7.57031 12.9961 7.57031L14.0977 7.57031C14.3438 7.57031 14.4961 7.73438 14.4961 7.96875L14.4961 9.25781C14.4961 9.48047 14.3438 9.64453 14.0977 9.64453ZM12.9961 12.6914C12.7617 12.6914 12.6094 12.5273 12.6094 12.3281L12.6094 11.0273C12.6094 10.793 12.7617 10.6289 12.9961 10.6289L14.0977 10.6289C14.3438 10.6289 14.4961 10.793 14.4961 11.0273L14.4961 12.3281C14.4961 12.5273 14.3438 12.6914 14.0977 12.6914ZM12.9961 15.7383C12.7617 15.7383 12.6094 15.5859 12.6094 15.375L12.6094 14.0742C12.6094 13.8398 12.7617 13.6758 12.9961 13.6758L14.0977 13.6758C14.3438 13.6758 14.4961 13.8398 14.4961 14.0742L14.4961 15.375C14.4961 15.5859 14.3438 15.7383 14.0977 15.7383ZM12.9961 18.7969C12.7617 18.7969 12.6094 18.6445 12.6094 18.4219L12.6094 17.1211C12.6094 16.8867 12.7617 16.7227 12.9961 16.7227L14.0977 16.7227C14.3438 16.7227 14.4961 16.8867 14.4961 17.1211L14.4961 18.4219C14.4961 18.6445 14.3438 18.7969 14.0977 18.7969ZM25.582 9.64453C25.3359 9.64453 25.1836 9.48047 25.1836 9.25781L25.1836 7.96875C25.1836 7.73438 25.3359 7.57031 25.582 7.57031L26.6836 7.57031C26.918 7.57031 27.0703 7.73438 27.0703 7.96875L27.0703 9.25781C27.0703 9.48047 26.918 9.64453 26.6836 9.64453ZM25.582 12.6914C25.3359 12.6914 25.1836 12.5273 25.1836 12.3281L25.1836 11.0273C25.1836 10.793 25.3359 10.6289 25.582 10.6289L26.6836 10.6289C26.918 10.6289 27.0703 10.793 27.0703 11.0273L27.0703 12.3281C27.0703 12.5273 26.918 12.6914 26.6836 12.6914ZM25.582 15.7383C25.3359 15.7383 25.1836 15.5859 25.1836 15.375L25.1836 14.0742C25.1836 13.8398 25.3359 13.6758 25.582 13.6758L26.6836 13.6758C26.918 13.6758 27.0703 13.8398 27.0703 14.0742L27.0703 15.375C27.0703 15.5859 26.918 15.7383 26.6836 15.7383ZM25.582 18.7969C25.3359 18.7969 25.1836 18.6445 25.1836 18.4219L25.1836 17.1211C25.1836 16.8867 25.3359 16.7227 25.582 16.7227L26.6836 16.7227C26.918 16.7227 27.0703 16.8867 27.0703 17.1211L27.0703 18.4219C27.0703 18.6445 26.918 18.7969 26.6836 18.7969ZM16.125 18.3281C15.9023 18.3281 15.7617 18.1875 15.7617 17.9531L15.7617 14.4609C15.7617 14.2148 15.9023 14.0742 16.125 14.0742L23.5547 14.0742C23.7773 14.0742 23.918 14.2148 23.918 14.4609L23.918 17.9531C23.918 18.1875 23.7773 18.3281 23.5547 18.3281ZM16.125 12.3164C15.9023 12.3164 15.7617 12.1758 15.7617 11.9414L15.7617 8.41406C15.7617 8.17969 15.9023 8.03906 16.125 8.03906L23.5547 8.03906C23.7773 8.03906 23.918 8.17969 23.918 8.41406L23.918 11.9414C23.918 12.1758 23.7773 12.3164 23.5547 12.3164Z" fill="black" fill-opacity="0.85"/>
 </g>
</svg>
