<?xml version="1.0" encoding="UTF-8"?>
<!--Generator: Apple Native CoreSVG 360-->
<!DOCTYPE svg
PUBLIC "-//W3C//DTD SVG 1.1//EN"
       "http://www.w3.org/Graphics/SVG/1.1/DTD/svg11.dtd">
<svg version="1.1" xmlns="http://www.w3.org/2000/svg" xmlns:xlink="http://www.w3.org/1999/xlink" viewBox="0 0 20.0625 32.4727">
 <g>
  <rect height="32.4727" opacity="0" width="20.0625" x="0" y="0"/>
  <path d="M19.7109 8.30859L19.7109 26.0742C19.7109 28.5352 18.5039 29.7539 16.0781 29.7539L3.63281 29.7539C1.20703 29.7539 0 28.5352 0 26.0742L0 8.30859C0 5.84766 1.20703 4.62891 3.63281 4.62891L3.78795 4.62891C3.77808 4.72417 3.77344 4.82202 3.77344 4.92188L3.77344 6.15234C3.77344 6.27709 3.7808 6.39874 3.79774 6.51563L3.72656 6.51562C2.50781 6.51562 1.88672 7.17188 1.88672 8.33203L1.88672 26.0508C1.88672 27.2227 2.50781 27.8672 3.72656 27.8672L15.9844 27.8672C17.2031 27.8672 17.8242 27.2227 17.8242 26.0508L17.8242 8.33203C17.8242 7.17188 17.2031 6.51562 15.9844 6.51562L15.9132 6.51563C15.9301 6.39874 15.9375 6.27709 15.9375 6.15234L15.9375 4.92188C15.9375 4.82202 15.9329 4.72417 15.923 4.62891L16.0781 4.62891C18.5039 4.62891 19.7109 5.84766 19.7109 8.30859Z" fill="black" fill-opacity="0.85"/>
  <path d="M6.23438 7.3125L13.4766 7.3125C14.1562 7.3125 14.5664 6.87891 14.5664 6.15234L14.5664 4.92188C14.5664 4.19531 14.1562 3.76172 13.4766 3.76172L12.3984 3.76172C12.3164 2.4375 11.2148 1.35938 9.85547 1.35938C8.49609 1.35938 7.39453 2.4375 7.3125 3.76172L6.23438 3.76172C5.55469 3.76172 5.14453 4.19531 5.14453 4.92188L5.14453 6.15234C5.14453 6.87891 5.55469 7.3125 6.23438 7.3125ZM9.85547 4.875C9.29297 4.875 8.83594 4.40625 8.83594 3.85547C8.83594 3.28125 9.29297 2.82422 9.85547 2.82422C10.418 2.82422 10.875 3.28125 10.875 3.85547C10.875 4.40625 10.418 4.875 9.85547 4.875Z" fill="black" fill-opacity="0.85"/>
  <path d="M4.6875 13.8516L15.0234 13.8516C15.4219 13.8516 15.7617 13.5234 15.7617 13.125C15.7617 12.7266 15.4219 12.3867 15.0234 12.3867L4.6875 12.3867C4.28906 12.3867 3.94922 12.7266 3.94922 13.125C3.94922 13.5234 4.28906 13.8516 4.6875 13.8516ZM4.6875 18.0117L15.0234 18.0117C15.4336 18.0117 15.7617 17.6836 15.7617 17.2734C15.7617 16.875 15.4336 16.5586 15.0234 16.5586L4.6875 16.5586C4.27734 16.5586 3.94922 16.875 3.94922 17.2734C3.94922 17.6836 4.27734 18.0117 4.6875 18.0117ZM4.6875 22.3945L9.89062 22.3945C10.2891 22.3945 10.6172 22.0664 10.6172 21.668C10.6172 21.2695 10.3008 20.9414 9.89062 20.9414L4.6875 20.9414C4.27734 20.9414 3.94922 21.2695 3.94922 21.668C3.94922 22.0664 4.28906 22.3945 4.6875 22.3945Z" fill="black" fill-opacity="0.85"/>
 </g>
</svg>
