<?xml version="1.0" encoding="UTF-8"?>
<!--Generator: Apple Native CoreSVG 360-->
<!DOCTYPE svg
PUBLIC "-//W3C//DTD SVG 1.1//EN"
       "http://www.w3.org/Graphics/SVG/1.1/DTD/svg11.dtd">
<svg version="1.1" xmlns="http://www.w3.org/2000/svg" xmlns:xlink="http://www.w3.org/1999/xlink" viewBox="0 0 29.8125 17.1211">
 <g>
  <rect height="17.1211" opacity="0" width="29.8125" x="0" y="0"/>
  <path d="M12.5039 16.5938L28.5117 16.5938C29.0391 16.5938 29.4609 16.1836 29.4609 15.6445C29.4609 15.1172 29.0391 14.707 28.5117 14.707L12.5039 14.707C11.9766 14.707 11.5664 15.1172 11.5664 15.6445C11.5664 16.1836 11.9766 16.5938 12.5039 16.5938Z" fill="black" fill-opacity="0.85"/>
  <path d="M7.32422 17.1211C8.14453 17.1211 8.80078 16.4648 8.80078 15.6445C8.80078 14.8359 8.14453 14.1797 7.32422 14.1797C6.51562 14.1797 5.84766 14.8359 5.84766 15.6445C5.84766 16.4648 6.51562 17.1211 7.32422 17.1211Z" fill="black" fill-opacity="0.85"/>
  <path d="M9.57422 9.50391L25.582 9.50391C26.1094 9.50391 26.5312 9.09375 26.5312 8.56641C26.5312 8.03906 26.1094 7.61719 25.582 7.61719L9.57422 7.61719C9.04688 7.61719 8.63672 8.03906 8.63672 8.56641C8.63672 9.09375 9.04688 9.50391 9.57422 9.50391Z" fill="black" fill-opacity="0.85"/>
  <path d="M4.40625 10.043C5.21484 10.043 5.88281 9.38672 5.88281 8.56641C5.88281 7.74609 5.21484 7.08984 4.40625 7.08984C3.58594 7.08984 2.92969 7.74609 2.92969 8.56641C2.92969 9.38672 3.58594 10.043 4.40625 10.043Z" fill="black" fill-opacity="0.85"/>
  <path d="M6.65625 2.42578L22.6523 2.42578C23.1797 2.42578 23.6133 2.01562 23.6133 1.47656C23.6133 0.949219 23.1797 0.539062 22.6523 0.539062L6.65625 0.539062C6.11719 0.539062 5.70703 0.949219 5.70703 1.47656C5.70703 2.01562 6.11719 2.42578 6.65625 2.42578Z" fill="black" fill-opacity="0.85"/>
  <path d="M1.47656 2.95312C2.29688 2.95312 2.95312 2.29688 2.95312 1.47656C2.95312 0.667969 2.29688 0 1.47656 0C0.65625 0 0 0.667969 0 1.47656C0 2.29688 0.65625 2.95312 1.47656 2.95312Z" fill="black" fill-opacity="0.85"/>
 </g>
</svg>
