<?xml version="1.0" encoding="UTF-8"?>
<!--Generator: Apple Native CoreSVG 360-->
<!DOCTYPE svg
PUBLIC "-//W3C//DTD SVG 1.1//EN"
       "http://www.w3.org/Graphics/SVG/1.1/DTD/svg11.dtd">
<svg version="1.1" xmlns="http://www.w3.org/2000/svg" xmlns:xlink="http://www.w3.org/1999/xlink" viewBox="0 0 27.9844 21.5742">
 <g>
  <rect height="21.5742" opacity="0" width="27.9844" x="0" y="0"/>
  <path d="M27.6328 3.63281L27.6328 17.9531C27.6328 20.3672 26.4141 21.5742 23.9531 21.5742L3.67969 21.5742C1.23047 21.5742 0 20.3672 0 17.9531L0 3.63281C0 1.21875 1.23047 0 3.67969 0L23.9531 0C26.4141 0 27.6328 1.21875 27.6328 3.63281ZM5.61328 8.83594C5.09766 8.83594 4.69922 9.24609 4.69922 9.75C4.69922 10.2656 5.09766 10.6758 5.61328 10.6758L7.07812 10.6758C7.58203 10.6758 8.01562 10.2656 8.01562 9.75C8.01562 9.24609 7.59375 8.83594 7.07812 8.83594ZM10.4648 8.98828C10.0547 8.98828 9.71484 9.31641 9.71484 9.75C9.71484 10.1836 10.043 10.5234 10.4648 10.5234L22.1719 10.5234C22.5938 10.5234 22.9219 10.1953 22.9219 9.75C22.9219 9.32812 22.5938 8.98828 22.1719 8.98828ZM5.61328 4.78125C5.09766 4.78125 4.69922 5.20312 4.69922 5.71875C4.69922 6.22266 5.10938 6.64453 5.61328 6.64453L7.07812 6.64453C7.59375 6.64453 8.01562 6.22266 8.01562 5.71875C8.01562 5.20312 7.58203 4.78125 7.07812 4.78125ZM10.4648 4.95703C10.043 4.95703 9.71484 5.28516 9.71484 5.71875C9.71484 6.14062 10.043 6.48047 10.4648 6.48047L22.1719 6.48047C22.5938 6.48047 22.9219 6.14062 22.9219 5.71875C22.9219 5.28516 22.5938 4.95703 22.1719 4.95703Z" fill="black" fill-opacity="0.85"/>
 </g>
</svg>
