<?xml version="1.0" encoding="UTF-8"?>
<!--Generator: Apple Native CoreSVG 360-->
<!DOCTYPE svg
PUBLIC "-//W3C//DTD SVG 1.1//EN"
       "http://www.w3.org/Graphics/SVG/1.1/DTD/svg11.dtd">
<svg version="1.1" xmlns="http://www.w3.org/2000/svg" xmlns:xlink="http://www.w3.org/1999/xlink" viewBox="0 0 23.9648 17.9735">
 <g>
  <rect height="17.9735" opacity="0" width="23.9648" x="0" y="0"/>
  <path d="M7.51172 17.02L22.6523 17.02C23.1797 17.02 23.6133 16.6098 23.6133 16.0825C23.6133 15.5434 23.1797 15.1333 22.6523 15.1333L7.51172 15.1333C6.97266 15.1333 6.5625 15.5434 6.5625 16.0825C6.5625 16.6098 6.97266 17.02 7.51172 17.02Z" fill="black" fill-opacity="0.85"/>
  <path d="M0.949219 17.8403L3.03516 16.5981C3.39844 16.3754 3.38672 15.8247 3.03516 15.6137L0.949219 14.3481C0.480469 14.0669 0 14.1958 0 14.7583L0 17.4301C0 17.9692 0.492188 18.1098 0.949219 17.8403Z" fill="black" fill-opacity="0.85"/>
  <path d="M7.51172 9.94185L22.6523 9.94185C23.1797 9.94185 23.6133 9.51998 23.6133 8.99263C23.6133 8.46529 23.1797 8.05513 22.6523 8.05513L7.51172 8.05513C6.97266 8.05513 6.5625 8.46529 6.5625 8.99263C6.5625 9.51998 6.97266 9.94185 7.51172 9.94185Z" fill="black" fill-opacity="0.85"/>
  <path d="M0.949219 10.7387L3.03516 9.49654C3.39844 9.27388 3.38672 8.7231 3.03516 8.51217L0.949219 7.24654C0.480469 6.96529 0 7.10592 0 7.6567L0 10.3286C0 10.8676 0.492188 11.0083 0.949219 10.7387Z" fill="black" fill-opacity="0.85"/>
  <path d="M7.51172 2.85201L22.6523 2.85201C23.1797 2.85201 23.6133 2.44185 23.6133 1.91451C23.6133 1.37545 23.1797 0.96529 22.6523 0.96529L7.51172 0.96529C6.97266 0.96529 6.5625 1.37545 6.5625 1.91451C6.5625 2.44185 6.97266 2.85201 7.51172 2.85201Z" fill="black" fill-opacity="0.85"/>
  <path d="M0.949219 3.67232L3.03516 2.43013C3.39844 2.20748 3.38672 1.6567 3.03516 1.44576L0.949219 0.180134C0.480469-0.112835 0 0.0277903 0 0.59029L0 3.26217C0 3.80123 0.492188 3.94185 0.949219 3.67232Z" fill="black" fill-opacity="0.85"/>
 </g>
</svg>
