<?xml version="1.0" encoding="UTF-8"?>
<!--Generator: Apple Native CoreSVG 360-->
<!DOCTYPE svg
PUBLIC "-//W3C//DTD SVG 1.1//EN"
       "http://www.w3.org/Graphics/SVG/1.1/DTD/svg11.dtd">
<svg version="1.1" xmlns="http://www.w3.org/2000/svg" xmlns:xlink="http://www.w3.org/1999/xlink" viewBox="0 0 27.9844 21.5742">
 <g>
  <rect height="21.5742" opacity="0" width="27.9844" x="0" y="0"/>
  <path d="M3.67969 21.5742L23.9531 21.5742C26.4141 21.5742 27.6328 20.3672 27.6328 17.9531L27.6328 3.63281C27.6328 1.21875 26.4141 0 23.9531 0L3.67969 0C1.23047 0 0 1.21875 0 3.63281L0 17.9531C0 20.3672 1.23047 21.5742 3.67969 21.5742ZM3.70312 19.6875C2.53125 19.6875 1.88672 19.0664 1.88672 17.8477L1.88672 3.73828C1.88672 2.51953 2.53125 1.88672 3.70312 1.88672L23.9297 1.88672C25.0898 1.88672 25.7461 2.51953 25.7461 3.73828L25.7461 17.8477C25.7461 19.0664 25.0898 19.6875 23.9297 19.6875Z" fill="black" fill-opacity="0.85"/>
  <path d="M5.85938 6.67969L7.27734 6.67969C7.76953 6.67969 8.17969 6.26953 8.17969 5.77734C8.17969 5.28516 7.75781 4.875 7.27734 4.875L5.85938 4.875C5.35547 4.875 4.96875 5.28516 4.96875 5.77734C4.96875 6.26953 5.36719 6.67969 5.85938 6.67969Z" fill="black" fill-opacity="0.85"/>
  <path d="M10.5586 6.51562L21.9258 6.51562C22.3359 6.51562 22.6523 6.1875 22.6523 5.77734C22.6523 5.36719 22.3359 5.05078 21.9258 5.05078L10.5586 5.05078C10.1484 5.05078 9.83203 5.36719 9.83203 5.77734C9.83203 6.1875 10.1484 6.51562 10.5586 6.51562Z" fill="black" fill-opacity="0.85"/>
  <path d="M5.85938 10.582L7.27734 10.582C7.75781 10.582 8.17969 10.1836 8.17969 9.69141C8.17969 9.19922 7.76953 8.80078 7.27734 8.80078L5.85938 8.80078C5.35547 8.80078 4.96875 9.19922 4.96875 9.69141C4.96875 10.1836 5.35547 10.582 5.85938 10.582Z" fill="black" fill-opacity="0.85"/>
  <path d="M10.5586 10.4297L21.9258 10.4297C22.3359 10.4297 22.6523 10.1133 22.6523 9.69141C22.6523 9.28125 22.3359 8.95312 21.9258 8.95312L10.5586 8.95312C10.1602 8.95312 9.83203 9.26953 9.83203 9.69141C9.83203 10.1016 10.1484 10.4297 10.5586 10.4297Z" fill="black" fill-opacity="0.85"/>
 </g>
</svg>
