<?xml version="1.0" encoding="UTF-8"?>
<!--Generator: Apple Native CoreSVG 360-->
<!DOCTYPE svg
PUBLIC "-//W3C//DTD SVG 1.1//EN"
       "http://www.w3.org/Graphics/SVG/1.1/DTD/svg11.dtd">
<svg version="1.1" xmlns="http://www.w3.org/2000/svg" xmlns:xlink="http://www.w3.org/1999/xlink" viewBox="0 0 24.0985 19.3652">
 <g>
  <rect height="19.3652" opacity="0" width="24.0985" x="0" y="0"/>
  <path d="M7.99454 17.7158L22.7836 17.7158C23.3109 17.7158 23.7445 17.3057 23.7445 16.7783C23.7445 16.2393 23.3109 15.8291 22.7836 15.8291L7.99454 15.8291C7.45548 15.8291 7.04532 16.2393 7.04532 16.7783C7.04532 17.3057 7.45548 17.7158 7.99454 17.7158Z" fill="black" fill-opacity="0.85"/>
  <path d="M1.36173 18.7002L2.36954 17.9619L3.3422 18.7002C3.69376 18.9697 4.06876 18.6885 3.93985 18.3018L3.55313 17.1064L4.53751 16.3682C4.8422 16.1338 4.72501 15.7119 4.33829 15.7119L3.10782 15.7119L2.69766 14.4229C2.5922 14.0947 2.13516 14.083 2.0297 14.4229L1.61954 15.7119L0.377352 15.7119C-0.00936669 15.7119-0.138273 16.1338 0.178133 16.3682L1.17423 17.1064L0.787508 18.3018C0.658602 18.6885 1.02188 18.9463 1.36173 18.7002Z" fill="black" fill-opacity="0.85"/>
  <path d="M7.99454 10.6377L22.7836 10.6377C23.3109 10.6377 23.7445 10.2158 23.7445 9.68848C23.7445 9.16113 23.3109 8.75098 22.7836 8.75098L7.99454 8.75098C7.45548 8.75098 7.04532 9.16113 7.04532 9.68848C7.04532 10.2158 7.45548 10.6377 7.99454 10.6377Z" fill="black" fill-opacity="0.85"/>
  <path d="M1.36173 11.5986L2.36954 10.8604L3.3422 11.5986C3.69376 11.8682 4.06876 11.5869 3.93985 11.2002L3.55313 10.0049L4.53751 9.2666C4.8422 9.03223 4.72501 8.61035 4.33829 8.61035L3.10782 8.61035L2.69766 7.32129C2.5922 6.99316 2.13516 6.99316 2.0297 7.32129L1.61954 8.61035L0.377352 8.61035C-0.00936669 8.61035-0.138273 9.03223 0.178133 9.2666L1.17423 10.0049L0.787508 11.2002C0.658602 11.5869 1.02188 11.8447 1.36173 11.5986Z" fill="black" fill-opacity="0.85"/>
  <path d="M7.99454 3.54785L22.7836 3.54785C23.3109 3.54785 23.7445 3.1377 23.7445 2.61035C23.7445 2.07129 23.3109 1.66113 22.7836 1.66113L7.99454 1.66113C7.45548 1.66113 7.04532 2.07129 7.04532 2.61035C7.04532 3.1377 7.45548 3.54785 7.99454 3.54785Z" fill="black" fill-opacity="0.85"/>
  <path d="M1.36173 4.53223L2.36954 3.79395L3.3422 4.53223C3.69376 4.79004 4.06876 4.52051 3.93985 4.13379L3.55313 2.93848L4.53751 2.2002C4.8422 1.96582 4.72501 1.53223 4.33829 1.53223L3.10782 1.53223L2.69766 0.254883C2.5922-0.0849609 2.13516-0.0849609 2.0297 0.254883L1.61954 1.53223L0.377352 1.53223C-0.00936669 1.53223-0.138273 1.96582 0.178133 2.2002L1.17423 2.93848L0.787508 4.13379C0.646883 4.52051 1.02188 4.77832 1.36173 4.53223Z" fill="black" fill-opacity="0.85"/>
 </g>
</svg>
