<?xml version="1.0" encoding="UTF-8"?>
<!--Generator: Apple Native CoreSVG 360-->
<!DOCTYPE svg
PUBLIC "-//W3C//DTD SVG 1.1//EN"
       "http://www.w3.org/Graphics/SVG/1.1/DTD/svg11.dtd">
<svg version="1.1" xmlns="http://www.w3.org/2000/svg" xmlns:xlink="http://www.w3.org/1999/xlink" viewBox="0 0 20.0625 32.4727">
 <g>
  <rect height="32.4727" opacity="0" width="20.0625" x="0" y="0"/>
  <path d="M19.7109 8.30859L19.7109 26.0742C19.7109 28.5352 18.5039 29.7539 16.0781 29.7539L3.63281 29.7539C1.20703 29.7539 0 28.5352 0 26.0742L0 8.30859C0 5.84766 1.20703 4.62891 3.63281 4.62891L3.78795 4.62891C3.77808 4.72417 3.77344 4.82202 3.77344 4.92188L3.77344 6.15234C3.77344 6.27709 3.7808 6.39874 3.79774 6.51563L3.72656 6.51562C2.50781 6.51562 1.88672 7.17188 1.88672 8.33203L1.88672 26.0508C1.88672 27.2227 2.50781 27.8672 3.72656 27.8672L15.9844 27.8672C17.2031 27.8672 17.8242 27.2227 17.8242 26.0508L17.8242 8.33203C17.8242 7.17188 17.2031 6.51562 15.9844 6.51562L15.9132 6.51563C15.9301 6.39874 15.9375 6.27709 15.9375 6.15234L15.9375 4.92188C15.9375 4.82202 15.9329 4.72417 15.923 4.62891L16.0781 4.62891C18.5039 4.62891 19.7109 5.84766 19.7109 8.30859Z" fill="black" fill-opacity="0.85"/>
  <path d="M6.23438 7.3125L13.4766 7.3125C14.1562 7.3125 14.5664 6.87891 14.5664 6.15234L14.5664 4.92188C14.5664 4.19531 14.1562 3.76172 13.4766 3.76172L12.3984 3.76172C12.3164 2.4375 11.2148 1.35938 9.85547 1.35938C8.49609 1.35938 7.39453 2.4375 7.3125 3.76172L6.23438 3.76172C5.55469 3.76172 5.14453 4.19531 5.14453 4.92188L5.14453 6.15234C5.14453 6.87891 5.55469 7.3125 6.23438 7.3125ZM9.85547 4.875C9.29297 4.875 8.83594 4.40625 8.83594 3.85547C8.83594 3.28125 9.29297 2.82422 9.85547 2.82422C10.418 2.82422 10.875 3.28125 10.875 3.85547C10.875 4.40625 10.418 4.875 9.85547 4.875Z" fill="black" fill-opacity="0.85"/>
  <path d="M4.91016 14.1211C5.46094 14.1211 5.90625 13.6758 5.90625 13.125C5.90625 12.5742 5.46094 12.1289 4.91016 12.1289C4.37109 12.1289 3.91406 12.5859 3.91406 13.125C3.91406 13.6641 4.37109 14.1211 4.91016 14.1211ZM4.91016 18.2695C5.46094 18.2695 5.90625 17.8242 5.90625 17.2734C5.90625 16.7227 5.46094 16.2891 4.91016 16.2891C4.35938 16.2891 3.91406 16.7344 3.91406 17.2734C3.91406 17.8242 4.35938 18.2695 4.91016 18.2695ZM4.91016 22.6641C5.46094 22.6641 5.90625 22.2188 5.90625 21.668C5.90625 21.1172 5.46094 20.6719 4.91016 20.6719C4.37109 20.6719 3.91406 21.1289 3.91406 21.668C3.91406 22.207 4.37109 22.6641 4.91016 22.6641ZM8.03906 13.8516L15.0703 13.8516C15.4688 13.8516 15.7969 13.5234 15.7969 13.125C15.7969 12.7266 15.4688 12.3867 15.0703 12.3867L8.03906 12.3867C7.64062 12.3867 7.30078 12.7266 7.30078 13.125C7.30078 13.5234 7.64062 13.8516 8.03906 13.8516ZM8.03906 18.0117L15.0703 18.0117C15.4805 18.0117 15.7969 17.6836 15.7969 17.2734C15.7969 16.875 15.4805 16.5586 15.0703 16.5586L8.03906 16.5586C7.62891 16.5586 7.30078 16.875 7.30078 17.2734C7.30078 17.6836 7.62891 18.0117 8.03906 18.0117ZM8.03906 22.3945L15.0703 22.3945C15.4688 22.3945 15.7969 22.0664 15.7969 21.668C15.7969 21.2695 15.4805 20.9414 15.0703 20.9414L8.03906 20.9414C7.62891 20.9414 7.30078 21.2695 7.30078 21.668C7.30078 22.0664 7.64062 22.3945 8.03906 22.3945Z" fill="black" fill-opacity="0.85"/>
 </g>
</svg>
