<?xml version="1.0" encoding="UTF-8"?>
<!--Generator: Apple Native CoreSVG 360-->
<!DOCTYPE svg
PUBLIC "-//W3C//DTD SVG 1.1//EN"
       "http://www.w3.org/Graphics/SVG/1.1/DTD/svg11.dtd">
<svg version="1.1" xmlns="http://www.w3.org/2000/svg" xmlns:xlink="http://www.w3.org/1999/xlink" viewBox="0 0 23.9648 16.5117">
 <g>
  <rect height="16.5117" opacity="0" width="23.9648" x="0" y="0"/>
  <path d="M7.82812 16.2891L22.6523 16.2891C23.1797 16.2891 23.6133 15.8789 23.6133 15.3516C23.6133 14.8125 23.1797 14.4023 22.6523 14.4023L7.82812 14.4023C7.28906 14.4023 6.87891 14.8125 6.87891 15.3516C6.87891 15.8789 7.28906 16.2891 7.82812 16.2891Z" fill="black" fill-opacity="0.85"/>
  <path d="M1.16016 16.5117L3.16406 16.5117C3.80859 16.5117 4.33594 15.9844 4.33594 15.3516C4.33594 14.6953 3.80859 14.1797 3.16406 14.1797L1.16016 14.1797C0.515625 14.1797 0 14.6953 0 15.3516C0 15.9844 0.515625 16.5117 1.16016 16.5117Z" fill="black" fill-opacity="0.85"/>
  <path d="M7.82812 9.21094L22.6523 9.21094C23.1797 9.21094 23.6133 8.78906 23.6133 8.26172C23.6133 7.73438 23.1797 7.32422 22.6523 7.32422L7.82812 7.32422C7.28906 7.32422 6.87891 7.73438 6.87891 8.26172C6.87891 8.78906 7.28906 9.21094 7.82812 9.21094Z" fill="black" fill-opacity="0.85"/>
  <path d="M1.16016 9.43359L3.16406 9.43359C3.80859 9.43359 4.33594 8.90625 4.33594 8.26172C4.33594 7.61719 3.80859 7.10156 3.16406 7.10156L1.16016 7.10156C0.515625 7.10156 0 7.61719 0 8.26172C0 8.90625 0.515625 9.43359 1.16016 9.43359Z" fill="black" fill-opacity="0.85"/>
  <path d="M7.82812 2.12109L22.6523 2.12109C23.1797 2.12109 23.6133 1.71094 23.6133 1.18359C23.6133 0.644531 23.1797 0.234375 22.6523 0.234375L7.82812 0.234375C7.28906 0.234375 6.87891 0.644531 6.87891 1.18359C6.87891 1.71094 7.28906 2.12109 7.82812 2.12109Z" fill="black" fill-opacity="0.85"/>
  <path d="M1.16016 2.34375L3.16406 2.34375C3.80859 2.34375 4.33594 1.81641 4.33594 1.18359C4.33594 0.527344 3.80859 0.0117188 3.16406 0.0117188L1.16016 0.0117188C0.515625 0.0117188 0 0.527344 0 1.18359C0 1.81641 0.515625 2.34375 1.16016 2.34375Z" fill="black" fill-opacity="0.85"/>
 </g>
</svg>
