<?xml version="1.0" encoding="UTF-8"?>
<!--Generator: Apple Native CoreSVG 360-->
<!DOCTYPE svg
PUBLIC "-//W3C//DTD SVG 1.1//EN"
       "http://www.w3.org/Graphics/SVG/1.1/DTD/svg11.dtd">
<svg version="1.1" xmlns="http://www.w3.org/2000/svg" xmlns:xlink="http://www.w3.org/1999/xlink" viewBox="0 0 22.7812 21.9023">
 <g>
  <rect height="21.9023" opacity="0" width="22.7812" x="0" y="0"/>
  <path d="M22.0078 20.6367C22.0078 20.1211 21.5859 19.7344 21.0117 19.7344L5.23828 19.7344C4.66406 19.7344 4.24219 20.1211 4.24219 20.6367C4.24219 21.1523 4.66406 21.5508 5.23828 21.5508L21.0117 21.5508C21.5859 21.5508 22.0078 21.1523 22.0078 20.6367Z" fill="black" fill-opacity="0.85"/>
  <path d="M2.76562 20.6367C2.76562 19.9453 2.20312 19.3594 1.48828 19.3594C0.796875 19.3594 0.234375 19.9453 0.234375 20.6367C0.234375 21.3398 0.796875 21.9023 1.48828 21.9023C2.20312 21.9023 2.76562 21.3398 2.76562 20.6367Z" fill="black" fill-opacity="0.85"/>
  <path d="M22.0078 16.043C22.0078 15.5273 21.5859 15.1406 21.0117 15.1406L5.23828 15.1406C4.66406 15.1406 4.24219 15.5273 4.24219 16.043C4.24219 16.5586 4.66406 16.957 5.23828 16.957L21.0117 16.957C21.5859 16.957 22.0078 16.5586 22.0078 16.043Z" fill="black" fill-opacity="0.85"/>
  <path d="M2.76562 16.043C2.76562 15.3516 2.20312 14.7773 1.48828 14.7773C0.796875 14.7773 0.234375 15.3516 0.234375 16.043C0.234375 16.7461 0.796875 17.2969 1.48828 17.2969C2.20312 17.2969 2.76562 16.7461 2.76562 16.043Z" fill="black" fill-opacity="0.85"/>
  <path d="M3.24609 0.28125C0.855469 0.28125 0 1.32422 0 3.59766L0 9.04688C0 11.3203 0.855469 12.3633 3.24609 12.3633L19.1836 12.3633C21.5742 12.3633 22.4297 11.3203 22.4297 9.04688L22.4297 3.59766C22.4297 1.32422 21.5742 0.28125 19.1836 0.28125ZM1.88672 9.10547L1.88672 3.53906C1.88672 2.49609 2.22656 2.03906 3.25781 2.03906L19.1719 2.03906C20.2031 2.03906 20.543 2.49609 20.543 3.53906L20.543 9.10547C20.543 10.1484 20.2031 10.6055 19.1719 10.6055L3.25781 10.6055C2.22656 10.6055 1.88672 10.1484 1.88672 9.10547Z" fill="black" fill-opacity="0.85"/>
 </g>
</svg>
