<?xml version="1.0" encoding="UTF-8"?>
<!--Generator: Apple Native CoreSVG 360-->
<!DOCTYPE svg
PUBLIC "-//W3C//DTD SVG 1.1//EN"
       "http://www.w3.org/Graphics/SVG/1.1/DTD/svg11.dtd">
<svg version="1.1" xmlns="http://www.w3.org/2000/svg" xmlns:xlink="http://www.w3.org/1999/xlink" viewBox="0 0 32.8273 31.1367">
 <g>
  <rect height="31.1367" opacity="0" width="32.8273" x="0" y="0"/>
  <path d="M19.9586 31.1367C28.7008 31.1367 32.4742 23.2969 32.4742 18.9258C32.4742 17.4727 30.7281 17.4375 30.5641 18.7617C29.9781 23.5547 25.8297 26.7305 21.6578 26.7305C17.2516 26.7305 13.9469 23.6719 13.9469 19.582C13.9469 15.5156 17.0289 11.0742 20.3687 11.0742C21.1422 11.0742 21.5055 12.5508 23.4742 12.5508C25.6422 12.5508 30.8102 8.84766 30.4117 6.31641C30.0836 4.32422 27.5641 3.11719 23.1344 3.11719C20.6617 3.11719 19.5016 4.32422 19.4664 5.74219C19.4312 6.48047 19.068 6.70312 18.3766 6.70312C11.65 6.70312 6.22421 11.918 6.22421 18.6211C6.22421 25.9805 11.9078 31.1367 19.9586 31.1367ZM19.9586 29.3672C12.6578 29.3672 7.99375 25.125 7.99375 18.6211C7.99375 12.75 12.4352 8.47266 18.3766 8.47266C19.9 8.47266 21.1539 7.52344 21.2008 5.98828C21.2242 5.44922 21.5406 4.86328 23.1344 4.86328C26.5328 4.86328 28.4547 5.42578 28.6422 6.31641C28.982 7.94531 25.0094 10.7812 23.4742 10.7812C22.2789 10.7812 22.1148 9.42188 20.4039 9.42188C15.6109 9.42188 12.1773 14.7656 12.1773 19.582C12.1773 24.5977 16.3844 28.5 21.6578 28.5C23.6969 28.5 25.6422 27.6797 27.0484 26.332C25.5133 27.9258 23.193 29.3672 19.9586 29.3672ZM11.2281 5.88281C10.8648 6.59766 11.0523 7.42969 11.7555 7.83984L13.5836 8.90625L17.0523 7.66406L13.5484 6.01172L13.9703 4.26562L16.3023 3.85547C17.2633 3.67969 16.982 2.09766 15.7984 2.47266C15.2477 2.64844 14.8492 2.09766 15.1539 1.60547C15.693 0.679688 14.1227 0.0351562 13.818 0.960938C13.6305 1.5 13.0211 1.58203 12.7516 0.996094C12.2828 0.0117188 10.8531 0.667969 11.4273 1.62891L12.482 3.38672ZM17.0172 16.6641L19.8062 16.8164L20.8141 18.6328C21.3414 19.6055 22.7359 18.6094 22.0328 17.8594C21.6344 17.4141 22.0211 16.7812 22.5719 16.8984C23.5328 17.0977 23.7672 15.3984 22.6891 15.4102C22.1031 15.4102 21.8219 14.8008 22.2437 14.4141C23.1812 13.5703 21.9508 12.5508 21.3062 13.2891L19.7828 15.0938L18.0836 14.6016L18.3766 10.8398L15.5758 13.0664L15.5875 15.2344C15.5875 16.0547 16.2203 16.6289 17.0172 16.6641ZM4.39609 20.918L2.87265 23.2617L0.774995 23.2148C-0.338286 23.1914-0.185942 24.7734 0.810152 24.668C1.41953 24.6211 1.79453 25.1953 1.41953 25.6172C0.72812 26.3555 2.09921 27.4453 2.65 26.4609C2.94296 25.9336 3.61093 26.0039 3.73984 26.5664C4.03281 27.8438 5.53281 27.2812 5.19296 26.3203L4.38437 24.1055L5.66171 22.875L8.80234 25.0312L8.06406 21.375L6.36484 20.4023C5.63828 19.9922 4.82968 20.2383 4.39609 20.918ZM16.982 19.7461C16.3023 19.3125 15.4703 19.418 14.9781 20.0742L13.7008 21.8086L14.6852 25.2422L16.6305 22.043L18.3062 22.6523L18.4586 25.0078C18.5406 25.9922 20.1578 25.8633 19.8883 24.6445C19.7711 24.082 20.3687 23.7422 20.8375 24.1055C21.7047 24.75 22.5016 23.2148 21.5992 22.8281C21.0719 22.5938 21.1422 21.7734 21.7516 21.7266C22.7594 21.6914 22.1969 19.9102 21.1891 20.3906L19.3258 21.2695Z" fill="black" fill-opacity="0.85"/>
 </g>
</svg>
