<?xml version="1.0" encoding="UTF-8"?>
<!--Generator: Apple Native CoreSVG 360-->
<!DOCTYPE svg
PUBLIC "-//W3C//DTD SVG 1.1//EN"
       "http://www.w3.org/Graphics/SVG/1.1/DTD/svg11.dtd">
<svg version="1.1" xmlns="http://www.w3.org/2000/svg" xmlns:xlink="http://www.w3.org/1999/xlink" viewBox="0 0 20.0625 25.1367">
 <g>
  <rect height="25.1367" opacity="0" width="20.0625" x="0" y="0"/>
  <path d="M3.63281 25.125L16.0781 25.125C18.5039 25.125 19.7109 23.8945 19.7109 21.457L19.7109 10.8164C19.7109 9.30469 19.5352 8.64844 18.5977 7.6875L12.1406 1.11328C11.25 0.199219 10.5117 0 9.19922 0L3.63281 0C1.21875 0 0 1.24219 0 3.67969L0 21.457C0 23.9062 1.20703 25.125 3.63281 25.125ZM3.71484 23.2383C2.50781 23.2383 1.88672 22.5938 1.88672 21.4219L1.88672 3.71484C1.88672 2.55469 2.50781 1.88672 3.72656 1.88672L8.94141 1.88672L8.94141 8.69531C8.94141 10.1719 9.67969 10.8984 11.1445 10.8984L17.8242 10.8984L17.8242 21.4219C17.8242 22.5938 17.2031 23.2383 15.9844 23.2383ZM11.3555 9.12891C10.8867 9.12891 10.7109 8.94141 10.7109 8.47266L10.7109 2.25L17.4609 9.12891Z" fill="black" fill-opacity="0.85"/>
  <path d="M7.38281 21.9492L12.3633 21.9492C13.0312 21.9492 13.3594 21.5977 13.3594 20.8711L13.3594 17.0508C13.3594 16.3711 13.0781 16.0312 12.5039 15.9844L12.5039 14.8594C12.5039 13.0898 11.4375 11.8945 9.86719 11.8945C8.29688 11.8945 7.23047 13.0898 7.23047 14.8594L7.23047 15.9844C6.66797 16.0312 6.375 16.3711 6.375 17.0508L6.375 20.8711C6.375 21.5977 6.70312 21.9492 7.38281 21.9492ZM8.25 15.9727L8.25 14.7539C8.25 13.6289 8.89453 12.8906 9.86719 12.8906C10.8398 12.8906 11.4844 13.6289 11.4844 14.7539L11.4844 15.9727Z" fill="black" fill-opacity="0.85"/>
 </g>
</svg>
