<?xml version="1.0" encoding="UTF-8"?>
<!--Generator: Apple Native CoreSVG 360-->
<!DOCTYPE svg
PUBLIC "-//W3C//DTD SVG 1.1//EN"
       "http://www.w3.org/Graphics/SVG/1.1/DTD/svg11.dtd">
<svg version="1.1" xmlns="http://www.w3.org/2000/svg" xmlns:xlink="http://www.w3.org/1999/xlink" viewBox="0 0 28.2891 24.4336">
 <g>
  <rect height="24.4336" opacity="0" width="28.2891" x="0" y="0"/>
  <path d="M2.69531 20.2734L25.2305 20.2734C26.918 20.2734 27.9375 19.2539 27.9375 17.5664L27.9375 3.51562C27.9375 1.82812 26.918 0.820312 25.2305 0.820312L2.69531 0.820312C1.01953 0.820312 0 1.82812 0 3.51562L0 17.5664C0 19.2539 1.01953 20.2734 2.69531 20.2734ZM2.73047 18.3867C2.21484 18.3867 1.88672 18.0586 1.88672 17.543L1.88672 3.55078C1.88672 3.02344 2.21484 2.70703 2.73047 2.70703L25.207 2.70703C25.7227 2.70703 26.0508 3.02344 26.0508 3.55078L26.0508 17.543C26.0508 18.0586 25.7227 18.3867 25.207 18.3867ZM10.2656 23.0625L17.6719 23.0625L17.6719 20.1211L10.2656 20.1211ZM10.1953 24.4336L17.7422 24.4336C18.2578 24.4336 18.6797 24.0117 18.6797 23.4844C18.6797 22.957 18.2578 22.5352 17.7422 22.5352L10.1953 22.5352C9.67969 22.5352 9.24609 22.957 9.24609 23.4844C9.24609 24.0117 9.67969 24.4336 10.1953 24.4336Z" fill="black" fill-opacity="0.85"/>
  <path d="M9.76172 13.5117C9.76172 14.1797 10.0898 14.5195 10.7227 14.5195L14.6953 14.5195C15.3281 14.5195 15.6445 14.1797 15.6445 13.5117L15.6445 10.4648C15.6445 9.79688 15.3281 9.46875 14.6953 9.46875L10.7227 9.46875C10.0898 9.46875 9.76172 9.79688 9.76172 10.4648ZM13.793 10.1484L14.9531 10.1484L14.9531 8.48438C14.9531 7.60547 15.4102 7.05469 16.207 7.05469C17.0039 7.05469 17.4727 7.60547 17.4727 8.48438L17.4727 9.30469C17.4727 9.63281 17.7305 9.90234 18.0586 9.90234C18.3633 9.90234 18.6328 9.63281 18.6328 9.30469L18.6328 8.48438C18.6328 7.00781 17.6836 5.92969 16.207 5.92969C14.7422 5.92969 13.793 7.00781 13.793 8.58984Z" fill="black" fill-opacity="0.85"/>
 </g>
</svg>
