<?xml version="1.0" encoding="UTF-8"?>
<!--Generator: Apple Native CoreSVG 360-->
<!DOCTYPE svg
PUBLIC "-//W3C//DTD SVG 1.1//EN"
       "http://www.w3.org/Graphics/SVG/1.1/DTD/svg11.dtd">
<svg version="1.1" xmlns="http://www.w3.org/2000/svg" xmlns:xlink="http://www.w3.org/1999/xlink" viewBox="0 0 19.9336 26.4258">
 <g>
  <rect height="26.4258" opacity="0" width="19.9336" x="0" y="0"/>
  <path d="M0 23.3086C0 25.1602 1.30078 26.4023 3.24609 26.4023L16.3359 26.4023C18.2812 26.4023 19.582 25.1602 19.582 23.3086L19.582 3.10547C19.582 1.25391 18.2812 0 16.3359 0L3.24609 0C1.30078 0 0 1.25391 0 3.10547ZM1.88672 22.9922L1.88672 3.42188C1.88672 2.46094 2.47266 1.88672 3.48047 1.88672L16.1016 1.88672C17.0977 1.88672 17.6953 2.46094 17.6953 3.42188L17.6953 22.9922C17.6953 23.9531 17.0977 24.5156 16.1016 24.5156L3.48047 24.5156C2.47266 24.5156 1.88672 23.9531 1.88672 22.9922Z" fill="black" fill-opacity="0.85"/>
  <path d="M7.80469 17.1914L11.7891 17.1914C12.4336 17.1914 12.7617 16.8398 12.7617 16.1602L12.7617 13.0547C12.7617 12.5156 12.5508 12.1875 12.1406 12.0703L12.1406 11.3438C12.1406 9.78516 11.1914 8.71875 9.79688 8.71875C8.40234 8.71875 7.45312 9.78516 7.45312 11.3438L7.45312 12.082C7.04297 12.1875 6.83203 12.5156 6.83203 13.0547L6.83203 16.1602C6.83203 16.8398 7.16016 17.1914 7.80469 17.1914ZM8.61328 12.0234L8.61328 11.2383C8.61328 10.3828 9.07031 9.83203 9.79688 9.83203C10.5117 9.83203 10.9805 10.3828 10.9805 11.2383L10.9805 12.0234Z" fill="black" fill-opacity="0.85"/>
 </g>
</svg>
