<?xml version="1.0" encoding="UTF-8"?>
<!--Generator: Apple Native CoreSVG 360-->
<!DOCTYPE svg
PUBLIC "-//W3C//DTD SVG 1.1//EN"
       "http://www.w3.org/Graphics/SVG/1.1/DTD/svg11.dtd">
<svg version="1.1" xmlns="http://www.w3.org/2000/svg" xmlns:xlink="http://www.w3.org/1999/xlink" viewBox="0 0 15.4102 24.832">
 <g>
  <rect height="24.832" opacity="0" width="15.4102" x="0" y="0"/>
  <path d="M0 21.7617C0 23.5898 1.27734 24.8086 3.1875 24.8086L11.8711 24.8086C13.7812 24.8086 15.0586 23.5898 15.0586 21.7617L15.0586 3.04688C15.0586 1.21875 13.7812 0 11.8711 0L3.1875 0C1.27734 0 0 1.21875 0 3.04688ZM1.88672 21.457L1.88672 3.35156C1.88672 2.41406 2.4375 1.88672 3.43359 1.88672L11.6367 1.88672C12.6211 1.88672 13.1719 2.41406 13.1719 3.35156L13.1719 21.457C13.1719 22.3945 12.6211 22.9219 11.6367 22.9219L3.43359 22.9219C2.4375 22.9219 1.88672 22.3945 1.88672 21.457Z" fill="black" fill-opacity="0.85"/>
  <path d="M5.54297 16.3945L9.52734 16.3945C10.1719 16.3945 10.5 16.043 10.5 15.3633L10.5 12.2578C10.5 11.7188 10.2891 11.3906 9.87891 11.2734L9.87891 10.5469C9.87891 8.98828 8.92969 7.92188 7.53516 7.92188C6.14062 7.92188 5.19141 8.98828 5.19141 10.5469L5.19141 11.2852C4.78125 11.3906 4.57031 11.7188 4.57031 12.2578L4.57031 15.3633C4.57031 16.043 4.88672 16.3945 5.54297 16.3945ZM6.35156 11.2266L6.35156 10.4414C6.35156 9.58594 6.80859 9.03516 7.53516 9.03516C8.23828 9.03516 8.71875 9.58594 8.71875 10.4414L8.71875 11.2266Z" fill="black" fill-opacity="0.85"/>
 </g>
</svg>
