<?xml version="1.0" encoding="UTF-8"?>
<!--Generator: Apple Native CoreSVG 360-->
<!DOCTYPE svg
PUBLIC "-//W3C//DTD SVG 1.1//EN"
       "http://www.w3.org/Graphics/SVG/1.1/DTD/svg11.dtd">
<svg version="1.1" xmlns="http://www.w3.org/2000/svg" xmlns:xlink="http://www.w3.org/1999/xlink" viewBox="0 0 34.1484 19.0898">
 <g>
  <rect height="19.0898" opacity="0" width="34.1484" x="0" y="0"/>
  <path d="M0 17.7539C0 18.4922 0.597656 19.0898 1.32422 19.0898L32.4727 19.0898C33.1992 19.0898 33.7969 18.4922 33.7969 17.7539C33.7969 17.0156 33.1992 16.418 32.4727 16.418L29.9062 16.418L29.9062 2.50781C29.9062 0.867188 29.0273 0.0234375 27.3984 0.0234375L6.39844 0.0234375C4.85156 0.0234375 3.89062 0.867188 3.89062 2.50781L3.89062 16.418L1.32422 16.418C0.597656 16.418 0 17.0156 0 17.7539ZM5.77734 16.418L5.77734 3.03516C5.77734 2.28516 6.15234 1.91016 6.90234 1.91016L26.8945 1.91016C27.6445 1.91016 28.0195 2.28516 28.0195 3.03516L28.0195 16.418Z" fill="black" fill-opacity="0.85"/>
  <path d="M14.9062 13.2656L18.9023 13.2656C19.5469 13.2656 19.875 12.9141 19.875 12.2344L19.875 9.12891C19.875 8.58984 19.6523 8.26172 19.2539 8.13281L19.2539 7.41797C19.2539 5.85938 18.3047 4.79297 16.8984 4.79297C15.5039 4.79297 14.5664 5.85938 14.5664 7.41797L14.5664 8.15625C14.1562 8.26172 13.9336 8.58984 13.9336 9.12891L13.9336 12.2344C13.9336 12.9141 14.2617 13.2656 14.9062 13.2656ZM15.7266 8.09766L15.7266 7.3125C15.7266 6.45703 16.1836 5.90625 16.8984 5.90625C17.6133 5.90625 18.0938 6.45703 18.0938 7.3125L18.0938 8.09766Z" fill="black" fill-opacity="0.85"/>
 </g>
</svg>
