<?xml version="1.0" encoding="UTF-8"?>
<!--Generator: Apple Native CoreSVG 360-->
<!DOCTYPE svg
PUBLIC "-//W3C//DTD SVG 1.1//EN"
       "http://www.w3.org/Graphics/SVG/1.1/DTD/svg11.dtd">
<svg version="1.1" xmlns="http://www.w3.org/2000/svg" xmlns:xlink="http://www.w3.org/1999/xlink" viewBox="0 0 28.2891 24.4336">
 <g>
  <rect height="24.4336" opacity="0" width="28.2891" x="0" y="0"/>
  <path d="M2.69531 20.2734L25.2305 20.2734C26.918 20.2734 27.9375 19.2539 27.9375 17.5664L27.9375 3.51562C27.9375 1.82812 26.918 0.820312 25.2305 0.820312L2.69531 0.820312C1.01953 0.820312 0 1.82812 0 3.51562L0 17.5664C0 19.2539 1.01953 20.2734 2.69531 20.2734ZM2.73047 18.3867C2.21484 18.3867 1.88672 18.0586 1.88672 17.543L1.88672 3.55078C1.88672 3.02344 2.21484 2.70703 2.73047 2.70703L25.207 2.70703C25.7227 2.70703 26.0508 3.02344 26.0508 3.55078L26.0508 17.543C26.0508 18.0586 25.7227 18.3867 25.207 18.3867ZM10.2656 23.0625L17.6719 23.0625L17.6719 20.1211L10.2656 20.1211ZM10.1953 24.4336L17.7422 24.4336C18.2578 24.4336 18.6797 24.0117 18.6797 23.4844C18.6797 22.957 18.2578 22.5352 17.7422 22.5352L10.1953 22.5352C9.67969 22.5352 9.24609 22.957 9.24609 23.4844C9.24609 24.0117 9.67969 24.4336 10.1953 24.4336Z" fill="black" fill-opacity="0.85"/>
  <path d="M11.9766 14.5312L15.9609 14.5312C16.6055 14.5312 16.9453 14.1797 16.9453 13.5L16.9453 10.3945C16.9453 9.85547 16.7227 9.52734 16.3125 9.39844L16.3125 8.68359C16.3125 7.11328 15.375 6.04688 13.9688 6.04688C12.5742 6.04688 11.625 7.11328 11.625 8.68359L11.625 9.41016C11.2266 9.52734 11.0039 9.85547 11.0039 10.3945L11.0039 13.5C11.0039 14.1797 11.332 14.5312 11.9766 14.5312ZM12.7852 9.36328L12.7852 8.57812C12.7852 7.72266 13.2539 7.17188 13.9688 7.17188C14.6836 7.17188 15.1523 7.72266 15.1523 8.57812L15.1523 9.36328Z" fill="black" fill-opacity="0.85"/>
 </g>
</svg>
