<?xml version="1.0" encoding="UTF-8"?>
<!--Generator: Apple Native CoreSVG 360-->
<!DOCTYPE svg
PUBLIC "-//W3C//DTD SVG 1.1//EN"
       "http://www.w3.org/Graphics/SVG/1.1/DTD/svg11.dtd">
<svg version="1.1" xmlns="http://www.w3.org/2000/svg" xmlns:xlink="http://www.w3.org/1999/xlink" viewBox="0 0 34.1484 19.0898">
 <g>
  <rect height="19.0898" opacity="0" width="34.1484" x="0" y="0"/>
  <path d="M0 17.7539C0 18.4922 0.597656 19.0898 1.32422 19.0898L32.4727 19.0898C33.1992 19.0898 33.7969 18.4922 33.7969 17.7539C33.7969 17.0156 33.1992 16.418 32.4727 16.418L29.9062 16.418L29.9062 2.50781C29.9062 0.867188 29.0273 0.0234375 27.3984 0.0234375L6.39844 0.0234375C4.85156 0.0234375 3.89062 0.867188 3.89062 2.50781L3.89062 16.418L1.32422 16.418C0.597656 16.418 0 17.0156 0 17.7539ZM5.77734 16.418L5.77734 3.03516C5.77734 2.28516 6.15234 1.91016 6.90234 1.91016L26.8945 1.91016C27.6445 1.91016 28.0195 2.28516 28.0195 3.03516L28.0195 16.418Z" fill="black" fill-opacity="0.85"/>
  <path d="M12.7031 12.2578C12.7031 12.9258 13.0195 13.2539 13.6523 13.2539L17.625 13.2539C18.2578 13.2539 18.5742 12.9258 18.5742 12.2578L18.5742 9.21094C18.5742 8.54297 18.2578 8.20312 17.625 8.20312L13.6523 8.20312C13.0195 8.20312 12.7031 8.54297 12.7031 9.21094ZM16.7227 8.88281L17.8828 8.88281L17.8828 7.21875C17.8828 6.35156 18.3516 5.78906 19.1484 5.78906C19.9453 5.78906 20.4023 6.35156 20.4023 7.21875L20.4023 8.05078C20.4023 8.36719 20.6719 8.63672 20.9883 8.63672C21.3047 8.63672 21.5625 8.36719 21.5625 8.05078L21.5625 7.21875C21.5625 5.74219 20.6133 4.66406 19.1484 4.66406C17.6719 4.66406 16.7227 5.74219 16.7227 7.32422Z" fill="black" fill-opacity="0.85"/>
 </g>
</svg>
