<?xml version="1.0" encoding="UTF-8"?>
<!--Generator: Apple Native CoreSVG 360-->
<!DOCTYPE svg
PUBLIC "-//W3C//DTD SVG 1.1//EN"
       "http://www.w3.org/Graphics/SVG/1.1/DTD/svg11.dtd">
<svg version="1.1" xmlns="http://www.w3.org/2000/svg" xmlns:xlink="http://www.w3.org/1999/xlink" viewBox="0 0 15.4102 24.832">
 <g>
  <rect height="24.832" opacity="0" width="15.4102" x="0" y="0"/>
  <path d="M0 21.7617C0 23.5898 1.27734 24.8086 3.1875 24.8086L11.8711 24.8086C13.7812 24.8086 15.0586 23.5898 15.0586 21.7617L15.0586 3.04688C15.0586 1.21875 13.7812 0 11.8711 0L3.1875 0C1.27734 0 0 1.21875 0 3.04688ZM1.88672 21.457L1.88672 3.35156C1.88672 2.41406 2.4375 1.88672 3.43359 1.88672L11.6367 1.88672C12.6211 1.88672 13.1719 2.41406 13.1719 3.35156L13.1719 21.457C13.1719 22.3945 12.6211 22.9219 11.6367 22.9219L3.43359 22.9219C2.4375 22.9219 1.88672 22.3945 1.88672 21.457Z" fill="black" fill-opacity="0.85"/>
  <path d="M3.32812 15.3867C3.32812 16.0547 3.64453 16.3828 4.27734 16.3828L8.25 16.3828C8.89453 16.3828 9.21094 16.0547 9.21094 15.3867L9.21094 12.3398C9.21094 11.6719 8.89453 11.332 8.25 11.332L4.27734 11.332C3.64453 11.332 3.32812 11.6719 3.32812 12.3398ZM7.34766 12.0117L8.50781 12.0117L8.50781 10.3477C8.50781 9.48047 8.97656 8.91797 9.77344 8.91797C10.5703 8.91797 11.0273 9.48047 11.0273 10.3477L11.0273 11.1797C11.0273 11.4961 11.2969 11.7656 11.6133 11.7656C11.9297 11.7656 12.1875 11.4961 12.1875 11.1797L12.1875 10.3477C12.1875 8.87109 11.2383 7.79297 9.77344 7.79297C8.30859 7.79297 7.34766 8.87109 7.34766 10.4531Z" fill="black" fill-opacity="0.85"/>
 </g>
</svg>
