<?xml version="1.0" encoding="UTF-8"?>
<!--Generator: Apple Native CoreSVG 360-->
<!DOCTYPE svg
PUBLIC "-//W3C//DTD SVG 1.1//EN"
       "http://www.w3.org/Graphics/SVG/1.1/DTD/svg11.dtd">
<svg version="1.1" xmlns="http://www.w3.org/2000/svg" xmlns:xlink="http://www.w3.org/1999/xlink" viewBox="0 0 21.9258 21.5977">
 <g>
  <rect height="21.5977" opacity="0" width="21.9258" x="0" y="0"/>
  <path d="M0 6.19922L1.88672 6.19922L1.88672 3.75C1.88672 2.53125 2.53125 1.91016 3.70312 1.91016L6.12891 1.91016L6.12891 0.0234375L3.67969 0.0234375C1.23047 0.0234375 0 1.23047 0 3.65625ZM7.73438 1.91016L13.8398 1.91016L13.8398 0.0234375L7.73438 0.0234375ZM19.6875 6.19922L21.5742 6.19922L21.5742 3.65625C21.5742 1.24219 20.3438 0.0234375 17.8945 0.0234375L15.4453 0.0234375L15.4453 1.91016L17.8711 1.91016C19.0312 1.91016 19.6875 2.53125 19.6875 3.75ZM19.6875 13.8164L21.5742 13.8164L21.5742 7.80469L19.6875 7.80469ZM15.4453 21.5977L17.8945 21.5977C20.3438 21.5977 21.5742 20.3789 21.5742 17.9648L21.5742 15.4219L19.6875 15.4219L19.6875 17.8711C19.6875 19.0898 19.0312 19.7109 17.8711 19.7109L15.4453 19.7109ZM7.73438 21.5977L13.8398 21.5977L13.8398 19.7109L7.73438 19.7109ZM3.67969 21.5977L6.12891 21.5977L6.12891 19.7109L3.70312 19.7109C2.53125 19.7109 1.88672 19.0898 1.88672 17.8711L1.88672 15.4219L0 15.4219L0 17.9648C0 20.3906 1.23047 21.5977 3.67969 21.5977ZM0 13.8164L1.88672 13.8164L1.88672 7.80469L0 7.80469Z" fill="black" fill-opacity="0.85"/>
  <path d="M6.5625 15.4102C6.5625 16.2891 6.94922 16.6992 7.75781 16.6992L13.8281 16.6992C14.6484 16.6992 15.0352 16.2891 15.0352 15.4102L15.0352 10.7461C15.0352 9.92578 14.6953 9.52734 13.9922 9.48047L13.9922 8.08594C13.9922 5.92969 12.7031 4.48828 10.793 4.48828C8.88281 4.48828 7.59375 5.92969 7.59375 8.08594L7.59375 9.48047C6.90234 9.52734 6.5625 9.92578 6.5625 10.7461ZM8.8125 9.46875L8.8125 7.95703C8.8125 6.58594 9.60938 5.67188 10.793 5.67188C11.9766 5.67188 12.7734 6.58594 12.7734 7.95703L12.7734 9.46875Z" fill="black" fill-opacity="0.85"/>
 </g>
</svg>
