<?xml version="1.0" encoding="UTF-8"?>
<!--Generator: Apple Native CoreSVG 360-->
<!DOCTYPE svg
PUBLIC "-//W3C//DTD SVG 1.1//EN"
       "http://www.w3.org/Graphics/SVG/1.1/DTD/svg11.dtd">
<svg version="1.1" xmlns="http://www.w3.org/2000/svg" xmlns:xlink="http://www.w3.org/1999/xlink" viewBox="0 0 28.2891 24.4336">
 <g>
  <rect height="24.4336" opacity="0" width="28.2891" x="0" y="0"/>
  <path d="M2.69531 20.2734L25.2305 20.2734C26.918 20.2734 27.9375 19.2539 27.9375 17.5664L27.9375 3.51562C27.9375 1.82812 26.918 0.820312 25.2305 0.820312L2.69531 0.820312C1.01953 0.820312 0 1.82812 0 3.51562L0 17.5664C0 19.2539 1.01953 20.2734 2.69531 20.2734ZM2.39062 15.1055C2.03906 15.1055 1.88672 14.9766 1.88672 14.6016L1.88672 3.55078C1.88672 3.02344 2.21484 2.70703 2.73047 2.70703L25.207 2.70703C25.7227 2.70703 26.0508 3.02344 26.0508 3.55078L26.0508 14.6016C26.0508 14.9766 25.8867 15.1055 25.5352 15.1055ZM10.2656 23.0625L17.6719 23.0625L17.6719 20.1211L10.2656 20.1211ZM10.1953 24.4336L17.7422 24.4336C18.2578 24.4336 18.6797 24.0117 18.6797 23.4844C18.6797 22.957 18.2578 22.5352 17.7422 22.5352L10.1953 22.5352C9.67969 22.5352 9.24609 22.957 9.24609 23.4844C9.24609 24.0117 9.67969 24.4336 10.1953 24.4336Z" fill="black" fill-opacity="0.85"/>
  <path d="M9.76172 12C9.76172 12.668 10.0898 12.9961 10.7227 12.9961L14.6953 12.9961C15.3281 12.9961 15.6445 12.668 15.6445 12L15.6445 8.95312C15.6445 8.28516 15.3281 7.94531 14.6953 7.94531L10.7227 7.94531C10.0898 7.94531 9.76172 8.28516 9.76172 8.95312ZM13.793 8.63672L14.9531 8.63672L14.9531 6.96094C14.9531 6.09375 15.4102 5.54297 16.207 5.54297C17.0039 5.54297 17.4727 6.09375 17.4727 6.96094L17.4727 7.79297C17.4727 8.10938 17.7305 8.37891 18.0586 8.37891C18.3633 8.37891 18.6328 8.10938 18.6328 7.79297L18.6328 6.96094C18.6328 5.48438 17.6836 4.40625 16.207 4.40625C14.7422 4.40625 13.793 5.48438 13.793 7.06641Z" fill="black" fill-opacity="0.85"/>
 </g>
</svg>
