<?xml version="1.0" encoding="UTF-8"?>
<!--Generator: Apple Native CoreSVG 360-->
<!DOCTYPE svg
PUBLIC "-//W3C//DTD SVG 1.1//EN"
       "http://www.w3.org/Graphics/SVG/1.1/DTD/svg11.dtd">
<svg version="1.1" xmlns="http://www.w3.org/2000/svg" xmlns:xlink="http://www.w3.org/1999/xlink" viewBox="0 0 28.2891 24.4336">
 <g>
  <rect height="24.4336" opacity="0" width="28.2891" x="0" y="0"/>
  <path d="M2.69531 20.2734L25.2305 20.2734C26.918 20.2734 27.9375 19.2539 27.9375 17.5664L27.9375 3.51562C27.9375 1.82812 26.918 0.820312 25.2305 0.820312L2.69531 0.820312C1.01953 0.820312 0 1.82812 0 3.51562L0 17.5664C0 19.2539 1.01953 20.2734 2.69531 20.2734ZM2.39062 15.1055C2.03906 15.1055 1.88672 14.9766 1.88672 14.6016L1.88672 3.55078C1.88672 3.02344 2.21484 2.70703 2.73047 2.70703L25.207 2.70703C25.7227 2.70703 26.0508 3.02344 26.0508 3.55078L26.0508 14.6016C26.0508 14.9766 25.8867 15.1055 25.5352 15.1055ZM10.2656 23.0625L17.6719 23.0625L17.6719 20.1211L10.2656 20.1211ZM10.1953 24.4336L17.7422 24.4336C18.2578 24.4336 18.6797 24.0117 18.6797 23.4844C18.6797 22.957 18.2578 22.5352 17.7422 22.5352L10.1953 22.5352C9.67969 22.5352 9.24609 22.957 9.24609 23.4844C9.24609 24.0117 9.67969 24.4336 10.1953 24.4336Z" fill="black" fill-opacity="0.85"/>
  <path d="M11.9766 13.0078L15.9609 13.0078C16.6055 13.0078 16.9453 12.668 16.9453 11.9766L16.9453 8.87109C16.9453 8.33203 16.7227 8.01562 16.3125 7.88672L16.3125 7.16016C16.3125 5.60156 15.375 4.53516 13.9688 4.53516C12.5742 4.53516 11.625 5.60156 11.625 7.16016L11.625 7.89844C11.2266 8.01562 11.0039 8.33203 11.0039 8.87109L11.0039 11.9766C11.0039 12.668 11.332 13.0078 11.9766 13.0078ZM12.7852 7.83984L12.7852 7.05469C12.7852 6.21094 13.2539 5.66016 13.9688 5.66016C14.6836 5.66016 15.1523 6.21094 15.1523 7.05469L15.1523 7.83984Z" fill="black" fill-opacity="0.85"/>
 </g>
</svg>
