<?xml version="1.0" encoding="UTF-8"?>
<!--Generator: Apple Native CoreSVG 360-->
<!DOCTYPE svg
PUBLIC "-//W3C//DTD SVG 1.1//EN"
       "http://www.w3.org/Graphics/SVG/1.1/DTD/svg11.dtd">
<svg version="1.1" xmlns="http://www.w3.org/2000/svg" xmlns:xlink="http://www.w3.org/1999/xlink" viewBox="0 0 19.9336 26.4258">
 <g>
  <rect height="26.4258" opacity="0" width="19.9336" x="0" y="0"/>
  <path d="M0 23.3086C0 25.1602 1.30078 26.4023 3.24609 26.4023L16.3359 26.4023C18.2812 26.4023 19.582 25.1602 19.582 23.3086L19.582 3.10547C19.582 1.25391 18.2812 0 16.3359 0L3.24609 0C1.30078 0 0 1.25391 0 3.10547ZM1.88672 22.9922L1.88672 3.42188C1.88672 2.46094 2.47266 1.88672 3.48047 1.88672L16.1016 1.88672C17.0977 1.88672 17.6953 2.46094 17.6953 3.42188L17.6953 22.9922C17.6953 23.9531 17.0977 24.5156 16.1016 24.5156L3.48047 24.5156C2.47266 24.5156 1.88672 23.9531 1.88672 22.9922Z" fill="black" fill-opacity="0.85"/>
  <path d="M5.58984 16.1836C5.58984 16.8516 5.90625 17.1797 6.53906 17.1797L10.5234 17.1797C11.1562 17.1797 11.4727 16.8516 11.4727 16.1836L11.4727 13.1367C11.4727 12.4688 11.1562 12.1289 10.5234 12.1289L6.53906 12.1289C5.90625 12.1289 5.58984 12.4688 5.58984 13.1367ZM9.62109 12.8086L10.7812 12.8086L10.7812 11.1445C10.7812 10.2773 11.2383 9.71484 12.0352 9.71484C12.832 9.71484 13.3008 10.2773 13.3008 11.1445L13.3008 11.9766C13.3008 12.293 13.5586 12.5625 13.8867 12.5625C14.1914 12.5625 14.4609 12.293 14.4609 11.9766L14.4609 11.1445C14.4609 9.66797 13.5 8.58984 12.0352 8.58984C10.5703 8.58984 9.62109 9.66797 9.62109 11.25Z" fill="black" fill-opacity="0.85"/>
 </g>
</svg>
