<?xml version="1.0" encoding="UTF-8"?>
<!--Generator: Apple Native CoreSVG 360-->
<!DOCTYPE svg
PUBLIC "-//W3C//DTD SVG 1.1//EN"
       "http://www.w3.org/Graphics/SVG/1.1/DTD/svg11.dtd">
<svg version="1.1" xmlns="http://www.w3.org/2000/svg" xmlns:xlink="http://www.w3.org/1999/xlink" viewBox="0 0 28.1034 23.918">
 <g>
  <rect height="23.918" opacity="0" width="28.1034" x="0" y="0"/>
  <path d="M27.2646 9.69141L21.8974 9.69141C21.0654 9.69141 20.8427 10.2656 21.2998 10.9102L23.9248 14.6484C24.2998 15.1758 24.8623 15.1875 25.2373 14.6484L27.8623 10.9219C28.331 10.2656 28.1083 9.69141 27.2646 9.69141ZM1.92866 11.9531C1.92866 18.5508 7.28413 23.9062 13.8818 23.9062C17.8896 23.9062 21.3818 21.9492 23.5615 18.9258C23.9599 18.4102 23.8193 17.7422 23.3388 17.4492C22.8466 17.1562 22.2958 17.3086 21.9443 17.7891C20.1513 20.2734 17.2216 21.9141 13.8818 21.9141C8.37397 21.9141 3.92085 17.4609 3.92085 11.9531C3.92085 6.44531 8.37397 1.99219 13.8818 1.99219C19.3896 1.99219 23.8427 6.44531 23.8427 11.9531C23.8427 12.5039 24.2998 12.9492 24.8388 12.9492C25.3779 12.9492 25.8232 12.5156 25.8349 11.9648C25.8232 5.34375 20.4794 0 13.8818 0C7.28413 0 1.92866 5.35547 1.92866 11.9531Z" fill="black" fill-opacity="0.85"/>
  <path d="M9.65132 16.5703C9.65132 17.4492 10.038 17.8594 10.8466 17.8594L16.9169 17.8594C17.7255 17.8594 18.1123 17.4492 18.1123 16.5703L18.1123 11.9062C18.1123 11.0859 17.7724 10.6875 17.081 10.6406L17.081 9.24609C17.081 7.08984 15.7919 5.64844 13.8818 5.64844C11.9716 5.64844 10.6826 7.08984 10.6826 9.24609L10.6826 10.6406C9.99116 10.6875 9.65132 11.0859 9.65132 11.9062ZM11.9013 10.6289L11.9013 9.11719C11.9013 7.74609 12.6982 6.83203 13.8818 6.83203C15.0654 6.83203 15.8623 7.74609 15.8623 9.11719L15.8623 10.6289Z" fill="black" fill-opacity="0.85"/>
 </g>
</svg>
