<?xml version="1.0" encoding="UTF-8"?>
<!--Generator: Apple Native CoreSVG 360-->
<!DOCTYPE svg
PUBLIC "-//W3C//DTD SVG 1.1//EN"
       "http://www.w3.org/Graphics/SVG/1.1/DTD/svg11.dtd">
<svg version="1.1" xmlns="http://www.w3.org/2000/svg" xmlns:xlink="http://www.w3.org/1999/xlink" viewBox="0 0 20.6528 23.1211">
 <g>
  <rect height="23.1211" opacity="0" width="20.6528" x="0" y="0"/>
  <path d="M10.1565 23.1211C16.2151 23.1211 21.1721 20.7891 20.1877 16.7344L18.301 8.98828L18.1018 4.47656C17.9729 1.85156 14.9143 0.0117188 10.1565 0.0117188C5.39866 0.0117188 2.32834 1.85156 2.19944 4.47656L2.00022 8.98828L0.12522 16.7344C-0.859155 20.7891 4.09788 23.1211 10.1565 23.1211ZM10.1565 21.2461C5.65647 21.2461 1.33225 19.5938 1.97678 16.9688L3.37131 11.2266C4.77756 12.3047 7.12131 12.9727 10.1565 12.9727C13.1799 12.9727 15.5354 12.3047 16.9416 11.2266L18.3362 16.9688C18.969 19.5938 14.6448 21.2461 10.1565 21.2461ZM10.1565 5.98828C7.15647 5.98828 4.82444 5.01562 4.82444 3.82031C4.82444 2.61328 7.15647 1.64062 10.1565 1.64062C13.1448 1.64062 15.4885 2.61328 15.4885 3.82031C15.4885 5.01562 13.1448 5.98828 10.1565 5.98828Z" fill="black" fill-opacity="0.85"/>
 </g>
</svg>
