<?xml version="1.0" encoding="UTF-8"?>
<!--Generator: Apple Native CoreSVG 360-->
<!DOCTYPE svg
PUBLIC "-//W3C//DTD SVG 1.1//EN"
       "http://www.w3.org/Graphics/SVG/1.1/DTD/svg11.dtd">
<svg version="1.1" xmlns="http://www.w3.org/2000/svg" xmlns:xlink="http://www.w3.org/1999/xlink" viewBox="0 0 30.6797 21.0873">
 <g>
  <rect height="21.0873" opacity="0" width="30.6797" x="0" y="0"/>
  <path d="M30.3281 11.8737L30.3281 4.52606C30.3281 2.41669 28.9102 0.986998 26.7891 0.986998L3.51562 0.998716C1.41797 0.998716 0 2.44012 0 4.56122L0 11.8737C0 14.9089 1.30078 16.7722 4.42969 17.6979L14.5781 20.6511C17.2969 21.4479 19.043 21.1315 21.4688 19.8776L28.0547 16.4909C29.918 15.53 30.3281 14.3815 30.3281 11.8737ZM28.4414 11.8737C28.4414 13.6081 28.1133 14.3698 26.8594 15.0026L20.4609 18.2722C18.4453 19.2917 17.0156 19.5026 14.5781 18.7761L4.98047 15.9284C2.77734 15.2839 1.88672 14.0065 1.88672 11.8737L1.88672 4.59637C1.88672 3.56512 2.54297 2.88544 3.55078 2.88544L26.7656 2.87372C27.7734 2.87372 28.4414 3.54169 28.4414 4.56122Z" fill="black" fill-opacity="0.85"/>
  <path d="M6.89062 14.3581L10.125 14.3581C10.5 14.3581 10.8047 14.0417 10.8047 13.6667C10.8047 13.3034 10.5 12.987 10.125 12.987L7.71094 12.987L7.71094 5.92059C7.71094 5.487 7.33594 5.112 6.90234 5.112C6.45703 5.112 6.08203 5.487 6.08203 5.92059L6.08203 13.5026C6.08203 14.03 6.375 14.3581 6.89062 14.3581ZM14.5195 14.5573C16.2656 14.5573 17.3438 13.5612 17.3438 11.8503C17.3438 10.3972 16.6055 9.71747 15.293 9.21356L14.6602 8.97919C13.9219 8.69794 13.3945 8.31122 13.3945 7.52606C13.3945 6.83465 13.8164 6.35419 14.4727 6.35419C15.1758 6.35419 15.5508 6.86981 15.6797 7.45575C15.7969 7.84247 16.0664 7.98309 16.4297 7.98309C16.8633 7.98309 17.1328 7.71356 17.1328 7.29169C17.1328 7.19794 17.1328 7.10419 17.0742 6.88153C16.7344 5.68622 15.7266 5.01825 14.4727 5.01825C12.9141 5.01825 11.7891 6.02606 11.7891 7.65497C11.7891 9.07294 12.6562 9.82294 13.8047 10.2682L14.4258 10.5143C15.1641 10.7956 15.7383 11.1589 15.7383 11.9909C15.7383 12.7175 15.2812 13.2214 14.5312 13.2214C13.793 13.2214 13.3477 12.7292 13.2188 12.1198C13.125 11.7214 12.8438 11.5456 12.4688 11.5456C12.0352 11.5456 11.7539 11.862 11.7539 12.2956C11.7539 12.4948 11.7656 12.5651 11.8242 12.7643C12.1641 13.9479 13.2422 14.5573 14.5195 14.5573ZM19.5703 14.3581L21.9609 14.3581C23.5547 14.3581 24.4688 13.3034 24.4688 11.7917C24.4688 10.6901 23.8008 9.68231 22.7344 9.57684L22.7344 9.51825C23.5898 9.3659 24.1875 8.41669 24.1875 7.52606C24.1875 6.07294 23.2148 5.25262 21.8906 5.25262L19.5703 5.25262C19.043 5.25262 18.75 5.6159 18.75 6.10809L18.75 13.5026C18.75 14.03 19.0547 14.3581 19.5703 14.3581ZM20.3672 9.11981L20.3672 6.50653L21.4219 6.50653C22.2773 6.50653 22.6055 7.04559 22.6055 7.77215C22.6055 8.60419 22.125 9.11981 21.293 9.11981ZM20.3672 13.1159L20.3672 10.2214L21.4219 10.2214C22.2422 10.2214 22.8164 10.6667 22.8164 11.6628C22.8164 12.5651 22.3711 13.1159 21.457 13.1159Z" fill="black" fill-opacity="0.85"/>
 </g>
</svg>
