<?xml version="1.0" encoding="UTF-8"?>
<!--Generator: Apple Native CoreSVG 360-->
<!DOCTYPE svg
PUBLIC "-//W3C//DTD SVG 1.1//EN"
       "http://www.w3.org/Graphics/SVG/1.1/DTD/svg11.dtd">
<svg version="1.1" xmlns="http://www.w3.org/2000/svg" xmlns:xlink="http://www.w3.org/1999/xlink" viewBox="0 0 27.3867 20.4492">
 <g>
  <rect height="20.4492" opacity="0" width="27.3867" x="0" y="0"/>
  <path d="M9.83203 0C3.03516 0 0 3.12891 0 9.52734L0 16.875C0 19.2422 1.21875 20.4375 3.59766 20.4375L23.4375 20.4375C25.8164 20.4375 27.0352 19.2305 27.0352 16.875L27.0352 9.52734C27.0352 3.12891 24 0 17.2031 0ZM9.83203 1.88672L17.1914 1.88672C22.7344 1.88672 25.1484 4.28906 25.1484 9.39844L25.1484 16.7812C25.1484 17.9531 24.5156 18.5508 23.3906 18.5508L3.64453 18.5508C2.49609 18.5508 1.88672 17.9531 1.88672 16.7812L1.88672 9.39844C1.88672 4.28906 4.30078 1.88672 9.83203 1.88672Z" fill="black" fill-opacity="0.85"/>
  <path d="M9.35156 14.9766L12.7266 14.9766C13.1133 14.9766 13.4297 14.6484 13.4297 14.2617C13.4297 13.875 13.1133 13.5469 12.7266 13.5469L10.2188 13.5469L10.2188 6.19922C10.2188 5.73047 9.83203 5.34375 9.36328 5.34375C8.90625 5.34375 8.51953 5.73047 8.51953 6.19922L8.51953 14.0859C8.51953 14.6367 8.8125 14.9766 9.35156 14.9766ZM16.207 15.1172C16.6758 15.1172 17.0508 14.7305 17.0508 14.25L17.0508 6.90234L18.4805 6.90234C18.8672 6.90234 19.1719 6.59766 19.1719 6.1875C19.1719 5.80078 18.8672 5.49609 18.4805 5.49609L13.8867 5.49609C13.4766 5.49609 13.1719 5.80078 13.1719 6.1875C13.1719 6.59766 13.4766 6.90234 13.8867 6.90234L15.3516 6.90234L15.3516 14.25C15.3516 14.7305 15.7266 15.1172 16.207 15.1172Z" fill="black" fill-opacity="0.85"/>
 </g>
</svg>
