<?xml version="1.0" encoding="UTF-8"?>
<!--Generator: Apple Native CoreSVG 360-->
<!DOCTYPE svg
PUBLIC "-//W3C//DTD SVG 1.1//EN"
       "http://www.w3.org/Graphics/SVG/1.1/DTD/svg11.dtd">
<svg version="1.1" xmlns="http://www.w3.org/2000/svg" xmlns:xlink="http://www.w3.org/1999/xlink" viewBox="0 0 24.2578 23.918">
 <g>
  <rect height="23.918" opacity="0" width="24.2578" x="0" y="0"/>
  <path d="M11.9531 23.9062C18.5508 23.9062 23.9062 18.5508 23.9062 11.9531C23.9062 5.35547 18.5508 0 11.9531 0C5.35547 0 0 5.35547 0 11.9531C0 18.5508 5.35547 23.9062 11.9531 23.9062ZM11.9531 21.9141C6.44531 21.9141 1.99219 17.4609 1.99219 11.9531C1.99219 6.44531 6.44531 1.99219 11.9531 1.99219C17.4609 1.99219 21.9141 6.44531 21.9141 11.9531C21.9141 17.4609 17.4609 21.9141 11.9531 21.9141Z" fill="black" fill-opacity="0.85"/>
  <path d="M7.76953 16.6992L11.1445 16.6992C11.5312 16.6992 11.8477 16.3828 11.8477 15.9844C11.8477 15.5977 11.5312 15.2812 11.1445 15.2812L8.63672 15.2812L8.63672 7.92188C8.63672 7.46484 8.25 7.07812 7.78125 7.07812C7.32422 7.07812 6.9375 7.46484 6.9375 7.92188L6.9375 15.8203C6.9375 16.3711 7.23047 16.6992 7.76953 16.6992ZM14.625 16.8398C15.0938 16.8398 15.4688 16.4648 15.4688 15.9844L15.4688 8.63672L16.8984 8.63672C17.2852 8.63672 17.5898 8.32031 17.5898 7.92188C17.5898 7.53516 17.2852 7.21875 16.8984 7.21875L12.3047 7.21875C11.9062 7.21875 11.5898 7.53516 11.5898 7.92188C11.5898 8.32031 11.9062 8.63672 12.3047 8.63672L13.7695 8.63672L13.7695 15.9844C13.7695 16.4648 14.1445 16.8398 14.625 16.8398Z" fill="black" fill-opacity="0.85"/>
 </g>
</svg>
