<?xml version="1.0" encoding="UTF-8"?>
<!--Generator: Apple Native CoreSVG 360-->
<!DOCTYPE svg
PUBLIC "-//W3C//DTD SVG 1.1//EN"
       "http://www.w3.org/Graphics/SVG/1.1/DTD/svg11.dtd">
<svg version="1.1" xmlns="http://www.w3.org/2000/svg" xmlns:xlink="http://www.w3.org/1999/xlink" viewBox="0 0 31.2452 22.6289">
 <g>
  <rect height="22.6289" opacity="0" width="31.2452" x="0" y="0"/>
  <path d="M8.84918 21.1523L4.24371 22.043C1.18512 22.6289-0.60785 20.707 0.189025 17.7188L3.89215 3.67969C4.47809 1.48828 6.24762 0 8.33356 0C10.7828 0 12.4351 1.58203 12.4351 3.9375L12.4351 13.5352L11.0523 13.8398L10.5484 13.3853L10.5484 3.9375C10.5484 2.69531 9.65778 1.88672 8.33356 1.88672C7.12653 1.88672 6.09528 2.77734 5.72028 4.16016L2.04059 18.1406C1.64215 19.6406 2.53278 20.4492 3.86871 20.2031L8.50934 19.3008C10.0914 18.9844 10.5484 18.4336 10.5484 16.6875L10.5484 15.8586L12.4351 15.457L12.4351 16.6875C12.4351 19.3242 11.3336 20.6719 8.84918 21.1523ZM22.5601 0C24.6461 0 26.4156 1.48828 27.0015 3.67969L30.7047 17.7188C31.5015 20.707 29.7086 22.6289 26.65 22.043L22.0445 21.1523C19.5601 20.6719 18.4586 19.3242 18.4586 16.6875L18.4586 15.457L20.3453 15.8586L20.3453 16.6875C20.3453 18.4336 20.8023 18.9844 22.3843 19.3008L27.025 20.2031C28.3609 20.4492 29.2515 19.6406 28.8531 18.1406L25.1734 4.16016C24.7984 2.77734 23.7672 1.88672 22.5601 1.88672C21.2242 1.88672 20.3453 2.69531 20.3453 3.9375L20.3453 13.3853L19.8414 13.8398L18.4586 13.5352L18.4586 3.9375C18.4586 1.58203 20.1109 0 22.5601 0Z" fill="black" fill-opacity="0.85"/>
  <path d="M6.0484 16.8164L12.4351 15.457L12.4351 13.5352L11.0523 13.8398L7.46637 10.6055C7.10309 10.2773 6.47028 10.2891 6.11871 10.6641C5.79059 11.0508 5.83746 11.6719 6.21246 12.0117L8.79059 14.3203L5.63824 14.9883C5.16949 15.082 4.82965 15.5977 4.9234 16.0898C5.01715 16.5938 5.55621 16.9219 6.0484 16.8164ZM24.8453 16.8164C25.3375 16.9219 25.8765 16.5938 25.9703 16.0898C26.064 15.5977 25.7242 15.082 25.2554 14.9883L22.1031 14.3203L24.6812 12.0117C25.0562 11.6719 25.1031 11.0508 24.775 10.6641C24.4234 10.2891 23.7906 10.2773 23.4273 10.6055L19.8414 13.8398L18.4586 13.5352L18.4586 15.457Z" fill="black" fill-opacity="0.85"/>
  <path d="M15.4468 14.8359L18.4586 15.457L18.4586 13.5352L16.3726 13.0898L16.3726 1.47656C16.3726 0.960938 15.9625 0.539062 15.4468 0.539062C14.9312 0.539062 14.5093 0.960938 14.5093 1.47656L14.5093 13.0898L12.4351 13.5352L12.4351 15.457Z" fill="black" fill-opacity="0.85"/>
 </g>
</svg>
