<?xml version="1.0" encoding="UTF-8"?>
<!--Generator: Apple Native CoreSVG 360-->
<!DOCTYPE svg
PUBLIC "-//W3C//DTD SVG 1.1//EN"
       "http://www.w3.org/Graphics/SVG/1.1/DTD/svg11.dtd">
<svg version="1.1" xmlns="http://www.w3.org/2000/svg" xmlns:xlink="http://www.w3.org/1999/xlink" viewBox="0 0 24.2578 23.918">
 <g>
  <rect height="23.918" opacity="0" width="24.2578" x="0" y="0"/>
  <path d="M11.9531 23.9062C18.5508 23.9062 23.9062 18.5508 23.9062 11.9531C23.9062 5.35547 18.5508 0 11.9531 0C5.35547 0 0 5.35547 0 11.9531C0 18.5508 5.35547 23.9062 11.9531 23.9062ZM11.9531 21.9141C6.44531 21.9141 1.99219 17.4609 1.99219 11.9531C1.99219 6.44531 6.44531 1.99219 11.9531 1.99219C17.4609 1.99219 21.9141 6.44531 21.9141 11.9531C21.9141 17.4609 17.4609 21.9141 11.9531 21.9141Z" fill="black" fill-opacity="0.85"/>
  <path d="M7.38281 17.3906C7.92188 17.3906 8.23828 17.0391 8.23828 16.4297L8.23828 9.66797L8.34375 9.66797L11.0391 16.418C11.2148 16.8398 11.4844 17.0391 11.9297 17.0391C12.3633 17.0391 12.6562 16.8398 12.8203 16.418L15.5391 9.66797L15.6328 9.66797L15.6328 16.4297C15.6328 17.0273 15.9492 17.3906 16.4648 17.3906C17.0156 17.3906 17.332 17.0391 17.332 16.4297L17.332 7.45312C17.332 6.80859 16.875 6.36328 16.2305 6.36328C15.668 6.36328 15.293 6.62109 15.082 7.125L11.9766 14.918L11.918 14.918L8.78906 7.125C8.58984 6.62109 8.21484 6.36328 7.65234 6.36328C6.99609 6.36328 6.53906 6.80859 6.53906 7.45312L6.53906 16.4297C6.53906 17.0273 6.86719 17.3906 7.38281 17.3906Z" fill="black" fill-opacity="0.85"/>
 </g>
</svg>
