<?xml version="1.0" encoding="UTF-8"?>
<!--Generator: Apple Native CoreSVG 360-->
<!DOCTYPE svg
PUBLIC "-//W3C//DTD SVG 1.1//EN"
       "http://www.w3.org/Graphics/SVG/1.1/DTD/svg11.dtd">
<svg version="1.1" xmlns="http://www.w3.org/2000/svg" xmlns:xlink="http://www.w3.org/1999/xlink" viewBox="0 0 27.9844 21.0586">
 <g>
  <rect height="21.0586" opacity="0" width="27.9844" x="0" y="0"/>
  <path d="M9.23438 21.0352L18.3984 21.0352C25.1953 21.0352 27.6328 18.5156 27.6328 12.2461L27.6328 8.80078C27.6328 2.53125 25.1953 0 18.3984 0L9.23438 0C2.4375 0 0 2.53125 0 8.80078L0 12.2461C0 18.5156 2.4375 21.0352 9.23438 21.0352ZM9.23438 19.1484C3.70312 19.1484 1.88672 17.3555 1.88672 12.2461L1.88672 8.80078C1.88672 3.69141 3.70312 1.88672 9.23438 1.88672L18.3984 1.88672C23.9297 1.88672 25.7461 3.69141 25.7461 8.80078L25.7461 12.2461C25.7461 17.3555 23.9297 19.1484 18.3984 19.1484Z" fill="black" fill-opacity="0.85"/>
  <path d="M7.73438 15.4336C8.19141 15.4336 8.49609 15.1172 8.49609 14.6133L8.49609 8.28516L8.56641 8.28516L10.1602 14.4844C10.2656 14.9297 10.5469 15.2578 11.0273 15.2578C11.5078 15.2578 11.7539 14.9414 11.8711 14.4727L13.4648 8.28516L13.5352 8.28516L13.5352 14.6133C13.5352 15.1172 13.8164 15.4336 14.2852 15.4336C14.7891 15.4336 15.0469 15.1172 15.0469 14.6133L15.0469 6.84375C15.0469 6.08203 14.5898 5.64844 13.8516 5.64844C13.1719 5.64844 12.7969 5.97656 12.6328 6.63281L11.0391 13.0195L10.9922 13.0195L9.375 6.63281C9.21094 5.97656 8.8125 5.64844 8.17969 5.64844C7.42969 5.64844 6.97266 6.10547 6.97266 6.84375L6.97266 14.6133C6.97266 15.1172 7.26562 15.4336 7.73438 15.4336ZM19.3125 15.3867C19.7812 15.3867 20.168 15 20.168 14.5312L20.168 6.58594C20.168 5.98828 19.793 5.63672 19.1836 5.63672C18.6914 5.63672 18.293 5.90625 18.0117 6.11719L16.7227 7.11328C16.5234 7.27734 16.3594 7.5 16.3594 7.80469C16.3594 8.16797 16.6055 8.42578 16.957 8.42578C17.1445 8.42578 17.2617 8.36719 17.3789 8.28516L18.457 7.41797L18.457 14.5312C18.457 15 18.8438 15.3867 19.3125 15.3867Z" fill="black" fill-opacity="0.85"/>
 </g>
</svg>
