<?xml version="1.0" encoding="UTF-8"?>
<!--Generator: Apple Native CoreSVG 360-->
<!DOCTYPE svg
PUBLIC "-//W3C//DTD SVG 1.1//EN"
       "http://www.w3.org/Graphics/SVG/1.1/DTD/svg11.dtd">
<svg version="1.1" xmlns="http://www.w3.org/2000/svg" xmlns:xlink="http://www.w3.org/1999/xlink" viewBox="0 0 27.9844 21.0586">
 <g>
  <rect height="21.0586" opacity="0" width="27.9844" x="0" y="0"/>
  <path d="M9.23438 21.0352L18.3984 21.0352C25.1953 21.0352 27.6328 18.5156 27.6328 12.2461L27.6328 8.80078C27.6328 2.53125 25.1953 0 18.3984 0L9.23438 0C2.4375 0 0 2.53125 0 8.80078L0 12.2461C0 18.5156 2.4375 21.0352 9.23438 21.0352ZM9.23438 19.1484C3.70312 19.1484 1.88672 17.3555 1.88672 12.2461L1.88672 8.80078C1.88672 3.69141 3.70312 1.88672 9.23438 1.88672L18.3984 1.88672C23.9297 1.88672 25.7461 3.69141 25.7461 8.80078L25.7461 12.2461C25.7461 17.3555 23.9297 19.1484 18.3984 19.1484Z" fill="black" fill-opacity="0.85"/>
  <path d="M7.10156 15.4336C7.57031 15.4336 7.86328 15.1172 7.86328 14.6133L7.86328 8.28516L7.93359 8.28516L9.52734 14.4844C9.63281 14.9297 9.92578 15.2578 10.3945 15.2578C10.875 15.2578 11.1211 14.9414 11.25 14.4727L12.8438 8.28516L12.9023 8.28516L12.9023 14.6133C12.9023 15.1172 13.1836 15.4336 13.6641 15.4336C14.1562 15.4336 14.4258 15.1172 14.4258 14.6133L14.4258 6.84375C14.4258 6.08203 13.957 5.64844 13.2188 5.64844C12.5391 5.64844 12.1641 5.97656 12 6.63281L10.418 13.0195L10.3594 13.0195L8.74219 6.63281C8.57812 5.97656 8.19141 5.64844 7.54688 5.64844C6.80859 5.64844 6.33984 6.10547 6.33984 6.84375L6.33984 14.6133C6.33984 15.1172 6.63281 15.4336 7.10156 15.4336ZM16.7461 15.2578L20.8125 15.2578C21.2227 15.2578 21.4688 14.9883 21.4688 14.5781C21.4688 14.1328 21.2109 13.8867 20.8125 13.8867L18.0234 13.8867L18.0234 13.793L19.7344 11.625C20.9062 10.1719 21.293 9.30469 21.293 8.27344C21.293 6.69141 20.2148 5.54297 18.5977 5.54297C17.1094 5.54297 15.9609 6.78516 15.9609 8.00391C15.9609 8.4375 16.2188 8.74219 16.6641 8.74219C17.0508 8.74219 17.2969 8.56641 17.4141 8.17969C17.6367 7.39453 17.918 6.90234 18.5977 6.90234C19.3008 6.90234 19.6992 7.52344 19.6992 8.35547C19.6992 9.29297 19.043 10.2422 18.4219 11.0391L16.3828 13.6406C16.1719 13.9219 15.9492 14.2148 15.9492 14.5781C15.9492 14.9766 16.207 15.2578 16.7461 15.2578Z" fill="black" fill-opacity="0.85"/>
 </g>
</svg>
