<?xml version="1.0" encoding="UTF-8"?>
<!--Generator: Apple Native CoreSVG 360-->
<!DOCTYPE svg
PUBLIC "-//W3C//DTD SVG 1.1//EN"
       "http://www.w3.org/Graphics/SVG/1.1/DTD/svg11.dtd">
<svg version="1.1" xmlns="http://www.w3.org/2000/svg" xmlns:xlink="http://www.w3.org/1999/xlink" viewBox="0 0 27.9844 21.0586">
 <g>
  <rect height="21.0586" opacity="0" width="27.9844" x="0" y="0"/>
  <path d="M9.23438 21.0352L18.3984 21.0352C25.1953 21.0352 27.6328 18.5156 27.6328 12.2461L27.6328 8.80078C27.6328 2.53125 25.1953 0 18.3984 0L9.23438 0C2.4375 0 0 2.53125 0 8.80078L0 12.2461C0 18.5156 2.4375 21.0352 9.23438 21.0352ZM9.23438 19.1484C3.70312 19.1484 1.88672 17.3555 1.88672 12.2461L1.88672 8.80078C1.88672 3.69141 3.70312 1.88672 9.23438 1.88672L18.3984 1.88672C23.9297 1.88672 25.7461 3.69141 25.7461 8.80078L25.7461 12.2461C25.7461 17.3555 23.9297 19.1484 18.3984 19.1484Z" fill="black" fill-opacity="0.85"/>
  <path d="M6.80859 15.4336C7.26562 15.4336 7.57031 15.1172 7.57031 14.6133L7.57031 8.28516L7.64062 8.28516L9.23438 14.4844C9.33984 14.9297 9.62109 15.2578 10.1016 15.2578C10.582 15.2578 10.8281 14.9414 10.9453 14.4727L12.5391 8.28516L12.6094 8.28516L12.6094 14.6133C12.6094 15.1172 12.8906 15.4336 13.3594 15.4336C13.8633 15.4336 14.1211 15.1172 14.1211 14.6133L14.1211 6.84375C14.1211 6.08203 13.6641 5.64844 12.9258 5.64844C12.2461 5.64844 11.8711 5.97656 11.707 6.63281L10.1133 13.0195L10.0664 13.0195L8.44922 6.63281C8.28516 5.97656 7.88672 5.64844 7.25391 5.64844C6.50391 5.64844 6.04688 6.10547 6.04688 6.84375L6.04688 14.6133C6.04688 15.1172 6.33984 15.4336 6.80859 15.4336ZM20.0156 15.4102C20.4609 15.4102 20.8125 15.1406 20.8125 14.5781L20.8125 13.4062L21.2344 13.4062C21.6914 13.4062 21.9023 13.1133 21.9023 12.7148C21.9023 12.3398 21.7031 12.0469 21.2344 12.0469L20.8125 12.0469L20.8125 6.90234C20.8125 6.09375 20.2852 5.63672 19.5234 5.63672C18.6914 5.63672 18.3047 6.05859 17.9766 6.78516L15.8906 11.332C15.6914 11.7891 15.6211 12.0938 15.6211 12.457C15.6211 13.0195 16.0078 13.4062 16.582 13.4062L19.207 13.4062L19.207 14.5781C19.207 15.1992 19.6523 15.4102 20.0156 15.4102ZM19.2422 12.082L17.0625 12.082L17.0625 12L19.1953 7.11328L19.2422 7.11328Z" fill="black" fill-opacity="0.85"/>
 </g>
</svg>
