<?xml version="1.0" encoding="UTF-8"?>
<!--Generator: Apple Native CoreSVG 360-->
<!DOCTYPE svg
PUBLIC "-//W3C//DTD SVG 1.1//EN"
       "http://www.w3.org/Graphics/SVG/1.1/DTD/svg11.dtd">
<svg version="1.1" xmlns="http://www.w3.org/2000/svg" xmlns:xlink="http://www.w3.org/1999/xlink" viewBox="0 0 40.5117 23.3789">
 <g>
  <rect height="23.3789" opacity="0" width="40.5117" x="0" y="0"/>
  <path d="M29.0508 5.17969L29.0508 5.73047L17.6953 5.73047C15.8203 5.73047 14.3555 7.18359 14.3555 9.05859L14.3555 18.5508L13.7109 18.5508C13.6329 18.5508 13.5558 18.5545 13.4798 18.5625L6.79688 18.5625L6.79688 5.17969C6.79688 4.42969 7.17188 4.05469 7.93359 4.05469L27.9141 4.05469C28.6641 4.05469 29.0508 4.42969 29.0508 5.17969Z" fill="black" fill-opacity="0.2125"/>
  <path d="M30.9375 4.65234L30.9375 5.73047L29.0508 5.73047L29.0508 5.17969C29.0508 4.42969 28.6641 4.05469 27.9141 4.05469L7.93359 4.05469C7.17188 4.05469 6.79688 4.42969 6.79688 5.17969L6.79688 18.5625L13.4798 18.5625C12.2634 18.6787 11.3086 19.7076 11.3086 20.9648C11.3086 21.0561 11.3136 21.1461 11.3244 21.2344L2.34375 21.2344C1.61719 21.2344 1.01953 20.6367 1.01953 19.8984C1.01953 19.1602 1.61719 18.5625 2.34375 18.5625L4.91016 18.5625L4.91016 4.65234C4.91016 3.01172 5.87109 2.16797 7.41797 2.16797L28.4297 2.16797C30.0586 2.16797 30.9375 3.01172 30.9375 4.65234Z" fill="black" fill-opacity="0.85"/>
  <path d="M17.3672 19.9336L17.3672 9.50391C17.3672 9.05859 17.6836 8.75391 18.1172 8.75391L33.6914 8.75391C34.125 8.75391 34.4297 9.05859 34.4297 9.50391L34.4297 19.9336Z" fill="black" fill-opacity="0.2125"/>
  <path d="M12.6797 20.9648C12.6797 21.5508 13.1484 22.0195 13.7109 22.0195L38.0859 22.0195C38.6719 22.0195 39.1406 21.5508 39.1406 20.9648C39.1406 20.3789 38.6719 19.9102 38.0859 19.9102L36.082 19.9102L36.082 9.05859C36.082 7.93359 35.25 7.10156 34.125 7.10156L17.6953 7.10156C16.5703 7.10156 15.7148 7.93359 15.7148 9.05859L15.7148 19.9102L13.7109 19.9102C13.1484 19.9102 12.6797 20.3789 12.6797 20.9648ZM17.3672 19.9336L17.3672 9.50391C17.3672 9.05859 17.6836 8.75391 18.1172 8.75391L33.6914 8.75391C34.125 8.75391 34.4297 9.05859 34.4297 9.50391L34.4297 19.9336Z" fill="black" fill-opacity="0.85"/>
 </g>
</svg>
