<?xml version="1.0" encoding="UTF-8"?>
<!--Generator: Apple Native CoreSVG 360-->
<!DOCTYPE svg
PUBLIC "-//W3C//DTD SVG 1.1//EN"
       "http://www.w3.org/Graphics/SVG/1.1/DTD/svg11.dtd">
<svg version="1.1" xmlns="http://www.w3.org/2000/svg" xmlns:xlink="http://www.w3.org/1999/xlink" viewBox="0 0 39.7383 23.6367">
 <g>
  <rect height="23.6367" opacity="0" width="39.7383" x="0" y="0"/>
  <path d="M30.8203 5.30859L30.8203 5.50781L21.832 5.50781C19.1953 5.50781 17.5898 7.11328 17.5898 9.75L17.5898 18.6914L8.56641 18.6914L8.56641 5.30859C8.56641 4.55859 8.94141 4.18359 9.70312 4.18359L29.6836 4.18359C30.4336 4.18359 30.8203 4.55859 30.8203 5.30859Z" fill="black" fill-opacity="0.2125"/>
  <path d="M32.707 4.78125L32.707 5.50781L30.8203 5.50781L30.8203 5.30859C30.8203 4.55859 30.4336 4.18359 29.6836 4.18359L9.70312 4.18359C8.94141 4.18359 8.56641 4.55859 8.56641 5.30859L8.56641 18.6914L17.5898 18.6914L17.5898 19.418C17.5898 20.1524 17.7155 20.8061 17.9585 21.3633L4.11328 21.3633C3.38672 21.3633 2.78906 20.7656 2.78906 20.0273C2.78906 19.2891 3.38672 18.6914 4.11328 18.6914L6.67969 18.6914L6.67969 4.78125C6.67969 3.14062 7.64062 2.29688 9.1875 2.29688L30.1992 2.29688C31.8281 2.29688 32.707 3.14062 32.707 4.78125Z" fill="black" fill-opacity="0.85"/>
  <path d="M21.8438 20.3906C21.1641 20.3906 20.8359 20.1094 20.8359 19.3711L20.8359 9.77344C20.8359 9.05859 21.1641 8.75391 21.8438 8.75391L35.4727 8.75391C36.1406 8.75391 36.4922 9.05859 36.4922 9.77344L36.4922 19.3711C36.4922 20.1094 36.1406 20.3906 35.4727 20.3906Z" fill="black" fill-opacity="0.2125"/>
  <path d="M21.832 22.043L35.4844 22.043C37.2422 22.043 38.1445 21.1406 38.1445 19.418L38.1445 9.75C38.1445 8.01562 37.2422 7.11328 35.4844 7.11328L21.832 7.11328C20.0859 7.11328 19.1836 8.00391 19.1836 9.75L19.1836 19.418C19.1836 21.1406 20.0859 22.043 21.832 22.043ZM21.8438 20.3906C21.1641 20.3906 20.8359 20.1094 20.8359 19.3711L20.8359 9.77344C20.8359 9.05859 21.1641 8.75391 21.8438 8.75391L35.4727 8.75391C36.1406 8.75391 36.4922 9.05859 36.4922 9.77344L36.4922 19.3711C36.4922 20.1094 36.1406 20.3906 35.4727 20.3906ZM25.6406 19.3594L31.6875 19.3594C32.0039 19.3594 32.2383 19.1484 32.2383 18.8203C32.2383 18.4922 32.0039 18.2695 31.6875 18.2695L25.6406 18.2695C25.3242 18.2695 25.0898 18.4922 25.0898 18.8203C25.0898 19.1484 25.3242 19.3594 25.6406 19.3594Z" fill="black" fill-opacity="0.85"/>
 </g>
</svg>
