<?xml version="1.0" encoding="UTF-8"?>
<!--Generator: Apple Native CoreSVG 360-->
<!DOCTYPE svg
PUBLIC "-//W3C//DTD SVG 1.1//EN"
       "http://www.w3.org/Graphics/SVG/1.1/DTD/svg11.dtd">
<svg version="1.1" xmlns="http://www.w3.org/2000/svg" xmlns:xlink="http://www.w3.org/1999/xlink" viewBox="0 0 37.9336 23.4023">
 <g>
  <rect height="23.4023" opacity="0" width="37.9336" x="0" y="0"/>
  <path d="M29.414 4.19531L26.918 4.19531C24.6328 4.19531 23.1562 5.64844 23.1562 7.875L23.1562 18.5742L7.66406 18.5742L7.66406 5.19141C7.66406 4.44141 8.03906 4.06641 8.80078 4.06641L28.7812 4.06641C29.0341 4.06641 29.2456 4.10903 29.414 4.19531Z" fill="black" fill-opacity="0.2125"/>
  <path d="M31.7757 4.19531L29.414 4.19531C29.2456 4.10903 29.0341 4.06641 28.7812 4.06641L8.80078 4.06641C8.03906 4.06641 7.66406 4.44141 7.66406 5.19141L7.66406 18.5742L23.1562 18.5742L23.1562 19.7344C23.1562 20.2907 23.2484 20.798 23.4224 21.2461L3.21094 21.2461C2.48438 21.2461 1.88672 20.6484 1.88672 19.9102C1.88672 19.1719 2.48438 18.5742 3.21094 18.5742L5.77734 18.5742L5.77734 4.66406C5.77734 3.02344 6.73828 2.17969 8.28516 2.17969L29.2969 2.17969C30.7619 2.17969 31.6202 2.86218 31.7757 4.19531Z" fill="black" fill-opacity="0.85"/>
  <path d="M26.9531 20.3906C26.4375 20.3906 26.168 20.1094 26.168 19.582L26.168 8.21484C26.168 7.67578 26.4375 7.39453 26.9531 7.39453L32.2383 7.39453C32.7539 7.39453 33.0117 7.67578 33.0117 8.21484L33.0117 19.582C33.0117 20.1094 32.7539 20.3906 32.2383 20.3906Z" fill="black" fill-opacity="0.2125"/>
  <path d="M26.918 21.9258L32.2617 21.9258C33.7148 21.9258 34.5469 21.1289 34.5469 19.7344L34.5469 8.0625C34.5469 6.66797 33.7148 5.85938 32.2617 5.85938L26.918 5.85938C25.4766 5.85938 24.6328 6.66797 24.6328 8.0625L24.6328 19.7344C24.6328 21.1289 25.4648 21.9258 26.918 21.9258ZM26.9531 20.3906C26.4375 20.3906 26.168 20.1094 26.168 19.582L26.168 8.21484C26.168 7.67578 26.4375 7.39453 26.9531 7.39453L32.2383 7.39453C32.7539 7.39453 33.0117 7.67578 33.0117 8.21484L33.0117 19.582C33.0117 20.1094 32.7539 20.3906 32.2383 20.3906ZM27.9961 19.793L31.1719 19.793C31.4062 19.793 31.5938 19.6289 31.5938 19.3828C31.5938 19.1602 31.4062 18.9844 31.1719 18.9844L27.9961 18.9844C27.75 18.9844 27.5977 19.1602 27.5977 19.3828C27.5977 19.6406 27.7383 19.793 27.9961 19.793ZM28.6523 9.07031L30.4922 9.07031C30.7969 9.07031 31.043 8.82422 31.043 8.51953C31.043 8.22656 30.7969 7.99219 30.4922 7.99219L28.6523 7.99219C28.3477 7.99219 28.1133 8.22656 28.1133 8.51953C28.1133 8.82422 28.3477 9.07031 28.6523 9.07031Z" fill="black" fill-opacity="0.85"/>
 </g>
</svg>
