<?xml version="1.0" encoding="UTF-8"?>
<!--Generator: Apple Native CoreSVG 360-->
<!DOCTYPE svg
PUBLIC "-//W3C//DTD SVG 1.1//EN"
       "http://www.w3.org/Graphics/SVG/1.1/DTD/svg11.dtd">
<svg version="1.1" xmlns="http://www.w3.org/2000/svg" xmlns:xlink="http://www.w3.org/1999/xlink" viewBox="0 0 38.5312 23.3789">
 <g>
  <rect height="23.3789" opacity="0" width="38.5312" x="0" y="0"/>
  <path d="M29.7185 4.88672L29.25 4.88672C28.0781 4.88672 27.0352 5.54297 26.7305 6.76172L26.5312 7.5C25.3125 8.14453 24.4688 9.45703 24.4688 11.2617L24.4688 17.0273C24.4688 17.5888 24.5503 18.102 24.7003 18.5625L7.48828 18.5625L7.48828 5.17969C7.48828 4.42969 7.86328 4.05469 8.625 4.05469L28.6055 4.05469C29.2501 4.05469 29.6264 4.33176 29.7185 4.88672Z" fill="black" fill-opacity="0.2125"/>
  <path d="M31.6289 4.65234L31.6289 4.88672L29.7185 4.88672C29.6264 4.33176 29.2501 4.05469 28.6055 4.05469L8.625 4.05469C7.86328 4.05469 7.48828 4.42969 7.48828 5.17969L7.48828 18.5625L24.7003 18.5625C25.0289 19.5729 25.6861 20.3303 26.5312 20.7891L26.6605 21.2344L3.03516 21.2344C2.30859 21.2344 1.71094 20.6367 1.71094 19.8984C1.71094 19.1602 2.30859 18.5625 3.03516 18.5625L5.60156 18.5625L5.60156 4.65234C5.60156 3.01172 6.5625 2.16797 8.10938 2.16797L29.1211 2.16797C30.75 2.16797 31.6289 3.01172 31.6289 4.65234Z" fill="black" fill-opacity="0.85"/>
  <path d="M28.8516 18.1289C27.9727 18.1289 27.5625 17.707 27.5625 16.793L27.5625 11.4609C27.5625 10.5703 27.9727 10.1484 28.8516 10.1484L32.9766 10.1484C33.8672 10.1484 34.2539 10.5703 34.2539 11.4609L34.2539 16.793C34.2539 17.707 33.8438 18.1289 32.9766 18.1289Z" fill="black" fill-opacity="0.2125"/>
  <path d="M29.25 21.7852L32.5781 21.7852C33.0117 21.7852 33.375 21.6094 33.5391 21.0703L33.7617 20.3086C33.9023 19.8867 34.1016 19.6055 34.5 19.3945C35.2266 19.0195 35.7656 18.2578 35.7656 17.0273L35.7656 11.2617C35.7656 10.043 35.2383 9.28125 34.5 8.88281C34.1016 8.66016 33.9023 8.40234 33.7617 7.96875L33.5391 7.19531C33.3867 6.66797 33.0117 6.49219 32.5781 6.49219L29.25 6.49219C28.8164 6.49219 28.418 6.66797 28.2773 7.19531L28.0547 7.96875C27.9375 8.42578 27.6914 8.68359 27.3047 8.88281C26.6016 9.25781 26.0742 10.043 26.0742 11.2617L26.0742 17.0273C26.0742 18.2578 26.5898 19.0078 27.3047 19.3945C27.7031 19.6055 27.9375 19.875 28.0547 20.3086L28.2773 21.0703C28.4297 21.6211 28.8164 21.7852 29.25 21.7852ZM28.8516 18.1289C27.9727 18.1289 27.5625 17.707 27.5625 16.793L27.5625 11.4609C27.5625 10.5703 27.9727 10.1484 28.8516 10.1484L32.9766 10.1484C33.8672 10.1484 34.2539 10.5703 34.2539 11.4609L34.2539 16.793C34.2539 17.707 33.8438 18.1289 32.9766 18.1289ZM35.5547 13.6406L35.8477 13.6406C36.2344 13.6406 36.4688 13.3711 36.4688 12.9492L36.4688 11.9766C36.4688 11.5781 36.2344 11.3203 35.8477 11.3203L35.5547 11.3203Z" fill="black" fill-opacity="0.85"/>
 </g>
</svg>
