<?xml version="1.0" encoding="UTF-8"?>
<!--Generator: Apple Native CoreSVG 360-->
<!DOCTYPE svg
PUBLIC "-//W3C//DTD SVG 1.1//EN"
       "http://www.w3.org/Graphics/SVG/1.1/DTD/svg11.dtd">
<svg version="1.1" xmlns="http://www.w3.org/2000/svg" xmlns:xlink="http://www.w3.org/1999/xlink" viewBox="0 0 35.4492 23.4961">
 <g>
  <rect height="23.4961" opacity="0" width="35.4492" x="0" y="0"/>
  <path d="M30.5335 4.24219L28.1718 4.24219C28.0035 4.1559 27.7919 4.11328 27.5391 4.11328L7.55859 4.11328C6.79688 4.11328 6.42188 4.48828 6.42188 5.23828L6.42188 18.6211L21.9141 18.6211L21.9141 19.9219C21.9141 20.4162 22.0012 20.8778 22.1653 21.293L1.96875 21.293C1.24219 21.293 0.644531 20.6953 0.644531 19.957C0.644531 19.2188 1.24219 18.6211 1.96875 18.6211L4.53516 18.6211L4.53516 4.71094C4.53516 3.07031 5.49609 2.22656 7.04297 2.22656L28.0547 2.22656C29.5197 2.22656 30.378 2.90906 30.5335 4.24219Z" fill="black" fill-opacity="0.85"/>
  <path d="M23.5078 19.9219C23.5078 21.1055 24.3281 21.9023 25.582 21.9023L31.1719 21.9023C32.4258 21.9023 33.2578 21.1055 33.2578 19.9219L33.2578 7.80469C33.2578 6.63281 32.4258 5.83594 31.1719 5.83594L25.582 5.83594C24.3281 5.83594 23.5078 6.63281 23.5078 7.80469ZM25.0547 18.9844L25.0547 8.74219L31.7109 8.74219L31.7109 18.9844ZM28.3945 21.1289C28.0195 21.1289 27.7148 20.8125 27.7148 20.4492C27.7148 20.0742 28.0195 19.7695 28.3945 19.7695C28.7695 19.7695 29.0625 20.0742 29.0625 20.4492C29.0625 20.8125 28.7695 21.1289 28.3945 21.1289ZM28.3945 7.76953C28.125 7.76953 27.9375 7.57031 27.9375 7.30078C27.9375 7.04297 28.125 6.85547 28.3945 6.85547C28.6523 6.85547 28.8398 7.04297 28.8398 7.30078C28.8398 7.57031 28.6523 7.76953 28.3945 7.76953Z" fill="black" fill-opacity="0.85"/>
 </g>
</svg>
