<?xml version="1.0" encoding="UTF-8"?>
<!--Generator: Apple Native CoreSVG 360-->
<!DOCTYPE svg
PUBLIC "-//W3C//DTD SVG 1.1//EN"
       "http://www.w3.org/Graphics/SVG/1.1/DTD/svg11.dtd">
<svg version="1.1" xmlns="http://www.w3.org/2000/svg" xmlns:xlink="http://www.w3.org/1999/xlink" viewBox="0 0 32.0625 9.85547">
 <g>
  <rect height="9.85547" opacity="0" width="32.0625" x="0" y="0"/>
  <path d="M3.58594 9.84375L28.125 9.84375C30.5039 9.84375 31.7109 8.63672 31.7109 6.30469L31.7109 3.53906C31.7109 1.20703 30.5039 0 28.125 0L3.58594 0C1.20703 0 0 1.20703 0 3.53906L0 6.30469C0 8.63672 1.20703 9.84375 3.58594 9.84375ZM3.82031 7.95703C2.42578 7.95703 1.88672 7.44141 1.88672 6.30469L1.88672 3.53906C1.88672 2.40234 2.42578 1.88672 3.82031 1.88672L27.8906 1.88672C29.2852 1.88672 29.8242 2.40234 29.8242 3.53906L29.8242 6.30469C29.8242 7.44141 29.2852 7.95703 27.8906 7.95703ZM24.1875 6.52734C24.7383 6.52734 25.1719 6.09375 25.1719 5.55469C25.1719 5.00391 24.7383 4.57031 24.1875 4.57031C23.6484 4.57031 23.2148 5.00391 23.2148 5.55469C23.2148 6.09375 23.6484 6.52734 24.1875 6.52734Z" fill="black" fill-opacity="0.85"/>
 </g>
</svg>
