<?xml version="1.0" encoding="UTF-8"?>
<!--Generator: Apple Native CoreSVG 360-->
<!DOCTYPE svg
PUBLIC "-//W3C//DTD SVG 1.1//EN"
       "http://www.w3.org/Graphics/SVG/1.1/DTD/svg11.dtd">
<svg version="1.1" xmlns="http://www.w3.org/2000/svg" xmlns:xlink="http://www.w3.org/1999/xlink" viewBox="0 0 30.8086 12.457">
 <g>
  <rect height="12.457" opacity="0" width="30.8086" x="0" y="0"/>
  <path d="M3.65625 12.4453L26.8125 12.4453C29.25 12.4453 30.457 11.2266 30.457 8.83594L30.457 3.60938C30.457 1.20703 29.25 0 26.8125 0L3.65625 0C1.19531 0 0 1.20703 0 3.60938L0 8.83594C0 11.2266 1.19531 12.4453 3.65625 12.4453ZM3.67969 10.5586C2.51953 10.5586 1.88672 9.92578 1.88672 8.74219L1.88672 3.70312C1.88672 2.50781 2.51953 1.88672 3.67969 1.88672L26.7891 1.88672C27.9492 1.88672 28.5703 2.50781 28.5703 3.70312L28.5703 8.74219C28.5703 9.92578 27.9492 10.5586 26.7891 10.5586ZM5.91797 6.03516C5.91797 5.67188 5.63672 5.37891 5.27344 5.37891C4.91016 5.37891 4.61719 5.67188 4.61719 6.03516L4.61719 7.67578C4.61719 8.05078 4.91016 8.33203 5.27344 8.33203C5.63672 8.33203 5.91797 8.05078 5.91797 7.67578ZM9.12891 6.03516C9.12891 5.67188 8.84766 5.37891 8.48438 5.37891C8.12109 5.37891 7.82812 5.67188 7.82812 6.03516L7.82812 7.67578C7.82812 8.05078 8.12109 8.33203 8.48438 8.33203C8.84766 8.33203 9.12891 8.05078 9.12891 7.67578ZM21.1758 7.71094C21.6562 7.71094 22.043 7.32422 22.043 6.85547C22.043 6.375 21.6562 5.98828 21.1758 5.98828C20.6953 5.98828 20.3086 6.375 20.3086 6.85547C20.3086 7.32422 20.6953 7.71094 21.1758 7.71094ZM24.668 8.01562C25.3125 8.01562 25.8398 7.48828 25.8398 6.85547C25.8398 6.21094 25.3125 5.68359 24.668 5.68359C24.0352 5.68359 23.5078 6.21094 23.5078 6.85547C23.5078 7.48828 24.0352 8.01562 24.668 8.01562Z" fill="black" fill-opacity="0.85"/>
 </g>
</svg>
