<?xml version="1.0" encoding="UTF-8"?>
<!--Generator: Apple Native CoreSVG 360-->
<!DOCTYPE svg
PUBLIC "-//W3C//DTD SVG 1.1//EN"
       "http://www.w3.org/Graphics/SVG/1.1/DTD/svg11.dtd">
<svg version="1.1" xmlns="http://www.w3.org/2000/svg" xmlns:xlink="http://www.w3.org/1999/xlink" viewBox="0 0 24.5625 30.7852">
 <g>
  <rect height="30.7852" opacity="0" width="24.5625" x="0" y="0"/>
  <path d="M10.8281 18.5859C11.3672 18.5859 11.625 18.2344 12.2812 18.2344C12.9727 18.2344 13.1367 18.5859 13.7227 18.5859C14.332 18.5859 14.7305 18.0234 15.1055 17.4961C15.5391 16.8867 15.6797 16.2773 15.7031 16.2422C15.668 16.2188 14.5195 15.7734 14.5195 14.4727C14.5195 13.3359 15.4219 12.8203 15.4805 12.7852C14.8711 11.9297 13.9805 11.9062 13.7227 11.9062C13.0547 11.9062 12.5273 12.3164 12.1758 12.3164C11.8125 12.3164 11.332 11.9297 10.7578 11.9297C9.65625 11.9297 8.55469 12.832 8.55469 14.5547C8.55469 15.6211 8.95312 16.7461 9.46875 17.4727C9.90234 18.0703 10.2773 18.5859 10.8281 18.5859ZM12.2344 11.8359C12.6211 11.8359 13.1367 11.5547 13.418 11.1914C13.6992 10.8633 13.8867 10.418 13.8867 9.96094C13.8867 9.89062 13.8867 9.83203 13.8633 9.78516C13.418 9.80859 12.9023 10.0781 12.5625 10.4414C12.3047 10.7344 12.1055 11.1914 12.1055 11.6484C12.1055 11.7188 12.1055 11.7891 12.1172 11.8008C12.1406 11.8242 12.1758 11.8359 12.2344 11.8359ZM3.67969 25.9688L20.5312 25.9688C22.9805 25.9688 24.2109 24.75 24.2109 22.3477L24.2109 6.96094C24.2109 4.53516 22.9805 3.32812 20.5312 3.32812L3.67969 3.32812C1.21875 3.32812 0 4.53516 0 6.96094L0 22.3477C0 24.7617 1.21875 25.9688 3.67969 25.9688ZM3.70312 24.082C2.53125 24.082 1.88672 23.4609 1.88672 22.2422L1.88672 7.05469C1.88672 5.83594 2.53125 5.21484 3.70312 5.21484L20.5078 5.21484C21.6797 5.21484 22.3242 5.83594 22.3242 7.05469L22.3242 22.2422C22.3242 23.4609 21.668 24.082 20.5078 24.082ZM3.15234 29.4492L7.42969 29.4492C7.92188 29.4492 8.30859 29.0508 8.30859 28.5586C8.30859 28.0664 7.92188 27.668 7.42969 27.668L3.15234 27.668C2.67188 27.668 2.27344 28.0664 2.27344 28.5586C2.27344 29.0508 2.67188 29.4492 3.15234 29.4492ZM4.40625 28.5L6.17578 28.5L6.17578 24.9727L4.40625 24.9727ZM16.7812 29.4492L21.0586 29.4492C21.5508 29.4492 21.9375 29.0508 21.9375 28.5586C21.9375 28.0664 21.5508 27.668 21.0586 27.668L16.7812 27.668C16.3008 27.668 15.9023 28.0664 15.9023 28.5586C15.9023 29.0508 16.3008 29.4492 16.7812 29.4492ZM18.0352 28.5L19.8047 28.5L19.8047 24.9727L18.0352 24.9727ZM4.40625 4.24219L6.17578 4.24219L6.17578 0.878906C6.17578 0.398438 5.78906 0 5.29688 0C4.80469 0 4.40625 0.398438 4.40625 0.878906ZM18.0352 4.24219L19.8047 4.24219L19.8047 0.878906C19.8047 0.398438 19.418 0 18.9258 0C18.4219 0 18.0352 0.398438 18.0352 0.878906Z" fill="black" fill-opacity="0.85"/>
 </g>
</svg>
