<?xml version="1.0" encoding="UTF-8"?>
<!--Generator: Apple Native CoreSVG 360-->
<!DOCTYPE svg
PUBLIC "-//W3C//DTD SVG 1.1//EN"
       "http://www.w3.org/Graphics/SVG/1.1/DTD/svg11.dtd">
<svg version="1.1" xmlns="http://www.w3.org/2000/svg" xmlns:xlink="http://www.w3.org/1999/xlink" viewBox="0 0 29.0508 15.6914">
 <g>
  <rect height="15.6914" opacity="0" width="29.0508" x="0" y="0"/>
  <path d="M3.67969 15.5625L25.0195 15.5625C27.4688 15.5625 28.6992 14.3438 28.6992 11.9297L28.6992 3.63281C28.6992 1.21875 27.4688 0 25.0195 0L3.67969 0C1.21875 0 0 1.20703 0 3.63281L0 11.9297C0 14.3555 1.21875 15.5625 3.67969 15.5625ZM3.70312 13.6758C2.53125 13.6758 1.88672 13.043 1.88672 11.8359L1.88672 3.72656C1.88672 2.50781 2.53125 1.88672 3.70312 1.88672L24.9961 1.88672C26.1562 1.88672 26.8125 2.50781 26.8125 3.72656L26.8125 11.8359C26.8125 13.043 26.1562 13.6758 24.9961 13.6758ZM4.51172 11.9297C4.94531 11.918 5.28516 11.5781 5.28516 11.168L5.28516 9.28125C5.28516 8.84766 4.93359 8.50781 4.51172 8.51953C4.08984 8.50781 3.75 8.84766 3.75 9.28125L3.75 11.1562C3.75 11.5898 4.07812 11.918 4.51172 11.9297ZM7.34766 11.9297C7.78125 11.918 8.10938 11.5781 8.10938 11.168L8.10938 9.28125C8.10938 8.84766 7.76953 8.50781 7.34766 8.51953C6.92578 8.50781 6.57422 8.84766 6.57422 9.28125L6.57422 11.1562C6.57422 11.5898 6.91406 11.918 7.34766 11.9297ZM10.3711 10.9922L15.1172 10.9922C15.5391 10.9922 15.8906 10.6406 15.8906 10.2188C15.8906 9.79688 15.5391 9.45703 15.1172 9.45703L10.3711 9.45703C9.94922 9.45703 9.59766 9.79688 9.59766 10.2188C9.59766 10.6406 9.94922 10.9922 10.3711 10.9922ZM23.7305 11.6016C24.457 11.5898 25.0781 10.9688 25.0781 10.2305C25.0781 9.48047 24.457 8.84766 23.7305 8.84766C22.9805 8.84766 22.3477 9.48047 22.3477 10.2305C22.3477 10.9688 22.9805 11.6133 23.7305 11.6016Z" fill="black" fill-opacity="0.85"/>
 </g>
</svg>
