<?xml version="1.0" encoding="UTF-8"?>
<!--Generator: Apple Native CoreSVG 360-->
<!DOCTYPE svg
PUBLIC "-//W3C//DTD SVG 1.1//EN"
       "http://www.w3.org/Graphics/SVG/1.1/DTD/svg11.dtd">
<svg version="1.1" xmlns="http://www.w3.org/2000/svg" xmlns:xlink="http://www.w3.org/1999/xlink" viewBox="0 0 16.9922 24.0586">
 <g>
  <rect height="24.0586" opacity="0" width="16.9922" x="0" y="0"/>
  <path d="M3.25781 24.0469L13.3828 24.0469C15.3398 24.0469 16.6406 22.8047 16.6406 20.9648L16.6406 3.08203C16.6406 1.23047 15.3398 0 13.3828 0L3.25781 0C1.30078 0 0 1.23047 0 3.08203L0 20.9648C0 22.8047 1.30078 24.0469 3.25781 24.0469ZM3.49219 22.1602C2.51953 22.1602 1.88672 21.5625 1.88672 20.6602L1.88672 3.38672C1.88672 2.48438 2.51953 1.88672 3.49219 1.88672L13.1484 1.88672C14.1211 1.88672 14.7539 2.48438 14.7539 3.38672L14.7539 20.6602C14.7539 21.5625 14.1211 22.1602 13.1484 22.1602Z" fill="black" fill-opacity="0.85"/>
  <path d="M8.33203 19.5938C8.75391 19.5938 9.09375 19.2422 9.09375 18.8203L9.09375 16.582C9.09375 16.1602 8.75391 15.8086 8.33203 15.8086C7.91016 15.8086 7.55859 16.1602 7.55859 16.582L7.55859 18.8203C7.55859 19.2422 7.91016 19.5938 8.33203 19.5938ZM8.33203 13.8164C11.2852 13.8164 13.6992 11.4141 13.6992 8.44922C13.6992 5.47266 11.2852 3.07031 8.33203 3.07031C5.35547 3.07031 2.95312 5.47266 2.95312 8.44922C2.95312 11.4141 5.35547 13.8164 8.33203 13.8164ZM8.33203 12.3398C6.16406 12.3398 4.42969 10.6055 4.42969 8.44922C4.42969 6.28125 6.16406 4.54688 8.33203 4.54688C10.4766 4.54688 12.2227 6.29297 12.2227 8.44922C12.2227 10.6055 10.4766 12.3398 8.33203 12.3398Z" fill="black" fill-opacity="0.425"/>
 </g>
</svg>
