<?xml version="1.0" encoding="UTF-8"?>
<!--Generator: Apple Native CoreSVG 360-->
<!DOCTYPE svg
PUBLIC "-//W3C//DTD SVG 1.1//EN"
       "http://www.w3.org/Graphics/SVG/1.1/DTD/svg11.dtd">
<svg version="1.1" xmlns="http://www.w3.org/2000/svg" xmlns:xlink="http://www.w3.org/1999/xlink" viewBox="0 0 28.582 23.5195">
 <g>
  <rect height="23.5195" opacity="0" width="28.582" x="0" y="0"/>
  <path d="M28.2305 14.1094C28.2305 10.6641 26.9883 7.48828 24.9141 5.02734C24.6797 4.74609 24.2812 4.74609 24.0234 5.01562L21.3047 7.73438C21.082 7.95703 21.0703 8.27344 21.2695 8.51953C22.4766 10.0664 23.2031 12.0117 23.2031 14.1094C23.2031 16.2188 22.4766 18.1641 21.1992 19.793C21.0352 19.9922 21.0469 20.25 21.2227 20.4375L24.0117 23.2266C24.2812 23.4961 24.668 23.4961 24.9141 23.2031C26.9883 20.7422 28.2305 17.5664 28.2305 14.1094Z" fill="black" fill-opacity="0.85"/>
  <path d="M14.1094 5.02734C16.2305 5.02734 18.1758 5.76562 19.7344 6.97266C19.9688 7.16016 20.2734 7.13672 20.4961 6.91406L23.2148 4.19531C23.4844 3.92578 23.4727 3.53906 23.1914 3.30469C20.7422 1.24219 17.5664 0 14.1094 0C10.6641 0 7.48828 1.24219 5.03906 3.30469C4.75781 3.53906 4.74609 3.92578 5.01562 4.19531L7.73438 6.91406C7.95703 7.13672 8.27344 7.16016 8.53125 6.96094C10.0781 5.76562 12.0117 5.02734 14.1094 5.02734Z" fill="black" fill-opacity="0.85"/>
  <path d="M0 14.1094C0 17.5664 1.24219 20.7422 3.31641 23.2031C3.55078 23.4961 3.94922 23.4961 4.20703 23.2266L6.99609 20.4375C7.17188 20.25 7.19531 19.9922 7.03125 19.793C5.75391 18.1641 5.02734 16.2188 5.02734 14.1094C5.02734 12.0117 5.74219 10.0664 6.96094 8.51953C7.14844 8.27344 7.14844 7.95703 6.92578 7.73438L4.20703 5.01562C3.9375 4.74609 3.55078 4.74609 3.31641 5.02734C1.24219 7.48828 0 10.6641 0 14.1094Z" fill="black" fill-opacity="0.85"/>
  <path d="M8.09766 18.6094C8.47266 18.6094 8.69531 18.3516 8.69531 17.9883L8.69531 15.1289L9.99609 15.1289L11.2852 18.1641C11.4023 18.457 11.6016 18.6094 11.8828 18.6094C12.2695 18.6094 12.4805 18.3516 12.4805 18.0586C12.4805 17.918 12.4453 17.8125 12.3516 17.6016L11.1562 14.8711C11.9414 14.5195 12.5039 13.7344 12.5039 12.5625C12.5039 10.9922 11.5547 10.043 9.9375 10.043L8.08594 10.043C7.72266 10.043 7.48828 10.2773 7.48828 10.6523L7.48828 17.9883C7.48828 18.3516 7.72266 18.6094 8.09766 18.6094ZM8.69531 14.1562L8.69531 11.0391L9.82031 11.0391C10.7695 11.0391 11.2969 11.6367 11.2969 12.5859C11.2969 13.5352 10.8047 14.1562 9.83203 14.1562ZM14.2266 18.6094C14.5547 18.6094 14.7656 18.3867 14.7656 18.0469L14.7656 11.8594L14.8242 11.8594L16.5234 17.8828C16.6172 18.1992 16.8164 18.4688 17.2031 18.4688C17.5781 18.4688 17.7773 18.2344 17.8828 17.8594L19.582 11.8594L19.6406 11.8594L19.6406 18.0469C19.6406 18.3867 19.8633 18.6094 20.1914 18.6094C20.5078 18.6094 20.7305 18.3867 20.7305 18.0469L20.7305 10.7695C20.7305 10.2422 20.4023 9.92578 19.875 9.92578C19.4297 9.92578 19.1133 10.1953 18.9961 10.6406L17.2617 16.8867L17.168 16.8867L15.4102 10.6289C15.293 10.1953 14.9766 9.92578 14.543 9.92578C14.0156 9.92578 13.6758 10.2539 13.6758 10.7695L13.6758 18.0469C13.6758 18.3867 13.8984 18.6094 14.2266 18.6094Z" fill="black" fill-opacity="0.85"/>
 </g>
</svg>
