<?xml version="1.0" encoding="UTF-8"?>
<!--Generator: Apple Native CoreSVG 360-->
<!DOCTYPE svg
PUBLIC "-//W3C//DTD SVG 1.1//EN"
       "http://www.w3.org/Graphics/SVG/1.1/DTD/svg11.dtd">
<svg version="1.1" xmlns="http://www.w3.org/2000/svg" xmlns:xlink="http://www.w3.org/1999/xlink" viewBox="0 0 35.6133 22.1367">
 <g>
  <rect height="22.1367" opacity="0" width="35.6133" x="0" y="0"/>
  <path d="M1.17188 22.0781C1.88672 22.0781 2.33203 21.6094 2.33203 20.8828L2.33203 12.9961L6.30469 12.9961C6.43359 12.9961 6.57422 12.9844 6.70312 12.9844L10.6641 21.3398C10.9102 21.8906 11.25 22.0898 11.8359 22.0898C12.4922 22.0898 12.9844 21.6328 12.9844 21.0117C12.9844 20.7539 12.8555 20.4492 12.7383 20.2148L9.01172 12.5039C11.6016 11.5781 12.9727 9.33984 12.9727 6.5625C12.9727 2.64844 10.3594 0.28125 6.39844 0.28125L1.14844 0.28125C0.433594 0.28125 0 0.75 0 1.48828L0 20.8828C0 21.6797 0.515625 22.0781 1.17188 22.0781ZM2.33203 10.957L2.33203 2.35547L6.11719 2.35547C8.80078 2.35547 10.6055 3.80859 10.6055 6.63281C10.6055 9.41016 8.98828 10.957 6.19922 10.957ZM17.8828 22.1133C18.5742 22.1133 18.9727 21.6797 18.9727 20.9883L18.9727 4.16016L19.1016 4.16016L24.5391 20.5312C24.7852 21.293 25.2773 21.7617 26.0391 21.7617C26.8125 21.7617 27.293 21.2578 27.5156 20.5078L32.9766 4.16016L33.082 4.16016L33.082 20.9883C33.082 21.7266 33.5273 22.1133 34.1602 22.1133C34.8633 22.1133 35.2617 21.6914 35.2617 20.9883L35.2617 1.64062C35.2617 0.644531 34.5938 0 33.5977 0C32.6836 0 32.1211 0.539062 31.8516 1.41797L26.1797 18.6914L25.9453 18.6914L20.1914 1.40625C19.8984 0.515625 19.3828 0 18.457 0C17.4141 0 16.8047 0.75 16.8047 1.62891L16.8047 20.9883C16.8047 21.6562 17.2031 22.1133 17.8828 22.1133Z" fill="black" fill-opacity="0.85"/>
 </g>
</svg>
