<?xml version="1.0" encoding="UTF-8"?>
<!--Generator: Apple Native CoreSVG 360-->
<!DOCTYPE svg
PUBLIC "-//W3C//DTD SVG 1.1//EN"
       "http://www.w3.org/Graphics/SVG/1.1/DTD/svg11.dtd">
<svg version="1.1" xmlns="http://www.w3.org/2000/svg" xmlns:xlink="http://www.w3.org/1999/xlink" viewBox="0 0 26.5195 25.0195">
 <g>
  <rect height="25.0195" opacity="0" width="26.5195" x="0" y="0"/>
  <path d="M1.55859 22.2188L24.6094 22.2188L24.6094 21.4336C24.6094 20.9648 24.3398 20.6836 23.8594 20.6836L23.1094 20.6836L23.1094 8.03906L24.1406 8.03906C24.7852 8.03906 25.1602 7.57031 25.1602 7.08984C25.1602 6.73828 24.9609 6.43359 24.5273 6.1875L14.5195 0.410156C14.0508 0.140625 13.5586 0 13.0781 0C12.5977 0 12.0938 0.140625 11.6484 0.410156L1.64062 6.1875C1.19531 6.43359 1.00781 6.73828 1.00781 7.08984C1.00781 7.57031 1.38281 8.03906 2.02734 8.03906L3.05859 8.03906L3.05859 20.6836L2.32031 20.6836C1.83984 20.6836 1.55859 20.9648 1.55859 21.4336ZM4.82812 20.6836L4.82812 6.53906L12.6211 2.16797C12.7617 2.08594 12.9258 2.03906 13.0781 2.03906C13.2305 2.03906 13.3945 2.08594 13.5469 2.16797L21.3398 6.53906L21.3398 20.6836ZM0.9375 25.0078L25.2188 25.0078C25.7344 25.0078 26.168 24.5742 26.168 24.0586C26.168 23.543 25.7344 23.1211 25.2188 23.1211L0.9375 23.1211C0.421875 23.1211 0 23.543 0 24.0586C0 24.5742 0.421875 25.0078 0.9375 25.0078Z" fill="black" fill-opacity="0.85"/>
  <path d="M6.75 16.9102C7.14844 16.9102 7.38281 16.6523 7.38281 16.2539L7.38281 13.2305L8.75391 13.2305L10.125 16.4414C10.2422 16.7578 10.4531 16.9102 10.7461 16.9102C11.1445 16.9102 11.3789 16.6523 11.3789 16.3359C11.3789 16.1836 11.3438 16.0781 11.2383 15.8555L9.98438 12.9727C10.8164 12.5977 11.4023 11.7656 11.4023 10.5352C11.4023 8.88281 10.3945 7.86328 8.69531 7.86328L6.73828 7.86328C6.36328 7.86328 6.10547 8.12109 6.10547 8.51953L6.10547 16.2539C6.10547 16.6523 6.35156 16.9102 6.75 16.9102ZM7.38281 12.2227L7.38281 8.91797L8.57812 8.91797C9.57422 8.91797 10.1367 9.5625 10.1367 10.5586C10.1367 11.5547 9.60938 12.2227 8.58984 12.2227ZM13.2188 16.9219C13.5586 16.9219 13.793 16.6875 13.793 16.3242L13.793 9.79688L13.8516 9.79688L15.6445 16.1484C15.7383 16.4766 15.9609 16.7695 16.3711 16.7695C16.7578 16.7695 16.9688 16.5117 17.0859 16.125L18.8789 9.79688L18.9375 9.79688L18.9375 16.3242C18.9375 16.6875 19.1719 16.9219 19.5117 16.9219C19.8516 16.9219 20.0859 16.6875 20.0859 16.3242L20.0859 8.63672C20.0859 8.08594 19.7344 7.74609 19.1836 7.74609C18.7148 7.74609 18.3867 8.03906 18.2578 8.49609L16.4297 15.0938L16.3242 15.0938L14.4727 8.49609C14.3438 8.03906 14.0039 7.74609 13.5586 7.74609C12.9961 7.74609 12.6445 8.08594 12.6445 8.63672L12.6445 16.3242C12.6445 16.6875 12.8672 16.9219 13.2188 16.9219Z" fill="black" fill-opacity="0.85"/>
 </g>
</svg>
