<?xml version="1.0" encoding="UTF-8"?>
<!--Generator: Apple Native CoreSVG 360-->
<!DOCTYPE svg
PUBLIC "-//W3C//DTD SVG 1.1//EN"
       "http://www.w3.org/Graphics/SVG/1.1/DTD/svg11.dtd">
<svg version="1.1" xmlns="http://www.w3.org/2000/svg" xmlns:xlink="http://www.w3.org/1999/xlink" viewBox="0 0 28.582 23.4085">
 <g>
  <rect height="23.4085" opacity="0" width="28.582" x="0" y="0"/>
  <path d="M28.2305 14.0539C28.2305 6.67105 22.5586 0.612457 15.3398 0.00308175C14.9648-0.0320745 14.6836 0.237457 14.6836 0.612457L14.6836 4.44449C14.6836 4.76089 14.9062 5.00699 15.2227 5.03043C19.7109 5.58121 23.2031 9.41324 23.2031 14.0539C23.2031 16.1632 22.4766 18.1086 21.1992 19.7375C21.0352 19.9367 21.0469 20.1945 21.2227 20.382L24.0234 23.1711C24.2812 23.4289 24.6797 23.4289 24.9141 23.1476C26.9883 20.6867 28.2305 17.5109 28.2305 14.0539Z" fill="black" fill-opacity="0.85"/>
  <path d="M0 14.0539C0 17.5226 1.24219 20.6984 3.31641 23.1593C3.55078 23.4406 3.9375 23.4289 4.20703 23.1711L7.00781 20.382C7.18359 20.1945 7.19531 19.9367 7.03125 19.7375C5.74219 18.1086 5.02734 16.1632 5.02734 14.0539C5.02734 9.41324 8.51953 5.58121 13.0078 5.03043C13.3242 5.00699 13.5469 4.76089 13.5469 4.44449L13.5469 0.612457C13.5469 0.237457 13.2656-0.0320745 12.8906 0.00308175C5.67188 0.612457 0 6.67105 0 14.0539Z" fill="black" fill-opacity="0.85"/>
  <path d="M8.09766 18.5539C8.47266 18.5539 8.69531 18.2961 8.69531 17.9328L8.69531 15.0734L9.99609 15.0734L11.2852 18.1086C11.4023 18.4015 11.6016 18.5539 11.8828 18.5539C12.2695 18.5539 12.4805 18.2961 12.4805 18.0031C12.4805 17.8625 12.4453 17.757 12.3516 17.5461L11.1562 14.8156C11.9414 14.464 12.5039 13.6789 12.5039 12.507C12.5039 10.9367 11.5547 9.98746 9.9375 9.98746L8.08594 9.98746C7.72266 9.98746 7.48828 10.2218 7.48828 10.5968L7.48828 17.9328C7.48828 18.2961 7.72266 18.5539 8.09766 18.5539ZM8.69531 14.1007L8.69531 10.9836L9.82031 10.9836C10.7695 10.9836 11.2969 11.5812 11.2969 12.5304C11.2969 13.4796 10.8047 14.1007 9.83203 14.1007ZM14.2266 18.5539C14.5547 18.5539 14.7656 18.3312 14.7656 17.9914L14.7656 11.8039L14.8242 11.8039L16.5234 17.8273C16.6172 18.1437 16.8164 18.4132 17.2031 18.4132C17.5781 18.4132 17.7773 18.1789 17.8828 17.8039L19.582 11.8039L19.6406 11.8039L19.6406 17.9914C19.6406 18.3312 19.8633 18.5539 20.1914 18.5539C20.5078 18.5539 20.7305 18.3312 20.7305 17.9914L20.7305 10.714C20.7305 10.1867 20.4023 9.87027 19.875 9.87027C19.4297 9.87027 19.1133 10.1398 18.9961 10.5851L17.2617 16.8312L17.168 16.8312L15.4102 10.5734C15.293 10.1398 14.9766 9.87027 14.543 9.87027C14.0156 9.87027 13.6758 10.1984 13.6758 10.714L13.6758 17.9914C13.6758 18.3312 13.8984 18.5539 14.2266 18.5539Z" fill="black" fill-opacity="0.85"/>
 </g>
</svg>
