<?xml version="1.0" encoding="UTF-8"?>
<!--Generator: Apple Native CoreSVG 360-->
<!DOCTYPE svg
PUBLIC "-//W3C//DTD SVG 1.1//EN"
       "http://www.w3.org/Graphics/SVG/1.1/DTD/svg11.dtd">
<svg version="1.1" xmlns="http://www.w3.org/2000/svg" xmlns:xlink="http://www.w3.org/1999/xlink" viewBox="0 0 26.5195 25.0195">
 <g>
  <rect height="25.0195" opacity="0" width="26.5195" x="0" y="0"/>
  <path d="M1.55859 22.2188L24.6094 22.2188L24.6094 21.4336C24.6094 20.9648 24.3398 20.6836 23.8594 20.6836L23.1094 20.6836L23.1094 8.03906L24.1406 8.03906C24.7852 8.03906 25.1602 7.57031 25.1602 7.08984C25.1602 6.73828 24.9609 6.43359 24.5273 6.1875L14.5195 0.410156C14.0508 0.140625 13.5586 0 13.0781 0C12.5977 0 12.0938 0.140625 11.6484 0.410156L1.64062 6.1875C1.19531 6.43359 1.00781 6.73828 1.00781 7.08984C1.00781 7.57031 1.38281 8.03906 2.02734 8.03906L3.05859 8.03906L3.05859 20.6836L2.32031 20.6836C1.83984 20.6836 1.55859 20.9648 1.55859 21.4336ZM4.82812 20.6836L4.82812 6.53906L12.6211 2.16797C12.7617 2.08594 12.9258 2.03906 13.0781 2.03906C13.2305 2.03906 13.3945 2.08594 13.5469 2.16797L21.3398 6.53906L21.3398 20.6836ZM0.9375 25.0078L25.2188 25.0078C25.7344 25.0078 26.168 24.5742 26.168 24.0586C26.168 23.543 25.7344 23.1211 25.2188 23.1211L0.9375 23.1211C0.421875 23.1211 0 23.543 0 24.0586C0 24.5742 0.421875 25.0078 0.9375 25.0078Z" fill="black" fill-opacity="0.85"/>
  <path d="M9.69141 17.4375C10.125 17.4375 10.3828 17.168 10.3828 16.7344L10.3828 13.1836C10.3828 11.0977 11.1094 9.36328 13.1016 9.36328C15.1523 9.36328 15.8438 11.1094 15.8438 13.1836L15.8438 16.7344C15.8438 17.168 16.1016 17.4375 16.5234 17.4375C16.9453 17.4375 17.2148 17.168 17.2148 16.7344L17.2148 13.1133C17.2148 10.2422 15.8906 8.12109 13.1016 8.12109C10.3125 8.12109 9.01172 10.2656 9.01172 13.1133L9.01172 16.7344C9.01172 17.168 9.26953 17.4375 9.69141 17.4375ZM13.0898 17.4375C13.3828 17.4375 13.5703 17.25 13.5703 16.9453L13.5703 6.84375C13.5703 6.55078 13.3828 6.36328 13.0898 6.36328C12.7852 6.36328 12.5977 6.55078 12.5977 6.84375L12.5977 16.9453C12.5977 17.25 12.7852 17.4375 13.0898 17.4375Z" fill="black" fill-opacity="0.85"/>
 </g>
</svg>
