<?xml version="1.0" encoding="UTF-8"?>
<!--Generator: Apple Native CoreSVG 360-->
<!DOCTYPE svg
PUBLIC "-//W3C//DTD SVG 1.1//EN"
       "http://www.w3.org/Graphics/SVG/1.1/DTD/svg11.dtd">
<svg version="1.1" xmlns="http://www.w3.org/2000/svg" xmlns:xlink="http://www.w3.org/1999/xlink" viewBox="0 0 28.582 23.4085">
 <g>
  <rect height="23.4085" opacity="0" width="28.582" x="0" y="0"/>
  <path d="M28.2305 14.0539C28.2305 6.67105 22.5586 0.612457 15.3398 0.00308175C14.9648-0.0320745 14.6836 0.237457 14.6836 0.612457L14.6836 4.44449C14.6836 4.76089 14.9062 5.00699 15.2227 5.03043C19.7109 5.58121 23.2031 9.41324 23.2031 14.0539C23.2031 16.1632 22.4766 18.1086 21.1992 19.7375C21.0352 19.9367 21.0469 20.1945 21.2227 20.382L24.0234 23.1711C24.2812 23.4289 24.6797 23.4289 24.9141 23.1476C26.9883 20.6867 28.2305 17.5109 28.2305 14.0539Z" fill="black" fill-opacity="0.85"/>
  <path d="M0 14.0539C0 17.5226 1.24219 20.6984 3.31641 23.1593C3.55078 23.4406 3.9375 23.4289 4.20703 23.1711L7.00781 20.382C7.18359 20.1945 7.19531 19.9367 7.03125 19.7375C5.74219 18.1086 5.02734 16.1632 5.02734 14.0539C5.02734 9.41324 8.51953 5.58121 13.0078 5.03043C13.3242 5.00699 13.5469 4.76089 13.5469 4.44449L13.5469 0.612457C13.5469 0.237457 13.2656-0.0320745 12.8906 0.00308175C5.67188 0.612457 0 6.67105 0 14.0539Z" fill="black" fill-opacity="0.85"/>
  <path d="M10.6992 19.3156C11.1328 19.3156 11.3906 19.0461 11.3906 18.6125L11.3906 15.0617C11.3906 12.9757 12.1172 11.2414 14.1211 11.2414C16.1602 11.2414 16.8516 12.9875 16.8516 15.0617L16.8516 18.6125C16.8516 19.0461 17.1094 19.3156 17.543 19.3156C17.9648 19.3156 18.2227 19.0461 18.2227 18.6125L18.2227 14.9914C18.2227 12.1203 16.8984 9.99918 14.1211 9.99918C11.3203 9.99918 10.0195 12.1437 10.0195 14.9914L10.0195 18.6125C10.0195 19.0461 10.2891 19.3156 10.6992 19.3156ZM14.0977 19.3156C14.3906 19.3156 14.5781 19.1281 14.5781 18.8234L14.5781 8.72183C14.5781 8.42886 14.3906 8.24136 14.0977 8.24136C13.793 8.24136 13.6055 8.42886 13.6055 8.72183L13.6055 18.8234C13.6055 19.1281 13.793 19.3156 14.0977 19.3156Z" fill="black" fill-opacity="0.85"/>
 </g>
</svg>
