<?xml version="1.0" encoding="UTF-8"?>
<!--Generator: Apple Native CoreSVG 360-->
<!DOCTYPE svg
PUBLIC "-//W3C//DTD SVG 1.1//EN"
       "http://www.w3.org/Graphics/SVG/1.1/DTD/svg11.dtd">
<svg version="1.1" xmlns="http://www.w3.org/2000/svg" xmlns:xlink="http://www.w3.org/1999/xlink" viewBox="0 0 22.6055 29.6133">
 <g>
  <rect height="29.6133" opacity="0" width="22.6055" x="0" y="0"/>
  <path d="M22.2539 22.5352C22.2539 25.5586 17.6484 27.668 11.1445 27.668C4.62891 27.668 0 25.5586 0 22.5352C0 20.0194 3.22988 18.1333 8.09766 17.5855L8.09766 18.5039C8.09766 18.8432 8.10656 19.1673 8.12733 19.4709C4.73759 19.9142 2.39062 21.1023 2.39062 22.5352C2.39062 24.3867 6.21094 25.8164 11.1328 25.8164C16.0312 25.8164 19.875 24.3633 19.875 22.5352C19.875 21.1096 17.5073 19.9149 14.1155 19.4704C14.1358 19.1669 14.1445 18.843 14.1445 18.5039L14.1445 17.5812C19.0227 18.1229 22.2539 20.0125 22.2539 22.5352Z" fill="black" fill-opacity="0.85"/>
  <path d="M15.5273 6.35156C15.5273 8.41406 14.1211 10.1484 12.2109 10.6172L12.2109 18.0352C12.2109 21.5039 11.6016 23.3789 11.1328 23.3789C10.6523 23.3789 10.043 21.4922 10.043 18.0352L10.043 10.6172C8.13281 10.1367 6.72656 8.41406 6.72656 6.35156C6.72656 3.92578 8.68359 1.93359 11.1328 1.93359C13.5703 1.93359 15.5273 3.92578 15.5273 6.35156ZM8.36719 5.07422C8.36719 5.89453 9.07031 6.59766 9.86719 6.59766C10.6992 6.59766 11.3789 5.89453 11.3789 5.07422C11.3789 4.26562 10.6992 3.57422 9.86719 3.57422C9.07031 3.57422 8.36719 4.26562 8.36719 5.07422Z" fill="black" fill-opacity="0.85"/>
 </g>
</svg>
