<?xml version="1.0" encoding="UTF-8"?>
<!--Generator: Apple Native CoreSVG 360-->
<!DOCTYPE svg
PUBLIC "-//W3C//DTD SVG 1.1//EN"
       "http://www.w3.org/Graphics/SVG/1.1/DTD/svg11.dtd">
<svg version="1.1" xmlns="http://www.w3.org/2000/svg" xmlns:xlink="http://www.w3.org/1999/xlink" viewBox="0 0 24.0117 27.4659">
 <g>
  <rect height="27.4659" opacity="0" width="24.0117" x="0" y="0"/>
  <path d="M12.2227 14.02L23.625 7.48097L23.625 7.35207C23.5078 6.42629 23.0742 5.94582 22.2305 5.45363L13.9336 0.695818C12.5156-0.124495 11.1445-0.112776 9.72656 0.695818L1.44141 5.41847C0.597656 5.89894 0.152344 6.40285 0.0234375 7.41066L0.0234375 7.53957L11.4727 14.0318C11.6836 14.1607 12.0117 14.1489 12.2227 14.02ZM12.1289 11.7114C11.9531 11.8052 11.7188 11.8052 11.5312 11.7114L3.09375 6.88332C2.96484 6.81301 2.95312 6.6841 3.08203 6.61379L10.5117 2.38332C11.4141 1.86769 12.2461 1.85597 13.1602 2.38332L20.5781 6.63722C20.7188 6.70754 20.7188 6.85988 20.5898 6.93019ZM1.64062 21.9536L10.8633 27.1802C11.5195 27.5552 12.1406 27.5669 12.8086 27.1802L22.0195 21.9068C23.0977 21.2857 23.6602 20.7232 23.6602 19.0474L23.6602 9.07472L12.4805 15.4497C12.0938 15.6724 11.6016 15.6724 11.2148 15.4614L0 9.09816L0 19.0474C0 20.7232 0.574219 21.3443 1.64062 21.9536ZM1.46484 13.0474C1.10156 12.8364 0.808594 12.3911 0.808594 12.0278C0.808594 11.6763 1.08984 11.5591 1.44141 11.7583C1.79297 11.9693 2.09766 12.4263 2.09766 12.7778C2.09766 13.1294 1.80469 13.2466 1.46484 13.0474ZM4.96875 14.9107L2.74219 13.6333L2.74219 12.5083L4.96875 13.7857ZM6.42188 15.8833C6.05859 15.6724 5.77734 15.2153 5.77734 14.8638C5.77734 14.5122 6.05859 14.3833 6.41016 14.5943C6.76172 14.7935 7.05469 15.2505 7.05469 15.6021C7.05469 15.9536 6.77344 16.0825 6.42188 15.8833ZM9.92578 17.7583L7.69922 16.481L7.69922 15.356L9.92578 16.6333ZM13.5352 17.9927C13.1836 18.1919 12.9023 18.0747 12.9023 17.7232C12.9023 17.3716 13.2188 16.9028 13.5586 16.7036C13.9102 16.4927 14.1914 16.6099 14.1914 16.9614C14.1914 17.313 13.8984 17.7818 13.5352 17.9927ZM14.9648 23.4653L14.9648 16.4341C14.9648 16.0708 15.0234 15.9185 15.3281 15.7427L17.2383 14.6528C17.5195 14.5005 17.8008 14.6294 17.8008 14.9341L17.8008 21.8482ZM19.1016 14.8052C18.75 15.0044 18.4688 14.8989 18.4688 14.5474C18.4688 14.1958 18.7617 13.7271 19.125 13.5161C19.4766 13.3169 19.7578 13.4341 19.7578 13.7857C19.7578 14.1372 19.4531 14.606 19.1016 14.8052ZM22.7461 12.6138L20.5195 13.8794L20.5195 12.7661L22.7461 11.5005Z" fill="black" fill-opacity="0.85"/>
 </g>
</svg>
