<?xml version="1.0" encoding="UTF-8"?>
<!--Generator: Apple Native CoreSVG 360-->
<!DOCTYPE svg
PUBLIC "-//W3C//DTD SVG 1.1//EN"
       "http://www.w3.org/Graphics/SVG/1.1/DTD/svg11.dtd">
<svg version="1.1" xmlns="http://www.w3.org/2000/svg" xmlns:xlink="http://www.w3.org/1999/xlink" viewBox="0 0 17.2383 29.246">
 <g>
  <rect height="29.246" opacity="0" width="17.2383" x="0" y="0"/>
  <path d="M16.8867 2.88669L16.8867 9.94138C16.8867 10.9023 16.6055 11.4648 15.8672 11.9687L10.6994 15.5394L10.4414 14.7343C10.3392 14.4167 10.1881 14.1486 10.0032 13.93L10.0547 13.8929L10.0547 2.71091L6.83203 2.71091L6.83203 13.8929L6.89102 13.9354C6.708 14.1528 6.55845 14.4192 6.45703 14.7343L6.19526 15.5512L1.01953 11.9687C0.292969 11.4648 0 10.914 0 9.94138L0 2.88669C0 1.76169 0.808594 0.953094 1.93359 0.953094L14.9531 0.953094C16.0664 0.953094 16.8867 1.76169 16.8867 2.88669ZM11.8242 2.71091L11.8242 12.6189L14.8594 10.4336C15.0117 10.3164 15.1172 10.1406 15.1172 9.91794L15.1172 3.26169C15.1172 2.957 14.8828 2.71091 14.5781 2.71091ZM2.30859 2.71091C2.00391 2.71091 1.76953 2.957 1.76953 3.26169L1.76953 9.91794C1.76953 10.1406 1.86328 10.3164 2.02734 10.4336L5.0625 12.6189L5.0625 2.71091Z" fill="black" fill-opacity="0.85"/>
  <path d="M5.08594 27.6836L8.44922 25.2109L11.8125 27.6836C12.4922 28.1992 13.2188 27.6601 12.9609 26.8633L11.625 22.8906L15.0234 20.4648C15.6445 20.0078 15.457 19.0937 14.5898 19.1054L10.418 19.1406L9.14062 15.1445C8.89453 14.3711 8.00391 14.3711 7.75781 15.1445L6.48047 19.1406L2.30859 19.1054C1.44141 19.0937 1.24219 19.9961 1.875 20.4648L5.27344 22.8906L3.9375 26.8633C3.67969 27.6601 4.40625 28.1992 5.08594 27.6836Z" fill="black" fill-opacity="0.85"/>
 </g>
</svg>
