<?xml version="1.0" encoding="UTF-8"?>
<!--Generator: Apple Native CoreSVG 360-->
<!DOCTYPE svg
PUBLIC "-//W3C//DTD SVG 1.1//EN"
       "http://www.w3.org/Graphics/SVG/1.1/DTD/svg11.dtd">
<svg version="1.1" xmlns="http://www.w3.org/2000/svg" xmlns:xlink="http://www.w3.org/1999/xlink" viewBox="0 0 29.6602 23.918">
 <g>
  <rect height="23.918" opacity="0" width="29.6602" x="0" y="0"/>
  <path d="M3.82031 13.6055C4.125 13.6055 4.35938 13.5234 4.65234 13.3125L7.71094 11.0508C7.96875 10.8633 8.10938 10.582 8.10938 10.2773C8.10938 9.72656 7.67578 9.32812 7.18359 9.32812C6.96094 9.32812 6.76172 9.39844 6.58594 9.52734L3.79688 11.707L1.76953 8.82422C1.58203 8.55469 1.30078 8.37891 0.960938 8.37891C0.421875 8.37891 0 8.76562 0 9.30469C0 9.53906 0.0703125 9.76172 0.210938 9.9375L2.68359 12.9727C3.04688 13.4414 3.35156 13.6055 3.82031 13.6055ZM3.70312 12.9492C4.24219 12.9492 4.69922 12.5039 4.69922 11.9531C4.69922 6.44531 9.15234 1.99219 14.6602 1.99219C20.168 1.99219 24.6211 6.44531 24.6211 11.9531C24.6211 17.4609 20.168 21.9141 14.6602 21.9141C11.0156 21.9141 8.41406 19.9805 7.13672 18.4922C6.87891 18.1875 6.57422 18.0703 6.28125 18.0703C5.80078 18.0703 5.35547 18.4453 5.35547 18.9844C5.35547 19.2539 5.4375 19.5469 5.69531 19.8516C7.03125 21.4219 10.1367 23.9062 14.6602 23.9062C21.2578 23.9062 26.6133 18.5391 26.6133 11.9531C26.6133 5.35547 21.2578 0 14.6602 0C8.0625 0 2.70703 5.35547 2.70703 11.9531C2.70703 12.5039 3.15234 12.9492 3.70312 12.9492Z" fill="black" fill-opacity="0.85"/>
  <path d="M11.6484 15.7969C11.6484 16.3242 12.2344 16.5703 12.75 16.2656L19.0195 12.5508C19.4766 12.2812 19.4648 11.6367 19.0195 11.3672L12.75 7.65234C12.2695 7.37109 11.6484 7.58203 11.6484 8.12109Z" fill="black" fill-opacity="0.85"/>
 </g>
</svg>
