<?xml version="1.0" encoding="UTF-8"?>
<!--Generator: Apple Native CoreSVG 360-->
<!DOCTYPE svg
PUBLIC "-//W3C//DTD SVG 1.1//EN"
       "http://www.w3.org/Graphics/SVG/1.1/DTD/svg11.dtd">
<svg version="1.1" xmlns="http://www.w3.org/2000/svg" xmlns:xlink="http://www.w3.org/1999/xlink" viewBox="0 0 25.4648 20.4023">
 <g>
  <rect height="20.4023" opacity="0" width="25.4648" x="0" y="0"/>
  <path d="M3.67969 18.1055L21.4336 18.1055C23.8945 18.1055 25.1133 16.8867 25.1133 14.4727L25.1133 5.95312C25.1133 3.53906 23.8945 2.32031 21.4336 2.32031L3.67969 2.32031C1.23047 2.32031 0 3.52734 0 5.95312L0 14.4727C0 16.8984 1.23047 18.1055 3.67969 18.1055ZM3.70312 16.2188C2.53125 16.2188 1.88672 15.5977 1.88672 14.3789L1.88672 6.04688C1.88672 4.82812 2.53125 4.20703 3.70312 4.20703L21.4102 4.20703C22.5586 4.20703 23.2266 4.82812 23.2266 6.04688L23.2266 14.3789C23.2266 15.5977 22.5586 16.2188 21.4102 16.2188ZM4.04297 3.09375L5.92969 3.09375L5.92969 0.960938C5.92969 0.398438 5.54297 0.0234375 4.98047 0.0234375C4.41797 0.0234375 4.04297 0.398438 4.04297 0.960938ZM7.82812 3.09375L9.71484 3.09375L9.71484 0.960938C9.71484 0.398438 9.32812 0.0234375 8.76562 0.0234375C8.20312 0.0234375 7.82812 0.398438 7.82812 0.960938ZM11.6133 3.09375L13.5 3.09375L13.5 0.960938C13.5 0.398438 13.1133 0.0234375 12.5508 0.0234375C11.9883 0.0234375 11.6133 0.398438 11.6133 0.960938ZM15.3984 3.09375L17.2852 3.09375L17.2852 0.960938C17.2852 0.398438 16.9102 0.0234375 16.3477 0.0234375C15.7852 0.0234375 15.3984 0.398438 15.3984 0.960938ZM19.1836 3.09375L21.0703 3.09375L21.0703 0.960938C21.0703 0.398438 20.6953 0.0234375 20.1328 0.0234375C19.5703 0.0234375 19.1836 0.398438 19.1836 0.960938ZM4.04297 17.3555L4.04297 19.4531C4.04297 20.0156 4.41797 20.4023 4.98047 20.4023C5.54297 20.4023 5.92969 20.0156 5.92969 19.4531L5.92969 17.3555ZM7.82812 17.3555L7.82812 19.4531C7.82812 20.0156 8.20312 20.4023 8.76562 20.4023C9.32812 20.4023 9.71484 20.0156 9.71484 19.4531L9.71484 17.3555ZM11.6133 17.3555L11.6133 19.4531C11.6133 20.0156 11.9883 20.4023 12.5508 20.4023C13.1133 20.4023 13.5 20.0156 13.5 19.4531L13.5 17.3555ZM15.3984 17.3555L15.3984 19.4531C15.3984 20.0156 15.7852 20.4023 16.3477 20.4023C16.9102 20.4023 17.2852 20.0156 17.2852 19.4531L17.2852 17.3555ZM19.1836 17.3555L19.1836 19.4531C19.1836 20.0156 19.5703 20.4023 20.1328 20.4023C20.6953 20.4023 21.0703 20.0156 21.0703 19.4531L21.0703 17.3555Z" fill="black" fill-opacity="0.85"/>
 </g>
</svg>
