<?xml version="1.0" encoding="UTF-8"?>
<!--Generator: Apple Native CoreSVG 360-->
<!DOCTYPE svg
PUBLIC "-//W3C//DTD SVG 1.1//EN"
       "http://www.w3.org/Graphics/SVG/1.1/DTD/svg11.dtd">
<svg version="1.1" xmlns="http://www.w3.org/2000/svg" xmlns:xlink="http://www.w3.org/1999/xlink" viewBox="0 0 27.9844 21.5742">
 <g>
  <rect height="21.5742" opacity="0" width="27.9844" x="0" y="0"/>
  <path d="M1.25391 3.94922L1.25391 5.60156L26.3789 5.60156L26.3789 3.94922ZM4.94531 21.5742L22.9805 21.5742C25.9336 21.5742 27.6328 19.793 27.6328 16.6289L27.6328 4.95703C27.6328 1.79297 25.9336 0 22.9805 0L4.94531 0C1.79297 0 0 1.79297 0 4.95703L0 16.6289C0 19.793 1.79297 21.5742 4.94531 21.5742ZM4.95703 19.6875C3.01172 19.6875 1.88672 18.5742 1.88672 16.6289L1.88672 4.95703C1.88672 3.01172 3.01172 1.88672 4.95703 1.88672L22.6758 1.88672C24.6211 1.88672 25.7461 3.01172 25.7461 4.95703L25.7461 16.6289C25.7461 18.5742 24.6211 19.6875 22.6758 19.6875Z" fill="black" fill-opacity="0.85"/>
  <path d="M13.8281 9.51562L15.6914 11.4844L17.2148 13.0078C17.3906 13.1836 17.6133 13.2891 17.8477 13.2891C18.3516 13.2891 18.7148 12.9492 18.7148 12.457C18.7148 12.1875 18.6094 11.9883 18.3984 11.8125L14.5078 8.17969C14.2617 7.94531 14.0625 7.86328 13.8281 7.86328C13.582 7.86328 13.3945 7.94531 13.1484 8.17969L9.24609 11.8125C9.04688 11.9883 8.94141 12.1875 8.94141 12.457C8.94141 12.9492 9.29297 13.2891 9.78516 13.2891C10.0195 13.2891 10.2539 13.1836 10.4414 13.0078L11.9648 11.4844ZM14.6719 9.75C14.6602 9.28125 14.2969 8.90625 13.8281 8.90625C13.3594 8.90625 12.9961 9.28125 12.9844 9.75L12.8906 12.3984L12.8906 16.2656C12.8906 16.7578 13.3242 17.1797 13.8281 17.1797C14.332 17.1797 14.7539 16.7578 14.7539 16.2656L14.7539 12.3984Z" fill="black" fill-opacity="0.85"/>
 </g>
</svg>
