<?xml version="1.0" encoding="UTF-8"?>
<!--Generator: Apple Native CoreSVG 360-->
<!DOCTYPE svg
PUBLIC "-//W3C//DTD SVG 1.1//EN"
       "http://www.w3.org/Graphics/SVG/1.1/DTD/svg11.dtd">
<svg version="1.1" xmlns="http://www.w3.org/2000/svg" xmlns:xlink="http://www.w3.org/1999/xlink" viewBox="0 0 25.5908 22.3945">
 <g>
  <rect height="22.3945" opacity="0" width="25.5908" x="0" y="0"/>
  <path d="M15.3501 1.60547L24.4439 17.4492C24.7485 17.9648 24.9009 18.5391 24.9009 19.0898C24.9009 20.8828 23.6939 22.2656 21.7134 22.2656L3.5376 22.2656C1.54542 22.2656 0.338385 20.8828 0.338385 19.0898C0.338385 18.5391 0.490729 17.9766 0.795416 17.4492L4.43773 11.1033L5.78503 12.4492L4.33522 14.9766L3.51417 14.9766L2.40089 16.793L3.29383 16.7919L2.4126 18.3281C2.2837 18.5742 2.23682 18.8555 2.23682 19.0781C2.23682 19.793 2.74073 20.4258 3.54932 20.4258L21.6782 20.4258C22.4985 20.4258 23.0142 19.793 23.0142 19.0781C23.0142 18.8555 22.9439 18.5859 22.8149 18.3398L21.9154 16.7706L22.8618 16.7695L21.7485 14.9766L20.887 14.9766L13.7329 2.49609C13.4868 2.0625 13.0532 1.875 12.6196 1.875C12.186 1.875 11.7407 2.0625 11.4946 2.49609L8.40333 7.88494L7.05694 6.53996L9.88917 1.60547C10.4985 0.539062 11.5532 0 12.6196 0C13.6978 0 14.7524 0.539062 15.3501 1.60547Z" fill="black" fill-opacity="0.85"/>
  <path d="M13.5571 5.87109L13.5571 13.0334L11.6939 11.172L11.6939 5.87109C11.6939 5.28516 12.0454 4.91016 12.6196 4.91016C13.2056 4.91016 13.5571 5.28516 13.5571 5.87109Z" fill="black" fill-opacity="0.85"/>
  <path d="M22.8618 16.7695L2.40089 16.793L3.51417 14.9766L10.589 14.9766L12.022 16.4062L13.3462 15.0703L13.2523 14.9766L21.7485 14.9766Z" fill="black" fill-opacity="0.85"/>
  <path d="M12.022 16.4062L13.3462 15.0703L3.23292 4.96875C2.83448 4.58203 2.31885 4.57031 1.9087 4.96875C1.48682 5.37891 1.51026 5.91797 1.9087 6.31641Z" fill="black" fill-opacity="0.85"/>
 </g>
</svg>
