<?xml version="1.0" encoding="UTF-8"?>
<!--Generator: Apple Native CoreSVG 360-->
<!DOCTYPE svg
PUBLIC "-//W3C//DTD SVG 1.1//EN"
       "http://www.w3.org/Graphics/SVG/1.1/DTD/svg11.dtd">
<svg version="1.1" xmlns="http://www.w3.org/2000/svg" xmlns:xlink="http://www.w3.org/1999/xlink" viewBox="0 0 25.0078 26.7539">
 <g>
  <rect height="26.7539" opacity="0" width="25.0078" x="0" y="0"/>
  <path d="M1.96875 6.17578C3.04688 6.17578 3.92578 5.29688 3.92578 4.21875C3.92578 3.12891 3.04688 2.25 1.96875 2.25C0.878906 2.25 0 3.12891 0 4.21875C0 5.29688 0.878906 6.17578 1.96875 6.17578Z" fill="black" fill-opacity="0.85"/>
  <path d="M1.96875 12.2695C3.04688 12.2695 3.92578 11.3906 3.92578 10.3125C3.92578 9.22266 3.04688 8.34375 1.96875 8.34375C0.878906 8.34375 0 9.22266 0 10.3125C0 11.3906 0.878906 12.2695 1.96875 12.2695Z" fill="black" fill-opacity="0.85"/>
  <path d="M1.96875 18.3867C3.04688 18.3867 3.92578 17.5078 3.92578 16.4297C3.92578 15.3398 3.04688 14.4609 1.96875 14.4609C0.878906 14.4609 0 15.3398 0 16.4297C0 17.5078 0.878906 18.3867 1.96875 18.3867Z" fill="black" fill-opacity="0.85"/>
  <path d="M1.96875 24.4805C3.04688 24.4805 3.92578 23.6016 3.92578 22.5234C3.92578 21.4336 3.04688 20.5547 1.96875 20.5547C0.878906 20.5547 0 21.4336 0 22.5234C0 23.6016 0.878906 24.4805 1.96875 24.4805Z" fill="black" fill-opacity="0.85"/>
  <path d="M16.2656 20.6016C21.2578 20.6016 24.6562 17.2617 24.6562 12.3867L24.6562 10.0078C24.6562 9.51562 24.2695 9.12891 23.7656 9.12891C23.2734 9.12891 22.8867 9.51562 22.8867 10.0078L22.8867 12.3164C22.8867 16.3125 20.2852 18.9609 16.2656 18.9609C12.2578 18.9609 9.65625 16.3125 9.65625 12.3164L9.65625 10.0078C9.65625 9.51562 9.25781 9.12891 8.76562 9.12891C8.27344 9.12891 7.88672 9.51562 7.88672 10.0078L7.88672 12.3867C7.88672 17.2617 11.2852 20.6016 16.2656 20.6016ZM12.0117 11.9648C12.0117 14.6602 13.7461 16.5586 16.2656 16.5586C18.7969 16.5586 20.5312 14.6602 20.5312 11.9648L20.5312 4.59375C20.5312 1.88672 18.7969 0 16.2656 0C13.7461 0 12.0117 1.88672 12.0117 4.59375ZM13.7812 11.9648L13.7812 4.59375C13.7812 2.85938 14.7656 1.74609 16.2656 1.74609C17.7656 1.74609 18.7617 2.85938 18.7617 4.59375L18.7617 11.9648C18.7617 13.6992 17.7656 14.8125 16.2656 14.8125C14.7656 14.8125 13.7812 13.6992 13.7812 11.9648ZM11.0391 25.0781L21.5039 25.0781C21.9961 25.0781 22.3945 24.6914 22.3945 24.1992C22.3945 23.707 21.9961 23.3086 21.5039 23.3086L11.0391 23.3086C10.5469 23.3086 10.1484 23.707 10.1484 24.1992C10.1484 24.6914 10.5469 25.0781 11.0391 25.0781ZM16.2656 24.6914C16.7578 24.6914 17.1562 24.293 17.1562 23.8008L17.1562 20.2031C17.1562 19.7109 16.7578 19.3125 16.2656 19.3125C15.7734 19.3125 15.3867 19.7109 15.3867 20.2031L15.3867 23.8008C15.3867 24.293 15.7734 24.6914 16.2656 24.6914Z" fill="black" fill-opacity="0.85"/>
 </g>
</svg>
