<?xml version="1.0" encoding="UTF-8"?>
<!--Generator: Apple Native CoreSVG 360-->
<!DOCTYPE svg
PUBLIC "-//W3C//DTD SVG 1.1//EN"
       "http://www.w3.org/Graphics/SVG/1.1/DTD/svg11.dtd">
<svg version="1.1" xmlns="http://www.w3.org/2000/svg" xmlns:xlink="http://www.w3.org/1999/xlink" viewBox="0 0 28.1602 18.1289">
 <g>
  <rect height="18.1289" opacity="0" width="28.1602" x="0" y="0"/>
  <path d="M2.75391 18.1289L25.0547 18.1289C26.707 18.1289 27.8086 17.0273 27.8086 15.375L27.8086 2.76562C27.8086 1.11328 26.707 0.0117188 25.0547 0.0117188L2.75391 0.0117188C1.10156 0.0117188 0 1.11328 0 2.76562L0 15.375C0 17.0273 1.10156 18.1289 2.75391 18.1289ZM2.77734 16.2422C2.23828 16.2422 1.88672 15.8672 1.88672 15.293L1.88672 2.84766C1.88672 2.27344 2.23828 1.89844 2.77734 1.89844L25.0312 1.89844C25.5703 1.89844 25.9219 2.27344 25.9219 2.84766L25.9219 15.293C25.9219 15.8672 25.5703 16.2422 25.0312 16.2422ZM4.37109 14.8594L15.9023 14.8594C16.5703 14.8594 17.0039 14.4258 17.0039 13.7578L17.0039 4.38281C17.0039 3.71484 16.5703 3.28125 15.9023 3.28125L4.37109 3.28125C3.70312 3.28125 3.26953 3.71484 3.26953 4.38281L3.26953 13.7578C3.26953 14.4258 3.70312 14.8594 4.37109 14.8594ZM4.88672 13.5586C4.71094 13.5586 4.57031 13.4297 4.57031 13.2422L4.57031 4.89844C4.57031 4.71094 4.71094 4.58203 4.88672 4.58203L15.3867 4.58203C15.5625 4.58203 15.7031 4.71094 15.7031 4.89844L15.7031 13.2422C15.7031 13.4297 15.5625 13.5586 15.3867 13.5586ZM18.5156 17.1211L19.8164 17.1211L19.8164 1.00781L18.5156 1.00781ZM19.2305 13.2305L26.8828 13.2305L26.8828 11.9297L19.2305 11.9297ZM21.1758 5.56641L24.5625 5.56641C24.6797 5.56641 24.7852 5.47266 24.7852 5.35547L24.7852 3.50391C24.7852 3.38672 24.6797 3.28125 24.5625 3.28125L21.1758 3.28125C21.0586 3.28125 20.9531 3.38672 20.9531 3.50391L20.9531 5.35547C20.9531 5.47266 21.0586 5.56641 21.1758 5.56641ZM21.5508 7.52344L24.1875 7.52344C24.5391 7.52344 24.7852 7.28906 24.7852 6.9375C24.7852 6.57422 24.5391 6.33984 24.1875 6.33984L21.5508 6.33984C21.1992 6.33984 20.9531 6.57422 20.9531 6.9375C20.9531 7.28906 21.1992 7.52344 21.5508 7.52344ZM21.5508 9.50391L24.1875 9.50391C24.5391 9.50391 24.7852 9.25781 24.7852 8.90625C24.7852 8.55469 24.5391 8.32031 24.1875 8.32031L21.5508 8.32031C21.1992 8.32031 20.9531 8.55469 20.9531 8.90625C20.9531 9.25781 21.1992 9.50391 21.5508 9.50391Z" fill="black" fill-opacity="0.85"/>
 </g>
</svg>
