<?xml version="1.0" encoding="UTF-8"?>
<!--Generator: Apple Native CoreSVG 360-->
<!DOCTYPE svg
PUBLIC "-//W3C//DTD SVG 1.1//EN"
       "http://www.w3.org/Graphics/SVG/1.1/DTD/svg11.dtd">
<svg version="1.1" xmlns="http://www.w3.org/2000/svg" xmlns:xlink="http://www.w3.org/1999/xlink" viewBox="0 0 17.4492 27.1992">
 <g>
  <rect height="27.1992" opacity="0" width="17.4492" x="0" y="0"/>
  <path d="M1.08984 21.1289C1.76953 21.1289 2.17969 20.6719 2.17969 20.0391L2.17969 11.4258C2.17969 9.57422 3.08203 7.67578 4.99219 7.67578C6.75 7.67578 7.45312 9.03516 7.45312 10.6875L7.45312 20.0391C7.45312 20.5898 7.76953 21.1289 8.53125 21.1289C9.25781 21.1289 9.62109 20.6367 9.62109 20.0391L9.62109 11.2031C9.62109 9.36328 10.5352 7.67578 12.4102 7.67578C14.3086 7.67578 14.9062 9.10547 14.9062 10.8984L14.9062 20.0391C14.9062 20.5664 15.1992 21.1289 15.9961 21.1289C16.6758 21.1289 17.0977 20.6719 17.0977 20.0391L17.0977 10.4062C17.0977 7.74609 15.7266 5.75391 12.9844 5.75391C11.0625 5.75391 9.57422 6.87891 9.15234 8.68359L9.07031 8.68359C8.69531 6.91406 7.58203 5.75391 5.54297 5.75391C3.63281 5.75391 2.49609 7.03125 2.13281 8.58984L2.0625 8.58984L2.0625 6.89062C2.0625 6.25781 1.65234 5.8125 1.03125 5.8125C0.398438 5.8125 0 6.25781 0 6.89062L0 20.0391C0 20.6367 0.363281 21.1289 1.08984 21.1289ZM1.80469 27.1641C2.23828 27.1641 2.41406 26.9414 2.57812 26.5547L13.4297 1.16016C13.5 1.00781 13.5352 0.832031 13.5352 0.679688C13.5352 0.257812 13.2188 0 12.7969 0C12.3984 0 12.1875 0.257812 12.0352 0.585938L1.17188 26.0273C1.10156 26.2031 1.07812 26.3672 1.07812 26.4727C1.07812 26.9297 1.40625 27.1641 1.80469 27.1641Z" fill="black" fill-opacity="0.85"/>
 </g>
</svg>
