<?xml version="1.0" encoding="UTF-8"?>
<!--Generator: Apple Native CoreSVG 360-->
<!DOCTYPE svg
PUBLIC "-//W3C//DTD SVG 1.1//EN"
       "http://www.w3.org/Graphics/SVG/1.1/DTD/svg11.dtd">
<svg version="1.1" xmlns="http://www.w3.org/2000/svg" xmlns:xlink="http://www.w3.org/1999/xlink" viewBox="0 0 28.582 23.5195">
 <g>
  <rect height="23.5195" opacity="0" width="28.582" x="0" y="0"/>
  <path d="M28.2305 14.1094C28.2305 10.6641 26.9883 7.48828 24.9141 5.02734C24.6797 4.74609 24.2812 4.74609 24.0234 5.01562L21.3047 7.73438C21.082 7.95703 21.0703 8.27344 21.2695 8.51953C22.4766 10.0664 23.2031 12.0117 23.2031 14.1094C23.2031 16.2188 22.4766 18.1641 21.1992 19.793C21.0352 19.9922 21.0469 20.25 21.2227 20.4375L24.0117 23.2266C24.2812 23.4961 24.668 23.4961 24.9141 23.2031C26.9883 20.7422 28.2305 17.5664 28.2305 14.1094Z" fill="black" fill-opacity="0.85"/>
  <path d="M14.1094 5.02734C16.2305 5.02734 18.1758 5.76562 19.7344 6.97266C19.9688 7.16016 20.2734 7.13672 20.4961 6.91406L23.2148 4.19531C23.4844 3.92578 23.4727 3.53906 23.1914 3.30469C20.7422 1.24219 17.5664 0 14.1094 0C10.6641 0 7.48828 1.24219 5.03906 3.30469C4.75781 3.53906 4.74609 3.92578 5.01562 4.19531L7.73438 6.91406C7.95703 7.13672 8.27344 7.16016 8.53125 6.96094C10.0781 5.76562 12.0117 5.02734 14.1094 5.02734Z" fill="black" fill-opacity="0.85"/>
  <path d="M0 14.1094C0 17.5664 1.24219 20.7422 3.31641 23.2031C3.55078 23.4961 3.94922 23.4961 4.20703 23.2266L6.99609 20.4375C7.17188 20.25 7.19531 19.9922 7.03125 19.793C5.75391 18.1641 5.02734 16.2188 5.02734 14.1094C5.02734 12.0117 5.74219 10.0664 6.96094 8.51953C7.14844 8.27344 7.14844 7.95703 6.92578 7.73438L4.20703 5.01562C3.9375 4.74609 3.55078 4.74609 3.31641 5.02734C1.24219 7.48828 0 10.6641 0 14.1094Z" fill="black" fill-opacity="0.85"/>
  <path d="M10.418 18.082C10.8164 18.082 11.0273 17.8125 11.0273 17.4609L11.0273 13.207C11.0273 12.3164 11.4492 11.4492 12.3633 11.4492C13.1836 11.4492 13.5234 12.0703 13.5234 12.8789L13.5234 17.4609C13.5234 17.8242 13.7695 18.082 14.1211 18.082C14.4844 18.082 14.7305 17.8242 14.7305 17.4609L14.7305 13.1133C14.7305 12.2695 15.1523 11.4492 16.043 11.4492C16.9219 11.4492 17.2266 12.1055 17.2266 12.9844L17.2266 17.4609C17.2266 17.8242 17.4727 18.082 17.8477 18.082C18.2109 18.082 18.457 17.8242 18.457 17.4609L18.457 12.6797C18.457 11.3789 17.8242 10.3242 16.4062 10.3242C15.4219 10.3242 14.6953 10.9219 14.4961 11.7656L14.4609 11.7656C14.25 10.8398 13.6641 10.3242 12.7031 10.3242C11.8008 10.3242 11.2148 10.9102 11.0156 11.7305L10.9688 11.7305L10.9688 10.957C10.9688 10.582 10.7461 10.3477 10.3828 10.3477C10.0195 10.3477 9.79688 10.582 9.79688 10.957L9.79688 17.4609C9.79688 17.8125 10.0078 18.082 10.418 18.082ZM10.7461 21.0352C10.957 21.0352 11.0391 20.9414 11.1328 20.7305L16.6641 8.08594C16.6992 8.00391 16.7227 7.92188 16.7227 7.85156C16.7227 7.64062 16.5586 7.48828 16.3477 7.48828C16.1484 7.48828 16.0312 7.62891 15.9492 7.80469L10.4297 20.4492C10.3828 20.5312 10.3711 20.6016 10.3711 20.6836C10.3711 20.8945 10.5352 21.0352 10.7461 21.0352Z" fill="black" fill-opacity="0.85"/>
 </g>
</svg>
