<?xml version="1.0" encoding="UTF-8"?>
<!--Generator: Apple Native CoreSVG 360-->
<!DOCTYPE svg
PUBLIC "-//W3C//DTD SVG 1.1//EN"
       "http://www.w3.org/Graphics/SVG/1.1/DTD/svg11.dtd">
<svg version="1.1" xmlns="http://www.w3.org/2000/svg" xmlns:xlink="http://www.w3.org/1999/xlink" viewBox="0 0 26.5195 25.0195">
 <g>
  <rect height="25.0195" opacity="0" width="26.5195" x="0" y="0"/>
  <path d="M1.55859 22.2188L24.6094 22.2188L24.6094 21.4336C24.6094 20.9648 24.3398 20.6836 23.8594 20.6836L23.1094 20.6836L23.1094 8.03906L24.1406 8.03906C24.7852 8.03906 25.1602 7.57031 25.1602 7.08984C25.1602 6.73828 24.9609 6.43359 24.5273 6.1875L14.5195 0.410156C14.0508 0.140625 13.5586 0 13.0781 0C12.5977 0 12.0938 0.140625 11.6484 0.410156L1.64062 6.1875C1.19531 6.43359 1.00781 6.73828 1.00781 7.08984C1.00781 7.57031 1.38281 8.03906 2.02734 8.03906L3.05859 8.03906L3.05859 20.6836L2.32031 20.6836C1.83984 20.6836 1.55859 20.9648 1.55859 21.4336ZM4.82812 20.6836L4.82812 6.53906L12.6211 2.16797C12.7617 2.08594 12.9258 2.03906 13.0781 2.03906C13.2305 2.03906 13.3945 2.08594 13.5469 2.16797L21.3398 6.53906L21.3398 20.6836ZM0.9375 25.0078L25.2188 25.0078C25.7344 25.0078 26.168 24.5742 26.168 24.0586C26.168 23.543 25.7344 23.1211 25.2188 23.1211L0.9375 23.1211C0.421875 23.1211 0 23.543 0 24.0586C0 24.5742 0.421875 25.0078 0.9375 25.0078Z" fill="black" fill-opacity="0.85"/>
  <path d="M9.39844 16.1484C9.79688 16.1484 10.0195 15.8789 10.0195 15.5273L10.0195 11.2734C10.0195 10.3828 10.4297 9.51562 11.3438 9.51562C12.1758 9.51562 12.5156 10.1367 12.5156 10.9453L12.5156 15.5273C12.5156 15.8906 12.7617 16.1484 13.1016 16.1484C13.4766 16.1484 13.7227 15.8906 13.7227 15.5273L13.7227 11.1797C13.7227 10.3359 14.1445 9.51562 15.0352 9.51562C15.9023 9.51562 16.2188 10.1719 16.2188 11.0508L16.2188 15.5273C16.2188 15.8906 16.4648 16.1484 16.8281 16.1484C17.2031 16.1484 17.4492 15.8906 17.4492 15.5273L17.4492 10.7461C17.4492 9.44531 16.8164 8.39062 15.3984 8.39062C14.4141 8.39062 13.6758 8.98828 13.4883 9.83203L13.4414 9.83203C13.2422 8.90625 12.6445 8.39062 11.6953 8.39062C10.7812 8.39062 10.207 8.97656 9.99609 9.79688L9.96094 9.79688L9.96094 9.02344C9.96094 8.64844 9.73828 8.41406 9.375 8.41406C9.01172 8.41406 8.78906 8.64844 8.78906 9.02344L8.78906 15.5273C8.78906 15.8789 9 16.1484 9.39844 16.1484ZM9.73828 19.1016C9.9375 19.1016 10.0312 19.0078 10.125 18.7969L15.6562 6.15234C15.6914 6.07031 15.7031 5.98828 15.7031 5.91797C15.7031 5.70703 15.5508 5.55469 15.3281 5.55469C15.1289 5.55469 15.0234 5.69531 14.9414 5.87109L9.41016 18.5156C9.375 18.5977 9.36328 18.668 9.36328 18.75C9.36328 18.9609 9.51562 19.1016 9.73828 19.1016Z" fill="black" fill-opacity="0.85"/>
 </g>
</svg>
