<?xml version="1.0" encoding="UTF-8"?>
<!--Generator: Apple Native CoreSVG 360-->
<!DOCTYPE svg
PUBLIC "-//W3C//DTD SVG 1.1//EN"
       "http://www.w3.org/Graphics/SVG/1.1/DTD/svg11.dtd">
<svg version="1.1" xmlns="http://www.w3.org/2000/svg" xmlns:xlink="http://www.w3.org/1999/xlink" viewBox="0 0 34.0781 25.9805">
 <g>
  <rect height="25.9805" opacity="0" width="34.0781" x="0" y="0"/>
  <path d="M33.7266 13.0547L33.7266 24.082C33.7266 25.1367 33.0586 25.7344 31.9102 25.7344L8.98828 25.7344C7.91162 25.7344 7.281 25.1854 7.26705 24.2109L31.5703 24.2109C31.9688 24.2109 32.1914 24.0117 32.1914 23.6016L32.1914 11.502C33.1624 11.5602 33.7266 12.1142 33.7266 13.0547Z" fill="black" fill-opacity="0.85"/>
  <path d="M30.7266 8.83594L30.7266 21.0938C30.7266 22.1484 30.0586 22.7461 28.9102 22.7461L5.23828 22.7461C4.13672 22.7461 3.50391 22.1836 3.50391 21.1875L3.50391 21.082L28.4297 21.082C28.8281 21.082 29.0508 20.8828 29.0508 20.4727L29.0508 7.27854C30.1078 7.29021 30.7266 7.86255 30.7266 8.83594Z" fill="black" fill-opacity="0.85"/>
  <path d="M3.67969 19.3125L23.6133 19.3125C26.4609 19.3125 27.293 18.5039 27.293 15.6797L27.293 6.21094C27.293 3.79688 26.0391 2.57812 23.6016 2.57812L22.582 2.57812L22.582 1.26562C22.582 0.46875 22.1133 0 21.3164 0L18.8789 0C18.082 0 17.625 0.46875 17.625 1.26562L17.625 2.57812L9.66797 2.57812L9.66797 1.26562C9.66797 0.46875 9.21094 0 8.40234 0L5.96484 0C5.16797 0 4.71094 0.46875 4.71094 1.26562L4.71094 2.57812L3.67969 2.57812C1.23047 2.57812 0 3.79688 0 6.21094L0 15.6797C0 18.1055 1.23047 19.3125 3.67969 19.3125ZM3.70312 17.4258C2.53125 17.4258 1.88672 16.793 1.88672 15.5859L1.88672 6.30469C1.88672 5.09766 2.55469 4.46484 3.70312 4.46484L23.5664 4.46484C24.7266 4.46484 25.3945 5.09766 25.3945 6.30469L25.3945 15.5859C25.3945 17.0039 24.9844 17.4258 23.5781 17.4258Z" fill="black" fill-opacity="0.85"/>
  <path d="M5.75391 11.6953L9.96094 11.6953C10.3828 11.6953 10.7344 11.3438 10.7344 10.9102C10.7344 10.4883 10.3828 10.1484 9.96094 10.1484L5.75391 10.1484C5.32031 10.1484 4.98047 10.4883 4.98047 10.9102C4.98047 11.3438 5.32031 11.6953 5.75391 11.6953ZM19.4297 14.0625C19.8633 14.0625 20.2031 13.7227 20.2031 13.2891L20.2031 11.6953L21.8086 11.6953C22.2305 11.6953 22.582 11.3438 22.582 10.9102C22.582 10.4883 22.2305 10.1484 21.8086 10.1484L20.2031 10.1484L20.2031 8.54297C20.2031 8.10938 19.8633 7.78125 19.4297 7.78125C18.9961 7.78125 18.668 8.10938 18.668 8.54297L18.668 10.1484L17.0508 10.1484C16.6289 10.1484 16.2891 10.4883 16.2891 10.9102C16.2891 11.3438 16.6289 11.6953 17.0508 11.6953L18.668 11.6953L18.668 13.2891C18.668 13.7227 18.9961 14.0625 19.4297 14.0625Z" fill="black" fill-opacity="0.85"/>
 </g>
</svg>
