<?xml version="1.0" encoding="UTF-8"?>
<!--Generator: Apple Native CoreSVG 360-->
<!DOCTYPE svg
PUBLIC "-//W3C//DTD SVG 1.1//EN"
       "http://www.w3.org/Graphics/SVG/1.1/DTD/svg11.dtd">
<svg version="1.1" xmlns="http://www.w3.org/2000/svg" xmlns:xlink="http://www.w3.org/1999/xlink" viewBox="0 0 27.9844 29.3555">
 <g>
  <rect height="29.3555" opacity="0" width="27.9844" x="0" y="0"/>
  <path d="M8.83594 6.375L8.83594 7.67578L11.0529 7.67578L11.1006 9.5625L3.70312 9.5625C2.55469 9.5625 1.88672 10.1953 1.88672 11.4141L1.88672 21C1.88672 22.2188 2.53125 22.8398 3.70312 22.8398L23.918 22.8398C25.0781 22.8398 25.7344 22.2188 25.7344 21L25.7344 11.4141C25.7344 10.1953 25.0781 9.5625 23.918 9.5625L16.6025 9.5625L16.6503 7.67578L18.7734 7.67578L18.7734 6.375C18.7734 5.56641 19.2305 5.10938 20.0273 5.10938L22.3477 5.10938C23.1445 5.10938 23.6016 5.56641 23.6016 6.375L23.6016 7.67578L23.9414 7.67578C26.3906 7.67578 27.6328 8.89453 27.6328 11.3086L27.6328 21.0938C27.6328 23.5078 26.4023 24.7266 23.9531 24.7266L3.67969 24.7266C1.23047 24.7266 0 23.5195 0 21.0938L0 11.3086C0 8.89453 1.23047 7.67578 3.67969 7.67578L3.99609 7.67578L3.99609 6.375C3.99609 5.56641 4.45312 5.10938 5.25 5.10938L7.57031 5.10938C8.37891 5.10938 8.83594 5.56641 8.83594 6.375ZM21.2812 14.2852L21.2812 15.6211L22.6172 15.6211C23.0156 15.6211 23.3438 15.9492 23.3438 16.3359C23.3438 16.7344 23.0156 17.0508 22.6172 17.0508L21.2812 17.0508L21.2812 18.3867C21.2812 18.7969 20.9648 19.1016 20.5664 19.1016C20.168 19.1016 19.8633 18.7969 19.8633 18.3867L19.8633 17.0508L18.5156 17.0508C18.1172 17.0508 17.7891 16.7344 17.7891 16.3359C17.7891 15.9492 18.1055 15.6211 18.5156 15.6211L19.8633 15.6211L19.8633 14.2852C19.8633 13.875 20.168 13.5703 20.5664 13.5703C20.9648 13.5703 21.2812 13.875 21.2812 14.2852ZM9.10547 16.3242C9.10547 16.7227 8.77734 17.0508 8.39062 17.0508L4.6875 17.0508C4.28906 17.0508 3.98438 16.7227 3.98438 16.3242C3.98438 15.9375 4.28906 15.6211 4.6875 15.6211L8.39062 15.6211C8.77734 15.6211 9.10547 15.9375 9.10547 16.3242Z" fill="black" fill-opacity="0.85"/>
  <path d="M13.8398 19.5352C14.7305 19.5352 15.4688 18.8086 15.4688 17.9766C15.4688 17.1094 14.7422 16.4297 13.8398 16.4297C12.9492 16.4297 12.2227 17.1094 12.2227 17.9766C12.2227 18.8086 12.9609 19.5352 13.8398 19.5352ZM13.8398 14.4375C14.4492 14.4375 14.8828 13.9922 14.9062 13.3711L15.1641 2.95312C15.1875 2.16797 14.6602 1.64062 13.8398 1.64062C13.0312 1.64062 12.5039 2.16797 12.5273 2.95312L12.7852 13.3711C12.8086 13.9922 13.2422 14.4375 13.8398 14.4375Z" fill="black" fill-opacity="0.85"/>
 </g>
</svg>
