<?xml version="1.0" encoding="UTF-8"?>
<!--Generator: Apple Native CoreSVG 360-->
<!DOCTYPE svg
PUBLIC "-//W3C//DTD SVG 1.1//EN"
       "http://www.w3.org/Graphics/SVG/1.1/DTD/svg11.dtd">
<svg version="1.1" xmlns="http://www.w3.org/2000/svg" xmlns:xlink="http://www.w3.org/1999/xlink" viewBox="0 0 24.3398 21.7852">
 <g>
  <rect height="21.7852" opacity="0" width="24.3398" x="0" y="0"/>
  <path d="M22.9922 20.3789C23.5547 20.3789 23.9883 19.9453 23.9883 19.4062L23.9883 9.02344C23.9883 8.48438 23.5547 8.03906 22.9922 8.03906C22.4297 8.03906 22.0078 8.48438 22.0078 9.02344L22.0078 19.4062C22.0078 19.9453 22.4297 20.3789 22.9922 20.3789Z" fill="black" fill-opacity="0.85"/>
  <path d="M17.5078 20.3789C18.0586 20.3789 18.4805 19.9336 18.4805 19.3945L18.4805 14.0039C18.4805 13.4531 18.0586 12.9961 17.5078 12.9961C16.9453 12.9961 16.5 13.4531 16.5 14.0039L16.5 19.3945C16.5 19.9336 16.9453 20.3789 17.5078 20.3789Z" fill="black" fill-opacity="0.85"/>
  <path d="M11.9883 20.3789C12.5508 20.3789 12.9844 19.9453 12.9844 19.4062L12.9844 9.02344C12.9844 8.48438 12.5508 8.03906 11.9883 8.03906C11.4258 8.03906 11.0039 8.48438 11.0039 9.02344L11.0039 19.4062C11.0039 19.9453 11.4258 20.3789 11.9883 20.3789Z" fill="black" fill-opacity="0.85"/>
  <path d="M6.50391 20.3789C7.05469 20.3789 7.47656 19.9336 7.47656 19.3945L7.47656 14.0039C7.47656 13.4531 7.05469 12.9961 6.50391 12.9961C5.94141 12.9961 5.49609 13.4531 5.49609 14.0039L5.49609 19.3945C5.49609 19.9336 5.94141 20.3789 6.50391 20.3789Z" fill="black" fill-opacity="0.85"/>
  <path d="M0.984375 20.3789C1.54688 20.3789 1.98047 19.9453 1.98047 19.4062L1.98047 9.02344C1.98047 8.48438 1.54688 8.03906 0.984375 8.03906C0.421875 8.03906 0 8.48438 0 9.02344L0 19.4062C0 19.9453 0.421875 20.3789 0.984375 20.3789Z" fill="black" fill-opacity="0.85"/>
  <path d="M17.5078 7.07812C17.9883 7.07812 18.3633 6.69141 18.3633 6.21094L18.3633 4.39453L20.1797 4.39453C20.6602 4.39453 21.0469 4.01953 21.0469 3.53906C21.0469 3.05859 20.6602 2.67188 20.1797 2.67188L18.3633 2.67188L18.3633 0.855469C18.3633 0.375 17.9883 0 17.5078 0C17.0273 0 16.6406 0.375 16.6406 0.855469L16.6406 2.67188L14.8242 2.67188C14.3438 2.67188 13.9688 3.05859 13.9688 3.53906C13.9688 4.01953 14.3438 4.39453 14.8242 4.39453L16.6406 4.39453L16.6406 6.21094C16.6406 6.69141 17.0273 7.07812 17.5078 7.07812Z" fill="black" fill-opacity="0.85"/>
  <path d="M3.80859 4.39453L8.68359 4.39453C9.16406 4.39453 9.55078 4.01953 9.55078 3.53906C9.55078 3.05859 9.16406 2.67188 8.68359 2.67188L3.80859 2.67188C3.32812 2.67188 2.94141 3.05859 2.94141 3.53906C2.94141 4.01953 3.32812 4.39453 3.80859 4.39453Z" fill="black" fill-opacity="0.85"/>
 </g>
</svg>
