<?xml version="1.0" encoding="UTF-8"?>
<!--Generator: Apple Native CoreSVG 360-->
<!DOCTYPE svg
PUBLIC "-//W3C//DTD SVG 1.1//EN"
       "http://www.w3.org/Graphics/SVG/1.1/DTD/svg11.dtd">
<svg version="1.1" xmlns="http://www.w3.org/2000/svg" xmlns:xlink="http://www.w3.org/1999/xlink" viewBox="0 0 27.9844 20.0977">
 <g>
  <rect height="20.0977" opacity="0" width="27.9844" x="0" y="0"/>
  <path d="M3.02344 19.3359L24.6445 19.3359C26.0508 19.3359 26.9766 18.375 26.9766 16.9219L26.9766 16.4648C25.7812 16.4414 24.7852 15.9727 24.1406 15.2344C23.8828 14.9414 23.5898 14.9531 23.332 15.2344C22.6289 16.0312 21.5742 16.4648 20.4375 16.4648C19.3008 16.4648 18.2461 16.0312 17.543 15.2344C17.2852 14.9531 16.9922 14.9414 16.7344 15.2344C16.0664 15.9961 15 16.4648 13.8164 16.4648C12.6328 16.4648 11.5664 15.9961 10.8984 15.2344C10.6406 14.9414 10.3594 14.9531 10.0898 15.2344C9.38672 16.0312 8.33203 16.4648 7.19531 16.4648C6.05859 16.4648 5.01562 16.0312 4.30078 15.2344C4.04297 14.9531 3.75 14.9414 3.49219 15.2344C2.84766 15.9727 1.86328 16.4414 0.65625 16.4648L0.65625 16.9219C0.65625 18.375 1.58203 19.3359 3.02344 19.3359ZM3.67969 20.0977L23.9531 20.0977C26.4141 20.0977 27.6328 18.8789 27.6328 16.4648L27.6328 6.63281C27.6328 4.23047 26.4141 3.01172 23.9531 3.01172L22.6523 3.01172L22.6523 1.44141C22.6523 0.550781 22.1367 0.0117188 21.2344 0.0117188L18.8906 0.0117188C18 0.0117188 17.4844 0.550781 17.4844 1.44141L17.4844 3.01172L10.1602 3.01172L10.1602 1.44141C10.1602 0.550781 9.64453 0.0117188 8.74219 0.0117188L6.39844 0.0117188C5.49609 0.0117188 4.98047 0.550781 4.98047 1.44141L4.98047 3.01172L3.67969 3.01172C1.23047 3.01172 0 4.21875 0 6.63281L0 16.4648C0 18.8906 1.23047 20.0977 3.67969 20.0977ZM1.88672 16.3711L1.88672 6.73828C1.88672 5.51953 2.53125 4.89844 3.70312 4.89844L23.9297 4.89844C25.0898 4.89844 25.7461 5.51953 25.7461 6.73828L25.7461 16.3711C25.7461 17.5781 25.0898 18.2109 23.9297 18.2109L3.70312 18.2109C2.53125 18.2109 1.88672 17.5781 1.88672 16.3711Z" fill="black" fill-opacity="0.85"/>
  <path d="M5.98828 11.7891L10.875 11.7891C11.3555 11.7891 11.7305 11.4023 11.7305 10.9219C11.7305 10.4414 11.3555 10.0664 10.875 10.0664L5.98828 10.0664C5.50781 10.0664 5.12109 10.4414 5.12109 10.9219C5.12109 11.4023 5.50781 11.7891 5.98828 11.7891ZM19.1836 14.4609C19.6641 14.4609 20.0391 14.0859 20.0391 13.6055L20.0391 11.7891L21.8555 11.7891C22.3359 11.7891 22.7227 11.4023 22.7227 10.9219C22.7227 10.4414 22.3359 10.0664 21.8555 10.0664L20.0391 10.0664L20.0391 8.25C20.0391 7.76953 19.6641 7.38281 19.1836 7.38281C18.7031 7.38281 18.3164 7.76953 18.3164 8.25L18.3164 10.0664L16.5 10.0664C16.0195 10.0664 15.6445 10.4414 15.6445 10.9219C15.6445 11.4023 16.0195 11.7891 16.5 11.7891L18.3164 11.7891L18.3164 13.6055C18.3164 14.0859 18.7031 14.4609 19.1836 14.4609Z" fill="black" fill-opacity="0.85"/>
 </g>
</svg>
