<?xml version="1.0" encoding="UTF-8"?>
<!--Generator: Apple Native CoreSVG 360-->
<!DOCTYPE svg
PUBLIC "-//W3C//DTD SVG 1.1//EN"
       "http://www.w3.org/Graphics/SVG/1.1/DTD/svg11.dtd">
<svg version="1.1" xmlns="http://www.w3.org/2000/svg" xmlns:xlink="http://www.w3.org/1999/xlink" viewBox="0 0 34.0781 36.7383">
 <g>
  <rect height="36.7383" opacity="0" width="34.0781" x="0" y="0"/>
  <path d="M33.7266 18.4336L33.7266 29.4609C33.7266 30.5156 33.0586 31.1133 31.9102 31.1133L8.98828 31.1133C7.91162 31.1133 7.281 30.5643 7.26705 29.5898L31.5703 29.5898C31.9688 29.5898 32.1914 29.3906 32.1914 28.9805L32.1914 16.8809C33.1624 16.9391 33.7266 17.4931 33.7266 18.4336Z" fill="black" fill-opacity="0.85"/>
  <path d="M30.7266 14.2148L30.7266 26.4727C30.7266 27.5273 30.0586 28.125 28.9102 28.125L5.23828 28.125C4.13672 28.125 3.50391 27.5625 3.50391 26.5664L3.50391 26.4609L28.4297 26.4609C28.8281 26.4609 29.0508 26.2617 29.0508 25.8516L29.0508 12.6574C30.1078 12.6691 30.7266 13.2415 30.7266 14.2148Z" fill="black" fill-opacity="0.85"/>
  <path d="M9.66797 6.64453L9.66797 7.95703L10.9605 7.95703L11.0061 9.84375L3.70312 9.84375C2.55469 9.84375 1.88672 10.4766 1.88672 11.6836L1.88672 20.9648C1.88672 22.1719 2.53125 22.8047 3.70312 22.8047L23.5781 22.8047C24.9844 22.8047 25.3945 22.3828 25.3945 20.9648L25.3945 11.6836C25.3945 10.4766 24.7266 9.84375 23.5664 9.84375L16.4978 9.84375L16.5434 7.95703L17.625 7.95703L17.625 6.64453C17.625 5.84766 18.082 5.37891 18.8789 5.37891L21.3164 5.37891C22.1133 5.37891 22.582 5.84766 22.582 6.64453L22.582 7.95703L23.6016 7.95703C26.0391 7.95703 27.293 9.17578 27.293 11.5898L27.293 21.0586C27.293 23.8828 26.4609 24.6914 23.6133 24.6914L3.67969 24.6914C1.23047 24.6914 0 23.4844 0 21.0586L0 11.5898C0 9.17578 1.23047 7.95703 3.67969 7.95703L4.71094 7.95703L4.71094 6.64453C4.71094 5.84766 5.16797 5.37891 5.96484 5.37891L8.40234 5.37891C9.21094 5.37891 9.66797 5.84766 9.66797 6.64453ZM21.2812 14.25L21.2812 15.5859L22.6172 15.5859C23.0156 15.5859 23.3438 15.9023 23.3438 16.2891C23.3438 16.6875 23.0156 17.0156 22.6172 17.0156L21.2812 17.0156L21.2812 18.3516C21.2812 18.7617 20.9648 19.0664 20.5664 19.0664C20.168 19.0664 19.8633 18.7617 19.8633 18.3516L19.8633 17.0156L18.5156 17.0156C18.1172 17.0156 17.7891 16.6875 17.7891 16.2891C17.7891 15.9023 18.1055 15.5859 18.5156 15.5859L19.8633 15.5859L19.8633 14.25C19.8633 13.8398 20.168 13.5234 20.5664 13.5234C20.9648 13.5234 21.2812 13.8398 21.2812 14.25ZM9.10547 16.2891C9.10547 16.6875 8.77734 17.0156 8.39062 17.0156L4.6875 17.0156C4.28906 17.0156 3.98438 16.6875 3.98438 16.2891C3.98438 15.9023 4.28906 15.5859 4.6875 15.5859L8.39062 15.5859C8.77734 15.5859 9.10547 15.9023 9.10547 16.2891Z" fill="black" fill-opacity="0.85"/>
  <path d="M13.7461 14.4023C14.3555 14.4023 14.7891 13.957 14.8125 13.3359L15.0703 2.91797C15.0938 2.13281 14.5664 1.60547 13.7461 1.60547C12.9375 1.60547 12.4102 2.13281 12.4336 2.91797L12.6914 13.3359C12.7148 13.957 13.1484 14.4023 13.7461 14.4023ZM13.7461 19.5C14.6367 19.5 15.375 18.7734 15.375 17.9414C15.375 17.0742 14.6484 16.3828 13.7461 16.3828C12.8555 16.3828 12.1289 17.0742 12.1289 17.9414C12.1289 18.7734 12.8672 19.5 13.7461 19.5Z" fill="black" fill-opacity="0.85"/>
 </g>
</svg>
