<?xml version="1.0" encoding="UTF-8"?>
<!--Generator: Apple Native CoreSVG 360-->
<!DOCTYPE svg
PUBLIC "-//W3C//DTD SVG 1.1//EN"
       "http://www.w3.org/Graphics/SVG/1.1/DTD/svg11.dtd">
<svg version="1.1" xmlns="http://www.w3.org/2000/svg" xmlns:xlink="http://www.w3.org/1999/xlink" viewBox="0 0 45.1466 25.9805">
 <g>
  <rect height="25.9805" opacity="0" width="45.1466" x="0" y="0"/>
  <path d="M44.792 13.0547L44.792 24.082C44.792 25.1367 44.1124 25.7344 42.9756 25.7344L20.0538 25.7344C18.9655 25.7344 18.3462 25.1854 18.3325 24.2109L42.6358 24.2109C43.0342 24.2109 43.2569 24.0117 43.2569 23.6016L43.2569 11.502C44.2279 11.5602 44.792 12.1142 44.792 13.0547Z" fill="black" fill-opacity="0.85"/>
  <path d="M41.792 8.83594L41.792 21.0938C41.792 22.1484 41.1124 22.7461 39.9756 22.7461L16.3038 22.7461C15.2022 22.7461 14.5694 22.1836 14.5694 21.1875L14.5694 21.082L39.4952 21.082C39.8936 21.082 40.1163 20.8828 40.1163 20.4727L40.1163 7.27854C41.1733 7.29021 41.792 7.86255 41.792 8.83594Z" fill="black" fill-opacity="0.85"/>
  <path d="M16.8077 11.6953L21.0264 11.6953C21.4483 11.6953 21.7999 11.3438 21.7999 10.9102C21.7999 10.4883 21.4483 10.1484 21.0264 10.1484L16.8077 10.1484C16.3741 10.1484 16.046 10.4883 16.046 10.9102C16.046 11.3438 16.3741 11.6953 16.8077 11.6953ZM30.4952 14.0625C30.9288 14.0625 31.2686 13.7227 31.2686 13.2891L31.2686 11.6953L32.8741 11.6953C33.296 11.6953 33.6358 11.3438 33.6358 10.9102C33.6358 10.4883 33.296 10.1484 32.8741 10.1484L31.2686 10.1484L31.2686 8.54297C31.2686 8.10938 30.9288 7.78125 30.4952 7.78125C30.0616 7.78125 29.7335 8.10938 29.7335 8.54297L29.7335 10.1484L28.1163 10.1484C27.6944 10.1484 27.3428 10.4883 27.3428 10.9102C27.3428 11.3438 27.6944 11.6953 28.1163 11.6953L29.7335 11.6953L29.7335 13.2891C29.7335 13.7227 30.0616 14.0625 30.4952 14.0625ZM14.7452 19.3125L34.6788 19.3125C37.5264 19.3125 38.3467 18.5039 38.3467 15.6797L38.3467 6.21094C38.3467 3.79688 37.1045 2.57812 34.667 2.57812L33.6358 2.57812L33.6358 1.26562C33.6358 0.46875 33.1788 0 32.3819 0L29.9444 0C29.1475 0 28.6905 0.46875 28.6905 1.26562L28.6905 2.57812L20.7335 2.57812L20.7335 1.26562C20.7335 0.46875 20.2647 0 19.4678 0L17.0303 0C16.2335 0 15.7764 0.46875 15.7764 1.26562L15.7764 2.57812L14.7452 2.57812C12.296 2.57812 11.0655 3.79688 11.0655 6.21094L11.0655 15.6797C11.0655 18.1055 12.296 19.3125 14.7452 19.3125ZM14.7686 17.4258C13.5967 17.4258 12.9522 16.793 12.9522 15.5859L12.9522 6.30469C12.9522 5.09766 13.6085 4.46484 14.7686 4.46484L34.6319 4.46484C35.792 4.46484 36.4483 5.09766 36.4483 6.30469L36.4483 15.5859C36.4483 17.0039 36.0499 17.4258 34.6436 17.4258Z" fill="black" fill-opacity="0.85"/>
  <path d="M0.34283 13.6055C-0.102483 13.8633-0.12592 14.4844 0.34283 14.7539L6.36627 18.3047C6.85845 18.5977 7.43267 18.3633 7.43267 17.8594L7.43267 10.4766C7.43267 9.98438 6.8233 9.76172 6.36627 10.0312Z" fill="black" fill-opacity="0.85"/>
 </g>
</svg>
