<?xml version="1.0" encoding="UTF-8"?>
<!--Generator: Apple Native CoreSVG 360-->
<!DOCTYPE svg
PUBLIC "-//W3C//DTD SVG 1.1//EN"
       "http://www.w3.org/Graphics/SVG/1.1/DTD/svg11.dtd">
<svg version="1.1" xmlns="http://www.w3.org/2000/svg" xmlns:xlink="http://www.w3.org/1999/xlink" viewBox="0 0 33.0234 18.1523">
 <g>
  <rect height="18.1523" opacity="0" width="33.0234" x="0" y="0"/>
  <path d="M24.3398 0.609375C29.6602 1.26562 32.6719 4.52344 32.6719 9.75C32.6719 14.6367 29.7422 17.2734 24.7734 17.2734L6.97266 17.2734C5.16797 17.2734 3.63281 17.4492 2.19141 17.8125C0.960938 18.1172 0 17.6133 0 16.3594L0 10.7461C0 9.94922 0.574219 9.36328 1.38281 9.36328L4.40625 9.36328C5.39062 9.36328 5.87109 8.94141 5.76562 8.02734L5.41406 4.59375C5.13281 1.73438 6.76172 0 9.94922 0C13.6289 0.0117188 20.4375 0.152344 24.3398 0.609375ZM7.27734 4.38281L8.21484 12.7031C8.4375 14.6719 9.28125 15.3867 11.4258 15.3867L24.8086 15.3867C28.5352 15.3867 30.7852 13.4062 30.7852 9.75C30.7852 5.61328 28.4297 3 24.1758 2.50781C20.332 2.07422 13.6289 1.88672 9.94922 1.88672C7.91016 1.88672 7.10156 2.70703 7.27734 4.38281Z" fill="black" fill-opacity="0.85"/>
 </g>
</svg>
