<?xml version="1.0" encoding="UTF-8"?>
<!--Generator: Apple Native CoreSVG 360-->
<!DOCTYPE svg
PUBLIC "-//W3C//DTD SVG 1.1//EN"
       "http://www.w3.org/Graphics/SVG/1.1/DTD/svg11.dtd">
<svg version="1.1" xmlns="http://www.w3.org/2000/svg" xmlns:xlink="http://www.w3.org/1999/xlink" viewBox="0 0 33.0234 24.9518">
 <g>
  <rect height="24.9518" opacity="0" width="33.0234" x="0" y="0"/>
  <path d="M27.2461 7.9935L26.8945 11.4271C26.8008 12.3412 27.2812 12.763 28.2539 12.763L31.2891 12.763C32.0977 12.763 32.6719 13.349 32.6719 14.1458L32.6719 19.7591C32.6719 21.013 31.6992 21.5169 30.4688 21.2123C29.0391 20.849 27.5039 20.6732 25.6992 20.6732L19.9063 20.6732C20.1963 20.0774 20.585 19.4963 20.8439 18.7865L21.2344 18.7865C23.3906 18.7865 24.2344 18.0716 24.457 16.1029L25.3828 7.78256C25.5703 6.10678 24.75 5.28647 22.7227 5.28647C19.043 5.28647 12.3398 5.47397 8.49609 5.90756C4.24219 6.39975 1.88672 9.01303 1.88672 13.1498C1.88672 16.8412 4.10156 18.7865 7.86328 18.7865L8.29923 18.7865C8.00942 19.4081 7.6111 19.9663 7.34081 20.6547C2.66744 20.4726 0 17.8955 0 13.1498C0 7.92319 3 4.66538 8.33203 4.00913C12.2227 3.55209 19.0312 3.41147 22.7227 3.39975C25.9102 3.39975 27.5391 5.13413 27.2461 7.9935ZM18.5109 20.6732L14.3076 20.6732C14.5997 20.0774 14.9912 19.4963 15.252 18.7865L19.4699 18.7865C19.1795 19.4137 18.7795 19.9763 18.5109 20.6732ZM12.9306 20.6732L8.72064 20.6732C9.01478 20.0774 9.40917 19.4963 9.6718 18.7865L13.8827 18.7865C13.5944 19.4137 13.1973 19.9763 12.9306 20.6732Z" fill="black" fill-opacity="0.85"/>
  <path d="M8.97656 23.9076C8.50781 23.2748 8.32031 22.888 8.32031 22.1615C8.32031 20.4505 9.96094 19.4779 9.96094 17.2162C9.96094 15.1771 8.4375 14.6732 8.4375 12.2474L8.4375 11.8138C8.4375 11.4623 8.14453 11.181 7.79297 11.181C7.42969 11.181 7.14844 11.4623 7.14844 11.8138L7.14844 12.2474C7.14844 15.2943 8.67188 15.6458 8.67188 17.2162C8.67188 19.1966 7.03125 19.9818 7.03125 22.2552C7.03125 23.1927 7.32422 23.8958 7.93359 24.6693C8.47266 25.3607 9.55078 24.6576 8.97656 23.9076ZM5.68359 11.6263C5.47266 11.9427 5.66016 12.388 6.08203 12.388L9.48047 12.388C9.91406 12.388 10.1133 11.9544 9.87891 11.6263L8.23828 9.17709C8.10938 8.98959 7.98047 8.91928 7.78125 8.91928C7.59375 8.91928 7.45312 9.00131 7.32422 9.17709ZM14.5664 23.9076C14.0859 23.2748 13.9102 22.888 13.9102 22.1615C13.9102 20.4505 15.5391 19.4779 15.5391 17.2162C15.5391 15.1771 14.0273 14.6732 14.0273 12.2474L14.0273 11.8138C14.0273 11.4623 13.7344 11.181 13.3828 11.181C13.0195 11.181 12.7383 11.4623 12.7383 11.8138L12.7383 12.2474C12.7383 15.2943 14.25 15.6458 14.25 17.2162C14.25 19.1966 12.6328 19.9818 12.6328 22.2552C12.6328 23.1927 12.9258 23.8958 13.5352 24.6693C14.0742 25.3607 15.1289 24.6576 14.5664 23.9076ZM11.2617 11.6263C11.0508 11.9427 11.25 12.388 11.6836 12.388L15.0586 12.388C15.5039 12.388 15.7031 11.9427 15.4805 11.6263L13.8281 9.17709C13.6992 9.00131 13.5703 8.91928 13.3711 8.91928C13.1836 8.91928 13.043 9.00131 12.9141 9.17709ZM20.168 23.9076C19.6875 23.2748 19.5117 22.888 19.5117 22.1615C19.5117 20.4505 21.1289 19.4779 21.1289 17.2162C21.1289 15.1771 19.6055 14.6732 19.6055 12.2474L19.6055 11.8138C19.6055 11.4623 19.3125 11.181 18.9609 11.181C18.5977 11.181 18.3164 11.4623 18.3164 11.8138L18.3164 12.2474C18.3164 15.2943 19.8398 15.6458 19.8398 17.2162C19.8398 19.1966 18.2109 19.9818 18.2109 22.2552C18.2109 23.1927 18.5039 23.8958 19.1133 24.6693C19.6523 25.3607 20.7188 24.6576 20.168 23.9076ZM16.8633 11.6263C16.6523 11.9427 16.8398 12.388 17.2617 12.388L20.6602 12.388C21.1055 12.388 21.293 11.9427 21.0703 11.6263L19.418 9.17709C19.3008 9.00131 19.1484 8.91928 18.9609 8.91928C18.7617 8.91928 18.6445 8.98959 18.5156 9.17709Z" fill="black" fill-opacity="0.85"/>
 </g>
</svg>
