<?xml version="1.0" encoding="UTF-8"?>
<!--Generator: Apple Native CoreSVG 360-->
<!DOCTYPE svg
PUBLIC "-//W3C//DTD SVG 1.1//EN"
       "http://www.w3.org/Graphics/SVG/1.1/DTD/svg11.dtd">
<svg version="1.1" xmlns="http://www.w3.org/2000/svg" xmlns:xlink="http://www.w3.org/1999/xlink" viewBox="0 0 40.2656 18.1523">
 <g>
  <rect height="18.1523" opacity="0" width="40.2656" x="0" y="0"/>
  <path d="M32.0391 4.59375L31.6875 8.02734C31.5938 8.94141 32.0742 9.36328 33.0586 9.36328L36.082 9.36328C36.8906 9.36328 37.4648 9.94922 37.4648 10.7461L37.4648 16.3594C37.4648 17.6133 36.4922 18.1172 35.2734 17.8125C33.832 17.4492 32.2969 17.2734 30.4922 17.2734L12.6914 17.2734C8.45995 17.2734 5.73689 15.4215 5.0051 11.8594L6.97901 11.8594C7.69061 14.1802 9.69372 15.3867 12.6562 15.3867L26.0273 15.3867C28.1836 15.3867 29.0273 14.6719 29.25 12.7031L30.1758 4.38281C30.3633 2.70703 29.543 1.88672 27.5156 1.88672C23.8359 1.88672 17.1328 2.07422 13.2891 2.50781C10.1985 2.8654 8.10997 4.3426 7.20494 6.71484L5.19566 6.71484C6.16356 3.26387 8.91861 1.12708 13.125 0.609375C17.0273 0.152344 23.8242 0.0117188 27.5156 0C30.7031 0 32.332 1.73438 32.0391 4.59375Z" fill="black" fill-opacity="0.85"/>
  <path d="M11.0742 7.03125L11.0742 11.6133C11.0742 12.4102 11.6367 12.6914 12.293 12.2344L15.5625 10.0078C16.1016 9.64453 16.1016 9 15.5625 8.63672L12.3164 6.41016C11.6367 5.92969 11.0742 6.23438 11.0742 7.03125ZM12.293 10.2656C12.8203 10.2656 13.2656 9.82031 13.2656 9.29297C13.2656 8.75391 12.8203 8.30859 12.293 8.30859L4.85156 8.30859C3.67969 8.30859 2.98828 7.67578 2.98828 6.59766L2.98828 5.05078C2.98828 4.5 2.54297 4.04297 1.99219 4.04297C1.44141 4.04297 0.996094 4.5 0.996094 5.05078L0.996094 6.59766C0.996094 8.89453 2.42578 10.2656 4.85156 10.2656Z" fill="black" fill-opacity="0.85"/>
 </g>
</svg>
