<?xml version="1.0" encoding="UTF-8"?>
<!--Generator: Apple Native CoreSVG 360-->
<!DOCTYPE svg
PUBLIC "-//W3C//DTD SVG 1.1//EN"
       "http://www.w3.org/Graphics/SVG/1.1/DTD/svg11.dtd">
<svg version="1.1" xmlns="http://www.w3.org/2000/svg" xmlns:xlink="http://www.w3.org/1999/xlink" viewBox="0 0 33.0234 24.9518">
 <g>
  <rect height="24.9518" opacity="0" width="33.0234" x="0" y="0"/>
  <path d="M24.3398 4.00913C29.6602 4.66538 32.6719 7.92319 32.6719 13.1498C32.6719 17.788 30.0326 20.3992 25.5118 20.6481C25.8241 20.0166 26.2451 19.3994 26.4997 18.6256C29.2067 18.0989 30.7852 16.2122 30.7852 13.1498C30.7852 9.01303 28.4297 6.39975 24.1758 5.90756C20.332 5.47397 13.6289 5.28647 9.94922 5.28647C7.91016 5.28647 7.10156 6.10678 7.27734 7.78256L8.21484 16.1029C8.4375 18.0716 9.28125 18.7865 11.4258 18.7865L13.9008 18.7865C13.6084 19.4137 13.2055 19.9763 12.935 20.6732L6.97266 20.6732C5.16797 20.6732 3.63281 20.849 2.19141 21.2123C0.960938 21.5169 0 21.013 0 19.7591L0 14.1458C0 13.349 0.574219 12.763 1.38281 12.763L4.40625 12.763C5.39062 12.763 5.87109 12.3412 5.76562 11.4271L5.41406 7.9935C5.13281 5.13413 6.76172 3.39975 9.94922 3.39975C13.6289 3.41147 20.4375 3.55209 24.3398 4.00913ZM18.5322 20.6732L14.3222 20.6732C14.6163 20.0774 15.0107 19.4963 15.2734 18.7865L19.4842 18.7865C19.196 19.4137 18.7989 19.9763 18.5322 20.6732ZM24.1125 20.6732L19.9092 20.6732C20.2012 20.0774 20.5928 19.4963 20.8536 18.7865L24.8086 18.7865C24.8998 18.7865 24.9901 18.7853 25.0753 18.7774C24.7849 19.4083 24.3824 19.973 24.1125 20.6732Z" fill="black" fill-opacity="0.85"/>
  <path d="M14.5781 23.9076C14.1094 23.2748 13.9219 22.888 13.9219 22.1615C13.9219 20.4505 15.5625 19.4779 15.5625 17.2162C15.5625 15.1771 14.0391 14.6732 14.0391 12.2474L14.0391 11.8138C14.0391 11.4623 13.7461 11.181 13.3945 11.181C13.0312 11.181 12.75 11.4623 12.75 11.8138L12.75 12.2474C12.75 15.2943 14.2734 15.6458 14.2734 17.2162C14.2734 19.1966 12.6328 19.9818 12.6328 22.2552C12.6328 23.1927 12.9258 23.8958 13.5352 24.6693C14.0742 25.3607 15.1523 24.6576 14.5781 23.9076ZM11.2852 11.6263C11.0742 11.9427 11.2617 12.388 11.6836 12.388L15.082 12.388C15.5039 12.388 15.7031 11.9544 15.4805 11.6263L13.8398 9.17709C13.7109 8.98959 13.582 8.91928 13.3828 8.91928C13.1953 8.91928 13.0547 9.00131 12.9258 9.17709ZM20.168 23.9076C19.6875 23.2748 19.5117 22.888 19.5117 22.1615C19.5117 20.4505 21.1406 19.4779 21.1406 17.2162C21.1406 15.1771 19.6289 14.6732 19.6289 12.2474L19.6289 11.8138C19.6289 11.4623 19.3359 11.181 18.9844 11.181C18.6211 11.181 18.3398 11.4623 18.3398 11.8138L18.3398 12.2474C18.3398 15.2943 19.8516 15.6458 19.8516 17.2162C19.8516 19.1966 18.2344 19.9818 18.2344 22.2552C18.2344 23.1927 18.5273 23.8958 19.1367 24.6693C19.6758 25.3607 20.7305 24.6576 20.168 23.9076ZM16.8633 11.6263C16.6523 11.9427 16.8516 12.388 17.2852 12.388L20.6602 12.388C21.0938 12.388 21.293 11.9427 21.082 11.6263L19.4297 9.17709C19.3008 9.00131 19.1602 8.91928 18.9727 8.91928C18.7852 8.91928 18.6445 9.00131 18.5156 9.17709ZM25.7578 23.9076C25.2891 23.2748 25.1016 22.888 25.1016 22.1615C25.1016 20.4505 26.7305 19.4779 26.7305 17.2162C26.7305 15.1771 25.207 14.6732 25.207 12.2474L25.207 11.8138C25.207 11.4623 24.9141 11.181 24.5625 11.181C24.1992 11.181 23.918 11.4623 23.918 11.8138L23.918 12.2474C23.918 15.2943 25.4414 15.6458 25.4414 17.2162C25.4414 19.1966 23.8125 19.9818 23.8125 22.2552C23.8125 23.1927 24.1055 23.8958 24.7148 24.6693C25.2539 25.3607 26.3203 24.6576 25.7578 23.9076ZM22.4648 11.6263C22.2539 11.9427 22.4414 12.388 22.8633 12.388L26.2617 12.388C26.6953 12.388 26.8945 11.9427 26.6719 11.6263L25.0195 9.17709C24.8906 9.00131 24.75 8.91928 24.5625 8.91928C24.3633 8.91928 24.2344 8.98959 24.1055 9.17709Z" fill="black" fill-opacity="0.85"/>
 </g>
</svg>
