<?xml version="1.0" encoding="UTF-8"?>
<!--Generator: Apple Native CoreSVG 360-->
<!DOCTYPE svg
PUBLIC "-//W3C//DTD SVG 1.1//EN"
       "http://www.w3.org/Graphics/SVG/1.1/DTD/svg11.dtd">
<svg version="1.1" xmlns="http://www.w3.org/2000/svg" xmlns:xlink="http://www.w3.org/1999/xlink" viewBox="0 0 39.5625 18.1523">
 <g>
  <rect height="18.1523" opacity="0" width="39.5625" x="0" y="0"/>
  <path d="M26.4375 0.609375C30.6439 1.12708 33.3989 3.26387 34.3668 6.71484L32.3576 6.71484C31.4525 4.3426 29.364 2.8654 26.2734 2.50781C22.4297 2.07422 15.7266 1.88672 12.0469 1.88672C10.0195 1.88672 9.19922 2.70703 9.38672 4.38281L10.3125 12.7031C10.5352 14.6719 11.3789 15.3867 13.5352 15.3867L26.9062 15.3867C29.8352 15.3867 31.852 14.1633 32.5752 11.8594L34.5519 11.8594C33.8085 15.3934 31.0667 17.2734 26.8711 17.2734L9.07031 17.2734C7.26562 17.2734 5.73047 17.4492 4.28906 17.8125C3.07031 18.1172 2.09766 17.6133 2.09766 16.3594L2.09766 10.7461C2.09766 9.94922 2.67188 9.36328 3.48047 9.36328L6.50391 9.36328C7.48828 9.36328 7.96875 8.94141 7.875 8.02734L7.52344 4.59375C7.23047 1.73438 8.85938 0 12.0469 0C15.7383 0.0117188 22.5352 0.152344 26.4375 0.609375Z" fill="black" fill-opacity="0.85"/>
  <path d="M28.4883 7.03125C28.4883 6.23438 27.9258 5.92969 27.2461 6.41016L24 8.63672C23.4609 9 23.4609 9.64453 24 10.0078L27.2695 12.2344C27.9258 12.6914 28.4883 12.4102 28.4883 11.6133ZM27.2695 10.2656L34.7109 10.2656C37.1367 10.2656 38.5664 8.89453 38.5664 6.59766L38.5664 5.05078C38.5664 4.5 38.1211 4.04297 37.5703 4.04297C37.0195 4.04297 36.5742 4.5 36.5742 5.05078L36.5742 6.59766C36.5742 7.67578 35.8828 8.30859 34.7109 8.30859L27.2695 8.30859C26.7422 8.30859 26.2969 8.75391 26.2969 9.29297C26.2969 9.82031 26.7422 10.2656 27.2695 10.2656Z" fill="black" fill-opacity="0.85"/>
 </g>
</svg>
