<?xml version="1.0" encoding="UTF-8"?>
<!--Generator: Apple Native CoreSVG 360-->
<!DOCTYPE svg
PUBLIC "-//W3C//DTD SVG 1.1//EN"
       "http://www.w3.org/Graphics/SVG/1.1/DTD/svg11.dtd">
<svg version="1.1" xmlns="http://www.w3.org/2000/svg" xmlns:xlink="http://www.w3.org/1999/xlink" viewBox="0 0 23.8477 23.6818">
 <g>
  <rect height="23.6818" opacity="0" width="23.8477" x="0" y="0"/>
  <path d="M12.2812 23.6593C17.3906 23.6593 21.5273 20.5773 23.3672 16.6515C23.7656 15.8312 23.2383 15.2804 22.4531 15.5265C21.5859 15.8194 20.1562 16.1007 18.832 16.1007C11.8008 16.1007 7.76953 12.0694 7.76953 5.02647C7.76953 3.70225 8.0625 2.21397 8.48438 1.14757C8.82422 0.280378 8.22656-0.246966 7.39453 0.116315C3.1875 1.94444 0 6.24522 0 11.378C0 18.1632 5.50781 23.6593 12.2812 23.6593ZM12.2812 21.8429C6.51562 21.8429 1.81641 17.1554 1.81641 11.378C1.81641 7.76866 3.71484 4.7335 6.1875 2.94053C6.03516 3.63194 5.95312 4.29991 5.95312 5.02647C5.95312 13.0773 10.793 17.9171 18.832 17.9171C19.4531 17.9171 20.0391 17.8351 20.5312 17.7413C18.7148 20.1554 15.75 21.8429 12.2812 21.8429Z" fill="black" fill-opacity="0.85"/>
 </g>
</svg>
