<?xml version="1.0" encoding="UTF-8"?>
<!--Generator: Apple Native CoreSVG 360-->
<!DOCTYPE svg
PUBLIC "-//W3C//DTD SVG 1.1//EN"
       "http://www.w3.org/Graphics/SVG/1.1/DTD/svg11.dtd">
<svg version="1.1" xmlns="http://www.w3.org/2000/svg" xmlns:xlink="http://www.w3.org/1999/xlink" viewBox="0 0 32.8828 27.2461">
 <g>
  <rect height="27.2461" opacity="0" width="32.8828" x="0" y="0"/>
  <path d="M13.8281 2.29688C13.5117 3.07031 13.2891 4.18359 13.2891 5.16797C13.2891 10.3711 16.2656 13.3594 21.4922 13.3594C22.4766 13.3594 23.5312 13.1602 24.1641 12.9375C24.75 12.7617 25.1367 13.1602 24.832 13.7695C24.3133 14.8928 23.5392 15.9205 22.5653 16.7578L19.0847 16.7578C20.0791 16.3947 20.9565 15.822 21.668 15.1172C21.5742 15.1172 21.4219 15.1289 21.2109 15.1289C15.3164 15.1289 11.5312 11.3438 11.5312 5.16797C11.5312 4.94531 11.5195 4.80469 11.5664 4.65234C10.2891 5.90625 9.30469 7.71094 9.30469 9.87891C9.30469 13.0477 11.3394 15.7531 14.1716 16.7578L10.7049 16.7578C8.7631 15.0975 7.53516 12.6311 7.53516 9.87891C7.53516 6.08203 9.90234 2.88281 13.0078 1.53516C13.6289 1.26562 14.0859 1.64062 13.8281 2.29688Z" fill="black" fill-opacity="0.85"/>
  <path d="M3.48047 22.7461L27.2812 22.7461C27.7031 22.7461 28.0195 22.418 28.0195 21.9961C28.0195 21.5742 27.7031 21.2578 27.2812 21.2578L3.48047 21.2578C3.07031 21.2578 2.74219 21.5742 2.74219 21.9961C2.74219 22.418 3.07031 22.7461 3.48047 22.7461ZM5.25 27.2461L29.0508 27.2461C29.4609 27.2461 29.7891 26.9297 29.7891 26.5078C29.7891 26.0742 29.4609 25.7578 29.0508 25.7578L5.25 25.7578C4.83984 25.7578 4.51172 26.0742 4.51172 26.5078C4.51172 26.9297 4.83984 27.2461 5.25 27.2461ZM5.25 18.2344L29.0508 18.2344C29.4609 18.2344 29.7891 17.918 29.7891 17.4961C29.7891 17.0742 29.4609 16.7578 29.0508 16.7578L5.25 16.7578C4.83984 16.7578 4.51172 17.0742 4.51172 17.4961C4.51172 17.918 4.83984 18.2344 5.25 18.2344Z" fill="black" fill-opacity="0.85"/>
 </g>
</svg>
