<?xml version="1.0" encoding="UTF-8"?>
<!--Generator: Apple Native CoreSVG 360-->
<!DOCTYPE svg
PUBLIC "-//W3C//DTD SVG 1.1//EN"
       "http://www.w3.org/Graphics/SVG/1.1/DTD/svg11.dtd">
<svg version="1.1" xmlns="http://www.w3.org/2000/svg" xmlns:xlink="http://www.w3.org/1999/xlink" viewBox="0 0 24.2578 23.918">
 <g>
  <rect height="23.918" opacity="0" width="24.2578" x="0" y="0"/>
  <path d="M11.9531 23.9062C18.5508 23.9062 23.9062 18.5391 23.9062 11.9531C23.9062 5.35547 18.5508 0 11.9531 0C5.36719 0 0 5.35547 0 11.9531C0 18.5391 5.36719 23.9062 11.9531 23.9062Z" fill="black" fill-opacity="0.2125"/>
  <path d="M11.9531 21.9727C6.44531 21.9727 1.99219 17.5195 1.99219 12.0117C1.99219 6.50391 6.44531 2.05078 11.9531 2.05078ZM11.9531 23.9062C18.5508 23.9062 23.9062 18.5391 23.9062 11.9531C23.9062 5.35547 18.5508 0 11.9531 0C5.36719 0 0 5.35547 0 11.9531C0 18.5391 5.36719 23.9062 11.9531 23.9062Z" fill="black" fill-opacity="0.85"/>
 </g>
</svg>
