<?xml version="1.0" encoding="UTF-8"?>
<!--Generator: Apple Native CoreSVG 360-->
<!DOCTYPE svg
PUBLIC "-//W3C//DTD SVG 1.1//EN"
       "http://www.w3.org/Graphics/SVG/1.1/DTD/svg11.dtd">
<svg version="1.1" xmlns="http://www.w3.org/2000/svg" xmlns:xlink="http://www.w3.org/1999/xlink" viewBox="0 0 30.752 28.6523">
 <g>
  <rect height="28.6523" opacity="0" width="30.752" x="0" y="0"/>
  <path d="M0.856464 28.6523L2.23928 28.6523C2.87209 28.6523 3.18849 28.3477 3.36428 27.8906C5.29787 23.1094 7.24318 18.3047 9.18849 13.5234C9.32912 13.1602 9.16506 12.8672 8.80178 12.8672L8.11037 12.8672C7.74709 12.8672 7.51271 13.043 7.36037 13.3594C4.93459 18.0586 2.54396 22.7695 0.118182 27.4805C-0.163068 28.0195 0.0478698 28.6523 0.856464 28.6523ZM28.1612 28.6523L29.5322 28.6523C30.3526 28.6523 30.5635 28.0195 30.2705 27.4805C27.8682 22.7695 25.4541 18.0586 23.0518 13.3594C22.8877 13.043 22.6533 12.8672 22.2901 12.8672L21.5987 12.8672C21.2354 12.8672 21.0713 13.1602 21.2119 13.5234C23.1455 18.3047 25.1026 23.1094 27.0362 27.8906C27.2119 28.3477 27.5283 28.6523 28.1612 28.6523ZM14.9541 15.7383L15.4229 15.7383C15.8565 15.7383 16.1846 15.4219 16.1846 14.9766C16.1846 14.5312 16.1846 14.0742 16.1846 13.6289C16.1846 13.1836 15.8565 12.8672 15.4229 12.8672L14.9541 12.8672C14.5205 12.8672 14.1924 13.1836 14.1924 13.6289C14.1924 14.0742 14.1924 14.5312 14.1924 14.9766C14.1924 15.4219 14.5205 15.7383 14.9541 15.7383ZM14.9541 21.7617L15.4229 21.7617C15.8565 21.7617 16.1846 21.4336 16.1846 21C16.1846 20.25 16.1846 19.5 16.1846 18.7617C16.1846 18.3164 15.8565 18 15.4229 18L14.9541 18C14.5205 18 14.1924 18.3164 14.1924 18.7617C14.1924 19.5 14.1924 20.25 14.1924 21C14.1924 21.4336 14.5205 21.7617 14.9541 21.7617ZM14.9541 28.6523L15.4229 28.6523C15.8565 28.6523 16.1846 28.3242 16.1846 27.8906C16.1846 26.8711 16.1846 25.875 16.1846 24.8555C16.1846 24.4219 15.8565 24.0938 15.4229 24.0938L14.9541 24.0938C14.5205 24.0938 14.1924 24.4219 14.1924 24.8555C14.1924 25.875 14.1924 26.8711 14.1924 27.8906C14.1924 28.3242 14.5205 28.6523 14.9541 28.6523Z" fill="black" fill-opacity="0.85"/>
  <path d="M19.6065 9.50391C21.669 9.50391 23.4268 8.25 24.0479 6.70312C24.1416 6.48047 24.1065 6.1875 23.8369 6.1875C23.7197 6.15234 23.6377 6.16406 23.4737 6.21094C23.1338 6.30469 22.6065 6.42188 22.0557 6.42188C19.501 6.42188 17.8135 4.80469 17.8135 2.20312C17.8135 1.67578 17.9776 0.902344 18.1299 0.503906C18.2237 0.269531 18.1651 0.0117188 17.8487 0.0117188C17.7783 0.0117188 17.6729 0.0351562 17.544 0.09375C15.8213 0.808594 14.6494 2.70703 14.6494 4.67578C14.6494 7.51172 16.8174 9.50391 19.6065 9.50391Z" fill="black" fill-opacity="0.85"/>
 </g>
</svg>
