<?xml version="1.0" encoding="UTF-8"?>
<!--Generator: Apple Native CoreSVG 360-->
<!DOCTYPE svg
PUBLIC "-//W3C//DTD SVG 1.1//EN"
       "http://www.w3.org/Graphics/SVG/1.1/DTD/svg11.dtd">
<svg version="1.1" xmlns="http://www.w3.org/2000/svg" xmlns:xlink="http://www.w3.org/1999/xlink" viewBox="0 0 24.2578 23.918">
 <g>
  <rect height="23.918" opacity="0" width="24.2578" x="0" y="0"/>
  <path d="M11.9531 23.9062C18.5508 23.9062 23.9062 18.5391 23.9062 11.9531C23.9062 5.35547 18.5508 0 11.9531 0C5.36719 0 0 5.35547 0 11.9531C0 18.5391 5.36719 23.9062 11.9531 23.9062Z" fill="black" fill-opacity="0.2125"/>
  <path d="M21.9141 11.9531C21.9258 17.4961 17.4961 21.9141 11.9531 21.9141C11.5898 21.9141 11.2266 21.8906 10.8633 21.8438C14.1445 19.8398 15.9844 16.3594 15.9844 11.9531C15.9844 7.53516 14.1328 4.04297 10.8281 2.0625C11.2031 2.01562 11.5664 1.99219 11.9414 1.99219C17.4844 1.99219 21.9023 6.41016 21.9141 11.9531ZM11.9531 23.9062C18.5508 23.9062 23.9062 18.5391 23.9062 11.9531C23.9062 5.35547 18.5508 0 11.9531 0C5.36719 0 0 5.35547 0 11.9531C0 18.5391 5.36719 23.9062 11.9531 23.9062Z" fill="black" fill-opacity="0.85"/>
 </g>
</svg>
