<?xml version="1.0" encoding="UTF-8"?>
<!--Generator: Apple Native CoreSVG 360-->
<!DOCTYPE svg
PUBLIC "-//W3C//DTD SVG 1.1//EN"
       "http://www.w3.org/Graphics/SVG/1.1/DTD/svg11.dtd">
<svg version="1.1" xmlns="http://www.w3.org/2000/svg" xmlns:xlink="http://www.w3.org/1999/xlink" viewBox="0 0 24.2578 23.918">
 <g>
  <rect height="23.918" opacity="0" width="24.2578" x="0" y="0"/>
  <path d="M11.9531 23.9062C18.5508 23.9062 23.9062 18.5391 23.9062 11.9531C23.9062 5.35547 18.5508 0 11.9531 0C5.36719 0 0 5.35547 0 11.9531C0 18.5391 5.36719 23.9062 11.9531 23.9062Z" fill="black" fill-opacity="0.2125"/>
  <path d="M1.99219 11.9531C2.00391 6.41016 6.42188 1.99219 11.9648 1.99219C12.3398 1.99219 12.7148 2.01562 13.0781 2.0625C9.77344 4.04297 7.92188 7.53516 7.92188 11.9531C7.92188 16.3594 9.76172 19.8398 13.043 21.8438C12.6797 21.8906 12.3164 21.9141 11.9531 21.9141C6.41016 21.9141 1.98047 17.4961 1.99219 11.9531ZM11.9531 23.9062C18.5508 23.9062 23.9062 18.5391 23.9062 11.9531C23.9062 5.35547 18.5508 0 11.9531 0C5.36719 0 0 5.35547 0 11.9531C0 18.5391 5.36719 23.9062 11.9531 23.9062Z" fill="black" fill-opacity="0.85"/>
 </g>
</svg>
