<?xml version="1.0" encoding="UTF-8"?>
<!--Generator: Apple Native CoreSVG 360-->
<!DOCTYPE svg
PUBLIC "-//W3C//DTD SVG 1.1//EN"
       "http://www.w3.org/Graphics/SVG/1.1/DTD/svg11.dtd">
<svg version="1.1" xmlns="http://www.w3.org/2000/svg" xmlns:xlink="http://www.w3.org/1999/xlink" viewBox="0 0 31.7695 28.1836">
 <g>
  <rect height="28.1836" opacity="0" width="31.7695" x="0" y="0"/>
  <path d="M12.3516 2.77734C12.0469 3.55078 11.8125 4.66406 11.8125 5.63672C11.8125 10.8516 14.8008 13.8398 20.0156 13.8398C21 13.8398 22.0664 13.6289 22.6992 13.4062C23.2734 13.2422 23.6719 13.6289 23.3555 14.2383C22.8375 15.3598 22.0668 16.3878 21.0967 17.2266L17.6177 17.2266C18.6143 16.8635 19.4917 16.2907 20.2031 15.5859C20.0977 15.5977 19.9453 15.5977 19.7344 15.5977C13.8516 15.5977 10.0547 11.8242 10.0547 5.63672C10.0547 5.41406 10.043 5.27344 10.0898 5.12109C8.82422 6.375 7.83984 8.19141 7.83984 10.3477C7.83984 13.5164 9.86728 16.2218 12.6965 17.2266L9.22596 17.2266C7.29154 15.5634 6.07031 13.0963 6.07031 10.3477C6.07031 6.55078 8.42578 3.35156 11.543 2.00391C12.1523 1.73438 12.6211 2.10938 12.3516 2.77734Z" fill="black" fill-opacity="0.85"/>
  <path d="M4.82812 22.5C5.16797 22.5 5.42578 22.2305 5.42578 21.9023C5.42578 21.5625 5.16797 21.293 4.82812 21.293C4.48828 21.293 4.23047 21.5625 4.23047 21.9023C4.23047 22.2305 4.48828 22.5 4.82812 22.5ZM9.77344 22.5C10.1133 22.5 10.3828 22.2305 10.3828 21.9023C10.3828 21.5625 10.1133 21.293 9.77344 21.293C9.44531 21.293 9.17578 21.5625 9.17578 21.9023C9.17578 22.2305 9.44531 22.5 9.77344 22.5ZM14.7305 22.5C15.0703 22.5 15.3281 22.2305 15.3281 21.9023C15.3281 21.5625 15.0703 21.293 14.7305 21.293C14.3906 21.293 14.1328 21.5625 14.1328 21.9023C14.1328 22.2305 14.3906 22.5 14.7305 22.5ZM19.6758 22.5C20.0156 22.5 20.2852 22.2305 20.2852 21.9023C20.2852 21.5625 20.0156 21.293 19.6758 21.293C19.3477 21.293 19.0781 21.5625 19.0781 21.9023C19.0781 22.2305 19.3477 22.5 19.6758 22.5ZM24.6328 22.5C24.9727 22.5 25.2305 22.2305 25.2305 21.9023C25.2305 21.5625 24.9727 21.293 24.6328 21.293C24.293 21.293 24.0352 21.5625 24.0352 21.9023C24.0352 22.2305 24.293 22.5 24.6328 22.5ZM3.32812 25.3359C3.66797 25.3359 3.9375 25.0781 3.9375 24.7383C3.9375 24.3984 3.66797 24.1406 3.32812 24.1406C3 24.1406 2.73047 24.3984 2.73047 24.7383C2.73047 25.0781 3 25.3359 3.32812 25.3359ZM8.28516 25.3359C8.61328 25.3359 8.88281 25.0781 8.88281 24.7383C8.88281 24.3984 8.61328 24.1406 8.28516 24.1406C7.94531 24.1406 7.6875 24.3984 7.6875 24.7383C7.6875 25.0781 7.94531 25.3359 8.28516 25.3359ZM13.2305 25.3359C13.5703 25.3359 13.8398 25.0781 13.8398 24.7383C13.8398 24.3984 13.5703 24.1406 13.2305 24.1406C12.9023 24.1406 12.6328 24.3984 12.6328 24.7383C12.6328 25.0781 12.9023 25.3359 13.2305 25.3359ZM18.1875 25.3359C18.5156 25.3359 18.7852 25.0781 18.7852 24.7383C18.7852 24.3984 18.5156 24.1406 18.1875 24.1406C17.8477 24.1406 17.5781 24.3984 17.5781 24.7383C17.5781 25.0781 17.8477 25.3359 18.1875 25.3359ZM23.1328 25.3359C23.4727 25.3359 23.7422 25.0781 23.7422 24.7383C23.7422 24.3984 23.4727 24.1406 23.1328 24.1406C22.8047 24.1406 22.5352 24.3984 22.5352 24.7383C22.5352 25.0781 22.8047 25.3359 23.1328 25.3359ZM28.0898 25.3359C28.418 25.3359 28.6875 25.0781 28.6875 24.7383C28.6875 24.3984 28.418 24.1406 28.0898 24.1406C27.75 24.1406 27.4805 24.3984 27.4805 24.7383C27.4805 25.0781 27.75 25.3359 28.0898 25.3359ZM6.78516 28.1836C7.125 28.1836 7.38281 27.9141 7.38281 27.5859C7.38281 27.2461 7.125 26.9766 6.78516 26.9766C6.44531 26.9766 6.1875 27.2461 6.1875 27.5859C6.1875 27.9141 6.44531 28.1836 6.78516 28.1836ZM11.7422 28.1836C12.0703 28.1836 12.3398 27.9141 12.3398 27.5859C12.3398 27.2461 12.0703 26.9766 11.7422 26.9766C11.4023 26.9766 11.1328 27.2461 11.1328 27.5859C11.1328 27.9141 11.4023 28.1836 11.7422 28.1836ZM16.6875 28.1836C17.0273 28.1836 17.2852 27.9141 17.2852 27.5859C17.2852 27.2461 17.0273 26.9766 16.6875 26.9766C16.3477 26.9766 16.0898 27.2461 16.0898 27.5859C16.0898 27.9141 16.3477 28.1836 16.6875 28.1836ZM21.6445 28.1836C21.9727 28.1836 22.2422 27.9141 22.2422 27.5859C22.2422 27.2461 21.9727 26.9766 21.6445 26.9766C21.3047 26.9766 21.0352 27.2461 21.0352 27.5859C21.0352 27.9141 21.3047 28.1836 21.6445 28.1836ZM26.5898 28.1836C26.9297 28.1836 27.1875 27.9141 27.1875 27.5859C27.1875 27.2461 26.9297 26.9766 26.5898 26.9766C26.25 26.9766 25.9922 27.2461 25.9922 27.5859C25.9922 27.9141 26.25 28.1836 26.5898 28.1836ZM3.77344 18.7031L27.5742 18.7031C27.9961 18.7031 28.3125 18.3867 28.3125 17.9648C28.3125 17.543 27.9961 17.2266 27.5742 17.2266L3.77344 17.2266C3.36328 17.2266 3.03516 17.543 3.03516 17.9648C3.03516 18.3867 3.36328 18.7031 3.77344 18.7031Z" fill="black" fill-opacity="0.85"/>
 </g>
</svg>
