<?xml version="1.0" encoding="UTF-8"?>
<!--Generator: Apple Native CoreSVG 360-->
<!DOCTYPE svg
PUBLIC "-//W3C//DTD SVG 1.1//EN"
       "http://www.w3.org/Graphics/SVG/1.1/DTD/svg11.dtd">
<svg version="1.1" xmlns="http://www.w3.org/2000/svg" xmlns:xlink="http://www.w3.org/1999/xlink" viewBox="0 0 33.3146 23.543">
 <g>
  <rect height="23.543" opacity="0" width="33.3146" x="0" y="0"/>
  <path d="M7.73349 23.543C11.0382 23.543 13.7101 20.8945 13.7569 17.6016L11.8585 17.5898C11.8116 19.8398 9.97177 21.6328 7.72177 21.6328C5.43662 21.6328 3.60849 19.8398 3.56162 17.5898L1.66318 17.6016C1.71005 20.9062 4.39365 23.543 7.73349 23.543ZM1.22958 18.6914L21.4679 18.6914L21.4679 16.793L14.7999 16.793L14.7999 10.5469C14.7999 9.62109 14.3897 9.19922 13.5108 9.19922L7.2999 9.19922C2.08505 9.19922-0.575103 13.4062 0.104584 17.8594C0.186615 18.375 0.503022 18.6914 1.22958 18.6914ZM1.93271 16.793C1.6749 13.8164 3.28037 11.0859 7.2999 11.0859L12.9132 11.0859L12.9132 16.793ZM7.03037 8.30859L13.9327 8.30859C14.4366 8.30859 14.8351 7.89844 14.8351 7.39453C14.8351 6.90234 14.4249 6.49219 13.9327 6.49219L7.03037 6.49219C6.53818 6.49219 6.1163 6.90234 6.1163 7.39453C6.1163 7.89844 6.52646 8.30859 7.03037 8.30859ZM20.1085 17.7773L21.9952 17.7773L21.9952 8.26172L24.8077 8.26172L24.7726 6.375L21.3976 6.375C20.5304 6.375 20.1085 6.82031 20.1085 7.73438ZM28.253 8.14453C28.6749 8.19141 28.8741 7.85156 28.7921 7.44141L28.1358 4.30078C28.0538 3.89062 27.7491 3.69141 27.3624 3.90234C27.0577 4.06641 26.7765 4.32422 26.5772 4.62891C25.8741 5.66016 26.1788 7.11328 27.2101 7.78125C27.503 7.98047 27.878 8.12109 28.253 8.14453ZM26.9288 23.543C30.2686 23.543 32.964 20.8359 32.964 17.5078C32.964 14.1562 30.2686 11.4375 26.9288 11.4375C23.5655 11.4375 20.8585 14.1562 20.8585 17.5078C20.8585 20.8477 23.5655 23.543 26.9288 23.543ZM26.9171 21.6328C24.6085 21.6328 22.7569 19.793 22.7569 17.4961C22.7569 15.1992 24.6085 13.3477 26.9171 13.3477C29.2022 13.3477 31.0655 15.1992 31.0655 17.4961C31.0655 19.7812 29.2022 21.6328 26.9171 21.6328ZM26.8936 19.0195C27.7374 19.0195 28.4171 18.3398 28.4171 17.4961C28.4171 16.6289 27.7491 15.9609 26.8936 15.9609C26.0382 15.9609 25.4171 16.6172 25.4054 17.4961C25.3936 18.3398 26.0265 19.0195 26.8936 19.0195ZM26.1085 17.4141L27.7374 16.8281L24.3272 0.785156C24.2101 0.210938 23.7413 0 23.0616 0L20.6358 0C20.1319 0 19.7335 0.410156 19.7335 0.914062C19.7335 1.41797 20.1319 1.81641 20.6358 1.81641L22.7218 1.81641C22.8155 1.81641 22.8624 1.83984 22.8741 1.89844Z" fill="black" fill-opacity="0.85"/>
 </g>
</svg>
