<?xml version="1.0" encoding="UTF-8"?>
<!--Generator: Apple Native CoreSVG 360-->
<!DOCTYPE svg
PUBLIC "-//W3C//DTD SVG 1.1//EN"
       "http://www.w3.org/Graphics/SVG/1.1/DTD/svg11.dtd">
<svg version="1.1" xmlns="http://www.w3.org/2000/svg" xmlns:xlink="http://www.w3.org/1999/xlink" viewBox="0 0 39.6797 23.543">
 <g>
  <rect height="23.543" opacity="0" width="39.6797" x="0" y="0"/>
  <path d="M6.59766 18.0586L15.3984 11.0156C18.6445 8.41406 20.5195 7.61719 22.3711 7.61719C24.6797 7.61719 25.6523 8.94141 25.6523 10.4297C25.6523 12.0938 24.3164 13.4414 21.6445 13.4414C19.2539 13.4414 17.0977 12.4102 15.4219 10.5234L13.7812 11.7773C15.7383 14.0391 18.5273 15.2812 21.5977 15.2812C25.3242 15.2812 27.5391 13.207 27.5391 10.5703C27.5391 7.78125 25.8164 5.82422 22.5 5.77734C20.1914 5.75391 17.8828 6.72656 14.7656 9.21094L5.49609 16.6172ZM6.30469 23.543C9.77344 23.543 12.5742 20.7305 12.5742 17.2617C12.5742 13.7812 9.77344 10.957 6.30469 10.957C2.8125 10.957 0 13.7812 0 17.2617C0 20.7422 2.8125 23.543 6.30469 23.543ZM6.29297 21.7266C3.79688 21.7266 1.80469 19.7344 1.80469 17.25C1.80469 14.7656 3.79688 12.7734 6.29297 12.7734C8.77734 12.7734 10.7695 14.7656 10.7695 17.25C10.7695 19.7344 8.77734 21.7266 6.29297 21.7266ZM8.15625 8.27344L13.5586 8.27344C14.0625 8.27344 14.4727 7.875 14.4727 7.37109C14.4727 6.87891 14.0508 6.45703 13.5586 6.45703L8.15625 6.45703C7.66406 6.45703 7.25391 6.87891 7.25391 7.37109C7.25391 7.875 7.65234 8.27344 8.15625 8.27344ZM33.0586 23.543C36.5273 23.543 39.3281 20.7305 39.3281 17.2617C39.3281 13.7812 36.5273 10.957 33.0586 10.957C29.5664 10.957 26.7539 13.7812 26.7539 17.2617C26.7539 20.7422 29.5664 23.543 33.0586 23.543ZM33.0469 21.7266C30.5508 21.7266 28.5586 19.7344 28.5586 17.25C28.5586 14.7656 30.5508 12.7734 33.0469 12.7734C35.5312 12.7734 37.5234 14.7656 37.5234 17.25C37.5234 19.7344 35.5312 21.7266 33.0469 21.7266ZM33.0234 18.7734C33.8672 18.7734 34.5469 18.0938 34.5469 17.25C34.5469 16.3945 33.8789 15.7148 33.0234 15.7148C32.168 15.7148 31.5586 16.3828 31.5469 17.25C31.5352 18.0938 32.1562 18.7734 33.0234 18.7734ZM32.2031 17.332L33.9023 16.7461L27.5156 0.785156C27.2812 0.222656 26.8594 0 26.1797 0L22.8164 0C22.3008 0 21.9023 0.410156 21.9023 0.914062C21.9023 1.41797 22.3008 1.81641 22.8164 1.81641L25.8164 1.81641C25.9219 1.81641 25.9688 1.83984 26.0039 1.92188ZM33.0586 8.14453C33.4805 8.19141 33.6797 7.85156 33.5977 7.44141L32.9414 4.30078C32.8594 3.89062 32.5547 3.69141 32.168 3.90234C31.8633 4.06641 31.582 4.32422 31.3828 4.62891C30.6797 5.66016 30.9844 7.11328 32.0156 7.78125C32.3086 7.98047 32.6836 8.12109 33.0586 8.14453ZM6.25781 18.7852C7.10156 18.7852 7.78125 18.0938 7.78125 17.25C7.78125 16.3945 7.11328 15.7266 6.25781 15.7266C5.40234 15.7266 4.78125 16.3828 4.76953 17.25C4.75781 18.0938 5.39062 18.7852 6.25781 18.7852ZM15.6914 19.7109L18.8672 19.7109C19.4062 19.7109 19.6406 19.582 20.0156 19.1719L24.7148 14.0859L22.1484 14.0742L18.8203 17.7305C18.7148 17.8359 18.6094 17.8945 18.3984 17.8945L15.6914 17.8945C15.1875 17.8945 14.7891 18.293 14.7891 18.7969C14.7891 19.3008 15.1875 19.7109 15.6914 19.7109Z" fill="black" fill-opacity="0.85"/>
 </g>
</svg>
