<?xml version="1.0" encoding="UTF-8"?>
<!--Generator: Apple Native CoreSVG 360-->
<!DOCTYPE svg
PUBLIC "-//W3C//DTD SVG 1.1//EN"
       "http://www.w3.org/Graphics/SVG/1.1/DTD/svg11.dtd">
<svg version="1.1" xmlns="http://www.w3.org/2000/svg" xmlns:xlink="http://www.w3.org/1999/xlink" viewBox="0 0 41.5675 21.1055">
 <g>
  <rect height="21.1055" opacity="0" width="41.5675" x="0" y="0"/>
  <path d="M13.5005 6.48047L17.1593 11.0101L15.0677 13.7608C15.0196 13.7675 14.9695 13.7695 14.9185 13.7695C13.1607 13.7695 12.4576 12.375 11.4849 12.375C10.5122 12.375 9.82084 13.7695 8.06303 13.7695C7.44617 13.7695 6.96351 13.473 6.55608 13.1001L2.15678 18.5508C1.9224 18.8438 2.05131 19.2188 2.44975 19.2188L11.6018 19.2187C11.6337 20.2191 12.3368 21.1055 13.7232 21.1055L2.1685 21.1055C-0.0697844 21.1055-0.585409 18.9492 0.668497 17.3906L9.46928 6.48047C10.0787 5.74219 10.7935 5.35547 11.4849 5.35547C12.188 5.35547 12.9029 5.74219 13.5005 6.48047ZM10.9341 7.67578L7.36648 12.096C7.6081 12.3253 7.83556 12.4805 8.06303 12.4805C8.97709 12.4805 9.80912 11.0859 11.4849 11.0859C13.1724 11.0859 14.0044 12.4805 14.9185 12.4805C15.146 12.4805 15.3734 12.3253 15.615 12.096L12.0474 7.67578C11.8716 7.47656 11.6841 7.35938 11.4849 7.35938C11.2974 7.35938 11.0982 7.47656 10.9341 7.67578Z" fill="black" fill-opacity="0.85"/>
  <path d="M13.7232 21.1055L39.0943 21.1055C41.2271 21.1055 41.7427 18.9961 40.688 17.6133L28.4419 1.53516C27.2935 0.0234375 25.5357 0 24.3638 1.53516L12.1294 17.625C11.0747 19.0078 11.5904 21.1055 13.7232 21.1055ZM14.1099 19.2188C13.6763 19.2188 13.5591 18.8555 13.7818 18.5508L25.8287 2.71875C26.1451 2.30859 26.6841 2.32031 26.9654 2.70703L39.024 18.5391C39.2583 18.8438 39.1294 19.2188 38.6958 19.2188ZM22.5943 10.9102C24.5396 10.9102 25.3247 9.36328 26.4029 9.36328C27.4927 9.36328 28.2779 10.9102 30.2232 10.9102C31.4185 10.9102 32.1919 9.9375 32.8599 9.22266L31.9576 8.12109C31.3013 8.78906 30.774 9.49219 30.2232 9.49219C29.1919 9.49219 28.2779 7.94531 26.4029 7.94531C24.5396 7.94531 23.6255 9.49219 22.5943 9.49219C22.0318 9.49219 21.5044 8.77734 20.8365 8.10938L19.9341 9.19922C20.6138 9.92578 21.3872 10.9102 22.5943 10.9102Z" fill="black" fill-opacity="0.85"/>
 </g>
</svg>
