<?xml version="1.0" encoding="UTF-8"?>
<!--Generator: Apple Native CoreSVG 360-->
<!DOCTYPE svg
PUBLIC "-//W3C//DTD SVG 1.1//EN"
       "http://www.w3.org/Graphics/SVG/1.1/DTD/svg11.dtd">
<svg version="1.1" xmlns="http://www.w3.org/2000/svg" xmlns:xlink="http://www.w3.org/1999/xlink" viewBox="0 0 30.4123 14.9883">
 <g>
  <rect height="14.9883" opacity="0" width="30.4123" x="0" y="0"/>
  <path d="M0.821405 6.99609C5.01672 12.0469 9.14172 14.9883 15.0245 14.9883C20.9191 14.9883 25.0441 12.0469 29.2394 6.99609C30.6339 5.30859 30.2589 3.32812 28.0675 3.07031C24.6808 2.68359 23.5675 0.0234375 19.9933 0.0234375C17.1808 0.0234375 15.5167 2.12109 15.0245 2.12109C14.5441 2.12109 12.88 0.0234375 10.0675 0.0234375C6.49328 0.0234375 5.38 2.68359 1.99328 3.07031C-0.198126 3.32812-0.573126 5.30859 0.821405 6.99609ZM1.79406 5.80078C1.37219 5.32031 1.48937 4.78125 2.11047 4.67578L3.00109 4.5C6.55187 3.83203 7.91125 1.82812 10.1847 1.82812C11.38 1.82812 12.2355 2.41406 13.0441 3C13.8175 3.5625 14.3566 3.92578 15.0245 3.92578C15.7042 3.92578 16.2316 3.5625 17.0167 3C17.8253 2.41406 18.6808 1.82812 19.8761 1.82812C22.1495 1.82812 23.5089 3.83203 27.0597 4.5L27.9503 4.67578C28.5714 4.78125 28.6886 5.32031 28.2667 5.80078C24.9737 9.24609 20.9073 13.1836 15.0245 13.1836C9.15344 13.1836 5.08703 9.24609 1.79406 5.80078ZM15.0245 8.60156C16.63 8.60156 16.923 7.27734 19.3487 7.27734C21.798 7.28906 24.8097 8.37891 28.63 5.54297C29.2628 5.07422 28.8527 4.5 28.3019 4.75781C25.8878 6.01172 23.2862 5.98828 21.0128 5.75391C20.4034 5.67188 19.8058 5.58984 19.2316 5.58984C17.4152 5.58984 16.4425 6.23438 15.7862 6.60938C15.3527 6.86719 15.212 6.91406 15.0245 6.91406C14.8487 6.91406 14.6964 6.86719 14.2628 6.60938C13.6183 6.23438 12.6456 5.58984 10.8292 5.58984C10.255 5.58984 9.66906 5.68359 9.08312 5.74219C6.79797 5.98828 4.18469 6 1.75891 4.75781C1.20812 4.5 0.797968 5.07422 1.43078 5.54297C5.25109 8.36719 8.26281 7.28906 10.712 7.27734C13.1378 7.27734 13.4308 8.60156 15.0245 8.60156Z" fill="black" fill-opacity="0.85"/>
 </g>
</svg>
