<?xml version="1.0" encoding="UTF-8"?>
<!--Generator: Apple Native CoreSVG 360-->
<!DOCTYPE svg
PUBLIC "-//W3C//DTD SVG 1.1//EN"
       "http://www.w3.org/Graphics/SVG/1.1/DTD/svg11.dtd">
<svg version="1.1" xmlns="http://www.w3.org/2000/svg" xmlns:xlink="http://www.w3.org/1999/xlink" viewBox="0 0 29.6484 23.4492">
 <g>
  <rect height="23.4492" opacity="0" width="29.6484" x="0" y="0"/>
  <path d="M3.01172 19.4648L26.2852 19.4648C28.1602 19.4648 29.2969 18.3164 29.2969 16.4531L29.2969 3.01172C29.2969 1.14844 28.1602 0 26.2852 0L3.01172 0C1.14844 0 0 1.14844 0 3.01172L0 16.4531C0 18.3164 1.14844 19.4648 3.01172 19.4648ZM3.04688 17.5781C2.32031 17.5781 1.88672 17.1445 1.88672 16.4297L1.88672 3.03516C1.88672 2.32031 2.32031 1.88672 3.04688 1.88672L26.25 1.88672C26.9766 1.88672 27.4102 2.32031 27.4102 3.03516L27.4102 16.4297C27.4102 17.1445 26.9766 17.5781 26.25 17.5781ZM8.75391 23.4375L20.543 23.4375C21.0586 23.4375 21.4922 23.0156 21.4922 22.4883C21.4922 21.9609 21.0586 21.5391 20.543 21.5391L8.75391 21.5391C8.23828 21.5391 7.80469 21.9609 7.80469 22.4883C7.80469 23.0156 8.23828 23.4375 8.75391 23.4375Z" fill="black" fill-opacity="0.85"/>
  <path d="M18.1875 7.60547C18.75 7.45312 18.9141 7.33594 18.9141 6.65625L18.9141 4.35938C18.9141 3.91406 18.7617 3.71484 18.1406 3.86719L14.707 4.72266C14.1328 4.86328 14.0039 4.98047 14.0039 5.67188L14.0039 10.957C14.0039 11.4727 13.957 11.5664 13.3711 11.7305L12.293 12.0117C11.2266 12.293 10.3359 12.9258 10.3359 14.0742C10.3359 15.0703 11.0859 15.7969 12.2578 15.7969C13.9336 15.7969 15.0703 14.5898 15.0703 12.8906L15.0703 8.87109C15.0703 8.4375 15.1758 8.32031 15.4336 8.26172Z" fill="black" fill-opacity="0.85"/>
 </g>
</svg>
