<?xml version="1.0" encoding="UTF-8"?>
<!--Generator: Apple Native CoreSVG 360-->
<!DOCTYPE svg
PUBLIC "-//W3C//DTD SVG 1.1//EN"
       "http://www.w3.org/Graphics/SVG/1.1/DTD/svg11.dtd">
<svg version="1.1" xmlns="http://www.w3.org/2000/svg" xmlns:xlink="http://www.w3.org/1999/xlink" viewBox="0 0 33.5391 13.418">
 <g>
  <rect height="13.418" opacity="0" width="33.5391" x="0" y="0"/>
  <path d="M9.05859 13.418C12.2109 13.418 14.9062 12.3867 16.5938 10.5352C18.2812 12.3867 20.9766 13.418 24.1289 13.418C29.2266 13.418 33.1875 10.3242 33.1875 6.33984C33.1875 4.67578 32.4961 3.69141 31.2773 3.69141C30.7734 3.69141 30.3398 3.90234 29.9414 4.33594C29.4492 4.875 28.6992 5.25 27.8438 5.25C24.9023 5.25 24.2227 1.20703 19.4062 1.20703C18.3281 1.20703 17.3672 1.51172 16.5938 2.0625C15.8203 1.51172 14.8594 1.20703 13.7812 1.20703C8.96484 1.20703 8.28516 5.25 5.34375 5.25C4.48828 5.25 3.73828 4.875 3.24609 4.33594C2.84766 3.90234 2.41406 3.69141 1.91016 3.69141C0.691406 3.69141 0 4.67578 0 6.33984C0 10.3242 3.96094 13.418 9.05859 13.418ZM9.05859 11.5312C5.02734 11.5312 1.88672 9.23438 1.88672 6.32812C1.88672 6 2.17969 5.97656 2.36719 6.10547C3.07031 6.77344 4.19531 7.13672 5.34375 7.13672C7.39453 7.13672 8.75391 5.98828 9.91406 4.99219C11.1094 3.98438 12.1172 3.09375 13.7812 3.09375C14.8945 3.09375 15.7617 3.58594 16.207 4.39453C16.3828 4.73438 16.8047 4.74609 16.9688 4.39453C17.4141 3.58594 18.293 3.09375 19.4062 3.09375C21.0703 3.09375 22.0781 3.98438 23.2734 4.99219C24.4336 5.98828 25.793 7.13672 27.8438 7.13672C28.9922 7.13672 30.1172 6.76172 30.8555 6.05859C31.0547 5.91797 31.3008 5.92969 31.3008 6.32812C31.3008 9.23438 28.1602 11.5312 24.1289 11.5312C20.6484 11.5312 18.0469 10.1367 17.0625 7.875C16.875 7.44141 16.3125 7.42969 16.125 7.875C15.1523 10.1367 12.5508 11.5312 9.05859 11.5312Z" fill="black" fill-opacity="0.85"/>
 </g>
</svg>
