<?xml version="1.0" encoding="UTF-8"?>
<!--Generator: Apple Native CoreSVG 360-->
<!DOCTYPE svg
PUBLIC "-//W3C//DTD SVG 1.1//EN"
       "http://www.w3.org/Graphics/SVG/1.1/DTD/svg11.dtd">
<svg version="1.1" xmlns="http://www.w3.org/2000/svg" xmlns:xlink="http://www.w3.org/1999/xlink" viewBox="0 0 24.2578 23.918">
 <g>
  <rect height="23.918" opacity="0" width="24.2578" x="0" y="0"/>
  <path d="M11.9531 23.9062C18.5508 23.9062 23.9062 18.5508 23.9062 11.9531C23.9062 5.35547 18.5508 0 11.9531 0C5.35547 0 0 5.35547 0 11.9531C0 18.5508 5.35547 23.9062 11.9531 23.9062ZM11.9531 21.9141C6.44531 21.9141 1.99219 17.4609 1.99219 11.9531C1.99219 6.44531 6.44531 1.99219 11.9531 1.99219C17.4609 1.99219 21.9141 6.44531 21.9141 11.9531C21.9141 17.4609 17.4609 21.9141 11.9531 21.9141Z" fill="black" fill-opacity="0.85"/>
  <path d="M8.40234 17.3203C8.96484 17.3203 9.29297 16.9805 9.29297 16.3828L9.29297 9.5625L9.36328 9.5625L14.4727 16.7578C14.7891 17.1914 15.0234 17.3203 15.4102 17.3203C15.9844 17.3203 16.3359 16.9688 16.3359 16.3477L16.3359 7.30078C16.3359 6.71484 16.0078 6.36328 15.4453 6.36328C14.8945 6.36328 14.5781 6.73828 14.5781 7.30078L14.5781 14.25L14.4961 14.25L9.39844 6.92578C9.09375 6.50391 8.83594 6.36328 8.44922 6.36328C7.875 6.36328 7.54688 6.75 7.54688 7.34766L7.54688 16.3828C7.54688 16.957 7.86328 17.3203 8.40234 17.3203Z" fill="black" fill-opacity="0.85"/>
 </g>
</svg>
