<?xml version="1.0" encoding="UTF-8"?>
<!--Generator: Apple Native CoreSVG 360-->
<!DOCTYPE svg
PUBLIC "-//W3C//DTD SVG 1.1//EN"
       "http://www.w3.org/Graphics/SVG/1.1/DTD/svg11.dtd">
<svg version="1.1" xmlns="http://www.w3.org/2000/svg" xmlns:xlink="http://www.w3.org/1999/xlink" viewBox="0 0 26.5195 25.0195">
 <g>
  <rect height="25.0195" opacity="0" width="26.5195" x="0" y="0"/>
  <path d="M1.55859 22.2188L24.6094 22.2188L24.6094 21.4336C24.6094 20.9648 24.3398 20.6836 23.8594 20.6836L23.1094 20.6836L23.1094 8.03906L24.1406 8.03906C24.7852 8.03906 25.1602 7.57031 25.1602 7.08984C25.1602 6.73828 24.9609 6.43359 24.5273 6.1875L14.5195 0.410156C14.0508 0.140625 13.5586 0 13.0781 0C12.5977 0 12.0938 0.140625 11.6484 0.410156L1.64062 6.1875C1.19531 6.43359 1.00781 6.73828 1.00781 7.08984C1.00781 7.57031 1.38281 8.03906 2.02734 8.03906L3.05859 8.03906L3.05859 20.6836L2.32031 20.6836C1.83984 20.6836 1.55859 20.9648 1.55859 21.4336ZM4.82812 20.6836L4.82812 6.53906L12.6211 2.16797C12.7617 2.08594 12.9258 2.03906 13.0781 2.03906C13.2305 2.03906 13.3945 2.08594 13.5469 2.16797L21.3398 6.53906L21.3398 20.6836ZM0.9375 25.0078L25.2188 25.0078C25.7344 25.0078 26.168 24.5742 26.168 24.0586C26.168 23.543 25.7344 23.1211 25.2188 23.1211L0.9375 23.1211C0.421875 23.1211 0 23.543 0 24.0586C0 24.5742 0.421875 25.0078 0.9375 25.0078Z" fill="black" fill-opacity="0.85"/>
  <path d="M10.0781 17.7305C10.4648 17.7305 10.7461 17.4492 10.7461 17.0508L10.7461 9.31641L10.8164 9.31641L14.6484 17.0625C14.8594 17.4727 15.1758 17.7305 15.6445 17.7305C16.2773 17.7305 16.5469 17.2852 16.5469 16.8516L16.5469 7.60547C16.5469 7.18359 16.2891 6.92578 15.8789 6.92578C15.4805 6.92578 15.2227 7.18359 15.2227 7.60547L15.2227 15.3633L15.1523 15.3633L11.3086 7.60547C11.1094 7.18359 10.7812 6.92578 10.3125 6.92578C9.78516 6.92578 9.41016 7.28906 9.41016 7.80469L9.41016 17.0508C9.41016 17.4492 9.69141 17.7305 10.0781 17.7305ZM8.41406 12.3398C8.41406 12.5625 8.58984 12.7383 8.8125 12.7383L17.1562 12.7383C17.3789 12.7383 17.5547 12.5625 17.5547 12.3398C17.5547 12.1172 17.3789 11.9414 17.1562 11.9414L8.8125 11.9414C8.58984 11.9414 8.41406 12.1172 8.41406 12.3398Z" fill="black" fill-opacity="0.85"/>
 </g>
</svg>
