<?xml version="1.0" encoding="UTF-8"?>
<!--Generator: Apple Native CoreSVG 360-->
<!DOCTYPE svg
PUBLIC "-//W3C//DTD SVG 1.1//EN"
       "http://www.w3.org/Graphics/SVG/1.1/DTD/svg11.dtd">
<svg version="1.1" xmlns="http://www.w3.org/2000/svg" xmlns:xlink="http://www.w3.org/1999/xlink" viewBox="0 0 18.2812 21.6445">
 <g>
  <rect height="21.6445" opacity="0" width="18.2812" x="0" y="0"/>
  <path d="M3.11719 21.6211C3.83203 21.6211 4.27734 21.1523 4.27734 20.4258L4.27734 4.20703L4.40625 4.20703L12.6914 20.4609C13.0078 21.1055 13.5352 21.6211 14.4023 21.6211C15.375 21.6211 15.9727 21 15.9727 20.0977L15.9727 1.17188C15.9727 0.445312 15.5273 0 14.8242 0C14.1094 0 13.6758 0.445312 13.6758 1.17188L13.6758 17.4375L13.5469 17.4375L5.26172 1.17188C4.88672 0.421875 4.37109 0 3.52734 0C2.625 0 1.98047 0.585938 1.98047 1.52344L1.98047 20.4258C1.98047 21.1523 2.41406 21.6211 3.11719 21.6211ZM0 10.8398C0 11.2617 0.339844 11.6016 0.761719 11.6016L17.168 11.6016C17.5898 11.6016 17.9297 11.2617 17.9297 10.8398C17.9297 10.418 17.5898 10.0781 17.168 10.0781L0.761719 10.0781C0.339844 10.0781 0 10.418 0 10.8398Z" fill="black" fill-opacity="0.85"/>
 </g>
</svg>
