<?xml version="1.0" encoding="UTF-8"?>
<!--Generator: Apple Native CoreSVG 360-->
<!DOCTYPE svg
PUBLIC "-//W3C//DTD SVG 1.1//EN"
       "http://www.w3.org/Graphics/SVG/1.1/DTD/svg11.dtd">
<svg version="1.1" xmlns="http://www.w3.org/2000/svg" xmlns:xlink="http://www.w3.org/1999/xlink" viewBox="0 0 28.582 23.5195">
 <g>
  <rect height="23.5195" opacity="0" width="28.582" x="0" y="0"/>
  <path d="M28.2305 14.1094C28.2305 10.6641 26.9883 7.48828 24.9141 5.02734C24.6797 4.74609 24.2812 4.74609 24.0234 5.01562L21.3047 7.73438C21.082 7.95703 21.0703 8.27344 21.2695 8.51953C22.4766 10.0664 23.2031 12.0117 23.2031 14.1094C23.2031 16.2188 22.4766 18.1641 21.1992 19.793C21.0352 19.9922 21.0469 20.25 21.2227 20.4375L24.0117 23.2266C24.2812 23.4961 24.668 23.4961 24.9141 23.2031C26.9883 20.7422 28.2305 17.5664 28.2305 14.1094Z" fill="black" fill-opacity="0.85"/>
  <path d="M14.1094 5.02734C16.2305 5.02734 18.1758 5.76562 19.7344 6.97266C19.9688 7.16016 20.2734 7.13672 20.4961 6.91406L23.2148 4.19531C23.4844 3.92578 23.4727 3.53906 23.1914 3.30469C20.7422 1.24219 17.5664 0 14.1094 0C10.6641 0 7.48828 1.24219 5.03906 3.30469C4.75781 3.53906 4.74609 3.92578 5.01562 4.19531L7.73438 6.91406C7.95703 7.13672 8.27344 7.16016 8.53125 6.96094C10.0781 5.76562 12.0117 5.02734 14.1094 5.02734Z" fill="black" fill-opacity="0.85"/>
  <path d="M0 14.1094C0 17.5664 1.24219 20.7422 3.31641 23.2031C3.55078 23.4961 3.94922 23.4961 4.20703 23.2266L6.99609 20.4375C7.17188 20.25 7.19531 19.9922 7.03125 19.793C5.75391 18.1641 5.02734 16.2188 5.02734 14.1094C5.02734 12.0117 5.74219 10.0664 6.96094 8.51953C7.14844 8.27344 7.14844 7.95703 6.92578 7.73438L4.20703 5.01562C3.9375 4.74609 3.55078 4.74609 3.31641 5.02734C1.24219 7.48828 0 10.6641 0 14.1094Z" fill="black" fill-opacity="0.85"/>
  <path d="M11.0859 19.6641C11.4844 19.6641 11.7539 19.3828 11.7539 18.9844L11.7539 11.25L11.8242 11.25L15.668 18.9961C15.8672 19.4062 16.1953 19.6641 16.6523 19.6641C17.2969 19.6641 17.5547 19.2188 17.5547 18.7852L17.5547 9.53906C17.5547 9.11719 17.2969 8.85938 16.8867 8.85938C16.4883 8.85938 16.2422 9.11719 16.2422 9.53906L16.2422 17.2969L16.1602 17.2969L12.3164 9.53906C12.1289 9.11719 11.7891 8.85938 11.332 8.85938C10.793 8.85938 10.4297 9.22266 10.4297 9.73828L10.4297 18.9844C10.4297 19.3828 10.6992 19.6641 11.0859 19.6641ZM9.42188 14.2734C9.42188 14.4961 9.59766 14.6719 9.82031 14.6719L18.1758 14.6719C18.3984 14.6719 18.5742 14.4961 18.5742 14.2734C18.5742 14.0508 18.3984 13.875 18.1758 13.875L9.82031 13.875C9.59766 13.875 9.42188 14.0508 9.42188 14.2734Z" fill="black" fill-opacity="0.85"/>
 </g>
</svg>
