<?xml version="1.0" encoding="UTF-8"?>
<!--Generator: Apple Native CoreSVG 360-->
<!DOCTYPE svg
PUBLIC "-//W3C//DTD SVG 1.1//EN"
       "http://www.w3.org/Graphics/SVG/1.1/DTD/svg11.dtd">
<svg version="1.1" xmlns="http://www.w3.org/2000/svg" xmlns:xlink="http://www.w3.org/1999/xlink" viewBox="0 0 28.582 23.4085">
 <g>
  <rect height="23.4085" opacity="0" width="28.582" x="0" y="0"/>
  <path d="M28.2305 14.0539C28.2305 6.67105 22.5586 0.612457 15.3398 0.00308175C14.9648-0.0320745 14.6836 0.237457 14.6836 0.612457L14.6836 4.44449C14.6836 4.76089 14.9062 5.00699 15.2227 5.03043C19.7109 5.58121 23.2031 9.41324 23.2031 14.0539C23.2031 16.1632 22.4766 18.1086 21.1992 19.7375C21.0352 19.9367 21.0469 20.1945 21.2227 20.382L24.0234 23.1711C24.2812 23.4289 24.6797 23.4289 24.9141 23.1476C26.9883 20.6867 28.2305 17.5109 28.2305 14.0539Z" fill="black" fill-opacity="0.85"/>
  <path d="M0 14.0539C0 17.5226 1.24219 20.6984 3.31641 23.1593C3.55078 23.4406 3.9375 23.4289 4.20703 23.1711L7.00781 20.382C7.18359 20.1945 7.19531 19.9367 7.03125 19.7375C5.74219 18.1086 5.02734 16.1632 5.02734 14.0539C5.02734 9.41324 8.51953 5.58121 13.0078 5.03043C13.3242 5.00699 13.5469 4.76089 13.5469 4.44449L13.5469 0.612457C13.5469 0.237457 13.2656-0.0320745 12.8906 0.00308175C5.67188 0.612457 0 6.67105 0 14.0539Z" fill="black" fill-opacity="0.85"/>
  <path d="M11.0859 19.6086C11.4844 19.6086 11.7539 19.3273 11.7539 18.9289L11.7539 11.1945L11.8242 11.1945L15.668 18.9406C15.8672 19.3507 16.1953 19.6086 16.6523 19.6086C17.2969 19.6086 17.5547 19.1632 17.5547 18.7296L17.5547 9.48355C17.5547 9.06168 17.2969 8.80386 16.8867 8.80386C16.4883 8.80386 16.2422 9.06168 16.2422 9.48355L16.2422 17.2414L16.1602 17.2414L12.3164 9.48355C12.1289 9.06168 11.7891 8.80386 11.332 8.80386C10.793 8.80386 10.4297 9.16714 10.4297 9.68277L10.4297 18.9289C10.4297 19.3273 10.6992 19.6086 11.0859 19.6086ZM9.42188 14.2179C9.42188 14.4406 9.59766 14.6164 9.82031 14.6164L18.1758 14.6164C18.3984 14.6164 18.5742 14.4406 18.5742 14.2179C18.5742 13.9953 18.3984 13.8195 18.1758 13.8195L9.82031 13.8195C9.59766 13.8195 9.42188 13.9953 9.42188 14.2179Z" fill="black" fill-opacity="0.85"/>
 </g>
</svg>
