<?xml version="1.0" encoding="UTF-8"?>
<!--Generator: Apple Native CoreSVG 360-->
<!DOCTYPE svg
PUBLIC "-//W3C//DTD SVG 1.1//EN"
       "http://www.w3.org/Graphics/SVG/1.1/DTD/svg11.dtd">
<svg version="1.1" xmlns="http://www.w3.org/2000/svg" xmlns:xlink="http://www.w3.org/1999/xlink" viewBox="0 0 28.582 23.5195">
 <g>
  <rect height="23.5195" opacity="0" width="28.582" x="0" y="0"/>
  <path d="M28.2305 14.1094C28.2305 10.6641 26.9883 7.48828 24.9141 5.02734C24.6797 4.74609 24.2812 4.74609 24.0234 5.01562L21.3047 7.73438C21.082 7.95703 21.0703 8.27344 21.2695 8.51953C22.4766 10.0664 23.2031 12.0117 23.2031 14.1094C23.2031 16.2188 22.4766 18.1641 21.1992 19.793C21.0352 19.9922 21.0469 20.25 21.2227 20.4375L24.0117 23.2266C24.2812 23.4961 24.668 23.4961 24.9141 23.2031C26.9883 20.7422 28.2305 17.5664 28.2305 14.1094Z" fill="black" fill-opacity="0.85"/>
  <path d="M14.1094 5.02734C16.2305 5.02734 18.1758 5.76562 19.7344 6.97266C19.9688 7.16016 20.2734 7.13672 20.4961 6.91406L23.2148 4.19531C23.4844 3.92578 23.4727 3.53906 23.1914 3.30469C20.7422 1.24219 17.5664 0 14.1094 0C10.6641 0 7.48828 1.24219 5.03906 3.30469C4.75781 3.53906 4.74609 3.92578 5.01562 4.19531L7.73438 6.91406C7.95703 7.13672 8.27344 7.16016 8.53125 6.96094C10.0781 5.76562 12.0117 5.02734 14.1094 5.02734Z" fill="black" fill-opacity="0.85"/>
  <path d="M0 14.1094C0 17.5664 1.24219 20.7422 3.31641 23.2031C3.55078 23.4961 3.94922 23.4961 4.20703 23.2266L6.99609 20.4375C7.17188 20.25 7.19531 19.9922 7.03125 19.793C5.75391 18.1641 5.02734 16.2188 5.02734 14.1094C5.02734 12.0117 5.74219 10.0664 6.96094 8.51953C7.14844 8.27344 7.14844 7.95703 6.92578 7.73438L4.20703 5.01562C3.9375 4.74609 3.55078 4.74609 3.31641 5.02734C1.24219 7.48828 0 10.6641 0 14.1094Z" fill="black" fill-opacity="0.85"/>
  <path d="M10.2188 19.0664C10.5938 19.0664 10.8516 18.7969 10.8516 18.3867L10.8516 16.4062L11.543 15.7383L13.6875 18.7383C13.8281 18.9375 14.0156 19.0664 14.2734 19.0664C14.6133 19.0664 14.8828 18.8203 14.8828 18.4922C14.8828 18.3281 14.8125 18.1875 14.6953 18.0352L12.4688 14.9414L14.5547 12.75C14.707 12.5742 14.7773 12.4805 14.7773 12.2812C14.7773 11.9766 14.5312 11.7188 14.2031 11.7188C14.0273 11.7188 13.8164 11.8359 13.6992 11.9648L10.8984 15.0469L10.8516 15.0469L10.8516 9.64453C10.8516 9.23438 10.5938 8.95312 10.2188 8.95312C9.84375 8.95312 9.5625 9.22266 9.5625 9.63281L9.5625 18.3867C9.5625 18.7969 9.84375 19.0664 10.2188 19.0664ZM16.8281 19.0664C17.1094 19.0664 17.4375 18.8906 17.4375 18.3867L17.4375 14.7188C17.4375 13.875 17.7539 12.9609 18.7617 12.9609C19.0078 12.9609 19.2305 12.9258 19.4062 12.8203C19.5586 12.7383 19.6523 12.5977 19.6523 12.3867C19.6523 11.9531 19.3242 11.7188 18.8906 11.7188C18.1406 11.7188 17.625 12.375 17.4492 13.125L17.3789 13.125L17.3789 12.375C17.3789 12 17.1211 11.7188 16.793 11.7188C16.4531 11.7188 16.1953 12 16.1953 12.375L16.1953 18.3867C16.1953 18.7969 16.418 19.0664 16.8281 19.0664Z" fill="black" fill-opacity="0.85"/>
 </g>
</svg>
