<?xml version="1.0" encoding="UTF-8"?>
<!--Generator: Apple Native CoreSVG 360-->
<!DOCTYPE svg
PUBLIC "-//W3C//DTD SVG 1.1//EN"
       "http://www.w3.org/Graphics/SVG/1.1/DTD/svg11.dtd">
<svg version="1.1" xmlns="http://www.w3.org/2000/svg" xmlns:xlink="http://www.w3.org/1999/xlink" viewBox="0 0 26.4762 26.1481">
 <g>
  <rect height="26.1481" opacity="0" width="26.4762" x="0" y="0"/>
  <path d="M9.576 5.06428C10.3612 4.71271 11.1932 4.49006 12.0721 4.38459C12.3182 4.36115 12.494 4.17365 12.494 3.92756L12.494 0.482246C12.494 0.189277 12.2713-0.0216602 11.9783 0.0134961C10.3846 0.142402 8.86115 0.575996 7.46662 1.23225C7.20881 1.36115 7.12678 1.66584 7.2674 1.91193L8.97834 4.86506C9.09553 5.076 9.34162 5.15803 9.576 5.06428Z" fill="black" fill-opacity="0.85"/>
  <path d="M6.03693 7.86506C6.55256 7.17365 7.16193 6.56428 7.86506 6.04865C8.06428 5.89631 8.11115 5.6385 7.99396 5.42756L6.28303 2.47443C6.1424 2.22834 5.83771 2.15803 5.59162 2.32209C4.31428 3.22443 3.21271 4.326 2.32209 5.61506C2.15803 5.86115 2.21662 6.15412 2.47443 6.30646L5.43928 7.99396C5.65021 8.12287 5.88459 8.076 6.03693 7.86506Z" fill="black" fill-opacity="0.85"/>
  <path d="M4.37287 12.0721C4.47834 11.2049 4.701 10.3612 5.04084 9.59943C5.14631 9.36506 5.076 9.11896 4.85334 8.99006L1.8885 7.29084C1.63068 7.1385 1.33771 7.23225 1.22053 7.49006C0.564277 8.88459 0.142402 10.3846 0.00177734 11.9901C-0.00994141 12.283 0.189277 12.494 0.482246 12.494L3.92756 12.494C4.17365 12.494 4.36115 12.3299 4.37287 12.0721Z" fill="black" fill-opacity="0.85"/>
  <path d="M5.04084 16.5604C4.71271 15.7869 4.49006 14.9432 4.38459 14.0643C4.36115 13.8065 4.17365 13.6424 3.92756 13.6424L0.482246 13.6424C0.189277 13.6424-0.0216602 13.8533 0.00177734 14.1463C0.130684 15.7635 0.564277 17.2752 1.23225 18.6697C1.34943 18.9393 1.63068 19.033 1.90021 18.8807L4.85334 17.158C5.076 17.0291 5.14631 16.783 5.04084 16.5604Z" fill="black" fill-opacity="0.85"/>
  <path d="M7.86506 20.0994C7.17365 19.5955 6.55256 18.9862 6.04865 18.283C5.89631 18.0838 5.65021 18.0252 5.42756 18.1541L2.47443 19.8416C2.21662 19.994 2.15803 20.2987 2.31037 20.5447C3.21271 21.8221 4.326 22.9237 5.60334 23.826C5.84943 23.9901 6.15412 23.9197 6.29475 23.6737L7.99396 20.7088C8.11115 20.4979 8.06428 20.2518 7.86506 20.0994Z" fill="black" fill-opacity="0.85"/>
  <path d="M12.0721 21.7635C11.2049 21.658 10.3612 21.4354 9.58771 21.1072C9.36506 20.9901 9.10725 21.0721 8.99006 21.283L7.27912 24.2362C7.1385 24.494 7.22053 24.7987 7.49006 24.9158C8.87287 25.5721 10.3846 26.0057 11.9783 26.1463C12.2713 26.158 12.494 25.9588 12.494 25.6658L12.494 22.2205C12.494 21.9744 12.3182 21.7869 12.0721 21.7635Z" fill="black" fill-opacity="0.85"/>
  <path d="M16.5487 21.0955C15.7869 21.4354 14.9432 21.658 14.0526 21.7635C13.8065 21.7869 13.6307 21.9744 13.6307 22.2205L13.6307 25.6658C13.6307 25.9588 13.8533 26.1697 14.1463 26.1463C15.7401 26.0174 17.2752 25.5721 18.658 24.9158C18.9158 24.7987 18.9979 24.494 18.8572 24.2362L17.1463 21.283C17.0291 21.0721 16.783 20.9901 16.5487 21.0955Z" fill="black" fill-opacity="0.85"/>
  <path d="M20.0994 18.283C19.5838 18.9744 18.9627 19.5721 18.2713 20.0994C18.0721 20.2518 18.0135 20.5096 18.1307 20.7088L19.8416 23.6619C19.9822 23.908 20.2869 23.9901 20.533 23.826C21.8221 22.9237 22.9119 21.8104 23.8143 20.5447C23.9783 20.2987 23.8963 19.994 23.6502 19.8416L20.6971 18.1424C20.4979 18.0135 20.2518 18.0838 20.0994 18.283Z" fill="black" fill-opacity="0.85"/>
  <path d="M21.7635 14.0643C21.658 14.9432 21.4354 15.7869 21.0838 16.5604C20.9901 16.783 21.0604 17.0174 21.283 17.1463L24.2362 18.8455C24.494 18.9979 24.7869 18.9276 24.9158 18.6463C25.5604 17.2635 25.994 15.7518 26.1229 14.1463C26.1346 13.8533 25.9354 13.6424 25.6424 13.6424L22.2088 13.6424C21.9627 13.6424 21.7752 13.8065 21.7635 14.0643Z" fill="black" fill-opacity="0.85"/>
  <path d="M21.0838 9.58771C21.4119 10.3612 21.658 11.2049 21.7518 12.0721C21.7752 12.3299 21.9627 12.494 22.2088 12.494L25.6424 12.494C25.9354 12.494 26.1463 12.283 26.1229 11.9901C25.994 10.3963 25.5604 8.87287 24.9158 7.49006C24.7869 7.22053 24.4822 7.1385 24.2362 7.29084L21.2713 9.00178C21.0604 9.13068 20.9901 9.36506 21.0838 9.58771Z" fill="black" fill-opacity="0.85"/>
  <path d="M18.2713 6.04865C18.9627 6.56428 19.5721 7.16193 20.0994 7.86506C20.2518 8.06428 20.4979 8.13459 20.6971 8.00568L23.6502 6.30646C23.908 6.15412 23.9783 5.86115 23.826 5.61506C22.9237 4.326 21.8104 3.21271 20.533 2.32209C20.2869 2.15803 19.9822 2.22834 19.8416 2.48615L18.1424 5.42756C18.0135 5.65021 18.0604 5.89631 18.2713 6.04865Z" fill="black" fill-opacity="0.85"/>
  <path d="M14.0526 4.38459C14.9432 4.47834 15.7635 4.71271 16.5487 5.06428C16.783 5.15803 17.0291 5.076 17.1463 4.86506L18.8572 1.91193C18.9979 1.66584 18.9041 1.36115 18.6346 1.23225C17.2518 0.575996 15.7518 0.142402 14.1463 0.0134961C13.8533-0.00994141 13.6307 0.200996 13.6307 0.493965L13.6307 3.92756C13.6307 4.17365 13.8065 4.36115 14.0526 4.38459Z" fill="black" fill-opacity="0.85"/>
  <path d="M9.16584 17.8729C9.55256 17.8729 9.81037 17.5916 9.81037 17.1932L9.81037 15.2127L10.4901 14.5447L12.6463 17.5447C12.7869 17.744 12.9627 17.8729 13.2205 17.8729C13.5604 17.8729 13.8299 17.6268 13.8299 17.2987C13.8299 17.1346 13.7596 16.9822 13.6541 16.8416L11.4158 13.7479L13.5018 11.5447C13.6541 11.3807 13.7362 11.2869 13.7362 11.076C13.7362 10.783 13.4783 10.5252 13.1619 10.5252C12.9744 10.5252 12.7752 10.6307 12.658 10.7713L9.84553 13.8416L9.81037 13.8416L9.81037 8.43928C9.81037 8.04084 9.55256 7.74787 9.16584 7.74787C8.79084 7.74787 8.52131 8.02912 8.52131 8.42756L8.52131 17.1932C8.52131 17.5916 8.79084 17.8729 9.16584 17.8729ZM15.7752 17.8729C16.0565 17.8729 16.3846 17.6971 16.3846 17.1932L16.3846 13.5135C16.3846 12.6815 16.7127 11.7557 17.7088 11.7557C17.9549 11.7557 18.1893 11.7322 18.3651 11.6268C18.5174 11.5447 18.5994 11.3924 18.5994 11.1815C18.5994 10.7596 18.283 10.5252 17.8494 10.5252C17.0994 10.5252 16.5721 11.1697 16.408 11.9315L16.3377 11.9315L16.3377 11.1697C16.3377 10.8065 16.0799 10.5252 15.7518 10.5252C15.4119 10.5252 15.1541 10.8065 15.1541 11.1697L15.1541 17.1932C15.1541 17.6033 15.3768 17.8729 15.7752 17.8729Z" fill="black" fill-opacity="0.85"/>
 </g>
</svg>
