<?xml version="1.0" encoding="UTF-8"?>
<!--Generator: Apple Native CoreSVG 360-->
<!DOCTYPE svg
PUBLIC "-//W3C//DTD SVG 1.1//EN"
       "http://www.w3.org/Graphics/SVG/1.1/DTD/svg11.dtd">
<svg version="1.1" xmlns="http://www.w3.org/2000/svg" xmlns:xlink="http://www.w3.org/1999/xlink" viewBox="0 0 26.5195 25.0195">
 <g>
  <rect height="25.0195" opacity="0" width="26.5195" x="0" y="0"/>
  <path d="M1.55859 22.2188L24.6094 22.2188L24.6094 21.4336C24.6094 20.9648 24.3398 20.6836 23.8594 20.6836L23.1094 20.6836L23.1094 8.03906L24.1406 8.03906C24.7852 8.03906 25.1602 7.57031 25.1602 7.08984C25.1602 6.73828 24.9609 6.43359 24.5273 6.1875L14.5195 0.410156C14.0508 0.140625 13.5586 0 13.0781 0C12.5977 0 12.0938 0.140625 11.6484 0.410156L1.64062 6.1875C1.19531 6.43359 1.00781 6.73828 1.00781 7.08984C1.00781 7.57031 1.38281 8.03906 2.02734 8.03906L3.05859 8.03906L3.05859 20.6836L2.32031 20.6836C1.83984 20.6836 1.55859 20.9648 1.55859 21.4336ZM4.82812 20.6836L4.82812 6.53906L12.6211 2.16797C12.7617 2.08594 12.9258 2.03906 13.0781 2.03906C13.2305 2.03906 13.3945 2.08594 13.5469 2.16797L21.3398 6.53906L21.3398 20.6836ZM0.9375 25.0078L25.2188 25.0078C25.7344 25.0078 26.168 24.5742 26.168 24.0586C26.168 23.543 25.7344 23.1211 25.2188 23.1211L0.9375 23.1211C0.421875 23.1211 0 23.543 0 24.0586C0 24.5742 0.421875 25.0078 0.9375 25.0078Z" fill="black" fill-opacity="0.85"/>
  <path d="M9.21094 17.1328C9.58594 17.1328 9.84375 16.8633 9.84375 16.4531L9.84375 14.4727L10.5352 13.8047L12.6797 16.8047C12.8203 17.0039 13.0078 17.1328 13.2539 17.1328C13.5938 17.1328 13.8633 16.8867 13.8633 16.5586C13.8633 16.3945 13.793 16.2539 13.6875 16.1016L11.4492 13.0078L13.5352 10.8164C13.6875 10.6406 13.7695 10.5469 13.7695 10.3477C13.7695 10.043 13.5234 9.78516 13.1953 9.78516C13.0078 9.78516 12.8086 9.90234 12.6914 10.0312L9.87891 13.1133L9.84375 13.1133L9.84375 7.71094C9.84375 7.30078 9.58594 7.01953 9.21094 7.01953C8.82422 7.01953 8.55469 7.28906 8.55469 7.69922L8.55469 16.4531C8.55469 16.8633 8.82422 17.1328 9.21094 17.1328ZM15.8086 17.1328C16.1016 17.1328 16.4297 16.957 16.4297 16.4531L16.4297 12.7852C16.4297 11.9414 16.7461 11.0273 17.7539 11.0273C17.9883 11.0273 18.2227 10.9922 18.3984 10.8867C18.5508 10.8047 18.6445 10.6641 18.6445 10.4531C18.6445 10.0195 18.3164 9.78516 17.8828 9.78516C17.1328 9.78516 16.6172 10.4414 16.4414 11.1914L16.3711 11.1914L16.3711 10.4414C16.3711 10.0664 16.1133 9.78516 15.7852 9.78516C15.4453 9.78516 15.1875 10.0664 15.1875 10.4414L15.1875 16.4531C15.1875 16.8633 15.4102 17.1328 15.8086 17.1328Z" fill="black" fill-opacity="0.85"/>
 </g>
</svg>
