<?xml version="1.0" encoding="UTF-8"?>
<!--Generator: Apple Native CoreSVG 360-->
<!DOCTYPE svg
PUBLIC "-//W3C//DTD SVG 1.1//EN"
       "http://www.w3.org/Graphics/SVG/1.1/DTD/svg11.dtd">
<svg version="1.1" xmlns="http://www.w3.org/2000/svg" xmlns:xlink="http://www.w3.org/1999/xlink" viewBox="0 0 28.582 23.4085">
 <g>
  <rect height="23.4085" opacity="0" width="28.582" x="0" y="0"/>
  <path d="M28.2305 14.0539C28.2305 6.67105 22.5586 0.612457 15.3398 0.00308175C14.9648-0.0320745 14.6836 0.237457 14.6836 0.612457L14.6836 4.44449C14.6836 4.76089 14.9062 5.00699 15.2227 5.03043C19.7109 5.58121 23.2031 9.41324 23.2031 14.0539C23.2031 16.1632 22.4766 18.1086 21.1992 19.7375C21.0352 19.9367 21.0469 20.1945 21.2227 20.382L24.0234 23.1711C24.2812 23.4289 24.6797 23.4289 24.9141 23.1476C26.9883 20.6867 28.2305 17.5109 28.2305 14.0539Z" fill="black" fill-opacity="0.85"/>
  <path d="M0 14.0539C0 17.5226 1.24219 20.6984 3.31641 23.1593C3.55078 23.4406 3.9375 23.4289 4.20703 23.1711L7.00781 20.382C7.18359 20.1945 7.19531 19.9367 7.03125 19.7375C5.74219 18.1086 5.02734 16.1632 5.02734 14.0539C5.02734 9.41324 8.51953 5.58121 13.0078 5.03043C13.3242 5.00699 13.5469 4.76089 13.5469 4.44449L13.5469 0.612457C13.5469 0.237457 13.2656-0.0320745 12.8906 0.00308175C5.67188 0.612457 0 6.67105 0 14.0539Z" fill="black" fill-opacity="0.85"/>
  <path d="M10.2188 19.0109C10.5938 19.0109 10.8516 18.7414 10.8516 18.3312L10.8516 16.3507L11.543 15.6828L13.6875 18.6828C13.8281 18.882 14.0156 19.0109 14.2734 19.0109C14.6133 19.0109 14.8828 18.7648 14.8828 18.4367C14.8828 18.2726 14.8125 18.132 14.6953 17.9796L12.4688 14.8859L14.5547 12.6945C14.707 12.5187 14.7773 12.425 14.7773 12.2257C14.7773 11.9211 14.5312 11.6632 14.2031 11.6632C14.0273 11.6632 13.8164 11.7804 13.6992 11.9093L10.8984 14.9914L10.8516 14.9914L10.8516 9.58902C10.8516 9.17886 10.5938 8.89761 10.2188 8.89761C9.84375 8.89761 9.5625 9.16714 9.5625 9.5773L9.5625 18.3312C9.5625 18.7414 9.84375 19.0109 10.2188 19.0109ZM16.8281 19.0109C17.1094 19.0109 17.4375 18.8351 17.4375 18.3312L17.4375 14.6632C17.4375 13.8195 17.7539 12.9054 18.7617 12.9054C19.0078 12.9054 19.2305 12.8703 19.4062 12.7648C19.5586 12.6828 19.6523 12.5421 19.6523 12.3312C19.6523 11.8976 19.3242 11.6632 18.8906 11.6632C18.1406 11.6632 17.625 12.3195 17.4492 13.0695L17.3789 13.0695L17.3789 12.3195C17.3789 11.9445 17.1211 11.6632 16.793 11.6632C16.4531 11.6632 16.1953 11.9445 16.1953 12.3195L16.1953 18.3312C16.1953 18.7414 16.418 19.0109 16.8281 19.0109Z" fill="black" fill-opacity="0.85"/>
 </g>
</svg>
