<?xml version="1.0" encoding="UTF-8"?>
<!--Generator: Apple Native CoreSVG 360-->
<!DOCTYPE svg
PUBLIC "-//W3C//DTD SVG 1.1//EN"
       "http://www.w3.org/Graphics/SVG/1.1/DTD/svg11.dtd">
<svg version="1.1" xmlns="http://www.w3.org/2000/svg" xmlns:xlink="http://www.w3.org/1999/xlink" viewBox="0 0 23.9297 23.0977">
 <g>
  <rect height="23.0977" opacity="0" width="23.9297" x="0" y="0"/>
  <path d="M5.17969 22.6523C6.26953 22.6523 7.38281 22.207 8.33203 21.4453L7.125 20.2266C6.55078 20.6367 5.89453 20.8594 5.19141 20.8594C3.33984 20.8594 1.95703 19.6055 1.95703 17.8359C1.95703 15.2695 4.10156 13.9805 6.55078 14.3555C7.96875 11.2383 8.69531 7.47656 9.50391 4.11328C9.85547 2.67188 10.5117 1.88672 11.7891 1.88672C13.0664 1.88672 13.7227 2.67188 14.0625 4.11328C14.8828 7.47656 15.6094 11.2383 17.0273 14.3555C19.4766 13.9805 21.6211 15.2695 21.6211 17.8359C21.6211 19.6055 20.2383 20.8594 18.3867 20.8594C17.6836 20.8594 17.0273 20.6367 16.4414 20.2266L15.2461 21.4453C16.1836 22.207 17.3086 22.6523 18.3984 22.6523C21.5156 22.6523 23.5781 20.6836 23.5781 17.7188C23.5781 14.8945 21.5391 12.7852 18.4336 12.4453C17.3672 9.65625 16.5234 6.58594 15.8438 3.64453C15.3047 1.26562 13.9688 0 11.7891 0C9.60938 0 8.27344 1.26562 7.73438 3.64453C7.05469 6.58594 6.21094 9.65625 5.14453 12.4453C2.03906 12.7852 0 14.8945 0 17.7188C0 20.6836 2.0625 22.6523 5.17969 22.6523ZM11.7891 23.0039C14.6484 23.0039 16.1602 21.668 17.2031 20.3203C17.4492 20.4727 17.7188 20.5547 18.0117 20.5547C18.9492 20.5547 19.4883 19.8984 19.4883 19.2188C19.4883 18.5391 18.9844 17.8828 18.1055 17.8828C17.4727 17.8828 17.1094 18.2227 16.582 18.7969C15.1289 20.3555 13.8164 21.0352 11.7891 21.0352C9.76172 21.0352 8.4375 20.3672 6.99609 18.7969C6.46875 18.2227 6.10547 17.8828 5.47266 17.8828C4.58203 17.8828 4.08984 18.5391 4.08984 19.2188C4.08984 19.8984 4.62891 20.5547 5.55469 20.5547C5.85938 20.5547 6.12891 20.4727 6.36328 20.3203C7.41797 21.668 8.92969 23.0039 11.7891 23.0039Z" fill="black" fill-opacity="0.85"/>
 </g>
</svg>
