<?xml version="1.0" encoding="UTF-8"?>
<!--Generator: Apple Native CoreSVG 360-->
<!DOCTYPE svg
PUBLIC "-//W3C//DTD SVG 1.1//EN"
       "http://www.w3.org/Graphics/SVG/1.1/DTD/svg11.dtd">
<svg version="1.1" xmlns="http://www.w3.org/2000/svg" xmlns:xlink="http://www.w3.org/1999/xlink" viewBox="0 0 16.6641 16.792">
 <g>
  <rect height="16.792" opacity="0" width="16.6641" x="0" y="0"/>
  <path d="M2.14453 16.5464C2.66016 16.9096 3.31641 16.8042 3.69141 16.2768L14.4023 1.68699C14.7539 1.21824 14.6719 0.58543 14.1562 0.233867C13.6289-0.129414 13.0664-0.0942578 12.6211 0.515117L1.99219 14.9995C1.60547 15.5386 1.58203 16.1714 2.14453 16.5464ZM1.04297 5.7534L15.2695 5.7534C15.832 5.7534 16.3125 5.27293 16.3125 4.69871C16.3125 4.12449 15.832 3.65574 15.2695 3.65574L1.04297 3.65574C0.480469 3.65574 0 4.12449 0 4.69871C0 5.27293 0.480469 5.7534 1.04297 5.7534ZM1.04297 13.1596L15.2695 13.1596C15.832 13.1596 16.3125 12.6909 16.3125 12.1167C16.3125 11.5425 15.832 11.062 15.2695 11.062L1.04297 11.062C0.480469 11.062 0 11.5425 0 12.1167C0 12.6909 0.480469 13.1596 1.04297 13.1596Z" fill="black" fill-opacity="0.85"/>
 </g>
</svg>
