<?xml version="1.0" encoding="UTF-8"?>
<!--Generator: Apple Native CoreSVG 360-->
<!DOCTYPE svg
PUBLIC "-//W3C//DTD SVG 1.1//EN"
       "http://www.w3.org/Graphics/SVG/1.1/DTD/svg11.dtd">
<svg version="1.1" xmlns="http://www.w3.org/2000/svg" xmlns:xlink="http://www.w3.org/1999/xlink" viewBox="0 0 22.6641 17.1445">
 <g>
  <rect height="17.1445" opacity="0" width="22.6641" x="0" y="0"/>
  <path d="M18.2344 8.17969C20.6367 8.17969 22.3125 6.53906 22.3125 4.17188C22.3125 1.81641 20.6367 0.164062 18.2344 0.164062C15.9023 0.164062 14.2852 1.81641 14.2852 4.17188C14.2852 6.53906 15.9141 8.17969 18.2344 8.17969ZM18.2344 6.62109C16.9922 6.62109 16.125 5.61328 16.125 4.17188C16.125 2.73047 16.9922 1.73438 18.2344 1.73438C19.5586 1.73438 20.4609 2.73047 20.4609 4.17188C20.4609 5.61328 19.5469 6.62109 18.2344 6.62109ZM0.996094 17.1445C1.62891 17.1445 2.00391 16.7461 2.00391 16.1133L2.00391 3.86719L1.95703 3.86719L10.3945 16.3594C10.8047 16.9453 11.1211 17.1445 11.6367 17.1445C12.3164 17.1445 12.7148 16.7227 12.7148 15.9961L12.7148 1.27734C12.7148 0.632812 12.3398 0.222656 11.707 0.222656C11.0977 0.222656 10.7109 0.632812 10.7109 1.27734L10.7109 13.5117L10.7578 13.5117L2.32031 1.00781C1.91016 0.410156 1.61719 0.222656 1.07812 0.222656C0.421875 0.222656 0 0.679688 0 1.37109L0 16.1133C0 16.7461 0.398438 17.1445 0.996094 17.1445ZM15.4336 11.1094L21.1758 11.1094C21.7383 11.1094 22.1719 10.7578 22.1719 10.1836C22.1719 9.60938 21.7383 9.23438 21.1758 9.23438L15.4336 9.23438C14.8711 9.23438 14.4609 9.60938 14.4609 10.1836C14.4609 10.7578 14.8711 11.1094 15.4336 11.1094Z" fill="black" fill-opacity="0.85"/>
 </g>
</svg>
