<?xml version="1.0" encoding="UTF-8"?>
<!--Generator: Apple Native CoreSVG 360-->
<!DOCTYPE svg
PUBLIC "-//W3C//DTD SVG 1.1//EN"
       "http://www.w3.org/Graphics/SVG/1.1/DTD/svg11.dtd">
<svg version="1.1" xmlns="http://www.w3.org/2000/svg" xmlns:xlink="http://www.w3.org/1999/xlink" viewBox="0 0 23.9311 21.2432">
 <g>
  <rect height="21.2432" opacity="0" width="23.9311" x="0" y="0"/>
  <path d="M20.8718 2.272L18.7976 0.197778C18.5281-0.0717529 18.1296-0.0600342 17.8718 0.197778C17.614 0.455591 17.6023 0.854028 17.8718 1.11184L19.946 3.19778C20.2156 3.45559 20.614 3.44387 20.8718 3.19778C21.1296 2.92825 21.1413 2.52981 20.8718 2.272ZM6.19993 13.9322L7.12571 14.8579L19.9226 2.07278L18.9968 1.147ZM0.903055 20.1665C1.87571 21.1275 3.00071 21.3501 3.65696 20.6704L8.09837 16.2056C8.83665 15.4907 9.18821 14.8111 9.3054 14.0845L9.65696 11.9751L9.08274 11.4126L6.97337 11.7642C6.25852 11.8697 5.57884 12.2329 4.85227 12.9595L0.38743 17.4126C-0.280539 18.0689-0.0696012 19.1939 0.903055 20.1665ZM2.70774 2.272C2.44993 2.52981 2.46165 2.92825 2.70774 3.19778C2.97727 3.44387 3.37571 3.45559 3.63352 3.19778L5.70774 1.11184C5.97727 0.854028 5.96556 0.455591 5.70774 0.197778C5.44993-0.0600342 5.05149-0.0717529 4.78196 0.197778ZM17.3796 13.9322L4.58274 1.147L3.65696 2.07278L16.4538 14.8579ZM22.6765 20.1665C23.6491 19.1939 23.8601 18.0689 23.1921 17.4126L18.7273 12.9595C18.0007 12.2329 17.3327 11.8697 16.6062 11.7642L14.4968 11.4126L13.9343 11.9751L14.2741 14.0845C14.3913 14.8111 14.7429 15.4907 15.4812 16.2056L19.9226 20.6704C20.5788 21.3501 21.7156 21.1275 22.6765 20.1665Z" fill="black" fill-opacity="0.85"/>
 </g>
</svg>
