<?xml version="1.0" encoding="UTF-8"?>
<!--Generator: Apple Native CoreSVG 360-->
<!DOCTYPE svg
PUBLIC "-//W3C//DTD SVG 1.1//EN"
       "http://www.w3.org/Graphics/SVG/1.1/DTD/svg11.dtd">
<svg version="1.1" xmlns="http://www.w3.org/2000/svg" xmlns:xlink="http://www.w3.org/1999/xlink" viewBox="0 0 41.7453 29.7773">
 <g>
  <rect height="29.7773" opacity="0" width="41.7453" x="0" y="0"/>
  <path d="M38.7672 19.5352L40.5015 22.7578C40.9469 23.5781 41.3922 24.4336 41.3922 25.3477C41.3922 26.9297 40.0797 28.1836 38.4976 28.1836C36.9039 28.1836 35.6031 26.9297 35.6031 25.3477C35.6031 24.4336 36.0484 23.5781 36.482 22.7578L38.2398 19.5469C38.2984 19.418 38.3687 19.3594 38.4976 19.3594C38.6031 19.3594 38.7086 19.418 38.7672 19.5352ZM3.68123 12L8.87264 13.957C9.15389 13.9102 9.45858 13.875 9.79842 13.875L11.8092 13.875C11.5065 14.3858 11.278 14.9605 11.1569 15.5859L9.83358 15.5859C8.61483 15.5859 7.95858 16.2539 7.95858 17.4844L7.95858 23.4844C7.95858 24.7266 8.61483 25.3828 9.83358 25.3828L19.9234 25.3828C21.1187 25.3828 21.9859 24.9727 22.7359 24.0117L28.818 16.2422L21.8219 18.0938C21.8131 18.0962 21.8044 18.0985 21.7961 18.1003C21.9294 17.6373 21.9976 17.1471 21.9976 16.6406C21.9976 16.514 21.9932 16.389 21.9841 16.2659L35.732 12.6211C36.482 12.4219 36.8219 12.5391 37.1969 12.8672L38.9664 14.4141C39.939 15.2812 38.6851 16.5117 37.7242 15.6797L36.107 14.2969L31.5601 15.5039L23.6734 25.6055C22.8531 26.6484 21.7047 27.0938 19.9234 27.0938L9.79842 27.0938C8.35702 27.0938 7.39608 26.707 6.68123 25.6289L0.669516 16.3711C-1.10002 13.6875 0.892172 10.9453 3.68123 12ZM1.80623 15.0586L6.24764 21.8789L6.24764 17.3906C6.24764 16.4062 6.4703 15.6328 6.88045 15.0703L2.93123 13.5469C1.89998 13.1719 1.2203 14.1211 1.80623 15.0586Z" fill="black" fill-opacity="0.85"/>
  <path d="M16.5133 20.5195C18.6695 20.5195 20.4039 18.7969 20.4039 16.6406C20.4039 15.1406 19.5367 13.9453 18.4 13.3125C17.9898 13.0898 17.7906 12.7383 17.7906 12.1289L17.7906 2.85938C17.7906 2.16797 17.2164 1.59375 16.525 1.59375C15.8219 1.59375 15.2594 2.16797 15.2594 2.85938L15.2594 12.1289C15.2594 12.7148 15.0484 13.0547 14.6148 13.2891C13.4898 13.9219 12.6461 15.1406 12.6461 16.6406C12.6461 18.7969 14.3687 20.5195 16.5133 20.5195ZM20.9781 4.13672L23.5211 4.13672C23.9312 4.13672 24.2125 3.82031 24.2125 3.45703C24.2125 3.09375 23.9312 2.76562 23.5211 2.76562L20.9781 2.76562C20.568 2.76562 20.2867 3.09375 20.2867 3.45703C20.2867 3.82031 20.568 4.13672 20.9781 4.13672ZM20.9781 7.23047L23.5211 7.23047C23.9312 7.23047 24.2125 6.91406 24.2125 6.55078C24.2125 6.1875 23.9312 5.87109 23.5211 5.87109L20.9781 5.87109C20.568 5.87109 20.2867 6.1875 20.2867 6.55078C20.2867 6.91406 20.568 7.23047 20.9781 7.23047ZM20.9781 10.3242L23.5211 10.3242C23.9312 10.3242 24.2125 10.0078 24.2125 9.64453C24.2125 9.28125 23.9312 8.96484 23.5211 8.96484L20.9781 8.96484C20.568 8.96484 20.2867 9.28125 20.2867 9.64453C20.2867 10.0078 20.568 10.3242 20.9781 10.3242Z" fill="black" fill-opacity="0.85"/>
 </g>
</svg>
