<?xml version="1.0" encoding="UTF-8"?>
<!--Generator: Apple Native CoreSVG 360-->
<!DOCTYPE svg
PUBLIC "-//W3C//DTD SVG 1.1//EN"
       "http://www.w3.org/Graphics/SVG/1.1/DTD/svg11.dtd">
<svg version="1.1" xmlns="http://www.w3.org/2000/svg" xmlns:xlink="http://www.w3.org/1999/xlink" viewBox="0 0 24.2578 23.918">
 <g>
  <rect height="23.918" opacity="0" width="24.2578" x="0" y="0"/>
  <path d="M7.64062 13.9453L7.37109 12.9727L0.878906 15.082L1.19531 16.043ZM8.30859 15.3516L7.67578 14.5547L2.40234 18.4336L3.01172 19.2539ZM10.9805 16.7695L10.0547 16.3594L7.95703 22.8047L8.91797 23.1328ZM12.9492 7.27734L13.9219 7.57031L15.9609 1.28906L15 0.960938ZM15.5742 8.77734L16.207 9.5625L21.5156 5.63672L20.9062 4.83984ZM16.2891 10.1367L16.6406 11.0742L23.0391 9.01172L22.7227 8.03906ZM11.9531 17.3555C14.9414 17.3555 17.3555 14.9414 17.3555 11.9531C17.3555 8.96484 14.9414 6.55078 11.9531 6.55078C8.96484 6.55078 6.55078 8.96484 6.55078 11.9531C6.55078 14.9414 8.96484 17.3555 11.9531 17.3555ZM11.9531 16.1484C9.64453 16.1484 7.75781 14.2617 7.75781 11.9531C7.75781 9.63281 9.64453 7.75781 11.9531 7.75781C14.2734 7.75781 16.1484 9.63281 16.1484 11.9531C16.1484 14.2617 14.2734 16.1484 11.9531 16.1484ZM11.9531 14.8008C13.5352 14.8008 14.8008 13.5234 14.8008 11.9531C14.8008 10.3711 13.5352 9.10547 11.9531 9.10547C10.3711 9.10547 9.10547 10.3711 9.10547 11.9531C9.10547 13.5234 10.3711 14.8008 11.9531 14.8008ZM11.9531 13.4883C11.0977 13.4883 10.418 12.7969 10.418 11.9531C10.418 11.0977 11.0977 10.418 11.9531 10.418C12.8086 10.418 13.4883 11.0977 13.4883 11.9531C13.4883 12.7969 12.8086 13.4883 11.9531 13.4883ZM11.9531 23.9062C18.5508 23.9062 23.9062 18.5508 23.9062 11.9531C23.9062 5.35547 18.5508 0 11.9531 0C5.35547 0 0 5.35547 0 11.9531C0 18.5508 5.35547 23.9062 11.9531 23.9062ZM11.9531 21.9141C6.44531 21.9141 1.99219 17.4609 1.99219 11.9531C1.99219 6.44531 6.44531 1.99219 11.9531 1.99219C17.4609 1.99219 21.9141 6.44531 21.9141 11.9531C21.9141 17.4609 17.4609 21.9141 11.9531 21.9141Z" fill="black" fill-opacity="0.85"/>
 </g>
</svg>
