<?xml version="1.0" encoding="UTF-8"?>
<!--Generator: Apple Native CoreSVG 360-->
<!DOCTYPE svg
PUBLIC "-//W3C//DTD SVG 1.1//EN"
       "http://www.w3.org/Graphics/SVG/1.1/DTD/svg11.dtd">
<svg version="1.1" xmlns="http://www.w3.org/2000/svg" xmlns:xlink="http://www.w3.org/1999/xlink" viewBox="0 0 28.9219 20.1211">
 <g>
  <rect height="20.1211" opacity="0" width="28.9219" x="0" y="0"/>
  <path d="M14.2852 20.1094C21.9492 20.1094 28.5703 14.6719 28.5703 10.0547C28.5703 5.4375 21.9492 0 14.2852 0C6.63281 0 0 5.4375 0 10.0547C0 14.6719 6.63281 20.1094 14.2852 20.1094ZM14.2852 18.3867C7.07812 18.3867 1.73438 13.3242 1.73438 10.0547C1.73438 6.77344 7.07812 1.72266 14.2852 1.72266C21.4922 1.72266 26.8594 6.77344 26.8594 10.0547C26.8594 13.3242 21.4922 18.3867 14.2852 18.3867Z" fill="black" fill-opacity="0.85"/>
  <path d="M14.2852 17.0625C18.9375 17.0625 21.1406 12.8672 21.1523 11.2969C21.1523 10.9453 20.8594 10.6289 20.4961 10.6289C20.1797 10.6289 19.875 10.875 19.8164 11.168C19.3008 13.7812 17.0273 15.7031 14.2852 15.7031C13.125 15.7031 12.0469 15.3984 11.1328 14.7773C11.0039 14.707 10.8984 14.6719 10.7578 14.6719C10.3711 14.6719 10.1016 14.9766 10.1016 15.3516C10.1016 15.5625 10.1953 15.7734 10.3945 15.9023C11.4961 16.6523 12.8438 17.0625 14.2852 17.0625ZM7.26562 10.0547C7.26562 11.4844 7.67578 12.8203 8.42578 13.9336C8.55469 14.1328 8.76562 14.2266 8.97656 14.2266C9.30469 14.2266 9.65625 13.9922 9.65625 13.5586C9.65625 13.4062 9.62109 13.2773 9.53906 13.1602C8.92969 12.293 8.625 11.2148 8.625 10.0547C8.625 8.89453 8.94141 7.82812 9.53906 6.9375C9.62109 6.82031 9.65625 6.66797 9.65625 6.53906C9.65625 6.15234 9.35156 5.87109 8.97656 5.87109C8.77734 5.87109 8.56641 5.96484 8.42578 6.16406C7.67578 7.28906 7.26562 8.61328 7.26562 10.0547ZM14.2852 3.03516C12.8438 3.03516 11.4961 3.45703 10.3945 4.20703C10.1836 4.33594 10.1016 4.54688 10.1016 4.75781C10.1016 5.14453 10.3828 5.46094 10.7812 5.46094C10.9102 5.46094 11.0391 5.41406 11.168 5.33203C12.0586 4.73438 13.1367 4.39453 14.2852 4.39453C17.0273 4.39453 19.2891 6.32812 19.8281 8.94141C19.8867 9.23438 20.1797 9.48047 20.4961 9.48047C20.8711 9.48047 21.1641 9.17578 21.1641 8.8125C21.1289 7.20703 18.9141 3.03516 14.2852 3.03516Z" fill="black" fill-opacity="0.85"/>
  <path d="M14.2852 14.543C15.3984 14.543 16.3945 14.1328 17.1562 13.4883C17.3438 13.3242 17.4375 13.1367 17.4375 12.9375C17.4375 12.5625 17.1211 12.2695 16.7578 12.2695C16.5938 12.2695 16.4297 12.3164 16.3125 12.4453C15.8203 12.9141 15.1172 13.1836 14.3438 13.1836C12.5039 13.1836 11.1445 11.7422 11.1445 10.043C11.1445 8.67188 12.0117 7.53516 13.2422 7.08984C13.5117 7.00781 13.6992 6.72656 13.6992 6.48047C13.6992 6.08203 13.3828 5.78906 13.0195 5.78906C11.9531 5.78906 9.78516 7.59375 9.78516 10.0781C9.78516 12.5391 11.7539 14.543 14.2852 14.543ZM18.75 10.0547C18.75 7.54688 16.5938 5.78906 15.5508 5.78906C15.1758 5.78906 14.8594 6.08203 14.8594 6.48047C14.8594 6.72656 15.0469 7.00781 15.3164 7.08984C16.5352 7.53516 17.4141 8.67188 17.4141 10.0547C17.4141 10.2422 17.3438 10.5938 17.3438 10.7344C17.332 11.2031 17.6484 11.4258 18.0352 11.4258C18.4688 11.4258 18.6445 11.1562 18.7148 10.8164C18.75 10.6055 18.75 10.3125 18.75 10.0547Z" fill="black" fill-opacity="0.85"/>
  <path d="M14.2734 12C15.3516 12 16.2188 11.1328 16.2188 10.0547C16.2188 8.97656 15.3516 8.10938 14.2734 8.10938C13.1953 8.10938 12.3281 8.97656 12.3281 10.0547C12.3281 11.1328 13.1953 12 14.2734 12Z" fill="black" fill-opacity="0.85"/>
 </g>
</svg>
