<?xml version="1.0" encoding="UTF-8"?>
<!--Generator: Apple Native CoreSVG 360-->
<!DOCTYPE svg
PUBLIC "-//W3C//DTD SVG 1.1//EN"
       "http://www.w3.org/Graphics/SVG/1.1/DTD/svg11.dtd">
<svg version="1.1" xmlns="http://www.w3.org/2000/svg" xmlns:xlink="http://www.w3.org/1999/xlink" viewBox="0 0 24.2578 23.918">
 <g>
  <rect height="23.918" opacity="0" width="24.2578" x="0" y="0"/>
  <path d="M11.9531 23.9062C18.5508 23.9062 23.9062 18.5508 23.9062 11.9531C23.9062 5.35547 18.5508 0 11.9531 0C5.35547 0 0 5.35547 0 11.9531C0 18.5508 5.35547 23.9062 11.9531 23.9062ZM11.9531 21.9141C6.44531 21.9141 1.99219 17.4609 1.99219 11.9531C1.99219 6.44531 6.44531 1.99219 11.9531 1.99219C17.4609 1.99219 21.9141 6.44531 21.9141 11.9531C21.9141 17.4609 17.4609 21.9141 11.9531 21.9141Z" fill="black" fill-opacity="0.85"/>
  <path d="M9.42188 17.3203C10.043 17.3203 10.3711 16.9102 10.3711 16.2656L10.3711 13.6992L12.6797 13.6992C14.9648 13.6992 16.5 12.2695 16.5 10.1133C16.5 7.95703 14.9531 6.50391 12.6914 6.50391L9.41016 6.50391C8.8125 6.50391 8.49609 6.92578 8.49609 7.55859L8.49609 16.2656C8.49609 16.8867 8.82422 17.3203 9.42188 17.3203ZM10.3711 12.2695L10.3711 7.93359L12.4219 7.93359C13.793 7.93359 14.6484 8.76562 14.6484 10.1133C14.6484 11.4375 13.8047 12.2695 12.4219 12.2695Z" fill="black" fill-opacity="0.85"/>
 </g>
</svg>
