<?xml version="1.0" encoding="UTF-8"?>
<!--Generator: Apple Native CoreSVG 360-->
<!DOCTYPE svg
PUBLIC "-//W3C//DTD SVG 1.1//EN"
       "http://www.w3.org/Graphics/SVG/1.1/DTD/svg11.dtd">
<svg version="1.1" xmlns="http://www.w3.org/2000/svg" xmlns:xlink="http://www.w3.org/1999/xlink" viewBox="0 0 21.9258 21.5742">
 <g>
  <rect height="21.5742" opacity="0" width="21.9258" x="0" y="0"/>
  <path d="M3.67969 21.5742L17.8945 21.5742C20.3555 21.5742 21.5742 20.3672 21.5742 17.9531L21.5742 3.63281C21.5742 1.21875 20.3555 0 17.8945 0L3.67969 0C1.23047 0 0 1.21875 0 3.63281L0 17.9531C0 20.3672 1.23047 21.5742 3.67969 21.5742ZM3.70312 19.6875C2.53125 19.6875 1.88672 19.0664 1.88672 17.8477L1.88672 3.73828C1.88672 2.51953 2.53125 1.88672 3.70312 1.88672L17.8711 1.88672C19.0312 1.88672 19.6875 2.51953 19.6875 3.73828L19.6875 17.8477C19.6875 19.0664 19.0312 19.6875 17.8711 19.6875Z" fill="black" fill-opacity="0.85"/>
  <path d="M8.27344 16.1602C8.89453 16.1602 9.22266 15.75 9.22266 15.1055L9.22266 12.5391L11.5312 12.5391C13.8281 12.5391 15.3516 11.1094 15.3516 8.95312C15.3516 6.79688 13.8047 5.34375 11.543 5.34375L8.27344 5.34375C7.66406 5.34375 7.34766 5.76562 7.34766 6.39844L7.34766 15.1055C7.34766 15.7266 7.67578 16.1602 8.27344 16.1602ZM9.22266 11.1094L9.22266 6.77344L11.2734 6.77344C12.6445 6.77344 13.5 7.60547 13.5 8.95312C13.5 10.2773 12.6562 11.1094 11.2734 11.1094Z" fill="black" fill-opacity="0.85"/>
 </g>
</svg>
