<?xml version="1.0" encoding="UTF-8"?>
<!--Generator: Apple Native CoreSVG 360-->
<!DOCTYPE svg
PUBLIC "-//W3C//DTD SVG 1.1//EN"
       "http://www.w3.org/Graphics/SVG/1.1/DTD/svg11.dtd">
<svg version="1.1" xmlns="http://www.w3.org/2000/svg" xmlns:xlink="http://www.w3.org/1999/xlink" viewBox="0 0 27.9844 21.0586">
 <g>
  <rect height="21.0586" opacity="0" width="27.9844" x="0" y="0"/>
  <path d="M9.23438 21.0352L18.3984 21.0352C25.1953 21.0352 27.6328 18.5156 27.6328 12.2461L27.6328 8.80078C27.6328 2.53125 25.1953 0 18.3984 0L9.23438 0C2.4375 0 0 2.53125 0 8.80078L0 12.2461C0 18.5156 2.4375 21.0352 9.23438 21.0352ZM9.23438 19.1484C3.70312 19.1484 1.88672 17.3555 1.88672 12.2461L1.88672 8.80078C1.88672 3.69141 3.70312 1.88672 9.23438 1.88672L18.3984 1.88672C23.9297 1.88672 25.7461 3.69141 25.7461 8.80078L25.7461 12.2461C25.7461 17.3555 23.9297 19.1484 18.3984 19.1484Z" fill="black" fill-opacity="0.85"/>
  <path d="M9.10547 15.375C9.66797 15.375 9.96094 15.0352 9.96094 14.4961L9.96094 12.1172L11.1914 12.1172C12.9844 12.1172 14.0156 10.7578 14.0156 8.95312C14.0156 7.17188 13.0078 5.76562 11.2969 5.76562L9.09375 5.76562C8.60156 5.76562 8.25 6.09375 8.25 6.66797L8.25 14.4961C8.25 15.0469 8.55469 15.375 9.10547 15.375ZM9.96094 10.7695L9.96094 7.14844L10.8633 7.14844C11.8477 7.14844 12.3164 7.85156 12.3164 8.95312C12.3164 9.99609 11.8945 10.7695 10.8516 10.7695ZM17.9414 15.3867C18.3984 15.3867 18.7852 15 18.7852 14.5312L18.7852 6.58594C18.7852 5.98828 18.4102 5.63672 17.8008 5.63672C17.3086 5.63672 16.9102 5.90625 16.6406 6.11719L15.3516 7.11328C15.1406 7.27734 14.9766 7.5 14.9766 7.80469C14.9766 8.16797 15.2227 8.42578 15.5742 8.42578C15.7617 8.42578 15.8789 8.36719 15.9961 8.28516L17.0742 7.41797L17.0742 14.5312C17.0742 15 17.4609 15.3867 17.9414 15.3867Z" fill="black" fill-opacity="0.85"/>
 </g>
</svg>
