<?xml version="1.0" encoding="UTF-8"?>
<!--Generator: Apple Native CoreSVG 360-->
<!DOCTYPE svg
PUBLIC "-//W3C//DTD SVG 1.1//EN"
       "http://www.w3.org/Graphics/SVG/1.1/DTD/svg11.dtd">
<svg version="1.1" xmlns="http://www.w3.org/2000/svg" xmlns:xlink="http://www.w3.org/1999/xlink" viewBox="0 0 27.9844 21.0586">
 <g>
  <rect height="21.0586" opacity="0" width="27.9844" x="0" y="0"/>
  <path d="M9.23438 21.0352L18.3984 21.0352C25.1953 21.0352 27.6328 18.5156 27.6328 12.2461L27.6328 8.80078C27.6328 2.53125 25.1953 0 18.3984 0L9.23438 0C2.4375 0 0 2.53125 0 8.80078L0 12.2461C0 18.5156 2.4375 21.0352 9.23438 21.0352ZM9.23438 19.1484C3.70312 19.1484 1.88672 17.3555 1.88672 12.2461L1.88672 8.80078C1.88672 3.69141 3.70312 1.88672 9.23438 1.88672L18.3984 1.88672C23.9297 1.88672 25.7461 3.69141 25.7461 8.80078L25.7461 12.2461C25.7461 17.3555 23.9297 19.1484 18.3984 19.1484Z" fill="black" fill-opacity="0.85"/>
  <path d="M8.46094 15.375C9.01172 15.375 9.30469 15.0352 9.30469 14.4961L9.30469 12.1172L10.5469 12.1172C12.3281 12.1172 13.3711 10.7578 13.3711 8.95312C13.3711 7.17188 12.3633 5.76562 10.6406 5.76562L8.44922 5.76562C7.95703 5.76562 7.59375 6.09375 7.59375 6.66797L7.59375 14.4961C7.59375 15.0469 7.91016 15.375 8.46094 15.375ZM9.30469 10.7695L9.30469 7.14844L10.2188 7.14844C11.2031 7.14844 11.6719 7.85156 11.6719 8.95312C11.6719 9.99609 11.25 10.7695 10.207 10.7695ZM18.7031 15.4102C19.1484 15.4102 19.5 15.1406 19.5 14.5781L19.5 13.4062L19.9219 13.4062C20.3789 13.4062 20.5898 13.1133 20.5898 12.7148C20.5898 12.3398 20.3906 12.0469 19.9219 12.0469L19.5 12.0469L19.5 6.90234C19.5 6.09375 18.9727 5.63672 18.2109 5.63672C17.3789 5.63672 16.9922 6.05859 16.6641 6.78516L14.5781 11.332C14.3789 11.7891 14.3086 12.0938 14.3086 12.457C14.3086 13.0195 14.6953 13.4062 15.2695 13.4062L17.8945 13.4062L17.8945 14.5781C17.8945 15.1992 18.3281 15.4102 18.7031 15.4102ZM17.9297 12.082L15.75 12.082L15.75 12L17.8828 7.11328L17.9297 7.11328Z" fill="black" fill-opacity="0.85"/>
 </g>
</svg>
