<?xml version="1.0" encoding="UTF-8"?>
<!--Generator: Apple Native CoreSVG 360-->
<!DOCTYPE svg
PUBLIC "-//W3C//DTD SVG 1.1//EN"
       "http://www.w3.org/Graphics/SVG/1.1/DTD/svg11.dtd">
<svg version="1.1" xmlns="http://www.w3.org/2000/svg" xmlns:xlink="http://www.w3.org/1999/xlink" viewBox="0 0 25.8165 28.0089">
 <g>
  <rect height="28.0089" opacity="0" width="25.8165" x="0" y="0"/>
  <path d="M18.0352 22.2486L17.2383 23.0455C16.418 23.8892 15.3633 23.8892 14.4961 23.0103L11.6602 20.1627C10.5938 21.7916 9.19925 25.0494 7.75784 26.4908C5.95315 28.2955 3.58597 28.272 1.75784 26.4322C-0.0820016 24.6158-0.0937203 22.2369 1.69925 20.4322C3.15237 18.9908 6.39847 17.5963 8.01565 16.5299L5.17972 13.6939C4.30081 12.815 4.30081 11.7955 5.14456 10.9517L5.94144 10.1549ZM3.43362 23.4556C3.43362 24.2525 4.07815 24.9088 4.88675 24.9088C5.68362 24.9088 6.32815 24.2525 6.32815 23.4556C6.32815 22.6588 5.68362 22.0142 4.88675 22.0142C4.07815 22.0142 3.43362 22.6588 3.43362 23.4556ZM14.6953 0.615791L20.7188 6.65095C20.5078 8.90095 19.5821 10.2838 18.1641 11.7017C18.0117 11.8658 18.0235 12.0767 18.1289 12.1822C18.7969 12.8502 22.2774 10.9986 23.4961 9.41657L24.0938 10.0259C25.418 11.3736 25.4532 12.9205 24.1524 14.2213L20.2924 18.0812L9.43393 7.21665C9.995 5.94297 10.536 4.35291 11.1211 1.97517C11.6485-0.134209 13.5821-0.49749 14.6953 0.615791Z" fill="black" fill-opacity="0.85"/>
  <path d="M22.9102 25.19C23.2735 25.5416 23.8477 25.5416 24.1875 25.19C24.5391 24.8384 24.5508 24.2642 24.1875 23.9127L3.31644 3.01814C2.96487 2.67829 2.37894 2.66657 2.02737 3.01814C1.67581 3.3697 1.67581 3.95564 2.02737 4.29548Z" fill="black" fill-opacity="0.85"/>
 </g>
</svg>
