<?xml version="1.0" encoding="UTF-8"?>
<!--Generator: Apple Native CoreSVG 360-->
<!DOCTYPE svg
PUBLIC "-//W3C//DTD SVG 1.1//EN"
       "http://www.w3.org/Graphics/SVG/1.1/DTD/svg11.dtd">
<svg version="1.1" xmlns="http://www.w3.org/2000/svg" xmlns:xlink="http://www.w3.org/1999/xlink" viewBox="0 0 25.6993 27.8939">
 <g>
  <rect height="27.8939" opacity="0" width="25.6993" x="0" y="0"/>
  <path d="M7.21219 11.4853L6.7969 11.8903C6.49222 12.195 6.49222 12.5348 6.7969 12.8395L9.62112 15.652C10.0547 16.0739 9.99612 16.6364 9.52737 17.1403C8.62503 18.0544 4.76956 19.6598 2.90628 21.5114C1.76956 22.6364 1.78128 24.0075 2.92972 25.1676C4.10159 26.3278 5.46097 26.3278 6.58597 25.1911C8.44925 23.3395 10.0547 19.484 10.9688 18.5817C11.461 18.1012 12.0235 18.0544 12.4571 18.488L15.2578 21.3005C15.5625 21.6286 15.9141 21.6169 16.2188 21.2887L16.6147 20.8878L17.9622 22.2352L17.2617 22.9411C16.3711 23.8317 15.2696 23.8317 14.3555 22.9059L11.8594 20.3981C10.7578 21.7106 9.26956 25.0505 7.85159 26.4684C5.92972 28.3903 3.64456 28.3669 1.68753 26.4098C-0.269502 24.4645-0.28122 22.1676 1.64065 20.2458C3.05862 18.8278 6.39847 17.3512 7.69925 16.2497L5.19144 13.7536C4.26565 12.8278 4.27737 11.738 5.168 10.8473L5.86841 10.1415ZM6.16409 23.3981C6.16409 24.195 5.51956 24.8512 4.72269 24.8512C3.92581 24.8512 3.26956 24.195 3.26956 23.3981C3.26956 22.6012 3.92581 21.9567 4.72269 21.9567C5.51956 21.9567 6.16409 22.6012 6.16409 23.3981ZM14.918 0.710612L24.1172 9.92155C25.4532 11.2575 25.4766 12.8161 24.1758 14.1169L20.2221 18.0706L18.91 16.7577L22.7227 12.945C23.2266 12.4411 23.2266 11.7848 22.6875 11.2458L21.8443 10.4036C20.5531 11.8623 17.3561 13.6019 16.7578 13.0036C16.6524 12.8981 16.6407 12.7106 16.793 12.5583C18.0493 11.302 19.0908 9.87394 19.3709 7.93356L13.9102 2.48014C13.5117 2.09342 13.0196 2.24577 12.8672 2.84342C12.0876 5.74261 11.7751 7.263 10.9732 8.81651L9.58319 7.42572C10.1551 6.21337 10.4259 4.89093 11.1211 1.87077C11.5547-0.0393881 13.6875-0.519857 14.918 0.710612Z" fill="black" fill-opacity="0.85"/>
  <path d="M22.793 25.1325C23.1446 25.484 23.7305 25.484 24.0703 25.1325C24.4219 24.7809 24.4219 24.2067 24.0703 23.8551L3.18753 2.96061C2.83597 2.62077 2.26175 2.60905 1.89847 2.96061C1.55862 3.31217 1.55862 3.89811 1.89847 4.23796Z" fill="black" fill-opacity="0.85"/>
 </g>
</svg>
