<?xml version="1.0" encoding="UTF-8"?>
<!--Generator: Apple Native CoreSVG 360-->
<!DOCTYPE svg
PUBLIC "-//W3C//DTD SVG 1.1//EN"
       "http://www.w3.org/Graphics/SVG/1.1/DTD/svg11.dtd">
<svg version="1.1" xmlns="http://www.w3.org/2000/svg" xmlns:xlink="http://www.w3.org/1999/xlink" viewBox="0 0 15.1992 22.2773">
 <g>
  <rect height="22.2773" opacity="0" width="15.1992" x="0" y="0"/>
  <path d="M1.44141 22.2773C2.32031 22.2773 2.89453 21.6797 2.89453 20.7891L2.89453 14.168L7.67578 14.168C11.9062 14.168 14.8477 11.2617 14.8477 7.11328C14.8477 2.94141 11.918 0.0703125 7.6875 0.0703125L1.44141 0.0703125C0.574219 0.0703125 0 0.65625 0 1.55859L0 20.7891C0 21.6914 0.574219 22.2773 1.44141 22.2773ZM2.89453 11.4961L2.89453 2.71875L7.14844 2.71875C10.1602 2.71875 11.8945 4.3125 11.8945 7.11328C11.8945 9.89062 10.1602 11.4961 7.14844 11.4961Z" fill="black" fill-opacity="0.85"/>
 </g>
</svg>
