<?xml version="1.0" encoding="UTF-8"?>
<!--Generator: Apple Native CoreSVG 360-->
<!DOCTYPE svg
PUBLIC "-//W3C//DTD SVG 1.1//EN"
       "http://www.w3.org/Graphics/SVG/1.1/DTD/svg11.dtd">
<svg version="1.1" xmlns="http://www.w3.org/2000/svg" xmlns:xlink="http://www.w3.org/1999/xlink" viewBox="0 0 16.6875 24.6445">
 <g>
  <rect height="24.6445" opacity="0" width="16.6875" x="0" y="0"/>
  <path d="M8.58984 15.1641C10.4766 15.0938 12.3164 14.2734 13.7227 12.8672C15.1172 11.4727 15.9258 9.64453 15.9844 7.75781C16.0195 7.27734 15.6914 6.92578 15.2695 6.96094C14.8477 6.98438 14.6367 7.33594 14.6133 7.78125C14.5195 9.31641 13.875 10.7344 12.7266 11.8828C11.5781 13.043 10.1484 13.6641 8.63672 13.7578C8.17969 13.7812 7.80469 14.0039 7.80469 14.4609C7.79297 14.9062 8.10938 15.1875 8.58984 15.1641Z" fill="black" fill-opacity="0.85"/>
  <path d="M8.66016 12.1055C9.71484 12 10.7578 11.4961 11.5664 10.7227C12.3633 9.91406 12.8438 8.85938 12.9609 7.81641C13.0195 7.32422 12.6445 6.96094 12.2227 6.98438C11.8125 7.00781 11.6133 7.37109 11.543 7.80469C11.4492 8.50781 11.1094 9.17578 10.5469 9.71484C10.0078 10.2773 9.35156 10.6289 8.64844 10.7109C8.21484 10.7812 7.82812 10.957 7.82812 11.4375C7.81641 11.8945 8.13281 12.1641 8.66016 12.1055Z" fill="black" fill-opacity="0.85"/>
  <path d="M1.41797 14.6953C2.02734 14.6953 2.4375 14.2852 2.4375 13.6641L2.4375 9.42188L5.46094 9.42188C8.28516 9.42188 10.2188 7.51172 10.2188 4.74609C10.2188 2.00391 8.29688 0.0820312 5.47266 0.0820312L1.41797 0.0820312C0.808594 0.0820312 0.398438 0.492188 0.398438 1.125L0.398438 13.6641C0.398438 14.2852 0.808594 14.6953 1.41797 14.6953ZM2.4375 7.53516L2.4375 1.96875L5.12109 1.96875C7.05469 1.96875 8.13281 2.95312 8.13281 4.74609C8.13281 6.53906 7.05469 7.53516 5.12109 7.53516Z" fill="black" fill-opacity="0.85"/>
  <path d="M2.95312 24.6445C4.93359 24.6445 5.90625 23.1914 5.90625 21.2578C5.90625 19.2891 4.91016 17.8594 2.95312 17.8594C1.04297 17.8594 0 19.2539 0 21.2578C0 23.1562 0.949219 24.6445 2.95312 24.6445ZM2.95312 23.4023C1.88672 23.4023 1.52344 22.2891 1.52344 21.2578C1.52344 20.1562 1.93359 19.1133 2.95312 19.1133C4.04297 19.1133 4.38281 20.2266 4.38281 21.2578C4.38281 22.3828 3.97266 23.4023 2.95312 23.4023ZM7.71094 24.5742C8.25 24.5742 8.46094 24.2227 8.46094 23.8125L8.46094 21.9961L10.3242 21.9961C10.7109 21.9961 10.957 21.7852 10.957 21.4102C10.957 21.0352 10.7227 20.8125 10.3242 20.8125L8.46094 20.8125L8.46094 19.2539L10.5234 19.2539C10.9453 19.2539 11.1797 19.043 11.1797 18.6445C11.1797 18.2344 10.9453 18.0117 10.5234 18.0117L7.69922 18.0117C7.26562 18.0117 6.97266 18.293 6.97266 18.7969L6.97266 23.8125C6.97266 24.2227 7.18359 24.5742 7.71094 24.5742ZM12.8672 24.5742C13.3945 24.5742 13.6055 24.2227 13.6055 23.8125L13.6055 21.9961L15.4688 21.9961C15.8555 21.9961 16.1133 21.7852 16.1133 21.4102C16.1133 21.0352 15.8672 20.8125 15.4688 20.8125L13.6055 20.8125L13.6055 19.2539L15.668 19.2539C16.1016 19.2539 16.3359 19.043 16.3359 18.6445C16.3359 18.2344 16.1016 18.0117 15.668 18.0117L12.8555 18.0117C12.4219 18.0117 12.1172 18.293 12.1172 18.7969L12.1172 23.8125C12.1172 24.2227 12.3398 24.5742 12.8672 24.5742Z" fill="black" fill-opacity="0.85"/>
 </g>
</svg>
