<?xml version="1.0" encoding="UTF-8"?>
<!--Generator: Apple Native CoreSVG 360-->
<!DOCTYPE svg
PUBLIC "-//W3C//DTD SVG 1.1//EN"
       "http://www.w3.org/Graphics/SVG/1.1/DTD/svg11.dtd">
<svg version="1.1" xmlns="http://www.w3.org/2000/svg" xmlns:xlink="http://www.w3.org/1999/xlink" viewBox="0 0 30.0359 29.3789">
 <g>
  <rect height="29.3789" opacity="0" width="30.0359" x="0" y="0"/>
  <path d="M10.8515 9.37397C10.8478 9.91804 10.8185 10.463 10.7676 11.0077C9.84593 10.6286 9.14065 10.6007 8.80115 10.9453C8.01599 11.7188 9.15271 14.4023 11.9652 17.2031C14.7777 20.0273 17.4496 21.1758 18.2347 20.3789C18.5835 20.0354 18.5462 19.3011 18.1365 18.3392C18.6474 18.2906 19.1584 18.2612 19.6688 18.2554C20.2352 19.9167 20.1132 21.3985 18.598 22.0312L2.76599 28.6406C1.03162 29.3672-0.57385 27.7148 0.199587 25.9922L7.14881 10.5938C7.86291 9.03571 9.27379 8.85375 10.8515 9.37397ZM1.67615 26.625C1.48865 27.0469 1.74646 27.293 2.1449 27.1289L15.4222 21.6094C13.9574 21.0117 12.3168 19.8516 10.8168 18.3633C9.29334 16.8281 8.10974 15.1406 7.52381 13.6523ZM18.9551 16.6579C18.403 16.6848 17.8491 16.7352 17.292 16.8115C16.8487 16.1409 16.2752 15.4178 15.5787 14.6779L16.7278 13.5265C17.5379 14.4302 18.347 15.5374 18.9551 16.6579ZM15.5704 12.3713L14.4153 13.5242C13.6722 12.8324 12.9485 12.2657 12.2799 11.8308C12.3614 11.2479 12.4143 10.6677 12.4431 10.089C13.5441 10.6998 14.6415 11.5306 15.5704 12.3713Z" fill="black" fill-opacity="0.85"/>
  <path d="M10.5238 2.56641C11.2269 2.56641 11.8129 1.99219 11.8129 1.27734C11.8129 0.574219 11.2269 0 10.5238 0C9.79724 0 9.23474 0.574219 9.23474 1.27734C9.23474 1.99219 9.79724 2.56641 10.5238 2.56641ZM12.0707 4.75781C11.9886 4.32422 11.7074 3.96094 11.2504 3.96094C10.8168 3.97266 10.3715 4.33594 10.4652 4.80469C10.9926 7.55859 10.9926 10.3945 10.4652 13.1953C10.3597 13.6523 10.8168 14.0039 11.2386 14.0156C11.684 14.0156 11.9769 13.6641 12.059 13.2305C12.6097 10.3711 12.6097 7.58203 12.0707 4.75781ZM17.766 4.59375C18.9965 4.59375 19.9691 3.60938 19.9691 2.39062C19.9691 1.14844 18.9965 0.1875 17.766 0.1875C16.5355 0.1875 15.5629 1.14844 15.5629 2.39062C15.5629 3.60938 16.5355 4.59375 17.766 4.59375ZM15.5394 8.28516C16.1136 8.28516 16.5707 7.81641 16.5707 7.24219C16.5707 6.67969 16.1136 6.21094 15.5394 6.21094C14.9769 6.21094 14.4965 6.67969 14.4965 7.24219C14.4965 7.81641 14.9769 8.28516 15.5394 8.28516ZM27.1761 3.11719C27.7386 3.11719 28.1957 2.66016 28.1957 2.08594C28.1957 1.51172 27.7386 1.04297 27.1761 1.04297C26.6019 1.04297 26.1449 1.51172 26.1449 2.08594C26.1449 2.66016 26.6019 3.11719 27.1761 3.11719ZM23.9418 3.99609L21.7504 6.1875C21.4457 6.50391 21.4457 7.01953 21.7504 7.33594C22.0785 7.65234 22.5941 7.65234 22.9105 7.33594L25.1019 5.15625C25.4066 4.83984 25.4066 4.3125 25.1019 3.99609C24.7855 3.69141 24.2582 3.69141 23.9418 3.99609ZM19.5941 8.35547L13.6176 14.3203C13.3129 14.6367 13.3129 15.1641 13.6176 15.4805C13.934 15.7852 14.4613 15.7852 14.7777 15.4805L20.7426 9.50391C21.0355 9.19922 21.0472 8.67188 20.7426 8.35547C20.4379 8.03906 19.8988 8.0625 19.5941 8.35547ZM28.3949 13.7461C29.1097 13.7461 29.684 13.1719 29.684 12.4453C29.684 11.7422 29.1097 11.168 28.3949 11.168C27.6683 11.168 27.1058 11.7422 27.1058 12.4453C27.1058 13.1719 27.6683 13.7461 28.3949 13.7461ZM23.3558 14.2266C24.3988 14.2266 25.2308 13.418 25.2308 12.375C25.2308 11.3438 24.3988 10.5117 23.3558 10.5117C22.3246 10.5117 21.516 11.3438 21.516 12.375C21.516 13.418 22.3246 14.2266 23.3558 14.2266ZM27.9496 19.7461C28.6644 19.7461 29.2386 19.1836 29.2386 18.457C29.2386 17.7422 28.6644 17.168 27.9496 17.168C27.2347 17.168 26.6605 17.7422 26.6605 18.457C26.6605 19.1836 27.2347 19.7461 27.9496 19.7461ZM24.3754 17.0273C21.5394 16.4883 18.7621 16.4883 15.891 17.0273C15.4691 17.1211 15.1058 17.4141 15.1176 17.8477C15.1176 18.2812 15.4691 18.7383 15.9379 18.6445C18.7386 18.1172 21.5629 18.1055 24.3285 18.6328C24.7738 18.7266 25.1488 18.293 25.1605 17.8477C25.1722 17.3906 24.7972 17.1094 24.3754 17.0273Z" fill="black" fill-opacity="0.85"/>
 </g>
</svg>
