<?xml version="1.0" encoding="UTF-8"?>
<!--Generator: Apple Native CoreSVG 360-->
<!DOCTYPE svg
PUBLIC "-//W3C//DTD SVG 1.1//EN"
       "http://www.w3.org/Graphics/SVG/1.1/DTD/svg11.dtd">
<svg version="1.1" xmlns="http://www.w3.org/2000/svg" xmlns:xlink="http://www.w3.org/1999/xlink" viewBox="0 0 10.1016 19.3945">
 <g>
  <rect height="19.3945" opacity="0" width="10.1016" x="0" y="0"/>
  <path d="M0.996094 19.3828C1.55859 19.3828 2.00391 18.9492 2.00391 18.3984L2.00391 0.972656C2.00391 0.421875 1.55859 0 0.996094 0C0.445312 0 0 0.421875 0 0.972656L0 18.3984C0 18.9492 0.445312 19.3828 0.996094 19.3828ZM8.74219 19.3828C9.29297 19.3828 9.75 18.9492 9.75 18.3984L9.75 0.972656C9.75 0.421875 9.29297 0 8.74219 0C8.19141 0 7.74609 0.421875 7.74609 0.972656L7.74609 18.3984C7.74609 18.9492 8.19141 19.3828 8.74219 19.3828Z" fill="black" fill-opacity="0.85"/>
 </g>
</svg>
