<?xml version="1.0" encoding="UTF-8"?>
<!--Generator: Apple Native CoreSVG 360-->
<!DOCTYPE svg
PUBLIC "-//W3C//DTD SVG 1.1//EN"
       "http://www.w3.org/Graphics/SVG/1.1/DTD/svg11.dtd">
<svg version="1.1" xmlns="http://www.w3.org/2000/svg" xmlns:xlink="http://www.w3.org/1999/xlink" viewBox="0 0 23.0625 23.6367">
 <g>
  <rect height="23.6367" opacity="0" width="23.0625" x="0" y="0"/>
  <path d="M1.88672 15.1758L1.88672 3.04688C1.88672 2.21484 2.23828 1.88672 3.04688 1.88672L19.6641 1.88672C20.4727 1.88672 20.8242 2.21484 20.8242 3.04688L20.8242 15.1758C20.8242 15.9961 20.4727 16.3242 19.6641 16.3242L3.04688 16.3242C2.23828 16.3242 1.88672 15.9961 1.88672 15.1758Z" fill="black" fill-opacity="0.2125"/>
  <path d="M4.78125 13.1836L10.2656 13.1836C10.5 13.1836 10.6875 13.0078 10.6875 12.75C10.6875 12.5039 10.5 12.3516 10.2656 12.3516L4.78125 12.3516C4.52344 12.3516 4.34766 12.5039 4.34766 12.75C4.34766 13.0078 4.52344 13.1836 4.78125 13.1836ZM4.78125 11.2031L12.4805 11.2031C12.7266 11.2031 12.8906 11.0391 12.8906 10.7695C12.8906 10.5234 12.7266 10.3711 12.4805 10.3711L4.78125 10.3711C4.52344 10.3711 4.34766 10.5234 4.34766 10.7695C4.34766 11.0391 4.52344 11.2031 4.78125 11.2031ZM4.91016 6.45703C5.22656 6.45703 5.47266 6.19922 5.47266 5.89453C5.47266 5.57812 5.22656 5.32031 4.91016 5.32031C4.59375 5.32031 4.34766 5.57812 4.34766 5.89453C4.34766 6.19922 4.59375 6.45703 4.91016 6.45703ZM4.91016 8.56641C5.22656 8.56641 5.47266 8.30859 5.47266 7.99219C5.47266 7.6875 5.22656 7.42969 4.91016 7.42969C4.59375 7.42969 4.34766 7.6875 4.34766 7.99219C4.34766 8.30859 4.59375 8.56641 4.91016 8.56641ZM6.30469 6.89062C6.30469 7.61719 6.70312 8.33203 7.05469 8.63672C7.14844 8.71875 7.25391 8.75391 7.35938 8.75391C7.55859 8.75391 7.71094 8.60156 7.71094 8.41406C7.71094 8.26172 7.62891 8.17969 7.52344 8.07422C7.18359 7.73438 7.04297 7.3125 7.04297 6.89062C7.04297 6.45703 7.20703 6.05859 7.52344 5.70703C7.62891 5.58984 7.71094 5.50781 7.71094 5.35547C7.71094 5.16797 7.55859 5.01562 7.35938 5.01562C7.26562 5.01562 7.14844 5.0625 7.05469 5.14453C6.59766 5.53125 6.30469 6.16406 6.30469 6.89062Z" fill="black" fill-opacity="0.85"/>
  <path d="M17.9766 18.8906C17.5547 18.8906 17.1797 18.5156 17.1797 18.0703C17.1797 17.6484 17.5547 17.2734 17.9766 17.2734C18.4336 17.2734 18.7969 17.6484 18.7969 18.0703C18.7969 18.5156 18.4336 18.8906 17.9766 18.8906Z" fill="black" fill-opacity="0.2125"/>
  <path d="M0 17.0977C0 19.1367 0.996094 20.1094 2.98828 20.1094L19.7227 20.1094C21.7148 20.1094 22.7109 19.1367 22.7109 17.0977L22.7109 3.01172C22.7109 0.960938 21.7031 0 19.6992 0L3.01172 0C1.00781 0 0 0.960938 0 3.01172ZM1.88672 15.1758L1.88672 3.04688C1.88672 2.21484 2.23828 1.88672 3.04688 1.88672L19.6641 1.88672C20.4727 1.88672 20.8242 2.21484 20.8242 3.04688L20.8242 15.1758C20.8242 15.9961 20.4727 16.3242 19.6641 16.3242L3.04688 16.3242C2.23828 16.3242 1.88672 15.9961 1.88672 15.1758ZM17.9766 18.8906C17.5547 18.8906 17.1797 18.5156 17.1797 18.0703C17.1797 17.6484 17.5547 17.2734 17.9766 17.2734C18.4336 17.2734 18.7969 17.6484 18.7969 18.0703C18.7969 18.5156 18.4336 18.8906 17.9766 18.8906ZM11.3555 21.5156C14.6953 21.5156 17.2969 20.7539 18.082 19.5703L4.62891 19.5703C5.41406 20.7539 8.01562 21.5156 11.3555 21.5156ZM5.73047 23.2852L16.9805 23.2852C18.0352 23.2852 18.1055 22.125 17.4023 21.8086L14.5664 20.4961L8.14453 20.4961L5.30859 21.8086C4.60547 22.125 4.67578 23.2852 5.73047 23.2852Z" fill="black" fill-opacity="0.85"/>
 </g>
</svg>
