<?xml version="1.0" encoding="UTF-8"?>
<!--Generator: Apple Native CoreSVG 360-->
<!DOCTYPE svg
PUBLIC "-//W3C//DTD SVG 1.1//EN"
       "http://www.w3.org/Graphics/SVG/1.1/DTD/svg11.dtd">
<svg version="1.1" xmlns="http://www.w3.org/2000/svg" xmlns:xlink="http://www.w3.org/1999/xlink" viewBox="0 0 20.2956 25.1602">
 <g>
  <rect height="25.1602" opacity="0" width="20.2956" x="0" y="0"/>
  <path d="M5.41345 25.1602L16.3822 25.1602C18.597 25.1602 19.933 23.8477 19.933 21.6445L19.9447 5.32031C19.9447 3.17578 18.7025 1.74609 16.3705 1.17188C13.5814 0.480469 10.7455 0.09375 7.73376 0.0234375C3.64391-0.0820312 1.0072 1.5 0.503289 5.16797C-0.141242 9.9375-0.16468 16.5586 0.421258 20.8711C0.761102 23.5195 2.65954 25.1602 5.41345 25.1602ZM5.47204 23.2734C3.70251 23.2734 2.49548 22.3711 2.30798 20.8828C1.72204 16.5469 1.74548 10.0195 2.36657 5.41406C2.71813 2.89453 4.59313 1.83984 7.55798 1.91016C10.6049 1.98047 13.4877 2.36719 16.3236 3.04688C17.4838 3.33984 18.0697 4.11328 18.0697 5.35547L18.058 21.6094C18.058 22.8516 17.5658 23.2734 16.347 23.2734Z" fill="black" fill-opacity="0.85"/>
  <path d="M5.14391 10.3008L15.0814 10.3008C15.5033 10.3008 15.8549 9.96094 15.8549 9.53906C15.8549 9.11719 15.5033 8.76562 15.0814 8.76562L5.14391 8.76562C4.72204 8.76562 4.37048 9.11719 4.37048 9.53906C4.37048 9.96094 4.72204 10.3008 5.14391 10.3008ZM5.14391 14.1914L15.0814 14.1914C15.5033 14.1914 15.8549 13.8516 15.8549 13.4297C15.8549 13.0078 15.5033 12.6562 15.0814 12.6562L5.14391 12.6562C4.72204 12.6562 4.37048 13.0078 4.37048 13.4297C4.37048 13.8516 4.72204 14.1914 5.14391 14.1914ZM5.14391 18.082L15.0814 18.082C15.5033 18.082 15.8549 17.7422 15.8549 17.3086C15.8549 16.8867 15.5033 16.5469 15.0814 16.5469L5.14391 16.5469C4.72204 16.5469 4.37048 16.8867 4.37048 17.3086C4.37048 17.7422 4.72204 18.082 5.14391 18.082Z" fill="black" fill-opacity="0.85"/>
 </g>
</svg>
