<?xml version="1.0" encoding="UTF-8"?>
<!--Generator: Apple Native CoreSVG 360-->
<!DOCTYPE svg
PUBLIC "-//W3C//DTD SVG 1.1//EN"
       "http://www.w3.org/Graphics/SVG/1.1/DTD/svg11.dtd">
<svg version="1.1" xmlns="http://www.w3.org/2000/svg" xmlns:xlink="http://www.w3.org/1999/xlink" viewBox="0 0 20.25 25.1836">
 <g>
  <rect height="25.1836" opacity="0" width="20.25" x="0" y="0"/>
  <path d="M6.82031 25.1719L16.3242 25.1719C18.5508 25.1719 19.8867 23.8594 19.8867 21.6562L19.8984 3.55078C19.8984 1.44141 18.4805 0 16.3594 0L5.0625 0C1.94531 0 0 1.96875 0 5.07422L0 6.86719C0 9.99609 0.738281 12.0938 2.4375 14.2969L3.25781 15.375L3.25781 21.6562C3.25781 23.8594 4.59375 25.1719 6.82031 25.1719ZM6.82031 23.2852C5.8125 23.2852 5.14453 22.6406 5.14453 21.6445L5.14453 14.7422L3.92578 13.1367C2.51953 11.2969 1.88672 9.49219 1.88672 6.80859L1.88672 5.08594C1.88672 3.12891 3.10547 1.88672 5.07422 1.88672L16.3594 1.88672C17.3555 1.88672 18.0117 2.54297 18.0117 3.55078L18 21.6445C18 22.6406 17.332 23.2852 16.3242 23.2852Z" fill="black" fill-opacity="0.85"/>
  <path d="M5.02734 7.39453L15.2695 7.39453C15.6914 7.39453 16.0312 7.05469 16.0312 6.63281C16.0312 6.21094 15.6914 5.85938 15.2695 5.85938L5.02734 5.85938C4.60547 5.85938 4.26562 6.21094 4.26562 6.63281C4.26562 7.05469 4.60547 7.39453 5.02734 7.39453ZM6.08203 11.7422L15.2695 11.7422C15.6914 11.7422 16.0312 11.3906 16.0312 10.9688C16.0312 10.5469 15.6914 10.207 15.2695 10.207L6.08203 10.207C5.66016 10.207 5.30859 10.5469 5.30859 10.9688C5.30859 11.3906 5.66016 11.7422 6.08203 11.7422ZM7.875 16.0547L15.2695 16.0547C15.6914 16.0547 16.0312 15.7148 16.0312 15.293C16.0312 14.8711 15.6914 14.5195 15.2695 14.5195L7.875 14.5195C7.45312 14.5195 7.10156 14.8711 7.10156 15.293C7.10156 15.7148 7.45312 16.0547 7.875 16.0547ZM7.875 20.4023L15.2695 20.4023C15.6914 20.4023 16.0312 20.0508 16.0312 19.6289C16.0312 19.207 15.6914 18.8672 15.2695 18.8672L7.875 18.8672C7.45312 18.8672 7.10156 19.207 7.10156 19.6289C7.10156 20.0508 7.45312 20.4023 7.875 20.4023Z" fill="black" fill-opacity="0.85"/>
 </g>
</svg>
