<?xml version="1.0" encoding="UTF-8"?>
<!--Generator: Apple Native CoreSVG 360-->
<!DOCTYPE svg
PUBLIC "-//W3C//DTD SVG 1.1//EN"
       "http://www.w3.org/Graphics/SVG/1.1/DTD/svg11.dtd">
<svg version="1.1" xmlns="http://www.w3.org/2000/svg" xmlns:xlink="http://www.w3.org/1999/xlink" viewBox="0 0 23.7305 20.707">
 <g>
  <rect height="20.707" opacity="0" width="23.7305" x="0" y="0"/>
  <path d="M3.71484 20.707L17.4258 20.707C21.3398 20.707 22.6992 18.7734 23.168 14.707C23.4727 12.1289 23.4727 9.57422 23.0625 6.10547C22.582 1.78125 20.168-0.0234375 15.5508 0.46875L4.19531 1.75781C1.45312 2.0625 0 3.60938 0 6.17578L0 17.0273C0 19.3477 1.38281 20.707 3.71484 20.707ZM3.72656 18.832C2.60156 18.832 1.86328 18.1289 1.86328 17.0273L1.86328 6.17578C1.86328 4.69922 2.75391 3.80859 4.38281 3.62109L15.75 2.34375C19.1367 1.96875 20.8711 3.16406 21.1992 6.11719C21.6094 9.58594 21.6094 12.1289 21.3047 14.6953C20.9297 17.9062 20.4023 18.832 17.4258 18.832Z" fill="black" fill-opacity="0.85"/>
  <path d="M5.44922 8.07422L17.7656 8.07422C18.1875 8.07422 18.5273 7.73438 18.5273 7.3125C18.5273 6.89062 18.1875 6.53906 17.7656 6.53906L5.44922 6.53906C5.02734 6.53906 4.6875 6.89062 4.6875 7.3125C4.6875 7.73438 5.02734 8.07422 5.44922 8.07422ZM5.44922 11.9648L17.7656 11.9648C18.1875 11.9648 18.5273 11.625 18.5273 11.2031C18.5273 10.7812 18.1875 10.4297 17.7656 10.4297L5.44922 10.4297C5.02734 10.4297 4.6875 10.7812 4.6875 11.2031C4.6875 11.625 5.02734 11.9648 5.44922 11.9648ZM5.44922 15.8555L17.7656 15.8555C18.1875 15.8555 18.5273 15.5156 18.5273 15.082C18.5273 14.6602 18.1875 14.3203 17.7656 14.3203L5.44922 14.3203C5.02734 14.3203 4.6875 14.6602 4.6875 15.082C4.6875 15.5156 5.02734 15.8555 5.44922 15.8555Z" fill="black" fill-opacity="0.85"/>
 </g>
</svg>
