<?xml version="1.0" encoding="UTF-8"?>
<!--Generator: Apple Native CoreSVG 360-->
<!DOCTYPE svg
PUBLIC "-//W3C//DTD SVG 1.1//EN"
       "http://www.w3.org/Graphics/SVG/1.1/DTD/svg11.dtd">
<svg version="1.1" xmlns="http://www.w3.org/2000/svg" xmlns:xlink="http://www.w3.org/1999/xlink" viewBox="0 0 28.4883 24.8789">
 <g>
  <rect height="24.8789" opacity="0" width="28.4883" x="0" y="0"/>
  <path d="M1.88672 0.9375L1.88672 23.9297C1.88672 24.4453 1.46484 24.8672 0.949219 24.8672C0.421875 24.8672 0 24.4453 0 23.9297L0 0.9375C0 0.421875 0.421875 0 0.949219 0C1.46484 0 1.88672 0.421875 1.88672 0.9375ZM28.1367 0.9375L28.1367 23.9297C28.1367 24.4453 27.7148 24.8672 27.1992 24.8672C26.6719 24.8672 26.25 24.4453 26.25 23.9297L26.25 21.5391L24.8789 21.5391L24.8789 20.0039L26.25 20.0039L26.25 15.9961L24.8789 15.9961L24.8789 14.4609L26.25 14.4609L26.25 10.4531L24.8789 10.4531L24.8789 8.91797L26.25 8.91797L26.25 4.89844L24.8789 4.89844L24.8789 3.36328L26.25 3.36328L26.25 0.9375C26.25 0.421875 26.6719 0 27.1992 0C27.7148 0 28.1367 0.421875 28.1367 0.9375Z" fill="black" fill-opacity="0.85"/>
  <path d="M4.10156 6.39844L24.0352 6.39844C24.5508 6.39844 24.8789 6.07031 24.8789 5.57812L24.8789 2.69531C24.8789 2.20312 24.5508 1.86328 24.0352 1.86328L4.10156 1.86328C3.58594 1.86328 3.25781 2.20312 3.25781 2.69531L3.25781 5.57812C3.25781 6.07031 3.58594 6.39844 4.10156 6.39844ZM4.10156 11.9531L24.0352 11.9531C24.5508 11.9531 24.8789 11.6133 24.8789 11.1211L24.8789 8.23828C24.8789 7.74609 24.5508 7.41797 24.0352 7.41797L4.10156 7.41797C3.58594 7.41797 3.25781 7.74609 3.25781 8.23828L3.25781 11.1211C3.25781 11.6133 3.58594 11.9531 4.10156 11.9531ZM4.10156 17.4961L24.0352 17.4961C24.5508 17.4961 24.8789 17.168 24.8789 16.6641L24.8789 13.7812C24.8789 13.2891 24.5508 12.9609 24.0352 12.9609L4.10156 12.9609C3.58594 12.9609 3.25781 13.2891 3.25781 13.7812L3.25781 16.6641C3.25781 17.168 3.58594 17.4961 4.10156 17.4961ZM4.10156 23.0391L24.0352 23.0391C24.5508 23.0391 24.8789 22.7109 24.8789 22.2188L24.8789 19.3359C24.8789 18.8438 24.5508 18.5039 24.0352 18.5039L4.10156 18.5039C3.58594 18.5039 3.25781 18.8438 3.25781 19.3359L3.25781 22.2188C3.25781 22.7109 3.58594 23.0391 4.10156 23.0391Z" fill="black" fill-opacity="0.85"/>
 </g>
</svg>
