<?xml version="1.0" encoding="UTF-8"?>
<!--Generator: Apple Native CoreSVG 360-->
<!DOCTYPE svg
PUBLIC "-//W3C//DTD SVG 1.1//EN"
       "http://www.w3.org/Graphics/SVG/1.1/DTD/svg11.dtd">
<svg version="1.1" xmlns="http://www.w3.org/2000/svg" xmlns:xlink="http://www.w3.org/1999/xlink" viewBox="0 0 28.4883 24.8789">
 <g>
  <rect height="24.8789" opacity="0" width="28.4883" x="0" y="0"/>
  <path d="M1.88672 0.9375L1.88672 23.9297C1.88672 24.4453 1.46484 24.8672 0.949219 24.8672C0.421875 24.8672 0 24.4453 0 23.9297L0 0.9375C0 0.421875 0.421875 0 0.949219 0C1.46484 0 1.88672 0.421875 1.88672 0.9375ZM28.1367 0.9375L28.1367 23.9297C28.1367 24.4453 27.7148 24.8672 27.1992 24.8672C26.6719 24.8672 26.25 24.4453 26.25 23.9297L26.25 21.5391L24.8789 21.5391L24.8789 20.0039L26.25 20.0039L26.25 15.9961L24.8789 15.9961L24.8789 14.4609L26.25 14.4609L26.25 10.4531L24.8789 10.4531L24.8789 8.91797L26.25 8.91797L26.25 4.89844L24.8789 4.89844L24.8789 3.36328L26.25 3.36328L26.25 0.9375C26.25 0.421875 26.6719 0 27.1992 0C27.7148 0 28.1367 0.421875 28.1367 0.9375Z" fill="black" fill-opacity="0.85"/>
  <path d="M12.6562 7.72266L24.0469 6.38672C24.5508 6.32812 24.8789 6.05859 24.8789 5.56641L24.8789 2.67188C24.8789 2.16797 24.5508 1.73438 24.0469 1.85156L12.5039 4.40625C12.0352 4.51172 11.8242 4.81641 11.8242 5.17969L11.8242 6.98438C11.8242 7.51172 12.1055 7.79297 12.6562 7.72266ZM12.5039 11.9531L24.0469 11.9531C24.5508 11.9531 24.8789 11.625 24.8789 11.1328L24.8789 8.23828C24.8789 7.73438 24.5625 7.35938 24.0469 7.41797L12.5039 8.76562C12.082 8.8125 11.8242 9.12891 11.8242 9.5625L11.8242 11.1914C11.8242 11.6602 12.1055 11.9531 12.5039 11.9531ZM12.5039 16.1602L24.0469 17.5078C24.5625 17.5664 24.8789 17.1914 24.8789 16.6875L24.8789 13.793C24.8789 13.3008 24.5508 12.9727 24.0469 12.9727L12.5039 12.9727C12.1055 12.9727 11.8242 13.2656 11.8242 13.7344L11.8242 15.3633C11.8242 15.7969 12.082 16.1016 12.5039 16.1602ZM12.5039 20.5195L24.0469 23.0742C24.5508 23.1797 24.8789 22.7578 24.8789 22.2539L24.8789 19.3477C24.8789 18.8672 24.5508 18.5977 24.0469 18.5391L12.6562 17.2031C12.1055 17.1328 11.8242 17.4141 11.8242 17.9414L11.8242 19.7461C11.8242 20.1094 12.0352 20.4141 12.5039 20.5195Z" fill="black" fill-opacity="0.85"/>
 </g>
</svg>
