<?xml version="1.0" encoding="UTF-8"?>
<!--Generator: Apple Native CoreSVG 360-->
<!DOCTYPE svg
PUBLIC "-//W3C//DTD SVG 1.1//EN"
       "http://www.w3.org/Graphics/SVG/1.1/DTD/svg11.dtd">
<svg version="1.1" xmlns="http://www.w3.org/2000/svg" xmlns:xlink="http://www.w3.org/1999/xlink" viewBox="0 0 25.0869 27.5669">
 <g>
  <rect height="27.5669" opacity="0" width="25.0869" x="0" y="0"/>
  <path d="M17.5194 3.26449L16.2762 4.50771C14.3715 3.38198 12.2244 2.7268 10.1001 2.7268C5.00245 2.7268 1.94385 6.33618 1.94385 11.0002C1.94385 16.5666 6.19776 23.0002 14.5649 24.2073C15.104 24.2776 15.3618 24.6643 15.3618 25.051C15.3618 25.4729 15.022 25.9182 14.3657 25.8362C6.88917 25.1096 0.291509 18.7581 0.291509 11.0471C0.291509 5.39868 4.1001 1.07446 10.147 1.07446C12.6881 1.07446 15.2677 1.87263 17.5194 3.26449ZM24.4556 14.8206C24.4556 18.9456 21.6196 21.7346 17.6001 21.7346C14.8965 21.7346 11.9434 20.4772 9.6542 18.4392L11.4529 17.6431C13.2897 19.1856 15.5196 20.1643 17.5767 20.1643C20.4478 20.1643 22.8384 18.137 22.8384 14.8088C22.8384 12.5847 22.051 10.442 20.7476 8.60131L21.9704 7.38319C23.5132 9.51239 24.4556 12.0629 24.4556 14.8206Z" fill="black" fill-opacity="0.85"/>
  <path d="M10.6274 16.1682L21.1509 5.65649L19.4048 3.92211L8.89307 14.4221L7.92042 16.6604C7.82667 16.9065 8.07276 17.1643 8.33057 17.0706ZM22.0064 4.81274L22.9439 3.87524C23.3892 3.42993 23.4126 2.77368 22.9556 2.3518L22.6509 2.07055C22.2524 1.69555 21.6196 1.69555 21.1978 2.11743L20.272 3.06664Z" fill="black" fill-opacity="0.85"/>
 </g>
</svg>
