<?xml version="1.0" encoding="UTF-8"?>
<!--Generator: Apple Native CoreSVG 360-->
<!DOCTYPE svg
PUBLIC "-//W3C//DTD SVG 1.1//EN"
       "http://www.w3.org/Graphics/SVG/1.1/DTD/svg11.dtd">
<svg version="1.1" xmlns="http://www.w3.org/2000/svg" xmlns:xlink="http://www.w3.org/1999/xlink" viewBox="0 0 32.9707 24.1084">
 <g>
  <rect height="24.1084" opacity="0" width="32.9707" x="0" y="0"/>
  <path d="M0.24901 21.0952C1.29198 24.5171 6.47167 25.0679 11.9795 22.5249C12.9873 22.0679 12.2959 20.7788 11.3467 21.2358C6.75292 23.4155 2.34667 23.1108 1.6201 20.6851C-0.231459 14.6265 12.7998 13.9468 11.2998 8.84912C10.5498 6.3413 4.76073 6.75146 0.62401 9.54052C-0.208021 10.0796 0.588854 11.2749 1.40917 10.7124C4.40917 8.72021 9.53026 7.93505 9.9287 9.24755C10.2217 10.2319 9.40135 10.9585 6.16698 12.7632C3.01463 14.5093-1.05177 16.8179 0.24901 21.0952Z" fill="black" fill-opacity="0.85"/>
  <path d="M16.8662 20.3218L29.3349 7.86474L27.2842 5.80224L14.8154 18.2593L13.7021 20.8608C13.5849 21.1421 13.8779 21.4702 14.1709 21.353ZM30.3662 6.85693L31.5498 5.69677C32.1474 5.09912 32.1826 4.45459 31.6435 3.91552L31.2451 3.51709C30.706 2.98974 30.0615 3.03662 29.4756 3.62255L28.2803 4.79443Z" fill="black" fill-opacity="0.85"/>
 </g>
</svg>
