<?xml version="1.0" encoding="UTF-8"?>
<!--Generator: Apple Native CoreSVG 360-->
<!DOCTYPE svg
PUBLIC "-//W3C//DTD SVG 1.1//EN"
       "http://www.w3.org/Graphics/SVG/1.1/DTD/svg11.dtd">
<svg version="1.1" xmlns="http://www.w3.org/2000/svg" xmlns:xlink="http://www.w3.org/1999/xlink" viewBox="0 0 20.8594 26.3789">
 <g>
  <rect height="26.3789" opacity="0" width="20.8594" x="0" y="0"/>
  <path d="M0 3L2.94141 3L2.94141 1.32422C2.94141 0.480469 2.50781 0 1.74609 0L1.17188 0C0.421875 0 0 0.503906 0 1.32422ZM0 23.3086L1.06641 25.9336C1.18359 26.2031 1.61719 26.2266 1.74609 25.9453L2.94141 23.3086L2.94141 4.37109L0 4.37109ZM11.8242 26.1914L17.6367 26.1914C19.3359 26.1914 20.5078 25.0195 20.5078 23.3203L20.5078 3.05859C20.5078 1.34766 19.3359 0.164062 17.6367 0.164062L11.8242 0.164062C10.125 0.164062 8.96484 1.33594 8.96484 3.04688L8.96484 23.3086C8.96484 25.0195 10.125 26.1914 11.8242 26.1914ZM12.1406 24.4805C11.25 24.4805 10.6758 23.9062 10.6758 23.0508L10.6758 3.31641C10.6758 2.46094 11.25 1.88672 12.1406 1.88672L17.332 1.88672C18.2109 1.88672 18.7852 2.46094 18.7852 3.31641L18.7852 23.0391C18.7852 23.8945 18.2109 24.4805 17.332 24.4805ZM19.3945 4.24219L19.3945 3.35156L13.793 3.35156C13.5586 3.35156 13.3594 3.53906 13.3594 3.79688C13.3594 4.03125 13.5469 4.24219 13.7812 4.24219ZM19.3945 6.10547L19.3945 5.23828L15.6562 5.23828C15.4102 5.23828 15.2344 5.41406 15.2344 5.68359C15.2344 5.91797 15.3984 6.10547 15.6445 6.10547ZM19.3945 7.99219L19.3945 7.125L15.6562 7.125C15.4102 7.125 15.2344 7.30078 15.2344 7.57031C15.2344 7.80469 15.3984 7.99219 15.6445 7.99219ZM19.3945 9.86719L19.3945 8.98828L15.6562 8.98828C15.4102 8.98828 15.2344 9.16406 15.2344 9.42188C15.2344 9.67969 15.3984 9.86719 15.6445 9.86719ZM19.3945 11.7422L19.3945 10.8633L15.6562 10.8633C15.4102 10.8633 15.2344 11.0508 15.2344 11.3203C15.2344 11.543 15.3984 11.7422 15.6445 11.7422ZM19.3945 13.6055L19.3945 12.75L13.793 12.75C13.5586 12.75 13.3594 12.9258 13.3594 13.1836C13.3594 13.4297 13.5469 13.6055 13.7812 13.6055ZM19.3945 15.5039L19.3945 14.625L15.6562 14.625C15.4102 14.625 15.2344 14.8008 15.2344 15.0586C15.2344 15.3047 15.3984 15.5039 15.6445 15.5039ZM19.3945 17.3789L19.3945 16.5117L15.6562 16.5117C15.4102 16.5117 15.2344 16.6758 15.2344 16.9453C15.2344 17.1797 15.3984 17.3789 15.6445 17.3789ZM19.3945 19.2422L19.3945 18.375L15.6562 18.375C15.4102 18.375 15.2344 18.5625 15.2344 18.8086C15.2344 19.043 15.3984 19.2422 15.6445 19.2422ZM19.3945 21.1172L19.3945 20.25L15.6562 20.25C15.4102 20.25 15.2344 20.4141 15.2344 20.6719C15.2344 20.9297 15.3984 21.1172 15.6445 21.1172ZM19.3945 22.9922L19.3945 22.1133L13.793 22.1133C13.5586 22.1133 13.3594 22.3008 13.3594 22.5586C13.3594 22.793 13.5469 22.9922 13.7812 22.9922Z" fill="black" fill-opacity="0.85"/>
 </g>
</svg>
