<?xml version="1.0" encoding="UTF-8"?>
<!--Generator: Apple Native CoreSVG 360-->
<!DOCTYPE svg
PUBLIC "-//W3C//DTD SVG 1.1//EN"
       "http://www.w3.org/Graphics/SVG/1.1/DTD/svg11.dtd">
<svg version="1.1" xmlns="http://www.w3.org/2000/svg" xmlns:xlink="http://www.w3.org/1999/xlink" viewBox="0 0 25.803 21.8113">
 <g>
  <rect height="21.8113" opacity="0" width="25.803" x="0" y="0"/>
  <path d="M23.8351 19.2904C23.8351 19.8061 23.4132 20.2279 22.8976 20.2279L6.00031 20.2279L7.8943 18.3412L22.8976 18.3412C23.4132 18.3412 23.8351 18.7748 23.8351 19.2904Z" fill="black" fill-opacity="0.85"/>
  <path d="M4.81554 19.1498L17.6124 6.37638L15.5499 4.31388L2.76476 17.0873L1.63976 19.7006C1.53429 19.9818 1.82726 20.31 2.10851 20.1928ZM18.6319 5.36856L19.8155 4.20841C20.4249 3.61075 20.4601 2.96622 19.9093 2.42716L19.5226 2.02872C18.9835 1.50138 18.339 1.54825 17.753 2.13419L16.5577 3.30606Z" fill="black" fill-opacity="0.85"/>
 </g>
</svg>
