<?xml version="1.0" encoding="UTF-8"?>
<!--Generator: Apple Native CoreSVG 360-->
<!DOCTYPE svg
PUBLIC "-//W3C//DTD SVG 1.1//EN"
       "http://www.w3.org/Graphics/SVG/1.1/DTD/svg11.dtd">
<svg version="1.1" xmlns="http://www.w3.org/2000/svg" xmlns:xlink="http://www.w3.org/1999/xlink" viewBox="0 0 15.1188 22.1367">
 <g>
  <rect height="22.1367" opacity="0" width="15.1188" x="0" y="0"/>
  <path d="M0.94418 22.1367C1.49496 22.1367 1.76449 21.8438 1.85824 21.3633L4.17856 9.55078L3.00668 10.5L11.7489 10.5L10.577 9.55078L12.8973 21.3633C12.9911 21.8438 13.2606 22.1367 13.8114 22.1367C14.5965 22.1367 14.8661 21.5977 14.7371 20.9648L12.5457 9.80859C12.4051 9.07031 11.784 8.53125 11.0692 8.53125L3.69809 8.53125C2.98324 8.53125 2.36215 9.07031 2.22152 9.80859L0.0301176 20.9648C-0.0987887 21.5977 0.182461 22.1367 0.94418 22.1367ZM3.44027 9.48047L11.327 9.48047L8.40902 0.773438C8.23324 0.28125 7.90512 0 7.40121 0C6.87387 0 6.51059 0.28125 6.34652 0.773438Z" fill="black" fill-opacity="0.85"/>
 </g>
</svg>
