<?xml version="1.0" encoding="UTF-8"?>
<!--Generator: Apple Native CoreSVG 360-->
<!DOCTYPE svg
PUBLIC "-//W3C//DTD SVG 1.1//EN"
       "http://www.w3.org/Graphics/SVG/1.1/DTD/svg11.dtd">
<svg version="1.1" xmlns="http://www.w3.org/2000/svg" xmlns:xlink="http://www.w3.org/1999/xlink" viewBox="0 0 29.7334 29.7539">
 <g>
  <rect height="29.7539" opacity="0" width="29.7334" x="0" y="0"/>
  <path d="M8.60303 3.5625L8.60303 4.61719C8.60303 4.80469 8.61475 4.99219 8.64991 5.15625L8.38038 5.15625C7.27881 5.15625 6.71631 5.87109 6.71631 6.97266L6.71631 24.6914C6.71631 25.8633 7.34913 26.5078 8.56788 26.5078L20.814 26.5078C22.0327 26.5078 22.6538 25.8633 22.6538 24.6914L22.6538 16.5469L24.5405 14.6602L24.5405 24.7148C24.5405 27.1758 23.3335 28.3945 20.9077 28.3945L8.46241 28.3945C6.04835 28.3945 4.8296 27.1758 4.8296 24.7148L4.8296 6.94922C4.8296 4.54688 6.00147 3.26953 8.3335 3.26953L8.61475 3.26953C8.60303 3.36328 8.60303 3.46875 8.60303 3.5625ZM24.5387 6.89188L22.6538 8.77495L22.6538 6.97266C22.6538 5.87109 22.103 5.15625 21.0015 5.15625L20.7202 5.15625C20.7554 4.99219 20.7671 4.80469 20.7671 4.61719L20.7671 3.5625C20.7671 3.46875 20.7671 3.36328 20.7554 3.26953L21.0366 3.26953C23.3612 3.26953 24.5214 4.52602 24.5387 6.89188ZM17.228 2.40234L18.3062 2.40234C18.9976 2.40234 19.4077 2.83594 19.4077 3.5625L19.4077 4.79297C19.4077 5.51953 18.9976 5.95312 18.3062 5.95312L11.0757 5.95312C10.3843 5.95312 9.97413 5.51953 9.97413 4.79297L9.97413 3.5625C9.97413 2.83594 10.3843 2.40234 11.0757 2.40234L12.1421 2.40234C12.2241 1.07812 13.3257 0 14.6851 0C16.0444 0 17.146 1.07812 17.228 2.40234ZM13.6655 2.49609C13.6655 3.04688 14.1226 3.51562 14.6851 3.51562C15.2593 3.51562 15.7046 3.04688 15.7046 2.49609C15.7046 1.92188 15.2593 1.46484 14.6851 1.46484C14.1226 1.46484 13.6655 1.92188 13.6655 2.49609Z" fill="black" fill-opacity="0.85"/>
  <path d="M11.8843 20.3086C11.8843 20.707 11.5444 21.0352 11.146 21.0352L9.5171 21.0352C9.11866 21.0352 8.77881 20.707 8.77881 20.3086C8.77881 19.9102 9.10694 19.582 9.5171 19.582L11.146 19.582C11.5562 19.582 11.8843 19.9102 11.8843 20.3086ZM14.7686 16.6523L9.5171 16.6523C9.10694 16.6523 8.77881 16.3242 8.77881 15.9141C8.77881 15.5156 9.10694 15.1992 9.5171 15.1992L16.2232 15.1992ZM20.2702 11.1562L18.9329 12.4922L9.5171 12.4922C9.11866 12.4922 8.77881 12.1641 8.77881 11.7656C8.77881 11.3672 9.11866 11.0273 9.5171 11.0273L19.8648 11.0273C20.0144 11.0273 20.1541 11.0753 20.2702 11.1562Z" fill="black" fill-opacity="0.85"/>
  <path d="M26.9312 10.0195L27.8101 9.12891C28.2319 8.70703 28.2319 8.13281 27.8218 7.72266L27.5405 7.44141C27.1655 7.06641 26.5796 7.11328 26.1812 7.5L25.3023 8.37891ZM13.7944 21.8203L16.1851 20.7539L26.064 10.8984L24.4116 9.26953L14.5562 19.125L13.4312 21.4336C13.3257 21.6445 13.5718 21.9141 13.7944 21.8203Z" fill="black" fill-opacity="0.85"/>
 </g>
</svg>
