<?xml version="1.0" encoding="UTF-8"?>
<!--Generator: Apple Native CoreSVG 360-->
<!DOCTYPE svg
PUBLIC "-//W3C//DTD SVG 1.1//EN"
       "http://www.w3.org/Graphics/SVG/1.1/DTD/svg11.dtd">
<svg version="1.1" xmlns="http://www.w3.org/2000/svg" xmlns:xlink="http://www.w3.org/1999/xlink" viewBox="0 0 25.7255 25.0664">
 <g>
  <rect height="25.0664" opacity="0" width="25.7255" x="0" y="0"/>
  <path d="M0.224068 11.7891L3.6811 22.5352C4.20844 24.2109 5.3686 25.0664 7.14985 25.0664L18.2358 25.0664C20.017 25.0664 21.1772 24.2109 21.7045 22.5352L25.1381 11.8359C25.6889 10.1016 25.267 8.73047 23.8608 7.69922L14.8842 1.10156C13.4077 0.0117188 11.978 0.0117188 10.5014 1.10156L1.52485 7.69922C0.118599 8.73047-0.314994 10.0898 0.224068 11.7891ZM2.00532 11.2148C1.71235 10.3242 1.89985 9.78516 2.66157 9.21094L11.6264 2.60156C12.4116 2.02734 12.9741 2.02734 13.7475 2.60156L22.7123 9.21094C23.4858 9.78516 23.6616 10.3359 23.3686 11.25L19.935 21.9609C19.642 22.8516 19.185 23.1797 18.2358 23.1797L7.14985 23.1797C6.20063 23.1797 5.7436 22.8516 5.45063 21.9609Z" fill="black" fill-opacity="0.85"/>
 </g>
</svg>
