<?xml version="1.0" encoding="UTF-8"?>
<!--Generator: Apple Native CoreSVG 360-->
<!DOCTYPE svg
PUBLIC "-//W3C//DTD SVG 1.1//EN"
       "http://www.w3.org/Graphics/SVG/1.1/DTD/svg11.dtd">
<svg version="1.1" xmlns="http://www.w3.org/2000/svg" xmlns:xlink="http://www.w3.org/1999/xlink" viewBox="0 0 28.1602 25.4648">
 <g>
  <rect height="25.4648" opacity="0" width="28.1602" x="0" y="0"/>
  <path d="M27.5039 22.793C27.5039 23.1562 27.2109 23.4492 26.8477 23.4492C26.4961 23.4492 26.1914 23.1562 26.1914 22.793C26.1914 22.4297 26.4961 22.1367 26.8477 22.1367C27.2109 22.1367 27.5039 22.4297 27.5039 22.793ZM1.61719 22.793C1.61719 23.1562 1.3125 23.4492 0.960938 23.4492C0.597656 23.4492 0.304688 23.1562 0.304688 22.793C0.304688 22.4297 0.597656 22.1367 0.960938 22.1367C1.3125 22.1367 1.61719 22.4297 1.61719 22.793ZM5.4637 18.248C5.08604 18.7143 4.77172 19.2033 4.53024 19.7022C4.05955 19.6422 3.69141 19.2359 3.69141 18.75C3.69141 18.2344 4.125 17.8008 4.65234 17.8008C4.99244 17.8008 5.29355 17.9811 5.4637 18.248ZM24.1172 18.75C24.1172 19.2284 23.7604 19.6296 23.3001 19.6988C23.0559 19.1955 22.7378 18.7024 22.3543 18.2328C22.5264 17.9744 22.8226 17.8008 23.1562 17.8008C23.6836 17.8008 24.1172 18.2344 24.1172 18.75ZM27.5039 18.75C27.5039 19.1133 27.2109 19.4062 26.8477 19.4062C26.4961 19.4062 26.1914 19.1133 26.1914 18.75C26.1914 18.3984 26.4961 18.0938 26.8477 18.0938C27.2109 18.0938 27.5039 18.3984 27.5039 18.75ZM1.61719 18.75C1.61719 19.1133 1.3125 19.4062 0.960938 19.4062C0.597656 19.4062 0.304688 19.1133 0.304688 18.75C0.304688 18.3984 0.597656 18.0938 0.960938 18.0938C1.3125 18.0938 1.61719 18.3984 1.61719 18.75ZM5.90625 14.7188C5.90625 15.3984 5.34375 15.9727 4.65234 15.9727C3.96094 15.9727 3.39844 15.3984 3.39844 14.7188C3.39844 14.0273 3.96094 13.4531 4.65234 13.4531C5.34375 13.4531 5.90625 14.0273 5.90625 14.7188ZM24.4102 14.7188C24.4102 15.3984 23.8477 15.9727 23.1562 15.9727C22.4648 15.9727 21.9023 15.3984 21.9023 14.7188C21.9023 14.0273 22.4648 13.4531 23.1562 13.4531C23.8477 13.4531 24.4102 14.0273 24.4102 14.7188ZM8.96769 13.6239C9.14198 13.9357 9.34614 14.2256 9.57586 14.4903C9.5905 14.5643 9.59766 14.6408 9.59766 14.7188C9.59766 14.9516 9.53164 15.1721 9.41583 15.3605C8.97597 15.5313 8.56502 15.7339 8.18082 15.9602C7.57457 15.8787 7.08984 15.3432 7.08984 14.7188C7.08984 14.0273 7.66406 13.4531 8.34375 13.4531C8.57099 13.4531 8.78431 13.5152 8.96769 13.6239ZM20.7188 14.7188C20.7188 15.3378 20.2424 15.8693 19.6435 15.9577C19.2492 15.7259 18.8267 15.5189 18.3745 15.3448C18.2629 15.1598 18.1992 14.9451 18.1992 14.7188C18.1992 14.6537 18.2043 14.5898 18.2156 14.5277C18.463 14.2478 18.6819 13.9392 18.8676 13.6061C19.0461 13.5087 19.2498 13.4531 19.4648 13.4531C20.1445 13.4531 20.7188 14.0273 20.7188 14.7188ZM1.91016 14.7188C1.91016 15.2344 1.47656 15.668 0.960938 15.668C0.433594 15.668 0 15.2344 0 14.7188C0 14.1914 0.433594 13.7578 0.960938 13.7578C1.47656 13.7578 1.91016 14.1914 1.91016 14.7188ZM27.8086 14.7188C27.8086 15.2344 27.375 15.668 26.8477 15.668C26.3203 15.668 25.8867 15.2344 25.8867 14.7188C25.8867 14.1914 26.3203 13.7578 26.8477 13.7578C27.375 13.7578 27.8086 14.1914 27.8086 14.7188ZM24.4102 10.6758C24.4102 11.3672 23.8477 11.9297 23.1562 11.9297C22.4648 11.9297 21.9023 11.3672 21.9023 10.6758C21.9023 9.98438 22.4648 9.42188 23.1562 9.42188C23.8477 9.42188 24.4102 9.98438 24.4102 10.6758ZM5.90625 10.6758C5.90625 11.3672 5.34375 11.9297 4.65234 11.9297C3.96094 11.9297 3.39844 11.3672 3.39844 10.6758C3.39844 9.98438 3.96094 9.42188 4.65234 9.42188C5.34375 9.42188 5.90625 9.98438 5.90625 10.6758ZM8.08594 10.3711C8.08594 10.9095 8.15148 11.4316 8.2809 11.9265C7.62884 11.8945 7.08984 11.3456 7.08984 10.6758C7.08984 10.0478 7.5636 9.52609 8.16027 9.43725C8.10888 9.73862 8.08594 10.0513 8.08594 10.3711ZM20.7188 10.6758C20.7188 11.339 20.1904 11.8836 19.5471 11.9255C19.6791 11.4241 19.7461 10.8945 19.7461 10.3477C19.7461 10.037 19.7248 9.7336 19.6766 9.44163C20.2599 9.54264 20.7188 10.0577 20.7188 10.6758ZM27.8086 10.6758C27.8086 11.2031 27.375 11.6367 26.8477 11.6367C26.3203 11.6367 25.8867 11.2031 25.8867 10.6758C25.8867 10.1484 26.3203 9.71484 26.8477 9.71484C27.375 9.71484 27.8086 10.1484 27.8086 10.6758ZM1.91016 10.6758C1.91016 11.2031 1.47656 11.6367 0.960938 11.6367C0.433594 11.6367 0 11.2031 0 10.6758C0 10.1484 0.433594 9.71484 0.960938 9.71484C1.47656 9.71484 1.91016 10.1484 1.91016 10.6758ZM24.1172 6.63281C24.1172 7.16016 23.6836 7.59375 23.1562 7.59375C22.6289 7.59375 22.1953 7.16016 22.1953 6.63281C22.1953 6.11719 22.6289 5.68359 23.1562 5.68359C23.6836 5.68359 24.1172 6.11719 24.1172 6.63281ZM20.4141 6.63281C20.4141 7.16016 19.9805 7.59375 19.4648 7.59375C19.3298 7.59375 19.2009 7.56531 19.084 7.51378C18.923 7.17936 18.7293 6.86766 18.5065 6.58267C18.5324 6.08923 18.9548 5.68359 19.4648 5.68359C19.9805 5.68359 20.4141 6.11719 20.4141 6.63281ZM9.30469 6.63281L9.30457 6.63506C9.10126 6.899 8.92348 7.18578 8.77222 7.4907C8.64331 7.55688 8.49752 7.59375 8.34375 7.59375C7.82812 7.59375 7.39453 7.16016 7.39453 6.63281C7.39453 6.11719 7.82812 5.68359 8.34375 5.68359C8.87109 5.68359 9.30469 6.11719 9.30469 6.63281ZM5.61328 6.63281C5.61328 7.16016 5.17969 7.59375 4.65234 7.59375C4.125 7.59375 3.69141 7.16016 3.69141 6.63281C3.69141 6.11719 4.125 5.68359 4.65234 5.68359C5.17969 5.68359 5.61328 6.11719 5.61328 6.63281ZM27.5039 6.63281C27.5039 6.99609 27.2109 7.30078 26.8477 7.30078C26.4961 7.30078 26.1914 6.99609 26.1914 6.63281C26.1914 6.28125 26.4961 5.97656 26.8477 5.97656C27.2109 5.97656 27.5039 6.28125 27.5039 6.63281ZM1.61719 6.63281C1.61719 6.99609 1.3125 7.30078 0.960938 7.30078C0.597656 7.30078 0.304688 6.99609 0.304688 6.63281C0.304688 6.28125 0.597656 5.97656 0.960938 5.97656C1.3125 5.97656 1.61719 6.28125 1.61719 6.63281ZM16.7109 2.60156C16.7109 3.11719 16.2773 3.55078 15.75 3.55078C15.2227 3.55078 14.7891 3.11719 14.7891 2.60156C14.7891 2.07422 15.2227 1.64062 15.75 1.64062C16.2773 1.64062 16.7109 2.07422 16.7109 2.60156ZM13.0078 2.60156C13.0078 3.11719 12.5742 3.55078 12.0586 3.55078C11.5312 3.55078 11.0977 3.11719 11.0977 2.60156C11.0977 2.07422 11.5312 1.64062 12.0586 1.64062C12.5742 1.64062 13.0078 2.07422 13.0078 2.60156ZM27.5039 2.60156C27.5039 2.95312 27.2109 3.25781 26.8477 3.25781C26.4961 3.25781 26.1914 2.95312 26.1914 2.60156C26.1914 2.23828 26.4961 1.94531 26.8477 1.94531C27.2109 1.94531 27.5039 2.23828 27.5039 2.60156ZM23.8125 2.60156C23.8125 2.95312 23.5195 3.25781 23.1562 3.25781C22.793 3.25781 22.5 2.95312 22.5 2.60156C22.5 2.23828 22.793 1.94531 23.1562 1.94531C23.5195 1.94531 23.8125 2.23828 23.8125 2.60156ZM20.1211 2.60156C20.1211 2.95312 19.8164 3.25781 19.4648 3.25781C19.1016 3.25781 18.7969 2.95312 18.7969 2.60156C18.7969 2.23828 19.1016 1.94531 19.4648 1.94531C19.8164 1.94531 20.1211 2.23828 20.1211 2.60156ZM9 2.60156C9 2.95312 8.70703 3.25781 8.34375 3.25781C7.99219 3.25781 7.6875 2.95312 7.6875 2.60156C7.6875 2.23828 7.99219 1.94531 8.34375 1.94531C8.70703 1.94531 9 2.23828 9 2.60156ZM5.30859 2.60156C5.30859 2.95312 5.01562 3.25781 4.65234 3.25781C4.28906 3.25781 3.99609 2.95312 3.99609 2.60156C3.99609 2.23828 4.28906 1.94531 4.65234 1.94531C5.01562 1.94531 5.30859 2.23828 5.30859 2.60156ZM1.61719 2.60156C1.61719 2.95312 1.3125 3.25781 0.960938 3.25781C0.597656 3.25781 0.304688 2.95312 0.304688 2.60156C0.304688 2.23828 0.597656 1.94531 0.960938 1.94531C1.3125 1.94531 1.61719 2.23828 1.61719 2.60156Z" fill="black" fill-opacity="0.425"/>
  <path d="M13.9102 14.8008C16.0547 14.8008 17.9531 12.8438 17.9531 10.3477C17.9531 7.85156 16.0547 6.03516 13.9102 6.03516C11.7773 6.03516 9.87891 7.89844 9.87891 10.3711C9.87891 12.8438 11.7773 14.8008 13.9102 14.8008ZM7.91016 23.6719L19.9102 23.6719C21.6445 23.6719 22.1719 23.1797 22.1719 22.3125C22.1719 19.7812 19.0195 16.2891 13.9102 16.2891C8.8125 16.2891 5.66016 19.7812 5.66016 22.3125C5.66016 23.1797 6.17578 23.6719 7.91016 23.6719Z" fill="black" fill-opacity="0.85"/>
 </g>
</svg>
