<?xml version="1.0" encoding="UTF-8"?>
<!--Generator: Apple Native CoreSVG 360-->
<!DOCTYPE svg
PUBLIC "-//W3C//DTD SVG 1.1//EN"
       "http://www.w3.org/Graphics/SVG/1.1/DTD/svg11.dtd">
<svg version="1.1" xmlns="http://www.w3.org/2000/svg" xmlns:xlink="http://www.w3.org/1999/xlink" viewBox="0 0 31.1367 21.7148">
 <g>
  <rect height="21.7148" opacity="0" width="31.1367" x="0" y="0"/>
  <path d="M8.03906 21.7031L22.7578 21.7031C24.7031 21.7031 25.6289 21.1172 25.6289 19.8281C25.6289 16.7578 21.75 12.3164 15.3984 12.3164C9.03516 12.3164 5.15625 16.7578 5.15625 19.8281C5.15625 21.1172 6.08203 21.7031 8.03906 21.7031ZM7.47656 19.9336C7.17188 19.9336 7.04297 19.8516 7.04297 19.6055C7.04297 17.6719 10.0195 14.0859 15.3984 14.0859C20.7656 14.0859 23.7422 17.6719 23.7422 19.6055C23.7422 19.8516 23.625 19.9336 23.3203 19.9336ZM15.3984 10.8516C18.1875 10.8516 20.4609 8.37891 20.4609 5.35547C20.4609 2.35547 18.1992 0 15.3984 0C12.6211 0 10.3359 2.40234 10.3359 5.37891C10.3359 8.39062 12.6211 10.8516 15.3984 10.8516ZM15.3984 9.08203C13.6875 9.08203 12.2227 7.45312 12.2227 5.37891C12.2227 3.33984 13.6641 1.76953 15.3984 1.76953C17.1445 1.76953 18.5742 3.30469 18.5742 5.35547C18.5742 7.42969 17.1328 9.08203 15.3984 9.08203Z" fill="black" fill-opacity="0.85"/>
  <path d="M7.91016 4.44141L2.91797 4.44141C2.40234 4.44141 2.00391 4.85156 2.00391 5.35547C2.00391 5.87109 2.40234 6.26953 2.91797 6.26953L7.91016 6.26953C8.42578 6.26953 8.83594 5.87109 8.83594 5.35547C8.83594 4.85156 8.42578 4.44141 7.91016 4.44141ZM25.8867 3.02344L25.8867 7.71094C25.8867 8.51953 26.6719 8.8125 27.3164 8.32031L30.457 5.98828C30.8906 5.67188 30.8906 5.07422 30.457 4.74609L27.3164 2.40234C26.6953 1.93359 25.8867 2.17969 25.8867 3.02344ZM4.88672 7.71094L4.88672 3.02344C4.88672 2.17969 4.08984 1.93359 3.45703 2.40234L0.316406 4.74609C-0.105469 5.07422-0.105469 5.67188 0.316406 5.98828L3.45703 8.32031C4.11328 8.8125 4.88672 8.51953 4.88672 7.71094ZM22.8633 6.26953L27.8555 6.26953C28.3711 6.26953 28.7812 5.87109 28.7812 5.35547C28.7812 4.85156 28.3711 4.44141 27.8555 4.44141L22.8633 4.44141C22.3477 4.44141 21.9492 4.85156 21.9492 5.35547C21.9492 5.87109 22.3477 6.26953 22.8633 6.26953Z" fill="black" fill-opacity="0.85"/>
 </g>
</svg>
