<?xml version="1.0" encoding="UTF-8"?>
<!--Generator: Apple Native CoreSVG 360-->
<!DOCTYPE svg
PUBLIC "-//W3C//DTD SVG 1.1//EN"
       "http://www.w3.org/Graphics/SVG/1.1/DTD/svg11.dtd">
<svg version="1.1" xmlns="http://www.w3.org/2000/svg" xmlns:xlink="http://www.w3.org/1999/xlink" viewBox="0 0 28.6992 28.1836">
 <g>
  <rect height="28.1836" opacity="0" width="28.6992" x="0" y="0"/>
  <path d="M15.0586 23.2936L15.0586 27.0938C15.0586 27.668 14.7188 28.0195 14.1797 28.0195C13.6172 28.0195 13.2891 27.668 13.2891 27.0938L13.2891 22.9838ZM15.0586 13.125L22.3711 13.125L22.3711 14.8945L15.0586 14.8945L15.0586 21.5285L13.2891 21.2215L13.2891 14.8945L5.97656 14.8945L5.97656 13.125L13.2891 13.125L13.2891 6.80305L15.0586 6.49773ZM4.20703 14.8945L0.9375 14.8945C0.351562 14.8945 0 14.5547 0 14.0156C0 13.4531 0.351562 13.125 0.9375 13.125L4.20703 13.125ZM28.3477 14.0156C28.3477 14.5547 27.9961 14.8945 27.4102 14.8945L24.1406 14.8945L24.1406 13.125L27.4102 13.125C27.9961 13.125 28.3477 13.4531 28.3477 14.0156ZM15.0586 0.9375L15.0586 4.73101L13.2891 5.04242L13.2891 0.9375C13.2891 0.351562 13.6172 0 14.1797 0C14.7188 0 15.0586 0.351562 15.0586 0.9375Z" fill="black" fill-opacity="0.85"/>
  <path d="M7.78125 22.0195L20.5664 24.2578C22.8047 24.6562 24.1406 23.25 24.1406 20.7422L24.1406 7.28906C24.1406 4.65234 22.8984 3.35156 20.5664 3.76172L7.78125 6.01172C5.44922 6.42188 4.20703 7.55859 4.20703 9.52734L4.20703 18.4922C4.20703 20.4492 5.44922 21.6094 7.78125 22.0195ZM7.6875 20.25C6.57422 20.0625 5.97656 19.5 5.97656 18.5156L5.97656 9.50391C5.97656 8.51953 6.57422 7.95703 7.6875 7.76953L20.6602 5.53125C21.7734 5.34375 22.3711 5.96484 22.3711 7.26562L22.3711 20.7656C22.3711 22.0078 21.7383 22.6758 20.6602 22.5Z" fill="black" fill-opacity="0.85"/>
 </g>
</svg>
