<?xml version="1.0" encoding="UTF-8"?>
<!--Generator: Apple Native CoreSVG 360-->
<!DOCTYPE svg
PUBLIC "-//W3C//DTD SVG 1.1//EN"
       "http://www.w3.org/Graphics/SVG/1.1/DTD/svg11.dtd">
<svg version="1.1" xmlns="http://www.w3.org/2000/svg" xmlns:xlink="http://www.w3.org/1999/xlink" viewBox="0 0 24.6797 30.9961">
 <g>
  <rect height="30.9961" opacity="0" width="24.6797" x="0" y="0"/>
  <path d="M17.562 3.41016L6.76614 3.41016C6.80983 2.45135 7.4117 1.91016 8.41406 1.91016L15.9141 1.91016C16.9164 1.91016 17.5183 2.45135 17.562 3.41016Z" fill="black" fill-opacity="0.85"/>
  <path d="M19.9587 6.75759C19.5818 6.69768 19.182 6.66797 18.7617 6.66797L5.56641 6.66797C5.14623 6.66797 4.74657 6.69749 4.3698 6.75709C4.49754 5.63154 5.25933 5.00391 6.50391 5.00391L17.8359 5.00391C19.0807 5.00391 19.8329 5.63172 19.9587 6.75759Z" fill="black" fill-opacity="0.85"/>
  <path d="M10.8309 22.5489C9.70262 23.6013 9.05859 24.9752 9.05859 26.3438C9.05859 26.6618 9.10056 26.9564 9.17997 27.2227L5.60156 27.2227C4.42969 27.2227 3.77344 26.5898 3.77344 25.3711L3.77344 25.0757C4.26634 23.4162 5.98957 21.9961 8.40234 21.9961C9.32393 21.9961 10.1434 22.2016 10.8309 22.5489ZM10.6758 18.2461C10.6758 19.6758 9.63281 20.7656 8.41406 20.7656C7.19531 20.7656 6.14062 19.6758 6.14062 18.2578C6.14062 16.875 7.19531 15.8203 8.41406 15.8203C9.62109 15.8203 10.6758 16.8516 10.6758 18.2461Z" fill="black" fill-opacity="0.85"/>
  <path d="M20.5547 24.1227L20.5547 25.3711C20.5547 26.5898 19.8867 27.2227 18.7383 27.2227L10.6812 27.2227C10.5131 27.0162 10.418 26.7157 10.418 26.3438C10.418 24.2461 12.5977 22.0195 15.8906 22.0195C18.0249 22.0195 19.6779 22.9365 20.5547 24.1227ZM18.4922 17.7305C18.4922 19.3477 17.2969 20.6016 15.9023 20.6016C14.5078 20.6016 13.2891 19.3477 13.2891 17.7539C13.2891 16.1602 14.5078 14.9414 15.9023 14.9414C17.2852 14.9414 18.4922 16.125 18.4922 17.7305Z" fill="black" fill-opacity="0.85"/>
  <path d="M5.56641 29.1094L18.7617 29.1094C21.2109 29.1094 22.4414 27.8906 22.4414 25.4766L22.4414 12.1875C22.4414 9.77344 21.2109 8.55469 18.7617 8.55469L5.56641 8.55469C3.11719 8.55469 1.88672 9.76172 1.88672 12.1875L1.88672 25.4766C1.88672 27.8906 3.11719 29.1094 5.56641 29.1094ZM5.60156 27.2227C4.42969 27.2227 3.77344 26.5898 3.77344 25.3711L3.77344 12.2812C3.77344 11.0742 4.42969 10.4414 5.60156 10.4414L18.7383 10.4414C19.8867 10.4414 20.5547 11.0742 20.5547 12.2812L20.5547 25.3711C20.5547 26.5898 19.8867 27.2227 18.7383 27.2227Z" fill="black" fill-opacity="0.85"/>
 </g>
</svg>
