<?xml version="1.0" encoding="UTF-8"?>
<!--Generator: Apple Native CoreSVG 360-->
<!DOCTYPE svg
PUBLIC "-//W3C//DTD SVG 1.1//EN"
       "http://www.w3.org/Graphics/SVG/1.1/DTD/svg11.dtd">
<svg version="1.1" xmlns="http://www.w3.org/2000/svg" xmlns:xlink="http://www.w3.org/1999/xlink" viewBox="0 0 28.957 27.7691">
 <g>
  <rect height="27.7691" opacity="0" width="28.957" x="0" y="0"/>
  <path d="M25.2891 16.2693C25.7227 16.5623 26.2617 16.4568 26.5781 16.0115C28.0781 13.949 28.957 11.1131 28.957 8.21854C28.957 5.32401 28.0898 2.46463 26.5781 0.425568C26.2617-0.031463 25.7227-0.125213 25.2891 0.167756C24.8672 0.460725 24.7852 1.01151 25.1367 1.49197C26.4141 3.29666 27.1406 5.72244 27.1406 8.21854C27.1406 10.7146 26.3906 13.117 25.1367 14.9451C24.7969 15.4256 24.8672 15.9763 25.2891 16.2693Z" fill="black" fill-opacity="0.85"/>
  <path d="M20.9531 13.2107C21.3398 13.4803 21.9023 13.3982 22.207 12.9412C23.1094 11.7576 23.6484 10.0115 23.6484 8.21854C23.6484 6.42557 23.1094 4.69119 22.207 3.48416C21.9023 3.03885 21.3398 2.9451 20.9531 3.22635C20.4727 3.55447 20.4023 4.14041 20.7656 4.62088C21.457 5.55838 21.832 6.85916 21.832 8.21854C21.832 9.57791 21.4453 10.867 20.7656 11.8162C20.4141 12.3084 20.4727 12.8709 20.9531 13.2107Z" fill="black" fill-opacity="0.85"/>
  <path d="M4.92188 24.7303L19.6406 24.7303C21.5859 24.7303 22.5117 24.1443 22.5117 22.8553C22.5117 19.7849 18.6445 15.3435 12.2812 15.3435C5.91797 15.3435 2.03906 19.7849 2.03906 22.8553C2.03906 24.1443 2.96484 24.7303 4.92188 24.7303ZM4.35938 22.9607C4.05469 22.9607 3.92578 22.8787 3.92578 22.6326C3.92578 20.699 6.90234 17.1131 12.2812 17.1131C17.6602 17.1131 20.625 20.699 20.625 22.6326C20.625 22.8787 20.5078 22.9607 20.2031 22.9607ZM12.2812 13.8787C15.0703 13.8787 17.3438 11.406 17.3438 8.3826C17.3438 5.3826 15.0938 3.02713 12.2812 3.02713C9.50391 3.02713 7.21875 5.42947 7.21875 8.40604C7.23047 11.4178 9.50391 13.8787 12.2812 13.8787ZM12.2812 12.1092C10.5703 12.1092 9.10547 10.4803 9.10547 8.40604C9.10547 6.36697 10.5469 4.79666 12.2812 4.79666C14.0391 4.79666 15.457 6.33182 15.457 8.3826C15.457 10.4568 14.0156 12.1092 12.2812 12.1092Z" fill="black" fill-opacity="0.85"/>
 </g>
</svg>
