<?xml version="1.0" encoding="UTF-8"?>
<!--Generator: Apple Native CoreSVG 360-->
<!DOCTYPE svg
PUBLIC "-//W3C//DTD SVG 1.1//EN"
       "http://www.w3.org/Graphics/SVG/1.1/DTD/svg11.dtd">
<svg version="1.1" xmlns="http://www.w3.org/2000/svg" xmlns:xlink="http://www.w3.org/1999/xlink" viewBox="0 0 25.7344 22.9102">
 <g>
  <rect height="22.9102" opacity="0" width="25.7344" x="0" y="0"/>
  <path d="M2.00391 21.9844L17.7188 21.9844C18.9727 21.9844 19.7227 21.3984 19.7227 20.4258C19.7227 17.4023 15.9375 13.2305 9.85547 13.2305C3.78516 13.2305 0 17.4023 0 20.4258C0 21.3984 0.75 21.9844 2.00391 21.9844ZM9.86719 11.1328C12.375 11.1328 14.5547 8.88281 14.5547 5.95312C14.5547 3.05859 12.375 0.914062 9.86719 0.914062C7.35938 0.914062 5.17969 3.10547 5.17969 5.97656C5.17969 8.88281 7.34766 11.1328 9.86719 11.1328Z" fill="black" fill-opacity="0.85"/>
  <path d="M21.293 8.42578C21.8789 8.42578 22.2305 8.05078 22.2305 7.58203C22.2305 7.54688 22.2305 7.48828 22.2305 7.44141C22.2305 6.78516 22.6172 6.375 23.4375 5.83594C24.5742 5.08594 25.3828 4.39453 25.3828 3C25.3828 1.05469 23.6484 0 21.6562 0C19.6406 0 18.3164 0.960938 18 2.02734C17.9414 2.22656 17.9062 2.41406 17.9062 2.61328C17.9062 3.14062 18.3164 3.42188 18.7031 3.42188C19.1016 3.42188 19.3594 3.23438 19.5703 2.95312L19.7812 2.67188C20.1914 1.98047 20.8008 1.59375 21.5859 1.59375C22.6523 1.59375 23.3438 2.20312 23.3438 3.09375C23.3438 3.89062 22.8516 4.27734 21.8203 4.99219C20.9883 5.57812 20.3555 6.19922 20.3555 7.34766C20.3555 7.39453 20.3555 7.44141 20.3555 7.48828C20.3555 8.10938 20.6953 8.42578 21.293 8.42578ZM21.2695 11.918C21.9375 11.918 22.5352 11.3789 22.5352 10.6992C22.5352 10.0195 21.9492 9.48047 21.2695 9.48047C20.5781 9.48047 20.0039 10.0312 20.0039 10.6992C20.0039 11.3672 20.5898 11.918 21.2695 11.918Z" fill="black" fill-opacity="0.85"/>
 </g>
</svg>
