<?xml version="1.0" encoding="UTF-8"?>
<!--Generator: Apple Native CoreSVG 360-->
<!DOCTYPE svg
PUBLIC "-//W3C//DTD SVG 1.1//EN"
       "http://www.w3.org/Graphics/SVG/1.1/DTD/svg11.dtd">
<svg version="1.1" xmlns="http://www.w3.org/2000/svg" xmlns:xlink="http://www.w3.org/1999/xlink" viewBox="0 0 32.7773 21.7148">
 <g>
  <rect height="21.7148" opacity="0" width="32.7773" x="0" y="0"/>
  <path d="M2.87109 21.7031L17.6016 21.7031C19.5469 21.7031 20.4727 21.1172 20.4727 19.8281C20.4727 16.7578 16.5938 12.3164 10.2422 12.3164C3.87891 12.3164 0 16.7578 0 19.8281C0 21.1172 0.925781 21.7031 2.87109 21.7031ZM2.32031 19.9336C2.01562 19.9336 1.88672 19.8516 1.88672 19.6055C1.88672 17.6719 4.86328 14.0859 10.2422 14.0859C15.6094 14.0859 18.5859 17.6719 18.5859 19.6055C18.5859 19.8516 18.4688 19.9336 18.1641 19.9336ZM10.2422 10.8516C13.0312 10.8516 15.3047 8.37891 15.3047 5.35547C15.3047 2.35547 13.043 0 10.2422 0C7.46484 0 5.17969 2.40234 5.17969 5.37891C5.17969 8.39062 7.45312 10.8516 10.2422 10.8516ZM10.2422 9.08203C8.53125 9.08203 7.06641 7.45312 7.06641 5.37891C7.06641 3.33984 8.50781 1.76953 10.2422 1.76953C11.9883 1.76953 13.418 3.30469 13.418 5.35547C13.418 7.42969 11.9648 9.08203 10.2422 9.08203Z" fill="black" fill-opacity="0.85"/>
  <path d="M26.3906 9.78516C26.7891 9.78516 27.1523 9.58594 27.3867 9.22266L32.1328 1.72266C32.2734 1.52344 32.4258 1.23047 32.4258 0.960938C32.4258 0.375 31.9102 0.0117188 31.3945 0.0117188C31.0547 0.0117188 30.7383 0.199219 30.5156 0.574219L26.3438 7.26562L24.4336 4.83984C24.1523 4.46484 23.8477 4.33594 23.5195 4.33594C22.9688 4.33594 22.5352 4.80469 22.5352 5.35547C22.5352 5.60156 22.6406 5.89453 22.8047 6.10547L25.3594 9.23438C25.6523 9.60938 25.9805 9.78516 26.3906 9.78516ZM24.1055 21.3281C24.3633 21.3281 24.6094 21.2227 24.7969 21.0234L31.5352 14.2852C31.7344 14.0742 31.8281 13.8633 31.8281 13.6055C31.8281 13.0664 31.3945 12.6562 30.8555 12.6562C30.6094 12.6562 30.3984 12.7383 30.1992 12.9375L23.4375 19.6875C23.25 19.8633 23.1445 20.0977 23.1445 20.3555C23.1445 20.8828 23.5781 21.3281 24.1055 21.3281ZM30.8672 21.3281C31.3945 21.3281 31.8281 20.8828 31.8281 20.3555C31.8281 20.0977 31.7227 19.8633 31.5469 19.6875L24.7734 12.9375C24.5742 12.7383 24.3633 12.6562 24.1172 12.6562C23.5781 12.6562 23.1445 13.0664 23.1445 13.6055C23.1445 13.8633 23.2383 14.0742 23.4492 14.2852L30.1758 21.0234C30.3633 21.2227 30.6094 21.3281 30.8672 21.3281Z" fill="black" fill-opacity="0.85"/>
 </g>
</svg>
