<?xml version="1.0" encoding="UTF-8"?>
<!--Generator: Apple Native CoreSVG 360-->
<!DOCTYPE svg
PUBLIC "-//W3C//DTD SVG 1.1//EN"
       "http://www.w3.org/Graphics/SVG/1.1/DTD/svg11.dtd">
<svg version="1.1" xmlns="http://www.w3.org/2000/svg" xmlns:xlink="http://www.w3.org/1999/xlink" viewBox="0 0 32.4258 21.6914">
 <g>
  <rect height="21.6914" opacity="0" width="32.4258" x="0" y="0"/>
  <path d="M2.00391 21.375L17.7188 21.375C18.9727 21.375 19.7227 20.7891 19.7227 19.8164C19.7227 16.793 15.9375 12.6211 9.85547 12.6211C3.78516 12.6211 0 16.793 0 19.8164C0 20.7891 0.75 21.375 2.00391 21.375ZM9.86719 10.5234C12.375 10.5234 14.5547 8.27344 14.5547 5.34375C14.5547 2.44922 12.375 0.304688 9.86719 0.304688C7.35938 0.304688 5.17969 2.49609 5.17969 5.36719C5.17969 8.27344 7.34766 10.5234 9.86719 10.5234Z" fill="black" fill-opacity="0.85"/>
  <path d="M26.0391 9.77344C26.4375 9.77344 26.8008 9.57422 27.0352 9.21094L31.7812 1.71094C31.9219 1.51172 32.0742 1.21875 32.0742 0.949219C32.0742 0.363281 31.5586 0 31.043 0C30.7031 0 30.3867 0.1875 30.1641 0.5625L25.9922 7.25391L24.082 4.82812C23.8008 4.45312 23.4961 4.32422 23.168 4.32422C22.6172 4.32422 22.1836 4.79297 22.1836 5.34375C22.1836 5.58984 22.2891 5.88281 22.4531 6.09375L25.0078 9.22266C25.3008 9.59766 25.6289 9.77344 26.0391 9.77344ZM23.7539 21.3164C24.0117 21.3164 24.2695 21.2109 24.4453 21.0117L31.1836 14.2734C31.3828 14.0625 31.4766 13.8516 31.4766 13.5938C31.4766 13.0547 31.0547 12.6445 30.5039 12.6445C30.2578 12.6445 30.0469 12.7266 29.8477 12.9258L23.0859 19.6758C22.8984 19.8516 22.793 20.0859 22.793 20.3438C22.793 20.8711 23.2266 21.3164 23.7539 21.3164ZM30.5156 21.3164C31.0547 21.3164 31.4766 20.8711 31.4766 20.3438C31.4766 20.0859 31.3711 19.8516 31.1953 19.6758L24.4219 12.9258C24.2344 12.7266 24.0117 12.6445 23.7656 12.6445C23.2266 12.6445 22.793 13.0547 22.793 13.5938C22.793 13.8516 22.8867 14.0625 23.0977 14.2734L29.8242 21.0117C30.0117 21.2109 30.2578 21.3164 30.5156 21.3164Z" fill="black" fill-opacity="0.85"/>
 </g>
</svg>
