<?xml version="1.0" encoding="UTF-8"?>
<!--Generator: Apple Native CoreSVG 360-->
<!DOCTYPE svg
PUBLIC "-//W3C//DTD SVG 1.1//EN"
       "http://www.w3.org/Graphics/SVG/1.1/DTD/svg11.dtd">
<svg version="1.1" xmlns="http://www.w3.org/2000/svg" xmlns:xlink="http://www.w3.org/1999/xlink" viewBox="0 0 29.1211 19.1836">
 <g>
  <rect height="19.1836" opacity="0" width="29.1211" x="0" y="0"/>
  <path d="M14.5898 19.1836L21.9609 19.1836C25.9336 19.1836 28.7695 16.3945 28.7695 12.3633C28.7695 8.67188 26.3672 6.01172 22.8984 5.61328L22.4883 5.61328C22.5938 6.21094 22.5938 7.01953 22.5586 7.58203L22.9336 7.58203C25.2188 8.02734 26.7656 9.87891 26.7656 12.3633C26.7656 15.2695 24.7031 17.2969 21.8203 17.2969L14.7188 17.2969C11.8477 17.2969 9.78516 15.2695 9.78516 12.3633C9.78516 9.48047 11.8477 7.44141 14.7188 7.44141L17.3438 7.44141C17.4258 6.82031 17.3672 6.12891 17.0625 5.55469L14.5898 5.55469C10.6172 5.55469 7.78125 8.34375 7.78125 12.3633C7.78125 16.3945 10.6172 19.1836 14.5898 19.1836ZM14.1797 13.7344C18.1523 13.7344 20.9766 10.9453 20.9766 6.91406C20.9766 2.89453 18.1523 0.105469 14.1797 0.105469L6.80859 0.105469C2.83594 0.105469 0 2.89453 0 6.91406C0 10.6289 2.40234 13.2773 5.87109 13.6641L6.28125 13.6641C6.16406 13.043 6.16406 12.0938 6.1875 11.6953L5.80078 11.6953C3.53906 11.2617 2.00391 9.41016 2.00391 6.91406C2.00391 4.03125 4.06641 1.99219 6.9375 1.99219L14.0391 1.99219C16.9219 1.99219 18.9727 4.03125 18.9727 6.91406C18.9727 9.82031 16.9219 11.8477 14.0391 11.8477L11.4258 11.8477C11.332 12.4805 11.4141 13.1484 11.6953 13.7344Z" fill="black" fill-opacity="0.85"/>
 </g>
</svg>
