<?xml version="1.0" encoding="UTF-8"?>
<!--Generator: Apple Native CoreSVG 360-->
<!DOCTYPE svg
PUBLIC "-//W3C//DTD SVG 1.1//EN"
       "http://www.w3.org/Graphics/SVG/1.1/DTD/svg11.dtd">
<svg version="1.1" xmlns="http://www.w3.org/2000/svg" xmlns:xlink="http://www.w3.org/1999/xlink" viewBox="0 0 28.2763 28.4171">
 <g>
  <rect height="28.4171" opacity="0" width="28.2763" x="0" y="0"/>
  <path d="M13.4877 15.9136C15.8198 16.4175 18.0815 14.7066 18.3159 11.9058C18.5737 9.10503 16.6518 6.65581 14.3315 6.17534C12.0229 5.67143 9.7729 7.30034 9.51508 10.0542C9.28071 12.8316 11.1791 15.4332 13.4877 15.9136ZM6.2104 25.1949L20.9409 28.3355C22.1479 28.605 22.9096 28.1949 22.9916 27.2808C23.2377 24.3746 20.0151 19.605 14.2846 18.3863C8.56586 17.1792 4.66352 20.4136 4.41743 23.2847C4.3354 24.2222 5.01508 24.9371 6.2104 25.1949Z" fill="black" fill-opacity="0.85"/>
  <path d="M1.60493 16.4175C1.82758 16.9566 2.42524 17.3199 3.08149 17.3199C5.29633 17.3199 6.64399 14.6128 6.64399 10.9097C6.64399 7.20659 5.29633 4.49956 3.08149 4.49956C2.42524 4.49956 1.82758 4.87456 1.60493 5.4019C1.49946 5.68315 1.80415 5.98784 2.07368 5.88237C2.33149 5.78862 2.43696 5.74174 2.78852 5.74174C4.20649 5.74174 5.2143 8.13237 5.2143 10.9097C5.2143 13.6871 4.20649 16.0777 2.78852 16.0777C2.43696 16.0777 2.33149 16.0308 2.07368 15.9371C1.80415 15.8433 1.49946 16.1363 1.60493 16.4175ZM26.3081 16.4175C26.4252 16.1363 26.1088 15.8433 25.851 15.9371C25.5932 16.0308 25.4877 16.0777 25.1362 16.0777C23.7182 16.0777 22.7104 13.6871 22.7104 10.9097C22.7104 8.13237 23.7182 5.74174 25.1362 5.74174C25.4877 5.74174 25.5932 5.78862 25.851 5.88237C26.1088 5.98784 26.4252 5.68315 26.3081 5.4019C26.0971 4.87456 25.4995 4.49956 24.8432 4.49956C22.6284 4.49956 21.269 7.20659 21.269 10.9097C21.269 14.6128 22.6284 17.3199 24.8432 17.3199C25.4995 17.3199 26.0971 16.9566 26.3081 16.4175Z" fill="black" fill-opacity="0.85"/>
  <path d="M0.128364 14.5894C0.374458 14.8589 0.737739 15.0582 1.17133 15.0582C2.48383 15.0582 3.47993 13.3941 3.47993 10.9097C3.47993 8.42534 2.48383 6.76128 1.17133 6.76128C0.737739 6.76128 0.374458 6.96049 0.128364 7.23003C-0.176323 7.58159 0.116645 7.99174 0.433052 7.88628C0.585395 7.82768 0.690864 7.80424 0.81977 7.80424C1.6518 7.80424 2.29633 9.19878 2.29633 10.9097C2.29633 12.6324 1.6518 14.0269 0.81977 14.0269C0.690864 14.0269 0.585395 14.0035 0.433052 13.9332C0.116645 13.8277-0.176323 14.2378 0.128364 14.5894ZM27.7846 14.5894C28.101 14.2378 27.8081 13.8277 27.4916 13.9332C27.3276 14.0035 27.2338 14.0269 27.1049 14.0269C26.2729 14.0269 25.6284 12.6324 25.6284 10.9097C25.6284 9.19878 26.2729 7.80424 27.1049 7.80424C27.2338 7.80424 27.3276 7.82768 27.4916 7.88628C27.8081 7.99174 28.101 7.58159 27.7846 7.23003C27.5502 6.96049 27.187 6.76128 26.7534 6.76128C25.4409 6.76128 24.4448 8.42534 24.4448 10.9097C24.4448 13.3941 25.4409 15.0582 26.7534 15.0582C27.187 15.0582 27.5502 14.8589 27.7846 14.5894Z" fill="black" fill-opacity="0.85"/>
 </g>
</svg>
