<?xml version="1.0" encoding="UTF-8"?>
<!--Generator: Apple Native CoreSVG 360-->
<!DOCTYPE svg
PUBLIC "-//W3C//DTD SVG 1.1//EN"
       "http://www.w3.org/Graphics/SVG/1.1/DTD/svg11.dtd">
<svg version="1.1" xmlns="http://www.w3.org/2000/svg" xmlns:xlink="http://www.w3.org/1999/xlink" viewBox="0 0 20.0625 25.1367">
 <g>
  <rect height="25.1367" opacity="0" width="20.0625" x="0" y="0"/>
  <path d="M0 24.1992C0 24.7617 0.375 25.125 0.9375 25.125L18.7734 25.125C19.3359 25.125 19.7109 24.7617 19.7109 24.1992L19.7109 0.9375C19.7109 0.375 19.3359 0 18.7734 0L0.9375 0C0.375 0 0 0.375 0 0.9375ZM1.88672 22.8984L1.88672 2.23828C1.88672 1.98047 1.98047 1.88672 2.22656 1.88672L17.4844 1.88672C17.7305 1.88672 17.8242 1.98047 17.8242 2.23828L17.8242 22.8984C17.8242 23.1562 17.7305 23.2383 17.4844 23.2383L2.22656 23.2383C1.98047 23.2383 1.88672 23.1562 1.88672 22.8984Z" fill="black" fill-opacity="0.85"/>
  <path d="M3.15234 21.293C3.15234 21.7266 3.39844 21.9844 3.83203 21.9844L15.8789 21.9844C16.3125 21.9844 16.5586 21.7266 16.5586 21.293L16.5586 3.84375C16.5586 3.41016 16.3125 3.15234 15.8789 3.15234L3.83203 3.15234C3.39844 3.15234 3.15234 3.41016 3.15234 3.84375ZM4.33594 20.5312L4.33594 4.60547C4.33594 4.42969 4.41797 4.33594 4.59375 4.33594L15.1172 4.33594C15.293 4.33594 15.375 4.42969 15.375 4.60547L15.375 20.5312C15.375 20.707 15.293 20.8008 15.1172 20.8008L4.59375 20.8008C4.41797 20.8008 4.33594 20.707 4.33594 20.5312ZM4.28906 21.3281L15.3984 21.3281C15.8789 21.3281 16.1016 21.0234 16.1016 20.5781C16.1016 19.2539 14.1094 15.7969 9.84375 15.7969C5.58984 15.7969 3.58594 19.2539 3.58594 20.5781C3.58594 21.0234 3.80859 21.3281 4.28906 21.3281ZM9.84375 14.8008C11.5781 14.8125 12.9609 13.3477 12.9609 11.4023C12.9609 9.57422 11.5781 8.0625 9.84375 8.0625C8.12109 8.0625 6.72656 9.57422 6.72656 11.4023C6.72656 13.3477 8.12109 14.7891 9.84375 14.8008Z" fill="black" fill-opacity="0.85"/>
 </g>
</svg>
