<?xml version="1.0" encoding="UTF-8"?>
<!--Generator: Apple Native CoreSVG 360-->
<!DOCTYPE svg
PUBLIC "-//W3C//DTD SVG 1.1//EN"
       "http://www.w3.org/Graphics/SVG/1.1/DTD/svg11.dtd">
<svg version="1.1" xmlns="http://www.w3.org/2000/svg" xmlns:xlink="http://www.w3.org/1999/xlink" viewBox="0 0 41.9414 19.2539">
 <g>
  <rect height="19.2539" opacity="0" width="41.9414" x="0" y="0"/>
  <path d="M8.68359 9.62109C11.1445 9.62109 13.1836 7.42969 13.1836 4.74609C13.1836 2.09766 11.168 0 8.68359 0C6.21094 0 4.19531 2.13281 4.19531 4.75781C4.19531 7.44141 6.22266 9.62109 8.68359 9.62109ZM8.68359 7.85156C7.25391 7.85156 6.07031 6.51562 6.07031 4.75781C6.07031 3.05859 7.23047 1.76953 8.68359 1.76953C10.1367 1.76953 11.3086 3.03516 11.3086 4.74609C11.3086 6.49219 10.125 7.85156 8.68359 7.85156ZM2.57812 19.1836L14.7773 19.1836C16.4766 19.1836 17.3555 18.6328 17.3555 17.4375C17.3555 14.7422 14.2266 10.8281 8.67188 10.8281C3.12891 10.8281 0 14.7422 0 17.4375C0 18.6328 0.867188 19.1836 2.57812 19.1836ZM2.12109 17.4141C1.94531 17.4141 1.875 17.3438 1.875 17.2031C1.875 15.6562 4.08984 12.5977 8.67188 12.5977C13.2539 12.5977 15.4688 15.6562 15.4688 17.2031C15.4688 17.3438 15.3984 17.4141 15.2344 17.4141ZM32.9297 9.67969C35.3906 9.67969 37.418 7.48828 37.418 4.80469C37.418 2.15625 35.4141 0.0585938 32.9297 0.0585938C30.457 0.0585938 28.4297 2.19141 28.4297 4.81641C28.4297 7.5 30.457 9.67969 32.9297 9.67969ZM32.9297 7.91016C31.4883 7.91016 30.3047 6.57422 30.3047 4.81641C30.3047 3.11719 31.4766 1.82812 32.9297 1.82812C34.3711 1.82812 35.543 3.09375 35.543 4.80469C35.543 6.55078 34.3711 7.91016 32.9297 7.91016ZM26.8242 19.2422L39.0117 19.2422C40.7227 19.2422 41.5898 18.6914 41.5898 17.4961C41.5898 14.8008 38.4727 10.8867 32.918 10.8867C27.3633 10.8867 24.2461 14.8008 24.2461 17.4961C24.2461 18.6914 25.1133 19.2422 26.8242 19.2422ZM26.3672 17.4727C26.1914 17.4727 26.1211 17.4023 26.1211 17.2617C26.1211 15.7148 28.3359 12.6562 32.918 12.6562C37.5 12.6562 39.7148 15.7148 39.7148 17.2617C39.7148 17.4023 39.6445 17.4727 39.4688 17.4727Z" fill="black" fill-opacity="0.85"/>
  <path d="M16.9102 9.72656C17.4609 9.72656 17.918 9.26953 17.918 8.71875C17.918 8.16797 17.4609 7.71094 16.9102 7.71094C16.3594 7.71094 15.9023 8.16797 15.9023 8.71875C15.9023 9.26953 16.3594 9.72656 16.9102 9.72656ZM20.8008 9.72656C21.3516 9.72656 21.8086 9.26953 21.8086 8.71875C21.8086 8.16797 21.3516 7.71094 20.8008 7.71094C20.25 7.71094 19.793 8.16797 19.793 8.71875C19.793 9.26953 20.25 9.72656 20.8008 9.72656ZM24.668 9.72656C25.2188 9.72656 25.6758 9.26953 25.6758 8.71875C25.6758 8.16797 25.2188 7.71094 24.668 7.71094C24.1172 7.71094 23.6602 8.16797 23.6602 8.71875C23.6602 9.26953 24.1172 9.72656 24.668 9.72656Z" fill="black" fill-opacity="0.85"/>
 </g>
</svg>
