<?xml version="1.0" encoding="UTF-8"?>
<!--Generator: Apple Native CoreSVG 360-->
<!DOCTYPE svg
PUBLIC "-//W3C//DTD SVG 1.1//EN"
       "http://www.w3.org/Graphics/SVG/1.1/DTD/svg11.dtd">
<svg version="1.1" xmlns="http://www.w3.org/2000/svg" xmlns:xlink="http://www.w3.org/1999/xlink" viewBox="0 0 26.5195 25.0195">
 <g>
  <rect height="25.0195" opacity="0" width="26.5195" x="0" y="0"/>
  <path d="M14.5195 0.410156L24.5273 6.1875C24.9609 6.43359 25.1602 6.73828 25.1602 7.08984C25.1602 7.57031 24.7852 8.03906 24.1406 8.03906L23.1094 8.03906L23.1094 21.5156L23.8594 21.5156C24.3398 21.5156 24.6094 21.7969 24.6094 22.2656L24.6094 23.1211L25.2188 23.1211C25.7344 23.1211 26.168 23.543 26.168 24.0586C26.168 24.5742 25.7344 25.0078 25.2188 25.0078L0.9375 25.0078C0.421875 25.0078 0 24.5742 0 24.0586C0 23.543 0.421875 23.1211 0.9375 23.1211L1.55859 23.1211L1.55859 22.2656C1.55859 21.7969 1.83984 21.5156 2.32031 21.5156L3.05859 21.5156L3.05859 8.03906L2.02734 8.03906C1.38281 8.03906 1.00781 7.57031 1.00781 7.08984C1.00781 6.73828 1.19531 6.43359 1.64062 6.1875L11.6484 0.410156C12.0938 0.140625 12.5977 0 13.0781 0C13.5586 0 14.0508 0.140625 14.5195 0.410156ZM7.11328 18.7617C7.11328 19.207 7.33594 19.5352 7.82812 19.5352L18.8672 19.5352C19.3594 19.5352 19.582 19.207 19.582 18.7617C19.582 17.4492 17.5898 14.0156 13.3477 14.0156C9.10547 14.0156 7.11328 17.4492 7.11328 18.7617ZM10.2422 9.63281C10.2422 11.5664 11.6367 13.0195 13.3477 13.0312C15.0586 13.043 16.4531 11.5664 16.4531 9.63281C16.4531 7.82812 15.0586 6.31641 13.3477 6.31641C11.6367 6.31641 10.2422 7.82812 10.2422 9.63281Z" fill="black" fill-opacity="0.85"/>
 </g>
</svg>
