<?xml version="1.0" encoding="UTF-8"?>
<!--Generator: Apple Native CoreSVG 360-->
<!DOCTYPE svg
PUBLIC "-//W3C//DTD SVG 1.1//EN"
       "http://www.w3.org/Graphics/SVG/1.1/DTD/svg11.dtd">
<svg version="1.1" xmlns="http://www.w3.org/2000/svg" xmlns:xlink="http://www.w3.org/1999/xlink" viewBox="0 0 27.9844 21.5742">
 <g>
  <rect height="21.5742" opacity="0" width="27.9844" x="0" y="0"/>
  <path d="M3.67969 21.5742L23.9531 21.5742C26.4141 21.5742 27.6328 20.3672 27.6328 17.9531L27.6328 3.63281C27.6328 1.21875 26.4141 0 23.9531 0L3.67969 0C1.23047 0 0 1.21875 0 3.63281L0 17.9531C0 20.3672 1.23047 21.5742 3.67969 21.5742ZM3.70312 19.6875C2.53125 19.6875 1.88672 19.0664 1.88672 17.8477L1.88672 3.73828C1.88672 2.51953 2.53125 1.88672 3.70312 1.88672L23.9297 1.88672C25.0898 1.88672 25.7461 2.51953 25.7461 3.73828L25.7461 17.8477C25.7461 19.0664 25.0898 19.6875 23.9297 19.6875Z" fill="black" fill-opacity="0.85"/>
  <path d="M5.19141 15.7148L11.6719 15.7148C12.8086 15.7148 13.3477 15.1641 13.3477 14.0742L13.3477 7.52344C13.3477 6.43359 12.8086 5.88281 11.6719 5.88281L5.19141 5.88281C4.07812 5.88281 3.51562 6.42188 3.51562 7.52344L3.51562 14.0742C3.51562 15.1641 4.07812 15.7148 5.19141 15.7148ZM4.875 14.6133C5.22656 13.5586 6.55078 12.5742 8.4375 12.5742C10.3242 12.5742 11.6484 13.5586 12 14.6133ZM8.4375 11.7422C7.40625 11.7422 6.59766 10.875 6.59766 9.73828C6.59766 8.64844 7.40625 7.78125 8.4375 7.78125C9.45703 7.78125 10.2656 8.64844 10.2656 9.73828C10.2656 10.875 9.45703 11.7422 8.4375 11.7422ZM19.5703 15.5859C20.332 15.5859 21.0469 15.5156 21.5039 15.3281C21.8203 15.1992 22.0078 15 22.0078 14.6953C22.0078 14.4023 21.7969 14.168 21.4922 14.168C21.375 14.168 21.2695 14.2031 21.1172 14.2266C20.7656 14.2734 20.4258 14.4141 19.6992 14.4141C17.4258 14.4141 16.0195 13.043 16.0195 10.8164C16.0195 8.625 17.4492 7.125 19.5352 7.125C21.6094 7.125 23.0039 8.4375 23.0039 10.3828C23.0039 11.543 22.6523 12.2695 22.0898 12.2695C21.7383 12.2695 21.5977 12.1172 21.5977 11.7773L21.5977 8.87109C21.5977 8.51953 21.3516 8.25 21.0117 8.25C20.7539 8.25 20.5195 8.4375 20.4492 8.67188L20.4492 8.76562C20.168 8.4375 19.7812 8.25 19.2188 8.25C17.9766 8.25 17.1094 9.32812 17.1094 10.8164C17.1094 12.3516 17.9766 13.3945 19.2539 13.3945C19.8164 13.3945 20.3086 13.1484 20.6484 12.7031C20.9062 13.1484 21.3984 13.3945 21.9844 13.3945C23.2969 13.3945 24.1641 12.1758 24.1641 10.3125C24.1641 7.75781 22.2656 5.98828 19.5352 5.98828C16.7109 5.98828 14.7773 7.94531 14.7773 10.8047C14.7773 13.6758 16.6992 15.5859 19.5703 15.5859ZM19.4297 12.2109C18.7969 12.2109 18.4102 11.6836 18.4102 10.793C18.4102 9.91406 18.8086 9.39844 19.4414 9.39844C20.0859 9.39844 20.4844 9.91406 20.4844 10.7578C20.4844 11.6602 20.0859 12.2109 19.4297 12.2109Z" fill="black" fill-opacity="0.85"/>
 </g>
</svg>
