<?xml version="1.0" encoding="UTF-8"?>
<!--Generator: Apple Native CoreSVG 360-->
<!DOCTYPE svg
PUBLIC "-//W3C//DTD SVG 1.1//EN"
       "http://www.w3.org/Graphics/SVG/1.1/DTD/svg11.dtd">
<svg version="1.1" xmlns="http://www.w3.org/2000/svg" xmlns:xlink="http://www.w3.org/1999/xlink" viewBox="0 0 27.9844 21.5742">
 <g>
  <rect height="21.5742" opacity="0" width="27.9844" x="0" y="0"/>
  <path d="M3.67969 21.5742L23.9531 21.5742C26.4141 21.5742 27.6328 20.3672 27.6328 17.9531L27.6328 3.63281C27.6328 1.21875 26.4141 0 23.9531 0L3.67969 0C1.23047 0 0 1.21875 0 3.63281L0 17.9531C0 20.3672 1.23047 21.5742 3.67969 21.5742ZM3.70312 19.6875C2.53125 19.6875 1.88672 19.0664 1.88672 17.8477L1.88672 3.73828C1.88672 2.51953 2.53125 1.88672 3.70312 1.88672L23.9297 1.88672C25.0898 1.88672 25.7461 2.51953 25.7461 3.73828L25.7461 17.8477C25.7461 19.0664 25.0898 19.6875 23.9297 19.6875Z" fill="black" fill-opacity="0.85"/>
  <path d="M4.37109 16.1016L13.5234 16.1016C13.9102 16.1016 14.0977 15.8438 14.0977 15.4922C14.0977 14.3906 12.4453 11.5547 8.94141 11.5547C5.4375 11.5547 3.79688 14.3906 3.79688 15.4922C3.79688 15.8438 3.98438 16.1016 4.37109 16.1016ZM8.94141 10.7344C10.3711 10.7461 11.5078 9.53906 11.5078 7.93359C11.5078 6.43359 10.3711 5.19141 8.94141 5.19141C7.52344 5.19141 6.375 6.43359 6.375 7.93359C6.375 9.53906 7.52344 10.7344 8.94141 10.7344ZM15.1406 12.9258L23.0742 12.9258C23.4141 12.9258 23.6836 12.6562 23.6836 12.3047C23.6836 11.9766 23.4141 11.7188 23.0742 11.7188L15.1406 11.7188C14.7891 11.7188 14.5195 11.9766 14.5195 12.3047C14.5195 12.6562 14.7891 12.9258 15.1406 12.9258ZM16.4297 16.1719C16.7812 16.2539 17.0977 16.0664 17.1914 15.7148L19.5 6.17578C19.582 5.82422 19.4062 5.51953 19.0781 5.4375C18.7266 5.35547 18.4219 5.53125 18.3398 5.88281L16.0195 15.4336C15.9375 15.7852 16.1133 16.0898 16.4297 16.1719ZM19.8633 16.1719C20.2148 16.2656 20.5195 16.0664 20.6016 15.7148L22.9102 6.17578C22.9922 5.82422 22.8164 5.51953 22.4883 5.4375C22.1367 5.35547 21.8438 5.53125 21.75 5.88281L19.4414 15.4336C19.3477 15.7852 19.5234 16.0898 19.8633 16.1719ZM15.9023 9.78516L23.8359 9.78516C24.1758 9.78516 24.4453 9.51562 24.4453 9.16406C24.4453 8.83594 24.1758 8.56641 23.8359 8.56641L15.9023 8.56641C15.5508 8.56641 15.2812 8.83594 15.2812 9.16406C15.2812 9.51562 15.5508 9.78516 15.9023 9.78516Z" fill="black" fill-opacity="0.85"/>
 </g>
</svg>
