<?xml version="1.0" encoding="UTF-8"?>
<!--Generator: Apple Native CoreSVG 360-->
<!DOCTYPE svg
PUBLIC "-//W3C//DTD SVG 1.1//EN"
       "http://www.w3.org/Graphics/SVG/1.1/DTD/svg11.dtd">
<svg version="1.1" xmlns="http://www.w3.org/2000/svg" xmlns:xlink="http://www.w3.org/1999/xlink" viewBox="0 0 35.4844 24.8789">
 <g>
  <rect height="24.8789" opacity="0" width="35.4844" x="0" y="0"/>
  <path d="M15.1661 15.2411C14.6818 15.6384 14.2505 16.0663 13.879 16.5154C12.7824 15.9465 11.4931 15.6094 10.1367 15.6094C6.30469 15.6094 2.98828 18.3164 2.98828 21.2227C2.98828 21.457 3.10547 21.5508 3.33984 21.5508L11.8186 21.5508C11.8362 22.2007 12.0051 22.7905 12.341 23.2852L3.63281 23.2852C2.03906 23.2852 1.24219 22.6406 1.24219 21.3281C1.24219 17.4375 5.22656 13.875 10.1367 13.875C12.0059 13.875 13.7381 14.3888 15.1661 15.2411ZM14.543 7.71094C14.543 10.3711 12.5625 12.5391 10.1484 12.5391C7.73438 12.5391 5.75391 10.3828 5.75391 7.73438C5.75391 5.14453 7.73438 3.01172 10.1484 3.01172C12.5859 3.01172 14.543 5.10938 14.543 7.71094ZM7.5 7.73438C7.5 9.42188 8.71875 10.793 10.1484 10.793C11.5898 10.793 12.8086 9.42188 12.8086 7.71094C12.8086 6.05859 11.625 4.75781 10.1484 4.75781C8.70703 4.75781 7.5 6.08203 7.5 7.73438Z" fill="black" fill-opacity="0.85"/>
  <path d="M23.6484 12.4336C26.4375 12.4336 28.7109 9.96094 28.7109 6.9375C28.7109 3.9375 26.4492 1.58203 23.6484 1.58203C20.8711 1.58203 18.5859 3.98438 18.5859 6.96094C18.5859 9.97266 20.8711 12.4336 23.6484 12.4336ZM23.6484 10.6641C21.9375 10.6641 20.4727 9.03516 20.4727 6.96094C20.4727 4.92188 21.9141 3.35156 23.6484 3.35156C25.3945 3.35156 26.8242 4.88672 26.8242 6.9375C26.8242 9.01172 25.3828 10.6641 23.6484 10.6641ZM16.2891 23.2852L31.0078 23.2852C32.9531 23.2852 33.8789 22.6992 33.8789 21.4102C33.8789 18.3398 30 13.8984 23.6484 13.8984C17.2852 13.8984 13.4062 18.3398 13.4062 21.4102C13.4062 22.6992 14.332 23.2852 16.2891 23.2852ZM15.7266 21.5156C15.4219 21.5156 15.293 21.4336 15.293 21.1875C15.293 19.2539 18.2695 15.668 23.6484 15.668C29.0156 15.668 31.9922 19.2539 31.9922 21.1875C31.9922 21.4336 31.875 21.5156 31.5703 21.5156Z" fill="black" fill-opacity="0.85"/>
 </g>
</svg>
