<?xml version="1.0" encoding="UTF-8"?>
<!--Generator: Apple Native CoreSVG 360-->
<!DOCTYPE svg
PUBLIC "-//W3C//DTD SVG 1.1//EN"
       "http://www.w3.org/Graphics/SVG/1.1/DTD/svg11.dtd">
<svg version="1.1" xmlns="http://www.w3.org/2000/svg" xmlns:xlink="http://www.w3.org/1999/xlink" viewBox="0 0 28.4531 25.0898">
 <g>
  <rect height="25.0898" opacity="0" width="28.4531" x="0" y="0"/>
  <path d="M4.19531 22.125C4.19531 22.4854 4.24605 22.8437 4.36619 23.1797L0.9375 23.1797C0.421875 23.1797 0 22.7578 0 22.2422C0 21.7266 0.421875 21.293 0.9375 21.293L4.27644 21.293C4.21979 21.5738 4.19531 21.8517 4.19531 22.125ZM28.1016 22.2422C28.1016 22.7578 27.6797 23.1797 27.1641 23.1797L23.7369 23.1797C23.8562 22.8437 23.9062 22.4854 23.9062 22.125C23.9062 21.8517 23.8818 21.5738 23.8251 21.293L27.1641 21.293C27.6797 21.293 28.1016 21.7266 28.1016 22.2422ZM5.65381 18.3164L0.9375 18.3164C0.421875 18.3164 0 17.8828 0 17.3672C0 16.8516 0.421875 16.4297 0.9375 16.4297L7.65212 16.4297C6.85457 16.9826 6.18232 17.6262 5.65381 18.3164ZM28.1016 17.3672C28.1016 17.8828 27.6797 18.3164 27.1641 18.3164L22.4478 18.3164C21.9192 17.6262 21.247 16.9826 20.4494 16.4297L27.1641 16.4297C27.6797 16.4297 28.1016 16.8516 28.1016 17.3672ZM9.33509 13.4531L0.9375 13.4531C0.421875 13.4531 0 13.0195 0 12.5039C0 11.9883 0.421875 11.5664 0.9375 11.5664L8.57225 11.5664C8.71963 12.2497 8.98205 12.8859 9.33509 13.4531ZM28.1016 12.5039C28.1016 13.0195 27.6797 13.4531 27.1641 13.4531L18.7629 13.4531C19.1151 12.8864 19.3776 12.2504 19.5257 11.5664L27.1641 11.5664C27.6797 11.5664 28.1016 11.9883 28.1016 12.5039ZM8.62766 8.57813L0.9375 8.57812C0.421875 8.57812 0 8.15625 0 7.64062C0 7.125 0.421875 6.69141 0.9375 6.69141L9.50014 6.69141C9.10598 7.24629 8.80585 7.88222 8.62766 8.57813ZM28.1016 7.64062C28.1016 8.15625 27.6797 8.57812 27.1641 8.57812L19.4807 8.57813C19.3058 7.87987 19.0082 7.24488 18.6173 6.69141L27.1641 6.69141C27.6797 6.69141 28.1016 7.125 28.1016 7.64062ZM28.1016 2.77734C28.1016 3.29297 27.6797 3.71484 27.1641 3.71484L0.9375 3.71484C0.421875 3.71484 0 3.29297 0 2.77734C0 2.26172 0.421875 1.82812 0.9375 1.82812L27.1641 1.82812C27.6797 1.82812 28.1016 2.26172 28.1016 2.77734Z" fill="black" fill-opacity="0.85"/>
  <path d="M14.0508 14.6133C16.1953 14.6133 18.0938 12.6562 18.0938 10.1602C18.0938 7.66406 16.1953 5.84766 14.0508 5.84766C11.918 5.84766 10.0078 7.71094 10.0078 10.1836C10.0078 12.6562 11.918 14.6133 14.0508 14.6133ZM8.05078 23.4844L20.0508 23.4844C21.7852 23.4844 22.3125 22.9922 22.3125 22.125C22.3125 19.5938 19.1484 16.1016 14.0508 16.1016C8.95312 16.1016 5.80078 19.5938 5.80078 22.125C5.80078 22.9922 6.31641 23.4844 8.05078 23.4844Z" fill="black" fill-opacity="0.85"/>
 </g>
</svg>
