<?xml version="1.0" encoding="UTF-8"?>
<!--Generator: Apple Native CoreSVG 360-->
<!DOCTYPE svg
PUBLIC "-//W3C//DTD SVG 1.1//EN"
       "http://www.w3.org/Graphics/SVG/1.1/DTD/svg11.dtd">
<svg version="1.1" xmlns="http://www.w3.org/2000/svg" xmlns:xlink="http://www.w3.org/1999/xlink" viewBox="0 0 28.2763 25.418">
 <g>
  <rect height="25.418" opacity="0" width="28.2763" x="0" y="0"/>
  <path d="M6.09321 25.418L21.8198 25.418C23.062 25.418 23.812 24.832 23.812 23.8711C23.812 20.8477 20.0268 16.6758 13.9565 16.6758C7.87446 16.6758 4.0893 20.8477 4.0893 23.8711C4.0893 24.832 4.8393 25.418 6.09321 25.418ZM13.9565 14.5781C16.476 14.5781 18.644 12.3164 18.644 9.38672C18.644 6.50391 16.4643 4.35938 13.9565 4.35938C11.4604 4.35938 9.26899 6.55078 9.28071 9.41016C9.28071 12.3164 11.4487 14.5781 13.9565 14.5781Z" fill="black" fill-opacity="0.85"/>
  <path d="M1.60493 14.918C1.82758 15.457 2.42524 15.8203 3.08149 15.8203C5.29633 15.8203 6.64399 13.1133 6.64399 9.41016C6.64399 5.70703 5.29633 3 3.08149 3C2.42524 3 1.82758 3.375 1.60493 3.90234C1.49946 4.18359 1.80415 4.48828 2.07368 4.38281C2.33149 4.28906 2.43696 4.24219 2.78852 4.24219C4.20649 4.24219 5.2143 6.63281 5.2143 9.41016C5.2143 12.1875 4.20649 14.5781 2.78852 14.5781C2.43696 14.5781 2.33149 14.5312 2.07368 14.4375C1.80415 14.3438 1.49946 14.6367 1.60493 14.918ZM26.3081 14.918C26.4252 14.6367 26.1088 14.3438 25.851 14.4375C25.5932 14.5312 25.4877 14.5781 25.1362 14.5781C23.7182 14.5781 22.7104 12.1875 22.7104 9.41016C22.7104 6.63281 23.7182 4.24219 25.1362 4.24219C25.4877 4.24219 25.5932 4.28906 25.851 4.38281C26.1088 4.48828 26.4252 4.18359 26.3081 3.90234C26.0971 3.375 25.4995 3 24.8432 3C22.6284 3 21.269 5.70703 21.269 9.41016C21.269 13.1133 22.6284 15.8203 24.8432 15.8203C25.4995 15.8203 26.0971 15.457 26.3081 14.918Z" fill="black" fill-opacity="0.85"/>
  <path d="M0.128364 13.0898C0.374458 13.3594 0.737739 13.5586 1.17133 13.5586C2.48383 13.5586 3.47993 11.8945 3.47993 9.41016C3.47993 6.92578 2.48383 5.26172 1.17133 5.26172C0.737739 5.26172 0.374458 5.46094 0.128364 5.73047C-0.176323 6.08203 0.116645 6.49219 0.433052 6.38672C0.585395 6.32812 0.690864 6.30469 0.81977 6.30469C1.6518 6.30469 2.29633 7.69922 2.29633 9.41016C2.29633 11.1328 1.6518 12.5273 0.81977 12.5273C0.690864 12.5273 0.585395 12.5039 0.433052 12.4336C0.116645 12.3281-0.176323 12.7383 0.128364 13.0898ZM27.7846 13.0898C28.101 12.7383 27.8081 12.3281 27.4916 12.4336C27.3276 12.5039 27.2338 12.5273 27.1049 12.5273C26.2729 12.5273 25.6284 11.1328 25.6284 9.41016C25.6284 7.69922 26.2729 6.30469 27.1049 6.30469C27.2338 6.30469 27.3276 6.32812 27.4916 6.38672C27.8081 6.49219 28.101 6.08203 27.7846 5.73047C27.5502 5.46094 27.187 5.26172 26.7534 5.26172C25.4409 5.26172 24.4448 6.92578 24.4448 9.41016C24.4448 11.8945 25.4409 13.5586 26.7534 13.5586C27.187 13.5586 27.5502 13.3594 27.7846 13.0898Z" fill="black" fill-opacity="0.85"/>
 </g>
</svg>
