<?xml version="1.0" encoding="UTF-8"?>
<!--Generator: Apple Native CoreSVG 360-->
<!DOCTYPE svg
PUBLIC "-//W3C//DTD SVG 1.1//EN"
       "http://www.w3.org/Graphics/SVG/1.1/DTD/svg11.dtd">
<svg version="1.1" xmlns="http://www.w3.org/2000/svg" xmlns:xlink="http://www.w3.org/1999/xlink" viewBox="0 0 25.6904 31.1422">
 <g>
  <rect height="31.1422" opacity="0" width="25.6904" x="0" y="0"/>
  <path d="M12.3296 19.4558C14.5093 19.9246 16.6187 18.3426 16.8413 15.7058C17.0874 13.0926 15.2827 10.8074 13.1148 10.3621C10.9585 9.89334 8.86085 11.4051 8.62647 13.9715C8.40381 16.5848 10.1733 18.9988 12.3296 19.4558ZM5.53272 28.1277L19.2905 31.0691C20.4155 31.3152 21.1304 30.9285 21.2007 30.073C21.4468 27.366 18.4351 22.9129 13.0796 21.7644C7.72413 20.6512 4.0796 23.6512 3.85694 26.3465C3.77491 27.2137 4.41944 27.8933 5.53272 28.1277Z" fill="black" fill-opacity="0.85"/>
  <path d="M1.46631 19.8543C1.67725 20.3348 2.2046 20.6746 2.80225 20.6746C4.80616 20.6746 6.03663 18.2254 6.03663 14.8621C6.03663 11.4988 4.80616 9.04959 2.80225 9.04959C2.2046 9.04959 1.67725 9.37772 1.46631 9.86991C1.36085 10.1277 1.65381 10.3973 1.88819 10.2918C2.11085 10.2098 2.2046 10.1746 2.53272 10.1746C3.82178 10.1746 4.73585 12.3426 4.73585 14.8621C4.73585 17.3816 3.82178 19.5496 2.53272 19.5496C2.2046 19.5496 2.11085 19.5027 1.88819 19.4207C1.65381 19.3269 1.36085 19.5965 1.46631 19.8543ZM23.8726 19.8543C23.978 19.5965 23.6851 19.3269 23.4507 19.4207C23.2163 19.5027 23.1343 19.5496 22.8062 19.5496C21.5171 19.5496 20.603 17.3816 20.603 14.8621C20.603 12.3426 21.5171 10.1746 22.8062 10.1746C23.1343 10.1746 23.2163 10.2098 23.4507 10.2918C23.6851 10.3973 23.978 10.1277 23.8726 9.86991C23.6616 9.37772 23.1343 9.04959 22.5366 9.04959C20.5327 9.04959 19.3023 11.4988 19.3023 14.8621C19.3023 18.2254 20.5327 20.6746 22.5366 20.6746C23.1343 20.6746 23.6616 20.3348 23.8726 19.8543ZM17.6616 3.31913C17.4038 3.21366 17.1343 3.49491 17.2398 3.741C17.3101 3.96366 17.3569 4.06913 17.3569 4.38553C17.3569 5.67459 15.189 6.57694 12.6694 6.57694C10.1499 6.57694 7.98194 5.67459 7.98194 4.38553C7.98194 4.06913 8.0171 3.96366 8.09913 3.741C8.2046 3.49491 7.93506 3.21366 7.67725 3.31913C7.19678 3.51834 6.85694 4.05741 6.85694 4.65506C6.85694 6.67069 9.30616 7.88944 12.6694 7.88944C16.0327 7.88944 18.4819 6.67069 18.4819 4.65506C18.4819 4.05741 18.1421 3.51834 17.6616 3.31913Z" fill="black" fill-opacity="0.85"/>
  <path d="M0.118658 18.2019C0.341314 18.448 0.681158 18.6238 1.06788 18.6238C2.25147 18.6238 3.16553 17.1121 3.16553 14.8621C3.16553 12.6004 2.25147 11.1004 1.06788 11.1004C0.681158 11.1004 0.341314 11.2762 0.118658 11.5223C-0.162592 11.8387 0.106939 12.2137 0.399908 12.1199C0.540533 12.0613 0.634283 12.0379 0.751471 12.0379C1.50147 12.0379 2.07569 13.3152 2.07569 14.8621C2.07569 16.409 1.50147 17.6863 0.751471 17.6863C0.634283 17.6863 0.540533 17.6629 0.399908 17.6043C0.106939 17.5105-0.162592 17.8738 0.118658 18.2019ZM25.2202 18.2019C25.5015 17.8738 25.2319 17.5105 24.939 17.6043C24.7983 17.6629 24.7046 17.6863 24.5874 17.6863C23.8374 17.6863 23.2515 16.409 23.2515 14.8621C23.2515 13.3152 23.8374 12.0379 24.5874 12.0379C24.7046 12.0379 24.7983 12.0613 24.939 12.1199C25.2319 12.2137 25.5015 11.8387 25.2202 11.5223C24.9976 11.2762 24.6577 11.1004 24.271 11.1004C23.0874 11.1004 22.1733 12.6004 22.1733 14.8621C22.1733 17.1121 23.0874 18.6238 24.271 18.6238C24.6577 18.6238 24.9976 18.448 25.2202 18.2019ZM16.0093 1.97147C15.6929 1.70194 15.3179 1.95975 15.4116 2.241C15.4702 2.39334 15.4937 2.48709 15.4937 2.59256C15.4937 3.35428 14.2163 3.94022 12.6694 3.94022C11.1226 3.94022 9.84522 3.35428 9.84522 2.59256C9.84522 2.48709 9.86866 2.39334 9.92725 2.241C10.021 1.95975 9.646 1.70194 9.3296 1.97147C9.0835 2.20584 8.90772 2.53397 8.90772 2.92069C8.90772 4.10428 10.4077 5.00663 12.6694 5.00663C14.9312 5.00663 16.4312 4.10428 16.4312 2.92069C16.4312 2.53397 16.2554 2.20584 16.0093 1.97147Z" fill="black" fill-opacity="0.85"/>
 </g>
</svg>
