<?xml version="1.0" encoding="UTF-8"?>
<!--Generator: Apple Native CoreSVG 360-->
<!DOCTYPE svg
PUBLIC "-//W3C//DTD SVG 1.1//EN"
       "http://www.w3.org/Graphics/SVG/1.1/DTD/svg11.dtd">
<svg version="1.1" xmlns="http://www.w3.org/2000/svg" xmlns:xlink="http://www.w3.org/1999/xlink" viewBox="0 0 26.3683 26.0273">
 <g>
  <rect height="26.0273" opacity="0" width="26.3683" x="0" y="0"/>
  <path d="M19.2545 3.03516L19.8772 6.55078L18.0845 6.55078L17.5318 3.42188C17.3795 2.49609 16.606 1.96875 15.692 2.12109L3.11776 4.34766C2.2037 4.51172 1.67636 5.26172 1.84042 6.19922L4.06698 18.7266C4.21932 19.6641 4.98104 20.1914 5.89511 20.0273L6.55136 19.9116L6.55136 21.7053L6.16464 21.7734C3.98495 22.1602 2.71932 21.2695 2.33261 19.125L0.0826059 6.41016C-0.292394 4.24219 0.60995 2.97656 2.77792 2.58984L15.4107 0.363281C17.6021-0.0117188 18.8795 0.867188 19.2545 3.03516Z" fill="black" fill-opacity="0.85"/>
  <path d="M9.86776 26.0273L22.6881 26.0273C24.9146 26.0273 26.0162 24.9258 26.0162 22.7461L26.0162 9.84375C26.0162 7.65234 24.9146 6.55078 22.6881 6.55078L9.86776 6.55078C7.66464 6.55078 6.55136 7.65234 6.55136 9.84375L6.55136 22.7461C6.55136 24.9375 7.66464 26.0273 9.86776 26.0273ZM9.8912 24.2578C8.96542 24.2578 8.32089 23.6016 8.32089 22.6641L8.32089 9.92578C8.32089 8.98828 8.96542 8.33203 9.8912 8.33203L22.6646 8.33203C23.5904 8.33203 24.2467 8.98828 24.2467 9.92578L24.2467 22.6641C24.2467 23.6016 23.5904 24.2578 22.6646 24.2578ZM16.2779 18.0586C18.3053 18.0586 19.9107 16.3594 19.9107 14.0977C19.9107 11.9531 18.3053 10.207 16.2779 10.207C14.2623 10.207 12.6568 11.9531 12.6568 14.0977C12.6568 16.3594 14.2623 18.0586 16.2779 18.0586ZM8.98886 24.9609L23.5787 24.9609C22.9576 21.9844 19.9693 19.8164 16.2779 19.8164C12.5982 19.8164 9.60995 21.9844 8.98886 24.9609Z" fill="black" fill-opacity="0.85"/>
 </g>
</svg>
