<?xml version="1.0" encoding="UTF-8"?>
<!--Generator: Apple Native CoreSVG 360-->
<!DOCTYPE svg
PUBLIC "-//W3C//DTD SVG 1.1//EN"
       "http://www.w3.org/Graphics/SVG/1.1/DTD/svg11.dtd">
<svg version="1.1" xmlns="http://www.w3.org/2000/svg" xmlns:xlink="http://www.w3.org/1999/xlink" viewBox="0 0 28.6758 29.6836">
 <g>
  <rect height="29.6836" opacity="0" width="28.6758" x="0" y="0"/>
  <path d="M21.5576 3.35156L6.76658 3.35156C6.81468 2.39915 7.41573 1.85156 8.41406 1.85156L19.9102 1.85156C20.9085 1.85156 21.5095 2.39915 21.5576 3.35156Z" fill="black" fill-opacity="0.85"/>
  <path d="M23.9548 6.699C23.5779 6.63908 23.1781 6.60938 22.7578 6.60938L5.56641 6.60938C5.14621 6.60938 4.74653 6.63907 4.36974 6.69896C4.49733 5.57312 5.25916 4.94531 6.50391 4.94531L21.832 4.94531C23.0768 4.94531 23.829 5.57313 23.9548 6.699Z" fill="black" fill-opacity="0.85"/>
  <path d="M6.84375 26.8477L21.4805 26.8477C20.8594 23.8594 17.8594 21.6914 14.168 21.6914C10.4648 21.6914 7.46484 23.8594 6.84375 26.8477ZM14.168 19.9102C16.1953 19.9102 17.8008 18.2109 17.8008 15.9375C17.8008 13.793 16.1953 12.0352 14.168 12.0352C12.1289 12.0352 10.5352 13.793 10.5352 15.9375C10.5352 18.2109 12.1289 19.9102 14.168 19.9102ZM5.56641 27.7969L22.7578 27.7969C25.207 27.7969 26.4375 26.5781 26.4375 24.1641L26.4375 12.1289C26.4375 9.71484 25.207 8.49609 22.7578 8.49609L5.56641 8.49609C3.11719 8.49609 1.88672 9.71484 1.88672 12.1289L1.88672 24.1641C1.88672 26.5781 3.11719 27.7969 5.56641 27.7969ZM5.60156 25.9102C4.42969 25.9102 3.77344 25.2773 3.77344 24.0586L3.77344 12.2344C3.77344 11.0156 4.42969 10.3828 5.60156 10.3828L22.7344 10.3828C23.8828 10.3828 24.5508 11.0156 24.5508 12.2344L24.5508 24.0586C24.5508 25.2773 23.8828 25.9102 22.7344 25.9102Z" fill="black" fill-opacity="0.85"/>
 </g>
</svg>
