<?xml version="1.0" encoding="UTF-8"?>
<!--Generator: Apple Native CoreSVG 360-->
<!DOCTYPE svg
PUBLIC "-//W3C//DTD SVG 1.1//EN"
       "http://www.w3.org/Graphics/SVG/1.1/DTD/svg11.dtd">
<svg version="1.1" xmlns="http://www.w3.org/2000/svg" xmlns:xlink="http://www.w3.org/1999/xlink" viewBox="0 0 25.6904 27.6211">
 <g>
  <rect height="27.6211" opacity="0" width="25.6904" x="0" y="0"/>
  <path d="M5.53272 27.6211L19.7944 27.6211C20.9194 27.6211 21.5991 27.082 21.5991 26.2148C21.5991 23.4727 18.1773 19.6875 12.6577 19.6875C7.14991 19.6875 3.72803 23.4727 3.72803 26.2148C3.72803 27.082 4.40772 27.6211 5.53272 27.6211ZM12.6694 17.7773C14.9429 17.7773 16.9233 15.7383 16.9233 13.0781C16.9233 10.4531 14.9312 8.51953 12.6694 8.51953C10.4077 8.51953 8.40381 10.5 8.41553 13.1016C8.41553 15.7383 10.396 17.7773 12.6694 17.7773Z" fill="black" fill-opacity="0.85"/>
  <path d="M1.46631 18.0938C1.67725 18.5742 2.2046 18.9141 2.80225 18.9141C4.80616 18.9141 6.03663 16.4648 6.03663 13.1016C6.03663 9.73828 4.80616 7.28906 2.80225 7.28906C2.2046 7.28906 1.67725 7.61719 1.46631 8.10938C1.36085 8.36719 1.65381 8.63672 1.88819 8.53125C2.11085 8.44922 2.2046 8.41406 2.53272 8.41406C3.82178 8.41406 4.73585 10.582 4.73585 13.1016C4.73585 15.6211 3.82178 17.7891 2.53272 17.7891C2.2046 17.7891 2.11085 17.7422 1.88819 17.6602C1.65381 17.5664 1.36085 17.8359 1.46631 18.0938ZM23.8726 18.0938C23.978 17.8359 23.6851 17.5664 23.4507 17.6602C23.2163 17.7422 23.1343 17.7891 22.8062 17.7891C21.5171 17.7891 20.603 15.6211 20.603 13.1016C20.603 10.582 21.5171 8.41406 22.8062 8.41406C23.1343 8.41406 23.2163 8.44922 23.4507 8.53125C23.6851 8.63672 23.978 8.36719 23.8726 8.10938C23.6616 7.61719 23.1343 7.28906 22.5366 7.28906C20.5327 7.28906 19.3023 9.73828 19.3023 13.1016C19.3023 16.4648 20.5327 18.9141 22.5366 18.9141C23.1343 18.9141 23.6616 18.5742 23.8726 18.0938ZM17.6616 1.55859C17.4038 1.45312 17.1343 1.73438 17.2398 1.98047C17.3101 2.20312 17.3569 2.30859 17.3569 2.625C17.3569 3.91406 15.189 4.81641 12.6694 4.81641C10.1499 4.81641 7.98194 3.91406 7.98194 2.625C7.98194 2.30859 8.0171 2.20312 8.09913 1.98047C8.2046 1.73438 7.93506 1.45312 7.67725 1.55859C7.19678 1.75781 6.85694 2.29688 6.85694 2.89453C6.85694 4.91016 9.30616 6.12891 12.6694 6.12891C16.0327 6.12891 18.4819 4.91016 18.4819 2.89453C18.4819 2.29688 18.1421 1.75781 17.6616 1.55859Z" fill="black" fill-opacity="0.85"/>
  <path d="M0.118658 16.4414C0.341314 16.6875 0.681158 16.8633 1.06788 16.8633C2.25147 16.8633 3.16553 15.3516 3.16553 13.1016C3.16553 10.8398 2.25147 9.33984 1.06788 9.33984C0.681158 9.33984 0.341314 9.51562 0.118658 9.76172C-0.162592 10.0781 0.106939 10.4531 0.399908 10.3594C0.540533 10.3008 0.634283 10.2773 0.751471 10.2773C1.50147 10.2773 2.07569 11.5547 2.07569 13.1016C2.07569 14.6484 1.50147 15.9258 0.751471 15.9258C0.634283 15.9258 0.540533 15.9023 0.399908 15.8438C0.106939 15.75-0.162592 16.1133 0.118658 16.4414ZM25.2202 16.4414C25.5015 16.1133 25.2319 15.75 24.939 15.8438C24.7983 15.9023 24.7046 15.9258 24.5874 15.9258C23.8374 15.9258 23.2515 14.6484 23.2515 13.1016C23.2515 11.5547 23.8374 10.2773 24.5874 10.2773C24.7046 10.2773 24.7983 10.3008 24.939 10.3594C25.2319 10.4531 25.5015 10.0781 25.2202 9.76172C24.9976 9.51562 24.6577 9.33984 24.271 9.33984C23.0874 9.33984 22.1733 10.8398 22.1733 13.1016C22.1733 15.3516 23.0874 16.8633 24.271 16.8633C24.6577 16.8633 24.9976 16.6875 25.2202 16.4414ZM16.0093 0.210938C15.6929-0.0585938 15.3179 0.199219 15.4116 0.480469C15.4702 0.632812 15.4937 0.726562 15.4937 0.832031C15.4937 1.59375 14.2163 2.17969 12.6694 2.17969C11.1226 2.17969 9.84522 1.59375 9.84522 0.832031C9.84522 0.726562 9.86866 0.632812 9.92725 0.480469C10.021 0.199219 9.646-0.0585938 9.3296 0.210938C9.0835 0.445312 8.90772 0.773438 8.90772 1.16016C8.90772 2.34375 10.4077 3.24609 12.6694 3.24609C14.9312 3.24609 16.4312 2.34375 16.4312 1.16016C16.4312 0.773438 16.2554 0.445312 16.0093 0.210938Z" fill="black" fill-opacity="0.85"/>
 </g>
</svg>
