<?xml version="1.0" encoding="UTF-8"?>
<!--Generator: Apple Native CoreSVG 360-->
<!DOCTYPE svg
PUBLIC "-//W3C//DTD SVG 1.1//EN"
       "http://www.w3.org/Graphics/SVG/1.1/DTD/svg11.dtd">
<svg version="1.1" xmlns="http://www.w3.org/2000/svg" xmlns:xlink="http://www.w3.org/1999/xlink" viewBox="0 0 27.9844 21.5742">
 <g>
  <rect height="21.5742" opacity="0" width="27.9844" x="0" y="0"/>
  <path d="M27.6328 3.63281L27.6328 17.9531C27.6328 20.3672 26.4141 21.5742 23.9531 21.5742L3.67969 21.5742C1.23047 21.5742 0 20.3672 0 17.9531L0 3.63281C0 1.21875 1.23047 0 3.67969 0L23.9531 0C26.4141 0 27.6328 1.21875 27.6328 3.63281ZM21.9844 5.73047L21.3047 8.50781L19.0781 8.50781L19.6641 6.03516C19.7461 5.67188 19.5703 5.35547 19.2305 5.27344C18.8672 5.17969 18.5508 5.36719 18.4688 5.73047L17.7891 8.50781L15.9609 8.50781C15.5977 8.50781 15.3164 8.77734 15.3164 9.11719C15.3164 9.48047 15.5977 9.76172 15.9609 9.76172L17.4844 9.76172L17.0039 11.7422L15.1758 11.7422C14.8125 11.7422 14.5312 12.0117 14.5312 12.3516C14.5312 12.7148 14.8125 12.9961 15.1758 12.9961L16.7109 12.9961L16.0781 15.5742C15.9844 15.9375 16.1719 16.2539 16.5 16.3359C16.8633 16.4297 17.1914 16.2305 17.2852 15.8672L17.9883 12.9961L20.2266 12.9961L19.6055 15.5742C19.5 15.9375 19.6875 16.2539 20.0391 16.3359C20.4023 16.4414 20.7188 16.2305 20.8008 15.8672L21.5039 12.9961L23.3438 12.9961C23.6953 12.9961 23.9766 12.7148 23.9766 12.3516C23.9766 12.0117 23.6953 11.7422 23.3438 11.7422L21.8086 11.7422L22.2891 9.76172L24.1289 9.76172C24.4805 9.76172 24.7617 9.48047 24.7617 9.11719C24.7617 8.77734 24.4805 8.50781 24.1289 8.50781L22.5938 8.50781L23.1797 6.03516C23.2734 5.67188 23.0859 5.35547 22.7461 5.27344C22.3828 5.17969 22.0781 5.36719 21.9844 5.73047ZM3.48047 15.6328C3.48047 15.9961 3.66797 16.2656 4.07812 16.2656L13.5 16.2656C13.8984 16.2656 14.0977 15.9961 14.0977 15.6328C14.0977 14.4961 12.3984 11.5781 8.77734 11.5781C5.16797 11.5781 3.48047 14.4961 3.48047 15.6328ZM20.5195 11.7422L18.293 11.7422L18.7734 9.76172L21.0117 9.76172ZM6.14062 7.85156C6.14062 9.50391 7.32422 10.7344 8.77734 10.7344C10.2539 10.7461 11.4258 9.50391 11.4258 7.85156C11.4258 6.30469 10.2539 5.01562 8.77734 5.01562C7.32422 5.01562 6.14062 6.30469 6.14062 7.85156Z" fill="black" fill-opacity="0.85"/>
 </g>
</svg>
