<?xml version="1.0" encoding="UTF-8"?>
<!--Generator: Apple Native CoreSVG 360-->
<!DOCTYPE svg
PUBLIC "-//W3C//DTD SVG 1.1//EN"
       "http://www.w3.org/Graphics/SVG/1.1/DTD/svg11.dtd">
<svg version="1.1" xmlns="http://www.w3.org/2000/svg" xmlns:xlink="http://www.w3.org/1999/xlink" viewBox="0 0 28.582 23.4085">
 <g>
  <rect height="23.4085" opacity="0" width="28.582" x="0" y="0"/>
  <path d="M28.2305 14.0539C28.2305 6.67105 22.5586 0.612457 15.3398 0.00308175C14.9648-0.0320745 14.6836 0.237457 14.6836 0.612457L14.6836 4.44449C14.6836 4.76089 14.9062 5.00699 15.2227 5.03043C19.7109 5.58121 23.2031 9.41324 23.2031 14.0539C23.2031 16.1632 22.4766 18.1086 21.1992 19.7375C21.0352 19.9367 21.0469 20.1945 21.2227 20.382L24.0234 23.1711C24.2812 23.4289 24.6797 23.4289 24.9141 23.1476C26.9883 20.6867 28.2305 17.5109 28.2305 14.0539Z" fill="black" fill-opacity="0.85"/>
  <path d="M0 14.0539C0 17.5226 1.24219 20.6984 3.31641 23.1593C3.55078 23.4406 3.9375 23.4289 4.20703 23.1711L7.00781 20.382C7.18359 20.1945 7.19531 19.9367 7.03125 19.7375C5.74219 18.1086 5.02734 16.1632 5.02734 14.0539C5.02734 9.41324 8.51953 5.58121 13.0078 5.03043C13.3242 5.00699 13.5469 4.76089 13.5469 4.44449L13.5469 0.612457C13.5469 0.237457 13.2656-0.0320745 12.8906 0.00308175C5.67188 0.612457 0 6.67105 0 14.0539Z" fill="black" fill-opacity="0.85"/>
  <path d="M11.3906 18.6125C13.3477 18.6125 14.2734 17.4054 14.2734 15.8703C14.2734 14.2765 13.3008 13.6671 12.0469 13.1984L11.3789 12.9406C10.5469 12.6242 9.97266 12.2375 9.97266 11.3351C9.97266 10.5382 10.4414 9.94058 11.3438 9.94058C12.1172 9.94058 12.6562 10.3859 12.8672 11.2414C12.9492 11.5695 13.1719 11.7101 13.4883 11.7101C13.8281 11.7101 14.0508 11.4757 14.0508 11.1242C14.0508 11.0304 14.0391 10.9132 14.0156 10.7961C13.7227 9.56558 12.6914 8.80386 11.3555 8.80386C9.60938 8.80386 8.64844 9.99918 8.64844 11.4289C8.64844 12.8351 9.49219 13.6203 10.8164 14.1007L11.4961 14.3351C12.3516 14.6398 12.9492 15.0968 12.9492 15.9992C12.9492 16.8195 12.4102 17.4757 11.4258 17.4757C10.5352 17.4757 9.97266 16.9953 9.76172 16.1164C9.67969 15.7882 9.46875 15.6359 9.15234 15.6359C8.80078 15.6359 8.56641 15.9054 8.56641 16.2687C8.56641 16.4093 8.58984 16.5851 8.625 16.714C9.01172 17.9328 10.0078 18.6125 11.3906 18.6125ZM15.1641 20.8156C15.5273 20.8156 15.7031 20.6164 15.7734 20.2296L17.5781 9.74136C17.5898 9.67105 17.6133 9.53043 17.6133 9.37808C17.6133 9.04996 17.3906 8.81558 17.0508 8.81558C16.6992 8.81558 16.5117 9.0148 16.4531 9.40152L14.6484 19.8898C14.6367 19.9601 14.6016 20.1007 14.6016 20.2531C14.6016 20.5812 14.8242 20.8156 15.1641 20.8156ZM19.1602 18.507C19.6406 18.507 20.0039 18.1554 20.0039 17.6867C20.0039 17.2296 19.6406 16.8664 19.1602 16.8664C18.7031 16.8664 18.3516 17.2296 18.3516 17.6867C18.3516 18.1554 18.7031 18.507 19.1602 18.507Z" fill="black" fill-opacity="0.85"/>
 </g>
</svg>
