<?xml version="1.0" encoding="UTF-8"?>
<!--Generator: Apple Native CoreSVG 360-->
<!DOCTYPE svg
PUBLIC "-//W3C//DTD SVG 1.1//EN"
       "http://www.w3.org/Graphics/SVG/1.1/DTD/svg11.dtd">
<svg version="1.1" xmlns="http://www.w3.org/2000/svg" xmlns:xlink="http://www.w3.org/1999/xlink" viewBox="0 0 26.5195 25.0195">
 <g>
  <rect height="25.0195" opacity="0" width="26.5195" x="0" y="0"/>
  <path d="M1.55859 22.2188L24.6094 22.2188L24.6094 21.4336C24.6094 20.9648 24.3398 20.6836 23.8594 20.6836L23.1094 20.6836L23.1094 8.03906L24.1406 8.03906C24.7852 8.03906 25.1602 7.57031 25.1602 7.08984C25.1602 6.73828 24.9609 6.43359 24.5273 6.1875L14.5195 0.410156C14.0508 0.140625 13.5586 0 13.0781 0C12.5977 0 12.0938 0.140625 11.6484 0.410156L1.64062 6.1875C1.19531 6.43359 1.00781 6.73828 1.00781 7.08984C1.00781 7.57031 1.38281 8.03906 2.02734 8.03906L3.05859 8.03906L3.05859 20.6836L2.32031 20.6836C1.83984 20.6836 1.55859 20.9648 1.55859 21.4336ZM4.82812 20.6836L4.82812 6.53906L12.6211 2.16797C12.7617 2.08594 12.9258 2.03906 13.0781 2.03906C13.2305 2.03906 13.3945 2.08594 13.5469 2.16797L21.3398 6.53906L21.3398 20.6836ZM0.9375 25.0078L25.2188 25.0078C25.7344 25.0078 26.168 24.5742 26.168 24.0586C26.168 23.543 25.7344 23.1211 25.2188 23.1211L0.9375 23.1211C0.421875 23.1211 0 23.543 0 24.0586C0 24.5742 0.421875 25.0078 0.9375 25.0078Z" fill="black" fill-opacity="0.85"/>
  <path d="M10.3828 16.7344C12.3398 16.7344 13.2539 15.5273 13.2539 13.9922C13.2539 12.3984 12.293 11.7891 11.0391 11.3086L10.3711 11.0625C9.52734 10.7461 8.95312 10.3594 8.95312 9.45703C8.95312 8.66016 9.43359 8.0625 10.3242 8.0625C11.1094 8.0625 11.6484 8.50781 11.8594 9.36328C11.9414 9.69141 12.1641 9.83203 12.4805 9.83203C12.8203 9.83203 13.043 9.59766 13.043 9.24609C13.043 9.15234 13.0312 9.03516 12.9961 8.91797C12.7031 7.6875 11.6836 6.92578 10.3359 6.92578C8.58984 6.92578 7.64062 8.12109 7.64062 9.55078C7.64062 10.957 8.47266 11.7422 9.80859 12.2227L10.4766 12.457C11.332 12.7617 11.9414 13.2188 11.9414 14.1211C11.9414 14.9414 11.4023 15.5977 10.4062 15.5977C9.52734 15.5977 8.95312 15.1172 8.75391 14.2383C8.66016 13.9102 8.46094 13.7578 8.13281 13.7578C7.79297 13.7578 7.54688 14.0273 7.54688 14.3906C7.54688 14.5312 7.57031 14.707 7.61719 14.8359C8.00391 16.0547 9 16.7344 10.3828 16.7344ZM14.1562 18.9375C14.5078 18.9375 14.6953 18.7383 14.7539 18.3516L16.5586 7.86328C16.582 7.79297 16.6055 7.65234 16.6055 7.5C16.6055 7.17188 16.3828 6.9375 16.043 6.9375C15.6797 6.9375 15.5039 7.13672 15.4336 7.52344L13.6289 18.0117C13.6172 18.082 13.5938 18.2227 13.5938 18.375C13.5938 18.7031 13.8164 18.9375 14.1562 18.9375ZM18.1523 16.6289C18.6328 16.6289 18.9961 16.2773 18.9961 15.8086C18.9961 15.3516 18.6328 14.9883 18.1523 14.9883C17.6953 14.9883 17.3438 15.3516 17.3438 15.8086C17.3438 16.2773 17.6953 16.6289 18.1523 16.6289Z" fill="black" fill-opacity="0.85"/>
 </g>
</svg>
