<?xml version="1.0" encoding="UTF-8"?>
<!--Generator: Apple Native CoreSVG 360-->
<!DOCTYPE svg
PUBLIC "-//W3C//DTD SVG 1.1//EN"
       "http://www.w3.org/Graphics/SVG/1.1/DTD/svg11.dtd">
<svg version="1.1" xmlns="http://www.w3.org/2000/svg" xmlns:xlink="http://www.w3.org/1999/xlink" viewBox="0 0 28.582 23.5195">
 <g>
  <rect height="23.5195" opacity="0" width="28.582" x="0" y="0"/>
  <path d="M28.2305 14.1094C28.2305 10.6641 26.9883 7.48828 24.9141 5.02734C24.6797 4.74609 24.2812 4.74609 24.0234 5.01562L21.3047 7.73438C21.082 7.95703 21.0703 8.27344 21.2695 8.51953C22.4766 10.0664 23.2031 12.0117 23.2031 14.1094C23.2031 16.2188 22.4766 18.1641 21.1992 19.793C21.0352 19.9922 21.0469 20.25 21.2227 20.4375L24.0117 23.2266C24.2812 23.4961 24.668 23.4961 24.9141 23.2031C26.9883 20.7422 28.2305 17.5664 28.2305 14.1094Z" fill="black" fill-opacity="0.85"/>
  <path d="M14.1094 5.02734C16.2305 5.02734 18.1758 5.76562 19.7344 6.97266C19.9688 7.16016 20.2734 7.13672 20.4961 6.91406L23.2148 4.19531C23.4844 3.92578 23.4727 3.53906 23.1914 3.30469C20.7422 1.24219 17.5664 0 14.1094 0C10.6641 0 7.48828 1.24219 5.03906 3.30469C4.75781 3.53906 4.74609 3.92578 5.01562 4.19531L7.73438 6.91406C7.95703 7.13672 8.27344 7.16016 8.53125 6.96094C10.0781 5.76562 12.0117 5.02734 14.1094 5.02734Z" fill="black" fill-opacity="0.85"/>
  <path d="M0 14.1094C0 17.5664 1.24219 20.7422 3.31641 23.2031C3.55078 23.4961 3.94922 23.4961 4.20703 23.2266L6.99609 20.4375C7.17188 20.25 7.19531 19.9922 7.03125 19.793C5.75391 18.1641 5.02734 16.2188 5.02734 14.1094C5.02734 12.0117 5.74219 10.0664 6.96094 8.51953C7.14844 8.27344 7.14844 7.95703 6.92578 7.73438L4.20703 5.01562C3.9375 4.74609 3.55078 4.74609 3.31641 5.02734C1.24219 7.48828 0 10.6641 0 14.1094Z" fill="black" fill-opacity="0.85"/>
  <path d="M11.3906 18.668C13.3477 18.668 14.2734 17.4609 14.2734 15.9258C14.2734 14.332 13.3008 13.7227 12.0469 13.2539L11.3789 12.9961C10.5469 12.6797 9.97266 12.293 9.97266 11.3906C9.97266 10.5938 10.4414 9.99609 11.3438 9.99609C12.1172 9.99609 12.6562 10.4414 12.8672 11.2969C12.9492 11.625 13.1719 11.7656 13.4883 11.7656C13.8281 11.7656 14.0508 11.5312 14.0508 11.1797C14.0508 11.0859 14.0391 10.9688 14.0156 10.8516C13.7227 9.62109 12.6914 8.85938 11.3555 8.85938C9.60938 8.85938 8.64844 10.0547 8.64844 11.4844C8.64844 12.8906 9.49219 13.6758 10.8164 14.1562L11.4961 14.3906C12.3516 14.6953 12.9492 15.1523 12.9492 16.0547C12.9492 16.875 12.4102 17.5312 11.4258 17.5312C10.5352 17.5312 9.97266 17.0508 9.76172 16.1719C9.67969 15.8438 9.46875 15.6914 9.15234 15.6914C8.80078 15.6914 8.56641 15.9609 8.56641 16.3242C8.56641 16.4648 8.58984 16.6406 8.625 16.7695C9.01172 17.9883 10.0078 18.668 11.3906 18.668ZM15.1641 20.8711C15.5273 20.8711 15.7031 20.6719 15.7734 20.2852L17.5781 9.79688C17.5898 9.72656 17.6133 9.58594 17.6133 9.43359C17.6133 9.10547 17.3906 8.87109 17.0508 8.87109C16.6992 8.87109 16.5117 9.07031 16.4531 9.45703L14.6484 19.9453C14.6367 20.0156 14.6016 20.1562 14.6016 20.3086C14.6016 20.6367 14.8242 20.8711 15.1641 20.8711ZM19.1602 18.5625C19.6406 18.5625 20.0039 18.2109 20.0039 17.7422C20.0039 17.2852 19.6406 16.9219 19.1602 16.9219C18.7031 16.9219 18.3516 17.2852 18.3516 17.7422C18.3516 18.2109 18.7031 18.5625 19.1602 18.5625Z" fill="black" fill-opacity="0.85"/>
 </g>
</svg>
