<?xml version="1.0" encoding="UTF-8"?>
<!--Generator: Apple Native CoreSVG 360-->
<!DOCTYPE svg
PUBLIC "-//W3C//DTD SVG 1.1//EN"
       "http://www.w3.org/Graphics/SVG/1.1/DTD/svg11.dtd">
<svg version="1.1" xmlns="http://www.w3.org/2000/svg" xmlns:xlink="http://www.w3.org/1999/xlink" viewBox="0 0 26.0273 32.3555">
 <g>
  <rect height="32.3555" opacity="0" width="26.0273" x="0" y="0"/>
  <path d="M6.79688 27.3516C10.7461 27.3516 13.582 25.1367 13.582 21.1641C13.582 17.625 11.2969 16.1367 8.10938 15.1523L6.32812 14.6016C4.26562 13.9688 2.61328 12.9023 2.61328 10.6875C2.61328 8.30859 4.48828 6.99609 6.62109 6.99609C8.64844 6.99609 10.4648 8.0625 10.9453 10.3711C11.0859 10.9688 11.4492 11.2734 12.0469 11.2734C12.6328 11.2734 13.1016 10.8984 13.1016 10.2188C13.1016 10.043 13.0547 9.79688 13.0078 9.5625C12.3164 6.57422 9.66797 4.92188 6.65625 4.92188C3.04688 4.92188 0.304688 7.26562 0.304688 10.8164C0.304688 14.1445 2.42578 15.8203 5.61328 16.8047L7.39453 17.3555C9.59766 18.0234 11.2617 19.0781 11.2617 21.3984C11.2617 23.8008 9.33984 25.2656 6.89062 25.2656C4.45312 25.2656 2.60156 24.0234 2.12109 21.668C1.95703 21.0117 1.59375 20.7539 1.04297 20.7539C0.421875 20.7539 0 21.1992 0 21.832C0 22.2422 0.0585938 22.5352 0.140625 22.8398C0.902344 25.6875 3.59766 27.3516 6.79688 27.3516ZM15.9141 32.3555C16.5352 32.3555 16.8516 32.0039 16.9805 31.3477L22.0664 6.21094C22.1133 6.02344 22.1367 5.87109 22.1367 5.60156C22.1367 5.14453 21.6797 4.73438 21.1289 4.73438C20.4844 4.73438 20.1797 5.03906 20.0625 5.625L15 30.5273C14.9414 30.8438 14.8828 31.125 14.8828 31.3828C14.8828 31.8164 15.2227 32.3555 15.9141 32.3555ZM24.0703 27.3516C24.9492 27.3516 25.6758 26.6367 25.6758 25.7344C25.6758 24.8438 24.9492 24.1289 24.0703 24.1289C23.168 24.1289 22.4531 24.8438 22.4531 25.7344C22.4531 26.6367 23.168 27.3516 24.0703 27.3516Z" fill="black" fill-opacity="0.85"/>
 </g>
</svg>
