<?xml version="1.0" encoding="UTF-8"?>
<!--Generator: Apple Native CoreSVG 360-->
<!DOCTYPE svg
PUBLIC "-//W3C//DTD SVG 1.1//EN"
       "http://www.w3.org/Graphics/SVG/1.1/DTD/svg11.dtd">
<svg version="1.1" xmlns="http://www.w3.org/2000/svg" xmlns:xlink="http://www.w3.org/1999/xlink" viewBox="0 0 26.5195 25.0195">
 <g>
  <rect height="25.0195" opacity="0" width="26.5195" x="0" y="0"/>
  <path d="M1.55859 22.2188L24.6094 22.2188L24.6094 21.4336C24.6094 20.9648 24.3398 20.6836 23.8594 20.6836L23.1094 20.6836L23.1094 8.03906L24.1406 8.03906C24.7852 8.03906 25.1602 7.57031 25.1602 7.08984C25.1602 6.73828 24.9609 6.43359 24.5273 6.1875L14.5195 0.410156C14.0508 0.140625 13.5586 0 13.0781 0C12.5977 0 12.0938 0.140625 11.6484 0.410156L1.64062 6.1875C1.19531 6.43359 1.00781 6.73828 1.00781 7.08984C1.00781 7.57031 1.38281 8.03906 2.02734 8.03906L3.05859 8.03906L3.05859 20.6836L2.32031 20.6836C1.83984 20.6836 1.55859 20.9648 1.55859 21.4336ZM4.82812 20.6836L4.82812 6.53906L12.6211 2.16797C12.7617 2.08594 12.9258 2.03906 13.0781 2.03906C13.2305 2.03906 13.3945 2.08594 13.5469 2.16797L21.3398 6.53906L21.3398 20.6836ZM0.9375 25.0078L25.2188 25.0078C25.7344 25.0078 26.168 24.5742 26.168 24.0586C26.168 23.543 25.7344 23.1211 25.2188 23.1211L0.9375 23.1211C0.421875 23.1211 0 23.543 0 24.0586C0 24.5742 0.421875 25.0078 0.9375 25.0078Z" fill="black" fill-opacity="0.85"/>
  <path d="M10.7461 17.707C11.168 17.707 11.4375 17.4492 11.4375 17.0273L11.4375 13.875L13.582 13.875C15.6211 13.875 17.0391 12.4922 17.0391 10.4414C17.0391 8.36719 15.5977 7.04297 13.6055 7.04297L10.7578 7.04297C10.3242 7.04297 10.0547 7.32422 10.0547 7.74609L10.0547 17.0273C10.0547 17.4492 10.3242 17.707 10.7461 17.707ZM11.4375 12.7266L11.4375 8.19141L13.2539 8.19141C14.6719 8.19141 15.6328 8.91797 15.6328 10.4414C15.6328 11.9414 14.7305 12.7266 13.2422 12.7266ZM8.90625 10.3828C8.90625 10.6055 9.08203 10.7695 9.30469 10.7695L17.5898 10.7695C17.8242 10.7695 18 10.5938 18 10.3828C18 10.1602 17.8242 9.98438 17.5898 9.98438L9.30469 9.98438C9.08203 9.98438 8.90625 10.1602 8.90625 10.3828Z" fill="black" fill-opacity="0.85"/>
 </g>
</svg>
