<?xml version="1.0" encoding="UTF-8"?>
<!--Generator: Apple Native CoreSVG 360-->
<!DOCTYPE svg
PUBLIC "-//W3C//DTD SVG 1.1//EN"
       "http://www.w3.org/Graphics/SVG/1.1/DTD/svg11.dtd">
<svg version="1.1" xmlns="http://www.w3.org/2000/svg" xmlns:xlink="http://www.w3.org/1999/xlink" viewBox="0 0 28.582 23.4085">
 <g>
  <rect height="23.4085" opacity="0" width="28.582" x="0" y="0"/>
  <path d="M28.2305 14.0539C28.2305 6.67105 22.5586 0.612457 15.3398 0.00308175C14.9648-0.0320745 14.6836 0.237457 14.6836 0.612457L14.6836 4.44449C14.6836 4.76089 14.9062 5.00699 15.2227 5.03043C19.7109 5.58121 23.2031 9.41324 23.2031 14.0539C23.2031 16.1632 22.4766 18.1086 21.1992 19.7375C21.0352 19.9367 21.0469 20.1945 21.2227 20.382L24.0234 23.1711C24.2812 23.4289 24.6797 23.4289 24.9141 23.1476C26.9883 20.6867 28.2305 17.5109 28.2305 14.0539Z" fill="black" fill-opacity="0.85"/>
  <path d="M0 14.0539C0 17.5226 1.24219 20.6984 3.31641 23.1593C3.55078 23.4406 3.9375 23.4289 4.20703 23.1711L7.00781 20.382C7.18359 20.1945 7.19531 19.9367 7.03125 19.7375C5.74219 18.1086 5.02734 16.1632 5.02734 14.0539C5.02734 9.41324 8.51953 5.58121 13.0078 5.03043C13.3242 5.00699 13.5469 4.76089 13.5469 4.44449L13.5469 0.612457C13.5469 0.237457 13.2656-0.0320745 12.8906 0.00308175C5.67188 0.612457 0 6.67105 0 14.0539Z" fill="black" fill-opacity="0.85"/>
  <path d="M11.7539 19.5851C12.1758 19.5851 12.4453 19.3273 12.4453 18.9054L12.4453 15.7531L14.5898 15.7531C16.6406 15.7531 18.0586 14.3703 18.0586 12.3195C18.0586 10.2453 16.6172 8.92105 14.6133 8.92105L11.7656 8.92105C11.3438 8.92105 11.0625 9.2023 11.0625 9.63589L11.0625 18.9054C11.0625 19.3273 11.332 19.5851 11.7539 19.5851ZM12.4453 14.6046L12.4453 10.0695L14.2617 10.0695C15.6914 10.0695 16.6523 10.7961 16.6523 12.3195C16.6523 13.8195 15.7383 14.6046 14.25 14.6046ZM9.91406 12.2609C9.91406 12.4836 10.0898 12.6476 10.3125 12.6476L18.6094 12.6476C18.832 12.6476 19.0078 12.4718 19.0078 12.2609C19.0078 12.0382 18.832 11.8625 18.6094 11.8625L10.3125 11.8625C10.0898 11.8625 9.91406 12.0382 9.91406 12.2609Z" fill="black" fill-opacity="0.85"/>
 </g>
</svg>
