<?xml version="1.0" encoding="UTF-8"?>
<!--Generator: Apple Native CoreSVG 360-->
<!DOCTYPE svg
PUBLIC "-//W3C//DTD SVG 1.1//EN"
       "http://www.w3.org/Graphics/SVG/1.1/DTD/svg11.dtd">
<svg version="1.1" xmlns="http://www.w3.org/2000/svg" xmlns:xlink="http://www.w3.org/1999/xlink" viewBox="0 0 18.2461 21.4102">
 <g>
  <rect height="21.4102" opacity="0" width="18.2461" x="0" y="0"/>
  <path d="M3.51562 21.375C4.18359 21.375 4.67578 20.8711 4.67578 20.1914L4.67578 13.3711L9.11719 13.3711C13.2422 13.3711 15.9961 10.5703 15.9961 6.66797C15.9961 2.66016 13.1133 0 9.14062 0L3.51562 0C2.82422 0 2.34375 0.503906 2.34375 1.20703L2.34375 20.1914C2.34375 20.8711 2.83594 21.375 3.51562 21.375ZM4.67578 11.3555L4.67578 2.02734L8.57812 2.02734C11.6719 2.02734 13.5938 3.67969 13.5938 6.66797C13.5938 9.73828 11.6367 11.3555 8.57812 11.3555ZM0 6.53906C0 6.98438 0.328125 7.30078 0.785156 7.30078L17.1094 7.30078C17.5547 7.30078 17.8945 6.97266 17.8945 6.53906C17.8945 6.10547 17.5547 5.76562 17.1094 5.76562L0.785156 5.76562C0.328125 5.76562 0 6.10547 0 6.53906Z" fill="black" fill-opacity="0.85"/>
 </g>
</svg>
