<?xml version="1.0" encoding="UTF-8"?>
<!--Generator: Apple Native CoreSVG 360-->
<!DOCTYPE svg
PUBLIC "-//W3C//DTD SVG 1.1//EN"
       "http://www.w3.org/Graphics/SVG/1.1/DTD/svg11.dtd">
<svg version="1.1" xmlns="http://www.w3.org/2000/svg" xmlns:xlink="http://www.w3.org/1999/xlink" viewBox="0 0 28.582 23.5195">
 <g>
  <rect height="23.5195" opacity="0" width="28.582" x="0" y="0"/>
  <path d="M28.2305 14.1094C28.2305 10.6641 26.9883 7.48828 24.9141 5.02734C24.6797 4.74609 24.2812 4.74609 24.0234 5.01562L21.3047 7.73438C21.082 7.95703 21.0703 8.27344 21.2695 8.51953C22.4766 10.0664 23.2031 12.0117 23.2031 14.1094C23.2031 16.2188 22.4766 18.1641 21.1992 19.793C21.0352 19.9922 21.0469 20.25 21.2227 20.4375L24.0117 23.2266C24.2812 23.4961 24.668 23.4961 24.9141 23.2031C26.9883 20.7422 28.2305 17.5664 28.2305 14.1094Z" fill="black" fill-opacity="0.85"/>
  <path d="M14.1094 5.02734C16.2305 5.02734 18.1758 5.76562 19.7344 6.97266C19.9688 7.16016 20.2734 7.13672 20.4961 6.91406L23.2148 4.19531C23.4844 3.92578 23.4727 3.53906 23.1914 3.30469C20.7422 1.24219 17.5664 0 14.1094 0C10.6641 0 7.48828 1.24219 5.03906 3.30469C4.75781 3.53906 4.74609 3.92578 5.01562 4.19531L7.73438 6.91406C7.95703 7.13672 8.27344 7.16016 8.53125 6.96094C10.0781 5.76562 12.0117 5.02734 14.1094 5.02734Z" fill="black" fill-opacity="0.85"/>
  <path d="M0 14.1094C0 17.5664 1.24219 20.7422 3.31641 23.2031C3.55078 23.4961 3.94922 23.4961 4.20703 23.2266L6.99609 20.4375C7.17188 20.25 7.19531 19.9922 7.03125 19.793C5.75391 18.1641 5.02734 16.2188 5.02734 14.1094C5.02734 12.0117 5.74219 10.0664 6.96094 8.51953C7.14844 8.27344 7.14844 7.95703 6.92578 7.73438L4.20703 5.01562C3.9375 4.74609 3.55078 4.74609 3.31641 5.02734C1.24219 7.48828 0 10.6641 0 14.1094Z" fill="black" fill-opacity="0.85"/>
  <path d="M11.7773 19.6406C12.1992 19.6406 12.4805 19.3711 12.4805 18.9492L12.4805 16.0781L14.6016 16.0781C16.7344 16.0781 18.082 14.5312 18.082 12.5156C18.082 10.5703 16.8047 8.96484 14.6367 8.96484L11.7773 8.96484C11.3555 8.96484 11.0977 9.24609 11.0977 9.67969L11.0977 18.9492C11.0977 19.3711 11.3555 19.6406 11.7773 19.6406ZM12.4805 14.9414L12.4805 10.1133L14.2969 10.1133C15.7734 10.1133 16.6875 10.9688 16.6875 12.5156C16.6875 14.0156 15.7969 14.9414 14.2969 14.9414ZM9.91406 11.6016C9.91406 11.8242 10.0898 11.9883 10.3242 11.9883L18.6211 11.9883C18.8555 11.9883 19.0312 11.8125 19.0312 11.6016C19.0312 11.3906 18.8555 11.2148 18.6211 11.2148L10.3242 11.2148C10.0898 11.2148 9.91406 11.3906 9.91406 11.6016ZM9.91406 13.4531C9.91406 13.6875 10.0898 13.8516 10.3242 13.8516L18.6211 13.8516C18.8555 13.8516 19.0312 13.6758 19.0312 13.4531C19.0312 13.2422 18.8555 13.0664 18.6211 13.0664L10.3242 13.0664C10.0898 13.0664 9.91406 13.2422 9.91406 13.4531Z" fill="black" fill-opacity="0.85"/>
 </g>
</svg>
