<?xml version="1.0" encoding="UTF-8"?>
<!--Generator: Apple Native CoreSVG 360-->
<!DOCTYPE svg
PUBLIC "-//W3C//DTD SVG 1.1//EN"
       "http://www.w3.org/Graphics/SVG/1.1/DTD/svg11.dtd">
<svg version="1.1" xmlns="http://www.w3.org/2000/svg" xmlns:xlink="http://www.w3.org/1999/xlink" viewBox="0 0 18.1758 21.4102">
 <g>
  <rect height="21.4102" opacity="0" width="18.1758" x="0" y="0"/>
  <path d="M3.48047 21.375C4.14844 21.375 4.64062 20.8711 4.64062 20.1914L4.64062 13.957L9.08203 13.957C13.1719 13.957 15.9609 11.0156 15.9609 6.96094C15.9609 2.92969 13.207 0 9.10547 0L3.48047 0C2.78906 0 2.30859 0.503906 2.30859 1.20703L2.30859 20.1914C2.30859 20.8711 2.80078 21.375 3.48047 21.375ZM4.64062 11.9297L4.64062 2.02734L8.55469 2.02734C11.7422 2.02734 13.6055 3.90234 13.6055 6.96094C13.6055 10.0664 11.7188 11.9297 8.55469 11.9297ZM0 5.12109C0 5.56641 0.328125 5.88281 0.773438 5.88281L17.0508 5.88281C17.4961 5.88281 17.8242 5.55469 17.8242 5.12109C17.8242 4.6875 17.4961 4.35938 17.0508 4.35938L0.773438 4.35938C0.328125 4.35938 0 4.6875 0 5.12109ZM0 8.85938C0 9.30469 0.328125 9.62109 0.773438 9.62109L17.0508 9.62109C17.4961 9.62109 17.8242 9.29297 17.8242 8.85938C17.8242 8.42578 17.4961 8.09766 17.0508 8.09766L0.773438 8.09766C0.328125 8.09766 0 8.42578 0 8.85938Z" fill="black" fill-opacity="0.85"/>
 </g>
</svg>
