<?xml version="1.0" encoding="UTF-8"?>
<!--Generator: Apple Native CoreSVG 360-->
<!DOCTYPE svg
PUBLIC "-//W3C//DTD SVG 1.1//EN"
       "http://www.w3.org/Graphics/SVG/1.1/DTD/svg11.dtd">
<svg version="1.1" xmlns="http://www.w3.org/2000/svg" xmlns:xlink="http://www.w3.org/1999/xlink" viewBox="0 0 26.5195 25.0195">
 <g>
  <rect height="25.0195" opacity="0" width="26.5195" x="0" y="0"/>
  <path d="M1.55859 22.2188L24.6094 22.2188L24.6094 21.4336C24.6094 20.9648 24.3398 20.6836 23.8594 20.6836L23.1094 20.6836L23.1094 8.03906L24.1406 8.03906C24.7852 8.03906 25.1602 7.57031 25.1602 7.08984C25.1602 6.73828 24.9609 6.43359 24.5273 6.1875L14.5195 0.410156C14.0508 0.140625 13.5586 0 13.0781 0C12.5977 0 12.0938 0.140625 11.6484 0.410156L1.64062 6.1875C1.19531 6.43359 1.00781 6.73828 1.00781 7.08984C1.00781 7.57031 1.38281 8.03906 2.02734 8.03906L3.05859 8.03906L3.05859 20.6836L2.32031 20.6836C1.83984 20.6836 1.55859 20.9648 1.55859 21.4336ZM4.82812 20.6836L4.82812 6.53906L12.6211 2.16797C12.7617 2.08594 12.9258 2.03906 13.0781 2.03906C13.2305 2.03906 13.3945 2.08594 13.5469 2.16797L21.3398 6.53906L21.3398 20.6836ZM0.9375 25.0078L25.2188 25.0078C25.7344 25.0078 26.168 24.5742 26.168 24.0586C26.168 23.543 25.7344 23.1211 25.2188 23.1211L0.9375 23.1211C0.421875 23.1211 0 23.543 0 24.0586C0 24.5742 0.421875 25.0078 0.9375 25.0078Z" fill="black" fill-opacity="0.85"/>
  <path d="M10.7578 17.707C11.1914 17.707 11.4609 17.4375 11.4609 17.0156L11.4609 14.1445L13.5938 14.1445C15.7266 14.1445 17.0742 12.5977 17.0742 10.582C17.0742 8.63672 15.7969 7.03125 13.6172 7.03125L10.7695 7.03125C10.3477 7.03125 10.0781 7.3125 10.0781 7.73438L10.0781 17.0156C10.0781 17.4375 10.3477 17.707 10.7578 17.707ZM11.4609 13.0078L11.4609 8.17969L13.2891 8.17969C14.7656 8.17969 15.6797 9.03516 15.6797 10.582C15.6797 12.082 14.7891 13.0078 13.2891 13.0078ZM8.90625 9.66797C8.90625 9.89062 9.08203 10.0547 9.30469 10.0547L17.6133 10.0547C17.8359 10.0547 18.0117 9.87891 18.0117 9.66797C18.0117 9.45703 17.8359 9.28125 17.6133 9.28125L9.30469 9.28125C9.08203 9.28125 8.90625 9.45703 8.90625 9.66797ZM8.90625 11.5195C8.90625 11.7539 9.08203 11.918 9.30469 11.918L17.6133 11.918C17.8359 11.918 18.0117 11.7422 18.0117 11.5195C18.0117 11.3086 17.8359 11.1328 17.6133 11.1328L9.30469 11.1328C9.08203 11.1328 8.90625 11.3086 8.90625 11.5195Z" fill="black" fill-opacity="0.85"/>
 </g>
</svg>
