<?xml version="1.0" encoding="UTF-8"?>
<!--Generator: Apple Native CoreSVG 360-->
<!DOCTYPE svg
PUBLIC "-//W3C//DTD SVG 1.1//EN"
       "http://www.w3.org/Graphics/SVG/1.1/DTD/svg11.dtd">
<svg version="1.1" xmlns="http://www.w3.org/2000/svg" xmlns:xlink="http://www.w3.org/1999/xlink" viewBox="0 0 28.582 23.4085">
 <g>
  <rect height="23.4085" opacity="0" width="28.582" x="0" y="0"/>
  <path d="M28.2305 14.0539C28.2305 6.67105 22.5586 0.612457 15.3398 0.00308175C14.9648-0.0320745 14.6836 0.237457 14.6836 0.612457L14.6836 4.44449C14.6836 4.76089 14.9062 5.00699 15.2227 5.03043C19.7109 5.58121 23.2031 9.41324 23.2031 14.0539C23.2031 16.1632 22.4766 18.1086 21.1992 19.7375C21.0352 19.9367 21.0469 20.1945 21.2227 20.382L24.0234 23.1711C24.2812 23.4289 24.6797 23.4289 24.9141 23.1476C26.9883 20.6867 28.2305 17.5109 28.2305 14.0539Z" fill="black" fill-opacity="0.85"/>
  <path d="M0 14.0539C0 17.5226 1.24219 20.6984 3.31641 23.1593C3.55078 23.4406 3.9375 23.4289 4.20703 23.1711L7.00781 20.382C7.18359 20.1945 7.19531 19.9367 7.03125 19.7375C5.74219 18.1086 5.02734 16.1632 5.02734 14.0539C5.02734 9.41324 8.51953 5.58121 13.0078 5.03043C13.3242 5.00699 13.5469 4.76089 13.5469 4.44449L13.5469 0.612457C13.5469 0.237457 13.2656-0.0320745 12.8906 0.00308175C5.67188 0.612457 0 6.67105 0 14.0539Z" fill="black" fill-opacity="0.85"/>
  <path d="M11.7773 19.5851C12.1992 19.5851 12.4805 19.3156 12.4805 18.8937L12.4805 16.0226L14.6016 16.0226C16.7344 16.0226 18.082 14.4757 18.082 12.4601C18.082 10.5148 16.8047 8.90933 14.6367 8.90933L11.7773 8.90933C11.3555 8.90933 11.0977 9.19058 11.0977 9.62418L11.0977 18.8937C11.0977 19.3156 11.3555 19.5851 11.7773 19.5851ZM12.4805 14.8859L12.4805 10.0578L14.2969 10.0578C15.7734 10.0578 16.6875 10.9132 16.6875 12.4601C16.6875 13.9601 15.7969 14.8859 14.2969 14.8859ZM9.91406 11.5461C9.91406 11.7687 10.0898 11.9328 10.3242 11.9328L18.6211 11.9328C18.8555 11.9328 19.0312 11.757 19.0312 11.5461C19.0312 11.3351 18.8555 11.1593 18.6211 11.1593L10.3242 11.1593C10.0898 11.1593 9.91406 11.3351 9.91406 11.5461ZM9.91406 13.3976C9.91406 13.632 10.0898 13.7961 10.3242 13.7961L18.6211 13.7961C18.8555 13.7961 19.0312 13.6203 19.0312 13.3976C19.0312 13.1867 18.8555 13.0109 18.6211 13.0109L10.3242 13.0109C10.0898 13.0109 9.91406 13.1867 9.91406 13.3976Z" fill="black" fill-opacity="0.85"/>
 </g>
</svg>
