<?xml version="1.0" encoding="UTF-8"?>
<!--Generator: Apple Native CoreSVG 360-->
<!DOCTYPE svg
PUBLIC "-//W3C//DTD SVG 1.1//EN"
       "http://www.w3.org/Graphics/SVG/1.1/DTD/svg11.dtd">
<svg version="1.1" xmlns="http://www.w3.org/2000/svg" xmlns:xlink="http://www.w3.org/1999/xlink" viewBox="0 0 27.4805 22.5586">
 <g>
  <rect height="22.5586" opacity="0" width="27.4805" x="0" y="0"/>
  <path d="M3.62109 22.5469L23.5078 22.5469C25.9219 22.5469 27.1289 21.375 27.1289 18.9727L27.1289 11.0039C27.1289 6.46875 24.5039 3.99609 19.8164 3.99609L19.5 3.99609L19.5 3.29297C19.5 1.07812 18.293 0 16.1602 0L10.9688 0C8.94141 0 7.61719 1.07812 7.61719 3.29297L7.61719 3.99609L7.3125 3.99609C2.625 3.99609 0 6.46875 0 11.0039L0 18.9727C0 21.375 1.20703 22.5469 3.62109 22.5469ZM3.64453 20.6719C2.49609 20.6719 1.88672 20.0859 1.88672 18.8789L1.88672 11.0977C1.88672 7.6875 3.85547 5.87109 7.37109 5.87109L19.7578 5.87109C23.2734 5.87109 25.2422 7.6875 25.2422 11.0977L25.2422 18.8789C25.2422 20.0859 24.6328 20.6719 23.4844 20.6719ZM9.43359 3.99609L9.43359 3.16406C9.43359 2.25 10.0078 1.71094 10.9336 1.71094L16.1836 1.71094C17.1211 1.71094 17.6836 2.25 17.6836 3.16406L17.6836 3.99609Z" fill="black" fill-opacity="0.85"/>
  <path d="M7.94531 12.7617C7.94531 13.8164 8.49609 14.625 9.22266 14.625C9.9375 14.625 10.5 13.8164 10.5 12.7617C10.5 11.707 9.9375 10.8867 9.22266 10.8867C8.49609 10.8867 7.94531 11.707 7.94531 12.7617ZM10.5352 9.67969C10.5352 10.7227 11.0977 11.543 11.8242 11.543C12.5391 11.543 13.1016 10.7227 13.1016 9.67969C13.1016 8.625 12.5391 7.81641 11.8242 7.81641C11.0977 7.81641 10.5352 8.625 10.5352 9.67969ZM14.0273 9.67969C14.0273 10.7227 14.5781 11.543 15.3047 11.543C16.0195 11.543 16.5938 10.7227 16.5938 9.67969C16.5938 8.625 16.0195 7.81641 15.3047 7.81641C14.5781 7.81641 14.0273 8.625 14.0273 9.67969ZM16.6172 12.7617C16.6172 13.8164 17.1797 14.625 17.9062 14.625C18.6211 14.625 19.1836 13.8164 19.1836 12.7617C19.1836 11.707 18.6211 10.8867 17.9062 10.8867C17.1797 10.8867 16.6172 11.707 16.6172 12.7617ZM9.55078 16.8867C9.55078 17.9648 10.2656 18.7383 11.3438 18.7383C11.8711 18.7383 12.2461 18.5977 12.6211 18.457C12.9258 18.3516 13.207 18.2695 13.5586 18.2695C13.9102 18.2695 14.2031 18.3516 14.4961 18.457C14.8711 18.5977 15.2461 18.7383 15.7734 18.7383C16.8516 18.7383 17.5664 17.9648 17.5664 16.8867C17.5664 15.9844 17.0273 15.5039 16.5 15.0703C16.207 14.8359 15.9258 14.6133 15.7266 14.3086C15.5625 14.0859 15.4336 13.8164 15.3164 13.5703C14.9414 12.75 14.6367 11.9883 13.5586 11.9883C12.4805 11.9883 12.1758 12.75 11.8008 13.5703C11.6836 13.8047 11.5547 14.0742 11.4023 14.3086C11.1914 14.6133 10.9102 14.8359 10.6289 15.0703C10.1016 15.5039 9.55078 15.9844 9.55078 16.8867Z" fill="black" fill-opacity="0.85"/>
 </g>
</svg>
