<?xml version="1.0" encoding="UTF-8"?>
<!--Generator: Apple Native CoreSVG 360-->
<!DOCTYPE svg
PUBLIC "-//W3C//DTD SVG 1.1//EN"
       "http://www.w3.org/Graphics/SVG/1.1/DTD/svg11.dtd">
<svg version="1.1" xmlns="http://www.w3.org/2000/svg" xmlns:xlink="http://www.w3.org/1999/xlink" viewBox="0 0 26.4082 26.3613">
 <g>
  <rect height="26.3613" opacity="0" width="26.4082" x="0" y="0"/>
  <path d="M18.5889 24.624C20.6279 24.624 21.9756 24.0732 23.1592 22.749C23.2529 22.6436 23.335 22.5498 23.417 22.4443C24.1201 21.6709 24.46 20.9092 24.46 20.1826C24.46 19.3389 23.9795 18.5186 22.9365 17.8037L19.9951 15.7881C19.0928 15.1787 18.3311 15.1436 17.2061 15.6826L15.3779 16.5732C15.0381 16.7373 14.7334 16.7373 14.3936 16.5264C13.8779 16.1982 12.5771 15.1553 11.6865 14.2529C10.8076 13.3623 9.94043 12.2959 9.55371 11.6279C9.40137 11.3584 9.4248 11.1357 9.62402 10.8193L10.6787 9.16699C11.1357 8.44043 11.2764 7.44434 10.6787 6.60059L8.37012 3.27246C7.64355 2.22949 6.84668 1.74902 6.01465 1.7373C5.28809 1.72559 4.52637 2.06543 3.74121 2.76855C3.64746 2.85059 3.54199 2.94434 3.44824 3.03809C2.12402 4.20996 1.57324 5.55762 1.57324 7.58496C1.57324 10.9365 3.63574 15.0381 7.39746 18.7881C11.1475 22.5264 15.2373 24.624 18.5889 24.624ZM18.6006 22.8428C15.6123 22.9014 11.7803 20.6045 8.74512 17.5811C5.69824 14.5342 3.2959 10.5732 3.35449 7.57324C3.37793 6.28418 3.82324 5.18262 4.74902 4.37402C4.81934 4.31543 4.88965 4.25684 4.95996 4.19824C5.31152 3.89355 5.69824 3.72949 6.02637 3.72949C6.37793 3.72949 6.6709 3.8584 6.90527 4.20996L9.01465 7.37402C9.21387 7.66699 9.20215 7.9248 8.95605 8.33496L7.7959 10.21C7.28027 11.042 7.3623 11.6748 7.88965 12.3779C8.55762 13.2803 9.58887 14.5811 10.4912 15.4717C11.3818 16.3623 12.8701 17.6279 13.667 18.1904C14.3818 18.7061 15.0146 18.8232 16.0928 18.2959L18.0732 17.3584C18.5186 17.1592 18.8701 17.2178 19.2451 17.4521L21.9873 19.292C22.3271 19.5146 22.4678 19.8193 22.4678 20.1709C22.4678 20.499 22.3037 20.8857 21.999 21.2373C21.9287 21.3076 21.8818 21.3779 21.8115 21.4482C21.0146 22.374 19.9014 22.8193 18.6006 22.8428Z" fill="black" fill-opacity="0.85"/>
  <path d="M14.2646 12.1318C14.8857 12.7646 15.9053 12.7646 16.5264 12.1318C17.1592 11.5107 17.1592 10.4912 16.5264 9.88184C15.9053 9.2373 14.8857 9.2373 14.2646 9.87012C13.6318 10.4912 13.6318 11.5107 14.2646 12.1318ZM15.4131 5.65137C15.0498 6.01465 15.0498 6.6123 15.4131 6.97559L19.4092 10.9834C19.7842 11.3467 20.3818 11.3467 20.7451 10.9834C21.1084 10.6201 21.1084 10.0225 20.7451 9.64746L16.749 5.65137C16.374 5.27637 15.7764 5.27637 15.4131 5.65137ZM19.6318 6.77637C20.2764 7.37402 21.2725 7.38574 21.9053 6.76465C22.5146 6.13184 22.5146 5.12402 21.9053 4.51465C21.2725 3.88184 20.2646 3.88184 19.6318 4.49121C18.999 5.12402 18.999 6.12012 19.6318 6.77637ZM20.792 0.272461C20.4287 0.635742 20.4287 1.24512 20.792 1.6084L24.7881 5.61621C25.1514 5.97949 25.7725 5.97949 26.1357 5.61621C26.499 5.24121 26.499 4.64355 26.1357 4.28027L22.1279 0.272461C21.7646-0.0908203 21.1436-0.0908203 20.792 0.272461Z" fill="black" fill-opacity="0.85"/>
 </g>
</svg>
