<?xml version="1.0" encoding="UTF-8"?>
<!--Generator: Apple Native CoreSVG 360-->
<!DOCTYPE svg
PUBLIC "-//W3C//DTD SVG 1.1//EN"
       "http://www.w3.org/Graphics/SVG/1.1/DTD/svg11.dtd">
<svg version="1.1" xmlns="http://www.w3.org/2000/svg" xmlns:xlink="http://www.w3.org/1999/xlink" viewBox="0 0 23.2617 25.207">
 <g>
  <rect height="25.207" opacity="0" width="23.2617" x="0" y="0"/>
  <path d="M17.0156 24.0469C19.0547 24.0469 20.4023 23.4961 21.5859 22.1719C21.6797 22.0664 21.7617 21.9727 21.8438 21.8672C22.5469 21.0938 22.8867 20.332 22.8867 19.6055C22.8867 18.7617 22.4062 17.9414 21.3633 17.2266L18.4219 15.2109C17.5195 14.6016 16.7578 14.5664 15.6328 15.1055L13.8047 15.9961C13.4648 16.1602 13.1602 16.1602 12.8203 15.9492C12.3047 15.6211 11.0039 14.5781 10.1133 13.6758C9.23438 12.7852 8.36719 11.7188 7.98047 11.0508C7.82812 10.7812 7.85156 10.5586 8.05078 10.2422L9.10547 8.58984C9.5625 7.86328 9.70312 6.86719 9.10547 6.02344L6.79688 2.69531C6.07031 1.65234 5.27344 1.17188 4.44141 1.16016C3.71484 1.14844 2.95312 1.48828 2.16797 2.19141C2.07422 2.27344 1.96875 2.36719 1.875 2.46094C0.550781 3.63281 0 4.98047 0 7.00781C0 10.3594 2.0625 14.4609 5.82422 18.2109C9.57422 21.9492 13.6641 24.0469 17.0156 24.0469ZM17.0273 22.2656C14.0391 22.3242 10.207 20.0273 7.17188 17.0039C4.125 13.957 1.72266 9.99609 1.78125 6.99609C1.80469 5.70703 2.25 4.60547 3.17578 3.79688C3.24609 3.73828 3.31641 3.67969 3.38672 3.62109C3.73828 3.31641 4.125 3.15234 4.45312 3.15234C4.80469 3.15234 5.09766 3.28125 5.33203 3.63281L7.44141 6.79688C7.64062 7.08984 7.62891 7.34766 7.38281 7.75781L6.22266 9.63281C5.70703 10.4648 5.78906 11.0977 6.31641 11.8008C6.98438 12.7031 8.01562 14.0039 8.91797 14.8945C9.80859 15.7852 11.2969 17.0508 12.0938 17.6133C12.8086 18.1289 13.4414 18.2461 14.5195 17.7188L16.5 16.7812C16.9453 16.582 17.2969 16.6406 17.6719 16.875L20.4141 18.7148C20.7539 18.9375 20.8945 19.2422 20.8945 19.5938C20.8945 19.9219 20.7305 20.3086 20.4258 20.6602C20.3555 20.7305 20.3086 20.8008 20.2383 20.8711C19.4414 21.7969 18.3281 22.2422 17.0273 22.2656Z" fill="black" fill-opacity="0.85"/>
  <path d="M14.1094 9.51562L15.3047 9.51562C15.9141 9.51562 16.1953 9.1875 16.1953 8.71875L16.1953 0.796875C16.1953 0.328125 15.9141 0 15.3047 0L14.1094 0C13.5117 0 13.2305 0.328125 13.2305 0.796875L13.2305 8.71875C13.2305 9.1875 13.5117 9.51562 14.1094 9.51562ZM19.7812 9.51562L20.9766 9.51562C21.5625 9.51562 21.8438 9.1875 21.8438 8.71875L21.8438 0.796875C21.8438 0.328125 21.5625 0 20.9766 0L19.7812 0C19.1836 0 18.8906 0.328125 18.8906 0.796875L18.8906 8.71875C18.8906 9.1875 19.1836 9.51562 19.7812 9.51562Z" fill="black" fill-opacity="0.85"/>
 </g>
</svg>
