<?xml version="1.0" encoding="UTF-8"?>
<!--Generator: Apple Native CoreSVG 360-->
<!DOCTYPE svg
PUBLIC "-//W3C//DTD SVG 1.1//EN"
       "http://www.w3.org/Graphics/SVG/1.1/DTD/svg11.dtd">
<svg version="1.1" xmlns="http://www.w3.org/2000/svg" xmlns:xlink="http://www.w3.org/1999/xlink" viewBox="0 0 23.2617 22.8873">
 <g>
  <rect height="22.8873" opacity="0" width="23.2617" x="0" y="0"/>
  <path d="M17.0156 22.887C19.0547 22.887 20.4023 22.3362 21.5859 21.012C21.6797 20.9065 21.7617 20.8128 21.8438 20.7073C22.5469 19.9339 22.8867 19.1722 22.8867 18.4456C22.8867 17.6019 22.4062 16.7815 21.3633 16.0667L18.4219 14.0511C17.5195 13.4417 16.7578 13.4065 15.6328 13.9456L13.8047 14.8362C13.4648 15.0003 13.1602 15.0003 12.8203 14.7894C12.3047 14.4612 11.0039 13.4183 10.1133 12.5159C9.23438 11.6253 8.36719 10.5589 7.98047 9.89092C7.82812 9.62139 7.85156 9.39873 8.05078 9.08232L9.10547 7.42998C9.5625 6.70342 9.70312 5.70732 9.10547 4.86357L6.79688 1.53545C6.07031 0.49248 5.27344 0.0120117 4.44141 0.000292915C3.71484-0.0114258 2.95312 0.328418 2.16797 1.03154C2.07422 1.11357 1.96875 1.20732 1.875 1.30107C0.550781 2.47295 0 3.82061 0 5.84795C0 9.19951 2.0625 13.3011 5.82422 17.0511C9.57422 20.7894 13.6641 22.887 17.0156 22.887ZM17.0273 21.1058C14.0391 21.1644 10.207 18.8675 7.17188 15.844C4.125 12.7972 1.72266 8.83623 1.78125 5.83623C1.80469 4.54717 2.25 3.44561 3.17578 2.63701C3.24609 2.57842 3.31641 2.51982 3.38672 2.46123C3.73828 2.15654 4.125 1.99248 4.45312 1.99248C4.80469 1.99248 5.09766 2.12139 5.33203 2.47295L7.44141 5.63701C7.64062 5.92998 7.62891 6.18779 7.38281 6.59795L6.22266 8.47295C5.70703 9.30498 5.78906 9.93779 6.31641 10.6409C6.98438 11.5433 8.01562 12.844 8.91797 13.7347C9.80859 14.6253 11.2969 15.8909 12.0938 16.4534C12.8086 16.969 13.4414 17.0862 14.5195 16.5589L16.5 15.6214C16.9453 15.4222 17.2969 15.4808 17.6719 15.7151L20.4141 17.555C20.7539 17.7776 20.8945 18.0823 20.8945 18.4339C20.8945 18.762 20.7305 19.1487 20.4258 19.5003C20.3555 19.5706 20.3086 19.6409 20.2383 19.7112C19.4414 20.637 18.3281 21.0823 17.0273 21.1058Z" fill="black" fill-opacity="0.85"/>
  <path d="M21.5859 1.55889L21.293 6.11748L21.2812 7.86357C21.293 8.32061 21.6445 8.67217 22.1016 8.69561C22.5586 8.71904 22.9688 8.34404 22.9688 7.86357L22.9688 1.0667C22.957 0.457324 22.6523 0.140918 22.043 0.140918L15.2227 0.140918C14.7422 0.140918 14.3672 0.539355 14.4023 1.01982C14.4258 1.47686 14.7656 1.8167 15.2227 1.80498L17.0039 1.8167ZM21.9844 2.17998C22.2422 1.88701 22.2539 1.42998 21.9844 1.14873C21.7031 0.86748 21.2344 0.879199 20.9414 1.14873L18.4805 3.42217L13.4414 8.48467C13.2539 8.67217 13.1484 8.88311 13.1484 9.1292C13.1602 9.58623 13.5352 9.94951 14.0273 9.93779C14.2617 9.94951 14.4609 9.86748 14.6367 9.6917L19.6875 4.64092Z" fill="black" fill-opacity="0.85"/>
 </g>
</svg>
