<?xml version="1.0" encoding="UTF-8"?>
<!--Generator: Apple Native CoreSVG 360-->
<!DOCTYPE svg
PUBLIC "-//W3C//DTD SVG 1.1//EN"
       "http://www.w3.org/Graphics/SVG/1.1/DTD/svg11.dtd">
<svg version="1.1" xmlns="http://www.w3.org/2000/svg" xmlns:xlink="http://www.w3.org/1999/xlink" viewBox="0 0 28.043 11.332">
 <g>
  <rect height="11.332" opacity="0" width="28.043" x="0" y="0"/>
  <path d="M13.8398 0C8.32031 0 4.125 1.35938 1.83984 3.62109C0.714844 4.76953 0 6.24609 0 7.92188C0 9.45703 0.503906 11.0859 2.4375 11.2148C2.75391 11.2969 3.12891 11.3203 3.55078 11.2383L7.01953 10.5938C8.08594 10.3945 8.56641 9.89062 8.94141 8.80078L9.53906 6.9375C9.66797 6.53906 9.86719 6.35156 10.3242 6.24609C10.7812 6.12891 11.7891 6.02344 13.8398 6.02344C15.9023 6.02344 16.8984 6.12891 17.3672 6.24609C17.8242 6.35156 18.0234 6.53906 18.1406 6.9375L18.75 8.80078C19.1133 9.89062 19.6055 10.3945 20.6719 10.5938L24.1406 11.2383C24.5508 11.3203 24.9375 11.2969 25.2539 11.2148C27.1875 11.0859 27.6914 9.45703 27.6914 7.92188C27.6914 6.24609 26.9766 4.76953 25.8516 3.62109C23.5664 1.35938 19.3594 0 13.8398 0ZM13.8398 1.76953C18.457 1.76953 22.6289 2.78906 24.6328 4.86328C25.3945 5.66016 25.875 6.71484 25.875 7.72266C25.875 8.61328 25.5938 9.41016 24.9141 9.50391C24.8086 9.57422 24.6562 9.60938 24.4922 9.57422L21.2461 8.91797C20.8711 8.84766 20.6133 8.63672 20.4844 8.21484L19.8398 6.28125C19.4883 5.23828 19.043 4.81641 18.1172 4.65234C17.2383 4.48828 15.8906 4.34766 13.8398 4.34766C11.8008 4.34766 10.4531 4.48828 9.5625 4.65234C8.63672 4.81641 8.20312 5.23828 7.85156 6.28125L7.20703 8.21484C7.06641 8.63672 6.82031 8.84766 6.43359 8.91797L3.19922 9.57422C3.02344 9.60938 2.88281 9.57422 2.76562 9.50391C2.09766 9.41016 1.81641 8.61328 1.81641 7.72266C1.81641 6.71484 2.29688 5.66016 3.05859 4.86328C5.05078 2.78906 9.22266 1.76953 13.8398 1.76953Z" fill="black" fill-opacity="0.85"/>
 </g>
</svg>
