<?xml version="1.0" encoding="UTF-8"?>
<!--Generator: Apple Native CoreSVG 360-->
<!DOCTYPE svg
PUBLIC "-//W3C//DTD SVG 1.1//EN"
       "http://www.w3.org/Graphics/SVG/1.1/DTD/svg11.dtd">
<svg version="1.1" xmlns="http://www.w3.org/2000/svg" xmlns:xlink="http://www.w3.org/1999/xlink" viewBox="0 0 22.957 26.8008">
 <g>
  <rect height="26.8008" opacity="0" width="22.957" x="0" y="0"/>
  <path d="M0 13.3945C0 18.4688 1.35938 22.6641 3.62109 24.9492C4.76953 26.0742 6.24609 26.7891 7.92188 26.7891C9.45703 26.7891 11.0859 26.2852 11.2031 24.3516C11.2969 24.0352 11.3203 23.6602 11.2383 23.2383L10.582 19.7695C10.3828 18.7031 9.87891 18.2109 8.78906 17.8477L6.9375 17.25C6.53906 17.1211 6.35156 16.9219 6.23438 16.4648C6.12891 15.9961 6.02344 15 6.02344 13.3945C6.02344 11.7891 6.12891 10.7812 6.23438 10.3125C6.35156 9.86719 6.53906 9.66797 6.9375 9.53906L8.78906 8.94141C9.87891 8.56641 10.3828 8.07422 10.582 7.01953L11.2383 3.53906C11.3203 3.12891 11.2969 2.74219 11.2031 2.42578C11.0859 0.503906 9.45703 0 7.92188 0C6.24609 0 4.76953 0.703125 3.62109 1.83984C1.35938 4.11328 0 8.32031 0 13.3945ZM1.76953 13.3945C1.76953 9.22266 2.78906 5.05078 4.86328 3.05859C5.66016 2.29688 6.71484 1.81641 7.72266 1.81641C8.60156 1.81641 9.41016 2.09766 9.50391 2.76562C9.57422 2.88281 9.60938 3.02344 9.57422 3.19922L8.91797 6.43359C8.84766 6.82031 8.63672 7.06641 8.21484 7.20703L6.28125 7.83984C5.23828 8.19141 4.81641 8.63672 4.64062 9.5625C4.47656 10.4531 4.34766 11.8008 4.34766 13.3945C4.34766 14.9883 4.47656 16.3359 4.64062 17.2266C4.81641 18.1406 5.23828 18.5859 6.28125 18.9375L8.21484 19.582C8.63672 19.7227 8.84766 19.9688 8.91797 20.3438L9.57422 23.5898C9.60938 23.7656 9.57422 23.9062 9.50391 24.0234C9.41016 24.6914 8.60156 24.9727 7.72266 24.9727C6.71484 24.9727 5.66016 24.4922 4.86328 23.7305C2.78906 21.7266 1.76953 17.5547 1.76953 13.3945Z" fill="black" fill-opacity="0.85"/>
  <path d="M16.5586 19.0781C16.8047 19.0781 17.0156 18.9844 17.1797 18.8203L21.9961 14.0156C22.1953 13.8164 22.3008 13.5938 22.3008 13.3945C22.3008 13.1953 22.1953 12.9609 21.9961 12.7617L17.1797 7.96875C17.0156 7.80469 16.8047 7.71094 16.5586 7.71094C16.1016 7.71094 15.7617 8.03906 15.7617 8.50781C15.7617 8.76562 15.8438 8.97656 16.0078 9.14062L17.2383 10.3828L20.6133 13.3945L17.2383 16.4062L16.0078 17.6367C15.8438 17.8008 15.7617 18.0234 15.7617 18.2695C15.7617 18.75 16.1016 19.0781 16.5586 19.0781ZM10.1836 13.3945C10.1836 13.8281 10.5117 14.2266 11.0391 14.2266L17.4844 14.2266L20.0156 14.0977C20.4023 14.0742 20.7305 13.7812 20.7305 13.3945C20.7305 13.0078 20.4023 12.7031 20.0156 12.6797L17.4844 12.5508L11.0391 12.5508C10.5117 12.5508 10.1836 12.9609 10.1836 13.3945Z" fill="black" fill-opacity="0.85"/>
 </g>
</svg>
