<?xml version="1.0" encoding="UTF-8"?>
<!--Generator: Apple Native CoreSVG 360-->
<!DOCTYPE svg
PUBLIC "-//W3C//DTD SVG 1.1//EN"
       "http://www.w3.org/Graphics/SVG/1.1/DTD/svg11.dtd">
<svg version="1.1" xmlns="http://www.w3.org/2000/svg" xmlns:xlink="http://www.w3.org/1999/xlink" viewBox="0 0 29.6484 23.4492">
 <g>
  <rect height="23.4492" opacity="0" width="29.6484" x="0" y="0"/>
  <path d="M27.9492 15.5859L20.9766 9.04688C20.4609 8.56641 19.8516 8.33203 19.207 8.33203C18.5742 8.33203 17.9883 8.55469 17.4492 9.03516L11.4258 14.4141L11.9414 14.4141L9.04688 11.8008C8.56641 11.3555 8.02734 11.1328 7.47656 11.1328C6.9375 11.1328 6.43359 11.3555 5.96484 11.7891L1.48828 15.832C1.48828 17.3906 2.09766 18.1992 3.30469 18.1992L25.6172 18.1992C27.1055 18.1992 27.9492 17.25 27.9492 15.5859ZM3.01172 19.4648L26.2852 19.4648C28.1602 19.4648 29.2969 18.3164 29.2969 16.4531L29.2969 3.01172C29.2969 1.14844 28.1602 0 26.2852 0L3.01172 0C1.14844 0 0 1.14844 0 3.01172L0 16.4531C0 18.3164 1.14844 19.4648 3.01172 19.4648ZM3.04688 17.5781C2.32031 17.5781 1.88672 17.1445 1.88672 16.4297L1.88672 3.03516C1.88672 2.32031 2.32031 1.88672 3.04688 1.88672L26.25 1.88672C26.9766 1.88672 27.4102 2.32031 27.4102 3.03516L27.4102 16.4297C27.4102 17.1445 26.9766 17.5781 26.25 17.5781ZM8.75391 23.4375L20.543 23.4375C21.0586 23.4375 21.4922 23.0156 21.4922 22.4883C21.4922 21.9609 21.0586 21.5391 20.543 21.5391L8.75391 21.5391C8.23828 21.5391 7.80469 21.9609 7.80469 22.4883C7.80469 23.0156 8.23828 23.4375 8.75391 23.4375Z" fill="black" fill-opacity="0.85"/>
  <path d="M9.55078 9.1875C11.0508 9.1875 12.293 7.94531 12.293 6.39844C12.293 4.88672 11.0508 3.64453 9.55078 3.64453C8.02734 3.64453 6.77344 4.88672 6.77344 6.39844C6.77344 7.94531 8.02734 9.1875 9.55078 9.1875Z" fill="black" fill-opacity="0.85"/>
 </g>
</svg>
