<?xml version="1.0" encoding="UTF-8"?>
<!--Generator: Apple Native CoreSVG 360-->
<!DOCTYPE svg
PUBLIC "-//W3C//DTD SVG 1.1//EN"
       "http://www.w3.org/Graphics/SVG/1.1/DTD/svg11.dtd">
<svg version="1.1" xmlns="http://www.w3.org/2000/svg" xmlns:xlink="http://www.w3.org/1999/xlink" viewBox="0 0 29.5078 23.7539">
 <g>
  <rect height="23.7539" opacity="0" width="29.5078" x="0" y="0"/>
  <path d="M23.3672 3.63281L23.3672 5.42578L21.4805 5.42578L21.4805 3.73828C21.4805 2.51953 20.8125 1.88672 19.6523 1.88672L3.70312 1.88672C2.53125 1.88672 1.88672 2.51953 1.88672 3.73828L1.88672 14.5898C1.88672 15.8086 2.53125 16.4297 3.70312 16.4297L5.78906 16.4297L5.78906 18.3164L3.67969 18.3164C1.21875 18.3164 0 17.1094 0 14.6836L0 3.63281C0 1.21875 1.21875 0 3.67969 0L19.6875 0C22.125 0 23.3672 1.21875 23.3672 3.63281Z" fill="black" fill-opacity="0.85"/>
  <path d="M14.1445 14.4141C15.5039 14.4141 16.6172 13.2773 16.6172 11.9062C16.6172 10.5586 15.5039 9.42188 14.1445 9.42188C12.7734 9.42188 11.6602 10.5586 11.6602 11.9062C11.6602 13.2773 12.7734 14.4141 14.1445 14.4141ZM9.50391 23.1211L25.1953 23.1211C27.2344 23.1211 28.3242 22.0898 28.3242 20.0391L28.3242 19.2891L22.8867 14.1562C22.4297 13.7344 21.8672 13.5234 21.3047 13.5234C20.7188 13.5234 20.2031 13.7109 19.7227 14.1445L14.9883 18.3398L13.1016 16.6406C12.6562 16.2305 12.1758 16.043 11.6719 16.043C11.2148 16.043 10.7812 16.2305 10.3242 16.6172L6.375 20.0508C6.375 22.0898 7.46484 23.1211 9.50391 23.1211ZM9.46875 23.7422L25.4766 23.7422C27.9141 23.7422 29.1562 22.5234 29.1562 20.1094L29.1562 9.05859C29.1562 6.64453 27.9141 5.42578 25.4766 5.42578L9.46875 5.42578C7.00781 5.42578 5.78906 6.64453 5.78906 9.05859L5.78906 20.1094C5.78906 22.5352 7.00781 23.7422 9.46875 23.7422ZM9.49219 21.8555C8.32031 21.8555 7.67578 21.2344 7.67578 20.0156L7.67578 9.16406C7.67578 7.94531 8.32031 7.3125 9.49219 7.3125L25.4414 7.3125C26.6016 7.3125 27.2695 7.94531 27.2695 9.16406L27.2695 20.0156C27.2695 21.2344 26.6016 21.8555 25.4414 21.8555Z" fill="black" fill-opacity="0.85"/>
 </g>
</svg>
