<?xml version="1.0" encoding="UTF-8"?>
<!--Generator: Apple Native CoreSVG 360-->
<!DOCTYPE svg
PUBLIC "-//W3C//DTD SVG 1.1//EN"
       "http://www.w3.org/Graphics/SVG/1.1/DTD/svg11.dtd">
<svg version="1.1" xmlns="http://www.w3.org/2000/svg" xmlns:xlink="http://www.w3.org/1999/xlink" viewBox="0 0 28.9395 28.5997">
 <g>
  <rect height="28.5997" opacity="0" width="28.9395" x="0" y="0"/>
  <path d="M2.60523 6.17175C2.44234 6.45417 2.3584 6.81511 2.3584 7.251L2.3584 20.1998L5.8623 17.0362C6.34277 16.5908 6.84668 16.3799 7.3623 16.3799C7.9248 16.3799 8.46387 16.6026 8.95605 17.0479L11.124 19.0049L13.4054 16.9612L21.5392 25.0869L4.15137 25.0869C1.71387 25.0869 0.47168 23.8799 0.47168 21.4658L0.47168 7.14553C0.47168 6.11695 0.697193 5.30536 1.14673 4.7147ZM28.1162 7.14553L28.1162 21.4658C28.1162 22.501 27.89 23.3142 27.4367 23.9037L17.2636 13.7357C17.5522 13.6219 17.854 13.5674 18.1787 13.5674C18.8115 13.5674 19.4209 13.8135 19.9365 14.294L26.2295 20.1956L26.2295 7.251C26.2295 6.03225 25.5615 5.39944 24.4014 5.39944L8.92321 5.39944L7.03555 3.51272L24.4365 3.51272C26.8857 3.51272 28.1162 4.73147 28.1162 7.14553Z" fill="black" fill-opacity="0.85"/>
  <path d="M10.5166 14.0753C10.1278 14.2894 9.68348 14.4112 9.21387 14.4112C7.67871 14.4112 6.43652 13.169 6.43652 11.6455C6.43652 11.173 6.55788 10.7257 6.77162 10.334Z" fill="black" fill-opacity="0.85"/>
  <path d="M25.4443 26.7276C25.7959 27.0791 26.3818 27.0908 26.7217 26.7276C27.0732 26.376 27.0732 25.8018 26.7217 25.4502L3.15527 1.89553C2.80371 1.54397 2.21777 1.53225 1.86621 1.89553C1.51465 2.23538 1.51465 2.82131 1.86621 3.17288Z" fill="black" fill-opacity="0.85"/>
 </g>
</svg>
