<?xml version="1.0" encoding="UTF-8"?>
<!--Generator: Apple Native CoreSVG 360-->
<!DOCTYPE svg
PUBLIC "-//W3C//DTD SVG 1.1//EN"
       "http://www.w3.org/Graphics/SVG/1.1/DTD/svg11.dtd">
<svg version="1.1" xmlns="http://www.w3.org/2000/svg" xmlns:xlink="http://www.w3.org/1999/xlink" viewBox="0 0 30.2234 25.4907">
 <g>
  <rect height="25.4907" opacity="0" width="30.2234" x="0" y="0"/>
  <path d="M23.098 3.03637L23.6732 6.29418L21.7588 6.29418L21.2582 3.45824C21.0473 2.26293 20.2855 1.77074 19.1488 1.95824L3.4457 4.72387C2.28554 4.93481 1.7582 5.66137 1.96914 6.8684L3.85586 17.5559C4.06679 18.7512 4.81679 19.2551 5.96523 19.0559L6.51601 18.959L6.51601 20.8758L6.26992 20.9192C3.84414 21.3411 2.42617 20.3567 2.01601 17.9778L0.0941374 7.09106C-0.327738 4.71215 0.668356 3.3059 3.08242 2.87231L18.8559 0.0949615C21.2582-0.326914 22.6879 0.657461 23.098 3.03637Z" fill="black" fill-opacity="0.85"/>
  <path d="M14.8598 15.2825C16.2309 15.2825 17.3441 14.1457 17.3441 12.7746C17.3441 11.427 16.2309 10.2903 14.8598 10.2903C13.4887 10.2903 12.3871 11.427 12.3871 12.7746C12.3871 14.1457 13.4887 15.2825 14.8598 15.2825ZM10.2309 23.9895L25.9105 23.9895C27.9613 23.9895 29.0394 22.9582 29.0394 20.9075L29.0394 20.1575L23.6137 15.0246C23.1566 14.6028 22.5941 14.3918 22.0199 14.3918C21.4457 14.3918 20.9301 14.5793 20.4379 15.0129L15.7035 19.2082L13.8285 17.509C13.3715 17.0989 12.9027 16.9114 12.3988 16.9114C11.9418 16.9114 11.4965 17.0989 11.0512 17.4856L7.10195 20.9192C7.10195 22.9582 8.19179 23.9895 10.2309 23.9895ZM10.184 24.6106L26.2035 24.6106C28.641 24.6106 29.8715 23.3918 29.8715 20.9778L29.8715 9.92699C29.8715 7.51293 28.641 6.29418 26.2035 6.29418L10.184 6.29418C7.73476 6.29418 6.51601 7.51293 6.51601 9.92699L6.51601 20.9778C6.51601 23.4036 7.73476 24.6106 10.184 24.6106ZM10.2191 22.7239C9.04726 22.7239 8.40273 22.1028 8.40273 20.884L8.40273 10.0325C8.40273 8.81371 9.04726 8.1809 10.2191 8.1809L26.1684 8.1809C27.3285 8.1809 27.9848 8.81371 27.9848 10.0325L27.9848 20.884C27.9848 22.1028 27.3285 22.7239 26.1684 22.7239Z" fill="black" fill-opacity="0.85"/>
 </g>
</svg>
