<?xml version="1.0" encoding="UTF-8"?>
<!--Generator: Apple Native CoreSVG 360-->
<!DOCTYPE svg
PUBLIC "-//W3C//DTD SVG 1.1//EN"
       "http://www.w3.org/Graphics/SVG/1.1/DTD/svg11.dtd">
<svg version="1.1" xmlns="http://www.w3.org/2000/svg" xmlns:xlink="http://www.w3.org/1999/xlink" viewBox="0 0 28.9395 28.6231">
 <g>
  <rect height="28.6231" opacity="0" width="28.9395" x="0" y="0"/>
  <path d="M6.73209 10.3179C6.49873 10.7334 6.36621 11.2109 6.36621 11.7158C6.36621 13.3096 7.66699 14.6104 9.26074 14.6104C9.76744 14.6104 10.2453 14.4769 10.66 14.2419L13.8766 17.4553L11.4873 19.5791L9.24902 17.5635C8.72168 17.083 8.12402 16.8487 7.56152 16.8487C7.03418 16.8487 6.4834 17.083 5.95605 17.5401L2.3584 20.6807L2.3584 21.3955C2.3584 22.544 3.0498 23.2237 4.18652 23.2237L19.6506 23.2237L21.5275 25.0987L4.15137 25.0987C1.71387 25.0987 0.47168 23.8916 0.47168 21.4776L0.47168 7.15725C0.47168 6.13253 0.695501 5.32319 1.14192 4.73334ZM28.1162 7.15725L28.1162 21.4776C28.1162 22.5166 27.8883 23.332 27.4319 23.9224L25.9649 22.4561C26.1368 22.1772 26.2295 21.8274 26.2295 21.419L26.2295 19.6143L20.8389 14.6221C20.2881 14.1065 19.6084 13.8604 18.9639 13.8604C18.5293 13.8604 18.0999 13.9632 17.6896 14.1849L7.02382 3.52444L24.4365 3.52444C26.8857 3.52444 28.1162 4.74319 28.1162 7.15725Z" fill="black" fill-opacity="0.85"/>
  <path d="M25.4443 26.751C25.7959 27.1026 26.3818 27.1143 26.7217 26.751C27.0732 26.3994 27.0732 25.8252 26.7217 25.4737L3.15527 1.91897C2.80371 1.56741 2.21777 1.55569 1.86621 1.91897C1.51465 2.25881 1.51465 2.84475 1.86621 3.19631Z" fill="black" fill-opacity="0.85"/>
 </g>
</svg>
