<?xml version="1.0" encoding="UTF-8"?>
<!--Generator: Apple Native CoreSVG 360-->
<!DOCTYPE svg
PUBLIC "-//W3C//DTD SVG 1.1//EN"
       "http://www.w3.org/Graphics/SVG/1.1/DTD/svg11.dtd">
<svg version="1.1" xmlns="http://www.w3.org/2000/svg" xmlns:xlink="http://www.w3.org/1999/xlink" viewBox="0 0 19.1133 17.0508">
 <g>
  <rect height="17.0508" opacity="0" width="19.1133" x="0" y="0"/>
  <path d="M4.74609 17.0508C5.39062 17.0508 5.83594 16.6523 5.83594 16.043L5.83594 2.09766L12.9141 2.09766L12.9141 13.1602C12.9141 15.6445 13.9688 16.9102 16.2656 16.9102C17.6016 16.9102 18.2578 16.5 18.2578 15.7852C18.2578 15.2109 17.9648 14.9531 17.2852 14.9531C17.0977 14.9531 16.8516 14.9883 16.6641 14.9883C15.6211 14.9883 15.082 14.3672 15.082 13.1133L15.082 2.09766L17.8242 2.09766C18.375 2.09766 18.7617 1.71094 18.7617 1.125C18.7617 0.550781 18.375 0.175781 17.8242 0.175781L0.9375 0.175781C0.375 0.175781 0 0.550781 0 1.125C0 1.71094 0.375 2.09766 0.9375 2.09766L3.66797 2.09766L3.66797 16.043C3.66797 16.6523 4.10156 17.0508 4.74609 17.0508Z" fill="black" fill-opacity="0.85"/>
 </g>
</svg>
