<?xml version="1.0" encoding="UTF-8"?>
<!--Generator: Apple Native CoreSVG 360-->
<!DOCTYPE svg
PUBLIC "-//W3C//DTD SVG 1.1//EN"
       "http://www.w3.org/Graphics/SVG/1.1/DTD/svg11.dtd">
<svg version="1.1" xmlns="http://www.w3.org/2000/svg" xmlns:xlink="http://www.w3.org/1999/xlink" viewBox="0 0 27.9844 21.5742">
 <g>
  <rect height="21.5742" opacity="0" width="27.9844" x="0" y="0"/>
  <path d="M9.08203 1.41797L5.19141 1.41797L5.19141 11.4258C5.19141 12.2812 5.73047 12.6094 6.29297 12.6094L7.99219 12.6094C8.55469 12.6094 9.08203 12.2812 9.08203 11.4258ZM15.7617 1.41797L11.8711 1.41797L11.8711 11.4258C11.8711 12.2812 12.4102 12.6094 12.9609 12.6094L14.6719 12.6094C15.2344 12.6094 15.7617 12.2812 15.7617 11.4258ZM22.4414 1.41797L18.5508 1.41797L18.5508 11.4258C18.5508 12.2812 19.0781 12.6094 19.6406 12.6094L21.3516 12.6094C21.9141 12.6094 22.4414 12.2812 22.4414 11.4258ZM6.59766 10.5117L6.59766 20.25L7.6875 20.25L7.6875 10.5117ZM13.2773 10.5117L13.2773 20.25L14.3672 20.25L14.3672 10.5117ZM19.957 10.5117L19.957 20.25L21.0469 20.25L21.0469 10.5117ZM3.67969 21.5742L23.9531 21.5742C26.4141 21.5742 27.6328 20.3672 27.6328 17.9531L27.6328 3.63281C27.6328 1.21875 26.4141 0 23.9531 0L3.67969 0C1.23047 0 0 1.21875 0 3.63281L0 17.9531C0 20.3672 1.23047 21.5742 3.67969 21.5742ZM3.70312 19.6875C2.53125 19.6875 1.88672 19.0664 1.88672 17.8477L1.88672 3.73828C1.88672 2.51953 2.53125 1.88672 3.70312 1.88672L23.9297 1.88672C25.0898 1.88672 25.7461 2.51953 25.7461 3.73828L25.7461 17.8477C25.7461 19.0664 25.0898 19.6875 23.9297 19.6875Z" fill="black" fill-opacity="0.85"/>
 </g>
</svg>
