<?xml version="1.0" encoding="UTF-8"?>
<!--Generator: Apple Native CoreSVG 360-->
<!DOCTYPE svg
PUBLIC "-//W3C//DTD SVG 1.1//EN"
       "http://www.w3.org/Graphics/SVG/1.1/DTD/svg11.dtd">
<svg version="1.1" xmlns="http://www.w3.org/2000/svg" xmlns:xlink="http://www.w3.org/1999/xlink" viewBox="0 0 27.9435 28.9278">
 <g>
  <rect height="28.9278" opacity="0" width="27.9435" x="0" y="0"/>
  <path d="M3.89947 28.6729L24.7471 21.1143C25.5909 20.7979 26.1651 20.4581 26.6221 20.001C29.1065 17.5167 26.5753 11.9034 21.794 7.12213C17.0245 2.3526 11.4229-0.190372 8.9151 2.31744C8.45807 2.75103 8.12994 3.33697 7.82525 4.19244L0.25494 25.0167C-0.178653 26.212-0.0849034 27.3604 0.735409 28.1924C1.56744 29.0128 2.70416 29.1065 3.89947 28.6729ZM3.19635 26.9385C2.669 27.1143 2.31744 27.1026 2.08307 26.8565C1.82525 26.5987 1.81353 26.2588 2.00103 25.7432L9.65338 4.7315C9.82916 4.25103 9.99322 3.94635 10.251 3.68853C11.6807 2.23541 16.4034 4.40338 20.4581 8.45807C24.5245 12.5128 26.6807 17.2354 25.251 18.6651C24.9932 18.9346 24.6768 19.1104 24.1963 19.2745ZM7.49713 23.8565C8.76275 23.8565 9.78228 22.7901 9.794 21.5245C9.794 20.2471 8.76275 19.2159 7.50885 19.2393C6.20807 19.2159 5.1651 20.2471 5.17682 21.5245C5.1651 22.8135 6.20807 23.8565 7.49713 23.8565ZM10.1456 17.294C11.4112 17.294 12.4424 16.2745 12.4424 14.9854C12.4424 13.7315 11.4112 12.6885 10.1456 12.6885C8.84478 12.7003 7.82525 13.7198 7.82525 14.9854C7.82525 16.2745 8.8565 17.3174 10.1456 17.294ZM16.4151 19.9776C17.669 19.9659 18.7003 18.9346 18.712 17.6807C18.7003 16.3917 17.669 15.3487 16.4151 15.3721C15.126 15.3604 14.0948 16.3917 14.1065 17.6924C14.0948 18.9463 15.126 19.9659 16.4151 19.9776ZM22.3799 20.9268L24.2315 20.2354C23.9971 17.2588 21.8292 13.5323 18.6182 10.3096C15.4073 7.09869 11.6807 4.93072 8.70416 4.69635L8.01275 6.54791C10.2745 6.37213 14.1417 8.32916 17.3643 11.5635C20.6104 14.7979 22.544 18.6534 22.3799 20.9268Z" fill="black" fill-opacity="0.85"/>
 </g>
</svg>
