<?xml version="1.0" encoding="UTF-8"?>
<!--Generator: Apple Native CoreSVG 360-->
<!DOCTYPE svg
PUBLIC "-//W3C//DTD SVG 1.1//EN"
       "http://www.w3.org/Graphics/SVG/1.1/DTD/svg11.dtd">
<svg version="1.1" xmlns="http://www.w3.org/2000/svg" xmlns:xlink="http://www.w3.org/1999/xlink" viewBox="0 0 26.3631 26.757">
 <g>
  <rect height="26.757" opacity="0" width="26.3631" x="0" y="0"/>
  <path d="M1.9784 26.6031L21.6893 18.9859C21.9354 18.8922 22.0878 18.6812 22.0175 18.4234C21.5136 15.8453 19.2167 12.3883 16.7909 9.96248C14.3534 7.52498 10.8495 5.19295 8.25965 4.7242C8.037 4.68904 7.87293 4.82966 7.76747 5.07576L0.173716 24.775C-0.130972 25.5719-0.0137845 26.0406 0.361216 26.4156C0.724497 26.7554 1.20497 26.8844 1.9784 26.6031ZM5.9745 22.982C4.76747 22.982 3.78309 21.9976 3.78309 20.8258C3.78309 19.6187 4.76747 18.6461 5.9745 18.6461C7.16981 18.6461 8.11903 19.6187 8.11903 20.8258C8.11903 21.9976 7.16981 22.982 5.9745 22.982ZM9.12684 15.7281C7.94325 15.7281 6.97059 14.7672 6.95887 13.5719C6.97059 12.4117 7.94325 11.4273 9.13856 11.4273C10.3222 11.4156 11.2831 12.4117 11.2714 13.5719C11.2831 14.7672 10.3222 15.7281 9.12684 15.7281ZM15.4667 18.4469C14.2597 18.4469 13.3104 17.4859 13.3222 16.2906C13.3104 15.107 14.2714 14.1461 15.4667 14.1226C16.662 14.1226 17.6229 15.0953 17.6229 16.2906C17.6229 17.4859 16.662 18.4351 15.4667 18.4469ZM23.9745 18.3297C24.8417 18.0015 25.4159 17.7554 25.662 17.4859C26.8339 16.314 25.1112 11.4508 20.2128 6.56404C15.3026 1.65388 10.4393-0.0687729 9.27918 1.09138C9.00965 1.3492 8.75184 1.92341 8.43543 2.7906C8.31825 3.09529 8.40028 3.31795 8.71668 3.37654C11.869 4.05623 15.0331 6.11873 17.8339 8.91951C20.6464 11.7672 22.7323 14.9078 23.3886 18.0367C23.4589 18.3648 23.6581 18.4469 23.9745 18.3297Z" fill="black" fill-opacity="0.85"/>
 </g>
</svg>
