<?xml version="1.0" encoding="UTF-8"?>
<!--Generator: Apple Native CoreSVG 360-->
<!DOCTYPE svg
PUBLIC "-//W3C//DTD SVG 1.1//EN"
       "http://www.w3.org/Graphics/SVG/1.1/DTD/svg11.dtd">
<svg version="1.1" xmlns="http://www.w3.org/2000/svg" xmlns:xlink="http://www.w3.org/1999/xlink" viewBox="0 0 27.9844 21.0586">
 <g>
  <rect height="21.0586" opacity="0" width="27.9844" x="0" y="0"/>
  <path d="M27.6328 8.80078L27.6328 12.2461C27.6328 18.5156 25.1953 21.0352 18.3984 21.0352L9.23438 21.0352C2.4375 21.0352 0 18.5156 0 12.2461L0 8.80078C0 2.53125 2.4375 0 9.23438 0L18.3984 0C25.1953 0 27.6328 2.53125 27.6328 8.80078ZM8.64844 5.60156C8.13281 5.60156 7.76953 5.94141 7.76953 6.53906L7.76953 14.6016C7.76953 15.1758 8.08594 15.5156 8.66016 15.5156C9.23438 15.5156 9.53906 15.1641 9.53906 14.6016L9.53906 12.1641L10.8164 12.1641C12.6562 12.1641 13.7344 10.7578 13.7344 8.89453C13.7344 7.05469 12.6914 5.60156 10.9219 5.60156ZM15.4688 6.36328L15.4688 14.4961C15.4688 15.0703 15.7852 15.4102 16.3477 15.4102L19.8164 15.4102C20.2148 15.4102 20.5547 15.082 20.5547 14.6719C20.5547 14.2617 20.2148 13.9336 19.8164 13.9336L17.2383 13.9336L17.2383 6.36328C17.2383 5.88281 16.8281 5.48438 16.3594 5.48438C15.8789 5.48438 15.4688 5.88281 15.4688 6.36328ZM11.9766 8.89453C11.9766 9.97266 11.5312 10.7695 10.4531 10.7695L9.53906 10.7695L9.53906 7.04297L10.4648 7.04297C11.4844 7.04297 11.9766 7.75781 11.9766 8.89453Z" fill="black" fill-opacity="0.85"/>
 </g>
</svg>
