<?xml version="1.0" encoding="UTF-8"?>
<!--Generator: Apple Native CoreSVG 360-->
<!DOCTYPE svg
PUBLIC "-//W3C//DTD SVG 1.1//EN"
       "http://www.w3.org/Graphics/SVG/1.1/DTD/svg11.dtd">
<svg version="1.1" xmlns="http://www.w3.org/2000/svg" xmlns:xlink="http://www.w3.org/1999/xlink" viewBox="0 0 15.4102 24.832">
 <g>
  <rect height="24.832" opacity="0" width="15.4102" x="0" y="0"/>
  <path d="M0 21.7617C0 23.5898 1.27734 24.8086 3.1875 24.8086L11.8711 24.8086C13.7812 24.8086 15.0586 23.5898 15.0586 21.7617L15.0586 3.04688C15.0586 1.21875 13.7812 0 11.8711 0L3.1875 0C1.27734 0 0 1.21875 0 3.04688ZM1.88672 21.457L1.88672 3.35156C1.88672 2.41406 2.4375 1.88672 3.43359 1.88672L11.6367 1.88672C12.6211 1.88672 13.1719 2.41406 13.1719 3.35156L13.1719 21.457C13.1719 22.3945 12.6211 22.9219 11.6367 22.9219L3.43359 22.9219C2.4375 22.9219 1.88672 22.3945 1.88672 21.457Z" fill="black" fill-opacity="0.85"/>
  <path d="M4.42969 21.4336L10.6406 21.4336C11.2617 21.4336 11.6836 21.0117 11.6836 20.3672L11.6836 18.9727C11.6836 18.3164 11.2617 17.9062 10.6406 17.9062L4.42969 17.9062C3.79688 17.9062 3.38672 18.3164 3.38672 18.9727L3.38672 20.3672C3.38672 21.0117 3.79688 21.4336 4.42969 21.4336Z" fill="black" fill-opacity="0.85"/>
  <path d="M8.10938 15.457L8.16797 13.5117L8.16797 10.207C8.16797 9.84375 7.91016 9.57422 7.53516 9.57422C7.16016 9.57422 6.89062 9.84375 6.89062 10.207L6.89062 13.5117L6.96094 15.457C6.97266 15.7734 7.21875 16.0312 7.53516 16.0312C7.83984 16.0312 8.09766 15.7734 8.10938 15.457ZM4.89844 13.0781C4.54688 13.0781 4.28906 13.3242 4.28906 13.6992C4.28906 13.8633 4.32422 14.0273 4.44141 14.1445L7.04297 16.7227C7.18359 16.8633 7.35938 16.9453 7.53516 16.9453C7.69922 16.9453 7.875 16.8633 8.01562 16.7227L10.6172 14.1445C10.7344 14.0273 10.7812 13.8633 10.7812 13.6992C10.7812 13.3242 10.5234 13.0781 10.1602 13.0781C9.97266 13.0664 9.83203 13.1484 9.70312 13.2656L8.76562 14.2031L7.53516 15.7734L6.30469 14.2031L5.35547 13.2656C5.22656 13.1484 5.08594 13.0664 4.89844 13.0781Z" fill="black" fill-opacity="0.85"/>
 </g>
</svg>
