<?xml version="1.0" encoding="UTF-8"?>
<!--Generator: Apple Native CoreSVG 360-->
<!DOCTYPE svg
PUBLIC "-//W3C//DTD SVG 1.1//EN"
       "http://www.w3.org/Graphics/SVG/1.1/DTD/svg11.dtd">
<svg version="1.1" xmlns="http://www.w3.org/2000/svg" xmlns:xlink="http://www.w3.org/1999/xlink" viewBox="0 0 25.1719 15.1055">
 <g>
  <rect height="15.1055" opacity="0" width="25.1719" x="0" y="0"/>
  <path d="M3.04688 15.082L21.7617 15.082C23.5898 15.082 24.8203 13.793 24.8203 11.8828L24.8203 3.1875C24.8203 1.27734 23.6016 0 21.7734 0L3.05859 0C1.23047 0 0 1.27734 0 3.1875L0 11.8828C0 13.793 1.21875 15.082 3.04688 15.082ZM3.35156 13.1953C2.41406 13.1953 1.88672 12.6328 1.88672 11.6484L1.88672 3.43359C1.88672 2.44922 2.41406 1.88672 3.35156 1.88672L21.4688 1.88672C22.4062 1.88672 22.9336 2.44922 22.9336 3.43359L22.9336 11.6484C22.9336 12.6328 22.4062 13.1953 21.457 13.1953Z" fill="black" fill-opacity="0.85"/>
  <path d="M5.20312 9.76172L10.3828 9.76172C11.0156 9.76172 11.4258 9.35156 11.4258 8.69531L11.4258 6.36328C11.4258 5.71875 11.0156 5.29688 10.3828 5.29688L5.20312 5.29688C4.58203 5.29688 4.16016 5.71875 4.16016 6.36328L4.16016 8.69531C4.16016 9.35156 4.58203 9.76172 5.20312 9.76172ZM14.4375 9.76172L19.6172 9.76172C20.2383 9.76172 20.6602 9.35156 20.6602 8.69531L20.6602 6.36328C20.6602 5.71875 20.2383 5.29688 19.6172 5.29688L14.4375 5.29688C13.8164 5.29688 13.3945 5.71875 13.3945 6.36328L13.3945 8.69531C13.3945 9.35156 13.8164 9.76172 14.4375 9.76172Z" fill="black" fill-opacity="0.85"/>
 </g>
</svg>
