<?xml version="1.0" encoding="UTF-8"?>
<!--Generator: Apple Native CoreSVG 360-->
<!DOCTYPE svg
PUBLIC "-//W3C//DTD SVG 1.1//EN"
       "http://www.w3.org/Graphics/SVG/1.1/DTD/svg11.dtd">
<svg version="1.1" xmlns="http://www.w3.org/2000/svg" xmlns:xlink="http://www.w3.org/1999/xlink" viewBox="0 0 15.4102 24.832">
 <g>
  <rect height="24.832" opacity="0" width="15.4102" x="0" y="0"/>
  <path d="M0 21.7617C0 23.5898 1.27734 24.8086 3.1875 24.8086L11.8711 24.8086C13.7812 24.8086 15.0586 23.5898 15.0586 21.7617L15.0586 3.04688C15.0586 1.21875 13.7812 0 11.8711 0L3.1875 0C1.27734 0 0 1.21875 0 3.04688ZM1.88672 21.457L1.88672 3.35156C1.88672 2.41406 2.4375 1.88672 3.43359 1.88672L11.6367 1.88672C12.6211 1.88672 13.1719 2.41406 13.1719 3.35156L13.1719 21.457C13.1719 22.3945 12.6211 22.9219 11.6367 22.9219L3.43359 22.9219C2.4375 22.9219 1.88672 22.3945 1.88672 21.457Z" fill="black" fill-opacity="0.85"/>
  <path d="M4.42969 21.4336L10.6406 21.4336C11.2617 21.4336 11.6836 21.0117 11.6836 20.3672L11.6836 18.9727C11.6836 18.3164 11.2617 17.9062 10.6406 17.9062L4.42969 17.9062C3.79688 17.9062 3.38672 18.3164 3.38672 18.9727L3.38672 20.3672C3.38672 21.0117 3.79688 21.4336 4.42969 21.4336Z" fill="black" fill-opacity="0.85"/>
 </g>
</svg>
