<?xml version="1.0" encoding="UTF-8"?>
<!--Generator: Apple Native CoreSVG 360-->
<!DOCTYPE svg
PUBLIC "-//W3C//DTD SVG 1.1//EN"
       "http://www.w3.org/Graphics/SVG/1.1/DTD/svg11.dtd">
<svg version="1.1" xmlns="http://www.w3.org/2000/svg" xmlns:xlink="http://www.w3.org/1999/xlink" viewBox="0 0 15.4102 24.832">
 <g>
  <rect height="24.832" opacity="0" width="15.4102" x="0" y="0"/>
  <path d="M0 21.7617C0 23.5898 1.27734 24.8086 3.1875 24.8086L11.8711 24.8086C13.7812 24.8086 15.0586 23.5898 15.0586 21.7617L15.0586 3.04688C15.0586 1.21875 13.7812 0 11.8711 0L3.1875 0C1.27734 0 0 1.21875 0 3.04688ZM1.88672 21.457L1.88672 3.35156C1.88672 2.41406 2.4375 1.88672 3.43359 1.88672L11.6367 1.88672C12.6211 1.88672 13.1719 2.41406 13.1719 3.35156L13.1719 21.457C13.1719 22.3945 12.6211 22.9219 11.6367 22.9219L3.43359 22.9219C2.4375 22.9219 1.88672 22.3945 1.88672 21.457Z" fill="black" fill-opacity="0.85"/>
  <path d="M8.10938 9.35156C8.09766 9.03516 7.83984 8.77734 7.53516 8.77734C7.21875 8.77734 6.97266 9.03516 6.96094 9.35156L6.89062 11.2969L6.89062 14.6016C6.89062 14.9648 7.16016 15.2344 7.53516 15.2344C7.91016 15.2344 8.16797 14.9648 8.16797 14.6016L8.16797 11.2969ZM4.89844 11.7305C5.08594 11.7422 5.22656 11.6602 5.35547 11.543L6.30469 10.6055L7.53516 9.03516L8.76562 10.6055L9.70312 11.543C9.83203 11.6602 9.97266 11.7422 10.1602 11.7305C10.5234 11.7305 10.7812 11.4844 10.7812 11.1094C10.7812 10.9453 10.7344 10.7812 10.6172 10.6641L8.01562 8.08594C7.875 7.94531 7.69922 7.86328 7.53516 7.86328C7.35938 7.86328 7.18359 7.94531 7.04297 8.08594L4.44141 10.6641C4.32422 10.7812 4.28906 10.9453 4.28906 11.1094C4.28906 11.4844 4.54688 11.7305 4.89844 11.7305Z" fill="black" fill-opacity="0.85"/>
  <path d="M4.42969 6.90234L10.6406 6.90234C11.2617 6.90234 11.6836 6.49219 11.6836 5.83594L11.6836 4.44141C11.6836 3.79688 11.2617 3.375 10.6406 3.375L4.42969 3.375C3.79688 3.375 3.38672 3.79688 3.38672 4.44141L3.38672 5.83594C3.38672 6.49219 3.79688 6.90234 4.42969 6.90234Z" fill="black" fill-opacity="0.85"/>
 </g>
</svg>
