<?xml version="1.0" encoding="UTF-8"?>
<!--Generator: Apple Native CoreSVG 360-->
<!DOCTYPE svg
PUBLIC "-//W3C//DTD SVG 1.1//EN"
       "http://www.w3.org/Graphics/SVG/1.1/DTD/svg11.dtd">
<svg version="1.1" xmlns="http://www.w3.org/2000/svg" xmlns:xlink="http://www.w3.org/1999/xlink" viewBox="0 0 15.4102 24.832">
 <g>
  <rect height="24.832" opacity="0" width="15.4102" x="0" y="0"/>
  <path d="M0 21.7617C0 23.5898 1.27734 24.8086 3.1875 24.8086L11.8711 24.8086C13.7812 24.8086 15.0586 23.5898 15.0586 21.7617L15.0586 3.04688C15.0586 1.21875 13.7812 0 11.8711 0L3.1875 0C1.27734 0 0 1.21875 0 3.04688ZM1.88672 21.457L1.88672 3.35156C1.88672 2.41406 2.4375 1.88672 3.43359 1.88672L11.6367 1.88672C12.6211 1.88672 13.1719 2.41406 13.1719 3.35156L13.1719 21.457C13.1719 22.3945 12.6211 22.9219 11.6367 22.9219L3.43359 22.9219C2.4375 22.9219 1.88672 22.3945 1.88672 21.457Z" fill="black" fill-opacity="0.85"/>
  <path d="M4.42969 6.90234L10.6406 6.90234C11.2617 6.90234 11.6836 6.49219 11.6836 5.83594L11.6836 4.44141C11.6836 3.79688 11.2617 3.375 10.6406 3.375L4.42969 3.375C3.79688 3.375 3.38672 3.79688 3.38672 4.44141L3.38672 5.83594C3.38672 6.49219 3.79688 6.90234 4.42969 6.90234Z" fill="black" fill-opacity="0.85"/>
 </g>
</svg>
