<?xml version="1.0" encoding="UTF-8"?>
<!--Generator: Apple Native CoreSVG 360-->
<!DOCTYPE svg
PUBLIC "-//W3C//DTD SVG 1.1//EN"
       "http://www.w3.org/Graphics/SVG/1.1/DTD/svg11.dtd">
<svg version="1.1" xmlns="http://www.w3.org/2000/svg" xmlns:xlink="http://www.w3.org/1999/xlink" viewBox="0 0 19.9336 26.4258">
 <g>
  <rect height="26.4258" opacity="0" width="19.9336" x="0" y="0"/>
  <path d="M0 23.3086C0 25.1602 1.30078 26.4023 3.24609 26.4023L16.3359 26.4023C18.2812 26.4023 19.582 25.1602 19.582 23.3086L19.582 3.10547C19.582 1.25391 18.2812 0 16.3359 0L3.24609 0C1.30078 0 0 1.25391 0 3.10547ZM1.88672 22.9922L1.88672 3.42188C1.88672 2.46094 2.47266 1.88672 3.48047 1.88672L16.1016 1.88672C17.0977 1.88672 17.6953 2.46094 17.6953 3.42188L17.6953 22.9922C17.6953 23.9531 17.0977 24.5156 16.1016 24.5156L3.48047 24.5156C2.47266 24.5156 1.88672 23.9531 1.88672 22.9922Z" fill="black" fill-opacity="0.85"/>
  <path d="M5.29688 10.793L14.2969 10.793C14.918 10.793 15.3398 10.3828 15.3398 9.72656L15.3398 7.19531C15.3398 6.53906 14.918 6.12891 14.2969 6.12891L5.29688 6.12891C4.67578 6.12891 4.25391 6.53906 4.25391 7.19531L4.25391 9.72656C4.25391 10.3828 4.67578 10.793 5.29688 10.793ZM5.29688 20.25L14.2969 20.25C14.918 20.25 15.3398 19.8281 15.3398 19.1836L15.3398 16.6406C15.3398 15.9961 14.918 15.5742 14.2969 15.5742L5.29688 15.5742C4.67578 15.5742 4.25391 15.9961 4.25391 16.6406L4.25391 19.1836C4.25391 19.8281 4.67578 20.25 5.29688 20.25Z" fill="black" fill-opacity="0.85"/>
 </g>
</svg>
