<?xml version="1.0" encoding="UTF-8"?>
<!--Generator: Apple Native CoreSVG 360-->
<!DOCTYPE svg
PUBLIC "-//W3C//DTD SVG 1.1//EN"
       "http://www.w3.org/Graphics/SVG/1.1/DTD/svg11.dtd">
<svg version="1.1" xmlns="http://www.w3.org/2000/svg" xmlns:xlink="http://www.w3.org/1999/xlink" viewBox="0 0 26.1797 25.8867">
 <g>
  <rect height="25.8867" opacity="0" width="26.1797" x="0" y="0"/>
  <path d="M25.8281 6.9375L25.8281 15.9141C25.8281 19.3477 23.9531 21.2695 20.4609 21.2695L12.5391 21.2695L8.30859 25.1367C7.75781 25.6523 7.41797 25.8867 6.96094 25.8867C6.29297 25.8867 5.91797 25.4062 5.91797 24.6797L5.91797 21.2695L5.36719 21.2695C1.875 21.2695 0 19.3594 0 15.9141L0 6.9375C0 3.49219 1.875 1.57031 5.36719 1.57031L20.4609 1.57031C23.9531 1.57031 25.8281 3.50391 25.8281 6.9375ZM9.92578 7.60547L9.92578 15.2344C9.92578 15.7148 10.4531 15.9141 10.8516 15.668L17.25 11.9062C17.6367 11.6719 17.625 11.1562 17.2383 10.9336L10.8516 7.16016C10.4531 6.92578 9.92578 7.10156 9.92578 7.60547Z" fill="black" fill-opacity="0.85"/>
 </g>
</svg>
