<?xml version="1.0" encoding="UTF-8"?>
<!--Generator: Apple Native CoreSVG 360-->
<!DOCTYPE svg
PUBLIC "-//W3C//DTD SVG 1.1//EN"
       "http://www.w3.org/Graphics/SVG/1.1/DTD/svg11.dtd">
<svg version="1.1" xmlns="http://www.w3.org/2000/svg" xmlns:xlink="http://www.w3.org/1999/xlink" viewBox="0 0 28.2891 24.4336">
 <g>
  <rect height="24.4336" opacity="0" width="28.2891" x="0" y="0"/>
  <path d="M2.69531 20.2734L25.2305 20.2734C26.918 20.2734 27.9375 19.2539 27.9375 17.5664L27.9375 3.51562C27.9375 1.82812 26.918 0.820312 25.2305 0.820312L2.69531 0.820312C1.01953 0.820312 0 1.82812 0 3.51562L0 17.5664C0 19.2539 1.01953 20.2734 2.69531 20.2734ZM2.39062 15.1055C2.03906 15.1055 1.88672 14.9766 1.88672 14.6016L1.88672 3.55078C1.88672 3.02344 2.21484 2.70703 2.73047 2.70703L25.207 2.70703C25.7227 2.70703 26.0508 3.02344 26.0508 3.55078L26.0508 14.6016C26.0508 14.9766 25.8867 15.1055 25.5352 15.1055ZM10.2656 23.0625L17.6719 23.0625L17.6719 20.1211L10.2656 20.1211ZM10.1953 24.4336L17.7422 24.4336C18.2578 24.4336 18.6797 24.0117 18.6797 23.4844C18.6797 22.957 18.2578 22.5352 17.7422 22.5352L10.1953 22.5352C9.67969 22.5352 9.24609 22.957 9.24609 23.4844C9.24609 24.0117 9.67969 24.4336 10.1953 24.4336Z" fill="black" fill-opacity="0.85"/>
  <path d="M11.0625 12.7734C11.0625 13.2539 11.5664 13.4414 11.9648 13.207L18.2461 9.51562C18.6328 9.28125 18.6211 8.76562 18.2344 8.54297L11.9648 4.85156C11.5664 4.61719 11.0625 4.79297 11.0625 5.28516Z" fill="black" fill-opacity="0.85"/>
 </g>
</svg>
