<?xml version="1.0" encoding="UTF-8"?>
<!--Generator: Apple Native CoreSVG 360-->
<!DOCTYPE svg
PUBLIC "-//W3C//DTD SVG 1.1//EN"
       "http://www.w3.org/Graphics/SVG/1.1/DTD/svg11.dtd">
<svg version="1.1" xmlns="http://www.w3.org/2000/svg" xmlns:xlink="http://www.w3.org/1999/xlink" viewBox="0 0 27.6094 24.5508">
 <g>
  <rect height="24.5508" opacity="0" width="27.6094" x="0" y="0"/>
  <path d="M13.6289 22.8164C21.5039 22.8164 27.2578 18.0117 27.2578 11.4023C27.2578 4.76953 21.4922 0 13.6289 0C5.75391 0 0 4.76953 0 11.4023C0 13.5938 0.644531 15.6328 1.76953 17.2852C2.32031 18.1055 2.51953 18.6797 2.51953 19.1602C2.51953 19.7812 2.33203 20.2852 1.79297 20.7539C0.867188 21.5391 1.34766 22.8164 2.56641 22.8164C4.03125 22.8164 5.66016 22.3125 6.86719 21.4805C8.84766 22.3477 11.1562 22.8164 13.6289 22.8164ZM13.6289 20.9297C11.3906 20.9297 9.38672 20.5078 7.6875 19.7461C6.9375 19.418 6.39844 19.5117 5.68359 19.9336C5.17969 20.25 4.59375 20.5195 3.99609 20.6484C4.24219 20.2383 4.40625 19.7695 4.40625 19.1602C4.40625 18.293 4.08984 17.3438 3.33984 16.2188C2.40234 14.8594 1.88672 13.207 1.88672 11.4023C1.88672 5.90625 6.73828 1.88672 13.6289 1.88672C20.5195 1.88672 25.3711 5.90625 25.3711 11.4023C25.3711 16.8984 20.5195 20.9297 13.6289 20.9297Z" fill="black" fill-opacity="0.85"/>
  <path d="M14.6016 15.8203L14.6016 6.96094C14.6016 6.35156 14.2031 5.95312 13.6055 5.95312C13.043 5.95312 12.6445 6.36328 12.6445 6.96094L12.6445 15.8203C12.6445 16.4062 13.043 16.8164 13.6055 16.8164C14.2031 16.8164 14.6016 16.418 14.6016 15.8203ZM9.19922 12.3633L18.0586 12.3633C18.6445 12.3633 19.0547 11.9766 19.0547 11.4023C19.0547 10.8047 18.6562 10.4062 18.0586 10.4062L9.19922 10.4062C8.60156 10.4062 8.19141 10.8047 8.19141 11.4023C8.19141 11.9766 8.60156 12.3633 9.19922 12.3633Z" fill="black" fill-opacity="0.85"/>
 </g>
</svg>
