<?xml version="1.0" encoding="UTF-8"?>
<!--Generator: Apple Native CoreSVG 360-->
<!DOCTYPE svg
PUBLIC "-//W3C//DTD SVG 1.1//EN"
       "http://www.w3.org/Graphics/SVG/1.1/DTD/svg11.dtd">
<svg version="1.1" xmlns="http://www.w3.org/2000/svg" xmlns:xlink="http://www.w3.org/1999/xlink" viewBox="0 0 24.2578 23.918">
 <g>
  <rect height="23.918" opacity="0" width="24.2578" x="0" y="0"/>
  <path d="M2.00391 11.9531C2.00391 10.8867 2.16797 9.85547 2.47266 8.90625L0.632812 8.13281C0.234375 9.33984 0 10.6172 0 11.9531C0 13.2773 0.234375 14.5664 0.644531 15.7734L2.47266 15C2.16797 14.0508 2.00391 13.0195 2.00391 11.9531ZM7.39453 3.07031L6.64453 1.26562C4.32422 2.42578 2.41406 4.33594 1.25391 6.65625L3.08203 7.41797C4.01953 5.55469 5.54297 4.03125 7.39453 3.07031ZM11.9414 1.99219C13.0078 1.99219 14.0391 2.15625 15.0117 2.47266L15.7617 0.644531C14.5547 0.234375 13.2656 0 11.9414 0C10.6172 0 9.31641 0.234375 8.10938 0.644531L8.88281 2.47266C9.84375 2.15625 10.875 1.99219 11.9414 1.99219ZM20.8242 7.40625L22.6406 6.65625C21.4688 4.33594 19.5586 2.42578 17.2383 1.25391L16.4883 3.07031C18.3398 4.01953 19.875 5.54297 20.8242 7.40625ZM21.9141 11.9531C21.9141 13.0195 21.75 14.0508 21.4453 15.0117L23.2617 15.7852C23.6719 14.5781 23.9062 13.2773 23.9062 11.9531C23.9062 10.6172 23.6719 9.32812 23.2617 8.12109L21.4336 8.89453C21.75 9.85547 21.9141 10.8867 21.9141 11.9531ZM16.4883 20.8242L17.2383 22.6523C19.5703 21.4805 21.4805 19.5703 22.6289 17.25L20.8359 16.5C19.8867 18.3633 18.3516 19.875 16.4883 20.8242ZM11.9531 21.9141C10.875 21.9141 9.84375 21.75 8.88281 21.4336L8.12109 23.2617C9.32812 23.6719 10.6289 23.9062 11.9531 23.9062C13.2773 23.9062 14.5664 23.6719 15.7617 23.2734L15 21.4453C14.0391 21.75 13.0195 21.9141 11.9531 21.9141ZM3.08203 16.5L1.26562 17.25C2.4375 19.5703 4.32422 21.4805 6.64453 22.6406L7.39453 20.8125C5.54297 19.8633 4.01953 18.3516 3.08203 16.5Z" fill="black" fill-opacity="0.85"/>
  <path d="M12.9258 16.3828L12.9258 7.51172C12.9258 6.91406 12.5156 6.51562 11.9297 6.51562C11.3555 6.51562 10.957 6.91406 10.957 7.51172L10.957 16.3828C10.957 16.9688 11.3555 17.3789 11.9297 17.3789C12.5156 17.3789 12.9258 16.9688 12.9258 16.3828ZM7.51172 12.9258L16.3828 12.9258C16.9688 12.9258 17.3789 12.5273 17.3789 11.9531C17.3789 11.3672 16.9688 10.957 16.3828 10.957L7.51172 10.957C6.91406 10.957 6.51562 11.3672 6.51562 11.9531C6.51562 12.5273 6.91406 12.9258 7.51172 12.9258Z" fill="black" fill-opacity="0.85"/>
 </g>
</svg>
