<?xml version="1.0" encoding="UTF-8"?>
<!--Generator: Apple Native CoreSVG 360-->
<!DOCTYPE svg
PUBLIC "-//W3C//DTD SVG 1.1//EN"
       "http://www.w3.org/Graphics/SVG/1.1/DTD/svg11.dtd">
<svg version="1.1" xmlns="http://www.w3.org/2000/svg" xmlns:xlink="http://www.w3.org/1999/xlink" viewBox="0 0 14.543 19.582">
 <g>
  <rect height="19.582" opacity="0" width="14.543" x="0" y="0"/>
  <path d="M0 18.5273C0 19.1133 0.480469 19.582 1.04297 19.582L13.1484 19.582C13.7109 19.582 14.1914 19.1133 14.1914 18.5273C14.1914 17.9531 13.7109 17.4844 13.1484 17.4844L1.04297 17.4844C0.480469 17.4844 0 17.9531 0 18.5273Z" fill="black" fill-opacity="0.85"/>
  <path d="M7.08984 13.7461C7.66406 13.7461 8.14453 13.2891 8.14453 12.7266L8.14453 1.03125C8.14453 0.457031 7.66406 0 7.08984 0C6.51562 0 6.04688 0.457031 6.04688 1.03125L6.04688 12.7266C6.04688 13.2891 6.51562 13.7461 7.08984 13.7461ZM0 6.85547C0 7.42969 0.46875 7.89844 1.04297 7.89844L13.1484 7.89844C13.7227 7.89844 14.1914 7.42969 14.1914 6.85547C14.1914 6.28125 13.7227 5.80078 13.1484 5.80078L1.04297 5.80078C0.46875 5.80078 0 6.28125 0 6.85547Z" fill="black" fill-opacity="0.85"/>
 </g>
</svg>
