<?xml version="1.0" encoding="UTF-8"?>
<!--Generator: Apple Native CoreSVG 360-->
<!DOCTYPE svg
PUBLIC "-//W3C//DTD SVG 1.1//EN"
       "http://www.w3.org/Graphics/SVG/1.1/DTD/svg11.dtd">
<svg version="1.1" xmlns="http://www.w3.org/2000/svg" xmlns:xlink="http://www.w3.org/1999/xlink" viewBox="0 0 36.3164 24.082">
 <g>
  <rect height="24.082" opacity="0" width="36.3164" x="0" y="0"/>
  <path d="M13.7812 2.10938L14.4961 2.69531C15.082 3.19922 15.5625 3.38672 16.3594 3.38672L18.9103 3.38672C18.9038 3.46492 18.9023 3.54812 18.9023 3.63281L18.9023 5.27344L15.8672 5.27344C14.707 5.27344 14.0859 5.05078 13.3242 4.41797L12.6094 3.82031C12.0117 3.31641 11.543 3.11719 10.7695 3.11719L8.29688 3.11719C7.17188 3.11719 6.5625 3.71484 6.5625 4.875L6.5625 18.9609C6.5625 20.1797 7.20703 20.8008 8.37891 20.8008L27.5742 20.8008C28.7344 20.8008 29.4023 20.1797 29.4023 18.9727L29.4023 14.2148L31.2891 14.2148L31.2891 19.0547C31.2891 21.4688 30.0586 22.6875 27.9609 22.6875L8.35547 22.6875C5.90625 22.6875 4.67578 21.4805 4.67578 19.0547L4.67578 4.76953C4.67578 2.41406 5.85938 1.24219 7.91016 1.24219L11.25 1.24219C12.4102 1.24219 13.0078 1.45312 13.7812 2.10938ZM18.9023 8.88281L8.01562 8.88281L8.01562 8.16797C8.01562 7.41797 8.39062 7.05469 9.17578 7.05469L18.9023 7.05469Z" fill="black" fill-opacity="0.85"/>
  <path d="M22.5703 14.2148L32.6367 14.2148C35.0859 14.2148 36.3164 12.9961 36.3164 10.582L36.3164 3.63281C36.3164 1.20703 35.0859 0 32.6367 0L22.5703 0C20.1211 0 18.9023 1.20703 18.9023 3.63281L18.9023 10.582C18.9023 12.9961 20.1211 14.2148 22.5703 14.2148ZM22.5117 12.4453C21.3281 12.4453 20.6719 11.8125 20.6719 10.5703L20.6719 3.63281C20.6719 2.40234 21.3281 1.76953 22.5117 1.76953L32.707 1.76953C33.8789 1.76953 34.5469 2.40234 34.5469 3.63281L34.5469 10.5703C34.5469 11.8125 33.8789 12.4453 32.7305 12.4453Z" fill="black" fill-opacity="0.85"/>
  <path d="M27.6094 10.8516C28.043 10.8516 28.3242 10.5703 28.3242 10.1367L28.3242 7.85156L30.6094 7.85156C31.043 7.85156 31.3359 7.57031 31.3359 7.125C31.3359 6.69141 31.043 6.41016 30.6094 6.41016L28.3242 6.41016L28.3242 4.125C28.3242 3.69141 28.043 3.39844 27.6094 3.39844C27.1758 3.39844 26.8945 3.69141 26.8945 4.125L26.8945 6.41016L24.5977 6.41016C24.1758 6.41016 23.8828 6.69141 23.8828 7.125C23.8828 7.57031 24.1758 7.85156 24.5977 7.85156L26.8945 7.85156L26.8945 10.1367C26.8945 10.5703 27.1758 10.8516 27.6094 10.8516Z" fill="black" fill-opacity="0.85"/>
 </g>
</svg>
