<?xml version="1.0" encoding="UTF-8"?>
<!--Generator: Apple Native CoreSVG 360-->
<!DOCTYPE svg
PUBLIC "-//W3C//DTD SVG 1.1//EN"
       "http://www.w3.org/Graphics/SVG/1.1/DTD/svg11.dtd">
<svg version="1.1" xmlns="http://www.w3.org/2000/svg" xmlns:xlink="http://www.w3.org/1999/xlink" viewBox="0 0 26.9651 27.4749">
 <g>
  <rect height="27.4749" opacity="0" width="26.9651" x="0" y="0"/>
  <path d="M24.9494 13.2746C24.9494 13.8136 24.5392 14.2238 24.0119 14.2238L16.7892 14.2238C16.713 13.7237 16.4778 13.226 16.0548 12.7941L15.6077 12.3371L24.0119 12.3371C24.5392 12.3371 24.9494 12.7472 24.9494 13.2746Z" fill="black" fill-opacity="0.85"/>
  <path d="M21.6915 9.92301C21.6915 10.4621 21.2697 10.8839 20.7423 10.8839L14.1862 10.8839L12.3405 8.99723L20.7423 8.99723C21.2697 8.99723 21.6915 9.39567 21.6915 9.92301Z" fill="black" fill-opacity="0.85"/>
  <path d="M18.4689 6.58317C18.4689 7.12223 18.0587 7.5441 17.5197 7.5441L10.919 7.5441L9.07326 5.65739L17.5197 5.65739C18.0587 5.65739 18.4689 6.05582 18.4689 6.58317Z" fill="black" fill-opacity="0.85"/>
  <path d="M15.1876 3.24332C15.1876 3.78239 14.7658 4.19254 14.2384 4.19254L7.64026 4.19254L5.79455 2.30582L14.2384 2.30582C14.7658 2.30582 15.1876 2.71598 15.1876 3.24332Z" fill="black" fill-opacity="0.85"/>
  <path d="M11.8009 25.3097C12.6915 24.9582 13.1251 23.9504 12.7501 23.048L8.95327 14.0832L8.40249 15.0441L14.2384 15.3722C15.0236 15.4191 15.3986 14.5754 14.8361 14.0011L3.23452 2.14176C2.71889 1.61442 1.92202 1.90739 1.9103 2.64567L1.7228 19.1457C1.71108 19.9543 2.61342 20.2824 3.14077 19.6847L6.90249 15.5129L5.81264 15.2316L9.51577 24.3722C9.89077 25.2511 10.8986 25.6847 11.8009 25.3097Z" fill="black" fill-opacity="0.85"/>
 </g>
</svg>
