<?xml version="1.0" encoding="UTF-8"?>
<!--Generator: Apple Native CoreSVG 360-->
<!DOCTYPE svg
PUBLIC "-//W3C//DTD SVG 1.1//EN"
       "http://www.w3.org/Graphics/SVG/1.1/DTD/svg11.dtd">
<svg version="1.1" xmlns="http://www.w3.org/2000/svg" xmlns:xlink="http://www.w3.org/1999/xlink" viewBox="0 0 34.7703 32.3216">
 <g>
  <rect height="32.3216" opacity="0" width="34.7703" x="0" y="0"/>
  <path d="M6.69179 19.2838C6.69179 20.5026 7.33633 21.1354 8.5082 21.1354L10.4887 21.1354L10.4887 23.0221L8.48476 23.0221C6.02383 23.0221 4.80508 21.8034 4.80508 19.3893L4.80508 17.7135L6.69179 17.7135ZM6.69179 16.1198L4.80508 16.1198L4.80508 10.7994L6.69179 10.7994ZM23.9184 7.52992L23.9184 9.32289L22.0316 9.32289L22.0316 7.63539C22.0316 6.41664 21.3754 5.78382 20.2152 5.78382L18.4926 5.78382L18.4926 3.8971L20.2504 3.8971C22.6996 3.8971 23.9184 5.11585 23.9184 7.52992ZM10.2426 5.78382L8.5082 5.78382C7.33633 5.78382 6.69179 6.41664 6.69179 7.63539L6.69179 9.2057L4.80508 9.2057L4.80508 7.52992C4.80508 5.11585 6.02383 3.8971 8.48476 3.8971L10.2426 3.8971ZM17.0043 5.78382L11.7191 5.78382L11.7191 3.8971L17.0043 3.8971Z" fill="black" fill-opacity="0.85"/>
  <path d="M29.602 12.9557L29.602 20.838L27.7152 18.9543L27.7152 13.0612C27.7152 11.8424 27.059 11.2096 25.8988 11.2096L14.1918 11.2096C13.0316 11.2096 12.3754 11.8424 12.3754 13.0612L12.3754 24.7096C12.3754 25.9284 13.0316 26.5612 14.1918 26.5612L22.7465 26.5612L22.7465 28.4479L14.1684 28.4479C11.7074 28.4479 10.4887 27.2291 10.4887 24.8151L10.4887 12.9557C10.4887 10.5299 11.7074 9.32289 14.1684 9.32289L25.934 9.32289C28.3715 9.32289 29.602 10.5416 29.602 12.9557Z" fill="black" fill-opacity="0.85"/>
  <path d="M28.477 27.8151L32.227 27.8151C33.1996 27.8151 33.598 26.9362 33.0121 26.3502L25.8285 19.1549C25.1957 18.5221 24.223 18.8619 24.223 19.7877L24.223 29.9948C24.223 30.8151 25.1371 31.1549 25.8168 30.4752Z" fill="black" fill-opacity="0.85"/>
 </g>
</svg>
