<?xml version="1.0" encoding="UTF-8"?>
<!--Generator: Apple Native CoreSVG 360-->
<!DOCTYPE svg
PUBLIC "-//W3C//DTD SVG 1.1//EN"
       "http://www.w3.org/Graphics/SVG/1.1/DTD/svg11.dtd">
<svg version="1.1" xmlns="http://www.w3.org/2000/svg" xmlns:xlink="http://www.w3.org/1999/xlink" viewBox="0 0 26.3789 27.6424">
 <g>
  <rect height="27.6424" opacity="0" width="26.3789" x="0" y="0"/>
  <path d="M22.3125 7.92081C23.0508 9.19815 21.375 10.206 20.625 8.87002C18.9023 5.87002 15.668 3.8544 11.9414 3.8544C6.41016 3.8544 2.00391 8.28409 2.00391 13.8153C2.00391 17.5771 4.07812 20.8349 7.01953 22.4755C8.37891 23.2606 7.35938 24.9013 6.12891 24.2099C2.58984 22.2646 0 18.3036 0 13.8153C0 7.27627 5.41406 1.86221 11.9414 1.86221C16.3359 1.86221 20.2383 4.31143 22.3125 7.92081Z" fill="black" fill-opacity="0.85"/>
  <path d="M26.0273 18.995C26.0273 19.3349 25.7578 19.6044 25.418 19.6044L20.5247 19.6044C20.5409 19.1903 20.4228 18.7645 20.1479 18.3856L25.418 18.3856C25.7578 18.3856 26.0273 18.6435 26.0273 18.995Z" fill="black" fill-opacity="0.85"/>
  <path d="M23.9648 16.8739C23.9648 17.2138 23.6953 17.4833 23.3438 17.4833L19.3059 17.4833L18.1196 16.2646L23.3438 16.2646C23.6953 16.2646 23.9648 16.5341 23.9648 16.8739Z" fill="black" fill-opacity="0.85"/>
  <path d="M21.9258 14.7528C21.9258 15.1044 21.6562 15.3739 21.3164 15.3739L17.2527 15.3739L16.0551 14.1435L21.3164 14.1435C21.6562 14.1435 21.9258 14.413 21.9258 14.7528Z" fill="black" fill-opacity="0.85"/>
  <path d="M19.8516 12.6317C19.8516 12.9833 19.5703 13.2528 19.2305 13.2528L15.1882 13.2528L14.0019 12.0341L19.2305 12.0341C19.5703 12.0341 19.8516 12.2919 19.8516 12.6317Z" fill="black" fill-opacity="0.85"/>
  <path d="M17.1914 25.7099C17.707 25.5106 17.9531 24.9247 17.7305 24.3974L15.9023 20.1435L18.4336 20.038C18.8672 20.0263 19.0898 19.5927 18.7734 19.2646L12.3633 12.6786C12.0703 12.3739 11.6133 12.5497 11.6016 12.9833L11.4961 22.3349C11.4844 22.7919 12.0234 22.9325 12.3164 22.6513L14.1094 20.8583L15.8555 25.1825C16.0664 25.6864 16.6641 25.9325 17.1914 25.7099Z" fill="black" fill-opacity="0.85"/>
 </g>
</svg>
