<?xml version="1.0" encoding="UTF-8"?>
<!--Generator: Apple Native CoreSVG 360-->
<!DOCTYPE svg
PUBLIC "-//W3C//DTD SVG 1.1//EN"
       "http://www.w3.org/Graphics/SVG/1.1/DTD/svg11.dtd">
<svg version="1.1" xmlns="http://www.w3.org/2000/svg" xmlns:xlink="http://www.w3.org/1999/xlink" viewBox="0 0 31.1056 34.1124">
 <g>
  <rect height="34.1124" opacity="0" width="31.1056" x="0" y="0"/>
  <path d="M4.85944 20.1792C4.85944 21.398 5.50397 22.0308 6.67584 22.0308L8.65631 22.0308L8.65631 23.9175L6.65241 23.9175C4.19147 23.9175 2.97272 22.6988 2.97272 20.2847L2.97272 18.6089L4.85944 18.6089ZM4.85944 17.0152L2.97272 17.0152L2.97272 11.6948L4.85944 11.6948ZM22.086 8.42532L22.086 10.2183L20.1993 10.2183L20.1993 8.53079C20.1993 7.31204 19.543 6.67922 18.3829 6.67922L16.6602 6.67922L16.6602 4.7925L18.418 4.7925C20.8672 4.7925 22.086 6.01125 22.086 8.42532ZM8.41022 6.67922L6.67584 6.67922C5.50397 6.67922 4.85944 7.31204 4.85944 8.53079L4.85944 10.1011L2.97272 10.1011L2.97272 8.42532C2.97272 6.01125 4.19147 4.7925 6.65241 4.7925L8.41022 4.7925ZM15.1719 6.67922L9.88678 6.67922L9.88678 4.7925L15.1719 4.7925Z" fill="black" fill-opacity="0.85"/>
  <path d="M27.7696 13.8511L27.7696 22.0615L25.8829 20.1232L25.8829 13.9566C25.8829 12.7378 25.2266 12.105 24.0665 12.105L12.3594 12.105C11.1993 12.105 10.543 12.7378 10.543 13.9566L10.543 25.605C10.543 26.8238 11.1993 27.4566 12.3594 27.4566L20.4982 27.4566L20.4805 29.0269C20.4784 29.1358 20.4841 29.2414 20.4974 29.3433L12.336 29.3433C9.87506 29.3433 8.65631 28.1245 8.65631 25.7105L8.65631 13.8511C8.65631 11.4253 9.87506 10.2183 12.336 10.2183L24.1016 10.2183C26.5391 10.2183 27.7696 11.437 27.7696 13.8511Z" fill="black" fill-opacity="0.85"/>
  <path d="M27.7696 32.437C28.2852 32.2261 28.5313 31.6402 28.3087 31.1245L26.4805 26.8589L29.0001 26.7652C29.4454 26.7417 29.668 26.3081 29.3516 25.98L22.9415 19.3941C22.6485 19.1011 22.1915 19.2652 22.1797 19.6988L22.0743 29.0503C22.0626 29.5073 22.6016 29.6597 22.8946 29.3667L24.6876 27.5738L26.4337 31.898C26.6329 32.4019 27.2422 32.648 27.7696 32.437Z" fill="black" fill-opacity="0.85"/>
 </g>
</svg>
