<?xml version="1.0" encoding="UTF-8"?>
<!--Generator: Apple Native CoreSVG 360-->
<!DOCTYPE svg
PUBLIC "-//W3C//DTD SVG 1.1//EN"
       "http://www.w3.org/Graphics/SVG/1.1/DTD/svg11.dtd">
<svg version="1.1" xmlns="http://www.w3.org/2000/svg" xmlns:xlink="http://www.w3.org/1999/xlink" viewBox="0 0 21.1172 25.957">
 <g>
  <rect height="25.957" opacity="0" width="21.1172" x="0" y="0"/>
  <path d="M16.3242 0.46875L20.0508 3.10547C20.6016 3.49219 20.5898 4.05469 20.0508 4.42969L16.3125 7.06641C15.6797 7.52344 15.1055 7.30078 15.1055 6.48047L15.1055 4.71094L6.17578 4.71094C3.53906 4.71094 1.88672 5.95312 1.88672 7.91016C1.88672 9.90234 3.65625 11.25 7.18359 11.6133L13.8633 12.3164C18.4102 12.7734 20.7656 14.8594 20.7656 18.0469C20.7656 21.1641 18.375 23.1328 14.5898 23.1328L7.41917 23.1328C7.504 22.827 7.54688 22.5044 7.54688 22.1719C7.54688 21.8522 7.50679 21.5414 7.42701 21.2461L14.5898 21.2461C17.2266 21.2461 18.8789 20.0039 18.8789 18.0469C18.8789 16.0547 17.0977 14.707 13.582 14.3438L6.87891 13.6406C2.34375 13.1836 0 11.0977 0 7.91016C0 4.79297 2.39062 2.82422 6.17578 2.82422L15.1055 2.82422L15.1055 1.06641C15.1055 0.222656 15.6797 0.0117188 16.3242 0.46875Z" fill="black" fill-opacity="0.85"/>
  <path d="M3.77344 25.957C5.85938 25.957 7.54688 24.2578 7.54688 22.1719C7.54688 20.0977 5.85938 18.3984 3.77344 18.3984C1.6875 18.3984 0 20.0977 0 22.1719C0 24.2578 1.6875 25.957 3.77344 25.957ZM3.77344 24.1172C2.69531 24.1172 1.83984 23.2617 1.83984 22.1719C1.83984 21.082 2.69531 20.2383 3.77344 20.2383C4.86328 20.2383 5.70703 21.082 5.70703 22.1719C5.70703 23.2617 4.86328 24.1172 3.77344 24.1172Z" fill="black" fill-opacity="0.85"/>
 </g>
</svg>
