<?xml version="1.0" encoding="UTF-8"?>
<!--Generator: Apple Native CoreSVG 360-->
<!DOCTYPE svg
PUBLIC "-//W3C//DTD SVG 1.1//EN"
       "http://www.w3.org/Graphics/SVG/1.1/DTD/svg11.dtd">
<svg version="1.1" xmlns="http://www.w3.org/2000/svg" xmlns:xlink="http://www.w3.org/1999/xlink" viewBox="0 0 21.1172 25.957">
 <g>
  <rect height="25.957" opacity="0" width="21.1172" x="0" y="0"/>
  <path d="M7.55859 22.1719C7.55859 24.2578 5.87109 25.957 3.78516 25.957C1.69922 25.957 0.0117188 24.2578 0.0117188 22.1719C0.0117188 20.0977 1.69922 18.3984 3.78516 18.3984C5.87109 18.3984 7.55859 20.0977 7.55859 22.1719ZM1.85156 22.1719C1.85156 23.2617 2.70703 24.1172 3.78516 24.1172C4.88672 24.1172 5.71875 23.2617 5.71875 22.1719C5.71875 21.082 4.875 20.2383 3.78516 20.2383C2.70703 20.2383 1.85156 21.082 1.85156 22.1719Z" fill="black" fill-opacity="0.85"/>
  <path d="M13.207 3.77344C13.207 4.09749 13.248 4.41221 13.3295 4.71094L6.17578 4.71094C3.53906 4.71094 1.88672 5.95312 1.88672 7.91016C1.88672 9.90234 3.65625 11.25 7.18359 11.6133L13.8633 12.3164C18.4102 12.7734 20.7656 14.8594 20.7656 18.0469C20.7656 21.1641 18.375 23.1328 14.5898 23.1328L13.9687 23.1328L13.9688 24.8555C13.9688 25.6875 13.3594 26.0625 12.75 25.5703L9.31641 22.8281C8.80078 22.4297 8.78906 21.9141 9.31641 21.5039L12.7383 18.7734C13.3594 18.2695 13.9688 18.6445 13.9688 19.4883L13.9687 21.2461L14.5898 21.2461C17.2266 21.2461 18.8789 20.0039 18.8789 18.0469C18.8789 16.0547 17.0977 14.707 13.582 14.3438L6.87891 13.6406C2.34375 13.1836 0 11.0977 0 7.91016C0 4.79297 2.39062 2.82422 6.17578 2.82422L13.3337 2.82422C13.2495 3.12661 13.207 3.44533 13.207 3.77344Z" fill="black" fill-opacity="0.85"/>
  <path d="M16.9805 7.55859C19.0781 7.55859 20.7656 5.85938 20.7656 3.77344C20.7656 1.69922 19.0781 0 16.9805 0C14.9062 0 13.207 1.69922 13.207 3.77344C13.207 5.85938 14.9062 7.55859 16.9805 7.55859Z" fill="black" fill-opacity="0.85"/>
 </g>
</svg>
