<?xml version="1.0" encoding="UTF-8"?>
<!--Generator: Apple Native CoreSVG 360-->
<!DOCTYPE svg
PUBLIC "-//W3C//DTD SVG 1.1//EN"
       "http://www.w3.org/Graphics/SVG/1.1/DTD/svg11.dtd">
<svg version="1.1" xmlns="http://www.w3.org/2000/svg" xmlns:xlink="http://www.w3.org/1999/xlink" viewBox="0 0 25.793 25.4648">
 <g>
  <rect height="25.4648" opacity="0" width="25.793" x="0" y="0"/>
  <path d="M12.7148 5.67188C13.2773 5.67188 13.7461 5.20312 13.7461 4.64062L13.7461 1.03125C13.7461 0.46875 13.2773 0 12.7148 0C12.1641 0 11.6953 0.46875 11.6953 1.03125L11.6953 4.64062C11.6953 5.20312 12.1641 5.67188 12.7148 5.67188ZM17.707 7.73438C18.0938 8.13281 18.7734 8.13281 19.1602 7.73438L21.7148 5.17969C22.1016 4.78125 22.1016 4.125 21.7148 3.73828C21.3164 3.33984 20.6602 3.33984 20.2734 3.73828L17.707 6.28125C17.3203 6.67969 17.3203 7.34766 17.707 7.73438ZM19.7812 12.7266C19.7812 13.2773 20.25 13.7461 20.8008 13.7461L24.4102 13.7461C24.9727 13.7461 25.4414 13.2773 25.4414 12.7266C25.4414 12.1758 24.9727 11.707 24.4102 11.707L20.8008 11.707C20.25 11.707 19.7812 12.1758 19.7812 12.7266ZM7.73438 17.707C7.34766 17.3203 6.66797 17.3203 6.28125 17.707L3.72656 20.2734C3.33984 20.6602 3.33984 21.3281 3.72656 21.7148C4.125 22.1016 4.78125 22.1016 5.16797 21.7148L7.73438 19.1602C8.12109 18.7734 8.12109 18.1055 7.73438 17.707ZM5.66016 12.7266C5.66016 12.1758 5.19141 11.707 4.64062 11.707L1.01953 11.707C0.46875 11.707 0 12.1758 0 12.7266C0 13.2773 0.46875 13.7461 1.01953 13.7461L4.64062 13.7461C5.19141 13.7461 5.66016 13.2773 5.66016 12.7266ZM7.73438 7.73438C8.12109 7.34766 8.12109 6.67969 7.73438 6.28125L5.16797 3.73828C4.78125 3.33984 4.125 3.33984 3.72656 3.73828C3.33984 4.125 3.33984 4.78125 3.72656 5.17969L6.28125 7.73438C6.66797 8.13281 7.34766 8.13281 7.73438 7.73438Z" fill="black" fill-opacity="0.85"/>
  <path d="M17.625 24.6094C18.1406 24.3984 18.3867 23.8125 18.1641 23.2969L16.3359 19.0312L18.8672 18.9375C19.3008 18.9141 19.5234 18.4805 19.207 18.1523L12.7969 11.5664C12.5039 11.2734 12.0469 11.4375 12.0352 11.8711L11.9297 21.2227C11.918 21.6797 12.457 21.832 12.75 21.5391L14.543 19.7461L16.2891 24.0703C16.5 24.5742 17.0977 24.8203 17.625 24.6094Z" fill="black" fill-opacity="0.85"/>
 </g>
</svg>
