<?xml version="1.0" encoding="UTF-8"?>
<!--Generator: Apple Native CoreSVG 360-->
<!DOCTYPE svg
PUBLIC "-//W3C//DTD SVG 1.1//EN"
       "http://www.w3.org/Graphics/SVG/1.1/DTD/svg11.dtd">
<svg version="1.1" xmlns="http://www.w3.org/2000/svg" xmlns:xlink="http://www.w3.org/1999/xlink" viewBox="0 0 29.9414 21.7148">
 <g>
  <rect height="21.7148" opacity="0" width="29.9414" x="0" y="0"/>
  <path d="M29.5898 11.3086C29.5898 16.3711 26.25 19.6758 21.2109 19.6758L8.37891 19.6758C3.31641 19.6758 0 16.3711 0 11.3086C0 6.24609 3.31641 2.85938 8.37891 2.90625L10.1133 2.91797C10.0664 3.19922 10.043 3.49219 10.043 3.77344C10.043 4.125 10.0781 4.46484 10.1484 4.79297L8.37891 4.79297C4.5 4.79297 1.88672 7.44141 1.88672 11.3086C1.88672 15.1758 4.5 17.7891 8.37891 17.7891L21.2109 17.7891C25.0547 17.7891 27.7031 15.1758 27.7031 11.3086C27.7031 7.44141 25.0547 4.79297 21.2109 4.79297L19.0497 4.79297C19.1457 4.46637 19.1953 4.12003 19.1953 3.76172C19.1953 3.46706 19.161 3.18021 19.0927 2.90625L21.2109 2.90625C26.25 2.90625 29.5898 6.24609 29.5898 11.3086Z" fill="black" fill-opacity="0.85"/>
  <path d="M15.4102 7.54688C17.4961 7.54688 19.1953 5.85938 19.1953 3.76172C19.1953 1.6875 17.4961 0 15.4102 0C13.3359 0 11.6367 1.6875 11.6367 3.76172C11.6367 5.85938 13.3359 7.54688 15.4102 7.54688ZM15.4102 5.70703C14.332 5.70703 13.4766 4.85156 13.4766 3.76172C13.4766 2.68359 14.3438 1.83984 15.4102 1.83984C16.5117 1.83984 17.3555 2.68359 17.3555 3.76172C17.3555 4.85156 16.5117 5.70703 15.4102 5.70703Z" fill="black" fill-opacity="0.85"/>
 </g>
</svg>
