<?xml version="1.0" encoding="UTF-8"?>
<!--Generator: Apple Native CoreSVG 360-->
<!DOCTYPE svg
PUBLIC "-//W3C//DTD SVG 1.1//EN"
       "http://www.w3.org/Graphics/SVG/1.1/DTD/svg11.dtd">
<svg version="1.1" xmlns="http://www.w3.org/2000/svg" xmlns:xlink="http://www.w3.org/1999/xlink" viewBox="0 0 24.2578 23.9421">
 <g>
  <rect height="23.9421" opacity="0" width="24.2578" x="0" y="0"/>
  <path d="M0 11.9652C0 16.4535 2.58984 20.4144 6.12891 22.3597C7.35938 23.0512 8.37891 21.4105 7.01953 20.6254C4.07812 18.9847 2.00391 15.7269 2.00391 11.9652C2.00391 6.43396 6.41016 2.00428 11.9414 2.00428C17.4727 2.00428 21.9141 6.43396 21.9141 11.9652C21.9141 12.6683 22.4531 13.0082 22.9688 13.0082C23.4492 13.0082 23.9062 12.6566 23.9062 11.9652C23.9062 5.42615 18.4805 0.0120888 11.9414 0.0120888C5.41406 0.0120888 0 5.42615 0 11.9652Z" fill="black" fill-opacity="0.85"/>
  <path d="M17.1914 23.8597C17.707 23.6605 17.9531 23.0746 17.7305 22.5472L15.9023 18.2933L18.4219 18.1879C18.8672 18.1762 19.0781 17.7426 18.7617 17.4144L12.3633 10.8285C12.0586 10.5238 11.6133 10.6996 11.6016 11.1332L11.4961 20.4847C11.4844 20.9418 12.0234 21.0824 12.3164 20.8012L14.1094 19.0082L15.8555 23.3324C16.0547 23.8363 16.6641 24.0824 17.1914 23.8597Z" fill="black" fill-opacity="0.85"/>
 </g>
</svg>
