<?xml version="1.0" encoding="UTF-8"?>
<!--Generator: Apple Native CoreSVG 360-->
<!DOCTYPE svg
PUBLIC "-//W3C//DTD SVG 1.1//EN"
       "http://www.w3.org/Graphics/SVG/1.1/DTD/svg11.dtd">
<svg version="1.1" xmlns="http://www.w3.org/2000/svg" xmlns:xlink="http://www.w3.org/1999/xlink" viewBox="0 0 21.1172 29.9676">
 <g>
  <rect height="29.9676" opacity="0" width="21.1172" x="0" y="0"/>
  <path d="M7.43795 23.2514L7.06641 23.2514C6.55078 23.2514 6.11719 23.6732 6.11719 24.1889C6.11719 24.7045 6.55078 25.1381 7.06641 25.1381L7.43007 25.1381C7.00708 26.7616 5.52689 27.9623 3.77344 27.9623C1.69922 27.9623 0 26.2631 0 24.1771C0 22.1029 1.69922 20.4037 3.77344 20.4037C5.53789 20.4037 7.02564 21.6195 7.43795 23.2514ZM1.83984 24.1771C1.83984 25.267 2.69531 26.1225 3.77344 26.1225C4.86328 26.1225 5.71875 25.267 5.71875 24.1771C5.71875 23.0873 4.875 22.2436 3.77344 22.2436C2.69531 22.2436 1.83984 23.0873 1.83984 24.1771Z" fill="black" fill-opacity="0.85"/>
  <path d="M7.06641 25.1381L14.5898 25.1381C18.3867 25.1381 20.7656 23.1693 20.7656 20.0521C20.7656 16.8646 18.4219 14.7787 13.875 14.3217L7.18359 13.6186C3.66797 13.2553 1.88672 11.9076 1.88672 9.91543C1.88672 7.9584 3.53906 6.71621 6.1875 6.71621L10.7578 6.71621L9.45703 5.6498C9.17578 5.40371 8.94141 5.13418 8.78906 4.82949L6.1875 4.82949C2.39062 4.82949 0 6.79824 0 9.91543C0 13.1029 2.35547 15.1889 6.87891 15.6459L13.582 16.349C17.1094 16.7123 18.8789 18.06 18.8789 20.0521C18.8789 22.0092 17.2266 23.2514 14.5898 23.2514L7.06641 23.2514C6.55078 23.2514 6.11719 23.6732 6.11719 24.1889C6.11719 24.7045 6.55078 25.1381 7.06641 25.1381Z" fill="black" fill-opacity="0.85"/>
  <path d="M14.5547 6.31777L14.5547 0.798239C14.5547 0.141989 13.957-0.256448 13.4062 0.188864L10.1484 2.88418C9.64453 3.30605 9.63281 3.80996 10.1484 4.24355L13.4062 6.91543C13.9453 7.36074 14.5547 6.99746 14.5547 6.31777ZM14.4023 10.1381C14.4023 10.642 14.7891 10.935 15.2812 10.935L16.6992 10.935C19.1602 10.935 20.9883 9.36465 20.9883 6.82168C20.9883 4.30215 19.1719 2.75527 16.7109 2.75527L13.5352 2.75527C13.0898 2.75527 12.7266 3.10683 12.7266 3.55215C12.7266 3.99746 13.0898 4.36074 13.5352 4.36074L16.7109 4.36074C18.1992 4.36074 19.3359 5.18105 19.3359 6.75136C19.3359 8.35683 18.2344 9.32949 16.6992 9.32949L15.2461 9.32949C14.7891 9.32949 14.4023 9.62246 14.4023 10.1381Z" fill="black" fill-opacity="0.85"/>
 </g>
</svg>
