<?xml version="1.0" encoding="UTF-8"?>
<!--Generator: Apple Native CoreSVG 360-->
<!DOCTYPE svg
PUBLIC "-//W3C//DTD SVG 1.1//EN"
       "http://www.w3.org/Graphics/SVG/1.1/DTD/svg11.dtd">
<svg version="1.1" xmlns="http://www.w3.org/2000/svg" xmlns:xlink="http://www.w3.org/1999/xlink" viewBox="0 0 20.9648 25.3945">
 <g>
  <rect height="25.3945" opacity="0" width="20.9648" x="0" y="0"/>
  <path d="M16.4626 17.8667C16.4544 17.867 16.4462 17.8679 16.4383 17.8694C16.3312 17.8806 16.2257 17.8968 16.1218 17.9176C16.0429 17.9308 15.9654 17.9483 15.8906 17.9724L15.8906 17.4023C15.8906 15.9961 14.9062 15 12.9727 14.4492L7.07812 12.7852C4.28906 12.0117 2.82422 10.3711 2.82422 8.02734L2.82422 7.46804C2.82423 7.46804 2.82424 7.46805 2.82425 7.46805C2.89917 7.49241 2.9768 7.51003 3.05593 7.52334C3.15969 7.54433 3.26513 7.56063 3.37212 7.57183C3.37996 7.57341 3.38805 7.57424 3.39626 7.57461C3.5202 7.58742 3.64607 7.59375 3.77344 7.59375C3.90044 7.59375 4.02597 7.58745 4.14956 7.57467C4.15841 7.57429 4.16713 7.57339 4.17559 7.5717C4.28148 7.56061 4.38583 7.54449 4.48852 7.52371C4.56451 7.51116 4.63903 7.49439 4.71093 7.47107C4.71093 7.47107 4.71093 7.47107 4.71094 7.47107L4.71094 8.02734C4.71094 9.43359 5.71875 10.4531 7.64062 10.9922L13.5352 12.6562C16.3242 13.4297 17.7773 15.0703 17.7773 17.4023L17.7773 17.9696C17.7054 17.9464 17.6309 17.9297 17.5549 17.9173C17.4522 17.8966 17.3479 17.8806 17.242 17.8696C17.2335 17.8679 17.2248 17.867 17.216 17.8666C17.0924 17.8539 16.9668 17.8477 16.8398 17.8477C16.7125 17.8477 16.5866 17.8539 16.4626 17.8667Z" fill="black" fill-opacity="0.85"/>
  <path d="M3.77344 7.59375C5.85938 7.59375 7.54688 5.89453 7.54688 3.80859C7.54688 1.73438 5.85938 0.0351562 3.77344 0.0351562C1.6875 0.0351562 0 1.73438 0 3.80859C0 5.89453 1.6875 7.59375 3.77344 7.59375ZM16.8398 17.8477C14.7539 17.8477 13.0547 19.5352 13.0547 21.6328C13.0547 23.707 14.7539 25.3945 16.8398 25.3945C18.9258 25.3945 20.6133 23.707 20.6133 21.6328C20.6133 19.5352 18.9258 17.8477 16.8398 17.8477ZM16.8398 19.6875C17.918 19.6875 18.7734 20.543 18.7734 21.6328C18.7734 22.7109 17.918 23.5547 16.8398 23.5547C15.7383 23.5547 14.8945 22.7109 14.8945 21.6328C14.8945 20.543 15.7383 19.6875 16.8398 19.6875Z" fill="black" fill-opacity="0.85"/>
 </g>
</svg>
