<?xml version="1.0" encoding="UTF-8"?>
<!--Generator: Apple Native CoreSVG 360-->
<!DOCTYPE svg
PUBLIC "-//W3C//DTD SVG 1.1//EN"
       "http://www.w3.org/Graphics/SVG/1.1/DTD/svg11.dtd">
<svg version="1.1" xmlns="http://www.w3.org/2000/svg" xmlns:xlink="http://www.w3.org/1999/xlink" viewBox="0 0 28.582 23.4085">
 <g>
  <rect height="23.4085" opacity="0" width="28.582" x="0" y="0"/>
  <path d="M28.2305 14.0539C28.2305 6.67105 22.5586 0.612457 15.3398 0.00308175C14.9648-0.0320745 14.6836 0.237457 14.6836 0.612457L14.6836 4.44449C14.6836 4.76089 14.9062 5.00699 15.2227 5.03043C19.7109 5.58121 23.2031 9.41324 23.2031 14.0539C23.2031 16.1632 22.4766 18.1086 21.1992 19.7375C21.0352 19.9367 21.0469 20.1945 21.2227 20.382L24.0234 23.1711C24.2812 23.4289 24.6797 23.4289 24.9141 23.1476C26.9883 20.6867 28.2305 17.5109 28.2305 14.0539Z" fill="black" fill-opacity="0.85"/>
  <path d="M0 14.0539C0 17.5226 1.24219 20.6984 3.31641 23.1593C3.55078 23.4406 3.9375 23.4289 4.20703 23.1711L7.00781 20.382C7.18359 20.1945 7.19531 19.9367 7.03125 19.7375C5.74219 18.1086 5.02734 16.1632 5.02734 14.0539C5.02734 9.41324 8.51953 5.58121 13.0078 5.03043C13.3242 5.00699 13.5469 4.76089 13.5469 4.44449L13.5469 0.612457C13.5469 0.237457 13.2656-0.0320745 12.8906 0.00308175C5.67188 0.612457 0 6.67105 0 14.0539Z" fill="black" fill-opacity="0.85"/>
  <path d="M10.2305 18.9992L13.957 18.9992C14.2617 18.9992 14.4961 18.7882 14.4961 18.4836C14.4961 18.1906 14.2617 17.9796 13.957 17.9796L11.2852 17.9796L11.2852 17.8507L14.2148 13.1398C14.3555 12.9289 14.4492 12.7648 14.4492 12.5304C14.4492 12.2023 14.2617 11.9093 13.793 11.9093L10.1719 11.9093C9.86719 11.9093 9.63281 12.132 9.63281 12.425C9.63281 12.7179 9.86719 12.9406 10.1719 12.9406L12.9023 12.9406L12.9023 13.0695L9.84375 17.8859C9.72656 18.0734 9.63281 18.2375 9.63281 18.425C9.63281 18.7648 9.87891 18.9992 10.2305 18.9992ZM16.8281 19.1281C17.2266 19.1281 17.4727 18.8703 17.4727 18.4484L17.4727 9.69449C17.4727 9.26089 17.2266 9.00308 16.8281 9.00308C16.418 9.00308 16.1719 9.26089 16.1719 9.68277L16.1719 18.4484C16.1719 18.8703 16.418 19.1281 16.8281 19.1281ZM15.7383 15.0851L18.4805 13.632C18.7266 13.5031 18.8203 13.3156 18.8203 13.1281C18.8203 12.7882 18.457 12.4601 18.0469 12.6828L15.2578 14.1593C15.0352 14.2882 14.918 14.4875 14.918 14.6632C14.918 15.0148 15.2812 15.3195 15.7383 15.0851Z" fill="black" fill-opacity="0.85"/>
 </g>
</svg>
