<?xml version="1.0" encoding="UTF-8"?>
<!--Generator: Apple Native CoreSVG 360-->
<!DOCTYPE svg
PUBLIC "-//W3C//DTD SVG 1.1//EN"
       "http://www.w3.org/Graphics/SVG/1.1/DTD/svg11.dtd">
<svg version="1.1" xmlns="http://www.w3.org/2000/svg" xmlns:xlink="http://www.w3.org/1999/xlink" viewBox="0 0 26.5195 25.0195">
 <g>
  <rect height="25.0195" opacity="0" width="26.5195" x="0" y="0"/>
  <path d="M1.55859 22.2188L24.6094 22.2188L24.6094 21.4336C24.6094 20.9648 24.3398 20.6836 23.8594 20.6836L23.1094 20.6836L23.1094 8.03906L24.1406 8.03906C24.7852 8.03906 25.1602 7.57031 25.1602 7.08984C25.1602 6.73828 24.9609 6.43359 24.5273 6.1875L14.5195 0.410156C14.0508 0.140625 13.5586 0 13.0781 0C12.5977 0 12.0938 0.140625 11.6484 0.410156L1.64062 6.1875C1.19531 6.43359 1.00781 6.73828 1.00781 7.08984C1.00781 7.57031 1.38281 8.03906 2.02734 8.03906L3.05859 8.03906L3.05859 20.6836L2.32031 20.6836C1.83984 20.6836 1.55859 20.9648 1.55859 21.4336ZM4.82812 20.6836L4.82812 6.53906L12.6211 2.16797C12.7617 2.08594 12.9258 2.03906 13.0781 2.03906C13.2305 2.03906 13.3945 2.08594 13.5469 2.16797L21.3398 6.53906L21.3398 20.6836ZM0.9375 25.0078L25.2188 25.0078C25.7344 25.0078 26.168 24.5742 26.168 24.0586C26.168 23.543 25.7344 23.1211 25.2188 23.1211L0.9375 23.1211C0.421875 23.1211 0 23.543 0 24.0586C0 24.5742 0.421875 25.0078 0.9375 25.0078Z" fill="black" fill-opacity="0.85"/>
  <path d="M9.21094 17.1211L12.9375 17.1211C13.2539 17.1211 13.4883 16.9102 13.4883 16.6055C13.4883 16.3125 13.2539 16.1016 12.9375 16.1016L10.2773 16.1016L10.2773 15.9727L13.207 11.2617C13.3359 11.0508 13.4297 10.8867 13.4297 10.6523C13.4297 10.3242 13.2539 10.0312 12.7734 10.0312L9.15234 10.0312C8.85938 10.0312 8.625 10.2539 8.625 10.5469C8.625 10.8398 8.85938 11.0625 9.15234 11.0625L11.8945 11.0625L11.8945 11.1914L8.82422 16.0078C8.70703 16.1953 8.625 16.3594 8.625 16.5469C8.625 16.8867 8.87109 17.1211 9.21094 17.1211ZM15.8203 17.25C16.2188 17.25 16.4648 16.9922 16.4648 16.5703L16.4648 7.81641C16.4648 7.38281 16.2188 7.125 15.8203 7.125C15.4102 7.125 15.1641 7.38281 15.1641 7.80469L15.1641 16.5703C15.1641 16.9922 15.4102 17.25 15.8203 17.25ZM14.7305 13.207L17.4727 11.7539C17.7188 11.625 17.8125 11.4375 17.8125 11.25C17.8125 10.9102 17.4492 10.582 17.0391 10.8047L14.25 12.2812C14.0273 12.4102 13.9102 12.6094 13.9102 12.7852C13.9102 13.1367 14.2734 13.4414 14.7305 13.207Z" fill="black" fill-opacity="0.85"/>
 </g>
</svg>
