<?xml version="1.0" encoding="UTF-8"?>
<!--Generator: Apple Native CoreSVG 360-->
<!DOCTYPE svg
PUBLIC "-//W3C//DTD SVG 1.1//EN"
       "http://www.w3.org/Graphics/SVG/1.1/DTD/svg11.dtd">
<svg version="1.1" xmlns="http://www.w3.org/2000/svg" xmlns:xlink="http://www.w3.org/1999/xlink" viewBox="0 0 28.582 23.5195">
 <g>
  <rect height="23.5195" opacity="0" width="28.582" x="0" y="0"/>
  <path d="M28.2305 14.1094C28.2305 10.6641 26.9883 7.48828 24.9141 5.02734C24.6797 4.74609 24.2812 4.74609 24.0234 5.01562L21.3047 7.73438C21.082 7.95703 21.0703 8.27344 21.2695 8.51953C22.4766 10.0664 23.2031 12.0117 23.2031 14.1094C23.2031 16.2188 22.4766 18.1641 21.1992 19.793C21.0352 19.9922 21.0469 20.25 21.2227 20.4375L24.0117 23.2266C24.2812 23.4961 24.668 23.4961 24.9141 23.2031C26.9883 20.7422 28.2305 17.5664 28.2305 14.1094Z" fill="black" fill-opacity="0.85"/>
  <path d="M14.1094 5.02734C16.2305 5.02734 18.1758 5.76562 19.7344 6.97266C19.9688 7.16016 20.2734 7.13672 20.4961 6.91406L23.2148 4.19531C23.4844 3.92578 23.4727 3.53906 23.1914 3.30469C20.7422 1.24219 17.5664 0 14.1094 0C10.6641 0 7.48828 1.24219 5.03906 3.30469C4.75781 3.53906 4.74609 3.92578 5.01562 4.19531L7.73438 6.91406C7.95703 7.13672 8.27344 7.16016 8.53125 6.96094C10.0781 5.76562 12.0117 5.02734 14.1094 5.02734Z" fill="black" fill-opacity="0.85"/>
  <path d="M0 14.1094C0 17.5664 1.24219 20.7422 3.31641 23.2031C3.55078 23.4961 3.94922 23.4961 4.20703 23.2266L6.99609 20.4375C7.17188 20.25 7.19531 19.9922 7.03125 19.793C5.75391 18.1641 5.02734 16.2188 5.02734 14.1094C5.02734 12.0117 5.74219 10.0664 6.96094 8.51953C7.14844 8.27344 7.14844 7.95703 6.92578 7.73438L4.20703 5.01562C3.9375 4.74609 3.55078 4.74609 3.31641 5.02734C1.24219 7.48828 0 10.6641 0 14.1094Z" fill="black" fill-opacity="0.85"/>
  <path d="M10.2305 19.0547L13.957 19.0547C14.2617 19.0547 14.4961 18.8438 14.4961 18.5391C14.4961 18.2461 14.2617 18.0352 13.957 18.0352L11.2852 18.0352L11.2852 17.9062L14.2148 13.1953C14.3555 12.9844 14.4492 12.8203 14.4492 12.5859C14.4492 12.2578 14.2617 11.9648 13.793 11.9648L10.1719 11.9648C9.86719 11.9648 9.63281 12.1875 9.63281 12.4805C9.63281 12.7734 9.86719 12.9961 10.1719 12.9961L12.9023 12.9961L12.9023 13.125L9.84375 17.9414C9.72656 18.1289 9.63281 18.293 9.63281 18.4805C9.63281 18.8203 9.87891 19.0547 10.2305 19.0547ZM16.8281 19.1836C17.2266 19.1836 17.4727 18.9258 17.4727 18.5039L17.4727 9.75C17.4727 9.31641 17.2266 9.05859 16.8281 9.05859C16.418 9.05859 16.1719 9.31641 16.1719 9.73828L16.1719 18.5039C16.1719 18.9258 16.418 19.1836 16.8281 19.1836ZM15.7383 15.1406L18.4805 13.6875C18.7266 13.5586 18.8203 13.3711 18.8203 13.1836C18.8203 12.8438 18.457 12.5156 18.0469 12.7383L15.2578 14.2148C15.0352 14.3438 14.918 14.543 14.918 14.7188C14.918 15.0703 15.2812 15.375 15.7383 15.1406Z" fill="black" fill-opacity="0.85"/>
 </g>
</svg>
