<?xml version="1.0" encoding="UTF-8"?>
<!--Generator: Apple Native CoreSVG 360-->
<!DOCTYPE svg
PUBLIC "-//W3C//DTD SVG 1.1//EN"
       "http://www.w3.org/Graphics/SVG/1.1/DTD/svg11.dtd">
<svg version="1.1" xmlns="http://www.w3.org/2000/svg" xmlns:xlink="http://www.w3.org/1999/xlink" viewBox="0 0 19.8164 23.0742">
 <g>
  <rect height="23.0742" opacity="0" width="19.8164" x="0" y="0"/>
  <path d="M1.125 22.7812L10.1836 22.7812C10.7812 22.7812 11.1445 22.4062 11.1445 21.8438C11.1445 21.2812 10.7812 20.9297 10.1836 20.9297L2.75391 20.9297L2.75391 20.6836L10.6406 9.04688C10.9336 8.61328 11.0859 8.33203 11.0859 7.83984C11.0859 7.00781 10.5117 6.66797 9.85547 6.66797L0.949219 6.66797C0.386719 6.66797 0 7.06641 0 7.60547C0 8.14453 0.386719 8.53125 0.949219 8.53125L8.41406 8.53125L8.41406 8.78906L0.339844 20.6484C0.117188 20.9766 0 21.2578 0 21.668C0 22.3125 0.457031 22.7812 1.125 22.7812ZM15.9844 23.0625C16.6406 23.0625 17.1094 22.5586 17.1094 21.8672L17.1094 1.18359C17.1094 0.492188 16.6406 0 15.9844 0C15.3281 0 14.8594 0.492188 14.8594 1.18359L14.8594 21.8672C14.8594 22.5586 15.3281 23.0625 15.9844 23.0625Z" fill="black" fill-opacity="0.85"/>
 </g>
</svg>
