<?xml version="1.0" encoding="UTF-8"?>
<!--Generator: Apple Native CoreSVG 360-->
<!DOCTYPE svg
PUBLIC "-//W3C//DTD SVG 1.1//EN"
       "http://www.w3.org/Graphics/SVG/1.1/DTD/svg11.dtd">
<svg version="1.1" xmlns="http://www.w3.org/2000/svg" xmlns:xlink="http://www.w3.org/1999/xlink" viewBox="0 0 22.1484 29.6602">
 <g>
  <rect height="29.6602" opacity="0" width="22.1484" x="0" y="0"/>
  <path d="M11.7891 1.86328C12.1289 1.79297 12.5273 1.81641 12.8203 1.89844C13.3828 1.38281 14.1211 1.10156 14.918 1.10156C16.1953 1.10156 17.0977 1.86328 17.5898 3C19.4531 3.04688 20.7422 4.46484 20.7422 6.48047C20.7422 7.3537 20.4259 8.15915 19.9023 8.78145C20.6928 9.54138 21.0996 10.668 20.8359 12.0352L19.321 20.0548C18.8847 19.674 18.3251 19.4189 17.6988 19.3231L19.125 11.9414C19.4297 10.3711 18.3047 9.43359 17.0273 9.43359C15.9844 9.43359 15.1289 10.125 15.0117 11.4258L14.1353 21.1679C14.0421 21.4166 13.9854 21.6862 13.9688 21.9727C13.2689 22.1301 12.659 22.5198 12.2232 23.0524L13.2891 11.3555C13.4297 9.83203 12.4805 8.83594 10.8984 8.83594C9.31641 8.83594 8.36719 9.83203 8.50781 11.3555L9.84375 26.0156L11.6885 26.0156C11.9446 26.7766 12.4893 27.3973 13.1928 27.7617L6.28125 27.7617C4.60547 27.7617 3.75 26.8125 3.43359 25.125L0.960938 12.0352C0.708116 10.724 1.07183 9.63411 1.79647 8.87391C1.33225 8.30714 1.05469 7.57589 1.05469 6.78516C1.05469 4.99219 2.51953 3.51562 4.3125 3.57422C4.3125 2.77734 5.0625 1.95703 5.95312 2.03906C6.16406 1.01953 7.25391 0 8.91797 0C10.1719 0 11.2852 0.726562 11.7891 1.86328ZM2.67188 11.9414L5.20312 25.043C5.32031 25.6875 5.69531 26.0156 6.33984 26.0156L8.09766 26.0156L6.77344 11.4258C6.66797 10.125 5.8125 9.43359 4.76953 9.43359C3.49219 9.43359 2.36719 10.3711 2.67188 11.9414ZM7.44141 3.84375C6.24609 3.25781 5.02734 4.14844 5.19141 5.34375C3.92578 4.94531 2.73047 5.68359 2.73047 6.78516C2.73047 7.25773 2.93303 7.67555 3.25226 7.94862C3.7191 7.77643 4.2335 7.6875 4.76953 7.6875C5.82422 7.6875 6.75 8.10938 7.40625 8.87109C8.0625 7.79297 9.32812 7.08984 10.8984 7.08984C12.4688 7.08984 13.7344 7.79297 14.3906 8.87109C15.0469 8.10938 15.9727 7.6875 17.0273 7.6875C17.5078 7.6875 17.9709 7.75896 18.3978 7.8981C18.7987 7.58283 19.0664 7.10697 19.0664 6.59766C19.0664 5.23828 18.0234 4.58203 16.5703 4.81641C16.6055 3.64453 16.0547 2.80078 15 2.80078C14.2617 2.80078 13.6289 3.21094 13.3242 3.91406C12.6797 3.42188 11.4023 3.31641 10.6406 3.82031C10.8281 2.42578 9.86719 1.69922 8.91797 1.69922C7.94531 1.69922 7.07812 2.47266 7.44141 3.84375Z" fill="black" fill-opacity="0.85"/>
  <path d="M17.1211 29.6367C18.2578 29.6367 19.3008 28.9922 19.8047 28.0078C21.1992 27.6797 22.1484 26.4492 22.1484 25.0195C22.1484 23.7305 21.3633 22.6406 20.2734 22.0898C20.2148 20.4023 18.832 19.2773 17.1211 19.2773C15.4336 19.2773 14.0625 20.3555 13.9688 21.9727C12.5625 22.2891 11.5195 23.543 11.5195 25.0078C11.5195 26.6602 12.7852 27.9727 14.3906 28.1133C14.9297 29.0156 15.9727 29.6367 17.1211 29.6367ZM17.1211 28.125C16.2188 28.125 15.375 27.5625 15.4336 26.5078C14.2383 26.8828 13.0195 26.2617 13.0195 25.0078C13.0195 23.7305 14.0273 23.0156 15.4922 23.2617C15.1172 22.1719 15.6914 20.7891 17.1211 20.7891C18.5039 20.7891 19.1602 22.1133 18.7852 23.3438C19.875 23.2266 20.6016 23.9297 20.6016 25.0781C20.6016 26.0859 19.8984 26.6836 18.7148 26.5781C18.7617 27.4805 17.9414 28.125 17.1211 28.125Z" fill="black" fill-opacity="0.85"/>
 </g>
</svg>
