<?xml version="1.0" encoding="UTF-8"?>
<!--Generator: Apple Native CoreSVG 360-->
<!DOCTYPE svg
PUBLIC "-//W3C//DTD SVG 1.1//EN"
       "http://www.w3.org/Graphics/SVG/1.1/DTD/svg11.dtd">
<svg version="1.1" xmlns="http://www.w3.org/2000/svg" xmlns:xlink="http://www.w3.org/1999/xlink" viewBox="0 0 26.0663 22.6055">
 <g>
  <rect height="22.6055" opacity="0" width="26.0663" x="0" y="0"/>
  <path d="M12.8574 0C6.4472 0 1.11517 4.61719 0.0253271 10.7109C-0.103579 11.3438 0.271421 11.8711 0.880796 11.9297C1.41986 11.9883 1.92376 11.5547 2.04095 10.9336C2.99017 5.80078 7.41986 1.99219 12.8574 1.99219C19.0214 1.99219 23.8847 6.87891 23.8847 13.043C23.8847 16.0195 22.7363 18.7617 20.8495 20.7305C20.3808 21.2344 20.3105 21.8672 20.6738 22.2305C21.1191 22.6406 21.7402 22.6172 22.1386 22.2188C24.4824 19.8516 25.912 16.5938 25.912 13.043C25.912 5.83594 20.0761 0 12.8574 0Z" fill="black" fill-opacity="0.85"/>
  <path d="M5.05267 22.2305C5.41595 21.8672 5.33392 21.2344 4.86517 20.7305C3.43548 19.2422 2.42767 17.2969 2.04095 15.1523C1.92376 14.543 1.41986 14.1094 0.880796 14.1445C0.271421 14.2148-0.103579 14.7422 0.0253271 15.375C0.494077 18.0117 1.7597 20.3789 3.58783 22.2188C3.98626 22.6172 4.60736 22.6406 5.05267 22.2305Z" fill="black" fill-opacity="0.85"/>
  <path d="M11.4745 14.707C12.3183 15.5508 13.537 15.5508 14.3808 14.707C15.2245 13.8633 15.2245 12.6445 14.3808 11.8008C14.2285 11.6367 13.8886 11.3906 13.6777 11.25L7.43158 6.91406C7.11517 6.69141 6.81048 6.76172 6.62298 6.9375C6.43548 7.13672 6.36517 7.42969 6.58783 7.75781L10.9238 14.0039C11.0644 14.2148 11.3105 14.543 11.4745 14.707Z" fill="black" fill-opacity="0.85"/>
 </g>
</svg>
