<?xml version="1.0" encoding="UTF-8"?>
<!--Generator: Apple Native CoreSVG 360-->
<!DOCTYPE svg
PUBLIC "-//W3C//DTD SVG 1.1//EN"
       "http://www.w3.org/Graphics/SVG/1.1/DTD/svg11.dtd">
<svg version="1.1" xmlns="http://www.w3.org/2000/svg" xmlns:xlink="http://www.w3.org/1999/xlink" viewBox="0 0 22.6641 21.5977">
 <g>
  <rect height="21.5977" opacity="0" width="22.6641" x="0" y="0"/>
  <path d="M3.67969 21.5977L18.6328 21.5977C21.082 21.5977 22.3125 20.3789 22.3125 17.9648L22.3125 3.65625C22.3125 1.24219 21.082 0.0234375 18.6328 0.0234375L3.67969 0.0234375C1.23047 0.0234375 0 1.23047 0 3.65625L0 17.9648C0 20.3906 1.23047 21.5977 3.67969 21.5977ZM3.70312 19.7109C2.53125 19.7109 1.88672 19.0898 1.88672 17.8711L1.88672 3.75C1.88672 2.53125 2.53125 1.91016 3.70312 1.91016L18.5977 1.91016C19.7578 1.91016 20.4258 2.53125 20.4258 3.75L20.4258 17.8711C20.4258 19.0898 19.7578 19.7109 18.5977 19.7109Z" fill="black" fill-opacity="0.85"/>
  <path d="M7.14844 15.6797C8.10938 15.6797 8.89453 14.8945 8.89453 13.9219C8.89453 12.9609 8.10938 12.1641 7.14844 12.1641C6.16406 12.1641 5.37891 12.9609 5.37891 13.9219C5.37891 14.8945 6.16406 15.6797 7.14844 15.6797ZM15.1758 15.6797C16.1367 15.6797 16.9336 14.8945 16.9336 13.9219C16.9336 12.9609 16.1367 12.1641 15.1758 12.1641C14.2031 12.1641 13.418 12.9609 13.418 13.9219C13.418 14.8945 14.2031 15.6797 15.1758 15.6797ZM11.1562 9.42188C12.1172 9.42188 12.9141 8.63672 12.9141 7.66406C12.9141 6.69141 12.1172 5.90625 11.1562 5.90625C10.1836 5.90625 9.38672 6.69141 9.38672 7.66406C9.38672 8.63672 10.1836 9.42188 11.1562 9.42188Z" fill="black" fill-opacity="0.85"/>
 </g>
</svg>
