<?xml version="1.0" encoding="UTF-8"?>
<!--Generator: Apple Native CoreSVG 360-->
<!DOCTYPE svg
PUBLIC "-//W3C//DTD SVG 1.1//EN"
       "http://www.w3.org/Graphics/SVG/1.1/DTD/svg11.dtd">
<svg version="1.1" xmlns="http://www.w3.org/2000/svg" xmlns:xlink="http://www.w3.org/1999/xlink" viewBox="0 0 29.5781 18.457">
 <g>
  <rect height="18.457" opacity="0" width="29.5781" x="0" y="0"/>
  <path d="M0 10.6875C0 12.2812 0.890625 13.1602 2.48438 13.1602L7.55859 13.1602C8.83594 13.1602 9.49219 13.793 10.3945 15.0117C12 17.1914 14.4844 18.3281 17.0742 18.3281L20.2852 18.3281C21.8672 18.3281 22.5234 17.4609 22.5234 15.8672L22.5234 14.707L27.5859 14.707C28.5 14.707 29.2266 13.9805 29.2266 13.0898C29.2266 12.1641 28.5 11.4375 27.5859 11.4375L22.5234 11.4375L22.5234 6.89062L27.5859 6.89062C28.5 6.89062 29.2266 6.15234 29.2266 5.26172C29.2266 4.35938 28.5 3.62109 27.5859 3.62109L22.5234 3.62109L22.5234 2.4375C22.5234 0.84375 21.8672 0 20.2852 0L17.0742 0C14.4844 0 12 1.11328 10.3945 3.31641C9.49219 4.54688 8.83594 5.16797 7.55859 5.16797L2.48438 5.16797C0.902344 5.16797 0 6.01172 0 7.64062ZM1.88672 10.6875L1.88672 7.64062C1.88672 7.30078 2.14453 7.05469 2.48438 7.05469L7.55859 7.05469C9.46875 7.05469 10.6406 6.15234 11.918 4.44141C13.207 2.66016 14.9062 1.88672 17.0742 1.88672L20.0508 1.88672C20.3906 1.88672 20.6367 2.12109 20.6367 2.4375L20.6367 15.8672C20.6367 16.1953 20.3906 16.4414 20.0508 16.4414L17.0742 16.4414C14.918 16.4414 13.207 15.6562 11.918 13.8867C10.6523 12.1758 9.48047 11.2734 7.55859 11.2734L2.48438 11.2734C2.14453 11.2734 1.88672 11.0273 1.88672 10.6875Z" fill="black" fill-opacity="0.85"/>
 </g>
</svg>
