<?xml version="1.0" encoding="UTF-8"?>
<!--Generator: Apple Native CoreSVG 360-->
<!DOCTYPE svg
PUBLIC "-//W3C//DTD SVG 1.1//EN"
       "http://www.w3.org/Graphics/SVG/1.1/DTD/svg11.dtd">
<svg version="1.1" xmlns="http://www.w3.org/2000/svg" xmlns:xlink="http://www.w3.org/1999/xlink" viewBox="0 0 22.6641 21.5977">
 <g>
  <rect height="21.5977" opacity="0" width="22.6641" x="0" y="0"/>
  <path d="M3.67969 21.5977L18.6328 21.5977C21.082 21.5977 22.3125 20.3789 22.3125 17.9648L22.3125 3.65625C22.3125 1.24219 21.082 0.0234375 18.6328 0.0234375L3.67969 0.0234375C1.23047 0.0234375 0 1.23047 0 3.65625L0 17.9648C0 20.3906 1.23047 21.5977 3.67969 21.5977ZM3.70312 19.7109C2.53125 19.7109 1.88672 19.0898 1.88672 17.8711L1.88672 3.75C1.88672 2.53125 2.53125 1.91016 3.70312 1.91016L18.5977 1.91016C19.7578 1.91016 20.4258 2.53125 20.4258 3.75L20.4258 17.8711C20.4258 19.0898 19.7578 19.7109 18.5977 19.7109Z" fill="black" fill-opacity="0.85"/>
  <path d="M11.1562 9.375C12.3633 9.375 13.3359 8.40234 13.3359 7.19531C13.3359 5.98828 12.3633 5.01562 11.1562 5.01562C9.94922 5.01562 8.97656 5.98828 8.97656 7.19531C8.97656 8.40234 9.94922 9.375 11.1562 9.375ZM7.14844 16.582C8.10938 16.582 8.89453 15.7969 8.89453 14.8125C8.89453 13.8516 8.10938 13.0664 7.14844 13.0664C6.16406 13.0664 5.37891 13.8516 5.37891 14.8125C5.37891 15.7969 6.16406 16.582 7.14844 16.582ZM15.1758 16.582C16.1367 16.582 16.9336 15.7969 16.9336 14.8125C16.9336 13.8516 16.1367 13.0664 15.1758 13.0664C14.2031 13.0664 13.418 13.8516 13.418 14.8125C13.418 15.7969 14.2031 16.582 15.1758 16.582Z" fill="black" fill-opacity="0.85"/>
 </g>
</svg>
