<?xml version="1.0" encoding="UTF-8"?>
<!--Generator: Apple Native CoreSVG 360-->
<!DOCTYPE svg
PUBLIC "-//W3C//DTD SVG 1.1//EN"
       "http://www.w3.org/Graphics/SVG/1.1/DTD/svg11.dtd">
<svg version="1.1" xmlns="http://www.w3.org/2000/svg" xmlns:xlink="http://www.w3.org/1999/xlink" viewBox="0 0 23.6367 24.3867">
 <g>
  <rect height="24.3867" opacity="0" width="23.6367" x="0" y="0"/>
  <path d="M11.6484 2.4375C12.3164 2.4375 12.8555 1.88672 12.8555 1.21875C12.8555 0.539062 12.3164 0 11.6484 0C10.9688 0 10.4297 0.539062 10.4297 1.21875C10.4297 1.88672 10.9688 2.4375 11.6484 2.4375ZM11.6484 7.875C12.3164 7.875 12.8555 7.33594 12.8555 6.66797C12.8555 5.98828 12.3164 5.44922 11.6484 5.44922C10.9688 5.44922 10.4297 5.98828 10.4297 6.66797C10.4297 7.33594 10.9688 7.875 11.6484 7.875ZM11.6484 13.3359C12.3164 13.3359 12.8555 12.7852 12.8555 12.1172C12.8555 11.4375 12.3164 10.8984 11.6484 10.8984C10.9688 10.8984 10.4297 11.4375 10.4297 12.1172C10.4297 12.7852 10.9688 13.3359 11.6484 13.3359ZM3.45703 7.27734C4.13672 7.27734 4.67578 6.73828 4.67578 6.05859C4.67578 5.39062 4.13672 4.85156 3.45703 4.85156C2.77734 4.85156 2.23828 5.39062 2.23828 6.05859C2.23828 6.73828 2.77734 7.27734 3.45703 7.27734ZM1.21875 12.6445C1.89844 12.6445 2.4375 12.1055 2.4375 11.4375C2.4375 10.7578 1.89844 10.2188 1.21875 10.2188C0.539062 10.2188 0 10.7578 0 11.4375C0 12.1055 0.539062 12.6445 1.21875 12.6445ZM2.10938 18.1055C2.78906 18.1055 3.32812 17.5664 3.32812 16.8984C3.32812 16.2188 2.78906 15.6797 2.10938 15.6797C1.42969 15.6797 0.890625 16.2188 0.890625 16.8984C0.890625 17.5664 1.42969 18.1055 2.10938 18.1055ZM5.85938 22.6172C6.52734 22.6172 7.07812 22.0781 7.07812 21.4102C7.07812 20.7305 6.52734 20.1914 5.85938 20.1914C5.17969 20.1914 4.64062 20.7305 4.64062 21.4102C4.64062 22.0781 5.17969 22.6172 5.85938 22.6172ZM11.6484 24.3398C12.3164 24.3398 12.8555 23.8008 12.8555 23.1211C12.8555 22.4414 12.3164 21.9023 11.6484 21.9023C10.9688 21.9023 10.4297 22.4414 10.4297 23.1211C10.4297 23.8008 10.9688 24.3398 11.6484 24.3398ZM17.4258 22.6172C18.1055 22.6172 18.6445 22.0781 18.6445 21.4102C18.6445 20.7305 18.1055 20.1914 17.4258 20.1914C16.7578 20.1914 16.2188 20.7305 16.2188 21.4102C16.2188 22.0781 16.7578 22.6172 17.4258 22.6172ZM21.1758 18.1055C21.8555 18.1055 22.3945 17.5664 22.3945 16.8984C22.3945 16.2188 21.8555 15.6797 21.1758 15.6797C20.4961 15.6797 19.957 16.2188 19.957 16.8984C19.957 17.5664 20.4961 18.1055 21.1758 18.1055ZM22.0664 12.6445C22.7461 12.6445 23.2852 12.1055 23.2852 11.4375C23.2852 10.7578 22.7461 10.2188 22.0664 10.2188C21.3984 10.2188 20.8477 10.7578 20.8477 11.4375C20.8477 12.1055 21.3984 12.6445 22.0664 12.6445ZM19.8281 7.27734C20.5078 7.27734 21.0469 6.73828 21.0469 6.05859C21.0469 5.39062 20.5078 4.85156 19.8281 4.85156C19.1484 4.85156 18.6094 5.39062 18.6094 6.05859C18.6094 6.73828 19.1484 7.27734 19.8281 7.27734Z" fill="black" fill-opacity="0.85"/>
 </g>
</svg>
