<?xml version="1.0" encoding="UTF-8"?>
<!--Generator: Apple Native CoreSVG 360-->
<!DOCTYPE svg
PUBLIC "-//W3C//DTD SVG 1.1//EN"
       "http://www.w3.org/Graphics/SVG/1.1/DTD/svg11.dtd">
<svg version="1.1" xmlns="http://www.w3.org/2000/svg" xmlns:xlink="http://www.w3.org/1999/xlink" viewBox="0 0 22.6641 21.5977">
 <g>
  <rect height="21.5977" opacity="0" width="22.6641" x="0" y="0"/>
  <path d="M3.67969 21.5977L18.6328 21.5977C21.082 21.5977 22.3125 20.3789 22.3125 17.9648L22.3125 3.65625C22.3125 1.24219 21.082 0.0234375 18.6328 0.0234375L3.67969 0.0234375C1.23047 0.0234375 0 1.23047 0 3.65625L0 17.9648C0 20.3906 1.23047 21.5977 3.67969 21.5977ZM3.70312 19.7109C2.53125 19.7109 1.88672 19.0898 1.88672 17.8711L1.88672 3.75C1.88672 2.53125 2.53125 1.91016 3.70312 1.91016L18.5977 1.91016C19.7578 1.91016 20.4258 2.53125 20.4258 3.75L20.4258 17.8711C20.4258 19.0898 19.7578 19.7109 18.5977 19.7109Z" fill="black" fill-opacity="0.85"/>
  <path d="M7.08984 10.6875C7.66406 10.6875 8.13281 10.2422 8.13281 9.64453L8.13281 6.01172C8.13281 5.4375 7.66406 4.96875 7.08984 4.96875C6.50391 4.96875 6.05859 5.4375 6.05859 6.01172L6.05859 9.64453C6.05859 10.2422 6.50391 10.6875 7.08984 10.6875ZM9.76172 17.3086L12.5508 17.3086C12.9141 17.3086 13.1016 17.1328 13.1016 16.7695L13.1016 15.4453C13.1016 14.3555 12.2461 13.4883 11.1562 13.4883C10.0547 13.4883 9.21094 14.3555 9.21094 15.4453L9.21094 16.7695C9.21094 17.1328 9.39844 17.3086 9.76172 17.3086ZM15.1992 10.6875C15.7852 10.6875 16.2539 10.2422 16.2539 9.64453L16.2539 6.01172C16.2539 5.4375 15.7852 4.96875 15.1992 4.96875C14.6133 4.96875 14.168 5.4375 14.168 6.01172L14.168 9.64453C14.168 10.2422 14.6133 10.6875 15.1992 10.6875Z" fill="black" fill-opacity="0.85"/>
 </g>
</svg>
