<?xml version="1.0" encoding="UTF-8"?>
<!--Generator: Apple Native CoreSVG 360-->
<!DOCTYPE svg
PUBLIC "-//W3C//DTD SVG 1.1//EN"
       "http://www.w3.org/Graphics/SVG/1.1/DTD/svg11.dtd">
<svg version="1.1" xmlns="http://www.w3.org/2000/svg" xmlns:xlink="http://www.w3.org/1999/xlink" viewBox="0 0 28.875 20.0508">
 <g>
  <rect height="20.0508" opacity="0" width="28.875" x="0" y="0"/>
  <path d="M20.1914 12.9961L22.9453 12.9961C23.5078 12.9961 23.8711 12.6328 23.8711 12.082L23.8711 0.902344C23.8711 0.363281 23.5078 0 22.9453 0L20.1914 0C18.3398 0 16.6406 0.761719 15.3867 2.32031C14.8945 2.90625 14.7656 3 14.0977 3L11.4492 3C10.3242 3 9.52734 3.72656 9.52734 4.78125L9.52734 8.21484C9.52734 9.25781 10.3242 9.99609 11.4492 9.99609L14.0977 9.99609C14.7656 9.99609 14.8945 10.0898 15.3867 10.6523C16.6523 12.2227 18.3516 12.9961 20.1914 12.9961ZM20.1914 11.2266C18.7969 11.2266 17.7422 10.7344 16.7695 9.5625C15.9844 8.60156 15.293 8.22656 14.0977 8.22656L11.8008 8.22656C11.4961 8.22656 11.2969 8.03906 11.2969 7.74609L11.2969 5.17969C11.2969 4.92188 11.4492 4.76953 11.7305 4.76953L14.0977 4.76953C15.293 4.76953 15.9844 4.40625 16.7695 3.42188C17.7422 2.25 18.7852 1.76953 20.1914 1.76953L21.6797 1.76953C21.9492 1.76953 22.1016 1.91016 22.1016 2.15625L22.1016 10.8164C22.1016 11.0742 21.9492 11.2266 21.6797 11.2266ZM23.5195 5.14453L27.4102 5.14453C28.0312 5.14453 28.5234 4.66406 28.5234 4.03125C28.5234 3.41016 28.0312 2.91797 27.4102 2.91797L23.5195 2.91797ZM23.5195 10.0781L27.4102 10.0781C28.0312 10.0781 28.5234 9.57422 28.5234 8.96484C28.5234 8.33203 28.0312 7.83984 27.4102 7.83984L23.5195 7.83984ZM0 20.0391L9.67969 20.0391C12.4219 20.0391 14.1914 18.3398 14.1914 15.9609C14.1914 13.5703 12.4219 11.8477 9.67969 11.8477L4.38281 11.8477C2.8125 11.8477 1.88672 10.9219 1.88672 9.62109C1.88672 8.33203 2.83594 7.42969 4.38281 7.42969L10.4062 7.42969L10.4062 5.54297L4.51172 5.54297C1.75781 5.54297 0 7.24219 0 9.62109C0 12.0117 1.75781 13.7344 4.51172 13.7344L9.80859 13.7344C11.3789 13.7344 12.3047 14.6602 12.3047 15.9609C12.3047 17.25 11.3555 18.1523 9.80859 18.1523L0 18.1523Z" fill="black" fill-opacity="0.85"/>
 </g>
</svg>
