<?xml version="1.0" encoding="UTF-8"?>
<!--Generator: Apple Native CoreSVG 360-->
<!DOCTYPE svg
PUBLIC "-//W3C//DTD SVG 1.1//EN"
       "http://www.w3.org/Graphics/SVG/1.1/DTD/svg11.dtd">
<svg version="1.1" xmlns="http://www.w3.org/2000/svg" xmlns:xlink="http://www.w3.org/1999/xlink" viewBox="0 0 17.2383 26.7773">
 <g>
  <rect height="26.7773" opacity="0" width="17.2383" x="0" y="0"/>
  <path d="M7.04297 26.7539L9.83203 26.7539C11.332 26.7539 12.1875 25.9102 12.1875 24.3984L12.1875 19.7812C12.1875 18.6445 12.7266 18.082 13.8281 17.2617C15.832 15.7852 16.8867 13.4883 16.8867 11.0977L16.8867 8.13281C16.8867 6.65625 16.043 6 14.5664 6L13.4883 6L13.4883 1.5C13.4883 0.667969 12.8438 0 12.0234 0C11.1914 0 10.5234 0.667969 10.5234 1.5L10.5234 6L6.36328 6L6.36328 1.5C6.36328 0.667969 5.69531 0 4.88672 0C4.05469 0 3.38672 0.667969 3.38672 1.5L3.38672 6L2.29688 6C0.808594 6 0 6.65625 0 8.13281L0 11.0977C0 13.4883 1.03125 15.7852 3.05859 17.2617C4.16016 18.082 4.71094 18.6445 4.71094 19.7812L4.71094 24.3984C4.71094 25.8984 5.51953 26.7539 7.04297 26.7539ZM7.04297 24.8672C6.77344 24.8672 6.59766 24.6797 6.59766 24.3984L6.59766 19.7812C6.59766 18 5.75391 16.9102 4.17188 15.7383C2.56641 14.5547 1.88672 13.0547 1.88672 11.0977L1.88672 8.34375C1.88672 8.07422 2.03906 7.89844 2.29688 7.89844L14.5664 7.89844C14.8242 7.89844 15 8.07422 15 8.34375L15 11.0977C15 13.043 14.3086 14.5547 12.7031 15.7383C11.1328 16.8984 10.3008 18 10.3008 19.7812L10.3008 24.3984C10.3008 24.6797 10.1133 24.8672 9.83203 24.8672Z" fill="black" fill-opacity="0.85"/>
 </g>
</svg>
