<?xml version="1.0" encoding="UTF-8"?>
<!--Generator: Apple Native CoreSVG 360-->
<!DOCTYPE svg
PUBLIC "-//W3C//DTD SVG 1.1//EN"
       "http://www.w3.org/Graphics/SVG/1.1/DTD/svg11.dtd">
<svg version="1.1" xmlns="http://www.w3.org/2000/svg" xmlns:xlink="http://www.w3.org/1999/xlink" viewBox="0 0 24.2578 23.918">
 <g>
  <rect height="23.918" opacity="0" width="24.2578" x="0" y="0"/>
  <path d="M11.9531 23.9062C18.5508 23.9062 23.9062 18.5508 23.9062 11.9531C23.9062 5.35547 18.5508 0 11.9531 0C5.35547 0 0 5.35547 0 11.9531C0 18.5508 5.35547 23.9062 11.9531 23.9062ZM11.9531 21.9141C6.44531 21.9141 1.99219 17.4609 1.99219 11.9531C1.99219 6.44531 6.44531 1.99219 11.9531 1.99219C17.4609 1.99219 21.9141 6.44531 21.9141 11.9531C21.9141 17.4609 17.4609 21.9141 11.9531 21.9141Z" fill="black" fill-opacity="0.85"/>
  <path d="M7.17188 14.168C8.40234 14.168 9.38672 13.1719 9.38672 11.9531C9.38672 10.7344 8.40234 9.73828 7.17188 9.73828C5.95312 9.73828 4.96875 10.7344 4.96875 11.9531C4.96875 13.1719 5.95312 14.168 7.17188 14.168ZM16.7344 14.168C17.9531 14.168 18.9375 13.1719 18.9375 11.9531C18.9375 10.7344 17.9531 9.73828 16.7344 9.73828C15.5039 9.73828 14.5195 10.7344 14.5195 11.9531C14.5195 13.1719 15.5039 14.168 16.7344 14.168ZM10.5586 16.3125C10.1953 16.3125 10.0078 16.4883 10.0078 16.8516L10.0078 17.707C10.0078 18.7969 10.8516 19.6523 11.9531 19.6523C13.043 19.6523 13.8984 18.7852 13.8984 17.707L13.8984 16.8516C13.8984 16.4883 13.7109 16.3125 13.3477 16.3125Z" fill="black" fill-opacity="0.85"/>
 </g>
</svg>
