<?xml version="1.0" encoding="UTF-8"?>
<!--Generator: Apple Native CoreSVG 360-->
<!DOCTYPE svg
PUBLIC "-//W3C//DTD SVG 1.1//EN"
       "http://www.w3.org/Graphics/SVG/1.1/DTD/svg11.dtd">
<svg version="1.1" xmlns="http://www.w3.org/2000/svg" xmlns:xlink="http://www.w3.org/1999/xlink" viewBox="0 0 24.2578 23.918">
 <g>
  <rect height="23.918" opacity="0" width="24.2578" x="0" y="0"/>
  <path d="M11.9531 23.9062C18.5508 23.9062 23.9062 18.5508 23.9062 11.9531C23.9062 5.35547 18.5508 0 11.9531 0C5.35547 0 0 5.35547 0 11.9531C0 18.5508 5.35547 23.9062 11.9531 23.9062ZM11.9531 21.9141C6.44531 21.9141 1.99219 17.4609 1.99219 11.9531C1.99219 6.44531 6.44531 1.99219 11.9531 1.99219C17.4609 1.99219 21.9141 6.44531 21.9141 11.9531C21.9141 17.4609 17.4609 21.9141 11.9531 21.9141Z" fill="black" fill-opacity="0.85"/>
  <path d="M6.87891 13.6055C8.10938 13.6055 9.09375 12.6094 9.09375 11.3906C9.09375 10.1719 8.10938 9.17578 6.87891 9.17578C5.66016 9.17578 4.67578 10.1719 4.67578 11.3906C4.67578 12.6094 5.66016 13.6055 6.87891 13.6055ZM17.0273 13.6055C18.2461 13.6055 19.2305 12.6094 19.2305 11.3906C19.2305 10.1719 18.2461 9.17578 17.0273 9.17578C15.7969 9.17578 14.8125 10.1719 14.8125 11.3906C14.8125 12.6094 15.7969 13.6055 17.0273 13.6055ZM11.9531 19.0664C13.1719 19.0664 14.168 18.082 14.168 16.8633C14.168 15.6328 13.1719 14.6484 11.9531 14.6484C10.7344 14.6484 9.73828 15.6328 9.73828 16.8633C9.73828 18.082 10.7344 19.0664 11.9531 19.0664Z" fill="black" fill-opacity="0.85"/>
 </g>
</svg>
