<?xml version="1.0" encoding="UTF-8"?>
<!--Generator: Apple Native CoreSVG 360-->
<!DOCTYPE svg
PUBLIC "-//W3C//DTD SVG 1.1//EN"
       "http://www.w3.org/Graphics/SVG/1.1/DTD/svg11.dtd">
<svg version="1.1" xmlns="http://www.w3.org/2000/svg" xmlns:xlink="http://www.w3.org/1999/xlink" viewBox="0 0 25.4648 20.168">
 <g>
  <rect height="20.168" opacity="0" width="25.4648" x="0" y="0"/>
  <path d="M6.21094 20.1445L18.8906 20.1445C19.7461 20.1445 20.543 19.8516 21.1289 19.2891C23.6367 16.9102 25.1133 13.4648 25.1133 10.0781C25.1133 6.69141 23.6367 3.24609 21.1289 0.867188C20.543 0.304688 19.7461 0 18.8906 0L6.21094 0C5.32031 0 4.47656 0.339844 3.86719 0.960938C1.45312 3.32812 0 6.73828 0 10.0781C0 13.4648 1.47656 16.9102 3.98438 19.2891C4.57031 19.8516 5.35547 20.1445 6.21094 20.1445ZM6.21094 18.3164C5.8125 18.3164 5.51953 18.2109 5.28516 17.9766C3.16406 15.9727 1.88672 13.0312 1.88672 10.1367C1.88672 7.24219 3.17578 4.26562 5.30859 2.27344C5.54297 2.05078 5.82422 1.94531 6.21094 1.94531L18.8906 1.94531C19.2891 1.94531 19.5938 2.0625 19.8281 2.29688C21.9375 4.30078 23.2266 7.24219 23.2266 10.1367C23.2266 13.0312 21.9375 15.9727 19.8281 17.9766C19.5938 18.2109 19.2891 18.3164 18.8906 18.3164Z" fill="black" fill-opacity="0.85"/>
  <path d="M7.66406 14.8125C8.23828 14.8125 8.70703 14.3789 8.70703 13.793L8.70703 6.49219C8.70703 5.90625 8.23828 5.4375 7.66406 5.4375C7.07812 5.4375 6.64453 5.90625 6.64453 6.49219L6.64453 13.793C6.64453 14.3789 7.07812 14.8125 7.66406 14.8125ZM17.4375 14.8125C18.0234 14.8125 18.4688 14.3672 18.4688 13.7812L18.4688 6.49219C18.4688 5.90625 18.0234 5.4375 17.4375 5.4375C16.8516 5.4375 16.4062 5.90625 16.4062 6.49219L16.4062 13.7812C16.4062 14.3555 16.8516 14.8125 17.4375 14.8125Z" fill="black" fill-opacity="0.85"/>
 </g>
</svg>
