<?xml version="1.0" encoding="UTF-8"?>
<!--Generator: Apple Native CoreSVG 360-->
<!DOCTYPE svg
PUBLIC "-//W3C//DTD SVG 1.1//EN"
       "http://www.w3.org/Graphics/SVG/1.1/DTD/svg11.dtd">
<svg version="1.1" xmlns="http://www.w3.org/2000/svg" xmlns:xlink="http://www.w3.org/1999/xlink" viewBox="0 0 13.3594 25.582">
 <g>
  <rect height="25.582" opacity="0" width="13.3594" x="0" y="0"/>
  <path d="M3.60938 25.5703L9.39844 25.5703C11.7773 25.5703 13.0078 24.3516 13.0078 22.0078L13.0078 3.57422C13.0078 1.23047 11.7773 0 9.39844 0L3.60938 0C1.24219 0 0 1.23047 0 3.57422L0 22.0078C0 24.3516 1.24219 25.5703 3.60938 25.5703ZM3.64453 23.6836C2.54297 23.6836 1.88672 23.0508 1.88672 21.9141L1.88672 3.66797C1.88672 2.51953 2.54297 1.88672 3.64453 1.88672L9.36328 1.88672C10.4648 1.88672 11.1211 2.51953 11.1211 3.66797L11.1211 21.9141C11.1211 23.0508 10.4648 23.6836 9.36328 23.6836Z" fill="black" fill-opacity="0.85"/>
  <path d="M6.51562 8.22656C7.47656 8.22656 8.27344 7.44141 8.27344 6.45703C8.27344 5.49609 7.47656 4.71094 6.51562 4.71094C5.54297 4.71094 4.74609 5.49609 4.74609 6.45703C4.74609 7.44141 5.54297 8.22656 6.51562 8.22656ZM6.51562 14.543C7.47656 14.543 8.27344 13.7578 8.27344 12.7852C8.27344 11.8242 7.47656 11.0273 6.51562 11.0273C5.54297 11.0273 4.74609 11.8242 4.74609 12.7852C4.74609 13.7578 5.54297 14.543 6.51562 14.543ZM6.51562 20.8711C7.47656 20.8711 8.27344 20.0742 8.27344 19.1016C8.27344 18.1406 7.47656 17.3555 6.51562 17.3555C5.54297 17.3555 4.74609 18.1406 4.74609 19.1016C4.74609 20.0742 5.54297 20.8711 6.51562 20.8711Z" fill="black" fill-opacity="0.85"/>
 </g>
</svg>
