<?xml version="1.0" encoding="UTF-8"?>
<!--Generator: Apple Native CoreSVG 360-->
<!DOCTYPE svg
PUBLIC "-//W3C//DTD SVG 1.1//EN"
       "http://www.w3.org/Graphics/SVG/1.1/DTD/svg11.dtd">
<svg version="1.1" xmlns="http://www.w3.org/2000/svg" xmlns:xlink="http://www.w3.org/1999/xlink" viewBox="0 0 24.2578 23.918">
 <g>
  <rect height="23.918" opacity="0" width="24.2578" x="0" y="0"/>
  <path d="M11.9531 23.9062C18.5508 23.9062 23.9062 18.5508 23.9062 11.9531C23.9062 5.35547 18.5508 0 11.9531 0C5.35547 0 0 5.35547 0 11.9531C0 18.5508 5.35547 23.9062 11.9531 23.9062ZM11.9531 21.9141C6.44531 21.9141 1.99219 17.4609 1.99219 11.9531C1.99219 6.44531 6.44531 1.99219 11.9531 1.99219C17.4609 1.99219 21.9141 6.44531 21.9141 11.9531C21.9141 17.4609 17.4609 21.9141 11.9531 21.9141Z" fill="black" fill-opacity="0.85"/>
  <path d="M11.9531 8.00391C12.7734 8.00391 13.4531 7.32422 13.4531 6.50391C13.4531 5.68359 12.7734 5.00391 11.9531 5.00391C11.1328 5.00391 10.4531 5.68359 10.4531 6.50391C10.4531 7.32422 11.1328 8.00391 11.9531 8.00391ZM6.82031 14.168C8.05078 14.168 9.03516 13.1719 9.03516 11.9531C9.03516 10.7344 8.05078 9.73828 6.82031 9.73828C5.60156 9.73828 4.61719 10.7344 4.61719 11.9531C4.61719 13.1719 5.60156 14.168 6.82031 14.168ZM17.0859 14.168C18.3047 14.168 19.2891 13.1719 19.2891 11.9531C19.2891 10.7344 18.3047 9.73828 17.0859 9.73828C15.8555 9.73828 14.8711 10.7344 14.8711 11.9531C14.8711 13.1719 15.8555 14.168 17.0859 14.168Z" fill="black" fill-opacity="0.85"/>
 </g>
</svg>
