<?xml version="1.0" encoding="UTF-8"?>
<!--Generator: Apple Native CoreSVG 360-->
<!DOCTYPE svg
PUBLIC "-//W3C//DTD SVG 1.1//EN"
       "http://www.w3.org/Graphics/SVG/1.1/DTD/svg11.dtd">
<svg version="1.1" xmlns="http://www.w3.org/2000/svg" xmlns:xlink="http://www.w3.org/1999/xlink" viewBox="0 0 22.6641 21.5977">
 <g>
  <rect height="21.5977" opacity="0" width="22.6641" x="0" y="0"/>
  <path d="M3.67969 21.5977L18.6328 21.5977C21.082 21.5977 22.3125 20.3789 22.3125 17.9648L22.3125 3.65625C22.3125 1.24219 21.082 0.0234375 18.6328 0.0234375L3.67969 0.0234375C1.23047 0.0234375 0 1.23047 0 3.65625L0 17.9648C0 20.3906 1.23047 21.5977 3.67969 21.5977ZM3.70312 19.7109C2.53125 19.7109 1.88672 19.0898 1.88672 17.8711L1.88672 3.75C1.88672 2.53125 2.53125 1.91016 3.70312 1.91016L18.5977 1.91016C19.7578 1.91016 20.4258 2.53125 20.4258 3.75L20.4258 17.8711C20.4258 19.0898 19.7578 19.7109 18.5977 19.7109Z" fill="black" fill-opacity="0.85"/>
  <path d="M10.6758 16.6758L11.625 16.6758C12.0234 16.6758 12.2812 16.418 12.2812 16.0078L12.2812 12.5859C12.2812 12.1875 12.0234 11.918 11.625 11.918L10.6758 11.918C10.2891 11.918 10.0195 12.1875 10.0195 12.5859L10.0195 16.0078C10.0195 16.4062 10.2773 16.6758 10.6758 16.6758ZM5.10938 9.75L5.78906 10.418C6.07031 10.6992 6.44531 10.6992 6.72656 10.418L9.46875 7.67578C9.76172 7.38281 9.76172 7.01953 9.46875 6.73828L8.80078 6.05859C8.51953 5.78906 8.16797 5.78906 7.875 6.07031L5.12109 8.8125C4.83984 9.09375 4.83984 9.46875 5.10938 9.75ZM16.5234 10.418L17.2031 9.73828C17.4727 9.46875 17.4727 9.10547 17.1797 8.8125L14.4375 6.07031C14.1562 5.78906 13.793 5.78906 13.5117 6.05859L12.8438 6.73828C12.5508 7.01953 12.5508 7.38281 12.8438 7.67578L15.5859 10.418C15.8672 10.6992 16.2305 10.6992 16.5234 10.418Z" fill="black" fill-opacity="0.85"/>
 </g>
</svg>
