<?xml version="1.0" encoding="UTF-8"?>
<!--Generator: Apple Native CoreSVG 360-->
<!DOCTYPE svg
PUBLIC "-//W3C//DTD SVG 1.1//EN"
       "http://www.w3.org/Graphics/SVG/1.1/DTD/svg11.dtd">
<svg version="1.1" xmlns="http://www.w3.org/2000/svg" xmlns:xlink="http://www.w3.org/1999/xlink" viewBox="0 0 27.9844 21.0586">
 <g>
  <rect height="21.0586" opacity="0" width="27.9844" x="0" y="0"/>
  <path d="M27.6328 8.80078L27.6328 12.2461C27.6328 18.5156 25.1953 21.0352 18.3984 21.0352L9.23438 21.0352C2.4375 21.0352 0 18.5156 0 12.2461L0 8.80078C0 2.53125 2.4375 0 9.23438 0L18.3984 0C25.1953 0 27.6328 2.53125 27.6328 8.80078ZM15.6094 5.63672C15.0352 5.63672 14.707 5.98828 14.707 6.5625L14.707 14.6367C14.707 15.1992 15.0352 15.5625 15.6211 15.5625C16.1602 15.5625 16.4883 15.2109 16.4883 14.6367L16.4883 11.6719L17.6367 11.6719L18.9023 14.8359C19.0664 15.293 19.3359 15.5625 19.8281 15.5625C20.2266 15.5625 20.6484 15.3281 20.6484 14.6953C20.6484 14.5664 20.5781 14.3203 20.4492 14.0391L19.3125 11.3086C20.2852 10.8047 20.707 9.75 20.707 8.66016C20.707 6.69141 19.5352 5.63672 17.6484 5.63672ZM7.88672 5.60156C7.38281 5.60156 7.00781 5.94141 7.00781 6.53906L7.00781 14.6016C7.00781 15.1758 7.32422 15.5156 7.89844 15.5156C8.47266 15.5156 8.77734 15.1641 8.77734 14.6016L8.77734 12.1523L10.0547 12.1523C11.8945 12.1523 12.9727 10.7578 12.9727 8.89453C12.9727 7.05469 11.9297 5.60156 10.1484 5.60156ZM11.2148 8.89453C11.2148 9.96094 10.7812 10.7578 9.70312 10.7578L8.77734 10.7578L8.77734 7.03125L9.71484 7.03125C10.7227 7.03125 11.2148 7.75781 11.2148 8.89453ZM18.9141 8.69531C18.9141 9.65625 18.4805 10.3711 17.4961 10.3711L16.4883 10.3711L16.4883 7.04297L17.4961 7.04297C18.4219 7.04297 18.9141 7.73438 18.9141 8.69531Z" fill="black" fill-opacity="0.85"/>
 </g>
</svg>
