<?xml version="1.0" encoding="UTF-8"?>
<!--Generator: Apple Native CoreSVG 360-->
<!DOCTYPE svg
PUBLIC "-//W3C//DTD SVG 1.1//EN"
       "http://www.w3.org/Graphics/SVG/1.1/DTD/svg11.dtd">
<svg version="1.1" xmlns="http://www.w3.org/2000/svg" xmlns:xlink="http://www.w3.org/1999/xlink" viewBox="0 0 27.9844 21.0586">
 <g>
  <rect height="21.0586" opacity="0" width="27.9844" x="0" y="0"/>
  <path d="M9.23438 21.0352L18.3984 21.0352C25.1953 21.0352 27.6328 18.5156 27.6328 12.2461L27.6328 8.80078C27.6328 2.53125 25.1953 0 18.3984 0L9.23438 0C2.4375 0 0 2.53125 0 8.80078L0 12.2461C0 18.5156 2.4375 21.0352 9.23438 21.0352ZM9.23438 19.1484C3.70312 19.1484 1.88672 17.3555 1.88672 12.2461L1.88672 8.80078C1.88672 3.69141 3.70312 1.88672 9.23438 1.88672L18.3984 1.88672C23.9297 1.88672 25.7461 3.69141 25.7461 8.80078L25.7461 12.2461C25.7461 17.3555 23.9297 19.1484 18.3984 19.1484Z" fill="black" fill-opacity="0.85"/>
  <path d="M8.08594 15.3633C8.63672 15.3633 8.92969 15.0234 8.92969 14.4844L8.92969 12.1055L10.1719 12.1055C11.9531 12.1055 12.9961 10.7461 12.9961 8.94141C12.9961 7.16016 11.9883 5.75391 10.2656 5.75391L8.07422 5.75391C7.58203 5.75391 7.21875 6.08203 7.21875 6.65625L7.21875 14.4844C7.21875 15.0352 7.52344 15.3633 8.08594 15.3633ZM8.92969 10.7578L8.92969 7.13672L9.84375 7.13672C10.8281 7.13672 11.2969 7.83984 11.2969 8.94141C11.2969 9.98438 10.875 10.7578 9.83203 10.7578ZM15.5625 15.4102C16.0898 15.4102 16.4062 15.0703 16.4062 14.5195L16.4062 11.6367L17.5195 11.6367L18.75 14.707C18.9141 15.1523 19.1719 15.4102 19.6406 15.4102C20.0273 15.4102 20.4375 15.1875 20.4375 14.5781C20.4375 14.4492 20.3672 14.2148 20.25 13.9453L19.1367 11.2852C20.0859 10.793 20.4961 9.77344 20.4961 8.71875C20.4961 6.80859 19.3594 5.78906 17.5312 5.78906L15.5508 5.78906C15 5.78906 14.6836 6.12891 14.6836 6.67969L14.6836 14.5195C14.6836 15.0586 15 15.4102 15.5625 15.4102ZM16.4062 10.3828L16.4062 7.14844L17.3789 7.14844C18.2812 7.14844 18.7617 7.81641 18.7617 8.75391C18.7617 9.67969 18.3398 10.3828 17.3789 10.3828Z" fill="black" fill-opacity="0.85"/>
 </g>
</svg>
