<?xml version="1.0" encoding="UTF-8"?>
<!--Generator: Apple Native CoreSVG 360-->
<!DOCTYPE svg
PUBLIC "-//W3C//DTD SVG 1.1//EN"
       "http://www.w3.org/Graphics/SVG/1.1/DTD/svg11.dtd">
<svg version="1.1" xmlns="http://www.w3.org/2000/svg" xmlns:xlink="http://www.w3.org/1999/xlink" viewBox="0 0 26.8242 25.6289">
 <g>
  <rect height="25.6289" opacity="0" width="26.8242" x="0" y="0"/>
  <path d="M21.832 3.69141L21.832 4.3125L20.0156 4.3125L20.0156 3.5625C20.0156 2.57812 19.5234 2.09766 18.5391 2.09766L7.93359 2.09766C6.96094 2.09766 6.45703 2.57812 6.45703 3.5625L6.45703 4.3125L4.64062 4.3125L4.64062 3.69141C4.64062 1.40625 5.89453 0.386719 7.95703 0.386719L18.5156 0.386719C20.6953 0.386719 21.832 1.40625 21.832 3.69141Z" fill="black" fill-opacity="0.85"/>
  <path d="M26.4727 7.74609L26.4727 18.7148C26.4727 21 25.2656 22.1484 22.9922 22.1484L21.75 22.1484L21.75 20.3789L23.0156 20.3789C24.0469 20.3789 24.5859 19.8398 24.5859 18.8086L24.5859 7.65234C24.5859 6.62109 24.0469 6.08203 23.0156 6.08203L3.46875 6.08203C2.42578 6.08203 1.89844 6.62109 1.89844 7.65234L1.89844 18.8086C1.89844 19.8398 2.42578 20.3789 3.46875 20.3789L4.72266 20.3789L4.72266 22.1484L3.49219 22.1484C1.20703 22.1484 0 21 0 18.7148L0 7.74609C0 5.47266 1.32422 4.3125 3.49219 4.3125L22.9922 4.3125C25.2656 4.3125 26.4727 5.47266 26.4727 7.74609ZM21.8438 8.85938C21.8438 9.66797 21.1758 10.3242 20.3906 10.3242C19.582 10.3242 18.9258 9.66797 18.9258 8.85938C18.9258 8.07422 19.582 7.40625 20.3906 7.40625C21.1758 7.40625 21.8438 8.07422 21.8438 8.85938Z" fill="black" fill-opacity="0.85"/>
  <path d="M6.96094 25.6289L19.5117 25.6289C21 25.6289 21.75 24.9492 21.75 23.3906L21.75 13.8281C21.75 12.2695 21 11.5898 19.5117 11.5898L6.96094 11.5898C5.54297 11.5898 4.72266 12.2695 4.72266 13.8281L4.72266 23.3906C4.72266 24.9492 5.47266 25.6289 6.96094 25.6289ZM7.54688 23.8594C6.92578 23.8594 6.60938 23.5547 6.60938 22.9219L6.60938 14.2852C6.60938 13.6523 6.92578 13.3594 7.54688 13.3594L18.9375 13.3594C19.5703 13.3594 19.8633 13.6523 19.8633 14.2852L19.8633 22.9219C19.8633 23.5547 19.5703 23.8594 18.9375 23.8594ZM9.17578 17.2852L17.3203 17.2852C17.7422 17.2852 18.0469 16.9688 18.0469 16.5469C18.0469 16.1484 17.7422 15.8438 17.3203 15.8438L9.17578 15.8438C8.75391 15.8438 8.4375 16.1484 8.4375 16.5469C8.4375 16.9688 8.75391 17.2852 9.17578 17.2852ZM9.17578 21.375L17.3203 21.375C17.7422 21.375 18.0469 21.0586 18.0469 20.6602C18.0469 20.25 17.7422 19.9336 17.3203 19.9336L9.17578 19.9336C8.75391 19.9336 8.4375 20.25 8.4375 20.6602C8.4375 21.0586 8.75391 21.375 9.17578 21.375Z" fill="black" fill-opacity="0.85"/>
 </g>
</svg>
