<?xml version="1.0" encoding="UTF-8"?>
<!--Generator: Apple Native CoreSVG 360-->
<!DOCTYPE svg
PUBLIC "-//W3C//DTD SVG 1.1//EN"
       "http://www.w3.org/Graphics/SVG/1.1/DTD/svg11.dtd">
<svg version="1.1" xmlns="http://www.w3.org/2000/svg" xmlns:xlink="http://www.w3.org/1999/xlink" viewBox="0 0 29.8828 25.6289">
 <g>
  <rect height="25.6289" opacity="0" width="29.8828" x="0" y="0"/>
  <path d="M23.2969 2.90625L23.2969 3.12891L6.23438 3.12891L6.23438 2.90625C6.23438 1.17188 7.67578 0.386719 9.49219 0.386719L20.0508 0.386719C21.9609 0.386719 23.2969 1.17188 23.2969 2.90625Z" fill="black" fill-opacity="0.85"/>
  <path d="M27.9258 8.16797L27.9258 17.707C27.9258 19.9922 26.7188 21.1406 24.4453 21.1406L23.6367 21.1406L23.6367 13.8281C23.6367 12.2695 22.8867 11.5898 21.3984 11.5898L8.14453 11.5898C6.72656 11.5898 5.89453 12.2695 5.89453 13.8281L5.89453 21.1406L5.08594 21.1406C2.8125 21.1406 1.60547 19.9922 1.60547 17.707L1.60547 8.16797C1.60547 5.88281 2.92969 4.72266 5.08594 4.72266L24.4453 4.72266C26.7188 4.72266 27.9258 5.88281 27.9258 8.16797ZM20.4727 8.60156C20.4727 9.43359 21.1523 10.1016 21.9844 10.1016C22.793 10.1016 23.4844 9.42188 23.4844 8.60156C23.4844 7.78125 22.793 7.08984 21.9844 7.08984C21.1523 7.08984 20.4727 7.78125 20.4727 8.60156Z" fill="black" fill-opacity="0.85"/>
  <path d="M8.14453 25.6289L21.3984 25.6289C22.8867 25.6289 23.6367 24.9492 23.6367 23.3906L23.6367 13.8281C23.6367 12.2695 22.8867 11.5898 21.3984 11.5898L8.14453 11.5898C6.72656 11.5898 5.89453 12.2695 5.89453 13.8281L5.89453 23.3906C5.89453 24.9492 6.65625 25.6289 8.14453 25.6289ZM8.73047 23.8594C8.09766 23.8594 7.79297 23.5547 7.79297 22.9219L7.79297 14.2852C7.79297 13.6523 8.09766 13.3594 8.73047 13.3594L20.8242 13.3594C21.4453 13.3594 21.7383 13.6523 21.7383 14.2852L21.7383 22.9219C21.7383 23.5547 21.4453 23.8594 20.8242 23.8594ZM11.0273 16.4297C11.6133 16.4297 12.082 15.9727 12.082 15.375C12.082 14.7891 11.6133 14.332 11.0273 14.332C10.4414 14.332 9.97266 14.7891 9.97266 15.375C9.97266 15.9727 10.4414 16.4297 11.0273 16.4297ZM11.0273 19.6523C11.6133 19.6523 12.082 19.1953 12.082 18.6094C12.082 18.0234 11.6133 17.5547 11.0273 17.5547C10.4414 17.5547 9.97266 18.0234 9.97266 18.6094C9.97266 19.1953 10.4414 19.6523 11.0273 19.6523ZM11.0273 22.8867C11.6133 22.8867 12.082 22.4297 12.082 21.832C12.082 21.2461 11.6133 20.7891 11.0273 20.7891C10.4414 20.7891 9.97266 21.2461 9.97266 21.832C9.97266 22.4297 10.4414 22.8867 11.0273 22.8867ZM18.5156 16.4297C19.1133 16.4297 19.582 15.9727 19.582 15.375C19.582 14.7891 19.1133 14.332 18.5156 14.332C17.9414 14.332 17.4727 14.7891 17.4727 15.375C17.4727 15.9727 17.9414 16.4297 18.5156 16.4297ZM18.5156 19.6523C19.1133 19.6523 19.582 19.1953 19.582 18.6094C19.582 18.0234 19.1133 17.5547 18.5156 17.5547C17.9414 17.5547 17.4727 18.0234 17.4727 18.6094C17.4727 19.1953 17.9414 19.6523 18.5156 19.6523ZM18.5156 22.8867C19.1133 22.8867 19.582 22.4297 19.582 21.832C19.582 21.2461 19.1133 20.7891 18.5156 20.7891C17.9414 20.7891 17.4727 21.2461 17.4727 21.832C17.4727 22.4297 17.9414 22.8867 18.5156 22.8867Z" fill="black" fill-opacity="0.85"/>
 </g>
</svg>
