<?xml version="1.0" encoding="UTF-8"?>
<!--Generator: Apple Native CoreSVG 360-->
<!DOCTYPE svg
PUBLIC "-//W3C//DTD SVG 1.1//EN"
       "http://www.w3.org/Graphics/SVG/1.1/DTD/svg11.dtd">
<svg version="1.1" xmlns="http://www.w3.org/2000/svg" xmlns:xlink="http://www.w3.org/1999/xlink" viewBox="0 0 29.8828 25.6289">
 <g>
  <rect height="25.6289" opacity="0" width="29.8828" x="0" y="0"/>
  <path d="M23.4085 3.12891L6.266 3.12891C6.45972 1.23714 7.67779 0.386719 9.55078 0.386719L20.1211 0.386719C22.1011 0.386719 23.2307 1.23714 23.4085 3.12891Z" fill="black" fill-opacity="0.85"/>
  <path d="M27.9258 8.16797L27.9258 17.707C27.9258 19.9922 26.7188 21.1406 24.4453 21.1406L23.6367 21.1406L23.6367 13.8281C23.6367 12.2695 22.875 11.5898 21.3867 11.5898L8.13281 11.5898C6.72656 11.5898 5.89453 12.2695 5.89453 13.8281L5.89453 21.1406L5.08594 21.1406C2.8125 21.1406 1.60547 19.9922 1.60547 17.707L1.60547 8.16797C1.60547 5.88281 2.92969 4.72266 5.08594 4.72266L24.4453 4.72266C26.7188 4.72266 27.9258 5.88281 27.9258 8.16797ZM20.4727 8.60156C20.4727 9.43359 21.1523 10.1016 21.9844 10.1016C22.793 10.1016 23.4844 9.42188 23.4844 8.60156C23.4844 7.78125 22.793 7.08984 21.9844 7.08984C21.1523 7.08984 20.4727 7.78125 20.4727 8.60156Z" fill="black" fill-opacity="0.85"/>
  <path d="M8.13281 25.6289L21.3867 25.6289C22.875 25.6289 23.6367 24.9492 23.6367 23.3906L23.6367 13.8281C23.6367 12.2695 22.875 11.5898 21.3867 11.5898L8.13281 11.5898C6.72656 11.5898 5.89453 12.2695 5.89453 13.8281L5.89453 23.3906C5.89453 24.9492 6.65625 25.6289 8.13281 25.6289ZM8.71875 23.8594C8.09766 23.8594 7.79297 23.5547 7.79297 22.9219L7.79297 14.2852C7.79297 13.6523 8.09766 13.3594 8.71875 13.3594L20.8242 13.3594C21.4453 13.3594 21.7383 13.6523 21.7383 14.2852L21.7383 22.9219C21.7383 23.5547 21.4453 23.8594 20.8242 23.8594ZM10.6992 17.2852L18.8555 17.2852C19.2656 17.2852 19.5703 16.9688 19.5703 16.5469C19.5703 16.1484 19.2656 15.8438 18.8555 15.8438L10.6992 15.8438C10.2773 15.8438 9.96094 16.1484 9.96094 16.5469C9.96094 16.9688 10.2773 17.2852 10.6992 17.2852ZM10.6992 21.375L18.8555 21.375C19.2656 21.375 19.5703 21.0586 19.5703 20.6602C19.5703 20.25 19.2656 19.9336 18.8555 19.9336L10.6992 19.9336C10.2773 19.9336 9.96094 20.25 9.96094 20.6602C9.96094 21.0586 10.2773 21.375 10.6992 21.375Z" fill="black" fill-opacity="0.85"/>
 </g>
</svg>
