<?xml version="1.0" encoding="UTF-8"?>
<!--Generator: Apple Native CoreSVG 360-->
<!DOCTYPE svg
PUBLIC "-//W3C//DTD SVG 1.1//EN"
       "http://www.w3.org/Graphics/SVG/1.1/DTD/svg11.dtd">
<svg version="1.1" xmlns="http://www.w3.org/2000/svg" xmlns:xlink="http://www.w3.org/1999/xlink" viewBox="0 0 29.2266 22.6992">
 <g>
  <rect height="22.6992" opacity="0" width="29.2266" x="0" y="0"/>
  <path d="M0.539062 19.125C0.539062 21.4453 1.76953 22.6523 4.125 22.6523L18.5273 22.6523C20.8711 22.6523 22.1016 21.4453 22.1016 19.125L22.1016 14.9883C22.1016 14.8008 22.2305 14.707 22.4531 14.8594C23.1914 15.3867 24.0469 15.7617 25.0312 15.7617C27.2461 15.7617 29.2266 13.9805 29.2266 11.3672C29.2266 8.76562 27.2461 6.98438 25.0312 6.98438C24.0469 6.98438 23.1914 7.35938 22.4531 7.88672C22.2305 8.03906 22.1016 7.94531 22.1016 7.75781L22.1016 3.52734C22.1016 1.20703 20.8711 0 18.5273 0L4.125 0C1.76953 0 0.539062 1.20703 0.539062 3.52734L0.539062 8.70703C0.539062 9.69141 1.18359 10.2773 1.99219 10.2773C2.4375 10.2773 2.89453 10.0898 3.35156 9.66797C3.92578 9.15234 4.57031 8.83594 5.26172 8.83594C6.59766 8.83594 7.72266 9.83203 7.72266 11.3438C7.72266 12.8555 6.59766 13.8516 5.26172 13.8516C4.57031 13.8516 3.92578 13.5234 3.35156 13.0078C2.89453 12.5977 2.4375 12.4102 1.99219 12.4102C1.18359 12.4102 0.539062 12.9961 0.539062 13.9688ZM2.42578 19.0312L2.42578 15.1289C2.42578 14.5781 2.70703 14.7891 2.92969 14.9297C3.64453 15.3867 4.42969 15.7266 5.35547 15.7266C7.55859 15.7266 9.55078 13.957 9.55078 11.3438C9.55078 8.73047 7.55859 6.96094 5.35547 6.96094C4.42969 6.96094 3.64453 7.30078 2.92969 7.75781C2.70703 7.89844 2.42578 8.10938 2.42578 7.55859L2.42578 3.62109C2.42578 2.50781 3.07031 1.88672 4.16016 1.88672L18.4922 1.88672C19.582 1.88672 20.2148 2.50781 20.2148 3.62109L20.2148 8.70703C20.2148 9.69141 20.8594 10.3125 21.668 10.3125C22.1133 10.3125 22.5703 10.125 23.0273 9.70312C23.6016 9.1875 24.2461 8.85938 24.9375 8.85938C26.2734 8.85938 27.3984 9.85547 27.3984 11.3672C27.3984 12.8906 26.2734 13.8867 24.9375 13.8867C24.2461 13.8867 23.6016 13.5586 23.0273 13.043C22.5703 12.6211 22.1133 12.4336 21.668 12.4336C20.8594 12.4336 20.2148 13.0547 20.2148 14.0391L20.2148 19.0312C20.2148 20.1562 19.582 20.7656 18.4922 20.7656L4.16016 20.7656C3.07031 20.7656 2.42578 20.1562 2.42578 19.0312Z" fill="black" fill-opacity="0.85"/>
 </g>
</svg>
