<?xml version="1.0" encoding="UTF-8"?>
<!--Generator: Apple Native CoreSVG 360-->
<!DOCTYPE svg
PUBLIC "-//W3C//DTD SVG 1.1//EN"
       "http://www.w3.org/Graphics/SVG/1.1/DTD/svg11.dtd">
<svg version="1.1" xmlns="http://www.w3.org/2000/svg" xmlns:xlink="http://www.w3.org/1999/xlink" viewBox="0 0 24.2578 23.918">
 <g>
  <rect height="23.918" opacity="0" width="24.2578" x="0" y="0"/>
  <path d="M11.9531 23.9062C18.5508 23.9062 23.9062 18.5508 23.9062 11.9531C23.9062 5.35547 18.5508 0 11.9531 0C5.35547 0 0 5.35547 0 11.9531C0 18.5508 5.35547 23.9062 11.9531 23.9062ZM11.9531 21.9141C6.44531 21.9141 1.99219 17.4609 1.99219 11.9531C1.99219 6.44531 6.44531 1.99219 11.9531 1.99219C17.4609 1.99219 21.9141 6.44531 21.9141 11.9531C21.9141 17.4609 17.4609 21.9141 11.9531 21.9141Z" fill="black" fill-opacity="0.85"/>
  <path d="M11.9414 17.4492C12.6211 17.4492 13.2539 17.332 13.8164 17.1094L14.6367 18.2109C14.8594 18.5273 15.082 18.6328 15.375 18.6328C15.7852 18.6328 16.0664 18.3516 16.0664 17.9414C16.0664 17.7305 16.0078 17.5898 15.7852 17.2969L15.082 16.3594C16.2891 15.3867 17.0156 13.793 17.0156 11.8477C17.0156 8.54297 14.9414 6.23438 11.9414 6.23438C8.94141 6.23438 6.86719 8.54297 6.86719 11.8477C6.86719 15.1406 8.94141 17.4492 11.9414 17.4492ZM11.9414 15.9727C10.0078 15.9727 8.74219 14.3438 8.74219 11.8477C8.74219 9.33984 10.0078 7.71094 11.9414 7.71094C13.875 7.71094 15.1523 9.33984 15.1523 11.8477C15.1523 13.207 14.7656 14.3203 14.0859 15.0234L13.418 14.1211C13.2305 13.875 13.0547 13.793 12.7852 13.793C12.3984 13.793 12.082 14.0859 12.082 14.4609C12.082 14.6602 12.1406 14.8242 12.3047 15.0469L12.8789 15.832C12.5977 15.9258 12.2812 15.9727 11.9414 15.9727Z" fill="black" fill-opacity="0.85"/>
 </g>
</svg>
