<?xml version="1.0" encoding="UTF-8"?>
<!--Generator: Apple Native CoreSVG 360-->
<!DOCTYPE svg
PUBLIC "-//W3C//DTD SVG 1.1//EN"
       "http://www.w3.org/Graphics/SVG/1.1/DTD/svg11.dtd">
<svg version="1.1" xmlns="http://www.w3.org/2000/svg" xmlns:xlink="http://www.w3.org/1999/xlink" viewBox="0 0 32.1445 22.4414">
 <g>
  <rect height="22.4414" opacity="0" width="32.1445" x="0" y="0"/>
  <path d="M5.80078 16.0312C6.62109 16.0312 6.99609 15.4688 6.99609 14.7188C6.99609 14.5898 6.99609 14.4492 6.99609 14.3203C7.01953 12.7734 7.57031 12.1289 9.44531 10.8398C11.4609 9.48047 12.7383 7.91016 12.7383 5.64844C12.7383 2.13281 9.87891 0.117188 6.31641 0.117188C3.66797 0.117188 1.34766 1.37109 0.351562 3.63281C0.105469 4.18359 0 4.72266 0 5.16797C0 5.83594 0.386719 6.30469 1.10156 6.30469C1.69922 6.30469 2.09766 5.95312 2.27344 5.37891C2.87109 3.15234 4.34766 2.30859 6.23438 2.30859C8.51953 2.30859 10.3125 3.59766 10.3125 5.63672C10.3125 7.3125 9.26953 8.25 7.76953 9.30469C5.92969 10.582 4.58203 11.9531 4.58203 14.0156C4.58203 14.2617 4.58203 14.5078 4.58203 14.7539C4.58203 15.5039 4.99219 16.0312 5.80078 16.0312ZM5.80078 22.4414C6.73828 22.4414 7.47656 21.6914 7.47656 20.7773C7.47656 19.8516 6.73828 19.1133 5.80078 19.1133C4.88672 19.1133 4.13672 19.8516 4.13672 20.7773C4.13672 21.6914 4.88672 22.4414 5.80078 22.4414Z" fill="black" fill-opacity="0.85"/>
  <path d="M31.793 11.2031C31.793 8.51953 29.6484 6.375 26.9766 6.375C24.9727 6.375 23.2031 7.54688 22.4766 9.39844L15.2695 9.39844C15.0586 9.39844 14.8828 9.46875 14.7188 9.63281L13.4766 10.8633C13.3008 11.0273 13.2773 11.3555 13.4766 11.5547L15.8086 13.8984C16.0078 14.1094 16.3125 14.0977 16.5234 13.8984L17.8594 12.5391L19.7695 14.4375C19.957 14.6367 20.25 14.6367 20.4609 14.4258L22.3242 12.5977C23.25 14.7891 24.9492 16.043 26.9766 16.043C29.6367 16.043 31.793 13.875 31.793 11.2031ZM27.457 11.4375C27.457 10.7109 28.0547 10.1016 28.793 10.1016C29.543 10.1016 30.1289 10.6875 30.1289 11.4375C30.1289 12.1758 29.5312 12.7734 28.793 12.7734C28.0547 12.7734 27.457 12.1758 27.457 11.4375Z" fill="black" fill-opacity="0.85"/>
 </g>
</svg>
