<?xml version="1.0" encoding="UTF-8"?>
<!--Generator: Apple Native CoreSVG 360-->
<!DOCTYPE svg
PUBLIC "-//W3C//DTD SVG 1.1//EN"
       "http://www.w3.org/Graphics/SVG/1.1/DTD/svg11.dtd">
<svg version="1.1" xmlns="http://www.w3.org/2000/svg" xmlns:xlink="http://www.w3.org/1999/xlink" viewBox="0 0 27.6094 24.5508">
 <g>
  <rect height="24.5508" opacity="0" width="27.6094" x="0" y="0"/>
  <path d="M13.6289 22.8164C21.5039 22.8164 27.2578 18.0117 27.2578 11.4023C27.2578 4.76953 21.4922 0 13.6289 0C5.75391 0 0 4.76953 0 11.4023C0 13.5938 0.644531 15.6328 1.76953 17.2852C2.32031 18.1055 2.51953 18.6797 2.51953 19.1602C2.51953 19.7812 2.33203 20.2852 1.79297 20.7539C0.867188 21.5391 1.34766 22.8164 2.56641 22.8164C4.03125 22.8164 5.66016 22.3125 6.86719 21.4805C8.84766 22.3477 11.1562 22.8164 13.6289 22.8164ZM13.6289 20.9297C11.3906 20.9297 9.38672 20.5078 7.6875 19.7461C6.9375 19.418 6.39844 19.5117 5.68359 19.9336C5.17969 20.25 4.59375 20.5195 3.99609 20.6484C4.24219 20.2383 4.40625 19.7695 4.40625 19.1602C4.40625 18.293 4.08984 17.3438 3.33984 16.2188C2.40234 14.8594 1.88672 13.207 1.88672 11.4023C1.88672 5.90625 6.73828 1.88672 13.6289 1.88672C20.5195 1.88672 25.3711 5.90625 25.3711 11.4023C25.3711 16.8984 20.5195 20.9297 13.6289 20.9297Z" fill="black" fill-opacity="0.85"/>
  <path d="M13.3945 13.8281C13.9805 13.8281 14.332 13.4531 14.332 12.9961C14.332 12.9492 14.332 12.8906 14.332 12.8555C14.332 12.1875 14.7188 11.7773 15.5391 11.2383C16.6758 10.4883 17.4844 9.79688 17.4844 8.40234C17.4844 6.45703 15.75 5.40234 13.7578 5.40234C11.7422 5.40234 10.418 6.36328 10.0898 7.44141C10.0312 7.62891 9.99609 7.81641 9.99609 8.01562C9.99609 8.54297 10.4062 8.82422 10.8047 8.82422C11.2031 8.82422 11.4492 8.63672 11.6602 8.35547L11.8711 8.07422C12.2812 7.39453 12.9023 6.99609 13.6758 6.99609C14.7539 6.99609 15.4453 7.60547 15.4453 8.49609C15.4453 9.29297 14.9531 9.67969 13.9219 10.3945C13.0898 10.9805 12.457 11.6016 12.457 12.75C12.457 12.7969 12.457 12.8555 12.457 12.9023C12.457 13.5117 12.7852 13.8281 13.3945 13.8281ZM13.3594 17.3203C14.0391 17.3203 14.625 16.7812 14.625 16.1016C14.625 15.4219 14.0508 14.8828 13.3594 14.8828C12.6797 14.8828 12.1055 15.4336 12.1055 16.1016C12.1055 16.7695 12.6914 17.3203 13.3594 17.3203Z" fill="black" fill-opacity="0.85"/>
 </g>
</svg>
