<?xml version="1.0" encoding="UTF-8"?>
<!--Generator: Apple Native CoreSVG 360-->
<!DOCTYPE svg
PUBLIC "-//W3C//DTD SVG 1.1//EN"
       "http://www.w3.org/Graphics/SVG/1.1/DTD/svg11.dtd">
<svg version="1.1" xmlns="http://www.w3.org/2000/svg" xmlns:xlink="http://www.w3.org/1999/xlink" viewBox="0 0 29.1886 22.043">
 <g>
  <rect height="22.043" opacity="0" width="29.1886" x="0" y="0"/>
  <path d="M11.4947 21.9727C12.0221 21.9727 12.4322 21.5391 12.4322 21.0117L12.4322 0.949219C12.4322 0.421875 12.0221 0 11.4947 0C10.9674 0 10.5455 0.421875 10.5455 0.949219L10.5455 21.0117C10.5455 21.5391 10.9674 21.9727 11.4947 21.9727Z" fill="black" fill-opacity="0.85"/>
  <path d="M17.3424 21.9727C17.8697 21.9727 18.2799 21.5391 18.2799 21.0117L18.2799 0.949219C18.2799 0.421875 17.8697 0 17.3424 0C16.815 0 16.3932 0.421875 16.3932 0.949219L16.3932 21.0117C16.3932 21.5391 16.815 21.9727 17.3424 21.9727Z" fill="black" fill-opacity="0.85"/>
  <path d="M4.38143 14.5781C5.24862 15.1406 6.23299 14.8242 6.22128 13.7812L6.22128 8.22656C6.23299 7.14844 5.28378 6.80859 4.38143 7.41797L0.514245 10.0547C-0.153724 10.5234-0.18888 11.5195 0.514245 11.9883ZM24.4439 14.5781L28.3228 11.9883C29.0142 11.5195 28.9908 10.5117 28.3228 10.0547L24.4439 7.41797C23.5416 6.80859 22.6158 7.14844 22.6158 8.22656L22.6158 13.7812C22.6158 14.8242 23.5885 15.1523 24.4439 14.5781Z" fill="black" fill-opacity="0.85"/>
 </g>
</svg>
