<?xml version="1.0" encoding="UTF-8"?>
<!--Generator: Apple Native CoreSVG 360-->
<!DOCTYPE svg
PUBLIC "-//W3C//DTD SVG 1.1//EN"
       "http://www.w3.org/Graphics/SVG/1.1/DTD/svg11.dtd">
<svg version="1.1" xmlns="http://www.w3.org/2000/svg" xmlns:xlink="http://www.w3.org/1999/xlink" viewBox="0 0 27.3867 20.4492">
 <g>
  <rect height="20.4492" opacity="0" width="27.3867" x="0" y="0"/>
  <path d="M9.83203 20.4375L17.2031 20.4375C24 20.4375 27.0352 17.3086 27.0352 10.9102L27.0352 3.55078C27.0352 1.19531 25.8164 0 23.4375 0L3.59766 0C1.21875 0 0 1.19531 0 3.55078L0 10.9102C0 17.3086 3.03516 20.4375 9.83203 20.4375ZM9.83203 18.5508C4.30078 18.5508 1.88672 16.1484 1.88672 11.0273L1.88672 3.65625C1.88672 2.48438 2.49609 1.88672 3.64453 1.88672L23.3906 1.88672C24.5156 1.88672 25.1484 2.48438 25.1484 3.65625L25.1484 11.0273C25.1484 16.1484 22.7344 18.5508 17.1914 18.5508Z" fill="black" fill-opacity="0.85"/>
  <path d="M10.9102 15.0586C11.5312 15.0586 11.918 14.6484 11.918 14.0156L11.918 11.5664L13.6055 11.5664L15.3398 14.4609C15.5977 14.8828 15.8789 15.0586 16.3008 15.0586C16.8281 15.0586 17.2148 14.707 17.2148 14.2148C17.2148 13.9805 17.1328 13.7695 16.9922 13.5469L15.5273 11.2617C16.6875 10.793 17.4609 9.69141 17.4609 8.41406C17.4609 6.46875 16.0547 5.20312 13.8867 5.20312L10.9102 5.20312C10.3008 5.20312 9.97266 5.66016 9.97266 6.28125L9.97266 14.0156C9.97266 14.6367 10.3008 15.0586 10.9102 15.0586ZM11.918 10.0547L11.918 6.76172L13.6758 6.76172C14.8125 6.76172 15.5391 7.35938 15.5391 8.44922C15.5391 9.51562 14.8359 10.0547 13.6406 10.0547Z" fill="black" fill-opacity="0.85"/>
 </g>
</svg>
