<?xml version="1.0" encoding="UTF-8"?>
<!--Generator: Apple Native CoreSVG 360-->
<!DOCTYPE svg
PUBLIC "-//W3C//DTD SVG 1.1//EN"
       "http://www.w3.org/Graphics/SVG/1.1/DTD/svg11.dtd">
<svg version="1.1" xmlns="http://www.w3.org/2000/svg" xmlns:xlink="http://www.w3.org/1999/xlink" viewBox="0 0 24.2578 23.918">
 <g>
  <rect height="23.918" opacity="0" width="24.2578" x="0" y="0"/>
  <path d="M11.9531 23.9062C18.5508 23.9062 23.9062 18.5508 23.9062 11.9531C23.9062 5.35547 18.5508 0 11.9531 0C5.35547 0 0 5.35547 0 11.9531C0 18.5508 5.35547 23.9062 11.9531 23.9062ZM11.9531 21.9141C6.44531 21.9141 1.99219 17.4609 1.99219 11.9531C1.99219 6.44531 6.44531 1.99219 11.9531 1.99219C17.4609 1.99219 21.9141 6.44531 21.9141 11.9531C21.9141 17.4609 17.4609 21.9141 11.9531 21.9141Z" fill="black" fill-opacity="0.85"/>
  <path d="M8.94141 17.3203C9.55078 17.3203 9.89062 16.9219 9.89062 16.2773L9.89062 13.3594L12.0703 13.3594L14.0977 16.6992C14.3789 17.1562 14.625 17.3203 15.0352 17.3203C15.5391 17.3203 15.8906 16.9922 15.8906 16.5234C15.8906 16.2656 15.8203 16.0781 15.668 15.8438L13.9102 13.0898C15.293 12.6328 16.1836 11.4023 16.1836 9.94922C16.1836 7.83984 14.6719 6.50391 12.293 6.50391L8.92969 6.50391C8.33203 6.50391 8.01562 6.92578 8.01562 7.55859L8.01562 16.2773C8.01562 16.8984 8.34375 17.3203 8.94141 17.3203ZM9.89062 11.9883L9.89062 7.93359L12.0703 7.93359C13.418 7.93359 14.332 8.68359 14.332 9.99609C14.332 11.2734 13.4414 11.9883 12.0234 11.9883Z" fill="black" fill-opacity="0.85"/>
 </g>
</svg>
