<?xml version="1.0" encoding="UTF-8"?>
<!--Generator: Apple Native CoreSVG 360-->
<!DOCTYPE svg
PUBLIC "-//W3C//DTD SVG 1.1//EN"
       "http://www.w3.org/Graphics/SVG/1.1/DTD/svg11.dtd">
<svg version="1.1" xmlns="http://www.w3.org/2000/svg" xmlns:xlink="http://www.w3.org/1999/xlink" viewBox="0 0 34.6436 26.9883">
 <g>
  <rect height="26.9883" opacity="0" width="34.6436" x="0" y="0"/>
  <path d="M29.8511 8.99971C29.1786 8.83543 28.4989 8.9532 27.957 9.29266C26.2896 4.95076 22.0852 1.88672 17.146 1.88672C10.7358 1.88672 5.55616 7.06641 5.55616 13.4883C5.55616 19.9102 10.7241 25.0664 17.146 25.0664C22.0789 25.0664 26.2788 22.024 27.9509 17.6975C28.4935 18.0378 29.174 18.155 29.844 17.9935C27.9986 23.2197 23.0045 26.9531 17.146 26.9531C9.71631 26.9531 3.66944 20.9297 3.66944 13.4883C3.66944 6.04688 9.71631 0 17.146 0C23.0117 0 28.011 3.75722 29.8511 8.99971Z" fill="black" fill-opacity="0.85"/>
  <path d="M29.896 10.7578C29.2515 10.2773 28.4429 10.5703 28.4429 11.3789L28.4429 15.6094C28.4429 16.4414 29.2632 16.6992 29.8843 16.2305L32.7085 14.1211C33.1421 13.793 33.1655 13.1836 32.7085 12.8555Z" fill="black" fill-opacity="0.85"/>
  <path d="M17.146 22.8398C22.3257 22.8398 26.4976 18.6562 26.4976 13.4883C26.4976 8.30859 22.3257 4.125 17.146 4.125C11.9898 4.125 7.78272 8.30859 7.78272 13.4883C7.78272 18.6562 11.9898 22.8398 17.146 22.8398ZM17.146 20.9531C13.0093 20.9531 9.66944 17.625 9.66944 13.4883C9.66944 9.33984 13.0093 6.01172 17.146 6.01172C21.2944 6.01172 24.6108 9.33984 24.6108 13.4883C24.6108 17.625 21.2944 20.9531 17.146 20.9531ZM14.7437 17.9766C15.3179 17.9766 15.6694 17.6016 15.6694 17.0156L15.6694 14.7422L17.2398 14.7422L18.8452 17.4141C19.0913 17.8125 19.3491 17.9766 19.7358 17.9766C20.228 17.9766 20.5913 17.6484 20.5913 17.2031C20.5913 16.9805 20.5093 16.7812 20.3804 16.5703L19.021 14.4492C20.0991 14.0273 20.814 12.9961 20.814 11.8125C20.814 10.0195 19.5132 8.83594 17.4976 8.83594L14.7319 8.83594C14.1694 8.83594 13.8648 9.25781 13.8648 9.83203L13.8648 17.0156C13.8648 17.5898 14.1812 17.9766 14.7437 17.9766ZM15.6694 13.3359L15.6694 10.2773L17.3101 10.2773C18.3648 10.2773 19.0327 10.8398 19.0327 11.8477C19.0327 12.832 18.3882 13.3359 17.2749 13.3359Z" fill="black" fill-opacity="0.85"/>
 </g>
</svg>
