<?xml version="1.0" encoding="UTF-8"?>
<!--Generator: Apple Native CoreSVG 360-->
<!DOCTYPE svg
PUBLIC "-//W3C//DTD SVG 1.1//EN"
       "http://www.w3.org/Graphics/SVG/1.1/DTD/svg11.dtd">
<svg version="1.1" xmlns="http://www.w3.org/2000/svg" xmlns:xlink="http://www.w3.org/1999/xlink" viewBox="0 0 27.2461 22.9336">
 <g>
  <rect height="22.9336" opacity="0" width="27.2461" x="0" y="0"/>
  <path d="M13.4531 19.3242C15.0769 19.3242 16.595 19.1704 17.9766 18.8717L17.9766 19.3477C17.9766 21.5977 16.2891 22.9336 13.4531 22.9336C10.6055 22.9336 8.91797 21.5977 8.91797 19.3477L8.91797 18.8703C10.3026 19.1699 11.8247 19.3242 13.4531 19.3242Z" fill="black" fill-opacity="0.85"/>
  <path d="M13.4531 17.9648C20.7656 17.9648 25.5352 14.7305 25.5352 10.0547C25.5352 5.39062 20.7539 2.15625 13.4297 2.15625C6.12891 2.15625 1.37109 5.39062 1.37109 10.0547C1.37109 14.7305 6.12891 17.9648 13.4531 17.9648ZM13.4531 15.9492C7.48828 15.9492 3.49219 13.5586 3.49219 10.0547C3.49219 6.55078 7.48828 4.17188 13.4297 4.17188C19.3945 4.17188 23.4141 6.55078 23.4141 10.0547C23.4141 13.5586 19.4062 15.9492 13.4531 15.9492Z" fill="black" fill-opacity="0.85"/>
  <path d="M11.4961 13.5586C11.9414 13.5586 12.2227 13.2539 12.2227 12.7734L12.2227 11.0273L13.418 11.0273L14.707 13.125C14.9062 13.4531 15.0938 13.5703 15.3867 13.5703C15.75 13.5703 16.0547 13.3125 16.0547 12.9375C16.0547 12.75 15.9961 12.5977 15.8906 12.4453L14.8359 10.793C15.6914 10.4531 16.207 9.66797 16.207 8.74219C16.207 7.33594 15.1875 6.43359 13.6406 6.43359L11.4961 6.43359C11.0742 6.43359 10.8047 6.73828 10.8047 7.23047L10.8047 12.7734C10.8047 13.2539 11.0742 13.5586 11.4961 13.5586ZM12.2227 9.91406L12.2227 7.58203L13.4883 7.58203C14.3086 7.58203 14.8008 8.03906 14.8008 8.76562C14.8008 9.49219 14.3203 9.91406 13.4648 9.91406Z" fill="black" fill-opacity="0.85"/>
 </g>
</svg>
