<?xml version="1.0" encoding="UTF-8"?>
<!--Generator: Apple Native CoreSVG 360-->
<!DOCTYPE svg
PUBLIC "-//W3C//DTD SVG 1.1//EN"
       "http://www.w3.org/Graphics/SVG/1.1/DTD/svg11.dtd">
<svg version="1.1" xmlns="http://www.w3.org/2000/svg" xmlns:xlink="http://www.w3.org/1999/xlink" viewBox="0 0 27.3047 34.9746">
 <g>
  <rect height="34.9746" opacity="0" width="27.3047" x="0" y="0"/>
  <path d="M26.9531 17.4814C26.9531 23.3487 23.194 28.3417 17.9553 30.1776C18.1198 29.5031 18.0025 28.8239 17.6625 28.2836C22.0008 26.6203 25.0664 22.4219 25.0664 17.4814C25.0664 11.0596 19.8867 5.87988 13.4766 5.87988C7.05469 5.87988 1.88672 11.0596 1.88672 17.4814C1.88672 22.4154 4.93729 26.6091 9.26852 28.2772C8.92555 28.818 8.80469 29.4966 8.96465 30.1659C3.73808 28.3194 0 23.3287 0 17.4814C0 10.04 6.03516 3.99316 13.4766 3.99316C20.9062 3.99316 26.9531 10.04 26.9531 17.4814Z" fill="black" fill-opacity="0.85"/>
  <path d="M11.3555 28.7666C10.5117 28.7666 10.2656 29.5986 10.7227 30.2197L12.8438 33.0439C13.1719 33.4775 13.7695 33.4893 14.1094 33.0439L16.1953 30.2314C16.6875 29.5869 16.3945 28.7666 15.5742 28.7666Z" fill="black" fill-opacity="0.85"/>
  <path d="M13.4766 8.11816C8.30859 8.11816 4.125 12.3135 4.125 17.4814C4.125 22.6611 8.30859 26.833 13.4766 26.833C18.6445 26.833 22.8281 22.6611 22.8281 17.4814C22.8281 12.3135 18.6445 8.11816 13.4766 8.11816ZM13.4766 10.0049C17.6133 10.0049 20.9414 13.333 20.9414 17.4814C20.9414 21.6182 17.6133 24.9463 13.4766 24.9463C9.32812 24.9463 6.01172 21.6182 6.01172 17.4814C6.01172 13.333 9.32812 10.0049 13.4766 10.0049ZM11.0625 21.9697C11.6367 21.9697 11.9883 21.5947 11.9883 21.0088L11.9883 18.7354L13.5586 18.7354L15.1641 21.4072C15.4102 21.8057 15.668 21.9697 16.0547 21.9697C16.5469 21.9697 16.9102 21.6416 16.9102 21.1963C16.9102 20.9736 16.8281 20.7744 16.6992 20.5635L15.3398 18.4424C16.418 18.0205 17.1328 16.9893 17.1328 15.8057C17.1328 14.0127 15.832 12.8291 13.8164 12.8291L11.0508 12.8291C10.4883 12.8291 10.1836 13.251 10.1836 13.8252L10.1836 21.0088C10.1836 21.583 10.5 21.9697 11.0625 21.9697ZM11.9883 17.3291L11.9883 14.2705L13.6289 14.2705C14.6836 14.2705 15.3516 14.833 15.3516 15.8408C15.3516 16.8252 14.707 17.3291 13.5938 17.3291Z" fill="black" fill-opacity="0.85"/>
 </g>
</svg>
