<?xml version="1.0" encoding="UTF-8"?>
<!--Generator: Apple Native CoreSVG 360-->
<!DOCTYPE svg
PUBLIC "-//W3C//DTD SVG 1.1//EN"
       "http://www.w3.org/Graphics/SVG/1.1/DTD/svg11.dtd">
<svg version="1.1" xmlns="http://www.w3.org/2000/svg" xmlns:xlink="http://www.w3.org/1999/xlink" viewBox="0 0 27.2461 30.293">
 <g>
  <rect height="30.293" opacity="0" width="27.2461" x="0" y="0"/>
  <path d="M13.4531 23.0039C15.0769 23.0039 16.595 22.8501 17.9766 22.5514L17.9766 23.0273C17.9766 25.2773 16.2891 26.6133 13.4531 26.6133C10.6055 26.6133 8.91797 25.2773 8.91797 23.0273L8.91797 22.55C10.3026 22.8496 11.8247 23.0039 13.4531 23.0039Z" fill="black" fill-opacity="0.85"/>
  <path d="M13.4531 21.6445C20.7656 21.6445 25.5352 18.4102 25.5352 13.7344C25.5352 9.07031 20.7539 5.83594 13.4297 5.83594C6.12891 5.83594 1.37109 9.07031 1.37109 13.7344C1.37109 18.4102 6.12891 21.6445 13.4531 21.6445ZM13.4531 19.6289C7.48828 19.6289 3.49219 17.2383 3.49219 13.7344C3.49219 10.2305 7.48828 7.85156 13.4297 7.85156C19.3945 7.85156 23.4141 10.2305 23.4141 13.7344C23.4141 17.2383 19.4062 19.6289 13.4531 19.6289Z" fill="black" fill-opacity="0.85"/>
  <path d="M11.4375 17.3438C10.9922 17.3438 10.7109 17.0273 10.7109 16.5352L10.7109 10.8281C10.7109 10.3125 10.9922 9.99609 11.4375 9.99609L13.6406 9.99609C15.2461 9.99609 16.3008 10.9336 16.3008 12.3867C16.3008 13.3359 15.7617 14.1445 14.8828 14.4961L15.9727 16.1953C16.0781 16.3594 16.1367 16.5117 16.1367 16.7109C16.1367 17.0977 15.8203 17.3672 15.4453 17.3672C15.1406 17.3672 14.9414 17.2383 14.7422 16.8984L13.418 14.7422L12.1875 14.7422L12.1875 16.5352C12.1875 17.0273 11.8945 17.3438 11.4375 17.3438ZM12.1875 13.5938L13.4648 13.5938C14.3438 13.5938 14.8359 13.1602 14.8359 12.4102C14.8359 11.6602 14.332 11.1914 13.4883 11.1914L12.1875 11.1914Z" fill="black" fill-opacity="0.85"/>
  <path d="M10.5 1.42969L12.832 4.57031C13.1484 5.00391 13.7461 5.00391 14.0625 4.57031L16.418 1.42969C16.8867 0.808594 16.6406 0 15.7969 0L11.0977 0C10.3008 0 10.0078 0.785156 10.5 1.42969Z" fill="black" fill-opacity="0.85"/>
 </g>
</svg>
