<?xml version="1.0" encoding="UTF-8"?>
<!--Generator: Apple Native CoreSVG 360-->
<!DOCTYPE svg
PUBLIC "-//W3C//DTD SVG 1.1//EN"
       "http://www.w3.org/Graphics/SVG/1.1/DTD/svg11.dtd">
<svg version="1.1" xmlns="http://www.w3.org/2000/svg" xmlns:xlink="http://www.w3.org/1999/xlink" viewBox="0 0 21.9258 21.5742">
 <g>
  <rect height="21.5742" opacity="0" width="21.9258" x="0" y="0"/>
  <path d="M3.67969 21.5742L17.8945 21.5742C20.3555 21.5742 21.5742 20.3672 21.5742 17.9531L21.5742 3.63281C21.5742 1.21875 20.3555 0 17.8945 0L3.67969 0C1.23047 0 0 1.21875 0 3.63281L0 17.9531C0 20.3672 1.23047 21.5742 3.67969 21.5742ZM3.70312 19.6875C2.53125 19.6875 1.88672 19.0664 1.88672 17.8477L1.88672 3.73828C1.88672 2.51953 2.53125 1.88672 3.70312 1.88672L17.8711 1.88672C19.0312 1.88672 19.6875 2.51953 19.6875 3.73828L19.6875 17.8477C19.6875 19.0664 19.0312 19.6875 17.8711 19.6875Z" fill="black" fill-opacity="0.85"/>
  <path d="M7.79297 16.1602C8.41406 16.1602 8.74219 15.7617 8.74219 15.1172L8.74219 12.1992L10.9219 12.1992L12.9492 15.5391C13.2305 15.9961 13.4766 16.1602 13.8867 16.1602C14.3906 16.1602 14.7422 15.832 14.7422 15.3633C14.7422 15.1055 14.6719 14.918 14.5312 14.6836L12.7734 11.9297C14.1445 11.4727 15.0352 10.2422 15.0352 8.78906C15.0352 6.67969 13.5352 5.34375 11.1562 5.34375L7.78125 5.34375C7.18359 5.34375 6.86719 5.76562 6.86719 6.39844L6.86719 15.1172C6.86719 15.7383 7.19531 16.1602 7.79297 16.1602ZM8.74219 10.8281L8.74219 6.77344L10.9219 6.77344C12.2695 6.77344 13.1836 7.52344 13.1836 8.83594C13.1836 10.1133 12.293 10.8281 10.875 10.8281Z" fill="black" fill-opacity="0.85"/>
 </g>
</svg>
