<?xml version="1.0" encoding="UTF-8"?>
<!--Generator: Apple Native CoreSVG 360-->
<!DOCTYPE svg
PUBLIC "-//W3C//DTD SVG 1.1//EN"
       "http://www.w3.org/Graphics/SVG/1.1/DTD/svg11.dtd">
<svg version="1.1" xmlns="http://www.w3.org/2000/svg" xmlns:xlink="http://www.w3.org/1999/xlink" viewBox="0 0 27.3867 20.4492">
 <g>
  <rect height="20.4492" opacity="0" width="27.3867" x="0" y="0"/>
  <path d="M9.83203 20.4375L17.2031 20.4375C24 20.4375 27.0352 17.3086 27.0352 10.9102L27.0352 3.55078C27.0352 1.19531 25.8164 0 23.4375 0L3.59766 0C1.21875 0 0 1.19531 0 3.55078L0 10.9102C0 17.3086 3.03516 20.4375 9.83203 20.4375ZM9.83203 18.5508C4.30078 18.5508 1.88672 16.1484 1.88672 11.0273L1.88672 3.65625C1.88672 2.48438 2.49609 1.88672 3.64453 1.88672L23.3906 1.88672C24.5156 1.88672 25.1484 2.48438 25.1484 3.65625L25.1484 11.0273C25.1484 16.1484 22.7344 18.5508 17.1914 18.5508Z" fill="black" fill-opacity="0.85"/>
  <path d="M8.96484 15.1289C9.49219 15.1289 9.82031 14.7773 9.82031 14.2266L9.82031 11.3438L10.9219 11.3438L12.1523 14.4141C12.3047 14.8594 12.5742 15.1289 13.043 15.1289C13.4297 15.1289 13.8516 14.8945 13.8516 14.2969C13.8516 14.1562 13.7812 13.9219 13.6641 13.6523L12.5508 10.9922C13.5 10.5 13.8984 9.49219 13.8984 8.42578C13.8984 6.51562 12.7617 5.49609 10.9453 5.49609L8.95312 5.49609C8.40234 5.49609 8.09766 5.83594 8.09766 6.38672L8.09766 14.2266C8.09766 14.7656 8.41406 15.1289 8.96484 15.1289ZM9.82031 10.0898L9.82031 6.85547L10.7812 6.85547C11.6836 6.85547 12.1641 7.52344 12.1641 8.46094C12.1641 9.39844 11.7422 10.0898 10.7812 10.0898ZM17.9297 15.0938C18.3984 15.0938 18.7852 14.707 18.7852 14.2266L18.7852 6.29297C18.7852 5.68359 18.4102 5.33203 17.8008 5.33203C17.3086 5.33203 16.9102 5.60156 16.6289 5.8125L15.3516 6.82031C15.1406 6.97266 14.9766 7.19531 14.9766 7.51172C14.9766 7.875 15.2227 8.12109 15.5742 8.12109C15.7617 8.12109 15.8789 8.07422 15.9961 7.98047L17.0742 7.11328L17.0742 14.2266C17.0742 14.707 17.4609 15.0938 17.9297 15.0938Z" fill="black" fill-opacity="0.85"/>
 </g>
</svg>
