<?xml version="1.0" encoding="UTF-8"?>
<!--Generator: Apple Native CoreSVG 360-->
<!DOCTYPE svg
PUBLIC "-//W3C//DTD SVG 1.1//EN"
       "http://www.w3.org/Graphics/SVG/1.1/DTD/svg11.dtd">
<svg version="1.1" xmlns="http://www.w3.org/2000/svg" xmlns:xlink="http://www.w3.org/1999/xlink" viewBox="0 0 24.2578 23.918">
 <g>
  <rect height="23.918" opacity="0" width="24.2578" x="0" y="0"/>
  <path d="M11.9531 23.9062C18.5508 23.9062 23.9062 18.5508 23.9062 11.9531C23.9062 5.35547 18.5508 0 11.9531 0C5.35547 0 0 5.35547 0 11.9531C0 18.5508 5.35547 23.9062 11.9531 23.9062ZM11.9531 21.9141C6.44531 21.9141 1.99219 17.4609 1.99219 11.9531C1.99219 6.44531 6.44531 1.99219 11.9531 1.99219C17.4609 1.99219 21.9141 6.44531 21.9141 11.9531C21.9141 17.4609 17.4609 21.9141 11.9531 21.9141Z" fill="black" fill-opacity="0.85"/>
  <path d="M7.38281 16.8516C7.91016 16.8516 8.23828 16.5117 8.23828 15.9609L8.23828 13.0781L9.35156 13.0781L10.5703 16.1484C10.7227 16.5938 10.9922 16.8516 11.4609 16.8516C11.8477 16.8516 12.2695 16.6289 12.2695 16.0195C12.2695 15.8906 12.1992 15.6562 12.082 15.3867L10.9688 12.7266C11.918 12.2344 12.3164 11.2148 12.3164 10.1602C12.3164 8.25 11.1914 7.23047 9.36328 7.23047L7.37109 7.23047C6.82031 7.23047 6.51562 7.57031 6.51562 8.12109L6.51562 15.9609C6.51562 16.5 6.83203 16.8516 7.38281 16.8516ZM8.23828 11.8242L8.23828 8.58984L9.19922 8.58984C10.1016 8.58984 10.582 9.25781 10.582 10.1953C10.582 11.1211 10.1602 11.8242 9.19922 11.8242ZM16.3477 16.8164C16.8164 16.8164 17.2031 16.4297 17.2031 15.9609L17.2031 8.01562C17.2031 7.41797 16.8281 7.06641 16.2188 7.06641C15.7266 7.06641 15.3281 7.33594 15.0586 7.54688L13.7695 8.54297C13.5586 8.70703 13.3945 8.92969 13.3945 9.23438C13.3945 9.59766 13.6406 9.85547 13.9922 9.85547C14.1797 9.85547 14.2969 9.79688 14.4141 9.71484L15.4922 8.84766L15.4922 15.9609C15.4922 16.4297 15.8789 16.8164 16.3477 16.8164Z" fill="black" fill-opacity="0.85"/>
 </g>
</svg>
