<?xml version="1.0" encoding="UTF-8"?>
<!--Generator: Apple Native CoreSVG 360-->
<!DOCTYPE svg
PUBLIC "-//W3C//DTD SVG 1.1//EN"
       "http://www.w3.org/Graphics/SVG/1.1/DTD/svg11.dtd">
<svg version="1.1" xmlns="http://www.w3.org/2000/svg" xmlns:xlink="http://www.w3.org/1999/xlink" viewBox="0 0 27.3867 20.4492">
 <g>
  <rect height="20.4492" opacity="0" width="27.3867" x="0" y="0"/>
  <path d="M9.83203 0C3.03516 0 0 3.12891 0 9.52734L0 16.875C0 19.2422 1.21875 20.4375 3.59766 20.4375L23.4375 20.4375C25.8164 20.4375 27.0352 19.2305 27.0352 16.875L27.0352 9.52734C27.0352 3.12891 24 0 17.2031 0ZM9.83203 1.88672L17.1914 1.88672C22.7344 1.88672 25.1484 4.28906 25.1484 9.39844L25.1484 16.7812C25.1484 17.9531 24.5156 18.5508 23.3906 18.5508L3.64453 18.5508C2.49609 18.5508 1.88672 17.9531 1.88672 16.7812L1.88672 9.39844C1.88672 4.28906 4.30078 1.88672 9.83203 1.88672Z" fill="black" fill-opacity="0.85"/>
  <path d="M8.33203 15.1289C8.85938 15.1289 9.1875 14.7773 9.1875 14.2266L9.1875 11.3438L10.2891 11.3438L11.5195 14.4141C11.6836 14.8594 11.9414 15.1289 12.4102 15.1289C12.7969 15.1289 13.2188 14.8945 13.2188 14.2969C13.2188 14.1562 13.1367 13.9219 13.0312 13.6523L11.918 10.9922C12.8555 10.5 13.2656 9.49219 13.2656 8.42578C13.2656 6.51562 12.1289 5.49609 10.3008 5.49609L8.32031 5.49609C7.76953 5.49609 7.46484 5.83594 7.46484 6.38672L7.46484 14.2266C7.46484 14.7656 7.76953 15.1289 8.33203 15.1289ZM9.1875 10.0898L9.1875 6.85547L10.1484 6.85547C11.0508 6.85547 11.5312 7.52344 11.5312 8.46094C11.5312 9.39844 11.1094 10.0898 10.1484 10.0898ZM15.3281 14.9648L19.3945 14.9648C19.8164 14.9648 20.0625 14.6836 20.0625 14.2734C20.0625 13.8398 19.8047 13.582 19.3945 13.582L16.6172 13.582L16.6172 13.4883L18.3281 11.3203C19.5 9.86719 19.8867 9.01172 19.8867 7.98047C19.8867 6.38672 18.8086 5.23828 17.1914 5.23828C15.6914 5.23828 14.5547 6.48047 14.5547 7.71094C14.5547 8.13281 14.8125 8.4375 15.2578 8.4375C15.6445 8.4375 15.8789 8.26172 16.0078 7.88672C16.2188 7.10156 16.5117 6.59766 17.1797 6.59766C17.8945 6.59766 18.2812 7.23047 18.2812 8.05078C18.2812 8.98828 17.6367 9.9375 17.0156 10.7344L14.9766 13.3477C14.7539 13.6172 14.543 13.9102 14.543 14.2734C14.543 14.6719 14.8008 14.9648 15.3281 14.9648Z" fill="black" fill-opacity="0.85"/>
 </g>
</svg>
