<?xml version="1.0" encoding="UTF-8"?>
<!--Generator: Apple Native CoreSVG 360-->
<!DOCTYPE svg
PUBLIC "-//W3C//DTD SVG 1.1//EN"
       "http://www.w3.org/Graphics/SVG/1.1/DTD/svg11.dtd">
<svg version="1.1" xmlns="http://www.w3.org/2000/svg" xmlns:xlink="http://www.w3.org/1999/xlink" viewBox="0 0 30.6797 21.0873">
 <g>
  <rect height="21.0873" opacity="0" width="30.6797" x="0" y="0"/>
  <path d="M0 11.8737C0 14.3815 0.410156 15.53 2.27344 16.4909L8.87109 19.8776C11.2969 21.1315 13.0312 21.4479 15.75 20.6511L25.8984 17.6979C29.0273 16.7722 30.3281 14.9089 30.3281 11.8737L30.3281 4.56122C30.3281 2.44012 28.9219 0.998716 26.8125 0.998716L3.53906 0.986998C1.42969 0.986998 0 2.41669 0 4.52606ZM1.88672 11.8737L1.88672 4.56122C1.88672 3.54169 2.55469 2.87372 3.57422 2.87372L26.7891 2.88544C27.7852 2.88544 28.4414 3.56512 28.4414 4.59637L28.4414 11.8737C28.4414 14.0065 27.5625 15.2839 25.3594 15.9284L15.75 18.7761C13.3125 19.5026 11.8945 19.2917 9.87891 18.2722L3.46875 15.0026C2.21484 14.3698 1.88672 13.6081 1.88672 11.8737Z" fill="black" fill-opacity="0.85"/>
  <path d="M9.43359 14.7565C9.96094 14.7565 10.2773 14.405 10.2773 13.8659L10.2773 10.9831L11.3906 10.9831L12.6211 14.0534C12.7852 14.4987 13.043 14.7565 13.5117 14.7565C13.8984 14.7565 14.3086 14.5222 14.3086 13.9245C14.3086 13.7956 14.2383 13.5612 14.1328 13.2917L13.0195 10.6315C13.957 10.1393 14.3672 9.11981 14.3672 8.06512C14.3672 6.15497 13.2305 5.13544 11.4023 5.13544L9.42188 5.13544C8.87109 5.13544 8.55469 5.47528 8.55469 6.02606L8.55469 13.8659C8.55469 14.3932 8.87109 14.7565 9.43359 14.7565ZM10.2773 9.72919L10.2773 6.49481L11.25 6.49481C12.1523 6.49481 12.6328 7.16278 12.6328 8.10028C12.6328 9.02606 12.2109 9.72919 11.25 9.72919ZM18.5625 14.8034C20.2383 14.8034 21.5391 13.7487 21.5391 11.9909C21.5391 10.5378 20.6602 9.82294 19.6758 9.71747L19.6758 9.68231C20.7422 9.40106 21.2578 8.45184 21.2578 7.46747C21.2578 5.85028 20.0391 4.9245 18.5156 4.9245C17.3086 4.9245 16.2656 5.60419 15.9258 6.64715C15.8555 6.86981 15.832 7.08075 15.832 7.27997C15.832 7.66669 16.0898 7.97137 16.5586 7.97137C16.957 7.97137 17.1914 7.81903 17.2969 7.40887C17.4844 6.71747 17.8594 6.28387 18.5156 6.28387C19.2891 6.28387 19.6641 6.88153 19.6641 7.65497C19.6641 8.51044 19.1836 9.13153 18.3047 9.13153L18.0234 9.13153C17.625 9.13153 17.3789 9.37762 17.3789 9.75262C17.3789 10.1511 17.6367 10.3737 18.0234 10.3737L18.3164 10.3737C19.3125 10.3737 19.8633 10.9245 19.8633 11.944C19.8633 12.7526 19.4414 13.444 18.5625 13.444C17.707 13.444 17.332 12.8698 17.1914 12.3307C17.0742 11.9557 16.8281 11.7565 16.4531 11.7565C15.9844 11.7565 15.6797 12.0261 15.6797 12.4948C15.6797 12.7057 15.7148 12.9167 15.7734 13.1042C16.1133 14.194 17.2969 14.8034 18.5625 14.8034Z" fill="black" fill-opacity="0.85"/>
 </g>
</svg>
