<?xml version="1.0" encoding="UTF-8"?>
<!--Generator: Apple Native CoreSVG 360-->
<!DOCTYPE svg
PUBLIC "-//W3C//DTD SVG 1.1//EN"
       "http://www.w3.org/Graphics/SVG/1.1/DTD/svg11.dtd">
<svg version="1.1" xmlns="http://www.w3.org/2000/svg" xmlns:xlink="http://www.w3.org/1999/xlink" viewBox="0 0 27.9844 21.0586">
 <g>
  <rect height="21.0586" opacity="0" width="27.9844" x="0" y="0"/>
  <path d="M9.23438 21.0352L18.3984 21.0352C25.1953 21.0352 27.6328 18.5156 27.6328 12.2461L27.6328 8.80078C27.6328 2.53125 25.1953 0 18.3984 0L9.23438 0C2.4375 0 0 2.53125 0 8.80078L0 12.2461C0 18.5156 2.4375 21.0352 9.23438 21.0352ZM9.23438 19.1484C3.70312 19.1484 1.88672 17.3555 1.88672 12.2461L1.88672 8.80078C1.88672 3.69141 3.70312 1.88672 9.23438 1.88672L18.3984 1.88672C23.9297 1.88672 25.7461 3.69141 25.7461 8.80078L25.7461 12.2461C25.7461 17.3555 23.9297 19.1484 18.3984 19.1484Z" fill="black" fill-opacity="0.85"/>
  <path d="M8.20312 15.4219C8.73047 15.4219 9.04688 15.082 9.04688 14.5312L9.04688 11.6484L10.1602 11.6484L11.3906 14.7188C11.5547 15.1641 11.8125 15.4219 12.2812 15.4219C12.668 15.4219 13.0781 15.1992 13.0781 14.5898C13.0781 14.4609 13.0078 14.2266 12.8906 13.957L11.7891 11.2969C12.7266 10.8047 13.1367 9.78516 13.1367 8.73047C13.1367 6.82031 12 5.80078 10.1719 5.80078L8.19141 5.80078C7.64062 5.80078 7.32422 6.14062 7.32422 6.69141L7.32422 14.5312C7.32422 15.0703 7.64062 15.4219 8.20312 15.4219ZM9.04688 10.3945L9.04688 7.16016L10.0195 7.16016C10.9219 7.16016 11.4023 7.82812 11.4023 8.76562C11.4023 9.69141 10.9805 10.3945 10.0195 10.3945ZM18.7266 15.4102C19.1602 15.4102 19.5234 15.1406 19.5234 14.5781L19.5234 13.4062L19.9336 13.4062C20.3906 13.4062 20.6016 13.1133 20.6016 12.7148C20.6016 12.3398 20.4023 12.0469 19.9336 12.0469L19.5234 12.0469L19.5234 6.90234C19.5234 6.09375 18.9961 5.63672 18.2227 5.63672C17.4023 5.63672 17.0156 6.05859 16.6875 6.78516L14.5898 11.332C14.3906 11.7891 14.332 12.0938 14.332 12.457C14.332 13.0195 14.7188 13.4062 15.293 13.4062L17.9062 13.4062L17.9062 14.5781C17.9062 15.1992 18.3516 15.4102 18.7266 15.4102ZM17.9414 12.082L15.7734 12.082L15.7734 12L17.9062 7.11328L17.9414 7.11328Z" fill="black" fill-opacity="0.85"/>
 </g>
</svg>
