<?xml version="1.0" encoding="UTF-8"?>
<!--Generator: Apple Native CoreSVG 360-->
<!DOCTYPE svg
PUBLIC "-//W3C//DTD SVG 1.1//EN"
       "http://www.w3.org/Graphics/SVG/1.1/DTD/svg11.dtd">
<svg version="1.1" xmlns="http://www.w3.org/2000/svg" xmlns:xlink="http://www.w3.org/1999/xlink" viewBox="0 0 25.793 25.4648">
 <g>
  <rect height="25.4648" opacity="0" width="25.793" x="0" y="0"/>
  <path d="M7.73438 7.73438C8.12109 7.34766 8.12109 6.67969 7.73438 6.28125L5.16797 3.73828C4.78125 3.33984 4.125 3.33984 3.72656 3.73828C3.33984 4.125 3.33984 4.78125 3.72656 5.17969L6.28125 7.73438C6.66797 8.13281 7.34766 8.13281 7.73438 7.73438Z" fill="black" fill-opacity="0.85"/>
  <path d="M5.66016 12.7266C5.66016 12.1758 5.19141 11.707 4.64062 11.707L1.01953 11.707C0.46875 11.707 0 12.1758 0 12.7266C0 13.2773 0.46875 13.7461 1.01953 13.7461L4.64062 13.7461C5.19141 13.7461 5.66016 13.2773 5.66016 12.7266Z" fill="black" fill-opacity="0.85"/>
  <path d="M7.73438 17.707C7.34766 17.3203 6.66797 17.3203 6.28125 17.707L3.72656 20.2734C3.33984 20.6602 3.33984 21.3281 3.72656 21.7148C4.125 22.1016 4.78125 22.1016 5.16797 21.7148L7.73438 19.1602C8.12109 18.7734 8.12109 18.1055 7.73438 17.707Z" fill="black" fill-opacity="0.85"/>
  <path d="M12.7148 19.7812C12.1641 19.7812 11.6953 20.25 11.6953 20.8008L11.6953 24.4219C11.6953 24.9727 12.1641 25.4414 12.7148 25.4414C13.2773 25.4414 13.7461 24.9727 13.7461 24.4219L13.7461 20.8008C13.7461 20.25 13.2773 19.7812 12.7148 19.7812Z" fill="black" fill-opacity="0.85"/>
  <path d="M17.707 17.707C17.3203 18.1055 17.3203 18.7734 17.707 19.1602L20.2734 21.7148C20.6602 22.1016 21.3164 22.1016 21.7148 21.7148C22.1016 21.3281 22.1016 20.6602 21.7148 20.2734L19.1602 17.707C18.7734 17.3203 18.0938 17.3203 17.707 17.707Z" fill="black" fill-opacity="0.85"/>
  <path d="M19.7812 12.7266C19.7812 13.2773 20.25 13.7461 20.8008 13.7461L24.4102 13.7461C24.9727 13.7461 25.4414 13.2773 25.4414 12.7266C25.4414 12.1758 24.9727 11.707 24.4102 11.707L20.8008 11.707C20.25 11.707 19.7812 12.1758 19.7812 12.7266Z" fill="black" fill-opacity="0.85"/>
  <path d="M17.707 7.73438C18.0938 8.13281 18.7734 8.13281 19.1602 7.73438L21.7148 5.17969C22.1016 4.78125 22.1016 4.125 21.7148 3.73828C21.3164 3.33984 20.6602 3.33984 20.2734 3.73828L17.707 6.28125C17.3203 6.67969 17.3203 7.34766 17.707 7.73438Z" fill="black" fill-opacity="0.85"/>
  <path d="M12.7148 5.67188C13.2773 5.67188 13.7461 5.20312 13.7461 4.64062L13.7461 1.03125C13.7461 0.46875 13.2773 0 12.7148 0C12.1641 0 11.6953 0.46875 11.6953 1.03125L11.6953 4.64062C11.6953 5.20312 12.1641 5.67188 12.7148 5.67188Z" fill="black" fill-opacity="0.85"/>
 </g>
</svg>
