<?xml version="1.0" encoding="UTF-8"?>
<!--Generator: Apple Native CoreSVG 360-->
<!DOCTYPE svg
PUBLIC "-//W3C//DTD SVG 1.1//EN"
       "http://www.w3.org/Graphics/SVG/1.1/DTD/svg11.dtd">
<svg version="1.1" xmlns="http://www.w3.org/2000/svg" xmlns:xlink="http://www.w3.org/1999/xlink" viewBox="0 0 27.3867 20.4492">
 <g>
  <rect height="20.4492" opacity="0" width="27.3867" x="0" y="0"/>
  <path d="M9.83203 20.4375L17.2031 20.4375C24 20.4375 27.0352 17.3086 27.0352 10.9102L27.0352 3.55078C27.0352 1.19531 25.8164 0 23.4375 0L3.59766 0C1.21875 0 0 1.19531 0 3.55078L0 10.9102C0 17.3086 3.03516 20.4375 9.83203 20.4375ZM9.83203 18.5508C4.30078 18.5508 1.88672 16.1484 1.88672 11.0273L1.88672 3.65625C1.88672 2.48438 2.49609 1.88672 3.64453 1.88672L23.3906 1.88672C24.5156 1.88672 25.1484 2.48438 25.1484 3.65625L25.1484 11.0273C25.1484 16.1484 22.7344 18.5508 17.1914 18.5508Z" fill="black" fill-opacity="0.85"/>
  <path d="M7.99219 15.1289C8.51953 15.1289 8.84766 14.7773 8.84766 14.2266L8.84766 11.3438L9.94922 11.3438L11.1797 14.4141C11.3438 14.8594 11.6016 15.1289 12.0703 15.1289C12.457 15.1289 12.8789 14.8945 12.8789 14.2969C12.8789 14.1562 12.7969 13.9219 12.6914 13.6523L11.5781 10.9922C12.5156 10.5 12.9258 9.49219 12.9258 8.42578C12.9258 6.51562 11.7891 5.49609 9.96094 5.49609L7.98047 5.49609C7.42969 5.49609 7.125 5.83594 7.125 6.38672L7.125 14.2266C7.125 14.7656 7.42969 15.1289 7.99219 15.1289ZM8.84766 10.0898L8.84766 6.85547L9.80859 6.85547C10.7109 6.85547 11.1914 7.52344 11.1914 8.46094C11.1914 9.39844 10.7695 10.0898 9.80859 10.0898ZM15.3398 14.9766L17.8242 14.9766C19.4766 14.9766 20.4375 13.875 20.4375 12.3047C20.4375 11.1562 19.7461 10.1133 18.6328 9.99609L18.6328 9.9375C19.5234 9.78516 20.1445 8.78906 20.1445 7.86328C20.1445 6.35156 19.1367 5.49609 17.7539 5.49609L15.3398 5.49609C14.7891 5.49609 14.4961 5.88281 14.4961 6.38672L14.4961 14.0859C14.4961 14.625 14.8008 14.9766 15.3398 14.9766ZM16.1719 9.51562L16.1719 6.79688L17.2617 6.79688C18.1523 6.79688 18.5039 7.35938 18.5039 8.12109C18.5039 8.98828 18 9.51562 17.1328 9.51562ZM16.1719 13.6758L16.1719 10.6641L17.2617 10.6641C18.1172 10.6641 18.7148 11.1328 18.7148 12.1641C18.7148 13.1133 18.2461 13.6758 17.3086 13.6758Z" fill="black" fill-opacity="0.85"/>
 </g>
</svg>
