<?xml version="1.0" encoding="UTF-8"?>
<!--Generator: Apple Native CoreSVG 360-->
<!DOCTYPE svg
PUBLIC "-//W3C//DTD SVG 1.1//EN"
       "http://www.w3.org/Graphics/SVG/1.1/DTD/svg11.dtd">
<svg version="1.1" xmlns="http://www.w3.org/2000/svg" xmlns:xlink="http://www.w3.org/1999/xlink" viewBox="0 0 24.2578 23.918">
 <g>
  <rect height="23.918" opacity="0" width="24.2578" x="0" y="0"/>
  <path d="M11.9531 23.9062C18.5508 23.9062 23.9062 18.5508 23.9062 11.9531C23.9062 5.35547 18.5508 0 11.9531 0C5.35547 0 0 5.35547 0 11.9531C0 18.5508 5.35547 23.9062 11.9531 23.9062ZM11.9531 21.9141C6.44531 21.9141 1.99219 17.4609 1.99219 11.9531C1.99219 6.44531 6.44531 1.99219 11.9531 1.99219C17.4609 1.99219 21.9141 6.44531 21.9141 11.9531C21.9141 17.4609 17.4609 21.9141 11.9531 21.9141Z" fill="black" fill-opacity="0.85"/>
  <path d="M6.41016 16.8516C6.9375 16.8516 7.26562 16.5117 7.26562 15.9609L7.26562 13.0781L8.36719 13.0781L9.59766 16.1484C9.76172 16.5938 10.0195 16.8516 10.4883 16.8516C10.875 16.8516 11.2969 16.6289 11.2969 16.0195C11.2969 15.8906 11.2148 15.6562 11.1094 15.3867L9.99609 12.7266C10.9453 12.2344 11.3438 11.2148 11.3438 10.1602C11.3438 8.25 10.207 7.23047 8.37891 7.23047L6.39844 7.23047C5.84766 7.23047 5.54297 7.57031 5.54297 8.12109L5.54297 15.9609C5.54297 16.5 5.85938 16.8516 6.41016 16.8516ZM7.26562 11.8242L7.26562 8.58984L8.22656 8.58984C9.12891 8.58984 9.60938 9.25781 9.60938 10.1953C9.60938 11.1211 9.1875 11.8242 8.22656 11.8242ZM13.7578 16.7109L16.2422 16.7109C17.8945 16.7109 18.8555 15.6094 18.8555 14.0273C18.8555 12.8906 18.1641 11.8359 17.0508 11.7305L17.0508 11.6719C17.9414 11.5078 18.5625 10.5234 18.5625 9.58594C18.5625 8.08594 17.5547 7.23047 16.1719 7.23047L13.7578 7.23047C13.207 7.23047 12.9141 7.60547 12.9141 8.12109L12.9141 15.8203C12.9141 16.3594 13.2188 16.7109 13.7578 16.7109ZM14.5898 11.25L14.5898 8.53125L15.6797 8.53125C16.5703 8.53125 16.9219 9.09375 16.9219 9.85547C16.9219 10.7227 16.418 11.25 15.5508 11.25ZM14.5898 15.4102L14.5898 12.3984L15.6797 12.3984C16.5352 12.3984 17.1328 12.8555 17.1328 13.8984C17.1328 14.8359 16.6758 15.4102 15.7266 15.4102Z" fill="black" fill-opacity="0.85"/>
 </g>
</svg>
