<?xml version="1.0" encoding="UTF-8"?>
<!--Generator: Apple Native CoreSVG 360-->
<!DOCTYPE svg
PUBLIC "-//W3C//DTD SVG 1.1//EN"
       "http://www.w3.org/Graphics/SVG/1.1/DTD/svg11.dtd">
<svg version="1.1" xmlns="http://www.w3.org/2000/svg" xmlns:xlink="http://www.w3.org/1999/xlink" viewBox="0 0 31.1699 28.187">
 <g>
  <rect height="28.187" opacity="0" width="31.1699" x="0" y="0"/>
  <path d="M3.35057 21.1658C3.35057 22.3845 4.00682 23.0056 5.1787 23.0056L7.59276 23.0056L7.59276 24.8923L5.14354 24.8923C2.70604 24.8923 1.46385 23.6853 1.46385 21.2595L1.46385 18.7166L3.35057 18.7166ZM14.4834 24.8923L9.19823 24.8923L9.19823 23.0056L14.4834 23.0056ZM21.374 24.8923L16.0889 24.8923L16.0889 23.0056L21.374 23.0056ZM29.1084 21.2595C29.1084 23.6853 27.8662 24.8923 25.4287 24.8923L22.9678 24.8923L22.9678 23.0056L25.3935 23.0056C26.5654 23.0056 27.2217 22.3845 27.2217 21.1658L27.2217 18.7166L29.1084 18.7166ZM3.35057 17.1111L1.46385 17.1111L1.46385 11.0994L3.35057 11.0994ZM29.1084 17.1111L27.2217 17.1111L27.2217 14.7205L29.1084 12.8337ZM7.59276 5.20484L5.1787 5.20484C4.00682 5.20484 3.35057 5.82593 3.35057 7.04468L3.35057 9.4939L1.46385 9.4939L1.46385 6.95093C1.46385 4.52515 2.70604 3.31812 5.14354 3.31812L7.59276 3.31812ZM14.4834 5.20484L9.19823 5.20484L9.19823 3.31812L14.4834 3.31812ZM18.8017 5.20484L16.0889 5.20484L16.0889 3.31812L20.6854 3.31812Z" fill="black" fill-opacity="0.85"/>
  <path d="M16.3818 16.5955C18.1982 18.4119 20.9521 18.4587 22.8506 16.5603L28.6045 10.8064C28.8857 10.5134 28.874 10.0564 28.5928 9.79859C28.2998 9.52906 27.9014 9.52906 27.6084 9.82203L21.9014 15.5291C20.5537 16.8767 18.6553 16.8767 17.4014 15.5877C16.124 14.2752 16.0889 12.4119 17.4482 11.0642L24.6435 3.89234C25.5342 3.00172 26.7412 2.99 27.4912 3.71656C28.2295 4.44312 28.206 5.63843 27.3154 6.5525L20.3076 13.5955C20.0264 13.8884 19.6514 13.8767 19.3935 13.5955C19.1006 13.3142 19.1123 12.9509 19.4053 12.658L24.3623 7.70093C24.6553 7.40797 24.6435 7.00953 24.3857 6.74C24.1162 6.48218 23.7295 6.47047 23.4365 6.77515L18.4443 11.7673C17.624 12.5759 17.624 13.8416 18.3857 14.5916C19.1826 15.3884 20.3779 15.3884 21.2099 14.5447L28.2646 7.50172C29.7295 6.02515 29.706 4.10328 28.3818 2.76734C27.081 1.46656 25.0889 1.44312 23.6592 2.88453L16.4287 10.115C14.5303 12.0134 14.5889 14.8025 16.3818 16.5955Z" fill="black" fill-opacity="0.85"/>
 </g>
</svg>
