<?xml version="1.0" encoding="UTF-8"?>
<!--Generator: Apple Native CoreSVG 360-->
<!DOCTYPE svg
PUBLIC "-//W3C//DTD SVG 1.1//EN"
       "http://www.w3.org/Graphics/SVG/1.1/DTD/svg11.dtd">
<svg version="1.1" xmlns="http://www.w3.org/2000/svg" xmlns:xlink="http://www.w3.org/1999/xlink" viewBox="0 0 30.5508 25.1367">
 <g>
  <rect height="25.1367" opacity="0" width="30.5508" x="0" y="0"/>
  <path d="M21.1992 4.91016L21.1992 9.43359L19.3125 9.43359L19.3125 4.89844C19.3125 2.97656 18.2344 1.88672 16.3008 1.88672L6.38672 1.88672C4.46484 1.88672 3.375 2.97656 3.375 4.89844L3.375 20.2266C3.375 22.1602 4.46484 23.2383 6.38672 23.2383L16.3008 23.2383C18.2344 23.2383 19.3125 22.1602 19.3125 20.2266L19.3125 15.6914L21.1992 15.6914L21.1992 20.2266C21.1992 23.3789 19.4531 25.125 16.3008 25.125L6.39844 25.125C3.24609 25.125 1.48828 23.3789 1.48828 20.2266L1.48828 4.91016C1.48828 1.75781 3.24609 0 6.39844 0L16.3008 0C19.4531 0 21.1992 1.75781 21.1992 4.91016Z" fill="black" fill-opacity="0.85"/>
  <path d="M11.5547 12.5625C11.5547 13.0664 11.9648 13.4883 12.457 13.4883L24.3867 13.4883L27.5391 13.3477C27.9727 13.3242 28.3242 12.9961 28.3242 12.5625C28.3242 12.1289 27.9727 11.8008 27.5391 11.7773L24.3867 11.625L12.457 11.625C11.9648 11.625 11.5547 12.0586 11.5547 12.5625ZM23.2266 8.58984C23.2266 8.8125 23.3203 9.07031 23.5078 9.23438L25.4414 11.0391L27.0586 12.5625L25.4414 14.0742L23.5078 15.8906C23.3203 16.0547 23.2266 16.3008 23.2266 16.5234C23.2266 17.0039 23.5781 17.3789 24.0586 17.3789C24.3047 17.3789 24.4922 17.2734 24.668 17.0977L28.3945 13.2422C28.6289 13.0078 28.7109 12.7969 28.7109 12.5625C28.7109 12.3164 28.6289 12.1172 28.3945 11.8828L24.668 8.01562C24.4922 7.83984 24.3047 7.74609 24.0586 7.74609C23.5781 7.74609 23.2266 8.09766 23.2266 8.58984Z" fill="black" fill-opacity="0.85"/>
 </g>
</svg>
