<?xml version="1.0" encoding="UTF-8"?>
<!--Generator: Apple Native CoreSVG 360-->
<!DOCTYPE svg
PUBLIC "-//W3C//DTD SVG 1.1//EN"
       "http://www.w3.org/Graphics/SVG/1.1/DTD/svg11.dtd">
<svg version="1.1" xmlns="http://www.w3.org/2000/svg" xmlns:xlink="http://www.w3.org/1999/xlink" viewBox="0 0 28.5703 29.7011">
 <g>
  <rect height="29.7011" opacity="0" width="28.5703" x="0" y="0"/>
  <path d="M23.0859 4.66108L23.0859 0.758733C23.0859-0.0264235 22.4883-0.202205 21.9023 0.231389L19.2422 2.18842C18.7969 2.51655 18.7852 2.87983 19.2422 3.21967L21.9023 5.15326C22.4883 5.59858 23.0859 5.41108 23.0859 4.66108ZM21.4336 2.14155C21.0938 2.14155 20.8125 2.41108 20.8125 2.75092C20.8125 3.09076 21.0938 3.37201 21.4336 3.37201L23.2852 3.37201C25.4531 3.37201 26.8828 4.84858 26.8828 7.06342L26.8828 8.49311C26.8828 8.85639 27.1992 9.1728 27.5625 9.1728C27.9023 9.1728 28.2188 8.85639 28.2188 8.49311L28.2188 7.06342C28.2188 4.09858 26.2617 2.14155 23.2969 2.14155ZM5.13281 25.0048L5.13281 28.9189C5.13281 29.704 5.73047 29.8798 6.31641 29.4345L8.97656 27.4892C9.42188 27.1611 9.43359 26.7978 8.97656 26.458L6.31641 24.5126C5.73047 24.079 5.13281 24.2665 5.13281 25.0048ZM6.78516 27.5361C7.125 27.5361 7.40625 27.2665 7.40625 26.9267C7.40625 26.5869 7.125 26.3056 6.78516 26.3056L4.93359 26.3056C2.76562 26.3056 1.33594 24.829 1.33594 22.6025L1.33594 21.1845C1.33594 20.8212 1.03125 20.5048 0.667969 20.5048C0.316406 20.5048 0 20.8212 0 21.1845L0 22.6142C0 25.579 1.95703 27.5361 4.92188 27.5361Z" fill="black" fill-opacity="0.85"/>
  <path d="M7.14844 21.9814L21.0703 21.9814C22.4297 21.9814 23.4023 20.9384 23.4023 19.5205L23.4023 10.1572C23.4023 8.7392 22.4297 7.70795 21.0703 7.70795L7.14844 7.70795C5.78906 7.70795 4.81641 8.7392 4.81641 10.1572L4.81641 19.5205C4.81641 20.9384 5.78906 21.9814 7.14844 21.9814ZM7.35938 20.2236C6.90234 20.2236 6.58594 19.872 6.58594 19.3564L6.58594 10.3212C6.58594 9.82905 6.90234 9.47748 7.35938 9.47748L20.8594 9.47748C21.3281 9.47748 21.6445 9.82905 21.6445 10.3212L21.6445 19.3564C21.6445 19.872 21.3281 20.2236 20.8594 20.2236Z" fill="black" fill-opacity="0.85"/>
 </g>
</svg>
