<?xml version="1.0" encoding="UTF-8"?>
<!--Generator: Apple Native CoreSVG 360-->
<!DOCTYPE svg
PUBLIC "-//W3C//DTD SVG 1.1//EN"
       "http://www.w3.org/Graphics/SVG/1.1/DTD/svg11.dtd">
<svg version="1.1" xmlns="http://www.w3.org/2000/svg" xmlns:xlink="http://www.w3.org/1999/xlink" viewBox="0 0 33.8086 27.457">
 <g>
  <rect height="27.457" opacity="0" width="33.8086" x="0" y="0"/>
  <path d="M4.79297 19.4894L4.79297 20.7891C4.79297 22.0078 5.44922 22.6289 6.62109 22.6289L16.2315 22.6289L18.1121 24.5156L6.58594 24.5156C4.14844 24.5156 2.90625 23.3086 2.90625 20.8945L2.90625 18.0905C3.46767 18.6372 4.10216 19.1077 4.79297 19.4894ZM30.5508 6.57422L30.5508 20.8945C30.5508 23.3086 29.3203 24.5156 26.8711 24.5156L25.2639 24.5156C25.2656 24.5042 25.2656 24.4924 25.2656 24.4805C25.2656 23.7946 25.0312 23.1347 24.6286 22.6289L26.8359 22.6289C27.9961 22.6289 28.6641 22.0078 28.6641 20.7891L28.6641 6.67969C28.6641 5.46094 27.9961 4.82812 26.8359 4.82812L16.0609 4.82813C15.3173 4.05292 14.438 3.41019 13.4584 2.94141L26.8711 2.94141C29.3203 2.94141 30.5508 4.16016 30.5508 6.57422Z" fill="black" fill-opacity="0.85"/>
  <path d="M9.35156 20.6836C14.5078 20.6836 18.7031 16.4883 18.7031 11.332C18.7031 6.16406 14.5078 1.98047 9.35156 1.98047C4.19531 1.98047 0 6.16406 0 11.332C0 16.4883 4.19531 20.6836 9.35156 20.6836ZM9.35156 18.6797C5.29688 18.6797 2.00391 15.3867 2.00391 11.332C2.00391 7.26562 5.29688 3.98438 9.35156 3.98438C13.4062 3.98438 16.6992 7.26562 16.6992 11.332C16.6992 15.3867 13.4062 18.6797 9.35156 18.6797ZM16.0312 16.2422L14.0391 18.1641L21.3281 25.4648C21.6094 25.7461 21.9492 25.8633 22.3125 25.8633C23.1094 25.8633 23.6719 25.2656 23.6719 24.4805C23.6719 24.1055 23.5195 23.7656 23.2852 23.5195Z" fill="black" fill-opacity="0.85"/>
  <path d="M5.56641 10.582L13.125 10.582C13.5938 10.582 13.9453 10.2188 13.9453 9.76172C13.9453 9.30469 13.5938 8.94141 13.125 8.94141L5.56641 8.94141C5.09766 8.94141 4.75781 9.30469 4.75781 9.76172C4.75781 10.2188 5.09766 10.582 5.56641 10.582ZM5.56641 13.7109L11.0977 13.7109C11.5547 13.7109 11.9297 13.3594 11.9297 12.9023C11.9297 12.4336 11.5547 12.0703 11.0977 12.0703L5.56641 12.0703C5.09766 12.0703 4.75781 12.4336 4.75781 12.9023C4.75781 13.3594 5.09766 13.7109 5.56641 13.7109Z" fill="black" fill-opacity="0.85"/>
 </g>
</svg>
