<?xml version="1.0" encoding="UTF-8"?>
<!--Generator: Apple Native CoreSVG 360-->
<!DOCTYPE svg
PUBLIC "-//W3C//DTD SVG 1.1//EN"
       "http://www.w3.org/Graphics/SVG/1.1/DTD/svg11.dtd">
<svg version="1.1" xmlns="http://www.w3.org/2000/svg" xmlns:xlink="http://www.w3.org/1999/xlink" viewBox="0 0 29.3746 27.0117">
 <g>
  <rect height="27.0117" opacity="0" width="29.3746" x="0" y="0"/>
  <path d="M23.1834 3.51562L23.1834 9.16777C23.1489 9.17499 23.1134 9.18684 23.0779 9.19922C22.5389 8.48438 21.6834 8.23828 20.7693 8.56641C20.4295 8.69531 20.1365 8.87109 19.8553 9.08203C19.2576 8.29688 18.3318 8.01562 17.3709 8.36719C17.1131 8.46094 16.867 8.60156 16.6326 8.76562L15.2967 5.10938C14.7928 3.71484 13.5389 3.12891 12.2381 3.59766C10.9139 4.07812 10.3279 5.33203 10.8318 6.72656L14.1834 15.9141C14.1951 15.9727 14.1834 16.0195 14.1248 16.043C14.0779 16.0664 14.0428 16.043 14.0076 15.9961L12.6365 14.5078C11.9451 13.7812 11.1482 13.5703 10.3514 13.8398C9.28496 14.2383 8.59355 15.2578 9.02714 16.4648C9.14433 16.8047 9.39043 17.2148 9.64824 17.543L10.7403 18.8672L4.10527 18.8672C1.72636 18.8672 0.54277 17.707 0.54277 15.3516L0.54277 3.51562C0.54277 1.14844 1.72636 0 4.10527 0L19.6326 0C22.0115 0 23.1834 1.14844 23.1834 3.51562Z" fill="black" fill-opacity="0.85"/>
  <path d="M23.91 25.582C28.5623 23.8945 30.5428 19.6172 28.6795 14.4727L27.8006 12.0586C26.8631 9.52734 25.1287 8.48438 23.0779 9.19922C22.5389 8.48438 21.6834 8.23828 20.7693 8.56641C20.4295 8.69531 20.1365 8.87109 19.8553 9.08203C19.2576 8.29688 18.3318 8.01562 17.3709 8.36719C17.1131 8.46094 16.867 8.60156 16.6326 8.76562L15.2967 5.10938C14.7928 3.71484 13.5389 3.12891 12.2381 3.59766C10.9139 4.07812 10.3279 5.33203 10.8318 6.72656L14.1834 15.9141C14.1951 15.9727 14.1834 16.0195 14.1248 16.043C14.0779 16.0664 14.0428 16.043 14.0076 15.9961L12.6365 14.5078C11.9451 13.7812 11.1482 13.5703 10.3514 13.8398C9.28496 14.2383 8.59355 15.2578 9.02714 16.4648C9.14433 16.8047 9.39043 17.2148 9.64824 17.543L13.5623 22.2891C16.5506 25.8867 20.0193 27 23.91 25.582ZM23.4061 24.0469C20.3357 25.1719 17.4529 24.5977 14.7459 21.3281L10.8201 16.6055C10.7029 16.4648 10.6209 16.3359 10.5506 16.1367C10.41 15.75 10.574 15.3398 11.0311 15.1641C11.3943 15.0352 11.6873 15.1758 11.9803 15.4922L14.699 18.2812C15.1561 18.75 15.5545 18.8086 15.9412 18.668C16.3982 18.4922 16.5975 18.0117 16.41 17.5078L12.2615 6.09375C12.0857 5.625 12.285 5.17969 12.7537 5.01562C13.199 4.85156 13.6326 5.0625 13.7967 5.54297L16.7615 13.6875C16.9021 14.0742 17.3357 14.2383 17.7225 14.0977C18.0975 13.9688 18.3084 13.5586 18.1561 13.1719L17.0896 10.2422C17.2537 10.0898 17.4764 9.92578 17.699 9.86719C18.2381 9.65625 18.7068 9.89062 18.9178 10.4766L19.8436 13.0312C19.9959 13.4414 20.4295 13.582 20.8045 13.4531C21.1795 13.3242 21.4021 12.9375 21.2498 12.5273L20.4881 10.4414C20.6404 10.2891 20.8748 10.1367 21.0857 10.0547C21.6482 9.85547 22.1053 10.0898 22.3162 10.6758L22.9373 12.3984C23.0896 12.7969 23.5232 12.9492 23.8982 12.8086C24.2615 12.6797 24.4842 12.2812 24.3436 11.8828L23.8865 10.6172C24.8592 10.2539 25.7732 11.0625 26.4178 12.8203L27.1443 14.8242C28.7615 19.2539 27.3084 22.6172 23.4061 24.0469Z" fill="black" fill-opacity="0.85"/>
 </g>
</svg>
