<?xml version="1.0" encoding="UTF-8"?>
<!--Generator: Apple Native CoreSVG 360-->
<!DOCTYPE svg
PUBLIC "-//W3C//DTD SVG 1.1//EN"
       "http://www.w3.org/Graphics/SVG/1.1/DTD/svg11.dtd">
<svg version="1.1" xmlns="http://www.w3.org/2000/svg" xmlns:xlink="http://www.w3.org/1999/xlink" viewBox="0 0 18.5859 25.793">
 <g>
  <rect height="25.793" opacity="0" width="18.5859" x="0" y="0"/>
  <path d="M1.17188 11.7773L2.94141 11.7773L2.94141 3.23438C2.94141 2.28516 3.48047 1.71094 4.52344 1.71094L13.6992 1.71094C14.7422 1.71094 15.293 2.28516 15.293 3.23438L15.293 4.14844L17.0625 4.14844L17.0625 2.98828C17.0625 1.23047 15.8438 0 13.9336 0L4.28906 0C2.37891 0 1.16016 1.23047 1.16016 2.98828ZM4.30078 25.2891L13.9453 25.2891C15.8555 25.2891 17.0742 24.0469 17.0742 22.2891L17.0742 13.5L15.3047 13.5L15.3047 22.043C15.3047 23.0039 14.7539 23.5781 13.7109 23.5781L4.53516 23.5781C3.49219 23.5781 2.94141 23.0039 2.94141 22.043L2.94141 21.1289L1.17188 21.1289L1.17188 22.2891C1.17188 24.0469 2.39062 25.2891 4.30078 25.2891Z" fill="black" fill-opacity="0.85"/>
  <path d="M17.2617 5.58984L12.4336 5.58984C11.9648 5.58984 11.6953 5.96484 11.6953 6.32812C11.707 6.70312 11.9766 7.08984 12.4688 7.08984L14.2969 7.10156L16.9219 6.91406L16.9219 6.91406L16.7227 9.51562L16.7109 11.4023C16.7109 11.9062 17.1094 12.1641 17.4844 12.1758C17.8594 12.1641 18.2344 11.918 18.2344 11.4375L18.2344 6.55078C18.2344 5.92969 17.8828 5.58984 17.2617 5.58984ZM17.2031 7.72266C17.4961 7.40625 17.5078 6.9375 17.2031 6.63281C16.8984 6.32812 16.418 6.33984 16.1016 6.63281L14.3555 8.27344L12.5156 10.0898C12.3281 10.2773 12.2695 10.4883 12.2578 10.6758C12.2578 11.1211 12.7148 11.5664 13.1719 11.5664C13.3242 11.5664 13.5586 11.4961 13.7227 11.3203L15.5508 9.49219ZM0.972656 19.6992L5.80078 19.6992C6.26953 19.6992 6.53906 19.3242 6.53906 18.9492C6.52734 18.5742 6.25781 18.1875 5.76562 18.1875L3.9375 18.1758L1.30078 18.375L1.30078 18.375L1.51172 15.7617L1.52344 13.875C1.52344 13.3711 1.125 13.1133 0.75 13.1016C0.375 13.1133 0 13.3594 0 13.8398L0 18.7266C0 19.3477 0.351562 19.6992 0.972656 19.6992ZM1.03125 17.5547C0.738281 17.8711 0.726562 18.3398 1.03125 18.6445C1.33594 18.9492 1.81641 18.9375 2.13281 18.6445L3.87891 17.0039L5.71875 15.1875C5.90625 15.0117 5.96484 14.8008 5.97656 14.6016C5.97656 14.1562 5.51953 13.7227 5.0625 13.7227C4.91016 13.7227 4.67578 13.7812 4.51172 13.957L2.68359 15.7969Z" fill="black" fill-opacity="0.85"/>
 </g>
</svg>
