<?xml version="1.0" encoding="UTF-8"?>
<!--Generator: Apple Native CoreSVG 360-->
<!DOCTYPE svg
PUBLIC "-//W3C//DTD SVG 1.1//EN"
       "http://www.w3.org/Graphics/SVG/1.1/DTD/svg11.dtd">
<svg version="1.1" xmlns="http://www.w3.org/2000/svg" xmlns:xlink="http://www.w3.org/1999/xlink" viewBox="0 0 30.5625 25.1367">
 <g>
  <rect height="25.1367" opacity="0" width="30.5625" x="0" y="0"/>
  <path d="M21.2109 4.91016L21.2109 9.43359L19.3242 9.43359L19.3242 4.89844C19.3242 2.97656 18.2461 1.88672 16.3125 1.88672L6.39844 1.88672C4.47656 1.88672 3.38672 2.97656 3.38672 4.89844L3.38672 20.2266C3.38672 22.1602 4.47656 23.2383 6.39844 23.2383L16.3125 23.2383C18.2461 23.2383 19.3242 22.1602 19.3242 20.2266L19.3242 15.6914L21.2109 15.6914L21.2109 20.2266C21.2109 23.3789 19.4648 25.125 16.3125 25.125L6.41016 25.125C3.25781 25.125 1.5 23.3789 1.5 20.2266L1.5 4.91016C1.5 1.75781 3.25781 0 6.41016 0L16.3125 0C19.4648 0 21.2109 1.75781 21.2109 4.91016Z" fill="black" fill-opacity="0.85"/>
  <path d="M11.5664 12.5625C11.5664 13.0664 11.9766 13.4883 12.4688 13.4883L24.3984 13.4883L27.5508 13.3477C27.9844 13.3242 28.3359 12.9961 28.3359 12.5625C28.3359 12.1289 27.9844 11.8008 27.5508 11.7773L24.3984 11.625L12.4688 11.625C11.9766 11.625 11.5664 12.0586 11.5664 12.5625ZM23.2383 8.58984C23.2383 8.8125 23.332 9.07031 23.5195 9.23438L25.4531 11.0391L27.0703 12.5625L25.4531 14.0742L23.5195 15.8906C23.332 16.0547 23.2383 16.3008 23.2383 16.5234C23.2383 17.0039 23.5898 17.3789 24.0703 17.3789C24.3164 17.3789 24.5039 17.2734 24.6797 17.0977L28.4062 13.2422C28.6406 13.0078 28.7227 12.7969 28.7227 12.5625C28.7227 12.3164 28.6406 12.1172 28.4062 11.8828L24.6797 8.01562C24.5039 7.83984 24.3164 7.74609 24.0703 7.74609C23.5898 7.74609 23.2383 8.09766 23.2383 8.58984Z" fill="black" fill-opacity="0.85"/>
 </g>
</svg>
