<?xml version="1.0" encoding="UTF-8"?>
<!--Generator: Apple Native CoreSVG 360-->
<!DOCTYPE svg
PUBLIC "-//W3C//DTD SVG 1.1//EN"
       "http://www.w3.org/Graphics/SVG/1.1/DTD/svg11.dtd">
<svg version="1.1" xmlns="http://www.w3.org/2000/svg" xmlns:xlink="http://www.w3.org/1999/xlink" viewBox="0 0 31.416 28.187">
 <g>
  <rect height="28.187" opacity="0" width="31.416" x="0" y="0"/>
  <path d="M19.0595 5.19312L5.42479 5.19312C4.25292 5.19312 3.59667 5.82593 3.59667 7.04468L3.59667 21.1541C3.59667 22.3728 4.25292 22.9939 5.42479 22.9939L25.6396 22.9939C26.7998 22.9939 27.4678 22.3728 27.4678 21.1541L27.4678 14.7205L29.3545 12.8337L29.3545 21.2595C29.3545 23.6736 28.124 24.8806 25.6748 24.8806L5.38963 24.8806C2.95213 24.8806 1.70995 23.6736 1.70995 21.2595L1.70995 6.93922C1.70995 4.52515 2.95213 3.3064 5.38963 3.3064L20.9432 3.3064Z" fill="black" fill-opacity="0.85"/>
  <path d="M16.6279 16.5955C18.4443 18.4119 21.1982 18.4587 23.0967 16.5603L28.8506 10.8064C29.1318 10.5134 29.1201 10.0564 28.8389 9.79859C28.5459 9.52906 28.1474 9.52906 27.8545 9.82203L22.1474 15.5291C20.7998 16.8767 18.9014 16.8767 17.6474 15.5877C16.3701 14.2752 16.3349 12.4119 17.6943 11.0642L24.8896 3.89234C25.7803 3.00172 26.9873 2.99 27.7373 3.71656C28.4756 4.44312 28.4521 5.63843 27.5615 6.5525L20.5537 13.5955C20.2724 13.8884 19.8974 13.8767 19.6396 13.5955C19.3467 13.3142 19.3584 12.9509 19.6514 12.658L24.6084 7.70093C24.9014 7.40797 24.8896 7.00953 24.6318 6.74C24.3623 6.48218 23.9756 6.47047 23.6826 6.77515L18.6904 11.7673C17.8701 12.5759 17.8701 13.8416 18.6318 14.5916C19.4287 15.3884 20.624 15.3884 21.456 14.5447L28.5107 7.50172C29.9756 6.02515 29.9521 4.10328 28.6279 2.76734C27.3271 1.46656 25.3349 1.44312 23.9053 2.88453L16.6748 10.115C14.7764 12.0134 14.8349 14.8025 16.6279 16.5955Z" fill="black" fill-opacity="0.85"/>
 </g>
</svg>
