<?xml version="1.0" encoding="UTF-8"?>
<!--Generator: Apple Native CoreSVG 360-->
<!DOCTYPE svg
PUBLIC "-//W3C//DTD SVG 1.1//EN"
       "http://www.w3.org/Graphics/SVG/1.1/DTD/svg11.dtd">
<svg version="1.1" xmlns="http://www.w3.org/2000/svg" xmlns:xlink="http://www.w3.org/1999/xlink" viewBox="0 0 24.2695 34.0146">
 <g>
  <rect height="34.0146" opacity="0" width="24.2695" x="0" y="0"/>
  <path d="M18.7852 4.66161L18.7852 0.747544C18.7852-0.0258931 18.1875-0.201674 17.6016 0.231919L14.9414 2.18895C14.4961 2.51708 14.4844 2.88036 14.9414 3.2202L17.6016 5.15379C18.1875 5.58739 18.7852 5.41161 18.7852 4.66161ZM17.1328 2.13036C16.793 2.13036 16.5117 2.41161 16.5117 2.75145C16.5117 3.09129 16.793 3.37254 17.1328 3.37254L18.9727 3.37254C21.1523 3.37254 22.582 4.83739 22.582 7.06395L22.582 8.49364C22.582 8.85692 22.8867 9.16161 23.25 9.16161C23.6016 9.16161 23.918 8.85692 23.918 8.49364L23.918 7.06395C23.918 4.09911 21.9492 2.13036 18.9844 2.13036ZM5.13281 29.3179L5.13281 33.2319C5.13281 34.0171 5.73047 34.1811 6.31641 33.7475L8.97656 31.8022C9.42188 31.4741 9.43359 31.0991 8.97656 30.771L6.31641 28.8257C5.73047 28.3921 5.13281 28.5679 5.13281 29.3179ZM6.78516 31.8491C7.125 31.8491 7.40625 31.5679 7.40625 31.228C7.40625 30.8882 7.125 30.6186 6.78516 30.6186L4.93359 30.6186C2.76562 30.6186 1.33594 29.1421 1.33594 26.9155L1.33594 25.4975C1.33594 25.1343 1.03125 24.8179 0.667969 24.8179C0.316406 24.8179 0 25.1343 0 25.4975L0 26.9272C0 29.8921 1.95703 31.8491 4.92188 31.8491Z" fill="black" fill-opacity="0.85"/>
  <path d="M7.27734 26.2944L16.6406 26.2944C18.0586 26.2944 19.1016 25.3218 19.1016 23.9624L19.1016 10.0405C19.1016 8.68114 18.0586 7.69676 16.6406 7.69676L7.27734 7.69676C5.85938 7.69676 4.82812 8.68114 4.82812 10.0405L4.82812 23.9624C4.82812 25.3218 5.85938 26.2944 7.27734 26.2944ZM7.44141 24.5249C6.94922 24.5249 6.59766 24.2085 6.59766 23.7515L6.59766 10.2515C6.59766 9.7827 6.94922 9.45458 7.44141 9.45458L16.4766 9.45458C16.9922 9.45458 17.3438 9.7827 17.3438 10.2515L17.3438 23.7515C17.3438 24.2085 16.9922 24.5249 16.4766 24.5249Z" fill="black" fill-opacity="0.85"/>
 </g>
</svg>
