<?xml version="1.0" encoding="UTF-8"?>
<!--Generator: Apple Native CoreSVG 360-->
<!DOCTYPE svg
PUBLIC "-//W3C//DTD SVG 1.1//EN"
       "http://www.w3.org/Graphics/SVG/1.1/DTD/svg11.dtd">
<svg version="1.1" xmlns="http://www.w3.org/2000/svg" xmlns:xlink="http://www.w3.org/1999/xlink" viewBox="0 0 38.6924 27.727">
 <g>
  <rect height="27.727" opacity="0" width="38.6924" x="0" y="0"/>
  <path d="M24.3118 10.0842L6.52588 10.0842C4.60401 10.0842 3.51417 11.174 3.51417 13.0959L3.51417 19.8576C3.51417 21.7912 4.60401 22.8811 6.52588 22.8811L26.647 22.8811C28.5806 22.8811 29.6587 21.7912 29.6587 19.8576L29.6587 13.2917L31.3822 11.5714C31.4914 12.0337 31.5454 12.5434 31.5454 13.0959L31.5454 19.8576C31.5454 23.01 29.7993 24.7561 26.647 24.7561L6.52588 24.7561C3.38526 24.7561 1.62745 23.01 1.62745 19.8576L1.62745 13.0959C1.62745 9.95529 3.38526 8.19748 6.52588 8.19748L26.1968 8.19748Z" fill="black" fill-opacity="0.85"/>
  <path d="M24.2329 16.1779L34.7564 5.66623L33.0103 3.92014L22.4985 14.4319L21.5259 16.6701C21.4321 16.9045 21.6782 17.174 21.936 17.0803ZM35.6118 4.81076L36.5493 3.88498C36.9946 3.43967 37.0181 2.78342 36.561 2.34982L36.2564 2.06857C35.8579 1.70529 35.2251 1.69357 34.8032 2.12717L33.8774 3.07639Z" fill="black" fill-opacity="0.85"/>
  <path d="M17.9517 18.0881C18.8774 18.0881 19.6274 17.3381 19.6274 16.4123C19.6274 15.4865 18.8774 14.7365 17.9517 14.7365C17.0259 14.7365 16.2759 15.4865 16.2759 16.4123C16.2759 17.3381 17.0259 18.0881 17.9517 18.0881Z" fill="black" fill-opacity="0.85"/>
  <path d="M12.9009 18.0881C13.8267 18.0881 14.5767 17.3381 14.5767 16.4123C14.5767 15.4865 13.8267 14.7365 12.9009 14.7365C11.9751 14.7365 11.2251 15.4865 11.2251 16.4123C11.2251 17.3381 11.9751 18.0881 12.9009 18.0881Z" fill="black" fill-opacity="0.85"/>
  <path d="M7.8501 18.0881C8.77588 18.0881 9.52588 17.3381 9.52588 16.4123C9.52588 15.4865 8.77588 14.7365 7.8501 14.7365C6.92432 14.7365 6.17432 15.4865 6.17432 16.4123C6.17432 17.3381 6.92432 18.0881 7.8501 18.0881Z" fill="black" fill-opacity="0.85"/>
 </g>
</svg>
