<?xml version="1.0" encoding="UTF-8"?>
<!--Generator: Apple Native CoreSVG 360-->
<!DOCTYPE svg
PUBLIC "-//W3C//DTD SVG 1.1//EN"
       "http://www.w3.org/Graphics/SVG/1.1/DTD/svg11.dtd">
<svg version="1.1" xmlns="http://www.w3.org/2000/svg" xmlns:xlink="http://www.w3.org/1999/xlink" viewBox="0 0 32.5593 28.5044">
 <g>
  <rect height="28.5044" opacity="0" width="32.5593" x="0" y="0"/>
  <path d="M24.7757 4.26197L24.7757 9.4792C24.2178 9.22992 23.6464 9.16399 23.1234 9.21652L23.1234 4.35572C23.1234 3.0901 22.432 2.39869 21.1898 2.39869L5.73275 2.39869C4.47885 2.39869 3.78744 3.0901 3.78744 4.35572L3.78744 15.9924C3.78744 17.2581 4.49057 17.9612 5.73275 17.9612L9.75892 17.9612C9.77904 18.0434 9.80468 18.1255 9.83432 18.2073C9.97494 18.594 10.1859 18.9573 10.432 19.262L10.7138 19.6135L5.6976 19.6135C3.31869 19.6135 2.1351 18.4534 2.1351 16.0979L2.1351 4.26197C2.1351 1.89478 3.31869 0.746347 5.6976 0.746347L21.2249 0.746347C23.6038 0.746347 24.7757 1.89478 24.7757 4.26197Z" fill="black" fill-opacity="0.85"/>
  <path d="M25.7015 26.3401C30.4828 24.6057 32.0765 20.6331 30.2132 15.5237L29.4398 13.4026C28.7367 11.469 27.3773 10.6135 26.3226 11.0003C26.0882 11.094 25.9945 11.2581 26.0882 11.4807L26.4281 12.4299C26.5921 12.8635 26.4398 13.1799 26.182 13.2737C25.889 13.3792 25.5843 13.2385 25.4203 12.7932L25.1976 12.1721C24.7874 11.0354 23.7913 10.5549 22.7953 10.9182C22.3499 11.0823 22.221 11.3401 22.3499 11.7268L22.8187 12.9924C22.9828 13.4378 22.8304 13.7307 22.5726 13.8245C22.2913 13.9299 21.9749 13.801 21.8226 13.3674L21.4007 12.1721C20.9203 10.9065 19.9593 10.5784 18.9984 10.9182C18.5882 11.0706 18.4359 11.3518 18.5531 11.7151L19.4671 14.2112C19.6312 14.6565 19.4788 14.9612 19.221 15.0549C18.9398 15.1604 18.6351 15.0198 18.471 14.5745L15.4359 6.219C15.1312 5.39869 14.4046 5.07057 13.7249 5.31666C12.9749 5.58619 12.6585 6.30103 12.9515 7.12135L17.4046 19.3557C17.5101 19.6604 17.3812 19.8948 17.1937 19.9534C17.0062 20.0237 16.8187 19.9651 16.5726 19.7073L13.5609 16.4846C13.1156 16.0042 12.6585 15.887 12.1663 16.0745C11.4163 16.344 11.1117 17.0354 11.346 17.6682C11.4281 17.9143 11.557 18.1018 11.6859 18.2659L15.4124 22.9182C18.5413 26.8674 22.1742 27.6174 25.7015 26.3401Z" fill="black" fill-opacity="0.85"/>
 </g>
</svg>
