<?xml version="1.0" encoding="UTF-8"?>
<!--Generator: Apple Native CoreSVG 360-->
<!DOCTYPE svg
PUBLIC "-//W3C//DTD SVG 1.1//EN"
       "http://www.w3.org/Graphics/SVG/1.1/DTD/svg11.dtd">
<svg version="1.1" xmlns="http://www.w3.org/2000/svg" xmlns:xlink="http://www.w3.org/1999/xlink" viewBox="0 0 25.0781 22.6523">
 <g>
  <rect height="22.6523" opacity="0" width="25.0781" x="0" y="0"/>
  <path d="M1.17188 13.6523C1.17188 14.1328 1.57031 14.4961 2.05078 14.5195L5.89453 14.6953L20.8594 14.6953C23.5898 14.6953 24.7266 13.4414 24.7266 10.793L24.7266 3.86719C24.7266 1.13672 23.5898 0 20.8594 0L14.2969 0C13.6523 0 13.2305 0.46875 13.2305 1.04297C13.2305 1.61719 13.6523 2.08594 14.2969 2.08594L20.8594 2.08594C22.1016 2.08594 22.6289 2.625 22.6289 3.86719L22.6289 10.793C22.6289 12.0703 22.1016 12.6094 20.8594 12.6094L5.89453 12.6094L2.05078 12.7734C1.57031 12.7969 1.17188 13.1602 1.17188 13.6523ZM0 13.6523C0 13.9336 0.117188 14.2148 0.351562 14.4375L7.24219 21.1992C7.44141 21.3984 7.74609 21.5156 7.99219 21.5156C8.625 21.5156 9.03516 21.0938 9.03516 20.4844C9.03516 20.1797 8.92969 19.957 8.75391 19.7695L5.36719 16.4766L2.47266 13.9922L2.47266 13.3008L5.36719 10.8281L8.75391 7.53516C8.92969 7.34766 9.03516 7.11328 9.03516 6.80859C9.03516 6.21094 8.625 5.77734 7.99219 5.77734C7.74609 5.77734 7.44141 5.90625 7.24219 6.10547L0.351562 12.8672C0.117188 13.0898 0 13.3594 0 13.6523Z" fill="black" fill-opacity="0.85"/>
 </g>
</svg>
