<?xml version="1.0" encoding="UTF-8"?>
<!--Generator: Apple Native CoreSVG 360-->
<!DOCTYPE svg
PUBLIC "-//W3C//DTD SVG 1.1//EN"
       "http://www.w3.org/Graphics/SVG/1.1/DTD/svg11.dtd">
<svg version="1.1" xmlns="http://www.w3.org/2000/svg" xmlns:xlink="http://www.w3.org/1999/xlink" viewBox="0 0 25.0781 22.6523">
 <g>
  <rect height="22.6523" opacity="0" width="25.0781" x="0" y="0"/>
  <path d="M23.543 13.6523C23.543 13.1602 23.1562 12.7969 22.6758 12.7734L18.8203 12.6094L3.86719 12.6094C2.625 12.6094 2.08594 12.0703 2.08594 10.793L2.08594 3.86719C2.08594 2.625 2.625 2.08594 3.86719 2.08594L10.4297 2.08594C11.0742 2.08594 11.4961 1.61719 11.4961 1.04297C11.4961 0.46875 11.0742 0 10.4297 0L3.86719 0C1.13672 0 0 1.13672 0 3.86719L0 10.793C0 13.4414 1.13672 14.6953 3.86719 14.6953L18.8203 14.6953L22.6758 14.5195C23.1562 14.4961 23.543 14.1328 23.543 13.6523ZM24.7266 13.6523C24.7266 13.3594 24.6094 13.0898 24.375 12.8672L17.4844 6.10547C17.2852 5.90625 16.9805 5.77734 16.7227 5.77734C16.1016 5.77734 15.6914 6.21094 15.6914 6.80859C15.6914 7.11328 15.7852 7.34766 15.9727 7.53516L19.3477 10.8281L22.2539 13.3008L22.2539 13.9922L19.3477 16.4766L15.9727 19.7695C15.7852 19.957 15.6914 20.1797 15.6914 20.4844C15.6914 21.0938 16.1016 21.5156 16.7227 21.5156C16.9805 21.5156 17.2852 21.3984 17.4844 21.1992L24.375 14.4375C24.6094 14.2148 24.7266 13.9336 24.7266 13.6523Z" fill="black" fill-opacity="0.85"/>
 </g>
</svg>
