<?xml version="1.0" encoding="UTF-8"?>
<!--Generator: Apple Native CoreSVG 360-->
<!DOCTYPE svg
PUBLIC "-//W3C//DTD SVG 1.1//EN"
       "http://www.w3.org/Graphics/SVG/1.1/DTD/svg11.dtd">
<svg version="1.1" xmlns="http://www.w3.org/2000/svg" xmlns:xlink="http://www.w3.org/1999/xlink" viewBox="0 0 25.793 25.4648">
 <g>
  <rect height="25.4648" opacity="0" width="25.793" x="0" y="0"/>
  <path d="M12.7148 18.2578C15.9727 18.2578 18.5977 15.6445 18.5977 12.3867C18.5977 9.14062 15.9727 6.50391 12.7148 6.50391C9.48047 6.50391 6.84375 9.14062 6.84375 12.3867C6.84375 15.6445 9.25781 18.2578 12.7148 18.2578ZM12.7148 16.6055C10.2188 16.6055 8.49609 14.7305 8.49609 12.3867C8.49609 10.043 10.3828 8.15625 12.7148 8.15625C15.0703 8.15625 16.9453 10.043 16.9453 12.3867C16.9453 14.7305 15.0703 16.6055 12.7148 16.6055ZM11.8594 24.1523L13.5703 24.1523L13.5703 17.4609L11.8594 17.4609ZM17.1211 25.3828C17.5898 25.3828 17.9648 24.9961 17.9648 24.5273C17.9648 24.0586 17.5898 23.6836 17.1211 23.6836L8.29688 23.6836C7.82812 23.6836 7.45312 24.0586 7.45312 24.5273C7.45312 24.9961 7.82812 25.3828 8.29688 25.3828Z" fill="black" fill-opacity="0.85"/>
  <path d="M12.7148 4.33594C13.2773 4.33594 13.7461 3.86719 13.7461 3.30469L13.7461 1.03125C13.7461 0.46875 13.2773 0 12.7148 0C12.1641 0 11.6953 0.46875 11.6953 1.03125L11.6953 3.30469C11.6953 3.86719 12.1641 4.33594 12.7148 4.33594ZM21.1055 12.7266C21.1055 13.2773 21.5859 13.7461 22.1367 13.7461L24.4102 13.7461C24.9727 13.7461 25.4414 13.2773 25.4414 12.7266C25.4414 12.1758 24.9727 11.707 24.4102 11.707L22.1367 11.707C21.5859 11.707 21.1055 12.1758 21.1055 12.7266ZM4.32422 12.7266C4.32422 12.1758 3.85547 11.707 3.30469 11.707L1.01953 11.707C0.46875 11.707 0 12.1758 0 12.7266C0 13.2773 0.46875 13.7461 1.01953 13.7461L3.30469 13.7461C3.85547 13.7461 4.32422 13.2773 4.32422 12.7266ZM18.6562 6.79688C19.043 7.18359 19.6992 7.18359 20.1094 6.79688L21.7148 5.17969C22.1016 4.78125 22.1016 4.125 21.7148 3.73828C21.3164 3.33984 20.6602 3.33984 20.2734 3.73828L18.6562 5.34375C18.2578 5.74219 18.2578 6.39844 18.6562 6.79688ZM18.6562 18.6562C18.2578 19.0547 18.2578 19.7109 18.6562 20.1094L20.2734 21.7148C20.6602 22.1016 21.3164 22.1016 21.7148 21.7148C22.1016 21.3281 22.1016 20.6602 21.7148 20.2734L20.1094 18.6562C19.6992 18.2695 19.043 18.2695 18.6562 18.6562ZM6.78516 18.6562C6.39844 18.2695 5.74219 18.2695 5.33203 18.6562L3.72656 20.2734C3.33984 20.6602 3.33984 21.3281 3.72656 21.7148C4.125 22.1016 4.78125 22.1016 5.16797 21.7148L6.78516 20.1094C7.17188 19.7109 7.17188 19.0547 6.78516 18.6562ZM6.78516 6.79688C7.17188 6.39844 7.17188 5.74219 6.78516 5.34375L5.16797 3.73828C4.78125 3.33984 4.125 3.33984 3.72656 3.73828C3.33984 4.125 3.33984 4.78125 3.72656 5.17969L5.33203 6.79688C5.74219 7.18359 6.39844 7.18359 6.78516 6.79688Z" fill="black" fill-opacity="0.85"/>
 </g>
</svg>
