<?xml version="1.0" encoding="UTF-8"?>
<!--Generator: Apple Native CoreSVG 360-->
<!DOCTYPE svg
PUBLIC "-//W3C//DTD SVG 1.1//EN"
       "http://www.w3.org/Graphics/SVG/1.1/DTD/svg11.dtd">
<svg version="1.1" xmlns="http://www.w3.org/2000/svg" xmlns:xlink="http://www.w3.org/1999/xlink" viewBox="0 0 27.9844 21.0586">
 <g>
  <rect height="21.0586" opacity="0" width="27.9844" x="0" y="0"/>
  <path d="M9.23438 21.0352L18.3984 21.0352C25.1953 21.0352 27.6328 18.5156 27.6328 12.2461L27.6328 8.80078C27.6328 2.53125 25.1953 0 18.3984 0L9.23438 0C2.4375 0 0 2.53125 0 8.80078L0 12.2461C0 18.5156 2.4375 21.0352 9.23438 21.0352ZM9.23438 19.1484C3.70312 19.1484 1.88672 17.3555 1.88672 12.2461L1.88672 8.80078C1.88672 3.69141 3.70312 1.88672 9.23438 1.88672L18.3984 1.88672C23.9297 1.88672 25.7461 3.69141 25.7461 8.80078L25.7461 12.2461C25.7461 17.3555 23.9297 19.1484 18.3984 19.1484Z" fill="black" fill-opacity="0.85"/>
  <path d="M6.86719 15.4219C7.39453 15.4219 7.72266 15.082 7.72266 14.5312L7.72266 11.6484L8.83594 11.6484L10.0547 14.7188C10.2188 15.1641 10.4766 15.4219 10.9453 15.4219C11.332 15.4219 11.7539 15.1992 11.7539 14.5898C11.7539 14.4609 11.6719 14.2266 11.5664 13.957L10.4531 11.2969C11.4023 10.8047 11.8008 9.78516 11.8008 8.73047C11.8008 6.82031 10.6758 5.80078 8.84766 5.80078L6.85547 5.80078C6.30469 5.80078 6 6.14062 6 6.69141L6 14.5312C6 15.0703 6.31641 15.4219 6.86719 15.4219ZM7.72266 10.3945L7.72266 7.16016L8.68359 7.16016C9.58594 7.16016 10.0664 7.82812 10.0664 8.76562C10.0664 9.69141 9.64453 10.3945 8.68359 10.3945ZM14.1211 15.4336C14.5781 15.4336 14.8828 15.1172 14.8828 14.6133L14.8828 8.28516L14.9531 8.28516L16.5469 14.4844C16.6641 14.9297 16.9336 15.2578 17.4023 15.2578C17.8945 15.2578 18.1406 14.9414 18.2578 14.4727L19.8516 8.28516L19.9219 8.28516L19.9219 14.6133C19.9219 15.1172 20.2031 15.4336 20.6719 15.4336C21.1758 15.4336 21.4336 15.1172 21.4336 14.6133L21.4336 6.84375C21.4336 6.08203 20.9766 5.64844 20.2383 5.64844C19.5586 5.64844 19.1719 5.97656 19.0195 6.63281L17.4258 13.0195L17.3789 13.0195L15.75 6.63281C15.6094 5.97656 15.1992 5.64844 14.5664 5.64844C13.8164 5.64844 13.3594 6.10547 13.3594 6.84375L13.3594 14.6133C13.3594 15.1172 13.6523 15.4336 14.1211 15.4336Z" fill="black" fill-opacity="0.85"/>
 </g>
</svg>
