<?xml version="1.0" encoding="UTF-8"?>
<!--Generator: Apple Native CoreSVG 360-->
<!DOCTYPE svg
PUBLIC "-//W3C//DTD SVG 1.1//EN"
       "http://www.w3.org/Graphics/SVG/1.1/DTD/svg11.dtd">
<svg version="1.1" xmlns="http://www.w3.org/2000/svg" xmlns:xlink="http://www.w3.org/1999/xlink" viewBox="0 0 38.3115 17.5664">
 <g>
  <rect height="17.5664" opacity="0" width="38.3115" x="0" y="0"/>
  <path d="M5.27491 17.5664L6.79835 17.5664C7.50148 17.5664 7.85304 17.2266 8.05226 16.7227L14.521 0.75C14.6851 0.363281 14.4976 0.0234375 14.0874 0.0234375L13.3257 0.0234375C12.9155 0.0234375 12.6577 0.222656 12.4819 0.574219L4.4546 16.2656C4.12648 16.8633 4.36085 17.5664 5.27491 17.5664ZM31.1499 17.5664L32.6734 17.5664C33.5874 17.5664 33.8218 16.8633 33.4937 16.2656L25.478 0.574219C25.2905 0.222656 25.0327 0.0234375 24.6226 0.0234375L23.8609 0.0234375C23.4507 0.0234375 23.2632 0.363281 23.4273 0.75L29.896 16.7227C30.0952 17.2266 30.4468 17.5664 31.1499 17.5664Z" fill="black" fill-opacity="0.85"/>
  <path d="M4.56007 9.85547C5.11085 10.1953 5.61476 9.92578 5.61476 9.29297L5.61476 4.07812C5.61476 3.45703 5.11085 3.16406 4.56007 3.50391L0.399914 6.05859C-0.127429 6.375-0.139148 6.99609 0.399914 7.32422ZM33.3999 9.85547L37.5601 7.32422C38.0874 6.98438 38.0874 6.38672 37.5601 6.05859L33.3999 3.50391C32.8374 3.17578 32.3452 3.45703 32.3452 4.07812L32.3452 9.29297C32.3452 9.92578 32.8374 10.1836 33.3999 9.85547Z" fill="black" fill-opacity="0.85"/>
 </g>
</svg>
