<?xml version="1.0" encoding="UTF-8"?>
<!--Generator: Apple Native CoreSVG 360-->
<!DOCTYPE svg
PUBLIC "-//W3C//DTD SVG 1.1//EN"
       "http://www.w3.org/Graphics/SVG/1.1/DTD/svg11.dtd">
<svg version="1.1" xmlns="http://www.w3.org/2000/svg" xmlns:xlink="http://www.w3.org/1999/xlink" viewBox="0 0 29.9214 17.5664">
 <g>
  <rect height="17.5664" opacity="0" width="29.9214" x="0" y="0"/>
  <path d="M0.775138 17.5664L2.19311 17.5664C2.79076 17.5664 3.07201 17.2852 3.16576 16.875C4.52514 11.5078 4.61889 5.97656 2.83764 0.515625C2.72045 0.152344 2.47436 0.0234375 2.08764 0.0234375L1.63061 0.0234375C1.26733 0.0234375 0.986076 0.246094 1.09154 0.714844C2.40404 6.45703 2.01733 11.3438 0.0720133 16.5117C-0.138924 17.0977 0.118888 17.5664 0.775138 17.5664ZM27.4119 17.5664L28.7126 17.5664C29.4392 17.5664 29.6619 17.0625 29.533 16.5117C27.8806 8.89453 23.5681 3.71484 19.3962 0.421875C18.9744 0.0820312 18.74 0.0234375 18.447 0.0234375L17.9197 0.0234375C17.5681 0.0234375 17.3337 0.445312 17.6267 0.75C22.783 6 25.2087 10.7695 26.2634 16.6055C26.3572 17.1445 26.5915 17.5664 27.4119 17.5664ZM11.4978 3.07031L11.9548 3.07031C12.4822 3.07031 12.6814 2.57812 12.3884 2.14453C11.8728 1.37109 11.3455 0.714844 10.9353 0.292969C10.7361 0.0820312 10.5603 0.0234375 10.2322 0.0234375L9.88061 0.0234375C9.48217 0.0234375 9.22436 0.363281 9.48217 0.75C10.0681 1.64062 10.3962 2.20312 10.6189 2.60156C10.8181 2.96484 11.0525 3.07031 11.4978 3.07031ZM13.6775 8.8125L14.615 8.8125C15.1775 8.8125 15.3415 8.4375 15.1892 7.99219C14.908 7.17188 14.5915 6.36328 14.3455 5.78906C14.158 5.41406 13.9705 5.27344 13.5251 5.27344L12.8103 5.27344C12.365 5.27344 12.0486 5.53125 12.2478 6.08203C12.5056 6.85547 12.7165 7.60547 12.8337 8.14453C12.9509 8.56641 13.1736 8.8125 13.6775 8.8125ZM14.8494 17.5664L15.7751 17.5664C16.3025 17.5664 16.572 17.2852 16.5603 16.7344C16.5134 15.1523 16.3142 13.1133 15.9861 11.8125C15.8689 11.3438 15.5642 11.168 15.1423 11.168L14.4392 11.168C13.8884 11.168 13.6306 11.3672 13.7244 12.0469C13.8767 13.2188 13.9939 14.9414 14.029 16.7461C14.029 17.3086 14.322 17.5664 14.8494 17.5664Z" fill="black" fill-opacity="0.85"/>
 </g>
</svg>
