<?xml version="1.0" encoding="UTF-8"?>
<!--Generator: Apple Native CoreSVG 360-->
<!DOCTYPE svg
PUBLIC "-//W3C//DTD SVG 1.1//EN"
       "http://www.w3.org/Graphics/SVG/1.1/DTD/svg11.dtd">
<svg version="1.1" xmlns="http://www.w3.org/2000/svg" xmlns:xlink="http://www.w3.org/1999/xlink" viewBox="0 0 38.3086 17.5664">
 <g>
  <rect height="17.5664" opacity="0" width="38.3086" x="0" y="0"/>
  <path d="M5.27344 17.5664L6.80859 17.5664C7.51172 17.5664 7.85156 17.2266 8.05078 16.7227L14.5195 0.75C14.6836 0.363281 14.4961 0.0234375 14.0977 0.0234375L13.3242 0.0234375C12.9258 0.0234375 12.6562 0.222656 12.4922 0.574219L4.45312 16.2656C4.13672 16.8633 4.35938 17.5664 5.27344 17.5664ZM31.1484 17.5664L32.6836 17.5664C33.5859 17.5664 33.8203 16.8633 33.5039 16.2656L25.4766 0.574219C25.2891 0.222656 25.0312 0.0234375 24.6328 0.0234375L23.8594 0.0234375C23.4492 0.0234375 23.2734 0.363281 23.4375 0.75L29.8945 16.7227C30.0938 17.2266 30.4453 17.5664 31.1484 17.5664Z" fill="black" fill-opacity="0.85"/>
  <path d="M1.06641 9.85547L5.22656 7.32422C5.75391 6.99609 5.74219 6.375 5.22656 6.05859L1.05469 3.50391C0.503906 3.16406 0 3.45703 0 4.07812L0 9.29297C0 9.92578 0.515625 10.1953 1.06641 9.85547ZM36.8906 9.85547C37.4531 10.1836 37.957 9.92578 37.957 9.29297L37.957 4.07812C37.957 3.45703 37.4531 3.17578 36.8906 3.50391L32.7305 6.05859C32.2148 6.38672 32.2031 6.98438 32.7305 7.32422Z" fill="black" fill-opacity="0.85"/>
 </g>
</svg>
