<?xml version="1.0" encoding="UTF-8"?>
<!--Generator: Apple Native CoreSVG 360-->
<!DOCTYPE svg
PUBLIC "-//W3C//DTD SVG 1.1//EN"
       "http://www.w3.org/Graphics/SVG/1.1/DTD/svg11.dtd">
<svg version="1.1" xmlns="http://www.w3.org/2000/svg" xmlns:xlink="http://www.w3.org/1999/xlink" viewBox="0 0 26.918 24.293">
 <g>
  <rect height="24.293" opacity="0" width="26.918" x="0" y="0"/>
  <path d="M21.1289 24.293C22.2305 24.293 23.1211 23.4023 23.1211 22.2891C23.1211 21.1875 22.2305 20.2969 21.1289 20.2969C20.0156 20.2969 19.125 21.1875 19.125 22.2891C19.125 23.4023 20.0156 24.293 21.1289 24.293Z" fill="black" fill-opacity="0.85"/>
  <path d="M13.2773 24.293C14.3906 24.293 15.2812 23.4023 15.2812 22.2891C15.2812 21.1875 14.3906 20.2969 13.2773 20.2969C12.1758 20.2969 11.2852 21.1875 11.2852 22.2891C11.2852 23.4023 12.1758 24.293 13.2773 24.293Z" fill="black" fill-opacity="0.85"/>
  <path d="M5.4375 24.293C6.5625 24.293 7.45312 23.4023 7.45312 22.2891C7.45312 21.1875 6.5625 20.2969 5.4375 20.2969C4.33594 20.2969 3.44531 21.1875 3.44531 22.2891C3.44531 23.4023 4.33594 24.293 5.4375 24.293Z" fill="black" fill-opacity="0.85"/>
  <path d="M13.2773 11.9062C21.0117 11.9062 26.5664 9.62109 26.5664 6.12891C26.5664 2.60156 20.7773 0.339844 13.2773 0.339844C5.78906 0.339844 0 2.60156 0 6.12891C0 9.62109 5.55469 11.9062 13.2773 11.9062ZM13.2773 17.4609C20.6836 17.4609 26.5664 15.1875 26.5664 11.6367L26.5664 6.14062L24.8438 7.64062L24.8438 11.4023C24.8438 13.7578 20.0625 15.5977 13.2773 15.5977C6.50391 15.5977 1.72266 13.7578 1.72266 11.4023L1.72266 7.64062L0 6.14062L0 11.6367C0 15.1875 5.88281 17.4609 13.2773 17.4609ZM13.3711 16.5L21.3164 15.1523L21.3164 13.8633C21.3164 13.3711 20.918 13.1133 20.4609 13.2305C18.0586 13.9102 15.2812 14.1211 13.2773 14.1211C11.2969 14.1211 8.50781 13.9102 6.10547 13.2305C5.64844 13.1133 5.25 13.3711 5.25 13.8633L5.25 15.1523ZM13.2773 10.043C7.52344 10.043 1.93359 8.48438 1.93359 6.12891C1.93359 3.94922 6.1875 1.99219 13.2773 1.99219C20.3789 1.99219 24.6328 3.94922 24.6328 6.12891C24.6328 8.48438 19.043 10.043 13.2773 10.043ZM9.28125 8.74219C9.9375 8.74219 10.4883 8.48438 10.4883 8.15625C10.4883 7.82812 9.9375 7.57031 9.28125 7.57031C8.625 7.57031 8.08594 7.82812 8.08594 8.15625C8.08594 8.48438 8.625 8.74219 9.28125 8.74219ZM13.2773 9.21094C13.9336 9.21094 14.4844 8.94141 14.4844 8.61328C14.4844 8.29688 13.9336 8.01562 13.2773 8.01562C12.6328 8.01562 12.0938 8.29688 12.0938 8.61328C12.0938 8.94141 12.6328 9.21094 13.2773 9.21094ZM13.2773 6.31641C15.5859 6.31641 16.875 5.70703 16.875 4.81641C16.875 3.94922 15.6094 3.30469 13.2773 3.30469C10.957 3.30469 9.70312 3.94922 9.70312 4.81641C9.70312 5.70703 10.9805 6.31641 13.2773 6.31641ZM13.2773 5.41406C11.8242 5.41406 11.0508 5.15625 11.0508 4.81641C11.0508 4.48828 11.7773 4.20703 13.2773 4.20703C14.7773 4.20703 15.4922 4.48828 15.4922 4.81641C15.4922 5.15625 14.7305 5.41406 13.2773 5.41406ZM17.2852 8.74219C17.9414 8.74219 18.4922 8.48438 18.4922 8.15625C18.4922 7.82812 17.9414 7.57031 17.2852 7.57031C16.6289 7.57031 16.0898 7.82812 16.0898 8.15625C16.0898 8.48438 16.6289 8.74219 17.2852 8.74219Z" fill="black" fill-opacity="0.85"/>
 </g>
</svg>
