<?xml version="1.0" encoding="UTF-8"?>
<!--Generator: Apple Native CoreSVG 360-->
<!DOCTYPE svg
PUBLIC "-//W3C//DTD SVG 1.1//EN"
       "http://www.w3.org/Graphics/SVG/1.1/DTD/svg11.dtd">
<svg version="1.1" xmlns="http://www.w3.org/2000/svg" xmlns:xlink="http://www.w3.org/1999/xlink" viewBox="0 0 26.918 17.168">
 <g>
  <rect height="17.168" opacity="0" width="26.918" x="0" y="0"/>
  <path d="M13.2773 11.5547C21.0117 11.5547 26.5664 9.28125 26.5664 5.78906C26.5664 2.26172 20.7773 0 13.2773 0C5.78906 0 0 2.26172 0 5.78906C0 9.28125 5.55469 11.5547 13.2773 11.5547ZM13.2773 17.1094C20.6836 17.1094 26.5664 14.8477 26.5664 11.2852L26.5664 5.80078L24.8438 7.30078L24.8438 11.0508C24.8438 13.4062 20.0625 15.2461 13.2773 15.2461C6.50391 15.2461 1.72266 13.4062 1.72266 11.0508L1.72266 7.30078L0 5.80078L0 11.2852C0 14.8477 5.88281 17.1094 13.2773 17.1094ZM13.3711 16.1602L21.3164 14.8008L21.3164 13.5234C21.3164 13.0312 20.918 12.7617 20.4609 12.8906C18.0586 13.5703 15.2812 13.7812 13.2773 13.7812C11.2969 13.7812 8.50781 13.5703 6.10547 12.8906C5.64844 12.7617 5.25 13.0312 5.25 13.5234L5.25 14.8008ZM13.2773 9.69141C7.52344 9.69141 1.93359 8.14453 1.93359 5.78906C1.93359 3.60938 6.1875 1.65234 13.2773 1.65234C20.3789 1.65234 24.6328 3.60938 24.6328 5.78906C24.6328 8.14453 19.043 9.69141 13.2773 9.69141ZM9.28125 8.40234C9.9375 8.40234 10.4883 8.14453 10.4883 7.80469C10.4883 7.48828 9.9375 7.23047 9.28125 7.23047C8.625 7.23047 8.08594 7.48828 8.08594 7.80469C8.08594 8.14453 8.625 8.40234 9.28125 8.40234ZM13.2773 8.87109C13.9336 8.87109 14.4844 8.58984 14.4844 8.27344C14.4844 7.95703 13.9336 7.67578 13.2773 7.67578C12.6328 7.67578 12.0938 7.95703 12.0938 8.27344C12.0938 8.58984 12.6328 8.87109 13.2773 8.87109ZM13.2773 5.96484C15.5859 5.96484 16.875 5.36719 16.875 4.46484C16.875 3.60938 15.6094 2.96484 13.2773 2.96484C10.957 2.96484 9.70312 3.60938 9.70312 4.46484C9.70312 5.36719 10.9805 5.96484 13.2773 5.96484ZM13.2773 5.07422C11.8242 5.07422 11.0508 4.80469 11.0508 4.46484C11.0508 4.14844 11.7773 3.85547 13.2773 3.85547C14.7773 3.85547 15.4922 4.14844 15.4922 4.46484C15.4922 4.80469 14.7305 5.07422 13.2773 5.07422ZM17.2852 8.40234C17.9414 8.40234 18.4922 8.14453 18.4922 7.80469C18.4922 7.48828 17.9414 7.23047 17.2852 7.23047C16.6289 7.23047 16.0898 7.48828 16.0898 7.80469C16.0898 8.14453 16.6289 8.40234 17.2852 8.40234Z" fill="black" fill-opacity="0.85"/>
 </g>
</svg>
