<?xml version="1.0" encoding="UTF-8"?>
<!--Generator: Apple Native CoreSVG 360-->
<!DOCTYPE svg
PUBLIC "-//W3C//DTD SVG 1.1//EN"
       "http://www.w3.org/Graphics/SVG/1.1/DTD/svg11.dtd">
<svg version="1.1" xmlns="http://www.w3.org/2000/svg" xmlns:xlink="http://www.w3.org/1999/xlink" viewBox="0 0 26.918 32.5431">
 <g>
  <rect height="32.5431" opacity="0" width="26.918" x="0" y="0"/>
  <path d="M13.2773 22.8165C21.0117 22.8165 26.5664 20.5313 26.5664 17.0508C26.5664 13.5118 20.7773 11.2501 13.2773 11.2501C5.78906 11.2501 0 13.5118 0 17.0508C0 20.5313 5.55469 22.8165 13.2773 22.8165ZM13.2773 28.3711C20.6836 28.3711 26.5664 26.0977 26.5664 22.5469L26.5664 17.0508L24.8438 18.5508L24.8438 22.3126C24.8438 24.668 20.0625 26.5079 13.2773 26.5079C6.50391 26.5079 1.72266 24.668 1.72266 22.3126L1.72266 18.5508L0 17.0508L0 22.5469C0 26.0977 5.88281 28.3711 13.2773 28.3711ZM13.3711 27.4102L21.3164 26.0626L21.3164 24.7735C21.3164 24.2813 20.918 24.0235 20.4609 24.1524C18.0586 24.8321 15.2812 25.0313 13.2773 25.0313C11.2969 25.0313 8.50781 24.8321 6.10547 24.1524C5.64844 24.0235 5.25 24.2813 5.25 24.7735L5.25 26.0626ZM13.2773 20.9532C7.52344 20.9532 1.93359 19.4063 1.93359 17.0508C1.93359 14.8594 6.1875 12.9024 13.2773 12.9024C20.3789 12.9024 24.6328 14.8594 24.6328 17.0508C24.6328 19.4063 19.043 20.9532 13.2773 20.9532ZM9.28125 19.6641C9.9375 19.6641 10.4883 19.3946 10.4883 19.0665C10.4883 18.7383 9.9375 18.4805 9.28125 18.4805C8.625 18.4805 8.08594 18.7383 8.08594 19.0665C8.08594 19.3946 8.625 19.6641 9.28125 19.6641ZM13.2773 20.1211C13.9336 20.1211 14.4844 19.8516 14.4844 19.5235C14.4844 19.2071 13.9336 18.9376 13.2773 18.9376C12.6328 18.9376 12.0938 19.2071 12.0938 19.5235C12.0938 19.8516 12.6328 20.1211 13.2773 20.1211ZM13.2773 17.2266C15.5859 17.2266 16.875 16.6172 16.875 15.7266C16.875 14.8594 15.6094 14.2149 13.2773 14.2149C10.957 14.2149 9.70312 14.8594 9.70312 15.7266C9.70312 16.6172 10.9805 17.2266 13.2773 17.2266ZM13.2773 16.3243C11.8242 16.3243 11.0508 16.0665 11.0508 15.7266C11.0508 15.3985 11.7773 15.1172 13.2773 15.1172C14.7773 15.1172 15.4922 15.3985 15.4922 15.7266C15.4922 16.0665 14.7305 16.3243 13.2773 16.3243ZM17.2852 19.6641C17.9414 19.6641 18.4922 19.3946 18.4922 19.0665C18.4922 18.7383 17.9414 18.4805 17.2852 18.4805C16.6289 18.4805 16.0898 18.7383 16.0898 19.0665C16.0898 19.3946 16.6289 19.6641 17.2852 19.6641Z" fill="black" fill-opacity="0.85"/>
  <path d="M9.38672 7.86334L17.1914 7.86334C17.7305 7.86334 17.9766 7.26568 17.6602 6.73834L13.8984 0.351617C13.6172-0.128851 12.9609-0.105414 12.6914 0.351617L8.90625 6.73834C8.625 7.2188 8.84766 7.86334 9.38672 7.86334Z" fill="black" fill-opacity="0.85"/>
 </g>
</svg>
