<?xml version="1.0" encoding="UTF-8"?>
<!--Generator: Apple Native CoreSVG 360-->
<!DOCTYPE svg
PUBLIC "-//W3C//DTD SVG 1.1//EN"
       "http://www.w3.org/Graphics/SVG/1.1/DTD/svg11.dtd">
<svg version="1.1" xmlns="http://www.w3.org/2000/svg" xmlns:xlink="http://www.w3.org/1999/xlink" viewBox="0 0 26.5195 23.9414">
 <g>
  <rect height="23.9414" opacity="0" width="26.5195" x="0" y="0"/>
  <path d="M1.42969 6.30469C1.42969 6.72656 1.79297 7.10156 2.22656 7.10156C2.67188 7.10156 3.03516 6.72656 3.03516 6.30469C3.03516 5.85938 2.67188 5.49609 2.22656 5.49609C1.79297 5.49609 1.42969 5.85938 1.42969 6.30469ZM1.42969 8.95312C1.42969 9.375 1.79297 9.75 2.22656 9.75C2.67188 9.75 3.03516 9.375 3.03516 8.95312C3.03516 8.50781 2.67188 8.14453 2.22656 8.14453C1.79297 8.14453 1.42969 8.50781 1.42969 8.95312ZM1.28906 14.4961C1.28906 15.0117 1.72266 15.4453 2.22656 15.4453C2.74219 15.4453 3.17578 15.0117 3.17578 14.4961L3.17578 11.7422C3.17578 11.2266 2.74219 10.793 2.22656 10.793C1.71094 10.793 1.28906 11.2266 1.28906 11.7422Z" fill="black" fill-opacity="0.85"/>
  <path d="M0 2.22656C0 3.45703 0.996094 4.45312 2.22656 4.45312C3.45703 4.45312 4.45312 3.45703 4.45312 2.22656C4.45312 0.996094 3.45703 0 2.22656 0C0.996094 0 0 0.996094 0 2.22656ZM8.05078 23.9297L23.9414 23.9297C25.1602 23.9297 26.168 22.9336 26.168 21.7031L26.168 2.22656C26.168 0.996094 25.1602 0 23.9414 0L5.05078 0C5.57812 0.539062 5.82422 1.24219 5.82422 2.22656L5.82422 21.7031C5.82422 22.9336 6.82031 23.9297 8.05078 23.9297Z" fill="black" fill-opacity="0.85"/>
 </g>
</svg>
