<?xml version="1.0" encoding="UTF-8"?>
<!--Generator: Apple Native CoreSVG 360-->
<!DOCTYPE svg
PUBLIC "-//W3C//DTD SVG 1.1//EN"
       "http://www.w3.org/Graphics/SVG/1.1/DTD/svg11.dtd">
<svg version="1.1" xmlns="http://www.w3.org/2000/svg" xmlns:xlink="http://www.w3.org/1999/xlink" viewBox="0 0 25.1953 23.9414">
 <g>
  <rect height="23.9414" opacity="0" width="25.1953" x="0" y="0"/>
  <path d="M4.01953 9.01172L23.0859 9.01172C23.5781 9.01172 23.9297 8.66016 23.9297 8.16797L23.9297 3.98438C23.9297 3.50391 23.5781 3.14062 23.0859 3.14062L4.01953 3.14062C3.52734 3.14062 3.16406 3.50391 3.16406 3.98438L3.16406 8.16797C3.16406 8.66016 3.52734 9.01172 4.01953 9.01172ZM4.01953 16.4766L23.0859 16.4766C23.5781 16.4766 23.9297 16.1133 23.9297 15.6328L23.9297 11.4492C23.9297 10.957 23.5781 10.6055 23.0859 10.6055L4.01953 10.6055C3.52734 10.6055 3.16406 10.957 3.16406 11.4492L3.16406 15.6328C3.16406 16.1133 3.52734 16.4766 4.01953 16.4766ZM4.01953 23.9297L23.0859 23.9297C23.5781 23.9297 23.9297 23.5781 23.9297 23.0977L23.9297 18.9023C23.9297 18.4219 23.5781 18.0703 23.0859 18.0703L4.01953 18.0703C3.52734 18.0703 3.16406 18.4219 3.16406 18.9023L3.16406 23.0977C3.16406 23.5781 3.52734 23.9297 4.01953 23.9297Z" fill="black" fill-opacity="0.85"/>
  <path d="M0 0.9375C0 1.45312 0.433594 1.88672 0.949219 1.88672L23.9297 1.88672C24.4453 1.88672 24.8789 1.45312 24.8789 0.9375C24.8789 0.421875 24.4453 0 23.9297 0L0.949219 0C0.433594 0 0 0.421875 0 0.9375ZM0.949219 4.60547C1.38281 4.60547 1.74609 4.24219 1.74609 3.80859C1.74609 3.36328 1.38281 3.01172 0.949219 3.01172C0.503906 3.01172 0.140625 3.36328 0.140625 3.80859C0.140625 4.24219 0.503906 4.60547 0.949219 4.60547ZM0.949219 7.32422C1.38281 7.32422 1.74609 6.94922 1.74609 6.51562C1.74609 6.08203 1.38281 5.71875 0.949219 5.71875C0.503906 5.71875 0.140625 6.08203 0.140625 6.51562C0.140625 6.94922 0.503906 7.32422 0.949219 7.32422ZM0.949219 10.0312C1.38281 10.0312 1.74609 9.66797 1.74609 9.23438C1.74609 8.78906 1.38281 8.4375 0.949219 8.4375C0.503906 8.4375 0.140625 8.78906 0.140625 9.23438C0.140625 9.66797 0.503906 10.0312 0.949219 10.0312ZM0.949219 15.7852C1.45312 15.7852 1.88672 15.3633 1.88672 14.8477L1.88672 12.0938C1.88672 11.5781 1.46484 11.1445 0.949219 11.1445C0.433594 11.1445 0 11.5781 0 12.0938L0 14.8477C0 15.3633 0.433594 15.7852 0.949219 15.7852Z" fill="black" fill-opacity="0.85"/>
 </g>
</svg>
