<?xml version="1.0" encoding="UTF-8"?>
<!--Generator: Apple Native CoreSVG 360-->
<!DOCTYPE svg
PUBLIC "-//W3C//DTD SVG 1.1//EN"
       "http://www.w3.org/Graphics/SVG/1.1/DTD/svg11.dtd">
<svg version="1.1" xmlns="http://www.w3.org/2000/svg" xmlns:xlink="http://www.w3.org/1999/xlink" viewBox="0 0 29.6602 29.6722">
 <g>
  <rect height="29.6722" opacity="0" width="29.6602" x="0" y="0"/>
  <path d="M20.4609 25.6232C22.4648 25.6232 23.4727 24.674 23.4727 22.6232L23.4727 11.0334C23.4727 8.98259 22.4648 8.02166 20.4609 8.02166L8.84766 8.02166C6.84375 8.02166 5.83594 8.98259 5.83594 11.0334L5.83594 22.6232C5.83594 24.674 6.84375 25.6232 8.84766 25.6232ZM20.4258 23.7365L8.88281 23.7365C8.08594 23.7365 7.72266 23.4084 7.72266 22.5881L7.72266 11.0568C7.72266 10.2365 8.08594 9.90838 8.88281 9.90838L20.4258 9.90838C21.2344 9.90838 21.5859 10.2365 21.5859 11.0568L21.5859 22.5881C21.5859 23.4084 21.2344 23.7365 20.4258 23.7365Z" fill="black" fill-opacity="0.85"/>
  <path d="M5.83594 5.174C5.83594 6.01775 6.49219 6.21697 7.14844 5.7365L10.1016 3.58025C10.6055 3.21697 10.5938 2.79509 10.1016 2.43181L7.14844 0.263845C6.49219-0.228343 5.83594-0.0291241 5.83594 0.838063ZM7.06641 2.31463L5.60156 2.31463C2.22656 2.31463 0 4.57634 0 7.92791L0 9.68572C0 10.0842 0.328125 10.4123 0.726562 10.4123C1.125 10.4123 1.46484 10.0842 1.46484 9.68572L1.46484 7.92791C1.46484 5.43181 3.07031 3.674 5.61328 3.674L7.06641 3.674C7.44141 3.674 7.75781 3.35759 7.75781 2.98259C7.75781 2.61931 7.44141 2.31463 7.06641 2.31463Z" fill="black" fill-opacity="0.85"/>
 </g>
</svg>
