<?xml version="1.0" encoding="UTF-8"?>
<!--Generator: Apple Native CoreSVG 360-->
<!DOCTYPE svg
PUBLIC "-//W3C//DTD SVG 1.1//EN"
       "http://www.w3.org/Graphics/SVG/1.1/DTD/svg11.dtd">
<svg version="1.1" xmlns="http://www.w3.org/2000/svg" xmlns:xlink="http://www.w3.org/1999/xlink" viewBox="0 0 24.2578 23.918">
 <g>
  <rect height="23.918" opacity="0" width="24.2578" x="0" y="0"/>
  <path d="M7.92188 11.9531C7.92188 18.9141 9.59766 23.8008 11.9414 23.8008L11.9414 21.9141C10.957 21.9141 9.80859 18.6094 9.80859 11.9531C9.80859 5.29688 10.957 1.99219 11.9414 1.99219L11.9414 0.105469C9.59766 0.105469 7.92188 4.99219 7.92188 11.9531ZM11.9648 15.9609C18.9258 15.9609 23.8125 14.2734 23.8125 11.9531L21.9258 11.9531C21.9258 12.9258 18.6211 14.0742 11.9648 14.0742C5.30859 14.0742 2.00391 12.9258 2.00391 11.9531L0.117188 11.9531C0.117188 14.2734 5.00391 15.9609 11.9648 15.9609ZM11.9531 23.9062C18.5508 23.9062 23.9062 18.5508 23.9062 11.9531C23.9062 5.35547 18.5508 0 11.9531 0C5.35547 0 0 5.35547 0 11.9531C0 18.5508 5.35547 23.9062 11.9531 23.9062ZM11.9531 21.9141C6.44531 21.9141 1.99219 17.4609 1.99219 11.9531C1.99219 6.44531 6.44531 1.99219 11.9531 1.99219C17.4609 1.99219 21.9141 6.44531 21.9141 11.9531C21.9141 17.4609 17.4609 21.9141 11.9531 21.9141Z" fill="black" fill-opacity="0.85"/>
 </g>
</svg>
