<?xml version="1.0" encoding="UTF-8"?>
<!--Generator: Apple Native CoreSVG 360-->
<!DOCTYPE svg
PUBLIC "-//W3C//DTD SVG 1.1//EN"
       "http://www.w3.org/Graphics/SVG/1.1/DTD/svg11.dtd">
<svg version="1.1" xmlns="http://www.w3.org/2000/svg" xmlns:xlink="http://www.w3.org/1999/xlink" viewBox="0 0 28.9805 29.6722">
 <g>
  <rect height="29.6722" opacity="0" width="28.9805" x="0" y="0"/>
  <path d="M8.50781 25.6232L20.1211 25.6232C22.125 25.6232 23.1328 24.674 23.1328 22.6232L23.1328 11.0334C23.1328 8.98259 22.125 8.02166 20.1211 8.02166L8.50781 8.02166C6.50391 8.02166 5.49609 8.98259 5.49609 11.0334L5.49609 22.6232C5.49609 24.674 6.50391 25.6232 8.50781 25.6232ZM8.54297 23.7365C7.74609 23.7365 7.38281 23.4084 7.38281 22.5881L7.38281 11.0568C7.38281 10.2365 7.74609 9.90838 8.54297 9.90838L20.0859 9.90838C20.8945 9.90838 21.2461 10.2365 21.2461 11.0568L21.2461 22.5881C21.2461 23.4084 20.8945 23.7365 20.0859 23.7365Z" fill="black" fill-opacity="0.85"/>
  <path d="M23.1328 5.174L23.1328 0.838063C23.1328-0.0291241 22.4766-0.228343 21.8203 0.263845L18.8672 2.43181C18.375 2.79509 18.3633 3.21697 18.8672 3.58025L21.8203 5.7365C22.4766 6.21697 23.1328 6.01775 23.1328 5.174ZM21.9023 2.31463C21.5273 2.31463 21.2227 2.61931 21.2227 2.98259C21.2227 3.35759 21.5273 3.674 21.9023 3.674L23.3672 3.674C25.9102 3.674 27.5156 5.43181 27.5156 7.92791L27.5156 9.68572C27.5156 10.0842 27.8438 10.4123 28.2422 10.4123C28.6406 10.4123 28.9805 10.0842 28.9805 9.68572L28.9805 7.92791C28.9805 4.57634 26.7422 2.31463 23.3789 2.31463Z" fill="black" fill-opacity="0.85"/>
 </g>
</svg>
