<?xml version="1.0" encoding="UTF-8"?>
<!--Generator: Apple Native CoreSVG 360-->
<!DOCTYPE svg
PUBLIC "-//W3C//DTD SVG 1.1//EN"
       "http://www.w3.org/Graphics/SVG/1.1/DTD/svg11.dtd">
<svg version="1.1" xmlns="http://www.w3.org/2000/svg" xmlns:xlink="http://www.w3.org/1999/xlink" viewBox="0 0 30.6797 21.0873">
 <g>
  <rect height="21.0873" opacity="0" width="30.6797" x="0" y="0"/>
  <path d="M0 11.8737C0 14.3815 0.410156 15.53 2.27344 16.4909L8.87109 19.8776C11.2969 21.1315 13.0312 21.4479 15.75 20.6511L25.8984 17.6979C29.0273 16.7722 30.3281 14.9089 30.3281 11.8737L30.3281 4.56122C30.3281 2.44012 28.9219 0.998716 26.8125 0.998716L3.53906 0.986998C1.42969 0.986998 0 2.41669 0 4.52606ZM1.88672 11.8737L1.88672 4.56122C1.88672 3.54169 2.55469 2.87372 3.57422 2.87372L26.7891 2.88544C27.7852 2.88544 28.4414 3.56512 28.4414 4.59637L28.4414 11.8737C28.4414 14.0065 27.5625 15.2839 25.3594 15.9284L15.75 18.7761C13.3125 19.5026 11.8945 19.2917 9.87891 18.2722L3.46875 15.0026C2.21484 14.3698 1.88672 13.6081 1.88672 11.8737Z" fill="black" fill-opacity="0.85"/>
  <path d="M6.67969 14.4753C7.19531 14.4753 7.5 14.1354 7.5 13.6081L7.5 10.8425L8.56641 10.8425L9.73828 13.7956C9.90234 14.2175 10.1484 14.4753 10.6055 14.4753C10.9688 14.4753 11.3672 14.2526 11.3672 13.6667C11.3672 13.5495 11.2969 13.3151 11.1914 13.0573L10.125 10.5026C11.0391 10.0339 11.4258 9.06122 11.4258 8.02997C11.4258 6.20184 10.3359 5.22919 8.57812 5.22919L6.66797 5.22919C6.14062 5.22919 5.84766 5.54559 5.84766 6.07294L5.84766 13.6081C5.84766 14.1237 6.14062 14.4753 6.67969 14.4753ZM7.5 9.63544L7.5 6.52997L8.42578 6.52997C9.29297 6.52997 9.76172 7.16278 9.76172 8.06512C9.76172 8.96747 9.35156 9.63544 8.42578 9.63544ZM15.457 14.5222C17.2031 14.5222 18.2812 13.5378 18.2812 11.8151C18.2812 10.362 17.5547 9.68231 16.2305 9.19012L15.6094 8.94403C14.8711 8.66278 14.3438 8.27606 14.3438 7.4909C14.3438 6.81122 14.7539 6.33075 15.4219 6.33075C16.125 6.33075 16.4883 6.83465 16.6289 7.42059C16.7344 7.80731 17.0039 7.95965 17.3672 7.95965C17.8125 7.95965 18.082 7.6784 18.082 7.26825C18.082 7.16278 18.0703 7.06903 18.0234 6.84637C17.6836 5.65106 16.6641 4.99481 15.4219 4.99481C13.8633 4.99481 12.7383 5.9909 12.7383 7.61981C12.7383 9.03778 13.5938 9.7995 14.7422 10.2448L15.3633 10.4792C16.1133 10.7722 16.6758 11.1237 16.6758 11.9557C16.6758 12.6823 16.2305 13.1862 15.4805 13.1862C14.7422 13.1862 14.2969 12.694 14.168 12.0847C14.0742 11.6862 13.7812 11.5104 13.418 11.5104C12.9727 11.5104 12.6914 11.8268 12.6914 12.2604C12.6914 12.4597 12.7031 12.53 12.7734 12.7292C13.1133 13.9128 14.1797 14.5222 15.457 14.5222ZM20.5078 14.3347L22.8984 14.3347C24.4922 14.3347 25.418 13.2682 25.418 11.7565C25.418 10.655 24.75 9.64715 23.6836 9.54169L23.6836 9.48309C24.5391 9.34247 25.125 8.38153 25.125 7.4909C25.125 6.0495 24.1641 5.21747 22.8398 5.21747L20.5078 5.21747C19.9805 5.21747 19.6992 5.59247 19.6992 6.08465L19.6992 13.4792C19.6992 13.9948 19.9922 14.3347 20.5078 14.3347ZM21.3164 9.08465L21.3164 6.47137L22.3711 6.47137C23.2148 6.47137 23.5547 7.01044 23.5547 7.737C23.5547 8.58075 23.0742 9.08465 22.2422 9.08465ZM21.3164 13.0807L21.3164 10.1862L22.3594 10.1862C23.1914 10.1862 23.7656 10.6315 23.7656 11.6276C23.7656 12.53 23.3086 13.0807 22.4062 13.0807Z" fill="black" fill-opacity="0.85"/>
 </g>
</svg>
