<?xml version="1.0" encoding="UTF-8"?>
<!--Generator: Apple Native CoreSVG 360-->
<!DOCTYPE svg
PUBLIC "-//W3C//DTD SVG 1.1//EN"
       "http://www.w3.org/Graphics/SVG/1.1/DTD/svg11.dtd">
<svg version="1.1" xmlns="http://www.w3.org/2000/svg" xmlns:xlink="http://www.w3.org/1999/xlink" viewBox="0 0 27.3867 20.4492">
 <g>
  <rect height="20.4492" opacity="0" width="27.3867" x="0" y="0"/>
  <path d="M9.83203 0C3.03516 0 0 3.12891 0 9.52734L0 16.875C0 19.2422 1.21875 20.4375 3.59766 20.4375L23.4375 20.4375C25.8164 20.4375 27.0352 19.2305 27.0352 16.875L27.0352 9.52734C27.0352 3.12891 24 0 17.2031 0ZM9.83203 1.88672L17.1914 1.88672C22.7344 1.88672 25.1484 4.28906 25.1484 9.39844L25.1484 16.7812C25.1484 17.9531 24.5156 18.5508 23.3906 18.5508L3.64453 18.5508C2.49609 18.5508 1.88672 17.9531 1.88672 16.7812L1.88672 9.39844C1.88672 4.28906 4.30078 1.88672 9.83203 1.88672Z" fill="black" fill-opacity="0.85"/>
  <path d="M8.21484 15.1289C8.74219 15.1289 9.05859 14.7773 9.05859 14.2266L9.05859 11.3438L10.1719 11.3438L11.3906 14.4141C11.5664 14.8594 11.8242 15.1289 12.293 15.1289C12.6797 15.1289 13.0898 14.8945 13.0898 14.2969C13.0898 14.1562 13.0195 13.9219 12.9023 13.6523L11.7891 10.9922C12.7383 10.5 13.1484 9.49219 13.1484 8.42578C13.1484 6.51562 12.0117 5.49609 10.1836 5.49609L8.20312 5.49609C7.64062 5.49609 7.33594 5.83594 7.33594 6.38672L7.33594 14.2266C7.33594 14.7656 7.65234 15.1289 8.21484 15.1289ZM9.05859 10.0898L9.05859 6.85547L10.0312 6.85547C10.9219 6.85547 11.4141 7.52344 11.4141 8.46094C11.4141 9.39844 10.9805 10.0898 10.0312 10.0898ZM17.1445 15.1172C17.6133 15.1172 18 14.7305 18 14.25L18 6.90234L19.418 6.90234C19.8047 6.90234 20.1211 6.59766 20.1211 6.1875C20.1211 5.80078 19.8047 5.49609 19.418 5.49609L14.8242 5.49609C14.4258 5.49609 14.1094 5.80078 14.1094 6.1875C14.1094 6.59766 14.4258 6.90234 14.8242 6.90234L16.2891 6.90234L16.2891 14.25C16.2891 14.7305 16.6758 15.1172 17.1445 15.1172Z" fill="black" fill-opacity="0.85"/>
 </g>
</svg>
