<?xml version="1.0" encoding="UTF-8"?>
<!--Generator: Apple Native CoreSVG 360-->
<!DOCTYPE svg
PUBLIC "-//W3C//DTD SVG 1.1//EN"
       "http://www.w3.org/Graphics/SVG/1.1/DTD/svg11.dtd">
<svg version="1.1" xmlns="http://www.w3.org/2000/svg" xmlns:xlink="http://www.w3.org/1999/xlink" viewBox="0 0 24.2578 23.918">
 <g>
  <rect height="23.918" opacity="0" width="24.2578" x="0" y="0"/>
  <path d="M11.9531 23.9062C18.5508 23.9062 23.9062 18.5508 23.9062 11.9531C23.9062 5.35547 18.5508 0 11.9531 0C5.35547 0 0 5.35547 0 11.9531C0 18.5508 5.35547 23.9062 11.9531 23.9062ZM11.9531 21.9141C6.44531 21.9141 1.99219 17.4609 1.99219 11.9531C1.99219 6.44531 6.44531 1.99219 11.9531 1.99219C17.4609 1.99219 21.9141 6.44531 21.9141 11.9531C21.9141 17.4609 17.4609 21.9141 11.9531 21.9141Z" fill="black" fill-opacity="0.85"/>
  <path d="M6.63281 16.8516C7.16016 16.8516 7.47656 16.5117 7.47656 15.9609L7.47656 13.0781L8.58984 13.0781L9.80859 16.1484C9.98438 16.5938 10.2422 16.8516 10.7109 16.8516C11.0977 16.8516 11.5078 16.6289 11.5078 16.0195C11.5078 15.8906 11.4375 15.6562 11.3203 15.3867L10.207 12.7266C11.1562 12.2344 11.5664 11.2148 11.5664 10.1602C11.5664 8.25 10.4297 7.23047 8.60156 7.23047L6.62109 7.23047C6.05859 7.23047 5.75391 7.57031 5.75391 8.12109L5.75391 15.9609C5.75391 16.5 6.07031 16.8516 6.63281 16.8516ZM7.47656 11.8242L7.47656 8.58984L8.44922 8.58984C9.33984 8.58984 9.83203 9.25781 9.83203 10.1953C9.83203 11.1211 9.39844 11.8242 8.44922 11.8242ZM15.5625 16.8398C16.0312 16.8398 16.418 16.4648 16.418 15.9844L16.418 8.63672L17.8359 8.63672C18.2227 8.63672 18.5391 8.32031 18.5391 7.92188C18.5391 7.53516 18.2227 7.21875 17.8359 7.21875L13.2422 7.21875C12.8438 7.21875 12.5273 7.53516 12.5273 7.92188C12.5273 8.32031 12.8438 8.63672 13.2422 8.63672L14.707 8.63672L14.707 15.9844C14.707 16.4648 15.0938 16.8398 15.5625 16.8398Z" fill="black" fill-opacity="0.85"/>
 </g>
</svg>
