<?xml version="1.0" encoding="UTF-8"?>
<!--Generator: Apple Native CoreSVG 360-->
<!DOCTYPE svg
PUBLIC "-//W3C//DTD SVG 1.1//EN"
       "http://www.w3.org/Graphics/SVG/1.1/DTD/svg11.dtd">
<svg version="1.1" xmlns="http://www.w3.org/2000/svg" xmlns:xlink="http://www.w3.org/1999/xlink" viewBox="0 0 28.582 23.4085">
 <g>
  <rect height="23.4085" opacity="0" width="28.582" x="0" y="0"/>
  <path d="M28.2305 14.0539C28.2305 6.67105 22.5586 0.612457 15.3398 0.00308175C14.9648-0.0320745 14.6836 0.237457 14.6836 0.612457L14.6836 4.44449C14.6836 4.76089 14.9062 5.00699 15.2227 5.03043C19.7109 5.58121 23.2031 9.41324 23.2031 14.0539C23.2031 16.1632 22.4766 18.1086 21.1992 19.7375C21.0352 19.9367 21.0469 20.1945 21.2227 20.382L24.0234 23.1711C24.2812 23.4289 24.6797 23.4289 24.9141 23.1476C26.9883 20.6867 28.2305 17.5109 28.2305 14.0539Z" fill="black" fill-opacity="0.85"/>
  <path d="M0 14.0539C0 17.5226 1.24219 20.6984 3.31641 23.1593C3.55078 23.4406 3.9375 23.4289 4.20703 23.1711L7.00781 20.382C7.18359 20.1945 7.19531 19.9367 7.03125 19.7375C5.74219 18.1086 5.02734 16.1632 5.02734 14.0539C5.02734 9.41324 8.51953 5.58121 13.0078 5.03043C13.3242 5.00699 13.5469 4.76089 13.5469 4.44449L13.5469 0.612457C13.5469 0.237457 13.2656-0.0320745 12.8906 0.00308175C5.67188 0.612457 0 6.67105 0 14.0539Z" fill="black" fill-opacity="0.85"/>
  <path d="M12.0938 19.6086C12.5273 19.6086 12.7852 19.3273 12.7852 18.9054L12.7852 17.7453L15.5977 17.7453C15.832 17.7453 15.9727 17.6046 15.9727 17.3586C15.9727 17.1242 15.832 16.9718 15.5977 16.9718L12.7852 16.9718L12.7852 15.4601L14.8828 15.4601C17.0859 15.4601 18.293 13.9836 18.293 12.2257C18.293 10.3976 17.0391 8.96793 14.918 8.96793L12.1055 8.96793C11.707 8.96793 11.4258 9.26089 11.4258 9.68277L11.4258 14.6632L10.207 14.6632C9.96094 14.6632 9.82031 14.8273 9.82031 15.0617C9.82031 15.3078 9.96094 15.4601 10.207 15.4601L11.4258 15.4601L11.4258 16.9718L10.207 16.9718C9.96094 16.9718 9.82031 17.1242 9.82031 17.3586C9.82031 17.6046 9.96094 17.7453 10.207 17.7453L11.4258 17.7453L11.4258 18.9054C11.4258 19.3273 11.6836 19.6086 12.0938 19.6086ZM12.7852 14.3117L12.7852 10.1398L14.5547 10.1398C16.2188 10.1398 16.8867 11.0656 16.8867 12.2257C16.8867 13.5734 15.9844 14.3117 14.5547 14.3117Z" fill="black" fill-opacity="0.85"/>
 </g>
</svg>
