<?xml version="1.0" encoding="UTF-8"?>
<!--Generator: Apple Native CoreSVG 360-->
<!DOCTYPE svg
PUBLIC "-//W3C//DTD SVG 1.1//EN"
       "http://www.w3.org/Graphics/SVG/1.1/DTD/svg11.dtd">
<svg version="1.1" xmlns="http://www.w3.org/2000/svg" xmlns:xlink="http://www.w3.org/1999/xlink" viewBox="0 0 16.9805 21.2695">
 <g>
  <rect height="21.2695" opacity="0" width="16.9805" x="0" y="0"/>
  <path d="M4.38281 21.2578C5.09766 21.2578 5.54297 20.7891 5.54297 20.0625L5.54297 17.4609L11.3203 17.4609C11.7773 17.4609 12.0586 17.168 12.0586 16.6992C12.0586 16.2305 11.7773 15.9258 11.3203 15.9258L5.54297 15.9258L5.54297 12.8789L9.90234 12.8789C13.8633 12.8789 16.6289 10.3594 16.6289 6.44531C16.6289 2.51953 13.8867 0 9.92578 0L4.38281 0C3.66797 0 3.21094 0.457031 3.21094 1.20703L3.21094 11.332L0.761719 11.332C0.292969 11.332 0 11.6367 0 12.1055C0 12.5742 0.292969 12.8789 0.761719 12.8789L3.21094 12.8789L3.21094 15.9258L0.761719 15.9258C0.292969 15.9258 0.0117188 16.2305 0.0117188 16.6992C0.0117188 17.168 0.292969 17.4609 0.761719 17.4609L3.21094 17.4609L3.21094 20.0625C3.21094 20.7891 3.66797 21.2578 4.38281 21.2578ZM5.54297 10.875L5.54297 2.03906L9.33984 2.03906C12.3984 2.03906 14.25 3.53906 14.25 6.44531C14.25 9.35156 12.3984 10.875 9.33984 10.875Z" fill="black" fill-opacity="0.85"/>
 </g>
</svg>
