<?xml version="1.0" encoding="UTF-8"?>
<!--Generator: Apple Native CoreSVG 360-->
<!DOCTYPE svg
PUBLIC "-//W3C//DTD SVG 1.1//EN"
       "http://www.w3.org/Graphics/SVG/1.1/DTD/svg11.dtd">
<svg version="1.1" xmlns="http://www.w3.org/2000/svg" xmlns:xlink="http://www.w3.org/1999/xlink" viewBox="0 0 26.5195 25.0195">
 <g>
  <rect height="25.0195" opacity="0" width="26.5195" x="0" y="0"/>
  <path d="M1.55859 22.2188L24.6094 22.2188L24.6094 21.4336C24.6094 20.9648 24.3398 20.6836 23.8594 20.6836L23.1094 20.6836L23.1094 8.03906L24.1406 8.03906C24.7852 8.03906 25.1602 7.57031 25.1602 7.08984C25.1602 6.73828 24.9609 6.43359 24.5273 6.1875L14.5195 0.410156C14.0508 0.140625 13.5586 0 13.0781 0C12.5977 0 12.0938 0.140625 11.6484 0.410156L1.64062 6.1875C1.19531 6.43359 1.00781 6.73828 1.00781 7.08984C1.00781 7.57031 1.38281 8.03906 2.02734 8.03906L3.05859 8.03906L3.05859 20.6836L2.32031 20.6836C1.83984 20.6836 1.55859 20.9648 1.55859 21.4336ZM4.82812 20.6836L4.82812 6.53906L12.6211 2.16797C12.7617 2.08594 12.9258 2.03906 13.0781 2.03906C13.2305 2.03906 13.3945 2.08594 13.5469 2.16797L21.3398 6.53906L21.3398 20.6836ZM0.9375 25.0078L25.2188 25.0078C25.7344 25.0078 26.168 24.5742 26.168 24.0586C26.168 23.543 25.7344 23.1211 25.2188 23.1211L0.9375 23.1211C0.421875 23.1211 0 23.543 0 24.0586C0 24.5742 0.421875 25.0078 0.9375 25.0078Z" fill="black" fill-opacity="0.85"/>
  <path d="M11.0859 17.7305C11.5195 17.7305 11.7773 17.4492 11.7773 17.0273L11.7773 15.8672L14.5898 15.8672C14.8125 15.8672 14.9648 15.7266 14.9648 15.4805C14.9648 15.2461 14.8125 15.0938 14.5898 15.0938L11.7773 15.0938L11.7773 13.582L13.875 13.582C16.0664 13.582 17.2852 12.1055 17.2852 10.3477C17.2852 8.51953 16.0312 7.08984 13.8984 7.08984L11.0977 7.08984C10.6875 7.08984 10.4062 7.38281 10.4062 7.80469L10.4062 12.7852L9.19922 12.7852C8.95312 12.7852 8.80078 12.9492 8.80078 13.1836C8.80078 13.4297 8.95312 13.582 9.19922 13.582L10.4062 13.582L10.4062 15.0938L9.19922 15.0938C8.95312 15.0938 8.80078 15.2461 8.80078 15.4805C8.80078 15.7266 8.95312 15.8672 9.19922 15.8672L10.4062 15.8672L10.4062 17.0273C10.4062 17.4492 10.6641 17.7305 11.0859 17.7305ZM11.7773 12.4336L11.7773 8.26172L13.5469 8.26172C15.2109 8.26172 15.8789 9.1875 15.8789 10.3477C15.8789 11.6953 14.9766 12.4336 13.5469 12.4336Z" fill="black" fill-opacity="0.85"/>
 </g>
</svg>
