<?xml version="1.0" encoding="UTF-8"?>
<!--Generator: Apple Native CoreSVG 360-->
<!DOCTYPE svg
PUBLIC "-//W3C//DTD SVG 1.1//EN"
       "http://www.w3.org/Graphics/SVG/1.1/DTD/svg11.dtd">
<svg version="1.1" xmlns="http://www.w3.org/2000/svg" xmlns:xlink="http://www.w3.org/1999/xlink" viewBox="0 0 26.5195 25.0195">
 <g>
  <rect height="25.0195" opacity="0" width="26.5195" x="0" y="0"/>
  <path d="M1.55859 22.2188L24.6094 22.2188L24.6094 21.4336C24.6094 20.9648 24.3398 20.6836 23.8594 20.6836L23.1094 20.6836L23.1094 8.03906L24.1406 8.03906C24.7852 8.03906 25.1602 7.57031 25.1602 7.08984C25.1602 6.73828 24.9609 6.43359 24.5273 6.1875L14.5195 0.410156C14.0508 0.140625 13.5586 0 13.0781 0C12.5977 0 12.0938 0.140625 11.6484 0.410156L1.64062 6.1875C1.19531 6.43359 1.00781 6.73828 1.00781 7.08984C1.00781 7.57031 1.38281 8.03906 2.02734 8.03906L3.05859 8.03906L3.05859 20.6836L2.32031 20.6836C1.83984 20.6836 1.55859 20.9648 1.55859 21.4336ZM4.82812 20.6836L4.82812 6.53906L12.6211 2.16797C12.7617 2.08594 12.9258 2.03906 13.0781 2.03906C13.2305 2.03906 13.3945 2.08594 13.5469 2.16797L21.3398 6.53906L21.3398 20.6836ZM0.9375 25.0078L25.2188 25.0078C25.7344 25.0078 26.168 24.5742 26.168 24.0586C26.168 23.543 25.7344 23.1211 25.2188 23.1211L0.9375 23.1211C0.421875 23.1211 0 23.543 0 24.0586C0 24.5742 0.421875 25.0078 0.9375 25.0078Z" fill="black" fill-opacity="0.85"/>
  <path d="M8.54297 17.1211C8.96484 17.1211 9.21094 16.8398 9.21094 16.418L9.21094 13.2539L10.6523 13.2539L12.082 16.6289C12.2109 16.9453 12.4102 17.1211 12.75 17.1211C13.125 17.1211 13.418 16.875 13.418 16.4883C13.418 16.3242 13.3477 16.1953 13.2656 16.0078L11.9414 12.9609C12.9609 12.5156 13.4414 11.4961 13.4414 10.4062C13.4414 8.83594 12.5391 7.59375 10.5938 7.59375L8.53125 7.59375C8.12109 7.59375 7.86328 7.86328 7.86328 8.27344L7.86328 16.418C7.86328 16.8398 8.12109 17.1211 8.54297 17.1211ZM9.21094 12.1758L9.21094 8.70703L10.4648 8.70703C11.5195 8.70703 12.1055 9.375 12.1055 10.4297C12.1055 11.4844 11.543 12.1758 10.4766 12.1758ZM16.8867 17.1328C18.2461 17.1328 19.3945 16.3594 19.3945 14.9648C19.3945 13.8398 18.7266 13.3477 17.6016 13.043L16.6523 12.7852C16.125 12.6445 15.6914 12.375 15.6914 11.8125C15.6914 11.168 16.207 10.7695 16.8398 10.7695C17.5312 10.7695 17.9531 11.1445 18.1992 11.6953C18.2812 11.8711 18.457 11.9883 18.6562 11.9883C19.0195 11.9883 19.1602 11.7656 19.1602 11.5078C19.1602 11.4258 19.1367 11.2969 19.1016 11.1914C18.8555 10.3711 17.9531 9.79688 16.8867 9.79688C15.3984 9.79688 14.4375 10.6172 14.4375 11.8828C14.4375 12.9727 15.1523 13.5469 16.1953 13.8164L17.1562 14.0742C17.7422 14.2266 18.1172 14.5078 18.1172 15.0938C18.1172 15.7266 17.6484 16.1484 16.9453 16.1484C16.1719 16.1484 15.7734 15.8906 15.3984 15.2109C15.2461 14.9531 15.0469 14.8477 14.8477 14.8477C14.543 14.8477 14.3203 15.0586 14.3203 15.3633C14.3203 15.457 14.3438 15.5625 14.3789 15.668C14.6953 16.6758 15.8086 17.1328 16.8867 17.1328Z" fill="black" fill-opacity="0.85"/>
 </g>
</svg>
