<?xml version="1.0" encoding="UTF-8"?>
<!--Generator: Apple Native CoreSVG 360-->
<!DOCTYPE svg
PUBLIC "-//W3C//DTD SVG 1.1//EN"
       "http://www.w3.org/Graphics/SVG/1.1/DTD/svg11.dtd">
<svg version="1.1" xmlns="http://www.w3.org/2000/svg" xmlns:xlink="http://www.w3.org/1999/xlink" viewBox="0 0 28.582 23.4085">
 <g>
  <rect height="23.4085" opacity="0" width="28.582" x="0" y="0"/>
  <path d="M28.2305 14.0539C28.2305 6.67105 22.5586 0.612457 15.3398 0.00308175C14.9648-0.0320745 14.6836 0.237457 14.6836 0.612457L14.6836 4.44449C14.6836 4.76089 14.9062 5.00699 15.2227 5.03043C19.7109 5.58121 23.2031 9.41324 23.2031 14.0539C23.2031 16.1632 22.4766 18.1086 21.1992 19.7375C21.0352 19.9367 21.0469 20.1945 21.2227 20.382L24.0234 23.1711C24.2812 23.4289 24.6797 23.4289 24.9141 23.1476C26.9883 20.6867 28.2305 17.5109 28.2305 14.0539Z" fill="black" fill-opacity="0.85"/>
  <path d="M0 14.0539C0 17.5226 1.24219 20.6984 3.31641 23.1593C3.55078 23.4406 3.9375 23.4289 4.20703 23.1711L7.00781 20.382C7.18359 20.1945 7.19531 19.9367 7.03125 19.7375C5.74219 18.1086 5.02734 16.1632 5.02734 14.0539C5.02734 9.41324 8.51953 5.58121 13.0078 5.03043C13.3242 5.00699 13.5469 4.76089 13.5469 4.44449L13.5469 0.612457C13.5469 0.237457 13.2656-0.0320745 12.8906 0.00308175C5.67188 0.612457 0 6.67105 0 14.0539Z" fill="black" fill-opacity="0.85"/>
  <path d="M9.55078 18.9992C9.97266 18.9992 10.2188 18.7179 10.2188 18.2961L10.2188 15.132L11.6602 15.132L13.1016 18.507C13.2305 18.8234 13.4297 18.9992 13.7578 18.9992C14.1328 18.9992 14.4258 18.7531 14.4258 18.3664C14.4258 18.2023 14.3555 18.0734 14.2852 17.8859L12.9492 14.839C13.9805 14.3937 14.4609 13.3742 14.4609 12.2843C14.4609 10.714 13.5586 9.47183 11.6016 9.47183L9.53906 9.47183C9.14062 9.47183 8.88281 9.74136 8.88281 10.1515L8.88281 18.2961C8.88281 18.7179 9.12891 18.9992 9.55078 18.9992ZM10.2188 14.0539L10.2188 10.5851L11.4727 10.5851C12.5273 10.5851 13.1133 11.2531 13.1133 12.3078C13.1133 13.3625 12.5625 14.0539 11.4844 14.0539ZM17.8945 19.0109C19.2539 19.0109 20.4023 18.2375 20.4023 16.8429C20.4023 15.7179 19.7344 15.2257 18.6211 14.9211L17.6719 14.6632C17.1445 14.5226 16.7109 14.2531 16.7109 13.6906C16.7109 13.0461 17.2148 12.6476 17.8594 12.6476C18.5391 12.6476 18.9609 13.0226 19.207 13.5734C19.2891 13.7492 19.4648 13.8664 19.6641 13.8664C20.0273 13.8664 20.168 13.6437 20.168 13.3859C20.168 13.3039 20.1445 13.175 20.1094 13.0695C19.8633 12.2492 18.9609 11.675 17.8945 11.675C16.418 11.675 15.4453 12.4953 15.4453 13.7609C15.4453 14.8507 16.1719 15.425 17.2148 15.6945L18.1758 15.9523C18.75 16.1046 19.1367 16.3859 19.1367 16.9718C19.1367 17.6046 18.668 18.0265 17.9531 18.0265C17.1914 18.0265 16.7812 17.7687 16.4062 17.089C16.2656 16.8312 16.0547 16.7257 15.8555 16.7257C15.5508 16.7257 15.3281 16.9367 15.3281 17.2414C15.3281 17.3351 15.3633 17.4406 15.3984 17.5461C15.7031 18.5539 16.8281 19.0109 17.8945 19.0109Z" fill="black" fill-opacity="0.85"/>
 </g>
</svg>
