<?xml version="1.0" encoding="UTF-8"?>
<!--Generator: Apple Native CoreSVG 360-->
<!DOCTYPE svg
PUBLIC "-//W3C//DTD SVG 1.1//EN"
       "http://www.w3.org/Graphics/SVG/1.1/DTD/svg11.dtd">
<svg version="1.1" xmlns="http://www.w3.org/2000/svg" xmlns:xlink="http://www.w3.org/1999/xlink" viewBox="0 0 28.582 23.5195">
 <g>
  <rect height="23.5195" opacity="0" width="28.582" x="0" y="0"/>
  <path d="M28.2305 14.1094C28.2305 10.6641 26.9883 7.48828 24.9141 5.02734C24.6797 4.74609 24.2812 4.74609 24.0234 5.01562L21.3047 7.73438C21.082 7.95703 21.0703 8.27344 21.2695 8.51953C22.4766 10.0664 23.2031 12.0117 23.2031 14.1094C23.2031 16.2188 22.4766 18.1641 21.1992 19.793C21.0352 19.9922 21.0469 20.25 21.2227 20.4375L24.0117 23.2266C24.2812 23.4961 24.668 23.4961 24.9141 23.2031C26.9883 20.7422 28.2305 17.5664 28.2305 14.1094Z" fill="black" fill-opacity="0.85"/>
  <path d="M14.1094 5.02734C16.2305 5.02734 18.1758 5.76562 19.7344 6.97266C19.9688 7.16016 20.2734 7.13672 20.4961 6.91406L23.2148 4.19531C23.4844 3.92578 23.4727 3.53906 23.1914 3.30469C20.7422 1.24219 17.5664 0 14.1094 0C10.6641 0 7.48828 1.24219 5.03906 3.30469C4.75781 3.53906 4.74609 3.92578 5.01562 4.19531L7.73438 6.91406C7.95703 7.13672 8.27344 7.16016 8.53125 6.96094C10.0781 5.76562 12.0117 5.02734 14.1094 5.02734Z" fill="black" fill-opacity="0.85"/>
  <path d="M0 14.1094C0 17.5664 1.24219 20.7422 3.31641 23.2031C3.55078 23.4961 3.94922 23.4961 4.20703 23.2266L6.99609 20.4375C7.17188 20.25 7.19531 19.9922 7.03125 19.793C5.75391 18.1641 5.02734 16.2188 5.02734 14.1094C5.02734 12.0117 5.74219 10.0664 6.96094 8.51953C7.14844 8.27344 7.14844 7.95703 6.92578 7.73438L4.20703 5.01562C3.9375 4.74609 3.55078 4.74609 3.31641 5.02734C1.24219 7.48828 0 10.6641 0 14.1094Z" fill="black" fill-opacity="0.85"/>
  <path d="M9.55078 19.0547C9.97266 19.0547 10.2188 18.7734 10.2188 18.3516L10.2188 15.1875L11.6602 15.1875L13.1016 18.5625C13.2305 18.8789 13.4297 19.0547 13.7578 19.0547C14.1328 19.0547 14.4258 18.8086 14.4258 18.4219C14.4258 18.2578 14.3555 18.1289 14.2852 17.9414L12.9492 14.8945C13.9805 14.4492 14.4609 13.4297 14.4609 12.3398C14.4609 10.7695 13.5586 9.52734 11.6016 9.52734L9.53906 9.52734C9.14062 9.52734 8.88281 9.79688 8.88281 10.207L8.88281 18.3516C8.88281 18.7734 9.12891 19.0547 9.55078 19.0547ZM10.2188 14.1094L10.2188 10.6406L11.4727 10.6406C12.5273 10.6406 13.1133 11.3086 13.1133 12.3633C13.1133 13.418 12.5625 14.1094 11.4844 14.1094ZM17.8945 19.0664C19.2539 19.0664 20.4023 18.293 20.4023 16.8984C20.4023 15.7734 19.7344 15.2812 18.6211 14.9766L17.6719 14.7188C17.1445 14.5781 16.7109 14.3086 16.7109 13.7461C16.7109 13.1016 17.2148 12.7031 17.8594 12.7031C18.5391 12.7031 18.9609 13.0781 19.207 13.6289C19.2891 13.8047 19.4648 13.9219 19.6641 13.9219C20.0273 13.9219 20.168 13.6992 20.168 13.4414C20.168 13.3594 20.1445 13.2305 20.1094 13.125C19.8633 12.3047 18.9609 11.7305 17.8945 11.7305C16.418 11.7305 15.4453 12.5508 15.4453 13.8164C15.4453 14.9062 16.1719 15.4805 17.2148 15.75L18.1758 16.0078C18.75 16.1602 19.1367 16.4414 19.1367 17.0273C19.1367 17.6602 18.668 18.082 17.9531 18.082C17.1914 18.082 16.7812 17.8242 16.4062 17.1445C16.2656 16.8867 16.0547 16.7812 15.8555 16.7812C15.5508 16.7812 15.3281 16.9922 15.3281 17.2969C15.3281 17.3906 15.3633 17.4961 15.3984 17.6016C15.7031 18.6094 16.8281 19.0664 17.8945 19.0664Z" fill="black" fill-opacity="0.85"/>
 </g>
</svg>
