<?xml version="1.0" encoding="UTF-8"?>
<!--Generator: Apple Native CoreSVG 360-->
<!DOCTYPE svg
PUBLIC "-//W3C//DTD SVG 1.1//EN"
       "http://www.w3.org/Graphics/SVG/1.1/DTD/svg11.dtd">
<svg version="1.1" xmlns="http://www.w3.org/2000/svg" xmlns:xlink="http://www.w3.org/1999/xlink" viewBox="0 0 27.1875 21.7852">
 <g>
  <rect height="21.7852" opacity="0" width="27.1875" x="0" y="0"/>
  <path d="M1.18359 21.7383C1.91016 21.7383 2.34375 21.2461 2.34375 20.5312L2.34375 12.6914L6.05859 12.6914C6.19922 12.6914 6.35156 12.6914 6.48047 12.6914L10.5117 20.9766C10.7695 21.5273 11.1094 21.7383 11.6836 21.7383C12.3867 21.7383 12.832 21.2461 12.832 20.6719C12.832 20.4023 12.7031 20.1094 12.5742 19.8633L8.77734 12.2109C11.3203 11.3438 12.8086 9.05859 12.8086 6.26953C12.8086 2.47266 10.3008 0 6.15234 0L1.18359 0C0.445312 0 0 0.492188 0 1.21875L0 20.5312C0 21.2695 0.46875 21.7383 1.18359 21.7383ZM2.34375 10.6523L2.34375 2.07422L5.88281 2.07422C8.66016 2.07422 10.4531 3.57422 10.4531 6.33984C10.4531 9.12891 8.78906 10.6523 5.96484 10.6523ZM21.1992 21.7148C24.2695 21.7148 26.8359 20.0625 26.8359 17.0273C26.8359 14.332 25.1836 13.3477 22.6406 12.668L20.5195 12.0938C19.1602 11.7188 17.9531 11.0859 17.9531 9.65625C17.9531 7.99219 19.418 7.04297 21.1172 7.04297C22.875 7.04297 23.9766 7.86328 24.5742 9.46875C24.7617 9.87891 25.043 10.0781 25.5117 10.0781C26.0625 10.0781 26.3672 9.72656 26.3672 9.21094C26.3672 9.09375 26.3555 8.94141 26.3203 8.80078C25.8281 6.48047 23.5898 5.19141 21.2109 5.19141C18.293 5.19141 15.7266 6.76172 15.7266 9.77344C15.7266 12.2109 17.4375 13.4297 19.8867 14.0742L22.0312 14.6367C23.543 15.0234 24.6094 15.6328 24.6094 17.2031C24.6094 18.9375 23.1914 19.8867 21.3281 19.8867C19.3711 19.8867 18.0469 19.1836 17.3438 17.3906C17.1094 16.9219 16.7695 16.6875 16.3594 16.6875C15.7852 16.6875 15.3867 17.0273 15.3867 17.6367C15.3867 17.8008 15.4219 17.9766 15.4805 18.1641C16.207 20.5195 18.5742 21.7148 21.1992 21.7148Z" fill="black" fill-opacity="0.85"/>
 </g>
</svg>
