<?xml version="1.0" encoding="UTF-8"?>
<!--Generator: Apple Native CoreSVG 360-->
<!DOCTYPE svg
PUBLIC "-//W3C//DTD SVG 1.1//EN"
       "http://www.w3.org/Graphics/SVG/1.1/DTD/svg11.dtd">
<svg version="1.1" xmlns="http://www.w3.org/2000/svg" xmlns:xlink="http://www.w3.org/1999/xlink" viewBox="0 0 21.9258 21.5742">
 <g>
  <rect height="21.5742" opacity="0" width="21.9258" x="0" y="0"/>
  <path d="M3.67969 21.5742L17.8945 21.5742C20.3555 21.5742 21.5742 20.3672 21.5742 17.9531L21.5742 3.63281C21.5742 1.21875 20.3555 0 17.8945 0L3.67969 0C1.23047 0 0 1.21875 0 3.63281L0 17.9531C0 20.3672 1.23047 21.5742 3.67969 21.5742ZM3.70312 19.6875C2.53125 19.6875 1.88672 19.0664 1.88672 17.8477L1.88672 3.73828C1.88672 2.51953 2.53125 1.88672 3.70312 1.88672L17.8711 1.88672C19.0312 1.88672 19.6875 2.51953 19.6875 3.73828L19.6875 17.8477C19.6875 19.0664 19.0312 19.6875 17.8711 19.6875Z" fill="black" fill-opacity="0.85"/>
  <path d="M10.6758 16.2891C13.3008 16.2891 15.0234 15.0117 15.0234 12.9961C15.0234 11.4492 13.8984 10.5938 11.8359 10.043L10.2656 9.62109C9.14062 9.32812 8.67188 8.89453 8.67188 8.17969C8.67188 7.19531 9.48047 6.57422 10.7227 6.57422C11.9062 6.57422 12.6562 7.04297 13.0547 8.01562C13.2188 8.40234 13.4648 8.61328 13.9219 8.61328C14.3906 8.61328 14.7422 8.34375 14.7422 7.80469C14.7422 7.65234 14.707 7.45312 14.6367 7.24219C14.1914 6 12.7852 5.08594 10.8047 5.08594C8.40234 5.08594 6.72656 6.42188 6.72656 8.28516C6.72656 9.76172 7.6875 10.6055 9.50391 11.1094L11.2031 11.5898C12.5977 11.9766 13.0781 12.3281 13.0781 13.1484C13.0781 14.1914 12.082 14.7656 10.793 14.7656C9.5625 14.7656 8.70703 14.2852 8.29688 13.3477C8.08594 12.9141 7.83984 12.7148 7.41797 12.7148C6.91406 12.7148 6.57422 13.043 6.57422 13.5586C6.57422 13.7344 6.62109 13.9219 6.70312 14.1328C7.125 15.2578 8.54297 16.2891 10.6758 16.2891Z" fill="black" fill-opacity="0.85"/>
 </g>
</svg>
