<?xml version="1.0" encoding="UTF-8"?>
<!--Generator: Apple Native CoreSVG 360-->
<!DOCTYPE svg
PUBLIC "-//W3C//DTD SVG 1.1//EN"
       "http://www.w3.org/Graphics/SVG/1.1/DTD/svg11.dtd">
<svg version="1.1" xmlns="http://www.w3.org/2000/svg" xmlns:xlink="http://www.w3.org/1999/xlink" viewBox="0 0 26.1094 32.3555">
 <g>
  <rect height="32.3555" opacity="0" width="26.1094" x="0" y="0"/>
  <path d="M10.7109 25.8164L12.4805 25.8164L14.5312 2.02734C14.5547 1.88672 14.7305 1.86328 14.7773 1.99219C15.7969 4.51172 16.418 7.55859 16.418 10.5586C16.418 14.4258 15.375 18.2227 12.7734 20.7539L12.5156 22.7695C15.9141 23.1211 19.3125 23.0039 21.4922 22.6641C23.2031 22.4062 24.0352 21.7266 24.5977 20.2148C25.2188 18.5742 25.4883 16.7695 25.4883 14.8477C25.4883 9.79688 23.25 4.10156 16.3711 0.46875C15.7852 0.152344 15.1992 0 14.6953 0C13.6758 0 12.9258 0.621094 12.832 1.76953ZM16.8164 2.54297C21.9727 5.21484 23.6953 10.3477 23.6953 14.8008C23.6953 16.5938 23.4258 18.2344 22.9336 19.6289C22.6641 20.3906 22.2539 20.7305 21.4453 20.8711C19.793 21.1406 17.2969 21.2812 14.7891 21.1523C17.2031 18.2344 18.1875 14.4258 18.1875 10.6055C18.1875 7.82812 17.6719 5.02734 16.8164 2.54297ZM3.14062 22.7695C5.84766 23.0625 8.80078 23.0742 11.5078 22.7812L11.6602 21.0117C9.21094 21.3047 6.64453 21.293 4.33594 21.0234C4.27734 21 4.25391 20.9531 4.30078 20.8945L12.7383 9.11719L12.9375 5.91797L2.33203 20.6953C1.60547 21.7031 1.99219 22.6523 3.14062 22.7695ZM2.89453 30.1758L4.3125 29.5898L3.30469 26.8125C3.29297 26.7422 3.32812 26.6719 3.39844 26.6719C9.43359 26.6719 16.1016 26.6719 22.0664 25.8281C22.1602 25.8047 22.2305 25.875 22.1953 25.957C21.832 26.8711 20.8125 28.2891 19.0312 28.957L20.8477 29.8945C22.5352 28.8516 24.0469 26.6133 24.0469 25.3828C24.0469 24.6797 23.5781 24.1406 22.5938 24.2812C16.4414 25.1367 9.39844 25.1367 2.95312 25.1367C1.89844 25.1367 1.34766 25.9336 1.69922 26.8945ZM12.3164 32.332C15.5039 32.332 16.0195 29.9531 17.8828 29.9531C19.7812 29.9531 20.0859 32.332 23.7422 32.332L24.9375 32.332C25.3945 32.332 25.7578 31.9688 25.7578 31.5117C25.7578 31.0547 25.3945 30.6797 24.9375 30.6797L23.7422 30.6797C22.4766 30.6797 21.7734 30.1641 20.8945 29.5312C20.1328 28.9805 19.1836 28.3008 17.8828 28.3008C16.5352 28.3008 15.5742 29.0273 14.8125 29.5898C14.0039 30.2109 13.3594 30.6797 12.3164 30.6797C11.2617 30.6797 10.6289 30.2109 9.82031 29.5898C9.05859 29.0273 8.09766 28.3008 6.75 28.3008C5.44922 28.3008 4.5 28.9805 3.73828 29.5312C2.85938 30.1641 2.14453 30.6797 0.890625 30.6797L0.832031 30.6797C0.363281 30.6797 0 31.0547 0 31.5117C0 31.9688 0.363281 32.332 0.832031 32.332L0.890625 32.332C4.53516 32.332 4.85156 29.9531 6.75 29.9531C8.61328 29.9531 9.11719 32.332 12.3164 32.332Z" fill="black" fill-opacity="0.85"/>
 </g>
</svg>
