<?xml version="1.0" encoding="UTF-8"?>
<!--Generator: Apple Native CoreSVG 360-->
<!DOCTYPE svg
PUBLIC "-//W3C//DTD SVG 1.1//EN"
       "http://www.w3.org/Graphics/SVG/1.1/DTD/svg11.dtd">
<svg version="1.1" xmlns="http://www.w3.org/2000/svg" xmlns:xlink="http://www.w3.org/1999/xlink" viewBox="0 0 30.3984 23.543">
 <g>
  <rect height="23.543" opacity="0" width="30.3984" x="0" y="0"/>
  <path d="M4.34766 23.543C6.73828 23.543 8.68359 21.5977 8.68359 19.207C8.68359 16.8047 6.73828 14.8594 4.34766 14.8594C1.94531 14.8594 0 16.8047 0 19.207C0 21.5977 1.94531 23.543 4.34766 23.543ZM4.34766 21.9609C2.8125 21.9609 1.58203 20.7305 1.58203 19.207C1.58203 17.6719 2.8125 16.4414 4.34766 16.4414C5.87109 16.4414 7.10156 17.6719 7.10156 19.207C7.08984 20.7422 5.87109 21.9492 4.34766 21.9609ZM4.34766 20.4375C5.02734 20.4375 5.57812 19.8867 5.57812 19.207C5.57812 18.5273 5.03906 17.9648 4.34766 17.9648C3.64453 17.9648 3.11719 18.5156 3.10547 19.207C3.09375 19.8867 3.63281 20.4375 4.34766 20.4375ZM25.6992 23.543C28.1016 23.543 30.0469 21.5977 30.0469 19.207C30.0469 16.8047 28.1016 14.8594 25.6992 14.8594C23.3086 14.8594 21.3516 16.8047 21.3516 19.207C21.3516 21.5977 23.3086 23.543 25.6992 23.543ZM25.6992 21.9609C24.1758 21.9609 22.9336 20.7305 22.9336 19.207C22.9336 17.6719 24.1758 16.4414 25.6992 16.4414C27.2344 16.4414 28.4648 17.6719 28.4648 19.207C28.4648 20.7305 27.2344 21.9609 25.6992 21.9609ZM25.6992 20.4375C26.3789 20.4375 26.9414 19.8867 26.9414 19.207C26.9414 18.5273 26.3906 17.9648 25.6992 17.9648C25.0078 17.9648 24.4688 18.5156 24.457 19.207C24.4453 19.8867 24.9961 20.4375 25.6992 20.4375ZM4.69922 20.0859L16.9922 20.0859C17.4844 20.0859 17.7891 19.9453 18.2227 19.4766L24.0117 13.125L23.4375 10.9453L17.0039 18.1758C16.8984 18.293 16.8398 18.3164 16.7109 18.3164L4.69922 18.3164ZM16.3945 0.914062C16.3945 1.40625 16.793 1.79297 17.2852 1.79297L20.3203 1.79297C20.4258 1.79297 20.4727 1.82812 20.4961 1.91016L24.7617 19.5234L26.4492 19.0898L21.8906 0.785156C21.7617 0.28125 21.375 0.0234375 20.6484 0.0234375L17.2852 0.0234375C16.793 0.0234375 16.3945 0.421875 16.3945 0.914062Z" fill="black" fill-opacity="0.85"/>
 </g>
</svg>
