<?xml version="1.0" encoding="UTF-8"?>
<!--Generator: Apple Native CoreSVG 360-->
<!DOCTYPE svg
PUBLIC "-//W3C//DTD SVG 1.1//EN"
       "http://www.w3.org/Graphics/SVG/1.1/DTD/svg11.dtd">
<svg version="1.1" xmlns="http://www.w3.org/2000/svg" xmlns:xlink="http://www.w3.org/1999/xlink" viewBox="0 0 29.811 29.8521">
 <g>
  <rect height="29.8521" opacity="0" width="29.811" x="0" y="0"/>
  <path d="M11.3665 11.5218C10.7454 12.1312 10.7571 12.9163 11.3547 13.5022L16.3586 18.5179C16.9563 19.1155 17.718 19.1038 18.3391 18.4944L20.2376 16.6077C19.7805 16.0804 19.7922 15.3304 20.3079 14.8147C20.8001 14.3226 21.5501 14.2874 22.0774 14.7444L28.1243 8.70928C29.8938 6.95146 29.9055 5.06475 28.1711 3.34209L26.5188 1.68975C24.7727-0.0563479 22.9094-0.0211916 21.1516 1.73662L15.1165 7.7835C15.5735 8.31084 15.5501 9.07256 15.0461 9.55303C14.5188 10.0569 13.7922 10.0804 13.2532 9.62334ZM12.8665 12.1194L13.593 11.3812C14.4602 11.5687 15.2571 11.2874 15.9602 10.596C16.6751 9.89287 16.9329 9.07256 16.7336 8.24053L22.3001 2.68584C23.3079 1.68975 24.4211 1.68975 25.4172 2.68584L27.1751 4.44365C28.1711 5.42803 28.1711 6.55303 27.1633 7.56084L21.6204 13.139C20.7766 12.9397 19.9797 13.1976 19.2649 13.9007C18.5735 14.6038 18.2805 15.389 18.468 16.2796L17.7415 17.0062C17.4954 17.2522 17.1907 17.264 16.9329 17.0179L12.8547 12.928C12.5969 12.6819 12.6204 12.3772 12.8665 12.1194ZM19.2297 8.41631C19.0305 8.62725 19.0188 8.92021 19.2415 9.13115C19.3938 9.2835 19.7219 9.30693 19.8977 9.11943L23.8469 5.13506C24.0227 4.95928 24.0344 4.66631 23.8469 4.47881C23.6711 4.30303 23.3665 4.29131 23.179 4.47881ZM20.7532 9.9749C20.5657 10.1624 20.5657 10.4671 20.7532 10.6429C20.9407 10.8187 21.2454 10.8187 21.4329 10.6312L25.3938 6.68193C25.593 6.49443 25.5813 6.21318 25.3821 6.01396C25.2063 5.81475 24.9016 5.83818 24.7258 6.01396ZM2.87037 22.6194L0.175056 26.6272C-0.0358819 26.9319-0.0710382 27.2366 0.151618 27.4593L2.3899 29.7093C2.61256 29.9202 2.91724 29.8851 3.23365 29.6858L7.24146 26.9905C7.59302 26.7562 7.8274 26.3929 7.88599 26.0062L8.07349 24.7757L15.8899 16.9827L14.8821 15.9632L6.64381 24.2132L6.38599 25.6546L2.97584 28.2562L1.59302 26.8851L4.19459 23.4632L5.64771 23.2054L13.8977 14.9671L12.8899 13.971L5.07349 21.7757L3.85474 21.9749C3.45631 22.0335 3.09302 22.2679 2.87037 22.6194Z" fill="black" fill-opacity="0.85"/>
 </g>
</svg>
