<?xml version="1.0" encoding="UTF-8"?>
<!--Generator: Apple Native CoreSVG 360-->
<!DOCTYPE svg
PUBLIC "-//W3C//DTD SVG 1.1//EN"
       "http://www.w3.org/Graphics/SVG/1.1/DTD/svg11.dtd">
<svg version="1.1" xmlns="http://www.w3.org/2000/svg" xmlns:xlink="http://www.w3.org/1999/xlink" viewBox="0 0 20.0625 25.1367">
 <g>
  <rect height="25.1367" opacity="0" width="20.0625" x="0" y="0"/>
  <path d="M3.63281 25.1367L16.0781 25.1367C18.5039 25.1367 19.7109 23.918 19.7109 21.4688L19.7109 3.69141C19.7109 1.25391 18.4922 0.0117188 16.0781 0.0117188L8.25 0.0117188C7.19531 0.0117188 6.52734 0.269531 5.84766 0.960938L0.867188 5.92969C0.210938 6.59766 0 7.17188 0 8.33203L0 21.4688C0 23.9062 1.20703 25.1367 3.63281 25.1367ZM3.72656 23.25C2.50781 23.25 1.88672 22.6055 1.88672 21.4336L1.88672 8.47266C1.88672 7.71094 2.01562 7.33594 2.42578 6.92578L6.78516 2.51953C7.20703 2.07422 7.65234 1.89844 8.32031 1.89844L15.9844 1.89844C17.2031 1.89844 17.8242 2.56641 17.8242 3.72656L17.8242 21.4336C17.8242 22.6055 17.2031 23.25 15.9961 23.25ZM7.20703 4.82812L7.20703 8.51953C7.20703 8.94141 7.54688 9.26953 7.95703 9.26953C8.36719 9.26953 8.68359 8.94141 8.68359 8.51953L8.68359 4.82812C8.68359 4.39453 8.36719 4.07812 7.95703 4.07812C7.54688 4.07812 7.20703 4.40625 7.20703 4.82812ZM9.60938 4.82812L9.60938 8.51953C9.60938 8.94141 9.94922 9.26953 10.3711 9.26953C10.7695 9.26953 11.0977 8.94141 11.0977 8.51953L11.0977 4.82812C11.0977 4.40625 10.7812 4.07812 10.3711 4.07812C9.9375 4.07812 9.60938 4.40625 9.60938 4.82812ZM12.0352 4.82812L12.0352 8.51953C12.0352 8.94141 12.3633 9.26953 12.7617 9.26953C13.1719 9.26953 13.5 8.92969 13.5 8.51953L13.5 4.82812C13.5 4.39453 13.1836 4.07812 12.7617 4.07812C12.3516 4.07812 12.0352 4.40625 12.0352 4.82812ZM14.4492 4.82812L14.4492 8.50781C14.4492 8.94141 14.7773 9.26953 15.1758 9.26953C15.5859 9.26953 15.9141 8.94141 15.9141 8.50781L15.9141 4.82812C15.9141 4.39453 15.5859 4.07812 15.1758 4.07812C14.7656 4.07812 14.4492 4.40625 14.4492 4.82812Z" fill="black" fill-opacity="0.85"/>
 </g>
</svg>
