<?xml version="1.0" encoding="UTF-8"?>
<!--Generator: Apple Native CoreSVG 360-->
<!DOCTYPE svg
PUBLIC "-//W3C//DTD SVG 1.1//EN"
       "http://www.w3.org/Graphics/SVG/1.1/DTD/svg11.dtd">
<svg version="1.1" xmlns="http://www.w3.org/2000/svg" xmlns:xlink="http://www.w3.org/1999/xlink" viewBox="0 0 19.4883 31.1133">
 <g>
  <rect height="31.1133" opacity="0" width="19.4883" x="0" y="0"/>
  <path d="M4.51172 24.1523L16.6406 24.1523C17.0625 24.1523 17.4492 23.6719 17.4492 23.2734C17.4492 22.8633 17.0625 22.3828 16.6406 22.3828L4.47656 22.3828C3.50391 22.3828 3.01172 21.8438 3.01172 20.9062L3.01172 2.94141L1.125 2.94141L1.125 20.8242C1.125 23.0391 2.26172 24.1523 4.51172 24.1523ZM16.1484 29.0273L18.0352 29.0273L18.0352 10.793C18.0352 8.64844 16.9336 7.58203 14.7773 7.58203L2.50781 7.58203C2.09766 7.58203 1.71094 8.0625 1.71094 8.46094C1.71094 8.85938 2.09766 9.35156 2.50781 9.35156L14.6836 9.35156C15.6562 9.35156 16.1484 9.89062 16.1484 10.8281ZM17.0859 31.1133C18.2227 31.1133 19.1367 30.1992 19.1367 29.0625C19.1367 27.9375 18.2227 27.0117 17.0859 27.0117C15.9609 27.0117 15.0352 27.9375 15.0352 29.0625C15.0352 30.1992 15.9609 31.1133 17.0859 31.1133ZM2.05078 4.72266C3.1875 4.72266 4.10156 3.80859 4.10156 2.67188C4.10156 1.54688 3.1875 0.621094 2.05078 0.621094C0.925781 0.621094 0 1.54688 0 2.67188C0 3.80859 0.925781 4.72266 2.05078 4.72266Z" fill="black" fill-opacity="0.85"/>
 </g>
</svg>
