<?xml version="1.0" encoding="UTF-8"?>
<!--Generator: Apple Native CoreSVG 360-->
<!DOCTYPE svg
PUBLIC "-//W3C//DTD SVG 1.1//EN"
       "http://www.w3.org/Graphics/SVG/1.1/DTD/svg11.dtd">
<svg version="1.1" xmlns="http://www.w3.org/2000/svg" xmlns:xlink="http://www.w3.org/1999/xlink" viewBox="0 0 31.6055 20.5898">
 <g>
  <rect height="20.5898" opacity="0" width="31.6055" x="0" y="0"/>
  <path d="M26.7188 18.3047C27.1055 18.7383 27.75 18.7383 28.207 18.2461C30.1523 16.125 31.2539 13.3242 31.2539 10.2891C31.2539 7.25391 30.1523 4.44141 28.207 2.33203C27.75 1.83984 27.1055 1.82812 26.7188 2.27344C26.3438 2.69531 26.4609 3.24609 26.8945 3.72656C28.4648 5.47266 29.3438 7.76953 29.3438 10.2891C29.3438 12.8086 28.4648 15.1055 26.8945 16.8516C26.4609 17.332 26.3438 17.8828 26.7188 18.3047Z" fill="black" fill-opacity="0.85"/>
  <path d="M23.4375 14.9648C23.8242 15.3984 24.5273 15.4102 24.9492 14.8828C25.9688 13.6172 26.5547 12.0117 26.5547 10.2891C26.5547 8.56641 25.9688 6.96094 24.9492 5.69531C24.5273 5.16797 23.8242 5.16797 23.4375 5.61328C23.0625 6.03516 23.2266 6.5625 23.5898 7.06641C24.293 7.93359 24.6445 9.07031 24.6445 10.2891C24.6445 11.5078 24.293 12.6328 23.5898 13.5117C23.2266 14.0156 23.0625 14.543 23.4375 14.9648Z" fill="black" fill-opacity="0.85"/>
  <path d="M10.2891 20.5664C15.9609 20.5664 20.5664 15.9727 20.5664 10.2891C20.5664 4.60547 15.9609 0 10.2891 0C4.60547 0 0 4.60547 0 10.2891C0 15.9727 4.60547 20.5664 10.2891 20.5664ZM10.2891 18.6797C5.64844 18.6797 1.88672 14.9297 1.88672 10.2891C1.88672 5.64844 5.64844 1.88672 10.2891 1.88672C14.918 1.88672 18.6797 5.64844 18.6797 10.2891C18.6797 14.9297 14.918 18.6797 10.2891 18.6797ZM10.2891 7.26562C11.3086 7.26562 12.1289 6.44531 12.1289 5.42578C12.1289 4.40625 11.3086 3.58594 10.2891 3.58594C9.26953 3.58594 8.44922 4.40625 8.44922 5.42578C8.44922 6.44531 9.26953 7.26562 10.2891 7.26562Z" fill="black" fill-opacity="0.85"/>
 </g>
</svg>
