<?xml version="1.0" encoding="UTF-8"?>
<!--Generator: Apple Native CoreSVG 360-->
<!DOCTYPE svg
PUBLIC "-//W3C//DTD SVG 1.1//EN"
       "http://www.w3.org/Graphics/SVG/1.1/DTD/svg11.dtd">
<svg version="1.1" xmlns="http://www.w3.org/2000/svg" xmlns:xlink="http://www.w3.org/1999/xlink" viewBox="0 0 16.5469 19.1259">
 <g>
  <rect height="19.1259" opacity="0" width="16.5469" x="0" y="0"/>
  <path d="M0 18.2407L2.95312 19.0258C4.19531 19.3657 4.94531 18.8266 4.94531 17.6079L4.94531 13.6118L10.1836 13.6118L10.1836 10.3422L1.10156 10.3422L1.10156 17.1508C1.10156 17.8188 0.667969 18.2407 0 18.2407ZM1.10156 8.39692L4.94531 8.39692L4.94531 3.68598C4.94531 2.58442 4.44141 2.06879 3.44531 1.79926L0.644531 1.04926C0.925781 1.23676 1.10156 1.54145 1.10156 1.96333ZM11.25 18.2407L14.2031 19.0258C15.4453 19.3657 16.1953 18.8266 16.1953 17.6079L16.1953 3.68598C16.1953 2.58442 15.6797 2.05708 14.6836 1.78754L11.8945 1.04926C12.1758 1.23676 12.3516 1.54145 12.3516 1.96333L12.3516 17.1508C12.3516 17.8188 11.918 18.2407 11.25 18.2407Z" fill="black" fill-opacity="0.85"/>
 </g>
</svg>
