<?xml version="1.0" encoding="UTF-8"?>
<!--Generator: Apple Native CoreSVG 360-->
<!DOCTYPE svg
PUBLIC "-//W3C//DTD SVG 1.1//EN"
       "http://www.w3.org/Graphics/SVG/1.1/DTD/svg11.dtd">
<svg version="1.1" xmlns="http://www.w3.org/2000/svg" xmlns:xlink="http://www.w3.org/1999/xlink" viewBox="0 0 29.2734 22.2305">
 <g>
  <rect height="22.2305" opacity="0" width="29.2734" x="0" y="0"/>
  <path d="M5.71875 13.3594L5.71875 15.7852C5.71875 16.8867 5.15625 17.4375 4.04297 17.4375L1.67578 17.4375C0.5625 17.4375 0 16.8867 0 15.7852L0 13.3594C0 12.2578 0.5625 11.7188 1.67578 11.7188L4.04297 11.7188C5.15625 11.7188 5.71875 12.2695 5.71875 13.3594Z" fill="black" fill-opacity="0.425"/>
  <path d="M14.9883 1.64062L14.9883 3.27777C12.2343 3.47421 9.92595 5.88127 9.90461 8.97656L4.79297 8.97656C3.67969 8.97656 3.11719 8.4375 3.11719 7.33594L3.11719 1.64062C3.11719 0.550781 3.67969 0 4.79297 0L13.3008 0C14.4258 0 14.9883 0.550781 14.9883 1.64062Z" fill="black" fill-opacity="0.425"/>
  <path d="M28.9219 6.73828L28.9219 13.5703C28.9219 14.6602 28.3594 15.2109 27.2344 15.2109L23.7773 15.2109C22.6641 15.2109 22.1016 14.6602 22.1016 13.5703L22.1016 6.73828C22.1016 5.64844 22.6641 5.09766 23.7773 5.09766L27.2344 5.09766C28.3594 5.09766 28.9219 5.64844 28.9219 6.73828Z" fill="black" fill-opacity="0.425"/>
  <path d="M15.3633 13.2656C17.4258 13.2656 19.2188 11.4141 19.2188 9C19.2188 6.62109 17.4258 4.85156 15.3633 4.85156C13.3008 4.85156 11.4961 6.65625 11.4961 9.02344C11.4961 11.4141 13.3008 13.2656 15.3633 13.2656ZM8.88281 22.207L21.832 22.207C22.8633 22.207 23.4844 21.7266 23.4844 20.9297C23.4844 18.4336 20.3672 14.9883 15.3633 14.9883C10.3477 14.9883 7.23047 18.4336 7.23047 20.9297C7.23047 21.7266 7.85156 22.207 8.88281 22.207Z" fill="black" fill-opacity="0.85"/>
 </g>
</svg>
