<?xml version="1.0" encoding="UTF-8"?>
<!--Generator: Apple Native CoreSVG 360-->
<!DOCTYPE svg
PUBLIC "-//W3C//DTD SVG 1.1//EN"
       "http://www.w3.org/Graphics/SVG/1.1/DTD/svg11.dtd">
<svg version="1.1" xmlns="http://www.w3.org/2000/svg" xmlns:xlink="http://www.w3.org/1999/xlink" viewBox="0 0 35.3086 20.6367">
 <g>
  <rect height="20.6367" opacity="0" width="35.3086" x="0" y="0"/>
  <path d="M12.2578 7.89844C12.2578 8.4091 12.3221 8.90233 12.448 9.36751C9.29465 11.2534 7.33594 14.8765 7.33594 18.8086C7.33594 19.3242 6.90234 19.7344 6.38672 19.7344C5.85938 19.7344 5.4375 19.3242 5.4375 18.8086C5.4375 13.903 8.12386 9.39621 12.2856 7.32745ZM29.5312 18.8086C29.5312 19.3242 29.0977 19.7344 28.582 19.7344C28.0664 19.7344 27.6211 19.3242 27.6211 18.8086C27.6211 14.8841 25.6754 11.2673 22.513 9.37922C22.6436 8.90376 22.7109 8.39874 22.7109 7.875C22.7109 7.6956 22.7028 7.51868 22.685 7.34524C26.8535 9.42109 29.5312 13.9165 29.5312 18.8086Z" fill="black" fill-opacity="0.425"/>
  <path d="M34.957 18.7969C34.957 19.3242 34.5234 19.7344 33.9961 19.7344C33.4805 19.7344 33.0703 19.3242 33.0703 18.7969C33.0703 9.48047 26.0625 1.88672 17.4727 1.88672C8.87109 1.88672 1.88672 9.48047 1.88672 18.7969C1.88672 19.3242 1.46484 19.7344 0.949219 19.7344C0.421875 19.7344 0 19.3242 0 18.7969C0 8.44922 7.83984 0 17.4727 0C27.0938 0 34.957 8.44922 34.957 18.7969Z" fill="black" fill-opacity="0.425"/>
  <path d="M11.5664 20.0156L23.3789 20.0156C24.3633 20.0156 24.9844 19.5469 24.9844 18.7617C24.9844 16.418 22.0898 13.2422 17.4844 13.2422C12.8555 13.2422 9.97266 16.418 9.97266 18.7617C9.97266 19.5469 10.5703 20.0156 11.5664 20.0156ZM17.4844 11.8594C19.418 11.8594 21.1055 10.125 21.1055 7.875C21.1055 5.64844 19.3945 3.98438 17.4844 3.98438C15.5391 3.98438 13.8633 5.68359 13.8633 7.89844C13.8633 10.125 15.5391 11.8594 17.4844 11.8594Z" fill="black" fill-opacity="0.85"/>
 </g>
</svg>
