<?xml version="1.0" encoding="UTF-8"?>
<!--Generator: Apple Native CoreSVG 360-->
<!DOCTYPE svg
PUBLIC "-//W3C//DTD SVG 1.1//EN"
       "http://www.w3.org/Graphics/SVG/1.1/DTD/svg11.dtd">
<svg version="1.1" xmlns="http://www.w3.org/2000/svg" xmlns:xlink="http://www.w3.org/1999/xlink" viewBox="0 0 28.582 23.5195">
 <g>
  <rect height="23.5195" opacity="0" width="28.582" x="0" y="0"/>
  <path d="M28.2305 14.1094C28.2305 10.6641 26.9883 7.48828 24.9141 5.02734C24.6797 4.74609 24.2812 4.74609 24.0234 5.01562L21.3047 7.73438C21.082 7.95703 21.0703 8.27344 21.2695 8.51953C22.4766 10.0664 23.2031 12.0117 23.2031 14.1094C23.2031 16.2188 22.4766 18.1641 21.1992 19.793C21.0352 19.9922 21.0469 20.25 21.2227 20.4375L24.0117 23.2266C24.2812 23.4961 24.668 23.4961 24.9141 23.2031C26.9883 20.7422 28.2305 17.5664 28.2305 14.1094Z" fill="black" fill-opacity="0.85"/>
  <path d="M14.1094 5.02734C16.2305 5.02734 18.1758 5.76562 19.7344 6.97266C19.9688 7.16016 20.2734 7.13672 20.4961 6.91406L23.2148 4.19531C23.4844 3.92578 23.4727 3.53906 23.1914 3.30469C20.7422 1.24219 17.5664 0 14.1094 0C10.6641 0 7.48828 1.24219 5.03906 3.30469C4.75781 3.53906 4.74609 3.92578 5.01562 4.19531L7.73438 6.91406C7.95703 7.13672 8.27344 7.16016 8.53125 6.96094C10.0781 5.76562 12.0117 5.02734 14.1094 5.02734Z" fill="black" fill-opacity="0.85"/>
  <path d="M0 14.1094C0 17.5664 1.24219 20.7422 3.31641 23.2031C3.55078 23.4961 3.94922 23.4961 4.20703 23.2266L6.99609 20.4375C7.17188 20.25 7.19531 19.9922 7.03125 19.793C5.75391 18.1641 5.02734 16.2188 5.02734 14.1094C5.02734 12.0117 5.74219 10.0664 6.96094 8.51953C7.14844 8.27344 7.14844 7.95703 6.92578 7.73438L4.20703 5.01562C3.9375 4.74609 3.55078 4.74609 3.31641 5.02734C1.24219 7.48828 0 10.6641 0 14.1094Z" fill="black" fill-opacity="0.85"/>
  <path d="M9.78516 19.5234C10.125 19.5234 10.3477 19.2891 10.3477 18.9141L10.3477 10.4062L12.9492 10.4062C14.2852 10.4062 14.9648 10.7461 14.9648 12.2695L14.9648 15.7969C14.9648 16.1836 15.1875 16.418 15.5508 16.418C15.9141 16.418 16.1367 16.1836 16.1367 15.7969L16.1367 12.0352C16.1367 10.1133 15.2812 9.11719 13.3477 9.11719L10.0781 9.11719C9.51562 9.11719 9.1875 9.45703 9.1875 10.0078L9.1875 18.9141C9.1875 19.2891 9.42188 19.5234 9.78516 19.5234ZM12.9258 19.418L16.3359 19.418C18.3516 19.418 19.0195 18.3281 19.0195 16.3008L19.0195 9.64453C19.0195 9.25781 18.7969 9.01172 18.4336 9.01172C18.0703 9.01172 17.8359 9.25781 17.8359 9.64453L17.8359 16.2539C17.8359 17.7539 17.5195 18.1289 16.0078 18.1289L13.2422 18.1289L13.2422 12.7266C13.2422 12.3516 13.0195 12.1172 12.668 12.1172C12.3047 12.1172 12.0703 12.3516 12.0703 12.7266L12.0703 18.5742C12.0703 19.1133 12.4336 19.418 12.9258 19.418Z" fill="black" fill-opacity="0.85"/>
 </g>
</svg>
