<?xml version="1.0" encoding="UTF-8"?>
<!--Generator: Apple Native CoreSVG 360-->
<!DOCTYPE svg
PUBLIC "-//W3C//DTD SVG 1.1//EN"
       "http://www.w3.org/Graphics/SVG/1.1/DTD/svg11.dtd">
<svg version="1.1" xmlns="http://www.w3.org/2000/svg" xmlns:xlink="http://www.w3.org/1999/xlink" viewBox="0 0 26.5195 25.0195">
 <g>
  <rect height="25.0195" opacity="0" width="26.5195" x="0" y="0"/>
  <path d="M1.55859 22.2188L24.6094 22.2188L24.6094 21.4336C24.6094 20.9648 24.3398 20.6836 23.8594 20.6836L23.1094 20.6836L23.1094 8.03906L24.1406 8.03906C24.7852 8.03906 25.1602 7.57031 25.1602 7.08984C25.1602 6.73828 24.9609 6.43359 24.5273 6.1875L14.5195 0.410156C14.0508 0.140625 13.5586 0 13.0781 0C12.5977 0 12.0938 0.140625 11.6484 0.410156L1.64062 6.1875C1.19531 6.43359 1.00781 6.73828 1.00781 7.08984C1.00781 7.57031 1.38281 8.03906 2.02734 8.03906L3.05859 8.03906L3.05859 20.6836L2.32031 20.6836C1.83984 20.6836 1.55859 20.9648 1.55859 21.4336ZM4.82812 20.6836L4.82812 6.53906L12.6211 2.16797C12.7617 2.08594 12.9258 2.03906 13.0781 2.03906C13.2305 2.03906 13.3945 2.08594 13.5469 2.16797L21.3398 6.53906L21.3398 20.6836ZM0.9375 25.0078L25.2188 25.0078C25.7344 25.0078 26.168 24.5742 26.168 24.0586C26.168 23.543 25.7344 23.1211 25.2188 23.1211L0.9375 23.1211C0.421875 23.1211 0 23.543 0 24.0586C0 24.5742 0.421875 25.0078 0.9375 25.0078Z" fill="black" fill-opacity="0.85"/>
  <path d="M8.76562 17.5898C9.11719 17.5898 9.33984 17.3555 9.33984 16.9805L9.33984 8.47266L11.9414 8.47266C13.2773 8.47266 13.957 8.8125 13.957 10.3359L13.957 13.8633C13.957 14.25 14.168 14.4844 14.5312 14.4844C14.8945 14.4844 15.1172 14.25 15.1172 13.8633L15.1172 10.1016C15.1172 8.17969 14.2734 7.18359 12.3281 7.18359L9.05859 7.18359C8.50781 7.18359 8.16797 7.52344 8.16797 8.07422L8.16797 16.9805C8.16797 17.3555 8.40234 17.5898 8.76562 17.5898ZM11.918 17.4844L15.3164 17.4844C17.3438 17.4844 18.0117 16.3945 18.0117 14.3672L18.0117 7.71094C18.0117 7.32422 17.7891 7.07812 17.4258 7.07812C17.0625 7.07812 16.8281 7.32422 16.8281 7.71094L16.8281 14.3203C16.8281 15.8203 16.5 16.1953 14.9883 16.1953L12.2344 16.1953L12.2344 10.793C12.2344 10.418 12.0117 10.1836 11.6602 10.1836C11.2969 10.1836 11.0625 10.418 11.0625 10.793L11.0625 16.6406C11.0625 17.1797 11.4141 17.4844 11.918 17.4844Z" fill="black" fill-opacity="0.85"/>
 </g>
</svg>
