<?xml version="1.0" encoding="UTF-8"?>
<!--Generator: Apple Native CoreSVG 360-->
<!DOCTYPE svg
PUBLIC "-//W3C//DTD SVG 1.1//EN"
       "http://www.w3.org/Graphics/SVG/1.1/DTD/svg11.dtd">
<svg version="1.1" xmlns="http://www.w3.org/2000/svg" xmlns:xlink="http://www.w3.org/1999/xlink" viewBox="0 0 28.582 23.4085">
 <g>
  <rect height="23.4085" opacity="0" width="28.582" x="0" y="0"/>
  <path d="M28.2305 14.0539C28.2305 6.67105 22.5586 0.612457 15.3398 0.00308175C14.9648-0.0320745 14.6836 0.237457 14.6836 0.612457L14.6836 4.44449C14.6836 4.76089 14.9062 5.00699 15.2227 5.03043C19.7109 5.58121 23.2031 9.41324 23.2031 14.0539C23.2031 16.1632 22.4766 18.1086 21.1992 19.7375C21.0352 19.9367 21.0469 20.1945 21.2227 20.382L24.0234 23.1711C24.2812 23.4289 24.6797 23.4289 24.9141 23.1476C26.9883 20.6867 28.2305 17.5109 28.2305 14.0539Z" fill="black" fill-opacity="0.85"/>
  <path d="M0 14.0539C0 17.5226 1.24219 20.6984 3.31641 23.1593C3.55078 23.4406 3.9375 23.4289 4.20703 23.1711L7.00781 20.382C7.18359 20.1945 7.19531 19.9367 7.03125 19.7375C5.74219 18.1086 5.02734 16.1632 5.02734 14.0539C5.02734 9.41324 8.51953 5.58121 13.0078 5.03043C13.3242 5.00699 13.5469 4.76089 13.5469 4.44449L13.5469 0.612457C13.5469 0.237457 13.2656-0.0320745 12.8906 0.00308175C5.67188 0.612457 0 6.67105 0 14.0539Z" fill="black" fill-opacity="0.85"/>
  <path d="M9.78516 19.4679C10.125 19.4679 10.3477 19.2336 10.3477 18.8586L10.3477 10.3507L12.9492 10.3507C14.2852 10.3507 14.9648 10.6906 14.9648 12.214L14.9648 15.7414C14.9648 16.1281 15.1875 16.3625 15.5508 16.3625C15.9141 16.3625 16.1367 16.1281 16.1367 15.7414L16.1367 11.9796C16.1367 10.0578 15.2812 9.06168 13.3477 9.06168L10.0781 9.06168C9.51562 9.06168 9.1875 9.40152 9.1875 9.9523L9.1875 18.8586C9.1875 19.2336 9.42188 19.4679 9.78516 19.4679ZM12.9258 19.3625L16.3359 19.3625C18.3516 19.3625 19.0195 18.2726 19.0195 16.2453L19.0195 9.58902C19.0195 9.2023 18.7969 8.95621 18.4336 8.95621C18.0703 8.95621 17.8359 9.2023 17.8359 9.58902L17.8359 16.1984C17.8359 17.6984 17.5195 18.0734 16.0078 18.0734L13.2422 18.0734L13.2422 12.6711C13.2422 12.2961 13.0195 12.0617 12.668 12.0617C12.3047 12.0617 12.0703 12.2961 12.0703 12.6711L12.0703 18.5187C12.0703 19.0578 12.4336 19.3625 12.9258 19.3625Z" fill="black" fill-opacity="0.85"/>
 </g>
</svg>
