<?xml version="1.0" encoding="UTF-8"?>
<!--Generator: Apple Native CoreSVG 360-->
<!DOCTYPE svg
PUBLIC "-//W3C//DTD SVG 1.1//EN"
       "http://www.w3.org/Graphics/SVG/1.1/DTD/svg11.dtd">
<svg version="1.1" xmlns="http://www.w3.org/2000/svg" xmlns:xlink="http://www.w3.org/1999/xlink" viewBox="0 0 19.6992 21.0352">
 <g>
  <rect height="21.0352" opacity="0" width="19.6992" x="0" y="0"/>
  <path d="M1.05469 21.0234C1.71094 21.0234 2.08594 20.5078 2.08594 19.9453L2.08594 2.48438L7.46484 2.48438C10.3594 2.48438 11.5195 3.39844 11.5195 6.33984L11.5195 13.7812C11.5195 14.4492 11.918 14.8711 12.5742 14.8711C13.207 14.8711 13.5938 14.4492 13.5938 13.7812L13.5938 5.94141C13.5938 2.09766 11.9648 0.210938 8.15625 0.210938L1.5 0.210938C0.597656 0.210938 0 0.773438 0 1.69922L0 19.9453C0 20.5781 0.421875 21.0234 1.05469 21.0234ZM7.24219 20.8125L14.0625 20.8125C18.0586 20.8125 19.3477 18.6328 19.3477 14.6484L19.3477 1.06641C19.3477 0.410156 18.9609 0 18.3398 0C17.6836 0 17.2852 0.410156 17.2852 1.06641L17.2852 14.6367C17.2852 17.6836 16.582 18.5156 13.4883 18.5156L7.82812 18.5156L7.82812 7.18359C7.82812 6.51562 7.44141 6.09375 6.82031 6.09375C6.16406 6.09375 5.76562 6.51562 5.76562 7.18359L5.76562 19.3242C5.76562 20.2031 6.35156 20.8125 7.24219 20.8125Z" fill="black" fill-opacity="0.85"/>
 </g>
</svg>
