<?xml version="1.0" encoding="UTF-8"?>
<!--Generator: Apple Native CoreSVG 360-->
<!DOCTYPE svg
PUBLIC "-//W3C//DTD SVG 1.1//EN"
       "http://www.w3.org/Graphics/SVG/1.1/DTD/svg11.dtd">
<svg version="1.1" xmlns="http://www.w3.org/2000/svg" xmlns:xlink="http://www.w3.org/1999/xlink" viewBox="0 0 25.5586 21.9023">
 <g>
  <rect height="21.9023" opacity="0" width="25.5586" x="0" y="0"/>
  <path d="M8.98828 21.75L16.2188 21.75C17.8594 21.75 18.7383 20.7891 18.7383 19.2422L18.7383 13.9922L23.4961 13.9922C24.457 13.9922 25.207 13.4062 25.207 12.5156C25.207 11.9648 24.9258 11.5547 24.5039 11.1328L14.0508 0.714844C13.5938 0.257812 13.125 0 12.5977 0C12.082 0 11.6016 0.257812 11.1562 0.714844L0.703125 11.1328C0.246094 11.5781 0 11.9648 0 12.5156C0 13.4062 0.75 13.9922 1.69922 13.9922L6.46875 13.9922L6.46875 19.2422C6.46875 20.7891 7.34766 21.75 8.98828 21.75ZM9.17578 19.9336C8.73047 19.9336 8.42578 19.6289 8.42578 19.1953L8.42578 12.6211C8.42578 12.3281 8.32031 12.2227 8.03906 12.2227L2.625 12.2227C2.54297 12.2227 2.49609 12.1875 2.49609 12.1289C2.49609 12.082 2.51953 12.0469 2.56641 11.9883L12.3516 2.26172C12.4453 2.16797 12.5273 2.14453 12.5977 2.14453C12.6797 2.14453 12.7617 2.16797 12.8438 2.26172L22.6289 11.9883C22.6875 12.0469 22.6992 12.082 22.6992 12.1289C22.6992 12.1875 22.6641 12.2227 22.5703 12.2227L17.168 12.2227C16.8867 12.2227 16.7812 12.3281 16.7812 12.6211L16.7812 19.1953C16.7812 19.6172 16.4648 19.9336 16.0312 19.9336Z" fill="black" fill-opacity="0.85"/>
 </g>
</svg>
