<?xml version="1.0" encoding="UTF-8"?>
<!--Generator: Apple Native CoreSVG 360-->
<!DOCTYPE svg
PUBLIC "-//W3C//DTD SVG 1.1//EN"
       "http://www.w3.org/Graphics/SVG/1.1/DTD/svg11.dtd">
<svg version="1.1" xmlns="http://www.w3.org/2000/svg" xmlns:xlink="http://www.w3.org/1999/xlink" viewBox="0 0 34.5234 25.793">
 <g>
  <rect height="25.793" opacity="0" width="34.5234" x="0" y="0"/>
  <path d="M23.8359 0.84375L32.1328 5.55469C33.1172 6.11719 33.5625 6.87891 33.5625 8.09766L33.5625 17.3789C33.5625 19.0547 33 19.6758 31.9219 20.2852L22.6992 25.5117C22.043 25.8867 21.4219 25.8867 20.7656 25.5117L11.543 20.2852C10.4766 19.6758 9.90234 19.0547 9.90234 17.3789L9.90234 17.0039L11.6836 17.0039L11.6836 17.3203C11.6836 17.9648 11.918 18.3633 12.5859 18.7383L20.8125 23.4141L20.8125 13.6875L11.6836 8.47266L11.6836 11.6836L9.90234 11.6836L9.90234 8.09766C9.90234 6.87891 10.3477 6.11719 11.3438 5.55469L19.6289 0.84375C21.0469 0.0351562 22.418 0.0351562 23.8359 0.84375ZM22.6523 13.6875L22.6523 23.4141L30.8789 18.7383C31.5469 18.3633 31.7812 17.9648 31.7812 17.3203L31.7812 8.47266ZM12.6914 6.92578L21.7383 12.0469L25.3594 9.99609L16.3125 4.85156ZM20.4023 2.51953L18.1641 3.79688L27.2461 8.92969L30.7734 6.92578L23.0625 2.51953C22.1484 1.99219 21.3164 2.00391 20.4023 2.51953Z" fill="black" fill-opacity="0.85"/>
  <path d="M0 14.3438C0 14.5898 0.0820312 14.7891 0.316406 15.0234L4.04297 18.8906C4.21875 19.0664 4.40625 19.1602 4.65234 19.1602C5.13281 19.1602 5.47266 18.7969 5.47266 18.3047C5.47266 18.082 5.39062 17.8359 5.20312 17.6719L3.26953 15.8672L1.65234 14.3438L3.26953 12.832L5.20312 11.0156C5.39062 10.8516 5.47266 10.5938 5.47266 10.3711C5.47266 9.87891 5.13281 9.52734 4.65234 9.52734C4.40625 9.52734 4.21875 9.63281 4.04297 9.80859L0.316406 13.6641C0.0820312 13.9102 0 14.1094 0 14.3438ZM14.8828 14.3438C14.8828 13.8398 14.4609 13.418 13.9688 13.418L4.18359 13.418L1.76953 13.5C1.30078 13.5117 0.925781 13.8867 0.925781 14.3438C0.925781 14.8125 1.30078 15.1875 1.76953 15.1992L4.18359 15.2812L13.9688 15.2812C14.4609 15.2812 14.8828 14.8477 14.8828 14.3438Z" fill="black" fill-opacity="0.85"/>
 </g>
</svg>
