<?xml version="1.0" encoding="UTF-8"?>
<!--Generator: Apple Native CoreSVG 360-->
<!DOCTYPE svg
PUBLIC "-//W3C//DTD SVG 1.1//EN"
       "http://www.w3.org/Graphics/SVG/1.1/DTD/svg11.dtd">
<svg version="1.1" xmlns="http://www.w3.org/2000/svg" xmlns:xlink="http://www.w3.org/1999/xlink" viewBox="0 0 41.6133 21.082">
 <g>
  <rect height="21.082" opacity="0" width="41.6133" x="0" y="0"/>
  <path d="M17.0156 1.26562L23.2969 4.94531C24.4102 5.57812 24.6445 5.625 25.7227 5.625C26.8008 5.625 29.6719 5.16797 30.9492 5.16797C33.6914 5.16797 35.5547 6.99609 35.5547 9.66797C35.5547 9.67311 35.5547 9.67825 35.5541 9.68327C34.9629 9.73529 34.2823 9.814 33.631 9.88733C33.6321 9.8808 33.6325 9.874 33.6328 9.86719C33.6328 9.64453 33.6211 9.42188 33.5859 9.22266C33.5326 9.48577 33.4494 9.71291 33.3174 9.92233C32.5459 10.0079 31.8451 10.0781 31.418 10.0781C31.2527 10.0781 31.1071 10.077 30.9767 10.0724L31.1016 10.0078C32.3906 9.32812 32.8828 8.67188 32.8828 8.20312C32.8828 7.34766 31.875 7.05469 30.9375 7.05469C29.8276 7.05469 27.0069 7.49952 25.7754 7.51061L22.7109 5.71875C21.6148 5.08172 20.5608 4.79882 19.5687 4.94031L16.0547 2.90625C14.4141 1.95703 13.6406 2.02734 12.4805 3.51562C10.8398 5.63672 8.8125 6.71484 6.83203 6.71484C5.17969 6.71484 3.9375 6.33984 2.78906 5.83594C2.35547 5.625 1.88672 5.80078 1.88672 6.35156L1.88672 11.6133C1.88672 11.6953 1.88672 11.7891 1.89844 11.8711C2.25 12.1641 2.82422 12.2812 3.86719 12.2812L5.70703 12.2812L5.70703 13.5937L3.86719 13.5938C3.12891 13.5938 2.60156 13.5117 2.10938 13.2891C2.48438 14.4492 3.375 14.7422 4.61719 14.7422L5.70703 14.7422L5.70703 16.0664C5.70703 16.2615 5.71284 16.4496 5.72577 16.6289L4.62891 16.6289C2.36719 16.6289 0 15.5508 0 11.6133L0 6.36328C0 4.21875 1.95703 3.41016 3.76172 4.19531C4.69922 4.62891 5.56641 4.82812 6.83203 4.82812C8.26172 4.82812 9.64453 4.08984 10.9922 2.36719C12.7031 0.140625 14.7773-0.0351562 17.0156 1.26562Z" fill="black" fill-opacity="0.85"/>
  <path d="M22.7109 5.71875C20.4727 4.41797 18.4102 4.59375 16.6875 6.82031C15.3398 8.54297 13.957 9.28125 12.5273 9.28125C11.2617 9.28125 10.4062 9.08203 9.45703 8.64844C7.66406 7.86328 5.70703 8.67188 5.70703 10.8164L5.70703 16.0664C5.70703 20.0039 8.07422 21.082 10.3359 21.082L28.9688 21.082C32.7422 21.082 34.9102 20.5078 37.8516 18.8789C40.1836 17.5781 41.2617 15.9727 41.2617 14.1211C41.2617 11.4492 39.3867 9.62109 36.6445 9.62109C35.3789 9.62109 32.5078 10.0781 31.418 10.0781C30.3516 10.0781 30.1055 10.0312 29.0039 9.39844ZM7.60547 16.3242C7.59375 16.2422 7.59375 16.1602 7.59375 16.0664L7.59375 10.8047C7.59375 10.2539 8.0625 10.0781 8.49609 10.2891C9.64453 10.793 10.875 11.168 12.5273 11.168C14.5195 11.168 16.5469 10.0898 18.1875 7.96875C19.3477 6.48047 20.1211 6.41016 21.7617 7.35938L28.0664 11.0156C29.4961 11.8477 30.1289 11.9648 31.418 11.9648C32.625 11.9648 35.5078 11.5078 36.6328 11.5078C37.582 11.5078 38.5781 11.8008 38.5781 12.6562C38.5781 13.1367 38.0859 13.7812 36.8086 14.4609L34.7109 15.5391C33.082 16.4062 31.8164 16.7344 28.9688 16.7344L9.5625 16.7344C8.53125 16.7344 7.94531 16.6172 7.60547 16.3242ZM7.80469 17.7422C8.30859 17.9648 8.82422 18.0469 9.5625 18.0469L28.9688 18.0469C31.9336 18.0469 33.4805 17.6484 35.3438 16.6758L37.4297 15.6211C38.6719 14.9648 39.1172 14.4844 39.2812 13.6758C39.3164 13.875 39.3398 14.0977 39.3281 14.3203C39.2695 15.4688 38.543 16.3477 36.9492 17.2383C34.2656 18.7266 32.4844 19.1953 28.9688 19.1953L10.3242 19.1953C9.07031 19.1953 8.19141 18.9023 7.80469 17.7422ZM22.8047 6.97266L20.7305 9.82031C20.5078 10.1016 20.543 10.5234 20.8125 10.7344C21.0938 10.957 21.5273 10.9336 21.7383 10.6523L23.8242 7.79297ZM25.4531 8.32031L23.4023 11.1328C23.168 11.4492 23.2148 11.8242 23.4844 12.0352C23.8125 12.293 24.1875 12.2812 24.4219 11.9531L26.4727 9.14062ZM28.0898 9.67969L26.0742 12.4453C25.8398 12.75 25.875 13.1367 26.1445 13.3477C26.4492 13.6055 26.8359 13.5703 27.0703 13.2656L29.1094 10.4883Z" fill="black" fill-opacity="0.85"/>
 </g>
</svg>
