<?xml version="1.0" encoding="UTF-8"?>
<!--Generator: Apple Native CoreSVG 360-->
<!DOCTYPE svg
PUBLIC "-//W3C//DTD SVG 1.1//EN"
       "http://www.w3.org/Graphics/SVG/1.1/DTD/svg11.dtd">
<svg version="1.1" xmlns="http://www.w3.org/2000/svg" xmlns:xlink="http://www.w3.org/1999/xlink" viewBox="0 0 36.5087 25.7678">
 <g>
  <rect height="25.7678" opacity="0" width="36.5087" x="0" y="0"/>
  <path d="M23.5864 4.29992C26.188 4.2882 27.8872 5.4718 28.2622 8.26086C28.5669 10.4288 29.3872 11.7648 30.6294 12.4796C31.7192 13.1007 32.563 13.3702 33.6059 13.464C35.5512 13.6749 36.852 15.3624 35.7739 17.214L33.1489 21.7726C31.1802 25.171 28.5903 24.9249 26.6333 23.7882L10.4848 14.4718C7.22703 12.5851 5.63328 11.0148 3.89891 8.13195C2.52781 5.83508 2.41062 3.9132 3.33641 2.29601C4.67234-0.0125789 7.19187-0.65711 9.57078 0.713984C10.6723 1.3468 12.9341 3.18664 13.8716 3.7257C14.7973 4.26476 15.0317 4.33508 16.3091 4.33508ZM31.3794 21.0343C31.4262 20.9757 31.4731 20.8937 31.52 20.8234L34.145 16.2648C34.4262 15.7843 34.0981 15.3976 33.6177 15.3624C32.3755 15.2335 31.1216 14.9405 29.6802 14.1085C27.9692 13.1124 26.7505 11.1671 26.3872 8.50695C26.1294 6.64367 25.4966 6.19836 23.5981 6.19836L16.2973 6.21008C14.6567 6.21008 14.0473 5.99914 12.9223 5.35461C11.8794 4.75695 9.61766 2.91711 8.63328 2.35461C7.82469 1.87414 6.80516 1.62805 6.37156 2.37805C6.13719 2.77648 6.24266 3.5968 7.01609 4.82726L8.28172 6.80773C9.26609 8.36633 10.2036 9.29211 12.6645 10.7101L29.4692 20.4132C30.3716 20.9288 30.9341 21.128 31.3794 21.0343ZM30.4887 22.1593C29.9497 22.1124 29.4458 21.9132 28.813 21.5499L12.0083 11.8468C9.44187 10.3702 8.30516 9.24523 7.18016 7.4757L5.90281 5.51867C5.14109 4.31164 5.00047 3.69055 5.25828 2.89367C5.12937 3.05773 5.01219 3.23351 4.895 3.44445C4.37937 4.46398 4.56687 5.58898 5.50437 7.14758C7.08641 9.7843 8.38719 11.0734 11.4341 12.8312L27.5825 22.1593C28.6606 22.7804 29.5864 22.9679 30.4887 22.1593ZM22.8833 5.33117L23.2583 8.83508C23.3052 9.19836 23.0708 9.5382 22.7309 9.5968C22.3794 9.64367 22.0161 9.4093 21.9692 9.05773L21.5942 5.54211ZM19.9184 5.17883L20.2934 8.63586C20.3286 9.0343 20.1059 9.32726 19.7544 9.38586C19.3559 9.44445 19.0395 9.23351 18.9927 8.8468L18.6294 5.37805Z" fill="black" fill-opacity="0.85"/>
  <path d="M1.90672 18.2804L6.66453 21.6085C7.37937 22.1241 8.19969 21.5968 8.09422 20.7413L7.61375 16.3702C7.53172 15.7843 7.09812 15.4796 6.52391 15.5968L2.24656 16.6398C1.42625 16.8273 1.15672 17.7765 1.90672 18.2804ZM1.67234 25.2648L6.16062 18.8546C6.46531 18.4327 6.35984 17.8702 5.93797 17.5773C5.51609 17.296 4.95359 17.3663 4.64891 17.7999L0.172343 24.2218C-0.132345 24.6437-0.0151572 25.1945 0.38328 25.4874C0.805155 25.7921 1.36766 25.6984 1.67234 25.2648Z" fill="black" fill-opacity="0.85"/>
 </g>
</svg>
