<?xml version="1.0" encoding="UTF-8"?>
<!--Generator: Apple Native CoreSVG 360-->
<!DOCTYPE svg
PUBLIC "-//W3C//DTD SVG 1.1//EN"
       "http://www.w3.org/Graphics/SVG/1.1/DTD/svg11.dtd">
<svg version="1.1" xmlns="http://www.w3.org/2000/svg" xmlns:xlink="http://www.w3.org/1999/xlink" viewBox="0 0 40.5016 25.951">
 <g>
  <rect height="25.951" opacity="0" width="40.5016" x="0" y="0"/>
  <path d="M27.575 4.39154C30.1649 4.37982 31.8641 5.56341 32.2391 8.35247C32.5438 10.5204 33.3758 11.8564 34.618 12.5712C35.7078 13.1923 36.5516 13.4618 37.5828 13.5556C39.5399 13.7665 40.8289 15.454 39.7625 17.3056L37.1375 21.8642C35.1688 25.2626 32.5789 25.0165 30.6219 23.8798L14.4735 14.5634C11.2156 12.6767 9.61017 11.1064 7.88752 8.22357C6.51642 5.92669 6.38752 4.00482 7.3133 2.38763C8.64924 0.079036 11.1805-0.565495 13.5594 0.805598C14.661 1.43841 16.911 3.27825 17.8485 3.81732C18.786 4.35638 19.0086 4.42669 20.2977 4.42669ZM35.368 21.1259C35.4031 21.0673 35.4617 20.9853 35.4969 20.915L38.1336 16.3564C38.4031 15.8759 38.0867 15.4892 37.6063 15.454C36.3641 15.3251 35.0985 15.0322 33.6688 14.2001C31.9461 13.204 30.7274 11.2587 30.3758 8.59857C30.1063 6.73529 29.4735 6.28997 27.5867 6.28997L20.286 6.30169C18.6453 6.30169 18.0242 6.09075 16.911 5.44622C15.8563 4.84857 13.5945 3.00872 12.6219 2.44622C11.8016 1.96575 10.7938 1.71966 10.3602 2.46966C10.1258 2.8681 10.2313 3.68841 11.0047 4.91888L12.2703 6.89935C13.243 8.45794 14.1805 9.38372 16.6414 10.8017L33.4578 20.5048C34.3485 21.0204 34.911 21.2197 35.368 21.1259ZM34.4774 22.2509C33.9266 22.204 33.4344 22.0048 32.8016 21.6415L15.9852 11.9384C13.4305 10.4618 12.282 9.33685 11.157 7.56732L9.8797 5.61029C9.1297 4.40325 8.98908 3.78216 9.24689 2.98529C9.11799 3.14935 8.98908 3.32513 8.88361 3.53607C8.35627 4.5556 8.54377 5.6806 9.49299 7.23919C11.0633 9.87591 12.3758 11.165 15.4227 12.9228L31.5711 22.2509C32.6492 22.872 33.5633 23.0595 34.4774 22.2509ZM26.8719 5.42279L27.2469 8.92669C27.2938 9.28997 27.0594 9.62982 26.7078 9.68841C26.368 9.73529 25.993 9.50091 25.9578 9.14935L25.5828 5.63372ZM23.8953 5.27044L24.2703 8.72747C24.3055 9.12591 24.0945 9.41888 23.743 9.47747C23.3328 9.53607 23.0164 9.32513 22.9813 8.93841L22.6063 5.46966ZM20.9422 5.12982L21.3055 8.52825C21.3406 8.91497 21.1297 9.23138 20.7781 9.27825C20.3914 9.34857 20.075 9.12591 20.0281 8.73919L19.6531 5.31732Z" fill="black" fill-opacity="0.85"/>
  <path d="M0.72736 13.204L5.87189 14.0478C6.68049 14.165 6.98517 13.6376 6.65705 12.9228L4.70002 8.91497C4.40705 8.31732 3.85627 8.25872 3.39924 8.71575L0.328923 11.9267C-0.21014 12.454-0.0929522 13.0751 0.72736 13.204ZM6.1297 20.1767L1.0672 21.4072C0.235173 21.6064 0.188298 22.2158 0.739079 22.7079L4.05549 25.6728C4.53595 26.1415 5.05158 26.0009 5.33283 25.3798L6.98517 21.2431C7.30158 20.5048 6.92658 19.9892 6.1297 20.1767ZM4.28986 13.5439C4.58283 12.29 2.64924 11.8212 2.32111 13.2392C1.58283 16.4501 2.13361 19.9189 2.83674 22.3447C3.25861 23.8447 5.18049 23.2704 4.78205 21.8993C4.09064 19.5322 3.59845 16.3915 4.28986 13.5439Z" fill="black" fill-opacity="0.85"/>
 </g>
</svg>
