<?xml version="1.0" encoding="UTF-8"?>
<!--Generator: Apple Native CoreSVG 360-->
<!DOCTYPE svg
PUBLIC "-//W3C//DTD SVG 1.1//EN"
       "http://www.w3.org/Graphics/SVG/1.1/DTD/svg11.dtd">
<svg version="1.1" xmlns="http://www.w3.org/2000/svg" xmlns:xlink="http://www.w3.org/1999/xlink" viewBox="0 0 35.9062 16.6523">
 <g>
  <rect height="16.6523" opacity="0" width="35.9062" x="0" y="0"/>
  <path d="M17.0156 1.28906C14.7773-0.0117188 12.7031 0.164062 10.9922 2.39062C9.64453 4.11328 8.26172 4.85156 6.83203 4.85156C5.56641 4.85156 4.69922 4.65234 3.76172 4.21875C1.95703 3.43359 0 4.24219 0 6.38672L0 11.6367C0 15.5742 2.36719 16.6523 4.62891 16.6523L23.2734 16.6523C27.0352 16.6523 29.2148 16.0781 32.1562 14.4492C34.4766 13.1484 35.5547 11.543 35.5547 9.69141C35.5547 7.01953 33.6914 5.19141 30.9492 5.19141C29.6719 5.19141 26.8008 5.64844 25.7227 5.64844C24.6445 5.64844 24.4102 5.60156 23.2969 4.96875ZM1.89844 11.8945C1.88672 11.8125 1.88672 11.7305 1.88672 11.6367L1.88672 6.375C1.88672 5.82422 2.35547 5.64844 2.78906 5.85938C3.9375 6.36328 5.17969 6.73828 6.83203 6.73828C8.8125 6.73828 10.8398 5.66016 12.4805 3.53906C13.6406 2.05078 14.4141 1.98047 16.0547 2.92969L22.3711 6.58594C23.7891 7.41797 24.4336 7.53516 25.7227 7.53516C26.9297 7.53516 29.8125 7.07812 30.9375 7.07812C31.875 7.07812 32.8828 7.37109 32.8828 8.22656C32.8828 8.70703 32.3906 9.35156 31.1016 10.0312L29.0156 11.1094C27.3867 11.9766 26.1094 12.3047 23.2734 12.3047L3.86719 12.3047C2.82422 12.3047 2.25 12.1875 1.89844 11.8945ZM2.10938 13.3125C2.60156 13.5352 3.12891 13.6172 3.86719 13.6172L23.2734 13.6172C26.2266 13.6172 27.7852 13.2188 29.6367 12.2461L31.7227 11.1914C32.9766 10.5234 33.4219 10.0547 33.5859 9.24609C33.6211 9.44531 33.6328 9.66797 33.6328 9.89062C33.5742 11.0391 32.8477 11.918 31.2422 12.8086C28.5703 14.2969 26.7891 14.7656 23.2734 14.7656L4.61719 14.7656C3.375 14.7656 2.48438 14.4727 2.10938 13.3125ZM17.0977 2.54297L15.0234 5.39062C14.8125 5.67188 14.8359 6.09375 15.1172 6.30469C15.3867 6.52734 15.8203 6.50391 16.0312 6.22266L18.1172 3.36328ZM19.7578 3.89062L17.707 6.70312C17.4727 7.01953 17.5078 7.39453 17.7891 7.60547C18.1055 7.86328 18.4922 7.83984 18.7266 7.52344L20.7656 4.71094ZM22.3828 5.25L20.3789 8.01562C20.1445 8.32031 20.168 8.70703 20.4492 8.91797C20.7422 9.17578 21.1406 9.14062 21.375 8.83594L23.4023 6.05859Z" fill="black" fill-opacity="0.85"/>
 </g>
</svg>
