<?xml version="1.0" encoding="UTF-8"?>
<!--Generator: Apple Native CoreSVG 360-->
<!DOCTYPE svg
PUBLIC "-//W3C//DTD SVG 1.1//EN"
       "http://www.w3.org/Graphics/SVG/1.1/DTD/svg11.dtd">
<svg version="1.1" xmlns="http://www.w3.org/2000/svg" xmlns:xlink="http://www.w3.org/1999/xlink" viewBox="0 0 28.4883 16.0898">
 <g>
  <rect height="16.0898" opacity="0" width="28.4883" x="0" y="0"/>
  <path d="M26.0391 1.66406C26.4961 1.66406 26.8711 1.28906 26.8711 0.832031C26.8711 0.375 26.4961 0 26.0391 0C25.582 0 25.207 0.375 25.207 0.832031C25.207 1.28906 25.582 1.66406 26.0391 1.66406ZM27.3047 8.85938C27.7617 8.85938 28.1367 8.48438 28.1367 8.02734C28.1367 7.57031 27.7617 7.19531 27.3047 7.19531C26.8477 7.19531 26.4727 7.57031 26.4727 8.02734C26.4727 8.48438 26.8477 8.85938 27.3047 8.85938ZM26.0508 16.0547C26.5078 16.0547 26.8828 15.6797 26.8828 15.2109C26.8828 14.7539 26.5078 14.3789 26.0508 14.3789C25.5938 14.3789 25.2188 14.7539 25.2188 15.2109C25.2188 15.6797 25.5938 16.0547 26.0508 16.0547Z" fill="black" fill-opacity="0.85"/>
  <path d="M23.2031 3.15234C23.6602 3.15234 24.0352 2.77734 24.0352 2.32031C24.0352 1.85156 23.6602 1.48828 23.2031 1.48828C22.7461 1.48828 22.3711 1.85156 22.3711 2.32031C22.3711 2.77734 22.7461 3.15234 23.2031 3.15234ZM23.8125 8.85938C24.2695 8.85938 24.6445 8.48438 24.6445 8.02734C24.6445 7.57031 24.2695 7.19531 23.8125 7.19531C23.3555 7.19531 22.9805 7.57031 22.9805 8.02734C22.9805 8.48438 23.3555 8.85938 23.8125 8.85938ZM23.2148 14.5664C23.6719 14.5664 24.0469 14.1914 24.0469 13.7344C24.0469 13.2773 23.6719 12.9023 23.2148 12.9023C22.7578 12.9023 22.3828 13.2773 22.3828 13.7344C22.3828 14.1914 22.7578 14.5664 23.2148 14.5664Z" fill="black" fill-opacity="0.85"/>
  <path d="M20.3555 4.64062C20.8242 4.64062 21.1875 4.26562 21.1875 3.80859C21.1875 3.35156 20.8242 2.97656 20.3555 2.97656C19.8984 2.97656 19.5234 3.35156 19.5234 3.80859C19.5234 4.26562 19.8984 4.64062 20.3555 4.64062ZM20.3086 8.85938C20.7773 8.85938 21.1406 8.48438 21.1406 8.02734C21.1406 7.57031 20.7773 7.19531 20.3086 7.19531C19.8516 7.19531 19.4766 7.57031 19.4766 8.02734C19.4766 8.48438 19.8516 8.85938 20.3086 8.85938ZM20.3672 13.0781C20.8359 13.0781 21.1992 12.7031 21.1992 12.2461C21.1992 11.7891 20.8359 11.4141 20.3672 11.4141C19.9102 11.4141 19.5352 11.7891 19.5352 12.2461C19.5352 12.7031 19.9102 13.0781 20.3672 13.0781Z" fill="black" fill-opacity="0.85"/>
  <path d="M2.16797 12.9844C3.97266 12.9844 4.98047 11.8359 4.98047 9.79688L4.98047 6.28125C4.98047 4.24219 3.97266 3.09375 2.16797 3.09375L1.08984 3.09375C0.398438 3.09375 0 3.49219 0 4.18359L0 11.8945C0 12.5859 0.398438 12.9844 1.08984 12.9844ZM2.16797 11.5195L1.66406 11.5195C1.54688 11.5195 1.46484 11.4375 1.46484 11.3086L1.46484 4.76953C1.46484 4.64062 1.54688 4.55859 1.66406 4.55859L2.16797 4.55859C3.03516 4.55859 3.51562 5.17969 3.51562 6.28125L3.51562 9.79688C3.51562 10.8984 3.03516 11.5195 2.16797 11.5195ZM13.9805 15.2344C15.0234 15.2344 15.6914 14.5664 15.6914 13.5234L15.6914 2.55469C15.6914 1.51172 15.0234 0.84375 13.9805 0.84375L11.3906 0.84375C8.35547 0.84375 6.45703 2.75391 6.45703 5.78906L6.45703 10.3008C6.45703 13.3359 8.35547 15.2344 11.3906 15.2344ZM13.6641 13.582L11.3906 13.582C9.375 13.582 8.10938 12.3047 8.10938 10.3008L8.10938 5.78906C8.10938 3.77344 9.375 2.50781 11.3906 2.50781L13.6641 2.50781C13.8867 2.50781 14.0391 2.64844 14.0391 2.87109L14.0391 13.2188C14.0391 13.4297 13.8867 13.582 13.6641 13.582ZM18.0234 10.6641L18.0234 5.42578C18.0234 3.83203 17.1445 2.85938 15.75 2.85938L15.1523 2.85938L15.1523 13.2188L15.75 13.2188C17.1445 13.2188 18.0234 12.2344 18.0234 10.6641ZM7.48828 10.6992L7.48828 9.04688L4.33594 9.04688L4.33594 10.6992ZM7.48828 6.91406L7.48828 5.26172L4.33594 5.26172L4.33594 6.91406Z" fill="black" fill-opacity="0.85"/>
 </g>
</svg>
