<?xml version="1.0" encoding="UTF-8"?>
<!--Generator: Apple Native CoreSVG 360-->
<!DOCTYPE svg
PUBLIC "-//W3C//DTD SVG 1.1//EN"
       "http://www.w3.org/Graphics/SVG/1.1/DTD/svg11.dtd">
<svg version="1.1" xmlns="http://www.w3.org/2000/svg" xmlns:xlink="http://www.w3.org/1999/xlink" viewBox="0 0 27.1406 25.6055">
 <g>
  <rect height="25.6055" opacity="0" width="27.1406" x="0" y="0"/>
  <path d="M25.957 4.25391C26.4141 4.25391 26.7891 3.87891 26.7891 3.42188C26.7891 2.96484 26.4141 2.58984 25.957 2.58984C25.5 2.58984 25.125 2.96484 25.125 3.42188C25.125 3.87891 25.5 4.25391 25.957 4.25391ZM24.7266 11.3906C25.1836 11.3906 25.5586 11.0156 25.5586 10.5586C25.5586 10.1016 25.1836 9.72656 24.7266 9.72656C24.2695 9.72656 23.8945 10.1016 23.8945 10.5586C23.8945 11.0156 24.2695 11.3906 24.7266 11.3906ZM21.1055 17.6602C21.5625 17.6602 21.9375 17.2852 21.9375 16.8281C21.9375 16.3711 21.5625 15.9961 21.1055 15.9961C20.6367 15.9961 20.2734 16.3711 20.2734 16.8281C20.2734 17.2852 20.6367 17.6602 21.1055 17.6602Z" fill="black" fill-opacity="0.85"/>
  <path d="M22.793 4.67578C23.25 4.67578 23.625 4.30078 23.625 3.84375C23.625 3.38672 23.25 3.01172 22.793 3.01172C22.3359 3.01172 21.9609 3.38672 21.9609 3.84375C21.9609 4.30078 22.3359 4.67578 22.793 4.67578ZM21.4453 10.1836C21.9023 10.1836 22.2773 9.80859 22.2773 9.35156C22.2773 8.89453 21.9023 8.51953 21.4453 8.51953C20.9883 8.51953 20.6133 8.89453 20.6133 9.35156C20.6133 9.80859 20.9883 10.1836 21.4453 10.1836ZM18.9375 15.293C19.3945 15.293 19.7695 14.918 19.7695 14.4609C19.7695 14.0039 19.3945 13.6289 18.9375 13.6289C18.4805 13.6289 18.1055 14.0039 18.1055 14.4609C18.1055 14.918 18.4805 15.293 18.9375 15.293Z" fill="black" fill-opacity="0.85"/>
  <path d="M19.5938 5.09766C20.0625 5.09766 20.4375 4.72266 20.4375 4.26562C20.4375 3.80859 20.0625 3.43359 19.5938 3.43359C19.1367 3.43359 18.7617 3.80859 18.7617 4.26562C18.7617 4.72266 19.1367 5.09766 19.5938 5.09766ZM18.1406 9C18.6094 9 18.9727 8.625 18.9727 8.16797C18.9727 7.71094 18.6094 7.33594 18.1406 7.33594C17.6836 7.33594 17.3086 7.71094 17.3086 8.16797C17.3086 8.625 17.6836 9 18.1406 9ZM16.7812 12.9141C17.2383 12.9141 17.6133 12.5391 17.6133 12.082C17.6133 11.625 17.2383 11.25 16.7812 11.25C16.3242 11.25 15.9492 11.625 15.9492 12.082C15.9492 12.5391 16.3242 12.9141 16.7812 12.9141Z" fill="black" fill-opacity="0.85"/>
  <path d="M16.5938 0.726562L12.1055 13.0898C11.9414 13.5234 12.1641 14.0039 12.6094 14.168C13.043 14.332 13.5234 14.0977 13.6875 13.6758L18.1875 1.3125C18.3398 0.867188 18.1172 0.386719 17.6836 0.222656C17.2383 0.0585938 16.7461 0.292969 16.5938 0.726562ZM2.34375 20.6133C3.53906 21.0469 4.71094 20.4844 5.13281 19.3242L8.89453 9.05859L8.27344 9.44531C8.96484 11.0508 10.3711 12.4102 12.3164 13.0078L12.8203 11.5898C10.4766 10.7461 9.10547 9.05859 9.04688 6.89062L8.58984 6.72656C8.39062 6.64453 8.15625 6.75 8.08594 6.96094L3.80859 18.6914C3.63281 19.1719 3.1875 19.3008 2.8125 19.1602C2.47266 19.0195 2.25 18.6797 2.41406 18.2461L7.48828 4.32422C7.78125 3.49219 8.67188 3.08203 9.49219 3.375L10.1719 3.62109C11.6133 1.93359 13.8047 1.47656 16.1953 2.34375L16.6992 0.9375C14.0977-0.0117188 11.5781 0.375 9.78516 1.95703L9.57422 1.875C8.13281 1.35938 6.73828 2.14453 6.11719 3.83203L1.03125 17.8125C0.609375 18.9844 1.17188 20.1797 2.34375 20.6133ZM3.23438 20.0742L2.01562 19.6289L0 25.1719L1.21875 25.6055Z" fill="black" fill-opacity="0.85"/>
 </g>
</svg>
