<?xml version="1.0" encoding="UTF-8"?>
<!--Generator: Apple Native CoreSVG 360-->
<!DOCTYPE svg
PUBLIC "-//W3C//DTD SVG 1.1//EN"
       "http://www.w3.org/Graphics/SVG/1.1/DTD/svg11.dtd">
<svg version="1.1" xmlns="http://www.w3.org/2000/svg" xmlns:xlink="http://www.w3.org/1999/xlink" viewBox="0 0 21.4922 24.6914">
 <g>
  <rect height="24.6914" opacity="0" width="21.4922" x="0" y="0"/>
  <path d="M9.62109 4.18359L11.5078 4.18359L11.5078 0.949219C11.5078 0.433594 11.0859 0 10.5703 0C10.0547 0 9.62109 0.433594 9.62109 0.949219ZM0 12.4922C0 14.0625 0.890625 14.9414 2.48438 14.9414L18.6562 14.9414C20.25 14.9414 21.1406 14.0625 21.1406 12.4922L21.1406 5.26172C21.1406 3.69141 20.25 2.82422 18.6562 2.82422L2.48438 2.82422C0.890625 2.82422 0 3.69141 0 5.26172ZM2.53125 4.71094L18.6094 4.71094C18.9727 4.71094 19.207 4.94531 19.207 5.32031L19.207 12.4336C19.207 12.8086 18.9727 13.0547 18.6094 13.0547L2.53125 13.0547C2.16797 13.0547 1.93359 12.8086 1.93359 12.4336L1.93359 5.32031C1.93359 4.94531 2.16797 4.71094 2.53125 4.71094ZM9.62109 14.2734L9.62109 24.6094L11.5078 24.6094L11.5078 14.2734ZM5.10938 23.7305C5.10938 24.2461 5.54297 24.668 6.05859 24.668L15.082 24.668C15.6094 24.668 16.0312 24.2461 16.0312 23.7305C16.0312 23.2148 15.6094 22.7812 15.082 22.7812L6.05859 22.7812C5.54297 22.7812 5.10938 23.2148 5.10938 23.7305Z" fill="black" fill-opacity="0.85"/>
  <path d="M7.83984 11.4258L13.3242 11.4258C14.1445 11.4258 14.3789 10.8398 13.9219 10.1953L11.25 6.375C10.8633 5.83594 10.2891 5.83594 9.91406 6.375L7.24219 10.1836C6.76172 10.8516 6.98438 11.4258 7.83984 11.4258Z" fill="black" fill-opacity="0.85"/>
 </g>
</svg>
