<?xml version="1.0" encoding="UTF-8"?>
<!--Generator: Apple Native CoreSVG 360-->
<!DOCTYPE svg
PUBLIC "-//W3C//DTD SVG 1.1//EN"
       "http://www.w3.org/Graphics/SVG/1.1/DTD/svg11.dtd">
<svg version="1.1" xmlns="http://www.w3.org/2000/svg" xmlns:xlink="http://www.w3.org/1999/xlink" viewBox="0 0 23.2355 26.4727">
 <g>
  <rect height="26.4727" opacity="0" width="23.2355" x="0" y="0"/>
  <path d="M10.5103 3.73828L12.397 3.73828L12.397 0.949219C12.397 0.433594 11.9634 0 11.4478 0C10.9322 0 10.5103 0.433594 10.5103 0.949219ZM7.53376 10.7461L18.4322 10.7461C19.1002 10.7461 19.5689 10.5586 20.0025 10.1367L22.2525 7.99219C23.108 7.17188 23.108 6.39844 22.2291 5.53125L20.0025 3.375C19.5806 2.96484 19.1119 2.78906 18.4439 2.78906L7.53376 2.78906C6.49079 2.78906 5.8697 3.36328 5.8697 4.44141L5.8697 9.09375C5.8697 10.1602 6.49079 10.7461 7.53376 10.7461ZM7.9322 9.07031C7.72126 9.07031 7.54548 8.89453 7.54548 8.68359L7.54548 4.85156C7.54548 4.64062 7.72126 4.46484 7.9322 4.46484L18.4088 4.46484C18.5963 4.46484 18.7955 4.52344 18.9127 4.62891L20.7994 6.48047C20.9752 6.63281 20.9869 6.89062 20.7994 7.06641L18.8892 8.88281C18.7603 9 18.5728 9.07031 18.397 9.07031ZM4.45173 20.5547L15.3502 20.5547C16.4049 20.5547 17.0142 19.9688 17.0142 18.9023L17.0142 14.2383C17.0142 13.1719 16.4049 12.5859 15.3502 12.5859L4.44001 12.5859C3.78376 12.5859 3.31501 12.7734 2.88141 13.1836L0.66657 15.3398C-0.212336 16.1953-0.224055 16.9805 0.643133 17.8125L2.88141 19.9453C3.32673 20.3672 3.79548 20.5547 4.45173 20.5547ZM4.48688 18.8789C4.3111 18.8789 4.13532 18.8086 4.00641 18.6914L2.08454 16.8867C1.90876 16.7109 1.92048 16.4414 2.08454 16.2891L3.98298 14.4375C4.10016 14.332 4.29938 14.2617 4.47516 14.2617L14.9517 14.2617C15.1627 14.2617 15.3384 14.4375 15.3384 14.6484L15.3384 18.4922C15.3384 18.7031 15.1627 18.8789 14.9517 18.8789ZM10.5103 13.3359L12.397 13.3359L12.397 9.92578L10.5103 9.92578ZM10.5103 25.5234L12.397 25.5234L12.397 19.2305L10.5103 19.2305ZM7.39313 26.4023L15.4908 26.4023C16.0064 26.4023 16.4283 25.9805 16.4283 25.4648C16.4283 24.9492 16.0064 24.5156 15.4908 24.5156L7.39313 24.5156C6.87751 24.5156 6.45563 24.9492 6.45563 25.4648C6.45563 25.9805 6.87751 26.4023 7.39313 26.4023Z" fill="black" fill-opacity="0.85"/>
 </g>
</svg>
