<?xml version="1.0" encoding="UTF-8"?>
<!--Generator: Apple Native CoreSVG 360-->
<!DOCTYPE svg
PUBLIC "-//W3C//DTD SVG 1.1//EN"
       "http://www.w3.org/Graphics/SVG/1.1/DTD/svg11.dtd">
<svg version="1.1" xmlns="http://www.w3.org/2000/svg" xmlns:xlink="http://www.w3.org/1999/xlink" viewBox="0 0 24.2579 24.6914">
 <g>
  <rect height="24.6914" opacity="0" width="24.2579" x="0" y="0"/>
  <path d="M2.73049 14.9414L18.0235 14.9297C19.0899 14.9297 19.5703 14.6133 20.168 14.0391L23.2969 11.0508C24.5625 9.84375 24.5977 8.66016 23.2852 7.39453L20.168 4.42969C19.5703 3.84375 19.0899 3.52734 18.0352 3.52734L2.73049 3.52734C1.13674 3.52734 0.246114 4.39453 0.246114 5.96484L0.246114 12.4922C0.246114 14.0625 1.13674 14.9414 2.73049 14.9414ZM2.77736 13.0547C2.41408 13.0547 2.17971 12.8086 2.17971 12.4336L2.17971 6.02344C2.17971 5.64844 2.41408 5.41406 2.77736 5.41406L17.9766 5.41406C18.4336 5.41406 18.5977 5.51953 18.8203 5.71875L22.0313 8.76562C22.336 9.04688 22.336 9.39844 22.0313 9.67969L18.8086 12.75C18.586 12.9492 18.4336 13.0547 17.9649 13.0547ZM10.1367 5.00391L12.0235 5.00391L12.0235 0.949219C12.0235 0.433594 11.5899 0 11.0742 0C10.5586 0 10.1367 0.433594 10.1367 0.949219ZM10.1367 14.2734L10.1367 24.6094L12.0235 24.6094L12.0235 14.2734ZM5.62502 23.7305C5.62502 24.2461 6.05861 24.668 6.57424 24.668L15.5977 24.668C16.1133 24.668 16.5469 24.2461 16.5469 23.7305C16.5469 23.2148 16.1133 22.7812 15.5977 22.7812L6.57424 22.7812C6.05861 22.7812 5.62502 23.2148 5.62502 23.7305Z" fill="black" fill-opacity="0.85"/>
 </g>
</svg>
