<?xml version="1.0" encoding="UTF-8"?>
<!--Generator: Apple Native CoreSVG 360-->
<!DOCTYPE svg
PUBLIC "-//W3C//DTD SVG 1.1//EN"
       "http://www.w3.org/Graphics/SVG/1.1/DTD/svg11.dtd">
<svg version="1.1" xmlns="http://www.w3.org/2000/svg" xmlns:xlink="http://www.w3.org/1999/xlink" viewBox="0 0 35.5664 30.0117">
 <g>
  <rect height="30.0117" opacity="0" width="35.5664" x="0" y="0"/>
  <path d="M1.67578 16.0898L3.14648 17.5519L4.61719 16.0898C4.92188 15.7852 5.37891 15.7734 5.68359 16.0898C6 16.3945 6 16.8516 5.68359 17.1562L4.21818 18.6174L5.68359 20.0742C6 20.3789 6 20.8477 5.68359 21.1523C5.37891 21.457 4.92188 21.457 4.61719 21.1523L3.14648 19.6859L1.67578 21.1523C1.37109 21.4453 0.914062 21.457 0.609375 21.1523C0.292969 20.8477 0.292969 20.3906 0.609375 20.0742L2.07479 18.6174L0.609375 17.1562C0.292969 16.8633 0.292969 16.3945 0.609375 16.0898C0.914062 15.7734 1.37109 15.7734 1.67578 16.0898Z" fill="black" fill-opacity="0.85"/>
  <path d="M8.58343 25.7227L0.9375 25.7227C0.421875 25.7227 0 25.2891 0 24.7734C0 24.2578 0.421875 23.8359 0.9375 23.8359L9.16691 23.8359C8.87915 24.4875 8.68181 25.124 8.58343 25.7227ZM15.6581 25.7227L10.3743 25.7227C10.475 25.1455 10.7001 24.5041 11.0439 23.8359L16.6318 23.8359C16.3469 24.5399 16.0217 25.1764 15.6581 25.7227ZM35.2148 24.7734C35.2148 25.2891 34.7812 25.7227 34.2656 25.7227L17.7062 25.7227C18.0214 25.1476 18.2993 24.5146 18.5408 23.8359L34.2656 23.8359C34.7812 23.8359 35.2148 24.2578 35.2148 24.7734Z" fill="black" fill-opacity="0.85"/>
  <path d="M11.7422 30.0117C16.5938 30.0117 19.7695 23.8945 19.7695 16.125C19.7695 9.52734 16.7812 4.20703 12.0938 4.20703C9.08203 4.20703 6.75 6.77344 6.75 10.043C6.75 14.8828 10.7344 18.8203 14.8828 20.7773C15.0469 20.8477 15.1875 20.8828 15.3281 20.8828C15.7969 20.8828 16.1484 20.5078 16.1484 20.0977C16.1484 19.8164 15.9961 19.5352 15.6562 19.3711C12.9727 18.0703 8.54297 14.7656 8.54297 10.043C8.54297 7.75781 10.0898 5.98828 12.0938 5.98828C15.6914 5.98828 17.9883 10.5703 17.9883 16.125C17.9883 22.7578 15.3984 28.2305 11.9531 28.2305C10.8281 28.2305 10.3008 27.4922 10.3008 26.4375C10.3008 23.168 15.2578 16.793 22.0664 16.793C22.4766 16.793 22.7109 16.9688 22.7109 17.2734C22.7109 18.293 22.1602 19.0898 22.1602 20.1094C22.1602 21 22.8047 21.5391 23.6719 21.5391C26.0508 21.5391 28.9102 17.4727 29.8711 17.4727C30.7383 17.4727 29.6602 21.1289 32.6016 21.1289C33.0938 21.1289 33.7148 21 34.1953 20.6836C34.4766 20.4961 34.6758 20.2148 34.6758 19.8516C34.6758 19.4062 34.3828 19.043 33.9258 19.043C33.5156 19.043 33.1758 19.3828 32.7773 19.3828C31.5117 19.3828 32.7188 15.4922 30.3867 15.4922C28.3359 15.4922 25.1602 19.4531 24.3398 19.4531C24.2461 19.4531 24.1641 19.3945 24.1641 19.2539C24.1641 18.832 24.6797 17.8711 24.6797 16.9336C24.6797 15.7617 23.707 15.0117 22.1953 15.0117C14.3672 15.0117 8.47266 22.3594 8.47266 26.7773C8.47266 28.6641 9.53906 30.0117 11.7422 30.0117Z" fill="black" fill-opacity="0.85"/>
 </g>
</svg>
