<?xml version="1.0" encoding="UTF-8"?>
<!--Generator: Apple Native CoreSVG 360-->
<!DOCTYPE svg
PUBLIC "-//W3C//DTD SVG 1.1//EN"
       "http://www.w3.org/Graphics/SVG/1.1/DTD/svg11.dtd">
<svg version="1.1" xmlns="http://www.w3.org/2000/svg" xmlns:xlink="http://www.w3.org/1999/xlink" viewBox="0 0 24.1875 25.3945">
 <g>
  <rect height="25.3945" opacity="0" width="24.1875" x="0" y="0"/>
  <path d="M12.2695 0.855469L14.5602 3.15234L12.0305 3.15234L11.2734 2.39062C10.9102 2.02734 10.5586 1.88672 10.0312 1.88672L3.36328 1.88672C2.37891 1.88672 1.88672 2.39062 1.88672 3.33984L1.88672 18.7617C1.88672 19.7344 2.37891 20.2266 3.35156 20.2266L6.43359 20.2266L6.43359 21.9375C6.43359 21.9979 6.43445 22.0575 6.4394 22.1133L3.28125 22.1133C1.11328 22.1133 0 20.9766 0 18.7852L0 3.33984C0 1.13672 1.11328 0 3.28125 0L10.0898 0C11.0508 0 11.6602 0.246094 12.2695 0.855469ZM6.43359 18.6797L5.22656 18.6797C4.33594 18.6797 3.76172 18.1055 3.76172 17.2031L3.76172 13.5234L6.43359 13.5234ZM3.76172 12.3398L3.76172 10.9922C3.76172 10.0781 4.33594 9.51562 5.22656 9.51562L6.43359 9.51563L6.43359 12.3398Z" fill="black" fill-opacity="0.85"/>
  <path d="M9.72656 25.2656L20.5547 25.2656C22.7227 25.2656 23.8359 24.1289 23.8359 21.9375L23.8359 10.5117C23.8359 9.46875 23.6367 8.94141 23.0391 8.34375L18.7031 4.00781C18.0938 3.39844 17.4844 3.15234 16.5352 3.15234L9.72656 3.15234C7.55859 3.15234 6.43359 4.28906 6.43359 6.49219L6.43359 21.9375C6.43359 24.1289 7.55859 25.2656 9.72656 25.2656ZM9.78516 23.3789C8.8125 23.3789 8.32031 22.8867 8.32031 21.9141L8.32031 6.49219C8.32031 5.54297 8.82422 5.03906 9.79688 5.03906L16.4766 5.03906C17.0039 5.03906 17.3555 5.17969 17.7188 5.54297L21.5273 9.375C21.8438 9.70312 21.9492 9.99609 21.9492 10.6406L21.9492 21.9141C21.9492 22.8867 21.4453 23.3789 20.4727 23.3789ZM10.1953 20.3555C10.1953 21.2578 10.7812 21.832 11.6719 21.832L13.0781 21.832L13.0781 16.8398C13.0781 16.7344 13.0195 16.6758 12.9023 16.6758L10.1953 16.6758ZM10.1953 15.4922L13.6055 15.4922C14.0273 15.4922 14.2617 15.7383 14.2617 16.1367L14.2617 21.832L16.2422 21.832L16.2422 12.668L11.6719 12.668C10.7812 12.668 10.1953 13.2305 10.1953 14.1445ZM17.4258 21.832L18.5742 21.832C19.4766 21.832 20.0391 21.2578 20.0391 20.3555L20.0391 14.1445C20.0391 13.2305 19.4766 12.668 18.5742 12.668L17.4258 12.668Z" fill="black" fill-opacity="0.85"/>
 </g>
</svg>
