<?xml version="1.0" encoding="UTF-8"?>
<!--Generator: Apple Native CoreSVG 360-->
<!DOCTYPE svg
PUBLIC "-//W3C//DTD SVG 1.1//EN"
       "http://www.w3.org/Graphics/SVG/1.1/DTD/svg11.dtd">
<svg version="1.1" xmlns="http://www.w3.org/2000/svg" xmlns:xlink="http://www.w3.org/1999/xlink" viewBox="0 0 26.4762 26.1481">
 <g>
  <rect height="26.1481" opacity="0" width="26.4762" x="0" y="0"/>
  <path d="M9.576 5.06428C10.3612 4.71271 11.1932 4.49006 12.0721 4.38459C12.3182 4.36115 12.494 4.17365 12.494 3.92756L12.494 0.482246C12.494 0.189277 12.2713-0.0216602 11.9783 0.0134961C10.3846 0.142402 8.86115 0.575996 7.46662 1.23225C7.20881 1.36115 7.12678 1.66584 7.2674 1.91193L8.97834 4.86506C9.09553 5.076 9.34162 5.15803 9.576 5.06428Z" fill="black" fill-opacity="0.85"/>
  <path d="M6.03693 7.86506C6.55256 7.17365 7.16193 6.56428 7.86506 6.04865C8.06428 5.89631 8.11115 5.6385 7.99396 5.42756L6.28303 2.47443C6.1424 2.22834 5.83771 2.15803 5.59162 2.32209C4.31428 3.22443 3.21271 4.326 2.32209 5.61506C2.15803 5.86115 2.21662 6.15412 2.47443 6.30646L5.43928 7.99396C5.65021 8.12287 5.88459 8.076 6.03693 7.86506Z" fill="black" fill-opacity="0.85"/>
  <path d="M4.37287 12.0721C4.47834 11.2049 4.701 10.3612 5.04084 9.59943C5.14631 9.36506 5.076 9.11896 4.85334 8.99006L1.8885 7.29084C1.63068 7.1385 1.33771 7.23225 1.22053 7.49006C0.564277 8.88459 0.142402 10.3846 0.00177734 11.9901C-0.00994141 12.283 0.189277 12.494 0.482246 12.494L3.92756 12.494C4.17365 12.494 4.36115 12.3299 4.37287 12.0721Z" fill="black" fill-opacity="0.85"/>
  <path d="M5.04084 16.5604C4.71271 15.7869 4.49006 14.9432 4.38459 14.0643C4.36115 13.8065 4.17365 13.6424 3.92756 13.6424L0.482246 13.6424C0.189277 13.6424-0.0216602 13.8533 0.00177734 14.1463C0.130684 15.7635 0.564277 17.2752 1.23225 18.6697C1.34943 18.9393 1.63068 19.033 1.90021 18.8807L4.85334 17.158C5.076 17.0291 5.14631 16.783 5.04084 16.5604Z" fill="black" fill-opacity="0.85"/>
  <path d="M7.86506 20.0994C7.17365 19.5955 6.55256 18.9862 6.04865 18.283C5.89631 18.0838 5.65021 18.0252 5.42756 18.1541L2.47443 19.8416C2.21662 19.994 2.15803 20.2987 2.31037 20.5447C3.21271 21.8221 4.326 22.9237 5.60334 23.826C5.84943 23.9901 6.15412 23.9197 6.29475 23.6737L7.99396 20.7088C8.11115 20.4979 8.06428 20.2518 7.86506 20.0994Z" fill="black" fill-opacity="0.85"/>
  <path d="M12.0721 21.7635C11.2049 21.658 10.3612 21.4354 9.58771 21.1072C9.36506 20.9901 9.10725 21.0721 8.99006 21.283L7.27912 24.2362C7.1385 24.494 7.22053 24.7987 7.49006 24.9158C8.87287 25.5721 10.3846 26.0057 11.9783 26.1463C12.2713 26.158 12.494 25.9588 12.494 25.6658L12.494 22.2205C12.494 21.9744 12.3182 21.7869 12.0721 21.7635Z" fill="black" fill-opacity="0.85"/>
  <path d="M16.5487 21.0955C15.7869 21.4354 14.9432 21.658 14.0526 21.7635C13.8065 21.7869 13.6307 21.9744 13.6307 22.2205L13.6307 25.6658C13.6307 25.9588 13.8533 26.1697 14.1463 26.1463C15.7401 26.0174 17.2752 25.5721 18.658 24.9158C18.9158 24.7987 18.9979 24.494 18.8572 24.2362L17.1463 21.283C17.0291 21.0721 16.783 20.9901 16.5487 21.0955Z" fill="black" fill-opacity="0.85"/>
  <path d="M20.0994 18.283C19.5838 18.9744 18.9627 19.5721 18.2713 20.0994C18.0721 20.2518 18.0135 20.5096 18.1307 20.7088L19.8416 23.6619C19.9822 23.908 20.2869 23.9901 20.533 23.826C21.8221 22.9237 22.9119 21.8104 23.8143 20.5447C23.9783 20.2987 23.8963 19.994 23.6502 19.8416L20.6971 18.1424C20.4979 18.0135 20.2518 18.0838 20.0994 18.283Z" fill="black" fill-opacity="0.85"/>
  <path d="M21.7635 14.0643C21.658 14.9432 21.4354 15.7869 21.0838 16.5604C20.9901 16.783 21.0604 17.0174 21.283 17.1463L24.2362 18.8455C24.494 18.9979 24.7869 18.9276 24.9158 18.6463C25.5604 17.2635 25.994 15.7518 26.1229 14.1463C26.1346 13.8533 25.9354 13.6424 25.6424 13.6424L22.2088 13.6424C21.9627 13.6424 21.7752 13.8065 21.7635 14.0643Z" fill="black" fill-opacity="0.85"/>
  <path d="M21.0838 9.58771C21.4119 10.3612 21.658 11.2049 21.7518 12.0721C21.7752 12.3299 21.9627 12.494 22.2088 12.494L25.6424 12.494C25.9354 12.494 26.1463 12.283 26.1229 11.9901C25.994 10.3963 25.5604 8.87287 24.9158 7.49006C24.7869 7.22053 24.4822 7.1385 24.2362 7.29084L21.2713 9.00178C21.0604 9.13068 20.9901 9.36506 21.0838 9.58771Z" fill="black" fill-opacity="0.85"/>
  <path d="M18.2713 6.04865C18.9627 6.56428 19.5721 7.16193 20.0994 7.86506C20.2518 8.06428 20.4979 8.13459 20.6971 8.00568L23.6502 6.30646C23.908 6.15412 23.9783 5.86115 23.826 5.61506C22.9237 4.326 21.8104 3.21271 20.533 2.32209C20.2869 2.15803 19.9822 2.22834 19.8416 2.48615L18.1424 5.42756C18.0135 5.65021 18.0604 5.89631 18.2713 6.04865Z" fill="black" fill-opacity="0.85"/>
  <path d="M14.0526 4.38459C14.9432 4.47834 15.7635 4.71271 16.5487 5.06428C16.783 5.15803 17.0291 5.076 17.1463 4.86506L18.8572 1.91193C18.9979 1.66584 18.9041 1.36115 18.6346 1.23225C17.2518 0.575996 15.7518 0.142402 14.1463 0.0134961C13.8533-0.00994141 13.6307 0.200996 13.6307 0.493965L13.6307 3.92756C13.6307 4.17365 13.8065 4.36115 14.0526 4.38459Z" fill="black" fill-opacity="0.85"/>
  <path d="M9.83381 17.826C11.7908 17.826 12.7049 16.6307 12.7049 15.0955C12.7049 13.4901 11.7322 12.8924 10.4901 12.4119L9.81037 12.1541C8.97834 11.8377 8.40412 11.4627 8.40412 10.5604C8.40412 9.7635 8.88459 9.15412 9.77521 9.15412C10.5487 9.15412 11.0877 9.61115 11.2987 10.4666C11.3924 10.7947 11.6033 10.9354 11.9315 10.9354C12.2713 10.9354 12.4822 10.6893 12.4822 10.3494C12.4822 10.2557 12.4705 10.1268 12.4471 10.0213C12.1541 8.79084 11.1346 8.02912 9.78693 8.02912C8.04084 8.02912 7.09162 9.21271 7.09162 10.6424C7.09162 12.0604 7.92365 12.8338 9.24787 13.3143L9.92756 13.5604C10.783 13.8651 11.3924 14.3104 11.3924 15.2244C11.3924 16.0447 10.8533 16.701 9.85725 16.701C8.97834 16.701 8.40412 16.2205 8.19318 15.3416C8.11115 15.0135 7.90021 14.8612 7.58381 14.8612C7.24396 14.8612 6.99787 15.119 6.99787 15.4822C6.99787 15.6346 7.02131 15.8104 7.06818 15.9276C7.4549 17.158 8.451 17.826 9.83381 17.826ZM16.408 17.4862C18.0369 17.4862 19.1854 16.5955 19.1854 15.0721C19.1854 13.6776 18.3299 13.1151 17.1697 12.576L16.3026 12.1658C15.5643 11.8143 14.9549 11.3807 14.9549 10.6541C14.9549 9.83381 15.576 9.43537 16.3846 9.43537C17.2987 9.43537 17.6737 10.0213 17.826 10.783C17.8846 11.0643 18.0721 11.2518 18.4354 11.2518C18.7987 11.2518 19.033 11.0526 19.033 10.6893C19.033 10.5369 19.0213 10.4432 18.9862 10.3377C18.6815 8.93146 17.6268 8.38068 16.3846 8.38068C14.9197 8.38068 13.701 9.18928 13.701 10.7244C13.701 12.0369 14.4744 12.658 15.6815 13.2322L16.5252 13.6307C17.2752 13.994 17.9197 14.3572 17.9197 15.1893C17.9197 15.9744 17.369 16.4197 16.4197 16.4197C15.4002 16.4197 14.9666 15.9276 14.8143 15.0252C14.7674 14.7791 14.5565 14.5447 14.2166 14.5447C13.8651 14.5447 13.6072 14.7791 13.6072 15.1424C13.6072 15.2244 13.619 15.3533 13.6424 15.4705C13.9588 16.9237 15.1072 17.4862 16.408 17.4862ZM16.3846 18.7049C16.5604 18.7049 16.7127 18.5526 16.7127 18.3768L16.7127 7.50178C16.7127 7.326 16.5604 7.17365 16.3846 7.17365C16.2088 7.17365 16.0565 7.326 16.0565 7.50178L16.0565 18.3768C16.0565 18.5526 16.2088 18.7049 16.3846 18.7049Z" fill="black" fill-opacity="0.85"/>
 </g>
</svg>
