<?xml version="1.0" encoding="UTF-8"?>
<!--Generator: Apple Native CoreSVG 360-->
<!DOCTYPE svg
PUBLIC "-//W3C//DTD SVG 1.1//EN"
       "http://www.w3.org/Graphics/SVG/1.1/DTD/svg11.dtd">
<svg version="1.1" xmlns="http://www.w3.org/2000/svg" xmlns:xlink="http://www.w3.org/1999/xlink" viewBox="0 0 29.6719 26.4258">
 <g>
  <rect height="26.4258" opacity="0" width="29.6719" x="0" y="0"/>
  <path d="M6.79688 24.3867C10.7461 24.3867 13.582 22.1719 13.582 18.1992C13.582 14.6602 11.2969 13.1719 8.10938 12.1875L6.32812 11.6367C4.26562 11.0039 2.61328 9.9375 2.61328 7.72266C2.61328 5.34375 4.48828 4.03125 6.62109 4.03125C8.64844 4.03125 10.4648 5.09766 10.9453 7.40625C11.0859 8.00391 11.4492 8.30859 12.0469 8.30859C12.6328 8.30859 13.1016 7.93359 13.1016 7.25391C13.1016 7.07812 13.0547 6.83203 13.0078 6.59766C12.3164 3.60938 9.66797 1.95703 6.65625 1.95703C3.04688 1.95703 0.304688 4.30078 0.304688 7.85156C0.304688 11.1797 2.42578 12.8555 5.61328 13.8398L7.39453 14.3906C9.59766 15.0586 11.2617 16.1133 11.2617 18.4336C11.2617 20.8359 9.33984 22.3008 6.89062 22.3008C4.45312 22.3008 2.60156 21.0586 2.12109 18.7031C1.95703 18.0469 1.59375 17.7891 1.04297 17.7891C0.421875 17.7891 0 18.2344 0 18.8672C0 19.2773 0.0585938 19.5703 0.140625 19.875C0.902344 22.7227 3.59766 24.3867 6.79688 24.3867ZM22.8398 23.6133C26.4258 23.6133 29.3203 21.7266 29.3203 18.1055C29.3203 14.9062 27.1641 13.6172 24.3398 12.4805L22.3242 11.6719C20.5781 10.9922 18.7852 9.97266 18.7852 7.94531C18.7852 5.85938 20.6602 4.73438 22.7695 4.73438C24.9727 4.73438 26.332 5.94141 26.7891 8.12109C26.9531 8.71875 27.3164 9.08203 27.9258 9.08203C28.582 9.08203 28.9922 8.66016 28.9922 8.01562C28.9922 7.86328 28.9805 7.59375 28.9336 7.3125C28.3008 4.26562 25.7812 2.73047 22.7695 2.73047C19.3945 2.73047 16.5352 4.65234 16.5352 8.07422C16.5352 11.0039 18.5859 12.5273 21.375 13.6406L23.3906 14.4492C25.3711 15.2227 27.0703 16.1484 27.0703 18.3047C27.0703 20.5195 25.3008 21.6094 22.8398 21.6094C20.3906 21.6094 18.8203 20.4961 18.4102 18.0938C18.2812 17.4961 17.8828 17.1094 17.2617 17.1094C16.6758 17.1094 16.1836 17.4961 16.1836 18.1875C16.1836 18.3281 16.207 18.4688 16.2188 18.5977C16.793 22.0547 19.5703 23.6133 22.8398 23.6133ZM22.7344 26.4141C23.1562 26.4141 23.4961 26.0742 23.4961 25.6523L23.4961 0.761719C23.4961 0.339844 23.1562 0 22.7344 0C22.3125 0 21.9727 0.339844 21.9727 0.761719L21.9727 25.6523C21.9727 26.0742 22.3125 26.4141 22.7344 26.4141Z" fill="black" fill-opacity="0.85"/>
 </g>
</svg>
