<?xml version="1.0" encoding="UTF-8"?>
<!--Generator: Apple Native CoreSVG 360-->
<!DOCTYPE svg
PUBLIC "-//W3C//DTD SVG 1.1//EN"
       "http://www.w3.org/Graphics/SVG/1.1/DTD/svg11.dtd">
<svg version="1.1" xmlns="http://www.w3.org/2000/svg" xmlns:xlink="http://www.w3.org/1999/xlink" viewBox="0 0 26.5195 25.0195">
 <g>
  <rect height="25.0195" opacity="0" width="26.5195" x="0" y="0"/>
  <path d="M1.55859 22.2188L24.6094 22.2188L24.6094 21.4336C24.6094 20.9648 24.3398 20.6836 23.8594 20.6836L23.1094 20.6836L23.1094 8.03906L24.1406 8.03906C24.7852 8.03906 25.1602 7.57031 25.1602 7.08984C25.1602 6.73828 24.9609 6.43359 24.5273 6.1875L14.5195 0.410156C14.0508 0.140625 13.5586 0 13.0781 0C12.5977 0 12.0938 0.140625 11.6484 0.410156L1.64062 6.1875C1.19531 6.43359 1.00781 6.73828 1.00781 7.08984C1.00781 7.57031 1.38281 8.03906 2.02734 8.03906L3.05859 8.03906L3.05859 20.6836L2.32031 20.6836C1.83984 20.6836 1.55859 20.9648 1.55859 21.4336ZM4.82812 20.6836L4.82812 6.53906L12.6211 2.16797C12.7617 2.08594 12.9258 2.03906 13.0781 2.03906C13.2305 2.03906 13.3945 2.08594 13.5469 2.16797L21.3398 6.53906L21.3398 20.6836ZM0.9375 25.0078L25.2188 25.0078C25.7344 25.0078 26.168 24.5742 26.168 24.0586C26.168 23.543 25.7344 23.1211 25.2188 23.1211L0.9375 23.1211C0.421875 23.1211 0 23.543 0 24.0586C0 24.5742 0.421875 25.0078 0.9375 25.0078Z" fill="black" fill-opacity="0.85"/>
  <path d="M9.86719 17.0977C11.8242 17.0977 12.7383 15.8906 12.7383 14.3555C12.7383 12.7617 11.7773 12.1523 10.5234 11.6836L9.84375 11.4258C9.01172 11.1094 8.4375 10.7227 8.4375 9.82031C8.4375 9.02344 8.91797 8.42578 9.80859 8.42578C10.5938 8.42578 11.1211 8.87109 11.332 9.72656C11.4258 10.0547 11.6484 10.1953 11.9648 10.1953C12.3047 10.1953 12.5273 9.96094 12.5273 9.60938C12.5273 9.52734 12.5039 9.39844 12.4805 9.28125C12.1875 8.05078 11.168 7.28906 9.82031 7.28906C8.07422 7.28906 7.125 8.48438 7.125 9.91406C7.125 11.3203 7.95703 12.1055 9.28125 12.5859L9.96094 12.8203C10.8164 13.125 11.4258 13.582 11.4258 14.4844C11.4258 15.3047 10.8867 15.9609 9.89062 15.9609C9.01172 15.9609 8.4375 15.4805 8.22656 14.6016C8.14453 14.2734 7.94531 14.1328 7.61719 14.1328C7.27734 14.1328 7.03125 14.3906 7.03125 14.7539C7.03125 14.8945 7.05469 15.0703 7.10156 15.1992C7.48828 16.418 8.48438 17.0977 9.86719 17.0977ZM16.4414 16.7461C18.0703 16.7461 19.2305 15.8555 19.2305 14.332C19.2305 12.9492 18.3633 12.375 17.2031 11.8359L16.3477 11.4375C15.5977 11.0742 15 10.6523 15 9.91406C15 9.10547 15.6094 8.70703 16.418 8.70703C17.332 8.70703 17.707 9.28125 17.8594 10.0547C17.918 10.3242 18.1055 10.5234 18.4805 10.5234C18.832 10.5234 19.0664 10.3125 19.0664 9.94922C19.0664 9.80859 19.0547 9.71484 19.0312 9.59766C18.7148 8.20312 17.6602 7.65234 16.418 7.65234C14.9531 7.65234 13.7344 8.44922 13.7344 9.99609C13.7344 11.2969 14.5078 11.918 15.7148 12.4922L16.5586 12.8906C17.3086 13.2539 17.9531 13.6172 17.9531 14.4492C17.9531 15.2344 17.4023 15.6797 16.4531 15.6797C15.4453 15.6797 15 15.1992 14.8594 14.2969C14.8008 14.0391 14.5898 13.8164 14.25 13.8164C13.8984 13.8164 13.6406 14.0391 13.6406 14.4023C13.6406 14.4961 13.6523 14.6133 13.6758 14.7422C13.9922 16.1836 15.1523 16.7461 16.4414 16.7461ZM16.418 17.9766C16.6055 17.9766 16.7461 17.8242 16.7461 17.6484L16.7461 6.76172C16.7461 6.58594 16.6055 6.43359 16.418 6.43359C16.2422 6.43359 16.0898 6.58594 16.0898 6.76172L16.0898 17.6484C16.0898 17.8242 16.2422 17.9766 16.418 17.9766Z" fill="black" fill-opacity="0.85"/>
 </g>
</svg>
