<?xml version="1.0" encoding="UTF-8"?>
<!--Generator: Apple Native CoreSVG 360-->
<!DOCTYPE svg
PUBLIC "-//W3C//DTD SVG 1.1//EN"
       "http://www.w3.org/Graphics/SVG/1.1/DTD/svg11.dtd">
<svg version="1.1" xmlns="http://www.w3.org/2000/svg" xmlns:xlink="http://www.w3.org/1999/xlink" viewBox="0 0 28.582 23.5195">
 <g>
  <rect height="23.5195" opacity="0" width="28.582" x="0" y="0"/>
  <path d="M28.2305 14.1094C28.2305 10.6641 26.9883 7.48828 24.9141 5.02734C24.6797 4.74609 24.2812 4.74609 24.0234 5.01562L21.3047 7.73438C21.082 7.95703 21.0703 8.27344 21.2695 8.51953C22.4766 10.0664 23.2031 12.0117 23.2031 14.1094C23.2031 16.2188 22.4766 18.1641 21.1992 19.793C21.0352 19.9922 21.0469 20.25 21.2227 20.4375L24.0117 23.2266C24.2812 23.4961 24.668 23.4961 24.9141 23.2031C26.9883 20.7422 28.2305 17.5664 28.2305 14.1094Z" fill="black" fill-opacity="0.85"/>
  <path d="M14.1094 5.02734C16.2305 5.02734 18.1758 5.76562 19.7344 6.97266C19.9688 7.16016 20.2734 7.13672 20.4961 6.91406L23.2148 4.19531C23.4844 3.92578 23.4727 3.53906 23.1914 3.30469C20.7422 1.24219 17.5664 0 14.1094 0C10.6641 0 7.48828 1.24219 5.03906 3.30469C4.75781 3.53906 4.74609 3.92578 5.01562 4.19531L7.73438 6.91406C7.95703 7.13672 8.27344 7.16016 8.53125 6.96094C10.0781 5.76562 12.0117 5.02734 14.1094 5.02734Z" fill="black" fill-opacity="0.85"/>
  <path d="M0 14.1094C0 17.5664 1.24219 20.7422 3.31641 23.2031C3.55078 23.4961 3.94922 23.4961 4.20703 23.2266L6.99609 20.4375C7.17188 20.25 7.19531 19.9922 7.03125 19.793C5.75391 18.1641 5.02734 16.2188 5.02734 14.1094C5.02734 12.0117 5.74219 10.0664 6.96094 8.51953C7.14844 8.27344 7.14844 7.95703 6.92578 7.73438L4.20703 5.01562C3.9375 4.74609 3.55078 4.74609 3.31641 5.02734C1.24219 7.48828 0 10.6641 0 14.1094Z" fill="black" fill-opacity="0.85"/>
  <path d="M10.875 19.0312C12.832 19.0312 13.7578 17.8242 13.7578 16.2891C13.7578 14.6953 12.7852 14.0859 11.5312 13.6172L10.8633 13.3594C10.0195 13.043 9.44531 12.6562 9.44531 11.7539C9.44531 10.957 9.92578 10.3594 10.8164 10.3594C11.6016 10.3594 12.1406 10.8047 12.3516 11.6602C12.4336 11.9883 12.6562 12.1289 12.9727 12.1289C13.3125 12.1289 13.5352 11.8945 13.5352 11.543C13.5352 11.4609 13.5234 11.332 13.4883 11.2148C13.207 9.98438 12.1758 9.22266 10.8398 9.22266C9.08203 9.22266 8.13281 10.418 8.13281 11.8477C8.13281 13.2539 8.97656 14.0391 10.3008 14.5195L10.9688 14.7539C11.8242 15.0586 12.4336 15.5156 12.4336 16.418C12.4336 17.2383 11.8945 17.8945 10.9102 17.8945C10.0195 17.8945 9.44531 17.4141 9.24609 16.5352C9.16406 16.207 8.95312 16.0664 8.63672 16.0664C8.28516 16.0664 8.03906 16.3242 8.03906 16.6875C8.03906 16.8281 8.07422 17.0039 8.10938 17.1328C8.49609 18.3516 9.49219 19.0312 10.875 19.0312ZM17.4492 18.6797C19.0898 18.6797 20.2383 17.7891 20.2383 16.2656C20.2383 14.8828 19.3711 14.3086 18.2109 13.7695L17.3555 13.3711C16.6055 13.0078 16.0078 12.5859 16.0078 11.8477C16.0078 11.0391 16.6172 10.6406 17.4258 10.6406C18.3516 10.6406 18.7148 11.2148 18.8672 11.9883C18.9375 12.2578 19.1133 12.457 19.4883 12.457C19.8398 12.457 20.0742 12.2461 20.0742 11.8828C20.0742 11.7422 20.0625 11.6484 20.0391 11.5312C19.7227 10.1367 18.6797 9.58594 17.4258 9.58594C15.9609 9.58594 14.7539 10.3828 14.7539 11.9297C14.7539 13.2305 15.5273 13.8516 16.7227 14.4258L17.5664 14.8242C18.3164 15.1875 18.9727 15.5508 18.9727 16.3828C18.9727 17.168 18.4102 17.6133 17.4609 17.6133C16.4531 17.6133 16.0078 17.1328 15.8672 16.2305C15.8203 15.9727 15.6094 15.75 15.2578 15.75C14.9062 15.75 14.6602 15.9727 14.6602 16.3359C14.6602 16.4297 14.6719 16.5469 14.6953 16.6758C15 18.1172 16.1602 18.6797 17.4492 18.6797ZM17.4375 19.9102C17.6133 19.9102 17.7656 19.7578 17.7656 19.582L17.7656 8.69531C17.7656 8.51953 17.6133 8.36719 17.4375 8.36719C17.25 8.36719 17.1094 8.51953 17.1094 8.69531L17.1094 19.582C17.1094 19.7578 17.25 19.9102 17.4375 19.9102Z" fill="black" fill-opacity="0.85"/>
 </g>
</svg>
