<?xml version="1.0" encoding="UTF-8"?>
<!--Generator: Apple Native CoreSVG 360-->
<!DOCTYPE svg
PUBLIC "-//W3C//DTD SVG 1.1//EN"
       "http://www.w3.org/Graphics/SVG/1.1/DTD/svg11.dtd">
<svg version="1.1" xmlns="http://www.w3.org/2000/svg" xmlns:xlink="http://www.w3.org/1999/xlink" viewBox="0 0 28.582 23.4085">
 <g>
  <rect height="23.4085" opacity="0" width="28.582" x="0" y="0"/>
  <path d="M28.2305 14.0539C28.2305 6.67105 22.5586 0.612457 15.3398 0.00308175C14.9648-0.0320745 14.6836 0.237457 14.6836 0.612457L14.6836 4.44449C14.6836 4.76089 14.9062 5.00699 15.2227 5.03043C19.7109 5.58121 23.2031 9.41324 23.2031 14.0539C23.2031 16.1632 22.4766 18.1086 21.1992 19.7375C21.0352 19.9367 21.0469 20.1945 21.2227 20.382L24.0234 23.1711C24.2812 23.4289 24.6797 23.4289 24.9141 23.1476C26.9883 20.6867 28.2305 17.5109 28.2305 14.0539Z" fill="black" fill-opacity="0.85"/>
  <path d="M0 14.0539C0 17.5226 1.24219 20.6984 3.31641 23.1593C3.55078 23.4406 3.9375 23.4289 4.20703 23.1711L7.00781 20.382C7.18359 20.1945 7.19531 19.9367 7.03125 19.7375C5.74219 18.1086 5.02734 16.1632 5.02734 14.0539C5.02734 9.41324 8.51953 5.58121 13.0078 5.03043C13.3242 5.00699 13.5469 4.76089 13.5469 4.44449L13.5469 0.612457C13.5469 0.237457 13.2656-0.0320745 12.8906 0.00308175C5.67188 0.612457 0 6.67105 0 14.0539Z" fill="black" fill-opacity="0.85"/>
  <path d="M10.875 18.9757C12.832 18.9757 13.7578 17.7687 13.7578 16.2336C13.7578 14.6398 12.7852 14.0304 11.5312 13.5617L10.8633 13.3039C10.0195 12.9875 9.44531 12.6007 9.44531 11.6984C9.44531 10.9015 9.92578 10.3039 10.8164 10.3039C11.6016 10.3039 12.1406 10.7492 12.3516 11.6046C12.4336 11.9328 12.6562 12.0734 12.9727 12.0734C13.3125 12.0734 13.5352 11.839 13.5352 11.4875C13.5352 11.4054 13.5234 11.2765 13.4883 11.1593C13.207 9.92886 12.1758 9.16714 10.8398 9.16714C9.08203 9.16714 8.13281 10.3625 8.13281 11.7921C8.13281 13.1984 8.97656 13.9836 10.3008 14.464L10.9688 14.6984C11.8242 15.0031 12.4336 15.4601 12.4336 16.3625C12.4336 17.1828 11.8945 17.839 10.9102 17.839C10.0195 17.839 9.44531 17.3586 9.24609 16.4796C9.16406 16.1515 8.95312 16.0109 8.63672 16.0109C8.28516 16.0109 8.03906 16.2687 8.03906 16.632C8.03906 16.7726 8.07422 16.9484 8.10938 17.0773C8.49609 18.2961 9.49219 18.9757 10.875 18.9757ZM17.4492 18.6242C19.0898 18.6242 20.2383 17.7336 20.2383 16.2101C20.2383 14.8273 19.3711 14.2531 18.2109 13.714L17.3555 13.3156C16.6055 12.9523 16.0078 12.5304 16.0078 11.7921C16.0078 10.9836 16.6172 10.5851 17.4258 10.5851C18.3516 10.5851 18.7148 11.1593 18.8672 11.9328C18.9375 12.2023 19.1133 12.4015 19.4883 12.4015C19.8398 12.4015 20.0742 12.1906 20.0742 11.8273C20.0742 11.6867 20.0625 11.5929 20.0391 11.4757C19.7227 10.0812 18.6797 9.53043 17.4258 9.53043C15.9609 9.53043 14.7539 10.3273 14.7539 11.8742C14.7539 13.175 15.5273 13.7961 16.7227 14.3703L17.5664 14.7687C18.3164 15.132 18.9727 15.4953 18.9727 16.3273C18.9727 17.1125 18.4102 17.5578 17.4609 17.5578C16.4531 17.5578 16.0078 17.0773 15.8672 16.175C15.8203 15.9171 15.6094 15.6945 15.2578 15.6945C14.9062 15.6945 14.6602 15.9171 14.6602 16.2804C14.6602 16.3742 14.6719 16.4914 14.6953 16.6203C15 18.0617 16.1602 18.6242 17.4492 18.6242ZM17.4375 19.8546C17.6133 19.8546 17.7656 19.7023 17.7656 19.5265L17.7656 8.6398C17.7656 8.46402 17.6133 8.31168 17.4375 8.31168C17.25 8.31168 17.1094 8.46402 17.1094 8.6398L17.1094 19.5265C17.1094 19.7023 17.25 19.8546 17.4375 19.8546Z" fill="black" fill-opacity="0.85"/>
 </g>
</svg>
