<?xml version="1.0" encoding="UTF-8"?>
<!--Generator: Apple Native CoreSVG 360-->
<!DOCTYPE svg
PUBLIC "-//W3C//DTD SVG 1.1//EN"
       "http://www.w3.org/Graphics/SVG/1.1/DTD/svg11.dtd">
<svg version="1.1" xmlns="http://www.w3.org/2000/svg" xmlns:xlink="http://www.w3.org/1999/xlink" viewBox="0 0 24.2695 23.9414">
 <g>
  <rect height="23.9414" opacity="0" width="24.2695" x="0" y="0"/>
  <path d="M11.9531 23.918C18.5508 23.918 23.918 18.5625 23.918 11.9648C23.918 5.36719 18.5508 0 11.9531 0C5.35547 0 0 5.36719 0 11.9648C0 18.5625 5.35547 23.918 11.9531 23.918ZM11.9531 21.9141C6.45703 21.9141 1.82812 17.4609 1.82812 11.9648C1.82812 6.46875 6.45703 2.00391 11.9531 2.00391C17.4492 2.00391 22.1484 6.77344 22.1484 11.9648C22.1484 17.1211 17.4492 21.9141 11.9531 21.9141ZM5.73047 17.9766C8.95312 17.9766 11.543 16.1719 13.7344 14.3203L12.4219 13.0664C10.4414 14.7539 8.30859 16.207 5.73047 16.207C3.33984 16.207 1.82812 14.4961 1.82812 11.9648C1.82812 9.36328 3.25781 7.72266 5.73047 7.72266C8.41406 7.72266 10.6289 9.83203 12.8672 11.9531C15.1289 14.1211 17.3789 16.3242 20.1328 16.3242C22.3125 16.3242 23.918 14.5898 23.918 11.9648C23.918 9.83203 22.2422 8.20312 20.0742 8.20312C18.4688 8.20312 17.0039 9.14062 15.4336 10.4414L16.7578 11.707C18.2695 10.4531 19.1484 9.97266 20.0742 9.97266C21.293 9.97266 22.1484 10.8398 22.1484 12.0586C22.1484 13.5352 21.2578 14.5547 19.9688 14.5547C18.1406 14.5547 16.3828 12.9023 14.3086 10.8867C11.9648 8.61328 9.22266 5.95312 5.73047 5.95312C2.33203 5.95312 0 8.39062 0 11.9648C0 15.3984 2.46094 17.9766 5.73047 17.9766Z" fill="black" fill-opacity="0.85"/>
 </g>
</svg>
