<?xml version="1.0" encoding="UTF-8"?>
<!--Generator: Apple Native CoreSVG 360-->
<!DOCTYPE svg
PUBLIC "-//W3C//DTD SVG 1.1//EN"
       "http://www.w3.org/Graphics/SVG/1.1/DTD/svg11.dtd">
<svg version="1.1" xmlns="http://www.w3.org/2000/svg" xmlns:xlink="http://www.w3.org/1999/xlink" viewBox="0 0 24.2578 23.9414">
 <g>
  <rect height="23.9414" opacity="0" width="24.2578" x="0" y="0"/>
  <path d="M11.9531 23.9062C18.5508 23.9062 23.9062 18.5508 23.9062 11.9531C23.9062 5.35547 18.5508 0 11.9531 0C5.35547 0 0 5.35547 0 11.9531C0 18.5508 5.35547 23.9062 11.9531 23.9062ZM18.3164 14.0273C14.6484 14.0273 11.7305 10.9453 8.33203 10.9453C5.30859 10.9453 4.20703 12.4336 3.01172 12.4688C2.47266 12.4805 2.14453 12.1055 2.14453 11.2266C2.14453 7.20703 5.89453 2.00391 11.9531 2.00391C17.2852 2.00391 21.5273 6.23438 21.5273 10.6406C21.5273 12.6914 20.1914 14.0273 18.3164 14.0273ZM11.9531 21.9023C7.52344 21.9023 4.3125 19.0898 4.3125 16.3594C4.3125 14.1914 6.03516 13.0312 8.14453 13.0312C11.25 13.0312 13.9688 16.1016 18.4102 16.1016C19.7461 16.1016 20.0859 16.0898 20.0859 16.7461C20.0859 18.5391 16.5469 21.9023 11.9531 21.9023Z" fill="black" fill-opacity="0.85"/>
 </g>
</svg>
