<?xml version="1.0" encoding="UTF-8"?>
<!--Generator: Apple Native CoreSVG 360-->
<!DOCTYPE svg
PUBLIC "-//W3C//DTD SVG 1.1//EN"
       "http://www.w3.org/Graphics/SVG/1.1/DTD/svg11.dtd">
<svg version="1.1" xmlns="http://www.w3.org/2000/svg" xmlns:xlink="http://www.w3.org/1999/xlink" viewBox="0 0 28.9453 25.9336">
 <g>
  <rect height="25.9336" opacity="0" width="28.9453" x="0" y="0"/>
  <path d="M3.01172 23.1797C3.01172 23.52 3.06257 23.839 3.16065 24.1289L0.9375 24.1289C0.410156 24.1289 0 23.707 0 23.1797C0 22.6523 0.410156 22.2422 0.9375 22.2422L3.15665 22.2422C3.0612 22.529 3.01172 22.844 3.01172 23.1797ZM28.5938 23.1797C28.5938 23.707 28.1719 24.1289 27.6445 24.1289L10.6337 24.1289C10.7309 23.839 10.7812 23.52 10.7812 23.1797C10.7812 22.844 10.7323 22.529 10.6376 22.2422L27.6445 22.2422C28.1719 22.2422 28.5938 22.6523 28.5938 23.1797Z" fill="black" fill-opacity="0.85"/>
  <path d="M5.77734 25.9336L8.02734 25.9336C9.64453 25.9336 10.7812 24.7969 10.7812 23.1797C10.7812 21.5625 9.64453 20.4258 8.02734 20.4258L5.77734 20.4258C4.16016 20.4258 3.01172 21.5625 3.01172 23.1797C3.01172 24.7969 4.16016 25.9336 5.77734 25.9336ZM5.77734 24.5156C4.98047 24.5156 4.42969 23.9766 4.42969 23.1797C4.42969 22.3945 4.98047 21.8438 5.77734 21.8438L8.02734 21.8438C8.82422 21.8438 9.36328 22.3945 9.36328 23.1797C9.36328 23.9766 8.82422 24.5156 8.02734 24.5156Z" fill="black" fill-opacity="0.85"/>
  <path d="M25.8047 15.7266C27.5742 15.7266 28.5938 14.7305 28.5938 12.9727L28.5938 5.41406C28.5938 3.65625 27.5742 2.66016 25.8047 2.66016L18.2578 2.66016C16.4883 2.66016 15.457 3.66797 15.457 5.41406L15.457 12.9727C15.457 14.7188 16.4883 15.7266 18.2578 15.7266Z" fill="black" fill-opacity="0.85"/>
  <path d="M10.582 15.8789C12.3984 15.8789 13.4414 14.8477 13.4414 13.0664L13.4414 5.33203C13.4414 3.53906 12.3984 2.50781 10.582 2.50781L2.85938 2.50781C1.04297 2.50781 0 3.53906 0 5.33203L0 13.0664C0 14.8477 1.04297 15.8789 2.85938 15.8789ZM10.5586 14.0273L2.88281 14.0273C2.17969 14.0273 1.85156 13.6875 1.85156 12.9844L1.85156 5.40234C1.85156 4.69922 2.17969 4.35938 2.88281 4.35938L10.5586 4.35938C11.25 4.35938 11.5898 4.69922 11.5898 5.40234L11.5898 12.9844C11.5898 13.6875 11.25 14.0273 10.5586 14.0273Z" fill="black" fill-opacity="0.85"/>
 </g>
</svg>
