<?xml version="1.0" encoding="UTF-8"?>
<!--Generator: Apple Native CoreSVG 360-->
<!DOCTYPE svg
PUBLIC "-//W3C//DTD SVG 1.1//EN"
       "http://www.w3.org/Graphics/SVG/1.1/DTD/svg11.dtd">
<svg version="1.1" xmlns="http://www.w3.org/2000/svg" xmlns:xlink="http://www.w3.org/1999/xlink" viewBox="0 0 21.9258 21.5742">
 <g>
  <rect height="21.5742" opacity="0" width="21.9258" x="0" y="0"/>
  <path d="M21.5742 3.63281L21.5742 17.9531C21.5742 20.3672 20.3555 21.5742 17.8945 21.5742L3.67969 21.5742C1.23047 21.5742 0 20.3672 0 17.9531L0 3.63281C0 1.21875 1.23047 0 3.67969 0L17.8945 0C20.3555 0 21.5742 1.21875 21.5742 3.63281ZM3.70312 1.88672C2.53125 1.88672 1.88672 2.51953 1.88672 3.73828L1.88672 17.8477C1.88672 19.0664 2.53125 19.6875 3.70312 19.6875L17.8711 19.6875C19.0312 19.6875 19.6875 19.0664 19.6875 17.8477L19.6875 3.73828C19.6875 2.51953 19.0312 1.88672 17.8711 1.88672Z" fill="black" fill-opacity="0.85"/>
  <path d="M5.85938 13.9336C5.85938 14.2061 5.8977 14.4618 5.97174 14.6953L5.16797 14.6953C4.76953 14.6953 4.41797 14.3555 4.41797 13.9336C4.41797 13.5 4.76953 13.1484 5.16797 13.1484L5.97963 13.1484C5.90034 13.3881 5.85938 13.6519 5.85938 13.9336ZM17.168 13.9336C17.168 14.3555 16.8281 14.6953 16.3828 14.6953L11.6742 14.6953C11.7498 14.4618 11.7891 14.2061 11.7891 13.9336C11.7891 13.6519 11.7471 13.3881 11.6661 13.1484L16.3828 13.1484C16.8281 13.1484 17.168 13.5 17.168 13.9336Z" fill="black" fill-opacity="0.85"/>
  <path d="M11.7891 13.9336C11.7891 15.2812 10.8281 16.2188 9.48047 16.2188L8.14453 16.2188C6.79688 16.2188 5.85938 15.2812 5.85938 13.9336C5.85938 12.5859 6.79688 11.6484 8.14453 11.6484L9.48047 11.6484C10.8281 11.6484 11.7891 12.5859 11.7891 13.9336ZM8.14453 12.8203C7.48828 12.8203 7.03125 13.2656 7.03125 13.9336C7.03125 14.6016 7.48828 15.0469 8.14453 15.0469L9.48047 15.0469C10.1602 15.0469 10.6055 14.6016 10.6055 13.9336C10.6055 13.2656 10.1602 12.8203 9.48047 12.8203Z" fill="black" fill-opacity="0.85"/>
  <path d="M9.80859 7.65234C9.80859 7.92945 9.84922 8.18921 9.9275 8.42578L5.21484 8.42578C4.76953 8.42578 4.41797 8.08594 4.41797 7.65234C4.41797 7.23047 4.76953 6.87891 5.21484 6.87891L9.92706 6.87891C9.84907 7.11594 9.80859 7.37575 9.80859 7.65234ZM17.168 7.65234C17.168 8.08594 16.8281 8.42578 16.4297 8.42578L15.6207 8.42578C15.6981 8.18921 15.7383 7.92945 15.7383 7.65234C15.7383 7.37575 15.6983 7.11594 15.6211 6.87891L16.4297 6.87891C16.8281 6.87891 17.168 7.23047 17.168 7.65234Z" fill="black" fill-opacity="0.85"/>
  <path d="M12.1172 9.9375L13.4414 9.9375C14.7891 9.9375 15.7383 9 15.7383 7.65234C15.7383 6.30469 14.7891 5.35547 13.4414 5.35547L12.1172 5.35547C10.7695 5.35547 9.80859 6.30469 9.80859 7.65234C9.80859 9 10.7695 9.9375 12.1172 9.9375ZM12.1172 8.76562C11.4375 8.76562 10.9805 8.30859 10.9805 7.65234C10.9805 6.98438 11.4375 6.52734 12.1172 6.52734L13.4414 6.52734C14.1094 6.52734 14.5664 6.98438 14.5664 7.65234C14.5664 8.30859 14.1094 8.76562 13.4414 8.76562Z" fill="black" fill-opacity="0.85"/>
 </g>
</svg>
