<?xml version="1.0" encoding="UTF-8"?>
<!--Generator: Apple Native CoreSVG 360-->
<!DOCTYPE svg
PUBLIC "-//W3C//DTD SVG 1.1//EN"
       "http://www.w3.org/Graphics/SVG/1.1/DTD/svg11.dtd">
<svg version="1.1" xmlns="http://www.w3.org/2000/svg" xmlns:xlink="http://www.w3.org/1999/xlink" viewBox="0 0 22.7109 27.9023">
 <g>
  <rect height="27.9023" opacity="0" width="22.7109" x="0" y="0"/>
  <path d="M11.5664 24.1641C11.5664 24.5043 11.6173 24.8234 11.7153 25.1133L0.9375 25.1133C0.410156 25.1133 0 24.6914 0 24.1641C0 23.6367 0.410156 23.2266 0.9375 23.2266L11.7113 23.2266C11.6159 23.5134 11.5664 23.8284 11.5664 24.1641ZM22.3594 24.1641C22.3594 24.6914 21.9375 25.1133 21.4102 25.1133L19.1884 25.1133C19.2856 24.8234 19.3359 24.5043 19.3359 24.1641C19.3359 23.8284 19.287 23.5134 19.1923 23.2266L21.4102 23.2266C21.9375 23.2266 22.3594 23.6367 22.3594 24.1641Z" fill="black" fill-opacity="0.85"/>
  <path d="M16.582 26.918C18.1992 26.918 19.3359 25.7812 19.3359 24.1641C19.3359 22.5469 18.1992 21.4102 16.582 21.4102L14.332 21.4102C12.7148 21.4102 11.5664 22.5469 11.5664 24.1641C11.5664 25.7812 12.7148 26.918 14.332 26.918ZM16.582 25.5L14.332 25.5C13.5352 25.5 12.9844 24.9609 12.9844 24.1641C12.9844 23.3789 13.5352 22.8281 14.332 22.8281L16.582 22.8281C17.3672 22.8281 17.918 23.3789 17.918 24.1641C17.918 24.9609 17.3672 25.5 16.582 25.5Z" fill="black" fill-opacity="0.85"/>
  <path d="M11.1797 14.3438C13.7109 14.3438 15.8086 12.2227 15.8086 9.69141C15.8086 7.13672 13.7109 5.02734 11.1797 5.02734C8.63672 5.02734 6.53906 7.13672 6.53906 9.69141C6.53906 12.2227 8.63672 14.3438 11.1797 14.3438ZM11.1797 0C10.6758 0 10.2305 0.445312 10.2305 0.949219L10.2305 2.82422C10.2305 3.32812 10.6758 3.76172 11.1797 3.76172C11.6836 3.76172 12.1172 3.32812 12.1172 2.82422L12.1172 0.949219C12.1172 0.445312 11.6836 0 11.1797 0ZM18.0234 2.83594C17.6484 2.47266 17.0508 2.47266 16.6992 2.83594L15.3516 4.19531C14.9883 4.55859 15.0117 5.16797 15.3516 5.51953C15.7148 5.87109 16.3242 5.88281 16.6758 5.51953L18.0234 4.16016C18.375 3.78516 18.3867 3.19922 18.0234 2.83594ZM20.8242 9.69141C20.8242 9.15234 20.4141 8.74219 19.8984 8.74219L18.0234 8.74219C17.5195 8.74219 17.0977 9.17578 17.0977 9.69141C17.0977 10.1953 17.5195 10.6172 18.0234 10.6172L19.8984 10.6172C20.4141 10.6172 20.8242 10.2188 20.8242 9.69141ZM18.0234 16.5352C18.3984 16.1367 18.3867 15.5742 18.0234 15.2109L16.6641 13.8633C16.3008 13.4883 15.7148 13.5117 15.3516 13.8633C15 14.2383 14.9883 14.8242 15.3516 15.1875L16.6992 16.5352C17.0625 16.8867 17.6484 16.8867 18.0234 16.5352ZM11.1797 19.3711C11.6836 19.3711 12.1172 18.9258 12.1172 18.4102L12.1172 16.5469C12.1172 16.043 11.6836 15.6094 11.1797 15.6094C10.6758 15.6094 10.2305 16.043 10.2305 16.5469L10.2305 18.4102C10.2305 18.9258 10.6758 19.3711 11.1797 19.3711ZM4.33594 16.5234C4.6875 16.8867 5.30859 16.8867 5.66016 16.5352L7.00781 15.1875C7.35938 14.8359 7.34766 14.25 7.00781 13.8633C6.64453 13.5117 6.03516 13.5 5.67188 13.8633L4.33594 15.2109C3.98438 15.5625 3.98438 16.1367 4.33594 16.5234ZM1.53516 9.69141C1.53516 10.2188 1.94531 10.6172 2.44922 10.6172L4.33594 10.6172C4.83984 10.6172 5.27344 10.1953 5.27344 9.69141C5.27344 9.17578 4.83984 8.74219 4.33594 8.74219L2.44922 8.74219C1.94531 8.74219 1.53516 9.15234 1.53516 9.69141ZM4.34766 2.83594C4.00781 3.19922 3.98438 3.79688 4.33594 4.16016L5.67188 5.51953C6.03516 5.88281 6.63281 5.87109 7.00781 5.51953C7.34766 5.14453 7.35938 4.54688 7.00781 4.19531L5.66016 2.83594C5.32031 2.49609 4.71094 2.48438 4.34766 2.83594Z" fill="black" fill-opacity="0.85"/>
 </g>
</svg>
