<?xml version="1.0" encoding="UTF-8"?>
<!--Generator: Apple Native CoreSVG 360-->
<!DOCTYPE svg
PUBLIC "-//W3C//DTD SVG 1.1//EN"
       "http://www.w3.org/Graphics/SVG/1.1/DTD/svg11.dtd">
<svg version="1.1" xmlns="http://www.w3.org/2000/svg" xmlns:xlink="http://www.w3.org/1999/xlink" viewBox="0 0 22.7109 25.9336">
 <g>
  <rect height="25.9336" opacity="0" width="22.7109" x="0" y="0"/>
  <path d="M11.5664 23.1797C11.5664 23.52 11.6173 23.839 11.7153 24.1289L0.9375 24.1289C0.410156 24.1289 0 23.707 0 23.1797C0 22.6523 0.410156 22.2422 0.9375 22.2422L11.7113 22.2422C11.6159 22.529 11.5664 22.844 11.5664 23.1797ZM22.3594 23.1797C22.3594 23.707 21.9375 24.1289 21.4102 24.1289L19.1884 24.1289C19.2856 23.839 19.3359 23.52 19.3359 23.1797C19.3359 22.844 19.287 22.529 19.1923 22.2422L21.4102 22.2422C21.9375 22.2422 22.3594 22.6523 22.3594 23.1797Z" fill="black" fill-opacity="0.85"/>
  <path d="M14.332 25.9336L16.582 25.9336C18.1992 25.9336 19.3359 24.7969 19.3359 23.1797C19.3359 21.5625 18.1992 20.4258 16.582 20.4258L14.332 20.4258C12.7148 20.4258 11.5664 21.5625 11.5664 23.1797C11.5664 24.7969 12.7148 25.9336 14.332 25.9336ZM14.332 24.5156C13.5352 24.5156 12.9844 23.9766 12.9844 23.1797C12.9844 22.3945 13.5352 21.8438 14.332 21.8438L16.582 21.8438C17.3672 21.8438 17.918 22.3945 17.918 23.1797C17.918 23.9766 17.3672 24.5156 16.582 24.5156Z" fill="black" fill-opacity="0.85"/>
  <path d="M3.48047 16.5938L18.8672 16.5938C21.1523 16.5938 22.3594 15.4336 22.3594 13.1602L22.3594 5.25C22.3594 2.97656 21.1523 1.81641 18.8672 1.81641L3.48047 1.81641C1.32422 1.81641 0 2.97656 0 5.25L0 13.1602C0 15.4336 1.20703 16.5938 3.48047 16.5938ZM3.45703 14.8242C2.42578 14.8242 1.88672 14.2852 1.88672 13.2539L1.88672 5.15625C1.88672 4.125 2.42578 3.58594 3.45703 3.58594L18.8906 3.58594C19.9336 3.58594 20.4727 4.125 20.4727 5.15625L20.4727 13.2539C20.4727 14.2852 19.9336 14.8242 18.8906 14.8242Z" fill="black" fill-opacity="0.85"/>
 </g>
</svg>
