<?xml version="1.0" encoding="UTF-8"?>
<!--Generator: Apple Native CoreSVG 360-->
<!DOCTYPE svg
PUBLIC "-//W3C//DTD SVG 1.1//EN"
       "http://www.w3.org/Graphics/SVG/1.1/DTD/svg11.dtd">
<svg version="1.1" xmlns="http://www.w3.org/2000/svg" xmlns:xlink="http://www.w3.org/1999/xlink" viewBox="0 0 22.7109 26.3086">
 <g>
  <rect height="26.3086" opacity="0" width="22.7109" x="0" y="0"/>
  <path d="M3.01172 23.3672C3.01172 23.7075 3.06257 24.0265 3.16065 24.3164L0.9375 24.3164C0.410156 24.3164 0 23.8945 0 23.3672C0 22.8398 0.410156 22.4297 0.9375 22.4297L3.15665 22.4297C3.0612 22.7165 3.01172 23.0315 3.01172 23.3672ZM22.3594 23.3672C22.3594 23.8945 21.9375 24.3164 21.4102 24.3164L10.6337 24.3164C10.7309 24.0265 10.7812 23.7075 10.7812 23.3672C10.7812 23.0315 10.7323 22.7165 10.6376 22.4297L21.4102 22.4297C21.9375 22.4297 22.3594 22.8398 22.3594 23.3672Z" fill="black" fill-opacity="0.85"/>
  <path d="M5.77734 26.1211L8.02734 26.1211C9.64453 26.1211 10.7812 24.9844 10.7812 23.3672C10.7812 21.75 9.64453 20.6133 8.02734 20.6133L5.77734 20.6133C4.16016 20.6133 3.01172 21.75 3.01172 23.3672C3.01172 24.9844 4.16016 26.1211 5.77734 26.1211ZM5.77734 24.7031C4.98047 24.7031 4.42969 24.1641 4.42969 23.3672C4.42969 22.582 4.98047 22.0312 5.77734 22.0312L8.02734 22.0312C8.82422 22.0312 9.36328 22.582 9.36328 23.3672C9.36328 24.1641 8.82422 24.7031 8.02734 24.7031Z" fill="black" fill-opacity="0.85"/>
  <path d="M11.1797 1.88672C11.707 1.88672 12.1172 1.46484 12.1172 0.949219C12.1172 0.421875 11.707 0 11.1797 0C10.6523 0 10.2422 0.421875 10.2422 0.949219C10.2422 1.46484 10.6523 1.88672 11.1797 1.88672ZM16.8047 4.19531C17.332 4.19531 17.7422 3.78516 17.7422 3.26953C17.7422 2.74219 17.332 2.33203 16.8047 2.33203C16.2891 2.33203 15.8789 2.74219 15.8789 3.26953C15.8789 3.78516 16.2891 4.19531 16.8047 4.19531ZM19.125 9.83203C19.6523 9.83203 20.0742 9.42188 20.0742 8.89453C20.0742 8.36719 19.6523 7.95703 19.125 7.95703C18.6094 7.95703 18.1875 8.36719 18.1875 8.89453C18.1875 9.42188 18.6094 9.83203 19.125 9.83203ZM16.8047 15.457C17.332 15.457 17.7422 15.0352 17.7422 14.5078C17.7422 14.0039 17.332 13.582 16.8047 13.582C16.2891 13.582 15.8789 14.0039 15.8789 14.5078C15.8789 15.0352 16.2891 15.457 16.8047 15.457ZM11.1797 17.7773C11.707 17.7773 12.1172 17.3672 12.1172 16.8398C12.1172 16.3125 11.707 15.9023 11.1797 15.9023C10.6523 15.9023 10.2422 16.3125 10.2422 16.8398C10.2422 17.3672 10.6523 17.7773 11.1797 17.7773ZM5.56641 15.457C6.07031 15.457 6.49219 15.0352 6.49219 14.5078C6.49219 14.0039 6.07031 13.582 5.56641 13.582C5.03906 13.582 4.61719 14.0039 4.61719 14.5078C4.61719 15.0352 5.03906 15.457 5.56641 15.457ZM3.23438 9.83203C3.76172 9.83203 4.17188 9.42188 4.17188 8.89453C4.17188 8.36719 3.76172 7.95703 3.23438 7.95703C2.70703 7.95703 2.29688 8.36719 2.29688 8.89453C2.29688 9.42188 2.70703 9.83203 3.23438 9.83203ZM5.56641 4.19531C6.07031 4.19531 6.49219 3.78516 6.49219 3.26953C6.49219 2.74219 6.07031 2.33203 5.56641 2.33203C5.03906 2.33203 4.61719 2.74219 4.61719 3.26953C4.61719 3.78516 5.03906 4.19531 5.56641 4.19531ZM11.1797 13.5469C13.7109 13.5469 15.8086 11.4258 15.8086 8.89453C15.8086 6.33984 13.7109 4.23047 11.1797 4.23047C8.63672 4.23047 6.53906 6.33984 6.53906 8.89453C6.53906 11.4258 8.63672 13.5469 11.1797 13.5469Z" fill="black" fill-opacity="0.85"/>
 </g>
</svg>
