<?xml version="1.0" encoding="UTF-8"?>
<!--Generator: Apple Native CoreSVG 360-->
<!DOCTYPE svg
PUBLIC "-//W3C//DTD SVG 1.1//EN"
       "http://www.w3.org/Graphics/SVG/1.1/DTD/svg11.dtd">
<svg version="1.1" xmlns="http://www.w3.org/2000/svg" xmlns:xlink="http://www.w3.org/1999/xlink" viewBox="0 0 24.2578 28.468">
 <g>
  <rect height="28.468" opacity="0" width="24.2578" x="0" y="0"/>
  <path d="M7.01953 17.8375C7.01953 18.11 7.05786 18.3657 7.1319 18.5992L6.32812 18.5992C5.92969 18.5992 5.57812 18.2594 5.57812 17.8375C5.57812 17.4039 5.92969 17.0524 6.32812 17.0524L7.13979 17.0524C7.0605 17.292 7.01953 17.5558 7.01953 17.8375ZM18.3281 17.8375C18.3281 18.2594 17.9883 18.5992 17.543 18.5992L12.8227 18.5992C12.8982 18.3657 12.9375 18.11 12.9375 17.8375C12.9375 17.5558 12.8955 17.292 12.8147 17.0524L17.543 17.0524C17.9883 17.0524 18.3281 17.4039 18.3281 17.8375Z" fill="black" fill-opacity="0.85"/>
  <path d="M12.9375 17.8375C12.9375 19.1852 11.9766 20.1227 10.6406 20.1227L9.30469 20.1227C7.95703 20.1227 7.01953 19.1852 7.01953 17.8375C7.01953 16.4899 7.95703 15.5524 9.30469 15.5524L10.6406 15.5524C11.9766 15.5524 12.9375 16.4899 12.9375 17.8375ZM9.30469 16.7242C8.63672 16.7242 8.19141 17.1695 8.19141 17.8375C8.19141 18.5055 8.63672 18.9508 9.30469 18.9508L10.6406 18.9508C11.3086 18.9508 11.7656 18.5055 11.7656 17.8375C11.7656 17.1695 11.3086 16.7242 10.6406 16.7242Z" fill="black" fill-opacity="0.85"/>
  <path d="M10.9688 11.5563C10.9688 11.8334 11.0094 12.0931 11.0876 12.3297L6.375 12.3297C5.92969 12.3297 5.57812 11.9899 5.57812 11.5563C5.57812 11.1344 5.92969 10.7828 6.375 10.7828L11.0871 10.7828C11.0092 11.0199 10.9688 11.2797 10.9688 11.5563ZM18.3281 11.5563C18.3281 11.9899 17.9883 12.3297 17.5898 12.3297L16.7808 12.3297C16.8583 12.0931 16.8984 11.8334 16.8984 11.5563C16.8984 11.2797 16.8585 11.0199 16.7813 10.7828L17.5898 10.7828C17.9883 10.7828 18.3281 11.1344 18.3281 11.5563Z" fill="black" fill-opacity="0.85"/>
  <path d="M16.8984 11.5563C16.8984 12.9039 15.9492 13.8414 14.6016 13.8414L13.2656 13.8414C11.9297 13.8414 10.9688 12.9039 10.9688 11.5563C10.9688 10.2086 11.9297 9.25939 13.2656 9.25939L14.6016 9.25939C15.9492 9.25939 16.8984 10.2086 16.8984 11.5563ZM13.2656 10.4313C12.5977 10.4313 12.1406 10.8883 12.1406 11.5563C12.1406 12.2125 12.5977 12.6695 13.2656 12.6695L14.6016 12.6695C15.2695 12.6695 15.7148 12.2125 15.7148 11.5563C15.7148 10.8883 15.2695 10.4313 14.6016 10.4313Z" fill="black" fill-opacity="0.85"/>
  <path d="M14.2148 0.833612L14.2148 2.49963C13.4805 2.35146 12.7198 2.2764 11.9414 2.27502C11.3906 2.28674 10.957 2.73205 10.957 3.25939C10.957 3.81017 11.4023 4.26721 11.9531 4.26721C12.7326 4.26721 13.4909 4.35638 14.2148 4.53408L14.2148 6.21252C14.2148 7.04455 13.6406 7.25549 12.9961 6.81017L9.25781 4.18517C8.73047 3.81017 8.71875 3.24767 9.25781 2.86096L12.9844 0.235956C13.6406-0.221075 14.2148-0.0101376 14.2148 0.833612Z" fill="black" fill-opacity="0.85"/>
  <path d="M11.9531 26.1813C18.5508 26.1813 23.9062 20.8258 23.9062 14.2281C23.9062 7.63049 18.5625 2.28674 11.9414 2.27502C11.3906 2.28674 10.957 2.73205 10.957 3.25939C10.957 3.81017 11.4023 4.26721 11.9531 4.26721C17.4609 4.26721 21.9141 8.72033 21.9141 14.2281C21.9141 19.736 17.4609 24.1891 11.9531 24.1891C6.44531 24.1891 1.99219 19.736 1.99219 14.2281C1.99219 10.8883 3.63281 7.94689 6.11719 6.16564C6.59766 5.80236 6.75 5.25158 6.45703 4.75939C6.16406 4.29064 5.49609 4.15002 4.98047 4.54846C1.95703 6.72814 0 10.2086 0 14.2281C0 20.8258 5.35547 26.1813 11.9531 26.1813Z" fill="black" fill-opacity="0.85"/>
 </g>
</svg>
