<?xml version="1.0" encoding="UTF-8"?>
<!--Generator: Apple Native CoreSVG 360-->
<!DOCTYPE svg
PUBLIC "-//W3C//DTD SVG 1.1//EN"
       "http://www.w3.org/Graphics/SVG/1.1/DTD/svg11.dtd">
<svg version="1.1" xmlns="http://www.w3.org/2000/svg" xmlns:xlink="http://www.w3.org/1999/xlink" viewBox="0 0 28.9453 25.9336">
 <g>
  <rect height="25.9336" opacity="0" width="28.9453" x="0" y="0"/>
  <path d="M3.01172 23.1797C3.01172 23.52 3.06257 23.839 3.16065 24.1289L0.9375 24.1289C0.410156 24.1289 0 23.707 0 23.1797C0 22.6523 0.410156 22.2422 0.9375 22.2422L3.15665 22.2422C3.0612 22.529 3.01172 22.844 3.01172 23.1797ZM28.5938 23.1797C28.5938 23.707 28.1719 24.1289 27.6445 24.1289L10.6337 24.1289C10.7309 23.839 10.7812 23.52 10.7812 23.1797C10.7812 22.844 10.7323 22.529 10.6376 22.2422L27.6445 22.2422C28.1719 22.2422 28.5938 22.6523 28.5938 23.1797Z" fill="black" fill-opacity="0.85"/>
  <path d="M5.77734 25.9336L8.02734 25.9336C9.64453 25.9336 10.7812 24.7969 10.7812 23.1797C10.7812 21.5625 9.64453 20.4258 8.02734 20.4258L5.77734 20.4258C4.16016 20.4258 3.01172 21.5625 3.01172 23.1797C3.01172 24.7969 4.16016 25.9336 5.77734 25.9336ZM5.77734 24.5156C4.98047 24.5156 4.42969 23.9766 4.42969 23.1797C4.42969 22.3945 4.98047 21.8438 5.77734 21.8438L8.02734 21.8438C8.82422 21.8438 9.36328 22.3945 9.36328 23.1797C9.36328 23.9766 8.82422 24.5156 8.02734 24.5156Z" fill="black" fill-opacity="0.85"/>
  <path d="M2.77734 15.7266L10.3359 15.7266C12.1055 15.7266 13.1367 14.7188 13.1367 12.9727L13.1367 5.41406C13.1367 3.66797 12.1055 2.66016 10.3359 2.66016L2.77734 2.66016C1.01953 2.66016 0 3.65625 0 5.41406L0 12.9727C0 14.7305 1.01953 15.7266 2.77734 15.7266Z" fill="black" fill-opacity="0.85"/>
  <path d="M18.0117 15.8789L25.7227 15.8789C27.5508 15.8789 28.5938 14.8477 28.5938 13.0664L28.5938 5.33203C28.5938 3.53906 27.5508 2.50781 25.7227 2.50781L18.0117 2.50781C16.1953 2.50781 15.1523 3.53906 15.1523 5.33203L15.1523 13.0664C15.1523 14.8477 16.1953 15.8789 18.0117 15.8789ZM18.0352 14.0273C17.3438 14.0273 17.0039 13.6875 17.0039 12.9844L17.0039 5.40234C17.0039 4.69922 17.3438 4.35938 18.0352 4.35938L25.6992 4.35938C26.4141 4.35938 26.7422 4.69922 26.7422 5.40234L26.7422 12.9844C26.7422 13.6875 26.4141 14.0273 25.6992 14.0273Z" fill="black" fill-opacity="0.85"/>
 </g>
</svg>
