<?xml version="1.0" encoding="UTF-8"?>
<!--Generator: Apple Native CoreSVG 360-->
<!DOCTYPE svg
PUBLIC "-//W3C//DTD SVG 1.1//EN"
       "http://www.w3.org/Graphics/SVG/1.1/DTD/svg11.dtd">
<svg version="1.1" xmlns="http://www.w3.org/2000/svg" xmlns:xlink="http://www.w3.org/1999/xlink" viewBox="0 0 23.9648 19.8633">
 <g>
  <rect height="19.8633" opacity="0" width="23.9648" x="0" y="0"/>
  <path d="M11.9648 17.1094C11.9648 17.4444 12.0143 17.7595 12.11 18.0469L0.9375 18.0469C0.410156 18.0469 0 17.6367 0 17.1094C0 16.582 0.410156 16.1602 0.9375 16.1602L12.112 16.1602C12.015 16.4506 11.9648 16.7696 11.9648 17.1094ZM23.6133 17.1094C23.6133 17.6367 23.1914 18.0469 22.7109 18.0469L19.5775 18.0469C19.6732 17.7595 19.7227 17.4444 19.7227 17.1094C19.7227 16.7696 19.6725 16.4506 19.5755 16.1602L22.7109 16.1602C23.1914 16.1602 23.6133 16.582 23.6133 17.1094Z" fill="black" fill-opacity="0.85"/>
  <path d="M19.7227 17.1094C19.7227 18.7148 18.5859 19.8633 16.9688 19.8633L14.7188 19.8633C13.1016 19.8633 11.9648 18.7148 11.9648 17.1094C11.9648 15.4922 13.1016 14.3438 14.7188 14.3438L16.9688 14.3438C18.5859 14.3438 19.7227 15.4922 19.7227 17.1094ZM14.7188 15.7617C13.9219 15.7617 13.3828 16.3125 13.3828 17.1094C13.3828 17.8945 13.9219 18.4453 14.7188 18.4453L16.9688 18.4453C17.7539 18.4453 18.3047 17.8945 18.3047 17.1094C18.3047 16.3125 17.7539 15.7617 16.9688 15.7617Z" fill="black" fill-opacity="0.85"/>
  <path d="M3.87891 9.94922C3.87891 10.2849 3.92839 10.5999 4.02384 10.8867L0.9375 10.8867C0.410156 10.8867 0 10.4766 0 9.94922C0 9.42188 0.410156 9 0.9375 9L4.02738 9C3.92959 9.29041 3.87891 9.60947 3.87891 9.94922ZM23.6133 9.94922C23.6133 10.4766 23.1914 10.8867 22.7109 10.8867L11.5036 10.8867C11.599 10.5999 11.6484 10.2849 11.6484 9.94922C11.6484 9.60947 11.5977 9.29041 11.5001 9L22.7109 9C23.1914 9 23.6133 9.42188 23.6133 9.94922Z" fill="black" fill-opacity="0.85"/>
  <path d="M11.6484 9.94922C11.6484 11.5664 10.5 12.7031 8.89453 12.7031L6.64453 12.7031C5.02734 12.7031 3.87891 11.5664 3.87891 9.94922C3.87891 8.33203 5.02734 7.18359 6.64453 7.18359L8.89453 7.18359C10.5 7.18359 11.6484 8.33203 11.6484 9.94922ZM6.64453 8.60156C5.84766 8.60156 5.29688 9.15234 5.29688 9.94922C5.29688 10.7344 5.84766 11.2852 6.64453 11.2852L8.89453 11.2852C9.67969 11.2852 10.2305 10.7344 10.2305 9.94922C10.2305 9.15234 9.67969 8.60156 8.89453 8.60156Z" fill="black" fill-opacity="0.85"/>
  <path d="M11.9648 2.78906C11.9648 3.12881 12.015 3.44788 12.112 3.73828L0.9375 3.73828C0.410156 3.73828 0 3.31641 0 2.78906C0 2.26172 0.410156 1.85156 0.9375 1.85156L12.1085 1.85156C12.0138 2.13839 11.9648 2.45337 11.9648 2.78906ZM23.6133 2.78906C23.6133 3.31641 23.1914 3.73828 22.7109 3.73828L19.5755 3.73828C19.6725 3.44788 19.7227 3.12881 19.7227 2.78906C19.7227 2.45337 19.6737 2.13839 19.579 1.85156L22.7109 1.85156C23.1914 1.85156 23.6133 2.26172 23.6133 2.78906Z" fill="black" fill-opacity="0.85"/>
  <path d="M14.7188 5.55469L16.9688 5.55469C18.5859 5.55469 19.7227 4.40625 19.7227 2.78906C19.7227 1.17188 18.5859 0.0351562 16.9688 0.0351562L14.7188 0.0351562C13.1016 0.0351562 11.9648 1.17188 11.9648 2.78906C11.9648 4.40625 13.1016 5.55469 14.7188 5.55469ZM14.7188 4.13672C13.9219 4.13672 13.3828 3.58594 13.3828 2.78906C13.3828 2.00391 13.9219 1.45312 14.7188 1.45312L16.9688 1.45312C17.7539 1.45312 18.3047 2.00391 18.3047 2.78906C18.3047 3.58594 17.7539 4.13672 16.9688 4.13672Z" fill="black" fill-opacity="0.85"/>
 </g>
</svg>
