<?xml version="1.0" encoding="UTF-8"?>
<!--Generator: Apple Native CoreSVG 360-->
<!DOCTYPE svg
PUBLIC "-//W3C//DTD SVG 1.1//EN"
       "http://www.w3.org/Graphics/SVG/1.1/DTD/svg11.dtd">
<svg version="1.1" xmlns="http://www.w3.org/2000/svg" xmlns:xlink="http://www.w3.org/1999/xlink" viewBox="0 0 22.7109 26.1914">
 <g>
  <rect height="26.1914" opacity="0" width="22.7109" x="0" y="0"/>
  <path d="M20.1914 8.84766C20.1914 13.7461 16.2422 17.707 11.3438 17.707C6.45703 17.707 2.49609 13.7461 2.49609 8.84766C2.49609 3.96094 6.45703 0 11.3438 0C16.2422 0 20.1914 3.96094 20.1914 8.84766ZM11.3438 16.1133C15.3633 16.1133 18.5977 12.8672 18.5977 8.84766C18.5977 4.83984 15.3633 1.59375 11.3438 1.59375Z" fill="black" fill-opacity="0.85"/>
  <path d="M11.5664 23.3086C11.5664 23.6489 11.6173 23.9679 11.7153 24.2578L0.9375 24.2578C0.410156 24.2578 0 23.8359 0 23.3086C0 22.7812 0.410156 22.3711 0.9375 22.3711L11.7113 22.3711C11.6159 22.6579 11.5664 22.9729 11.5664 23.3086ZM22.3594 23.3086C22.3594 23.8359 21.9375 24.2578 21.457 24.2578L19.1884 24.2578C19.2856 23.9679 19.3359 23.6489 19.3359 23.3086C19.3359 22.9729 19.287 22.6579 19.1923 22.3711L21.457 22.3711C21.9375 22.3711 22.3594 22.7812 22.3594 23.3086Z" fill="black" fill-opacity="0.85"/>
  <path d="M14.332 26.0625L16.582 26.0625C18.1992 26.0625 19.3359 24.9258 19.3359 23.3086C19.3359 21.6914 18.1992 20.5547 16.582 20.5547L14.332 20.5547C12.7148 20.5547 11.5664 21.6914 11.5664 23.3086C11.5664 24.9258 12.7148 26.0625 14.332 26.0625ZM14.332 24.6445C13.5352 24.6445 12.9844 24.1055 12.9844 23.3086C12.9844 22.5234 13.5352 21.9727 14.332 21.9727L16.582 21.9727C17.3672 21.9727 17.918 22.5234 17.918 23.3086C17.918 24.1055 17.3672 24.6445 16.582 24.6445Z" fill="black" fill-opacity="0.85"/>
 </g>
</svg>
