<?xml version="1.0" encoding="UTF-8"?>
<!--Generator: Apple Native CoreSVG 360-->
<!DOCTYPE svg
PUBLIC "-//W3C//DTD SVG 1.1//EN"
       "http://www.w3.org/Graphics/SVG/1.1/DTD/svg11.dtd">
<svg version="1.1" xmlns="http://www.w3.org/2000/svg" xmlns:xlink="http://www.w3.org/1999/xlink" viewBox="0 0 21.6797 21.7617">
 <g>
  <rect height="21.7617" opacity="0" width="21.6797" x="0" y="0"/>
  <path d="M18.5625 17.4844C18.8977 17.4844 19.2127 17.4355 19.5 17.3412L19.5 19.7227C19.5 20.2031 19.0898 20.625 18.5625 20.625C18.0352 20.625 17.6133 20.2031 17.6133 19.7227L17.6133 17.3368C17.9032 17.434 18.2222 17.4844 18.5625 17.4844ZM19.5 0.949219L19.5 9.86973C19.2127 9.77539 18.8977 9.72656 18.5625 9.72656C18.2222 9.72656 17.9032 9.77689 17.6133 9.87414L17.6133 0.949219C17.6133 0.421875 18.0352 0 18.5625 0C19.0898 0 19.5 0.421875 19.5 0.949219Z" fill="black" fill-opacity="0.85"/>
  <path d="M21.3281 12.4805L21.3281 14.7305C21.3281 16.3477 20.1797 17.4844 18.5625 17.4844C16.9453 17.4844 15.8086 16.3477 15.8086 14.7305L15.8086 12.4805C15.8086 10.8633 16.9453 9.72656 18.5625 9.72656C20.1797 9.72656 21.3281 10.8633 21.3281 12.4805ZM17.2266 12.4805L17.2266 14.7305C17.2266 15.5156 17.7773 16.0664 18.5625 16.0664C19.3594 16.0664 19.9102 15.5156 19.9102 14.7305L19.9102 12.4805C19.9102 11.6836 19.3594 11.1445 18.5625 11.1445C17.7773 11.1445 17.2266 11.6836 17.2266 12.4805Z" fill="black" fill-opacity="0.85"/>
  <path d="M10.6641 10.8984C10.9998 10.8984 11.3147 10.8495 11.6016 10.7548L11.6016 19.7227C11.6016 20.2031 11.1914 20.625 10.6523 20.625C10.125 20.625 9.71484 20.2031 9.71484 19.7227L9.71484 10.7513C10.0052 10.8483 10.3243 10.8984 10.6641 10.8984ZM11.6016 0.949219L11.6016 3.28423C11.3147 3.1896 10.9998 3.14062 10.6641 3.14062C10.3243 3.14062 10.0052 3.1908 9.71484 3.28774L9.71484 0.949219C9.71484 0.421875 10.125 0 10.6523 0C11.1914 0 11.6016 0.421875 11.6016 0.949219Z" fill="black" fill-opacity="0.85"/>
  <path d="M13.418 5.89453L13.418 8.14453C13.418 9.76172 12.2812 10.8984 10.6641 10.8984C9.04688 10.8984 7.89844 9.76172 7.89844 8.14453L7.89844 5.89453C7.89844 4.27734 9.04688 3.14062 10.6641 3.14062C12.2812 3.14062 13.418 4.27734 13.418 5.89453ZM9.32812 5.89453L9.32812 8.14453C9.32812 8.94141 9.86719 9.48047 10.6641 9.48047C11.4492 9.48047 12 8.94141 12 8.14453L12 5.89453C12 5.10938 11.4492 4.55859 10.6641 4.55859C9.86719 4.55859 9.32812 5.10938 9.32812 5.89453Z" fill="black" fill-opacity="0.85"/>
  <path d="M2.75391 17.4844C3.08908 17.4844 3.40411 17.4355 3.69141 17.3412L3.69141 19.7227C3.69141 20.2031 3.28125 20.625 2.75391 20.625C2.22656 20.625 1.81641 20.2031 1.81641 19.7227L1.81641 17.3408C2.10323 17.4354 2.41822 17.4844 2.75391 17.4844ZM3.69141 0.949219L3.69141 9.86973C3.40411 9.77539 3.08908 9.72656 2.75391 9.72656C2.41822 9.72656 2.10323 9.77554 1.81641 9.87017L1.81641 0.949219C1.81641 0.421875 2.22656 0 2.75391 0C3.28125 0 3.69141 0.421875 3.69141 0.949219Z" fill="black" fill-opacity="0.85"/>
  <path d="M2.75391 17.4844C4.37109 17.4844 5.51953 16.3477 5.51953 14.7305L5.51953 12.4805C5.51953 10.8633 4.37109 9.72656 2.75391 9.72656C1.13672 9.72656 0 10.8633 0 12.4805L0 14.7305C0 16.3477 1.13672 17.4844 2.75391 17.4844ZM2.75391 16.0664C1.96875 16.0664 1.41797 15.5156 1.41797 14.7305L1.41797 12.4805C1.41797 11.6836 1.96875 11.1445 2.75391 11.1445C3.55078 11.1445 4.10156 11.6836 4.10156 12.4805L4.10156 14.7305C4.10156 15.5156 3.55078 16.0664 2.75391 16.0664Z" fill="black" fill-opacity="0.85"/>
 </g>
</svg>
