<?xml version="1.0" encoding="UTF-8"?>
<!--Generator: Apple Native CoreSVG 360-->
<!DOCTYPE svg
PUBLIC "-//W3C//DTD SVG 1.1//EN"
       "http://www.w3.org/Graphics/SVG/1.1/DTD/svg11.dtd">
<svg version="1.1" xmlns="http://www.w3.org/2000/svg" xmlns:xlink="http://www.w3.org/1999/xlink" viewBox="0 0 25.1484 24.5742">
 <g>
  <rect height="24.5742" opacity="0" width="25.1484" x="0" y="0"/>
  <path d="M19.1133 3.65625L19.1133 5.44922L17.2266 5.44922L17.2266 3.76172C17.2266 2.54297 16.5703 1.91016 15.4102 1.91016L3.70312 1.91016C2.53125 1.91016 1.88672 2.54297 1.88672 3.76172L1.88672 15.4102C1.88672 16.6289 2.53125 17.2617 3.70312 17.2617L5.68359 17.2617L5.68359 19.1484L3.67969 19.1484C1.21875 19.1484 0 17.9297 0 15.5156L0 3.65625C0 1.24219 1.21875 0.0234375 3.67969 0.0234375L15.4453 0.0234375C17.8828 0.0234375 19.1133 1.24219 19.1133 3.65625Z" fill="black" fill-opacity="0.85"/>
  <path d="M24.7969 9.08203L24.7969 20.9414C24.7969 23.3555 23.5664 24.5742 21.1289 24.5742L9.36328 24.5742C6.90234 24.5742 5.68359 23.3555 5.68359 20.9414L5.68359 9.08203C5.68359 6.65625 6.90234 5.44922 9.36328 5.44922L21.1289 5.44922C23.5664 5.44922 24.7969 6.66797 24.7969 9.08203ZM9.38672 7.33594C8.22656 7.33594 7.57031 7.96875 7.57031 9.1875L7.57031 20.8359C7.57031 22.0547 8.22656 22.6875 9.38672 22.6875L21.0938 22.6875C22.2539 22.6875 22.9102 22.0547 22.9102 20.8359L22.9102 9.1875C22.9102 7.96875 22.2539 7.33594 21.0938 7.33594Z" fill="black" fill-opacity="0.85"/>
  <path d="M10.4062 18.1875C10.4062 18.4641 10.4457 18.7239 10.5221 18.9609L9.72656 18.9609C9.32812 18.9609 8.98828 18.6211 8.98828 18.1875C8.98828 17.7539 9.32812 17.4141 9.72656 17.4141L10.5241 17.4141C10.4464 17.6511 10.4062 17.911 10.4062 18.1875ZM21.5039 18.1875C21.5039 18.6211 21.1641 18.9609 20.7188 18.9609L16.2059 18.9609C16.2837 18.7239 16.3242 18.4641 16.3242 18.1875C16.3242 17.911 16.2831 17.6511 16.2039 17.4141L20.7188 17.4141C21.1641 17.4141 21.5039 17.7539 21.5039 18.1875Z" fill="black" fill-opacity="0.85"/>
  <path d="M16.3242 18.1875C16.3242 19.5352 15.3633 20.4844 14.0273 20.4844L12.6914 20.4844C11.3438 20.4844 10.4062 19.5352 10.4062 18.1875C10.4062 16.8516 11.3438 15.9023 12.6914 15.9023L14.0273 15.9023C15.3633 15.9023 16.3242 16.8516 16.3242 18.1875ZM12.6914 17.0742C12.0234 17.0742 11.5781 17.5312 11.5781 18.1875C11.5781 18.8555 12.0234 19.3125 12.6914 19.3125L14.0273 19.3125C14.6953 19.3125 15.1523 18.8555 15.1523 18.1875C15.1523 17.5312 14.6953 17.0742 14.0273 17.0742Z" fill="black" fill-opacity="0.85"/>
  <path d="M14.1562 11.9062C14.1562 12.1874 14.1981 12.4513 14.2787 12.6914L9.77344 12.6914C9.32812 12.6914 8.98828 12.3398 8.98828 11.9062C8.98828 11.4844 9.32812 11.1445 9.77344 11.1445L14.2727 11.1445C14.196 11.3785 14.1562 11.6344 14.1562 11.9062ZM21.5039 11.9062C21.5039 12.3398 21.1641 12.6914 20.7656 12.6914L19.9648 12.6914C20.0446 12.4513 20.0859 12.1874 20.0859 11.9062C20.0859 11.6344 20.0466 11.3785 19.9708 11.1445L20.7656 11.1445C21.1641 11.1445 21.5039 11.4844 21.5039 11.9062Z" fill="black" fill-opacity="0.85"/>
  <path d="M16.4648 14.2031L17.7891 14.2031C19.1367 14.2031 20.0859 13.2539 20.0859 11.9062C20.0859 10.5703 19.1367 9.62109 17.7891 9.62109L16.4648 9.62109C15.1172 9.62109 14.1562 10.5703 14.1562 11.9062C14.1562 13.2539 15.1172 14.2031 16.4648 14.2031ZM16.4648 13.0312C15.7852 13.0312 15.3281 12.5742 15.3281 11.9062C15.3281 11.25 15.7852 10.793 16.4648 10.793L17.7891 10.793C18.457 10.793 18.9141 11.25 18.9141 11.9062C18.9141 12.5742 18.457 13.0312 17.7891 13.0312Z" fill="black" fill-opacity="0.85"/>
 </g>
</svg>
