<?xml version="1.0" encoding="UTF-8"?>
<!--Generator: Apple Native CoreSVG 360-->
<!DOCTYPE svg
PUBLIC "-//W3C//DTD SVG 1.1//EN"
       "http://www.w3.org/Graphics/SVG/1.1/DTD/svg11.dtd">
<svg version="1.1" xmlns="http://www.w3.org/2000/svg" xmlns:xlink="http://www.w3.org/1999/xlink" viewBox="0 0 26.7773 26.4492">
 <g>
  <rect height="26.4492" opacity="0" width="26.7773" x="0" y="0"/>
  <path d="M6.60938 1.78125C6.1875 2.02734 6.07031 2.53125 6.30469 2.94141L8.37891 6.55078C8.625 6.96094 9.11719 7.10156 9.52734 6.85547C9.94922 6.62109 10.0664 6.11719 9.84375 5.71875L7.75781 2.09766C7.51172 1.69922 7.01953 1.55859 6.60938 1.78125Z" fill="black" fill-opacity="0.85"/>
  <path d="M1.78125 6.62109C1.53516 7.04297 1.67578 7.53516 2.08594 7.78125L5.69531 9.86719C6.10547 10.0898 6.59766 9.97266 6.84375 9.5625C7.06641 9.14062 6.9375 8.64844 6.52734 8.40234L2.91797 6.31641C2.50781 6.09375 2.00391 6.21094 1.78125 6.62109Z" fill="black" fill-opacity="0.85"/>
  <path d="M0 13.2305C0 13.7109 0.375 14.0742 0.84375 14.0742L5.00391 14.0742C5.48438 14.0742 5.84766 13.7109 5.84766 13.2305C5.84766 12.7617 5.48438 12.3984 5.00391 12.3984L0.84375 12.3984C0.375 12.3984 0 12.7617 0 13.2305Z" fill="black" fill-opacity="0.85"/>
  <path d="M1.78125 19.8398C2.00391 20.2617 2.50781 20.3789 2.91797 20.1562L6.52734 18.0703C6.9375 17.8242 7.07812 17.332 6.84375 16.9219C6.59766 16.5 6.10547 16.3828 5.69531 16.6055L2.08594 18.6914C1.67578 18.9375 1.53516 19.4297 1.78125 19.8398Z" fill="black" fill-opacity="0.85"/>
  <path d="M6.60938 24.6797C7.01953 24.9141 7.51172 24.7734 7.75781 24.3633L9.84375 20.7539C10.0664 20.3438 9.94922 19.8516 9.53906 19.6172C9.11719 19.3828 8.625 19.5117 8.37891 19.9219L6.30469 23.5312C6.07031 23.9414 6.1875 24.4453 6.60938 24.6797Z" fill="black" fill-opacity="0.85"/>
  <path d="M13.207 26.4492C13.6875 26.4492 14.0508 26.0742 14.0508 25.6055L14.0508 21.4453C14.0508 20.9766 13.6875 20.6016 13.207 20.6016C12.7383 20.6016 12.375 20.9766 12.375 21.4453L12.375 25.6055C12.375 26.0742 12.7383 26.4492 13.207 26.4492Z" fill="black" fill-opacity="0.85"/>
  <path d="M19.8164 24.6797C20.2383 24.4453 20.3555 23.9414 20.1328 23.5312L18.0469 19.9219C17.8125 19.5117 17.3086 19.3711 16.8984 19.6055C16.4766 19.8516 16.3594 20.3438 16.5938 20.7539L18.668 24.3633C18.9141 24.7734 19.4062 24.9141 19.8164 24.6797Z" fill="black" fill-opacity="0.85"/>
  <path d="M24.6562 19.8398C24.9023 19.4297 24.75 18.9375 24.3516 18.6914L20.7305 16.6055C20.332 16.3828 19.8281 16.5 19.5938 16.9102C19.3594 17.332 19.4883 17.8242 19.8984 18.0703L23.5078 20.1562C23.918 20.3789 24.4219 20.2617 24.6562 19.8398Z" fill="black" fill-opacity="0.85"/>
  <path d="M26.4258 13.2305C26.4258 12.7617 26.0625 12.3984 25.582 12.3984L21.4219 12.3984C20.9531 12.3984 20.5781 12.7617 20.5781 13.2305C20.5781 13.7109 20.9531 14.0742 21.4219 14.0742L25.582 14.0742C26.0625 14.0742 26.4258 13.7109 26.4258 13.2305Z" fill="black" fill-opacity="0.85"/>
  <path d="M24.668 6.63281C24.4219 6.21094 23.918 6.09375 23.5078 6.31641L19.8984 8.40234C19.4883 8.64844 19.3477 9.14062 19.6055 9.5625C19.8281 9.96094 20.332 10.0898 20.7305 9.86719L24.3516 7.78125C24.75 7.53516 24.8906 7.04297 24.668 6.63281Z" fill="black" fill-opacity="0.85"/>
  <path d="M19.8281 1.79297C19.4062 1.55859 18.9141 1.69922 18.668 2.09766L16.5938 5.71875C16.3594 6.11719 16.4766 6.62109 16.8984 6.86719C17.3086 7.08984 17.8008 6.96094 18.0469 6.55078L20.1328 2.94141C20.3555 2.53125 20.2383 2.02734 19.8281 1.79297Z" fill="black" fill-opacity="0.85"/>
  <path d="M13.207 0.0234375C12.7383 0.0234375 12.375 0.398438 12.375 0.867188L12.375 5.02734C12.375 5.49609 12.7383 5.87109 13.207 5.87109C13.6875 5.87109 14.0508 5.49609 14.0508 5.02734L14.0508 0.867188C14.0508 0.398438 13.6875 0.0234375 13.207 0.0234375Z" fill="black" fill-opacity="0.85"/>
 </g>
</svg>
