<?xml version="1.0" encoding="UTF-8"?>
<!--Generator: Apple Native CoreSVG 360-->
<!DOCTYPE svg
PUBLIC "-//W3C//DTD SVG 1.1//EN"
       "http://www.w3.org/Graphics/SVG/1.1/DTD/svg11.dtd">
<svg version="1.1" xmlns="http://www.w3.org/2000/svg" xmlns:xlink="http://www.w3.org/1999/xlink" viewBox="0 0 24.2578 23.918">
 <g>
  <rect height="23.918" opacity="0" width="24.2578" x="0" y="0"/>
  <path d="M11.9531 23.9062C18.5508 23.9062 23.9062 18.5508 23.9062 11.9531C23.9062 5.35547 18.5508 0 11.9531 0C5.35547 0 0 5.35547 0 11.9531C0 18.5508 5.35547 23.9062 11.9531 23.9062ZM11.9531 21.9141C6.44531 21.9141 1.99219 17.4609 1.99219 11.9531C1.99219 6.44531 6.44531 1.99219 11.9531 1.99219C17.4609 1.99219 21.9141 6.44531 21.9141 11.9531C21.9141 17.4609 17.4609 21.9141 11.9531 21.9141Z" fill="black" fill-opacity="0.85"/>
  <path d="M11.9414 16.4297C14.4023 16.4297 16.418 14.4141 16.418 11.9531C16.418 9.49219 14.4023 7.47656 11.9414 7.47656C9.48047 7.47656 7.46484 9.49219 7.46484 11.9531C7.46484 14.4141 9.48047 16.4297 11.9414 16.4297ZM11.9414 14.5781C10.5 14.5781 9.31641 13.3945 9.31641 11.9531C9.31641 10.5 10.5 9.32812 11.9414 9.32812C13.3945 9.32812 14.5664 10.5 14.5664 11.9531C14.5664 13.3945 13.3945 14.5781 11.9414 14.5781Z" fill="black" fill-opacity="0.85"/>
 </g>
</svg>
