<?xml version="1.0" encoding="UTF-8"?>
<!--Generator: Apple Native CoreSVG 360-->
<!DOCTYPE svg
PUBLIC "-//W3C//DTD SVG 1.1//EN"
       "http://www.w3.org/Graphics/SVG/1.1/DTD/svg11.dtd">
<svg version="1.1" xmlns="http://www.w3.org/2000/svg" xmlns:xlink="http://www.w3.org/1999/xlink" viewBox="0 0 15.4102 24.832">
 <g>
  <rect height="24.832" opacity="0" width="15.4102" x="0" y="0"/>
  <path d="M2.33203 21.4336C2.07422 21.4336 1.88672 21.2461 1.88672 20.9883L1.88672 2.33203C1.88672 2.0625 2.0625 1.88672 2.33203 1.88672L12.7266 1.88672C12.9961 1.88672 13.1719 2.0625 13.1719 2.33203L13.1719 20.9883C13.1719 21.2461 12.9961 21.4336 12.7266 21.4336Z" fill="black" fill-opacity="0.2125"/>
  <path d="M1.45312 24.8086L13.6055 24.8086C14.4609 24.8086 15.0586 24.2109 15.0586 23.3555L15.0586 1.45312C15.0586 0.597656 14.4609 0 13.6055 0L1.45312 0C0.597656 0 0 0.597656 0 1.45312L0 23.3555C0 24.2109 0.609375 24.8086 1.45312 24.8086ZM2.33203 21.4336C2.07422 21.4336 1.88672 21.2461 1.88672 20.9883L1.88672 2.33203C1.88672 2.0625 2.0625 1.88672 2.33203 1.88672L12.7266 1.88672C12.9961 1.88672 13.1719 2.0625 13.1719 2.33203L13.1719 20.9883C13.1719 21.2461 12.9961 21.4336 12.7266 21.4336Z" fill="black" fill-opacity="0.85"/>
 </g>
</svg>
