<?xml version="1.0" encoding="UTF-8"?>
<!--Generator: Apple Native CoreSVG 360-->
<!DOCTYPE svg
PUBLIC "-//W3C//DTD SVG 1.1//EN"
       "http://www.w3.org/Graphics/SVG/1.1/DTD/svg11.dtd">
<svg version="1.1" xmlns="http://www.w3.org/2000/svg" xmlns:xlink="http://www.w3.org/1999/xlink" viewBox="0 0 28.6172 20.543">
 <g>
  <rect height="20.543" opacity="0" width="28.6172" x="0" y="0"/>
  <path d="M13.9336 2.32031C14.3438 2.22656 14.8125 2.14453 15.2695 2.14453C17.4919 2.15599 19.3448 3.69042 19.839 5.7861C19.5201 5.72541 19.1911 5.69531 18.8555 5.69531C18.5652 5.69531 18.2791 5.71717 17.9995 5.7621C17.5666 4.65002 16.5296 3.91406 15.2695 3.91406C14.8242 3.91406 14.5547 3.98438 14.0742 4.17188C13.4297 4.42969 13.0664 4.3125 12.8086 3.79688C12.1992 2.57812 10.8633 1.78125 9.36328 1.78125C7.23047 1.78125 5.51953 3.52734 5.51953 5.66016C5.51953 6.46875 5.29688 6.73828 4.5 6.82031C2.95312 6.99609 1.76953 8.35547 1.76953 9.9375C1.76953 11.8242 3.17578 13.0898 5.23828 13.0898L5.37859 13.0898C4.93107 13.5741 4.59438 14.1553 4.40249 14.8003C1.72106 14.459 0 12.4496 0 9.9375C0 7.64062 1.55859 5.70703 3.77344 5.12109C4.06641 2.25 6.46875 0.0117188 9.36328 0.0117188C11.1914 0.0117188 12.8555 0.878906 13.9336 2.32031Z" fill="black" fill-opacity="0.85"/>
  <path d="M8.84766 20.543L22.9805 20.543C26.1328 20.543 28.2188 18.375 28.2188 15.6211C28.2188 13.3242 26.6602 11.3906 24.4453 10.8047C24.1523 7.93359 21.75 5.69531 18.8555 5.69531C17.0273 5.69531 15.3633 6.5625 14.2852 8.00391C13.875 7.91016 13.4062 7.82812 12.9492 7.82812C10.6758 7.82812 8.78906 9.43359 8.34375 11.6133C6 11.8711 4.21875 13.7344 4.21875 16.0664C4.21875 18.6445 6.17578 20.543 8.84766 20.543ZM8.84766 18.7734C7.14844 18.7734 5.98828 17.6719 5.98828 16.0664C5.98828 14.543 7.23047 13.3477 8.80078 13.3242C9.62109 13.3008 9.94922 13.0547 10.0078 12.3633C10.1367 10.7578 11.3672 9.59766 12.9492 9.59766C13.3945 9.59766 13.6641 9.66797 14.1445 9.85547C14.7891 10.1016 15.1523 9.99609 15.4102 9.48047C16.0195 8.26172 17.3555 7.47656 18.8555 7.46484C20.9883 7.46484 22.6992 9.21094 22.6992 11.3438C22.6992 12.1523 22.9219 12.4102 23.7188 12.5039C25.2656 12.6797 26.4492 14.0391 26.4492 15.6211C26.4492 17.5078 25.043 18.7734 22.9805 18.7734Z" fill="black" fill-opacity="0.85"/>
 </g>
</svg>
