<?xml version="1.0" encoding="UTF-8"?>
<!--Generator: Apple Native CoreSVG 360-->
<!DOCTYPE svg
PUBLIC "-//W3C//DTD SVG 1.1//EN"
       "http://www.w3.org/Graphics/SVG/1.1/DTD/svg11.dtd">
<svg version="1.1" xmlns="http://www.w3.org/2000/svg" xmlns:xlink="http://www.w3.org/1999/xlink" viewBox="0 0 34.1253 17.5664">
 <g>
  <rect height="17.5664" opacity="0" width="34.1253" x="0" y="0"/>
  <path d="M10.2072 0.75L3.73843 16.7227C3.53921 17.2266 3.18765 17.5664 2.48452 17.5664L0.961085 17.5664C0.047022 17.5664-0.187353 16.8633 0.140772 16.2656L8.16812 0.574219C8.3439 0.222656 8.60171 0.0234375 9.01187 0.0234375L9.77358 0.0234375C10.1837 0.0234375 10.3712 0.363281 10.2072 0.75ZM25.6173 0.574219L33.633 16.2656C33.9611 16.8633 33.7267 17.5664 32.8244 17.5664L31.2892 17.5664C30.5861 17.5664 30.2345 17.2266 30.0353 16.7227L23.5666 0.75C23.4142 0.363281 23.59 0.0234375 24.0001 0.0234375L24.7619 0.0234375C25.172 0.0234375 25.4298 0.222656 25.6173 0.574219Z" fill="black" fill-opacity="0.85"/>
  <path d="M19.922 10.3945L20.6242 10.7985L22.2306 9.86719C22.5705 9.66797 22.9103 9.76172 23.0861 10.0781C23.2619 10.3594 23.1681 10.7227 22.8283 10.8984L21.8222 11.4877L22.9572 12.1406C23.2853 12.3281 23.3908 12.7148 23.215 13.0312C23.0275 13.3594 22.6291 13.4648 22.3126 13.2656L21.183 12.6158L21.1759 13.7812C21.1876 14.1562 20.9298 14.4141 20.59 14.4023C20.2267 14.4141 19.9806 14.1562 19.9689 13.7578L19.9804 11.9239L19.2775 11.5195L17.3768 10.2693L17.338 9.65286L17.8872 9.37711ZM13.758 4.98047L13.7465 6.82093L14.4611 7.23047L16.3539 8.48955L16.3902 9.10184L15.8355 9.3792L13.8048 8.35547L13.105 7.95018L11.4962 8.88281C11.1564 9.08203 10.8166 8.98828 10.6408 8.67188C10.465 8.37891 10.5587 8.02734 10.8986 7.85156L11.9048 7.25504L10.7697 6.59766C10.4416 6.42188 10.3361 6.03516 10.5236 5.70703C10.6994 5.39062 11.0978 5.28516 11.4142 5.48438L12.5438 6.13171L12.5509 4.96875C12.5392 4.59375 12.797 4.33594 13.1369 4.34766C13.5119 4.33594 13.7462 4.59375 13.758 4.98047Z" fill="black" fill-opacity="0.85"/>
  <path d="M16.4064 9.375L16.3536 10.2663L14.4611 11.5195L13.7464 11.9291L13.758 13.7695C13.7462 14.168 13.5119 14.4258 13.1369 14.4141C12.797 14.4258 12.5392 14.168 12.5509 13.793L12.5438 12.6183L11.4142 13.2656C11.0978 13.4648 10.6994 13.3594 10.5236 13.0312C10.3361 12.7148 10.4416 12.3281 10.7697 12.1406L11.8945 11.4935L10.8986 10.9102C10.5587 10.7344 10.465 10.3711 10.6408 10.0898C10.8166 9.77344 11.1564 9.67969 11.4962 9.87891L13.0925 10.8043L13.8048 10.3945L16.3902 9.10184ZM21.1759 4.96875L21.1831 6.1342L22.3126 5.48438C22.6291 5.28516 23.0275 5.39062 23.2033 5.70703C23.3908 6.03516 23.2853 6.42188 22.9572 6.59766L21.8221 7.25504L22.8283 7.85156C23.1681 8.02734 23.2619 8.37891 23.0861 8.67188C22.9103 8.98828 22.5705 9.08203 22.2306 8.88281L20.6218 7.95018L19.922 8.35547L17.338 9.65286L17.3205 9.375L17.3762 8.48954L19.2775 7.23047L19.9804 6.82607L19.9689 4.98047C19.9806 4.59375 20.2267 4.33594 20.59 4.34766C20.9298 4.33594 21.1876 4.59375 21.1759 4.96875Z" fill="black" fill-opacity="0.85"/>
  <path d="M16.8634 16.6992C17.2267 16.6992 17.5197 16.418 17.5197 16.0312L17.5197 12.5391L17.3205 9.375L17.5197 6.21094L17.5197 2.70703C17.5197 2.33203 17.2267 2.05078 16.8634 2.05078C16.5001 2.05078 16.2189 2.33203 16.2189 2.70703L16.2189 6.21094L16.4064 9.375L16.2189 12.5391L16.2189 16.0312C16.2189 16.418 16.5001 16.6992 16.8634 16.6992ZM19.3712 3.63281C19.1955 3.32812 18.8439 3.23438 18.5158 3.43359L16.8634 4.38281L15.2111 3.43359C14.883 3.23438 14.5314 3.32812 14.3556 3.63281C14.1798 3.94922 14.2736 4.28906 14.6017 4.48828L16.2306 5.41406C16.7345 5.68359 17.0041 5.68359 17.4962 5.41406L19.1251 4.48828C19.4533 4.28906 19.547 3.94922 19.3712 3.63281ZM14.3556 15.1172C14.5314 15.4219 14.883 15.5156 15.2111 15.3164L16.8634 14.3672L18.5158 15.3164C18.8439 15.5156 19.1955 15.4219 19.3712 15.1172C19.547 14.8008 19.4533 14.4609 19.1251 14.2617L17.4962 13.3359C17.0041 13.0547 16.7345 13.0664 16.2306 13.3359L14.6017 14.2617C14.2736 14.4609 14.1798 14.8008 14.3556 15.1172Z" fill="black" fill-opacity="0.85"/>
 </g>
</svg>
