<?xml version="1.0" encoding="UTF-8"?>
<!--Generator: Apple Native CoreSVG 360-->
<!DOCTYPE svg
PUBLIC "-//W3C//DTD SVG 1.1//EN"
       "http://www.w3.org/Graphics/SVG/1.1/DTD/svg11.dtd">
<svg version="1.1" xmlns="http://www.w3.org/2000/svg" xmlns:xlink="http://www.w3.org/1999/xlink" viewBox="0 0 34.1126 17.5664">
 <g>
  <rect height="17.5664" opacity="0" width="34.1126" x="0" y="0"/>
  <path d="M5.15591 13.2188L3.72623 16.7227C3.53873 17.2266 3.18716 17.5664 2.48404 17.5664L0.948883 17.5664C0.0465394 17.5664-0.176117 16.8633 0.128571 16.2656L1.79263 12.9727C2.05045 12.4805 2.41373 12.1992 3.15201 12.1992L4.47623 12.1992C5.03873 12.1992 5.36685 12.7031 5.15591 13.2188ZM31.9684 12.9727L33.6325 16.2656C33.9372 16.8633 33.7262 17.5664 32.8122 17.5664L31.277 17.5664C30.5739 17.5664 30.234 17.2266 30.0348 16.7227L28.6051 13.2188C28.3942 12.7031 28.7223 12.1992 29.2965 12.1992L30.609 12.1992C31.3473 12.1992 31.7106 12.4805 31.9684 12.9727ZM7.8981 6.45703L6.87857 8.96484C6.67935 9.46875 6.36295 9.65625 5.82388 9.65625L4.5231 9.65625C4.0192 9.65625 3.73795 9.1875 3.97232 8.74219L5.2731 6.21094C5.4606 5.84766 5.78873 5.64844 6.18716 5.64844L7.34732 5.64844C7.80435 5.64844 8.06216 6.04688 7.8981 6.45703ZM28.4997 6.21094L29.8004 8.74219C30.0231 9.1875 29.7419 9.65625 29.2379 9.65625L27.9489 9.65625C27.3981 9.65625 27.0934 9.46875 26.8825 8.96484L25.8629 6.45703C25.6989 6.04688 25.9567 5.64844 26.4137 5.64844L27.5739 5.64844C27.9723 5.64844 28.3004 5.84766 28.4997 6.21094ZM10.195 0.75L9.50357 2.49609C9.32779 2.94141 9.10513 3.14062 8.57779 3.14062L7.73404 3.14062C7.24185 3.14062 7.05435 2.70703 7.24185 2.35547L8.16763 0.574219C8.35513 0.222656 8.60123 0.0234375 8.99966 0.0234375L9.7731 0.0234375C10.1833 0.0234375 10.359 0.363281 10.195 0.75ZM25.5934 0.574219L26.5192 2.35547C26.7067 2.70703 26.5192 3.14062 26.027 3.14062L25.1833 3.14062C24.6559 3.14062 24.4333 2.94141 24.2575 2.49609L23.5661 0.75C23.402 0.363281 23.5778 0.0234375 23.9879 0.0234375L24.7614 0.0234375C25.1598 0.0234375 25.4176 0.222656 25.5934 0.574219Z" fill="black" fill-opacity="0.85"/>
  <path d="M19.9333 10.3945L20.6295 10.7951L22.2301 9.86719C22.57 9.66797 22.9215 9.76172 23.0973 10.0781C23.2731 10.3594 23.1794 10.7227 22.8395 10.8984L21.8335 11.4877L22.9684 12.1406C23.2965 12.3281 23.402 12.7148 23.2262 13.0312C23.027 13.3594 22.6403 13.4648 22.3122 13.2656L21.1942 12.6225L21.1872 13.7812C21.1989 14.1562 20.9294 14.4141 20.5895 14.4023C20.2262 14.4141 19.9919 14.1562 19.9801 13.7578L19.9916 11.9306L19.277 11.5195L17.3847 10.2692L17.3482 9.65337L17.8984 9.37711ZM13.7692 4.98047L13.7577 6.82607L14.4606 7.23047L16.3531 8.48372L16.3901 9.10753L15.8467 9.3792L13.8161 8.35547L13.1149 7.95096L11.5075 8.88281C11.1676 9.08203 10.8278 8.98828 10.6403 8.67188C10.4762 8.37891 10.5583 8.02734 10.8981 7.85156L11.9101 7.25586L10.7692 6.59766C10.4528 6.42188 10.3473 6.03516 10.5231 5.70703C10.7106 5.39062 11.0973 5.28516 11.4254 5.48438L12.555 6.1342L12.5622 4.96875C12.5504 4.59375 12.8083 4.33594 13.1481 4.34766C13.5114 4.33594 13.7575 4.59375 13.7692 4.98047Z" fill="black" fill-opacity="0.85"/>
  <path d="M16.4059 9.375L16.3528 10.272L14.4606 11.5195L13.7576 11.924L13.7692 13.7695C13.7575 14.168 13.5114 14.4258 13.1481 14.4141C12.8083 14.4258 12.5504 14.168 12.5622 13.793L12.555 12.6158L11.4254 13.2656C11.0973 13.4648 10.7106 13.3594 10.5231 13.0312C10.3473 12.7148 10.4528 12.3281 10.7692 12.1406L11.8998 11.4927L10.8981 10.9102C10.5583 10.7344 10.4762 10.3711 10.6403 10.0898C10.8278 9.77344 11.1676 9.67969 11.5075 9.87891L13.1024 10.8035L13.8161 10.3945L16.3901 9.10753ZM21.1872 4.96875L21.1943 6.12749L22.3122 5.48438C22.6403 5.28516 23.027 5.39062 23.2145 5.70703C23.402 6.03516 23.2965 6.42188 22.9684 6.59766L21.8333 7.25504L22.8395 7.85156C23.1794 8.02734 23.2731 8.37891 23.0973 8.67188C22.9215 8.98828 22.57 9.08203 22.2301 8.88281L20.6272 7.95357L19.9333 8.35547L17.3482 9.65337L17.3317 9.375L17.3842 8.48955L19.277 7.23047L19.9916 6.81936L19.9801 4.98047C19.9919 4.59375 20.2262 4.33594 20.5895 4.34766C20.9294 4.33594 21.1989 4.59375 21.1872 4.96875Z" fill="black" fill-opacity="0.85"/>
  <path d="M16.8747 16.6992C17.2379 16.6992 17.5192 16.418 17.5192 16.0312L17.5192 12.5391L17.3317 9.375L17.5192 6.21094L17.5192 2.70703C17.5192 2.33203 17.2379 2.05078 16.8747 2.05078C16.4997 2.05078 16.2184 2.33203 16.2184 2.70703L16.2184 6.21094L16.4059 9.375L16.2184 12.5391L16.2184 16.0312C16.2184 16.418 16.4997 16.6992 16.8747 16.6992ZM19.3708 3.63281C19.2067 3.32812 18.8551 3.23438 18.527 3.43359L16.8747 4.38281L15.2223 3.43359C14.8942 3.23438 14.5309 3.32812 14.3669 3.63281C14.1794 3.94922 14.2848 4.28906 14.6129 4.48828L16.2419 5.41406C16.7458 5.68359 17.0153 5.68359 17.4958 5.41406L19.1247 4.48828C19.4528 4.28906 19.5583 3.94922 19.3708 3.63281ZM14.3669 15.1172C14.5309 15.4219 14.8942 15.5156 15.2223 15.3164L16.8747 14.3672L18.527 15.3164C18.8551 15.5156 19.2067 15.4219 19.3708 15.1172C19.5583 14.8008 19.4528 14.4609 19.1247 14.2617L17.4958 13.3359C17.0036 13.0547 16.734 13.0664 16.2419 13.3359L14.6129 14.2617C14.2848 14.4609 14.1794 14.8008 14.3669 15.1172Z" fill="black" fill-opacity="0.85"/>
 </g>
</svg>
