<?xml version="1.0" encoding="UTF-8"?>
<!--Generator: Apple Native CoreSVG 360-->
<!DOCTYPE svg
PUBLIC "-//W3C//DTD SVG 1.1//EN"
       "http://www.w3.org/Graphics/SVG/1.1/DTD/svg11.dtd">
<svg version="1.1" xmlns="http://www.w3.org/2000/svg" xmlns:xlink="http://www.w3.org/1999/xlink" viewBox="0 0 36.5977 20.5898">
 <g>
  <rect height="20.5898" opacity="0" width="36.5977" x="0" y="0"/>
  <path d="M3.57422 6.89062L5.55469 6.89062L5.55469 2.92969C5.55469 2.34375 5.94141 1.96875 6.49219 1.96875L16.1953 1.96875C16.7578 1.96875 17.1328 2.34375 17.1328 2.92969L17.1328 12.2344L19.1133 12.2344L19.1133 2.91797C19.1133 1.16016 17.9766 0 16.2891 0L6.41016 0C4.71094 0 3.57422 1.16016 3.57422 2.91797ZM32.9297 6.89062L32.9297 2.91797C32.9297 1.16016 31.793 0 30.0938 0L19.957 0C18.2695 0 17.1328 1.16016 17.1328 2.91797L17.1328 12.2344L19.1133 12.2344L19.1133 2.92969C19.1133 2.34375 19.4883 1.96875 20.0508 1.96875L30.0117 1.96875C30.5625 1.96875 30.9492 2.34375 30.9492 2.92969L30.9492 6.89062ZM0 15.375C0 17.0625 1.11328 18.1758 2.77734 18.1758L33.4688 18.1758C35.1328 18.1758 36.2461 17.0625 36.2461 15.375L36.2461 8.25C36.2461 6.57422 35.1328 5.44922 33.4688 5.44922L31.8516 5.44922C30.1992 5.44922 29.0859 6.57422 29.0859 8.25L29.0859 11.0625L7.17188 11.0625L7.17188 8.25C7.17188 6.57422 6.04688 5.44922 4.39453 5.44922L2.77734 5.44922C1.11328 5.44922 0 6.57422 0 8.25ZM1.99219 15.3516L1.99219 8.27344C1.99219 7.75781 2.34375 7.41797 2.87109 7.41797L4.28906 7.41797C4.82812 7.41797 5.17969 7.75781 5.17969 8.27344L5.17969 13.0312L31.0664 13.0312L31.0664 8.27344C31.0664 7.75781 31.4297 7.41797 31.957 7.41797L33.375 7.41797C33.9023 7.41797 34.2656 7.75781 34.2656 8.27344L34.2656 15.3516C34.2656 15.8672 33.9023 16.207 33.375 16.207L2.87109 16.207C2.34375 16.207 1.99219 15.8672 1.99219 15.3516ZM4.26562 20.5664L4.99219 20.5664C5.625 20.5664 6.03516 20.168 6.03516 19.5352L6.03516 17.0508L3.22266 17.0508L3.22266 19.5352C3.22266 20.168 3.63281 20.5664 4.26562 20.5664ZM31.2539 20.5664L31.9805 20.5664C32.6133 20.5664 33.0234 20.168 33.0234 19.5352L33.0234 17.0508L30.2109 17.0508L30.2109 19.5352C30.2109 20.168 30.6328 20.5664 31.2539 20.5664Z" fill="black" fill-opacity="0.85"/>
 </g>
</svg>
