<?xml version="1.0" encoding="UTF-8"?>
<!--Generator: Apple Native CoreSVG 360-->
<!DOCTYPE svg
PUBLIC "-//W3C//DTD SVG 1.1//EN"
       "http://www.w3.org/Graphics/SVG/1.1/DTD/svg11.dtd">
<svg version="1.1" xmlns="http://www.w3.org/2000/svg" xmlns:xlink="http://www.w3.org/1999/xlink" viewBox="0 0 39.7043 19.582">
 <g>
  <rect height="19.582" opacity="0" width="39.7043" x="0" y="0"/>
  <path d="M33.5631 19.5352C37.2193 19.5352 39.3522 17.3672 39.3522 14.0742C39.3522 11.3789 38.3209 10.0664 35.2389 8.50781L34.0904 7.93359C32.2623 6.99609 31.6529 6.25781 31.6529 4.93359C31.6529 3.78516 32.4147 3.02344 33.5631 3.02344C34.8053 3.02344 35.4615 3.84375 35.6256 5.29688C35.6607 5.55469 35.8014 5.68359 36.0357 5.68359L38.6725 5.68359C38.9068 5.68359 39.0709 5.53125 39.0592 5.26172C38.8717 2.03906 37.1607 0 33.5631 0C30.0357 0 27.9732 2.16797 27.9732 5.35547C27.9732 8.03906 29.0748 9.51562 31.9225 11.0273L33.0709 11.6367C34.9576 12.6445 35.6725 13.2539 35.6725 14.5078C35.6725 15.7969 34.9693 16.5117 33.6217 16.5117C32.2506 16.5117 31.442 15.6562 31.2779 14.2148C31.2428 13.957 31.149 13.8164 30.9029 13.8164L28.0904 13.8164C27.8561 13.8164 27.692 13.9688 27.7037 14.2383C27.9029 17.6367 29.7545 19.5352 33.5631 19.5352Z" fill="black" fill-opacity="0.85"/>
  <path d="M19.6881 19.5352C24.024 19.5352 26.3326 16.2422 26.3326 9.79688C26.3326 3.38672 24.024 0.0351562 19.6881 0.0351562C15.3053 0.0351562 13.0318 3.38672 13.0318 9.79688C13.0318 16.2422 15.3053 19.5352 19.6881 19.5352ZM19.6881 16.3477C17.7662 16.3477 16.817 14.3203 16.817 9.79688C16.817 5.29688 17.7662 3.22266 19.6881 3.22266C21.5514 3.22266 22.5123 5.29688 22.5123 9.79688C22.5123 14.3203 21.5514 16.3477 19.6881 16.3477Z" fill="black" fill-opacity="0.85"/>
  <path d="M5.85996 19.5352C9.51621 19.5352 11.649 17.3672 11.649 14.0742C11.649 11.3789 10.6178 10.0781 7.53575 8.50781L6.38731 7.93359C4.5709 6.99609 3.94981 6.25781 3.94981 4.93359C3.94981 3.78516 4.71153 3.02344 5.85996 3.02344C7.10215 3.02344 7.77012 3.84375 7.93418 5.29688C7.95762 5.55469 8.09825 5.68359 8.33262 5.68359L10.9693 5.68359C11.2037 5.68359 11.3678 5.53125 11.3561 5.26172C11.192 2.03906 9.45762 0 5.85996 0C2.33262 0 0.270121 2.16797 0.270121 5.35547C0.270121 8.03906 1.37168 9.52734 4.21934 11.0273L5.36778 11.6367C7.2545 12.6328 7.96934 13.2539 7.96934 14.5078C7.96934 15.7969 7.26621 16.5117 5.93028 16.5117C4.54746 16.5117 3.73887 15.6562 3.57481 14.2148C3.55137 13.957 3.4459 13.8164 3.19981 13.8164L0.387309 13.8164C0.152934 13.8164-0.0111288 13.9688 0.000589904 14.2383C0.199809 17.6367 2.05137 19.5352 5.85996 19.5352Z" fill="black" fill-opacity="0.85"/>
 </g>
</svg>
