<?xml version="1.0" encoding="UTF-8"?>
<!--Generator: Apple Native CoreSVG 360-->
<!DOCTYPE svg
PUBLIC "-//W3C//DTD SVG 1.1//EN"
       "http://www.w3.org/Graphics/SVG/1.1/DTD/svg11.dtd">
<svg version="1.1" xmlns="http://www.w3.org/2000/svg" xmlns:xlink="http://www.w3.org/1999/xlink" viewBox="0 0 20.0625 32.4727">
 <g>
  <rect height="32.4727" opacity="0" width="20.0625" x="0" y="0"/>
  <path d="M19.7109 8.30859L19.7109 26.0742C19.7109 28.5352 18.5039 29.7539 16.0781 29.7539L3.63281 29.7539C1.20703 29.7539 0 28.5352 0 26.0742L0 8.30859C0 5.84766 1.20703 4.62891 3.63281 4.62891L3.78795 4.62891C3.77808 4.72417 3.77344 4.82202 3.77344 4.92188L3.77344 6.15234C3.77344 6.27709 3.7808 6.39874 3.79774 6.51563L3.72656 6.51562C2.50781 6.51562 1.88672 7.17188 1.88672 8.33203L1.88672 26.0508C1.88672 27.2227 2.50781 27.8672 3.72656 27.8672L15.9844 27.8672C17.2031 27.8672 17.8242 27.2227 17.8242 26.0508L17.8242 8.33203C17.8242 7.17188 17.2031 6.51562 15.9844 6.51562L15.9132 6.51563C15.9301 6.39874 15.9375 6.27709 15.9375 6.15234L15.9375 4.92188C15.9375 4.82202 15.9329 4.72417 15.923 4.62891L16.0781 4.62891C18.5039 4.62891 19.7109 5.84766 19.7109 8.30859Z" fill="black" fill-opacity="0.85"/>
  <path d="M6.23438 7.3125L13.4766 7.3125C14.1562 7.3125 14.5664 6.87891 14.5664 6.15234L14.5664 4.92188C14.5664 4.19531 14.1562 3.76172 13.4766 3.76172L12.3984 3.76172C12.3164 2.4375 11.2148 1.35938 9.85547 1.35938C8.49609 1.35938 7.39453 2.4375 7.3125 3.76172L6.23438 3.76172C5.55469 3.76172 5.14453 4.19531 5.14453 4.92188L5.14453 6.15234C5.14453 6.87891 5.55469 7.3125 6.23438 7.3125ZM9.85547 4.875C9.29297 4.875 8.83594 4.40625 8.83594 3.85547C8.83594 3.28125 9.29297 2.82422 9.85547 2.82422C10.418 2.82422 10.875 3.28125 10.875 3.85547C10.875 4.40625 10.418 4.875 9.85547 4.875Z" fill="black" fill-opacity="0.85"/>
  <path d="M4.6875 19.8164L15.0234 19.8164C15.4336 19.8164 15.7617 19.4883 15.7617 19.0781C15.7617 18.6797 15.4336 18.3633 15.0234 18.3633L4.6875 18.3633C4.27734 18.3633 3.94922 18.6797 3.94922 19.0781C3.94922 19.4883 4.27734 19.8164 4.6875 19.8164ZM4.6875 24.1992L10.5938 24.1992C10.9922 24.1992 11.3203 23.8711 11.3203 23.4727C11.3203 23.0742 11.0039 22.7461 10.5938 22.7461L4.6875 22.7461C4.27734 22.7461 3.94922 23.0742 3.94922 23.4727C3.94922 23.8711 4.28906 24.1992 4.6875 24.1992ZM7.40625 16.5352C7.54688 16.5352 7.66406 16.4414 7.69922 16.2891C7.88672 15.0938 8.03906 14.4609 8.44922 14.0625C8.84766 13.6523 9.49219 13.5 10.6758 13.3008C10.8281 13.2773 10.9219 13.1602 10.9219 13.0195C10.9219 12.8789 10.8281 12.7617 10.6758 12.7383C9.49219 12.5391 8.84766 12.3867 8.44922 11.9766C8.03906 11.5781 7.88672 10.9453 7.69922 9.75C7.66406 9.59766 7.54688 9.50391 7.40625 9.50391C7.26562 9.50391 7.14844 9.59766 7.125 9.75C6.92578 10.9453 6.77344 11.5781 6.36328 11.9766C5.96484 12.3867 5.33203 12.5391 4.13672 12.7383C3.99609 12.7617 3.89062 12.8789 3.89062 13.0195C3.89062 13.1602 3.99609 13.2773 4.13672 13.3008C5.33203 13.5 5.96484 13.6523 6.36328 14.0625C6.77344 14.4609 6.92578 15.0938 7.125 16.2891C7.14844 16.4414 7.26562 16.5352 7.40625 16.5352Z" fill="black" fill-opacity="0.85"/>
 </g>
</svg>
