<?xml version="1.0" encoding="UTF-8"?>
<!--Generator: Apple Native CoreSVG 360-->
<!DOCTYPE svg
PUBLIC "-//W3C//DTD SVG 1.1//EN"
       "http://www.w3.org/Graphics/SVG/1.1/DTD/svg11.dtd">
<svg version="1.1" xmlns="http://www.w3.org/2000/svg" xmlns:xlink="http://www.w3.org/1999/xlink" viewBox="0 0 21.1875 20.6836">
 <g>
  <rect height="20.6836" opacity="0" width="21.1875" x="0" y="0"/>
  <path d="M18.1406 15.3398C18.5273 15.6094 19.0781 15.5273 19.3945 15.0703C20.2969 13.8867 20.8359 12.1406 20.8359 10.3477C20.8359 8.55469 20.2969 6.82031 19.3945 5.625C19.0781 5.16797 18.5273 5.07422 18.1406 5.35547C17.6602 5.68359 17.5898 6.26953 17.9531 6.75C18.6328 7.6875 19.0195 8.98828 19.0195 10.3477C19.0195 11.707 18.6211 12.9961 17.9531 13.9453C17.6016 14.4375 17.6602 15 18.1406 15.3398Z" fill="black" fill-opacity="0.85"/>
  <path d="M2.37891 15.1055L5.74219 15.1055C5.84766 15.1055 5.94141 15.1406 6.02344 15.2109L11.3086 19.9453C11.8594 20.4492 12.3047 20.6836 12.8555 20.6836C13.6172 20.6836 14.1797 20.1328 14.1797 19.3711L14.1797 1.39453C14.1797 0.632812 13.6172 0.0117188 12.832 0.0117188C12.2812 0.0117188 11.918 0.269531 11.3086 0.820312L6.02344 5.50781C5.94141 5.57812 5.84766 5.61328 5.74219 5.61328L2.37891 5.61328C0.785156 5.61328 0 6.42188 0 8.12109L0 12.6094C0 14.3086 0.796875 15.1055 2.37891 15.1055ZM2.46094 13.3945C2.02734 13.3945 1.82812 13.1953 1.82812 12.7617L1.82812 7.96875C1.82812 7.52344 2.02734 7.32422 2.46094 7.32422L6.21094 7.32422C6.51562 7.32422 6.75 7.26562 7.01953 7.01953L12.0117 2.48438C12.0703 2.42578 12.1289 2.39062 12.2109 2.39062C12.293 2.39062 12.3633 2.44922 12.3633 2.55469L12.3633 18.1289C12.3633 18.2344 12.293 18.3047 12.2109 18.3047C12.1523 18.3047 12.082 18.2695 12.0117 18.2109L7.01953 13.6992C6.75 13.4648 6.51562 13.3945 6.21094 13.3945Z" fill="black" fill-opacity="0.85"/>
 </g>
</svg>
