<?xml version="1.0" encoding="UTF-8"?>
<!--Generator: Apple Native CoreSVG 360-->
<!DOCTYPE svg
PUBLIC "-//W3C//DTD SVG 1.1//EN"
       "http://www.w3.org/Graphics/SVG/1.1/DTD/svg11.dtd">
<svg version="1.1" xmlns="http://www.w3.org/2000/svg" xmlns:xlink="http://www.w3.org/1999/xlink" viewBox="0 0 31.8047 22.6497">
 <g>
  <rect height="22.6497" opacity="0" width="31.8047" x="0" y="0"/>
  <path d="M26.8828 22.4752C27.2812 22.7682 27.8555 22.651 28.1719 22.1823C30.2227 19.2174 31.4531 15.4557 31.4531 11.319C31.4531 7.17056 30.1875 3.43228 28.1719 0.455716C27.8555-0.0247524 27.2812-0.130221 26.8828 0.162748C26.4375 0.467435 26.3789 1.01822 26.6953 1.49869C28.5117 4.18228 29.6602 7.55728 29.6602 11.319C29.6602 15.069 28.5117 18.4674 26.6953 21.1393C26.3789 21.6198 26.4375 22.1706 26.8828 22.4752Z" fill="black" fill-opacity="0.85"/>
  <path d="M22.4883 19.3698C22.9219 19.6627 23.4609 19.5573 23.7773 19.112C25.2773 17.0495 26.1562 14.2135 26.1562 11.319C26.1562 8.42447 25.2891 5.56509 23.7773 3.52603C23.4609 3.08072 22.9219 2.97525 22.4883 3.26822C22.0547 3.56119 21.9844 4.11197 22.3242 4.59244C23.6016 6.39712 24.3398 8.8229 24.3398 11.319C24.3398 13.8151 23.5781 16.2174 22.3242 18.0456C21.9961 18.526 22.0547 19.0768 22.4883 19.3698Z" fill="black" fill-opacity="0.85"/>
  <path d="M18.1523 16.3112C18.5391 16.5807 19.0898 16.4987 19.4062 16.0417C20.3086 14.8581 20.8477 13.112 20.8477 11.319C20.8477 9.52603 20.3086 7.79165 19.4062 6.59634C19.0898 6.13931 18.5391 6.04556 18.1523 6.32681C17.6719 6.65494 17.6016 7.24087 17.9648 7.72134C18.6445 8.65884 19.0312 9.95962 19.0312 11.319C19.0312 12.6784 18.6328 13.9674 17.9648 14.9167C17.6133 15.4088 17.6719 15.9713 18.1523 16.3112Z" fill="black" fill-opacity="0.85"/>
  <path d="M2.37891 16.0885L5.74219 16.0885C5.84766 16.0885 5.94141 16.1237 6.02344 16.194L11.3086 20.9284C11.8711 21.4323 12.3047 21.6667 12.8672 21.6667C13.6172 21.6667 14.1914 21.1159 14.1914 20.3542L14.1914 2.37759C14.1914 1.61587 13.6172 0.994779 12.8438 0.994779C12.2812 0.994779 11.918 1.25259 11.3086 1.80337L6.02344 6.49087C5.94141 6.56119 5.84766 6.59634 5.74219 6.59634L2.37891 6.59634C0.785156 6.59634 0 7.40494 0 9.10415L0 13.5924C0 15.2917 0.796875 16.0885 2.37891 16.0885ZM2.46094 14.3776C2.02734 14.3776 1.82812 14.1784 1.82812 13.7448L1.82812 8.95181C1.82812 8.5065 2.02734 8.30728 2.46094 8.30728L6.21094 8.30728C6.51562 8.30728 6.75 8.24869 7.01953 8.00259L12.0117 3.46744C12.0703 3.40884 12.1289 3.37369 12.2109 3.37369C12.293 3.37369 12.3633 3.43228 12.3633 3.53775L12.3633 19.112C12.3633 19.2174 12.293 19.2877 12.2109 19.2877C12.1523 19.2877 12.082 19.2526 12.0117 19.194L7.01953 14.6823C6.75 14.4479 6.51562 14.3776 6.21094 14.3776Z" fill="black" fill-opacity="0.85"/>
 </g>
</svg>
