<?xml version="1.0" encoding="UTF-8"?>
<!--Generator: Apple Native CoreSVG 360-->
<!DOCTYPE svg
PUBLIC "-//W3C//DTD SVG 1.1//EN"
       "http://www.w3.org/Graphics/SVG/1.1/DTD/svg11.dtd">
<svg version="1.1" xmlns="http://www.w3.org/2000/svg" xmlns:xlink="http://www.w3.org/1999/xlink" viewBox="0 0 26.3555 26.0273">
 <g>
  <rect height="26.0273" opacity="0" width="26.3555" x="0" y="0"/>
  <path d="M9.22266 3.45703C8.97656 3.70312 8.88281 3.96094 8.88281 4.20703C8.88281 4.65234 9.24609 5.01562 9.79688 5.01562L16.207 5.01562C16.7578 5.01562 17.1211 4.65234 17.1211 4.20703C17.1211 3.96094 17.0156 3.70312 16.7812 3.45703L13.8164 0.375C13.5703 0.117188 13.2891 0 12.9961 0C12.7266 0 12.4336 0.117188 12.1875 0.375ZM9.22266 22.5586L12.1875 25.6406C12.4336 25.8984 12.7266 26.0039 12.9961 26.0039C13.2891 26.0039 13.5703 25.8984 13.8164 25.6406L16.7812 22.5586C17.0156 22.3125 17.1211 22.0547 17.1211 21.8086C17.1211 21.3633 16.7578 21 16.207 21L9.79688 21C9.24609 21 8.88281 21.3633 8.88281 21.8086C8.88281 22.0547 8.97656 22.3125 9.22266 22.5586ZM22.5469 9.24609C22.3008 9 22.043 8.90625 21.7969 8.90625C21.3633 8.90625 20.9883 9.26953 20.9883 9.80859L20.9883 16.2305C20.9883 16.7812 21.3633 17.1328 21.7969 17.1328C22.043 17.1328 22.3008 17.0391 22.5469 16.793L25.6406 13.8281C25.8867 13.5938 26.0039 13.3008 26.0039 13.0195C26.0039 12.7383 25.8867 12.4453 25.6406 12.2109ZM3.45703 9.24609L0.363281 12.2109C0.117188 12.4453 0 12.7383 0 13.0195C0 13.3008 0.117188 13.5938 0.363281 13.8281L3.45703 16.793C3.69141 17.0391 3.94922 17.1328 4.19531 17.1328C4.64062 17.1328 5.00391 16.7812 5.00391 16.2305L5.00391 9.80859C5.00391 9.26953 4.64062 8.90625 4.19531 8.90625C3.94922 8.90625 3.69141 9 3.45703 9.24609Z" fill="black" fill-opacity="0.85"/>
  <path d="M14.2031 18.1758C14.5781 18.1758 14.8594 17.8945 14.8594 17.5195L14.8594 8.54297C14.8594 8.15625 14.5781 7.83984 14.1914 7.83984C13.9102 7.83984 13.7227 7.96875 13.418 8.25L10.9336 10.6055C10.8867 10.6406 10.8398 10.6406 10.793 10.6406L9.10547 10.6406C8.32031 10.6406 7.88672 11.0742 7.88672 11.9297L7.88672 14.1094C7.88672 14.9531 8.32031 15.3867 9.10547 15.3867L10.793 15.3867C10.8398 15.3867 10.8867 15.3984 10.9336 15.4336L13.418 17.8125C13.6875 18.0586 13.9219 18.1758 14.2031 18.1758Z" fill="black" fill-opacity="0.85"/>
  <path d="M16.793 15.5977C17.0508 15.7969 17.4141 15.7266 17.6367 15.4453C18.1055 14.8359 18.3633 13.9336 18.3633 13.0078C18.3633 12.0938 18.0938 11.1914 17.6367 10.5703C17.4258 10.2891 17.0508 10.2188 16.793 10.4062C16.4883 10.6289 16.4297 10.9922 16.6641 11.3203C16.957 11.7188 17.1445 12.3516 17.1445 13.0078C17.1445 13.6406 16.957 14.2734 16.6641 14.6953C16.4297 15.0234 16.4883 15.3867 16.793 15.5977Z" fill="black" fill-opacity="0.85"/>
 </g>
</svg>
