<?xml version="1.0" encoding="UTF-8"?>
<!--Generator: Apple Native CoreSVG 360-->
<!DOCTYPE svg
PUBLIC "-//W3C//DTD SVG 1.1//EN"
       "http://www.w3.org/Graphics/SVG/1.1/DTD/svg11.dtd">
<svg version="1.1" xmlns="http://www.w3.org/2000/svg" xmlns:xlink="http://www.w3.org/1999/xlink" viewBox="0 0 28.6406 20.6836">
 <g>
  <rect height="20.6836" opacity="0" width="28.6406" x="0" y="0"/>
  <path d="M27.6328 7.55859L24.8555 7.55859L24.8555 7.48828L27.7148 3.72656C27.9727 3.39844 28.0664 3.19922 28.0664 2.97656C28.0664 2.58984 27.7617 2.35547 27.3633 2.35547L23.4258 2.35547C23.0391 2.35547 22.7695 2.60156 22.7695 2.98828C22.7695 3.38672 23.0391 3.63281 23.4258 3.63281L26.0508 3.63281L26.0508 3.67969L23.1562 7.44141C22.8984 7.76953 22.8164 7.96875 22.8164 8.22656C22.8164 8.57812 23.0977 8.83594 23.5078 8.83594L27.6328 8.83594C28.0195 8.83594 28.2891 8.58984 28.2891 8.19141C28.2891 7.81641 28.0195 7.55859 27.6328 7.55859ZM20.7422 12.2461L18.7852 12.2461L18.7852 12.1992L20.8125 9.55078C21.0469 9.24609 21.1523 9.04688 21.1523 8.82422C21.1523 8.46094 20.8594 8.25 20.4727 8.25L17.4844 8.25C17.1211 8.25 16.875 8.48438 16.875 8.83594C16.875 9.23438 17.1211 9.45703 17.4844 9.45703L19.2422 9.45703L19.2422 9.50391L17.2266 12.1406C17.0039 12.4453 16.9102 12.6328 16.9102 12.8789C16.9102 13.2188 17.168 13.4648 17.543 13.4648L20.7422 13.4648C21.1055 13.4648 21.3516 13.2422 21.3516 12.8555C21.3516 12.4922 21.1055 12.2461 20.7422 12.2461ZM26.0391 16.5586L24.375 16.5586L24.375 16.5117L26.0859 14.2266C26.3203 13.9102 26.4023 13.7461 26.4023 13.5352C26.4023 13.1836 26.1328 12.9727 25.7812 12.9727L23.1445 12.9727C22.793 12.9727 22.5586 13.1953 22.5586 13.5469C22.5586 13.9102 22.793 14.1211 23.1445 14.1211L24.5977 14.1211L24.5977 14.168L22.8984 16.4531C22.6875 16.7461 22.582 16.9219 22.582 17.1445C22.582 17.4727 22.8516 17.707 23.2031 17.707L26.0391 17.707C26.3672 17.707 26.6016 17.4844 26.6016 17.1211C26.6016 16.7812 26.3672 16.5586 26.0391 16.5586Z" fill="black" fill-opacity="0.85"/>
  <path d="M2.37891 15.1055L5.74219 15.1055C5.84766 15.1055 5.94141 15.1406 6.02344 15.2109L11.3086 19.9453C11.8711 20.4492 12.3047 20.6836 12.8672 20.6836C13.6172 20.6836 14.1914 20.1328 14.1914 19.3711L14.1914 1.39453C14.1914 0.632812 13.6172 0.0117188 12.8438 0.0117188C12.2812 0.0117188 11.918 0.269531 11.3086 0.820312L6.02344 5.50781C5.94141 5.57812 5.84766 5.61328 5.74219 5.61328L2.37891 5.61328C0.785156 5.61328 0 6.42188 0 8.12109L0 12.6094C0 14.3086 0.796875 15.1055 2.37891 15.1055ZM2.46094 13.3945C2.02734 13.3945 1.82812 13.1953 1.82812 12.7617L1.82812 7.96875C1.82812 7.52344 2.02734 7.32422 2.46094 7.32422L6.21094 7.32422C6.51562 7.32422 6.75 7.26562 7.01953 7.01953L12.0117 2.48438C12.0703 2.42578 12.1289 2.39062 12.2109 2.39062C12.293 2.39062 12.3633 2.44922 12.3633 2.55469L12.3633 18.1289C12.3633 18.2344 12.293 18.3047 12.2109 18.3047C12.1523 18.3047 12.082 18.2695 12.0117 18.2109L7.01953 13.6992C6.75 13.4648 6.51562 13.3945 6.21094 13.3945Z" fill="black" fill-opacity="0.85"/>
 </g>
</svg>
