<?xml version="1.0" encoding="UTF-8"?>
<!--Generator: Apple Native CoreSVG 360-->
<!DOCTYPE svg
PUBLIC "-//W3C//DTD SVG 1.1//EN"
       "http://www.w3.org/Graphics/SVG/1.1/DTD/svg11.dtd">
<svg version="1.1" xmlns="http://www.w3.org/2000/svg" xmlns:xlink="http://www.w3.org/1999/xlink" viewBox="0 0 28.6406 22.5352">
 <g>
  <rect height="22.5352" opacity="0" width="28.6406" x="0" y="0"/>
  <path d="M12.7852 1.26562L6.75 0.597656C5.68359 0.480469 4.93359 1.16016 4.93359 2.16797C4.93359 3.1875 5.68359 3.86719 6.75 3.73828L12.7852 3.08203ZM13.8516 4.33594C15.0586 4.33594 16.0312 3.375 16.0312 2.16797C16.0312 0.972656 15.0586 0 13.8516 0C12.6562 0 11.6836 0.972656 11.6836 2.16797C11.6836 3.375 12.6562 4.33594 13.8516 4.33594ZM14.918 1.26562L14.918 3.08203L20.9648 3.73828C22.0195 3.86719 22.7695 3.1875 22.7695 2.16797C22.7695 1.16016 22.0195 0.480469 20.9648 0.597656ZM12.8203 3.50391L12.8203 6.26953L14.8945 6.26953L14.8945 3.50391ZM15.75 8.75391L17.3438 8.75391L17.3438 6.99609C17.3438 5.97656 16.6289 5.26172 15.6211 5.26172L12.0586 5.26172C11.0391 5.26172 10.3242 5.97656 10.3242 6.99609L10.3242 8.75391L11.918 8.75391L11.918 7.17188C11.918 6.84375 12.1523 6.62109 12.4688 6.62109L15.2109 6.62109C15.5273 6.62109 15.75 6.84375 15.75 7.17188ZM13.8398 20.5547C15.8906 20.5547 17.1914 19.6875 18.5391 18.4453C19.0078 18 19.5938 17.7539 20.1211 17.7539C21.0938 17.7539 21.8555 18.4688 21.8555 19.8047L21.8555 21.4453C21.8555 22.0781 22.2891 22.5117 22.9219 22.5117L27.2109 22.5117C27.8438 22.5117 28.2891 22.0781 28.2891 21.4453L28.2891 20.3438C28.2891 13.4648 24.0703 11.0859 20.2031 11.0859L19.6992 11.0859C19.5469 11.0859 19.4297 11.0039 19.3828 10.875L18.668 8.95312C18.4219 8.26172 18.0469 7.96875 17.4141 7.96875L10.2539 7.96875C9.62109 7.96875 9.25781 8.26172 9 8.95312L8.29688 10.875C8.23828 11.0039 8.12109 11.0859 7.98047 11.0859L0.75 11.0859L0.75 12.7969L8.09766 12.7969C9.21094 12.7969 9.58594 12.3398 9.87891 11.543L10.5586 9.67969L17.1211 9.67969L17.8008 11.543C18.0938 12.3398 18.457 12.7969 19.582 12.7969L20.1914 12.7969C23.625 12.7969 26.5898 14.7422 26.5898 20.3438L26.5898 20.8008L23.5664 20.8008L23.5664 19.8047C23.5664 16.7461 21.7266 16.0195 20.2266 16.0195C19.0547 16.0195 18.1758 16.4883 17.3438 17.2852C16.582 17.9766 15.6094 18.8438 13.8398 18.8438C12.0469 18.8438 11.0039 18.0352 10.1719 17.1094C9.44531 16.2422 8.87109 15.9844 7.67578 15.9844L0.75 15.9844L0.75 17.6953L7.58203 17.6953C8.23828 17.6953 8.48438 17.7656 8.91797 18.2578C10.1133 19.5703 11.7891 20.5547 13.8398 20.5547ZM0.9375 20.2969C1.46484 20.2969 1.88672 19.8633 1.88672 19.3477L1.88672 9.77344C1.88672 9.25781 1.46484 8.82422 0.9375 8.82422C0.421875 8.82422 0 9.25781 0 9.77344L0 19.3477C0 19.8633 0.421875 20.2969 0.9375 20.2969Z" fill="black" fill-opacity="0.85"/>
 </g>
</svg>
