<?xml version="1.0" encoding="UTF-8"?>
<!--Generator: Apple Native CoreSVG 360-->
<!DOCTYPE svg
PUBLIC "-//W3C//DTD SVG 1.1//EN"
       "http://www.w3.org/Graphics/SVG/1.1/DTD/svg11.dtd">
<svg version="1.1" xmlns="http://www.w3.org/2000/svg" xmlns:xlink="http://www.w3.org/1999/xlink" viewBox="0 0 32.0156 21.5742">
 <g>
  <rect height="21.5742" opacity="0" width="32.0156" x="0" y="0"/>
  <path d="M4.45312 21.5742L27.2109 21.5742C30.0703 21.5742 31.6641 19.9805 31.6641 17.1211L31.6641 4.45312C31.6641 1.59375 30.0703 0 27.2109 0L4.45312 0C1.59375 0 0 1.59375 0 4.45312L0 17.1211C0 19.9805 1.59375 21.5742 4.45312 21.5742ZM4.52344 19.6875C2.80078 19.6875 1.88672 18.7734 1.88672 17.0508L1.88672 4.52344C1.88672 2.78906 2.80078 1.88672 4.52344 1.88672L27.1406 1.88672C28.875 1.88672 29.7773 2.78906 29.7773 4.52344L29.7773 17.0508C29.7773 18.7734 28.875 19.6875 27.1406 19.6875ZM1.23047 15.9961L3.82031 15.9961C5.80078 15.9961 6.87891 14.918 6.87891 12.9492L6.87891 8.61328C6.87891 6.64453 5.80078 5.56641 3.82031 5.56641L1.23047 5.56641L1.23047 7.21875L3.83203 7.21875C4.73438 7.21875 5.22656 7.71094 5.22656 8.61328L5.22656 12.9492C5.22656 13.8516 4.73438 14.3438 3.83203 14.3438L1.23047 14.3438ZM27.8438 15.9961L30.4336 15.9961L30.4336 14.3438L27.832 14.3438C26.9297 14.3438 26.4492 13.8516 26.4492 12.9492L26.4492 8.61328C26.4492 7.71094 26.9297 7.21875 27.832 7.21875L30.4336 7.21875L30.4336 5.56641L27.8438 5.56641C25.8633 5.56641 24.7969 6.64453 24.7969 8.61328L24.7969 12.9492C24.7969 14.918 25.8633 15.9961 27.8438 15.9961ZM15.0117 20.8008L16.6641 20.8008L16.6641 0.773438L15.0117 0.773438ZM15.832 16.3242C18.9023 16.3242 21.3867 13.8516 21.3867 10.7812C21.3867 7.71094 18.9023 5.22656 15.832 5.22656C12.7617 5.22656 10.2891 7.71094 10.2891 10.7812C10.2891 13.8516 12.7617 16.3242 15.832 16.3242ZM15.832 14.7891C13.6172 14.7891 11.8242 12.9961 11.8242 10.7812C11.8242 8.56641 13.6172 6.76172 15.832 6.76172C18.0469 6.76172 19.8516 8.56641 19.8516 10.7812C19.8516 12.9961 18.0469 14.7891 15.832 14.7891ZM15.832 12.668C16.8867 12.668 17.7188 11.8242 17.7188 10.7812C17.7188 9.73828 16.8867 8.89453 15.832 8.89453C14.7891 8.89453 13.9453 9.73828 13.9453 10.7812C13.9453 11.8242 14.7891 12.668 15.832 12.668Z" fill="black" fill-opacity="0.85"/>
 </g>
</svg>
