<?xml version="1.0" encoding="UTF-8"?>
<!--Generator: Apple Native CoreSVG 360-->
<!DOCTYPE svg
PUBLIC "-//W3C//DTD SVG 1.1//EN"
       "http://www.w3.org/Graphics/SVG/1.1/DTD/svg11.dtd">
<svg version="1.1" xmlns="http://www.w3.org/2000/svg" xmlns:xlink="http://www.w3.org/1999/xlink" viewBox="0 0 23.4727 26.7348">
 <g>
  <rect height="26.7348" opacity="0" width="23.4727" x="0" y="0"/>
  <path d="M12.293 0.295121L21.6797 5.7209C22.7227 6.33028 23.1211 7.02168 23.1211 8.24043L23.1211 18.8576C23.1211 20.8264 21.9492 21.4592 20.2969 20.51L18.4453 19.4411L18.4453 17.1772L21.0352 18.6701C21.1406 18.7287 21.2109 18.6936 21.2109 18.5764L21.2109 8.31075C21.2109 7.80684 21.0703 7.64278 20.6953 7.42012L11.7656 2.26387C11.6484 2.19356 11.5664 2.25215 11.5664 2.36934L11.5664 5.27998L9.65625 4.17824L9.65625 1.72481C9.65625 0.0607459 11.1328-0.361129 12.293 0.295121Z" fill="black" fill-opacity="0.85"/>
  <path d="M7.61719 3.00215L17.0039 8.41621C18.0586 9.03731 18.4453 9.72871 18.4453 10.9357L18.4453 21.5647C18.4453 23.5217 17.2734 24.1545 15.6211 23.217L13.4648 21.9679L13.4648 19.6968L16.3594 21.3654C16.4648 21.424 16.5352 21.3889 16.5352 21.2717L16.5352 11.0061C16.5352 10.5022 16.3945 10.3381 16.0195 10.1154L7.08984 4.95918C6.98438 4.88887 6.89062 4.95918 6.89062 5.06465L6.89063 8.39071L4.98047 7.28659L4.98047 4.42012C4.98047 2.76778 6.45703 2.33418 7.61719 3.00215Z" fill="black" fill-opacity="0.85"/>
  <path d="M13.4648 13.8654C13.4648 12.6584 13.0664 11.967 12.0234 11.3576L2.63672 5.93184C1.47656 5.27559 0 5.69746 0 7.34981L0 18.2717C0 19.5139 0.316406 20.1818 1.46484 20.8381L10.6406 26.1467C12.293 27.0959 13.4648 26.4514 13.4648 24.4943ZM11.0391 13.0451C11.4141 13.2678 11.5547 13.4318 11.5547 13.9357L11.5547 24.2014C11.5547 24.3186 11.4844 24.3654 11.3789 24.3068L2.41406 19.1272C2.01562 18.8928 1.91016 18.7053 1.91016 18.2365L1.91016 7.99434C1.91016 7.88887 1.99219 7.83028 2.10938 7.88887Z" fill="black" fill-opacity="0.85"/>
 </g>
</svg>
