<?xml version="1.0" encoding="UTF-8"?>
<!--Generator: Apple Native CoreSVG 360-->
<!DOCTYPE svg
PUBLIC "-//W3C//DTD SVG 1.1//EN"
       "http://www.w3.org/Graphics/SVG/1.1/DTD/svg11.dtd">
<svg version="1.1" xmlns="http://www.w3.org/2000/svg" xmlns:xlink="http://www.w3.org/1999/xlink" viewBox="0 0 28.5234 32.8727">
 <g>
  <rect height="32.8727" opacity="0" width="28.5234" x="0" y="0"/>
  <path d="M15.9701 4.48275L4.81641 10.9227C4.55859 11.0633 4.45312 11.2508 4.45312 11.4969L4.45313 24.3786C3.53631 24.5871 2.55469 24.2582 2.55469 22.6414L2.55469 11.5086C2.55469 10.1844 2.69531 9.93829 3.83203 9.29376L13.3828 3.77423C14.2461 3.27659 15.6198 3.13101 15.9701 4.48275Z" fill="black" fill-opacity="0.85"/>
  <path d="M20.6365 7.17672L9.48047 13.618C9.23438 13.7586 9.12891 13.9461 9.12891 14.1922L9.12891 27.0729C8.20851 27.2835 7.23047 26.9563 7.23047 25.3367L7.23047 14.1922C7.23047 12.8797 7.37109 12.6336 8.49609 11.9774L18.0586 6.46954C18.9232 5.97111 20.2911 5.82586 20.6365 7.17672Z" fill="black" fill-opacity="0.85"/>
  <path d="M12.1172 27.9266C12.1172 29.7899 13.4766 30.3406 14.9531 29.4852L24.1523 24.2117C25.2305 23.5906 25.6172 22.9461 25.6172 21.6336L25.6172 10.7352C25.6172 8.93048 24.2812 8.52032 22.8047 9.36407L13.6055 14.6727C12.4922 15.3172 12.1172 15.9734 12.1172 17.2508ZM14.1094 27.5516L14.1094 17.2859C14.1094 16.8406 14.2383 16.6063 14.625 16.3836L23.4961 11.1688C23.6016 11.1102 23.6953 11.1453 23.6953 11.2859L23.6953 21.5633C23.6953 21.95 23.5664 22.243 23.1797 22.4774L14.2969 27.6453C14.1914 27.7156 14.1094 27.6688 14.1094 27.5516Z" fill="black" fill-opacity="0.85"/>
 </g>
</svg>
