<?xml version="1.0" encoding="UTF-8"?>
<!--Generator: Apple Native CoreSVG 360-->
<!DOCTYPE svg
PUBLIC "-//W3C//DTD SVG 1.1//EN"
       "http://www.w3.org/Graphics/SVG/1.1/DTD/svg11.dtd">
<svg version="1.1" xmlns="http://www.w3.org/2000/svg" xmlns:xlink="http://www.w3.org/1999/xlink" viewBox="0 0 23.9648 20.3086">
 <g>
  <rect height="20.3086" opacity="0" width="23.9648" x="0" y="0"/>
  <path d="M11.3672 20.2852L22.6523 20.2852C23.1797 20.2852 23.6133 19.875 23.6133 19.3477C23.6133 18.8203 23.1797 18.3984 22.6523 18.3984L11.3672 18.3984C10.8281 18.3984 10.418 18.8203 10.418 19.3477C10.418 19.875 10.8281 20.2852 11.3672 20.2852Z" fill="black" fill-opacity="0.85"/>
  <path d="M11.3672 14.1562L22.6523 14.1562C23.1797 14.1562 23.6133 13.7461 23.6133 13.2188C23.6133 12.6797 23.1797 12.2695 22.6523 12.2695L11.3672 12.2695C10.8281 12.2695 10.418 12.6797 10.418 13.2188C10.418 13.7461 10.8281 14.1562 11.3672 14.1562Z" fill="black" fill-opacity="0.85"/>
  <path d="M2.03906 20.2852L5.87109 20.2852C7.16016 20.2852 7.91016 19.5469 7.91016 18.3047L7.91016 14.3672C7.91016 13.125 7.16016 12.375 5.87109 12.375L2.03906 12.375C0.75 12.375 0 13.125 0 14.3672L0 18.3047C0 19.5469 0.75 20.2852 2.03906 20.2852Z" fill="black" fill-opacity="0.85"/>
  <path d="M11.3672 8.02734L22.6523 8.02734C23.1797 8.02734 23.6133 7.60547 23.6133 7.07812C23.6133 6.55078 23.1797 6.14062 22.6523 6.14062L11.3672 6.14062C10.8281 6.14062 10.418 6.55078 10.418 7.07812C10.418 7.60547 10.8281 8.02734 11.3672 8.02734Z" fill="black" fill-opacity="0.85"/>
  <path d="M11.3672 1.88672L22.6523 1.88672C23.1797 1.88672 23.6133 1.47656 23.6133 0.949219C23.6133 0.421875 23.1797 0 22.6523 0L11.3672 0C10.8281 0 10.418 0.421875 10.418 0.949219C10.418 1.47656 10.8281 1.88672 11.3672 1.88672Z" fill="black" fill-opacity="0.85"/>
  <path d="M2.03906 7.91016L5.87109 7.91016C7.16016 7.91016 7.91016 7.17188 7.91016 5.92969L7.91016 1.99219C7.91016 0.75 7.16016 0 5.87109 0L2.03906 0C0.75 0 0 0.75 0 1.99219L0 5.92969C0 7.17188 0.75 7.91016 2.03906 7.91016Z" fill="black" fill-opacity="0.85"/>
 </g>
</svg>
