<?xml version="1.0" encoding="UTF-8"?>
<!--Generator: Apple Native CoreSVG 360-->
<!DOCTYPE svg
PUBLIC "-//W3C//DTD SVG 1.1//EN"
       "http://www.w3.org/Graphics/SVG/1.1/DTD/svg11.dtd">
<svg version="1.1" xmlns="http://www.w3.org/2000/svg" xmlns:xlink="http://www.w3.org/1999/xlink" viewBox="0 0 23.4727 26.7348">
 <g>
  <rect height="26.7348" opacity="0" width="23.4727" x="0" y="0"/>
  <path d="M13.4648 1.72481L13.4648 4.17824L11.5547 5.27998L11.5547 2.36934C11.5547 2.25215 11.4727 2.19356 11.3555 2.26387L2.42578 7.42012C2.05078 7.64278 1.91016 7.80684 1.91016 8.31075L1.91016 18.5764C1.91016 18.6936 1.98047 18.7287 2.08594 18.6701L4.67578 17.1772L4.67578 19.4411L2.82422 20.51C1.18359 21.4592 0 20.8264 0 18.8576L0 8.24043C0 7.02168 0.398438 6.33028 1.44141 5.7209L10.8281 0.295121C11.9883-0.361129 13.4648 0.0607459 13.4648 1.72481Z" fill="black" fill-opacity="0.85"/>
  <path d="M18.1406 4.42012L18.1406 7.28659L16.2305 8.39071L16.2305 5.06465C16.2305 4.95918 16.1484 4.88887 16.0312 4.95918L7.10156 10.1154C6.72656 10.3381 6.58594 10.5022 6.58594 11.0061L6.58594 21.2717C6.58594 21.3889 6.65625 21.424 6.76172 21.3654L9.65625 19.6968L9.65625 21.9695L7.5 23.217C5.84766 24.1545 4.67578 23.5217 4.67578 21.5647L4.67578 10.9357C4.67578 9.72871 5.0625 9.03731 6.11719 8.41621L15.5039 3.00215C16.6641 2.33418 18.1406 2.76778 18.1406 4.42012Z" fill="black" fill-opacity="0.85"/>
  <path d="M9.65625 13.8654L9.65625 24.4943C9.65625 26.4514 10.8398 27.0959 12.4805 26.1467L21.6562 20.8381C22.8047 20.1818 23.1211 19.5139 23.1211 18.2717L23.1211 7.34981C23.1211 5.69746 21.6445 5.27559 20.4844 5.93184L11.0977 11.3576C10.0547 11.967 9.65625 12.6584 9.65625 13.8654ZM12.082 13.0451L21.0117 7.88887C21.1289 7.83028 21.2109 7.88887 21.2109 7.99434L21.2109 18.2365C21.2109 18.7053 21.1172 18.8928 20.7188 19.1272L11.7422 24.3068C11.6367 24.3654 11.5664 24.3186 11.5664 24.2014L11.5664 13.9357C11.5664 13.4318 11.707 13.2678 12.082 13.0451Z" fill="black" fill-opacity="0.85"/>
 </g>
</svg>
