<?xml version="1.0" encoding="UTF-8"?>
<!--Generator: Apple Native CoreSVG 360-->
<!DOCTYPE svg
PUBLIC "-//W3C//DTD SVG 1.1//EN"
       "http://www.w3.org/Graphics/SVG/1.1/DTD/svg11.dtd">
<svg version="1.1" xmlns="http://www.w3.org/2000/svg" xmlns:xlink="http://www.w3.org/1999/xlink" viewBox="0 0 29.7305 30.457">
 <g>
  <rect height="30.457" opacity="0" width="29.7305" x="0" y="0"/>
  <path d="M26.6602 20.9414C26.6602 21.5742 26.2969 22.0078 25.3477 22.5586L16.1836 27.8789C15.6094 28.207 15.1758 28.3594 14.6836 28.3594C14.2031 28.3594 13.7578 28.207 13.1953 27.8789L4.03125 22.5586C3.08203 22.0078 2.71875 21.5742 2.71875 20.9414C2.71875 20.5164 2.87674 20.183 3.25806 19.8473L14.0977 26.1445C14.2969 26.25 14.5078 26.3203 14.6836 26.3203C14.8711 26.3203 15.082 26.25 15.2812 26.1445L26.1208 19.8473C26.5022 20.183 26.6602 20.5164 26.6602 20.9414Z" fill="black" fill-opacity="0.85"/>
  <path d="M26.6602 15.5391C26.6602 16.1836 26.2969 16.6055 25.3477 17.1562L16.1836 22.4883C15.6094 22.8164 15.1758 22.9688 14.6836 22.9688C14.2031 22.9688 13.7578 22.8164 13.1953 22.4883L4.03125 17.1562C3.08203 16.6055 2.71875 16.1836 2.71875 15.5391C2.71875 15.1127 2.87772 14.7838 3.26158 14.447L14.0977 20.7422C14.2969 20.8477 14.5078 20.918 14.6836 20.918C14.8711 20.918 15.082 20.8477 15.2812 20.7422L26.1173 14.447C26.5012 14.7838 26.6602 15.1127 26.6602 15.5391Z" fill="black" fill-opacity="0.85"/>
  <path d="M4.03125 11.5312L13.1953 16.8516C13.7578 17.1797 14.2031 17.332 14.6836 17.332C15.1758 17.332 15.6094 17.1797 16.1836 16.8516L25.3477 11.5312C26.2969 10.9805 26.6602 10.5469 26.6602 9.90234C26.6602 9.26953 26.2969 8.83594 25.3477 8.28516L16.1836 2.96484C15.6094 2.63672 15.1758 2.48438 14.6836 2.48438C14.2031 2.48438 13.7578 2.63672 13.1953 2.96484L4.03125 8.28516C3.08203 8.83594 2.71875 9.26953 2.71875 9.90234C2.71875 10.5469 3.08203 10.9805 4.03125 11.5312ZM5.25 10.0195C5.13281 9.96094 5.13281 9.85547 5.25 9.79688L14.168 4.6875C14.3672 4.58203 14.5195 4.52344 14.6836 4.52344C14.8594 4.52344 15.0117 4.58203 15.2109 4.6875L24.1289 9.79688C24.2461 9.85547 24.2461 9.96094 24.1289 10.0195L15.2109 15.1289C15.0117 15.2344 14.8711 15.293 14.6836 15.293C14.5078 15.293 14.3672 15.2344 14.168 15.1289Z" fill="black" fill-opacity="0.85"/>
 </g>
</svg>
