<?xml version="1.0" encoding="UTF-8"?>
<!--Generator: Apple Native CoreSVG 360-->
<!DOCTYPE svg
PUBLIC "-//W3C//DTD SVG 1.1//EN"
       "http://www.w3.org/Graphics/SVG/1.1/DTD/svg11.dtd">
<svg version="1.1" xmlns="http://www.w3.org/2000/svg" xmlns:xlink="http://www.w3.org/1999/xlink" viewBox="0 0 21.1523 30.4102">
 <g>
  <rect height="30.4102" opacity="0" width="21.1523" x="0" y="0"/>
  <path d="M20.8008 13.3359L20.8008 22.3594C20.8008 25.5117 19.043 27.2578 15.8906 27.2578L4.89844 27.2578C1.74609 27.2578 0 25.5117 0 22.3594L0 13.3359C0 10.1953 1.74609 8.4375 4.89844 8.4375L7.26563 8.4375L7.26563 10.3242L4.89844 10.3242C2.97656 10.3242 1.88672 11.4141 1.88672 13.3359L1.88672 22.3594C1.88672 24.293 2.97656 25.3711 4.89844 25.3711L15.8906 25.3711C17.8242 25.3711 18.9141 24.293 18.9141 22.3594L18.9141 13.3359C18.9141 11.4141 17.8242 10.3242 15.8906 10.3242L13.5352 10.3242L13.5352 8.4375L15.8906 8.4375C19.043 8.4375 20.8008 10.1953 20.8008 13.3359Z" fill="black" fill-opacity="0.85"/>
  <path d="M10.4062 2.20312C9.90234 2.20312 9.46875 2.61328 9.46875 3.10547L9.46875 15.0352L9.60938 18.1875C9.63281 18.6211 9.97266 18.9727 10.4062 18.9727C10.8281 18.9727 11.168 18.6211 11.1914 18.1875L11.332 15.0352L11.332 3.10547C11.332 2.61328 10.9102 2.20312 10.4062 2.20312ZM6.42188 13.875C5.92969 13.875 5.57812 14.2266 5.57812 14.6953C5.57812 14.9531 5.68359 15.1406 5.85938 15.3164L9.72656 19.043C9.96094 19.2773 10.1602 19.3594 10.4062 19.3594C10.6406 19.3594 10.8398 19.2773 11.0742 19.043L14.9414 15.3164C15.1172 15.1406 15.2227 14.9531 15.2227 14.6953C15.2227 14.2266 14.8477 13.875 14.3672 13.875C14.1328 13.875 13.8984 13.9688 13.7344 14.1562L11.918 16.0898L10.4062 17.707L8.88281 16.0898L7.06641 14.1562C6.90234 13.9688 6.65625 13.875 6.42188 13.875Z" fill="black" fill-opacity="0.85"/>
 </g>
</svg>
