<?xml version="1.0" encoding="UTF-8"?>
<!--Generator: Apple Native CoreSVG 360-->
<!DOCTYPE svg
PUBLIC "-//W3C//DTD SVG 1.1//EN"
       "http://www.w3.org/Graphics/SVG/1.1/DTD/svg11.dtd">
<svg version="1.1" xmlns="http://www.w3.org/2000/svg" xmlns:xlink="http://www.w3.org/1999/xlink" viewBox="0 0 21.1523 32.1914">
 <g>
  <rect height="32.1914" opacity="0" width="21.1523" x="0" y="0"/>
  <path d="M20.8008 14.2266L20.8008 23.25C20.8008 26.4023 19.043 28.1484 15.8906 28.1484L4.89844 28.1484C1.74609 28.1484 0 26.4023 0 23.25L0 14.2266C0 11.0859 1.74609 9.32812 4.89844 9.32812L7.26563 9.32813L7.26563 11.2148L4.89844 11.2148C2.97656 11.2148 1.88672 12.3047 1.88672 14.2266L1.88672 23.25C1.88672 25.1836 2.97656 26.2617 4.89844 26.2617L15.8906 26.2617C17.8242 26.2617 18.9141 25.1836 18.9141 23.25L18.9141 14.2266C18.9141 12.3047 17.8242 11.2148 15.8906 11.2148L13.5234 11.2148L13.5234 9.32813L15.8906 9.32812C19.043 9.32812 20.8008 11.0859 20.8008 14.2266Z" fill="black" fill-opacity="0.85"/>
  <path d="M6.42188 7.30078C6.64453 7.30078 6.90234 7.20703 7.06641 7.01953L8.88281 5.08594L10.3945 3.48047L11.918 5.08594L13.7227 7.01953C13.8867 7.20703 14.1328 7.30078 14.3555 7.30078C14.8477 7.30078 15.2109 6.96094 15.2109 6.48047C15.2109 6.22266 15.1172 6.03516 14.9414 5.85938L11.0742 2.13281C10.8398 1.89844 10.6406 1.82812 10.3945 1.82812C10.1602 1.82812 9.96094 1.89844 9.71484 2.13281L5.85938 5.85938C5.68359 6.03516 5.57812 6.22266 5.57812 6.48047C5.57812 6.96094 5.92969 7.30078 6.42188 7.30078ZM10.3945 18.9727C10.8984 18.9727 11.332 18.5625 11.332 18.0703L11.332 6.15234L11.1914 2.98828C11.168 2.56641 10.8281 2.20312 10.3945 2.20312C9.97266 2.20312 9.63281 2.56641 9.60938 2.98828L9.46875 6.15234L9.46875 18.0703C9.46875 18.5625 9.89062 18.9727 10.3945 18.9727Z" fill="black" fill-opacity="0.85"/>
 </g>
</svg>
