<?xml version="1.0" encoding="UTF-8"?>
<!--Generator: Apple Native CoreSVG 360-->
<!DOCTYPE svg
PUBLIC "-//W3C//DTD SVG 1.1//EN"
       "http://www.w3.org/Graphics/SVG/1.1/DTD/svg11.dtd">
<svg version="1.1" xmlns="http://www.w3.org/2000/svg" xmlns:xlink="http://www.w3.org/1999/xlink" viewBox="0 0 21.9258 21.5977">
 <g>
  <rect height="21.5977" opacity="0" width="21.9258" x="0" y="0"/>
  <path d="M20.1562 3.41016L21.5742 3.41016L21.5742 3.38672C21.5742 1.25391 20.3672 0.0234375 18.2109 0.0234375L18.1875 0.0234375L18.1875 1.44141L18.2109 1.44141C19.4414 1.44141 20.1562 2.17969 20.1562 3.38672ZM3.375 21.5977L3.38672 21.5977L3.38672 20.1797L3.375 20.1797C2.13281 20.1797 1.41797 19.4414 1.41797 18.2227L1.41797 18.2109L0 18.2109L0 18.2227C0 20.3672 1.20703 21.5977 3.375 21.5977ZM0.0117188 15.457L1.42969 15.457L1.42969 12.1875L0.0117188 12.1875ZM6.15234 21.5977L9.41016 21.5977L9.41016 20.1797L6.15234 20.1797ZM0 9.43359L1.41797 9.43359L1.41797 6.15234L0 6.15234ZM12.1758 21.5977L15.4453 21.5977L15.4453 20.1797L12.1758 20.1797ZM0 3.41016L1.41797 3.41016L1.41797 3.38672C1.41797 2.17969 2.13281 1.44141 3.375 1.44141L3.38672 1.44141L3.38672 0.0234375L3.375 0.0234375C1.20703 0.0234375 0 1.25391 0 3.38672ZM18.1875 21.5977L18.2109 21.5977C20.3672 21.5977 21.5742 20.3672 21.5742 18.2227L21.5742 18.2109L20.1562 18.2109L20.1562 18.2227C20.1562 19.4414 19.4414 20.1797 18.2109 20.1797L18.1875 20.1797ZM6.15234 1.44141L9.41016 1.44141L9.41016 0.0234375L6.15234 0.0234375ZM20.1445 15.457L21.5625 15.457L21.5625 12.1875L20.1445 12.1875ZM12.1758 1.44141L15.4453 1.44141L15.4453 0.0234375L12.1758 0.0234375ZM20.1562 9.43359L21.5742 9.43359L21.5742 6.15234L20.1562 6.15234Z" fill="black" fill-opacity="0.85"/>
 </g>
</svg>
