<?xml version="1.0" encoding="UTF-8"?>
<!--Generator: Apple Native CoreSVG 360-->
<!DOCTYPE svg
PUBLIC "-//W3C//DTD SVG 1.1//EN"
       "http://www.w3.org/Graphics/SVG/1.1/DTD/svg11.dtd">
<svg version="1.1" xmlns="http://www.w3.org/2000/svg" xmlns:xlink="http://www.w3.org/1999/xlink" viewBox="0 0 24.0938 23.7305">
 <g>
  <rect height="23.7305" opacity="0" width="24.0938" x="0" y="0"/>
  <path d="M6.94379 20.3277L3.53906 23.7305L2.01562 23.7305L5.60627 20.1418C5.99635 20.2592 6.44235 20.3212 6.94379 20.3277ZM9.08203 23.7305L7.55859 23.7305L10.957 20.332L12.4805 20.332ZM14.6133 23.7305L13.0898 23.7305L16.492 20.332L16.6406 20.332C17.2504 20.332 17.7846 20.2565 18.2429 20.1055ZM23.7422 20.1445L20.1445 23.7305L18.6211 23.7305L23.7422 18.6211ZM3.58999 18.1483L0 21.7383L0 20.2148L3.40217 16.8127C3.40774 17.3134 3.47017 17.7589 3.58999 18.1483ZM23.7422 14.6133L20.0994 18.2514C20.247 17.8062 20.3203 17.2883 20.3203 16.6992L20.3203 16.508L23.7422 13.0898ZM3.39844 12.8086L0 16.207L0 14.6836L3.39844 11.2852ZM23.7422 9.07031L20.3203 12.4922L20.3203 10.9688L23.7422 7.54688ZM3.39844 7.04297L3.39844 7.27734L0 10.6758L0 9.15234L3.60063 5.55171C3.46492 5.98113 3.39844 6.47913 3.39844 7.04297ZM23.7422 3.53906L20.3176 6.96162C20.3138 6.45912 20.2538 6.01129 20.1361 5.61975L23.7422 2.01562ZM0 5.14453L0 3.62109L3.59766 0.0117188L5.12109 0.0117188ZM7.26562 3.41016L7.07812 3.41016C6.49277 3.41016 5.97703 3.4791 5.53314 3.61921L9.14062 0.0117188L10.6641 0.0117188ZM18.1323 3.60594C17.7438 3.48695 17.2995 3.42326 16.7996 3.41526L20.2031 0.0117188L21.7266 0.0117188ZM12.7969 3.41016L11.2734 3.41016L14.6719 0.0117188L16.1953 0.0117188Z" fill="black" fill-opacity="0.85"/>
  <path d="M7.07812 20.332L16.6406 20.332C19.0898 20.332 20.3203 19.1133 20.3203 16.6992L20.3203 7.04297C20.3203 4.62891 19.0898 3.41016 16.6406 3.41016L7.07812 3.41016C4.62891 3.41016 3.39844 4.61719 3.39844 7.04297L3.39844 16.6992C3.39844 19.1133 4.62891 20.332 7.07812 20.332ZM7.11328 18.4453C5.94141 18.4453 5.28516 17.8125 5.28516 16.5938L5.28516 7.13672C5.28516 5.91797 5.94141 5.29688 7.11328 5.29688L16.6172 5.29688C17.7656 5.29688 18.4336 5.91797 18.4336 7.13672L18.4336 16.5938C18.4336 17.8125 17.7656 18.4453 16.6172 18.4453Z" fill="black" fill-opacity="0.85"/>
 </g>
</svg>
