<?xml version="1.0" encoding="UTF-8"?>
<!--Generator: Apple Native CoreSVG 360-->
<!DOCTYPE svg
PUBLIC "-//W3C//DTD SVG 1.1//EN"
       "http://www.w3.org/Graphics/SVG/1.1/DTD/svg11.dtd">
<svg version="1.1" xmlns="http://www.w3.org/2000/svg" xmlns:xlink="http://www.w3.org/1999/xlink" viewBox="0 0 21.9258 21.5977">
 <g>
  <rect height="21.5977" opacity="0" width="21.9258" x="0" y="0"/>
  <path d="M0 6.19922L1.88672 6.19922L1.88672 3.75C1.88672 2.53125 2.53125 1.91016 3.70312 1.91016L6.12891 1.91016L6.12891 0.0234375L3.67969 0.0234375C1.23047 0.0234375 0 1.23047 0 3.65625ZM7.73438 1.91016L13.8398 1.91016L13.8398 0.0234375L7.73438 0.0234375ZM19.6875 6.19922L21.5742 6.19922L21.5742 3.65625C21.5742 1.24219 20.3438 0.0234375 17.8945 0.0234375L15.4453 0.0234375L15.4453 1.91016L17.8711 1.91016C19.0312 1.91016 19.6875 2.53125 19.6875 3.75ZM19.6875 13.8164L21.5742 13.8164L21.5742 7.80469L19.6875 7.80469ZM15.4453 21.5977L17.8945 21.5977C20.3438 21.5977 21.5742 20.3789 21.5742 17.9648L21.5742 15.4219L19.6875 15.4219L19.6875 17.8711C19.6875 19.0898 19.0312 19.7109 17.8711 19.7109L15.4453 19.7109ZM7.73438 21.5977L13.8398 21.5977L13.8398 19.7109L7.73438 19.7109ZM3.67969 21.5977L6.12891 21.5977L6.12891 19.7109L3.70312 19.7109C2.53125 19.7109 1.88672 19.0898 1.88672 17.8711L1.88672 15.4219L0 15.4219L0 17.9648C0 20.3906 1.23047 21.5977 3.67969 21.5977ZM0 13.8164L1.88672 13.8164L1.88672 7.80469L0 7.80469Z" fill="black" fill-opacity="0.85"/>
 </g>
</svg>
