<?xml version="1.0" encoding="UTF-8"?>
<!--Generator: Apple Native CoreSVG 360-->
<!DOCTYPE svg
PUBLIC "-//W3C//DTD SVG 1.1//EN"
       "http://www.w3.org/Graphics/SVG/1.1/DTD/svg11.dtd">
<svg version="1.1" xmlns="http://www.w3.org/2000/svg" xmlns:xlink="http://www.w3.org/1999/xlink" viewBox="0 0 24.3047 26.543">
 <g>
  <rect height="26.543" opacity="0" width="24.3047" x="0" y="0"/>
  <path d="M22.6289 17.4961C23.5781 18.0469 23.9531 18.4805 23.9531 19.1133C23.9531 19.7578 23.5781 20.1914 22.6289 20.7422L13.4648 26.0625C12.9023 26.3906 12.4453 26.543 11.9766 26.543C11.4961 26.543 11.0508 26.3906 10.4883 26.0625L1.3125 20.7422C0.363281 20.1914 0 19.7578 0 19.1133C0 18.4805 0.363281 18.0469 1.3125 17.4961L3.16986 16.4192L5.09597 17.5384L2.53125 19.0078C2.48438 19.0312 2.44922 19.0664 2.44922 19.1133C2.44922 19.1719 2.48438 19.207 2.53125 19.2305L11.4492 24.3398C11.6484 24.4453 11.8125 24.5039 11.9766 24.5039C12.1406 24.5039 12.3047 24.4453 12.4922 24.3398L21.4102 19.2305C21.4688 19.207 21.5039 19.1719 21.5039 19.1133C21.5039 19.0664 21.4688 19.0312 21.4102 19.0078L18.8479 17.5398L20.7739 16.4192Z" fill="black" fill-opacity="0.85"/>
  <path d="M22.6289 12.0938C23.5781 12.6562 23.9531 13.0781 23.9531 13.7227C23.9531 14.3672 23.5781 14.7891 22.6289 15.3398L13.4648 20.6719C12.9023 21 12.4453 21.1523 11.9766 21.1523C11.4961 21.1523 11.0508 21 10.4883 20.6719L1.3125 15.3398C0.363281 14.7891 0 14.3672 0 13.7227C0 13.0781 0.363281 12.6562 1.3125 12.0938L3.48518 10.834L5.41859 11.955L2.53125 13.6055C2.48438 13.6289 2.44922 13.6641 2.44922 13.7227C2.44922 13.7812 2.48438 13.8047 2.53125 13.8398L11.4492 18.9375C11.6484 19.043 11.8125 19.1016 11.9766 19.1016C12.1406 19.1016 12.3047 19.043 12.4922 18.9375L21.4102 13.8398C21.4688 13.8047 21.5039 13.7812 21.5039 13.7227C21.5039 13.6641 21.4688 13.6289 21.4102 13.6055L18.5255 11.9565L20.459 10.834Z" fill="black" fill-opacity="0.85"/>
  <path d="M11.9766 15.375C12.4453 15.375 12.9023 15.2227 13.4648 14.8945L22.6289 9.57422C23.5781 9.02344 23.9531 8.58984 23.9531 7.94531C23.9531 7.3125 23.5781 6.87891 22.6289 6.32812L13.4648 1.00781C12.9023 0.679688 12.4453 0.527344 11.9766 0.527344C11.4961 0.527344 11.0508 0.679688 10.4883 1.00781L1.3125 6.32812C0.363281 6.87891 0 7.3125 0 7.94531C0 8.58984 0.363281 9.02344 1.3125 9.57422L10.4883 14.8945C11.0508 15.2227 11.4961 15.375 11.9766 15.375ZM11.9766 13.3359C11.8125 13.3359 11.6484 13.2773 11.4492 13.1719L2.53125 8.0625C2.48438 8.03906 2.44922 8.00391 2.44922 7.94531C2.44922 7.89844 2.48438 7.86328 2.53125 7.83984L11.4492 2.73047C11.6484 2.625 11.8125 2.56641 11.9766 2.56641C12.1406 2.56641 12.3047 2.625 12.4922 2.73047L21.4102 7.83984C21.4688 7.86328 21.5039 7.89844 21.5039 7.94531C21.5039 8.00391 21.4688 8.03906 21.4102 8.0625L12.4922 13.1719C12.3047 13.2773 12.1406 13.3359 11.9766 13.3359Z" fill="black" fill-opacity="0.85"/>
 </g>
</svg>
