<?xml version="1.0" encoding="UTF-8"?>
<!--Generator: Apple Native CoreSVG 360-->
<!DOCTYPE svg
PUBLIC "-//W3C//DTD SVG 1.1//EN"
       "http://www.w3.org/Graphics/SVG/1.1/DTD/svg11.dtd">
<svg version="1.1" xmlns="http://www.w3.org/2000/svg" xmlns:xlink="http://www.w3.org/1999/xlink" viewBox="0 0 31.8867 30.1289">
 <g>
  <rect height="30.1289" opacity="0" width="31.8867" x="0" y="0"/>
  <path d="M10.5 25.9336C10.5 26.3906 10.125 26.7656 9.66797 26.7656C9.21094 26.7656 8.83594 26.3906 8.83594 25.9336C8.83594 25.4766 9.21094 25.1016 9.66797 25.1016C10.125 25.1016 10.5 25.4766 10.5 25.9336ZM9.29297 23.7539C9.29297 24.2109 8.91797 24.5859 8.46094 24.5859C8.00391 24.5859 7.62891 24.2109 7.62891 23.7539C7.62891 23.2969 8.00391 22.9219 8.46094 22.9219C8.91797 22.9219 9.29297 23.2969 9.29297 23.7539ZM8.07422 21.5742C8.07422 22.0312 7.69922 22.4062 7.24219 22.4062C6.78516 22.4062 6.41016 22.0312 6.41016 21.5742C6.41016 21.1172 6.78516 20.7422 7.24219 20.7422C7.69922 20.7422 8.07422 21.1172 8.07422 21.5742ZM6.84375 19.418C6.84375 19.875 6.46875 20.25 6.01172 20.25C5.55469 20.25 5.17969 19.875 5.17969 19.418C5.17969 18.9492 5.55469 18.5859 6.01172 18.5859C6.46875 18.5859 6.84375 18.9492 6.84375 19.418ZM5.63672 17.2266C5.63672 17.6836 5.26172 18.0586 4.80469 18.0586C4.33594 18.0586 3.97266 17.6836 3.97266 17.2266C3.97266 16.7695 4.33594 16.3945 4.80469 16.3945C5.26172 16.3945 5.63672 16.7695 5.63672 17.2266ZM4.40625 15.0586C4.40625 15.5156 4.03125 15.8906 3.57422 15.8906C3.11719 15.8906 2.74219 15.5156 2.74219 15.0586C2.74219 14.6016 3.11719 14.2266 3.57422 14.2266C4.03125 14.2266 4.40625 14.6016 4.40625 15.0586ZM5.63672 12.8906C5.63672 13.3477 5.26172 13.7227 4.80469 13.7227C4.33594 13.7227 3.97266 13.3477 3.97266 12.8906C3.97266 12.4219 4.33594 12.0469 4.80469 12.0469C5.26172 12.0469 5.63672 12.4219 5.63672 12.8906ZM6.84375 10.6992C6.84375 11.1562 6.46875 11.5312 6.01172 11.5312C5.55469 11.5312 5.17969 11.1562 5.17969 10.6992C5.17969 10.2422 5.55469 9.86719 6.01172 9.86719C6.46875 9.86719 6.84375 10.2422 6.84375 10.6992ZM8.07422 8.54297C8.07422 9 7.69922 9.375 7.24219 9.375C6.78516 9.375 6.41016 9 6.41016 8.54297C6.41016 8.08594 6.78516 7.71094 7.24219 7.71094C7.69922 7.71094 8.07422 8.08594 8.07422 8.54297ZM9.29297 6.35156C9.29297 6.82031 8.91797 7.18359 8.46094 7.18359C8.00391 7.18359 7.62891 6.82031 7.62891 6.35156C7.62891 5.89453 8.00391 5.51953 8.46094 5.51953C8.91797 5.51953 9.29297 5.89453 9.29297 6.35156ZM10.5 4.18359C10.5 4.64062 10.125 5.01562 9.66797 5.01562C9.21094 5.01562 8.83594 4.64062 8.83594 4.18359C8.83594 3.72656 9.21094 3.35156 9.66797 3.35156C10.125 3.35156 10.5 3.72656 10.5 4.18359Z" fill="black" fill-opacity="0.85"/>
  <path d="M16.6272 3.61618L10.2305 14.6133C10.125 14.7891 10.0781 14.918 10.0781 15.0586C10.0781 15.1758 10.125 15.3164 10.2305 15.5039L16.6272 26.501C16.2981 26.875 15.972 27.0352 15.5508 27.0352C14.9062 27.0352 14.4844 26.6602 13.9219 25.7227L8.58984 16.5469C8.26172 15.9844 8.10938 15.5273 8.10938 15.0586C8.10938 14.5781 8.25 14.1328 8.57812 13.5703L13.9219 4.39453C14.4844 3.45703 14.9062 3.08203 15.5508 3.08203C15.972 3.08203 16.2981 3.24216 16.6272 3.61618Z" fill="black" fill-opacity="0.85"/>
  <path d="M21.293 27.0352C21.9375 27.0352 22.3594 26.6602 22.9219 25.7227L28.2539 16.5469C28.582 15.9844 28.7344 15.5273 28.7344 15.0586C28.7344 14.5781 28.582 14.1328 28.2539 13.5703L22.9219 4.39453C22.3594 3.45703 21.9375 3.08203 21.293 3.08203C20.6484 3.08203 20.2266 3.45703 19.6758 4.39453L14.332 13.5703C14.0039 14.1328 13.8516 14.5781 13.8516 15.0586C13.8516 15.5273 14.0039 15.9844 14.332 16.5469L19.6758 25.7227C20.2266 26.6602 20.6484 27.0352 21.293 27.0352ZM21.1406 24.3984L15.9844 15.5039C15.8672 15.3164 15.832 15.1875 15.832 15.0586C15.832 14.9297 15.8672 14.8008 15.9727 14.6133L21.1406 5.71875C21.2109 5.58984 21.3867 5.58984 21.4453 5.71875L26.6016 14.6133C26.7188 14.8008 26.7656 14.9297 26.7656 15.0586C26.7656 15.1875 26.7188 15.3164 26.6016 15.5039L21.4453 24.3984C21.375 24.5273 21.2109 24.5273 21.1406 24.3984Z" fill="black" fill-opacity="0.85"/>
 </g>
</svg>
