<?xml version="1.0" encoding="UTF-8"?>
<!--Generator: Apple Native CoreSVG 360-->
<!DOCTYPE svg
PUBLIC "-//W3C//DTD SVG 1.1//EN"
       "http://www.w3.org/Graphics/SVG/1.1/DTD/svg11.dtd">
<svg version="1.1" xmlns="http://www.w3.org/2000/svg" xmlns:xlink="http://www.w3.org/1999/xlink" viewBox="0 0 22.7344 21.1992">
 <g>
  <rect height="21.1992" opacity="0" width="22.7344" x="0" y="0"/>
  <path d="M4.44141 21.1992C5.54297 21.1992 6.11719 20.4258 6.43359 19.418L11.7656 2.25L21.2578 2.25C21.9258 2.25 22.3828 1.83984 22.3828 1.19531C22.3828 0.574219 21.9258 0.164062 21.2578 0.164062L11.7422 0.164062C10.5469 0.164062 10.0078 0.609375 9.69141 1.64062L4.57031 18.457L4.37109 18.457L2.16797 10.6875C1.98047 10.043 1.62891 9.73828 1.07812 9.73828C0.457031 9.73828 0 10.1836 0 10.7578C0 10.9922 0.0585938 11.2031 0.105469 11.3789L2.58984 19.5469C2.88281 20.4961 3.41016 21.1992 4.44141 21.1992Z" fill="black" fill-opacity="0.85"/>
 </g>
</svg>
