<?xml version="1.0" encoding="UTF-8"?>
<!--Generator: Apple Native CoreSVG 360-->
<!DOCTYPE svg
PUBLIC "-//W3C//DTD SVG 1.1//EN"
       "http://www.w3.org/Graphics/SVG/1.1/DTD/svg11.dtd">
<svg version="1.1" xmlns="http://www.w3.org/2000/svg" xmlns:xlink="http://www.w3.org/1999/xlink" viewBox="0 0 23.332 22.5586">
 <g>
  <rect height="22.5586" opacity="0" width="23.332" x="0" y="0"/>
  <path d="M18.3633 22.5117L20.9531 22.5117C22.2305 22.5117 22.9805 21.7617 22.9805 20.4375L22.9805 17.9414C22.9805 16.6172 22.2305 15.8672 20.9531 15.8672L18.3633 15.8672C17.0859 15.8672 16.3359 16.6172 16.3359 17.9414L16.3359 20.4375C16.3359 21.7617 17.0859 22.5117 18.3633 22.5117ZM18.5859 20.8945C18.1641 20.8945 17.9414 20.6719 17.9414 20.2383L17.9414 18.1406C17.9414 17.6953 18.1641 17.4727 18.5859 17.4727L20.7305 17.4727C21.1406 17.4727 21.3633 17.6953 21.3633 18.1406L21.3633 20.2383C21.3633 20.6719 21.1406 20.8945 20.7305 20.8945Z" fill="black" fill-opacity="0.85"/>
  <path d="M10.1836 22.5117L12.7852 22.5117C14.0625 22.5117 14.8008 21.7617 14.8008 20.4375L14.8008 17.9414C14.8008 16.6172 14.0625 15.8672 12.7852 15.8672L10.1836 15.8672C8.90625 15.8672 8.16797 16.6172 8.16797 17.9414L8.16797 20.4375C8.16797 21.7617 8.90625 22.5117 10.1836 22.5117ZM10.4062 20.8945C9.98438 20.8945 9.77344 20.6719 9.77344 20.2383L9.77344 18.1406C9.77344 17.6953 9.98438 17.4727 10.4062 17.4727L12.5625 17.4727C12.9727 17.4727 13.1953 17.6953 13.1953 18.1406L13.1953 20.2383C13.1953 20.6719 12.9727 20.8945 12.5625 20.8945Z" fill="black" fill-opacity="0.85"/>
  <path d="M2.02734 22.5117L4.61719 22.5117C5.89453 22.5117 6.64453 21.7617 6.64453 20.4375L6.64453 17.9414C6.64453 16.6172 5.89453 15.8672 4.61719 15.8672L2.02734 15.8672C0.75 15.8672 0 16.6172 0 17.9414L0 20.4375C0 21.7617 0.75 22.5117 2.02734 22.5117ZM2.25 20.8945C1.82812 20.8945 1.61719 20.6719 1.61719 20.2383L1.61719 18.1406C1.61719 17.6953 1.82812 17.4727 2.25 17.4727L4.39453 17.4727C4.80469 17.4727 5.03906 17.6953 5.03906 18.1406L5.03906 20.2383C5.03906 20.6719 4.80469 20.8945 4.39453 20.8945Z" fill="black" fill-opacity="0.85"/>
  <path d="M18.3633 14.5781L20.9531 14.5781C22.2305 14.5781 22.9805 13.8398 22.9805 12.5156L22.9805 10.0078C22.9805 8.68359 22.2305 7.93359 20.9531 7.93359L18.3633 7.93359C17.0859 7.93359 16.3359 8.68359 16.3359 10.0078L16.3359 12.5156C16.3359 13.8398 17.0859 14.5781 18.3633 14.5781ZM18.5859 12.9727C18.1641 12.9727 17.9414 12.75 17.9414 12.3047L17.9414 10.1953C17.9414 9.76172 18.1641 9.53906 18.5859 9.53906L20.7305 9.53906C21.1406 9.53906 21.3633 9.76172 21.3633 10.1953L21.3633 12.3047C21.3633 12.75 21.1406 12.9727 20.7305 12.9727Z" fill="black" fill-opacity="0.85"/>
  <path d="M10.1836 14.5781L12.7852 14.5781C14.0625 14.5781 14.8008 13.8398 14.8008 12.5156L14.8008 10.0078C14.8008 8.68359 14.0625 7.93359 12.7852 7.93359L10.1836 7.93359C8.90625 7.93359 8.16797 8.68359 8.16797 10.0078L8.16797 12.5156C8.16797 13.8398 8.90625 14.5781 10.1836 14.5781ZM10.4062 12.9727C9.98438 12.9727 9.77344 12.75 9.77344 12.3047L9.77344 10.1953C9.77344 9.76172 9.98438 9.53906 10.4062 9.53906L12.5625 9.53906C12.9727 9.53906 13.1953 9.76172 13.1953 10.1953L13.1953 12.3047C13.1953 12.75 12.9727 12.9727 12.5625 12.9727Z" fill="black" fill-opacity="0.85"/>
  <path d="M2.02734 14.5781L4.61719 14.5781C5.89453 14.5781 6.64453 13.8398 6.64453 12.5156L6.64453 10.0078C6.64453 8.68359 5.89453 7.93359 4.61719 7.93359L2.02734 7.93359C0.75 7.93359 0 8.68359 0 10.0078L0 12.5156C0 13.8398 0.75 14.5781 2.02734 14.5781ZM2.25 12.9727C1.82812 12.9727 1.61719 12.75 1.61719 12.3047L1.61719 10.1953C1.61719 9.76172 1.82812 9.53906 2.25 9.53906L4.39453 9.53906C4.80469 9.53906 5.03906 9.76172 5.03906 10.1953L5.03906 12.3047C5.03906 12.75 4.80469 12.9727 4.39453 12.9727Z" fill="black" fill-opacity="0.85"/>
  <path d="M18.3633 6.64453L20.9531 6.64453C22.2305 6.64453 22.9805 5.89453 22.9805 4.57031L22.9805 2.07422C22.9805 0.75 22.2305 0 20.9531 0L18.3633 0C17.0859 0 16.3359 0.75 16.3359 2.07422L16.3359 4.57031C16.3359 5.89453 17.0859 6.64453 18.3633 6.64453ZM18.5859 5.03906C18.1641 5.03906 17.9414 4.81641 17.9414 4.37109L17.9414 2.27344C17.9414 1.83984 18.1641 1.61719 18.5859 1.61719L20.7305 1.61719C21.1406 1.61719 21.3633 1.83984 21.3633 2.27344L21.3633 4.37109C21.3633 4.81641 21.1406 5.03906 20.7305 5.03906Z" fill="black" fill-opacity="0.85"/>
  <path d="M10.1836 6.64453L12.7734 6.64453C14.0508 6.64453 14.8008 5.89453 14.8008 4.57031L14.8008 2.07422C14.8008 0.75 14.0508 0 12.7734 0L10.1836 0C8.90625 0 8.15625 0.75 8.15625 2.07422L8.15625 4.57031C8.15625 5.89453 8.90625 6.64453 10.1836 6.64453Z" fill="black" fill-opacity="0.85"/>
  <path d="M2.02734 6.64453L4.61719 6.64453C5.89453 6.64453 6.64453 5.89453 6.64453 4.57031L6.64453 2.07422C6.64453 0.75 5.89453 0 4.61719 0L2.02734 0C0.75 0 0 0.75 0 2.07422L0 4.57031C0 5.89453 0.75 6.64453 2.02734 6.64453ZM2.25 5.03906C1.82812 5.03906 1.61719 4.81641 1.61719 4.37109L1.61719 2.27344C1.61719 1.83984 1.82812 1.61719 2.25 1.61719L4.39453 1.61719C4.80469 1.61719 5.03906 1.83984 5.03906 2.27344L5.03906 4.37109C5.03906 4.81641 4.80469 5.03906 4.39453 5.03906Z" fill="black" fill-opacity="0.85"/>
 </g>
</svg>
