<?xml version="1.0" encoding="UTF-8"?>
<!--Generator: Apple Native CoreSVG 360-->
<!DOCTYPE svg
PUBLIC "-//W3C//DTD SVG 1.1//EN"
       "http://www.w3.org/Graphics/SVG/1.1/DTD/svg11.dtd">
<svg version="1.1" xmlns="http://www.w3.org/2000/svg" xmlns:xlink="http://www.w3.org/1999/xlink" viewBox="0 0 28.459 27.9649">
 <g>
  <rect height="27.9649" opacity="0" width="28.459" x="0" y="0"/>
  <path d="M20.5677 4.05247L18.7529 5.86722L8.56934 5.86722C6.64746 5.86722 5.55762 6.95706 5.55762 8.87894L5.55762 19.8477C5.55762 21.7813 6.64746 22.8594 8.56934 22.8594L19.5381 22.8594C21.4717 22.8594 22.5498 21.7813 22.5498 19.8477L22.5498 9.75549L24.3727 7.92927C24.4165 8.23114 24.4365 8.5529 24.4365 8.89066L24.4365 19.8477C24.4365 23 22.6904 24.7461 19.5381 24.7461L8.56934 24.7461C5.42871 24.7461 3.6709 23 3.6709 19.8477L3.6709 8.89066C3.6709 5.73831 5.42871 3.9805 8.56934 3.9805L19.5381 3.9805C19.9008 3.9805 20.245 4.00378 20.5677 4.05247Z" fill="black" fill-opacity="0.85"/>
  <path d="M11.6162 17.1524L13.9014 16.1563L24.8467 5.22269L23.2412 3.64066L12.3076 14.5743L11.2529 16.7774C11.1592 16.9766 11.3936 17.2461 11.6162 17.1524ZM25.7139 4.36722L26.5576 3.50003C26.9561 3.07816 26.9561 2.51566 26.5576 2.12894L26.2881 1.84769C25.9248 1.48441 25.3506 1.53128 24.9639 1.90628L24.1084 2.75003Z" fill="black" fill-opacity="0.85"/>
 </g>
</svg>
