<?xml version="1.0" encoding="UTF-8"?>
<!--Generator: Apple Native CoreSVG 360-->
<!DOCTYPE svg
PUBLIC "-//W3C//DTD SVG 1.1//EN"
       "http://www.w3.org/Graphics/SVG/1.1/DTD/svg11.dtd">
<svg version="1.1" xmlns="http://www.w3.org/2000/svg" xmlns:xlink="http://www.w3.org/1999/xlink" viewBox="0 0 21.9258 21.5742">
 <g>
  <rect height="21.5742" opacity="0" width="21.9258" x="0" y="0"/>
  <path d="M3.67969 21.5742L17.8945 21.5742C20.3555 21.5742 21.5742 20.3672 21.5742 17.9531L21.5742 3.63281C21.5742 1.21875 20.3555 0 17.8945 0L3.67969 0C1.23047 0 0 1.21875 0 3.63281L0 17.9531C0 20.3672 1.23047 21.5742 3.67969 21.5742ZM3.70312 19.6875C2.53125 19.6875 1.88672 19.0664 1.88672 17.8477L1.88672 3.73828C1.88672 2.51953 2.53125 1.88672 3.70312 1.88672L17.8711 1.88672C19.0312 1.88672 19.6875 2.51953 19.6875 3.73828L19.6875 17.8477C19.6875 19.0664 19.0312 19.6875 17.8711 19.6875Z" fill="black" fill-opacity="0.85"/>
  <path d="M4.26562 5.07422L4.26562 7.93359C4.26562 8.66016 4.69922 9.09375 5.42578 9.09375L8.28516 9.09375C9.01172 9.09375 9.44531 8.66016 9.44531 7.93359L9.44531 5.07422C9.44531 4.34766 9.01172 3.91406 8.28516 3.91406L5.42578 3.91406C4.69922 3.91406 4.26562 4.34766 4.26562 5.07422Z" fill="black" fill-opacity="0.85"/>
  <path d="M4.96875 13.1367L16.5117 13.1367C16.9219 13.1367 17.2266 12.8203 17.2266 12.4102C17.2266 12.0117 16.9219 11.6953 16.5117 11.6953L4.96875 11.6953C4.53516 11.6953 4.23047 12.0117 4.23047 12.4102C4.23047 12.8203 4.53516 13.1367 4.96875 13.1367Z" fill="black" fill-opacity="0.85"/>
  <path d="M4.96875 17.1445L13.418 17.1445C13.8398 17.1445 14.1445 16.8281 14.1445 16.4297C14.1445 16.0195 13.8398 15.7031 13.418 15.7031L4.96875 15.7031C4.53516 15.7031 4.23047 16.0195 4.23047 16.4297C4.23047 16.8281 4.53516 17.1445 4.96875 17.1445Z" fill="black" fill-opacity="0.85"/>
 </g>
</svg>
