<?xml version="1.0" encoding="UTF-8"?>
<!--Generator: Apple Native CoreSVG 360-->
<!DOCTYPE svg
PUBLIC "-//W3C//DTD SVG 1.1//EN"
       "http://www.w3.org/Graphics/SVG/1.1/DTD/svg11.dtd">
<svg version="1.1" xmlns="http://www.w3.org/2000/svg" xmlns:xlink="http://www.w3.org/1999/xlink" viewBox="0 0 22.9219 22.6055">
 <g>
  <rect height="22.6055" opacity="0" width="22.9219" x="0" y="0"/>
  <path d="M0.9375 22.582C1.46484 22.582 1.88672 22.1484 1.88672 21.6328L1.88672 17.6836L5.98828 17.6836C6.65625 17.6836 7.14844 17.1914 7.14844 16.5234L7.14844 12.4219L11.25 12.4219C11.918 12.4219 12.4219 11.9297 12.4219 11.2617L12.4219 7.16016L16.5117 7.16016C17.1914 7.16016 17.6836 6.66797 17.6836 6L17.6836 1.88672L21.6211 1.88672C22.1484 1.88672 22.5703 1.46484 22.5703 0.949219C22.5703 0.433594 22.1484 0 21.6211 0L16.957 0C16.2891 0 15.7969 0.503906 15.7969 1.17188L15.7969 5.27344L11.6953 5.27344C11.0273 5.27344 10.5352 5.76562 10.5352 6.43359L10.5352 10.5352L6.42188 10.5352C5.75391 10.5352 5.26172 11.0273 5.26172 11.707L5.26172 15.7969L1.16016 15.7969C0.492188 15.7969 0 16.3008 0 16.9688L0 21.6328C0 22.1484 0.421875 22.582 0.9375 22.582Z" fill="black" fill-opacity="0.85"/>
 </g>
</svg>
