<?xml version="1.0" encoding="UTF-8"?>
<!--Generator: Apple Native CoreSVG 360-->
<!DOCTYPE svg
PUBLIC "-//W3C//DTD SVG 1.1//EN"
       "http://www.w3.org/Graphics/SVG/1.1/DTD/svg11.dtd">
<svg version="1.1" xmlns="http://www.w3.org/2000/svg" xmlns:xlink="http://www.w3.org/1999/xlink" viewBox="0 0 34.1126 17.5664">
 <g>
  <rect height="17.5664" opacity="0" width="34.1126" x="0" y="0"/>
  <path d="M7.73404 3.14062L8.57779 3.14062C9.10513 3.14062 9.32779 2.94141 9.50357 2.49609L10.195 0.75C10.359 0.363281 10.1833 0.0234375 9.7731 0.0234375L8.99966 0.0234375C8.60123 0.0234375 8.35513 0.222656 8.16763 0.574219L7.24185 2.35547C7.05435 2.70703 7.24185 3.14062 7.73404 3.14062ZM4.5231 9.65625L5.82388 9.65625C6.36295 9.65625 6.67935 9.46875 6.87857 8.96484L7.8981 6.45703C8.06216 6.04688 7.80435 5.64844 7.34732 5.64844L6.18716 5.64844C5.78873 5.64844 5.4606 5.84766 5.2731 6.21094L3.97232 8.74219C3.73795 9.1875 4.0192 9.65625 4.5231 9.65625ZM0.948883 17.5664L2.48404 17.5664C3.18716 17.5664 3.53873 17.2266 3.72623 16.7227L5.15591 13.2188C5.36685 12.7031 5.03873 12.1992 4.47623 12.1992L3.15201 12.1992C2.41373 12.1992 2.05045 12.4805 1.79263 12.9727L0.128571 16.2656C-0.176117 16.8633 0.0465394 17.5664 0.948883 17.5664ZM25.1833 3.14062L26.027 3.14062C26.5192 3.14062 26.7067 2.70703 26.5192 2.35547L25.5934 0.574219C25.4176 0.222656 25.1598 0.0234375 24.7614 0.0234375L23.9879 0.0234375C23.5778 0.0234375 23.402 0.363281 23.5661 0.75L24.2575 2.49609C24.4333 2.94141 24.6559 3.14062 25.1833 3.14062ZM27.9489 9.65625L29.2379 9.65625C29.7419 9.65625 30.0231 9.1875 29.8004 8.74219L28.4997 6.21094C28.3004 5.84766 27.9723 5.64844 27.5739 5.64844L26.4137 5.64844C25.9567 5.64844 25.6989 6.04688 25.8629 6.45703L26.8825 8.96484C27.0934 9.46875 27.3981 9.65625 27.9489 9.65625ZM31.277 17.5664L32.8122 17.5664C33.7262 17.5664 33.9372 16.8633 33.6325 16.2656L31.9684 12.9727C31.7106 12.4805 31.3473 12.1992 30.609 12.1992L29.2965 12.1992C28.7223 12.1992 28.3942 12.7031 28.6051 13.2188L30.0348 16.7227C30.234 17.2266 30.5739 17.5664 31.277 17.5664Z" fill="black" fill-opacity="0.85"/>
  <path d="M16.8981 16.5469C20.8239 16.5469 24.0817 13.3008 24.0817 9.375C24.0817 5.4375 20.8122 2.19141 16.8864 2.19141C12.9723 2.19141 9.71451 5.4375 9.71451 9.375C9.71451 13.3008 12.9723 16.5469 16.8981 16.5469ZM12.152 6.21094C13.1598 4.65234 14.8825 3.64453 16.8864 3.64453C18.8903 3.64453 20.6129 4.65234 21.6208 6.19922C21.8551 6.52734 21.7731 6.80859 21.4098 6.80859L12.3629 6.80859C11.9997 6.80859 11.9294 6.52734 12.152 6.21094ZM16.8864 11.1094C16.0895 11.1094 15.5036 10.5117 15.5036 9.72656C15.5036 8.92969 16.0895 8.33203 16.8864 8.33203C17.6715 8.33203 18.2692 8.92969 18.2692 9.72656C18.2692 10.5117 17.6715 11.1094 16.8864 11.1094ZM11.3786 10.875C11.2731 10.5469 11.402 10.4414 11.6833 10.4766C13.6169 10.6875 15.0817 12.3398 15.0114 14.332C15.0114 14.625 14.859 14.7539 14.5661 14.6016C12.9606 13.8984 11.8122 12.5391 11.3786 10.875ZM22.4176 10.875C21.9723 12.5391 20.8122 13.8984 19.2067 14.6016C18.9137 14.7539 18.7731 14.625 18.7614 14.332C18.7028 12.3516 20.1559 10.6875 22.0778 10.4766C22.3708 10.4297 22.4997 10.5469 22.4176 10.875Z" fill="black" fill-opacity="0.85"/>
 </g>
</svg>
