<?xml version="1.0" encoding="UTF-8"?>
<!--Generator: Apple Native CoreSVG 360-->
<!DOCTYPE svg
PUBLIC "-//W3C//DTD SVG 1.1//EN"
       "http://www.w3.org/Graphics/SVG/1.1/DTD/svg11.dtd">
<svg version="1.1" xmlns="http://www.w3.org/2000/svg" xmlns:xlink="http://www.w3.org/1999/xlink" viewBox="0 0 34.5938 23.918">
 <g>
  <rect height="23.918" opacity="0" width="34.5938" x="0" y="0"/>
  <path d="M22.6406 23.9062C29.2383 23.9062 34.5938 18.5508 34.5938 11.9531C34.5938 5.35547 29.2383 0 22.6406 0C16.0312 0 10.6875 5.35547 10.6875 11.9531C10.6875 18.5508 16.0312 23.9062 22.6406 23.9062ZM14.3906 6.43359C16.1133 3.76172 19.1484 1.99219 22.6172 1.99219C26.0742 1.99219 29.1094 3.76172 30.8438 6.42188C31.3125 7.08984 31.0898 7.83984 30.293 7.83984L14.9414 7.83984C14.1562 7.83984 13.9219 7.08984 14.3906 6.43359ZM22.6172 15.1406C21.1758 15.1406 20.0156 13.9805 20.0156 12.5273C20.0156 11.0977 21.1758 9.9375 22.6172 9.9375C24.0586 9.9375 25.2188 11.0977 25.2188 12.5273C25.2188 13.9805 24.0586 15.1406 22.6172 15.1406ZM13.0195 14.5664C12.8203 13.8398 13.2188 13.5117 13.8281 13.5938C17.1914 13.9805 19.793 16.9219 19.6758 20.3672C19.6758 20.9648 19.2188 21.3633 18.5859 21.0586C15.8203 19.8164 13.7812 17.4492 13.0195 14.5664ZM32.2266 14.5664C31.4648 17.4492 29.4258 19.8164 26.6602 21.0586C26.0273 21.3633 25.5703 20.9648 25.5703 20.3672C25.4531 16.9336 28.043 13.9805 31.418 13.5938C32.0273 13.5117 32.4258 13.8398 32.2266 14.5664Z" fill="black" fill-opacity="0.85"/>
  <path d="M0.597656 11.3906C0.152344 11.6484 0.128906 12.2695 0.597656 12.5391L6.62109 16.0898C7.11328 16.3828 7.6875 16.1484 7.6875 15.6445L7.6875 8.26172C7.6875 7.76953 7.07812 7.54688 6.62109 7.81641Z" fill="black" fill-opacity="0.85"/>
 </g>
</svg>
