<?xml version="1.0" encoding="UTF-8"?>
<!--Generator: Apple Native CoreSVG 360-->
<!DOCTYPE svg
PUBLIC "-//W3C//DTD SVG 1.1//EN"
       "http://www.w3.org/Graphics/SVG/1.1/DTD/svg11.dtd">
<svg version="1.1" xmlns="http://www.w3.org/2000/svg" xmlns:xlink="http://www.w3.org/1999/xlink" viewBox="0 0 33.2733 30.0101">
 <g>
  <rect height="30.0101" opacity="0" width="33.2733" x="0" y="0"/>
  <path d="M16.4667 26.9523C23.0644 26.9523 28.4198 21.5969 28.4198 14.9992C28.4198 8.40155 23.0644 3.04608 16.4667 3.04608C9.86905 3.04608 4.51358 8.40155 4.51358 14.9992C4.51358 21.5969 9.86905 26.9523 16.4667 26.9523ZM8.2167 9.47968C9.93936 6.8078 12.9745 5.03827 16.4433 5.03827C19.9003 5.03827 22.9355 6.8078 24.6698 9.46796C25.1386 10.1359 24.9159 10.8859 24.119 10.8859L8.76748 10.8859C7.98233 10.8859 7.74795 10.1359 8.2167 9.47968ZM16.4433 18.1867C15.0019 18.1867 13.8417 17.0266 13.8417 15.5734C13.8417 14.1437 15.0019 12.9836 16.4433 12.9836C17.8847 12.9836 19.0448 14.1437 19.0448 15.5734C19.0448 17.0266 17.8847 18.1867 16.4433 18.1867ZM6.84561 17.6125C6.64639 16.8859 7.05655 16.5578 7.66592 16.6398C11.0175 17.0266 13.619 19.968 13.5019 23.4133C13.5019 24.0109 13.0448 24.4094 12.4237 24.1047C9.64639 22.8625 7.61905 20.4953 6.84561 17.6125ZM26.0526 17.6125C25.2909 20.4953 23.2519 22.8625 20.4862 24.1047C19.8534 24.4094 19.4081 24.0109 19.3964 23.4133C19.2909 19.9797 21.8808 17.0266 25.244 16.6398C25.8534 16.5578 26.2519 16.8859 26.0526 17.6125Z" fill="black" fill-opacity="0.85"/>
  <path d="M4.34952 7.94452L0.93936 6.01093C0.435454 5.71796-0.0332963 5.96405 0.00185997 6.6203L0.236235 10.1125C0.259672 10.6633 0.681547 10.8976 1.17373 10.6398L4.29092 9.0578C4.88858 8.7414 4.85342 8.23749 4.34952 7.94452ZM9.69327 0.514833C9.45889 0.0343642 8.90811-0.153136 8.39248 0.139833C5.26358 1.85077 2.69717 4.54608 1.16202 7.79218C0.611235 8.97577 2.33389 9.64374 2.8378 8.57733C4.18545 5.69452 6.43545 3.28046 9.25967 1.75702C9.72842 1.48749 9.91592 0.983583 9.69327 0.514833ZM28.5722 7.94452C28.08 8.23749 28.0331 8.7414 28.6308 9.0578L31.748 10.6398C32.2519 10.8976 32.662 10.6633 32.6972 10.1125L32.9198 6.6203C32.9667 5.96405 32.4862 5.71796 31.994 6.01093ZM23.2401 0.514833C23.0058 0.983583 23.1933 1.48749 23.662 1.75702C26.4862 3.28046 28.748 5.69452 30.0839 8.57733C30.5878 9.64374 32.3222 8.97577 31.7597 7.79218C30.2245 4.54608 27.6581 1.85077 24.5292 0.139833C24.0136-0.153136 23.4628 0.0343642 23.2401 0.514833Z" fill="black" fill-opacity="0.85"/>
 </g>
</svg>
