<?xml version="1.0" encoding="UTF-8"?>
<!--Generator: Apple Native CoreSVG 360-->
<!DOCTYPE svg
PUBLIC "-//W3C//DTD SVG 1.1//EN"
       "http://www.w3.org/Graphics/SVG/1.1/DTD/svg11.dtd">
<svg version="1.1" xmlns="http://www.w3.org/2000/svg" xmlns:xlink="http://www.w3.org/1999/xlink" viewBox="0 0 30.4336 32.1211">
 <g>
  <rect height="32.1211" opacity="0" width="30.4336" x="0" y="0"/>
  <path d="M17.0978 4.29003C17.246 5.18616 17.6466 5.93859 17.9643 6.54136C17.0374 6.24948 16.049 6.09375 15.0234 6.09375C11.5664 6.09375 8.53125 7.86328 6.80859 10.5352C6.32812 11.1914 6.57422 11.9414 7.34766 11.9414L17.0617 11.9414C17.2282 13.8942 18.4186 15.2695 19.9805 15.2695C20.7188 15.2695 21.4102 14.918 21.9023 14.3555C22.3594 14.9648 22.9922 15.2695 23.6836 15.2695C24.4219 15.2695 25.1367 14.8945 25.5938 14.3555C25.9595 14.8432 26.4304 15.1357 26.9584 15.2325C26.9905 15.5018 27 15.7771 27 16.0547C27 22.6523 21.6445 28.0078 15.0469 28.0078C8.44922 28.0078 3.09375 22.6523 3.09375 16.0547C3.09375 9.45703 8.44922 4.10156 15.0469 4.10156C15.7475 4.10156 16.4342 4.16196 17.0978 4.29003ZM5.4375 18.668C6.19922 21.5508 8.23828 23.918 11.0039 25.1602C11.6367 25.4648 12.082 25.0664 12.0938 24.4688C12.1992 21.0234 9.59766 18.082 6.24609 17.6953C5.63672 17.6133 5.22656 17.9414 5.4375 18.668ZM23.8242 17.6953C20.4609 18.082 17.8711 21.0352 17.9766 24.4688C17.9883 25.0664 18.4453 25.4648 19.0664 25.1602C21.8438 23.918 23.8711 21.5508 24.6328 18.668C24.8438 17.9414 24.4336 17.6133 23.8242 17.6953ZM12.4336 16.6289C12.4336 18.082 13.582 19.2422 15.0352 19.2422C16.4766 19.2422 17.6367 18.082 17.6367 16.6289C17.6367 15.1992 16.4766 14.0391 15.0352 14.0391C13.582 14.0391 12.4336 15.1992 12.4336 16.6289Z" fill="black" fill-opacity="0.85"/>
  <path d="M21.3867 7.65234C21.3867 6.10547 20.0039 5.25 20.0039 4.19531C20.0039 3.60938 20.1562 3.29297 20.5547 2.75391C21.1172 2.01562 20.0742 1.25391 19.5 1.98047C18.9492 2.68359 18.7031 3.32812 18.7031 4.11328C18.7031 5.71875 20.0625 6.50391 20.0625 7.65234C20.0625 8.77734 18.7031 9.57422 18.7031 11.168C18.7031 11.9648 18.9492 12.6094 19.5 13.3008C20.0508 14.0156 21.1055 13.2656 20.543 12.5273C20.1562 12 20.0039 11.6836 20.0039 11.0859C20.0039 10.043 21.3867 9.1875 21.3867 7.65234ZM25.0781 7.65234C25.0781 6.10547 23.6953 5.25 23.6953 4.19531C23.6953 3.60938 23.8477 3.29297 24.2461 2.75391C24.8086 2.01562 23.7656 1.25391 23.1914 1.98047C22.6406 2.68359 22.3945 3.32812 22.3945 4.11328C22.3945 5.71875 23.7539 6.50391 23.7539 7.65234C23.7539 8.77734 22.3945 9.57422 22.3945 11.168C22.3945 11.9648 22.6406 12.6094 23.1914 13.3008C23.7422 14.0156 24.7969 13.2656 24.2344 12.5273C23.8477 12 23.6953 11.6836 23.6953 11.0859C23.6953 10.043 25.0781 9.1875 25.0781 7.65234ZM28.7695 7.65234C28.7695 6.10547 27.3867 5.25 27.3867 4.19531C27.3867 3.60938 27.5391 3.29297 27.9375 2.75391C28.5 2.01562 27.457 1.25391 26.8828 1.98047C26.332 2.68359 26.0859 3.32812 26.0859 4.11328C26.0859 5.71875 27.4453 6.50391 27.4453 7.65234C27.4453 8.77734 26.0859 9.57422 26.0859 11.168C26.0859 11.9648 26.332 12.6094 26.8828 13.3008C27.4336 14.0156 28.4883 13.2656 27.9258 12.5273C27.5391 12 27.3867 11.6836 27.3867 11.0859C27.3867 10.043 28.7695 9.1875 28.7695 7.65234Z" fill="black" fill-opacity="0.85"/>
 </g>
</svg>
