<?xml version="1.0" encoding="UTF-8"?>
<!--Generator: Apple Native CoreSVG 360-->
<!DOCTYPE svg
PUBLIC "-//W3C//DTD SVG 1.1//EN"
       "http://www.w3.org/Graphics/SVG/1.1/DTD/svg11.dtd">
<svg version="1.1" xmlns="http://www.w3.org/2000/svg" xmlns:xlink="http://www.w3.org/1999/xlink" viewBox="0 0 34.1253 17.5664">
 <g>
  <rect height="17.5664" opacity="0" width="34.1253" x="0" y="0"/>
  <path d="M0.961085 17.5664L2.48452 17.5664C3.18765 17.5664 3.53921 17.2266 3.73843 16.7227L10.2072 0.75C10.3712 0.363281 10.1837 0.0234375 9.77358 0.0234375L9.01187 0.0234375C8.60171 0.0234375 8.3439 0.222656 8.16812 0.574219L0.140772 16.2656C-0.187353 16.8633 0.047022 17.5664 0.961085 17.5664ZM31.2892 17.5664L32.8244 17.5664C33.7267 17.5664 33.9611 16.8633 33.633 16.2656L25.6173 0.574219C25.4298 0.222656 25.172 0.0234375 24.7619 0.0234375L24.0001 0.0234375C23.59 0.0234375 23.4142 0.363281 23.5666 0.75L30.0353 16.7227C30.2345 17.2266 30.5861 17.5664 31.2892 17.5664Z" fill="black" fill-opacity="0.85"/>
  <path d="M16.8869 16.5469C20.8126 16.5469 24.0705 13.3008 24.0705 9.375C24.0705 5.4375 20.8009 2.19141 16.8751 2.19141C12.9611 2.19141 9.71499 5.4375 9.71499 9.375C9.71499 13.3008 12.9611 16.5469 16.8869 16.5469ZM12.1408 6.21094C13.1486 4.65234 14.8712 3.64453 16.8751 3.64453C18.8791 3.64453 20.6017 4.65234 21.6095 6.19922C21.8439 6.52734 21.7736 6.80859 21.3986 6.80859L12.3517 6.80859C12.0001 6.80859 11.9181 6.52734 12.1408 6.21094ZM16.8751 11.1094C16.09 11.1094 15.4923 10.5117 15.4923 9.72656C15.4923 8.92969 16.09 8.33203 16.8751 8.33203C17.672 8.33203 18.2697 8.92969 18.2697 9.72656C18.2697 10.5117 17.672 11.1094 16.8751 11.1094ZM11.3673 10.875C11.2736 10.5352 11.3908 10.4414 11.6837 10.4766C13.6173 10.6875 15.0705 12.3516 15.0001 14.332C15.0001 14.625 14.8595 14.7539 14.5666 14.6016C12.9611 13.8984 11.8009 12.5391 11.3673 10.875ZM22.4064 10.875C21.9611 12.5391 20.8126 13.8984 19.2072 14.6016C18.9142 14.7539 18.7619 14.625 18.7619 14.332C18.6916 12.3516 20.1447 10.6875 22.0783 10.4766C22.3595 10.4297 22.5001 10.5352 22.4064 10.875Z" fill="black" fill-opacity="0.85"/>
 </g>
</svg>
