<?xml version="1.0" encoding="UTF-8"?>
<!--Generator: Apple Native CoreSVG 360-->
<!DOCTYPE svg
PUBLIC "-//W3C//DTD SVG 1.1//EN"
       "http://www.w3.org/Graphics/SVG/1.1/DTD/svg11.dtd">
<svg version="1.1" xmlns="http://www.w3.org/2000/svg" xmlns:xlink="http://www.w3.org/1999/xlink" viewBox="0 0 29.7773 29.4317">
 <g>
  <rect height="29.4317" opacity="0" width="29.7773" x="0" y="0"/>
  <path d="M26.3859 12.1353C25.7898 11.8969 25.1385 11.7686 24.457 11.7686C21.4805 11.7686 19.1133 14.1592 19.1133 17.0889C19.1133 17.5977 19.1806 18.0891 19.3107 18.5534C18.2316 19.7729 17.5951 21.387 17.6484 23.1241C17.6602 23.7217 18.1172 24.1202 18.7383 23.8155C19.7684 23.3547 20.6954 22.7392 21.4922 21.9994L21.4922 24.5519C19.5689 25.8847 17.2341 26.6631 14.7188 26.6631C8.12109 26.6631 2.76562 21.3077 2.76562 14.71C2.76562 8.11234 8.12109 2.75687 14.7188 2.75687C20.4316 2.75687 25.2132 6.77228 26.3859 12.1353ZM5.10938 17.3233C5.87109 20.2061 7.91016 22.5733 10.6758 23.8155C11.3086 24.1202 11.7539 23.7217 11.7656 23.1241C11.8711 19.6787 9.26953 16.7373 5.91797 16.3506C5.30859 16.2686 4.89844 16.5967 5.10938 17.3233ZM12.1055 15.2842C12.1055 16.7373 13.2539 17.8975 14.707 17.8975C16.1484 17.8975 17.3086 16.7373 17.3086 15.2842C17.3086 13.8545 16.1484 12.6944 14.707 12.6944C13.2539 12.6944 12.1055 13.8545 12.1055 15.2842ZM6.48047 9.19046C6 9.84671 6.24609 10.5967 7.01953 10.5967L22.3828 10.5967C23.168 10.5967 23.4023 9.84671 22.9219 9.17875C21.1875 6.51859 18.1523 4.74906 14.6953 4.74906C11.2383 4.74906 8.20312 6.51859 6.48047 9.19046Z" fill="black" fill-opacity="0.85"/>
  <path d="M24.457 13.3623C22.3594 13.3623 20.707 15.0381 20.707 17.0889C20.707 18.6827 21.6445 20.0303 23.0859 20.6045L23.0859 26.3936C23.0859 26.5342 23.1562 26.6397 23.2617 26.7569L24.2344 27.7412C24.3516 27.8584 24.5156 27.8702 24.6562 27.7412L26.5195 25.8897C26.6367 25.7725 26.6367 25.5967 26.5195 25.4795L25.3594 24.3194L26.9531 22.7608C27.0703 22.6436 27.0703 22.4795 26.9297 22.3272L25.3594 20.7686C27.1641 20.0303 28.1836 18.7178 28.1836 17.0889C28.1836 15.0381 26.5195 13.3623 24.457 13.3623ZM24.4453 14.8858C25.0664 14.8858 25.5703 15.4014 25.5703 16.0225C25.5703 16.667 25.0664 17.1827 24.4453 17.1827C23.8125 17.1827 23.2969 16.667 23.2969 16.0225C23.2969 15.4014 23.8008 14.8858 24.4453 14.8858Z" fill="black" fill-opacity="0.85"/>
 </g>
</svg>
