<?xml version="1.0" encoding="UTF-8"?>
<!--Generator: Apple Native CoreSVG 360-->
<!DOCTYPE svg
PUBLIC "-//W3C//DTD SVG 1.1//EN"
       "http://www.w3.org/Graphics/SVG/1.1/DTD/svg11.dtd">
<svg version="1.1" xmlns="http://www.w3.org/2000/svg" xmlns:xlink="http://www.w3.org/1999/xlink" viewBox="0 0 35.9929 23.918">
 <g>
  <rect height="23.918" opacity="0" width="35.9929" x="0" y="0"/>
  <path d="M23.6859 13.875C23.8042 14.0347 23.9504 14.2177 24.1179 14.4227C22.0583 15.5983 20.6939 17.854 20.7796 20.3672C20.7796 20.9648 21.2367 21.3633 21.8578 21.0586C23.7128 20.2289 25.2332 18.8974 26.2662 17.2438C26.5382 17.664 26.7902 18.1025 27.0023 18.5508L27.3141 19.2159C25.1384 22.0702 21.7013 23.9062 17.8382 23.9062C13.9608 23.9062 10.5124 22.0565 8.33834 19.1838L8.63901 18.5508C8.85343 18.0975 9.1087 17.6543 9.38404 17.2299C10.4164 18.8899 11.9429 20.2266 13.7953 21.0586C14.4281 21.3633 14.8734 20.9648 14.8851 20.3672C14.971 17.8421 13.5965 15.5876 11.5289 14.4159C11.6942 14.2135 11.8384 14.0329 11.9554 13.875C12.6675 12.919 13.5745 9.4134 13.8562 7.83984L21.7851 7.83984C22.0668 9.41339 22.9738 12.919 23.6859 13.875ZM15.225 12.5273C15.225 13.9805 16.3851 15.1406 17.8265 15.1406C19.2679 15.1406 20.4281 13.9805 20.4281 12.5273C20.4281 11.0977 19.2679 9.9375 17.8265 9.9375C16.3851 9.9375 15.225 11.0977 15.225 12.5273ZM27.9086 5.53449C27.5965 5.99591 26.8831 6.42773 25.9567 6.28366C24.2107 3.69964 21.2106 1.99219 17.8148 1.99219C14.4249 1.99219 11.4406 3.69366 9.70501 6.2813C8.79273 6.43028 8.07748 6.02113 7.74625 5.57002C9.8566 2.22053 13.5899 0 17.8382 0C22.0717 0 25.7937 2.20502 27.9086 5.53449Z" fill="black" fill-opacity="0.85"/>
  <path d="M11.3812 6.05859C10.432 6.05859 10.057 7.40625 9.26011 7.40625C7.99448 7.40625 6.51792 6.25781 6.51792 5.58984C6.51792 5.4375 6.59995 5.22656 6.59995 5.13281C6.59995 4.95703 6.44761 4.83984 6.23667 4.83984C5.13511 4.83984 2.90855 5.50781 2.92026 7.07812C2.61558 7.24219 2.0062 7.64062 2.0062 8.56641C2.0062 10.1719 2.60386 10.3359 2.60386 14.4961C2.60386 15.9609 1.98276 17.25 1.42026 18.1055C-0.0914547 20.4141 5.09995 23.4023 6.74058 19.9453L7.61948 18.0703C8.60386 15.9609 10.3851 14.0742 11.0531 13.1953C11.721 12.293 12.8226 7.69922 12.8226 7.14844C12.8226 6.58594 12.3539 6.05859 11.3812 6.05859ZM24.2601 6.05859C23.2875 6.05859 22.8187 6.58594 22.8187 7.14844C22.8187 7.69922 23.9203 12.293 24.5882 13.1953C25.2562 14.0742 27.0257 15.9609 28.0218 18.0703L28.9007 19.9453C30.5414 23.4023 35.7328 20.4141 34.2093 18.1055C33.6585 17.25 33.0257 15.9609 33.0257 14.4961C33.0257 10.3359 33.6234 10.1719 33.6234 8.56641C33.6234 7.64062 33.0257 7.24219 32.7093 7.07812C32.7328 5.50781 30.5062 4.83984 29.3929 4.83984C29.182 4.83984 29.0414 4.95703 29.0414 5.13281C29.0414 5.22656 29.1117 5.4375 29.1117 5.58984C29.1117 6.25781 27.6351 7.40625 26.3812 7.40625C25.5843 7.40625 25.1976 6.05859 24.2601 6.05859Z" fill="black" fill-opacity="0.85"/>
 </g>
</svg>
