<?xml version="1.0" encoding="UTF-8"?>
<!--Generator: Apple Native CoreSVG 360-->
<!DOCTYPE svg
PUBLIC "-//W3C//DTD SVG 1.1//EN"
       "http://www.w3.org/Graphics/SVG/1.1/DTD/svg11.dtd">
<svg version="1.1" xmlns="http://www.w3.org/2000/svg" xmlns:xlink="http://www.w3.org/1999/xlink" viewBox="0 0 28.582 23.4085">
 <g>
  <rect height="23.4085" opacity="0" width="28.582" x="0" y="0"/>
  <path d="M28.2305 14.0539C28.2305 6.67105 22.5586 0.612457 15.3398 0.00308175C14.9648-0.0320745 14.6836 0.237457 14.6836 0.612457L14.6836 4.44449C14.6836 4.76089 14.9062 5.00699 15.2227 5.03043C19.7109 5.58121 23.2031 9.41324 23.2031 14.0539C23.2031 16.1632 22.4766 18.1086 21.1992 19.7375C21.0352 19.9367 21.0469 20.1945 21.2227 20.382L24.0234 23.1711C24.2812 23.4289 24.6797 23.4289 24.9141 23.1476C26.9883 20.6867 28.2305 17.5109 28.2305 14.0539Z" fill="black" fill-opacity="0.85"/>
  <path d="M0 14.0539C0 17.5226 1.24219 20.6984 3.31641 23.1593C3.55078 23.4406 3.9375 23.4289 4.20703 23.1711L7.00781 20.382C7.18359 20.1945 7.19531 19.9367 7.03125 19.7375C5.74219 18.1086 5.02734 16.1632 5.02734 14.0539C5.02734 9.41324 8.51953 5.58121 13.0078 5.03043C13.3242 5.00699 13.5469 4.76089 13.5469 4.44449L13.5469 0.612457C13.5469 0.237457 13.2656-0.0320745 12.8906 0.00308175C5.67188 0.612457 0 6.67105 0 14.0539Z" fill="black" fill-opacity="0.85"/>
  <path d="M10.3477 19.3976L17.3203 19.3976C17.6719 19.3976 17.9414 19.1515 17.9414 18.8117C17.9414 18.4836 17.6719 18.2257 17.3203 18.2257L11.8945 18.2257L11.8945 18.1906C12.8203 17.8273 13.2539 16.7609 13.2539 15.7414C13.2539 15.3429 13.2305 14.9914 13.1484 14.6867L16.1484 14.6867C16.4414 14.6867 16.6641 14.4757 16.6641 14.2062C16.6641 13.9367 16.4297 13.7257 16.1484 13.7257L12.8906 13.7257C12.7266 13.0461 12.6797 12.6828 12.6797 12.2609C12.6797 10.9132 13.6992 10.1515 15.1758 10.1515C15.7031 10.1515 16.0664 10.2218 16.3711 10.2921C16.582 10.3507 16.7812 10.3859 16.9336 10.3859C17.2617 10.3859 17.4492 10.2101 17.4492 9.88199C17.4492 9.5773 17.2266 9.3898 16.9453 9.27261C16.3008 9.03824 15.8438 8.97964 15.0352 8.97964C12.7852 8.97964 11.2734 10.2218 11.2734 12.2961C11.2734 12.7414 11.332 13.1867 11.4961 13.7257L10.2539 13.7257C9.96094 13.7257 9.73828 13.9367 9.73828 14.2062C9.73828 14.4757 9.96094 14.6867 10.2539 14.6867L11.7539 14.6867C11.8594 15.0734 11.918 15.4484 11.918 15.7882C11.918 16.9132 11.3438 17.7336 10.2891 18.1203C9.96094 18.2375 9.75 18.4484 9.75 18.7882C9.75 19.1398 9.99609 19.3976 10.3477 19.3976Z" fill="black" fill-opacity="0.85"/>
 </g>
</svg>
