<?xml version="1.0" encoding="UTF-8"?>
<!--Generator: Apple Native CoreSVG 360-->
<!DOCTYPE svg
PUBLIC "-//W3C//DTD SVG 1.1//EN"
       "http://www.w3.org/Graphics/SVG/1.1/DTD/svg11.dtd">
<svg version="1.1" xmlns="http://www.w3.org/2000/svg" xmlns:xlink="http://www.w3.org/1999/xlink" viewBox="0 0 28.582 23.5195">
 <g>
  <rect height="23.5195" opacity="0" width="28.582" x="0" y="0"/>
  <path d="M28.2305 14.1094C28.2305 10.6641 26.9883 7.48828 24.9141 5.02734C24.6797 4.74609 24.2812 4.74609 24.0234 5.01562L21.3047 7.73438C21.082 7.95703 21.0703 8.27344 21.2695 8.51953C22.4766 10.0664 23.2031 12.0117 23.2031 14.1094C23.2031 16.2188 22.4766 18.1641 21.1992 19.793C21.0352 19.9922 21.0469 20.25 21.2227 20.4375L24.0117 23.2266C24.2812 23.4961 24.668 23.4961 24.9141 23.2031C26.9883 20.7422 28.2305 17.5664 28.2305 14.1094Z" fill="black" fill-opacity="0.85"/>
  <path d="M14.1094 5.02734C16.2305 5.02734 18.1758 5.76562 19.7344 6.97266C19.9688 7.16016 20.2734 7.13672 20.4961 6.91406L23.2148 4.19531C23.4844 3.92578 23.4727 3.53906 23.1914 3.30469C20.7422 1.24219 17.5664 0 14.1094 0C10.6641 0 7.48828 1.24219 5.03906 3.30469C4.75781 3.53906 4.74609 3.92578 5.01562 4.19531L7.73438 6.91406C7.95703 7.13672 8.27344 7.16016 8.53125 6.96094C10.0781 5.76562 12.0117 5.02734 14.1094 5.02734Z" fill="black" fill-opacity="0.85"/>
  <path d="M0 14.1094C0 17.5664 1.24219 20.7422 3.31641 23.2031C3.55078 23.4961 3.94922 23.4961 4.20703 23.2266L6.99609 20.4375C7.17188 20.25 7.19531 19.9922 7.03125 19.793C5.75391 18.1641 5.02734 16.2188 5.02734 14.1094C5.02734 12.0117 5.74219 10.0664 6.96094 8.51953C7.14844 8.27344 7.14844 7.95703 6.92578 7.73438L4.20703 5.01562C3.9375 4.74609 3.55078 4.74609 3.31641 5.02734C1.24219 7.48828 0 10.6641 0 14.1094Z" fill="black" fill-opacity="0.85"/>
  <path d="M10.3477 19.4531L17.3203 19.4531C17.6719 19.4531 17.9414 19.207 17.9414 18.8672C17.9414 18.5391 17.6719 18.2812 17.3203 18.2812L11.8945 18.2812L11.8945 18.2461C12.8203 17.8828 13.2539 16.8164 13.2539 15.7969C13.2539 15.3984 13.2305 15.0469 13.1484 14.7422L16.1484 14.7422C16.4414 14.7422 16.6641 14.5312 16.6641 14.2617C16.6641 13.9922 16.4297 13.7812 16.1484 13.7812L12.8906 13.7812C12.7266 13.1016 12.6797 12.7383 12.6797 12.3164C12.6797 10.9688 13.6992 10.207 15.1758 10.207C15.7031 10.207 16.0664 10.2773 16.3711 10.3477C16.582 10.4062 16.7812 10.4414 16.9336 10.4414C17.2617 10.4414 17.4492 10.2656 17.4492 9.9375C17.4492 9.63281 17.2266 9.44531 16.9453 9.32812C16.3008 9.09375 15.8438 9.03516 15.0352 9.03516C12.7852 9.03516 11.2734 10.2773 11.2734 12.3516C11.2734 12.7969 11.332 13.2422 11.4961 13.7812L10.2539 13.7812C9.96094 13.7812 9.73828 13.9922 9.73828 14.2617C9.73828 14.5312 9.96094 14.7422 10.2539 14.7422L11.7539 14.7422C11.8594 15.1289 11.918 15.5039 11.918 15.8438C11.918 16.9688 11.3438 17.7891 10.2891 18.1758C9.96094 18.293 9.75 18.5039 9.75 18.8438C9.75 19.1953 9.99609 19.4531 10.3477 19.4531Z" fill="black" fill-opacity="0.85"/>
 </g>
</svg>
