<?xml version="1.0" encoding="UTF-8"?>
<!--Generator: Apple Native CoreSVG 360-->
<!DOCTYPE svg
PUBLIC "-//W3C//DTD SVG 1.1//EN"
       "http://www.w3.org/Graphics/SVG/1.1/DTD/svg11.dtd">
<svg version="1.1" xmlns="http://www.w3.org/2000/svg" xmlns:xlink="http://www.w3.org/1999/xlink" viewBox="0 0 16.5586 20.8945">
 <g>
  <rect height="20.8945" opacity="0" width="16.5586" x="0" y="0"/>
  <path d="M1.26562 20.8125L15.1992 20.8125C15.7969 20.8125 16.2656 20.4375 16.2656 19.8398C16.2656 19.207 15.7617 18.832 15.1992 18.832L3.83203 18.832L3.83203 18.7617C5.75391 18.1055 6.75 15.9258 6.75 13.7461C6.75 12.8203 6.62109 12.0586 6.44531 11.3555L12.6797 11.3555C13.207 11.3555 13.6172 11.0039 13.6172 10.4766C13.6172 9.94922 13.207 9.60938 12.6797 9.60938L5.96484 9.60938C5.71875 8.71875 5.49609 7.71094 5.49609 6.46875C5.49609 3.59766 7.6875 2.03906 10.6992 2.03906C11.6719 2.03906 12.7148 2.17969 13.5 2.4375C13.8047 2.51953 14.0508 2.56641 14.2734 2.56641C14.8477 2.56641 15.1875 2.23828 15.1875 1.67578C15.1875 1.10156 14.7891 0.808594 14.2617 0.574219C13.043 0.09375 11.7773 0 10.5117 0C6.28125 0 3.11719 2.28516 3.11719 6.62109C3.11719 7.57031 3.30469 8.48438 3.59766 9.60938L1.01953 9.60938C0.492188 9.60938 0.0820312 9.94922 0.0820312 10.4766C0.0820312 11.0273 0.515625 11.3555 1.01953 11.3555L4.04297 11.3555C4.34766 12.3984 4.45312 13.1367 4.45312 13.8398C4.45312 16.043 3.23438 17.9648 0.960938 18.6211C0.386719 18.8086 0 19.1484 0 19.8047C0 20.4258 0.492188 20.8125 1.26562 20.8125Z" fill="black" fill-opacity="0.85"/>
 </g>
</svg>
