<?xml version="1.0" encoding="UTF-8"?>
<!--Generator: Apple Native CoreSVG 360-->
<!DOCTYPE svg
PUBLIC "-//W3C//DTD SVG 1.1//EN"
       "http://www.w3.org/Graphics/SVG/1.1/DTD/svg11.dtd">
<svg version="1.1" xmlns="http://www.w3.org/2000/svg" xmlns:xlink="http://www.w3.org/1999/xlink" viewBox="0 0 32.3555 25.7461">
 <g>
  <rect height="25.7461" opacity="0" width="32.3555" x="0" y="0"/>
  <path d="M4.79297 2.15625C4.79297 2.51 4.89838 2.8405 5.08031 3.11719L4.64062 3.11719C3.46875 3.11719 2.88281 3.82031 2.88281 5.12109C2.88281 8.83594 6.31641 15.1523 9.65625 15.1523C12.9961 15.1523 16.4414 8.83594 16.4414 5.12109C16.4414 3.82031 15.8555 3.11719 14.6719 3.11719L14.2205 3.11719C14.4024 2.8405 14.5078 2.51 14.5078 2.15625C14.5078 1.81715 14.411 1.49941 14.2419 1.23047L14.5781 1.23047C17.0508 1.23047 18.3281 2.55469 18.3281 5.14453C18.3281 9.67587 14.4526 16.2706 10.5935 16.9684C10.7129 21.379 12.1238 23.8594 14.5312 23.8594C17.3203 23.8594 18.3633 21.375 19.1953 16.7695C20.1328 11.6484 21.6797 9.70312 24.5391 9.70312C27.5394 9.70312 29.0118 12.095 29.454 16.8633C29.1964 16.8026 28.9278 16.7711 28.6523 16.7695C28.2832 16.7674 27.9267 16.82 27.5908 16.9213C27.3346 13.3412 26.385 11.5898 24.5391 11.5898C22.8281 11.5898 21.7969 12.9258 21.0469 17.1914C20.0625 22.9102 18.2109 25.7461 14.6484 25.7461C10.9877 25.7461 8.85355 22.6173 8.70965 16.9662C4.85746 16.2466 0.996094 9.6676 0.996094 5.14453C0.996094 2.55469 2.27344 1.23047 4.73438 1.23047L5.05889 1.23047C4.88983 1.49941 4.79297 1.81715 4.79297 2.15625Z" fill="black" fill-opacity="0.85"/>
  <path d="M6.5625 3.92578C7.52344 3.92578 8.32031 3.12891 8.32031 2.15625C8.32031 1.18359 7.52344 0.386719 6.5625 0.386719C5.58984 0.386719 4.79297 1.18359 4.79297 2.15625C4.79297 3.12891 5.58984 3.92578 6.5625 3.92578ZM12.7383 3.92578C13.7109 3.92578 14.5078 3.12891 14.5078 2.15625C14.5078 1.18359 13.7109 0.386719 12.7383 0.386719C11.7773 0.386719 10.9805 1.18359 10.9805 2.15625C10.9805 3.12891 11.7773 3.92578 12.7383 3.92578ZM28.6523 24.1875C30.6914 24.1875 32.3555 22.5352 32.3555 20.4727C32.3555 18.4336 30.6914 16.7812 28.6523 16.7695C26.6016 16.7578 24.9375 18.4336 24.9375 20.4727C24.9375 22.5352 26.6016 24.1875 28.6523 24.1875ZM28.6523 22.5352C27.5156 22.5352 26.5781 21.6094 26.5781 20.4727C26.5781 19.3242 27.5156 18.4102 28.6523 18.4102C29.7891 18.4102 30.7148 19.3242 30.7148 20.4727C30.7148 21.6094 29.7891 22.5352 28.6523 22.5352Z" fill="black" fill-opacity="0.85"/>
 </g>
</svg>
