<?xml version="1.0" encoding="UTF-8"?>
<!--Generator: Apple Native CoreSVG 360-->
<!DOCTYPE svg
PUBLIC "-//W3C//DTD SVG 1.1//EN"
       "http://www.w3.org/Graphics/SVG/1.1/DTD/svg11.dtd">
<svg version="1.1" xmlns="http://www.w3.org/2000/svg" xmlns:xlink="http://www.w3.org/1999/xlink" viewBox="0 0 19.4414 19.1133">
 <g>
  <rect height="19.1133" opacity="0" width="19.4414" x="0" y="0"/>
  <path d="M0 16.5117C0 18.1406 0.984375 19.1016 2.625 19.1016L16.4648 19.1016C18.1172 19.1016 19.0898 18.1406 19.0898 16.5117L19.0898 2.58984C19.0898 0.960938 18.1172 0 16.4648 0L2.625 0C0.984375 0 0 0.960938 0 2.58984ZM1.88672 16.0664L1.88672 3.03516C1.88672 2.32031 2.30859 1.88672 3.01172 1.88672L16.0781 1.88672C16.793 1.88672 17.2031 2.32031 17.2031 3.03516L17.2031 16.0664C17.2031 16.7812 16.793 17.2148 16.0781 17.2148L3.01172 17.2148C2.30859 17.2148 1.88672 16.7812 1.88672 16.0664Z" fill="black" fill-opacity="0.85"/>
 </g>
</svg>
