<?xml version="1.0" encoding="UTF-8"?>
<!--Generator: Apple Native CoreSVG 360-->
<!DOCTYPE svg
PUBLIC "-//W3C//DTD SVG 1.1//EN"
       "http://www.w3.org/Graphics/SVG/1.1/DTD/svg11.dtd">
<svg version="1.1" xmlns="http://www.w3.org/2000/svg" xmlns:xlink="http://www.w3.org/1999/xlink" viewBox="0 0 19.6992 17.3789">
 <g>
  <rect height="17.3789" opacity="0" width="19.6992" x="0" y="0"/>
  <path d="M16.0547 12.3047C16.0547 15.3633 13.5586 17.3672 9.66797 17.3672C6.44531 17.3672 4.00781 15.9609 3.38672 13.7461C3.32812 13.5234 3.29297 13.3008 3.29297 13.0898C3.29297 12.4805 3.67969 12.0938 4.3125 12.0938C4.80469 12.0938 5.0625 12.3164 5.27344 12.8203C5.87109 14.4844 7.5 15.4805 9.66797 15.4805C12.1172 15.4805 13.8398 14.25 13.8398 12.5625C13.8398 11.1562 12.8203 10.3594 10.3828 9.77344L8.22656 9.25781C7.89217 9.17913 7.57686 9.09387 7.28469 9L14.3171 9C15.5131 9.7818 16.0547 10.8343 16.0547 12.3047ZM15.5391 3.60938C15.5859 3.78516 15.6094 3.97266 15.6094 4.14844C15.6094 4.73438 15.2344 5.08594 14.625 5.08594C14.1562 5.08594 13.875 4.875 13.6875 4.42969C13.1133 2.8125 11.6719 1.89844 9.65625 1.89844C7.41797 1.89844 5.80078 3.05859 5.80078 4.69922C5.80078 6 6.80859 6.72656 9.1875 7.30078L11.0977 7.75781C11.4684 7.8455 11.8166 7.93854 12.1381 8.03906L5.21142 8.03906C4.10614 7.27012 3.58594 6.23284 3.58594 4.85156C3.58594 2.01562 6.12891 0 9.65625 0C12.668 0 15.0117 1.47656 15.5391 3.60938Z" fill="black" fill-opacity="0.85"/>
  <path d="M0.480469 9L18.8672 9C19.1367 9 19.3477 8.78906 19.3477 8.51953C19.3477 8.25 19.1367 8.03906 18.8672 8.03906L0.480469 8.03906C0.210938 8.03906 0 8.25 0 8.51953C0 8.78906 0.210938 9 0.480469 9Z" fill="black" fill-opacity="0.85"/>
 </g>
</svg>
