<?xml version="1.0" encoding="UTF-8"?>
<!--Generator: Apple Native CoreSVG 360-->
<!DOCTYPE svg
PUBLIC "-//W3C//DTD SVG 1.1//EN"
       "http://www.w3.org/Graphics/SVG/1.1/DTD/svg11.dtd">
<svg version="1.1" xmlns="http://www.w3.org/2000/svg" xmlns:xlink="http://www.w3.org/1999/xlink" viewBox="0 0 19.6992 17.3789">
 <g>
  <rect height="17.3789" opacity="0" width="19.6992" x="0" y="0"/>
  <path d="M16.0547 12.3047C16.0547 15.3633 13.5586 17.3672 9.66797 17.3672C6.44531 17.3672 4.00781 15.9609 3.38672 13.7461C3.32812 13.5234 3.29297 13.3008 3.29297 13.0898C3.29297 12.4805 3.67969 12.0938 4.3125 12.0938C4.80469 12.0938 5.0625 12.3164 5.27344 12.8203C5.87109 14.4844 7.5 15.4805 9.66797 15.4805C12.1172 15.4805 13.8398 14.25 13.8398 12.5625C13.8398 11.7394 13.4906 11.1251 12.7087 10.6406L15.7486 10.6406C15.9561 11.1262 16.0547 11.6774 16.0547 12.3047ZM11.0977 7.75781C13.0271 8.21411 14.3439 8.81545 15.1307 9.67969L9.99077 9.67969L8.22656 9.25781C6.55016 8.86337 5.35349 8.30361 4.60015 7.52344L10.1181 7.52344ZM15.5391 3.60938C15.5859 3.78516 15.6094 3.97266 15.6094 4.14844C15.6094 4.73438 15.2344 5.08594 14.625 5.08594C14.1562 5.08594 13.875 4.875 13.6875 4.42969C13.1133 2.8125 11.6719 1.89844 9.65625 1.89844C7.41797 1.89844 5.80078 3.05859 5.80078 4.69922C5.80078 5.50233 6.18495 6.08656 7.04033 6.55078L3.92928 6.55078C3.69695 6.05431 3.58594 5.48964 3.58594 4.85156C3.58594 2.01562 6.12891 0 9.65625 0C12.668 0 15.0117 1.47656 15.5391 3.60938Z" fill="black" fill-opacity="0.85"/>
  <path d="M19.3477 10.1602C19.3477 10.4297 19.1367 10.6406 18.8672 10.6406L0.480469 10.6406C0.210938 10.6406 0 10.4297 0 10.1602C0 9.89062 0.210938 9.67969 0.480469 9.67969L18.8672 9.67969C19.1367 9.67969 19.3477 9.89062 19.3477 10.1602Z" fill="black" fill-opacity="0.85"/>
  <path d="M0.480469 7.52344L18.8672 7.52344C19.1367 7.52344 19.3477 7.3125 19.3477 7.04297C19.3477 6.77344 19.1367 6.55078 18.8672 6.55078L0.480469 6.55078C0.210938 6.55078 0 6.77344 0 7.04297C0 7.3125 0.210938 7.52344 0.480469 7.52344Z" fill="black" fill-opacity="0.85"/>
 </g>
</svg>
