<?xml version="1.0" encoding="UTF-8"?>
<!--Generator: Apple Native CoreSVG 360-->
<!DOCTYPE svg
PUBLIC "-//W3C//DTD SVG 1.1//EN"
       "http://www.w3.org/Graphics/SVG/1.1/DTD/svg11.dtd">
<svg version="1.1" xmlns="http://www.w3.org/2000/svg" xmlns:xlink="http://www.w3.org/1999/xlink" viewBox="0 0 24.6328 25.6758">
 <g>
  <rect height="25.6758" opacity="0" width="24.6328" x="0" y="0"/>
  <path d="M5.73047 10.1953L4.06641 10.1953L4.61719 13.125C5.0625 15.5508 7.08984 17.0273 10.3945 17.0273L17.8711 17.0273C23.1094 17.0273 24.1641 12.9609 24.1641 9.62109C24.1641 4.32422 20.4375 0.222656 14.8945 0.222656C14.0039 0.222656 13.3828 0.867188 13.3828 1.80469L13.3828 9.01172L15.0352 9.01172L15.0352 2.46094C15.0352 2.14453 15.2578 1.93359 15.5742 1.93359C18.2812 1.93359 22.5 4.08984 22.5 9.62109C22.5 12.1289 21.832 15.375 17.8711 15.375L10.3945 15.375C7.96875 15.375 6.5625 14.4023 6.25781 12.8203ZM22.7109 8.78906L3.83203 8.78906C3.375 8.78906 3.01172 9.15234 3.01172 9.60938C3.01172 10.0664 3.375 10.4414 3.83203 10.4414L22.7227 10.4414ZM7.47656 9.76172L9.96094 9.76172L4.35938 4.16016C4.08984 3.89062 3.79688 3.77344 3.42188 3.77344L0.878906 3.77344C0.398438 3.77344 0 4.17188 0 4.65234C0 5.13281 0.398438 5.54297 0.878906 5.54297L3.25781 5.54297ZM7.96875 19.9336L9.19922 21.2109L13.7109 16.6992L12.4453 15.457ZM19.0664 21.3633L20.3438 20.1328L15.8789 15.6797L14.4727 16.7695ZM6.91406 25.6758C8.77734 25.6758 10.2422 24.2109 10.2422 22.3359C10.2422 20.4727 8.77734 19.0078 6.91406 19.0078C5.03906 19.0078 3.58594 20.4727 3.58594 22.3359C3.58594 24.2109 5.03906 25.6758 6.91406 25.6758ZM6.91406 24.1289C5.91797 24.1289 5.12109 23.332 5.12109 22.3359C5.12109 21.3281 5.91797 20.543 6.91406 20.543C7.92188 20.543 8.70703 21.3281 8.70703 22.3359C8.70703 23.332 7.92188 24.1289 6.91406 24.1289ZM21.1875 25.4414C22.8984 25.4414 24.2812 24.0586 24.2812 22.3359C24.2812 20.625 22.8984 19.2422 21.1875 19.2422C19.4648 19.2422 18.082 20.625 18.082 22.3359C18.082 24.0586 19.4766 25.4414 21.1875 25.4414ZM21.1875 24.1289C20.1914 24.1289 19.3828 23.332 19.3828 22.3359C19.3828 21.3281 20.1914 20.543 21.1875 20.543C22.1953 20.543 22.9805 21.3281 22.9805 22.3359C22.9805 23.332 22.1953 24.1289 21.1875 24.1289ZM9.53906 23.0977L18.6445 23.0977L18.6445 21.5625L9.53906 21.5625Z" fill="black" fill-opacity="0.85"/>
 </g>
</svg>
