<?xml version="1.0" encoding="UTF-8"?>
<!--Generator: Apple Native CoreSVG 360-->
<!DOCTYPE svg
PUBLIC "-//W3C//DTD SVG 1.1//EN"
       "http://www.w3.org/Graphics/SVG/1.1/DTD/svg11.dtd">
<svg version="1.1" xmlns="http://www.w3.org/2000/svg" xmlns:xlink="http://www.w3.org/1999/xlink" viewBox="0 0 18.9375 31.8398">
 <g>
  <rect height="31.8398" opacity="0" width="18.9375" x="0" y="0"/>
  <path d="M3.45703 29.6133L15.1289 29.6133C17.1562 29.6133 18.5859 28.1836 18.5859 26.1562L18.5859 9.89062C18.5859 7.85156 17.1562 6.43359 15.1289 6.43359L3.45703 6.43359C1.42969 6.43359 0 7.85156 0 9.89062L0 26.1562C0 28.1836 1.42969 29.6133 3.45703 29.6133ZM3.48047 27.7266C2.53125 27.7266 1.88672 27.0469 1.88672 26.0625L1.88672 9.97266C1.88672 8.98828 2.53125 8.32031 3.48047 8.32031L15.1055 8.32031C16.0547 8.32031 16.6992 8.98828 16.6992 9.97266L16.6992 26.0625C16.6992 27.0469 16.0547 27.7266 15.1055 27.7266ZM0.878906 24.832L17.7422 24.832L17.7422 22.9453L0.878906 22.9453ZM4.07812 7.78125L5.89453 7.78125L5.89453 2.63672C5.89453 2.07422 6.30469 1.71094 6.91406 1.71094L11.7891 1.71094C12.3281 1.71094 12.6914 2.07422 12.6914 2.63672L12.6914 7.75781L14.5078 7.75781L14.5078 2.66016C14.5078 1.03125 13.4883 0 11.8711 0L6.83203 0C5.14453 0 4.07812 1.03125 4.07812 2.66016ZM3.92578 31.3242L4.65234 31.3242C5.28516 31.3242 5.69531 30.9141 5.69531 30.293L5.69531 28.5117L2.88281 28.5117L2.88281 30.293C2.88281 30.9141 3.29297 31.3242 3.92578 31.3242ZM13.9336 31.3242L14.6602 31.3242C15.2812 31.3242 15.7031 30.9141 15.7031 30.293L15.7031 28.5117L12.8906 28.5117L12.8906 30.293C12.8906 30.9141 13.3008 31.3242 13.9336 31.3242Z" fill="black" fill-opacity="0.85"/>
 </g>
</svg>
