<?xml version="1.0" encoding="UTF-8"?>
<!--Generator: Apple Native CoreSVG 360-->
<!DOCTYPE svg
PUBLIC "-//W3C//DTD SVG 1.1//EN"
       "http://www.w3.org/Graphics/SVG/1.1/DTD/svg11.dtd">
<svg version="1.1" xmlns="http://www.w3.org/2000/svg" xmlns:xlink="http://www.w3.org/1999/xlink" viewBox="0 0 25.6641 28.4883">
 <g>
  <rect height="28.4883" opacity="0" width="25.6641" x="0" y="0"/>
  <path d="M13.1719 2.56641L13.1719 5.90625L13.6758 5.90625C15.5391 5.90625 16.8398 7.19531 16.8398 9.05859L16.8398 13.1836L15.0234 13.1836L15.0234 9.15234C15.0234 8.29688 14.4727 7.72266 13.6523 7.72266L3.1875 7.72266C2.37891 7.72266 1.81641 8.29688 1.81641 9.15234L1.81641 20.7656L5.78906 20.7656L5.78906 22.582L1.81641 22.582L1.81641 23.625C1.81641 24.4805 2.37891 25.0547 3.1875 25.0547L5.78906 25.0547L5.78906 26.7422C5.78906 26.7862 5.79022 26.8295 5.79428 26.8711L5.25 26.8711L5.25 27.4336C5.25 28.043 4.85156 28.4297 4.24219 28.4297L3.59766 28.4297C2.98828 28.4297 2.58984 28.043 2.58984 27.4336L2.58984 26.825C1.03825 26.5896 0 25.3822 0 23.707L0 9.05859C0 7.19531 1.30078 5.90625 3.16406 5.90625L3.67969 5.90625L3.67969 2.56641C3.67969 1.06641 4.65234 0.105469 6.21094 0.105469L10.7461 0.105469C12.2344 0.105469 13.1719 1.06641 13.1719 2.56641ZM6.28125 1.76953C5.75391 1.76953 5.42578 2.07422 5.42578 2.55469L5.42578 5.90625L11.4258 5.90625L11.4258 2.55469C11.4258 2.07422 11.1328 1.76953 10.6641 1.76953Z" fill="black" fill-opacity="0.85"/>
  <path d="M7.55859 28.4883L23.543 28.4883C24.6211 28.4883 25.3125 27.8086 25.3125 26.7422L25.3125 14.9297C25.3125 13.8867 24.6211 13.1836 23.543 13.1836L7.55859 13.1836C6.46875 13.1836 5.78906 13.8867 5.78906 14.9297L5.78906 26.7422C5.78906 27.8086 6.46875 28.4883 7.55859 28.4883ZM7.53516 16.2656C7.33594 16.2656 7.20703 16.125 7.20703 15.9609L7.20703 15.0469C7.20703 14.8359 7.33594 14.6953 7.55859 14.6953L8.57812 14.6953C8.76562 14.6953 8.88281 14.8242 8.88281 15.0234L8.88281 15.9609C8.88281 16.1367 8.76562 16.2656 8.57812 16.2656ZM7.53516 18.9609C7.33594 18.9609 7.20703 18.8203 7.20703 18.6797L7.20703 17.7422C7.20703 17.5547 7.32422 17.4141 7.53516 17.4141L8.57812 17.4141C8.76562 17.4141 8.88281 17.5547 8.88281 17.7422L8.88281 18.6797C8.88281 18.832 8.76562 18.9609 8.57812 18.9609ZM7.53516 21.6211C7.33594 21.6211 7.20703 21.4688 7.20703 21.293L7.20703 20.4023C7.20703 20.1914 7.32422 20.0508 7.53516 20.0508L8.57812 20.0508C8.76562 20.0508 8.88281 20.1797 8.88281 20.4023L8.88281 21.293C8.88281 21.4805 8.76562 21.6211 8.57812 21.6211ZM7.53516 24.2578C7.33594 24.2578 7.20703 24.1172 7.20703 23.9648L7.20703 23.0391C7.20703 22.8516 7.32422 22.7227 7.53516 22.7227L8.57812 22.7227C8.76562 22.7227 8.88281 22.8516 8.88281 23.0391L8.88281 23.9648C8.88281 24.1289 8.76562 24.2578 8.57812 24.2578ZM7.55859 26.9766C7.33594 26.9766 7.20703 26.8242 7.20703 26.6367L7.20703 25.7344C7.20703 25.5352 7.33594 25.418 7.53516 25.418L8.57812 25.418C8.76562 25.418 8.88281 25.5352 8.88281 25.7344L8.88281 26.6719C8.88281 26.8477 8.76562 26.9766 8.57812 26.9766ZM10.5234 20.0742C10.3359 20.0742 10.2305 19.9922 10.2305 19.7812L10.2305 14.9883C10.2305 14.8008 10.3477 14.6953 10.5234 14.6953L20.5547 14.6953C20.7422 14.6953 20.8594 14.8008 20.8594 14.9883L20.8594 19.7812C20.8594 19.9922 20.7539 20.0742 20.5547 20.0742ZM10.5234 26.9766C10.3477 26.9766 10.2305 26.8711 10.2305 26.6836L10.2305 21.9141C10.2305 21.7148 10.3359 21.6211 10.5234 21.6211L20.5547 21.6211C20.7422 21.6211 20.8594 21.7148 20.8594 21.9141L20.8594 26.6836C20.8594 26.8711 20.7422 26.9766 20.5547 26.9766ZM22.5234 16.2656C22.3477 16.2656 22.2188 16.125 22.2188 15.9609L22.2188 15.0234C22.2188 14.8242 22.3477 14.6953 22.5234 14.6953L23.543 14.6953C23.7539 14.6953 23.8828 14.8359 23.8828 15.0469L23.8828 15.9609C23.8828 16.1367 23.7539 16.2656 23.5664 16.2656ZM22.5234 18.9609C22.3477 18.9609 22.2188 18.8203 22.2188 18.6797L22.2188 17.7422C22.2188 17.5547 22.3477 17.4141 22.5234 17.4141L23.5664 17.4141C23.7656 17.4141 23.8828 17.5547 23.8828 17.7422L23.8828 18.6797C23.8828 18.832 23.7656 18.9609 23.5664 18.9609ZM22.5234 21.6211C22.3477 21.6211 22.2188 21.4688 22.2188 21.293L22.2188 20.4023C22.2188 20.1914 22.3477 20.0508 22.5234 20.0508L23.5664 20.0508C23.7656 20.0508 23.8828 20.1797 23.8828 20.4023L23.8828 21.293C23.8828 21.4805 23.7539 21.6211 23.5664 21.6211ZM22.5234 24.2578C22.3477 24.2578 22.2188 24.1172 22.2188 23.9648L22.2188 23.0391C22.2188 22.8516 22.3477 22.7227 22.5234 22.7227L23.5664 22.7227C23.7656 22.7227 23.8828 22.8516 23.8828 23.0391L23.8828 23.9648C23.8828 24.1289 23.7656 24.2578 23.5664 24.2578ZM22.5234 26.9766C22.3477 26.9766 22.2188 26.8359 22.2188 26.6719L22.2188 25.7344C22.2188 25.5352 22.3477 25.418 22.5234 25.418L23.5664 25.418C23.7656 25.418 23.8828 25.5352 23.8828 25.7344L23.8828 26.6367C23.8828 26.8359 23.7539 26.9766 23.543 26.9766Z" fill="black" fill-opacity="0.85"/>
 </g>
</svg>
