<?xml version="1.0" encoding="UTF-8"?>
<!--Generator: Apple Native CoreSVG 360-->
<!DOCTYPE svg
PUBLIC "-//W3C//DTD SVG 1.1//EN"
       "http://www.w3.org/Graphics/SVG/1.1/DTD/svg11.dtd">
<svg version="1.1" xmlns="http://www.w3.org/2000/svg" xmlns:xlink="http://www.w3.org/1999/xlink" viewBox="0 0 32.6719 27.7148">
 <g>
  <rect height="27.7148" opacity="0" width="32.6719" x="0" y="0"/>
  <path d="M27.7852 21.668C28.3008 21.668 28.7344 21.2461 28.7344 20.7188C28.7344 20.1914 28.3008 19.7812 27.7852 19.7812L6.85547 19.7812C5.88281 19.7812 5.39062 19.2773 5.39062 18.293L5.39062 6.64453C5.39062 4.46484 4.38281 3.48047 2.17969 3.48047L0.9375 3.48047C0.433594 3.48047 0 3.91406 0 4.41797C0 4.93359 0.433594 5.36719 0.9375 5.36719L2.03906 5.36719C3.01172 5.36719 3.50391 5.87109 3.50391 6.85547L3.50391 18.5039C3.50391 20.6719 4.51172 21.668 6.71484 21.668ZM23.6367 27.7031C24.8203 27.7031 25.8164 26.707 25.8164 25.5352C25.8164 24.3398 24.8203 23.3438 23.6367 23.3438C22.4648 23.3438 21.4688 24.3398 21.4688 25.5352C21.4688 26.707 22.4648 27.7031 23.6367 27.7031ZM11.0742 27.7031C12.2578 27.7031 13.2422 26.707 13.2422 25.5352C13.2422 24.3398 12.2578 23.3438 11.0742 23.3438C9.89062 23.3438 8.90625 24.3398 8.90625 25.5352C8.90625 26.707 9.89062 27.7031 11.0742 27.7031Z" fill="black" fill-opacity="0.85"/>
  <path d="M26.0508 17.918C27.75 17.918 28.7344 17.0039 28.7344 15.3984L28.7344 5.88281C28.7344 4.28906 27.75 3.36328 26.0508 3.36328L10.0547 3.36328C8.35547 3.36328 7.37109 4.28906 7.37109 5.88281L7.37109 15.3984C7.37109 17.0039 8.35547 17.918 10.0547 17.918ZM26.0391 16.2188L10.0664 16.2188C9.43359 16.2188 9.08203 15.9023 9.08203 15.3281L9.08203 5.95312C9.08203 5.39062 9.43359 5.07422 10.0664 5.07422L26.0391 5.07422C26.6719 5.07422 27.0234 5.39062 27.0234 5.95312L27.0234 15.3281C27.0234 15.9023 26.6719 16.2188 26.0391 16.2188ZM24.8906 17.2031L24.8906 4.61719L23.1914 4.61719L23.1914 17.2031ZM12.9141 17.2031L12.9141 4.14844L11.2148 4.14844L11.2148 17.2031ZM22.875 4.38281L22.875 2.67188C22.875 0.9375 21.9258 0 20.1562 0L15.9492 0C14.1328 0 13.2188 0.890625 13.2188 2.67188L13.2188 4.35938L14.8711 4.35938L14.8711 2.56641C14.8711 1.92188 15.2344 1.57031 15.9141 1.57031L20.1914 1.57031C20.8711 1.57031 21.2227 1.92188 21.2227 2.56641L21.2227 4.38281Z" fill="black" fill-opacity="0.85"/>
 </g>
</svg>
