<?xml version="1.0" encoding="UTF-8"?>
<!--Generator: Apple Native CoreSVG 360-->
<!DOCTYPE svg
PUBLIC "-//W3C//DTD SVG 1.1//EN"
       "http://www.w3.org/Graphics/SVG/1.1/DTD/svg11.dtd">
<svg version="1.1" xmlns="http://www.w3.org/2000/svg" xmlns:xlink="http://www.w3.org/1999/xlink" viewBox="0 0 25.7812 28.3711">
 <g>
  <rect height="28.3711" opacity="0" width="25.7812" x="0" y="0"/>
  <path d="M13.1719 2.50781L13.1719 5.84766L13.6758 5.84766C15.5391 5.84766 16.8398 7.13672 16.8398 9L16.8398 12L15.0234 12L15.0234 9.09375C15.0234 8.23828 14.4727 7.66406 13.6523 7.66406L3.1875 7.66406C2.37891 7.66406 1.81641 8.23828 1.81641 9.09375L1.81641 20.707L5.90625 20.707L5.90625 22.5234L1.81641 22.5234L1.81641 23.5664C1.81641 24.4219 2.37891 24.9961 3.1875 24.9961L5.90625 24.9961L5.90625 25.7227C5.90625 26.1349 5.95523 26.4988 6.05482 26.8125L5.25 26.8125L5.25 27.375C5.25 27.9844 4.85156 28.3711 4.24219 28.3711L3.59766 28.3711C2.98828 28.3711 2.58984 27.9844 2.58984 27.375L2.58984 26.7664C1.03825 26.531 0 25.3236 0 23.6484L0 9C0 7.13672 1.30078 5.84766 3.16406 5.84766L3.67969 5.84766L3.67969 2.50781C3.67969 1.00781 4.65234 0.046875 6.21094 0.046875L10.7461 0.046875C12.2344 0.046875 13.1719 1.00781 13.1719 2.50781ZM6.28125 1.71094C5.75391 1.71094 5.42578 2.01562 5.42578 2.49609L5.42578 5.84766L11.4258 5.84766L11.4258 2.49609C11.4258 2.01562 11.1328 1.71094 10.6641 1.71094Z" fill="black" fill-opacity="0.85"/>
  <path d="M8.57812 28.3711L22.7578 28.3711C24.5391 28.3711 25.4297 27.4922 25.4297 25.7227L25.4297 17.6016C25.4297 15.8438 24.5391 14.9531 22.7578 14.9531L20.0039 14.9531L20.0039 14.4023C20.0039 12.7734 19.1133 12 17.5547 12L13.7695 12C12.3047 12 11.3438 12.7734 11.3438 14.4023L11.3438 14.9531L8.57812 14.9531C6.80859 14.9531 5.90625 15.8438 5.90625 17.6016L5.90625 25.7227C5.90625 27.4922 6.80859 28.3711 8.57812 28.3711ZM12.8203 14.9531L12.8203 14.3086C12.8203 13.7109 13.1484 13.3945 13.7578 13.3945L17.5781 13.3945C18.1875 13.3945 18.5273 13.7109 18.5273 14.3086L18.5273 14.9531ZM8.58984 26.6133C7.95703 26.6133 7.66406 26.332 7.66406 25.6523L7.66406 17.6602C7.66406 17.0039 7.95703 16.7109 8.58984 16.7109L9.44531 16.7109L9.44531 26.6133ZM10.9688 26.6133L10.9688 16.7109L20.3789 16.7109L20.3789 26.6133ZM21.8906 26.6133L21.8906 16.7109L22.7461 16.7109C23.3789 16.7109 23.6836 17.0039 23.6836 17.6602L23.6836 25.6523C23.6836 26.332 23.3789 26.6133 22.7461 26.6133Z" fill="black" fill-opacity="0.85"/>
 </g>
</svg>
