<?xml version="1.0" encoding="UTF-8"?>
<!--Generator: Apple Native CoreSVG 360-->
<!DOCTYPE svg
PUBLIC "-//W3C//DTD SVG 1.1//EN"
       "http://www.w3.org/Graphics/SVG/1.1/DTD/svg11.dtd">
<svg version="1.1" xmlns="http://www.w3.org/2000/svg" xmlns:xlink="http://www.w3.org/1999/xlink" viewBox="0 0 31.7578 28.207">
 <g>
  <rect height="28.207" opacity="0" width="31.7578" x="0" y="0"/>
  <path d="M22.1133 13.5234C22.1133 14.9007 21.6643 16.1874 20.9017 17.2383L18.2694 17.2383C19.4497 16.4207 20.2266 15.0569 20.2266 13.5234C20.2266 11.0391 18.1875 9 15.7031 9C13.2188 9 11.1797 11.0391 11.1797 13.5234C11.1797 15.0569 11.9566 16.4207 13.1369 17.2383L10.5045 17.2383C9.74196 16.1874 9.29297 14.9007 9.29297 13.5234C9.29297 10.0078 12.1992 7.10156 15.7031 7.10156C19.207 7.10156 22.1133 10.0078 22.1133 13.5234ZM7.16016 13.2188C7.17188 13.7461 6.71484 14.168 6.10547 14.168L3.22266 14.168C2.625 14.168 2.17969 13.7461 2.17969 13.2188C2.17969 12.6914 2.625 12.2695 3.22266 12.2695L6.10547 12.2695C6.71484 12.2695 7.14844 12.7031 7.16016 13.2188ZM29.2266 13.2188C29.2266 13.7461 28.793 14.168 28.1836 14.168L25.3008 14.168C24.6914 14.168 24.2578 13.7461 24.2461 13.2188C24.2344 12.6914 24.6914 12.2695 25.3008 12.2695L28.1836 12.2695C28.793 12.2695 29.2266 12.7031 29.2266 13.2188ZM7.54688 4.01953L9.59766 6.05859C10.0195 6.49219 10.0195 7.10156 9.65625 7.47656C9.29297 7.85156 8.67188 7.83984 8.23828 7.40625L6.19922 5.36719C5.76562 4.93359 5.76562 4.32422 6.14062 3.96094C6.51562 3.59766 7.11328 3.58594 7.54688 4.01953ZM25.2656 3.96094C25.6289 4.33594 25.6406 4.93359 25.207 5.36719L23.168 7.40625C22.7344 7.83984 22.1133 7.83984 21.75 7.47656C21.375 7.11328 21.3867 6.49219 21.8086 6.05859L23.8477 4.01953C24.293 3.58594 24.9023 3.58594 25.2656 3.96094ZM16.6523 1.04297L16.6523 3.92578C16.6523 4.52344 16.2305 4.96875 15.7031 4.98047C15.1758 4.99219 14.7539 4.52344 14.7539 3.92578L14.7539 1.04297C14.7539 0.433594 15.1758 0 15.7031 0C16.2305 0 16.6523 0.433594 16.6523 1.04297Z" fill="black" fill-opacity="0.85"/>
  <path d="M3.77344 18.7148L27.5742 18.7148C27.9961 18.7148 28.3125 18.3984 28.3125 17.9766C28.3125 17.5547 27.9961 17.2383 27.5742 17.2383L3.77344 17.2383C3.36328 17.2383 3.03516 17.5547 3.03516 17.9766C3.03516 18.3984 3.36328 18.7148 3.77344 18.7148ZM4.82812 22.5117C5.16797 22.5117 5.42578 22.2422 5.42578 21.9141C5.42578 21.5742 5.16797 21.3047 4.82812 21.3047C4.48828 21.3047 4.23047 21.5742 4.23047 21.9141C4.23047 22.2422 4.48828 22.5117 4.82812 22.5117ZM9.77344 22.5117C10.1133 22.5117 10.3828 22.2422 10.3828 21.9141C10.3828 21.5742 10.1133 21.3047 9.77344 21.3047C9.44531 21.3047 9.17578 21.5742 9.17578 21.9141C9.17578 22.2422 9.44531 22.5117 9.77344 22.5117ZM14.7305 22.5117C15.0703 22.5117 15.3281 22.2422 15.3281 21.9141C15.3281 21.5742 15.0703 21.3047 14.7305 21.3047C14.3906 21.3047 14.1328 21.5742 14.1328 21.9141C14.1328 22.2422 14.3906 22.5117 14.7305 22.5117ZM19.6758 22.5117C20.0156 22.5117 20.2852 22.2422 20.2852 21.9141C20.2852 21.5742 20.0156 21.3047 19.6758 21.3047C19.3477 21.3047 19.0781 21.5742 19.0781 21.9141C19.0781 22.2422 19.3477 22.5117 19.6758 22.5117ZM24.6328 22.5117C24.9727 22.5117 25.2305 22.2422 25.2305 21.9141C25.2305 21.5742 24.9727 21.3047 24.6328 21.3047C24.293 21.3047 24.0352 21.5742 24.0352 21.9141C24.0352 22.2422 24.293 22.5117 24.6328 22.5117ZM3.32812 25.3477C3.66797 25.3477 3.9375 25.0898 3.9375 24.75C3.9375 24.4102 3.66797 24.1523 3.32812 24.1523C3 24.1523 2.73047 24.4102 2.73047 24.75C2.73047 25.0898 3 25.3477 3.32812 25.3477ZM8.28516 25.3477C8.61328 25.3477 8.88281 25.0898 8.88281 24.75C8.88281 24.4102 8.61328 24.1523 8.28516 24.1523C7.94531 24.1523 7.6875 24.4102 7.6875 24.75C7.6875 25.0898 7.94531 25.3477 8.28516 25.3477ZM13.2305 25.3477C13.5703 25.3477 13.8398 25.0898 13.8398 24.75C13.8398 24.4102 13.5703 24.1523 13.2305 24.1523C12.9023 24.1523 12.6328 24.4102 12.6328 24.75C12.6328 25.0898 12.9023 25.3477 13.2305 25.3477ZM18.1875 25.3477C18.5156 25.3477 18.7852 25.0898 18.7852 24.75C18.7852 24.4102 18.5156 24.1523 18.1875 24.1523C17.8477 24.1523 17.5781 24.4102 17.5781 24.75C17.5781 25.0898 17.8477 25.3477 18.1875 25.3477ZM23.1328 25.3477C23.4727 25.3477 23.7422 25.0898 23.7422 24.75C23.7422 24.4102 23.4727 24.1523 23.1328 24.1523C22.8047 24.1523 22.5352 24.4102 22.5352 24.75C22.5352 25.0898 22.8047 25.3477 23.1328 25.3477ZM28.0898 25.3477C28.418 25.3477 28.6875 25.0898 28.6875 24.75C28.6875 24.4102 28.418 24.1523 28.0898 24.1523C27.75 24.1523 27.4805 24.4102 27.4805 24.75C27.4805 25.0898 27.75 25.3477 28.0898 25.3477ZM6.78516 28.1953C7.125 28.1953 7.38281 27.9258 7.38281 27.5977C7.38281 27.2578 7.125 26.9883 6.78516 26.9883C6.44531 26.9883 6.1875 27.2578 6.1875 27.5977C6.1875 27.9258 6.44531 28.1953 6.78516 28.1953ZM11.7422 28.1953C12.0703 28.1953 12.3398 27.9258 12.3398 27.5977C12.3398 27.2578 12.0703 26.9883 11.7422 26.9883C11.4023 26.9883 11.1328 27.2578 11.1328 27.5977C11.1328 27.9258 11.4023 28.1953 11.7422 28.1953ZM16.6875 28.1953C17.0273 28.1953 17.2852 27.9258 17.2852 27.5977C17.2852 27.2578 17.0273 26.9883 16.6875 26.9883C16.3477 26.9883 16.0898 27.2578 16.0898 27.5977C16.0898 27.9258 16.3477 28.1953 16.6875 28.1953ZM21.6445 28.1953C21.9727 28.1953 22.2422 27.9258 22.2422 27.5977C22.2422 27.2578 21.9727 26.9883 21.6445 26.9883C21.3047 26.9883 21.0352 27.2578 21.0352 27.5977C21.0352 27.9258 21.3047 28.1953 21.6445 28.1953ZM26.5898 28.1953C26.9297 28.1953 27.1875 27.9258 27.1875 27.5977C27.1875 27.2578 26.9297 26.9883 26.5898 26.9883C26.25 26.9883 25.9922 27.2578 25.9922 27.5977C25.9922 27.9258 26.25 28.1953 26.5898 28.1953Z" fill="black" fill-opacity="0.85"/>
 </g>
</svg>
