<?xml version="1.0" encoding="UTF-8"?>
<!--Generator: Apple Native CoreSVG 360-->
<!DOCTYPE svg
PUBLIC "-//W3C//DTD SVG 1.1//EN"
       "http://www.w3.org/Graphics/SVG/1.1/DTD/svg11.dtd">
<svg version="1.1" xmlns="http://www.w3.org/2000/svg" xmlns:xlink="http://www.w3.org/1999/xlink" viewBox="0 0 31.7578 28.207">
 <g>
  <rect height="28.207" opacity="0" width="31.7578" x="0" y="0"/>
  <path d="M22.1133 13.5234C22.1133 14.9007 21.6643 16.1874 20.9017 17.2383L18.2694 17.2383C19.4497 16.4207 20.2266 15.0569 20.2266 13.5234C20.2266 11.0391 18.1875 9 15.7031 9C13.2188 9 11.1797 11.0391 11.1797 13.5234C11.1797 15.0569 11.9566 16.4207 13.1369 17.2383L10.5045 17.2383C9.74196 16.1874 9.29297 14.9007 9.29297 13.5234C9.29297 10.0078 12.1992 7.10156 15.7031 7.10156C19.207 7.10156 22.1133 10.0078 22.1133 13.5234ZM7.16016 13.2188C7.17188 13.7461 6.71484 14.168 6.10547 14.168L3.22266 14.168C2.625 14.168 2.17969 13.7461 2.17969 13.2188C2.17969 12.6914 2.625 12.2695 3.22266 12.2695L6.10547 12.2695C6.71484 12.2695 7.14844 12.7031 7.16016 13.2188ZM29.2266 13.2188C29.2266 13.7461 28.793 14.168 28.1836 14.168L25.3008 14.168C24.6914 14.168 24.2578 13.7461 24.2461 13.2188C24.2344 12.6914 24.6914 12.2695 25.3008 12.2695L28.1836 12.2695C28.793 12.2695 29.2266 12.7031 29.2266 13.2188ZM7.54688 4.01953L9.59766 6.05859C10.0195 6.49219 10.0195 7.10156 9.65625 7.47656C9.29297 7.85156 8.67188 7.83984 8.23828 7.40625L6.19922 5.36719C5.76562 4.93359 5.76562 4.32422 6.14062 3.96094C6.51562 3.59766 7.11328 3.58594 7.54688 4.01953ZM25.2656 3.96094C25.6289 4.33594 25.6406 4.93359 25.207 5.36719L23.168 7.40625C22.7344 7.83984 22.1133 7.83984 21.75 7.47656C21.375 7.11328 21.3867 6.49219 21.8086 6.05859L23.8477 4.01953C24.293 3.58594 24.9023 3.58594 25.2656 3.96094ZM16.6523 1.04297L16.6523 3.92578C16.6523 4.52344 16.2305 4.98047 15.7031 4.98047C15.1758 4.98047 14.7539 4.52344 14.7539 3.92578L14.7539 1.04297C14.7539 0.433594 15.1758 0 15.7031 0C16.2305 0 16.6523 0.433594 16.6523 1.04297Z" fill="black" fill-opacity="0.85"/>
  <path d="M8.56641 24.1992L10.0898 21.5625C10.3008 21.1992 10.1836 20.7891 9.84375 20.5781C9.48047 20.3789 9.08203 20.4961 8.87109 20.8477L7.33594 23.5195C7.13672 23.8594 7.24219 24.2695 7.59375 24.4688C7.94531 24.668 8.36719 24.5508 8.56641 24.1992ZM11.2852 27.5391L14.7539 21.5391C14.9531 21.1992 14.8477 20.8008 14.5195 20.5898C14.1797 20.3906 13.7461 20.4961 13.5469 20.8477L10.1016 26.8242C9.90234 27.1875 10.0078 27.5977 10.3594 27.7969C10.6875 27.9961 11.0859 27.8906 11.2852 27.5391ZM17.8828 24.1875L19.418 21.5508C19.6289 21.1875 19.5117 20.7773 19.1602 20.5664C18.8086 20.3672 18.4102 20.4844 18.1875 20.8359L16.6523 23.5078C16.4531 23.8477 16.5586 24.2578 16.9219 24.457C17.2617 24.6562 17.6953 24.5391 17.8828 24.1875ZM20.6133 27.5273L24.0703 21.5273C24.2812 21.1875 24.1758 20.7891 23.8359 20.5781C23.5078 20.3789 23.0742 20.4844 22.8633 20.8359L19.4297 26.8125C19.2305 27.1758 19.3242 27.5859 19.6758 27.7852C20.0156 27.9844 20.4141 27.8789 20.6133 27.5273ZM3.77344 18.7148L27.5742 18.7148C27.9961 18.7148 28.3125 18.3984 28.3125 17.9766C28.3125 17.5547 27.9961 17.2383 27.5742 17.2383L3.77344 17.2383C3.36328 17.2383 3.03516 17.5547 3.03516 17.9766C3.03516 18.3984 3.36328 18.7148 3.77344 18.7148Z" fill="black" fill-opacity="0.85"/>
 </g>
</svg>
