<?xml version="1.0" encoding="UTF-8"?>
<!--Generator: Apple Native CoreSVG 360-->
<!DOCTYPE svg
PUBLIC "-//W3C//DTD SVG 1.1//EN"
       "http://www.w3.org/Graphics/SVG/1.1/DTD/svg11.dtd">
<svg version="1.1" xmlns="http://www.w3.org/2000/svg" xmlns:xlink="http://www.w3.org/1999/xlink" viewBox="0 0 30.3867 20.918">
 <g>
  <rect height="20.918" opacity="0" width="30.3867" x="0" y="0"/>
  <path d="M21.4219 13.5234C21.4219 14.9076 20.969 16.1901 20.201 17.2383L17.5349 17.2383C18.7417 16.446 19.5469 15.0719 19.5469 13.5234C19.5469 11.0391 17.4961 8.98828 15.0234 8.98828C12.5391 8.98828 10.4883 11.0391 10.4883 13.5234C10.4883 15.0719 11.2935 16.446 12.5003 17.2383L9.83412 17.2383C9.06617 16.1901 8.61328 14.9076 8.61328 13.5234C8.61328 10.0078 11.5195 7.10156 15.0234 7.10156C18.5156 7.10156 21.4219 10.0078 21.4219 13.5234ZM6.48047 13.2188C6.49219 13.7461 6.03516 14.168 5.42578 14.168L2.54297 14.168C1.93359 14.168 1.5 13.7461 1.5 13.2188C1.5 12.6914 1.93359 12.2695 2.54297 12.2695L5.42578 12.2695C6.02344 12.2695 6.46875 12.6914 6.48047 13.2188ZM28.5352 13.2188C28.5352 13.7461 28.1016 14.168 27.4922 14.168L24.6094 14.168C24.0117 14.168 23.5664 13.7461 23.5547 13.2188C23.543 12.6914 24.0117 12.2695 24.6094 12.2695L27.4922 12.2695C28.1016 12.2695 28.5352 12.6914 28.5352 13.2188ZM6.86719 4.01953L8.90625 6.05859C9.33984 6.48047 9.33984 7.10156 8.97656 7.47656C8.61328 7.85156 7.98047 7.83984 7.55859 7.40625L5.51953 5.36719C5.07422 4.93359 5.08594 4.32422 5.46094 3.96094C5.83594 3.59766 6.43359 3.57422 6.86719 4.01953ZM24.5742 3.96094C24.9375 4.33594 24.9609 4.93359 24.5156 5.36719L22.4766 7.40625C22.0547 7.83984 21.4336 7.83984 21.0586 7.47656C20.6836 7.11328 20.6953 6.48047 21.1289 6.05859L23.168 4.01953C23.6016 3.57422 24.2109 3.58594 24.5742 3.96094ZM15.9727 1.04297L15.9727 3.92578C15.9727 4.52344 15.5391 4.96875 15.0234 4.98047C14.4961 4.99219 14.0625 4.52344 14.0625 3.92578L14.0625 1.04297C14.0625 0.433594 14.4961 0 15.0234 0C15.5391 0 15.9727 0.433594 15.9727 1.04297Z" fill="black" fill-opacity="0.85"/>
  <path d="M1.01953 19.1133L29.0156 19.1133C29.5664 19.1133 30.0352 18.6914 30.0352 18.1758C30.0352 17.6602 29.5664 17.2383 29.0156 17.2383L1.01953 17.2383C0.46875 17.2383 0 17.6602 0 18.1758C0 18.6914 0.46875 19.1133 1.01953 19.1133Z" fill="black" fill-opacity="0.85"/>
 </g>
</svg>
