<?xml version="1.0" encoding="UTF-8"?>
<!--Generator: Apple Native CoreSVG 360-->
<!DOCTYPE svg
PUBLIC "-//W3C//DTD SVG 1.1//EN"
       "http://www.w3.org/Graphics/SVG/1.1/DTD/svg11.dtd">
<svg version="1.1" xmlns="http://www.w3.org/2000/svg" xmlns:xlink="http://www.w3.org/1999/xlink" viewBox="0 0 31.7578 29.7305">
 <g>
  <rect height="29.7305" opacity="0" width="31.7578" x="0" y="0"/>
  <path d="M22.1133 14.2852C22.1133 15.6624 21.6643 16.9491 20.9017 18L18.2694 18C19.4497 17.1824 20.2266 15.8186 20.2266 14.2852C20.2266 11.8008 18.1875 9.76172 15.7031 9.76172C13.2188 9.76172 11.1797 11.8008 11.1797 14.2852C11.1797 15.8186 11.9566 17.1824 13.1369 18L10.5045 18C9.74196 16.9491 9.29297 15.6624 9.29297 14.2852C9.29297 10.7695 12.1992 7.86328 15.7031 7.86328C19.207 7.86328 22.1133 10.7695 22.1133 14.2852ZM7.16016 13.9805C7.17188 14.5078 6.71484 14.9297 6.10547 14.9297L3.22266 14.9297C2.625 14.9297 2.17969 14.5078 2.17969 13.9805C2.17969 13.4531 2.625 13.0312 3.22266 13.0312L6.10547 13.0312C6.71484 13.0312 7.14844 13.4648 7.16016 13.9805ZM29.2266 13.9805C29.2266 14.5078 28.793 14.9297 28.1836 14.9297L25.3008 14.9297C24.6914 14.9297 24.2578 14.5078 24.2461 13.9805C24.2344 13.4531 24.6914 13.0312 25.3008 13.0312L28.1836 13.0312C28.793 13.0312 29.2266 13.4648 29.2266 13.9805ZM7.54688 4.78125L9.59766 6.82031C10.0195 7.25391 10.0195 7.86328 9.65625 8.23828C9.29297 8.61328 8.67188 8.60156 8.23828 8.16797L6.19922 6.12891C5.76562 5.69531 5.76562 5.08594 6.14062 4.72266C6.51562 4.35938 7.11328 4.34766 7.54688 4.78125ZM25.2656 4.72266C25.6289 5.09766 25.6406 5.69531 25.207 6.12891L23.168 8.16797C22.7344 8.60156 22.1133 8.60156 21.75 8.23828C21.375 7.875 21.3867 7.25391 21.8086 6.82031L23.8477 4.78125C24.293 4.34766 24.9023 4.34766 25.2656 4.72266ZM16.6523 1.80469L16.6523 4.6875C16.6523 5.28516 16.2305 5.74219 15.7031 5.74219C15.1758 5.74219 14.7539 5.28516 14.7539 4.6875L14.7539 1.80469C14.7539 1.19531 15.1758 0.761719 15.7031 0.761719C16.2305 0.761719 16.6523 1.19531 16.6523 1.80469Z" fill="black" fill-opacity="0.85"/>
  <path d="M9.21094 25.3359C9.43359 25.3359 9.57422 25.1367 9.5625 24.9141L9.49219 23.8008L10.418 24.4336C10.5938 24.5508 10.8516 24.5039 10.9688 24.3281C11.0742 24.1523 11.0156 23.8711 10.793 23.7773L9.78516 23.2852L10.8047 22.7812C11.0156 22.6758 11.0625 22.418 10.9805 22.2422C10.875 22.0547 10.5938 22.0195 10.418 22.1367L9.49219 22.7812L9.57422 21.6562C9.59766 21.4219 9.43359 21.2344 9.21094 21.2344C8.96484 21.2344 8.82422 21.4219 8.83594 21.6562L8.90625 22.7812L7.96875 22.1367C7.79297 22.0195 7.54688 22.043 7.42969 22.2422C7.32422 22.418 7.37109 22.6641 7.59375 22.7812L8.61328 23.2852L7.59375 23.7773C7.37109 23.8828 7.3125 24.1406 7.41797 24.3281C7.52344 24.5156 7.79297 24.5508 7.96875 24.4336L8.90625 23.8008L8.84766 24.9141C8.83594 25.1367 8.96484 25.3359 9.21094 25.3359ZM15.7031 25.3359C15.9141 25.3359 16.0664 25.1367 16.0547 24.9141L15.9844 23.8008L16.9102 24.4336C17.0859 24.5508 17.3438 24.5039 17.4609 24.3281C17.5664 24.1523 17.5078 23.8711 17.2734 23.7773L16.2773 23.2852L17.2852 22.7812C17.5078 22.6758 17.5547 22.418 17.4727 22.2422C17.3672 22.0547 17.0859 22.0195 16.9102 22.1367L15.9844 22.7812L16.0664 21.6562C16.0898 21.4219 15.9141 21.2344 15.7031 21.2344C15.457 21.2344 15.3164 21.4219 15.3281 21.6562L15.3984 22.7812L14.4609 22.1367C14.2852 22.0195 14.0391 22.043 13.9219 22.2422C13.8164 22.418 13.8633 22.6641 14.0859 22.7812L15.1055 23.2852L14.0859 23.7773C13.8633 23.8828 13.8047 24.1406 13.9102 24.3281C14.0156 24.5156 14.2852 24.5508 14.4609 24.4336L15.3984 23.8008L15.3398 24.9141C15.3281 25.1367 15.457 25.3359 15.7031 25.3359ZM22.1953 25.3359C22.4062 25.3359 22.5586 25.1367 22.5469 24.9141L22.4766 23.8008L23.4023 24.4336C23.5781 24.5508 23.8359 24.5039 23.9531 24.3281C24.0586 24.1523 24 23.8711 23.7656 23.7773L22.7695 23.2852L23.7773 22.7812C24 22.6758 24.0469 22.418 23.9648 22.2422C23.8594 22.0547 23.5781 22.0195 23.4023 22.1367L22.4766 22.7812L22.5586 21.6562C22.582 21.4219 22.4062 21.2344 22.1953 21.2344C21.9492 21.2344 21.8086 21.4219 21.8203 21.6562L21.8906 22.7812L20.9531 22.1367C20.7773 22.0195 20.5312 22.043 20.4141 22.2422C20.3086 22.418 20.3555 22.6641 20.5781 22.7812L21.5859 23.2852L20.5781 23.7773C20.3555 23.8828 20.2969 24.1406 20.4023 24.3281C20.5078 24.5156 20.7773 24.5508 20.9531 24.4336L21.8906 23.8008L21.832 24.9141C21.8203 25.1367 21.9492 25.3359 22.1953 25.3359ZM6.66797 29.7305C6.89062 29.7305 7.03125 29.5312 7.01953 29.3086L6.94922 28.1953L7.875 28.8281C8.05078 28.9453 8.30859 28.8984 8.42578 28.7227C8.54297 28.5469 8.47266 28.2773 8.25 28.1719L7.24219 27.6797L8.26172 27.1758C8.47266 27.0703 8.53125 26.8125 8.4375 26.6367C8.33203 26.4492 8.05078 26.4141 7.875 26.5312L6.94922 27.1758L7.03125 26.0508C7.05469 25.8164 6.89062 25.6289 6.66797 25.6289C6.42188 25.6289 6.28125 25.8164 6.29297 26.0508L6.36328 27.1758L5.42578 26.5312C5.25 26.4141 5.00391 26.4375 4.88672 26.6367C4.78125 26.8125 4.82812 27.0586 5.05078 27.1758L6.07031 27.6797L5.05078 28.1719C4.82812 28.2773 4.76953 28.5352 4.875 28.7227C4.98047 28.9102 5.25 28.9453 5.42578 28.8281L6.36328 28.1953L6.30469 29.3086C6.29297 29.5312 6.42188 29.7305 6.66797 29.7305ZM13.1602 29.7305C13.3828 29.7305 13.5234 29.5312 13.5117 29.3086L13.4414 28.1953L14.3672 28.8281C14.543 28.9453 14.8008 28.8984 14.918 28.7227C15.0234 28.5469 14.9648 28.2773 14.7305 28.1719L13.7344 27.6797L14.7422 27.1758C14.9648 27.0703 15.0117 26.8125 14.9297 26.6367C14.8242 26.4492 14.543 26.4141 14.3672 26.5312L13.4414 27.1758L13.5234 26.0508C13.5469 25.8164 13.3828 25.6289 13.1602 25.6289C12.9141 25.6289 12.7734 25.8164 12.7852 26.0508L12.8555 27.1758L11.918 26.5312C11.7422 26.4141 11.4961 26.4375 11.3789 26.6367C11.2734 26.8125 11.3203 27.0586 11.543 27.1758L12.5625 27.6797L11.543 28.1719C11.3203 28.2773 11.2617 28.5352 11.3672 28.7227C11.4727 28.9102 11.7422 28.9453 11.918 28.8281L12.8555 28.1953L12.7969 29.3086C12.7852 29.5312 12.9141 29.7305 13.1602 29.7305ZM19.6523 29.7305C19.8633 29.7305 20.0156 29.5312 20.0039 29.3086L19.9336 28.1953L20.8594 28.8281C21.0352 28.9453 21.293 28.8984 21.4102 28.7227C21.5156 28.5469 21.457 28.2773 21.2227 28.1719L20.2266 27.6797L21.2344 27.1758C21.457 27.0703 21.5039 26.8125 21.4219 26.6367C21.3164 26.4492 21.0352 26.4141 20.8594 26.5312L19.9336 27.1758L20.0156 26.0508C20.0391 25.8164 19.8633 25.6289 19.6523 25.6289C19.4062 25.6289 19.2656 25.8164 19.2773 26.0508L19.3477 27.1758L18.4102 26.5312C18.2344 26.4141 17.9883 26.4375 17.8711 26.6367C17.7656 26.8125 17.8125 27.0586 18.0352 27.1758L19.043 27.6797L18.0352 28.1719C17.8125 28.2773 17.7539 28.5352 17.8594 28.7227C17.9648 28.9102 18.2344 28.9453 18.4102 28.8281L19.3477 28.1953L19.2891 29.3086C19.2773 29.5312 19.4062 29.7305 19.6523 29.7305ZM3.77344 19.4766L27.5742 19.4766C27.9961 19.4766 28.3125 19.1602 28.3125 18.7383C28.3125 18.3164 27.9961 18 27.5742 18L3.77344 18C3.36328 18 3.03516 18.3164 3.03516 18.7383C3.03516 19.1602 3.36328 19.4766 3.77344 19.4766Z" fill="black" fill-opacity="0.85"/>
 </g>
</svg>
