<?xml version="1.0" encoding="UTF-8"?>
<!--Generator: Apple Native CoreSVG 360-->
<!DOCTYPE svg
PUBLIC "-//W3C//DTD SVG 1.1//EN"
       "http://www.w3.org/Graphics/SVG/1.1/DTD/svg11.dtd">
<svg version="1.1" xmlns="http://www.w3.org/2000/svg" xmlns:xlink="http://www.w3.org/1999/xlink" viewBox="0 0 36.5742 12.2227">
 <g>
  <rect height="12.2227" opacity="0" width="36.5742" x="0" y="0"/>
  <path d="M36.2227 0.972656C36.2227 1.65234 35.2852 2.15625 35.0508 3.73828L34.8281 5.19141C34.1602 9.66797 31.2539 12.2109 27.1289 12.2109C24.3047 12.2109 21.7383 10.9102 20.332 7.85156L19.0664 5.05078C18.8672 4.61719 18.5156 4.38281 18.1172 4.38281C17.707 4.38281 17.3555 4.61719 17.168 5.05078L15.8906 7.85156C14.4961 10.9102 11.9297 12.2109 9.10547 12.2109C4.96875 12.2109 2.0625 9.66797 1.40625 5.19141L1.18359 3.73828C0.949219 2.15625 0 1.65234 0 0.972656C0 0.375 0.445312 0 1.25391 0C4.93359 0 8.28516 0.1875 10.2773 0.480469C14.4609 1.10156 16.1016 2.16797 18.1172 2.16797C20.1211 2.16797 21.7617 1.10156 25.9453 0.480469C27.9375 0.1875 31.2891 0 34.9805 0C35.7891 0 36.2227 0.375 36.2227 0.972656ZM3.11719 4.01953C3.11719 7.79297 5.25 10.4414 9.11719 10.4414C12.5273 10.4414 14.5195 8.03906 14.5195 5.05078C14.5195 3.07031 11.9414 2.0625 6.70313 2.0625C4.23047 2.0625 3.11719 2.69531 3.11719 4.01953ZM21.7031 5.05078C21.7031 8.03906 23.707 10.4414 27.1055 10.4414C30.9727 10.4414 33.1055 7.79297 33.1055 4.01953C33.1055 2.69531 32.0039 2.0625 29.5195 2.0625C24.2812 2.0625 21.7031 3.07031 21.7031 5.05078Z" fill="black" fill-opacity="0.85"/>
 </g>
</svg>
