<?xml version="1.0" encoding="UTF-8"?>
<!--Generator: Apple Native CoreSVG 360-->
<!DOCTYPE svg
PUBLIC "-//W3C//DTD SVG 1.1//EN"
       "http://www.w3.org/Graphics/SVG/1.1/DTD/svg11.dtd">
<svg version="1.1" xmlns="http://www.w3.org/2000/svg" xmlns:xlink="http://www.w3.org/1999/xlink" viewBox="0 0 33.5859 30.832">
 <g>
  <rect height="30.832" opacity="0" width="33.5859" x="0" y="0"/>
  <path d="M23.0273 22.043C23.0273 23.4202 22.5783 24.7069 21.8158 25.7578L19.1834 25.7578C20.3638 24.9402 21.1406 23.5764 21.1406 22.043C21.1406 19.5586 19.1016 17.5078 16.6172 17.5078C14.1328 17.5078 12.0938 19.5586 12.0938 22.043C12.0938 23.5764 12.8706 24.9402 14.0509 25.7578L11.4186 25.7578C10.656 24.7069 10.207 23.4202 10.207 22.043C10.207 18.5273 13.1133 15.6211 16.6172 15.6211C20.1211 15.6211 23.0273 18.5273 23.0273 22.043ZM8.07422 21.7383C8.08594 22.2656 7.62891 22.6875 7.01953 22.6875L4.13672 22.6875C3.53906 22.6875 3.09375 22.2656 3.09375 21.7383C3.09375 21.2109 3.53906 20.7891 4.13672 20.7891L7.01953 20.7891C7.62891 20.7891 8.0625 21.2109 8.07422 21.7383ZM30.1406 21.7383C30.1406 22.2656 29.707 22.6875 29.0977 22.6875L26.2148 22.6875C25.6055 22.6875 25.1719 22.2656 25.1602 21.7383C25.1484 21.2109 25.6055 20.7891 26.2148 20.7891L29.0977 20.7891C29.707 20.7891 30.1406 21.2109 30.1406 21.7383ZM8.47266 12.5391L10.5117 14.5781C10.9336 15 10.9336 15.6211 10.5703 15.9961C10.207 16.3711 9.58594 16.3594 9.15234 15.9258L7.11328 13.8867C6.67969 13.4531 6.67969 12.8438 7.05469 12.4805C7.42969 12.1172 8.02734 12.1055 8.47266 12.5391ZM26.1797 12.4805C26.543 12.8555 26.5547 13.4531 26.1211 13.8867L24.082 15.9258C23.6484 16.3594 23.0391 16.3594 22.6641 15.9961C22.2891 15.6328 22.3008 15 22.7227 14.5781L24.7734 12.5391C25.207 12.1055 25.8164 12.1055 26.1797 12.4805Z" fill="black" fill-opacity="0.85"/>
  <path d="M2.625 27.6328L30.6211 27.6328C31.1719 27.6328 31.6406 27.2109 31.6406 26.6953C31.6406 26.1797 31.1719 25.7578 30.6211 25.7578L2.625 25.7578C2.0625 25.7578 1.60547 26.1797 1.60547 26.6953C1.60547 27.2109 2.0625 27.6328 2.625 27.6328Z" fill="black" fill-opacity="0.85"/>
  <path d="M16.6172 11.3789L15.0703 9.49219L13.4766 7.89844C13.3125 7.72266 13.0898 7.62891 12.8555 7.62891C12.3867 7.62891 12.0586 7.94531 12.0586 8.41406C12.0586 8.66016 12.1406 8.84766 12.3398 9.02344L15.9961 12.4336C16.2422 12.6562 16.418 12.7383 16.6289 12.7383C16.8398 12.7383 17.0156 12.6562 17.2617 12.4336L20.918 9.02344C21.1172 8.84766 21.1992 8.66016 21.1992 8.41406C21.1992 7.94531 20.8711 7.62891 20.4023 7.62891C20.168 7.62891 19.9453 7.72266 19.7812 7.89844L18.3047 9.375ZM17.4141 10.9336L17.5781 8.60156L17.5781 4.21875C17.5781 3.64453 17.1328 3.17578 16.6172 3.17578C16.1016 3.17578 15.668 3.64453 15.668 4.21875L15.668 8.60156L15.8203 10.9336C15.8555 11.3789 16.1836 11.7305 16.6172 11.7305C17.0625 11.7305 17.3789 11.3789 17.4141 10.9336Z" fill="black" fill-opacity="0.85"/>
 </g>
</svg>
