<?xml version="1.0" encoding="UTF-8"?>
<!--Generator: Apple Native CoreSVG 360-->
<!DOCTYPE svg
PUBLIC "-//W3C//DTD SVG 1.1//EN"
       "http://www.w3.org/Graphics/SVG/1.1/DTD/svg11.dtd">
<svg version="1.1" xmlns="http://www.w3.org/2000/svg" xmlns:xlink="http://www.w3.org/1999/xlink" viewBox="0 0 29.271 30.443">
 <g>
  <rect height="30.443" opacity="0" width="29.271" x="0" y="0"/>
  <path d="M1.31129 29.1258C2.76441 30.5789 4.66285 30.825 7.13551 29.8875C11.1785 28.3289 15.8191 24.9656 20.155 20.6297C28.2527 12.532 30.8308 6.2508 27.5144 2.93439C24.198-0.382017 17.905 2.18439 9.80738 10.282C5.47144 14.618 2.11988 19.2703 0.561288 23.3133C-0.387931 25.7742-0.130118 27.6727 1.31129 29.1258ZM2.64723 27.8016C1.65113 26.7938 1.58082 25.3758 2.41285 23.536C4.24098 19.5867 7.40504 15.3445 11.1316 11.6063C18.2918 4.44611 23.6941 1.76251 26.1785 4.25861C28.6863 6.7547 25.991 12.1453 18.8308 19.3055C15.1043 23.0438 10.8504 26.1961 6.91285 28.0242C5.07301 28.868 3.64332 28.7977 2.64723 27.8016ZM1.70973 28.0125L2.42457 28.7391L27.0222 4.15314L26.2957 3.42658Z" fill="black" fill-opacity="0.85"/>
 </g>
</svg>
