<?xml version="1.0" encoding="UTF-8"?>
<!--Generator: Apple Native CoreSVG 360-->
<!DOCTYPE svg
PUBLIC "-//W3C//DTD SVG 1.1//EN"
       "http://www.w3.org/Graphics/SVG/1.1/DTD/svg11.dtd">
<svg version="1.1" xmlns="http://www.w3.org/2000/svg" xmlns:xlink="http://www.w3.org/1999/xlink" viewBox="0 0 9.9375 27.1758">
 <g>
  <rect height="27.1758" opacity="0" width="9.9375" x="0" y="0"/>
  <path d="M4.79297 7.80469C6.94922 7.80469 8.69531 6.07031 8.69531 3.90234C8.69531 1.74609 6.94922 0 4.79297 0C2.63672 0 0.890625 1.74609 0.890625 3.90234C0.890625 6.07031 2.63672 7.80469 4.79297 7.80469ZM4.79297 6.26953C3.48047 6.26953 2.42578 5.21484 2.42578 3.90234C2.42578 2.58984 3.48047 1.53516 4.79297 1.53516C6.10547 1.53516 7.16016 2.58984 7.16016 3.90234C7.16016 5.21484 6.10547 6.26953 4.79297 6.26953ZM0.832031 9L8.76562 9C9.22266 9 9.58594 8.625 9.58594 8.16797C9.58594 7.71094 9.22266 7.34766 8.76562 7.34766L0.832031 7.34766C0.363281 7.34766 0 7.71094 0 8.16797C0 8.625 0.363281 9 0.832031 9ZM0.832031 12.7383L8.76562 12.7383C9.22266 12.7383 9.58594 12.3633 9.58594 11.9062C9.58594 11.4492 9.22266 11.0859 8.76562 11.0859L0.832031 11.0859C0.363281 11.0859 0 11.4492 0 11.9062C0 12.3633 0.363281 12.7383 0.832031 12.7383ZM0.832031 16.5234L8.76562 16.5234C9.22266 16.5234 9.58594 16.1602 9.58594 15.7031C9.58594 15.2461 9.22266 14.8711 8.76562 14.8711L0.832031 14.8711C0.363281 14.8711 0 15.2461 0 15.7031C0 16.1602 0.363281 16.5234 0.832031 16.5234ZM1.57031 15.7148L1.57031 21.1406C1.57031 22.5117 2.25 23.1914 3.57422 23.1914L6.02344 23.1914C7.33594 23.1914 8.02734 22.5117 8.02734 21.1406L8.02734 15.7148ZM4.79297 27.1641C6.17578 27.1641 7.28906 26.0508 7.28906 24.6797C7.28906 23.2969 6.17578 22.1836 4.79297 22.1836C3.42188 22.1836 2.30859 23.2969 2.30859 24.6797C2.30859 26.0508 3.42188 27.1641 4.79297 27.1641ZM4.79297 25.6641C4.25391 25.6641 3.80859 25.2188 3.80859 24.6797C3.80859 24.1289 4.25391 23.6836 4.79297 23.6836C5.34375 23.6836 5.78906 24.1289 5.78906 24.6797C5.78906 25.2188 5.34375 25.6641 4.79297 25.6641Z" fill="black" fill-opacity="0.85"/>
 </g>
</svg>
