<?xml version="1.0" encoding="UTF-8"?>
<!--Generator: Apple Native CoreSVG 360-->
<!DOCTYPE svg
PUBLIC "-//W3C//DTD SVG 1.1//EN"
       "http://www.w3.org/Graphics/SVG/1.1/DTD/svg11.dtd">
<svg version="1.1" xmlns="http://www.w3.org/2000/svg" xmlns:xlink="http://www.w3.org/1999/xlink" viewBox="0 0 41.918 19.0664">
 <g>
  <rect height="19.0664" opacity="0" width="41.918" x="0" y="0"/>
  <path d="M2.98828 16.3711L6.63281 16.3711L6.63281 14.4844L3.09375 14.4844C2.33203 14.4844 1.88672 13.9688 1.88672 13.0781L1.88672 11.2969C1.88672 9.19922 3.29297 8.01562 6.22266 7.64062L10.9922 7.04297L16.0781 3.87891C18.668 2.26172 20.2031 1.88672 24.7031 1.88672L33.8555 1.88672C35.8828 1.88672 37.0547 2.44922 38.0156 3.82031L38.543 4.58203C39.2578 5.61328 39.6797 6.87891 39.6797 7.99219L39.6797 13.1133C39.6797 14.0508 39.3164 14.4844 38.4844 14.4844L35.6016 14.4844L35.6016 16.3711L38.5898 16.3711C40.6406 16.3711 41.5664 15.3164 41.5664 12.9961L41.5664 7.99219C41.5664 6.52734 41.0273 4.85156 40.1016 3.51562L39.5742 2.74219C38.2266 0.785156 36.5742 0 33.8555 0L24.7031 0C19.875 0 17.9414 0.46875 15.0703 2.26172L10.3477 5.22656L5.97656 5.76562C1.98047 6.25781 0 8.08594 0 11.2969L0 13.3125C0 15.2227 1.125 16.3711 2.98828 16.3711ZM12.1289 16.3711L30.2109 16.3711L30.2109 14.4844L12.1289 14.4844ZM9.31641 19.043C11.5664 19.043 13.3242 17.2852 13.3242 15.0352C13.3242 12.7852 11.5664 11.0273 9.31641 11.0273C7.06641 11.0273 5.30859 12.7852 5.30859 15.0352C5.30859 17.2852 7.06641 19.043 9.31641 19.043ZM9.31641 17.1562C8.12109 17.1562 7.19531 16.2305 7.19531 15.0352C7.19531 13.8398 8.12109 12.9141 9.31641 12.9141C10.5117 12.9141 11.4375 13.8398 11.4375 15.0352C11.4375 16.2305 10.5117 17.1562 9.31641 17.1562ZM32.9883 19.043C35.2383 19.043 36.9961 17.2852 36.9961 15.0352C36.9961 12.7852 35.2383 11.0273 32.9883 11.0273C30.7383 11.0273 28.9805 12.7852 28.9805 15.0352C28.9805 17.2852 30.7383 19.043 32.9883 19.043ZM32.9883 17.1562C31.793 17.1562 30.8672 16.2305 30.8672 15.0352C30.8672 13.8398 31.793 12.9141 32.9883 12.9141C34.1836 12.9141 35.1094 13.8398 35.1094 15.0352C35.1094 16.2305 34.1836 17.1562 32.9883 17.1562Z" fill="black" fill-opacity="0.85"/>
  <path d="M18.4922 12.6914L23.7188 12.6914C24.3398 12.6914 24.6328 12.1875 24.293 11.6367L21.7383 7.46484C21.4219 6.94922 20.7891 6.9375 20.4727 7.46484L17.9297 11.625C17.5898 12.1758 17.8594 12.6914 18.4922 12.6914Z" fill="black" fill-opacity="0.85"/>
 </g>
</svg>
