<?xml version="1.0" encoding="UTF-8"?>
<!--Generator: Apple Native CoreSVG 360-->
<!DOCTYPE svg
PUBLIC "-//W3C//DTD SVG 1.1//EN"
       "http://www.w3.org/Graphics/SVG/1.1/DTD/svg11.dtd">
<svg version="1.1" xmlns="http://www.w3.org/2000/svg" xmlns:xlink="http://www.w3.org/1999/xlink" viewBox="0 0 44.6719 34.7695">
 <g>
  <rect height="34.7695" opacity="0" width="44.6719" x="0" y="0"/>
  <path d="M19.9301 6.27555C19.3864 6.61451 18.9034 6.93721 18.4702 7.25588C18.3485 6.0353 17.8931 4.92735 17.1896 4.02615L16.3711 4.85156C16.0664 5.14453 15.5859 5.14453 15.2812 4.85156C14.9766 4.54687 14.9883 4.06641 15.2812 3.77344L16.1139 2.94081C15.2394 2.24745 14.1677 1.79079 12.9844 1.65565L12.9844 2.76562C12.9844 3.17578 12.6211 3.52734 12.2109 3.52734C11.8008 3.52734 11.4609 3.17578 11.4609 2.76562L11.4609 1.65215C10.2715 1.78435 9.19369 2.24057 8.31471 2.9358L9.15234 3.77344C9.44531 4.06641 9.44531 4.54687 9.15234 4.85156C8.84766 5.14453 8.35547 5.14453 8.0625 4.85156L7.23431 4.02337C6.40447 5.08718 5.91797 6.43753 5.91797 7.92187C5.91797 9.5625 6.55078 11.0742 7.45312 12.0352C7.65234 12.2344 7.72266 12.4219 7.72266 12.6211C7.72266 13.0547 7.37109 13.418 6.92578 13.418C6.67969 13.418 6.44531 13.2773 6.26953 13.0898C5.07422 11.7773 4.3125 9.91406 4.3125 7.92187C4.3125 3.59766 7.89844-3.55271e-15 12.2109-3.55271e-15C15.9614-3.55271e-15 19.1623 2.72099 19.9301 6.27555ZM0.609375 6.11719L2.84766 7.61719C3.16406 7.81641 3.14062 8.12109 2.85938 8.32031L0.585938 9.82031C0.328125 10.0078 0 9.86719 0 9.51562L0 6.44531C0.0117188 6.08203 0.339844 5.95312 0.609375 6.11719ZM13.4766 8.0625C13.4883 8.78906 12.9727 9.35156 12.2109 9.38672C12.0938 9.375 11.8477 9.36328 11.6953 9.33984L7.6875 8.70703C7.42969 8.66016 7.30078 8.50781 7.28906 8.32031C7.27734 8.14453 7.39453 7.95703 7.62891 7.89844L11.5547 6.92578C11.7188 6.87891 11.9766 6.83203 12.1289 6.80859C12.8438 6.78516 13.418 7.3125 13.4766 8.0625Z" fill="black" fill-opacity="0.85"/>
  <path d="M12.1641 33.2578C12.4453 33.7148 13.0195 33.8555 13.4531 33.6211L43.8633 16.0664C44.2969 15.8203 44.4609 15.2461 44.2031 14.8008C43.9336 14.332 43.3477 14.1797 42.9258 14.4375L12.5039 31.9805C12.082 32.2266 11.918 32.8125 12.1641 33.2578Z" fill="black" fill-opacity="0.85"/>
  <path d="M13.4062 27.1758L15.9609 25.6992L15.1992 24.375L12.7148 25.8164C12.1875 26.1211 11.6602 25.9336 11.2969 25.3125L10.582 24.0703C9.72656 22.5937 10.2305 21.1875 12.1406 19.7461L15.2461 17.3906L17.5312 13.1133C18.6914 10.9336 19.6172 10.043 22.7695 8.21484L29.1914 4.51172C30.6094 3.69141 31.6641 3.60937 32.8945 4.18359L33.5742 4.5C34.4883 4.94531 35.2969 5.64844 35.7539 6.43359L37.8281 10.0312C38.2031 10.6875 38.1211 11.1445 37.5352 11.4727L35.5195 12.6445L36.2812 13.9687L38.3789 12.7617C39.8203 11.9297 40.043 10.8164 39.1055 9.17578L37.0781 5.67187C36.4805 4.64062 35.4258 3.69141 34.2305 3.11719L33.5508 2.80078C31.8164 1.96875 30.3398 2.08594 28.4297 3.1875L22.0078 6.90234C18.6211 8.85937 17.4609 9.96094 16.1719 12.3867L14.0625 16.3828L11.2148 18.5273C8.60156 20.4961 7.95703 22.582 9.25781 24.832L10.0664 26.2383C10.8398 27.5742 12.0938 27.9375 13.4062 27.1758ZM19.8164 23.4727L32.5078 16.1484L31.7461 14.8242L19.0547 22.1484ZM18.9258 26.4844C20.5078 25.582 21.0352 23.625 20.1211 22.0547C19.207 20.4727 17.2617 19.957 15.6797 20.8594C14.1094 21.7734 13.582 23.7187 14.4961 25.3008C15.4102 26.8828 17.3555 27.3984 18.9258 26.4844ZM18.1641 25.1602C17.332 25.6523 16.3008 25.3711 15.8203 24.5391C15.3398 23.6953 15.6094 22.6758 16.4414 22.1836C17.2852 21.7031 18.3164 21.9844 18.7969 22.8164C19.2773 23.6602 19.0078 24.6797 18.1641 25.1602ZM35.5312 16.8984C37.1133 15.9961 37.6406 14.0391 36.7266 12.4687C35.8125 10.8867 33.8672 10.3711 32.2852 11.2734C30.7148 12.1875 30.1875 14.1328 31.1016 15.7148C32.0156 17.2852 33.9609 17.8125 35.5312 16.8984ZM34.7695 15.5742C33.9375 16.0664 32.9062 15.7852 32.4258 14.9531C31.9453 14.1094 32.2148 13.0898 33.0586 12.5977C33.8906 12.1172 34.9219 12.3867 35.4023 13.2305C35.8828 14.0625 35.6133 15.0937 34.7695 15.5742Z" fill="black" fill-opacity="0.85"/>
 </g>
</svg>
