<?xml version="1.0" encoding="UTF-8"?>
<!--Generator: Apple Native CoreSVG 360-->
<!DOCTYPE svg
PUBLIC "-//W3C//DTD SVG 1.1//EN"
       "http://www.w3.org/Graphics/SVG/1.1/DTD/svg11.dtd">
<svg version="1.1" xmlns="http://www.w3.org/2000/svg" xmlns:xlink="http://www.w3.org/1999/xlink" viewBox="0 0 41.918 28.506">
 <g>
  <rect height="28.506" opacity="0" width="41.918" x="0" y="0"/>
  <path d="M2.98828 21.0909L6.63281 21.0909L6.63281 19.2042L3.09375 19.2042C2.33203 19.2042 1.88672 18.6885 1.88672 17.7979L1.88672 16.0167C1.88672 13.919 3.29297 12.7354 6.22266 12.3604L10.9922 11.7627L16.0781 8.59868C18.668 6.98149 20.2031 6.60649 24.7031 6.60649L33.8555 6.60649C35.8828 6.60649 37.0547 7.16899 38.0156 8.54009L38.543 9.30181C39.2578 10.3331 39.6797 11.5987 39.6797 12.712L39.6797 17.8331C39.6797 18.7706 39.3164 19.2042 38.4844 19.2042L35.6016 19.2042L35.6016 21.0909L38.5898 21.0909C40.6406 21.0909 41.5664 20.0362 41.5664 17.7159L41.5664 12.712C41.5664 11.2471 41.0273 9.57134 40.1016 8.2354L39.5742 7.46196C38.2266 5.50493 36.5742 4.71978 33.8555 4.71978L24.7031 4.71978C19.875 4.71978 17.9414 5.18853 15.0703 6.98149L10.3477 9.94634L5.97656 10.4854C1.98047 10.9776 0 12.8057 0 16.0167L0 18.0323C0 19.9424 1.125 21.0909 2.98828 21.0909ZM12.1289 21.0909L30.2109 21.0909L30.2109 19.2042L12.1289 19.2042ZM9.31641 23.7627C11.5664 23.7627 13.3242 22.0049 13.3242 19.7549C13.3242 17.5049 11.5664 15.7471 9.31641 15.7471C7.06641 15.7471 5.30859 17.5049 5.30859 19.7549C5.30859 22.0049 7.06641 23.7627 9.31641 23.7627ZM9.31641 21.876C8.12109 21.876 7.19531 20.9502 7.19531 19.7549C7.19531 18.5596 8.12109 17.6338 9.31641 17.6338C10.5117 17.6338 11.4375 18.5596 11.4375 19.7549C11.4375 20.9502 10.5117 21.876 9.31641 21.876ZM32.9883 23.7627C35.2383 23.7627 36.9961 22.0049 36.9961 19.7549C36.9961 17.5049 35.2383 15.7471 32.9883 15.7471C30.7383 15.7471 28.9805 17.5049 28.9805 19.7549C28.9805 22.0049 30.7383 23.7627 32.9883 23.7627ZM32.9883 21.876C31.793 21.876 30.8672 20.9502 30.8672 19.7549C30.8672 18.5596 31.793 17.6338 32.9883 17.6338C34.1836 17.6338 35.1094 18.5596 35.1094 19.7549C35.1094 20.9502 34.1836 21.876 32.9883 21.876Z" fill="black" fill-opacity="0.85"/>
  <path d="M18.4922 22.8838C17.8594 22.8838 17.5898 23.3995 17.9297 23.9502L20.4727 28.1104C20.7891 28.6495 21.4219 28.626 21.7383 28.1104L24.293 23.9502C24.6328 23.3995 24.3398 22.8838 23.7188 22.8838Z" fill="black" fill-opacity="0.85"/>
  <path d="M18.4922 17.4112L23.7188 17.4112C24.3398 17.4112 24.6328 16.9073 24.293 16.3565L21.7383 12.1846C21.4219 11.669 20.7891 11.6573 20.4727 12.1846L17.9297 16.3448C17.5898 16.8956 17.8594 17.4112 18.4922 17.4112Z" fill="black" fill-opacity="0.85"/>
 </g>
</svg>
