<?xml version="1.0" encoding="UTF-8"?>
<!--Generator: Apple Native CoreSVG 360-->
<!DOCTYPE svg
PUBLIC "-//W3C//DTD SVG 1.1//EN"
       "http://www.w3.org/Graphics/SVG/1.1/DTD/svg11.dtd">
<svg version="1.1" xmlns="http://www.w3.org/2000/svg" xmlns:xlink="http://www.w3.org/1999/xlink" viewBox="0 0 22.125 21.1758">
 <g>
  <rect height="21.1758" opacity="0" width="22.125" x="0" y="0"/>
  <path d="M21.7734 2.41406L21.7734 0.445312C20.0859 0.832031 18.6914 1.47656 17.0156 2.51953L11.6719 5.87109L6.72656 6.46875C2.25 7.00781 0.105469 9.01172 0.105469 12.5742L0.105469 14.8359C0.105469 16.9336 1.30078 18.1641 3.35156 18.1641L7.34766 18.1641L7.34766 16.2773L3.46875 16.2773C2.54297 16.2773 2.00391 15.6211 2.00391 14.5781L2.00391 12.5742C2.00391 10.1484 3.63281 8.77734 6.97266 8.35547L12.3281 7.67578L18.0234 4.125C19.3594 3.29297 20.4609 2.75391 21.7734 2.41406ZM21.7734 18.1641L21.7734 16.2773L13.7461 16.2773L13.7461 18.1641ZM10.4766 21.1758C12.9609 21.1758 14.8711 19.2656 14.8711 16.7812C14.8711 14.3086 12.9609 12.3867 10.4766 12.3867C8.00391 12.3867 6.08203 14.3086 6.08203 16.7812C6.08203 19.2656 8.00391 21.1758 10.4766 21.1758ZM10.4766 19.2773C9.07031 19.2773 7.96875 18.1875 7.96875 16.7812C7.96875 15.375 9.07031 14.2734 10.4766 14.2734C11.8828 14.2734 12.9727 15.375 12.9727 16.7812C12.9727 18.1875 11.8828 19.2773 10.4766 19.2773ZM0.867188 1.6875L5.26172 1.6875C5.73047 1.6875 6.08203 1.79297 6.375 2.08594L11.4375 7.14844L13.0312 6.26953L7.73438 0.972656C7.05469 0.28125 6.15234 0 5.07422 0L0.867188 0C0.328125 0 0 0.328125 0 0.832031C0 1.33594 0.328125 1.6875 0.867188 1.6875Z" fill="black" fill-opacity="0.85"/>
 </g>
</svg>
