<?xml version="1.0" encoding="UTF-8"?>
<!--Generator: Apple Native CoreSVG 360-->
<!DOCTYPE svg
PUBLIC "-//W3C//DTD SVG 1.1//EN"
       "http://www.w3.org/Graphics/SVG/1.1/DTD/svg11.dtd">
<svg version="1.1" xmlns="http://www.w3.org/2000/svg" xmlns:xlink="http://www.w3.org/1999/xlink" viewBox="0 0 39.4262 29.1143">
 <g>
  <rect height="29.1143" opacity="0" width="39.4262" x="0" y="0"/>
  <path d="M7.80686 9.1255L10.3615 10.6138L11.1233 9.28956L8.63889 7.84816C8.11155 7.54347 8.00608 6.99269 8.36936 6.37159L9.0842 5.12941C9.93967 3.65284 11.4045 3.39503 13.6076 4.32081L17.1936 5.83253L22.0451 5.66847C24.5178 5.58644 25.7483 5.938 28.9006 7.76613L35.3225 11.4693C36.7405 12.2896 37.3381 13.1568 37.4553 14.5044L37.5256 15.2661C37.6076 16.2739 37.385 17.3286 36.9397 18.1138L34.8655 21.6997C34.4905 22.3677 34.0451 22.52 33.4709 22.1802L31.4436 21.02L30.6819 22.3443L32.7795 23.5513C34.2209 24.3833 35.2873 24.02 36.2365 22.3794L38.2639 18.8755C38.8498 17.856 39.1545 16.4497 39.049 15.1372L38.9905 14.3872C38.8381 12.4771 37.9944 11.2466 36.0842 10.145L29.674 6.44191C26.2756 4.48488 24.7405 4.02784 21.9983 4.13331L17.4865 4.29738L14.1936 2.90284C11.1936 1.6255 9.06077 2.10597 7.75999 4.36769L6.95139 5.77394C6.17795 7.10988 6.49436 8.3755 7.80686 9.1255ZM14.217 12.8286L26.9084 20.1528L27.6701 18.8403L14.9787 11.5044ZM11.1584 13.5669C12.7405 14.481 14.6858 13.9653 15.5998 12.3833C16.5139 10.8013 15.9865 8.85597 14.4045 7.94191C12.8342 7.03956 10.8889 7.55519 9.97483 9.13722C9.06077 10.7075 9.58811 12.6646 11.1584 13.5669ZM11.9201 12.2427C11.0881 11.7622 10.8186 10.731 11.299 9.89894C11.7795 9.06691 12.8108 8.78566 13.6428 9.26613C14.4865 9.75831 14.7561 10.7778 14.2756 11.6216C13.7951 12.4536 12.7639 12.7349 11.9201 12.2427ZM27.7639 23.1528C29.3459 24.0669 31.2912 23.5513 32.2053 21.9693C33.1194 20.3872 32.592 18.4419 31.01 17.5396C29.4397 16.6255 27.4944 17.1411 26.5803 18.7232C25.6662 20.3052 26.1936 22.2505 27.7639 23.1528ZM28.5373 21.8403C27.6936 21.3482 27.424 20.3286 27.9045 19.4849C28.385 18.6528 29.4162 18.3716 30.2483 18.8521C31.092 19.3443 31.3615 20.3638 30.8811 21.2075C30.4006 22.0396 29.3694 22.3208 28.5373 21.8403Z" fill="black" fill-opacity="0.85"/>
  <path d="M0.13108 10.1099C-0.138452 10.5786 0.025611 11.1528 0.459205 11.4107L30.8576 28.9653C31.2912 29.2114 31.8772 29.0708 32.1233 28.6255C32.3928 28.1568 32.2287 27.5825 31.8069 27.3247L1.3967 9.77003C0.97483 9.52394 0.377173 9.66456 0.13108 10.1099Z" fill="black" fill-opacity="0.85"/>
  <path d="M4.09202 5.48097L6.56467 1.21534C6.97483 0.5005 6.40061-0.120594 5.67405 0.0200313L1.90061 0.711438C1.38499 0.805188 1.15061 1.20363 1.33811 1.70753L2.61545 5.30519C2.86155 6.02003 3.68186 6.19581 4.09202 5.48097Z" fill="black" fill-opacity="0.85"/>
 </g>
</svg>
