<?xml version="1.0" encoding="UTF-8"?>
<!--Generator: Apple Native CoreSVG 360-->
<!DOCTYPE svg
PUBLIC "-//W3C//DTD SVG 1.1//EN"
       "http://www.w3.org/Graphics/SVG/1.1/DTD/svg11.dtd">
<svg version="1.1" xmlns="http://www.w3.org/2000/svg" xmlns:xlink="http://www.w3.org/1999/xlink" viewBox="0 0 24.2344 29.0742">
 <g>
  <rect height="29.0742" opacity="0" width="24.2344" x="0" y="0"/>
  <path d="M14.3672 22.1133L17.6133 22.1133C19.875 22.1133 20.8477 21.0117 20.8477 18.4219L20.8477 12.7969C20.8477 11.168 20.2383 9.32812 19.2305 7.83984L18.6328 6.96094C17.1562 4.78125 15.3281 3.92578 12.2812 3.92578L1.99219 3.92578C1.26562 3.92578 0.609375 3.94922 0 3.96094L0 5.85938C0.597656 5.84766 1.25391 5.82422 1.99219 5.82422L12.2812 5.82422C14.6133 5.82422 15.9492 6.50391 17.0508 8.05078L17.6602 8.90625C18.4805 10.0664 18.9492 11.5312 18.9492 12.7969L18.9492 18.5625C18.9492 19.6641 18.4922 20.2266 17.4961 20.2266L14.3672 20.2266ZM0.0117188 22.1133L8.07422 22.1133L8.07422 20.2266L0.0117188 20.2266ZM11.3203 25.125C13.793 25.125 15.7148 23.2148 15.7148 20.7305C15.7148 18.2578 13.793 16.3477 11.3203 16.3477C8.84766 16.3477 6.91406 18.2578 6.91406 20.7305C6.91406 23.2148 8.84766 25.125 11.3203 25.125ZM11.3203 23.2266C9.91406 23.2266 8.8125 22.1367 8.8125 20.7305C8.8125 19.3242 9.91406 18.2344 11.3203 18.2344C12.7148 18.2344 13.8164 19.3242 13.8164 20.7305C13.8164 22.1367 12.7148 23.2266 11.3203 23.2266ZM14.4492 5.03906L15.8086 6.14062L19.8281 2.0625C20.0977 1.79297 20.4141 1.6875 20.8008 1.6875L23.0156 1.6875C23.5547 1.6875 23.8828 1.33594 23.8828 0.832031C23.8828 0.328125 23.5547 0 23.0156 0L21 0C20.0039 0 19.1367 0.28125 18.4688 0.960938Z" fill="black" fill-opacity="0.85"/>
 </g>
</svg>
