<?xml version="1.0" encoding="UTF-8"?>
<!--Generator: Apple Native CoreSVG 360-->
<!DOCTYPE svg
PUBLIC "-//W3C//DTD SVG 1.1//EN"
       "http://www.w3.org/Graphics/SVG/1.1/DTD/svg11.dtd">
<svg version="1.1" xmlns="http://www.w3.org/2000/svg" xmlns:xlink="http://www.w3.org/1999/xlink" viewBox="0 0 41.918 34.4883">
 <g>
  <rect height="34.4883" opacity="0" width="41.918" x="0" y="0"/>
  <path d="M39.5742 10.4531L40.1016 11.2266C41.0273 12.5625 41.5664 14.2383 41.5664 15.7031L41.5664 20.707C41.5664 23.0273 40.6406 24.082 38.5898 24.082L36.7722 24.082C36.2378 25.6556 34.7668 26.7539 32.9883 26.7539C31.2098 26.7539 29.7388 25.6556 29.2044 24.082L13.1003 24.082C12.5659 25.6556 11.0949 26.7539 9.31641 26.7539C7.5379 26.7539 6.06691 25.6556 5.53249 24.082L2.98828 24.082C1.125 24.082 0 22.9336 0 21.0234L0 19.0078C0 15.7969 1.98047 13.9688 5.97656 13.4766L10.3477 12.9375L15.0703 9.97266C15.742 9.55316 16.3625 9.20616 16.9805 8.92322L16.9805 10.2539C16.9805 10.5225 17.0037 10.7778 17.0509 11.0171C16.739 11.1872 16.4177 11.3778 16.0781 11.5898L10.9922 14.7539L6.22266 15.3516C3.29297 15.7266 1.88672 16.9102 1.88672 19.0078L1.88672 20.7891C1.88672 21.6797 2.33203 22.1953 3.09375 22.1953L5.34889 22.1953C5.60545 20.2149 7.2542 18.7383 9.31641 18.7383C11.3786 18.7383 13.0274 20.2149 13.2839 22.1953L29.0208 22.1953C29.2773 20.2149 30.9261 18.7383 32.9883 18.7383C35.0505 18.7383 36.6992 20.2149 36.9558 22.1953L38.4844 22.1953C39.3164 22.1953 39.6797 21.7617 39.6797 20.8242L39.6797 15.7031C39.6797 14.5898 39.2578 13.3242 38.543 12.293L38.0156 11.5312C37.0547 10.1602 35.8828 9.59766 33.8555 9.59766L28.5 9.59766L28.5 7.71094L33.8555 7.71094C36.5742 7.71094 38.2266 8.49609 39.5742 10.4531ZM7.19531 22.7461C7.19531 23.9414 8.12109 24.8672 9.31641 24.8672C10.5117 24.8672 11.4375 23.9414 11.4375 22.7461C11.4375 21.5508 10.5117 20.625 9.31641 20.625C8.12109 20.625 7.19531 21.5508 7.19531 22.7461ZM30.8672 22.7461C30.8672 23.9414 31.793 24.8672 32.9883 24.8672C34.1836 24.8672 35.1094 23.9414 35.1094 22.7461C35.1094 21.5508 34.1836 20.625 32.9883 20.625C31.793 20.625 30.8672 21.5508 30.8672 22.7461Z" fill="black" fill-opacity="0.85"/>
  <path d="M20.0859 11.8828L25.3945 11.8828C26.3906 11.8828 26.9062 11.3555 26.9062 10.2891L26.9062 6.21094C26.9062 5.15625 26.3906 4.62891 25.3945 4.62891L20.0859 4.62891C19.0898 4.62891 18.5742 5.15625 18.5742 6.21094L18.5742 10.2891C18.5742 11.3555 19.0898 11.8828 20.0859 11.8828ZM24.3281 5.57812L25.6055 5.57812L25.6055 3.23438C25.6055 2.02734 26.332 1.26562 27.4688 1.26562C28.6172 1.26562 29.332 2.02734 29.332 3.23438L29.332 4.54688C29.332 4.89844 29.625 5.17969 29.9766 5.17969C30.3281 5.17969 30.6094 4.89844 30.6094 4.54688L30.6094 3.43359C30.6094 1.32422 29.3906 0 27.4688 0C25.5703 0 24.3281 1.32422 24.3281 3.43359Z" fill="black" fill-opacity="0.85"/>
 </g>
</svg>
