<?xml version="1.0" encoding="UTF-8"?>
<!--Generator: Apple Native CoreSVG 360-->
<!DOCTYPE svg
PUBLIC "-//W3C//DTD SVG 1.1//EN"
       "http://www.w3.org/Graphics/SVG/1.1/DTD/svg11.dtd">
<svg version="1.1" xmlns="http://www.w3.org/2000/svg" xmlns:xlink="http://www.w3.org/1999/xlink" viewBox="0 0 41.918 21.668">
 <g>
  <rect height="21.668" opacity="0" width="41.918" x="0" y="0"/>
  <path d="M39.5742 4.04297L40.1016 4.81641C41.0273 6.15234 41.5664 7.82812 41.5664 9.29297L41.5664 14.2969C41.5664 16.6172 40.6406 17.6719 38.5898 17.6719L36.7722 17.6719C36.2378 19.2455 34.7668 20.3438 32.9883 20.3438C31.2098 20.3438 29.7388 19.2455 29.2044 17.6719L13.1003 17.6719C12.5659 19.2455 11.0949 20.3438 9.31641 20.3438C7.5379 20.3438 6.06691 19.2455 5.53249 17.6719L2.98828 17.6719C1.125 17.6719 0 16.5234 0 14.6133L0 12.5977C0 9.38672 1.98047 7.55859 5.97656 7.06641L8.87364 6.70913L10.1954 8.4436L6.22266 8.94141C3.29297 9.31641 1.88672 10.5 1.88672 12.5977L1.88672 14.3789C1.88672 15.2695 2.33203 15.7852 3.09375 15.7852L5.34889 15.7852C5.60545 13.8048 7.2542 12.3281 9.31641 12.3281C11.3786 12.3281 13.0274 13.8048 13.2839 15.7852L29.0208 15.7852C29.2773 13.8048 30.9261 12.3281 32.9883 12.3281C35.0505 12.3281 36.6992 13.8048 36.9558 15.7852L38.4844 15.7852C39.3164 15.7852 39.6797 15.3516 39.6797 14.4141L39.6797 9.29297C39.6797 8.17969 39.2578 6.91406 38.543 5.88281L38.0156 5.12109C37.0547 3.75 35.8828 3.1875 33.8555 3.1875L24.7031 3.1875C20.2031 3.1875 18.668 3.5625 16.0781 5.17969L14.338 6.26223L13.182 4.74797L15.0703 3.5625C17.9414 1.76953 19.875 1.30078 24.7031 1.30078L33.8555 1.30078C36.5742 1.30078 38.2266 2.08594 39.5742 4.04297ZM7.19531 16.3359C7.19531 17.5312 8.12109 18.457 9.31641 18.457C10.5117 18.457 11.4375 17.5312 11.4375 16.3359C11.4375 15.1406 10.5117 14.2148 9.31641 14.2148C8.12109 14.2148 7.19531 15.1406 7.19531 16.3359ZM30.8672 16.3359C30.8672 17.5312 31.793 18.457 32.9883 18.457C34.1836 18.457 35.1094 17.5312 35.1094 16.3359C35.1094 15.1406 34.1836 14.2148 32.9883 14.2148C31.793 14.2148 30.8672 15.1406 30.8672 16.3359Z" fill="black" fill-opacity="0.85"/>
  <path d="M3.45703 3.25781L6.33984 3.25781C7.64062 3.25781 8.13281 3.48047 8.78906 4.33594L11.9414 8.49609C12.9492 9.82031 14.0742 10.3945 15.7148 10.3945L18.2812 10.3945L18.2812 11.4023C18.2812 12.2227 19.0078 12.4688 19.6172 12.0703L22.5703 10.1719C23.1328 9.80859 23.1445 9.10547 22.5586 8.73047L19.6289 6.84375C19.0078 6.43359 18.2812 6.67969 18.2812 7.51172L18.2812 8.50781L15.7148 8.50781C14.6133 8.50781 14.168 8.26172 13.4414 7.32422L10.2656 3.1875C9.28125 1.88672 8.12109 1.37109 6.33984 1.37109L3.45703 1.37109C2.94141 1.37109 2.51953 1.79297 2.51953 2.30859C2.51953 2.82422 2.94141 3.25781 3.45703 3.25781Z" fill="black" fill-opacity="0.85"/>
 </g>
</svg>
