<?xml version="1.0" encoding="UTF-8"?>
<!--Generator: Apple Native CoreSVG 360-->
<!DOCTYPE svg
PUBLIC "-//W3C//DTD SVG 1.1//EN"
       "http://www.w3.org/Graphics/SVG/1.1/DTD/svg11.dtd">
<svg version="1.1" xmlns="http://www.w3.org/2000/svg" xmlns:xlink="http://www.w3.org/1999/xlink" viewBox="0 0 44.6602 26.0039">
 <g>
  <rect height="26.0039" opacity="0" width="44.6602" x="0" y="0"/>
  <path d="M36.0938 4.25391L37.4648 5.34375L40.6758 2.0625C40.9453 1.79297 41.2734 1.6875 41.6484 1.6875L43.4297 1.6875C43.9688 1.6875 44.3086 1.33594 44.3086 0.832031C44.3086 0.328125 43.9688 0 43.4297 0L41.8477 0C40.8516 0 39.9844 0.28125 39.3164 0.960938ZM2.98828 19.8398L6.63281 19.8398L6.63281 17.9531L3.09375 17.9531C2.33203 17.9531 1.88672 17.4375 1.88672 16.5469L1.88672 14.7656C1.88672 12.668 3.29297 11.4844 6.22266 11.1094L10.9922 10.5117L16.0781 7.34766C18.668 5.73047 20.2031 5.35547 24.7031 5.35547L33.8555 5.35547C35.8828 5.35547 37.0547 5.91797 38.0156 7.28906L38.543 8.05078C39.2578 9.08203 39.6797 10.3477 39.6797 11.4609L39.6797 16.582C39.6797 17.5195 39.3164 17.9531 38.4844 17.9531L35.6016 17.9531L35.6016 19.8398L38.5898 19.8398C40.6406 19.8398 41.5664 18.7852 41.5664 16.4648L41.5664 11.4609C41.5664 9.99609 41.0273 8.32031 40.1016 6.98438L39.5742 6.21094C38.2266 4.25391 36.5742 3.46875 33.8555 3.46875L24.7031 3.46875C19.875 3.46875 17.9414 3.9375 15.0703 5.73047L10.3477 8.69531L5.97656 9.23438C1.98047 9.72656 0 11.5547 0 14.7656L0 16.7812C0 18.6914 1.125 19.8398 2.98828 19.8398ZM12.1289 19.8398L30.2109 19.8398L30.2109 17.9531L12.1289 17.9531ZM9.31641 22.5117C11.5664 22.5117 13.3242 20.7539 13.3242 18.5039C13.3242 16.2539 11.5664 14.4961 9.31641 14.4961C7.06641 14.4961 5.30859 16.2539 5.30859 18.5039C5.30859 20.7539 7.06641 22.5117 9.31641 22.5117ZM9.31641 20.625C8.12109 20.625 7.19531 19.6992 7.19531 18.5039C7.19531 17.3086 8.12109 16.3828 9.31641 16.3828C10.5117 16.3828 11.4375 17.3086 11.4375 18.5039C11.4375 19.6992 10.5117 20.625 9.31641 20.625ZM32.9883 22.5117C35.2383 22.5117 36.9961 20.7539 36.9961 18.5039C36.9961 16.2539 35.2383 14.4961 32.9883 14.4961C30.7383 14.4961 28.9805 16.2539 28.9805 18.5039C28.9805 20.7539 30.7383 22.5117 32.9883 22.5117ZM32.9883 20.625C31.793 20.625 30.8672 19.6992 30.8672 18.5039C30.8672 17.3086 31.793 16.3828 32.9883 16.3828C34.1836 16.3828 35.1094 17.3086 35.1094 18.5039C35.1094 19.6992 34.1836 20.625 32.9883 20.625Z" fill="black" fill-opacity="0.85"/>
 </g>
</svg>
