<?xml version="1.0" encoding="UTF-8"?>
<!--Generator: Apple Native CoreSVG 360-->
<!DOCTYPE svg
PUBLIC "-//W3C//DTD SVG 1.1//EN"
       "http://www.w3.org/Graphics/SVG/1.1/DTD/svg11.dtd">
<svg version="1.1" xmlns="http://www.w3.org/2000/svg" xmlns:xlink="http://www.w3.org/1999/xlink" viewBox="0 0 41.918 35.5074">
 <g>
  <rect height="35.5074" opacity="0" width="41.918" x="0" y="0"/>
  <path d="M11.9883 32.9939L29.625 32.9939C30 32.9939 30.3047 32.6775 30.3047 32.3025C30.3047 31.9392 30 31.6346 29.625 31.6346L11.9883 31.6346C11.6133 31.6346 11.3086 31.9392 11.3086 32.3025C11.3086 32.6775 11.6133 32.9939 11.9883 32.9939ZM13.7109 34.6463L13.7109 29.9588C13.7109 29.1502 12.9375 28.8572 12.2812 29.3494L9.14062 31.6814C8.71875 31.9978 8.70703 32.5955 9.14062 32.9236L12.2812 35.2674C12.9023 35.7361 13.7109 35.49 13.7109 34.6463ZM27.9141 34.6463C27.9141 35.4666 28.6992 35.7596 29.3438 35.2674L32.4844 32.9236C32.918 32.5955 32.8945 31.9861 32.4844 31.6814L29.3438 29.3494C28.6992 28.8572 27.9141 29.1502 27.9141 29.9588Z" fill="black" fill-opacity="0.85"/>
  <path d="M2.98828 24.5916L6.63281 24.5916L6.63281 22.7049L3.09375 22.7049C2.33203 22.7049 1.88672 22.1892 1.88672 21.2986L1.88672 19.5174C1.88672 17.4197 3.29297 16.2361 6.22266 15.8611L10.9922 15.2635L16.0781 12.0994C18.668 10.4822 20.2031 10.1072 24.7031 10.1072L33.8555 10.1072C35.8828 10.1072 37.0547 10.6697 38.0156 12.0408L38.543 12.8025C39.2578 13.8338 39.6797 15.0994 39.6797 16.2127L39.6797 21.3338C39.6797 22.2713 39.3164 22.7049 38.4844 22.7049L35.6016 22.7049L35.6016 24.5916L38.5898 24.5916C40.6406 24.5916 41.5664 23.5369 41.5664 21.2166L41.5664 16.2127C41.5664 14.7478 41.0273 13.0721 40.1016 11.7361L39.5742 10.9627C38.2266 9.00565 36.5742 8.22049 33.8555 8.22049L24.7031 8.22049C19.875 8.22049 17.9414 8.68924 15.0703 10.4822L10.3477 13.4471L5.97656 13.9861C1.98047 14.4783 0 16.3064 0 19.5174L0 21.533C0 23.4431 1.125 24.5916 2.98828 24.5916ZM12.1289 24.5916L30.2109 24.5916L30.2109 22.7049L12.1289 22.7049ZM9.31641 27.2635C11.5664 27.2635 13.3242 25.5056 13.3242 23.2556C13.3242 21.0056 11.5664 19.2478 9.31641 19.2478C7.06641 19.2478 5.30859 21.0056 5.30859 23.2556C5.30859 25.5056 7.06641 27.2635 9.31641 27.2635ZM9.31641 25.3767C8.12109 25.3767 7.19531 24.451 7.19531 23.2556C7.19531 22.0603 8.12109 21.1346 9.31641 21.1346C10.5117 21.1346 11.4375 22.0603 11.4375 23.2556C11.4375 24.451 10.5117 25.3767 9.31641 25.3767ZM32.9883 27.2635C35.2383 27.2635 36.9961 25.5056 36.9961 23.2556C36.9961 21.0056 35.2383 19.2478 32.9883 19.2478C30.7383 19.2478 28.9805 21.0056 28.9805 23.2556C28.9805 25.5056 30.7383 27.2635 32.9883 27.2635ZM32.9883 25.3767C31.793 25.3767 30.8672 24.451 30.8672 23.2556C30.8672 22.0603 31.793 21.1346 32.9883 21.1346C34.1836 21.1346 35.1094 22.0603 35.1094 23.2556C35.1094 24.451 34.1836 25.3767 32.9883 25.3767Z" fill="black" fill-opacity="0.85"/>
 </g>
</svg>
