<?xml version="1.0" encoding="UTF-8"?>
<!--Generator: Apple Native CoreSVG 360-->
<!DOCTYPE svg
PUBLIC "-//W3C//DTD SVG 1.1//EN"
       "http://www.w3.org/Graphics/SVG/1.1/DTD/svg11.dtd">
<svg version="1.1" xmlns="http://www.w3.org/2000/svg" xmlns:xlink="http://www.w3.org/1999/xlink" viewBox="0 0 39.8098 32.6041">
 <g>
  <rect height="32.6041" opacity="0" width="39.8098" x="0" y="0"/>
  <path d="M10.3014 24.9212L12.8561 23.4329L12.0944 22.1087L9.60999 23.5501C9.08265 23.8548 8.5553 23.6673 8.19202 23.0462L7.47718 21.804C6.62171 20.3274 7.12562 18.9329 9.03577 17.4798L12.1412 15.1243L14.4264 10.847C15.5866 8.66728 16.5123 7.77666 19.6647 5.96025L26.0866 2.25712C27.5045 1.43681 28.5592 1.35478 29.7897 1.91728L30.4694 2.24541C31.3834 2.679 32.192 3.39384 32.6491 4.16728L34.7233 7.76494C35.0983 8.42119 35.0162 8.87822 34.4303 9.21806L32.4147 10.3782L33.1764 11.7024L35.2741 10.4954C36.7155 9.66337 36.9381 8.55009 35.9889 6.92119L33.9733 3.40556C33.3756 2.38603 32.3209 1.42509 31.1256 0.862593L30.4459 0.534468C28.7116-0.285845 27.235-0.168657 25.3248 0.932905L18.903 4.63603C15.5162 6.59306 14.3561 7.69462 13.067 10.1204L10.9576 14.1165L8.09827 16.261C5.49671 18.2298 4.85218 20.3157 6.15296 22.5657L6.96155 23.9837C7.73499 25.3196 8.9889 25.6712 10.3014 24.9212ZM16.7116 21.2181L29.403 13.8821L28.6412 12.5696L15.9498 19.8938ZM15.8209 24.2298C17.403 23.3157 17.9186 21.3704 17.0162 19.7884C16.1022 18.2181 14.1569 17.6907 12.5748 18.6048C11.0045 19.5188 10.4772 21.4642 11.3912 23.0345C12.3053 24.6165 14.2506 25.1438 15.8209 24.2298ZM15.0592 22.9056C14.2272 23.386 13.1959 23.1165 12.7155 22.2727C12.2233 21.4407 12.5045 20.4095 13.3366 19.929C14.1803 19.4485 15.2116 19.7181 15.692 20.5501C16.1725 21.3938 15.903 22.4251 15.0592 22.9056ZM32.4264 14.6438C34.0084 13.7298 34.5358 11.7845 33.6217 10.2024C32.7076 8.63212 30.7623 8.10478 29.1803 9.01884C27.61 9.92119 27.0826 11.8782 27.9967 13.4485C28.9108 15.0306 30.8561 15.5462 32.4264 14.6438ZM31.6647 13.3196C30.8326 13.8001 29.8014 13.5306 29.3209 12.6868C28.8405 11.8548 29.11 10.8235 29.942 10.3431C30.7858 9.85087 31.817 10.1321 32.2975 10.9642C32.778 11.8079 32.5084 12.8274 31.6647 13.3196Z" fill="black" fill-opacity="0.85"/>
  <path d="M7.3014 32.0579C7.58265 32.5267 8.15687 32.6556 8.59046 32.4212L39.0006 14.8665C39.4342 14.6321 39.5866 14.0462 39.3405 13.6009C39.0709 13.1321 38.485 12.9915 38.0514 13.2376L7.64124 30.7923C7.21937 31.0267 7.0553 31.6126 7.3014 32.0579Z" fill="black" fill-opacity="0.85"/>
  <path d="M5.27405 26.3157L2.82484 22.0501C2.41468 21.3235 1.58265 21.511 1.34827 22.2024L0.0592105 25.8235C-0.116571 26.3157 0.106086 26.7142 0.633429 26.8079L4.39515 27.511C5.13343 27.6517 5.69593 27.0188 5.27405 26.3157Z" fill="black" fill-opacity="0.85"/>
 </g>
</svg>
