<?xml version="1.0" encoding="UTF-8"?>
<!--Generator: Apple Native CoreSVG 360-->
<!DOCTYPE svg
PUBLIC "-//W3C//DTD SVG 1.1//EN"
       "http://www.w3.org/Graphics/SVG/1.1/DTD/svg11.dtd">
<svg version="1.1" xmlns="http://www.w3.org/2000/svg" xmlns:xlink="http://www.w3.org/1999/xlink" viewBox="0 0 37.6085 31.6432">
 <g>
  <rect height="31.6432" opacity="0" width="37.6085" x="0" y="0"/>
  <path d="M3.60504 31.0032C3.88629 31.472 4.46051 31.6126 4.8941 31.3782L35.3043 13.8235C35.7261 13.5774 35.8902 12.9915 35.6441 12.5579C35.3746 12.0892 34.7886 11.9485 34.355 12.1829L3.94488 29.7376C3.52301 29.9837 3.35894 30.5696 3.60504 31.0032Z" fill="black" fill-opacity="0.85"/>
  <path d="M4.78863 24.9212L7.35504 23.4446L6.59332 22.1204L4.10894 23.5501C3.56988 23.8665 3.05426 23.679 2.69097 23.0579L1.96441 21.804C1.12066 20.3392 1.62457 18.9329 3.52301 17.4915L6.64019 15.136L8.91363 10.8587C10.0738 8.66728 11.0113 7.78837 14.1636 5.96025L20.5855 2.25712C22.0035 1.43681 23.0582 1.35478 24.2769 1.929L24.9683 2.24541C25.8824 2.679 26.691 3.39384 27.1363 4.179L29.2105 7.76494C29.5972 8.43291 29.5152 8.88994 28.9293 9.21806L26.9136 10.3899L27.6753 11.7142L29.773 10.5071C31.2144 9.67509 31.4371 8.56181 30.4878 6.92119L28.4605 3.41728C27.8746 2.38603 26.8199 1.42509 25.6246 0.862593L24.9449 0.534468C23.2105-0.285845 21.7339-0.168657 19.8121 0.932905L13.4019 4.63603C10.0035 6.59306 8.84332 7.70634 7.56597 10.1321L5.44488 14.1282L2.59722 16.2727C-0.00433767 18.2415-0.648869 20.3157 0.651912 22.5774L1.46051 23.9837C2.23394 25.3196 3.48785 25.6712 4.78863 24.9212ZM11.2105 21.2181L23.9019 13.8938L23.1285 12.5696L10.4488 19.8938ZM10.3199 24.2298C11.9019 23.3157 12.4175 21.3704 11.5035 19.8001C10.6011 18.2181 8.65582 17.7024 7.07379 18.6048C5.49176 19.5188 4.97613 21.4642 5.89019 23.0462C6.79254 24.6165 8.73785 25.1438 10.3199 24.2298ZM9.55816 22.9056C8.71441 23.3977 7.69488 23.1165 7.20269 22.2845C6.72222 21.4407 7.00347 20.4095 7.83551 19.929C8.67926 19.4485 9.69879 19.7181 10.191 20.5618C10.6714 21.3938 10.3902 22.4251 9.55816 22.9056ZM26.9253 14.6438C28.5074 13.7298 29.023 11.7845 28.1207 10.2142C27.2066 8.63212 25.2613 8.10478 23.6793 9.01884C22.0972 9.93291 21.5816 11.8782 22.4957 13.4602C23.398 15.0306 25.3433 15.5579 26.9253 14.6438ZM26.1636 13.3196C25.3199 13.8001 24.3003 13.5306 23.8199 12.6868C23.3277 11.8548 23.6089 10.8235 24.441 10.3431C25.2847 9.86259 26.3043 10.1321 26.7964 10.9759C27.2769 11.8079 26.9957 12.8392 26.1636 13.3196Z" fill="black" fill-opacity="0.85"/>
  <path d="M35.1871 31.5892C35.9371 31.5892 36.4761 31.2376 36.8277 30.6868C37.0621 30.3352 37.2613 29.7962 37.2613 29.3977C37.2613 29.0227 36.9918 28.7884 36.6168 28.7884C36.3238 28.7884 36.0894 28.9993 36.0308 29.3274C35.8902 30.0071 35.6793 30.4173 35.1519 30.4173C34.5074 30.4173 34.1324 29.5032 34.1324 27.8157C34.1324 26.1048 34.566 25.1907 35.1519 25.1907C35.6441 25.1907 35.9136 25.6712 35.9957 26.2806C36.0543 26.6438 36.3003 26.8548 36.6519 26.8548C37.0035 26.8548 37.2261 26.6087 37.2261 26.2337C37.2261 25.7884 37.0035 25.1438 36.6168 24.6985C36.2418 24.2767 35.7144 24.0306 35.1402 24.0306C34.1207 24.0306 33.4996 24.6868 33.1714 25.4485C32.8433 26.1751 32.773 26.9954 32.773 27.8157C32.773 28.7532 32.8668 29.6673 33.2769 30.4407C33.6988 31.2024 34.3316 31.5892 35.1871 31.5892ZM22.7535 31.5306C23.1753 31.5306 23.4332 31.2727 23.4332 30.8509L23.4332 28.3196L25.2378 28.3196L25.2378 30.8509C25.2378 31.2727 25.5074 31.5306 25.9175 31.5306C26.3277 31.5306 26.5972 31.2727 26.5972 30.8509L26.5972 24.7688C26.5972 24.3587 26.3277 24.1009 25.9175 24.1009C25.5074 24.1009 25.2378 24.3587 25.2378 24.7688L25.2378 27.1946L23.4332 27.1946L23.4332 24.7688C23.4332 24.3587 23.1753 24.1009 22.7535 24.1009C22.355 24.1009 22.0972 24.3587 22.0972 24.7688L22.0972 30.8509C22.0972 31.2727 22.355 31.5306 22.7535 31.5306ZM28.2496 31.5306L29.5503 31.5306C31.4605 31.5306 32.105 29.6907 32.105 27.7923C32.105 25.7181 31.3668 24.1009 29.5503 24.1009L28.2496 24.1009C27.8628 24.1009 27.5816 24.3235 27.5816 24.804L27.5816 30.8274C27.5816 31.3079 27.8628 31.5306 28.2496 31.5306ZM28.9058 30.4056L28.9058 25.2259L29.3863 25.2259C30.523 25.2259 30.7339 26.6556 30.7339 27.7923C30.7339 28.9524 30.5582 30.4056 29.3863 30.4056Z" fill="black" fill-opacity="0.85"/>
 </g>
</svg>
