<?xml version="1.0" encoding="UTF-8"?>
<!--Generator: Apple Native CoreSVG 360-->
<!DOCTYPE svg
PUBLIC "-//W3C//DTD SVG 1.1//EN"
       "http://www.w3.org/Graphics/SVG/1.1/DTD/svg11.dtd">
<svg version="1.1" xmlns="http://www.w3.org/2000/svg" xmlns:xlink="http://www.w3.org/1999/xlink" viewBox="0 0 39.0117 30.4805">
 <g>
  <rect height="30.4805" opacity="0" width="39.0117" x="0" y="0"/>
  <path d="M2.77734 22.2656L6.1875 22.2656L6.1875 20.3672L2.87109 20.3672C2.23828 20.3672 1.89844 19.9805 1.89844 19.1953L1.89844 17.543C1.89844 15.6562 3.11719 14.6133 5.80078 14.2852L10.2773 13.7344L15.0352 10.7578C17.4141 9.28125 18.7969 8.92969 22.9688 8.92969L31.4883 8.92969C33.3398 8.92969 34.3828 9.43359 35.2383 10.6641L35.7422 11.3789C36.3867 12.3164 36.7617 13.4648 36.7617 14.4609L36.7617 19.2305C36.7617 20.0508 36.5039 20.3672 35.7891 20.3672L33.1992 20.3672L33.1992 22.2656L35.8828 22.2656C37.793 22.2656 38.6602 21.293 38.6602 19.125L38.6602 14.4609C38.6602 13.1133 38.1562 11.543 37.3008 10.3125L36.7969 9.58594C35.543 7.78125 34.0195 7.04297 31.4883 7.04297L22.9688 7.04297C18.4805 7.04297 16.6992 7.46484 14.0156 9.15234L9.63281 11.9062L5.56641 12.3984C1.83984 12.8555 0 14.5664 0 17.543L0 19.418C0 21.1992 1.04297 22.2656 2.77734 22.2656ZM8.66016 22.8516C7.61719 22.8516 6.83203 22.0664 6.83203 21.0234C6.83203 19.9688 7.61719 19.1836 8.66016 19.1836C9.71484 19.1836 10.5 19.9688 10.5 21.0234C10.5 22.0664 9.71484 22.8516 8.66016 22.8516ZM8.66016 24.75C10.7578 24.75 12.3984 23.1211 12.3984 21.0234C12.3984 18.9258 10.7578 17.2969 8.66016 17.2969C6.57422 17.2969 4.94531 18.9258 4.94531 21.0234C4.94531 23.1211 6.57422 24.75 8.66016 24.75ZM11.2266 22.2656L27.9258 22.2656L27.9258 20.3672L11.2266 20.3672ZM30.6797 24.75C32.7656 24.75 34.418 23.1211 34.418 21.0234C34.418 18.9258 32.7656 17.2969 30.6797 17.2969C28.5938 17.2969 26.9648 18.9258 26.9648 21.0234C26.9648 23.1211 28.5938 24.75 30.6797 24.75ZM30.6797 22.8516C29.6367 22.8516 28.8516 22.0664 28.8516 21.0234C28.8516 19.9688 29.6367 19.1836 30.6797 19.1836C31.7344 19.1836 32.5195 19.9688 32.5195 21.0234C32.5195 22.0664 31.7344 22.8516 30.6797 22.8516Z" fill="black" fill-opacity="0.85"/>
  <path d="M19.3242 5.28516L33.75 5.28516C34.6875 5.28516 35.2031 4.67578 35.2031 3.72656L35.2031 2.56641C35.2031 0.867188 34.3359 0 32.3672 0L28.1367 0C26.0391 0 24.3516 0.550781 21.6445 1.66406L19.0195 2.76562C18.2695 3.08203 18.0352 3.58594 18.0352 4.08984C18.0352 4.86328 18.4219 5.28516 19.3242 5.28516Z" fill="black" fill-opacity="0.85"/>
 </g>
</svg>
