<?xml version="1.0" encoding="UTF-8"?>
<!--Generator: Apple Native CoreSVG 360-->
<!DOCTYPE svg
PUBLIC "-//W3C//DTD SVG 1.1//EN"
       "http://www.w3.org/Graphics/SVG/1.1/DTD/svg11.dtd">
<svg version="1.1" xmlns="http://www.w3.org/2000/svg" xmlns:xlink="http://www.w3.org/1999/xlink" viewBox="0 0 41.918 32.4492">
 <g>
  <rect height="32.4492" opacity="0" width="41.918" x="0" y="0"/>
  <path d="M39.5742 9.43359L40.1016 10.207C41.0273 11.543 41.5664 13.2188 41.5664 14.6836L41.5664 19.6875C41.5664 22.0078 40.6406 23.0625 38.5898 23.0625L36.7722 23.0625C36.2378 24.6361 34.7668 25.7344 32.9883 25.7344C31.2098 25.7344 29.7388 24.6361 29.2044 23.0625L13.1003 23.0625C12.5659 24.6361 11.0949 25.7344 9.31641 25.7344C7.5379 25.7344 6.06691 24.6361 5.53249 23.0625L2.98828 23.0625C1.125 23.0625 0 21.9141 0 20.0039L0 17.9883C0 14.7773 1.98047 12.9492 5.97656 12.457L10.3477 11.918L15.0703 8.95312C16.9386 7.78642 18.4099 7.18042 20.5445 6.9016L20.6005 8.79489C18.8665 9.05022 17.6721 9.57501 16.0781 10.5703L10.9922 13.7344L6.22266 14.332C3.29297 14.707 1.88672 15.8906 1.88672 17.9883L1.88672 19.7695C1.88672 20.6602 2.33203 21.1758 3.09375 21.1758L5.34889 21.1758C5.60545 19.1954 7.2542 17.7188 9.31641 17.7188C11.3786 17.7188 13.0274 19.1954 13.2839 21.1758L29.0208 21.1758C29.2773 19.1954 30.9261 17.7188 32.9883 17.7188C35.0505 17.7188 36.6992 19.1954 36.9558 21.1758L38.4844 21.1758C39.3164 21.1758 39.6797 20.7422 39.6797 19.8047L39.6797 14.6836C39.6797 13.5703 39.2578 12.3047 38.543 11.2734L38.0156 10.5117C37.0547 9.14062 35.8828 8.57812 33.8555 8.57812L25.9528 8.57813L26.0086 6.69141L33.8555 6.69141C36.5742 6.69141 38.2266 7.47656 39.5742 9.43359ZM7.19531 21.7266C7.19531 22.9219 8.12109 23.8477 9.31641 23.8477C10.5117 23.8477 11.4375 22.9219 11.4375 21.7266C11.4375 20.5312 10.5117 19.6055 9.31641 19.6055C8.12109 19.6055 7.19531 20.5312 7.19531 21.7266ZM30.8672 21.7266C30.8672 22.9219 31.793 23.8477 32.9883 23.8477C34.1836 23.8477 35.1094 22.9219 35.1094 21.7266C35.1094 20.5312 34.1836 19.6055 32.9883 19.6055C31.793 19.6055 30.8672 20.5312 30.8672 21.7266Z" fill="black" fill-opacity="0.85"/>
  <path d="M23.2734 17.3555C24.1172 17.3555 24.8086 16.6641 24.8086 15.8672C24.8086 15.0586 24.1289 14.3906 23.2734 14.3906C22.4297 14.3906 21.7383 15.0586 21.7383 15.8672C21.7383 16.6641 22.4414 17.3555 23.2734 17.3555ZM23.2734 12.1523C23.8477 12.1523 24.2578 11.7422 24.2812 11.1445L24.5273 2.84766C24.5508 2.09766 24.0469 1.60547 23.2734 1.60547C22.5 1.60547 22.0078 2.09766 22.0312 2.84766L22.2773 11.1445C22.3008 11.7422 22.6992 12.1523 23.2734 12.1523Z" fill="black" fill-opacity="0.85"/>
 </g>
</svg>
