<?xml version="1.0" encoding="UTF-8"?>
<!--Generator: Apple Native CoreSVG 360-->
<!DOCTYPE svg
PUBLIC "-//W3C//DTD SVG 1.1//EN"
       "http://www.w3.org/Graphics/SVG/1.1/DTD/svg11.dtd">
<svg version="1.1" xmlns="http://www.w3.org/2000/svg" xmlns:xlink="http://www.w3.org/1999/xlink" viewBox="0 0 26.6719 27.0586">
 <g>
  <rect height="27.0586" opacity="0" width="26.6719" x="0" y="0"/>
  <path d="M23.5078 9.48047L25.7344 13.3125C26.7891 15.1289 26.4375 16.6055 24.5859 17.6719L10.8398 25.6172C10.7351 25.6775 10.6317 25.733 10.53 25.7823C10.7317 25.4514 10.8659 25.0554 10.9314 24.5955C11.2916 24.316 11.6169 23.9204 11.9062 23.4141L12.407 22.5462L17.5021 19.6015L15.8028 16.6608L16.8893 14.7776L19.1298 18.6608L23.5781 16.0898C24.2461 15.6914 24.4922 14.9297 24.0938 14.2383L21.9023 10.4297C21.4805 9.71484 20.6484 9.46875 19.9805 9.85547L19.604 10.0727L20.6016 8.34375C20.7483 8.09217 20.8667 7.84791 20.954 7.61167C21.9574 7.63699 22.8134 8.27093 23.5078 9.48047Z" fill="black" fill-opacity="0.85"/>
  <path d="M15.5508 1.79297L19.3828 4.00781C21.2344 5.07422 21.668 6.51562 20.6016 8.34375L11.9062 23.4141C11.6169 23.9204 11.2916 24.316 10.9314 24.5955C10.9643 24.3733 10.9805 24.1354 10.9805 23.8828L10.9805 21.2449L11.2171 20.8345L10.9805 20.698L10.9805 18.5079L12.1644 19.1921L15.4086 13.5667L10.9805 11.0117L10.9805 8.83657L16.3478 11.9381L18.9141 7.48828C19.3125 6.79688 19.1016 6.02344 18.4336 5.625L14.625 3.43359C13.9102 3.02344 13.0664 3.19922 12.6797 3.87891L10.9805 6.8236L10.9805 3.15234C10.9805 3.12316 10.9803 3.09418 10.9776 3.06748L11.0977 2.85938C12.1406 1.05469 13.6523 0.703125 15.5508 1.79297Z" fill="black" fill-opacity="0.85"/>
  <path d="M3.32812 27.0469L7.75781 27.0469C9.87891 27.0469 10.9805 25.9688 10.9805 23.8828L10.9805 3.15234C10.9805 1.06641 9.87891 0 7.75781 0L3.32812 0C1.13672 0 0 1.06641 0 3.15234L0 23.8828C0 25.9688 1.13672 27.0469 3.32812 27.0469ZM3.35156 25.1602C2.51953 25.1602 1.88672 24.5742 1.88672 23.7891L1.88672 3.24609C1.88672 2.46094 2.51953 1.88672 3.35156 1.88672L7.73438 1.88672C8.51953 1.88672 9.09375 2.46094 9.09375 3.24609L9.09375 23.7891C9.09375 24.5742 8.51953 25.1602 7.73438 25.1602ZM0.972656 10.2773L10.0078 10.2773L10.0078 8.39062L0.972656 8.39062ZM0.972656 18.6562L10.0078 18.6562L10.0078 16.7695L0.972656 16.7695Z" fill="black" fill-opacity="0.85"/>
 </g>
</svg>
