<?xml version="1.0" encoding="UTF-8"?>
<!--Generator: Apple Native CoreSVG 360-->
<!DOCTYPE svg
PUBLIC "-//W3C//DTD SVG 1.1//EN"
       "http://www.w3.org/Graphics/SVG/1.1/DTD/svg11.dtd">
<svg version="1.1" xmlns="http://www.w3.org/2000/svg" xmlns:xlink="http://www.w3.org/1999/xlink" viewBox="0 0 24.2578 23.918">
 <g>
  <rect height="23.918" opacity="0" width="24.2578" x="0" y="0"/>
  <path d="M11.9531 23.9062C18.5508 23.9062 23.9062 18.5508 23.9062 11.9531C23.9062 5.35547 18.5508 0 11.9531 0C5.35547 0 0 5.35547 0 11.9531C0 18.5508 5.35547 23.9062 11.9531 23.9062ZM11.9531 21.9141C6.44531 21.9141 1.99219 17.4609 1.99219 11.9531C1.99219 6.44531 6.44531 1.99219 11.9531 1.99219C17.4609 1.99219 21.9141 6.44531 21.9141 11.9531C21.9141 17.4609 17.4609 21.9141 11.9531 21.9141Z" fill="black" fill-opacity="0.85"/>
  <path d="M11.9062 17.3672C12.5273 17.3672 12.8555 16.957 12.8555 16.3125L12.8555 8.08594L15.7734 8.08594C16.2188 8.08594 16.5586 7.78125 16.5586 7.3125C16.5586 6.83203 16.2188 6.55078 15.7734 6.55078L8.09766 6.55078C7.65234 6.55078 7.32422 6.83203 7.32422 7.3125C7.32422 7.78125 7.65234 8.08594 8.09766 8.08594L10.9922 8.08594L10.9922 16.3125C10.9922 16.9336 11.3086 17.3672 11.9062 17.3672Z" fill="black" fill-opacity="0.85"/>
 </g>
</svg>
