<?xml version="1.0" encoding="UTF-8"?>
<!--Generator: Apple Native CoreSVG 360-->
<!DOCTYPE svg
PUBLIC "-//W3C//DTD SVG 1.1//EN"
       "http://www.w3.org/Graphics/SVG/1.1/DTD/svg11.dtd">
<svg version="1.1" xmlns="http://www.w3.org/2000/svg" xmlns:xlink="http://www.w3.org/1999/xlink" viewBox="0 0 21.9258 21.5742">
 <g>
  <rect height="21.5742" opacity="0" width="21.9258" x="0" y="0"/>
  <path d="M3.67969 21.5742L17.8945 21.5742C20.3555 21.5742 21.5742 20.3672 21.5742 17.9531L21.5742 3.63281C21.5742 1.21875 20.3555 0 17.8945 0L3.67969 0C1.23047 0 0 1.21875 0 3.63281L0 17.9531C0 20.3672 1.23047 21.5742 3.67969 21.5742ZM3.70312 19.6875C2.53125 19.6875 1.88672 19.0664 1.88672 17.8477L1.88672 3.73828C1.88672 2.51953 2.53125 1.88672 3.70312 1.88672L17.8711 1.88672C19.0312 1.88672 19.6875 2.51953 19.6875 3.73828L19.6875 17.8477C19.6875 19.0664 19.0312 19.6875 17.8711 19.6875Z" fill="black" fill-opacity="0.85"/>
  <path d="M10.7695 16.207C11.3789 16.207 11.707 15.7969 11.707 15.1523L11.707 6.92578L14.625 6.92578C15.0703 6.92578 15.4102 6.62109 15.4102 6.15234C15.4102 5.67188 15.0703 5.39062 14.625 5.39062L6.96094 5.39062C6.51562 5.39062 6.17578 5.67188 6.17578 6.15234C6.17578 6.62109 6.51562 6.92578 6.96094 6.92578L9.84375 6.92578L9.84375 15.1523C9.84375 15.7734 10.1602 16.207 10.7695 16.207Z" fill="black" fill-opacity="0.85"/>
 </g>
</svg>
