<?xml version="1.0" encoding="UTF-8"?>
<!--Generator: Apple Native CoreSVG 360-->
<!DOCTYPE svg
PUBLIC "-//W3C//DTD SVG 1.1//EN"
       "http://www.w3.org/Graphics/SVG/1.1/DTD/svg11.dtd">
<svg version="1.1" xmlns="http://www.w3.org/2000/svg" xmlns:xlink="http://www.w3.org/1999/xlink" viewBox="0 0 26.4375 22.6523">
 <g>
  <rect height="22.6523" opacity="0" width="26.4375" x="0" y="0"/>
  <path d="M24.9961 16.0078C25.6406 16.0078 26.168 15.4688 26.168 14.8359C26.168 14.1797 25.6406 13.6641 24.9961 13.6641C24.3633 13.6641 23.8242 14.1797 23.8242 14.8359C23.8242 15.4688 24.3633 16.0078 24.9961 16.0078ZM23.8477 19.6641C24.4805 19.6641 25.0195 19.125 25.0195 18.4922C25.0195 17.8359 24.4805 17.3086 23.8477 17.3086C23.2031 17.3086 22.6758 17.8359 22.6758 18.4922C22.6758 19.125 23.2031 19.6641 23.8477 19.6641ZM21.5508 22.6523C22.207 22.6523 22.7227 22.1133 22.7227 21.4805C22.7227 20.8242 22.207 20.3086 21.5508 20.3086C20.918 20.3086 20.3789 20.8242 20.3789 21.4805C20.3789 22.1133 20.918 22.6523 21.5508 22.6523Z" fill="black" fill-opacity="0.85"/>
  <path d="M13.043 0.0234375C5.83594 0.0234375 0 5.85938 0 13.0664C0 16.6172 1.41797 19.875 3.77344 22.2422C4.16016 22.6406 4.79297 22.6641 5.23828 22.2539C5.58984 21.9023 5.51953 21.2578 5.05078 20.7539C3.16406 18.7852 2.02734 16.043 2.02734 13.0664C2.02734 6.90234 6.89062 2.01562 13.043 2.01562C18.5742 2.01562 23.0625 5.97656 23.8828 11.25C24.0352 12.0234 24.7266 12.2812 25.2539 12.082C25.6758 11.918 25.9922 11.4844 25.8516 10.8164C24.8203 4.6875 19.4766 0.0234375 13.043 0.0234375Z" fill="black" fill-opacity="0.85"/>
  <path d="M11.6602 14.7305C12.5039 15.5742 13.7227 15.5742 14.5664 14.7305C15.4102 13.8867 15.4102 12.668 14.5664 11.8242C14.4141 11.6602 14.0742 11.4141 13.8633 11.2734L7.61719 6.9375C7.30078 6.71484 6.99609 6.78516 6.80859 6.96094C6.62109 7.16016 6.55078 7.45312 6.77344 7.78125L11.1094 14.0273C11.25 14.2383 11.4961 14.5664 11.6602 14.7305Z" fill="black" fill-opacity="0.85"/>
 </g>
</svg>
