<?xml version="1.0" encoding="UTF-8"?>
<!--Generator: Apple Native CoreSVG 360-->
<!DOCTYPE svg
PUBLIC "-//W3C//DTD SVG 1.1//EN"
       "http://www.w3.org/Graphics/SVG/1.1/DTD/svg11.dtd">
<svg version="1.1" xmlns="http://www.w3.org/2000/svg" xmlns:xlink="http://www.w3.org/1999/xlink" viewBox="0 0 26.5283 27.3604">
 <g>
  <rect height="27.3604" opacity="0" width="26.5283" x="0" y="0"/>
  <path d="M13.8149 26.0962L25.2407 14.647C26.1196 13.7681 26.1782 13.2642 26.1782 12.0337L26.1782 7.58057C26.1782 6.33838 25.8853 5.95166 24.9946 5.06104L22.2993 2.36573C21.4204 1.48682 21.0337 1.18213 19.7915 1.18213L15.3267 1.18213C14.0962 1.18213 13.604 1.24073 12.7251 2.11963L1.26416 13.5571C-0.411617 15.2329-0.435055 16.9673 1.27588 18.6782L8.69385 26.0845C10.4165 27.7954 12.1392 27.772 13.8149 26.0962ZM12.5493 24.6782C11.7173 25.522 10.8149 25.5337 9.95948 24.6665L2.68213 17.4009C1.82666 16.5454 1.83838 15.6431 2.67041 14.811L14.0493 3.45557C14.2954 3.2212 14.5298 3.06885 14.9282 3.06885L19.8618 3.06885C20.2368 3.06885 20.4712 3.20948 20.729 3.45557L23.9165 6.64307C24.1626 6.88916 24.2915 7.13526 24.2915 7.49854L24.2915 12.4439C24.2915 12.8306 24.1509 13.0767 23.9165 13.311ZM18.4204 10.5571C19.3345 10.5571 20.0259 9.84229 20.0259 8.95166C20.0259 8.04932 19.3345 7.3462 18.4204 7.3462C17.5064 7.3462 16.8149 8.04932 16.8149 8.95166C16.8149 9.84229 17.5064 10.5571 18.4204 10.5571Z" fill="black" fill-opacity="0.85"/>
 </g>
</svg>
