<?xml version="1.0" encoding="UTF-8"?>
<!--Generator: Apple Native CoreSVG 360-->
<!DOCTYPE svg
PUBLIC "-//W3C//DTD SVG 1.1//EN"
       "http://www.w3.org/Graphics/SVG/1.1/DTD/svg11.dtd">
<svg version="1.1" xmlns="http://www.w3.org/2000/svg" xmlns:xlink="http://www.w3.org/1999/xlink" viewBox="0 0 32.3755 30.4336">
 <g>
  <rect height="30.4336" opacity="0" width="32.3755" x="0" y="0"/>
  <path d="M19.3167 4.14844L19.3167 6.375L21.5549 9.33984C21.9207 9.82749 22.0349 10.1684 22.046 10.8984L20.1571 10.8984C20.1461 10.6048 20.1023 10.4449 19.9495 10.2539L17.6643 7.23047C17.5003 6.99609 17.4299 6.79688 17.4299 6.50391L17.4299 4.40625C17.4299 3.76172 17.1487 3.45703 16.5628 3.45703L6.73072 3.45703C6.14478 3.45703 5.86353 3.76172 5.86353 4.40625L5.86353 6.50391C5.86353 6.79688 5.79322 6.99609 5.62916 7.23047L3.344 10.2539C3.1565 10.4883 3.13307 10.6758 3.13307 11.1211L3.13307 23.2148C3.13307 24.3516 3.73072 24.9492 4.85572 24.9492L17.3983 24.9492L17.5471 26.5078C17.5579 26.6215 17.5711 26.7324 17.5905 26.8359L4.82057 26.8359C2.45338 26.8359 1.24635 25.6523 1.24635 23.3086L1.24635 11.0273C1.24635 10.207 1.35182 9.85547 1.73853 9.33984L3.97682 6.375L3.97682 4.14844C3.97682 2.48438 4.94947 1.57031 6.719 1.57031L16.5745 1.57031C18.344 1.57031 19.3167 2.48438 19.3167 4.14844ZM15.5432 6.02344C15.5432 6.44531 15.1917 6.78516 14.7815 6.78516L8.47682 6.78516C8.06666 6.78516 7.7151 6.44531 7.7151 6.02344C7.7151 5.61328 8.06666 5.25 8.47682 5.25L14.7815 5.25C15.1917 5.25 15.5432 5.61328 15.5432 6.02344Z" fill="black" fill-opacity="0.85"/>
  <path d="M21.6253 28.8281L27.051 28.8281C28.5979 28.8281 29.3713 28.043 29.5354 26.3555L30.7659 13.5938C30.8362 12.9375 30.4495 12.5039 29.8049 12.5039L18.8596 12.5039C18.2268 12.5039 17.8518 12.9492 17.9104 13.5938L19.1409 26.3555C19.3049 28.043 20.0667 28.8281 21.6253 28.8281ZM21.6956 27C21.2268 27 20.9924 26.7891 20.9456 26.2852L19.8088 14.332L28.8674 14.332L27.7424 26.2852C27.6838 26.7891 27.4495 27 26.9807 27ZM23.5706 13.1016L25.1878 13.1016L25.2581 12C25.3049 11.4141 25.4807 11.0742 25.9143 10.7578L29.8401 7.94531C30.719 7.3125 29.7815 5.96484 28.8323 6.65625L25.0588 9.38672C24.1565 10.043 23.7698 10.7578 23.676 11.9062Z" fill="black" fill-opacity="0.85"/>
 </g>
</svg>
