<?xml version="1.0" encoding="UTF-8"?>
<!--Generator: Apple Native CoreSVG 360-->
<!DOCTYPE svg
PUBLIC "-//W3C//DTD SVG 1.1//EN"
       "http://www.w3.org/Graphics/SVG/1.1/DTD/svg11.dtd">
<svg version="1.1" xmlns="http://www.w3.org/2000/svg" xmlns:xlink="http://www.w3.org/1999/xlink" viewBox="0 0 34.0898 21.8789">
 <g>
  <rect height="21.8789" opacity="0" width="34.0898" x="0" y="0"/>
  <path d="M12.5625 5.17969L14.5547 5.17969C15.3516 5.17969 15.7852 4.72266 15.7852 3.9375L15.7852 1.93359C15.7852 1.13672 15.3516 0.691406 14.5547 0.691406L12.5625 0.691406C11.7773 0.691406 11.3086 1.13672 11.3086 1.93359L11.3086 3.9375C11.3086 4.72266 11.7773 5.17969 12.5625 5.17969ZM18.4453 5.17969L20.4492 5.17969C21.2344 5.17969 21.6797 4.72266 21.6797 3.9375L21.6797 1.93359C21.6797 1.13672 21.2344 0.691406 20.4492 0.691406L18.4453 0.691406C17.6484 0.691406 17.1797 1.13672 17.1797 1.93359L17.1797 3.9375C17.1797 4.72266 17.6484 5.17969 18.4453 5.17969ZM24.3164 5.17969L26.3086 5.17969C27.0938 5.17969 27.5508 4.72266 27.5508 3.9375L27.5508 1.93359C27.5508 1.13672 27.0938 0.691406 26.3086 0.691406L24.3164 0.691406C23.5195 0.691406 23.0742 1.13672 23.0742 1.93359L23.0742 3.9375C23.0742 4.72266 23.5195 5.17969 24.3164 5.17969ZM30.1758 5.17969L32.1914 5.17969C32.9766 5.17969 33.4453 4.72266 33.4453 3.9375L33.4453 1.93359C33.4453 1.13672 32.9766 0.691406 32.1914 0.691406L30.1758 0.691406C29.4023 0.691406 28.9688 1.13672 28.9688 1.93359L28.9688 3.9375C28.9688 4.72266 29.4023 5.17969 30.1758 5.17969ZM12.5391 11.0625L14.543 11.0625C15.3398 11.0625 15.7852 10.6289 15.7852 9.82031L15.7852 7.80469C15.7852 7.01953 15.3398 6.57422 14.543 6.57422L12.5391 6.57422C11.7539 6.57422 11.3086 7.01953 11.3086 7.80469L11.3086 9.82031C11.3086 10.6289 11.7539 11.0625 12.5391 11.0625ZM18.4102 11.0625L26.3438 11.0625C27.1406 11.0625 27.5742 10.6289 27.5742 9.82031L27.5742 7.80469C27.5742 7.01953 27.1406 6.57422 26.3438 6.57422L18.4102 6.57422C17.625 6.57422 17.1797 7.01953 17.1797 7.80469L17.1797 9.82031C17.1797 10.6289 17.625 11.0625 18.4102 11.0625ZM30.2227 11.0625L32.2266 11.0625C33.0234 11.0625 33.4453 10.6289 33.4453 9.82031L33.4453 7.80469C33.4453 7.01953 33.0234 6.57422 32.2266 6.57422L30.2227 6.57422C29.4258 6.57422 28.9805 7.01953 28.9805 7.80469L28.9805 9.82031C28.9805 10.6289 29.4258 11.0625 30.2227 11.0625ZM5.98828 15.7852C9.44531 19.2422 13.5703 21.8672 16.8867 21.8672C18.4453 21.8672 19.8047 21.2461 20.6953 20.25C21.5508 19.2891 21.8438 18.5742 21.8438 17.9414C21.8438 17.4492 21.5273 16.9922 20.7656 16.4531L17.9062 14.4023C17.1914 13.8984 16.875 13.8047 16.4531 13.8047C16.0898 13.8047 15.7852 13.875 15.1758 14.2031L13.3008 15.2344C13.0781 15.3633 12.9727 15.3867 12.8203 15.3867C12.5977 15.3867 12.4453 15.3281 12.2227 15.2344C11.3203 14.8242 10.0664 13.8398 8.96484 12.7266C7.85156 11.6133 6.98438 10.4766 6.53906 9.59766C6.48047 9.48047 6.41016 9.29297 6.41016 9.10547C6.41016 8.95312 6.49219 8.82422 6.58594 8.66016L7.6875 6.77344C7.98047 6.25781 8.07422 5.97656 8.07422 5.57812C8.07422 5.12109 7.92188 4.62891 7.47656 4.00781L5.51953 1.26562C4.95703 0.480469 4.53516 0 3.89062 0C3.10547 0 2.16797 0.597656 1.48828 1.25391C0.515625 2.19141 0 3.50391 0 4.98047C0 8.32031 2.56641 12.3633 5.98828 15.7852Z" fill="black" fill-opacity="0.85"/>
 </g>
</svg>
