<?xml version="1.0" encoding="UTF-8"?>
<!--Generator: Apple Native CoreSVG 360-->
<!DOCTYPE svg
PUBLIC "-//W3C//DTD SVG 1.1//EN"
       "http://www.w3.org/Graphics/SVG/1.1/DTD/svg11.dtd">
<svg version="1.1" xmlns="http://www.w3.org/2000/svg" xmlns:xlink="http://www.w3.org/1999/xlink" viewBox="0 0 28.582 23.4085">
 <g>
  <rect height="23.4085" opacity="0" width="28.582" x="0" y="0"/>
  <path d="M28.2305 14.0539C28.2305 6.67105 22.5586 0.612457 15.3398 0.00308175C14.9648-0.0320745 14.6836 0.237457 14.6836 0.612457L14.6836 4.44449C14.6836 4.76089 14.9062 5.00699 15.2227 5.03043C19.7109 5.58121 23.2031 9.41324 23.2031 14.0539C23.2031 16.1632 22.4766 18.1086 21.1992 19.7375C21.0352 19.9367 21.0469 20.1945 21.2227 20.382L24.0234 23.1711C24.2812 23.4289 24.6797 23.4289 24.9141 23.1476C26.9883 20.6867 28.2305 17.5109 28.2305 14.0539Z" fill="black" fill-opacity="0.85"/>
  <path d="M0 14.0539C0 17.5226 1.24219 20.6984 3.31641 23.1593C3.55078 23.4406 3.9375 23.4289 4.20703 23.1711L7.00781 20.382C7.18359 20.1945 7.19531 19.9367 7.03125 19.7375C5.74219 18.1086 5.02734 16.1632 5.02734 14.0539C5.02734 9.41324 8.51953 5.58121 13.0078 5.03043C13.3242 5.00699 13.5469 4.76089 13.5469 4.44449L13.5469 0.612457C13.5469 0.237457 13.2656-0.0320745 12.8906 0.00308175C5.67188 0.612457 0 6.67105 0 14.0539Z" fill="black" fill-opacity="0.85"/>
  <path d="M14.1211 19.6906C14.5078 19.6906 14.7891 19.3976 14.7891 18.9992L14.7891 12.1203L17.5781 12.1203C17.8828 12.1203 18.1172 11.8742 18.1172 11.5812C18.1172 11.2765 17.8828 11.0539 17.5781 11.0539L10.6289 11.0539C10.3242 11.0539 10.0898 11.2765 10.0898 11.5812C10.0898 11.8742 10.3242 12.1203 10.6289 12.1203L13.4297 12.1203L13.4297 18.9992C13.4297 19.3976 13.7227 19.6906 14.1211 19.6906ZM10.0547 9.35464C10.0547 9.5773 10.2305 9.74136 10.4531 9.74136L17.707 9.74136C17.9414 9.74136 18.1172 9.56558 18.1172 9.35464C18.1172 9.14371 17.9414 8.96793 17.707 8.96793L10.4531 8.96793C10.2305 8.96793 10.0547 9.14371 10.0547 9.35464Z" fill="black" fill-opacity="0.85"/>
 </g>
</svg>
