<?xml version="1.0" encoding="UTF-8"?>
<!--Generator: Apple Native CoreSVG 360-->
<!DOCTYPE svg
PUBLIC "-//W3C//DTD SVG 1.1//EN"
       "http://www.w3.org/Graphics/SVG/1.1/DTD/svg11.dtd">
<svg version="1.1" xmlns="http://www.w3.org/2000/svg" xmlns:xlink="http://www.w3.org/1999/xlink" viewBox="0 0 16.3594 21.5273">
 <g>
  <rect height="21.5273" opacity="0" width="16.3594" x="0" y="0"/>
  <path d="M8.03906 21.4922C8.74219 21.4922 9.19922 21.0352 9.19922 20.2969L9.19922 6.17578L15 6.17578C15.6094 6.17578 16.0078 5.80078 16.0078 5.21484C16.0078 4.64062 15.6094 4.26562 15 4.26562L1.05469 4.26562C0.445312 4.26562 0.046875 4.64062 0.046875 5.21484C0.046875 5.80078 0.445312 6.17578 1.05469 6.17578L6.87891 6.17578L6.87891 20.2969C6.87891 21.0352 7.32422 21.4922 8.03906 21.4922ZM0 0.773438C0 1.21875 0.328125 1.53516 0.773438 1.53516L15.2344 1.53516C15.6797 1.53516 16.0078 1.20703 16.0078 0.773438C16.0078 0.339844 15.6797 0 15.2344 0L0.773438 0C0.328125 0 0 0.339844 0 0.773438Z" fill="black" fill-opacity="0.85"/>
 </g>
</svg>
