<?xml version="1.0" encoding="UTF-8"?>
<!--Generator: Apple Native CoreSVG 360-->
<!DOCTYPE svg
PUBLIC "-//W3C//DTD SVG 1.1//EN"
       "http://www.w3.org/Graphics/SVG/1.1/DTD/svg11.dtd">
<svg version="1.1" xmlns="http://www.w3.org/2000/svg" xmlns:xlink="http://www.w3.org/1999/xlink" viewBox="0 0 26.5195 25.0195">
 <g>
  <rect height="25.0195" opacity="0" width="26.5195" x="0" y="0"/>
  <path d="M1.55859 22.2188L24.6094 22.2188L24.6094 21.4336C24.6094 20.9648 24.3398 20.6836 23.8594 20.6836L23.1094 20.6836L23.1094 8.03906L24.1406 8.03906C24.7852 8.03906 25.1602 7.57031 25.1602 7.08984C25.1602 6.73828 24.9609 6.43359 24.5273 6.1875L14.5195 0.410156C14.0508 0.140625 13.5586 0 13.0781 0C12.5977 0 12.0938 0.140625 11.6484 0.410156L1.64062 6.1875C1.19531 6.43359 1.00781 6.73828 1.00781 7.08984C1.00781 7.57031 1.38281 8.03906 2.02734 8.03906L3.05859 8.03906L3.05859 20.6836L2.32031 20.6836C1.83984 20.6836 1.55859 20.9648 1.55859 21.4336ZM4.82812 20.6836L4.82812 6.53906L12.6211 2.16797C12.7617 2.08594 12.9258 2.03906 13.0781 2.03906C13.2305 2.03906 13.3945 2.08594 13.5469 2.16797L21.3398 6.53906L21.3398 20.6836ZM0.9375 25.0078L25.2188 25.0078C25.7344 25.0078 26.168 24.5742 26.168 24.0586C26.168 23.543 25.7344 23.1211 25.2188 23.1211L0.9375 23.1211C0.421875 23.1211 0 23.543 0 24.0586C0 24.5742 0.421875 25.0078 0.9375 25.0078Z" fill="black" fill-opacity="0.85"/>
  <path d="M13.1016 17.8125C13.5 17.8125 13.7812 17.5195 13.7812 17.1211L13.7812 10.2422L16.5586 10.2422C16.875 10.2422 17.0977 9.99609 17.0977 9.70312C17.0977 9.39844 16.875 9.17578 16.5586 9.17578L9.62109 9.17578C9.30469 9.17578 9.08203 9.39844 9.08203 9.70312C9.08203 9.99609 9.30469 10.2422 9.62109 10.2422L12.4219 10.2422L12.4219 17.1211C12.4219 17.5195 12.7148 17.8125 13.1016 17.8125ZM9.04688 7.47656C9.04688 7.69922 9.22266 7.86328 9.44531 7.86328L16.6992 7.86328C16.9219 7.86328 17.0977 7.6875 17.0977 7.47656C17.0977 7.26562 16.9219 7.08984 16.6992 7.08984L9.44531 7.08984C9.22266 7.08984 9.04688 7.26562 9.04688 7.47656Z" fill="black" fill-opacity="0.85"/>
 </g>
</svg>
