<?xml version="1.0" encoding="UTF-8"?>
<!--Generator: Apple Native CoreSVG 360-->
<!DOCTYPE svg
PUBLIC "-//W3C//DTD SVG 1.1//EN"
       "http://www.w3.org/Graphics/SVG/1.1/DTD/svg11.dtd">
<svg version="1.1" xmlns="http://www.w3.org/2000/svg" xmlns:xlink="http://www.w3.org/1999/xlink" viewBox="0 0 24.2578 23.918">
 <g>
  <rect height="23.918" opacity="0" width="24.2578" x="0" y="0"/>
  <path d="M12.9141 23.2969L14.4023 22.9336C14.1914 22.2656 14.0859 21.5508 14.0859 20.7891C14.0859 16.6523 17.2148 13.5234 21.3398 13.5234C21.9258 13.5234 22.4766 13.5938 23.0156 13.7109L23.3789 12.2344C22.7227 12.0703 22.043 11.9883 21.3398 11.9883C16.4766 11.9883 12.5508 15.9141 12.5508 20.7891C12.5508 21.668 12.668 22.5117 12.9141 23.2969ZM0.714844 10.1133L0.421875 11.6133C1.125 11.7891 1.83984 11.8828 2.58984 11.8828C7.45312 11.8828 11.3789 7.95703 11.3789 3.08203C11.3789 2.25 11.2734 1.45312 11.0508 0.714844L9.51562 0.902344C9.73828 1.58203 9.84375 2.30859 9.84375 3.08203C9.84375 7.21875 6.71484 10.3477 2.58984 10.3477C1.94531 10.3477 1.32422 10.2656 0.714844 10.1133ZM11.9531 0C5.35547 0 0 5.35547 0 11.9531C0 18.5508 5.35547 23.9062 11.9531 23.9062C18.5508 23.9062 23.9062 18.5508 23.9062 11.9531C23.9062 5.35547 18.5508 0 11.9531 0ZM11.9531 1.59375C17.6719 1.59375 22.3125 6.23438 22.3125 11.9531C22.3125 17.6719 17.6719 22.3125 11.9531 22.3125C6.23438 22.3125 1.59375 17.6719 1.59375 11.9531C1.59375 6.23438 6.23438 1.59375 11.9531 1.59375Z" fill="black" fill-opacity="0.85"/>
 </g>
</svg>
