<?xml version="1.0" encoding="UTF-8"?>
<!--Generator: Apple Native CoreSVG 360-->
<!DOCTYPE svg
PUBLIC "-//W3C//DTD SVG 1.1//EN"
       "http://www.w3.org/Graphics/SVG/1.1/DTD/svg11.dtd">
<svg version="1.1" xmlns="http://www.w3.org/2000/svg" xmlns:xlink="http://www.w3.org/1999/xlink" viewBox="0 0 34.0673 24.2695">
 <g>
  <rect height="24.2695" opacity="0" width="34.0673" x="0" y="0"/>
  <path d="M10.3129 3.35156L14.7655 12.2777L13.7662 14.2797L9.05903 4.81641C9.03559 4.78125 9.00044 4.74609 8.96528 4.74609C8.93012 4.74609 8.89497 4.78125 8.87153 4.81641L2.12153 18.3867C2.07465 18.4688 2.09809 18.5508 2.20356 18.5508L4.67868 18.5508L8.43794 10.6758C8.55512 10.418 8.75434 10.3008 8.96528 10.3008C9.18794 10.3008 9.38715 10.418 9.50434 10.6758L12.4628 16.891L10.7394 20.3437L1.35981 20.3438C0.105904 20.3438-0.280815 19.1719 0.199654 18.2227L7.61762 3.35156C7.89887 2.8125 8.40278 2.44922 8.96528 2.44922C9.52778 2.44922 10.0317 2.8125 10.3129 3.35156ZM7.57282 18.5508L10.3577 18.5508L8.96528 12.5273Z" fill="black" fill-opacity="0.85"/>
  <path d="M11.2973 24.2695L32.1684 24.2695C33.6215 24.2695 34.0317 22.9453 33.4692 21.832L23.2973 1.42969C22.9692 0.773438 22.3715 0.386719 21.7387 0.386719C21.0942 0.386719 20.4965 0.773438 20.1801 1.42969L9.99653 21.832C9.43403 22.9453 9.84419 24.2695 11.2973 24.2695ZM12.0707 22.4766C11.8247 22.4766 11.7778 22.2891 11.8832 22.0664L21.5747 2.63672C21.645 2.49609 21.8207 2.49609 21.8911 2.63672L31.5825 22.0664C31.6997 22.3008 31.6528 22.4766 31.4301 22.4766ZM15.4106 23.3438L19.6176 23.3438L21.7387 14.168L23.8481 23.3438L28.0551 23.3438L22.477 11.625C22.3129 11.2852 22.0317 11.1211 21.7387 11.1211C21.434 11.1211 21.1528 11.2852 20.9887 11.625Z" fill="black" fill-opacity="0.85"/>
 </g>
</svg>
