<?xml version="1.0" encoding="UTF-8"?>
<!--Generator: Apple Native CoreSVG 360-->
<!DOCTYPE svg
PUBLIC "-//W3C//DTD SVG 1.1//EN"
       "http://www.w3.org/Graphics/SVG/1.1/DTD/svg11.dtd">
<svg version="1.1" xmlns="http://www.w3.org/2000/svg" xmlns:xlink="http://www.w3.org/1999/xlink" viewBox="0 0 24.457 29.8711">
 <g>
  <rect height="29.8711" opacity="0" width="24.457" x="0" y="0"/>
  <path d="M0.878906 29.8711L15.3281 29.8711C15.8203 29.8711 16.2188 29.4844 16.2188 28.9922C16.2188 28.5 15.8203 28.1016 15.3281 28.1016L0.878906 28.1016C0.386719 28.1016 0 28.5 0 28.9922C0 29.4844 0.386719 29.8711 0.878906 29.8711Z" fill="black" fill-opacity="0.85"/>
  <path d="M0.878906 24.375L23.2148 24.375C23.707 24.375 24.1055 23.9883 24.1055 23.4844C24.1055 22.9922 23.707 22.6055 23.2148 22.6055L0.878906 22.6055C0.386719 22.6055 0 22.9922 0 23.4844C0 23.9883 0.386719 24.375 0.878906 24.375Z" fill="black" fill-opacity="0.85"/>
  <path d="M3.25781 18.8672L20.8477 18.8672C23.0273 18.8672 24.1055 17.8008 24.1055 15.668L24.1055 3.23438C24.1055 1.10156 23.0273 0.0117188 20.8477 0.0117188L3.25781 0.0117188C1.10156 0.0117188 0 1.11328 0 3.23438L0 15.668C0 17.7891 1.08984 18.8672 3.25781 18.8672ZM3.28125 17.0859C2.29688 17.0859 1.76953 16.5703 1.76953 15.5625L1.76953 3.32812C1.76953 2.33203 2.29688 1.78125 3.28125 1.78125L20.8359 1.78125C21.8086 1.78125 22.3359 2.32031 22.3359 3.32812L22.3359 15.5625C22.3359 16.5586 21.8086 17.0859 20.8359 17.0859ZM22.9922 15.1055L16.957 9.42188C16.5 9.01172 15.9609 8.80078 15.4102 8.80078C14.8594 8.80078 14.3672 9 13.8867 9.41016L9.29297 13.5234L7.41797 11.8125C6.99609 11.4258 6.52734 11.2266 6.02344 11.2266C5.57812 11.2266 5.15625 11.4258 4.72266 11.8125L0.867188 15.3047C0.925781 17.1328 1.67578 18.0703 3.19922 18.0703L20.2383 18.0703C22.0781 18.0703 22.9922 17.0508 22.9922 15.1055ZM7.62891 9.53906C8.94141 9.53906 10.0312 8.44922 10.0312 7.125C10.0312 5.8125 8.94141 4.73438 7.62891 4.73438C6.30469 4.73438 5.23828 5.8125 5.23828 7.125C5.23828 8.44922 6.30469 9.53906 7.62891 9.53906Z" fill="black" fill-opacity="0.85"/>
 </g>
</svg>
