<?xml version="1.0" encoding="UTF-8"?>
<!--Generator: Apple Native CoreSVG 360-->
<!DOCTYPE svg
PUBLIC "-//W3C//DTD SVG 1.1//EN"
       "http://www.w3.org/Graphics/SVG/1.1/DTD/svg11.dtd">
<svg version="1.1" xmlns="http://www.w3.org/2000/svg" xmlns:xlink="http://www.w3.org/1999/xlink" viewBox="0 0 39.6328 24.668">
 <g>
  <rect height="24.668" opacity="0" width="39.6328" x="0" y="0"/>
  <path d="M1.42969 24.668C2.21484 24.668 2.84766 24.0352 2.84766 23.25C2.84766 22.4648 2.21484 21.8203 1.42969 21.8203C0.632812 21.8203 0 22.4648 0 23.25C0 24.0352 0.632812 24.668 1.42969 24.668ZM7.5 24.668C8.28516 24.668 8.92969 24.0352 8.92969 23.25C8.92969 22.4648 8.28516 21.8203 7.5 21.8203C6.71484 21.8203 6.08203 22.4648 6.08203 23.25C6.08203 24.0352 6.71484 24.668 7.5 24.668ZM13.582 24.668C14.3672 24.668 15 24.0352 15 23.25C15 22.4648 14.3672 21.8203 13.582 21.8203C12.7969 21.8203 12.1523 22.4648 12.1523 23.25C12.1523 24.0352 12.7969 24.668 13.582 24.668ZM19.6523 24.668C20.4375 24.668 21.082 24.0352 21.082 23.25C21.082 22.4648 20.4375 21.8203 19.6523 21.8203C18.8672 21.8203 18.2344 22.4648 18.2344 23.25C18.2344 24.0352 18.8672 24.668 19.6523 24.668ZM25.7344 24.668C26.5195 24.668 27.1523 24.0352 27.1523 23.25C27.1523 22.4648 26.5195 21.8203 25.7344 21.8203C24.9492 21.8203 24.3047 22.4648 24.3047 23.25C24.3047 24.0352 24.9492 24.668 25.7344 24.668ZM31.8047 24.668C32.5898 24.668 33.2344 24.0352 33.2344 23.25C33.2344 22.4648 32.5898 21.8203 31.8047 21.8203C31.0195 21.8203 30.3867 22.4648 30.3867 23.25C30.3867 24.0352 31.0195 24.668 31.8047 24.668ZM37.8633 24.668C38.6484 24.668 39.2812 24.0352 39.2812 23.25C39.2812 22.4648 38.6484 21.8203 37.8633 21.8203C37.0781 21.8203 36.4336 22.4648 36.4336 23.25C36.4336 24.0352 37.0781 24.668 37.8633 24.668Z" fill="black" fill-opacity="0.85"/>
  <path d="M1.10156 17.3438C1.53516 17.3438 1.96875 17.0859 2.19141 16.4766L3.71484 12.293L10.6992 12.293L12.2109 16.4766C12.4453 17.0977 12.8555 17.3438 13.2891 17.3438C13.793 17.3438 14.2852 16.9688 14.2852 16.4062C14.2852 16.207 14.2383 16.043 14.1562 15.7852L8.64844 1.16016C8.39062 0.457031 7.93359 0.117188 7.20703 0.117188C6.48047 0.117188 6.03516 0.457031 5.77734 1.14844L0.269531 15.7969C0.1875 16.0547 0.152344 16.2188 0.152344 16.418C0.152344 16.9922 0.609375 17.3438 1.10156 17.3438ZM4.24219 10.6172L7.125 2.63672L7.26562 2.63672L10.1484 10.6172ZM16.9453 17.3438C17.4961 17.3438 17.918 16.957 17.918 16.3477L17.918 14.7305L17.9531 14.7305C18.6094 16.3359 20.1211 17.3555 22.0195 17.3555C25.1484 17.3555 27.2109 14.8711 27.2109 11.0508C27.2109 7.21875 25.1367 4.73438 22.043 4.73438C20.1914 4.73438 18.668 5.74219 18 7.34766L17.9648 7.34766L17.9648 1.54688C17.9648 0.902344 17.5664 0.492188 16.9805 0.492188C16.3945 0.492188 15.9844 0.902344 15.9844 1.54688L15.9844 16.3477C15.9844 16.9688 16.3711 17.3438 16.9453 17.3438ZM21.6094 15.6328C19.4766 15.6328 17.9766 13.8281 17.9766 11.0508C17.9766 8.27344 19.4766 6.46875 21.6094 6.46875C23.8008 6.46875 25.1602 8.22656 25.1602 11.0508C25.1602 13.8867 23.7891 15.6328 21.6094 15.6328ZM34.2188 17.3555C36.457 17.3555 38.3906 16.1133 39.0469 14.3672C39.1289 14.168 39.1641 13.9688 39.1641 13.8047C39.1641 13.3008 38.7891 12.9492 38.2969 12.9492C37.8633 12.9492 37.6289 13.125 37.3594 13.6289C36.7734 14.918 35.7656 15.6328 34.2305 15.6328C32.0156 15.6328 30.5859 13.8984 30.5859 11.0508C30.5859 8.22656 32.0273 6.45703 34.2305 6.45703C35.6836 6.45703 36.7383 7.13672 37.3359 8.48438C37.582 8.96484 37.8398 9.12891 38.2617 9.12891C38.7656 9.12891 39.1172 8.78906 39.1172 8.29688C39.1172 8.14453 39.0938 7.96875 39.0469 7.81641C38.4609 6.04688 36.5039 4.73438 34.1836 4.73438C30.7734 4.73438 28.5469 7.24219 28.5469 11.0625C28.5469 14.9062 30.7969 17.3555 34.2188 17.3555Z" fill="black" fill-opacity="0.85"/>
 </g>
</svg>
