<?xml version="1.0" encoding="UTF-8"?>
<!--Generator: Apple Native CoreSVG 360-->
<!DOCTYPE svg
PUBLIC "-//W3C//DTD SVG 1.1//EN"
       "http://www.w3.org/Graphics/SVG/1.1/DTD/svg11.dtd">
<svg version="1.1" xmlns="http://www.w3.org/2000/svg" xmlns:xlink="http://www.w3.org/1999/xlink" viewBox="0 0 27.7237 26.9423">
 <g>
  <rect height="26.9423" opacity="0" width="27.7237" x="0" y="0"/>
  <path d="M21.0396 19.1137L21.0396 25.9458C21.0396 26.9067 21.9536 27.2231 22.7388 26.6723L27.2622 23.4379C27.8833 22.9926 27.8716 22.102 27.2622 21.6567L22.7388 18.3754C21.9067 17.7778 21.0396 18.1293 21.0396 19.1137ZM22.7153 23.5551C23.2896 23.5551 23.77 23.0864 23.77 22.5122C23.77 21.9379 23.2896 21.4575 22.7153 21.4575L9.95362 21.4575C5.57081 21.4575 3.23878 19.1137 3.23878 14.9301L3.23878 4.35982C3.23878 3.7856 2.77003 3.30513 2.19581 3.30513C1.62159 3.30513 1.14112 3.7856 1.14112 4.35982L1.14112 14.9067C1.14112 20.4497 4.22315 23.5551 9.95362 23.5551Z" fill="black" fill-opacity="0.85"/>
  <path d="M8.89894 5.26216L22.2817 5.26216C22.8442 5.26216 23.2778 4.81685 23.2778 4.25435C23.2778 3.69185 22.8442 3.25825 22.2817 3.25825L8.89894 3.25825C8.33644 3.25825 7.90284 3.69185 7.90284 4.25435C7.90284 4.81685 8.33644 5.26216 8.89894 5.26216ZM8.89894 11.0278L22.2817 11.0278C22.8442 11.0278 23.2778 10.5942 23.2778 10.0317C23.2778 9.46919 22.8442 9.02388 22.2817 9.02388L8.89894 9.02388C8.33644 9.02388 7.90284 9.46919 7.90284 10.0317C7.90284 10.5942 8.33644 11.0278 8.89894 11.0278ZM8.89894 16.8051L16.2935 16.8051C16.856 16.8051 17.3013 16.3598 17.3013 15.7973C17.3013 15.2348 16.856 14.8012 16.2935 14.8012L8.89894 14.8012C8.33644 14.8012 7.90284 15.2348 7.90284 15.7973C7.90284 16.3598 8.33644 16.8051 8.89894 16.8051Z" fill="black" fill-opacity="0.85"/>
 </g>
</svg>
