<?xml version="1.0" encoding="UTF-8"?>
<!--Generator: Apple Native CoreSVG 360-->
<!DOCTYPE svg
PUBLIC "-//W3C//DTD SVG 1.1//EN"
       "http://www.w3.org/Graphics/SVG/1.1/DTD/svg11.dtd">
<svg version="1.1" xmlns="http://www.w3.org/2000/svg" xmlns:xlink="http://www.w3.org/1999/xlink" viewBox="0 0 27.9844 21.5742">
 <g>
  <rect height="21.5742" opacity="0" width="27.9844" x="0" y="0"/>
  <path d="M3.67969 21.5742L23.9531 21.5742C26.4141 21.5742 27.6328 20.3672 27.6328 17.9531L27.6328 3.63281C27.6328 1.21875 26.4141 0 23.9531 0L3.67969 0C1.23047 0 0 1.21875 0 3.63281L0 17.9531C0 20.3672 1.23047 21.5742 3.67969 21.5742ZM3.70312 19.6875C2.53125 19.6875 1.88672 19.0664 1.88672 17.8477L1.88672 3.73828C1.88672 2.51953 2.53125 1.88672 3.70312 1.88672L23.9297 1.88672C25.0898 1.88672 25.7461 2.51953 25.7461 3.73828L25.7461 17.8477C25.7461 19.0664 25.0898 19.6875 23.9297 19.6875Z" fill="black" fill-opacity="0.85"/>
  <path d="M5.48438 6.70312L22.1602 6.70312C22.582 6.70312 22.8867 6.38672 22.8867 5.96484C22.8867 5.56641 22.582 5.26172 22.1602 5.26172L5.48438 5.26172C5.0625 5.26172 4.74609 5.56641 4.74609 5.96484C4.74609 6.38672 5.0625 6.70312 5.48438 6.70312ZM5.48438 11.2852L13.6992 11.2852C14.1211 11.2852 14.4258 10.9688 14.4258 10.5586C14.4258 10.1602 14.1211 9.84375 13.6992 9.84375L5.48438 9.84375C5.0625 9.84375 4.74609 10.1602 4.74609 10.5586C4.74609 10.9688 5.0625 11.2852 5.48438 11.2852Z" fill="black" fill-opacity="0.85"/>
 </g>
</svg>
