<?xml version="1.0" encoding="UTF-8"?>
<!--Generator: Apple Native CoreSVG 360-->
<!DOCTYPE svg
PUBLIC "-//W3C//DTD SVG 1.1//EN"
       "http://www.w3.org/Graphics/SVG/1.1/DTD/svg11.dtd">
<svg version="1.1" xmlns="http://www.w3.org/2000/svg" xmlns:xlink="http://www.w3.org/1999/xlink" viewBox="0 0 37.957 24.5273">
 <g>
  <rect height="24.5273" opacity="0" width="37.957" x="0" y="0"/>
  <path d="M18.7969 24.5273C19.3125 24.5273 19.6641 24.1992 19.6641 23.707L19.6641 0.832031C19.6641 0.351562 19.3125 0.0234375 18.7969 0.0234375C18.2812 0.0234375 17.9414 0.351562 17.9414 0.832031L17.9414 23.707C17.9414 24.1992 18.2812 24.5273 18.7969 24.5273Z" fill="black" fill-opacity="0.85"/>
  <path d="M26.0156 21.1875L34.8047 21.1875C36.5625 21.1875 37.6055 20.1562 37.6055 18.4336L37.6055 6.09375C37.6055 4.37109 36.5625 3.33984 34.8047 3.33984L26.0156 3.33984C24.2578 3.33984 23.2148 4.37109 23.2148 6.09375L23.2148 18.4336C23.2148 20.1562 24.2578 21.1875 26.0156 21.1875ZM26.0508 19.418C25.3828 19.418 24.9844 19.0078 24.9844 18.3398L24.9844 6.19922C24.9844 5.51953 25.3828 5.10938 26.0508 5.10938L34.7695 5.10938C35.4375 5.10938 35.8359 5.51953 35.8359 6.19922L35.8359 18.3398C35.8359 19.0078 35.4375 19.418 34.7695 19.418Z" fill="black" fill-opacity="0.85"/>
  <path d="M27.5039 9.19922L33.3398 9.19922C33.75 9.19922 34.0664 8.88281 34.0664 8.47266C34.0664 8.07422 33.75 7.75781 33.3398 7.75781L27.5039 7.75781C27.082 7.75781 26.7656 8.07422 26.7656 8.47266C26.7656 8.88281 27.082 9.19922 27.5039 9.19922ZM27.5039 12.6445L33.3398 12.6445C33.75 12.6445 34.0664 12.3281 34.0664 11.918C34.0664 11.5195 33.75 11.2031 33.3398 11.2031L27.5039 11.2031C27.082 11.2031 26.7656 11.5195 26.7656 11.918C26.7656 12.3281 27.082 12.6445 27.5039 12.6445ZM27.5039 16.0898L30.8672 16.0898C31.2891 16.0898 31.5938 15.7734 31.5938 15.3633C31.5938 14.9648 31.2891 14.6484 30.8672 14.6484L27.5039 14.6484C27.082 14.6484 26.7656 14.9648 26.7656 15.3633C26.7656 15.7734 27.082 16.0898 27.5039 16.0898Z" fill="black" fill-opacity="0.85"/>
  <path d="M2.80078 21.1875L11.5898 21.1875C13.3477 21.1875 14.3906 20.1562 14.3906 18.4336L14.3906 6.09375C14.3906 4.37109 13.3477 3.33984 11.5898 3.33984L2.80078 3.33984C1.04297 3.33984 0 4.37109 0 6.09375L0 18.4336C0 20.1562 1.04297 21.1875 2.80078 21.1875ZM2.83594 19.418C2.16797 19.418 1.76953 19.0078 1.76953 18.3398L1.76953 6.19922C1.76953 5.51953 2.16797 5.10938 2.83594 5.10938L11.5547 5.10938C12.2227 5.10938 12.6211 5.51953 12.6211 6.19922L12.6211 18.3398C12.6211 19.0078 12.2227 19.418 11.5547 19.418Z" fill="black" fill-opacity="0.85"/>
  <path d="M4.28906 9.19922L10.125 9.19922C10.5352 9.19922 10.8516 8.88281 10.8516 8.47266C10.8516 8.07422 10.5352 7.75781 10.125 7.75781L4.28906 7.75781C3.86719 7.75781 3.55078 8.07422 3.55078 8.47266C3.55078 8.88281 3.86719 9.19922 4.28906 9.19922ZM4.28906 12.6445L7.51172 12.668C7.93359 12.668 8.23828 12.3516 8.23828 11.9414C8.23828 11.543 7.93359 11.2266 7.51172 11.2266L4.28906 11.2031C3.86719 11.2031 3.55078 11.5195 3.55078 11.918C3.55078 12.3281 3.86719 12.6445 4.28906 12.6445Z" fill="black" fill-opacity="0.85"/>
 </g>
</svg>
