<?xml version="1.0" encoding="UTF-8"?>
<!--Generator: Apple Native CoreSVG 360-->
<!DOCTYPE svg
PUBLIC "-//W3C//DTD SVG 1.1//EN"
       "http://www.w3.org/Graphics/SVG/1.1/DTD/svg11.dtd">
<svg version="1.1" xmlns="http://www.w3.org/2000/svg" xmlns:xlink="http://www.w3.org/1999/xlink" viewBox="0 0 27.7237 24.5517">
 <g>
  <rect height="24.5517" opacity="0" width="27.7237" x="0" y="0"/>
  <path d="M3.23878 4.37153L3.23878 12.5395C3.23878 16.7231 5.57081 19.0668 9.95362 19.0668L21.0396 19.0668L21.0396 21.1645L9.95362 21.1645C4.22315 21.1645 1.14112 18.059 1.14112 12.5161L1.14112 4.37153C1.14112 3.79732 1.62159 3.32857 2.19581 3.32857C2.77003 3.32857 3.23878 3.79732 3.23878 4.37153Z" fill="black" fill-opacity="0.85"/>
  <path d="M21.0396 16.7231L21.0396 23.5551C21.0396 24.5161 21.9536 24.8325 22.7388 24.2817L27.2622 21.0473C27.8833 20.602 27.8716 19.6997 27.2622 19.2661L22.7388 15.9848C21.9067 15.3872 21.0396 15.7387 21.0396 16.7231Z" fill="black" fill-opacity="0.85"/>
  <path d="M9.2505 5.26216L22.2817 5.26216C22.8442 5.26216 23.2778 4.81685 23.2778 4.25435C23.2778 3.69185 22.8442 3.25825 22.2817 3.25825L9.2505 3.25825C8.688 3.25825 8.24269 3.69185 8.24269 4.25435C8.24269 4.81685 8.688 5.26216 9.2505 5.26216ZM9.2505 12.352L16.2935 12.352C16.856 12.352 17.3013 11.9067 17.3013 11.3442C17.3013 10.7817 16.856 10.3481 16.2935 10.3481L9.2505 10.3481C8.688 10.3481 8.24269 10.7817 8.24269 11.3442C8.24269 11.9067 8.688 12.352 9.2505 12.352Z" fill="black" fill-opacity="0.85"/>
 </g>
</svg>
