<?xml version="1.0" encoding="UTF-8"?>
<!--Generator: Apple Native CoreSVG 360-->
<!DOCTYPE svg
PUBLIC "-//W3C//DTD SVG 1.1//EN"
       "http://www.w3.org/Graphics/SVG/1.1/DTD/svg11.dtd">
<svg version="1.1" xmlns="http://www.w3.org/2000/svg" xmlns:xlink="http://www.w3.org/1999/xlink" viewBox="0 0 27.6445 17.332">
 <g>
  <rect height="17.332" opacity="0" width="27.6445" x="0" y="0"/>
  <path d="M21.0938 17.3086C23.0977 17.3086 24.6211 16.3594 25.3359 14.6719L25.4062 14.6719L25.4062 16.3242C25.4062 16.9453 25.793 17.3203 26.3438 17.3203C26.9062 17.3203 27.293 16.9336 27.293 16.3125L27.293 5.21484C27.293 4.60547 26.9062 4.19531 26.3438 4.19531C25.793 4.19531 25.4062 4.60547 25.4062 5.21484L25.4062 6.86719L25.3359 6.86719C24.6211 5.21484 23.0273 4.21875 21.0938 4.21875C17.918 4.21875 15.7969 6.85547 15.7969 10.7695C15.7969 14.6953 17.918 17.3086 21.0938 17.3086ZM21.5625 15.5977C19.2773 15.5977 17.8242 13.7344 17.8242 10.7695C17.8242 7.80469 19.2773 5.91797 21.5625 5.91797C23.8477 5.91797 25.3477 7.86328 25.3477 10.7812C25.3477 13.7227 23.8711 15.5977 21.5625 15.5977Z" fill="black" fill-opacity="0.85"/>
  <path d="M0.984375 17.3086C1.60547 17.3086 1.91016 17.0742 2.13281 16.418L7.06641 2.61328L7.125 2.61328L12.0703 16.418C12.293 17.0742 12.5977 17.3086 13.207 17.3086C13.8281 17.3086 14.2266 16.9336 14.2266 16.3477C14.2266 16.1484 14.1914 15.9609 14.0977 15.7148L8.60156 1.07812C8.33203 0.363281 7.85156 0 7.10156 0C6.375 0 5.88281 0.351562 5.625 1.06641L0.128906 15.7266C0.0351562 15.9727 0 16.1602 0 16.3594C0 16.9453 0.375 17.3086 0.984375 17.3086ZM3.43359 12.2812L10.793 12.2812C11.2734 12.2812 11.6719 11.8828 11.6719 11.4023C11.6719 10.9102 11.2734 10.5234 10.793 10.5234L3.43359 10.5234C2.95312 10.5234 2.55469 10.9102 2.55469 11.4023C2.55469 11.8828 2.95312 12.2812 3.43359 12.2812Z" fill="black" fill-opacity="0.85"/>
 </g>
</svg>
