<?xml version="1.0" encoding="UTF-8"?>
<!--Generator: Apple Native CoreSVG 360-->
<!DOCTYPE svg
PUBLIC "-//W3C//DTD SVG 1.1//EN"
       "http://www.w3.org/Graphics/SVG/1.1/DTD/svg11.dtd">
<svg version="1.1" xmlns="http://www.w3.org/2000/svg" xmlns:xlink="http://www.w3.org/1999/xlink" viewBox="0 0 23.9648 20.3086">
 <g>
  <rect height="20.3086" opacity="0" width="23.9648" x="0" y="0"/>
  <path d="M0.9375 20.2852L13.3594 20.2852C13.8867 20.2852 14.3086 19.875 14.3086 19.3477C14.3086 18.8203 13.8867 18.3984 13.3594 18.3984L0.9375 18.3984C0.410156 18.3984 0 18.8203 0 19.3477C0 19.875 0.410156 20.2852 0.9375 20.2852Z" fill="black" fill-opacity="0.85"/>
  <path d="M9.62109 14.1211L22.6641 14.1211C23.1914 14.1211 23.6133 13.7109 23.6133 13.1836C23.6133 12.6445 23.1914 12.2344 22.6641 12.2344L9.62109 12.2344C9.08203 12.2344 8.66016 12.6445 8.66016 13.1836C8.66016 13.7109 9.08203 14.1211 9.62109 14.1211Z" fill="black" fill-opacity="0.85"/>
  <path d="M0.949219 14.1211L5.98828 14.1211C6.51562 14.1211 6.9375 13.7109 6.9375 13.1836C6.9375 12.6445 6.51562 12.2344 5.98828 12.2344L0.949219 12.2344C0.421875 12.2344 0 12.6445 0 13.1836C0 13.7109 0.421875 14.1211 0.949219 14.1211Z" fill="black" fill-opacity="0.85"/>
  <path d="M16.7227 8.02734L22.6523 8.02734C23.1797 8.02734 23.6133 7.60547 23.6133 7.07812C23.6133 6.55078 23.1797 6.14062 22.6523 6.14062L16.7227 6.14062C16.1953 6.14062 15.7734 6.55078 15.7734 7.07812C15.7734 7.60547 16.1953 8.02734 16.7227 8.02734Z" fill="black" fill-opacity="0.85"/>
  <path d="M7.16016 8.02734L13.0898 8.02734C13.6289 8.02734 14.0508 7.60547 14.0508 7.07812C14.0508 6.55078 13.6289 6.14062 13.0898 6.14062L7.16016 6.14062C6.63281 6.14062 6.22266 6.55078 6.22266 7.07812C6.22266 7.60547 6.63281 8.02734 7.16016 8.02734Z" fill="black" fill-opacity="0.85"/>
  <path d="M0.9375 8.02734L3.52734 8.02734C4.06641 8.02734 4.48828 7.60547 4.48828 7.07812C4.48828 6.55078 4.06641 6.14062 3.52734 6.14062L0.9375 6.14062C0.410156 6.14062 0 6.55078 0 7.07812C0 7.60547 0.410156 8.02734 0.9375 8.02734Z" fill="black" fill-opacity="0.85"/>
  <path d="M17.6133 1.88672L22.6523 1.88672C23.1797 1.88672 23.6133 1.47656 23.6133 0.949219C23.6133 0.421875 23.1797 0 22.6523 0L17.6133 0C17.0859 0 16.6758 0.421875 16.6758 0.949219C16.6758 1.47656 17.0859 1.88672 17.6133 1.88672Z" fill="black" fill-opacity="0.85"/>
  <path d="M0.9375 1.88672L13.9922 1.88672C14.5195 1.88672 14.9414 1.47656 14.9414 0.949219C14.9414 0.421875 14.5195 0 13.9922 0L0.9375 0C0.410156 0 0 0.421875 0 0.949219C0 1.47656 0.410156 1.88672 0.9375 1.88672Z" fill="black" fill-opacity="0.85"/>
 </g>
</svg>
