<?xml version="1.0" encoding="UTF-8"?>
<!--Generator: Apple Native CoreSVG 360-->
<!DOCTYPE svg
PUBLIC "-//W3C//DTD SVG 1.1//EN"
       "http://www.w3.org/Graphics/SVG/1.1/DTD/svg11.dtd">
<svg version="1.1" xmlns="http://www.w3.org/2000/svg" xmlns:xlink="http://www.w3.org/1999/xlink" viewBox="0 0 20.0625 25.1367">
 <g>
  <rect height="25.1367" opacity="0" width="20.0625" x="0" y="0"/>
  <path d="M19.7109 3.67969L19.7109 21.457C19.7109 23.9062 18.5039 25.125 16.0781 25.125L3.63281 25.125C1.20703 25.125 0 23.9062 0 21.457L0 3.67969C0 1.24219 1.20703 0 3.63281 0L16.0781 0C18.5039 0 19.7109 1.24219 19.7109 3.67969ZM5.27344 13.5703C4.83984 13.5703 4.52344 13.8984 4.52344 14.3203C4.52344 14.7305 4.83984 15.0586 5.27344 15.0586L9.60938 15.0586C10.0547 15.0586 10.3594 14.7305 10.3594 14.3203C10.3594 13.8984 10.0547 13.5703 9.60938 13.5703ZM5.27344 9.35156C4.83984 9.35156 4.52344 9.66797 4.52344 10.0781C4.52344 10.5 4.83984 10.8398 5.27344 10.8398L14.4492 10.8398C14.8711 10.8398 15.1875 10.5 15.1875 10.0781C15.1875 9.66797 14.8711 9.35156 14.4492 9.35156ZM5.27344 5.13281C4.83984 5.13281 4.52344 5.44922 4.52344 5.85938C4.52344 6.28125 4.83984 6.62109 5.27344 6.62109L14.4492 6.62109C14.8711 6.62109 15.1875 6.28125 15.1875 5.85938C15.1875 5.44922 14.8711 5.13281 14.4492 5.13281Z" fill="black" fill-opacity="0.85"/>
 </g>
</svg>
