<?xml version="1.0" encoding="UTF-8"?>
<!--Generator: Apple Native CoreSVG 360-->
<!DOCTYPE svg
PUBLIC "-//W3C//DTD SVG 1.1//EN"
       "http://www.w3.org/Graphics/SVG/1.1/DTD/svg11.dtd">
<svg version="1.1" xmlns="http://www.w3.org/2000/svg" xmlns:xlink="http://www.w3.org/1999/xlink" viewBox="0 0 35.7891 25.0486">
 <g>
  <rect height="25.0486" opacity="0" width="35.7891" x="0" y="0"/>
  <path d="M8.35547 22.6552L30.0703 22.6552C30.5977 22.6552 31.0195 22.245 31.0195 21.7177C31.0195 21.1903 30.5977 20.7684 30.0703 20.7684L8.35547 20.7684C7.82812 20.7684 7.41797 21.1903 7.41797 21.7177C7.41797 22.245 7.82812 22.6552 8.35547 22.6552Z" fill="black" fill-opacity="0.85"/>
  <path d="M8.35547 16.5263L30.0703 16.5263C30.5977 16.5263 31.0195 16.1161 31.0195 15.5888C31.0195 15.0497 30.5977 14.6395 30.0703 14.6395L8.35547 14.6395C7.82812 14.6395 7.41797 15.0497 7.41797 15.5888C7.41797 16.1161 7.82812 16.5263 8.35547 16.5263Z" fill="black" fill-opacity="0.85"/>
  <path d="M8.35547 10.3973L30.0703 10.3973C30.5977 10.3973 31.0195 9.97547 31.0195 9.44813C31.0195 8.92078 30.5977 8.51063 30.0703 8.51063L8.35547 8.51063C7.82812 8.51063 7.41797 8.92078 7.41797 9.44813C7.41797 9.97547 7.82812 10.3973 8.35547 10.3973Z" fill="black" fill-opacity="0.85"/>
  <path d="M8.89453 5.21766L29.543 5.21766C30.5273 5.21766 31.0195 4.73719 31.0195 3.75281L31.0195 2.87391C31.0195 1.91297 30.5273 1.42078 29.543 1.42078L8.89453 1.42078C7.91016 1.42078 7.41797 1.91297 7.41797 2.87391L7.41797 3.75281C7.41797 4.73719 7.91016 5.21766 8.89453 5.21766Z" fill="black" fill-opacity="0.85"/>
  <path d="M1.05469 6.50672L5.21484 3.96375C5.75391 3.64735 5.74219 3.01453 5.21484 2.69813L1.05469 0.14344C0.503906-0.196404 0 0.0965649 0 0.717659L0 5.94422C0 6.57703 0.503906 6.84656 1.05469 6.50672Z" fill="black" fill-opacity="0.85"/>
 </g>
</svg>
