<?xml version="1.0" encoding="UTF-8"?>
<!--Generator: Apple Native CoreSVG 360-->
<!DOCTYPE svg
PUBLIC "-//W3C//DTD SVG 1.1//EN"
       "http://www.w3.org/Graphics/SVG/1.1/DTD/svg11.dtd">
<svg version="1.1" xmlns="http://www.w3.org/2000/svg" xmlns:xlink="http://www.w3.org/1999/xlink" viewBox="0 0 23.9648 20.3086">
 <g>
  <rect height="20.3086" opacity="0" width="23.9648" x="0" y="0"/>
  <path d="M5.42578 20.2852L18.1641 20.2852C18.6914 20.2852 19.125 19.875 19.125 19.3477C19.125 18.8203 18.6914 18.3984 18.1641 18.3984L5.42578 18.3984C4.89844 18.3984 4.48828 18.8203 4.48828 19.3477C4.48828 19.875 4.89844 20.2852 5.42578 20.2852Z" fill="black" fill-opacity="0.85"/>
  <path d="M0.9375 14.1562L22.6523 14.1562C23.1797 14.1562 23.6133 13.7461 23.6133 13.2188C23.6133 12.6797 23.1797 12.2695 22.6523 12.2695L0.9375 12.2695C0.410156 12.2695 0 12.6797 0 13.2188C0 13.7461 0.410156 14.1562 0.9375 14.1562Z" fill="black" fill-opacity="0.85"/>
  <path d="M5.42578 8.02734L18.1641 8.02734C18.6914 8.02734 19.125 7.60547 19.125 7.07812C19.125 6.55078 18.6914 6.14062 18.1641 6.14062L5.42578 6.14062C4.89844 6.14062 4.48828 6.55078 4.48828 7.07812C4.48828 7.60547 4.89844 8.02734 5.42578 8.02734Z" fill="black" fill-opacity="0.85"/>
  <path d="M0.9375 1.88672L22.6523 1.88672C23.1797 1.88672 23.6133 1.47656 23.6133 0.949219C23.6133 0.421875 23.1797 0 22.6523 0L0.9375 0C0.410156 0 0 0.421875 0 0.949219C0 1.47656 0.410156 1.88672 0.9375 1.88672Z" fill="black" fill-opacity="0.85"/>
 </g>
</svg>
