<?xml version="1.0" encoding="UTF-8"?>
<!--Generator: Apple Native CoreSVG 360-->
<!DOCTYPE svg
PUBLIC "-//W3C//DTD SVG 1.1//EN"
       "http://www.w3.org/Graphics/SVG/1.1/DTD/svg11.dtd">
<svg version="1.1" xmlns="http://www.w3.org/2000/svg" xmlns:xlink="http://www.w3.org/1999/xlink" viewBox="0 0 23.9648 20.3086">
 <g>
  <rect height="20.3086" opacity="0" width="23.9648" x="0" y="0"/>
  <path d="M0.9375 20.2852L22.6523 20.2852C23.1797 20.2852 23.6133 19.875 23.6133 19.3477C23.6133 18.8203 23.1797 18.3984 22.6523 18.3984L0.9375 18.3984C0.410156 18.3984 0 18.8203 0 19.3477C0 19.875 0.410156 20.2852 0.9375 20.2852Z" fill="black" fill-opacity="0.85"/>
  <path d="M0.9375 14.1562L22.6523 14.1562C23.1797 14.1562 23.6133 13.7461 23.6133 13.2188C23.6133 12.6797 23.1797 12.2695 22.6523 12.2695L0.9375 12.2695C0.410156 12.2695 0 12.6797 0 13.2188C0 13.7461 0.410156 14.1562 0.9375 14.1562Z" fill="black" fill-opacity="0.85"/>
  <path d="M16.1602 8.02734L22.6523 8.02734C23.1797 8.02734 23.6133 7.60547 23.6133 7.07812C23.6133 6.55078 23.1797 6.14062 22.6523 6.14062L16.1602 6.14062C15.6328 6.14062 15.2227 6.55078 15.2227 7.07812C15.2227 7.60547 15.6328 8.02734 16.1602 8.02734Z" fill="black" fill-opacity="0.85"/>
  <path d="M16.1602 1.88672L22.6523 1.88672C23.1797 1.88672 23.6133 1.47656 23.6133 0.949219C23.6133 0.421875 23.1797 0 22.6523 0L16.1602 0C15.6328 0 15.2227 0.421875 15.2227 0.949219C15.2227 1.47656 15.6328 1.88672 16.1602 1.88672Z" fill="black" fill-opacity="0.85"/>
  <path d="M3.23438 8.69531C4.72266 8.69531 5.95312 7.69922 5.95312 6.11719C5.95312 4.61719 4.93359 3.63281 3.53906 3.63281C2.56641 3.63281 1.88672 4.14844 1.65234 5.15625L1.83984 5.17969C1.95703 3.10547 3.31641 1.71094 5.26172 1.61719C5.70703 1.59375 6.03516 1.27734 6.03516 0.832031C6.03516 0.292969 5.58984 0.0117188 5.01562 0.0117188C2.36719 0.0117188 0.0351562 2.26172 0.0351562 5.22656C0.0351562 7.33594 1.44141 8.69531 3.23438 8.69531ZM10.4062 8.69531C11.8945 8.69531 13.1367 7.69922 13.1367 6.11719C13.1367 4.61719 12.1172 3.63281 10.7109 3.63281C9.75 3.63281 9.07031 4.14844 8.82422 5.15625L9.01172 5.17969C9.12891 3.10547 10.4883 1.69922 12.4219 1.61719C12.8789 1.59375 13.2188 1.27734 13.2188 0.832031C13.2188 0.292969 12.7852 0.0117188 12.1875 0.0117188C9.5625 0.0117188 7.20703 2.26172 7.20703 5.22656C7.20703 7.33594 8.625 8.69531 10.4062 8.69531Z" fill="black" fill-opacity="0.85"/>
 </g>
</svg>
