<?xml version="1.0" encoding="UTF-8"?>
<!--Generator: Apple Native CoreSVG 360-->
<!DOCTYPE svg
PUBLIC "-//W3C//DTD SVG 1.1//EN"
       "http://www.w3.org/Graphics/SVG/1.1/DTD/svg11.dtd">
<svg version="1.1" xmlns="http://www.w3.org/2000/svg" xmlns:xlink="http://www.w3.org/1999/xlink" viewBox="0 0 23.3086 28.8633">
 <g>
  <rect height="28.8633" opacity="0" width="23.3086" x="0" y="0"/>
  <path d="M0.9375 28.7344L22.0078 28.7344C22.5234 28.7344 22.957 28.3008 22.957 27.7852C22.957 27.2695 22.5234 26.8477 22.0078 26.8477L0.9375 26.8477C0.421875 26.8477 0 27.2695 0 27.7852C0 28.3008 0.421875 28.7344 0.9375 28.7344Z" fill="black" fill-opacity="0.85"/>
  <path d="M0.9375 22.8164L22.0078 22.8164C22.5234 22.8164 22.957 22.3828 22.957 21.8672C22.957 21.3516 22.5234 20.9297 22.0078 20.9297L0.9375 20.9297C0.421875 20.9297 0 21.3516 0 21.8672C0 22.3828 0.421875 22.8164 0.9375 22.8164Z" fill="black" fill-opacity="0.85"/>
  <path d="M3.17578 16.8984L20.0742 16.8984C21.9023 16.8984 22.9453 15.8555 22.9453 13.7578L22.9453 4.98047C22.9453 2.90625 21.8906 1.83984 19.7812 1.83984L9.57422 1.83984C8.88281 1.83984 8.47266 1.6875 7.96875 1.25391L7.34766 0.738281C6.67969 0.1875 6.16406 0 5.16797 0L2.77734 0C1.00781 0 0 0.996094 0 3.04688L0 13.7578C0 15.8555 1.06641 16.8984 3.17578 16.8984ZM1.85156 5.61328L1.85156 5.05078C1.85156 4.44141 2.30859 4.04297 3.07031 4.04297L19.8516 4.04297C20.6016 4.04297 21.0586 4.44141 21.0586 5.05078L21.0586 5.61328Z" fill="black" fill-opacity="0.85"/>
 </g>
</svg>
