<?xml version="1.0" encoding="UTF-8"?>
<!--Generator: Apple Native CoreSVG 360-->
<!DOCTYPE svg
PUBLIC "-//W3C//DTD SVG 1.1//EN"
       "http://www.w3.org/Graphics/SVG/1.1/DTD/svg11.dtd">
<svg version="1.1" xmlns="http://www.w3.org/2000/svg" xmlns:xlink="http://www.w3.org/1999/xlink" viewBox="0 0 27.2109 17.332">
 <g>
  <rect height="17.332" opacity="0" width="27.2109" x="0" y="0"/>
  <path d="M20.6836 17.3086C22.4883 17.3086 24.1758 16.3242 24.9023 14.8008L24.9492 14.8008L24.9492 16.3477C24.9492 16.9336 25.3477 17.3203 25.8984 17.3203C26.4609 17.3203 26.8594 16.9336 26.8594 16.3008L26.8594 8.47266C26.8594 5.91797 24.9844 4.27734 22.0078 4.27734C19.8047 4.27734 17.9648 5.25 17.2969 6.76172C17.168 7.04297 17.0742 7.32422 17.0742 7.58203C17.0742 8.09766 17.4609 8.4375 17.9648 8.4375C18.3281 8.4375 18.6094 8.29688 18.7852 7.96875C19.4414 6.60938 20.4375 5.96484 21.9609 5.96484C23.7891 5.96484 24.8789 6.99609 24.8789 8.63672L24.8789 9.64453L21.0938 9.85547C18.1289 10.0195 16.4766 11.3906 16.4766 13.5703C16.4766 15.8086 18.1992 17.3086 20.6836 17.3086ZM21.1641 15.6797C19.582 15.6797 18.5039 14.8125 18.5039 13.5234C18.5039 12.2812 19.5 11.4492 21.3398 11.332L24.8789 11.1094L24.8789 12.3516C24.8789 14.2148 23.2266 15.6797 21.1641 15.6797Z" fill="black" fill-opacity="0.85"/>
  <path d="M0.984375 17.3086C1.60547 17.3086 1.91016 17.0742 2.13281 16.418L7.06641 2.61328L7.125 2.61328L12.0703 16.418C12.293 17.0742 12.5977 17.3086 13.207 17.3086C13.8281 17.3086 14.2266 16.9336 14.2266 16.3477C14.2266 16.1484 14.1914 15.9609 14.0977 15.7148L8.60156 1.07812C8.33203 0.363281 7.85156 0 7.10156 0C6.375 0 5.88281 0.351562 5.625 1.06641L0.128906 15.7266C0.0351562 15.9727 0 16.1602 0 16.3594C0 16.9453 0.375 17.3086 0.984375 17.3086ZM3.43359 12.2812L10.793 12.2812C11.2734 12.2812 11.6719 11.8828 11.6719 11.4023C11.6719 10.9102 11.2734 10.5234 10.793 10.5234L3.43359 10.5234C2.95312 10.5234 2.55469 10.9102 2.55469 11.4023C2.55469 11.8828 2.95312 12.2812 3.43359 12.2812Z" fill="black" fill-opacity="0.85"/>
 </g>
</svg>
