<?xml version="1.0" encoding="UTF-8"?>
<!--Generator: Apple Native CoreSVG 360-->
<!DOCTYPE svg
PUBLIC "-//W3C//DTD SVG 1.1//EN"
       "http://www.w3.org/Graphics/SVG/1.1/DTD/svg11.dtd">
<svg version="1.1" xmlns="http://www.w3.org/2000/svg" xmlns:xlink="http://www.w3.org/1999/xlink" viewBox="0 0 23.3086 28.7461">
 <g>
  <rect height="28.7461" opacity="0" width="23.3086" x="0" y="0"/>
  <path d="M0.9375 28.7461L22.0078 28.7461C22.5234 28.7461 22.957 28.3125 22.957 27.7969C22.957 27.2812 22.5234 26.8594 22.0078 26.8594L0.9375 26.8594C0.421875 26.8594 0 27.2812 0 27.7969C0 28.3125 0.421875 28.7461 0.9375 28.7461Z" fill="black" fill-opacity="0.85"/>
  <path d="M0.9375 22.8281L22.0078 22.8281C22.5234 22.8281 22.957 22.3945 22.957 21.8789C22.957 21.3633 22.5234 20.9414 22.0078 20.9414L0.9375 20.9414C0.421875 20.9414 0 21.3633 0 21.8789C0 22.3945 0.421875 22.8281 0.9375 22.8281Z" fill="black" fill-opacity="0.85"/>
  <path d="M3.17578 16.9102L20.0859 16.9102C21.9023 16.9102 22.957 15.8555 22.957 13.7812L22.957 4.98047C22.957 2.89453 21.8906 1.85156 19.7812 1.85156L10.0664 1.85156C9.375 1.85156 8.97656 1.6875 8.47266 1.26562L7.85156 0.738281C7.18359 0.1875 6.66797 0 5.67188 0L2.77734 0C1.00781 0 0 1.00781 0 3.03516L0 13.7812C0 15.8555 1.05469 16.9102 3.17578 16.9102ZM3.1875 15.2344C2.21484 15.2344 1.66406 14.7188 1.66406 13.6875L1.66406 3.11719C1.66406 2.14453 2.17969 1.65234 3.10547 1.65234L5.25 1.65234C5.91797 1.65234 6.30469 1.80469 6.80859 2.25L7.42969 2.75391C8.08594 3.30469 8.64844 3.51562 9.65625 3.51562L19.7695 3.51562C20.7305 3.51562 21.293 4.04297 21.293 5.0625L21.293 13.6992C21.293 14.7188 20.7305 15.2344 19.7695 15.2344ZM2.84766 6.62109L20.0977 6.62109L20.0977 6.01172C20.0977 5.35547 19.7578 5.03906 19.0898 5.03906L3.86719 5.03906C3.1875 5.03906 2.84766 5.35547 2.84766 6.01172Z" fill="black" fill-opacity="0.85"/>
 </g>
</svg>
