<?xml version="1.0" encoding="UTF-8"?>
<!--Generator: Apple Native CoreSVG 360-->
<!DOCTYPE svg
PUBLIC "-//W3C//DTD SVG 1.1//EN"
       "http://www.w3.org/Graphics/SVG/1.1/DTD/svg11.dtd">
<svg version="1.1" xmlns="http://www.w3.org/2000/svg" xmlns:xlink="http://www.w3.org/1999/xlink" viewBox="0 0 25.5938 21.4336">
 <g>
  <rect height="21.4336" opacity="0" width="25.5938" x="0" y="0"/>
  <path d="M3.80859 1.88672L21.4336 1.88672C21.9609 1.88672 22.3828 1.46484 22.3828 0.9375C22.3828 0.410156 21.9609 0 21.4336 0L3.80859 0C3.26953 0 2.85938 0.410156 2.85938 0.9375C2.85938 1.46484 3.26953 1.88672 3.80859 1.88672ZM3.80859 9.42188L21.4336 9.42188C21.9609 9.42188 22.3828 9 22.3828 8.47266C22.3828 7.94531 21.9609 7.53516 21.4336 7.53516L3.80859 7.53516C3.28125 7.53516 2.85938 7.94531 2.85938 8.47266C2.85938 9 3.28125 9.42188 3.80859 9.42188ZM3.80859 16.8867L21.4336 16.8867C21.9609 16.8867 22.3828 16.4766 22.3828 15.9375C22.3828 15.4102 21.9609 15 21.4336 15L3.80859 15C3.26953 15 2.85938 15.4102 2.85938 15.9375C2.85938 16.4766 3.26953 16.8867 3.80859 16.8867ZM3.80859 21.4219L21.4336 21.4219C21.9609 21.4219 22.3828 21.0117 22.3828 20.4844C22.3828 19.9453 21.9609 19.5352 21.4336 19.5352L3.80859 19.5352C3.26953 19.5352 2.85938 19.9453 2.85938 20.4844C2.85938 21.0117 3.26953 21.4219 3.80859 21.4219Z" fill="black" fill-opacity="0.85"/>
  <path d="M3.80859 12.2461L21.4453 12.2461C23.5781 12.2461 25.2422 10.5703 25.2422 8.4375C25.2422 6.30469 23.5781 4.62891 21.4453 4.62891L3.80859 4.62891C1.67578 4.62891 0 6.30469 0 8.4375C0 10.5703 1.67578 12.2461 3.80859 12.2461ZM3.80859 10.9453C2.40234 10.9453 1.30078 9.84375 1.30078 8.4375C1.30078 7.04297 2.40234 5.92969 3.80859 5.92969L21.4453 5.92969C22.8398 5.92969 23.9414 7.04297 23.9414 8.4375C23.9414 9.84375 22.8398 10.9453 21.4453 10.9453Z" fill="black" fill-opacity="0.85"/>
 </g>
</svg>
