<?xml version="1.0" encoding="UTF-8"?>
<!--Generator: Apple Native CoreSVG 360-->
<!DOCTYPE svg
PUBLIC "-//W3C//DTD SVG 1.1//EN"
       "http://www.w3.org/Graphics/SVG/1.1/DTD/svg11.dtd">
<svg version="1.1" xmlns="http://www.w3.org/2000/svg" xmlns:xlink="http://www.w3.org/1999/xlink" viewBox="0 0 23.9648 20.3086">
 <g>
  <rect height="20.3086" opacity="0" width="23.9648" x="0" y="0"/>
  <path d="M23.6133 19.3477C23.6133 19.875 23.1797 20.2852 22.6523 20.2852L0.9375 20.2852C0.410156 20.2852 0 19.875 0 19.3477C0 18.8203 0.410156 18.3984 0.9375 18.3984L22.6523 18.3984C23.1797 18.3984 23.6133 18.8203 23.6133 19.3477Z" fill="black" fill-opacity="0.85"/>
  <path d="M23.6133 13.2188C23.6133 13.7461 23.1797 14.1562 22.6523 14.1562L0.9375 14.1562C0.410156 14.1562 0 13.7461 0 13.2188C0 12.6797 0.410156 12.2695 0.9375 12.2695L22.6523 12.2695C23.1797 12.2695 23.6133 12.6797 23.6133 13.2188Z" fill="black" fill-opacity="0.85"/>
  <path d="M23.6133 7.07812C23.6133 7.60547 23.1797 8.02734 22.6523 8.02734L14.7539 8.02734C14.2266 8.02734 13.8164 7.60547 13.8164 7.07812C13.8164 6.55078 14.2266 6.14062 14.7539 6.14062L22.6523 6.14062C23.1797 6.14062 23.6133 6.55078 23.6133 7.07812Z" fill="black" fill-opacity="0.85"/>
  <path d="M23.6133 0.949219C23.6133 1.47656 23.1797 1.88672 22.6523 1.88672L14.7539 1.88672C14.2266 1.88672 13.8164 1.47656 13.8164 0.949219C13.8164 0.421875 14.2266 0 14.7539 0L22.6523 0C23.1797 0 23.6133 0.421875 23.6133 0.949219Z" fill="black" fill-opacity="0.85"/>
  <path d="M6.28125 5.20312L3.01172 5.20312C2.67188 5.20312 2.49609 5.37891 2.49609 5.71875L2.49609 7.74609C2.49609 8.39062 1.98047 8.90625 1.34766 8.90625C0.703125 8.90625 0.1875 8.39062 0.1875 7.74609L0.1875 5.40234C0.1875 3.79688 1.14844 2.89453 2.84766 2.89453L6.28125 2.89453Z" fill="black" fill-opacity="0.85"/>
  <path d="M6.28125 1.40625L6.28125 6.82031C6.28125 7.61719 6.98438 7.98047 7.64062 7.47656L11.1445 4.80469C11.6016 4.44141 11.6016 3.78516 11.1445 3.42188L7.64062 0.75C6.98438 0.246094 6.28125 0.609375 6.28125 1.40625Z" fill="black" fill-opacity="0.85"/>
 </g>
</svg>
