<?xml version="1.0" encoding="UTF-8"?>
<!--Generator: Apple Native CoreSVG 360-->
<!DOCTYPE svg
PUBLIC "-//W3C//DTD SVG 1.1//EN"
       "http://www.w3.org/Graphics/SVG/1.1/DTD/svg11.dtd">
<svg version="1.1" xmlns="http://www.w3.org/2000/svg" xmlns:xlink="http://www.w3.org/1999/xlink" viewBox="0 0 22.3828 17.3555">
 <g>
  <rect height="17.3555" opacity="0" width="22.3828" x="0" y="0"/>
  <path d="M11.5898 17.0859L21.0586 17.0859C21.6445 17.0859 22.0312 16.7109 22.0312 16.1484C22.0312 15.5859 21.6445 15.1992 21.0586 15.1992L13.5234 15.1992L13.5234 15.1406L17.8359 10.6523C20.5195 7.86328 21.4453 6.53906 21.4453 4.74609C21.4453 2.05078 19.0664 0 15.8906 0C13.3945 0 11.2617 1.35938 10.5469 3.42188C10.4062 3.80859 10.3477 4.13672 10.3477 4.44141C10.3477 5.01562 10.6992 5.41406 11.2734 5.41406C11.8242 5.41406 12.0586 5.15625 12.2344 4.55859C12.3281 4.20703 12.457 3.86719 12.6445 3.57422C13.2656 2.51953 14.4258 1.86328 15.8906 1.86328C17.7773 1.86328 19.3008 3.19922 19.3008 4.86328C19.3008 6.21094 18.6797 7.05469 16.4297 9.41016L11.2148 14.8828C10.7344 15.3867 10.5586 15.6797 10.5586 16.1016C10.5586 16.7109 10.9688 17.0859 11.5898 17.0859Z" fill="black" fill-opacity="0.85"/>
  <path d="M5.97656 17.3203C6.62109 17.3203 7.04297 16.8984 7.04297 16.2539L7.04297 1.27734C7.04297 0.515625 6.5625 0.09375 5.83594 0.09375C5.29688 0.09375 5.00391 0.257812 4.51172 0.574219L0.609375 3.10547C0.152344 3.39844 0 3.67969 0 4.06641C0 4.54688 0.351562 4.88672 0.867188 4.88672C1.18359 4.88672 1.33594 4.80469 1.54688 4.66406L4.88672 2.56641L4.93359 2.56641L4.93359 16.2539C4.93359 16.8984 5.33203 17.3203 5.97656 17.3203Z" fill="black" fill-opacity="0.85"/>
 </g>
</svg>
