<?xml version="1.0" encoding="UTF-8"?>
<!--Generator: Apple Native CoreSVG 360-->
<!DOCTYPE svg
PUBLIC "-//W3C//DTD SVG 1.1//EN"
       "http://www.w3.org/Graphics/SVG/1.1/DTD/svg11.dtd">
<svg version="1.1" xmlns="http://www.w3.org/2000/svg" xmlns:xlink="http://www.w3.org/1999/xlink" viewBox="0 0 39.3633 17.3086">
 <g>
  <rect height="17.3086" opacity="0" width="39.3633" x="0" y="0"/>
  <path d="M34.0664 17.3086C36.3047 17.3086 38.2383 16.0664 38.9062 14.3203C38.9766 14.1211 39.0117 13.9219 39.0117 13.7578C39.0117 13.2539 38.6367 12.9023 38.1445 12.9023C37.7109 12.9023 37.4766 13.0781 37.207 13.582C36.6211 14.8711 35.6133 15.5742 34.0781 15.5742C31.875 15.5742 30.4336 13.8516 30.4336 11.0039C30.4336 8.17969 31.875 6.41016 34.0781 6.41016C35.543 6.41016 36.5859 7.08984 37.1836 8.42578C37.4414 8.90625 37.6875 9.08203 38.1094 9.08203C38.6133 9.08203 38.9766 8.74219 38.9766 8.23828C38.9766 8.09766 38.9414 7.92188 38.8945 7.76953C38.3086 6 36.3516 4.67578 34.0312 4.67578C30.6328 4.67578 28.4062 7.18359 28.4062 11.0156C28.4062 14.8594 30.6562 17.3086 34.0664 17.3086Z" fill="black" fill-opacity="0.85"/>
  <path d="M16.793 17.2969C17.3555 17.2969 17.7773 16.9102 17.7773 16.3008L17.7773 14.6836L17.8008 14.6836C18.457 16.2891 19.9805 17.3086 21.8789 17.3086C24.9961 17.3086 27.0586 14.8125 27.0586 10.9922C27.0586 7.17188 24.9844 4.67578 21.9023 4.67578C20.0508 4.67578 18.5273 5.69531 17.8477 7.28906L17.8242 7.28906L17.8242 1.48828C17.8242 0.855469 17.4258 0.433594 16.8281 0.433594C16.2539 0.433594 15.8438 0.855469 15.8438 1.48828L15.8438 16.3008C15.8438 16.9219 16.2305 17.2969 16.793 17.2969ZM21.457 15.5742C19.3359 15.5742 17.8242 13.7812 17.8242 11.0039C17.8242 8.22656 19.3359 6.42188 21.457 6.42188C23.6484 6.42188 25.0195 8.16797 25.0195 10.9922C25.0195 13.8281 23.6484 15.5742 21.457 15.5742Z" fill="black" fill-opacity="0.85"/>
  <path d="M0.949219 17.2969C1.39453 17.2969 1.82812 17.0391 2.03906 16.418L3.5625 12.2461L10.5469 12.2461L12.0703 16.418C12.293 17.0508 12.7031 17.2969 13.1367 17.2969C13.6523 17.2969 14.1328 16.9219 14.1328 16.3594C14.1328 16.1602 14.0977 15.9844 14.0039 15.7383L8.50781 1.10156C8.25 0.410156 7.79297 0.0585938 7.05469 0.0585938C6.33984 0.0585938 5.88281 0.398438 5.625 1.08984L0.128906 15.75C0.0351562 15.9961 0 16.1719 0 16.3711C0 16.9453 0.457031 17.2969 0.949219 17.2969ZM4.10156 10.5586L6.98438 2.57812L7.11328 2.57812L9.99609 10.5586Z" fill="black" fill-opacity="0.85"/>
 </g>
</svg>
