<?xml version="1.0" encoding="UTF-8"?>
<!--Generator: Apple Native CoreSVG 360-->
<!DOCTYPE svg
PUBLIC "-//W3C//DTD SVG 1.1//EN"
       "http://www.w3.org/Graphics/SVG/1.1/DTD/svg11.dtd">
<svg version="1.1" xmlns="http://www.w3.org/2000/svg" xmlns:xlink="http://www.w3.org/1999/xlink" viewBox="0 0 23.9648 20.3086">
 <g>
  <rect height="20.3086" opacity="0" width="23.9648" x="0" y="0"/>
  <path d="M23.6133 19.3477C23.6133 19.875 23.1797 20.2852 22.6523 20.2852L14.7539 20.2852C14.2266 20.2852 13.8164 19.875 13.8164 19.3477C13.8164 18.8203 14.2266 18.3984 14.7539 18.3984L22.6523 18.3984C23.1797 18.3984 23.6133 18.8203 23.6133 19.3477Z" fill="black" fill-opacity="0.85"/>
  <path d="M23.6133 13.2188C23.6133 13.7461 23.1797 14.1562 22.6523 14.1562L14.7539 14.1562C14.2266 14.1562 13.8164 13.7461 13.8164 13.2188C13.8164 12.6797 14.2266 12.2695 14.7539 12.2695L22.6523 12.2695C23.1797 12.2695 23.6133 12.6797 23.6133 13.2188Z" fill="black" fill-opacity="0.85"/>
  <path d="M23.6133 7.07812C23.6133 7.60547 23.1797 8.02734 22.6523 8.02734L0.9375 8.02734C0.410156 8.02734 0 7.60547 0 7.07812C0 6.55078 0.410156 6.14062 0.9375 6.14062L22.6523 6.14062C23.1797 6.14062 23.6133 6.55078 23.6133 7.07812Z" fill="black" fill-opacity="0.85"/>
  <path d="M23.6133 0.949219C23.6133 1.47656 23.1797 1.88672 22.6523 1.88672L0.9375 1.88672C0.410156 1.88672 0 1.47656 0 0.949219C0 0.421875 0.410156 0 0.9375 0L22.6523 0C23.1797 0 23.6133 0.421875 23.6133 0.949219Z" fill="black" fill-opacity="0.85"/>
  <path d="M2.49609 12.5391L2.49609 14.5781C2.49609 14.9062 2.67188 15.0938 3.01172 15.0938L6.28125 15.0938L6.28125 17.3906L2.84766 17.3906C1.14844 17.3906 0.1875 16.5 0.1875 14.8945L0.1875 12.5391C0.1875 11.9062 0.703125 11.3906 1.34766 11.3906C1.98047 11.3906 2.49609 11.9062 2.49609 12.5391Z" fill="black" fill-opacity="0.85"/>
  <path d="M6.28125 18.8906C6.28125 19.6758 6.98438 20.0508 7.64062 19.5469L11.1445 16.8633C11.6016 16.5117 11.6016 15.8438 11.1445 15.4922L7.64062 12.8086C6.98438 12.3164 6.28125 12.6797 6.28125 13.4648Z" fill="black" fill-opacity="0.85"/>
 </g>
</svg>
