<?xml version="1.0" encoding="UTF-8"?>
<!--Generator: Apple Native CoreSVG 360-->
<!DOCTYPE svg
PUBLIC "-//W3C//DTD SVG 1.1//EN"
       "http://www.w3.org/Graphics/SVG/1.1/DTD/svg11.dtd">
<svg version="1.1" xmlns="http://www.w3.org/2000/svg" xmlns:xlink="http://www.w3.org/1999/xlink" viewBox="0 0 23.9648 23.1211">
 <g>
  <rect height="23.1211" opacity="0" width="23.9648" x="0" y="0"/>
  <path d="M0.9375 21.6914L22.6523 21.6914C23.1797 21.6914 23.6133 21.2812 23.6133 20.7539C23.6133 20.2266 23.1797 19.8047 22.6523 19.8047L0.9375 19.8047C0.410156 19.8047 0 20.2266 0 20.7539C0 21.2812 0.410156 21.6914 0.9375 21.6914Z" fill="black" fill-opacity="0.85"/>
  <path d="M0.9375 15.5625L22.6523 15.5625C23.1797 15.5625 23.6133 15.1523 23.6133 14.625C23.6133 14.0859 23.1797 13.6758 22.6523 13.6758L0.9375 13.6758C0.410156 13.6758 0 14.0859 0 14.625C0 15.1523 0.410156 15.5625 0.9375 15.5625Z" fill="black" fill-opacity="0.85"/>
  <path d="M14.7539 9.43359L22.6523 9.43359C23.1797 9.43359 23.6133 9.01172 23.6133 8.48438C23.6133 7.95703 23.1797 7.54688 22.6523 7.54688L14.7539 7.54688C14.2266 7.54688 13.8164 7.95703 13.8164 8.48438C13.8164 9.01172 14.2266 9.43359 14.7539 9.43359Z" fill="black" fill-opacity="0.85"/>
  <path d="M14.7539 3.29297L22.6523 3.29297C23.1797 3.29297 23.6133 2.88281 23.6133 2.35547C23.6133 1.82812 23.1797 1.40625 22.6523 1.40625L14.7539 1.40625C14.2266 1.40625 13.8164 1.82812 13.8164 2.35547C13.8164 2.88281 14.2266 3.29297 14.7539 3.29297Z" fill="black" fill-opacity="0.85"/>
  <path d="M2.89453 10.1953L9.02344 10.1953C10.3125 10.1953 11.0625 9.45703 11.0625 8.21484L11.0625 1.99219C11.0625 0.738281 10.3125 0 9.02344 0L2.89453 0C1.61719 0 0.867188 0.738281 0.867188 1.99219L0.867188 8.21484C0.867188 9.45703 1.61719 10.1953 2.89453 10.1953Z" fill="black" fill-opacity="0.85"/>
 </g>
</svg>
