<?xml version="1.0" encoding="UTF-8"?>
<!--Generator: Apple Native CoreSVG 360-->
<!DOCTYPE svg
PUBLIC "-//W3C//DTD SVG 1.1//EN"
       "http://www.w3.org/Graphics/SVG/1.1/DTD/svg11.dtd">
<svg version="1.1" xmlns="http://www.w3.org/2000/svg" xmlns:xlink="http://www.w3.org/1999/xlink" viewBox="0 0 35.7891 25.0246">
 <g>
  <rect height="25.0246" opacity="0" width="35.7891" x="0" y="0"/>
  <path d="M8.35547 2.358C7.82812 2.358 7.41797 2.77988 7.41797 3.30722C7.41797 3.83457 7.82812 4.24472 8.35547 4.24472L30.0703 4.24472C30.5977 4.24472 31.0195 3.83457 31.0195 3.30722C31.0195 2.77988 30.5977 2.358 30.0703 2.358Z" fill="black" fill-opacity="0.85"/>
  <path d="M8.35547 8.49863C7.82812 8.49863 7.41797 8.90878 7.41797 9.43613C7.41797 9.96347 7.82812 10.3853 8.35547 10.3853L30.0703 10.3853C30.5977 10.3853 31.0195 9.96347 31.0195 9.43613C31.0195 8.90878 30.5977 8.49863 30.0703 8.49863Z" fill="black" fill-opacity="0.85"/>
  <path d="M8.35547 14.6275C7.82812 14.6275 7.41797 15.0377 7.41797 15.5768C7.41797 16.1041 7.82812 16.5143 8.35547 16.5143L30.0703 16.5143C30.5977 16.5143 31.0195 16.1041 31.0195 15.5768C31.0195 15.0377 30.5977 14.6275 30.0703 14.6275Z" fill="black" fill-opacity="0.85"/>
  <path d="M8.89453 19.8072C7.91016 19.8072 7.41797 20.2877 7.41797 21.2721L7.41797 22.151C7.41797 23.1119 7.91016 23.6041 8.89453 23.6041L29.543 23.6041C30.5273 23.6041 31.0195 23.1119 31.0195 22.151L31.0195 21.2721C31.0195 20.2877 30.5273 19.8072 29.543 19.8072Z" fill="black" fill-opacity="0.85"/>
  <path d="M1.05469 18.5182C0.503906 18.1783 0 18.4478 0 19.0807L0 24.2955C0 24.9283 0.503906 25.2213 1.05469 24.8814L5.21484 22.3268C5.74219 21.9986 5.75391 21.3775 5.21484 21.0494Z" fill="black" fill-opacity="0.85"/>
 </g>
</svg>
