<?xml version="1.0" encoding="UTF-8"?>
<!--Generator: Apple Native CoreSVG 360-->
<!DOCTYPE svg
PUBLIC "-//W3C//DTD SVG 1.1//EN"
       "http://www.w3.org/Graphics/SVG/1.1/DTD/svg11.dtd">
<svg version="1.1" xmlns="http://www.w3.org/2000/svg" xmlns:xlink="http://www.w3.org/1999/xlink" viewBox="0 0 23.9648 20.3086">
 <g>
  <rect height="20.3086" opacity="0" width="23.9648" x="0" y="0"/>
  <path d="M0.9375 1.88672L22.6523 1.88672C23.1797 1.88672 23.6133 1.47656 23.6133 0.949219C23.6133 0.421875 23.1797 0 22.6523 0L0.9375 0C0.410156 0 0 0.421875 0 0.949219C0 1.47656 0.410156 1.88672 0.9375 1.88672ZM14.25 14.1562L22.6523 14.1562C23.1797 14.1562 23.6133 13.7461 23.6133 13.2188C23.6133 12.6797 23.1797 12.2695 22.6523 12.2695L14.25 12.2695C13.7227 12.2695 13.3125 12.6797 13.3125 13.2188C13.3125 13.7461 13.7227 14.1562 14.25 14.1562ZM0.9375 20.2969L22.6523 20.2969C23.1797 20.2969 23.6133 19.8867 23.6133 19.3594C23.6133 18.832 23.1797 18.4102 22.6523 18.4102L0.9375 18.4102C0.410156 18.4102 0 18.832 0 19.3594C0 19.8867 0.410156 20.2969 0.9375 20.2969Z" fill="black" fill-opacity="0.85"/>
  <path d="M1.47656 8.97656L22.125 8.97656C23.1094 8.97656 23.6133 8.49609 23.6133 7.51172L23.6133 6.63281C23.6133 5.67188 23.1094 5.17969 22.125 5.17969L1.47656 5.17969C0.492188 5.17969 0 5.67188 0 6.63281L0 7.51172C0 8.49609 0.492188 8.97656 1.47656 8.97656ZM1.47656 15.1172L10.2305 15.1172C11.2148 15.1172 11.707 14.625 11.707 13.6406L11.707 12.7734C11.707 11.8125 11.2148 11.3086 10.2305 11.3086L1.47656 11.3086C0.492188 11.3086 0 11.8125 0 12.7734L0 13.6406C0 14.625 0.492188 15.1172 1.47656 15.1172Z" fill="black" fill-opacity="0.85"/>
 </g>
</svg>
