<?xml version="1.0" encoding="UTF-8"?>
<!--Generator: Apple Native CoreSVG 360-->
<!DOCTYPE svg
PUBLIC "-//W3C//DTD SVG 1.1//EN"
       "http://www.w3.org/Graphics/SVG/1.1/DTD/svg11.dtd">
<svg version="1.1" xmlns="http://www.w3.org/2000/svg" xmlns:xlink="http://www.w3.org/1999/xlink" viewBox="0 0 20.0625 25.1367">
 <g>
  <rect height="25.1367" opacity="0" width="20.0625" x="0" y="0"/>
  <path d="M9.01172 8.60156C9.01172 10.1016 9.72656 10.8164 11.2266 10.8164L19.7109 10.8164L19.7109 21.457C19.7109 23.8945 18.5039 25.125 16.0781 25.125L3.63281 25.125C1.20703 25.125 0 23.9062 0 21.457L0 3.67969C0 1.24219 1.21875 0 3.63281 0L9.01172 0ZM5.26172 18.8203C4.80469 18.8203 4.46484 19.1602 4.46484 19.5938C4.46484 20.0273 4.80469 20.3555 5.26172 20.3555L14.4844 20.3555C14.9297 20.3555 15.2695 20.0273 15.2695 19.5938C15.2695 19.1602 14.9297 18.8203 14.4844 18.8203ZM5.26172 14.3789C4.80469 14.3789 4.46484 14.7188 4.46484 15.1523C4.46484 15.5859 4.80469 15.9141 5.26172 15.9141L14.4844 15.9141C14.9297 15.9141 15.2695 15.5859 15.2695 15.1523C15.2695 14.7188 14.9297 14.3789 14.4844 14.3789ZM12.1406 1.11328L18.5977 7.6875C19.1602 8.26172 19.5 8.73047 19.5703 9.21094L11.2617 9.21094C10.8281 9.21094 10.6172 9 10.6172 8.57812L10.6172 0.128906C11.1094 0.210938 11.5898 0.550781 12.1406 1.11328Z" fill="black" fill-opacity="0.85"/>
 </g>
</svg>
