<?xml version="1.0" encoding="UTF-8"?>
<!--Generator: Apple Native CoreSVG 360-->
<!DOCTYPE svg
PUBLIC "-//W3C//DTD SVG 1.1//EN"
       "http://www.w3.org/Graphics/SVG/1.1/DTD/svg11.dtd">
<svg version="1.1" xmlns="http://www.w3.org/2000/svg" xmlns:xlink="http://www.w3.org/1999/xlink" viewBox="0 0 23.9648 20.3086">
 <g>
  <rect height="20.3086" opacity="0" width="23.9648" x="0" y="0"/>
  <path d="M22.6641 20.2852C23.1914 20.2852 23.6133 19.875 23.6133 19.3477C23.6133 18.8203 23.1914 18.3984 22.6641 18.3984L9.60938 18.3984C9.07031 18.3984 8.64844 18.8203 8.64844 19.3477C8.64844 19.875 9.07031 20.2852 9.60938 20.2852Z" fill="black" fill-opacity="0.85"/>
  <path d="M22.6641 14.1562C23.1914 14.1562 23.6133 13.7461 23.6133 13.2188C23.6133 12.6797 23.1914 12.2695 22.6641 12.2695L0.949219 12.2695C0.421875 12.2695 0 12.6797 0 13.2188C0 13.7461 0.421875 14.1562 0.949219 14.1562Z" fill="black" fill-opacity="0.85"/>
  <path d="M22.6641 8.02734C23.1914 8.02734 23.6133 7.60547 23.6133 7.07812C23.6133 6.55078 23.1914 6.14062 22.6641 6.14062L9.60938 6.14062C9.07031 6.14062 8.64844 6.55078 8.64844 7.07812C8.64844 7.60547 9.07031 8.02734 9.60938 8.02734Z" fill="black" fill-opacity="0.85"/>
  <path d="M22.6641 1.88672C23.1914 1.88672 23.6133 1.47656 23.6133 0.949219C23.6133 0.421875 23.1914 0 22.6641 0L0.949219 0C0.421875 0 0 0.421875 0 0.949219C0 1.47656 0.421875 1.88672 0.949219 1.88672Z" fill="black" fill-opacity="0.85"/>
 </g>
</svg>
