<?xml version="1.0" encoding="UTF-8"?>
<!--Generator: Apple Native CoreSVG 360-->
<!DOCTYPE svg
PUBLIC "-//W3C//DTD SVG 1.1//EN"
       "http://www.w3.org/Graphics/SVG/1.1/DTD/svg11.dtd">
<svg version="1.1" xmlns="http://www.w3.org/2000/svg" xmlns:xlink="http://www.w3.org/1999/xlink" viewBox="0 0 10.8164 12.3633">
 <g>
  <rect height="12.3633" opacity="0" width="10.8164" x="0" y="0"/>
  <path d="M0.972656 12.3633C1.45312 12.3633 1.76953 12.1172 1.95703 11.543L2.92969 8.67188L7.51172 8.67188L8.48438 11.543C8.67188 12.1406 8.98828 12.3633 9.48047 12.3633C10.0664 12.3633 10.4648 12 10.4648 11.4727C10.4648 11.2383 10.4062 11.0156 10.3125 10.7695L6.66797 1.08984C6.39844 0.375 5.90625 0 5.21484 0C4.53516 0 4.04297 0.351562 3.77344 1.08984L0.128906 10.7695C0.0351562 10.9922 0 11.2266 0 11.4727C0 12.0117 0.375 12.3633 0.972656 12.3633ZM3.44531 7.14844L5.08594 2.26172L5.35547 2.26172L6.99609 7.14844Z" fill="black" fill-opacity="0.85"/>
 </g>
</svg>
