<?xml version="1.0" encoding="UTF-8"?>
<!--Generator: Apple Native CoreSVG 360-->
<!DOCTYPE svg
PUBLIC "-//W3C//DTD SVG 1.1//EN"
       "http://www.w3.org/Graphics/SVG/1.1/DTD/svg11.dtd">
<svg version="1.1" xmlns="http://www.w3.org/2000/svg" xmlns:xlink="http://www.w3.org/1999/xlink" viewBox="0 0 22.4648 16.0664">
 <g>
  <rect height="16.0664" opacity="0" width="22.4648" x="0" y="0"/>
  <path d="M0.9375 16.0664L14.0273 16.0664C14.5547 16.0664 14.9648 15.6562 14.9648 15.1289C14.9648 14.5898 14.5547 14.1797 14.0273 14.1797L0.9375 14.1797C0.410156 14.1797 0 14.5898 0 15.1289C0 15.6562 0.410156 16.0664 0.9375 16.0664Z" fill="black" fill-opacity="0.85"/>
  <path d="M0.9375 8.98828L21.1758 8.98828C21.7031 8.98828 22.1133 8.56641 22.1133 8.03906C22.1133 7.51172 21.7031 7.10156 21.1758 7.10156L0.9375 7.10156C0.410156 7.10156 0 7.51172 0 8.03906C0 8.56641 0.410156 8.98828 0.9375 8.98828Z" fill="black" fill-opacity="0.85"/>
  <path d="M0.9375 1.89844L21.1758 1.89844C21.7031 1.89844 22.1133 1.48828 22.1133 0.960938C22.1133 0.421875 21.7031 0.0117188 21.1758 0.0117188L0.9375 0.0117188C0.410156 0.0117188 0 0.421875 0 0.960938C0 1.48828 0.410156 1.89844 0.9375 1.89844Z" fill="black" fill-opacity="0.85"/>
 </g>
</svg>
