<?xml version="1.0" encoding="UTF-8"?>
<!--Generator: Apple Native CoreSVG 360-->
<!DOCTYPE svg
PUBLIC "-//W3C//DTD SVG 1.1//EN"
       "http://www.w3.org/Graphics/SVG/1.1/DTD/svg11.dtd">
<svg version="1.1" xmlns="http://www.w3.org/2000/svg" xmlns:xlink="http://www.w3.org/1999/xlink" viewBox="0 0 40.2305 28.2183">
 <g>
  <rect height="28.2183" opacity="0" width="40.2305" x="0" y="0"/>
  <path d="M3.17578 25.7049L36.7031 25.7049C37.0664 25.7049 37.3828 25.4002 37.3828 25.0252C37.3828 24.6619 37.0664 24.3455 36.7031 24.3455L3.17578 24.3455C2.80078 24.3455 2.48438 24.6619 2.48438 25.0252C2.48438 25.4002 2.80078 25.7049 3.17578 25.7049ZM4.88672 27.3572L4.88672 22.6697C4.88672 21.8611 4.125 21.5681 3.45703 22.0603L0.316406 24.3924C-0.105469 24.7088-0.105469 25.3064 0.316406 25.6346L3.45703 27.9783C4.08984 28.4471 4.88672 28.201 4.88672 27.3572ZM34.9922 27.3572C34.9922 28.1775 35.7656 28.4705 36.4219 27.9783L39.5508 25.6346C39.9844 25.3064 39.9727 24.6971 39.5508 24.3924L36.4219 22.0603C35.7656 21.5681 34.9922 21.8611 34.9922 22.6697Z" fill="black" fill-opacity="0.85"/>
  <path d="M1.21875 19.1189C1.65234 19.1189 2.08594 18.8611 2.29688 18.2517L3.82031 14.0681L10.8047 14.0681L12.3281 18.2517C12.5508 18.8728 12.9727 19.1189 13.4062 19.1189C13.9102 19.1189 14.3906 18.7439 14.3906 18.1814C14.3906 17.9822 14.3555 17.8181 14.2617 17.5603L8.76562 2.93534C8.50781 2.23221 8.05078 1.89237 7.3125 1.89237C6.59766 1.89237 6.14062 2.23221 5.88281 2.92362L0.386719 17.5721C0.292969 17.8299 0.257812 17.9939 0.257812 18.1931C0.257812 18.7674 0.714844 19.1189 1.21875 19.1189ZM4.35938 12.3924L7.24219 4.4119L7.37109 4.4119L10.2539 12.3924ZM17.0625 19.1189C17.6133 19.1189 18.0352 18.7322 18.0352 18.1228L18.0352 16.5056L18.0586 16.5056C18.7148 18.1111 20.2383 19.1306 22.1367 19.1306C25.2539 19.1306 27.3164 16.6463 27.3164 12.826C27.3164 8.99393 25.2422 6.50956 22.1602 6.50956C20.3086 6.50956 18.7852 7.51737 18.1055 9.12284L18.082 9.12284L18.082 3.32206C18.082 2.67752 17.6836 2.26737 17.0859 2.26737C16.5117 2.26737 16.1016 2.67752 16.1016 3.32206L16.1016 18.1228C16.1016 18.7439 16.4883 19.1189 17.0625 19.1189ZM21.7148 17.408C19.5938 17.408 18.082 15.6033 18.082 12.826C18.082 10.0486 19.5938 8.24393 21.7148 8.24393C23.9062 8.24393 25.2773 10.0017 25.2773 12.826C25.2773 15.6619 23.9062 17.408 21.7148 17.408ZM34.3242 19.1306C36.5625 19.1306 38.4961 17.8885 39.1641 16.1424C39.2461 15.9431 39.2695 15.7439 39.2695 15.5799C39.2695 15.076 38.8945 14.7244 38.4023 14.7244C37.9688 14.7244 37.7344 14.9002 37.4648 15.4041C36.8789 16.6931 35.8711 17.408 34.3359 17.408C32.1328 17.408 30.6914 15.6736 30.6914 12.826C30.6914 10.0017 32.1328 8.23221 34.3359 8.23221C35.8008 8.23221 36.8438 8.9119 37.4414 10.2596C37.6992 10.74 37.9453 10.9041 38.3672 10.9041C38.8711 10.9041 39.2344 10.5642 39.2344 10.0721C39.2344 9.91971 39.1992 9.74393 39.1523 9.59159C38.5664 7.82206 36.6094 6.50956 34.2891 6.50956C30.8906 6.50956 28.6641 9.01737 28.6641 12.8377C28.6641 16.6814 30.9141 19.1306 34.3242 19.1306Z" fill="black" fill-opacity="0.85"/>
 </g>
</svg>
