<?xml version="1.0" encoding="UTF-8"?>
<!--Generator: Apple Native CoreSVG 360-->
<!DOCTYPE svg
PUBLIC "-//W3C//DTD SVG 1.1//EN"
       "http://www.w3.org/Graphics/SVG/1.1/DTD/svg11.dtd">
<svg version="1.1" xmlns="http://www.w3.org/2000/svg" xmlns:xlink="http://www.w3.org/1999/xlink" viewBox="0 0 23.9648 20.3086">
 <g>
  <rect height="20.3086" opacity="0" width="23.9648" x="0" y="0"/>
  <path d="M0.9375 20.2852L13.3594 20.2852C13.8867 20.2852 14.3086 19.875 14.3086 19.3477C14.3086 18.8203 13.8867 18.3984 13.3594 18.3984L0.9375 18.3984C0.410156 18.3984 0 18.8203 0 19.3477C0 19.875 0.410156 20.2852 0.9375 20.2852Z" fill="black" fill-opacity="0.85"/>
  <path d="M0.9375 14.1562L22.6523 14.1562C23.1797 14.1562 23.6133 13.7461 23.6133 13.2188C23.6133 12.6797 23.1797 12.2695 22.6523 12.2695L0.9375 12.2695C0.410156 12.2695 0 12.6797 0 13.2188C0 13.7461 0.410156 14.1562 0.9375 14.1562Z" fill="black" fill-opacity="0.85"/>
  <path d="M0.9375 8.02734L22.6523 8.02734C23.1797 8.02734 23.6133 7.60547 23.6133 7.07812C23.6133 6.55078 23.1797 6.14062 22.6523 6.14062L0.9375 6.14062C0.410156 6.14062 0 6.55078 0 7.07812C0 7.60547 0.410156 8.02734 0.9375 8.02734Z" fill="black" fill-opacity="0.85"/>
  <path d="M0.9375 1.88672L22.6523 1.88672C23.1797 1.88672 23.6133 1.47656 23.6133 0.949219C23.6133 0.421875 23.1797 0 22.6523 0L0.9375 0C0.410156 0 0 0.421875 0 0.949219C0 1.47656 0.410156 1.88672 0.9375 1.88672Z" fill="black" fill-opacity="0.85"/>
 </g>
</svg>
