<?xml version="1.0" encoding="UTF-8"?>
<!--Generator: Apple Native CoreSVG 360-->
<!DOCTYPE svg
PUBLIC "-//W3C//DTD SVG 1.1//EN"
       "http://www.w3.org/Graphics/SVG/1.1/DTD/svg11.dtd">
<svg version="1.1" xmlns="http://www.w3.org/2000/svg" xmlns:xlink="http://www.w3.org/1999/xlink" viewBox="0 0 28.3774 29.799">
 <g>
  <rect height="29.799" opacity="0" width="28.3774" x="0" y="0"/>
  <path d="M17.0656 2.42491L19.0344 9.78429C19.0766 9.94265 19.1156 10.0998 19.1404 10.2514C18.5896 10.8655 18.0329 11.506 17.4943 12.1563C17.4571 11.56 17.3472 10.9311 17.1711 10.2765L15.2141 2.96397C14.9797 2.12022 14.4172 1.78038 13.5734 2.01475L2.99141 4.83897C2.13595 5.07335 1.81954 5.64757 2.0422 6.49132L3.99923 13.8155C5.15938 18.128 8.24141 20.0382 12.4367 18.9132C12.9444 18.7767 13.4157 18.6096 13.8483 18.4124C13.8371 18.4967 13.833 18.5818 13.8313 18.6671C12.9875 18.7843 12.2024 19.1827 11.5578 19.8976C11.1648 20.314 10.9311 20.7407 10.7882 21.161C6.62131 21.4638 3.4127 19.0645 2.13595 14.3194L0.167196 6.94835C-0.383585 4.89757 0.436727 3.57335 2.47579 3.02257L13.1047 0.17491C15.132-0.375871 16.5149 0.374129 17.0656 2.42491ZM15.2609 12.5148C15.2024 14.3546 13.8781 15.9132 11.7805 16.4757C9.6711 17.0382 7.74923 16.3468 6.77657 14.7882C6.44845 14.296 6.74141 13.921 7.17501 13.9796C8.39376 14.1437 9.75313 13.9093 10.9953 13.5694C12.2258 13.2413 13.5383 12.7726 14.5109 12.0108C14.8625 11.753 15.2961 11.9288 15.2609 12.5148ZM8.31173 9.51475C8.4172 9.90147 8.31173 10.1827 8.06563 10.253C7.76095 10.3351 7.38595 9.97179 6.63595 10.171C5.88595 10.3702 5.74532 10.8741 5.45235 10.9562C5.20626 11.0265 4.97188 10.8273 4.87813 10.4405C4.62032 9.49132 5.19454 8.5421 6.14376 8.296C7.09298 8.03819 8.05391 8.56554 8.31173 9.51475ZM14.7336 7.80382C14.8391 8.19054 14.7453 8.47179 14.4992 8.5421C14.1945 8.61241 13.8195 8.23741 13.0695 8.44835C12.3195 8.64757 12.1789 9.15147 11.8859 9.2335C11.6164 9.30382 11.3938 9.1046 11.2883 8.71788C11.0305 7.78038 11.6164 6.83116 12.5656 6.57335C13.5149 6.31554 14.4875 6.8546 14.7336 7.80382Z" fill="black" fill-opacity="0.85"/>
  <path d="M8.14766 27.2804C10.8195 29.7999 15.4484 29.7999 17.8742 27.2218C19.2453 25.7804 19.7258 24.046 19.2688 22.4523C20.3469 22.0538 21.2024 21.2687 22.1047 20.003C25.1399 15.6437 27.5539 8.34288 27.8234 7.56944C28.7141 5.07335 26.3469 3.2335 24.2258 5.02647C23.5813 5.58897 18.2141 10.7804 15.1789 15.1632C14.3 16.4288 13.8547 17.5187 13.8313 18.6671C12.9875 18.7843 12.2024 19.1827 11.5578 19.8976C9.98751 21.5616 10.9602 23.3898 10.1047 24.3155C9.33126 25.1124 8.45235 24.9015 7.91329 25.4991C7.51485 25.9562 7.46798 26.6476 8.14766 27.2804ZM15.718 18.8546C15.6828 18.0812 16.0109 17.2491 16.7258 16.2413C19.7492 11.9874 24.9641 6.96007 25.3977 6.51475C25.7375 6.15147 26.2414 6.49132 26.0305 6.97179C25.8078 7.47569 23.5227 14.6827 20.5461 18.9249C19.7961 20.0148 19.1281 20.5304 18.3781 20.7648C18.0852 20.3898 17.7219 20.0265 17.3 19.6983C16.8078 19.3351 16.2688 19.0304 15.718 18.8546ZM20.4875 19.2999L21.9055 18.6554C21.3547 16.4757 18.8117 14.6593 16.6086 14.8585L16.3742 16.4288C17.8391 16.1241 20.2297 17.7999 20.4875 19.2999ZM16.6203 21.3741C18.0266 22.6398 17.9328 24.4913 16.5852 25.9679C15.0969 27.6437 12.4016 28.1007 10.4797 26.6944C10.2922 26.5538 10.2805 26.3898 10.3625 26.2608C10.5031 26.0851 11.1477 25.9327 11.5578 25.3468C12.4719 24.0343 11.8156 22.4874 12.9172 21.2335C13.8547 20.2023 15.3899 20.2491 16.6203 21.3741Z" fill="black" fill-opacity="0.85"/>
 </g>
</svg>
