<?xml version="1.0" encoding="UTF-8"?>
<!--Generator: Apple Native CoreSVG 360-->
<!DOCTYPE svg
PUBLIC "-//W3C//DTD SVG 1.1//EN"
       "http://www.w3.org/Graphics/SVG/1.1/DTD/svg11.dtd">
<svg version="1.1" xmlns="http://www.w3.org/2000/svg" xmlns:xlink="http://www.w3.org/1999/xlink" viewBox="0 0 39.9258 27.0439">
 <g>
  <rect height="27.0439" opacity="0" width="39.9258" x="0" y="0"/>
  <path d="M25.289 3.16844L36.8789 6.30906C39.1289 6.91844 39.9726 8.33641 39.3984 10.5512L37.1953 18.7544C35.5547 24.8012 31.207 27.4497 25.4062 25.9028C22.0081 24.9861 19.7533 23.0518 18.8122 20.3848C19.4569 19.7776 19.9727 19.082 20.3558 18.3073C20.762 21.1253 22.6897 23.1712 25.9219 24.0512C30.5156 25.27 34.0078 23.1255 35.3203 18.2739L37.4883 10.1645C37.7812 9.10984 37.3945 8.41844 36.3633 8.13719L24.8086 5.05516C23.7656 4.78562 23.1094 5.17234 22.8398 6.21531L21.1388 12.5529C21.0694 11.9912 20.9492 11.4079 20.789 10.8091L20.191 8.58225L20.9883 5.62937C21.6094 3.39109 23.0273 2.57078 25.289 3.16844ZM27.7265 17.0669C29.9765 17.6528 31.5117 19.3637 31.582 21.4262C31.6172 22.0473 31.0195 22.3286 30.5625 21.895C29.332 20.7934 28.289 20.2075 26.9883 19.8677C25.6992 19.5044 24.4336 19.5044 22.875 19.8442C22.2539 19.9848 21.8672 19.4223 22.207 18.9184C23.3086 17.1841 25.4765 16.4575 27.7265 17.0669ZM32.7656 12.2036C33.6445 12.438 34.1601 13.3286 33.9258 14.2075C33.6914 15.0864 32.8008 15.602 31.9219 15.3794C31.043 15.1333 30.5273 14.2309 30.7734 13.352C31.0078 12.4848 31.8984 11.9575 32.7656 12.2036ZM25.8867 10.3637C26.7656 10.6098 27.2812 11.5122 27.0586 12.3911C26.8125 13.27 25.9101 13.7856 25.043 13.5395C24.164 13.3052 23.6484 12.4145 23.8711 11.5356C24.1172 10.6567 25.0195 10.1294 25.8867 10.3637Z" fill="black" fill-opacity="0.85"/>
  <path d="M14.1562 22.8911C19.9453 21.3208 22.4062 16.8559 20.789 10.8091L18.5859 2.60594C17.9883 0.391093 16.5351-0.405782 14.2851 0.191874L2.67186 3.27391C0.421862 3.87156-0.410169 5.28953 0.187487 7.53953L2.36717 15.7427C3.97264 21.7661 8.36717 24.4262 14.1562 22.8911ZM13.664 21.0278C9.04686 22.2348 5.55467 20.0903 4.25389 15.2387L2.08592 7.11766C1.80467 6.07469 2.17967 5.40672 3.19921 5.12547L14.7539 2.03172C15.7969 1.75047 16.4648 2.14891 16.7461 3.20359L18.914 11.3247C20.2031 16.188 18.2695 19.7973 13.664 21.0278ZM7.30077 11.1606C8.1328 10.938 8.54296 11.3247 8.89452 11.2427C9.15233 11.1841 9.2578 10.8559 9.14061 10.4341C8.89452 9.39109 7.76952 8.75828 6.74999 9.06297C5.68358 9.32078 5.03905 10.4223 5.33202 11.4419C5.46092 11.8755 5.71874 12.0981 5.96483 12.0395C6.31639 11.9341 6.45702 11.3833 7.30077 11.1606ZM14.2383 9.27391C15.082 9.05125 15.4805 9.44969 15.832 9.36766C16.0898 9.29734 16.207 8.96922 16.0781 8.54734C15.832 7.50437 14.7187 6.88328 13.6875 7.18797C12.6211 7.44578 11.9765 8.53562 12.2695 9.55516C12.3984 9.98875 12.6562 10.2231 12.9023 10.1528C13.2656 10.0473 13.4062 9.49656 14.2383 9.27391ZM13.0195 18.6255C15.5039 17.9458 17.0859 16.0708 17.168 13.7505C17.1797 13.1528 16.664 12.9302 16.1719 13.3169C14.5781 14.4419 12.8789 14.8872 12.082 15.1098C11.2851 15.3208 9.59764 15.7895 7.62889 15.602C7.01952 15.52 6.66796 15.977 6.99608 16.4575C8.23827 18.4497 10.5469 19.27 13.0195 18.6255Z" fill="black" fill-opacity="0.85"/>
 </g>
</svg>
