<?xml version="1.0" encoding="UTF-8"?>
<!--Generator: Apple Native CoreSVG 360-->
<!DOCTYPE svg
PUBLIC "-//W3C//DTD SVG 1.1//EN"
       "http://www.w3.org/Graphics/SVG/1.1/DTD/svg11.dtd">
<svg version="1.1" xmlns="http://www.w3.org/2000/svg" xmlns:xlink="http://www.w3.org/1999/xlink" viewBox="0 0 24.9844 29.7773">
 <g>
  <rect height="29.7773" opacity="0" width="24.9844" x="0" y="0"/>
  <path d="M20.8945 25.3594C21.7734 25.9922 22.4766 26.5078 23.7422 26.5078L23.8008 26.5078C24.2578 26.5078 24.6328 26.8828 24.6328 27.3398C24.6328 27.7969 24.2578 28.1602 23.8008 28.1602L23.7422 28.1602C20.0859 28.1602 19.7812 25.7812 17.8828 25.7812C16.0195 25.7812 15.5039 28.1602 12.3164 28.1602C9.11719 28.1602 8.61328 25.7812 6.75 25.7812C4.85156 25.7812 4.53516 28.1602 0.890625 28.1602L0.832031 28.1602C0.363281 28.1602 0 27.7969 0 27.3398C0 26.8828 0.363281 26.5078 0.832031 26.5078L0.890625 26.5078C2.14453 26.5078 2.85938 25.9922 3.73828 25.3594C4.5 24.8086 5.44922 24.1289 6.75 24.1289C8.09766 24.1289 9.05859 24.8555 9.82031 25.418C10.6289 26.0391 11.2617 26.5078 12.3164 26.5078C13.3594 26.5078 14.0039 26.0391 14.8125 25.418C15.5742 24.8555 16.5352 24.1289 17.8828 24.1289C19.1836 24.1289 20.1328 24.8086 20.8945 25.3594ZM6.85946 18.8708C6.85586 18.9079 6.85547 18.9461 6.85547 18.9844C6.85547 19.5277 6.93357 20.0522 7.0821 20.5461C6.97605 20.5287 6.86565 20.5195 6.75 20.5195C4.85156 20.5195 4.53516 22.8984 0.890625 22.8984L0.832031 22.8984C0.363281 22.8984 0 22.5352 0 22.0781C0 21.6211 0.363281 21.2461 0.832031 21.2461L0.890625 21.2461C2.14453 21.2461 2.85938 20.7305 3.73828 20.0977C4.5 19.5469 5.44922 18.8672 6.75 18.8672C6.78714 18.8672 6.82399 18.8677 6.85946 18.8708ZM20.8945 20.0977C21.7734 20.7305 22.4766 21.2461 23.7422 21.2461L23.8008 21.2461C24.2578 21.2461 24.6328 21.6211 24.6328 22.0781C24.6328 22.5352 24.2578 22.8984 23.8008 22.8984L23.7422 22.8984C20.0859 22.8984 19.7812 20.5195 17.8828 20.5195C17.7752 20.5195 17.672 20.5275 17.5735 20.5442C17.7225 20.0509 17.8008 19.527 17.8008 18.9844C17.8008 18.9457 17.8004 18.9073 17.7966 18.8701C17.8245 18.8675 17.8536 18.8672 17.8828 18.8672C19.1836 18.8672 20.1328 19.5469 20.8945 20.0977Z" fill="black" fill-opacity="0.85"/>
  <path d="M12.3164 22.8633C14.4727 22.8633 16.1953 21.1406 16.1953 18.9844C16.1953 17.4844 15.3398 16.2891 14.2031 15.6562C13.7812 15.4219 13.5938 15.082 13.5938 14.4727L13.5938 2.85938C13.5938 2.16797 13.0195 1.59375 12.3281 1.59375C11.625 1.59375 11.0625 2.16797 11.0625 2.85938L11.0625 14.4727C11.0625 15.0586 10.8516 15.3867 10.418 15.6328C9.29297 16.2656 8.44922 17.4844 8.44922 18.9844C8.44922 21.1406 10.1719 22.8633 12.3164 22.8633ZM16.7812 4.13672L19.3242 4.13672C19.7344 4.13672 20.0156 3.82031 20.0156 3.45703C20.0156 3.09375 19.7344 2.76562 19.3242 2.76562L16.7812 2.76562C16.3711 2.76562 16.0898 3.09375 16.0898 3.45703C16.0898 3.82031 16.3711 4.13672 16.7812 4.13672ZM16.7812 7.42969L19.3242 7.42969C19.7344 7.42969 20.0156 7.10156 20.0156 6.73828C20.0156 6.375 19.7344 6.05859 19.3242 6.05859L16.7812 6.05859C16.3711 6.05859 16.0898 6.375 16.0898 6.73828C16.0898 7.10156 16.3711 7.42969 16.7812 7.42969ZM16.7812 10.7109L19.3242 10.7109C19.7344 10.7109 20.0156 10.3945 20.0156 10.0312C20.0156 9.66797 19.7344 9.35156 19.3242 9.35156L16.7812 9.35156C16.3711 9.35156 16.0898 9.66797 16.0898 10.0312C16.0898 10.3945 16.3711 10.7109 16.7812 10.7109ZM16.7812 14.0039L19.3242 14.0039C19.7344 14.0039 20.0156 13.6875 20.0156 13.3242C20.0156 12.9609 19.7344 12.6445 19.3242 12.6445L16.7812 12.6445C16.3711 12.6445 16.0898 12.9609 16.0898 13.3242C16.0898 13.6875 16.3711 14.0039 16.7812 14.0039Z" fill="black" fill-opacity="0.85"/>
 </g>
</svg>
