<?xml version="1.0" encoding="UTF-8"?>
<!--Generator: Apple Native CoreSVG 360-->
<!DOCTYPE svg
PUBLIC "-//W3C//DTD SVG 1.1//EN"
       "http://www.w3.org/Graphics/SVG/1.1/DTD/svg11.dtd">
<svg version="1.1" xmlns="http://www.w3.org/2000/svg" xmlns:xlink="http://www.w3.org/1999/xlink" viewBox="0 0 33.7969 22.8633">
 <g>
  <rect height="22.8633" opacity="0" width="33.7969" x="0" y="0"/>
  <path d="M0 11.4258C0 15.1406 1.20703 18.5508 3.24609 21.3281C3.60938 21.832 4.23047 21.8789 4.69922 21.5039C5.12109 21.1406 5.17969 20.5781 4.83984 20.1094C3.05859 17.6836 2.00391 14.6719 2.00391 11.4258C2.00391 8.16797 3.05859 5.16797 4.83984 2.71875C5.17969 2.27344 5.13281 1.69922 4.69922 1.33594C4.23047 0.960938 3.60938 1.01953 3.24609 1.51172C1.20703 4.28906 0 7.71094 0 11.4258ZM33.4453 11.4258C33.4453 7.71094 32.25 4.28906 30.1992 1.51172C29.8359 1.01953 29.2148 0.960938 28.7461 1.33594C28.3125 1.69922 28.2773 2.27344 28.6055 2.71875C30.3984 5.16797 31.4414 8.16797 31.4414 11.4258C31.4414 14.6719 30.3984 17.6836 28.6055 20.1094C28.2773 20.5781 28.3242 21.1406 28.7461 21.5039C29.2148 21.8789 29.8359 21.832 30.1992 21.3281C32.25 18.5508 33.4453 15.1406 33.4453 11.4258Z" fill="black" fill-opacity="0.85"/>
  <path d="M16.7227 22.8516C23.0391 22.8516 28.1602 17.7305 28.1602 11.4258C28.1602 5.10938 23.0391 0 16.7227 0C10.418 0 5.29688 5.10938 5.29688 11.4258C5.29688 17.7305 10.418 22.8516 16.7227 22.8516ZM16.7227 20.8594C11.5195 20.8594 7.28906 16.6289 7.28906 11.4258C7.28906 6.21094 11.5195 1.98047 16.7227 1.98047C21.9375 1.98047 26.168 6.21094 26.168 11.4258C26.168 16.6289 21.9375 20.8594 16.7227 20.8594Z" fill="black" fill-opacity="0.85"/>
  <path d="M16.2773 17.7656C17.7656 17.7656 18.9727 16.5703 18.9727 15.0586C18.9727 14.0156 18.375 13.1602 17.5195 12.6914C17.25 12.5508 17.1445 12.375 17.1445 11.9414L17.1445 6.28125C17.1445 5.80078 16.7578 5.40234 16.2773 5.40234C15.7852 5.40234 15.3984 5.80078 15.3984 6.28125L15.3984 11.9414C15.3984 12.375 15.3047 12.5508 15.0234 12.6914C14.168 13.1602 13.582 14.0156 13.582 15.0586C13.582 16.5703 14.7773 17.7656 16.2773 17.7656ZM19.1016 7.83984L21.2461 7.83984C21.5625 7.83984 21.8203 7.58203 21.8203 7.25391C21.8203 6.9375 21.5625 6.67969 21.2461 6.67969L19.1016 6.67969C18.7852 6.67969 18.5156 6.9375 18.5156 7.25391C18.5156 7.58203 18.7852 7.83984 19.1016 7.83984ZM19.1016 9.91406L21.2461 9.91406C21.5625 9.91406 21.8203 9.64453 21.8203 9.32812C21.8203 9.01172 21.5625 8.75391 21.2461 8.75391L19.1016 8.75391C18.7852 8.75391 18.5156 9.01172 18.5156 9.32812C18.5156 9.64453 18.7852 9.91406 19.1016 9.91406ZM19.1016 12L21.2461 12C21.5625 12 21.8203 11.7305 21.8203 11.4023C21.8203 11.0977 21.5625 10.8398 21.2461 10.8398L19.1016 10.8398C18.7852 10.8398 18.5156 11.0977 18.5156 11.4023C18.5156 11.7305 18.7852 12 19.1016 12Z" fill="black" fill-opacity="0.85"/>
 </g>
</svg>
