<?xml version="1.0" encoding="UTF-8"?>
<!--Generator: Apple Native CoreSVG 360-->
<!DOCTYPE svg
PUBLIC "-//W3C//DTD SVG 1.1//EN"
       "http://www.w3.org/Graphics/SVG/1.1/DTD/svg11.dtd">
<svg version="1.1" xmlns="http://www.w3.org/2000/svg" xmlns:xlink="http://www.w3.org/1999/xlink" viewBox="0 0 20.0273 30.5508">
 <g>
  <rect height="30.5508" opacity="0" width="20.0273" x="0" y="0"/>
  <path d="M17.6719 29.8125C18.7734 29.8125 19.6758 28.9219 19.6758 27.8086C19.6758 26.707 18.7734 25.8164 17.6719 25.8164C16.5703 25.8164 15.6797 26.707 15.6797 27.8086C15.6797 28.9219 16.5703 29.8125 17.6719 29.8125Z" fill="black" fill-opacity="0.85"/>
  <path d="M9.83203 29.8125C10.9453 29.8125 11.8359 28.9219 11.8359 27.8086C11.8359 26.707 10.9453 25.8164 9.83203 25.8164C8.73047 25.8164 7.83984 26.707 7.83984 27.8086C7.83984 28.9219 8.73047 29.8125 9.83203 29.8125Z" fill="black" fill-opacity="0.85"/>
  <path d="M1.99219 29.8125C3.11719 29.8125 4.00781 28.9219 4.00781 27.8086C4.00781 26.707 3.11719 25.8164 1.99219 25.8164C0.890625 25.8164 0 26.707 0 27.8086C0 28.9219 0.890625 29.8125 1.99219 29.8125Z" fill="black" fill-opacity="0.85"/>
  <path d="M9.83203 23.4375C12.9609 23.4375 15.4922 20.9062 15.4922 17.7773C15.4922 16.1367 14.8008 14.6953 13.5234 13.5469C13.3594 13.3828 13.3477 13.3359 13.3477 13.1016L13.3477 3.79688C13.3477 1.55859 11.918 0 9.83203 0C7.74609 0 6.30469 1.55859 6.30469 3.79688L6.30469 13.1016C6.30469 13.3359 6.29297 13.3828 6.12891 13.5469C4.85156 14.6953 4.16016 16.1367 4.16016 17.7773C4.16016 20.9062 6.69141 23.4375 9.83203 23.4375ZM9.83203 21.668C7.6875 21.668 5.95312 19.9219 5.95312 17.7773C5.95312 16.5 6.57422 15.3281 7.66406 14.6016C7.98047 14.3906 8.09766 14.2031 8.09766 13.7695L8.09766 3.85547C8.09766 2.625 8.80078 1.79297 9.83203 1.79297C10.8516 1.79297 11.5547 2.625 11.5547 3.85547L11.5547 13.7695C11.5547 14.2031 11.6719 14.3906 12 14.6016C13.0781 15.3281 13.6992 16.5 13.6992 17.7773C13.6992 19.9219 11.9531 21.668 9.83203 21.668ZM9.82031 20.2617C11.2031 20.2617 12.3047 19.1602 12.3047 17.7656C12.3047 16.8164 11.7656 16.0195 10.9805 15.5859C10.6406 15.4102 10.5352 15.2812 10.5352 14.7891L10.5352 9.25781C10.5352 8.76562 10.2188 8.4375 9.82031 8.4375C9.43359 8.4375 9.11719 8.76562 9.11719 9.25781L9.11719 14.7891C9.11719 15.2812 9.01172 15.4102 8.67188 15.5859C7.88672 16.0195 7.34766 16.8164 7.34766 17.7656C7.34766 19.1602 8.44922 20.2617 9.82031 20.2617Z" fill="black" fill-opacity="0.85"/>
 </g>
</svg>
