<?xml version="1.0" encoding="UTF-8"?>
<!--Generator: Apple Native CoreSVG 360-->
<!DOCTYPE svg
PUBLIC "-//W3C//DTD SVG 1.1//EN"
       "http://www.w3.org/Graphics/SVG/1.1/DTD/svg11.dtd">
<svg version="1.1" xmlns="http://www.w3.org/2000/svg" xmlns:xlink="http://www.w3.org/1999/xlink" viewBox="0 0 23.5326 28.793">
 <g>
  <rect height="28.793" opacity="0" width="23.5326" x="0" y="0"/>
  <path d="M19.4245 10.7578L20.369 11.3021L22.4831 10.0781C22.7526 9.90234 23.1394 9.97266 23.3151 10.3008C23.4792 10.5938 23.3737 10.9219 23.0808 11.0977L21.5544 11.9853L23.1862 12.9258C23.5261 13.125 23.6316 13.4648 23.4323 13.8047C23.2448 14.1562 22.8933 14.2383 22.5417 14.0391L20.921 13.1079L20.9128 14.8594C20.9128 15.1875 20.6784 15.4688 20.3269 15.4688C19.9753 15.4688 19.7175 15.1875 19.7175 14.8594L19.7286 12.4228L18.7683 11.8711L16.1346 10.1122L16.1 9.58554L16.5885 9.34453ZM15.2264 8.55358L15.2612 9.11218L14.8016 9.34042L12.9172 8.40759L12.9188 7.01792Z" fill="black" fill-opacity="0.85"/>
  <path d="M15.2761 9.35156L15.2275 10.1285L12.9136 11.6656L12.9151 10.2774L15.2612 9.11218ZM20.9128 3.83203L20.921 5.5797L22.5417 4.64062C22.8816 4.44141 23.2331 4.52344 23.4206 4.86328C23.6316 5.21484 23.5378 5.56641 23.1862 5.76562L21.5759 6.69873L23.0808 7.58203C23.3737 7.74609 23.4792 8.08594 23.3151 8.39062C23.1394 8.70703 22.7526 8.77734 22.4831 8.61328L20.3861 7.38816L19.4245 7.94531L16.1 9.58554L16.0847 9.35156L16.1358 8.57055L18.78 6.82031L19.7286 6.27064L19.7175 3.83203C19.7175 3.49219 19.9753 3.21094 20.3269 3.22266C20.6784 3.21094 20.9128 3.49219 20.9128 3.83203Z" fill="black" fill-opacity="0.85"/>
  <path d="M16.3425 1.06641L16.3425 2.92867L17.8542 2.0625C18.1472 1.89844 18.4987 1.96875 18.6628 2.26172C18.8503 2.57812 18.7331 2.91797 18.4519 3.09375L16.3425 4.30387L16.3425 5.41406L16.0847 9.35156L16.3425 13.2773L16.3425 14.3875L18.4519 15.5977C18.7331 15.7617 18.8503 16.1133 18.6628 16.418C18.4987 16.7227 18.1472 16.793 17.8542 16.6289L16.3425 15.7627L16.3425 17.625C16.3425 18.0352 16.073 18.293 15.6745 18.293C15.2878 18.293 15.03 18.0234 15.03 17.625L15.03 15.7627L13.6121 16.5752C13.4023 16.3123 13.1653 16.0616 12.9089 15.8203L12.9091 15.6121C12.9164 15.6068 12.9243 15.6022 12.9323 15.5977L15.03 14.3943L15.03 13.2891L15.2761 9.35156L15.03 5.40234L15.03 4.29714L12.9323 3.09375C12.6394 2.91797 12.5222 2.57812 12.7097 2.26172C12.8737 1.96875 13.2253 1.89844 13.5183 2.0625L15.03 2.92867L15.03 1.06641C15.03 0.667969 15.2878 0.410156 15.6745 0.410156C16.073 0.398438 16.3425 0.667969 16.3425 1.06641Z" fill="black" fill-opacity="0.85"/>
  <path d="M7.86983 27.3984C11.2448 27.3984 13.987 24.6562 13.987 21.2812C13.987 19.5 13.2487 17.9414 11.8542 16.6758C11.5964 16.4531 11.5495 16.3125 11.5495 15.9609L11.5612 5.36719C11.5612 2.98828 10.0612 1.35938 7.86983 1.35938C5.67843 1.35938 4.16671 2.98828 4.16671 5.36719L4.17843 15.9609C4.17843 16.3125 4.11983 16.4531 3.87374 16.6758C2.46749 17.9414 1.74093 19.5 1.74093 21.2812C1.74093 24.6562 4.47139 27.3984 7.86983 27.3984ZM7.86983 25.6992C5.43233 25.6992 3.45186 23.707 3.45186 21.2812C3.45186 19.8164 4.14327 18.4922 5.38546 17.6602C5.74874 17.4141 5.88936 17.1914 5.88936 16.7109L5.88936 5.4375C5.88936 4.03125 6.69796 3.08203 7.86983 3.08203C9.01827 3.08203 9.82686 4.03125 9.82686 5.4375L9.82686 16.7109C9.82686 17.1914 9.96749 17.4141 10.3308 17.6602C11.573 18.4922 12.2644 19.8164 12.2644 21.2812C12.2644 23.707 10.2956 25.6992 7.86983 25.6992Z" fill="black" fill-opacity="0.85"/>
  <path d="M7.85811 24.1172C9.42843 24.1172 10.6941 22.8516 10.6941 21.2695C10.6941 20.168 10.073 19.2656 9.17061 18.7734C8.79561 18.5742 8.66671 18.4336 8.66671 17.8594L8.66671 15.5156C8.66671 14.9531 8.31514 14.5898 7.85811 14.5898C7.4128 14.5898 7.04952 14.9531 7.04952 15.5156L7.04952 17.8594C7.04952 18.4336 6.92061 18.5742 6.54561 18.7734C5.64327 19.2656 5.02218 20.168 5.02218 21.2695C5.02218 22.8516 6.2878 24.1172 7.85811 24.1172Z" fill="black" fill-opacity="0.85"/>
 </g>
</svg>
