<?xml version="1.0" encoding="UTF-8"?>
<!--Generator: Apple Native CoreSVG 360-->
<!DOCTYPE svg
PUBLIC "-//W3C//DTD SVG 1.1//EN"
       "http://www.w3.org/Graphics/SVG/1.1/DTD/svg11.dtd">
<svg version="1.1" xmlns="http://www.w3.org/2000/svg" xmlns:xlink="http://www.w3.org/1999/xlink" viewBox="0 0 28.4883 34.3477">
 <g>
  <rect height="34.3477" opacity="0" width="28.4883" x="0" y="0"/>
  <path d="M23.1562 17.5781L24.9609 19.3828C25.3477 19.7461 25.3359 20.3672 24.9609 20.7422C24.5977 21.1172 23.9883 21.1289 23.6016 20.7539L21.7969 18.9492C21.4219 18.5742 21.4219 17.9531 21.7969 17.5781C22.1719 17.2031 22.7812 17.2148 23.1562 17.5781ZM22.1719 12.1523C22.1719 15.375 19.6055 17.9531 16.3828 17.9531C15.7118 17.9531 15.0688 17.8414 14.4739 17.6297L14.476 15.7716C15.0412 16.0664 15.6893 16.2305 16.3828 16.2305C18.668 16.2305 20.4492 14.4492 20.4492 12.1523C20.4492 9.84375 18.668 8.0625 16.3828 8.0625C15.6925 8.0625 15.0472 8.22503 14.484 8.51785L14.4844 8.15625C14.4844 7.64348 14.4147 7.16556 14.2797 6.73402C14.9287 6.47735 15.6386 6.33984 16.3828 6.33984C19.6055 6.33984 22.1719 8.91797 22.1719 12.1523ZM28.4883 12.1523C28.4883 12.6797 28.0547 13.125 27.5273 13.125L24.9961 13.125C24.4688 13.125 24.0234 12.6797 24.0234 12.1523C24.0234 11.6133 24.4688 11.1797 24.9961 11.1797L27.5273 11.1797C28.0547 11.1797 28.4883 11.6133 28.4883 12.1523ZM24.9609 3.5625C25.3359 3.9375 25.3477 4.55859 24.9609 4.93359L23.1797 6.73828C22.793 7.125 22.1602 7.11328 21.7969 6.73828C21.4336 6.36328 21.4219 5.75391 21.7969 5.37891L23.6016 3.5625C23.9883 3.1875 24.5977 3.1875 24.9609 3.5625ZM17.3555 0.972656L17.3555 3.50391C17.3555 4.03125 16.9219 4.47656 16.3828 4.47656C15.8438 4.47656 15.4102 4.03125 15.4102 3.50391L15.4102 0.972656C15.4102 0.433594 15.8438 0 16.3828 0C16.9219 0 17.3555 0.433594 17.3555 0.972656Z" fill="black" fill-opacity="0.85"/>
  <path d="M10.8047 30.1875C14.1797 30.1875 16.9102 27.4453 16.9102 24.0703C16.9102 22.2891 16.1836 20.7305 14.7773 19.4648C14.5312 19.2305 14.4727 19.1016 14.4727 18.75L14.4844 8.15625C14.4844 5.77734 12.9844 4.14844 10.8047 4.14844C8.60156 4.14844 7.08984 5.77734 7.08984 8.15625L7.10156 18.75C7.10156 19.1016 7.05469 19.2305 6.79688 19.4648C5.40234 20.7305 4.66406 22.2891 4.66406 24.0703C4.66406 27.4453 7.40625 30.1875 10.8047 30.1875ZM10.8047 28.4883C8.35547 28.4883 6.38672 26.4961 6.38672 24.0703C6.38672 22.6055 7.07812 21.2812 8.32031 20.4492C8.68359 20.2031 8.82422 19.9805 8.82422 19.5L8.82422 8.22656C8.82422 6.82031 9.63281 5.87109 10.8047 5.87109C11.9531 5.87109 12.7617 6.82031 12.7617 8.22656L12.7617 19.5C12.7617 19.9805 12.9023 20.2031 13.2656 20.4492C14.5078 21.2812 15.1992 22.6055 15.1992 24.0703C15.1992 26.4961 13.2188 28.4883 10.8047 28.4883Z" fill="black" fill-opacity="0.85"/>
  <path d="M10.793 26.9062C12.3633 26.9062 13.6289 25.6289 13.6289 24.0586C13.6289 22.957 13.0078 22.0547 12.1055 21.5625C11.7305 21.3633 11.6016 21.2227 11.6016 20.6484L11.6016 9.22266C11.6016 8.66016 11.2383 8.29688 10.793 8.29688C10.3359 8.29688 9.98438 8.66016 9.98438 9.22266L9.98438 20.6484C9.98438 21.2227 9.85547 21.3633 9.48047 21.5625C8.57812 22.0547 7.95703 22.957 7.95703 24.0586C7.95703 25.6406 9.22266 26.9062 10.793 26.9062Z" fill="black" fill-opacity="0.85"/>
 </g>
</svg>
