<?xml version="1.0" encoding="UTF-8"?>
<!--Generator: Apple Native CoreSVG 360-->
<!DOCTYPE svg
PUBLIC "-//W3C//DTD SVG 1.1//EN"
       "http://www.w3.org/Graphics/SVG/1.1/DTD/svg11.dtd">
<svg version="1.1" xmlns="http://www.w3.org/2000/svg" xmlns:xlink="http://www.w3.org/1999/xlink" viewBox="0 0 25.0286 29.7773">
 <g>
  <rect height="29.7773" opacity="0" width="25.0286" x="0" y="0"/>
  <path d="M20.987 25.3594C21.8659 25.9922 22.5807 26.5078 23.8346 26.5078L23.8932 26.5078C24.3503 26.5078 24.7253 26.8828 24.7253 27.3398C24.7253 27.7969 24.3503 28.1602 23.8932 28.1602L23.8346 28.1602C20.1784 28.1602 19.8737 25.7812 17.9753 25.7812C16.112 25.7812 15.6081 28.1602 12.4089 28.1602C9.20964 28.1602 8.70573 25.7812 6.84245 25.7812C4.94401 25.7812 4.63932 28.1602 0.983073 28.1602L0.924479 28.1602C0.467448 28.1602 0.0924479 27.7969 0.0924479 27.3398C0.0924479 26.8828 0.467448 26.5078 0.924479 26.5078L0.983073 26.5078C2.23698 26.5078 2.95182 25.9922 3.83073 25.3594C4.59245 24.8086 5.54167 24.1289 6.84245 24.1289C8.1901 24.1289 9.15104 24.8555 9.91276 25.418C10.7214 26.0391 11.3542 26.5078 12.4089 26.5078C13.4635 26.5078 14.0964 26.0391 14.9049 25.418C15.6667 24.8555 16.6276 24.1289 17.9753 24.1289C19.276 24.1289 20.2253 24.8086 20.987 25.3594ZM20.987 20.0977C21.8659 20.7305 22.5807 21.2461 23.8346 21.2461L23.8932 21.2461C24.3503 21.2461 24.7253 21.6211 24.7253 22.0781C24.7253 22.5352 24.3503 22.8984 23.8932 22.8984L23.8346 22.8984C20.1784 22.8984 19.8737 20.5195 17.9753 20.5195C17.8676 20.5195 17.7644 20.5275 17.666 20.5442C17.8149 20.0509 17.8932 19.527 17.8932 18.9844C17.8932 18.9457 17.8928 18.9073 17.8891 18.8701C17.917 18.8675 17.946 18.8672 17.9753 18.8672C19.276 18.8672 20.2253 19.5469 20.987 20.0977ZM6.9519 18.8708C6.94831 18.9079 6.94792 18.9461 6.94792 18.9844C6.94792 19.5277 7.02602 20.0522 7.17455 20.5461C7.0685 20.5287 6.95809 20.5195 6.84245 20.5195C4.94401 20.5195 4.63932 22.8984 0.983073 22.8984L0.924479 22.8984C0.467448 22.8984 0.0924479 22.5352 0.0924479 22.0781C0.0924479 21.6211 0.467448 21.2461 0.924479 21.2461L0.983073 21.2461C2.23698 21.2461 2.95182 20.7305 3.83073 20.0977C4.59245 19.5469 5.54167 18.8672 6.84245 18.8672C6.87959 18.8672 6.91644 18.8677 6.9519 18.8708Z" fill="black" fill-opacity="0.85"/>
  <path d="M5.95907 7.82003L5.92262 8.43521L4.02995 9.69141L3.31526 10.1026L3.32682 11.9414C3.3151 12.3398 3.08073 12.5977 2.71745 12.5859C2.36589 12.5977 2.10807 12.3398 2.11979 11.9648L2.11265 10.7944L0.994792 11.4375C0.666667 11.6367 0.279948 11.5312 0.0924479 11.2031C-0.0950521 10.8867 0.0104167 10.5 0.338542 10.3125L1.45968 9.66319L0.467448 9.08203C0.127604 8.89453 0.0338542 8.54297 0.209635 8.26172C0.385417 7.94531 0.736979 7.85156 1.07682 8.05078L2.65378 8.97163L3.3737 8.55469L5.40945 7.54522ZM9.5612 6.48678L9.49089 6.52734L7.45933 7.54312L6.90688 7.26805L6.94507 6.66141L8.84635 5.40234L9.5612 4.9911Z" fill="black" fill-opacity="0.85"/>
  <path d="M9.49089 8.55469L9.5612 8.59525L9.5612 10.1026L8.84635 9.69141L6.94507 8.43234L6.88932 7.54688L6.90688 7.26805ZM3.32682 3.15234L3.31533 4.99123L4.02995 5.40234L5.92244 6.6556L5.97526 7.54688L5.95907 7.82003L3.3737 6.52734L2.67393 6.12207L1.07682 7.05469C0.736979 7.25391 0.385417 7.16016 0.209635 6.84375C0.0338542 6.55078 0.127604 6.19922 0.467448 6.02344L1.47363 5.42692L0.338542 4.76953C0.0104167 4.59375-0.0950521 4.19531 0.0924479 3.87891C0.279948 3.5625 0.666667 3.45703 0.994792 3.65625L2.11268 4.29936L2.11979 3.14062C2.10807 2.76562 2.36589 2.50781 2.71745 2.51953C3.08073 2.50781 3.3151 2.76562 3.32682 3.15234Z" fill="black" fill-opacity="0.85"/>
  <path d="M7.08854 0.878906L7.08854 2.17063L8.08464 1.60547C8.41276 1.40625 8.76432 1.5 8.9401 1.80469C9.1276 2.12109 9.02214 2.46094 8.69401 2.66016L7.08854 3.57262L7.08854 4.38281L6.88932 7.54688L7.08854 10.7109L7.08854 11.5211L8.69401 12.4336C9.02214 12.6328 9.1276 12.9727 8.9401 13.2891C8.76432 13.5938 8.41276 13.6758 8.08464 13.4883L7.08854 12.9161L7.08854 14.2031C7.08854 14.5898 6.80729 14.8711 6.43229 14.8711C6.06901 14.8711 5.78776 14.5898 5.78776 14.2031L5.78776 12.9093L4.77995 13.4883C4.45182 13.6758 4.10026 13.5938 3.9362 13.2891C3.7487 12.9727 3.85417 12.6328 4.18229 12.4336L5.78776 11.5145L5.78776 10.7109L5.97526 7.54688L5.78776 4.38281L5.78776 3.57923L4.18229 2.66016C3.85417 2.46094 3.7487 2.12109 3.9362 1.80469C4.10026 1.5 4.45182 1.40625 4.77995 1.60547L5.78776 2.17728L5.78776 0.878906C5.78776 0.503906 6.06901 0.210938 6.43229 0.210938C6.80729 0.210938 7.08854 0.503906 7.08854 0.878906Z" fill="black" fill-opacity="0.85"/>
  <path d="M12.4089 22.8633C14.5651 22.8633 16.2995 21.1406 16.2995 18.9844C16.2995 17.4844 15.4323 16.2891 14.2956 15.6562C13.8854 15.4219 13.6862 15.082 13.6862 14.4727L13.6862 2.85938C13.6862 2.16797 13.1237 1.59375 12.4206 1.59375C11.7292 1.59375 11.1549 2.16797 11.1549 2.85938L11.1549 14.4727C11.1549 15.0586 10.944 15.3867 10.5104 15.6328C9.38542 16.2656 8.54167 17.4844 8.54167 18.9844C8.54167 21.1406 10.2643 22.8633 12.4089 22.8633ZM16.8737 4.13672L19.4167 4.13672C19.8385 4.13672 20.1081 3.82031 20.1081 3.45703C20.1081 3.09375 19.8385 2.76562 19.4167 2.76562L16.8737 2.76562C16.4635 2.76562 16.1823 3.09375 16.1823 3.45703C16.1823 3.82031 16.4635 4.13672 16.8737 4.13672ZM16.8737 7.42969L19.4167 7.42969C19.8385 7.42969 20.1081 7.10156 20.1081 6.73828C20.1081 6.375 19.8385 6.05859 19.4167 6.05859L16.8737 6.05859C16.4635 6.05859 16.1823 6.375 16.1823 6.73828C16.1823 7.10156 16.4635 7.42969 16.8737 7.42969ZM16.8737 10.7109L19.4167 10.7109C19.8385 10.7109 20.1081 10.3945 20.1081 10.0312C20.1081 9.66797 19.8385 9.35156 19.4167 9.35156L16.8737 9.35156C16.4635 9.35156 16.1823 9.66797 16.1823 10.0312C16.1823 10.3945 16.4635 10.7109 16.8737 10.7109ZM16.8737 14.0039L19.4167 14.0039C19.8385 14.0039 20.1081 13.6875 20.1081 13.3242C20.1081 12.9609 19.8385 12.6445 19.4167 12.6445L16.8737 12.6445C16.4635 12.6445 16.1823 12.9609 16.1823 13.3242C16.1823 13.6875 16.4635 14.0039 16.8737 14.0039Z" fill="black" fill-opacity="0.85"/>
 </g>
</svg>
