<?xml version="1.0" encoding="UTF-8"?>
<!--Generator: Apple Native CoreSVG 360-->
<!DOCTYPE svg
PUBLIC "-//W3C//DTD SVG 1.1//EN"
       "http://www.w3.org/Graphics/SVG/1.1/DTD/svg11.dtd">
<svg version="1.1" xmlns="http://www.w3.org/2000/svg" xmlns:xlink="http://www.w3.org/1999/xlink" viewBox="0 0 12.5977 26.0742">
 <g>
  <rect height="26.0742" opacity="0" width="12.5977" x="0" y="0"/>
  <path d="M6.14062 26.0391C9.50391 26.0391 12.2461 23.2969 12.2461 19.9219C12.2461 18.1406 11.5195 16.582 10.1133 15.3164C9.85547 15.0938 9.80859 14.9531 9.80859 14.6016L9.80859 4.00781C9.80859 1.62891 8.32031 0 6.14062 0C3.9375 0 2.4375 1.62891 2.4375 4.00781L2.4375 14.6016C2.4375 14.9531 2.39062 15.0938 2.13281 15.3164C0.726562 16.582 0 18.1406 0 19.9219C0 23.2969 2.74219 26.0391 6.14062 26.0391ZM6.14062 24.3398C3.69141 24.3398 1.71094 22.3477 1.71094 19.9219C1.71094 18.457 2.41406 17.1328 3.65625 16.3008C4.01953 16.0547 4.16016 15.832 4.16016 15.3516L4.16016 4.07812C4.16016 2.67188 4.95703 1.72266 6.14062 1.72266C7.28906 1.72266 8.08594 2.67188 8.08594 4.07812L8.08594 15.3516C8.08594 15.832 8.22656 16.0547 8.58984 16.3008C9.83203 17.1328 10.5352 18.457 10.5352 19.9219C10.5352 22.3477 8.55469 24.3398 6.14062 24.3398Z" fill="black" fill-opacity="0.85"/>
  <path d="M6.12891 22.7578C7.6875 22.7578 8.95312 21.4922 8.95312 19.9102C8.95312 18.8086 8.34375 17.9062 7.44141 17.4141C7.05469 17.2148 6.92578 17.0742 6.92578 16.5L6.92578 12.457C6.92578 12.0117 6.5625 11.6484 6.12891 11.6484C5.68359 11.6484 5.32031 12.0117 5.32031 12.457L5.32031 16.5C5.32031 17.0742 5.19141 17.2148 4.80469 17.4141C3.90234 17.9062 3.29297 18.8086 3.29297 19.9102C3.29297 21.4922 4.55859 22.7578 6.12891 22.7578ZM6.12891 10.4766C6.5625 10.4766 6.92578 10.1133 6.92578 9.66797C6.92578 9.22266 6.5625 8.85938 6.12891 8.85938C5.68359 8.85938 5.32031 9.22266 5.32031 9.66797C5.32031 10.1133 5.68359 10.4766 6.12891 10.4766ZM6.12891 7.67578C6.5625 7.67578 6.92578 7.3125 6.92578 6.86719C6.92578 6.42188 6.5625 6.05859 6.12891 6.05859C5.68359 6.05859 5.32031 6.42188 5.32031 6.86719C5.32031 7.3125 5.68359 7.67578 6.12891 7.67578ZM6.12891 4.88672C6.5625 4.88672 6.92578 4.52344 6.92578 4.07812C6.92578 3.63281 6.5625 3.26953 6.12891 3.26953C5.68359 3.26953 5.32031 3.63281 5.32031 4.07812C5.32031 4.52344 5.68359 4.88672 6.12891 4.88672Z" fill="black" fill-opacity="0.85"/>
 </g>
</svg>
