<?xml version="1.0" encoding="UTF-8"?>
<!--Generator: Apple Native CoreSVG 360-->
<!DOCTYPE svg
PUBLIC "-//W3C//DTD SVG 1.1//EN"
       "http://www.w3.org/Graphics/SVG/1.1/DTD/svg11.dtd">
<svg version="1.1" xmlns="http://www.w3.org/2000/svg" xmlns:xlink="http://www.w3.org/1999/xlink" viewBox="0 0 24.7266 26.8008">
 <g>
  <rect height="26.8008" opacity="0" width="24.7266" x="0" y="0"/>
  <path d="M13.3359 15.7969C13.3359 16.3828 13.793 16.8398 14.3672 16.8398C14.9531 16.8398 15.4102 16.3828 15.4102 15.7969L15.4102 11.2852C15.4102 11.0742 15.5742 10.9102 15.7969 10.9102C16.0078 10.9102 16.1719 11.0742 16.1719 11.2852L16.1719 24.9492C16.1719 25.582 16.6758 26.0859 17.3203 26.0859C17.9531 26.0859 18.457 25.582 18.457 24.9492L18.457 16.6406C18.457 16.4297 18.6445 16.2422 18.8555 16.2422C19.0664 16.2422 19.2422 16.4297 19.2422 16.6406L19.2422 24.9492C19.2422 25.582 19.7461 26.0859 20.3906 26.0859C21.0234 26.0859 21.5273 25.582 21.5273 24.9492L21.5273 11.2852C21.5273 11.0742 21.7031 10.9102 21.9141 10.9102C22.125 10.9102 22.2891 11.0742 22.2891 11.2852L22.2891 15.7969C22.2891 16.3828 22.7578 16.8398 23.332 16.8398C23.9062 16.8398 24.375 16.3828 24.375 15.7969L24.375 10.7578C24.375 8.16797 22.4766 6.45703 19.6992 6.45703L18 6.45703C15.2227 6.45703 13.3359 8.16797 13.3359 10.7578ZM18.8555 5.10938C20.2617 5.10938 21.3984 3.97266 21.3984 2.55469C21.3984 1.13672 20.2617 0 18.8555 0C17.4375 0 16.3008 1.13672 16.3008 2.55469C16.3008 3.97266 17.4375 5.10938 18.8555 5.10938Z" fill="black" fill-opacity="0.85"/>
  <path d="M6.14062 26.4023C9.50391 26.4023 12.2461 23.6602 12.2461 20.2852C12.2461 18.5039 11.5195 16.9453 10.1133 15.6797C9.85547 15.457 9.80859 15.3164 9.80859 14.9648L9.80859 4.37109C9.80859 1.99219 8.32031 0.363281 6.14062 0.363281C3.9375 0.363281 2.4375 1.99219 2.4375 4.37109L2.4375 14.9648C2.4375 15.3164 2.39062 15.457 2.13281 15.6797C0.726562 16.9453 0 18.5039 0 20.2852C0 23.6602 2.74219 26.4023 6.14062 26.4023ZM6.14062 24.7031C3.69141 24.7031 1.71094 22.7109 1.71094 20.2852C1.71094 18.8203 2.41406 17.4961 3.65625 16.6641C4.01953 16.418 4.16016 16.1953 4.16016 15.7148L4.16016 4.44141C4.16016 3.03516 4.95703 2.08594 6.14062 2.08594C7.28906 2.08594 8.08594 3.03516 8.08594 4.44141L8.08594 15.7148C8.08594 16.1953 8.22656 16.418 8.58984 16.6641C9.83203 17.4961 10.5352 18.8203 10.5352 20.2852C10.5352 22.7109 8.55469 24.7031 6.14062 24.7031Z" fill="black" fill-opacity="0.85"/>
  <path d="M6.12891 23.1211C7.6875 23.1211 8.95312 21.8555 8.95312 20.2734C8.95312 19.1719 8.34375 18.2695 7.44141 17.7773C7.05469 17.5781 6.92578 17.4375 6.92578 16.8633L6.92578 12.8203C6.92578 12.375 6.5625 12.0117 6.12891 12.0117C5.68359 12.0117 5.32031 12.375 5.32031 12.8203L5.32031 16.8633C5.32031 17.4375 5.19141 17.5781 4.80469 17.7773C3.90234 18.2695 3.29297 19.1719 3.29297 20.2734C3.29297 21.8555 4.55859 23.1211 6.12891 23.1211ZM6.12891 10.8398C6.5625 10.8398 6.92578 10.4766 6.92578 10.0312C6.92578 9.58594 6.5625 9.22266 6.12891 9.22266C5.68359 9.22266 5.32031 9.58594 5.32031 10.0312C5.32031 10.4766 5.68359 10.8398 6.12891 10.8398ZM6.12891 8.03906C6.5625 8.03906 6.92578 7.67578 6.92578 7.23047C6.92578 6.78516 6.5625 6.42188 6.12891 6.42188C5.68359 6.42188 5.32031 6.78516 5.32031 7.23047C5.32031 7.67578 5.68359 8.03906 6.12891 8.03906ZM6.12891 5.25C6.5625 5.25 6.92578 4.88672 6.92578 4.44141C6.92578 3.99609 6.5625 3.63281 6.12891 3.63281C5.68359 3.63281 5.32031 3.99609 5.32031 4.44141C5.32031 4.88672 5.68359 5.25 6.12891 5.25Z" fill="black" fill-opacity="0.85"/>
 </g>
</svg>
