<?xml version="1.0" encoding="UTF-8"?>
<!--Generator: Apple Native CoreSVG 360-->
<!DOCTYPE svg
PUBLIC "-//W3C//DTD SVG 1.1//EN"
       "http://www.w3.org/Graphics/SVG/1.1/DTD/svg11.dtd">
<svg version="1.1" xmlns="http://www.w3.org/2000/svg" xmlns:xlink="http://www.w3.org/1999/xlink" viewBox="0 0 29.332 20.3086">
 <g>
  <rect height="20.3086" opacity="0" width="29.332" x="0" y="0"/>
  <path d="M0 15.5508C0 16.0898 0.210938 16.4297 0.679688 16.6523C1.98047 17.2969 2.70703 18.0352 3.51562 19.6289C3.76172 20.0625 4.125 20.2852 4.60547 20.2852L24.375 20.2852C24.8438 20.2852 25.207 20.0625 25.4531 19.6289C26.2617 18.0352 26.9883 17.2969 28.3008 16.6523C28.7695 16.4297 28.9805 16.0898 28.9805 15.5508L28.9805 4.74609C28.9805 4.19531 28.7695 3.85547 28.3008 3.64453C26.9883 3 26.2617 2.25 25.4531 0.667969C25.207 0.222656 24.8438 0 24.375 0L4.60547 0C4.125 0 3.76172 0.222656 3.51562 0.667969C2.70703 2.25 1.98047 3 0.679688 3.64453C0.210938 3.85547 0 4.19531 0 4.74609ZM1.88672 15.2812L1.88672 5.01562C3.30469 4.42969 4.21875 3.48047 4.95703 1.88672L24.0234 1.88672C24.75 3.48047 25.6758 4.42969 27.0938 5.01562L27.0938 15.2812C25.6758 15.8672 24.75 16.8164 24.0234 18.3984L4.95703 18.3984C4.21875 16.8164 3.30469 15.8672 1.88672 15.2812ZM5.10938 15.3281C5.10938 15.9492 5.53125 16.3594 6.14062 16.3594L22.8281 16.3594C23.4492 16.3594 23.8594 15.9492 23.8594 15.3281L23.8594 4.96875C23.8594 4.35938 23.4492 3.9375 22.8281 3.9375L6.14062 3.9375C5.53125 3.9375 5.10938 4.35938 5.10938 4.96875ZM6.52734 14.6836L6.52734 12.6914L8.07422 12.6914L8.07422 14.9414L6.79688 14.9414C6.62109 14.9414 6.52734 14.8594 6.52734 14.6836ZM6.52734 11.2734L6.52734 9.03516L8.07422 9.03516L8.07422 11.2734ZM6.52734 7.61719L6.52734 5.61328C6.52734 5.44922 6.62109 5.35547 6.79688 5.35547L8.07422 5.35547L8.07422 7.61719ZM20.9062 7.61719L20.9062 5.35547L22.1836 5.35547C22.3594 5.35547 22.4414 5.44922 22.4414 5.61328L22.4414 7.61719ZM20.9062 11.2734L20.9062 9.03516L22.4414 9.03516L22.4414 11.2734ZM20.9062 14.9414L20.9062 12.6914L22.4414 12.6914L22.4414 14.6836C22.4414 14.8594 22.3594 14.9414 22.1836 14.9414ZM9.49219 14.9414L9.49219 5.35547L19.4883 5.35547L19.4883 14.9414Z" fill="black" fill-opacity="0.85"/>
 </g>
</svg>
