<?xml version="1.0" encoding="UTF-8"?>
<!--Generator: Apple Native CoreSVG 360-->
<!DOCTYPE svg
PUBLIC "-//W3C//DTD SVG 1.1//EN"
       "http://www.w3.org/Graphics/SVG/1.1/DTD/svg11.dtd">
<svg version="1.1" xmlns="http://www.w3.org/2000/svg" xmlns:xlink="http://www.w3.org/1999/xlink" viewBox="0 0 40.6523 21.5977">
 <g>
  <rect height="21.5977" opacity="0" width="40.6523" x="0" y="0"/>
  <path d="M11.332 21.5977L28.9805 21.5977C31.4414 21.5977 32.6602 20.3789 32.6602 17.9648L32.6602 3.65625C32.6602 1.24219 31.4414 0.0234375 28.9805 0.0234375L11.332 0.0234375C8.88281 0.0234375 7.65234 1.23047 7.65234 3.65625L7.65234 17.9648C7.65234 20.3906 8.88281 21.5977 11.332 21.5977ZM9.82031 14.5547L9.82031 7.06641C9.82031 6.67969 10.1367 6.36328 10.5234 6.36328C10.9102 6.36328 11.2383 6.67969 11.2383 7.06641L11.2383 14.5547C11.2383 14.9414 10.9102 15.2578 10.5234 15.2578C10.1367 15.2578 9.82031 14.9414 9.82031 14.5547ZM13.3945 19.7109L13.3945 1.91016L26.918 1.91016L26.918 19.7109ZM29.0859 14.5547L29.0859 7.06641C29.0859 6.67969 29.4023 6.36328 29.7891 6.36328C30.1758 6.36328 30.5039 6.67969 30.5039 7.06641L30.5039 14.5547C30.5039 14.9414 30.1758 15.2578 29.7891 15.2578C29.4023 15.2578 29.0859 14.9414 29.0859 14.5547Z" fill="black" fill-opacity="0.85"/>
  <path d="M0 13.4062C0 14.0391 0.515625 14.3086 1.06641 13.9688L5.22656 11.4375C5.75391 11.1094 5.74219 10.4883 5.22656 10.1719L1.05469 7.61719C0.503906 7.27734 0 7.57031 0 8.19141ZM40.3008 13.4062L40.3008 8.19141C40.3008 7.57031 39.7969 7.27734 39.2461 7.61719L35.0859 10.1719C34.5586 10.4883 34.5469 11.1094 35.0859 11.4375L39.2461 13.9688C39.7969 14.3086 40.3008 14.0391 40.3008 13.4062Z" fill="black" fill-opacity="0.85"/>
 </g>
</svg>
