<?xml version="1.0" encoding="UTF-8"?>
<!--Generator: Apple Native CoreSVG 360-->
<!DOCTYPE svg
PUBLIC "-//W3C//DTD SVG 1.1//EN"
       "http://www.w3.org/Graphics/SVG/1.1/DTD/svg11.dtd">
<svg version="1.1" xmlns="http://www.w3.org/2000/svg" xmlns:xlink="http://www.w3.org/1999/xlink" viewBox="0 0 24.2578 23.918">
 <g>
  <rect height="23.918" opacity="0" width="24.2578" x="0" y="0"/>
  <path d="M11.9531 23.9062C18.5508 23.9062 23.9062 18.5508 23.9062 11.9531C23.9062 5.35547 18.5508 0 11.9648 0C11.3438 0 11.0391 0.375 11.0391 0.984375L11.0391 4.71094C11.0391 5.21484 11.3906 5.625 11.8945 5.625C12.4102 5.625 12.7617 5.21484 12.7617 4.71094L12.7617 2.03906C17.6016 2.40234 21.9141 6.44531 21.9141 11.9531C21.9141 17.4609 17.4609 21.9141 11.9531 21.9141C6.44531 21.9141 1.99219 17.4609 1.99219 11.9648C1.99219 9.45703 2.90625 7.21875 4.38281 5.49609C4.73438 5.05078 4.73438 4.45312 4.34766 4.04297C3.96094 3.63281 3.30469 3.66797 2.88281 4.18359C1.08984 6.28125 0 8.98828 0 11.9531C0 18.5508 5.35547 23.9062 11.9531 23.9062Z" fill="black" fill-opacity="0.85"/>
  <path d="M11.9531 13.8398C13.0078 13.8398 13.8516 12.9961 13.8516 11.9531C13.8516 11.3086 13.5352 10.7578 13.043 10.4062L7.17188 6.25781C6.59766 5.84766 6 6.44531 6.39844 7.04297L10.3008 12.8789C10.6758 13.4531 11.2617 13.8398 11.9531 13.8398Z" fill="black" fill-opacity="0.85"/>
 </g>
</svg>
