<?xml version="1.0" encoding="UTF-8"?>
<!--Generator: Apple Native CoreSVG 360-->
<!DOCTYPE svg
PUBLIC "-//W3C//DTD SVG 1.1//EN"
       "http://www.w3.org/Graphics/SVG/1.1/DTD/svg11.dtd">
<svg version="1.1" xmlns="http://www.w3.org/2000/svg" xmlns:xlink="http://www.w3.org/1999/xlink" viewBox="0 0 26.7773 26.4492">
 <g>
  <rect height="26.4492" opacity="0" width="26.7773" x="0" y="0"/>
  <path d="M9.75 0.339844C9.36328 0.421875 9.15234 0.761719 9.26953 1.20703L9.65625 2.68359C9.76172 3.04688 10.125 3.24609 10.5586 3.11719C10.9688 2.98828 11.1328 2.66016 11.0156 2.28516L10.6055 0.867188C10.4883 0.445312 10.1484 0.269531 9.75 0.339844Z" fill="black" fill-opacity="0.85"/>
  <path d="M6.60938 1.78125C6.26953 1.98047 6.16406 2.40234 6.36328 2.74219L8.53125 6.51562C8.73047 6.86719 9.15234 6.97266 9.48047 6.77344C9.82031 6.58594 9.9375 6.16406 9.73828 5.82422L7.55859 2.03906C7.35938 1.71094 6.94922 1.60547 6.60938 1.78125Z" fill="black" fill-opacity="0.85"/>
  <path d="M3.77344 3.80859C3.49219 4.07812 3.52734 4.52344 3.78516 4.79297L4.82812 5.84766C5.12109 6.14062 5.51953 6.15234 5.82422 5.85938C6.09375 5.58984 6.10547 5.16797 5.8125 4.86328L4.76953 3.82031C4.46484 3.51562 4.06641 3.52734 3.77344 3.80859Z" fill="black" fill-opacity="0.85"/>
  <path d="M1.78125 6.62109C1.58203 6.96094 1.6875 7.38281 2.02734 7.58203L5.80078 9.76172C6.15234 9.96094 6.5625 9.84375 6.76172 9.51562C6.94922 9.17578 6.84375 8.75391 6.49219 8.55469L2.71875 6.375C2.37891 6.1875 1.96875 6.29297 1.78125 6.62109Z" fill="black" fill-opacity="0.85"/>
  <path d="M0.316406 9.78516C0.234375 10.1602 0.46875 10.5352 0.820312 10.6406L2.26172 11.0508C2.66016 11.1445 3.03516 10.9336 3.11719 10.5469C3.19922 10.1719 3.02344 9.77344 2.63672 9.67969L1.19531 9.31641C0.773438 9.21094 0.398438 9.42188 0.316406 9.78516Z" fill="black" fill-opacity="0.85"/>
  <path d="M0 13.2305C0 13.6289 0.316406 13.9336 0.703125 13.9336L5.05078 13.9336C5.46094 13.9336 5.75391 13.6289 5.75391 13.2305C5.75391 12.8438 5.46094 12.5391 5.05078 12.5391L0.703125 12.5391C0.316406 12.5391 0 12.8438 0 13.2305Z" fill="black" fill-opacity="0.85"/>
  <path d="M0.328125 16.6875C0.421875 17.0625 0.820312 17.2617 1.18359 17.1797L2.63672 16.8164C3.03516 16.7109 3.23438 16.3477 3.12891 15.9609C3.02344 15.5859 2.64844 15.3633 2.26172 15.457L0.855469 15.8438C0.421875 15.9609 0.234375 16.3242 0.328125 16.6875Z" fill="black" fill-opacity="0.85"/>
  <path d="M1.76953 19.8398C1.95703 20.1797 2.37891 20.2852 2.71875 20.0977L6.49219 17.918C6.84375 17.7188 6.94922 17.2969 6.76172 16.9688C6.5625 16.6289 6.15234 16.5117 5.80078 16.7109L2.02734 18.8906C1.6875 19.0898 1.58203 19.5 1.76953 19.8398Z" fill="black" fill-opacity="0.85"/>
  <path d="M3.78516 22.6641C4.07812 22.9453 4.5 22.9453 4.75781 22.6875L5.82422 21.6328C6.11719 21.3281 6.12891 20.9297 5.83594 20.6484C5.56641 20.3672 5.12109 20.3555 4.85156 20.6367L3.80859 21.6914C3.51562 21.9961 3.50391 22.3828 3.78516 22.6641Z" fill="black" fill-opacity="0.85"/>
  <path d="M6.60938 24.6797C6.9375 24.8672 7.37109 24.7617 7.55859 24.4219L9.73828 20.6484C9.9375 20.3086 9.82031 19.8867 9.49219 19.6875C9.15234 19.5 8.73047 19.6055 8.53125 19.957L6.36328 23.7305C6.16406 24.0703 6.26953 24.4805 6.60938 24.6797Z" fill="black" fill-opacity="0.85"/>
  <path d="M9.69141 26.1211C10.125 26.2617 10.5117 26.0039 10.6055 25.6406L11.0039 24.1992C11.1094 23.8242 10.8984 23.4375 10.5234 23.3438C10.1484 23.25 9.77344 23.4492 9.66797 23.8359L9.28125 25.2773C9.17578 25.6758 9.30469 26.0039 9.69141 26.1211Z" fill="black" fill-opacity="0.85"/>
  <path d="M13.207 26.4492C13.6055 26.4492 13.9102 26.1328 13.9102 25.7461L13.9102 21.3984C13.9102 21 13.6055 20.6953 13.207 20.6953C12.8203 20.6953 12.5156 21 12.5156 21.3984L12.5156 25.7461C12.5156 26.1328 12.8203 26.4492 13.207 26.4492Z" fill="black" fill-opacity="0.85"/>
  <path d="M16.6758 26.1328C17.1211 26.0273 17.25 25.6406 17.1562 25.2773L16.7812 23.8008C16.6758 23.4258 16.2773 23.2148 15.9023 23.3203C15.4922 23.4375 15.3164 23.8242 15.4219 24.1758L15.8438 25.6055C15.9609 25.9922 16.2539 26.2148 16.6758 26.1328Z" fill="black" fill-opacity="0.85"/>
  <path d="M19.8164 24.6797C20.1562 24.4922 20.2617 24.0703 20.0742 23.7305L17.8945 19.957C17.707 19.6055 17.2734 19.5 16.9453 19.6875C16.6055 19.8867 16.4883 20.3086 16.6992 20.6484L18.8672 24.4219C19.0664 24.7617 19.4766 24.8672 19.8164 24.6797Z" fill="black" fill-opacity="0.85"/>
  <path d="M22.6406 22.6758C22.9336 22.3828 22.9102 21.9375 22.6641 21.6797L21.5859 20.625C21.3047 20.3555 20.8828 20.3203 20.5781 20.625C20.3086 20.918 20.332 21.3164 20.6016 21.5977L21.6562 22.6523C21.9492 22.9453 22.3594 22.957 22.6406 22.6758Z" fill="black" fill-opacity="0.85"/>
  <path d="M24.6562 19.8398C24.8438 19.5117 24.7383 19.0898 24.4102 18.8906L20.625 16.7109C20.2852 16.5117 19.8633 16.6289 19.6758 16.957C19.4766 17.2969 19.582 17.7188 19.9336 17.918L23.707 20.0977C24.0469 20.2852 24.457 20.1797 24.6562 19.8398Z" fill="black" fill-opacity="0.85"/>
  <path d="M26.0977 16.7227C26.2031 16.3242 26.0273 15.9609 25.6172 15.8438L24.1641 15.4336C23.7656 15.3281 23.4023 15.5508 23.3086 15.9258C23.2148 16.3125 23.4258 16.7109 23.7891 16.8047L25.2305 17.1797C25.6406 17.2852 25.9922 17.0742 26.0977 16.7227Z" fill="black" fill-opacity="0.85"/>
  <path d="M26.4258 13.2305C26.4258 12.8438 26.1211 12.5391 25.7227 12.5391L21.375 12.5391C20.9766 12.5391 20.6719 12.8438 20.6719 13.2305C20.6719 13.6289 20.9766 13.9336 21.375 13.9336L25.7227 13.9336C26.1211 13.9336 26.4258 13.6289 26.4258 13.2305Z" fill="black" fill-opacity="0.85"/>
  <path d="M26.0977 9.79688C26.0039 9.41016 25.6055 9.1875 25.2539 9.29297L23.7891 9.69141C23.4141 9.79688 23.1914 10.1602 23.3203 10.5938C23.4141 10.8984 23.7422 11.1445 24.1641 11.0391L25.582 10.6406C25.9922 10.5352 26.1914 10.1602 26.0977 9.79688Z" fill="black" fill-opacity="0.85"/>
  <path d="M24.668 6.63281C24.4688 6.29297 24.0469 6.1875 23.707 6.375L19.9336 8.55469C19.582 8.75391 19.4766 9.17578 19.6758 9.51562C19.8633 9.84375 20.2852 9.96094 20.625 9.76172L24.4102 7.58203C24.7383 7.38281 24.8438 6.97266 24.668 6.63281Z" fill="black" fill-opacity="0.85"/>
  <path d="M22.6523 3.82031C22.3711 3.53906 21.9258 3.5625 21.668 3.82031L20.6016 4.875C20.3086 5.17969 20.3086 5.57812 20.6016 5.85938C20.8828 6.15234 21.3047 6.15234 21.5742 5.87109L22.6172 4.81641C22.9102 4.51172 22.9219 4.10156 22.6523 3.82031Z" fill="black" fill-opacity="0.85"/>
  <path d="M19.8281 1.79297C19.4883 1.60547 19.0664 1.71094 18.8672 2.03906L16.6992 5.82422C16.4883 6.16406 16.6055 6.58594 16.9453 6.77344C17.2734 6.97266 17.707 6.86719 17.8945 6.51562L20.0742 2.74219C20.2617 2.40234 20.1562 1.99219 19.8281 1.79297Z" fill="black" fill-opacity="0.85"/>
  <path d="M16.6758 0.375C16.3008 0.246094 15.9375 0.433594 15.8203 0.867188L15.4219 2.30859C15.3164 2.68359 15.5273 3.07031 15.9023 3.16406C16.2773 3.25781 16.6523 3.05859 16.7578 2.67188L17.1445 1.23047C17.25 0.832031 17.0508 0.480469 16.6758 0.375Z" fill="black" fill-opacity="0.85"/>
  <path d="M13.207 0.0234375C12.8203 0.0234375 12.5156 0.339844 12.5156 0.726562L12.5156 5.07422C12.5156 5.47266 12.8203 5.77734 13.207 5.77734C13.6055 5.77734 13.9102 5.47266 13.9102 5.07422L13.9102 0.726562C13.9102 0.339844 13.6055 0.0234375 13.207 0.0234375Z" fill="black" fill-opacity="0.85"/>
 </g>
</svg>
