<?xml version="1.0" encoding="UTF-8"?>
<!--Generator: Apple Native CoreSVG 360-->
<!DOCTYPE svg
PUBLIC "-//W3C//DTD SVG 1.1//EN"
       "http://www.w3.org/Graphics/SVG/1.1/DTD/svg11.dtd">
<svg version="1.1" xmlns="http://www.w3.org/2000/svg" xmlns:xlink="http://www.w3.org/1999/xlink" viewBox="0 0 24.2578 23.918">
 <g>
  <rect height="23.918" opacity="0" width="24.2578" x="0" y="0"/>
  <path d="M11.9531 23.9062C18.5508 23.9062 23.9062 18.5508 23.9062 11.9531C23.9062 5.35547 18.5508 0 11.9531 0C5.35547 0 0 5.35547 0 11.9531C0 18.5508 5.35547 23.9062 11.9531 23.9062ZM11.9531 20.4141C7.27734 20.4141 3.49219 16.6289 3.49219 11.9531C3.49219 7.27734 7.27734 3.49219 11.9531 3.49219C16.6289 3.49219 20.4141 7.27734 20.4141 11.9531C20.4141 16.6289 16.6289 20.4141 11.9531 20.4141ZM10.9336 4.6875C8.48438 5.01562 6.41016 6.58594 5.37891 8.71875L9.82031 10.3594C10.1367 9.91406 10.5938 9.58594 11.1211 9.42188ZM4.72266 10.6875C4.65234 11.0977 4.60547 11.5195 4.60547 11.9531C4.60547 14.0156 5.47266 15.8906 6.85547 17.2266L9.78516 13.5C9.45703 13.0664 9.30469 12.5508 9.28125 11.9648ZM8.53125 18.4336C9.55078 18.9844 10.7227 19.3008 11.9531 19.3008C13.207 19.3008 14.3789 18.9844 15.3984 18.4336L12.7617 14.4961C12.5156 14.5781 12.2344 14.625 11.9531 14.625C11.6719 14.625 11.4141 14.5781 11.1445 14.4961ZM17.0742 17.2266C18.457 15.8906 19.3008 14.0156 19.3008 11.9531C19.3008 11.5195 19.2773 11.0977 19.1836 10.6875L14.625 11.9648C14.625 12.5508 14.4492 13.0664 14.1445 13.5ZM18.5508 8.71875C17.5195 6.58594 15.4453 5.01562 12.9961 4.6875L12.8086 9.42188C13.3359 9.58594 13.793 9.91406 14.1094 10.3594ZM11.9531 13.1484C12.6211 13.1484 13.1484 12.6094 13.1484 11.9531C13.1484 11.2852 12.6211 10.7578 11.9531 10.7578C11.2969 10.7578 10.7695 11.2852 10.7695 11.9531C10.7695 12.6094 11.2969 13.1484 11.9531 13.1484Z" fill="black" fill-opacity="0.85"/>
 </g>
</svg>
