<?xml version="1.0" encoding="UTF-8"?>
<!--Generator: Apple Native CoreSVG 360-->
<!DOCTYPE svg
PUBLIC "-//W3C//DTD SVG 1.1//EN"
       "http://www.w3.org/Graphics/SVG/1.1/DTD/svg11.dtd">
<svg version="1.1" xmlns="http://www.w3.org/2000/svg" xmlns:xlink="http://www.w3.org/1999/xlink" viewBox="0 0 17.0273 28.2773">
 <g>
  <rect height="28.2773" opacity="0" width="17.0273" x="0" y="0"/>
  <path d="M1.13672 1.88672L15.5391 1.88672C16.0547 1.88672 16.4766 1.45312 16.4766 0.9375C16.4766 0.421875 16.0547 0 15.5391 0L1.13672 0C0.621094 0 0.1875 0.421875 0.1875 0.9375C0.1875 1.45312 0.621094 1.88672 1.13672 1.88672ZM1.69922 11.6719L3.52734 10.8984L3.16406 4.85156L13.5117 4.85156L13.1484 10.8984L14.9648 11.6719L15.5273 3.1875L1.13672 3.1875ZM8.33203 15.7617C13.2539 15.7617 16.6758 14.5078 16.6758 12.7031C16.6758 10.9453 13.2539 9.72656 8.33203 9.72656C3.42188 9.72656 0 10.9453 0 12.7031C0 14.5078 3.42188 15.7617 8.33203 15.7617ZM8.33203 14.168C4.73438 14.168 2.33203 13.582 2.33203 12.7031C2.33203 11.8828 4.73438 11.3203 8.33203 11.3203C11.9414 11.3203 14.3438 11.8828 14.3438 12.7031C14.3438 13.582 11.9414 14.168 8.33203 14.168ZM7.85156 21.2461L8.82422 21.2461C13.4766 21.2461 16.6758 17.7656 16.6758 12.7031L14.9414 12.7031C14.9414 16.7109 12.457 19.4531 8.82422 19.4531L7.85156 19.4531C4.21875 19.4531 1.73438 16.7109 1.73438 12.7031L0 12.7031C0 17.7656 3.19922 21.2461 7.85156 21.2461ZM8.54297 28.2773C10.6875 28.2773 13.2188 27.7617 14.332 26.6484C14.625 26.3438 14.6367 25.9453 14.5195 25.5234L12.5859 19.1367L10.8984 20.0977L12.8555 26.5312L12.9375 25.3359C12.1758 26.0156 10.3828 26.3906 8.54297 26.3906C6.70312 26.3906 4.91016 26.0156 4.14844 25.3359L4.24219 26.5312L6.1875 20.0977L4.51172 19.1367L2.56641 25.5234C2.44922 25.9453 2.46094 26.3438 2.76562 26.6484C3.89062 27.7617 6.41016 28.2773 8.54297 28.2773Z" fill="black" fill-opacity="0.85"/>
 </g>
</svg>
