<?xml version="1.0" encoding="UTF-8"?>
<!--Generator: Apple Native CoreSVG 360-->
<!DOCTYPE svg
PUBLIC "-//W3C//DTD SVG 1.1//EN"
       "http://www.w3.org/Graphics/SVG/1.1/DTD/svg11.dtd">
<svg version="1.1" xmlns="http://www.w3.org/2000/svg" xmlns:xlink="http://www.w3.org/1999/xlink" viewBox="0 0 39.2812 24.3633">
 <g>
  <rect height="24.3633" opacity="0" width="39.2812" x="0" y="0"/>
  <path d="M37.3828 20.0391C38.2266 20.0391 38.9297 19.3594 38.9297 18.5625C38.9297 17.7539 38.2383 17.0859 37.3828 17.0859C36.5391 17.0859 35.8477 17.7539 35.8477 18.5625C35.8477 19.3594 36.5508 20.0391 37.3828 20.0391ZM37.3828 14.8359C37.957 14.8359 38.3672 14.4375 38.3906 13.8398L38.6367 5.54297C38.6602 4.79297 38.1562 4.28906 37.3828 4.28906C36.6211 4.28906 36.1172 4.79297 36.1406 5.54297L36.3867 13.8398C36.4102 14.4375 36.8086 14.8359 37.3828 14.8359Z" fill="black" fill-opacity="0.85"/>
  <path d="M0 8.40234C0 10.043 1.20703 11.2148 2.83594 11.2148L4.30078 11.2148C5.48438 11.2148 5.88281 11.4609 6.375 12.2461L10.9219 19.4766C11.625 20.6016 12.7969 21.5273 14.8945 21.5273L29.5781 21.5273C31.2188 21.5273 32.4141 20.3203 32.4141 18.668C32.4141 17.0391 31.2188 15.8555 29.5781 15.8555L15.9961 15.8555C15.5625 15.8555 15.1055 15.7852 14.8828 15.4102L10.4766 8.20312C9.31641 6.30469 7.89844 5.54297 5.92969 5.54297L2.83594 5.54297C1.20703 5.54297 0 6.76172 0 8.40234ZM1.76953 8.39062C1.76953 7.74609 2.20312 7.3125 2.83594 7.3125L5.40234 7.32422C7.24219 7.33594 8.05078 7.72266 8.90625 9.10547L13.4766 16.4414C14.0039 17.2734 14.6367 17.625 15.8086 17.625L29.5781 17.625C30.2109 17.625 30.6445 18.0586 30.6445 18.6797C30.6445 19.3359 30.2109 19.7578 29.5781 19.7578L15.2578 19.7578C13.582 19.7578 12.8789 19.3242 12.1406 18.1523L7.59375 10.9102C6.89062 9.77344 6.23438 9.44531 4.69922 9.44531L2.83594 9.44531C2.20312 9.44531 1.76953 9.01172 1.76953 8.39062ZM19.4766 12.8789L25.6523 12.8789C26.0625 12.8789 26.4492 12.7617 26.7656 12.5156C28.4297 11.2266 29.543 9.23438 29.543 6.99609C29.543 3.1875 26.3789 0 22.5703 0C18.7734 0 15.6094 3.1875 15.6094 6.99609C15.6094 9.23438 16.6992 11.2266 18.3516 12.5156C18.6797 12.7734 19.0781 12.8789 19.4766 12.8789ZM20.1094 11.0742C19.6406 11.0742 19.2773 10.9805 18.9375 10.6406C18.0469 9.71484 17.5078 8.46094 17.5078 6.99609C17.5078 4.04297 19.6875 1.89844 22.582 1.89844C25.4883 1.89844 27.6211 4.04297 27.6211 6.99609C27.6211 8.44922 27.1055 9.71484 26.2148 10.6055C25.8633 10.9805 25.5234 11.0742 25.043 11.0742ZM20.2031 16.6875L24.8906 16.6875L24.8906 12.1172L20.2031 12.1172ZM22.5703 24.2344C23.9297 24.2344 24.8906 23.2617 24.8906 21.8906L24.8906 20.9062L20.2031 20.9062L20.2031 21.8906C20.2031 23.2617 21.1992 24.2344 22.5703 24.2344Z" fill="black" fill-opacity="0.85"/>
 </g>
</svg>
