<?xml version="1.0" encoding="UTF-8"?>
<!--Generator: Apple Native CoreSVG 360-->
<!DOCTYPE svg
PUBLIC "-//W3C//DTD SVG 1.1//EN"
       "http://www.w3.org/Graphics/SVG/1.1/DTD/svg11.dtd">
<svg version="1.1" xmlns="http://www.w3.org/2000/svg" xmlns:xlink="http://www.w3.org/1999/xlink" viewBox="0 0 32.4961 18.5977">
 <g>
  <rect height="18.5977" opacity="0" width="32.4961" x="0" y="0"/>
  <path d="M0 15.0117C0 17.4023 1.20703 18.5977 3.63281 18.5977L26.2266 18.5977C30.1172 18.5977 32.1445 16.3242 32.1445 13.6406C32.1445 12 31.4062 10.2188 29.8242 8.66016L25.0312 3.90234C21.9961 0.902344 20.0391 0 16.4531 0L3.63281 0C1.20703 0 0 1.19531 0 3.58594ZM12.3984 9.44531L12.3984 5.13281C12.3984 4.42969 12.8086 4.01953 13.5117 4.01953L16.7227 4.01953C20.0625 4.01953 21.6328 4.45312 23.2969 6.09375L25.9922 8.77734C26.7305 9.51562 26.2969 10.5234 25.5 10.5234L13.5117 10.5234C12.8086 10.5234 12.3984 10.1133 12.3984 9.44531Z" fill="black" fill-opacity="0.85"/>
 </g>
</svg>
