<?xml version="1.0" encoding="UTF-8"?>
<!--Generator: Apple Native CoreSVG 360-->
<!DOCTYPE svg
PUBLIC "-//W3C//DTD SVG 1.1//EN"
       "http://www.w3.org/Graphics/SVG/1.1/DTD/svg11.dtd">
<svg version="1.1" xmlns="http://www.w3.org/2000/svg" xmlns:xlink="http://www.w3.org/1999/xlink" viewBox="0 0 29.5664 18.5977">
 <g>
  <rect height="18.5977" opacity="0" width="29.5664" x="0" y="0"/>
  <path d="M0 15.0117C0 17.4023 1.20703 18.5977 3.63281 18.5977L25.582 18.5977C28.0078 18.5977 29.2148 17.4023 29.2148 15.0117L29.2148 3.58594C29.2148 1.19531 28.0078 0 25.582 0L3.63281 0C1.20703 0 0 1.19531 0 3.58594ZM4.28906 9.09375L4.28906 5.48438C4.28906 4.78125 4.71094 4.37109 5.40234 4.37109L23.8125 4.37109C24.5039 4.37109 24.9258 4.78125 24.9258 5.48438L24.9258 9.09375C24.9258 9.76172 24.5039 10.1719 23.8125 10.1719L5.40234 10.1719C4.71094 10.1719 4.28906 9.76172 4.28906 9.09375Z" fill="black" fill-opacity="0.85"/>
 </g>
</svg>
