<?xml version="1.0" encoding="UTF-8"?>
<!--Generator: Apple Native CoreSVG 360-->
<!DOCTYPE svg
PUBLIC "-//W3C//DTD SVG 1.1//EN"
       "http://www.w3.org/Graphics/SVG/1.1/DTD/svg11.dtd">
<svg version="1.1" xmlns="http://www.w3.org/2000/svg" xmlns:xlink="http://www.w3.org/1999/xlink" viewBox="0 0 29.5664 18.5977">
 <g>
  <rect height="18.5977" opacity="0" width="29.5664" x="0" y="0"/>
  <path d="M0 15.0117C0 17.4023 1.20703 18.5977 3.63281 18.5977L25.582 18.5977C28.0078 18.5977 29.2148 17.4023 29.2148 15.0117L29.2148 3.58594C29.2148 1.19531 28.0078 0 25.582 0L6.46875 0C4.46484 0 3.30469 1.16016 2.70703 2.96484L0.398438 9.97266C0.117188 10.793 0 11.4844 0 12.4102ZM11.4492 9.09375L11.4492 5.48438C11.4492 4.78125 11.8711 4.37109 12.5625 4.37109L23.4141 4.37109C24.1172 4.37109 24.5273 4.78125 24.5273 5.48438L24.5273 9.09375C24.5273 9.76172 24.1172 10.1719 23.4141 10.1719L12.5625 10.1719C11.8711 10.1719 11.4492 9.76172 11.4492 9.09375ZM4.19531 10.1719C3.53906 10.1719 3.1875 9.64453 3.45703 8.8125L4.64062 5.21484C4.80469 4.69922 5.0625 4.37109 5.89453 4.37109L7.23047 4.37109C7.92188 4.37109 8.34375 4.78125 8.34375 5.48438L8.34375 9.09375C8.34375 9.76172 7.92188 10.1719 7.23047 10.1719Z" fill="black" fill-opacity="0.85"/>
 </g>
</svg>
