<?xml version="1.0" encoding="UTF-8"?>
<!--Generator: Apple Native CoreSVG 360-->
<!DOCTYPE svg
PUBLIC "-//W3C//DTD SVG 1.1//EN"
       "http://www.w3.org/Graphics/SVG/1.1/DTD/svg11.dtd">
<svg version="1.1" xmlns="http://www.w3.org/2000/svg" xmlns:xlink="http://www.w3.org/1999/xlink" viewBox="0 0 27.8906 20.0273">
 <g>
  <rect height="20.0273" opacity="0" width="27.8906" x="0" y="0"/>
  <path d="M3.67969 20.0273L23.8594 20.0273C26.3203 20.0273 27.5391 18.8203 27.5391 16.4062L27.5391 3.64453C27.5391 1.23047 26.3203 0.0117188 23.8594 0.0117188L3.67969 0.0117188C1.23047 0.0117188 0 1.23047 0 3.64453L0 16.4062C0 18.8203 1.23047 20.0273 3.67969 20.0273ZM3.70312 18.1406C2.53125 18.1406 1.88672 17.5195 1.88672 16.3008L1.88672 3.75C1.88672 2.53125 2.53125 1.89844 3.70312 1.89844L23.8359 1.89844C24.9844 1.89844 25.6523 2.53125 25.6523 3.75L25.6523 16.3008C25.6523 17.5195 24.9844 18.1406 23.8359 18.1406Z" fill="black" fill-opacity="0.85"/>
  <path d="M10.5938 15.832L16.957 15.832C17.9883 15.832 18.5742 15.1406 18.5742 14.1562L18.5742 10.0781C18.5742 8.56641 18.3633 7.06641 18.1406 6.12891C17.9062 5.16797 17.25 4.44141 16.2422 4.34766C15.8789 4.30078 14.9297 4.21875 13.7812 4.21875C12.6211 4.21875 11.6719 4.30078 11.3086 4.34766C10.3008 4.44141 9.64453 5.16797 9.41016 6.12891C9.1875 7.06641 8.98828 8.56641 8.98828 10.0781L8.98828 14.1562C8.98828 15.1406 9.5625 15.832 10.5938 15.832ZM13.7812 12.0703C12.457 12.0586 11.2383 12 10.6289 11.9297C10.2891 11.8828 10.1484 11.6602 10.1484 11.3438L10.1484 10.0312C10.1484 8.88281 10.2773 7.94531 10.3711 7.53516C10.4297 7.28906 10.582 7.11328 10.8281 7.07812C11.4727 7.00781 12.2695 6.96094 13.7812 6.96094C15.2812 6.94922 16.0781 7.00781 16.7109 7.07812C16.957 7.11328 17.1211 7.28906 17.1797 7.53516C17.2734 7.94531 17.4023 8.88281 17.4023 10.0312L17.4023 11.3438C17.4023 11.6602 17.2617 11.8828 16.9219 11.9297C16.0078 12.0234 14.7891 12.0703 13.7812 12.0703ZM11.1328 14.625C10.6875 14.625 10.3477 14.3086 10.3477 13.8516C10.3477 13.4062 10.6875 13.0781 11.1328 13.0781C11.5898 13.0781 11.9062 13.4062 11.9062 13.8516C11.9062 14.3086 11.5781 14.625 11.1328 14.625ZM16.418 14.6367C15.9727 14.6367 15.6211 14.2969 15.6211 13.8516C15.6211 13.4062 15.9727 13.0664 16.418 13.0664C16.8633 13.0664 17.2031 13.4062 17.2031 13.8516C17.2031 14.2969 16.8516 14.6367 16.418 14.6367ZM12.3164 6C12.1172 6 11.9648 5.84766 11.9648 5.64844C11.9648 5.4375 12.1172 5.29688 12.3164 5.29688L15.2344 5.29688C15.4453 5.29688 15.5859 5.4375 15.5859 5.64844C15.5859 5.84766 15.4453 6 15.2344 6Z" fill="black" fill-opacity="0.85"/>
 </g>
</svg>
