<?xml version="1.0" encoding="UTF-8"?>
<!--Generator: Apple Native CoreSVG 360-->
<!DOCTYPE svg
PUBLIC "-//W3C//DTD SVG 1.1//EN"
       "http://www.w3.org/Graphics/SVG/1.1/DTD/svg11.dtd">
<svg version="1.1" xmlns="http://www.w3.org/2000/svg" xmlns:xlink="http://www.w3.org/1999/xlink" viewBox="0 0 27.3633 31.6758">
 <g>
  <rect height="31.6758" opacity="0" width="27.3633" x="0" y="0"/>
  <path d="M0 30.457C0 30.9727 0.421875 31.3945 0.9375 31.3945C1.46484 31.3945 1.88672 30.9727 1.88672 30.457L1.88672 12.0938C1.88672 5.44922 5.94141 1.88672 13.5117 1.88672C21.0703 1.88672 25.125 5.44922 25.125 12.0938L25.125 30.457C25.125 30.9727 25.5586 31.3945 26.0742 31.3945C26.5898 31.3945 27.0117 30.9727 27.0117 30.457L27.0117 12.0938C27.0117 4.21875 22.3125 0 13.5117 0C4.69922 0 0 4.21875 0 12.0938ZM8.01562 26.0156L18.9961 26.0156C20.8125 26.0156 21.8672 24.7617 21.8672 23.0156L21.8672 15.9961C21.8672 13.3711 21.5156 10.8047 21.1289 9.19922C20.6953 7.39453 19.4531 6.21094 17.7656 6.01172C17.1328 5.94141 15.4922 5.80078 13.5117 5.80078C11.5312 5.80078 9.87891 5.94141 9.24609 6.01172C7.55859 6.21094 6.31641 7.39453 5.88281 9.19922C5.49609 10.8047 5.14453 13.3711 5.14453 15.9961L5.14453 23.0156C5.14453 24.7617 6.19922 26.0156 8.01562 26.0156ZM13.5117 19.3125C11.25 19.3008 9.16406 19.1953 8.12109 19.0664C7.64062 19.0078 7.40625 18.7148 7.40625 18.1758L7.40625 15.9141C7.40625 13.957 7.61719 12.375 7.76953 11.6602C7.85156 11.25 8.09766 11.0156 8.46094 10.9688C9.5625 10.8281 10.9102 10.7578 13.5117 10.7578C16.0898 10.7578 17.4492 10.8281 18.5156 10.957C18.9023 11.0156 19.1602 11.25 19.2422 11.6602C19.3945 12.375 19.6055 13.957 19.6055 15.9141L19.6055 18.1758C19.6055 18.7266 19.3711 19.0078 18.8906 19.0664C17.3203 19.2773 15.2578 19.3008 13.5117 19.3125ZM11.0625 9.10547C10.6406 9.10547 10.3594 8.82422 10.3594 8.40234C10.3594 7.98047 10.6406 7.69922 11.0625 7.69922L15.9492 7.69922C16.3711 7.69922 16.6523 7.98047 16.6523 8.40234C16.6523 8.82422 16.3711 9.10547 15.9492 9.10547ZM8.95312 23.918C8.13281 23.918 7.53516 23.3086 7.53516 22.4766C7.53516 21.6562 8.13281 21.0586 8.95312 21.0586C9.78516 21.0586 10.3945 21.6562 10.3945 22.4766C10.3945 23.3086 9.76172 23.918 8.95312 23.918ZM18.0469 23.918C17.2266 23.918 16.6172 23.3086 16.6172 22.4766C16.6172 21.6562 17.2266 21.0586 18.0469 21.0586C18.8789 21.0586 19.4766 21.6562 19.4766 22.4766C19.4766 23.3086 18.8555 23.918 18.0469 23.918ZM6.75 30.2461L7.30078 30.2461C7.59375 30.2461 7.75781 30.1406 7.93359 29.8828L10.7578 25.3242L8.75391 25.3242L6.26953 29.3203C6 29.7539 6.25781 30.2461 6.75 30.2461ZM7.57031 29.0039L19.4648 29.0039L19.4648 27.4336L7.57031 27.4336ZM19.7578 30.2461L20.2969 30.2461C20.7773 30.2461 21.0352 29.7422 20.7773 29.3203L18.293 25.3242L16.2891 25.3242L19.1133 29.8828C19.2773 30.1406 19.4648 30.2461 19.7578 30.2461Z" fill="black" fill-opacity="0.85"/>
 </g>
</svg>
