<?xml version="1.0" encoding="UTF-8"?>
<!--Generator: Apple Native CoreSVG 360-->
<!DOCTYPE svg
PUBLIC "-//W3C//DTD SVG 1.1//EN"
       "http://www.w3.org/Graphics/SVG/1.1/DTD/svg11.dtd">
<svg version="1.1" xmlns="http://www.w3.org/2000/svg" xmlns:xlink="http://www.w3.org/1999/xlink" viewBox="0 0 26.7422 26.1166">
 <g>
  <rect height="26.1166" opacity="0" width="26.7422" x="0" y="0"/>
  <path d="M13.1953 24.4782C13.4883 24.4782 13.793 24.4665 14.0859 24.4431L14.7773 25.7556C14.9297 26.0251 15.1758 26.154 15.4805 26.1071C15.7969 26.0485 15.9844 25.8493 16.043 25.5212L16.2422 24.0681C16.8164 23.904 17.3789 23.7048 17.918 23.4587L18.9961 24.4548C19.2422 24.6657 19.5234 24.6891 19.793 24.5368C20.0625 24.3845 20.168 24.1149 20.1094 23.8102L19.793 22.3688C20.2852 22.029 20.7539 21.6423 21.1758 21.2204L22.5352 21.7712C22.8281 21.8884 23.0977 21.8415 23.2969 21.5954C23.4961 21.3493 23.5195 21.0798 23.3555 20.7985L22.582 19.5681C22.9219 19.0759 23.2148 18.5602 23.4844 17.9977L24.9375 18.0563C25.2539 18.0681 25.4883 17.9157 25.5938 17.6227C25.6992 17.3298 25.6289 17.0602 25.3711 16.861L24.2461 15.9821C24.3984 15.3962 24.5039 14.7985 24.5625 14.1774L25.9219 13.7438C26.2266 13.6501 26.3906 13.4274 26.3906 13.111C26.3906 12.7946 26.2266 12.572 25.9219 12.4665L24.5742 12.0446C24.5156 11.4235 24.4102 10.8141 24.2578 10.2165L25.3711 9.36102C25.6289 9.15009 25.6992 8.89227 25.582 8.5993C25.4883 8.30634 25.2539 8.14227 24.9258 8.15399L23.543 8.20087C23.2734 7.63837 22.9688 7.11102 22.6055 6.5954L23.3555 5.42352C23.5195 5.14227 23.4961 4.87274 23.2969 4.62665C23.0977 4.38055 22.8281 4.32196 22.5352 4.43915L21.2461 4.97821C20.8008 4.52118 20.3203 4.11102 19.8164 3.74774L20.1094 2.4118C20.168 2.0954 20.0625 1.83759 19.793 1.68524C19.5234 1.52118 19.2422 1.55634 18.9961 1.76727L17.9883 2.69305C17.4258 2.43524 16.8398 2.21259 16.2188 2.0368L16.043 0.689148C15.9844 0.372741 15.7969 0.173523 15.4805 0.114929C15.1758 0.0680538 14.9297 0.185241 14.7656 0.466491L14.1328 1.67352C13.8164 1.65009 13.5117 1.63837 13.1953 1.63837C12.8789 1.63837 12.5742 1.65009 12.2578 1.67352L11.6133 0.466491C11.4609 0.185241 11.2031 0.0680538 10.9102 0.114929C10.5938 0.161804 10.4062 0.372741 10.3477 0.689148L10.1719 2.0368C9.55078 2.21259 8.96484 2.43524 8.40234 2.69305L7.39453 1.76727C7.14844 1.55634 6.86719 1.52118 6.59766 1.68524C6.32812 1.83759 6.22266 2.0954 6.28125 2.4118L6.57422 3.74774C6.07031 4.11102 5.57812 4.5329 5.13281 4.97821L3.85547 4.43915C3.5625 4.32196 3.29297 4.38055 3.09375 4.62665C2.89453 4.87274 2.87109 5.14227 3.03516 5.42352L3.78516 6.5954C3.42188 7.11102 3.11719 7.63837 2.84766 8.20087L1.45312 8.16571C1.13672 8.14227 0.902344 8.30634 0.796875 8.5993C0.691406 8.89227 0.761719 9.1618 1.01953 9.36102L2.13281 10.2165C1.98047 10.8141 1.875 11.4235 1.81641 12.0446L0.46875 12.4665C0.164062 12.572 0 12.7946 0 13.111C0 13.4274 0.164062 13.6501 0.46875 13.7438L1.82812 14.1774C1.88672 14.7985 1.99219 15.3962 2.14453 15.9821L1.01953 16.861C0.761719 17.072 0.691406 17.3181 0.808594 17.6227C0.902344 17.9157 1.13672 18.0798 1.45312 18.0563L2.90625 18.0095C3.17578 18.5602 3.46875 19.0759 3.80859 19.5681L3.03516 20.7985C2.87109 21.0798 2.89453 21.3493 3.09375 21.5954C3.29297 21.8415 3.5625 21.9001 3.85547 21.7712L5.21484 21.2204C5.63672 21.6423 6.10547 22.029 6.59766 22.3688L6.28125 23.8102C6.22266 24.1266 6.32812 24.3727 6.59766 24.5368C6.86719 24.7009 7.14844 24.6657 7.39453 24.4548L8.47266 23.4587C9.01172 23.7048 9.57422 23.904 10.1484 24.0681L10.3477 25.5212C10.4062 25.8493 10.5938 26.0485 10.9102 26.1071C11.2031 26.154 11.4609 26.0251 11.6133 25.7438L12.3047 24.4431C12.6094 24.4665 12.9023 24.4782 13.1953 24.4782ZM13.1953 22.5681C7.94531 22.5681 3.67969 18.3024 3.67969 13.0524C3.67969 7.80243 7.94531 3.5368 13.1953 3.5368C18.4453 3.5368 22.7109 7.80243 22.7109 13.0524C22.7109 18.3024 18.4453 22.5681 13.1953 22.5681Z" fill="black" fill-opacity="0.85"/>
  <path d="" fill="black" fill-opacity="0.85"/>
 </g>
</svg>
