<?xml version="1.0" encoding="UTF-8"?>
<!--Generator: Apple Native CoreSVG 360-->
<!DOCTYPE svg
PUBLIC "-//W3C//DTD SVG 1.1//EN"
       "http://www.w3.org/Graphics/SVG/1.1/DTD/svg11.dtd">
<svg version="1.1" xmlns="http://www.w3.org/2000/svg" xmlns:xlink="http://www.w3.org/1999/xlink" viewBox="0 0 37.2305 26.8242">
 <g>
  <rect height="26.8242" opacity="0" width="37.2305" x="0" y="0"/>
  <path d="M21.1641 4.85156L21.1641 5.91797L20.6133 5.91797C20.1356 5.91797 19.6882 5.96076 19.2773 6.04951L19.2773 4.91016C19.2773 2.84766 18.1172 1.76953 16.1602 1.76953L5.00391 1.76953C3.04688 1.76953 1.88672 2.84766 1.88672 4.91016L1.88672 11.7188C1.88672 13.793 3.05859 14.8594 5.00391 14.8594L6.23438 14.8594C6.73828 14.8594 7.13672 15.1523 7.13672 15.8086L7.13672 18.7734L10.9102 15.3984C11.3672 14.9883 11.6602 14.8594 12.293 14.8594L15.7148 14.8594L15.7148 16.6172L12.2227 16.6172L8.30859 19.9688C7.60547 20.5781 7.21875 20.8945 6.64453 20.8945C5.83594 20.8945 5.37891 20.3203 5.37891 19.4297L5.37891 16.6172L4.89844 16.6172C1.95703 16.6172 0 14.8477 0 11.7773L0 4.85156C0 1.78125 1.95703 0 4.89844 0L16.2656 0C19.207 0 21.1641 1.78125 21.1641 4.85156Z" fill="black" fill-opacity="0.85"/>
  <path d="M11.8242 4.04297L14.7188 11.8125C14.9531 12.457 14.6133 13.0547 13.9219 13.0547C13.4766 13.0547 13.207 12.8086 13.0312 12.3164L12.3164 10.2539L8.87109 10.2539L8.15625 12.3164C7.99219 12.8086 7.71094 13.0547 7.26562 13.0547C6.58594 13.0547 6.23438 12.457 6.46875 11.8125L9.35156 4.04297C9.5625 3.46875 9.99609 3.15234 10.582 3.15234C11.1914 3.15234 11.6133 3.46875 11.8242 4.04297ZM9.35156 8.8125L11.8242 8.8125L10.5879 5.20654Z" fill="black" fill-opacity="0.85"/>
  <path d="M36.8789 10.7695L36.8789 17.6953C36.8789 20.7539 34.9219 22.5352 31.9805 22.5352L31.4883 22.5352L31.4883 25.3477C31.4883 26.2383 31.043 26.8125 30.2344 26.8125C29.6602 26.8125 29.2734 26.4961 28.5703 25.8867L24.6445 22.5352L20.6133 22.5352C17.5312 22.5352 15.7148 20.7656 15.7148 17.6953L15.7148 10.7695C15.7148 7.69922 17.5312 5.91797 20.6133 5.91797L31.9805 5.91797C34.9219 5.91797 36.8789 7.69922 36.8789 10.7695ZM22.5469 11.5312C22.0664 11.5312 21.7148 11.8594 21.7148 12.3047C21.7148 12.7617 22.0664 13.1016 22.5469 13.1016L23.4375 13.1016C23.7539 14.25 24.3516 15.3398 25.1719 16.2539C24.375 16.7812 23.4492 17.168 22.3828 17.4258C21.9258 17.5312 21.6562 17.9648 21.75 18.4336C21.8789 18.9023 22.3477 19.1133 22.8516 18.9727C24.1289 18.6914 25.3242 18.1523 26.3906 17.3672C27.4102 18.1406 28.6055 18.6797 29.7891 18.9609C30.3633 19.1016 30.8438 18.9258 30.9727 18.4336C31.1016 17.9297 30.8672 17.5312 30.3633 17.4258C29.2969 17.1797 28.3828 16.793 27.5625 16.2539C28.3945 15.3633 28.9805 14.2852 29.2969 13.1016L30.1992 13.1016C30.6797 13.1016 31.0312 12.7617 31.0312 12.3047C31.0312 11.8594 30.6797 11.5312 30.1992 11.5312ZM26.3906 15.2578C25.8164 14.625 25.3594 13.8867 25.0898 13.1016L27.6562 13.1016C27.3867 13.875 26.9531 14.6133 26.3906 15.2578ZM25.2188 8.42578C24.8203 8.61328 24.6445 9.09375 24.8555 9.52734L25.418 10.7109C25.6055 11.1328 26.0859 11.2969 26.4961 11.1211C26.9297 10.8984 27.1055 10.4297 26.8945 10.0078L26.3203 8.83594C26.1094 8.39062 25.6406 8.19141 25.2188 8.42578Z" fill="black" fill-opacity="0.85"/>
 </g>
</svg>
