<?xml version="1.0" encoding="UTF-8"?>
<!--Generator: Apple Native CoreSVG 360-->
<!DOCTYPE svg
PUBLIC "-//W3C//DTD SVG 1.1//EN"
       "http://www.w3.org/Graphics/SVG/1.1/DTD/svg11.dtd">
<svg version="1.1" xmlns="http://www.w3.org/2000/svg" xmlns:xlink="http://www.w3.org/1999/xlink" viewBox="0 0 24.2854 28.1602">
 <g>
  <rect height="28.1602" opacity="0" width="24.2854" x="0" y="0"/>
  <path d="M12.8575 27.0938C12.8575 27.668 12.5177 28.0312 11.9786 28.0312C11.4278 28.0312 11.088 27.668 11.088 27.0938L11.088 23.5078L12.8575 23.5078ZM12.8575 21.7383L11.088 21.7383L11.088 6.29297L12.8575 6.29297ZM12.8575 0.9375L12.8575 4.52344L11.088 4.52344L11.088 0.9375C11.088 0.351562 11.4278 0 11.9786 0C12.5177 0 12.8575 0.351562 12.8575 0.9375Z" fill="black" fill-opacity="0.85"/>
  <path d="M0.119251 20.4609C-0.349499 22.3359 0.576282 23.5078 2.67394 23.5078L21.2482 23.5078C23.3575 23.5078 24.2716 22.3359 23.8146 20.4609L20.5568 7.23047C20.1232 5.46094 19.1388 4.52344 17.2403 4.52344L6.69347 4.52344C4.78331 4.52344 3.81066 5.46094 3.36534 7.23047ZM1.9005 20.4609L5.05284 7.47656C5.25206 6.66797 5.73253 6.29297 6.61144 6.29297L17.3224 6.29297C18.2013 6.29297 18.6818 6.66797 18.881 7.47656L22.0216 20.4609C22.2208 21.2344 21.8341 21.7383 21.0724 21.7383L2.84972 21.7383C2.09972 21.7383 1.713 21.2344 1.9005 20.4609Z" fill="black" fill-opacity="0.85"/>
 </g>
</svg>
