<?xml version="1.0" encoding="UTF-8"?>
<!--Generator: Apple Native CoreSVG 360-->
<!DOCTYPE svg
PUBLIC "-//W3C//DTD SVG 1.1//EN"
       "http://www.w3.org/Graphics/SVG/1.1/DTD/svg11.dtd">
<svg version="1.1" xmlns="http://www.w3.org/2000/svg" xmlns:xlink="http://www.w3.org/1999/xlink" viewBox="0 0 28.6992 20.809">
 <g>
  <rect height="20.809" opacity="0" width="28.6992" x="0" y="0"/>
  <path d="M4.20703 11.2072L0.9375 11.2072C0.351562 11.2072 0 10.8674 0 10.3283C0 9.76581 0.351562 9.43768 0.9375 9.43768L4.20703 9.43768ZM22.3711 11.2072L5.97656 11.2072L5.97656 9.43768L22.3711 9.43768ZM28.3477 10.3283C28.3477 10.8674 27.9961 11.2072 27.4102 11.2072L24.1406 11.2072L24.1406 9.43768L27.4102 9.43768C27.9961 9.43768 28.3477 9.76581 28.3477 10.3283Z" fill="black" fill-opacity="0.85"/>
  <path d="M7.78125 18.3322L20.5664 20.5705C22.8047 20.9689 24.1406 19.5627 24.1406 17.0549L24.1406 3.60175C24.1406 0.965028 22.8984-0.335754 20.5664 0.0744027L7.78125 2.3244C5.44922 2.73456 4.20703 3.87128 4.20703 5.84003L4.20703 14.8049C4.20703 16.7619 5.44922 17.9221 7.78125 18.3322ZM7.6875 16.5627C6.57422 16.3752 5.97656 15.8127 5.97656 14.8283L5.97656 5.81659C5.97656 4.83222 6.57422 4.26972 7.6875 4.08222L20.6602 1.84393C21.7734 1.65643 22.3711 2.27753 22.3711 3.57831L22.3711 17.0783C22.3711 18.3205 21.7383 18.9885 20.6602 18.8127Z" fill="black" fill-opacity="0.85"/>
 </g>
</svg>
