<?xml version="1.0" encoding="UTF-8"?>
<!--Generator: Apple Native CoreSVG 360-->
<!DOCTYPE svg
PUBLIC "-//W3C//DTD SVG 1.1//EN"
       "http://www.w3.org/Graphics/SVG/1.1/DTD/svg11.dtd">
<svg version="1.1" xmlns="http://www.w3.org/2000/svg" xmlns:xlink="http://www.w3.org/1999/xlink" viewBox="0 0 27.9844 29.2148">
 <g>
  <rect height="29.2148" opacity="0" width="27.9844" x="0" y="0"/>
  <path d="M22.9219 9.15234L26.9648 14.6367C27.4688 15.3047 27.6328 15.7969 27.6328 16.8633L27.6328 23.332C27.6328 25.7461 26.4141 26.9648 23.9531 26.9648L3.67969 26.9648C1.23047 26.9648 0 25.7461 0 23.332L0 16.8633C0 15.7969 0.175781 15.3047 0.667969 14.6367L4.72266 9.15234C6 7.40625 6.69141 6.94922 8.77734 6.94922L10.6875 6.94922L10.6875 8.60156L8.63672 8.60156C7.78125 8.60156 7.08984 8.85938 6.55078 9.60938L2.21484 15.5742C2.02734 15.832 2.10938 16.1484 2.49609 16.1484L9.96094 16.1484C10.6172 16.1484 10.9336 16.6523 10.9336 17.168L10.9336 17.2148C10.9336 18.6562 12.0586 20.168 13.8164 20.168C15.5859 20.168 16.7109 18.6562 16.7109 17.2148L16.7109 17.168C16.7109 16.6523 17.0156 16.1484 17.6719 16.1484L25.1367 16.1484C25.5234 16.1484 25.5938 15.832 25.418 15.5742L21.082 9.60938C20.543 8.85938 19.8516 8.60156 18.9961 8.60156L16.9453 8.60156L16.9453 6.94922L18.8555 6.94922C20.9414 6.94922 21.6445 7.40625 22.9219 9.15234Z" fill="black" fill-opacity="0.85"/>
  <path d="M9.84375 10.1836C9.35156 10.1836 9 10.5352 9 11.0039C9 11.2617 9.09375 11.4492 9.26953 11.625L13.1367 15.3516C13.3711 15.5859 13.582 15.6562 13.8164 15.6562C14.0625 15.6562 14.2617 15.5859 14.4961 15.3516L18.3633 11.625C18.5391 11.4492 18.6328 11.2617 18.6328 11.0039C18.6328 10.5352 18.2695 10.1836 17.7773 10.1836C17.5547 10.1836 17.3086 10.2773 17.1445 10.4648L15.3398 12.3984L13.8164 14.0156L12.293 12.3984L10.4883 10.4648C10.3242 10.2773 10.0664 10.1836 9.84375 10.1836ZM13.8164 0C13.3125 0 12.8906 0.421875 12.8906 0.914062L12.8906 11.332L13.0312 14.4961C13.0547 14.9297 13.3828 15.2812 13.8164 15.2812C14.25 15.2812 14.5781 14.9297 14.6016 14.4961L14.7539 11.332L14.7539 0.914062C14.7539 0.421875 14.3203 0 13.8164 0Z" fill="black" fill-opacity="0.85"/>
 </g>
</svg>
