<?xml version="1.0" encoding="UTF-8"?>
<!--Generator: Apple Native CoreSVG 360-->
<!DOCTYPE svg
PUBLIC "-//W3C//DTD SVG 1.1//EN"
       "http://www.w3.org/Graphics/SVG/1.1/DTD/svg11.dtd">
<svg version="1.1" xmlns="http://www.w3.org/2000/svg" xmlns:xlink="http://www.w3.org/1999/xlink" viewBox="0 0 27.9844 30.5742">
 <g>
  <rect height="30.5742" opacity="0" width="27.9844" x="0" y="0"/>
  <path d="M22.9219 9.83203L26.9648 14.8477C27.4922 15.4805 27.6328 16.0078 27.6328 17.0742L27.6328 24.0117C27.6328 26.4258 26.4141 27.6445 23.9531 27.6445L3.67969 27.6445C1.23047 27.6445 0 26.4258 0 24.0117L0 17.0742C0 16.0078 0.152344 15.4805 0.667969 14.8477L4.72266 9.83203C6.09375 8.14453 6.69141 7.62891 8.77734 7.62891L10.6875 7.62891L10.6875 9.28125L8.63672 9.28125C7.78125 9.28125 7.125 9.5625 6.55078 10.2891L2.20312 15.7852C2.00391 16.0312 2.08594 16.3594 2.47266 16.3594L10.1953 16.3594C10.8047 16.3594 11.0977 16.8281 11.0977 17.3086L11.0977 17.3555C11.0977 18.7148 12.1641 20.1445 13.8164 20.1445C15.4805 20.1445 16.5469 18.7148 16.5469 17.3555L16.5469 17.3086C16.5469 16.8281 16.8281 16.3594 17.4375 16.3594L25.1719 16.3594C25.5586 16.3594 25.6289 16.0312 25.4414 15.7852L21.082 10.2891C20.5078 9.5625 19.8516 9.28125 18.9961 9.28125L16.9453 9.28125L16.9453 7.62891L18.8555 7.62891C20.9414 7.62891 21.5508 8.14453 22.9219 9.83203ZM1.88672 18.082L1.88672 23.9062C1.88672 25.125 2.53125 25.7578 3.70312 25.7578L23.9297 25.7578C25.0898 25.7578 25.7461 25.125 25.7461 23.9062L25.7461 18.082L18.3164 18.082C18.0352 20.2617 16.1953 21.8906 13.8164 21.8906C11.4375 21.8906 9.59766 20.2734 9.31641 18.082Z" fill="black" fill-opacity="0.85"/>
  <path d="M9.84375 5.48438C10.0664 5.48438 10.3242 5.39062 10.4883 5.20312L12.293 3.26953L13.8164 1.65234L15.3398 3.26953L17.1445 5.20312C17.3086 5.39062 17.5547 5.48438 17.7773 5.48438C18.2695 5.48438 18.6328 5.13281 18.6328 4.65234C18.6328 4.40625 18.5391 4.21875 18.3633 4.04297L14.4961 0.316406C14.2617 0.0820312 14.0625 0 13.8164 0C13.582 0 13.3711 0.0820312 13.1367 0.316406L9.26953 4.04297C9.09375 4.21875 9 4.40625 9 4.65234C9 5.13281 9.35156 5.48438 9.84375 5.48438ZM13.8164 15.9844C14.3203 15.9844 14.7539 15.5742 14.7539 15.082L14.7539 4.32422L14.6016 1.17188C14.5781 0.738281 14.25 0.386719 13.8164 0.386719C13.3828 0.386719 13.0547 0.738281 13.0312 1.17188L12.8906 4.32422L12.8906 15.082C12.8906 15.5742 13.3125 15.9844 13.8164 15.9844Z" fill="black" fill-opacity="0.85"/>
 </g>
</svg>
