<?xml version="1.0" encoding="UTF-8"?>
<!--Generator: Apple Native CoreSVG 360-->
<!DOCTYPE svg
PUBLIC "-//W3C//DTD SVG 1.1//EN"
       "http://www.w3.org/Graphics/SVG/1.1/DTD/svg11.dtd">
<svg version="1.1" xmlns="http://www.w3.org/2000/svg" xmlns:xlink="http://www.w3.org/1999/xlink" viewBox="0 0 27.9844 30.5742">
 <g>
  <rect height="30.5742" opacity="0" width="27.9844" x="0" y="0"/>
  <path d="M22.9219 9.83203L26.9648 15.3164C27.4688 15.9844 27.6328 16.4766 27.6328 17.543L27.6328 24.0117C27.6328 26.4258 26.4141 27.6445 23.9531 27.6445L3.67969 27.6445C1.23047 27.6445 0 26.4258 0 24.0117L0 17.543C0 16.4766 0.175781 15.9844 0.667969 15.3164L4.72266 9.83203C6 8.08594 6.69141 7.62891 8.77734 7.62891L10.6875 7.62891L10.6875 9.28125L8.63672 9.28125C7.78125 9.28125 7.08984 9.53906 6.55078 10.2891L2.21484 16.2539C2.02734 16.5117 2.10938 16.8281 2.49609 16.8281L9.96094 16.8281C10.6172 16.8281 10.9336 17.332 10.9336 17.8477L10.9336 17.8945C10.9336 19.3359 12.0586 20.8477 13.8164 20.8477C15.5859 20.8477 16.7109 19.3359 16.7109 17.8945L16.7109 17.8477C16.7109 17.332 17.0156 16.8281 17.6719 16.8281L25.1367 16.8281C25.5234 16.8281 25.5938 16.5117 25.418 16.2539L21.082 10.2891C20.543 9.53906 19.8516 9.28125 18.9961 9.28125L16.9453 9.28125L16.9453 7.62891L18.8555 7.62891C20.9414 7.62891 21.6445 8.08594 22.9219 9.83203Z" fill="black" fill-opacity="0.85"/>
  <path d="M9.84375 5.48438C10.0664 5.48438 10.3242 5.39062 10.4883 5.20312L12.293 3.26953L13.8164 1.65234L15.3398 3.26953L17.1445 5.20312C17.3086 5.39062 17.5547 5.48438 17.7773 5.48438C18.2695 5.48438 18.6328 5.13281 18.6328 4.65234C18.6328 4.40625 18.5391 4.21875 18.3633 4.04297L14.4961 0.316406C14.2617 0.0820312 14.0625 0 13.8164 0C13.582 0 13.3711 0.0820312 13.1367 0.316406L9.26953 4.04297C9.09375 4.21875 9 4.40625 9 4.65234C9 5.13281 9.35156 5.48438 9.84375 5.48438ZM13.8164 15.9844C14.3203 15.9844 14.7539 15.5742 14.7539 15.082L14.7539 4.32422L14.6016 1.17188C14.5781 0.738281 14.25 0.386719 13.8164 0.386719C13.3828 0.386719 13.0547 0.738281 13.0312 1.17188L12.8906 4.32422L12.8906 15.082C12.8906 15.5742 13.3125 15.9844 13.8164 15.9844Z" fill="black" fill-opacity="0.85"/>
 </g>
</svg>
