<?xml version="1.0" encoding="UTF-8"?>
<!--Generator: Apple Native CoreSVG 360-->
<!DOCTYPE svg
PUBLIC "-//W3C//DTD SVG 1.1//EN"
       "http://www.w3.org/Graphics/SVG/1.1/DTD/svg11.dtd">
<svg version="1.1" xmlns="http://www.w3.org/2000/svg" xmlns:xlink="http://www.w3.org/1999/xlink" viewBox="0 0 44.7891 28.506">
 <g>
  <rect height="28.506" opacity="0" width="44.7891" x="0" y="0"/>
  <path d="M2.98828 21.0909L6.12891 21.0909L6.12891 19.2042L3.09375 19.2042C2.33203 19.2042 1.88672 18.6885 1.88672 17.7979L1.88672 15.4307C1.88672 13.7549 2.95312 12.8643 5.40234 12.4893L10.1719 11.7627L15.3281 8.55181C17.6367 7.12212 19.6523 6.60649 23.0156 6.60649L27.6445 6.60649C28.8984 6.60649 29.6016 7.23931 29.7422 8.46978L30.1289 12.0206L41.3555 12.0206C42.1055 12.0206 42.5508 12.5479 42.5508 13.4268L42.5508 17.7979C42.5508 18.6885 42.1055 19.2042 41.3555 19.2042L36.6797 19.2042L36.6797 21.0909L41.4609 21.0909C43.3242 21.0909 44.4375 19.9424 44.4375 18.0323L44.4375 13.1924C44.4375 11.2823 43.3242 10.1338 41.4609 10.1338L31.8516 10.1338L31.6289 8.21196C31.3594 5.89165 30.0586 4.71978 27.75 4.71978L23.0156 4.71978C19.2422 4.71978 16.9219 5.30571 14.3203 6.94634L9.52734 9.94634L5.15625 10.6143C1.60547 11.1534 0 12.6768 0 15.4307L0 18.0323C0 19.9424 1.125 21.0909 2.98828 21.0909ZM11.625 21.0909L30.7969 21.0909L30.7969 19.2042L11.625 19.2042ZM8.8125 23.7627C11.0625 23.7627 12.8203 22.0049 12.8203 19.7549C12.8203 17.5049 11.0625 15.7471 8.8125 15.7471C6.5625 15.7471 4.80469 17.5049 4.80469 19.7549C4.80469 22.0049 6.5625 23.7627 8.8125 23.7627ZM8.8125 21.876C7.61719 21.876 6.69141 20.9502 6.69141 19.7549C6.69141 18.5596 7.61719 17.6338 8.8125 17.6338C10.0078 17.6338 10.9336 18.5596 10.9336 19.7549C10.9336 20.9502 10.0078 21.876 8.8125 21.876ZM33.5508 23.7627C35.8008 23.7627 37.5586 22.0049 37.5586 19.7549C37.5586 17.5049 35.8008 15.7471 33.5508 15.7471C31.3008 15.7471 29.543 17.5049 29.543 19.7549C29.543 22.0049 31.3008 23.7627 33.5508 23.7627ZM33.5508 21.876C32.3555 21.876 31.4297 20.9502 31.4297 19.7549C31.4297 18.5596 32.3555 17.6338 33.5508 17.6338C34.7461 17.6338 35.6719 18.5596 35.6719 19.7549C35.6719 20.9502 34.7461 21.876 33.5508 21.876Z" fill="black" fill-opacity="0.85"/>
  <path d="M18.6562 22.8838C18.0234 22.8838 17.7539 23.3995 18.0938 23.9502L20.625 28.1104C20.9531 28.6495 21.5742 28.626 21.9023 28.1104L24.457 23.9502C24.7969 23.3995 24.5039 22.8838 23.8828 22.8838Z" fill="black" fill-opacity="0.85"/>
 </g>
</svg>
