<?xml version="1.0" encoding="UTF-8"?>
<!--Generator: Apple Native CoreSVG 360-->
<!DOCTYPE svg
PUBLIC "-//W3C//DTD SVG 1.1//EN"
       "http://www.w3.org/Graphics/SVG/1.1/DTD/svg11.dtd">
<svg version="1.1" xmlns="http://www.w3.org/2000/svg" xmlns:xlink="http://www.w3.org/1999/xlink" viewBox="0 0 44.7891 32.4492">
 <g>
  <rect height="32.4492" opacity="0" width="44.7891" x="0" y="0"/>
  <path d="M31.6289 10.1836L31.8516 12.1055L41.4609 12.1055C43.3242 12.1055 44.4375 13.2539 44.4375 15.1641L44.4375 20.0039C44.4375 21.9141 43.3242 23.0625 41.4609 23.0625L37.3347 23.0625C36.8003 24.6361 35.3293 25.7344 33.5508 25.7344C31.7723 25.7344 30.3013 24.6361 29.7669 23.0625L12.5964 23.0625C12.062 24.6361 10.591 25.7344 8.8125 25.7344C7.03399 25.7344 5.563 24.6361 5.02858 23.0625L2.98828 23.0625C1.125 23.0625 0 21.9141 0 20.0039L0 17.4023C0 14.6484 1.60547 13.125 5.15625 12.5859L9.52734 11.918L14.3203 8.91797C16.1077 7.79079 17.7623 7.16145 19.8467 6.878L19.9006 8.78817C18.1998 9.0533 16.8256 9.59607 15.3281 10.5234L10.1719 13.7344L5.40234 14.4609C2.95312 14.8359 1.88672 15.7266 1.88672 17.4023L1.88672 19.7695C1.88672 20.6602 2.33203 21.1758 3.09375 21.1758L4.84498 21.1758C5.10155 19.1954 6.7503 17.7188 8.8125 17.7188C10.8747 17.7188 12.5235 19.1954 12.78 21.1758L29.5833 21.1758C29.8398 19.1954 31.4886 17.7188 33.5508 17.7188C35.613 17.7188 37.2617 19.1954 37.5183 21.1758L41.3555 21.1758C42.1055 21.1758 42.5508 20.6602 42.5508 19.7695L42.5508 15.3984C42.5508 14.5195 42.1055 13.9922 41.3555 13.9922L30.1289 13.9922L29.7422 10.4414C29.6016 9.21094 28.8984 8.57812 27.6445 8.57812L25.2496 8.57813L25.3055 6.69141L27.75 6.69141C30.0586 6.69141 31.3594 7.86328 31.6289 10.1836ZM6.69141 21.7266C6.69141 22.9219 7.61719 23.8477 8.8125 23.8477C10.0078 23.8477 10.9336 22.9219 10.9336 21.7266C10.9336 20.5312 10.0078 19.6055 8.8125 19.6055C7.61719 19.6055 6.69141 20.5312 6.69141 21.7266ZM31.4297 21.7266C31.4297 22.9219 32.3555 23.8477 33.5508 23.8477C34.7461 23.8477 35.6719 22.9219 35.6719 21.7266C35.6719 20.5312 34.7461 19.6055 33.5508 19.6055C32.3555 19.6055 31.4297 20.5312 31.4297 21.7266Z" fill="black" fill-opacity="0.85"/>
  <path d="M22.5703 17.3555C23.4141 17.3555 24.1172 16.6641 24.1172 15.8672C24.1172 15.0586 23.4258 14.3906 22.5703 14.3906C21.7266 14.3906 21.0352 15.0586 21.0352 15.8672C21.0352 16.6641 21.7383 17.3555 22.5703 17.3555ZM22.5703 12.1523C23.1445 12.1523 23.5547 11.7422 23.5781 11.1445L23.8242 2.84766C23.8477 2.09766 23.3438 1.60547 22.5703 1.60547C21.8086 1.60547 21.3047 2.09766 21.3281 2.84766L21.5742 11.1445C21.5977 11.7422 21.9961 12.1523 22.5703 12.1523Z" fill="black" fill-opacity="0.85"/>
 </g>
</svg>
