<?xml version="1.0" encoding="UTF-8"?>
<!--Generator: Apple Native CoreSVG 360-->
<!DOCTYPE svg
PUBLIC "-//W3C//DTD SVG 1.1//EN"
       "http://www.w3.org/Graphics/SVG/1.1/DTD/svg11.dtd">
<svg version="1.1" xmlns="http://www.w3.org/2000/svg" xmlns:xlink="http://www.w3.org/1999/xlink" viewBox="0 0 39.4799 30.4825">
 <g>
  <rect height="30.4825" opacity="0" width="39.4799" x="0" y="0"/>
  <path d="M3.58565 29.8721C3.8669 30.3291 4.44112 30.4815 4.88643 30.2354L37.6755 11.3213C38.1208 11.0635 38.2849 10.501 38.0388 10.0557C37.7575 9.58695 37.1716 9.43461 36.738 9.6807L3.93721 28.6065C3.50362 28.8526 3.33956 29.4268 3.58565 29.8721Z" fill="black" fill-opacity="0.85"/>
  <path d="M4.95675 23.6495L7.15987 22.3838L6.39815 21.0596L4.26534 22.2901C3.738 22.5948 3.21065 22.4073 2.84737 21.7862L1.89815 20.1338C1.21846 18.9502 1.59346 17.8955 3.16378 16.6416L6.22237 14.2041L8.53096 9.85648C9.57393 7.92289 10.781 6.73929 13.1482 5.37992L16.3825 3.50492C17.2732 3.00101 18.0114 3.15336 18.6091 3.96195L20.32 6.29398L28.195 1.75883C28.7224 1.45414 29.2497 1.62992 29.613 2.25101L31.3825 5.32133C31.7341 5.94242 31.6286 6.48148 31.1013 6.79789L27.82 8.68461L28.5817 10.0088L31.945 8.07523C33.2458 7.32523 33.5622 6.05961 32.8005 4.72367L30.8317 1.32523C30.07-0.0107052 28.8044-0.362268 27.5036 0.387732L20.7653 4.27836L19.8278 3.01273C18.7028 1.50101 17.32 1.20804 15.6911 2.14554L12.3747 4.0557C9.72628 5.59086 8.34346 6.93851 7.17159 9.14164L5.03878 13.1846L2.238 15.4229C-0.0354419 17.251-0.551067 18.962 0.573933 20.8955L1.6169 22.712C2.39034 24.0596 3.64425 24.4112 4.95675 23.6495ZM11.0153 20.1573L24.4685 12.3877L23.695 11.0635L10.2536 18.833ZM10.1247 23.169C11.7067 22.2549 12.2224 20.3096 11.32 18.7393C10.406 17.1573 8.46065 16.6299 6.87862 17.544C5.29659 18.458 4.78096 20.4034 5.69503 21.9854C6.59737 23.5557 8.5544 24.083 10.1247 23.169ZM9.363 21.8448C8.53096 22.3252 7.49971 22.0557 7.01925 21.212C6.52706 20.3799 6.80831 19.3487 7.64034 18.8682C8.48409 18.3877 9.50362 18.6573 9.99581 19.501C10.4763 20.333 10.195 21.3643 9.363 21.8448ZM27.4802 13.1495C29.0505 12.2471 29.5778 10.2901 28.6638 8.71976C27.7614 7.13773 25.8044 6.62211 24.2341 7.52445C22.6521 8.43851 22.1364 10.3838 23.0388 11.9659C23.9528 13.5362 25.8982 14.0635 27.4802 13.1495ZM26.7185 11.8252C25.8747 12.3174 24.8435 12.0362 24.363 11.2041C23.8825 10.3604 24.1521 9.34086 24.9958 8.84867C25.8278 8.3682 26.8591 8.63773 27.3396 9.48148C27.8317 10.3135 27.5505 11.3448 26.7185 11.8252Z" fill="black" fill-opacity="0.85"/>
  <path d="M37.0661 29.3916C37.8044 29.3916 38.3552 29.0284 38.7067 28.4776C38.9294 28.1377 39.1286 27.587 39.1286 27.1885C39.1286 26.8252 38.8708 26.5791 38.4958 26.5791C38.2028 26.5791 37.9685 26.8018 37.8982 27.1182C37.7692 27.8096 37.5583 28.208 37.031 28.208C36.3864 28.208 36.0114 27.294 36.0114 25.6065C36.0114 23.9073 36.445 22.9932 37.031 22.9932C37.5114 22.9932 37.7927 23.4737 37.8747 24.0713C37.9333 24.4346 38.1794 24.6573 38.531 24.6573C38.8825 24.6573 39.0935 24.3995 39.0935 24.0362C39.0935 23.5791 38.8825 22.9346 38.4841 22.501C38.1208 22.0674 37.5935 21.8213 37.0192 21.8213C35.9997 21.8213 35.3786 22.4893 35.0505 23.251C34.7224 23.9776 34.6403 24.7862 34.6403 25.6065C34.6403 26.5557 34.7341 27.458 35.156 28.2315C35.5778 28.9932 36.2107 29.3916 37.0661 29.3916ZM24.6325 29.333C25.0427 29.333 25.3122 29.0635 25.3122 28.6416L25.3122 26.1104L27.1169 26.1104L27.1169 28.6416C27.1169 29.0635 27.3747 29.333 27.7966 29.333C28.2067 29.333 28.4646 29.0635 28.4646 28.6416L28.4646 22.5713C28.4646 22.1612 28.2067 21.8916 27.7966 21.8916C27.3747 21.8916 27.1169 22.1612 27.1169 22.5713L27.1169 24.9854L25.3122 24.9854L25.3122 22.5713C25.3122 22.1612 25.0427 21.8916 24.6325 21.8916C24.2341 21.8916 23.9646 22.1612 23.9646 22.5713L23.9646 28.6416C23.9646 29.0635 24.2341 29.333 24.6325 29.333ZM30.1286 29.333L31.4294 29.333C33.3396 29.333 33.9724 27.4932 33.9724 25.583C33.9724 23.5205 33.2458 21.8916 31.4294 21.8916L30.1286 21.8916C29.7302 21.8916 29.4489 22.126 29.4489 22.5948L29.4489 28.6299C29.4489 29.0987 29.7302 29.333 30.1286 29.333ZM30.7732 28.1963L30.7732 23.0284L31.2653 23.0284C32.4021 23.0284 32.613 24.458 32.613 25.5948C32.613 26.7432 32.4372 28.1963 31.2653 28.1963Z" fill="black" fill-opacity="0.85"/>
 </g>
</svg>
