<?xml version="1.0" encoding="UTF-8"?>
<!--Generator: Apple Native CoreSVG 360-->
<!DOCTYPE svg
PUBLIC "-//W3C//DTD SVG 1.1//EN"
       "http://www.w3.org/Graphics/SVG/1.1/DTD/svg11.dtd">
<svg version="1.1" xmlns="http://www.w3.org/2000/svg" xmlns:xlink="http://www.w3.org/1999/xlink" viewBox="0 0 44.7891 21.668">
 <g>
  <rect height="21.668" opacity="0" width="44.7891" x="0" y="0"/>
  <path d="M31.6289 4.79297L31.8516 6.71484L41.4609 6.71484C43.3242 6.71484 44.4375 7.86328 44.4375 9.77344L44.4375 14.6133C44.4375 16.5234 43.3242 17.6719 41.4609 17.6719L37.3347 17.6719C36.8003 19.2455 35.3293 20.3438 33.5508 20.3438C31.7723 20.3438 30.3013 19.2455 29.7669 17.6719L12.5964 17.6719C12.062 19.2455 10.591 20.3438 8.8125 20.3438C7.03399 20.3438 5.563 19.2455 5.02858 17.6719L2.98828 17.6719C1.125 17.6719 0 16.5234 0 14.6133L0 12.0117C0 9.25781 1.60547 7.73438 5.15625 7.19531L8.22995 6.72561L9.53677 8.4405L5.40234 9.07031C2.95312 9.44531 1.88672 10.3359 1.88672 12.0117L1.88672 14.3789C1.88672 15.2695 2.33203 15.7852 3.09375 15.7852L4.84498 15.7852C5.10155 13.8048 6.7503 12.3281 8.8125 12.3281C10.8747 12.3281 12.5235 13.8048 12.78 15.7852L29.5833 15.7852C29.8398 13.8048 31.4886 12.3281 33.5508 12.3281C35.613 12.3281 37.2617 13.8048 37.5183 15.7852L41.3555 15.7852C42.1055 15.7852 42.5508 15.2695 42.5508 14.3789L42.5508 10.0078C42.5508 9.12891 42.1055 8.60156 41.3555 8.60156L30.1289 8.60156L29.7422 5.05078C29.6016 3.82031 28.8984 3.1875 27.6445 3.1875L23.0156 3.1875C19.6523 3.1875 17.6367 3.70312 15.3281 5.13281L13.6279 6.1916L12.4754 4.68208L14.3203 3.52734C16.9219 1.88672 19.2422 1.30078 23.0156 1.30078L27.75 1.30078C30.0586 1.30078 31.3594 2.47266 31.6289 4.79297ZM6.69141 16.3359C6.69141 17.5312 7.61719 18.457 8.8125 18.457C10.0078 18.457 10.9336 17.5312 10.9336 16.3359C10.9336 15.1406 10.0078 14.2148 8.8125 14.2148C7.61719 14.2148 6.69141 15.1406 6.69141 16.3359ZM31.4297 16.3359C31.4297 17.5312 32.3555 18.457 33.5508 18.457C34.7461 18.457 35.6719 17.5312 35.6719 16.3359C35.6719 15.1406 34.7461 14.2148 33.5508 14.2148C32.3555 14.2148 31.4297 15.1406 31.4297 16.3359Z" fill="black" fill-opacity="0.85"/>
  <path d="M2.80078 3.25781L5.68359 3.25781C6.98438 3.25781 7.47656 3.48047 8.13281 4.33594L11.2852 8.49609C12.293 9.82031 13.418 10.3945 15.0586 10.3945L17.625 10.3945L17.625 11.4023C17.625 12.2227 18.3516 12.4688 18.9609 12.0703L21.9141 10.1719C22.4766 9.80859 22.4883 9.10547 21.9023 8.73047L18.9727 6.84375C18.3516 6.43359 17.625 6.67969 17.625 7.51172L17.625 8.50781L15.0586 8.50781C13.957 8.50781 13.5117 8.26172 12.7852 7.32422L9.60938 3.1875C8.625 1.88672 7.46484 1.37109 5.68359 1.37109L2.80078 1.37109C2.28516 1.37109 1.86328 1.79297 1.86328 2.30859C1.86328 2.82422 2.28516 3.25781 2.80078 3.25781Z" fill="black" fill-opacity="0.85"/>
 </g>
</svg>
