<?xml version="1.0" encoding="UTF-8"?>
<!--Generator: Apple Native CoreSVG 360-->
<!DOCTYPE svg
PUBLIC "-//W3C//DTD SVG 1.1//EN"
       "http://www.w3.org/Graphics/SVG/1.1/DTD/svg11.dtd">
<svg version="1.1" xmlns="http://www.w3.org/2000/svg" xmlns:xlink="http://www.w3.org/1999/xlink" viewBox="0 0 44.7891 35.5074">
 <g>
  <rect height="35.5074" opacity="0" width="44.7891" x="0" y="0"/>
  <path d="M11.9883 32.9939L32.5078 32.9939C32.8711 32.9939 33.1758 32.6775 33.1758 32.3025C33.1758 31.9392 32.8711 31.6346 32.5078 31.6346L11.9883 31.6346C11.6133 31.6346 11.3086 31.9392 11.3086 32.3025C11.3086 32.6775 11.6133 32.9939 11.9883 32.9939ZM13.7109 34.6463L13.7109 29.9588C13.7109 29.1502 12.9375 28.8572 12.2812 29.3494L9.14062 31.6814C8.71875 31.9978 8.70703 32.5955 9.14062 32.9236L12.2812 35.2674C12.9023 35.7361 13.7109 35.49 13.7109 34.6463ZM30.7852 34.6463C30.7852 35.4666 31.5703 35.7596 32.2148 35.2674L35.3555 32.9236C35.7891 32.5955 35.7773 31.9861 35.3555 31.6814L32.2148 29.3494C31.5703 28.8572 30.7852 29.1502 30.7852 29.9588Z" fill="black" fill-opacity="0.85"/>
  <path d="M2.98828 24.5916L6.12891 24.5916L6.12891 22.7049L3.09375 22.7049C2.33203 22.7049 1.88672 22.1892 1.88672 21.2986L1.88672 18.9314C1.88672 17.2556 2.95312 16.365 5.40234 15.99L10.1719 15.2635L15.3281 12.0525C17.6367 10.6228 19.6523 10.1072 23.0156 10.1072L27.6445 10.1072C28.8984 10.1072 29.6016 10.74 29.7422 11.9705L30.1289 15.5213L41.3555 15.5213C42.1055 15.5213 42.5508 16.0486 42.5508 16.9275L42.5508 21.2986C42.5508 22.1892 42.1055 22.7049 41.3555 22.7049L36.6797 22.7049L36.6797 24.5916L41.4609 24.5916C43.3242 24.5916 44.4375 23.4431 44.4375 21.533L44.4375 16.6931C44.4375 14.783 43.3242 13.6346 41.4609 13.6346L31.8516 13.6346L31.6289 11.7127C31.3594 9.39237 30.0586 8.22049 27.75 8.22049L23.0156 8.22049C19.2422 8.22049 16.9219 8.80643 14.3203 10.4471L9.52734 13.4471L5.15625 14.115C1.60547 14.6541 0 16.1775 0 18.9314L0 21.533C0 23.4431 1.125 24.5916 2.98828 24.5916ZM11.625 24.5916L30.7969 24.5916L30.7969 22.7049L11.625 22.7049ZM8.8125 27.2635C11.0625 27.2635 12.8203 25.5056 12.8203 23.2556C12.8203 21.0056 11.0625 19.2478 8.8125 19.2478C6.5625 19.2478 4.80469 21.0056 4.80469 23.2556C4.80469 25.5056 6.5625 27.2635 8.8125 27.2635ZM8.8125 25.3767C7.61719 25.3767 6.69141 24.451 6.69141 23.2556C6.69141 22.0603 7.61719 21.1346 8.8125 21.1346C10.0078 21.1346 10.9336 22.0603 10.9336 23.2556C10.9336 24.451 10.0078 25.3767 8.8125 25.3767ZM33.5508 27.2635C35.8008 27.2635 37.5586 25.5056 37.5586 23.2556C37.5586 21.0056 35.8008 19.2478 33.5508 19.2478C31.3008 19.2478 29.543 21.0056 29.543 23.2556C29.543 25.5056 31.3008 27.2635 33.5508 27.2635ZM33.5508 25.3767C32.3555 25.3767 31.4297 24.451 31.4297 23.2556C31.4297 22.0603 32.3555 21.1346 33.5508 21.1346C34.7461 21.1346 35.6719 22.0603 35.6719 23.2556C35.6719 24.451 34.7461 25.3767 33.5508 25.3767Z" fill="black" fill-opacity="0.85"/>
 </g>
</svg>
