<?xml version="1.0" encoding="UTF-8"?>
<!--Generator: Apple Native CoreSVG 360-->
<!DOCTYPE svg
PUBLIC "-//W3C//DTD SVG 1.1//EN"
       "http://www.w3.org/Graphics/SVG/1.1/DTD/svg11.dtd">
<svg version="1.1" xmlns="http://www.w3.org/2000/svg" xmlns:xlink="http://www.w3.org/1999/xlink" viewBox="0 0 21.5508 21.1758">
 <g>
  <rect height="21.1758" opacity="0" width="21.5508" x="0" y="0"/>
  <path d="M21.1992 2.33203L21.1992 0.375C19.3945 0.761719 17.8242 1.42969 16.1602 2.47266L10.7578 5.87109L5.80078 6.60938C1.81641 7.20703 0.105469 8.85938 0.105469 11.918L0.105469 14.8359C0.105469 16.9336 1.30078 18.1641 3.35156 18.1641L6.77344 18.1641L6.77344 16.2773L3.46875 16.2773C2.54297 16.2773 2.00391 15.6211 2.00391 14.5781L2.00391 11.918C2.00391 9.97266 3.24609 8.91797 6.04688 8.49609L11.3906 7.6875L17.168 4.08984C18.5039 3.25781 19.7695 2.68359 21.1992 2.33203ZM21.1992 18.1641L21.1992 16.2773L13.1836 16.2773L13.1836 18.1641ZM9.91406 21.1758C12.3867 21.1758 14.2969 19.2656 14.2969 16.7812C14.2969 14.3086 12.3867 12.3984 9.91406 12.3984C7.41797 12.3984 5.50781 14.3086 5.50781 16.7812C5.50781 19.2656 7.41797 21.1758 9.91406 21.1758ZM9.91406 19.2773C8.50781 19.2773 7.40625 18.1875 7.40625 16.7812C7.40625 15.375 8.50781 14.2852 9.91406 14.2852C11.3086 14.2852 12.4102 15.375 12.4102 16.7812C12.4102 18.1875 11.3086 19.2773 9.91406 19.2773ZM0.867188 1.6875L4.72266 1.6875C5.16797 1.6875 5.50781 1.79297 5.77734 2.07422L10.6172 6.90234L12.2109 6.02344L7.14844 0.960938C6.46875 0.28125 5.57812 0 4.52344 0L0.867188 0C0.328125 0 0 0.328125 0 0.832031C0 1.33594 0.328125 1.6875 0.867188 1.6875Z" fill="black" fill-opacity="0.85"/>
 </g>
</svg>
