<?xml version="1.0" encoding="UTF-8"?>
<!--Generator: Apple Native CoreSVG 360-->
<!DOCTYPE svg
PUBLIC "-//W3C//DTD SVG 1.1//EN"
       "http://www.w3.org/Graphics/SVG/1.1/DTD/svg11.dtd">
<svg version="1.1" xmlns="http://www.w3.org/2000/svg" xmlns:xlink="http://www.w3.org/1999/xlink" viewBox="0 0 42.2122 31.4125">
 <g>
  <rect height="31.4125" opacity="0" width="42.2122" x="0" y="0"/>
  <path d="M10.3014 23.6574L12.5045 22.3801L11.7428 21.0559L9.60999 22.2863C9.07093 22.6027 8.5553 22.4152 8.19202 21.7941L7.23109 20.1301C6.5514 18.9582 6.93812 17.9035 8.50843 16.6496L11.567 14.2004L13.8756 9.86446C14.9186 7.93086 16.1256 6.74727 18.4811 5.38789L21.7272 3.51289C22.6061 2.99727 23.3561 3.16133 23.9537 3.96992L25.6647 6.30196L33.5397 1.75508C34.067 1.45039 34.5944 1.63789 34.9459 2.25899L36.7155 5.31758C37.0787 5.93867 36.9733 6.48946 36.4459 6.79414L33.1647 8.69258L33.9264 10.0168L37.2897 8.07149C38.5905 7.32149 38.9069 6.05586 38.1334 4.71992L36.1764 1.33321C35.403-0.0144507 34.1491-0.366013 32.8483 0.395706L26.11 4.28633L25.1725 3.02071C24.0475 1.49727 22.6647 1.2043 21.0358 2.1418L17.7194 4.06367C15.0709 5.58711 13.6881 6.93477 12.5162 9.13789L10.3717 13.1926L7.58265 15.4309C5.30921 17.2473 4.79359 18.9699 5.90687 20.9035L6.96155 22.7199C7.73499 24.0559 8.9889 24.4074 10.3014 23.6574ZM16.36 20.1652L29.8131 12.3957L29.0397 11.0715L15.5983 18.841ZM15.4694 23.177C17.0514 22.2629 17.567 20.3176 16.653 18.7355C15.7506 17.1652 13.8053 16.6379 12.2233 17.552C10.6412 18.4543 10.1256 20.4113 11.0397 21.9816C11.942 23.5637 13.8873 24.0793 15.4694 23.177ZM14.7076 21.8527C13.8639 22.3332 12.8444 22.0637 12.3522 21.2199C11.8717 20.3879 12.153 19.3566 12.985 18.8762C13.8287 18.384 14.8483 18.6652 15.3405 19.4973C15.8209 20.341 15.5397 21.3723 14.7076 21.8527ZM32.8248 13.1574C34.3951 12.2434 34.9225 10.298 34.0084 8.71602C33.0944 7.14571 31.1491 6.61836 29.5787 7.53242C27.9967 8.44649 27.4694 10.3918 28.3834 11.9621C29.2975 13.5441 31.2428 14.0715 32.8248 13.1574ZM32.0514 11.8332C31.2194 12.3137 30.1881 12.0441 29.7076 11.2004C29.2272 10.3684 29.4967 9.33711 30.3405 8.85664C31.1725 8.37617 32.2037 8.64571 32.6842 9.48946C33.1647 10.3215 32.8951 11.3527 32.0514 11.8332Z" fill="black" fill-opacity="0.85"/>
  <path d="M7.3014 30.7941C7.58265 31.2629 8.15687 31.4152 8.60218 31.1691L41.3912 12.2434C41.8366 11.9973 42.0006 11.423 41.7428 10.9777C41.4733 10.509 40.8873 10.3684 40.442 10.6145L7.65296 29.5285C7.21937 29.7863 7.0553 30.3605 7.3014 30.7941Z" fill="black" fill-opacity="0.85"/>
  <path d="M5.27405 25.052L2.81312 20.7863C2.40296 20.0715 1.58265 20.2473 1.34827 20.9504L0.0592105 24.5598C-0.116571 25.0637 0.106086 25.4621 0.633429 25.5559L4.39515 26.2473C5.13343 26.3879 5.68421 25.7668 5.27405 25.052Z" fill="black" fill-opacity="0.85"/>
 </g>
</svg>
