<?xml version="1.0" encoding="UTF-8"?>
<!--Generator: Apple Native CoreSVG 360-->
<!DOCTYPE svg
PUBLIC "-//W3C//DTD SVG 1.1//EN"
       "http://www.w3.org/Graphics/SVG/1.1/DTD/svg11.dtd">
<svg version="1.1" xmlns="http://www.w3.org/2000/svg" xmlns:xlink="http://www.w3.org/1999/xlink" viewBox="0 0 47.5195 34.7695">
 <g>
  <rect height="34.7695" opacity="0" width="47.5195" x="0" y="0"/>
  <path d="M19.9265 6.26193C19.3938 6.5875 18.9103 6.91259 18.4687 7.24542C18.3459 6.02887 17.891 4.92472 17.1896 4.02615L16.3711 4.85156C16.0664 5.14453 15.5859 5.14453 15.2812 4.85156C14.9766 4.54688 14.9883 4.06641 15.2812 3.77344L16.1139 2.94081C15.2394 2.24745 14.1677 1.79079 12.9844 1.65565L12.9844 2.76562C12.9844 3.17578 12.6211 3.52734 12.2109 3.52734C11.8008 3.52734 11.4609 3.17578 11.4609 2.76562L11.4609 1.65215C10.2715 1.78435 9.19369 2.24057 8.31471 2.9358L9.15234 3.77344C9.44531 4.06641 9.44531 4.54688 9.15234 4.85156C8.84766 5.14453 8.35547 5.14453 8.0625 4.85156L7.23431 4.02337C6.40447 5.08718 5.91797 6.43753 5.91797 7.92188C5.91797 9.5625 6.55078 11.0742 7.45312 12.0352C7.65234 12.2344 7.72266 12.4219 7.72266 12.6211C7.72266 13.0547 7.37109 13.418 6.92578 13.418C6.67969 13.418 6.44531 13.2773 6.26953 13.0898C5.07422 11.7773 4.3125 9.91406 4.3125 7.92188C4.3125 3.59766 7.89844 0 12.2109 0C15.9565 0 19.154 2.71393 19.9265 6.26193ZM0.609375 6.11719L2.84766 7.61719C3.16406 7.81641 3.14062 8.12109 2.85938 8.32031L0.585938 9.82031C0.328125 10.0078 0 9.86719 0 9.51562L0 6.44531C0.0117188 6.08203 0.339844 5.95312 0.609375 6.11719ZM13.4766 8.0625C13.4883 8.78906 12.9727 9.35156 12.2109 9.38672C12.0938 9.375 11.8477 9.36328 11.6953 9.33984L7.6875 8.70703C7.42969 8.66016 7.30078 8.50781 7.28906 8.32031C7.27734 8.14453 7.39453 7.95703 7.62891 7.89844L11.5547 6.92578C11.7188 6.87891 11.9766 6.83203 12.1289 6.80859C12.8438 6.78516 13.418 7.3125 13.4766 8.0625Z" fill="black" fill-opacity="0.85"/>
  <path d="M12.5977 33.0586C12.8789 33.5273 13.4531 33.668 13.8984 33.4219L46.6992 14.5078C47.1328 14.25 47.2969 13.6875 47.0508 13.2422C46.7695 12.7734 46.1836 12.6211 45.75 12.8672L12.9492 31.793C12.5156 32.0391 12.3516 32.6133 12.5977 33.0586Z" fill="black" fill-opacity="0.85"/>
  <path d="M13.9688 26.8477L16.1719 25.5703L15.4102 24.2461L13.2773 25.4766C12.75 25.7812 12.2227 25.5938 11.8594 24.9727L10.9102 23.3203C10.2305 22.1484 10.6172 21.082 12.1758 19.8398L15.2344 17.3906L17.5547 13.0547C18.5859 11.1094 19.793 9.9375 22.1602 8.56641L25.4062 6.69141C26.2852 6.1875 27.0234 6.33984 27.6211 7.14844L29.3438 9.49219L37.207 4.94531C37.7344 4.64062 38.2617 4.81641 38.625 5.4375L40.3945 8.50781C40.7461 9.12891 40.6523 9.67969 40.1133 9.98438L36.8438 11.8711L37.6055 13.1953L40.957 11.2617C42.2578 10.5117 42.5859 9.24609 41.8125 7.91016L39.8555 4.51172C39.082 3.17578 37.8281 2.82422 36.5156 3.57422L29.7773 7.46484L28.8398 6.19922C27.7148 4.6875 26.332 4.39453 24.7148 5.33203L21.3984 7.24219C18.7383 8.77734 17.3555 10.125 16.1953 12.3281L14.0508 16.3711L11.25 18.6211C8.97656 20.4375 8.47266 22.1484 9.58594 24.082L10.6406 25.9102C11.4141 27.2461 12.668 27.5977 13.9688 26.8477ZM20.0273 23.3438L33.4805 15.5742L32.7188 14.25L19.2656 22.0195ZM19.1367 26.3555C20.7188 25.4531 21.2461 23.4961 20.332 21.9258C19.418 20.3438 17.4727 19.8281 15.8906 20.7305C14.3203 21.6445 13.793 23.5898 14.707 25.1719C15.6211 26.7422 17.5664 27.2695 19.1367 26.3555ZM18.375 25.0312C17.543 25.5234 16.5117 25.2422 16.0312 24.4102C15.5508 23.5664 15.8203 22.5469 16.6641 22.0547C17.4961 21.5742 18.5273 21.8438 19.0078 22.6875C19.4883 23.5195 19.2188 24.5508 18.375 25.0312ZM36.4922 16.3359C38.0742 15.4336 38.5898 13.4883 37.6875 11.9062C36.7734 10.3242 34.8281 9.80859 33.2461 10.7109C31.6641 11.625 31.1484 13.5703 32.0625 15.1523C32.9648 16.7344 34.9102 17.25 36.4922 16.3359ZM35.7305 15.0117C34.8867 15.5039 33.8672 15.2227 33.3867 14.3906C32.8945 13.5469 33.1758 12.5273 34.0078 12.0352C34.8516 11.5547 35.8711 11.8359 36.3633 12.668C36.8438 13.5117 36.5625 14.5312 35.7305 15.0117Z" fill="black" fill-opacity="0.85"/>
 </g>
</svg>
