<?xml version="1.0" encoding="UTF-8"?>
<!--Generator: Apple Native CoreSVG 360-->
<!DOCTYPE svg
PUBLIC "-//W3C//DTD SVG 1.1//EN"
       "http://www.w3.org/Graphics/SVG/1.1/DTD/svg11.dtd">
<svg version="1.1" xmlns="http://www.w3.org/2000/svg" xmlns:xlink="http://www.w3.org/1999/xlink" viewBox="0 0 40.8559 30.8147">
 <g>
  <rect height="30.8147" opacity="0" width="40.8559" x="0" y="0"/>
  <path d="M7.80686 9.46008L10.01 10.7374L10.7717 9.41321L8.63889 8.18274C8.11155 7.87805 8.00608 7.32727 8.36936 6.70618L9.31858 5.05383C9.99827 3.88196 11.1115 3.68274 12.9748 4.4093L16.6194 5.83899L21.5412 5.67493C23.7326 5.5929 25.3615 6.06165 27.7287 7.42102L30.9631 9.29602C31.8537 9.79993 32.0881 10.5265 31.6897 11.4406L30.5178 14.1007L38.3928 18.6476C38.9201 18.9523 39.0256 19.4913 38.6623 20.1124L36.8928 23.1827C36.5412 23.8038 36.0139 23.9913 35.4865 23.6866L32.2053 21.7882L31.4319 23.1124L34.7951 25.046C36.0959 25.796 37.3498 25.4445 38.1233 24.1085L40.0803 20.7218C40.8537 19.3741 40.5373 18.1202 39.2248 17.3585L32.4865 13.4679L33.1076 12.0265C33.8694 10.2921 33.424 8.94446 31.8069 8.00696L28.4905 6.0968C25.8303 4.56165 23.9787 4.04602 21.4826 4.12805L16.9123 4.30383L13.5725 3.00305C10.8537 1.93665 9.11936 2.35852 8.00608 4.29211L6.95139 6.10852C6.17795 7.44446 6.49436 8.71008 7.80686 9.46008ZM13.8655 12.964L27.3186 20.7335L28.0803 19.4093L14.6272 11.6398ZM10.8069 13.7023C12.3889 14.6163 14.3342 14.089 15.2483 12.5187C16.1506 10.9366 15.635 8.99133 14.053 8.07727C12.4826 7.16321 10.5373 7.69055 9.62327 9.27258C8.7092 10.8429 9.23655 12.7882 10.8069 13.7023ZM11.5686 12.3781C10.7365 11.8976 10.4553 10.8663 10.9475 10.0343C11.428 9.19055 12.4592 8.92102 13.2912 9.40149C14.135 9.88196 14.4045 10.9132 13.924 11.7452C13.4436 12.589 12.4123 12.8585 11.5686 12.3781ZM28.1623 23.7218C29.7444 24.6359 31.6897 24.1085 32.592 22.5382C33.5061 20.9562 32.9905 19.0109 31.4084 18.0968C29.8264 17.1827 27.8811 17.7101 26.967 19.2804C26.0647 20.8624 26.5803 22.8077 28.1623 23.7218ZM28.924 22.3976C28.092 21.9171 27.8108 20.8859 28.2912 20.0538C28.7834 19.2101 29.803 18.9406 30.6467 19.421C31.4787 19.9015 31.76 20.9327 31.2678 21.7648C30.7873 22.6085 29.7678 22.8781 28.924 22.3976Z" fill="black" fill-opacity="0.85"/>
  <path d="M0.13108 10.4445C-0.138452 10.9132 0.025611 11.4874 0.459205 11.7452L33.2483 30.6945C33.6701 30.9406 34.2561 30.7999 34.5139 30.3546C34.7834 29.8859 34.6194 29.3116 34.1858 29.0538L1.3967 10.1046C0.97483 9.85852 0.377173 10.0109 0.13108 10.4445Z" fill="black" fill-opacity="0.85"/>
  <path d="M4.09202 5.81555L6.56467 1.54993C6.97483 0.846802 6.40061 0.21399 5.67405 0.354615L1.90061 1.04602C1.38499 1.13977 1.15061 1.53821 1.33811 2.04211L2.61545 5.65149C2.86155 6.35461 3.68186 6.5304 4.09202 5.81555Z" fill="black" fill-opacity="0.85"/>
 </g>
</svg>
