<?xml version="1.0" encoding="UTF-8"?>
<!--Generator: Apple Native CoreSVG 360-->
<!DOCTYPE svg
PUBLIC "-//W3C//DTD SVG 1.1//EN"
       "http://www.w3.org/Graphics/SVG/1.1/DTD/svg11.dtd">
<svg version="1.1" xmlns="http://www.w3.org/2000/svg" xmlns:xlink="http://www.w3.org/1999/xlink" viewBox="0 0 41.6836 30.9258">
 <g>
  <rect height="30.9258" opacity="0" width="41.6836" x="0" y="0"/>
  <path d="M2.77734 22.4883L5.48438 22.4883L5.48438 20.5898L2.87109 20.5898C2.23828 20.5898 1.89844 20.2031 1.89844 19.418L1.89844 17.2266C1.89844 15.7266 2.8125 14.9531 5.05078 14.625L9.51562 13.957L14.332 10.9453C16.4531 9.63281 18.293 9.15234 21.3984 9.15234L25.7109 9.15234C26.8242 9.15234 27.3867 9.65625 27.5156 10.7578L27.9023 14.1914L38.4609 14.1914C39.0938 14.1914 39.4453 14.5781 39.4453 15.3633L39.4453 19.418C39.4453 20.2031 39.0938 20.5898 38.4609 20.5898L33.668 20.5898L33.668 22.4883L38.5547 22.4883C40.2891 22.4883 41.332 21.4219 41.332 19.6406L41.332 15.1406C41.332 13.3711 40.2891 12.293 38.5547 12.293L29.6133 12.293L29.4141 10.5C29.168 8.34375 27.9609 7.26562 25.8047 7.26562L21.3984 7.26562C17.8945 7.26562 15.75 7.80469 13.3125 9.32812L8.85938 12.1289L4.80469 12.75C1.5 13.2656 0 14.6719 0 17.2266L0 19.6406C0 21.4219 1.04297 22.4883 2.77734 22.4883ZM8.19141 24.9727C10.2891 24.9727 11.9297 23.3438 11.9297 21.2461C11.9297 19.1484 10.2891 17.5195 8.19141 17.5195C6.10547 17.5195 4.47656 19.1484 4.47656 21.2461C4.47656 23.3438 6.10547 24.9727 8.19141 24.9727ZM8.19141 23.0742C7.14844 23.0742 6.36328 22.2891 6.36328 21.2461C6.36328 20.1914 7.14844 19.4062 8.19141 19.4062C9.24609 19.4062 10.0312 20.1914 10.0312 21.2461C10.0312 22.2891 9.24609 23.0742 8.19141 23.0742ZM10.8281 22.4883L28.5117 22.4883L28.5117 20.5898L10.8281 20.5898ZM31.207 24.9727C33.293 24.9727 34.9219 23.3438 34.9219 21.2461C34.9219 19.1484 33.293 17.5195 31.207 17.5195C29.1211 17.5195 27.4688 19.1484 27.4688 21.2461C27.4688 23.3438 29.1211 24.9727 31.207 24.9727ZM31.207 23.0742C30.1523 23.0742 29.3672 22.2891 29.3672 21.2461C29.3672 20.1914 30.1523 19.4062 31.207 19.4062C32.25 19.4062 33.0352 20.1914 33.0352 21.2461C33.0352 22.2891 32.25 23.0742 31.207 23.0742Z" fill="black" fill-opacity="0.85"/>
  <path d="M17.5312 5.50781L27.5625 5.50781C28.5 5.50781 29.0156 4.89844 29.0156 3.94922L29.0156 2.625C29.0156 0.867188 28.1484 0 26.1797 0L25.1133 0C23.2031 0 22.0547 0.257812 19.8164 1.48828L17.2148 3.03516C16.5 3.43359 16.2305 3.80859 16.2305 4.3125C16.2305 5.08594 16.6172 5.50781 17.5312 5.50781Z" fill="black" fill-opacity="0.85"/>
 </g>
</svg>
