<?xml version="1.0" encoding="UTF-8"?>
<!--Generator: Apple Native CoreSVG 360-->
<!DOCTYPE svg
PUBLIC "-//W3C//DTD SVG 1.1//EN"
       "http://www.w3.org/Graphics/SVG/1.1/DTD/svg11.dtd">
<svg version="1.1" xmlns="http://www.w3.org/2000/svg" xmlns:xlink="http://www.w3.org/1999/xlink" viewBox="0 0 28.582 23.4085">
 <g>
  <rect height="23.4085" opacity="0" width="28.582" x="0" y="0"/>
  <path d="M28.2305 14.0539C28.2305 6.67105 22.5586 0.612457 15.3398 0.00308175C14.9648-0.0320745 14.6836 0.237457 14.6836 0.612457L14.6836 4.44449C14.6836 4.76089 14.9062 5.00699 15.2227 5.03043C19.7109 5.58121 23.2031 9.41324 23.2031 14.0539C23.2031 16.1632 22.4766 18.1086 21.1992 19.7375C21.0352 19.9367 21.0469 20.1945 21.2227 20.382L24.0234 23.1711C24.2812 23.4289 24.6797 23.4289 24.9141 23.1476C26.9883 20.6867 28.2305 17.5109 28.2305 14.0539Z" fill="black" fill-opacity="0.85"/>
  <path d="M0 14.0539C0 17.5226 1.24219 20.6984 3.31641 23.1593C3.55078 23.4406 3.9375 23.4289 4.20703 23.1711L7.00781 20.382C7.18359 20.1945 7.19531 19.9367 7.03125 19.7375C5.74219 18.1086 5.02734 16.1632 5.02734 14.0539C5.02734 9.41324 8.51953 5.58121 13.0078 5.03043C13.3242 5.00699 13.5469 4.76089 13.5469 4.44449L13.5469 0.612457C13.5469 0.237457 13.2656-0.0320745 12.8906 0.00308175C5.67188 0.612457 0 6.67105 0 14.0539Z" fill="black" fill-opacity="0.85"/>
  <path d="M14.0977 19.7961C14.5312 19.7961 14.7773 19.55 14.7773 19.1164L14.7773 10.3976L17.625 10.3976C18.0117 10.3976 18.2695 10.1281 18.2695 9.78824C18.2695 9.42496 18 9.19058 17.625 9.19058L10.5703 9.19058C10.1836 9.19058 9.92578 9.42496 9.92578 9.78824C9.92578 10.1515 10.1953 10.3976 10.5703 10.3976L13.418 10.3976L13.418 19.1164C13.418 19.55 13.6758 19.7961 14.0977 19.7961ZM11.5898 15.4484C11.6602 15.4484 11.7305 15.4367 11.8125 15.4015L16.7109 13.4211C16.8984 13.339 16.9922 13.2218 16.9922 13.0343C16.9922 12.7648 16.8164 12.6476 16.6172 12.6476C16.5469 12.6476 16.4766 12.6711 16.3945 12.6945L11.4844 14.675C11.2969 14.757 11.2031 14.8859 11.2031 15.0617C11.2031 15.2726 11.3555 15.4484 11.5898 15.4484ZM11.5898 17.7453C11.6602 17.7453 11.7305 17.7336 11.8125 17.7101L16.7109 15.7296C16.8984 15.6476 16.9922 15.5304 16.9922 15.3429C16.9922 15.0734 16.8164 14.9562 16.6172 14.9562C16.5469 14.9562 16.4766 14.9679 16.3945 14.9914L11.4844 16.9718C11.2969 17.0539 11.2031 17.1945 11.2031 17.3586C11.2031 17.5812 11.3555 17.7453 11.5898 17.7453Z" fill="black" fill-opacity="0.85"/>
 </g>
</svg>
