<?xml version="1.0" encoding="UTF-8"?>
<!--Generator: Apple Native CoreSVG 360-->
<!DOCTYPE svg
PUBLIC "-//W3C//DTD SVG 1.1//EN"
       "http://www.w3.org/Graphics/SVG/1.1/DTD/svg11.dtd">
<svg version="1.1" xmlns="http://www.w3.org/2000/svg" xmlns:xlink="http://www.w3.org/1999/xlink" viewBox="0 0 26.5195 25.0195">
 <g>
  <rect height="25.0195" opacity="0" width="26.5195" x="0" y="0"/>
  <path d="M1.55859 22.2188L24.6094 22.2188L24.6094 21.4336C24.6094 20.9648 24.3398 20.6836 23.8594 20.6836L23.1094 20.6836L23.1094 8.03906L24.1406 8.03906C24.7852 8.03906 25.1602 7.57031 25.1602 7.08984C25.1602 6.73828 24.9609 6.43359 24.5273 6.1875L14.5195 0.410156C14.0508 0.140625 13.5586 0 13.0781 0C12.5977 0 12.0938 0.140625 11.6484 0.410156L1.64062 6.1875C1.19531 6.43359 1.00781 6.73828 1.00781 7.08984C1.00781 7.57031 1.38281 8.03906 2.02734 8.03906L3.05859 8.03906L3.05859 20.6836L2.32031 20.6836C1.83984 20.6836 1.55859 20.9648 1.55859 21.4336ZM4.82812 20.6836L4.82812 6.53906L12.6211 2.16797C12.7617 2.08594 12.9258 2.03906 13.0781 2.03906C13.2305 2.03906 13.3945 2.08594 13.5469 2.16797L21.3398 6.53906L21.3398 20.6836ZM0.9375 25.0078L25.2188 25.0078C25.7344 25.0078 26.168 24.5742 26.168 24.0586C26.168 23.543 25.7344 23.1211 25.2188 23.1211L0.9375 23.1211C0.421875 23.1211 0 23.543 0 24.0586C0 24.5742 0.421875 25.0078 0.9375 25.0078Z" fill="black" fill-opacity="0.85"/>
  <path d="M13.0898 17.918C13.5234 17.918 13.7695 17.6719 13.7695 17.2383L13.7695 8.51953L16.6172 8.51953C17.0039 8.51953 17.2617 8.25 17.2617 7.91016C17.2617 7.54688 16.9922 7.3125 16.6172 7.3125L9.5625 7.3125C9.17578 7.3125 8.91797 7.54688 8.91797 7.91016C8.91797 8.27344 9.1875 8.51953 9.5625 8.51953L12.3984 8.51953L12.3984 17.2383C12.3984 17.6719 12.668 17.918 13.0898 17.918ZM10.582 13.5703C10.6406 13.5703 10.7227 13.5586 10.793 13.5234L15.6914 11.543C15.8906 11.4609 15.9844 11.3438 15.9844 11.1562C15.9844 10.8867 15.8086 10.7695 15.6094 10.7695C15.5391 10.7695 15.4688 10.793 15.3867 10.8164L10.4766 12.7969C10.2891 12.8789 10.1953 13.0078 10.1953 13.1836C10.1953 13.3945 10.3477 13.5703 10.582 13.5703ZM10.582 15.8672C10.6406 15.8672 10.7227 15.8555 10.793 15.832L15.6914 13.8516C15.8906 13.7695 15.9844 13.6523 15.9844 13.4648C15.9844 13.1953 15.8086 13.0781 15.6094 13.0781C15.5391 13.0781 15.4688 13.0898 15.3867 13.1133L10.4766 15.0938C10.2891 15.1758 10.1953 15.3164 10.1953 15.4805C10.1953 15.7031 10.3477 15.8672 10.582 15.8672Z" fill="black" fill-opacity="0.85"/>
 </g>
</svg>
