<?xml version="1.0" encoding="UTF-8"?>
<!--Generator: Apple Native CoreSVG 360-->
<!DOCTYPE svg
PUBLIC "-//W3C//DTD SVG 1.1//EN"
       "http://www.w3.org/Graphics/SVG/1.1/DTD/svg11.dtd">
<svg version="1.1" xmlns="http://www.w3.org/2000/svg" xmlns:xlink="http://www.w3.org/1999/xlink" viewBox="0 0 16.7578 21.293">
 <g>
  <rect height="21.293" opacity="0" width="16.7578" x="0" y="0"/>
  <path d="M8.20312 21.293C8.89453 21.293 9.36328 20.8125 9.36328 20.1211L9.36328 2.13281L15.3047 2.13281C15.9492 2.13281 16.4062 1.6875 16.4062 1.07812C16.4062 0.480469 15.9492 0.046875 15.3047 0.046875L1.11328 0.046875C0.46875 0.046875 0 0.480469 0 1.07812C0 1.6875 0.46875 2.13281 1.11328 2.13281L7.05469 2.13281L7.05469 20.1211C7.05469 20.8125 7.52344 21.293 8.20312 21.293ZM3.28125 12.4805C3.42188 12.4805 3.5625 12.457 3.71484 12.3867L13.3242 8.4375C13.6992 8.28516 13.8867 8.02734 13.8867 7.66406C13.8867 7.27734 13.6289 6.9375 13.1484 6.9375C13.0195 6.9375 12.8672 6.97266 12.7031 7.03125L3.09375 10.9805C2.73047 11.1211 2.55469 11.3789 2.55469 11.7422C2.55469 12.1641 2.85938 12.4805 3.28125 12.4805ZM3.28125 17.1328C3.42188 17.1328 3.5625 17.1094 3.71484 17.0391L13.3242 13.0781C13.6992 12.9258 13.8867 12.668 13.8867 12.3164C13.8867 11.9297 13.6289 11.5898 13.1484 11.5898C13.0195 11.5898 12.8672 11.6133 12.7031 11.6836L3.09375 15.6328C2.73047 15.7734 2.55469 16.0312 2.55469 16.3945C2.55469 16.8164 2.85938 17.1328 3.28125 17.1328Z" fill="black" fill-opacity="0.85"/>
 </g>
</svg>
