<?xml version="1.0" encoding="UTF-8"?>
<!--Generator: Apple Native CoreSVG 360-->
<!DOCTYPE svg
PUBLIC "-//W3C//DTD SVG 1.1//EN"
       "http://www.w3.org/Graphics/SVG/1.1/DTD/svg11.dtd">
<svg version="1.1" xmlns="http://www.w3.org/2000/svg" xmlns:xlink="http://www.w3.org/1999/xlink" viewBox="0 0 28.582 23.5195">
 <g>
  <rect height="23.5195" opacity="0" width="28.582" x="0" y="0"/>
  <path d="M28.2305 14.1094C28.2305 10.6641 26.9883 7.48828 24.9141 5.02734C24.6797 4.74609 24.2812 4.74609 24.0234 5.01562L21.3047 7.73438C21.082 7.95703 21.0703 8.27344 21.2695 8.51953C22.4766 10.0664 23.2031 12.0117 23.2031 14.1094C23.2031 16.2188 22.4766 18.1641 21.1992 19.793C21.0352 19.9922 21.0469 20.25 21.2227 20.4375L24.0117 23.2266C24.2812 23.4961 24.668 23.4961 24.9141 23.2031C26.9883 20.7422 28.2305 17.5664 28.2305 14.1094Z" fill="black" fill-opacity="0.85"/>
  <path d="M14.1094 5.02734C16.2305 5.02734 18.1758 5.76562 19.7344 6.97266C19.9688 7.16016 20.2734 7.13672 20.4961 6.91406L23.2148 4.19531C23.4844 3.92578 23.4727 3.53906 23.1914 3.30469C20.7422 1.24219 17.5664 0 14.1094 0C10.6641 0 7.48828 1.24219 5.03906 3.30469C4.75781 3.53906 4.74609 3.92578 5.01562 4.19531L7.73438 6.91406C7.95703 7.13672 8.27344 7.16016 8.53125 6.96094C10.0781 5.76562 12.0117 5.02734 14.1094 5.02734Z" fill="black" fill-opacity="0.85"/>
  <path d="M0 14.1094C0 17.5664 1.24219 20.7422 3.31641 23.2031C3.55078 23.4961 3.94922 23.4961 4.20703 23.2266L6.99609 20.4375C7.17188 20.25 7.19531 19.9922 7.03125 19.793C5.75391 18.1641 5.02734 16.2188 5.02734 14.1094C5.02734 12.0117 5.74219 10.0664 6.96094 8.51953C7.14844 8.27344 7.14844 7.95703 6.92578 7.73438L4.20703 5.01562C3.9375 4.74609 3.55078 4.74609 3.31641 5.02734C1.24219 7.48828 0 10.6641 0 14.1094Z" fill="black" fill-opacity="0.85"/>
  <path d="M14.0977 19.8516C14.5312 19.8516 14.7773 19.6055 14.7773 19.1719L14.7773 10.4531L17.625 10.4531C18.0117 10.4531 18.2695 10.1836 18.2695 9.84375C18.2695 9.48047 18 9.24609 17.625 9.24609L10.5703 9.24609C10.1836 9.24609 9.92578 9.48047 9.92578 9.84375C9.92578 10.207 10.1953 10.4531 10.5703 10.4531L13.418 10.4531L13.418 19.1719C13.418 19.6055 13.6758 19.8516 14.0977 19.8516ZM11.5898 15.5039C11.6602 15.5039 11.7305 15.4922 11.8125 15.457L16.7109 13.4766C16.8984 13.3945 16.9922 13.2773 16.9922 13.0898C16.9922 12.8203 16.8164 12.7031 16.6172 12.7031C16.5469 12.7031 16.4766 12.7266 16.3945 12.75L11.4844 14.7305C11.2969 14.8125 11.2031 14.9414 11.2031 15.1172C11.2031 15.3281 11.3555 15.5039 11.5898 15.5039ZM11.5898 17.8008C11.6602 17.8008 11.7305 17.7891 11.8125 17.7656L16.7109 15.7852C16.8984 15.7031 16.9922 15.5859 16.9922 15.3984C16.9922 15.1289 16.8164 15.0117 16.6172 15.0117C16.5469 15.0117 16.4766 15.0234 16.3945 15.0469L11.4844 17.0273C11.2969 17.1094 11.2031 17.25 11.2031 17.4141C11.2031 17.6367 11.3555 17.8008 11.5898 17.8008Z" fill="black" fill-opacity="0.85"/>
 </g>
</svg>
