<?xml version="1.0" encoding="UTF-8"?>
<!--Generator: Apple Native CoreSVG 360-->
<!DOCTYPE svg
PUBLIC "-//W3C//DTD SVG 1.1//EN"
       "http://www.w3.org/Graphics/SVG/1.1/DTD/svg11.dtd">
<svg version="1.1" xmlns="http://www.w3.org/2000/svg" xmlns:xlink="http://www.w3.org/1999/xlink" viewBox="0 0 26.5195 25.0195">
 <g>
  <rect height="25.0195" opacity="0" width="26.5195" x="0" y="0"/>
  <path d="M1.55859 22.2188L24.6094 22.2188L24.6094 21.4336C24.6094 20.9648 24.3398 20.6836 23.8594 20.6836L23.1094 20.6836L23.1094 8.03906L24.1406 8.03906C24.7852 8.03906 25.1602 7.57031 25.1602 7.08984C25.1602 6.73828 24.9609 6.43359 24.5273 6.1875L14.5195 0.410156C14.0508 0.140625 13.5586 0 13.0781 0C12.5977 0 12.0938 0.140625 11.6484 0.410156L1.64062 6.1875C1.19531 6.43359 1.00781 6.73828 1.00781 7.08984C1.00781 7.57031 1.38281 8.03906 2.02734 8.03906L3.05859 8.03906L3.05859 20.6836L2.32031 20.6836C1.83984 20.6836 1.55859 20.9648 1.55859 21.4336ZM4.82812 20.6836L4.82812 6.53906L12.6211 2.16797C12.7617 2.08594 12.9258 2.03906 13.0781 2.03906C13.2305 2.03906 13.3945 2.08594 13.5469 2.16797L21.3398 6.53906L21.3398 20.6836ZM0.9375 25.0078L25.2188 25.0078C25.7344 25.0078 26.168 24.5742 26.168 24.0586C26.168 23.543 25.7344 23.1211 25.2188 23.1211L0.9375 23.1211C0.421875 23.1211 0 23.543 0 24.0586C0 24.5742 0.421875 25.0078 0.9375 25.0078Z" fill="black" fill-opacity="0.85"/>
  <path d="M11.707 17.4492L11.8477 17.4492C13.2422 17.4492 14.7305 16.9219 15.6562 16.0195C16.418 15.2578 16.9805 14.1914 16.9805 13.1836C16.9805 12.8203 16.793 12.5273 16.3594 12.5273C15.9609 12.5273 15.75 12.7734 15.7031 13.1602C15.6094 13.8984 15.293 14.543 14.8359 15.0352C14.1562 15.7617 13.1719 16.1367 12.1758 16.1367L12.1758 12.3984L14.5898 11.4141C14.7773 11.332 14.8828 11.2031 14.8828 11.0391C14.8828 10.8047 14.7188 10.6406 14.4961 10.6406C14.4258 10.6406 14.3555 10.6641 14.2852 10.6992L12.1758 11.5547L12.1758 10.1016L14.5898 9.11719C14.7773 9.04688 14.8828 8.90625 14.8828 8.71875C14.8828 8.57812 14.7891 8.34375 14.5078 8.34375C14.4375 8.34375 14.3555 8.36719 14.2852 8.40234L12.1758 9.25781L12.1758 7.65234C12.1758 7.23047 11.9062 6.94922 11.4961 6.94922C11.0859 6.94922 10.793 7.23047 10.793 7.65234L10.793 9.80859L9.31641 10.418C9.12891 10.4766 9.04688 10.6055 9.04688 10.7812C9.04688 11.0039 9.21094 11.1797 9.42188 11.1797C9.48047 11.1797 9.5625 11.1562 9.64453 11.1328L10.793 10.6523L10.793 12.1055L9.31641 12.7031C9.12891 12.7852 9.04688 12.8906 9.04688 13.0781C9.04688 13.2891 9.21094 13.4648 9.42188 13.4648C9.48047 13.4648 9.57422 13.4531 9.64453 13.418L10.793 12.9492L10.793 16.5938C10.793 17.1094 11.168 17.4492 11.707 17.4492Z" fill="black" fill-opacity="0.85"/>
 </g>
</svg>
