<?xml version="1.0" encoding="UTF-8"?>
<!--Generator: Apple Native CoreSVG 360-->
<!DOCTYPE svg
PUBLIC "-//W3C//DTD SVG 1.1//EN"
       "http://www.w3.org/Graphics/SVG/1.1/DTD/svg11.dtd">
<svg version="1.1" xmlns="http://www.w3.org/2000/svg" xmlns:xlink="http://www.w3.org/1999/xlink" viewBox="0 0 28.582 23.4085">
 <g>
  <rect height="23.4085" opacity="0" width="28.582" x="0" y="0"/>
  <path d="M28.2305 14.0539C28.2305 6.67105 22.5586 0.612457 15.3398 0.00308175C14.9648-0.0320745 14.6836 0.237457 14.6836 0.612457L14.6836 4.44449C14.6836 4.76089 14.9062 5.00699 15.2227 5.03043C19.7109 5.58121 23.2031 9.41324 23.2031 14.0539C23.2031 16.1632 22.4766 18.1086 21.1992 19.7375C21.0352 19.9367 21.0469 20.1945 21.2227 20.382L24.0234 23.1711C24.2812 23.4289 24.6797 23.4289 24.9141 23.1476C26.9883 20.6867 28.2305 17.5109 28.2305 14.0539Z" fill="black" fill-opacity="0.85"/>
  <path d="M0 14.0539C0 17.5226 1.24219 20.6984 3.31641 23.1593C3.55078 23.4406 3.9375 23.4289 4.20703 23.1711L7.00781 20.382C7.18359 20.1945 7.19531 19.9367 7.03125 19.7375C5.74219 18.1086 5.02734 16.1632 5.02734 14.0539C5.02734 9.41324 8.51953 5.58121 13.0078 5.03043C13.3242 5.00699 13.5469 4.76089 13.5469 4.44449L13.5469 0.612457C13.5469 0.237457 13.2656-0.0320745 12.8906 0.00308175C5.67188 0.612457 0 6.67105 0 14.0539Z" fill="black" fill-opacity="0.85"/>
  <path d="M12.7148 19.3273L12.8555 19.3273C14.2617 19.3273 15.7383 18.8 16.6641 17.8976C17.4258 17.1359 18 16.0695 18 15.0617C18 14.6984 17.8125 14.4054 17.3672 14.4054C16.9805 14.4054 16.7695 14.6515 16.7227 15.0382C16.6172 15.7765 16.3008 16.4211 15.8438 16.9132C15.1758 17.6398 14.1914 18.0148 13.1953 18.0148L13.1953 14.2765L15.5977 13.2921C15.7852 13.2101 15.8906 13.0812 15.8906 12.9171C15.8906 12.6828 15.7266 12.5187 15.5039 12.5187C15.4336 12.5187 15.375 12.5421 15.293 12.5773L13.1953 13.4328L13.1953 11.9796L15.5977 10.9953C15.7969 10.925 15.8906 10.7843 15.8906 10.5968C15.8906 10.4562 15.8086 10.2218 15.5156 10.2218C15.4453 10.2218 15.375 10.2453 15.293 10.2804L13.1953 11.1359L13.1953 9.53043C13.1953 9.10855 12.9141 8.8273 12.5039 8.8273C12.0938 8.8273 11.8125 9.10855 11.8125 9.53043L11.8125 11.6867L10.3359 12.2961C10.1367 12.3546 10.0547 12.4836 10.0547 12.6593C10.0547 12.882 10.2188 13.0578 10.4297 13.0578C10.4883 13.0578 10.5703 13.0343 10.6523 13.0109L11.8125 12.5304L11.8125 13.9836L10.3359 14.5812C10.1367 14.6632 10.0547 14.7687 10.0547 14.9562C10.0547 15.1671 10.2188 15.3429 10.4297 15.3429C10.4883 15.3429 10.582 15.3312 10.6641 15.2961L11.8125 14.8273L11.8125 18.4718C11.8125 18.9875 12.1875 19.3273 12.7148 19.3273Z" fill="black" fill-opacity="0.85"/>
 </g>
</svg>
