<?xml version="1.0" encoding="UTF-8"?>
<!--Generator: Apple Native CoreSVG 360-->
<!DOCTYPE svg
PUBLIC "-//W3C//DTD SVG 1.1//EN"
       "http://www.w3.org/Graphics/SVG/1.1/DTD/svg11.dtd">
<svg version="1.1" xmlns="http://www.w3.org/2000/svg" xmlns:xlink="http://www.w3.org/1999/xlink" viewBox="0 0 28.582 23.5195">
 <g>
  <rect height="23.5195" opacity="0" width="28.582" x="0" y="0"/>
  <path d="M28.2305 14.1094C28.2305 10.6641 26.9883 7.48828 24.9141 5.02734C24.6797 4.74609 24.2812 4.74609 24.0234 5.01562L21.3047 7.73438C21.082 7.95703 21.0703 8.27344 21.2695 8.51953C22.4766 10.0664 23.2031 12.0117 23.2031 14.1094C23.2031 16.2188 22.4766 18.1641 21.1992 19.793C21.0352 19.9922 21.0469 20.25 21.2227 20.4375L24.0117 23.2266C24.2812 23.4961 24.668 23.4961 24.9141 23.2031C26.9883 20.7422 28.2305 17.5664 28.2305 14.1094Z" fill="black" fill-opacity="0.85"/>
  <path d="M14.1094 5.02734C16.2305 5.02734 18.1758 5.76562 19.7344 6.97266C19.9688 7.16016 20.2734 7.13672 20.4961 6.91406L23.2148 4.19531C23.4844 3.92578 23.4727 3.53906 23.1914 3.30469C20.7422 1.24219 17.5664 0 14.1094 0C10.6641 0 7.48828 1.24219 5.03906 3.30469C4.75781 3.53906 4.74609 3.92578 5.01562 4.19531L7.73438 6.91406C7.95703 7.13672 8.27344 7.16016 8.53125 6.96094C10.0781 5.76562 12.0117 5.02734 14.1094 5.02734Z" fill="black" fill-opacity="0.85"/>
  <path d="M0 14.1094C0 17.5664 1.24219 20.7422 3.31641 23.2031C3.55078 23.4961 3.94922 23.4961 4.20703 23.2266L6.99609 20.4375C7.17188 20.25 7.19531 19.9922 7.03125 19.793C5.75391 18.1641 5.02734 16.2188 5.02734 14.1094C5.02734 12.0117 5.74219 10.0664 6.96094 8.51953C7.14844 8.27344 7.14844 7.95703 6.92578 7.73438L4.20703 5.01562C3.9375 4.74609 3.55078 4.74609 3.31641 5.02734C1.24219 7.48828 0 10.6641 0 14.1094Z" fill="black" fill-opacity="0.85"/>
  <path d="M12.7148 19.3828L12.8555 19.3828C14.2617 19.3828 15.7383 18.8555 16.6641 17.9531C17.4258 17.1914 18 16.125 18 15.1172C18 14.7539 17.8125 14.4609 17.3672 14.4609C16.9805 14.4609 16.7695 14.707 16.7227 15.0938C16.6172 15.832 16.3008 16.4766 15.8438 16.9688C15.1758 17.6953 14.1914 18.0703 13.1953 18.0703L13.1953 14.332L15.5977 13.3477C15.7852 13.2656 15.8906 13.1367 15.8906 12.9727C15.8906 12.7383 15.7266 12.5742 15.5039 12.5742C15.4336 12.5742 15.375 12.5977 15.293 12.6328L13.1953 13.4883L13.1953 12.0352L15.5977 11.0508C15.7969 10.9805 15.8906 10.8398 15.8906 10.6523C15.8906 10.5117 15.8086 10.2773 15.5156 10.2773C15.4453 10.2773 15.375 10.3008 15.293 10.3359L13.1953 11.1914L13.1953 9.58594C13.1953 9.16406 12.9141 8.88281 12.5039 8.88281C12.0938 8.88281 11.8125 9.16406 11.8125 9.58594L11.8125 11.7422L10.3359 12.3516C10.1367 12.4102 10.0547 12.5391 10.0547 12.7148C10.0547 12.9375 10.2188 13.1133 10.4297 13.1133C10.4883 13.1133 10.5703 13.0898 10.6523 13.0664L11.8125 12.5859L11.8125 14.0391L10.3359 14.6367C10.1367 14.7188 10.0547 14.8242 10.0547 15.0117C10.0547 15.2227 10.2188 15.3984 10.4297 15.3984C10.4883 15.3984 10.582 15.3867 10.6641 15.3516L11.8125 14.8828L11.8125 18.5273C11.8125 19.043 12.1875 19.3828 12.7148 19.3828Z" fill="black" fill-opacity="0.85"/>
 </g>
</svg>
