<?xml version="1.0" encoding="UTF-8"?>
<!--Generator: Apple Native CoreSVG 360-->
<!DOCTYPE svg
PUBLIC "-//W3C//DTD SVG 1.1//EN"
       "http://www.w3.org/Graphics/SVG/1.1/DTD/svg11.dtd">
<svg version="1.1" xmlns="http://www.w3.org/2000/svg" xmlns:xlink="http://www.w3.org/1999/xlink" viewBox="0 0 15.8672 21.0117">
 <g>
  <rect height="21.0117" opacity="0" width="15.8672" x="0" y="0"/>
  <path d="M4.99219 20.9883L5.21484 20.9883C8.22656 20.9883 10.8398 19.9805 12.7852 18.082C14.4023 16.5117 15.5156 14.3906 15.5156 12.2695C15.5156 11.6602 15.1992 11.1445 14.4727 11.1445C13.7578 11.1445 13.4648 11.5898 13.3594 12.2695C13.1602 13.9336 12.4336 15.3633 11.3789 16.4531C9.98438 17.9062 8.05078 18.7148 5.84766 18.7148L5.84766 11.0156L10.8047 8.91797C11.1797 8.76562 11.3555 8.53125 11.3555 8.16797C11.3555 7.76953 11.0977 7.44141 10.6172 7.44141C10.4883 7.44141 10.3594 7.46484 10.1953 7.53516L5.84766 9.35156L5.84766 6.36328L10.8047 4.28906C11.1797 4.13672 11.3555 3.89062 11.3555 3.52734C11.3555 3.08203 11.0625 2.78906 10.6172 2.78906C10.4883 2.78906 10.3594 2.82422 10.1953 2.88281L5.84766 4.71094L5.84766 1.19531C5.84766 0.492188 5.36719 0 4.67578 0C3.99609 0 3.52734 0.492188 3.52734 1.19531L3.52734 5.66016L0.527344 6.90234C0.175781 7.04297 0 7.30078 0 7.65234C0 8.10938 0.304688 8.40234 0.726562 8.40234C0.855469 8.40234 1.00781 8.37891 1.16016 8.30859L3.52734 7.32422L3.52734 10.3008L0.527344 11.543C0.175781 11.6953 0 11.9414 0 12.293C0 12.75 0.304688 13.0547 0.726562 13.0547C0.855469 13.0547 1.00781 13.0195 1.16016 12.9609L3.52734 11.9531L3.52734 19.5234C3.52734 20.3789 4.03125 20.9883 4.99219 20.9883Z" fill="black" fill-opacity="0.85"/>
 </g>
</svg>
