<?xml version="1.0" encoding="UTF-8"?>
<!--Generator: Apple Native CoreSVG 360-->
<!DOCTYPE svg
PUBLIC "-//W3C//DTD SVG 1.1//EN"
       "http://www.w3.org/Graphics/SVG/1.1/DTD/svg11.dtd">
<svg version="1.1" xmlns="http://www.w3.org/2000/svg" xmlns:xlink="http://www.w3.org/1999/xlink" viewBox="0 0 36.1289 29.6133">
 <g>
  <rect height="29.6133" opacity="0" width="36.1289" x="0" y="0"/>
  <path d="M15.1289 25.5C15.1289 25.8658 15.1592 26.2059 15.2181 26.5195L9.99609 26.5195C9.48047 26.5195 9.05859 26.0977 9.05859 25.5703C9.05859 25.043 9.48047 24.6211 9.99609 24.6211L15.1289 24.6211ZM30.5391 6.09375L30.5391 17.1914L28.6523 17.1914L28.6523 6.11719C28.6523 5.40234 28.2188 4.96875 27.5039 4.96875L4.28906 4.96875C3.5625 4.96875 3.12891 5.40234 3.12891 6.11719L3.12891 19.5117C3.12891 20.2266 3.5625 20.6602 4.28906 20.6602L15.1599 20.6602C15.1385 20.8425 15.1289 21.0347 15.1289 21.2344L15.1289 22.5469L4.25391 22.5469C2.39062 22.5469 1.24219 21.3984 1.24219 19.5352L1.24219 6.09375C1.24219 4.23047 2.39062 3.08203 4.25391 3.08203L27.5391 3.08203C29.4023 3.08203 30.5391 4.23047 30.5391 6.09375Z" fill="black" fill-opacity="0.425"/>
  <path d="M19.207 28.0078L32.0508 28.0078C33.6914 28.0078 34.5352 27.1758 34.5352 25.5L34.5352 21.3047C34.5352 19.6172 33.6914 18.7852 32.0508 18.7852L19.207 18.7852C17.5312 18.7852 16.7227 19.6172 16.7227 21.2344L16.7227 25.5C16.7227 27.1758 17.5312 28.0078 19.207 28.0078ZM30.6914 24.0117C29.9414 24.0117 29.332 23.4023 29.332 22.6523C29.332 21.9141 29.9414 21.3164 30.6914 21.3164C31.418 21.3164 32.0273 21.9141 32.0273 22.6523C32.0273 23.4023 31.418 24.0117 30.6914 24.0117Z" fill="black" fill-opacity="0.85"/>
 </g>
</svg>
