<?xml version="1.0" encoding="UTF-8"?>
<!--Generator: Apple Native CoreSVG 360-->
<!DOCTYPE svg
PUBLIC "-//W3C//DTD SVG 1.1//EN"
       "http://www.w3.org/Graphics/SVG/1.1/DTD/svg11.dtd">
<svg version="1.1" xmlns="http://www.w3.org/2000/svg" xmlns:xlink="http://www.w3.org/1999/xlink" viewBox="0 0 24.2578 23.918">
 <g>
  <rect height="23.918" opacity="0" width="24.2578" x="0" y="0"/>
  <path d="M11.9531 23.9062C18.5508 23.9062 23.9062 18.5508 23.9062 11.9531C23.9062 5.35547 18.5508 0 11.9531 0C5.35547 0 0 5.35547 0 11.9531C0 18.5508 5.35547 23.9062 11.9531 23.9062ZM11.9531 21.9141C6.44531 21.9141 1.99219 17.4609 1.99219 11.9531C1.99219 6.44531 6.44531 1.99219 11.9531 1.99219C17.4609 1.99219 21.9141 6.44531 21.9141 11.9531C21.9141 17.4609 17.4609 21.9141 11.9531 21.9141Z" fill="black" fill-opacity="0.85"/>
  <path d="M11.9414 17.4492C14.6836 17.4492 16.5234 15.8672 16.5234 13.4062L16.5234 7.41797C16.5234 6.76172 16.1836 6.36328 15.5742 6.36328C15 6.36328 14.6484 6.76172 14.6484 7.41797L14.6484 13.2305C14.6484 14.8711 13.582 15.9023 11.9414 15.9023C10.3008 15.9023 9.22266 14.8711 9.22266 13.2305L9.22266 7.41797C9.22266 6.76172 8.88281 6.36328 8.27344 6.36328C7.69922 6.36328 7.35938 6.76172 7.35938 7.41797L7.35938 13.4062C7.35938 15.8672 9.19922 17.4492 11.9414 17.4492Z" fill="black" fill-opacity="0.85"/>
 </g>
</svg>
