<?xml version="1.0" encoding="UTF-8"?>
<!--Generator: Apple Native CoreSVG 360-->
<!DOCTYPE svg
PUBLIC "-//W3C//DTD SVG 1.1//EN"
       "http://www.w3.org/Graphics/SVG/1.1/DTD/svg11.dtd">
<svg version="1.1" xmlns="http://www.w3.org/2000/svg" xmlns:xlink="http://www.w3.org/1999/xlink" viewBox="0 0 21.9258 21.5742">
 <g>
  <rect height="21.5742" opacity="0" width="21.9258" x="0" y="0"/>
  <path d="M3.67969 21.5742L17.8945 21.5742C20.3555 21.5742 21.5742 20.3672 21.5742 17.9531L21.5742 3.63281C21.5742 1.21875 20.3555 0 17.8945 0L3.67969 0C1.23047 0 0 1.21875 0 3.63281L0 17.9531C0 20.3672 1.23047 21.5742 3.67969 21.5742ZM3.70312 19.6875C2.53125 19.6875 1.88672 19.0664 1.88672 17.8477L1.88672 3.73828C1.88672 2.51953 2.53125 1.88672 3.70312 1.88672L17.8711 1.88672C19.0312 1.88672 19.6875 2.51953 19.6875 3.73828L19.6875 17.8477C19.6875 19.0664 19.0312 19.6875 17.8711 19.6875Z" fill="black" fill-opacity="0.85"/>
  <path d="M10.793 16.2891C13.5352 16.2891 15.375 14.707 15.375 12.2461L15.375 6.25781C15.375 5.60156 15.0352 5.20312 14.4258 5.20312C13.8516 5.20312 13.5 5.60156 13.5 6.25781L13.5 12.0703C13.5 13.7109 12.4336 14.7422 10.793 14.7422C9.15234 14.7422 8.07422 13.7109 8.07422 12.0703L8.07422 6.25781C8.07422 5.60156 7.73438 5.20312 7.13672 5.20312C6.55078 5.20312 6.21094 5.60156 6.21094 6.25781L6.21094 12.2461C6.21094 14.707 8.05078 16.2891 10.793 16.2891Z" fill="black" fill-opacity="0.85"/>
 </g>
</svg>
