<?xml version="1.0" encoding="UTF-8"?>
<!--Generator: Apple Native CoreSVG 360-->
<!DOCTYPE svg
PUBLIC "-//W3C//DTD SVG 1.1//EN"
       "http://www.w3.org/Graphics/SVG/1.1/DTD/svg11.dtd">
<svg version="1.1" xmlns="http://www.w3.org/2000/svg" xmlns:xlink="http://www.w3.org/1999/xlink" viewBox="0 0 42.2812 20.5898">
 <g>
  <rect height="20.5898" opacity="0" width="42.2812" x="0" y="0"/>
  <path d="M4.52344 18.3047C4.89844 17.8828 4.78125 17.332 4.35938 16.8516C2.78906 15.1055 1.91016 12.8086 1.91016 10.2891C1.91016 7.76953 2.78906 5.47266 4.35938 3.72656C4.78125 3.24609 4.89844 2.69531 4.52344 2.27344C4.14844 1.82812 3.49219 1.83984 3.04688 2.33203C1.10156 4.44141 0 7.25391 0 10.2891C0 13.3242 1.10156 16.125 3.04688 18.2461C3.49219 18.7383 4.14844 18.7383 4.52344 18.3047ZM37.4062 18.3047C37.7812 18.7383 38.4375 18.7383 38.8828 18.2461C40.8281 16.125 41.9297 13.3242 41.9297 10.2891C41.9297 7.25391 40.8281 4.44141 38.8828 2.33203C38.4375 1.83984 37.7812 1.82812 37.4062 2.27344C37.0312 2.69531 37.1484 3.24609 37.5703 3.72656C39.1406 5.47266 40.0195 7.76953 40.0195 10.2891C40.0195 12.8086 39.1406 15.1055 37.5703 16.8516C37.1484 17.332 37.0312 17.8828 37.4062 18.3047Z" fill="black" fill-opacity="0.85"/>
  <path d="M7.80469 14.9648C8.17969 14.543 8.02734 14.0156 7.65234 13.5117C6.94922 12.6328 6.60938 11.5078 6.60938 10.2891C6.60938 9.07031 6.94922 7.93359 7.65234 7.06641C8.02734 6.5625 8.17969 6.03516 7.80469 5.61328C7.41797 5.16797 6.71484 5.16797 6.30469 5.69531C5.28516 6.96094 4.69922 8.56641 4.69922 10.2891C4.69922 12.0117 5.28516 13.6172 6.30469 14.8828C6.71484 15.4102 7.41797 15.3984 7.80469 14.9648ZM34.125 14.9648C34.5117 15.3984 35.2148 15.4102 35.625 14.8828C36.6445 13.6172 37.2305 12.0117 37.2305 10.2891C37.2305 8.56641 36.6445 6.96094 35.625 5.69531C35.2148 5.16797 34.5117 5.16797 34.125 5.61328C33.75 6.03516 33.9023 6.5625 34.2773 7.06641C34.9805 7.93359 35.3203 9.07031 35.3203 10.2891C35.3203 11.5078 34.9805 12.6328 34.2773 13.5117C33.9023 14.0156 33.75 14.543 34.125 14.9648Z" fill="black" fill-opacity="0.85"/>
  <path d="M20.9648 20.5664C26.6484 20.5664 31.2539 15.9727 31.2539 10.2891C31.2539 4.60547 26.6484 0 20.9648 0C15.2812 0 10.6758 4.60547 10.6758 10.2891C10.6758 15.9727 15.2812 20.5664 20.9648 20.5664ZM20.9648 18.6797C16.3242 18.6797 12.5625 14.9297 12.5625 10.2891C12.5625 5.64844 16.3242 1.88672 20.9648 1.88672C25.6055 1.88672 29.3672 5.64844 29.3672 10.2891C29.3672 14.9297 25.6055 18.6797 20.9648 18.6797Z" fill="black" fill-opacity="0.85"/>
  <path d="M20.4258 5.44922L21.5391 5.44922L21.5391 4.17188C21.5391 3.86719 21.293 3.62109 20.9766 3.62109C20.6602 3.62109 20.4258 3.86719 20.4258 4.17188ZM15.9844 10.6523C16.1484 10.6523 16.2891 10.5469 16.418 10.3711C16.7695 9.80859 17.168 9.57422 17.6836 9.57422C18.1992 9.57422 18.5391 9.80859 18.8555 10.3594C18.9727 10.5586 19.0898 10.6523 19.2422 10.6523C19.3945 10.6523 19.5234 10.5586 19.6289 10.3594C19.9102 9.85547 20.4609 9.55078 20.9766 9.55078C21.5039 9.55078 22.043 9.85547 22.3359 10.3594C22.4414 10.5586 22.5703 10.6523 22.7227 10.6523C22.875 10.6523 22.9922 10.5586 23.1094 10.3594C23.4258 9.80859 23.7656 9.57422 24.2812 9.57422C24.7969 9.57422 25.1836 9.80859 25.5469 10.3711C25.6641 10.5469 25.8164 10.6523 25.9805 10.6523C26.25 10.6523 26.4258 10.418 26.4258 10.1367C26.4258 7.96875 24.7031 4.92188 20.9766 4.92188C17.25 4.92188 15.5391 7.96875 15.5391 10.1367C15.5391 10.418 15.7148 10.6523 15.9844 10.6523ZM19.6992 16.4414C20.7305 16.4414 21.5391 15.6562 21.5391 14.6016L21.5391 9.1875L20.4258 9.1875L20.4258 14.6016C20.4258 15.0234 20.1211 15.3281 19.6992 15.3281C19.2773 15.3281 18.9844 15.0234 18.9844 14.6016C18.9844 14.25 18.75 13.9688 18.4102 13.9688C18.082 13.9688 17.8594 14.25 17.8594 14.6016C17.8594 15.6562 18.6445 16.4414 19.6992 16.4414Z" fill="black" fill-opacity="0.85"/>
 </g>
</svg>
