<?xml version="1.0" encoding="UTF-8"?>
<!--Generator: Apple Native CoreSVG 360-->
<!DOCTYPE svg
PUBLIC "-//W3C//DTD SVG 1.1//EN"
       "http://www.w3.org/Graphics/SVG/1.1/DTD/svg11.dtd">
<svg version="1.1" xmlns="http://www.w3.org/2000/svg" xmlns:xlink="http://www.w3.org/1999/xlink" viewBox="0 0 25.7578 27.7148">
 <g>
  <rect height="27.7148" opacity="0" width="25.7578" x="0" y="0"/>
  <path d="M11.3555 3.50391L13.3008 3.50391L13.3008 0.984375C13.3008 0.445312 12.8672 0 12.3281 0C11.7891 0 11.3555 0.445312 11.3555 0.984375ZM1.61719 14.8711C1.96875 14.8711 2.29688 14.6484 2.55469 14.2617C3.32812 13.0781 4.14844 12.5859 5.26172 12.5859C6.35156 12.5859 7.08984 13.0781 7.76953 14.25C8.01562 14.6836 8.26172 14.8711 8.58984 14.8711C8.94141 14.8711 9.1875 14.6836 9.42188 14.25C10.0547 13.1719 11.2031 12.5156 12.3281 12.5156C13.4531 12.5156 14.6016 13.1719 15.2344 14.25C15.4688 14.6836 15.7148 14.8711 16.0664 14.8711C16.3945 14.8711 16.6406 14.6836 16.8984 14.25C17.5664 13.0781 18.3047 12.5859 19.3945 12.5859C20.5078 12.5859 21.3281 13.0781 22.1133 14.2617C22.3711 14.6484 22.6875 14.8711 23.0391 14.8711C23.625 14.8711 24.0117 14.3906 24.0117 13.7578C24.0117 9.10547 20.3438 2.57812 12.3281 2.57812C4.3125 2.57812 0.644531 9.10547 0.644531 13.7578C0.644531 14.3906 1.03125 14.8711 1.61719 14.8711ZM12.3281 10.6875C10.9219 10.6875 9.55078 11.3203 8.69531 12.3633C8.63672 12.4453 8.58984 12.4453 8.54297 12.3633C7.75781 11.2969 6.66797 10.7578 5.26172 10.7578C3.76172 10.7578 2.51953 11.3672 1.47656 12.6328L2.55469 12.7266C3.08203 8.14453 7.01953 4.40625 12.3281 4.40625C17.625 4.40625 21.5625 8.12109 22.1133 12.7031L23.168 12.6094C22.1367 11.3672 20.8945 10.7578 19.3945 10.7578C17.9883 10.7578 16.8984 11.2969 16.125 12.3633C16.0664 12.4453 16.0195 12.4336 15.9609 12.3633C15.1055 11.3203 13.7344 10.6875 12.3281 10.6875ZM9.58594 27.0938C11.6953 27.0938 13.3008 25.4883 13.3008 23.3555L13.3008 11.9531L11.3555 11.9531L11.3555 23.3555C11.3555 24.375 10.6172 25.1133 9.58594 25.1133C8.55469 25.1133 7.83984 24.375 7.83984 23.3555C7.83984 22.6758 7.41797 22.2188 6.82031 22.2188C6.23438 22.2188 5.85938 22.6758 5.85938 23.3555C5.85938 25.4883 7.46484 27.0938 9.58594 27.0938Z" fill="black" fill-opacity="0.85"/>
  <path d="M17.7539 22.418C19.0078 22.418 19.8164 21.3984 19.8164 19.8164C19.8164 18.2344 19.0078 17.2266 17.7539 17.2266C16.5 17.2266 15.6914 18.2344 15.6914 19.8164C15.6914 21.3984 16.5 22.418 17.7539 22.418ZM17.7539 20.9883C17.4141 20.9883 17.2148 20.5547 17.2148 19.8164C17.2148 19.0898 17.4258 18.6562 17.7539 18.6562C18.0703 18.6562 18.293 19.0898 18.293 19.8164C18.293 20.5547 18.082 20.9883 17.7539 20.9883ZM17.4375 27.0586C17.7891 27.2695 18.2812 27.1641 18.5273 26.8125L24.2109 18.3984C24.4922 17.9883 24.3867 17.4727 23.9883 17.25C23.6367 17.0508 23.1914 17.168 22.9336 17.543L17.2148 25.9336C16.9219 26.3555 17.0156 26.8359 17.4375 27.0586ZM23.6953 27.1055C24.9492 27.1055 25.7578 26.0742 25.7578 24.4922C25.7578 22.9102 24.9492 21.9023 23.6953 21.9023C22.4414 21.9023 21.6328 22.9102 21.6328 24.4922C21.6328 26.0742 22.4414 27.1055 23.6953 27.1055ZM23.6953 25.6641C23.3555 25.6641 23.1562 25.2422 23.1562 24.4922C23.1562 23.7656 23.3672 23.332 23.6953 23.332C24.0117 23.332 24.2344 23.7656 24.2344 24.4922C24.2344 25.2422 24.0352 25.6641 23.6953 25.6641Z" fill="black" fill-opacity="0.85"/>
 </g>
</svg>
