<?xml version="1.0" encoding="UTF-8"?>
<!--Generator: Apple Native CoreSVG 360-->
<!DOCTYPE svg
PUBLIC "-//W3C//DTD SVG 1.1//EN"
       "http://www.w3.org/Graphics/SVG/1.1/DTD/svg11.dtd">
<svg version="1.1" xmlns="http://www.w3.org/2000/svg" xmlns:xlink="http://www.w3.org/1999/xlink" viewBox="0 0 26.4492 22.6055">
 <g>
  <rect height="22.6055" opacity="0" width="26.4492" x="0" y="0"/>
  <path d="M13.043 0C5.83594 0 0 5.83594 0 13.043C0 16.5938 1.41797 19.8516 3.77344 22.2188C4.17188 22.6172 4.79297 22.6406 5.23828 22.2305C5.60156 21.8672 5.53125 21.2344 5.0625 20.7305C3.17578 18.7617 2.02734 16.0195 2.02734 13.043C2.02734 6.87891 6.89062 1.99219 13.043 1.99219C19.207 1.99219 24.0703 6.87891 24.0703 13.043C24.0703 16.0195 22.9219 18.7617 21.0352 20.7305C20.5664 21.2344 20.4961 21.8672 20.8594 22.2305C21.3047 22.6406 21.9258 22.6172 22.3242 22.2188C24.6797 19.8516 26.0977 16.5938 26.0977 13.043C26.0977 5.83594 20.2617 0 13.043 0Z" fill="black" fill-opacity="0.85"/>
  <path d="M12.4102 7.40625L13.7109 7.40625L13.7109 5.90625C13.7109 5.55469 13.4297 5.27344 13.0664 5.27344C12.6914 5.27344 12.4102 5.55469 12.4102 5.90625ZM7.23047 13.4648C7.41797 13.4648 7.59375 13.3477 7.73438 13.1367C8.15625 12.4922 8.61328 12.2109 9.21094 12.2109C9.80859 12.2109 10.2188 12.4805 10.582 13.125C10.7109 13.3594 10.8516 13.4648 11.0273 13.4648C11.2031 13.4648 11.3555 13.3594 11.4844 13.125C11.8242 12.5391 12.457 12.1758 13.0664 12.1758C13.6758 12.1758 14.3086 12.5391 14.6367 13.125C14.7656 13.3594 14.918 13.4648 15.0938 13.4648C15.2695 13.4648 15.4102 13.3594 15.5508 13.125C15.9141 12.4805 16.3125 12.2109 16.9102 12.2109C17.5195 12.2109 17.9648 12.4922 18.3867 13.1367C18.5273 13.3477 18.7031 13.4648 18.8906 13.4648C19.207 13.4648 19.4062 13.207 19.4062 12.8672C19.4062 10.3359 17.4141 6.78516 13.0664 6.78516C8.70703 6.78516 6.71484 10.3359 6.71484 12.8672C6.71484 13.207 6.91406 13.4648 7.23047 13.4648ZM11.5664 20.2266C12.7734 20.2266 13.7109 19.3125 13.7109 18.082L13.7109 11.7539L12.4102 11.7539L12.4102 18.082C12.4102 18.5742 12.0586 18.9258 11.5664 18.9258C11.0859 18.9258 10.7227 18.5742 10.7227 18.082C10.7227 17.6602 10.4531 17.3438 10.0664 17.3438C9.67969 17.3438 9.42188 17.6602 9.42188 18.082C9.42188 19.3125 10.3477 20.2266 11.5664 20.2266Z" fill="black" fill-opacity="0.85"/>
 </g>
</svg>
