<?xml version="1.0" encoding="UTF-8"?>
<!--Generator: Apple Native CoreSVG 360-->
<!DOCTYPE svg
PUBLIC "-//W3C//DTD SVG 1.1//EN"
       "http://www.w3.org/Graphics/SVG/1.1/DTD/svg11.dtd">
<svg version="1.1" xmlns="http://www.w3.org/2000/svg" xmlns:xlink="http://www.w3.org/1999/xlink" viewBox="0 0 14.0039 30.6445">
 <g>
  <rect height="30.6445" opacity="0" width="14.0039" x="0" y="0"/>
  <path d="M0.691406 30.6445L12.9492 30.6445C13.3359 30.6445 13.6523 30.3398 13.6523 29.9414C13.6523 29.543 13.3359 29.25 12.9492 29.25L0.691406 29.25C0.316406 29.25 0 29.543 0 29.9414C0 30.3398 0.316406 30.6445 0.691406 30.6445Z" fill="black" fill-opacity="0.85"/>
  <path d="M0.691406 27.5977L12.9492 27.5977C13.3359 27.5977 13.6523 27.3047 13.6523 26.9062C13.6523 26.5078 13.3359 26.2031 12.9492 26.2031L0.691406 26.2031C0.316406 26.2031 0 26.5078 0 26.9062C0 27.3047 0.316406 27.5977 0.691406 27.5977Z" fill="black" fill-opacity="0.85"/>
  <path d="M6.82031 24C11.0391 24 13.6523 21.4688 13.6523 17.7891L13.6523 7.72266C13.6523 7.06641 13.2188 6.63281 12.5508 6.63281C11.8945 6.63281 11.4844 7.06641 11.4844 7.72266L11.4844 17.6133C11.4844 20.2266 9.76172 22.0078 6.82031 22.0078C3.89062 22.0078 2.16797 20.2266 2.16797 17.6133L2.16797 7.72266C2.16797 7.06641 1.73438 6.63281 1.06641 6.63281C0.410156 6.63281 0 7.06641 0 7.72266L0 17.7891C0 21.4688 2.60156 24 6.82031 24Z" fill="black" fill-opacity="0.85"/>
 </g>
</svg>
