<?xml version="1.0" encoding="UTF-8"?>
<!--Generator: Apple Native CoreSVG 360-->
<!DOCTYPE svg
PUBLIC "-//W3C//DTD SVG 1.1//EN"
       "http://www.w3.org/Graphics/SVG/1.1/DTD/svg11.dtd">
<svg version="1.1" xmlns="http://www.w3.org/2000/svg" xmlns:xlink="http://www.w3.org/1999/xlink" viewBox="0 0 24.2578 23.918">
 <g>
  <rect height="23.918" opacity="0" width="24.2578" x="0" y="0"/>
  <path d="M11.9531 23.9062C18.5508 23.9062 23.9062 18.5508 23.9062 11.9531C23.9062 5.35547 18.5508 0 11.9531 0C5.35547 0 0 5.35547 0 11.9531C0 18.5508 5.35547 23.9062 11.9531 23.9062ZM11.9531 21.9141C6.44531 21.9141 1.99219 17.4609 1.99219 11.9531C1.99219 6.44531 6.44531 1.99219 11.9531 1.99219C17.4609 1.99219 21.9141 6.44531 21.9141 11.9531C21.9141 17.4609 17.4609 21.9141 11.9531 21.9141Z" fill="black" fill-opacity="0.85"/>
  <path d="M11.9531 17.4375C12.6211 17.4375 13.043 17.0859 13.3359 16.3242L16.6055 7.75781C16.6758 7.57031 16.6992 7.44141 16.6992 7.26562C16.6992 6.73828 16.3008 6.375 15.75 6.375C15.2344 6.375 14.9531 6.62109 14.7539 7.17188L11.9766 15.1992L11.8945 15.1992L9.11719 7.17188C8.92969 6.62109 8.63672 6.375 8.12109 6.375C7.57031 6.375 7.17188 6.75 7.17188 7.26562C7.17188 7.44141 7.20703 7.57031 7.26562 7.75781L10.5586 16.3359C10.8633 17.1328 11.2383 17.4375 11.9531 17.4375Z" fill="black" fill-opacity="0.85"/>
 </g>
</svg>
