<?xml version="1.0" encoding="UTF-8"?>
<!--Generator: Apple Native CoreSVG 360-->
<!DOCTYPE svg
PUBLIC "-//W3C//DTD SVG 1.1//EN"
       "http://www.w3.org/Graphics/SVG/1.1/DTD/svg11.dtd">
<svg version="1.1" xmlns="http://www.w3.org/2000/svg" xmlns:xlink="http://www.w3.org/1999/xlink" viewBox="0 0 21.9258 21.5742">
 <g>
  <rect height="21.5742" opacity="0" width="21.9258" x="0" y="0"/>
  <path d="M3.67969 21.5742L17.8945 21.5742C20.3555 21.5742 21.5742 20.3672 21.5742 17.9531L21.5742 3.63281C21.5742 1.21875 20.3555 0 17.8945 0L3.67969 0C1.23047 0 0 1.21875 0 3.63281L0 17.9531C0 20.3672 1.23047 21.5742 3.67969 21.5742ZM3.70312 19.6875C2.53125 19.6875 1.88672 19.0664 1.88672 17.8477L1.88672 3.73828C1.88672 2.51953 2.53125 1.88672 3.70312 1.88672L17.8711 1.88672C19.0312 1.88672 19.6875 2.51953 19.6875 3.73828L19.6875 17.8477C19.6875 19.0664 19.0312 19.6875 17.8711 19.6875Z" fill="black" fill-opacity="0.85"/>
  <path d="M10.8047 16.2773C11.4727 16.2773 11.8945 15.9258 12.1875 15.1641L15.4688 6.59766C15.5273 6.41016 15.5508 6.28125 15.5508 6.10547C15.5508 5.57812 15.1523 5.21484 14.6133 5.21484C14.0977 5.21484 13.8047 5.46094 13.6172 6.01172L10.8281 14.0391L10.7461 14.0391L7.96875 6.01172C7.78125 5.46094 7.48828 5.21484 6.97266 5.21484C6.43359 5.21484 6.02344 5.58984 6.02344 6.10547C6.02344 6.28125 6.05859 6.41016 6.11719 6.59766L9.41016 15.1758C9.71484 15.9727 10.0898 16.2773 10.8047 16.2773Z" fill="black" fill-opacity="0.85"/>
 </g>
</svg>
