<?xml version="1.0" encoding="UTF-8"?>
<!--Generator: Apple Native CoreSVG 360-->
<!DOCTYPE svg
PUBLIC "-//W3C//DTD SVG 1.1//EN"
       "http://www.w3.org/Graphics/SVG/1.1/DTD/svg11.dtd">
<svg version="1.1" xmlns="http://www.w3.org/2000/svg" xmlns:xlink="http://www.w3.org/1999/xlink" viewBox="0 0 27.4102 23.428">
 <g>
  <rect height="23.428" opacity="0" width="27.4102" x="0" y="0"/>
  <path d="M27.0586 7.43078C27.0586 11.1808 24.4336 13.6769 20.4375 13.6769L19.9326 13.6769C19.7647 13.0372 19.6859 12.4093 19.6865 11.7902L20.4375 11.7902C23.3086 11.7902 25.1836 10.0323 25.1836 7.43078C25.1836 4.85266 23.3086 3.09485 20.4375 3.09485L6.62109 3.09485C3.76172 3.09485 1.875 4.85266 1.875 7.43078C1.875 10.0323 3.76172 11.7902 6.62109 11.7902L7.39401 11.7902C7.39545 12.4093 7.31704 13.0372 7.14925 13.6769L6.62109 13.6769C2.63672 13.6769 0 11.1808 0 7.43078C0 3.6925 2.63672 1.20813 6.62109 1.20813L20.4375 1.20813C24.4336 1.20813 27.0586 3.6925 27.0586 7.43078ZM15.2109 13.6769L11.8635 13.6769C11.9598 13.0473 11.996 12.419 11.966 11.7902L15.1114 11.7902C15.0804 12.419 15.1156 13.0473 15.2109 13.6769Z" fill="black" fill-opacity="0.85"/>
  <path d="M6.98438 19.3019C7.39453 19.6183 8.00391 19.4659 8.35547 18.9152C10.9102 15.0128 11.1797 11.5206 9.79688 7.73547C9.53906 7.04406 9.14062 6.77453 8.57812 6.86828C8.0625 6.97375 7.67578 7.4425 8.00391 8.18078C9.31641 11.2511 8.91797 14.5441 6.75 17.9425C6.45703 18.423 6.53906 18.9855 6.98438 19.3019ZM5.74219 21.9855L9.89062 20.4972C10.4414 20.2863 10.582 19.5714 10.0664 19.1964L5.92969 16.2316C5.40234 15.8683 4.78125 16.2433 4.76953 16.8409L4.66406 21.2355C4.66406 21.9269 5.07422 22.2316 5.74219 21.9855ZM20.0977 19.3019C20.5312 18.9855 20.625 18.423 20.3203 17.9425C18.1523 14.5441 17.7539 11.2511 19.0781 8.18078C19.4062 7.4425 19.0078 6.97375 18.4922 6.86828C17.9297 6.77453 17.5312 7.04406 17.2734 7.73547C15.8906 11.5206 16.1719 15.0128 18.7148 18.9152C19.0664 19.4659 19.6758 19.6183 20.0977 19.3019ZM21.3281 21.9855C21.9961 22.2316 22.418 21.9269 22.418 21.2355L22.3125 16.8409C22.2891 16.2433 21.668 15.8683 21.1406 16.2316L17.0039 19.1964C16.4883 19.5714 16.6406 20.2863 17.1914 20.4972Z" fill="black" fill-opacity="0.85"/>
 </g>
</svg>
