<?xml version="1.0" encoding="UTF-8"?>
<!--Generator: Apple Native CoreSVG 360-->
<!DOCTYPE svg
PUBLIC "-//W3C//DTD SVG 1.1//EN"
       "http://www.w3.org/Graphics/SVG/1.1/DTD/svg11.dtd">
<svg version="1.1" xmlns="http://www.w3.org/2000/svg" xmlns:xlink="http://www.w3.org/1999/xlink" viewBox="0 0 28.6287 27.3867">
 <g>
  <rect height="27.3867" opacity="0" width="28.6287" x="0" y="0"/>
  <path d="M16.4336 13.6875L11.8537 13.6875C12.1197 13.0754 12.334 12.4469 12.4946 11.8008L15.7906 11.8008C15.9522 12.4469 16.1671 13.0754 16.4336 13.6875ZM27.6679 7.42969C27.6679 10.7876 25.5762 13.137 22.2812 13.5971C21.815 13.0195 21.4322 12.4164 21.1367 11.7973C23.9577 11.7631 25.7929 10.0151 25.7929 7.42969C25.7929 4.86328 23.9179 3.10547 21.0468 3.10547L7.23036 3.10547C4.37099 3.10547 2.48427 4.86328 2.48427 7.42969C2.48427 10.0164 4.33282 11.765 7.14505 11.7975C6.84796 12.4164 6.46368 13.0194 5.9968 13.5968C2.70939 13.136 0.609268 10.7869 0.609268 7.42969C0.609268 3.69141 3.24599 1.21875 7.23036 1.21875L21.0468 1.21875C25.0429 1.21875 27.6679 3.69141 27.6679 7.42969Z" fill="black" fill-opacity="0.85"/>
  <path d="M10.3944 6.87891C10.9804 6.89062 11.2616 7.33594 11.285 8.07422C11.4123 12.0407 9.85056 15.2769 6.29194 18.1761L7.19521 19.4414C7.57021 19.9688 7.19521 20.6133 6.62099 20.625L2.20302 20.7188C1.51161 20.7422 1.23036 20.2617 1.42958 19.6523L2.9413 15.5156C3.14052 14.9531 3.85536 14.8008 4.24208 15.3047L5.20451 16.6529C8.12493 14.2977 9.74077 11.1543 9.43349 7.93359C9.36317 7.125 9.8788 6.85547 10.3944 6.87891ZM18.8436 7.93359C18.5478 11.1534 20.163 14.296 23.0819 16.6509L24.0468 15.3047C24.4218 14.8008 25.1366 14.9531 25.3358 15.5156L26.8475 19.6523C27.0468 20.2617 26.7655 20.7422 26.0741 20.7188L21.6561 20.625C21.0819 20.6133 20.7069 19.9688 21.0819 19.4414L21.9876 18.1778C18.4386 15.2781 16.8649 12.0415 16.9921 8.07422C17.0155 7.33594 17.3085 6.89062 17.8827 6.87891C18.3983 6.85547 18.914 7.125 18.8436 7.93359Z" fill="black" fill-opacity="0.85"/>
  <path d="M11.3085 20.2852L11.3085 21.2344L13.5233 21.2344L13.5233 22.4883L11.3085 22.4883L11.3085 23.4258C11.3085 23.8359 10.91 23.9414 10.6405 23.7188L8.84755 22.2422C8.5663 21.9961 8.5663 21.7148 8.84755 21.4688L10.6405 20.0039C10.91 19.7812 11.3085 19.8867 11.3085 20.2852ZM17.6483 20.0039L19.4296 21.4688C19.7225 21.7148 19.7225 21.9961 19.4296 22.2422L17.6483 23.7188C17.3788 23.9414 16.9686 23.8359 16.9686 23.4258L16.9686 22.4883L14.7772 22.4883L14.7772 21.2344L16.9686 21.2344L16.9686 20.2852C16.9686 19.8867 17.3788 19.7812 17.6483 20.0039Z" fill="black" fill-opacity="0.85"/>
  <path d="M12.5624 19.0078L15.703 19.0078C16.1132 19.0078 16.2186 18.6094 15.996 18.3281L14.5194 16.5469C14.2733 16.2656 14.0038 16.2656 13.7577 16.5469L12.2811 18.3281C12.0585 18.6094 12.164 19.0078 12.5624 19.0078ZM14.1561 25.7227C14.496 25.7227 14.7772 25.4414 14.7772 25.0898L14.7772 18.4219C14.7772 18.0586 14.496 17.7891 14.1561 17.7891C13.8163 17.7891 13.5233 18.0586 13.5233 18.4219L13.5233 25.0898C13.5233 25.4414 13.8046 25.7227 14.1561 25.7227ZM15.7147 24.7148L12.5741 24.7148C12.164 24.7148 12.0585 25.125 12.2811 25.3945L13.7577 27.1758C14.0038 27.457 14.2733 27.457 14.5194 27.1758L15.996 25.3945C16.2186 25.125 16.1132 24.7148 15.7147 24.7148Z" fill="black" fill-opacity="0.85"/>
 </g>
</svg>
