<?xml version="1.0" encoding="UTF-8"?>
<!--Generator: Apple Native CoreSVG 360-->
<!DOCTYPE svg
PUBLIC "-//W3C//DTD SVG 1.1//EN"
       "http://www.w3.org/Graphics/SVG/1.1/DTD/svg11.dtd">
<svg version="1.1" xmlns="http://www.w3.org/2000/svg" xmlns:xlink="http://www.w3.org/1999/xlink" viewBox="0 0 27.4102 24.6914">
 <g>
  <rect height="24.6914" opacity="0" width="27.4102" x="0" y="0"/>
  <path d="M27.0586 6.22266C27.0586 8.65844 25.9511 10.5652 24.0747 11.5967L22.8593 10.0692C24.3174 9.36939 25.1836 7.99092 25.1836 6.22266C25.1836 3.64453 23.3086 1.88672 20.4375 1.88672L6.62109 1.88672C3.76172 1.88672 1.875 3.64453 1.875 6.22266C1.875 7.9894 2.74513 9.36702 4.20086 10.0672L2.98548 11.5948C1.11103 10.5628 0 8.65689 0 6.22266C0 2.48438 2.63672 0 6.62109 0L20.4375 0C24.4336 0 27.0586 2.48438 27.0586 6.22266Z" fill="black" fill-opacity="0.85"/>
  <path d="M7.05469 13.3828C7.40625 13.7578 7.89844 13.7227 8.35547 13.1836C10.2422 11.1094 11.1328 9.02344 11.0977 6.41016C11.0742 5.77734 10.8398 5.41406 10.3477 5.39062C9.89062 5.36719 9.45703 5.58984 9.52734 6.29297C9.67969 8.37891 8.85938 10.2422 7.21875 12.082C6.77344 12.5859 6.70312 13.0078 7.05469 13.3828ZM6.22266 15L9.42188 14.2734C9.80859 14.1797 10.0078 13.6875 9.65625 13.3828L6.92578 10.8047C6.57422 10.4766 6.09375 10.6875 6.02344 11.0859L5.50781 14.332C5.44922 14.8125 5.76562 15.1172 6.22266 15ZM13.5352 16.1953C13.9688 16.1953 14.2969 15.8555 14.2969 15.4102L14.2969 6.15234C14.2969 5.73047 13.9688 5.36719 13.5352 5.36719C13.0898 5.36719 12.75 5.73047 12.75 6.15234L12.75 15.4102C12.75 15.8555 13.0898 16.1953 13.5352 16.1953ZM13.043 17.5312C13.3008 17.918 13.7578 17.9297 14.0273 17.5312L15.8555 14.8359C16.0898 14.4844 15.8906 13.9922 15.3984 13.9922L11.6602 13.9922C11.168 13.9922 10.9688 14.4844 11.2031 14.8359ZM20.0156 13.3828C20.3672 13.0078 20.2852 12.5859 19.8516 12.082C18.1992 10.2422 17.3789 8.37891 17.5312 6.29297C17.6016 5.58984 17.168 5.36719 16.7227 5.39062C16.2305 5.41406 15.9844 5.77734 15.9609 6.41016C15.9258 9.02344 16.8164 11.1094 18.7148 13.1836C19.1719 13.7227 19.6641 13.7578 20.0156 13.3828ZM20.8359 15C21.293 15.1172 21.6094 14.8125 21.5625 14.332L21.0469 11.0859C20.9766 10.6875 20.4844 10.4766 20.1328 10.8047L17.4023 13.3828C17.0508 13.6875 17.25 14.1797 17.6484 14.2734Z" fill="black" fill-opacity="0.85"/>
  <path d="M3.02344 23.2617L6.25781 18.9375C6.64453 18.4453 6.28125 17.8125 5.70703 17.8008L1.06641 17.625C0.410156 17.5898 0.0703125 18.1055 0.269531 18.668L1.75781 23.0508C1.93359 23.5898 2.625 23.7773 3.02344 23.2617ZM13.5 24.4102C17.7539 24.4102 21.5039 22.9688 23.8945 21.0586C24.4453 20.6016 24.4805 20.1211 24.082 19.7227C23.6719 19.3125 23.2383 19.3477 22.6758 19.7578C20.6484 21.2109 17.3438 22.6406 13.5 22.6406C9.86719 22.6406 6.72656 21.375 4.6875 20.0156C4.08984 19.6172 3.66797 19.5938 3.29297 20.0156C2.92969 20.4492 3 20.9883 3.57422 21.4102C5.95312 23.1328 9.51562 24.4102 13.5 24.4102ZM23.9648 23.2617C24.375 23.7773 25.0547 23.5898 25.2422 23.0508L26.7305 18.668C26.918 18.1055 26.5898 17.5898 25.9219 17.625L21.2812 17.8008C20.7188 17.8125 20.3438 18.4453 20.7422 18.9375Z" fill="black" fill-opacity="0.85"/>
 </g>
</svg>
