<?xml version="1.0" encoding="UTF-8"?>
<!--Generator: Apple Native CoreSVG 360-->
<!DOCTYPE svg
PUBLIC "-//W3C//DTD SVG 1.1//EN"
       "http://www.w3.org/Graphics/SVG/1.1/DTD/svg11.dtd">
<svg version="1.1" xmlns="http://www.w3.org/2000/svg" xmlns:xlink="http://www.w3.org/1999/xlink" viewBox="0 0 27.6328 29.6163">
 <g>
  <rect height="29.6163" opacity="0" width="27.6328" x="0" y="0"/>
  <path d="M27.2812 20.7671L27.2812 24.9156C27.2812 26.7203 26.3789 27.5992 24.5859 27.5992L2.69531 27.5992C0.902344 27.5992 0 26.7203 0 24.9156L0 20.7671C0 18.9742 0.902344 18.107 2.69531 18.107L3.71408 18.107C3.68269 18.3623 3.66797 18.6329 3.66797 18.9156C3.66797 19.2248 3.69286 19.5482 3.74515 19.8765L2.83594 19.8765C2.14453 19.8765 1.76953 20.2281 1.76953 20.9546L1.76953 24.7398C1.76953 25.4663 2.14453 25.8296 2.83594 25.8296L24.4336 25.8296C25.1367 25.8296 25.5117 25.4663 25.5117 24.7398L25.5117 20.9546C25.5117 20.2281 25.1367 19.8765 24.4336 19.8765L22.7385 19.8765C22.5574 19.5635 22.418 19.2023 22.418 18.7046C22.418 18.4996 22.455 18.3017 22.5216 18.107L24.5859 18.107C26.3789 18.107 27.2812 18.9742 27.2812 20.7671Z" fill="black" fill-opacity="0.85"/>
  <path d="M3.9375 5.20463C3.60938 5.6851 3.87891 6.31791 4.52344 6.31791L5.80078 6.31791L5.80078 6.42338C5.80078 10.2788 7.81641 10.8179 7.81641 12.7515C7.81641 14.6851 5.27344 15.2124 5.27344 18.9156C5.27344 20.1695 5.61328 21.1304 6.50391 22.2554C7.26562 23.2163 8.84766 22.232 8.00391 21.1187C7.35938 20.2515 7.14844 19.689 7.14844 18.7867C7.14844 16.2788 9.69141 15.482 9.69141 12.7515C9.69141 9.98588 7.66406 9.36479 7.66406 6.42338L7.66406 6.31791L8.94141 6.31791C9.57422 6.31791 9.85547 5.69682 9.52734 5.20463L7.38281 2.08744C7.03125 1.5601 6.43359 1.53666 6.08203 2.08744ZM10.7461 5.16947C10.4297 5.66166 10.6992 6.28275 11.3438 6.28275L12.6211 6.28275L12.6211 6.38822C12.6211 10.2554 14.6367 10.7828 14.6367 12.7163C14.6367 14.6499 12.0938 15.189 12.0938 18.8921C12.0938 20.1343 12.4336 21.0953 13.3242 22.2203C14.0859 23.1929 15.668 22.2085 14.8242 21.0835C14.1797 20.2281 13.9688 19.6538 13.9688 18.7632C13.9688 16.2437 16.5117 15.4585 16.5117 12.7163C16.5117 9.95072 14.4844 9.32963 14.4844 6.38822L14.4844 6.28275L15.7617 6.28275C16.3828 6.28275 16.6758 5.67338 16.3477 5.16947L14.1914 2.05229C13.8516 1.53666 13.2539 1.51322 12.9023 2.05229ZM17.5898 5.1226C17.2734 5.61479 17.5312 6.23588 18.1758 6.23588L19.4648 6.23588L19.4648 6.32963C19.4648 10.1968 21.4805 10.7359 21.4805 12.6695C21.4805 14.6031 18.9375 15.1421 18.9375 18.8335C18.9375 20.0757 19.2656 21.0484 20.1562 22.1734C20.9297 23.146 22.5117 22.1499 21.668 21.0367C21.0117 20.1695 20.8125 19.607 20.8125 18.7046C20.8125 16.1968 23.3555 15.3999 23.3555 12.6695C23.3555 9.90385 21.3281 9.28275 21.3281 6.32963L21.3281 6.23588L22.5938 6.23588C23.2266 6.23588 23.5195 5.6265 23.1797 5.1226L21.0352 2.00541C20.6953 1.47807 20.0977 1.45463 19.7461 2.00541Z" fill="black" fill-opacity="0.85"/>
 </g>
</svg>
