<?xml version="1.0" encoding="UTF-8"?>
<!--Generator: Apple Native CoreSVG 360-->
<!DOCTYPE svg
PUBLIC "-//W3C//DTD SVG 1.1//EN"
       "http://www.w3.org/Graphics/SVG/1.1/DTD/svg11.dtd">
<svg version="1.1" xmlns="http://www.w3.org/2000/svg" xmlns:xlink="http://www.w3.org/1999/xlink" viewBox="0 0 27.4102 24.0059">
 <g>
  <rect height="24.0059" opacity="0" width="27.4102" x="0" y="0"/>
  <path d="M27.0586 7.71973C27.0586 11.4697 24.4336 13.9658 20.4375 13.9658L20.1445 13.9658L20.1445 12.0791L20.4375 12.0791C23.3086 12.0791 25.1836 10.3213 25.1836 7.71973C25.1836 5.1416 23.3086 3.38379 20.4375 3.38379L6.62109 3.38379C3.76172 3.38379 1.875 5.1416 1.875 7.71973C1.875 10.3213 3.76172 12.0791 6.62109 12.0791L6.91406 12.0791L6.91406 13.9658L6.62109 13.9658C2.63672 13.9658 0 11.4697 0 7.71973C0 3.98145 2.63672 1.49707 6.62109 1.49707L20.4375 1.49707C24.4336 1.49707 27.0586 3.98145 27.0586 7.71973ZM15.5273 13.9658L11.5313 13.9658L11.5313 12.0791L15.5273 12.0791Z" fill="black" fill-opacity="0.85"/>
  <path d="M9.22266 20.7861C9.75 20.7861 10.1719 20.3525 10.1719 19.8252L10.1719 8.10645C10.1719 7.5791 9.75 7.14551 9.22266 7.14551C8.69531 7.14551 8.28516 7.5791 8.28516 8.10645L8.28516 19.8252C8.28516 20.3525 8.69531 20.7861 9.22266 20.7861ZM8.54297 22.2393C8.91797 22.7666 9.53906 22.7666 9.90234 22.2393L12.375 18.6064C12.7031 18.126 12.4102 17.458 11.7656 17.458L6.69141 17.458C6.03516 17.458 5.75391 18.126 6.08203 18.6064ZM17.8359 20.7861C18.3633 20.7861 18.7852 20.3525 18.7852 19.8252L18.7852 8.10645C18.7852 7.5791 18.3633 7.14551 17.8359 7.14551C17.3086 7.14551 16.8984 7.5791 16.8984 8.10645L16.8984 19.8252C16.8984 20.3525 17.3086 20.7861 17.8359 20.7861ZM17.1562 22.2393C17.5312 22.7666 18.1523 22.7666 18.5156 22.2393L20.9883 18.6064C21.3164 18.126 21.0234 17.458 20.3672 17.458L15.3047 17.458C14.6484 17.458 14.3672 18.126 14.6953 18.6064Z" fill="black" fill-opacity="0.85"/>
 </g>
</svg>
