<?xml version="1.0" encoding="UTF-8"?>
<!--Generator: Apple Native CoreSVG 360-->
<!DOCTYPE svg
PUBLIC "-//W3C//DTD SVG 1.1//EN"
       "http://www.w3.org/Graphics/SVG/1.1/DTD/svg11.dtd">
<svg version="1.1" xmlns="http://www.w3.org/2000/svg" xmlns:xlink="http://www.w3.org/1999/xlink" viewBox="0 0 33.5742 18.9023">
 <g>
  <rect height="18.9023" opacity="0" width="33.5742" x="0" y="0"/>
  <path d="M16.6172 14.6953C18.8555 14.6953 21.1875 18.4688 25.6406 18.4688C29.9648 18.4688 33.2227 14.543 33.2227 9.38672C33.2227 0.9375 25.7812 0 16.6172 0C7.44141 0 0 0.949219 0 9.38672C0 14.543 3.25781 18.4688 7.58203 18.4688C12.0352 18.4688 14.3672 14.6953 16.6172 14.6953ZM16.6172 12.8086C13.2305 12.8086 11.6836 16.582 7.58203 16.582C4.125 16.582 1.88672 13.8398 1.88672 9.38672C1.88672 2.58984 7.64062 1.88672 16.6172 1.88672C25.582 1.88672 31.3359 2.57812 31.3359 9.38672C31.3359 13.8398 29.0977 16.582 25.6406 16.582C21.5391 16.582 19.9922 12.8086 16.6172 12.8086Z" fill="black" fill-opacity="0.85"/>
  <path d="M16.6172 12.8086C13.2305 12.8086 11.6836 16.582 7.58203 16.582C4.125 16.582 1.88672 13.8398 1.88672 9.38672C1.88672 2.58984 7.64062 1.88672 16.6172 1.88672C25.582 1.88672 31.3359 2.57812 31.3359 9.38672C31.3359 13.8398 29.0977 16.582 25.6406 16.582C21.5391 16.582 19.9922 12.8086 16.6172 12.8086Z" fill="black" fill-opacity="0.2125"/>
 </g>
</svg>
