<?xml version="1.0" encoding="UTF-8"?>
<!--Generator: Apple Native CoreSVG 360-->
<!DOCTYPE svg
PUBLIC "-//W3C//DTD SVG 1.1//EN"
       "http://www.w3.org/Graphics/SVG/1.1/DTD/svg11.dtd">
<svg version="1.1" xmlns="http://www.w3.org/2000/svg" xmlns:xlink="http://www.w3.org/1999/xlink" viewBox="0 0 44.6953 18.9023">
 <g>
  <rect height="18.9023" opacity="0" width="44.6953" x="0" y="0"/>
  <path d="M38.7773 9.38672C38.7773 14.543 35.5195 18.4688 31.1953 18.4688C26.7422 18.4688 24.4102 14.6953 22.1719 14.6953C19.9219 14.6953 17.6016 18.4688 13.1367 18.4688C9.64817 18.4688 6.84211 15.8998 5.89898 12.1875L7.79517 12.1875C8.54754 14.9628 10.4892 16.582 13.1367 16.582C17.2383 16.582 18.7969 12.8086 22.1719 12.8086C25.5469 12.8086 27.1055 16.582 31.1953 16.582C34.6523 16.582 36.8906 13.8398 36.8906 9.38672C36.8906 2.57812 31.1367 1.88672 22.1719 1.88672C14.3521 1.88672 8.97791 2.4203 7.72631 7.05469L5.79885 7.05469C7.08765 0.765804 13.9301 0 22.1719 0C31.3477 0 38.7773 0.9375 38.7773 9.38672Z" fill="black" fill-opacity="0.85"/>
  <path d="M11.3789 5.98828C11.3789 6.22266 11.4727 6.46875 11.6602 6.64453L13.2422 8.09766L14.8594 9.62109L13.2422 11.1328L11.6602 12.5977C11.4727 12.7734 11.3789 13.0078 11.3789 13.2305C11.3789 13.7109 11.7305 14.0859 12.1992 14.0859C12.457 14.0859 12.6445 13.9805 12.8203 13.8047L16.1953 10.3008C16.418 10.0664 16.5 9.85547 16.5 9.62109C16.5 9.375 16.418 9.17578 16.1953 8.94141L12.8203 5.42578C12.6445 5.25 12.457 5.15625 12.1992 5.15625C11.7305 5.15625 11.3789 5.50781 11.3789 5.98828ZM1.67578 9.62109C1.67578 10.125 2.08594 10.5469 2.57812 10.5469L12.1758 10.5469L15.3398 10.4062C15.7734 10.3828 16.125 10.0547 16.125 9.62109C16.125 9.1875 15.7734 8.85938 15.3398 8.83594L12.1758 8.68359L2.57812 8.68359C2.08594 8.68359 1.67578 9.11719 1.67578 9.62109Z" fill="black" fill-opacity="0.85"/>
 </g>
</svg>
