<?xml version="1.0" encoding="UTF-8"?>
<!--Generator: Apple Native CoreSVG 360-->
<!DOCTYPE svg
PUBLIC "-//W3C//DTD SVG 1.1//EN"
       "http://www.w3.org/Graphics/SVG/1.1/DTD/svg11.dtd">
<svg version="1.1" xmlns="http://www.w3.org/2000/svg" xmlns:xlink="http://www.w3.org/1999/xlink" viewBox="0 0 36.3398 27.3633">
 <g>
  <rect height="27.3633" opacity="0" width="36.3398" x="0" y="0"/>
  <path d="M29.9531 13.6758C29.9531 20.2734 24.5977 25.6289 18 25.6289C16.3325 25.6289 14.7444 25.2868 13.3032 24.667C13.7455 24.1536 14.1179 23.5794 14.4015 22.9577C15.5139 23.3995 16.7289 23.6367 18 23.6367C23.5078 23.6367 27.9609 19.1836 27.9609 13.6758C27.9609 8.16797 23.5078 3.71484 18 3.71484C12.9686 3.71484 8.81729 7.43095 8.14829 12.2763C7.95479 12.2539 7.75754 12.2461 7.55859 12.2461C7.0666 12.2461 6.58472 12.2943 6.11852 12.3895C6.75824 6.39542 11.8372 1.72266 18 1.72266C24.5977 1.72266 29.9531 7.07812 29.9531 13.6758ZM24.0703 9.87891C24.0703 10.1953 23.8711 10.4648 23.5664 10.5469C23.1914 10.6641 20.5195 10.9688 20.1914 11.0273C19.8516 11.0977 19.6641 11.3789 19.6641 11.7773C19.6641 12.3867 19.6641 14.332 19.793 15.2227C19.9336 16.1016 20.9648 20.332 21 20.5195C21.1289 20.9766 20.8594 21.375 20.4023 21.375C20.0742 21.375 19.8398 21.1992 19.7227 20.7539C19.5234 19.8984 18.7617 16.9688 18.5625 16.2656C18.3984 15.75 18.2695 15.5742 17.9883 15.5742C17.6953 15.5742 17.5664 15.75 17.4258 16.2656C17.1914 16.9688 16.4531 19.8984 16.2539 20.7539C16.125 21.1992 15.9023 21.375 15.5742 21.375C15.31 21.375 15.1045 21.2418 15.0038 21.0408C15.0754 20.674 15.1108 20.2961 15.1117 19.9109C15.4094 18.6683 16.0615 15.9127 16.1719 15.2227C16.3242 14.332 16.3359 12.3867 16.3242 11.7773C16.3125 11.3789 16.1133 11.0977 15.7852 11.0273C15.4453 10.9688 12.7852 10.6641 12.3984 10.5469C12.1055 10.4648 11.9062 10.1953 11.9062 9.87891C11.9062 9.45703 12.2109 9.21094 12.5039 9.21094C12.6211 9.21094 12.7148 9.24609 12.8203 9.25781C13.957 9.43359 16.3242 9.71484 17.9883 9.71484C19.6641 9.71484 22.0195 9.43359 23.1445 9.25781C23.25 9.24609 23.3555 9.21094 23.4609 9.21094C23.7539 9.21094 24.0703 9.45703 24.0703 9.87891ZM19.5117 7.41797C19.5117 8.25 18.832 8.94141 17.9883 8.94141C17.1445 8.94141 16.4648 8.25 16.4648 7.41797C16.4648 6.57422 17.1445 5.89453 17.9883 5.89453C18.832 5.89453 19.5117 6.57422 19.5117 7.41797Z" fill="black" fill-opacity="0.85"/>
  <path d="M13.5117 19.8047C13.5117 23.0625 10.7812 25.7578 7.55859 25.7578C4.30078 25.7578 1.60547 23.0859 1.60547 19.8047C1.60547 16.5469 4.30078 13.8516 7.55859 13.8516C10.8281 13.8516 13.5117 16.5352 13.5117 19.8047ZM7.04297 17.2617L5.73047 18.5273C5.70703 18.5391 5.67188 18.5625 5.64844 18.5625L4.76953 18.5625C4.34766 18.5625 4.125 18.7734 4.125 19.2305L4.125 20.3789C4.125 20.8242 4.34766 21.0469 4.76953 21.0469L5.64844 21.0469C5.67188 21.0469 5.70703 21.0586 5.73047 21.082L7.04297 22.3359C7.19531 22.4648 7.3125 22.5234 7.45312 22.5234C7.66406 22.5234 7.81641 22.3711 7.81641 22.1719L7.81641 17.4258C7.81641 17.2148 7.66406 17.0742 7.45312 17.0742C7.3125 17.0742 7.19531 17.1328 7.04297 17.2617ZM10.0312 17.5781C9.85547 17.6953 9.82031 17.9297 9.94922 18.1172C10.2773 18.5859 10.4531 19.1719 10.4531 19.793C10.4531 20.4258 10.2656 21.0234 9.96094 21.4922C9.84375 21.6562 9.85547 21.8906 10.0195 22.0195C10.1836 22.125 10.4062 22.0898 10.5469 21.9258C10.957 21.3516 11.1797 20.5898 11.1797 19.793C11.1797 18.9961 10.957 18.2344 10.5352 17.6719C10.3945 17.5078 10.1953 17.4844 10.0312 17.5781ZM8.83594 18.3867C8.64844 18.4922 8.625 18.7617 8.76562 18.9258C8.90625 19.1367 9 19.4648 9 19.793C9 20.1445 8.91797 20.4375 8.76562 20.6719C8.625 20.8477 8.64844 21.0703 8.82422 21.1992C8.98828 21.3281 9.21094 21.293 9.33984 21.1055C9.59766 20.7656 9.75 20.2852 9.75 19.793C9.75 19.3125 9.59766 18.832 9.35156 18.4922C9.22266 18.3164 9.01172 18.2812 8.83594 18.3867Z" fill="black" fill-opacity="0.85"/>
 </g>
</svg>
