<?xml version="1.0" encoding="UTF-8"?>
<!--Generator: Apple Native CoreSVG 360-->
<!DOCTYPE svg
PUBLIC "-//W3C//DTD SVG 1.1//EN"
       "http://www.w3.org/Graphics/SVG/1.1/DTD/svg11.dtd">
<svg version="1.1" xmlns="http://www.w3.org/2000/svg" xmlns:xlink="http://www.w3.org/1999/xlink" viewBox="0 0 24.2578 23.918">
 <g>
  <rect height="23.918" opacity="0" width="24.2578" x="0" y="0"/>
  <path d="M16.7578 22.4648L17.0391 20.9648C14.4023 20.9297 12.668 16.5586 12.1758 12.9375C16.7578 8.78906 19.9922 3.5625 17.5664 1.52344L16.5703 2.67188C17.9297 3.79688 15.457 7.89844 11.1797 11.7891C6.9375 10.0312 2.66016 9.36328 0.515625 11.8359L1.61719 12.6797C3.15234 11.0508 6.60938 11.543 10.6641 13.2422C11.2148 17.0625 13.2422 22.2539 16.7578 22.4648ZM13.8633 18.7383C21.6562 14.0156 22.7812 7.91016 22.1719 5.91797L20.707 6.35156C21.1523 7.83984 20.1914 13.2422 12.8789 17.5664ZM10.7109 23.5547L11.8594 22.3359C9.94922 21.8086 5.75391 17.8828 5.66016 11.1562L4.125 11.2852C4.23047 17.9531 8.22656 22.3477 10.7109 23.5547ZM15.0234 8.12109L15.6914 6.75C12.3867 4.59375 6.59766 2.78906 2.08594 5.8125L2.19141 7.41797C6.21094 4.32422 11.7305 5.98828 15.0234 8.12109ZM11.9531 0C5.35547 0 0 5.35547 0 11.9531C0 18.5508 5.35547 23.9062 11.9531 23.9062C18.5508 23.9062 23.9062 18.5508 23.9062 11.9531C23.9062 5.35547 18.5508 0 11.9531 0ZM11.9531 1.59375C17.6719 1.59375 22.3125 6.23438 22.3125 11.9531C22.3125 17.6719 17.6719 22.3125 11.9531 22.3125C6.23438 22.3125 1.59375 17.6719 1.59375 11.9531C1.59375 6.23438 6.23438 1.59375 11.9531 1.59375Z" fill="black" fill-opacity="0.85"/>
 </g>
</svg>
