<?xml version="1.0" encoding="UTF-8"?>
<!--Generator: Apple Native CoreSVG 360-->
<!DOCTYPE svg
PUBLIC "-//W3C//DTD SVG 1.1//EN"
       "http://www.w3.org/Graphics/SVG/1.1/DTD/svg11.dtd">
<svg version="1.1" xmlns="http://www.w3.org/2000/svg" xmlns:xlink="http://www.w3.org/1999/xlink" viewBox="0 0 24.2578 23.918">
 <g>
  <rect height="23.918" opacity="0" width="24.2578" x="0" y="0"/>
  <path d="M11.9531 23.9062C18.5508 23.9062 23.9062 18.5508 23.9062 11.9531C23.9062 5.35547 18.5508 0 11.9531 0C5.35547 0 0 5.35547 0 11.9531C0 18.5508 5.35547 23.9062 11.9531 23.9062ZM11.9531 21.9141C6.44531 21.9141 1.99219 17.4609 1.99219 11.9531C1.99219 6.44531 6.44531 1.99219 11.9531 1.99219C17.4609 1.99219 21.9141 6.44531 21.9141 11.9531C21.9141 17.4609 17.4609 21.9141 11.9531 21.9141Z" fill="black" fill-opacity="0.85"/>
  <path d="M8.78906 17.4375C9.42188 17.4375 9.84375 17.1211 9.98438 16.5352L11.8828 9.14062L11.9648 9.14062L13.875 16.5352C14.0156 17.1211 14.4375 17.4375 15.0586 17.4375C15.6797 17.4375 16.0781 17.1094 16.2305 16.5117L18.5508 7.61719C18.5977 7.48828 18.6094 7.37109 18.6094 7.26562C18.6094 6.73828 18.2461 6.375 17.707 6.375C17.1562 6.375 16.8984 6.63281 16.7461 7.30078L15 14.7539L14.918 14.7539L12.9492 7.17188C12.8086 6.64453 12.4805 6.39844 11.9297 6.39844C11.3789 6.39844 11.0273 6.64453 10.8984 7.17188L8.94141 14.7539L8.85938 14.7539L7.11328 7.30078C6.96094 6.63281 6.71484 6.375 6.16406 6.375C5.61328 6.375 5.26172 6.73828 5.26172 7.26562C5.26172 7.37109 5.27344 7.48828 5.30859 7.61719L7.62891 16.5117C7.78125 17.1094 8.17969 17.4375 8.78906 17.4375Z" fill="black" fill-opacity="0.85"/>
 </g>
</svg>
