<?xml version="1.0" encoding="UTF-8"?>
<!--Generator: Apple Native CoreSVG 360-->
<!DOCTYPE svg
PUBLIC "-//W3C//DTD SVG 1.1//EN"
       "http://www.w3.org/Graphics/SVG/1.1/DTD/svg11.dtd">
<svg version="1.1" xmlns="http://www.w3.org/2000/svg" xmlns:xlink="http://www.w3.org/1999/xlink" viewBox="0 0 21.9258 21.5742">
 <g>
  <rect height="21.5742" opacity="0" width="21.9258" x="0" y="0"/>
  <path d="M3.67969 21.5742L17.8945 21.5742C20.3555 21.5742 21.5742 20.3672 21.5742 17.9531L21.5742 3.63281C21.5742 1.21875 20.3555 0 17.8945 0L3.67969 0C1.23047 0 0 1.21875 0 3.63281L0 17.9531C0 20.3672 1.23047 21.5742 3.67969 21.5742ZM3.70312 19.6875C2.53125 19.6875 1.88672 19.0664 1.88672 17.8477L1.88672 3.73828C1.88672 2.51953 2.53125 1.88672 3.70312 1.88672L17.8711 1.88672C19.0312 1.88672 19.6875 2.51953 19.6875 3.73828L19.6875 17.8477C19.6875 19.0664 19.0312 19.6875 17.8711 19.6875Z" fill="black" fill-opacity="0.85"/>
  <path d="M7.65234 16.2773C8.27344 16.2773 8.69531 15.9609 8.83594 15.375L10.7344 7.98047L10.8281 7.98047L12.7266 15.375C12.8672 15.9609 13.2891 16.2773 13.9102 16.2773C14.5312 16.2773 14.9297 15.9492 15.082 15.3516L17.4141 6.45703C17.4492 6.32812 17.4609 6.21094 17.4609 6.10547C17.4609 5.57812 17.1094 5.21484 16.5586 5.21484C16.0078 5.21484 15.75 5.47266 15.6094 6.14062L13.8516 13.5938L13.7695 13.5938L11.8008 6.01172C11.6602 5.48438 11.332 5.23828 10.7812 5.23828C10.2305 5.23828 9.89062 5.48438 9.76172 6.01172L7.79297 13.5938L7.71094 13.5938L5.96484 6.14062C5.82422 5.47266 5.56641 5.21484 5.01562 5.21484C4.46484 5.21484 4.11328 5.57812 4.11328 6.10547C4.11328 6.21094 4.125 6.32812 4.16016 6.45703L6.48047 15.3516C6.63281 15.9492 7.03125 16.2773 7.65234 16.2773Z" fill="black" fill-opacity="0.85"/>
 </g>
</svg>
