<?xml version="1.0" encoding="UTF-8"?>
<!--Generator: Apple Native CoreSVG 360-->
<!DOCTYPE svg
PUBLIC "-//W3C//DTD SVG 1.1//EN"
       "http://www.w3.org/Graphics/SVG/1.1/DTD/svg11.dtd">
<svg version="1.1" xmlns="http://www.w3.org/2000/svg" xmlns:xlink="http://www.w3.org/1999/xlink" viewBox="0 0 28.3008 24.1992">
 <g>
  <rect height="24.1992" opacity="0" width="28.3008" x="0" y="0"/>
  <path d="M3.55078 24.1992L22.3945 24.1992C24.75 24.1992 25.9336 23.0156 25.9336 20.707L25.9336 17.3203L24.0352 17.3203L24.0352 20.6016C24.0352 21.7383 23.4258 22.3008 22.3594 22.3008L3.57422 22.3008C2.49609 22.3008 1.91016 21.7383 1.91016 20.6016L1.91016 8.68359C1.91016 7.55859 2.49609 6.97266 3.57422 6.97266L22.3594 6.97266C23.4258 6.97266 24.0352 7.55859 24.0352 8.68359L24.0352 11.5312L25.9336 11.5312L25.9336 8.57812C25.9336 6.26953 24.75 5.07422 22.3945 5.07422L9.375 5.07422C9.17578 5.07422 9.15234 4.88672 9.36328 4.83984L18.4219 2.33203C19.5469 2.00391 20.1328 2.41406 20.1328 3.44531L20.1328 5.88281L22.043 5.71875L22.043 3.60938C22.043 0.84375 20.1445-0.0117188 17.5781 0.726562L2.55469 5.09766C0.796875 5.625 0 6.69141 0 8.57812L0 20.707C0 23.0273 1.20703 24.1992 3.55078 24.1992ZM21.3516 15.7969C22.0078 15.7969 22.5352 15.2695 22.5352 14.6133C22.5352 13.957 22.0078 13.4297 21.3516 13.4297C20.6953 13.4297 20.168 13.957 20.168 14.6133C20.168 15.2695 20.6953 15.7969 21.3516 15.7969ZM21.2344 18.3047L25.5703 18.3047C27.0352 18.3047 27.9492 17.2734 27.9492 15.9258L27.9492 13.3242C27.9492 11.9766 27.0352 10.957 25.5703 10.957L21.2344 10.957C18.8672 10.957 17.2852 12.1758 17.2852 14.625C17.2852 17.0859 18.8672 18.3047 21.2344 18.3047ZM21.3516 16.7344C19.7109 16.7344 18.9375 15.9375 18.9375 14.625C18.9375 13.3125 19.7109 12.5156 21.3516 12.5156L25.1602 12.5156C25.9688 12.5156 26.3906 12.9727 26.3906 13.7344L26.3906 15.5156C26.3906 16.2773 25.9688 16.7344 25.1602 16.7344Z" fill="black" fill-opacity="0.85"/>
 </g>
</svg>
