<?xml version="1.0" encoding="UTF-8"?>
<!--Generator: Apple Native CoreSVG 360-->
<!DOCTYPE svg
PUBLIC "-//W3C//DTD SVG 1.1//EN"
       "http://www.w3.org/Graphics/SVG/1.1/DTD/svg11.dtd">
<svg version="1.1" xmlns="http://www.w3.org/2000/svg" xmlns:xlink="http://www.w3.org/1999/xlink" viewBox="0 0 25.3242 25.0664">
 <g>
  <rect height="25.0664" opacity="0" width="25.3242" x="0" y="0"/>
  <path d="M21.9492 23.918C22.4883 24.4453 23.332 24.4453 23.8125 23.918C24.3164 23.3906 24.3398 22.5938 23.8008 22.0664L12.6328 10.8867C12.1055 10.3711 11.2617 10.3711 10.7695 10.8867C10.2656 11.4141 10.2539 12.2227 10.7812 12.75ZM15.0117 15.7031L11.5195 12.1992C11.3555 12.0352 11.3555 11.7891 11.5195 11.625C11.6719 11.4727 11.9297 11.4609 12.0938 11.625L15.5977 15.1289Z" fill="black" fill-opacity="0.85"/>
  <path d="M23.9414 13.5C24.5039 13.5 24.9727 13.0312 24.9727 12.4805C24.9727 11.9297 24.5039 11.4609 23.9414 11.4609L20.332 11.4609C19.7812 11.4609 19.3125 11.9297 19.3125 12.4805C19.3125 13.0312 19.7812 13.5 20.332 13.5Z" fill="black" fill-opacity="0.85"/>
  <path d="M17.2852 6.24609C16.8867 6.63281 16.8867 7.28906 17.2852 7.6875C17.6719 8.07422 18.3398 8.07422 18.7383 7.6875L21.2812 5.13281C21.6797 4.73438 21.6797 4.07812 21.2812 3.67969C20.8945 3.29297 20.2383 3.29297 19.8516 3.67969Z" fill="black" fill-opacity="0.85"/>
  <path d="M13.5117 1.01953C13.5117 0.46875 13.043 0 12.4805 0C11.9297 0 11.4609 0.46875 11.4609 1.01953L11.4609 4.62891C11.4609 5.19141 11.9297 5.66016 12.4805 5.66016C13.043 5.66016 13.5117 5.19141 13.5117 4.62891Z" fill="black" fill-opacity="0.85"/>
  <path d="M6.23438 7.6875C6.62109 8.07422 7.27734 8.07422 7.67578 7.6875C8.0625 7.28906 8.0625 6.63281 7.67578 6.24609L5.13281 3.69141C4.74609 3.30469 4.08984 3.29297 3.69141 3.67969C3.30469 4.06641 3.30469 4.72266 3.69141 5.12109Z" fill="black" fill-opacity="0.85"/>
  <path d="M1.01953 11.4609C0.46875 11.4609 0 11.9297 0 12.4805C0 13.0312 0.46875 13.5 1.01953 13.5L4.65234 13.5C5.20312 13.5 5.67188 13.0312 5.67188 12.4805C5.67188 11.9297 5.20312 11.4609 4.65234 11.4609Z" fill="black" fill-opacity="0.85"/>
  <path d="M3.67969 19.8281C3.29297 20.2148 3.29297 20.8828 3.66797 21.2695C4.05469 21.6562 4.72266 21.668 5.12109 21.2812L7.67578 18.7266C8.0625 18.3398 8.0625 17.6836 7.67578 17.2969C7.30078 16.8984 6.62109 16.8984 6.23438 17.2969Z" fill="black" fill-opacity="0.85"/>
  <path d="M13.5117 20.3438C13.5117 19.7812 13.043 19.3125 12.4805 19.3125C11.9297 19.3125 11.4609 19.7812 11.4609 20.3438L11.4609 23.9531C11.4609 24.5039 11.9297 24.9727 12.4805 24.9727C13.043 24.9727 13.5117 24.5039 13.5117 23.9531Z" fill="black" fill-opacity="0.85"/>
 </g>
</svg>
