<?xml version="1.0" encoding="UTF-8"?>
<!--Generator: Apple Native CoreSVG 360-->
<!DOCTYPE svg
PUBLIC "-//W3C//DTD SVG 1.1//EN"
       "http://www.w3.org/Graphics/SVG/1.1/DTD/svg11.dtd">
<svg version="1.1" xmlns="http://www.w3.org/2000/svg" xmlns:xlink="http://www.w3.org/1999/xlink" viewBox="0 0 24.6914 24.7617">
 <g>
  <rect height="24.7617" opacity="0" width="24.6914" x="0" y="0"/>
  <path d="M16.3945 8.48438C16.5586 8.48438 16.6875 8.36719 16.7227 8.19141C17.2383 5.55469 17.5898 4.98047 20.3203 4.58203C20.5078 4.55859 20.625 4.41797 20.625 4.25391C20.625 4.06641 20.5078 3.92578 20.3203 3.90234C17.5898 3.50391 17.1211 2.87109 16.7227 0.316406C16.6875 0.117188 16.5586 0 16.3945 0C16.207 0 16.0781 0.117188 16.043 0.304688C15.5273 2.91797 15.1758 3.50391 12.457 3.90234C12.2578 3.92578 12.1406 4.06641 12.1406 4.25391C12.1406 4.41797 12.2578 4.54688 12.457 4.58203C15.1758 4.98047 15.6328 5.55469 16.043 8.17969C16.0664 8.36719 16.1836 8.48438 16.3945 8.48438ZM3.32812 18.0938C3.50391 18.0938 3.62109 17.9766 3.64453 17.8125C3.99609 15.6094 3.99609 15.4453 6.38672 15.0703C6.55078 15.0469 6.66797 14.9414 6.66797 14.7656C6.66797 14.5898 6.55078 14.4844 6.38672 14.4609C3.99609 14.0859 3.99609 13.9219 3.64453 11.7188C3.62109 11.5547 3.50391 11.4375 3.32812 11.4375C3.16406 11.4375 3.04688 11.5547 3.02344 11.7188C2.67188 13.9219 2.67188 14.0859 0.28125 14.4609C0.117188 14.4844 0 14.5898 0 14.7656C0 14.9414 0.117188 15.0469 0.28125 15.0703C2.67188 15.4453 2.67188 15.6094 3.02344 17.8125C3.04688 17.9766 3.16406 18.0938 3.32812 18.0938ZM7.24219 21.3984C7.38281 21.3984 7.47656 21.293 7.51172 21.1523C7.72266 19.8516 7.66406 19.793 9.15234 19.5234C9.29297 19.4883 9.38672 19.3828 9.38672 19.2539C9.38672 19.125 9.29297 19.0078 9.15234 18.9844C7.67578 18.7148 7.74609 18.6797 7.51172 17.3438C7.47656 17.2148 7.37109 17.1094 7.24219 17.1094C7.10156 17.1094 7.00781 17.2148 6.97266 17.3672C6.69141 18.6797 6.80859 18.75 5.34375 18.9844C5.19141 19.0078 5.09766 19.1133 5.09766 19.2539C5.09766 19.3828 5.19141 19.4883 5.33203 19.5234C6.80859 19.793 6.69141 19.8516 6.97266 21.1523C7.00781 21.293 7.10156 21.3984 7.24219 21.3984Z" fill="black" fill-opacity="0.85"/>
  <path d="M20.7422 22.7109C21.2578 23.2383 22.1133 23.2266 22.6055 22.7109C23.1094 22.1836 23.1094 21.3867 22.5938 20.8477L7.61719 5.87109C7.10156 5.34375 6.24609 5.34375 5.75391 5.87109C5.25 6.39844 5.25 7.19531 5.76562 7.72266ZM10.5938 11.2852L6.5625 7.24219C6.39844 7.07812 6.39844 6.83203 6.5625 6.66797C6.71484 6.51562 6.97266 6.50391 7.13672 6.66797L11.1797 10.7227Z" fill="black" fill-opacity="0.85"/>
 </g>
</svg>
