<?xml version="1.0" encoding="UTF-8"?>
<!--Generator: Apple Native CoreSVG 360-->
<!DOCTYPE svg
PUBLIC "-//W3C//DTD SVG 1.1//EN"
       "http://www.w3.org/Graphics/SVG/1.1/DTD/svg11.dtd">
<svg version="1.1" xmlns="http://www.w3.org/2000/svg" xmlns:xlink="http://www.w3.org/1999/xlink" viewBox="0 0 25.0286 26.0943">
 <g>
  <rect height="26.0943" opacity="0" width="25.0286" x="0" y="0"/>
  <path d="M15.3327 0.79522C15.3327 1.18194 15.0748 1.55694 14.5358 1.62725C6.16859 2.83428 1.91468 9.2796 1.91468 14.8343C1.91468 19.5101 4.97328 23.1077 10.0709 23.1077C12.1549 23.1077 14.2608 22.4772 16.1387 21.391L17.3876 22.6411C15.1614 23.9973 12.6209 24.7718 10.1178 24.7718C4.07093 24.7718 0.262341 20.4358 0.262341 14.7874C0.262341 7.07647 6.86 0.736627 14.3366 0.0100642C14.9928-0.0719671 15.3327 0.361627 15.3327 0.79522ZM24.4264 11.0257C24.4264 13.7454 23.5099 16.2635 22.0024 18.3733L20.7776 17.1473C22.046 15.3264 22.8092 13.2154 22.8092 11.0257C22.8092 7.69756 20.4186 5.67022 17.5475 5.67022C15.573 5.67022 13.4393 6.57189 11.646 8.00748L11.1608 7.52178C10.8872 7.24818 10.5768 7.03596 10.2448 6.8881C12.4319 5.15413 15.1052 4.09991 17.5709 4.09991C21.5905 4.09991 24.4264 6.90069 24.4264 11.0257Z" fill="black" fill-opacity="0.85"/>
  <path d="M20.9577 23.6116C21.485 24.1507 22.3287 24.139 22.8209 23.6116C23.3131 23.0843 23.3366 22.2991 22.8092 21.7601L9.86 8.82256C9.33265 8.29522 8.4889 8.29522 7.99672 8.82256C7.49281 9.34991 7.48109 10.1468 8.00843 10.6741ZM12.2506 13.639L8.74672 10.1233C8.58265 9.95928 8.58265 9.72491 8.74672 9.56085C8.91078 9.39678 9.16859 9.39678 9.33265 9.56085L12.8366 13.0648Z" fill="black" fill-opacity="0.85"/>
 </g>
</svg>
