<?xml version="1.0" encoding="UTF-8"?>
<!--Generator: Apple Native CoreSVG 360-->
<!DOCTYPE svg
PUBLIC "-//W3C//DTD SVG 1.1//EN"
       "http://www.w3.org/Graphics/SVG/1.1/DTD/svg11.dtd">
<svg version="1.1" xmlns="http://www.w3.org/2000/svg" xmlns:xlink="http://www.w3.org/1999/xlink" viewBox="0 0 27.9776 27.082">
 <g>
  <rect height="27.082" opacity="0" width="27.9776" x="0" y="0"/>
  <path d="M23.979 3.90234L23.979 16.2969C23.6311 16.2106 23.2757 16.1602 22.9595 16.1602C22.6694 16.1602 22.3851 16.1915 22.0923 16.2595L22.0923 8.75391L5.53373 8.75391L5.53373 22.8984C5.53373 23.4609 5.90873 23.8242 6.44779 23.8242L14.571 23.8242L15.0962 25.2422C15.1586 25.409 15.2335 25.5659 15.3208 25.7109L6.36576 25.7109C4.73685 25.7109 3.64701 24.5977 3.64701 22.9219L3.64701 3.90234C3.64701 2.22656 4.73685 1.10156 6.36576 1.10156L21.272 1.10156C22.8892 1.10156 23.979 2.22656 23.979 3.90234ZM19.9478 16.2891L19.9199 16.842C19.4659 16.6003 19.063 16.4293 18.6807 16.319C18.6821 16.3093 18.6822 16.2992 18.6822 16.2891C18.6822 13.582 16.5142 11.4141 13.8189 11.4141C11.1119 11.4141 8.94388 13.582 8.94388 16.2891C8.94388 18.9029 10.9828 21.0208 13.5767 21.1403L14.0458 22.4065C13.9718 22.4166 13.8955 22.418 13.8189 22.418C10.4204 22.418 7.67826 19.6758 7.67826 16.2891C7.67826 12.9023 10.4204 10.1484 13.8189 10.1484C17.2056 10.1484 19.9478 12.9023 19.9478 16.2891ZM6.44779 2.98828C5.90873 2.98828 5.53373 3.36328 5.53373 3.92578L5.53373 7.21875L22.0923 7.21875L22.0923 3.92578C22.0923 3.36328 21.729 2.98828 21.1783 2.98828ZM9.09623 5.09766C9.09623 5.67188 8.63919 6.14062 8.06498 6.14062C7.50248 6.14062 7.03373 5.67188 7.03373 5.09766C7.03373 4.53516 7.50248 4.06641 8.06498 4.06641C8.63919 4.06641 9.09623 4.53516 9.09623 5.09766ZM12.0845 5.09766C12.0845 5.67188 11.6275 6.14062 11.0533 6.14062C10.4908 6.14062 10.0337 5.67188 10.0337 5.09766C10.0337 4.53516 10.4908 4.06641 11.0533 4.06641C11.6275 4.06641 12.0845 4.53516 12.0845 5.09766ZM20.5689 5.09766C20.5689 5.46094 20.3345 5.69531 19.9829 5.69531L17.1822 5.69531C16.8306 5.69531 16.5962 5.46094 16.5962 5.09766C16.5962 4.74609 16.8306 4.51172 17.1822 4.51172L19.9829 4.51172C20.3345 4.51172 20.5689 4.74609 20.5689 5.09766Z" fill="black" fill-opacity="0.85"/>
  <path d="M17.7212 25.7109L22.8189 25.7109C23.4165 25.7109 23.9322 25.3828 24.1665 24.7617L26.5454 18.3516C26.7329 17.8242 26.4751 17.4375 26.1236 17.3086C25.7603 17.168 25.3033 17.2969 25.104 17.8125L24.94 18.2461C24.354 17.9414 23.8267 17.5312 22.9595 17.5312C21.6353 17.5312 21.2017 18.4102 20.2759 18.4102C19.3501 18.4102 18.9048 17.5312 17.5806 17.5312C16.7134 17.5312 16.1978 17.9414 15.6119 18.2461L15.4361 17.8125C15.2486 17.2969 14.7798 17.168 14.4283 17.3086C14.065 17.4375 13.8189 17.8242 14.0064 18.3516L16.3853 24.7617C16.6079 25.3828 17.1353 25.7109 17.7212 25.7109ZM18.1079 24.1758C17.9204 24.1758 17.7798 24.0938 17.6978 23.8711L15.9751 19.2656C16.5494 18.9609 16.9478 18.6328 17.5806 18.6328C18.6236 18.6328 18.9283 19.5117 20.2759 19.5117C21.6119 19.5117 21.9165 18.6328 22.9595 18.6328C23.604 18.6328 23.9908 18.9609 24.565 19.2656L22.8423 23.8711C22.7603 24.0938 22.6197 24.1758 22.4322 24.1758Z" fill="black" fill-opacity="0.85"/>
 </g>
</svg>
