<?xml version="1.0" encoding="UTF-8"?>
<!--Generator: Apple Native CoreSVG 360-->
<!DOCTYPE svg
PUBLIC "-//W3C//DTD SVG 1.1//EN"
       "http://www.w3.org/Graphics/SVG/1.1/DTD/svg11.dtd">
<svg version="1.1" xmlns="http://www.w3.org/2000/svg" xmlns:xlink="http://www.w3.org/1999/xlink" viewBox="0 0 19.9336 27.7383">
 <g>
  <rect height="27.7383" opacity="0" width="19.9336" x="0" y="0"/>
  <path d="M4.5 6.16406L9.22266 5.96484L13.9336 6.14062L13.9336 1.24219C13.9336 0.503906 13.4062 0.0117188 12.6445 0.0117188L5.78906 0.0234375C5.03906 0.0234375 4.5 0.515625 4.5 1.25391ZM5.78906 27.7266L12.6445 27.7383C13.4062 27.7383 13.9336 27.2344 13.9336 26.5078L13.9336 21.5742L9.22266 21.7383L4.5 21.5625L4.5 26.4961C4.5 27.2227 5.03906 27.7266 5.78906 27.7266ZM9.22266 23.0742C14.3672 23.0742 18.4336 19.0078 18.4336 13.8633C18.4336 8.70703 14.3672 4.64062 9.22266 4.64062C4.06641 4.64062 0 8.70703 0 13.8633C0 19.0078 4.06641 23.0742 9.22266 23.0742ZM9.22266 21.3047C4.80469 21.3047 1.76953 18.2812 1.76953 13.8633C1.76953 9.44531 4.80469 6.41016 9.22266 6.41016C13.6289 6.41016 16.6641 9.44531 16.6641 13.8633C16.6641 18.2812 13.6289 21.3047 9.22266 21.3047ZM17.8008 15.6328L18.9961 15.6328C19.3359 15.6328 19.582 15.3867 19.582 15.0352L19.582 12.668C19.582 12.3281 19.3359 12.0703 18.9961 12.0703L17.8008 12.0703Z" fill="black" fill-opacity="0.85"/>
  <path d="M9.96094 14.5195L13.7109 11.25C14.0391 10.957 14.0391 10.4531 13.7227 10.125C13.4297 9.83203 12.9492 9.84375 12.6094 10.125L9.22266 13.0664L7.08984 11.2734C6.77344 11.0039 6.28125 11.0508 5.98828 11.3789C5.70703 11.707 5.75391 12.2109 6.09375 12.5039L8.49609 14.5195C8.98828 14.9531 9.48047 14.9531 9.96094 14.5195Z" fill="black" fill-opacity="0.85"/>
 </g>
</svg>
