<?xml version="1.0" encoding="UTF-8"?>
<!--Generator: Apple Native CoreSVG 360-->
<!DOCTYPE svg
PUBLIC "-//W3C//DTD SVG 1.1//EN"
       "http://www.w3.org/Graphics/SVG/1.1/DTD/svg11.dtd">
<svg version="1.1" xmlns="http://www.w3.org/2000/svg" xmlns:xlink="http://www.w3.org/1999/xlink" viewBox="0 0 24.9844 24.2227">
 <g>
  <rect height="24.2227" opacity="0" width="24.9844" x="0" y="0"/>
  <path d="M20.8945 11.2969C21.7734 11.9297 22.4766 12.4453 23.7422 12.4453L23.8008 12.4453C24.2578 12.4453 24.6328 12.8203 24.6328 13.2773C24.6328 13.7344 24.2578 14.0977 23.8008 14.0977L23.7422 14.0977C20.0859 14.0977 19.7812 11.7188 17.8828 11.7188C17.4274 11.7188 17.0524 11.8609 16.6997 12.0769L15.685 10.7489C16.2869 10.3766 17.0023 10.0664 17.8828 10.0664C19.1836 10.0664 20.1328 10.7461 20.8945 11.2969ZM8.9328 10.7396L7.9178 12.0693C7.57012 11.8573 7.19964 11.7188 6.75 11.7188C4.85156 11.7188 4.53516 14.0977 0.890625 14.0977L0.832031 14.0977C0.363281 14.0977 0 13.7344 0 13.2773C0 12.8203 0.363281 12.4453 0.832031 12.4453L0.890625 12.4453C2.14453 12.4453 2.85938 11.9297 3.73828 11.2969C4.5 10.7461 5.44922 10.0664 6.75 10.0664C7.62319 10.0664 8.33403 10.3714 8.9328 10.7396Z" fill="black" fill-opacity="0.85"/>
  <path d="M20.8945 4.21875C21.7734 4.83984 22.4766 5.36719 23.7422 5.36719L23.8008 5.36719C24.2578 5.36719 24.6328 5.73047 24.6328 6.1875C24.6328 6.64453 24.2578 7.01953 23.8008 7.01953L23.7422 7.01953C20.0859 7.01953 19.7812 4.64062 17.8828 4.64062C16.0195 4.64062 15.5039 7.01953 12.3164 7.01953C9.11719 7.01953 8.61328 4.64062 6.75 4.64062C4.85156 4.64062 4.53516 7.01953 0.890625 7.01953L0.832031 7.01953C0.363281 7.01953 0 6.64453 0 6.1875C0 5.73047 0.363281 5.36719 0.832031 5.36719L0.890625 5.36719C2.14453 5.36719 2.85938 4.83984 3.73828 4.21875C4.5 3.66797 5.44922 2.98828 6.75 2.98828C8.09766 2.98828 9.05859 3.70312 9.82031 4.27734C10.6289 4.88672 11.2617 5.36719 12.3164 5.36719C13.3594 5.36719 14.0039 4.88672 14.8125 4.27734C15.5742 3.70312 16.5352 2.98828 17.8828 2.98828C19.1836 2.98828 20.1328 3.66797 20.8945 4.21875Z" fill="black" fill-opacity="0.85"/>
  <path d="M9.22266 14.707L15.3867 14.707C16.125 14.707 16.4297 13.9805 16.0078 13.4297L12.9961 9.48047C12.5742 8.94141 12.0469 8.92969 11.6133 9.48047L8.60156 13.418C8.16797 13.9805 8.47266 14.707 9.22266 14.707ZM11.3789 12.6328L11.3789 21.9492C11.3789 22.4414 11.8008 22.8633 12.3047 22.8633C12.8086 22.8633 13.2422 22.4414 13.2422 21.9492L13.2422 12.6328C13.2422 12.1406 12.8086 11.7305 12.3047 11.7305C11.8008 11.7305 11.3789 12.1406 11.3789 12.6328Z" fill="black" fill-opacity="0.85"/>
 </g>
</svg>
