<?xml version="1.0" encoding="UTF-8"?>
<!--Generator: Apple Native CoreSVG 360-->
<!DOCTYPE svg
PUBLIC "-//W3C//DTD SVG 1.1//EN"
       "http://www.w3.org/Graphics/SVG/1.1/DTD/svg11.dtd">
<svg version="1.1" xmlns="http://www.w3.org/2000/svg" xmlns:xlink="http://www.w3.org/1999/xlink" viewBox="0 0 24.9844 24.2197">
 <g>
  <rect height="24.2197" opacity="0" width="24.9844" x="0" y="0"/>
  <path d="M20.8945 4.21729C21.7734 4.83838 22.4766 5.36573 23.7422 5.36573L23.8008 5.36573C24.2578 5.36573 24.6328 5.72901 24.6328 6.18604C24.6328 6.64307 24.2578 7.01807 23.8008 7.01807L23.7422 7.01807C20.0859 7.01807 19.7812 4.63917 17.8828 4.63917C16.0195 4.63917 15.5039 7.01807 12.3164 7.01807C9.11719 7.01807 8.61328 4.63917 6.75 4.63917C4.85156 4.63917 4.53516 7.01807 0.890625 7.01807L0.832031 7.01807C0.363281 7.01807 0 6.64307 0 6.18604C0 5.72901 0.363281 5.36573 0.832031 5.36573L0.890625 5.36573C2.14453 5.36573 2.85938 4.83838 3.73828 4.21729C4.5 3.66651 5.44922 2.98682 6.75 2.98682C8.09766 2.98682 9.05859 3.70167 9.82031 4.27588C10.6289 4.88526 11.2617 5.36573 12.3164 5.36573C13.3594 5.36573 14.0039 4.88526 14.8125 4.27588C15.5742 3.70167 16.5352 2.98682 17.8828 2.98682C19.1836 2.98682 20.1328 3.66651 20.8945 4.21729Z" fill="black" fill-opacity="0.85"/>
  <path d="M20.8945 11.2954C21.7734 11.9282 22.4766 12.4439 23.7422 12.4439L23.8008 12.4439C24.2578 12.4439 24.6328 12.8189 24.6328 13.2759C24.6328 13.7329 24.2578 14.0962 23.8008 14.0962L23.7422 14.0962C20.0859 14.0962 19.7812 11.7173 17.8828 11.7173C16.5885 11.7173 15.9444 12.8652 14.6016 13.5651L14.6016 11.5121C14.6706 11.4609 14.7409 11.4079 14.8125 11.354C15.5742 10.7915 16.5352 10.0649 17.8828 10.0649C19.1836 10.0649 20.1328 10.7446 20.8945 11.2954ZM9.82031 11.354C9.88389 11.4019 9.94639 11.449 10.0078 11.4948L10.0078 13.5563C8.67712 12.8552 8.03868 11.7173 6.75 11.7173C4.85156 11.7173 4.53516 14.0962 0.890625 14.0962L0.832031 14.0962C0.363281 14.0962 0 13.7329 0 13.2759C0 12.8189 0.363281 12.4439 0.832031 12.4439L0.890625 12.4439C2.14453 12.4439 2.85938 11.9282 3.73828 11.2954C4.5 10.7446 5.44922 10.0649 6.75 10.0649C8.09766 10.0649 9.05859 10.7915 9.82031 11.354Z" fill="black" fill-opacity="0.85"/>
  <path d="M9.22266 17.2251C8.47266 17.2251 8.16797 17.9517 8.60156 18.5024L11.6133 22.4517C12.0469 22.9907 12.5742 22.979 12.9961 22.4517L16.0078 18.4907C16.4297 17.9517 16.125 17.2251 15.3867 17.2251ZM11.3789 9.9712L11.3789 19.2876C11.3789 19.7798 11.8008 20.1899 12.3047 20.1899C12.8086 20.1899 13.2422 19.7798 13.2422 19.2876L13.2422 9.9712C13.2422 9.47901 12.8086 9.06885 12.3047 9.06885C11.8008 9.06885 11.3789 9.47901 11.3789 9.9712Z" fill="black" fill-opacity="0.85"/>
 </g>
</svg>
