<?xml version="1.0" encoding="UTF-8"?>
<!--Generator: Apple Native CoreSVG 360-->
<!DOCTYPE svg
PUBLIC "-//W3C//DTD SVG 1.1//EN"
       "http://www.w3.org/Graphics/SVG/1.1/DTD/svg11.dtd">
<svg version="1.1" xmlns="http://www.w3.org/2000/svg" xmlns:xlink="http://www.w3.org/1999/xlink" viewBox="0 0 13.8047 27.8555">
 <g>
  <rect height="27.8555" opacity="0" width="13.8047" x="0" y="0"/>
  <path d="M3.31641 3.01172L10.1367 3.01172C10.7344 3.01172 11.1797 2.58984 11.1797 1.96875L11.1797 1.04297C11.1797 0.433594 10.7344 0 10.1367 0L3.31641 0C2.69531 0 2.27344 0.433594 2.27344 1.04297L2.27344 1.96875C2.27344 2.58984 2.69531 3.01172 3.31641 3.01172ZM5.16797 2.74219L3.29297 2.19141L1.05469 5.30859C0.210938 6.49219 0 7.61719 0 9.21094L0 23.8359C0 26.4141 1.28906 27.8438 3.63281 27.8438L9.80859 27.8438C12.1406 27.8438 13.4531 26.4141 13.4531 23.8359L13.4531 9.21094C13.4531 7.61719 13.2188 6.49219 12.375 5.30859L10.1484 2.19141L8.26172 2.74219L10.7695 6.29297C11.4492 7.27734 11.5664 7.875 11.5664 9.21094L11.5664 23.8359C11.5664 25.2305 10.957 25.957 9.80859 25.957L3.63281 25.957C2.48438 25.957 1.88672 25.2305 1.88672 23.8359L1.88672 9.21094C1.88672 7.875 1.98047 7.27734 2.67188 6.29297ZM1.16016 8.95312L1.16016 10.4297L12.2695 10.4297L12.2695 8.95312ZM6.71484 19.9805C8.36719 19.9805 9.43359 18.9258 9.43359 17.3555C9.43359 16.5234 9.09375 15.8672 8.88281 15.457C8.47266 14.5078 7.74609 13.3125 7.13672 12.3984C7.01953 12.2109 6.87891 12.1172 6.71484 12.1172C6.5625 12.1172 6.42188 12.2109 6.29297 12.3984C5.68359 13.3125 4.98047 14.5078 4.54688 15.457C4.35938 15.8672 3.99609 16.5234 3.99609 17.3555C3.99609 18.9258 5.07422 19.9805 6.71484 19.9805ZM1.16016 21.9258L1.16016 23.4023L12.2695 23.4023L12.2695 21.9258Z" fill="black" fill-opacity="0.85"/>
 </g>
</svg>
