<?xml version="1.0" encoding="UTF-8"?>
<!--Generator: Apple Native CoreSVG 360-->
<!DOCTYPE svg
PUBLIC "-//W3C//DTD SVG 1.1//EN"
       "http://www.w3.org/Graphics/SVG/1.1/DTD/svg11.dtd">
<svg version="1.1" xmlns="http://www.w3.org/2000/svg" xmlns:xlink="http://www.w3.org/1999/xlink" viewBox="0 0 38.0859 30.1055">
 <g>
  <rect height="30.1055" opacity="0" width="38.0859" x="0" y="0"/>
  <path d="M24.1758 6.35156L24.1758 22.0533C23.4316 22.5102 22.7972 23.057 22.2891 23.6545L22.2891 6.35156C22.2891 5.83594 22.6875 5.40234 23.2266 5.40234C23.7539 5.40234 24.1758 5.83594 24.1758 6.35156Z" fill="black" fill-opacity="0.85"/>
  <path d="M20.2266 9.90234L20.2266 20.2031C20.2266 20.7305 19.8164 21.1406 19.2891 21.1406C18.7383 21.1406 18.3398 20.7305 18.3398 20.2031L18.3398 9.90234C18.3398 9.375 18.7383 8.95312 19.2891 8.95312C19.8164 8.95312 20.2266 9.375 20.2266 9.90234Z" fill="black" fill-opacity="0.85"/>
  <path d="M16.2891 3.76172L16.2891 26.3438C16.2891 26.8711 15.8789 27.293 15.3281 27.293C14.8008 27.293 14.4023 26.8711 14.4023 26.3438L14.4023 3.76172C14.4023 3.23438 14.8008 2.8125 15.3281 2.8125C15.8789 2.8125 16.2891 3.23438 16.2891 3.76172Z" fill="black" fill-opacity="0.85"/>
  <path d="M12.3516 8.48438L12.3516 21.6211C12.3516 22.1484 11.9297 22.5703 11.3906 22.5703C10.8633 22.5703 10.4648 22.1484 10.4648 21.6211L10.4648 8.48438C10.4648 7.95703 10.8633 7.52344 11.3906 7.52344C11.9297 7.52344 12.3516 7.95703 12.3516 8.48438Z" fill="black" fill-opacity="0.85"/>
  <path d="M8.40234 13.2773L8.40234 16.8281C8.40234 17.3555 7.99219 17.7773 7.45312 17.7773C6.91406 17.7773 6.51562 17.3555 6.51562 16.8281L6.51562 13.2773C6.51562 12.75 6.91406 12.3164 7.45312 12.3164C7.99219 12.3164 8.40234 12.75 8.40234 13.2773Z" fill="black" fill-opacity="0.85"/>
  <path d="M23.6602 28.4414L34.9688 28.4414C35.8594 28.4414 36.3984 28.0195 36.3984 27.3281C36.3984 25.1484 33.6914 22.1484 29.3203 22.1484C24.9375 22.1484 22.2305 25.1484 22.2305 27.3281C22.2305 28.0195 22.7695 28.4414 23.6602 28.4414ZM29.3203 20.6367C31.125 20.6367 32.6836 19.0312 32.6836 16.9219C32.6836 14.8477 31.1133 13.3125 29.3203 13.3125C27.5273 13.3125 25.9453 14.8711 25.9453 16.9453C25.9453 19.0312 27.5156 20.6367 29.3203 20.6367Z" fill="black" fill-opacity="0.85"/>
 </g>
</svg>
