<?xml version="1.0" encoding="UTF-8"?>
<!--Generator: Apple Native CoreSVG 360-->
<!DOCTYPE svg
PUBLIC "-//W3C//DTD SVG 1.1//EN"
       "http://www.w3.org/Graphics/SVG/1.1/DTD/svg11.dtd">
<svg version="1.1" xmlns="http://www.w3.org/2000/svg" xmlns:xlink="http://www.w3.org/1999/xlink" viewBox="0 0 20.0625 29.7539">
 <g>
  <rect height="29.7539" opacity="0" width="20.0625" x="0" y="0"/>
  <path d="M3.63281 28.3945L16.0781 28.3945C18.5039 28.3945 19.7109 27.1758 19.7109 24.7148L19.7109 6.94922C19.7109 4.54688 18.5508 3.26953 16.207 3.26953L15.9258 3.26953C15.9375 3.36328 15.9375 3.46875 15.9375 3.5625L15.9375 4.61719C15.9375 4.80469 15.9258 4.99219 15.8906 5.15625L16.1719 5.15625C17.2734 5.15625 17.8242 5.87109 17.8242 6.97266L17.8242 24.6914C17.8242 25.8633 17.2031 26.5078 15.9844 26.5078L3.72656 26.5078C2.50781 26.5078 1.88672 25.8633 1.88672 24.6914L1.88672 6.97266C1.88672 5.87109 2.4375 5.15625 3.53906 5.15625L3.82031 5.15625C3.78516 4.99219 3.77344 4.80469 3.77344 4.61719L3.77344 3.5625C3.77344 3.46875 3.77344 3.36328 3.78516 3.26953L3.50391 3.26953C1.16016 3.26953 0 4.54688 0 6.94922L0 24.7148C0 27.1758 1.20703 28.3945 3.63281 28.3945ZM6.23438 5.95312L13.4766 5.95312C14.1562 5.95312 14.5664 5.51953 14.5664 4.79297L14.5664 3.5625C14.5664 2.83594 14.1562 2.40234 13.4766 2.40234L12.3984 2.40234C12.3164 1.07812 11.2148 0 9.85547 0C8.49609 0 7.39453 1.07812 7.3125 2.40234L6.23438 2.40234C5.55469 2.40234 5.14453 2.83594 5.14453 3.5625L5.14453 4.79297C5.14453 5.51953 5.55469 5.95312 6.23438 5.95312ZM9.85547 3.51562C9.29297 3.51562 8.83594 3.04688 8.83594 2.49609C8.83594 1.92188 9.29297 1.46484 9.85547 1.46484C10.418 1.46484 10.875 1.92188 10.875 2.49609C10.875 3.04688 10.418 3.51562 9.85547 3.51562Z" fill="black" fill-opacity="0.85"/>
  <path d="M5.63672 13.1836L7.47656 13.1836C7.82812 13.1836 8.0625 12.9844 8.14453 12.6562L8.49609 11.2266L9.375 15.457C9.50391 16.125 10.3945 16.125 10.5938 15.4805L11.5547 12.1172L11.6953 12.6328C11.7773 12.9844 12.0117 13.1836 12.375 13.1836L14.0742 13.1836C14.4141 13.1836 14.6953 12.8906 14.6953 12.5625C14.6953 12.2109 14.4258 11.9414 14.0742 11.9414L12.7617 11.9414L12.2109 9.80859C12.0469 9.17578 11.2031 9.19922 10.9922 9.82031L10.0547 12.9141L9.12891 8.34375C8.98828 7.6875 8.09766 7.66406 7.93359 8.33203L7.05469 11.9414L5.63672 11.9414C5.29688 11.9414 5.01562 12.2227 5.01562 12.5625C5.01562 12.8906 5.29688 13.1836 5.63672 13.1836ZM4.6875 19.0195L15.0234 19.0195C15.4336 19.0195 15.7617 18.7031 15.7617 18.293C15.7617 17.8945 15.4336 17.5664 15.0234 17.5664L4.6875 17.5664C4.27734 17.5664 3.94922 17.8945 3.94922 18.293C3.94922 18.7031 4.27734 19.0195 4.6875 19.0195ZM4.6875 23.4141L10.5938 23.4141C10.9922 23.4141 11.3203 23.0742 11.3203 22.6758C11.3203 22.2773 11.0039 21.9609 10.5938 21.9609L4.6875 21.9609C4.27734 21.9609 3.94922 22.2773 3.94922 22.6758C3.94922 23.0742 4.28906 23.4141 4.6875 23.4141Z" fill="black" fill-opacity="0.85"/>
 </g>
</svg>
