<?xml version="1.0" encoding="UTF-8"?>
<!--Generator: Apple Native CoreSVG 360-->
<!DOCTYPE svg
PUBLIC "-//W3C//DTD SVG 1.1//EN"
       "http://www.w3.org/Graphics/SVG/1.1/DTD/svg11.dtd">
<svg version="1.1" xmlns="http://www.w3.org/2000/svg" xmlns:xlink="http://www.w3.org/1999/xlink" viewBox="0 0 43.5469 19.4883">
 <g>
  <rect height="19.4883" opacity="0" width="43.5469" x="0" y="0"/>
  <path d="M2.55469 17.1328L5.51953 17.4727L5.70703 15.5859L3 15.2812C2.23828 15.1992 1.88672 14.8477 1.88672 14.168L1.88672 12.75C1.88672 10.7344 3.24609 9.53906 5.96484 9.02344L13.5234 7.59375C14.1562 7.47656 14.6836 7.40625 15.0703 7.07812C17.2148 5.26172 19.6523 3.62109 22.3359 2.19141C23.4609 1.60547 22.5469 0 21.3398 0.632812C18.5625 2.10938 15.9375 3.82031 13.6992 5.68359L5.71875 7.18359C1.91016 7.89844 0 9.65625 0 12.75L0 14.3086C0 16.0664 0.785156 16.9453 2.55469 17.1328ZM8.625 19.4883C10.957 19.4883 12.7852 17.6602 12.7852 15.3281C12.7852 12.9844 10.957 11.1562 8.625 11.1562C6.28125 11.1562 4.45312 12.9844 4.45312 15.3281C4.45312 17.6602 6.28125 19.4883 8.625 19.4883ZM8.625 17.7188C7.27734 17.7188 6.22266 16.6641 6.22266 15.3281C6.22266 13.9805 7.27734 12.9258 8.625 12.9258C9.96094 12.9258 11.0156 13.9805 11.0156 15.3281C11.0156 16.6641 9.96094 17.7188 8.625 17.7188ZM11.543 16.9336L31.7695 16.9336L31.7695 15.0469L11.543 15.0469ZM34.582 19.4883C36.9141 19.4883 38.7422 17.6602 38.7422 15.3281C38.7422 12.9844 36.9141 11.1562 34.582 11.1562C32.2383 11.1562 30.4102 12.9844 30.4102 15.3281C30.4102 17.6602 32.2383 19.4883 34.582 19.4883ZM34.582 17.7188C33.2344 17.7188 32.1797 16.6641 32.1797 15.3281C32.1797 13.9805 33.2344 12.9258 34.582 12.9258C35.918 12.9258 36.9727 13.9805 36.9727 15.3281C36.9727 16.6641 35.918 17.7188 34.582 17.7188ZM37.793 16.6523L39.8438 16.4297C42.1055 16.1953 43.1953 14.9414 43.1953 12.6094L43.1953 10.5703C43.1953 7.79297 42.1641 6.60938 39.5156 6.11719L34.0312 5.09766C32.4375 4.79297 31.0547 4.64062 29.1445 4.74609L13.793 5.68359L13.2422 7.60547L29.0508 6.64453C30.5977 6.55078 31.9453 6.66797 33.9258 7.05469L39.1758 8.0625C40.7344 8.35547 41.3086 9.03516 41.3086 10.5703L41.3086 12.6094C41.3086 13.8164 40.7578 14.4609 39.6094 14.5781L37.793 14.7656Z" fill="black" fill-opacity="0.85"/>
  <path d="M21.5273 13.6289C23.5781 13.6289 25.5703 13.0195 27.1641 11.9414C27.4688 11.707 27.5625 11.3203 27.3516 11.0273C27.1289 10.7227 26.7422 10.6758 26.4258 10.8984C25.0781 11.8477 23.332 12.375 21.5273 12.375C19.7344 12.375 17.9648 11.8359 16.6289 10.8984C16.3125 10.6758 15.9258 10.7227 15.7031 11.0273C15.4922 11.3086 15.5859 11.6953 15.8789 11.9414C17.4492 13.0195 19.4648 13.6289 21.5273 13.6289Z" fill="black" fill-opacity="0.85"/>
  <path d="M21.5273 10.8398C23.0508 10.8398 24.5156 10.3945 25.6055 9.57422C25.8984 9.36328 25.9805 8.98828 25.7695 8.69531C25.5703 8.41406 25.1602 8.33203 24.8438 8.57812C23.9648 9.19922 22.7578 9.5625 21.5273 9.5625C20.2852 9.5625 19.0781 9.19922 18.2109 8.57812C17.8828 8.33203 17.4844 8.41406 17.2852 8.69531C17.0859 8.98828 17.1562 9.36328 17.4375 9.57422C18.5625 10.3945 20.0273 10.8398 21.5273 10.8398Z" fill="black" fill-opacity="0.85"/>
 </g>
</svg>
