<?xml version="1.0" encoding="UTF-8"?>
<!--Generator: Apple Native CoreSVG 360-->
<!DOCTYPE svg
PUBLIC "-//W3C//DTD SVG 1.1//EN"
       "http://www.w3.org/Graphics/SVG/1.1/DTD/svg11.dtd">
<svg version="1.1" xmlns="http://www.w3.org/2000/svg" xmlns:xlink="http://www.w3.org/1999/xlink" viewBox="0 0 23.8242 25.2451">
 <g>
  <rect height="25.2451" opacity="0" width="23.8242" x="0" y="0"/>
  <path d="M0.84375 14.8901L6.03516 14.8901C6.5625 14.8901 6.87891 14.6558 6.99609 14.187L8.8125 5.84327L8.70703 5.84327L11.8359 24.6167C11.9766 25.4605 13.2773 25.4487 13.4414 24.6167L16.4648 10.4605L16.3711 10.4487L17.1211 14.0933C17.2266 14.6323 17.5312 14.8901 18.082 14.8901L22.6289 14.8901C23.0977 14.8901 23.4727 14.5269 23.4727 14.0698C23.4727 13.6011 23.1094 13.2378 22.6289 13.2378L18.2461 13.2378L18.5273 13.4136L17.1328 7.27296C16.957 6.45264 15.75 6.46436 15.5508 7.30811L12.5273 20.7847L12.668 20.7847L9.52734 1.77686C9.39844 0.956551 8.20312 0.933113 8.01562 1.77686L5.49609 13.4136L5.64844 13.2378L0.84375 13.2378C0.363281 13.2378 0 13.6128 0 14.0698C0 14.5269 0.363281 14.8901 0.84375 14.8901Z" fill="black" fill-opacity="0.85"/>
 </g>
</svg>
