<?xml version="1.0" encoding="UTF-8"?>
<!--Generator: Apple Native CoreSVG 360-->
<!DOCTYPE svg
PUBLIC "-//W3C//DTD SVG 1.1//EN"
       "http://www.w3.org/Graphics/SVG/1.1/DTD/svg11.dtd">
<svg version="1.1" xmlns="http://www.w3.org/2000/svg" xmlns:xlink="http://www.w3.org/1999/xlink" viewBox="0 0 17.2743 27.8664">
 <g>
  <rect height="27.8664" opacity="0" width="17.2743" x="0" y="0"/>
  <path d="M16.9223 13.9391C16.9223 8.98203 15.3754 4.36484 12.6215 0.544528C11.7778-0.639066 10.0551 0.392184 10.9692 1.62265C13.5356 5.15 14.9067 9.4039 14.9067 13.9391C14.9067 18.4742 13.5239 22.7164 10.9692 26.2437C10.0786 27.4625 11.7426 28.5523 12.6215 27.3336C15.3754 23.5016 16.9223 18.8844 16.9223 13.9391Z" fill="black" fill-opacity="0.85"/>
  <path d="M10.5356 13.9391C10.5356 10.2594 9.37544 6.80234 7.28951 4.00156C6.35201 2.74765 4.7231 3.95468 5.60201 5.10312C7.51216 7.61093 8.53169 10.6695 8.53169 13.9391C8.53169 17.2086 7.51216 20.2672 5.60201 22.775C4.7231 23.9234 6.35201 25.1305 7.28951 23.8648C9.37544 21.0641 10.5356 17.6187 10.5356 13.9391Z" fill="black" fill-opacity="0.85"/>
  <path d="M4.17232 13.9391C4.17232 11.525 3.34029 9.275 1.86373 7.51718C0.89107 6.36875-0.526899 7.66953 0.199664 8.60703C1.61763 10.3883 2.15669 11.8766 2.15669 13.9391C2.15669 16.0016 1.61763 17.4898 0.199664 19.2711C-0.51518 20.1969 0.902789 21.4859 1.86373 20.3492C3.34029 18.6031 4.17232 16.3531 4.17232 13.9391Z" fill="black" fill-opacity="0.85"/>
 </g>
</svg>
