<?xml version="1.0" encoding="UTF-8"?>
<!--Generator: Apple Native CoreSVG 360-->
<!DOCTYPE svg
PUBLIC "-//W3C//DTD SVG 1.1//EN"
       "http://www.w3.org/Graphics/SVG/1.1/DTD/svg11.dtd">
<svg version="1.1" xmlns="http://www.w3.org/2000/svg" xmlns:xlink="http://www.w3.org/1999/xlink" viewBox="0 0 28.1939 17.543">
 <g>
  <rect height="17.543" opacity="0" width="28.1939" x="0" y="0"/>
  <path d="M13.9329 17.543C18.8782 17.543 23.4954 16.0078 27.3274 13.2539C28.4993 12.4102 27.468 10.6875 26.2376 11.5898C22.7102 14.1562 18.468 15.5391 13.9329 15.5391C9.39772 15.5391 5.14381 14.1562 1.61647 11.5898C0.409438 10.6992-0.692125 12.375 0.538344 13.2539C4.35866 15.9961 8.97584 17.543 13.9329 17.543Z" fill="black" fill-opacity="0.85"/>
  <path d="M13.9329 11.168C17.6126 11.168 21.0579 10.0078 23.8587 7.92188C25.1243 6.98438 23.9173 5.35547 22.7688 6.23438C20.261 8.14453 17.2024 9.15234 13.9329 9.15234C10.6516 9.15234 7.60475 8.14453 5.09694 6.23438C3.9485 5.35547 2.74147 6.98438 3.99538 7.92188C6.79616 10.0078 10.2532 11.168 13.9329 11.168Z" fill="black" fill-opacity="0.85"/>
  <path d="M13.9329 4.79297C16.3469 4.79297 18.5969 3.97266 20.343 2.49609C21.5032 1.52344 20.1907 0.105469 19.2649 0.832031C17.4719 2.23828 15.9954 2.78906 13.9329 2.78906C11.8587 2.78906 10.3704 2.23828 8.58913 0.832031C7.66334 0.105469 6.37428 1.53516 7.511 2.49609C9.25709 3.97266 11.5188 4.79297 13.9329 4.79297Z" fill="black" fill-opacity="0.85"/>
 </g>
</svg>
