<?xml version="1.0" encoding="UTF-8"?>
<!--Generator: Apple Native CoreSVG 360-->
<!DOCTYPE svg
PUBLIC "-//W3C//DTD SVG 1.1//EN"
       "http://www.w3.org/Graphics/SVG/1.1/DTD/svg11.dtd">
<svg version="1.1" xmlns="http://www.w3.org/2000/svg" xmlns:xlink="http://www.w3.org/1999/xlink" viewBox="0 0 21.9492 10.7695">
 <g>
  <rect height="10.7695" opacity="0" width="21.9492" x="0" y="0"/>
  <path d="M20.6484 7.5C21.1758 7.5 21.5977 7.07812 21.5977 6.5625L21.5977 4.21875C21.5977 3.70312 21.1758 3.28125 20.6484 3.28125C20.1094 3.28125 19.7109 3.70312 19.7109 4.21875L19.7109 6.5625C19.7109 7.07812 20.1094 7.5 20.6484 7.5Z" fill="black" fill-opacity="0.85"/>
  <path d="M16.7109 9.375C17.2383 9.375 17.6484 8.94141 17.6484 8.42578L17.6484 2.35547C17.6484 1.83984 17.2383 1.40625 16.7109 1.40625C16.1602 1.40625 15.7617 1.83984 15.7617 2.35547L15.7617 8.42578C15.7617 8.94141 16.1602 9.375 16.7109 9.375Z" fill="black" fill-opacity="0.85"/>
  <path d="M12.7617 7.48828C13.3008 7.48828 13.7109 7.06641 13.7109 6.55078L13.7109 4.23047C13.7109 3.70312 13.3008 3.29297 12.7617 3.29297C12.2227 3.29297 11.8242 3.70312 11.8242 4.23047L11.8242 6.55078C11.8242 7.06641 12.2227 7.48828 12.7617 7.48828Z" fill="black" fill-opacity="0.85"/>
  <path d="M8.8125 10.7695C9.35156 10.7695 9.77344 10.3359 9.77344 9.82031L9.77344 0.960938C9.77344 0.445312 9.35156 0.0117188 8.8125 0.0117188C8.28516 0.0117188 7.88672 0.445312 7.88672 0.960938L7.88672 9.82031C7.88672 10.3359 8.28516 10.7695 8.8125 10.7695Z" fill="black" fill-opacity="0.85"/>
  <path d="M4.875 8.34375C5.41406 8.34375 5.82422 7.92188 5.82422 7.40625L5.82422 3.375C5.82422 2.85938 5.41406 2.4375 4.875 2.4375C4.34766 2.4375 3.9375 2.85938 3.9375 3.375L3.9375 7.40625C3.9375 7.92188 4.34766 8.34375 4.875 8.34375Z" fill="black" fill-opacity="0.85"/>
  <path d="M0.925781 6.94922C1.47656 6.94922 1.88672 6.52734 1.88672 6L1.88672 4.78125C1.88672 4.25391 1.47656 3.83203 0.925781 3.83203C0.398438 3.83203 0 4.25391 0 4.78125L0 6C0 6.52734 0.398438 6.94922 0.925781 6.94922Z" fill="black" fill-opacity="0.85"/>
 </g>
</svg>
