<?xml version="1.0" encoding="UTF-8"?>
<!--Generator: Apple Native CoreSVG 360-->
<!DOCTYPE svg
PUBLIC "-//W3C//DTD SVG 1.1//EN"
       "http://www.w3.org/Graphics/SVG/1.1/DTD/svg11.dtd">
<svg version="1.1" xmlns="http://www.w3.org/2000/svg" xmlns:xlink="http://www.w3.org/1999/xlink" viewBox="0 0 21.9492 18.7383">
 <g>
  <rect height="18.7383" opacity="0" width="21.9492" x="0" y="0"/>
  <path d="M20.6484 11.6133C21.1758 11.6133 21.5977 11.1914 21.5977 10.6758L21.5977 8.29688C21.5977 7.78125 21.1758 7.34766 20.6484 7.34766C20.1094 7.34766 19.7109 7.78125 19.7109 8.29688L19.7109 10.6758C19.7109 11.1914 20.1094 11.6133 20.6484 11.6133Z" fill="black" fill-opacity="0.85"/>
  <path d="M16.7109 16.1953C17.2383 16.1953 17.6484 15.7734 17.6484 15.2578L17.6484 3.48047C17.6484 2.96484 17.2383 2.53125 16.7109 2.53125C16.1602 2.53125 15.7617 2.96484 15.7617 3.48047L15.7617 15.2578C15.7617 15.7734 16.1602 16.1953 16.7109 16.1953Z" fill="black" fill-opacity="0.85"/>
  <path d="M12.7617 12.8672C13.3008 12.8672 13.7109 12.457 13.7109 11.9297L13.7109 6.79688C13.7109 6.28125 13.3008 5.85938 12.7617 5.85938C12.2227 5.85938 11.8242 6.28125 11.8242 6.79688L11.8242 11.9297C11.8242 12.457 12.2227 12.8672 12.7617 12.8672Z" fill="black" fill-opacity="0.85"/>
  <path d="M8.8125 18.7383C9.35156 18.7383 9.77344 18.3047 9.77344 17.7891L9.77344 0.949219C9.77344 0.433594 9.35156 0 8.8125 0C8.28516 0 7.88672 0.433594 7.88672 0.949219L7.88672 17.7891C7.88672 18.3047 8.28516 18.7383 8.8125 18.7383Z" fill="black" fill-opacity="0.85"/>
  <path d="M4.875 14.3906C5.41406 14.3906 5.82422 13.9688 5.82422 13.4531L5.82422 5.28516C5.82422 4.76953 5.41406 4.33594 4.875 4.33594C4.34766 4.33594 3.9375 4.76953 3.9375 5.28516L3.9375 13.4531C3.9375 13.9688 4.34766 14.3906 4.875 14.3906Z" fill="black" fill-opacity="0.85"/>
  <path d="M0.925781 11.8008C1.47656 11.8008 1.88672 11.3789 1.88672 10.8516L1.88672 7.88672C1.88672 7.35938 1.47656 6.92578 0.925781 6.92578C0.398438 6.92578 0 7.35938 0 7.88672L0 10.8516C0 11.3789 0.398438 11.8008 0.925781 11.8008Z" fill="black" fill-opacity="0.85"/>
 </g>
</svg>
