<?xml version="1.0" encoding="UTF-8"?>
<!--Generator: Apple Native CoreSVG 360-->
<!DOCTYPE svg
PUBLIC "-//W3C//DTD SVG 1.1//EN"
       "http://www.w3.org/Graphics/SVG/1.1/DTD/svg11.dtd">
<svg version="1.1" xmlns="http://www.w3.org/2000/svg" xmlns:xlink="http://www.w3.org/1999/xlink" viewBox="0 0 28.1939 17.5565">
 <g>
  <rect height="17.5565" opacity="0" width="28.1939" x="0" y="0"/>
  <path d="M13.9329 0.639556C8.97584 0.639556 4.35866 2.18643 0.538344 4.92862C-0.692125 5.81924 0.409438 7.48331 1.61647 6.59268C5.14381 4.02627 9.39772 2.64346 13.9329 2.64346C18.468 2.64346 22.7102 4.02627 26.2376 6.59268C27.468 7.49502 28.4993 5.77237 27.3274 4.92862C23.4954 2.18643 18.8782 0.639556 13.9329 0.639556Z" fill="black" fill-opacity="0.85"/>
  <path d="M13.9329 7.02627C10.2532 7.02627 6.79616 8.17471 3.99538 10.2606C2.74147 11.1981 3.9485 12.8388 5.09694 11.9481C7.60475 10.0497 10.6516 9.03018 13.9329 9.03018C17.2024 9.03018 20.261 10.0497 22.7688 11.9481C23.9173 12.8388 25.1243 11.1981 23.8587 10.2606C21.0579 8.17471 17.6126 7.02627 13.9329 7.02627Z" fill="black" fill-opacity="0.85"/>
  <path d="M13.9329 13.3896C11.5188 13.3896 9.25709 14.2216 7.511 15.6981C6.37428 16.6474 7.66334 18.0771 8.58913 17.3505C10.3704 15.9442 11.8587 15.3935 13.9329 15.3935C15.9954 15.3935 17.4719 15.9442 19.2649 17.3622C20.1907 18.0771 21.5032 16.6591 20.343 15.6981C18.5969 14.2216 16.3469 13.3896 13.9329 13.3896Z" fill="black" fill-opacity="0.85"/>
 </g>
</svg>
