<?xml version="1.0" encoding="UTF-8"?>
<!--Generator: Apple Native CoreSVG 360-->
<!DOCTYPE svg
PUBLIC "-//W3C//DTD SVG 1.1//EN"
       "http://www.w3.org/Graphics/SVG/1.1/DTD/svg11.dtd">
<svg version="1.1" xmlns="http://www.w3.org/2000/svg" xmlns:xlink="http://www.w3.org/1999/xlink" viewBox="0 0 21.5156 26.6485">
 <g>
  <rect height="26.6485" opacity="0" width="21.5156" x="0" y="0"/>
  <path d="M0.9375 25.8809L14.2383 25.8809C14.7539 25.8809 15.1875 25.459 15.1875 24.9434C15.1875 24.4278 14.7539 23.9942 14.2383 23.9942L0.9375 23.9942C0.421875 23.9942 0 24.4278 0 24.9434C0 25.459 0.421875 25.8809 0.9375 25.8809Z" fill="black" fill-opacity="0.85"/>
  <path d="M0.9375 19.834L20.2266 19.834C20.7422 19.834 21.1641 19.4121 21.1641 18.8965C21.1641 18.3809 20.7422 17.9473 20.2266 17.9473L0.9375 17.9473C0.421875 17.9473 0 18.3809 0 18.8965C0 19.4121 0.421875 19.834 0.9375 19.834Z" fill="black" fill-opacity="0.85"/>
  <path d="M2.51953 9.67385L6.01172 9.67385C6.51562 9.67385 6.91406 9.3926 7.03125 8.91214L7.99219 5.02151L9.90234 14.2207C10.1133 15.1934 11.4727 15.2285 11.7539 14.2324L13.8633 6.83792L14.4023 8.84182C14.5547 9.3926 14.8711 9.67385 15.3984 9.67385L18.6562 9.67385C19.1836 9.67385 19.6289 9.24026 19.6289 8.77151C19.6289 8.22073 19.207 7.81057 18.6562 7.81057L15.9141 7.81057L14.8359 3.53323C14.5898 2.63089 13.3359 2.61917 13.0195 3.5801L10.9219 10.4824L8.88281 0.732449C8.68359-0.240208 7.34766-0.240208 7.10156 0.709011L5.4375 7.81057L2.51953 7.81057C1.96875 7.81057 1.54688 8.23245 1.54688 8.77151C1.54688 9.24026 1.98047 9.67385 2.51953 9.67385Z" fill="black" fill-opacity="0.85"/>
 </g>
</svg>
