<?xml version="1.0" encoding="UTF-8"?>
<!--Generator: Apple Native CoreSVG 360-->
<!DOCTYPE svg
PUBLIC "-//W3C//DTD SVG 1.1//EN"
       "http://www.w3.org/Graphics/SVG/1.1/DTD/svg11.dtd">
<svg version="1.1" xmlns="http://www.w3.org/2000/svg" xmlns:xlink="http://www.w3.org/1999/xlink" viewBox="0 0 23.25 23.1211">
 <g>
  <rect height="23.1211" opacity="0" width="23.25" x="0" y="0"/>
  <path d="M0 9.35156C0 14.5078 4.19531 18.7031 9.35156 18.7031C11.3906 18.7031 13.2539 18.0469 14.7891 16.9453L20.5547 22.7227C20.8242 22.9922 21.1758 23.1211 21.5508 23.1211C22.3477 23.1211 22.8984 22.5234 22.8984 21.7383C22.8984 21.3633 22.7578 21.0234 22.5117 20.7773L16.7812 15.0117C17.9883 13.4414 18.7031 11.4844 18.7031 9.35156C18.7031 4.19531 14.5078 0 9.35156 0C4.19531 0 0 4.19531 0 9.35156ZM2.00391 9.35156C2.00391 5.29688 5.29688 2.00391 9.35156 2.00391C13.4062 2.00391 16.6992 5.29688 16.6992 9.35156C16.6992 13.4062 13.4062 16.6992 9.35156 16.6992C5.29688 16.6992 2.00391 13.4062 2.00391 9.35156Z" fill="black" fill-opacity="0.85"/>
  <path d="M4.73438 10.3594L6.72656 10.3594C7.04297 10.3594 7.27734 10.1719 7.37109 9.86719L7.94531 7.71094L9.1875 14.0156C9.30469 14.6602 10.2188 14.625 10.3594 14.0273L11.5195 9.45703L11.625 9.79688C11.7422 10.2539 11.9531 10.3594 12.293 10.3594L13.9805 10.3594C14.3086 10.3594 14.5781 10.1133 14.5781 9.77344C14.5781 9.42188 14.332 9.15234 13.9805 9.15234L12.6211 9.15234L12.0703 7.00781C11.9062 6.41016 11.0859 6.41016 10.8984 7.03125L9.80859 11.1211L8.55469 4.71094C8.4375 4.11328 7.57031 4.06641 7.41797 4.69922L6.32812 9.15234L4.73438 9.15234C4.38281 9.15234 4.13672 9.42188 4.13672 9.77344C4.13672 10.1133 4.39453 10.3594 4.73438 10.3594Z" fill="black" fill-opacity="0.85"/>
 </g>
</svg>
