<?xml version="1.0" encoding="UTF-8"?>
<!--Generator: Apple Native CoreSVG 360-->
<!DOCTYPE svg
PUBLIC "-//W3C//DTD SVG 1.1//EN"
       "http://www.w3.org/Graphics/SVG/1.1/DTD/svg11.dtd">
<svg version="1.1" xmlns="http://www.w3.org/2000/svg" xmlns:xlink="http://www.w3.org/1999/xlink" viewBox="0 0 41.918 19.0664">
 <g>
  <rect height="19.0664" opacity="0" width="41.918" x="0" y="0"/>
  <path d="M2.98828 16.3711L6.63281 16.3711L6.63281 14.4844L3.09375 14.4844C2.33203 14.4844 1.88672 13.9688 1.88672 13.0781L1.88672 11.2969C1.88672 9.19922 3.29297 8.01562 6.22266 7.64062L10.9922 7.04297L16.0781 3.87891C18.668 2.26172 20.2031 1.88672 24.7031 1.88672L33.8555 1.88672C35.8828 1.88672 37.0547 2.44922 38.0156 3.82031L38.543 4.58203C39.2578 5.61328 39.6797 6.87891 39.6797 7.99219L39.6797 13.1133C39.6797 14.0508 39.3164 14.4844 38.4844 14.4844L35.6016 14.4844L35.6016 16.3711L38.5898 16.3711C40.6406 16.3711 41.5664 15.3164 41.5664 12.9961L41.5664 7.99219C41.5664 6.52734 41.0273 4.85156 40.1016 3.51562L39.5742 2.74219C38.2266 0.785156 36.5742 0 33.8555 0L24.7031 0C19.875 0 17.9414 0.46875 15.0703 2.26172L10.3477 5.22656L5.97656 5.76562C1.98047 6.25781 0 8.08594 0 11.2969L0 13.3125C0 15.2227 1.125 16.3711 2.98828 16.3711ZM12.1289 16.3711L30.2109 16.3711L30.2109 14.4844L12.1289 14.4844ZM9.31641 19.043C11.5664 19.043 13.3242 17.2852 13.3242 15.0352C13.3242 12.7852 11.5664 11.0273 9.31641 11.0273C7.06641 11.0273 5.30859 12.7852 5.30859 15.0352C5.30859 17.2852 7.06641 19.043 9.31641 19.043ZM9.31641 17.1562C8.12109 17.1562 7.19531 16.2305 7.19531 15.0352C7.19531 13.8398 8.12109 12.9141 9.31641 12.9141C10.5117 12.9141 11.4375 13.8398 11.4375 15.0352C11.4375 16.2305 10.5117 17.1562 9.31641 17.1562ZM32.9883 19.043C35.2383 19.043 36.9961 17.2852 36.9961 15.0352C36.9961 12.7852 35.2383 11.0273 32.9883 11.0273C30.7383 11.0273 28.9805 12.7852 28.9805 15.0352C28.9805 17.2852 30.7383 19.043 32.9883 19.043ZM32.9883 17.1562C31.793 17.1562 30.8672 16.2305 30.8672 15.0352C30.8672 13.8398 31.793 12.9141 32.9883 12.9141C34.1836 12.9141 35.1094 13.8398 35.1094 15.0352C35.1094 16.2305 34.1836 17.1562 32.9883 17.1562Z" fill="black" fill-opacity="0.85"/>
  <path d="M21.8789 12.3867C24.0234 12.3867 26.0977 11.7539 27.7617 10.6055C28.0898 10.3711 28.1602 9.98438 27.9609 9.67969C27.7383 9.38672 27.3281 9.32812 27.0234 9.55078C25.6172 10.5469 23.7773 11.1094 21.8789 11.1094C20.0039 11.1094 18.1523 10.5469 16.7461 9.55078C16.418 9.32812 16.0312 9.375 15.8086 9.67969C15.5977 9.96094 15.668 10.3711 15.9844 10.6055C17.6367 11.7539 19.7227 12.3867 21.8789 12.3867Z" fill="black" fill-opacity="0.85"/>
  <path d="M21.8789 9.45703C23.4727 9.45703 24.9961 9 26.1328 8.14453C26.4375 7.93359 26.5195 7.54688 26.2969 7.24219C26.1094 6.96094 25.6875 6.87891 25.3711 7.11328C24.4336 7.76953 23.1797 8.15625 21.8789 8.15625C20.5781 8.15625 19.3125 7.76953 18.3984 7.11328C18.0586 6.87891 17.6602 6.96094 17.4609 7.24219C17.25 7.54688 17.3086 7.93359 17.625 8.14453C18.7852 9 20.3203 9.45703 21.8789 9.45703Z" fill="black" fill-opacity="0.85"/>
  <path d="M21.8789 6.52734C22.8281 6.52734 23.8125 6.22266 24.5039 5.73047C24.7969 5.51953 24.8789 5.12109 24.6797 4.81641C24.457 4.48828 24.0469 4.42969 23.6953 4.6875C23.2617 5.02734 22.582 5.22656 21.8789 5.22656C21.1992 5.22656 20.5078 5.02734 20.0625 4.6875C19.7227 4.44141 19.3125 4.5 19.0781 4.81641C18.8789 5.12109 18.9492 5.51953 19.2539 5.73047C19.9219 6.22266 20.8945 6.52734 21.8789 6.52734Z" fill="black" fill-opacity="0.85"/>
 </g>
</svg>
