<?xml version="1.0" encoding="UTF-8"?>
<!--Generator: Apple Native CoreSVG 360-->
<!DOCTYPE svg
PUBLIC "-//W3C//DTD SVG 1.1//EN"
       "http://www.w3.org/Graphics/SVG/1.1/DTD/svg11.dtd">
<svg version="1.1" xmlns="http://www.w3.org/2000/svg" xmlns:xlink="http://www.w3.org/1999/xlink" viewBox="0 0 27.1641 23.5195">
 <g>
  <rect height="23.5195" opacity="0" width="27.1641" x="0" y="0"/>
  <path d="M7.65234 23.5195C11.8828 23.5195 15.3047 20.0742 15.3047 15.8672C15.3047 11.6367 11.8945 8.21484 7.65234 8.21484C3.41016 8.21484 0 11.6367 0 15.8672C0 20.0859 3.41016 23.5195 7.65234 23.5195ZM7.64062 21.7734C4.34766 21.7734 1.74609 19.1484 1.74609 15.8555C1.74609 12.5859 4.35938 9.94922 7.64062 9.94922C10.9453 9.94922 13.5586 12.5859 13.5586 15.8555C13.5586 19.1484 10.9453 21.7734 7.64062 21.7734ZM7.65234 17.707C8.67188 17.707 9.52734 16.8867 9.52734 15.8672C9.52734 14.8008 8.68359 13.9922 7.65234 13.9922C6.63281 13.9922 5.80078 14.7891 5.80078 15.8672C5.80078 16.8867 6.62109 17.707 7.65234 17.707ZM7.79297 9.43359L9.65625 9.35156L7.96875 0.9375C7.85156 0.328125 7.66406 0 7.01953 0L3.26953 0C2.76562 0 2.36719 0.410156 2.36719 0.914062C2.36719 1.41797 2.76562 1.81641 3.26953 1.81641L6.07031 1.81641C6.17578 1.81641 6.21094 1.83984 6.22266 1.89844ZM7.66406 5.625L17.1914 5.625C17.6602 5.625 18.0352 5.25 18.0352 4.79297C18.0352 4.3125 17.6602 3.9375 17.1914 3.9375L7.66406 3.9375ZM14.0508 15.7734L19.043 15.7734C20.7305 15.7734 22.0078 14.4492 22.0078 12.8086C22.0078 11.1328 20.7305 9.80859 19.043 9.80859L11.0742 9.80859L12.4336 11.4961L18.7734 11.4961C19.5352 11.4961 20.0742 12.0586 20.0742 12.7969C20.0742 13.5352 19.5352 14.0859 18.7734 14.0859L14.0391 14.0859ZM19.3477 19.1016L20.8945 18.1641L19.5234 14.5781L17.6016 14.6367ZM21.2461 23.5195C22.957 23.5195 24.3516 22.125 24.3516 20.4023C24.3516 18.6914 22.957 17.3086 21.2461 17.3086C19.5352 17.3086 18.1406 18.6914 18.1406 20.4023C18.1406 22.125 19.5469 23.5195 21.2461 23.5195ZM21.2461 21.8555C20.4258 21.8555 19.8047 21.2344 19.8047 20.4023C19.8047 19.582 20.4258 18.9727 21.2461 18.9727C22.0781 18.9727 22.6875 19.582 22.6875 20.4023C22.6875 21.2344 22.0781 21.8555 21.2461 21.8555ZM23.6016 21.3164L25.8984 21.3164C26.4023 21.3164 26.8125 20.9062 26.8125 20.4023C26.8125 19.8984 26.4023 19.5 25.8984 19.5L23.5312 19.5Z" fill="black" fill-opacity="0.85"/>
 </g>
</svg>
