<?xml version="1.0" encoding="UTF-8"?>
<!--Generator: Apple Native CoreSVG 360-->
<!DOCTYPE svg
PUBLIC "-//W3C//DTD SVG 1.1//EN"
       "http://www.w3.org/Graphics/SVG/1.1/DTD/svg11.dtd">
<svg version="1.1" xmlns="http://www.w3.org/2000/svg" xmlns:xlink="http://www.w3.org/1999/xlink" viewBox="0 0 27.3317 25.5586">
 <g>
  <rect height="25.5586" opacity="0" width="27.3317" x="0" y="0"/>
  <path d="M22.1971 13.6758C22.3729 13.8867 22.3494 14.1445 22.1619 14.332L20.3455 16.1367C20.0877 16.3711 19.7948 16.3828 19.5838 16.1367C18.7394 15.2162 17.5926 14.4306 16.3063 13.9465L16.3366 10.2149C18.8029 10.7947 20.9038 12.0912 22.1971 13.6758ZM10.6938 13.9338C9.41473 14.4078 8.27365 15.1811 7.44319 16.1016C7.20882 16.3594 6.89241 16.3945 6.6346 16.1484L4.81819 14.332C4.61897 14.1211 4.60725 13.8867 4.78303 13.6758C6.07869 12.0884 8.1848 10.79 10.6568 10.2116Z" fill="black" fill-opacity="0.85"/>
  <path d="M10.6232 6.82892C7.53019 7.38688 4.77312 8.88647 2.55647 11.2383C2.33382 11.4727 2.00569 11.4727 1.77132 11.25L0.154128 9.60938C-0.0450907 9.39844-0.0450907 9.14062 0.118972 8.94141C2.36626 6.1563 6.26638 3.97723 10.588 3.28402ZM26.8612 8.94141C27.0252 9.14062 27.0369 9.39844 26.826 9.60938L25.2088 11.2266C24.9744 11.4492 24.658 11.4609 24.4471 11.25C22.2465 8.89608 19.4767 7.38897 16.3641 6.8293L16.3929 3.28367C20.7167 3.97638 24.6038 6.15576 26.8612 8.94141Z" fill="black" fill-opacity="0.85"/>
  <path d="M13.4901 22.5234C14.4862 22.5234 15.2713 21.7148 15.2713 20.7305C15.2713 19.7344 14.4862 18.9492 13.4901 18.9492C12.5057 18.9492 11.7088 19.7344 11.7088 20.7305C11.7088 21.7148 12.5057 22.5234 13.4901 22.5234ZM13.5018 16.875C14.1229 16.875 14.5448 16.4648 14.5565 15.8203C14.5916 11.5078 14.6268 7.17188 14.6619 2.84766C14.6619 2.17969 14.1229 1.72266 13.4901 1.72266C12.8573 1.72266 12.3182 2.17969 12.3182 2.84766C12.3651 7.17188 12.4002 11.5078 12.4471 15.8203C12.4588 16.4648 12.8807 16.875 13.5018 16.875Z" fill="black" fill-opacity="0.85"/>
 </g>
</svg>
