<?xml version="1.0" encoding="UTF-8"?>
<!--Generator: Apple Native CoreSVG 360-->
<!DOCTYPE svg
PUBLIC "-//W3C//DTD SVG 1.1//EN"
       "http://www.w3.org/Graphics/SVG/1.1/DTD/svg11.dtd">
<svg version="1.1" xmlns="http://www.w3.org/2000/svg" xmlns:xlink="http://www.w3.org/1999/xlink" viewBox="0 0 34.3431 29.6133">
 <g>
  <rect height="29.6133" opacity="0" width="34.3431" x="0" y="0"/>
  <path d="M33.1325 8.4375C34.1286 9.21094 34.2575 10.2773 33.4723 11.2852L25.4919 21.457C25.1403 21.9141 24.5426 22.0195 24.0036 21.7383C21.9997 20.6836 19.3044 19.9922 16.9958 19.9922C16.5628 19.9922 16.1158 20.0165 15.6599 20.0704L14.6357 18.3101C15.4519 18.1746 16.244 18.1055 16.9958 18.1055C19.1286 18.1055 21.613 18.668 24.0036 19.6406C24.2966 19.7578 24.4255 19.7344 24.6598 19.4414L31.5856 10.6172C31.82 10.3125 31.7848 10.043 31.4684 9.82031C30.7731 9.38169 30.0439 8.97583 29.2758 8.61735C29.0905 7.46571 28.6295 6.51547 28.3631 5.9182C30.278 6.63013 31.9137 7.49392 33.1325 8.4375ZM6.37275 7.87801C5.00225 8.41492 3.71315 9.06962 2.52311 9.82031C2.20671 10.043 2.17155 10.3125 2.39421 10.6172L9.33171 19.4414C9.56608 19.7344 9.69499 19.7578 9.98796 19.6406C10.8829 19.2765 11.7892 18.9699 12.6856 18.7289L13.6611 20.4056C12.3429 20.7061 11.0572 21.1693 9.97624 21.7383C9.43718 22.0195 8.85124 21.9141 8.49968 21.457L0.519207 11.2852C-0.277668 10.2773-0.148761 9.21094 0.847332 8.4375C2.0008 7.54768 3.52355 6.72882 5.30569 6.04389ZM19.8731 4.07631C19.5158 4.7098 19.1879 5.33333 18.9256 5.90146C18.2853 5.85754 17.6413 5.83594 16.9958 5.83594C13.9551 5.83594 10.9495 6.31515 8.18438 7.22233L7.13111 5.4121C10.0539 4.50551 13.4782 3.94922 16.9958 3.94922C17.9654 3.94922 18.928 3.99149 19.8731 4.07631Z" fill="black" fill-opacity="0.85"/>
  <path d="M24.2614 1.99219C25.1872 3.41016 26.2536 5.16797 26.8981 6.57422C27.2614 7.37109 27.7653 8.41406 27.7653 9.60938C27.7653 12 26.1012 13.6055 23.6403 13.6055C21.1794 13.6055 19.5153 12 19.5153 9.60938C19.5153 8.41406 20.0192 7.37109 20.3825 6.57422C21.027 5.16797 22.0934 3.41016 23.0192 1.99219C23.2067 1.72266 23.4059 1.59375 23.6403 1.59375C23.8747 1.59375 24.0739 1.72266 24.2614 1.99219Z" fill="black" fill-opacity="0.85"/>
  <path d="M15.2614 23.1562L16.9372 22.2656L5.89811 3.29297C5.65202 2.85938 5.11296 2.68359 4.58561 2.95312C4.10514 3.1875 3.99968 3.79688 4.25749 4.24219ZM16.9958 26.9062C18.4255 26.9062 19.6325 25.7109 19.6325 24.2695C19.6325 22.8047 18.4372 21.6211 16.9958 21.6211C15.5426 21.6211 14.3591 22.8047 14.3591 24.2695C14.3591 25.7227 15.5309 26.9062 16.9958 26.9062ZM16.9958 25.3477C16.3864 25.3477 15.9059 24.8555 15.9059 24.2695C15.9059 23.6602 16.3864 23.1562 16.9958 23.1562C17.5817 23.1562 18.0973 23.6602 18.0973 24.2695C18.0973 24.8555 17.5817 25.3477 16.9958 25.3477Z" fill="black" fill-opacity="0.85"/>
 </g>
</svg>
