<?xml version="1.0" encoding="UTF-8"?>
<!--Generator: Apple Native CoreSVG 360-->
<!DOCTYPE svg
PUBLIC "-//W3C//DTD SVG 1.1//EN"
       "http://www.w3.org/Graphics/SVG/1.1/DTD/svg11.dtd">
<svg version="1.1" xmlns="http://www.w3.org/2000/svg" xmlns:xlink="http://www.w3.org/1999/xlink" viewBox="0 0 34.3431 23.4314">
 <g>
  <rect height="23.4314" opacity="0" width="34.3431" x="0" y="0"/>
  <path d="M33.1325 9.97546C34.1286 10.7489 34.2575 11.8153 33.4723 12.8231L25.4919 22.995C25.1403 23.452 24.5426 23.5575 24.0036 23.2762C21.9997 22.2215 19.3044 21.5301 16.9958 21.5301C14.6872 21.5301 11.9801 22.2215 9.97624 23.2762C9.43718 23.5575 8.86296 23.452 8.49968 22.995L0.519207 12.8231C-0.277668 11.8153-0.148761 10.7489 0.847332 9.97546C4.36096 7.24042 9.52405 5.90829 14.4528 5.57726L14.4528 7.50355C10.1596 7.81638 6.23055 9.00625 2.52311 11.37C2.20671 11.5809 2.17155 11.8505 2.39421 12.1551L9.33171 20.9794C9.55436 21.2723 9.69499 21.2958 9.98796 21.1786C12.3786 20.2059 14.8512 19.6434 16.9958 19.6434C19.1286 19.6434 21.613 20.2059 24.0036 21.1786C24.2966 21.2958 24.4255 21.2723 24.6598 20.9794L31.5856 12.1551C31.82 11.8505 31.7848 11.5809 31.4684 11.37C28.1256 9.22034 23.9946 7.87553 19.5387 7.51573L19.5387 5.57623C24.5078 5.90699 29.6433 7.24607 33.1325 9.97546Z" fill="black" fill-opacity="0.85"/>
  <path d="M16.9958 16.7958C17.5114 16.7958 17.9333 16.3622 17.9333 15.8465L17.9333 12.8583C17.9333 12.3426 17.5114 11.909 16.9958 11.909C16.4801 11.909 16.0466 12.3426 16.0466 12.8583L16.0466 15.8465C16.0466 16.3622 16.4801 16.7958 16.9958 16.7958ZM16.9958 10.3387C17.5114 10.3387 17.9333 9.91686 17.9333 9.40124L17.9333 6.40124C17.9333 5.88561 17.5114 5.46374 16.9958 5.46374C16.4801 5.46374 16.0466 5.88561 16.0466 6.40124L16.0466 9.40124C16.0466 9.91686 16.4801 10.3387 16.9958 10.3387ZM4.15202 3.82311C4.59733 4.08092 5.10124 3.95202 5.44108 3.54186C6.08561 2.78014 6.89421 2.20592 7.81999 1.8778C8.32389 1.6903 8.6403 1.25671 8.53483 0.729362C8.40593 0.143424 7.83171-0.126107 7.1403 0.108268C5.94499 0.518424 4.80827 1.32702 3.94108 2.39342C3.51921 2.90905 3.67155 3.53014 4.15202 3.82311ZM15.6598 3.79967C16.1403 3.50671 16.2575 2.89733 15.8473 2.38171C14.9801 1.3153 13.8317 0.518424 12.6598 0.119987C11.9216-0.137826 11.3708 0.190299 11.2653 0.752799C11.1833 1.26842 11.4762 1.6903 11.9801 1.8778C12.8942 2.20592 13.7028 2.78014 14.3356 3.53014C14.7106 3.97546 15.2028 4.05749 15.6598 3.79967ZM18.32 3.79967C18.7887 4.05749 19.2692 3.97546 19.6559 3.53014C20.277 2.78014 21.0856 2.20592 21.9997 1.8778C22.5153 1.6903 22.8083 1.26842 22.7145 0.752799C22.6208 0.190299 22.07-0.137826 21.3317 0.119987C20.1481 0.518424 18.9997 1.3153 18.1325 2.38171C17.7223 2.89733 17.8395 3.50671 18.32 3.79967ZM29.8395 3.82311C30.32 3.53014 30.4723 2.90905 30.0505 2.39342C29.1833 1.32702 28.0466 0.518424 26.8395 0.108268C26.1481-0.126107 25.5739 0.143424 25.4567 0.729362C25.3395 1.25671 25.6676 1.6903 26.1716 1.8778C27.0973 2.20592 27.9059 2.78014 28.5387 3.54186C28.8903 3.95202 29.3825 4.08092 29.8395 3.82311Z" fill="black" fill-opacity="0.85"/>
 </g>
</svg>
