<?xml version="1.0" encoding="UTF-8"?>
<!--Generator: Apple Native CoreSVG 360-->
<!DOCTYPE svg
PUBLIC "-//W3C//DTD SVG 1.1//EN"
       "http://www.w3.org/Graphics/SVG/1.1/DTD/svg11.dtd">
<svg version="1.1" xmlns="http://www.w3.org/2000/svg" xmlns:xlink="http://www.w3.org/1999/xlink" viewBox="0 0 33.1562 27.7383">
 <g>
  <rect height="27.7383" opacity="0" width="33.1562" x="0" y="0"/>
  <path d="M31.959 9.62109C32.9434 10.3945 33.084 11.4727 32.3105 12.457L24.6465 22.207C24.2715 22.6875 23.6621 22.8164 23.1113 22.5117C21.1777 21.5156 18.623 20.8359 16.4082 20.8359C15.9793 20.8359 15.5373 20.8614 15.0873 20.9168L14.0248 19.091C14.849 18.951 15.6498 18.8789 16.4082 18.8789C18.4707 18.8789 20.873 19.418 23.1816 20.3789C23.4277 20.4727 23.5098 20.4727 23.709 20.2148L30.377 11.7188C30.5879 11.4609 30.541 11.2617 30.2715 11.0742C26.3105 8.55469 21.2129 7.19531 16.4082 7.19531C13.5719 7.19531 10.642 7.66674 7.90861 8.5809L6.82838 6.72463C9.67583 5.83149 13.0113 5.28516 16.4082 5.28516C22.7012 5.28516 28.7715 7.16016 31.959 9.62109ZM6.10578 9.24797C4.84725 9.75629 3.65213 10.3699 2.54492 11.0742C2.26367 11.2617 2.22851 11.4609 2.42773 11.7188L9.10742 20.2148C9.30664 20.4727 9.38867 20.4727 9.63476 20.3789C10.4501 20.0395 11.2756 19.7528 12.0935 19.5269L13.1056 21.2642C11.8885 21.5565 10.7044 21.9909 9.69336 22.5117C9.14258 22.8164 8.54492 22.6875 8.1582 22.207L0.505857 12.457C-0.279299 11.4727-0.138674 10.3945 0.845701 9.62109C1.93114 8.78307 3.35224 8.01299 5.00875 7.36473Z" fill="black" fill-opacity="0.85"/>
  <path d="M9.99804 0.9375C9.99804 1.45312 9.57617 1.88672 9.06054 1.88672L2.65039 1.88672C2.13476 1.88672 1.70117 1.45312 1.70117 0.9375C1.70117 0.421875 2.13476 0 2.65039 0L9.06054 0C9.57617 0 9.99804 0.421875 9.99804 0.9375ZM20.5566 0.9375C20.5566 1.45312 20.123 1.88672 19.6074 1.88672L13.1973 1.88672C12.6816 1.88672 12.248 1.45312 12.248 0.9375C12.248 0.421875 12.6816 0 13.1973 0L19.6074 0C20.123 0 20.5566 0.421875 20.5566 0.9375ZM31.1035 0.9375C31.1035 1.45312 30.6699 1.88672 30.1543 1.88672L23.7441 1.88672C23.2285 1.88672 22.8066 1.45312 22.8066 0.9375C22.8066 0.421875 23.2285 0 23.7441 0L30.1543 0C30.6699 0 31.1035 0.421875 31.1035 0.9375Z" fill="black" fill-opacity="0.85"/>
  <path d="M16.4199 27.7266C17.8496 27.7266 19.0566 26.5312 19.0566 25.0781C19.0566 23.625 17.8613 22.4297 16.4199 22.4297C14.9668 22.4297 13.7715 23.625 13.7715 25.0781C13.7715 26.5312 14.9551 27.7266 16.4199 27.7266ZM16.4199 26.1562C15.8105 26.1562 15.3301 25.6758 15.3301 25.0781C15.3301 24.4805 15.8105 23.9766 16.4199 23.9766C17.0059 23.9766 17.5215 24.4805 17.5215 25.0781C17.5215 25.6758 17.0059 26.1562 16.4199 26.1562ZM14.6855 23.9766L16.3496 23.0859L5.77929 4.92188C5.52148 4.47656 4.98242 4.3125 4.46679 4.57031C3.98633 4.81641 3.88086 5.42578 4.13867 5.87109Z" fill="black" fill-opacity="0.85"/>
 </g>
</svg>
