<?xml version="1.0" encoding="UTF-8"?>
<!--Generator: Apple Native CoreSVG 360-->
<!DOCTYPE svg
PUBLIC "-//W3C//DTD SVG 1.1//EN"
       "http://www.w3.org/Graphics/SVG/1.1/DTD/svg11.dtd">
<svg version="1.1" xmlns="http://www.w3.org/2000/svg" xmlns:xlink="http://www.w3.org/1999/xlink" viewBox="0 0 41.0462 24.1992">
 <g>
  <rect height="24.1992" opacity="0" width="41.0462" x="0" y="0"/>
  <path d="M39.8005 18.4805C39.8005 19.2773 39.0973 19.957 38.2653 19.957C37.4216 19.957 36.7301 19.2773 36.7301 18.4805C36.7301 17.6719 37.4098 17.0039 38.2653 17.0039C39.1091 17.0039 39.8005 17.6719 39.8005 18.4805ZM39.5075 5.46094L39.2614 13.7578C39.238 14.3555 38.8395 14.7539 38.2653 14.7539C37.6911 14.7539 37.2809 14.3555 37.2575 13.7578L37.0114 5.46094C36.988 4.71094 37.4919 4.20703 38.2653 4.20703C39.0387 4.20703 39.5309 4.71094 39.5075 5.46094Z" fill="black" fill-opacity="0.85"/>
  <path d="M33.1325 5.73047C34.1286 6.50391 34.2575 7.57031 33.4606 8.57812L25.4919 18.75C25.1403 19.207 24.5426 19.3125 24.0036 19.0312C21.9997 17.9766 19.3044 17.2852 16.9958 17.2852C16.5597 17.2852 16.1094 17.3098 15.6501 17.3643L14.6271 15.6043C15.4463 15.4681 16.2413 15.3984 16.9958 15.3984C19.1286 15.3984 21.6012 15.9609 23.9919 16.9336C24.2848 17.0508 24.4255 17.0273 24.6481 16.7344L31.5856 7.91016C31.8083 7.60547 31.7731 7.33594 31.4567 7.11328C27.4255 4.57031 22.2692 3.12891 16.9958 3.12891C13.9487 3.12891 10.9445 3.60801 8.18177 4.51499L7.13 2.70541C10.053 1.79862 13.4778 1.24219 16.9958 1.24219C23.5817 1.24219 29.8512 3.19922 33.1325 5.73047ZM6.37052 5.17101C5.00119 5.70791 3.71313 6.3626 2.52311 7.11328C2.20671 7.33594 2.17155 7.60547 2.39421 7.91016L9.33171 16.7344C9.55436 17.0273 9.69499 17.0508 9.98796 16.9336C10.8803 16.5705 11.7841 16.2646 12.6779 16.0241L13.6522 17.7005C12.3371 18.0011 11.0548 18.4636 9.97624 19.0312C9.43718 19.3125 8.83952 19.207 8.48796 18.75L0.519207 8.57812C-0.277668 7.57031-0.148761 6.50391 0.847332 5.73047C2.0006 4.8408 3.52302 4.02207 5.30478 3.33721Z" fill="black" fill-opacity="0.85"/>
  <path d="M15.2497 20.4492L16.9255 19.5586L5.89811 0.585938C5.6403 0.152344 5.10124-0.0234375 4.58561 0.246094C4.10514 0.480469 3.98796 1.08984 4.25749 1.53516ZM16.9958 24.1992C18.4255 24.1992 19.6325 23.0039 19.6325 21.5625C19.6325 20.0977 18.4372 18.9141 16.9958 18.9141C15.5426 18.9141 14.3473 20.0977 14.3473 21.5625C14.3473 23.0156 15.5309 24.1992 16.9958 24.1992ZM16.9958 22.6406C16.3864 22.6406 15.9059 22.1484 15.9059 21.5625C15.9059 20.9531 16.3864 20.4492 16.9958 20.4492C17.5817 20.4492 18.0856 20.9531 18.0856 21.5625C18.0856 22.1484 17.5817 22.6406 16.9958 22.6406Z" fill="black" fill-opacity="0.85"/>
 </g>
</svg>
