<?xml version="1.0" encoding="UTF-8"?>
<!--Generator: Apple Native CoreSVG 360-->
<!DOCTYPE svg
PUBLIC "-//W3C//DTD SVG 1.1//EN"
       "http://www.w3.org/Graphics/SVG/1.1/DTD/svg11.dtd">
<svg version="1.1" xmlns="http://www.w3.org/2000/svg" xmlns:xlink="http://www.w3.org/1999/xlink" viewBox="0 0 24.4453 24.7617">
 <g>
  <rect height="24.7617" opacity="0" width="24.4453" x="0" y="0"/>
  <path d="M20.8008 4.24219C21.0469 4.24219 21.2461 4.01953 21.2227 3.75L21.1523 2.77734L21.9727 3.32812C22.1602 3.45703 22.4648 3.41016 22.6055 3.19922C22.7578 2.97656 22.6523 2.66016 22.3945 2.55469L21.5273 2.12109L22.418 1.67578C22.6406 1.55859 22.7461 1.27734 22.6172 1.04297C22.5 0.832031 22.1719 0.761719 21.9609 0.914062L21.1523 1.46484L21.2344 0.503906C21.2578 0.234375 21.0586 0 20.8008 0C20.5195 0 20.3203 0.210938 20.3438 0.492188L20.4141 1.47656L19.582 0.914062C19.3711 0.773438 19.0781 0.820312 18.9609 1.04297C18.8203 1.27734 18.9141 1.55859 19.1484 1.67578L20.0273 2.12109L19.1602 2.55469C18.9141 2.66016 18.8086 2.95312 18.9492 3.19922C19.0664 3.41016 19.3711 3.46875 19.582 3.32812L20.4141 2.77734L20.3555 3.75C20.3438 4.03125 20.5312 4.24219 20.8008 4.24219Z" fill="black" fill-opacity="0.85"/>
  <path d="M20.8008 21.0469C21.0469 21.0469 21.2461 20.8242 21.2227 20.5664L21.1523 19.5938L21.9727 20.1445C22.1602 20.2734 22.4648 20.2266 22.6055 20.0039C22.7578 19.7812 22.6523 19.4648 22.3945 19.3711L21.5273 18.9258L22.418 18.4805C22.6406 18.375 22.7461 18.0938 22.6172 17.8477C22.5 17.6367 22.1719 17.5664 21.9609 17.7188L21.1523 18.2695L21.2344 17.3086C21.2578 17.0508 21.0586 16.8164 20.8008 16.8164C20.5195 16.8164 20.3203 17.0273 20.3438 17.2969L20.4141 18.2812L19.582 17.7188C19.3711 17.5781 19.0781 17.625 18.9609 17.8477C18.8203 18.0938 18.9141 18.3633 19.1484 18.4805L20.0273 18.9258L19.1602 19.3594C18.9141 19.4648 18.8086 19.7578 18.9492 20.0039C19.0664 20.2148 19.3711 20.2734 19.582 20.1328L20.4141 19.582L20.3555 20.5664C20.3438 20.8359 20.5312 21.0469 20.8008 21.0469Z" fill="black" fill-opacity="0.85"/>
  <path d="M12.3398 22.7812C14.1445 22.7812 15.5391 21.4453 15.5391 19.5352C15.5391 16.7695 12.7148 15.2227 7.51172 15.2227C5.33203 15.2227 2.97656 15.6445 0.984375 16.3242C0.503906 16.5 0.304688 16.9102 0.421875 17.3086C0.539062 17.7188 0.9375 17.9648 1.45312 17.7891C3.31641 17.1211 5.40234 16.7578 7.51172 16.7578C11.7656 16.7578 14.0156 17.8242 14.0156 19.5352C14.0156 20.6016 13.2656 21.2578 12.3398 21.2578C11.4141 21.2578 10.8516 20.6367 10.6875 19.6523C10.6172 19.2188 10.3008 18.8555 9.79688 18.8906C9.26953 18.9258 9.05859 19.3711 9.12891 19.8516C9.33984 21.4805 10.5469 22.7812 12.3398 22.7812Z" fill="black" fill-opacity="0.85"/>
  <path d="M19.7812 14.5195C22.5117 14.5195 24.4453 12.7852 24.4453 10.3594C24.4453 7.96875 22.6055 6.23438 20.3203 6.23438C18.1992 6.23438 16.6289 7.71094 16.3477 9.64453C16.2773 10.1367 16.5469 10.5234 16.9688 10.582C17.4023 10.6406 17.7773 10.3711 17.8711 9.82031C18.0703 8.58984 19.0898 7.75781 20.3203 7.75781C21.75 7.75781 22.9102 8.82422 22.9102 10.3594C22.9102 11.918 21.6797 12.9961 19.7812 12.9961C16.207 12.9961 12.3516 10.957 7.66406 10.957C5.25 10.957 3.04688 11.3438 0.984375 12.0703C0.503906 12.2461 0.304688 12.6562 0.421875 13.0547C0.539062 13.4648 0.9375 13.7109 1.45312 13.5352C3.36328 12.8086 5.35547 12.4922 7.66406 12.4922C12.3398 12.4922 15.832 14.5195 19.7812 14.5195Z" fill="black" fill-opacity="0.85"/>
  <path d="M1.45312 9.03516C3.14062 8.49609 4.88672 8.21484 6.55078 8.21484C8.70703 8.21484 10.2891 8.56641 12.3281 8.56641C14.4375 8.56641 15.75 7.13672 15.75 5.27344C15.75 3.36328 14.2852 1.99219 12.4805 1.99219C11.1445 1.99219 9.97266 2.83594 9.48047 3.94922C9.29297 4.33594 9.36328 4.78125 9.77344 4.99219C10.1484 5.17969 10.6055 5.0625 10.8516 4.59375C11.1094 3.99609 11.7422 3.52734 12.4805 3.52734C13.4531 3.52734 14.2148 4.20703 14.2148 5.27344C14.2148 6.33984 13.4766 7.04297 12.3281 7.04297C10.3828 7.04297 8.77734 6.69141 6.55078 6.69141C4.64062 6.69141 2.70703 7.03125 0.984375 7.58203C0.492188 7.72266 0.304688 8.14453 0.421875 8.54297C0.539062 8.95312 0.925781 9.1875 1.45312 9.03516Z" fill="black" fill-opacity="0.85"/>
 </g>
</svg>
