<?xml version="1.0" encoding="UTF-8"?>
<!--Generator: Apple Native CoreSVG 360-->
<!DOCTYPE svg
PUBLIC "-//W3C//DTD SVG 1.1//EN"
       "http://www.w3.org/Graphics/SVG/1.1/DTD/svg11.dtd">
<svg version="1.1" xmlns="http://www.w3.org/2000/svg" xmlns:xlink="http://www.w3.org/1999/xlink" viewBox="0 0 30.6328 19.5117">
 <g>
  <rect height="19.5117" opacity="0" width="30.6328" x="0" y="0"/>
  <path d="M0 18.5156C0 19.0547 0.445312 19.4883 0.972656 19.4883L29.3086 19.4883C29.8477 19.4883 30.2812 19.0547 30.2812 18.5156C30.2812 17.9766 29.8477 17.543 29.3086 17.543L28.6758 17.543L28.6758 1.74609C28.6758 0.703125 27.9609 0 26.8711 0L3.375 0C2.29688 0 1.57031 0.703125 1.57031 1.74609L1.57031 17.543L0.972656 17.543C0.445312 17.543 0 17.9766 0 18.5156ZM3.46875 8.77734L3.46875 2.21484C3.46875 2.02734 3.58594 1.88672 3.76172 1.88672L14.3555 1.88672L14.3555 8.77734ZM15.8906 8.77734L15.8906 1.88672L26.4961 1.88672C26.6719 1.88672 26.7891 2.02734 26.7891 2.21484L26.7891 8.77734ZM3.46875 17.543L3.46875 10.7227L26.7891 10.7227L26.7891 17.543Z" fill="black" fill-opacity="0.85"/>
 </g>
</svg>
