<?xml version="1.0" encoding="UTF-8"?>
<!--Generator: Apple Native CoreSVG 360-->
<!DOCTYPE svg
PUBLIC "-//W3C//DTD SVG 1.1//EN"
       "http://www.w3.org/Graphics/SVG/1.1/DTD/svg11.dtd">
<svg version="1.1" xmlns="http://www.w3.org/2000/svg" xmlns:xlink="http://www.w3.org/1999/xlink" viewBox="0 0 24.293 24.8789">
 <g>
  <rect height="24.8789" opacity="0" width="24.293" x="0" y="0"/>
  <path d="M0 23.8945C0 24.4219 0.445312 24.8672 0.972656 24.8672L22.9688 24.8672C23.4961 24.8672 23.9414 24.4219 23.9414 23.8945C23.9414 23.3555 23.4961 22.9219 22.9688 22.9219L22.3359 22.9219L22.3359 1.74609C22.3359 0.703125 21.6094 0 20.5312 0L3.375 0C2.29688 0 1.57031 0.703125 1.57031 1.74609L1.57031 22.9219L0.972656 22.9219C0.445312 22.9219 0 23.3555 0 23.8945ZM3.46875 11.4844L3.46875 2.20312C3.46875 2.01562 3.58594 1.88672 3.76172 1.88672L11.1914 1.88672L11.1914 11.4844ZM12.7266 11.4844L12.7266 1.88672L20.1445 1.88672C20.3203 1.88672 20.4375 2.01562 20.4375 2.20312L20.4375 11.4844ZM3.46875 22.9219L3.46875 13.3711L11.1914 13.3711L11.1914 22.9219ZM12.7266 22.9219L12.7266 13.3711L20.4375 13.3711L20.4375 22.9219Z" fill="black" fill-opacity="0.85"/>
 </g>
</svg>
