<?xml version="1.0" encoding="UTF-8"?>
<!--Generator: Apple Native CoreSVG 360-->
<!DOCTYPE svg
PUBLIC "-//W3C//DTD SVG 1.1//EN"
       "http://www.w3.org/Graphics/SVG/1.1/DTD/svg11.dtd">
<svg version="1.1" xmlns="http://www.w3.org/2000/svg" xmlns:xlink="http://www.w3.org/1999/xlink" viewBox="0 0 28.0195 28.0195">
 <g>
  <rect height="28.0195" opacity="0" width="28.0195" x="0" y="0"/>
  <path d="M2.95829 8.67127C2.25672 8.86575 1.88672 9.4231 1.88672 10.3359L1.88672 18.2109C1.88672 19.3711 2.48438 19.957 3.59766 19.957L9.52441 19.957L10.6221 21.8437L3.57422 21.8438C1.20703 21.8438 0 20.6602 0 18.3164L0 10.2305C0 8.50059 0.657549 7.40272 1.95592 6.94842ZM27.668 10.2305L27.668 18.3164C27.668 20.6602 26.4727 21.8438 24.0938 21.8438L12.8193 21.8437L11.7197 19.957L24.0703 19.957C25.1602 19.957 25.7812 19.3711 25.7812 18.2109L25.7812 10.3359C25.7812 9.17578 25.1602 8.58984 24.0703 8.58984L16.3828 8.58984L16.3828 6.70312L24.0938 6.70312C26.4727 6.70312 27.668 7.89844 27.668 10.2305ZM11.2852 8.58984L5.09504 8.58984L3.99548 6.70313L11.2852 6.70312Z" fill="black" fill-opacity="0.85"/>
  <path d="M14.7773 12.3164L14.7773 15.1875C14.7773 15.7031 14.3438 16.1367 13.8281 16.1367C13.3242 16.1367 12.8789 15.7031 12.8789 15.1875L12.8789 12.3164C12.8789 11.8008 13.3242 11.3555 13.8281 11.3555C14.3438 11.3555 14.7773 11.8008 14.7773 12.3164ZM14.7773 6.11719L14.7773 9C14.7773 9.51562 14.3438 9.9375 13.8281 9.9375C13.3242 9.9375 12.8789 9.51562 12.8789 9L12.8789 6.11719C12.8789 5.60156 13.3242 5.16797 13.8281 5.16797C14.3438 5.16797 14.7773 5.60156 14.7773 6.11719ZM5.74219 0.855469C5.84766 1.37109 5.53125 1.80469 5.02734 2.01562C4.14844 2.30859 3.38672 2.87109 2.76562 3.59766C2.42578 4.00781 1.92188 4.13672 1.47656 3.85547C0.996094 3.57422 0.832031 2.94141 1.26562 2.4375C2.09766 1.40625 3.19922 0.609375 4.35938 0.234375C5.03906-0.0117188 5.61328 0.269531 5.74219 0.855469ZM23.3086 0.234375C24.4688 0.609375 25.5703 1.40625 26.4023 2.4375C26.8359 2.94141 26.6719 3.57422 26.1914 3.85547C25.7461 4.13672 25.2422 4.00781 24.9023 3.59766C24.2812 2.87109 23.5195 2.30859 22.6406 2.01562C22.1367 1.80469 21.8086 1.37109 21.9258 0.855469C22.0547 0.269531 22.6289-0.0117188 23.3086 0.234375ZM9.67969 0.246094C10.8281 0.609375 11.9297 1.39453 12.7734 2.42578C13.1602 2.92969 13.0547 3.55078 12.5742 3.83203C12.1055 4.10156 11.6133 4.03125 11.25 3.58594C10.6406 2.87109 9.86719 2.30859 9.01172 2.01562C8.49609 1.80469 8.21484 1.38281 8.28516 0.878906C8.40234 0.316406 8.95312-0.0234375 9.67969 0.246094ZM19.3828 0.878906C19.4531 1.38281 19.1719 1.80469 18.6562 2.01562C17.7891 2.30859 17.0156 2.87109 16.418 3.58594C16.043 4.03125 15.5508 4.10156 15.0938 3.83203C14.6016 3.55078 14.5078 2.92969 14.8945 2.42578C15.7266 1.39453 16.8398 0.609375 17.9883 0.246094C18.7148-0.0234375 19.2656 0.316406 19.3828 0.878906Z" fill="black" fill-opacity="0.85"/>
  <path d="M13.8047 28.0195C15.2109 28.0195 16.3945 26.8477 16.3945 25.4414C16.3945 24.0234 15.2227 22.8633 13.8047 22.8633C12.4102 22.8633 11.2383 24.0234 11.2383 25.4414C11.2383 26.8594 12.3984 28.0195 13.8047 28.0195ZM13.8047 26.4375C13.2539 26.4375 12.8086 25.9922 12.8086 25.4414C12.8086 24.8789 13.2539 24.4219 13.8047 24.4219C14.3672 24.4219 14.8242 24.8789 14.8242 25.4414C14.8242 25.9922 14.3672 26.4375 13.8047 26.4375ZM12.1289 24.4336L13.8164 23.5547L3.33984 5.57812C3.09375 5.14453 2.56641 4.98047 2.03906 5.22656C1.55859 5.48438 1.45312 6.08203 1.71094 6.52734Z" fill="black" fill-opacity="0.85"/>
 </g>
</svg>
