<?xml version="1.0" encoding="UTF-8"?>
<!--Generator: Apple Native CoreSVG 360-->
<!DOCTYPE svg
PUBLIC "-//W3C//DTD SVG 1.1//EN"
       "http://www.w3.org/Graphics/SVG/1.1/DTD/svg11.dtd">
<svg version="1.1" xmlns="http://www.w3.org/2000/svg" xmlns:xlink="http://www.w3.org/1999/xlink" viewBox="0 0 20.4023 24.8789">
 <g>
  <rect height="24.8789" opacity="0" width="20.4023" x="0" y="0"/>
  <path d="M0 22.4766C0 23.9062 0.984375 24.8672 2.44922 24.8672L17.6016 24.8672C19.0781 24.8672 20.0508 23.9062 20.0508 22.4766L20.0508 2.39062C20.0508 0.960938 19.0781 0 17.6016 0L2.44922 0C0.984375 0 0 0.960938 0 2.39062ZM1.88672 22.3594L1.88672 2.50781C1.88672 2.13281 2.13281 1.88672 2.48438 1.88672L17.5664 1.88672C17.9297 1.88672 18.1641 2.13281 18.1641 2.50781L18.1641 22.3594C18.1641 22.7344 17.9297 22.9805 17.5664 22.9805L2.48438 22.9805C2.13281 22.9805 1.88672 22.7344 1.88672 22.3594Z" fill="black" fill-opacity="0.85"/>
  <path d="M3.65625 7.25391L16.4062 7.25391C16.6289 7.25391 16.8047 7.07812 16.8047 6.86719L16.8047 3.64453C16.8047 3.42188 16.6289 3.24609 16.4062 3.24609L3.65625 3.24609C3.43359 3.24609 3.25781 3.42188 3.25781 3.64453L3.25781 6.86719C3.25781 7.07812 3.43359 7.25391 3.65625 7.25391ZM8.25 5.8125C7.91016 5.8125 7.67578 5.58984 7.67578 5.25C7.67578 4.91016 7.91016 4.6875 8.25 4.6875L11.8125 4.6875C12.1523 4.6875 12.375 4.91016 12.375 5.25C12.375 5.58984 12.1523 5.8125 11.8125 5.8125Z" fill="black" fill-opacity="0.85"/>
 </g>
</svg>
