<?xml version="1.0" encoding="UTF-8"?>
<!--Generator: Apple Native CoreSVG 360-->
<!DOCTYPE svg
PUBLIC "-//W3C//DTD SVG 1.1//EN"
       "http://www.w3.org/Graphics/SVG/1.1/DTD/svg11.dtd">
<svg version="1.1" xmlns="http://www.w3.org/2000/svg" xmlns:xlink="http://www.w3.org/1999/xlink" viewBox="0 0 34.3431 24.1992">
 <g>
  <rect height="24.1992" opacity="0" width="34.3431" x="0" y="0"/>
  <path d="M33.1325 5.73047C34.1286 6.50391 34.2575 7.57031 33.4723 8.57812L25.4919 18.75C25.1403 19.207 24.5426 19.3125 24.0036 19.0312C21.9997 17.9766 19.3044 17.2852 16.9958 17.2852C16.5628 17.2852 16.1158 17.3095 15.6599 17.3633L14.6357 15.603C15.4519 15.4676 16.244 15.3984 16.9958 15.3984C19.1286 15.3984 21.613 15.9609 24.0036 16.9336C24.2966 17.0508 24.4255 17.0273 24.6598 16.7344L31.5856 7.91016C31.82 7.60547 31.7848 7.33594 31.4684 7.11328C27.4372 4.57031 22.2692 3.12891 16.9958 3.12891C13.9551 3.12891 10.9495 3.60812 8.18438 4.5153L7.13111 2.70507C10.0539 1.79848 13.4782 1.24219 16.9958 1.24219C23.5934 1.24219 29.863 3.19922 33.1325 5.73047ZM6.37275 5.17098C5.00225 5.70789 3.71315 6.36259 2.52311 7.11328C2.20671 7.33594 2.17155 7.60547 2.39421 7.91016L9.33171 16.7344C9.56608 17.0273 9.69499 17.0508 9.98796 16.9336C10.8829 16.5695 11.7892 16.2629 12.6856 16.0218L13.6611 17.6986C12.3429 17.9991 11.0572 18.4623 9.97624 19.0312C9.43718 19.3125 8.85124 19.207 8.49968 18.75L0.519207 8.57812C-0.277668 7.57031-0.148761 6.50391 0.847332 5.73047C2.0008 4.84065 3.52355 4.02179 5.30569 3.33686Z" fill="black" fill-opacity="0.85"/>
  <path d="M15.2614 20.4492L16.9372 19.5586L5.89811 0.585938C5.65202 0.152344 5.11296-0.0234375 4.58561 0.246094C4.10514 0.480469 3.99968 1.08984 4.25749 1.53516ZM16.9958 24.1992C18.4255 24.1992 19.6325 23.0039 19.6325 21.5625C19.6325 20.0977 18.4372 18.9141 16.9958 18.9141C15.5426 18.9141 14.3591 20.0977 14.3591 21.5625C14.3591 23.0156 15.5309 24.1992 16.9958 24.1992ZM16.9958 22.6406C16.3864 22.6406 15.9059 22.1484 15.9059 21.5625C15.9059 20.9531 16.3864 20.4492 16.9958 20.4492C17.5817 20.4492 18.0973 20.9531 18.0973 21.5625C18.0973 22.1484 17.5817 22.6406 16.9958 22.6406Z" fill="black" fill-opacity="0.85"/>
 </g>
</svg>
