<?xml version="1.0" encoding="UTF-8"?>
<!--Generator: Apple Native CoreSVG 360-->
<!DOCTYPE svg
PUBLIC "-//W3C//DTD SVG 1.1//EN"
       "http://www.w3.org/Graphics/SVG/1.1/DTD/svg11.dtd">
<svg version="1.1" xmlns="http://www.w3.org/2000/svg" xmlns:xlink="http://www.w3.org/1999/xlink" viewBox="0 0 29.0625 22.8164">
 <g>
  <rect height="22.8164" opacity="0" width="29.0625" x="0" y="0"/>
  <path d="M28.7109 10.3945L28.7109 19.1836C28.7109 21.5977 27.4922 22.8164 25.0312 22.8164L3.67969 22.8164C1.23047 22.8164 0 21.5977 0 19.1836L0 10.3945C0 7.96875 1.23047 6.76172 3.67969 6.76172L11.8125 6.76172L11.8125 8.64844L3.70312 8.64844C2.53125 8.64844 1.88672 9.26953 1.88672 10.4883L1.88672 19.0781C1.88672 20.2969 2.53125 20.9297 3.70312 20.9297L24.9961 20.9297C26.1562 20.9297 26.8242 20.2969 26.8242 19.0781L26.8242 10.4883C26.8242 9.26953 26.1562 8.64844 24.9961 8.64844L16.8984 8.64844L16.8984 6.76172L25.0312 6.76172C27.4922 6.76172 28.7109 7.98047 28.7109 10.3945Z" fill="black" fill-opacity="0.85"/>
  <path d="M1.51172 3.94922C1.95703 4.21875 2.46094 4.08984 2.80078 3.67969C3.44531 2.90625 4.25391 2.33203 5.17969 2.00391C5.68359 1.81641 6 1.38281 5.89453 0.867188C5.76562 0.28125 5.19141 0 4.5 0.246094C3.30469 0.644531 2.16797 1.46484 1.30078 2.53125C0.878906 3.03516 1.03125 3.66797 1.51172 3.94922ZM13.0195 3.92578C13.5 3.64453 13.6172 3.02344 13.207 2.51953C12.3398 1.45312 11.2031 0.644531 10.0195 0.257812C9.28125-0.0117188 8.73047 0.328125 8.625 0.890625C8.54297 1.39453 8.83594 1.81641 9.33984 2.00391C10.2539 2.33203 11.0625 2.90625 11.6953 3.66797C12.0703 4.11328 12.5625 4.19531 13.0195 3.92578ZM15.6914 3.92578C16.1484 4.19531 16.6289 4.11328 17.0156 3.66797C17.6367 2.90625 18.457 2.33203 19.3594 2.00391C19.875 1.81641 20.168 1.39453 20.0742 0.890625C19.9805 0.328125 19.4297-0.0117188 18.6914 0.257812C17.5078 0.644531 16.3594 1.45312 15.4922 2.51953C15.0938 3.02344 15.1992 3.64453 15.6914 3.92578ZM27.1992 3.94922C27.6797 3.66797 27.832 3.03516 27.4102 2.53125C26.543 1.46484 25.4062 0.644531 24.1992 0.246094C23.5195 0 22.9336 0.28125 22.8164 0.867188C22.6992 1.38281 23.0273 1.81641 23.5312 2.00391C24.457 2.33203 25.2656 2.90625 25.9102 3.67969C26.25 4.08984 26.7539 4.21875 27.1992 3.94922ZM14.3555 10.2773C14.8711 10.2773 15.293 9.84375 15.293 9.32812L15.293 6.33984C15.293 5.82422 14.8711 5.40234 14.3555 5.40234C13.8398 5.40234 13.4062 5.82422 13.4062 6.33984L13.4062 9.32812C13.4062 9.84375 13.8398 10.2773 14.3555 10.2773ZM14.3555 16.7227C14.8711 16.7227 15.293 16.3008 15.293 15.7852L15.293 12.7969C15.293 12.2812 14.8711 11.8477 14.3555 11.8477C13.8398 11.8477 13.4062 12.2812 13.4062 12.7969L13.4062 15.7852C13.4062 16.3008 13.8398 16.7227 14.3555 16.7227Z" fill="black" fill-opacity="0.85"/>
 </g>
</svg>
