<?xml version="1.0" encoding="UTF-8"?>
<!--Generator: Apple Native CoreSVG 360-->
<!DOCTYPE svg
PUBLIC "-//W3C//DTD SVG 1.1//EN"
       "http://www.w3.org/Graphics/SVG/1.1/DTD/svg11.dtd">
<svg version="1.1" xmlns="http://www.w3.org/2000/svg" xmlns:xlink="http://www.w3.org/1999/xlink" viewBox="0 0 29.0625 24.1055">
 <g>
  <rect height="24.1055" opacity="0" width="29.0625" x="0" y="0"/>
  <path d="M28.7109 3.63281L28.7109 12.4805C28.7109 14.8945 27.4922 16.1133 25.0312 16.1133L22.7829 16.1133C22.6863 15.3755 22.482 14.7784 22.2436 14.2266L24.9961 14.2266C26.1562 14.2266 26.8242 13.5938 26.8242 12.3867L26.8242 3.72656C26.8242 2.50781 26.1562 1.88672 24.9961 1.88672L3.70312 1.88672C2.53125 1.88672 1.88672 2.50781 1.88672 3.72656L1.88672 12.3867C1.88672 13.5938 2.53125 14.2266 3.70312 14.2266L8.91665 14.2266C9.20533 14.8196 9.46998 15.3989 9.60137 16.1133L3.67969 16.1133C1.23047 16.1133 0 14.9062 0 12.4805L0 3.63281C0 1.20703 1.23047 0 3.67969 0L25.0312 0C27.4922 0 28.7109 1.21875 28.7109 3.63281ZM15.4139 16.1133L11.1579 16.1133C11.0613 15.3755 10.857 14.7784 10.6186 14.2266L14.7292 14.2266C15.0178 14.8196 15.2825 15.3989 15.4139 16.1133ZM21.2264 16.1133L16.9704 16.1133C16.8738 15.3755 16.6695 14.7784 16.4311 14.2266L20.5417 14.2266C20.8303 14.8196 21.095 15.3989 21.2264 16.1133Z" fill="black" fill-opacity="0.85"/>
  <path d="M6.80859 10.2773L10.2539 10.2773C10.7578 10.2773 10.9336 9.78516 10.7344 9.375L9.07031 6.08203C8.96484 5.88281 8.75391 5.76562 8.53125 5.76562C8.30859 5.76562 8.08594 5.88281 7.99219 6.08203L6.32812 9.375C6.11719 9.78516 6.29297 10.2773 6.80859 10.2773ZM9.14062 22.3242C10.6523 20.4492 11.2266 18.9609 11.2266 17.1094C11.2266 13.8281 9.29297 13.0664 9.29297 9.82031L9.29297 9.32812C9.29297 8.90625 8.95312 8.55469 8.53125 8.55469C8.10938 8.55469 7.75781 8.90625 7.75781 9.32812L7.75781 9.80859C7.75781 13.6172 9.69141 14.2969 9.69141 17.1094C9.69141 18.8086 9.19922 19.7578 7.91016 21.3867C7.21875 22.2656 8.41406 23.2148 9.14062 22.3242ZM12.6211 10.2773L16.0547 10.2773C16.5703 10.2773 16.7461 9.78516 16.5352 9.375L14.8711 6.08203C14.7773 5.88281 14.5664 5.76562 14.3438 5.76562C14.1094 5.76562 13.8984 5.88281 13.8047 6.08203L12.1406 9.375C11.9297 9.78516 12.1055 10.2773 12.6211 10.2773ZM14.9531 22.3242C16.4648 20.4492 17.0391 18.9609 17.0391 17.1094C17.0391 13.8281 15.1055 13.0664 15.1055 9.82031L15.1055 9.32812C15.1055 8.90625 14.7656 8.55469 14.3438 8.55469C13.9219 8.55469 13.5703 8.90625 13.5703 9.32812L13.5703 9.80859C13.5703 13.6172 15.5039 14.2969 15.5039 17.1094C15.5039 18.8086 15.0117 19.7578 13.7227 21.3867C13.0312 22.2656 14.2266 23.2148 14.9531 22.3242ZM18.4336 10.2773L21.8672 10.2773C22.3828 10.2773 22.5586 9.78516 22.3477 9.375L20.6836 6.08203C20.5898 5.88281 20.3672 5.76562 20.1445 5.76562C19.9219 5.76562 19.7109 5.88281 19.6055 6.08203L17.9414 9.375C17.7422 9.78516 17.918 10.2773 18.4336 10.2773ZM20.7656 22.3242C22.2773 20.4492 22.8516 18.9609 22.8516 17.1094C22.8516 13.8281 20.918 13.0664 20.918 9.82031L20.918 9.32812C20.918 8.90625 20.5664 8.55469 20.1445 8.55469C19.7227 8.55469 19.3828 8.90625 19.3828 9.32812L19.3828 9.80859C19.3828 13.6172 21.3164 14.2969 21.3164 17.1094C21.3164 18.8086 20.8242 19.7578 19.5352 21.3867C18.8438 22.2656 20.0391 23.2148 20.7656 22.3242Z" fill="black" fill-opacity="0.85"/>
 </g>
</svg>
