<?xml version="1.0" encoding="UTF-8"?>
<!--Generator: Apple Native CoreSVG 360-->
<!DOCTYPE svg
PUBLIC "-//W3C//DTD SVG 1.1//EN"
       "http://www.w3.org/Graphics/SVG/1.1/DTD/svg11.dtd">
<svg version="1.1" xmlns="http://www.w3.org/2000/svg" xmlns:xlink="http://www.w3.org/1999/xlink" viewBox="0 0 35.8477 24.2227">
 <g>
  <rect height="24.2227" opacity="0" width="35.8477" x="0" y="0"/>
  <path d="M35.4961 18.4922C35.4961 19.2891 34.793 19.9688 33.9609 19.9688C33.1172 19.9688 32.4141 19.2891 32.4141 18.4922C32.4141 17.6836 33.1055 17.0156 33.9609 17.0156C34.8047 17.0156 35.4961 17.6836 35.4961 18.4922ZM35.2031 5.47266L34.957 13.7695C34.9336 14.3672 34.5352 14.7656 33.9609 14.7656C33.3867 14.7656 32.9766 14.3672 32.9531 13.7695L32.707 5.47266C32.6836 4.72266 33.1875 4.21875 33.9609 4.21875C34.7227 4.21875 35.2266 4.72266 35.2031 5.47266Z" fill="black" fill-opacity="0.85"/>
  <path d="M2.94059 3.86332C2.25468 4.09435 1.88672 4.6807 1.88672 5.60156L1.88672 14.1797C1.88672 15.3984 2.53125 16.0312 3.70312 16.0312L10.0153 16.0312L11.1123 17.918L3.67969 17.918C1.23047 17.918 0 16.6992 0 14.2852L0 5.49609C0 3.73748 0.646707 2.61942 1.9391 2.14084ZM28.7109 5.49609L28.7109 14.2852C28.7109 16.6992 27.4922 17.918 25.0312 17.918L13.3048 17.918L12.2065 16.0312L24.9961 16.0312C26.1562 16.0312 26.8242 15.3984 26.8242 14.1797L26.8242 5.60156C26.8242 4.38281 26.1562 3.75 24.9961 3.75L5.05763 3.75L3.95938 1.86328L25.0312 1.86328C27.4922 1.86328 28.7109 3.08203 28.7109 5.49609Z" fill="black" fill-opacity="0.85"/>
  <path d="M14.332 24.2227C15.7734 24.2227 16.9805 23.0273 16.9805 21.5859C16.9805 20.1211 15.7852 18.9375 14.332 18.9375C12.8906 18.9375 11.6953 20.1211 11.6953 21.5859C11.6953 23.0391 12.8789 24.2227 14.332 24.2227ZM14.332 22.6641C13.7344 22.6641 13.2422 22.1719 13.2422 21.5859C13.2422 20.9766 13.7344 20.4727 14.332 20.4727C14.9297 20.4727 15.4336 20.9766 15.4336 21.5859C15.4336 22.1719 14.9297 22.6641 14.332 22.6641ZM12.5977 20.4727L14.2734 19.582L3.22266 0.597656C2.97656 0.164062 2.4375-0.0117188 1.91016 0.257812C1.42969 0.492188 1.32422 1.10156 1.59375 1.54688Z" fill="black" fill-opacity="0.85"/>
 </g>
</svg>
