<?xml version="1.0" encoding="UTF-8"?>
<!--Generator: Apple Native CoreSVG 360-->
<!DOCTYPE svg
PUBLIC "-//W3C//DTD SVG 1.1//EN"
       "http://www.w3.org/Graphics/SVG/1.1/DTD/svg11.dtd">
<svg version="1.1" xmlns="http://www.w3.org/2000/svg" xmlns:xlink="http://www.w3.org/1999/xlink" viewBox="0 0 28.043 27.9727">
 <g>
  <rect height="27.9727" opacity="0" width="28.043" x="0" y="0"/>
  <path d="M2.98172 8.60095C2.28016 8.79544 1.91016 9.35279 1.91016 10.2656L1.91016 18.1523C1.91016 19.3008 2.50781 19.8867 3.62109 19.8867L9.54785 19.8867L10.6456 21.7734L3.59766 21.7734C1.23047 21.7734 0.0234375 20.6016 0.0234375 18.2461L0.0234375 10.1602C0.0234375 8.43854 0.681281 7.33645 1.98021 6.87956ZM27.6914 10.1602L27.6914 18.2461C27.6914 20.5898 26.4961 21.7734 24.1172 21.7734L12.8427 21.7734L11.7432 19.8867L24.0938 19.8867C25.1836 19.8867 25.8047 19.3008 25.8047 18.1523L25.8047 10.2656C25.8047 9.10547 25.1836 8.51953 24.0938 8.51953L5.11848 8.51953L4.01892 6.63281L24.1172 6.63281C26.4961 6.63281 27.6914 7.82812 27.6914 10.1602Z" fill="black" fill-opacity="0.85"/>
  <path d="M7.55859 0.949219C7.55859 1.46484 7.125 1.88672 6.60938 1.88672L0.9375 1.88672C0.421875 1.88672 0 1.46484 0 0.949219C0 0.433594 0.421875 0 0.9375 0L6.60938 0C7.125 0 7.55859 0.433594 7.55859 0.949219ZM17.6133 0.949219C17.6133 1.46484 17.1914 1.88672 16.6758 1.88672L11.0039 1.88672C10.4883 1.88672 10.0664 1.46484 10.0664 0.949219C10.0664 0.433594 10.4883 0 11.0039 0L16.6758 0C17.1914 0 17.6133 0.433594 17.6133 0.949219ZM27.6914 0.949219C27.6914 1.46484 27.2578 1.88672 26.7422 1.88672L21.082 1.88672C20.5547 1.88672 20.1328 1.46484 20.1328 0.949219C20.1328 0.433594 20.5547 0 21.082 0L26.7422 0C27.2578 0 27.6914 0.433594 27.6914 0.949219Z" fill="black" fill-opacity="0.85"/>
  <path d="M13.8281 27.9492C15.2344 27.9492 16.418 26.7773 16.418 25.3711C16.418 23.9648 15.2461 22.793 13.8281 22.793C12.4336 22.793 11.2617 23.9648 11.2617 25.3711C11.2617 26.7891 12.4219 27.9492 13.8281 27.9492ZM13.8281 26.3672C13.2773 26.3672 12.832 25.9336 12.832 25.3711C12.832 24.8086 13.2773 24.3516 13.8281 24.3516C14.3906 24.3516 14.8477 24.8203 14.8477 25.3711C14.8477 25.9336 14.3906 26.3672 13.8281 26.3672ZM12.1523 24.3633L13.8398 23.4844L3.36328 5.50781C3.11719 5.07422 2.58984 4.91016 2.0625 5.15625C1.58203 5.42578 1.47656 6.01172 1.73438 6.45703Z" fill="black" fill-opacity="0.85"/>
 </g>
</svg>
