<?xml version="1.0" encoding="UTF-8"?>
<!--Generator: Apple Native CoreSVG 360-->
<!DOCTYPE svg
PUBLIC "-//W3C//DTD SVG 1.1//EN"
       "http://www.w3.org/Graphics/SVG/1.1/DTD/svg11.dtd">
<svg version="1.1" xmlns="http://www.w3.org/2000/svg" xmlns:xlink="http://www.w3.org/1999/xlink" viewBox="0 0 34.3314 25.5586">
 <g>
  <rect height="25.5586" opacity="0" width="34.3314" x="0" y="0"/>
  <path d="M33.1325 4.48828C34.1286 5.26172 34.2575 6.32812 33.4723 7.33594L25.4822 17.5282C25.4546 16.533 25.2413 15.7791 24.9663 15.1065L31.5856 6.66797C31.82 6.36328 31.7731 6.09375 31.4684 5.87109C27.4372 3.32812 22.2692 1.88672 16.9958 1.88672C11.7106 1.88672 6.55436 3.32812 2.52311 5.87109C2.20671 6.09375 2.17155 6.36328 2.39421 6.66797L9.54264 15.7734C9.71843 15.9961 9.83561 16.0078 10.07 15.9141C10.6248 15.679 11.1854 15.4682 11.745 15.2856C11.9946 15.8249 12.2053 16.3777 12.2913 17.0598C11.5032 17.3162 10.7619 17.6283 10.1169 17.9766C9.5778 18.2695 8.99186 18.1523 8.6403 17.6953L0.519207 7.33594C-0.277668 6.32812-0.148761 5.26172 0.847332 4.48828C4.12858 1.95703 10.3981 0 16.9958 0C23.5934 0 29.8512 1.95703 33.1325 4.48828ZM23.5701 15.7787C23.7983 16.3558 23.9567 16.985 23.9567 17.7891C23.9567 17.8684 23.9557 17.9461 23.9525 18.0207C23.9224 18.0076 23.8926 17.9927 23.863 17.9766C22.6574 17.3217 21.1021 16.7944 19.5636 16.4988C19.425 15.7141 19.1646 15.088 18.8847 14.4886C20.3887 14.6943 22.0114 15.1387 23.5701 15.7787ZM17.1016 14.3473C17.4082 14.9993 17.7264 15.5816 17.9265 16.2719C17.6074 16.2438 17.2963 16.2305 16.9958 16.2305C15.9943 16.2305 14.8825 16.3766 13.7892 16.6381C13.6798 15.9495 13.477 15.3818 13.2445 14.8533C14.5661 14.5184 15.8464 14.3438 16.9958 14.3438C17.0302 14.3438 17.0647 14.3439 17.1016 14.3473Z" fill="black" fill-opacity="0.85"/>
  <path d="M9.46061 10.9688L12.8942 10.9688C13.4098 10.9688 13.5856 10.4766 13.3747 10.0664L11.7106 6.77344C11.6169 6.57422 11.3942 6.45703 11.1716 6.45703C10.9489 6.45703 10.738 6.57422 10.6325 6.77344L8.96843 10.0664C8.76921 10.4766 8.94499 10.9688 9.46061 10.9688ZM11.7926 23.0039C13.3044 21.1406 13.8786 19.6523 13.8786 17.7891C13.8786 14.5195 11.945 13.7461 11.945 10.5117L11.945 10.0195C11.945 9.59766 11.5934 9.24609 11.1716 9.24609C10.7497 9.24609 10.4098 9.59766 10.4098 10.0195L10.4098 10.4883C10.4098 14.3086 12.3434 14.9883 12.3434 17.7891C12.3434 19.5 11.8512 20.4375 10.5622 22.0781C9.87077 22.957 11.0661 23.9062 11.7926 23.0039ZM15.2614 10.9688L18.7067 10.9688C19.2223 10.9688 19.3981 10.4766 19.1872 10.0664L17.5231 6.77344C17.4176 6.57422 17.2067 6.45703 16.9841 6.45703C16.7614 6.45703 16.5505 6.57422 16.445 6.77344L14.7809 10.0664C14.5817 10.4766 14.7458 10.9688 15.2614 10.9688ZM17.6051 23.0039C19.1051 21.1406 19.6794 19.6523 19.6794 17.7891C19.6794 14.5195 17.7575 13.7461 17.7575 10.5117L17.7575 10.0195C17.7575 9.59766 17.4059 9.24609 16.9841 9.24609C16.5622 9.24609 16.2223 9.59766 16.2223 10.0195L16.2223 10.4883C16.2223 14.3086 18.1442 14.9883 18.1442 17.7891C18.1442 19.5 17.6637 20.4375 16.3747 22.0781C15.6833 22.957 16.8786 23.9062 17.6051 23.0039ZM21.0739 10.9688L24.5192 10.9688C25.0348 10.9688 25.2106 10.4766 24.9997 10.0664L23.3356 6.77344C23.2301 6.57422 23.0192 6.45703 22.7966 6.45703C22.5739 6.45703 22.363 6.57422 22.2575 6.77344L20.5934 10.0664C20.3825 10.4766 20.5583 10.9688 21.0739 10.9688ZM23.4176 23.0039C24.9176 21.1406 25.4919 19.6523 25.4919 17.7891C25.4919 14.5195 23.57 13.7461 23.57 10.5117L23.57 10.0195C23.57 9.59766 23.2184 9.24609 22.7966 9.24609C22.3747 9.24609 22.0348 9.59766 22.0348 10.0195L22.0348 10.4883C22.0348 14.3086 23.9567 14.9883 23.9567 17.7891C23.9567 19.5 23.4762 20.4375 22.1872 22.0781C21.4841 22.957 22.6911 23.9062 23.4176 23.0039Z" fill="black" fill-opacity="0.85"/>
 </g>
</svg>
