<?xml version="1.0" encoding="UTF-8"?>
<!--Generator: Apple Native CoreSVG 360-->
<!DOCTYPE svg
PUBLIC "-//W3C//DTD SVG 1.1//EN"
       "http://www.w3.org/Graphics/SVG/1.1/DTD/svg11.dtd">
<svg version="1.1" xmlns="http://www.w3.org/2000/svg" xmlns:xlink="http://www.w3.org/1999/xlink" viewBox="0 0 25.9322 23.2148">
 <g>
  <rect height="23.2148" opacity="0" width="25.9322" x="0" y="0"/>
  <path d="M2.21415 23.2148L18.0813 23.2148C19.2063 23.2148 19.9681 22.582 20.2493 21.5391L25.4524 2.80078C25.9212 1.125 25.0774 0.0234375 23.3665 0.0234375L7.49931 0.0234375C6.37431 0.0234375 5.62431 0.65625 5.33134 1.6875L0.128216 20.4375C-0.340534 22.1016 0.503216 23.2148 2.21415 23.2148ZM2.00322 20.6016L4.30009 12.3867L11.5774 12.3867L9.08134 21.3164L2.57744 21.3164C2.08525 21.3164 1.87431 21.0703 2.00322 20.6016ZM4.804 10.5234L7.00712 2.66016C7.13603 2.17969 7.44072 1.92188 7.90947 1.92188L14.4954 1.92188L12.0931 10.5234ZM11.0267 21.3164L13.511 12.3867L20.8587 12.3867L18.5735 20.5781C18.4446 21.0469 18.1399 21.3164 17.6712 21.3164ZM14.0149 10.5234L16.429 1.92188L23.0032 1.92188C23.4954 1.92188 23.7063 2.16797 23.5774 2.63672L21.3743 10.5234Z" fill="black" fill-opacity="0.85"/>
 </g>
</svg>
