<?xml version="1.0" encoding="UTF-8"?>
<!--Generator: Apple Native CoreSVG 360-->
<!DOCTYPE svg
PUBLIC "-//W3C//DTD SVG 1.1//EN"
       "http://www.w3.org/Graphics/SVG/1.1/DTD/svg11.dtd">
<svg version="1.1" xmlns="http://www.w3.org/2000/svg" xmlns:xlink="http://www.w3.org/1999/xlink" viewBox="0 0 20.4023 24.8789">
 <g>
  <rect height="24.8789" opacity="0" width="20.4023" x="0" y="0"/>
  <path d="M0 22.4766C0 23.9062 0.984375 24.8672 2.44922 24.8672L17.6016 24.8672C19.0781 24.8672 20.0508 23.9062 20.0508 22.4766L20.0508 2.39062C20.0508 0.960938 19.0781 0 17.6016 0L2.44922 0C0.984375 0 0 0.960938 0 2.39062ZM1.88672 22.3594L1.88672 2.50781C1.88672 2.13281 2.13281 1.88672 2.48438 1.88672L17.5664 1.88672C17.9297 1.88672 18.1641 2.13281 18.1641 2.50781L18.1641 22.3594C18.1641 22.7344 17.9297 22.9805 17.5664 22.9805L2.48438 22.9805C2.13281 22.9805 1.88672 22.7344 1.88672 22.3594Z" fill="black" fill-opacity="0.85"/>
  <path d="M3.65625 21.6211L16.4062 21.6211C16.6289 21.6211 16.8047 21.4336 16.8047 21.2227L16.8047 3.64453C16.8047 3.42188 16.6289 3.24609 16.4062 3.24609L3.65625 3.24609C3.43359 3.24609 3.25781 3.42188 3.25781 3.64453L3.25781 21.2227C3.25781 21.4336 3.43359 21.6211 3.65625 21.6211ZM8.14453 20.1797C7.81641 20.1797 7.58203 19.9453 7.58203 19.6172C7.58203 19.2773 7.81641 19.043 8.14453 19.043L11.7188 19.043C12.0469 19.043 12.2812 19.2773 12.2812 19.6172C12.2812 19.9453 12.0469 20.1797 11.7188 20.1797Z" fill="black" fill-opacity="0.85"/>
 </g>
</svg>
