<?xml version="1.0" encoding="UTF-8"?>
<!--Generator: Apple Native CoreSVG 360-->
<!DOCTYPE svg
PUBLIC "-//W3C//DTD SVG 1.1//EN"
       "http://www.w3.org/Graphics/SVG/1.1/DTD/svg11.dtd">
<svg version="1.1" xmlns="http://www.w3.org/2000/svg" xmlns:xlink="http://www.w3.org/1999/xlink" viewBox="0 0 33.1507 28.9336">
 <g>
  <rect height="28.9336" opacity="0" width="33.1507" x="0" y="0"/>
  <path d="M31.9562 10.8398C32.9406 11.6016 33.0695 12.6797 32.2961 13.6641L24.6437 23.4258C24.2687 23.9062 23.6594 24.0234 23.1086 23.7305C21.175 22.7227 18.6086 22.0547 16.3937 22.0547C15.9664 22.0547 15.5263 22.0796 15.0787 22.134L14.0173 20.3099C14.8408 20.1698 15.6392 20.0977 16.3937 20.0977C18.4679 20.0977 20.8586 20.6367 23.1672 21.5977C23.4133 21.6797 23.4953 21.6797 23.6945 21.4336L30.3742 12.9375C30.5734 12.668 30.5383 12.4805 30.257 12.293C27.0865 10.2576 23.1805 8.98208 18.9367 8.60917L18.9367 6.59947C24.2868 7.02355 29.2114 8.71284 31.9562 10.8398ZM6.09115 10.4585C4.82329 10.9699 3.63245 11.5855 2.53045 12.293C2.26092 12.4805 2.21404 12.668 2.42498 12.9375L9.09295 21.4336C9.30389 21.6797 9.3742 21.6797 9.62029 21.5977C10.4369 21.2595 11.2622 20.9735 12.0785 20.7482L13.0868 22.481C11.8763 22.7717 10.699 23.2049 9.69061 23.7305C9.13982 24.0234 8.53045 23.9062 8.15545 23.4258L0.491387 13.6641C-0.270332 12.6797-0.141425 11.6016 0.84295 10.8398C1.92446 10.0018 3.34303 9.23165 5.00094 8.58487ZM13.8508 8.60917C11.7692 8.79209 9.76885 9.19215 7.89843 9.7953L6.82302 7.94731C8.94551 7.27256 11.3509 6.79781 13.8508 6.59953Z" fill="black" fill-opacity="0.85"/>
  <path d="M17.3429 13.0547L17.3429 16.043C17.3429 16.5586 16.9211 16.9805 16.4054 16.9805C15.8781 16.9805 15.4562 16.5586 15.4562 16.043L15.4562 13.0547C15.4562 12.5391 15.8781 12.1055 16.4054 12.1055C16.9211 12.1055 17.3429 12.5391 17.3429 13.0547ZM17.3429 6.59766L17.3429 9.58594C17.3429 10.1016 16.9211 10.5352 16.4054 10.5352C15.8781 10.5352 15.4562 10.1016 15.4562 9.58594L15.4562 6.59766C15.4562 6.08203 15.8781 5.66016 16.4054 5.66016C16.9211 5.66016 17.3429 6.08203 17.3429 6.59766ZM7.93279 0.925781C8.04998 1.45312 7.72186 1.88672 7.21795 2.07422C6.29217 2.39062 5.48357 2.97656 4.85076 3.73828C4.4992 4.14844 4.00701 4.27734 3.5617 4.01953C3.06951 3.72656 2.92889 3.10547 3.33904 2.58984C4.20623 1.52344 5.34295 0.714844 6.54998 0.304688C7.24139 0.0703125 7.81561 0.339844 7.93279 0.925781ZM26.2492 0.304688C27.4562 0.714844 28.5929 1.52344 29.4601 2.58984C29.8703 3.10547 29.7297 3.72656 29.2375 4.01953C28.7922 4.27734 28.3 4.14844 27.9484 3.73828C27.3156 2.97656 26.4953 2.39062 25.5812 2.07422C25.0656 1.88672 24.7492 1.45312 24.8664 0.925781C24.9836 0.339844 25.5578 0.0703125 26.2492 0.304688ZM12.0578 0.316406C13.2414 0.714844 14.3898 1.51172 15.257 2.57812C15.6672 3.09375 15.55 3.70312 15.0695 3.99609C14.6125 4.25391 14.1203 4.17188 13.7453 3.72656C13.1125 2.97656 12.3039 2.39062 11.3898 2.07422C10.8859 1.88672 10.5812 1.46484 10.675 0.949219C10.7804 0.386719 11.3312 0.0585938 12.0578 0.316406ZM22.1242 0.949219C22.2179 1.46484 21.9133 1.88672 21.4094 2.07422C20.4953 2.39062 19.6867 2.97656 19.0539 3.72656C18.6789 4.17188 18.1867 4.25391 17.7297 3.99609C17.2492 3.70312 17.132 3.09375 17.5422 2.57812C18.4094 1.51172 19.5578 0.714844 20.7414 0.316406C21.4679 0.0585938 22.0187 0.386719 22.1242 0.949219Z" fill="black" fill-opacity="0.85"/>
  <path d="M16.4054 28.9336C17.8351 28.9336 19.0422 27.7383 19.0422 26.2969C19.0422 24.8438 17.8469 23.6484 16.4054 23.6484C14.9523 23.6484 13.757 24.8438 13.757 26.2969C13.757 27.75 14.9406 28.9336 16.4054 28.9336ZM16.4054 27.375C15.7961 27.375 15.3156 26.8945 15.3156 26.2969C15.3156 25.6875 15.7961 25.1836 16.4054 25.1836C16.9914 25.1836 17.4953 25.6992 17.4953 26.2969C17.4953 26.8945 16.9914 27.375 16.4054 27.375ZM16.3351 24.293L5.76482 6.12891C5.50701 5.69531 4.96795 5.51953 4.45232 5.78906C3.97186 6.03516 3.85467 6.63281 4.1242 7.07812L14.6594 25.1836Z" fill="black" fill-opacity="0.85"/>
 </g>
</svg>
