<?xml version="1.0" encoding="UTF-8"?>
<!--Generator: Apple Native CoreSVG 360-->
<!DOCTYPE svg
PUBLIC "-//W3C//DTD SVG 1.1//EN"
       "http://www.w3.org/Graphics/SVG/1.1/DTD/svg11.dtd">
<svg version="1.1" xmlns="http://www.w3.org/2000/svg" xmlns:xlink="http://www.w3.org/1999/xlink" viewBox="0 0 29.0625 29.4961">
 <g>
  <rect height="29.4961" opacity="0" width="29.0625" x="0" y="0"/>
  <path d="M2.94059 6.50004C2.25468 6.73107 1.88672 7.31742 1.88672 8.23828L1.88672 16.8164C1.88672 18.0352 2.53125 18.668 3.70312 18.668L10.0153 18.668L11.1123 20.5547L3.67969 20.5547C1.23047 20.5547 0 19.3359 0 16.9219L0 8.13281C0 6.3742 0.646707 5.25614 1.9391 4.77756ZM28.7109 8.13281L28.7109 16.9219C28.7109 19.3359 27.4922 20.5547 25.0312 20.5547L13.3048 20.5547L12.2065 18.668L24.9961 18.668C26.1562 18.668 26.8242 18.0352 26.8242 16.8164L26.8242 8.23828C26.8242 7.01953 26.1562 6.38672 24.9961 6.38672L24.3464 6.38672C24.2705 6.21253 24.2 6.05584 24.1406 5.91797C23.9319 5.47262 23.6849 4.99319 23.4136 4.5L25.0312 4.5C27.4922 4.5 28.7109 5.71875 28.7109 8.13281ZM15.4106 4.5C15.1393 4.99319 14.8923 5.47262 14.6836 5.91797C14.6242 6.05584 14.5537 6.21253 14.4778 6.38672L5.05763 6.38672L3.95937 4.5Z" fill="black" fill-opacity="0.85"/>
  <path d="M20.0391 1.99219C20.9648 3.41016 22.0312 5.16797 22.6758 6.57422C23.0273 7.37109 23.5312 8.41406 23.5312 9.60938C23.5312 12 21.8789 13.6055 19.418 13.6055C16.9453 13.6055 15.293 12 15.293 9.60938C15.293 8.41406 15.7969 7.37109 16.1484 6.57422C16.793 5.16797 17.8594 3.41016 18.7852 1.99219C18.9844 1.72266 19.1719 1.59375 19.418 1.59375C19.6523 1.59375 19.8398 1.72266 20.0391 1.99219Z" fill="black" fill-opacity="0.85"/>
  <path d="M14.332 26.8594C15.7734 26.8594 16.9805 25.6641 16.9805 24.2227C16.9805 22.7578 15.7852 21.5742 14.332 21.5742C12.8906 21.5742 11.6953 22.7578 11.6953 24.2227C11.6953 25.6758 12.8789 26.8594 14.332 26.8594ZM14.332 25.3008C13.7344 25.3008 13.2422 24.8086 13.2422 24.2227C13.2422 23.6133 13.7344 23.1094 14.332 23.1094C14.9297 23.1094 15.4336 23.6133 15.4336 24.2227C15.4336 24.8086 14.9297 25.3008 14.332 25.3008ZM12.5977 23.1094L14.2734 22.2188L3.22266 3.23438C2.97656 2.80078 2.4375 2.625 1.91016 2.89453C1.42969 3.12891 1.32422 3.73828 1.59375 4.18359Z" fill="black" fill-opacity="0.85"/>
 </g>
</svg>
