<?xml version="1.0" encoding="UTF-8"?>
<!--Generator: Apple Native CoreSVG 360-->
<!DOCTYPE svg
PUBLIC "-//W3C//DTD SVG 1.1//EN"
       "http://www.w3.org/Graphics/SVG/1.1/DTD/svg11.dtd">
<svg version="1.1" xmlns="http://www.w3.org/2000/svg" xmlns:xlink="http://www.w3.org/1999/xlink" viewBox="0 0 27.1366 23.2148">
 <g>
  <rect height="23.2148" opacity="0" width="27.1366" x="0" y="0"/>
  <path d="M0.408141 12.6328C-0.552796 14.2969 0.255798 15.9844 2.0722 16.2422L2.42377 16.2539L1.26361 20.4375C0.79486 22.1016 1.63861 23.2148 3.34955 23.2148L19.2285 23.2148C20.3066 23.2148 21.0917 22.582 21.3847 21.5391L26.623 3.32812C27.162 1.45312 26.2831 0.0234375 24.3261 0.0234375L9.24408 0.0234375C7.6972 0.0234375 7.27533 0.621094 6.5722 1.83984ZM2.22455 13.1367L4.62689 8.96484L11.998 8.96484L8.90424 14.3906L2.93939 14.3906C2.08392 14.3906 1.80267 13.8867 2.22455 13.1367ZM5.68158 7.13672L8.35345 2.47266C8.59955 2.05078 8.8222 1.91016 9.27924 1.91016L16.041 1.91016L13.0644 7.13672ZM11.0488 14.3906L14.1425 8.96484L21.291 8.96484L18.5019 13.8398C18.2675 14.2617 18.0331 14.3906 17.5644 14.3906ZM15.1972 7.13672L18.162 1.91016L23.916 1.91016C24.7597 1.91016 25.041 2.4375 24.6191 3.17578L22.3574 7.13672ZM3.13861 20.6016L4.34564 16.2773L17.5995 16.2773C19.1699 16.2773 19.5683 15.6797 20.2714 14.4727L22.7792 10.043L19.7206 20.5781C19.58 21.0469 19.2519 21.3164 18.8066 21.3164L3.71283 21.3164C3.23236 21.3164 3.0097 21.0703 3.13861 20.6016ZM18.6894 22.5469L20.3769 21.6914L17.6113 15.0938L15.9003 15.8906Z" fill="black" fill-opacity="0.85"/>
 </g>
</svg>
