<?xml version="1.0" encoding="UTF-8"?>
<!--Generator: Apple Native CoreSVG 360-->
<!DOCTYPE svg
PUBLIC "-//W3C//DTD SVG 1.1//EN"
       "http://www.w3.org/Graphics/SVG/1.1/DTD/svg11.dtd">
<svg version="1.1" xmlns="http://www.w3.org/2000/svg" xmlns:xlink="http://www.w3.org/1999/xlink" viewBox="0 0 24.4162 24.8789">
 <g>
  <rect height="24.8789" opacity="0" width="24.4162" x="0" y="0"/>
  <path d="M1.53234 14.9648L22.5675 14.9648C23.6105 14.9648 24.255 14.1445 24.0675 12.9258L22.4152 1.78125C22.2511 0.714844 21.6417 0 20.5402 0L3.55968 0C2.45812 0 1.84875 0.714844 1.68468 1.78125L0.0323394 12.9258C-0.155161 14.1445 0.489371 14.9648 1.53234 14.9648ZM2.0714 12.6562L2.71593 8.23828L11.1183 8.23828L11.0948 13.0781L2.4464 13.0781C2.20031 13.0781 2.03625 12.8906 2.0714 12.6562ZM2.93859 6.64453L3.5714 2.25C3.60656 2.02734 3.72375 1.88672 3.93468 1.88672L11.1769 1.88672L11.13 6.64453ZM12.8878 1.88672L20.1652 1.88672C20.3761 1.88672 20.4933 2.02734 20.5284 2.25L21.1612 6.64453L12.923 6.64453ZM12.9347 8.23828L21.3839 8.23828L22.0284 12.6562C22.0636 12.8906 21.8995 13.0781 21.6534 13.0781L12.9698 13.0781ZM1.57921 14.0039L1.57921 23.8945L3.46593 23.8945L3.46593 14.0039ZM20.4464 14.0039L20.4464 23.8945L22.3331 23.8945L22.3331 14.0039ZM0.00890195 23.8945C0.00890195 24.4219 0.442496 24.8672 0.981558 24.8672L22.9659 24.8672C23.505 24.8672 23.9503 24.4219 23.9503 23.8945C23.9503 23.3555 23.505 22.9219 22.9659 22.9219L0.981558 22.9219C0.442496 22.9219 0.00890195 23.3555 0.00890195 23.8945Z" fill="black" fill-opacity="0.85"/>
 </g>
</svg>
