<?xml version="1.0" encoding="UTF-8"?>
<!--Generator: Apple Native CoreSVG 360-->
<!DOCTYPE svg
PUBLIC "-//W3C//DTD SVG 1.1//EN"
       "http://www.w3.org/Graphics/SVG/1.1/DTD/svg11.dtd">
<svg version="1.1" xmlns="http://www.w3.org/2000/svg" xmlns:xlink="http://www.w3.org/1999/xlink" viewBox="0 0 26.5195 25.0195">
 <g>
  <rect height="25.0195" opacity="0" width="26.5195" x="0" y="0"/>
  <path d="M1.55859 22.2188L24.6094 22.2188L24.6094 21.4336C24.6094 20.9648 24.3398 20.6836 23.8594 20.6836L23.1094 20.6836L23.1094 8.03906L24.1406 8.03906C24.7852 8.03906 25.1602 7.57031 25.1602 7.08984C25.1602 6.73828 24.9609 6.43359 24.5273 6.1875L14.5195 0.410156C14.0508 0.140625 13.5586 0 13.0781 0C12.5977 0 12.0938 0.140625 11.6484 0.410156L1.64062 6.1875C1.19531 6.43359 1.00781 6.73828 1.00781 7.08984C1.00781 7.57031 1.38281 8.03906 2.02734 8.03906L3.05859 8.03906L3.05859 20.6836L2.32031 20.6836C1.83984 20.6836 1.55859 20.9648 1.55859 21.4336ZM4.82812 20.6836L4.82812 6.53906L12.6211 2.16797C12.7617 2.08594 12.9258 2.03906 13.0781 2.03906C13.2305 2.03906 13.3945 2.08594 13.5469 2.16797L21.3398 6.53906L21.3398 20.6836ZM0.9375 25.0078L25.2188 25.0078C25.7344 25.0078 26.168 24.5742 26.168 24.0586C26.168 23.543 25.7344 23.1211 25.2188 23.1211L0.9375 23.1211C0.421875 23.1211 0 23.543 0 24.0586C0 24.5742 0.421875 25.0078 0.9375 25.0078Z" fill="black" fill-opacity="0.85"/>
  <path d="M10.0898 17.7656C10.5117 17.7656 10.8516 17.4961 10.9688 17.0508L13.0547 9.17578L13.1367 9.17578L15.1992 17.0508C15.3281 17.5078 15.6328 17.7656 16.1016 17.7656C16.5938 17.7656 16.9219 17.5078 17.0156 17.0273L18.8555 7.96875C18.8672 7.875 18.8789 7.74609 18.8789 7.64062C18.8789 7.21875 18.5625 7.01953 18.2109 7.01953C17.9062 7.01953 17.6133 7.20703 17.5547 7.57031L16.0547 15.9961L15.9961 15.9961L13.8047 7.61719C13.7109 7.24219 13.4883 7.03125 13.1016 7.03125C12.7383 7.03125 12.4922 7.25391 12.3867 7.64062L10.1953 15.9961L10.125 15.9961L8.63672 7.57031C8.57812 7.23047 8.30859 7.01953 7.96875 7.01953C7.57031 7.01953 7.28906 7.24219 7.28906 7.62891C7.28906 7.71094 7.30078 7.83984 7.33594 7.96875L9.17578 17.0273C9.25781 17.4844 9.59766 17.7656 10.0898 17.7656ZM6.43359 12.3281C6.43359 12.5625 6.60938 12.7383 6.84375 12.7383L19.3477 12.7383C19.582 12.7383 19.7578 12.5625 19.7578 12.3281C19.7578 12.1055 19.582 11.9414 19.3477 11.9414L6.84375 11.9414C6.60938 11.9414 6.43359 12.1055 6.43359 12.3281Z" fill="black" fill-opacity="0.85"/>
 </g>
</svg>
