<?xml version="1.0" encoding="UTF-8"?>
<!--Generator: Apple Native CoreSVG 360-->
<!DOCTYPE svg
PUBLIC "-//W3C//DTD SVG 1.1//EN"
       "http://www.w3.org/Graphics/SVG/1.1/DTD/svg11.dtd">
<svg version="1.1" xmlns="http://www.w3.org/2000/svg" xmlns:xlink="http://www.w3.org/1999/xlink" viewBox="0 0 26.8008 21.5273">
 <g>
  <rect height="21.5273" opacity="0" width="26.8008" x="0" y="0"/>
  <path d="M7.13672 21.5039C7.91016 21.5039 8.50781 21.0469 8.70703 20.2852L13.1484 3.9375L13.2891 3.9375L17.7422 20.2852C17.9414 21.0469 18.5391 21.5039 19.2891 21.5039C20.1328 21.5039 20.7305 21.0234 20.8945 20.2383L24.7383 1.69922C24.7852 1.47656 24.8086 1.28906 24.8086 1.05469C24.8086 0.398438 24.2812 0 23.6367 0C23.0273 0 22.582 0.351562 22.4766 0.960938L19.2422 18.3398L19.125 18.3398L14.4492 1.03125C14.2734 0.386719 13.8633 0.046875 13.2422 0.046875C12.5742 0.046875 12.1406 0.398438 11.9766 1.07812L7.3125 18.3398L7.19531 18.3398L3.94922 0.949219C3.84375 0.304688 3.36328 0 2.8125 0C2.14453 0 1.62891 0.410156 1.62891 1.04297C1.62891 1.21875 1.66406 1.51172 1.69922 1.71094L5.54297 20.2383C5.70703 21.0234 6.30469 21.5039 7.13672 21.5039ZM0 10.6523C0 11.0977 0.339844 11.4258 0.796875 11.4258L25.6523 11.4258C26.1094 11.4258 26.4492 11.0977 26.4492 10.6523C26.4492 10.207 26.1094 9.87891 25.6523 9.87891L0.796875 9.87891C0.339844 9.87891 0 10.207 0 10.6523Z" fill="black" fill-opacity="0.85"/>
 </g>
</svg>
