<?xml version="1.0" encoding="UTF-8"?>
<!--Generator: Apple Native CoreSVG 360-->
<!DOCTYPE svg
PUBLIC "-//W3C//DTD SVG 1.1//EN"
       "http://www.w3.org/Graphics/SVG/1.1/DTD/svg11.dtd">
<svg version="1.1" xmlns="http://www.w3.org/2000/svg" xmlns:xlink="http://www.w3.org/1999/xlink" viewBox="0 0 28.582 23.5195">
 <g>
  <rect height="23.5195" opacity="0" width="28.582" x="0" y="0"/>
  <path d="M28.2305 14.1094C28.2305 10.6641 26.9883 7.48828 24.9141 5.02734C24.6797 4.74609 24.2812 4.74609 24.0234 5.01562L21.3047 7.73438C21.082 7.95703 21.0703 8.27344 21.2695 8.51953C22.4766 10.0664 23.2031 12.0117 23.2031 14.1094C23.2031 16.2188 22.4766 18.1641 21.1992 19.793C21.0352 19.9922 21.0469 20.25 21.2227 20.4375L24.0117 23.2266C24.2812 23.4961 24.668 23.4961 24.9141 23.2031C26.9883 20.7422 28.2305 17.5664 28.2305 14.1094Z" fill="black" fill-opacity="0.85"/>
  <path d="M14.1094 5.02734C16.2305 5.02734 18.1758 5.76562 19.7344 6.97266C19.9688 7.16016 20.2734 7.13672 20.4961 6.91406L23.2148 4.19531C23.4844 3.92578 23.4727 3.53906 23.1914 3.30469C20.7422 1.24219 17.5664 0 14.1094 0C10.6641 0 7.48828 1.24219 5.03906 3.30469C4.75781 3.53906 4.74609 3.92578 5.01562 4.19531L7.73438 6.91406C7.95703 7.13672 8.27344 7.16016 8.53125 6.96094C10.0781 5.76562 12.0117 5.02734 14.1094 5.02734Z" fill="black" fill-opacity="0.85"/>
  <path d="M0 14.1094C0 17.5664 1.24219 20.7422 3.31641 23.2031C3.55078 23.4961 3.94922 23.4961 4.20703 23.2266L6.99609 20.4375C7.17188 20.25 7.19531 19.9922 7.03125 19.793C5.75391 18.1641 5.02734 16.2188 5.02734 14.1094C5.02734 12.0117 5.74219 10.0664 6.96094 8.51953C7.14844 8.27344 7.14844 7.95703 6.92578 7.73438L4.20703 5.01562C3.9375 4.74609 3.55078 4.74609 3.31641 5.02734C1.24219 7.48828 0 10.6641 0 14.1094Z" fill="black" fill-opacity="0.85"/>
  <path d="M11.0977 19.6992C11.5312 19.6992 11.8711 19.4297 11.9883 18.9844L14.0742 11.1094L14.1445 11.1094L16.2188 18.9844C16.3359 19.4414 16.6523 19.6992 17.1211 19.6992C17.6016 19.6992 17.9414 19.4414 18.0352 18.9609L19.8633 9.90234C19.8867 9.80859 19.8984 9.67969 19.8984 9.57422C19.8984 9.15234 19.582 8.95312 19.2188 8.95312C18.9258 8.95312 18.6328 9.14062 18.5625 9.50391L17.0742 17.9297L17.0039 17.9297L14.8242 9.55078C14.7305 9.17578 14.4961 8.96484 14.1094 8.96484C13.7578 8.96484 13.5 9.1875 13.3945 9.57422L11.2031 17.9297L11.1445 17.9297L9.65625 9.50391C9.59766 9.16406 9.32812 8.95312 8.98828 8.95312C8.57812 8.95312 8.30859 9.17578 8.30859 9.5625C8.30859 9.64453 8.32031 9.77344 8.34375 9.90234L10.1836 18.9609C10.2773 19.418 10.6172 19.6992 11.0977 19.6992ZM7.44141 14.2617C7.44141 14.4961 7.61719 14.6719 7.85156 14.6719L20.3672 14.6719C20.5898 14.6719 20.7656 14.4961 20.7656 14.2617C20.7656 14.0391 20.5898 13.875 20.3672 13.875L7.85156 13.875C7.61719 13.875 7.44141 14.0391 7.44141 14.2617Z" fill="black" fill-opacity="0.85"/>
 </g>
</svg>
