<?xml version="1.0" encoding="UTF-8"?>
<!--Generator: Apple Native CoreSVG 360-->
<!DOCTYPE svg
PUBLIC "-//W3C//DTD SVG 1.1//EN"
       "http://www.w3.org/Graphics/SVG/1.1/DTD/svg11.dtd">
<svg version="1.1" xmlns="http://www.w3.org/2000/svg" xmlns:xlink="http://www.w3.org/1999/xlink" viewBox="0 0 28.582 23.4085">
 <g>
  <rect height="23.4085" opacity="0" width="28.582" x="0" y="0"/>
  <path d="M28.2305 14.0539C28.2305 6.67105 22.5586 0.612457 15.3398 0.00308175C14.9648-0.0320745 14.6836 0.237457 14.6836 0.612457L14.6836 4.44449C14.6836 4.76089 14.9062 5.00699 15.2227 5.03043C19.7109 5.58121 23.2031 9.41324 23.2031 14.0539C23.2031 16.1632 22.4766 18.1086 21.1992 19.7375C21.0352 19.9367 21.0469 20.1945 21.2227 20.382L24.0234 23.1711C24.2812 23.4289 24.6797 23.4289 24.9141 23.1476C26.9883 20.6867 28.2305 17.5109 28.2305 14.0539Z" fill="black" fill-opacity="0.85"/>
  <path d="M0 14.0539C0 17.5226 1.24219 20.6984 3.31641 23.1593C3.55078 23.4406 3.9375 23.4289 4.20703 23.1711L7.00781 20.382C7.18359 20.1945 7.19531 19.9367 7.03125 19.7375C5.74219 18.1086 5.02734 16.1632 5.02734 14.0539C5.02734 9.41324 8.51953 5.58121 13.0078 5.03043C13.3242 5.00699 13.5469 4.76089 13.5469 4.44449L13.5469 0.612457C13.5469 0.237457 13.2656-0.0320745 12.8906 0.00308175C5.67188 0.612457 0 6.67105 0 14.0539Z" fill="black" fill-opacity="0.85"/>
  <path d="M11.0977 19.6437C11.5312 19.6437 11.8711 19.3742 11.9883 18.9289L14.0742 11.0539L14.1445 11.0539L16.2188 18.9289C16.3359 19.3859 16.6523 19.6437 17.1211 19.6437C17.6016 19.6437 17.9414 19.3859 18.0352 18.9054L19.8633 9.84683C19.8867 9.75308 19.8984 9.62418 19.8984 9.51871C19.8984 9.09683 19.582 8.89761 19.2188 8.89761C18.9258 8.89761 18.6328 9.08511 18.5625 9.44839L17.0742 17.8742L17.0039 17.8742L14.8242 9.49527C14.7305 9.12027 14.4961 8.90933 14.1094 8.90933C13.7578 8.90933 13.5 9.13199 13.3945 9.51871L11.2031 17.8742L11.1445 17.8742L9.65625 9.44839C9.59766 9.10855 9.32812 8.89761 8.98828 8.89761C8.57812 8.89761 8.30859 9.12027 8.30859 9.50699C8.30859 9.58902 8.32031 9.71793 8.34375 9.84683L10.1836 18.9054C10.2773 19.3625 10.6172 19.6437 11.0977 19.6437ZM7.44141 14.2062C7.44141 14.4406 7.61719 14.6164 7.85156 14.6164L20.3672 14.6164C20.5898 14.6164 20.7656 14.4406 20.7656 14.2062C20.7656 13.9836 20.5898 13.8195 20.3672 13.8195L7.85156 13.8195C7.61719 13.8195 7.44141 13.9836 7.44141 14.2062Z" fill="black" fill-opacity="0.85"/>
 </g>
</svg>
