<?xml version="1.0" encoding="UTF-8"?>
<!--Generator: Apple Native CoreSVG 360-->
<!DOCTYPE svg
PUBLIC "-//W3C//DTD SVG 1.1//EN"
       "http://www.w3.org/Graphics/SVG/1.1/DTD/svg11.dtd">
<svg version="1.1" xmlns="http://www.w3.org/2000/svg" xmlns:xlink="http://www.w3.org/1999/xlink" viewBox="0 0 28.2042 28.292">
 <g>
  <rect height="28.292" opacity="0" width="28.2042" x="0" y="0"/>
  <path d="M22.2232 20.5034L23.2779 20.6675C23.6997 20.7261 24.0747 20.9839 24.3208 21.3472L26.7701 25.0034C27.0044 25.3667 27.0396 25.7417 26.7935 25.9995L24.6958 28.0972C24.438 28.355 24.0747 28.355 23.6997 28.1089L20.0318 25.6245C19.6802 25.3902 19.4107 25.0152 19.3521 24.5933L19.188 23.5386L14.0747 18.4253C14.3881 18.02 14.7317 17.5933 15.1119 17.1422L20.8286 22.8589L21.063 24.1714L24.0279 26.4097L25.0943 25.3433L22.856 22.3667L21.5435 22.1441L15.7658 16.3774C16.1055 15.9866 16.4723 15.578 16.8697 15.15ZM7.77396 2.55032L14.7654 9.55168C14.8338 9.74827 14.9145 9.9418 15.0044 10.1323C14.6664 10.4658 14.3377 10.784 14.0211 11.0827L6.54349 3.60501C5.68802 2.76126 4.77396 2.74954 3.94193 3.59329L2.28959 5.25735C1.44584 6.11282 1.43412 7.00344 2.28959 7.85891L9.42665 14.996C8.95231 15.3482 8.5075 15.66 8.08801 15.9405L1.2349 9.07766C-0.405726 7.43704-0.405726 5.67922 1.19974 4.07376L2.75834 2.51516C4.36381 0.909694 6.12162 0.909694 7.77396 2.55032ZM4.41068 6.55813L8.79349 10.9409C8.96927 11.1167 8.95756 11.3863 8.79349 11.5503C8.62943 11.7261 8.34818 11.7261 8.1724 11.5503L3.78959 7.19094C3.61381 7.02688 3.62552 6.74563 3.78959 6.55813C3.96537 6.39407 4.25834 6.41751 4.41068 6.55813ZM5.86381 5.11672L10.2466 9.48782C10.4107 9.65188 10.4107 9.92141 10.2349 10.1206C10.0826 10.273 9.77787 10.2964 9.61381 10.1206L5.25443 5.7261C5.09037 5.56204 5.07865 5.29251 5.25443 5.11672C5.40677 4.95266 5.68802 4.94094 5.86381 5.11672Z" fill="black" fill-opacity="0.85"/>
  <path d="M1.83256 26.7144C3.87162 28.73 6.60209 28.7534 8.60599 26.7378C11.1255 24.1948 10.7271 21.3355 18.4146 13.5308C20.9224 14.7144 23.9576 14.3159 25.9732 12.312C28.0826 10.2027 28.4458 6.87454 26.8755 4.17922L23.688 7.36672C23.3716 7.68313 22.9732 7.70657 22.6333 7.36672L21.2036 5.92532C20.8638 5.57376 20.8286 5.1636 21.1451 4.84719L24.3443 1.67141C21.6724 0.112819 18.356 0.464381 16.2466 2.58547C14.231 4.6011 13.8208 7.62454 15.0044 10.1323C7.21146 17.8198 4.35209 17.4214 1.80912 19.9292C-0.218226 21.9331-0.194789 24.6753 1.83256 26.7144ZM17.5122 11.0347C15.4263 8.94876 15.3443 5.64407 17.3365 3.67532C18.4615 2.5386 20.0669 2.08157 21.6021 2.32766L19.9029 4.02688C19.0357 4.88235 19.0591 5.98391 19.9615 6.86282L21.6958 8.58547C22.563 9.45266 23.6763 9.4761 24.4966 8.64407L26.2193 6.90969C26.4771 8.46829 26.0083 10.0738 24.8716 11.2222C22.8911 13.2027 19.6099 13.1089 17.5122 11.0347ZM2.99271 25.5542C1.64506 24.1831 1.66849 22.437 2.95756 21.1363C5.79349 18.3238 7.48099 19.5191 15.7896 11.398C15.9771 11.6558 16.188 11.8902 16.4107 12.1245C16.6333 12.3472 16.8794 12.5698 17.1372 12.7573C9.02787 21.0659 10.2232 22.7534 7.41068 25.5659C6.1099 26.8784 4.35209 26.8902 2.99271 25.5542ZM5.1724 24.8511C5.96927 24.8511 6.62552 24.1948 6.62552 23.398C6.62552 22.6011 5.96927 21.9566 5.1724 21.9566C4.37552 21.9566 3.73099 22.6011 3.73099 23.398C3.73099 24.1948 4.37552 24.8511 5.1724 24.8511Z" fill="black" fill-opacity="0.85"/>
 </g>
</svg>
