<?xml version="1.0" encoding="UTF-8"?>
<!--Generator: Apple Native CoreSVG 360-->
<!DOCTYPE svg
PUBLIC "-//W3C//DTD SVG 1.1//EN"
       "http://www.w3.org/Graphics/SVG/1.1/DTD/svg11.dtd">
<svg version="1.1" xmlns="http://www.w3.org/2000/svg" xmlns:xlink="http://www.w3.org/1999/xlink" viewBox="0 0 24.2578 23.918">
 <g>
  <rect height="23.918" opacity="0" width="24.2578" x="0" y="0"/>
  <path d="M11.9531 23.9062C18.5508 23.9062 23.9062 18.5508 23.9062 11.9531C23.9062 5.35547 18.5508 0 11.9531 0C5.35547 0 0 5.35547 0 11.9531C0 18.5508 5.35547 23.9062 11.9531 23.9062ZM11.9531 21.9141C6.44531 21.9141 1.99219 17.4609 1.99219 11.9531C1.99219 6.44531 6.44531 1.99219 11.9531 1.99219C17.4609 1.99219 21.9141 6.44531 21.9141 11.9531C21.9141 17.4609 17.4609 21.9141 11.9531 21.9141Z" fill="black" fill-opacity="0.85"/>
  <path d="M8.46094 17.3203C8.83594 17.3203 9.03516 17.1914 9.33984 16.7812L11.8711 13.1719L11.918 13.1719L14.4492 16.7812C14.7422 17.1914 14.9531 17.3203 15.3164 17.3203C15.8438 17.3203 16.2422 16.9688 16.2422 16.4648C16.2422 16.2305 16.1719 16.0547 16.0195 15.8555L13.0781 11.8359L16.043 7.80469C16.207 7.59375 16.2656 7.40625 16.2656 7.18359C16.2656 6.72656 15.8789 6.36328 15.3867 6.36328C15.0234 6.36328 14.7891 6.50391 14.5312 6.89062L12.082 10.5L12.0234 10.5L9.52734 6.87891C9.25781 6.50391 9.03516 6.36328 8.63672 6.36328C8.13281 6.36328 7.72266 6.76172 7.72266 7.23047C7.72266 7.48828 7.78125 7.65234 7.96875 7.91016L10.7812 11.7773L7.79297 15.9023C7.65234 16.1133 7.59375 16.2773 7.59375 16.5117C7.59375 16.9688 7.96875 17.3203 8.46094 17.3203Z" fill="black" fill-opacity="0.85"/>
 </g>
</svg>
