<?xml version="1.0" encoding="UTF-8"?>
<!--Generator: Apple Native CoreSVG 360-->
<!DOCTYPE svg
PUBLIC "-//W3C//DTD SVG 1.1//EN"
       "http://www.w3.org/Graphics/SVG/1.1/DTD/svg11.dtd">
<svg version="1.1" xmlns="http://www.w3.org/2000/svg" xmlns:xlink="http://www.w3.org/1999/xlink" viewBox="0 0 21.9258 21.5742">
 <g>
  <rect height="21.5742" opacity="0" width="21.9258" x="0" y="0"/>
  <path d="M3.67969 21.5742L17.8945 21.5742C20.3555 21.5742 21.5742 20.3672 21.5742 17.9531L21.5742 3.63281C21.5742 1.21875 20.3555 0 17.8945 0L3.67969 0C1.23047 0 0 1.21875 0 3.63281L0 17.9531C0 20.3672 1.23047 21.5742 3.67969 21.5742ZM3.70312 19.6875C2.53125 19.6875 1.88672 19.0664 1.88672 17.8477L1.88672 3.73828C1.88672 2.51953 2.53125 1.88672 3.70312 1.88672L17.8711 1.88672C19.0312 1.88672 19.6875 2.51953 19.6875 3.73828L19.6875 17.8477C19.6875 19.0664 19.0312 19.6875 17.8711 19.6875Z" fill="black" fill-opacity="0.85"/>
  <path d="M7.3125 16.1602C7.6875 16.1602 7.89844 16.0312 8.19141 15.6211L10.7227 12.0117L10.7695 12.0117L13.3008 15.6211C13.5938 16.0312 13.8047 16.1602 14.1797 16.1602C14.707 16.1602 15.0938 15.8086 15.0938 15.3047C15.0938 15.0703 15.0234 14.8945 14.8711 14.6953L11.9297 10.6758L14.8945 6.64453C15.0586 6.43359 15.1289 6.24609 15.1289 6.02344C15.1289 5.56641 14.7305 5.20312 14.2383 5.20312C13.875 5.20312 13.6406 5.34375 13.3828 5.73047L10.9453 9.33984L10.875 9.33984L8.37891 5.71875C8.10938 5.34375 7.88672 5.20312 7.48828 5.20312C6.98438 5.20312 6.57422 5.60156 6.57422 6.07031C6.57422 6.32812 6.64453 6.49219 6.82031 6.75L9.63281 10.6172L6.65625 14.7422C6.50391 14.9531 6.44531 15.1172 6.44531 15.3516C6.44531 15.8086 6.82031 16.1602 7.3125 16.1602Z" fill="black" fill-opacity="0.85"/>
 </g>
</svg>
