<?xml version="1.0" encoding="UTF-8"?>
<!--Generator: Apple Native CoreSVG 360-->
<!DOCTYPE svg
PUBLIC "-//W3C//DTD SVG 1.1//EN"
       "http://www.w3.org/Graphics/SVG/1.1/DTD/svg11.dtd">
<svg version="1.1" xmlns="http://www.w3.org/2000/svg" xmlns:xlink="http://www.w3.org/1999/xlink" viewBox="0 0 23.2969 22.957">
 <g>
  <rect height="22.957" opacity="0" width="23.2969" x="0" y="0"/>
  <path d="M0 6.51562C0 7.03125 0.421875 7.45312 0.9375 7.45312C1.46484 7.45312 1.88672 7.03125 1.88672 6.51562L1.88672 4.30078C1.88672 2.8125 2.77734 1.91016 4.27734 1.91016L6.53906 1.91016C7.05469 1.91016 7.48828 1.47656 7.48828 0.960938C7.48828 0.445312 7.05469 0.0234375 6.53906 0.0234375L4.27734 0.0234375C1.61719 0.0234375 0 1.65234 0 4.30078ZM22.9453 6.51562L22.9453 4.30078C22.9453 1.65234 21.3281 0.0234375 18.668 0.0234375L16.3945 0.0234375C15.8789 0.0234375 15.457 0.445312 15.457 0.960938C15.457 1.47656 15.8789 1.91016 16.3945 1.91016L18.668 1.91016C20.168 1.91016 21.0586 2.8125 21.0586 4.30078L21.0586 6.51562C21.0586 7.03125 21.4805 7.45312 21.9961 7.45312C22.5117 7.45312 22.9453 7.03125 22.9453 6.51562ZM0 16.4648L0 18.6797C0 21.3281 1.61719 22.957 4.27734 22.957L6.53906 22.957C7.05469 22.957 7.48828 22.5352 7.48828 22.0195C7.48828 21.5039 7.05469 21.0703 6.53906 21.0703L4.27734 21.0703C2.77734 21.0703 1.88672 20.168 1.88672 18.6797L1.88672 16.4648C1.88672 15.9492 1.46484 15.5156 0.9375 15.5156C0.421875 15.5156 0 15.9492 0 16.4648ZM22.9453 16.4648C22.9453 15.9492 22.5117 15.5156 21.9961 15.5156C21.4805 15.5156 21.0586 15.9492 21.0586 16.4648L21.0586 18.6797C21.0586 20.168 20.168 21.0703 18.668 21.0703L16.3945 21.0703C15.8789 21.0703 15.457 21.5039 15.457 22.0195C15.457 22.5352 15.8789 22.957 16.3945 22.957L18.668 22.957C21.3281 22.957 22.9453 21.3281 22.9453 18.6797Z" fill="black" fill-opacity="0.85"/>
  <path d="M8.27344 16.1602L16.2656 8.15625C16.4414 7.99219 16.5469 7.75781 16.5469 7.5C16.5469 6.98438 16.125 6.58594 15.6094 6.58594C15.3516 6.58594 15.1289 6.66797 14.9531 6.85547L6.94922 14.8359C6.76172 15.0117 6.66797 15.2344 6.66797 15.4922C6.66797 16.0195 7.07812 16.4414 7.60547 16.4414C7.875 16.4414 8.09766 16.3359 8.27344 16.1602ZM14.9297 16.1602C15.1055 16.3359 15.3281 16.4414 15.6094 16.4414C16.125 16.4414 16.5469 16.0195 16.5469 15.4922C16.5469 15.2344 16.4414 15.0117 16.2656 14.8359L8.25 6.85547C8.07422 6.66797 7.86328 6.58594 7.60547 6.58594C7.07812 6.58594 6.66797 6.98438 6.66797 7.5C6.66797 7.75781 6.76172 7.99219 6.94922 8.15625Z" fill="black" fill-opacity="0.85"/>
 </g>
</svg>
