<?xml version="1.0" encoding="UTF-8"?>
<!--Generator: Apple Native CoreSVG 360-->
<!DOCTYPE svg
PUBLIC "-//W3C//DTD SVG 1.1//EN"
       "http://www.w3.org/Graphics/SVG/1.1/DTD/svg11.dtd">
<svg version="1.1" xmlns="http://www.w3.org/2000/svg" xmlns:xlink="http://www.w3.org/1999/xlink" viewBox="0 0 22.1484 21.5742">
 <g>
  <rect height="21.5742" opacity="0" width="22.1484" x="0" y="0"/>
  <path d="M14.1445 21.4102L19.4766 21.4102C20.9648 21.4102 21.7148 20.6719 21.7148 19.125L21.7148 13.8867C21.7148 12.3398 20.9648 11.6016 19.4766 11.6016L14.1445 11.6016C12.6562 11.6016 11.9062 12.3398 11.9062 13.8867L11.9062 19.125C11.9062 20.6719 12.6562 21.4102 14.1445 21.4102ZM14.168 19.7578C13.7578 19.7578 13.5586 19.5469 13.5586 19.125L13.5586 13.8867C13.5586 13.4531 13.7578 13.2539 14.168 13.2539L19.4648 13.2539C19.8633 13.2539 20.0625 13.4531 20.0625 13.8867L20.0625 19.125C20.0625 19.5469 19.8633 19.7578 19.4648 19.7578Z" fill="black" fill-opacity="0.85"/>
  <path d="M5.05078 21.5742C7.83984 21.5742 10.0898 19.3125 10.0898 16.5234C10.0898 13.7344 7.83984 11.4844 5.05078 11.4844C2.26172 11.4844 0 13.7344 0 16.5234C0 19.3125 2.26172 21.5742 5.05078 21.5742ZM5.05078 19.9219C3.17578 19.9219 1.65234 18.3984 1.65234 16.5234C1.65234 14.6484 3.17578 13.1367 5.05078 13.1367C6.92578 13.1367 8.4375 14.6484 8.4375 16.5234C8.4375 18.3984 6.92578 19.9219 5.05078 19.9219Z" fill="black" fill-opacity="0.85"/>
  <path d="M13.043 9.30469L20.5781 9.30469C21.6328 9.30469 22.0547 8.41406 21.5508 7.51172L17.8594 0.949219C17.332 0.0117188 16.2773 0.0234375 15.7617 0.949219L12.082 7.51172C11.5898 8.39062 11.9766 9.30469 13.043 9.30469ZM13.9922 7.76953C13.8281 7.76953 13.7578 7.66406 13.8398 7.51172L16.6523 2.47266C16.7461 2.32031 16.875 2.32031 16.957 2.47266L19.7812 7.51172C19.8633 7.66406 19.793 7.76953 19.6289 7.76953Z" fill="black" fill-opacity="0.85"/>
  <path d="M8.19141 9.04688C8.50781 9.375 9.02344 9.33984 9.32812 9.02344C9.64453 8.70703 9.67969 8.20312 9.36328 7.88672L1.875 0.410156C1.57031 0.105469 1.05469 0.128906 0.738281 0.445312C0.433594 0.75 0.398438 1.27734 0.703125 1.58203ZM1.88672 9.04688L9.375 1.58203C9.67969 1.27734 9.64453 0.75 9.33984 0.445312C9.03516 0.128906 8.50781 0.105469 8.20312 0.410156L0.714844 7.88672C0.398438 8.20312 0.433594 8.70703 0.75 9.02344C1.06641 9.33984 1.57031 9.375 1.88672 9.04688Z" fill="black" fill-opacity="0.85"/>
 </g>
</svg>
