<?xml version="1.0" encoding="UTF-8"?>
<!--Generator: Apple Native CoreSVG 360-->
<!DOCTYPE svg
PUBLIC "-//W3C//DTD SVG 1.1//EN"
       "http://www.w3.org/Graphics/SVG/1.1/DTD/svg11.dtd">
<svg version="1.1" xmlns="http://www.w3.org/2000/svg" xmlns:xlink="http://www.w3.org/1999/xlink" viewBox="0 0 27.9844 21.5742">
 <g>
  <rect height="21.5742" opacity="0" width="27.9844" x="0" y="0"/>
  <path d="M4.94531 21.5742L22.9805 21.5742C25.9336 21.5742 27.6328 19.793 27.6328 16.6289L27.6328 4.95703C27.6328 1.79297 25.9336 0 22.9805 0L4.94531 0C1.79297 0 0 1.79297 0 4.95703L0 16.6289C0 19.793 1.79297 21.5742 4.94531 21.5742ZM4.95703 19.6875C3.01172 19.6875 1.88672 18.5742 1.88672 16.6289L1.88672 4.95703C1.88672 3.01172 3.01172 1.88672 4.95703 1.88672L22.6758 1.88672C24.6211 1.88672 25.7461 3.01172 25.7461 4.95703L25.7461 16.6289C25.7461 18.5742 24.6211 19.6875 22.6758 19.6875Z" fill="black" fill-opacity="0.85"/>
  <path d="M10.5 15.4453L18.4805 7.45312C18.668 7.27734 18.7617 7.05469 18.7617 6.79688C18.7617 6.26953 18.3398 5.87109 17.8242 5.87109C17.5664 5.87109 17.3555 5.96484 17.1797 6.15234L9.16406 14.1211C8.98828 14.3086 8.88281 14.5195 8.88281 14.7891C8.88281 15.3047 9.30469 15.7383 9.82031 15.7383C10.1016 15.7383 10.3242 15.6211 10.5 15.4453ZM17.1562 15.4453C17.332 15.6211 17.5547 15.7383 17.8242 15.7383C18.3398 15.7383 18.7617 15.3047 18.7617 14.7891C18.7617 14.5195 18.668 14.3086 18.4805 14.1211L10.4766 6.15234C10.3008 5.96484 10.0781 5.87109 9.82031 5.87109C9.30469 5.87109 8.88281 6.26953 8.88281 6.79688C8.88281 7.05469 8.98828 7.27734 9.16406 7.45312Z" fill="black" fill-opacity="0.85"/>
 </g>
</svg>
