<?xml version="1.0" encoding="UTF-8"?>
<!--Generator: Apple Native CoreSVG 360-->
<!DOCTYPE svg
PUBLIC "-//W3C//DTD SVG 1.1//EN"
       "http://www.w3.org/Graphics/SVG/1.1/DTD/svg11.dtd">
<svg version="1.1" xmlns="http://www.w3.org/2000/svg" xmlns:xlink="http://www.w3.org/1999/xlink" viewBox="0 0 28.2305 21.5977">
 <g>
  <rect height="21.5977" opacity="0" width="28.2305" x="0" y="0"/>
  <path d="M23.6602 18.1055C23.3203 20.3789 22.3945 21.5977 20.0859 21.5977L7.78125 21.5977C5.48438 21.5977 4.55859 20.3906 4.21875 18.1055L2.54297 6.94922L25.3242 6.94922ZM16.8047 9.80859L13.9395 12.669L11.0742 9.80859C10.8867 9.64453 10.6875 9.52734 10.4414 9.52734C9.92578 9.52734 9.49219 9.94922 9.49219 10.4531C9.49219 10.7109 9.62109 10.9336 9.78516 11.0977L12.6445 13.9618L9.78516 16.8164C9.62109 16.9922 9.49219 17.1914 9.49219 17.4609C9.49219 17.9648 9.92578 18.4102 10.4297 18.4102C10.6992 18.4102 10.9102 18.2695 11.0859 18.1172L13.9395 15.2589L16.793 18.1172C16.9688 18.2695 17.1797 18.4102 17.4492 18.4102C17.9531 18.4102 18.3867 17.9648 18.3867 17.4609C18.3867 17.1914 18.2578 16.9922 18.0938 16.8164L15.2344 13.9618L18.0938 11.0977C18.2578 10.9336 18.3867 10.7109 18.3867 10.4531C18.3867 9.94922 17.9531 9.52734 17.4375 9.52734C17.1914 9.52734 16.9922 9.64453 16.8047 9.80859ZM27.8789 2.12109L27.8789 3.25781C27.8789 4.57031 27.2109 5.35547 25.8867 5.35547L1.99219 5.35547C0.667969 5.35547 0 4.57031 0 3.25781L0 2.12109C0 0.808594 0.738281 0.0234375 1.99219 0.0234375L25.8867 0.0234375C27.2109 0.0234375 27.8789 0.808594 27.8789 2.12109Z" fill="black" fill-opacity="0.85"/>
 </g>
</svg>
