<?xml version="1.0" encoding="UTF-8"?>
<!--Generator: Apple Native CoreSVG 360-->
<!DOCTYPE svg
PUBLIC "-//W3C//DTD SVG 1.1//EN"
       "http://www.w3.org/Graphics/SVG/1.1/DTD/svg11.dtd">
<svg version="1.1" xmlns="http://www.w3.org/2000/svg" xmlns:xlink="http://www.w3.org/1999/xlink" viewBox="0 0 27.9844 20.0273">
 <g>
  <rect height="20.0273" opacity="0" width="27.9844" x="0" y="0"/>
  <path d="M3.67969 20.0273L23.9531 20.0273C26.4023 20.0273 27.6328 18.8203 27.6328 16.3945L27.6328 9.32812C27.6328 7.72266 27.2578 6.69141 26.2852 5.71875L22.3945 1.69922C21.2578 0.527344 20.2969 0.0234375 18.7383 0.0234375L8.89453 0.0234375C7.34766 0.0234375 6.375 0.527344 5.25 1.69922L1.34766 5.71875C0.386719 6.69141 0 7.72266 0 9.32812L0 16.3945C0 18.8203 1.23047 20.0273 3.67969 20.0273ZM3.70312 18.1406C2.53125 18.1406 1.88672 17.5195 1.88672 16.3008L1.88672 10.6992C1.88672 9.96094 2.21484 9.62109 2.92969 9.62109L24.7031 9.62109C25.418 9.62109 25.7461 9.96094 25.7461 10.6992L25.7461 16.3008C25.7461 17.5195 25.1016 18.1406 23.9297 18.1406ZM2.76562 7.92188C2.35547 7.92188 2.23828 7.54688 2.48438 7.28906L6.78516 2.74219C7.51172 1.96875 8.02734 1.72266 8.98828 1.72266L18.6445 1.72266C19.6055 1.72266 20.1328 1.96875 20.8477 2.74219L25.1602 7.28906C25.3945 7.54688 25.2891 7.92188 24.8672 7.92188ZM4.75781 17.0039C5.10938 17.0039 5.42578 16.7344 5.42578 16.3711L5.42578 11.4141C5.42578 11.0625 5.10938 10.7695 4.75781 10.7695C4.39453 10.7695 4.11328 11.0625 4.11328 11.4141L4.11328 16.3711C4.11328 16.7344 4.39453 17.0039 4.75781 17.0039ZM7.51172 17.0039C7.875 17.0039 8.17969 16.7344 8.17969 16.3711L8.17969 11.4141C8.17969 11.0625 7.875 10.7695 7.51172 10.7695C7.14844 10.7695 6.87891 11.0625 6.87891 11.4141L6.87891 16.3711C6.87891 16.7344 7.14844 17.0039 7.51172 17.0039ZM10.2656 17.0039C10.6289 17.0039 10.9336 16.7344 10.9336 16.3711L10.9336 11.4141C10.9336 11.0625 10.6289 10.7695 10.2656 10.7695C9.90234 10.7695 9.63281 11.0625 9.63281 11.4141L9.63281 16.3711C9.63281 16.7344 9.90234 17.0039 10.2656 17.0039ZM13.8281 12.4688C14.2969 12.4688 14.6836 12.082 14.6836 11.6016C14.6836 11.1445 14.2969 10.7578 13.8281 10.7578C13.3594 10.7578 12.9727 11.1445 12.9727 11.6016C12.9727 12.082 13.3594 12.4688 13.8281 12.4688ZM13.8281 14.7305C14.2969 14.7305 14.6836 14.3438 14.6836 13.875C14.6836 13.4062 14.2969 13.0195 13.8281 13.0195C13.3594 13.0195 12.9727 13.4062 12.9727 13.875C12.9727 14.3438 13.3594 14.7305 13.8281 14.7305ZM13.8281 16.9922C14.2969 16.9922 14.6836 16.6055 14.6836 16.1367C14.6836 15.668 14.2969 15.293 13.8281 15.293C13.3594 15.293 12.9727 15.668 12.9727 16.1367C12.9727 16.6055 13.3594 16.9922 13.8281 16.9922ZM17.25 17.0039C17.6133 17.0039 17.918 16.7344 17.918 16.3711L17.918 11.4141C17.918 11.0625 17.6133 10.7695 17.25 10.7695C16.8867 10.7695 16.6172 11.0625 16.6172 11.4141L16.6172 16.3711C16.6172 16.7344 16.8867 17.0039 17.25 17.0039ZM20.0039 17.0039C20.3672 17.0039 20.6836 16.7344 20.6836 16.3711L20.6836 11.4141C20.6836 11.0625 20.3672 10.7695 20.0039 10.7695C19.6523 10.7695 19.3711 11.0625 19.3711 11.4141L19.3711 16.3711C19.3711 16.7344 19.6523 17.0039 20.0039 17.0039ZM22.7695 17.0039C23.1211 17.0039 23.4375 16.7344 23.4375 16.3711L23.4375 11.4141C23.4375 11.0625 23.1211 10.7695 22.7695 10.7695C22.4062 10.7695 22.125 11.0625 22.125 11.4141L22.125 16.3711C22.125 16.7344 22.4062 17.0039 22.7695 17.0039Z" fill="black" fill-opacity="0.85"/>
 </g>
</svg>
