<?xml version="1.0" encoding="UTF-8"?>
<!--Generator: Apple Native CoreSVG 360-->
<!DOCTYPE svg
PUBLIC "-//W3C//DTD SVG 1.1//EN"
       "http://www.w3.org/Graphics/SVG/1.1/DTD/svg11.dtd">
<svg version="1.1" xmlns="http://www.w3.org/2000/svg" xmlns:xlink="http://www.w3.org/1999/xlink" viewBox="0 0 24.2578 23.918">
 <g>
  <rect height="23.918" opacity="0" width="24.2578" x="0" y="0"/>
  <path d="M11.9531 23.9062C18.5508 23.9062 23.9062 18.5508 23.9062 11.9531C23.9062 5.35547 18.5508 0 11.9531 0C5.35547 0 0 5.35547 0 11.9531C0 18.5508 5.35547 23.9062 11.9531 23.9062ZM11.9531 21.9141C6.44531 21.9141 1.99219 17.4609 1.99219 11.9531C1.99219 6.44531 6.44531 1.99219 11.9531 1.99219C17.4609 1.99219 21.9141 6.44531 21.9141 11.9531C21.9141 17.4609 17.4609 21.9141 11.9531 21.9141Z" fill="black" fill-opacity="0.85"/>
  <path d="M11.9414 17.3203C12.5508 17.3203 12.8906 16.9219 12.8906 16.2656L12.8906 13.207L16.1836 7.72266C16.2891 7.55859 16.3359 7.37109 16.3359 7.20703C16.3359 6.72656 15.9844 6.36328 15.4922 6.36328C15.082 6.36328 14.8711 6.51562 14.625 6.94922L11.9883 11.4492L11.918 11.4492L9.29297 6.94922C9.04688 6.50391 8.82422 6.36328 8.40234 6.36328C7.92188 6.36328 7.54688 6.73828 7.54688 7.18359C7.54688 7.35938 7.59375 7.53516 7.69922 7.72266L11.0156 13.2305L11.0156 16.2656C11.0156 16.8984 11.3438 17.3203 11.9414 17.3203Z" fill="black" fill-opacity="0.85"/>
 </g>
</svg>
