<?xml version="1.0" encoding="UTF-8"?>
<!--Generator: Apple Native CoreSVG 360-->
<!DOCTYPE svg
PUBLIC "-//W3C//DTD SVG 1.1//EN"
       "http://www.w3.org/Graphics/SVG/1.1/DTD/svg11.dtd">
<svg version="1.1" xmlns="http://www.w3.org/2000/svg" xmlns:xlink="http://www.w3.org/1999/xlink" viewBox="0 0 21.9258 21.5742">
 <g>
  <rect height="21.5742" opacity="0" width="21.9258" x="0" y="0"/>
  <path d="M3.67969 21.5742L17.8945 21.5742C20.3555 21.5742 21.5742 20.3672 21.5742 17.9531L21.5742 3.63281C21.5742 1.21875 20.3555 0 17.8945 0L3.67969 0C1.23047 0 0 1.21875 0 3.63281L0 17.9531C0 20.3672 1.23047 21.5742 3.67969 21.5742ZM3.70312 19.6875C2.53125 19.6875 1.88672 19.0664 1.88672 17.8477L1.88672 3.73828C1.88672 2.51953 2.53125 1.88672 3.70312 1.88672L17.8711 1.88672C19.0312 1.88672 19.6875 2.51953 19.6875 3.73828L19.6875 17.8477C19.6875 19.0664 19.0312 19.6875 17.8711 19.6875Z" fill="black" fill-opacity="0.85"/>
  <path d="M10.793 16.1602C11.4023 16.1602 11.7422 15.7617 11.7422 15.1055L11.7422 12.0469L15.0352 6.5625C15.1406 6.39844 15.1875 6.21094 15.1875 6.04688C15.1875 5.56641 14.8359 5.20312 14.3438 5.20312C13.9453 5.20312 13.7227 5.35547 13.4766 5.78906L10.8516 10.2891L10.7695 10.2891L8.14453 5.78906C7.89844 5.34375 7.67578 5.20312 7.25391 5.20312C6.77344 5.20312 6.39844 5.57812 6.39844 6.02344C6.39844 6.19922 6.44531 6.375 6.55078 6.5625L9.86719 12.0703L9.86719 15.1055C9.86719 15.7383 10.1953 16.1602 10.793 16.1602Z" fill="black" fill-opacity="0.85"/>
 </g>
</svg>
