<?xml version="1.0" encoding="UTF-8"?>
<!--Generator: Apple Native CoreSVG 360-->
<!DOCTYPE svg
PUBLIC "-//W3C//DTD SVG 1.1//EN"
       "http://www.w3.org/Graphics/SVG/1.1/DTD/svg11.dtd">
<svg version="1.1" xmlns="http://www.w3.org/2000/svg" xmlns:xlink="http://www.w3.org/1999/xlink" viewBox="0 0 16.6992 21.8789">
 <g>
  <rect height="21.8789" opacity="0" width="16.6992" x="0" y="0"/>
  <path d="M8.16797 21.8672C8.85938 21.8672 9.30469 21.4102 9.30469 20.6953L9.30469 12.6562L16.1133 1.79297C16.2656 1.54688 16.3477 1.3125 16.3477 1.03125C16.3477 0.398438 15.8086 0 15.1875 0C14.7773 0 14.4023 0.246094 14.1797 0.609375L8.22656 10.5469L8.12109 10.5469L2.16797 0.621094C1.95703 0.246094 1.57031 0 1.16016 0C0.539062 0 0 0.398438 0 1.03125C0 1.3125 0.0820312 1.54688 0.234375 1.79297L7.03125 12.6562L7.03125 20.6953C7.03125 21.4102 7.47656 21.8672 8.16797 21.8672ZM1.65234 12.1406C1.65234 12.5625 2.00391 12.9023 2.41406 12.9023L14.0273 12.9023C14.4375 12.9023 14.7891 12.5625 14.7891 12.1406C14.7891 11.7188 14.4375 11.3789 14.0273 11.3789L2.41406 11.3789C2.00391 11.3789 1.65234 11.7188 1.65234 12.1406ZM1.65234 16.1953C1.65234 16.6172 2.00391 16.957 2.41406 16.957L14.0273 16.957C14.4375 16.957 14.7891 16.6172 14.7891 16.1953C14.7891 15.7734 14.4375 15.4336 14.0273 15.4336L2.41406 15.4336C2.00391 15.4336 1.65234 15.7734 1.65234 16.1953Z" fill="black" fill-opacity="0.85"/>
 </g>
</svg>
