<?xml version="1.0" encoding="UTF-8"?>
<!--Generator: Apple Native CoreSVG 360-->
<!DOCTYPE svg
PUBLIC "-//W3C//DTD SVG 1.1//EN"
       "http://www.w3.org/Graphics/SVG/1.1/DTD/svg11.dtd">
<svg version="1.1" xmlns="http://www.w3.org/2000/svg" xmlns:xlink="http://www.w3.org/1999/xlink" viewBox="0 0 28.582 23.4085">
 <g>
  <rect height="23.4085" opacity="0" width="28.582" x="0" y="0"/>
  <path d="M28.2305 14.0539C28.2305 6.67105 22.5586 0.612457 15.3398 0.00308175C14.9648-0.0320745 14.6836 0.237457 14.6836 0.612457L14.6836 4.44449C14.6836 4.76089 14.9062 5.00699 15.2227 5.03043C19.7109 5.58121 23.2031 9.41324 23.2031 14.0539C23.2031 16.1632 22.4766 18.1086 21.1992 19.7375C21.0352 19.9367 21.0469 20.1945 21.2227 20.382L24.0234 23.1711C24.2812 23.4289 24.6797 23.4289 24.9141 23.1476C26.9883 20.6867 28.2305 17.5109 28.2305 14.0539Z" fill="black" fill-opacity="0.85"/>
  <path d="M0 14.0539C0 17.5226 1.24219 20.6984 3.31641 23.1593C3.55078 23.4406 3.9375 23.4289 4.20703 23.1711L7.00781 20.382C7.18359 20.1945 7.19531 19.9367 7.03125 19.7375C5.74219 18.1086 5.02734 16.1632 5.02734 14.0539C5.02734 9.41324 8.51953 5.58121 13.0078 5.03043C13.3242 5.00699 13.5469 4.76089 13.5469 4.44449L13.5469 0.612457C13.5469 0.237457 13.2656-0.0320745 12.8906 0.00308175C5.67188 0.612457 0 6.67105 0 14.0539Z" fill="black" fill-opacity="0.85"/>
  <path d="M14.0977 19.7023C14.5078 19.7023 14.7773 19.4211 14.7773 18.9992L14.7773 15.1671L18.1172 9.78824C18.2227 9.61246 18.2578 9.53043 18.2578 9.34293C18.2578 8.96793 17.9648 8.72183 17.5898 8.72183C17.332 8.72183 17.1211 8.86246 16.9688 9.10855L14.1328 13.925L14.0859 13.925L11.25 9.10855C11.0977 8.86246 10.9336 8.71011 10.6172 8.71011C10.2422 8.71011 9.94922 8.95621 9.94922 9.34293C9.94922 9.47183 9.98438 9.62418 10.0898 9.79996L13.4297 15.1671L13.4297 18.9992C13.4297 19.4211 13.6992 19.7023 14.0977 19.7023ZM10.7344 14.8976C10.7344 15.1203 10.9102 15.2961 11.1328 15.2961L17.0977 15.2961C17.3203 15.2961 17.4961 15.1203 17.4961 14.8976C17.4961 14.675 17.3203 14.4992 17.0977 14.4992L11.1328 14.4992C10.9102 14.4992 10.7344 14.675 10.7344 14.8976ZM10.7344 16.925C10.7344 17.1476 10.9102 17.3234 11.1328 17.3234L17.0977 17.3234C17.3203 17.3234 17.4961 17.1476 17.4961 16.925C17.4961 16.7023 17.3203 16.5265 17.0977 16.5265L11.1328 16.5265C10.9102 16.5265 10.7344 16.7023 10.7344 16.925Z" fill="black" fill-opacity="0.85"/>
 </g>
</svg>
