<?xml version="1.0" encoding="UTF-8"?>
<!--Generator: Apple Native CoreSVG 360-->
<!DOCTYPE svg
PUBLIC "-//W3C//DTD SVG 1.1//EN"
       "http://www.w3.org/Graphics/SVG/1.1/DTD/svg11.dtd">
<svg version="1.1" xmlns="http://www.w3.org/2000/svg" xmlns:xlink="http://www.w3.org/1999/xlink" viewBox="0 0 24.9141 22.3945">
 <g>
  <rect height="22.3945" opacity="0" width="24.9141" x="0" y="0"/>
  <path d="M3.19922 0C1.20703 0 0 1.39453 0 3.1875C0 3.72656 0.140625 4.28906 0.457031 4.82812L9.55078 20.6719C10.1484 21.7266 11.2031 22.2656 12.2812 22.2656C13.3594 22.2656 14.4023 21.7266 15.0117 20.6719L24.1055 4.82812C24.3984 4.30078 24.5625 3.72656 24.5625 3.1875C24.5625 1.39453 23.3555 0 21.3633 0ZM3.21094 1.85156L21.3398 1.85156C22.1484 1.85156 22.6641 2.48438 22.6641 3.1875C22.6641 3.42188 22.6055 3.67969 22.4766 3.92578L13.3945 19.7812C13.1484 20.2148 12.7148 20.4023 12.2812 20.4023C11.8477 20.4023 11.4023 20.2148 11.1562 19.7812L2.07422 3.9375C1.94531 3.69141 1.89844 3.42188 1.89844 3.1875C1.89844 2.48438 2.39062 1.85156 3.21094 1.85156Z" fill="black" fill-opacity="0.85"/>
  <path d="M4.88672 3.57422C4.40625 3.57422 4.125 4.01953 4.38281 4.46484L11.7656 17.3672C12.0117 17.8008 12.5391 17.8008 12.7852 17.3672L20.168 4.46484C20.4141 4.03125 20.1445 3.57422 19.6641 3.57422Z" fill="black" fill-opacity="0.85"/>
 </g>
</svg>
