<?xml version="1.0" encoding="UTF-8"?>
<!--Generator: Apple Native CoreSVG 360-->
<!DOCTYPE svg
PUBLIC "-//W3C//DTD SVG 1.1//EN"
       "http://www.w3.org/Graphics/SVG/1.1/DTD/svg11.dtd">
<svg version="1.1" xmlns="http://www.w3.org/2000/svg" xmlns:xlink="http://www.w3.org/1999/xlink" viewBox="0 0 24.2578 23.918">
 <g>
  <rect height="23.918" opacity="0" width="24.2578" x="0" y="0"/>
  <path d="M11.9531 23.9062C18.5508 23.9062 23.9062 18.5508 23.9062 11.9531C23.9062 5.35547 18.5508 0 11.9531 0C5.35547 0 0 5.35547 0 11.9531C0 18.5508 5.35547 23.9062 11.9531 23.9062ZM11.9531 21.9141C6.44531 21.9141 1.99219 17.4609 1.99219 11.9531C1.99219 6.44531 6.44531 1.99219 11.9531 1.99219C17.4609 1.99219 21.9141 6.44531 21.9141 11.9531C21.9141 17.4609 17.4609 21.9141 11.9531 21.9141Z" fill="black" fill-opacity="0.85"/>
  <path d="M8.56641 17.1797L15.4336 17.1797C15.8789 17.1797 16.2188 16.8867 16.2188 16.418C16.2188 15.9375 15.8789 15.6445 15.4336 15.6445L10.1719 15.6445L10.1719 15.5508L15.5508 8.08594C15.7852 7.76953 15.832 7.60547 15.832 7.33594C15.832 6.84375 15.4805 6.50391 14.9648 6.50391L8.46094 6.50391C8.01562 6.50391 7.6875 6.79688 7.6875 7.26562C7.6875 7.74609 8.01562 8.03906 8.46094 8.03906L13.4297 8.03906L13.4297 8.13281L8.03906 15.5977C7.78125 15.9609 7.72266 16.125 7.72266 16.3828C7.72266 16.8516 8.0625 17.1797 8.56641 17.1797Z" fill="black" fill-opacity="0.85"/>
 </g>
</svg>
