<?xml version="1.0" encoding="UTF-8"?>
<!--Generator: Apple Native CoreSVG 360-->
<!DOCTYPE svg
PUBLIC "-//W3C//DTD SVG 1.1//EN"
       "http://www.w3.org/Graphics/SVG/1.1/DTD/svg11.dtd">
<svg version="1.1" xmlns="http://www.w3.org/2000/svg" xmlns:xlink="http://www.w3.org/1999/xlink" viewBox="0 0 21.9258 21.5742">
 <g>
  <rect height="21.5742" opacity="0" width="21.9258" x="0" y="0"/>
  <path d="M3.67969 21.5742L17.8945 21.5742C20.3555 21.5742 21.5742 20.3672 21.5742 17.9531L21.5742 3.63281C21.5742 1.21875 20.3555 0 17.8945 0L3.67969 0C1.23047 0 0 1.21875 0 3.63281L0 17.9531C0 20.3672 1.23047 21.5742 3.67969 21.5742ZM3.70312 19.6875C2.53125 19.6875 1.88672 19.0664 1.88672 17.8477L1.88672 3.73828C1.88672 2.51953 2.53125 1.88672 3.70312 1.88672L17.8711 1.88672C19.0312 1.88672 19.6875 2.51953 19.6875 3.73828L19.6875 17.8477C19.6875 19.0664 19.0312 19.6875 17.8711 19.6875Z" fill="black" fill-opacity="0.85"/>
  <path d="M7.41797 16.0195L14.2852 16.0195C14.7422 16.0195 15.0703 15.7266 15.0703 15.2578C15.0703 14.7773 14.7422 14.4844 14.2852 14.4844L9.02344 14.4844L9.02344 14.3906L14.4023 6.92578C14.6367 6.60938 14.6836 6.44531 14.6836 6.17578C14.6836 5.68359 14.332 5.34375 13.8281 5.34375L7.32422 5.34375C6.86719 5.34375 6.53906 5.63672 6.53906 6.10547C6.53906 6.58594 6.86719 6.87891 7.32422 6.87891L12.2812 6.87891L12.2812 6.97266L6.89062 14.4375C6.64453 14.8008 6.57422 14.9648 6.57422 15.2227C6.57422 15.6914 6.92578 16.0195 7.41797 16.0195Z" fill="black" fill-opacity="0.85"/>
 </g>
</svg>
