<?xml version="1.0" encoding="UTF-8"?>
<!--Generator: Apple Native CoreSVG 360-->
<!DOCTYPE svg
PUBLIC "-//W3C//DTD SVG 1.1//EN"
       "http://www.w3.org/Graphics/SVG/1.1/DTD/svg11.dtd">
<svg version="1.1" xmlns="http://www.w3.org/2000/svg" xmlns:xlink="http://www.w3.org/1999/xlink" viewBox="0 0 27.3867 20.4492">
 <g>
  <rect height="20.4492" opacity="0" width="27.3867" x="0" y="0"/>
  <path d="M9.83203 0C3.03516 0 0 3.12891 0 9.52734L0 16.875C0 19.2422 1.21875 20.4375 3.59766 20.4375L23.4375 20.4375C25.8164 20.4375 27.0352 19.2305 27.0352 16.875L27.0352 9.52734C27.0352 3.12891 24 0 17.2031 0ZM9.83203 1.88672L17.1914 1.88672C22.7344 1.88672 25.1484 4.28906 25.1484 9.39844L25.1484 16.7812C25.1484 17.9531 24.5156 18.5508 23.3906 18.5508L3.64453 18.5508C2.49609 18.5508 1.88672 17.9531 1.88672 16.7812L1.88672 9.39844C1.88672 4.28906 4.30078 1.88672 9.83203 1.88672Z" fill="black" fill-opacity="0.85"/>
  <path d="M7.71094 15.0117L11.918 15.0117C12.3047 15.0117 12.6211 14.6836 12.6211 14.2969C12.6211 13.9102 12.3047 13.582 11.918 13.582L8.76562 13.582L8.76562 13.5117L12.2695 7.03125C12.3867 6.80859 12.4688 6.62109 12.4688 6.33984C12.4688 5.84766 12.1289 5.50781 11.6133 5.50781L7.57031 5.50781C7.18359 5.50781 6.85547 5.83594 6.85547 6.22266C6.85547 6.60938 7.18359 6.9375 7.57031 6.9375L10.582 6.9375L10.582 7.00781L7.04297 13.5C6.90234 13.7461 6.85547 13.9336 6.85547 14.2031C6.85547 14.7188 7.21875 15.0117 7.71094 15.0117ZM15.0117 15.1289C15.5273 15.1289 15.8555 14.7773 15.8555 14.2266L15.8555 11.3438L16.9688 11.3438L18.1875 14.4141C18.3633 14.8594 18.6211 15.1289 19.0898 15.1289C19.4648 15.1289 19.8867 14.8945 19.8867 14.2969C19.8867 14.1562 19.8164 13.9219 19.6992 13.6523L18.5859 10.9922C19.5352 10.5 19.9336 9.49219 19.9336 8.42578C19.9336 6.51562 18.8086 5.49609 16.9805 5.49609L14.9883 5.49609C14.4375 5.49609 14.1328 5.83594 14.1328 6.38672L14.1328 14.2266C14.1328 14.7656 14.4492 15.1289 15.0117 15.1289ZM15.8555 10.0898L15.8555 6.85547L16.8164 6.85547C17.7188 6.85547 18.2109 7.52344 18.2109 8.46094C18.2109 9.39844 17.7773 10.0898 16.8281 10.0898Z" fill="black" fill-opacity="0.85"/>
 </g>
</svg>
